<!-- Generated by IcoMoon.io -->
<svg version="1.1" xmlns="http://www.w3.org/2000/svg" width="32" height="32" viewBox="0 0 32 32">
<title>accessibility-filled</title>
<path d="M16 9.667c1.933 0 3.5-1.567 3.5-3.5s-1.567-3.5-3.5-3.5v0c-1.933 0-3.5 1.567-3.5 3.5s1.567 3.5 3.5 3.5v0zM7.805 6.839c-0.281-0.102-0.605-0.161-0.942-0.161-1.565 0-2.833 1.269-2.833 2.833 0 1.207 0.755 2.238 1.818 2.646l0.019 0.007 5.248 1.91c0.129 0.048 0.219 0.17 0.219 0.313 0 0 0 0 0 0v0 2.959c0 0.235-0.045 0.469-0.133 0.687l-2.993 7.408c-0.13 0.314-0.206 0.679-0.206 1.061 0 1.565 1.269 2.834 2.834 2.834 1.182 0 2.196-0.724 2.62-1.753l0.007-0.019 2.229-5.516c0.051-0.124 0.17-0.209 0.309-0.209s0.259 0.085 0.309 0.207l0.001 0.002 2.229 5.516c0.432 1.048 1.445 1.773 2.628 1.773 1.565 0 2.834-1.269 2.834-2.834 0-0.382-0.076-0.747-0.213-1.080l0.007 0.019-2.992-7.403c-0.084-0.203-0.133-0.439-0.133-0.686 0-0 0-0 0-0.001v0-2.965c0-0.143 0.091-0.266 0.218-0.313l0.002-0.001 5.248-1.909c1.097-0.408 1.864-1.446 1.864-2.663 0-1.565-1.269-2.834-2.834-2.834-0.348 0-0.681 0.063-0.989 0.177l0.020-0.006-2.541 0.925c-0.547 0.199-0.948 0.597-1.203 1.029-0.915 1.531-2.564 2.54-4.448 2.54-0.001 0-0.002 0-0.003 0h0c-0.001 0-0.002 0-0.003 0-1.884 0-3.533-1.009-4.435-2.516l-0.013-0.024c-0.256-0.432-0.657-0.831-1.204-1.029l-2.541-0.925z"></path>
</svg>
