<!-- Generated by IcoMoon.io -->
<svg version="1.1" xmlns="http://www.w3.org/2000/svg" width="32" height="32" viewBox="0 0 32 32">
<title>accessibility-filled</title>
<path d="M16 2.664c-1.841 0-3.333 1.492-3.333 3.333s1.492 3.333 3.333 3.333c1.841 0 3.333-1.492 3.333-3.333s-1.492-3.333-3.333-3.333zM27.125 8.689c-0.475-1.445-2.057-2.206-3.483-1.674l-2.142 0.799c-0.244 0.091-0.443 0.274-0.554 0.509-0.874 1.847-2.753 3.121-4.927 3.121-2.169 0-4.044-1.268-4.921-3.108-0.112-0.234-0.31-0.416-0.553-0.507l-2.172-0.81c-1.433-0.534-3.021 0.239-3.485 1.696-0.422 1.327 0.244 2.755 1.532 3.285l4.247 1.747v4.197l-2.629 7.618c-0.468 1.357 0.248 2.838 1.604 3.313 1.341 0.469 2.811-0.221 3.306-1.552l2.461-6.611c0.207-0.556 0.992-0.557 1.201-0.002l2.509 6.678c0.531 1.413 2.154 2.074 3.521 1.433 1.198-0.561 1.779-1.935 1.348-3.186l-2.655-7.707v-4.179l4.26-1.742c1.302-0.533 1.971-1.981 1.532-3.318z"></path>
</svg>
