<!-- Generated by IcoMoon.io -->
<svg version="1.1" xmlns="http://www.w3.org/2000/svg" width="32" height="32" viewBox="0 0 32 32">
<title>accessibility-checkmark-filled</title>
<path d="M16.001 9.667c1.933 0 3.5-1.567 3.5-3.5s-1.567-3.5-3.5-3.5v0c-1.933 0-3.5 1.567-3.5 3.5s1.567 3.5 3.5 3.5v0zM7.807 6.839c-0.281-0.102-0.605-0.161-0.942-0.161-1.565 0-2.833 1.269-2.833 2.833 0 1.207 0.755 2.238 1.818 2.646l0.019 0.007 5.248 1.91c0.129 0.048 0.219 0.17 0.219 0.313 0 0 0 0 0 0v0 2.959c0 0.235-0.045 0.469-0.133 0.687l-2.993 7.408c-0.13 0.314-0.206 0.679-0.206 1.061 0 1.565 1.269 2.834 2.834 2.834 1.182 0 2.196-0.724 2.62-1.753l0.007-0.019 0.819-2.027c-0.18-0.66-0.283-1.418-0.283-2.2 0-0.001 0-0.002 0-0.003v0c0-4.099 2.846-7.533 6.67-8.435v-0.512c0-0 0-0 0-0 0-0.143 0.090-0.265 0.217-0.312l0.002-0.001 5.248-1.909c1.097-0.408 1.864-1.446 1.864-2.663 0-1.565-1.269-2.834-2.834-2.834-0.348 0-0.681 0.063-0.989 0.177l0.020-0.006-2.541 0.925c-0.547 0.199-0.948 0.597-1.203 1.029-0.915 1.531-2.564 2.54-4.448 2.54-0.001 0-0.002 0-0.003 0h0c-0.001 0-0.002 0-0.003 0-1.884 0-3.533-1.009-4.435-2.516l-0.013-0.024c-0.256-0.432-0.657-0.831-1.204-1.029l-2.541-0.925zM30 23.333c0 4.050-3.283 7.333-7.333 7.333s-7.333-3.283-7.333-7.333 3.283-7.333 7.333-7.333 7.333 3.283 7.333 7.333zM27.138 20.195c-0.121-0.121-0.287-0.195-0.471-0.195s-0.351 0.075-0.471 0.195l-4.862 4.862-2.195-2.195c-0.12-0.116-0.283-0.187-0.463-0.187-0.368 0-0.667 0.298-0.667 0.667 0 0.18 0.071 0.343 0.187 0.463l2.666 2.666c0.121 0.121 0.287 0.195 0.471 0.195s0.351-0.075 0.471-0.195l5.333-5.333c0.121-0.121 0.195-0.287 0.195-0.471s-0.075-0.351-0.195-0.471v0z"></path>
</svg>
