<!-- Generated by IcoMoon.io -->
<svg version="1.1" xmlns="http://www.w3.org/2000/svg" width="32" height="32" viewBox="0 0 32 32">
<title>add-filled</title>
<path d="M15.845 4.009l0.155-0.009c0.684 0 1.247 0.515 1.324 1.178l0.009 0.155v9.333h9.333c0.684 0 1.247 0.515 1.324 1.178l0.009 0.155c0 0.684-0.515 1.247-1.178 1.324l-0.155 0.009h-9.333v9.333c0 0.684-0.515 1.247-1.178 1.324l-0.155 0.009c-0.684 0-1.247-0.515-1.324-1.178l-0.009-0.155v-9.333h-9.333c-0.684 0-1.247-0.515-1.324-1.178l-0.009-0.155c0-0.684 0.515-1.247 1.178-1.324l0.155-0.009h9.333v-9.333c0-0.684 0.515-1.247 1.178-1.324v0z"></path>
</svg>
