<!-- Generated by IcoMoon.io -->
<svg version="1.1" xmlns="http://www.w3.org/2000/svg" width="32" height="32" viewBox="0 0 32 32">
<title>add-subtract-circle-filled</title>
<path d="M18.333 19.333c-0.552 0-1 0.448-1 1s0.448 1 1 1h4.667c0.552 0 1-0.448 1-1s-0.448-1-1-1h-4.667zM16 29.333c7.364 0 13.333-5.97 13.333-13.333s-5.97-13.333-13.333-13.333c-7.364 0-13.333 5.97-13.333 13.333s5.97 13.333 13.333 13.333zM24.69 8.724c1.65 1.969 2.643 4.506 2.643 7.276 0 6.259-5.074 11.333-11.333 11.333-2.77 0-5.307-0.993-7.276-2.643l15.966-15.966zM8 11.667c0-0.552 0.448-1 1-1h1.667v-1.667c0-0.552 0.448-1 1-1s1 0.448 1 1v1.667h1.667c0.552 0 1 0.448 1 1s-0.448 1-1 1h-1.667v1.667c0 0.552-0.448 1-1 1s-1-0.448-1-1v-1.667h-1.667c-0.552 0-1-0.448-1-1z"></path>
</svg>
