<!-- Generated by IcoMoon.io -->
<svg version="1.1" xmlns="http://www.w3.org/2000/svg" width="32" height="32" viewBox="0 0 32 32">
<title>add-circle-filled</title>
<path d="M16 2.667c7.364 0 13.333 5.97 13.333 13.333s-5.97 13.333-13.333 13.333c-7.364 0-13.333-5.97-13.333-13.333s5.97-13.333 13.333-13.333zM16 9.333c-0.506 0-0.925 0.376-0.991 0.864l-0.009 0.136v4.667h-4.667c-0.552 0-1 0.448-1 1 0 0.506 0.376 0.925 0.864 0.991l0.136 0.009h4.667v4.667c0 0.552 0.448 1 1 1 0.506 0 0.925-0.376 0.991-0.864l0.009-0.136v-4.667h4.667c0.552 0 1-0.448 1-1 0-0.506-0.376-0.925-0.864-0.991l-0.136-0.009h-4.667v-4.667c0-0.552-0.448-1-1-1z"></path>
</svg>
