<!-- Generated by IcoMoon.io -->
<svg version="1.1" xmlns="http://www.w3.org/2000/svg" width="32" height="32" viewBox="0 0 32 32">
<title>add-subtract-circle-filled</title>
<path d="M18.167 19.667c-0.46 0-0.833 0.373-0.833 0.833s0.373 0.833 0.833 0.833v0h5c0.46 0 0.833-0.373 0.833-0.833s-0.373-0.833-0.833-0.833v0h-5zM16 29.333c7.364 0 13.333-5.969 13.333-13.333s-5.969-13.333-13.333-13.333-13.333 5.969-13.333 13.333 5.969 13.333 13.333 13.333zM16 27.667c-0.005 0-0.012 0-0.018 0-2.923 0-5.594-1.079-7.636-2.86l0.014 0.012 16.459-16.458c1.769 2.028 2.848 4.699 2.848 7.622 0 0.007 0 0.013-0 0.019v-0.001c0 6.443-5.223 11.667-11.667 11.667zM8.167 11.5c0-0.46 0.373-0.833 0.833-0.833h2v-1.833c0-0.46 0.373-0.833 0.833-0.833s0.833 0.373 0.833 0.833v0 1.833h1.833c0.46 0 0.833 0.373 0.833 0.833s-0.373 0.833-0.833 0.833v0h-1.833v1.833c0 0.46-0.373 0.833-0.833 0.833s-0.833-0.373-0.833-0.833v0-1.833h-2c-0.46 0-0.833-0.373-0.833-0.833z"></path>
</svg>
