<!-- Generated by IcoMoon.io -->
<svg version="1.1" xmlns="http://www.w3.org/2000/svg" width="32" height="32" viewBox="0 0 32 32">
<title>add-square-filled</title>
<path d="M4 8.333c0-2.393 1.94-4.333 4.333-4.333v0h15.333c2.393 0 4.333 1.94 4.333 4.333v0 15.333c0 2.393-1.94 4.333-4.333 4.333v0h-15.333c-2.393 0-4.333-1.94-4.333-4.333v0-15.333zM17 10.333c0-0.552-0.448-1-1-1s-1 0.448-1 1v0 4.667h-4.667c-0.552 0-1 0.448-1 1s0.448 1 1 1v0h4.667v4.667c0 0.552 0.448 1 1 1s1-0.448 1-1v0-4.667h4.667c0.552 0 1-0.448 1-1s-0.448-1-1-1v0h-4.667v-4.667z"></path>
</svg>
