<!-- Generated by IcoMoon.io -->
<svg version="1.1" xmlns="http://www.w3.org/2000/svg" width="32" height="32" viewBox="0 0 32 32">
<title>airplane-take-off-filled</title>
<path d="M16.525 7.9l-2.495-2.020c-0.437-0.354-0.983-0.547-1.546-0.547-1.877 0-3.060 2.019-2.143 3.656l0.509 0.908 4.618-0.962c0.074-0.015 0.226-0.081 0.392-0.28 0.187-0.225 0.41-0.483 0.665-0.755z"></path>
<path d="M4 26.667c0-0.736 0.597-1.333 1.333-1.333h21.333c0.736 0 1.333 0.597 1.333 1.333s-0.597 1.333-1.333 1.333h-21.333c-0.736 0-1.333-0.597-1.333-1.333z"></path>
<path d="M28.729 9.106c-1.26-1.444-3.489-3.332-6.473-3.102-1.239 0.095-2.36 0.732-3.239 1.409-0.893 0.689-1.637 1.499-2.132 2.095-0.323 0.39-0.727 0.647-1.146 0.734l-6.218 1.295-1.288-2.361c-0.395-0.724-1.154-1.175-1.98-1.175-1.245 0-2.255 1.010-2.255 2.255v4.92c0 1.921 1.75 3.366 3.636 3.003l4.401-0.847-0.677 1.645c-0.724 1.759 0.569 3.69 2.471 3.69 0.841 0 1.633-0.396 2.138-1.069l4.314-5.753 7.161-2.469c0.865-0.298 1.517-0.958 1.789-1.76 0.279-0.82 0.148-1.764-0.504-2.51z"></path>
</svg>
