<!-- Generated by IcoMoon.io -->
<svg version="1.1" xmlns="http://www.w3.org/2000/svg" width="32" height="32" viewBox="0 0 32 32">
<title>airplane-filled</title>
<path d="M29.319 15.928c-0 1.466-1.189 2.654-2.655 2.654-0.028 0-0.055-0-0.083-0.001l0.004 0-6.317-0.185-4.605 9.524c-0.369 0.765-1.147 1.253-1.997 1.253-0 0-0.001 0-0.001 0-0.682 0-1.235-0.553-1.235-1.235 0-0.052 0.003-0.104 0.009-0.154l-0.001 0.006 1.151-9.591-5.020-0.147-0.653 1.788c-0.248 0.664-0.877 1.129-1.615 1.129h-0c-0.663 0-1.201-0.538-1.201-1.201 0-0 0-0.001 0-0.001v0-1.968l-1.080-0.225c-0.77-0.165-1.338-0.839-1.338-1.646s0.569-1.482 1.327-1.644l0.011-0.002 1.080-0.224v-1.971c0-0 0-0.001 0-0.001 0-0.61 0.455-1.114 1.045-1.19l0.006-0.001 0.151-0.009c0.737 0.001 1.365 0.465 1.609 1.116l0.004 0.012 0.656 1.787 5.001-0.147-1.133-9.445c-0.002-0.020-0.004-0.045-0.005-0.071l-0-0.003-0.003-0.073c0-0.681 0.553-1.235 1.235-1.235 0.78 0 1.497 0.409 1.897 1.067l0.1 0.187 4.537 9.38 6.387-0.187c0.023-0.001 0.050-0.001 0.077-0.001 1.439 0 2.61 1.145 2.653 2.573l0 0.004v0.077z"></path>
</svg>
