<!-- Generated by IcoMoon.io -->
<svg version="1.1" xmlns="http://www.w3.org/2000/svg" width="32" height="32" viewBox="0 0 32 32">
<title>airplane-take-off-filled</title>
<path d="M16.525 7.9l-2.495-2.020c-0.418-0.34-0.957-0.547-1.545-0.547-0.001 0-0.001 0-0.002 0h0c-1.876 0-3.060 2.019-2.143 3.656l0.509 0.909 4.617-0.963c0.075-0.016 0.227-0.080 0.392-0.28 0.187-0.227 0.411-0.483 0.665-0.756zM4 26.667c0-0.736 0.597-1.333 1.333-1.333v0h21.333c0.736 0 1.333 0.597 1.333 1.333s-0.597 1.333-1.333 1.333v0h-21.333c-0.736 0-1.333-0.597-1.333-1.333v0zM28.729 9.107c-1.26-1.445-3.489-3.333-6.473-3.103-1.239 0.095-2.36 0.732-3.239 1.409-0.792 0.63-1.491 1.316-2.112 2.070l-0.019 0.024c-0.324 0.391-0.728 0.648-1.147 0.735l-6.217 1.296-1.288-2.361c-0.39-0.706-1.13-1.176-1.98-1.176-1.245 0-2.255 1.009-2.255 2.255 0 0.001 0 0.001 0 0.002v-0 4.92c0.001 1.689 1.37 3.058 3.059 3.058 0.204 0 0.404-0.020 0.597-0.058l-0.019 0.003 4.4-0.847-0.676 1.645c-0.127 0.301-0.202 0.651-0.202 1.018 0 1.476 1.196 2.672 2.672 2.672 0.871 0 1.645-0.417 2.133-1.062l0.005-0.007 4.315-5.753 7.16-2.469c0.84-0.285 1.491-0.927 1.784-1.74l0.006-0.020c0.088-0.246 0.139-0.53 0.139-0.826 0-0.648-0.244-1.24-0.645-1.687l0.002 0.002z"></path>
</svg>
