<!-- Generated by IcoMoon.io -->
<svg version="1.1" xmlns="http://www.w3.org/2000/svg" width="32" height="32" viewBox="0 0 32 32">
<title>airplane-filled</title>
<path d="M29.319 15.928c0 1.466-1.189 2.655-2.655 2.655-0.026 0-0.052-0-0.078-0.001l-6.318-0.186-4.605 9.523c-0.37 0.766-1.146 1.253-1.997 1.253-0.682 0-1.235-0.553-1.235-1.235 0-0.049 0.003-0.098 0.009-0.147l1.15-9.59-5.021-0.147-0.653 1.788c-0.248 0.678-0.893 1.129-1.614 1.129-0.664 0-1.202-0.538-1.202-1.202l0.001-1.969-1.081-0.225c-0.78-0.163-1.338-0.85-1.338-1.646s0.559-1.483 1.338-1.645l1.081-0.225-0.001-1.97c0-0.613 0.458-1.118 1.051-1.192l0.151-0.009c0.722 0 1.366 0.451 1.614 1.129l0.655 1.787 5.002-0.147-1.132-9.446c-0.003-0.024-0.005-0.049-0.007-0.073l-0.002-0.074c0-0.682 0.553-1.235 1.235-1.235 0.78 0 1.497 0.409 1.896 1.067l0.101 0.186 4.537 9.381 6.386-0.187c1.465-0.043 2.688 1.11 2.731 2.576l0.001 0.078z"></path>
</svg>
