<!-- Generated by IcoMoon.io -->
<svg version="1.1" xmlns="http://www.w3.org/2000/svg" width="32" height="32" viewBox="0 0 32 32">
<title>album-add-filled</title>
<path d="M2.667 8c0-1.473 1.194-2.667 2.667-2.667v0h1.333v9.565c-1.567 0.38-2.92 1.142-4.003 2.184l0.003-0.003v-9.080zM21.333 11.333h-5.333c-0.368 0-0.667 0.298-0.667 0.667v0 1.333c0 0.368 0.298 0.667 0.667 0.667v0h5.333c0.368 0 0.667-0.298 0.667-0.667v0-1.333c0-0.368-0.298-0.667-0.667-0.667v0zM16.669 26.667h9.997c1.473 0 2.667-1.194 2.667-2.667v0-16c0-1.473-1.194-2.667-2.667-2.667v0h-18v9.333c0.001 0 0.002 0 0.003 0 4.786 0 8.667 3.88 8.667 8.667 0 1.203-0.245 2.349-0.688 3.39l0.021-0.057zM13.333 12c0-1.473 1.194-2.667 2.667-2.667v0h5.333c1.473 0 2.667 1.194 2.667 2.667v0 1.333c0 1.473-1.194 2.667-2.667 2.667v0h-5.333c-1.473 0-2.667-1.194-2.667-2.667v0-1.333zM8.667 16c4.050 0 7.333 3.283 7.333 7.333s-3.283 7.333-7.333 7.333v0c-4.050 0-7.333-3.283-7.333-7.333s3.283-7.333 7.333-7.333v0zM9.335 27.337v-3.337h3.328c0.368 0 0.667-0.298 0.667-0.667s-0.298-0.667-0.667-0.667v0h-3.329v-3.333c0-0.368-0.298-0.667-0.667-0.667s-0.667 0.298-0.667 0.667v0 3.333h-3.339c-0.368 0-0.667 0.298-0.667 0.667s0.298 0.667 0.667 0.667v0h3.339v3.337c0 0.368 0.298 0.667 0.667 0.667s0.667-0.298 0.667-0.667v0z"></path>
</svg>
