<!-- Generated by IcoMoon.io -->
<svg version="1.1" xmlns="http://www.w3.org/2000/svg" width="32" height="32" viewBox="0 0 32 32">
<title>album-filled</title>
<path d="M2.667 8c0-1.473 1.194-2.667 2.667-2.667h1.333v21.333h-1.333c-1.473 0-2.667-1.194-2.667-2.667v-16z"></path>
<path d="M21.333 11.333h-5.333c-0.368 0-0.667 0.298-0.667 0.667v1.333c0 0.368 0.299 0.667 0.667 0.667h5.333c0.368 0 0.667-0.299 0.667-0.667v-1.333c0-0.368-0.299-0.667-0.667-0.667z"></path>
<path d="M8.667 26.667h18c1.473 0 2.667-1.194 2.667-2.667v-16c0-1.473-1.194-2.667-2.667-2.667h-18v21.333zM16 9.333h5.333c1.473 0 2.667 1.194 2.667 2.667v1.333c0 1.473-1.194 2.667-2.667 2.667h-5.333c-1.473 0-2.667-1.194-2.667-2.667v-1.333c0-1.473 1.194-2.667 2.667-2.667z"></path>
</svg>
