<!-- Generated by IcoMoon.io -->
<svg version="1.1" xmlns="http://www.w3.org/2000/svg" width="32" height="32" viewBox="0 0 32 32">
<title>alert-off-filled</title>
<path d="M3.749 2.537c-0.157-0.168-0.38-0.273-0.627-0.273-0.473 0-0.857 0.384-0.857 0.857 0 0.247 0.105 0.47 0.272 0.627l0.001 0 4.865 4.866c-0.703 1.308-1.117 2.861-1.117 4.512 0 0.006 0 0.011 0 0.017v-0.001l-0.001 4.698-1.618 4.165-0.048 0.143c-0.033 0.116-0.053 0.25-0.053 0.389 0 0.808 0.655 1.463 1.463 1.463h16.759l5.463 5.463c0.155 0.155 0.37 0.251 0.606 0.251 0.474 0 0.857-0.384 0.857-0.857 0-0.237-0.096-0.451-0.251-0.606l-25.714-25.713zM9.531 5.895l17.568 17.569c0.207-0.251 0.331-0.575 0.331-0.926l-0.011-0.181c-0.017-0.13-0.047-0.248-0.091-0.36l0.003 0.010-1.616-4.165v-4.699h-0.005v-0.291c-0.162-5.239-4.448-9.424-9.711-9.424-2.489 0-4.759 0.936-6.478 2.474l0.009-0.008zM19.961 25.145c-0.29 1.95-1.953 3.43-3.961 3.43s-3.671-1.479-3.958-3.408l-0.003-0.022h7.922z"></path>
</svg>
