<!-- Generated by IcoMoon.io -->
<svg version="1.1" xmlns="http://www.w3.org/2000/svg" width="32" height="32" viewBox="0 0 32 32">
<title>alert-filled</title>
<path d="M16 2.667c-5.523 0-10 4.477-10 10v5.657l-1.869 4.237c-0.081 0.178-0.128 0.386-0.128 0.605 0 0.828 0.671 1.5 1.5 1.5h20.995c0.828-0 1.5-0.672 1.5-1.5 0-0.219-0.047-0.427-0.131-0.615l0.004 0.009-1.869-4.237v-5.658c0-5.523-4.477-10-10-10zM16 29.333c-1.974-0-3.614-1.429-3.941-3.309l-0.003-0.024h7.889c-0.331 1.904-1.971 3.333-3.945 3.333h-0z"></path>
</svg>
