<!-- Generated by IcoMoon.io -->
<svg version="1.1" xmlns="http://www.w3.org/2000/svg" width="32" height="32" viewBox="0 0 32 32">
<title>alert-off-filled</title>
<path d="M4.374 2.96c-0.391-0.391-1.024-0.391-1.414-0s-0.391 1.024-0 1.414l4.006 4.006c-0.571 1.2-0.91 2.533-0.959 3.942l-0.006 0.333-0 5.349-1.887 4.214c-0.286 0.639 0 1.388 0.639 1.674 0.163 0.073 0.339 0.111 0.518 0.111h17.318l5.038 5.039c0.391 0.391 1.024 0.391 1.414 0s0.391-1.024 0-1.414l-24.666-24.667z"></path>
<path d="M28.002 22.735c0 0.288-0.096 0.554-0.258 0.767l-18.343-18.344c1.763-1.549 4.074-2.486 6.599-2.486 5.523 0 10 4.477 10 10v5.331l1.891 4.213c0.073 0.163 0.111 0.34 0.111 0.519z"></path>
<path d="M19.944 25.337c-0.318 1.891-1.963 3.331-3.944 3.331s-3.626-1.441-3.944-3.331h7.889z"></path>
</svg>
