<!-- Generated by IcoMoon.io -->
<svg version="1.1" xmlns="http://www.w3.org/2000/svg" width="32" height="32" viewBox="0 0 32 32">
<title>alert-on-filled</title>
<path d="M12.056 25.337h7.888c-0.331 1.904-1.97 3.333-3.944 3.333s-3.613-1.429-3.941-3.309l-0.003-0.024zM16 2.671c5.523 0 10 4.477 10 10v0 5.333l1.891 4.213c0.069 0.152 0.11 0.329 0.11 0.516 0 0.699-0.566 1.265-1.264 1.267h-21.467c-0.699-0-1.266-0.567-1.266-1.267 0-0.187 0.041-0.365 0.114-0.525l-0.003 0.008 1.887-4.213v-5.349l0.007-0.333c0.195-5.369 4.594-9.648 9.993-9.648h0zM30.667 11c0.552 0 1 0.448 1 1 0 0.504-0.373 0.921-0.858 0.99l-0.005 0.001-0.136 0.009h-2.667c-0.552-0-1-0.448-1-1 0-0.504 0.373-0.921 0.858-0.99l0.005-0.001 0.136-0.009h2.667zM4 11c0.552 0 1 0.448 1 1 0 0.504-0.373 0.921-0.858 0.99l-0.005 0.001-0.136 0.009h-2.667c-0.552-0-1-0.448-1-1 0-0.504 0.373-0.921 0.858-0.99l0.005-0.001 0.136-0.009h2.667zM30.133 3.4c0.125 0.165 0.2 0.374 0.2 0.6 0 0.274-0.11 0.522-0.288 0.702l0-0-0.112 0.097-2.667 2c-0.165 0.126-0.375 0.201-0.602 0.201-0.552 0-1-0.448-1-1 0-0.275 0.111-0.523 0.29-0.704l-0 0 0.112-0.097 2.667-2c0.165-0.125 0.374-0.2 0.6-0.2 0.326 0 0.616 0.156 0.798 0.397l0.002 0.002zM3.267 3.2l2.667 2c0.244 0.184 0.4 0.474 0.4 0.8 0 0.552-0.448 1-1 1-0.226 0-0.435-0.075-0.603-0.202l0.003 0.002-2.667-2c-0.244-0.184-0.4-0.474-0.4-0.8 0-0.552 0.448-1 1-1 0.226 0 0.435 0.075 0.603 0.202l-0.002-0.002z"></path>
</svg>
