<!-- Generated by IcoMoon.io -->
<svg version="1.1" xmlns="http://www.w3.org/2000/svg" width="32" height="32" viewBox="0 0 32 32">
<title>alert-filled</title>
<path d="M12.056 25.337h7.889c-0.318 1.891-1.963 3.331-3.944 3.331s-3.626-1.441-3.944-3.331zM16 2.672c5.523 0 10 4.477 10 10v5.331l1.891 4.213c0.073 0.163 0.111 0.34 0.111 0.519 0 0.7-0.567 1.267-1.267 1.267h-21.466c-0.178 0-0.355-0.038-0.518-0.111-0.638-0.286-0.924-1.035-0.639-1.674l1.887-4.214 0-5.349 0.006-0.333c0.185-5.374 4.602-9.65 9.994-9.65z"></path>
</svg>
