<!-- Generated by IcoMoon.io -->
<svg version="1.1" xmlns="http://www.w3.org/2000/svg" width="32" height="32" viewBox="0 0 32 32">
<title>alert-urgent-filled</title>
<path d="M13.905 26.565l4.749-2.016c0.018 0.118 0.029 0.253 0.029 0.391 0 1.472-1.193 2.665-2.665 2.665-0.858 0-1.621-0.405-2.108-1.035l-0.005-0.006zM21.148 2.792c2.781 1.52 4.869 3.471 6.243 5.849s2.020 5.163 1.945 8.331c-0.013 0.542-0.456 0.977-1 0.977-0.552 0-1-0.448-1-1 0-0.008 0-0.016 0-0.025l-0 0.001c0.067-2.816-0.496-5.237-1.677-7.284s-2.999-3.744-5.469-5.093c-0.313-0.173-0.521-0.501-0.521-0.878 0-0.553 0.448-1.001 1.001-1.001 0.176 0 0.341 0.045 0.485 0.125l-0.005-0.003zM8.948 8.687c0.931-0.426 2.020-0.675 3.166-0.675 3.040 0 5.672 1.747 6.947 4.291l0.020 0.045 0.131 0.28 1.717 3.855 2.264 1.96c0.124 0.107 0.231 0.232 0.355 0.433l0.079 0.152c0.090 0.199 0.143 0.431 0.143 0.676 0 0.676-0.403 1.259-0.982 1.52l-0.011 0.004-13.771 6.092c-0.198 0.090-0.43 0.142-0.673 0.142-0.92 0-1.666-0.746-1.667-1.666v-0l-0.001-3.124-1.656-3.723c-0.427-0.931-0.676-2.020-0.676-3.168 0-3.147 1.873-5.857 4.564-7.075l0.049-0.020zM20.832 7.593c1.289 0.703 2.323 1.725 3.088 3.052s1.135 2.733 1.099 4.2c-0.013 0.542-0.456 0.976-1 0.976-0.552 0-1-0.448-1-1 0-0.008 0-0.017 0-0.025l-0 0.001c0.027-1.096-0.247-2.14-0.831-3.152-0.584-1.013-1.352-1.773-2.313-2.296-0.313-0.173-0.521-0.501-0.521-0.878 0-0.552 0.448-1 1-1 0.175 0 0.34 0.045 0.484 0.125l-0.005-0.003z"></path>
</svg>
