<!-- Generated by IcoMoon.io -->
<svg version="1.1" xmlns="http://www.w3.org/2000/svg" width="32" height="32" viewBox="0 0 32 32">
<title>alert-snooze-filled</title>
<path d="M20.333 9.333h-3.333l-0.135 0.009c-0.491 0.069-0.864 0.486-0.864 0.991 0 0.552 0.447 0.999 0.998 1h1.391l-2.204 3.085-0.073 0.12c-0.071 0.134-0.113 0.293-0.113 0.461 0 0.552 0.447 1 0.999 1h3.333l0.136-0.009c0.491-0.069 0.864-0.486 0.864-0.991 0-0.552-0.448-1-1-1h-1.389l2.204-3.085 0.073-0.12c0.071-0.134 0.113-0.293 0.113-0.461 0-0.552-0.448-1-1-1-0 0-0.001 0-0.001 0h0zM28.333 2.667h-4.667l-0.135 0.009c-0.491 0.069-0.864 0.486-0.864 0.991 0 0.552 0.447 0.999 0.998 1h2.845l-3.688 5.796-0.067 0.12c-0.058 0.122-0.091 0.266-0.091 0.417 0 0.552 0.448 1 1 1 0 0 0 0 0.001 0h4.667l0.136-0.009c0.491-0.069 0.864-0.486 0.864-0.991 0-0.552-0.448-1-1-1h-2.844l3.688-5.796 0.067-0.12c0.058-0.122 0.091-0.266 0.091-0.417 0-0.552-0.448-1-1-1-0.001 0-0.001 0-0.002 0h0zM16.933 7.333h3.4c0.677 0 1.275 0.211 1.755 0.56l0.839-1.319c-1.257-0.328-2.182-1.42-2.256-2.739l-0-0.008c-1.353-0.729-2.962-1.157-4.67-1.157-5.4 0-9.8 4.28-9.993 9.632l-0 0.018-0.007 0.333v5.349l-1.887 4.213c-0.070 0.152-0.11 0.33-0.11 0.517 0 0.7 0.567 1.267 1.266 1.267h21.467c0.699-0.001 1.265-0.568 1.265-1.267 0-0.187-0.041-0.365-0.114-0.525l0.003 0.008-1.891-4.213v-4.003h-2.333c-0.001 0-0.002 0-0.004 0-0.182 0-0.361-0.016-0.535-0.045l0.019 0.003c0.119 0.31 0.187 0.669 0.187 1.043 0 1.515-1.122 2.767-2.581 2.971l-0.016 0.002-0.067 0.008-0.271 0.019h-3.4c-2.307 0-3.687-2.447-2.656-4.396l0.032-0.060 0.144-0.233 0.509-0.715c-0.633-0.553-1.031-1.362-1.031-2.263 0-1.514 1.122-2.767 2.58-2.971l0.016-0.002 0.067-0.008 0.271-0.019zM19.944 25.337c-0.331 1.904-1.97 3.333-3.944 3.333s-3.613-1.429-3.941-3.309l-0.003-0.024h7.888z"></path>
</svg>
