<!-- Generated by IcoMoon.io -->
<svg version="1.1" xmlns="http://www.w3.org/2000/svg" width="32" height="32" viewBox="0 0 32 32">
<title>align-top-filled</title>
<path d="M3.5 4.333c-0.46 0-0.833 0.373-0.833 0.833s0.373 0.833 0.833 0.833v0h25c0.46 0 0.833-0.373 0.833-0.833s-0.373-0.833-0.833-0.833v0h-25zM17.333 10.5c0-1.565 1.269-2.833 2.833-2.833v0h3.667c1.565 0 2.833 1.269 2.833 2.833v0 10c0 1.565-1.269 2.833-2.833 2.833v0h-3.667c-1.565 0-2.833-1.269-2.833-2.833v0-10zM8.167 7.667h3.667c1.565 0 2.833 1.269 2.833 2.833v0 14.833c0 1.565-1.269 2.833-2.833 2.833v0h-3.667c-1.565 0-2.833-1.269-2.833-2.833v0-14.833c0-1.565 1.269-2.833 2.833-2.833v0z"></path>
</svg>
