<!-- Generated by IcoMoon.io -->
<svg version="1.1" xmlns="http://www.w3.org/2000/svg" width="32" height="32" viewBox="0 0 32 32">
<title>align-stretch-vertical-filled</title>
<path d="M4 4.8c-0.442 0-0.8 0.358-0.8 0.8s0.358 0.8 0.8 0.8v0h24c0.442 0 0.8-0.358 0.8-0.8s-0.358-0.8-0.8-0.8v0h-24zM4 25.6c-0.442 0-0.8 0.358-0.8 0.8s0.358 0.8 0.8 0.8v0h24c0.442 0 0.8-0.358 0.8-0.8s-0.358-0.8-0.8-0.8v0h-24zM6.4 20.8c0 1.767 1.433 3.2 3.2 3.2v0h1.6c1.767 0 3.2-1.433 3.2-3.2v0-9.6c0-1.767-1.433-3.2-3.2-3.2v0h-1.6c-1.767 0-3.2 1.433-3.2 3.2v0 9.6zM20.8 24c-1.767 0-3.2-1.433-3.2-3.2v0-9.6c0-1.767 1.433-3.2 3.2-3.2v0h1.6c1.767 0 3.2 1.433 3.2 3.2v0 9.6c0 1.767-1.433 3.2-3.2 3.2v0h-1.6z"></path>
</svg>
