<!-- Generated by IcoMoon.io -->
<svg version="1.1" xmlns="http://www.w3.org/2000/svg" width="32" height="32" viewBox="0 0 32 32">
<title>align-stretch-horizontal-filled</title>
<path d="M4.8 28c0 0.442 0.358 0.8 0.8 0.8s0.8-0.358 0.8-0.8v0-24c0-0.442-0.358-0.8-0.8-0.8s-0.8 0.358-0.8 0.8v0 24zM25.6 28c0 0.442 0.358 0.8 0.8 0.8s0.8-0.358 0.8-0.8v0-24c0-0.442-0.358-0.8-0.8-0.8s-0.8 0.358-0.8 0.8v0 24zM20.8 25.6c1.767 0 3.2-1.433 3.2-3.2v0-1.6c0-1.767-1.433-3.2-3.2-3.2v0h-9.6c-1.767 0-3.2 1.433-3.2 3.2v0 1.6c0 1.767 1.433 3.2 3.2 3.2v0h9.6zM24 11.2c0 1.767-1.433 3.2-3.2 3.2v0h-9.6c-1.767 0-3.2-1.433-3.2-3.2v0-1.6c0-1.767 1.433-3.2 3.2-3.2v0h9.6c1.767 0 3.2 1.433 3.2 3.2v0 1.6z"></path>
</svg>
