<!-- Generated by IcoMoon.io -->
<svg version="1.1" xmlns="http://www.w3.org/2000/svg" width="32" height="32" viewBox="0 0 32 32">
<title>align-top-filled</title>
<path d="M3.667 4c-0.552 0-1 0.448-1 1s0.448 1 1 1h24.667c0.552 0 1-0.448 1-1s-0.448-1-1-1h-24.667zM5.333 11c0-1.657 1.343-3 3-3h3.333c1.657 0 3 1.343 3 3v14c0 1.657-1.343 3-3 3h-3.333c-1.657 0-3-1.343-3-3v-14zM17.333 11c0-1.657 1.343-3 3-3h3.333c1.657 0 3 1.343 3 3v9.333c0 1.657-1.343 3-3 3h-3.333c-1.657 0-3-1.343-3-3v-9.333z"></path>
</svg>
