<!-- Generated by IcoMoon.io -->
<svg version="1.1" xmlns="http://www.w3.org/2000/svg" width="32" height="32" viewBox="0 0 32 32">
<title>animal-dog-filled</title>
<path d="M14.501 11.548c0.516 0.288 1.131 0.452 1.827 0.452 1.129 0 2.073-0.409 2.729-1.125 0.641-0.701 0.937-1.621 0.937-2.541 0-0.552-0.448-1-1-1s-1 0.448-1 1v0c0 0.503-0.16 0.915-0.413 1.192-0.24 0.261-0.629 0.475-1.253 0.475-0.599 0-0.973-0.216-1.219-0.493-0.253-0.304-0.415-0.691-0.442-1.114l-0-0.006v-2.72c0-1.657 1.343-3 3-3v0h4.247c0.679 0 1.343 0.188 1.92 0.544l3.691 2.271c0.288 0.179 0.476 0.493 0.476 0.852 0 0 0 0 0 0v0 2c0 1.657-1.343 3-3 3v0h-0.333v12.711c1.227 0.117 2.157 0.488 2.729 1.285 0.343 0.479 0.48 1.013 0.544 1.505 0.060 0.469 0.060 0.981 0.060 1.453v0.045c0 0.552-0.448 1-1 1v0h-4.336v-1.032c0-0.763 0.003-2.944-2-4.225v-3.739c0-0.552-0.448-1-1-1s-1 0.448-1 1v0 3.021c-0.198-0.022-0.427-0.035-0.659-0.035-0.095 0-0.19 0.002-0.284 0.006l0.013-0c-0.035 0-0.065 0.003-0.085 0.004h-0.033l-0.004 0.001c-0.528 0.030-0.945 0.466-0.945 0.999 0 0.552 0.448 1 1 1 0.019 0 0.038-0.001 0.057-0.002l-0.003 0h0.004l0.017-0.001 0.067-0.003c0.055-0.003 0.124-0.004 0.188-0.004 0.576 0 0.953 0.097 1.201 0.227l0.044 0.023c1.385 0.645 1.421 1.919 1.421 2.76v1h-12.887c-0.001 0-0.003 0-0.004 0-2.823 0-5.111-2.288-5.111-5.111 0-1.854 0.988-3.478 2.466-4.374l0.023-0.013c0.147-0.090 0.325-0.143 0.515-0.143 0.553 0 1.001 0.448 1.001 1.001 0 0.363-0.193 0.68-0.481 0.855l-0.004 0.003c-0.914 0.553-1.516 1.541-1.516 2.671 0 1.718 1.393 3.111 3.111 3.111 0.001 0 0.002 0 0.003 0h-0c0.425 0 0.689-0.111 0.865-0.235 0.185-0.131 0.331-0.317 0.441-0.543 0.133-0.268 0.222-0.581 0.249-0.911l0.001-0.009v-0.047l0.005-0.191c0.044-1.061 0.168-2.063 0.367-3.038l-0.021 0.122c0.347-1.721 1.063-3.957 2.603-5.519 1.131-1.147 1.745-2.825 2.063-4.485 0.061-0.317 0.111-0.629 0.151-0.931z"></path>
</svg>
