<!-- Generated by IcoMoon.io -->
<svg version="1.1" xmlns="http://www.w3.org/2000/svg" width="32" height="32" viewBox="0 0 32 32">
<title>animal-dog-filled</title>
<path d="M14.501 11.548c0.517 0.288 1.131 0.452 1.827 0.452 1.13 0 2.074-0.409 2.729-1.125 0.642-0.702 0.938-1.622 0.938-2.542 0-0.552-0.448-1-1-1s-1 0.448-1 1c0 0.503-0.161 0.915-0.413 1.191-0.24 0.262-0.629 0.475-1.253 0.475-0.598 0-0.974-0.216-1.219-0.494-0.246-0.28-0.405-0.678-0.443-1.119v-2.719c0-1.656 1.341-3 2.999-3l4.247-0c0.679 0 1.343 0.188 1.921 0.544l3.691 2.271c0.296 0.182 0.476 0.504 0.476 0.852v2c0 1.657-1.343 3-3 3h-0.333v12.711c1.226 0.118 2.158 0.489 2.729 1.286 0.342 0.478 0.481 1.013 0.544 1.504 0.060 0.469 0.060 0.982 0.060 1.454v0.045c0 0.552-0.448 1-1 1h-4.336v-1.033c0-0.762 0.002-2.944-2-4.225v-3.739c0-0.552-0.448-1-1-1s-1 0.448-1 1v3.022c-0.217-0.024-0.439-0.035-0.667-0.035-0.098 0-0.194 0.003-0.263 0.005-0.035 0.001-0.065 0.003-0.086 0.003l-0.033 0.002-0.004 0c-0.551 0.030-0.974 0.501-0.944 1.053s0.502 0.974 1.053 0.944l0.004-0 0.017-0.001 0.066-0.003c0.056-0.002 0.125-0.004 0.189-0.004 0.576 0 0.953 0.097 1.201 0.227 0.014 0.008 0.029 0.015 0.044 0.022 1.386 0.645 1.422 1.919 1.422 2.76v1h-12.887c-2.823 0-5.111-2.288-5.111-5.111 0-1.864 0.999-3.494 2.485-4.386 0.474-0.284 1.088-0.13 1.372 0.343s0.13 1.088-0.343 1.372c-0.909 0.545-1.514 1.538-1.514 2.671 0 1.718 1.393 3.111 3.111 3.111 0.425 0 0.689-0.111 0.864-0.234 0.186-0.131 0.331-0.318 0.442-0.543 0.113-0.227 0.178-0.466 0.213-0.657 0.017-0.093 0.027-0.168 0.032-0.217 0.002-0.021 0.003-0.037 0.004-0.046l0.001-0.046c0.001-0.045 0.002-0.109 0.005-0.191 0.006-0.163 0.017-0.394 0.039-0.679 0.044-0.569 0.132-1.357 0.308-2.236 0.345-1.723 1.061-3.958 2.602-5.519 1.131-1.146 1.745-2.825 2.063-4.485 0.061-0.317 0.11-0.629 0.149-0.931z"></path>
</svg>
