<!-- Generated by IcoMoon.io -->
<svg version="1.1" xmlns="http://www.w3.org/2000/svg" width="32" height="32" viewBox="0 0 32 32">
<title>animal-cat-filled</title>
<path d="M20.345 29.714h-12.968c-0.001 0-0.001 0-0.002 0-2.813 0-5.093-2.28-5.093-5.093 0-1.346 0.522-2.57 1.375-3.481l-0.003 0.003 1.577-1.691c0.739-0.79 1.193-1.856 1.193-3.027 0-1.224-0.496-2.333-1.298-3.136l-1.55-1.549c-0.143-0.153-0.23-0.358-0.23-0.584 0-0.473 0.384-0.857 0.857-0.857 0.226 0 0.432 0.088 0.585 0.23l-0-0 1.549 1.547c1.113 1.113 1.802 2.65 1.802 4.349 0 1.624-0.63 3.101-1.658 4.2l0.003-0.003-1.577 1.691c-0.562 0.602-0.908 1.413-0.908 2.305 0 1.866 1.511 3.378 3.376 3.381h1.129c-0.007-0.423-0.007-0.974 0.015-1.615 0.050-1.498 0.217-3.513 0.689-5.542 0.471-2.017 1.261-4.118 2.602-5.729 1.215-1.458 2.869-2.496 5.059-2.71v-5.926c0-0 0-0.001 0-0.001 0-2.315 1.877-4.192 4.192-4.192v0c0.934 0.001 1.69 0.758 1.69 1.691v0 1.088h2.459c1.257 0 2.426 0.651 3.089 1.721l0.861 1.39c1.474 2.379-0.178 5.441-2.937 5.551v13.046c0 1.623-1.315 2.94-2.938 2.942h-1.228v-2.942c0-0.001 0-0.001 0-0.002 0-2.775-2.249-5.024-5.024-5.025h-1.737c-0.473 0-0.857 0.384-0.857 0.857s0.384 0.857 0.857 0.857v0h1.737c1.829 0 3.311 1.483 3.311 3.313v2.942z"></path>
</svg>
