<!-- Generated by IcoMoon.io -->
<svg version="1.1" xmlns="http://www.w3.org/2000/svg" width="32" height="32" viewBox="0 0 32 32">
<title>animal-rabbit-filled</title>
<path d="M20.708 7.249l7.234 7.249c1.855 1.859 1.855 4.873 0 6.733-1.209 1.211-2.907 1.633-4.457 1.266v0.165c0 1.475-1.193 2.671-2.665 2.671l-2.814-0 0.001-0.997-0.007-0.224c-0.111-1.847-1.584-3.326-3.426-3.442l-0.232-0.007h-1.333l-0.136 0.009c-0.488 0.066-0.864 0.485-0.864 0.993s0.376 0.926 0.864 0.993l0.136 0.009h1.333l0.17 0.009c0.784 0.080 1.407 0.704 1.487 1.49l0.009 0.171-0.001 0.997-6.665 0c-1.472 0-2.666-1.196-2.666-2.671v-3.339c0-0.254 0.016-0.504 0.046-0.749-0.232 0.054-0.474 0.082-0.723 0.082-1.84 0-3.332-1.495-3.332-3.339s1.492-3.339 3.332-3.339c1.53 0 2.819 1.033 3.21 2.441 0.977-0.696 2.173-1.105 3.465-1.105h4.815c0.804 0 1.572 0.159 2.273 0.447 0.218-0.368 0.484-0.717 0.796-1.039l-2.656-2.66c-0.775-0.777-0.775-2.036 0-2.812s2.032-0.777 2.807 0z"></path>
</svg>
