<!-- Generated by IcoMoon.io -->
<svg version="1.1" xmlns="http://www.w3.org/2000/svg" width="32" height="32" viewBox="0 0 32 32">
<title>animal-rabbit-off-filled</title>
<path d="M23.576 24.99l4.717 4.717c0.18 0.174 0.425 0.281 0.695 0.281 0.552 0 1-0.448 1-1 0-0.27-0.107-0.515-0.281-0.695l-26-26c-0.18-0.174-0.425-0.281-0.695-0.281-0.552 0-1 0.448-1 1 0 0.27 0.107 0.515 0.281 0.695l6.71 6.711c-0.588-0.263-1.274-0.415-1.995-0.415-2.761 0-5 2.239-5 5 0 2.405 1.698 4.413 3.96 4.892l0.033 0.006v2.1c0 2.761 2.239 5 5 5v0h5v-2.5c0-1.381-1.119-2.5-2.5-2.5v0h-1.5c-0.552 0-1-0.448-1-1s0.448-1 1-1v0h1.5c2.485 0 4.5 2.015 4.5 4.5v0 2.5h2.106c1.484 0 2.78-0.808 3.47-2.010zM30 17c0 0 0 0 0 0.001 0 2.543-1.582 4.717-3.815 5.591l-0.041 0.014-10.606-10.606h2.062c0.135-0.265 0.292-0.518 0.467-0.756l-1.904-2.35c-0.417-0.511-0.67-1.171-0.67-1.89 0-1.658 1.344-3.002 3.002-3.002 0.85 0 1.618 0.353 2.164 0.921l0.001 0.001 7.173 7.46c1.328 1.107 2.167 2.761 2.167 4.611 0 0.002 0 0.003 0 0.005v-0z"></path>
</svg>
