<!-- Generated by IcoMoon.io -->
<svg version="1.1" xmlns="http://www.w3.org/2000/svg" width="32" height="32" viewBox="0 0 32 32">
<title>animal-turtle-filled</title>
<path d="M14.662 7.997c3.497 0 6.595 2.219 7.733 5.501l0.101 0.311 0.058 0.192 3.108 0.001c1.949 0 3.543 1.521 3.658 3.441l0.007 0.223v1.332c0 1.224-0.942 2.227-2.141 2.325l-0.191 0.008-2.168-0.001 0.322 0.779c0.465 1.128-0.020 2.411-1.085 2.961l-0.183 0.085c-0.211 0.087-0.434 0.143-0.661 0.165l-0.228 0.011h-2.382c-0.834 0-1.599-0.445-2.014-1.156l-0.096-0.183-0.718-1.523 0.072-0.009c-1.867 0.248-3.756 0.277-5.628 0.088l-0.662-0.076-0.713 1.516c-0.385 0.817-1.207 1.339-2.111 1.339h-2.406c-0.305 0-0.606-0.060-0.888-0.176-1.191-0.49-1.759-1.853-1.269-3.044l0.578-1.401c-1.255-0.757-2.093-2.133-2.093-3.705 0-0.506 0.376-0.924 0.864-0.99l0.136-0.009 2.507-0.001 0.663-2.189c1.045-3.452 4.226-5.812 7.832-5.812zM23.698 20.922c-1.028 0.413-2.078 0.753-3.141 1.020l-0.732 0.171 0.483 1.027c0.033 0.070 0.088 0.125 0.155 0.158l0.070 0.025 0.076 0.009h2.382c0.044 0 0.087-0.009 0.127-0.025 0.142-0.059 0.222-0.203 0.204-0.349l-0.023-0.086-0.637-1.541-0.058 0.001 0.548-0.198 0.545-0.211zM5.629 20.922l0.521 0.203 0.516 0.188-0.641 1.554c-0.070 0.17 0.011 0.365 0.181 0.435 0.040 0.017 0.083 0.025 0.127 0.025h2.406l0.076-0.009c0.098-0.023 0.182-0.089 0.226-0.183l0.48-1.018 0.059 0.013c-1.34-0.288-2.661-0.69-3.949-1.208zM5.359 18.662l0.202-0.666-0.676 0.002 0.033 0.070c0.115 0.221 0.264 0.422 0.44 0.594zM23.159 16l1.009 3.33 2.826 0.002c0.158 0 0.29-0.11 0.324-0.257l0.009-0.076v-1.332c0-0.862-0.655-1.572-1.495-1.657l-0.17-0.009-2.503-0.001z"></path>
</svg>
