<!-- Generated by IcoMoon.io -->
<svg version="1.1" xmlns="http://www.w3.org/2000/svg" width="32" height="32" viewBox="0 0 32 32">
<title>app-recent-filled</title>
<path d="M24 26.333c0 1.588-1.234 2.887-2.795 2.993l-0.205 0.007h-10c-1.588 0-2.888-1.234-2.993-2.795l-0.007-0.205v-20.667c0-1.588 1.234-2.888 2.795-2.993l0.205-0.007h10c1.588 0 2.887 1.234 2.993 2.795l0.007 0.205v20.667zM25.333 6.667h1c1.588 0 2.887 1.234 2.993 2.795l0.007 0.205v12.667c0 1.588-1.234 2.887-2.795 2.993l-0.205 0.007h-1v-18.667zM6.667 25.333h-1c-1.588 0-2.888-1.234-2.993-2.795l-0.007-0.205v-12.667c0-1.588 1.234-2.888 2.795-2.993l0.205-0.007h1v18.667z"></path>
</svg>
