<!-- Generated by IcoMoon.io -->
<svg version="1.1" xmlns="http://www.w3.org/2000/svg" width="32" height="32" viewBox="0 0 32 32">
<title>app-recent-filled</title>
<path d="M24 26.333c0 0 0 0 0 0 0 1.585-1.229 2.882-2.785 2.992l-0.010 0.001-0.205 0.007h-10c-0 0-0 0-0 0-1.585 0-2.882-1.229-2.992-2.785l-0.001-0.010-0.007-0.205v-20.667c0-0 0-0 0-0 0-1.585 1.229-2.882 2.785-2.992l0.010-0.001 0.205-0.007h10c0 0 0 0 0 0 1.585 0 2.882 1.229 2.992 2.785l0.001 0.010 0.007 0.205v20.667zM25.333 6.667h1c0 0 0 0 0 0 1.585 0 2.882 1.229 2.992 2.785l0.001 0.010 0.007 0.205v12.667c0 0 0 0 0 0 0 1.585-1.229 2.882-2.785 2.992l-0.010 0.001-0.205 0.007h-1v-18.667zM6.667 25.333h-1c-0 0-0 0-0 0-1.585 0-2.882-1.229-2.992-2.785l-0.001-0.010-0.007-0.205v-12.667c0-0 0-0 0-0 0-1.585 1.229-2.882 2.785-2.992l0.010-0.001 0.205-0.007h1v18.667z"></path>
</svg>
