<!-- Generated by IcoMoon.io -->
<svg version="1.1" xmlns="http://www.w3.org/2000/svg" width="32" height="32" viewBox="0 0 32 32">
<title>app-generic-filled</title>
<path d="M8.333 4c-2.393 0-4.333 1.94-4.333 4.333v15.333c0 2.393 1.94 4.333 4.333 4.333h15.333c2.393 0 4.333-1.94 4.333-4.333v-15.333c0-2.393-1.94-4.333-4.333-4.333h-15.333zM6 10.667h20v13c0 1.289-1.045 2.333-2.333 2.333h-15.333c-1.289 0-2.333-1.045-2.333-2.333v-13zM8 13.8c0-0.626 0.507-1.133 1.133-1.133h4.4c0.626 0 1.133 0.507 1.133 1.133v9.067c0 0.626-0.507 1.133-1.133 1.133h-4.4c-0.626 0-1.133-0.507-1.133-1.133v-9.067zM10 14.667v7.333h2.667v-7.333h-2.667zM17 12.667h6c0.552 0 1 0.448 1 1s-0.448 1-1 1h-6c-0.552 0-1-0.448-1-1s0.448-1 1-1zM16 17.667c0-0.552 0.448-1 1-1h4.667c0.552 0 1 0.448 1 1s-0.448 1-1 1h-4.667c-0.552 0-1-0.448-1-1z"></path>
</svg>
