<!-- Generated by IcoMoon.io -->
<svg version="1.1" xmlns="http://www.w3.org/2000/svg" width="32" height="32" viewBox="0 0 32 32">
<title>app-store-filled</title>
<path d="M23.667 4c2.393 0 4.333 1.94 4.333 4.333v0 15.333c0 2.393-1.94 4.333-4.333 4.333v0h-15.333c-2.393 0-4.333-1.94-4.333-4.333v0-15.333c0-2.393 1.94-4.333 4.333-4.333v0h15.333zM12.492 20.339h-2.319l-0.089 0.155-0.060 0.121c-0.048 0.113-0.076 0.245-0.076 0.383 0 0.552 0.448 1 1 1 0.318 0 0.602-0.149 0.785-0.381l0.002-0.002 0.076-0.113 0.68-1.163zM17.724 13.365l-1.161 1.989 3.544 6.144 0.075 0.113c0.185 0.239 0.471 0.391 0.793 0.391 0.552 0 1-0.448 1-1 0-0.138-0.028-0.269-0.078-0.388l0.002 0.007-0.060-0.123-0.669-1.16h1.167l0.136-0.008c0.444-0.063 0.792-0.41 0.854-0.849l0.001-0.005 0.009-0.136-0.009-0.136c-0.063-0.444-0.41-0.792-0.849-0.854l-0.005-0.001-0.136-0.009h-2.32l-2.293-3.973zM17.684 9.468c-0.145-0.086-0.319-0.137-0.505-0.137-0.319 0-0.603 0.149-0.786 0.381l-0.002 0.002-0.076 0.113-0.32 0.545-0.312-0.541-0.075-0.112c-0.185-0.237-0.47-0.389-0.791-0.389-0.131 0-0.256 0.025-0.371 0.071l0.007-0.002-0.135 0.067-0.113 0.075c-0.237 0.185-0.388 0.47-0.388 0.791 0 0.132 0.025 0.257 0.072 0.372l-0.002-0.007 0.067 0.133 0.883 1.531-2.908 4.979h-2.259l-0.136 0.009c-0.491 0.069-0.864 0.486-0.864 0.991s0.373 0.921 0.858 0.99l0.005 0.001 0.136 0.009h8.036l-1.153-2-2.308-0.001 3.8-6.503 0.060-0.121c0.048-0.113 0.076-0.245 0.076-0.383 0-0.367-0.197-0.687-0.492-0.861l-0.005-0.003z"></path>
</svg>
