<!-- Generated by IcoMoon.io -->
<svg version="1.1" xmlns="http://www.w3.org/2000/svg" width="32" height="32" viewBox="0 0 32 32">
<title>app-store-filled</title>
<path d="M23.667 4c2.393 0 4.333 1.94 4.333 4.333v15.333c0 2.393-1.94 4.333-4.333 4.333h-15.333c-2.393 0-4.333-1.94-4.333-4.333v-15.333c0-2.393 1.94-4.333 4.333-4.333h15.333zM12.492 20.339h-2.317l-0.089 0.154-0.061 0.122c-0.189 0.455-0.018 0.991 0.42 1.246s0.988 0.142 1.292-0.246l0.076-0.113 0.679-1.163zM17.723 13.365l-1.161 1.989 3.544 6.144 0.076 0.113c0.301 0.39 0.852 0.507 1.29 0.253s0.613-0.788 0.426-1.244l-0.060-0.122-0.67-1.16 1.167 0.001 0.136-0.009c0.444-0.060 0.795-0.411 0.855-0.855l0.009-0.136-0.009-0.136c-0.060-0.444-0.411-0.795-0.855-0.855l-0.136-0.009-2.32-0.001-2.292-3.973zM17.684 9.469c-0.437-0.255-0.988-0.142-1.291 0.246l-0.076 0.113-0.321 0.546-0.311-0.541-0.076-0.113c-0.271-0.351-0.744-0.48-1.156-0.318l-0.135 0.065-0.113 0.076c-0.351 0.271-0.48 0.744-0.318 1.156l0.065 0.135 0.883 1.529-2.908 4.979h-2.259l-0.136 0.009c-0.488 0.066-0.864 0.485-0.864 0.991s0.376 0.925 0.864 0.991l0.136 0.009 8.037-0-1.153-2-2.309-0.001 3.8-6.502 0.061-0.122c0.189-0.455 0.018-0.991-0.42-1.246z"></path>
</svg>
