<!-- Generated by IcoMoon.io -->
<svg version="1.1" xmlns="http://www.w3.org/2000/svg" width="32" height="32" viewBox="0 0 32 32">
<title>approvals-app-filled</title>
<path d="M14.057 2.391c0.521-0.521 1.365-0.521 1.886 0l3.333 3.333c0.25 0.25 0.391 0.589 0.391 0.943s-0.141 0.693-0.391 0.943l-3.333 3.333c-0.521 0.521-1.365 0.521-1.886 0s-0.521-1.365 0-1.886l1.011-1.011c-4.717 0.468-8.401 4.447-8.401 9.287 0 5.155 4.179 9.333 9.333 9.333 4.759 0 8.687-3.562 9.261-8.165 0.091-0.731 0.757-1.249 1.488-1.158s1.249 0.757 1.158 1.488c-0.738 5.921-5.787 10.502-11.907 10.502-6.627 0-12-5.373-12-12 0-6.34 4.916-11.531 11.144-11.97l-1.087-1.087c-0.521-0.521-0.521-1.365 0-1.886z"></path>
<path d="M21.609 13.057c0.521 0.521 0.521 1.365 0 1.886l-6 6c-0.521 0.521-1.365 0.521-1.886 0l-2.667-2.667c-0.521-0.521-0.521-1.365 0-1.886s1.365-0.521 1.886 0l1.724 1.724 5.057-5.057c0.521-0.521 1.365-0.521 1.886 0z"></path>
</svg>
