<!-- Generated by IcoMoon.io -->
<svg version="1.1" xmlns="http://www.w3.org/2000/svg" width="32" height="32" viewBox="0 0 32 32">
<title>approvals-app-filled</title>
<path d="M15.629 0.512c-0.276-0.315-0.68-0.512-1.129-0.512-0.829 0-1.5 0.672-1.5 1.5 0 0.379 0.141 0.726 0.373 0.99l-0.001-0.002 1.375 1.572c-6.591 0.63-11.746 6.183-11.746 12.94 0 7.18 5.82 13 13 13s13-5.82 13-13v-0.5c0-0.828-0.672-1.5-1.5-1.5s-1.5 0.672-1.5 1.5v0 0.5c0 5.523-4.477 10-10 10s-10-4.477-10-10c0-5.051 3.745-9.228 8.61-9.904l-1.239 1.416c-0.231 0.262-0.371 0.609-0.371 0.988 0 0.829 0.672 1.5 1.5 1.5 0.449 0 0.853-0.198 1.128-0.511l0.001-0.002 3.5-4c0.231-0.262 0.371-0.609 0.371-0.988s-0.141-0.726-0.373-0.99l0.001 0.002-3.5-4zM22.609 12.491c0.242 0.265 0.391 0.62 0.391 1.009 0 0.439-0.189 0.834-0.489 1.108l-0.001 0.001-5.5 5c-0.265 0.242-0.62 0.39-1.009 0.39-0.415 0-0.79-0.168-1.061-0.44v0l-2.5-2.5c-0.26-0.269-0.421-0.637-0.421-1.042 0-0.828 0.672-1.5 1.5-1.5 0.405 0 0.773 0.161 1.043 0.422l1.488 1.488 4.442-4.038c0.265-0.242 0.62-0.39 1.009-0.39 0.439 0 0.835 0.189 1.109 0.49l0.001 0.001z"></path>
</svg>
