<!-- Generated by IcoMoon.io -->
<svg version="1.1" xmlns="http://www.w3.org/2000/svg" width="32" height="32" viewBox="0 0 32 32">
<title>apps-add-in-filled</title>
<path d="M14 4c1.841 0 3.333 1.492 3.333 3.333v7.333h7.333c1.841 0 3.333 1.492 3.333 3.333v6.667c0 1.841-1.492 3.333-3.333 3.333h-17.333c-1.841 0-3.333-1.492-3.333-3.333v-17.333c0-1.841 1.492-3.333 3.333-3.333h6.667zM14.667 17.333h-8v7.333c0 0.368 0.298 0.667 0.667 0.667h7.333v-8zM24.667 17.333h-7.333v8h7.333c0.368 0 0.667-0.299 0.667-0.667v-6.667c0-0.368-0.299-0.667-0.667-0.667zM14 6.667h-6.667c-0.368 0-0.667 0.298-0.667 0.667v7.333h8v-7.333c0-0.368-0.299-0.667-0.667-0.667zM23.845 2.676l0.155-0.009c0.684 0 1.247 0.515 1.324 1.178l0.009 0.155v2.667h2.667c0.684 0 1.247 0.515 1.324 1.178l0.009 0.155c0 0.684-0.515 1.247-1.178 1.324l-0.155 0.009h-2.667v2.667c0 0.684-0.515 1.247-1.178 1.324l-0.155 0.009c-0.684 0-1.247-0.515-1.324-1.178l-0.009-0.155v-2.667h-2.667c-0.684 0-1.247-0.515-1.324-1.178l-0.009-0.155c0-0.684 0.515-1.247 1.178-1.324l0.155-0.009h2.667v-2.667c0-0.684 0.515-1.247 1.178-1.324v0z"></path>
</svg>
