<!-- Generated by IcoMoon.io -->
<svg version="1.1" xmlns="http://www.w3.org/2000/svg" width="32" height="32" viewBox="0 0 32 32">
<title>archive-filled</title>
<path d="M26.667 10.667v15.333c0 1.841-1.492 3.333-3.333 3.333h-14.667c-1.841 0-3.333-1.492-3.333-3.333v-15.333h21.333zM18.667 15.333h-5.333c-0.552 0-1 0.448-1 1s0.448 1 1 1h5.333c0.552 0 1-0.448 1-1s-0.448-1-1-1zM26.667 4c0.736 0 1.333 0.597 1.333 1.333v2.667c0 0.736-0.597 1.333-1.333 1.333h-21.333c-0.736 0-1.333-0.597-1.333-1.333v-2.667c0-0.736 0.597-1.333 1.333-1.333h21.333z"></path>
</svg>
