<!-- Generated by IcoMoon.io -->
<svg version="1.1" xmlns="http://www.w3.org/2000/svg" width="32" height="32" viewBox="0 0 32 32">
<title>archive-settings-filled</title>
<path d="M5.143 3.429c-0.947 0-1.714 0.768-1.714 1.714v0 2.286c0 0.947 0.768 1.714 1.714 1.714v0h21.714c0.947 0 1.714-0.768 1.714-1.714v0-2.286c0-0.947-0.767-1.714-1.714-1.714v0h-21.714zM27.429 10.857h-22.857v12.286c0 2.998 2.43 5.429 5.429 5.429v0h6.571c-1.072-1.415-1.717-3.205-1.717-5.146 0-4.734 3.838-8.571 8.571-8.571 1.464 0 2.843 0.367 4.048 1.014l-0.046-0.022v-4.989zM12.571 15.143c0-0.473 0.384-0.857 0.857-0.857v0h5.143c0.473 0 0.857 0.384 0.857 0.857s-0.384 0.857-0.857 0.857v0h-5.143c-0.473 0-0.857-0.384-0.857-0.857v0zM17.549 21.936l-1.17 0.29c-0.059 0.361-0.093 0.777-0.093 1.201 0 0.444 0.037 0.88 0.109 1.304l-0.006-0.046 1.115 0.269c1.012 0.25 1.75 1.15 1.75 2.222 0 0.23-0.034 0.453-0.098 0.663l0.004-0.016-0.37 1.255c0.571 0.51 1.233 0.933 1.957 1.24l0.047 0.018 0.963-1.013c0.417-0.438 1.005-0.711 1.657-0.711s1.239 0.273 1.656 0.71l0.001 0.001 0.971 1.023c0.769-0.321 1.431-0.74 2.009-1.252l-0.007 0.006-0.383-1.326c-0.057-0.19-0.090-0.408-0.090-0.634 0-1.067 0.732-1.964 1.721-2.215l0.016-0.003 1.173-0.289c0.059-0.361 0.093-0.777 0.093-1.201 0-0.444-0.037-0.88-0.109-1.304l0.006 0.046-1.117-0.269c-1.012-0.25-1.75-1.15-1.75-2.222 0-0.23 0.034-0.453 0.098-0.663l-0.004 0.016 0.37-1.257c-0.571-0.51-1.233-0.933-1.957-1.24l-0.047-0.017-0.963 1.015c-0.417 0.439-1.005 0.711-1.657 0.711s-1.24-0.273-1.656-0.71l-0.001-0.001-0.97-1.023c-0.77 0.32-1.432 0.74-2.010 1.252l0.007-0.006 0.383 1.326c0.057 0.19 0.089 0.407 0.089 0.633 0 1.067-0.731 1.964-1.72 2.215l-0.016 0.003zM25.143 23.429c0 0.947-0.767 1.714-1.714 1.714s-1.714-0.767-1.714-1.714v0c0-0.947 0.767-1.714 1.714-1.714s1.714 0.767 1.714 1.714v0z"></path>
</svg>
