<!-- Generated by IcoMoon.io -->
<svg version="1.1" xmlns="http://www.w3.org/2000/svg" width="32" height="32" viewBox="0 0 32 32">
<title>archive-multiple-filled</title>
<path d="M6.333 2.667c-1.289 0-2.333 1.045-2.333 2.333v2c0 1.289 1.045 2.333 2.333 2.333h18c1.289 0 2.333-1.045 2.333-2.333v-2c0-1.289-1.045-2.333-2.333-2.333h-18zM25.333 10.667h-20v10.333c0 2.761 2.239 5 5 5h10c2.761 0 5-2.239 5-5v-10.333zM12 15c0-0.552 0.448-1 1-1h4.636c0.552 0 1 0.448 1 1s-0.448 1-1 1h-4.636c-0.552 0-1-0.448-1-1zM28.667 15.667c0-1.636-0.786-3.088-2-4v10c0 3.13-2.537 5.667-5.667 5.667h-11.334c0.912 1.215 2.365 2 4 2h7.333c4.234 0 7.667-3.432 7.667-7.667v-6z"></path>
</svg>
