<!-- Generated by IcoMoon.io -->
<svg version="1.1" xmlns="http://www.w3.org/2000/svg" width="32" height="32" viewBox="0 0 32 32">
<title>arrow-wrap-filled</title>
<path d="M22 5.6c2.872 0 5.2 2.328 5.2 5.2s-2.328 5.2-5.2 5.2v0h-12c-1.546 0-2.8 1.254-2.8 2.8s1.254 2.8 2.8 2.8v0h14.704l-0.352-0.352c-0.235-0.22-0.382-0.532-0.382-0.878 0-0.663 0.537-1.2 1.2-1.2 0.346 0 0.658 0.147 0.877 0.381l0.001 0.001 2.4 2.4c0.217 0.217 0.351 0.517 0.351 0.848s-0.134 0.631-0.351 0.848v0l-2.4 2.4c-0.22 0.235-0.532 0.382-0.878 0.382-0.663 0-1.2-0.537-1.2-1.2 0-0.346 0.147-0.658 0.381-0.877l0.001-0.001 0.352-0.352h-14.704c-2.872 0-5.2-2.328-5.2-5.2s2.328-5.2 5.2-5.2v0h12c1.546 0 2.8-1.254 2.8-2.8s-1.254-2.8-2.8-2.8v0h-16c-0.663 0-1.2-0.537-1.2-1.2s0.537-1.2 1.2-1.2v0h16z"></path>
</svg>
