<!-- Generated by IcoMoon.io -->
<svg version="1.1" xmlns="http://www.w3.org/2000/svg" width="32" height="32" viewBox="0 0 32 32">
<title>arrow-collapse-all-filled</title>
<path d="M2.667 6.667c0-0.736 0.597-1.333 1.333-1.333h24c0.736 0 1.333 0.597 1.333 1.333s-0.597 1.333-1.333 1.333h-24c-0.736 0-1.333-0.597-1.333-1.333zM8.391 11.057c0.521-0.521 1.365-0.521 1.886 0l4 4c0.521 0.521 0.521 1.365 0 1.886s-1.365 0.521-1.886 0l-1.724-1.724v10.114c0 0.736-0.597 1.333-1.333 1.333s-1.333-0.597-1.333-1.333v-10.114l-1.724 1.724c-0.521 0.521-1.365 0.521-1.886 0s-0.521-1.365 0-1.886l4-4zM28 13.333h-12c-0.736 0-1.333-0.597-1.333-1.333s0.597-1.333 1.333-1.333h12c0.736 0 1.333 0.597 1.333 1.333s-0.597 1.333-1.333 1.333z"></path>
</svg>
