<!-- Generated by IcoMoon.io -->
<svg version="1.1" xmlns="http://www.w3.org/2000/svg" width="32" height="32" viewBox="0 0 32 32">
<title>arrow-repeat-all-filled</title>
<path d="M19.616 3.052l-0.116-0.104c-0.225-0.179-0.513-0.287-0.826-0.287-0.368 0-0.702 0.149-0.943 0.391v0l-0.104 0.116c-0.179 0.225-0.287 0.513-0.287 0.826 0 0.368 0.149 0.701 0.391 0.942l1.732 1.729-7.784 0.005c-5.013 0.176-9.010 4.281-9.012 9.32v0c0 0.006-0 0.012-0 0.019 0 1.933 0.593 3.727 1.606 5.211l-0.021-0.032c0.245 0.339 0.639 0.557 1.084 0.557 0.736 0 1.333-0.597 1.333-1.333 0-0.291-0.093-0.56-0.251-0.779l0.003 0.004-0.18-0.291c-0.57-0.961-0.906-2.119-0.906-3.355 0-3.68 2.983-6.663 6.663-6.663 0.001 0 0.002 0 0.004 0h7.46l-1.729 1.729-0.104 0.116c-0.186 0.227-0.299 0.521-0.299 0.84 0 0.736 0.596 1.332 1.332 1.332 0.375 0 0.714-0.155 0.956-0.404l4.008-4.004 0.103-0.116c0.179-0.225 0.287-0.512 0.287-0.826 0-0.368-0.149-0.701-0.391-0.942l-4.007-4.004zM27.716 10.747c-0.246-0.314-0.625-0.513-1.051-0.513-0.736 0-1.332 0.596-1.332 1.332 0 0.001 0 0.003 0 0.004v-0c0 0.279 0.085 0.536 0.229 0.748 0.691 1.033 1.102 2.304 1.102 3.671 0 3.68-2.983 6.662-6.662 6.663h-7.451l1.725-1.72 0.111-0.128c0.173-0.223 0.278-0.507 0.278-0.815 0-0.313-0.108-0.6-0.288-0.828l0.002 0.003-0.103-0.117-0.127-0.112c-0.223-0.174-0.507-0.279-0.816-0.279-0.313 0-0.601 0.108-0.829 0.289l0.003-0.002-0.117 0.104-4.007 4.004-0.111 0.127c-0.174 0.223-0.279 0.507-0.279 0.816 0 0.313 0.108 0.601 0.289 0.829l-0.002-0.003 0.103 0.116 4.007 4.004 0.127 0.112c0.223 0.173 0.507 0.278 0.815 0.278 0.736 0 1.333-0.597 1.333-1.333 0-0.313-0.108-0.6-0.288-0.828l0.002 0.003-0.103-0.116-1.739-1.737 7.781-0.004c5.013-0.178 9.009-4.284 9.009-9.324 0-1.959-0.604-3.776-1.635-5.277l0.021 0.032v0.004z"></path>
</svg>
