<!-- Generated by IcoMoon.io -->
<svg version="1.1" xmlns="http://www.w3.org/2000/svg" width="32" height="32" viewBox="0 0 32 32">
<title>arrows-bidirectional-filled</title>
<path d="M20.002 11.998h-7.996l0.001-2.999c0-0.88-1.054-1.331-1.69-0.724l-7.338 7c-0.413 0.394-0.413 1.053 0 1.447l7.338 7 0.11 0.091c0.641 0.464 1.581 0.016 1.581-0.815l-0.001-3h7.996l0.001 3c0 0.88 1.054 1.331 1.691 0.723l7.329-7c0.413-0.394 0.413-1.053 0-1.446l-7.33-7c-0.636-0.608-1.691-0.157-1.691 0.723l-0.001 2.999z"></path>
</svg>
