<!-- Generated by IcoMoon.io -->
<svg version="1.1" xmlns="http://www.w3.org/2000/svg" width="32" height="32" viewBox="0 0 32 32">
<title>arrow-circle-up-filled</title>
<path d="M16 29.333c-7.364 0-13.333-5.969-13.333-13.333s5.969-13.333 13.333-13.333 13.333 5.969 13.333 13.333-5.969 13.333-13.333 13.333zM10.244 16.089c0.151 0.151 0.359 0.244 0.589 0.244s0.439-0.093 0.589-0.244l3.744-3.744v9.488c0 0.46 0.373 0.833 0.833 0.833s0.833-0.373 0.833-0.833v0-9.488l3.744 3.744c0.151 0.151 0.359 0.244 0.589 0.244 0.46 0 0.833-0.373 0.833-0.833 0-0.23-0.093-0.438-0.244-0.589v0l-5.167-5.167c-0.151-0.151-0.359-0.244-0.589-0.244s-0.439 0.093-0.589 0.244l-5.167 5.167c-0.151 0.151-0.244 0.359-0.244 0.589s0.093 0.439 0.244 0.589v0z"></path>
</svg>
