<!-- Generated by IcoMoon.io -->
<svg version="1.1" xmlns="http://www.w3.org/2000/svg" width="32" height="32" viewBox="0 0 32 32">
<title>arrow-clockwise-dashes-filled</title>
<path d="M16 3.667c-0.878 0-1.736 0.092-2.564 0.267-0.72 0.152-1.181 0.86-1.029 1.58s0.86 1.181 1.58 1.029c0.648-0.137 1.321-0.209 2.012-0.209s1.364 0.072 2.012 0.209c0.72 0.152 1.428-0.308 1.58-1.029s-0.308-1.428-1.029-1.58c-0.828-0.175-1.686-0.267-2.564-0.267zM23.667 6.339v-0.672c0-0.736 0.597-1.333 1.333-1.333s1.333 0.597 1.333 1.333v4c0 0.736-0.597 1.333-1.333 1.333h-4c-0.736 0-1.333-0.597-1.333-1.333s0.597-1.333 1.333-1.333h0.889c-0.202-0.155-0.41-0.303-0.624-0.442-0.617-0.402-0.792-1.228-0.39-1.845s1.228-0.792 1.845-0.39c0.327 0.213 0.643 0.441 0.948 0.683zM11.126 6.046c-0.402-0.617-1.228-0.792-1.845-0.39-1.447 0.942-2.684 2.178-3.625 3.625-0.402 0.617-0.227 1.443 0.39 1.845s1.443 0.227 1.845-0.39c0.739-1.135 1.709-2.106 2.845-2.845 0.617-0.402 0.792-1.228 0.39-1.845zM5.514 12.408c-0.72-0.152-1.428 0.308-1.58 1.029-0.175 0.828-0.267 1.686-0.267 2.564s0.092 1.736 0.267 2.564c0.152 0.721 0.86 1.181 1.58 1.029s1.181-0.86 1.029-1.58c-0.137-0.648-0.209-1.321-0.209-2.012s0.072-1.364 0.209-2.012c0.152-0.72-0.308-1.428-1.029-1.58zM27 13.667c-0.736 0-1.333 0.597-1.333 1.333v1c0 0.691-0.072 1.364-0.209 2.012-0.152 0.72 0.308 1.428 1.029 1.58s1.428-0.308 1.58-1.029c0.175-0.828 0.267-1.686 0.267-2.564v-1c0-0.736-0.597-1.333-1.333-1.333zM25.954 20.874c-0.617-0.402-1.443-0.227-1.845 0.39-0.739 1.135-1.709 2.106-2.845 2.845-0.617 0.402-0.792 1.228-0.39 1.845s1.228 0.792 1.845 0.39c1.447-0.941 2.684-2.178 3.625-3.625 0.402-0.617 0.227-1.443-0.39-1.845zM7.891 21.264c-0.402-0.617-1.228-0.792-1.845-0.39s-0.792 1.228-0.39 1.845c0.942 1.447 2.178 2.684 3.625 3.625 0.617 0.402 1.443 0.227 1.845-0.39s0.227-1.443-0.39-1.845c-1.135-0.739-2.106-1.709-2.845-2.845zM13.988 25.457c-0.72-0.152-1.428 0.308-1.58 1.029s0.308 1.428 1.029 1.58c0.828 0.175 1.686 0.267 2.564 0.267s1.736-0.092 2.564-0.267c0.721-0.152 1.181-0.86 1.029-1.58s-0.86-1.181-1.58-1.029c-0.648 0.137-1.321 0.209-2.012 0.209s-1.364-0.072-2.012-0.209z"></path>
</svg>
