<!-- Generated by IcoMoon.io -->
<svg version="1.1" xmlns="http://www.w3.org/2000/svg" width="32" height="32" viewBox="0 0 32 32">
<title>arrow-maximize-filled</title>
<path d="M16.662 4.003l10.074 0.002 0.161 0.019 0.117 0.026 0.139 0.046 0.119 0.054 0.085 0.048 0.083 0.055 0.085 0.067 0.084 0.078 0.126 0.146 0.095 0.148 0.071 0.15 0.047 0.14 0.021 0.087 0.012 0.070 0.015 0.198v10.005c0 0.736-0.597 1.333-1.333 1.333-0.684 0-1.247-0.515-1.324-1.178l-0.009-0.156-0-6.786-16.78 16.779 6.783 0.001c0.684 0 1.247 0.515 1.324 1.178l0.009 0.155c0 0.684-0.515 1.247-1.178 1.324l-0.155 0.009-10.081-0.002-0.127-0.014-0.102-0.020-0.103-0.029-0.092-0.034-0.12-0.056-0.119-0.072-0.122-0.093 0.043 0.035c-0.082-0.065-0.157-0.139-0.222-0.221l-0.068-0.094-0.052-0.085-0.044-0.086-0.045-0.109-0.034-0.106-0.031-0.149-0.010-0.082-0.005-0.119v-10.005c0-0.736 0.597-1.333 1.333-1.333 0.684 0 1.247 0.515 1.324 1.178l0.009 0.155v6.785l16.779-16.777h-6.782c-0.684 0-1.247-0.515-1.324-1.178l-0.009-0.155c0-0.736 0.597-1.333 1.333-1.333z"></path>
</svg>
