<!-- Generated by IcoMoon.io -->
<svg version="1.1" xmlns="http://www.w3.org/2000/svg" width="32" height="32" viewBox="0 0 32 32">
<title>arrow-import-filled</title>
<path d="M28.333 6c0.506 0 0.925 0.376 0.991 0.864l0.009 0.136v18c0 0.552-0.448 1-1 1-0.506 0-0.925-0.376-0.991-0.864l-0.009-0.136v-18c0-0.552 0.448-1 1-1zM16.28 8.516l0.111-0.126c0.481-0.481 1.237-0.518 1.76-0.111l0.126 0.111 6.662 6.663c0.48 0.48 0.517 1.236 0.111 1.759l-0.111 0.126-6.662 6.671c-0.52 0.521-1.365 0.522-1.886 0.001-0.481-0.48-0.519-1.237-0.112-1.76l0.111-0.126 4.385-4.393h-16.775c-0.684 0-1.247-0.515-1.324-1.178l-0.009-0.155c0-0.684 0.515-1.247 1.178-1.324l0.155-0.009h16.779l-4.388-4.391c-0.481-0.481-0.517-1.237-0.111-1.76v0z"></path>
</svg>
