<!-- Generated by IcoMoon.io -->
<svg version="1.1" xmlns="http://www.w3.org/2000/svg" width="32" height="32" viewBox="0 0 32 32">
<title>arrow-sync-circle-filled</title>
<path d="M16 29.333c-7.364 0-13.333-5.969-13.333-13.333s5.969-13.333 13.333-13.333 13.333 5.969 13.333 13.333-5.969 13.333-13.333 13.333zM20.36 14.333h-1.693c-0.552 0-1 0.448-1 1s0.448 1 1 1v0h3.667c0.552 0 1-0.448 1-1v0-4.333c0-0.552-0.448-1-1-1s-1 0.448-1 1v0 1c-1.227-1.626-3.156-2.667-5.327-2.667-0.002 0-0.004 0-0.006 0h0c-2.049 0-3.872 0.88-5.103 2.36-0.144 0.172-0.231 0.396-0.231 0.64 0 0.553 0.448 1.001 1.001 1.001 0.309 0 0.584-0.14 0.768-0.359l0.001-0.002c0.848-1.023 2.107-1.64 3.564-1.64 1.989 0 3.689 1.245 4.36 3zM10.667 21v-1c1.233 1.626 3.165 2.665 5.341 2.665 2.033 0 3.854-0.908 5.080-2.34l0.008-0.009c0.157-0.176 0.253-0.409 0.253-0.664 0-0.552-0.448-1-1-1-0.312 0-0.591 0.143-0.774 0.367l-0.001 0.002c-0.864 1.009-2.14 1.644-3.563 1.644-1.853 0-3.454-1.075-4.214-2.636l-0.012-0.028h1.551c0.552 0 1-0.448 1-1s-0.448-1-1-1v0h-3.667c-0.552 0-1 0.448-1 1v0 4c0 0.552 0.448 1 1 1s1-0.448 1-1v0z"></path>
</svg>
