<!-- Generated by IcoMoon.io -->
<svg version="1.1" xmlns="http://www.w3.org/2000/svg" width="32" height="32" viewBox="0 0 32 32">
<title>arrow-down-left-filled</title>
<path d="M6.665 23.447l19.056-19.054c0.521-0.521 1.365-0.521 1.886 0 0.481 0.481 0.518 1.237 0.111 1.76l-0.111 0.126-19.056 19.055 6.783 0.001c0.684 0 1.247 0.515 1.324 1.178l0.009 0.155c0 0.684-0.515 1.247-1.178 1.324l-0.155 0.009-10.081-0.002-0.127-0.014-0.102-0.020-0.103-0.029-0.092-0.034-0.12-0.056-0.119-0.072-0.122-0.093 0.043 0.035c-0.082-0.065-0.157-0.139-0.222-0.221l-0.068-0.094-0.052-0.085-0.044-0.086-0.045-0.109-0.034-0.106-0.031-0.149-0.010-0.082-0.005-0.119v-10.005c0-0.736 0.597-1.333 1.333-1.333 0.684 0 1.247 0.515 1.324 1.178l0.009 0.155v6.785z"></path>
</svg>
