<!-- Generated by IcoMoon.io -->
<svg version="1.1" xmlns="http://www.w3.org/2000/svg" width="32" height="32" viewBox="0 0 32 32">
<title>arrow-turn-right-left-filled</title>
<path d="M5.963 6.595c-0.365-0.154-0.617-0.51-0.617-0.924 0-0.552 0.448-1 1-1 0.129 0 0.252 0.024 0.365 0.069l-0.007-0.002 21.036 8.397c1.385 0.553 1.403 2.507 0.028 3.084l-19.506 8.197 5.152 2.342c0.363 0.156 0.612 0.509 0.612 0.922 0 0.552-0.448 1-1 1-0.16 0-0.311-0.038-0.445-0.104l0.006 0.003-7.333-3.333c-0.349-0.161-0.586-0.508-0.586-0.91 0-0.139 0.028-0.271 0.079-0.391l-0.002 0.007 3.333-8c0.157-0.359 0.509-0.606 0.919-0.606 0.552 0 1 0.448 1 1 0 0.135-0.027 0.264-0.076 0.382l0.002-0.007-2.439 5.853 18.758-7.881-20.279-8.096z"></path>
</svg>
