<!-- Generated by IcoMoon.io -->
<svg version="1.1" xmlns="http://www.w3.org/2000/svg" width="32" height="32" viewBox="0 0 32 32">
<title>arrow-join-filled</title>
<path d="M7.2 3.2c0.442 0 0.8 0.358 0.8 0.8v0c0 5.798 4.602 10.4 10.4 10.4h1.269l-1.835-1.834c-0.145-0.145-0.235-0.345-0.235-0.566 0-0.442 0.359-0.801 0.801-0.801 0.221 0 0.421 0.090 0.566 0.235v0l3.2 3.2c0.145 0.145 0.235 0.345 0.235 0.566s-0.090 0.422-0.235 0.566l-3.2 3.2c-0.145 0.145-0.345 0.235-0.566 0.235-0.442 0-0.801-0.359-0.801-0.801 0-0.221 0.090-0.421 0.235-0.566v0l1.835-1.834h-1.269c-0.020-0-0.045-0-0.069-0-5.706 0-10.331 4.625-10.331 10.331 0 0.024 0 0.049 0 0.073l-0-0.004c0 0.442-0.358 0.8-0.8 0.8s-0.8-0.358-0.8-0.8v0c-0-0.021-0-0.046-0-0.070 0-5.046 3.134-9.36 7.562-11.102l0.081-0.028c-4.509-1.769-7.643-6.084-7.643-11.13 0-0.025 0-0.049 0-0.074l-0 0.004c0-0.442 0.358-0.8 0.8-0.8v0zM16.051 17.909c-2.012 0.552-3.689 1.753-4.833 3.359l-0.018 0.027v1.106c0 1.767 1.433 3.2 3.2 3.2v0h9.6c1.767 0 3.2-1.433 3.2-3.2v0-14.4c0-1.767-1.433-3.2-3.2-3.2v0h-9.6c-1.767 0-3.2 1.433-3.2 3.2v0 1.106c1.162 1.633 2.839 2.834 4.79 3.371l0.061 0.014c-0.033-0.148-0.051-0.318-0.051-0.493 0-1.325 1.074-2.398 2.398-2.398 0.663 0 1.263 0.269 1.698 0.704l3.2 3.2c0.435 0.434 0.704 1.035 0.704 1.698s-0.269 1.263-0.703 1.698l-3.2 3.2c-0.435 0.436-1.035 0.705-1.699 0.705-1.325 0-2.4-1.075-2.4-2.4 0-0.175 0.019-0.346 0.054-0.51l-0.003 0.016z"></path>
</svg>
