<!-- Generated by IcoMoon.io -->
<svg version="1.1" xmlns="http://www.w3.org/2000/svg" width="32" height="32" viewBox="0 0 32 32">
<title>arrow-trending-checkmark-filled</title>
<path d="M26.667 4c0.736 0 1.333 0.597 1.333 1.333v6.667c0 0.736-0.597 1.333-1.333 1.333s-1.333-0.597-1.333-1.333v-3.448l-7.724 7.724c-0.25 0.25-0.589 0.391-0.943 0.391s-0.693-0.141-0.943-0.391l-2.391-2.391-7.057 7.057c-0.521 0.521-1.365 0.521-1.886 0s-0.521-1.365 0-1.886l8-8c0.25-0.25 0.589-0.391 0.943-0.391s0.693 0.14 0.943 0.391l2.391 2.391 6.781-6.781h-3.448c-0.736 0-1.333-0.597-1.333-1.333s0.597-1.333 1.333-1.333h6.667zM30.667 23.333c0 4.050-3.283 7.333-7.333 7.333s-7.333-3.283-7.333-7.333c0-4.050 3.283-7.333 7.333-7.333s7.333 3.283 7.333 7.333zM27.805 20.195c-0.26-0.26-0.683-0.26-0.943 0l-4.862 4.862-2.195-2.195c-0.26-0.26-0.683-0.26-0.943 0s-0.26 0.683 0 0.943l2.667 2.667c0.26 0.26 0.683 0.26 0.943 0l5.333-5.333c0.26-0.26 0.26-0.683 0-0.943z"></path>
</svg>
