<!-- Generated by IcoMoon.io -->
<svg version="1.1" xmlns="http://www.w3.org/2000/svg" width="32" height="32" viewBox="0 0 32 32">
<title>arrow-autofit-width-filled</title>
<path d="M23.333 5.323c1.841 0 3.333 1.492 3.333 3.333v5.333c0 0.736-0.597 1.333-1.333 1.333s-1.333-0.597-1.333-1.333v-5.333c0-0.368-0.299-0.667-0.667-0.667h-14.667c-0.368 0-0.667 0.298-0.667 0.667v5.333c0 0.736-0.597 1.333-1.333 1.333s-1.333-0.597-1.333-1.333v-5.333c0-1.841 1.492-3.333 3.333-3.333h14.667z"></path>
<path d="M24.266 17.382l-0.131-0.113-0.010-0.007c-0.522-0.387-1.263-0.345-1.736 0.129s-0.516 1.214-0.129 1.736l0.007 0.010 0.113 0.131 1.067 1.066h-4.252l-0.144 0.011-0.013 0.002c-0.619 0.096-1.039 0.681-1.039 1.32s0.42 1.224 1.038 1.32l0.013 0.002 0.144 0.011h4.253l-1.069 1.069-0.124 0.146-0.008 0.011c-0.336 0.469-0.332 1.105 0.013 1.57l0.007 0.010 0.122 0.141 0.155 0.132 0.011 0.008c0.469 0.336 1.105 0.332 1.57-0.013l0.010-0.007 0.131-0.113 3.148-3.145 0.086-0.061 0.009-0.007c0.305-0.248 0.491-0.643 0.491-1.073 0-0.475-0.227-0.908-0.591-1.147l-3.142-3.139z"></path>
<path d="M9.698 19.141l-0.113 0.131-1.067 1.066h4.239c0.708-0 1.208 0.64 1.208 1.333 0 0.639-0.42 1.224-1.038 1.32l-0.013 0.002-0.144 0.011h-4.253l1.059 1.059c0.474 0.474 0.516 1.214 0.129 1.736l-0.007 0.010-0.113 0.131-0.009 0.009c-0.474 0.474-1.214 0.516-1.736 0.129l-0.010-0.007-0.131-0.113-3.142-3.138c-0.365-0.239-0.592-0.673-0.592-1.147s0.227-0.908 0.591-1.147l3.134-3.13c0.521-0.521 1.365-0.521 1.886 0 0.474 0.474 0.516 1.214 0.129 1.736l-0.007 0.010z"></path>
</svg>
