<!-- Generated by IcoMoon.io -->
<svg version="1.1" xmlns="http://www.w3.org/2000/svg" width="32" height="32" viewBox="0 0 32 32">
<title>arrow-square-down-filled</title>
<path d="M7.333 4c-1.841 0-3.333 1.492-3.333 3.333v17.333c0 1.841 1.492 3.333 3.333 3.333h17.333c1.841 0 3.333-1.492 3.333-3.333v-17.333c0-1.841-1.492-3.333-3.333-3.333h-17.333zM22.040 15.627c0.355 0.355 0.387 0.911 0.097 1.302l-0.097 0.112-5.334 5.335c-0.355 0.355-0.911 0.387-1.302 0.097l-0.112-0.097-5.333-5.335c-0.39-0.391-0.39-1.024 0-1.414 0.355-0.355 0.911-0.387 1.302-0.097l0.112 0.097 3.628 3.629-0-8.922c0-0.506 0.376-0.925 0.864-0.991l0.136-0.009c0.506 0 0.925 0.376 0.991 0.864l0.009 0.136 0 8.92 3.626-3.626c0.355-0.355 0.911-0.387 1.302-0.097l0.112 0.097z"></path>
</svg>
