<!-- Generated by IcoMoon.io -->
<svg version="1.1" xmlns="http://www.w3.org/2000/svg" width="32" height="32" viewBox="0 0 32 32">
<title>arrow-upload-filled</title>
<path d="M7 4.661h17.997c0.552-0.001 0.998-0.448 0.998-1 0-0.504-0.373-0.921-0.858-0.99l-0.005-0.001-0.135-0.009h-17.997c-0.552 0-1 0.448-1 1 0 0.504 0.373 0.921 0.858 0.99l0.005 0.001 0.136 0.009zM15.844 29.325l0.156 0.008c0.681-0 1.243-0.511 1.323-1.171l0.001-0.006 0.009-0.156v-16.787l4.392 4.391c0.241 0.241 0.575 0.39 0.943 0.39 0.309 0 0.594-0.105 0.82-0.282l-0.003 0.002 0.125-0.111c0.241-0.241 0.39-0.575 0.39-0.943 0-0.309-0.105-0.594-0.282-0.82l0.002 0.003-0.111-0.125-6.663-6.663c-0.241-0.241-0.575-0.39-0.943-0.39-0.309 0-0.594 0.105-0.82 0.282l0.003-0.002-0.125 0.111-6.672 6.663c-0.244 0.242-0.395 0.577-0.395 0.947 0 0.736 0.597 1.333 1.333 1.333 0.311 0 0.598-0.107 0.825-0.285l-0.003 0.002 0.125-0.111 4.391-4.385v16.78c0 0 0 0.001 0 0.001 0 0.681 0.511 1.243 1.171 1.324l0.006 0.001z"></path>
</svg>
