<!-- Generated by IcoMoon.io -->
<svg version="1.1" xmlns="http://www.w3.org/2000/svg" width="32" height="32" viewBox="0 0 32 32">
<title>arrow-trending-text-filled</title>
<path d="M28 5.333c0-0.736-0.597-1.333-1.333-1.333h-6.667c-0.736 0-1.333 0.597-1.333 1.333s0.597 1.333 1.333 1.333h3.448l-6.781 6.781-2.391-2.391c-0.25-0.25-0.589-0.391-0.943-0.391s-0.693 0.14-0.943 0.391l-8 8c-0.521 0.521-0.521 1.365 0 1.886s1.365 0.521 1.886 0l7.057-7.057 2.391 2.391c0.205 0.205 0.469 0.336 0.752 0.377 0.395-0.259 0.838-0.45 1.313-0.556l7.544-7.544v3.448c0 0.736 0.597 1.333 1.333 1.333s1.333-0.597 1.333-1.333v-6.667zM18.667 17.333c-1.473 0-2.667 1.194-2.667 2.667v8c0 1.473 1.194 2.667 2.667 2.667h9.333c1.473 0 2.667-1.194 2.667-2.667v-8c0-1.473-1.194-2.667-2.667-2.667h-9.333zM18.667 22c0-0.368 0.299-0.667 0.667-0.667h8c0.368 0 0.667 0.299 0.667 0.667s-0.299 0.667-0.667 0.667h-8c-0.368 0-0.667-0.299-0.667-0.667zM18.667 26c0-0.368 0.299-0.667 0.667-0.667h8c0.368 0 0.667 0.299 0.667 0.667s-0.299 0.667-0.667 0.667h-8c-0.368 0-0.667-0.299-0.667-0.667z"></path>
</svg>
