<!-- Generated by IcoMoon.io -->
<svg version="1.1" xmlns="http://www.w3.org/2000/svg" width="32" height="32" viewBox="0 0 32 32">
<title>arrow-export-up-filled</title>
<path d="M16.943 3.057c-0.241-0.241-0.575-0.39-0.943-0.39s-0.701 0.149-0.943 0.39l-6.667 6.667c-0.232 0.24-0.374 0.566-0.374 0.926 0 0.736 0.597 1.333 1.333 1.333 0.36 0 0.687-0.143 0.927-0.375l4.39-4.39v16.781c0 0.736 0.597 1.333 1.333 1.333s1.333-0.597 1.333-1.333v0-16.781l4.391 4.391c0.243 0.251 0.583 0.407 0.959 0.407 0.736 0 1.333-0.597 1.333-1.333 0-0.376-0.156-0.716-0.407-0.959l-6.667-6.667zM7 27.333c-0.552 0-1 0.448-1 1s0.448 1 1 1v0h18c0.552 0 1-0.448 1-1s-0.448-1-1-1v0h-18z"></path>
</svg>
