<!-- Generated by IcoMoon.io -->
<svg version="1.1" xmlns="http://www.w3.org/2000/svg" width="32" height="32" viewBox="0 0 32 32">
<title>arrow-minimize-vertical-filled</title>
<path d="M18.391 24.943c0.521 0.521 1.365 0.521 1.886 0s0.521-1.365 0-1.886l-3.333-3.333c-0.521-0.521-1.365-0.521-1.886 0l-3.333 3.333c-0.521 0.521-0.521 1.365 0 1.886s1.365 0.521 1.886 0l1.057-1.057v4.114c0 0.736 0.597 1.333 1.333 1.333s1.333-0.597 1.333-1.333v-4.114l1.057 1.057z"></path>
<path d="M5.333 16c0-0.736 0.597-1.333 1.333-1.333h18.667c0.736 0 1.333 0.597 1.333 1.333s-0.597 1.333-1.333 1.333h-18.667c-0.736 0-1.333-0.597-1.333-1.333z"></path>
<path d="M17.333 4c0-0.736-0.597-1.333-1.333-1.333s-1.333 0.597-1.333 1.333v4.114l-1.057-1.057c-0.521-0.521-1.365-0.521-1.886 0s-0.521 1.365 0 1.886l3.333 3.333c0.521 0.521 1.365 0.521 1.886 0l3.333-3.333c0.521-0.521 0.521-1.365 0-1.886s-1.365-0.521-1.886 0l-1.057 1.057v-4.114z"></path>
</svg>
