<!-- Generated by IcoMoon.io -->
<svg version="1.1" xmlns="http://www.w3.org/2000/svg" width="32" height="32" viewBox="0 0 32 32">
<title>arrow-curve-down-left-filled</title>
<path d="M22.491 4.339c0.365 0.639 0.143 1.454-0.496 1.819-2.5 1.428-3.615 3.15-4.152 4.927-0.518 1.719-0.515 3.524-0.511 5.416 0 0.166 0.001 0.332 0.001 0.499v6.781l4.391-4.39c0.521-0.521 1.365-0.521 1.886 0s0.521 1.365 0 1.886l-6.667 6.667c-0.521 0.521-1.365 0.521-1.886 0l-6.667-6.667c-0.521-0.521-0.521-1.365 0-1.886s1.365-0.521 1.886 0l4.391 4.39v-6.781c0-0.174-0.001-0.352-0.001-0.534-0.007-1.83-0.015-4.031 0.625-6.151 0.731-2.422 2.281-4.701 5.382-6.473 0.639-0.365 1.454-0.143 1.819 0.496z"></path>
</svg>
