<!-- Generated by IcoMoon.io -->
<svg version="1.1" xmlns="http://www.w3.org/2000/svg" width="32" height="32" viewBox="0 0 32 32">
<title>arrow-curve-up-left-filled</title>
<path d="M9.648 11.248c-0.214 0.2-0.502 0.322-0.818 0.322-0.663 0-1.2-0.537-1.2-1.2 0-0.316 0.123-0.604 0.323-0.819l-0.001 0.001 6.4-6.4c0.217-0.217 0.517-0.351 0.848-0.351s0.631 0.134 0.848 0.351v0l6.4 6.4c0.2 0.214 0.322 0.502 0.322 0.818 0 0.663-0.537 1.2-1.2 1.2-0.316 0-0.604-0.123-0.819-0.323l0.001 0.001-4.352-4.352v8.704c0 3.115 0.392 5.314 1.184 6.986 0.778 1.642 1.989 2.88 3.834 3.984 0.352 0.214 0.583 0.595 0.583 1.030 0 0.663-0.538 1.201-1.201 1.201-0.228 0-0.441-0.064-0.623-0.174l0.005 0.003c-2.155-1.293-3.744-2.856-4.768-5.014-1.008-2.128-1.414-4.73-1.414-8.014v-8.704l-4.352 4.352z"></path>
</svg>
