<!-- Generated by IcoMoon.io -->
<svg version="1.1" xmlns="http://www.w3.org/2000/svg" width="32" height="32" viewBox="0 0 32 32">
<title>arrow-turn-down-right-filled</title>
<path d="M8.667 5c0-0.552-0.448-1-1-1s-1 0.448-1 1v0 12c0 2.761 2.239 5 5 5v0h11.586l-4.293 4.293c-0.174 0.18-0.28 0.424-0.28 0.694 0 0.552 0.448 1 1 1 0.27 0 0.515-0.107 0.695-0.281l-0 0 6-6c0.181-0.181 0.292-0.431 0.292-0.707s-0.112-0.526-0.292-0.707v0l-6-6c-0.18-0.174-0.425-0.281-0.695-0.281-0.552 0-1 0.448-1 1 0 0.27 0.107 0.515 0.281 0.695l4.294 4.293h-11.587c-1.657 0-3-1.343-3-3v0-12z"></path>
</svg>
