<!-- Generated by IcoMoon.io -->
<svg version="1.1" xmlns="http://www.w3.org/2000/svg" width="32" height="32" viewBox="0 0 32 32">
<title>arrow-redo-filled</title>
<path d="M24 10.115l-4.855-4.847c-3.468-3.468-9.091-3.468-12.56 0s-3.468 9.091 0 12.56l11.118 11.116c0.521 0.521 1.365 0.52 1.886-0s0.52-1.365-0-1.886l-11.118-11.116c-2.427-2.427-2.427-6.362 0-8.789 2.351-2.351 6.117-2.425 8.557-0.22l0.232 0.22 4.853 4.845-6.113 0.001c-0.684 0-1.247 0.515-1.324 1.178l-0.009 0.155c0 0.684 0.515 1.247 1.178 1.324l0.155 0.009h9.333c0.684 0 1.247-0.515 1.324-1.178l0.009-0.156v-9.33c0-0.736-0.597-1.333-1.333-1.333-0.684 0-1.247 0.515-1.324 1.178l-0.009 0.155v6.112z"></path>
</svg>
