<!-- Generated by IcoMoon.io -->
<svg version="1.1" xmlns="http://www.w3.org/2000/svg" width="32" height="32" viewBox="0 0 32 32">
<title>arrow-circle-down-double-filled</title>
<path d="M14.999 18.332c0.355 0.355 0.387 0.911 0.097 1.302l-0.097 0.112-2.628 2.628c-0.355 0.355-0.911 0.387-1.302 0.097l-0.112-0.097-2.626-2.628c-0.39-0.391-0.39-1.024 0-1.414 0.355-0.355 0.911-0.387 1.302-0.097l0.112 0.097 0.92 0.922-0-8.922c0-0.506 0.376-0.925 0.864-0.991l0.136-0.009c0.506 0 0.925 0.376 0.991 0.864l0.009 0.136 0 8.92 0.919-0.919c0.355-0.355 0.911-0.387 1.302-0.097l0.112 0.097zM2.665 15.999c0 7.364 5.97 13.333 13.333 13.333s13.333-5.97 13.333-13.333c0-7.364-5.969-13.333-13.333-13.333s-13.333 5.97-13.333 13.333zM23.554 18.235l0.112 0.097c0.355 0.355 0.387 0.911 0.097 1.302l-0.097 0.112-2.628 2.628c-0.355 0.355-0.911 0.387-1.302 0.097l-0.112-0.097-2.626-2.628c-0.39-0.391-0.39-1.024 0-1.414 0.355-0.355 0.911-0.387 1.302-0.097l0.112 0.097 0.92 0.921-0-8.922c0-0.506 0.376-0.925 0.864-0.991l0.136-0.009c0.506 0 0.925 0.376 0.991 0.864l0.009 0.136 0 8.92 0.919-0.919c0.355-0.355 0.911-0.387 1.302-0.097z"></path>
</svg>
