<!-- Generated by IcoMoon.io -->
<svg version="1.1" xmlns="http://www.w3.org/2000/svg" width="32" height="32" viewBox="0 0 32 32">
<title>arrow-wrap-off-filled</title>
<path d="M4.566 3.434c-0.145-0.145-0.345-0.235-0.566-0.235-0.442 0-0.801 0.359-0.801 0.801 0 0.221 0.090 0.421 0.235 0.566v0l1.568 1.568c-0.126 0.187-0.202 0.418-0.202 0.666 0 0.663 0.537 1.2 1.2 1.2h0.869l5.6 5.598h-2.469c-2.872 0-5.2 2.328-5.2 5.2s2.328 5.2 5.2 5.2v0h12.869l1.133 1.133c-0.001 0.021-0.002 0.045-0.002 0.069 0 0.661 0.536 1.197 1.197 1.197 0.024 0 0.049-0.001 0.073-0.002l-0.003 0 2.168 2.17c0.145 0.145 0.345 0.235 0.566 0.235 0.442 0 0.801-0.359 0.801-0.801 0-0.221-0.090-0.421-0.235-0.566l-24-24zM20.469 21.6h-10.469c-1.546 0-2.8-1.254-2.8-2.8s1.254-2.8 2.8-2.8v0h4.869l5.6 5.6zM22 13.6h-5.006l2.4 2.4h2.606c2.872 0 5.2-2.328 5.2-5.2s-2.328-5.2-5.2-5.2v0h-13.006l2.4 2.4h10.606c1.546 0 2.8 1.254 2.8 2.8s-1.254 2.8-2.8 2.8v0zM27.746 24.352l-3.725-3.725c-0.014-0.068-0.022-0.147-0.022-0.227 0-0.663 0.537-1.2 1.2-1.2 0.332 0 0.632 0.134 0.849 0.352l2.4 2.4c0.217 0.217 0.351 0.517 0.351 0.848s-0.134 0.631-0.351 0.848l-0.702 0.704z"></path>
</svg>
