<!-- Generated by IcoMoon.io -->
<svg version="1.1" xmlns="http://www.w3.org/2000/svg" width="32" height="32" viewBox="0 0 32 32">
<title>arrow-shuffle-off-filled</title>
<path d="M25.070 26.249l2.841 2.84c0.15 0.145 0.354 0.234 0.579 0.234 0.46 0 0.833-0.373 0.833-0.833 0-0.225-0.089-0.429-0.234-0.579l0 0-25-25c-0.151-0.151-0.359-0.244-0.589-0.244-0.46 0-0.833 0.373-0.833 0.833 0 0.23 0.093 0.438 0.244 0.589l6.541 6.541c-1.613-0.79-3.492-1.297-5.785-1.297-0.552 0-1 0.448-1 1s0.448 1 1 1v0c3.854 0 6.297 1.633 8.603 3.748 0.249-0.241 0.502-0.489 0.76-0.743l0.065-0.065 0.943 0.943-0.016 0.016-0.057 0.056c-2.884 2.842-5.496 5.379-10.298 5.379-0.552 0-1 0.448-1 1s0.448 1 1 1v0c5.66 0 8.795-3.089 11.645-5.899l0.057-0.056 0.083-0.082 0.943 0.943-0.090 0.089-0.671 0.66c1.389 1.283 2.924 2.495 4.821 3.311l3.297 3.297c-0.054 0.119-0.085 0.258-0.085 0.404 0 0.552 0.448 1 1 1 0.146 0 0.285-0.031 0.41-0.088l-0.006 0.003zM24.107 20.571l3.368 3.368 1.566-1.565c0.181-0.181 0.293-0.431 0.293-0.707s-0.112-0.526-0.293-0.707l-3.667-3.667c-0.181-0.181-0.431-0.293-0.707-0.293-0.552 0-1 0.448-1 1 0 0.276 0.112 0.526 0.293 0.707l1.961 1.959h-0.253c-0.547 0-1.067-0.033-1.56-0.095zM16.469 12.933l1.42 1.42c2.077-1.749 4.379-3.020 7.777-3.020h0.253l-1.96 1.96c-0.174 0.18-0.28 0.425-0.28 0.694 0 0.552 0.448 1 1 1 0.27 0 0.515-0.107 0.695-0.281l-0 0 3.667-3.667c0.181-0.181 0.292-0.431 0.292-0.707s-0.112-0.526-0.292-0.707v0l-3.667-3.667c-0.18-0.174-0.425-0.281-0.695-0.281-0.552 0-1 0.448-1 1 0 0.27 0.107 0.515 0.281 0.695l1.96 1.96h-0.253c-4.113 0-6.892 1.631-9.197 3.6z"></path>
</svg>
