<!-- Generated by IcoMoon.io -->
<svg version="1.1" xmlns="http://www.w3.org/2000/svg" width="32" height="32" viewBox="0 0 32 32">
<title>arrow-bounce-filled</title>
<path d="M14.667 9.333c0-0.736-0.597-1.333-1.333-1.333v0h-9.333c-0.736 0-1.333 0.597-1.333 1.333v0 9.333c0 0.736 0.597 1.333 1.333 1.333s1.333-0.597 1.333-1.333v0-6.115l10.724 10.724c0.241 0.241 0.575 0.39 0.943 0.39s0.701-0.149 0.943-0.39l11-11c0.232-0.24 0.374-0.566 0.374-0.926 0-0.736-0.597-1.333-1.333-1.333-0.36 0-0.687 0.143-0.927 0.375l-10.057 10.057-9.781-9.781h6.115c0.736 0 1.333-0.597 1.333-1.333v0z"></path>
</svg>
