<!-- Generated by IcoMoon.io -->
<svg version="1.1" xmlns="http://www.w3.org/2000/svg" width="32" height="32" viewBox="0 0 32 32">
<title>arrow-up-left-filled</title>
<path d="M15.334 4.003l-10.074 0.002-0.161 0.019-0.117 0.026-0.139 0.046-0.119 0.054-0.085 0.048-0.083 0.055-0.085 0.067-0.084 0.078-0.126 0.146-0.096 0.148-0.071 0.15-0.047 0.14-0.021 0.087-0.012 0.070-0.015 0.198v10.005c0 0.736 0.597 1.333 1.333 1.333 0.684 0 1.247-0.515 1.324-1.178l0.009-0.156 0-6.786 19.056 19.056c0.481 0.481 1.237 0.518 1.76 0.111l0.126-0.111c0.481-0.481 0.518-1.237 0.111-1.76l-0.111-0.126-19.055-19.055h6.782c0.684 0 1.247-0.515 1.324-1.178l0.009-0.155c0-0.736-0.597-1.333-1.333-1.333z"></path>
</svg>
