<!-- Generated by IcoMoon.io -->
<svg version="1.1" xmlns="http://www.w3.org/2000/svg" width="32" height="32" viewBox="0 0 32 32">
<title>arrow-hook-down-left-filled</title>
<path d="M9.333 6.667c0-0.736 0.597-1.333 1.333-1.333h6.667c2.99 0 5.348 1.037 6.957 2.697 1.594 1.644 2.376 3.819 2.376 5.97s-0.782 4.326-2.376 5.97c-1.609 1.66-3.967 2.697-6.957 2.697h-6.114l2.724 2.724c0.521 0.521 0.521 1.365 0 1.886s-1.365 0.521-1.886 0l-5-5c-0.521-0.521-0.521-1.365 0-1.886l5-5c0.521-0.521 1.365-0.521 1.886 0s0.521 1.365 0 1.886l-2.724 2.724h6.114c2.343 0 3.986-0.796 5.043-1.887 1.072-1.106 1.624-2.597 1.624-4.113s-0.551-3.008-1.624-4.113c-1.057-1.090-2.699-1.887-5.043-1.887h-6.667c-0.736 0-1.333-0.597-1.333-1.333z"></path>
</svg>
