<!-- Generated by IcoMoon.io -->
<svg version="1.1" xmlns="http://www.w3.org/2000/svg" width="32" height="32" viewBox="0 0 32 32">
<title>arrow-collapse-all-filled</title>
<path d="M2.667 6.667c0-0.736 0.597-1.333 1.333-1.333v0h24c0.736 0 1.333 0.597 1.333 1.333s-0.597 1.333-1.333 1.333v0h-24c-0.736 0-1.333-0.597-1.333-1.333v0zM8.391 11.057c0.241-0.241 0.575-0.39 0.943-0.39s0.701 0.149 0.943 0.39l4 4c0.232 0.24 0.374 0.566 0.374 0.926 0 0.736-0.597 1.333-1.333 1.333-0.36 0-0.687-0.143-0.927-0.375l-1.724-1.724v10.115c0 0.736-0.597 1.333-1.333 1.333s-1.333-0.597-1.333-1.333v0-10.115l-1.724 1.724c-0.24 0.232-0.566 0.374-0.926 0.374-0.736 0-1.333-0.597-1.333-1.333 0-0.36 0.143-0.687 0.375-0.927l4-4zM28 13.333h-12c-0.736 0-1.333-0.597-1.333-1.333s0.597-1.333 1.333-1.333v0h12c0.736 0 1.333 0.597 1.333 1.333s-0.597 1.333-1.333 1.333v0z"></path>
</svg>
