<!-- Generated by IcoMoon.io -->
<svg version="1.1" xmlns="http://www.w3.org/2000/svg" width="32" height="32" viewBox="0 0 32 32">
<title>arrow-enter-left-filled</title>
<path d="M28 5.333c0.681 0 1.243 0.511 1.323 1.171l0.001 0.006 0.009 0.156v8.667c0 0 0 0 0 0 0 2.487-1.946 4.52-4.398 4.659l-0.012 0.001-0.256 0.007h-17.447l4.389 4.391c0.241 0.241 0.39 0.575 0.39 0.943 0 0.309-0.105 0.594-0.282 0.82l0.002-0.003-0.111 0.125c-0.241 0.241-0.575 0.39-0.943 0.39-0.309 0-0.594-0.105-0.82-0.282l0.003 0.002-0.125-0.111-6.667-6.667c-0.046-0.046-0.088-0.094-0.127-0.146l-0.002-0.003-0.095-0.147-0.072-0.152-0.047-0.14-0.033-0.156-0.009-0.080-0.005-0.119 0.004-0.1 0.023-0.168 0.040-0.148 0.059-0.148 0.069-0.131 0.085-0.123 0.111-0.125 6.667-6.667c0.241-0.24 0.574-0.389 0.941-0.389 0.736 0 1.333 0.597 1.333 1.333 0 0.309-0.105 0.593-0.281 0.819l0.002-0.003-0.111 0.125-4.389 4.391h17.447c0 0 0 0 0 0 1.037 0 1.889-0.788 1.99-1.798l0.001-0.008 0.009-0.193v-8.667c0-0.736 0.597-1.333 1.333-1.333v0z"></path>
</svg>
