<!-- Generated by IcoMoon.io -->
<svg version="1.1" xmlns="http://www.w3.org/2000/svg" width="32" height="32" viewBox="0 0 32 32">
<title>arrow-autofit-width-dotted-filled</title>
<path d="M26.677 8.667c0-1.841-1.492-3.333-3.333-3.333h-14.667c-1.841 0-3.333 1.492-3.333 3.333v5.333c0 0.736 0.597 1.333 1.333 1.333s1.333-0.597 1.333-1.333v-5.333c0-0.368 0.298-0.667 0.667-0.667h14.667c0.368 0 0.667 0.298 0.667 0.667v5.333c0 0.736 0.597 1.333 1.333 1.333s1.333-0.597 1.333-1.333v-5.333zM24.276 26.276l3.333-3.333c0.521-0.521 0.521-1.365 0-1.886l-3.333-3.333c-0.521-0.521-1.365-0.521-1.886 0s-0.521 1.365 0 1.886l2.391 2.391-2.391 2.391c-0.521 0.521-0.521 1.365 0 1.886s1.365 0.521 1.886 0zM4.391 21.057c-0.521 0.521-0.521 1.365 0 1.886l3.333 3.333c0.521 0.521 1.365 0.521 1.886 0s0.521-1.365 0-1.886l-2.391-2.391 2.391-2.391c0.521-0.521 0.521-1.365 0-1.886s-1.365-0.521-1.886 0l-3.333 3.333zM17.333 22c0-0.736-0.597-1.333-1.333-1.333s-1.333 0.597-1.333 1.333c0 0.736 0.597 1.333 1.333 1.333s1.333-0.597 1.333-1.333zM12 20.667c0.736 0 1.333 0.597 1.333 1.333s-0.597 1.333-1.333 1.333h-1.333c-0.736 0-1.333-0.597-1.333-1.333s0.597-1.333 1.333-1.333h1.333zM22.667 22c0-0.736-0.597-1.333-1.333-1.333h-1.333c-0.736 0-1.333 0.597-1.333 1.333s0.597 1.333 1.333 1.333h1.333c0.736 0 1.333-0.597 1.333-1.333z"></path>
</svg>
