<!-- Generated by IcoMoon.io -->
<svg version="1.1" xmlns="http://www.w3.org/2000/svg" width="32" height="32" viewBox="0 0 32 32">
<title>arrow-clockwise-dashes-filled</title>
<path d="M16 3.667c-0.877 0-1.736 0.092-2.564 0.267-0.608 0.132-1.058 0.666-1.058 1.305 0 0.737 0.597 1.334 1.334 1.334 0.098 0 0.193-0.011 0.285-0.030l-0.009 0.002c0.605-0.134 1.299-0.211 2.012-0.211s1.407 0.077 2.076 0.222l-0.064-0.012c0.083 0.018 0.178 0.029 0.276 0.029 0.736 0 1.334-0.597 1.334-1.334 0-0.639-0.449-1.173-1.049-1.303l-0.009-0.002c-0.768-0.17-1.65-0.267-2.555-0.267-0.003 0-0.006 0-0.009 0h0zM23.667 6.339v-0.672c0-0.736 0.597-1.333 1.333-1.333s1.333 0.597 1.333 1.333v0 4c0 0.736-0.597 1.333-1.333 1.333v0h-4c-0.736 0-1.333-0.597-1.333-1.333s0.597-1.333 1.333-1.333v0h0.889c-0.175-0.137-0.379-0.282-0.589-0.42l-0.037-0.023c-0.376-0.24-0.621-0.655-0.621-1.127 0-0.736 0.597-1.333 1.333-1.333 0.277 0 0.534 0.084 0.747 0.229l-0.005-0.003c0.327 0.213 0.644 0.44 0.948 0.683zM11.125 6.045c-0.242-0.367-0.651-0.605-1.117-0.605-0.27 0-0.522 0.080-0.732 0.219l0.005-0.003c-1.458 0.958-2.667 2.168-3.596 3.579l-0.029 0.047c-0.123 0.198-0.196 0.439-0.196 0.696 0 0.736 0.597 1.333 1.333 1.333 0.453 0 0.854-0.226 1.095-0.572l0.003-0.004c0.752-1.143 1.701-2.092 2.809-2.821l0.037-0.023c0.367-0.242 0.605-0.651 0.605-1.117 0-0.27-0.081-0.522-0.219-0.732l0.003 0.005zM5.515 12.409c-0.083-0.018-0.179-0.029-0.277-0.029-0.639 0-1.172 0.449-1.303 1.048l-0.002 0.009c-0.171 0.771-0.268 1.656-0.268 2.564s0.098 1.793 0.283 2.646l-0.015-0.082c0.132 0.608 0.666 1.058 1.305 1.058 0.737 0 1.334-0.597 1.334-1.334 0-0.098-0.011-0.193-0.030-0.285l0.002 0.009c-0.134-0.605-0.211-1.299-0.211-2.012s0.077-1.407 0.222-2.076l-0.012 0.064c0.018-0.083 0.029-0.178 0.029-0.276 0-0.638-0.449-1.172-1.048-1.303l-0.009-0.002zM27 13.668c-0.736 0-1.333 0.597-1.333 1.333v0 0.999c0 0.002 0 0.004 0 0.006 0 0.711-0.076 1.403-0.221 2.070l0.012-0.064c-0.018 0.083-0.029 0.178-0.029 0.276 0 0.736 0.597 1.334 1.334 1.334 0.639 0 1.173-0.449 1.303-1.049l0.002-0.009c0.175-0.828 0.267-1.687 0.267-2.564v-1c0-0.736-0.597-1.333-1.333-1.333v0zM25.953 20.876c-0.205-0.135-0.457-0.216-0.727-0.216-0.465 0-0.875 0.239-1.114 0.6l-0.003 0.005c-0.752 1.144-1.701 2.093-2.809 2.823l-0.037 0.023c-0.358 0.243-0.591 0.648-0.591 1.107 0 0.736 0.597 1.333 1.333 1.333 0.264 0 0.51-0.077 0.717-0.209l-0.005 0.003c1.458-0.958 2.667-2.168 3.596-3.579l0.029-0.047c0.135-0.205 0.215-0.456 0.215-0.727 0-0.466-0.239-0.876-0.601-1.114l-0.005-0.003zM7.891 21.265c-0.243-0.358-0.648-0.591-1.107-0.591-0.736 0-1.333 0.597-1.333 1.333 0 0.264 0.077 0.51 0.209 0.717l-0.003-0.005c0.958 1.458 2.168 2.667 3.579 3.596l0.047 0.029c0.211 0.148 0.474 0.236 0.757 0.236 0.736 0 1.333-0.597 1.333-1.333 0-0.479-0.252-0.899-0.631-1.134l-0.006-0.003c-1.143-0.752-2.092-1.701-2.821-2.809l-0.023-0.037zM13.988 25.459c-0.083-0.018-0.178-0.029-0.276-0.029-0.736 0-1.334 0.597-1.334 1.334 0 0.639 0.449 1.173 1.049 1.303l0.009 0.002c0.771 0.171 1.656 0.268 2.564 0.268s1.793-0.098 2.646-0.283l-0.082 0.015c0.608-0.132 1.058-0.666 1.058-1.305 0-0.736-0.597-1.334-1.334-1.334-0.098 0-0.193 0.011-0.285 0.030l0.009-0.002c-0.605 0.134-1.299 0.211-2.012 0.211s-1.407-0.077-2.076-0.222l0.064 0.012z"></path>
</svg>
