<!-- Generated by IcoMoon.io -->
<svg version="1.1" xmlns="http://www.w3.org/2000/svg" width="32" height="32" viewBox="0 0 32 32">
<title>arrow-rotate-clockwise-filled</title>
<path d="M16 4c6.627 0 12 5.373 12 12 0 4.581-2.589 8.651-6.498 10.668l2.498-0.001c0.736 0 1.333 0.597 1.333 1.333 0 0.684-0.515 1.247-1.178 1.324l-0.155 0.009h-5.333c-0.684 0-1.247-0.515-1.324-1.178l-0.009-0.155v-5.333c0-0.736 0.597-1.333 1.333-1.333 0.684 0 1.247 0.515 1.324 1.178l0.009 0.155 0.002 1.769c3.194-1.515 5.331-4.765 5.331-8.436 0-5.155-4.179-9.333-9.333-9.333s-9.333 4.179-9.333 9.333c0 0.736-0.597 1.333-1.333 1.333s-1.333-0.597-1.333-1.333c0-6.627 5.373-12 12-12zM16 12c2.209 0 4 1.791 4 4s-1.791 4-4 4c-2.209 0-4-1.791-4-4s1.791-4 4-4zM16 14.667c-0.736 0-1.333 0.597-1.333 1.333s0.597 1.333 1.333 1.333c0.736 0 1.333-0.597 1.333-1.333s-0.597-1.333-1.333-1.333z"></path>
</svg>
