<!-- Generated by IcoMoon.io -->
<svg version="1.1" xmlns="http://www.w3.org/2000/svg" width="32" height="32" viewBox="0 0 32 32">
<title>arrow-curve-down-right-filled</title>
<path d="M10.582 5.029c-0.357-0.212-0.593-0.596-0.593-1.035 0-0.663 0.537-1.2 1.2-1.2 0.232 0 0.449 0.066 0.633 0.18l-0.005-0.003c2.155 1.293 3.744 2.856 4.768 5.016 1.008 2.128 1.414 4.728 1.414 8.013v8.704l4.352-4.352c0.22-0.235 0.532-0.382 0.878-0.382 0.663 0 1.2 0.537 1.2 1.2 0 0.346-0.147 0.658-0.381 0.877l-0.001 0.001-6.4 6.4c-0.217 0.217-0.517 0.351-0.848 0.351s-0.631-0.134-0.848-0.351v0l-6.4-6.4c-0.2-0.214-0.322-0.502-0.322-0.818 0-0.663 0.537-1.2 1.2-1.2 0.316 0 0.604 0.123 0.819 0.323l-0.001-0.001 4.352 4.352v-8.704c0-3.115-0.392-5.314-1.184-6.986-0.778-1.642-1.989-2.878-3.834-3.984z"></path>
</svg>
