<!-- Generated by IcoMoon.io -->
<svg version="1.1" xmlns="http://www.w3.org/2000/svg" width="32" height="32" viewBox="0 0 32 32">
<title>arrow-expand-filled</title>
<path d="M10.225 19.897c0.24-0.232 0.566-0.374 0.926-0.374 0.736 0 1.333 0.597 1.333 1.333 0 0.36-0.143 0.687-0.375 0.927l-3.557 3.556h2.113c0.682 0 1.244 0.512 1.323 1.172l0.001 0.006 0.009 0.155c0 0.736-0.597 1.333-1.333 1.333v0h-5.333c-0.736 0-1.333-0.597-1.333-1.333v0-5.333c0-0.736 0.597-1.333 1.333-1.333s1.333 0.597 1.333 1.333v0 2.116l3.559-3.557zM21.34 28.005c-0.736 0-1.333-0.597-1.333-1.333s0.597-1.333 1.333-1.333v0h2.111l-3.553-3.556c-0.241-0.241-0.39-0.575-0.39-0.943 0-0.309 0.105-0.594 0.282-0.82l-0.002 0.003 0.111-0.125c0.241-0.241 0.575-0.39 0.943-0.39s0.701 0.149 0.943 0.39v0l3.557 3.56v-2.119c0-0.681 0.511-1.243 1.171-1.323l0.006-0.001 0.156-0.009c0.736 0 1.333 0.597 1.333 1.333v0 5.333c0 0.736-0.597 1.333-1.333 1.333v0h-5.333zM10.667 4c0.736 0 1.333 0.597 1.333 1.333s-0.597 1.333-1.333 1.333v0h-2.111l3.553 3.557c0.241 0.241 0.39 0.575 0.39 0.943 0 0.309-0.105 0.594-0.282 0.82l0.002-0.003-0.111 0.125c-0.241 0.241-0.575 0.39-0.943 0.39s-0.701-0.149-0.943-0.39v0l-3.557-3.56v2.117c-0 0.681-0.511 1.243-1.171 1.323l-0.006 0.001-0.156 0.009c-0.736 0-1.333-0.597-1.333-1.333v0-5.333c0-0.736 0.597-1.333 1.333-1.333v0h5.333zM26.673 4c0.736 0 1.333 0.597 1.333 1.333v0 5.333c0 0.736-0.597 1.333-1.333 1.333s-1.333-0.597-1.333-1.333v0-2.117l-3.557 3.56c-0.241 0.241-0.575 0.39-0.943 0.39-0.309 0-0.594-0.105-0.82-0.282l0.003 0.002-0.125-0.111c-0.241-0.241-0.39-0.575-0.39-0.943s0.149-0.701 0.39-0.943l3.555-3.557h-2.112c-0.681-0-1.243-0.511-1.323-1.171l-0.001-0.006-0.009-0.156c0-0.736 0.597-1.333 1.333-1.333v0h5.333z"></path>
</svg>
