<!-- Generated by IcoMoon.io -->
<svg version="1.1" xmlns="http://www.w3.org/2000/svg" width="32" height="32" viewBox="0 0 32 32">
<title>arrow-export-up-filled</title>
<path d="M16.943 3.057c-0.521-0.521-1.365-0.521-1.886 0l-6.667 6.667c-0.521 0.521-0.521 1.365 0 1.886s1.365 0.521 1.886 0l4.391-4.391v16.781c0 0.736 0.597 1.333 1.333 1.333s1.333-0.597 1.333-1.333v-16.781l4.391 4.391c0.521 0.521 1.365 0.521 1.886 0s0.521-1.365 0-1.886l-6.667-6.667zM7 27.333c-0.552 0-1 0.448-1 1s0.448 1 1 1h18c0.552 0 1-0.448 1-1s-0.448-1-1-1h-18z"></path>
</svg>
