<!-- Generated by IcoMoon.io -->
<svg version="1.1" xmlns="http://www.w3.org/2000/svg" width="32" height="32" viewBox="0 0 32 32">
<title>arrow-autofit-content-filled</title>
<path d="M8.086 6.992c0.364-0.416 0.322-1.047-0.094-1.411s-1.047-0.322-1.411 0.094l-2.333 2.667c-0.33 0.377-0.33 0.94 0 1.317l2.333 2.667c0.364 0.416 0.995 0.458 1.411 0.094s0.458-0.995 0.094-1.411l-0.882-1.008h3.816c0.552 0 1-0.448 1-1s-0.448-1-1-1h-3.816l0.882-1.008zM24.028 5.581c-0.416 0.364-0.458 0.995-0.094 1.411l0.882 1.008h-3.816c-0.552 0-1 0.448-1 1s0.448 1 1 1h3.816l-0.882 1.008c-0.364 0.416-0.322 1.047 0.094 1.411s1.047 0.322 1.411-0.094l2.333-2.667c0.33-0.377 0.33-0.94 0-1.317l-2.333-2.667c-0.364-0.416-0.995-0.458-1.411-0.094zM7.667 14.667c-2.025 0-3.667 1.642-3.667 3.667v5.333c0 2.025 1.642 3.667 3.667 3.667h16.667c2.025 0 3.667-1.642 3.667-3.667v-5.333c0-2.025-1.642-3.667-3.667-3.667h-16.667zM8 21c0-0.552 0.448-1 1-1h14c0.552 0 1 0.448 1 1s-0.448 1-1 1h-14c-0.552 0-1-0.448-1-1z"></path>
</svg>
