<!-- Generated by IcoMoon.io -->
<svg version="1.1" xmlns="http://www.w3.org/2000/svg" width="32" height="32" viewBox="0 0 32 32">
<title>arrow-forward-filled</title>
<path d="M19.061 21.726c-0.52 0.521-0.52 1.365 0.001 1.886s1.365 0.52 1.886-0.001l6.662-6.671c0.52-0.521 0.52-1.364-0.001-1.885l-6.662-6.663c-0.521-0.521-1.365-0.521-1.886-0s-0.521 1.365-0 1.886l4.39 4.391h-8.785c-5.78 0-10.486 4.597-10.662 10.334l-0.005 0.332c0 0.736 0.597 1.333 1.333 1.333s1.333-0.597 1.333-1.333c0-4.318 3.421-7.837 7.7-7.995l0.3-0.005h8.781l-4.387 4.393z"></path>
</svg>
