<!-- Generated by IcoMoon.io -->
<svg version="1.1" xmlns="http://www.w3.org/2000/svg" width="32" height="32" viewBox="0 0 32 32">
<title>arrow-routing-rectangle-multiple-filled</title>
<path d="M24.946 3.056c-0.521-0.52-1.365-0.52-1.886 0.002s-0.52 1.365 0.002 1.886l1.722 1.719h-7.456c-2.209 0-4 1.791-4 4v11.999c0 0.736-0.597 1.333-1.333 1.333h-1.557c-0.551-1.551-2.031-2.661-3.77-2.661-2.209 0-4 1.791-4 4s1.791 4 4 4c1.744 0 3.227-1.116 3.774-2.672h1.553c2.209 0 4-1.791 4-4v-11.999c0-0.736 0.597-1.333 1.333-1.333h7.452l-1.727 1.721c-0.522 0.52-0.523 1.364-0.003 1.886s1.364 0.523 1.886 0.003l4.012-3.999c0.251-0.25 0.392-0.59 0.392-0.944s-0.141-0.694-0.391-0.944l-4.002-3.996zM18.667 21.333c0-0.736 0.597-1.333 1.333-1.333h6.667c0.736 0 1.333 0.597 1.333 1.333v5.333c0 0.736-0.597 1.333-1.333 1.333h-6.667c-0.736 0-1.333-0.597-1.333-1.333v-5.333zM30.667 23.333c0-0.368-0.299-0.667-0.667-0.667s-0.667 0.299-0.667 0.667v4c0 1.105-0.895 2-2 2h-5.333c-0.368 0-0.667 0.299-0.667 0.667s0.299 0.667 0.667 0.667h5.333c1.841 0 3.333-1.492 3.333-3.333v-4z"></path>
</svg>
