<!-- Generated by IcoMoon.io -->
<svg version="1.1" xmlns="http://www.w3.org/2000/svg" width="32" height="32" viewBox="0 0 32 32">
<title>arrow-enter-filled</title>
<path d="M12.4 28c-0.663 0-1.2-0.537-1.2-1.2s0.537-1.2 1.2-1.2v0h10c1.767 0 3.2-1.433 3.2-3.2v0-12.8c0-1.767-1.433-3.2-3.2-3.2v0h-10c-0.663 0-1.2-0.537-1.2-1.2s0.537-1.2 1.2-1.2v0h10c3.093 0 5.6 2.507 5.6 5.6v0 12.8c0 3.093-2.507 5.6-5.6 5.6v0h-10zM12.386 9.918c0.213-0.197 0.5-0.319 0.814-0.319 0.348 0 0.662 0.148 0.881 0.385l0.001 0.001 4.8 5.2c0.198 0.213 0.319 0.5 0.319 0.814s-0.121 0.601-0.319 0.815l0.001-0.001-4.8 5.2c-0.22 0.237-0.533 0.385-0.881 0.385-0.663 0-1.2-0.537-1.2-1.2 0-0.315 0.121-0.602 0.32-0.816l-0.001 0.001 2.941-3.186h-12.461c-0.663 0-1.2-0.537-1.2-1.2s0.537-1.2 1.2-1.2v0h12.459l-2.941-3.184c-0.197-0.213-0.319-0.5-0.319-0.814 0-0.348 0.148-0.662 0.385-0.881l0.001-0.001z"></path>
</svg>
