<!-- Generated by IcoMoon.io -->
<svg version="1.1" xmlns="http://www.w3.org/2000/svg" width="32" height="32" viewBox="0 0 32 32">
<title>arrow-sort-filled</title>
<path d="M9.545 4.584l0.066-0.008 0.103-0.005 0.086 0.003 0.144 0.019 0.127 0.034 0.127 0.050 0.112 0.059 0.119 0.085 0.094 0.083 6.286 6.286c0.206 0.207 0.333 0.492 0.333 0.807 0 0.631-0.512 1.143-1.143 1.143-0.264 0-0.508-0.090-0.702-0.241l0.003 0.002-0.107-0.095-4.335-4.334v17.811c-0.001 0.631-0.512 1.142-1.143 1.142-0.584 0-1.065-0.437-1.134-1.002l-0.001-0.006-0.008-0.134v-17.811l-4.335 4.334c-0.207 0.207-0.493 0.335-0.808 0.335-0.265 0-0.509-0.090-0.703-0.242l0.003 0.002-0.107-0.095c-0.207-0.207-0.335-0.492-0.335-0.808 0-0.265 0.090-0.509 0.242-0.703l-0.002 0.003 0.095-0.107 6.286-6.286c0.039-0.039 0.081-0.075 0.125-0.109l0.003-0.002 0.126-0.081 0.13-0.062 0.12-0.040 0.135-0.029zM22.286 4.571c0.584 0 1.066 0.438 1.134 1.004l0.001 0.005 0.008 0.134v17.811l4.335-4.334 0.107-0.095c0.191-0.149 0.435-0.24 0.7-0.24 0.631 0 1.143 0.512 1.143 1.143 0 0.265-0.090 0.509-0.241 0.703l0.002-0.003-0.095 0.107-6.336 6.333-0.078 0.064-0.126 0.081-0.13 0.062-0.12 0.040-0.134 0.029-0.103 0.011h-0.135l-0.069-0.007-0.13-0.023-0.125-0.038-0.093-0.039-0.112-0.059-0.11-0.077c-0.038-0.030-0.071-0.060-0.103-0.091l-6.286-6.286-0.095-0.107c-0.15-0.191-0.24-0.435-0.24-0.701s0.090-0.509 0.242-0.703l-0.002 0.003 0.095-0.107 0.107-0.095c0.191-0.15 0.435-0.24 0.701-0.24s0.509 0.090 0.703 0.242l-0.003-0.002 0.107 0.095 4.335 4.334v-17.811l0.008-0.134c0.069-0.571 0.551-1.009 1.135-1.009v0z"></path>
</svg>
