<!-- Generated by IcoMoon.io -->
<svg version="1.1" xmlns="http://www.w3.org/2000/svg" width="32" height="32" viewBox="0 0 32 32">
<title>arrow-forward-down-person-filled</title>
<path d="M21.728 7.608c-0.241-0.241-0.39-0.575-0.39-0.943 0-0.737 0.597-1.334 1.334-1.334 0.368 0 0.702 0.149 0.943 0.391l6.663 6.672c0.241 0.241 0.39 0.574 0.39 0.942s-0.149 0.701-0.39 0.942l-6.663 6.664c-0.241 0.242-0.575 0.391-0.943 0.391-0.737 0-1.334-0.597-1.334-1.334 0-0.368 0.149-0.701 0.39-0.943v0l4.392-4.391h-8.787c-5.774-0-10.476-4.588-10.661-10.316l-0-0.017-0.005-0.333c0-0.736 0.597-1.333 1.333-1.333s1.333 0.597 1.333 1.333v0c0 0 0 0 0 0 0 4.313 3.413 7.828 7.685 7.994l0.015 0 0.3 0.005h8.781l-4.387-4.392zM12 18c0 1.841-1.492 3.333-3.333 3.333s-3.333-1.492-3.333-3.333v0c0-1.841 1.492-3.333 3.333-3.333s3.333 1.492 3.333 3.333v0zM14.667 25.167c0 2.075-1.715 4.167-6 4.167s-6-2.084-6-4.167v-0.137c0-1.307 1.059-2.363 2.364-2.363h7.272c1.307 0 2.364 1.057 2.364 2.363v0.137z"></path>
</svg>
