<!-- Generated by IcoMoon.io -->
<svg version="1.1" xmlns="http://www.w3.org/2000/svg" width="32" height="32" viewBox="0 0 32 32">
<title>arrow-maximize-vertical-filled</title>
<path d="M15.003 2.752c0.176-0.157 0.409-0.252 0.664-0.252s0.488 0.096 0.665 0.253l-0.001-0.001 3.379 3c0.207 0.184 0.336 0.451 0.336 0.748 0 0.552-0.448 1-1 1-0.255 0-0.488-0.096-0.665-0.253l0.001 0.001-1.715-1.523v6.108c0 0.552-0.448 1-1 1s-1-0.448-1-1v0-6.108l-1.715 1.523c-0.176 0.159-0.411 0.256-0.669 0.256-0.552 0-1-0.448-1-1 0-0.299 0.132-0.568 0.34-0.751l0.001-0.001 3.379-3zM16.336 29.243c-0.176 0.159-0.412 0.257-0.669 0.257s-0.493-0.098-0.67-0.258l0.001 0.001-3.333-3c-0.204-0.184-0.331-0.449-0.331-0.743 0-0.552 0.448-1 1-1 0.258 0 0.493 0.098 0.67 0.258l-0.001-0.001 1.664 1.498v-6.088c0-0.552 0.448-1 1-1s1 0.448 1 1v0 6.088l1.665-1.498c0.178-0.167 0.418-0.269 0.682-0.269 0.552 0 1 0.448 1 1 0 0.301-0.133 0.571-0.344 0.755l-0.001 0.001-3.333 3zM5.5 14.833c-0.552 0-1 0.448-1 1s0.448 1 1 1v0h21c0.552 0 1-0.448 1-1s-0.448-1-1-1v0h-21z"></path>
</svg>
