<!-- Generated by IcoMoon.io -->
<svg version="1.1" xmlns="http://www.w3.org/2000/svg" width="32" height="32" viewBox="0 0 32 32">
<title>arrow-circle-up-left-filled</title>
<path d="M16 29.333c7.364 0 13.333-5.97 13.333-13.333s-5.97-13.333-13.333-13.333c-7.364 0-13.333 5.97-13.333 13.333s5.97 13.333 13.333 13.333zM20.333 12.667h-6.321l7.024 6.956c0.392 0.389 0.395 1.022 0.007 1.414s-1.022 0.396-1.414 0.007l-6.963-6.895v6.185c0 0.552-0.448 1-1 1s-1-0.448-1-1v-8.667c0-0.552 0.448-1 1-1h8.667c0.552 0 1 0.448 1 1s-0.448 1-1 1z"></path>
</svg>
