<!-- Generated by IcoMoon.io -->
<svg version="1.1" xmlns="http://www.w3.org/2000/svg" width="32" height="32" viewBox="0 0 32 32">
<title>arrow-fit-filled</title>
<path d="M9.266 10.752c0.216 0.217 0.35 0.517 0.35 0.847 0 0.332-0.135 0.633-0.353 0.85l-0 0-1.957 1.95h5.894c0.663 0 1.2 0.537 1.2 1.2s-0.537 1.2-1.2 1.2v0h-5.904l1.952 1.952c0.235 0.22 0.382 0.532 0.382 0.878 0 0.663-0.537 1.2-1.2 1.2-0.346 0-0.658-0.147-0.877-0.381l-0.001-0.001-4-4c-0.217-0.217-0.352-0.517-0.352-0.849s0.134-0.632 0.352-0.849v0l4.016-4c0.217-0.216 0.517-0.35 0.847-0.35 0.332 0 0.633 0.135 0.85 0.353l0 0zM22.752 10.752c0.217-0.217 0.517-0.351 0.848-0.351s0.631 0.134 0.848 0.351v0l4 4c0.217 0.217 0.351 0.517 0.351 0.848s-0.134 0.631-0.351 0.848v0l-4 4c-0.22 0.235-0.532 0.382-0.878 0.382-0.663 0-1.2-0.537-1.2-1.2 0-0.346 0.147-0.658 0.381-0.877l0.001-0.001 1.952-1.952h-5.904c-0.663 0-1.2-0.537-1.2-1.2s0.537-1.2 1.2-1.2v0h5.904l-1.952-1.952c-0.217-0.217-0.351-0.517-0.351-0.848s0.134-0.631 0.351-0.848v0z"></path>
</svg>
