<!-- Generated by IcoMoon.io -->
<svg version="1.1" xmlns="http://www.w3.org/2000/svg" width="32" height="32" viewBox="0 0 32 32">
<title>arrow-repeat-all-off-filled</title>
<path d="M4.817 2.947l0.125 0.111 24 24c0.24 0.241 0.389 0.574 0.389 0.941 0 0.736-0.597 1.333-1.333 1.333-0.309 0-0.593-0.105-0.819-0.281l0.003 0.002-0.125-0.111-4.091-4.091c-0.746 0.258-1.608 0.427-2.503 0.47l-0.021 0.001-0.441 0.011h-7.461l1.739 1.737 0.103 0.116c0.177 0.224 0.284 0.511 0.284 0.822 0 0.736-0.597 1.333-1.333 1.333-0.307 0-0.589-0.104-0.815-0.278l0.003 0.002-0.127-0.111-4.007-4.007-0.103-0.116c-0.179-0.225-0.287-0.513-0.287-0.826 0-0.309 0.105-0.593 0.281-0.819l-0.002 0.003 0.111-0.127 4.007-4.007 0.117-0.104c0.225-0.179 0.513-0.287 0.826-0.287 0.309 0 0.593 0.105 0.819 0.281l-0.003-0.002 0.127 0.112 0.103 0.116c0.179 0.225 0.287 0.513 0.287 0.826 0 0.309-0.105 0.593-0.281 0.819l0.002-0.003-0.111 0.127-1.725 1.723h7.448c0.249 0 0.496-0.013 0.737-0.040l-12.276-12.277c-1.892 1.197-3.131 3.278-3.131 5.649 0 0.002 0 0.003 0 0.005v-0c0 1.224 0.331 2.372 0.907 3.359l0.18 0.291c0.156 0.215 0.249 0.485 0.249 0.776 0 0.737-0.597 1.334-1.334 1.334-0.445 0-0.84-0.218-1.082-0.554l-0.003-0.004c-0.992-1.454-1.584-3.249-1.584-5.182 0-0.007 0-0.014 0-0.021v0.001c0-0.002 0-0.004 0-0.006 0-3.104 1.517-5.853 3.85-7.547l0.027-0.019-3.487-3.485c-0.244-0.242-0.395-0.577-0.395-0.947 0-0.736 0.597-1.333 1.333-1.333 0.311 0 0.598 0.107 0.825 0.285l-0.003-0.002zM26.667 10.241c0.427 0 0.804 0.2 1.049 0.509l0.071 0.1 0.023 0.036c0.955 1.436 1.524 3.2 1.524 5.097 0 0.006 0 0.013-0 0.019v-0.001c0 2.636-1.093 5.016-2.851 6.713l-1.887-1.885c1.277-1.214 2.071-2.924 2.071-4.821 0-0.003 0-0.005 0-0.008v0c0-1.235-0.336-2.391-0.92-3.383l-0.184-0.293c-0.144-0.21-0.23-0.469-0.23-0.748 0-0.736 0.597-1.333 1.333-1.333 0 0 0 0 0 0v0zM19.5 2.948l0.116 0.103 4.008 4.007c0.241 0.241 0.39 0.574 0.39 0.942 0 0.314-0.108 0.602-0.29 0.83l0.002-0.003-0.104 0.116-4.007 4.008c-0.241 0.242-0.575 0.392-0.944 0.392-0.736 0-1.333-0.597-1.333-1.333 0-0.314 0.109-0.603 0.29-0.831l-0.002 0.003 0.104-0.117 1.729-1.731h-6.359l-2.553-2.553c0.371-0.057 0.747-0.093 1.131-0.107l0.32-0.005h7.464l-1.732-1.731c-0.241-0.241-0.391-0.575-0.391-0.943 0-0.313 0.108-0.601 0.289-0.829l-0.002 0.003 0.104-0.116c0.241-0.241 0.575-0.391 0.943-0.391 0.313 0 0.601 0.108 0.829 0.289l-0.003-0.002z"></path>
</svg>
