<!-- Generated by IcoMoon.io -->
<svg version="1.1" xmlns="http://www.w3.org/2000/svg" width="32" height="32" viewBox="0 0 32 32">
<title>arrow-circle-up-filled</title>
<path d="M29.334 16.001c0-7.364-5.969-13.333-13.333-13.333s-13.333 5.97-13.333 13.333c0 7.364 5.97 13.333 13.333 13.333s13.333-5.97 13.333-13.333zM9.96 16.375c-0.355-0.355-0.387-0.911-0.097-1.302l0.097-0.112 5.334-5.334c0.355-0.355 0.911-0.387 1.302-0.097l0.112 0.097 5.333 5.335c0.391 0.391 0.39 1.024-0 1.414-0.355 0.355-0.911 0.387-1.302 0.097l-0.112-0.097-3.628-3.629 0 8.922c0 0.506-0.376 0.925-0.864 0.991l-0.136 0.009c-0.506 0-0.925-0.376-0.991-0.864l-0.009-0.136-0-8.92-3.626 3.626c-0.355 0.355-0.911 0.387-1.302 0.097l-0.112-0.097z"></path>
</svg>
