<!-- Generated by IcoMoon.io -->
<svg version="1.1" xmlns="http://www.w3.org/2000/svg" width="32" height="32" viewBox="0 0 32 32">
<title>arrow-enter-up-filled</title>
<path d="M26.667 28c-0 0.681-0.511 1.243-1.171 1.323l-0.006 0.001-0.156 0.009h-8.667c-0 0-0 0-0 0-2.487 0-4.52-1.946-4.659-4.398l-0.001-0.012-0.007-0.256v-17.447l-4.391 4.389c-0.241 0.241-0.575 0.39-0.943 0.39-0.309 0-0.594-0.105-0.82-0.282l0.003 0.002-0.125-0.111c-0.241-0.241-0.39-0.575-0.39-0.943 0-0.309 0.105-0.594 0.282-0.82l-0.002 0.003 0.111-0.125 6.667-6.667c0.046-0.046 0.094-0.088 0.146-0.127l0.003-0.002 0.147-0.095 0.152-0.072 0.14-0.047 0.157-0.033 0.077-0.009 0.12-0.005 0.1 0.004 0.168 0.023 0.148 0.040 0.148 0.059 0.131 0.069 0.123 0.085 0.125 0.111 6.667 6.667c0.24 0.241 0.389 0.574 0.389 0.941 0 0.736-0.597 1.333-1.333 1.333-0.309 0-0.593-0.105-0.819-0.281l0.003 0.002-0.125-0.111-4.391-4.389v17.447c0 0 0 0 0 0 0 1.037 0.788 1.889 1.798 1.99l0.008 0.001 0.193 0.009h8.667c0.736 0 1.333 0.597 1.333 1.333v0z"></path>
</svg>
