<!-- Generated by IcoMoon.io -->
<svg version="1.1" xmlns="http://www.w3.org/2000/svg" width="32" height="32" viewBox="0 0 32 32">
<title>arrow-sort-down-lines-filled</title>
<path d="M11.333 5.339l-0.155 0.009c-0.663 0.077-1.178 0.641-1.178 1.324v15.44l-3.058-3.054-0.126-0.111c-0.523-0.406-1.28-0.369-1.76 0.112-0.52 0.521-0.52 1.365 0.001 1.886l5.338 5.333 0.126 0.111c0.523 0.406 1.28 0.369 1.76-0.112l5.328-5.333 0.111-0.126c0.406-0.523 0.369-1.279-0.112-1.76l-0.126-0.111c-0.523-0.406-1.279-0.369-1.76 0.112l-3.057 3.058v-15.445l-0.009-0.155c-0.077-0.663-0.641-1.178-1.324-1.178zM17.333 6.667c-0.736 0-1.333 0.597-1.333 1.333s0.597 1.333 1.333 1.333h10.667c0.736 0 1.333-0.597 1.333-1.333s-0.597-1.333-1.333-1.333h-10.667zM17.333 10.667c-0.736 0-1.333 0.597-1.333 1.333s0.597 1.333 1.333 1.333h6.667c0.736 0 1.333-0.597 1.333-1.333s-0.597-1.333-1.333-1.333h-6.667zM16 16c0-0.736 0.597-1.333 1.333-1.333h2.667c0.736 0 1.333 0.597 1.333 1.333s-0.597 1.333-1.333 1.333h-2.667c-0.736 0-1.333-0.597-1.333-1.333z"></path>
</svg>
