<!-- Generated by IcoMoon.io -->
<svg version="1.1" xmlns="http://www.w3.org/2000/svg" width="32" height="32" viewBox="0 0 32 32">
<title>arrow-counterclockwise-filled</title>
<path d="M16 26c-5.523 0-10-4.477-10-10 0-0.322 0.015-0.64 0.045-0.953 0.052-0.545-0.356-1.047-0.903-1.047-0.563 0-1.051 0.407-1.098 0.968-0.029 0.34-0.044 0.684-0.044 1.032 0 6.627 5.373 12 12 12s12-5.373 12-12-5.373-12-12-12c-0.005 0-0.011 0-0.017 0-3.153 0-6.020 1.22-8.157 3.214l0.007-0.006v-1.707c0-0.552-0.448-1-1-1s-1 0.448-1 1v0 4.333c0 0.552 0.448 1 1 1v0h4.333c0.552 0 1-0.448 1-1s-0.448-1-1-1v0h-2.141c1.795-1.752 4.252-2.833 6.961-2.833 0.005 0 0.009 0 0.014 0h-0.001c5.523 0 10 4.477 10 10s-4.477 10-10 10z"></path>
</svg>
