<!-- Generated by IcoMoon.io -->
<svg version="1.1" xmlns="http://www.w3.org/2000/svg" width="32" height="32" viewBox="0 0 32 32">
<title>arrow-circle-right-filled</title>
<path d="M16.001 2.668c7.364 0 13.333 5.97 13.333 13.333s-5.969 13.333-13.333 13.333c-7.364 0-13.333-5.97-13.333-13.333s5.97-13.333 13.333-13.333zM17.041 9.96l-0.112-0.097c-0.348-0.258-0.826-0.261-1.177-0.010l-0.125 0.106-0.097 0.112c-0.258 0.348-0.261 0.826-0.010 1.177l0.106 0.125 3.626 3.626h-8.92l-0.136 0.009c-0.444 0.060-0.795 0.411-0.855 0.855l-0.009 0.136 0.009 0.136c0.060 0.444 0.411 0.795 0.855 0.855l0.136 0.009h8.92l-3.627 3.627-0.097 0.112c-0.291 0.391-0.258 0.947 0.097 1.302s0.911 0.387 1.302 0.097l0.112-0.097 5.335-5.333 0.097-0.112c0.258-0.348 0.262-0.826 0.010-1.177l-0.106-0.125-5.334-5.334z"></path>
</svg>
