<!-- Generated by IcoMoon.io -->
<svg version="1.1" xmlns="http://www.w3.org/2000/svg" width="32" height="32" viewBox="0 0 32 32">
<title>arrow-turn-left-down-filled</title>
<path d="M27 8.667c0.552 0 1-0.448 1-1s-0.448-1-1-1v0h-12c-2.761 0-5 2.239-5 5v0 11.586l-4.293-4.293c-0.18-0.174-0.425-0.28-0.694-0.28-0.552 0-1 0.448-1 1 0 0.27 0.107 0.515 0.281 0.695l-0-0 6 6c0.181 0.181 0.431 0.292 0.707 0.292s0.526-0.112 0.707-0.292v0l6-6c0.174-0.18 0.281-0.425 0.281-0.695 0-0.552-0.448-1-1-1-0.27 0-0.515 0.107-0.695 0.281l-4.293 4.294v-11.587c0-1.657 1.343-3 3-3v0h12z"></path>
</svg>
