<!-- Generated by IcoMoon.io -->
<svg version="1.1" xmlns="http://www.w3.org/2000/svg" width="32" height="32" viewBox="0 0 32 32">
<title>arrow-circle-down-double-filled</title>
<path d="M15 18.333c0.181 0.181 0.292 0.431 0.292 0.706 0 0.224-0.074 0.431-0.198 0.598l0.002-0.003-0.096 0.112-2.628 2.628c-0.181 0.181-0.431 0.294-0.708 0.294-0.224 0-0.431-0.074-0.598-0.198l0.003 0.002-0.112-0.097-2.627-2.627c-0.185-0.182-0.299-0.434-0.299-0.714 0-0.552 0.448-1 1-1 0.227 0 0.437 0.076 0.605 0.203l-0.002-0.002 0.113 0.097 0.92 0.921v-8.921c0-0 0-0.001 0-0.001 0-0.504 0.373-0.921 0.857-0.99l0.005-0.001 0.137-0.008c0.504 0 0.921 0.373 0.99 0.859l0.001 0.005 0.009 0.136v8.92l0.92-0.92c0.181-0.181 0.431-0.293 0.707-0.293 0.224 0 0.43 0.073 0.597 0.198l-0.003-0.002 0.113 0.097zM2.665 16c0 7.364 5.969 13.333 13.333 13.333s13.333-5.969 13.333-13.333-5.969-13.333-13.333-13.333-13.333 5.969-13.333 13.333zM23.553 18.236l0.113 0.097c0.181 0.181 0.292 0.431 0.292 0.706 0 0.224-0.074 0.431-0.198 0.598l0.002-0.003-0.096 0.112-2.628 2.628c-0.181 0.181-0.431 0.294-0.708 0.294-0.224 0-0.431-0.074-0.598-0.198l0.003 0.002-0.112-0.097-2.627-2.627c-0.188-0.182-0.304-0.436-0.304-0.718 0-0.552 0.448-1 1-1 0.23 0 0.442 0.078 0.61 0.208l-0.002-0.002 0.112 0.097 0.92 0.921v-8.921c0-0 0-0 0-0 0-0.504 0.373-0.921 0.857-0.99l0.005-0.001 0.137-0.009c0.505 0 0.922 0.374 0.99 0.86l0.001 0.005 0.009 0.135v8.92l0.92-0.92c0.181-0.181 0.431-0.292 0.706-0.292 0.224 0 0.431 0.074 0.598 0.198l-0.003-0.002z"></path>
</svg>
