<!-- Generated by IcoMoon.io -->
<svg version="1.1" xmlns="http://www.w3.org/2000/svg" width="32" height="32" viewBox="0 0 32 32">
<title>arrow-reply-down-filled</title>
<path d="M12.939 11.607c0.52-0.521 0.52-1.365-0.001-1.886s-1.365-0.52-1.886 0.001l-6.662 6.671c-0.52 0.521-0.52 1.364 0.001 1.885l6.662 6.663c0.521 0.521 1.365 0.521 1.886 0s0.521-1.365 0-1.886l-4.39-4.391h8.785c5.78 0 10.486-4.597 10.662-10.334l0.005-0.332c0-0.736-0.597-1.333-1.333-1.333s-1.333 0.597-1.333 1.333c0 4.318-3.421 7.837-7.7 7.995l-0.3 0.005h-8.781l4.387-4.393z"></path>
</svg>
