<!-- Generated by IcoMoon.io -->
<svg version="1.1" xmlns="http://www.w3.org/2000/svg" width="32" height="32" viewBox="0 0 32 32">
<title>arrow-maximize-vertical-filled</title>
<path d="M20.276 8.276c-0.521 0.521-1.365 0.521-1.886 0l-1.057-1.057v4.781c0 0.736-0.597 1.333-1.333 1.333s-1.333-0.597-1.333-1.333v-4.781l-1.057 1.057c-0.521 0.521-1.365 0.521-1.886 0s-0.521-1.365 0-1.886l3.333-3.333c0.128-0.128 0.275-0.224 0.432-0.289 0.156-0.065 0.327-0.101 0.506-0.101h0.008c0.34 0.001 0.679 0.131 0.939 0.391l3.333 3.333c0.521 0.521 0.521 1.365 0 1.886zM6.667 14.667c-0.736 0-1.333 0.597-1.333 1.333s0.597 1.333 1.333 1.333h18.667c0.736 0 1.333-0.597 1.333-1.333s-0.597-1.333-1.333-1.333h-18.667zM16.012 29.333c0.176-0.002 0.345-0.037 0.498-0.101 0.157-0.065 0.305-0.161 0.432-0.289l3.333-3.333c0.521-0.521 0.521-1.365 0-1.886s-1.365-0.521-1.886 0l-1.057 1.057v-4.781c0-0.736-0.597-1.333-1.333-1.333s-1.333 0.597-1.333 1.333v4.781l-1.057-1.057c-0.521-0.521-1.365-0.521-1.886 0s-0.521 1.365 0 1.886l3.333 3.333c0.257 0.257 0.593 0.387 0.931 0.391z"></path>
</svg>
