<!-- Generated by IcoMoon.io -->
<svg version="1.1" xmlns="http://www.w3.org/2000/svg" width="32" height="32" viewBox="0 0 32 32">
<title>arrow-export-rtl-filled</title>
<path d="M28.329 6.005c-0.504 0-0.921 0.373-0.99 0.859l-0.001 0.005-0.009 0.136v17.997c0 0.552 0.448 1 1 1 0.504 0 0.921-0.373 0.99-0.858l0.001-0.005 0.009-0.135v-18c0-0.552-0.448-1-1-1v0zM11.716 8.516l-0.111-0.125c-0.241-0.241-0.575-0.39-0.943-0.39-0.309 0-0.594 0.105-0.82 0.282l0.003-0.002-0.125 0.111-6.663 6.664c-0.241 0.241-0.39 0.575-0.39 0.943 0 0.309 0.105 0.594 0.282 0.82l-0.002-0.003 0.111 0.124 6.661 6.672c0.242 0.248 0.58 0.402 0.954 0.402 0.736 0 1.333-0.597 1.333-1.333 0-0.314-0.109-0.603-0.291-0.831l0.002 0.003-0.111-0.125-4.385-4.392h16.775c0.681-0 1.243-0.511 1.323-1.171l0.001-0.006 0.009-0.156c-0-0.681-0.511-1.243-1.171-1.323l-0.006-0.001-0.156-0.009h-16.779l4.388-4.391c0.241-0.241 0.39-0.575 0.39-0.943 0-0.309-0.105-0.594-0.282-0.82l0.002 0.003z"></path>
</svg>
