<!-- Generated by IcoMoon.io -->
<svg version="1.1" xmlns="http://www.w3.org/2000/svg" width="32" height="32" viewBox="0 0 32 32">
<title>arrow-redo-filled</title>
<path d="M27.335 3.667c0-0.552-0.448-1-1-1s-1 0.448-1 1v0 7.657l-5.267-5.375c-3.715-4.2-9.967-4.107-13.287-0.447-3.333 3.676-2.251 8.873-0.019 11.481l0.005 0.007 1.506 1.696 1.691 1.691 2.831 2.773 5.829 5.887c0.182 0.188 0.437 0.305 0.719 0.305 0.552 0 1-0.448 1-1 0-0.282-0.117-0.538-0.305-0.719l-0.331-0.331-5.501-5.56-2.835-2.777-1.642-1.642-1.453-1.637c-1.757-2.060-2.495-6.096-0.013-8.831 2.492-2.749 7.367-2.913 10.321 0.445l0.017 0.020 5.249 5.357h-7.516c-0.552 0-1 0.448-1 1s0.448 1 1 1v0h10c0.552 0 1-0.448 1-1v0-10z"></path>
</svg>
