<!-- Generated by IcoMoon.io -->
<svg version="1.1" xmlns="http://www.w3.org/2000/svg" width="32" height="32" viewBox="0 0 32 32">
<title>arrow-swap-filled</title>
<path d="M20.276 3.055l5.333 5.328c0.481 0.48 0.518 1.237 0.112 1.76l-0.111 0.126-5.333 5.34c-0.52 0.521-1.365 0.522-1.886 0.001-0.481-0.48-0.518-1.237-0.112-1.76l0.111-0.126 3.054-3.058h-14.112c-0.684 0-1.247-0.515-1.324-1.178l-0.009-0.155c0-0.684 0.515-1.247 1.178-1.324l0.155-0.009h14.121l-3.062-3.058c-0.481-0.48-0.518-1.237-0.112-1.76l0.111-0.126c0.48-0.481 1.237-0.518 1.76-0.112l0.126 0.111zM25.987 22.511l0.009 0.155c0 0.684-0.515 1.247-1.178 1.324l-0.155 0.009h-14.112l3.058 3.057c0.481 0.48 0.518 1.237 0.112 1.76l-0.111 0.126c-0.48 0.481-1.237 0.518-1.76 0.112l-0.126-0.111-5.333-5.328c-0.481-0.48-0.518-1.237-0.112-1.76l0.111-0.126 5.333-5.338c0.52-0.521 1.365-0.521 1.886-0.001 0.481 0.48 0.518 1.237 0.112 1.76l-0.111 0.126-3.054 3.058h14.106c0.684 0 1.247 0.515 1.324 1.178v0z"></path>
</svg>
