<!-- Generated by IcoMoon.io -->
<svg version="1.1" xmlns="http://www.w3.org/2000/svg" width="32" height="32" viewBox="0 0 32 32">
<title>arrow-clockwise-filled</title>
<path d="M16 26c5.523 0 10-4.477 10-10 0-0.322-0.015-0.64-0.045-0.953-0.052-0.545 0.356-1.047 0.903-1.047 0.563 0 1.051 0.407 1.098 0.968 0.029 0.34 0.044 0.684 0.044 1.032 0 6.627-5.373 12-12 12s-12-5.373-12-12 5.373-12 12-12c3.155 0 6.025 1.217 8.167 3.207v-1.707c0-0.552 0.448-1 1-1s1 0.448 1 1v0 4.333c0 0.552-0.448 1-1 1v0h-4.333c-0.552 0-1-0.448-1-1s0.448-1 1-1v0h2.141c-1.795-1.752-4.252-2.833-6.961-2.833-0.005 0-0.009 0-0.014 0h0.001c-5.523 0-10 4.477-10 10s4.477 10 10 10z"></path>
</svg>
