<!-- Generated by IcoMoon.io -->
<svg version="1.1" xmlns="http://www.w3.org/2000/svg" width="32" height="32" viewBox="0 0 32 32">
<title>arrow-autofit-height-filled</title>
<path d="M17.269 7.864l0.113-0.131 3.139-3.142c0.239-0.365 0.673-0.591 1.147-0.591 0.431 0 0.825 0.186 1.073 0.491l0.007 0.009 0.061 0.086 3.145 3.148 0.113 0.131 0.007 0.010c0.345 0.465 0.349 1.101 0.013 1.57l-0.008 0.011-0.132 0.155-0.141 0.122-0.010 0.007c-0.465 0.345-1.101 0.349-1.57 0.013l-0.011-0.008-0.146-0.124-1.069-1.069v4.253l-0.011 0.144-0.002 0.013c-0.096 0.619-0.681 1.038-1.32 1.038s-1.224-0.42-1.32-1.039l-0.002-0.013-0.011-0.144v-4.252l-1.066 1.067-0.131 0.113-0.010 0.007c-0.522 0.387-1.263 0.345-1.736-0.129s-0.516-1.214-0.129-1.736l0.007-0.010z"></path>
<path d="M5.333 8.656c0-1.841 1.492-3.333 3.333-3.333h5.333c0.736 0 1.333 0.597 1.333 1.333s-0.597 1.333-1.333 1.333h-5.333c-0.368 0-0.667 0.298-0.667 0.667v14.667c0 0.368 0.298 0.667 0.667 0.667h5.333c0.736 0 1.333 0.597 1.333 1.333s-0.597 1.333-1.333 1.333h-5.333c-1.841 0-3.333-1.492-3.333-3.333v-14.667z"></path>
<path d="M19.27 22.381l-0.131-0.113-0.010-0.007c-0.522-0.387-1.263-0.345-1.736 0.129-0.521 0.521-0.521 1.365 0 1.886l3.13 3.134c0.239 0.365 0.673 0.591 1.147 0.591s0.909-0.227 1.147-0.592l3.139-3.142 0.113-0.131 0.007-0.010c0.387-0.522 0.345-1.263-0.129-1.736l-0.009-0.009-0.131-0.113-0.010-0.007c-0.522-0.387-1.263-0.345-1.736 0.129l-1.059 1.059v-4.253l-0.011-0.144-0.002-0.013c-0.096-0.619-0.681-1.038-1.32-1.038-0.693 0-1.333 0.501-1.333 1.209v4.239l-1.066-1.067z"></path>
</svg>
