<!-- Generated by IcoMoon.io -->
<svg version="1.1" xmlns="http://www.w3.org/2000/svg" width="32" height="32" viewBox="0 0 32 32">
<title>arrow-trending-filled</title>
<path d="M18.671 7.333h9.329c0.684 0 1.247 0.515 1.324 1.178l0.009 0.155v9.333c0 0.736-0.597 1.333-1.333 1.333-0.684 0-1.247-0.515-1.324-1.178l-0.009-0.155-0.001-6.115-9.723 9.724c-0.48 0.48-1.236 0.518-1.759 0.112l-0.126-0.111-3.061-3.056-7.051 7.053c-0.521 0.521-1.365 0.521-1.886 0-0.481-0.481-0.518-1.237-0.111-1.76l0.111-0.126 7.993-7.995c0.48-0.481 1.236-0.518 1.759-0.112l0.126 0.111 3.061 3.056 8.78-8.782h-6.108c-0.684 0-1.247-0.515-1.324-1.178l-0.009-0.155c0-0.684 0.515-1.247 1.178-1.324l0.155-0.009z"></path>
</svg>
