<!-- Generated by IcoMoon.io -->
<svg version="1.1" xmlns="http://www.w3.org/2000/svg" width="32" height="32" viewBox="0 0 32 32">
<title>arrow-curve-down-left-filled</title>
<path d="M22.706 4.005c0.095 0.163 0.15 0.358 0.15 0.567 0 0.422-0.229 0.791-0.57 0.989l-0.005 0.003c-4.981 2.848-5.138 7.552-5.138 11.579v8.098l4.906-4.906c0.208-0.215 0.499-0.349 0.822-0.349 0.631 0 1.143 0.512 1.143 1.143 0 0.323-0.134 0.614-0.349 0.822l-6.857 6.857c-0.207 0.207-0.492 0.335-0.808 0.335s-0.601-0.128-0.808-0.335l-6.857-6.857c-0.215-0.208-0.349-0.499-0.349-0.822 0-0.631 0.512-1.143 1.143-1.143 0.323 0 0.614 0.134 0.822 0.349l4.907 4.907v-8.098c0-3.971 0.072-10.010 6.29-13.563 0.163-0.095 0.358-0.15 0.567-0.15 0.422 0 0.791 0.229 0.989 0.57l0.003 0.005z"></path>
</svg>
