<!-- Generated by IcoMoon.io -->
<svg version="1.1" xmlns="http://www.w3.org/2000/svg" width="32" height="32" viewBox="0 0 32 32">
<title>arrow-right-filled</title>
<path d="M2.5 16c0-0.552 0.448-1 1-1v0h21.223l-8.258-8.12c-0.185-0.182-0.299-0.434-0.299-0.713 0-0.552 0.448-1 1-1 0.273 0 0.521 0.11 0.701 0.287l-0-0 10.011 9.845c0.178 0.18 0.287 0.428 0.287 0.701 0 0.287-0.121 0.546-0.315 0.728l-0 0-9.983 9.818c-0.18 0.177-0.428 0.287-0.701 0.287-0.552 0-1-0.448-1-1 0-0.279 0.114-0.531 0.299-0.713l0-0 8.258-8.121h-21.223c-0.552 0-1-0.448-1-1v0z"></path>
</svg>
