<!-- Generated by IcoMoon.io -->
<svg version="1.1" xmlns="http://www.w3.org/2000/svg" width="32" height="32" viewBox="0 0 32 32">
<title>arrow-turn-down-up-filled</title>
<path d="M25.911 4.587c-0.161-0.349-0.508-0.587-0.911-0.587-0.139 0-0.271 0.028-0.391 0.079l0.007-0.002-8 3.333c-0.365 0.155-0.616 0.51-0.616 0.923 0 0.552 0.448 1 1 1 0.139 0 0.271-0.028 0.391-0.079l-0.007 0.002 5.854-2.44-7.881 18.759-8.095-20.28c-0.151-0.372-0.51-0.629-0.929-0.629-0.552 0-1 0.448-1 1 0 0.134 0.026 0.261 0.074 0.378l-0.002-0.007 8.397 21.036c0.553 1.385 2.507 1.402 3.085 0.027l8.195-19.505 2.342 5.152c0.165 0.337 0.506 0.566 0.901 0.566 0.552 0 1-0.448 1-1 0-0.142-0.030-0.277-0.083-0.4l0.003 0.006-3.333-7.333z"></path>
</svg>
