<!-- Generated by IcoMoon.io -->
<svg version="1.1" xmlns="http://www.w3.org/2000/svg" width="32" height="32" viewBox="0 0 32 32">
<title>arrow-trending-filled</title>
<path d="M18.671 7.333h9.329c0.681 0 1.243 0.511 1.323 1.171l0.001 0.006 0.009 0.156v9.333c0 0.003 0 0.007 0 0.011 0 0.736-0.597 1.333-1.333 1.333-0.685 0-1.25-0.517-1.325-1.182l-0.001-0.006-0.008-0.156-0.001-6.115-9.723 9.724c-0.241 0.242-0.575 0.391-0.944 0.391-0.309 0-0.593-0.105-0.819-0.281l0.003 0.002-0.125-0.111-3.061-3.056-7.051 7.053c-0.241 0.24-0.574 0.389-0.941 0.389-0.736 0-1.333-0.597-1.333-1.333 0-0.309 0.105-0.593 0.281-0.819l-0.002 0.003 0.111-0.127 7.992-7.995c0.241-0.242 0.575-0.391 0.944-0.391 0.309 0 0.593 0.105 0.819 0.281l-0.003-0.002 0.125 0.111 3.061 3.056 8.78-8.781h-6.108c-0.681-0-1.243-0.511-1.323-1.171l-0.001-0.006-0.009-0.156c0-0.681 0.511-1.243 1.171-1.323l0.006-0.001 0.156-0.009z"></path>
</svg>
