<!-- Generated by IcoMoon.io -->
<svg version="1.1" xmlns="http://www.w3.org/2000/svg" width="32" height="32" viewBox="0 0 32 32">
<title>arrow-repeat-all-filled</title>
<path d="M19.616 3.052l-0.116-0.104c-0.523-0.414-1.286-0.38-1.769 0.104l-0.104 0.116c-0.414 0.523-0.38 1.285 0.104 1.768l1.732 1.729-7.785 0.006c-5.006 0.169-9.011 4.277-9.011 9.32 0 1.926 0.584 3.716 1.585 5.198 0.242 0.335 0.636 0.553 1.082 0.553 0.736 0 1.333-0.597 1.333-1.332 0-0.288-0.092-0.555-0.246-0.772l-0.18-0.291c-0.576-0.985-0.907-2.132-0.907-3.356 0-3.679 2.984-6.661 6.666-6.661l7.461-0-1.729 1.73-0.104 0.116c-0.414 0.523-0.38 1.285 0.104 1.768 0.521 0.52 1.365 0.52 1.886 0l4.007-4.004 0.104-0.116c0.414-0.523 0.38-1.285-0.104-1.768l-4.007-4.004zM27.715 10.747c-0.244-0.31-0.623-0.509-1.049-0.509-0.736 0-1.333 0.597-1.333 1.332 0 0.278 0.085 0.535 0.229 0.748 0.698 1.053 1.104 2.316 1.104 3.673 0 3.679-2.984 6.661-6.666 6.661l-7.448-0.001 1.725-1.722 0.111-0.126c0.375-0.482 0.372-1.162-0.008-1.642l-0.104-0.116-0.126-0.111c-0.483-0.374-1.163-0.372-1.643 0.008l-0.116 0.104-4.007 4.004-0.112 0.126c-0.375 0.482-0.372 1.162 0.008 1.642l0.104 0.116 4.007 4.004 0.126 0.111c0.523 0.406 1.279 0.369 1.76-0.111 0.483-0.483 0.518-1.245 0.104-1.768l-0.104-0.116-1.738-1.737 7.782-0.005c5.006-0.169 9.011-4.277 9.011-9.32 0-1.947-0.597-3.754-1.618-5.249l-0 0.005z"></path>
</svg>
