<!-- Generated by IcoMoon.io -->
<svg version="1.1" xmlns="http://www.w3.org/2000/svg" width="32" height="32" viewBox="0 0 32 32">
<title>arrow-turn-right-filled</title>
<path d="M20.373 17.707c-0.179 0.169-0.421 0.273-0.687 0.273-0.552 0-1-0.448-1-1 0-0.266 0.104-0.509 0.274-0.688l4.291-4.292h-11.585c-1.657 0-3 1.343-3 3v0 12c0 0.552-0.448 1-1 1s-1-0.448-1-1v0-12c0-2.761 2.239-5 5-5v0h11.587l-4.293-4.293c-0.169-0.179-0.274-0.421-0.274-0.687 0-0.552 0.448-1 1-1 0.266 0 0.508 0.104 0.687 0.274l-0-0 6 6c0.181 0.181 0.292 0.431 0.292 0.707s-0.112 0.526-0.292 0.707v0l-6 6z"></path>
</svg>
