<!-- Generated by IcoMoon.io -->
<svg version="1.1" xmlns="http://www.w3.org/2000/svg" width="32" height="32" viewBox="0 0 32 32">
<title>arrow-turn-bidirectional-down-right-filled</title>
<path d="M23.609 4.389c-0.521-0.521-1.365-0.521-1.886 0s-0.521 1.365 0 1.886l3.058 3.059h-9.449c-3.314 0-6 2.686-6 6v9.448l-3.057-3.057c-0.521-0.521-1.365-0.521-1.886 0s-0.521 1.365 0 1.886l5.334 5.333c0.521 0.521 1.365 0.521 1.886-0l5.333-5.333c0.521-0.521 0.521-1.365 0-1.886s-1.365-0.521-1.886 0l-3.057 3.057v-9.448c0-1.841 1.492-3.333 3.333-3.333h9.448l-3.057 3.057c-0.521 0.521-0.521 1.365-0 1.886s1.365 0.521 1.886 0l5.334-5.333c0.25-0.25 0.391-0.589 0.391-0.943s-0.141-0.693-0.391-0.943l-5.334-5.334z"></path>
</svg>
