<!-- Generated by IcoMoon.io -->
<svg version="1.1" xmlns="http://www.w3.org/2000/svg" width="32" height="32" viewBox="0 0 32 32">
<title>arrow-autofit-height-filled</title>
<path d="M17.269 7.864l0.112-0.131 3.139-3.143c0.24-0.364 0.673-0.591 1.147-0.591 0.432 0 0.827 0.187 1.075 0.491l0.007 0.009 0.061 0.085 3.144 3.148 0.113 0.131 0.007 0.011c0.164 0.219 0.262 0.495 0.262 0.794 0 0.291-0.093 0.56-0.251 0.779l0.003-0.004-0.008 0.011-0.132 0.156-0.151 0.129c-0.219 0.164-0.495 0.262-0.794 0.262-0.291 0-0.56-0.093-0.779-0.251l0.004 0.003-0.012-0.009-0.147-0.124-1.068-1.068v4.253l-0.011 0.144-0.003 0.013c-0.096 0.617-0.68 1.037-1.32 1.037s-1.224-0.42-1.32-1.039l-0.003-0.013-0.011-0.144v-4.252l-1.067 1.067-0.129 0.113-0.011 0.008c-0.22 0.165-0.497 0.264-0.797 0.264-0.736 0-1.333-0.597-1.333-1.333 0-0.301 0.1-0.578 0.267-0.801l-0.002 0.003 0.008-0.009zM5.333 8.656c0-1.841 1.492-3.333 3.333-3.333v0h5.333c0.736 0 1.333 0.597 1.333 1.333s-0.597 1.333-1.333 1.333v0h-5.333c-0.368 0-0.667 0.298-0.667 0.667v0 14.667c0 0.368 0.298 0.667 0.667 0.667v0h5.333c0.736 0 1.333 0.597 1.333 1.333s-0.597 1.333-1.333 1.333v0h-5.333c-1.841 0-3.333-1.492-3.333-3.333v0-14.667zM19.271 22.381l-0.131-0.113-0.011-0.008c-0.219-0.164-0.495-0.262-0.794-0.262-0.736 0-1.333 0.597-1.333 1.333 0 0.368 0.149 0.702 0.391 0.943v0l3.129 3.133c0.24 0.365 0.673 0.592 1.147 0.592 0.476 0 0.909-0.227 1.148-0.592l3.139-3.141 0.113-0.131 0.007-0.011c0.164-0.219 0.262-0.495 0.262-0.794 0-0.368-0.149-0.701-0.39-0.942v0l-0.009-0.008-0.14-0.121c-0.219-0.164-0.495-0.262-0.794-0.262-0.369 0-0.702 0.15-0.944 0.391l-1.059 1.059v-4.253l-0.011-0.144-0.003-0.013c-0.096-0.617-0.68-1.037-1.32-1.037-0.693 0-1.333 0.501-1.333 1.208v4.24l-1.067-1.067z"></path>
</svg>
