<!-- Generated by IcoMoon.io -->
<svg version="1.1" xmlns="http://www.w3.org/2000/svg" width="32" height="32" viewBox="0 0 32 32">
<title>arrow-bounce-filled</title>
<path d="M16 9.333c0-0.736-0.597-1.333-1.333-1.333h-10.667c-0.736 0-1.333 0.597-1.333 1.333v10.667c0 0.736 0.597 1.333 1.333 1.333s1.333-0.597 1.333-1.333v-7.448l10.724 10.724c0.25 0.25 0.589 0.391 0.943 0.391s0.693-0.141 0.943-0.391l11-11c0.521-0.521 0.521-1.365 0-1.886s-1.365-0.521-1.886 0l-10.057 10.057-9.781-9.781h7.448c0.736 0 1.333-0.597 1.333-1.333z"></path>
</svg>
