<!-- Generated by IcoMoon.io -->
<svg version="1.1" xmlns="http://www.w3.org/2000/svg" width="32" height="32" viewBox="0 0 32 32">
<title>arrow-move-filled</title>
<path d="M20.609 8.609c-0.241 0.241-0.575 0.39-0.943 0.39s-0.701-0.149-0.943-0.39l-1.391-1.391v3.781c0 0.736-0.597 1.333-1.333 1.333s-1.333-0.597-1.333-1.333v0-3.781l-1.391 1.391c-0.24 0.232-0.566 0.374-0.926 0.374-0.736 0-1.333-0.597-1.333-1.333 0-0.36 0.143-0.687 0.375-0.927l3.666-3.666c0.241-0.241 0.575-0.39 0.943-0.39s0.701 0.149 0.943 0.39l3.667 3.667c0.241 0.241 0.39 0.575 0.39 0.943s-0.149 0.701-0.39 0.943v0zM8.609 18.724c0.251 0.243 0.407 0.583 0.407 0.959 0 0.736-0.597 1.333-1.333 1.333-0.376 0-0.716-0.156-0.959-0.407l-3.667-3.667c-0.241-0.241-0.39-0.575-0.39-0.943s0.149-0.701 0.39-0.943l3.667-3.667c0.24-0.232 0.566-0.374 0.926-0.374 0.736 0 1.333 0.597 1.333 1.333 0 0.36-0.143 0.687-0.375 0.927l-1.39 1.39h3.781c0.736 0 1.333 0.597 1.333 1.333s-0.597 1.333-1.333 1.333v0h-3.781l1.391 1.391zM25.276 20.609c-0.24 0.232-0.566 0.374-0.926 0.374-0.736 0-1.333-0.597-1.333-1.333 0-0.36 0.143-0.687 0.375-0.927l1.39-1.39h-3.781c-0.736 0-1.333-0.597-1.333-1.333s0.597-1.333 1.333-1.333v0h3.781l-1.391-1.391c-0.232-0.24-0.374-0.566-0.374-0.926 0-0.736 0.597-1.333 1.333-1.333 0.36 0 0.687 0.143 0.927 0.375l3.666 3.666c0.241 0.241 0.39 0.575 0.39 0.943s-0.149 0.701-0.39 0.943l-3.667 3.667zM14.667 24.781v-3.781c0-0.736 0.597-1.333 1.333-1.333s1.333 0.597 1.333 1.333v0 3.781l1.391-1.391c0.24-0.232 0.566-0.374 0.926-0.374 0.736 0 1.333 0.597 1.333 1.333 0 0.36-0.143 0.687-0.375 0.927l-3.666 3.666c-0.241 0.241-0.575 0.39-0.943 0.39s-0.701-0.149-0.943-0.39l-3.667-3.667c-0.251-0.243-0.407-0.583-0.407-0.959 0-0.736 0.597-1.333 1.333-1.333 0.376 0 0.716 0.156 0.959 0.407l1.391 1.391z"></path>
</svg>
