<!-- Generated by IcoMoon.io -->
<svg version="1.1" xmlns="http://www.w3.org/2000/svg" width="32" height="32" viewBox="0 0 32 32">
<title>arrow-turn-right-filled</title>
<path d="M21.945 4.391c-0.521-0.521-1.365-0.521-1.886-0s-0.521 1.365-0 1.886l3.057 3.057h-9.116c-3.314 0-6 2.686-6 6v11.333c0 0.736 0.597 1.333 1.333 1.333s1.333-0.597 1.333-1.333v-11.333c0-1.841 1.492-3.333 3.333-3.333h9.78l-3.723 3.722c-0.521 0.521-0.521 1.365-0 1.886s1.365 0.521 1.886 0l5.667-5.665c0.25-0.25 0.391-0.589 0.391-0.943s-0.14-0.693-0.39-0.943l-5.665-5.666z"></path>
</svg>
