<!-- Generated by IcoMoon.io -->
<svg version="1.1" xmlns="http://www.w3.org/2000/svg" width="32" height="32" viewBox="0 0 32 32">
<title>arrow-step-in-default-filled</title>
<path d="M16 2.667c0.552 0 1 0.448 1 1v12.342l4.646-4.401c0.401-0.38 1.034-0.363 1.414 0.038s0.363 1.034-0.038 1.414l-6.333 6c-0.386 0.365-0.99 0.365-1.375 0l-6.333-6c-0.401-0.38-0.418-1.013-0.038-1.414s1.013-0.418 1.414-0.038l4.646 4.401v-12.342c0-0.552 0.448-1 1-1zM20 25.333c0 2.209-1.791 4-4 4s-4-1.791-4-4c0-2.209 1.791-4 4-4s4 1.791 4 4z"></path>
</svg>
