<!-- Generated by IcoMoon.io -->
<svg version="1.1" xmlns="http://www.w3.org/2000/svg" width="32" height="32" viewBox="0 0 32 32">
<title>arrow-hook-down-right-filled</title>
<path d="M7.751 9.169c1.381-1.423 3.401-2.312 5.963-2.312h8c0.631 0 1.143 0.512 1.143 1.143s-0.512 1.143-1.143 1.143v0h-8c-2.009 0-3.417 0.682-4.322 1.617-0.919 0.949-1.392 2.226-1.392 3.526s0.473 2.578 1.392 3.526c0.905 0.935 2.313 1.617 4.322 1.617h8.67l-3.763-3.763c-0.215-0.208-0.349-0.499-0.349-0.822 0-0.631 0.512-1.143 1.143-1.143 0.323 0 0.614 0.134 0.822 0.349l5.715 5.715c0.207 0.207 0.335 0.492 0.335 0.808s-0.128 0.601-0.335 0.808l-5.714 5.714c-0.205 0.198-0.485 0.321-0.794 0.321-0.631 0-1.143-0.512-1.143-1.143 0-0.309 0.122-0.589 0.321-0.794l3.763-3.763h-8.67c-2.562 0-4.583-0.889-5.963-2.312-1.367-1.409-2.037-3.273-2.037-5.117s0.67-3.707 2.037-5.117z"></path>
</svg>
