<!-- Generated by IcoMoon.io -->
<svg version="1.1" xmlns="http://www.w3.org/2000/svg" width="32" height="32" viewBox="0 0 32 32">
<title>arrow-trending-text-filled</title>
<path d="M28 5.333c0-0.736-0.597-1.333-1.333-1.333v0h-6.667c-0.736 0-1.333 0.597-1.333 1.333s0.597 1.333 1.333 1.333v0h3.448l-6.781 6.781-2.391-2.391c-0.241-0.241-0.575-0.39-0.943-0.39s-0.701 0.149-0.943 0.39l-8 8c-0.251 0.243-0.407 0.583-0.407 0.959 0 0.736 0.597 1.333 1.333 1.333 0.376 0 0.716-0.156 0.959-0.407l7.058-7.058 2.391 2.391c0.197 0.197 0.456 0.333 0.745 0.376l0.007 0.001c0.395-0.259 0.837-0.451 1.313-0.557l7.544-7.544v3.448c0 0.736 0.597 1.333 1.333 1.333s1.333-0.597 1.333-1.333v0-6.667zM18.667 17.333c-1.473 0-2.667 1.194-2.667 2.667v0 8c0 1.473 1.194 2.667 2.667 2.667v0h9.333c1.473 0 2.667-1.194 2.667-2.667v0-8c0-1.473-1.194-2.667-2.667-2.667v0h-9.333zM18.667 22c0-0.368 0.298-0.667 0.667-0.667v0h8c0.368 0 0.667 0.298 0.667 0.667s-0.298 0.667-0.667 0.667v0h-8c-0.368 0-0.667-0.298-0.667-0.667v0zM18.667 26c0-0.368 0.298-0.667 0.667-0.667v0h8c0.368 0 0.667 0.298 0.667 0.667s-0.298 0.667-0.667 0.667v0h-8c-0.368 0-0.667-0.298-0.667-0.667v0z"></path>
</svg>
