<!-- Generated by IcoMoon.io -->
<svg version="1.1" xmlns="http://www.w3.org/2000/svg" width="32" height="32" viewBox="0 0 32 32">
<title>arrow-swap-filled</title>
<path d="M20.276 3.053l5.333 5.328c0.242 0.241 0.391 0.575 0.391 0.944 0 0.309-0.105 0.593-0.281 0.819l0.002-0.003-0.111 0.125-5.333 5.341c-0.242 0.244-0.577 0.395-0.947 0.395-0.736 0-1.333-0.597-1.333-1.333 0-0.311 0.107-0.598 0.285-0.825l-0.002 0.003 0.111-0.125 3.053-3.056h-14.111c-0.681-0-1.243-0.511-1.323-1.171l-0.001-0.006-0.009-0.157c0-0.681 0.511-1.243 1.171-1.323l0.006-0.001 0.156-0.009h14.12l-3.061-3.057c-0.242-0.241-0.391-0.575-0.391-0.944 0-0.309 0.105-0.593 0.281-0.819l-0.002 0.003 0.111-0.127c0.241-0.242 0.575-0.391 0.944-0.391 0.309 0 0.593 0.105 0.819 0.281l-0.003-0.002 0.125 0.112zM25.988 22.509l0.008 0.156c-0 0.681-0.511 1.243-1.171 1.323l-0.006 0.001-0.156 0.009h-14.111l3.057 3.057c0.242 0.241 0.391 0.575 0.391 0.944 0 0.309-0.105 0.593-0.281 0.819l0.002-0.003-0.111 0.125c-0.241 0.242-0.575 0.391-0.944 0.391-0.309 0-0.593-0.105-0.819-0.281l0.003 0.002-0.125-0.112-5.333-5.328c-0.242-0.241-0.391-0.575-0.391-0.944 0-0.309 0.105-0.593 0.281-0.819l-0.002 0.003 0.111-0.125 5.333-5.339c0.242-0.244 0.577-0.395 0.947-0.395 0.736 0 1.333 0.597 1.333 1.333 0 0.311-0.107 0.598-0.285 0.825l0.002-0.003-0.111 0.125-3.053 3.057h14.107c0.681 0 1.243 0.511 1.323 1.171l0.001 0.006z"></path>
</svg>
