<!-- Generated by IcoMoon.io -->
<svg version="1.1" xmlns="http://www.w3.org/2000/svg" width="32" height="32" viewBox="0 0 32 32">
<title>arrow-trending-wrench-filled</title>
<path d="M28 5.333c0-0.736-0.597-1.333-1.333-1.333v0h-6.667c-0.736 0-1.333 0.597-1.333 1.333s0.597 1.333 1.333 1.333v0h3.448l-6.781 6.781-2.391-2.391c-0.241-0.241-0.575-0.39-0.943-0.39s-0.701 0.149-0.943 0.39l-8 8c-0.251 0.243-0.407 0.583-0.407 0.959 0 0.736 0.597 1.333 1.333 1.333 0.376 0 0.716-0.156 0.959-0.407l7.058-7.058 2.391 2.391c0.241 0.241 0.575 0.39 0.943 0.39s0.701-0.149 0.943-0.39l7.724-7.724v3.448c0 0.736 0.597 1.333 1.333 1.333s1.333-0.597 1.333-1.333v0-6.667zM27.307 15.777c0.333-0.333 0.22-0.897-0.241-0.999-0.343-0.079-0.737-0.124-1.142-0.124-2.946 0-5.335 2.388-5.335 5.335 0 0.752 0.156 1.468 0.436 2.117l-0.013-0.035-4.988 4.989c-0.347 0.359-0.561 0.849-0.561 1.389 0 1.105 0.895 2 2 2 0.54 0 1.030-0.214 1.39-0.562l-0.001 0.001 4.989-4.988c0.614 0.268 1.33 0.423 2.082 0.423 2.946 0 5.335-2.388 5.335-5.335 0-0.405-0.045-0.799-0.13-1.177l0.007 0.036c-0.101-0.463-0.665-0.576-1-0.243l-2.324 2.328c-0.362 0.362-0.862 0.586-1.415 0.586-1.105 0-2-0.895-2-2 0-0.552 0.224-1.052 0.585-1.414l2.327-2.327z"></path>
</svg>
