<!-- Generated by IcoMoon.io -->
<svg version="1.1" xmlns="http://www.w3.org/2000/svg" width="32" height="32" viewBox="0 0 32 32">
<title>arrow-circle-down-right-filled</title>
<path d="M16 29.333c7.364 0 13.333-5.969 13.333-13.333s-5.969-13.333-13.333-13.333-13.333 5.969-13.333 13.333 5.969 13.333 13.333 13.333zM19.333 11.667c0-0.552 0.448-1 1-1s1 0.448 1 1v0 8.667c0 0.552-0.448 1-1 1v0h-8.667c-0.552 0-1-0.448-1-1s0.448-1 1-1v0h6.32l-7.024-6.956c-0.183-0.181-0.296-0.433-0.296-0.711 0-0.552 0.448-1 1-1 0.275 0 0.523 0.111 0.704 0.29l-0-0 6.963 6.897v-6.187z"></path>
</svg>
