<!-- Generated by IcoMoon.io -->
<svg version="1.1" xmlns="http://www.w3.org/2000/svg" width="32" height="32" viewBox="0 0 32 32">
<title>arrow-routing-filled</title>
<path d="M24.947 3.056c-0.241-0.241-0.575-0.39-0.943-0.39-0.737 0-1.334 0.597-1.334 1.334 0 0.369 0.15 0.702 0.391 0.944l1.723 1.719h-7.456c-2.209 0-4 1.791-4 4v0 12c0 0.736-0.597 1.333-1.333 1.333v0h-1.557c-0.567-1.565-2.041-2.662-3.771-2.662-2.21 0-4.001 1.791-4.001 4.001s1.791 4.001 4.001 4.001c1.734 0 3.21-1.103 3.766-2.646l0.009-0.028h1.553c2.209 0 4-1.791 4-4v0-12c0-0.736 0.597-1.333 1.333-1.333v0h7.452l-1.727 1.72c-0.253 0.243-0.41 0.584-0.41 0.961 0 0.736 0.597 1.333 1.333 1.333 0.375 0 0.714-0.155 0.956-0.404l0-0 4.013-3.999c0.242-0.241 0.392-0.575 0.392-0.944s-0.15-0.703-0.392-0.944l-4-3.997z"></path>
</svg>
