<!-- Generated by IcoMoon.io -->
<svg version="1.1" xmlns="http://www.w3.org/2000/svg" width="32" height="32" viewBox="0 0 32 32">
<title>arrow-rotate-counterclockwise-filled</title>
<path d="M16 4c-6.627 0-12 5.373-12 12v0c0 4.619 2.608 8.628 6.431 10.636l0.066 0.032-2.497-0.001c-0.736 0.001-1.332 0.597-1.332 1.333 0 0.681 0.51 1.243 1.169 1.323l0.006 0.001 0.156 0.009h5.333c0.681-0 1.243-0.511 1.323-1.171l0.001-0.006 0.009-0.156v-5.333c-0.001-0.736-0.597-1.332-1.333-1.332-0.681 0-1.243 0.51-1.323 1.169l-0.001 0.006-0.009 0.156-0.001 1.769c-3.178-1.536-5.332-4.734-5.332-8.436v-0c0-5.155 4.179-9.333 9.333-9.333s9.333 4.179 9.333 9.333v0c0 0.736 0.597 1.333 1.333 1.333s1.333-0.597 1.333-1.333v0c0-6.627-5.373-12-12-12v0zM16 12c-2.209 0-4 1.791-4 4s1.791 4 4 4v0c2.209 0 4-1.791 4-4s-1.791-4-4-4v0zM16 14.667c0.736 0 1.333 0.597 1.333 1.333s-0.597 1.333-1.333 1.333v0c-0.736 0-1.333-0.597-1.333-1.333s0.597-1.333 1.333-1.333v0z"></path>
</svg>
