<!-- Generated by IcoMoon.io -->
<svg version="1.1" xmlns="http://www.w3.org/2000/svg" width="32" height="32" viewBox="0 0 32 32">
<title>arrow-reset-filled</title>
<path d="M9.207 4.54c0.166-0.178 0.268-0.418 0.268-0.682 0-0.552-0.448-1-1-1-0.264 0-0.504 0.102-0.682 0.269l0.001-0.001-5 5c-0.181 0.181-0.292 0.431-0.292 0.707s0.112 0.526 0.292 0.707v0l5 5c0.178 0.166 0.418 0.268 0.682 0.268 0.552 0 1-0.448 1-1 0-0.264-0.102-0.504-0.269-0.682l0.001 0.001-3.293-3.293h11.753c4.695 0 8.5 3.805 8.5 8.5s-3.805 8.5-8.5 8.5-8.5-3.805-8.5-8.5c0-0.552-0.448-1-1-1s-1 0.448-1 1v0c0 5.799 4.701 10.5 10.5 10.5s10.5-4.701 10.5-10.5c0-5.799-4.701-10.5-10.5-10.5h-11.753l3.293-3.293z"></path>
</svg>
