<!-- Generated by IcoMoon.io -->
<svg version="1.1" xmlns="http://www.w3.org/2000/svg" width="32" height="32" viewBox="0 0 32 32">
<title>arrow-reply-down-filled</title>
<path d="M12.939 11.608c0.251-0.243 0.407-0.583 0.407-0.959 0-0.736-0.597-1.333-1.333-1.333-0.376 0-0.716 0.156-0.959 0.407l-0 0-6.663 6.672c-0.241 0.241-0.39 0.574-0.39 0.942s0.149 0.701 0.39 0.942l6.663 6.664c0.241 0.242 0.575 0.391 0.943 0.391 0.737 0 1.334-0.597 1.334-1.334 0-0.368-0.149-0.701-0.39-0.943v0l-4.393-4.391h8.787c5.774-0 10.476-4.588 10.661-10.316l0-0.017 0.005-0.333c0-0.736-0.597-1.333-1.333-1.333s-1.333 0.597-1.333 1.333v0c0 0 0 0 0 0 0 4.313-3.413 7.828-7.685 7.994l-0.015 0-0.3 0.005h-8.781l4.387-4.392z"></path>
</svg>
