<!-- Generated by IcoMoon.io -->
<svg version="1.1" xmlns="http://www.w3.org/2000/svg" width="32" height="32" viewBox="0 0 32 32">
<title>arrow-between-down-filled</title>
<path d="M8.667 3c0-0.736-0.597-1.333-1.333-1.333s-1.333 0.597-1.333 1.333v0 0.333c0 1.841 1.492 3.333 3.333 3.333v0h13.333c1.841 0 3.333-1.492 3.333-3.333v0-0.333c0-0.736-0.597-1.333-1.333-1.333s-1.333 0.597-1.333 1.333v0 0.333c0 0.368-0.298 0.667-0.667 0.667v0h-13.333c-0.368 0-0.667-0.298-0.667-0.667v0-0.333zM16 8.333c0.736 0 1.333 0.597 1.333 1.333v0 9.448l3.724-3.724c0.24-0.232 0.566-0.374 0.926-0.374 0.736 0 1.333 0.597 1.333 1.333 0 0.36-0.143 0.687-0.375 0.927l-6 6c-0.241 0.241-0.575 0.39-0.943 0.39s-0.701-0.149-0.943-0.39l-6-6c-0.251-0.243-0.407-0.583-0.407-0.959 0-0.736 0.597-1.333 1.333-1.333 0.376 0 0.716 0.156 0.959 0.407l3.724 3.724v-9.448c0-0.736 0.597-1.333 1.333-1.333v0zM6 28.667c0-1.841 1.492-3.333 3.333-3.333v0h13.333c1.841 0 3.333 1.492 3.333 3.333v0 0.333c0 0.736-0.597 1.333-1.333 1.333s-1.333-0.597-1.333-1.333v0-0.333c0-0.368-0.298-0.667-0.667-0.667v0h-13.333c-0.368 0-0.667 0.298-0.667 0.667v0 0.333c0 0.736-0.597 1.333-1.333 1.333s-1.333-0.597-1.333-1.333v0-0.333z"></path>
</svg>
