<!-- Generated by IcoMoon.io -->
<svg version="1.1" xmlns="http://www.w3.org/2000/svg" width="32" height="32" viewBox="0 0 32 32">
<title>arrow-forward-down-lightning-filled</title>
<path d="M17.333 22c0 4.050-3.283 7.333-7.333 7.333s-7.333-3.283-7.333-7.333c0-4.050 3.283-7.333 7.333-7.333s7.333 3.283 7.333 7.333zM11.371 17.334h-1.909c-0.278 0-0.527 0.172-0.624 0.433l-1.5 4c-0.163 0.436 0.159 0.901 0.624 0.901h1.038l-1.030 3.091c-0.149 0.447 0.184 0.909 0.655 0.909 0.234 0 0.452-0.118 0.579-0.314l3.5-5.385c0.271-0.417-0.028-0.968-0.525-0.968h-0.846l0.662-1.766c0.163-0.436-0.159-0.901-0.624-0.901zM21.729 5.722c-0.521 0.52-0.522 1.365-0.001 1.886l4.387 4.393-9.081-0.006c-4.279-0.158-7.7-3.677-7.7-7.995 0-0.736-0.597-1.333-1.333-1.333s-1.333 0.597-1.333 1.333l0.005 0.332c0.176 5.737 4.882 10.334 10.662 10.334h8.785l-4.39 4.391c-0.521 0.521-0.521 1.365 0 1.886s1.365 0.521 1.886-0l6.662-6.663c0.52-0.521 0.521-1.364 0.001-1.885l-6.662-6.671c-0.52-0.521-1.365-0.522-1.886-0.001z"></path>
</svg>
