<!-- Generated by IcoMoon.io -->
<svg version="1.1" xmlns="http://www.w3.org/2000/svg" width="32" height="32" viewBox="0 0 32 32">
<title>arrow-counterclockwise-dashes-filled</title>
<path d="M16 3.667c0.877 0 1.736 0.092 2.564 0.267 0.608 0.132 1.058 0.666 1.058 1.305 0 0.737-0.597 1.334-1.334 1.334-0.098 0-0.193-0.011-0.285-0.030l0.009 0.002c-0.605-0.134-1.299-0.211-2.012-0.211s-1.407 0.077-2.076 0.222l0.064-0.012c-0.083 0.018-0.178 0.029-0.276 0.029-0.736 0-1.334-0.597-1.334-1.334 0-0.639 0.449-1.173 1.049-1.303l0.009-0.002c0.768-0.17 1.65-0.267 2.555-0.267 0.003 0 0.006 0 0.009 0h-0zM8.333 6.339v-0.672c0-0.736-0.597-1.333-1.333-1.333s-1.333 0.597-1.333 1.333v0 4c0 0.736 0.597 1.333 1.333 1.333v0h4c0.736 0 1.333-0.597 1.333-1.333s-0.597-1.333-1.333-1.333v0h-0.889c0.203-0.156 0.411-0.303 0.625-0.443 0.367-0.242 0.606-0.652 0.606-1.117 0-0.737-0.597-1.334-1.334-1.334-0.271 0-0.523 0.081-0.733 0.219l0.005-0.003c-0.327 0.213-0.644 0.44-0.948 0.683zM20.875 6.045c0.242-0.367 0.651-0.605 1.117-0.605 0.27 0 0.522 0.080 0.732 0.219l-0.005-0.003c1.458 0.958 2.667 2.168 3.596 3.579l0.029 0.047c0.148 0.211 0.236 0.474 0.236 0.757 0 0.736-0.597 1.333-1.333 1.333-0.479 0-0.899-0.252-1.134-0.631l-0.003-0.006c-0.752-1.143-1.701-2.092-2.809-2.821l-0.037-0.023c-0.366-0.242-0.605-0.651-0.605-1.117 0-0.27 0.081-0.522 0.219-0.732l-0.003 0.005zM26.485 12.408c0.083-0.018 0.179-0.029 0.277-0.029 0.639 0 1.172 0.449 1.303 1.048l0.002 0.009c0.171 0.771 0.268 1.656 0.268 2.564s-0.098 1.793-0.283 2.646l0.015-0.082c-0.132 0.608-0.666 1.058-1.305 1.058-0.736 0-1.334-0.597-1.334-1.334 0-0.098 0.011-0.193 0.030-0.285l-0.002 0.009c0.134-0.605 0.211-1.299 0.211-2.012s-0.077-1.407-0.222-2.076l0.012 0.064c-0.018-0.083-0.029-0.178-0.029-0.276 0-0.638 0.449-1.172 1.048-1.303l0.009-0.002zM5 13.667c0.736 0 1.333 0.597 1.333 1.333v0 1c0 0.691 0.072 1.364 0.209 2.012 0.018 0.083 0.029 0.178 0.029 0.276 0 0.736-0.597 1.334-1.334 1.334-0.639 0-1.173-0.449-1.303-1.049l-0.002-0.009c-0.17-0.768-0.267-1.65-0.267-2.555 0-0.003 0-0.006 0-0.009v0-1c0-0.736 0.597-1.333 1.333-1.333v0zM6.047 20.875c0.205-0.135 0.457-0.216 0.727-0.216 0.465 0 0.875 0.239 1.114 0.6l0.003 0.005c0.752 1.144 1.701 2.093 2.809 2.823l0.037 0.023c0.358 0.243 0.591 0.648 0.591 1.107 0 0.736-0.597 1.333-1.333 1.333-0.264 0-0.51-0.077-0.717-0.209l0.005 0.003c-1.458-0.958-2.667-2.168-3.596-3.579l-0.029-0.047c-0.135-0.205-0.215-0.456-0.215-0.727 0-0.466 0.239-0.876 0.601-1.114l0.005-0.003zM24.109 21.264c0.243-0.358 0.648-0.591 1.107-0.591 0.736 0 1.333 0.597 1.333 1.333 0 0.264-0.077 0.51-0.209 0.717l0.003-0.005c-0.958 1.458-2.168 2.667-3.579 3.596l-0.047 0.029c-0.212 0.148-0.474 0.236-0.757 0.236-0.736 0-1.333-0.597-1.333-1.333 0-0.479 0.252-0.899 0.631-1.134l0.006-0.003c1.143-0.752 2.093-1.701 2.821-2.809l0.023-0.037zM18.012 25.457c0.083-0.018 0.178-0.029 0.276-0.029 0.736 0 1.334 0.597 1.334 1.334 0 0.639-0.449 1.173-1.049 1.303l-0.009 0.002c-0.771 0.171-1.656 0.268-2.564 0.268s-1.793-0.098-2.646-0.283l0.082 0.015c-0.608-0.132-1.058-0.666-1.058-1.305 0-0.736 0.597-1.334 1.334-1.334 0.098 0 0.193 0.011 0.285 0.030l-0.009-0.002c0.605 0.134 1.299 0.211 2.012 0.211s1.407-0.077 2.076-0.222l-0.064 0.012z"></path>
</svg>
