<!-- Generated by IcoMoon.io -->
<svg version="1.1" xmlns="http://www.w3.org/2000/svg" width="32" height="32" viewBox="0 0 32 32">
<title>arrow-download-filled</title>
<path d="M7 27.333h17.997c0.552 0 1 0.448 1 1 0 0.506-0.376 0.925-0.864 0.991l-0.136 0.009h-17.997c-0.552 0-1-0.448-1-1 0-0.506 0.376-0.925 0.864-0.991l0.136-0.009zM15.845 2.669l0.155-0.009c0.684 0 1.247 0.515 1.324 1.178l0.009 0.155v16.787l4.392-4.39c0.481-0.481 1.237-0.517 1.76-0.111l0.126 0.111c0.481 0.481 0.517 1.237 0.111 1.76l-0.111 0.126-6.663 6.662c-0.48 0.48-1.236 0.517-1.759 0.111l-0.126-0.111-6.671-6.662c-0.521-0.52-0.522-1.365-0.001-1.886 0.48-0.481 1.237-0.519 1.76-0.112l0.126 0.111 4.391 4.384v-16.78c0-0.684 0.515-1.247 1.178-1.324v0z"></path>
</svg>
