<!-- Generated by IcoMoon.io -->
<svg version="1.1" xmlns="http://www.w3.org/2000/svg" width="32" height="32" viewBox="0 0 32 32">
<title>arrow-sort-down-filled</title>
<path d="M15.845 5.347l0.155-0.009c0.684 0 1.247 0.515 1.324 1.178l0.009 0.155v15.445l3.057-3.058c0.48-0.481 1.237-0.518 1.76-0.112l0.126 0.111c0.481 0.48 0.518 1.237 0.112 1.76l-0.111 0.126-5.328 5.333c-0.48 0.481-1.237 0.518-1.76 0.112l-0.126-0.111-5.338-5.333c-0.521-0.52-0.521-1.365-0.001-1.886 0.48-0.481 1.237-0.518 1.76-0.112l0.126 0.111 3.058 3.054v-15.44c0-0.684 0.515-1.247 1.178-1.324v0z"></path>
</svg>
