<!-- Generated by IcoMoon.io -->
<svg version="1.1" xmlns="http://www.w3.org/2000/svg" width="32" height="32" viewBox="0 0 32 32">
<title>arrow-reset-filled</title>
<path d="M9.609 3.391c0.521 0.521 0.521 1.365 0 1.886l-2.391 2.391h10.448c5.891 0 10.667 4.776 10.667 10.667s-4.776 10.667-10.667 10.667c-5.891 0-10.667-4.776-10.667-10.667 0-0.736 0.597-1.333 1.333-1.333s1.333 0.597 1.333 1.333c0 4.418 3.582 8 8 8s8-3.582 8-8c0-4.418-3.582-8-8-8h-10.448l2.391 2.391c0.521 0.521 0.521 1.365 0 1.886s-1.365 0.521-1.886 0l-4.667-4.667c-0.521-0.521-0.521-1.365 0-1.886l4.667-4.667c0.521-0.521 1.365-0.521 1.886 0z"></path>
</svg>
