<!-- Generated by IcoMoon.io -->
<svg version="1.1" xmlns="http://www.w3.org/2000/svg" width="32" height="32" viewBox="0 0 32 32">
<title>arrow-sync-filled</title>
<path d="M21.403 6.705c-0.17 0.222-0.273 0.503-0.273 0.808 0 0.431 0.204 0.814 0.521 1.058l0.003 0.002c2.245 1.723 3.678 4.407 3.678 7.426 0 4.645-3.392 8.497-7.834 9.216l-0.054 0.007 0.945-0.947c0.232-0.24 0.374-0.566 0.374-0.926 0-0.736-0.597-1.333-1.333-1.333-0.36 0-0.687 0.143-0.927 0.375l-3.333 3.333c-0.241 0.241-0.39 0.575-0.39 0.943s0.149 0.701 0.39 0.943l3.333 3.333c0.24 0.232 0.566 0.374 0.926 0.374 0.736 0 1.333-0.597 1.333-1.333 0-0.36-0.143-0.687-0.375-0.927l0 0-1.124-1.123c6.060-0.663 10.733-5.753 10.733-11.934 0-3.881-1.843-7.332-4.701-9.526l-0.029-0.021c-0.222-0.17-0.503-0.273-0.808-0.273-0.431 0-0.814 0.204-1.058 0.521l-0.002 0.003zM18.829 4.391l-3.333-3.333c-0.242-0.244-0.577-0.395-0.947-0.395-0.736 0-1.333 0.597-1.333 1.333 0 0.311 0.107 0.598 0.285 0.825l-0.002-0.003 0.111 0.125 1.124 1.124c-6.059 0.663-10.732 5.753-10.732 11.934 0 3.716 1.689 7.038 4.341 9.239l0.020 0.016c0.225 0.179 0.514 0.288 0.827 0.288 0.736 0 1.333-0.597 1.333-1.333 0-0.403-0.179-0.765-0.462-1.009l-0.002-0.001c-2.078-1.725-3.391-4.308-3.391-7.199 0-4.644 3.39-8.496 7.831-9.215l0.054-0.007-0.944 0.945c-0.24 0.241-0.389 0.574-0.389 0.941 0 0.736 0.597 1.333 1.333 1.333 0.309 0 0.593-0.105 0.819-0.281l-0.003 0.002 0.125-0.111 3.333-3.333c0.241-0.241 0.39-0.575 0.39-0.943 0-0.309-0.105-0.594-0.282-0.82l0.002 0.003-0.111-0.125z"></path>
</svg>
