<!-- Generated by IcoMoon.io -->
<svg version="1.1" xmlns="http://www.w3.org/2000/svg" width="32" height="32" viewBox="0 0 32 32">
<title>arrow-trending-settings-filled</title>
<path d="M26.667 4c0.736 0 1.333 0.597 1.333 1.333v0 6.667c0 0.736-0.597 1.333-1.333 1.333s-1.333-0.597-1.333-1.333v0-3.448l-7.724 7.724c-0.241 0.241-0.575 0.39-0.943 0.39s-0.701-0.149-0.943-0.39l-2.391-2.391-7.057 7.057c-0.24 0.232-0.566 0.374-0.926 0.374-0.736 0-1.333-0.597-1.333-1.333 0-0.36 0.143-0.687 0.375-0.927l8-8c0.241-0.241 0.575-0.39 0.943-0.39s0.701 0.149 0.943 0.39l2.391 2.391 6.781-6.781h-3.448c-0.736 0-1.333-0.597-1.333-1.333s0.597-1.333 1.333-1.333v0h6.667zM19.037 18.635c0.066 0.222 0.105 0.476 0.105 0.74 0 1.245-0.853 2.29-2.006 2.584l-0.018 0.004-0.78 0.192c-0.058 0.355-0.092 0.763-0.092 1.18 0 0.434 0.036 0.86 0.106 1.274l-0.006-0.045 0.72 0.173c1.181 0.291 2.042 1.341 2.042 2.593 0 0.269-0.040 0.528-0.114 0.773l0.005-0.019-0.249 0.843c0.587 0.515 1.253 0.932 1.98 1.229l0.657-0.693c0.487-0.511 1.172-0.829 1.932-0.829s1.446 0.318 1.932 0.829l0.001 0.001 0.665 0.7c0.76-0.313 1.413-0.723 1.985-1.224l-0.008 0.007-0.265-0.915c-0.066-0.221-0.105-0.476-0.105-0.739 0-1.246 0.854-2.292 2.009-2.585l0.018-0.004 0.777-0.192c0.058-0.355 0.092-0.764 0.092-1.18 0-0.434-0.036-0.86-0.106-1.275l0.006 0.045-0.719-0.173c-1.181-0.291-2.042-1.341-2.042-2.593 0-0.269 0.040-0.528 0.114-0.773l-0.005 0.019 0.248-0.84c-0.564-0.499-1.218-0.913-1.932-1.212l-0.046-0.017-0.657 0.691c-0.487 0.512-1.173 0.83-1.933 0.83s-1.447-0.318-1.932-0.829l-0.001-0.001-0.664-0.7c-0.759 0.313-1.413 0.723-1.986 1.223l0.008-0.007 0.264 0.916zM23.333 25.333c-1.067 0-1.933-0.896-1.933-2s0.867-2 1.933-2c1.067 0 1.933 0.896 1.933 2s-0.867 2-1.933 2z"></path>
</svg>
