<!-- Generated by IcoMoon.io -->
<svg version="1.1" xmlns="http://www.w3.org/2000/svg" width="32" height="32" viewBox="0 0 32 32">
<title>arrow-sync-circle-filled</title>
<path d="M16 29.333c-7.364 0-13.333-5.97-13.333-13.333s5.97-13.333 13.333-13.333c7.364 0 13.333 5.97 13.333 13.333s-5.97 13.333-13.333 13.333zM20.361 14.333h-1.694c-0.552 0-1 0.448-1 1s0.448 1 1 1h3.667c0.552 0 1-0.448 1-1v-4.333c0-0.552-0.448-1-1-1s-1 0.448-1 1v0.999c-1.216-1.619-3.152-2.666-5.333-2.666-2.049 0-3.872 0.88-5.103 2.361-0.353 0.425-0.295 1.055 0.13 1.408s1.055 0.295 1.408-0.13c0.849-1.021 2.107-1.639 3.564-1.639 1.99 0 3.69 1.246 4.361 3zM10.667 21v-1c1.216 1.619 3.152 2.667 5.333 2.667 2.033 0 3.872-0.912 5.095-2.351 0.358-0.421 0.307-1.052-0.114-1.41s-1.052-0.307-1.41 0.114c-0.856 1.007-2.144 1.646-3.571 1.646-1.861 0-3.469-1.089-4.218-2.667h1.551c0.552 0 1-0.448 1-1s-0.448-1-1-1h-3.667c-0.552 0-1 0.448-1 1v4c0 0.552 0.448 1 1 1s1-0.448 1-1z"></path>
</svg>
