<!-- Generated by IcoMoon.io -->
<svg version="1.1" xmlns="http://www.w3.org/2000/svg" width="32" height="32" viewBox="0 0 32 32">
<title>arrow-bidirectional-up-down-filled</title>
<path d="M10.633 12.918c-0.507 0.534-1.351 0.556-1.885 0.048s-0.556-1.351-0.048-1.885l6.333-6.667c0.252-0.265 0.601-0.415 0.967-0.415s0.715 0.15 0.967 0.415l6.333 6.667c0.507 0.534 0.486 1.378-0.048 1.885s-1.378 0.486-1.885-0.048l-4.033-4.246v14.655l4.033-4.246c0.507-0.534 1.351-0.556 1.885-0.048s0.555 1.351 0.048 1.885l-6.333 6.667c-0.252 0.265-0.601 0.415-0.967 0.415s-0.715-0.15-0.967-0.415l-6.333-6.667c-0.507-0.534-0.486-1.378 0.048-1.885s1.378-0.486 1.885 0.048l4.033 4.246v-14.655l-4.033 4.246z"></path>
</svg>
