<!-- Generated by IcoMoon.io -->
<svg version="1.1" xmlns="http://www.w3.org/2000/svg" width="32" height="32" viewBox="0 0 32 32">
<title>arrow-forward-filled</title>
<path d="M22.519 15.333l-4.139 4.139c-0.211 0.211-0.341 0.502-0.341 0.824 0 0.644 0.522 1.167 1.167 1.167 0.282 0 0.541-0.1 0.743-0.267l-0.002 0.002 0.083-0.075 6.128-6.129c0.211-0.211 0.342-0.503 0.342-0.825 0-0.283-0.1-0.542-0.267-0.743l0.002 0.002-0.076-0.083-6.128-6.128c-0.211-0.211-0.502-0.341-0.824-0.341-0.644 0-1.167 0.522-1.167 1.167 0 0.282 0.1 0.541 0.267 0.743l-0.002-0.002 0.075 0.083 4.136 4.135h-5.183c-2.228 0-4.303 0.496-6.105 1.445l-0.268 0.145c-1.843 1.043-3.327 2.527-4.341 4.314l-0.029 0.056c-1.044 1.863-1.591 4.033-1.591 6.373 0 0.644 0.522 1.167 1.167 1.167s1.167-0.522 1.167-1.167v0c0-1.947 0.447-3.725 1.293-5.232 0.829-1.466 2.010-2.647 3.431-3.453l0.045-0.023c1.423-0.798 3.088-1.241 4.909-1.288l0.323-0.005h5.185z"></path>
</svg>
