<!-- Generated by IcoMoon.io -->
<svg version="1.1" xmlns="http://www.w3.org/2000/svg" width="32" height="32" viewBox="0 0 32 32">
<title>arrow-next-filled</title>
<path d="M24 4c0.684 0 1.247 0.515 1.324 1.178l0.009 0.155v21.333c0 0.736-0.597 1.333-1.333 1.333-0.684 0-1.247-0.515-1.324-1.178l-0.009-0.155v-21.333c0-0.736 0.597-1.333 1.333-1.333zM7.057 4.391c0.481-0.481 1.237-0.518 1.76-0.111l0.126 0.111 10.667 10.667c0.481 0.481 0.518 1.237 0.111 1.76l-0.111 0.126-10.667 10.667c-0.521 0.521-1.365 0.521-1.886 0-0.481-0.481-0.518-1.237-0.111-1.76l0.111-0.126 9.724-9.724-9.724-9.724c-0.521-0.521-0.521-1.365 0-1.886z"></path>
</svg>
