<!-- Generated by IcoMoon.io -->
<svg version="1.1" xmlns="http://www.w3.org/2000/svg" width="32" height="32" viewBox="0 0 32 32">
<title>arrow-sort-down-filled</title>
<path d="M15.844 5.347l0.156-0.007c0.681 0 1.243 0.511 1.323 1.171l0.001 0.006 0.009 0.156v15.445l3.057-3.059c0.241-0.242 0.575-0.391 0.944-0.391 0.309 0 0.593 0.105 0.819 0.281l-0.003-0.002 0.125 0.111c0.242 0.241 0.391 0.575 0.391 0.944 0 0.309-0.105 0.593-0.281 0.819l0.002-0.003-0.112 0.127-5.328 5.333c-0.241 0.241-0.575 0.39-0.943 0.39-0.309 0-0.594-0.105-0.82-0.282l0.003 0.002-0.125-0.111-5.339-5.333c-0.244-0.242-0.395-0.577-0.395-0.947 0-0.736 0.597-1.333 1.333-1.333 0.311 0 0.598 0.107 0.825 0.285l-0.003-0.002 0.125 0.111 3.057 3.052v-15.439c0.001-0.681 0.512-1.242 1.171-1.322l0.006-0.001 0.156-0.011-0.156 0.009z"></path>
</svg>
