<!-- Generated by IcoMoon.io -->
<svg version="1.1" xmlns="http://www.w3.org/2000/svg" width="32" height="32" viewBox="0 0 32 32">
<title>attach-arrow-right-filled</title>
<path d="M21.333 2.667c4.418 0 8 3.582 8 8 0 1.882-0.654 3.662-1.815 5.075-0.844-0.466-1.773-0.795-2.759-0.959l0.307-0.307 0.211-0.219c0.887-0.973 1.389-2.24 1.389-3.59 0-2.946-2.388-5.333-5.333-5.333-1.415 0-2.739 0.553-3.727 1.518l-0.206 0.213-0.025 0.017-12.434 12.439c-0.521 0.521-1.365 0.521-1.886 0s-0.521-1.365-0-1.886l12.474-12.475c1.499-1.579 3.579-2.494 5.803-2.494zM14.783 24.757c0.165 1 0.502 1.941 0.978 2.795l-0.455 0.455-0.071 0.066-0.074 0.060c-0.892 0.768-2.032 1.2-3.236 1.2-2.74 0-4.961-2.221-4.961-4.961 0-1.202 0.431-2.339 1.194-3.229l0.198-0.217 0.020-0.016 9.721-9.738c0.52-0.521 1.365-0.522 1.886-0.002s0.522 1.364 0.002 1.886l-9.736 9.75c-0.395 0.423-0.618 0.975-0.618 1.567 0 1.267 1.027 2.295 2.295 2.295 0.505 0 0.983-0.163 1.375-0.457l0.163-0.134 0.001 0.002 1.32-1.32zM30.667 23.333c0 4.050-3.283 7.333-7.333 7.333s-7.333-3.283-7.333-7.333 3.283-7.333 7.333-7.333c4.050 0 7.333 3.283 7.333 7.333zM19.333 22.667c-0.368 0-0.667 0.299-0.667 0.667s0.299 0.667 0.667 0.667h6.391l-2.195 2.195c-0.26 0.26-0.26 0.683 0 0.943s0.682 0.26 0.943 0l3.333-3.333c0.26-0.26 0.26-0.683 0-0.943l-3.333-3.333c-0.26-0.26-0.683-0.26-0.943 0s-0.26 0.683 0 0.943l2.195 2.195h-6.391z"></path>
</svg>
