<!-- Generated by IcoMoon.io -->
<svg version="1.1" xmlns="http://www.w3.org/2000/svg" width="32" height="32" viewBox="0 0 32 32">
<title>attach-text-filled</title>
<path d="M9.333 4c3.58 0 6.501 2.822 6.659 6.363l0.001 0.014 0.007 0.289v14.667c0 0.001 0 0.003 0 0.004 0 2.209-1.791 4-4 4-2.128 0-3.868-1.662-3.993-3.758l-0.001-0.011-0.007-0.235v-13.333c0.001-0.736 0.597-1.332 1.333-1.332 0.681 0 1.243 0.51 1.323 1.169l0.001 0.006 0.009 0.156v13.333c0.001 0.736 0.597 1.332 1.333 1.332 0.681 0 1.243-0.51 1.323-1.169l0.001-0.006 0.009-0.156v-14.667c0-0.001 0-0.002 0-0.004 0-2.209-1.791-4-4-4-2.128 0-3.868 1.662-3.993 3.758l-0.001 0.011-0.007 0.235v12c-0.001 0.736-0.597 1.332-1.333 1.332-0.681 0-1.243-0.51-1.323-1.169l-0.001-0.006-0.009-0.156v-12c0-3.682 2.985-6.667 6.667-6.667v0zM20 22.667h2.667c0.736 0.001 1.332 0.597 1.332 1.333 0 0.681-0.51 1.243-1.169 1.323l-0.006 0.001-0.156 0.009h-2.667c-0.736-0.001-1.332-0.597-1.332-1.333 0-0.681 0.51-1.243 1.169-1.323l0.006-0.001 0.156-0.009zM20 17.333h7.333c0.736 0.001 1.332 0.597 1.332 1.333 0 0.681-0.51 1.243-1.169 1.323l-0.006 0.001-0.156 0.009h-7.333c-0.736-0.001-1.332-0.597-1.332-1.333 0-0.681 0.51-1.243 1.169-1.323l0.006-0.001 0.156-0.009zM20 12h7.333c0.736 0.001 1.332 0.597 1.332 1.333 0 0.681-0.51 1.243-1.169 1.323l-0.006 0.001-0.156 0.009h-7.333c-0.736-0.001-1.332-0.597-1.332-1.333 0-0.681 0.51-1.243 1.169-1.323l0.006-0.001 0.156-0.009zM20 6.667h7.333c0.736 0.001 1.332 0.597 1.332 1.333 0 0.681-0.51 1.243-1.169 1.323l-0.006 0.001-0.156 0.009h-7.333c-0.736-0.001-1.332-0.597-1.332-1.333 0-0.681 0.51-1.243 1.169-1.323l0.006-0.001 0.156-0.009z"></path>
</svg>
