<!-- Generated by IcoMoon.io -->
<svg version="1.1" xmlns="http://www.w3.org/2000/svg" width="32" height="32" viewBox="0 0 32 32">
<title>attach-filled</title>
<path d="M21.333 2.667c0.001 0 0.001 0 0.002 0 4.418 0 8 3.582 8 8 0 2.106-0.814 4.022-2.144 5.45l0.004-0.005-0.253 0.259-11.707 11.703-0.075 0.060c-0.864 0.748-1.998 1.204-3.239 1.204-2.74 0-4.961-2.221-4.961-4.961 0-1.237 0.453-2.369 1.202-3.238l-0.005 0.006 0.199-0.219 0.020-0.015 9.72-9.739c0.241-0.242 0.575-0.392 0.944-0.392 0.737 0 1.334 0.597 1.334 1.334 0 0.368-0.149 0.701-0.39 0.942l-9.736 9.749c-0.384 0.409-0.62 0.961-0.62 1.568 0 1.267 1.027 2.295 2.295 2.295 0.519 0 0.998-0.172 1.383-0.463l-0.006 0.004 0.163-0.133 0.001 0.001 11.815-11.82c0.861-0.944 1.388-2.205 1.388-3.589 0-2.946-2.388-5.333-5.333-5.333-1.45 0-2.765 0.579-3.727 1.518l0.001-0.001-0.207 0.213-0.024 0.016-12.435 12.44c-0.241 0.241-0.575 0.39-0.943 0.39-0.737 0-1.334-0.597-1.334-1.334 0-0.368 0.149-0.702 0.391-0.943v0l12.473-12.475c1.458-1.537 3.514-2.493 5.795-2.493 0.003 0 0.007 0 0.010 0h-0.001z"></path>
</svg>
