<!-- Generated by IcoMoon.io -->
<svg version="1.1" xmlns="http://www.w3.org/2000/svg" width="32" height="32" viewBox="0 0 32 32">
<title>autosum-filled</title>
<path d="M6.439 6.146c0.209-0.493 0.692-0.813 1.228-0.813h16.667c0.736 0 1.333 0.597 1.333 1.333s-0.597 1.333-1.333 1.333h-13.521l6.6 6.82c0.479 0.495 0.502 1.272 0.054 1.795l-6.901 8.051h13.768c0.736 0 1.333 0.597 1.333 1.333s-0.597 1.333-1.333 1.333h-16.667c-0.521 0-0.994-0.303-1.211-0.776s-0.14-1.030 0.199-1.425l7.998-9.33-7.943-8.208c-0.372-0.385-0.478-0.955-0.269-1.448z"></path>
</svg>
