<!-- Generated by IcoMoon.io -->
<svg version="1.1" xmlns="http://www.w3.org/2000/svg" width="32" height="32" viewBox="0 0 32 32">
<title>auto-fit-width-filled</title>
<path d="M4 24c0 0.736 0.597 1.333 1.333 1.333s1.333-0.597 1.333-1.333v0-16c0-0.736-0.597-1.333-1.333-1.333s-1.333 0.597-1.333 1.333v0 16zM25.333 24c0 0.736 0.597 1.333 1.333 1.333s1.333-0.597 1.333-1.333v0-16c0-0.736-0.597-1.333-1.333-1.333s-1.333 0.597-1.333 1.333v0 16zM18.381 18.4l-0.113 0.129-0.008 0.011c-0.164 0.219-0.262 0.495-0.262 0.794 0 0.736 0.597 1.333 1.333 1.333 0.368 0 0.702-0.149 0.943-0.391v0l3.133-3.131c0.365-0.239 0.592-0.672 0.592-1.147s-0.227-0.908-0.592-1.147l-3.141-3.139-0.131-0.113-0.011-0.007c-0.219-0.164-0.495-0.262-0.794-0.262-0.368 0-0.701 0.149-0.942 0.39v0l-0.008 0.009-0.121 0.14c-0.163 0.219-0.261 0.494-0.261 0.793 0 0.368 0.149 0.702 0.391 0.943v0l1.059 1.060-6.896 0.003 1.068-1.069 0.124-0.147 0.008-0.011c0.155-0.215 0.249-0.485 0.249-0.775 0-0.299-0.098-0.575-0.265-0.797l0.002 0.004-0.007-0.011-0.121-0.14-0.156-0.133-0.011-0.007c-0.215-0.155-0.485-0.249-0.775-0.249-0.299 0-0.575 0.098-0.797 0.265l0.004-0.002-0.011 0.007-0.131 0.112-3.147 3.145-0.087 0.060-0.009 0.008c-0.301 0.255-0.491 0.633-0.491 1.055 0 0.006 0 0.012 0 0.018v-0.001c0 0.475 0.227 0.908 0.591 1.147l3.143 3.14 0.131 0.113 0.011 0.007c0.219 0.164 0.495 0.263 0.795 0.263 0.736 0 1.333-0.597 1.333-1.333 0-0.299-0.099-0.576-0.265-0.798l0.002 0.003-0.008-0.009-0.113-0.131-1.067-1.067 6.896-0.001-1.067 1.067z"></path>
</svg>
