<!-- Generated by IcoMoon.io -->
<svg version="1.1" xmlns="http://www.w3.org/2000/svg" width="32" height="32" viewBox="0 0 32 32">
<title>auto-fit-width-filled</title>
<path d="M4 24c0 0.736 0.597 1.333 1.333 1.333s1.333-0.597 1.333-1.333v-16c0-0.736-0.597-1.333-1.333-1.333s-1.333 0.597-1.333 1.333v16z"></path>
<path d="M25.333 24c0 0.736 0.597 1.333 1.333 1.333s1.333-0.597 1.333-1.333v-16c0-0.736-0.597-1.333-1.333-1.333s-1.333 0.597-1.333 1.333v16z"></path>
<path d="M18.381 18.399l-0.113 0.131-0.007 0.010c-0.387 0.522-0.345 1.263 0.129 1.736 0.521 0.521 1.365 0.521 1.886 0l3.134-3.13c0.365-0.239 0.591-0.673 0.591-1.147s-0.227-0.909-0.592-1.147l-3.142-3.138-0.131-0.113-0.010-0.007c-0.522-0.387-1.263-0.345-1.736 0.129l-0.009 0.009-0.113 0.131-0.007 0.010c-0.387 0.522-0.345 1.263 0.129 1.736l1.059 1.059-6.897 0.002 1.069-1.069 0.124-0.146 0.008-0.011c0.336-0.469 0.332-1.105-0.013-1.57l-0.007-0.010-0.122-0.141-0.155-0.132-0.011-0.008c-0.469-0.336-1.105-0.332-1.57 0.013l-0.010 0.007-0.131 0.113-3.148 3.145-0.086 0.061-0.009 0.007c-0.305 0.248-0.491 0.643-0.491 1.073 0 0.475 0.227 0.909 0.591 1.147l3.142 3.139 0.131 0.113 0.010 0.007c0.522 0.387 1.263 0.345 1.736-0.129s0.516-1.214 0.129-1.736l-0.007-0.010-0.113-0.131-1.067-1.066 6.896-0.002-1.067 1.066z"></path>
</svg>
