<!-- Generated by IcoMoon.io -->
<svg version="1.1" xmlns="http://www.w3.org/2000/svg" width="32" height="32" viewBox="0 0 32 32">
<title>auto-fit-height-filled</title>
<path d="M8 4c-0.736 0-1.333 0.597-1.333 1.333s0.597 1.333 1.333 1.333v0h16c0.736 0 1.333-0.597 1.333-1.333s-0.597-1.333-1.333-1.333v0h-16zM13.805 18.268l0.132 0.113 1.065 1.067v-2.609l-0.003-0.035v-4.252l-1.067 1.067-0.129 0.113-0.011 0.008c-0.22 0.165-0.497 0.264-0.797 0.264-0.736 0-1.333-0.597-1.333-1.333 0-0.301 0.1-0.578 0.267-0.801l-0.002 0.003 0.12-0.14 3.139-3.143c0.24-0.364 0.673-0.591 1.147-0.591 0.432 0 0.827 0.187 1.075 0.491l0.007 0.009 0.061 0.085 3.144 3.148 0.113 0.131 0.007 0.011c0.164 0.219 0.262 0.495 0.262 0.794 0 0.291-0.093 0.56-0.251 0.779l0.003-0.004-0.008 0.011-0.132 0.156-0.151 0.129c-0.219 0.164-0.495 0.262-0.794 0.262-0.291 0-0.56-0.093-0.779-0.251l0.004 0.003-0.012-0.009-0.147-0.124-1.068-1.068v2.609l0.003 0.035v4.253l1.059-1.060c0.241-0.242 0.575-0.391 0.944-0.391 0.299 0 0.575 0.098 0.797 0.265l-0.003-0.003 0.009 0.008 0.14 0.121c0.241 0.241 0.39 0.574 0.39 0.942 0 0.299-0.098 0.575-0.265 0.797l0.003-0.003-0.007 0.011-0.113 0.131-3.139 3.141c-0.249 0.36-0.66 0.592-1.125 0.592-0.008 0-0.015-0-0.023-0h0.001c-0.475 0-0.908-0.227-1.147-0.591l-3.131-3.133c-0.245-0.242-0.396-0.578-0.396-0.949 0-0.736 0.597-1.333 1.333-1.333 0.301 0 0.579 0.1 0.802 0.268l-0.003-0.002 0.011 0.008zM6.667 26.667c0-0.736 0.597-1.333 1.333-1.333v0h16c0.736 0 1.333 0.597 1.333 1.333s-0.597 1.333-1.333 1.333v0h-16c-0.736 0-1.333-0.597-1.333-1.333v0z"></path>
</svg>
