<!-- Generated by IcoMoon.io -->
<svg version="1.1" xmlns="http://www.w3.org/2000/svg" width="32" height="32" viewBox="0 0 32 32">
<title>autocorrect-filled</title>
<path d="M18.125 6.297c0.511 0.321 0.943 0.752 1.264 1.264 1.486 2.37 2.763 4.406 3.83 6.107l5.448-0.001c0.736 0 1.333 0.597 1.333 1.333s-0.597 1.333-1.333 1.333l-3.667-0.002c0.838 1.115 1.334 2.5 1.334 4.002 0 3.682-2.985 6.667-6.667 6.667s-6.667-2.985-6.667-6.667c0-3.682 2.985-6.667 6.667-6.667l0.404-0.001-0.378-0.603c-0.786-1.252-1.64-2.614-2.563-4.085-0.107-0.17-0.251-0.314-0.421-0.421-0.579-0.363-1.33-0.227-1.748 0.294l-0.090 0.127-10.074 16.064c-0.391 0.624-1.214 0.813-1.838 0.421-0.579-0.363-0.783-1.099-0.496-1.701l0.075-0.136 10.074-16.064c1.174-1.872 3.642-2.437 5.514-1.264zM19.667 16.333c-2.209 0-4 1.791-4 4s1.791 4 4 4c2.209 0 4-1.791 4-4s-1.791-4-4-4z"></path>
</svg>
