<!-- Generated by IcoMoon.io -->
<svg version="1.1" xmlns="http://www.w3.org/2000/svg" width="32" height="32" viewBox="0 0 32 32">
<title>autosum-filled</title>
<path d="M6.44 6.147c0.208-0.482 0.679-0.813 1.227-0.813h16.667c0.736 0 1.333 0.597 1.333 1.333s-0.597 1.333-1.333 1.333v0h-13.52l6.6 6.82c0.232 0.24 0.375 0.566 0.375 0.927 0 0.332-0.122 0.636-0.323 0.87l0.001-0.002-6.901 8.052h13.768c0.736 0 1.333 0.597 1.333 1.333s-0.597 1.333-1.333 1.333v0h-16.667c-0 0-0 0-0 0-0.736 0-1.333-0.597-1.333-1.333 0-0.332 0.121-0.635 0.322-0.868l-0.002 0.002 7.999-9.332-7.945-8.208c-0.231-0.239-0.373-0.566-0.373-0.925 0-0.188 0.039-0.368 0.11-0.53l-0.003 0.009z"></path>
</svg>
