<!-- Generated by IcoMoon.io -->
<svg version="1.1" xmlns="http://www.w3.org/2000/svg" width="32" height="32" viewBox="0 0 32 32">
<title>auto-fit-height-filled</title>
<path d="M8 4c-0.736 0-1.333 0.597-1.333 1.333s0.597 1.333 1.333 1.333h16c0.736 0 1.333-0.597 1.333-1.333s-0.597-1.333-1.333-1.333h-16z"></path>
<path d="M13.806 18.268l0.131 0.113 1.066 1.067v-2.609l-0.003-0.034v-4.252l-1.066 1.067-0.131 0.113-0.010 0.007c-0.522 0.387-1.263 0.345-1.736-0.129s-0.516-1.214-0.129-1.736l0.007-0.010 0.113-0.131 3.139-3.142c0.239-0.365 0.673-0.591 1.147-0.591 0.431 0 0.825 0.186 1.073 0.491l0.007 0.009 0.061 0.086 3.145 3.148 0.113 0.131 0.007 0.010c0.345 0.465 0.349 1.101 0.013 1.57l-0.008 0.011-0.132 0.155-0.141 0.122-0.010 0.007c-0.465 0.345-1.101 0.349-1.57 0.013l-0.011-0.008-0.146-0.124-1.069-1.069v2.61l0.003 0.034v4.253l1.059-1.059c0.474-0.474 1.214-0.516 1.736-0.129l0.010 0.007 0.131 0.113 0.009 0.009c0.474 0.474 0.516 1.214 0.129 1.736l-0.007 0.010-0.113 0.131-3.139 3.142c-0.239 0.365-0.672 0.592-1.147 0.592s-0.909-0.227-1.147-0.591l-3.13-3.134c-0.521-0.521-0.521-1.365 0-1.886 0.474-0.474 1.214-0.516 1.736-0.129l0.010 0.007z"></path>
<path d="M6.667 26.667c0-0.736 0.597-1.333 1.333-1.333h16c0.736 0 1.333 0.597 1.333 1.333s-0.597 1.333-1.333 1.333h-16c-0.736 0-1.333-0.597-1.333-1.333z"></path>
</svg>
