<!-- Generated by IcoMoon.io -->
<svg version="1.1" xmlns="http://www.w3.org/2000/svg" width="32" height="32" viewBox="0 0 32 32">
<title>backpack-add-filled</title>
<path d="M10.346 7.62c0.204-2.962 2.658-5.288 5.654-5.288s5.45 2.326 5.653 5.27l0.001 0.018c2.644 1.656 4.51 4.439 4.925 7.675-0.957-0.397-2.069-0.628-3.234-0.628-0.004 0-0.008 0-0.012 0h0.001c-0.001 0-0.003 0-0.004 0-0.777 0-1.531 0.102-2.248 0.293l0.061-0.014c0.121-0.241 0.191-0.524 0.191-0.825 0-0.001 0-0.001 0-0.002v0c0-1.907-1.546-3.453-3.453-3.453h-3.761c-0 0-0 0-0.001 0-1.907 0-3.453 1.546-3.453 3.453v0c0 1.039 0.842 1.881 1.881 1.881v0h6.165c-1.086 0.693-1.984 1.586-2.663 2.633l-0.021 0.034h-10.696v-2c0-3.814 2.002-7.161 5.013-9.047zM19.365 6.542c-0.578-1.311-1.867-2.21-3.365-2.21s-2.787 0.899-3.356 2.187l-0.009 0.023c1.001-0.344 2.155-0.542 3.355-0.542 0.004 0 0.007 0 0.011 0h-0.001c1.176 0 2.307 0.19 3.365 0.542zM14.667 23.333c0-1.055 0.188-2.065 0.533-3h-2.867v2.167c0 0.46-0.373 0.833-0.833 0.833s-0.833-0.373-0.833-0.833v0-2.167h-5.333v5.5c0 1.933 1.567 3.5 3.5 3.5h8.247c-1.493-1.55-2.413-3.662-2.413-5.989 0-0.004 0-0.008 0-0.012v0.001zM12.333 14.119c0-0.986 0.8-1.786 1.786-1.786h3.761c0.986 0 1.786 0.8 1.786 1.786v0c0 0.118-0.096 0.214-0.214 0.214v0h-6.906c-0.118 0-0.214-0.096-0.214-0.214v0zM30.667 23.333c0 4.050-3.283 7.333-7.333 7.333s-7.333-3.283-7.333-7.333 3.283-7.333 7.333-7.333 7.333 3.283 7.333 7.333zM24 18.667c0-0.368-0.298-0.667-0.667-0.667s-0.667 0.298-0.667 0.667v0 4h-4c-0.368 0-0.667 0.298-0.667 0.667s0.298 0.667 0.667 0.667v0h4v4c0 0.368 0.298 0.667 0.667 0.667s0.667-0.298 0.667-0.667v0-4h4c0.368 0 0.667-0.298 0.667-0.667s-0.298-0.667-0.667-0.667v0h-4v-4z"></path>
</svg>
