<!-- Generated by IcoMoon.io -->
<svg version="1.1" xmlns="http://www.w3.org/2000/svg" width="32" height="32" viewBox="0 0 32 32">
<title>backspace-filled</title>
<path d="M25 5.333c2.311 0 4.199 1.809 4.327 4.087l0.007 0.246v12.667c0 2.311-1.809 4.199-4.087 4.327l-0.246 0.007h-11.335c-1.019 0-2.002-0.359-2.779-1.009l-0.207-0.184-6.661-6.333c-1.734-1.649-1.804-4.392-0.154-6.126l0.154-0.154 6.661-6.333c0.738-0.702 1.698-1.119 2.709-1.184l0.277-0.009h11.335zM15.262 11.196c-0.391-0.29-0.947-0.258-1.302 0.097s-0.387 0.911-0.097 1.302l0.097 0.112 3.293 3.293-3.293 3.293-0.097 0.112c-0.29 0.391-0.258 0.947 0.097 1.302s0.911 0.387 1.302 0.097l0.112-0.097 3.293-3.292 3.293 3.292 0.112 0.097c0.391 0.291 0.947 0.258 1.302-0.097s0.387-0.911 0.097-1.302l-0.097-0.112-3.292-3.293 3.292-3.293 0.097-0.112c0.291-0.391 0.258-0.947-0.097-1.302s-0.911-0.387-1.302-0.097l-0.112 0.097-3.293 3.292-3.293-3.292-0.112-0.097z"></path>
</svg>
