<!-- Generated by IcoMoon.io -->
<svg version="1.1" xmlns="http://www.w3.org/2000/svg" width="32" height="32" viewBox="0 0 32 32">
<title>backpack-filled</title>
<path d="M14.119 12.333c-0.986 0-1.786 0.8-1.786 1.786v0c0 0.118 0.096 0.214 0.214 0.214h6.906c0.118 0 0.214-0.096 0.214-0.214v0c-0-0.986-0.8-1.786-1.786-1.786h-3.761zM16 2.667c-2.737 0-4.993 2.062-5.298 4.717l-0.002 0.025c-3.207 1.839-5.366 5.297-5.366 9.258v2h21.333v-2c0-3.961-2.16-7.419-5.366-9.258-0.308-2.68-2.564-4.742-5.301-4.742v0zM16 6c-1.176 0-2.307 0.19-3.365 0.542 0.578-1.311 1.867-2.21 3.365-2.21s2.787 0.899 3.356 2.187l0.009 0.023c-1.001-0.344-2.155-0.542-3.355-0.542-0.004 0-0.007 0-0.011 0h0.001zM10.667 14.119c0-1.907 1.546-3.453 3.453-3.453h3.761c1.907 0 3.453 1.546 3.453 3.453v0c0 1.039-0.842 1.881-1.881 1.881v0h-6.906c-1.038-0-1.88-0.842-1.88-1.881v0zM10.667 20.333v2.167c0 0.46 0.373 0.833 0.833 0.833s0.833-0.373 0.833-0.833v0-2.167h14.333v5.5c0 1.933-1.567 3.5-3.5 3.5h-14.333c-1.933 0-3.5-1.567-3.5-3.5v0-5.5h5.333z"></path>
</svg>
