<!-- Generated by IcoMoon.io -->
<svg version="1.1" xmlns="http://www.w3.org/2000/svg" width="32" height="32" viewBox="0 0 32 32">
<title>backpack-add-filled</title>
<path d="M11.019 7.232c0.22-2.558 2.366-4.566 4.981-4.566s4.761 2.008 4.981 4.566c2.997 1.586 5.148 4.558 5.598 8.063-1.003-0.405-2.098-0.628-3.246-0.628-0.797 0-1.568 0.107-2.301 0.309 0.191-0.317 0.301-0.689 0.301-1.086 0-1.78-1.443-3.222-3.222-3.222h-4.222c-1.78 0-3.222 1.443-3.222 3.222 0 1.166 0.945 2.111 2.111 2.111h5.935c-1.078 0.681-1.996 1.593-2.683 2.667h-10.696v-2c0-4.092 2.304-7.645 5.685-9.434zM13.307 6.343c0.86-0.224 1.763-0.343 2.693-0.343s1.833 0.119 2.693 0.343c-0.489-0.993-1.511-1.676-2.693-1.676s-2.204 0.683-2.693 1.676z"></path>
<path d="M14.998 20.952h-2.331v2.048c0 0.552-0.448 1-1 1s-1-0.448-1-1v-2.048h-5.333v4.048c0 2.393 1.94 4.333 4.333 4.333h7.413c-1.494-1.557-2.413-3.671-2.413-6 0-0.826 0.115-1.624 0.331-2.381z"></path>
<path d="M12.667 13.889c0-0.675 0.547-1.222 1.222-1.222h4.222c0.675 0 1.222 0.547 1.222 1.222 0 0.061-0.050 0.111-0.111 0.111h-6.444c-0.061 0-0.111-0.050-0.111-0.111z"></path>
<path d="M23.333 16c4.050 0 7.333 3.283 7.333 7.333s-3.283 7.333-7.333 7.333c-4.050 0-7.333-3.283-7.333-7.333s3.283-7.333 7.333-7.333zM24.001 27.338l-0.001-3.338h3.328c0.368 0 0.666-0.298 0.666-0.667s-0.298-0.667-0.666-0.667h-3.328l-0.001-3.334c0-0.368-0.299-0.667-0.667-0.667s-0.667 0.298-0.667 0.667l0.001 3.334h-3.34c-0.368 0-0.666 0.299-0.666 0.667s0.298 0.667 0.666 0.667h3.34l0.001 3.338c0 0.368 0.299 0.667 0.667 0.667s0.667-0.298 0.667-0.667z"></path>
</svg>
