<!-- Generated by IcoMoon.io -->
<svg version="1.1" xmlns="http://www.w3.org/2000/svg" width="32" height="32" viewBox="0 0 32 32">
<title>backspace-filled</title>
<path d="M25 5.333c0 0 0 0 0 0 2.307 0 4.193 1.803 4.326 4.076l0.001 0.012 0.007 0.245v12.667c0 0 0 0 0 0 0 2.307-1.803 4.193-4.076 4.326l-0.012 0.001-0.245 0.007h-11.335c-0 0-0.001 0-0.002 0-1.060 0-2.032-0.381-2.785-1.013l0.007 0.005-0.207-0.185-6.66-6.333c-0.831-0.791-1.347-1.905-1.347-3.14 0-1.158 0.454-2.21 1.194-2.987l-0.002 0.002 0.155-0.155 6.66-6.333c0.71-0.676 1.653-1.115 2.696-1.183l0.013-0.001 0.279-0.009h11.335zM15.261 11.196c-0.164-0.123-0.372-0.198-0.597-0.198-0.552 0-1 0.448-1 1 0 0.225 0.074 0.433 0.2 0.6l-0.002-0.003 0.097 0.111 3.293 3.293-3.293 3.293-0.097 0.112c-0.123 0.164-0.198 0.372-0.198 0.597 0 0.552 0.448 1 1 1 0.225 0 0.433-0.074 0.6-0.2l-0.003 0.002 0.111-0.097 3.293-3.292 3.293 3.293 0.112 0.096c0.164 0.123 0.372 0.198 0.597 0.198 0.552 0 1-0.448 1-1 0-0.225-0.074-0.433-0.2-0.6l0.002 0.003-0.097-0.111-3.292-3.293 3.293-3.293 0.096-0.112c0.123-0.164 0.198-0.372 0.198-0.597 0-0.552-0.448-1-1-1-0.225 0-0.433 0.074-0.6 0.2l0.003-0.002-0.111 0.097-3.293 3.292-3.293-3.293-0.112-0.096z"></path>
</svg>
