<!-- Generated by IcoMoon.io -->
<svg version="1.1" xmlns="http://www.w3.org/2000/svg" width="32" height="32" viewBox="0 0 32 32">
<title>barcode-scanner-filled</title>
<path d="M2.667 8c0-2.209 1.791-4 4-4v0h2c0.736 0 1.333 0.597 1.333 1.333s-0.597 1.333-1.333 1.333v0h-2c-0.736 0-1.333 0.597-1.333 1.333v0 2c0 0.736-0.597 1.333-1.333 1.333s-1.333-0.597-1.333-1.333v0-2zM22 5.333c0-0.736 0.597-1.333 1.333-1.333v0h2c2.209 0 4 1.791 4 4v0 2c0 0.736-0.597 1.333-1.333 1.333s-1.333-0.597-1.333-1.333v0-2c0-0.736-0.597-1.333-1.333-1.333v0h-2c-0.736 0-1.333-0.597-1.333-1.333v0zM4 20.667c0.736 0 1.333 0.597 1.333 1.333v0 2c0 0.736 0.597 1.333 1.333 1.333v0h2c0.736 0 1.333 0.597 1.333 1.333s-0.597 1.333-1.333 1.333v0h-2c-2.209 0-4-1.791-4-4v0-2c0-0.736 0.597-1.333 1.333-1.333v0zM28 20.667c0.736 0 1.333 0.597 1.333 1.333v0 2c0 2.209-1.791 4-4 4v0h-2c-0.736 0-1.333-0.597-1.333-1.333s0.597-1.333 1.333-1.333v0h2c0.736 0 1.333-0.597 1.333-1.333v0-2c0-0.736 0.597-1.333 1.333-1.333v0zM8 9c0.736 0 1.333 0.597 1.333 1.333v0 11.333c0 0.736-0.597 1.333-1.333 1.333s-1.333-0.597-1.333-1.333v0-11.333c0-0.736 0.597-1.333 1.333-1.333v0zM14.667 10.333c0-0.736-0.597-1.333-1.333-1.333s-1.333 0.597-1.333 1.333v0 11.333c0 0.736 0.597 1.333 1.333 1.333s1.333-0.597 1.333-1.333v0-11.333zM18.667 9c0.736 0 1.333 0.597 1.333 1.333v0 11.333c0 0.736-0.597 1.333-1.333 1.333s-1.333-0.597-1.333-1.333v0-11.333c0-0.736 0.597-1.333 1.333-1.333v0zM25.333 10.333c0-0.736-0.597-1.333-1.333-1.333s-1.333 0.597-1.333 1.333v0 11.333c0 0.736 0.597 1.333 1.333 1.333s1.333-0.597 1.333-1.333v0-11.333z"></path>
</svg>
