<!-- Generated by IcoMoon.io -->
<svg version="1.1" xmlns="http://www.w3.org/2000/svg" width="32" height="32" viewBox="0 0 32 32">
<title>battery-warning-filled</title>
<path d="M10.992 14.933c0.31 0.18 0.561 0.431 0.736 0.732l0.005 0.010 5.347 9.331c0.167 0.286 0.265 0.629 0.265 0.995 0 1.105-0.895 2-2 2-0.001 0-0.002 0-0.002 0h-10.691c-0 0-0.001 0-0.001 0-1.105 0-2-0.895-2-2 0-0.366 0.098-0.709 0.27-1.004l-0.005 0.010 5.347-9.331c0.351-0.605 0.997-1.006 1.735-1.006 0.366 0 0.709 0.098 1.004 0.27l-0.010-0.005zM10 24c-0.368 0-0.667 0.298-0.667 0.667s0.298 0.667 0.667 0.667v0c0.368 0 0.667-0.298 0.667-0.667s-0.298-0.667-0.667-0.667v0zM22.667 8c2.209 0 4 1.791 4 4v0 1.333h1.333c0.736 0 1.333 0.597 1.333 1.333v0 2.667c0 0.736-0.597 1.333-1.333 1.333v0h-1.333v1.333c0 2.209-1.791 4-4 4v0h-4.628l-5.148-8.988c-0.586-1.009-1.661-1.677-2.893-1.677s-2.307 0.668-2.884 1.661l-0.009 0.016-3.953 6.901c-0.305-0.55-0.485-1.207-0.485-1.905 0-0.003 0-0.006 0-0.008v0-8c0-2.209 1.791-4 4-4v0h16zM9.997 17.333c-0.368 0-0.667 0.298-0.667 0.667v0 4l0.011 0.12c0.058 0.314 0.33 0.548 0.656 0.548 0.368 0 0.667-0.298 0.667-0.667 0-0 0-0.001 0-0.001v0-4l-0.011-0.12c-0.059-0.313-0.33-0.547-0.656-0.547-0 0-0 0-0 0v0z"></path>
</svg>
