<!-- Generated by IcoMoon.io -->
<svg version="1.1" xmlns="http://www.w3.org/2000/svg" width="32" height="32" viewBox="0 0 32 32">
<title>battery-checkmark-filled</title>
<path d="M2.667 12c0-2.209 1.791-4 4-4v0h16c2.209 0 4 1.791 4 4v0 1.333h1.333c0.736 0 1.333 0.597 1.333 1.333v0 2.667c0 0.736-0.597 1.333-1.333 1.333v0h-1.333v1.333c0 2.209-1.791 4-4 4v0h-5.565c0.149-0.601 0.234-1.291 0.234-2.002 0-4.786-3.88-8.667-8.667-8.667-2.331 0-4.447 0.92-6.005 2.418l0.003-0.003v-3.747zM16 22c0 4.050-3.283 7.333-7.333 7.333s-7.333-3.283-7.333-7.333v0c0-4.050 3.283-7.333 7.333-7.333s7.333 3.283 7.333 7.333v0zM13.139 18.861c-0.121-0.121-0.288-0.196-0.472-0.196s-0.351 0.075-0.472 0.196v0l-4.861 4.863-2.195-2.196c-0.121-0.121-0.288-0.195-0.472-0.195-0.369 0-0.667 0.299-0.667 0.668 0 0.184 0.075 0.351 0.196 0.472l2.667 2.667c0.121 0.121 0.288 0.196 0.472 0.196s0.351-0.075 0.472-0.196v0l5.333-5.333c0.121-0.121 0.196-0.288 0.196-0.472s-0.075-0.351-0.196-0.472v0z"></path>
</svg>
