<!-- Generated by IcoMoon.io -->
<svg version="1.1" xmlns="http://www.w3.org/2000/svg" width="32" height="32" viewBox="0 0 32 32">
<title>battery-saver-filled</title>
<path d="M11.527 5.815c2.085 3.803 3.145 6.86 3.145 8.96s-0.992 3.861-1.955 4.693c-0.077 0.067-0.164 0.128-0.261 0.183l-0.152 0.076c-0.073 0.034-0.159 0.054-0.25 0.054-0.334 0-0.605-0.271-0.605-0.605 0-0.038 0.004-0.076 0.010-0.112l-0.001 0.004 0.033-0.117c0.816-2.020 1.212-4.005 1.18-5.952-0.010-0.545-0.454-0.982-1-0.982-0.535 0-0.972 0.421-0.999 0.949l-0 0.002 0.005 0.031c0.008 0.493-0.017 0.992-0.075 1.493l-0.088 0.637-0.056 0.316-0.091 0.44-0.136 0.549-0.057 0.208c-0.277 0.957-0.587 1.768-0.955 2.546l0.043-0.102c-1.017 2.211-2.772 3.833-5.216 4.845-0.113 0.048-0.245 0.076-0.383 0.076-0.553 0-1.001-0.448-1.001-1.001 0-0.415 0.252-0.77 0.611-0.922l0.007-0.002c1.287-0.532 2.316-1.251 3.099-2.161-2.217-0.7-3.507-2.228-3.684-4.36-0.2-2.413 0.709-4.047 3.013-5.883l0.653-0.504 0.475-0.359 0.493-0.385c1.109-0.897 1.943-1.78 2.501-2.64 0.4-0.619 1.335-0.627 1.693 0.027zM22.667 8.001c0 0 0 0 0 0 2.126 0 3.865 1.659 3.992 3.753l0.001 0.011 0.007 0.236v1.333l1.333 0.023c0 0 0 0 0 0 0.68 0 1.24 0.508 1.323 1.165l0.001 0.007 0.011 0.161v2.667c0 0 0 0 0 0 0 0.673-0.499 1.23-1.148 1.32l-0.007 0.001-0.179 0.013-1.335-0.025v1.333c-0.001 2.126-1.66 3.864-3.754 3.991l-0.011 0.001-0.235 0.008h-11.676c-0.736-0.001-1.332-0.597-1.332-1.333 0-0.681 0.51-1.243 1.169-1.323l0.006-0.001 0.156-0.009h0.84l0.1-0.007 0.14-0.025c0.991-0.216 3.929-1.604 3.929-6.611 0-1.621-0.403-3.424-1.207-5.405-0.043-0.104-0.069-0.225-0.069-0.351 0-0.471 0.348-0.86 0.801-0.924l0.005-0.001 0.127-0.009h7.009z"></path>
</svg>
