<!-- Generated by IcoMoon.io -->
<svg version="1.1" xmlns="http://www.w3.org/2000/svg" width="32" height="32" viewBox="0 0 32 32">
<title>battery-6-filled</title>
<path d="M22.667 8c2.209 0 4 1.791 4 4v1.333h1.334c0.243 0 0.471 0.065 0.667 0.178 0.399 0.231 0.667 0.661 0.667 1.155v2.667c0 0.493-0.268 0.924-0.667 1.155-0.196 0.113-0.424 0.178-0.667 0.178h-1.334v1.333c0 2.209-1.791 4-4 4h-16c-2.209 0-4-1.791-4-4v-8c0-2.209 1.791-4 4-4h16zM16 12h-8.001c-0.736 0-1.333 0.597-1.333 1.333v5.333c0 0.736 0.597 1.333 1.333 1.333h8.001c0.736 0 1.333-0.597 1.333-1.333v-5.333c0-0.736-0.597-1.333-1.333-1.333z"></path>
</svg>
