<!-- Generated by IcoMoon.io -->
<svg version="1.1" xmlns="http://www.w3.org/2000/svg" width="32" height="32" viewBox="0 0 32 32">
<title>battery-9-filled</title>
<path d="M8 12c-0.736 0-1.333 0.597-1.333 1.333v0 5.333c0 0.736 0.597 1.333 1.333 1.333v0h12c0.736 0 1.333-0.597 1.333-1.333v0-5.333c0-0.736-0.597-1.333-1.333-1.333v0h-12zM2.667 12c0-2.209 1.791-4 4-4v0h16.667c2.209 0 4 1.791 4 4v0 1.333h0.667c0.736 0 1.333 0.597 1.333 1.333v0 2.667c0 0.736-0.597 1.333-1.333 1.333v0h-0.667v1.333c0 2.209-1.791 4-4 4v0h-16.667c-2.209 0-4-1.791-4-4v0-8z"></path>
</svg>
