<!-- Generated by IcoMoon.io -->
<svg version="1.1" xmlns="http://www.w3.org/2000/svg" width="32" height="32" viewBox="0 0 32 32">
<title>beach-filled</title>
<path d="M24.762 3.801c-4.305-2.485-9.809-1.010-12.294 3.294l-0.333 0.577c-0.276 0.478-0.112 1.090 0.366 1.366l6.046 3.491-3.741 6.547c-2.507 0.319-4.723 1.623-6.377 3.476 0.974 0.158 1.8 0.849 2.11 1.817 0.314 0.977 0.966 1.274 1.491 1.28 0.536 0.006 1.149-0.284 1.44-1.158 0.363-1.089 1.382-1.823 2.53-1.823s2.167 0.734 2.53 1.823c0.291 0.874 0.904 1.164 1.44 1.158 0.525-0.006 1.177-0.303 1.491-1.28 0.31-0.965 1.134-1.658 2.111-1.816-1.671-1.873-3.917-3.186-6.457-3.486l3.164-5.537 6.078 3.509c0.478 0.276 1.090 0.112 1.366-0.366l0.333-0.577c2.485-4.305 1.010-9.809-3.294-12.294zM8.952 24.878c-0.137-0.427-0.543-0.711-0.991-0.693s-0.83 0.332-0.934 0.769c-0.281 1.187-0.809 1.818-1.389 2.179-0.612 0.381-1.4 0.534-2.305 0.534-0.552 0-1 0.448-1 1s0.448 1 1 1c1.095 0 2.307-0.18 3.362-0.836 0.55-0.342 1.028-0.796 1.416-1.371 2.069 2.488 5.879 2.475 7.889-0.039 2.045 2.558 5.955 2.526 7.996-0.095 1.13 1.479 2.894 2.341 4.67 2.341 0.552 0 1-0.448 1-1s-0.448-1-1-1c-1.577 0-3.179-1.063-3.712-2.779-0.129-0.417-0.514-0.702-0.95-0.704s-0.824 0.279-0.957 0.694c-1.045 3.253-5.079 3.199-6.099 0.139-0.136-0.408-0.518-0.684-0.949-0.684s-0.813 0.275-0.949 0.684c-1.020 3.060-5.054 3.114-6.099-0.139z"></path>
</svg>
