<!-- Generated by IcoMoon.io -->
<svg version="1.1" xmlns="http://www.w3.org/2000/svg" width="32" height="32" viewBox="0 0 32 32">
<title>beach-filled</title>
<path d="M27.839 17.093l0.243-0.427c2.578-4.464 1.049-10.172-3.415-12.749s-10.173-1.048-12.75 3.416l-0.084 0.145c-0.086 0.145-0.136 0.32-0.136 0.506 0 0.363 0.192 0.682 0.481 0.859l0.004 0.002 6.481 3.916-3.591 5.945c-3.14 0.277-5.823 1.943-7.267 4.301 0.059-0.006 0.128-0.009 0.198-0.009 0.556 0 1.063 0.209 1.447 0.554l-0.002-0.002c1.315-1.891 3.688-3.219 6.552-3.219s5.239 1.329 6.553 3.22c0.382-0.343 0.89-0.553 1.446-0.553 0.069 0 0.137 0.003 0.204 0.009l-0.009-0.001c-1.43-2.336-4.077-3.993-7.181-4.293l3.075-5.091 6.354 3.839c0.148 0.090 0.327 0.144 0.519 0.144 0.375 0 0.701-0.205 0.875-0.508l0.003-0.005zM24.466 24.476c-0.127-0.086-0.282-0.139-0.45-0.142h-0.033c-0.359 0.008-0.661 0.241-0.772 0.563l-0.002 0.006-0.001 0.002c-0.029 0.077-0.864 2.428-3.209 2.428-2.347 0-3.177-2.333-3.209-2.431-0.114-0.334-0.425-0.57-0.791-0.57s-0.677 0.236-0.789 0.564l-0.002 0.006-0.001 0.002c-0.029 0.078-0.864 2.429-3.209 2.429-2.347 0-3.177-2.333-3.207-2.431-0.056-0.167-0.16-0.306-0.294-0.406l-0.002-0.002c-0.132-0.098-0.297-0.158-0.476-0.162h-0.016c-0.001 0-0.002 0-0.003 0-0.354 0-0.656 0.22-0.777 0.531l-0.002 0.006c-0.011 0.030-1.159 2.963-3.721 2.963-0.46 0-0.833 0.373-0.833 0.833s0.373 0.833 0.833 0.833v0c1.898-0.057 3.546-1.073 4.484-2.577l0.013-0.023c0.89 1.274 2.35 2.097 4.001 2.097 1.65 0 3.108-0.821 3.988-2.077l0.010-0.016c0.89 1.271 2.349 2.093 3.999 2.093 1.652 0 3.111-0.823 3.991-2.081l0.010-0.016c0.952 1.528 2.601 2.544 4.492 2.6l0.008 0c0.46 0 0.833-0.373 0.833-0.833s-0.373-0.833-0.833-0.833v0c-1.653 0-2.725-1.242-3.276-2.118v-0.001c-0.156-0.24-0.305-0.517-0.43-0.807l-0.014-0.037c-0.064-0.164-0.172-0.299-0.31-0.393l-0.003-0.002z"></path>
</svg>
