<!-- Generated by IcoMoon.io -->
<svg version="1.1" xmlns="http://www.w3.org/2000/svg" width="32" height="32" viewBox="0 0 32 32">
<title>beaker-filled</title>
<path d="M12 6v8.318c0 0.5-0.125 0.992-0.363 1.431l-1.584 2.918h11.895l-1.584-2.918c-0.239-0.439-0.363-0.931-0.363-1.431v-8.318h1.333c0.552 0 1-0.448 1-1s-0.448-1-1-1h-10.667c-0.552 0-1 0.448-1 1s0.448 1 1 1h1.333z"></path>
<path d="M23.033 20.667h-14.066l-2.11 3.887c-0.844 1.555 0.282 3.447 2.051 3.447h14.185c1.769 0 2.895-1.892 2.051-3.447l-2.11-3.887z"></path>
</svg>
