<!-- Generated by IcoMoon.io -->
<svg version="1.1" xmlns="http://www.w3.org/2000/svg" width="32" height="32" viewBox="0 0 32 32">
<title>beaker-off-filled</title>
<path d="M26.329 27.743l1.964 1.964c0.18 0.174 0.425 0.281 0.695 0.281 0.552 0 1-0.448 1-1 0-0.27-0.107-0.515-0.281-0.695l-26-26c-0.18-0.174-0.425-0.281-0.695-0.281-0.552 0-1 0.448-1 1 0 0.27 0.107 0.515 0.281 0.695l9.705 9.705v0.026c0 0 0 0 0 0.001 0 0.851-0.266 1.641-0.72 2.289l0.009-0.013-1.582 2.285h6.88l2 2h-10.265l-2.743 3.963c-1.474 2.129 0.050 5.037 2.639 5.037h15.564c1.083 0 1.98-0.51 2.549-1.257zM21.538 18l-9.54-9.54v-3.46h-1c-0.552 0-1-0.448-1-1s0.448-1 1-1v0h10c0.552 0 1 0.448 1 1s-0.448 1-1 1v0h-1v8.438c0 0 0 0 0 0.001 0 0.851 0.266 1.641 0.72 2.289l-0.009-0.013 1.582 2.285h-0.753z"></path>
</svg>
