<!-- Generated by IcoMoon.io -->
<svg version="1.1" xmlns="http://www.w3.org/2000/svg" width="32" height="32" viewBox="0 0 32 32">
<title>beaker-edit-filled</title>
<path d="M9.333 4.667v8.317c0 0.5-0.125 0.992-0.364 1.432l-1.583 2.917h11.896l-1.584-2.917c-0.23-0.414-0.365-0.907-0.365-1.432v-8.317h1.333c0.552 0 1-0.448 1-1s-0.448-1-1-1v0h-10.667c-0.552 0-1 0.448-1 1s0.448 1 1 1v0h1.333zM20.367 19.333h-14.067l-2.109 3.887c-0.178 0.322-0.283 0.705-0.283 1.113 0 1.288 1.044 2.333 2.332 2.333h8.979l0.141-0.564c0.216-0.864 0.663-1.653 1.293-2.283l3.984-3.985-0.272-0.501zM25.467 16.893l-7.871 7.869c-0.446 0.446-0.774 1.008-0.936 1.638l-0.005 0.025-0.611 2.441c-0.027 0.106-0.043 0.227-0.043 0.352 0 0.8 0.649 1.449 1.449 1.449 0.125 0 0.247-0.016 0.363-0.046l-0.010 0.002 2.44-0.609c0.655-0.167 1.218-0.496 1.664-0.943l7.869-7.869c0.522-0.546 0.843-1.288 0.843-2.104 0-1.683-1.365-3.048-3.048-3.048-0.817 0-1.558 0.321-2.105 0.844l0.001-0.001z"></path>
</svg>
