<!-- Generated by IcoMoon.io -->
<svg version="1.1" xmlns="http://www.w3.org/2000/svg" width="32" height="32" viewBox="0 0 32 32">
<title>bed-filled</title>
<path d="M25.667 14.667c0 0 0 0 0 0 1.946 0 3.538 1.516 3.659 3.432l0.001 0.011 0.007 0.224v8.667c-0 0.552-0.448 1-1 1-0.504 0-0.921-0.373-0.99-0.858l-0.001-0.005-0.009-0.136v-3h-22.667v3c-0 0.504-0.373 0.921-0.859 0.99l-0.005 0.001-0.136 0.009c-0.504-0-0.921-0.373-0.99-0.859l-0.001-0.005-0.009-0.136v-8.667c0-0 0-0 0-0 0-1.946 1.516-3.538 3.432-3.659l0.011-0.001 0.224-0.007h19.333zM9 5.333h14c0 0 0 0 0 0 1.946 0 3.538 1.516 3.659 3.432l0.001 0.011 0.007 0.224v4.333h-4l-0.009-0.156c-0.074-0.613-0.555-1.094-1.162-1.167l-0.006-0.001-0.156-0.009h-2.667c-0.681 0-1.243 0.511-1.323 1.171l-0.001 0.006-0.009 0.156h-2.667l-0.009-0.156c-0.074-0.613-0.555-1.094-1.162-1.167l-0.006-0.001-0.156-0.009h-2.667c-0.681 0-1.243 0.511-1.323 1.171l-0.001 0.006-0.009 0.156h-4v-4.333c0-0 0-0 0-0 0-1.946 1.516-3.538 3.432-3.659l0.011-0.001 0.224-0.007z"></path>
</svg>
