<!-- Generated by IcoMoon.io -->
<svg version="1.1" xmlns="http://www.w3.org/2000/svg" width="32" height="32" viewBox="0 0 32 32">
<title>bed-filled</title>
<path d="M25.667 14.667c1.95 0 3.545 1.522 3.66 3.443l0.007 0.223v8.667c0 0.552-0.448 1-1 1-0.506 0-0.925-0.376-0.991-0.864l-0.009-0.136v-3h-22.667v3c0 0.506-0.376 0.925-0.864 0.991l-0.136 0.009c-0.506 0-0.925-0.376-0.991-0.864l-0.009-0.136v-8.667c0-1.95 1.522-3.545 3.443-3.66l0.223-0.007h19.333zM9 5.333h14c1.95 0 3.545 1.522 3.66 3.443l0.007 0.223v4.333h-4l-0.009-0.155c-0.071-0.612-0.557-1.098-1.169-1.169l-0.155-0.009h-2.667c-0.684 0-1.247 0.515-1.324 1.178l-0.009 0.155h-2.667l-0.009-0.155c-0.071-0.612-0.557-1.098-1.169-1.169l-0.155-0.009h-2.667c-0.684 0-1.247 0.515-1.324 1.178l-0.009 0.155h-4v-4.333c0-1.95 1.522-3.545 3.443-3.66l0.223-0.007z"></path>
</svg>
