<!-- Generated by IcoMoon.io -->
<svg version="1.1" xmlns="http://www.w3.org/2000/svg" width="32" height="32" viewBox="0 0 32 32">
<title>bezier-curve-square-filled</title>
<path d="M8 4.8c-1.767 0-3.2 1.433-3.2 3.2v0 12.8c2.229 0 3.624-0.643 4.579-1.536 0.982-0.915 1.579-2.166 2.067-3.533 0.168-0.469 0.314-0.928 0.461-1.387l0.211-0.65c0.218-0.661 0.451-1.322 0.741-1.902 0.291-0.581 0.662-1.133 1.181-1.541 0.518-0.406 1.179-0.652 1.897-0.652 0.022 0 0.044 0 0.066 0.001l-0.003-0c0.771 0 1.422 0.23 1.96 0.651 0.518 0.408 0.89 0.96 1.181 1.541 0.29 0.581 0.525 1.242 0.741 1.902 0.072 0.218 0.141 0.434 0.21 0.65 0.147 0.461 0.294 0.918 0.462 1.387 0.488 1.366 1.085 2.618 2.067 3.534 0.955 0.891 2.352 1.534 4.579 1.534v-12.8c0-1.767-1.433-3.2-3.2-3.2v0h-16zM27.2 22.4c-2.571 0-4.376-0.757-5.67-1.965-1.269-1.184-1.971-2.733-2.483-4.166-0.176-0.493-0.336-0.995-0.488-1.467l-0.197-0.608c-0.206-0.667-0.428-1.226-0.686-1.763l0.033 0.077c-0.234-0.469-0.475-0.792-0.736-0.997-0.249-0.194-0.567-0.312-0.912-0.312-0.021 0-0.043 0-0.064 0.001l0.003-0c-0.018-0.001-0.039-0.001-0.060-0.001-0.345 0-0.663 0.117-0.916 0.314l0.003-0.002c-0.261 0.205-0.502 0.528-0.736 0.997-0.225 0.461-0.446 1.020-0.628 1.596l-0.025 0.091-0.197 0.608c-0.15 0.472-0.312 0.974-0.488 1.467-0.512 1.434-1.216 2.982-2.483 4.166-1.294 1.208-3.099 1.965-5.67 1.965v1.6c0 1.767 1.433 3.2 3.2 3.2v0h16c1.767 0 3.2-1.433 3.2-3.2v0-1.6z"></path>
</svg>
