<!-- Generated by IcoMoon.io -->
<svg version="1.1" xmlns="http://www.w3.org/2000/svg" width="32" height="32" viewBox="0 0 32 32">
<title>bin-full-filled</title>
<path d="M22.875 4.508c0.278-0.181 0.459-0.49 0.459-0.841 0-0.553-0.448-1-1-1-0.201 0-0.388 0.059-0.545 0.161l0.004-0.002-18.667 12c-0.278 0.181-0.459 0.49-0.459 0.841 0 0 0 0 0 0.001v-0 9.333c0 2.393 1.94 4.333 4.333 4.333v0h18c2.393 0 4.333-1.94 4.333-4.333v0-9.333c0-0.552-0.448-1-1-1v0h-0.333v-4.333c0-1.289-1.045-2.333-2.333-2.333v0h-4c-1.289 0-2.333 1.045-2.333 2.333v0 1h-4.333c-1.289 0-2.333 1.045-2.333 2.333v0 1h-5.595l15.803-10.159zM19.333 13.335v1.333h-4.667v-1c0-0.184 0.149-0.333 0.333-0.333v0h4.333zM26 14.668h-4.667v-4.335c0-0.184 0.149-0.333 0.333-0.333v0h4c0.184 0 0.333 0.149 0.333 0.333v0 4.333z"></path>
</svg>
