<!-- Generated by IcoMoon.io -->
<svg version="1.1" xmlns="http://www.w3.org/2000/svg" width="32" height="32" viewBox="0 0 32 32">
<title>bluetooth-filled</title>
<path d="M21.622 12.96c0.586-0.488 0.644-1.368 0.126-1.929l-6.094-6.602c-0.823-0.892-2.313-0.309-2.313 0.904v6.797l-0.853-0.711c-0.566-0.472-1.406-0.396-1.878 0.17s-0.396 1.406 0.17 1.878l2.561 2.136v0.786l-2.561 2.133c-0.566 0.471-0.642 1.312-0.171 1.878s1.312 0.642 1.878 0.171l0.854-0.711v6.807c0 1.214 1.49 1.796 2.313 0.904l6.094-6.605c0.517-0.56 0.46-1.44-0.126-1.928l-3.645-3.041 3.645-3.037zM16.007 17.827l2.831 2.361-2.831 3.068v-5.429zM16.007 14.167v-5.423l2.83 3.066-2.83 2.358z"></path>
</svg>
