<!-- Generated by IcoMoon.io -->
<svg version="1.1" xmlns="http://www.w3.org/2000/svg" width="32" height="32" viewBox="0 0 32 32">
<title>bluetooth-searching-filled</title>
<path d="M13.341 12.13v-6.797c0-1.163 1.368-1.747 2.207-1.008l0.106 0.104 6.094 6.602c0.481 0.521 0.465 1.316-0.009 1.818l-0.118 0.11-3.645 3.037 3.645 3.041c0.544 0.453 0.632 1.244 0.228 1.803l-0.102 0.125-6.094 6.605c-0.789 0.855-2.19 0.356-2.306-0.756l-0.008-0.148v-6.807l-0.854 0.711c-0.566 0.471-1.406 0.395-1.878-0.171-0.435-0.522-0.403-1.279 0.049-1.763l0.122-0.115 2.561-2.133v-0.786l-2.561-2.136c-0.566-0.472-0.642-1.313-0.17-1.878 0.435-0.522 1.185-0.627 1.743-0.269l0.135 0.099 0.853 0.712zM16.007 17.827v5.429l2.831-3.068-2.831-2.361zM26.509 9.652c0.561-0.478 1.402-0.41 1.88 0.15 1.461 1.715 2.278 3.892 2.278 6.191 0 2.307-0.822 4.49-2.291 6.207-0.479 0.559-1.32 0.625-1.88 0.146s-0.625-1.32-0.146-1.88c1.060-1.239 1.651-2.808 1.651-4.473 0-1.66-0.587-3.225-1.641-4.462-0.478-0.561-0.41-1.402 0.15-1.88zM23.489 12.318c0.561-0.478 1.402-0.41 1.88 0.15 0.832 0.977 1.298 2.218 1.298 3.528 0 1.314-0.469 2.559-1.306 3.537-0.479 0.559-1.32 0.625-1.88 0.146s-0.625-1.32-0.146-1.88c0.427-0.5 0.665-1.131 0.665-1.803 0-0.67-0.236-1.3-0.661-1.799-0.477-0.561-0.41-1.402 0.15-1.88zM16.007 8.744v5.423l2.83-2.358-2.83-3.066z"></path>
</svg>
