<!-- Generated by IcoMoon.io -->
<svg version="1.1" xmlns="http://www.w3.org/2000/svg" width="32" height="32" viewBox="0 0 32 32">
<title>bluetooth-disabled-filled</title>
<path d="M4.373 2.96c-0.183-0.196-0.443-0.318-0.732-0.318-0.552 0-1 0.448-1 1 0 0.289 0.122 0.549 0.318 0.731l0.001 0.001 10.373 10.373v0.849l0.007 0.007v0.787l-2.56 2.133c-0.309 0.246-0.505 0.623-0.505 1.044 0 0.736 0.597 1.333 1.333 1.333 0.337 0 0.645-0.125 0.879-0.331l-0.002 0.001 0.853-0.711v6.807c0 1.213 1.491 1.796 2.313 0.904l5.040-5.463 6.933 6.933c0.18 0.174 0.424 0.28 0.694 0.28 0.552 0 1-0.448 1-1 0-0.27-0.107-0.515-0.281-0.695l0 0-24.667-24.667zM16.007 17.421l2.8 2.8-2.8 3.035v-5.835zM21.621 12.96l-2.411 2.008-1.893-1.893 1.52-1.267-2.831-3.064v3.021l-2.667-2.667v-3.765c0-1.213 1.491-1.796 2.313-0.904l6.095 6.601c0.219 0.237 0.354 0.555 0.354 0.905 0 0.411-0.186 0.779-0.478 1.023l-0.002 0.002z"></path>
</svg>
