<!-- Generated by IcoMoon.io -->
<svg version="1.1" xmlns="http://www.w3.org/2000/svg" width="32" height="32" viewBox="0 0 32 32">
<title>bluetooth-connected-filled</title>
<path d="M13.34 12.131v-6.797c0-1.163 1.369-1.747 2.208-1.008l0.107 0.104 6.093 6.601c0.22 0.237 0.354 0.555 0.354 0.905 0 0.354-0.138 0.676-0.363 0.914l0.001-0.001-0.119 0.111-3.644 3.037 3.645 3.040c0.294 0.246 0.479 0.613 0.479 1.024 0 0.293-0.095 0.564-0.255 0.784l0.003-0.004-0.101 0.124-6.093 6.605c-0.789 0.855-2.191 0.356-2.307-0.756l-0.007-0.147v-6.808l-0.853 0.711c-0.23 0.193-0.529 0.31-0.855 0.31-0.736 0-1.333-0.597-1.333-1.333 0-0.352 0.137-0.673 0.36-0.911l-0.001 0.001 0.121-0.115 2.56-2.133v-0.787l-2.56-2.136c-0.294-0.246-0.48-0.614-0.48-1.024 0-0.736 0.597-1.333 1.333-1.333 0.267 0 0.516 0.079 0.725 0.214l-0.005-0.003 0.133 0.099 0.853 0.712zM16.007 17.827v5.429l2.831-3.068-2.831-2.36zM22.667 14.667c0.736 0 1.333 0.597 1.333 1.333s-0.597 1.333-1.333 1.333v0c-0.736 0-1.333-0.597-1.333-1.333s0.597-1.333 1.333-1.333v0zM8 14.667c0.736 0 1.333 0.597 1.333 1.333s-0.597 1.333-1.333 1.333v0c-0.736 0-1.333-0.597-1.333-1.333s0.597-1.333 1.333-1.333v0zM16.007 8.744v5.423l2.831-2.357-2.831-3.067z"></path>
</svg>
