<!-- Generated by IcoMoon.io -->
<svg version="1.1" xmlns="http://www.w3.org/2000/svg" width="32" height="32" viewBox="0 0 32 32">
<title>bluetooth-filled</title>
<path d="M14.379 2.39c0.14-0.066 0.304-0.104 0.477-0.104 0.285 0 0.546 0.104 0.746 0.277l-0.001-0.001 8 6.861c0.245 0.211 0.4 0.522 0.4 0.868 0 0.352-0.159 0.667-0.409 0.877l-0.002 0.001-5.805 4.832 5.802 4.834c0.252 0.211 0.411 0.526 0.411 0.878 0 0.347-0.154 0.657-0.398 0.867l-0.002 0.001-8 6.857c-0.198 0.17-0.458 0.273-0.742 0.273-0.63 0-1.141-0.51-1.143-1.139v-9.177l-3.84 3.198c-0.2 0.176-0.464 0.283-0.752 0.283-0.631 0-1.143-0.512-1.143-1.143 0-0.362 0.168-0.684 0.43-0.893l0.002-0.002 5.303-4.418v-0.834l-5.303-4.422c-0.24-0.211-0.39-0.518-0.39-0.86 0-0.631 0.512-1.143 1.143-1.143 0.27 0 0.517 0.093 0.713 0.249l-0.002-0.002 3.84 3.2v-9.178c0-0 0-0 0-0.001 0-0.458 0.269-0.853 0.658-1.035l0.007-0.003zM16.002 14.513l5.085-4.237-5.087-4.362v8.598l0.001 0.001zM16 17.489v8.598l5.086-4.36-5.086-4.238z"></path>
</svg>
