<!-- Generated by IcoMoon.io -->
<svg version="1.1" xmlns="http://www.w3.org/2000/svg" width="32" height="32" viewBox="0 0 32 32">
<title>bluetooth-disabled-filled</title>
<path d="M4.374 2.96c-0.391-0.391-1.024-0.391-1.414-0s-0.391 1.024-0 1.414l10.374 10.374v0.849l0.007 0.006v0.786l-2.561 2.133c-0.566 0.471-0.642 1.312-0.171 1.878s1.312 0.642 1.878 0.171l0.854-0.711v6.807c0 1.214 1.49 1.796 2.313 0.904l5.040-5.463 6.932 6.932c0.391 0.391 1.024 0.391 1.414 0s0.391-1.024 0-1.414l-24.666-24.667zM16.007 17.422l2.8 2.8-2.8 3.034v-5.834z"></path>
<path d="M21.622 12.96l-2.411 2.009-1.893-1.893 1.519-1.266-2.83-3.066v3.021l-2.667-2.667v-3.765c0-1.214 1.49-1.796 2.313-0.904l6.094 6.602c0.518 0.561 0.46 1.44-0.126 1.929z"></path>
</svg>
