<!-- Generated by IcoMoon.io -->
<svg version="1.1" xmlns="http://www.w3.org/2000/svg" width="32" height="32" viewBox="0 0 32 32">
<title>blur-filled</title>
<path d="M4 16c0-6.627 5.373-12 12-12 2.453 0 4.735 0.736 6.636 2h-6.636v1.333h8.3c0.629 0.603 1.193 1.273 1.679 2h-9.979v1.333h10.753c0.316 0.637 0.578 1.305 0.778 2h-11.531v1.333h11.834c0.109 0.65 0.166 1.319 0.166 2h-12v1.333h11.927c-0.076 0.686-0.209 1.354-0.396 2h-11.531v1.333h11.059c-0.297 0.703-0.66 1.373-1.079 2h-9.979v1.333h8.944c-2.197 2.455-5.39 4-8.944 4-6.627 0-12-5.373-12-12z"></path>
</svg>
