<!-- Generated by IcoMoon.io -->
<svg version="1.1" xmlns="http://www.w3.org/2000/svg" width="32" height="32" viewBox="0 0 32 32">
<title>blur-filled</title>
<path d="M3.429 16c0-6.943 5.629-12.571 12.571-12.571 2.313 0 4.48 0.625 6.342 1.714h-6.342v1.143h7.981c0.625 0.514 1.201 1.089 1.718 1.714h-9.698v1.143h10.538c0.354 0.544 0.669 1.117 0.937 1.714h-11.475v1.143h11.921c0.186 0.555 0.335 1.128 0.443 1.714h-12.365v1.143h12.52c0.033 0.343 0.052 0.742 0.052 1.146 0 0.2-0.005 0.399-0.014 0.597l0.001-0.028h-12.559v1.143h12.456c-0.080 0.585-0.2 1.158-0.358 1.714h-12.098v1.143h11.714c-0.232 0.594-0.509 1.168-0.825 1.714h-10.889v1.143h10.143c-0.453 0.617-0.96 1.191-1.514 1.714h-8.629v1.143h7.23c-2.007 1.43-4.508 2.286-7.21 2.286-0.007 0-0.014 0-0.021-0h0.001c-6.943 0-12.571-5.629-12.571-12.571z"></path>
</svg>
