<!-- Generated by IcoMoon.io -->
<svg version="1.1" xmlns="http://www.w3.org/2000/svg" width="32" height="32" viewBox="0 0 32 32">
<title>board-games-filled</title>
<path d="M25.517 8.8h0.080c2.209 0.001 3.999 1.791 3.999 4s-1.791 4-4 4c-0.805 0-1.554-0.238-2.181-0.646l0.015 0.009 0.72 2.966c0.036 0.141 0.056 0.303 0.056 0.47 0 1.105-0.895 2-2 2-0 0-0 0-0 0h-1.221c-1.104-0.001-1.999-0.896-1.999-2 0-0.168 0.021-0.33 0.059-0.486l-0.003 0.014 0.72-2.965c-0.609 0.399-1.355 0.637-2.157 0.637-0.039 0-0.077-0.001-0.116-0.002l0.006 0c-0.185-0.698-0.581-1.285-1.113-1.707l-0.007-0.005c0.268-0.678 0.424-1.464 0.424-2.286v-0c0-1.309-0.394-2.525-1.067-3.539 0.54-0.291 1.181-0.462 1.863-0.462 0.030 0 0.059 0 0.089 0.001l-0.004-0c-0.051-0.241-0.081-0.517-0.081-0.8s0.029-0.559 0.085-0.826l-0.005 0.026c0.385-1.839 1.994-3.201 3.92-3.201 2.21 0 4.001 1.791 4.001 4.001 0 0.283-0.029 0.559-0.085 0.826l0.005-0.026zM10.4 8c-2.651 0-4.8 2.149-4.8 4.8 0 1.232 0.464 2.355 1.226 3.204l-0.004-0.004h-0.422c-0.884 0-1.6 0.716-1.6 1.6s0.716 1.6 1.6 1.6v0h0.832c-0.595 2.877-2.165 4.538-3.040 5.269-0.554 0.464-0.992 1.178-0.992 2.010 0 1.282 1.040 2.322 2.322 2.322h9.758c1.28 0 2.32-1.040 2.32-2.322 0-0.832-0.438-1.546-0.992-2.010-0.875-0.731-2.445-2.392-3.040-5.269h0.832c0.884 0 1.6-0.716 1.6-1.6s-0.716-1.6-1.6-1.6v0h-0.422c0.758-0.845 1.222-1.968 1.222-3.2 0-2.651-2.149-4.8-4.8-4.8v0z"></path>
</svg>
