<!-- Generated by IcoMoon.io -->
<svg version="1.1" xmlns="http://www.w3.org/2000/svg" width="32" height="32" viewBox="0 0 32 32">
<title>board-heart-filled</title>
<path d="M15.333 28.001v-2.573l-0.261-0.271c-2.319-2.4-2.319-6.272 0-8.672 0.084-0.087 0.169-0.169 0.256-0.249l0.004-0.004v-3.567h-11.332v11.004l0.007 0.245c0.134 2.285 2.019 4.088 4.326 4.088 0 0 0 0 0 0l7-0.003zM28.668 7.664v7.64c-0.773-0.402-1.689-0.637-2.659-0.637-1.25 0-2.409 0.391-3.361 1.058l0.019-0.013c-0.933-0.654-2.092-1.045-3.343-1.045-0.714 0-1.398 0.128-2.031 0.361l0.041-0.013v-11.684h7.001c0 0 0 0 0 0 2.307 0 4.193 1.803 4.326 4.076l0.001 0.012 0.007 0.245zM15.333 23.308c-0.419-0.713-0.666-1.571-0.666-2.487s0.247-1.773 0.679-2.51l-0.013 0.023c0.191-0.328 0.424-0.64 0.697-0.923 0.367-0.382 0.798-0.7 1.274-0.938l0.027-0.012c0.583-0.292 1.27-0.463 1.996-0.463 1.294 0 2.462 0.542 3.288 1.412l0.002 0.002 0.048 0.051 0.048-0.051c0.828-0.872 1.996-1.414 3.29-1.414 1 0 1.925 0.324 2.674 0.872l-0.013-0.009c0.224 0.16 0.436 0.344 0.636 0.551 1.819 1.883 1.819 4.936 0 6.819l-5.923 6.131c-0.18 0.188-0.433 0.305-0.713 0.305s-0.533-0.117-0.713-0.305l-0-0-5.923-6.131c-0.261-0.27-0.492-0.573-0.685-0.9l-0.012-0.022zM15.332 10.667l0.001-7.333h-7c-2.392 0-4.331 1.938-4.333 4.329v3.002h11.332z"></path>
</svg>
