<!-- Generated by IcoMoon.io -->
<svg version="1.1" xmlns="http://www.w3.org/2000/svg" width="32" height="32" viewBox="0 0 32 32">
<title>book-filled</title>
<path d="M8.667 2.667c-1.841 0-3.333 1.492-3.333 3.333v20c0 1.841 1.492 3.333 3.333 3.333h17.667c0.552 0 1-0.448 1-1s-0.448-1-1-1h-17.667c-0.736 0-1.333-0.597-1.333-1.333h19c0.552 0 1-0.448 1-1v-19c0-1.841-1.492-3.333-3.333-3.333h-15.333zM10.667 6.667h10.667c0.736 0 1.333 0.597 1.333 1.333v1.333c0 0.736-0.597 1.333-1.333 1.333h-10.667c-0.736 0-1.333-0.597-1.333-1.333v-1.333c0-0.736 0.597-1.333 1.333-1.333z"></path>
</svg>
