<!-- Generated by IcoMoon.io -->
<svg version="1.1" xmlns="http://www.w3.org/2000/svg" width="32" height="32" viewBox="0 0 32 32">
<title>bookmark-add-filled</title>
<path d="M30.667 8.667c0-4.050-3.283-7.333-7.333-7.333s-7.333 3.283-7.333 7.333v0c0 4.050 3.283 7.333 7.333 7.333s7.333-3.283 7.333-7.333v0zM24 9.333v3.339c0 0.368-0.298 0.667-0.667 0.667s-0.667-0.298-0.667-0.667v0-3.339h-3.34c-0.368 0-0.667-0.298-0.667-0.667s0.298-0.667 0.667-0.667v0h3.34v-3.333c0-0.368 0.298-0.667 0.667-0.667s0.667 0.298 0.667 0.667v0 3.333h3.328c0.368 0 0.667 0.298 0.667 0.667s-0.298 0.667-0.667 0.667v0h-3.328zM23.333 17.333c0.688 0 1.359-0.080 2-0.232v11.227c-0.001 0.552-0.448 0.999-1 0.999-0.219 0-0.422-0.071-0.587-0.19l0.003 0.002-7.747-5.575-7.749 5.573c-0.162 0.118-0.365 0.188-0.584 0.188-0.552 0-0.999-0.447-1-0.999v-19.993c0-2.393 1.94-4.333 4.333-4.333h5.027c-0.855 1.32-1.364 2.934-1.364 4.667 0 4.786 3.88 8.667 8.667 8.667 0 0 0.001 0 0.001 0h-0z"></path>
</svg>
