<!-- Generated by IcoMoon.io -->
<svg version="1.1" xmlns="http://www.w3.org/2000/svg" width="32" height="32" viewBox="0 0 32 32">
<title>book-coins-filled</title>
<path d="M5.333 6c0-1.841 1.492-3.333 3.333-3.333v0h15.333c1.841 0 3.333 1.492 3.333 3.333v0 19c0 0.552-0.448 1-1 1v0h-19c0 0.736 0.597 1.333 1.333 1.333v0h17.667c0.552 0 1 0.448 1 1s-0.448 1-1 1v0h-17.667c-1.841 0-3.333-1.492-3.333-3.333v0-20zM13.596 9.952c-0.767 0.367-1.596 1.035-1.596 2.048s0.829 1.68 1.596 2.048c0.829 0.396 1.916 0.619 3.071 0.619s2.241-0.223 3.071-0.619c0.767-0.367 1.596-1.035 1.596-2.048s-0.828-1.68-1.596-2.048c-0.831-0.396-1.916-0.619-3.071-0.619s-2.241 0.223-3.071 0.619zM21.327 14.52c-1.1 0.903-2.78 1.48-4.66 1.48s-3.56-0.577-4.66-1.48c-0.004 0.043-0.007 0.093-0.007 0.144 0 0.001 0 0.002 0 0.003v-0c0 1.473 2.089 2.667 4.667 2.667s4.667-1.193 4.667-2.667c-0-0.052-0.003-0.103-0.007-0.154l0 0.007zM16.667 18.667c-1.88 0-3.56-0.577-4.66-1.48-0.004 0.043-0.007 0.093-0.007 0.144 0 0.001 0 0.002 0 0.003v-0c0 1.473 2.089 2.667 4.667 2.667s4.667-1.193 4.667-2.667c0-0.001 0-0.002 0-0.004 0-0.050-0.002-0.1-0.007-0.149l0 0.006c-1.1 0.903-2.78 1.48-4.66 1.48z"></path>
</svg>
