<!-- Generated by IcoMoon.io -->
<svg version="1.1" xmlns="http://www.w3.org/2000/svg" width="32" height="32" viewBox="0 0 32 32">
<title>book-letter-filled</title>
<path d="M16.667 11.657l1.493 3.676h-2.987l1.493-3.676zM5.333 6v20c0 1.841 1.492 3.333 3.333 3.333v0h17.667c0.552 0 1-0.448 1-1s-0.448-1-1-1v0h-17.667c-0.736 0-1.333-0.597-1.333-1.333v0h19c0.552 0 1-0.448 1-1v0-19c0-1.841-1.492-3.333-3.333-3.333v0h-15.333c-1.841 0-3.333 1.492-3.333 3.333v0zM16.667 8c0 0 0 0 0 0 0.417 0 0.774 0.255 0.924 0.617l0.002 0.007 4.333 10.667c0.046 0.111 0.073 0.24 0.073 0.376 0 0.552-0.448 1-1 1-0.417 0-0.774-0.255-0.924-0.617l-0.002-0.007-1.1-2.709h-4.613l-1.1 2.709c-0.153 0.369-0.51 0.624-0.927 0.624-0.552 0-1-0.448-1-1 0-0.136 0.027-0.265 0.076-0.383l-0.002 0.007 4.333-10.667c0.153-0.369 0.51-0.624 0.927-0.624 0 0 0 0 0 0v0z"></path>
</svg>
