<!-- Generated by IcoMoon.io -->
<svg version="1.1" xmlns="http://www.w3.org/2000/svg" width="32" height="32" viewBox="0 0 32 32">
<title>bookmark-multiple-filled</title>
<path d="M5.333 8.998c0-1.657 1.343-3 3-3h12.001c1.657 0 3 1.343 3 3v19.336c0 0.358-0.191 0.689-0.502 0.867s-0.693 0.177-1.002-0.003l-7.497-4.373-7.497 4.373c-0.309 0.181-0.691 0.182-1.002 0.003s-0.502-0.509-0.502-0.867v-19.336zM20.333 2.667c3.498 0 6.334 2.836 6.334 6.334v15.83c0 0.552-0.448 1-1 1s-1-0.448-1-1v-15.83c0-2.394-1.94-4.334-4.334-4.334h-11.484c0 0 0.151-0.742 1.063-1.441 0.755-0.559 1.557-0.559 1.557-0.559h8.864z"></path>
</svg>
