<!-- Generated by IcoMoon.io -->
<svg version="1.1" xmlns="http://www.w3.org/2000/svg" width="32" height="32" viewBox="0 0 32 32">
<title>book-globe-filled</title>
<path d="M5.333 6c0-1.841 1.492-3.333 3.333-3.333v0h15.333c1.841 0 3.333 1.492 3.333 3.333v0 19c0 0.552-0.448 1-1 1v0h-19c0 0.736 0.597 1.333 1.333 1.333v0h17.667c0.552 0 1 0.448 1 1s-0.448 1-1 1v0h-17.667c-1.841 0-3.333-1.492-3.333-3.333v0-20zM14.068 8.491c-2.105 0.893-3.608 2.832-3.864 5.148l-0.003 0.028h2.809c0.055-1.667 0.315-3.196 0.729-4.377 0.097-0.279 0.207-0.547 0.328-0.8zM18.521 8.336c0.153 0.296 0.288 0.617 0.405 0.953 0.413 1.181 0.673 2.711 0.729 4.377h3.143c-0.275-2.494-1.961-4.533-4.233-5.317l-0.045-0.013zM17.655 13.667c-0.053-1.483-0.288-2.78-0.615-3.717-0.191-0.541-0.393-0.909-0.569-1.12-0.041-0.053-0.086-0.099-0.136-0.14l-0.001-0.001c-0.051 0.042-0.096 0.088-0.136 0.138l-0.001 0.002c-0.176 0.213-0.379 0.58-0.569 1.121-0.327 0.937-0.56 2.235-0.613 3.717h2.64zM15.049 15.667c0.091 1.204 0.3 2.257 0.577 3.051 0.191 0.541 0.393 0.909 0.569 1.12 0.041 0.053 0.086 0.099 0.136 0.14l0.002 0.001c0.051-0.042 0.096-0.088 0.136-0.138l0.001-0.002c0.176-0.213 0.379-0.58 0.569-1.121 0.277-0.793 0.487-1.847 0.577-3.051h-2.568zM13.044 15.667h-2.737c0.454 2.062 1.863 3.72 3.729 4.511l0.042 0.016c-0.108-0.217-0.222-0.486-0.32-0.763l-0.016-0.053c-0.359-1.023-0.6-2.304-0.696-3.711zM18.512 20.347c2.112-0.724 3.696-2.473 4.175-4.638l0.008-0.042h-3.072c-0.095 1.407-0.337 2.688-0.696 3.711-0.12 0.343-0.257 0.669-0.413 0.969zM16.375 20.005l0.005 0.001z"></path>
</svg>
