<!-- Generated by IcoMoon.io -->
<svg version="1.1" xmlns="http://www.w3.org/2000/svg" width="32" height="32" viewBox="0 0 32 32">
<title>bookmark-off-filled</title>
<path d="M4.374 2.96c-0.391-0.391-1.024-0.391-1.414-0s-0.391 1.024-0 1.414l3.717 3.717c-0.004 0.080-0.007 0.16-0.007 0.241v19.995c0 0.815 0.923 1.288 1.584 0.812l7.748-5.575 7.748 5.575c0.662 0.476 1.584 0.003 1.584-0.812v-1.577l2.291 2.291c0.391 0.391 1.024 0.391 1.414 0s0.391-1.024 0-1.414l-24.666-24.667z"></path>
<path d="M25.335 8.332v12.76l-16.508-16.508c0.64-0.372 1.383-0.585 2.176-0.585h9.998c2.393 0 4.333 1.94 4.333 4.333z"></path>
</svg>
