<!-- Generated by IcoMoon.io -->
<svg version="1.1" xmlns="http://www.w3.org/2000/svg" width="32" height="32" viewBox="0 0 32 32">
<title>book-open-filled</title>
<path d="M13.333 5.333c1.051 0 1.998 0.442 2.667 1.15 0.668-0.709 1.614-1.15 2.662-1.15 0.002 0 0.003 0 0.005 0h8.666c1.105 0 2 0.895 2 2v0 17.333c0 1.105-0.895 2-2 2v0h-8.667c-0.001 0-0.003 0-0.004 0-1.048 0-1.994-0.441-2.661-1.148l-0.002-0.002c-0.668 0.709-1.614 1.15-2.662 1.15-0.002 0-0.003 0-0.005 0h-8.666c-1.105 0-2-0.895-2-2v0-17.333c0-1.105 0.895-2 2-2v0h8.667zM15 23v-14c0-0.92-0.746-1.667-1.667-1.667v0h-8.667v17.333h8.667c0.92 0 1.667-0.746 1.667-1.667v0zM17 9v14c0 0.92 0.746 1.667 1.667 1.667v0h8.667v-17.333h-8.667c-0.92 0-1.667 0.746-1.667 1.667v0z"></path>
</svg>
