<!-- Generated by IcoMoon.io -->
<svg version="1.1" xmlns="http://www.w3.org/2000/svg" width="32" height="32" viewBox="0 0 32 32">
<title>book-question-mark-filled</title>
<path d="M5.333 6v20c0 1.841 1.492 3.333 3.333 3.333v0h17.667c0.552 0 1-0.448 1-1s-0.448-1-1-1v0h-17.667c-0.736 0-1.333-0.597-1.333-1.333v0h19c0.552 0 1-0.448 1-1v0-19c0-1.841-1.492-3.333-3.333-3.333v0h-15.333c-1.841 0-3.333 1.492-3.333 3.333v0zM14.667 10.691c-0.013 0.542-0.456 0.976-1 0.976-0 0-0 0-0 0h0c-1 0-1-1.001-1-1.001v-0.012c0.001-0.064 0.005-0.126 0.011-0.187l-0.001 0.008c0.064-0.541 0.264-1.026 0.566-1.431l-0.006 0.008c0.605-0.817 1.693-1.416 3.447-1.385 1.267 0.023 2.391 0.553 3.095 1.427 0.716 0.889 0.957 2.093 0.483 3.279-0.483 1.207-1.575 1.687-2.203 1.961l-0.067 0.031c-0.373 0.164-0.551 0.249-0.657 0.335l-0.001 0.001v0.965c0 0 0 0 0 0.001 0 0.552-0.448 1-1 1s-1-0.447-1-0.999v-1c0-0.697 0.336-1.196 0.751-1.529 0.333-0.267 0.753-0.451 1.048-0.581l0.051-0.023c0.723-0.319 1.067-0.516 1.223-0.905 0.065-0.145 0.103-0.314 0.103-0.492 0-0.301-0.108-0.577-0.288-0.79l0.002 0.002c-0.296-0.367-0.839-0.669-1.572-0.681-1.247-0.021-1.66 0.38-1.804 0.576-0.092 0.123-0.155 0.273-0.178 0.435l-0.001 0.005v0.008zM17.667 19.333c0 0.736-0.597 1.333-1.333 1.333s-1.333-0.597-1.333-1.333v0c0-0.736 0.597-1.333 1.333-1.333s1.333 0.597 1.333 1.333v0z"></path>
</svg>
