<!-- Generated by IcoMoon.io -->
<svg version="1.1" xmlns="http://www.w3.org/2000/svg" width="32" height="32" viewBox="0 0 32 32">
<title>book-number-filled</title>
<path d="M15.971 13.307h1.988l-0.484 2.115h-2.021l0.517-2.115z"></path>
<path d="M5.333 6c0-1.841 1.492-3.333 3.333-3.333h15.333c1.841 0 3.333 1.492 3.333 3.333v19c0 0.552-0.448 1-1 1h-19c0 0.736 0.597 1.333 1.333 1.333h17.667c0.552 0 1 0.448 1 1s-0.448 1-1 1h-17.667c-1.841 0-3.333-1.492-3.333-3.333v-20zM14.699 10.094l-0.298 1.213-1.427 0-0.136 0.009c-0.488 0.066-0.864 0.485-0.864 0.991l0.009 0.136c0.066 0.488 0.485 0.864 0.991 0.864l0.937-0-0.517 2.115-1.061 0.001-0.136 0.009c-0.488 0.066-0.864 0.485-0.864 0.991l0.009 0.136c0.066 0.488 0.485 0.864 0.991 0.864l0.572-0.001-0.164 0.676-0.023 0.134c-0.052 0.49 0.265 0.955 0.757 1.075l0.134 0.023c0.49 0.052 0.955-0.265 1.075-0.757l0.28-1.151h2.052l-0.157 0.691-0.021 0.134c-0.045 0.491 0.279 0.951 0.773 1.064l0.134 0.021c0.491 0.045 0.951-0.279 1.064-0.773l0.259-1.137 1.254 0.001 0.136-0.009c0.488-0.066 0.864-0.485 0.864-0.991l-0.009-0.136c-0.066-0.488-0.485-0.864-0.991-0.864l-0.796-0.001 0.484-2.115 0.96 0 0.136-0.009c0.488-0.066 0.864-0.485 0.864-0.991l-0.009-0.136c-0.066-0.488-0.485-0.864-0.991-0.864l-0.501-0 0.173-0.752 0.021-0.134c0.044-0.491-0.279-0.951-0.773-1.064l-0.134-0.021c-0.491-0.044-0.951 0.279-1.064 0.773l-0.276 1.199h-1.957l0.182-0.738 0.023-0.134c0.052-0.49-0.265-0.955-0.757-1.075-0.536-0.131-1.078 0.197-1.209 0.734z"></path>
</svg>
