<!-- Generated by IcoMoon.io -->
<svg version="1.1" xmlns="http://www.w3.org/2000/svg" width="32" height="32" viewBox="0 0 32 32">
<title>book-database-filled</title>
<path d="M14.077 11.231c-0.653 0.351-0.743 0.669-0.743 0.769s0.091 0.418 0.743 0.769c0.612 0.329 1.526 0.564 2.59 0.564s1.978-0.234 2.59-0.564c0.653-0.351 0.743-0.669 0.743-0.769s-0.091-0.418-0.743-0.769c-0.612-0.329-1.526-0.564-2.59-0.564s-1.978 0.234-2.59 0.564z"></path>
<path d="M20 17.333v-2.698c-0.927 0.449-2.097 0.698-3.333 0.698s-2.406-0.249-3.333-0.698v2.698c0 0.1 0.091 0.418 0.743 0.769 0.612 0.329 1.526 0.564 2.59 0.564s1.978-0.234 2.59-0.564c0.653-0.351 0.743-0.669 0.743-0.769z"></path>
<path d="M5.333 6c0-1.841 1.492-3.333 3.333-3.333h15.333c1.841 0 3.333 1.492 3.333 3.333v19c0 0.552-0.448 1-1 1h-19c0 0.736 0.597 1.333 1.333 1.333h17.667c0.552 0 1 0.448 1 1s-0.448 1-1 1h-17.667c-1.841 0-3.333-1.492-3.333-3.333v-20zM13.128 9.47c-0.916 0.493-1.795 1.342-1.795 2.53v5.333c0 1.189 0.879 2.037 1.795 2.53 0.957 0.515 2.209 0.803 3.538 0.803s2.582-0.288 3.538-0.803c0.916-0.493 1.795-1.342 1.795-2.53v-5.333c0-1.188-0.879-2.037-1.795-2.53-0.957-0.515-2.209-0.803-3.538-0.803s-2.582 0.288-3.538 0.803z"></path>
</svg>
