<!-- Generated by IcoMoon.io -->
<svg version="1.1" xmlns="http://www.w3.org/2000/svg" width="32" height="32" viewBox="0 0 32 32">
<title>book-pulse-filled</title>
<path d="M5.333 6c0-1.841 1.492-3.333 3.333-3.333v0h15.333c1.841 0 3.333 1.492 3.333 3.333v0 19c0 0.552-0.448 1-1 1v0h-19c0 0.736 0.597 1.333 1.333 1.333v0h17.667c0.552 0 1 0.448 1 1s-0.448 1-1 1v0h-17.667c-1.841 0-3.333-1.492-3.333-3.333v0-20zM15.587 9.944c-0.156-0.36-0.509-0.608-0.92-0.608-0.388 0-0.725 0.221-0.891 0.545l-0.003 0.006-2.060 4.113h-1.38c-0.552 0-1 0.448-1 1s0.448 1 1 1v0h2c0.389-0.001 0.726-0.223 0.891-0.548l0.003-0.006 1.364-2.725 2.821 6.668c0.156 0.362 0.509 0.611 0.921 0.611 0.367 0 0.687-0.197 0.861-0.492l0.003-0.005 2.043-3.504h1.092c0.552 0 1-0.448 1-1s-0.448-1-1-1v0h-1.665c-0 0-0 0-0 0-0.367 0-0.687 0.197-0.861 0.491l-0.003 0.005-1.327 2.275-2.888-6.827z"></path>
</svg>
