<!-- Generated by IcoMoon.io -->
<svg version="1.1" xmlns="http://www.w3.org/2000/svg" width="32" height="32" viewBox="0 0 32 32">
<title>book-search-filled</title>
<path d="M15.632 9.93c-1.676 0-3.035 1.359-3.035 3.035s1.359 3.035 3.035 3.035 3.035-1.359 3.035-3.035c0-1.676-1.359-3.035-3.035-3.035zM5.333 6c0-1.841 1.492-3.333 3.333-3.333h15.333c1.841 0 3.333 1.492 3.333 3.333v19c0 0.552-0.448 1-1 1h-19c0 0.736 0.597 1.333 1.333 1.333h17.667c0.552 0 1 0.448 1 1s-0.448 1-1 1h-17.667c-1.841 0-3.333-1.492-3.333-3.333v-20zM19.758 15.727c0.529-0.79 0.839-1.74 0.839-2.762 0-2.742-2.223-4.965-4.965-4.965s-4.965 2.223-4.965 4.965 2.223 4.965 4.965 4.965c1.022 0 1.972-0.309 2.762-0.839l3.301 3.301 0.089 0.077 0.010 0.007c0.378 0.28 0.914 0.25 1.257-0.093 0.377-0.377 0.377-0.988 0-1.365l-3.293-3.293z"></path>
</svg>
