<!-- Generated by IcoMoon.io -->
<svg version="1.1" xmlns="http://www.w3.org/2000/svg" width="32" height="32" viewBox="0 0 32 32">
<title>book-contacts-filled</title>
<path d="M8.667 2.667c-1.841 0-3.333 1.492-3.333 3.333v20c0 1.841 1.492 3.333 3.333 3.333h17.667c0.552 0 1-0.448 1-1s-0.448-1-1-1h-17.667c-0.736 0-1.333-0.597-1.333-1.333h19c0.552 0 1-0.448 1-1v-19c0-1.841-1.492-3.333-3.333-3.333h-15.333zM20.667 16.333v0.666c0 1.334-1.844 2.334-4.333 2.334s-4.333-1-4.333-2.334v-0.666c0-0.552 0.448-1 1-1h6.667c0.552 0 1 0.448 1 1zM18.667 11.661c0 1.289-1.044 2.334-2.333 2.334s-2.333-1.045-2.333-2.334c0-1.289 1.044-2.327 2.333-2.327s2.333 1.038 2.333 2.327z"></path>
</svg>
