<!-- Generated by IcoMoon.io -->
<svg version="1.1" xmlns="http://www.w3.org/2000/svg" width="32" height="32" viewBox="0 0 32 32">
<title>book-question-mark-rtl-filled</title>
<path d="M5.333 6v20c0 1.841 1.492 3.333 3.333 3.333v0h17.667c0.552 0 1-0.448 1-1s-0.448-1-1-1v0h-17.667c-0.736 0-1.333-0.597-1.333-1.333v0h19c0.552 0 1-0.448 1-1v0-19c0-1.841-1.492-3.333-3.333-3.333v0h-15.333c-1.841 0-3.333 1.492-3.333 3.333v0zM19.333 11.667c-0 0-0 0-0 0-0.544 0-0.987-0.435-1-0.976l-0-0.001v-0.007c-0.024-0.167-0.087-0.317-0.18-0.443l0.002 0.003c-0.145-0.196-0.557-0.599-1.804-0.576-0.733 0.013-1.276 0.315-1.572 0.681-0.178 0.212-0.287 0.487-0.287 0.788 0 0.178 0.038 0.347 0.106 0.499l-0.003-0.008c0.156 0.389 0.5 0.587 1.223 0.907l0.051 0.021c0.295 0.131 0.715 0.315 1.048 0.581 0.415 0.333 0.751 0.832 0.751 1.529v1c-0 0.552-0.448 0.999-1 0.999s-1-0.448-1-1c0-0 0-0 0-0.001v0-0.965l-0.001-0.001c-0.107-0.085-0.285-0.171-0.656-0.335l-0.068-0.031c-0.627-0.276-1.72-0.755-2.203-1.963-0.156-0.365-0.246-0.79-0.246-1.235 0-0.777 0.275-1.491 0.733-2.047l-0.004 0.006c0.704-0.873 1.828-1.405 3.095-1.427 1.753-0.031 2.84 0.568 3.447 1.385 0.296 0.397 0.496 0.882 0.559 1.409l0.001 0.014c0.006 0.052 0.009 0.114 0.011 0.177l0 0.002v0.011s0 1.003-1 1.003zM15.333 19.333c0-0.736 0.597-1.333 1.333-1.333s1.333 0.597 1.333 1.333v0c0 0.736-0.597 1.333-1.333 1.333s-1.333-0.597-1.333-1.333v0z"></path>
</svg>
