<!-- Generated by IcoMoon.io -->
<svg version="1.1" xmlns="http://www.w3.org/2000/svg" width="32" height="32" viewBox="0 0 32 32">
<title>book-letter-filled</title>
<path d="M16.667 11.657l1.494 3.676h-2.987l1.493-3.676z"></path>
<path d="M5.333 6v20c0 1.841 1.492 3.333 3.333 3.333h17.667c0.552 0 1-0.448 1-1s-0.448-1-1-1h-17.667c-0.736 0-1.333-0.597-1.333-1.333h19c0.552 0 1-0.448 1-1v-19c0-1.841-1.492-3.333-3.333-3.333h-15.333c-1.841 0-3.333 1.492-3.333 3.333zM16.667 8c0.407 0 0.773 0.247 0.927 0.624l4.333 10.667c0.208 0.512-0.038 1.095-0.55 1.303s-1.095-0.038-1.303-0.55l-1.101-2.71h-4.612l-1.101 2.71c-0.208 0.512-0.791 0.758-1.303 0.55s-0.758-0.791-0.55-1.303l4.333-10.667c0.153-0.377 0.519-0.624 0.926-0.624z"></path>
</svg>
