<!-- Generated by IcoMoon.io -->
<svg version="1.1" xmlns="http://www.w3.org/2000/svg" width="32" height="32" viewBox="0 0 32 32">
<title>book-clock-filled</title>
<path d="M15.667 15.167c0 0.46 0.373 0.833 0.833 0.833 0.028 0 0.056-0.001 0.083-0.004 0.027 0.003 0.055 0.004 0.083 0.004h1.667c0.46 0 0.833-0.373 0.833-0.833s-0.373-0.833-0.833-0.833h-1v-2.167c0-0.46-0.373-0.833-0.833-0.833s-0.833 0.373-0.833 0.833v3z"></path>
<path d="M5.333 6c0-1.841 1.492-3.333 3.333-3.333h15.333c1.841 0 3.333 1.492 3.333 3.333v19c0 0.552-0.448 1-1 1h-19c0 0.736 0.597 1.333 1.333 1.333h17.667c0.552 0 1 0.448 1 1s-0.448 1-1 1h-17.667c-1.841 0-3.333-1.492-3.333-3.333v-20zM16.5 8.007c-3.498 0-6.333 2.836-6.333 6.333s2.836 6.333 6.333 6.333c3.498 0 6.333-2.836 6.333-6.333s-2.835-6.333-6.333-6.333z"></path>
</svg>
