<!-- Generated by IcoMoon.io -->
<svg version="1.1" xmlns="http://www.w3.org/2000/svg" width="32" height="32" viewBox="0 0 32 32">
<title>border-left-filled</title>
<path d="M8 28c0.736 0 1.333-0.597 1.333-1.333s-0.597-1.333-1.333-1.333c-0.736 0-1.333-0.597-1.333-1.333v-16c0-0.736 0.597-1.333 1.333-1.333s1.333-0.597 1.333-1.333c0-0.736-0.597-1.333-1.333-1.333-2.209 0-4 1.791-4 4v16c0 2.209 1.791 4 4 4z"></path>
<path d="M17.333 6.667c0.736 0 1.333-0.597 1.333-1.333s-0.597-1.333-1.333-1.333h-2.667c-0.736 0-1.333 0.597-1.333 1.333s0.597 1.333 1.333 1.333h2.667z"></path>
<path d="M25.333 14.667c0-0.736 0.597-1.333 1.333-1.333s1.333 0.597 1.333 1.333v2.667c0 0.736-0.597 1.333-1.333 1.333s-1.333-0.597-1.333-1.333v-2.667z"></path>
<path d="M18.667 26.667c0 0.736-0.597 1.333-1.333 1.333h-2.667c-0.736 0-1.333-0.597-1.333-1.333s0.597-1.333 1.333-1.333h2.667c0.736 0 1.333 0.597 1.333 1.333z"></path>
<path d="M24 4c-0.736 0-1.333 0.597-1.333 1.333s0.597 1.333 1.333 1.333c0.736 0 1.333 0.597 1.333 1.333s0.597 1.333 1.333 1.333c0.736 0 1.333-0.597 1.333-1.333 0-2.209-1.791-4-4-4z"></path>
<path d="M22.667 26.667c0 0.736 0.597 1.333 1.333 1.333 2.209 0 4-1.791 4-4 0-0.736-0.597-1.333-1.333-1.333s-1.333 0.597-1.333 1.333c0 0.736-0.597 1.333-1.333 1.333s-1.333 0.597-1.333 1.333z"></path>
</svg>
