<!-- Generated by IcoMoon.io -->
<svg version="1.1" xmlns="http://www.w3.org/2000/svg" width="32" height="32" viewBox="0 0 32 32">
<title>border-bottom-thick-filled</title>
<path d="M18.667 5.333c0 0.736-0.597 1.333-1.333 1.333v0h-2.667c-0.736 0-1.333-0.597-1.333-1.333s0.597-1.333 1.333-1.333v0h2.667c0.736 0 1.333 0.597 1.333 1.333v0zM6.667 14.667c0-0.736-0.597-1.333-1.333-1.333s-1.333 0.597-1.333 1.333v0 2.667c0 0.736 0.597 1.333 1.333 1.333s1.333-0.597 1.333-1.333v0-2.667zM25.333 14.667c0-0.736 0.597-1.333 1.333-1.333s1.333 0.597 1.333 1.333v0 2.667c0 0.736-0.597 1.333-1.333 1.333s-1.333-0.597-1.333-1.333v0-2.667zM8 4c0.736 0 1.333 0.597 1.333 1.333s-0.597 1.333-1.333 1.333v0c-0.736 0-1.333 0.597-1.333 1.333v0c0 0.736-0.597 1.333-1.333 1.333s-1.333-0.597-1.333-1.333v0c0-2.209 1.791-4 4-4v0zM22.667 5.333c0-0.736 0.597-1.333 1.333-1.333v0c2.209 0 4 1.791 4 4v0c0 0.736-0.597 1.333-1.333 1.333s-1.333-0.597-1.333-1.333v0c0-0.736-0.597-1.333-1.333-1.333v0c-0.736 0-1.333-0.597-1.333-1.333v0zM7.333 23v0.667c0 0.552 0.448 1 1 1h15.333c0.552 0 1-0.448 1-1v0-0.667c0-0.92 0.746-1.667 1.667-1.667s1.667 0.746 1.667 1.667v0 1h-0.013c-0.178 2.245-2.044 4-4.32 4h-15.333c-2.276-0-4.142-1.755-4.319-3.985l-0.001-0.015h-0.013v-1c0-0.92 0.746-1.667 1.667-1.667s1.667 0.746 1.667 1.667v0z"></path>
</svg>
