<!-- Generated by IcoMoon.io -->
<svg version="1.1" xmlns="http://www.w3.org/2000/svg" width="32" height="32" viewBox="0 0 32 32">
<title>border-top-bottom-thick-filled</title>
<path d="M4 8c0 0.736 0.597 1.333 1.333 1.333s1.333-0.597 1.333-1.333c0-0.736 0.597-1.333 1.333-1.333h16c0.736 0 1.333 0.597 1.333 1.333s0.597 1.333 1.333 1.333c0.736 0 1.333-0.597 1.333-1.333 0-2.209-1.791-4-4-4h-16c-2.209 0-4 1.791-4 4z"></path>
<path d="M6.667 14.667c0-0.736-0.597-1.333-1.333-1.333s-1.333 0.597-1.333 1.333v2.667c0 0.736 0.597 1.333 1.333 1.333s1.333-0.597 1.333-1.333v-2.667z"></path>
<path d="M7.333 23v0.667c0 0.552 0.448 1 1 1h15.333c0.552 0 1-0.448 1-1v-0.667c0-0.921 0.746-1.667 1.667-1.667s1.667 0.746 1.667 1.667v1l-0.013 0.001c-0.171 2.237-2.040 3.999-4.321 3.999h-15.333c-2.281 0-4.15-1.762-4.321-3.999l-0.013-0.001v-1c0-0.921 0.746-1.667 1.667-1.667s1.667 0.746 1.667 1.667z"></path>
<path d="M26.667 13.333c-0.736 0-1.333 0.597-1.333 1.333v2.667c0 0.736 0.597 1.333 1.333 1.333s1.333-0.597 1.333-1.333v-2.667c0-0.736-0.597-1.333-1.333-1.333z"></path>
</svg>
