<!-- Generated by IcoMoon.io -->
<svg version="1.1" xmlns="http://www.w3.org/2000/svg" width="32" height="32" viewBox="0 0 32 32">
<title>border-none-filled</title>
<path d="M18.667 5.333c0 0.736-0.597 1.333-1.333 1.333v0h-2.667c-0.736 0-1.333-0.597-1.333-1.333s0.597-1.333 1.333-1.333v0h2.667c0.736 0 1.333 0.597 1.333 1.333v0zM6.667 14.667c0-0.736-0.597-1.333-1.333-1.333s-1.333 0.597-1.333 1.333v0 2.667c0 0.736 0.597 1.333 1.333 1.333s1.333-0.597 1.333-1.333v0-2.667zM25.333 14.667c0-0.736 0.597-1.333 1.333-1.333s1.333 0.597 1.333 1.333v0 2.667c0 0.736-0.597 1.333-1.333 1.333s-1.333-0.597-1.333-1.333v0-2.667zM17.333 28c0.736 0 1.333-0.597 1.333-1.333s-0.597-1.333-1.333-1.333v0h-2.667c-0.736 0-1.333 0.597-1.333 1.333s0.597 1.333 1.333 1.333v0h2.667zM9.333 5.333c0-0.736-0.597-1.333-1.333-1.333v0c-2.209 0-4 1.791-4 4v0c0 0.736 0.597 1.333 1.333 1.333s1.333-0.597 1.333-1.333v0c0-0.736 0.597-1.333 1.333-1.333v0c0.736 0 1.333-0.597 1.333-1.333v0zM24 4c-0.736 0-1.333 0.597-1.333 1.333s0.597 1.333 1.333 1.333v0c0.736 0 1.333 0.597 1.333 1.333v0c0 0.736 0.597 1.333 1.333 1.333s1.333-0.597 1.333-1.333v0c0-2.209-1.791-4-4-4v0zM9.333 26.667c0 0.736-0.597 1.333-1.333 1.333v0c-2.209 0-4-1.791-4-4v0c0-0.736 0.597-1.333 1.333-1.333s1.333 0.597 1.333 1.333v0c0 0.736 0.597 1.333 1.333 1.333v0c0.736 0 1.333 0.597 1.333 1.333v0zM24 28c-0.736 0-1.333-0.597-1.333-1.333s0.597-1.333 1.333-1.333v0c0.736 0 1.333-0.597 1.333-1.333v0c0-0.736 0.597-1.333 1.333-1.333s1.333 0.597 1.333 1.333v0c0 2.209-1.791 4-4 4v0z"></path>
</svg>
