<!-- Generated by IcoMoon.io -->
<svg version="1.1" xmlns="http://www.w3.org/2000/svg" width="32" height="32" viewBox="0 0 32 32">
<title>border-right-filled</title>
<path d="M17.333 6.667c0.736 0 1.333-0.597 1.333-1.333s-0.597-1.333-1.333-1.333v0h-2.667c-0.736 0-1.333 0.597-1.333 1.333s0.597 1.333 1.333 1.333v0h2.667zM6.667 14.667c0-0.736-0.597-1.333-1.333-1.333s-1.333 0.597-1.333 1.333v0 2.667c0 0.736 0.597 1.333 1.333 1.333s1.333-0.597 1.333-1.333v0-2.667zM18.667 26.667c0 0.736-0.597 1.333-1.333 1.333v0h-2.667c-0.736 0-1.333-0.597-1.333-1.333s0.597-1.333 1.333-1.333v0h2.667c0.736 0 1.333 0.597 1.333 1.333v0zM8 4c0.736 0 1.333 0.597 1.333 1.333s-0.597 1.333-1.333 1.333v0c-0.736 0-1.333 0.597-1.333 1.333v0c0 0.736-0.597 1.333-1.333 1.333s-1.333-0.597-1.333-1.333v0c0-2.209 1.791-4 4-4v0zM9.333 26.667c0 0.736-0.597 1.333-1.333 1.333v0c-2.209 0-4-1.791-4-4v0c0-0.736 0.597-1.333 1.333-1.333s1.333 0.597 1.333 1.333v0c0 0.736 0.597 1.333 1.333 1.333v0c0.736 0 1.333 0.597 1.333 1.333v0zM24 28c-0.736 0-1.333-0.597-1.333-1.333s0.597-1.333 1.333-1.333v0c0.736 0 1.333-0.597 1.333-1.333v0-16c0-0.736-0.597-1.333-1.333-1.333v0c-0.736 0-1.333-0.597-1.333-1.333s0.597-1.333 1.333-1.333v0c2.209 0 4 1.791 4 4v0 16c0 2.209-1.791 4-4 4v0z"></path>
</svg>
