<!-- Generated by IcoMoon.io -->
<svg version="1.1" xmlns="http://www.w3.org/2000/svg" width="32" height="32" viewBox="0 0 32 32">
<title>border-outside-thick-filled</title>
<path d="M3.333 7.667c0-2.393 1.94-4.333 4.333-4.333v0h16.667c2.393 0 4.333 1.94 4.333 4.333v0 16.667c0 2.393-1.94 4.333-4.333 4.333v0h-16.667c-2.393 0-4.333-1.94-4.333-4.333v0-16.667zM7.667 6.667c-0.552 0-1 0.448-1 1v0 16.667c0 0.552 0.448 1 1 1h16.667c0.552 0 1-0.448 1-1v0-16.667c0-0.552-0.448-1-1-1v0h-16.667z"></path>
</svg>
