<!-- Generated by IcoMoon.io -->
<svg version="1.1" xmlns="http://www.w3.org/2000/svg" width="32" height="32" viewBox="0 0 32 32">
<title>border-top-bottom-filled</title>
<path d="M5.333 9.333c-0.736 0-1.333-0.597-1.333-1.333v0c0-2.209 1.791-4 4-4v0h16c2.209 0 4 1.791 4 4v0c0 0.736-0.597 1.333-1.333 1.333s-1.333-0.597-1.333-1.333v0c0-0.736-0.597-1.333-1.333-1.333v0h-16c-0.736 0-1.333 0.597-1.333 1.333v0c0 0.736-0.597 1.333-1.333 1.333v0zM6.667 14.667c0-0.736-0.597-1.333-1.333-1.333s-1.333 0.597-1.333 1.333v0 2.667c0 0.736 0.597 1.333 1.333 1.333s1.333-0.597 1.333-1.333v0-2.667zM25.333 14.667c0-0.736 0.597-1.333 1.333-1.333s1.333 0.597 1.333 1.333v0 2.667c0 0.736-0.597 1.333-1.333 1.333s-1.333-0.597-1.333-1.333v0-2.667zM4 24c0-0.736 0.597-1.333 1.333-1.333s1.333 0.597 1.333 1.333v0c0 0.736 0.597 1.333 1.333 1.333v0h16c0.736 0 1.333-0.597 1.333-1.333v0c0-0.736 0.597-1.333 1.333-1.333s1.333 0.597 1.333 1.333v0c0 2.209-1.791 4-4 4v0h-16c-2.209 0-4-1.791-4-4v0z"></path>
</svg>
