<!-- Generated by IcoMoon.io -->
<svg version="1.1" xmlns="http://www.w3.org/2000/svg" width="32" height="32" viewBox="0 0 32 32">
<title>border-top-bottom-filled</title>
<path d="M5.333 9.333c-0.736 0-1.333-0.597-1.333-1.333 0-2.209 1.791-4 4-4h16c2.209 0 4 1.791 4 4 0 0.736-0.597 1.333-1.333 1.333s-1.333-0.597-1.333-1.333c0-0.736-0.597-1.333-1.333-1.333h-16c-0.736 0-1.333 0.597-1.333 1.333s-0.597 1.333-1.333 1.333z"></path>
<path d="M6.667 14.667c0-0.736-0.597-1.333-1.333-1.333s-1.333 0.597-1.333 1.333v2.667c0 0.736 0.597 1.333 1.333 1.333s1.333-0.597 1.333-1.333v-2.667z"></path>
<path d="M25.333 14.667c0-0.736 0.597-1.333 1.333-1.333s1.333 0.597 1.333 1.333v2.667c0 0.736-0.597 1.333-1.333 1.333s-1.333-0.597-1.333-1.333v-2.667z"></path>
<path d="M4 24c0-0.736 0.597-1.333 1.333-1.333s1.333 0.597 1.333 1.333c0 0.736 0.597 1.333 1.333 1.333h16c0.736 0 1.333-0.597 1.333-1.333s0.597-1.333 1.333-1.333c0.736 0 1.333 0.597 1.333 1.333 0 2.209-1.791 4-4 4h-16c-2.209 0-4-1.791-4-4z"></path>
</svg>
