<!-- Generated by IcoMoon.io -->
<svg version="1.1" xmlns="http://www.w3.org/2000/svg" width="32" height="32" viewBox="0 0 32 32">
<title>bowl-chopsticks-filled</title>
<path d="M6.115 2.417c0.129-0.082 0.287-0.131 0.456-0.131 0.304 0 0.572 0.159 0.724 0.398l0.002 0.003 7.642 12.17h3.689l-7.070-11.258c-0.079-0.127-0.126-0.282-0.126-0.448 0-0.473 0.384-0.857 0.857-0.857 0.301 0 0.566 0.155 0.718 0.39l0.002 0.003 7.643 12.17h8.305c0 0 0.001 0 0.001 0 0.417 0 0.754 0.338 0.754 0.754 0 0 0 0.001 0 0.001v-0 0.387c0 1.184-0.15 2.333-0.432 3.429h-26.565c-0.274-1.026-0.432-2.204-0.432-3.418 0-0.004 0-0.007 0-0.011v0.001-0.387c0-0.417 0.338-0.755 0.755-0.755h9.874l-7.071-11.258c-0.082-0.129-0.131-0.287-0.131-0.456 0-0.304 0.159-0.572 0.398-0.724l0.003-0.002zM3.282 21.143c2.034 5.026 6.962 8.571 12.718 8.571s10.683-3.545 12.718-8.571h-25.435z"></path>
</svg>
