<!-- Generated by IcoMoon.io -->
<svg version="1.1" xmlns="http://www.w3.org/2000/svg" width="32" height="32" viewBox="0 0 32 32">
<title>bowl-salad-filled</title>
<path d="M16 2.667c-0 0-0.001 0-0.001 0-3.106 0-5.76 1.93-6.831 4.656l-0.017 0.050c-0.432-0.133-0.997-0.27-1.573-0.378l-0.107-0.017c-1.036-0.197-2.229-0.309-3.447-0.309-0.029 0-0.058 0-0.087 0h0.004l-0.229 0.005-0.064 0.003-0.027 0.001c-0.509 0.029-0.915 0.435-0.944 0.941l-0 0.003-0.004 0.092c-0.003 0.125-0.006 0.272-0.006 0.42 0 0.22 0.004 0.439 0.013 0.656l-0.001-0.031c0.027 0.684 0.101 1.636 0.297 2.712 0.179 0.98 0.464 2.087 0.92 3.196h-0.236c-0.549 0-0.995 0.445-0.995 0.995v0.339c0 1.393 0.213 2.737 0.611 4h25.445c0.387-1.192 0.611-2.564 0.611-3.988 0-0.004 0-0.008 0-0.012v0.001-0.339c0-0.549-0.445-0.995-0.995-0.995v0h-0.343c0.001-0.050 0.002-0.108 0.002-0.166 0-3.017-2.055-5.555-4.842-6.289l-0.045-0.010c-0.832-3.206-3.7-5.535-7.111-5.535-0 0-0 0-0.001 0h0zM16 4.667c2.233 0 4.146 1.373 4.94 3.32l0.013 0.036c-2.384 0.206-4.384 1.671-5.346 3.72l-0.017 0.040c-0.378-0.555-0.78-1.041-1.223-1.486l0 0c-0.999-0.999-2.16-1.72-3.336-2.244 0.8-2 2.721-3.387 4.966-3.387 0.001 0 0.001 0 0.002 0h-0zM25.997 14.5c0 0.056 0 0.112-0.003 0.167h-8.972l-0.024-0.067v-0.1c0-2.485 2.015-4.5 4.5-4.5s4.5 2.015 4.5 4.5v0zM12.955 11.712c0.857 0.856 1.479 1.887 1.927 2.955h-2.8l-2.375-2.373c-0.183-0.196-0.443-0.318-0.732-0.318-0.552 0-1 0.448-1 1 0 0.289 0.122 0.549 0.318 0.731l0.001 0.001 0.96 0.96h-3.16c-0.587-1.168-0.939-2.417-1.147-3.556-0.136-0.708-0.231-1.544-0.266-2.396l-0.001-0.034v-0.003h0.001c0.613 0.023 1.468 0.091 2.429 0.267 1.947 0.356 4.213 1.133 5.844 2.767zM4.089 22c2.245 4.384 6.731 7.333 11.907 7.333 0.001 0 0.003 0 0.004 0h-0c0.001 0 0.002 0 0.004 0 5.176 0 9.662-2.949 11.872-7.258l0.035-0.075h-23.821zM16.999 14.6l0.024 0.067z"></path>
</svg>
