<!-- Generated by IcoMoon.io -->
<svg version="1.1" xmlns="http://www.w3.org/2000/svg" width="32" height="32" viewBox="0 0 32 32">
<title>bowl-chopsticks-filled</title>
<path d="M8.194 3.157c-0.282-0.475-0.895-0.632-1.37-0.35s-0.632 0.895-0.35 1.37l3.846 6.49h2.325l-4.45-7.51zM13.527 3.157l4.45 7.51h-2.325l-3.846-6.49c-0.282-0.475-0.125-1.089 0.35-1.37s1.089-0.125 1.37 0.35zM3.686 12c-0.563 0-1.020 0.457-1.020 1.020v2.98h26.667v-2.98c0-0.563-0.457-1.020-1.020-1.020h-24.627zM2.816 18c0.593 3.94 2.909 7.315 6.157 9.333h-3.973c-0.552 0-1 0.448-1 1s0.448 1 1 1h22c0.552 0 1-0.448 1-1s-0.448-1-1-1h-3.973c3.248-2.018 5.565-5.393 6.157-9.333h-26.369z"></path>
</svg>
