<!-- Generated by IcoMoon.io -->
<svg version="1.1" xmlns="http://www.w3.org/2000/svg" width="32" height="32" viewBox="0 0 32 32">
<title>box-edit-filled</title>
<path d="M17.879 3.351c-0.556-0.232-1.202-0.366-1.879-0.366s-1.323 0.135-1.912 0.379l0.033-0.012-2.92 1.184 12.789 4.973 4.499-1.737c-0.176-0.147-0.378-0.27-0.598-0.361l-0.015-0.006-9.997-4.053zM29.333 9.588l-12.333 4.765v9.121l7.524-7.524c0.793-0.793 1.889-1.284 3.099-1.284 0.618 0 1.206 0.128 1.739 0.358l-0.028-0.011v-5.427zM15 14.353v13.196l-0.249 0.996c-0.021 0.079-0.042 0.181-0.057 0.284l-0.002 0.016c-0.23-0.063-0.419-0.129-0.604-0.205l0.033 0.012-9.997-4.053c-0.862-0.356-1.457-1.19-1.457-2.163 0 0 0 0 0 0v0-12.847l12.333 4.765zM3.511 7.771l12.489 4.825 5.223-2.019-12.724-4.947-4.375 1.773c-0.227 0.092-0.432 0.216-0.613 0.367zM25.467 16.893l-7.871 7.871c-0.446 0.446-0.774 1.008-0.936 1.638l-0.005 0.025-0.611 2.441c-0.027 0.106-0.043 0.227-0.043 0.352 0 0.8 0.649 1.449 1.449 1.449 0.125 0 0.247-0.016 0.363-0.046l-0.010 0.002 2.44-0.609c0.655-0.167 1.218-0.496 1.664-0.943l7.869-7.869c0.532-0.548 0.86-1.297 0.86-2.122 0-1.683-1.365-3.048-3.048-3.048-0.825 0-1.573 0.328-2.122 0.86l0.001-0.001z"></path>
</svg>
