<!-- Generated by IcoMoon.io -->
<svg version="1.1" xmlns="http://www.w3.org/2000/svg" width="32" height="32" viewBox="0 0 32 32">
<title>box-filled</title>
<path d="M17.879 3.349c-1.205-0.488-2.552-0.488-3.757 0l-2.921 1.184 12.79 4.974 4.499-1.738c-0.181-0.15-0.387-0.275-0.613-0.366l-9.998-4.053zM29.333 9.587l-12.334 4.765v14.564c0.298-0.061 0.593-0.149 0.879-0.265l9.998-4.053c0.881-0.357 1.457-1.212 1.457-2.162v-12.848zM15 28.916v-14.564l-12.333-4.765v12.848c0 0.95 0.576 1.805 1.457 2.162l9.998 4.053c0.286 0.116 0.58 0.204 0.878 0.265zM3.51 7.769l12.489 4.825 5.223-2.018-12.723-4.948-4.376 1.774c-0.226 0.092-0.432 0.216-0.613 0.366z"></path>
</svg>
