<!-- Generated by IcoMoon.io -->
<svg version="1.1" xmlns="http://www.w3.org/2000/svg" width="32" height="32" viewBox="0 0 32 32">
<title>box-multiple-search-filled</title>
<path d="M18.267 3.107c0.515-0.196 1.111-0.31 1.733-0.31s1.218 0.114 1.768 0.321l-0.034-0.011 5.743 2.123c0.897 0.339 1.524 1.19 1.524 2.188v12.389c-0.964-3.005-3.733-5.141-7.001-5.141-0.178 0-0.354 0.006-0.529 0.019l0.023-0.001c-0.407-0.491-0.931-0.87-1.531-1.097l-0.025-0.008-5.741-2.123c-0.653-0.249-1.407-0.393-2.196-0.393-0.353 0-0.7 0.029-1.037 0.084l0.037-0.005v-3.724c0-0.998 0.627-1.849 1.508-2.183l0.016-0.005 5.743-2.123zM15.073 8.339c-0.035 0.097-0.055 0.21-0.055 0.327 0 0.435 0.278 0.806 0.667 0.943l0.007 0.002 3.545 1.225c0.493 0.171 1.032 0.171 1.525 0l3.533-1.225c0.38-0.147 0.645-0.51 0.645-0.935 0-0.552-0.448-1-1-1-0.107 0-0.209 0.017-0.305 0.048l0.007-0.002-3.533 1.224c-0.033 0.012-0.070 0.018-0.109 0.018s-0.077-0.007-0.112-0.019l0.002 0.001-3.545-1.225c-0.097-0.035-0.21-0.055-0.327-0.055-0.435 0-0.806 0.278-0.943 0.667l-0.002 0.007zM19.828 14.992c-0.099-0.058-0.215-0.113-0.336-0.159l-0.016-0.005-5.743-2.123c-0.515-0.196-1.111-0.31-1.733-0.31s-1.218 0.114-1.768 0.321l0.034-0.011-5.743 2.123c-0.897 0.339-1.524 1.19-1.524 2.188v7.56c0 0 0 0.001 0 0.001 0 0.998 0.627 1.85 1.508 2.183l0.016 0.005 5.743 2.123c0.515 0.196 1.111 0.31 1.733 0.31s1.218-0.114 1.768-0.321l-0.034 0.011 3.519-1.301c-1.586-1.351-2.585-3.349-2.585-5.581 0-0.002 0-0.004 0-0.006v0c0-0.683 0.093-1.343 0.267-1.971l-1.933 0.671v3.6c0 0.552-0.448 1-1 1s-1-0.448-1-1v0-3.6l-3.307-1.143c-0.395-0.14-0.674-0.51-0.674-0.945 0-0.552 0.448-1 1-1 0.117 0 0.229 0.020 0.334 0.057l-0.007-0.002 3.653 1.264 3.643-1.263c0.099-0.035 0.212-0.055 0.331-0.055 0.050 0 0.1 0.004 0.148 0.011l-0.006-0.001c0.92-1.227 2.189-2.146 3.66-2.615l0.052-0.014zM26.891 25.475c0.694-0.966 1.11-2.173 1.11-3.477 0-3.314-2.686-6-6-6s-6 2.686-6 6c0 3.314 2.686 6 6 6 1.304 0 2.511-0.416 3.495-1.122l-0.018 0.012 3.483 3.484c0.178 0.166 0.418 0.268 0.682 0.268 0.552 0 1-0.448 1-1 0-0.264-0.102-0.504-0.269-0.682l0.001 0.001-3.483-3.484zM26 22c0 2.209-1.791 4-4 4s-4-1.791-4-4v0c0-2.209 1.791-4 4-4s4 1.791 4 4v0z"></path>
</svg>
