<!-- Generated by IcoMoon.io -->
<svg version="1.1" xmlns="http://www.w3.org/2000/svg" width="32" height="32" viewBox="0 0 32 32">
<title>box-dismiss-filled</title>
<path d="M17.879 3.349c-1.205-0.488-2.552-0.488-3.757 0l-2.921 1.184 12.79 4.974 4.499-1.738c-0.181-0.15-0.387-0.275-0.613-0.366l-9.998-4.053zM29.333 9.587l-12.334 4.765v3.065c1.582-1.693 3.834-2.751 6.334-2.751 2.329 0 4.443 0.918 6 2.413v-7.493zM15 14.352v6.593c-0.217 0.758-0.333 1.559-0.333 2.388s0.116 1.629 0.333 2.388v3.195c-0.298-0.061-0.592-0.149-0.878-0.265l-9.998-4.053c-0.881-0.357-1.457-1.212-1.457-2.162v-12.848l12.333 4.765zM3.51 7.769l12.489 4.825 5.223-2.018-12.723-4.948-4.376 1.774c-0.226 0.092-0.432 0.216-0.613 0.366zM30.667 23.333c0 4.050-3.283 7.333-7.333 7.333s-7.333-3.283-7.333-7.333c0-4.050 3.283-7.333 7.333-7.333s7.333 3.283 7.333 7.333zM21.138 20.195c-0.26-0.26-0.683-0.26-0.943 0s-0.26 0.683 0 0.943l2.195 2.195-2.195 2.195c-0.26 0.26-0.26 0.683 0 0.943s0.683 0.26 0.943 0l2.195-2.195 2.195 2.195c0.26 0.26 0.683 0.26 0.943 0s0.26-0.683 0-0.943l-2.195-2.195 2.195-2.195c0.26-0.26 0.26-0.683 0-0.943s-0.683-0.26-0.943 0l-2.195 2.195-2.195-2.195z"></path>
</svg>
