<!-- Generated by IcoMoon.io -->
<svg version="1.1" xmlns="http://www.w3.org/2000/svg" width="32" height="32" viewBox="0 0 32 32">
<title>box-checkmark-filled</title>
<path d="M17.879 3.351c-0.556-0.232-1.202-0.366-1.879-0.366s-1.323 0.135-1.912 0.379l0.033-0.012-2.92 1.184 12.789 4.973 4.499-1.737c-0.176-0.147-0.378-0.27-0.598-0.361l-0.015-0.006-9.997-4.053zM29.333 9.588l-12.333 4.765v3.067c1.582-1.696 3.83-2.753 6.325-2.753 0.003 0 0.006 0 0.008 0h-0c2.329 0 4.443 0.919 6 2.413v-7.493zM15 14.353v6.593c-0.212 0.713-0.333 1.533-0.333 2.381 0 0.002 0 0.005 0 0.007v-0c0 0.828 0.116 1.629 0.333 2.387v3.196c-0.337-0.070-0.631-0.161-0.912-0.277l0.033 0.012-9.997-4.053c-0.862-0.356-1.457-1.19-1.457-2.163 0 0 0 0 0 0v0-12.847l12.333 4.765zM3.511 7.771l12.489 4.825 5.223-2.019-12.724-4.947-4.375 1.773c-0.227 0.092-0.432 0.216-0.613 0.367zM23.333 30.667c4.050 0 7.333-3.283 7.333-7.333s-3.283-7.333-7.333-7.333v0c-4.050 0-7.333 3.283-7.333 7.333s3.283 7.333 7.333 7.333v0zM26.861 20.195c0.121-0.121 0.288-0.196 0.472-0.196 0.368 0 0.667 0.299 0.667 0.667 0 0.184-0.075 0.351-0.195 0.471v0l-5.333 5.333c-0.121 0.121-0.288 0.196-0.472 0.196s-0.351-0.075-0.472-0.196v0l-2.667-2.667c-0.12-0.121-0.195-0.287-0.195-0.471 0-0.368 0.299-0.667 0.667-0.667 0.184 0 0.351 0.075 0.472 0.196l2.195 2.196 4.861-4.863z"></path>
</svg>
