<!-- Generated by IcoMoon.io -->
<svg version="1.1" xmlns="http://www.w3.org/2000/svg" width="32" height="32" viewBox="0 0 32 32">
<title>box-multiple-arrow-left-filled</title>
<path d="M21.733 3.107c-0.515-0.196-1.111-0.31-1.733-0.31s-1.218 0.114-1.768 0.321l0.034-0.011-5.743 2.123c-0.897 0.339-1.524 1.19-1.524 2.188v3.724c0.301-0.051 0.647-0.079 1-0.079 0.788 0 1.543 0.144 2.239 0.407l-0.044-0.014 5.741 2.123c0.685 0.253 1.261 0.697 1.677 1.259 0.516-0.109 1.108-0.171 1.715-0.171 0.001 0 0.002 0 0.004 0h-0c2.167 0 4.147 0.795 5.667 2.109v-9.357c-0-0.998-0.627-1.849-1.508-2.183l-0.016-0.005-5.743-2.123zM15.693 9.611c-0.395-0.14-0.674-0.51-0.674-0.945 0-0.552 0.448-1 1-1 0.117 0 0.229 0.020 0.334 0.057l-0.007-0.002 3.544 1.227c0.032 0.012 0.070 0.018 0.109 0.018s0.076-0.007 0.111-0.019l-0.002 0.001 3.533-1.227c0.098-0.035 0.21-0.055 0.328-0.055 0.553 0 1.001 0.448 1.001 1.001 0 0.435-0.278 0.805-0.666 0.943l-0.007 0.002-3.533 1.225c-0.227 0.081-0.49 0.128-0.763 0.128s-0.536-0.047-0.78-0.133l0.016 0.005-3.545-1.225zM19.476 14.828c0.267 0.099 0.509 0.244 0.717 0.424-1.434 0.569-2.637 1.459-3.561 2.585l-0.012 0.015c-0.174-0.15-0.402-0.241-0.651-0.241-0.117 0-0.229 0.020-0.333 0.057l0.007-0.002-3.643 1.265-3.653-1.264c-0.097-0.035-0.21-0.055-0.327-0.055-0.552 0-1 0.448-1 1 0 0.435 0.278 0.806 0.667 0.943l0.007 0.002 3.307 1.143v3.6c0 0.552 0.448 1 1 1s1-0.448 1-1v0-3.6l2.385-0.827c-0.454 1.016-0.719 2.202-0.719 3.449 0 0.004 0 0.007 0 0.011v-0.001c0 1.733 0.508 3.347 1.383 4.699l-2.316 0.857c-0.515 0.196-1.111 0.31-1.733 0.31s-1.218-0.114-1.768-0.321l0.034 0.011-5.743-2.123c-0.897-0.339-1.524-1.19-1.524-2.188 0-0 0-0.001 0-0.001v0-7.56c0-0.998 0.627-1.849 1.508-2.183l0.016-0.005 5.743-2.124c0.515-0.196 1.111-0.31 1.733-0.31s1.218 0.114 1.768 0.321l-0.034-0.011 5.743 2.123zM30.667 23.332c0 4.050-3.283 7.333-7.333 7.333s-7.333-3.283-7.333-7.333v0c0-4.050 3.283-7.333 7.333-7.333s7.333 3.283 7.333 7.333v0zM27.333 23.999c0.368 0 0.667-0.298 0.667-0.667s-0.298-0.667-0.667-0.667v0h-6.391l2.196-2.195c0.12-0.121 0.195-0.287 0.195-0.471 0-0.368-0.299-0.667-0.667-0.667-0.184 0-0.351 0.075-0.472 0.196v0l-3.333 3.333c-0.121 0.121-0.195 0.287-0.195 0.471s0.075 0.351 0.195 0.471l3.333 3.333c0.121 0.121 0.288 0.195 0.472 0.195 0.369 0 0.668-0.299 0.668-0.668 0-0.184-0.075-0.351-0.195-0.472v0l-2.196-2.193h6.391z"></path>
</svg>
