<!-- Generated by IcoMoon.io -->
<svg version="1.1" xmlns="http://www.w3.org/2000/svg" width="32" height="32" viewBox="0 0 32 32">
<title>box-filled</title>
<path d="M17.879 3.351c-0.556-0.232-1.202-0.366-1.879-0.366s-1.323 0.135-1.912 0.379l0.033-0.012-2.92 1.184 12.789 4.973 4.499-1.737c-0.176-0.147-0.378-0.27-0.598-0.361l-0.015-0.006-9.997-4.053zM29.333 9.588l-12.333 4.765v14.564c0.299-0.060 0.592-0.149 0.879-0.265l9.997-4.053c0.862-0.356 1.457-1.19 1.457-2.163 0 0 0 0 0 0v0-12.847zM15 28.917v-14.564l-12.333-4.765v12.849c0.001 0.972 0.596 1.806 1.442 2.156l0.016 0.006 9.997 4.053c0.287 0.116 0.58 0.204 0.879 0.267zM3.511 7.771l12.489 4.825 5.223-2.019-12.724-4.947-4.375 1.773c-0.227 0.092-0.432 0.216-0.613 0.367z"></path>
</svg>
