<!-- Generated by IcoMoon.io -->
<svg version="1.1" xmlns="http://www.w3.org/2000/svg" width="32" height="32" viewBox="0 0 32 32">
<title>box-arrow-left-filled</title>
<path d="M17.879 3.351c-0.556-0.232-1.202-0.366-1.879-0.366s-1.323 0.135-1.912 0.379l0.033-0.012-2.92 1.184 12.789 4.973 4.499-1.737c-0.176-0.147-0.378-0.27-0.598-0.361l-0.015-0.006-9.997-4.053zM29.333 9.588l-12.333 4.765v3.067c1.582-1.696 3.83-2.753 6.325-2.753 0.003 0 0.006 0 0.008 0h-0c2.329 0 4.443 0.919 6 2.413v-7.493zM15 20.948v-6.595l-12.333-4.765v12.849c0.001 0.972 0.596 1.806 1.442 2.156l0.016 0.006 9.997 4.053c0.287 0.116 0.58 0.204 0.879 0.267v-3.196c-0.212-0.713-0.333-1.533-0.333-2.381 0-0.003 0-0.006 0-0.009v0c0-0.828 0.116-1.629 0.333-2.387zM3.511 7.769l12.489 4.827 5.223-2.019-12.724-4.947-4.375 1.773c-0.227 0.092-0.432 0.216-0.613 0.367zM23.333 16c-4.050 0-7.333 3.283-7.333 7.333s3.283 7.333 7.333 7.333v0c4.050 0 7.333-3.283 7.333-7.333s-3.283-7.333-7.333-7.333v0zM18.669 23.277l0.020-0.115 0.027-0.084 0.047-0.089 0.043-0.064 3.389-3.397 0.093-0.076c0.105-0.073 0.236-0.116 0.376-0.116 0.368 0 0.667 0.298 0.667 0.667 0 0.141-0.044 0.271-0.118 0.379l0.001-0.002-0.076 0.093-2.197 2.196h7.059l0.12 0.011c0.273 0.051 0.485 0.263 0.535 0.532l0.001 0.004 0.011 0.12-0.011 0.12c-0.051 0.273-0.263 0.485-0.532 0.535l-0.004 0.001-0.12 0.009-7.056 0.001 2.195 2.193 0.076 0.093c0.074 0.106 0.118 0.237 0.118 0.379s-0.044 0.273-0.119 0.381l0.001-0.002-0.076 0.093-0.093 0.076c-0.106 0.074-0.237 0.118-0.379 0.118s-0.273-0.044-0.381-0.119l0.002 0.001-0.093-0.076-3.349-3.351-0.060-0.075-0.056-0.099-0.040-0.111-0.016-0.080-0.007-0.075 0.003-0.072z"></path>
</svg>
