<!-- Generated by IcoMoon.io -->
<svg version="1.1" xmlns="http://www.w3.org/2000/svg" width="32" height="32" viewBox="0 0 32 32">
<title>braces-variable-filled</title>
<path d="M4 8c0-2.209 1.791-4 4-4v0c0.736 0 1.333 0.597 1.333 1.333s-0.597 1.333-1.333 1.333v0c-0.736 0-1.333 0.597-1.333 1.333v0 5.251c0 1.052-0.409 2.025-1.093 2.749 0.684 0.724 1.093 1.697 1.093 2.749v5.251c0 0.736 0.597 1.333 1.333 1.333v0c0.736 0 1.333 0.597 1.333 1.333s-0.597 1.333-1.333 1.333v0c-2.209 0-4-1.791-4-4v0-5.251c-0-0.621-0.425-1.143-1-1.291l-0.009-0.002-0.648-0.163c-0.584-0.15-1.009-0.672-1.009-1.293s0.425-1.143 1-1.291l0.009-0.002 0.648-0.161c0.584-0.15 1.009-0.672 1.009-1.293v0-5.252zM28 8c0-2.209-1.791-4-4-4v0c-0.736 0-1.333 0.597-1.333 1.333s0.597 1.333 1.333 1.333v0c0.736 0 1.333 0.597 1.333 1.333v0 5.251c0 1.052 0.409 2.025 1.093 2.749-0.677 0.714-1.093 1.682-1.093 2.746 0 0.001 0 0.002 0 0.003v-0 5.251c0 0.736-0.597 1.333-1.333 1.333v0c-0.736 0-1.333 0.597-1.333 1.333s0.597 1.333 1.333 1.333v0c2.209 0 4-1.791 4-4v0-5.251c0-0.622 0.426-1.144 1.001-1.291l0.009-0.002 0.647-0.163c0.584-0.15 1.009-0.672 1.009-1.293s-0.425-1.143-1-1.291l-0.009-0.002-0.647-0.161c-0.585-0.149-1.011-0.672-1.011-1.293v-5.252zM12.387 9.181c-0.246-0.315-0.626-0.515-1.053-0.515-0.737 0-1.334 0.597-1.334 1.334 0 0.31 0.106 0.595 0.283 0.822l-0.002-0.003 4.032 5.181-4.029 5.181c-0.186 0.228-0.299 0.521-0.299 0.842 0 0.736 0.597 1.333 1.333 1.333 0.437 0 0.824-0.21 1.067-0.534l0.002-0.003 3.613-4.647 3.613 4.647c0.246 0.315 0.626 0.515 1.053 0.515 0.737 0 1.334-0.597 1.334-1.334 0-0.31-0.106-0.595-0.283-0.822l0.002 0.003-4.032-5.181 4.029-5.181c0.164-0.219 0.263-0.496 0.263-0.796 0-0.736-0.597-1.333-1.333-1.333-0.416 0-0.788 0.191-1.032 0.489l-0.002 0.002-3.613 4.647-3.613-4.647z"></path>
</svg>
