<!-- Generated by IcoMoon.io -->
<svg version="1.1" xmlns="http://www.w3.org/2000/svg" width="32" height="32" viewBox="0 0 32 32">
<title>braces-filled</title>
<path d="M9.333 4c-1.841 0-3.333 1.492-3.333 3.333v0 5.367c0 0.511-0.045 0.893-0.251 1.231-0.195 0.322-0.631 0.753-1.732 1.12-0.401 0.136-0.685 0.509-0.685 0.949s0.284 0.813 0.678 0.947l0.007 0.002c1.099 0.367 1.511 0.788 1.705 1.151 0.223 0.416 0.277 0.953 0.277 1.822v4.745c0 1.841 1.492 3.333 3.333 3.333v0h0.333c0.552 0 1-0.448 1-1s-0.448-1-1-1v0h-0.333c-0.736 0-1.333-0.597-1.333-1.333v0-4.745c0-0.853-0.029-1.86-0.515-2.767-0.249-0.456-0.574-0.838-0.963-1.143l-0.008-0.006c0.376-0.285 0.691-0.629 0.935-1.021l0.009-0.016c0.503-0.829 0.541-1.68 0.541-2.269v-5.367c0-0.736 0.597-1.333 1.333-1.333v0h0.333c0.552 0 1-0.448 1-1s-0.448-1-1-1v0h-0.333zM22.667 4c1.841 0 3.333 1.492 3.333 3.333v0 5.367c0 0.511 0.046 0.893 0.251 1.231 0.195 0.322 0.631 0.753 1.732 1.12 0.401 0.136 0.685 0.509 0.685 0.949s-0.284 0.813-0.678 0.947l-0.007 0.002c-1.099 0.367-1.511 0.788-1.705 1.151-0.223 0.416-0.277 0.953-0.277 1.822v4.745c0 1.841-1.492 3.333-3.333 3.333v0h-0.333c-0.552 0-1-0.448-1-1s0.448-1 1-1v0h0.333c0.736 0 1.333-0.597 1.333-1.333v0-4.745c0-0.853 0.029-1.86 0.515-2.767 0.249-0.456 0.574-0.838 0.963-1.143l0.008-0.006c-0.376-0.285-0.691-0.629-0.935-1.021l-0.009-0.016c-0.503-0.829-0.541-1.68-0.541-2.269v-5.367c0-0.736-0.597-1.333-1.333-1.333v0h-0.333c-0.552 0-1-0.448-1-1s0.448-1 1-1v0h0.333z"></path>
</svg>
