<!-- Generated by IcoMoon.io -->
<svg version="1.1" xmlns="http://www.w3.org/2000/svg" width="32" height="32" viewBox="0 0 32 32">
<title>brain-circuit-filled</title>
<path d="M13.519 2.674c0.944 0 1.481 0.938 1.481 1.882v5.777h-1.194c-0.396-0.977-1.354-1.667-2.473-1.667-1.473 0-2.667 1.194-2.667 2.667s1.194 2.667 2.667 2.667c1.119 0 2.077-0.689 2.473-1.667h1.194v14.531c0 0.795-0.336 1.585-1.044 1.948-0.605 0.31-1.302 0.517-2.079 0.517-2.014 0-3.512-1.019-4.476-2.225-0.708-0.885-1.173-1.926-1.359-2.849-0.537-0.156-1.143-0.448-1.693-0.919-0.947-0.812-1.683-2.12-1.683-4.046 0-1.007 0.072-1.884 0.252-2.622h5.614c0.904 0 1.653 0.667 1.781 1.535-0.967 0.4-1.647 1.353-1.647 2.465 0 1.473 1.194 2.667 2.667 2.667s2.667-1.194 2.667-2.667c0-1.123-0.694-2.084-1.677-2.477-0.142-1.969-1.784-3.523-3.79-3.523h-4.48c0.174-0.144 0.365-0.265 0.573-0.363 0.029-0.014 0.058-0.027 0.088-0.039-0.141-0.489-0.214-1.001-0.237-1.502-0.044-0.98 0.102-2 0.393-2.908 0.287-0.894 0.743-1.763 1.384-2.365 0.403-0.378 0.9-0.663 1.461-0.756 0.265-1.12 0.941-2.046 1.804-2.717 1.109-0.863 2.559-1.341 4.001-1.341zM17 22.667h2.2c2.099 0 3.8-1.701 3.8-3.8v-2.394c0.977-0.396 1.667-1.354 1.667-2.473 0-1.473-1.194-2.667-2.667-2.667s-2.667 1.194-2.667 2.667c0 1.119 0.689 2.077 1.667 2.473v2.394c0 0.994-0.806 1.8-1.8 1.8h-2.2v-9.324c0-0.003 0-0.006 0-0.009s0-0.006 0-0.009v-6.767c0-0.944 0.537-1.882 1.481-1.882 1.442 0 2.892 0.478 4.001 1.341 0.863 0.672 1.539 1.597 1.804 2.717 0.56 0.093 1.058 0.378 1.461 0.756 0.641 0.602 1.097 1.471 1.384 2.365 0.291 0.908 0.437 1.929 0.393 2.908-0.023 0.502-0.096 1.013-0.237 1.502 0.029 0.013 0.059 0.026 0.088 0.039 0.494 0.233 0.893 0.597 1.193 1.081 0.567 0.913 0.766 2.228 0.766 3.904 0 1.926-0.736 3.234-1.683 4.046-0.549 0.471-1.156 0.763-1.693 0.919-0.186 0.923-0.651 1.964-1.359 2.849-0.964 1.206-2.462 2.225-4.476 2.225-0.777 0-1.474-0.207-2.079-0.517-0.708-0.362-1.044-1.153-1.044-1.948v-4.197zM10.667 11.333c0-0.368 0.298-0.667 0.667-0.667s0.667 0.298 0.667 0.667c0 0.368-0.298 0.667-0.667 0.667s-0.667-0.298-0.667-0.667zM11.333 20c-0.368 0-0.667 0.299-0.667 0.667s0.298 0.667 0.667 0.667c0.368 0 0.667-0.299 0.667-0.667s-0.298-0.667-0.667-0.667zM21.333 14c0 0.368 0.299 0.667 0.667 0.667s0.667-0.299 0.667-0.667c0-0.368-0.299-0.667-0.667-0.667s-0.667 0.299-0.667 0.667z"></path>
</svg>
