<!-- Generated by IcoMoon.io -->
<svg version="1.1" xmlns="http://www.w3.org/2000/svg" width="32" height="32" viewBox="0 0 32 32">
<title>brain-circuit-filled</title>
<path d="M13.52 2.675c0.943 0 1.48 0.939 1.48 1.881v5.777h-1.193c-0.406-0.986-1.36-1.667-2.472-1.667-1.473 0-2.667 1.194-2.667 2.667s1.194 2.667 2.667 2.667c1.112 0 2.066-0.681 2.466-1.649l0.006-0.018h1.193v14.531c0 0.795-0.336 1.585-1.044 1.947-0.603 0.322-1.319 0.513-2.079 0.517h-0.001c-2.013 0-3.511-1.019-4.475-2.224-0.643-0.795-1.117-1.754-1.351-2.803l-0.009-0.046c-0.653-0.196-1.219-0.512-1.698-0.925l0.006 0.005c-0.947-0.815-1.683-2.121-1.683-4.047 0-1.007 0.072-1.884 0.253-2.621h5.613c0.904 0 1.653 0.667 1.78 1.535-0.975 0.411-1.647 1.359-1.647 2.464 0 1.473 1.194 2.667 2.667 2.667s2.667-1.194 2.667-2.667c0-1.116-0.686-2.072-1.659-2.47l-0.018-0.006c-0.149-1.976-1.788-3.522-3.789-3.523h-4.48c0.19-0.158 0.408-0.293 0.643-0.396l0.017-0.007c-0.13-0.445-0.215-0.959-0.237-1.49l-0-0.013c-0.044-0.98 0.103-2 0.393-2.908 0.288-0.893 0.744-1.764 1.384-2.365 0.389-0.379 0.887-0.648 1.444-0.753l0.018-0.003c0.265-1.12 0.941-2.045 1.804-2.716 1.108-0.864 2.56-1.341 4-1.341zM17 22.667h2.2c2.099 0 3.8-1.701 3.8-3.8v0-2.393c0.986-0.406 1.667-1.36 1.667-2.472 0-1.473-1.194-2.667-2.667-2.667s-2.667 1.194-2.667 2.667c0 1.112 0.681 2.066 1.649 2.466l0.018 0.006v2.393c0 0.994-0.806 1.8-1.8 1.8v0h-2.2v-16.111c0-0.943 0.537-1.881 1.48-1.881 1.443 0 2.893 0.477 4.001 1.341 0.863 0.671 1.539 1.597 1.804 2.716 0.56 0.093 1.059 0.379 1.461 0.756 0.64 0.601 1.096 1.471 1.384 2.365 0.291 0.908 0.437 1.928 0.393 2.908-0.023 0.501-0.096 1.013-0.237 1.503l0.088 0.040c0.493 0.232 0.893 0.596 1.192 1.080 0.567 0.913 0.767 2.228 0.767 3.904 0 1.927-0.736 3.235-1.683 4.047-0.474 0.408-1.039 0.724-1.661 0.912l-0.033 0.008c-0.243 1.095-0.717 2.054-1.369 2.863l0.010-0.013c-0.964 1.205-2.461 2.224-4.476 2.224-0.761-0.003-1.477-0.194-2.104-0.528l0.024 0.012c-0.707-0.363-1.043-1.153-1.043-1.948v-4.197zM10.667 11.333c0-0.368 0.298-0.667 0.667-0.667s0.667 0.298 0.667 0.667v0c0 0.368-0.298 0.667-0.667 0.667s-0.667-0.298-0.667-0.667v0zM11.333 20c-0.368 0-0.667 0.298-0.667 0.667s0.298 0.667 0.667 0.667v0c0.368 0 0.667-0.298 0.667-0.667s-0.298-0.667-0.667-0.667v0zM21.333 14c0 0.368 0.298 0.667 0.667 0.667s0.667-0.298 0.667-0.667v0c0-0.368-0.298-0.667-0.667-0.667s-0.667 0.298-0.667 0.667v0z"></path>
</svg>
