<!-- Generated by IcoMoon.io -->
<svg version="1.1" xmlns="http://www.w3.org/2000/svg" width="32" height="32" viewBox="0 0 32 32">
<title>branch-filled</title>
<path d="M5.333 7.333c0-2.577 2.090-4.666 4.667-4.666s4.667 2.089 4.667 4.667c0 2.107-1.397 3.888-3.315 4.468l-0.033 0.009c0.948 3.029 3.729 5.189 7.015 5.189h0.44c0.477-2.111 2.337-3.664 4.559-3.664 2.577 0 4.666 2.087 4.668 4.663v0c0 0.002 0 0.005 0 0.008 0 2.577-2.089 4.667-4.667 4.667-2.226 0-4.088-1.558-4.554-3.644l-0.006-0.031h-0.44c-0.002 0-0.005 0-0.008 0-2.964 0-5.604-1.384-7.311-3.54l-0.015-0.020v4.667c2.111 0.477 3.664 2.337 3.664 4.559 0 2.577-2.087 4.666-4.663 4.668h-0c-0.002 0-0.005 0-0.008 0-2.577 0-4.667-2.089-4.667-4.667 0-2.226 1.558-4.088 3.644-4.554l0.031-0.006v-8.213c-2.112-0.476-3.667-2.336-3.667-4.559 0-0 0-0 0-0.001v0z"></path>
</svg>
