<!-- Generated by IcoMoon.io -->
<svg version="1.1" xmlns="http://www.w3.org/2000/svg" width="32" height="32" viewBox="0 0 32 32">
<title>breakout-room-filled</title>
<path d="M3.429 7.714c0-2.367 1.919-4.286 4.286-4.286v0h16.571c2.367 0 4.286 1.919 4.286 4.286v0 16.571c0 2.367-1.919 4.286-4.286 4.286v0h-7.801c1.112-1.087 1.801-2.602 1.801-4.278 0-0.003 0-0.005 0-0.008v0-4.571c0-3.314-2.686-6-6-6h-4.571c-0.002 0-0.005 0-0.007 0-1.676 0-3.191 0.689-4.277 1.8l-0.001 0.001v-7.801zM3.429 19.714v4.571c0 2.367 1.919 4.286 4.286 4.286v0h4.571c2.367 0 4.286-1.919 4.286-4.286v0-4.571c0-2.367-1.919-4.286-4.286-4.286v0h-4.571c-2.367 0-4.286 1.919-4.286 4.286v0z"></path>
</svg>
