<!-- Generated by IcoMoon.io -->
<svg version="1.1" xmlns="http://www.w3.org/2000/svg" width="32" height="32" viewBox="0 0 32 32">
<title>briefcase-medical-filled</title>
<path d="M21.333 5c0-0.552-0.448-1-1-1h-8.667l-0.136 0.009c-0.488 0.066-0.864 0.485-0.864 0.991v4.333h-2.333c-2.393 0-4.333 1.94-4.333 4.333v8.667c0 2.393 1.94 4.333 4.333 4.333h15.333c2.393 0 4.333-1.94 4.333-4.333v-8.667c0-2.393-1.94-4.333-4.333-4.333h-2.333v-4.333zM12.667 6h6.667v3.333h-6.667v-3.333zM15.333 21v-2.333h-2.333c-0.552 0-1-0.448-1-1s0.448-1 1-1h2.333v-2.333c0-0.552 0.448-1 1-1s1 0.448 1 1v2.333h2.333c0.552 0 1 0.448 1 1s-0.448 1-1 1h-2.333v2.333c0 0.552-0.448 1-1 1s-1-0.448-1-1z"></path>
</svg>
