<!-- Generated by IcoMoon.io -->
<svg version="1.1" xmlns="http://www.w3.org/2000/svg" width="32" height="32" viewBox="0 0 32 32">
<title>brightness-high-filled</title>
<path d="M16.833 3.5c0-0.46-0.373-0.833-0.833-0.833s-0.833 0.373-0.833 0.833v0 1.667c0 0.46 0.373 0.833 0.833 0.833s0.833-0.373 0.833-0.833v0-1.667zM22.681 16.031c0 3.673-2.977 6.65-6.65 6.65s-6.65-2.977-6.65-6.651c0-3.673 2.977-6.65 6.65-6.65s6.65 2.977 6.65 6.651zM21.014 16.031c0-0 0-0 0-0.001 0-2.752-2.231-4.983-4.983-4.983h-0.031v9.967h0.031c2.752 0 4.983-2.231 4.983-4.983v-0zM29.334 15.999c0 0.46-0.373 0.833-0.833 0.833h-1.667c-0.46 0-0.833-0.373-0.833-0.833s0.373-0.833 0.833-0.833v0h1.667c0.46 0 0.833 0.373 0.833 0.833zM16.833 26.833c0-0.46-0.373-0.833-0.833-0.833s-0.833 0.373-0.833 0.833v0 1.667c0 0.46 0.373 0.833 0.833 0.833s0.833-0.373 0.833-0.833v0-1.667zM6 16c0 0.46-0.373 0.833-0.833 0.833h-1.667c-0.46 0-0.833-0.373-0.833-0.833s0.373-0.833 0.833-0.833v0h1.667c0.46 0 0.833 0.373 0.833 0.833zM7.422 6.245c-0.152-0.161-0.368-0.262-0.606-0.262-0.46 0-0.833 0.373-0.833 0.833 0 0.239 0.1 0.454 0.261 0.606l0 0 1.667 1.667c0.149 0.141 0.35 0.227 0.572 0.227 0.46 0 0.833-0.373 0.833-0.833 0-0.222-0.086-0.423-0.227-0.572l0 0-1.667-1.667zM6.245 25.756c0.151 0.151 0.359 0.244 0.589 0.244s0.438-0.093 0.589-0.244l1.667-1.667c0.157-0.152 0.255-0.364 0.255-0.6 0-0.46-0.373-0.833-0.833-0.833-0.235 0-0.447 0.097-0.599 0.254l-1.667 1.667c-0.151 0.151-0.244 0.359-0.244 0.589s0.093 0.439 0.244 0.589v0zM24.578 6.244c0.152-0.161 0.368-0.262 0.606-0.262 0.46 0 0.833 0.373 0.833 0.833 0 0.239-0.1 0.454-0.261 0.606l-0 0-1.667 1.667c-0.149 0.141-0.35 0.227-0.572 0.227-0.46 0-0.833-0.373-0.833-0.833 0-0.222 0.086-0.423 0.227-0.572l-0 0 1.667-1.667zM25.756 25.756c-0.151 0.151-0.359 0.244-0.589 0.244s-0.438-0.093-0.589-0.244l-1.667-1.667c-0.157-0.152-0.255-0.364-0.255-0.6 0-0.46 0.373-0.833 0.833-0.833 0.235 0 0.448 0.097 0.599 0.254l1.667 1.667c0.151 0.151 0.244 0.359 0.244 0.589s-0.093 0.439-0.244 0.589v0z"></path>
</svg>
