<!-- Generated by IcoMoon.io -->
<svg version="1.1" xmlns="http://www.w3.org/2000/svg" width="32" height="32" viewBox="0 0 32 32">
<title>brightness-low-filled</title>
<path d="M17 5.667c0-0.552-0.448-1-1-1s-1 0.448-1 1v1.333c0 0.552 0.448 1 1 1s1-0.448 1-1v-1.333zM22.667 16c0 3.682-2.985 6.667-6.667 6.667s-6.667-2.985-6.667-6.667c0-3.682 2.985-6.667 6.667-6.667s6.667 2.985 6.667 6.667zM20.667 16c0-2.577-2.089-4.667-4.667-4.667v9.333c2.577 0 4.667-2.089 4.667-4.667zM27.333 16c0 0.552-0.448 1-1 1h-1.333c-0.552 0-1-0.448-1-1s0.448-1 1-1h1.333c0.552 0 1 0.448 1 1zM17 25c0-0.552-0.448-1-1-1s-1 0.448-1 1v1.333c0 0.552 0.448 1 1 1s1-0.448 1-1v-1.333zM8 16c0 0.552-0.448 1-1 1h-1.333c-0.552 0-1-0.448-1-1s0.448-1 1-1h1.333c0.552 0 1 0.448 1 1zM9.707 8.293c-0.391-0.391-1.024-0.391-1.414 0s-0.391 1.024 0 1.414l0.667 0.667c0.391 0.391 1.024 0.391 1.414 0s0.391-1.024 0-1.414l-0.667-0.667zM8.293 23.707c0.391 0.391 1.024 0.391 1.414 0l0.667-0.667c0.391-0.391 0.391-1.024 0-1.414s-1.024-0.391-1.414 0l-0.667 0.667c-0.391 0.391-0.391 1.024 0 1.414zM22.293 8.293c0.391-0.391 1.024-0.391 1.414 0s0.391 1.024 0 1.414l-0.667 0.667c-0.391 0.391-1.024 0.391-1.414 0s-0.391-1.024 0-1.414l0.667-0.667zM23.707 23.707c-0.391 0.391-1.024 0.391-1.414 0l-0.667-0.667c-0.391-0.391-0.391-1.024 0-1.414s1.024-0.391 1.414 0l0.667 0.667c0.391 0.391 0.391 1.024 0 1.414z"></path>
</svg>
