<!-- Generated by IcoMoon.io -->
<svg version="1.1" xmlns="http://www.w3.org/2000/svg" width="32" height="32" viewBox="0 0 32 32">
<title>broad-activity-feed-filled</title>
<path d="M12.328 18.668c1.289 0 2.333 1.045 2.333 2.333v4.667c0 1.289-1.045 2.333-2.333 2.333h-7.328c-1.289 0-2.333-1.045-2.333-2.333v-4.667c0-1.289 1.045-2.333 2.333-2.333h7.328zM27 18.668c1.289 0 2.333 1.045 2.333 2.333v4.667c0 1.289-1.045 2.333-2.333 2.333h-7.328c-1.289 0-2.333-1.045-2.333-2.333v-4.667c0-1.289 1.045-2.333 2.333-2.333h7.328zM27 3.995c1.289 0 2.333 1.045 2.333 2.333v7.338c0 1.289-1.045 2.333-2.333 2.333h-22c-1.289 0-2.333-1.045-2.333-2.333v-7.338c0-1.224 0.943-2.228 2.142-2.326l0.191-0.008h22z"></path>
</svg>
