<!-- Generated by IcoMoon.io -->
<svg version="1.1" xmlns="http://www.w3.org/2000/svg" width="32" height="32" viewBox="0 0 32 32">
<title>broom-filled</title>
<path d="M29.936 2.564c0.391 0.391 0.391 1.024 0 1.414l-8.417 8.417c-0.195-0.241-0.405-0.474-0.629-0.698-0.254-0.254-0.519-0.49-0.794-0.707l8.427-8.427c0.391-0.391 1.024-0.391 1.414 0z"></path>
<path d="M20.037 12.463c-2.994-2.994-7.848-2.994-10.842 0l-0.325 0.325 10.842 10.842 0.325-0.325c2.994-2.994 2.994-7.848 0-10.842z"></path>
<path d="M2.512 17.288l4.817-3.211 11.095 11.095-3.211 4.817c-0.166 0.249-0.435 0.411-0.733 0.44s-0.594-0.076-0.806-0.288l-11.314-11.314c-0.212-0.212-0.318-0.507-0.288-0.806s0.191-0.567 0.44-0.733z"></path>
</svg>
