<!-- Generated by IcoMoon.io -->
<svg version="1.1" xmlns="http://www.w3.org/2000/svg" width="32" height="32" viewBox="0 0 32 32">
<title>bubble-multiple-filled</title>
<path d="M30.4 7.2c0 3.093-2.507 5.6-5.6 5.6s-5.6-2.507-5.6-5.6v0c0-3.093 2.507-5.6 5.6-5.6s5.6 2.507 5.6 5.6v0zM14.675 24.952c0.764 2.247 2.855 3.835 5.317 3.835 3.088 0 5.593-2.498 5.603-5.584v-0.001c0-0 0-0.001 0-0.001 0-2.859-2.142-5.217-4.909-5.558l-0.027-0.003c-0.6 3.361-2.878 6.079-5.919 7.289l-0.065 0.023zM19.2 16c0 4.418-3.582 8-8 8s-8-3.582-8-8v0c0-4.418 3.582-8 8-8s8 3.582 8 8v0zM11.246 12.008c-0.029 0.079-0.046 0.171-0.046 0.267 0 0.346 0.219 0.64 0.527 0.752l0.006 0.002c1.136 0.402 2.038 1.302 2.44 2.438 0.106 0.326 0.407 0.558 0.762 0.558 0.442 0 0.8-0.358 0.8-0.8 0-0.105-0.020-0.205-0.057-0.297l0.002 0.005c-0.578-1.598-1.815-2.834-3.374-3.4l-0.039-0.012c-0.079-0.029-0.171-0.046-0.266-0.046-0.346 0-0.641 0.22-0.753 0.528l-0.002 0.006z"></path>
</svg>
