<!-- Generated by IcoMoon.io -->
<svg version="1.1" xmlns="http://www.w3.org/2000/svg" width="32" height="32" viewBox="0 0 32 32">
<title>bug-filled</title>
<path d="M19 2.669c0.504 0 0.921 0.373 0.99 0.859l0.001 0.005 0.009 0.136v1.003c0 0.002 0 0.004 0 0.006 0 0.847-0.264 1.633-0.715 2.279l0.009-0.013c1.872 0.658 3.218 2.348 3.36 4.371l0.001 0.016h0.341c1.651-0.008 2.987-1.348 2.987-3 0-0.004 0-0.008-0-0.013v0.001l-0.008-1.98c0-0.001 0-0.003 0-0.005 0-0.552 0.448-1 1-1 0.551 0 0.997 0.445 1 0.995v0l0.009 1.981c0 0.006 0 0.014 0 0.021 0 2.661-2.079 4.837-4.701 4.991l-0.014 0.001-0.285 0.008-0.317-0.001v2.003h5.671c0.505 0 0.922 0.374 0.99 0.86l0.001 0.005 0.009 0.136c-0 0.504-0.373 0.921-0.859 0.99l-0.005 0.001-0.136 0.009h-5.671v2.665h0.317l0.285 0.009c2.551 0.151 4.579 2.192 4.708 4.735l0 0.012 0.007 0.267-0.009 1.98c-0.005 0.548-0.451 0.991-1 0.991-0.504 0-0.921-0.373-0.99-0.859l-0.001-0.005-0.009-0.136 0.009-1.98c0-0.004 0-0.009 0-0.013 0-1.58-1.222-2.875-2.773-2.992l-0.010-0.001-0.205-0.007h-0.635c-0.878 2.727-3.393 4.666-6.361 4.666s-5.483-1.939-6.348-4.619l-0.013-0.047h-0.652c-1.651 0.008-2.987 1.348-2.987 3 0 0.004 0 0.008 0 0.013v-0.001l0.007 1.98c0 0.001 0 0.003 0 0.005 0 0.552-0.448 1-1 1-0.551 0-0.997-0.445-1-0.995v-0l-0.007-1.981c-0-0.006-0-0.014-0-0.022 0-2.661 2.078-4.836 4.7-4.991l0.014-0.001 0.287-0.007 0.333-0.001v-2.667h-5.667c-0.504-0-0.921-0.373-0.99-0.859l-0.001-0.005-0.009-0.135c0-0 0-0.001 0-0.001 0-0.504 0.373-0.921 0.859-0.99l0.005-0.001 0.136-0.008 5.667-0.001v-2.003h-0.333l-0.287-0.007c-2.55-0.151-4.577-2.193-4.706-4.735l-0-0.012-0.007-0.268 0.008-1.981c0-0.552 0.448-0.999 1-0.999 0.508 0 0.927 0.378 0.991 0.869l0.001 0.005 0.008 0.136-0.008 1.98c-0 0.004-0 0.009-0 0.013 0 1.58 1.222 2.875 2.773 2.992l0.010 0.001 0.205 0.008h0.357c0.143-2.039 1.489-3.731 3.326-4.38l0.035-0.011c-0.393-0.559-0.647-1.241-0.698-1.98l-0.001-0.012-0.008-0.277v-1.003c0-0.552 0.448-1 1-1 0.504 0 0.921 0.373 0.99 0.858l0.001 0.005 0.009 0.136v1.003c0 0 0 0 0 0 0 1.105 0.895 2 2 2 1.037 0 1.889-0.789 1.99-1.799l0.001-0.008 0.009-0.193v-1.003c0-0.552 0.448-1 1-1v0z"></path>
</svg>
