<!-- Generated by IcoMoon.io -->
<svg version="1.1" xmlns="http://www.w3.org/2000/svg" width="32" height="32" viewBox="0 0 32 32">
<title>bug-prohibited-filled</title>
<path d="M23.2 16c-3.976 0-7.2 3.224-7.2 7.2s3.224 7.2 7.2 7.2v0c3.976 0 7.2-3.224 7.2-7.2s-3.224-7.2-7.2-7.2v0zM17.6 23.2c0-3.093 2.507-5.6 5.6-5.6 1.267 0 2.436 0.421 3.374 1.13l-0.014-0.010-7.84 7.84c-0.699-0.921-1.12-2.087-1.12-3.35 0-0.003 0-0.007 0-0.010v0.001zM23.2 28.8c-0.003 0-0.006 0-0.010 0-1.264 0-2.429-0.421-3.364-1.13l0.014 0.010 7.84-7.84c0.699 0.924 1.12 2.093 1.12 3.36 0 3.093-2.507 5.6-5.6 5.6v0zM27.2 5.6c0-0.442-0.358-0.8-0.8-0.8s-0.8 0.358-0.8 0.8v0 3.2c0 1.325-1.075 2.4-2.4 2.4v0h-0.8c0-0.001 0-0.001 0-0.002 0-2.262-1.565-4.159-3.671-4.667l-0.033-0.007c0.33-0.515 0.506-1.114 0.504-1.725v-0.8c0-0.442-0.358-0.8-0.8-0.8s-0.8 0.358-0.8 0.8v0 0.8c0 0.884-0.716 1.6-1.6 1.6s-1.6-0.716-1.6-1.6v0-0.8c0-0.442-0.358-0.8-0.8-0.8s-0.8 0.358-0.8 0.8v0 0.8c0 0 0 0.001 0 0.001 0 0.64 0.188 1.236 0.512 1.736l-0.008-0.013c-2.139 0.514-3.704 2.411-3.704 4.673 0 0.001 0 0.001 0 0.002v-0h-0.8c-1.325 0-2.4-1.075-2.4-2.4v0-3.2c0-0.442-0.358-0.8-0.8-0.8s-0.8 0.358-0.8 0.8v0 3.2c0 2.209 1.791 4 4 4v0h0.8v2.4h-5.6c-0.442 0-0.8 0.358-0.8 0.8s0.358 0.8 0.8 0.8v0h5.6v2.4h-0.8c-2.209 0-4 1.791-4 4v0 3.2c0 0.442 0.358 0.8 0.8 0.8s0.8-0.358 0.8-0.8v0-3.2c0-1.325 1.075-2.4 2.4-2.4v0h0.8c0.007 3.292 2.507 5.998 5.712 6.331l0.027 0.002c-0.591-1.145-0.938-2.498-0.939-3.932v-0c0.007-4.575 3.5-8.332 7.965-8.757l0.035-0.003v-1.64h0.8c2.209 0 4-1.791 4-4v0-3.2z"></path>
</svg>
