<!-- Generated by IcoMoon.io -->
<svg version="1.1" xmlns="http://www.w3.org/2000/svg" width="32" height="32" viewBox="0 0 32 32">
<title>building-government-filled</title>
<path d="M20.667 2.667h-5c-0.552 0-1 0.448-1 1v4.428c-4.523 0.647-8 4.537-8 9.239h-1c-1.657 0-3 1.343-3 3v8c0 0.552 0.448 1 1 1h9.667c0.184 0 0.333-0.149 0.333-0.333v-4c0-0.368 0.299-0.667 0.667-0.667h3.333c0.368 0 0.667 0.299 0.667 0.667v4c0 0.184 0.149 0.333 0.333 0.333h9.667c0.552 0 1-0.448 1-1v-8c0-1.657-1.343-3-3-3h-1c0-4.931-3.823-8.968-8.667-9.31v-1.357h4c0.368 0 0.667-0.298 0.667-0.667v-2.667c0-0.368-0.299-0.667-0.667-0.667zM20.667 15.667v2.667c0 0.552-0.448 1-1 1s-1-0.448-1-1v-2.667c0-0.552 0.448-1 1-1s1 0.448 1 1zM15.667 14.667c0.552 0 1 0.448 1 1v2.667c0 0.552-0.448 1-1 1s-1-0.448-1-1v-2.667c0-0.552 0.448-1 1-1zM12.667 15.667v2.667c0 0.552-0.448 1-1 1s-1-0.448-1-1v-2.667c0-0.552 0.448-1 1-1s1 0.448 1 1zM7.667 20.667c0.552 0 1 0.448 1 1v3.333c0 0.552-0.448 1-1 1s-1-0.448-1-1v-3.333c0-0.552 0.448-1 1-1zM25.333 21.667v3.333c0 0.552-0.448 1-1 1s-1-0.448-1-1v-3.333c0-0.552 0.448-1 1-1s1 0.448 1 1z"></path>
</svg>
