<!-- Generated by IcoMoon.io -->
<svg version="1.1" xmlns="http://www.w3.org/2000/svg" width="32" height="32" viewBox="0 0 32 32">
<title>building-home-filled</title>
<path d="M4.667 2.667c-1.105 0-2 0.895-2 2v0 17.333c0 1.105 0.895 2 2 2v0h7.333v-4.421c0-1.017 0.421-1.987 1.165-2.68l5.501-5.137v-0.428c0-1.105-0.895-2-2-2v0h-2v-4.667c0-1.105-0.895-2-2-2v0h-8zM8 7.667c0 0.552-0.448 1-1 1s-1-0.448-1-1v0c0-0.552 0.448-1 1-1s1 0.448 1 1v0zM7 12.667c-0.552 0-1-0.448-1-1s0.448-1 1-1v0c0.552 0 1 0.448 1 1s-0.448 1-1 1v0zM8 15.667c0 0.552-0.448 1-1 1s-1-0.448-1-1v0c0-0.552 0.448-1 1-1s1 0.448 1 1v0zM10.333 8.667c-0.552 0-1-0.448-1-1s0.448-1 1-1v0c0.552 0 1 0.448 1 1s-0.448 1-1 1v0zM11.333 11.667c0 0.552-0.448 1-1 1s-1-0.448-1-1v0c0-0.552 0.448-1 1-1s1 0.448 1 1v0zM10.333 16.667c-0.552 0-1-0.448-1-1s0.448-1 1-1v0c0.552 0 1 0.448 1 1s-0.448 1-1 1v0zM22.925 12.585c-0.416-0.389-0.976-0.627-1.592-0.627s-1.176 0.239-1.593 0.629l0.001-0.001-5.667 5.288c-0.457 0.427-0.741 1.033-0.741 1.706 0 0 0 0.001 0 0.001v-0 7.753c0 1.105 0.895 2 2 2v0h2.667c1.105 0 2-0.895 2-2v0-3.333h2.667v3.333c0 1.105 0.895 2 2 2v0h2.667c1.105 0 2-0.895 2-2v0-7.753c0-0 0-0.001 0-0.001 0-0.673-0.285-1.279-0.74-1.705l-0.001-0.001-5.667-5.288zM21.105 14.047c0.059-0.056 0.14-0.090 0.228-0.090s0.169 0.034 0.228 0.090l-0-0 5.667 5.289c0.065 0.061 0.105 0.147 0.105 0.243 0 0 0 0.001 0 0.001v-0 7.753h-2.667v-3.333c0-1.105-0.895-2-2-2v0h-2.667c-1.105 0-2 0.895-2 2v0 3.333h-2.667v-7.753c0-0.096 0.041-0.183 0.106-0.244l0-0 5.667-5.289zM12.333 2.667h-7.333z"></path>
</svg>
