<!-- Generated by IcoMoon.io -->
<svg version="1.1" xmlns="http://www.w3.org/2000/svg" width="32" height="32" viewBox="0 0 32 32">
<title>building-bank-link-filled</title>
<path d="M16.897 2.965c-0.247-0.186-0.559-0.298-0.897-0.298s-0.65 0.112-0.901 0.301l0.004-0.003-10.629 7.935c-0.9 0.671-0.425 2.101 0.697 2.101h21.659c1.123 0 1.597-1.43 0.698-2.101l-10.631-7.935zM16 9.335c-0.736 0-1.333-0.597-1.333-1.333s0.597-1.333 1.333-1.333v0c0.736 0 1.333 0.597 1.333 1.333s-0.597 1.333-1.333 1.333v0zM4 25.5c0-1.933 1.567-3.5 3.5-3.5h7.928c-0.479 0.808-0.761 1.781-0.761 2.82 0 0.005 0 0.009 0 0.014v-0.001c0 0.9 0.21 1.75 0.581 2.5h-10.415c-0.46 0-0.833-0.373-0.833-0.833v-1zM17.333 20.069c0.76-0.462 1.679-0.735 2.662-0.735 0.002 0 0.003 0 0.005 0h-0v-5h-2.667v5.735zM22.667 19.334h2.667v-5h-2.667v5zM9.333 20.667h-2.667v-6.333h2.667v6.333zM12 14.334v6.333h2.667v-6.333h-2.667zM20.167 20.667c-0.016-0-0.034-0-0.053-0-2.301 0-4.167 1.865-4.167 4.167s1.865 4.167 4.167 4.167c0.019 0 0.037-0 0.055-0l-0.003 0h1c0.46 0 0.833-0.373 0.833-0.833s-0.373-0.833-0.833-0.833v0h-1c-1.381 0-2.5-1.119-2.5-2.5s1.119-2.5 2.5-2.5v0h1c0.46 0 0.833-0.373 0.833-0.833s-0.373-0.833-0.833-0.833v0h-1zM26.5 20.667c0.016-0 0.034-0 0.053-0 2.301 0 4.167 1.865 4.167 4.167s-1.865 4.167-4.167 4.167c-0.019 0-0.037-0-0.055-0l0.003 0h-1c-0.46 0-0.833-0.373-0.833-0.833s0.373-0.833 0.833-0.833v0h1c1.381 0 2.5-1.119 2.5-2.5s-1.119-2.5-2.5-2.5v0h-1c-0.46 0-0.833-0.373-0.833-0.833s0.373-0.833 0.833-0.833v0h1zM19.333 24.833c0-0.461 0.373-0.833 0.833-0.833h6.333c0.46 0 0.833 0.373 0.833 0.833s-0.373 0.833-0.833 0.833v0h-6.333c-0.46 0-0.833-0.373-0.833-0.833z"></path>
</svg>
