<!-- Generated by IcoMoon.io -->
<svg version="1.1" xmlns="http://www.w3.org/2000/svg" width="32" height="32" viewBox="0 0 32 32">
<title>building-bank-toolbox-filled</title>
<path d="M17.376 3.115c-0.381-0.28-0.859-0.449-1.376-0.449s-0.995 0.168-1.382 0.453l0.006-0.005-9.895 7.219c-1.303 0.949-0.632 3.008 0.979 3.011l20.584-0.001c1.611-0.003 2.28-2.061 0.979-3.011l-9.895-7.217zM16 7.013c0.736 0 1.333 0.597 1.333 1.333s-0.597 1.333-1.333 1.333v0c-0.736 0-1.333-0.597-1.333-1.333s0.597-1.333 1.333-1.333v0zM15 20.545c-0.12 0.248-0.212 0.513-0.267 0.792h-2.4v-6.663h2.667v5.871zM19.667 15.249c-1.378 0.549-2.333 1.871-2.333 3.417 0 0 0 0.001 0 0.001v-0 0.067c-0.135 0.027-0.247 0.057-0.357 0.092l0.023-0.006v-4.144h2.667v0.575zM14.667 22.671v4.663h-9.667c-0.552 0-1-0.448-1-1v0-0.667c0.002-1.656 1.344-2.997 3-2.997 0 0 0 0 0 0h7.667zM7.333 21.337h3v-6.661h-3v6.663zM18.667 20h-0.667c-1.105 0-2 0.895-2 2v0 2h3.333v-0.333c0-0.552 0.448-1 1-1s1 0.448 1 1v0 0.333h4v-0.333c0-0.552 0.448-1 1-1s1 0.448 1 1v0 0.333h3.333v-2c0-1.105-0.895-2-2-2v0h-0.667v-1.333c0-1.289-1.045-2.333-2.333-2.333v0h-4.667c-1.289 0-2.333 1.045-2.333 2.333v0 1.333zM20.667 18.667c0-0.184 0.149-0.333 0.333-0.333v0h4.667c0.184 0 0.333 0.149 0.333 0.333v0 1.333h-5.333v-1.333zM18 30.667c-1.105 0-2-0.895-2-2v0-2.667h3.333v1c0 0.552 0.448 1 1 1s1-0.448 1-1v0-1h4v1c0 0.552 0.448 1 1 1s1-0.448 1-1v0-1h3.333v2.667c0 1.105-0.895 2-2 2v0h-10.667z"></path>
</svg>
