<!-- Generated by IcoMoon.io -->
<svg version="1.1" xmlns="http://www.w3.org/2000/svg" width="32" height="32" viewBox="0 0 32 32">
<title>building-factory-filled</title>
<path d="M3.733 5.183c0.082-1.499 1.317-2.683 2.829-2.683h2.207c1.512 0 2.747 1.184 2.829 2.676l0 0.007 1.121 21.167c0.003 0.045 0.004 0.097 0.004 0.15 0 1.565-1.268 2.833-2.833 2.833h-4.449c-1.565 0-2.833-1.269-2.833-2.833 0-0.053 0.001-0.105 0.004-0.157l-0 0.007 1.121-21.167zM12.947 29.333c0.689-0.739 1.111-1.734 1.111-2.827 0-0.080-0.002-0.159-0.007-0.237l0.001 0.011-0.713-13.464 6.072-6.072c0.151-0.151 0.359-0.244 0.589-0.244 0.46 0 0.833 0.373 0.833 0.833 0 0 0 0 0 0v0 6.655l7.244-7.244c0.151-0.151 0.359-0.244 0.589-0.244 0.46 0 0.833 0.373 0.833 0.833 0 0.002 0 0.005-0 0.007v-0l-0.147 18.52c-0.015 1.922-1.576 3.473-3.5 3.473-0 0-0 0-0 0h-12.907zM25 27.667v-6.5c0-0.644-0.522-1.167-1.167-1.167v0h-5.333c-0.644 0-1.167 0.522-1.167 1.167v0 6.5h7.667z"></path>
</svg>
