<!-- Generated by IcoMoon.io -->
<svg version="1.1" xmlns="http://www.w3.org/2000/svg" width="32" height="32" viewBox="0 0 32 32">
<title>building-retail-shield-filled</title>
<path d="M10 15.333v-2.667h12v1.62c-0.475 0.348-1.080 0.731-1.778 1.047h-10.222zM24 11.667v1.622c0.494-0 0.987 0.169 1.382 0.507 0.538 0.461 1.462 1.149 2.618 1.633v-6.453c0.797-0.461 1.333-1.323 1.333-2.31 0-1.473-1.194-2.667-2.667-2.667h-21.333c-1.473 0-2.667 1.194-2.667 2.667 0 0.987 0.536 1.849 1.333 2.31v18.023c0 0.552 0.448 1 1 1h3v-7c0-0.552 0.448-1 1-1h5.333c0.552 0 1 0.448 1 1v7h2.42c-1.010-1.342-1.753-3.096-1.753-5.333l-0-4.667c0-0.238 0.040-0.461 0.112-0.667h-7.112c-0.552 0-1-0.448-1-1v-4.667c0-0.552 0.448-1 1-1h14c0.552 0 1 0.448 1 1zM4.667 6.667c0-0.368 0.298-0.667 0.667-0.667h21.333c0.368 0 0.667 0.298 0.667 0.667s-0.299 0.667-0.667 0.667h-21.333c-0.368 0-0.667-0.298-0.667-0.667zM13.333 22v6h-3.333v-6h3.333zM30.001 17.303c-2.543-0.23-4.579-1.716-5.487-2.495-0.289-0.248-0.737-0.248-1.027-0-0.908 0.779-2.945 2.265-5.488 2.495-0.367 0.033-0.666 0.329-0.666 0.697l0 4.667c0 5.63 5.458 7.621 6.497 7.949 0.111 0.035 0.228 0.035 0.339 0 1.039-0.328 6.497-2.319 6.497-7.949v-4.667c0-0.368-0.299-0.664-0.666-0.697z"></path>
</svg>
