<!-- Generated by IcoMoon.io -->
<svg version="1.1" xmlns="http://www.w3.org/2000/svg" width="32" height="32" viewBox="0 0 32 32">
<title>building-filled</title>
<path d="M9 2.667c-1.657 0-3 1.343-3 3v22c0 0.552 0.448 1 1 1h3v-5.667c0-0.552 0.448-1 1-1h10c0.552 0 1 0.448 1 1v5.667h3c0.552 0 1-0.448 1-1v-12.001c0-1.657-1.343-3-3-3h-1v-6.999c0-1.657-1.343-3-3-3h-10zM10 8.667c0-0.736 0.597-1.333 1.333-1.333s1.333 0.597 1.333 1.333c0 0.736-0.597 1.333-1.333 1.333s-1.333-0.597-1.333-1.333zM11.333 16.667c0.736 0 1.333 0.597 1.333 1.333s-0.597 1.333-1.333 1.333c-0.736 0-1.333-0.597-1.333-1.333s0.597-1.333 1.333-1.333zM10 13.333c0-0.736 0.597-1.333 1.333-1.333s1.333 0.597 1.333 1.333c0 0.736-0.597 1.333-1.333 1.333s-1.333-0.597-1.333-1.333zM16 7.333c0.736 0 1.333 0.597 1.333 1.333s-0.597 1.333-1.333 1.333c-0.736 0-1.333-0.597-1.333-1.333s0.597-1.333 1.333-1.333zM14.667 18c0-0.736 0.597-1.333 1.333-1.333s1.333 0.597 1.333 1.333c0 0.736-0.597 1.333-1.333 1.333s-1.333-0.597-1.333-1.333zM20.667 16.667c0.736 0 1.333 0.597 1.333 1.333s-0.597 1.333-1.333 1.333c-0.736 0-1.333-0.597-1.333-1.333s0.597-1.333 1.333-1.333zM14.667 13.333c0-0.736 0.597-1.333 1.333-1.333s1.333 0.597 1.333 1.333c0 0.736-0.597 1.333-1.333 1.333s-1.333-0.597-1.333-1.333z"></path>
<path d="M20 28.667v-4.667h-3v4.667h3z"></path>
<path d="M15 28.667v-4.667h-3v4.667h3z"></path>
</svg>
