<!-- Generated by IcoMoon.io -->
<svg version="1.1" xmlns="http://www.w3.org/2000/svg" width="32" height="32" viewBox="0 0 32 32">
<title>building-townhouse-filled</title>
<path d="M10.424 3.71c-0.363-0.368-0.867-0.596-1.424-0.596s-1.061 0.228-1.424 0.595l-0 0-3.712 3.766c-0.534 0.541-0.863 1.284-0.864 2.104v16.42c0 1.657 1.343 3 3 3v0h4v-7c0-0.552 0.448-1 1-1v0h4v-11.419c-0-0.821-0.33-1.565-0.864-2.106l0 0-3.712-3.765zM17 9.582v11.418h4c0.552 0 1 0.448 1 1v0 7h4c1.657 0 3-1.343 3-3v0-16.419c-0-0.821-0.33-1.565-0.864-2.106l0 0-3.712-3.765c-0.363-0.368-0.867-0.596-1.424-0.596s-1.061 0.228-1.424 0.595l-0 0-3.712 3.764c-0.534 0.541-0.864 1.285-0.864 2.106v0zM17 23v6h3v-6h-3zM15 29v-6h-3v6h3zM9 13.25c-0.69 0-1.25-0.56-1.25-1.25s0.56-1.25 1.25-1.25v0c0.69 0 1.25 0.56 1.25 1.25s-0.56 1.25-1.25 1.25v0zM21.75 12c0-0.69 0.56-1.25 1.25-1.25s1.25 0.56 1.25 1.25v0c0 0.69-0.56 1.25-1.25 1.25s-1.25-0.56-1.25-1.25v0zM9 18.25c-0.69 0-1.25-0.56-1.25-1.25s0.56-1.25 1.25-1.25v0c0.69 0 1.25 0.56 1.25 1.25s-0.56 1.25-1.25 1.25v0zM21.75 17c0-0.69 0.56-1.25 1.25-1.25s1.25 0.56 1.25 1.25v0c0 0.69-0.56 1.25-1.25 1.25s-1.25-0.56-1.25-1.25v0z"></path>
</svg>
