<!-- Generated by IcoMoon.io -->
<svg version="1.1" xmlns="http://www.w3.org/2000/svg" width="32" height="32" viewBox="0 0 32 32">
<title>building-retail-filled</title>
<path d="M10 15.333v-2.667h12v2.667h-12zM5.333 4c-1.473 0-2.667 1.194-2.667 2.667 0 0.982 0.531 1.84 1.321 2.303l0.013 0.007v18.024c0 0.552 0.448 1 1 1h3v-7c0-0.552 0.448-1 1-1v0h5.333c0.552 0 1 0.448 1 1v0 7h11.667c0.552 0 1-0.448 1-1v0-18.024c0.803-0.47 1.333-1.328 1.333-2.309 0-1.473-1.194-2.667-2.667-2.667h-21.333zM4.667 6.667c0-0.368 0.298-0.667 0.667-0.667v0h21.333c0.368 0 0.667 0.298 0.667 0.667s-0.298 0.667-0.667 0.667v0h-21.333c-0.368 0-0.667-0.298-0.667-0.667v0zM9 10.667h14c0.552 0 1 0.448 1 1v0 4.667c0 0.552-0.448 1-1 1v0h-14c-0.552 0-1-0.448-1-1v0-4.667c0-0.552 0.448-1 1-1v0zM19.667 20h3.333c0.552 0 1 0.448 1 1v0 3.333c0 0.552-0.448 1-1 1v0h-3.333c-0.552 0-1-0.448-1-1v0-3.333c0-0.552 0.448-1 1-1v0zM13.333 22v6h-3.333v-6h3.333z"></path>
</svg>
