<!-- Generated by IcoMoon.io -->
<svg version="1.1" xmlns="http://www.w3.org/2000/svg" width="32" height="32" viewBox="0 0 32 32">
<title>building-bank-filled</title>
<path d="M14.625 3.1c0.819-0.598 1.931-0.598 2.751 0l9.896 7.221c1.302 0.95 0.631 3.010-0.979 3.013h-20.584c-1.611-0.003-2.281-2.063-0.979-3.013l9.896-7.221zM17.333 8.334c0-0.736-0.597-1.333-1.333-1.333s-1.333 0.597-1.333 1.333c0 0.736 0.597 1.333 1.333 1.333s1.333-0.597 1.333-1.333z"></path>
<path d="M15 21.334h-2.667v-6.667h2.667v6.667z"></path>
<path d="M19.667 21.334h-2.667v-6.667h2.667v6.667z"></path>
<path d="M24.667 21.334h-3v-6.667h3v6.667z"></path>
<path d="M25 22.667h-18c-1.657 0-3 1.343-3 3v0.667c0 0.552 0.448 1 1 1h22c0.552 0 1-0.448 1-1v-0.667c0-1.657-1.343-3-3-3z"></path>
<path d="M10.333 21.334h-3v-6.667h3v6.667z"></path>
</svg>
