<!-- Generated by IcoMoon.io -->
<svg version="1.1" xmlns="http://www.w3.org/2000/svg" width="32" height="32" viewBox="0 0 32 32">
<title>building-bank-toolbox-filled</title>
<path d="M17.375 3.115c-0.819-0.598-1.931-0.598-2.751 0l-9.896 7.217c-1.302 0.949-0.631 3.008 0.979 3.011h20.584c1.611-0.003 2.281-2.062 0.979-3.011l-9.896-7.217zM16 7.013c0.736 0 1.333 0.597 1.333 1.332s-0.597 1.332-1.333 1.332c-0.736 0-1.333-0.597-1.333-1.332s0.597-1.332 1.333-1.332zM15 20.545c-0.121 0.248-0.211 0.514-0.267 0.792h-2.399v-6.662h2.667v5.87zM19.667 15.25c-1.366 0.533-2.333 1.862-2.333 3.417v0.067c-0.113 0.023-0.225 0.052-0.333 0.086v-4.144h2.667v0.575zM14.667 22.67v4.664h-9.667c-0.552 0-1-0.447-1-0.999v-0.666c0-1.656 1.343-2.998 3-2.998h7.667zM7.333 21.337h3v-6.662h-3v6.662zM18.667 20h-0.667c-1.105 0-2 0.895-2 2v2h3.333v-0.333c0-0.552 0.448-1 1-1s1 0.448 1 1v0.333h4v-0.333c0-0.552 0.448-1 1-1s1 0.448 1 1v0.333h3.333v-2c0-1.105-0.895-2-2-2h-0.667v-1.333c0-1.289-1.045-2.333-2.333-2.333h-4.667c-1.289 0-2.333 1.045-2.333 2.333v1.333zM20.667 18.667c0-0.184 0.149-0.333 0.333-0.333h4.667c0.184 0 0.333 0.149 0.333 0.333v1.333h-5.333v-1.333zM18 30.667c-1.105 0-2-0.895-2-2v-2.667h3.333v1c0 0.552 0.448 1 1 1s1-0.448 1-1v-1h4v1c0 0.552 0.448 1 1 1s1-0.448 1-1v-1h3.333v2.667c0 1.105-0.895 2-2 2h-10.667z"></path>
</svg>
