<!-- Generated by IcoMoon.io -->
<svg version="1.1" xmlns="http://www.w3.org/2000/svg" width="32" height="32" viewBox="0 0 32 32">
<title>building-multiple-filled</title>
<path d="M9.333 21.333c0.736 0 1.333-0.597 1.333-1.333s-0.597-1.333-1.333-1.333v0c-0.736 0-1.333 0.597-1.333 1.333s0.597 1.333 1.333 1.333v0zM10.667 24c0 0.736-0.597 1.333-1.333 1.333s-1.333-0.597-1.333-1.333v0c0-0.736 0.597-1.333 1.333-1.333s1.333 0.597 1.333 1.333v0zM9.333 17.333c0.736 0 1.333-0.597 1.333-1.333s-0.597-1.333-1.333-1.333v0c-0.736 0-1.333 0.597-1.333 1.333s0.597 1.333 1.333 1.333v0zM10.667 12c0 0.736-0.597 1.333-1.333 1.333s-1.333-0.597-1.333-1.333v0c0-0.736 0.597-1.333 1.333-1.333s1.333 0.597 1.333 1.333v0zM9.333 9.333c0.736 0 1.333-0.597 1.333-1.333s-0.597-1.333-1.333-1.333v0c-0.736 0-1.333 0.597-1.333 1.333s0.597 1.333 1.333 1.333v0zM18.667 5.667v1h6.333c1.657 0 3 1.343 3 3v0 18c0 0.552-0.448 1-1 1v0h-4v-3.667c0-0.368-0.298-0.667-0.667-0.667v0h-3.333c-0.368 0-0.667 0.298-0.667 0.667v0 3.667h-13.333c-0.552 0-1-0.448-1-1v0-22c0-1.657 1.343-3 3-3v0h8.667c1.657 0 3 1.343 3 3v0zM7 4.667c-0.552 0-1 0.448-1 1v0 21h7.333v-17c0-1.657 1.343-3 3-3v0h0.333v-1c0-0.552-0.448-1-1-1v0h-8.667zM24 20c0-0.736-0.597-1.333-1.333-1.333s-1.333 0.597-1.333 1.333v0c0 0.736 0.597 1.333 1.333 1.333s1.333-0.597 1.333-1.333v0zM18.667 21.333c0.736 0 1.333-0.597 1.333-1.333s-0.597-1.333-1.333-1.333v0c-0.736 0-1.333 0.597-1.333 1.333s0.597 1.333 1.333 1.333v0zM24 16c0-0.736-0.597-1.333-1.333-1.333s-1.333 0.597-1.333 1.333v0c0 0.736 0.597 1.333 1.333 1.333s1.333-0.597 1.333-1.333v0zM18.667 17.333c0.736 0 1.333-0.597 1.333-1.333s-0.597-1.333-1.333-1.333v0c-0.736 0-1.333 0.597-1.333 1.333s0.597 1.333 1.333 1.333v0zM24 12c0-0.736-0.597-1.333-1.333-1.333s-1.333 0.597-1.333 1.333v0c0 0.736 0.597 1.333 1.333 1.333s1.333-0.597 1.333-1.333v0zM18.667 13.333c0.736 0 1.333-0.597 1.333-1.333s-0.597-1.333-1.333-1.333v0c-0.736 0-1.333 0.597-1.333 1.333s0.597 1.333 1.333 1.333v0z"></path>
</svg>
