<!-- Generated by IcoMoon.io -->
<svg version="1.1" xmlns="http://www.w3.org/2000/svg" width="32" height="32" viewBox="0 0 32 32">
<title>building-retail-toolbox-filled</title>
<path d="M10 15.333v-2.667h12v2.333h-1c-0.546 0-1.064 0.119-1.53 0.333h-9.47zM24 11.667v3.333h1.667c0.886 0 1.699 0.315 2.333 0.838v-6.862c0.797-0.461 1.333-1.323 1.333-2.31 0-1.473-1.194-2.667-2.667-2.667h-21.333c-1.473 0-2.667 1.194-2.667 2.667 0 0.987 0.536 1.849 1.333 2.31v18.023c0 0.552 0.448 1 1 1h3v-7c0-0.552 0.448-1 1-1h5.333c0.307 0 0.582 0.139 0.766 0.357 0.468-0.824 1.276-1.429 2.234-1.624v-0.067c0-0.47 0.089-0.92 0.25-1.333h-8.583c-0.552 0-1-0.448-1-1v-4.667c0-0.552 0.448-1 1-1h14c0.552 0 1 0.448 1 1zM4.667 6.667c0-0.368 0.298-0.667 0.667-0.667h21.333c0.368 0 0.667 0.298 0.667 0.667s-0.299 0.667-0.667 0.667h-21.333c-0.368 0-0.667-0.298-0.667-0.667zM13.333 22v6h-3.333v-6h3.333zM18.667 20h-0.667c-1.105 0-2 0.895-2 2v2h3.333v-0.333c0-0.552 0.448-1 1-1s1 0.448 1 1v0.333h4v-0.333c0-0.552 0.448-1 1-1s1 0.448 1 1v0.333h3.333v-2c0-1.105-0.895-2-2-2h-0.667v-1.333c0-1.289-1.045-2.333-2.333-2.333h-4.667c-1.289 0-2.333 1.045-2.333 2.333v1.333zM20.667 18.667c0-0.184 0.149-0.333 0.333-0.333h4.667c0.184 0 0.333 0.149 0.333 0.333v1.333h-5.333v-1.333zM16 28.667v-2.667h3.333v1c0 0.552 0.448 1 1 1s1-0.448 1-1v-1h4v1c0 0.552 0.448 1 1 1s1-0.448 1-1v-1h3.333v2.667c0 1.105-0.895 2-2 2h-10.667c-1.105 0-2-0.895-2-2z"></path>
</svg>
