<!-- Generated by IcoMoon.io -->
<svg version="1.1" xmlns="http://www.w3.org/2000/svg" width="32" height="32" viewBox="0 0 32 32">
<title>building-retail-toolbox-filled</title>
<path d="M10 15.333v-2.667h12v2.333h-1c-0.547 0-1.064 0.12-1.529 0.333h-9.471zM24 11.667v3.333h1.667c0.887 0 1.699 0.315 2.333 0.839v-6.863c0.803-0.47 1.333-1.328 1.333-2.309 0-1.473-1.194-2.667-2.667-2.667h-21.333c-1.473 0-2.667 1.194-2.667 2.667 0 0.982 0.531 1.84 1.321 2.303l0.013 0.007v18.024c0 0.552 0.448 1 1 1h3v-7c0-0.552 0.448-1 1-1v0h5.333c0.307 0 0.583 0.139 0.765 0.357 0.475-0.826 1.27-1.422 2.213-1.62l0.022-0.004v-0.067c0-0.471 0.088-0.92 0.251-1.333h-8.584c-0.552 0-1-0.448-1-1v0-4.667c0-0.552 0.448-1 1-1v0h14c0.552 0 1 0.448 1 1v0zM4.667 6.667c0-0.368 0.298-0.667 0.667-0.667v0h21.333c0.368 0 0.667 0.298 0.667 0.667s-0.298 0.667-0.667 0.667v0h-21.333c-0.368 0-0.667-0.298-0.667-0.667v0zM13.333 22v6h-3.333v-6h3.333zM18.667 20h-0.667c-1.105 0-2 0.895-2 2v0 2h3.333v-0.333c0-0.552 0.448-1 1-1s1 0.448 1 1v0 0.333h4v-0.333c0-0.552 0.448-1 1-1s1 0.448 1 1v0 0.333h3.333v-2c0-1.105-0.895-2-2-2v0h-0.667v-1.333c0-1.289-1.045-2.333-2.333-2.333v0h-4.667c-1.289 0-2.333 1.045-2.333 2.333v0 1.333zM20.667 18.667c0-0.184 0.149-0.333 0.333-0.333v0h4.667c0.184 0 0.333 0.149 0.333 0.333v0 1.333h-5.333v-1.333zM16 28.667v-2.667h3.333v1c0 0.552 0.448 1 1 1s1-0.448 1-1v0-1h4v1c0 0.552 0.448 1 1 1s1-0.448 1-1v0-1h3.333v2.667c0 1.105-0.895 2-2 2v0h-10.667c-1.105 0-2-0.895-2-2v0z"></path>
</svg>
