<!-- Generated by IcoMoon.io -->
<svg version="1.1" xmlns="http://www.w3.org/2000/svg" width="32" height="32" viewBox="0 0 32 32">
<title>building-bank-filled</title>
<path d="M16.897 2.965c-0.247-0.186-0.559-0.298-0.897-0.298s-0.65 0.112-0.901 0.301l0.004-0.003-10.629 7.935c-0.9 0.671-0.425 2.101 0.697 2.101h21.659c1.123 0 1.597-1.43 0.698-2.101l-10.631-7.935zM16 9.333c-0.736 0-1.333-0.597-1.333-1.333s0.597-1.333 1.333-1.333v0c0.736 0 1.333 0.597 1.333 1.333s-0.597 1.333-1.333 1.333v0zM4 25.501c0-0 0-0 0-0.001 0-1.933 1.567-3.5 3.5-3.5h17c1.933 0 3.5 1.567 3.5 3.5v1c0 0.46-0.373 0.833-0.833 0.833h-22.333c-0 0-0 0-0.001 0-0.46 0-0.833-0.373-0.833-0.833v0-1zM9.333 20.667h-2.667v-6.333h2.667v6.333zM12 14.333v6.333h2.667v-6.333h-2.667zM17.333 14.333v6.333h2.667v-6.333h-2.667zM22.667 14.333v6.333h2.667v-6.333h-2.667z"></path>
</svg>
