<!-- Generated by IcoMoon.io -->
<svg version="1.1" xmlns="http://www.w3.org/2000/svg" width="32" height="32" viewBox="0 0 32 32">
<title>building-skyscraper-filled</title>
<path d="M11.667 2.669c-0.552 0-1 0.448-1 1v1.665h4v-1.665c0-0.552-0.448-1-1-1h-2z"></path>
<path d="M14.667 6.667l-5.667 0.002c-0.552 0-1 0.448-1 1v1.665h9.333v-1.665c0-0.552-0.448-1-1-1h-1.667v-0.002z"></path>
<path d="M22.667 21.334c0.736 0 1.333-0.597 1.333-1.333s-0.597-1.333-1.333-1.333-1.333 0.597-1.333 1.333c0 0.736 0.597 1.333 1.333 1.333z"></path>
<path d="M24 24c0 0.736-0.597 1.333-1.333 1.333s-1.333-0.597-1.333-1.333c0-0.736 0.597-1.333 1.333-1.333s1.333 0.597 1.333 1.333z"></path>
<path d="M5.333 13.334c0-1.457 1.169-2.641 2.62-2.666h9.427c1.451 0.025 2.62 1.209 2.62 2.666v0.007c4.080 0.175 7.333 3.537 7.333 7.659v6.667c0 0.552-0.448 1-1 1h-11.333v-4c0-0.368-0.299-0.667-0.667-0.667h-3.333c-0.368 0-0.667 0.299-0.667 0.667v4h-4c-0.552 0-1-0.448-1-1v-14.333zM25.333 21c0-3.018-2.359-5.484-5.333-5.657v11.324h5.333v-5.667zM16.333 14.667c0-0.736-0.597-1.333-1.333-1.333s-1.333 0.597-1.333 1.333c0 0.736 0.597 1.333 1.333 1.333s1.333-0.597 1.333-1.333zM15 20.334c0.736 0 1.333-0.597 1.333-1.333s-0.597-1.333-1.333-1.333-1.333 0.597-1.333 1.333c0 0.736 0.597 1.333 1.333 1.333zM11.667 14.667c0-0.736-0.597-1.333-1.333-1.333s-1.333 0.597-1.333 1.333c0 0.736 0.597 1.333 1.333 1.333s1.333-0.597 1.333-1.333zM10.333 20.334c0.736 0 1.333-0.597 1.333-1.333s-0.597-1.333-1.333-1.333-1.333 0.597-1.333 1.333c0 0.736 0.597 1.333 1.333 1.333z"></path>
</svg>
