<!-- Generated by IcoMoon.io -->
<svg version="1.1" xmlns="http://www.w3.org/2000/svg" width="32" height="32" viewBox="0 0 32 32">
<title>building-retail-shield-filled</title>
<path d="M10 15.333v-2.667h12v1.62c-0.515 0.383-1.099 0.733-1.717 1.021l-0.062 0.026h-10.221zM24 11.667v1.623c0.493 0 0.987 0.169 1.381 0.507 0.752 0.649 1.616 1.197 2.553 1.608l0.066 0.026v-6.453c0.803-0.47 1.333-1.328 1.333-2.309 0-1.473-1.194-2.667-2.667-2.667h-21.333c-1.473 0-2.667 1.194-2.667 2.667 0 0.982 0.531 1.84 1.321 2.303l0.013 0.007v18.024c0 0.552 0.448 1 1 1h3v-7c0-0.552 0.448-1 1-1v0h5.333c0.552 0 1 0.448 1 1v0 7h2.42c-1.009-1.341-1.752-3.096-1.752-5.333v-4.667c0-0.237 0.040-0.461 0.111-0.667h-7.112c-0.552 0-1-0.448-1-1v0-4.667c0-0.552 0.448-1 1-1v0h14c0.552 0 1 0.448 1 1v0zM4.667 6.667c0-0.368 0.298-0.667 0.667-0.667v0h21.333c0.368 0 0.667 0.298 0.667 0.667s-0.298 0.667-0.667 0.667v0h-21.333c-0.368 0-0.667-0.298-0.667-0.667v0zM13.333 22v6h-3.333v-6h3.333zM30 17.303c-2.541-0.229-4.577-1.716-5.487-2.493-0.138-0.116-0.317-0.186-0.513-0.186s-0.375 0.070-0.515 0.187l0.001-0.001c-0.907 0.777-2.945 2.264-5.487 2.493-0.368 0.027-0.657 0.327-0.667 0.696l-0 0.001v4.667c0 5.631 5.459 7.621 6.497 7.949 0.051 0.017 0.109 0.026 0.17 0.026s0.119-0.010 0.174-0.028l-0.004 0.001c1.039-0.328 6.496-2.32 6.496-7.949v-4.667c-0.010-0.371-0.299-0.671-0.664-0.697l-0.002-0z"></path>
</svg>
