<!-- Generated by IcoMoon.io -->
<svg version="1.1" xmlns="http://www.w3.org/2000/svg" width="32" height="32" viewBox="0 0 32 32">
<title>calculator-filled</title>
<path d="M5.333 7c0-2.393 1.94-4.333 4.333-4.333h12.667c2.393 0 4.333 1.94 4.333 4.333v18c0 2.393-1.94 4.333-4.333 4.333h-12.667c-2.393 0-4.333-1.94-4.333-4.333v-18zM12 6.667c-1.473 0-2.667 1.194-2.667 2.667v1.333c0 1.473 1.194 2.667 2.667 2.667h8c1.473 0 2.667-1.194 2.667-2.667v-1.333c0-1.473-1.194-2.667-2.667-2.667h-8zM12.667 17.667c0-0.921-0.746-1.667-1.667-1.667s-1.667 0.746-1.667 1.667c0 0.921 0.746 1.667 1.667 1.667s1.667-0.746 1.667-1.667zM11 24.667c0.92 0 1.667-0.746 1.667-1.667s-0.746-1.667-1.667-1.667c-0.92 0-1.667 0.746-1.667 1.667s0.746 1.667 1.667 1.667zM22.667 17.667c0-0.921-0.746-1.667-1.667-1.667s-1.667 0.746-1.667 1.667c0 0.921 0.746 1.667 1.667 1.667s1.667-0.746 1.667-1.667zM21 24.667c0.921 0 1.667-0.746 1.667-1.667s-0.746-1.667-1.667-1.667c-0.921 0-1.667 0.746-1.667 1.667s0.746 1.667 1.667 1.667zM17.667 17.667c0-0.921-0.746-1.667-1.667-1.667s-1.667 0.746-1.667 1.667c0 0.921 0.746 1.667 1.667 1.667s1.667-0.746 1.667-1.667zM16 24.667c0.921 0 1.667-0.746 1.667-1.667s-0.746-1.667-1.667-1.667c-0.921 0-1.667 0.746-1.667 1.667s0.746 1.667 1.667 1.667z"></path>
</svg>
