<!-- Generated by IcoMoon.io -->
<svg version="1.1" xmlns="http://www.w3.org/2000/svg" width="32" height="32" viewBox="0 0 32 32">
<title>calculator-arrow-clockwise-filled</title>
<path d="M5.333 7c0-2.393 1.94-4.333 4.333-4.333v0h12.667c2.393 0 4.333 1.94 4.333 4.333v0 6.7c-0.114 0.116-0.216 0.244-0.304 0.383l-0.006 0.009c-1.089-0.482-2.359-0.762-3.694-0.762-5.155 0-9.333 4.179-9.333 9.333 0 2.613 1.073 4.975 2.803 6.669l0.002 0.002h-6.468c-2.393 0-4.333-1.939-4.333-4.332v-18.001zM12 6.667c-1.473 0-2.667 1.194-2.667 2.667v0 1.333c0 1.473 1.194 2.667 2.667 2.667v0h8c1.473 0 2.667-1.194 2.667-2.667v0-1.333c0-1.473-1.194-2.667-2.667-2.667v0h-8zM12.667 17.667c0-0.92-0.746-1.667-1.667-1.667s-1.667 0.746-1.667 1.667v0c0 0.92 0.746 1.667 1.667 1.667s1.667-0.746 1.667-1.667v0zM11 24.667c0.92 0 1.667-0.746 1.667-1.667s-0.746-1.667-1.667-1.667v0c-0.92 0-1.667 0.746-1.667 1.667s0.746 1.667 1.667 1.667v0zM28.333 20c0.552 0 1-0.448 1-1v0-3.667c0-0.552-0.448-1-1-1s-1 0.448-1 1v0 0.835c-1.294-0.939-2.915-1.502-4.667-1.502-4.418 0-8 3.582-8 8s3.582 8 8 8c4.418 0 8-3.581 8-7.999v-0c0-0.552-0.448-1-1-1s-1 0.448-1 1v0c0 0 0 0 0 0 0 3.314-2.686 6-6 6s-6-2.686-6-6c0-3.314 2.686-6 6-6 1.424 0 2.732 0.496 3.761 1.325l-0.012-0.009 0.011 0.008c0.003 0.002 0.007 0.005 0.012 0.008l0.002 0.001h-1.773c-0.552 0-1 0.448-1 1s0.448 1 1 1v0h3.667z"></path>
</svg>
