<!-- Generated by IcoMoon.io -->
<svg version="1.1" xmlns="http://www.w3.org/2000/svg" width="32" height="32" viewBox="0 0 32 32">
<title>calculator-multiple-filled</title>
<path d="M8.183 2.667c-2.31 0-4.183 1.873-4.183 4.183v0 14.968c0 2.31 1.873 4.183 4.183 4.183h11.635c2.31 0 4.183-1.873 4.183-4.183v0-14.968c0-2.31-1.873-4.183-4.183-4.183v0h-11.635zM10.333 6.667h7.333c1.288 0 2.333 1.045 2.333 2.333v1.333c0 1.289-1.045 2.333-2.333 2.333v0h-7.333c-1.289 0-2.333-1.045-2.333-2.333v0-1.333c0-1.288 1.045-2.333 2.333-2.333zM7.667 16c0-0.92 0.746-1.667 1.667-1.667s1.667 0.746 1.667 1.667v0c0 0.92-0.746 1.667-1.667 1.667s-1.667-0.746-1.667-1.667v0zM14 14.333c0.92 0 1.667 0.746 1.667 1.667s-0.746 1.667-1.667 1.667v0c-0.92 0-1.667-0.746-1.667-1.667s0.746-1.667 1.667-1.667v0zM14 19c0.92 0 1.667 0.746 1.667 1.667s-0.746 1.667-1.667 1.667v0c-0.92 0-1.667-0.746-1.667-1.667s0.746-1.667 1.667-1.667v0zM9.333 19c0.92 0 1.667 0.746 1.667 1.667s-0.746 1.667-1.667 1.667v0c-0.92 0-1.667-0.746-1.667-1.667s0.746-1.667 1.667-1.667v0zM17 16c0-0.92 0.746-1.667 1.667-1.667s1.667 0.746 1.667 1.667v0c0 0.92-0.746 1.667-1.667 1.667s-1.667-0.746-1.667-1.667v0zM18.667 19c0.92 0 1.667 0.746 1.667 1.667s-0.746 1.667-1.667 1.667v0c-0.92 0-1.667-0.746-1.667-1.667s0.746-1.667 1.667-1.667v0zM7.733 27.316c0.617 1.206 1.851 2.017 3.275 2.017 0.001 0 0.003 0 0.004 0h9.322c3.867 0 7-3.133 7-7v-12.667c0-0 0-0 0-0.001 0-1.424-0.812-2.659-1.998-3.266l-0.021-0.010c0.013 0.151 0.019 0.304 0.019 0.459v15.484c0 2.761-2.239 5-5 5v0h-12.152c-0.158-0-0.315-0.007-0.469-0.019l0.021 0.001z"></path>
</svg>
