<!-- Generated by IcoMoon.io -->
<svg version="1.1" xmlns="http://www.w3.org/2000/svg" width="32" height="32" viewBox="0 0 32 32">
<title>calculator-multiple-filled</title>
<path d="M8.183 2.667c-2.31 0-4.183 1.873-4.183 4.183v14.968c0 2.31 1.873 4.183 4.183 4.183h11.634c2.31 0 4.183-1.873 4.183-4.183v-14.968c0-2.31-1.873-4.183-4.183-4.183h-11.634zM10.333 6.667h7.333c1.289 0 2.333 1.045 2.333 2.333v1.333c0 1.289-1.045 2.333-2.333 2.333h-7.333c-1.289 0-2.333-1.045-2.333-2.333v-1.333c0-1.289 1.045-2.333 2.333-2.333zM7.667 16c0-0.921 0.746-1.667 1.667-1.667s1.667 0.746 1.667 1.667c0 0.921-0.746 1.667-1.667 1.667s-1.667-0.746-1.667-1.667zM14 14.333c0.921 0 1.667 0.746 1.667 1.667s-0.746 1.667-1.667 1.667c-0.92 0-1.667-0.746-1.667-1.667s0.746-1.667 1.667-1.667zM14 19c0.921 0 1.667 0.746 1.667 1.667s-0.746 1.667-1.667 1.667c-0.92 0-1.667-0.746-1.667-1.667s0.746-1.667 1.667-1.667zM9.333 19c0.92 0 1.667 0.746 1.667 1.667s-0.746 1.667-1.667 1.667c-0.92 0-1.667-0.746-1.667-1.667s0.746-1.667 1.667-1.667zM17 16c0-0.921 0.746-1.667 1.667-1.667s1.667 0.746 1.667 1.667c0 0.921-0.746 1.667-1.667 1.667s-1.667-0.746-1.667-1.667zM18.667 19c0.921 0 1.667 0.746 1.667 1.667s-0.746 1.667-1.667 1.667c-0.921 0-1.667-0.746-1.667-1.667s0.746-1.667 1.667-1.667zM7.734 27.315c0.603 1.197 1.844 2.018 3.276 2.018h9.323c3.866 0 7-3.134 7-7l0-12.667c0-1.433-0.821-2.673-2.019-3.277 0.013 0.152 0.019 0.305 0.019 0.459v2.798l0 0.019-0 12.151v0.516c-0 2.761-2.239 5-5 5h-12.15c-0.151 0-0.3-0.006-0.448-0.018z"></path>
</svg>
