<!-- Generated by IcoMoon.io -->
<svg version="1.1" xmlns="http://www.w3.org/2000/svg" width="32" height="32" viewBox="0 0 32 32">
<title>calendar-clock-filled</title>
<path d="M23.667 4c2.393 0 4.333 1.94 4.333 4.333v0 1h-24v-1c0-2.393 1.94-4.333 4.333-4.333v0h15.333zM28 11.333v4.696c-1.321-0.856-2.936-1.366-4.67-1.366-4.786 0-8.667 3.88-8.667 8.667 0 1.734 0.509 3.349 1.386 4.703l-0.021-0.034h-7.696c-2.393 0-4.333-1.94-4.333-4.333v0-12.333h24zM30.667 23.333c0-4.050-3.283-7.333-7.333-7.333s-7.333 3.283-7.333 7.333v0c0 4.050 3.283 7.333 7.333 7.333s7.333-3.283 7.333-7.333v0zM23.333 23.333h2.667c0.368 0 0.667 0.298 0.667 0.667s-0.298 0.667-0.667 0.667v0h-3.333c-0.368 0-0.667-0.298-0.667-0.667v0-4c0-0.368 0.298-0.667 0.667-0.667s0.667 0.298 0.667 0.667v0 3.333z"></path>
</svg>
