<!-- Generated by IcoMoon.io -->
<svg version="1.1" xmlns="http://www.w3.org/2000/svg" width="32" height="32" viewBox="0 0 32 32">
<title>calendar-today-filled</title>
<path d="M16 16.571c0.789 0 1.429-0.64 1.429-1.429s-0.64-1.429-1.429-1.429v0c-0.789 0-1.429 0.64-1.429 1.429s0.64 1.429 1.429 1.429v0zM28.571 24.857v-14h-25.143v14c0 2.051 1.663 3.714 3.714 3.714v0h6.857v-4.083c-0.171 0.053-0.368 0.084-0.572 0.084-1.105 0-2-0.895-2-2 0-0.594 0.259-1.127 0.669-1.493l2.573-2.287c0.352-0.314 0.818-0.506 1.329-0.506s0.978 0.192 1.331 0.507l-0.002-0.002 2.571 2.286c0.413 0.368 0.671 0.901 0.671 1.495 0 1.105-0.895 2-2 2-0.204 0-0.401-0.031-0.586-0.087l0.014 0.004v4.083h6.857c2.051 0 3.714-1.663 3.714-3.714v0zM18.571 15.143c0 1.42-1.151 2.571-2.571 2.571s-2.571-1.151-2.571-2.571v0c0-1.42 1.151-2.571 2.571-2.571s2.571 1.151 2.571 2.571v0zM28.571 7.143c0-2.051-1.663-3.714-3.714-3.714v0h-17.714c-2.051 0-3.714 1.663-3.714 3.714v0 2h25.143v-2zM18.002 23.211c0.147 0.121 0.337 0.194 0.544 0.194 0.473 0 0.857-0.384 0.857-0.857 0-0.242-0.101-0.461-0.262-0.617l-0-0-2.571-2.286c-0.151-0.134-0.35-0.216-0.569-0.216s-0.419 0.082-0.57 0.217l-2.571 2.285c-0.162 0.156-0.262 0.375-0.262 0.617 0 0.473 0.384 0.857 0.857 0.857 0.207 0 0.397-0.073 0.545-0.196l-0.001 0.001 1.145-1.017v6.663c0 0.473 0.384 0.857 0.857 0.857s0.857-0.384 0.857-0.857v0-6.663l1.145 1.017z"></path>
</svg>
