<!-- Generated by IcoMoon.io -->
<svg version="1.1" xmlns="http://www.w3.org/2000/svg" width="32" height="32" viewBox="0 0 32 32">
<title>calendar-agenda-filled</title>
<path d="M28.571 24.857c0 2.051-1.663 3.714-3.714 3.714v0h-17.714c-2.051 0-3.714-1.663-3.714-3.714v0-17.714c0-2.051 1.663-3.714 3.714-3.714v0h17.714c2.051 0 3.714 1.663 3.714 3.714v0 17.714zM22.571 16c-0-0.432-0.32-0.79-0.736-0.849l-0.005-0.001-0.117-0.008-11.545 0.008c-0.42 0.059-0.74 0.417-0.74 0.849s0.32 0.79 0.736 0.849l0.005 0.001 0.117 0.008 11.545-0.008c0.421-0.059 0.741-0.417 0.741-0.849v0zM22.571 22c-0-0.432-0.32-0.79-0.736-0.849l-0.005-0.001-0.117-0.008-11.545 0.008c-0.42 0.059-0.74 0.417-0.74 0.849s0.32 0.79 0.736 0.849l0.005 0.001 0.117 0.008 11.545-0.008c0.421-0.059 0.741-0.417 0.741-0.849v0zM22.571 10c-0-0.432-0.32-0.79-0.736-0.849l-0.005-0.001-0.117-0.008-11.545 0.008c-0.42 0.059-0.74 0.417-0.74 0.849s0.32 0.79 0.736 0.849l0.005 0.001 0.117 0.008 11.545-0.008c0.421-0.059 0.741-0.417 0.741-0.849v0z"></path>
</svg>
