<!-- Generated by IcoMoon.io -->
<svg version="1.1" xmlns="http://www.w3.org/2000/svg" width="32" height="32" viewBox="0 0 32 32">
<title>calendar-3-day-filled</title>
<path d="M23.667 4c2.393 0 4.333 1.94 4.333 4.333v15.333c0 2.393-1.94 4.333-4.333 4.333h-15.333c-2.393 0-4.333-1.94-4.333-4.333v-15.333c0-2.393 1.94-4.333 4.333-4.333h15.333zM10.333 9.333c-0.506 0-0.925 0.376-0.991 0.864l-0.009 0.136v11.333l0.009 0.136c0.066 0.488 0.485 0.864 0.991 0.864s0.925-0.376 0.991-0.864l0.009-0.136v-11.333l-0.009-0.136c-0.066-0.488-0.485-0.864-0.991-0.864zM21.667 9.333c-0.506 0-0.925 0.376-0.991 0.864l-0.009 0.136v11.333l0.009 0.136c0.066 0.488 0.485 0.864 0.991 0.864s0.925-0.376 0.991-0.864l0.009-0.136v-11.333l-0.009-0.136c-0.066-0.488-0.485-0.864-0.991-0.864zM16 9.333c-0.506 0-0.925 0.376-0.991 0.864l-0.009 0.136v11.333l0.009 0.136c0.066 0.488 0.485 0.864 0.991 0.864s0.925-0.376 0.991-0.864l0.009-0.136v-11.333l-0.009-0.136c-0.066-0.488-0.485-0.864-0.991-0.864z"></path>
</svg>
