<!-- Generated by IcoMoon.io -->
<svg version="1.1" xmlns="http://www.w3.org/2000/svg" width="32" height="32" viewBox="0 0 32 32">
<title>calendar-error-filled</title>
<path d="M28 16.029v-4.696h-24v12.333c0 2.393 1.94 4.333 4.333 4.333h7.696c-0.862-1.347-1.362-2.949-1.362-4.667 0-4.787 3.88-8.667 8.667-8.667 1.718 0 3.32 0.5 4.667 1.362zM28 8.333c0-2.393-1.94-4.333-4.333-4.333h-15.333c-2.393 0-4.333 1.94-4.333 4.333v1h24v-1zM30.667 23.333c0-4.050-3.283-7.333-7.333-7.333s-7.333 3.283-7.333 7.333c0 4.050 3.283 7.333 7.333 7.333s7.333-3.283 7.333-7.333zM22.667 19.333c0-0.368 0.299-0.667 0.667-0.667s0.667 0.299 0.667 0.667v5.333c0 0.368-0.299 0.667-0.667 0.667s-0.667-0.299-0.667-0.667v-5.333zM24.167 27.333c0 0.46-0.373 0.833-0.833 0.833s-0.833-0.373-0.833-0.833c0-0.46 0.373-0.833 0.833-0.833s0.833 0.373 0.833 0.833z"></path>
</svg>
