<!-- Generated by IcoMoon.io -->
<svg version="1.1" xmlns="http://www.w3.org/2000/svg" width="32" height="32" viewBox="0 0 32 32">
<title>calendar-multiple-filled</title>
<path d="M6.5 2c-2.485 0-4.5 2.015-4.5 4.5v0 0.5h24v-0.5c0-2.485-2.015-4.5-4.5-4.5v0h-15zM2 21.5v-12.5h24v12.5c0 2.485-2.015 4.5-4.5 4.5v0h-15c-2.485 0-4.5-2.015-4.5-4.5v0zM28 9.5v-3.743c1.206 0.808 2 2.183 2 3.743v12.5c0 4.418-3.582 8-8 8v0h-12.5c-0.001 0-0.002 0-0.002 0-1.553 0-2.922-0.787-3.729-1.984l-0.010-0.016h16.242c3.314 0 6-2.686 6-6v0-12.5z"></path>
</svg>
