<!-- Generated by IcoMoon.io -->
<svg version="1.1" xmlns="http://www.w3.org/2000/svg" width="32" height="32" viewBox="0 0 32 32">
<title>calendar-work-week-filled</title>
<path d="M10.286 15.429v-4.571h11.429v4.571h-11.429zM3.429 24.857c0 2.051 1.663 3.714 3.714 3.714v0h17.714c2.051 0 3.714-1.663 3.714-3.714v0-17.714c0-2.051-1.663-3.714-3.714-3.714v0h-17.714c-2.051 0-3.714 1.663-3.714 3.714v0 17.714zM9.429 9.143h13.143c0.473 0 0.857 0.384 0.857 0.857v0 6.286c0 0.473-0.384 0.857-0.857 0.857v0h-13.143c-0.473 0-0.857-0.384-0.857-0.857v0-6.286c0-0.473 0.384-0.857 0.857-0.857v0z"></path>
</svg>
