<!-- Generated by IcoMoon.io -->
<svg version="1.1" xmlns="http://www.w3.org/2000/svg" width="32" height="32" viewBox="0 0 32 32">
<title>calendar-info-filled</title>
<path d="M27.2 11.2v4.16c-1.164-0.607-2.542-0.963-4.003-0.963-4.86 0-8.8 3.94-8.8 8.8 0 1.461 0.356 2.839 0.986 4.052l-0.023-0.049h-6.56c-2.209 0-4-1.791-4-4v0-12h22.4zM23.2 4.8c2.209 0 4 1.791 4 4v0 0.8h-22.4v-0.8c0-2.209 1.791-4 4-4v0h14.4zM22.2 20c0-0.552 0.448-1 1-1s1 0.448 1 1v0c0 0.552-0.448 1-1 1s-1-0.448-1-1v0zM24 26.4c0 0.442-0.358 0.8-0.8 0.8s-0.8-0.358-0.8-0.8v0-3.2c0-0.442 0.358-0.8 0.8-0.8s0.8 0.358 0.8 0.8v0 3.2zM16 23.2c0-3.976 3.224-7.2 7.2-7.2s7.2 3.224 7.2 7.2v0c0 3.976-3.224 7.2-7.2 7.2s-7.2-3.224-7.2-7.2v0zM17.6 23.2c0 3.093 2.507 5.6 5.6 5.6s5.6-2.507 5.6-5.6v0c0-3.093-2.507-5.6-5.6-5.6s-5.6 2.507-5.6 5.6v0z"></path>
</svg>
