<!-- Generated by IcoMoon.io -->
<svg version="1.1" xmlns="http://www.w3.org/2000/svg" width="32" height="32" viewBox="0 0 32 32">
<title>calendar-settings-filled</title>
<path d="M4 8.167c0-2.301 1.865-4.167 4.167-4.167v0h15.667c2.301 0 4.167 1.865 4.167 4.167v0 1.167h-24v-1.167zM4 11v12.833c0 2.301 1.865 4.167 4.167 4.167v0h7.863c-0.855-1.316-1.363-2.925-1.363-4.653 0-0.005 0-0.009 0-0.014v0.001c0-4.787 3.88-8.667 8.667-8.667 1.718 0 3.32 0.5 4.667 1.363v-5.029h-24zM19.263 19.855c0.037 0.117 0.059 0.252 0.059 0.392 0 0.631-0.438 1.159-1.026 1.298l-0.009 0.002-2.173 0.499c-0.072 0.387-0.113 0.832-0.113 1.287 0 0.393 0.031 0.778 0.090 1.155l-0.005-0.042 2.309 0.579c0.584 0.15 1.009 0.672 1.009 1.293 0 0.131-0.019 0.257-0.054 0.377l0.002-0.009-0.665 2.321c0.588 0.486 1.269 0.887 2.007 1.173l0.050 0.017 1.679-1.738c0.243-0.251 0.583-0.407 0.959-0.407s0.716 0.156 0.958 0.406l0 0 1.656 1.711c0.792-0.313 1.474-0.727 2.074-1.235l-0.011 0.009-0.654-2.131c-0.037-0.117-0.059-0.252-0.059-0.392 0-0.631 0.438-1.159 1.026-1.298l0.009-0.002 2.173-0.499c0.072-0.387 0.113-0.832 0.113-1.287 0-0.393-0.031-0.779-0.090-1.155l0.005 0.042-2.309-0.579c-0.584-0.15-1.010-0.672-1.010-1.293 0-0.131 0.019-0.257 0.054-0.377l-0.002 0.009 0.665-2.321c-0.588-0.486-1.269-0.888-2.008-1.173l-0.050-0.017-1.679 1.738c-0.243 0.251-0.583 0.407-0.959 0.407s-0.716-0.156-0.958-0.406l-0-0-1.656-1.711c-0.792 0.313-1.474 0.727-2.074 1.236l0.011-0.009 0.655 2.13zM23.333 25.333c-1.105 0-2-0.895-2-2s0.895-2 2-2v0c1.105 0 2 0.895 2 2s-0.895 2-2 2v0z"></path>
</svg>
