<!-- Generated by IcoMoon.io -->
<svg version="1.1" xmlns="http://www.w3.org/2000/svg" width="32" height="32" viewBox="0 0 32 32">
<title>calendar-day-filled</title>
<path d="M24.857 3.429c2.051 0 3.714 1.663 3.714 3.714v0 17.714c0 2.051-1.663 3.714-3.714 3.714v0h-17.714c-2.051 0-3.714-1.663-3.714-3.714v0-17.714c0-2.051 1.663-3.714 3.714-3.714v0h17.714zM21.714 13.714h-11.429c-0.584 0-1.066 0.438-1.134 1.004l-0.001 0.005-0.008 0.134v6.857c0 0.584 0.438 1.066 1.004 1.134l0.005 0.001 0.134 0.008h11.429c0.584-0 1.066-0.438 1.134-1.004l0.001-0.006 0.008-0.134v-6.857c-0-0.584-0.438-1.066-1.004-1.134l-0.006-0.001-0.134-0.008zM21.143 15.429v5.714h-10.286v-5.714h10.286zM21.714 9.143l-11.545 0.008c-0.42 0.059-0.74 0.417-0.74 0.849s0.32 0.79 0.736 0.849l0.005 0.001 0.117 0.008 11.545-0.008c0.42-0.059 0.74-0.417 0.74-0.849s-0.32-0.79-0.736-0.849l-0.005-0.001-0.117-0.008z"></path>
</svg>
