<!-- Generated by IcoMoon.io -->
<svg version="1.1" xmlns="http://www.w3.org/2000/svg" width="32" height="32" viewBox="0 0 32 32">
<title>calendar-pattern-filled</title>
<path d="M9.2 4.8h13.6c2.43 0 4.4 1.97 4.4 4.4v0 13.6c0 2.43-1.97 4.4-4.4 4.4v0h-13.6c-2.43 0-4.4-1.97-4.4-4.4v0-13.6c0-2.43 1.97-4.4 4.4-4.4v0zM7.2 9.2v2h17.6v-2c0-1.104-0.896-2-2-2h-13.6c-1.104 0-2 0.896-2 2zM23.531 12.8l-6.4 6.4h4.138l3.531-3.531v-2.869h-1.269zM21.269 12.8h-4.138l-6.4 6.4h4.138l6.4-6.4zM8.469 19.2l6.4-6.4h-4.138l-3.531 3.531v2.869h1.269zM7.2 14.069l1.269-1.269h-1.269v1.269zM23.531 19.2h1.269v-1.269l-1.269 1.269z"></path>
</svg>
