<!-- Generated by IcoMoon.io -->
<svg version="1.1" xmlns="http://www.w3.org/2000/svg" width="32" height="32" viewBox="0 0 32 32">
<title>calendar-toolbox-filled</title>
<path d="M14.667 22v6h-6.333c-2.393 0-4.333-1.94-4.333-4.333v-12.333h24v4.505c-0.634-0.524-1.447-0.838-2.333-0.838h-1.805c-0.257-0.589-0.845-1-1.528-1-0.685 0-1.274 0.414-1.53 1.005-1.933 0.102-3.47 1.703-3.47 3.661v0.067c-1.521 0.309-2.667 1.654-2.667 3.267zM8 21.667c0 0.921 0.746 1.667 1.667 1.667s1.667-0.746 1.667-1.667c0-0.921-0.746-1.667-1.667-1.667s-1.667 0.746-1.667 1.667zM8 15.667c0 0.921 0.746 1.667 1.667 1.667s1.667-0.746 1.667-1.667c0-0.921-0.746-1.667-1.667-1.667s-1.667 0.746-1.667 1.667zM14.333 15.667c0 0.921 0.746 1.667 1.667 1.667s1.667-0.746 1.667-1.667c0-0.921-0.746-1.667-1.667-1.667s-1.667 0.746-1.667 1.667zM28 8.333c0-2.393-1.94-4.333-4.333-4.333h-15.333c-2.393 0-4.333 1.94-4.333 4.333v1h24v-1zM18.667 20h-0.667c-1.105 0-2 0.895-2 2v2h3.333v-0.333c0-0.552 0.448-1 1-1s1 0.448 1 1v0.333h4v-0.333c0-0.552 0.448-1 1-1s1 0.448 1 1v0.333h3.333v-2c0-1.105-0.895-2-2-2h-0.667v-1.333c0-1.289-1.045-2.333-2.333-2.333h-4.667c-1.289 0-2.333 1.045-2.333 2.333v1.333zM20.667 18.667c0-0.184 0.149-0.333 0.333-0.333h4.667c0.184 0 0.333 0.149 0.333 0.333v1.333h-5.333v-1.333zM16 28.667v-2.667h3.333v1c0 0.552 0.448 1 1 1s1-0.448 1-1v-1h4v1c0 0.552 0.448 1 1 1s1-0.448 1-1v-1h3.333v2.667c0 1.105-0.895 2-2 2h-10.667c-1.105 0-2-0.895-2-2z"></path>
</svg>
