<!-- Generated by IcoMoon.io -->
<svg version="1.1" xmlns="http://www.w3.org/2000/svg" width="32" height="32" viewBox="0 0 32 32">
<title>calendar-cancel-filled</title>
<path d="M23.333 16c4.050 0 7.333 3.283 7.333 7.333s-3.283 7.333-7.333 7.333c-4.050 0-7.333-3.283-7.333-7.333s3.283-7.333 7.333-7.333zM20.032 20.032c-0.26 0.26-0.26 0.683 0 0.943l2.359 2.36-2.355 2.355c-0.26 0.26-0.26 0.682 0 0.943s0.682 0.26 0.943 0l2.355-2.355 2.359 2.358c0.26 0.26 0.682 0.26 0.943 0s0.26-0.682 0-0.943l-2.358-2.358 2.362-2.36c0.26-0.26 0.26-0.683 0-0.943s-0.683-0.26-0.943 0l-2.362 2.36-2.36-2.36c-0.26-0.26-0.682-0.26-0.943 0zM28 11.333l0.002 4.697c-1.347-0.863-2.949-1.363-4.668-1.363-4.787 0-8.667 3.88-8.667 8.667 0 1.719 0.5 3.321 1.363 4.668l-7.697-0.002c-2.393 0-4.333-1.94-4.333-4.333v-12.333h24zM23.667 4c2.393 0 4.333 1.94 4.333 4.333v1h-24v-1c0-2.393 1.94-4.333 4.333-4.333h15.333z"></path>
</svg>
