<!-- Generated by IcoMoon.io -->
<svg version="1.1" xmlns="http://www.w3.org/2000/svg" width="32" height="32" viewBox="0 0 32 32">
<title>calendar-ltr-filled</title>
<path d="M4 8.167c0-2.301 1.865-4.167 4.167-4.167v0h15.667c2.301 0 4.167 1.865 4.167 4.167v0 1.167h-24v-1.167zM4 11v12.833c0 2.301 1.865 4.167 4.167 4.167v0h15.667c2.301 0 4.167-1.865 4.167-4.167v0-12.833h-24zM12 15.667c0 0.92-0.746 1.667-1.667 1.667s-1.667-0.746-1.667-1.667v0c0-0.92 0.746-1.667 1.667-1.667s1.667 0.746 1.667 1.667v0zM16 17.333c-0.92 0-1.667-0.746-1.667-1.667s0.746-1.667 1.667-1.667v0c0.92 0 1.667 0.746 1.667 1.667s-0.746 1.667-1.667 1.667v0zM23.333 15.667c0 0.92-0.746 1.667-1.667 1.667s-1.667-0.746-1.667-1.667v0c0-0.92 0.746-1.667 1.667-1.667s1.667 0.746 1.667 1.667v0zM10.333 22.667c-0.92 0-1.667-0.746-1.667-1.667s0.746-1.667 1.667-1.667v0c0.92 0 1.667 0.746 1.667 1.667s-0.746 1.667-1.667 1.667v0zM17.667 21c0 0.92-0.746 1.667-1.667 1.667s-1.667-0.746-1.667-1.667v0c0-0.92 0.746-1.667 1.667-1.667s1.667 0.746 1.667 1.667v0z"></path>
</svg>
