<!-- Generated by IcoMoon.io -->
<svg version="1.1" xmlns="http://www.w3.org/2000/svg" width="32" height="32" viewBox="0 0 32 32">
<title>calendar-arrow-down-filled</title>
<path d="M28 11.333v4.696c-1.321-0.856-2.936-1.366-4.67-1.366-4.786 0-8.667 3.88-8.667 8.667 0 1.734 0.509 3.349 1.386 4.703l-0.021-0.034h-7.696c-2.393 0-4.333-1.94-4.333-4.333v0-12.333h24zM23.667 4c2.393 0 4.333 1.94 4.333 4.333v0 1h-24v-1c0-2.393 1.94-4.333 4.333-4.333v0h15.333zM30.667 23.333c0 4.050-3.283 7.333-7.333 7.333s-7.333-3.283-7.333-7.333v0c0-4.050 3.283-7.333 7.333-7.333s7.333 3.283 7.333 7.333v0zM24 19.333c0-0.368-0.298-0.667-0.667-0.667s-0.667 0.298-0.667 0.667v0 6.391l-2.195-2.196c-0.121-0.121-0.288-0.195-0.472-0.195-0.369 0-0.668 0.299-0.668 0.668 0 0.184 0.075 0.351 0.195 0.472l3.333 3.333c0.121 0.121 0.288 0.196 0.472 0.196s0.351-0.075 0.472-0.196v0l3.333-3.333c0.121-0.121 0.195-0.288 0.195-0.472 0-0.369-0.299-0.668-0.668-0.668-0.184 0-0.351 0.075-0.472 0.195l-2.195 2.196v-6.391z"></path>
</svg>
