<!-- Generated by IcoMoon.io -->
<svg version="1.1" xmlns="http://www.w3.org/2000/svg" width="32" height="32" viewBox="0 0 32 32">
<title>calendar-chat-filled</title>
<path d="M28 11.333v4.694c-1.258-0.805-2.739-1.294-4.328-1.355-0.304-0.408-0.79-0.673-1.338-0.673-0.702 0-1.302 0.434-1.548 1.048-2.529 0.777-4.565 2.68-5.523 5.124-0.55 0.272-0.929 0.839-0.929 1.495 0 0.389 0.133 0.747 0.357 1.031-0.015 0.211-0.023 0.423-0.023 0.638 0 1.315 0.294 2.564 0.82 3.683l-0.299 0.982h-6.854c-2.393 0-4.333-1.94-4.333-4.333v-12.333h24zM9.667 20c-0.92 0-1.667 0.746-1.667 1.667s0.746 1.667 1.667 1.667c0.92 0 1.667-0.746 1.667-1.667s-0.746-1.667-1.667-1.667zM9.667 14c-0.92 0-1.667 0.746-1.667 1.667s0.746 1.667 1.667 1.667c0.92 0 1.667-0.746 1.667-1.667s-0.746-1.667-1.667-1.667zM16 14c-0.921 0-1.667 0.746-1.667 1.667s0.746 1.667 1.667 1.667c0.921 0 1.667-0.746 1.667-1.667s-0.746-1.667-1.667-1.667zM23.961 16.026c1.528 0.129 2.922 0.726 4.039 1.648 1.63 1.345 2.67 3.382 2.67 5.661 0 4.051-3.284 7.335-7.335 7.335-1.29 0-2.503-0.333-3.556-0.918l-2.916 0.887c-0.51 0.155-0.987-0.322-0.832-0.832l0.888-2.915c-0.585-1.053-0.919-2.266-0.919-3.557 0-4.051 3.284-7.335 7.335-7.335 0.211 0 0.42 0.009 0.626 0.026 0-0 0 0 0 0zM20.001 22.001c0 0.368 0.299 0.667 0.667 0.667h5.334c0.368 0 0.667-0.299 0.667-0.667s-0.299-0.667-0.667-0.667h-5.334c-0.368 0-0.667 0.299-0.667 0.667zM20.668 25.335h2.667c0.368 0 0.667-0.299 0.667-0.667s-0.299-0.667-0.667-0.667h-2.667c-0.368 0-0.667 0.299-0.667 0.667s0.299 0.667 0.667 0.667zM23.667 4c2.393 0 4.333 1.94 4.333 4.333v1h-24v-1c0-2.393 1.94-4.333 4.333-4.333h15.333z"></path>
</svg>
