<!-- Generated by IcoMoon.io -->
<svg version="1.1" xmlns="http://www.w3.org/2000/svg" width="32" height="32" viewBox="0 0 32 32">
<title>calendar-star-filled</title>
<path d="M23.333 16c4.050 0 7.333 3.283 7.333 7.333s-3.283 7.333-7.333 7.333v0c-4.050 0-7.333-3.283-7.333-7.333s3.283-7.333 7.333-7.333v0zM28 11.333l0.001 4.697c-1.322-0.858-2.938-1.368-4.673-1.368-4.786 0-8.667 3.88-8.667 8.667 0 1.735 0.51 3.352 1.388 4.707l-0.021-0.034-7.696-0.003c-2.393 0-4.333-1.94-4.333-4.333v0-12.333h24zM22.645 18.728l-0.053 0.131-0.741 2.383h-2.404c-0.709 0-1.029 0.891-0.556 1.381l0.099 0.087 1.944 1.473-0.743 2.383c-0.22 0.707 0.5 1.3 1.095 0.973l0.104-0.067 1.944-1.472 1.944 1.472c0.577 0.437 1.341-0.093 1.227-0.784l-0.028-0.123-0.743-2.383 1.944-1.473c0.573-0.435 0.331-1.352-0.329-1.457l-0.128-0.011h-2.404l-0.743-2.383c-0.094-0.325-0.389-0.559-0.739-0.559-0.301 0-0.561 0.173-0.687 0.424l-0.002 0.004zM23.667 4c2.393 0 4.333 1.94 4.333 4.333v0 1h-24v-1c0-2.393 1.94-4.333 4.333-4.333v0h15.333z"></path>
</svg>
