<!-- Generated by IcoMoon.io -->
<svg version="1.1" xmlns="http://www.w3.org/2000/svg" width="32" height="32" viewBox="0 0 32 32">
<title>calendar-day-filled</title>
<path d="M23.667 4c2.393 0 4.333 1.94 4.333 4.333v15.333c0 2.393-1.94 4.333-4.333 4.333h-15.333c-2.393 0-4.333-1.94-4.333-4.333v-15.333c0-2.393 1.94-4.333 4.333-4.333h15.333zM21.667 14.667h-11.333c-0.506 0-0.925 0.376-0.991 0.864l-0.009 0.136v6c0 0.506 0.376 0.925 0.864 0.991l0.136 0.009h11.333c0.506 0 0.925-0.376 0.991-0.864l0.009-0.136v-6c0-0.506-0.376-0.925-0.864-0.991l-0.136-0.009zM20.667 16.667v4h-9.333v-4h9.333zM21.667 9.667h-11.333c-0.552 0-1 0.448-1 1s0.448 1 1 1h11.333c0.552 0 1-0.448 1-1s-0.448-1-1-1z"></path>
</svg>
