<!-- Generated by IcoMoon.io -->
<svg version="1.1" xmlns="http://www.w3.org/2000/svg" width="32" height="32" viewBox="0 0 32 32">
<title>calendar-chat-filled</title>
<path d="M28 11.333v4.695c-1.321-0.856-2.935-1.365-4.669-1.365-4.787 0-8.668 3.881-8.668 8.668 0 1.339 0.304 2.607 0.846 3.74l-0.023-0.052-0.3 0.981h-6.853c-2.393 0-4.333-1.94-4.333-4.333v0-12.333h24zM23.667 4c2.393 0 4.333 1.94 4.333 4.333v0 1h-24v-1c0-2.393 1.94-4.333 4.333-4.333v0h15.333zM28 17.675c-1.253-1.042-2.879-1.675-4.652-1.675-0.005 0-0.009 0-0.014 0h0.001c-0.001 0-0.001 0-0.002 0-4.051 0-7.335 3.284-7.335 7.335 0 1.306 0.341 2.532 0.939 3.594l-0.019-0.037-0.888 2.915c-0.019 0.059-0.029 0.126-0.029 0.196 0 0.368 0.298 0.667 0.667 0.667 0.069 0 0.136-0.011 0.199-0.030l-0.005 0.001 2.916-0.888c1.027 0.582 2.257 0.925 3.566 0.925 4.051 0 7.335-3.284 7.335-7.335 0-2.278-1.038-4.313-2.667-5.658l-0.012-0.010zM20.667 22.667c-0.368 0-0.667-0.298-0.667-0.667s0.298-0.667 0.667-0.667v0h5.336c0.368 0 0.667 0.298 0.667 0.667s-0.298 0.667-0.667 0.667v0h-5.336zM23.335 25.333h-2.667c-0.368 0-0.667-0.298-0.667-0.667s0.298-0.667 0.667-0.667v0h2.667c0.368 0 0.667 0.298 0.667 0.667s-0.298 0.667-0.667 0.667v0z"></path>
</svg>
