<!-- Generated by IcoMoon.io -->
<svg version="1.1" xmlns="http://www.w3.org/2000/svg" width="32" height="32" viewBox="0 0 32 32">
<title>calendar-edit-filled</title>
<path d="M15.36 26.101l-0.474 1.897h-6.553c-2.393 0-4.333-1.94-4.333-4.333v-12.332h23.998v3.349c-1.244-0.107-2.524 0.315-3.476 1.267l-7.869 7.869c-0.63 0.63-1.076 1.419-1.292 2.283zM27.998 8.333c0-2.393-1.94-4.333-4.333-4.333h-15.332c-2.393 0-4.333 1.94-4.333 4.333v1h23.998v-1zM25.465 16.891l-7.869 7.869c-0.459 0.459-0.784 1.034-0.942 1.663l-0.61 2.441c-0.265 1.061 0.696 2.023 1.757 1.758l2.441-0.61c0.629-0.157 1.204-0.483 1.663-0.942l7.869-7.869c1.19-1.19 1.19-3.12 0-4.31s-3.119-1.19-4.31 0z"></path>
</svg>
