<!-- Generated by IcoMoon.io -->
<svg version="1.1" xmlns="http://www.w3.org/2000/svg" width="32" height="32" viewBox="0 0 32 32">
<title>calendar-work-week-filled</title>
<path d="M11.333 14.667v-3.333h9.333v3.333h-9.333z"></path>
<path d="M23.667 28c2.393 0 4.333-1.94 4.333-4.333v-15.333c0-2.393-1.94-4.333-4.333-4.333h-15.333c-2.393 0-4.333 1.94-4.333 4.333v15.333c0 2.393 1.94 4.333 4.333 4.333h15.333zM10.333 9.333h11.333c0.552 0 1 0.448 1 1v5.333c0 0.552-0.448 1-1 1h-11.333c-0.552 0-1-0.448-1-1v-5.333c0-0.552 0.448-1 1-1z"></path>
</svg>
