<!-- Generated by IcoMoon.io -->
<svg version="1.1" xmlns="http://www.w3.org/2000/svg" width="32" height="32" viewBox="0 0 32 32">
<title>calendar-add-filled</title>
<path d="M23.333 16c4.050 0 7.333 3.283 7.333 7.333s-3.283 7.333-7.333 7.333c-4.050 0-7.333-3.283-7.333-7.333s3.283-7.333 7.333-7.333zM28 11.333l0.002 4.697c-1.347-0.863-2.949-1.363-4.668-1.363-4.787 0-8.667 3.88-8.667 8.667 0 1.719 0.5 3.321 1.363 4.668l-7.697-0.002c-2.393 0-4.333-1.94-4.333-4.333v-12.333h24zM23.333 18.667l-0.12 0.011c-0.272 0.049-0.487 0.264-0.536 0.536l-0.011 0.12v3.333h-3.333l-0.12 0.011c-0.272 0.049-0.487 0.264-0.536 0.536l-0.011 0.12 0.011 0.12c0.049 0.272 0.264 0.487 0.536 0.536l0.12 0.011h3.333v3.333l0.011 0.12c0.049 0.272 0.264 0.487 0.536 0.536l0.12 0.011 0.12-0.011c0.272-0.049 0.487-0.264 0.536-0.536l0.011-0.12v-3.333h3.333l0.12-0.011c0.272-0.049 0.487-0.264 0.536-0.536l0.011-0.12-0.011-0.12c-0.049-0.272-0.264-0.487-0.536-0.536l-0.12-0.011h-3.333v-3.333l-0.011-0.12c-0.049-0.272-0.264-0.487-0.536-0.536l-0.12-0.011zM23.667 4c2.393 0 4.333 1.94 4.333 4.333v1h-24v-1c0-2.393 1.94-4.333 4.333-4.333h15.333z"></path>
</svg>
