<!-- Generated by IcoMoon.io -->
<svg version="1.1" xmlns="http://www.w3.org/2000/svg" width="32" height="32" viewBox="0 0 32 32">
<title>calendar-data-bar-filled</title>
<path d="M28.571 10.857v7.486c-0.171-0.036-0.367-0.057-0.568-0.057-0.648 0-1.245 0.214-1.726 0.576l0.007-0.005v-1.143c0-1.578-1.279-2.857-2.857-2.857s-2.857 1.279-2.857 2.857v0 4.571c-0.472-0.357-1.068-0.571-1.714-0.571-1.578 0-2.857 1.279-2.857 2.857v0 4h-8.857c-2.051 0-3.714-1.663-3.714-3.714v0-14h25.143zM24.857 3.429c2.051 0 3.714 1.663 3.714 3.714v0 2h-25.143v-2c0-2.051 1.663-3.714 3.714-3.714v0h17.714zM23.429 16c-0.947 0-1.714 0.767-1.714 1.714v0 11.429c0 0.947 0.767 1.714 1.714 1.714s1.714-0.767 1.714-1.714v0-11.429c0-0.947-0.767-1.714-1.714-1.714v0zM18.857 22.857c-0.947 0-1.714 0.767-1.714 1.714v0 4.571c0 0.947 0.767 1.714 1.714 1.714s1.714-0.767 1.714-1.714v0-4.571c0-0.947-0.767-1.714-1.714-1.714v0zM26.286 21.143c0-0.947 0.767-1.714 1.714-1.714s1.714 0.767 1.714 1.714v0 8c0 0.947-0.767 1.714-1.714 1.714s-1.714-0.767-1.714-1.714v0-8z"></path>
</svg>
