<!-- Generated by IcoMoon.io -->
<svg version="1.1" xmlns="http://www.w3.org/2000/svg" width="32" height="32" viewBox="0 0 32 32">
<title>calendar-lock-filled</title>
<path d="M4 8.167c0-2.301 1.865-4.167 4.167-4.167v0h15.667c2.301 0 4.167 1.865 4.167 4.167v0 1.167h-24v-1.167zM4 11v12.833c0 2.301 1.865 4.167 4.167 4.167v0h9.167v-6c0-1.619 1.154-2.969 2.685-3.271l0.021-0.003c0.312-2.302 2.264-4.058 4.627-4.058 1.305 0 2.485 0.536 3.332 1.4l0.001 0.001v-5.067h-24zM21.333 20h-0.667c-1.105 0-2 0.895-2 2v0 6.667c0 1.105 0.895 2 2 2v0h8c1.105 0 2-0.895 2-2v0-6.667c0-1.105-0.895-2-2-2v0h-0.667v-0.667c0-1.841-1.492-3.333-3.333-3.333s-3.333 1.492-3.333 3.333v0 0.667zM23 19.333c0-0.92 0.746-1.667 1.667-1.667s1.667 0.746 1.667 1.667v0 0.667h-3.333v-0.667zM26.667 25.333c0 1.105-0.895 2-2 2s-2-0.895-2-2v0c0-1.105 0.895-2 2-2s2 0.895 2 2v0z"></path>
</svg>
