<!-- Generated by IcoMoon.io -->
<svg version="1.1" xmlns="http://www.w3.org/2000/svg" width="32" height="32" viewBox="0 0 32 32">
<title>calendar-error-filled</title>
<path d="M28 16.029v-4.696h-24v12.333c0 2.393 1.94 4.333 4.333 4.333v0h7.696c-0.856-1.321-1.366-2.936-1.366-4.67 0-4.786 3.88-8.667 8.667-8.667 1.734 0 3.349 0.509 4.703 1.386l-0.034-0.021zM28 8.333c0-2.393-1.94-4.333-4.333-4.333v0h-15.333c-2.393 0-4.333 1.94-4.333 4.333v0 1h24v-1zM30.667 23.333c0-4.050-3.283-7.333-7.333-7.333s-7.333 3.283-7.333 7.333v0c0 4.050 3.283 7.333 7.333 7.333s7.333-3.283 7.333-7.333v0zM22.667 19.333c0-0.368 0.298-0.667 0.667-0.667s0.667 0.298 0.667 0.667v0 5.333c0 0.368-0.298 0.667-0.667 0.667s-0.667-0.298-0.667-0.667v0-5.333zM24.167 27.333c0 0.46-0.373 0.833-0.833 0.833s-0.833-0.373-0.833-0.833v0c0-0.46 0.373-0.833 0.833-0.833s0.833 0.373 0.833 0.833v0z"></path>
</svg>
