<!-- Generated by IcoMoon.io -->
<svg version="1.1" xmlns="http://www.w3.org/2000/svg" width="32" height="32" viewBox="0 0 32 32">
<title>calendar-week-numbers-filled</title>
<path d="M23.667 4c2.393 0 4.333 1.94 4.333 4.333v15.333c0 2.393-1.94 4.333-4.333 4.333h-15.333c-2.393 0-4.333-1.94-4.333-4.333v-15.333c0-2.393 1.94-4.333 4.333-4.333h15.333zM11.324 10.198c-0.066-0.488-0.485-0.864-0.991-0.864-0.552 0-1 0.448-1 1v1.333l0.009 0.136c0.066 0.488 0.485 0.864 0.991 0.864 0.552 0 1-0.448 1-1v-1.333l-0.009-0.136zM11.324 20.198c-0.066-0.488-0.485-0.864-0.991-0.864-0.552 0-1 0.448-1 1v1.333l0.009 0.136c0.066 0.488 0.485 0.864 0.991 0.864 0.552 0 1-0.448 1-1v-1.333l-0.009-0.136zM10.342 14.231c-0.552 0-1 0.448-1 1l-0.009 1.531 0.009 0.136c0.066 0.488 0.485 0.864 0.991 0.864 0.552 0 1-0.448 1-1l0.009-1.531-0.009-0.136c-0.066-0.488-0.485-0.864-0.991-0.864z"></path>
</svg>
