<!-- Generated by IcoMoon.io -->
<svg version="1.1" xmlns="http://www.w3.org/2000/svg" width="32" height="32" viewBox="0 0 32 32">
<title>calendar-edit-filled</title>
<path d="M15.36 26.1l-0.475 1.897h-6.552c-2.393 0-4.333-1.94-4.333-4.333v0-12.331h23.997v3.348c-0.114-0.011-0.247-0.017-0.382-0.017-1.209 0-2.303 0.491-3.094 1.283l-7.869 7.869c-0.612 0.612-1.063 1.384-1.285 2.249l-0.007 0.034zM27.997 8.333c0-2.393-1.94-4.333-4.333-4.333v0h-15.331c-2.393 0-4.333 1.94-4.333 4.333v0 1h23.997v-1zM25.464 16.892l-7.868 7.868c-0.446 0.446-0.775 1.009-0.937 1.639l-0.005 0.025-0.609 2.44c-0.267 1.063 0.696 2.024 1.757 1.759l2.44-0.611c0.655-0.167 1.218-0.496 1.664-0.941l7.868-7.871c0.531-0.548 0.859-1.296 0.859-2.121 0-1.683-1.365-3.048-3.048-3.048-0.825 0-1.574 0.328-2.123 0.861l0.001-0.001z"></path>
</svg>
