<!-- Generated by IcoMoon.io -->
<svg version="1.1" xmlns="http://www.w3.org/2000/svg" width="32" height="32" viewBox="0 0 32 32">
<title>calendar-mail-filled</title>
<path d="M7.2 3.2c-2.209 0-4 1.791-4 4v0 0.8h19.2v-0.8c0-2.209-1.791-4-4-4v0h-11.2zM22.4 9.6h-19.2v8.8c0 2.209 1.791 4 4 4v0h0.8v-4.8c0-2.651 2.149-4.8 4.8-4.8v0h9.6v-3.2zM9.712 16.76c0.382-1.371 1.619-2.36 3.088-2.36 0 0 0 0 0 0h12.8c0 0 0 0 0 0 1.468 0 2.706 0.989 3.082 2.337l0.005 0.023-9.488 5.578-9.488-5.578zM19.808 23.837l8.992-5.286v7.050c0 1.767-1.433 3.2-3.2 3.2v0h-12.8c-1.767 0-3.2-1.433-3.2-3.2v0-7.048l8.992 5.285c0.174 0.104 0.384 0.165 0.608 0.165s0.434-0.061 0.613-0.168l-0.006 0.003z"></path>
</svg>
