<!-- Generated by IcoMoon.io -->
<svg version="1.1" xmlns="http://www.w3.org/2000/svg" width="32" height="32" viewBox="0 0 32 32">
<title>calendar-today-filled</title>
<path d="M17.667 15.667c0 0.921-0.746 1.667-1.667 1.667s-1.667-0.746-1.667-1.667c0-0.921 0.746-1.667 1.667-1.667s1.667 0.746 1.667 1.667z"></path>
<path d="M28 11.333v12.333c0 2.393-1.94 4.333-4.333 4.333h-5.333c0 0 0-0.642 0-1v-1.097c0.841 0.25 1.789 0.013 2.411-0.687 0.856-0.963 0.769-2.438-0.194-3.294l-3-2.667c-0.884-0.786-2.216-0.786-3.1 0l-3 2.667c-0.963 0.856-1.050 2.331-0.194 3.294 0.622 0.699 1.569 0.937 2.411 0.687v1.097c0 0.358 0 1 0 1h-5.333c-2.393 0-4.333-1.94-4.333-4.333v-12.333h24zM16 18.667c1.657 0 3-1.343 3-3s-1.343-3-3-3c-1.657 0-3 1.343-3 3s1.343 3 3 3z"></path>
<path d="M23.667 4c2.393 0 4.333 1.94 4.333 4.333v1h-24v-1c0-2.393 1.94-4.333 4.333-4.333h15.333z"></path>
<path d="M19.747 24.331c-0.367 0.413-0.999 0.45-1.412 0.083l-1.336-1.187v5.107c0 0.552-0.448 1-1 1s-1-0.448-1-1v-5.107l-1.336 1.187c-0.413 0.367-1.045 0.33-1.412-0.083s-0.33-1.045 0.083-1.412l3-2.667c0.379-0.337 0.95-0.337 1.329 0l3 2.667c0.413 0.367 0.45 0.999 0.083 1.412z"></path>
</svg>
