<!-- Generated by IcoMoon.io -->
<svg version="1.1" xmlns="http://www.w3.org/2000/svg" width="32" height="32" viewBox="0 0 32 32">
<title>calendar-add-filled</title>
<path d="M28.571 16.571v-5.714h-25.143v14c0 2.051 1.663 3.714 3.714 3.714v0h9.429c-1.070-1.415-1.714-3.204-1.714-5.143 0-4.734 3.838-8.571 8.571-8.571 1.939 0 3.728 0.644 5.164 1.73l-0.022-0.016zM28.571 7.143c0-2.051-1.663-3.714-3.714-3.714v0h-17.714c-2.051 0-3.714 1.663-3.714 3.714v0 2h25.143v-2zM30.857 23.429c0 4.103-3.326 7.429-7.429 7.429s-7.429-3.326-7.429-7.429v0c0-4.103 3.326-7.429 7.429-7.429s7.429 3.326 7.429 7.429v0zM24 18.857c0-0.316-0.256-0.571-0.571-0.571s-0.571 0.256-0.571 0.571v0 4h-4c-0.316 0-0.571 0.256-0.571 0.571s0.256 0.571 0.571 0.571v0h4v4c0 0.316 0.256 0.571 0.571 0.571s0.571-0.256 0.571-0.571v0-4h4c0.316 0 0.571-0.256 0.571-0.571s-0.256-0.571-0.571-0.571v0h-4v-4z"></path>
</svg>
