<!-- Generated by IcoMoon.io -->
<svg version="1.1" xmlns="http://www.w3.org/2000/svg" width="32" height="32" viewBox="0 0 32 32">
<title>calendar-cancel-filled</title>
<path d="M23.333 16c4.050 0 7.333 3.283 7.333 7.333s-3.283 7.333-7.333 7.333v0c-4.050 0-7.333-3.283-7.333-7.333s3.283-7.333 7.333-7.333v0zM20.032 20.032c-0.121 0.121-0.195 0.287-0.195 0.471s0.075 0.351 0.195 0.471l2.359 2.36-2.356 2.355c-0.121 0.121-0.196 0.288-0.196 0.472 0 0.368 0.299 0.667 0.667 0.667 0.184 0 0.351-0.075 0.471-0.195v0l2.356-2.356 2.36 2.359c0.121 0.126 0.291 0.204 0.48 0.204 0.368 0 0.667-0.298 0.667-0.667 0-0.188-0.078-0.358-0.203-0.479l-2.359-2.36 2.361-2.36c0.116-0.12 0.187-0.283 0.187-0.463 0-0.368-0.298-0.667-0.667-0.667-0.18 0-0.343 0.071-0.463 0.187l-2.361 2.36-2.36-2.36c-0.121-0.121-0.287-0.195-0.471-0.195s-0.351 0.075-0.471 0.195v0zM28 11.333l0.001 4.697c-1.322-0.858-2.938-1.368-4.673-1.368-4.786 0-8.667 3.88-8.667 8.667 0 1.735 0.51 3.352 1.388 4.707l-0.021-0.034-7.696-0.003c-2.393 0-4.333-1.94-4.333-4.333v0-12.333h24zM23.667 4c2.393 0 4.333 1.94 4.333 4.333v0 1h-24v-1c0-2.393 1.94-4.333 4.333-4.333v0h15.333z"></path>
</svg>
