<!-- Generated by IcoMoon.io -->
<svg version="1.1" xmlns="http://www.w3.org/2000/svg" width="32" height="32" viewBox="0 0 32 32">
<title>calendar-question-mark-filled</title>
<path d="M28 8.333c0-2.393-1.94-4.333-4.333-4.333v0h-15.333c-2.393 0-4.333 1.94-4.333 4.333v0 1h24v-1zM28 16.029v-4.696h-24v12.333c0 2.393 1.94 4.333 4.333 4.333v0h7.696c-0.856-1.321-1.366-2.936-1.366-4.67 0-4.786 3.88-8.667 8.667-8.667 1.734 0 3.349 0.509 4.703 1.386l-0.034-0.021zM30.667 23.333c0-4.050-3.283-7.333-7.333-7.333s-7.333 3.283-7.333 7.333v0c0 4.050 3.283 7.333 7.333 7.333s7.333-3.283 7.333-7.333v0zM22.5 27.167c0-0.46 0.373-0.833 0.833-0.833s0.833 0.373 0.833 0.833v0c0 0.46-0.373 0.833-0.833 0.833s-0.833-0.373-0.833-0.833v0zM20.863 21.104c-0.015-1.515 1.073-2.605 2.471-2.605 1.375 0 2.471 1.128 2.471 2.6 0 0.679-0.2 1.121-0.704 1.723l-0.179 0.207-0.355 0.387-0.135 0.155-0.113 0.139c-0.24 0.309-0.319 0.516-0.319 0.787 0 0.368-0.298 0.667-0.667 0.667s-0.667-0.298-0.667-0.667v0c0-0.689 0.201-1.137 0.713-1.747l0.181-0.209 0.353-0.387 0.133-0.151 0.124-0.155c0.227-0.293 0.299-0.493 0.299-0.748 0-0.744-0.507-1.267-1.137-1.267-0.659 0-1.145 0.488-1.137 1.26 0 0.002 0 0.004 0 0.007 0 0.368-0.299 0.667-0.667 0.667-0.366 0-0.663-0.295-0.667-0.66v-0z"></path>
</svg>
