<!-- Generated by IcoMoon.io -->
<svg version="1.1" xmlns="http://www.w3.org/2000/svg" width="32" height="32" viewBox="0 0 32 32">
<title>calendar-person-filled</title>
<path d="M28 11.333v3.333c-0.912-1.214-2.364-1.999-4-1.999-2.761 0-5 2.239-5 5 0 1.449 0.616 2.753 1.601 3.667h-1.267c-1.841 0-3.333 1.492-3.333 3.333v0.667c0 0.932 0.227 1.838 0.65 2.667h-8.317c-2.393 0-4.333-1.94-4.333-4.333v-12.333h24z"></path>
<path d="M23.667 4c2.393 0 4.333 1.94 4.333 4.333v1h-24v-1c0-2.393 1.94-4.333 4.333-4.333h15.333z"></path>
<path d="M30.667 24.667c0-1.105-0.895-2-2-2h-9.333c-1.105 0-2 0.895-2 2v0.667c0 2.629 2.479 5.333 6.667 5.333s6.667-2.705 6.667-5.333v-0.667z"></path>
<path d="M27.667 17.667c0-2.025-1.642-3.667-3.667-3.667s-3.667 1.642-3.667 3.667c0 2.025 1.642 3.667 3.667 3.667s3.667-1.642 3.667-3.667z"></path>
</svg>
