<!-- Generated by IcoMoon.io -->
<svg version="1.1" xmlns="http://www.w3.org/2000/svg" width="32" height="32" viewBox="0 0 32 32">
<title>calendar-search-filled</title>
<path d="M27.2 23.2v-12h-22.4v3.949c0.934-0.474 2.035-0.751 3.202-0.751 3.976 0 7.2 3.224 7.2 7.2 0 1.129-0.26 2.198-0.723 3.149l0.019-0.043 2.496 2.496h6.206c2.209 0 4-1.791 4-4v0zM27.2 8.8c0-2.209-1.791-4-4-4v0h-14.4c-2.209 0-4 1.791-4 4v0 0.8h22.4v-0.8zM11.354 26.085c-0.923 0.696-2.089 1.115-3.354 1.115-3.093 0-5.6-2.507-5.6-5.6s2.507-5.6 5.6-5.6c3.093 0 5.6 2.507 5.6 5.6 0 1.264-0.419 2.431-1.126 3.368l0.010-0.014 4.080 4.080c0.145 0.145 0.235 0.345 0.235 0.566 0 0.442-0.358 0.8-0.8 0.8-0.221 0-0.421-0.089-0.566-0.234v0l-4.080-4.080zM12 21.6c0-2.209-1.791-4-4-4s-4 1.791-4 4v0c0 2.209 1.791 4 4 4s4-1.791 4-4v0z"></path>
</svg>
