<!-- Generated by IcoMoon.io -->
<svg version="1.1" xmlns="http://www.w3.org/2000/svg" width="32" height="32" viewBox="0 0 32 32">
<title>calendar-star-filled</title>
<path d="M23.333 16c4.050 0 7.333 3.283 7.333 7.333s-3.283 7.333-7.333 7.333c-4.050 0-7.333-3.283-7.333-7.333s3.283-7.333 7.333-7.333zM28 11.333l0.002 4.697c-1.347-0.863-2.949-1.363-4.668-1.363-4.787 0-8.667 3.88-8.667 8.667 0 1.719 0.5 3.321 1.363 4.668l-7.697-0.002c-2.393 0-4.333-1.94-4.333-4.333v-12.333h24zM22.645 18.727l-0.053 0.131-0.743 2.383h-2.403c-0.71 0-1.029 0.891-0.556 1.381l0.098 0.087 1.944 1.473-0.743 2.383c-0.22 0.706 0.5 1.3 1.095 0.975l0.103-0.067 1.944-1.473 1.944 1.473c0.576 0.437 1.341-0.094 1.227-0.784l-0.029-0.123-0.743-2.383 1.944-1.473c0.574-0.435 0.33-1.352-0.329-1.458l-0.129-0.010h-2.403l-0.743-2.383c-0.219-0.701-1.124-0.745-1.429-0.131zM23.667 4c2.393 0 4.333 1.94 4.333 4.333v1h-24v-1c0-2.393 1.94-4.333 4.333-4.333h15.333z"></path>
</svg>
