<!-- Generated by IcoMoon.io -->
<svg version="1.1" xmlns="http://www.w3.org/2000/svg" width="32" height="32" viewBox="0 0 32 32">
<title>calendar-assistant-filled</title>
<path d="M28 11.333v4.696c-1.347-0.862-2.949-1.362-4.667-1.362-4.787 0-8.667 3.88-8.667 8.667 0 1.718 0.5 3.32 1.362 4.667h-7.696c-2.393 0-4.333-1.94-4.333-4.333v-12.333h24z"></path>
<path d="M23.667 4c2.393 0 4.333 1.94 4.333 4.333v1h-24v-1c0-2.393 1.94-4.333 4.333-4.333h15.333z"></path>
<path d="M23.333 30.667c4.050 0 7.333-3.283 7.333-7.333s-3.283-7.333-7.333-7.333c-4.050 0-7.333 3.283-7.333 7.333s3.283 7.333 7.333 7.333zM22.795 18.667h1.909c0.465 0 0.788 0.465 0.624 0.901l-0.662 1.766h0.846c0.497 0 0.796 0.551 0.525 0.968l-3.5 5.385c-0.127 0.196-0.345 0.314-0.579 0.314-0.471 0-0.804-0.462-0.655-0.909l1.030-3.091h-1.038c-0.465 0-0.788-0.465-0.624-0.901l1.5-4c0.098-0.26 0.346-0.433 0.624-0.433z"></path>
</svg>
