<!-- Generated by IcoMoon.io -->
<svg version="1.1" xmlns="http://www.w3.org/2000/svg" width="32" height="32" viewBox="0 0 32 32">
<title>call-forward-filled</title>
<path d="M11.52 3.136c1.413-0.207 2.955 0.2 4.233 1.158 0.688 0.52 1.128 1.337 1.128 2.257 0 0.159-0.013 0.316-0.039 0.468l0.002-0.016-0.467 2.877c-0.214 1.288-1.203 2.295-2.463 2.536l-0.019 0.003-1.355 0.251c-0.709 0.131-1.262 0.567-1.403 1.17-0.311 1.329-0.306 3.004 0.002 4.322 0.14 0.603 0.693 1.039 1.401 1.17l1.355 0.251c1.279 0.243 2.267 1.25 2.48 2.52l0.003 0.018 0.437 2.693c0.025 0.145 0.039 0.311 0.039 0.481 0 1.025-0.512 1.93-1.295 2.473l-0.010 0.006c-1.255 0.863-2.739 1.255-4.107 1.078-1.378-0.178-2.627-0.933-3.363-2.331-1.213-2.305-2.33-5.66-2.33-10.187 0-4.565 1.135-8.147 2.353-10.677 0.713-1.48 1.993-2.311 3.417-2.52zM22.089 9.244c-0.15-0.145-0.354-0.234-0.579-0.234-0.46 0-0.833 0.373-0.833 0.833 0 0.225 0.089 0.429 0.234 0.579l-0-0 4.244 4.245h-9.321c-0.46 0-0.833 0.373-0.833 0.833s0.373 0.833 0.833 0.833v0h9.321l-4.244 4.244c-0.145 0.15-0.234 0.354-0.234 0.579 0 0.46 0.373 0.833 0.833 0.833 0.225 0 0.429-0.089 0.579-0.234l5.666-5.666c0.151-0.151 0.244-0.359 0.244-0.589s-0.093-0.438-0.244-0.589l-5.667-5.667z"></path>
</svg>
