<!-- Generated by IcoMoon.io -->
<svg version="1.1" xmlns="http://www.w3.org/2000/svg" width="32" height="32" viewBox="0 0 32 32">
<title>call-pause-filled</title>
<path d="M20.667 3.667c0-0.552-0.448-1-1-1s-1 0.448-1 1v0 10c0 0.552 0.448 1 1 1s1-0.448 1-1v0-10zM26 3.667c0-0.552-0.448-1-1-1s-1 0.448-1 1v0 10c0 0.552 0.448 1 1 1s1-0.448 1-1v0-10zM13.635 7.12l-1.147-2.703c-0.576-1.36-2.013-2.053-3.357-1.624l-1.437 0.46c-1.423 0.455-2.513 1.675-2.865 3.205-0.836 3.64 0.167 8.069 3.011 13.291 2.84 5.213 5.952 8.349 9.337 9.404 1.435 0.448 2.984 0.053 4.069-1.036l1.091-1.096c1.017-1.020 1.164-2.683 0.345-3.887l-1.644-2.413c-0.705-1.037-1.957-1.477-3.107-1.093l-3.035 1.011c-1.224-0.941-2.236-2.091-2.997-3.404l-0.030-0.056c-0.809-1.389-1.291-2.801-1.447-4.236l2.525-2.397c0.907-0.861 1.185-2.247 0.685-3.424z"></path>
</svg>
