<!-- Generated by IcoMoon.io -->
<svg version="1.1" xmlns="http://www.w3.org/2000/svg" width="32" height="32" viewBox="0 0 32 32">
<title>call-filled</title>
<path d="M14.73 4.596c-0.52-1.039-1.607-1.88-2.941-1.731-1.194 0.133-2.967 0.577-4.175 2.033-1.241 1.495-1.703 3.827-0.751 7.321 1.017 3.727 2.528 7.402 4.406 10.367 1.864 2.943 4.16 5.299 6.794 6.203 2.329 0.799 4.111 0.465 5.41-0.412 1.253-0.846 1.941-2.119 2.297-3 0.399-0.987 0.136-2.014-0.384-2.771l-1.918-2.789c-0.64-0.921-1.692-1.517-2.884-1.517-0.373 0-0.732 0.058-1.069 0.166l0.025-0.007-2.651 0.829c-0.044 0.015-0.094 0.024-0.147 0.024-0.133 0-0.252-0.057-0.335-0.149l-0-0c-1.18-1.382-2.502-3.309-2.861-5.26-0.003-0.014-0.005-0.030-0.005-0.047 0-0.039 0.010-0.075 0.028-0.107l-0.001 0.001c0.39-0.655 1.061-1.398 1.729-2.048 1.131-1.101 1.56-2.852 0.813-4.344l-1.38-2.76z"></path>
</svg>
