<!-- Generated by IcoMoon.io -->
<svg version="1.1" xmlns="http://www.w3.org/2000/svg" width="32" height="32" viewBox="0 0 32 32">
<title>call-warning-filled</title>
<path d="M20.165 2.486l-5.594 11.197c-0.107 0.209-0.17 0.455-0.17 0.717 0 0.884 0.716 1.6 1.6 1.6 0.001 0 0.001 0 0.002 0h11.194c0 0 0.001 0 0.002 0 0.884 0 1.6-0.716 1.6-1.6 0-0.261-0.063-0.508-0.174-0.726l0.004 0.009-5.6-11.198c-0.268-0.53-0.808-0.886-1.432-0.886s-1.164 0.357-1.428 0.877l-0.004 0.009zM22.397 5.592v4.803c0 0.442-0.358 0.8-0.8 0.8s-0.8-0.358-0.8-0.8v0-4.803c0-0.442 0.358-0.8 0.8-0.8s0.8 0.358 0.8 0.8v0zM21.597 14.4c-0.442 0-0.8-0.358-0.8-0.8s0.358-0.8 0.8-0.8v0c0.442 0 0.8 0.358 0.8 0.8s-0.358 0.8-0.8 0.8v0zM10.456 3.387c-1.664-0.422-3.408-0.243-4.774 0.522-1.392 0.778-2.368 2.155-2.416 4.002-0.074 2.883 0.594 6.752 3.243 11.293 2.616 4.485 5.504 7.171 7.901 8.77 1.514 1.010 3.186 1.037 4.614 0.378 1.408-0.648 2.55-1.941 3.144-3.546 0.116-0.303 0.183-0.654 0.183-1.021 0-0.528-0.139-1.023-0.382-1.451l0.008 0.015-1.526-2.725c-0.698-1.229-1.999-2.045-3.49-2.045-0.514 0-1.005 0.097-1.456 0.273l0.027-0.009-1.066 0.406c-0.517 0.198-0.992 0.107-1.261-0.158-0.904-0.888-1.55-2.094-1.843-3.392-0.093-0.41 0.096-0.893 0.547-1.234l0.962-0.726c0.97-0.738 1.591-1.893 1.591-3.193 0-0.732-0.197-1.418-0.54-2.009l0.010 0.019-1.555-2.712c-0.416-0.716-1.094-1.242-1.899-1.451l-0.021-0.005z"></path>
</svg>
