<!-- Generated by IcoMoon.io -->
<svg version="1.1" xmlns="http://www.w3.org/2000/svg" width="32" height="32" viewBox="0 0 32 32">
<title>call-missed-filled</title>
<path d="M28.203 13.449c1.716-2.467 1.277-6.033-1.729-7.327-2.509-1.082-6.070-2.123-10.473-2.123-4.405 0-7.965 1.041-10.474 2.122-3.006 1.295-3.445 4.86-1.729 7.327 0.519 0.739 1.367 1.216 2.327 1.216 0.117 0 0.231-0.007 0.344-0.021l-0.014 0.001 2.111-0.248c1.376-0.166 2.494-1.11 2.914-2.373l0.007-0.025 0.475-1.467c0.153-0.475 0.44-0.74 0.735-0.805 0.851-0.191 2.059-0.295 3.3-0.297 1.243-0.001 2.452 0.101 3.307 0.293 0.295 0.067 0.581 0.333 0.735 0.809l0.475 1.467c0.426 1.287 1.545 2.231 2.904 2.396l0.017 0.002 2.111 0.248c0.099 0.012 0.214 0.019 0.331 0.019 0.959 0 1.808-0.477 2.32-1.206l0.006-0.009zM16.667 19.5c0-0.46-0.373-0.833-0.833-0.833s-0.833 0.373-0.833 0.833v0 3.667c0 0.46 0.373 0.833 0.833 0.833h2.333c0.46 0 0.833-0.373 0.833-0.833s-0.373-0.833-0.833-0.833v0h-1.5v-2.833zM16 29.333c4.051 0 7.333-3.283 7.333-7.333s-3.283-7.333-7.333-7.333c-4.050 0-7.333 3.283-7.333 7.333s3.283 7.333 7.333 7.333zM16 27.667c-3.13 0-5.667-2.537-5.667-5.667s2.537-5.667 5.667-5.667v0c3.13 0 5.667 2.537 5.667 5.667s-2.537 5.667-5.667 5.667v0z"></path>
</svg>
