<!-- Generated by IcoMoon.io -->
<svg version="1.1" xmlns="http://www.w3.org/2000/svg" width="32" height="32" viewBox="0 0 32 32">
<title>calligraphy-pen-checkmark-filled</title>
<path d="M30.4 8.8c0 3.976-3.224 7.2-7.2 7.2s-7.2-3.224-7.2-7.2v0c0-3.976 3.224-7.2 7.2-7.2s7.2 3.224 7.2 7.2v0zM26.966 5.834c-0.145-0.145-0.345-0.235-0.566-0.235s-0.422 0.090-0.566 0.235l-4.234 4.235-1.034-1.035c-0.145-0.145-0.345-0.235-0.566-0.235-0.442 0-0.801 0.359-0.801 0.801 0 0.221 0.090 0.421 0.235 0.566v0l1.6 1.6c0.145 0.145 0.345 0.235 0.566 0.235s0.422-0.090 0.566-0.235l4.8-4.8c0.145-0.145 0.235-0.345 0.235-0.566s-0.090-0.422-0.235-0.566l-0-0zM23.2 17.6c0.179 0 0.358-0.005 0.536-0.016-0.094 0.262-0.201 0.487-0.327 0.698l0.010-0.018-5.541 9.451c-0.248 0.418-0.62 0.741-1.064 0.923l-0.015 0.005v-11.258c0.482-0.282 0.8-0.797 0.8-1.386 0-0.168-0.026-0.33-0.074-0.482l0.003 0.011c1.516 1.287 3.495 2.070 5.657 2.070 0.005 0 0.009 0 0.014 0h-0.001zM14.4 8.8c0 2.16 0.778 4.139 2.070 5.67-0.141-0.045-0.303-0.071-0.471-0.071-0.884 0-1.6 0.716-1.6 1.6 0 0.589 0.319 1.105 0.793 1.382l0.008 0.004v11.27c-0.473-0.184-0.856-0.513-1.105-0.931l-0.006-0.010-5.541-9.451c-0.345-0.579-0.549-1.277-0.549-2.022 0-0.623 0.142-1.212 0.396-1.738l-0.010 0.024 2.334-4.928h-0.32c-1.325 0-2.4-1.075-2.4-2.4v0-3.2c0-0.442 0.358-0.8 0.8-0.8s0.8 0.358 0.8 0.8v0 3.2c0 0.442 0.358 0.8 0.8 0.8v0h4.035c-0.022 0.237-0.035 0.513-0.035 0.791 0 0.003 0 0.006 0 0.009v-0z"></path>
</svg>
