<!-- Generated by IcoMoon.io -->
<svg version="1.1" xmlns="http://www.w3.org/2000/svg" width="32" height="32" viewBox="0 0 32 32">
<title>call-pause-filled</title>
<path d="M20.666 3.667c0-0.552-0.448-1-1-1s-1 0.448-1 1v10c0 0.552 0.448 1 1 1s1-0.448 1-1v-10zM25.999 3.667c0-0.552-0.448-1-1-1s-1 0.448-1 1v10c0 0.552 0.448 1 1 1s1-0.448 1-1v-10zM13.635 7.12l-1.146-2.703c-0.576-1.358-2.013-2.053-3.358-1.623l-1.435 0.459c-1.423 0.455-2.513 1.674-2.865 3.205-0.837 3.639 0.167 8.069 3.011 13.29 2.84 5.214 5.952 8.349 9.337 9.405 1.434 0.447 2.984 0.052 4.069-1.037l1.090-1.095c1.017-1.021 1.165-2.683 0.345-3.888l-1.643-2.414c-0.705-1.036-1.958-1.477-3.107-1.093l-3.034 1.012c-1.211-0.916-2.22-2.069-3.028-3.459s-1.29-2.802-1.446-4.236l2.526-2.397c0.908-0.861 1.185-2.247 0.685-3.425z"></path>
</svg>
