<!-- Generated by IcoMoon.io -->
<svg version="1.1" xmlns="http://www.w3.org/2000/svg" width="32" height="32" viewBox="0 0 32 32">
<title>call-add-filled</title>
<path d="M12.489 4.416l1.147 2.703c0.499 1.177 0.221 2.563-0.685 3.424l-2.527 2.397c0.156 1.435 0.639 2.847 1.447 4.237 0.791 1.368 1.802 2.518 2.999 3.439l0.027 0.020 3.035-1.012c1.151-0.383 2.403 0.057 3.107 1.093l1.644 2.413c0.82 1.205 0.672 2.867-0.345 3.889l-1.089 1.093c-1.085 1.091-2.636 1.485-4.069 1.039-3.387-1.056-6.497-4.192-9.337-9.405-2.844-5.221-3.848-9.652-3.011-13.291 0.352-1.531 1.441-2.751 2.865-3.205l1.435-0.459c1.345-0.429 2.783 0.265 3.359 1.624zM22.864 2.669l0.136-0.008c0.504 0 0.921 0.373 0.99 0.859l0.001 0.005 0.009 0.136v4.339h4.336c0.505 0 0.922 0.374 0.99 0.86l0.001 0.005 0.009 0.136c-0 0.504-0.373 0.921-0.859 0.99l-0.005 0.001-0.136 0.009h-4.336v4.331c-0 0.504-0.373 0.921-0.859 0.99l-0.005 0.001-0.136 0.009c-0.504-0-0.921-0.373-0.99-0.859l-0.001-0.005-0.009-0.136v-4.332h-4.336c-0 0-0 0-0 0-0.504 0-0.921-0.373-0.99-0.857l-0.001-0.005-0.009-0.136c0-0.505 0.374-0.922 0.86-0.99l0.005-0.001 0.135-0.011h4.336v-4.34c0-0.504 0.373-0.921 0.859-0.99l0.005-0.001z"></path>
</svg>
