<!-- Generated by IcoMoon.io -->
<svg version="1.1" xmlns="http://www.w3.org/2000/svg" width="32" height="32" viewBox="0 0 32 32">
<title>call-outbound-filled</title>
<path d="M9.34 2.5c-3.288 0-6.421 2.253-6.313 5.824 0.090 3.003 0.805 7.022 3.252 11.259 2.041 3.507 4.737 6.414 7.943 8.635l0.088 0.058c2.996 2.049 6.671 0.625 8.429-2.252 0.317-0.511 0.505-1.132 0.505-1.796 0-0.837-0.299-1.605-0.795-2.201l0.005 0.006-1.61-1.945c-0.647-0.777-1.614-1.269-2.696-1.269-0.432 0-0.847 0.078-1.229 0.222l0.024-0.008-1.972 0.723c-0.564 0.207-1.078 0.099-1.38-0.213-1.24-1.277-2.769-3.483-3.44-5.116-0.153-0.373-0.013-0.882 0.528-1.269l1.845-1.318c0.892-0.643 1.466-1.678 1.466-2.848 0-0.414-0.072-0.812-0.204-1.18l0.008 0.024-1.048-2.993c-0.492-1.376-1.785-2.343-3.303-2.343h-0.102zM17.577 14.423c-0.151-0.151-0.244-0.359-0.244-0.589s0.093-0.439 0.244-0.589l8.911-8.911h-6.988c-0.46 0-0.833-0.373-0.833-0.833s0.373-0.833 0.833-0.833v0h9c0.46 0 0.833 0.373 0.833 0.833v9c0 0.46-0.373 0.833-0.833 0.833s-0.833-0.373-0.833-0.833v0-6.988l-8.911 8.911c-0.151 0.151-0.359 0.244-0.589 0.244s-0.439-0.093-0.589-0.244v0z"></path>
</svg>
