<!-- Generated by IcoMoon.io -->
<svg version="1.1" xmlns="http://www.w3.org/2000/svg" width="32" height="32" viewBox="0 0 32 32">
<title>calligraphy-pen-error-filled</title>
<path d="M30.4 8.8c0 3.976-3.224 7.2-7.2 7.2s-7.2-3.224-7.2-7.2v0c0-3.976 3.224-7.2 7.2-7.2s7.2 3.224 7.2 7.2v0zM23.2 4.8c-0.442 0-0.8 0.358-0.8 0.8v0 3.2c0 0.442 0.358 0.8 0.8 0.8s0.8-0.358 0.8-0.8v0-3.2c0-0.442-0.358-0.8-0.8-0.8v0zM23.2 13c0.552 0 1-0.448 1-1s-0.448-1-1-1v0c-0.552 0-1 0.448-1 1s0.448 1 1 1v0zM23.2 17.6c0.186 0 0.37-0.006 0.552-0.016-0.094 0.262-0.201 0.487-0.327 0.698l0.010-0.018-5.541 9.451c-0.253 0.432-0.642 0.757-1.094 0.934v-11.264c0.482-0.282 0.8-0.797 0.8-1.386 0-0.168-0.026-0.33-0.074-0.482l0.003 0.011c1.516 1.287 3.495 2.070 5.657 2.070 0.005 0 0.009 0 0.014 0h-0.001zM14.4 8.8c0 2.16 0.778 4.139 2.070 5.67-0.141-0.045-0.303-0.071-0.471-0.071-0.884 0-1.6 0.716-1.6 1.6 0 0.589 0.319 1.105 0.793 1.382l0.008 0.004v11.264c-0.466-0.186-0.843-0.511-1.089-0.924l-0.006-0.010-5.541-9.451c-0.345-0.579-0.549-1.277-0.549-2.022 0-0.623 0.142-1.212 0.396-1.738l-0.010 0.024 1.971-4.16c-1.352-0.214-2.373-1.372-2.373-2.767 0-0 0-0.001 0-0.001v0-3.2c0-0.663 0.537-1.2 1.2-1.2s1.2 0.537 1.2 1.2v0 3.2c0 0.221 0.179 0.4 0.4 0.4h3.635c-0.022 0.237-0.035 0.513-0.035 0.791 0 0.003 0 0.006 0 0.009v-0z"></path>
</svg>
