<!-- Generated by IcoMoon.io -->
<svg version="1.1" xmlns="http://www.w3.org/2000/svg" width="32" height="32" viewBox="0 0 32 32">
<title>call-park-filled</title>
<path d="M3.027 8.324c-0.109-3.571 3.025-5.824 6.313-5.824h0.101c1.519 0 2.811 0.967 3.296 2.32l0.008 0.024 1.048 2.993c0.124 0.344 0.196 0.742 0.196 1.156 0 1.17-0.574 2.205-1.455 2.841l-0.010 0.007-1.845 1.318c-0.541 0.387-0.681 0.895-0.528 1.269 0.671 1.633 2.2 3.839 3.44 5.117 0.302 0.312 0.816 0.419 1.38 0.213l1.972-0.723c0.358-0.136 0.772-0.214 1.205-0.214 1.082 0 2.050 0.491 2.692 1.263l0.005 0.006 1.61 1.945c0.492 0.591 0.791 1.359 0.791 2.196 0 0.664-0.188 1.285-0.514 1.811l0.009-0.015c-1.758 2.877-5.433 4.301-8.429 2.251-3.295-2.279-5.99-5.186-7.963-8.566l-0.068-0.127c-2.447-4.237-3.162-8.256-3.253-11.26zM19.5 2.667c-0.46 0-0.833 0.373-0.833 0.833v11.667c0 0.46 0.373 0.833 0.833 0.833s0.833-0.373 0.833-0.833v0-4.167h3.5c2.301 0 4.167-1.865 4.167-4.167s-1.865-4.167-4.167-4.167v0h-4.333zM23.833 9.333h-3.5v-5h3.5c1.381 0 2.5 1.119 2.5 2.5s-1.119 2.5-2.5 2.5v0z"></path>
</svg>
