<!-- Generated by IcoMoon.io -->
<svg version="1.1" xmlns="http://www.w3.org/2000/svg" width="32" height="32" viewBox="0 0 32 32">
<title>call-filled</title>
<path d="M10.362 3.252l1.435-0.459c1.345-0.43 2.782 0.265 3.358 1.623l1.146 2.703c0.499 1.178 0.222 2.563-0.685 3.425l-2.526 2.397c0.156 1.434 0.638 2.846 1.446 4.236s1.818 2.543 3.028 3.459l3.034-1.012c1.15-0.383 2.402 0.057 3.107 1.093l1.643 2.414c0.82 1.205 0.672 2.866-0.345 3.888l-1.090 1.095c-1.085 1.089-2.635 1.485-4.069 1.037-3.385-1.056-6.498-4.191-9.337-9.405-2.844-5.222-3.847-9.652-3.011-13.29 0.352-1.531 1.442-2.75 2.865-3.205z"></path>
</svg>
