<!-- Generated by IcoMoon.io -->
<svg version="1.1" xmlns="http://www.w3.org/2000/svg" width="32" height="32" viewBox="0 0 32 32">
<title>call-transfer-filled</title>
<path d="M5.682 3.907c1.366-0.765 3.109-0.944 4.774-0.522 0.811 0.205 1.504 0.731 1.92 1.456l1.555 2.712c0.334 0.571 0.53 1.258 0.53 1.991 0 1.3-0.62 2.456-1.581 3.186l-0.010 0.007-0.962 0.725c-0.453 0.341-0.64 0.824-0.547 1.232 0.293 1.301 0.939 2.506 1.843 3.395 0.27 0.264 0.744 0.355 1.261 0.158l1.066-0.408c0.424-0.167 0.915-0.264 1.428-0.264 1.491 0 2.792 0.816 3.48 2.026l0.010 0.020 1.526 2.723c0.421 0.752 0.49 1.65 0.192 2.458-0.594 1.605-1.738 2.899-3.144 3.547-1.429 0.658-3.101 0.63-4.614-0.379-2.397-1.597-5.285-4.285-7.901-8.768-2.65-4.544-3.317-8.411-3.242-11.294 0.048-1.845 1.024-3.224 2.414-4.002zM19.2 13.598c0 0.442-0.358 0.8-0.8 0.8s-0.8-0.358-0.8-0.8v0c0-0.442 0.358-0.8 0.8-0.8s0.8 0.358 0.8 0.8v0zM20 12.798c0.442 0 0.8-0.358 0.8-0.8s-0.358-0.8-0.8-0.8v0c-0.442 0-0.8 0.358-0.8 0.8s0.358 0.8 0.8 0.8v0zM22.4 10.4c0 0.442-0.358 0.8-0.8 0.8s-0.8-0.358-0.8-0.8v0c0-0.442 0.358-0.8 0.8-0.8s0.8 0.358 0.8 0.8v0zM27.2 12c0 0.442 0.358 0.8 0.8 0.8s0.8-0.358 0.8-0.8v0-8c0-0.442-0.358-0.8-0.8-0.8v0h-8c-0.442 0-0.8 0.358-0.8 0.8s0.358 0.8 0.8 0.8v0h6.069l-3.435 3.435c-0.145 0.145-0.234 0.345-0.234 0.566 0 0.442 0.358 0.8 0.8 0.8 0.221 0 0.421-0.090 0.566-0.235l3.434-3.437v6.070z"></path>
</svg>
