<!-- Generated by IcoMoon.io -->
<svg version="1.1" xmlns="http://www.w3.org/2000/svg" width="32" height="32" viewBox="0 0 32 32">
<title>call-missed-filled</title>
<path d="M27.912 7.547c-2.613-2.307-6.695-3.457-12.246-3.45-5.543 0.007-9.502 1.164-11.876 3.471-1.006 0.977-1.372 2.425-0.962 3.801l0.412 1.382c0.385 1.29 1.683 2.151 3.036 2.015l2.713-0.273c1.164-0.117 2.084-0.948 2.281-2.062l0.521-2.94c1.291-0.585 2.687-0.9 4.187-0.943s2.874 0.19 4.12 0.701l0.842 3.14c0.303 1.129 1.316 1.973 2.505 2.088l2.729 0.264c1.371 0.133 2.581-0.737 2.828-2.032l0.263-1.382c0.261-1.37-0.254-2.808-1.353-3.779z"></path>
<path d="M15.666 18.667c0.552 0 1 0.448 1 1v2.333h1.333c0.552 0 1 0.448 1 1s-0.448 1-1 1h-2.333c-0.552 0-1-0.448-1-1v-3.333c0-0.552 0.448-1 1-1z"></path>
<path d="M16 14.667c-4.050 0-7.333 3.283-7.333 7.333s3.283 7.333 7.333 7.333c4.050 0 7.333-3.283 7.333-7.333s-3.283-7.333-7.333-7.333zM10.666 22.001c0-2.946 2.388-5.333 5.333-5.333s5.333 2.388 5.333 5.333c0 2.945-2.388 5.333-5.333 5.333s-5.333-2.388-5.333-5.333z"></path>
</svg>
