<!-- Generated by IcoMoon.io -->
<svg version="1.1" xmlns="http://www.w3.org/2000/svg" width="32" height="32" viewBox="0 0 32 32">
<title>call-exclamation-filled</title>
<path d="M28.483 12.432l0.251-1.328c0.251-1.315-0.232-2.717-1.288-3.648-2.509-2.214-6.128-3.456-11.459-3.45-5.322 0.006-9.424 1.254-11.706 3.469-0.67 0.656-1.085 1.569-1.085 2.579 0 0.381 0.059 0.749 0.169 1.094l-0.007-0.026 0.397 1.328c0.364 1.137 1.412 1.946 2.649 1.946 0.094 0 0.186-0.005 0.278-0.014l-0.012 0.001 2.605-0.261c1.118-0.112 1.608-1.051 1.925-2.123 0.474-1.606 0.8-2.8 0.8-2.8 1.219-0.456 2.378-0.8 4-0.8s2.803 0.31 4 0.8c0 0 0.314 1.192 0.8 2.8 0.358 1.184 1.205 2.018 2.347 2.128l2.619 0.253c1.317 0.128 2.48-0.707 2.717-1.95zM23.2 21.6c0 3.976-3.224 7.2-7.2 7.2s-7.2-3.224-7.2-7.2v0c0-3.976 3.224-7.2 7.2-7.2s7.2 3.224 7.2 7.2v0zM16 17.6c-0.442 0-0.8 0.358-0.8 0.8v0 3.2c0 0.442 0.358 0.8 0.8 0.8s0.8-0.358 0.8-0.8v0-3.2c0-0.442-0.358-0.8-0.8-0.8v0zM16 25.8c0.552 0 1-0.448 1-1s-0.448-1-1-1v0c-0.552 0-1 0.448-1 1s0.448 1 1 1v0z"></path>
</svg>
