<!-- Generated by IcoMoon.io -->
<svg version="1.1" xmlns="http://www.w3.org/2000/svg" width="32" height="32" viewBox="0 0 32 32">
<title>call-connecting-filled</title>
<path d="M5.682 3.907c1.366-0.765 3.109-0.944 4.774-0.522 0.811 0.205 1.504 0.731 1.92 1.456l1.437 2.506c0.333 0.571 0.53 1.257 0.53 1.989 0 1.414-0.733 2.656-1.84 3.367l-0.016 0.010-1.264 0.803c-0.523 0.331-0.715 0.838-0.595 1.24 0.429 1.437 1.378 3.030 2.421 4.122 0.31 0.326 0.88 0.403 1.437 0.078l0.699-0.408c0.577-0.342 1.272-0.544 2.014-0.544 1.491 0 2.791 0.816 3.479 2.025l0.010 0.020 1.288 2.296c0.421 0.752 0.49 1.65 0.192 2.458-0.594 1.605-1.738 2.899-3.144 3.547-1.429 0.658-3.101 0.63-4.614-0.379-2.397-1.597-5.285-4.285-7.901-8.768-2.65-4.544-3.317-8.411-3.242-11.294 0.048-1.845 1.024-3.224 2.414-4.002zM20.389 3.299c-0.112-0.063-0.246-0.101-0.389-0.101-0.442 0-0.8 0.358-0.8 0.8 0 0.299 0.164 0.56 0.407 0.697l0.004 0.002 0.614 0.342c3.816 2.149 6.46 5.989 6.923 10.476l0.005 0.058 0.051 0.504c0.024 0.422 0.373 0.755 0.799 0.755 0.442 0 0.8-0.358 0.8-0.8 0-0.041-0.003-0.081-0.009-0.12l0.001 0.004-0.050-0.502c-0.522-5.081-3.479-9.374-7.668-11.737l-0.076-0.039-0.613-0.341zM18.514 7.587c0.142-0.234 0.396-0.388 0.686-0.388 0.152 0 0.294 0.042 0.416 0.116l-0.004-0.002 0.198 0.118c2.566 1.558 4.383 4.13 4.902 7.146l0.009 0.062 0.070 0.427c0.010 0.047 0.015 0.1 0.015 0.155 0 0.442-0.358 0.8-0.8 0.8-0.404 0-0.738-0.299-0.792-0.688l-0-0.004-0.072-0.426c-0.445-2.605-1.982-4.782-4.113-6.079l-0.039-0.022-0.198-0.118c-0.235-0.142-0.389-0.396-0.389-0.686 0-0.152 0.042-0.294 0.116-0.415l-0.002 0.004z"></path>
</svg>
