<!-- Generated by IcoMoon.io -->
<svg version="1.1" xmlns="http://www.w3.org/2000/svg" width="32" height="32" viewBox="0 0 32 32">
<title>call-dismiss-filled</title>
<path d="M29.040 2.96c0.181 0.181 0.292 0.431 0.292 0.707s-0.112 0.526-0.292 0.707v0l-4.293 4.293 4.293 4.293c0.196 0.183 0.318 0.443 0.318 0.732 0 0.552-0.448 1-1 1-0.289 0-0.549-0.122-0.731-0.318l-0.001-0.001-4.293-4.293-4.293 4.293c-0.178 0.166-0.418 0.268-0.682 0.268-0.552 0-1-0.448-1-1 0-0.264 0.102-0.504 0.269-0.682l-0.001 0.001 4.293-4.293-4.293-4.293c-0.196-0.183-0.318-0.443-0.318-0.732 0-0.552 0.448-1 1-1 0.289 0 0.549 0.122 0.731 0.318l0.001 0.001 4.293 4.293 4.293-4.293c0.181-0.181 0.431-0.292 0.707-0.292s0.526 0.112 0.707 0.292v0zM12.491 4.416l1.147 2.704c0.5 1.177 0.223 2.563-0.685 3.424l-2.525 2.397c0.156 1.435 0.637 2.847 1.445 4.236 0.791 1.369 1.803 2.519 3.001 3.44l0.027 0.020 3.035-1.013c1.149-0.383 2.401 0.059 3.107 1.095l1.643 2.413c0.821 1.205 0.673 2.867-0.344 3.888l-1.091 1.095c-1.085 1.089-2.635 1.485-4.069 1.037-3.385-1.056-6.497-4.191-9.337-9.404-2.844-5.221-3.847-9.653-3.011-13.291 0.352-1.531 1.443-2.751 2.867-3.205l1.435-0.459c1.344-0.429 2.781 0.265 3.357 1.623z"></path>
</svg>
