<!-- Generated by IcoMoon.io -->
<svg version="1.1" xmlns="http://www.w3.org/2000/svg" width="32" height="32" viewBox="0 0 32 32">
<title>calligraphy-pen-filled</title>
<path d="M10 3.667c0-0.552-0.448-1-1-1s-1 0.448-1 1v0 4c0 0 0 0 0 0 0 1.191 0.893 2.174 2.046 2.316l0.011 0.001-1.355 3.34c-0.234 0.568-0.37 1.226-0.37 1.917 0 0.828 0.195 1.61 0.542 2.303l-0.014-0.030 5.32 10.6c0.199 0.397 0.484 0.713 0.819 0.924v-12.639c-0.602-0.352-1-0.996-1-1.732 0-1.105 0.895-2 2-2s2 0.895 2 2c0 0.736-0.398 1.38-0.991 1.727l-0.009 0.005v12.64c0.335-0.211 0.62-0.527 0.82-0.923l5.32-10.601c0.641-1.28 0.701-2.849 0.157-4.191l-1.355-3.34c1.164-0.143 2.057-1.126 2.057-2.317 0-0.001 0-0.001 0-0.002v0-4c0-0.552-0.448-1-1-1s-1 0.448-1 1v0 4c0 0.184-0.149 0.333-0.333 0.333v0h-11.333c-0.184 0-0.333-0.149-0.333-0.333v0-4z"></path>
</svg>
