<!-- Generated by IcoMoon.io -->
<svg version="1.1" xmlns="http://www.w3.org/2000/svg" width="32" height="32" viewBox="0 0 32 32">
<title>camera-filled</title>
<path d="M18.566 3.337c1.064 0 2.048 0.563 2.587 1.481l1.086 1.849h2.761c2.393 0 4.333 1.94 4.333 4.333v12.667c0 2.393-1.94 4.333-4.333 4.333h-18c-2.393 0-4.333-1.94-4.333-4.333v-12.667c0-2.393 1.94-4.333 4.333-4.333h2.774l1.166-1.899c0.546-0.889 1.514-1.43 2.557-1.43h5.070zM16 10.666c-3.314 0-6 2.686-6 6s2.686 6 6 6c3.314 0 6-2.686 6-6s-2.686-6-6-6zM16 12.666c2.209 0 4 1.791 4 4s-1.791 4-4 4-4-1.791-4-4c0-2.209 1.791-4 4-4z"></path>
</svg>
