<!-- Generated by IcoMoon.io -->
<svg version="1.1" xmlns="http://www.w3.org/2000/svg" width="32" height="32" viewBox="0 0 32 32">
<title>camera-dome-filled</title>
<path d="M2.667 5c0-1.289 1.045-2.333 2.333-2.333h22c1.289 0 2.333 1.045 2.333 2.333s-1.045 2.333-2.333 2.333h-22c-1.289 0-2.333-1.045-2.333-2.333zM16 23.333c2.945 0 5.333-2.388 5.333-5.333s-2.388-5.333-5.333-5.333c-2.946 0-5.333 2.388-5.333 5.333s2.388 5.333 5.333 5.333zM19.333 18c0 1.841-1.492 3.333-3.333 3.333s-3.333-1.492-3.333-3.333c0-1.841 1.492-3.333 3.333-3.333s3.333 1.492 3.333 3.333zM4 9.333h24v8c0 6.627-5.373 12-12 12s-12-5.373-12-12v-8zM16 25.333c4.050 0 7.333-3.283 7.333-7.333s-3.283-7.333-7.333-7.333c-4.050 0-7.333 3.283-7.333 7.333s3.283 7.333 7.333 7.333z"></path>
</svg>
