<!-- Generated by IcoMoon.io -->
<svg version="1.1" xmlns="http://www.w3.org/2000/svg" width="32" height="32" viewBox="0 0 32 32">
<title>camera-add-filled</title>
<path d="M23.333 16c4.050 0 7.333 3.283 7.333 7.333s-3.283 7.333-7.333 7.333-7.333-3.283-7.333-7.333c0-4.050 3.283-7.333 7.333-7.333zM23.333 18.665l-0.12 0.011c-0.272 0.049-0.487 0.264-0.536 0.536l-0.011 0.12-0.001 3.333-3.336 0.001-0.12 0.011c-0.272 0.049-0.487 0.264-0.536 0.536l-0.011 0.12 0.011 0.12c0.049 0.272 0.264 0.487 0.536 0.536l0.12 0.011 3.337-0.001 0.001 3.339 0.011 0.12c0.049 0.272 0.264 0.487 0.536 0.536l0.12 0.011 0.12-0.011c0.272-0.049 0.487-0.264 0.536-0.536l0.011-0.12-0.001-3.339 3.339 0.001 0.12-0.011c0.272-0.049 0.487-0.264 0.536-0.536l0.011-0.12-0.011-0.12c-0.049-0.272-0.264-0.487-0.536-0.536l-0.12-0.011-3.34-0.001 0.001-3.333-0.011-0.12c-0.049-0.272-0.264-0.487-0.536-0.536l-0.12-0.011zM18.566 3.337c1.064 0 2.048 0.563 2.587 1.481l1.086 1.849h2.761c2.393 0 4.333 1.94 4.333 4.333l0.001 6.080c-1.557-1.495-3.672-2.414-6.001-2.414-0.555 0-1.098 0.052-1.624 0.152-0.779-2.409-3.041-4.152-5.71-4.152-3.314 0-6 2.686-6 6 0 2.869 2.013 5.267 4.704 5.86-0.025 0.266-0.037 0.535-0.037 0.807 0 1.718 0.5 3.32 1.363 4.667l-9.029-0c-2.393 0-4.333-1.94-4.333-4.333v-12.667c0-2.393 1.94-4.333 4.333-4.333h2.774l1.166-1.899c0.546-0.889 1.514-1.43 2.557-1.43h5.070zM16 12.666c1.773 0 3.276 1.153 3.801 2.75-2.197 0.982-3.909 2.85-4.683 5.15-1.785-0.4-3.118-1.994-3.118-3.9 0-2.209 1.791-4 4-4z"></path>
</svg>
