<!-- Generated by IcoMoon.io -->
<svg version="1.1" xmlns="http://www.w3.org/2000/svg" width="32" height="32" viewBox="0 0 32 32">
<title>camera-off-filled</title>
<path d="M2.96 2.96c0.181-0.181 0.431-0.292 0.707-0.292s0.526 0.112 0.707 0.292v0l24.667 24.667c0.166 0.178 0.268 0.418 0.268 0.682 0 0.552-0.448 1-1 1-0.264 0-0.504-0.102-0.682-0.269l0.001 0.001-1.261-1.26c-0.407 0.139-0.875 0.22-1.362 0.22-0.001 0-0.002 0-0.003 0h-18c-2.393 0-4.333-1.94-4.333-4.333v0-12.667c0-1.871 1.187-3.465 2.847-4.072l-2.553-2.555c-0.181-0.181-0.292-0.431-0.292-0.707s0.112-0.526 0.292-0.707v0zM18.429 19.844c-0.666 0.515-1.513 0.825-2.433 0.825-2.209 0-4-1.791-4-4 0-0.92 0.31-1.767 0.832-2.442l-0.007 0.009-1.421-1.42c-0.874 1.035-1.406 2.385-1.406 3.859 0 3.314 2.686 6 6 6 1.474 0 2.823-0.531 3.868-1.413l-0.009 0.007-1.424-1.424zM21.916 17.673c0.054-0.303 0.085-0.652 0.085-1.008 0-3.314-2.686-6-6-6-0.356 0-0.705 0.031-1.044 0.091l0.036-0.005-4.787-4.787 0.733-1.196c0.537-0.864 1.48-1.43 2.556-1.431h5.071c0 0 0 0 0 0 1.096 0 2.055 0.588 2.579 1.466l0.008 0.014 1.085 1.849h2.761c2.393 0 4.333 1.94 4.333 4.333v0 12.667c0 0.432-0.063 0.849-0.181 1.244l-7.236-7.237z"></path>
</svg>
