<!-- Generated by IcoMoon.io -->
<svg version="1.1" xmlns="http://www.w3.org/2000/svg" width="32" height="32" viewBox="0 0 32 32">
<title>camera-dome-filled</title>
<path d="M2.667 4.833c0-1.197 0.97-2.167 2.167-2.167v0h22.333c1.197 0 2.167 0.97 2.167 2.167s-0.97 2.167-2.167 2.167v0h-22.333c-1.197 0-2.167-0.97-2.167-2.167v0zM16 12.333c-3.13 0-5.667 2.537-5.667 5.667s2.537 5.667 5.667 5.667v0c3.13 0 5.667-2.537 5.667-5.667s-2.537-5.667-5.667-5.667v0zM16 14c2.209 0 4 1.791 4 4s-1.791 4-4 4v0c-2.209 0-4-1.791-4-4s1.791-4 4-4v0zM28 8.667h-24v8.667c0 6.627 5.373 12 12 12s12-5.373 12-12v-8.667zM8.667 18c0-4.050 3.283-7.333 7.333-7.333s7.333 3.283 7.333 7.333-3.283 7.333-7.333 7.333-7.333-3.283-7.333-7.333z"></path>
</svg>
