<!-- Generated by IcoMoon.io -->
<svg version="1.1" xmlns="http://www.w3.org/2000/svg" width="32" height="32" viewBox="0 0 32 32">
<title>camera-off-filled</title>
<path d="M2.96 2.96c0.391-0.391 1.024-0.39 1.414 0l24.666 24.667c0.391 0.391 0.391 1.024 0 1.414s-1.024 0.391-1.414 0l-1.26-1.26c-0.429 0.143-0.889 0.22-1.366 0.22h-18c-2.393 0-4.333-1.94-4.333-4.333v-12.667c0-1.871 1.186-3.465 2.847-4.072l-2.554-2.554c-0.391-0.391-0.39-1.024 0-1.414zM18.43 19.844c-0.674 0.516-1.516 0.822-2.43 0.822-2.209 0-4-1.791-4-4 0-0.914 0.307-1.756 0.822-2.43l-1.422-1.422c-0.874 1.042-1.4 2.386-1.4 3.852 0 3.314 2.686 6 6 6 1.466 0 2.81-0.526 3.852-1.4l-1.422-1.422z"></path>
<path d="M21.916 17.674c0.055-0.327 0.084-0.664 0.084-1.007 0-3.314-2.686-6-6-6-0.343 0-0.679 0.029-1.007 0.084l-4.787-4.788 0.734-1.196c0.546-0.889 1.514-1.43 2.557-1.43h5.070c1.064 0 2.048 0.563 2.587 1.481l1.086 1.849h2.761c2.393 0 4.333 1.94 4.333 4.333v12.667c0 0.432-0.063 0.85-0.181 1.243l-7.236-7.237z"></path>
</svg>
