<!-- Generated by IcoMoon.io -->
<svg version="1.1" xmlns="http://www.w3.org/2000/svg" width="32" height="32" viewBox="0 0 32 32">
<title>camera-sparkles-filled</title>
<path d="M21.139 8.195c0.404 0.406 0.717 0.903 0.905 1.459l0.008 0.027 0.597 1.836c0.101 0.286 0.369 0.487 0.684 0.487s0.583-0.201 0.682-0.482l0.002-0.005 0.597-1.836c0.386-1.134 1.263-2.010 2.371-2.387l0.027-0.008 1.837-0.597c0.283-0.103 0.482-0.37 0.482-0.683s-0.199-0.58-0.477-0.682l-0.005-0.002-0.037-0.009-1.837-0.597c-1.134-0.385-2.011-1.261-2.389-2.368l-0.008-0.027-0.596-1.836c-0.102-0.285-0.37-0.486-0.685-0.486s-0.583 0.201-0.683 0.481l-0.002 0.005-0.612 1.881c-0.261 0.748-0.727 1.369-1.33 1.815l-0.010 0.007h-0.001c-0.288 0.214-0.621 0.393-0.977 0.52l-0.026 0.008-0.8 0.259-1.040 0.332c-0.142 0.055-0.26 0.147-0.345 0.264l-0.002 0.002c-0.084 0.112-0.135 0.253-0.135 0.406 0 0.016 0.001 0.032 0.002 0.048l-0-0.002c0.002 0.147 0.051 0.282 0.133 0.391l-0.001-0.002c0.085 0.12 0.204 0.213 0.342 0.264l0.005 0.002 1.84 0.6c0.582 0.196 1.080 0.509 1.485 0.915v0zM30.689 13.287l1.021 0.331 0.020 0.005c0.158 0.057 0.27 0.206 0.27 0.381 0 0.087-0.028 0.168-0.074 0.234l0.001-0.001c-0.048 0.067-0.115 0.118-0.193 0.146l-0.003 0.001-1.020 0.331c-0.631 0.214-1.118 0.7-1.329 1.316l-0.004 0.015-0.331 1.020c-0.057 0.158-0.205 0.269-0.38 0.269-0.046 0-0.091-0.008-0.132-0.022l0.003 0.001c-0.057-0.013-0.108-0.038-0.15-0.073l0.001 0c-0.073-0.043-0.128-0.107-0.159-0.184l-0.001-0.003-0.123-0.547-0.151-0.463c-0.213-0.632-0.701-1.12-1.317-1.33l-0.015-0.004-1.020-0.332c-0.158-0.057-0.27-0.206-0.27-0.381 0-0.087 0.028-0.168 0.074-0.234l-0.001 0.001c0.048-0.067 0.115-0.118 0.193-0.146l0.003-0.001 1.020-0.331c0.623-0.219 1.102-0.705 1.308-1.317l0.004-0.015 0.332-1.019c0.057-0.158 0.205-0.269 0.38-0.269s0.323 0.111 0.379 0.267l0.001 0.003 0.332 1.019c0.213 0.631 0.7 1.118 1.316 1.328l0.015 0.004zM20 16.667c0-2.209-1.791-4-4-4s-4 1.791-4 4v0c0 2.209 1.791 4 4 4s4-1.791 4-4v0zM29.333 23.667v-5.144c-0.211 0.1-0.459 0.158-0.72 0.158-0.375 0-0.722-0.12-1.005-0.324l0.005 0.003c-0.298-0.214-0.525-0.509-0.649-0.854l-0.004-0.013-0.32-1.013c-0.040-0.12-0.104-0.223-0.187-0.307l0 0c-0.083-0.077-0.18-0.139-0.287-0.184l-0.007-0.002-1.053-0.333c-0.347-0.127-0.634-0.349-0.836-0.635l-0.004-0.005c-0.2-0.273-0.32-0.616-0.32-0.986 0-0.005 0-0.010 0-0.014v0.001c0-0.002 0-0.005 0-0.007 0-0.322 0.089-0.623 0.244-0.88l-0.004 0.008c-0.257 0.135-0.561 0.213-0.883 0.213-0.008 0-0.017-0-0.025-0h0.001c-0.444-0.001-0.855-0.141-1.193-0.378l0.007 0.004c-0.349-0.254-0.613-0.604-0.756-1.012l-0.005-0.015-0.587-1.84c-0.095-0.28-0.227-0.523-0.391-0.74l0.005 0.006-0.2-0.227c-0.262-0.262-0.584-0.463-0.943-0.582l-0.017-0.005-1.867-0.613c-0.406-0.156-0.742-0.418-0.982-0.754l-0.004-0.006c-0.234-0.333-0.373-0.747-0.373-1.193s0.14-0.86 0.378-1.2l-0.004 0.007c0.258-0.344 0.607-0.607 1.011-0.755l0.015-0.005 1.813-0.587 0.088-0.031c-0.213-0.054-0.457-0.085-0.708-0.085h-5.071c-1.076 0-2.019 0.567-2.549 1.418l-0.007 0.013-1.167 1.899h-2.773c-2.393 0-4.333 1.94-4.333 4.333v0 12.667c0 2.393 1.94 4.333 4.333 4.333v0h18c2.393 0 4.333-1.94 4.333-4.333v0zM10 16.667c0-3.314 2.686-6 6-6s6 2.686 6 6v0c0 3.314-2.686 6-6 6s-6-2.686-6-6v0z"></path>
</svg>
