<!-- Generated by IcoMoon.io -->
<svg version="1.1" xmlns="http://www.w3.org/2000/svg" width="32" height="32" viewBox="0 0 32 32">
<title>camera-filled</title>
<path d="M19.373 2.862c0.887 0 1.712 0.457 2.182 1.21l1.738 2.785h2.707c2.051 0 3.714 1.663 3.714 3.714v0 14.286c0 2.051-1.663 3.714-3.714 3.714v0h-20c-2.051 0-3.714-1.663-3.714-3.714v0-14.286c0-2.051 1.663-3.714 3.714-3.714v0h2.936l1.578-2.717c0.454-0.771 1.279-1.28 2.223-1.28h6.634zM16 10.862c-3.471 0-6.286 2.814-6.286 6.286s2.814 6.286 6.286 6.286v0c3.471 0 6.286-2.814 6.286-6.286s-2.814-6.286-6.286-6.286v0zM16 12.576c2.525 0 4.571 2.047 4.571 4.571s-2.047 4.571-4.571 4.571v0c-2.525 0-4.571-2.047-4.571-4.571s2.047-4.571 4.571-4.571v0z"></path>
</svg>
