<!-- Generated by IcoMoon.io -->
<svg version="1.1" xmlns="http://www.w3.org/2000/svg" width="32" height="32" viewBox="0 0 32 32">
<title>cart-filled</title>
<path d="M3.333 5.667c0-0.552 0.448-1 1-1v0h0.744c1.267 0 2.027 0.852 2.46 1.644 0.289 0.528 0.499 1.14 0.663 1.695 0.040-0.003 0.086-0.005 0.133-0.005h16.664c1.107 0 1.907 1.059 1.603 2.124l-2.437 8.545c-0.452 1.549-1.859 2.661-3.525 2.661h-7.931c-0 0-0 0-0 0-1.68 0-3.095-1.129-3.53-2.67l-0.006-0.026-1.013-3.696-1.68-5.664-0.001-0.011c-0.208-0.756-0.403-1.464-0.693-1.992-0.279-0.513-0.503-0.605-0.704-0.605h-0.745c-0.552 0-1-0.448-1-1v0zM12 28c1.473 0 2.667-1.194 2.667-2.667s-1.194-2.667-2.667-2.667v0c-1.473 0-2.667 1.194-2.667 2.667s1.194 2.667 2.667 2.667v0zM21.333 28c1.473 0 2.667-1.194 2.667-2.667s-1.194-2.667-2.667-2.667v0c-1.473 0-2.667 1.194-2.667 2.667s1.194 2.667 2.667 2.667v0z"></path>
</svg>
