<!-- Generated by IcoMoon.io -->
<svg version="1.1" xmlns="http://www.w3.org/2000/svg" width="32" height="32" viewBox="0 0 32 32">
<title>cart-filled</title>
<path d="M3.333 5.667c0-0.552 0.448-1 1-1h0.744c1.267 0 2.026 0.852 2.46 1.644 0.289 0.528 0.498 1.14 0.662 1.695 0.044-0.003 0.089-0.005 0.135-0.005h16.663c1.107 0 1.906 1.059 1.603 2.124l-2.437 8.545c-0.449 1.575-1.888 2.661-3.526 2.661h-7.931c-1.651 0-3.099-1.104-3.536-2.696l-1.014-3.695-1.681-5.675c-0.208-0.757-0.402-1.464-0.692-1.993-0.281-0.513-0.505-0.605-0.706-0.605h-0.744c-0.552 0-1-0.448-1-1z"></path>
<path d="M12 28c1.473 0 2.667-1.194 2.667-2.667s-1.194-2.667-2.667-2.667c-1.473 0-2.667 1.194-2.667 2.667s1.194 2.667 2.667 2.667z"></path>
<path d="M21.333 28c1.473 0 2.667-1.194 2.667-2.667s-1.194-2.667-2.667-2.667c-1.473 0-2.667 1.194-2.667 2.667s1.194 2.667 2.667 2.667z"></path>
</svg>
