<!-- Generated by IcoMoon.io -->
<svg version="1.1" xmlns="http://www.w3.org/2000/svg" width="32" height="32" viewBox="0 0 32 32">
<title>catch-up-filled</title>
<path d="M15.163 9.691c-0.888-2.267-4.101-2.256-4.973 0.017l-1.609 4.199c-0.099 0.252-0.34 0.426-0.621 0.427h-1.876c-0.493-0.612-1.242-1.001-2.082-1.001-1.473 0-2.667 1.194-2.667 2.667s1.194 2.667 2.667 2.667c1.112 0 2.065-0.681 2.465-1.648l0.006-0.018h1.488c0 0 0 0 0 0 1.411 0 2.618-0.877 3.104-2.116l0.008-0.023 1.608-4.199 4.293 10.969c0.851 2.171 3.88 2.283 4.888 0.183l2.129-4.436c0.11-0.225 0.337-0.377 0.6-0.377h0.937c0.407 0.985 1.36 1.666 2.472 1.666 1.473 0 2.667-1.194 2.667-2.667s-1.194-2.667-2.667-2.667c-0.84 0-1.59 0.389-2.078 0.996l-0.004 0.005h-1.325c-0 0-0 0-0 0-1.316 0-2.455 0.763-2.996 1.871l-0.009 0.020-2.129 4.435-4.293-10.969z"></path>
</svg>
