<!-- Generated by IcoMoon.io -->
<svg version="1.1" xmlns="http://www.w3.org/2000/svg" width="32" height="32" viewBox="0 0 32 32">
<title>cellular-warning-filled</title>
<path d="M21.333 12c0.736 0 1.333 0.594 1.333 1.327v1.405c-0.945 0.188-1.818 0.781-2.317 1.779l-0.35 0.701v-3.885c0-0.733 0.597-1.327 1.333-1.327zM25.333 9.332v5.992c0.395 0.296 0.736 0.691 0.983 1.187l1.683 3.369v-10.548c0-0.736-0.597-1.332-1.333-1.332s-1.333 0.596-1.333 1.332zM15.023 27.175l2.311-4.625v-5.216c0-0.736-0.597-1.333-1.333-1.333s-1.333 0.597-1.333 1.333v9.333c0 0.284 0.089 0.548 0.241 0.764 0.035-0.086 0.073-0.171 0.115-0.256zM10.667 20c0.736 0 1.333 0.593 1.333 1.326v5.349c0 0.732-0.597 1.326-1.333 1.326s-1.333-0.593-1.333-1.326v-5.349c0-0.732 0.597-1.326 1.333-1.326zM5.333 24c0.736 0 1.333 0.587 1.333 1.311v1.377c0 0.724-0.597 1.311-1.333 1.311s-1.333-0.587-1.333-1.311v-1.377c0-0.724 0.597-1.311 1.333-1.311zM21.543 17.107l-5.329 10.664c-0.665 1.33 0.303 2.895 1.791 2.895h10.658c1.488 0 2.455-1.565 1.791-2.895l-5.329-10.664c-0.737-1.476-2.844-1.476-3.581 0zM24.001 20.661v4.002c0 0.368-0.299 0.667-0.667 0.667s-0.667-0.299-0.667-0.667v-4.002c0-0.368 0.299-0.667 0.667-0.667s0.667 0.299 0.667 0.667zM23.333 27.998c-0.368 0-0.667-0.299-0.667-0.667s0.299-0.667 0.667-0.667c0.369 0 0.667 0.299 0.667 0.667s-0.299 0.667-0.667 0.667z"></path>
</svg>
