<!-- Generated by IcoMoon.io -->
<svg version="1.1" xmlns="http://www.w3.org/2000/svg" width="32" height="32" viewBox="0 0 32 32">
<title>cellular-3g-filled</title>
<path d="M17.195 4.827l-0.001-0.001-0.001-0.001-0.002-0.003-0.003-0.006-0.008-0.013c-0.006-0.009-0.012-0.019-0.019-0.030-0.015-0.022-0.033-0.049-0.055-0.079-0.044-0.060-0.103-0.133-0.179-0.214-0.153-0.163-0.377-0.357-0.685-0.529-0.634-0.354-1.54-0.567-2.756-0.343-1.456 0.267-2.174 1.293-2.501 2.129-0.162 0.414-0.24 0.803-0.278 1.085-0.020 0.143-0.030 0.263-0.035 0.35-0.003 0.044-0.004 0.080-0.005 0.107l-0.001 0.034-0 0.012-0 0.005v1.67c0 1.841 1.492 3.333 3.333 3.333h0.333c1.841 0 3.333-1.492 3.333-3.333v-0.667c0-0.552-0.448-1-1-1l-0.012 0h-1.655c-0.552 0-1 0.448-1 1s0.448 1 1 1h0.625c-0.148 0.575-0.67 1-1.291 1h-0.333c-0.736 0-1.333-0.597-1.333-1.333v-1.662l0-0.004c0-0.008 0.001-0.023 0.002-0.045 0.003-0.044 0.008-0.112 0.020-0.198 0.024-0.175 0.071-0.402 0.159-0.628 0.173-0.444 0.455-0.789 0.999-0.889 0.797-0.146 1.224 0.013 1.42 0.122 0.107 0.060 0.172 0.12 0.205 0.154 0.010 0.011 0.017 0.019 0.021 0.023 0.289 0.449 0.883 0.594 1.348 0.321 0.476-0.28 0.635-0.893 0.355-1.369zM5.915 6.147c0.041-0.029 0.073-0.057 0.077-0.060l0.022-0.019 0.023-0.021c0.014-0.012 0.033-0.028 0.056-0.047 0.048-0.038 0.118-0.090 0.208-0.14 0.18-0.103 0.418-0.193 0.7-0.193 0.215 0 0.346 0.065 0.432 0.138 0.095 0.081 0.176 0.207 0.217 0.368 0.060 0.235 0.016 0.457-0.074 0.593-0.065 0.099-0.204 0.234-0.574 0.234-0.552 0-1 0.448-1 1s0.448 1 1 1c0.335 0 0.475 0.112 0.542 0.191 0.084 0.1 0.146 0.268 0.132 0.478-0.013 0.198-0.090 0.371-0.197 0.483-0.092 0.097-0.233 0.182-0.477 0.182-0.543 0-0.898-0.32-0.998-0.41l-0.018-0.016c-0.419-0.359-1.051-0.311-1.41 0.108s-0.311 1.051 0.108 1.41c-0.018-0.016 0.237 0.233 0.63 0.456 0.395 0.224 0.972 0.452 1.688 0.452 1.674 0 2.588-1.314 2.67-2.532 0.040-0.608-0.112-1.264-0.52-1.801 0.032-0.043 0.063-0.087 0.093-0.132 0.439-0.665 0.525-1.48 0.344-2.189-0.267-1.049-1.168-2.012-2.587-2.012-1.403 0-2.352 0.928-2.248 0.853-0.449 0.321-0.553 0.946-0.232 1.395s0.946 0.553 1.395 0.232zM28 9.332c0-0.736-0.597-1.332-1.333-1.332s-1.333 0.596-1.333 1.332v17.335c0 0.736 0.597 1.332 1.333 1.332s1.333-0.596 1.333-1.332v-17.335zM22.667 13.327c0-0.733-0.597-1.327-1.333-1.327s-1.333 0.594-1.333 1.327v13.346c0 0.733 0.597 1.327 1.333 1.327s1.333-0.594 1.333-1.327v-13.346zM17.333 17.333c0-0.736-0.597-1.333-1.333-1.333s-1.333 0.597-1.333 1.333v9.333c0 0.736 0.597 1.333 1.333 1.333s1.333-0.597 1.333-1.333v-9.333zM12 21.326c0-0.732-0.597-1.326-1.333-1.326s-1.333 0.593-1.333 1.326v5.349c0 0.732 0.597 1.326 1.333 1.326s1.333-0.593 1.333-1.326v-5.349zM6.667 25.311c0-0.724-0.597-1.311-1.333-1.311s-1.333 0.587-1.333 1.311v1.377c0 0.724 0.597 1.311 1.333 1.311s1.333-0.587 1.333-1.311v-1.377z"></path>
</svg>
