<!-- Generated by IcoMoon.io -->
<svg version="1.1" xmlns="http://www.w3.org/2000/svg" width="32" height="32" viewBox="0 0 32 32">
<title>cellular-data-cellular-off-filled</title>
<path d="M4.374 2.96c-0.391-0.391-1.024-0.391-1.414-0s-0.391 1.024-0 1.414l11.707 11.707v9.252c0 0.736 0.597 1.333 1.333 1.333s1.333-0.597 1.333-1.333v-6.585l2.667 2.667v3.925c0 0.733 0.597 1.327 1.333 1.327s1.333-0.594 1.333-1.327v-1.258l4.959 4.959c0.391 0.391 1.024 0.391 1.414 0s0.391-1.024 0-1.414l-24.666-24.667z"></path>
<path d="M25.333 21.091l2.667 2.667v-15.759c0-0.736-0.597-1.332-1.333-1.332s-1.333 0.596-1.333 1.332v13.092z"></path>
<path d="M20 15.758l2.667 2.667v-6.431c0-0.733-0.597-1.327-1.333-1.327s-1.333 0.594-1.333 1.327v3.764z"></path>
<path d="M10.667 18.667c0.736 0 1.333 0.593 1.333 1.326v5.349c0 0.732-0.597 1.325-1.333 1.325s-1.333-0.593-1.333-1.325v-5.349c0-0.732 0.597-1.326 1.333-1.326z"></path>
<path d="M5.333 22.667c0.736 0 1.333 0.587 1.333 1.311v1.377c0 0.724-0.597 1.311-1.333 1.311s-1.333-0.587-1.333-1.311v-1.377c0-0.724 0.597-1.311 1.333-1.311z"></path>
</svg>
