<!-- Generated by IcoMoon.io -->
<svg version="1.1" xmlns="http://www.w3.org/2000/svg" width="32" height="32" viewBox="0 0 32 32">
<title>cellular-5g-filled</title>
<path d="M17.195 4.827l-0.001-0.001-0.001-0.001-0.002-0.003-0.003-0.006-0.008-0.013c-0.006-0.009-0.012-0.019-0.019-0.030-0.015-0.022-0.033-0.049-0.055-0.079-0.044-0.060-0.103-0.133-0.179-0.214-0.153-0.163-0.377-0.357-0.685-0.529-0.634-0.354-1.54-0.567-2.756-0.343-1.456 0.267-2.174 1.293-2.501 2.129-0.162 0.414-0.24 0.803-0.278 1.085-0.020 0.143-0.030 0.263-0.035 0.35-0.003 0.044-0.004 0.080-0.005 0.107l-0.001 0.034-0 0.012-0 0.005v1.67c0 1.841 1.492 3.333 3.333 3.333h0.333c1.841 0 3.333-1.492 3.333-3.333v-0.667c0-0.552-0.448-1-1-1l-0.012 0h-1.655c-0.552 0-1 0.448-1 1s0.448 1 1 1h0.625c-0.148 0.575-0.67 1-1.291 1h-0.333c-0.736 0-1.333-0.597-1.333-1.333v-1.662l0-0.004c0-0.008 0.001-0.023 0.002-0.045 0.003-0.044 0.008-0.112 0.020-0.198 0.024-0.175 0.071-0.402 0.159-0.628 0.173-0.444 0.455-0.789 0.999-0.889 0.797-0.146 1.224 0.013 1.42 0.122 0.107 0.060 0.172 0.12 0.205 0.154 0.010 0.011 0.017 0.019 0.021 0.023 0.289 0.449 0.883 0.594 1.348 0.321 0.476-0.28 0.635-0.893 0.355-1.369zM5.333 3.667c-0.51 0-0.938 0.383-0.994 0.89l-0.333 3c-0.035 0.314 0.081 0.626 0.312 0.842s0.55 0.309 0.861 0.253l1.343-0.244c0.596-0.108 1.145 0.35 1.145 0.956 0 0.536-0.435 0.971-0.971 0.971h-0.292c-0.334 0-0.647-0.167-0.832-0.445l-0.073-0.109c-0.306-0.46-0.927-0.584-1.387-0.277s-0.584 0.927-0.277 1.387l0.073 0.109c0.556 0.835 1.493 1.336 2.496 1.336h0.292c1.641 0 2.971-1.33 2.971-2.971 0-1.854-1.679-3.255-3.503-2.923l-0.022 0.004 0.086-0.776h2.438c0.552 0 1-0.448 1-1s-0.448-1-1-1h-3.333zM28 9.332c0-0.736-0.597-1.332-1.333-1.332s-1.333 0.596-1.333 1.332v17.335c0 0.736 0.597 1.332 1.333 1.332s1.333-0.596 1.333-1.332v-17.335zM22.667 13.327c0-0.733-0.597-1.327-1.333-1.327s-1.333 0.594-1.333 1.327v13.346c0 0.733 0.597 1.327 1.333 1.327s1.333-0.594 1.333-1.327v-13.346zM17.333 17.333c0-0.736-0.597-1.333-1.333-1.333s-1.333 0.597-1.333 1.333v9.333c0 0.736 0.597 1.333 1.333 1.333s1.333-0.597 1.333-1.333v-9.333zM12 21.326c0-0.732-0.597-1.326-1.333-1.326s-1.333 0.593-1.333 1.326v5.349c0 0.732 0.597 1.326 1.333 1.326s1.333-0.593 1.333-1.326v-5.349zM6.667 25.311c0-0.724-0.597-1.311-1.333-1.311s-1.333 0.587-1.333 1.311v1.377c0 0.724 0.597 1.311 1.333 1.311s1.333-0.587 1.333-1.311v-1.377z"></path>
</svg>
