<!-- Generated by IcoMoon.io -->
<svg version="1.1" xmlns="http://www.w3.org/2000/svg" width="32" height="32" viewBox="0 0 32 32">
<title>cellular-3g-filled</title>
<path d="M17.195 4.827v-0.003l-0.003-0.003-0.003-0.005-0.008-0.013c-0.026-0.042-0.051-0.077-0.077-0.111l0.002 0.003c-0.059-0.080-0.117-0.15-0.18-0.216l0.001 0.001c-0.196-0.206-0.422-0.382-0.671-0.522l-0.014-0.007c-0.635-0.355-1.54-0.567-2.757-0.344-1.455 0.267-2.173 1.293-2.5 2.129-0.181 0.455-0.296 0.982-0.318 1.533l-0 0.009v1.721c0 1.841 1.492 3.333 3.333 3.333v0h0.333c1.841 0 3.333-1.492 3.333-3.333v0-0.667c0-0.552-0.448-1-1-1v0h-1.667c-0.552 0-1 0.448-1 1s0.448 1 1 1v0h0.625c-0.153 0.58-0.673 1-1.291 1-0 0-0.001 0-0.001 0h-0.333c-0.736 0-1.333-0.597-1.333-1.333v0-1.665l0.003-0.045c0.019-0.302 0.083-0.583 0.185-0.846l-0.007 0.019c0.173-0.443 0.455-0.788 1-0.888 0.796-0.147 1.223 0.013 1.419 0.121 0.088 0.048 0.163 0.108 0.226 0.178l0.001 0.001c0.181 0.275 0.489 0.454 0.838 0.454 0.552 0 1-0.448 1-1 0-0.185-0.050-0.358-0.138-0.507l0.003 0.005zM5.915 6.147c0.029-0.021 0.053-0.040 0.077-0.061l-0.001 0.001 0.023-0.019 0.023-0.021c0.077-0.069 0.164-0.131 0.257-0.183l0.007-0.004c0.18-0.104 0.417-0.193 0.7-0.193 0.215 0 0.347 0.065 0.432 0.139 0.106 0.095 0.183 0.221 0.216 0.363l0.001 0.005c0.018 0.062 0.029 0.134 0.029 0.208 0 0.141-0.038 0.274-0.106 0.387l0.002-0.004c-0.067 0.099-0.204 0.235-0.573 0.235-0.552 0-1 0.448-1 1s0.448 1 1 1v0c0.333 0 0.475 0.112 0.54 0.191 0.085 0.1 0.147 0.267 0.133 0.477-0.009 0.187-0.083 0.355-0.198 0.485l0.001-0.001c-0.092 0.097-0.232 0.181-0.477 0.181-0.543 0-0.897-0.32-0.997-0.409l-0.019-0.016c-0.177-0.163-0.415-0.262-0.675-0.262-0.552 0-1 0.448-1 1 0 0.314 0.145 0.595 0.372 0.778l0.002 0.002c-0.019-0.015 0.237 0.233 0.629 0.456 0.395 0.224 0.972 0.452 1.688 0.452 1.675 0 2.588-1.315 2.669-2.533 0.005-0.060 0.008-0.131 0.008-0.202 0-0.602-0.198-1.158-0.533-1.606l0.005 0.007c0.329-0.449 0.527-1.012 0.527-1.622 0-0.248-0.033-0.489-0.094-0.718l0.004 0.019c-0.267-1.049-1.168-2.013-2.587-2.013-1.403 0-2.352 0.928-2.248 0.853-0.266 0.182-0.438 0.485-0.438 0.827 0 0.552 0.448 1 1 1 0.226 0 0.435-0.075 0.603-0.202l-0.003 0.002zM28 9.333c0-0.736-0.597-1.333-1.333-1.333s-1.333 0.597-1.333 1.333v0 17.333c0 0.736 0.597 1.333 1.333 1.333s1.333-0.597 1.333-1.333v0-17.333zM22.667 13.327c-0.002-0.733-0.597-1.327-1.331-1.327-0.001 0-0.002 0-0.003 0h0c-0.736 0-1.333 0.595-1.333 1.327v13.347c0 0.733 0.597 1.327 1.333 1.327s1.333-0.595 1.333-1.327v-13.347zM17.333 17.333c0-0.736-0.597-1.333-1.333-1.333s-1.333 0.597-1.333 1.333v0 9.333c0 0.736 0.597 1.333 1.333 1.333s1.333-0.597 1.333-1.333v0-9.333zM12 21.325c-0.002-0.732-0.597-1.325-1.329-1.325-0.001 0-0.003 0-0.004 0h0c-0.736 0-1.333 0.593-1.333 1.325v5.349c0 0.732 0.597 1.325 1.333 1.325s1.333-0.593 1.333-1.325v-5.349zM6.667 25.312c-0.006-0.726-0.596-1.312-1.323-1.312-0.004 0-0.008 0-0.011 0h0.001c-0.736 0-1.333 0.587-1.333 1.312v1.376c0 0.725 0.597 1.312 1.333 1.312s1.333-0.587 1.333-1.312v-1.376z"></path>
</svg>
