<!-- Generated by IcoMoon.io -->
<svg version="1.1" xmlns="http://www.w3.org/2000/svg" width="32" height="32" viewBox="0 0 32 32">
<title>cellular-data-3-filled</title>
<path d="M16 14.667c0.736 0 1.333 0.597 1.333 1.333v9.333c0 0.736-0.597 1.333-1.333 1.333s-1.333-0.597-1.333-1.333v-9.333c0-0.736 0.597-1.333 1.333-1.333zM10.667 18.667c0.736 0 1.333 0.593 1.333 1.326v5.349c0 0.732-0.597 1.326-1.333 1.326s-1.333-0.593-1.333-1.326v-5.349c0-0.732 0.597-1.326 1.333-1.326zM5.333 22.667c0.736 0 1.333 0.587 1.333 1.311v1.377c0 0.724-0.597 1.311-1.333 1.311s-1.333-0.587-1.333-1.311v-1.377c0-0.724 0.597-1.311 1.333-1.311z"></path>
</svg>
