<!-- Generated by IcoMoon.io -->
<svg version="1.1" xmlns="http://www.w3.org/2000/svg" width="32" height="32" viewBox="0 0 32 32">
<title>cellular-off-filled</title>
<path d="M4.373 2.96c-0.183-0.196-0.443-0.318-0.732-0.318-0.552 0-1 0.448-1 1 0 0.289 0.122 0.549 0.318 0.731l0.001 0.001 11.707 11.707v9.253c0 0.736 0.597 1.333 1.333 1.333s1.333-0.597 1.333-1.333v0-6.587l2.667 2.667v3.927c0 0.733 0.597 1.327 1.333 1.327s1.333-0.595 1.333-1.327v-1.259l4.96 4.96c0.18 0.174 0.424 0.28 0.694 0.28 0.552 0 1-0.448 1-1 0-0.27-0.107-0.515-0.281-0.695l0 0-24.667-24.667zM25.333 21.091l2.667 2.667v-15.757c0-0.736-0.597-1.333-1.333-1.333s-1.333 0.597-1.333 1.333v0 13.093zM20 15.757l2.667 2.667v-6.431c-0.002-0.733-0.597-1.327-1.331-1.327-0.001 0-0.002 0-0.003 0h0c-0.736 0-1.333 0.595-1.333 1.327v3.764zM10.667 18.667c0.736 0 1.333 0.593 1.333 1.325v5.349c-0.002 0.732-0.597 1.325-1.329 1.325-0.001 0-0.003 0-0.004 0h0c-0.736 0-1.333-0.593-1.333-1.325v-5.349c0.002-0.732 0.597-1.325 1.329-1.325 0.001 0 0.003 0 0.004 0h-0zM5.333 22.667c0.736 0 1.333 0.587 1.333 1.312v1.376c-0.006 0.726-0.596 1.312-1.323 1.312-0.004 0-0.008-0-0.011-0h0.001c-0.736 0-1.333-0.587-1.333-1.312v-1.376c0.006-0.726 0.596-1.312 1.323-1.312 0.004 0 0.008 0 0.011 0h-0.001z"></path>
</svg>
