<!-- Generated by IcoMoon.io -->
<svg version="1.1" xmlns="http://www.w3.org/2000/svg" width="32" height="32" viewBox="0 0 32 32">
<title>cellular-5g-filled</title>
<path d="M17.195 4.827v-0.003l-0.003-0.003-0.003-0.005-0.008-0.013c-0.026-0.042-0.051-0.077-0.077-0.111l0.002 0.003c-0.059-0.080-0.117-0.15-0.18-0.216l0.001 0.001c-0.196-0.206-0.422-0.382-0.671-0.522l-0.014-0.007c-0.635-0.355-1.54-0.567-2.757-0.344-1.455 0.267-2.173 1.293-2.5 2.129-0.181 0.455-0.296 0.982-0.318 1.533l-0 0.009v1.721c0 1.841 1.492 3.333 3.333 3.333v0h0.333c1.841 0 3.333-1.492 3.333-3.333v0-0.667c0-0.552-0.448-1-1-1v0h-1.667c-0.552 0-1 0.448-1 1s0.448 1 1 1v0h0.625c-0.153 0.58-0.673 1-1.291 1-0 0-0.001 0-0.001 0h-0.333c-0.736 0-1.333-0.597-1.333-1.333v0-1.665l0.003-0.045c0.019-0.302 0.083-0.583 0.185-0.846l-0.007 0.019c0.173-0.443 0.455-0.788 1-0.888 0.796-0.147 1.223 0.013 1.419 0.121 0.088 0.048 0.163 0.108 0.226 0.178l0.001 0.001c0.181 0.275 0.489 0.454 0.838 0.454 0.552 0 1-0.448 1-1 0-0.185-0.050-0.358-0.138-0.507l0.003 0.005zM5.333 3.667c-0.513 0-0.936 0.387-0.993 0.885l-0 0.005-0.333 3c-0.004 0.033-0.006 0.071-0.006 0.11 0 0.552 0.448 1 1 1 0.063 0 0.125-0.006 0.186-0.017l-0.006 0.001 1.341-0.243c0.051-0.009 0.109-0.015 0.168-0.015 0.536 0 0.971 0.435 0.971 0.971 0 0.534-0.432 0.968-0.965 0.971h-0.291c-0.346-0-0.65-0.175-0.83-0.442l-0.002-0.004-0.073-0.109c-0.183-0.265-0.484-0.436-0.826-0.436-0.552 0-1 0.448-1 1 0 0.203 0.060 0.392 0.164 0.549l-0.002-0.004 0.073 0.109c0.546 0.81 1.459 1.336 2.496 1.336h0.292c1.637-0.004 2.963-1.333 2.963-2.971 0-1.641-1.33-2.971-2.971-2.971-0.185 0-0.367 0.017-0.543 0.049l0.018-0.003-0.021 0.004 0.085-0.776h2.44c0.552 0 1-0.448 1-1s-0.448-1-1-1v0h-3.335zM28 9.333c0-0.736-0.597-1.333-1.333-1.333s-1.333 0.597-1.333 1.333v0 17.333c0 0.736 0.597 1.333 1.333 1.333s1.333-0.597 1.333-1.333v0-17.333zM22.667 13.327c-0.002-0.733-0.597-1.327-1.331-1.327-0.001 0-0.002 0-0.003 0h0c-0.736 0-1.333 0.595-1.333 1.327v13.347c0 0.733 0.597 1.327 1.333 1.327s1.333-0.595 1.333-1.327v-13.347zM17.333 17.333c0-0.736-0.597-1.333-1.333-1.333s-1.333 0.597-1.333 1.333v0 9.333c0 0.736 0.597 1.333 1.333 1.333s1.333-0.597 1.333-1.333v0-9.333zM12 21.325c-0.002-0.732-0.597-1.325-1.329-1.325-0.001 0-0.003 0-0.004 0h0c-0.736 0-1.333 0.593-1.333 1.325v5.349c0 0.732 0.597 1.325 1.333 1.325s1.333-0.593 1.333-1.325v-5.349zM6.667 25.312c-0.006-0.726-0.596-1.312-1.323-1.312-0.004 0-0.008 0-0.011 0h0.001c-0.736 0-1.333 0.587-1.333 1.312v1.376c0 0.725 0.597 1.312 1.333 1.312s1.333-0.587 1.333-1.312v-1.376z"></path>
</svg>
