<!-- Generated by IcoMoon.io -->
<svg version="1.1" xmlns="http://www.w3.org/2000/svg" width="32" height="32" viewBox="0 0 32 32">
<title>center-horizontal-filled</title>
<path d="M5 4c0.552 0 1 0.448 1 1v0 22c0 0.552-0.448 1-1 1s-1-0.448-1-1v0-22c0-0.552 0.448-1 1-1v0zM27 4c0.552 0 1 0.448 1 1v0 22c0 0.552-0.448 1-1 1s-1-0.448-1-1v0-22c0-0.552 0.448-1 1-1v0zM13.667 6.667c-1.657 0-3 1.343-3 3v0 12.667c0 1.657 1.343 3 3 3v0h4.667c1.657 0 3-1.343 3-3v0-12.667c0-1.657-1.343-3-3-3v0h-4.667z"></path>
</svg>
