<!-- Generated by IcoMoon.io -->
<svg version="1.1" xmlns="http://www.w3.org/2000/svg" width="32" height="32" viewBox="0 0 32 32">
<title>certificate-filled</title>
<path d="M19.999 24.001c1.114 0.837 2.5 1.334 4.001 1.334 1.5 0 2.885-0.495 3.999-1.332l0.001 4.328c0 0.761-0.806 1.226-1.453 0.892l-0.119-0.072-2.427-1.696-2.426 1.696c-0.624 0.436-1.467 0.041-1.563-0.681l-0.009-0.139-0.002-4.33zM25.667 4.005c1.95 0 3.545 1.522 3.66 3.443l0.007 0.223 0.002 6.995c-0.539-0.718-1.22-1.323-2-1.775l-0.002-5.22c0-0.863-0.656-1.573-1.496-1.658l-0.17-0.009h-19.333c-0.863 0-1.573 0.656-1.658 1.496l-0.009 0.17v12.667c0 0.863 0.656 1.573 1.496 1.658l0.17 0.009 11.895 0c0.133 0.23 0.279 0.451 0.438 0.662l0.001 1.338h-12.333c-1.95 0-3.545-1.522-3.66-3.443l-0.007-0.223v-12.667c0-1.95 1.522-3.545 3.443-3.66l0.223-0.007h19.333zM24.001 13.333c2.946 0 5.334 2.388 5.334 5.334s-2.388 5.334-5.334 5.334-5.334-2.388-5.334-5.334c0-2.946 2.388-5.334 5.334-5.334zM15 16.666c0.552 0 1 0.448 1 1 0 0.506-0.376 0.925-0.864 0.991l-0.136 0.009h-6c-0.552 0-1-0.448-1-1 0-0.506 0.376-0.925 0.864-0.991l0.136-0.009h6zM23 9.333c0.552 0 1 0.448 1 1 0 0.506-0.376 0.925-0.864 0.991l-0.136 0.009h-14c-0.552 0-1-0.448-1-1 0-0.506 0.376-0.925 0.864-0.991l0.136-0.009h14z"></path>
</svg>
