<!-- Generated by IcoMoon.io -->
<svg version="1.1" xmlns="http://www.w3.org/2000/svg" width="32" height="32" viewBox="0 0 32 32">
<title>channel-add-filled</title>
<path d="M23.667 4c2.393 0 4.333 1.94 4.333 4.333v7.696c-1.347-0.863-2.949-1.363-4.667-1.363-2.46 0-4.68 1.025-6.258 2.671h-5.412l-0.136 0.009c-0.488 0.066-0.864 0.485-0.864 0.991s0.376 0.925 0.864 0.991l0.136 0.009h3.977c-0.622 1.196-0.974 2.555-0.974 3.996 0 1.718 0.5 3.32 1.362 4.667h-7.696c-2.393 0-4.333-1.94-4.333-4.333l-0-11.171c0.313 0.111 0.65 0.171 1 0.171 1.657 0 3-1.343 3-3s-1.343-3-3-3c-0.242 0-0.477 0.029-0.702 0.082 0.633-1.61 2.201-2.749 4.035-2.749h15.333zM20.336 12.662h-8.673l-0.136 0.009c-0.488 0.066-0.864 0.485-0.864 0.991s0.376 0.925 0.864 0.991l0.136 0.009h8.673l0.136-0.009c0.488-0.066 0.864-0.485 0.864-0.991 0-0.552-0.448-1-1-1z"></path>
<path d="M5 8c0.921 0 1.667 0.746 1.667 1.667s-0.746 1.667-1.667 1.667c-0.921 0-1.667-0.746-1.667-1.667s0.746-1.667 1.667-1.667z"></path>
<path d="M30.667 23.333c0-4.050-3.283-7.333-7.333-7.333s-7.333 3.283-7.333 7.333c0 4.050 3.283 7.333 7.333 7.333s7.333-3.283 7.333-7.333zM24.001 24l0.001 3.338c0 0.368-0.298 0.667-0.667 0.667s-0.667-0.298-0.667-0.667l-0.001-3.338h-3.34c-0.368 0-0.666-0.298-0.666-0.667s0.298-0.667 0.666-0.667h3.34l-0.001-3.334c0-0.368 0.299-0.667 0.667-0.667s0.667 0.298 0.667 0.667l0.001 3.334h3.328c0.368 0 0.666 0.299 0.666 0.667s-0.298 0.667-0.666 0.667h-3.328z"></path>
</svg>
