<!-- Generated by IcoMoon.io -->
<svg version="1.1" xmlns="http://www.w3.org/2000/svg" width="32" height="32" viewBox="0 0 32 32">
<title>channel-alert-filled</title>
<path d="M23.333 16c4.050 0 7.333 3.283 7.333 7.333s-3.283 7.333-7.333 7.333c-4.050 0-7.333-3.283-7.333-7.333s3.283-7.333 7.333-7.333zM23.667 4c2.311 0 4.199 1.809 4.327 4.087l0.007 0.246 0.001 7.696c-1.347-0.863-2.949-1.363-4.668-1.363-2.46 0-4.681 1.025-6.258 2.671l-5.412-0-0.136 0.009c-0.488 0.066-0.864 0.485-0.864 0.991s0.376 0.925 0.864 0.991l0.136 0.009 3.977-0c-0.622 1.196-0.974 2.555-0.974 3.996 0 1.719 0.5 3.321 1.363 4.668l-7.697-0.002c-2.311 0-4.199-1.809-4.326-4.087l-0.007-0.246-0-11.171c0.313 0.111 0.65 0.171 1 0.171 1.657 0 3-1.343 3-3s-1.343-3-3-3c-0.242 0-0.477 0.029-0.702 0.082 0.603-1.533 2.054-2.64 3.775-2.742l0.26-0.008h15.333zM24.667 26.669h-2.667l0.009 0.155c0.077 0.663 0.641 1.178 1.324 1.178 0.736 0 1.333-0.597 1.333-1.333zM23.338 18.667l-0.223 0.009c-1.249 0.114-2.226 1.019-2.412 2.179l-0.025 0.207-0.007 0.272v1.724l-1.142 1.139c-0.393 0.392-0.16 1.044 0.356 1.129l0.115 0.009h6.667c0.554 0 0.85-0.625 0.546-1.050l-0.075-0.088-1.132-1.132v-1.803l-0.007-0.195c-0.102-1.351-1.258-2.401-2.661-2.401zM20.336 12.662h-8.673l-0.136 0.009c-0.488 0.066-0.864 0.485-0.864 0.991s0.376 0.925 0.864 0.991l0.136 0.009h8.673l0.136-0.009c0.488-0.066 0.864-0.485 0.864-0.991 0-0.552-0.448-1-1-1zM5 8c0.921 0 1.667 0.746 1.667 1.667s-0.746 1.667-1.667 1.667c-0.921 0-1.667-0.746-1.667-1.667s0.746-1.667 1.667-1.667z"></path>
</svg>
