<!-- Generated by IcoMoon.io -->
<svg version="1.1" xmlns="http://www.w3.org/2000/svg" width="32" height="32" viewBox="0 0 32 32">
<title>channel-alert-filled</title>
<path d="M8.167 4c-1.939 0-3.569 1.324-4.034 3.118l-0.006 0.029c0.26-0.093 0.559-0.146 0.871-0.146 1.473 0 2.667 1.194 2.667 2.667s-1.194 2.667-2.667 2.667c-0.359 0-0.702-0.071-1.015-0.2l0.018 0.006v11.693c0 2.301 1.865 4.167 4.167 4.167v0h7.863c-0.855-1.316-1.363-2.925-1.363-4.653 0-0.005 0-0.009 0-0.014v0.001c0-1.579 0.422-3.059 1.16-4.333h-4.327c-0.46 0-0.833-0.373-0.833-0.833s0.373-0.833 0.833-0.833v0h5.58c1.576-1.645 3.79-2.667 6.242-2.667 0.004 0 0.008 0 0.011 0h-0.001c1.718 0 3.32 0.5 4.667 1.363v-7.863c0-2.301-1.865-4.167-4.167-4.167v0h-15.667zM10.667 13.5c0-0.46 0.373-0.833 0.833-0.833h9c0.46 0 0.833 0.373 0.833 0.833s-0.373 0.833-0.833 0.833v0h-9c-0.46 0-0.833-0.373-0.833-0.833zM5 8c-0.001 0-0.002 0-0.003 0-0.919 0-1.664 0.745-1.664 1.664 0 0.001 0 0.002 0 0.003v-0c0 0.001 0 0.002 0 0.003 0 0.919 0.745 1.664 1.664 1.664 0.001 0 0.002 0 0.003 0h-0c0.92 0 1.667-0.746 1.667-1.667s-0.746-1.667-1.667-1.667v0zM30.667 23.333c0 4.050-3.283 7.333-7.333 7.333s-7.333-3.283-7.333-7.333 3.283-7.333 7.333-7.333 7.333 3.283 7.333 7.333zM23.333 18.667c-1.841 0-3.333 1.492-3.333 3.333v0 2.255l-0.631 1.263c-0.022 0.044-0.035 0.095-0.035 0.149 0 0.184 0.149 0.333 0.333 0.333h7.333c0.184 0 0.333-0.149 0.333-0.333 0-0.054-0.013-0.106-0.036-0.151l0.001 0.002-0.631-1.263v-2.255c0-1.841-1.492-3.333-3.333-3.333v0zM22 26.667c0 0.736 0.597 1.333 1.333 1.333s1.333-0.597 1.333-1.333v0h-2.667z"></path>
</svg>
