<!-- Generated by IcoMoon.io -->
<svg version="1.1" xmlns="http://www.w3.org/2000/svg" width="32" height="32" viewBox="0 0 32 32">
<title>channel-subtract-filled</title>
<path d="M28 8.333c0-2.393-1.94-4.333-4.333-4.333h-15.333c-1.834 0-3.402 1.14-4.035 2.749 0.225-0.054 0.46-0.082 0.702-0.082 1.657 0 3 1.343 3 3s-1.343 3-3 3c-0.351 0-0.688-0.060-1-0.171l0 11.171c0 2.393 1.94 4.333 4.333 4.333h7.696c-0.862-1.347-1.362-2.949-1.362-4.667 0-1.441 0.352-2.8 0.974-3.996h-3.977l-0.136-0.009c-0.488-0.066-0.864-0.485-0.864-0.991s0.376-0.925 0.864-0.991l0.136-0.009h5.412c1.578-1.646 3.798-2.671 6.258-2.671 1.718 0 3.32 0.5 4.667 1.363v-7.696zM11.664 12.662h8.673c0.552 0 1 0.448 1 1 0 0.506-0.376 0.925-0.864 0.991l-0.136 0.009h-8.673l-0.136-0.009c-0.488-0.066-0.864-0.485-0.864-0.991s0.376-0.925 0.864-0.991l0.136-0.009zM6.667 9.667c0-0.921-0.746-1.667-1.667-1.667s-1.667 0.746-1.667 1.667c0 0.921 0.746 1.667 1.667 1.667s1.667-0.746 1.667-1.667zM23.333 16c4.050 0 7.333 3.283 7.333 7.333s-3.283 7.333-7.333 7.333c-4.050 0-7.333-3.283-7.333-7.333s3.283-7.333 7.333-7.333zM27.329 24c0.368 0 0.666-0.298 0.666-0.667s-0.298-0.667-0.666-0.667h-8.001c-0.368 0-0.666 0.299-0.666 0.667s0.298 0.667 0.666 0.667h8.001z"></path>
</svg>
