<!-- Generated by IcoMoon.io -->
<svg version="1.1" xmlns="http://www.w3.org/2000/svg" width="32" height="32" viewBox="0 0 32 32">
<title>channel-filled</title>
<path d="M4 8.333c-0.405 0.304-0.667 0.788-0.667 1.333 0 0.001 0 0.002 0 0.003 0 0.919 0.745 1.664 1.664 1.664 0.001 0 0.002 0 0.003 0h-0c0.92 0 1.667-0.746 1.667-1.667s-0.746-1.667-1.667-1.667c-0.377 0-0.725 0.125-1.004 0.336l0.004-0.003zM4.126 7.147c0.26-0.093 0.559-0.146 0.871-0.146 1.473 0 2.667 1.194 2.667 2.667s-1.194 2.667-2.667 2.667c-0.359 0-0.702-0.071-1.015-0.2l0.018 0.006v11.693c0 2.301 1.865 4.167 4.167 4.167v0h15.667c2.301 0 4.167-1.865 4.167-4.167v0-15.667c0-2.301-1.865-4.167-4.167-4.167v0h-15.667c-1.939 0-3.569 1.324-4.034 3.118l-0.006 0.029zM10.667 13.5c0-0.46 0.373-0.833 0.833-0.833h9c0.46 0 0.833 0.373 0.833 0.833s-0.373 0.833-0.833 0.833v0h-9c-0.46 0-0.833-0.373-0.833-0.833zM11.5 17.333h6.333c0.46 0 0.833 0.373 0.833 0.833s-0.373 0.833-0.833 0.833v0h-6.333c-0.46 0-0.833-0.373-0.833-0.833s0.373-0.833 0.833-0.833v0z"></path>
</svg>
