<!-- Generated by IcoMoon.io -->
<svg version="1.1" xmlns="http://www.w3.org/2000/svg" width="32" height="32" viewBox="0 0 32 32">
<title>chart-person-filled</title>
<path d="M15.833 2.667c0.46 0 0.833 0.373 0.833 0.833v0.5h9.167c1.933 0 3.5 1.567 3.5 3.5v11.833c0-2.577-2.089-4.667-4.667-4.667s-4.667 2.089-4.667 4.667c0 1.305 0.536 2.486 1.4 3.333l0.001 0.001h-0.734c-0 0-0.001 0-0.001 0-1.359 0-2.528 0.813-3.047 1.979l-0.008 0.021h-4.777c-0.018 0.024-0.036 0.046-0.055 0.066l0.001-0.001-4 4.333c-0.153 0.165-0.371 0.268-0.613 0.268-0.46 0-0.834-0.373-0.834-0.834 0-0.218 0.084-0.417 0.221-0.566l-0 0.001 3.017-3.268h-4.405c-1.933 0-3.5-1.567-3.5-3.5v0-13.667c0-1.933 1.567-3.5 3.5-3.5h8.833v-0.5c0-0.46 0.373-0.833 0.833-0.833zM8.167 9c-0.46 0-0.833 0.373-0.833 0.833s0.373 0.833 0.833 0.833v0h6.333c0.46 0 0.833-0.373 0.833-0.833s-0.373-0.833-0.833-0.833v0h-6.333zM7.333 14.5c0 0.46 0.373 0.833 0.833 0.833h9.667c0.46 0 0.833-0.373 0.833-0.833s-0.373-0.833-0.833-0.833v0h-9.667c-0.46 0-0.833 0.373-0.833 0.833zM7.333 19.167c0 0.46 0.373 0.833 0.833 0.833h7.667c0.46 0 0.833-0.373 0.833-0.833s-0.373-0.833-0.833-0.833v0h-7.667c-0.46 0-0.833 0.373-0.833 0.833zM28 19.333c0 1.841-1.492 3.333-3.333 3.333s-3.333-1.492-3.333-3.333v0c0-1.841 1.492-3.333 3.333-3.333s3.333 1.492 3.333 3.333v0zM30.667 26.333c0 2.333-2.1 4.333-6 4.333s-6-2-6-4.333v-0.335c0-1.104 0.895-1.999 1.999-1.999 0 0 0.001 0 0.001 0h8c1.105 0 2 0.893 2 1.999v0.335z"></path>
</svg>
