<!-- Generated by IcoMoon.io -->
<svg version="1.1" xmlns="http://www.w3.org/2000/svg" width="32" height="32" viewBox="0 0 32 32">
<title>chart-multiple-filled</title>
<path d="M25.333 18c0-0.907 0.364-1.731 0.953-2.333h-8.953c-1.289 0-2.333-1.045-2.333-2.333v0-10.66c-6.847 0.191-12.324 5.787-12.324 12.662 0 6.758 5.292 12.28 11.958 12.647l0.033 0.001v-1.984c0-1.841 1.492-3.333 3.333-3.333 0.754 0 1.45 0.25 2.008 0.673l-0.008-0.006v-1.333c0-1.841 1.492-3.333 3.333-3.333 0.754 0 1.45 0.25 2.008 0.673l-0.008-0.006v-1.333zM17 2.777v10.559c0 0.184 0.149 0.333 0.333 0.333h10.559c-0.776-5.676-5.216-10.116-10.826-10.885l-0.066-0.007zM28.667 16.003c-1.105 0-2 0.895-2 2v0 10.667c0 1.105 0.895 2 2 2s2-0.895 2-2v0-10.667c0-1.105-0.895-2-2-2v0zM18 24.003c-1.105 0-2 0.895-2 2v0 2.667c0 1.105 0.895 2 2 2s2-0.895 2-2v0-2.667c0-1.105-0.895-2-2-2v0zM21.333 22.003c0-1.105 0.895-2 2-2s2 0.895 2 2v0 6.667c0 1.105-0.895 2-2 2s-2-0.895-2-2v0-6.667z"></path>
</svg>
