<!-- Generated by IcoMoon.io -->
<svg version="1.1" xmlns="http://www.w3.org/2000/svg" width="32" height="32" viewBox="0 0 32 32">
<title>chart-person-filled</title>
<path d="M15.667 2.667c0.552 0 1 0.448 1 1v0.333h8.333c2.393 0 4.333 1.94 4.333 4.333v9h-0.344c0.007-0.11 0.011-0.221 0.011-0.333 0-2.761-2.239-5-5-5s-5 2.239-5 5c0 1.449 0.616 2.753 1.601 3.667h-1.267c-1.841 0-3.333 1.492-3.333 3.333v0.667c0 0.224 0.013 0.446 0.039 0.667h-3.237l-3.034 3.64c-0.354 0.424-0.984 0.481-1.408 0.128s-0.482-0.984-0.128-1.408l1.967-2.36h-3.198c-2.393 0-4.333-1.94-4.333-4.333v-12.667c0-2.393 1.94-4.333 4.333-4.333h7.667v-0.333c0-0.552 0.448-1 1-1zM8 10.333c0 0.552 0.448 1 1 1h5.333c0.552 0 1-0.448 1-1s-0.448-1-1-1h-5.333c-0.552 0-1 0.448-1 1zM9 13.333c-0.552 0-1 0.448-1 1s0.448 1 1 1h8.667c0.552 0 1-0.448 1-1s-0.448-1-1-1h-8.667zM8 18.333c0 0.552 0.448 1 1 1h7.333c0.552 0 1-0.448 1-1s-0.448-1-1-1h-7.333c-0.552 0-1 0.448-1 1zM26.667 19.517c-0.669 0.708-1.616 1.15-2.667 1.15-2.025 0-3.667-1.642-3.667-3.667s1.642-3.667 3.667-3.667c2.025 0 3.667 1.642 3.667 3.667 0 0.112-0.005 0.224-0.015 0.333-0.076 0.842-0.437 1.602-0.985 2.183zM29.2 22.072c-0.17-0.047-0.348-0.072-0.533-0.072h-9.333c-1.105 0-2 0.895-2 2v0.667c0 0.222 0.018 0.445 0.053 0.667 0.379 2.4 2.781 4.667 6.614 4.667 4.187 0 6.667-2.705 6.667-5.333v-0.667c0-0.92-0.621-1.695-1.467-1.928z"></path>
</svg>
