<!-- Generated by IcoMoon.io -->
<svg version="1.1" xmlns="http://www.w3.org/2000/svg" width="32" height="32" viewBox="0 0 32 32">
<title>chat-bubbles-question-filled</title>
<path d="M2.667 14c0-5.523 4.477-10 10-10s10 4.477 10 10c0 5.523-4.477 10-10 10-1.466 0-2.861-0.316-4.118-0.885-1.678 0.387-3.484 0.72-4.315 0.868-0.917 0.163-1.715-0.642-1.538-1.56 0.157-0.812 0.506-2.556 0.909-4.19-0.602-1.287-0.938-2.722-0.938-4.233zM10.859 8.41c-0.589 0.315-1.053 0.804-1.405 1.452-0.263 0.486-0.083 1.092 0.402 1.356s1.092 0.083 1.356-0.402c0.195-0.36 0.398-0.539 0.589-0.641 0.201-0.108 0.472-0.173 0.866-0.173 0.298 0 0.65 0.105 0.908 0.317 0.227 0.186 0.425 0.486 0.425 1.015 0 0.26-0.1 0.38-0.785 0.917-0.6 0.472-1.549 1.237-1.549 2.749 0 0.552 0.448 1 1 1s1-0.448 1-1c0-0.494 0.218-0.732 0.785-1.177 0.035-0.027 0.073-0.056 0.113-0.087 0.518-0.398 1.436-1.103 1.436-2.403 0-1.131-0.469-1.997-1.158-2.562-0.658-0.54-1.474-0.77-2.176-0.77-0.606 0-1.229 0.1-1.808 0.409zM14 18.667c0-0.737-0.597-1.333-1.333-1.333s-1.333 0.597-1.333 1.333c0 0.736 0.597 1.333 1.333 1.333s1.333-0.597 1.333-1.333z"></path>
<path d="M12.534 25.333c1.784 1.655 4.174 2.667 6.8 2.667 1.466 0 2.861-0.316 4.118-0.885 1.68 0.387 3.495 0.719 4.33 0.866 0.919 0.162 1.717-0.648 1.534-1.567-0.161-0.811-0.517-2.551-0.92-4.181 0.602-1.287 0.938-2.722 0.938-4.233 0-4.377-2.812-8.098-6.729-9.453 0.889 1.618 1.395 3.476 1.395 5.453 0 6.259-5.074 11.333-11.333 11.333-0.044 0-0.089-0-0.133-0.001z"></path>
</svg>
