<!-- Generated by IcoMoon.io -->
<svg version="1.1" xmlns="http://www.w3.org/2000/svg" width="32" height="32" viewBox="0 0 32 32">
<title>chat-bubbles-question-filled</title>
<path d="M12.5 3c-5.799 0-10.5 4.701-10.5 10.5 0 1.606 0.361 3.13 1.008 4.494l-0.934 3.485c-0.399 1.487 0.962 2.848 2.45 2.45l3.486-0.935c1.31 0.635 2.85 1.006 4.477 1.006 0.005 0 0.009 0 0.014 0h-0.001c5.799 0 10.5-4.701 10.5-10.5s-4.701-10.5-10.5-10.5zM12.5 20c-0.69 0-1.25-0.56-1.25-1.25s0.56-1.25 1.25-1.25v0c0.69 0 1.25 0.56 1.25 1.25s-0.56 1.25-1.25 1.25v0zM11 10.014v0zM11 10.017c-0.005 0.549-0.451 0.992-1 0.992-0.552 0-1-0.448-1-1 0-0.003 0-0.006 0-0.009v0-0.026c0.001-0.054 0.004-0.106 0.010-0.157l-0.001 0.008c0.049-0.507 0.212-0.968 0.464-1.368l-0.008 0.013c0.508-0.813 1.465-1.47 3.035-1.47s2.527 0.657 3.036 1.47c0.269 0.428 0.438 0.944 0.464 1.497l0 0.007v0.026c0 1.283-0.808 2.186-1.358 2.8-0.040 0.044-0.086 0.096-0.131 0.149l-0.009 0.011c-0.613 0.697-1.002 1.229-1.002 2.041 0 0.552-0.448 1-1 1s-1-0.448-1-1v0c0-1.61 0.861-2.636 1.499-3.361 0.704-0.802 0.996-1.145 1-1.625v-0.011c-0.019-0.177-0.076-0.338-0.163-0.478l0.003 0.005c-0.116-0.187-0.409-0.53-1.339-0.53s-1.223 0.343-1.34 0.53c-0.084 0.135-0.141 0.296-0.16 0.468l-0 0.005v0.014zM19.5 29c-3.124 0-5.93-1.364-7.853-3.53 0.282 0.020 0.566 0.030 0.853 0.030 6.627 0 12-5.372 12-12 0-1.665-0.339-3.25-0.952-4.69 3.821 1.628 6.452 5.352 6.452 9.69v0c0 1.606-0.361 3.13-1.008 4.494l0.934 3.485c0.399 1.487-0.962 2.848-2.45 2.45l-3.486-0.935c-1.31 0.635-2.85 1.006-4.476 1.006-0.005 0-0.010 0-0.014 0h0.001zM14 10.001v0.019z"></path>
</svg>
