<!-- Generated by IcoMoon.io -->
<svg version="1.1" xmlns="http://www.w3.org/2000/svg" width="32" height="32" viewBox="0 0 32 32">
<title>chat-dismiss-filled</title>
<path d="M29.333 16c0-7.364-5.969-13.333-13.333-13.333s-13.333 5.969-13.333 13.333c0 0.005 0 0.011 0 0.017 0 2.23 0.55 4.333 1.522 6.178l-0.035-0.073-1.424 5.097c-0.039 0.134-0.061 0.289-0.061 0.448 0 0.92 0.746 1.667 1.667 1.667 0.159 0 0.314-0.022 0.46-0.064l-0.012 0.003 5.101-1.423c1.771 0.934 3.87 1.483 6.098 1.483 0.006 0 0.013 0 0.019 0h-0.001c7.364 0 13.333-5.969 13.333-13.333zM12.373 10.96l3.627 3.627 3.627-3.627c0.183-0.196 0.443-0.318 0.732-0.318 0.552 0 1 0.448 1 1 0 0.289-0.122 0.549-0.318 0.731l-0.001 0.001-3.627 3.627 3.627 3.627c0.196 0.183 0.318 0.443 0.318 0.732 0 0.552-0.448 1-1 1-0.289 0-0.549-0.122-0.731-0.318l-0.001-0.001-3.627-3.627-3.627 3.627c-0.178 0.166-0.418 0.268-0.682 0.268-0.552 0-1-0.448-1-1 0-0.264 0.102-0.504 0.269-0.682l-0.001 0.001 3.627-3.627-3.627-3.627c-0.166-0.178-0.268-0.418-0.268-0.682 0-0.552 0.448-1 1-1 0.264 0 0.504 0.102 0.682 0.269l-0.001-0.001z"></path>
</svg>
