<!-- Generated by IcoMoon.io -->
<svg version="1.1" xmlns="http://www.w3.org/2000/svg" width="32" height="32" viewBox="0 0 32 32">
<title>chat-mail-filled</title>
<path d="M3.2 11.2c0.001-5.301 4.299-9.598 9.6-9.598s9.6 4.298 9.6 9.6-4.298 9.6-9.6 9.6c-1.77 0-3.428-0.479-4.852-1.314l0.045 0.024-3.741 1.248c-0.076 0.026-0.163 0.041-0.253 0.041-0.442 0-0.8-0.358-0.8-0.8 0-0.078 0.011-0.154 0.032-0.226l-0.001 0.006 1.139-3.986c-0.736-1.323-1.17-2.902-1.17-4.582 0-0.005 0-0.009 0-0.014v0.001zM10.4 8.8c-0.442 0-0.8 0.358-0.8 0.8s0.358 0.8 0.8 0.8v0h4.8c0.442 0 0.8-0.358 0.8-0.8s-0.358-0.8-0.8-0.8v0h-4.8zM13.6 12h-3.2c-0.442 0-0.8 0.358-0.8 0.8s0.358 0.8 0.8 0.8v0h3.2c0.442 0 0.8-0.358 0.8-0.8s-0.358-0.8-0.8-0.8v0z"></path>
<path d="M19.642 23.915l-3.843-1.92c0.704-0.197 1.381-0.459 2.021-0.781l2.181 1.091 7.2-3.6v-1.106c0-0.884-0.716-1.6-1.6-1.6v0h-2.678c0.245-0.512 0.45-1.048 0.614-1.6h2.064c1.767 0 3.2 1.433 3.2 3.2v0 8c0 1.767-1.433 3.2-3.2 3.2v0h-11.2c-1.767 0-3.2-1.433-3.2-3.2v0-3.312c0.523 0.074 1.056 0.112 1.6 0.112v3.2c0 0.884 0.716 1.6 1.6 1.6v0h11.2c0.884 0 1.6-0.716 1.6-1.6v0-5.106l-6.842 3.421c-0.104 0.053-0.228 0.085-0.358 0.085s-0.254-0.031-0.363-0.087l0.005 0.002z"></path>
</svg>
