<!-- Generated by IcoMoon.io -->
<svg version="1.1" xmlns="http://www.w3.org/2000/svg" width="32" height="32" viewBox="0 0 32 32">
<title>chat-warning-filled</title>
<path d="M29.333 15.997c0-7.364-5.97-13.333-13.333-13.333s-13.333 5.97-13.333 13.333c0 2.19 0.53 4.306 1.527 6.2l-1.488 5.718c-0.049 0.187-0.049 0.384 0 0.571 0.158 0.606 0.777 0.969 1.382 0.811l5.721-1.489c1.893 0.994 4.005 1.522 6.192 1.522 7.364 0 13.333-5.969 13.333-13.333zM16 8.666c0.552 0 1 0.448 1 1v8.333c0 0.552-0.448 1-1 1s-1-0.448-1-1v-8.333c0-0.552 0.448-1 1-1zM17.333 21.997c0 0.736-0.597 1.333-1.333 1.333s-1.333-0.597-1.333-1.333c0-0.736 0.597-1.333 1.333-1.333s1.333 0.597 1.333 1.333z"></path>
</svg>
