<!-- Generated by IcoMoon.io -->
<svg version="1.1" xmlns="http://www.w3.org/2000/svg" width="32" height="32" viewBox="0 0 32 32">
<title>chat-settings-filled</title>
<path d="M16 2.667c7.364 0 13.333 5.969 13.333 13.333 0 0.351-0.013 0.697-0.040 1.040-1.553-1.486-3.663-2.4-5.987-2.4-4.786 0-8.667 3.88-8.667 8.667 0 2.324 0.915 4.434 2.403 5.99l-0.003-0.003c-0.316 0.027-0.684 0.042-1.055 0.042-2.259 0-4.387-0.564-6.25-1.559l0.071 0.035-5.72 1.489c-0.085 0.023-0.182 0.036-0.282 0.036-0.626 0-1.133-0.507-1.133-1.133 0-0.1 0.013-0.198 0.038-0.29l-0.002 0.008 1.488-5.719c-0.963-1.793-1.528-3.922-1.528-6.184 0-0.006 0-0.012 0-0.018v0.001c0-7.364 5.969-13.333 13.333-13.333zM19.037 18.635c0.066 0.221 0.105 0.476 0.105 0.739 0 1.245-0.854 2.291-2.007 2.585l-0.018 0.004-0.779 0.192c-0.058 0.355-0.092 0.763-0.092 1.18 0 0.434 0.036 0.86 0.106 1.274l-0.006-0.045 0.72 0.173c1.181 0.291 2.042 1.341 2.042 2.593 0 0.269-0.040 0.528-0.114 0.773l0.005-0.019-0.249 0.843c0.587 0.515 1.253 0.932 1.979 1.229l0.659-0.693c0.487-0.511 1.172-0.829 1.932-0.829s1.446 0.318 1.932 0.829l0.001 0.001 0.664 0.7c0.76-0.313 1.413-0.723 1.985-1.224l-0.008 0.007-0.264-0.915c-0.066-0.221-0.105-0.476-0.105-0.739 0-1.245 0.854-2.291 2.007-2.585l0.018-0.004 0.779-0.192c0.059-0.355 0.092-0.764 0.092-1.18 0-0.434-0.036-0.86-0.106-1.275l0.006 0.045-0.72-0.173c-1.181-0.291-2.042-1.341-2.042-2.593 0-0.269 0.040-0.528 0.114-0.773l-0.005 0.019 0.249-0.84c-0.564-0.499-1.218-0.913-1.932-1.212l-0.046-0.017-0.657 0.691c-0.487 0.512-1.173 0.83-1.933 0.83s-1.447-0.318-1.932-0.829l-0.001-0.001-0.664-0.7c-0.76 0.313-1.413 0.722-1.985 1.223l0.008-0.007 0.264 0.916zM23.333 21.333c1.067 0 1.933 0.896 1.933 2s-0.867 2-1.933 2c-1.067 0-1.933-0.896-1.933-2s0.867-2 1.933-2z"></path>
</svg>
