<!-- Generated by IcoMoon.io -->
<svg version="1.1" xmlns="http://www.w3.org/2000/svg" width="32" height="32" viewBox="0 0 32 32">
<title>chat-off-filled</title>
<path d="M4.373 2.96c-0.183-0.196-0.443-0.318-0.732-0.318-0.552 0-1 0.448-1 1 0 0.289 0.122 0.549 0.318 0.731l0.001 0.001 2.931 2.933c-2.003 2.312-3.224 5.351-3.224 8.674 0 0.007 0 0.014 0 0.021v-0.001c0 0.005 0 0.012 0 0.018 0 2.261 0.565 4.39 1.561 6.253l-0.035-0.071-1.488 5.72c-0.023 0.085-0.036 0.183-0.036 0.284 0 0.626 0.507 1.133 1.133 1.133 0.101 0 0.199-0.013 0.292-0.038l-0.008 0.002 5.72-1.489c1.79 0.958 3.915 1.521 6.172 1.521 0.008 0 0.015 0 0.023-0h-0.001c3.321 0 6.36-1.215 8.693-3.224l2.933 2.931c0.178 0.166 0.418 0.268 0.682 0.268 0.552 0 1-0.448 1-1 0-0.264-0.102-0.504-0.269-0.682l0.001 0.001-24.667-24.667zM17.893 19.307c-0.022 0.006-0.052 0.011-0.083 0.015l-0.005 0.001-0.136 0.009h-6.003l-0.136-0.009c-0.491-0.069-0.864-0.486-0.864-0.991s0.373-0.921 0.858-0.99l0.005-0.001 0.136-0.008h4.253l1.973 1.975zM13.253 14.667h-1.587l-0.136-0.009c-0.49-0.070-0.863-0.487-0.863-0.991 0-0.426 0.266-0.79 0.641-0.934l0.007-0.002 1.936 1.936zM20.333 14.667h-1.424l8.4 8.4c1.27-1.999 2.024-4.433 2.024-7.044 0-0.008 0-0.016-0-0.023v0.001c0-7.364-5.969-13.333-13.333-13.333-0.007 0-0.014-0-0.022-0-2.611 0-5.046 0.754-7.099 2.056l0.054-0.032 7.976 7.976h3.424l0.136 0.009c0.491 0.069 0.864 0.486 0.864 0.991s-0.373 0.921-0.858 0.99l-0.005 0.001-0.136 0.009z"></path>
</svg>
