<!-- Generated by IcoMoon.io -->
<svg version="1.1" xmlns="http://www.w3.org/2000/svg" width="32" height="32" viewBox="0 0 32 32">
<title>chat-dismiss-filled</title>
<path d="M29.333 16c0-7.364-5.97-13.333-13.333-13.333s-13.333 5.97-13.333 13.333c0 2.16 0.515 4.248 1.486 6.123l-1.424 5.097c-0.082 0.293-0.082 0.603-0 0.897 0.248 0.887 1.167 1.405 2.054 1.157l5.101-1.423c1.873 0.969 3.958 1.483 6.116 1.483 7.364 0 13.333-5.97 13.333-13.333zM12.374 10.96l3.626 3.626 3.626-3.626c0.391-0.391 1.024-0.391 1.414 0s0.391 1.024 0 1.414l-3.626 3.626 3.626 3.626c0.391 0.391 0.391 1.024 0 1.414s-1.024 0.391-1.414 0l-3.626-3.626-3.626 3.626c-0.391 0.391-1.024 0.391-1.414 0s-0.391-1.024 0-1.414l3.626-3.626-3.626-3.626c-0.391-0.391-0.391-1.024 0-1.414s1.024-0.391 1.414 0z"></path>
</svg>
