<!-- Generated by IcoMoon.io -->
<svg version="1.1" xmlns="http://www.w3.org/2000/svg" width="32" height="32" viewBox="0 0 32 32">
<title>chat-add-filled</title>
<path d="M14.667 23.333c0 0.004 0 0.008 0 0.013 0 2.259 0.867 4.315 2.287 5.854l-0.005-0.006c-2.215 0.125-4.631-0.307-7.159-1.505l-5.657 1.616c-0.877 0.251-1.689-0.557-1.442-1.435 0.337-1.204 1.137-4.043 1.605-5.581-3.508-6.259-1.143-15.505 6.727-18.655 9.721-3.889 19.333 4.205 18.39 13.523-1.559-1.539-3.703-2.49-6.068-2.49-0.004 0-0.008 0-0.013 0h0.001c-4.787 0-8.667 3.88-8.667 8.667zM30.667 23.333c0 4.050-3.283 7.333-7.333 7.333s-7.333-3.283-7.333-7.333 3.283-7.333 7.333-7.333 7.333 3.283 7.333 7.333zM24 18.667c0-0.368-0.298-0.667-0.667-0.667s-0.667 0.298-0.667 0.667v0 4h-4c-0.368 0-0.667 0.298-0.667 0.667s0.298 0.667 0.667 0.667v0h4v4c0 0.368 0.298 0.667 0.667 0.667s0.667-0.298 0.667-0.667v0-4h4c0.368 0 0.667-0.298 0.667-0.667s-0.298-0.667-0.667-0.667v0h-4v-4z"></path>
</svg>
