<!-- Generated by IcoMoon.io -->
<svg version="1.1" xmlns="http://www.w3.org/2000/svg" width="32" height="32" viewBox="0 0 32 32">
<title>chat-help-filled</title>
<path d="M16 2.667c7.364 0 13.333 5.969 13.333 13.333s-5.969 13.333-13.333 13.333c-0.005 0-0.011 0-0.018 0-2.258 0-4.384-0.563-6.246-1.558l0.071 0.035-5.72 1.489c-0.086 0.023-0.184 0.037-0.286 0.037-0.626 0-1.133-0.507-1.133-1.133 0-0.101 0.013-0.199 0.038-0.293l-0.002 0.008 1.488-5.719c-0.962-1.792-1.527-3.921-1.527-6.182 0-0.006 0-0.013 0-0.019v0.001c0-7.364 5.969-13.333 13.333-13.333zM16 20.667c-0.736 0-1.333 0.597-1.333 1.333s0.597 1.333 1.333 1.333v0c0.736 0 1.333-0.597 1.333-1.333s-0.597-1.333-1.333-1.333v0zM16 9c-2.025 0-3.667 1.642-3.667 3.667v0c0 0.552 0.448 1 1 1 0.504 0 0.921-0.373 0.99-0.858l0.001-0.005 0.019-0.307c0.092-0.842 0.799-1.491 1.657-1.491 0.919 0 1.664 0.743 1.667 1.661v0c0 0.719-0.18 1.073-0.86 1.776l-0.405 0.413c-1.005 1.045-1.401 1.796-1.401 3.144 0 0.552 0.448 1 1 1s1-0.448 1-1v0c0-0.719 0.18-1.073 0.86-1.776l0.405-0.413c1.005-1.045 1.401-1.796 1.401-3.144 0-2.025-1.642-3.667-3.667-3.667v0z"></path>
</svg>
