<!-- Generated by IcoMoon.io -->
<svg version="1.1" xmlns="http://www.w3.org/2000/svg" width="32" height="32" viewBox="0 0 32 32">
<title>chat-multiple-filled</title>
<path d="M12.667 4c-5.523 0-10 4.477-10 10 0 1.511 0.336 2.947 0.938 4.233-0.403 1.633-0.752 3.378-0.909 4.19-0.178 0.919 0.621 1.723 1.538 1.56 0.831-0.148 2.638-0.481 4.315-0.868 1.257 0.569 2.652 0.885 4.118 0.885 5.523 0 10-4.477 10-10s-4.477-10-10-10zM12.616 25.333c1.784 1.655 4.174 2.667 6.8 2.667 1.466 0 2.861-0.316 4.117-0.885 1.392 0.326 2.915 0.651 3.885 0.853 1.19 0.249 2.229-0.819 1.957-1.999-0.217-0.938-0.558-2.394-0.896-3.738 0.602-1.286 0.937-2.721 0.937-4.232 0-4.377-2.812-8.098-6.729-9.453 0.467 0.849 0.828 1.765 1.066 2.729 2.204 1.425 3.663 3.904 3.663 6.723 0 1.322-0.32 2.566-0.885 3.662l-0.174 0.337 0.094 0.368c0.304 1.194 0.622 2.533 0.855 3.534-1.032-0.218-2.423-0.52-3.652-0.813l-0.353-0.084-0.325 0.161c-1.071 0.533-2.279 0.834-3.56 0.834-1.413 0-2.74-0.366-3.892-1.009-0.888 0.223-1.817 0.342-2.775 0.342-0.044 0-0.089-0-0.133-0.001z"></path>
</svg>
