<!-- Generated by IcoMoon.io -->
<svg version="1.1" xmlns="http://www.w3.org/2000/svg" width="32" height="32" viewBox="0 0 32 32">
<title>chat-warning-filled</title>
<path d="M29.333 15.997c0-7.364-5.969-13.333-13.333-13.333s-13.333 5.969-13.333 13.333c0 0.005 0 0.012 0 0.018 0 2.261 0.565 4.39 1.562 6.253l-0.035-0.071-1.488 5.719c-0.023 0.085-0.036 0.183-0.036 0.284 0 0.626 0.507 1.133 1.133 1.133 0.101 0 0.199-0.013 0.292-0.038l-0.008 0.002 5.72-1.489c1.79 0.959 3.916 1.523 6.174 1.523 0.007 0 0.014 0 0.020 0h-0.001c7.364 0 13.333-5.969 13.333-13.333zM16 8.667c0.552 0 1 0.448 1 1v0 8.333c0 0.552-0.448 1-1 1s-1-0.448-1-1v0-8.333c0-0.552 0.448-1 1-1v0zM17.333 21.996c0 0.736-0.597 1.333-1.333 1.333s-1.333-0.597-1.333-1.333v0c0-0.736 0.597-1.333 1.333-1.333s1.333 0.597 1.333 1.333v0z"></path>
</svg>
