<!-- Generated by IcoMoon.io -->
<svg version="1.1" xmlns="http://www.w3.org/2000/svg" width="32" height="32" viewBox="0 0 32 32">
<title>chat-arrow-back-filled</title>
<path d="M16 3.2c0 0 0 0 0 0 7.069 0 12.8 5.731 12.8 12.8 0 0.143-0.002 0.285-0.007 0.427l0.001-0.021c-1.508-1.249-3.463-2.007-5.594-2.007-4.86 0-8.8 3.94-8.8 8.8 0 2.132 0.758 4.086 2.019 5.609l-0.012-0.015c-0.126 0.004-0.273 0.007-0.422 0.007-2.103 0-4.088-0.509-5.837-1.412l0.071 0.033-0.194-0.102-5.832 1.456c-0.059 0.015-0.126 0.024-0.195 0.024-0.417 0-0.76-0.319-0.797-0.727l-0-0.003v-0.131l0.022-0.133 1.456-5.83-0.101-0.192c-0.697-1.342-1.17-2.909-1.324-4.569l-0.004-0.050-0.040-0.611-0.011-0.554c0-7.069 5.731-12.8 12.8-12.8v0zM23.2 30.4c3.976 0 7.2-3.224 7.2-7.2s-3.224-7.2-7.2-7.2v0c-3.976 0-7.2 3.224-7.2 7.2s3.224 7.2 7.2 7.2v0zM21.766 20.166l-1.435 1.434h2.469c2.43 0 4.4 1.97 4.4 4.4v0 0.4c0 0.442-0.358 0.8-0.8 0.8s-0.8-0.358-0.8-0.8v0-0.4c0-1.546-1.254-2.8-2.8-2.8v0h-2.469l1.435 1.434c0.145 0.145 0.235 0.345 0.235 0.566 0 0.442-0.359 0.801-0.801 0.801-0.221 0-0.421-0.090-0.566-0.235l-2.803-2.805c-0.143-0.144-0.232-0.343-0.232-0.562 0-0.221 0.090-0.421 0.235-0.566l2.8-2.8c0.145-0.145 0.345-0.235 0.566-0.235 0.442 0 0.801 0.359 0.801 0.801 0 0.221-0.090 0.421-0.235 0.566v0z"></path>
</svg>
