<!-- Generated by IcoMoon.io -->
<svg version="1.1" xmlns="http://www.w3.org/2000/svg" width="32" height="32" viewBox="0 0 32 32">
<title>chat-filled</title>
<path d="M16 2.667c7.364 0 13.333 5.97 13.333 13.333s-5.97 13.333-13.333 13.333c-2.187 0-4.3-0.528-6.192-1.522l-5.721 1.489c-0.606 0.158-1.225-0.205-1.382-0.811-0.049-0.187-0.049-0.384-0-0.571l1.488-5.718c-0.997-1.894-1.527-4.010-1.527-6.2 0-7.364 5.97-13.333 13.333-13.333zM17.669 17.333h-6.002l-0.136 0.009c-0.488 0.066-0.864 0.485-0.864 0.991s0.376 0.925 0.864 0.991l0.136 0.009h6.002l0.136-0.009c0.488-0.066 0.864-0.485 0.864-0.991s-0.376-0.925-0.864-0.991l-0.136-0.009zM20.333 12.667h-8.667l-0.136 0.009c-0.488 0.066-0.864 0.485-0.864 0.991s0.376 0.925 0.864 0.991l0.136 0.009h8.667l0.136-0.009c0.488-0.066 0.864-0.485 0.864-0.991s-0.376-0.925-0.864-0.991l-0.136-0.009z"></path>
</svg>
