<!-- Generated by IcoMoon.io -->
<svg version="1.1" xmlns="http://www.w3.org/2000/svg" width="32" height="32" viewBox="0 0 32 32">
<title>chat-off-filled</title>
<path d="M4.374 2.96c-0.391-0.391-1.024-0.391-1.414-0s-0.391 1.024-0 1.414l2.932 2.932c-2.010 2.334-3.224 5.373-3.224 8.695 0 2.19 0.53 4.306 1.527 6.2l-1.488 5.718c-0.049 0.187-0.049 0.384 0 0.571 0.158 0.606 0.777 0.969 1.382 0.811l5.721-1.489c1.893 0.994 4.005 1.522 6.192 1.522 3.322 0 6.36-1.215 8.694-3.224l2.931 2.932c0.391 0.391 1.024 0.391 1.414 0s0.391-1.024 0-1.414l-24.666-24.667zM17.893 19.308c-0.029 0.007-0.059 0.012-0.089 0.016l-0.136 0.009h-6.002l-0.136-0.009c-0.488-0.066-0.864-0.485-0.864-0.991s0.376-0.925 0.864-0.991l0.136-0.009h4.252l1.975 1.975zM13.252 14.667h-1.586l-0.136-0.009c-0.488-0.066-0.864-0.485-0.864-0.991 0-0.429 0.27-0.794 0.649-0.937l1.937 1.937z"></path>
<path d="M20.333 14.667h-1.424l8.4 8.4c1.283-2.049 2.025-4.471 2.025-7.067 0-7.364-5.97-13.333-13.333-13.333-2.595 0-5.018 0.742-7.066 2.024l7.975 7.976h3.424l0.136 0.009c0.488 0.066 0.864 0.485 0.864 0.991s-0.376 0.925-0.864 0.991l-0.136 0.009z"></path>
</svg>
