<!-- Generated by IcoMoon.io -->
<svg version="1.1" xmlns="http://www.w3.org/2000/svg" width="32" height="32" viewBox="0 0 32 32">
<title>chat-filled</title>
<path d="M11.024 3.635c11.525-4.613 22.897 7.623 16.705 18.771-2.813 5.063-9.801 9.14-17.939 5.284l-5.657 1.616c-0.877 0.251-1.689-0.557-1.442-1.435 0.337-1.204 1.137-4.043 1.605-5.581-3.508-6.259-1.143-15.505 6.727-18.654zM10.664 13.501c0 0.46 0.373 0.833 0.833 0.833h9.003c0.46 0 0.833-0.373 0.833-0.833s-0.373-0.833-0.833-0.833v0h-9.003c-0.46 0-0.833 0.373-0.833 0.833zM11.5 17.65c-0.46 0-0.833 0.373-0.833 0.833s0.373 0.833 0.833 0.833v0h6.333c0.46 0 0.833-0.373 0.833-0.833s-0.373-0.833-0.833-0.833v0h-6.333z"></path>
</svg>
