<!-- Generated by IcoMoon.io -->
<svg version="1.1" xmlns="http://www.w3.org/2000/svg" width="32" height="32" viewBox="0 0 32 32">
<title>chat-multiple-filled</title>
<path d="M12.667 4c-0.001 0-0.002 0-0.003 0-5.523 0-10 4.477-10 10 0 1.537 0.347 2.993 0.966 4.294l-0.026-0.060c-0.216 0.775-0.531 2.188-0.813 3.613l-0.095 0.577c-0.015 0.076-0.024 0.163-0.024 0.253 0 0.733 0.595 1.328 1.328 1.328 0.083 0 0.163-0.008 0.242-0.022l-0.008 0.001c0.831-0.147 2.637-0.48 4.315-0.867 1.208 0.558 2.621 0.884 4.111 0.884 5.523 0 10-4.477 10-10 0-5.52-4.473-9.995-9.992-10h-0zM12.616 25.333c1.774 1.652 4.161 2.667 6.785 2.667 0.005 0 0.011 0 0.016 0h-0.001c0.004 0 0.008 0 0.012 0 1.488 0 2.899-0.326 4.167-0.91l-0.062 0.026c1.391 0.325 2.915 0.651 3.884 0.853 0.102 0.022 0.22 0.035 0.341 0.035 0.916 0 1.659-0.743 1.659-1.659 0-0.134-0.016-0.264-0.046-0.388l0.002 0.011c-0.216-0.937-0.557-2.393-0.895-3.737 0.593-1.24 0.939-2.696 0.939-4.232 0-4.353-2.78-8.056-6.661-9.432l-0.070-0.022c0.442 0.785 0.807 1.695 1.050 2.653l0.017 0.078c2.217 1.445 3.663 3.913 3.663 6.719 0 0.001 0 0.003 0 0.004v-0c0 0.004 0 0.010 0 0.015 0 1.332-0.328 2.588-0.908 3.691l0.021-0.044-0.173 0.337 0.093 0.368c0.304 1.193 0.623 2.533 0.856 3.533-2.216-0.443-3.446-0.725-4.671-1.022l1.018 0.208-0.352-0.083-0.324 0.161c-1.072 0.533-2.28 0.833-3.56 0.833-0.004 0-0.010 0-0.015 0-1.424 0-2.761-0.374-3.918-1.029l0.040 0.021c-0.831 0.217-1.784 0.342-2.767 0.342-0.049 0-0.098-0-0.147-0.001l0.007 0z"></path>
</svg>
