<!-- Generated by IcoMoon.io -->
<svg version="1.1" xmlns="http://www.w3.org/2000/svg" width="32" height="32" viewBox="0 0 32 32">
<title>checkmark-filled</title>
<path d="M26.878 8.463c0.179 0.181 0.289 0.429 0.289 0.703 0 0.278-0.114 0.53-0.297 0.711l-0 0-14.833 14.667c-0.181 0.179-0.429 0.289-0.703 0.289-0.271 0-0.518-0.108-0.698-0.284l0 0-6.167-6c-0.191-0.183-0.31-0.439-0.31-0.724 0-0.552 0.448-1 1-1 0.275 0 0.524 0.111 0.705 0.291l-0-0 5.463 5.316 14.136-13.977c0.181-0.179 0.429-0.289 0.703-0.289 0.278 0 0.53 0.114 0.711 0.297l0 0z"></path>
</svg>
