<!-- Generated by IcoMoon.io -->
<svg version="1.1" xmlns="http://www.w3.org/2000/svg" width="32" height="32" viewBox="0 0 32 32">
<title>checkmark-circle-filled</title>
<path d="M16 2.667c7.364 0 13.333 5.969 13.333 13.333s-5.969 13.333-13.333 13.333-13.333-5.969-13.333-13.333 5.969-13.333 13.333-13.333zM21.756 11.744c-0.151-0.151-0.359-0.244-0.589-0.244-0.198 0-0.38 0.069-0.523 0.185l0.002-0.001-0.068 0.061-6.744 6.744-2.411-2.411c-0.151-0.151-0.359-0.244-0.589-0.244-0.46 0-0.833 0.373-0.833 0.833 0 0.198 0.069 0.38 0.185 0.523l-0.001-0.002 0.061 0.068 3 3c0.151 0.151 0.359 0.244 0.589 0.244 0.198 0 0.38-0.069 0.523-0.185l-0.002 0.001 0.068-0.061 7.333-7.333c0.151-0.151 0.244-0.359 0.244-0.589s-0.093-0.439-0.244-0.589v0z"></path>
</svg>
