<!-- Generated by IcoMoon.io -->
<svg version="1.1" xmlns="http://www.w3.org/2000/svg" width="32" height="32" viewBox="0 0 32 32">
<title>checkbox-2-filled</title>
<path d="M8.333 4c-2.393 0-4.333 1.94-4.333 4.333v0 15.333c0 2.393 1.94 4.333 4.333 4.333v0h13.343c0.14-2.484 1.832-3.8 2.8-4.505-0.144 0.032-0.309 0.050-0.478 0.050-1.289 0-2.333-1.045-2.333-2.333 0-0.601 0.227-1.149 0.6-1.562l-0.002 0.002c1.14-1.267 2.967-1.893 4.637-1.564 0.369 0.072 0.743 0.195 1.1 0.373v-10.127c0-2.393-1.94-4.333-4.333-4.333v0h-15.333zM25.413 24.463c-0.933 0.675-2.26 1.648-2.4 3.537-0.009 0.108-0.013 0.219-0.013 0.333 0 0.552 0.448 1 1 1h4c0.552 0 1-0.448 1-1s-0.448-1-1-1v0h-2.743c0.26-0.441 0.713-0.805 1.329-1.251l0.115-0.083 0.060-0.043c0.291-0.208 0.629-0.449 0.955-0.743 0.672-0.609 1.284-1.444 1.284-2.668 0-0.845-0.224-1.579-0.673-2.145-0.101-0.127-0.208-0.241-0.324-0.344l-0.003-0.002c-0.371-0.326-0.831-0.559-1.339-0.657l-0.018-0.003c-1.201-0.236-2.556 0.223-3.387 1.147-0.159 0.176-0.256 0.411-0.256 0.669 0 0.552 0.448 1 1 1 0.295 0 0.56-0.128 0.743-0.331l0.001-0.001c0.369-0.411 1.015-0.619 1.513-0.521 0.204 0.033 0.378 0.137 0.502 0.285l0.001 0.001c0.113 0.143 0.24 0.411 0.24 0.903 0 0.733-0.469 1.108-1.587 1.916zM23.040 12.373l-9.005 8.995c-0.181 0.181-0.431 0.292-0.707 0.292s-0.526-0.112-0.707-0.292v0l-3.661-3.661c-0.166-0.178-0.268-0.418-0.268-0.682 0-0.552 0.448-1 1-1 0.264 0 0.504 0.102 0.682 0.269l-0.001-0.001 2.956 2.955 8.297-8.289c0.181-0.181 0.431-0.292 0.707-0.292 0.552 0 1 0.448 1 1 0 0.277-0.112 0.527-0.294 0.708v0z"></path>
</svg>
