<!-- Generated by IcoMoon.io -->
<svg version="1.1" xmlns="http://www.w3.org/2000/svg" width="32" height="32" viewBox="0 0 32 32">
<title>checkbox-checked-sync-filled</title>
<path d="M8 3.2c-2.651 0-4.8 2.149-4.8 4.8v0 12.8c0 2.651 2.149 4.8 4.8 4.8v0h6.731c-0.212-0.72-0.335-1.547-0.335-2.403 0-4.86 3.94-8.8 8.8-8.8 0.856 0 1.683 0.122 2.466 0.35l-0.062-0.016v-6.731c0-2.651-2.149-4.8-4.8-4.8v0h-12.8zM20.566 10.966l-8 8c-0.145 0.145-0.345 0.235-0.566 0.235s-0.422-0.090-0.566-0.235l-3.2-3.2c-0.145-0.145-0.235-0.345-0.235-0.566 0-0.442 0.359-0.801 0.801-0.801 0.221 0 0.421 0.090 0.566 0.235v0l2.634 2.635 7.434-7.435c0.145-0.145 0.345-0.235 0.566-0.235 0.442 0 0.801 0.359 0.801 0.801 0 0.221-0.090 0.421-0.235 0.566v0zM16 23.2c0 3.976 3.224 7.2 7.2 7.2s7.2-3.224 7.2-7.2v0c0-3.976-3.224-7.2-7.2-7.2s-7.2 3.224-7.2 7.2v0zM26.4 18.4c0.442 0 0.8 0.358 0.8 0.8v0 2.4c0 0.442-0.358 0.8-0.8 0.8v0h-2.4c-0.442 0-0.8-0.358-0.8-0.8s0.358-0.8 0.8-0.8v0h0.749c-0.447-0.252-0.981-0.401-1.55-0.401-0.884 0-1.684 0.359-2.263 0.938l-0 0c-0.142 0.131-0.332 0.211-0.541 0.211-0.442 0-0.8-0.358-0.8-0.8 0-0.209 0.081-0.4 0.212-0.543l-0 0.001c0.869-0.868 2.069-1.406 3.394-1.406 0.883 0 1.711 0.238 2.422 0.655l-0.023-0.012v-0.243c0-0.442 0.358-0.8 0.8-0.8v0zM24.998 27.251c-0.532 0.221-1.15 0.349-1.798 0.349-0.884 0-1.712-0.239-2.423-0.656l0.023 0.012v0.243c0 0.442-0.358 0.8-0.8 0.8s-0.8-0.358-0.8-0.8v0-2.4c0-0.442 0.358-0.8 0.8-0.8v0h2.4c0.442 0 0.8 0.358 0.8 0.8s-0.358 0.8-0.8 0.8v0h-0.749c0.447 0.252 0.981 0.401 1.55 0.401 0.884 0 1.684-0.359 2.263-0.938l0-0c0.142-0.131 0.332-0.211 0.541-0.211 0.442 0 0.8 0.358 0.8 0.8 0 0.209-0.081 0.4-0.212 0.543l0-0.001c-0.454 0.456-0.998 0.816-1.595 1.056z"></path>
</svg>
