<!-- Generated by IcoMoon.io -->
<svg version="1.1" xmlns="http://www.w3.org/2000/svg" width="32" height="32" viewBox="0 0 32 32">
<title>checkmark-starburst-filled</title>
<path d="M13.115 2.712c0.149 0.051 0.296 0.112 0.439 0.181l1.711 0.843c0.215 0.108 0.468 0.171 0.736 0.171s0.521-0.063 0.746-0.176l-0.010 0.004 1.711-0.843c0.472-0.237 1.029-0.377 1.618-0.377 1.435 0 2.678 0.825 3.28 2.026l0.010 0.021 0.099 0.216 0.084 0.223 0.613 1.804c0.167 0.491 0.552 0.875 1.041 1.041l1.805 0.613c1.458 0.507 2.486 1.869 2.486 3.471 0 0.59-0.139 1.148-0.387 1.642l0.010-0.021-0.841 1.711c-0.108 0.215-0.171 0.468-0.171 0.736s0.063 0.521 0.176 0.746l-0.004-0.010 0.841 1.711c0.238 0.473 0.377 1.030 0.377 1.62 0 1.602-1.027 2.964-2.459 3.463l-0.026 0.008-1.805 0.613c-0.491 0.171-0.87 0.55-1.036 1.030l-0.004 0.012-0.615 1.805c-0.507 1.458-1.869 2.485-3.471 2.485-0.59 0-1.147-0.139-1.641-0.387l0.021 0.010-1.711-0.841c-0.215-0.108-0.468-0.171-0.736-0.171s-0.521 0.063-0.746 0.176l0.010-0.004-1.711 0.841c-0.473 0.238-1.030 0.377-1.62 0.377-1.602 0-2.964-1.027-3.463-2.459l-0.008-0.026-0.613-1.805c-0.171-0.491-0.551-0.87-1.031-1.036l-0.012-0.004-1.804-0.615c-1.458-0.507-2.486-1.869-2.486-3.471 0-0.59 0.139-1.147 0.386-1.64l-0.010 0.021 0.843-1.711c0.108-0.215 0.171-0.468 0.171-0.736s-0.063-0.521-0.176-0.746l0.004 0.010-0.843-1.711c-0.238-0.472-0.377-1.030-0.377-1.619 0-1.602 1.028-2.965 2.461-3.464l0.026-0.008 1.804-0.613c0.491-0.171 0.871-0.551 1.038-1.031l0.004-0.012 0.613-1.804c0.507-1.458 1.869-2.486 3.471-2.486 0.423 0 0.829 0.072 1.208 0.204l-0.026-0.008zM20.625 11.959l-7.225 7.227-2.632-3.16c-0.185-0.231-0.467-0.378-0.783-0.378-0.552 0-1 0.448-1 1 0 0.253 0.094 0.484 0.248 0.66l-0.001-0.001 3.333 4c0.185 0.221 0.46 0.36 0.768 0.36 0.276 0 0.525-0.112 0.706-0.292l8-8c0.196-0.183 0.318-0.443 0.318-0.732 0-0.552-0.448-1-1-1-0.289 0-0.549 0.122-0.731 0.318l-0.001 0.001z"></path>
</svg>
