<!-- Generated by IcoMoon.io -->
<svg version="1.1" xmlns="http://www.w3.org/2000/svg" width="32" height="32" viewBox="0 0 32 32">
<title>checkmark-circle-filled</title>
<path d="M16 2.667c7.364 0 13.333 5.97 13.333 13.333s-5.97 13.333-13.333 13.333c-7.364 0-13.333-5.97-13.333-13.333s5.97-13.333 13.333-13.333zM20.293 11.96l-5.96 5.96-2.626-2.626c-0.391-0.391-1.024-0.391-1.414 0s-0.391 1.024 0 1.414l3.333 3.333c0.391 0.391 1.024 0.391 1.414 0l6.667-6.667c0.391-0.39 0.391-1.024 0-1.414s-1.024-0.391-1.414 0z"></path>
</svg>
