<!-- Generated by IcoMoon.io -->
<svg version="1.1" xmlns="http://www.w3.org/2000/svg" width="32" height="32" viewBox="0 0 32 32">
<title>checkmark-lock-filled</title>
<path d="M16 2.667c7.364 0 13.333 5.969 13.333 13.333 0 0.569-0.036 1.129-0.104 1.68-0.472-2.117-2.335-3.676-4.561-3.676-2.576 0-4.665 2.087-4.668 4.662v0.067c-1.532 0.321-2.667 1.661-2.667 3.266 0 0 0 0 0 0.001v-0 6.667c0 0.203 0.019 0.403 0.053 0.596-0.414 0.045-0.893 0.071-1.379 0.071-0.003 0-0.005 0-0.008 0h0c-7.364 0-13.333-5.969-13.333-13.333s5.969-13.333 13.333-13.333zM20.293 11.96l-5.96 5.96-2.627-2.627c-0.178-0.166-0.418-0.268-0.682-0.268-0.552 0-1 0.448-1 1 0 0.264 0.102 0.504 0.269 0.682l-0.001-0.001 3.333 3.333c0.181 0.181 0.431 0.292 0.707 0.292s0.526-0.112 0.707-0.292v0l6.667-6.667c0.196-0.183 0.318-0.443 0.318-0.732 0-0.552-0.448-1-1-1-0.289 0-0.549 0.122-0.731 0.318l-0.001 0.001zM24.667 15.333c1.841 0 3.333 1.492 3.333 3.333v0 1.333h0.723c1.080 0.031 1.944 0.914 1.944 1.999 0 0 0 0.001 0 0.001v-0 6.667c0 1.105-0.895 2-2 2v0h-8c-1.105 0-2-0.895-2-2v0-6.667c0-1.105 0.895-2 2-2v0h0.667v-1.333c0-1.841 1.492-3.333 3.333-3.333v0zM24.143 26.56c0.155 0.068 0.335 0.108 0.525 0.108 0.737 0 1.334-0.597 1.334-1.334 0-0.547-0.329-1.018-0.801-1.223l-0.009-0.003c-0.155-0.068-0.335-0.108-0.525-0.108-0.737 0-1.334 0.597-1.334 1.334 0 0.547 0.329 1.018 0.801 1.223l0.009 0.003zM23.333 18.667v1.333h2.667v-1.333c0-0.736-0.597-1.333-1.333-1.333s-1.333 0.597-1.333 1.333v0z"></path>
</svg>
