<!-- Generated by IcoMoon.io -->
<svg version="1.1" xmlns="http://www.w3.org/2000/svg" width="32" height="32" viewBox="0 0 32 32">
<title>check-filled</title>
<path d="M29.027 7.72c0.398-0.383 0.41-1.016 0.027-1.414s-1.016-0.41-1.414-0.027l-9 8.667c-0.398 0.383-0.41 1.016-0.027 1.414s1.016 0.41 1.414 0.027l9-8.667zM25.316 6.667h-19.249c-1.878 0-3.4 1.522-3.4 3.4v9.2c0 1.878 1.522 3.4 3.4 3.4h19.867c1.878 0 3.4-1.522 3.4-3.4v-9.2c0-0.246-0.026-0.486-0.076-0.717l-8.306 7.998c-0.928 0.894-2.405 0.866-3.299-0.062s-0.866-2.405 0.062-3.299l7.601-7.319zM6 12.333c0-0.552 0.448-1 1-1h2.667c0.552 0 1 0.448 1 1s-0.448 1-1 1h-2.667c-0.552 0-1-0.448-1-1zM6 17c0-0.552 0.448-1 1-1h6.667c0.552 0 1 0.448 1 1s-0.448 1-1 1h-6.667c-0.552 0-1-0.448-1-1z"></path>
</svg>
