<!-- Generated by IcoMoon.io -->
<svg version="1.1" xmlns="http://www.w3.org/2000/svg" width="32" height="32" viewBox="0 0 32 32">
<title>checkbox-arrow-right-filled</title>
<path d="M22.667 2.667c2.209 0 4 1.791 4 4v8.664c-1.026-0.428-2.152-0.664-3.333-0.664-4.787 0-8.667 3.88-8.667 8.667 0 1.181 0.236 2.307 0.664 3.333h-8.664c-2.209 0-4-1.791-4-4v-16c0-2.209 1.791-4 4-4h16zM20.626 9.293l-8.626 8.626-3.293-3.293c-0.391-0.391-1.024-0.391-1.414 0s-0.391 1.024 0 1.414l4 4c0.391 0.391 1.024 0.391 1.414 0l9.333-9.333c0.391-0.391 0.391-1.024 0-1.414s-1.024-0.391-1.414 0zM30.667 23.333c0 4.050-3.283 7.333-7.333 7.333s-7.333-3.283-7.333-7.333c0-4.050 3.283-7.333 7.333-7.333s7.333 3.283 7.333 7.333zM19.333 22.667c-0.368 0-0.667 0.299-0.667 0.667s0.299 0.667 0.667 0.667h6.391l-2.195 2.195c-0.26 0.26-0.26 0.683 0 0.943s0.683 0.26 0.943 0l3.333-3.333c0.26-0.26 0.26-0.683 0-0.943l-3.333-3.333c-0.26-0.26-0.683-0.26-0.943 0s-0.26 0.683 0 0.943l2.195 2.195h-6.391z"></path>
</svg>
