<!-- Generated by IcoMoon.io -->
<svg version="1.1" xmlns="http://www.w3.org/2000/svg" width="32" height="32" viewBox="0 0 32 32">
<title>checkmark-starburst-filled</title>
<path d="M13.114 2.712c0.15 0.051 0.297 0.112 0.439 0.182l1.71 0.842c0.464 0.229 1.008 0.229 1.472 0l1.71-0.842c1.817-0.894 4.015-0.147 4.909 1.67l0.098 0.216 0.084 0.222 0.614 1.805c0.167 0.49 0.551 0.875 1.041 1.041l1.805 0.614c1.917 0.652 2.943 2.735 2.291 4.652-0.051 0.15-0.112 0.297-0.182 0.439l-0.842 1.71c-0.229 0.464-0.229 1.008 0 1.472l0.842 1.71c0.895 1.817 0.147 4.015-1.67 4.909-0.142 0.070-0.289 0.131-0.439 0.182l-1.805 0.614c-0.49 0.167-0.874 0.551-1.041 1.041l-0.614 1.805c-0.652 1.917-2.735 2.943-4.652 2.291-0.15-0.051-0.297-0.112-0.439-0.182l-1.71-0.842c-0.464-0.229-1.008-0.229-1.472 0l-1.71 0.842c-1.817 0.895-4.015 0.147-4.909-1.67-0.070-0.142-0.131-0.289-0.182-0.439l-0.614-1.805c-0.167-0.49-0.551-0.874-1.041-1.041l-1.805-0.614c-1.917-0.652-2.943-2.735-2.29-4.652 0.051-0.15 0.112-0.297 0.182-0.439l0.842-1.71c0.229-0.464 0.229-1.008 0-1.472l-0.842-1.71c-0.894-1.817-0.147-4.015 1.67-4.909 0.142-0.070 0.289-0.131 0.439-0.182l1.805-0.614c0.49-0.167 0.875-0.551 1.041-1.041l0.614-1.805c0.652-1.917 2.735-2.943 4.652-2.29zM20.626 11.959l-7.226 7.226-2.632-3.159c-0.354-0.424-0.984-0.482-1.408-0.128s-0.482 0.984-0.128 1.408l3.333 4c0.376 0.452 1.060 0.483 1.475 0.067l8-8c0.391-0.39 0.391-1.024 0-1.414s-1.024-0.391-1.414 0z"></path>
</svg>
