<!-- Generated by IcoMoon.io -->
<svg version="1.1" xmlns="http://www.w3.org/2000/svg" width="32" height="32" viewBox="0 0 32 32">
<title>checkbox-unchecked-filled</title>
<path d="M4 8.333c0-2.393 1.94-4.333 4.333-4.333v0h15.333c2.393 0 4.333 1.94 4.333 4.333v0 15.333c0 2.393-1.94 4.333-4.333 4.333v0h-15.333c-2.393 0-4.333-1.94-4.333-4.333v0-15.333zM8.333 6.667c-0.92 0-1.667 0.747-1.667 1.667v15.333c0 0.92 0.747 1.667 1.667 1.667h15.333c0.92 0 1.667-0.747 1.667-1.667v-15.333c0-0.92-0.747-1.667-1.667-1.667h-15.333z"></path>
</svg>
