<!-- Generated by IcoMoon.io -->
<svg version="1.1" xmlns="http://www.w3.org/2000/svg" width="32" height="32" viewBox="0 0 32 32">
<title>chess-filled</title>
<path d="M16.8 3.2c-0.442 0-0.8 0.358-0.8 0.8v0 4.16c0 2.203 1.483 4.058 3.504 4.624-0.352 4.384-1.619 7.656-2.658 9.674 0.294 0.346 0.571 0.603 0.787 0.784 0.83 0.694 1.566 1.826 1.566 3.237 0 0.002 0 0.003 0 0.005 0 0.872-0.286 1.677-0.769 2.327l0.007-0.010h8.762c1.325 0 2.4-1.075 2.4-2.4v0-0.491c0-0.557-0.19-1.070-0.483-1.491-0.864-1.243-3.31-5.264-3.822-11.635 2.039-0.585 3.505-2.432 3.506-4.622v-4.16c0-0.442-0.358-0.8-0.8-0.8v0h-1.2c-0.663 0-1.2 0.537-1.2 1.2v0 1.2c0 0 0 0.001 0 0.002 0 0.442-0.358 0.8-0.8 0.8s-0.799-0.357-0.8-0.798v-0.003l-0.006-1.206c-0.004-0.66-0.54-1.194-1.2-1.194 0 0 0 0-0 0h-0.787c0 0 0 0-0 0-0.66 0-1.196 0.534-1.2 1.193v0l-0.006 1.21c-0.001 0.441-0.359 0.798-0.8 0.798s-0.8-0.358-0.8-0.8c0-0.001 0-0.001 0-0.002v0-1.2c0-0.663-0.537-1.2-1.2-1.2v0h-1.2zM10.4 8c-2.651 0-4.8 2.149-4.8 4.8 0 1.232 0.464 2.355 1.226 3.204l-0.004-0.004h-0.422c-0.884 0-1.6 0.716-1.6 1.6s0.716 1.6 1.6 1.6v0h0.832c-0.595 2.877-2.165 4.538-3.040 5.269-0.554 0.464-0.992 1.178-0.992 2.010 0 1.282 1.040 2.322 2.322 2.322h9.758c1.28 0 2.32-1.040 2.32-2.322 0-0.832-0.438-1.546-0.992-2.010-0.875-0.731-2.445-2.392-3.040-5.269h0.832c0.884 0 1.6-0.716 1.6-1.6s-0.716-1.6-1.6-1.6v0h-0.422c0.758-0.845 1.222-1.968 1.222-3.2 0-2.651-2.149-4.8-4.8-4.8v0z"></path>
</svg>
