<!-- Generated by IcoMoon.io -->
<svg version="1.1" xmlns="http://www.w3.org/2000/svg" width="32" height="32" viewBox="0 0 32 32">
<title>chevron-double-right-filled</title>
<path d="M13.973 6.731c0.215-0.205 0.506-0.331 0.827-0.331 0.342 0 0.65 0.143 0.868 0.372l0 0 8.002 8.4c0.205 0.215 0.331 0.507 0.331 0.828s-0.126 0.613-0.332 0.828l0-0-8 8.4c-0.219 0.23-0.528 0.373-0.87 0.373-0.663 0-1.2-0.537-1.2-1.2 0-0.321 0.126-0.612 0.331-0.828l-0 0 7.213-7.574-7.213-7.573c-0.205-0.215-0.331-0.506-0.331-0.827 0-0.342 0.143-0.65 0.372-0.868l0-0zM7.573 6.731c0.215-0.205 0.506-0.331 0.827-0.331 0.342 0 0.65 0.143 0.868 0.372l0 0 8.002 8.4c0.205 0.215 0.331 0.507 0.331 0.828s-0.126 0.613-0.332 0.828l0-0-8 8.4c-0.219 0.23-0.528 0.373-0.87 0.373-0.663 0-1.2-0.537-1.2-1.2 0-0.321 0.126-0.612 0.331-0.828l-0 0 7.214-7.574-7.216-7.574c-0.204-0.215-0.33-0.506-0.33-0.826 0-0.342 0.143-0.651 0.373-0.869l0-0z"></path>
</svg>
