<!-- Generated by IcoMoon.io -->
<svg version="1.1" xmlns="http://www.w3.org/2000/svg" width="32" height="32" viewBox="0 0 32 32">
<title>chevron-right-filled</title>
<path d="M10.627 26.207c-0.181-0.181-0.292-0.431-0.292-0.707s0.112-0.526 0.292-0.707v0l8.959-8.96-8.96-8.96c-0.174-0.18-0.28-0.425-0.28-0.694 0-0.552 0.448-1 1-1 0.27 0 0.515 0.107 0.695 0.281l-0-0 9.667 9.667c0.181 0.181 0.292 0.431 0.292 0.707s-0.112 0.526-0.292 0.707v0l-9.667 9.667c-0.181 0.181-0.431 0.293-0.707 0.293s-0.526-0.112-0.707-0.293v0z"></path>
</svg>
