<!-- Generated by IcoMoon.io -->
<svg version="1.1" xmlns="http://www.w3.org/2000/svg" width="32" height="32" viewBox="0 0 32 32">
<title>chevron-double-down-filled</title>
<path d="M25.27 13.973c0.205 0.215 0.331 0.506 0.331 0.827 0 0.342-0.143 0.65-0.372 0.868l-0 0-8.4 8.002c-0.215 0.205-0.507 0.331-0.828 0.331s-0.613-0.126-0.828-0.332l0 0-8.4-8c-0.23-0.219-0.373-0.528-0.373-0.87 0-0.663 0.537-1.2 1.2-1.2 0.321 0 0.612 0.126 0.828 0.331l-0.001-0 7.574 7.213 7.573-7.213c0.215-0.205 0.506-0.331 0.827-0.331 0.342 0 0.65 0.143 0.868 0.372l0 0zM25.27 7.573c0.205 0.215 0.331 0.506 0.331 0.827 0 0.342-0.143 0.65-0.372 0.868l-0 0-8.4 8.002c-0.215 0.205-0.507 0.331-0.828 0.331s-0.613-0.126-0.828-0.332l0 0-8.4-8c-0.23-0.219-0.373-0.528-0.373-0.87 0-0.663 0.537-1.2 1.2-1.2 0.321 0 0.612 0.126 0.828 0.331l-0.001-0 7.574 7.214 7.573-7.216c0.215-0.204 0.506-0.33 0.826-0.33 0.342 0 0.651 0.143 0.869 0.373l0 0z"></path>
</svg>
