<!-- Generated by IcoMoon.io -->
<svg version="1.1" xmlns="http://www.w3.org/2000/svg" width="32" height="32" viewBox="0 0 32 32">
<title>chevron-circle-right-filled</title>
<path d="M2.667 16c0-7.364 5.97-13.333 13.333-13.333s13.333 5.97 13.333 13.333c0 7.364-5.97 13.333-13.333 13.333s-13.333-5.97-13.333-13.333zM13.919 22.040c0.391 0.391 1.024 0.391 1.414 0l5.333-5.333c0.391-0.391 0.391-1.024 0-1.414l-5.333-5.333c-0.391-0.391-1.024-0.391-1.414 0s-0.391 1.024 0 1.414l4.626 4.626-4.626 4.626c-0.391 0.391-0.391 1.024 0 1.414z"></path>
</svg>
