<!-- Generated by IcoMoon.io -->
<svg version="1.1" xmlns="http://www.w3.org/2000/svg" width="32" height="32" viewBox="0 0 32 32">
<title>chevron-up-down-filled</title>
<path d="M25.053 11.183c0.174 0.223 0.279 0.507 0.279 0.816 0 0.736-0.597 1.333-1.333 1.333-0.367 0-0.7-0.149-0.941-0.389l-7.057-7.057-7.057 7.057-0.125 0.111c-0.223 0.174-0.507 0.279-0.816 0.279-0.736 0-1.333-0.597-1.333-1.333 0-0.367 0.149-0.7 0.389-0.941l8-8 0.125-0.111c0.223-0.175 0.508-0.28 0.817-0.28 0.368 0 0.701 0.149 0.943 0.39l8 8 0.111 0.125zM6.947 20.817c-0.174-0.223-0.279-0.507-0.279-0.816 0-0.736 0.597-1.333 1.333-1.333 0.367 0 0.7 0.149 0.941 0.389l7.057 7.057 7.057-7.057 0.125-0.111c0.223-0.174 0.507-0.279 0.816-0.279 0.736 0 1.333 0.597 1.333 1.333 0 0.367-0.149 0.7-0.389 0.941l-8 8-0.125 0.111c-0.223 0.174-0.508 0.28-0.817 0.28-0.368 0-0.701-0.149-0.943-0.39l-8-8-0.111-0.125z"></path>
</svg>
