<!-- Generated by IcoMoon.io -->
<svg version="1.1" xmlns="http://www.w3.org/2000/svg" width="32" height="32" viewBox="0 0 32 32">
<title>chevron-double-left-filled</title>
<path d="M18.030 25.27c-0.215 0.205-0.506 0.331-0.827 0.331-0.342 0-0.65-0.143-0.868-0.372l-0-0-8.003-8.4c-0.205-0.215-0.331-0.507-0.331-0.828s0.126-0.613 0.332-0.828l-0 0 8.002-8.4c0.22-0.243 0.537-0.395 0.89-0.395 0.663 0 1.2 0.537 1.2 1.2 0 0.332-0.135 0.632-0.352 0.849l-0 0-7.213 7.574 7.213 7.573c0.205 0.215 0.331 0.507 0.331 0.828 0 0.341-0.142 0.649-0.371 0.868l-0 0zM24.43 25.272c-0.215 0.205-0.506 0.331-0.827 0.331-0.342 0-0.65-0.143-0.868-0.372l-0-0-8.002-8.4c-0.205-0.215-0.331-0.507-0.331-0.828s0.126-0.613 0.332-0.828l-0 0 8.002-8.4c0.22-0.243 0.537-0.395 0.89-0.395 0.663 0 1.2 0.537 1.2 1.2 0 0.332-0.135 0.632-0.352 0.849l-0 0-7.213 7.573 7.213 7.574c0.205 0.215 0.331 0.507 0.331 0.828 0 0.341-0.142 0.649-0.371 0.868l-0 0z"></path>
</svg>
