<!-- Generated by IcoMoon.io -->
<svg version="1.1" xmlns="http://www.w3.org/2000/svg" width="32" height="32" viewBox="0 0 32 32">
<title>chevron-circle-right-filled</title>
<path d="M16 2.667c7.364 0 13.333 5.969 13.333 13.333s-5.969 13.333-13.333 13.333-13.333-5.969-13.333-13.333 5.969-13.333 13.333-13.333zM13.577 21.744c-0.151 0.151-0.244 0.359-0.244 0.589 0 0.46 0.373 0.833 0.833 0.833 0.23 0 0.438-0.093 0.589-0.244v0l6.333-6.333c0.151-0.151 0.244-0.359 0.244-0.589s-0.093-0.439-0.244-0.589l-6.333-6.333c-0.151-0.151-0.359-0.244-0.589-0.244-0.46 0-0.833 0.373-0.833 0.833 0 0.23 0.093 0.438 0.244 0.589v0l5.744 5.744-5.744 5.744z"></path>
</svg>
