<!-- Generated by IcoMoon.io -->
<svg version="1.1" xmlns="http://www.w3.org/2000/svg" width="32" height="32" viewBox="0 0 32 32">
<title>chevron-double-up-filled</title>
<path d="M6.731 24.427c-0.205-0.215-0.331-0.506-0.331-0.827 0-0.342 0.143-0.65 0.372-0.868l0-0 8.4-8.002c0.215-0.205 0.506-0.331 0.827-0.331s0.612 0.126 0.828 0.331l-0-0 8.4 8c0.23 0.219 0.373 0.528 0.373 0.87 0 0.663-0.537 1.2-1.2 1.2-0.321 0-0.612-0.126-0.828-0.331l0 0-7.573-7.214-7.573 7.216c-0.215 0.204-0.506 0.33-0.826 0.33-0.342 0-0.651-0.143-0.869-0.373l-0-0zM6.731 16.43c-0.205-0.215-0.331-0.506-0.331-0.827 0-0.342 0.143-0.65 0.372-0.868l0-0 8.4-8.003c0.215-0.205 0.506-0.331 0.827-0.331s0.612 0.126 0.828 0.331l-0-0 8.4 8.002c0.217 0.217 0.351 0.517 0.351 0.848 0 0.663-0.537 1.2-1.2 1.2-0.31 0-0.593-0.118-0.806-0.311l0.001 0.001-7.573-7.213-7.573 7.213c-0.215 0.205-0.507 0.331-0.828 0.331-0.341 0-0.649-0.142-0.868-0.371l-0-0z"></path>
</svg>
