<!-- Generated by IcoMoon.io -->
<svg version="1.1" xmlns="http://www.w3.org/2000/svg" width="32" height="32" viewBox="0 0 32 32">
<title>chevron-up-filled</title>
<path d="M26.373 21.373c-0.181 0.181-0.431 0.292-0.707 0.292s-0.526-0.112-0.707-0.292v0l-8.96-8.959-8.96 8.96c-0.18 0.174-0.425 0.28-0.694 0.28-0.552 0-1-0.448-1-1 0-0.27 0.107-0.515 0.281-0.695l-0 0 9.667-9.667c0.181-0.181 0.431-0.292 0.707-0.292s0.526 0.112 0.707 0.292v0l9.667 9.667c0.181 0.181 0.293 0.431 0.293 0.707s-0.112 0.526-0.293 0.707v0z"></path>
</svg>
