<!-- Generated by IcoMoon.io -->
<svg version="1.1" xmlns="http://www.w3.org/2000/svg" width="32" height="32" viewBox="0 0 32 32">
<title>chevron-up-down-filled</title>
<path d="M25.054 11.183c0.407 0.523 0.37 1.279-0.111 1.76-0.521 0.521-1.365 0.521-1.886 0l-7.057-7.057-7.057 7.057-0.126 0.111c-0.523 0.407-1.279 0.37-1.76-0.111-0.521-0.521-0.521-1.365 0-1.886l8-8 0.126-0.111c0.523-0.407 1.279-0.37 1.76 0.111l8 8 0.111 0.126zM6.946 20.817c-0.407-0.523-0.37-1.279 0.111-1.76 0.521-0.521 1.365-0.521 1.886 0l7.057 7.057 7.057-7.057 0.126-0.111c0.523-0.407 1.279-0.37 1.76 0.111 0.521 0.521 0.521 1.365 0 1.886l-8 8-0.126 0.111c-0.523 0.407-1.279 0.37-1.76-0.111l-8-8-0.111-0.126z"></path>
</svg>
