<!-- Generated by IcoMoon.io -->
<svg version="1.1" xmlns="http://www.w3.org/2000/svg" width="32" height="32" viewBox="0 0 32 32">
<title>circle-edit-filled</title>
<path d="M27.62 14.667c0.57 0 1.14 0.111 1.676 0.333-0.511-6.897-6.269-12.333-13.296-12.333-7.364 0-13.333 5.97-13.333 13.333 0 6.913 5.26 12.597 11.996 13.267-0.003-0.236 0.024-0.479 0.085-0.724l0.61-2.441c0.216-0.864 0.663-1.653 1.292-2.283l7.87-7.87c0.855-0.855 1.978-1.283 3.096-1.283h0.003zM27.62 16h-0.003c-0.779 0-1.559 0.298-2.154 0.893l-7.87 7.87c-0.459 0.459-0.784 1.034-0.942 1.663l-0.61 2.441c-0.265 1.061 0.696 2.023 1.758 1.758l2.441-0.61c0.63-0.157 1.205-0.483 1.663-0.942l7.87-7.87c1.19-1.19 1.19-3.12 0-4.31-0.595-0.595-1.374-0.892-2.153-0.893z"></path>
</svg>
