<!-- Generated by IcoMoon.io -->
<svg version="1.1" xmlns="http://www.w3.org/2000/svg" width="32" height="32" viewBox="0 0 32 32">
<title>circle-eraser-filled</title>
<path d="M13.971 27.477c-0.724-0.724-1.172-1.724-1.172-2.829s0.448-2.105 1.172-2.829l7.84-7.84c0.724-0.724 1.724-1.172 2.829-1.172s2.105 0.448 2.829 1.172l1.28 1.28c-0.4-6.742-5.965-12.057-12.771-12.057-7.065 0-12.792 5.727-12.792 12.792 0 6.806 5.316 12.371 12.022 12.769l0.035 0.002-1.272-1.288zM26.35 15.102l3.352 3.36c0.435 0.434 0.704 1.034 0.704 1.698s-0.269 1.263-0.704 1.698l-5.76 5.76-6.746-6.747 5.76-5.76c0.434-0.435 1.035-0.704 1.698-0.704s1.263 0.269 1.698 0.703v0l-0.002-0.008zM22.811 28.739l-6.746-6.747-0.96 0.96c-0.435 0.434-0.704 1.035-0.704 1.698s0.269 1.263 0.703 1.698v0l3.36 3.352c0.434 0.434 1.034 0.703 1.697 0.703 0.032 0 0.064-0.001 0.095-0.002l-0.005 0h6.547c0.442 0 0.8-0.358 0.8-0.8s-0.358-0.8-0.8-0.8v0h-4.050l0.061-0.061z"></path>
</svg>
