<!-- Generated by IcoMoon.io -->
<svg version="1.1" xmlns="http://www.w3.org/2000/svg" width="32" height="32" viewBox="0 0 32 32">
<title>circle-edit-filled</title>
<path d="M27.62 14.667c0.569 0 1.14 0.112 1.676 0.333-0.536-6.921-6.284-12.333-13.296-12.333-0 0-0 0-0 0v0c-7.364 0-13.333 5.969-13.333 13.333 0 6.912 5.26 12.596 11.996 13.267-0-0.010-0-0.022-0-0.034 0-0.245 0.031-0.483 0.090-0.709l-0.004 0.020 0.611-2.44c0.216-0.864 0.663-1.653 1.293-2.283l7.869-7.871c0.792-0.792 1.886-1.283 3.094-1.283 0.001 0 0.001 0 0.002 0h0.003z"></path>
<path d="M27.62 16h-0.003c-0.78 0-1.56 0.297-2.153 0.893l-7.869 7.869c-0.446 0.446-0.775 1.008-0.937 1.638l-0.005 0.025-0.611 2.441c-0.027 0.106-0.043 0.227-0.043 0.352 0 0.8 0.649 1.449 1.449 1.449 0.125 0 0.247-0.016 0.363-0.046l-0.010 0.002 2.44-0.609c0.655-0.167 1.218-0.496 1.664-0.943l7.869-7.869c0.552-0.552 0.894-1.314 0.894-2.156 0-1.683-1.364-3.047-3.047-3.047-0 0-0 0-0.001 0h0z"></path>
</svg>
