<!-- Generated by IcoMoon.io -->
<svg version="1.1" xmlns="http://www.w3.org/2000/svg" width="32" height="32" viewBox="0 0 32 32">
<title>circle-multiple-subtract-checkmark-filled</title>
<path d="M20.667 9.6c-6.082 0.074-10.993 4.985-11.067 11.060l-0 0.007c-4.557-0.806-7.974-4.736-7.974-9.464 0-5.294 4.283-9.587 9.573-9.603h0.002c4.737 0.001 8.672 3.431 9.459 7.943l0.008 0.057zM14.598 9.6h-7.398c-0.442 0-0.8 0.358-0.8 0.8s0.358 0.8 0.8 0.8v0h5.133c0.665-0.589 1.407-1.119 2.201-1.567l0.064-0.033zM30.4 20.8c0 5.302-4.298 9.6-9.6 9.6s-9.6-4.298-9.6-9.6v0c0-5.302 4.298-9.6 9.6-9.6s9.6 4.298 9.6 9.6v0zM25.366 17.834c-0.145-0.145-0.345-0.235-0.566-0.235s-0.422 0.090-0.566 0.235l-4.234 4.235-1.834-1.835c-0.145-0.145-0.345-0.235-0.566-0.235-0.442 0-0.801 0.359-0.801 0.801 0 0.221 0.090 0.421 0.235 0.566v0l2.4 2.4c0.145 0.145 0.345 0.235 0.566 0.235s0.422-0.090 0.566-0.235l4.8-4.8c0.145-0.145 0.235-0.345 0.235-0.566s-0.090-0.422-0.235-0.566l-0-0z"></path>
</svg>
