<!-- Generated by IcoMoon.io -->
<svg version="1.1" xmlns="http://www.w3.org/2000/svg" width="32" height="32" viewBox="0 0 32 32">
<title>city-filled</title>
<path d="M17 3.663c0-0.552-0.448-1-1-1s-1 0.448-1 1v1.671h-2.667c-1.289 0-2.333 1.045-2.333 2.333v2.873c2.026-0.184 4 1.382 4 3.658v14.136c0 0.035-0.001 0.070-0.002 0.104v0.896h4v-1.667h0.002v-10c0-2.025 1.642-3.667 3.667-3.667h0.333v-6.333c0-1.289-1.045-2.333-2.333-2.333h-2.667v-1.671z"></path>
<path d="M19.331 29.334h5.669c1.289 0 2.333-1.045 2.333-2.333v-9.333c0-1.289-1.045-2.333-2.333-2.333h-3.333c-1.289 0-2.333 1.045-2.333 2.333v10h-0.002v1.667z"></path>
<path d="M12.667 27.667h-0.002v0.735l-0 0.002v0.93h-5.664c-1.289 0-2.333-1.045-2.333-2.333v-10.614c0-0.786 0.396-1.519 1.053-1.95l3.333-2.189c1.552-1.019 3.614 0.094 3.614 1.95v13.469z"></path>
</svg>
