<!-- Generated by IcoMoon.io -->
<svg version="1.1" xmlns="http://www.w3.org/2000/svg" width="32" height="32" viewBox="0 0 32 32">
<title>city-filled</title>
<path d="M17 3.661c0-0.552-0.448-1-1-1s-1 0.448-1 1v0 1.672h-2.667c-1.289 0-2.333 1.045-2.333 2.333v0 2.873c2.027-0.184 4 1.381 4 3.657v14.136c0 0.036 0 0.071-0.003 0.104v0.896h4v-1.667h0.003v-10c0-2.025 1.642-3.667 3.667-3.667v0h0.333v-6.333c0-1.289-1.045-2.333-2.333-2.333v0h-2.667v-1.672zM19.331 29.333h5.669c1.289 0 2.333-1.045 2.333-2.333v0-9.333c0-1.289-1.045-2.333-2.333-2.333v0h-3.333c-1.289 0-2.333 1.045-2.333 2.333v0 10h-0.003v1.667zM12.667 27.667h-0.003v1.667h-5.664c-1.289 0-2.333-1.045-2.333-2.333v0-10.613c0-0.787 0.396-1.52 1.053-1.951l3.333-2.188c1.551-1.020 3.613 0.093 3.613 1.949v13.469z"></path>
</svg>
