<!-- Generated by IcoMoon.io -->
<svg version="1.1" xmlns="http://www.w3.org/2000/svg" width="32" height="32" viewBox="0 0 32 32">
<title>class-filled</title>
<path d="M23 2.667c2.025 0 3.667 1.642 3.667 3.667v0 19.333c0 2.025-1.642 3.667-3.667 3.667v0h-14c-2.025 0-3.667-1.642-3.667-3.667 0-0 0-0.001 0-0.001v0-19.332c0-2.025 1.642-3.667 3.667-3.667v0h0.388v10.889c0 0.997 1.053 1.352 1.759 0.987l0.12-0.073 2.791-1.596 2.853 1.64c0.595 0.411 1.681 0.133 1.8-0.787l0.011-0.171v-10.889h4.28zM16.721 2.667v9.435l-2.161-1.243c-0.146-0.066-0.318-0.104-0.498-0.104-0.204 0-0.397 0.049-0.567 0.137l0.007-0.003-0.143 0.084-1.972 1.128v-9.433h5.333z"></path>
</svg>
