<!-- Generated by IcoMoon.io -->
<svg version="1.1" xmlns="http://www.w3.org/2000/svg" width="32" height="32" viewBox="0 0 32 32">
<title>clear-formatting-filled</title>
<path d="M23.333 16c4.050 0 7.333 3.283 7.333 7.333s-3.283 7.333-7.333 7.333c-4.050 0-7.333-3.283-7.333-7.333s3.283-7.333 7.333-7.333zM4 25.333l10.899 0.001c0.227 0.961 0.614 1.86 1.131 2.667l-12.030-0.002c-0.736 0-1.333-0.597-1.333-1.333 0-0.684 0.515-1.247 1.178-1.324l0.155-0.009zM20.124 19.955l-0.092 0.077-0.077 0.092c-0.157 0.227-0.157 0.531 0 0.758l0.077 0.092 2.359 2.359-2.356 2.356-0.077 0.092c-0.157 0.227-0.157 0.531 0 0.758l0.077 0.092 0.092 0.077c0.227 0.157 0.531 0.157 0.758 0l0.092-0.077 2.356-2.356 2.359 2.359 0.092 0.077c0.227 0.157 0.531 0.157 0.758 0l0.092-0.077 0.077-0.092c0.157-0.227 0.157-0.531 0-0.758l-0.077-0.092-2.359-2.359 2.363-2.359 0.077-0.092c0.157-0.227 0.157-0.531 0-0.758l-0.077-0.092-0.092-0.077c-0.227-0.157-0.531-0.157-0.758 0l-0.092 0.077-2.362 2.359-2.359-2.359-0.092-0.077c-0.195-0.135-0.446-0.154-0.657-0.058l-0.102 0.058zM21.335 4c0.771 0 1.37 0.648 1.332 1.397l-0.016 0.151-0.327 2c-0.119 0.727-0.804 1.22-1.531 1.101-0.675-0.11-1.148-0.709-1.117-1.376l0.016-0.155 0.074-0.451h-4.523l-2.347 14.667h0.437c0.684 0 1.247 0.515 1.324 1.178l0.009 0.155c0 0.684-0.515 1.247-1.178 1.324l-0.155 0.009h-4c-0.736 0-1.333-0.597-1.333-1.333 0-0.684 0.515-1.247 1.178-1.324l0.155-0.009h0.863l2.347-14.667h-4.748l-0.148 0.886c-0.121 0.726-0.809 1.217-1.535 1.095-0.674-0.113-1.145-0.713-1.112-1.38l0.017-0.155 0.334-2c0.098-0.589 0.574-1.034 1.154-1.104l0.161-0.010h14.669z"></path>
</svg>
