<!-- Generated by IcoMoon.io -->
<svg version="1.1" xmlns="http://www.w3.org/2000/svg" width="32" height="32" viewBox="0 0 32 32">
<title>clipboard-text-edit-filled</title>
<path d="M23.5 4h-1.67c-0.425-1.175-1.531-2-2.829-2-0 0-0.001 0-0.001 0h-6c-0 0-0.001 0-0.001 0-1.299 0-2.405 0.825-2.823 1.979l-0.007 0.021h-1.67c-1.933 0-3.5 1.567-3.5 3.5v0 19c0 1.933 1.567 3.5 3.5 3.5v0h5.546c-0.032-0.149-0.050-0.32-0.050-0.496 0-0.225 0.030-0.443 0.086-0.651l-0.004 0.017 0.791-3.051c0.188-0.712 0.539-1.325 1.012-1.822l-0.002 0.002h-4.879c-0.552 0-1-0.448-1-1s0.448-1 1-1v0h6.86l6.652-6.706c0.65-0.657 1.507-1.109 2.464-1.249l0.024-0.003v-6.542c0-1.933-1.567-3.5-3.5-3.5v0zM13 4h6c0.552 0 1 0.448 1 1s-0.448 1-1 1v0h-6c-0.552 0-1-0.448-1-1s0.448-1 1-1v0zM10 13c0-0.552 0.448-1 1-1v0h10c0.552 0 1 0.448 1 1s-0.448 1-1 1v0h-10c-0.552 0-1-0.448-1-1v0zM11 17h5c0.552 0 1 0.448 1 1s-0.448 1-1 1v0h-5c-0.552 0-1-0.448-1-1s0.448-1 1-1v0zM29.652 20.425l-8.613 8.543c-0.352 0.349-0.79 0.598-1.27 0.721l-3.020 0.778c-0.075 0.020-0.161 0.032-0.25 0.032-0.552 0-1-0.448-1-1 0-0.090 0.012-0.176 0.034-0.259l-0.002 0.007 0.79-3.051c0.118-0.456 0.355-0.872 0.687-1.206l8.57-8.64c0.521-0.521 1.242-0.844 2.037-0.844 1.591 0 2.881 1.29 2.881 2.881 0 0.796-0.323 1.516-0.844 2.038v0z"></path>
</svg>
