<!-- Generated by IcoMoon.io -->
<svg version="1.1" xmlns="http://www.w3.org/2000/svg" width="32" height="32" viewBox="0 0 32 32">
<title>clipboard-link-filled</title>
<path d="M13.667 2.667h4.667c1.539 0 2.808 1.159 2.98 2.653l0.001 0.014h2.352c1.657 0 3 1.343 3 3v0 10.333h-6.667c-3.682 0-6.667 2.985-6.667 6.667 0 1.508 0.501 2.9 1.345 4.017l-0.012-0.017h-6.333c-1.657 0-3-1.343-3-3v0-18c0-1.657 1.343-3 3-3v0h2.352c0.173-1.507 1.442-2.667 2.981-2.667v0zM18.333 4.667h-4.667c-0.552 0-1 0.448-1 1s0.448 1 1 1v0h4.667c0.552 0 1-0.448 1-1s-0.448-1-1-1v0zM30.667 25.333c0-2.946-2.388-5.333-5.333-5.333v0l-0.136 0.009c-0.491 0.069-0.864 0.486-0.864 0.991 0 0.552 0.448 1 1 1h0l0.219 0.007c1.748 0.114 3.123 1.56 3.123 3.327 0 1.841-1.492 3.333-3.333 3.333-0.003 0-0.006 0-0.009 0h0l-0.136 0.009c-0.491 0.069-0.864 0.486-0.864 0.991 0 0.552 0.448 1 1 1h0l0.267-0.007c2.828-0.146 5.067-2.475 5.067-5.327 0 0 0 0 0 0v0zM21 21c0-0.552-0.448-1-1-1v0l-0.267 0.007c-2.829 0.146-5.067 2.475-5.067 5.327 0 2.946 2.388 5.333 5.333 5.333 0 0 0 0 0 0v0l0.136-0.009c0.491-0.069 0.864-0.486 0.864-0.991 0-0.552-0.448-1-1-1h-0l-0.219-0.007c-1.748-0.114-3.123-1.56-3.123-3.327 0-1.841 1.492-3.333 3.333-3.333 0.003 0 0.006 0 0.009 0h-0l0.136-0.009c0.491-0.069 0.864-0.486 0.864-0.991v0zM25 24.333h-4.667l-0.136 0.009c-0.491 0.069-0.864 0.486-0.864 0.991 0 0.552 0.448 1 1 1h4.667l0.136-0.009c0.491-0.069 0.864-0.486 0.864-0.991 0-0.552-0.448-1-1-1h-0z"></path>
</svg>
