<!-- Generated by IcoMoon.io -->
<svg version="1.1" xmlns="http://www.w3.org/2000/svg" width="32" height="32" viewBox="0 0 32 32">
<title>clipboard-3-day-filled</title>
<path d="M18.333 2.667h-4.667c-1.539 0-2.808 1.159-2.98 2.653l-0.001 0.014h-2.352c-1.657 0-3 1.343-3 3v0 18c0 1.657 1.343 3 3 3v0h15.333c1.657 0 3-1.343 3-3v0-18c0-1.657-1.343-3-3-3v0h-2.352c-0.173-1.507-1.442-2.667-2.981-2.667v0zM13.667 4.667h4.667c0.552 0 1 0.448 1 1s-0.448 1-1 1v0h-4.667c-0.552 0-1-0.448-1-1s0.448-1 1-1v0zM10.667 23v-10c0-0.552 0.448-1 1-1s1 0.448 1 1v0 10c0 0.552-0.448 1-1 1s-1-0.448-1-1v0zM20.333 24c-0.552 0-1-0.448-1-1v0-10c0-0.552 0.448-1 1-1s1 0.448 1 1v0 10c0 0.552-0.448 1-1 1v0zM15 23v-10c0-0.552 0.448-1 1-1s1 0.448 1 1v0 10c0 0.552-0.448 1-1 1s-1-0.448-1-1v0z"></path>
</svg>
