<!-- Generated by IcoMoon.io -->
<svg version="1.1" xmlns="http://www.w3.org/2000/svg" width="32" height="32" viewBox="0 0 32 32">
<title>clipboard-clock-filled</title>
<path d="M15.167 18.16c0 0.46 0.373 0.833 0.833 0.833l0.084-0.004 0.083 0.004h1.667c0.46 0 0.833-0.373 0.833-0.833s-0.373-0.833-0.833-0.833v0h-1v-2.167c0-0.46-0.373-0.833-0.833-0.833s-0.833 0.373-0.833 0.833v0 3zM18.333 2.667h-4.667c-1.539 0-2.808 1.159-2.98 2.653l-0.001 0.014h-2.352c-1.657 0-3 1.343-3 3v0 18c0 1.657 1.343 3 3 3v0h15.333c1.657 0 3-1.343 3-3v0-18c0-1.657-1.343-3-3-3v0h-2.352c-0.173-1.507-1.442-2.667-2.981-2.667v0zM13.667 4.667h4.667c0.552 0 1 0.448 1 1s-0.448 1-1 1v0h-4.667c-0.552 0-1-0.448-1-1s0.448-1 1-1v0zM16 11c3.498 0 6.333 2.836 6.333 6.333s-2.836 6.333-6.333 6.333v0c-3.498 0-6.333-2.836-6.333-6.333s2.836-6.333 6.333-6.333v0z"></path>
</svg>
