<!-- Generated by IcoMoon.io -->
<svg version="1.1" xmlns="http://www.w3.org/2000/svg" width="32" height="32" viewBox="0 0 32 32">
<title>clipboard-image-filled</title>
<path d="M18.333 4.667h-4.667c-0.552 0-1 0.448-1 1s0.448 1 1 1v0h4.667c0.552 0 1-0.448 1-1s-0.448-1-1-1v0zM13.667 2.667h4.667c1.539 0 2.808 1.159 2.98 2.653l0.001 0.014h2.352c1.657 0 3 1.343 3 3v0 6.333h-6.667c-2.946 0-5.333 2.388-5.333 5.333v0 6.667c0 0.972 0.26 1.883 0.713 2.667h-7.047c-1.657 0-3-1.343-3-3v0-18c0-1.657 1.343-3 3-3v0h2.352c0.173-1.507 1.442-2.667 2.981-2.667v0zM20 16c-2.209 0-4 1.791-4 4v0 6.667c0 0.741 0.201 1.436 0.553 2.032l4.659-4.659c0.543-0.543 1.293-0.879 2.121-0.879s1.578 0.336 2.121 0.879l4.659 4.659c0.352-0.596 0.553-1.291 0.553-2.032v-6.667c0-2.209-1.791-4-4-4v0h-6.667zM20 30.667c-0.002 0-0.005 0-0.008 0-0.747 0-1.445-0.206-2.043-0.563l0.018 0.010 4.659-4.659c0.181-0.181 0.431-0.292 0.707-0.292s0.526 0.112 0.707 0.292v0l4.659 4.659c-0.579 0.348-1.278 0.553-2.024 0.553-0.003 0-0.005 0-0.008 0h-6.666zM26.667 21.333c-0.736 0-1.333-0.597-1.333-1.333s0.597-1.333 1.333-1.333v0c0.736 0 1.333 0.597 1.333 1.333s-0.597 1.333-1.333 1.333v0z"></path>
</svg>
