<!-- Generated by IcoMoon.io -->
<svg version="1.1" xmlns="http://www.w3.org/2000/svg" width="32" height="32" viewBox="0 0 32 32">
<title>clipboard-code-filled</title>
<path d="M13.667 2.667h4.667c1.544 0 2.815 1.166 2.982 2.666l2.352 0.001c1.657 0 3 1.343 3 3v9.948c-0.022-0.989-0.676-1.892-1.675-2.186-1.236-0.364-2.533 0.344-2.897 1.58l-0.684 2.325h-0.969c-0.13-0.275-0.317-0.529-0.559-0.744-0.963-0.856-2.438-0.769-3.294 0.194l-2.667 3c-0.786 0.884-0.786 2.216 0 3.1l2.667 3c0.457 0.514 1.091 0.779 1.729 0.783h-9.985c-1.657 0-3-1.343-3-3v-18c0-1.657 1.343-3 3-3l2.352-0.001c0.166-1.5 1.438-2.666 2.982-2.666zM18.333 4.667h-4.667c-0.552 0-1 0.448-1 1s0.448 1 1 1h4.667c0.552 0 1-0.448 1-1s-0.448-1-1-1z"></path>
<path d="M14.919 24.664l2.667 3c0.198 0.222 0.472 0.336 0.747 0.336 0.236 0 0.474-0.083 0.664-0.253 0.413-0.367 0.45-0.999 0.083-1.412l-2.076-2.336 2.076-2.336c0.367-0.413 0.33-1.045-0.083-1.412-0.402-0.358-1.013-0.331-1.384 0.053-0.006 0.007-0.013 0.013-0.019 0.020-0.003 0.003-0.006 0.007-0.009 0.010l-2.667 3c0 0 0 0 0 0-0.337 0.379-0.337 0.95 0 1.329z"></path>
<path d="M23.374 18.051c0.156-0.53 0.712-0.833 1.242-0.677 0.056 0.017 0.109 0.037 0.16 0.062 0.146 0.072 0.269 0.177 0.362 0.303 0.125 0.17 0.196 0.378 0.196 0.594-0 0.093-0.013 0.188-0.041 0.282l-3.333 11.333c-0.156 0.53-0.712 0.833-1.242 0.677s-0.833-0.712-0.677-1.242l3.333-11.333z"></path>
<path d="M26.336 27.747c-0.413-0.367-0.45-0.999-0.083-1.412l2.076-2.336-2.076-2.336c-0.367-0.413-0.33-1.045 0.083-1.412s1.045-0.33 1.412 0.083l2.667 3c0.337 0.379 0.337 0.95 0 1.329l-2.667 3c-0.367 0.413-0.999 0.45-1.412 0.083z"></path>
</svg>
