<!-- Generated by IcoMoon.io -->
<svg version="1.1" xmlns="http://www.w3.org/2000/svg" width="32" height="32" viewBox="0 0 32 32">
<title>clipboard-day-filled</title>
<path d="M12.667 18.333c0-0.184 0.149-0.333 0.333-0.333v0h6c0.184 0 0.333 0.149 0.333 0.333v0 3.333c0 0.184-0.149 0.333-0.333 0.333v0h-6c-0.184 0-0.333-0.149-0.333-0.333v0-3.333zM13.667 2.667h4.667c1.539 0 2.808 1.159 2.98 2.653l0.001 0.014h2.352c1.657 0 3 1.343 3 3v0 18c0 1.657-1.343 3-3 3v0h-15.333c-1.657 0-3-1.343-3-3v0-18c0-1.657 1.343-3 3-3v0h2.352c0.173-1.507 1.442-2.667 2.981-2.667v0zM18.333 4.667h-4.667c-0.552 0-1 0.448-1 1s0.448 1 1 1v0h4.667c0.552 0 1-0.448 1-1s-0.448-1-1-1v0zM10.667 13c0 0.552 0.448 1 1 1h8.667c0.552 0 1-0.448 1-1s-0.448-1-1-1v0h-8.667c-0.552 0-1 0.448-1 1v0zM13 16c-1.289 0-2.333 1.045-2.333 2.333v0 3.333c0 1.288 1.045 2.333 2.333 2.333h6c1.289 0 2.333-1.045 2.333-2.333v0-3.333c0-1.289-1.045-2.333-2.333-2.333v0h-6z"></path>
</svg>
