<!-- Generated by IcoMoon.io -->
<svg version="1.1" xmlns="http://www.w3.org/2000/svg" width="32" height="32" viewBox="0 0 32 32">
<title>clipboard-code-filled</title>
<path d="M13.667 2.667h4.667c1.539 0 2.808 1.159 2.98 2.653l0.001 0.014h2.352c1.657 0 3 1.343 3 3v0 9.947c-0.028-1.267-1.062-2.283-2.333-2.283-1.055 0-1.946 0.7-2.235 1.661l-0.004 0.017-0.684 2.325h-0.968c-0.383-0.795-1.183-1.335-2.109-1.335-0.693 0-1.315 0.302-1.743 0.782l-0.002 0.002-2.667 3c-0.366 0.41-0.59 0.954-0.59 1.551s0.224 1.14 0.592 1.553l-0.002-0.002 2.667 3c0.457 0.515 1.091 0.779 1.729 0.783h-9.985c-1.657 0-3-1.343-3-3v0-18c0-1.657 1.343-3 3-3v0h2.352c0.173-1.507 1.442-2.667 2.981-2.667v0zM18.333 4.667h-4.667c-0.552 0-1 0.448-1 1s0.448 1 1 1v0h4.667c0.552 0 1-0.448 1-1s-0.448-1-1-1v0zM14.92 24.664l2.667 3c0.184 0.207 0.45 0.337 0.747 0.337 0.255 0 0.488-0.096 0.664-0.254l-0.001 0.001c0.207-0.184 0.337-0.451 0.337-0.749 0-0.256-0.096-0.489-0.254-0.666l0.001 0.001-2.076-2.335 2.076-2.336c0.157-0.176 0.252-0.409 0.252-0.664 0-0.552-0.448-1-1-1-0.297 0-0.564 0.13-0.747 0.335l-0.001 0.001-2.667 3c-0.157 0.176-0.252 0.409-0.252 0.664s0.096 0.488 0.253 0.665l-0.001-0.001zM23.373 18.051c0.126-0.419 0.508-0.718 0.96-0.718 0.553 0 1.001 0.448 1.001 1.001 0 0.101-0.015 0.198-0.043 0.29l0.002-0.007-3.333 11.333c-0.126 0.419-0.508 0.718-0.96 0.718-0.553 0-1.001-0.448-1.001-1.001 0-0.101 0.015-0.198 0.043-0.29l-0.002 0.007 3.333-11.333zM26.336 27.748c-0.207-0.184-0.337-0.451-0.337-0.749 0-0.256 0.096-0.489 0.254-0.666l-0.001 0.001 2.077-2.335-2.077-2.336c-0.157-0.176-0.252-0.409-0.252-0.664 0-0.552 0.448-1 1-1 0.297 0 0.564 0.13 0.747 0.335l0.001 0.001 2.667 3c0.157 0.176 0.252 0.409 0.252 0.664s-0.096 0.488-0.253 0.665l0.001-0.001-2.667 3c-0.184 0.207-0.451 0.337-0.749 0.337-0.256 0-0.489-0.096-0.666-0.254l0.001 0.001z"></path>
</svg>
