<!-- Generated by IcoMoon.io -->
<svg version="1.1" xmlns="http://www.w3.org/2000/svg" width="32" height="32" viewBox="0 0 32 32">
<title>clipboard-text-filled</title>
<path d="M21.83 4h1.67c1.933 0 3.5 1.567 3.5 3.5v0 19c0 1.933-1.567 3.5-3.5 3.5v0h-15c-1.933 0-3.5-1.567-3.5-3.5v0-19c0-1.933 1.567-3.5 3.5-3.5v0h1.67c0.425-1.175 1.531-2 2.829-2 0 0 0.001 0 0.001 0h6c1.306 0 2.418 0.835 2.83 2zM19 4h-6c-0.552 0-1 0.448-1 1s0.448 1 1 1v0h6c0.552 0 1-0.448 1-1s-0.448-1-1-1v0zM11 12c-0.552 0-1 0.448-1 1s0.448 1 1 1v0h10c0.552 0 1-0.448 1-1s-0.448-1-1-1v0h-10zM10 18c0 0.552 0.448 1 1 1v0h5c0.552 0 1-0.448 1-1s-0.448-1-1-1v0h-5c-0.552 0-1 0.448-1 1v0zM11 22c-0.552 0-1 0.448-1 1s0.448 1 1 1v0h8c0.552 0 1-0.448 1-1s-0.448-1-1-1v0h-8z"></path>
</svg>
