<!-- Generated by IcoMoon.io -->
<svg version="1.1" xmlns="http://www.w3.org/2000/svg" width="32" height="32" viewBox="0 0 32 32">
<title>clipboard-link-filled</title>
<path d="M13.667 2.667h4.667c1.544 0 2.815 1.166 2.982 2.666l2.352 0.001c1.657 0 3 1.343 3 3v10.333h-6.667c-3.682 0-6.667 2.985-6.667 6.667 0 1.501 0.496 2.886 1.333 4h-6.333c-1.657 0-3-1.343-3-3v-18c0-1.657 1.343-3 3-3l2.352-0.001c0.166-1.5 1.438-2.666 2.982-2.666zM18.333 4.667h-4.667c-0.552 0-1 0.448-1 1s0.448 1 1 1h4.667c0.552 0 1-0.448 1-1s-0.448-1-1-1z"></path>
<path d="M30.667 25.333c0-2.945-2.388-5.333-5.333-5.333l-0.136 0.009c-0.488 0.066-0.864 0.485-0.864 0.991 0 0.552 0.448 1 1 1l0.219 0.007c1.739 0.113 3.114 1.559 3.114 3.326 0 1.841-1.492 3.333-3.333 3.333l-0.136 0.009c-0.488 0.066-0.864 0.485-0.864 0.991 0 0.552 0.448 1 1 1l0.266-0.007c2.822-0.139 5.067-2.471 5.067-5.327z"></path>
<path d="M21 21c0-0.552-0.448-1-1-1l-0.266 0.007c-2.822 0.139-5.067 2.471-5.067 5.327 0 2.945 2.388 5.333 5.333 5.333l0.136-0.009c0.488-0.066 0.864-0.485 0.864-0.991 0-0.552-0.448-1-1-1l-0.219-0.007c-1.739-0.113-3.114-1.559-3.114-3.326 0-1.841 1.492-3.333 3.333-3.333l0.136-0.009c0.488-0.066 0.864-0.485 0.864-0.991z"></path>
<path d="M25 24.333h-4.667l-0.136 0.009c-0.488 0.066-0.864 0.485-0.864 0.991 0 0.552 0.448 1 1 1h4.667l0.136-0.009c0.488-0.066 0.864-0.485 0.864-0.991 0-0.552-0.448-1-1-1z"></path>
</svg>
