<!-- Generated by IcoMoon.io -->
<svg version="1.1" xmlns="http://www.w3.org/2000/svg" width="32" height="32" viewBox="0 0 32 32">
<title>clipboard-edit-filled</title>
<path d="M13.6 3.2c-0 0-0.001 0-0.001 0-1.039 0-1.923 0.66-2.257 1.583l-0.005 0.017h-2.536c-1.325 0-2.4 1.075-2.4 2.4v0 19.2c0 1.325 1.075 2.4 2.4 2.4v0h4.006c0.013-0.204 0.044-0.394 0.091-0.577l-0.005 0.022 0.6-2.397c0.238-0.935 0.707-1.739 1.344-2.376l7.728-7.728c0.782-0.783 1.845-1.283 3.025-1.337l0.010-0v-7.206c0-1.325-1.075-2.4-2.4-2.4v0h-2.536c-0.339-0.94-1.224-1.6-2.263-1.6-0 0-0.001 0-0.001 0h-4.8zM12.8 5.6c0-0.442 0.358-0.8 0.8-0.8v0h4.8c0.442 0 0.8 0.358 0.8 0.8s-0.358 0.8-0.8 0.8v0h-4.8c-0.442 0-0.8-0.358-0.8-0.8v0zM15.968 24.603l7.728-7.728c0.541-0.541 1.289-0.876 2.115-0.876 1.653 0 2.992 1.34 2.992 2.992 0 0.827-0.335 1.575-0.877 2.117l-7.728 7.726c-0.437 0.438-0.99 0.76-1.608 0.919l-0.024 0.005-2.397 0.598c-0.103 0.027-0.222 0.042-0.344 0.042-0.786 0-1.424-0.638-1.424-1.424 0-0.122 0.015-0.24 0.044-0.353l-0.002 0.010 0.6-2.397c0.163-0.643 0.486-1.195 0.925-1.632l0-0z"></path>
</svg>
