<!-- Generated by IcoMoon.io -->
<svg version="1.1" xmlns="http://www.w3.org/2000/svg" width="32" height="32" viewBox="0 0 32 32">
<title>clipboard-clock-filled</title>
<path d="M15.167 18.16c0 0.46 0.373 0.833 0.833 0.833l0.083-0.004 0.083 0.004h1.667c0.46 0 0.833-0.374 0.833-0.833s-0.373-0.833-0.833-0.833h-1v-2.167c0-0.46-0.373-0.833-0.833-0.833s-0.833 0.374-0.833 0.833v3zM18.333 2.667h-4.667c-1.544 0-2.815 1.166-2.982 2.666l-2.352 0.001c-1.657 0-3 1.343-3 3v18c0 1.657 1.343 3 3 3h15.333c1.657 0 3-1.343 3-3v-18c0-1.657-1.343-3-3-3l-2.352-0.001c-0.166-1.5-1.438-2.666-2.982-2.666zM13.667 4.667h4.667c0.552 0 1 0.448 1 1s-0.448 1-1 1h-4.667c-0.552 0-1-0.448-1-1s0.448-1 1-1zM16 11c3.498 0 6.333 2.836 6.333 6.333s-2.835 6.333-6.333 6.333c-3.498 0-6.333-2.836-6.333-6.333s2.835-6.333 6.333-6.333z"></path>
</svg>
