<!-- Generated by IcoMoon.io -->
<svg version="1.1" xmlns="http://www.w3.org/2000/svg" width="32" height="32" viewBox="0 0 32 32">
<title>clipboard-text-ltr-filled</title>
<path d="M18.333 4.667h-4.667c-0.552 0-1 0.448-1 1s0.448 1 1 1h4.667c0.552 0 1-0.448 1-1s-0.448-1-1-1zM18.333 2.667c1.519 0 2.774 1.129 2.973 2.593l0.018 0.18-0.009-0.107 2.352 0.001c1.657 0 3 1.343 3 3v18c0 1.657-1.343 3-3 3h-15.333c-1.657 0-3-1.343-3-3v-18c0-1.657 1.343-3 3-3l2.352-0.001-0.010 0.107 0.019-0.18c0.199-1.464 1.454-2.593 2.973-2.593h4.667zM18.667 22.667h-8c-0.552 0-1 0.448-1 1s0.448 1 1 1h8c0.552 0 1-0.448 1-1s-0.448-1-1-1zM16 17.333h-5.333c-0.552 0-1 0.448-1 1s0.448 1 1 1h5.333c0.552 0 1-0.448 1-1s-0.448-1-1-1zM21.333 12h-10.667c-0.552 0-1 0.448-1 1s0.448 1 1 1h10.667c0.552 0 1-0.448 1-1s-0.448-1-1-1z"></path>
</svg>
