<!-- Generated by IcoMoon.io -->
<svg version="1.1" xmlns="http://www.w3.org/2000/svg" width="32" height="32" viewBox="0 0 32 32">
<title>clipboard-task-filled</title>
<path d="M18.333 2.667h-4.667c-1.544 0-2.815 1.166-2.982 2.666l-2.352 0.001c-1.657 0-3 1.343-3 3v18c0 1.657 1.343 3 3 3h15.333c1.657 0 3-1.343 3-3v-18c0-1.657-1.343-3-3-3l-2.352-0.001c-0.166-1.5-1.438-2.666-2.982-2.666zM13.667 4.667h4.667c0.552 0 1 0.448 1 1s-0.448 1-1 1h-4.667c-0.552 0-1-0.448-1-1s0.448-1 1-1zM22.707 14.707l-7.333 7.333c-0.391 0.391-1.024 0.391-1.414 0l-3.333-3.333c-0.391-0.391-0.391-1.024 0-1.414s1.024-0.391 1.414 0l2.626 2.626 6.626-6.626c0.391-0.391 1.024-0.391 1.414 0s0.391 1.024 0 1.414z"></path>
</svg>
