<!-- Generated by IcoMoon.io -->
<svg version="1.1" xmlns="http://www.w3.org/2000/svg" width="32" height="32" viewBox="0 0 32 32">
<title>clipboard-arrow-right-filled</title>
<path d="M13.667 2.667h4.667c1.544 0 2.815 1.166 2.982 2.666l2.352 0.001c1.657 0 3 1.343 3 3v6.998c-1.026-0.428-2.152-0.664-3.333-0.664-4.787 0-8.667 3.88-8.667 8.667 0 2.329 0.918 4.443 2.413 6h-8.746c-1.657 0-3-1.343-3-3v-18c0-1.657 1.343-3 3-3l2.352-0.001c0.166-1.5 1.438-2.666 2.982-2.666zM18.333 4.667h-4.667c-0.552 0-1 0.448-1 1s0.448 1 1 1h4.667c0.552 0 1-0.448 1-1s-0.448-1-1-1zM30.667 23.333c0 4.050-3.283 7.333-7.333 7.333s-7.333-3.283-7.333-7.333c0-4.050 3.283-7.333 7.333-7.333s7.333 3.283 7.333 7.333zM19.333 22.667c-0.368 0-0.667 0.299-0.667 0.667s0.299 0.667 0.667 0.667h6.391l-2.195 2.195c-0.26 0.26-0.26 0.683 0 0.943s0.683 0.26 0.943 0l3.333-3.333c0.26-0.26 0.26-0.683 0-0.943l-3.333-3.333c-0.26-0.26-0.683-0.26-0.943 0s-0.26 0.683 0 0.943l2.195 2.195h-6.391z"></path>
</svg>
