<!-- Generated by IcoMoon.io -->
<svg version="1.1" xmlns="http://www.w3.org/2000/svg" width="32" height="32" viewBox="0 0 32 32">
<title>clipboard-letter-filled</title>
<path d="M18.333 2.667h-4.667c-1.539 0-2.808 1.159-2.98 2.653l-0.001 0.014h-2.352c-1.657 0-3 1.343-3 3v0 18c0 1.657 1.343 3 3 3v0h6.441c-0.073-0.199-0.115-0.428-0.115-0.667 0-0.297 0.065-0.579 0.181-0.832l-0.005 0.012 3.52-7.827v-0.020h0.009l2.467-5.487c0.321-0.702 1.017-1.18 1.824-1.18s1.503 0.478 1.819 1.166l0.005 0.012 2.187 4.851v-11.029c0-1.657-1.343-3-3-3v0h-2.352c-0.173-1.507-1.442-2.667-2.981-2.667v0zM13.667 4.667h4.667c0.552 0 1 0.448 1 1s-0.448 1-1 1v0h-4.667c-0.552 0-1-0.448-1-1s0.448-1 1-1v0zM16.677 29.333c-0.004 0-0.009 0-0.013 0-0.1 0-0.196-0.022-0.282-0.061l0.004 0.002c-0.233-0.107-0.392-0.339-0.392-0.608 0-0.099 0.022-0.193 0.061-0.278l-0.002 0.004 2.4-5.337c0-0.004 0.003-0.007 0.004-0.009l3.592-7.987c0.107-0.233 0.339-0.392 0.607-0.392s0.5 0.159 0.606 0.388l0.002 0.004 3.6 7.987c0.003 0.005 0.008 0.014 0.012 0.023l0.002 0.004 2.397 5.32c0.039 0.082 0.062 0.179 0.062 0.281 0 0.368-0.298 0.667-0.667 0.667-0.272 0-0.506-0.163-0.61-0.397l-0.002-0.004-2.227-4.94h-6.341l-2.223 4.94c-0.105 0.229-0.328 0.386-0.59 0.393l-0.001 0zM22.657 16.957l-2.568 5.709h5.141l-2.573-5.709z"></path>
</svg>
