<!-- Generated by IcoMoon.io -->
<svg version="1.1" xmlns="http://www.w3.org/2000/svg" width="32" height="32" viewBox="0 0 32 32">
<title>clipboard-text-rtl-filled</title>
<path d="M21.307 5.26c-0.207-1.473-1.459-2.593-2.972-2.593-0 0-0.001 0-0.001 0h-4.667c-0 0-0.001 0-0.001 0-1.513 0-2.765 1.121-2.97 2.577l-0.002 0.016-0.019 0.18 0.011-0.107h-2.352c-1.657 0-3 1.343-3 3v0 18c0 1.657 1.343 3 3 3v0h15.333c1.657 0 3-1.343 3-3v0-18c0-1.657-1.343-3-3-3v0h-2.352l0.009 0.107-0.019-0.18zM13.667 4.667h4.667c0.552 0 1 0.448 1 1s-0.448 1-1 1v0h-4.667c-0.552 0-1-0.448-1-1s0.448-1 1-1v0zM10.667 12h10.667c0.552 0 1 0.448 1 1s-0.448 1-1 1v0h-10.667c-0.552 0-1-0.448-1-1s0.448-1 1-1v0zM15 18.333c0-0.552 0.448-1 1-1v0h5.333c0.552 0 1 0.448 1 1s-0.448 1-1 1v0h-5.333c-0.552 0-1-0.448-1-1v0zM13.333 22.667h8c0.552 0 1 0.448 1 1s-0.448 1-1 1v0h-8c-0.552 0-1-0.448-1-1s0.448-1 1-1v0z"></path>
</svg>
