<!-- Generated by IcoMoon.io -->
<svg version="1.1" xmlns="http://www.w3.org/2000/svg" width="32" height="32" viewBox="0 0 32 32">
<title>clock-arrow-download-filled</title>
<path d="M29.333 16c0-7.363-5.969-13.333-13.333-13.333s-13.333 5.971-13.333 13.333c0 0.351 0.013 0.697 0.040 1.040 1.545-1.469 3.641-2.373 5.947-2.373 0.005 0 0.009 0 0.014 0h-0.001c2.332 0 4.448 0.92 6.005 2.419l-0.005-0.085v-8c0-0.552 0.448-1 1-1 0.504 0 0.921 0.373 0.99 0.858l0.001 0.005 0.009 0.136v7h4.333c0.552 0 1 0.448 1 1 0 0.504-0.373 0.921-0.858 0.99l-0.005 0.001-0.136 0.009h-5.333c-0.001 0-0.002 0-0.003 0-0.063 0-0.125-0.006-0.184-0.017l0.006 0.001c1.152 1.453 1.848 3.314 1.848 5.337 0 0.005 0 0.009 0 0.013v-0.001c0 0.004 0 0.008 0 0.013 0 2.306-0.904 4.401-2.377 5.951l0.003-0.004c0.343 0.027 0.689 0.040 1.040 0.040 7.364 0 13.333-5.971 13.333-13.333zM1.333 23.333c0-3.815 2.914-6.95 6.637-7.3l0.029-0.002v7.693l-2.195-2.196c-0.121-0.121-0.288-0.195-0.472-0.195-0.369 0-0.668 0.299-0.668 0.668 0 0.184 0.075 0.351 0.196 0.472l3.333 3.333c0.121 0.121 0.288 0.196 0.472 0.196s0.351-0.075 0.472-0.196v0l3.333-3.333c0.121-0.121 0.195-0.288 0.195-0.472 0-0.369-0.299-0.668-0.668-0.668-0.184 0-0.351 0.075-0.472 0.195l-2.195 2.196v-7.693c3.753 0.353 6.667 3.488 6.667 7.303 0 4.050-3.283 7.333-7.333 7.333s-7.333-3.283-7.333-7.333c0-0 0-0 0-0v0zM4.667 27.333c0 0.368 0.298 0.667 0.667 0.667v0h6.667c0.368 0 0.667-0.298 0.667-0.667s-0.298-0.667-0.667-0.667v0h-6.667c-0.368 0-0.667 0.298-0.667 0.667v0z"></path>
</svg>
