<!-- Generated by IcoMoon.io -->
<svg version="1.1" xmlns="http://www.w3.org/2000/svg" width="32" height="32" viewBox="0 0 32 32">
<title>clock-pause-filled</title>
<path d="M21 18h-5.333c-0.001 0-0.002 0-0.003 0-0.063 0-0.125-0.006-0.184-0.017l0.006 0.001c1.152 1.453 1.848 3.314 1.848 5.337 0 0.005 0 0.009 0 0.013v-0.001c0 0.004 0 0.008 0 0.013 0 2.306-0.904 4.401-2.377 5.951l0.003-0.004c0.343 0.027 0.689 0.040 1.040 0.040 7.363 0 13.333-5.971 13.333-13.333s-5.971-13.333-13.333-13.333-13.333 5.971-13.333 13.333c0 0.351 0.013 0.697 0.040 1.040 1.545-1.469 3.641-2.373 5.947-2.373 0.005 0 0.009 0 0.014 0h-0.001c2.331 0 4.445 0.92 6.003 2.416-0.002-0.023-0.003-0.049-0.003-0.075 0-0.003 0-0.005 0-0.008v0-8c0-0.552 0.448-1 1-1s1 0.448 1 1v0 7h4.333c0.552 0 1 0.448 1 1s-0.448 1-1 1v0zM16 23.333c0 4.050-3.283 7.333-7.333 7.333s-7.333-3.283-7.333-7.333v0c0-4.050 3.283-7.333 7.333-7.333s7.333 3.283 7.333 7.333v0zM6 19.333c-0.368 0-0.667 0.298-0.667 0.667v0 6.667c0 0.368 0.298 0.667 0.667 0.667s0.667-0.298 0.667-0.667v0-6.667c0-0.368-0.298-0.667-0.667-0.667v0zM11.333 19.333c-0.368 0-0.667 0.298-0.667 0.667v0 6.667c0 0.368 0.298 0.667 0.667 0.667s0.667-0.298 0.667-0.667v0-6.667c0-0.368-0.298-0.667-0.667-0.667v0z"></path>
</svg>
