<!-- Generated by IcoMoon.io -->
<svg version="1.1" xmlns="http://www.w3.org/2000/svg" width="32" height="32" viewBox="0 0 32 32">
<title>clock-arrow-download-filled</title>
<path d="M29.333 16c0-7.363-5.969-13.333-13.333-13.333s-13.333 5.971-13.333 13.333c0 0.35 0.014 0.698 0.040 1.041 1.553-1.472 3.651-2.375 5.96-2.375 2.332 0 4.448 0.921 6.006 2.418l-0.006-0.085v-8c0-0.552 0.448-1 1-1 0.506 0 0.925 0.376 0.991 0.864l0.009 0.136v7h4.333c0.552 0 1 0.448 1 1 0 0.506-0.376 0.925-0.864 0.991l-0.136 0.009h-5.333c-0.062 0-0.122-0.006-0.181-0.016 1.157 1.473 1.848 3.331 1.848 5.35 0 2.309-0.903 4.407-2.375 5.96 0.344 0.027 0.691 0.040 1.041 0.040 7.364 0 13.333-5.971 13.333-13.333zM1.333 23.333c0-3.825 2.929-6.967 6.667-7.303v7.694l-2.195-2.195c-0.26-0.26-0.682-0.26-0.943 0s-0.26 0.683 0 0.943l3.333 3.333c0.26 0.26 0.682 0.26 0.943 0l3.333-3.333c0.26-0.26 0.26-0.683 0-0.943s-0.682-0.26-0.943 0l-2.195 2.195v-7.694c3.738 0.337 6.667 3.478 6.667 7.303 0 4.050-3.283 7.333-7.333 7.333s-7.333-3.283-7.333-7.333zM4.667 27.333c0 0.368 0.298 0.667 0.667 0.667h6.667c0.368 0 0.667-0.299 0.667-0.667s-0.298-0.667-0.667-0.667h-6.667c-0.368 0-0.667 0.299-0.667 0.667z"></path>
</svg>
