<!-- Generated by IcoMoon.io -->
<svg version="1.1" xmlns="http://www.w3.org/2000/svg" width="32" height="32" viewBox="0 0 32 32">
<title>clock-toolbox-filled</title>
<path d="M16 2.667c-7.363 0-13.333 5.971-13.333 13.333 0 0.595 0.040 1.18 0.115 1.755 0.42-1.596 1.851-2.754 3.552-2.755h4.667c2.025 0 3.667 1.642 3.667 3.667v0 0.067c1.532 0.321 2.667 1.661 2.667 3.266 0 0 0 0 0 0.001v-0 6.667c0 0.207-0.019 0.409-0.055 0.607 6.761-0.644 12.055-6.341 12.055-13.273 0-7.363-5.971-13.333-13.333-13.333zM21 18h-5.333c-0.552 0-1-0.448-1-1v0-8c0-0.552 0.448-1 1-1s1 0.448 1 1v0 7h4.333c0.552 0 1 0.448 1 1s-0.448 1-1 1v0zM4 20h-0.667c-1.105 0-2 0.895-2 2v0 2h3.333v-0.333c0-0.552 0.448-1 1-1s1 0.448 1 1v0 0.333h4v-0.333c0-0.552 0.448-1 1-1s1 0.448 1 1v0 0.333h3.333v-2c0-1.105-0.895-2-2-2v0h-0.667v-1.333c0-1.289-1.045-2.333-2.333-2.333v0h-4.667c-1.289 0-2.333 1.045-2.333 2.333v0 1.333zM6 18.667c0-0.184 0.149-0.333 0.333-0.333v0h4.667c0.184 0 0.333 0.149 0.333 0.333v0 1.333h-5.333v-1.333zM1.333 28.667v-2.667h3.333v1c0 0.552 0.448 1 1 1s1-0.448 1-1v0-1h4v1c0 0.552 0.448 1 1 1s1-0.448 1-1v0-1h3.333v2.667c0 1.105-0.895 2-2 2v0h-10.667c-1.105 0-2-0.895-2-2v0z"></path>
</svg>
