<!-- Generated by IcoMoon.io -->
<svg version="1.1" xmlns="http://www.w3.org/2000/svg" width="32" height="32" viewBox="0 0 32 32">
<title>clock-dismiss-filled</title>
<path d="M8.667 16c4.050 0 7.333 3.283 7.333 7.333s-3.283 7.333-7.333 7.333c-4.050 0-7.333-3.283-7.333-7.333s3.283-7.333 7.333-7.333zM17.333 1.333c7.364 0 13.333 5.971 13.333 13.333s-5.969 13.333-13.333 13.333c-0.446 0-0.888-0.022-1.323-0.065 0.839-1.334 1.323-2.911 1.323-4.602 0-4.787-3.88-8.667-8.667-8.667-1.691 0-3.268 0.484-4.602 1.321-0.043-0.434-0.065-0.875-0.065-1.321 0-7.363 5.969-13.333 13.333-13.333zM4.954 19.451l-0.092 0.077-0.077 0.092c-0.157 0.227-0.157 0.531 0 0.758l0.077 0.092 2.862 2.862-2.862 2.862-0.077 0.092c-0.157 0.227-0.157 0.531 0 0.758l0.077 0.092 0.092 0.077c0.227 0.157 0.531 0.157 0.758 0l0.092-0.077 2.862-2.862 2.862 2.862 0.092 0.077c0.227 0.157 0.531 0.157 0.758 0l0.092-0.077 0.077-0.092c0.158-0.227 0.158-0.531 0-0.758l-0.077-0.092-2.862-2.862 2.862-2.862 0.077-0.092c0.158-0.227 0.158-0.531 0-0.758l-0.077-0.092-0.092-0.077c-0.227-0.157-0.531-0.157-0.758 0l-0.092 0.077-2.862 2.862-2.862-2.862-0.092-0.077c-0.195-0.135-0.446-0.154-0.657-0.058l-0.102 0.058zM16.333 6.667c-0.552 0-1 0.448-1 1l-0.006 7.337c0 0.552 0.448 1 1 1h5.333c0.552 0 1-0.448 1-1s-0.448-1-1-1h-4.333l0.006-6.337c0-0.552-0.448-1-1-1z"></path>
</svg>
