<!-- Generated by IcoMoon.io -->
<svg version="1.1" xmlns="http://www.w3.org/2000/svg" width="32" height="32" viewBox="0 0 32 32">
<title>clock-dismiss-filled</title>
<path d="M8.667 16c4.050 0 7.333 3.283 7.333 7.333s-3.283 7.333-7.333 7.333v0c-4.050 0-7.333-3.283-7.333-7.333s3.283-7.333 7.333-7.333v0zM17.333 1.333c7.364 0 13.333 5.971 13.333 13.333s-5.969 13.333-13.333 13.333c-0.447 0-0.888-0.023-1.323-0.065 0.831-1.306 1.324-2.897 1.324-4.604 0-4.786-3.88-8.667-8.667-8.667-1.707 0-3.298 0.493-4.639 1.345l0.035-0.021c-0.041-0.391-0.064-0.845-0.064-1.305 0-0.006 0-0.011 0-0.017v0.001c0-7.363 5.969-13.333 13.333-13.333zM4.955 19.452l-0.093 0.076-0.076 0.093c-0.074 0.106-0.118 0.237-0.118 0.379s0.044 0.273 0.119 0.381l-0.001-0.002 0.076 0.093 2.863 2.861-2.863 2.861-0.076 0.093c-0.074 0.106-0.118 0.237-0.118 0.379s0.044 0.273 0.119 0.381l-0.001-0.002 0.076 0.093 0.093 0.076c0.106 0.074 0.237 0.118 0.379 0.118s0.273-0.044 0.381-0.119l-0.002 0.001 0.093-0.076 2.861-2.863 2.861 2.863 0.093 0.076c0.106 0.074 0.237 0.118 0.379 0.118s0.273-0.044 0.381-0.119l-0.002 0.001 0.093-0.076 0.076-0.093c0.074-0.106 0.118-0.237 0.118-0.379s-0.044-0.273-0.119-0.381l0.001 0.002-0.076-0.093-2.863-2.861 2.863-2.861 0.076-0.093c0.074-0.106 0.118-0.237 0.118-0.379s-0.044-0.273-0.119-0.381l0.001 0.002-0.076-0.093-0.093-0.076c-0.106-0.074-0.237-0.118-0.379-0.118s-0.273 0.044-0.381 0.119l0.002-0.001-0.093 0.076-2.861 2.863-2.861-2.863-0.093-0.076c-0.106-0.074-0.238-0.119-0.38-0.119-0.1 0-0.195 0.022-0.28 0.062l0.004-0.002-0.101 0.059zM16.333 6.667c-0.552 0-1 0.448-1 1v0l-0.005 7.337c0 0.552 0.448 1 1 1h5.333c0.552 0 1-0.448 1-1s-0.448-1-1-1v0h-4.333l0.005-6.337c0-0.552-0.448-1-1-1v0z"></path>
</svg>
