<!-- Generated by IcoMoon.io -->
<svg version="1.1" xmlns="http://www.w3.org/2000/svg" width="32" height="32" viewBox="0 0 32 32">
<title>closed-caption-off-filled</title>
<path d="M4.374 2.96c-0.391-0.391-1.024-0.391-1.414 0s-0.391 1.024-0 1.414l1.667 1.667c-1.18 0.774-1.96 2.109-1.96 3.626v12.673c0 2.393 1.94 4.333 4.333 4.333h18c0.084 0 0.168-0.002 0.251-0.007l2.375 2.375c0.391 0.391 1.024 0.391 1.414 0s0.391-1.024 0-1.414l-24.666-24.667zM11.431 12.845c-1.177 0.196-2.097 1.329-2.097 3.155 0 2.673 1.979 3.862 3.839 2.804 0.48-0.273 1.091-0.105 1.364 0.375s0.105 1.091-0.375 1.364c-3.207 1.824-6.828-0.351-6.828-4.542 0-2.267 1.057-3.944 2.536-4.716l1.561 1.561zM23.171 13.202c-1.656-0.944-3.399-0.114-3.767 1.96l9.348 9.348c0.37-0.638 0.582-1.379 0.582-2.17v-12.673c0-2.393-1.94-4.333-4.333-4.333h-15.424l8.232 8.232c1.084-2.517 3.844-3.533 6.355-2.101 0.48 0.274 0.647 0.884 0.373 1.364s-0.884 0.647-1.364 0.373z"></path>
</svg>
