<!-- Generated by IcoMoon.io -->
<svg version="1.1" xmlns="http://www.w3.org/2000/svg" width="32" height="32" viewBox="0 0 32 32">
<title>closed-caption-filled</title>
<path d="M25 5.333c2.393 0 4.333 1.94 4.333 4.333v12.673c0 2.393-1.94 4.333-4.333 4.333h-18c-2.393 0-4.333-1.94-4.333-4.333v-12.673c0-2.311 1.809-4.199 4.087-4.326l0.246-0.007h18zM14.162 11.465c-3.211-1.832-6.829 0.341-6.829 4.535 0 4.191 3.621 6.366 6.828 4.542 0.48-0.273 0.648-0.884 0.375-1.364s-0.884-0.648-1.364-0.375c-1.86 1.058-3.839-0.131-3.839-2.804 0-2.675 1.974-3.861 3.838-2.798 0.48 0.274 1.090 0.107 1.364-0.373s0.107-1.090-0.373-1.364zM24.162 11.465c-3.211-1.832-6.829 0.341-6.829 4.535 0 4.191 3.621 6.366 6.828 4.542 0.48-0.273 0.648-0.884 0.375-1.364s-0.884-0.648-1.364-0.375c-1.86 1.058-3.839-0.131-3.839-2.804 0-2.675 1.974-3.861 3.838-2.798 0.48 0.274 1.090 0.107 1.364-0.373s0.107-1.090-0.373-1.364z"></path>
</svg>
