<!-- Generated by IcoMoon.io -->
<svg version="1.1" xmlns="http://www.w3.org/2000/svg" width="32" height="32" viewBox="0 0 32 32">
<title>cloud-off-filled</title>
<path d="M22.488 23.667l5.423 5.423c0.151 0.151 0.359 0.244 0.589 0.244 0.46 0 0.833-0.373 0.833-0.833 0-0.23-0.093-0.439-0.244-0.589v0l-25-25c-0.151-0.151-0.359-0.244-0.589-0.244-0.46 0-0.833 0.373-0.833 0.833 0 0.23 0.093 0.438 0.244 0.589l6.563 6.563c-0.409 0.778-0.686 1.688-0.776 2.653l-0.002 0.029h-0.197c-2.853 0-5.167 2.313-5.167 5.167s2.313 5.167 5.167 5.167v0h13.988zM28.667 18.5c0 0.001 0 0.002 0 0.003 0 1.792-0.914 3.372-2.3 4.297l-0.019 0.012-14.707-14.709c1.199-0.897 2.711-1.437 4.349-1.437 0.004 0 0.008 0 0.012 0h-0.001c3.825 0 6.967 2.929 7.303 6.667h0.197c2.853 0 5.167 2.313 5.167 5.167v0z"></path>
</svg>
