<!-- Generated by IcoMoon.io -->
<svg version="1.1" xmlns="http://www.w3.org/2000/svg" width="32" height="32" viewBox="0 0 32 32">
<title>cloud-swap-filled</title>
<path d="M15.667 5.667c-3.763 0.001-6.893 2.711-7.544 6.286l-0.007 0.047h-0.116c-2.946 0-5.333 2.388-5.333 5.333s2.388 5.333 5.333 5.333v0h4.224c-0.142-0.292-0.224-0.636-0.224-0.998 0-0.645 0.262-1.229 0.684-1.651l3.333-3.333c0.422-0.423 1.006-0.684 1.65-0.684 1.289 0 2.333 1.045 2.333 2.333 0 0.363-0.083 0.707-0.231 1.014l0.006-0.014h3.115c-0.143-0.293-0.226-0.638-0.226-1.003 0-1.289 1.045-2.333 2.333-2.333 0.646 0 1.23 0.262 1.653 0.686l1.875 1.875c0.091-0.368 0.143-0.791 0.143-1.225 0-2.946-2.388-5.333-5.333-5.333-0 0-0.001 0-0.001 0h-0.116c-0.658-3.622-3.788-6.333-7.551-6.333h-0zM18.373 19.040c0.196-0.183 0.318-0.443 0.318-0.732 0-0.552-0.448-1-1-1-0.289 0-0.549 0.122-0.731 0.318l-0.001 0.001-3.333 3.333c-0.181 0.181-0.292 0.431-0.292 0.707s0.112 0.526 0.292 0.707v0l3.333 3.333c0.183 0.196 0.443 0.318 0.732 0.318 0.552 0 1-0.448 1-1 0-0.289-0.122-0.549-0.318-0.731l-0.001-0.001-1.627-1.627h9.173l-1.627 1.627c-0.196 0.183-0.318 0.443-0.318 0.732 0 0.552 0.448 1 1 1 0.289 0 0.549-0.122 0.731-0.318l0.001-0.001 3.333-3.333c0.181-0.181 0.292-0.431 0.292-0.707s-0.112-0.526-0.292-0.707v0l-3.333-3.333c-0.183-0.196-0.443-0.318-0.732-0.318-0.552 0-1 0.448-1 1 0 0.289 0.122 0.549 0.318 0.731l0.001 0.001 1.627 1.627h-9.173l1.627-1.627z"></path>
</svg>
