<!-- Generated by IcoMoon.io -->
<svg version="1.1" xmlns="http://www.w3.org/2000/svg" width="32" height="32" viewBox="0 0 32 32">
<title>cloud-swap-filled</title>
<path d="M15.667 5.667c-3.767 0-6.919 2.724-7.551 6.333h-0.116c-2.946 0-5.333 2.388-5.333 5.333s2.388 5.333 5.333 5.333h4.224c-0.411-0.866-0.258-1.933 0.459-2.65l3.333-3.333c0.911-0.911 2.389-0.911 3.3 0 0.717 0.717 0.87 1.784 0.459 2.65h3.115c-0.411-0.866-0.258-1.933 0.459-2.65 0.911-0.911 2.389-0.911 3.3 0l1.875 1.875c0.093-0.393 0.141-0.804 0.141-1.225 0-2.945-2.388-5.333-5.333-5.333h-0.115c-0.633-3.61-3.784-6.333-7.551-6.333zM18.374 19.040c0.391-0.391 0.391-1.024 0-1.414s-1.024-0.391-1.414 0l-3.333 3.333c-0.391 0.391-0.391 1.024 0 1.414l3.333 3.333c0.391 0.391 1.024 0.391 1.414 0s0.391-1.024 0-1.414l-1.626-1.626h9.171l-1.626 1.626c-0.391 0.391-0.391 1.024 0 1.414s1.024 0.391 1.414 0l3.333-3.333c0.391-0.391 0.391-1.024 0-1.414l-3.333-3.333c-0.391-0.391-1.024-0.391-1.414 0s-0.391 1.024 0 1.414l1.626 1.626h-9.171l1.626-1.626z"></path>
</svg>
