<!-- Generated by IcoMoon.io -->
<svg version="1.1" xmlns="http://www.w3.org/2000/svg" width="32" height="32" viewBox="0 0 32 32">
<title>cloud-archive-filled</title>
<path d="M8.116 13c0.632-3.61 3.784-6.333 7.551-6.333s6.919 2.724 7.551 6.333h0.115c2.109 0 3.932 1.224 4.797 3h-10.797c-1.473 0-2.667 1.194-2.667 2.667v1.333c0 0.987 0.536 1.849 1.333 2.31v1.357h-8c-2.946 0-5.333-2.388-5.333-5.333s2.388-5.333 5.333-5.333h0.116zM16 18.667c0-0.736 0.597-1.333 1.333-1.333h12c0.736 0 1.333 0.597 1.333 1.333v1.333c0 0.736-0.597 1.333-1.333 1.333h-12c-0.736 0-1.333-0.597-1.333-1.333v-1.333zM29.333 22.667h-12v5.333c0 1.473 1.194 2.667 2.667 2.667h6.667c1.473 0 2.667-1.194 2.667-2.667v-5.333zM21.333 24h4c0.368 0 0.667 0.299 0.667 0.667s-0.299 0.667-0.667 0.667h-4c-0.368 0-0.667-0.299-0.667-0.667s0.298-0.667 0.667-0.667z"></path>
</svg>
