<!-- Generated by IcoMoon.io -->
<svg version="1.1" xmlns="http://www.w3.org/2000/svg" width="32" height="32" viewBox="0 0 32 32">
<title>cloud-edit-filled</title>
<path d="M23.435 13.194c-0.371-3.717-2.928-6.794-7.435-6.794s-7.061 3.053-7.435 6.794h-0.112c-2.904 0-5.253 2.419-5.253 5.403s2.352 5.403 5.251 5.403h5.109c0.243-0.802 0.682-1.533 1.277-2.128l7.726-7.728c0.382-0.382 0.83-0.697 1.327-0.926l0.029-0.012c-0.109-0.008-0.236-0.013-0.364-0.013-0.002 0-0.004 0-0.006 0h-0.113zM23.694 15.277l-7.728 7.728c-0.437 0.438-0.759 0.99-0.918 1.608l-0.005 0.024-0.6 2.397c-0.027 0.103-0.042 0.221-0.042 0.343 0 0.786 0.638 1.424 1.424 1.424 0.122 0 0.241-0.015 0.354-0.044l-0.010 0.002 2.397-0.598c0.642-0.164 1.195-0.487 1.632-0.925l7.728-7.728c0.531-0.54 0.86-1.281 0.86-2.099 0-1.652-1.34-2.992-2.992-2.992-0.818 0-1.56 0.328-2.1 0.861l0-0z"></path>
</svg>
