<!-- Generated by IcoMoon.io -->
<svg version="1.1" xmlns="http://www.w3.org/2000/svg" width="32" height="32" viewBox="0 0 32 32">
<title>cloud-archive-filled</title>
<path d="M8.697 12.667c0.337-3.738 3.478-6.667 7.303-6.667s6.967 2.929 7.303 6.667h0.197c0.001 0 0.001 0 0.002 0 1.936 0 3.623 1.065 4.507 2.641l0.013 0.026h-12.689c-0.736 0-1.333 0.597-1.333 1.333v0 3.333c0 0.736 0.597 1.333 1.333 1.333v0 1.667h-6.833c-2.853 0-5.167-2.313-5.167-5.167s2.313-5.167 5.167-5.167v0h0.197zM15.333 17.333c0-0.368 0.298-0.667 0.667-0.667v0h13.333c0.368 0 0.667 0.298 0.667 0.667v0 2c0 0.368-0.298 0.667-0.667 0.667v0h-13.333c-0.368 0-0.667-0.298-0.667-0.667v0-2zM28.667 21.333h-12v6c0 1.473 1.194 2.667 2.667 2.667v0h6.667c1.473 0 2.667-1.194 2.667-2.667v0-6zM20.667 23.333h4c0.368 0 0.667 0.298 0.667 0.667s-0.298 0.667-0.667 0.667v0h-4c-0.368 0-0.667-0.298-0.667-0.667s0.298-0.667 0.667-0.667v0z"></path>
</svg>
