<!-- Generated by IcoMoon.io -->
<svg version="1.1" xmlns="http://www.w3.org/2000/svg" width="32" height="32" viewBox="0 0 32 32">
<title>cloud-words-filled</title>
<path d="M15.667 6.667c-3.767 0-6.919 2.724-7.551 6.333h-0.116c-2.946 0-5.333 2.388-5.333 5.333s2.388 5.333 5.333 5.333h15.333c2.945 0 5.333-2.388 5.333-5.333s-2.388-5.333-5.333-5.333h-0.115c-0.633-3.61-3.784-6.333-7.551-6.333zM13 12h5.333c0.552 0 1 0.448 1 1s-0.448 1-1 1h-5.333c-0.552 0-1-0.448-1-1s0.448-1 1-1zM6.667 18.333c0-0.552 0.448-1 1-1h5.333c0.552 0 1 0.448 1 1s-0.448 1-1 1h-5.333c-0.552 0-1-0.448-1-1zM18.333 17.333h5.333c0.552 0 1 0.448 1 1s-0.448 1-1 1h-5.333c-0.552 0-1-0.448-1-1s0.448-1 1-1z"></path>
</svg>
