<!-- Generated by IcoMoon.io -->
<svg version="1.1" xmlns="http://www.w3.org/2000/svg" width="32" height="32" viewBox="0 0 32 32">
<title>cloud-flow-filled</title>
<path d="M8.116 9.333c0.632-3.61 3.784-6.333 7.551-6.333s6.919 2.724 7.551 6.333h0.115c2.487 0 4.577 1.703 5.167 4.006-0.055-0.004-0.111-0.006-0.167-0.006h-5.333c-1.289 0-2.333 1.045-2.333 2.333v1.102c-1.356 0.31-2.484 1.306-2.937 2.666l-0.189 0.566h-9.54c-2.946 0-5.333-2.388-5.333-5.333s2.388-5.333 5.333-5.333h0.116zM22 15.667c0-0.552 0.448-1 1-1h5.333c0.552 0 1 0.448 1 1v5.333c0 0.552-0.448 1-1 1h-5.333c-0.552 0-1-0.448-1-1v-1h-0.431c-0.307 0-0.58 0.197-0.678 0.488l-1.219 3.656c-0.369 1.108-1.407 1.856-2.575 1.856h-1.098v2.333c0 0.552-0.448 1-1 1h-5.333c-0.552 0-1-0.448-1-1v-5.333c0-0.552 0.448-1 1-1h5.333c0.552 0 1 0.448 1 1v1h1.098c0.307 0 0.58-0.197 0.678-0.488l1.219-3.656c0.369-1.108 1.407-1.856 2.575-1.856h0.431v-2.333zM24 19.024v0.976h3.333v-3.333h-3.333v2.309c0 0.008 0 0.016 0 0.024s-0 0.016-0 0.024zM10.667 24v3.333h3.333v-3.333h-3.333z"></path>
</svg>
