<!-- Generated by IcoMoon.io -->
<svg version="1.1" xmlns="http://www.w3.org/2000/svg" width="32" height="32" viewBox="0 0 32 32">
<title>cloud-arrow-down-filled</title>
<path d="M16 4c-3.825 0-6.967 2.929-7.303 6.667h-0.197c-2.853 0-5.167 2.313-5.167 5.167s2.313 5.167 5.167 5.167v0h4.891c0.495-4.315 4.161-7.667 8.609-7.667 2.662 0 5.044 1.2 6.633 3.089 0.021-0.177 0.034-0.381 0.034-0.589 0-2.853-2.313-5.167-5.167-5.167-0 0-0 0-0 0h-0.197c-0.337-3.738-3.478-6.667-7.303-6.667zM29.333 22c0-4.050-3.283-7.333-7.333-7.333s-7.333 3.283-7.333 7.333 3.283 7.333 7.333 7.333 7.333-3.283 7.333-7.333zM22 27.333c-0.184-0-0.351-0.075-0.471-0.195l-3.333-3.333c-0.116-0.12-0.187-0.283-0.187-0.463 0-0.368 0.298-0.667 0.667-0.667 0.18 0 0.343 0.071 0.463 0.187l2.195 2.195v-7.724c0-0.368 0.298-0.667 0.667-0.667s0.667 0.298 0.667 0.667v0 7.724l2.195-2.195c0.12-0.116 0.283-0.187 0.463-0.187 0.368 0 0.667 0.298 0.667 0.667 0 0.18-0.071 0.343-0.187 0.463l-3.333 3.333c-0.121 0.121-0.287 0.195-0.471 0.195v0z"></path>
</svg>
