<!-- Generated by IcoMoon.io -->
<svg version="1.1" xmlns="http://www.w3.org/2000/svg" width="32" height="32" viewBox="0 0 32 32">
<title>cloud-words-filled</title>
<path d="M8.697 13.333c0.337-3.738 3.478-6.667 7.303-6.667s6.967 2.929 7.303 6.667h0.197c2.853 0 5.167 2.313 5.167 5.167s-2.313 5.167-5.167 5.167v0h-15c-2.853 0-5.167-2.313-5.167-5.167s2.313-5.167 5.167-5.167v0h0.197zM13.5 12c-0.46 0-0.833 0.373-0.833 0.833s0.373 0.833 0.833 0.833v0h5c0.46 0 0.833-0.373 0.833-0.833s-0.373-0.833-0.833-0.833v0h-5zM7.333 18.167c0 0.46 0.373 0.833 0.833 0.833h5.667c0.46 0 0.833-0.373 0.833-0.833s-0.373-0.833-0.833-0.833v0h-5.667c-0.46 0-0.833 0.373-0.833 0.833zM18.167 17.333c-0.46 0-0.833 0.373-0.833 0.833s0.373 0.833 0.833 0.833v0h5.667c0.46 0 0.833-0.373 0.833-0.833s-0.373-0.833-0.833-0.833v0h-5.667z"></path>
</svg>
