<!-- Generated by IcoMoon.io -->
<svg version="1.1" xmlns="http://www.w3.org/2000/svg" width="32" height="32" viewBox="0 0 32 32">
<title>cloud-add-filled</title>
<path d="M16 3.2c4.507 0 7.064 3.077 7.435 6.794h0.112c2.904 0 5.253 2.419 5.253 5.403 0 0.152-0.006 0.304-0.018 0.453-1.7-2.111-4.285-3.45-7.182-3.45-4.8 0-8.741 3.675-9.163 8.365l-0.003 0.035h-3.984c-2.901 0-5.251-2.419-5.251-5.403s2.352-5.403 5.251-5.403h0.114c0.374-3.741 2.928-6.794 7.435-6.794zM21.6 28.8c3.976 0 7.2-3.224 7.2-7.2s-3.224-7.2-7.2-7.2v0c-3.976 0-7.2 3.224-7.2 7.2s3.224 7.2 7.2 7.2v0zM21.6 17.6c0.442 0 0.8 0.358 0.8 0.8v0 2.4h2.4c0.442 0 0.8 0.358 0.8 0.8s-0.358 0.8-0.8 0.8v0h-2.4v2.4c0 0.442-0.358 0.8-0.8 0.8s-0.8-0.358-0.8-0.8v0-2.4h-2.4c-0.442 0-0.8-0.358-0.8-0.8s0.358-0.8 0.8-0.8v0h2.4v-2.4c0-0.442 0.358-0.8 0.8-0.8v0z"></path>
</svg>
