<!-- Generated by IcoMoon.io -->
<svg version="1.1" xmlns="http://www.w3.org/2000/svg" width="32" height="32" viewBox="0 0 32 32">
<title>cloud-arrow-up-filled</title>
<path d="M8.116 10.333c0.632-3.61 3.784-6.333 7.551-6.333s6.919 2.724 7.551 6.333h0.115c2.945 0 5.333 2.388 5.333 5.333 0 0.249-0.017 0.495-0.050 0.735-1.59-1.877-3.964-3.069-6.616-3.069-4.448 0-8.114 3.351-8.61 7.667h-5.39c-2.946 0-5.333-2.388-5.333-5.333s2.388-5.333 5.333-5.333h0.116zM29.333 22c0 4.050-3.283 7.333-7.333 7.333s-7.333-3.283-7.333-7.333c0-4.050 3.283-7.333 7.333-7.333s7.333 3.283 7.333 7.333zM21.333 19.609v6.391c0 0.368 0.299 0.667 0.667 0.667s0.667-0.299 0.667-0.667v-6.391l2.195 2.195c0.26 0.26 0.683 0.26 0.943 0s0.26-0.683 0-0.943l-3.333-3.333c-0.26-0.26-0.683-0.26-0.943 0l-3.333 3.333c-0.26 0.26-0.26 0.683 0 0.943s0.683 0.26 0.943 0l2.195-2.195z"></path>
</svg>
