<!-- Generated by IcoMoon.io -->
<svg version="1.1" xmlns="http://www.w3.org/2000/svg" width="32" height="32" viewBox="0 0 32 32">
<title>code-block-filled</title>
<path d="M8 4c-2.209 0-4 1.791-4 4v0 16c0 2.209 1.791 4 4 4v0h16c2.209 0 4-1.791 4-4v0-16c0-2.209-1.791-4-4-4v0h-16zM13.923 10.244c0.151 0.151 0.244 0.359 0.244 0.589s-0.093 0.439-0.244 0.589l-4.577 4.577 4.577 4.577c0.151 0.151 0.244 0.359 0.244 0.589 0 0.46-0.373 0.833-0.833 0.833-0.23 0-0.438-0.093-0.589-0.244v0l-5.167-5.167c-0.151-0.151-0.244-0.359-0.244-0.589s0.093-0.439 0.244-0.589l5.167-5.167c0.151-0.151 0.359-0.244 0.589-0.244s0.439 0.093 0.589 0.244v0zM19.256 10.244l5.167 5.167c0.151 0.151 0.244 0.359 0.244 0.589s-0.093 0.439-0.244 0.589l-5.167 5.167c-0.151 0.151-0.359 0.244-0.589 0.244-0.46 0-0.833-0.373-0.833-0.833 0-0.23 0.093-0.439 0.244-0.589v0l4.577-4.577-4.577-4.577c-0.151-0.151-0.244-0.359-0.244-0.589 0-0.46 0.373-0.833 0.833-0.833 0.23 0 0.439 0.093 0.589 0.244v0z"></path>
</svg>
