<!-- Generated by IcoMoon.io -->
<svg version="1.1" xmlns="http://www.w3.org/2000/svg" width="32" height="32" viewBox="0 0 32 32">
<title>code-circle-filled</title>
<path d="M3.2 16c0-7.069 5.731-12.8 12.8-12.8s12.8 5.731 12.8 12.8v0c0 7.069-5.731 12.8-12.8 12.8s-12.8-5.731-12.8-12.8v0zM19.133 9.92c0.049-0.1 0.077-0.218 0.077-0.343 0-0.442-0.358-0.8-0.8-0.8-0.335 0-0.621 0.206-0.741 0.497l-0.002 0.005-5.6 12.8c-0.049 0.1-0.077 0.218-0.077 0.343 0 0.442 0.358 0.8 0.8 0.8 0.335 0 0.621-0.206 0.741-0.497l0.002-0.005 5.6-12.8zM10.966 12.234c-0.145-0.145-0.345-0.235-0.566-0.235s-0.422 0.090-0.566 0.235l-3.2 3.2c-0.145 0.145-0.235 0.345-0.235 0.566s0.090 0.422 0.235 0.566l3.2 3.2c0.145 0.145 0.345 0.235 0.566 0.235 0.442 0 0.801-0.359 0.801-0.801 0-0.221-0.090-0.421-0.235-0.566v0l-2.635-2.634 2.635-2.634c0.145-0.145 0.235-0.345 0.235-0.566s-0.090-0.422-0.235-0.566l-0-0zM21.034 13.366l2.635 2.634-2.635 2.634c-0.145 0.145-0.235 0.345-0.235 0.566 0 0.442 0.359 0.801 0.801 0.801 0.221 0 0.421-0.090 0.566-0.235v0l3.2-3.2c0.145-0.145 0.235-0.345 0.235-0.566s-0.090-0.422-0.235-0.566l-3.2-3.2c-0.145-0.145-0.345-0.235-0.566-0.235-0.442 0-0.801 0.359-0.801 0.801 0 0.221 0.090 0.421 0.235 0.566v0z"></path>
</svg>
