<!-- Generated by IcoMoon.io -->
<svg version="1.1" xmlns="http://www.w3.org/2000/svg" width="32" height="32" viewBox="0 0 32 32">
<title>code-text-edit-filled</title>
<path d="M4.4 7.2c-0.663 0-1.2 0.537-1.2 1.2s0.537 1.2 1.2 1.2v0h8c0.663 0 1.2-0.537 1.2-1.2s-0.537-1.2-1.2-1.2v0h-8zM9.2 12c-0.663 0-1.2 0.537-1.2 1.2s0.537 1.2 1.2 1.2v0h7.2c0.663 0 1.2-0.537 1.2-1.2s-0.537-1.2-1.2-1.2v0h-7.2zM6.4 18c0-0.663 0.537-1.2 1.2-1.2v0h15.2c0.096 0 0.189 0.011 0.278 0.032l-2.368 2.368h-13.11c-0.663 0-1.2-0.537-1.2-1.2v0zM16.438 23.472l1.563-1.565c-0.211-0.191-0.492-0.307-0.8-0.307-0.001 0-0.001 0-0.002 0h-12.8c-0.663 0-1.2 0.537-1.2 1.2s0.537 1.2 1.2 1.2v0h11.578c0.148-0.194 0.299-0.366 0.461-0.528l0-0zM20 13.2c0-0.663 0.537-1.2 1.2-1.2v0h4.8c0.663 0 1.2 0.537 1.2 1.2s-0.537 1.2-1.2 1.2v0h-4.8c-0.663 0-1.2-0.537-1.2-1.2v0zM17.2 7.2c-0.663 0-1.2 0.537-1.2 1.2s0.537 1.2 1.2 1.2v0h10.4c0.663 0 1.2-0.537 1.2-1.2s-0.537-1.2-1.2-1.2v0h-10.4zM17.568 24.603l7.728-7.728c0.541-0.541 1.289-0.876 2.115-0.876 1.653 0 2.992 1.34 2.992 2.992 0 0.827-0.335 1.575-0.877 2.117l-7.728 7.726c-0.437 0.438-0.99 0.76-1.608 0.919l-0.024 0.005-2.397 0.598c-0.103 0.027-0.222 0.042-0.344 0.042-0.786 0-1.424-0.638-1.424-1.424 0-0.122 0.015-0.24 0.044-0.353l-0.002 0.010 0.6-2.397c0.163-0.643 0.486-1.195 0.925-1.632l0-0z"></path>
</svg>
