<!-- Generated by IcoMoon.io -->
<svg version="1.1" xmlns="http://www.w3.org/2000/svg" width="32" height="32" viewBox="0 0 32 32">
<title>code-filled</title>
<path d="M10.781 24.815l7.995-18.672c0.21-0.478 0.679-0.806 1.224-0.806 0.736 0 1.333 0.597 1.333 1.333 0 0.134-0.020 0.263-0.056 0.385l0.002-0.009-0.053 0.147-7.995 18.672c-0.21 0.478-0.679 0.806-1.225 0.806-0.736 0-1.333-0.597-1.333-1.333 0-0.134 0.020-0.263 0.056-0.384l-0.002 0.009 0.053-0.147 7.995-18.672-7.995 18.671zM3.057 15.057l5.333-5.333c0.241-0.24 0.574-0.389 0.941-0.389 0.736 0 1.333 0.597 1.333 1.333 0 0.309-0.105 0.593-0.281 0.819l0.002-0.003-0.111 0.125-4.391 4.391 4.391 4.391c0.244 0.242 0.395 0.577 0.395 0.947 0 0.736-0.597 1.333-1.333 1.333-0.311 0-0.598-0.107-0.825-0.285l0.003 0.002-0.125-0.112-5.333-5.333c-0.241-0.241-0.39-0.575-0.39-0.943 0-0.309 0.105-0.594 0.282-0.82l-0.002 0.003 0.111-0.125zM21.724 9.723c0.241-0.241 0.575-0.39 0.943-0.39 0.309 0 0.594 0.105 0.82 0.282l-0.003-0.002 0.124 0.111 5.335 5.335c0.241 0.241 0.39 0.575 0.39 0.943 0 0.309-0.105 0.594-0.282 0.82l0.002-0.003-0.111 0.127-5.335 5.327c-0.241 0.24-0.574 0.389-0.941 0.389-0.736 0-1.333-0.597-1.333-1.333 0-0.309 0.105-0.593 0.281-0.819l-0.002 0.003 0.112-0.127 4.388-4.384-4.391-4.392c-0.241-0.241-0.39-0.575-0.39-0.943s0.149-0.701 0.39-0.943v0z"></path>
</svg>
