<!-- Generated by IcoMoon.io -->
<svg version="1.1" xmlns="http://www.w3.org/2000/svg" width="32" height="32" viewBox="0 0 32 32">
<title>collections-add-filled</title>
<path d="M19.703 3.268c1.096 0.592 1.969 1.589 2.379 2.852l0.686 2.546-8.051 0.008c-2.63 0.147-4.717 2.326-4.717 4.992l-0 10 0.007 0.265 0.001 0.019c0.019 0.332 0.069 0.655 0.149 0.966-0.807-0.015-1.586-0.227-2.277-0.601-1.096-0.592-1.969-1.589-2.379-2.852l-2.663-9.913c-0.344-1.284-0.156-2.585 0.43-3.669 0.592-1.096 1.589-1.969 2.852-2.379l9.913-2.663c1.284-0.344 2.585-0.156 3.669 0.43z"></path>
<path d="M15.009 10l-0.227 0.006c-1.923 0.112-3.449 1.708-3.449 3.66v9.991l0.006 0.227c0.112 1.923 1.708 3.449 3.66 3.449h0.643c-0.624-1.197-0.976-2.557-0.976-4 0-4.787 3.88-8.667 8.667-8.667 2.011 0 3.863 0.685 5.333 1.835v-2.826l-0.006-0.227c-0.112-1.923-1.708-3.449-3.66-3.449h-9.991z"></path>
<path d="M30.667 23.333c0-4.050-3.283-7.333-7.333-7.333s-7.333 3.283-7.333 7.333c0 4.050 3.283 7.333 7.333 7.333s7.333-3.283 7.333-7.333zM23.213 18.676l0.12-0.011 0.12 0.011c0.272 0.049 0.487 0.264 0.536 0.536l0.011 0.12-0.001 3.333 3.34 0.001 0.12 0.011c0.272 0.049 0.487 0.264 0.536 0.536l0.011 0.12-0.011 0.12c-0.049 0.272-0.264 0.487-0.536 0.536l-0.12 0.011-3.339-0.001 0.001 3.339-0.011 0.12c-0.049 0.272-0.264 0.487-0.536 0.536l-0.12 0.011-0.12-0.011c-0.272-0.049-0.487-0.264-0.536-0.536l-0.011-0.12-0.001-3.339-3.337 0.001-0.12-0.011c-0.272-0.049-0.487-0.264-0.536-0.536l-0.011-0.12 0.011-0.12c0.049-0.272 0.264-0.487 0.536-0.536l0.12-0.011 3.336-0.001 0.001-3.333 0.011-0.12c0.049-0.272 0.264-0.487 0.536-0.536z"></path>
</svg>
