<!-- Generated by IcoMoon.io -->
<svg version="1.1" xmlns="http://www.w3.org/2000/svg" width="32" height="32" viewBox="0 0 32 32">
<title>collections-add-filled</title>
<path d="M19.703 3.268c1.123 0.613 1.969 1.614 2.369 2.818l0.010 0.035 0.687 2.545-8.051 0.007c-2.637 0.154-4.717 2.33-4.717 4.992 0 0 0 0.001 0 0.001v-0 10l0.007 0.264v0.019c0.020 0.333 0.071 0.655 0.151 0.967-0.837-0.017-1.618-0.237-2.302-0.613l0.026 0.013c-1.123-0.613-1.97-1.614-2.37-2.818l-0.010-0.035-2.661-9.912c-0.11-0.39-0.173-0.838-0.173-1.301 0-0.868 0.222-1.685 0.613-2.395l-0.013 0.026c0.613-1.123 1.614-1.97 2.818-2.37l0.035-0.010 9.912-2.663c0.389-0.109 0.836-0.172 1.297-0.172 0.869 0 1.687 0.223 2.398 0.614l-0.026-0.013zM15.009 10l-0.227 0.007c-1.929 0.118-3.449 1.711-3.449 3.66v0 9.991l0.007 0.227c0.118 1.929 1.712 3.449 3.66 3.449h0.643c-0.618-1.162-0.98-2.541-0.98-4.004 0-4.786 3.88-8.667 8.667-8.667 2.022 0 3.882 0.692 5.356 1.853l-0.019-0.014v-2.825l-0.007-0.227c-0.118-1.929-1.712-3.449-3.66-3.449h-9.991zM30.667 23.333c0-4.050-3.283-7.333-7.333-7.333s-7.333 3.283-7.333 7.333v0c0 4.050 3.283 7.333 7.333 7.333s7.333-3.283 7.333-7.333v0zM23.213 18.676l0.12-0.009 0.12 0.011c0.273 0.051 0.485 0.263 0.535 0.532l0.001 0.004 0.011 0.12v3.333l3.34 0.001 0.12 0.011c0.273 0.051 0.485 0.263 0.535 0.532l0.001 0.004 0.011 0.12-0.011 0.12c-0.051 0.273-0.264 0.485-0.533 0.535l-0.004 0.001-0.12 0.011h-3.337v3.337l-0.011 0.12c-0.051 0.273-0.263 0.485-0.532 0.535l-0.004 0.001-0.12 0.011-0.12-0.011c-0.273-0.051-0.485-0.263-0.535-0.532l-0.001-0.004-0.011-0.12v-3.339h-3.337l-0.12-0.011c-0.273-0.051-0.485-0.263-0.535-0.532l-0.001-0.004-0.011-0.12 0.011-0.12c0.051-0.273 0.263-0.485 0.532-0.535l0.004-0.001 0.12-0.011h3.336v-3.333l0.011-0.12c0.051-0.273 0.263-0.486 0.532-0.537l0.004-0.001z"></path>
</svg>
