<!-- Generated by IcoMoon.io -->
<svg version="1.1" xmlns="http://www.w3.org/2000/svg" width="32" height="32" viewBox="0 0 32 32">
<title>color-line-filled</title>
<path d="M5.843 18.667h-0.509c-1.473 0-2.667 1.194-2.667 2.667v0 5.333c0 1.473 1.194 2.667 2.667 2.667v0h21.333c1.473 0 2.667-1.194 2.667-2.667v0-5.333c0-1.473-1.194-2.667-2.667-2.667v0h-8.605l-1.755 1.752c-0.493 0.492-1.103 0.866-1.785 1.076l-0.031 0.008-5.724 1.717c-0.229 0.071-0.493 0.113-0.767 0.113-1.473 0-2.667-1.194-2.667-2.667 0-0.292 0.047-0.573 0.133-0.835l-0.005 0.019 0.381-1.183zM24.864 3.925c0.776 0.776 1.255 1.848 1.255 3.033 0 1.186-0.481 2.259-1.258 3.035l-9.497 9.481c-0.341 0.34-0.763 0.599-1.235 0.745l-0.021 0.006-5.725 1.719c-0.115 0.036-0.246 0.056-0.383 0.056-0.736 0-1.333-0.597-1.333-1.333 0-0.146 0.024-0.287 0.067-0.419l-0.003 0.009 1.816-5.637c0.147-0.453 0.397-0.867 0.736-1.203l9.509-9.496c0.777-0.776 1.849-1.256 3.034-1.256 1.187 0 2.261 0.481 3.038 1.26l0 0z"></path>
</svg>
