<!-- Generated by IcoMoon.io -->
<svg version="1.1" xmlns="http://www.w3.org/2000/svg" width="32" height="32" viewBox="0 0 32 32">
<title>color-background-filled</title>
<path d="M2.667 16.552v6.781c0 1.841 1.492 3.333 3.333 3.333v0h20c1.841 0 3.333-1.492 3.333-3.333v0-14.667c0-1.841-1.492-3.333-3.333-3.333v0h-11.925l3.229 3.229c0.724 0.724 1.173 1.724 1.173 2.829 0 0.462-0.078 0.906-0.222 1.319l0.009-0.028c0.507 0.056 1 0.28 1.387 0.668l0.004 0.003 0.004 0.005 0.013 0.012 0.027 0.027c0.138 0.141 0.273 0.288 0.404 0.438l0.010 0.012c0.256 0.288 0.6 0.7 0.949 1.187 0.347 0.48 0.727 1.077 1.027 1.733 0.293 0.637 0.579 1.475 0.579 2.399 0 2.473-1.859 4.833-4.667 4.833s-4.667-2.36-4.667-4.833c0-0.387 0.049-0.759 0.129-1.107l-1.816 1.816c-0.724 0.724-1.724 1.172-2.829 1.172s-2.105-0.448-2.829-1.172l-3.323-3.324zM15.123 17.325c-0.251 0.545-0.456 1.184-0.456 1.841 0 1.853 1.372 3.5 3.333 3.5 1.96 0 3.333-1.647 3.333-3.5 0-0.657-0.205-1.296-0.456-1.841-0.276-0.579-0.575-1.075-0.917-1.538l0.018 0.026c-0.294-0.406-0.578-0.759-0.878-1.097l0.012 0.014-0.407-0.437c-0.181-0.181-0.431-0.292-0.707-0.292s-0.526 0.112-0.707 0.292v0l-0.008 0.007c-0.077 0.083-0.285 0.301-0.4 0.431-0.233 0.265-0.548 0.64-0.865 1.083-0.323 0.437-0.622 0.933-0.873 1.456l-0.024 0.056zM18 16.512c0.115 0.144 0.235 0.3 0.353 0.467 0.269 0.375 0.523 0.781 0.707 1.181 0.187 0.407 0.273 0.747 0.273 1.007 0 0.921-0.641 1.5-1.333 1.5-0.693 0-1.333-0.579-1.333-1.5 0-0.259 0.085-0.6 0.273-1.007 0.183-0.4 0.436-0.807 0.705-1.181 0.12-0.167 0.24-0.323 0.355-0.467zM9 1.333c-0.552 0-1 0.448-1 1v0 2.341c-0.045 0.039-0.085 0.077-0.124 0.116l-5.657 5.657c-0.482 0.483-0.781 1.149-0.781 1.885s0.298 1.403 0.781 1.885l4.713 4.715c0.483 0.483 1.149 0.781 1.886 0.781s1.403-0.299 1.886-0.781l5.656-5.657c0.482-0.483 0.781-1.149 0.781-1.885s-0.298-1.403-0.781-1.885l-4.712-4.715c-0.427-0.429-1-0.712-1.638-0.77l-0.010-0.001v-1.687c0-0.552-0.448-1-1-1v0zM8 7.495v0.839c0 0.552 0.448 1 1 1s1-0.448 1-1v0-2.28c0.091 0.036 0.168 0.087 0.232 0.152l4.715 4.713c0.12 0.12 0.184 0.273 0.193 0.429h-10.993l3.853-3.855zM8.347 17.519l-4.171-4.171h9.285l-4.172 4.171c-0.121 0.121-0.287 0.195-0.471 0.195s-0.351-0.075-0.471-0.195v0z"></path>
</svg>
