<!-- Generated by IcoMoon.io -->
<svg version="1.1" xmlns="http://www.w3.org/2000/svg" width="32" height="32" viewBox="0 0 32 32">
<title>color-fill-filled</title>
<path d="M13.429 3.429c0.473 0 0.857 0.384 0.857 0.857v0 1.543c0.661 0.118 1.235 0.429 1.677 0.872l4.22 4.22c0.569 0.569 0.921 1.355 0.921 2.223s-0.352 1.654-0.921 2.223l-5.371 5.371c-0.569 0.569-1.355 0.921-2.223 0.921s-1.654-0.352-2.223-0.921l-4.218-4.221c-0.569-0.569-0.92-1.354-0.92-2.222s0.352-1.654 0.92-2.222l5.371-5.371c0.311-0.311 0.671-0.543 1.055-0.696v-1.719c0-0.473 0.384-0.857 0.857-0.857v0zM12.571 9.429v-1.358l-5.214 5.214c-0.127 0.128-0.226 0.274-0.295 0.43h12.206c0.076-0.168 0.12-0.365 0.12-0.572 0-0.394-0.16-0.751-0.418-1.010v0l-4.219-4.219c-0.137-0.137-0.295-0.24-0.464-0.31v1.825c0 0.473-0.384 0.857-0.857 0.857s-0.857-0.384-0.857-0.857v0zM17.694 15.429h-10.211l4.095 4.096c0.259 0.259 0.616 0.419 1.010 0.419s0.752-0.16 1.010-0.419l4.096-4.096zM18.857 20.571c0-0.403 0.087-0.798 0.199-1.143h-1.321l-2.117 2.117c-0.776 0.775-1.847 1.255-3.030 1.255s-2.255-0.48-3.030-1.255l-2.118-2.117h-0.297c-2.051 0-3.714 1.663-3.714 3.714v0 1.714c0 2.051 1.663 3.714 3.714 3.714v0h17.714c2.051 0 3.714-1.663 3.714-3.714v0-1.714c0-1.339-0.709-2.514-1.771-3.166 0.034 0.192 0.057 0.392 0.057 0.594 0 2.209-1.791 4-4 4s-4-1.791-4-4v0zM23.539 16.338l-0.002-0.002c-0.158-0.205-0.404-0.335-0.68-0.335s-0.522 0.131-0.679 0.333l-0.001 0.002-0.002 0.002-0.006 0.007-0.018 0.025c-0.068 0.088-0.168 0.222-0.265 0.358l-0.037 0.055c-0.194 0.271-0.454 0.646-0.715 1.059-0.259 0.41-0.53 0.873-0.739 1.319-0.194 0.414-0.393 0.931-0.393 1.41 0 1.578 1.279 2.857 2.857 2.857s2.857-1.279 2.857-2.857v0c0-0.48-0.2-0.997-0.393-1.41-0.209-0.446-0.48-0.909-0.739-1.319-0.371-0.583-0.707-1.063-1.060-1.529l0.041 0.057-0.018-0.025-0.006-0.007zM22.857 18.336c0.089 0.134 0.183 0.275 0.275 0.423 0.24 0.379 0.47 0.776 0.635 1.13 0.183 0.386 0.232 0.609 0.232 0.682 0 0.631-0.512 1.143-1.143 1.143s-1.143-0.512-1.143-1.143v0c0-0.073 0.050-0.296 0.232-0.682 0.166-0.354 0.394-0.751 0.635-1.131 0.093-0.146 0.186-0.288 0.275-0.423z"></path>
</svg>
