<!-- Generated by IcoMoon.io -->
<svg version="1.1" xmlns="http://www.w3.org/2000/svg" width="32" height="32" viewBox="0 0 32 32">
<title>color-filled</title>
<path d="M5.119 7.811c3.92-5.221 12.040-6.74 17.819-3.147 5.707 3.547 7.805 10.369 5.467 16.769-2.207 6.044-8.021 8.437-12.212 5.397-1.569-1.139-2.179-2.567-2.472-4.885l-0.141-1.316-0.060-0.531c-0.164-1.245-0.415-1.803-0.94-2.096-0.713-0.397-1.189-0.407-2.127-0.044l-0.468 0.195-0.239 0.104c-1.352 0.587-2.251 0.793-3.388 0.555l-0.267-0.063-0.219-0.063c-3.719-1.152-4.269-6.196-0.753-10.876zM22.356 14.107c0.197 0.717 0.843 1.235 1.61 1.235 0.921 0 1.667-0.746 1.667-1.667 0-0.153-0.021-0.302-0.060-0.443l0.003 0.012c-0.197-0.717-0.843-1.235-1.61-1.235-0.921 0-1.667 0.746-1.667 1.667 0 0.153 0.021 0.302 0.060 0.443l-0.003-0.012zM23.016 18.757c0.182 0.738 0.838 1.276 1.62 1.276 0.92 0 1.667-0.746 1.667-1.667 0-0.168-0.025-0.331-0.071-0.484l0.003 0.012c-0.21-0.696-0.846-1.195-1.598-1.195-0.92 0-1.667 0.746-1.667 1.667 0 0.139 0.017 0.273 0.049 0.402l-0.002-0.011zM19.717 10.103c0.197 0.717 0.843 1.235 1.61 1.235 0.921 0 1.667-0.746 1.667-1.667 0-0.153-0.021-0.302-0.060-0.443l0.003 0.012c-0.197-0.717-0.843-1.235-1.61-1.235-0.921 0-1.667 0.746-1.667 1.667 0 0.153 0.021 0.302 0.060 0.443l-0.003-0.012zM19.68 22.1c0.197 0.717 0.843 1.235 1.61 1.235 0.921 0 1.667-0.746 1.667-1.667 0-0.153-0.021-0.302-0.060-0.443l0.003 0.012c-0.197-0.717-0.843-1.235-1.61-1.235-0.921 0-1.667 0.746-1.667 1.667 0 0.153 0.021 0.302 0.060 0.443l-0.003-0.012zM15.017 8.807c0.192 0.724 0.841 1.25 1.614 1.25 0.92 0 1.667-0.746 1.667-1.667 0-0.158-0.022-0.311-0.063-0.456l0.003 0.012c-0.201-0.71-0.844-1.222-1.606-1.222-0.92 0-1.667 0.746-1.667 1.667 0 0.148 0.019 0.292 0.056 0.428l-0.003-0.012z"></path>
</svg>
