<!-- Generated by IcoMoon.io -->
<svg version="1.1" xmlns="http://www.w3.org/2000/svg" width="32" height="32" viewBox="0 0 32 32">
<title>color-fill-filled</title>
<path d="M17.361 18.667c-0.017 0.163-0.027 0.33-0.027 0.5 0 2.475 1.859 4.833 4.667 4.833s4.667-2.358 4.667-4.833c0-0.148-0.007-0.294-0.021-0.437 1.532 0.301 2.687 1.651 2.687 3.271v4c0 1.841-1.492 3.333-3.333 3.333h-20c-1.841 0-3.333-1.492-3.333-3.333v-4c0-1.841 1.492-3.333 3.333-3.333h2.781l1.209 1.209c1.562 1.562 4.095 1.562 5.657 0l1.209-1.209h0.504z"></path>
<path d="M19.123 17.325c-0.25 0.545-0.456 1.184-0.456 1.842 0 1.854 1.372 3.5 3.333 3.5s3.333-1.646 3.333-3.5c0-0.658-0.206-1.296-0.456-1.842-0.254-0.554-0.584-1.074-0.899-1.512-0.316-0.441-0.631-0.817-0.865-1.082l-0.407-0.438c-0.391-0.391-1.024-0.391-1.414 0l-0.007 0.008c-0.077 0.082-0.285 0.301-0.399 0.43-0.235 0.265-0.549 0.641-0.865 1.082-0.315 0.438-0.644 0.959-0.899 1.512zM22 16.513c0.114 0.143 0.235 0.3 0.354 0.467 0.269 0.374 0.522 0.781 0.706 1.18 0.187 0.408 0.273 0.748 0.273 1.007 0 0.922-0.641 1.5-1.333 1.5s-1.333-0.578-1.333-1.5c0-0.259 0.086-0.6 0.273-1.007 0.183-0.399 0.437-0.806 0.706-1.18 0.12-0.167 0.24-0.324 0.354-0.467z"></path>
<path d="M13 1.333c-0.552 0-1 0.448-1 1v2.341c-0.042 0.037-0.084 0.076-0.124 0.117l-5.657 5.657c-1.041 1.041-1.041 2.73 0 3.771l4.714 4.714c1.041 1.041 2.73 1.041 3.771 0l5.657-5.657c1.041-1.041 1.041-2.73 0-3.771l-4.714-4.714c-0.46-0.46-1.046-0.717-1.647-0.77v-1.687c0-0.552-0.448-1-1-1zM12 7.495v0.838c0 0.552 0.448 1 1 1s1-0.448 1-1v-2.28c0.085 0.032 0.164 0.083 0.233 0.151l4.714 4.714c0.119 0.119 0.184 0.272 0.194 0.429h-10.993l3.853-3.853zM12.347 17.519l-4.171-4.171h9.285l-4.171 4.171c-0.26 0.26-0.682 0.26-0.943 0z"></path>
</svg>
