<!-- Generated by IcoMoon.io -->
<svg version="1.1" xmlns="http://www.w3.org/2000/svg" width="32" height="32" viewBox="0 0 32 32">
<title>color-line-filled</title>
<path d="M5.842 18.667h-0.509c-1.473 0-2.667 1.194-2.667 2.667v5.333c0 1.473 1.194 2.667 2.667 2.667h21.333c1.473 0 2.667-1.194 2.667-2.667v-5.333c0-1.473-1.194-2.667-2.667-2.667h-8.605l-1.755 1.752c-0.507 0.506-1.13 0.878-1.816 1.084l-5.724 1.718c-1.411 0.423-2.897-0.377-3.321-1.787-0.155-0.517-0.15-1.070 0.016-1.584l0.381-1.182z"></path>
<path d="M24.864 3.925c1.675 1.676 1.674 4.393-0.002 6.068l-9.498 9.482c-0.351 0.35-0.783 0.608-1.257 0.75l-5.724 1.718c-0.705 0.212-1.449-0.188-1.66-0.894-0.078-0.259-0.075-0.535 0.008-0.792l1.815-5.637c0.146-0.454 0.399-0.867 0.736-1.204l9.51-9.495c1.678-1.675 4.395-1.673 6.071 0.003z"></path>
</svg>
