<!-- Generated by IcoMoon.io -->
<svg version="1.1" xmlns="http://www.w3.org/2000/svg" width="32" height="32" viewBox="0 0 32 32">
<title>column-triple-filled</title>
<path d="M8.317 4c1.289 0 2.333 1.045 2.333 2.333v19.333c0 1.289-1.045 2.333-2.333 2.333v0h-3.333c-1.289 0-2.333-1.045-2.333-2.333v0-19.333c0.001-1.221 0.939-2.222 2.134-2.323l0.009-0.001 0.191-0.009h3.333zM27.019 4c1.289 0 2.333 1.045 2.333 2.333v19.333c0 1.289-1.045 2.333-2.333 2.333v0h-3.333c-1.289 0-2.333-1.045-2.333-2.333v0-19.333c0-1.288 1.045-2.333 2.333-2.333h3.333zM17.651 4c1.289 0 2.333 1.045 2.333 2.333v19.333c0 1.289-1.045 2.333-2.333 2.333v0h-3.333c-1.289 0-2.333-1.045-2.333-2.333v0-19.333c0-1.288 1.045-2.333 2.333-2.333h3.333z"></path>
</svg>
