<!-- Generated by IcoMoon.io -->
<svg version="1.1" xmlns="http://www.w3.org/2000/svg" width="32" height="32" viewBox="0 0 32 32">
<title>column-edit-filled</title>
<path d="M7 7.667c0-0.92-0.747-1.667-1.667-1.667h-1c-0.552 0-1-0.448-1-1s0.448-1 1-1v0h1c2.025 0 3.667 1.642 3.667 3.667v0 16.667c0 2.025-1.642 3.667-3.667 3.667v0h-1c-0.552 0-1-0.448-1-1s0.448-1 1-1v0h1c0.92 0 1.667-0.747 1.667-1.667v-16.667zM14.333 4c-2.025 0-3.667 1.642-3.667 3.667v0 16.667c0 2.025 1.642 3.667 3.667 3.667v0h0.553l0.475-1.897c0.216-0.864 0.663-1.653 1.293-2.283l4.679-4.68v-11.473c0-2.025-1.642-3.667-3.667-3.667v0h-3.333zM25.333 7.667v7.644c-0.288 0.176-0.56 0.389-0.809 0.64l-1.191 1.189v-9.473c0-2.025 1.642-3.667 3.667-3.667v0h1c0.552 0 1 0.448 1 1s-0.448 1-1 1v0h-1c-0.92 0-1.667 0.747-1.667 1.667zM25.467 16.893l-7.871 7.869c-0.446 0.446-0.774 1.008-0.936 1.638l-0.005 0.025-0.611 2.441c-0.027 0.106-0.043 0.227-0.043 0.352 0 0.8 0.649 1.449 1.449 1.449 0.125 0 0.247-0.016 0.363-0.046l-0.010 0.002 2.44-0.609c0.655-0.167 1.218-0.496 1.664-0.943l7.869-7.869c0.522-0.546 0.843-1.288 0.843-2.104 0-1.683-1.365-3.048-3.048-3.048-0.817 0-1.558 0.321-2.105 0.844l0.001-0.001z"></path>
</svg>
