<!-- Generated by IcoMoon.io -->
<svg version="1.1" xmlns="http://www.w3.org/2000/svg" width="32" height="32" viewBox="0 0 32 32">
<title>column-double-compare-filled</title>
<path d="M11.2 4.8h-6.4c-1.767 0-3.2 1.433-3.2 3.2v0 16c0 1.767 1.433 3.2 3.2 3.2v0h6.4c1.767 0 3.2-1.433 3.2-3.2v0-16c0-1.767-1.433-3.2-3.2-3.2v0zM12.8 11.2h-9.6v-1.541h9.6v1.541zM27.2 4.8h-6.4c-1.767 0-3.2 1.433-3.2 3.2v0 16c0 1.767 1.433 3.2 3.2 3.2v0h6.4c1.767 0 3.2-1.433 3.2-3.2v0-16c0-1.767-1.433-3.2-3.2-3.2v0zM28.8 20.8h-9.6v-4.8h9.6v4.8z"></path>
</svg>
