<!-- Generated by IcoMoon.io -->
<svg version="1.1" xmlns="http://www.w3.org/2000/svg" width="32" height="32" viewBox="0 0 32 32">
<title>column-triple-edit-filled</title>
<path d="M8.316 4.001c1.289 0 2.333 1.045 2.333 2.333v19.333c0 1.289-1.045 2.333-2.333 2.333h-3.333c-1.289 0-2.333-1.045-2.333-2.333v-19.333c0-1.224 0.943-2.228 2.142-2.326l0.191-0.008h3.333zM27.018 4.001c1.289 0 2.333 1.045 2.333 2.333v8.687c-1.599-0.686-3.522-0.377-4.827 0.929l-3.173 3.173v-12.788c0-1.289 1.045-2.333 2.333-2.333h3.333zM24.864 28.001l4.487-4.487v2.154c0 1.289-1.045 2.333-2.333 2.333h-2.154zM16.654 23.82l3.329-3.329v-14.157c0-1.289-1.045-2.333-2.333-2.333h-3.333c-1.289 0-2.333 1.045-2.333 2.333v19.333c0 1.289 1.045 2.333 2.333 2.333h0.571l0.474-1.898c0.216-0.864 0.663-1.653 1.292-2.283zM25.467 16.893l-7.87 7.87c-0.459 0.459-0.784 1.034-0.942 1.663l-0.61 2.441c-0.265 1.061 0.696 2.023 1.758 1.758l2.441-0.61c0.63-0.157 1.205-0.483 1.663-0.942l7.87-7.87c1.19-1.19 1.19-3.12 0-4.31s-3.12-1.19-4.31 0z"></path>
</svg>
