<!-- Generated by IcoMoon.io -->
<svg version="1.1" xmlns="http://www.w3.org/2000/svg" width="32" height="32" viewBox="0 0 32 32">
<title>column-triple-edit-filled</title>
<path d="M8.317 4c1.289 0 2.333 1.045 2.333 2.333v19.333c0 1.289-1.045 2.333-2.333 2.333v0h-3.333c-1.289 0-2.333-1.045-2.333-2.333v0-19.333c0.001-1.221 0.939-2.222 2.134-2.323l0.009-0.001 0.191-0.009h3.333zM27.019 4c1.289 0 2.333 1.045 2.333 2.333v8.688c-0.51-0.224-1.104-0.355-1.728-0.355-1.21 0-2.305 0.49-3.099 1.283l-3.173 3.173v-12.789c0-1.289 1.045-2.333 2.333-2.333h3.333zM24.867 28l4.487-4.487v2.155c0 1.289-1.045 2.333-2.333 2.333v0h-2.153zM16.656 23.82l3.329-3.329v-14.157c0-1.289-1.045-2.333-2.333-2.333-0 0-0.001 0-0.001 0h-3.333c-1.289 0-2.333 1.045-2.333 2.333v0 19.333c0 1.288 1.045 2.333 2.333 2.333h0.571l0.475-1.897c0.216-0.864 0.663-1.653 1.293-2.283zM25.469 16.893l-7.869 7.869c-0.446 0.446-0.775 1.008-0.937 1.638l-0.005 0.025-0.609 2.441c-0.267 1.061 0.696 2.023 1.757 1.757l2.44-0.609c0.655-0.167 1.218-0.496 1.664-0.943l7.869-7.869c0.522-0.546 0.843-1.288 0.843-2.104 0-1.683-1.365-3.048-3.048-3.048-0.817 0-1.558 0.321-2.105 0.844l0.001-0.001z"></path>
</svg>
