<!-- Generated by IcoMoon.io -->
<svg version="1.1" xmlns="http://www.w3.org/2000/svg" width="32" height="32" viewBox="0 0 32 32">
<title>column-triple-filled</title>
<path d="M8.316 4.001c1.289 0 2.333 1.045 2.333 2.333v19.333c0 1.289-1.045 2.333-2.333 2.333h-3.333c-1.289 0-2.333-1.045-2.333-2.333v-19.333c0-1.224 0.943-2.228 2.142-2.326l0.191-0.008h3.333zM27.018 4.001c1.289 0 2.333 1.045 2.333 2.333v19.333c0 1.289-1.045 2.333-2.333 2.333h-3.333c-1.289 0-2.333-1.045-2.333-2.333v-19.333c0-1.289 1.045-2.333 2.333-2.333h3.333zM17.65 4c1.289 0 2.333 1.045 2.333 2.333v19.333c0 1.289-1.045 2.333-2.333 2.333h-3.333c-1.289 0-2.333-1.045-2.333-2.333v-19.333c0-1.289 1.045-2.333 2.333-2.333h3.333z"></path>
</svg>
