<!-- Generated by IcoMoon.io -->
<svg version="1.1" xmlns="http://www.w3.org/2000/svg" width="32" height="32" viewBox="0 0 32 32">
<title>comment-checkmark-filled</title>
<path d="M30.667 8.667c0 4.050-3.283 7.333-7.333 7.333s-7.333-3.283-7.333-7.333 3.283-7.333 7.333-7.333 7.333 3.283 7.333 7.333zM27.805 5.529c-0.121-0.121-0.287-0.195-0.471-0.195s-0.351 0.075-0.471 0.195l-4.862 4.862-2.195-2.195c-0.12-0.116-0.283-0.187-0.463-0.187-0.368 0-0.667 0.298-0.667 0.667 0 0.18 0.071 0.343 0.187 0.463l2.666 2.666c0.121 0.121 0.287 0.195 0.471 0.195s0.351-0.075 0.471-0.195l5.333-5.333c0.121-0.121 0.195-0.287 0.195-0.471s-0.075-0.351-0.195-0.471v0zM23.333 17.333c2.329 0 4.443-0.919 6-2.413v4.247c0 2.669-2.164 4.833-4.833 4.833v0h-6.902l-7.233 5.105c-0.993 0.701-2.365-0.009-2.365-1.225v-3.88h-0.5c-2.669 0-4.833-2.164-4.833-4.833v0-10.333c0-2.669 2.164-4.833 4.833-4.833v0h8.529c-0.855 1.316-1.363 2.925-1.363 4.653 0 0.005 0 0.009 0 0.014v-0.001c0 4.787 3.88 8.667 8.667 8.667z"></path>
</svg>
