<!-- Generated by IcoMoon.io -->
<svg version="1.1" xmlns="http://www.w3.org/2000/svg" width="32" height="32" viewBox="0 0 32 32">
<title>communication-person-filled</title>
<path d="M16 6.667c-5.891 0-10.667 4.776-10.667 10.667 0 2.942 1.19 5.604 3.117 7.536 0.52 0.521 0.519 1.365-0.002 1.886s-1.365 0.519-1.886-0.002c-2.406-2.411-3.897-5.742-3.897-9.419 0-7.364 5.97-13.333 13.333-13.333s13.333 5.97 13.333 13.333c0 1.641-0.297 3.214-0.84 4.667h-1.093c0.081-0.075 0.16-0.154 0.236-0.234 0.845-0.894 1.364-2.104 1.364-3.432s-0.52-2.539-1.365-3.433c-0.444-0.47-0.979-0.854-1.577-1.125-1.465-4.142-5.415-7.109-10.059-7.109zM20.613 14.656c0.654-0.603 1.469-1.033 2.375-1.22-1.368-2.448-3.985-4.103-6.988-4.103-4.418 0-8 3.582-8 8 0 2.209 0.897 4.211 2.343 5.657 0.521 0.521 1.365 0.521 1.886 0s0.521-1.365 0-1.886c-0.967-0.967-1.562-2.298-1.562-3.771 0-2.945 2.388-5.333 5.333-5.333 1.969 0 3.69 1.068 4.613 2.656zM16 14.667c-1.473 0-2.667 1.194-2.667 2.667s1.194 2.667 2.667 2.667c1.473 0 2.667-1.194 2.667-2.667s-1.194-2.667-2.667-2.667zM26.667 15.816c-0.524-0.555-1.219-0.946-2.001-1.089-0.216-0.040-0.438-0.060-0.665-0.060-1.425 0-2.66 0.813-3.267 2-0.256 0.5-0.4 1.067-0.4 1.667 0 0.112 0.005 0.224 0.015 0.333 0.168 1.869 1.739 3.333 3.652 3.333 0.227 0 0.45-0.021 0.666-0.060 0.782-0.143 1.477-0.535 2.001-1.089 0.62-0.657 1-1.542 1-2.517s-0.381-1.861-1.001-2.518zM19.334 23.333l-0.019 0c-0.052 0-0.103 0.003-0.153 0.007-1.024 0.088-1.828 0.946-1.828 1.993v0.667c0 0.679 0.166 1.364 0.484 2.005 0.373 0.752 0.954 1.444 1.723 2.001 1.115 0.807 2.623 1.327 4.461 1.327 4.188 0 6.668-2.705 6.668-5.333v-0.667c0-1.105-0.896-2-2-2h-9.335z"></path>
</svg>
