<!-- Generated by IcoMoon.io -->
<svg version="1.1" xmlns="http://www.w3.org/2000/svg" width="32" height="32" viewBox="0 0 32 32">
<title>communication-filled</title>
<path d="M16 6.667c-5.891 0-10.667 4.776-10.667 10.667 0 2.942 1.19 5.604 3.117 7.536 0.52 0.521 0.519 1.365-0.002 1.886s-1.365 0.519-1.886-0.002c-2.406-2.411-3.897-5.742-3.897-9.419 0-7.364 5.97-13.333 13.333-13.333s13.333 5.97 13.333 13.333c0 3.677-1.49 7.009-3.897 9.419-0.52 0.521-1.364 0.522-1.886 0.002s-0.522-1.365-0.002-1.886c1.928-1.931 3.117-4.593 3.117-7.536 0-5.891-4.776-10.667-10.667-10.667z"></path>
<path d="M16 14.667c-1.473 0-2.667 1.194-2.667 2.667s1.194 2.667 2.667 2.667c1.473 0 2.667-1.194 2.667-2.667s-1.194-2.667-2.667-2.667z"></path>
<path d="M10.667 17.333c0-2.945 2.388-5.333 5.333-5.333s5.333 2.388 5.333 5.333c0 1.473-0.595 2.805-1.562 3.771-0.521 0.521-0.521 1.365 0 1.886s1.365 0.521 1.886 0c1.446-1.446 2.343-3.448 2.343-5.657 0-4.418-3.582-8-8-8s-8 3.582-8 8c0 2.209 0.897 4.211 2.343 5.657 0.521 0.521 1.365 0.521 1.886 0s0.521-1.365 0-1.886c-0.967-0.967-1.562-2.298-1.562-3.771z"></path>
</svg>
