<!-- Generated by IcoMoon.io -->
<svg version="1.1" xmlns="http://www.w3.org/2000/svg" width="32" height="32" viewBox="0 0 32 32">
<title>comment-arrow-left-filled</title>
<path d="M16.030 3.998c-0.863 1.347-1.363 2.949-1.363 4.668 0 4.787 3.88 8.667 8.667 8.667 2.329 0 4.444-0.919 6.001-2.414l-0.001 4.747c0 2.393-1.94 4.333-4.333 4.333h-7.714l-7.182 5.090c-0.601 0.426-1.433 0.284-1.859-0.317-0.16-0.225-0.245-0.495-0.245-0.771l-0.001-4.002h-0.999c-2.393 0-4.333-1.94-4.333-4.333v-11.333c0-2.393 1.94-4.333 4.333-4.333l9.030-0.002zM23.333 1.333c4.050 0 7.333 3.283 7.333 7.333s-3.283 7.333-7.333 7.333c-4.050 0-7.333-3.283-7.333-7.333s3.283-7.333 7.333-7.333zM21.621 4.785l-0.092 0.077-3.372 3.375-0.038 0.050-0.056 0.098-0.040 0.111-0.019 0.11-0.002 0.089 0.010 0.091 0.020 0.083 0.031 0.081 0.041 0.074 0.054 0.073 3.372 3.375c0.26 0.26 0.683 0.26 0.943 0 0.231-0.231 0.257-0.591 0.077-0.85l-0.077-0.092-2.194-2.195h7.056c0.327 0 0.599-0.236 0.656-0.547l0.011-0.12c0-0.327-0.236-0.599-0.547-0.656l-0.12-0.011h-7.056l2.194-2.195c0.231-0.231 0.257-0.591 0.077-0.85l-0.077-0.092c-0.231-0.231-0.591-0.257-0.851-0.077z"></path>
</svg>
