<!-- Generated by IcoMoon.io -->
<svg version="1.1" xmlns="http://www.w3.org/2000/svg" width="32" height="32" viewBox="0 0 32 32">
<title>comment-lightning-filled</title>
<path d="M21.757 1.333h6.436c0 0 0 0 0 0 0.368 0 0.667 0.298 0.667 0.667 0 0.12-0.032 0.233-0.087 0.33l0.002-0.003-2.44 4.34h1.993c0 0 0.001 0 0.001 0 0.552 0 1 0.448 1 1 0 0.253-0.094 0.484-0.249 0.66l0.001-0.001-6.432 7.344c-0.673 0.768-1.924 0.113-1.677-0.877l1.028-4.125h-4.003c-0 0-0.001 0-0.001 0-0.368 0-0.667-0.298-0.667-0.667 0-0.103 0.023-0.201 0.065-0.288l-0.002 0.004 3.76-8c0.109-0.228 0.338-0.383 0.603-0.383 0 0 0.001 0 0.001 0h-0zM7 4h11.607l-2.42 5.149c-0.12 0.249-0.19 0.542-0.19 0.851 0 1.104 0.895 2 1.999 2h2.297l-0.615 2.471c-0.587 2.347 2.379 3.897 3.973 2.077l5.681-6.488v9.607c0 2.393-1.94 4.333-4.333 4.333v0h-7.667l-6.667 5c-1.099 0.824-2.667 0.040-2.667-1.333v-3.667h-1c-2.393 0-4.333-1.94-4.333-4.333v0-11.333c0-2.393 1.94-4.333 4.333-4.333v0z"></path>
</svg>
