<!-- Generated by IcoMoon.io -->
<svg version="1.1" xmlns="http://www.w3.org/2000/svg" width="32" height="32" viewBox="0 0 32 32">
<title>comment-add-filled</title>
<path d="M16.030 3.999c-0.863 1.347-1.363 2.949-1.363 4.668 0 4.787 3.88 8.667 8.667 8.667 2.329 0 4.444-0.919 6.001-2.414l-0.001 4.747c0 2.393-1.94 4.333-4.333 4.333h-7.714l-7.182 5.090c-0.601 0.426-1.433 0.284-1.859-0.317-0.16-0.225-0.245-0.495-0.245-0.771l-0.001-4.002h-0.999c-2.393 0-4.333-1.94-4.333-4.333v-11.333c0-2.393 1.94-4.333 4.333-4.333l9.030-0.001zM23.333 1.333c4.050 0 7.333 3.283 7.333 7.333s-3.283 7.333-7.333 7.333c-4.050 0-7.333-3.283-7.333-7.333s3.283-7.333 7.333-7.333zM23.333 3.333l-0.12 0.011c-0.272 0.049-0.487 0.264-0.536 0.536l-0.011 0.12-0.001 4h-3.999l-0.12 0.011c-0.272 0.049-0.487 0.264-0.536 0.536l-0.011 0.12 0.011 0.12c0.049 0.272 0.264 0.487 0.536 0.536l0.12 0.011h3.999l0.001 4 0.011 0.12c0.049 0.272 0.264 0.487 0.536 0.536l0.12 0.011 0.12-0.011c0.272-0.049 0.487-0.264 0.536-0.536l0.011-0.12-0.001-4h4.001l0.12-0.011c0.272-0.049 0.487-0.264 0.536-0.536l0.011-0.12-0.011-0.12c-0.049-0.272-0.264-0.487-0.536-0.536l-0.12-0.011h-4.001l0.001-4-0.011-0.12c-0.049-0.272-0.264-0.487-0.536-0.536l-0.12-0.011z"></path>
</svg>
