<!-- Generated by IcoMoon.io -->
<svg version="1.1" xmlns="http://www.w3.org/2000/svg" width="32" height="32" viewBox="0 0 32 32">
<title>comment-multiple-checkmark-filled</title>
<path d="M11 2.667c-2.284 0-4.155 1.767-4.321 4.009 0.106-0.006 0.214-0.009 0.321-0.009h12.667c3.13 0 5.667 2.537 5.667 5.667v2.565c1.53 0.361 2.903 1.128 3.999 2.18 0-0.026 0.001-0.053 0.001-0.079v-8c0-3.498-2.835-6.333-6.333-6.333h-12zM24 12.333v2.359c-0.22-0.017-0.442-0.025-0.667-0.025-4.787 0-8.667 3.88-8.667 8.667 0 0.688 0.080 1.358 0.232 2h-0.676l-4.889 3.667c-1.099 0.824-2.667 0.040-2.667-1.333v-2.346c-2.237-0.17-4-2.040-4-4.321v-8.667c0-2.281 1.763-4.15 4-4.321 0.11-0.008 0.221-0.013 0.333-0.013h12.667c2.393 0 4.333 1.94 4.333 4.333zM30.667 23.333c0-4.050-3.283-7.333-7.333-7.333s-7.333 3.283-7.333 7.333c0 4.050 3.283 7.333 7.333 7.333s7.333-3.283 7.333-7.333zM27.805 20.195c0.26 0.26 0.26 0.683 0 0.943l-5.333 5.333c-0.26 0.26-0.683 0.26-0.943 0l-2.667-2.667c-0.26-0.26-0.26-0.683 0-0.943s0.683-0.26 0.943 0l2.195 2.195 4.862-4.862c0.26-0.26 0.683-0.26 0.943 0z"></path>
</svg>
