<!-- Generated by IcoMoon.io -->
<svg version="1.1" xmlns="http://www.w3.org/2000/svg" width="32" height="32" viewBox="0 0 32 32">
<title>comment-mention-filled</title>
<path d="M18.667 8c0-0.003 0-0.006 0-0.009 0-2.946 2.388-5.333 5.333-5.333 2.942 0 5.328 2.383 5.333 5.324v1.019c0 0.552-0.448 1-1 1s-1-0.448-1-1v0-3.667c0-0.368-0.298-0.667-0.667-0.667s-0.667 0.298-0.667 0.667v0c-0.55-0.416-1.246-0.667-2-0.667-1.841 0-3.333 1.492-3.333 3.333s1.492 3.333 3.333 3.333c0.943 0 1.795-0.392 2.402-1.022l0.001-0.001c0.426 0.621 1.131 1.023 1.931 1.023 1.289 0 2.333-1.045 2.333-2.333 0-0 0-0 0-0v0-1c0-3.682-2.985-6.667-6.667-6.667s-6.667 2.985-6.667 6.667c0 3.682 2.985 6.667 6.667 6.667v0c1.367 0 2.64-0.4 3.704-1.113 0.165-0.123 0.271-0.317 0.271-0.537 0-0.368-0.298-0.667-0.667-0.667-0.128 0-0.247 0.036-0.349 0.099l0.003-0.002c-0.824 0.556-1.839 0.887-2.931 0.887-0.011 0-0.022-0-0.033-0h0.002c-2.946 0-5.333-2.388-5.333-5.333v0zM24 10c-1.105 0-2-0.895-2-2s0.895-2 2-2v0c1.105 0 2 0.895 2 2s-0.895 2-2 2v0zM7 4h10.071c-0.674 1.148-1.073 2.528-1.073 4.002 0 4.418 3.582 8 8 8 2.054 0 3.926-0.774 5.343-2.046l-0.007 0.007v5.704c0 2.393-1.94 4.333-4.333 4.333v0h-7.667l-6.667 5c-1.099 0.824-2.667 0.040-2.667-1.333v-3.667h-1c-2.393 0-4.333-1.94-4.333-4.333v0-11.333c0-2.393 1.94-4.333 4.333-4.333v0z"></path>
</svg>
