<!-- Generated by IcoMoon.io -->
<svg version="1.1" xmlns="http://www.w3.org/2000/svg" width="32" height="32" viewBox="0 0 32 32">
<title>comment-arrow-right-filled</title>
<path d="M16.030 3.998c-0.863 1.347-1.363 2.949-1.363 4.668 0 4.787 3.88 8.667 8.667 8.667 2.329 0 4.444-0.919 6.001-2.414l-0.001 4.747c0 2.393-1.94 4.333-4.333 4.333h-7.714l-7.182 5.090c-0.601 0.426-1.433 0.284-1.859-0.317-0.16-0.225-0.245-0.495-0.245-0.771l-0.001-4.002h-0.999c-2.393 0-4.333-1.94-4.333-4.333v-11.333c0-2.393 1.94-4.333 4.333-4.333l9.030-0.002zM23.333 1.333c4.050 0 7.333 3.283 7.333 7.333s-3.283 7.333-7.333 7.333c-4.050 0-7.333-3.283-7.333-7.333s3.283-7.333 7.333-7.333zM23.621 4.785l-0.092 0.077-0.077 0.092c-0.157 0.227-0.157 0.531 0 0.758l0.077 0.092 2.194 2.195h-7.056l-0.12 0.011c-0.272 0.049-0.487 0.264-0.536 0.536l-0.011 0.12 0.011 0.12c0.049 0.272 0.264 0.487 0.536 0.536l0.12 0.011h7.056l-2.194 2.195-0.077 0.092c-0.18 0.26-0.154 0.619 0.077 0.85s0.591 0.257 0.851 0.077l0.092-0.077 3.389-3.397 0.044-0.063 0.045-0.090 0.028-0.084 0.019-0.109 0.003-0.062-0.004-0.071-0.018-0.1-0.040-0.111-0.056-0.098-0.061-0.075-3.349-3.35-0.092-0.077c-0.227-0.157-0.531-0.157-0.758 0z"></path>
</svg>
