<!-- Generated by IcoMoon.io -->
<svg version="1.1" xmlns="http://www.w3.org/2000/svg" width="32" height="32" viewBox="0 0 32 32">
<title>comment-dismiss-filled</title>
<path d="M30.667 8.667c0 4.050-3.283 7.333-7.333 7.333s-7.333-3.283-7.333-7.333v0c0-4.050 3.283-7.333 7.333-7.333s7.333 3.283 7.333 7.333v0zM21.139 5.528c-0.121-0.121-0.288-0.196-0.472-0.196-0.369 0-0.668 0.299-0.668 0.668 0 0.184 0.075 0.351 0.195 0.472v0l2.196 2.195-2.196 2.195c-0.121 0.121-0.195 0.288-0.195 0.472 0 0.369 0.299 0.668 0.668 0.668 0.184 0 0.351-0.075 0.472-0.195v0l2.195-2.196 2.195 2.196c0.121 0.121 0.288 0.195 0.472 0.195 0.369 0 0.668-0.299 0.668-0.668 0-0.184-0.075-0.351-0.195-0.472l-2.196-2.195 2.196-2.195c0.121-0.121 0.195-0.288 0.195-0.472 0-0.369-0.299-0.668-0.668-0.668-0.184 0-0.351 0.075-0.472 0.196l-2.195 2.196-2.195-2.196zM23.333 17.333c0.003 0 0.007 0 0.011 0 2.327 0 4.438-0.92 5.991-2.416l-0.003 0.003v4.747c0 2.393-1.94 4.333-4.333 4.333v0h-7.667l-6.667 5c-1.099 0.824-2.667 0.040-2.667-1.333v-3.667h-1c-2.393 0-4.333-1.94-4.333-4.333v0-11.333c0-2.393 1.94-4.333 4.333-4.333v0h9.029c-0.855 1.32-1.364 2.934-1.364 4.667 0 4.786 3.88 8.667 8.667 8.667 0 0 0.001 0 0.001 0h-0z"></path>
</svg>
