<!-- Generated by IcoMoon.io -->
<svg version="1.1" xmlns="http://www.w3.org/2000/svg" width="32" height="32" viewBox="0 0 32 32">
<title>comment-multiple-checkmark-filled</title>
<path d="M14.857 23.429c0 0.792 0.107 1.558 0.309 2.286h-1.162l-4.851 3.697c-0.941 0.717-2.295 0.046-2.295-1.136v-2.561h-0.286c-2.367 0-4.286-1.919-4.286-4.286v0-10.274c0-2.367 1.919-4.286 4.286-4.286v0h14.286c2.367 0 4.286 1.919 4.286 4.286v0 3.874c-0.515-0.11-1.107-0.173-1.714-0.173-4.734 0-8.571 3.838-8.571 8.571 0 0.001 0 0.001 0 0.002v-0zM28.857 8.869v7.927c-0.732-0.604-1.585-1.096-2.512-1.433l-0.060-0.019v-4.19c0-2.998-2.43-5.429-5.429-5.429v0h-13.034c0.395-1.49 1.731-2.571 3.32-2.571h12c3.156 0 5.714 2.558 5.714 5.714v0zM30.857 23.429c0-4.103-3.326-7.429-7.429-7.429s-7.429 3.326-7.429 7.429v0c0 4.103 3.326 7.429 7.429 7.429s7.429-3.326 7.429-7.429v0zM27.833 20.167c0.104 0.103 0.168 0.247 0.168 0.405s-0.064 0.301-0.168 0.405v0l-5.714 5.714c-0.103 0.104-0.247 0.168-0.405 0.168s-0.301-0.064-0.405-0.168v0l-2.286-2.286c-0.104-0.104-0.168-0.247-0.168-0.405 0-0.316 0.256-0.572 0.572-0.572 0.158 0 0.301 0.064 0.405 0.168l1.881 1.882 5.31-5.311c0.103-0.104 0.247-0.168 0.405-0.168s0.301 0.064 0.405 0.168v0z"></path>
</svg>
