<!-- Generated by IcoMoon.io -->
<svg version="1.1" xmlns="http://www.w3.org/2000/svg" width="32" height="32" viewBox="0 0 32 32">
<title>comment-multiple-link-filled</title>
<path d="M10.5 3c-0 0-0 0-0.001 0-1.685 0-3.127 1.042-3.717 2.517l-0.010 0.027c0.218-0.028 0.471-0.044 0.727-0.044h13c3.314 0 6 2.686 6 6v0 6.52c0.798 0.067 1.531 0.282 2.193 0.616l-0.034-0.016c0.215-0.475 0.341-1.031 0.341-1.615 0-0.002 0-0.003 0-0.005v0-7.5c0-3.59-2.91-6.5-6.5-6.5v0h-12zM25 11.5v6.5h-5c-0.001 0-0.001 0-0.002 0-3.314 0-6 2.686-6 6 0 0.84 0.173 1.639 0.484 2.365l-0.015-0.039-4.010 3.325c-0.977 0.809-2.457 0.115-2.457-1.155v-2.496h-1c-2.209 0-4-1.791-4-4v0-10.5c0-2.485 2.015-4.5 4.5-4.5v0h13c2.485 0 4.5 2.015 4.5 4.5v0zM21.5 20.5c0-0.552-0.448-1-1-1v0h-0.5c-2.485 0-4.5 2.015-4.5 4.5s2.015 4.5 4.5 4.5v0h0.5c0.552 0 1-0.448 1-1s-0.448-1-1-1v0h-0.5c-1.381 0-2.5-1.119-2.5-2.5s1.119-2.5 2.5-2.5v0h0.5c0.552 0 1-0.448 1-1v0zM25.5 19.5c-0.552 0-1 0.448-1 1s0.448 1 1 1v0h0.5c1.381 0 2.5 1.119 2.5 2.5s-1.119 2.5-2.5 2.5v0h-0.5c-0.552 0-1 0.448-1 1s0.448 1 1 1v0h0.5c2.485 0 4.5-2.015 4.5-4.5s-2.015-4.5-4.5-4.5v0h-0.5zM20.5 23c-0.552 0-1 0.448-1 1s0.448 1 1 1v0h5c0.552 0 1-0.448 1-1s-0.448-1-1-1v0h-5z"></path>
</svg>
