<!-- Generated by IcoMoon.io -->
<svg version="1.1" xmlns="http://www.w3.org/2000/svg" width="32" height="32" viewBox="0 0 32 32">
<title>comment-edit-filled</title>
<path d="M2.667 19.667c0 2.393 1.94 4.333 4.333 4.333h0.999l0.001 4.002c0 0.276 0.086 0.545 0.245 0.771 0.426 0.601 1.258 0.743 1.859 0.317l3.454-2.448 0.468-1.873c0.216-0.864 0.663-1.653 1.293-2.283l7.87-7.87c1.694-1.694 4.43-1.711 6.144-0.050v-6.233c0-2.393-1.94-4.333-4.333-4.333h-18c-2.393 0-4.333 1.94-4.333 4.333v11.333z"></path>
<path d="M24.131 15.559l-7.87 7.87c-0.459 0.459-0.784 1.034-0.942 1.663l-0.61 2.441c-0.265 1.061 0.696 2.023 1.758 1.758l2.441-0.61c0.63-0.157 1.205-0.483 1.663-0.942l7.87-7.87c1.19-1.19 1.19-3.12 0-4.31s-3.12-1.19-4.31 0z"></path>
</svg>
