<!-- Generated by IcoMoon.io -->
<svg version="1.1" xmlns="http://www.w3.org/2000/svg" width="32" height="32" viewBox="0 0 32 32">
<title>comment-multiple-filled</title>
<path d="M11 2.667c-2.284 0-4.155 1.767-4.321 4.009 0.106-0.006 0.214-0.009 0.321-0.009h12.667c3.13 0 5.667 2.537 5.667 5.667v8.667c0 0.108-0.003 0.215-0.009 0.321 2.242-0.166 4.009-2.037 4.009-4.321v-8c0-3.498-2.835-6.333-6.333-6.333h-12z"></path>
<path d="M23.987 21.333c-0.17 2.237-2.040 4-4.321 4h-5.444l-4.889 3.667c-1.099 0.824-2.667 0.040-2.667-1.333v-2.346c-2.237-0.17-4-2.040-4-4.321v-8.667c0-2.281 1.763-4.15 4-4.321 0.11-0.008 0.221-0.013 0.333-0.013h12.667c2.393 0 4.333 1.94 4.333 4.333v8.667c0 0.112-0.004 0.223-0.013 0.333z"></path>
</svg>
