<!-- Generated by IcoMoon.io -->
<svg version="1.1" xmlns="http://www.w3.org/2000/svg" width="32" height="32" viewBox="0 0 32 32">
<title>comment-error-filled</title>
<path d="M30.667 8.667c0 4.050-3.283 7.333-7.333 7.333s-7.333-3.283-7.333-7.333v0c0-4.050 3.283-7.333 7.333-7.333s7.333 3.283 7.333 7.333v0zM23.333 4c-0.368 0-0.667 0.298-0.667 0.667v0 5.333c0 0.368 0.298 0.667 0.667 0.667s0.667-0.298 0.667-0.667v0-5.333c0-0.368-0.298-0.667-0.667-0.667v0zM23.333 13.5c0.46 0 0.833-0.373 0.833-0.833s-0.373-0.833-0.833-0.833v0c-0.46 0-0.833 0.373-0.833 0.833s0.373 0.833 0.833 0.833v0zM23.333 17.333c0.003 0 0.007 0 0.011 0 2.327 0 4.438-0.92 5.991-2.416l-0.003 0.003v4.747c0 2.393-1.94 4.333-4.333 4.333v0h-7.667l-6.667 5c-1.099 0.824-2.667 0.040-2.667-1.333v-3.667h-1c-2.393 0-4.333-1.94-4.333-4.333v0-11.333c0-2.393 1.94-4.333 4.333-4.333v0h9.029c-0.855 1.32-1.364 2.934-1.364 4.667 0 4.786 3.88 8.667 8.667 8.667 0 0 0.001 0 0.001 0h-0z"></path>
</svg>
