<!-- Generated by IcoMoon.io -->
<svg version="1.1" xmlns="http://www.w3.org/2000/svg" width="32" height="32" viewBox="0 0 32 32">
<title>communication-person-filled</title>
<path d="M5.333 17.333c0-0.004 0-0.008 0-0.012 0-5.891 4.776-10.667 10.667-10.667 5.070 0 9.314 3.537 10.398 8.278l0.014 0.072c1.499 0.617 2.591 1.949 2.859 3.559l0.004 0.027c0.040-0.413 0.059-0.833 0.059-1.257 0-7.364-5.969-13.333-13.333-13.333s-13.333 5.969-13.333 13.333c0 0.005 0 0.011 0 0.017 0 3.672 1.489 6.997 3.896 9.403l0 0c0.241 0.242 0.575 0.392 0.944 0.392 0.737 0 1.334-0.597 1.334-1.334 0-0.368-0.149-0.701-0.39-0.942l0 0c-1.926-1.924-3.117-4.583-3.117-7.52 0-0.006 0-0.011 0-0.017v0.001zM23.587 14.792c-1.097-3.197-4.077-5.454-7.584-5.454-4.418 0-8 3.582-8 8 0 2.207 0.894 4.205 2.339 5.652l-0-0c0.242 0.242 0.575 0.391 0.944 0.391 0.737 0 1.335-0.598 1.335-1.335 0-0.368-0.149-0.702-0.391-0.943v0c-0.965-0.965-1.561-2.298-1.561-3.77 0-2.946 2.388-5.333 5.333-5.333 2.542 0 4.669 1.779 5.204 4.16l0.007 0.036c0.618-0.679 1.428-1.174 2.344-1.397l0.032-0.007zM13.333 17.333c0-1.473 1.194-2.667 2.667-2.667s2.667 1.194 2.667 2.667v0c0 1.473-1.194 2.667-2.667 2.667s-2.667-1.194-2.667-2.667v0zM28 19.333c0 1.841-1.492 3.333-3.333 3.333s-3.333-1.492-3.333-3.333v0c0-1.841 1.492-3.333 3.333-3.333s3.333 1.492 3.333 3.333v0zM30.667 26.5c0 2.075-1.715 4.167-6 4.167s-6-2.084-6-4.167v-0.137c0-1.307 1.059-2.363 2.364-2.363h7.272c1.307 0 2.364 1.057 2.364 2.363v0.137z"></path>
</svg>
