<!-- Generated by IcoMoon.io -->
<svg version="1.1" xmlns="http://www.w3.org/2000/svg" width="32" height="32" viewBox="0 0 32 32">
<title>comment-off-filled</title>
<path d="M4.374 2.96c-0.391-0.391-1.024-0.391-1.414-0s-0.391 1.024-0 1.414l0.936 0.936c-0.761 0.781-1.229 1.847-1.229 3.023v11.333c0 2.393 1.94 4.333 4.333 4.333h0.999l0.001 4.002c0 0.276 0.086 0.545 0.245 0.771 0.426 0.601 1.258 0.743 1.859 0.317l7.182-5.090h5.299l5.040 5.041c0.391 0.391 1.024 0.391 1.414 0s0.391-1.024 0-1.414l-24.666-24.667z"></path>
<path d="M29.333 19.667c0 1.475-0.737 2.778-1.863 3.561l-19.227-19.228h16.757c2.393 0 4.333 1.94 4.333 4.333v11.333z"></path>
</svg>
