<!-- Generated by IcoMoon.io -->
<svg version="1.1" xmlns="http://www.w3.org/2000/svg" width="32" height="32" viewBox="0 0 32 32">
<title>comment-note-filled</title>
<path d="M18.667 1.333c-1.473 0-2.667 1.194-2.667 2.667v0 8c0 1.473 1.194 2.667 2.667 2.667v0h9.333c1.473 0 2.667-1.194 2.667-2.667v0-8c0-1.473-1.194-2.667-2.667-2.667v0h-9.333zM18.667 6c0-0.368 0.298-0.667 0.667-0.667v0h8c0.368 0 0.667 0.298 0.667 0.667s-0.298 0.667-0.667 0.667v0h-8c-0.368 0-0.667-0.298-0.667-0.667v0zM18.667 10c0-0.368 0.298-0.667 0.667-0.667v0h8c0.368 0 0.667 0.298 0.667 0.667s-0.298 0.667-0.667 0.667v0h-8c-0.368 0-0.667-0.298-0.667-0.667v0zM7 4h7.667v8c0 2.209 1.791 4 4 4v0h9.333c0.467 0 0.916-0.080 1.333-0.227v3.893c0 2.393-1.94 4.333-4.333 4.333v0h-7.667l-6.667 5c-1.099 0.824-2.667 0.040-2.667-1.333v-3.667h-1c-2.393 0-4.333-1.94-4.333-4.333v0-11.333c0-2.393 1.94-4.333 4.333-4.333v0z"></path>
</svg>
