<!-- Generated by IcoMoon.io -->
<svg version="1.1" xmlns="http://www.w3.org/2000/svg" width="32" height="32" viewBox="0 0 32 32">
<title>comment-off-filled</title>
<path d="M22.821 24l5.089 5.089c0.151 0.151 0.359 0.244 0.589 0.244 0.46 0 0.833-0.373 0.833-0.833 0-0.23-0.093-0.439-0.244-0.589v0l-25-25c-0.151-0.151-0.359-0.244-0.589-0.244-0.46 0-0.833 0.373-0.833 0.833 0 0.23 0.093 0.438 0.244 0.589l1.25 1.25c-0.921 0.88-1.494 2.117-1.494 3.489 0 0.002 0 0.004 0 0.006v-0 10.333c0 2.669 2.164 4.833 4.833 4.833v0h0.5v3.88c0 1.216 1.371 1.927 2.365 1.225l7.234-5.105h5.223zM7.535 4l19.365 19.363c1.464-0.849 2.433-2.408 2.433-4.194 0-0.001 0-0.002 0-0.003v0-10.333c0-2.669-2.164-4.833-4.833-4.833v0h-16.965z"></path>
</svg>
