<!-- Generated by IcoMoon.io -->
<svg version="1.1" xmlns="http://www.w3.org/2000/svg" width="32" height="32" viewBox="0 0 32 32">
<title>comment-multiple-link-filled</title>
<path d="M11 2.667c-2.284 0-4.155 1.767-4.321 4.009 0.106-0.006 0.214-0.009 0.321-0.009h12.667c3.13 0 5.667 2.537 5.667 5.667v5h0.333c1.273 0 2.458 0.375 3.451 1.022 0.14-0.426 0.216-0.882 0.216-1.355v-8c0-3.498-2.835-6.333-6.333-6.333h-12zM24 12.333v5h-3c-3.498 0-6.333 2.835-6.333 6.333 0 0.577 0.077 1.136 0.222 1.667h-0.666l-4.889 3.667c-1.099 0.824-2.667 0.040-2.667-1.333v-2.346c-2.237-0.17-4-2.040-4-4.321v-8.667c0-2.281 1.763-4.15 4-4.321 0.11-0.008 0.221-0.013 0.333-0.013h12.667c2.393 0 4.333 1.94 4.333 4.333zM30.667 23.667c0-2.761-2.239-5-5-5l-0.136 0.009c-0.488 0.066-0.864 0.485-0.864 0.991 0 0.552 0.448 1 1 1l0.205 0.007c1.561 0.106 2.795 1.405 2.795 2.993 0 1.657-1.343 3-3 3l-0.005 0.006-0.136 0.010c-0.488 0.069-0.862 0.489-0.86 0.995 0.003 0.552 0.452 0.998 1.005 0.995v-0.006l0.265-0.007c2.634-0.138 4.73-2.321 4.73-4.993zM22 19.667c0-0.552-0.448-1-1-1l-0.266 0.007c-2.638 0.138-4.734 2.321-4.734 4.993 0 2.761 2.239 5 5 5l0.136-0.009c0.488-0.066 0.864-0.485 0.864-0.991 0-0.552-0.448-1-1-1l-0.205-0.007c-1.561-0.106-2.795-1.405-2.795-2.993 0-1.657 1.343-3 3-3l0.136-0.009c0.488-0.066 0.864-0.485 0.864-0.991zM26.667 23.667c0-0.552-0.448-1-1-1h-4.667l-0.136 0.009c-0.488 0.066-0.864 0.485-0.864 0.991 0 0.552 0.448 1 1 1h4.667l0.136-0.009c0.488-0.066 0.864-0.485 0.864-0.991z"></path>
</svg>
