<!-- Generated by IcoMoon.io -->
<svg version="1.1" xmlns="http://www.w3.org/2000/svg" width="32" height="32" viewBox="0 0 32 32">
<title>comma-filled</title>
<path d="M18.933 16.455c-0.841 0.555-1.849 0.878-2.933 0.878-2.946 0-5.333-2.388-5.333-5.333s2.388-5.333 5.333-5.333c2.705 0 4.94 2.014 5.287 4.625 0.486 2.39 0.676 5.263-0.276 7.864-1.021 2.786-3.285 5.073-7.339 6.135-0.712 0.187-1.441-0.24-1.628-0.952s0.24-1.441 0.952-1.628c3.279-0.859 4.815-2.572 5.511-4.472 0.207-0.567 0.346-1.165 0.426-1.783z"></path>
</svg>
