<!-- Generated by IcoMoon.io -->
<svg version="1.1" xmlns="http://www.w3.org/2000/svg" width="32" height="32" viewBox="0 0 32 32">
<title>component-2-double-tap-swipe-down-filled</title>
<path d="M13.333 20.947l0-2.113c-2.732-1.067-4.667-3.724-4.667-6.833 0-4.050 3.283-7.333 7.333-7.333s7.333 3.283 7.333 7.333c0 3.002-1.803 5.582-4.386 6.717l-0.28 0.116 0 2.113c3.855-1.148 6.665-4.719 6.665-8.946 0-5.155-4.179-9.333-9.333-9.333s-9.333 4.179-9.333 9.333c0 4.107 2.653 7.595 6.339 8.843l0.328 0.104zM13.333 17.376l0-2.395c-0.818-0.732-1.333-1.797-1.333-2.982 0-2.209 1.791-4 4-4s4 1.791 4 4c0 1.093-0.438 2.084-1.149 2.806l-0.183 0.175 0 2.395c1.975-0.982 3.332-3.020 3.332-5.375 0-3.314-2.686-6-6-6s-6 2.686-6 6c0 2.253 1.242 4.216 3.079 5.242l0.254 0.134zM15.183 29.054c0.479 0.373 1.155 0.373 1.634 0l0.126-0.111 4-4 0.111-0.126c0.373-0.479 0.373-1.155 0-1.634l-0.111-0.126-0.126-0.111c-0.479-0.373-1.155-0.373-1.634 0l-0.126 0.111-1.724 1.723v-12.78c0-0.736-0.597-1.333-1.333-1.333-0.684 0-1.247 0.515-1.324 1.178l-0.009 0.155v12.78l-1.724-1.723-0.126-0.111c-0.523-0.407-1.279-0.37-1.76 0.111s-0.518 1.237-0.111 1.76l0.111 0.126 4 4 0.126 0.111z"></path>
</svg>
