<!-- Generated by IcoMoon.io -->
<svg version="1.1" xmlns="http://www.w3.org/2000/svg" width="32" height="32" viewBox="0 0 32 32">
<title>compass-northwest-filled</title>
<path d="M4.334 14.667h-1.601c0.625-6.299 5.635-11.309 11.934-11.934v1.601c0 0.552 0.448 1 1 1s1-0.448 1-1v-1.65c6.609 0.325 11.953 5.464 12.601 11.984h-1.601c-0.552 0-1 0.448-1 1s0.448 1 1 1h1.65c-0.336 6.833-5.817 12.314-12.65 12.65v-1.65c0-0.552-0.448-1-1-1s-1 0.448-1 1v1.601c-6.52-0.647-11.658-5.991-11.984-12.601h1.65c0.552 0 1-0.448 1-1s-0.448-1-1-1zM19.539 15.368c-0.558-1.302-1.612-2.329-2.928-2.854l-5.371-2.14c-0.544-0.217-1.083 0.322-0.866 0.866l2.14 5.371c0.525 1.316 1.551 2.37 2.854 2.928l5.767 2.472c0.553 0.237 1.112-0.322 0.875-0.875l-2.472-5.767z"></path>
</svg>
