<!-- Generated by IcoMoon.io -->
<svg version="1.1" xmlns="http://www.w3.org/2000/svg" width="32" height="32" viewBox="0 0 32 32">
<title>compose-filled</title>
<path d="M15.943 17.943l13-13c0.521-0.521 0.521-1.365 0-1.886s-1.365-0.521-1.886 0l-13 13-0.391 2.276 2.276-0.391z"></path>
<path d="M8.667 4c-2.577 0-4.667 2.089-4.667 4.667v14.667c0 2.577 2.089 4.667 4.667 4.667h14.667c2.577 0 4.667-2.089 4.667-4.667v-10c0-0.736-0.597-1.333-1.333-1.333s-1.333 0.597-1.333 1.333v10c0 1.105-0.895 2-2 2h-14.667c-1.105 0-2-0.895-2-2v-14.667c0-1.105 0.895-2 2-2h10c0.736 0 1.333-0.597 1.333-1.333s-0.597-1.333-1.333-1.333h-10z"></path>
</svg>
