<!-- Generated by IcoMoon.io -->
<svg version="1.1" xmlns="http://www.w3.org/2000/svg" width="32" height="32" viewBox="0 0 32 32">
<title>compose-filled</title>
<path d="M29.379 4.237c0.198-0.205 0.321-0.485 0.321-0.794 0-0.631-0.512-1.143-1.143-1.143-0.309 0-0.589 0.122-0.794 0.321l-14.857 14.857-0.335 1.951 1.951-0.335 14.857-14.857zM7.429 3.429c-2.209 0-4 1.791-4 4v0 17.143c0 2.209 1.791 4 4 4v0h17.143c2.209 0 4-1.791 4-4v0-11.429c0-0.631-0.512-1.143-1.143-1.143s-1.143 0.512-1.143 1.143v0 11.429c0 0.947-0.767 1.714-1.714 1.714v0h-17.143c-0.947 0-1.714-0.767-1.714-1.714v0-17.143c0-0.947 0.768-1.714 1.714-1.714v0h11.429c0.631 0 1.143-0.512 1.143-1.143s-0.512-1.143-1.143-1.143v0h-11.429z"></path>
</svg>
