<!-- Generated by IcoMoon.io -->
<svg version="1.1" xmlns="http://www.w3.org/2000/svg" width="32" height="32" viewBox="0 0 32 32">
<title>component-2-double-tap-swipe-up-filled</title>
<path d="M13.333 11.053v2.113c-2.752 1.099-4.66 3.742-4.66 6.831 0 4.048 3.279 7.331 7.327 7.336h0.001c0.001 0 0.003 0 0.005 0 4.050 0 7.333-3.283 7.333-7.333 0-2.986-1.784-5.555-4.345-6.699l-0.047-0.019-0.28-0.116 0.001-2.113c3.887 1.186 6.665 4.741 6.665 8.944 0 5.155-4.179 9.333-9.333 9.333s-9.333-4.179-9.333-9.333c0-4.083 2.622-7.553 6.273-8.82l0.066-0.020 0.328-0.104zM13.333 14.624v2.395c-0.82 0.736-1.334 1.799-1.334 2.982 0 2.209 1.791 4 4 4s4-1.791 4-4c0-1.093-0.439-2.084-1.15-2.806l0 0-0.183-0.175v-2.396c1.991 1.004 3.332 3.033 3.332 5.374 0 3.314-2.686 6-6 6s-6-2.686-6-6c0-2.241 1.229-4.195 3.049-5.225l0.030-0.016 0.253-0.133zM15.183 2.947c0.223-0.175 0.508-0.28 0.817-0.28s0.594 0.105 0.82 0.282l-0.003-0.002 0.125 0.111 4 4 0.111 0.125c0.175 0.223 0.28 0.508 0.28 0.817s-0.105 0.594-0.282 0.82l0.002-0.003-0.111 0.125-0.125 0.111c-0.223 0.175-0.508 0.28-0.817 0.28s-0.594-0.105-0.82-0.282l0.003 0.002-0.125-0.111-1.724-1.723v12.78c-0.001 0.736-0.597 1.332-1.333 1.332-0.681 0-1.243-0.51-1.323-1.169l-0.001-0.006-0.009-0.156v-12.78l-1.724 1.723-0.125 0.111c-0.223 0.174-0.508 0.28-0.817 0.28-0.736 0-1.333-0.597-1.333-1.333 0-0.309 0.105-0.594 0.282-0.82l-0.002 0.003 0.111-0.125 4-4 0.125-0.111z"></path>
</svg>
