<!-- Generated by IcoMoon.io -->
<svg version="1.1" xmlns="http://www.w3.org/2000/svg" width="32" height="32" viewBox="0 0 32 32">
<title>compass-northwest-filled</title>
<path d="M2.335 14.857c0.549-6.663 5.862-11.975 12.525-12.526v1.383c0 0.473 0.384 0.857 0.857 0.857s0.857-0.384 0.857-0.857v0-1.417c6.928 0.283 12.529 5.707 13.095 12.56h-1.382c-0.473 0-0.857 0.384-0.857 0.857s0.384 0.857 0.857 0.857v0h1.417c-0.291 7.12-6.011 12.839-13.131 13.131v-1.417c0-0.473-0.384-0.857-0.857-0.857s-0.857 0.384-0.857 0.857v0 1.382c-6.851-0.566-12.274-6.168-12.56-13.097h1.417c0.473 0 0.857-0.384 0.857-0.857s-0.384-0.857-0.857-0.857v0h-1.381zM12.232 16.483c0.594 1.515 1.77 2.692 3.247 3.271l0.039 0.013 5.707 2.194c0.061 0.024 0.131 0.038 0.205 0.038 0.316 0 0.571-0.256 0.571-0.571 0-0.074-0.014-0.145-0.040-0.21l0.001 0.004-2.192-5.707c-0.593-1.515-1.77-2.691-3.246-3.271l-0.039-0.013-5.707-2.194c-0.061-0.024-0.132-0.039-0.207-0.039-0.316 0-0.571 0.256-0.571 0.571 0 0.074 0.014 0.145 0.040 0.211l-0.001-0.004 2.194 5.707z"></path>
</svg>
