<!-- Generated by IcoMoon.io -->
<svg version="1.1" xmlns="http://www.w3.org/2000/svg" width="32" height="32" viewBox="0 0 32 32">
<title>conference-room-filled</title>
<path d="M14.131 2.68l12 2.667c0.312 0.062 0.536 0.336 0.536 0.654v20c0 0.318-0.224 0.591-0.536 0.654l-12 2.667c-0.413 0.082-0.797-0.233-0.797-0.654v-25.333c0-0.421 0.385-0.736 0.797-0.654zM12 5.334v21.333h-5.667c-0.506 0-0.925-0.376-0.991-0.864l-0.009-0.136v-19.333c0-0.506 0.376-0.925 0.864-0.991l0.136-0.009h5.667zM17.333 14.667c-0.736 0-1.333 0.597-1.333 1.333s0.597 1.333 1.333 1.333c0.736 0 1.333-0.597 1.333-1.333s-0.597-1.333-1.333-1.333z"></path>
</svg>
