<!-- Generated by IcoMoon.io -->
<svg version="1.1" xmlns="http://www.w3.org/2000/svg" width="32" height="32" viewBox="0 0 32 32">
<title>connector-filled</title>
<path d="M11.003 5.333c0.552 0 1 0.448 1 1v0 3.697l2.499 3.753c0.105 0.156 0.168 0.348 0.168 0.555v0 5.995c0 0.552-0.448 1-1 1v0h-1.672v4.339c-0.006 0.548-0.451 0.989-1 0.989-0.501 0-0.916-0.368-0.989-0.849l-0.001-0.006-0.009-0.135-0.001-4.339-2.66-0.001v4.344c-0.001 0.552-0.448 0.998-1 0.998-0.504 0-0.921-0.373-0.99-0.858l-0.001-0.005-0.008-0.135-0.001-4.344-1.667 0.001c-0.552 0-1-0.448-1-1v0-5.995c0-0.207 0.064-0.399 0.172-0.558l-0.002 0.004 2.499-3.753v-3.697c0-0.552 0.448-1 1-1v0h4.664zM20.341 5.335h5.995c0.505 0 0.922 0.374 0.99 0.86l0.001 0.005 0.009 0.135-0.003 4.332h1c0.552 0 1 0.448 1 1v0 5.995c0 0.001 0 0.001 0 0.002 0 0.206-0.062 0.397-0.169 0.556l0.002-0.004-2.499 3.753v3.697c0 0.552-0.448 1-1 1v0h-4.664c-0.552 0-1-0.448-1-1v0-3.697l-2.499-3.753c-0.105-0.156-0.168-0.348-0.168-0.555v0-5.995c0-0.552 0.448-1 1-1v0h1.003v-4.332c0-0.504 0.373-0.921 0.859-0.99l0.005-0.001 0.136-0.009zM25.336 7.335h-3.995v3.332h3.992v-3.332z"></path>
</svg>
