<!-- Generated by IcoMoon.io -->
<svg version="1.1" xmlns="http://www.w3.org/2000/svg" width="32" height="32" viewBox="0 0 32 32">
<title>connector-filled</title>
<path d="M11 5.333c0.552 0 1 0.448 1 1v3.698l2.499 3.753c0.109 0.164 0.168 0.357 0.168 0.554v5.995c0 0.552-0.448 1-1 1h-1.672l0.001 4.338c0 0.552-0.448 1-1 1-0.506 0-0.925-0.376-0.991-0.864l-0.009-0.136-0.001-4.338-2.66-0.001 0.001 4.343c0 0.552-0.448 1-1 1-0.506 0-0.925-0.376-0.991-0.864l-0.009-0.136-0.001-4.343-1.665 0.001c-0.552 0-1-0.448-1-1v-5.995c0-0.197 0.058-0.39 0.168-0.554l2.499-3.753v-3.698c0-0.552 0.448-1 1-1h4.664zM20.339 5.335h5.994c0.506 0 0.925 0.376 0.991 0.864l0.009 0.136-0.001 4.331h1.001c0.552 0 1 0.448 1 1v5.995c0 0.197-0.058 0.39-0.168 0.554l-2.499 3.753v3.698c0 0.552-0.448 1-1 1h-4.663c-0.552 0-1-0.448-1-1v-3.698l-2.499-3.753c-0.109-0.164-0.168-0.357-0.168-0.554v-5.995c0-0.552 0.448-1 1-1h1.003l0-4.331c0-0.506 0.376-0.925 0.864-0.991l0.136-0.009zM25.333 7.335h-3.994l-0 3.331h3.993l0.001-3.331z"></path>
</svg>
