<!-- Generated by IcoMoon.io -->
<svg version="1.1" xmlns="http://www.w3.org/2000/svg" width="32" height="32" viewBox="0 0 32 32">
<title>contact-card-ribbon-filled</title>
<path d="M26.333 5.333c1.657 0 3 1.343 3 3v7.344c-0.953-0.638-2.1-1.010-3.333-1.010-2.078 0-3.909 1.056-4.986 2.661h-3.344l-0.136 0.009c-0.488 0.066-0.864 0.485-0.864 0.991s0.376 0.925 0.864 0.991l0.136 0.009h2.48c-0.098 0.43-0.15 0.878-0.15 1.339 0 1.429 0.499 2.741 1.333 3.772v2.235h-15.667c-1.657 0-3-1.343-3-3v-15.339c0-1.657 1.343-3 3-3h20.667zM8.333 16.667c-0.506 0-0.925 0.376-0.991 0.864l-0.009 0.136v0.656l0.011 0.144c0.217 1.485 1.459 2.201 3.323 2.201 1.775 0 2.986-0.649 3.285-1.993l0.038-0.207 0.011-0.145v-0.657c0-0.506-0.376-0.925-0.864-0.991l-0.136-0.009h-4.667zM10.667 11.336c-1.105 0-2 0.895-2 2s0.895 2 2 2 2-0.895 2-2c0-1.105-0.895-2-2-2zM23.667 12.667h-5.997l-0.136 0.009c-0.488 0.066-0.864 0.485-0.864 0.991s0.376 0.925 0.864 0.991l0.136 0.009h5.997l0.136-0.009c0.488-0.066 0.864-0.485 0.864-0.991s-0.376-0.925-0.864-0.991l-0.136-0.009zM30.667 20.667c0 2.577-2.089 4.667-4.667 4.667s-4.667-2.089-4.667-4.667c0-2.577 2.089-4.667 4.667-4.667s4.667 2.089 4.667 4.667zM22.667 25.656v4.058c0 0.843 1.020 1.266 1.616 0.669l1.717-1.717 1.717 1.717c0.596 0.596 1.616 0.174 1.616-0.669v-4.058c-0.953 0.638-2.1 1.010-3.333 1.010s-2.38-0.372-3.333-1.010z"></path>
</svg>
