<!-- Generated by IcoMoon.io -->
<svg version="1.1" xmlns="http://www.w3.org/2000/svg" width="32" height="32" viewBox="0 0 32 32">
<title>control-button-filled</title>
<path d="M2.667 9.667c0-2.393 1.94-4.333 4.333-4.333v0h18c2.393 0 4.333 1.94 4.333 4.333v0 12.667c0 2.393-1.94 4.333-4.333 4.333v0h-18c-2.393 0-4.333-1.94-4.333-4.333v0-12.667zM10.333 10.667c-2.025 0-3.667 1.642-3.667 3.667v0 3.333c0 2.025 1.642 3.667 3.667 3.667v0h0.667c0.552 0 1-0.448 1-1s-0.448-1-1-1v0h-0.667c-0.92 0-1.667-0.747-1.667-1.667v-3.333c0-0.92 0.747-1.667 1.667-1.667h0.667c0.552 0 1-0.448 1-1s-0.448-1-1-1v0h-0.667zM15.333 11.667c0-0.552-0.448-1-1-1s-1 0.448-1 1v0 3h-0.333c-0.552 0-1 0.448-1 1s0.448 1 1 1v0h0.333v2c0 1.473 1.194 2.667 2.667 2.667v0h0.333c0.552 0 1-0.448 1-1s-0.448-1-1-1v0h-0.333c-0.368 0-0.667-0.298-0.667-0.667v0-2h1c0.552 0 1-0.448 1-1s-0.448-1-1-1v0h-1v-3zM26 11.667c0-0.552-0.448-1-1-1s-1 0.448-1 1v0 8.667c0 0.552 0.448 1 1 1s1-0.448 1-1v0-8.667zM20.667 17.333c0-0.368 0.298-0.667 0.667-0.667v0h0.333c0.552 0 1-0.448 1-1s-0.448-1-1-1v0h-0.333c-1.473 0-2.667 1.194-2.667 2.667v0 3c0 0.552 0.448 1 1 1s1-0.448 1-1v0-3z"></path>
</svg>
