<!-- Generated by IcoMoon.io -->
<svg version="1.1" xmlns="http://www.w3.org/2000/svg" width="32" height="32" viewBox="0 0 32 32">
<title>content-view-gallery-filled</title>
<path d="M7.714 3.429h11.714v25.143h-11.714c-2.367 0-4.286-1.919-4.286-4.286v0-16.571c0-2.367 1.919-4.286 4.286-4.286v0zM21.143 19.429v-6.857h7.429v6.857h-7.429zM21.143 28.571v-7.429h7.429v3.143c0 2.367-1.919 4.286-4.286 4.286v0h-3.143zM21.143 3.429v7.429h7.429v-3.143c0-2.367-1.919-4.286-4.286-4.286v0h-3.143zM8.857 8.571c-0.789 0-1.429 0.64-1.429 1.429v4c0 0.789 0.64 1.429 1.429 1.429h5.714c0.789 0 1.429-0.64 1.429-1.429v-4c0-0.789-0.64-1.429-1.429-1.429h-5.714zM9.143 13.714v-3.429h5.143v3.429h-5.143zM7.429 18.571c0 0.473 0.384 0.857 0.857 0.857h6.857c0.473 0 0.857-0.384 0.857-0.857s-0.384-0.857-0.857-0.857v0h-6.857c-0.473 0-0.857 0.384-0.857 0.857v0zM8.286 21.714c-0.473 0-0.857 0.384-0.857 0.857s0.384 0.857 0.857 0.857v0h6.857c0.473 0 0.857-0.384 0.857-0.857s-0.384-0.857-0.857-0.857v0h-6.857z"></path>
</svg>
