<!-- Generated by IcoMoon.io -->
<svg version="1.1" xmlns="http://www.w3.org/2000/svg" width="32" height="32" viewBox="0 0 32 32">
<title>content-settings-filled</title>
<path d="M23.913 4.007l-0.246-0.007-15.579 0.007c-2.279 0.127-4.087 2.016-4.087 4.326v15.333l0.007 0.246c0.127 2.279 2.016 4.087 4.326 4.087h7.697c-0.517-0.807-0.904-1.706-1.131-2.667h-6.566l-0.17-0.009c-0.84-0.085-1.496-0.795-1.496-1.658l0.002-13h18.665l0.001 4.232c0.961 0.227 1.86 0.614 2.668 1.131v-7.696l-0.007-0.246c-0.123-2.197-1.883-3.958-4.082-4.081zM14.658 13.531c-0.066-0.488-0.485-0.864-0.991-0.864h-4.667l-0.136 0.009c-0.488 0.066-0.864 0.485-0.864 0.991v9.333l0.009 0.136c0.066 0.488 0.485 0.864 0.991 0.864h4.667l0.136-0.009c0.488-0.066 0.864-0.485 0.864-0.991v-9.333l-0.009-0.136zM10 14.667h2.667v7.333h-2.667v-7.333zM24 13.667c0-0.552-0.448-1-1-1h-5.994l-0.136 0.009c-0.488 0.066-0.864 0.485-0.864 0.991 0 0.552 0.448 1 1 1h5.994l0.136-0.009c0.488-0.066 0.864-0.485 0.864-0.991zM19.038 18.634c0.42 1.454-0.453 2.965-1.922 3.328l-0.779 0.193c-0.060 0.384-0.091 0.777-0.091 1.178 0 0.42 0.034 0.831 0.099 1.231l0.719 0.173c1.483 0.357 2.365 1.884 1.933 3.347l-0.248 0.842c0.585 0.514 1.253 0.932 1.979 1.229l0.658-0.692c1.051-1.106 2.815-1.105 3.865 0.001l0.665 0.7c0.725-0.294 1.391-0.707 1.977-1.217l-0.264-0.915c-0.42-1.454 0.453-2.965 1.922-3.328l0.778-0.193c0.060-0.384 0.091-0.777 0.091-1.178 0-0.42-0.034-0.831-0.099-1.231l-0.719-0.173c-1.483-0.357-2.365-1.884-1.933-3.347l0.248-0.841c-0.585-0.514-1.253-0.932-1.979-1.229l-0.657 0.691c-1.051 1.106-2.814 1.105-3.865-0.001l-0.665-0.7c-0.725 0.294-1.391 0.707-1.977 1.217l0.264 0.915zM23.334 25.333c-1.067 0-1.933-0.895-1.933-2s0.865-2 1.933-2c1.068 0 1.933 0.895 1.933 2s-0.865 2-1.933 2z"></path>
</svg>
