<!-- Generated by IcoMoon.io -->
<svg version="1.1" xmlns="http://www.w3.org/2000/svg" width="32" height="32" viewBox="0 0 32 32">
<title>contact-card-link-filled</title>
<path d="M3.2 8.8c0-1.325 1.075-2.4 2.4-2.4v0h20.8c1.325 0 2.4 1.075 2.4 2.4v0 9.339c-0.7-0.34-1.523-0.539-2.393-0.539-0.003 0-0.005 0-0.008 0h-6.4c-0 0-0.001 0-0.001 0-3.093 0-5.6 2.507-5.6 5.6 0 0.872 0.199 1.698 0.555 2.433l-0.015-0.033h-9.339c-1.325 0-2.4-1.075-2.4-2.4v0-14.4zM8 13.6c0 1.325 1.075 2.4 2.4 2.4s2.4-1.075 2.4-2.4v0c0-1.325-1.075-2.4-2.4-2.4s-2.4 1.075-2.4 2.4v0zM14.4 18.718c0-0.839-0.68-1.518-1.518-1.518v0h-4.962c-0.839 0-1.518 0.68-1.518 1.518v0c0 1.355 0.923 2.536 2.238 2.866l0.094 0.024c1.094 0.272 2.24 0.272 3.334 0l0.096-0.024c1.294-0.333 2.235-1.489 2.235-2.865 0-0 0-0 0-0.001v0zM18.4 12.8c-0.442 0-0.8 0.358-0.8 0.8s0.358 0.8 0.8 0.8v0h4.8c0.442 0 0.8-0.358 0.8-0.8s-0.358-0.8-0.8-0.8v0h-4.8zM20 19.2c-2.209 0-4 1.791-4 4s1.791 4 4 4v0h0.8c0.442 0 0.8-0.358 0.8-0.8s-0.358-0.8-0.8-0.8v0h-0.8c-1.325 0-2.4-1.075-2.4-2.4s1.075-2.4 2.4-2.4v0h0.8c0.442 0 0.8-0.358 0.8-0.8s-0.358-0.8-0.8-0.8v0h-0.8zM25.6 19.2c-0.442 0-0.8 0.358-0.8 0.8s0.358 0.8 0.8 0.8v0h0.8c1.325 0 2.4 1.075 2.4 2.4s-1.075 2.4-2.4 2.4v0h-0.8c-0.442 0-0.8 0.358-0.8 0.8s0.358 0.8 0.8 0.8v0h0.8c2.209 0 4-1.791 4-4s-1.791-4-4-4v0h-0.8zM20 22.4c-0.442 0-0.8 0.358-0.8 0.8s0.358 0.8 0.8 0.8v0h6.4c0.442 0 0.8-0.358 0.8-0.8s-0.358-0.8-0.8-0.8v0h-6.4z"></path>
</svg>
