<!-- Generated by IcoMoon.io -->
<svg version="1.1" xmlns="http://www.w3.org/2000/svg" width="32" height="32" viewBox="0 0 32 32">
<title>convert-range-filled</title>
<path d="M8.333 4c-1.657 0-3 1.343-3 3v0 3.333c0 1.657 1.343 3 3 3v0h12.667c1.657 0 3-1.343 3-3v0-3.333c0-1.657-1.343-3-3-3v0h-12.667zM23.137 21.927l-0.097 0.112c-0.181 0.181-0.431 0.293-0.707 0.293-0.224 0-0.43-0.073-0.597-0.198l0.003 0.002-0.112-0.097-2.667-2.667c-0.181-0.181-0.293-0.431-0.293-0.707 0-0.224 0.073-0.43 0.198-0.597l-0.002 0.003 0.097-0.112 2.667-2.667c0.181-0.179 0.43-0.29 0.704-0.29 0.552 0 1 0.448 1 1 0 0.223-0.073 0.428-0.196 0.594l0.002-0.003-0.097 0.112-0.959 0.961h2c0.86-0 1.568-0.652 1.657-1.489l0.001-0.007 0.009-0.171v-3c0-0.552 0.448-1 1-1 0.504 0 0.921 0.373 0.99 0.858l0.001 0.005 0.009 0.136v3c0 0 0 0 0 0 0 1.947-1.517 3.539-3.433 3.659l-0.011 0.001-0.223 0.007h-1.999l0.957 0.959c0.181 0.181 0.293 0.431 0.293 0.707 0 0.224-0.073 0.43-0.198 0.597l0.002-0.003zM19.032 16l-1.049 1.051-0.161 0.187-0.029 0.039c-0.287 0.383-0.459 0.867-0.459 1.39 0 0.644 0.261 1.228 0.683 1.65l2.701 2.7 0.187 0.161 0.040 0.029c0.383 0.287 0.866 0.459 1.389 0.459 0.645 0 1.228-0.261 1.651-0.684l0.016-0.016v2.701c0 1.657-1.343 3-3 3v0h-12.667c-1.657 0-3-1.343-3-3v0-6.667c0-1.657 1.343-3 3-3v0h10.699zM10.667 22.333c0 0.552 0.417 1 0.933 1h6.133c0.516 0 0.933-0.448 0.933-1s-0.417-1-0.933-1h-6.133c-0.516 0-0.933 0.448-0.933 1z"></path>
</svg>
