<!-- Generated by IcoMoon.io -->
<svg version="1.1" xmlns="http://www.w3.org/2000/svg" width="32" height="32" viewBox="0 0 32 32">
<title>copy-add-filled</title>
<path d="M6 9l0.004-2.831c-1.177 0.423-2.004 1.53-2.004 2.83 0 0 0 0.001 0 0.001v-0 14.005c0 3.498 2.836 6.333 6.333 6.333v0h6.752c-0.557-0.578-1.036-1.235-1.417-1.953l-0.023-0.047h-5.312c-2.393 0-4.333-1.94-4.333-4.333v0-14.005zM25.333 14.899c-0.602-0.149-1.293-0.235-2.004-0.235-4.786 0-8.667 3.88-8.667 8.667 0 0.954 0.154 1.872 0.439 2.731l-0.018-0.061h-4.751c-1.657 0-3-1.343-3-3v0-17.333c0-1.657 1.343-3 3-3v0h12c1.657 0 3 1.343 3 3v0 9.232zM23.333 16c4.050 0 7.333 3.283 7.333 7.333s-3.283 7.333-7.333 7.333v0c-4.050 0-7.333-3.283-7.333-7.333s3.283-7.333 7.333-7.333v0zM24.001 27.337v-3.337h3.328c0.368 0 0.667-0.298 0.667-0.667s-0.298-0.667-0.667-0.667v0h-3.329v-3.333c0-0.368-0.298-0.667-0.667-0.667s-0.667 0.298-0.667 0.667v0 3.333h-3.339c-0.368 0-0.667 0.298-0.667 0.667s0.298 0.667 0.667 0.667v0h3.339v3.337c0 0.368 0.298 0.667 0.667 0.667s0.667-0.298 0.667-0.667v0z"></path>
</svg>
