<!-- Generated by IcoMoon.io -->
<svg version="1.1" xmlns="http://www.w3.org/2000/svg" width="32" height="32" viewBox="0 0 32 32">
<title>couch-filled</title>
<path d="M25.667 14.333c1.95 0 3.545 1.522 3.66 3.443l0.007 0.223v3.667c0 1.224-0.943 2.228-2.142 2.326l-0.191 0.008h-22c-1.224 0-2.228-0.943-2.326-2.142l-0.008-0.191v-3.667c0-2.025 1.642-3.667 3.667-3.667 1.719 0 3.162 1.183 3.559 2.78l0.048 0.22h12.121l0.048-0.22c0.397-1.597 1.839-2.78 3.559-2.78zM7.667 8h16.667c1.224 0 2.228 0.943 2.326 2.142l0.008 0.191 0.001 2.767c-0.323-0.066-0.658-0.1-1.001-0.1-2.024 0-3.804 1.212-4.584 3h-10.165c-0.777-1.782-2.554-3-4.584-3-0.343 0-0.678 0.035-1.002 0.1l0.002-2.767c0-1.224 0.943-2.228 2.142-2.326l0.191-0.008z"></path>
</svg>
