<!-- Generated by IcoMoon.io -->
<svg version="1.1" xmlns="http://www.w3.org/2000/svg" width="32" height="32" viewBox="0 0 32 32">
<title>credit-card-toolbox-filled</title>
<path d="M2.667 9.667c0-2.393 1.94-4.333 4.333-4.333h18c2.393 0 4.333 1.94 4.333 4.333v0.333h-26.667v-0.333zM2.667 12v7.667c0 2.393 1.94 4.333 4.333 4.333h7.667v-2c0-1.613 1.145-2.958 2.667-3.267v-0.067c0-2.025 1.642-3.667 3.667-3.667h4.667c2.020 0 3.658 1.633 3.667 3.65v-6.65h-26.667zM18.667 20h-0.667c-1.105 0-2 0.895-2 2v2h3.333v-0.333c0-0.552 0.448-1 1-1s1 0.448 1 1v0.333h4v-0.333c0-0.552 0.448-1 1-1s1 0.448 1 1v0.333h3.333v-2c0-1.105-0.895-2-2-2h-0.667v-1.333c0-1.289-1.045-2.333-2.333-2.333h-4.667c-1.289 0-2.333 1.045-2.333 2.333v1.333zM20.667 18.667c0-0.184 0.149-0.333 0.333-0.333h4.667c0.184 0 0.333 0.149 0.333 0.333v1.333h-5.333v-1.333zM16 28.667v-2.667h3.333v1c0 0.552 0.448 1 1 1s1-0.448 1-1v-1h4v1c0 0.552 0.448 1 1 1s1-0.448 1-1v-1h3.333v2.667c0 1.105-0.895 2-2 2h-10.667c-1.105 0-2-0.895-2-2z"></path>
</svg>
