<!-- Generated by IcoMoon.io -->
<svg version="1.1" xmlns="http://www.w3.org/2000/svg" width="32" height="32" viewBox="0 0 32 32">
<title>crop-interim-off-filled</title>
<path d="M4.373 2.96c-0.183-0.196-0.443-0.318-0.732-0.318-0.552 0-1 0.448-1 1 0 0.289 0.122 0.549 0.318 0.731l0.001 0.001 1.419 1.42c-0.239 0.448-0.38 0.98-0.38 1.545 0 1.379 0.837 2.562 2.030 3.069l0.022 0.008-1.088 7.083c-1.348 0.448-2.303 1.698-2.303 3.171 0 1.842 1.493 3.335 3.335 3.335 1.089 0 2.056-0.522 2.664-1.329l0.006-0.008h9.341c0.613 0.814 1.578 1.335 2.665 1.335 0.563 0 1.093-0.14 1.557-0.386l-0.018 0.009 2.413 2.413c-1.107 0.813-2.473 1.295-3.951 1.295-0.003 0-0.007 0-0.010 0-1.504 0-2.89-0.499-4.004-1.341l0.017 0.012 0.992-0.003 0.135-0.008c0.495-0.065 0.874-0.484 0.874-0.992 0-0.552-0.448-1-1-1-0.003 0-0.006 0-0.009 0h-3.34l-0.136 0.009c-0.491 0.069-0.864 0.486-0.864 0.991v0 3.332l0.009 0.136c0.069 0.491 0.486 0.864 0.991 0.864v0l0.136-0.009c0.491-0.069 0.864-0.486 0.864-0.991v0-0.843c1.454 1.15 3.314 1.844 5.336 1.844 0.003 0 0.006 0 0.010 0h-0c0.004 0 0.009 0 0.013 0 2.035 0 3.906-0.704 5.381-1.883l-0.017 0.013 1.576 1.577c0.181 0.181 0.431 0.293 0.707 0.293 0.552 0 1-0.448 1-1 0-0.276-0.112-0.526-0.293-0.707l-24.668-24.667zM17.715 19.129c-0.24 0.46-0.375 0.983-0.375 1.537h-8.007l-0.009-0.247c-0.106-1.386-1.045-2.528-2.312-2.932l-0.024-0.006 1.060-6.887c0.293-0.064 0.572-0.167 0.831-0.301l8.836 8.836zM9.576 5.333l2 2h4.405l0.008 0.232c0.106 1.498 1.187 2.717 2.607 3.029l0.022 0.004 0.685 4.463 2.393 2.395-1.084-7.047c1.205-0.52 2.034-1.698 2.034-3.070 0-1.841-1.492-3.333-3.333-3.333-1.084 0-2.047 0.517-2.656 1.319l-0.006 0.008h-7.076zM27.003 22.761l1.54 1.54c0.504-1.066 0.798-2.315 0.798-3.633 0-4.238-3.040-7.765-7.059-8.52l-0.054-0.008 0.329 2.131c2.788 0.841 4.784 3.386 4.784 6.397 0 0.749-0.123 1.469-0.351 2.14l0.014-0.047z"></path>
</svg>
