<!-- Generated by IcoMoon.io -->
<svg version="1.1" xmlns="http://www.w3.org/2000/svg" width="32" height="32" viewBox="0 0 32 32">
<title>crop-interim-filled</title>
<path d="M22.229 12.139c4.044 0.733 7.111 4.272 7.111 8.527 0 4.786-3.88 8.667-8.667 8.667-1.977 0-3.845-0.667-5.344-1.842l-0.001 0.842c0 0.506-0.376 0.925-0.864 0.991l-0.136 0.009c-0.506 0-0.925-0.376-0.991-0.864l-0.009-0.136v-3.331c0-0.506 0.376-0.925 0.864-0.991l0.136-0.009h3.339c0.552 0 1 0.448 1 1 0 0.506-0.376 0.925-0.864 0.991l-0.136 0.009-0.992 0.001c1.133 0.85 2.525 1.33 3.997 1.33 3.682 0 6.667-2.985 6.667-6.667 0-3.027-2.018-5.583-4.782-6.397l-0.329-2.131zM19.315 4.005c1.841 0 3.333 1.492 3.333 3.333 0 1.38-0.839 2.565-2.035 3.071l1.091 7.086c1.336 0.434 2.302 1.69 2.302 3.171 0 1.841-1.492 3.333-3.333 3.333-1.090 0-2.058-0.523-2.666-1.332h-9.341c-0.608 0.809-1.576 1.332-2.666 1.332-1.841 0-3.333-1.492-3.333-3.333 0-1.479 0.963-2.732 2.296-3.169l1.089-7.082c-1.205-0.502-2.051-1.691-2.051-3.078 0-1.841 1.492-3.333 3.333-3.333 1.088 0 2.055 0.521 2.663 1.328h6.656c0.608-0.807 1.575-1.328 2.663-1.328zM15.981 7.333h-5.315c0 1.601-1.121 2.935-2.619 3.262l-1.060 6.887c1.283 0.397 2.235 1.549 2.337 2.937l0.009 0.247h8.006c0-1.494 0.983-2.758 2.337-3.182l-1.058-6.886c-1.435-0.305-2.528-1.533-2.629-3.033l-0.008-0.232z"></path>
</svg>
