<!-- Generated by IcoMoon.io -->
<svg version="1.1" xmlns="http://www.w3.org/2000/svg" width="32" height="32" viewBox="0 0 32 32">
<title>crop-filled</title>
<path d="M9.333 3.667c0-0.552-0.448-1-1-1s-1 0.448-1 1v0 3.667h-3.667c-0.552 0-1 0.448-1 1s0.448 1 1 1v0h3.667v10.833c0 2.485 2.015 4.5 4.5 4.5v0h10.833v3.667c0 0.552 0.448 1 1 1s1-0.448 1-1v0-3.667h3.667c0.552 0 1-0.448 1-1s-0.448-1-1-1v0h-16.5c-1.381 0-2.5-1.119-2.5-2.5v0-16.5zM22.667 11.833v9.5h2v-9.5c0-2.485-2.015-4.5-4.5-4.5v0h-9.5v2h9.5c1.381 0 2.5 1.119 2.5 2.5v0z"></path>
</svg>
