<!-- Generated by IcoMoon.io -->
<svg version="1.1" xmlns="http://www.w3.org/2000/svg" width="32" height="32" viewBox="0 0 32 32">
<title>crop-filled</title>
<path d="M9.333 20.667c0 1.040 0.793 1.894 1.807 1.991l0.193 0.009h16.667c0.736 0 1.333 0.597 1.333 1.333 0 0.684-0.515 1.247-1.178 1.324l-0.155 0.009h-2.667v2.667c0 0.736-0.597 1.333-1.333 1.333-0.684 0-1.247-0.515-1.324-1.178l-0.009-0.155v-2.667h-11.333c-2.491 0-4.527-1.952-4.66-4.411l-0.007-0.256v-11.333h-2.667c-0.736 0-1.333-0.597-1.333-1.333 0-0.684 0.515-1.247 1.178-1.324l0.155-0.009h2.667v-2.667c0-0.736 0.597-1.333 1.333-1.333 0.684 0 1.247 0.515 1.324 1.178l0.009 0.155v16.667zM10.667 6.667h10c2.491 0 4.527 1.952 4.66 4.411l0.007 0.256v10h-2.667v-10c0-1.040-0.793-1.894-1.807-1.991l-0.193-0.009h-10v-2.667z"></path>
</svg>
