<!-- Generated by IcoMoon.io -->
<svg version="1.1" xmlns="http://www.w3.org/2000/svg" width="32" height="32" viewBox="0 0 32 32">
<title>crop-interim-filled</title>
<path d="M22.228 12.139c4.064 0.77 7.096 4.294 7.096 8.525 0 4.781-3.871 8.659-8.65 8.669h-0.001c-1.977 0-3.845-0.667-5.344-1.843v0.843c-0 0.505-0.375 0.923-0.861 0.99l-0.005 0.001-0.133 0.009c-0 0-0.001 0-0.001 0-0.504 0-0.921-0.373-0.99-0.859l-0.001-0.005-0.009-0.136v-3.332c0-0.504 0.373-0.921 0.859-0.99l0.005-0.001 0.136-0.009h3.34c0.552 0.001 0.998 0.448 0.998 1 0 0.504-0.373 0.921-0.858 0.99l-0.005 0.001-0.135 0.009-0.992 0.003c1.099 0.828 2.486 1.326 3.991 1.326 3.682 0 6.667-2.985 6.667-6.667 0-3.008-1.992-5.55-4.729-6.381l-0.047-0.012-0.329-2.132zM19.315 4.005c0 0 0.001 0 0.002 0 1.841 0 3.333 1.492 3.333 3.333 0 1.373-0.83 2.551-2.015 3.062l-0.022 0.008 1.091 7.087c1.35 0.447 2.307 1.698 2.307 3.172 0 1.842-1.493 3.335-3.335 3.335-1.088 0-2.055-0.521-2.663-1.328l-0.006-0.008h-9.34c-0.615 0.812-1.579 1.331-2.665 1.331-1.841 0-3.333-1.492-3.333-3.333 0-1.47 0.951-2.717 2.271-3.16l0.024-0.007 1.091-7.083c-1.217-0.515-2.055-1.699-2.055-3.079 0-1.841 1.492-3.333 3.333-3.333 1.086 0 2.050 0.519 2.659 1.322l0.006 0.008h6.656c0.614-0.81 1.576-1.328 2.66-1.328 0.001 0 0.002 0 0.003 0h-0zM15.981 7.333h-5.315c0 1.6-1.121 2.933-2.619 3.261l-1.060 6.887c1.291 0.411 2.23 1.552 2.335 2.927l0.001 0.011 0.009 0.247h8.007c0-0 0-0 0-0.001 0-1.485 0.971-2.743 2.312-3.174l0.024-0.007-1.057-6.887c-1.443-0.317-2.524-1.535-2.629-3.023l-0.001-0.011-0.008-0.232z"></path>
</svg>
