<!-- Generated by IcoMoon.io -->
<svg version="1.1" xmlns="http://www.w3.org/2000/svg" width="32" height="32" viewBox="0 0 32 32">
<title>cube-arrow-curve-down-filled</title>
<path d="M1.605 8.792c0.003-3.973 3.224-7.192 7.197-7.192 0.001 0 0.002 0 0.003 0h-0c3.976 0 7.2 3.221 7.2 7.192-0.003 3.973-3.224 7.192-7.197 7.192-0.001 0-0.002 0-0.003 0h0c-0.001 0-0.002 0-0.003 0-3.973 0-7.194-3.219-7.197-7.192v-0zM11.838 10.226l-1.434 1.432v-2.466c-0.002-2.428-1.97-4.395-4.398-4.395-0.001 0-0.001 0-0.002 0h-0.4c-0.011-0-0.023-0.001-0.036-0.001-0.442 0-0.8 0.358-0.8 0.8s0.358 0.8 0.8 0.8c0.013 0 0.025-0 0.038-0.001l-0.002 0h0.4c1.546 0 2.8 1.251 2.8 2.797v2.466l-1.435-1.432c-0.142-0.131-0.333-0.212-0.542-0.212-0.442 0-0.8 0.358-0.8 0.8 0 0.209 0.080 0.399 0.212 0.542l-0-0.001 2.805 2.8c0.144 0.143 0.342 0.232 0.562 0.232 0.221 0 0.42-0.090 0.565-0.235l0-0 2.8-2.797c0.159-0.147 0.259-0.356 0.259-0.589 0-0.442-0.358-0.8-0.8-0.8-0.232 0-0.442 0.099-0.588 0.257l-0.001 0.001zM17.6 8.792c0 0.003 0 0.007 0 0.010 0 1.277-0.273 2.489-0.765 3.583l0.022-0.055 6.016-2.67c0.090-0.038 0.195-0.060 0.305-0.060 0.442 0 0.8 0.358 0.8 0.8 0 0.316-0.183 0.589-0.449 0.719l-6.73 2.988v7.472c0 0.442-0.358 0.8-0.8 0.8s-0.8-0.358-0.8-0.8v0-6.752c-1.605 1.699-3.873 2.757-6.389 2.757-0.004 0-0.008 0-0.012 0h0.001c-2.128 0-4.080-0.754-5.6-2.010v6.52c0 0.981 0.597 1.862 1.509 2.227l9.211 3.68c0.616 0.253 1.331 0.4 2.080 0.4s1.464-0.147 2.117-0.414l-0.037 0.014 9.211-3.68c0.912-0.365 1.509-1.246 1.509-2.227v-12.219c0-0.981-0.597-1.862-1.509-2.226l-9.211-3.68c-0.617-0.254-1.332-0.401-2.083-0.401-0.042 0-0.084 0-0.125 0.001l0.006-0c1.075 1.436 1.722 3.248 1.722 5.21 0 0.005 0 0.010 0 0.015v-0.001z"></path>
</svg>
