<!-- Generated by IcoMoon.io -->
<svg version="1.1" xmlns="http://www.w3.org/2000/svg" width="32" height="32" viewBox="0 0 32 32">
<title>cube-tree-filled</title>
<path d="M15.684 2.717c0.094-0.032 0.203-0.051 0.316-0.051s0.222 0.019 0.323 0.053l-0.007-0.002 5 1.667c0.401 0.136 0.684 0.51 0.684 0.949 0 0 0 0 0 0.001v-0 6.667c0 0 0 0 0 0.001 0 0.439-0.283 0.812-0.677 0.947l-0.007 0.002-4.316 1.437v2.947h2.333c1.657 0 3 1.343 3 3v0 1.127c1.735 0.463 2.992 2.021 2.992 3.872 0 2.207-1.786 3.996-3.992 4.001h-0c-0 0-0.001 0-0.001 0-2.209 0-4-1.791-4-4 0-1.854 1.262-3.414 2.973-3.867l0.028-0.006v-1.127c0-0.552-0.448-1-1-1v0h-6.667c-0.552 0-1 0.448-1 1v0 1.127c1.735 0.463 2.992 2.021 2.992 3.872 0 2.207-1.786 3.996-3.992 4.001h-0.001c-0 0-0.001 0-0.001 0-2.209 0-4-1.791-4-4 0-1.854 1.262-3.414 2.973-3.867l0.028-0.006v-1.127c0-1.657 1.343-3 3-3v0h2.333v-2.947l-4.316-1.436c-0.401-0.136-0.684-0.51-0.684-0.949 0-0.001 0-0.001 0-0.002v0-6.667c0-0 0-0 0-0.001 0-0.439 0.283-0.812 0.677-0.947l0.007-0.002 5-1.667zM13.051 7.351c-0.033 0.094-0.051 0.203-0.051 0.316 0 0.44 0.284 0.813 0.678 0.947l0.007 0.002 1.316 0.439v1.279c0 0.552 0.448 1 1 1s1-0.448 1-1v0-1.28l1.316-0.437c0.401-0.136 0.685-0.51 0.685-0.949 0-0.553-0.448-1.001-1.001-1.001-0.113 0-0.222 0.019-0.323 0.053l0.007-0.002-1.684 0.563-1.684-0.56c-0.095-0.033-0.203-0.051-0.317-0.051-0.439 0-0.812 0.283-0.947 0.676l-0.002 0.007z"></path>
</svg>
