<!-- Generated by IcoMoon.io -->
<svg version="1.1" xmlns="http://www.w3.org/2000/svg" width="32" height="32" viewBox="0 0 32 32">
<title>cube-rotate-filled</title>
<path d="M13.653 4.203c0.688-0.326 1.496-0.516 2.347-0.516s1.659 0.19 2.381 0.53l-0.034-0.014 7.459 3.442c0.83 0.39 1.394 1.218 1.394 2.179 0 0 0 0 0 0v-0 2.976h-1.6c-0.001 0-0.001 0-0.002 0-1.325 0-2.4 1.075-2.4 2.4 0 0.844 0.435 1.586 1.093 2.014l0.009 0.006c-2.021 1.171-4.936 1.981-8.302 1.981-3.365 0-6.28-0.811-8.301-1.982 0.667-0.433 1.102-1.175 1.102-2.018 0-1.325-1.074-2.398-2.398-2.398-0 0-0.001 0-0.001 0h-1.6v-2.978c0-0.001 0-0.001 0-0.002 0-0.96 0.564-1.789 1.379-2.173l0.015-0.006 7.459-3.442zM10.715 10.464c-0.093-0.041-0.201-0.065-0.315-0.065-0.442 0-0.801 0.358-0.801 0.801 0 0.328 0.198 0.61 0.48 0.734l0.005 0.002 5.115 2.192v2.672c0 0.442 0.358 0.8 0.8 0.8s0.8-0.358 0.8-0.8v0-2.672l5.115-2.192c0.288-0.126 0.485-0.408 0.485-0.736 0-0.442-0.358-0.801-0.801-0.801-0.114 0-0.222 0.024-0.32 0.067l0.005-0.002-5.285 2.267-5.285-2.267zM24.8 15.2c0-0.442 0.358-0.8 0.8-0.8v0h4c0.442 0 0.8 0.358 0.8 0.8v0 4c0 0.442-0.358 0.8-0.8 0.8s-0.8-0.358-0.8-0.8v0-1.568c-0.478 0.556-1.002 1.048-1.575 1.479l-0.025 0.018c-0.32 0.242-0.659 0.474-1.019 0.693-2.605 1.594-6.205 2.578-10.181 2.578s-7.576-0.984-10.182-2.576c-0.397-0.242-0.729-0.47-1.049-0.712l0.031 0.023c-0.598-0.449-1.122-0.941-1.589-1.483l-0.011-0.013v1.562c0 0.442-0.358 0.8-0.8 0.8s-0.8-0.358-0.8-0.8v0-4c0-0.442 0.358-0.8 0.8-0.8v0h4c0.442 0 0.8 0.358 0.8 0.8s-0.358 0.8-0.8 0.8v0h-2.432c0.227 0.346 0.504 0.686 0.832 1.018 0.195 0.198 0.406 0.392 0.638 0.582 0.356 0.293 0.752 0.575 1.167 0.83l0.046 0.026c0.656 0.403 1.395 0.766 2.2 1.078 2.026 0.79 4.477 1.264 7.147 1.264 2.672 0 5.125-0.475 7.152-1.264 0.85-0.331 1.573-0.693 2.257-1.113l-0.060 0.034c0.448-0.274 0.853-0.56 1.213-0.856 0.232-0.192 0.445-0.387 0.64-0.584 0.328-0.331 0.603-0.672 0.829-1.016h-2.429c-0.442 0-0.8-0.358-0.8-0.8v0zM16 24c-4.264 0-8.261-1.070-11.2-2.925v1.101c0 0 0 0 0 0 0 0.96 0.564 1.789 1.379 2.173l0.015 0.006 7.459 3.442c0.688 0.326 1.496 0.516 2.347 0.516s1.659-0.19 2.381-0.53l-0.034 0.014 7.459-3.442c0.83-0.39 1.394-1.218 1.394-2.179 0-0 0-0 0-0v0-1.102c-2.939 1.856-6.938 2.926-11.2 2.926z"></path>
</svg>
