<!-- Generated by IcoMoon.io -->
<svg version="1.1" xmlns="http://www.w3.org/2000/svg" width="32" height="32" viewBox="0 0 32 32">
<title>cube-sync-filled</title>
<path d="M17.879 3.349c-1.205-0.488-2.552-0.488-3.757 0l-9.998 4.053c-0.881 0.357-1.457 1.212-1.457 2.162v12.87c0 0.95 0.576 1.805 1.457 2.162l9.998 4.053c0.837 0.339 1.743 0.443 2.621 0.311-1.295-1.514-2.076-3.48-2.076-5.629 0-0.829 0.116-1.63 0.333-2.389v-6.599l-6.355-2.411c-0.516-0.196-0.776-0.773-0.58-1.29s0.773-0.776 1.29-0.58l6.645 2.521 6.645-2.521c0.516-0.196 1.094 0.064 1.29 0.58s-0.064 1.094-0.58 1.29l-6.355 2.411v3.071c1.582-1.693 3.834-2.751 6.333-2.751 2.329 0 4.443 0.918 6 2.413v-7.514c0-0.95-0.576-1.805-1.457-2.162l-9.998-4.053zM16 23.333c0 4.050 3.283 7.333 7.333 7.333s7.333-3.283 7.333-7.333c0-4.050-3.283-7.333-7.333-7.333s-7.333 3.283-7.333 7.333zM27.333 18.667c0.368 0 0.667 0.299 0.667 0.667v2.667c0 0.368-0.299 0.667-0.667 0.667h-2.667c-0.368 0-0.667-0.299-0.667-0.667s0.299-0.667 0.667-0.667h1.334c-0.609-0.811-1.577-1.333-2.667-1.333-1.111 0-2.096 0.543-2.702 1.381-0.216 0.298-0.633 0.365-0.931 0.149s-0.365-0.633-0.149-0.931c0.847-1.17 2.225-1.933 3.782-1.933 1.306 0 2.487 0.537 3.333 1.401v-0.734c0-0.368 0.299-0.667 0.667-0.667zM20 26.599v0.734c0 0.368-0.299 0.667-0.667 0.667s-0.667-0.299-0.667-0.667v-2.667c0-0.368 0.299-0.667 0.667-0.667h2.667c0.368 0 0.667 0.299 0.667 0.667s-0.299 0.667-0.667 0.667h-1.334c0.609 0.811 1.577 1.333 2.667 1.333 1.022 0 1.936-0.459 2.548-1.184 0.237-0.281 0.658-0.317 0.939-0.079s0.317 0.658 0.079 0.939c-0.855 1.013-2.136 1.657-3.567 1.657-1.306 0-2.487-0.537-3.333-1.401z"></path>
</svg>
