<!-- Generated by IcoMoon.io -->
<svg version="1.1" xmlns="http://www.w3.org/2000/svg" width="32" height="32" viewBox="0 0 32 32">
<title>cube-filled</title>
<path d="M17.879 3.349c-1.205-0.488-2.552-0.488-3.757 0l-9.998 4.053c-0.881 0.357-1.457 1.212-1.457 2.162v12.87c0 0.95 0.576 1.805 1.457 2.162l9.998 4.053c1.205 0.488 2.552 0.488 3.757 0l9.998-4.053c0.881-0.357 1.457-1.212 1.457-2.162v-12.87c0-0.95-0.576-1.805-1.457-2.162l-9.998-4.053zM8.065 10.645c0.196-0.516 0.773-0.776 1.29-0.58l6.645 2.521 6.645-2.521c0.516-0.196 1.094 0.064 1.29 0.58s-0.064 1.094-0.58 1.29l-6.355 2.411v7.321c0 0.552-0.448 1-1 1s-1-0.448-1-1v-7.321l-6.355-2.411c-0.516-0.196-0.776-0.773-0.58-1.29z"></path>
</svg>
