<!-- Generated by IcoMoon.io -->
<svg version="1.1" xmlns="http://www.w3.org/2000/svg" width="32" height="32" viewBox="0 0 32 32">
<title>cube-quick-filled</title>
<path d="M20.13 8.237c0.295-0.149 0.644-0.237 1.013-0.237s0.717 0.087 1.026 0.242l-0.013-0.006 5.143 2.542c0.76 0.382 1.273 1.156 1.273 2.049v0 6.345c-0 0.894-0.513 1.667-1.26 2.043l-0.013 0.006-5.143 2.543c-0.295 0.149-0.644 0.237-1.013 0.237s-0.717-0.087-1.026-0.242l0.013 0.006-5.143-2.543c-0.76-0.382-1.273-1.156-1.273-2.049v0-6.345c0-0.894 0.513-1.667 1.26-2.043l0.013-0.006 5.143-2.542zM17.248 13.59c-0.066 0.119-0.105 0.26-0.105 0.411 0 0.323 0.179 0.604 0.442 0.75l0.004 0.002 2.697 1.47v3.491c0 0.473 0.384 0.857 0.857 0.857s0.857-0.384 0.857-0.857v0-3.491l2.695-1.47c0.268-0.148 0.447-0.43 0.447-0.753 0-0.473-0.384-0.857-0.857-0.857-0.15 0-0.292 0.039-0.415 0.107l0.004-0.002-2.731 1.49-2.734-1.49c-0.118-0.066-0.26-0.104-0.41-0.104-0.323 0-0.604 0.178-0.75 0.442l-0.002 0.004zM5.429 9.714c-0.473 0-0.857 0.384-0.857 0.857s0.384 0.857 0.857 0.857v0h5.714c0.473 0 0.857-0.384 0.857-0.857s-0.384-0.857-0.857-0.857v0h-5.714zM3.143 14.857c-0.473 0-0.857 0.384-0.857 0.857s0.384 0.857 0.857 0.857v0h5.714c0.473 0 0.857-0.384 0.857-0.857s-0.384-0.857-0.857-0.857v0h-5.714zM4.571 20.857c0-0.473 0.384-0.857 0.857-0.857v0h5.714c0.473 0 0.857 0.384 0.857 0.857s-0.384 0.857-0.857 0.857v0h-5.714c-0.473 0-0.857-0.384-0.857-0.857v0z"></path>
</svg>
