<!-- Generated by IcoMoon.io -->
<svg version="1.1" xmlns="http://www.w3.org/2000/svg" width="32" height="32" viewBox="0 0 32 32">
<title>currency-dollar-euro-filled</title>
<path d="M8.667 2.667c-0.736 0-1.333 0.597-1.333 1.333v0 0.149c-2.692 0.63-4.666 3.010-4.667 5.851v0.512c0 0 0 0 0 0.001 0 2.585 1.506 4.818 3.689 5.869l0.039 0.017 0.939 0.443v8.187c-1.187-0.528-2-1.696-2-3.055v-1.127c0-0.736-0.597-1.333-1.333-1.333s-1.333 0.597-1.333 1.333v0 1.127c0 2.841 1.974 5.222 4.626 5.844l0.041 0.008v0.165c0 0.736 0.597 1.333 1.333 1.333s1.333-0.597 1.333-1.333v0-0.165c2.692-0.63 4.667-3.011 4.667-5.852v0-0.496c0-0 0-0.001 0-0.001 0-2.58-1.504-4.81-3.682-5.859l-0.039-0.017-0.945-0.447v-8.209c1.187 0.528 2 1.696 2 3.055 0 0 0 0.001 0 0.001v-0 1.153c0 0.736 0.597 1.333 1.333 1.333s1.333-0.597 1.333-1.333v0-1.153c-0.001-2.841-1.975-5.221-4.626-5.843l-0.041-0.008v-0.149c0-0.736-0.597-1.333-1.333-1.333v0zM5.333 10c0-0 0-0.001 0-0.001 0-1.359 0.813-2.527 1.979-3.047l0.021-0.008v6.941c-1.201-0.666-2-1.926-2-3.373v0-0.512zM10 25.028v-6.919c1.227 0.668 2 1.957 2 3.367v0.496c0 0 0 0.001 0 0.001 0 1.359-0.813 2.527-1.979 3.047l-0.021 0.008zM20 16c0-0.443 0.020-0.876 0.057-1.3h1.276c0.736 0 1.333-0.597 1.333-1.333s-0.597-1.333-1.333-1.333v0h-0.769c0.319-1.078 0.764-2.019 1.33-2.872l-0.024 0.039c1.133-1.691 2.555-2.533 3.949-2.533 0.504 0 1.047 0.156 1.423 0.413 0.214 0.152 0.48 0.243 0.767 0.243 0.736 0 1.333-0.597 1.333-1.333 0-0.461-0.234-0.867-0.589-1.106l-0.005-0.003c-0.876-0.6-1.961-0.88-2.929-0.88-2.556 0-4.711 1.545-6.164 3.715-0.825 1.231-1.459 2.7-1.853 4.319h-1.801c-0.736 0-1.333 0.597-1.333 1.333s0.597 1.333 1.333 1.333v0h1.381c-0.032 0.427-0.048 0.861-0.048 1.3v0.036h-1.333c-0.736 0-1.333 0.597-1.333 1.333s0.597 1.333 1.333 1.333v0h1.547c0.34 2.117 1.072 4.040 2.107 5.583 1.456 2.168 3.611 3.715 6.165 3.715 0.929 0 2.047-0.232 2.963-0.893 0.336-0.245 0.552-0.638 0.552-1.081 0-0.736-0.597-1.334-1.334-1.334-0.294 0-0.565 0.095-0.785 0.256l0.004-0.003c-0.339 0.244-0.859 0.388-1.4 0.388-1.395 0-2.816-0.843-3.949-2.533-0.737-1.099-1.307-2.501-1.616-4.1h1.080c0.736 0 1.333-0.597 1.333-1.333s-0.597-1.333-1.333-1.333v0h-1.333v-0.033z"></path>
</svg>
