<!-- Generated by IcoMoon.io -->
<svg version="1.1" xmlns="http://www.w3.org/2000/svg" width="32" height="32" viewBox="0 0 32 32">
<title>cut-filled</title>
<path d="M10.44 3.253c-0.243-0.357-0.648-0.589-1.107-0.589-0.737 0-1.334 0.597-1.334 1.334 0 0.278 0.085 0.536 0.23 0.749l-0.003-0.005 6.391 9.485-3.101 4.904c-0.642-0.295-1.393-0.468-2.184-0.468-2.946 0-5.333 2.388-5.333 5.333s2.388 5.333 5.333 5.333c2.946 0 5.333-2.388 5.333-5.333 0-1.2-0.397-2.308-1.066-3.199l0.010 0.014 2.636-4.168 2.512 3.728c-0.881 0.949-1.422 2.224-1.422 3.626 0 2.946 2.388 5.333 5.333 5.333s5.333-2.388 5.333-5.333c0-2.946-2.388-5.333-5.333-5.333-0.596 0-1.169 0.098-1.705 0.278l0.038-0.011-10.561-15.679zM6.667 24c0-1.473 1.194-2.667 2.667-2.667s2.667 1.194 2.667 2.667v0c0 1.473-1.194 2.667-2.667 2.667s-2.667-1.194-2.667-2.667v0zM20 24c0-1.473 1.194-2.667 2.667-2.667s2.667 1.194 2.667 2.667v0c0 1.473-1.194 2.667-2.667 2.667s-2.667-1.194-2.667-2.667v0zM19.36 11.72l4.433-7.008c0.13-0.202 0.207-0.449 0.207-0.713 0-0.736-0.597-1.333-1.334-1.333-0.472 0-0.886 0.245-1.123 0.615l-0.003 0.005-3.807 6.020 1.627 2.416z"></path>
</svg>
