<!-- Generated by IcoMoon.io -->
<svg version="1.1" xmlns="http://www.w3.org/2000/svg" width="32" height="32" viewBox="0 0 32 32">
<title>database-plug-connected-filled</title>
<path d="M16 12.8c5.302 0 9.6-2.149 9.6-4.8s-4.298-4.8-9.6-4.8-9.6 2.149-9.6 4.8 4.298 4.8 9.6 4.8zM23.504 12.826c0.752-0.376 1.483-0.854 2.096-1.434v4.782c-1.178 0.095-2.222 0.606-2.997 1.385l-0 0-0.96 0.96c-0.573 0.573-0.927 1.365-0.927 2.24 0 0.066 0.002 0.131 0.006 0.196l-0-0.009c-0.057-0.004-0.124-0.006-0.191-0.006-0.875 0-1.666 0.354-2.24 0.927l-0.96 0.96c-0.866 0.865-1.401 2.060-1.401 3.381 0 0.444 0.061 0.874 0.174 1.282l-0.008-0.034-1.216 1.222c-0.027 0.027-0.053 0.054-0.078 0.081l-0.002 0.002c-4.736-0.296-8.4-2.315-8.4-4.763v-12.608c0.613 0.579 1.344 1.058 2.096 1.434 2.003 1.002 4.659 1.574 7.504 1.574s5.501-0.573 7.504-1.574zM30.717 17.366c0.145-0.145 0.235-0.345 0.235-0.566 0-0.442-0.358-0.8-0.8-0.8-0.221 0-0.421 0.089-0.566 0.234v0l-1.898 1.898c-0.018 0.024-0.036 0.052-0.053 0.080l-0.003 0.005c-0.468-0.284-1.035-0.452-1.64-0.452-0.881 0-1.679 0.356-2.258 0.932l-0.96 0.96c-0.283 0.284-0.459 0.676-0.459 1.109s0.175 0.825 0.459 1.109l-0-0 2.307 2.302c0.284 0.284 0.676 0.459 1.11 0.459s0.826-0.176 1.11-0.459l0.96-0.96c0.576-0.579 0.933-1.377 0.933-2.258 0-0.606-0.168-1.172-0.461-1.655l0.008 0.014c0.032-0.018 0.060-0.036 0.086-0.057l-0.001 0.001 1.891-1.894zM21.643 23c-0.284-0.284-0.676-0.459-1.109-0.459s-0.825 0.176-1.109 0.459l-0.96 0.96c-0.576 0.579-0.933 1.377-0.933 2.258 0 0.606 0.168 1.172 0.461 1.655l-0.008-0.014c-0.032 0.018-0.060 0.037-0.086 0.057l0.002-0.001-1.891 1.896c-0.139 0.144-0.225 0.34-0.225 0.556 0 0.442 0.358 0.8 0.8 0.8 0.216 0 0.412-0.086 0.556-0.225l1.896-1.897c0.019-0.025 0.038-0.052 0.056-0.081l0.002-0.004c0.468 0.284 1.035 0.452 1.64 0.452 0.881 0 1.679-0.356 2.258-0.932l0.96-0.96c0.284-0.284 0.46-0.676 0.46-1.11s-0.176-0.826-0.46-1.11l-0-0-2.309-2.301z"></path>
</svg>
