<!-- Generated by IcoMoon.io -->
<svg version="1.1" xmlns="http://www.w3.org/2000/svg" width="32" height="32" viewBox="0 0 32 32">
<title>database-person-filled</title>
<path d="M16 13.333c5.891 0 10.667-2.388 10.667-5.333s-4.776-5.333-10.667-5.333c-5.891 0-10.667 2.388-10.667 5.333s4.776 5.333 10.667 5.333zM22.302 14.416c0.305-0.16 0.636-0.278 0.984-0.347 0.231-0.046 0.47-0.070 0.715-0.070 1.051 0 1.998 0.442 2.667 1.15 0.193 0.204 0.363 0.431 0.505 0.675 0.315 0.541 0.495 1.17 0.495 1.841 0 0.974-0.38 1.86-1 2.517-0.669 0.708-1.616 1.15-2.667 1.15-1.762 0-3.233-1.242-3.586-2.899-0.053-0.248-0.081-0.505-0.081-0.768 0-0.6 0.144-1.167 0.4-1.667 0.346-0.677 0.896-1.232 1.569-1.584zM26.667 13.437c-0.342-0.216-0.713-0.392-1.105-0.521 0.388-0.254 0.761-0.535 1.105-0.845v1.366zM17.567 26.734c0.291 0.868 0.851 1.688 1.648 2.353 1.139 0.949 2.763 1.58 4.785 1.58 4.187 0 6.667-2.705 6.667-5.333v-0.667c0-1.105-0.895-2-2-2h-9.333c-0.153 0-0.303 0.017-0.446 0.050-0.89 0.203-1.554 0.999-1.554 1.95v0.667c0 0.47 0.079 0.942 0.233 1.401zM16 29.333c0.514 0 1.020-0.018 1.515-0.053-0.544-0.636-0.955-1.354-1.213-2.121-0.198-0.59-0.303-1.205-0.303-1.825v-0.667c0-1.587 1.108-2.912 2.591-3.25 0.24-0.055 0.489-0.083 0.743-0.083h1.267c-0.741-0.687-1.273-1.596-1.491-2.621-0.072-0.339-0.11-0.689-0.11-1.046 0-0.816 0.197-1.59 0.546-2.274 0.064-0.126 0.134-0.249 0.208-0.368-1.194 0.202-2.457 0.308-3.754 0.308-3.189 0-6.174-0.642-8.437-1.773-0.784-0.392-1.56-0.888-2.23-1.489v11.929c0 2.945 4.776 5.333 10.667 5.333zM16.303 27.159l1.252-0.42z"></path>
</svg>
