<!-- Generated by IcoMoon.io -->
<svg version="1.1" xmlns="http://www.w3.org/2000/svg" width="32" height="32" viewBox="0 0 32 32">
<title>database-window-filled</title>
<path d="M16 12.8c5.302 0 9.6-2.149 9.6-4.8s-4.298-4.8-9.6-4.8-9.6 2.149-9.6 4.8 4.298 4.8 9.6 4.8zM23.504 12.826c0.752-0.376 1.483-0.854 2.096-1.434v3.008h-7.2c-2.209 0-4 1.791-4 4v0 9.6c0 0.253 0.024 0.499 0.069 0.739-4.574-0.368-8.069-2.349-8.069-4.739v-12.608c0.613 0.579 1.344 1.058 2.096 1.434 2.003 1.002 4.659 1.574 7.504 1.574s5.501-0.573 7.504-1.574zM16 18.4c0-1.325 1.075-2.4 2.4-2.4v0h9.6c1.325 0 2.4 1.075 2.4 2.4v0 0.8h-14.4v-0.8zM16 20.8h14.4v7.2c0 1.325-1.075 2.4-2.4 2.4v0h-9.6c-1.325 0-2.4-1.075-2.4-2.4v0-7.2z"></path>
</svg>
