<!-- Generated by IcoMoon.io -->
<svg version="1.1" xmlns="http://www.w3.org/2000/svg" width="32" height="32" viewBox="0 0 32 32">
<title>data-area-filled</title>
<path d="M4 5c0-0.552 0.448-1 1-1s1 0.448 1 1v0 21h21c0.552 0 1 0.448 1 1s-0.448 1-1 1v0h-22c-0.552 0-1-0.448-1-1v0-22zM26 9c0-0.552-0.448-1-1-1-0.226 0-0.435 0.075-0.602 0.202l0.003-0.002-7.467 5.6-5.093-2.995c-0.145-0.087-0.32-0.138-0.507-0.138-0.163 0-0.316 0.039-0.452 0.108l0.006-0.003-3.553 1.776v12.119h18.667v-15.667z"></path>
</svg>
