<!-- Generated by IcoMoon.io -->
<svg version="1.1" xmlns="http://www.w3.org/2000/svg" width="32" height="32" viewBox="0 0 32 32">
<title>database-link-filled</title>
<path d="M16 13.333c5.891 0 10.667-2.387 10.667-5.333s-4.776-5.333-10.667-5.333-10.667 2.387-10.667 5.333 4.776 5.333 10.667 5.333zM24.437 13.56c0.85-0.422 1.583-0.919 2.24-1.499l-0.011 0.009v8.008c-0.3-0.050-0.646-0.079-0.998-0.079-0.001 0-0.001 0-0.002 0h-4.667c-0.001 0-0.001 0-0.002 0-3.498 0-6.333 2.836-6.333 6.333 0 1.096 0.278 2.126 0.768 3.025l-0.017-0.033c-5.619-0.151-10.083-2.477-10.083-5.325v-11.929c0.646 0.571 1.379 1.067 2.171 1.463l0.059 0.027c2.264 1.131 5.248 1.773 8.437 1.773s6.173-0.643 8.437-1.773zM30.667 26.333c0-2.761-2.239-5-5-5v0l-0.136 0.009c-0.491 0.069-0.864 0.486-0.864 0.991 0 0.552 0.448 1 1 1h0l0.205 0.007c1.569 0.108 2.8 1.407 2.8 2.993 0 1.657-1.343 3-3 3-0.002 0-0.004 0-0.006 0h0l-0.004 0.007-0.136 0.009c-0.491 0.069-0.864 0.486-0.864 0.991 0 0.552 0.448 1 1 1 0.003 0 0.006 0 0.008-0h-0v-0.007l0.267-0.007c2.642-0.148 4.729-2.326 4.729-4.993 0-0 0-0 0-0.001v0zM22 22.333c0-0.552-0.448-1-1-1v0l-0.267 0.007c-2.648 0.141-4.742 2.323-4.742 4.993 0 2.761 2.239 5 5 5 0.003 0 0.006 0 0.009 0h-0l0.136-0.009c0.491-0.069 0.864-0.486 0.864-0.991 0-0.552-0.448-1-1-1h-0l-0.205-0.007c-1.569-0.108-2.8-1.407-2.8-2.993 0-1.657 1.343-3 3-3 0.002 0 0.004 0 0.006 0h-0l0.136-0.009c0.491-0.069 0.864-0.486 0.864-0.991v0zM26.667 26.333c0-0.552-0.448-1-1-1v0h-4.667l-0.136 0.009c-0.491 0.069-0.864 0.486-0.864 0.991 0 0.552 0.448 1 1 1h4.667l0.136-0.009c0.491-0.069 0.864-0.486 0.864-0.991v0z"></path>
</svg>
