<!-- Generated by IcoMoon.io -->
<svg version="1.1" xmlns="http://www.w3.org/2000/svg" width="32" height="32" viewBox="0 0 32 32">
<title>database-arrow-up-filled</title>
<path d="M16 12.8c5.302 0 9.6-2.149 9.6-4.8s-4.298-4.8-9.6-4.8-9.6 2.149-9.6 4.8 4.298 4.8 9.6 4.8zM23.504 12.826c0.752-0.376 1.483-0.854 2.096-1.434v3.339c-0.72-0.212-1.547-0.334-2.402-0.334-4.86 0-8.8 3.94-8.8 8.8 0 2.133 0.759 4.089 2.022 5.613l-0.012-0.015-0.408 0.005c-5.302 0-9.6-2.149-9.6-4.8v-12.608c0.613 0.579 1.344 1.058 2.096 1.434 2.003 1.002 4.659 1.574 7.504 1.574s5.501-0.573 7.504-1.574zM16 23.2c0-3.976 3.224-7.2 7.2-7.2s7.2 3.224 7.2 7.2v0c0 3.976-3.224 7.2-7.2 7.2s-7.2-3.224-7.2-7.2v0zM23.766 19.435l-0.005-0.005c-0.143-0.141-0.34-0.229-0.557-0.23h-0.010c-0.219 0.001-0.416 0.090-0.56 0.234l-3.2 3.2c-0.145 0.145-0.235 0.345-0.235 0.566 0 0.442 0.358 0.8 0.8 0.8 0.221 0 0.421-0.089 0.566-0.234v0l1.834-1.835v4.469c0 0.442 0.358 0.8 0.8 0.8s0.8-0.358 0.8-0.8v0-4.469l1.834 1.835c0.145 0.145 0.345 0.235 0.566 0.235 0.442 0 0.801-0.359 0.801-0.801 0-0.221-0.090-0.421-0.235-0.566l-3.2-3.2z"></path>
</svg>
