<!-- Generated by IcoMoon.io -->
<svg version="1.1" xmlns="http://www.w3.org/2000/svg" width="32" height="32" viewBox="0 0 32 32">
<title>database-arrow-right-filled</title>
<path d="M16 14c3.256 0 6.3-0.596 8.606-1.644 0.823-0.374 1.668-0.865 2.394-1.48v4.33c-1.035-0.449-2.24-0.711-3.506-0.711-4.971 0-9 4.029-9 9 0 2.54 1.053 4.835 2.745 6.472l0.003 0.002c-0.408 0.020-0.822 0.031-1.242 0.031-6.075 0-11-2.239-11-5v-14.124c0.726 0.615 1.571 1.106 2.394 1.48 2.306 1.048 5.35 1.644 8.606 1.644zM5 7c0-2.761 4.925-5 11-5s11 2.239 11 5-4.925 5-11 5-11-2.239-11-5zM31 23.5c0-4.142-3.358-7.5-7.5-7.5s-7.5 3.358-7.5 7.5v0c0 4.142 3.358 7.5 7.5 7.5s7.5-3.358 7.5-7.5v0zM18.75 22.5h7.69l-2.72-2.72c-0.147-0.137-0.239-0.332-0.239-0.549 0-0.414 0.336-0.75 0.75-0.75 0.216 0 0.411 0.092 0.548 0.238l0 0 4 4c0.136 0.136 0.219 0.323 0.219 0.53s-0.084 0.394-0.219 0.53v0l-4 4c-0.137 0.147-0.332 0.239-0.549 0.239-0.414 0-0.75-0.336-0.75-0.75 0-0.216 0.092-0.411 0.238-0.548l0-0 2.72-2.72h-7.69c-0.414 0-0.75-0.336-0.75-0.75s0.336-0.75 0.75-0.75v0z"></path>
</svg>
