<!-- Generated by IcoMoon.io -->
<svg version="1.1" xmlns="http://www.w3.org/2000/svg" width="32" height="32" viewBox="0 0 32 32">
<title>data-bar-vertical-add-filled</title>
<path d="M19.338 6.336c0-2.026-1.643-3.669-3.669-3.669s-3.669 1.643-3.669 3.669v19.331c0 2.026 1.643 3.669 3.669 3.669 0.427 0 0.838-0.073 1.22-0.208-1.381-1.535-2.222-3.567-2.222-5.795 0-3.346 1.896-6.249 4.672-7.693v-9.305z"></path>
<path d="M28.672 16.506c-1.471-1.152-3.325-1.839-5.338-1.839-0.688 0-1.358 0.080-2 0.232v-1.897c0-2.026 1.643-3.669 3.669-3.669s3.669 1.643 3.669 3.669v3.504z"></path>
<path d="M6.336 16c2.026 0 3.669 1.643 3.669 3.669v5.998c0 2.026-1.643 3.669-3.669 3.669s-3.669-1.643-3.669-3.669v-5.998c0-2.026 1.643-3.669 3.669-3.669z"></path>
<path d="M30.667 23.334c0-4.050-3.283-7.333-7.333-7.333s-7.333 3.283-7.333 7.333c0 4.050 3.283 7.333 7.333 7.333s7.333-3.283 7.333-7.333zM24.001 24.001l0.001 3.338c0 0.368-0.298 0.667-0.667 0.667s-0.667-0.299-0.667-0.667l-0.001-3.338h-3.339c-0.368 0-0.667-0.299-0.667-0.667s0.299-0.667 0.667-0.667h3.339l-0.001-3.334c0-0.368 0.299-0.667 0.667-0.667s0.667 0.298 0.667 0.667l0.001 3.334h3.337c0.368 0 0.667 0.299 0.667 0.667s-0.298 0.667-0.667 0.667h-3.337z"></path>
</svg>
