<!-- Generated by IcoMoon.io -->
<svg version="1.1" xmlns="http://www.w3.org/2000/svg" width="32" height="32" viewBox="0 0 32 32">
<title>database-lightning-filled</title>
<path d="M16 12.8c5.302 0 9.6-2.149 9.6-4.8s-4.298-4.8-9.6-4.8-9.6 2.149-9.6 4.8 4.298 4.8 9.6 4.8zM23.504 12.826c0.752-0.376 1.483-0.854 2.096-1.434v3.008h-3.064c-0 0-0 0-0.001 0-0.992 0-1.844 0.602-2.209 1.461l-0.006 0.016-3.333 8c-0.117 0.273-0.185 0.59-0.185 0.923 0 1.325 1.075 2.4 2.4 2.4 0 0 0 0 0.001 0h0.75l-0.31 1.242c-1.081 0.228-2.323 0.358-3.595 0.358-0.017 0-0.034-0-0.051-0h0.003c-5.302 0-9.6-2.149-9.6-4.8v-12.608c0.613 0.579 1.344 1.058 2.096 1.434 2.003 1.002 4.659 1.574 7.504 1.574s5.501-0.573 7.504-1.574zM20.979 25.6c0.442 0 0.8 0.358 0.8 0.8 0 0.069-0.009 0.135-0.025 0.199l0.001-0.006-0.694 2.781c-0.194 0.773 0.739 1.323 1.322 0.779l7.795-7.277c0.235-0.22 0.381-0.531 0.381-0.877 0-0.662-0.536-1.199-1.198-1.2h-0.646c-0.442-0-0.799-0.358-0.799-0.8 0-0.090 0.015-0.177 0.043-0.258l-0.002 0.006 0.898-2.694c0.026-0.075 0.041-0.162 0.041-0.253 0-0.441-0.357-0.799-0.798-0.8h-5.557c-0 0-0 0-0.001 0-0.331 0-0.615 0.201-0.737 0.488l-0.002 0.005-3.333 8c-0.039 0.091-0.061 0.196-0.061 0.307 0 0.441 0.358 0.799 0.799 0.8h1.776z"></path>
</svg>
