<!-- Generated by IcoMoon.io -->
<svg version="1.1" xmlns="http://www.w3.org/2000/svg" width="32" height="32" viewBox="0 0 32 32">
<title>data-usage-filled</title>
<path d="M24.333 3.996c2.025 0 3.667 1.642 3.667 3.667v16.667c0 2.025-1.642 3.667-3.667 3.667h-16.667c-2.025 0-3.667-1.642-3.667-3.667v-16.667c0-2.025 1.642-3.667 3.667-3.667h16.667zM10.333 12.001c-0.552 0-1 0.446-1 0.996v8.675c0 0.55 0.448 0.996 1 0.996s1-0.446 1-0.996v-8.675c0-0.55-0.448-0.996-1-0.996zM21.667 9.334c-0.552 0-1 0.435-1 0.973v11.388c0 0.537 0.448 0.973 1 0.973s1-0.435 1-0.973v-11.388c0-0.537-0.448-0.973-1-0.973zM15.967 15.996c-0.539 0.005-0.972 0.443-0.967 0.978l0.047 4.73c0.005 0.535 0.447 0.964 0.986 0.959s0.972-0.443 0.967-0.978l-0.047-4.73c-0.005-0.535-0.447-0.964-0.986-0.959z"></path>
</svg>
