<!-- Generated by IcoMoon.io -->
<svg version="1.1" xmlns="http://www.w3.org/2000/svg" width="32" height="32" viewBox="0 0 32 32">
<title>data-bar-vertical-add-filled</title>
<path d="M24.333 4c-1.657 0-3 1.343-3 3v0 7.899c0.599-0.147 1.287-0.232 1.994-0.232 0.001 0 0.002 0 0.003 0h0.003c1.441 0 2.801 0.352 3.997 0.975v-8.641c0-1.656-1.342-2.998-2.997-3h-0zM18.664 12.333v3.696c-2.42 1.563-4 4.247-4 7.299 0 0.002 0 0.003 0 0.005v-0c0 0.004 0 0.009 0 0.014 0 1.719 0.503 3.321 1.37 4.667l-0.021-0.034c-0.104 0.013-0.225 0.020-0.348 0.020-1.656 0-2.999-1.343-2.999-2.999 0-0 0-0 0-0v0-12.669c-0.001-0.027-0.001-0.058-0.001-0.089 0-1.657 1.343-3 3-3s3 1.343 3 3c0 0.031-0 0.063-0.001 0.094l0-0.005zM4 17.667c-0.001-0.027-0.001-0.058-0.001-0.089 0-1.657 1.343-3 3-3s3 1.343 3 3c0 0.031-0 0.063-0.001 0.094l0-0.005v7.333c0.001 0.027 0.001 0.058 0.001 0.089 0 1.657-1.343 3-3 3s-3-1.343-3-3c0-0.031 0-0.063 0.001-0.094l-0 0.005v-7.333zM30.667 23.333c0-4.050-3.283-7.333-7.333-7.333s-7.333 3.283-7.333 7.333v0c0 4.050 3.283 7.333 7.333 7.333s7.333-3.283 7.333-7.333v0zM24 24l0.001 3.337c0 0.368-0.298 0.667-0.667 0.667s-0.667-0.298-0.667-0.667v0-3.337h-3.34c-0.368 0-0.667-0.298-0.667-0.667s0.298-0.667 0.667-0.667v0h3.339v-3.333c0-0.368 0.298-0.667 0.667-0.667s0.667 0.298 0.667 0.667v0 3.333h3.329c0.368 0 0.667 0.298 0.667 0.667s-0.298 0.667-0.667 0.667v0h-3.329z"></path>
</svg>
