<!-- Generated by IcoMoon.io -->
<svg version="1.1" xmlns="http://www.w3.org/2000/svg" width="32" height="32" viewBox="0 0 32 32">
<title>data-line-filled</title>
<path d="M21.333 8c0-2.209 1.791-4 4-4s4 1.791 4 4c0 2.209-1.791 4-4 4-0.224 0-0.444-0.018-0.658-0.054l0.023 0.003-2.717 4.477c0.432 0.629 0.691 1.408 0.691 2.247 0 2.209-1.791 4-4 4-1.205 0-2.285-0.533-3.019-1.375l-0.004-0.005-4.988 2.493c0.004 0.063 0.006 0.137 0.006 0.211 0 2.209-1.791 4-4 4s-4-1.791-4-4c0-2.209 1.791-4 4-4 1.415 0 2.659 0.735 3.37 1.845l0.010 0.016 4.708-2.353c-0.057-0.252-0.089-0.542-0.089-0.84 0-2.209 1.791-4 4-4 0.652 0 1.268 0.156 1.812 0.433l-0.023-0.011 2.397-3.951c-0.929-0.738-1.519-1.867-1.519-3.134 0-0.001 0-0.002 0-0.003v0z"></path>
</svg>
