<!-- Generated by IcoMoon.io -->
<svg version="1.1" xmlns="http://www.w3.org/2000/svg" width="32" height="32" viewBox="0 0 32 32">
<title>data-sunburst-filled</title>
<path d="M20 4.68c0 0.429 0.267 0.809 0.659 0.987 2.528 1.163 4.513 3.148 5.647 5.605l0.029 0.071c0.17 0.385 0.546 0.651 0.984 0.659h0.001c0.695 0 1.189-0.677 0.912-1.315-1.378-3.108-3.81-5.54-6.832-6.885l-0.085-0.034c-0.639-0.277-1.315 0.217-1.315 0.913zM10.685 3.768c0.639-0.277 1.315 0.217 1.315 0.913-0.008 0.439-0.274 0.814-0.652 0.981l-0.007 0.003c-2.528 1.163-4.512 3.149-5.645 5.607l-0.029 0.071c-0.17 0.385-0.546 0.651-0.984 0.659h-0.001c-0.695 0-1.189-0.677-0.912-1.315 1.378-3.108 3.81-5.54 6.832-6.885l0.085-0.034zM20 27.32c0-0.428 0.267-0.808 0.659-0.984 2.529-1.163 4.513-3.148 5.647-5.607l0.029-0.071c0.17-0.385 0.546-0.65 0.984-0.657h0.001c0.695 0 1.189 0.676 0.912 1.313-1.378 3.108-3.81 5.54-6.832 6.885l-0.085 0.034c-0.639 0.277-1.315-0.217-1.315-0.913zM5.665 20.659c-0.17-0.385-0.546-0.65-0.984-0.657h-0.001c-0.695 0-1.189 0.676-0.912 1.313 1.378 3.108 3.81 5.54 6.832 6.885l0.085 0.034c0.639 0.277 1.315-0.217 1.315-0.913-0.008-0.439-0.274-0.814-0.652-0.981l-0.007-0.003c-2.529-1.163-4.513-3.148-5.647-5.607l-0.029-0.071zM16 8.668c-0.257 0-0.512 0.013-0.763 0.039-0.034 0.004-0.073 0.006-0.113 0.006-0.552 0-1-0.448-1-1 0-0.52 0.396-0.947 0.903-0.995l0.004-0c0.29-0.032 0.627-0.050 0.967-0.050 4.419 0 8.122 3.071 9.089 7.195l0.012 0.063c0.016 0.066 0.025 0.143 0.025 0.221 0 0.552-0.448 1-1 1-0.474 0-0.871-0.33-0.974-0.772l-0.001-0.007c-0.771-3.289-3.679-5.7-7.151-5.7h-0zM12.161 8.535c0.108 0.157 0.172 0.352 0.172 0.561 0 0.343-0.173 0.646-0.436 0.826l-0.003 0.002c-1.959 1.335-3.228 3.555-3.228 6.072 0 0.001 0 0.003 0 0.004v-0c0 0.004 0 0.010 0 0.015 0 1.527 0.47 2.945 1.272 4.117l-0.016-0.025c0.098 0.152 0.156 0.337 0.156 0.536 0 0.552-0.448 1-1 1-0.333 0-0.628-0.163-0.81-0.413l-0.002-0.003c-1.002-1.461-1.6-3.267-1.6-5.213 0-0.005 0-0.009 0-0.014v0.001c0-0.001 0-0.003 0-0.005 0-3.203 1.615-6.029 4.074-7.708l0.032-0.021c0.157-0.108 0.351-0.172 0.56-0.172 0.343 0 0.645 0.172 0.825 0.435l0.002 0.003zM24.308 17.208c0.43 0.119 0.74 0.506 0.74 0.966 0 0.092-0.013 0.182-0.036 0.267l0.002-0.007c-1.109 4.008-4.724 6.902-9.014 6.902-1.584 0-3.076-0.394-4.383-1.090l0.050 0.024c-0.313-0.173-0.521-0.501-0.521-0.878 0-0.552 0.448-1 1-1 0.164 0 0.319 0.040 0.456 0.11l-0.006-0.003c0.987 0.527 2.158 0.836 3.402 0.836 3.371 0 6.212-2.274 7.071-5.372l0.012-0.052c0.119-0.429 0.506-0.739 0.965-0.739 0.093 0 0.183 0.013 0.268 0.036l-0.007-0.002zM16 10.667c-2.946 0-5.333 2.388-5.333 5.333s2.388 5.333 5.333 5.333v0c2.946 0 5.333-2.388 5.333-5.333s-2.388-5.333-5.333-5.333v0z"></path>
</svg>
