<!-- Generated by IcoMoon.io -->
<svg version="1.1" xmlns="http://www.w3.org/2000/svg" width="32" height="32" viewBox="0 0 32 32">
<title>database-search-filled</title>
<path d="M16 13.333c5.891 0 10.667-2.388 10.667-5.333s-4.776-5.333-10.667-5.333c-5.891 0-10.667 2.388-10.667 5.333s4.776 5.333 10.667 5.333zM24.437 13.56c0.784-0.392 1.56-0.888 2.23-1.489v4.272c-1.268-1.047-2.894-1.676-4.667-1.676-0.234 0-0.465 0.011-0.694 0.032 1.142-0.289 2.198-0.673 3.131-1.139zM14.667 22c0 3.274 2.146 6.048 5.108 6.99-1.173 0.222-2.446 0.344-3.775 0.344-5.891 0-10.667-2.388-10.667-5.333v-11.929c0.669 0.601 1.446 1.097 2.23 1.489 2.263 1.131 5.248 1.773 8.437 1.773 1.278 0 2.523-0.103 3.702-0.299-2.925 0.964-5.035 3.719-5.035 6.966zM22 28c1.296 0 2.496-0.411 3.477-1.109l3.483 3.483c0.391 0.391 1.024 0.391 1.414 0s0.391-1.024 0-1.414l-3.483-3.483c0.698-0.981 1.109-2.181 1.109-3.477 0-3.314-2.686-6-6-6s-6 2.686-6 6c0 3.314 2.686 6 6 6zM22 26c-2.209 0-4-1.791-4-4s1.791-4 4-4c2.209 0 4 1.791 4 4s-1.791 4-4 4z"></path>
</svg>
