<!-- Generated by IcoMoon.io -->
<svg version="1.1" xmlns="http://www.w3.org/2000/svg" width="32" height="32" viewBox="0 0 32 32">
<title>data-usage-toolbox-filled</title>
<path d="M23 2.662c2.025 0 3.667 1.642 3.667 3.667v8.809c-0.318-0.090-0.653-0.138-1-0.138h-4.333v-6.027c0-0.537-0.448-0.973-1-0.973s-1 0.435-1 0.973v6.427c-1.187 0.607-2 1.842-2 3.267v0.067c-0.645 0.131-1.223 0.448-1.674 0.893l-0.040-4.005c-0.005-0.535-0.447-0.964-0.986-0.959s-0.972 0.443-0.967 0.978l0.047 4.73c0.005 0.535 0.447 0.964 0.986 0.959 0.012-0 0.023-0.001 0.035-0.001-0.044 0.217-0.068 0.442-0.068 0.672v4.662h-8.333c-2.025 0-3.667-1.642-3.667-3.667v-16.667c0-2.025 1.642-3.667 3.667-3.667h16.667zM9 10.667c-0.552 0-1 0.446-1 0.996v8.675c0 0.55 0.448 0.996 1 0.996s1-0.446 1-0.996v-8.675c0-0.55-0.448-0.996-1-0.996zM18.667 20h-0.667c-1.105 0-2 0.895-2 2v2h3.333v-0.333c0-0.552 0.448-1 1-1s1 0.448 1 1v0.333h4v-0.333c0-0.552 0.448-1 1-1s1 0.448 1 1v0.333h3.333v-2c0-1.105-0.895-2-2-2h-0.667v-1.333c0-1.289-1.045-2.333-2.333-2.333h-4.667c-1.289 0-2.333 1.045-2.333 2.333v1.333zM20.667 18.667c0-0.184 0.149-0.333 0.333-0.333h4.667c0.184 0 0.333 0.149 0.333 0.333v1.333h-5.333v-1.333zM16 28.667v-2.667h3.333v1c0 0.552 0.448 1 1 1s1-0.448 1-1v-1h4v1c0 0.552 0.448 1 1 1s1-0.448 1-1v-1h3.333v2.667c0 1.105-0.895 2-2 2h-10.667c-1.105 0-2-0.895-2-2z"></path>
</svg>
