<!-- Generated by IcoMoon.io -->
<svg version="1.1" xmlns="http://www.w3.org/2000/svg" width="32" height="32" viewBox="0 0 32 32">
<title>data-trending-filled</title>
<path d="M7 5.667c0-0.736-0.597-1.333-1.333-1.333s-1.333 0.597-1.333 1.333v18.667c0 1.841 1.492 3.333 3.333 3.333h18.667c0.736 0 1.333-0.597 1.333-1.333s-0.597-1.333-1.333-1.333h-18.667c-0.368 0-0.667-0.299-0.667-0.667v-18.667zM18.667 9.333c0-0.736 0.597-1.333 1.333-1.333h6.002c0.354 0 0.693 0.141 0.943 0.391s0.391 0.589 0.39 0.943l-0.002 6c-0 0.736-0.597 1.333-1.334 1.333s-1.333-0.597-1.333-1.334l0.001-2.782-6.058 6.058c-0.521 0.521-1.365 0.521-1.886 0l-2.391-2.391-3.391 3.391c-0.521 0.521-1.365 0.521-1.886 0s-0.521-1.365 0-1.886l4.333-4.333c0.521-0.521 1.365-0.521 1.886 0l2.391 2.391 5.114-5.114h-2.781c-0.736 0-1.333-0.597-1.333-1.333z"></path>
</svg>
