<!-- Generated by IcoMoon.io -->
<svg version="1.1" xmlns="http://www.w3.org/2000/svg" width="32" height="32" viewBox="0 0 32 32">
<title>database-switch-filled</title>
<path d="M18.966 30.166c-0.144 0.146-0.345 0.236-0.566 0.236s-0.422-0.090-0.566-0.236l-3.2-3.2c-0.146-0.145-0.236-0.345-0.236-0.566s0.090-0.422 0.236-0.566l3.2-3.2c0.145-0.147 0.346-0.239 0.569-0.239 0.332 0 0.617 0.203 0.737 0.493l0.002 0.005c0.039 0.091 0.061 0.196 0.061 0.307 0 0.222-0.090 0.422-0.235 0.567l-1.835 1.834h8.938l-1.835-1.834c-0.147-0.145-0.239-0.346-0.239-0.569 0-0.332 0.203-0.617 0.493-0.737l0.005-0.002c0.091-0.039 0.196-0.061 0.307-0.061 0.222 0 0.422 0.090 0.567 0.235l3.2 3.2c0.146 0.144 0.236 0.345 0.236 0.566s-0.090 0.422-0.236 0.566l-3.2 3.2c-0.145 0.147-0.346 0.239-0.569 0.239-0.332 0-0.617-0.203-0.737-0.493l-0.002-0.005c-0.039-0.091-0.061-0.196-0.061-0.307 0-0.222 0.090-0.422 0.235-0.567l1.835-1.834h-8.938l1.835 1.834c0.146 0.144 0.236 0.345 0.236 0.566s-0.090 0.422-0.236 0.566l-0 0zM16 12.8c5.302 0 9.6-2.149 9.6-4.8s-4.298-4.8-9.6-4.8-9.6 2.149-9.6 4.8 4.298 4.8 9.6 4.8zM13.502 28.098c-0.435-0.434-0.704-1.035-0.704-1.698s0.269-1.263 0.703-1.698l3.2-3.2c0.433-0.435 1.032-0.705 1.695-0.705 0.332 0 0.649 0.068 0.937 0.191l-0.016-0.006c0.716 0.299 1.247 0.917 1.421 1.67l0.003 0.016c0.037 0.158 0.059 0.34 0.059 0.527 0 0.288-0.051 0.565-0.144 0.821l0.005-0.017h1.875c-0.087-0.238-0.137-0.513-0.137-0.8 0-1.325 1.074-2.4 2.4-2.4h0c0.272 0.003 0.544 0.051 0.8 0.146v-9.554c-0.31 0.293-0.643 0.56-0.997 0.8-0.352 0.237-0.72 0.45-1.099 0.64-0.44 0.225-0.975 0.451-1.526 0.641l-0.092 0.027c-1.901 0.613-3.888 0.917-5.886 0.899-0.044 0-0.096 0.001-0.148 0.001-2.051 0-4.025-0.332-5.87-0.944l0.132 0.038c-0.643-0.218-1.177-0.444-1.692-0.703l0.075 0.034c-0.43-0.216-0.79-0.429-1.134-0.662l0.035 0.022c-0.373-0.252-0.698-0.513-1.001-0.797l0.004 0.004v12.608c0 2.325 3.312 4.253 7.701 4.694l-0.598-0.597z"></path>
</svg>
