<!-- Generated by IcoMoon.io -->
<svg version="1.1" xmlns="http://www.w3.org/2000/svg" width="32" height="32" viewBox="0 0 32 32">
<title>database-multiple-filled</title>
<path d="M28.8 6.4c0 2.651-4.298 4.8-9.6 4.8s-9.6-2.149-9.6-4.8 4.298-4.8 9.6-4.8 9.6 2.149 9.6 4.8zM28.8 9.792c-0.613 0.579-1.344 1.058-2.096 1.434-2.003 1.002-4.659 1.574-7.504 1.574-0.997 0-1.968-0.070-2.898-0.205 1.496 0.845 2.758 2.146 2.886 3.907l0.016-0.013-0.005 3.595v6.315c0 0.278-0.029 0.544-0.082 0.8h0.082c5.302 0 9.6-2.149 9.6-4.8v-12.608zM11.696 11.226l0.080 0.040c-0.412-0.042-0.891-0.065-1.376-0.065-0.282 0-0.561 0.008-0.839 0.024l0.038-0.002v-1.43c0.613 0.579 1.344 1.058 2.096 1.434zM14.4 13.472c-0.506-0.193-1.108-0.36-1.729-0.472l-0.063-0.009c-0.656-0.121-1.41-0.19-2.18-0.19-0.010 0-0.020 0-0.029 0h0.002c-3.976 0-7.2 1.792-7.2 4s3.224 4 7.2 4 7.2-1.792 7.2-4c0-1.387-1.27-2.608-3.2-3.328zM16.269 21.024c-1.584 0.88-3.661 1.374-5.869 1.374s-4.286-0.494-5.869-1.373c-0.505-0.28-0.941-0.591-1.338-0.946l0.007 0.006v6.312c0 2.21 3.224 4.002 7.2 4.002s7.2-1.792 7.2-4l0.002-6.314c-0.39 0.349-0.827 0.662-1.296 0.924l-0.037 0.019z"></path>
</svg>
