<!-- Generated by IcoMoon.io -->
<svg version="1.1" xmlns="http://www.w3.org/2000/svg" width="32" height="32" viewBox="0 0 32 32">
<title>database-filled</title>
<path d="M16 13.333c5.891 0 10.667-2.388 10.667-5.333s-4.776-5.333-10.667-5.333c-5.891 0-10.667 2.388-10.667 5.333s4.776 5.333 10.667 5.333zM24.437 13.56c0.784-0.392 1.56-0.888 2.23-1.489v11.929c0 2.945-4.776 5.333-10.667 5.333s-10.667-2.388-10.667-5.333v-11.929c0.669 0.601 1.446 1.097 2.23 1.489 2.263 1.131 5.248 1.773 8.437 1.773s6.174-0.642 8.437-1.773z"></path>
</svg>
