<!-- Generated by IcoMoon.io -->
<svg version="1.1" xmlns="http://www.w3.org/2000/svg" width="32" height="32" viewBox="0 0 32 32">
<title>data-funnel-filled</title>
<path d="M25.664 10.005c2.027 0 3.669-1.643 3.669-3.669s-1.643-3.669-3.669-3.669v0h-19.331c-2.027 0-3.669 1.643-3.669 3.669s1.643 3.669 3.669 3.669v0h19.331zM22.997 19.339c2.027 0 3.669-1.643 3.669-3.669s-1.643-3.669-3.669-3.669v0h-13.997c-2.027 0-3.669 1.643-3.669 3.669s1.643 3.669 3.669 3.669v0h13.997zM22.667 25.003c0-2.027-1.643-3.669-3.669-3.669v0h-5.997c-2.027 0-3.669 1.643-3.669 3.669s1.643 3.669 3.669 3.669h5.997c2.027 0 3.669-1.643 3.669-3.669v0z"></path>
</svg>
