<!-- Generated by IcoMoon.io -->
<svg version="1.1" xmlns="http://www.w3.org/2000/svg" width="32" height="32" viewBox="0 0 32 32">
<title>data-usage-toolbox-filled</title>
<path d="M23 2.661c2.025 0 3.667 1.642 3.667 3.667v0 8.809c-0.299-0.088-0.643-0.139-0.999-0.139-0 0-0 0-0.001 0h-4.333v-6.025c-0.007-0.539-0.446-0.973-0.987-0.973-0.005 0-0.009 0-0.014 0h0.001c-0.004-0-0.009-0-0.013-0-0.54 0-0.979 0.434-0.987 0.973v6.427c-1.197 0.62-2 1.849-2 3.266 0 0 0 0 0 0.001v-0 0.067c-0.658 0.137-1.228 0.453-1.674 0.894l0-0-0.040-4.005c-0.008-0.531-0.441-0.959-0.973-0.959-0.005 0-0.009 0-0.014 0h0.001c-0.535 0.004-0.967 0.438-0.967 0.973 0 0.002 0 0.004 0 0.006v-0l0.047 4.729c0.007 0.532 0.44 0.96 0.973 0.96 0.005 0 0.009-0 0.014-0h-0.001l0.035-0.003c-0.043 0.2-0.068 0.43-0.068 0.666 0 0.002 0 0.004 0 0.007v-0 4.663h-8.333c-2.025 0-3.667-1.642-3.667-3.667 0-0 0-0.001 0-0.001v0-16.667c0-2.025 1.642-3.667 3.667-3.667v0h16.667zM9 10.667c-0.001 0-0.002 0-0.003 0-0.55 0-0.997 0.446-0.997 0.996v8.676c0 0.549 0.448 0.995 1 0.995s1-0.445 1-0.995v-8.677c-0.002-0.55-0.447-0.995-0.997-0.995-0.001 0-0.002 0-0.003 0h0zM18.667 20h-0.667c-1.105 0-2 0.895-2 2v0 2h3.333v-0.333c0-0.552 0.448-1 1-1s1 0.448 1 1v0 0.333h4v-0.333c0-0.552 0.448-1 1-1s1 0.448 1 1v0 0.333h3.333v-2c0-1.105-0.895-2-2-2v0h-0.667v-1.333c0-1.289-1.045-2.333-2.333-2.333v0h-4.667c-1.289 0-2.333 1.045-2.333 2.333v0 1.333zM20.667 18.667c0-0.184 0.149-0.333 0.333-0.333v0h4.667c0.184 0 0.333 0.149 0.333 0.333v0 1.333h-5.333v-1.333zM16 28.667v-2.667h3.333v1c0 0.552 0.448 1 1 1s1-0.448 1-1v0-1h4v1c0 0.552 0.448 1 1 1s1-0.448 1-1v0-1h3.333v2.667c0 1.105-0.895 2-2 2v0h-10.667c-1.105 0-2-0.895-2-2v0z"></path>
</svg>
