<!-- Generated by IcoMoon.io -->
<svg version="1.1" xmlns="http://www.w3.org/2000/svg" width="32" height="32" viewBox="0 0 32 32">
<title>database-search-filled</title>
<path d="M16 13.333c5.891 0 10.667-2.387 10.667-5.333s-4.776-5.333-10.667-5.333-10.667 2.387-10.667 5.333 4.776 5.333 10.667 5.333zM24.437 13.56c0.85-0.422 1.583-0.919 2.24-1.499l-0.011 0.009v4.272c-1.254-1.044-2.882-1.678-4.657-1.678-0.247 0-0.492 0.012-0.733 0.036l0.030-0.002c1.196-0.299 2.238-0.689 3.221-1.179l-0.090 0.041zM14.667 22c0 3.256 2.121 6.016 5.056 6.975l0.052 0.015c-1.173 0.223-2.445 0.344-3.775 0.344-5.891 0-10.667-2.387-10.667-5.333v-11.929c0.646 0.571 1.379 1.067 2.171 1.463l0.059 0.027c2.264 1.131 5.248 1.773 8.437 1.773 1.277 0 2.523-0.103 3.703-0.3-2.95 0.995-5.036 3.737-5.036 6.966 0 0 0 0 0 0.001v-0zM22 28c0.003 0 0.006 0 0.009 0 1.301 0 2.504-0.416 3.485-1.122l-0.018 0.012 3.484 3.483c0.183 0.196 0.443 0.318 0.732 0.318 0.552 0 1-0.448 1-1 0-0.289-0.122-0.549-0.318-0.731l-0.001-0.001-3.483-3.484c0.694-0.966 1.109-2.172 1.109-3.476 0-3.314-2.686-6-6-6s-6 2.686-6 6c0 3.314 2.686 6 6 6v0zM22 26c-2.209 0-4-1.791-4-4s1.791-4 4-4v0c2.209 0 4 1.791 4 4s-1.791 4-4 4v0z"></path>
</svg>
