<!-- Generated by IcoMoon.io -->
<svg version="1.1" xmlns="http://www.w3.org/2000/svg" width="32" height="32" viewBox="0 0 32 32">
<title>decimal-arrow-right-filled</title>
<path d="M13.333 5.333c-2.209 0-4 1.791-4 4v5.333c0 2.209 1.791 4 4 4s4-1.791 4-4v-5.333c0-2.209-1.791-4-4-4zM14.667 14.667c0 0.736-0.597 1.333-1.333 1.333s-1.333-0.597-1.333-1.333v-5.333c0-0.736 0.597-1.333 1.333-1.333s1.333 0.597 1.333 1.333v5.333z"></path>
<path d="M6.667 16.667c0 1.105-0.895 2-2 2s-2-0.895-2-2c0-1.105 0.895-2 2-2s2 0.895 2 2z"></path>
<path d="M25.333 9.333v5.333c0 0.077-0.007 0.153-0.019 0.227 0.891 0.208 1.729 0.554 2.49 1.013 0.127-0.391 0.196-0.807 0.196-1.241v-5.333c0-2.209-1.791-4-4-4s-4 1.791-4 4v5.333c0 0.219 0.018 0.434 0.051 0.643 0.817-0.334 1.696-0.548 2.615-0.618l-0-0.025v-5.333c0-0.736 0.597-1.333 1.333-1.333s1.333 0.597 1.333 1.333z"></path>
<path d="M30.667 23.333c0 4.050-3.283 7.333-7.333 7.333s-7.333-3.283-7.333-7.333c0-4.050 3.283-7.333 7.333-7.333s7.333 3.283 7.333 7.333zM19.333 22.667c-0.368 0-0.667 0.299-0.667 0.667s0.299 0.667 0.667 0.667h6.391l-2.195 2.195c-0.26 0.26-0.26 0.683 0 0.943s0.683 0.26 0.943 0l3.333-3.333c0.26-0.26 0.26-0.683 0-0.943l-3.333-3.333c-0.26-0.26-0.683-0.26-0.943 0s-0.26 0.683 0 0.943l2.195 2.195h-6.391z"></path>
</svg>
