<!-- Generated by IcoMoon.io -->
<svg version="1.1" xmlns="http://www.w3.org/2000/svg" width="32" height="32" viewBox="0 0 32 32">
<title>delete-dismiss-filled</title>
<path d="M22 16c4.050 0 7.333 3.283 7.333 7.333s-3.283 7.333-7.333 7.333c-4.050 0-7.333-3.283-7.333-7.333s3.283-7.333 7.333-7.333zM16 2c2.577 0 4.667 2.089 4.667 4.667h6.667c0.736 0 1.333 0.597 1.333 1.333s-0.597 1.333-1.333 1.333h-1.126l-0.602 6.116c-1.098-0.503-2.319-0.783-3.605-0.783-4.787 0-8.667 3.88-8.667 8.667 0 2.329 0.918 4.443 2.413 6h-4.662c-1.886 0-3.464-1.431-3.649-3.308l-1.642-16.692h-1.126c-0.736 0-1.333-0.597-1.333-1.333s0.597-1.333 1.333-1.333h6.667c0-2.577 2.089-4.667 4.667-4.667zM18.288 19.451l-0.092 0.077-0.077 0.092c-0.157 0.227-0.157 0.531 0 0.758l0.077 0.092 2.862 2.862-2.862 2.862-0.077 0.092c-0.157 0.227-0.157 0.531 0 0.758l0.077 0.092 0.092 0.077c0.227 0.157 0.531 0.157 0.758 0l0.092-0.077 2.862-2.862 2.862 2.862 0.092 0.077c0.227 0.157 0.531 0.157 0.758 0l0.092-0.077 0.077-0.092c0.157-0.227 0.157-0.531 0-0.758l-0.077-0.092-2.862-2.862 2.862-2.862 0.077-0.092c0.157-0.227 0.157-0.531 0-0.758l-0.077-0.092-0.092-0.077c-0.227-0.157-0.531-0.157-0.758 0l-0.092 0.077-2.862 2.862-2.862-2.862-0.092-0.077c-0.195-0.135-0.446-0.154-0.657-0.058l-0.102 0.058zM16 4.667c-1.105 0-2 0.895-2 2h4c0-1.105-0.895-2-2-2z"></path>
</svg>
