<!-- Generated by IcoMoon.io -->
<svg version="1.1" xmlns="http://www.w3.org/2000/svg" width="32" height="32" viewBox="0 0 32 32">
<title>delete-filled</title>
<path d="M28.667 8c0 0.684-0.515 1.247-1.178 1.324l-0.155 0.009h-1.126l-1.642 16.692c-0.185 1.877-1.763 3.308-3.649 3.308h-9.832c-1.886 0-3.464-1.431-3.649-3.308l-1.642-16.692h-1.126c-0.736 0-1.333-0.597-1.333-1.333s0.597-1.333 1.333-1.333h6.667c0-2.577 2.089-4.667 4.667-4.667s4.667 2.089 4.667 4.667h6.667c0.736 0 1.333 0.597 1.333 1.333zM19 12.333c-0.506 0-0.925 0.376-0.991 0.864l-0.009 0.136v9.333l0.009 0.136c0.066 0.488 0.485 0.864 0.991 0.864s0.925-0.376 0.991-0.864l0.009-0.136v-9.333l-0.009-0.136c-0.066-0.488-0.485-0.864-0.991-0.864zM13 12.333c-0.506 0-0.925 0.376-0.991 0.864l-0.009 0.136v9.333l0.009 0.136c0.066 0.488 0.485 0.864 0.991 0.864s0.925-0.376 0.991-0.864l0.009-0.136v-9.333l-0.009-0.136c-0.066-0.488-0.485-0.864-0.991-0.864zM16 4.667c-1.105 0-2 0.895-2 2h4c0-1.105-0.895-2-2-2z"></path>
</svg>
