<!-- Generated by IcoMoon.io -->
<svg version="1.1" xmlns="http://www.w3.org/2000/svg" width="32" height="32" viewBox="0 0 32 32">
<title>delete-dismiss-filled</title>
<path d="M18.857 6.857c0-1.578-1.279-2.857-2.857-2.857s-2.857 1.279-2.857 2.857v0h5.714zM11.429 6.857c0-2.525 2.047-4.571 4.571-4.571s4.571 2.047 4.571 4.571v0h7.143c0.473 0 0.857 0.384 0.857 0.857s-0.384 0.857-0.857 0.857v0h-1.497l-0.581 6.966c-0.99-0.432-2.143-0.684-3.355-0.684-4.734 0-8.571 3.838-8.571 8.571 0 2.483 1.056 4.719 2.743 6.285l0.005 0.005h-4.445c-2.54-0-4.625-1.951-4.839-4.436l-0.001-0.018-1.391-16.689h-1.497c-0.473 0-0.857-0.384-0.857-0.857s0.384-0.857 0.857-0.857v0h7.143zM29.714 23.429c0 4.103-3.326 7.429-7.429 7.429s-7.429-3.326-7.429-7.429v0c0-4.103 3.326-7.429 7.429-7.429s7.429 3.326 7.429 7.429v0zM22.286 22.621l-3.024-3.025c-0.104-0.104-0.247-0.168-0.405-0.168-0.316 0-0.572 0.256-0.572 0.572 0 0.158 0.064 0.301 0.168 0.405l3.025 3.024-3.025 3.024c-0.104 0.104-0.168 0.247-0.168 0.405 0 0.316 0.256 0.572 0.572 0.572 0.158 0 0.301-0.064 0.405-0.168l3.024-3.025 3.024 3.025c0.104 0.104 0.247 0.168 0.405 0.168 0.316 0 0.572-0.256 0.572-0.572 0-0.158-0.064-0.301-0.168-0.405l-3.025-3.024 3.025-3.024c0.104-0.104 0.168-0.247 0.168-0.405 0-0.316-0.256-0.572-0.572-0.572-0.158 0-0.301 0.064-0.405 0.168l-3.024 3.025z"></path>
</svg>
