<!-- Generated by IcoMoon.io -->
<svg version="1.1" xmlns="http://www.w3.org/2000/svg" width="32" height="32" viewBox="0 0 32 32">
<title>dentist-filled</title>
<path d="M14.18 5.485c-1.552-1.443-3.421-1.653-5.054-1.295-1.605 0.351-3.047 1.257-3.912 2.173-1.067 1.129-2.069 2.575-2.153 4.665v0.005c-0.036 1.029 0.098 2.548 0.917 3.677l0.092 0.128c0.823 1.14 1.31 1.815 1.551 2.491l0.002 0.005c0.276 0.756 0.283 1.509 0.293 2.577l0.003 0.287c0.015 1.48 0.437 3.856 1.569 5.591 0.547 0.839 1.297 1.582 2.3 1.955l0.039 0.015 0.040 0.010c0.798 0.211 1.553 0.167 2.165-0.285 0.571-0.422 0.848-1.081 1.009-1.695 0.163-0.627 0.242-1.362 0.304-2.089 0.018-0.213 0.035-0.425 0.051-0.638 0.043-0.54 0.085-1.081 0.151-1.628 0.055-0.476 0.121-0.88 0.205-1.277l-0.016 0.091c0.233-1.115 0.501-1.761 0.759-2.145 0.228-0.34 0.458-0.489 0.713-0.581 0.757-0.191 1.236-0.093 1.561 0.092 0.349 0.198 0.653 0.568 0.905 1.143 0.518 1.184 0.665 2.857 0.789 4.367v0.002c0.127 1.503 0.443 2.874 1.035 3.757 0.305 0.455 0.736 0.859 1.325 1.001 0.601 0.145 1.191-0.025 1.714-0.36l0.001-0.001c1.913-1.23 3.018-3.858 3.32-7.207 0.127-1.419 0.293-2.17 0.553-2.829 0.211-0.533 0.485-1.015 0.902-1.748l0.001-0.001c0.127-0.225 0.269-0.473 0.427-0.754 0.429-0.763 1.121-2.139 1.198-3.745 0.080-1.665-0.506-3.501-2.482-5.086-1.887-1.529-3.64-2.085-5.205-2.001-1.552 0.083-2.795 0.787-3.682 1.552l-0.021 0.018-0.019 0.019c-0.871 0.855-1.281 1.017-1.555 1.005-0.307-0.013-0.791-0.252-1.77-1.237l-0.011-0.012-0.013-0.011zM15.208 17.521l-0.031 0.008 0.059-0.017c-0.021 0.007-0.030 0.010-0.039 0.013l0.012-0.004zM21.106 8.163c1.793 0 3.415 1.564 3.59 3.484 0.002 0.023 0.003 0.049 0.003 0.076 0 0.46-0.373 0.833-0.833 0.833-0.434 0-0.79-0.331-0.83-0.754l-0-0.003c-0.105-1.147-1.082-1.969-1.93-1.969-0.46 0-0.833-0.373-0.833-0.833s0.373-0.833 0.833-0.833v0z"></path>
</svg>
