<!-- Generated by IcoMoon.io -->
<svg version="1.1" xmlns="http://www.w3.org/2000/svg" width="32" height="32" viewBox="0 0 32 32">
<title>dentist-filled</title>
<path d="M5.806 5.849c1.333-1.113 3.052-1.849 4.527-1.849 1.158 0 2.069 0.184 2.81 0.494 0.746 0.312 1.269 0.73 1.672 1.124 0.176 0.172 0.333 0.343 0.463 0.485l0.040 0.044c0.146 0.159 0.25 0.269 0.347 0.356 0.165 0.147 0.239 0.164 0.334 0.164s0.169-0.017 0.334-0.164c0.097-0.087 0.201-0.197 0.347-0.356l0.040-0.044c0.13-0.141 0.287-0.313 0.463-0.485 0.403-0.394 0.926-0.812 1.673-1.124 0.741-0.31 1.651-0.494 2.81-0.494 1.475 0 3.194 0.737 4.527 1.849 1.342 1.12 2.473 2.775 2.473 4.748 0 1.038-0.003 3.074-1.831 5.251-0.493 0.781-0.832 1.7-0.836 2.491-0.014 2.568-0.583 4.738-1.443 6.3-0.822 1.492-2.076 2.694-3.557 2.694-0.477 0-0.922-0.134-1.301-0.415-0.364-0.27-0.606-0.63-0.773-0.987-0.319-0.682-0.458-1.564-0.558-2.403-0.042-0.349-0.078-0.705-0.115-1.064-0.153-1.478-0.312-3.013-0.836-4.394-0.248-0.477-0.675-0.738-1.084-0.738h-0.667c-0.419 0-0.857 0.274-1.102 0.773-0.725 1.481-0.815 3.15-0.901 4.753-0.011 0.209-0.022 0.418-0.035 0.625-0.050 0.82-0.127 1.728-0.441 2.435-0.168 0.379-0.426 0.753-0.827 1.025-0.405 0.275-0.872 0.389-1.362 0.389-1.652 0-2.918-1.162-3.72-2.719-0.81-1.574-1.267-3.743-1.28-6.276-0.004-0.709-0.276-1.527-0.699-2.263-0.074-0.129-0.179-0.258-0.35-0.461-1.619-1.921-1.618-4.040-1.618-4.993v-0.024c0-1.973 1.131-3.628 2.473-4.748zM21 8c-0.552 0-1 0.448-1 1s0.448 1 1 1c0.953 0 1.667 0.714 1.667 1.667 0 0.552 0.448 1 1 1s1-0.448 1-1c0-2.057-1.61-3.667-3.667-3.667z"></path>
</svg>
