<!-- Generated by IcoMoon.io -->
<svg version="1.1" xmlns="http://www.w3.org/2000/svg" width="32" height="32" viewBox="0 0 32 32">
<title>design-ideas-filled</title>
<path d="M7.433 2.765c0.346 0.167 0.567 0.517 0.567 0.901 0 1.106 0.416 1.744 0.938 2.519l0.038 0.056c0.443 0.659 1.025 1.522 1.025 2.758 0 1.261-0.636 2.373-1.605 3.033 0.255 0.214 0.481 0.477 0.675 0.791 0.634 1.027 0.93 2.595 0.93 4.849 0 2.283-0.307 5.024-0.806 7.213-0.248 1.088-0.556 2.092-0.924 2.847-0.182 0.374-0.404 0.74-0.681 1.025-0.273 0.283-0.696 0.582-1.256 0.582s-0.983-0.299-1.256-0.582c-0.276-0.286-0.498-0.651-0.681-1.025-0.368-0.755-0.675-1.758-0.924-2.847-0.499-2.189-0.806-4.93-0.806-7.213 0-2.254 0.296-3.823 0.93-4.849 0.194-0.314 0.42-0.578 0.675-0.791-0.969-0.66-1.605-1.772-1.605-3.033 0-0.491 0-1.335 0.511-2.424 0.5-1.066 1.45-2.292 3.197-3.69 0.3-0.24 0.711-0.287 1.058-0.12z"></path>
<path d="M13.333 19.889c-0.718-0.12-1.403-0.336-2.043-0.634 0.028-0.542 0.043-1.072 0.043-1.582 0-0.541-0.016-1.059-0.051-1.551 0.591 0.486 1.288 0.847 2.051 1.043v-3.165c0-1.105 0.895-2 2-2h4.667c0-2.946-2.388-5.333-5.333-5.333-1.314 0-2.517 0.475-3.446 1.263-0.232-1.085-0.768-1.88-1.11-2.389l-0.054-0.080c1.303-0.92 2.893-1.461 4.61-1.461 4.418 0 8 3.582 8 8h4.667c1.105 0 2 0.895 2 2v12c0 1.105-0.895 2-2 2h-12c-1.105 0-2-0.895-2-2v-6.111zM16 19.889v5.444h10.667v-10.667h-4.455c-0.955 2.702-3.32 4.738-6.211 5.223zM19.286 14.667h-3.287v2.499c1.401-0.361 2.579-1.276 3.287-2.499z"></path>
</svg>
