<!-- Generated by IcoMoon.io -->
<svg version="1.1" xmlns="http://www.w3.org/2000/svg" width="32" height="32" viewBox="0 0 32 32">
<title>design-ideas-filled</title>
<path d="M7.433 2.765c0.338 0.165 0.567 0.507 0.567 0.901 0 0 0 0 0 0v0c0 1.107 0.416 1.744 0.937 2.52l0.039 0.056c0.443 0.659 1.024 1.521 1.024 2.757 0 1.261-0.636 2.373-1.605 3.033 0.255 0.213 0.48 0.476 0.675 0.791 0.635 1.027 0.931 2.596 0.931 4.849 0 2.283-0.307 5.024-0.807 7.213-0.248 1.088-0.556 2.092-0.923 2.845-0.184 0.394-0.412 0.732-0.683 1.030l0.003-0.003c-0.275 0.281-0.697 0.581-1.257 0.581s-0.983-0.3-1.256-0.581c-0.269-0.294-0.497-0.633-0.67-1.002l-0.010-0.024c-0.368-0.755-0.676-1.757-0.924-2.847-0.496-2.161-0.789-4.648-0.807-7.201l-0-0.013c0-2.253 0.296-3.821 0.931-4.848 0.187-0.305 0.411-0.566 0.67-0.787l0.005-0.004c-0.974-0.668-1.605-1.776-1.605-3.030 0-0.001 0-0.002 0-0.003v0c0-0.491 0-1.335 0.511-2.424 0.5-1.067 1.451-2.292 3.197-3.691 0.17-0.136 0.387-0.219 0.625-0.219 0.158 0 0.307 0.037 0.44 0.102l-0.006-0.003zM13.333 19.889c-0.766-0.131-1.452-0.352-2.091-0.655l0.048 0.021c0.028-0.541 0.043-1.072 0.043-1.581 0-0.541-0.016-1.059-0.051-1.552 0.591 0.487 1.288 0.848 2.051 1.044v-3.165c0-1.105 0.895-2 2-2v0h4.667c0-0 0-0 0-0.001 0-2.946-2.388-5.333-5.333-5.333-1.318 0-2.524 0.478-3.454 1.27l0.008-0.006c-0.231-1.085-0.767-1.88-1.109-2.388l-0.053-0.080c1.283-0.914 2.882-1.461 4.609-1.461 4.418 0 8 3.582 8 8v0h4.667c1.105 0 2 0.895 2 2v0 12c0 1.105-0.895 2-2 2v0h-12c-1.105 0-2-0.895-2-2v0-6.111zM16 19.889v5.444h10.667v-10.667h-4.455c-0.982 2.715-3.315 4.719-6.165 5.216l-0.048 0.007zM19.287 14.667h-3.287v2.499c1.413-0.374 2.57-1.275 3.273-2.473l0.014-0.025z"></path>
</svg>
