<!-- Generated by IcoMoon.io -->
<svg version="1.1" xmlns="http://www.w3.org/2000/svg" width="32" height="32" viewBox="0 0 32 32">
<title>desktop-speaker-off-filled</title>
<path d="M4.374 2.96c-0.391-0.391-1.024-0.391-1.414-0s-0.391 1.024-0 1.414l0.545 0.545c-0.519 0.539-0.838 1.272-0.838 2.080v14.003l0.007 0.205c0.106 1.561 1.405 2.795 2.993 2.795l5.665-0v3.331l-2.332 0.001-0.136 0.009c-0.488 0.066-0.864 0.485-0.864 0.991 0 0.552 0.448 1 1 1h11.909c-0.339-0.117-0.663-0.32-0.944-0.619l-1.299-1.386v0.005h-5.333l-0.001-3.331h1.336v-2.669c0-0.736 0.597-1.333 1.333-1.333h2.045l0.262-0.279 1.058 1.058-0.485 0.554h-1.88c-0.552 0-1 0.448-1 1v2c0 0.552 0.448 1 1 1h1.88l2.035 2.325c0.274 0.313 0.714 0.424 1.104 0.278s0.648-0.52 0.648-0.936v-2.919l4.959 4.959c0.391 0.391 1.024 0.391 1.414 0s0.391-1.024 0-1.414l-24.666-24.667z"></path>
<path d="M27.328 23.086l-3.215-3.215c0.025-0.047 0.054-0.093 0.087-0.137 0.331-0.442 0.958-0.531 1.4-0.2 0.251 0.188 0.58 0.517 0.899 0.995 0.481 0.722 0.785 1.578 0.829 2.557z"></path>
<path d="M30.251 26.009l-1.657-1.657c0.048-0.324 0.073-0.664 0.073-1.018 0-1.269-0.322-2.343-0.857-3.236-0.312-0.521-0.613-0.855-0.783-0.996-0.424-0.353-0.482-0.984-0.128-1.408s0.984-0.482 1.408-0.128c0.331 0.276 0.78 0.775 1.217 1.504 0.715 1.191 1.142 2.617 1.142 4.265 0 0.969-0.148 1.862-0.416 2.675z"></path>
<path d="M21.46 17.217l-13.218-13.218h18.090c1.588 0 2.888 1.234 2.993 2.795l0.007 0.205v9.692c-0.058-0.053-0.115-0.104-0.171-0.15-0.99-0.825-2.461-0.691-3.286 0.299-0.293 0.352-0.465 0.764-0.521 1.187-0.572-0.087-1.163 0.041-1.65 0.366-0.451-0.796-1.351-1.249-2.244-1.175z"></path>
</svg>
