<!-- Generated by IcoMoon.io -->
<svg version="1.1" xmlns="http://www.w3.org/2000/svg" width="32" height="32" viewBox="0 0 32 32">
<title>desktop-speaker-filled</title>
<path d="M8 28.334c0 0.552 0.448 1 1 1h11.909c-0.339-0.117-0.663-0.32-0.944-0.619l-1.299-1.386v0.005h-5.333l-0.001-3.331h1.336v-2.669c0-0.736 0.597-1.333 1.333-1.333h2.045l1.92-2.048c1.149-1.225 3.018-0.832 3.739 0.441 0.487-0.325 1.078-0.453 1.65-0.366 0.056-0.423 0.228-0.835 0.521-1.187 0.825-0.99 2.296-1.124 3.286-0.299 0.056 0.047 0.113 0.097 0.171 0.15v-9.692l-0.007-0.205c-0.105-1.561-1.405-2.795-2.993-2.795l-20.87 0.007c-1.561 0.106-2.795 1.405-2.795 2.993v14.003l0.007 0.205c0.106 1.561 1.405 2.795 2.993 2.795l5.665-0v3.331l-2.332 0.001-0.136 0.009c-0.488 0.066-0.864 0.485-0.864 0.991z"></path>
<path d="M29.524 19.069c-0.438-0.729-0.887-1.228-1.217-1.504-0.424-0.353-1.055-0.296-1.408 0.128s-0.296 1.055 0.128 1.408c0.169 0.141 0.47 0.475 0.783 0.996 0.535 0.892 0.857 1.966 0.857 3.235s-0.322 2.343-0.857 3.235c-0.312 0.521-0.613 0.855-0.783 0.996-0.424 0.354-0.482 0.984-0.128 1.408s0.984 0.482 1.408 0.128c0.331-0.276 0.78-0.775 1.217-1.504 0.715-1.191 1.142-2.617 1.142-4.265s-0.428-3.073-1.142-4.265z"></path>
<path d="M26.499 20.529c-0.319-0.478-0.647-0.807-0.899-0.995-0.442-0.331-1.069-0.242-1.4 0.2s-0.242 1.069 0.2 1.4c0.082 0.061 0.253 0.233 0.435 0.505 0.312 0.468 0.499 1.028 0.499 1.695s-0.187 1.227-0.499 1.695c-0.181 0.272-0.353 0.443-0.435 0.505l-0.112 0.097c-0.343 0.347-0.39 0.901-0.088 1.303 0.331 0.442 0.958 0.531 1.4 0.2 0.251-0.189 0.58-0.517 0.899-0.995 0.521-0.782 0.835-1.722 0.835-2.805s-0.313-2.023-0.835-2.805z"></path>
<path d="M22.667 19.667c0-0.417-0.258-0.79-0.648-0.936s-0.83-0.036-1.104 0.278l-2.035 2.325h-1.88c-0.552 0-1 0.448-1 1v2c0 0.552 0.448 1 1 1h1.88l2.035 2.325c0.274 0.313 0.714 0.424 1.104 0.278s0.648-0.519 0.648-0.936v-7.333z"></path>
</svg>
