<!-- Generated by IcoMoon.io -->
<svg version="1.1" xmlns="http://www.w3.org/2000/svg" width="32" height="32" viewBox="0 0 32 32">
<title>desktop-flow-filled</title>
<path d="M22 5.001c0-0.358 0.081-0.697 0.225-1.001l-16.763 0.007c-1.561 0.106-2.795 1.405-2.795 2.993v14.003l0.007 0.205c0.106 1.561 1.405 2.795 2.993 2.795l5.665-0v3.331l-2.332 0.001-0.136 0.009c-0.488 0.066-0.864 0.485-0.864 0.991 0 0.552 0.448 1 1 1l14.136-0.009c0.488-0.066 0.864-0.485 0.864-0.991 0-0.552-0.448-1-1-1l-2.335-0.001v-3.331l5.666 0 0.205-0.007c1.561-0.106 2.795-1.405 2.795-2.993v-8.336h-4.999c-0.56 0-1.074-0.197-1.476-0.526l-0.586 1.758c-0.526 1.578-1.96 2.666-3.605 2.761v1.007c0 1.289-1.045 2.333-2.333 2.333h-5.333c-1.289 0-2.333-1.045-2.333-2.333v-5.333c0-1.289 1.045-2.333 2.333-2.333h5.333c0.823 0 1.547 0.426 1.962 1.070l0.767-2.302c0.453-1.36 1.581-2.356 2.937-2.666v-1.102zM18.664 24.003l0.001 3.331h-5.333l-0.001-3.331h5.333zM24.333 4c-0.552 0-1 0.448-1 1v2.333h-0.431c-1.168 0-2.206 0.748-2.575 1.856l-1.219 3.656c-0.097 0.292-0.37 0.488-0.678 0.488h-1.098v-1c0-0.552-0.448-1-1-1h-5.333c-0.552 0-1 0.448-1 1v5.333c0 0.552 0.448 1 1 1h5.333c0.552 0 1-0.448 1-1v-2.333h1.098c1.168 0 2.206-0.748 2.575-1.856l1.219-3.656c0.097-0.292 0.37-0.488 0.678-0.488h0.431v1c0 0.552 0.448 1 1 1h5.333c0.552 0 1-0.448 1-1v-5.333c0-0.552-0.448-1-1-1h-5.333z"></path>
</svg>
