<!-- Generated by IcoMoon.io -->
<svg version="1.1" xmlns="http://www.w3.org/2000/svg" width="32" height="32" viewBox="0 0 32 32">
<title>desktop-checkmark-filled</title>
<path d="M30.667 8.667c0 4.050-3.283 7.333-7.333 7.333s-7.333-3.283-7.333-7.333v0c0-4.050 3.283-7.333 7.333-7.333s7.333 3.283 7.333 7.333v0zM27.805 5.528c-0.121-0.121-0.288-0.196-0.472-0.196s-0.351 0.075-0.472 0.196v0l-4.861 4.863-2.195-2.196c-0.121-0.121-0.288-0.196-0.472-0.196-0.369 0-0.668 0.299-0.668 0.667 0 0.184 0.075 0.351 0.195 0.472v0l2.667 2.667c0.121 0.121 0.288 0.196 0.472 0.196s0.351-0.075 0.472-0.196v0l5.333-5.333c0.121-0.121 0.196-0.288 0.196-0.472s-0.075-0.351-0.196-0.472v0zM23.333 17.333c0.003 0 0.007 0 0.011 0 2.326 0 4.437-0.919 5.99-2.415l-0.003 0.003v6.080c0 0 0 0.001 0 0.002 0 1.585-1.229 2.882-2.785 2.992l-0.010 0.001-0.205 0.007h-5.667v3.331h2.335c0.552 0 1 0.448 1 1 0 0.504-0.373 0.921-0.858 0.99l-0.005 0.001-0.136 0.009h-14c-0.552-0-1-0.448-1-1 0-0.504 0.373-0.921 0.858-0.99l0.005-0.001 0.136-0.009h2.332v-3.331h-5.665c-0 0-0 0-0 0-1.585 0-2.882-1.229-2.992-2.785l-0.001-0.010-0.007-0.205v-14.003c0-0 0-0 0-0 0-1.585 1.229-2.882 2.785-2.992l0.010-0.001 0.205-0.007h10.363c-0.855 1.32-1.364 2.934-1.364 4.667 0 4.786 3.88 8.667 8.667 8.667 0 0 0.001 0 0.001 0h-0zM18.664 24.003h-5.333l0.001 3.331h5.333l-0.001-3.331z"></path>
</svg>
