<!-- Generated by IcoMoon.io -->
<svg version="1.1" xmlns="http://www.w3.org/2000/svg" width="32" height="32" viewBox="0 0 32 32">
<title>desktop-pulse-filled</title>
<path d="M8 28.333c0 0.552 0.448 1 1 1l14.136-0.009c0.488-0.066 0.864-0.485 0.864-0.991 0-0.552-0.448-1-1-1l-2.335-0.001v-3.331l5.666 0 0.205-0.007c1.561-0.105 2.795-1.405 2.795-2.993v-3.669h-6.665c-0.761 0-1.475-0.371-1.912-0.995l-0.256-0.366-2.49 4.215c-0.452 0.766-1.301 1.207-2.187 1.139s-1.658-0.634-1.988-1.46l-1.957-4.893-0.441 0.983c-0.376 0.838-1.21 1.378-2.129 1.378h-6.64v3.669l0.007 0.205c0.106 1.561 1.405 2.795 2.993 2.795l5.665-0v3.331l-2.332 0.001-0.136 0.009c-0.488 0.066-0.864 0.485-0.864 0.991zM13.331 24.002h5.333l0.001 3.331h-5.333l-0.001-3.331zM29.332 7v5.667h-5.45l-1.637-2.338c-0.455-0.65-1.209-1.024-2.001-0.994s-1.515 0.462-1.919 1.145l-1.92 3.249-2.238-5.595c-0.348-0.87-1.182-1.447-2.118-1.466s-1.793 0.523-2.177 1.377l-2.075 4.622h-5.13v-5.667c0-1.588 1.234-2.887 2.795-2.993l0.205-0.007h20.665c1.588 0 2.888 1.234 2.993 2.795l0.007 0.205zM12.928 8.629c-0.149-0.373-0.506-0.62-0.908-0.628s-0.769 0.224-0.933 0.59l-2.429 5.41h-4.992c-0.552 0-1 0.448-1 1s0.448 1 1 1h5.64c0.394 0 0.751-0.231 0.912-0.591l1.728-3.85 3.125 7.811c0.142 0.354 0.472 0.596 0.852 0.626s0.744-0.16 0.937-0.488l3.543-5.997 1.443 2.061c0.187 0.267 0.493 0.427 0.819 0.427h5.667c0.552 0 1-0.448 1-1s-0.448-1-1-1h-5.146l-2.035-2.907c-0.195-0.278-0.518-0.439-0.858-0.426s-0.649 0.198-0.822 0.491l-3.299 5.583-3.245-8.112z"></path>
</svg>
