<!-- Generated by IcoMoon.io -->
<svg version="1.1" xmlns="http://www.w3.org/2000/svg" width="32" height="32" viewBox="0 0 32 32">
<title>desktop-speaker-off-filled</title>
<path d="M4.373 2.96c-0.183-0.196-0.443-0.318-0.732-0.318-0.552 0-1 0.448-1 1 0 0.289 0.122 0.549 0.318 0.731l0.001 0.001 0.545 0.547c-0.52 0.537-0.839 1.271-0.839 2.080v14.003l0.007 0.205c0.111 1.566 1.408 2.795 2.993 2.795 0 0 0 0 0 0h5.665v3.331h-2.332l-0.136 0.009c-0.491 0.069-0.864 0.486-0.864 0.991 0 0.552 0.448 1 1 1h11.908c-0.373-0.133-0.69-0.345-0.943-0.617l-0.001-0.002-1.297-1.387v0.005h-5.333l-0.001-3.331h1.335v-2.669c0-0.736 0.597-1.333 1.333-1.333v0h2.044l0.263-0.28 1.057 1.059-0.484 0.555h-1.88c-0.552 0-1 0.448-1 1v0 2c0 0.552 0.448 1 1 1h1.88l2.035 2.325c0.184 0.209 0.453 0.341 0.752 0.341 0.552 0 1-0.447 1-0.999v-2.919l4.96 4.96c0.18 0.174 0.424 0.28 0.694 0.28 0.552 0 1-0.448 1-1 0-0.27-0.107-0.515-0.281-0.695l0 0-24.667-24.667zM27.328 23.085l-3.215-3.213c0.171-0.322 0.503-0.537 0.887-0.537 0.226 0 0.435 0.075 0.603 0.202l-0.003-0.002c0.252 0.187 0.58 0.516 0.899 0.993 0.481 0.723 0.785 1.579 0.829 2.557zM30.251 26.009l-1.657-1.657c0.048-0.325 0.073-0.664 0.073-1.019 0-1.269-0.323-2.344-0.857-3.236-0.312-0.52-0.613-0.855-0.783-0.996-0.231-0.185-0.378-0.467-0.378-0.783 0-0.552 0.448-1 1-1 0.253 0 0.484 0.094 0.66 0.248l-0.001-0.001c0.331 0.276 0.78 0.773 1.217 1.504 0.715 1.191 1.143 2.616 1.143 4.264 0 0.014 0 0.030 0 0.046 0 0.94-0.152 1.845-0.433 2.69l0.017-0.060zM21.46 17.217l-13.217-13.217h18.089c0 0 0 0 0 0 1.584 0 2.881 1.228 2.992 2.784l0.001 0.010 0.007 0.207v9.691c-0.051-0.047-0.107-0.096-0.165-0.143l-0.007-0.006c-0.402-0.336-0.924-0.541-1.494-0.541-1.18 0-2.156 0.876-2.312 2.014l-0.001 0.012c-0.106-0.017-0.229-0.027-0.354-0.027-0.483 0-0.933 0.146-1.306 0.397l0.008-0.005c-0.419-0.712-1.182-1.182-2.054-1.182-0.066 0-0.132 0.003-0.197 0.008l0.009-0.001zM22.4 29.333h0.6z"></path>
</svg>
