<!-- Generated by IcoMoon.io -->
<svg version="1.1" xmlns="http://www.w3.org/2000/svg" width="32" height="32" viewBox="0 0 32 32">
<title>desktop-edit-filled</title>
<path d="M25.467 2.227l-7.871 7.869c-0.446 0.446-0.774 1.008-0.936 1.638l-0.005 0.025-0.611 2.441c-0.027 0.106-0.043 0.227-0.043 0.352 0 0.8 0.649 1.449 1.449 1.449 0.125 0 0.247-0.016 0.363-0.046l-0.010 0.002 2.44-0.609c0.655-0.167 1.218-0.496 1.664-0.943l7.869-7.869c0.532-0.548 0.86-1.297 0.86-2.122 0-1.683-1.365-3.048-3.048-3.048-0.825 0-1.573 0.328-2.122 0.86l0.001-0.001zM16.653 9.153l5.153-5.153-16.345 0.007c-1.566 0.111-2.795 1.408-2.795 2.993 0 0 0 0 0 0v-0 14.003l0.007 0.205c0.111 1.566 1.408 2.795 2.993 2.795 0 0 0 0 0 0h5.665v3.331h-2.332l-0.136 0.009c-0.491 0.069-0.864 0.486-0.864 0.991 0 0.552 0.448 1 1 1l14.136-0.009c0.491-0.069 0.864-0.486 0.864-0.991 0-0.552-0.448-1-1-1h-2.335v-3.331h5.667l0.205-0.007c1.566-0.111 2.795-1.408 2.795-2.993 0-0 0-0 0-0v0-12.136l-6.483 6.481c-0.612 0.612-1.384 1.064-2.249 1.286l-0.034 0.007-2.44 0.609c-2.040 0.511-3.885-1.336-3.376-3.373l0.611-2.441c0.216-0.864 0.663-1.653 1.293-2.283zM18.664 24l0.001 3.332h-5.333l-0.001-3.331h5.333z"></path>
</svg>
