<!-- Generated by IcoMoon.io -->
<svg version="1.1" xmlns="http://www.w3.org/2000/svg" width="32" height="32" viewBox="0 0 32 32">
<title>desktop-filled</title>
<path d="M2 6.25c0-1.795 1.455-3.25 3.25-3.25v0h21.5c1.795 0 3.25 1.455 3.25 3.25v0 15.5c0 1.795-1.455 3.25-3.25 3.25v0h-6.744v2.001h2.998c0.009-0 0.020-0 0.032-0 0.552 0 1 0.448 1 1s-0.448 1-1 1c-0.011 0-0.022-0-0.033-0.001l0.002 0h-13.992c-0.009 0-0.021 0-0.032 0-0.552 0-1-0.448-1-1s0.448-1 1-1c0.011 0 0.022 0 0.033 0.001l-0.002-0h2.998v-2.001h-6.76c-1.795 0-3.25-1.455-3.25-3.25v0-15.5zM14.010 25v2.001h3.996v-2.001h-3.996z"></path>
</svg>
