<!-- Generated by IcoMoon.io -->
<svg version="1.1" xmlns="http://www.w3.org/2000/svg" width="32" height="32" viewBox="0 0 32 32">
<title>desktop-signal-filled</title>
<path d="M20 2c-0.245 0-0.489 0.008-0.731 0.023-0.524 0.035-0.936 0.468-0.936 0.998 0 0.552 0.448 1 1 1 0.023 0 0.045-0.001 0.067-0.002l-0.003 0c0.18-0.012 0.391-0.020 0.604-0.020 5.155 0 9.333 4.179 9.333 9.333 0 0.212-0.007 0.423-0.021 0.632l0.002-0.028c-0.001 0.019-0.002 0.041-0.002 0.064 0 0.552 0.448 1 1 1 0.53 0 0.963-0.412 0.998-0.933l0-0.003c0.015-0.219 0.024-0.474 0.024-0.731 0-6.259-5.074-11.333-11.333-11.333-0 0-0.001 0-0.001 0h0zM20 5.333c-0.256 0-0.511 0.013-0.76 0.036-0.499 0.061-0.882 0.482-0.882 0.993 0 0.552 0.448 1 1 1 0.024 0 0.048-0.001 0.072-0.003l-0.003 0c0.172-0.018 0.372-0.028 0.574-0.028 3.314 0 6 2.686 6 6 0 0.202-0.010 0.402-0.030 0.599l0.002-0.025c-0.002 0.021-0.002 0.045-0.002 0.069 0 0.552 0.448 1 1 1 0.511 0 0.932-0.383 0.993-0.877l0-0.005c0.023-0.228 0.036-0.492 0.036-0.76 0-4.418-3.582-8-8-8-0 0-0 0-0 0v0zM20 8.667c-0.288 0-0.572 0.027-0.848 0.077-0.459 0.097-0.799 0.498-0.799 0.98 0 0.552 0.448 1 1 1 0.057 0 0.112-0.005 0.166-0.014l-0.006 0.001c0.146-0.028 0.314-0.045 0.486-0.045 1.473 0 2.667 1.194 2.667 2.667 0 0.172-0.016 0.341-0.048 0.504l0.003-0.017c-0.010 0.054-0.016 0.116-0.016 0.18 0 0.552 0.448 1 1 1 0.489 0 0.896-0.351 0.983-0.814l0.001-0.006c0.049-0.255 0.077-0.547 0.077-0.847 0-2.577-2.089-4.667-4.667-4.667-0 0-0 0-0 0v0zM17.213 4l-11.752 0.007c-1.566 0.111-2.795 1.408-2.795 2.993 0 0 0 0 0 0v-0 14.003l0.007 0.205c0.111 1.566 1.408 2.795 2.993 2.795 0 0 0 0 0 0h5.665v3.331h-2.332l-0.136 0.009c-0.491 0.069-0.864 0.486-0.864 0.991 0 0.552 0.448 1 1 1l14.136-0.008c0.495-0.065 0.874-0.484 0.874-0.992 0-0.552-0.448-1-1-1-0.004 0-0.007 0-0.011 0h-2.334v-3.331h5.667l0.205-0.007c1.566-0.111 2.795-1.408 2.795-2.993 0-0 0-0 0-0v0-4.883c-0.269-0.126-0.498-0.291-0.691-0.49l-0.001-0.001c-0.424 0.436-1.016 0.707-1.671 0.707-0.66 0-1.256-0.274-1.68-0.716l-0.001-0.001c-0.425 0.443-1.021 0.718-1.682 0.718-0.773 0-1.459-0.377-1.883-0.956l-0.005-0.007c-0.46 0.389-1.061 0.626-1.717 0.626-1.473 0-2.667-1.194-2.667-2.667 0-0.656 0.237-1.256 0.629-1.721l-0.003 0.004c-0.586-0.429-0.963-1.114-0.963-1.888 0-0.66 0.274-1.257 0.715-1.681l0.001-0.001c-0.443-0.424-0.718-1.021-0.718-1.681 0-0.656 0.271-1.248 0.708-1.672l0.001-0.001c-0.2-0.195-0.365-0.424-0.485-0.679l-0.006-0.014zM13.332 24.003h5.333l0.001 3.331h-5.333l-0.001-3.331zM21.333 13.333c0 0.736-0.597 1.333-1.333 1.333s-1.333-0.597-1.333-1.333v0c0-0.736 0.597-1.333 1.333-1.333s1.333 0.597 1.333 1.333v0z"></path>
</svg>
