<!-- Generated by IcoMoon.io -->
<svg version="1.1" xmlns="http://www.w3.org/2000/svg" width="32" height="32" viewBox="0 0 32 32">
<title>desktop-filled</title>
<path d="M9 29.334c-0.552 0-1-0.448-1-1 0-0.506 0.376-0.925 0.864-0.991l0.136-0.009 2.332-0.001v-3.331l-5.665 0c-1.588 0-2.888-1.234-2.993-2.795l-0.007-0.205v-14.003c0-1.588 1.234-2.888 2.795-2.993l0.205-0.007h20.665c1.588 0 2.888 1.234 2.993 2.795l0.007 0.205v14.003c0 1.588-1.233 2.887-2.795 2.993l-0.205 0.007-5.666-0v3.331l2.335 0.001c0.552 0 1 0.448 1 1 0 0.506-0.376 0.925-0.864 0.991l-0.136 0.009h-14zM18.664 24.003h-5.333l0.001 3.331h5.333l-0.001-3.331z"></path>
</svg>
