<!-- Generated by IcoMoon.io -->
<svg version="1.1" xmlns="http://www.w3.org/2000/svg" width="32" height="32" viewBox="0 0 32 32">
<title>desktop-signal-filled</title>
<path d="M20 2c-0.245 0-0.489 0.008-0.73 0.023-0.551 0.035-0.969 0.51-0.934 1.062s0.51 0.97 1.062 0.934c0.199-0.013 0.4-0.019 0.603-0.019 5.155 0 9.333 4.179 9.333 9.333 0 0.203-0.006 0.404-0.019 0.603-0.035 0.551 0.383 1.027 0.935 1.062s1.026-0.383 1.061-0.934c0.015-0.242 0.023-0.485 0.023-0.73 0-6.259-5.074-11.333-11.333-11.333zM20 5.333c-0.256 0-0.51 0.012-0.761 0.036-0.55 0.052-0.953 0.54-0.902 1.090s0.54 0.953 1.090 0.901c0.188-0.018 0.379-0.027 0.573-0.027 3.314 0 6 2.686 6 6 0 0.193-0.009 0.384-0.027 0.573-0.052 0.55 0.352 1.038 0.902 1.090s1.038-0.352 1.090-0.902c0.024-0.251 0.036-0.504 0.036-0.761 0-4.418-3.582-8-8-8zM20 8.667c-0.289 0-0.572 0.026-0.847 0.077-0.543 0.1-0.903 0.621-0.803 1.164s0.621 0.903 1.164 0.803c0.157-0.029 0.319-0.044 0.486-0.044 1.473 0 2.667 1.194 2.667 2.667 0 0.167-0.015 0.329-0.044 0.486-0.1 0.543 0.26 1.064 0.803 1.164s1.064-0.26 1.164-0.803c0.051-0.275 0.077-0.559 0.077-0.847 0-2.577-2.089-4.667-4.667-4.667zM17.214 4l-11.753 0.007c-1.561 0.106-2.795 1.405-2.795 2.993v14.003l0.007 0.205c0.106 1.561 1.405 2.795 2.993 2.795l5.665-0v3.331l-2.332 0.001-0.136 0.009c-0.488 0.066-0.864 0.485-0.864 0.991 0 0.552 0.448 1 1 1l14.136-0.009c0.488-0.066 0.864-0.485 0.864-0.991 0-0.552-0.448-1-1-1l-2.335-0.001v-3.331l5.666 0 0.205-0.007c1.561-0.106 2.795-1.405 2.795-2.993v-4.884c-0.261-0.121-0.494-0.288-0.691-0.49-0.476 0.488-1.16 0.764-1.891 0.695-0.579-0.055-1.088-0.316-1.462-0.705-0.525 0.544-1.304 0.824-2.103 0.677-0.613-0.113-1.126-0.455-1.466-0.923-0.464 0.392-1.064 0.628-1.719 0.628-1.473 0-2.667-1.194-2.667-2.667 0-0.655 0.236-1.255 0.628-1.719-0.467-0.34-0.81-0.853-0.923-1.466-0.147-0.799 0.133-1.578 0.677-2.103-0.388-0.374-0.65-0.883-0.705-1.462-0.069-0.731 0.207-1.416 0.695-1.891-0.203-0.197-0.37-0.432-0.491-0.694zM13.331 24.003h5.333l0.001 3.331h-5.333l-0.001-3.331zM21.333 13.333c0 0.736-0.597 1.333-1.333 1.333s-1.333-0.597-1.333-1.333c0-0.736 0.597-1.333 1.333-1.333s1.333 0.597 1.333 1.333z"></path>
</svg>
