<!-- Generated by IcoMoon.io -->
<svg version="1.1" xmlns="http://www.w3.org/2000/svg" width="32" height="32" viewBox="0 0 32 32">
<title>developer-board-lightning-filled</title>
<path d="M12.8 4c0-0.442-0.358-0.8-0.8-0.8s-0.8 0.358-0.8 0.8v0 2.4h-0.8c-2.209 0-4 1.791-4 4v0 0.8h-2.4c-0.442 0-0.8 0.358-0.8 0.8s0.358 0.8 0.8 0.8v0h2.4v2.4h-2.4c-0.442 0-0.8 0.358-0.8 0.8s0.358 0.8 0.8 0.8v0h2.4v2.4h-2.4c-0.442 0-0.8 0.358-0.8 0.8s0.358 0.8 0.8 0.8v0h2.4v0.8c0 2.209 1.791 4 4 4v0h0.8v2.4c0 0.442 0.358 0.8 0.8 0.8s0.8-0.358 0.8-0.8v0-2.4h2.4v2.4c0 0.442 0.358 0.8 0.8 0.8s0.8-0.358 0.8-0.8v0-2.4h2.4v2.4c0 0.442 0.358 0.8 0.8 0.8s0.8-0.358 0.8-0.8v0-2.4h0.8c2.209 0 4-1.791 4-4v0-0.8h2.4c0.442 0 0.8-0.358 0.8-0.8s-0.358-0.8-0.8-0.8v0h-2.4v-2.4h2.4c0.442 0 0.8-0.358 0.8-0.8s-0.358-0.8-0.8-0.8v0h-2.4v-2.4h2.4c0.442 0 0.8-0.358 0.8-0.8s-0.358-0.8-0.8-0.8v0h-2.4v-0.8c0-2.209-1.791-4-4-4v0h-0.8v-2.4c0-0.442-0.358-0.8-0.8-0.8s-0.8 0.358-0.8 0.8v0 2.4h-2.4v-2.4c0-0.442-0.358-0.8-0.8-0.8s-0.8 0.358-0.8 0.8v0 2.4h-2.4v-2.4zM17.578 12.064l-0.666 2.336h2.446c0.353 0 0.639 0.287 0.639 0.64 0 0.156-0.056 0.299-0.149 0.411l0.001-0.001-4.253 5.104c-0.469 0.56-1.37 0.080-1.162-0.621l0.693-2.333h-2.488c-0 0-0.001 0-0.001 0-0.353 0-0.64-0.287-0.64-0.64 0-0.157 0.057-0.301 0.15-0.412l-0.001 0.001 4.269-5.101c0.464-0.557 1.36-0.082 1.162 0.616z"></path>
</svg>
