<!-- Generated by IcoMoon.io -->
<svg version="1.1" xmlns="http://www.w3.org/2000/svg" width="32" height="32" viewBox="0 0 32 32">
<title>developer-board-lightning-toolbox-filled</title>
<path d="M12.8 4c0-0.442-0.358-0.8-0.8-0.8s-0.8 0.358-0.8 0.8v0 2.4h-0.8c-2.209 0-4 1.791-4 4v0 0.8h-2.4c-0.442 0-0.8 0.358-0.8 0.8s0.358 0.8 0.8 0.8v0h2.4v2.4h-2.4c-0.442 0-0.8 0.358-0.8 0.8s0.358 0.8 0.8 0.8v0h2.4v2.4h-2.4c-0.442 0-0.8 0.358-0.8 0.8s0.358 0.8 0.8 0.8v0h2.4v0.8c0 2.209 1.791 4 4 4v0h0.8v2.4c0 0.442 0.358 0.8 0.8 0.8s0.8-0.358 0.8-0.8v0-2.4h1.6v-4c0-0.368 0.050-0.726 0.144-1.067-0.086-0.109-0.139-0.249-0.139-0.401 0-0.071 0.011-0.14 0.033-0.204l-0.001 0.005 0.693-2.333h-2.491c-0 0-0.001 0-0.001 0-0.353 0-0.64-0.287-0.64-0.64 0-0.157 0.057-0.301 0.15-0.412l-0.001 0.001 4.269-5.101c0.466-0.557 1.36-0.082 1.162 0.616l-0.666 2.336h2.448c0.267 0 0.475 0.155 0.576 0.362 0.487-0.228 1.057-0.362 1.658-0.362 0.002 0 0.004 0 0.006 0h3.2c0.274 0 0.541 0.027 0.8 0.080v-1.68h2.4c0.442 0 0.8-0.358 0.8-0.8s-0.358-0.8-0.8-0.8v0h-2.4v-0.8c0-2.209-1.791-4-4-4v0h-0.8v-2.4c0-0.442-0.358-0.8-0.8-0.8s-0.8 0.358-0.8 0.8v0 2.4h-2.4v-2.4c0-0.442-0.358-0.8-0.8-0.8s-0.8 0.358-0.8 0.8v0 2.4h-2.4v-2.4zM19.2 19.2v-0.8c0-1.325 1.075-2.4 2.4-2.4v0h3.2c1.325 0 2.4 1.075 2.4 2.4v0 0.8h0.8c1.325 0 2.4 1.075 2.4 2.4v0 2.4h-3.2v-0.8c0-0.442-0.358-0.8-0.8-0.8s-0.8 0.358-0.8 0.8v0 0.8h-4.8v-0.8c0-0.442-0.358-0.8-0.8-0.8s-0.8 0.358-0.8 0.8v0 0.8h-3.2v-2.4c0-1.325 1.075-2.4 2.4-2.4v0h0.8zM20.8 18.4v0.8h4.8v-0.8c0-0.442-0.358-0.8-0.8-0.8v0h-3.2c-0.442 0-0.8 0.358-0.8 0.8v0zM27.2 26.4v-0.8h3.2v2.4c0 1.325-1.075 2.4-2.4 2.4v0h-9.6c-1.325 0-2.4-1.075-2.4-2.4v0-2.4h3.2v0.8c0 0.442 0.358 0.8 0.8 0.8s0.8-0.358 0.8-0.8v0-0.8h4.8v0.8c0 0.442 0.358 0.8 0.8 0.8s0.8-0.358 0.8-0.8v0z"></path>
</svg>
