<!-- Generated by IcoMoon.io -->
<svg version="1.1" xmlns="http://www.w3.org/2000/svg" width="32" height="32" viewBox="0 0 32 32">
<title>developer-board-filled</title>
<path d="M20.333 2.667c0.506 0 0.925 0.376 0.991 0.864l0.009 0.136 0.001 3.1c1.961 0.398 3.505 1.944 3.9 3.905l3.099 0.001c0.552 0 1 0.448 1 1 0 0.506-0.376 0.925-0.864 0.991l-0.136 0.009-3-0.001v2.333l3 0.001c0.506 0 0.925 0.376 0.991 0.864l0.009 0.136c0 0.506-0.376 0.925-0.864 0.991l-0.136 0.009-3-0.001v2.333l3 0.001c0.506 0 0.925 0.376 0.991 0.864l0.009 0.136c0 0.506-0.376 0.925-0.864 0.991l-0.136 0.009-3.101-0c-0.4 1.956-1.941 3.496-3.898 3.893l-0.001 3.1c0 0.552-0.448 1-1 1-0.506 0-0.925-0.376-0.991-0.864l-0.009-0.136v-3.001h-2.335l0.001 3.001c0 0.506-0.376 0.925-0.864 0.991l-0.136 0.009c-0.506 0-0.925-0.376-0.991-0.864l-0.009-0.136-0.001-3.001h-2.332v3.001c0 0.506-0.376 0.925-0.864 0.991l-0.136 0.009c-0.506 0-0.925-0.376-0.991-0.864l-0.009-0.136 0.001-3.1c-1.959-0.397-3.503-1.941-3.901-3.9h-3.1c-0.552 0-1-0.448-1-1 0-0.506 0.376-0.925 0.864-0.991l0.136-0.009 3-0.001v-2.333l-3 0.001c-0.506 0-0.925-0.376-0.991-0.864l-0.009-0.136c0-0.506 0.376-0.925 0.864-0.991l0.136-0.009 3-0.001v-2.333l-3 0.001c-0.506 0-0.925-0.376-0.991-0.864l-0.009-0.136c0-0.506 0.376-0.925 0.864-0.991l0.136-0.009 3.1-0.001c0.398-1.959 1.941-3.501 3.9-3.899l-0.001-3.1c0-0.552 0.448-1 1-1 0.506 0 0.925 0.376 0.991 0.864l0.009 0.136v2.999h2.332l0.001-2.999c0-0.506 0.376-0.925 0.864-0.991l0.136-0.009c0.506 0 0.925 0.376 0.991 0.864l0.009 0.136-0.001 2.999h2.335v-2.999c0-0.46 0.311-0.848 0.734-0.964l0.13-0.027 0.136-0.009zM16.007 12.007c-2.209 0-4 1.791-4 4s1.791 4 4 4c2.209 0 4-1.791 4-4s-1.791-4-4-4zM16.007 14.007c1.105 0 2 0.895 2 2s-0.895 2-2 2c-1.105 0-2-0.895-2-2s0.895-2 2-2z"></path>
</svg>
