<!-- Generated by IcoMoon.io -->
<svg version="1.1" xmlns="http://www.w3.org/2000/svg" width="32" height="32" viewBox="0 0 32 32">
<title>device-eq-filled</title>
<path d="M16 4c0.681 0 1.243 0.511 1.323 1.171l0.001 0.006 0.009 0.156v21.333c-0.001 0.736-0.597 1.332-1.333 1.332-0.681 0-1.243-0.51-1.323-1.169l-0.001-0.006-0.009-0.156v-21.333c0-0.736 0.597-1.333 1.333-1.333v0zM10.667 8c0.681 0 1.243 0.511 1.323 1.171l0.001 0.006 0.009 0.156v13.333c-0.001 0.736-0.597 1.332-1.333 1.332-0.681 0-1.243-0.51-1.323-1.169l-0.001-0.006-0.009-0.156v-13.333c0-0.736 0.597-1.333 1.333-1.333v0zM21.333 8c0.681 0 1.243 0.511 1.323 1.171l0.001 0.006 0.009 0.156v13.333c-0.001 0.736-0.597 1.332-1.333 1.332-0.681 0-1.243-0.51-1.323-1.169l-0.001-0.006-0.009-0.156v-13.333c0-0.736 0.597-1.333 1.333-1.333v0zM5.333 12c0.681 0 1.243 0.511 1.323 1.171l0.001 0.006 0.009 0.156v5.333c-0.001 0.736-0.597 1.332-1.333 1.332-0.681 0-1.243-0.51-1.323-1.169l-0.001-0.006-0.009-0.156v-5.333c0-0.736 0.597-1.333 1.333-1.333v0zM26.667 12c0.681 0 1.243 0.511 1.323 1.171l0.001 0.006 0.009 0.156v5.333c-0.001 0.736-0.597 1.332-1.333 1.332-0.681 0-1.243-0.51-1.323-1.169l-0.001-0.006-0.009-0.156v-5.333c0-0.736 0.597-1.333 1.333-1.333v0z"></path>
</svg>
