<!-- Generated by IcoMoon.io -->
<svg version="1.1" xmlns="http://www.w3.org/2000/svg" width="32" height="32" viewBox="0 0 32 32">
<title>dialpad-off-filled</title>
<path d="M4.374 2.96c-0.391-0.391-1.024-0.391-1.414-0s-0.391 1.024-0 1.414l5.996 5.996c-0.921 0.179-1.617 0.99-1.617 1.963 0 1.105 0.895 2 2 2 0.974 0 1.785-0.696 1.963-1.617l4.319 4.319c-0.923 0.177-1.621 0.989-1.621 1.964 0 1.105 0.895 2 2 2 0.975 0 1.787-0.698 1.964-1.621l9.662 9.662c0.391 0.391 1.024 0.391 1.414 0s0.391-1.024 0-1.414l-24.666-24.667z"></path>
<path d="M24.661 19c0 0.404-0.12 0.779-0.325 1.094l-2.768-2.769c0.314-0.206 0.69-0.325 1.094-0.325 1.105 0 2 0.895 2 2z"></path>
<path d="M18 12.333c0 0.405-0.12 0.782-0.327 1.097l-2.769-2.77c0.315-0.207 0.692-0.327 1.097-0.327 1.105 0 2 0.895 2 2z"></path>
<path d="M11.339 5.667c0 0.406-0.121 0.784-0.329 1.1l-2.771-2.771c0.316-0.208 0.694-0.329 1.1-0.329 1.105 0 2 0.895 2 2z"></path>
<path d="M16 23.667c1.105 0 2 0.895 2 2s-0.895 2-2 2c-1.105 0-2-0.895-2-2s0.895-2 2-2z"></path>
<path d="M9.339 17c1.105 0 2 0.895 2 2s-0.895 2-2 2c-1.105 0-2-0.895-2-2s0.895-2 2-2z"></path>
<path d="M22.661 10.333c1.105 0 2 0.895 2 2s-0.895 2-2 2c-1.105 0-2-0.895-2-2s0.895-2 2-2z"></path>
<path d="M16 3.667c1.105 0 2 0.895 2 2s-0.895 2-2 2c-1.105 0-2-0.895-2-2s0.895-2 2-2z"></path>
<path d="M22.661 3.667c1.105 0 2 0.895 2 2s-0.895 2-2 2c-1.105 0-2-0.895-2-2s0.895-2 2-2z"></path>
</svg>
