<!-- Generated by IcoMoon.io -->
<svg version="1.1" xmlns="http://www.w3.org/2000/svg" width="32" height="32" viewBox="0 0 32 32">
<title>directions-filled</title>
<path d="M19.064 3.979l8.957 8.957c1.692 1.692 1.692 4.436 0 6.128l-8.957 8.957c-1.692 1.692-4.436 1.692-6.128 0l-8.957-8.957c-1.692-1.692-1.692-4.436 0-6.128l8.957-8.957c1.692-1.692 4.436-1.692 6.128 0zM18.121 9.627l-0.112-0.097c-0.348-0.258-0.826-0.261-1.177-0.010l-0.125 0.106-0.097 0.112c-0.258 0.348-0.261 0.826-0.010 1.177l0.106 0.125 0.958 0.958-1.999 0-0.223 0.007c-1.844 0.111-3.321 1.585-3.436 3.428l-0.007 0.232v4.333l0.009 0.136c0.066 0.488 0.485 0.864 0.991 0.864s0.925-0.376 0.991-0.864l0.009-0.136v-4.333l0.009-0.17c0.080-0.784 0.703-1.408 1.488-1.488l0.17-0.009 2-0-0.96 0.961-0.097 0.112c-0.291 0.391-0.258 0.947 0.097 1.302s0.911 0.387 1.302 0.097l0.112-0.097 2.667-2.667 0.097-0.112c0.258-0.348 0.261-0.826 0.010-1.177l-0.106-0.125-2.667-2.667z"></path>
</svg>
