<!-- Generated by IcoMoon.io -->
<svg version="1.1" xmlns="http://www.w3.org/2000/svg" width="32" height="32" viewBox="0 0 32 32">
<title>dismiss-filled</title>
<path d="M5.613 5.849l0.111-0.126c0.481-0.481 1.237-0.518 1.76-0.111l0.126 0.111 8.391 8.389 8.391-8.389c0.521-0.521 1.365-0.521 1.886 0s0.521 1.365 0 1.886l-8.389 8.391 8.389 8.391c0.481 0.481 0.518 1.237 0.111 1.76l-0.111 0.126c-0.481 0.481-1.237 0.518-1.76 0.111l-0.126-0.111-8.391-8.389-8.391 8.389c-0.521 0.521-1.365 0.521-1.886 0s-0.521-1.365 0-1.886l8.389-8.391-8.389-8.391c-0.481-0.481-0.518-1.237-0.111-1.76v0z"></path>
</svg>
