<!-- Generated by IcoMoon.io -->
<svg version="1.1" xmlns="http://www.w3.org/2000/svg" width="32" height="32" viewBox="0 0 32 32">
<title>dismiss-filled</title>
<path d="M5.707 4.293c-0.183-0.196-0.443-0.318-0.732-0.318-0.552 0-1 0.448-1 1 0 0.289 0.122 0.549 0.318 0.731l0.001 0.001 10.292 10.293-10.293 10.293c-0.188 0.182-0.305 0.437-0.305 0.719 0 0.552 0.448 1 1 1 0.282 0 0.537-0.117 0.719-0.305l10.293-10.293 10.293 10.293c0.183 0.193 0.441 0.313 0.726 0.313 0.552 0 1-0.448 1-1 0-0.286-0.12-0.544-0.313-0.726l-0-0-10.291-10.293 10.293-10.293c0.181-0.181 0.293-0.431 0.293-0.707 0-0.552-0.448-1-1-1-0.276 0-0.526 0.112-0.707 0.293l-10.293 10.293-10.293-10.293z"></path>
</svg>
