<!-- Generated by IcoMoon.io -->
<svg version="1.1" xmlns="http://www.w3.org/2000/svg" width="32" height="32" viewBox="0 0 32 32">
<title>diversity-filled</title>
<path d="M21.333 4c-2.209 0-4 1.791-4 4v2.667c0 2.209 1.791 4 4 4h2.667c2.209 0 4-1.791 4-4v-2.667c0-2.209-1.791-4-4-4h-2.667zM7.4 5.198c0.803-1.597 3.063-1.597 3.866 0l3.163 6.288c0.733 1.457-0.315 3.181-1.933 3.181h-6.325c-1.618 0-2.665-1.724-1.933-3.181l3.163-6.288zM14.57 23.682c-0.139 0.723-0.425 1.395-0.825 1.982l-7.41-7.409c0.592-0.403 1.27-0.69 2-0.828 0.027-0.005 0.054-0.010 0.081-0.015 0.298-0.052 0.604-0.079 0.917-0.079 2.946 0 5.333 2.388 5.333 5.333 0 0.341-0.032 0.674-0.093 0.998-0.001 0.006-0.002 0.012-0.003 0.018zM10.25 27.921c-0.298 0.052-0.604 0.079-0.917 0.079-2.946 0-5.333-2.388-5.333-5.333 0-0.341 0.032-0.674 0.093-0.998 0.001-0.006 0.002-0.012 0.003-0.018 0.139-0.723 0.425-1.395 0.825-1.982l7.409 7.409c-0.592 0.403-1.27 0.69-2 0.828-0.027 0.005-0.054 0.010-0.081 0.015zM22.027 17.488c0.4-0.207 0.88-0.207 1.28 0l3.965 2.048c0.448 0.231 0.728 0.686 0.728 1.18v3.901c0 0.495-0.28 0.949-0.728 1.18l-3.965 2.048c-0.4 0.207-0.88 0.207-1.28 0l-3.965-2.048c-0.448-0.231-0.728-0.686-0.728-1.18v-3.901c0-0.495 0.28-0.949 0.728-1.18l3.965-2.048z"></path>
</svg>
