<!-- Generated by IcoMoon.io -->
<svg version="1.1" xmlns="http://www.w3.org/2000/svg" width="32" height="32" viewBox="0 0 32 32">
<title>dock-row-filled</title>
<path d="M27 16.040c1.288 0 2.333 1.044 2.333 2.333v3.333c0 1.289-1.045 2.333-2.333 2.333v0h-3.333c-1.289 0-2.333-1.045-2.333-2.333v0-3.333c0-1.289 1.045-2.333 2.333-2.333h3.333zM8.333 16.040c1.288 0 2.333 1.044 2.333 2.333v3.333c0 1.289-1.045 2.333-2.333 2.333v0h-3.333c-1.289 0-2.333-1.045-2.333-2.333v0-3.333c0-1.289 1.045-2.333 2.333-2.333h3.333zM17.667 16.040c1.288 0 2.333 1.044 2.333 2.333v3.333c0 1.289-1.045 2.333-2.333 2.333v0h-3.333c-1.289 0-2.333-1.045-2.333-2.333v0-3.333c0-1.289 1.045-2.333 2.333-2.333h3.333zM17.667 6.707c1.288 0 2.333 1.044 2.333 2.333v3.333c0 1.289-1.045 2.333-2.333 2.333v0h-3.333c-1.289 0-2.333-1.045-2.333-2.333v0-3.333c0-1.289 1.045-2.333 2.333-2.333h3.333zM27 6.707c1.288 0 2.333 1.044 2.333 2.333v3.333c0 1.289-1.045 2.333-2.333 2.333v0h-3.333c-1.289 0-2.333-1.045-2.333-2.333v0-3.333c0-1.289 1.045-2.333 2.333-2.333h3.333zM8.333 6.707c1.288 0 2.333 1.044 2.333 2.333v3.333c0 1.289-1.045 2.333-2.333 2.333v0h-3.333c-1.289 0-2.333-1.045-2.333-2.333v0-3.333c0-0 0-0.001 0-0.001 0-1.221 0.938-2.223 2.133-2.325l0.009-0.001 0.192-0.008h3.333z"></path>
</svg>
