<!-- Generated by IcoMoon.io -->
<svg version="1.1" xmlns="http://www.w3.org/2000/svg" width="32" height="32" viewBox="0 0 32 32">
<title>doctor-filled</title>
<path d="M13.333 4.333c-1.289 0-2.333 1.045-2.333 2.333v4.333h-4.333c-1.289 0-2.333 1.045-2.333 2.333v5.333c0 1.289 1.045 2.333 2.333 2.333h4.333v4.333c0 1.289 1.045 2.333 2.333 2.333h5.333c1.289 0 2.333-1.045 2.333-2.333v-4.333h4.333c1.289 0 2.333-1.045 2.333-2.333v-5.333c0-1.289-1.045-2.333-2.333-2.333h-4.333v-4.333c0-1.289-1.045-2.333-2.333-2.333h-5.333z"></path>
</svg>
