<!-- Generated by IcoMoon.io -->
<svg version="1.1" xmlns="http://www.w3.org/2000/svg" width="32" height="32" viewBox="0 0 32 32">
<title>document-error-filled</title>
<path d="M16 2.667v8c0 1.473 1.194 2.667 2.667 2.667v0h8v13.333c0 1.473-1.194 2.667-2.667 2.667v0h-9.080c1.496-1.555 2.417-3.672 2.417-6.004 0-4.786-3.88-8.667-8.667-8.667-1.204 0-2.351 0.246-3.393 0.69l0.057-0.021v-9.997c0-1.473 1.194-2.667 2.667-2.667v0h8zM18 3.333v7.333c0 0.368 0.298 0.667 0.667 0.667v0h7.333l-8-8zM16 23.333c0 4.050-3.283 7.333-7.333 7.333s-7.333-3.283-7.333-7.333v0c0-4.050 3.283-7.333 7.333-7.333s7.333 3.283 7.333 7.333v0zM8.667 18.667c-0.368 0-0.667 0.298-0.667 0.667v0 5.333c0 0.368 0.298 0.667 0.667 0.667s0.667-0.298 0.667-0.667v0-5.333c0-0.368-0.298-0.667-0.667-0.667v0zM8.667 28.167c0.46 0 0.833-0.373 0.833-0.833s-0.373-0.833-0.833-0.833v0c-0.46 0-0.833 0.373-0.833 0.833s0.373 0.833 0.833 0.833v0z"></path>
</svg>
