<!-- Generated by IcoMoon.io -->
<svg version="1.1" xmlns="http://www.w3.org/2000/svg" width="32" height="32" viewBox="0 0 32 32">
<title>document-width-filled</title>
<path d="M23.667 2.667c1.588 0 2.887 1.234 2.993 2.795l0.007 0.205-0 4.689c-0.703-0.101-1.443 0.119-1.984 0.659-0.615 0.615-0.82 1.497-0.568 2.322l0.072 0.205 0.056 0.123-2.034 0c-1.129-0-2.006 0.865-2.178 1.945l-0.023 0.193-0.008 0.196c0 1.065 0.685 2.017 1.778 2.279l0.209 0.041 0.221 0.013 2.020-0-0.023 0.045c-0.278 0.625-0.265 1.357 0.062 2.016l0.121 0.217 0.13 0.191 0.163 0.184c0.532 0.532 1.263 0.757 1.984 0.646v4.703c0 1.588-1.234 2.887-2.795 2.993l-0.205 0.007h-15.333c-1.588 0-2.888-1.234-2.993-2.795l-0.007-0.205-0.001-4.705c0.722 0.112 1.453-0.113 1.986-0.646l0.163-0.184 0.13-0.191c0.442-0.711 0.492-1.539 0.183-2.233l-0.022-0.045 2.020 0.001 0.221-0.013c1.214-0.184 1.987-1.189 1.987-2.32l-0.008-0.196c-0.093-1.167-1.005-2.137-2.201-2.137l-2.034-0.001 0.056-0.122c0.355-0.881 0.171-1.86-0.496-2.527-0.541-0.541-1.282-0.761-1.986-0.659l0.001-4.689c0-1.588 1.234-2.888 2.795-2.993l0.205-0.007h15.333zM6.375 11.957c0.355 0.355 0.387 0.911 0.097 1.302l-0.097 0.112-1.628 1.626h5.045c0.483-0 0.875 0.448 0.875 1 0 0.506-0.329 0.925-0.756 0.991l-0.119 0.009h-5.045l1.628 1.628c0.355 0.355 0.387 0.911 0.097 1.302l-0.097 0.112c-0.355 0.355-0.911 0.387-1.302 0.097l-0.112-0.097-3.16-3.156c-0.278-0.167-0.468-0.501-0.468-0.885s0.189-0.718 0.467-0.885l3.16-3.157c0.391-0.391 1.024-0.391 1.414 0zM25.625 11.953c0.355-0.355 0.911-0.387 1.302-0.097l0.112 0.097 3.16 3.157c0.278 0.168 0.467 0.501 0.467 0.885 0 0.336-0.145 0.633-0.368 0.815l-0.1 0.070-3.16 3.156-0.112 0.097c-0.348 0.258-0.826 0.261-1.177 0.010l-0.125-0.106-0.097-0.112c-0.258-0.348-0.261-0.826-0.009-1.177l0.106-0.125 1.628-1.629h-5.045l-0.119-0.009c-0.427-0.066-0.756-0.485-0.756-0.991s0.329-0.925 0.756-0.991l0.119-0.009h5.045l-1.628-1.626-0.097-0.112c-0.29-0.391-0.258-0.947 0.097-1.302z"></path>
</svg>
