<!-- Generated by IcoMoon.io -->
<svg version="1.1" xmlns="http://www.w3.org/2000/svg" width="32" height="32" viewBox="0 0 32 32">
<title>document-page-break-filled</title>
<path d="M3.333 16c0-0.552 0.448-1 1-1h2c0.552 0 1 0.448 1 1s-0.448 1-1 1h-2c-0.552 0-1-0.448-1-1z"></path>
<path d="M8.667 16c0-0.552 0.448-1 1-1h2c0.552 0 1 0.448 1 1s-0.448 1-1 1h-2c-0.552 0-1-0.448-1-1z"></path>
<path d="M14 16c0-0.552 0.448-1 1-1h2c0.552 0 1 0.448 1 1s-0.448 1-1 1h-2c-0.552 0-1-0.448-1-1z"></path>
<path d="M19.333 16c0-0.552 0.448-1 1-1h2c0.552 0 1 0.448 1 1s-0.448 1-1 1h-2c-0.552 0-1-0.448-1-1z"></path>
<path d="M24.667 16c0-0.552 0.448-1 1-1h2c0.552 0 1 0.448 1 1s-0.448 1-1 1h-2c-0.552 0-1-0.448-1-1z"></path>
<path d="M6.667 2.667c-0.736 0-1.333 0.597-1.333 1.333v5.333c0 1.472 1.195 2.667 2.667 2.667h16c1.472 0 2.667-1.195 2.667-2.667v-5.333c0-0.736-0.597-1.333-1.333-1.333h-18.667z"></path>
<path d="M25.333 29.333c0.736 0 1.333-0.597 1.333-1.333v-5.333c0-1.472-1.195-2.667-2.667-2.667h-16c-1.472 0-2.667 1.195-2.667 2.667v5.333c0 0.736 0.597 1.333 1.333 1.333h18.667z"></path>
</svg>
