<!-- Generated by IcoMoon.io -->
<svg version="1.1" xmlns="http://www.w3.org/2000/svg" width="32" height="32" viewBox="0 0 32 32">
<title>document-split-hint-off-filled</title>
<path d="M4.373 2.96c-0.178-0.166-0.418-0.268-0.682-0.268-0.552 0-1 0.448-1 1 0 0.264 0.102 0.504 0.269 0.682l-0.001-0.001 2.373 2.373v8.587c0 0.368 0.298 0.667 0.667 0.667v0h8.587l10.080 10.080v0.587c0 0.368-0.298 0.667-0.667 0.667v0h-1.667c-0.552 0-1 0.448-1 1s0.448 1 1 1v0h1.667c0 0 0.001 0 0.001 0 1.053 0 1.964-0.611 2.397-1.498l0.007-0.016 1.221 1.22c0.178 0.166 0.418 0.268 0.682 0.268 0.552 0 1-0.448 1-1 0-0.264-0.102-0.504-0.269-0.682l0.001 0.001-24.667-24.667zM24.667 20.424l1.815 1.816c0.117-0.161 0.187-0.362 0.187-0.58v-3.327c0-0.552-0.448-1-1-1s-1 0.448-1 1v0 2.091zM16.949 12.707l3.293 3.293h5.757c0.368 0 0.667-0.298 0.667-0.667v0-2h-8c-0.653 0-1.253-0.236-1.717-0.627zM16 10.667c0 0.653 0.236 1.253 0.627 1.717l-9.552-9.552c0.288-0.107 0.6-0.165 0.925-0.165h8v8zM18 10.667v-7.333l8 8h-7.333c-0.368 0-0.667-0.298-0.667-0.667v0zM7.333 18.333c0-0.552-0.448-1-1-1s-1 0.448-1 1v0 3.327c0 0.552 0.448 1 1 1s1-0.448 1-1v0-3.327zM13.667 27.333c-0.552 0-1 0.448-1 1s0.448 1 1 1v0h4.667c0.552 0 1-0.448 1-1s-0.448-1-1-1v0h-4.667zM6.333 24.667c0.552 0 1 0.448 1 1v0 1c0 0.368 0.298 0.667 0.667 0.667v0h1.667c0.552 0 1 0.448 1 1s-0.448 1-1 1v0h-1.667c-1.473 0-2.667-1.194-2.667-2.667v0-1c0-0.552 0.448-1 1-1v0z"></path>
</svg>
