<!-- Generated by IcoMoon.io -->
<svg version="1.1" xmlns="http://www.w3.org/2000/svg" width="32" height="32" viewBox="0 0 32 32">
<title>document-sync-filled</title>
<path d="M16 2.667v8c0 1.473 1.194 2.667 2.667 2.667h8v13.333c0 1.473-1.194 2.667-2.667 2.667h-9.079c1.494-1.557 2.413-3.671 2.413-6 0-4.787-3.88-8.667-8.667-8.667-1.181 0-2.307 0.236-3.333 0.664v-9.998c0-1.473 1.194-2.667 2.667-2.667h8zM18 3.333v7.333c0 0.368 0.299 0.667 0.667 0.667h7.333l-8-8zM1.333 23.333c0 4.050 3.283 7.333 7.333 7.333s7.333-3.283 7.333-7.333c0-4.050-3.283-7.333-7.333-7.333s-7.333 3.283-7.333 7.333zM12.667 18.667c0.368 0 0.667 0.299 0.667 0.667v2.667c0 0.368-0.298 0.667-0.667 0.667h-2.667c-0.368 0-0.667-0.299-0.667-0.667s0.298-0.667 0.667-0.667h1.334c-0.609-0.811-1.577-1.333-2.667-1.333-1.111 0-2.096 0.543-2.702 1.381-0.216 0.298-0.633 0.365-0.931 0.149s-0.365-0.633-0.149-0.931c0.847-1.17 2.225-1.933 3.782-1.933 1.306 0 2.487 0.537 3.333 1.401v-0.734c0-0.368 0.298-0.667 0.667-0.667zM5.333 26.599v0.734c0 0.368-0.298 0.667-0.667 0.667s-0.667-0.299-0.667-0.667v-2.667c0-0.368 0.298-0.667 0.667-0.667h2.667c0.368 0 0.667 0.299 0.667 0.667s-0.298 0.667-0.667 0.667h-1.334c0.609 0.811 1.577 1.333 2.667 1.333 1.022 0 1.936-0.459 2.548-1.184 0.238-0.281 0.658-0.317 0.939-0.079s0.317 0.658 0.079 0.939c-0.855 1.013-2.136 1.657-3.567 1.657-1.306 0-2.487-0.537-3.333-1.401z"></path>
</svg>
