<!-- Generated by IcoMoon.io -->
<svg version="1.1" xmlns="http://www.w3.org/2000/svg" width="32" height="32" viewBox="0 0 32 32">
<title>document-page-top-left-filled</title>
<path d="M12.342 12l0.317-2h1.975l-0.317 2h-1.975z"></path>
<path d="M23.667 2.668c1.588 0 2.887 1.234 2.993 2.795l0.007 0.205v20.664c0 1.588-1.234 2.888-2.795 2.993l-0.205 0.007h-15.333c-1.588 0-2.888-1.233-2.993-2.795l-0.007-0.205v-20.664c0-1.588 1.234-2.888 2.795-2.993l0.205-0.007h15.333zM13.861 14.881c-0.086 0.545 0.286 1.058 0.831 1.144s1.058-0.286 1.144-0.831l0.189-1.194h0.975c0.552 0 1-0.448 1-1s-0.448-1-1-1h-0.658l0.317-2h1.008c0.552 0 1-0.448 1-1s-0.448-1-1-1h-0.692l0.216-1.366c0.086-0.545-0.286-1.058-0.831-1.144s-1.058 0.286-1.144 0.831l-0.266 1.679h-1.975l0.216-1.366c0.086-0.545-0.286-1.058-0.831-1.144s-1.058 0.286-1.144 0.831l-0.266 1.679h-1.283c-0.552 0-1 0.448-1 1s0.448 1 1 1h0.967l-0.317 2h-1.317c-0.552 0-1 0.448-1 1s0.448 1 1 1h1l-0.139 0.881c-0.086 0.545 0.286 1.058 0.831 1.144s1.058-0.286 1.144-0.831l0.189-1.194h1.975l-0.139 0.881z"></path>
</svg>
