<!-- Generated by IcoMoon.io -->
<svg version="1.1" xmlns="http://www.w3.org/2000/svg" width="32" height="32" viewBox="0 0 32 32">
<title>document-link-filled</title>
<path d="M16 2.667v8c0 1.473 1.194 2.667 2.667 2.667h8v13.333c0 1.473-1.194 2.667-2.667 2.667h-6.666c0.837-1.114 1.333-2.499 1.333-4 0-3.682-2.985-6.667-6.667-6.667h-6.667v-13.333c0-1.473 1.194-2.667 2.667-2.667h8zM18 3.333v7.333c0 0.368 0.299 0.667 0.667 0.667h7.333l-8-8zM7.667 21c0-0.552-0.448-1-1-1l-0.266 0.007c-2.822 0.139-5.067 2.471-5.067 5.327 0 2.945 2.388 5.333 5.333 5.333l0.136-0.009c0.488-0.066 0.864-0.485 0.864-0.991 0-0.552-0.448-1-1-1l-0.219-0.007c-1.739-0.113-3.114-1.559-3.114-3.326 0-1.841 1.492-3.333 3.333-3.333l0.136-0.009c0.488-0.066 0.864-0.485 0.864-0.991zM17.333 25.333c0-2.945-2.388-5.333-5.333-5.333l-0.136 0.009c-0.488 0.066-0.864 0.485-0.864 0.991 0 0.552 0.448 1 1 1l0.219 0.007c1.739 0.113 3.114 1.559 3.114 3.326 0 1.841-1.492 3.333-3.333 3.333l-0.136 0.009c-0.488 0.066-0.864 0.485-0.864 0.991 0 0.552 0.448 1 1 1l0.266-0.007c2.822-0.139 5.067-2.471 5.067-5.327zM11.667 24.333h-4.667l-0.136 0.009c-0.488 0.066-0.864 0.485-0.864 0.991 0 0.552 0.448 1 1 1h4.667l0.136-0.009c0.488-0.066 0.864-0.485 0.864-0.991 0-0.552-0.448-1-1-1z"></path>
</svg>
