<!-- Generated by IcoMoon.io -->
<svg version="1.1" xmlns="http://www.w3.org/2000/svg" width="32" height="32" viewBox="0 0 32 32">
<title>document-bullet-list-multiple-filled</title>
<path d="M5.333 5.667c0-1.657 1.343-3 3-3v0h5.672v6.331c0 1.657 1.343 3 3 3v0h6.328v11.003c0 1.657-1.343 3-3 3v0h-12c-1.657 0-3-1.343-3-3v0-17.333zM10.333 15.333c-0.552 0-1 0.448-1 1s0.448 1 1 1v0c0.552 0 1-0.448 1-1s-0.448-1-1-1v0zM9.333 20.333c0 0.552 0.448 1 1 1s1-0.448 1-1v0c0-0.552-0.448-1-1-1s-1 0.448-1 1v0zM13.333 16.333c0 0.552 0.448 1 1 1h4.072c0.552 0 1-0.448 1-1s-0.448-1-1-1v0h-4.072c-0.552 0-1 0.448-1 1v0zM14.333 19.333c-0.552 0-1 0.448-1 1s0.448 1 1 1v0h4.072c0.552 0 1-0.448 1-1s-0.448-1-1-1v0h-4.072zM16.005 8.997v-5.707c0.101 0.077 0.2 0.163 0.291 0.255l6.159 6.159c0.093 0.093 0.179 0.191 0.257 0.293h-5.707c-0.552 0-1-0.448-1-1v0zM8.839 27.333c0.424 1.175 1.53 2 2.828 2h8.667c3.498 0 6.333-2.836 6.333-6.333v0-7.841c-0-0.829-0.337-1.579-0.88-2.121l-0-0-1.12-1.121v11.084c0 2.393-1.94 4.333-4.333 4.333v0h-11.495z"></path>
</svg>
