<!-- Generated by IcoMoon.io -->
<svg version="1.1" xmlns="http://www.w3.org/2000/svg" width="32" height="32" viewBox="0 0 32 32">
<title>document-link-filled</title>
<path d="M16 2.667v8c0 1.473 1.194 2.667 2.667 2.667v0h8v13.333c0 1.473-1.194 2.667-2.667 2.667v0h-6.667c0.832-1.1 1.333-2.492 1.333-4 0-3.682-2.985-6.667-6.667-6.667v0h-6.667v-13.333c0-1.473 1.194-2.667 2.667-2.667v0h8zM18 3.333v7.333c0 0.368 0.298 0.667 0.667 0.667v0h7.333l-8-8zM7.667 21c0-0.552-0.448-1-1-1v0l-0.267 0.007c-2.829 0.146-5.067 2.475-5.067 5.327 0 2.946 2.388 5.333 5.333 5.333 0 0 0 0 0 0v0l0.136-0.009c0.491-0.069 0.864-0.486 0.864-0.991 0-0.552-0.448-1-1-1h-0l-0.219-0.007c-1.748-0.114-3.123-1.56-3.123-3.327 0-1.841 1.492-3.333 3.333-3.333 0.003 0 0.006 0 0.009 0h-0l0.136-0.009c0.491-0.069 0.864-0.486 0.864-0.991v0zM17.333 25.333c0-2.946-2.388-5.333-5.333-5.333v0l-0.136 0.009c-0.491 0.069-0.864 0.486-0.864 0.991 0 0.552 0.448 1 1 1h0l0.219 0.007c1.748 0.114 3.123 1.56 3.123 3.327 0 1.841-1.492 3.333-3.333 3.333-0.003 0-0.006 0-0.009 0h0l-0.136 0.009c-0.491 0.069-0.864 0.486-0.864 0.991 0 0.552 0.448 1 1 1h0l0.267-0.007c2.829-0.146 5.067-2.475 5.067-5.327 0 0 0 0 0 0v0zM11.667 24.333h-4.667l-0.136 0.009c-0.491 0.069-0.864 0.486-0.864 0.991 0 0.552 0.448 1 1 1h4.667l0.136-0.009c0.491-0.069 0.864-0.486 0.864-0.991 0-0.552-0.448-1-1-1h-0z"></path>
</svg>
