<!-- Generated by IcoMoon.io -->
<svg version="1.1" xmlns="http://www.w3.org/2000/svg" width="32" height="32" viewBox="0 0 32 32">
<title>document-table-arrow-right-filled</title>
<path d="M20.667 23v-1.667h-3.565c0.152 0.643 0.232 1.312 0.232 2h3c0.184 0 0.333-0.149 0.333-0.333v0zM20.667 19.333h-4.309c-0.308-0.585-0.648-1.089-1.035-1.552l0.011 0.014v-0.461h5c0.184 0 0.333 0.149 0.333 0.333v0 1.667zM8.667 14.667c0.003 0 0.007 0 0.011 0 1.201 0 2.345 0.245 3.384 0.688l-0.056-0.021h8.328c1.288 0 2.333 1.045 2.333 2.333v5.333c0 1.289-1.045 2.333-2.333 2.333v0h-3.232c-0.38 1.567-1.142 2.92-2.184 4.003l0.003-0.003h9.080c1.473 0 2.667-1.194 2.667-2.667v0-13.333h-8c-1.473 0-2.667-1.194-2.667-2.667v0-8h-8c-1.473 0-2.667 1.194-2.667 2.667v0 9.997c0.981-0.42 2.123-0.664 3.321-0.664 0.004 0 0.008 0 0.013 0h-0.001zM18 10.667v-7.333l8 8h-7.333c-0.368 0-0.667-0.298-0.667-0.667v0zM16 23.333c0 4.050-3.283 7.333-7.333 7.333s-7.333-3.283-7.333-7.333v0c0-4.050 3.283-7.333 7.333-7.333s7.333 3.283 7.333 7.333v0zM4.667 22.667c-0.368 0-0.667 0.298-0.667 0.667s0.298 0.667 0.667 0.667v0h6.391l-2.196 2.195c-0.121 0.121-0.195 0.288-0.195 0.472 0 0.369 0.299 0.668 0.668 0.668 0.184 0 0.351-0.075 0.472-0.195l3.333-3.333c0.121-0.121 0.196-0.288 0.196-0.472s-0.075-0.351-0.196-0.472v0l-3.333-3.333c-0.121-0.121-0.288-0.195-0.472-0.195-0.369 0-0.668 0.299-0.668 0.668 0 0.184 0.075 0.351 0.196 0.472v0l2.196 2.195h-6.391z"></path>
</svg>
