<!-- Generated by IcoMoon.io -->
<svg version="1.1" xmlns="http://www.w3.org/2000/svg" width="32" height="32" viewBox="0 0 32 32">
<title>document-heart-filled</title>
<path d="M16 2.667v8c0 1.473 1.194 2.667 2.667 2.667v0h8v13.333c0 1.473-1.194 2.667-2.667 2.667v0h-11.347l4.227-4.227c1.078-1.078 1.746-2.567 1.746-4.213 0-3.289-2.667-5.956-5.956-5.956-1.237 0-2.385 0.377-3.337 1.022l0.021-0.013c-0.931-0.632-2.079-1.008-3.316-1.008-0.248 0-0.493 0.015-0.733 0.045l0.029-0.003v-9.647c0-1.473 1.194-2.667 2.667-2.667v0h8zM18 3.333v7.333c0 0.368 0.298 0.667 0.667 0.667v0h7.333l-8-8zM9.353 30.333c-0 0-0.001 0-0.001 0-0.276 0-0.525-0.112-0.706-0.293l-5.88-5.877c-0.836-0.837-1.354-1.992-1.354-3.269 0-2.553 2.070-4.623 4.623-4.623 1.277 0 2.433 0.518 3.269 1.354l0.048 0.048 0.048-0.048c0.841-0.866 2.017-1.404 3.318-1.404 2.553 0 4.623 2.070 4.623 4.623 0 1.302-0.538 2.478-1.404 3.318l-0.001 0.001-5.877 5.877c-0.18 0.181-0.43 0.293-0.706 0.293-0 0-0.001 0-0.001 0h0z"></path>
</svg>
