<!-- Generated by IcoMoon.io -->
<svg version="1.1" xmlns="http://www.w3.org/2000/svg" width="32" height="32" viewBox="0 0 32 32">
<title>document-text-link-filled</title>
<path d="M16 10.667v-8h-8c-1.473 0-2.667 1.194-2.667 2.667v13.412c0.326-0.052 0.66-0.079 1-0.079h4.667c0.711 0 1.395 0.117 2.033 0.333h7.967c0.552 0 1 0.448 1 1s-0.448 1-1 1h-5.089c0.406 0.498 0.738 1.059 0.979 1.667h4.11c0.552 0 1 0.448 1 1s-0.448 1-1 1h-3.675c0.006 0.11 0.009 0.221 0.009 0.333 0 1.676-0.651 3.2-1.715 4.333h8.381c1.473 0 2.667-1.194 2.667-2.667v-13.333h-8c-1.473 0-2.667-1.194-2.667-2.667zM11 15.333h10c0.552 0 1 0.448 1 1s-0.448 1-1 1h-10c-0.552 0-1-0.448-1-1s0.448-1 1-1zM18 10.667v-7.333l8 8h-7.333c-0.368 0-0.667-0.298-0.667-0.667zM16 25c0-2.761-2.239-5-5-5l-0.136 0.009c-0.488 0.066-0.864 0.485-0.864 0.991 0 0.552 0.448 1 1 1l0.205 0.007c1.561 0.106 2.795 1.405 2.795 2.993 0 1.657-1.343 3-3 3l-0.005 0.006-0.136 0.010c-0.488 0.069-0.862 0.489-0.86 0.995 0.003 0.552 0.452 0.998 1.005 0.995v-0.006l0.265-0.007c2.634-0.138 4.73-2.321 4.73-4.993zM7.333 21c0-0.552-0.448-1-1-1l-0.266 0.007c-2.638 0.138-4.734 2.321-4.734 4.993 0 2.761 2.239 5 5 5l0.136-0.009c0.488-0.066 0.864-0.485 0.864-0.991 0-0.552-0.448-1-1-1l-0.205-0.007c-1.561-0.106-2.795-1.405-2.795-2.993 0-1.657 1.343-3 3-3l0.136-0.009c0.488-0.066 0.864-0.485 0.864-0.991zM12 25c0-0.552-0.448-1-1-1h-4.667l-0.136 0.009c-0.488 0.066-0.864 0.485-0.864 0.991 0 0.552 0.448 1 1 1h4.667l0.136-0.009c0.488-0.066 0.864-0.485 0.864-0.991z"></path>
</svg>
