<!-- Generated by IcoMoon.io -->
<svg version="1.1" xmlns="http://www.w3.org/2000/svg" width="32" height="32" viewBox="0 0 32 32">
<title>document-footer-remove-filled</title>
<path d="M30.667 8.667c0-4.050-3.283-7.333-7.333-7.333-1.566 0-3.018 0.491-4.209 1.328-0.156 0.11-0.308 0.225-0.455 0.347-1.63 1.345-2.669 3.381-2.669 5.659 0 4.050 3.283 7.333 7.333 7.333 1.198 0 2.328-0.287 3.326-0.796 2.378-1.213 4.007-3.685 4.007-6.537zM20.032 6.308c-0.26-0.26-0.26-0.682 0-0.943s0.683-0.26 0.943 0l2.36 2.36 2.362-2.36c0.26-0.26 0.683-0.26 0.943 0 0.002 0.002 0.005 0.005 0.007 0.007 0 0 0 0 0 0 0.246 0.254 0.251 0.655 0.014 0.914-0.007 0.007-0.014 0.015-0.021 0.022 0-0-0 0 0 0l-2.362 2.359 2.358 2.358c0.252 0.252 0.26 0.655 0.024 0.917-0.002 0.002-0.004 0.004-0.006 0.007-0.006 0.006-0.012 0.013-0.018 0.019-0.26 0.26-0.682 0.26-0.943-0l-2.359-2.358-2.355 2.355c-0.26 0.26-0.682 0.26-0.943 0s-0.26-0.682 0-0.943l2.355-2.355-2.359-2.36z"></path>
<path d="M11.334 21c0-0.184 0.149-0.333 0.333-0.333h8.667c0.184 0 0.333 0.149 0.333 0.333v2c0 0.184-0.149 0.333-0.333 0.333h-8.667c-0.184 0-0.333-0.149-0.333-0.333v-2z"></path>
<path d="M23.334 17.333c1.179 0 2.302-0.235 3.326-0.661v9.653c0 1.588-1.234 2.888-2.795 2.993l-0.205 0.007h-15.333c-1.588 0-2.888-1.233-2.993-2.795l-0.007-0.205v-20.664c0-1.588 1.234-2.888 2.795-2.993l0.205-0.007h8.758c-1.497 1.558-2.418 3.674-2.418 6.006 0 4.787 3.88 8.667 8.667 8.667zM11.667 18.667c-1.289 0-2.333 1.045-2.333 2.333v2c0 1.289 1.045 2.333 2.333 2.333h8.667c1.289 0 2.333-1.045 2.333-2.333v-2c0-1.289-1.045-2.333-2.333-2.333h-8.667z"></path>
</svg>
