<!-- Generated by IcoMoon.io -->
<svg version="1.1" xmlns="http://www.w3.org/2000/svg" width="32" height="32" viewBox="0 0 32 32">
<title>document-table-truck-filled</title>
<path d="M20.151 23v-1.667h-3.283l0.131 0.261c0.22 0.44 0.335 0.924 0.335 1.416v0.323h2.484c0.184 0 0.333-0.149 0.333-0.333v0zM20.151 19.333h-4.283l-0.236-0.472c-0.205-0.404-0.478-0.745-0.808-1.020l-0.005-0.004v-0.504h5c0.184 0 0.333 0.149 0.333 0.333v0 1.667zM17.333 27v-1.667h2.484c1.289 0 2.333-1.045 2.333-2.333v0-5.333c0-1.289-1.045-2.333-2.333-2.333v0h-7.576c-0.573-0.419-1.281-0.667-2.047-0.667h-5.377v-9.333c0-1.473 1.194-2.667 2.667-2.667v0h8v8c0 1.473 1.194 2.667 2.667 2.667v0h8v13.333c0 1.473-1.194 2.667-2.667 2.667v0h-7.176c0.631-0.579 1.025-1.408 1.025-2.328 0-0.002 0-0.004 0-0.005v0zM17.484 10.667v-7.333l8 8h-7.333c-0.368 0-0.667-0.298-0.667-0.667v0zM1.333 18.139c0-1.181 0.957-2.139 2.139-2.139h6.723c1.181 0 2.139 0.957 2.139 2.139v0.307h0.467c0.693 0 1.329 0.392 1.64 1.013l1.367 2.733c0.127 0.253 0.193 0.533 0.193 0.819v3.989c0 1.013-0.821 1.833-1.833 1.833h-0.688c-0.282 1.062-1.235 1.833-2.367 1.833s-2.086-0.77-2.363-1.816l-0.004-0.017h-1.376c-0.281 1.063-1.234 1.833-2.367 1.833-1.201 0-2.2-0.866-2.406-2.008l-0.002-0.015c-0.748-0.344-1.258-1.087-1.259-1.949v-8.556zM12.333 19.667v2.444h2.067l-1.053-2.107c-0.103-0.202-0.308-0.337-0.546-0.337-0 0-0 0-0.001 0h-0.467zM5 27c-0.012-0-0.026-0.001-0.040-0.001-0.675 0-1.223 0.547-1.223 1.223s0.547 1.223 1.223 1.223c0.014 0 0.028-0 0.042-0.001l-0.002 0c0.658-0.022 1.182-0.561 1.182-1.222s-0.525-1.2-1.18-1.222l-0.002-0zM9.889 28.223c-0 0.012-0.001 0.026-0.001 0.040 0 0.675 0.547 1.223 1.223 1.223s1.223-0.547 1.223-1.223c0-0.014-0-0.028-0.001-0.042l0 0.002c-0.022-0.658-0.561-1.182-1.222-1.182s-1.2 0.525-1.222 1.18l-0 0.002z"></path>
</svg>
