<!-- Generated by IcoMoon.io -->
<svg version="1.1" xmlns="http://www.w3.org/2000/svg" width="32" height="32" viewBox="0 0 32 32">
<title>document-css-filled</title>
<path d="M16 10.667v-8h-8c-1.473 0-2.667 1.194-2.667 2.667v13.381c1.311 0.188 2.447 0.92 3.169 1.961 0.674-1.199 1.958-2.008 3.431-2.008h0.133c1.361 0 2.561 0.691 3.267 1.742 0.706-1.051 1.906-1.742 3.267-1.742h0.133c2.172 0 3.933 1.761 3.933 3.933v0.067c0 0.6-0.227 1.147-0.599 1.561 0.383 0.584 0.599 1.279 0.599 2.008v0.497c0 0.997-0.371 1.907-0.982 2.6h2.315c1.473 0 2.667-1.194 2.667-2.667v-13.333h-8c-1.473 0-2.667-1.194-2.667-2.667zM18.733 29.333c1.436 0 2.6-1.164 2.6-2.6v-0.497c0-0.479-0.146-0.934-0.404-1.313-0.159-0.234-0.36-0.438-0.596-0.602-0.143-0.1-0.3-0.185-0.467-0.251l-0.754-0.302-0.951-0.57c-0.1-0.060-0.162-0.169-0.162-0.286v-0.312c0-0.331 0.269-0.6 0.6-0.6h0.133c0.264 0 0.488 0.171 0.569 0.408 0.020 0.060 0.031 0.125 0.031 0.192v0.067c0 0.452 0.3 0.834 0.711 0.958 0.091 0.027 0.188 0.042 0.289 0.042 0.331 0 0.624-0.161 0.806-0.408 0.122-0.166 0.194-0.37 0.194-0.592v-0.067c0-1.436-1.164-2.6-2.6-2.6h-0.133c-1.436 0-2.6 1.164-2.6 2.6v0.497c0 0.479 0.146 0.934 0.404 1.313 0.159 0.234 0.36 0.438 0.596 0.602 0.143 0.1 0.3 0.185 0.467 0.251l0.754 0.302 0.951 0.57c0.1 0.060 0.162 0.169 0.162 0.286v0.312c0 0.331-0.269 0.6-0.6 0.6h-0.133c-0.264 0-0.488-0.171-0.569-0.408-0.020-0.060-0.031-0.125-0.031-0.192v-0.067c0-0.452-0.3-0.834-0.711-0.958-0.091-0.027-0.188-0.042-0.289-0.042-0.331 0-0.624 0.161-0.806 0.408-0.122 0.166-0.194 0.37-0.194 0.592v0.067c0 1.436 1.164 2.6 2.6 2.6h0.133zM14.667 26.733c0 0.46-0.119 0.892-0.329 1.267-0.445 0.795-1.295 1.333-2.271 1.333h-0.133c-0.976 0-1.826-0.538-2.271-1.333-0.209-0.375-0.329-0.807-0.329-1.267v-0.067c0-0.221 0.072-0.426 0.194-0.592 0.182-0.248 0.475-0.408 0.806-0.408 0.1 0 0.197 0.015 0.289 0.042 0.412 0.124 0.711 0.506 0.711 0.958v0.067c0 0.067 0.011 0.132 0.031 0.192 0.080 0.237 0.304 0.408 0.569 0.408h0.133c0.331 0 0.6-0.269 0.6-0.6v-0.312c0-0.117-0.061-0.226-0.162-0.286l-0.951-0.57-0.754-0.302c-0.167-0.067-0.323-0.152-0.467-0.251-0.235-0.164-0.437-0.369-0.596-0.602-0.258-0.379-0.404-0.834-0.404-1.313v-0.497c0-1.436 1.164-2.6 2.6-2.6h0.133c1.436 0 2.6 1.164 2.6 2.6v0.067c0 0.221-0.072 0.426-0.194 0.592-0.182 0.248-0.475 0.408-0.806 0.408-0.1 0-0.197-0.015-0.289-0.042-0.412-0.124-0.711-0.506-0.711-0.958v-0.067c0-0.067-0.011-0.132-0.031-0.192-0.080-0.237-0.304-0.408-0.569-0.408h-0.133c-0.331 0-0.6 0.269-0.6 0.6v0.312c0 0.117 0.061 0.226 0.162 0.286l0.951 0.57 0.754 0.302c0.167 0.067 0.323 0.152 0.467 0.251 0.235 0.164 0.437 0.369 0.596 0.602 0.258 0.379 0.404 0.834 0.404 1.313v0.497zM7.933 29.333c0.022-0.022 0.045-0.044 0.067-0.067v0.067c-0.022 0-0.044-0-0.067-0.001zM6.435 28.826c0.94-0.589 1.565-1.635 1.565-2.826 0-0.182-0.049-0.353-0.133-0.499-0.173-0.299-0.496-0.501-0.867-0.501s-0.694 0.201-0.867 0.501c-0.085 0.147-0.133 0.317-0.133 0.499 0 0.477-0.25 0.895-0.626 1.131-0.205 0.128-0.447 0.203-0.707 0.203-0.736 0-1.333-0.597-1.333-1.333v-2.667c0-0.736 0.597-1.333 1.333-1.333 0.243 0 0.471 0.065 0.667 0.178 0.399 0.231 0.667 0.661 0.667 1.155 0 0.182 0.049 0.353 0.133 0.499 0.173 0.299 0.496 0.501 0.867 0.501s0.694-0.201 0.867-0.501c0.085-0.147 0.133-0.317 0.133-0.499 0-1.613-1.145-2.958-2.667-3.267-0.215-0.044-0.438-0.067-0.667-0.067-1.841 0-3.333 1.492-3.333 3.333v2.667c0 1.841 1.492 3.333 3.333 3.333 0.65 0 1.256-0.186 1.768-0.507zM18 10.667v-7.333l8 8h-7.333c-0.368 0-0.667-0.298-0.667-0.667z"></path>
</svg>
