<!-- Generated by IcoMoon.io -->
<svg version="1.1" xmlns="http://www.w3.org/2000/svg" width="32" height="32" viewBox="0 0 32 32">
<title>document-bullet-list-off-filled</title>
<path d="M5.333 6.747v19.92c0 1.473 1.194 2.667 2.667 2.667v0h16c0 0 0.001 0 0.001 0 1.053 0 1.964-0.611 2.397-1.498l0.007-0.016 1.22 1.221c0.181 0.181 0.431 0.293 0.707 0.293 0.552 0 1-0.448 1-1 0-0.276-0.112-0.526-0.293-0.707l-24.667-24.667c-0.183-0.196-0.443-0.318-0.732-0.318-0.552 0-1 0.448-1 1 0 0.289 0.122 0.549 0.318 0.731l0.001 0.001 2.373 2.373zM21.964 23.379l0.657 0.657c0.029 0.089 0.045 0.191 0.045 0.297 0 0.552-0.448 1-1 1h-7.333c-0.552 0-1-0.448-1-1s0.448-1 1-1v0h7.333c0.104 0 0.203 0.016 0.297 0.045zM19.919 21.333h-5.585c-0.552 0-1-0.448-1-1s0.448-1 1-1v0h3.587l2 2zM15.919 17.333h-1.585c-0.001 0-0.001 0-0.002 0-0.552 0-1-0.448-1-1 0-0.427 0.268-0.792 0.645-0.935l0.007-0.002 1.936 1.937zM9.333 16.333c0-0.552 0.448-1 1-1s1 0.448 1 1v0c0 0.552-0.448 1-1 1s-1-0.448-1-1v0zM9.333 20.333c0-0.552 0.448-1 1-1s1 0.448 1 1v0c0 0.552-0.448 1-1 1s-1-0.448-1-1v0zM9.333 24.333c0-0.552 0.448-1 1-1s1 0.448 1 1v0c0 0.552-0.448 1-1 1s-1-0.448-1-1v0zM21.667 17.333h-0.091l5.091 5.091v-9.091h-8c-0.653 0-1.253-0.236-1.717-0.627l2.627 2.627h2.091c0.552 0 1 0.448 1 1s-0.448 1-1 1v0zM16 10.667c0 0.653 0.236 1.253 0.627 1.717l-9.552-9.552c0.288-0.107 0.6-0.165 0.925-0.165h8v8zM18 10.667v-7.333l8 8h-7.333c-0.368 0-0.667-0.298-0.667-0.667v0z"></path>
</svg>
