<!-- Generated by IcoMoon.io -->
<svg version="1.1" xmlns="http://www.w3.org/2000/svg" width="32" height="32" viewBox="0 0 32 32">
<title>document-table-search-filled</title>
<path d="M14.048 24.96h6.112c1.237 0 2.24-1.003 2.24-2.24v0-5.12c0-1.237-1.003-2.24-2.24-2.24v0h-8.32c-0.307 0-0.602 0.063-0.87 0.175-0.95-0.514-2.081-0.815-3.281-0.815-0.003 0-0.006 0-0.009 0h0c-0.002 0-0.004 0-0.007 0-0.681 0-1.34 0.097-1.963 0.277l0.050-0.012v-9.225c0-1.414 1.146-2.56 2.56-2.56v0h7.68v7.68c0 1.414 1.146 2.56 2.56 2.56v0h7.68v12.8c0 1.414-1.146 2.56-2.56 2.56v0h-6.423c-0.073-0.498-0.302-0.933-0.634-1.263l-2.575-2.577zM20.48 21.12v1.6c0 0.177-0.143 0.32-0.32 0.32v0h-4.8v-1.92h5.12zM15.36 19.2v-1.92h4.8c0.177 0 0.32 0.143 0.32 0.32v0 1.6h-5.12zM17.92 3.84v7.040c0 0.353 0.287 0.64 0.64 0.64v0h7.040l-7.68-7.68zM12.375 25.097c0.666-0.928 1.066-2.086 1.066-3.338 0-3.181-2.579-5.76-5.76-5.76s-5.76 2.579-5.76 5.76c0 3.181 2.579 5.76 5.76 5.76 1.252 0 2.41-0.399 3.355-1.077l-0.017 0.012 3.343 3.345c0.176 0.188 0.425 0.306 0.702 0.306 0.53 0 0.96-0.43 0.96-0.96 0-0.277-0.117-0.527-0.305-0.702l-0.001-0-3.343-3.345zM11.52 21.76c0 2.121-1.719 3.84-3.84 3.84s-3.84-1.719-3.84-3.84v0c0-2.121 1.719-3.84 3.84-3.84s3.84 1.719 3.84 3.84v0z"></path>
</svg>
