<!-- Generated by IcoMoon.io -->
<svg version="1.1" xmlns="http://www.w3.org/2000/svg" width="32" height="32" viewBox="0 0 32 32">
<title>document-footer-dismiss-filled</title>
<path d="M30.667 8.669c0 4.051-3.282 7.335-7.331 7.335s-7.331-3.284-7.331-7.335c0-4.051 3.282-7.335 7.331-7.335s7.331 3.284 7.331 7.335zM21.141 5.53c-0.26-0.26-0.682-0.26-0.943 0s-0.26 0.683 0 0.943l2.195 2.196-2.195 2.196c-0.26 0.26-0.26 0.683 0 0.943s0.682 0.26 0.943 0l2.195-2.196 2.195 2.196c0.26 0.26 0.682 0.26 0.943 0s0.26-0.683 0-0.943l-2.195-2.196 2.195-2.196c0.26-0.26 0.26-0.683 0-0.943s-0.682-0.26-0.943 0l-2.195 2.196-2.195-2.196zM23.336 17.338c1.178 0 2.301-0.235 3.325-0.661v9.656c0 1.588-1.233 2.888-2.794 2.994l-0.205 0.007h-15.329c-1.587 0-2.887-1.234-2.992-2.795l-0.007-0.205v-20.67c0-1.588 1.233-2.888 2.794-2.994l0.205-0.007h8.756c-1.497 1.558-2.418 3.675-2.418 6.007 0 4.788 3.879 8.669 8.665 8.669zM11.339 21.339c-1.104 0-1.999 0.896-1.999 2.001s0.895 2.001 1.999 2.001h9.331c1.104 0 1.999-0.896 1.999-2.001s-0.895-2.001-1.999-2.001h-9.331z"></path>
</svg>
