<!-- Generated by IcoMoon.io -->
<svg version="1.1" xmlns="http://www.w3.org/2000/svg" width="32" height="32" viewBox="0 0 32 32">
<title>document-checkmark-filled</title>
<path d="M16 2.667v8c0 1.473 1.194 2.667 2.667 2.667h8v13.333c0 1.473-1.194 2.667-2.667 2.667h-9.079c1.494-1.557 2.413-3.671 2.413-6 0-4.787-3.88-8.667-8.667-8.667-1.181 0-2.307 0.236-3.333 0.664v-9.998c0-1.473 1.194-2.667 2.667-2.667h8zM18 3.333v7.333c0 0.368 0.299 0.667 0.667 0.667h7.333l-8-8zM16 23.333c0 4.050-3.283 7.333-7.333 7.333s-7.333-3.283-7.333-7.333c0-4.050 3.283-7.333 7.333-7.333s7.333 3.283 7.333 7.333zM13.138 20.195c-0.26-0.26-0.682-0.26-0.943 0l-4.862 4.862-2.195-2.195c-0.26-0.26-0.682-0.26-0.943 0s-0.26 0.683 0 0.943l2.667 2.667c0.26 0.26 0.682 0.26 0.943 0l5.333-5.333c0.26-0.26 0.26-0.683 0-0.943z"></path>
</svg>
