<!-- Generated by IcoMoon.io -->
<svg version="1.1" xmlns="http://www.w3.org/2000/svg" width="32" height="32" viewBox="0 0 32 32">
<title>document-prohibited-filled</title>
<path d="M16 2.667v8c0 1.473 1.194 2.667 2.667 2.667v0h8v13.333c0 1.473-1.194 2.667-2.667 2.667v0h-9.080c1.496-1.555 2.417-3.672 2.417-6.004 0-4.786-3.88-8.667-8.667-8.667-1.204 0-2.351 0.246-3.393 0.69l0.057-0.021v-9.997c0-1.473 1.194-2.667 2.667-2.667v0h8zM18 3.333v7.333c0 0.368 0.298 0.667 0.667 0.667v0h7.333l-8-8zM16 23.333c0 4.050-3.283 7.333-7.333 7.333s-7.333-3.283-7.333-7.333v0c0-4.050 3.283-7.333 7.333-7.333s7.333 3.283 7.333 7.333v0zM3.333 23.333c0 1.112 0.34 2.144 0.921 2.997l7.409-7.409c-0.84-0.577-1.878-0.922-2.997-0.922-2.946 0-5.333 2.388-5.333 5.333 0 0 0 0 0 0.001v-0zM8.667 28.667c0 0 0 0 0.001 0 2.946 0 5.333-2.388 5.333-5.333 0-1.119-0.345-2.158-0.934-3.015l0.012 0.018-7.409 7.409c0.837 0.577 1.872 0.921 2.988 0.921 0.003 0 0.006 0 0.010 0h-0.001z"></path>
</svg>
