<!-- Generated by IcoMoon.io -->
<svg version="1.1" xmlns="http://www.w3.org/2000/svg" width="32" height="32" viewBox="0 0 32 32">
<title>document-bullet-list-clock-filled</title>
<path d="M16 10.667v-8h-8c-1.473 0-2.667 1.194-2.667 2.667v0 21.333c0 1.473 1.194 2.667 2.667 2.667v0h9.080c-1.039-1.080-1.802-2.433-2.169-3.941l-0.012-0.059h-0.565c-0.552 0-1-0.448-1-1s0.448-1 1-1v0h0.333c0-0.688 0.080-1.357 0.232-2h-0.565c-0.552 0-1-0.448-1-1s0.448-1 1-1v0h1.309c0.404-0.765 0.882-1.422 1.44-2.003l-0.003 0.003h-2.747c-0.552 0-1-0.448-1-1s0.448-1 1-1v0h5.661c0.983-0.422 2.127-0.667 3.328-0.667 0.004 0 0.008 0 0.011 0h-0.001c1.181 0 2.307 0.236 3.333 0.664v-1.997h-8c-1.473 0-2.667-1.194-2.667-2.667v0zM9.333 16.333c0-0.552 0.448-1 1-1s1 0.448 1 1v0c0 0.552-0.448 1-1 1s-1-0.448-1-1v0zM9.333 20.333c0-0.552 0.448-1 1-1s1 0.448 1 1v0c0 0.552-0.448 1-1 1s-1-0.448-1-1v0zM9.333 24.333c0-0.552 0.448-1 1-1s1 0.448 1 1v0c0 0.552-0.448 1-1 1s-1-0.448-1-1v0zM18 10.667v-7.333l8 8h-7.333c-0.368 0-0.667-0.298-0.667-0.667v0zM30.667 23.333c0-4.050-3.283-7.333-7.333-7.333s-7.333 3.283-7.333 7.333v0c0 4.050 3.283 7.333 7.333 7.333s7.333-3.283 7.333-7.333v0zM22.96 23.891c-0.181-0.121-0.299-0.325-0.299-0.556 0-0.034 0.003-0.067 0.007-0.1l-0 0.004-0.001-5.239c0-0.368 0.298-0.667 0.667-0.667s0.667 0.298 0.667 0.667v0l0.001 4.667h3.328c0.368 0 0.667 0.298 0.667 0.667s-0.298 0.667-0.667 0.667v0h-3.916c-0.023 0.003-0.050 0.005-0.078 0.005-0.14 0-0.27-0.043-0.378-0.115l0.002 0.002z"></path>
</svg>
