<!-- Generated by IcoMoon.io -->
<svg version="1.1" xmlns="http://www.w3.org/2000/svg" width="32" height="32" viewBox="0 0 32 32">
<title>document-text-clock-filled</title>
<path d="M16 10.667v-8h-8c-1.473 0-2.667 1.194-2.667 2.667v0 9.997c0.981-0.42 2.123-0.664 3.321-0.664 0.004 0 0.008 0 0.013 0h-0.001c0.003 0 0.007 0 0.011 0 1.201 0 2.345 0.245 3.384 0.688l-0.056-0.021h8.995c0.552 0 1 0.448 1 1s-0.448 1-1 1v0h-6.080c0.481 0.501 0.904 1.061 1.253 1.667h4.827c0.552 0 1 0.448 1 1s-0.448 1-1 1v0h-3.984c0.149 0.536 0.248 1.093 0.293 1.667h3.691c0.552 0 1 0.448 1 1s-0.448 1-1 1v0h-3.768c-0.291 1.829-1.119 3.428-2.315 4.669l0.003-0.003h9.080c1.473 0 2.667-1.194 2.667-2.667v0-13.333h-8c-1.473 0-2.667-1.194-2.667-2.667v0zM18 10.667v-7.333l8 8h-7.333c-0.368 0-0.667-0.298-0.667-0.667v0zM16 23.333c0-4.050-3.283-7.333-7.333-7.333s-7.333 3.283-7.333 7.333v0c0 4.050 3.283 7.333 7.333 7.333s7.333-3.283 7.333-7.333v0zM8.667 23.333h2.667c0.368 0 0.667 0.298 0.667 0.667s-0.298 0.667-0.667 0.667v0h-3.333c-0.368 0-0.667-0.298-0.667-0.667v0-4c0-0.368 0.298-0.667 0.667-0.667s0.667 0.298 0.667 0.667v0 3.333z"></path>
</svg>
