<!-- Generated by IcoMoon.io -->
<svg version="1.1" xmlns="http://www.w3.org/2000/svg" width="32" height="32" viewBox="0 0 32 32">
<title>document-header-filled</title>
<path d="M23.667 2.667c1.588 0 2.887 1.234 2.993 2.795l0.007 0.205v20.666c0 1.588-1.234 2.888-2.795 2.993l-0.205 0.007h-15.333c-1.588 0-2.888-1.234-2.993-2.795l-0.007-0.205v-20.666c0-1.588 1.234-2.888 2.795-2.993l0.205-0.007h15.333zM11.34 6.673c-1.105 0-2 0.896-2 2s0.895 2 2 2h9.333c1.105 0 2-0.896 2-2s-0.895-2-2-2h-9.333z"></path>
</svg>
