<!-- Generated by IcoMoon.io -->
<svg version="1.1" xmlns="http://www.w3.org/2000/svg" width="32" height="32" viewBox="0 0 32 32">
<title>document-ribbon-filled</title>
<path d="M16 2.667v7.5c0 1.381 1.119 2.5 2.5 2.5v0h8.167v14c0 1.105-0.895 2-2 2v0h-12v-4.445c0.831-1.058 1.333-2.41 1.333-3.878 0-0.003 0-0.007 0-0.010v0.001c0-3.498-2.836-6.333-6.333-6.333v0c-0.002 0-0.005 0-0.007 0-0.838 0-1.637 0.163-2.369 0.459l0.042-0.015v-9.777c0-1.105 0.895-2 2-2v0h8.667zM10 26.223c0.509-0.205 0.949-0.448 1.352-0.738l-0.019 0.013v4.473c0 0 0 0 0 0.001 0 0.383-0.31 0.693-0.693 0.693-0.153 0-0.295-0.050-0.41-0.134l0.002 0.001-2.565-1.866-2.565 1.867c-0.113 0.083-0.255 0.133-0.408 0.133-0.383 0-0.693-0.31-0.693-0.693 0-0 0-0.001 0-0.001v0-4.473c1.017 0.73 2.287 1.168 3.66 1.168 0.002 0 0.005 0 0.007 0h-0c0.002 0 0.004 0 0.007 0 0.838 0 1.637-0.163 2.369-0.459l-0.042 0.015zM7.667 25.333c-2.761 0-5-2.239-5-5v0c0-2.761 2.239-5 5-5v0c2.761 0 5 2.239 5 5s-2.239 5-5 5v0zM17.667 2.976v7.191c0 0.46 0.373 0.833 0.833 0.833h7.808l-8.641-8.024z"></path>
</svg>
