<!-- Generated by IcoMoon.io -->
<svg version="1.1" xmlns="http://www.w3.org/2000/svg" width="32" height="32" viewBox="0 0 32 32">
<title>document-catch-up-filled</title>
<path d="M16 2.667h-8c-1.473 0-2.667 1.194-2.667 2.667v0 10.667h0.803l1.725-3.937c0.777-1.772 3.187-1.851 4.133-0.272l0.039 0.064 0.113 0.235 2.304 5.752 0.461-0.68c0.351-0.596 0.944-1.018 1.64-1.132l0.013-0.002 0.072-0.011 0.245-0.017h2.713c1.288 0.001 2.332 1.045 2.332 2.333 0 1.165-0.853 2.13-1.968 2.305l-0.013 0.002-0.069 0.011-0.236 0.016h-1.387l-2.22 3.471c-0.885 1.584-3.135 1.569-4.036 0.057l-0.037-0.061-0.111-0.229-1.949-4.871-0.104 0.237c-0.318 0.714-0.965 1.231-1.742 1.363l-0.014 0.002-0.075 0.012-0.257 0.019h-2.376v6c0 1.473 1.194 2.667 2.667 2.667v0h16c1.473 0 2.667-1.194 2.667-2.667v0-13.333h-8c0 0 0 0 0 0-1.471 0-2.664-1.191-2.667-2.661v-8.006zM18.667 11.333c-0.368 0-0.667-0.298-0.667-0.667v0-7.333l8 8h-7.333zM7.007 17.333h-3.34l-0.137 0.009-0.013 0.003c-0.482 0.077-0.846 0.49-0.846 0.988 0 0.551 0.446 0.998 0.996 1h3.994l0.148-0.011 0.016-0.003c0.339-0.057 0.617-0.279 0.751-0.579l0.003-0.006 1.379-3.149 3.116 7.78 0.065 0.135 0.007 0.013c0.178 0.291 0.495 0.482 0.855 0.482 0.383 0 0.715-0.215 0.883-0.531l0.003-0.005 2.639-4.125h2.072l0.137-0.009 0.013-0.003c0.482-0.077 0.846-0.49 0.846-0.988 0-0.551-0.446-0.998-0.996-1h-2.667l-0.141 0.009-0.013 0.003c-0.317 0.051-0.581 0.245-0.725 0.513l-0.003 0.005-1.903 2.8-3.217-8.037-0.067-0.137-0.008-0.013c-0.179-0.289-0.494-0.479-0.853-0.479-0.407 0-0.757 0.243-0.913 0.592l-0.003 0.006-2.076 4.737zM7.66 19.333h-2.327z"></path>
</svg>
