<!-- Generated by IcoMoon.io -->
<svg version="1.1" xmlns="http://www.w3.org/2000/svg" width="32" height="32" viewBox="0 0 32 32">
<title>document-save-filled</title>
<path d="M16 2.667v8c0 1.473 1.194 2.667 2.667 2.667h8v13.333c0 1.473-1.194 2.667-2.667 2.667h-6.733c0.044-0.215 0.067-0.438 0.067-0.667v-9.172c0-0.884-0.351-1.732-0.976-2.357l-1.495-1.495c-0.625-0.625-1.473-0.976-2.357-0.976h-7.172v-9.333c0-1.473 1.194-2.667 2.667-2.667h8zM18 3.333v7.333c0 0.368 0.299 0.667 0.667 0.667h7.333l-8-8zM6.667 16h4v2.667h-4v-2.667zM3.333 16h2v3.333c0 0.368 0.298 0.667 0.667 0.667h5.333c0.368 0 0.667-0.299 0.667-0.667v-3.333h0.505c0.53 0 1.039 0.211 1.414 0.586l1.495 1.495c0.375 0.375 0.586 0.884 0.586 1.414v9.172c0 1.105-0.895 2-2 2h-0.667v-7.333c0-0.368-0.298-0.667-0.667-0.667h-8c-0.368 0-0.667 0.299-0.667 0.667v7.333h-0.667c-1.105 0-2-0.895-2-2v-10.667c0-1.105 0.895-2 2-2zM12 24v6.667h-6.667v-6.667h6.667z"></path>
</svg>
