<!-- Generated by IcoMoon.io -->
<svg version="1.1" xmlns="http://www.w3.org/2000/svg" width="32" height="32" viewBox="0 0 32 32">
<title>document-heart-filled</title>
<path d="M16 2.667v8c0 1.473 1.194 2.667 2.667 2.667h8v13.333c0 1.473-1.194 2.667-2.667 2.667h-11.348l4.228-4.228c2.326-2.326 2.326-6.097 0-8.423-2.047-2.047-5.212-2.292-7.528-0.737-1.202-0.808-2.634-1.13-4.019-0.966v-9.647c0-1.473 1.194-2.667 2.667-2.667h8zM18 3.333v7.333c0 0.368 0.299 0.667 0.667 0.667h7.333l-8-8zM9.353 30.333c-0.256 0-0.512-0.098-0.707-0.293l-5.878-5.878c-1.805-1.805-1.805-4.732 0-6.537s4.732-1.805 6.537 0l0.048 0.048 0.048-0.048c1.805-1.805 4.732-1.805 6.537 0s1.805 4.732 0 6.537l-5.878 5.878c-0.195 0.195-0.451 0.293-0.707 0.293z"></path>
</svg>
