<!-- Generated by IcoMoon.io -->
<svg version="1.1" xmlns="http://www.w3.org/2000/svg" width="32" height="32" viewBox="0 0 32 32">
<title>document-text-extract-filled</title>
<path d="M16 10.667v-8h-8c-1.473 0-2.667 1.194-2.667 2.667v12.667h8.667c1.473 0 2.667 1.194 2.667 2.667s-1.194 2.667-2.667 2.667h-8.667v3.333c0 1.473 1.194 2.667 2.667 2.667h16c1.473 0 2.667-1.194 2.667-2.667v-13.333h-8c-1.473 0-2.667-1.194-2.667-2.667zM10 15.667c0-0.552 0.448-1 1-1h10c0.552 0 1 0.448 1 1s-0.448 1-1 1h-10c-0.552 0-1-0.448-1-1zM10 25.667c0-0.552 0.448-1 1-1h10c0.552 0 1 0.448 1 1s-0.448 1-1 1h-10c-0.552 0-1-0.448-1-1zM18 10.667v-7.333l8 8h-7.333c-0.368 0-0.667-0.298-0.667-0.667zM3.667 19.667c-0.552 0-1 0.448-1 1s0.448 1 1 1h10c0.552 0 1-0.448 1-1s-0.448-1-1-1h-10z"></path>
</svg>
