<!-- Generated by IcoMoon.io -->
<svg version="1.1" xmlns="http://www.w3.org/2000/svg" width="32" height="32" viewBox="0 0 32 32">
<title>document-multiple-prohibited-filled</title>
<path d="M17.333 9v-6.333h-5.667c-1.657 0-3 1.343-3 3v0 9c0.001 0 0.002 0 0.003 0 4.786 0 8.667 3.88 8.667 8.667 0 0.953-0.154 1.87-0.438 2.728l0.018-0.061h6.751c1.657 0 3-1.343 3-3v0-11h-6.333c-1.657 0-3-1.343-3-3v0zM7.337 6.169l-0.003 8.6c-0.75 0.117-1.423 0.312-2.058 0.581l0.056-0.021v-6.329c0-1.307 0.836-2.42 2.004-2.831zM20.325 29.339h-5.411c0.557-0.578 1.036-1.235 1.417-1.953l0.023-0.047h6.8c-0.425 1.175-1.531 2-2.829 2v0zM19.333 9v-5.667l6.667 6.667h-5.667c-0.552 0-1-0.448-1-1v0zM16 23.333c0 4.050-3.283 7.333-7.333 7.333s-7.333-3.283-7.333-7.333v0c0-4.050 3.283-7.333 7.333-7.333s7.333 3.283 7.333 7.333v0zM3.333 23.333c0 1.112 0.34 2.144 0.921 2.997l7.409-7.409c-0.84-0.577-1.878-0.922-2.997-0.922-2.946 0-5.333 2.388-5.333 5.333 0 0 0 0 0 0.001v-0zM8.667 28.667c0 0 0 0 0.001 0 2.946 0 5.333-2.388 5.333-5.333 0-1.119-0.345-2.158-0.934-3.015l0.012 0.018-7.409 7.409c0.837 0.577 1.872 0.921 2.988 0.921 0.003 0 0.006 0 0.010 0h-0.001z"></path>
</svg>
