<!-- Generated by IcoMoon.io -->
<svg version="1.1" xmlns="http://www.w3.org/2000/svg" width="32" height="32" viewBox="0 0 32 32">
<title>document-question-mark-filled</title>
<path d="M16 2.667v8c0 1.473 1.194 2.667 2.667 2.667h8v13.333c0 1.473-1.194 2.667-2.667 2.667h-9.079c1.494-1.557 2.413-3.671 2.413-6 0-4.787-3.88-8.667-8.667-8.667-1.181 0-2.307 0.236-3.333 0.664v-9.998c0-1.473 1.194-2.667 2.667-2.667h8zM18 3.333v7.333c0 0.368 0.299 0.667 0.667 0.667h7.333l-8-8zM1.333 23.333c0 4.050 3.283 7.333 7.333 7.333s7.333-3.283 7.333-7.333c0-4.050-3.283-7.333-7.333-7.333s-7.333 3.283-7.333 7.333zM7.667 27.667c0-0.552 0.448-1 1-1s1 0.448 1 1c0 0.552-0.448 1-1 1s-1-0.448-1-1zM6 21.333c0-1.473 1.194-2.667 2.667-2.667s2.667 1.194 2.667 2.667c0 0.974-0.282 1.52-1.005 2.277l-0.352 0.359-0.155 0.167c-0.378 0.424-0.488 0.703-0.488 1.197 0 0.368-0.298 0.667-0.667 0.667s-0.667-0.299-0.667-0.667c0-0.974 0.282-1.52 1.005-2.277l0.352-0.359 0.155-0.167c0.378-0.424 0.488-0.703 0.488-1.197 0-0.736-0.597-1.333-1.333-1.333s-1.333 0.597-1.333 1.333c0 0.368-0.298 0.667-0.667 0.667s-0.667-0.299-0.667-0.667z"></path>
</svg>
