<!-- Generated by IcoMoon.io -->
<svg version="1.1" xmlns="http://www.w3.org/2000/svg" width="32" height="32" viewBox="0 0 32 32">
<title>document-multiple-percent-filled</title>
<path d="M5.333 5.667c0-1.657 1.343-3 3-3h5.672v6.33c0 1.657 1.343 3 3 3h6.328v11.003c0 1.657-1.343 3-3 3h-3.193c-0.574-1.928-2.359-3.333-4.473-3.333l-0.034 0 2.684-2.684c0.911-0.911 0.911-2.389 0-3.3s-2.389-0.911-3.3 0l-2.684 2.683 0-0.034c0-2.351-1.738-4.296-4-4.619v-9.047zM17.333 27.333c0 0.716-0.161 1.394-0.449 2h3.45c3.498 0 6.333-2.835 6.333-6.333v-7.841c0-0.796-0.316-1.559-0.879-2.121l-1.121-1.121v11.084c0 2.393-1.94 4.333-4.333 4.333h-3.001zM16.005 8.997v-5.707c0.102 0.078 0.199 0.164 0.291 0.256l6.159 6.158c0.092 0.092 0.178 0.19 0.257 0.293h-5.707c-0.552 0-1-0.448-1-1zM4.667 22.667c1.841 0 3.333-1.492 3.333-3.333s-1.492-3.333-3.333-3.333c-1.841 0-3.333 1.492-3.333 3.333s1.492 3.333 3.333 3.333zM4.667 18c0.736 0 1.333 0.597 1.333 1.333s-0.597 1.333-1.333 1.333c-0.736 0-1.333-0.597-1.333-1.333s0.597-1.333 1.333-1.333zM12.667 30.667c1.841 0 3.333-1.492 3.333-3.333s-1.492-3.333-3.333-3.333c-1.841 0-3.333 1.492-3.333 3.333s1.492 3.333 3.333 3.333zM12.667 26c0.736 0 1.333 0.597 1.333 1.333s-0.597 1.333-1.333 1.333c-0.736 0-1.333-0.597-1.333-1.333s0.597-1.333 1.333-1.333zM14.374 19.040c0.391-0.391 0.391-1.024 0-1.414s-1.024-0.391-1.414 0l-10 10c-0.391 0.391-0.391 1.024 0 1.414s1.024 0.391 1.414 0l10-10z"></path>
</svg>
