<!-- Generated by IcoMoon.io -->
<svg version="1.1" xmlns="http://www.w3.org/2000/svg" width="32" height="32" viewBox="0 0 32 32">
<title>document-header-footer-filled</title>
<path d="M23.667 2.667c0 0 0 0 0 0 1.585 0 2.882 1.229 2.992 2.785l0.001 0.010 0.007 0.205v20.667c0 0 0 0 0 0 0 1.585-1.229 2.882-2.785 2.992l-0.010 0.001-0.205 0.007h-15.333c-0 0-0 0-0 0-1.585 0-2.882-1.229-2.992-2.785l-0.001-0.010-0.007-0.205v-20.667c0-0 0-0 0-0 0-1.585 1.229-2.882 2.785-2.992l0.010-0.001 0.205-0.007h15.333zM9.34 8.673c0 1.105 0.895 2 2 2v0h9.333c1.105 0 2-0.895 2-2s-0.895-2-2-2v0h-9.333c-1.105 0-2 0.895-2 2v0zM9.34 23.34c0 1.105 0.895 2 2 2v0h9.333c1.105 0 2-0.895 2-2s-0.895-2-2-2v0h-9.333c-1.105 0-2 0.895-2 2v0z"></path>
</svg>
