<!-- Generated by IcoMoon.io -->
<svg version="1.1" xmlns="http://www.w3.org/2000/svg" width="32" height="32" viewBox="0 0 32 32">
<title>document-header-arrow-down-filled</title>
<path d="M23.667 2.667c0 0 0 0 0 0 1.585 0 2.882 1.229 2.992 2.785l0.001 0.010 0.007 0.205v9.664c-0.986-0.422-2.132-0.668-3.337-0.668-4.786 0-8.667 3.88-8.667 8.667 0 2.332 0.921 4.449 2.419 6.007l-0.003-0.003h-8.747c-0 0-0 0-0 0-1.585 0-2.882-1.229-2.992-2.785l-0.001-0.010-0.007-0.205v-20.667c0-0 0-0 0-0 0-1.585 1.229-2.882 2.785-2.992l0.010-0.001 0.205-0.007h15.333zM11.34 6.673c-1.105 0-2 0.895-2 2s0.895 2 2 2h9.333c1.105 0 2-0.895 2-2s-0.895-2-2-2v0h-9.333zM30.667 23.333c0 4.050-3.283 7.333-7.333 7.333s-7.333-3.283-7.333-7.333v0c0-4.050 3.283-7.333 7.333-7.333s7.333 3.283 7.333 7.333v0zM24 19.333c0-0.368-0.298-0.667-0.667-0.667s-0.667 0.298-0.667 0.667v0 6.391l-2.195-2.196c-0.121-0.121-0.288-0.195-0.472-0.195-0.369 0-0.668 0.299-0.668 0.668 0 0.184 0.075 0.351 0.195 0.472l3.333 3.333c0.121 0.121 0.288 0.196 0.472 0.196s0.351-0.075 0.472-0.196v0l3.333-3.333c0.121-0.121 0.195-0.288 0.195-0.472 0-0.369-0.299-0.668-0.668-0.668-0.184 0-0.351 0.075-0.472 0.195l-2.195 2.196v-6.391z"></path>
</svg>
