<!-- Generated by IcoMoon.io -->
<svg version="1.1" xmlns="http://www.w3.org/2000/svg" width="32" height="32" viewBox="0 0 32 32">
<title>document-bullet-list-off-filled</title>
<path d="M5.333 6.748v19.919c0 1.473 1.194 2.667 2.667 2.667h16c1.060 0 1.975-0.618 2.405-1.513l1.221 1.221c0.391 0.391 1.024 0.391 1.414 0s0.391-1.024 0-1.414l-24.666-24.667c-0.391-0.391-1.024-0.391-1.414-0s-0.391 1.024-0 1.414l2.374 2.374zM21.964 23.378l0.658 0.658c0.029 0.094 0.045 0.193 0.045 0.297 0 0.552-0.448 1-1 1h-7.333c-0.552 0-1-0.448-1-1s0.448-1 1-1h7.333c0.103 0 0.203 0.016 0.297 0.045zM19.919 21.333h-5.585c-0.552 0-1-0.448-1-1s0.448-1 1-1h3.585l2 2zM15.919 17.333h-1.585c-0.552 0-1-0.448-1-1 0-0.429 0.27-0.795 0.649-0.937l1.937 1.937zM9.333 16.333c0-0.552 0.448-1 1-1s1 0.448 1 1c0 0.552-0.448 1-1 1s-1-0.448-1-1zM9.333 20.333c0-0.552 0.448-1 1-1s1 0.448 1 1c0 0.552-0.448 1-1 1s-1-0.448-1-1zM9.333 24.333c0-0.552 0.448-1 1-1s1 0.448 1 1c0 0.552-0.448 1-1 1s-1-0.448-1-1zM21.667 17.333h-0.091l5.091 5.091v-9.091h-8c-0.654 0-1.254-0.236-1.718-0.627l2.627 2.627h2.091c0.552 0 1 0.448 1 1s-0.448 1-1 1zM16 10.667c0 0.654 0.236 1.254 0.627 1.718l-9.552-9.553c0.288-0.107 0.6-0.165 0.926-0.165h8v8zM18 10.667v-7.333l8 8h-7.333c-0.368 0-0.667-0.298-0.667-0.667z"></path>
</svg>
