<!-- Generated by IcoMoon.io -->
<svg version="1.1" xmlns="http://www.w3.org/2000/svg" width="32" height="32" viewBox="0 0 32 32">
<title>document-data-filled</title>
<path d="M17 9v-7h-9c-1.657 0-3 1.343-3 3v0 22c0 1.657 1.343 3 3 3v0h16c1.657 0 3-1.343 3-3v0-15h-7c-1.657 0-3-1.343-3-3v0zM16 15c0.552 0 1 0.448 1 1v0 9c0 0.552-0.448 1-1 1s-1-0.448-1-1v0-9c0-0.552 0.448-1 1-1v0zM12 21c0.552 0 1 0.448 1 1v0 3c0 0.552-0.448 1-1 1s-1-0.448-1-1v0-3c0-0.552 0.448-1 1-1v0zM20 18c0.552 0 1 0.448 1 1v0 6c0 0.552-0.448 1-1 1s-1-0.448-1-1v0-6c0-0.552 0.448-1 1-1v0zM19 9v-6.883c0.508 0.149 0.943 0.413 1.293 0.762l5.828 5.828c0.349 0.35 0.613 0.785 0.757 1.272l0.005 0.021h-6.883c-0.552 0-1-0.448-1-1v0z"></path>
</svg>
