<!-- Generated by IcoMoon.io -->
<svg version="1.1" xmlns="http://www.w3.org/2000/svg" width="32" height="32" viewBox="0 0 32 32">
<title>document-lock-filled</title>
<path d="M16 2.667v7.5c0 1.381 1.119 2.5 2.5 2.5v0h8.167v14c0 1.105-0.895 2-2 2v0h-8.667v-6.667c-0-1.619-1.154-2.969-2.685-3.271l-0.021-0.003c-0.312-2.302-2.264-4.058-4.627-4.058-1.305 0-2.485 0.536-3.332 1.4l-0.001 0.001v-11.401c0-1.105 0.895-2 2-2v0h8.667zM17.667 2.976v7.191c0 0.46 0.373 0.833 0.833 0.833h7.808l-8.641-8.024zM5.333 20h-0.667c-1.105 0-2 0.895-2 2v0 6.667c0 1.105 0.895 2 2 2v0h8c1.105 0 2-0.895 2-2v0-6.667c0-1.105-0.895-2-2-2v0h-0.667v-0.667c0-1.841-1.492-3.333-3.333-3.333s-3.333 1.492-3.333 3.333v0 0.667zM7 19.333c0-0.92 0.746-1.667 1.667-1.667s1.667 0.746 1.667 1.667v0 0.667h-3.333v-0.667zM10.667 25.333c0 1.105-0.895 2-2 2s-2-0.895-2-2v0c0-1.105 0.895-2 2-2s2 0.895 2 2v0z"></path>
</svg>
