<!-- Generated by IcoMoon.io -->
<svg version="1.1" xmlns="http://www.w3.org/2000/svg" width="32" height="32" viewBox="0 0 32 32">
<title>document-landscape-split-filled</title>
<path d="M17 5.333h1.667v8c0 1.473 1.194 2.667 2.667 2.667v0h8v8c0 1.473-1.194 2.667-2.667 2.667v0h-9.667c-0.552 0-1-0.448-1-1v0-19.333c0-0.552 0.448-1 1-1v0zM28.649 13.903l0.093 0.097h-7.409c-0.368 0-0.667-0.298-0.667-0.667v0-7.409c0.033 0.031 0.067 0.061 0.097 0.093l7.885 7.885zM4.667 13.667c0-0.552-0.448-1-1-1s-1 0.448-1 1v0 4.667c0 0.552 0.448 1 1 1s1-0.448 1-1v0-4.667zM9.333 6.333c0-0.552 0.448-1 1-1v0h2.667c0.552 0 1 0.448 1 1s-0.448 1-1 1v0h-2.667c-0.552 0-1-0.448-1-1v0zM10.333 24.667c-0.552 0-1 0.448-1 1s0.448 1 1 1v0h2.667c0.552 0 1-0.448 1-1s-0.448-1-1-1v0h-2.667zM2.667 8c0-1.473 1.194-2.667 2.667-2.667v0h1c0.552 0 1 0.448 1 1s-0.448 1-1 1v0h-1c-0.368 0-0.667 0.298-0.667 0.667v0 1.667c0 0.552-0.448 1-1 1s-1-0.448-1-1v0-1.667zM5.333 26.667c-1.473 0-2.667-1.194-2.667-2.667v0-1.667c0-0.552 0.448-1 1-1s1 0.448 1 1v0 1.667c0 0.368 0.298 0.667 0.667 0.667v0h1c0.552 0 1 0.448 1 1s-0.448 1-1 1v0h-1z"></path>
</svg>
