<!-- Generated by IcoMoon.io -->
<svg version="1.1" xmlns="http://www.w3.org/2000/svg" width="32" height="32" viewBox="0 0 32 32">
<title>document-ribbon-filled</title>
<path d="M16 2.667v8.001c0 1.473 1.194 2.667 2.667 2.667h8v13.335c0 1.473-1.194 2.667-2.667 2.667h-12v-4.896c0.834-1.031 1.333-2.343 1.333-3.772 0-3.314-2.686-6.001-6-6.001-0.701 0-1.374 0.12-2 0.341v-9.676c0-1.473 1.194-2.667 2.667-2.667h8zM18 3.333v7.334c0 0.368 0.299 0.667 0.667 0.667h7.333l-8-8.001zM12 20.669c0 2.578-2.089 4.667-4.667 4.667s-4.667-2.090-4.667-4.667c0-2.578 2.089-4.667 4.667-4.667s4.667 2.090 4.667 4.667zM4 25.659v4.059c0 0.843 1.020 1.266 1.616 0.669l1.717-1.717 1.717 1.717c0.596 0.596 1.616 0.174 1.616-0.669v-4.059c-0.953 0.638-2.1 1.011-3.333 1.011s-2.38-0.372-3.333-1.011z"></path>
</svg>
