<!-- Generated by IcoMoon.io -->
<svg version="1.1" xmlns="http://www.w3.org/2000/svg" width="32" height="32" viewBox="0 0 32 32">
<title>document-pdf-filled</title>
<path d="M9 16c-0.552 0-1 0.448-1 1v0 5c0 0.552 0.448 1 1 1s1-0.448 1-1v0-1h0.5c1.381 0 2.5-1.119 2.5-2.5s-1.119-2.5-2.5-2.5v0h-1.5zM10.5 19h-0.5v-1h0.5c0.276 0 0.5 0.224 0.5 0.5s-0.224 0.5-0.5 0.5v0zM14 17c0-0.552 0.448-1 1-1v0h0.5c1.933 0 3.5 1.567 3.5 3.5s-1.567 3.5-3.5 3.5v0h-0.5c-0.552 0-1-0.448-1-1v0-5zM16 20.915c0.589-0.212 1.002-0.765 1.002-1.415s-0.413-1.203-0.992-1.412l-0.010-0.003v2.83zM20 22v-5c0-0.552 0.448-1 1-1v0h3c0.552 0 1 0.448 1 1s-0.448 1-1 1v0h-2v1h2c0.552 0 1 0.448 1 1s-0.448 1-1 1v0h-2v1c0 0.552-0.448 1-1 1s-1-0.448-1-1v0zM17 9v-7h-9c-1.657 0-3 1.343-3 3v0 8c-1.105 0-2 0.895-2 2v0 9c0 1.105 0.895 2 2 2v0 1c0 1.657 1.343 3 3 3v0h16c1.657 0 3-1.343 3-3v0-1c1.105 0 2-0.895 2-2v0-9c0-1.105-0.895-2-2-2v0-1h-7c-1.657 0-3-1.343-3-3v0zM27 15v9h-22v-9h22zM19 9v-6.883c0.508 0.149 0.943 0.413 1.293 0.762l5.828 5.828c0.349 0.35 0.613 0.785 0.757 1.272l0.005 0.021h-6.883c-0.552 0-1-0.448-1-1v0z"></path>
</svg>
