<!-- Generated by IcoMoon.io -->
<svg version="1.1" xmlns="http://www.w3.org/2000/svg" width="32" height="32" viewBox="0 0 32 32">
<title>document-table-checkmark-filled</title>
<path d="M20.667 23v-1.667h-3.565c0.152 0.642 0.232 1.312 0.232 2h3c0.184 0 0.333-0.149 0.333-0.333zM20.667 19.333h-4.31c-0.287-0.55-0.631-1.065-1.024-1.538v-0.462h5c0.184 0 0.333 0.149 0.333 0.333v1.667zM8.667 14.667c1.183 0 2.312 0.237 3.339 0.667h8.327c1.289 0 2.333 1.045 2.333 2.333v5.333c0 1.289-1.045 2.333-2.333 2.333h-3.232c-0.361 1.53-1.128 2.903-2.181 4h9.079c1.473 0 2.667-1.194 2.667-2.667v-13.333h-8c-1.473 0-2.667-1.194-2.667-2.667v-8h-8c-1.473 0-2.667 1.194-2.667 2.667v9.998c1.026-0.428 2.152-0.664 3.333-0.664zM18 10.667v-7.333l8 8h-7.333c-0.368 0-0.667-0.298-0.667-0.667zM16 23.333c0 4.050-3.283 7.333-7.333 7.333s-7.333-3.283-7.333-7.333c0-4.050 3.283-7.333 7.333-7.333s7.333 3.283 7.333 7.333zM13.138 20.195c-0.26-0.26-0.682-0.26-0.943 0l-4.862 4.862-2.195-2.195c-0.26-0.26-0.682-0.26-0.943 0s-0.26 0.683 0 0.943l2.667 2.667c0.26 0.26 0.682 0.26 0.943 0l5.333-5.333c0.26-0.26 0.26-0.683 0-0.943z"></path>
</svg>
