<!-- Generated by IcoMoon.io -->
<svg version="1.1" xmlns="http://www.w3.org/2000/svg" width="32" height="32" viewBox="0 0 32 32">
<title>document-page-bottom-right-filled</title>
<path d="M17.675 22.509l0.317-2h1.975l-0.316 2h-1.976zM23.667 2.667c0 0 0 0 0 0 1.585 0 2.882 1.229 2.992 2.785l0.001 0.010 0.007 0.205v20.664c0 0 0 0 0 0 0 1.585-1.229 2.882-2.785 2.992l-0.010 0.001-0.205 0.007h-15.333c-0 0-0 0-0 0-1.585 0-2.882-1.229-2.992-2.785l-0.001-0.010-0.007-0.205v-20.664c0-0 0-0 0-0 0-1.585 1.229-2.882 2.785-2.992l0.010-0.001 0.205-0.007h15.333zM19.193 25.391c-0.008 0.047-0.012 0.101-0.012 0.156 0 0.552 0.448 1 1 1 0.497 0 0.91-0.363 0.987-0.838l0.001-0.006 0.189-1.193h0.975c0.552 0 1-0.448 1-1s-0.448-1-1-1v0h-0.659l0.317-2h1.008c0.552 0 1-0.448 1-1s-0.448-1-1-1v0h-0.692l0.216-1.367c0.011-0.055 0.017-0.119 0.017-0.185 0-0.552-0.448-1-1-1-0.507 0-0.926 0.378-0.991 0.867l-0.001 0.005-0.267 1.679h-1.973l0.215-1.367c0.011-0.055 0.017-0.119 0.017-0.185 0-0.552-0.448-1-1-1-0.507 0-0.926 0.378-0.991 0.867l-0.001 0.005-0.267 1.679h-1.283c-0.552 0-1 0.448-1 1s0.448 1 1 1v0h0.967l-0.316 2h-1.317c-0.552 0-1 0.448-1 1s0.448 1 1 1v0h1l-0.14 0.88c-0.008 0.047-0.012 0.101-0.012 0.157 0 0.552 0.448 1 1 1 0.497 0 0.91-0.363 0.987-0.838l0.001-0.006 0.189-1.193h1.975l-0.14 0.88z"></path>
</svg>
