<!-- Generated by IcoMoon.io -->
<svg version="1.1" xmlns="http://www.w3.org/2000/svg" width="32" height="32" viewBox="0 0 32 32">
<title>document-toolbox-filled</title>
<path d="M16 2.667v8c0 1.473 1.194 2.667 2.667 2.667h8v14c0 1.105-0.895 2-2 2h-7.333v-6.669c0-1.473-1.194-2.665-2.667-2.665h-1.333v-1.333c0-1.473-1.194-2.667-2.667-2.667h-4c-0.486 0-0.941 0.13-1.333 0.357v-11.69c0-1.105 0.895-2 2-2h8.667z"></path>
<path d="M18 3.333v7.333c0 0.368 0.299 0.667 0.667 0.667h7.333l-8-8z"></path>
<path d="M5.333 21.333v-2c0-1.105 0.895-2 2-2h2.667c1.105 0 2 0.895 2 2v2h2c1.105 0 2 0.895 2 2v2h-4v-0.667c0-0.368-0.298-0.667-0.667-0.667s-0.667 0.299-0.667 0.667v0.667h-4v-0.667c0-0.368-0.298-0.667-0.667-0.667s-0.667 0.299-0.667 0.667v0.667h-4v-2c0-1.105 0.895-2 2-2h2zM6.667 19.333v2h4v-2c0-0.368-0.298-0.667-0.667-0.667h-2.667c-0.368 0-0.667 0.299-0.667 0.667z"></path>
<path d="M12 26.667h4v2c0 1.105-0.895 2-2 2h-10.667c-1.105 0-2-0.895-2-2v-2h4v0.667c0 0.368 0.298 0.667 0.667 0.667s0.667-0.299 0.667-0.667v-0.667h4v0.667c0 0.368 0.298 0.667 0.667 0.667s0.667-0.299 0.667-0.667v-0.667z"></path>
</svg>
