<!-- Generated by IcoMoon.io -->
<svg version="1.1" xmlns="http://www.w3.org/2000/svg" width="32" height="32" viewBox="0 0 32 32">
<title>document-header-dismiss-filled</title>
<path d="M23.662 2.667c1.587 0 2.887 1.233 2.992 2.794l0.007 0.205v9.665c-1.024-0.426-2.147-0.661-3.325-0.661-4.785 0-8.665 3.879-8.665 8.665 0 2.324 0.915 4.435 2.404 5.991h-8.743c-1.587 0-2.887-1.233-2.992-2.794l-0.007-0.205v-20.66c0-1.588 1.233-2.887 2.794-2.992l0.205-0.007h15.329zM11.339 6.671c-1.104 0-1.999 0.895-1.999 2s0.895 2 1.999 2h9.331c1.104 0 1.999-0.895 1.999-2s-0.895-2-1.999-2h-9.331zM30.667 23.335c0 4.049-3.282 7.332-7.331 7.332s-7.331-3.283-7.331-7.332c0-4.049 3.282-7.332 7.331-7.332s7.331 3.283 7.331 7.332zM21.141 20.197c-0.26-0.26-0.682-0.26-0.943 0s-0.26 0.682 0 0.943l2.195 2.195-2.195 2.195c-0.26 0.26-0.26 0.682 0 0.943s0.682 0.26 0.943 0l2.195-2.195 2.195 2.195c0.26 0.26 0.682 0.26 0.943 0s0.26-0.682 0-0.943l-2.195-2.195 2.195-2.195c0.26-0.26 0.26-0.682 0-0.943s-0.682-0.26-0.943 0l-2.195 2.195-2.195-2.195z"></path>
</svg>
