<!-- Generated by IcoMoon.io -->
<svg version="1.1" xmlns="http://www.w3.org/2000/svg" width="32" height="32" viewBox="0 0 32 32">
<title>document-arrow-up-filled</title>
<path d="M16 3.2v7.2c0 1.325 1.075 2.4 2.4 2.4v0h7.2v13.6c0 1.325-1.075 2.4-2.4 2.4v0h-7.611c1.254-1.51 2.015-3.468 2.015-5.603 0-4.86-3.94-8.8-8.8-8.8-0.856 0-1.683 0.122-2.466 0.35l0.062-0.016v-9.131c0-1.325 1.075-2.4 2.4-2.4v0h7.2zM17.6 3.6v6.8c0 0.442 0.358 0.8 0.8 0.8v0h6.8l-7.6-7.6zM8.8 30.4c3.976 0 7.2-3.224 7.2-7.2s-3.224-7.2-7.2-7.2v0c-3.976 0-7.2 3.224-7.2 7.2s3.224 7.2 7.2 7.2v0zM12.566 22.634c0.145 0.145 0.235 0.345 0.235 0.566 0 0.442-0.359 0.801-0.801 0.801-0.221 0-0.421-0.090-0.566-0.235v0l-1.834-1.835v4.469c0 0.442-0.358 0.8-0.8 0.8s-0.8-0.358-0.8-0.8v0-4.469l-1.834 1.835c-0.145 0.145-0.345 0.235-0.566 0.235-0.442 0-0.8-0.358-0.8-0.8 0-0.221 0.089-0.421 0.234-0.566v0l3.2-3.2c0.144-0.144 0.342-0.234 0.561-0.235h0.010c0.217 0.001 0.414 0.089 0.557 0.23l3.205 3.205z"></path>
</svg>
