<!-- Generated by IcoMoon.io -->
<svg version="1.1" xmlns="http://www.w3.org/2000/svg" width="32" height="32" viewBox="0 0 32 32">
<title>document-text-clock-filled</title>
<path d="M16 10.667v-8h-8c-1.473 0-2.667 1.194-2.667 2.667v9.998c1.026-0.428 2.152-0.664 3.333-0.664 1.183 0 2.312 0.237 3.339 0.667h8.994c0.552 0 1 0.448 1 1s-0.448 1-1 1h-6.079c0.481 0.502 0.903 1.061 1.253 1.667h4.826c0.552 0 1 0.448 1 1s-0.448 1-1 1h-3.984c0.15 0.536 0.249 1.094 0.293 1.667h3.692c0.552 0 1 0.448 1 1s-0.448 1-1 1h-3.769c-0.278 1.797-1.107 3.413-2.311 4.667h9.079c1.473 0 2.667-1.194 2.667-2.667v-13.333h-8c-1.473 0-2.667-1.194-2.667-2.667zM18 10.667v-7.333l8 8h-7.333c-0.368 0-0.667-0.298-0.667-0.667zM16 23.333c0-4.050-3.283-7.333-7.333-7.333s-7.333 3.283-7.333 7.333c0 4.050 3.283 7.333 7.333 7.333s7.333-3.283 7.333-7.333zM8.667 23.333h2.667c0.368 0 0.667 0.298 0.667 0.667s-0.298 0.667-0.667 0.667h-3.333c-0.368 0-0.667-0.299-0.667-0.667v-4c0-0.368 0.298-0.667 0.667-0.667s0.667 0.299 0.667 0.667v3.334z"></path>
</svg>
