<!-- Generated by IcoMoon.io -->
<svg version="1.1" xmlns="http://www.w3.org/2000/svg" width="32" height="32" viewBox="0 0 32 32">
<title>document-table-search-filled</title>
<path d="M13.967 25.333h6.367c1.289 0 2.333-1.045 2.333-2.333v-5.333c0-1.289-1.045-2.333-2.333-2.333h-8.667c-0.321 0-0.627 0.065-0.905 0.182-1.023-0.542-2.19-0.849-3.428-0.849-0.693 0-1.364 0.096-2 0.276v-9.609c0-1.473 1.194-2.667 2.667-2.667h8v8c0 1.473 1.194 2.667 2.667 2.667h8v13.333c0 1.473-1.194 2.667-2.667 2.667h-6.69c-0.069-0.482-0.289-0.946-0.66-1.317l-2.683-2.683zM20.667 21.333v1.667c0 0.184-0.149 0.333-0.333 0.333h-5v-2h5.333zM15.333 19.333v-2h5c0.184 0 0.333 0.149 0.333 0.333v1.667h-5.333zM18 3.333v7.333c0 0.368 0.299 0.667 0.667 0.667h7.333l-8-8zM12.224 25.477c0.698-0.981 1.109-2.181 1.109-3.477 0-3.314-2.686-6-6-6s-6 2.686-6 6c0 3.314 2.686 6 6 6 1.296 0 2.496-0.411 3.477-1.109l3.483 3.483c0.391 0.391 1.024 0.391 1.414 0s0.391-1.024 0-1.414l-3.483-3.483zM11.333 22c0 2.209-1.791 4-4 4s-4-1.791-4-4c0-2.209 1.791-4 4-4s4 1.791 4 4z"></path>
</svg>
