<!-- Generated by IcoMoon.io -->
<svg version="1.1" xmlns="http://www.w3.org/2000/svg" width="32" height="32" viewBox="0 0 32 32">
<title>document-flowchart-filled</title>
<path d="M16 10.667v-8h-8c-1.473 0-2.667 1.194-2.667 2.667v21.333c0 1.473 1.194 2.667 2.667 2.667h16c1.473 0 2.667-1.194 2.667-2.667v-13.333h-8c-1.473 0-2.667-1.194-2.667-2.667zM8.667 11c0-0.552 0.448-1 1-1h3.333c0.552 0 1 0.448 1 1v3.333c0 0.552-0.448 1-1 1h-0.667v3.586l2.081 2.081h3.586v-0.667c0-0.552 0.448-1 1-1h3.333c0.552 0 1 0.448 1 1v3.333c0 0.552-0.448 1-1 1h-3.333c-0.552 0-1-0.448-1-1v-0.667h-3.586l-2.374 2.374c-0.391 0.391-1.024 0.391-1.414 0l-2.667-2.667c-0.391-0.391-0.391-1.024 0-1.414l2.374-2.374v-3.586h-0.667c-0.552 0-1-0.448-1-1v-3.333zM18 10.667v-7.333l8 8h-7.333c-0.368 0-0.667-0.298-0.667-0.667z"></path>
</svg>
