<!-- Generated by IcoMoon.io -->
<svg version="1.1" xmlns="http://www.w3.org/2000/svg" width="32" height="32" viewBox="0 0 32 32">
<title>document-settings-filled</title>
<path d="M16 3.2v7.2c0 1.325 1.075 2.4 2.4 2.4v0h7.2v13.6c0 1.325-1.075 2.4-2.4 2.4v0h-9.339c2.278-1.612 3.747-4.237 3.747-7.205 0-4.86-3.94-8.8-8.8-8.8-0.857 0-1.686 0.123-2.47 0.351l0.062-0.016v-7.531c0-1.325 1.075-2.4 2.4-2.4v0h7.2zM17.6 3.6v6.8c0 0.442 0.358 0.8 0.8 0.8v0h6.8l-7.6-7.6zM4.904 16.707c0.076 0.259 0.119 0.557 0.119 0.865 0 1.486-1.012 2.735-2.385 3.095l-0.022 0.005-0.739 0.189c-0.023 0.222-0.036 0.479-0.036 0.739 0 0.312 0.019 0.62 0.056 0.923l-0.004-0.036 0.56 0.133c1.423 0.345 2.464 1.608 2.464 3.114 0 0.327-0.049 0.642-0.14 0.939l0.006-0.023-0.203 0.675c0.413 0.326 0.859 0.605 1.336 0.829l0.52-0.55c0.585-0.618 1.411-1.003 2.326-1.003 0.917 0 1.745 0.386 2.328 1.005l0.001 0.002 0.539 0.573c0.467-0.216 0.909-0.483 1.315-0.797l-0.25-0.89c-0.076-0.26-0.119-0.558-0.119-0.866 0-1.486 1.012-2.735 2.385-3.095l0.022-0.005 0.736-0.187c0.023-0.222 0.036-0.479 0.036-0.74 0-0.313-0.019-0.621-0.056-0.924l0.004 0.036-0.557-0.131c-1.423-0.345-2.464-1.608-2.464-3.114 0-0.327 0.049-0.643 0.14-0.94l-0.006 0.023 0.202-0.675c-0.388-0.309-0.827-0.586-1.295-0.811l-0.041-0.018-0.52 0.55c-0.585 0.619-1.411 1.004-2.327 1.004s-1.744-0.386-2.327-1.004l-0.001-0.002-0.539-0.573c-0.501 0.234-0.932 0.499-1.329 0.807l0.016-0.012 0.25 0.891zM8.798 23.2c-0.884 0-1.6-0.716-1.6-1.6s0.716-1.6 1.6-1.6v0c0.884 0 1.6 0.716 1.6 1.6s-0.716 1.6-1.6 1.6v0z"></path>
</svg>
