<!-- Generated by IcoMoon.io -->
<svg version="1.1" xmlns="http://www.w3.org/2000/svg" width="32" height="32" viewBox="0 0 32 32">
<title>document-copy-filled</title>
<path d="M16.667 9.833v-6.5h-4.5c-1.565 0-2.833 1.269-2.833 2.833v0 16.333c0 1.565 1.269 2.833 2.833 2.833v0h11c1.565 0 2.833-1.269 2.833-2.833v0-9.833h-6.5c-1.565 0-2.833-1.269-2.833-2.833v0zM18.333 9.833v-6.167l7.333 7.333h-6.167c-0.644 0-1.167-0.522-1.167-1.167v0zM6 9.133c0-0 0-0.001 0-0.001 0-1.112 0.681-2.066 1.649-2.466l0.018-0.006v15.84c0 2.485 2.015 4.5 4.5 4.5v0h10.507c-0.407 0.986-1.36 1.667-2.473 1.667-0 0-0.001 0-0.001 0h-8.033c-3.406 0-6.167-2.761-6.167-6.167v0-13.367z"></path>
</svg>
