<!-- Generated by IcoMoon.io -->
<svg version="1.1" xmlns="http://www.w3.org/2000/svg" width="32" height="32" viewBox="0 0 32 32">
<title>document-multiple-filled</title>
<path d="M5.333 5.667c0-1.657 1.343-3 3-3h5.672v6.33c0 1.657 1.343 3 3 3h6.328v11.003c0 1.657-1.343 3-3 3h-12c-1.657 0-3-1.343-3-3v-17.333zM16.005 8.997v-5.707c0.102 0.078 0.199 0.164 0.291 0.256l6.159 6.158c0.092 0.092 0.178 0.19 0.257 0.293h-5.707c-0.552 0-1-0.448-1-1zM11.668 29.333c-1.306 0-2.417-0.835-2.829-2h11.496c2.393 0 4.333-1.94 4.333-4.333v-11.084l1.121 1.121c0.563 0.563 0.879 1.326 0.879 2.121v7.841c0 3.498-2.836 6.333-6.333 6.333h-8.667z"></path>
</svg>
