<!-- Generated by IcoMoon.io -->
<svg version="1.1" xmlns="http://www.w3.org/2000/svg" width="32" height="32" viewBox="0 0 32 32">
<title>document-percent-filled</title>
<path d="M16 10.667v-8h-8c-1.473 0-2.667 1.194-2.667 2.667v9.381c2.262 0.324 4 2.269 4 4.619l-0 0.034 2.684-2.683c0.911-0.911 2.389-0.911 3.3 0s0.911 2.389 0 3.3l-2.684 2.684 0.034-0c2.577 0 4.667 2.089 4.667 4.667 0 0.716-0.161 1.394-0.449 2h7.116c1.473 0 2.667-1.194 2.667-2.667v-13.333h-8c-1.473 0-2.667-1.194-2.667-2.667zM6.835 21.865c-0.422 0.362-0.936 0.62-1.502 0.735-0.215 0.044-0.438 0.067-0.667 0.067-1.841 0-3.333-1.492-3.333-3.333s1.492-3.333 3.333-3.333c0.228 0 0.451 0.023 0.667 0.067 1.521 0.309 2.667 1.654 2.667 3.267 0 0.828-0.302 1.586-0.802 2.169-0.111 0.13-0.233 0.251-0.363 0.363zM5.333 18.178c-0.196-0.113-0.424-0.178-0.667-0.178-0.736 0-1.333 0.597-1.333 1.333s0.597 1.333 1.333 1.333c0.243 0 0.471-0.065 0.667-0.178 0.399-0.231 0.667-0.661 0.667-1.155s-0.268-0.924-0.667-1.155zM14.374 19.040c0.391-0.391 0.391-1.024 0-1.414s-1.024-0.391-1.414 0l-10 10c-0.391 0.391-0.391 1.024 0 1.414s1.024 0.391 1.414 0l10-10zM9.333 27.333c0 0.75 0.248 1.443 0.666 2 0.608 0.81 1.576 1.333 2.667 1.333s2.059-0.524 2.667-1.333c0.418-0.557 0.666-1.25 0.666-2 0-1.841-1.492-3.333-3.333-3.333-0.828 0-1.586 0.302-2.169 0.802-0.13 0.111-0.251 0.233-0.363 0.363-0.5 0.583-0.802 1.341-0.802 2.169zM14 27.333c0 0.736-0.597 1.333-1.333 1.333s-1.333-0.597-1.333-1.333c0-0.736 0.597-1.333 1.333-1.333s1.333 0.597 1.333 1.333zM18 10.667v-7.333l8 8h-7.333c-0.368 0-0.667-0.298-0.667-0.667z"></path>
</svg>
