<!-- Generated by IcoMoon.io -->
<svg version="1.1" xmlns="http://www.w3.org/2000/svg" width="32" height="32" viewBox="0 0 32 32">
<title>document-multiple-sync-filled</title>
<path d="M14.4 10.4v-7.2h-5.6c-1.325 0-2.4 1.075-2.4 2.4v0 9.131c0.72-0.212 1.547-0.335 2.403-0.335 4.86 0 8.8 3.94 8.8 8.8 0 0.856-0.122 1.683-0.35 2.466l0.016-0.062h4.331c1.325 0 2.4-1.075 2.4-2.4v0-10.4h-7.2c-1.325 0-2.4-1.075-2.4-2.4v0zM20.896 28.8h-5.306c0.405-0.491 0.758-1.027 1.051-1.6h4.158c2.651 0 4.8-2.149 4.8-4.8v0-9.6c0.884 0 1.6 0.716 1.6 1.6v0 8.096c0 3.482-2.822 6.304-6.304 6.304v0zM16 10.4v-6.8l7.6 7.6h-6.8c-0.442 0-0.8-0.358-0.8-0.8v0zM1.6 23.2c0 3.976 3.224 7.2 7.2 7.2s7.2-3.224 7.2-7.2v0c0-3.976-3.224-7.2-7.2-7.2s-7.2 3.224-7.2 7.2v0zM12 18.4c0.442 0 0.8 0.358 0.8 0.8v0 2.4c0 0.442-0.358 0.8-0.8 0.8v0h-2.4c-0.442 0-0.8-0.358-0.8-0.8s0.358-0.8 0.8-0.8v0h0.749c-0.43-0.243-0.943-0.391-1.49-0.4l-0.003-0c-0.017-0-0.037-0-0.056-0-0.884 0-1.684 0.358-2.264 0.938l-0 0c-0.142 0.131-0.332 0.211-0.541 0.211-0.442 0-0.8-0.358-0.8-0.8 0-0.209 0.080-0.4 0.212-0.543l-0 0.001c0.869-0.869 2.069-1.406 3.394-1.406 0.883 0 1.711 0.239 2.422 0.655l-0.023-0.012v-0.243c0-0.442 0.358-0.8 0.8-0.8v0zM10.598 27.251c-0.532 0.221-1.15 0.349-1.798 0.349-0.884 0-1.712-0.239-2.423-0.656l0.023 0.012v0.243c0 0.442-0.358 0.8-0.8 0.8s-0.8-0.358-0.8-0.8v0-2.4c0-0.442 0.358-0.8 0.8-0.8v0h2.4c0.442 0 0.8 0.358 0.8 0.8s-0.358 0.8-0.8 0.8v0h-0.749c0.43 0.243 0.943 0.391 1.49 0.4l0.003 0c0.017 0 0.037 0 0.056 0 0.884 0 1.684-0.358 2.264-0.938l0-0c0.142-0.131 0.332-0.211 0.541-0.211 0.442 0 0.8 0.358 0.8 0.8 0 0.209-0.081 0.4-0.212 0.543l0.001-0.001c-0.444 0.444-0.974 0.801-1.563 1.044l-0.032 0.012z"></path>
</svg>
