<!-- Generated by IcoMoon.io -->
<svg version="1.1" xmlns="http://www.w3.org/2000/svg" width="32" height="32" viewBox="0 0 32 32">
<title>document-chevron-double-filled</title>
<path d="M16 2.667v8c0 1.473 1.194 2.667 2.667 2.667v0h8v13.333c0 1.473-1.194 2.667-2.667 2.667v0h-9.080c1.496-1.555 2.417-3.672 2.417-6.004 0-4.786-3.88-8.667-8.667-8.667-1.204 0-2.351 0.246-3.393 0.69l0.057-0.021v-9.997c0-1.473 1.194-2.667 2.667-2.667v0h8zM18 3.333v7.333c0 0.368 0.298 0.667 0.667 0.667v0h7.333l-8-8zM8.667 30.667c-4.050 0-7.333-3.283-7.333-7.333s3.283-7.333 7.333-7.333v0c4.050 0 7.333 3.283 7.333 7.333s-3.283 7.333-7.333 7.333v0zM7.139 20.472c0.121-0.121 0.196-0.288 0.196-0.472 0-0.369-0.299-0.668-0.667-0.668-0.184 0-0.351 0.075-0.472 0.195v0l-3.333 3.333c-0.121 0.121-0.196 0.288-0.196 0.472s0.075 0.351 0.196 0.472v0l3.333 3.333c0.121 0.121 0.288 0.195 0.472 0.195 0.369 0 0.668-0.299 0.668-0.668 0-0.184-0.075-0.351-0.196-0.472l-2.863-2.861 2.863-2.861zM10.195 19.528c-0.121 0.121-0.196 0.288-0.196 0.472s0.075 0.351 0.196 0.472v0l2.863 2.861-2.863 2.861c-0.121 0.121-0.196 0.288-0.196 0.472 0 0.369 0.299 0.668 0.668 0.668 0.184 0 0.351-0.075 0.472-0.195l3.333-3.333c0.121-0.121 0.196-0.288 0.196-0.472s-0.075-0.351-0.196-0.472v0l-3.333-3.333c-0.121-0.121-0.288-0.196-0.472-0.196s-0.351 0.075-0.472 0.196v0z"></path>
</svg>
