<!-- Generated by IcoMoon.io -->
<svg version="1.1" xmlns="http://www.w3.org/2000/svg" width="32" height="32" viewBox="0 0 32 32">
<title>document-multiple-prohibited-filled</title>
<path d="M17.333 9v-6.333h-5.667c-1.657 0-3 1.343-3 3v9c4.787 0 8.667 3.88 8.667 8.667 0 0.93-0.147 1.827-0.418 2.667h6.751c1.657 0 3-1.343 3-3v-11h-6.333c-1.657 0-3-1.343-3-3zM7.337 6.169l-0.002 8.599c-0.698 0.108-1.369 0.299-2.002 0.563v-6.331c0-1.308 0.837-2.42 2.004-2.831zM20.326 29.339h-5.411c0.569-0.592 1.055-1.265 1.439-2l6.801 0c-0.412 1.165-1.523 2-2.829 2zM19.333 9v-5.667l6.667 6.667h-5.667c-0.552 0-1-0.448-1-1zM16 23.333c0 4.050-3.283 7.333-7.333 7.333s-7.333-3.283-7.333-7.333c0-4.050 3.283-7.333 7.333-7.333s7.333 3.283 7.333 7.333zM3.333 23.333c0 1.111 0.34 2.143 0.921 2.998l7.409-7.409c-0.854-0.581-1.886-0.921-2.998-0.921-2.946 0-5.333 2.388-5.333 5.333zM8.667 28.667c2.946 0 5.333-2.388 5.333-5.333 0-1.111-0.34-2.143-0.921-2.998l-7.409 7.409c0.854 0.581 1.886 0.921 2.998 0.921z"></path>
</svg>
