<!-- Generated by IcoMoon.io -->
<svg version="1.1" xmlns="http://www.w3.org/2000/svg" width="32" height="32" viewBox="0 0 32 32">
<title>document-pill-filled</title>
<path d="M16 10.667v-8h-8.667c-1.105 0-2 0.895-2 2v22.667c0 1.105 0.895 2 2 2h7.957c0.093 0 0.186-0.007 0.277-0.019-1.186-1.983-0.925-4.589 0.783-6.297l6.667-6.667c1.008-1.008 2.329-1.512 3.65-1.512v-1.505h-8c-1.473 0-2.667-1.194-2.667-2.667zM18 10.667v-7.333l8 8h-7.333c-0.368 0-0.667-0.298-0.667-0.667zM29.374 17.293c-1.495-1.495-3.919-1.495-5.414 0l-6.667 6.667c-1.495 1.495-1.495 3.919 0 5.414s3.919 1.495 5.414 0l6.667-6.667c1.495-1.495 1.495-3.919 0-5.414zM25.374 18.707c0.714-0.714 1.872-0.714 2.586 0s0.714 1.872 0 2.586l-2.626 2.626-2.586-2.586 2.626-2.626zM22.707 25.293c0.391 0.391 0.391 1.024 0 1.414l-1.333 1.333c-0.391 0.391-1.024 0.391-1.414 0s-0.391-1.024 0-1.414l1.333-1.333c0.391-0.391 1.024-0.391 1.414 0z"></path>
</svg>
