<!-- Generated by IcoMoon.io -->
<svg version="1.1" xmlns="http://www.w3.org/2000/svg" width="32" height="32" viewBox="0 0 32 32">
<title>document-dismiss-filled</title>
<path d="M16 2.667v8c0 1.473 1.194 2.667 2.667 2.667v0h8v13.333c0 1.473-1.194 2.667-2.667 2.667v0h-9.080c1.496-1.555 2.417-3.672 2.417-6.004 0-4.786-3.88-8.667-8.667-8.667-1.204 0-2.351 0.246-3.393 0.69l0.057-0.021v-9.997c0-1.473 1.194-2.667 2.667-2.667v0h8zM18 3.333v7.333c0 0.368 0.298 0.667 0.667 0.667v0h7.333l-8-8zM8.667 16c-4.050 0-7.333 3.283-7.333 7.333s3.283 7.333 7.333 7.333v0c4.050 0 7.333-3.283 7.333-7.333s-3.283-7.333-7.333-7.333v0zM11.971 20.975l-2.36 2.36 2.36 2.359c0.126 0.121 0.204 0.291 0.204 0.48 0 0.368-0.298 0.667-0.667 0.667-0.188 0-0.358-0.078-0.479-0.203l-2.36-2.36-2.359 2.357c-0.121 0.12-0.287 0.195-0.471 0.195-0.368 0-0.667-0.299-0.667-0.667 0-0.184 0.075-0.351 0.196-0.472l2.359-2.356-2.359-2.36c-0.126-0.121-0.204-0.291-0.204-0.48 0-0.368 0.298-0.667 0.667-0.667 0.188 0 0.358 0.078 0.479 0.203l2.36 2.359 2.36-2.359c0.118-0.109 0.277-0.176 0.451-0.176 0.368 0 0.667 0.298 0.667 0.667 0 0.175-0.067 0.333-0.177 0.452l0-0z"></path>
</svg>
