<!-- Generated by IcoMoon.io -->
<svg version="1.1" xmlns="http://www.w3.org/2000/svg" width="32" height="32" viewBox="0 0 32 32">
<title>document-multiple-percent-filled</title>
<path d="M5.333 5.667c0-1.657 1.343-3 3-3v0h5.672v6.331c0 1.657 1.343 3 3 3v0h6.328v11.003c0 1.657-1.343 3-3 3v0h-3.193c-0.594-1.944-2.371-3.333-4.473-3.333h-0.033l2.683-2.684c0.449-0.426 0.728-1.027 0.728-1.693 0-1.289-1.045-2.333-2.333-2.333-0.666 0-1.267 0.279-1.692 0.727l-0.001 0.001-2.684 2.683v-0.033c0-0 0-0.001 0-0.001 0-2.342-1.725-4.281-3.974-4.616l-0.026-0.003v-9.047zM17.333 27.333c0 0.716-0.16 1.393-0.449 2h3.451c3.497-0.001 6.332-2.836 6.332-6.333v0-7.841c-0-0.829-0.337-1.579-0.88-2.121l-0-0-1.12-1.121v11.084c0 2.393-1.94 4.333-4.333 4.333v0h-3zM16.005 8.997v-5.707c0.101 0.077 0.2 0.163 0.291 0.255l6.159 6.159c0.093 0.093 0.179 0.191 0.257 0.293h-5.707c-0.552 0-1-0.448-1-1v0zM4.667 22.667c1.841 0 3.333-1.492 3.333-3.333s-1.492-3.333-3.333-3.333v0c-1.841 0-3.333 1.492-3.333 3.333s1.492 3.333 3.333 3.333v0zM4.667 18c0.736 0 1.333 0.597 1.333 1.333s-0.597 1.333-1.333 1.333v0c-0.736 0-1.333-0.597-1.333-1.333s0.597-1.333 1.333-1.333v0zM12.667 30.667c1.841 0 3.333-1.492 3.333-3.333s-1.492-3.333-3.333-3.333v0c-1.841 0-3.333 1.492-3.333 3.333s1.492 3.333 3.333 3.333v0zM12.667 26c0.736 0 1.333 0.597 1.333 1.333s-0.597 1.333-1.333 1.333v0c-0.736 0-1.333-0.597-1.333-1.333s0.597-1.333 1.333-1.333v0zM14.373 19.040c0.196-0.183 0.318-0.443 0.318-0.732 0-0.552-0.448-1-1-1-0.289 0-0.549 0.122-0.731 0.318l-0.001 0.001-10 10c-0.196 0.183-0.318 0.443-0.318 0.732 0 0.552 0.448 1 1 1 0.289 0 0.549-0.122 0.731-0.318l0.001-0.001 10-10z"></path>
</svg>
