<!-- Generated by IcoMoon.io -->
<svg version="1.1" xmlns="http://www.w3.org/2000/svg" width="32" height="32" viewBox="0 0 32 32">
<title>document-landscape-data-filled</title>
<path d="M2.667 9c0-2.025 1.642-3.667 3.667-3.667v0h19.333c2.025 0 3.667 1.642 3.667 3.667v0 14c0 2.025-1.642 3.667-3.667 3.667v0h-19.333c-2.025 0-3.667-1.642-3.667-3.667v0-14zM16 9.333c-1.473 0-2.667 1.194-2.667 2.667v0 8c0 1.473 1.194 2.667 2.667 2.667s2.667-1.194 2.667-2.667v0-8c0-1.473-1.194-2.667-2.667-2.667v0zM9.333 16c-1.473 0-2.667 1.194-2.667 2.667v0 1.333c0 1.473 1.194 2.667 2.667 2.667s2.667-1.194 2.667-2.667v0-1.333c0-1.473-1.194-2.667-2.667-2.667v0zM20 16v4c0 1.473 1.194 2.667 2.667 2.667s2.667-1.194 2.667-2.667v0-4c0-1.473-1.194-2.667-2.667-2.667s-2.667 1.194-2.667 2.667v0z"></path>
</svg>
