<!-- Generated by IcoMoon.io -->
<svg version="1.1" xmlns="http://www.w3.org/2000/svg" width="32" height="32" viewBox="0 0 32 32">
<title>document-javascript-filled</title>
<path d="M16 10.667v-8h-8c-1.473 0-2.667 1.194-2.667 2.667v0 13.357c0.1-0.015 0.216-0.024 0.334-0.024 0.89 0 1.664 0.498 2.057 1.232l0.006 0.012c0.718-0.766 1.736-1.244 2.866-1.244 0.001 0 0.003 0 0.004 0h0.133c2.172 0 3.933 1.761 3.933 3.933v0 0.067c0 0.6-0.227 1.147-0.6 1.56 0.384 0.585 0.6 1.28 0.6 2.009v0.497c0 0.996-0.371 1.907-0.981 2.6h10.315c1.473 0 2.667-1.194 2.667-2.667v0-13.333h-8c-1.473 0-2.667-1.194-2.667-2.667v0zM18 10.667v-7.333l8 8h-7.333c-0.368 0-0.667-0.298-0.667-0.667v0zM5.667 20c0.552 0 1 0.448 1 1v0 5.667c0 1.473-1.194 2.667-2.667 2.667s-2.667-1.194-2.667-2.667v0-0.333c0-0.552 0.448-1 1-1s1 0.448 1 1v0 0.333c0 0.368 0.298 0.667 0.667 0.667s0.667-0.298 0.667-0.667v0-5.667c0-0.552 0.448-1 1-1v0zM10.6 20c-1.436 0-2.6 1.164-2.6 2.6v0 0.312c0 0.819 0.431 1.579 1.133 2l2.039 1.224c0.097 0.059 0.161 0.165 0.161 0.285v0 0.312c0 0.331-0.269 0.6-0.6 0.6v0h-0.133c-0.331 0-0.6-0.269-0.6-0.6v0-0.067c0-0.552-0.448-1-1-1s-1 0.448-1 1v0 0.067c0 1.436 1.164 2.6 2.6 2.6v0h0.133c1.436 0 2.6-1.164 2.6-2.6v0-0.312c-0-0.845-0.45-1.585-1.123-1.994l-0.010-0.006-2.039-1.224c-0.097-0.059-0.161-0.165-0.161-0.285v0-0.312c0-0.331 0.269-0.6 0.6-0.6v0h0.133c0.331 0 0.6 0.269 0.6 0.6v0 0.067c0 0.552 0.448 1 1 1s1-0.448 1-1v0-0.067c0-1.436-1.164-2.6-2.6-2.6v0h-0.133z"></path>
</svg>
