<!-- Generated by IcoMoon.io -->
<svg version="1.1" xmlns="http://www.w3.org/2000/svg" width="32" height="32" viewBox="0 0 32 32">
<title>document-page-break-filled</title>
<path d="M3.333 16c0-0.552 0.448-1 1-1v0h2c0.552 0 1 0.448 1 1s-0.448 1-1 1v0h-2c-0.552 0-1-0.448-1-1v0zM8.667 16c0-0.552 0.448-1 1-1v0h2c0.552 0 1 0.448 1 1s-0.448 1-1 1v0h-2c-0.552 0-1-0.448-1-1v0zM14 16c0-0.552 0.448-1 1-1v0h2c0.552 0 1 0.448 1 1s-0.448 1-1 1v0h-2c-0.552 0-1-0.448-1-1v0zM19.333 16c0-0.552 0.448-1 1-1v0h2c0.552 0 1 0.448 1 1s-0.448 1-1 1v0h-2c-0.552 0-1-0.448-1-1v0zM24.667 16c0-0.552 0.448-1 1-1v0h2c0.552 0 1 0.448 1 1s-0.448 1-1 1v0h-2c-0.552 0-1-0.448-1-1v0zM6.667 2.667c-0.736 0-1.333 0.597-1.333 1.333v0 5.333c0 1.473 1.194 2.667 2.667 2.667v0h16c1.473 0 2.667-1.194 2.667-2.667v0-5.333c0-0.736-0.597-1.333-1.333-1.333v0h-18.667zM25.333 29.333c0.736 0 1.333-0.597 1.333-1.333v0-5.333c0-1.473-1.194-2.667-2.667-2.667v0h-16c-1.473 0-2.667 1.194-2.667 2.667v0 5.333c0 0.736 0.597 1.333 1.333 1.333v0h18.667z"></path>
</svg>
