<!-- Generated by IcoMoon.io -->
<svg version="1.1" xmlns="http://www.w3.org/2000/svg" width="32" height="32" viewBox="0 0 32 32">
<title>document-search-filled</title>
<path d="M17.333 10.667v-8h-8c-1.473 0-2.667 1.194-2.667 2.667v0 7.071c1.148-0.675 2.529-1.074 4.003-1.074 4.418 0 8 3.582 8 8 0 1.465-0.394 2.838-1.081 4.018l0.020-0.038 4.707 4.707c0.371 0.369 0.591 0.835 0.66 1.316h2.357c1.473 0 2.667-1.194 2.667-2.667v0-13.333h-8c-1.473 0-2.667-1.194-2.667-2.667v0zM19.96 30.373c0.183 0.196 0.443 0.318 0.732 0.318 0.552 0 1-0.448 1-1 0-0.289-0.122-0.549-0.318-0.731l-0.001-0.001-5.483-5.484c0.899-1.123 1.443-2.564 1.443-4.132 0-0.004 0-0.008 0-0.012v0.001c0-0.002 0-0.005 0-0.008 0-1.815-0.728-3.46-1.908-4.66l0.001 0.001c-1.208-1.235-2.891-2-4.753-2-0.003 0-0.005 0-0.008 0h0c-0.003 0-0.006 0-0.010 0-1.505 0-2.893 0.501-4.007 1.345l0.016-0.012c-1.641 1.228-2.692 3.167-2.692 5.352 0 3.682 2.985 6.667 6.667 6.667 1.415 0 2.727-0.441 3.807-1.193l-0.022 0.014 5.533 5.533zM10.667 14.667c2.577 0 4.667 2.089 4.667 4.667s-2.089 4.667-4.667 4.667v0c-2.577 0-4.667-2.089-4.667-4.667s2.089-4.667 4.667-4.667v0zM19.333 10.667v-7.333l8 8h-7.333c-0.368 0-0.667-0.298-0.667-0.667v0z"></path>
</svg>
