<!-- Generated by IcoMoon.io -->
<svg version="1.1" xmlns="http://www.w3.org/2000/svg" width="32" height="32" viewBox="0 0 32 32">
<title>document-edit-filled</title>
<path d="M16 2.667v8c0 1.473 1.194 2.667 2.667 2.667h6.561c-0.796 0.293-1.527 0.739-2.078 1.294l-8.068 8.123c-0.469 0.472-0.804 1.060-0.97 1.705l-0.7 2.706c-0.205 0.793-0.056 1.559 0.323 2.173h-6.401c-1.105 0-2-0.895-2-2v-22.667c0-1.105 0.895-2 2-2h8.667z"></path>
<path d="M18 3.333v7.333c0 0.368 0.299 0.667 0.667 0.667h7.333l-8-8z"></path>
<path d="M16.261 23.429l7.87-7.87c1.19-1.19 3.12-1.19 4.31 0s1.19 3.12 0 4.31l-7.87 7.87c-0.459 0.459-1.034 0.784-1.663 0.942l-2.441 0.61c-1.061 0.265-2.023-0.696-1.758-1.758l0.61-2.441c0.157-0.63 0.483-1.205 0.942-1.663z"></path>
</svg>
