<!-- Generated by IcoMoon.io -->
<svg version="1.1" xmlns="http://www.w3.org/2000/svg" width="32" height="32" viewBox="0 0 32 32">
<title>document-footer-dismiss-filled</title>
<path d="M30.667 8.669c0 0 0 0.001 0 0.001 0 4.050-3.282 7.333-7.332 7.333h-0c-4.049-0.002-7.331-3.284-7.331-7.333 0-0 0-0.001 0-0.001v0c0-0.001 0-0.002 0-0.003 0-4.049 3.281-7.331 7.329-7.333h0c4.050 0 7.333 3.283 7.333 7.333 0 0.001 0 0.002 0 0.003v-0zM21.14 5.529c-0.121-0.12-0.287-0.195-0.471-0.195-0.368 0-0.667 0.299-0.667 0.667 0 0.184 0.075 0.351 0.196 0.472v0l2.195 2.196-2.195 2.196c-0.116 0.12-0.187 0.283-0.187 0.463 0 0.368 0.298 0.667 0.667 0.667 0.18 0 0.343-0.071 0.463-0.187l2.194-2.196 2.195 2.196c0.121 0.126 0.291 0.204 0.48 0.204 0.368 0 0.667-0.298 0.667-0.667 0-0.188-0.078-0.358-0.203-0.479l-2.195-2.196 2.195-2.196c0.121-0.121 0.196-0.288 0.196-0.472 0-0.368-0.299-0.667-0.667-0.667-0.184 0-0.351 0.075-0.471 0.195v0l-2.195 2.196-2.195-2.196zM23.336 17.339c1.177 0 2.301-0.236 3.325-0.663v9.656c0 0 0 0.001 0 0.002 0 1.585-1.229 2.882-2.785 2.992l-0.010 0.001-0.205 0.007h-15.328c-1.585-0.001-2.882-1.23-2.991-2.787l-0.001-0.009-0.008-0.204v-20.671c0-0.001 0-0.002 0-0.003 0-1.584 1.228-2.881 2.784-2.992l0.010-0.001 0.205-0.007h8.756c-1.496 1.552-2.417 3.666-2.417 5.995 0 0.005 0 0.009 0 0.014v-0.001c0 0.001 0 0.002 0 0.003 0 4.786 3.879 8.666 8.665 8.667h0zM11.339 21.339c-1.105 0-2.001 0.896-2.001 2.001s0.896 2.001 2.001 2.001v0h9.331c1.105 0 2-0.895 2-2s-0.895-2-2-2v0h-9.331z"></path>
</svg>
