<!-- Generated by IcoMoon.io -->
<svg version="1.1" xmlns="http://www.w3.org/2000/svg" width="32" height="32" viewBox="0 0 32 32">
<title>document-split-hint-filled</title>
<path d="M16 10.667v-8h-8c-1.473 0-2.667 1.194-2.667 2.667v0 10c0 0.368 0.298 0.667 0.667 0.667v0h20c0.368 0 0.667-0.298 0.667-0.667v0-2h-8c-1.473 0-2.667-1.194-2.667-2.667v0zM18 10.667v-7.333l8 8h-7.333c-0.368 0-0.667-0.298-0.667-0.667v0zM7.333 18.333c0-0.552-0.448-1-1-1s-1 0.448-1 1v0 3.327c0 0.552 0.448 1 1 1s1-0.448 1-1v0-3.327zM25.667 17.333c0.552 0 1 0.448 1 1v0 3.327c0 0.552-0.448 1-1 1s-1-0.448-1-1v0-3.327c0-0.552 0.448-1 1-1v0zM13.667 27.333c-0.552 0-1 0.448-1 1s0.448 1 1 1v0h4.667c0.552 0 1-0.448 1-1s-0.448-1-1-1v0h-4.667zM6.333 24.667c0.552 0 1 0.448 1 1v0 1c0 0.368 0.298 0.667 0.667 0.667v0h1.667c0.552 0 1 0.448 1 1s-0.448 1-1 1v0h-1.667c-1.473 0-2.667-1.194-2.667-2.667v0-1c0-0.552 0.448-1 1-1v0zM24.667 25.667c0-0.552 0.448-1 1-1s1 0.448 1 1v0 1c0 1.473-1.194 2.667-2.667 2.667v0h-1.667c-0.552 0-1-0.448-1-1s0.448-1 1-1v0h1.667c0.368 0 0.667-0.298 0.667-0.667v0-1z"></path>
</svg>
