<!-- Generated by IcoMoon.io -->
<svg version="1.1" xmlns="http://www.w3.org/2000/svg" width="32" height="32" viewBox="0 0 32 32">
<title>document-heart-pulse-filled</title>
<path d="M16 2.667v8c0 1.473 1.194 2.667 2.667 2.667h8v14c0 1.105-0.895 2-2 2h-11.693l3.924-3.925c2.398-2.398 2.398-6.285 0-8.683-2.036-2.036-5.147-2.343-7.507-0.921-1.228-0.766-2.669-1.056-4.058-0.871v-10.267c0-1.105 0.895-2 2-2h8.667zM18 3.333v7.333c0 0.368 0.299 0.667 0.667 0.667h7.333l-8-8zM2.749 17.621c1.822-1.822 4.744-1.875 6.63-0.159 1.888-1.667 4.771-1.598 6.576 0.207 1.006 1.006 1.473 2.347 1.4 3.664h-2.722l-0.983-0.983c-0.454-0.454-1.076-0.701-1.718-0.682s-1.248 0.302-1.675 0.782l-0.658 0.74-0.99-1.485c-0.461-0.692-1.256-1.086-2.086-1.035s-1.57 0.541-1.942 1.285l-0.688 1.377h-2.54c-0.087-1.332 0.379-2.694 1.397-3.712zM4.33 26l4.338 4.338c0.208 0.208 0.486 0.305 0.758 0.292 0.239-0.012 0.474-0.109 0.656-0.292l4.338-4.338h-2.855l-0.489 0.55c-0.48 0.54-1.184 0.828-1.906 0.777s-1.379-0.432-1.78-1.033l-0.196-0.294h-2.865zM7.499 20.445c-0.198-0.297-0.538-0.465-0.894-0.443s-0.673 0.232-0.832 0.551l-1.057 2.114h-2.382c-0.552 0-1 0.448-1 1s0.448 1 1 1h3c0.379 0 0.725-0.214 0.894-0.553l0.563-1.125 1.711 2.566c0.172 0.258 0.454 0.421 0.763 0.443s0.611-0.102 0.817-0.333l1.962-2.207 0.917 0.917c0.188 0.187 0.442 0.293 0.707 0.293h2.667c0.552 0 1-0.448 1-1s-0.448-1-1-1h-2.252l-1.374-1.374c-0.195-0.195-0.461-0.301-0.736-0.292s-0.535 0.129-0.718 0.335l-1.806 2.032-1.948-2.922z"></path>
</svg>
