<!-- Generated by IcoMoon.io -->
<svg version="1.1" xmlns="http://www.w3.org/2000/svg" width="32" height="32" viewBox="0 0 32 32">
<title>document-search-filled</title>
<path d="M17.333 10.667v-8h-8c-1.473 0-2.667 1.194-2.667 2.667v7.070c1.177-0.681 2.543-1.070 4-1.070 4.418 0 8 3.582 8 8 0 1.446-0.385 2.805-1.057 3.977l4.707 4.707c0.371 0.371 0.591 0.835 0.66 1.317h2.357c1.473 0 2.667-1.194 2.667-2.667v-13.333h-8c-1.473 0-2.667-1.194-2.667-2.667z"></path>
<path d="M19.96 30.374c0.391 0.391 1.024 0.391 1.414 0 0.281-0.281 0.36-0.689 0.236-1.040-0.048-0.137-0.127-0.265-0.236-0.374l-5.483-5.484c0.903-1.138 1.443-2.577 1.443-4.143 0-1.817-0.727-3.464-1.906-4.667-1.21-1.234-2.896-2-4.761-2-1.501 0-2.886 0.496-4 1.333-1.619 1.216-2.667 3.153-2.667 5.334 0 3.682 2.985 6.667 6.667 6.667 1.394 0 2.689-0.428 3.759-1.16l5.534 5.534zM10.667 14.667c2.577 0 4.667 2.089 4.667 4.667s-2.089 4.667-4.667 4.667c-2.577 0-4.667-2.089-4.667-4.667s2.089-4.667 4.667-4.667z"></path>
<path d="M19.333 10.667v-7.333l8 8h-7.333c-0.368 0-0.667-0.298-0.667-0.667z"></path>
</svg>
