<!-- Generated by IcoMoon.io -->
<svg version="1.1" xmlns="http://www.w3.org/2000/svg" width="32" height="32" viewBox="0 0 32 32">
<title>document-arrow-left-filled</title>
<path d="M16 2.667v7.5c0 1.381 1.119 2.5 2.5 2.5v0h8.167v14c0 1.105-0.895 2-2 2v0h-9.168c1.144-1.45 1.835-3.304 1.835-5.32 0-0.005 0-0.010 0-0.015v0.001c0-4.787-3.88-8.667-8.667-8.667-1.181 0-2.307 0.237-3.333 0.664v-10.664c0-1.105 0.895-2 2-2v0h8.667zM17.667 2.976v7.191c0 0.46 0.373 0.833 0.833 0.833h7.808l-8.641-8.024zM16 23.333c0 4.050-3.283 7.333-7.333 7.333s-7.333-3.283-7.333-7.333 3.283-7.333 7.333-7.333 7.333 3.283 7.333 7.333zM7.805 19.529c-0.121-0.121-0.287-0.195-0.471-0.195s-0.351 0.075-0.471 0.195l-3.333 3.333c-0.121 0.121-0.195 0.287-0.195 0.471s0.075 0.351 0.195 0.471l3.333 3.333c0.12 0.116 0.283 0.187 0.463 0.187 0.368 0 0.667-0.298 0.667-0.667 0-0.18-0.071-0.343-0.187-0.463l-2.195-2.195h7.724c0.368 0 0.667-0.298 0.667-0.667s-0.298-0.667-0.667-0.667v0h-7.724l2.195-2.195c0.121-0.121 0.195-0.287 0.195-0.471s-0.075-0.351-0.195-0.471v0z"></path>
</svg>
