<!-- Generated by IcoMoon.io -->
<svg version="1.1" xmlns="http://www.w3.org/2000/svg" width="32" height="32" viewBox="0 0 32 32">
<title>document-copy-filled</title>
<path d="M17.333 9v-6.333h-5.667c-1.657 0-3 1.343-3 3v17.333c0 1.657 1.343 3 3 3h12c1.657 0 3-1.343 3-3v-11h-6.333c-1.657 0-3-1.343-3-3z"></path>
<path d="M19.333 9v-5.667l6.667 6.667h-5.667c-0.552 0-1-0.448-1-1z"></path>
<path d="M7.337 6.169c-1.167 0.411-2.004 1.523-2.004 2.831v14.006c0 3.498 2.836 6.333 6.333 6.333h8.659c1.306 0 2.417-0.835 2.829-2l-11.488-0c-2.393 0-4.333-1.94-4.333-4.333l0.004-16.836z"></path>
</svg>
