<!-- Generated by IcoMoon.io -->
<svg version="1.1" xmlns="http://www.w3.org/2000/svg" width="32" height="32" viewBox="0 0 32 32">
<title>door-tag-filled</title>
<path d="M16 8.667c-0.652 0-1.232 0.309-1.601 0.802-0.995 1.325-2.876 1.592-4.201 0.596s-1.592-2.876-0.596-4.2c1.454-1.936 3.78-3.197 6.398-3.197 4.418 0 8 3.582 8 8v16c0 1.473-1.194 2.667-2.667 2.667h-10.667c-1.473 0-2.667-1.194-2.667-2.667v-11.333c0-1.473 1.194-2.667 2.667-2.667h5.333c1.105 0 2-0.895 2-2s-0.895-2-2-2zM13 23.333c-0.552 0-1 0.448-1 1s0.448 1 1 1h6c0.552 0 1-0.448 1-1s-0.448-1-1-1h-6z"></path>
</svg>
