<!-- Generated by IcoMoon.io -->
<svg version="1.1" xmlns="http://www.w3.org/2000/svg" width="32" height="32" viewBox="0 0 32 32">
<title>door-arrow-left-filled</title>
<path d="M8.333 3.667c-1.105 0-2 0.895-2 2v0 20.667c0 1.105 0.895 2 2 2v0h7.92c-0.995-1.392-1.59-3.128-1.59-5.004 0-4.786 3.88-8.667 8.667-8.667 0.832 0 1.637 0.117 2.398 0.336l-0.061-0.015v-9.317c0-1.105-0.895-2-2-2v0h-15.333zM11.333 17.667c-1.105 0-2-0.895-2-2s0.895-2 2-2v0c1.105 0 2 0.895 2 2s-0.895 2-2 2v0zM23.333 30.667c4.050 0 7.333-3.283 7.333-7.333s-3.283-7.333-7.333-7.333v0c-4.050 0-7.333 3.283-7.333 7.333s3.283 7.333 7.333 7.333v0zM28 23.333c0 0.368-0.298 0.667-0.667 0.667v0h-6.391l2.196 2.195c0.121 0.121 0.195 0.288 0.195 0.472 0 0.369-0.299 0.668-0.668 0.668-0.184 0-0.351-0.075-0.472-0.195l-3.333-3.333c-0.121-0.121-0.196-0.288-0.196-0.472s0.075-0.351 0.196-0.472v0l3.333-3.333c0.121-0.121 0.288-0.195 0.472-0.195 0.369 0 0.668 0.299 0.668 0.668 0 0.184-0.075 0.351-0.195 0.472l-2.196 2.195h6.391c0.368 0 0.667 0.298 0.667 0.667v0z"></path>
</svg>
