<!-- Generated by IcoMoon.io -->
<svg version="1.1" xmlns="http://www.w3.org/2000/svg" width="32" height="32" viewBox="0 0 32 32">
<title>double-swipe-up-filled</title>
<path d="M24.276 3.057c-0.241-0.241-0.575-0.39-0.943-0.39s-0.701 0.149-0.943 0.39l-4 4c-0.232 0.24-0.374 0.566-0.374 0.926 0 0.736 0.597 1.333 1.333 1.333 0.36 0 0.687-0.143 0.927-0.375l1.724-1.724v15.448c0 0.736 0.597 1.333 1.333 1.333s1.333-0.597 1.333-1.333v0-15.448l1.724 1.724c0.243 0.251 0.583 0.407 0.959 0.407 0.736 0 1.333-0.597 1.333-1.333 0-0.376-0.156-0.716-0.407-0.959l-4-4zM16.667 22.667c0-0 0-0.001 0-0.001 0-2.718 1.626-5.055 3.958-6.094l0.042-0.017v3.131c-0.82 0.736-1.333 1.799-1.333 2.981 0 2.209 1.791 4 4 4s4-1.791 4-4c0-1.183-0.513-2.246-1.33-2.978l-0.004-0.003v-3.131c2.374 1.056 3.999 3.393 3.999 6.111 0 3.682-2.984 6.667-6.666 6.668h-0c-3.682 0-6.667-2.985-6.667-6.667v0zM6 16.555c-2.374 1.056-3.999 3.393-3.999 6.111 0 3.682 2.984 6.667 6.666 6.668h0c0.001 0 0.003 0 0.004 0 3.682 0 6.667-2.985 6.667-6.667 0-2.719-1.628-5.058-3.962-6.095l-0.042-0.017v3.131c0.82 0.736 1.333 1.799 1.333 2.981 0 2.209-1.791 4-4 4s-4-1.791-4-4c0-1.183 0.513-2.246 1.33-2.978l0.004-0.003v-3.131zM9.609 3.057c-0.241-0.241-0.575-0.39-0.943-0.39s-0.701 0.149-0.943 0.39l-4 4c-0.232 0.24-0.374 0.566-0.374 0.926 0 0.736 0.597 1.333 1.333 1.333 0.36 0 0.687-0.143 0.927-0.375l1.724-1.724v15.448c0 0.736 0.597 1.333 1.333 1.333s1.333-0.597 1.333-1.333v0-15.448l1.724 1.724c0.24 0.232 0.566 0.374 0.926 0.374 0.736 0 1.333-0.597 1.333-1.333 0-0.36-0.143-0.687-0.375-0.927l-4-4z"></path>
</svg>
