<!-- Generated by IcoMoon.io -->
<svg version="1.1" xmlns="http://www.w3.org/2000/svg" width="32" height="32" viewBox="0 0 32 32">
<title>double-swipe-down-filled</title>
<path d="M9 8c0.736 0 1.333 0.597 1.333 1.333v15.447l1.724-1.723c0.481-0.481 1.237-0.518 1.76-0.111l0.126 0.111c0.481 0.481 0.518 1.237 0.111 1.76l-0.111 0.126-4 4c-0.481 0.481-1.237 0.518-1.76 0.111l-0.126-0.111-4-4c-0.521-0.521-0.521-1.365 0-1.886 0.481-0.481 1.237-0.518 1.76-0.111l0.126 0.111 1.724 1.723v-15.447c0-0.736 0.597-1.333 1.333-1.333zM22.997 8c0.736 0 1.333 0.597 1.333 1.333v15.445l1.724-1.721c0.481-0.481 1.237-0.518 1.76-0.111l0.126 0.111c0.481 0.481 0.518 1.237 0.111 1.76l-0.111 0.126-4 4c-0.481 0.481-1.237 0.518-1.76 0.111l-0.126-0.111-4-4c-0.521-0.521-0.521-1.365 0-1.886 0.481-0.481 1.237-0.518 1.76-0.111l0.126 0.111 1.724 1.724v-15.448c0-0.736 0.597-1.333 1.333-1.333zM9 2.667c3.498 0 6.333 2.836 6.333 6.333 0 2.545-1.501 4.739-3.666 5.746l0-2.331c1.014-0.793 1.665-2.028 1.665-3.415 0-2.393-1.94-4.333-4.333-4.333s-4.333 1.94-4.333 4.333c0 1.388 0.652 2.623 1.667 3.416l0 2.331c-2.166-1.007-3.667-3.201-3.667-5.746 0-3.498 2.836-6.333 6.333-6.333zM22.997 2.667c3.498 0 6.333 2.836 6.333 6.333 0 2.545-1.501 4.739-3.666 5.746l0-2.331c1.014-0.793 1.665-2.028 1.665-3.415 0-2.393-1.94-4.333-4.333-4.333s-4.333 1.94-4.333 4.333c0 1.388 0.652 2.623 1.667 3.416l0 2.331c-2.166-1.007-3.667-3.201-3.667-5.746 0-3.498 2.835-6.333 6.333-6.333z"></path>
</svg>
