<!-- Generated by IcoMoon.io -->
<svg version="1.1" xmlns="http://www.w3.org/2000/svg" width="32" height="32" viewBox="0 0 32 32">
<title>draw-image-filled</title>
<path d="M20.88 19.592l-2.779-2.728-0.172-0.156c-0.518-0.437-1.193-0.703-1.93-0.703-0.733 0-1.404 0.263-1.925 0.699l0.005-0.004-0.181 0.164-8.311 8.165c-0.168 0.165-0.399 0.267-0.653 0.267-0.515 0-0.933-0.417-0.933-0.932v-16.031c0-2.393 1.94-4.333 4.333-4.333v0h15.333c2.393 0 4.333 1.94 4.333 4.333v0 6.349c-0.115-0.011-0.248-0.017-0.383-0.017-1.209 0-2.303 0.491-3.094 1.283l-3.643 3.643zM18 11.003c0 1.658 1.344 3.003 3.003 3.003s3.003-1.344 3.003-3.003v0c0-1.659-1.345-3.003-3.003-3.003s-3.003 1.345-3.003 3.003v0zM21.003 10c0.554 0 1.003 0.449 1.003 1.003s-0.449 1.003-1.003 1.003v0c-0.554 0-1.003-0.449-1.003-1.003s0.449-1.003 1.003-1.003v0zM15.299 18.291l0.112-0.095c0.163-0.12 0.367-0.192 0.589-0.192 0.216 0 0.415 0.068 0.579 0.184l-0.003-0.002 0.125 0.104 2.767 2.716-2.813 2.813c-0.567 0.567-0.996 1.271-1.232 2.059l-0.009 0.035c-0.46-0.715-1.16-1.22-1.883-1.511-0.921-0.371-1.848-0.213-2.581 0.047l-0.149 0.053c-0.64 0.224-1.152-0.544-0.707-1.055l0.28-0.321 4.927-4.836zM25.465 16.892l-7.869 7.871c-0.446 0.446-0.774 1.008-0.936 1.638l-0.005 0.025-0.571 2.283c-0.473 0.227-0.947 0.269-1.511 0.14-0.168-0.040-0.24-0.233-0.169-0.391 0.573-1.283-0.253-2.368-1.373-2.817-1.273-0.513-2.968 0.687-4.389 1.691-0.789 0.56-1.493 1.057-1.995 1.168-0.7 0.156-1.549-0.164-2.175-0.507-0.279-0.151-0.649 0.096-0.517 0.384 0.323 0.705 0.975 1.511 2.28 1.673 1.307 0.161 2.355-0.463 3.4-1.087 0.777-0.464 1.553-0.928 2.435-1.065 0.115-0.017 0.192 0.117 0.14 0.221-0.323 0.645-0.475 1.827 0.291 2.424 1.131 0.883 4.316 0.389 5.104 0.117 0.074-0.008 0.141-0.021 0.206-0.038l-0.009 0.002 2.44-0.609c0.655-0.167 1.218-0.496 1.664-0.943l7.871-7.869c0.531-0.548 0.859-1.296 0.859-2.121 0-1.683-1.365-3.048-3.048-3.048-0.825 0-1.574 0.328-2.123 0.861l0.001-0.001z"></path>
</svg>
