<!-- Generated by IcoMoon.io -->
<svg version="1.1" xmlns="http://www.w3.org/2000/svg" width="32" height="32" viewBox="0 0 32 32">
<title>draw-text-filled</title>
<path d="M16.325 17.532h-5.98l2.989-8.54 2.991 8.54zM17.259 20.199l0.436 1.247 2.093-2.093-5.019-14.335c-0.476-1.356-2.393-1.356-2.867 0l-6.495 18.543c-0.054 0.14-0.086 0.302-0.086 0.471 0 0.736 0.597 1.333 1.333 1.333 0.59 0 1.090-0.383 1.266-0.913l0.003-0.009 1.487-4.243h7.847zM17.597 23.429l7.869-7.869c0.552-0.552 1.314-0.893 2.155-0.893 1.683 0 3.048 1.364 3.048 3.048 0 0.841-0.341 1.603-0.892 2.155l-7.871 7.869c-0.446 0.446-1.008 0.775-1.638 0.937l-0.025 0.005-2.44 0.609c-0.057 0.016-0.125 0.028-0.194 0.036l-0.006 0c-0.787 0.272-3.972 0.765-5.103-0.117-0.765-0.597-0.613-1.779-0.291-2.424 0.053-0.104-0.027-0.24-0.14-0.221-0.88 0.137-1.657 0.6-2.436 1.065-1.044 0.624-2.093 1.248-3.399 1.087-1.305-0.163-1.957-0.968-2.28-1.673-0.132-0.288 0.24-0.535 0.517-0.383 0.625 0.34 1.475 0.661 2.175 0.507 0.5-0.112 1.205-0.611 1.995-1.169 1.421-1.004 3.116-2.204 4.389-1.691 1.12 0.449 1.947 1.533 1.373 2.817-0.071 0.157 0 0.352 0.169 0.391 0.564 0.129 1.037 0.088 1.511-0.14l0.571-2.283c0.157-0.629 0.483-1.204 0.941-1.663z"></path>
</svg>
