<!-- Generated by IcoMoon.io -->
<svg version="1.1" xmlns="http://www.w3.org/2000/svg" width="32" height="32" viewBox="0 0 32 32">
<title>draw-shape-filled</title>
<path d="M9 5.246c-2.025 0-3.667 1.642-3.667 3.667v12.754c0 0.552 0.448 1 1 1s1-0.448 1-1v-12.754c0-0.92 0.746-1.667 1.667-1.667h12.667c0.921 0 1.667 0.746 1.667 1.667v6.124c0.631-0.278 1.319-0.4 2-0.363v-5.761c0-2.025-1.642-3.667-3.667-3.667h-12.667z"></path>
<path d="M27.075 16.743l-0.172-0.141-0.004-0.003c-1.173-0.889-2.889-0.782-3.935 0.282l-5.071 5.159c-0.314 0.319-0.544 0.706-0.671 1.127l-0.782 2.603c-0.755 0.115-1.426 0.104-2.14-0.009-0.032-0.005-0.050-0.040-0.036-0.069l0.046-0.096 0.004-0.009c0.087-0.184 0.24-0.509 0.29-0.844 0.028-0.187 0.036-0.445-0.065-0.721-0.108-0.296-0.311-0.527-0.563-0.682-0.431-0.265-0.969-0.285-1.431-0.259-0.366 0.021-0.818 0.083-1.374 0.192-0.616 0.12-1.201 0.396-1.785 0.67-0.769 0.362-1.535 0.723-2.362 0.723-0.297 0-0.583-0.049-0.85-0.138-0.164-0.055-0.345 0.078-0.303 0.246 0.076 0.305 0.216 0.717 0.523 1.034 0.168 0.173 0.393 0.325 0.677 0.398 0.283 0.073 0.557 0.050 0.797-0.021 1.938-0.569 3.226-0.878 4.064-1.018 0.176-0.029 0.308 0.148 0.254 0.318-0.085 0.266-0.204 0.77 0.045 1.281 0.27 0.553 0.801 0.785 1.26 0.88 1.524 0.313 2.838 0.273 4.447-0.15 0.070-0.011 0.141-0.028 0.21-0.051l0.156-0.051c0.228-0.066 0.463-0.139 0.705-0.22 0.036-0.012 0.072-0.026 0.106-0.042l1.85-0.598c0.451-0.146 0.857-0.395 1.184-0.727l5.059-5.147c1.048-1.068 1.044-2.712 0.025-3.767l-0.156-0.15z"></path>
</svg>
