<!-- Generated by IcoMoon.io -->
<svg version="1.1" xmlns="http://www.w3.org/2000/svg" width="32" height="32" viewBox="0 0 32 32">
<title>draw-image-filled</title>
<path d="M5.333 9c0-2.025 1.642-3.667 3.667-3.667h12.667c2.025 0 3.667 1.642 3.667 3.667v5.691c-0.682-0.033-1.37 0.099-2 0.396v-6.087c0-0.92-0.746-1.667-1.667-1.667h-12.667c-0.92 0-1.667 0.746-1.667 1.667v12.667c0 0.114 0.011 0.225 0.033 0.333l5.981-5.283c1.134-1.002 2.838-1.002 3.972 0l2.143 1.893-1.417 1.417-2.050-1.811c-0.378-0.334-0.946-0.334-1.324 0l-4.453 3.933c-0.507 0.167-0.966 0.384-1.346 0.563l-0.055 0.026c-0.825 0.389-1.317 0.596-1.794 0.596-0.151 0-0.293-0.025-0.425-0.069-0.31-0.104-0.626-0.105-0.913-0.028-0.226-0.476-0.352-1.008-0.352-1.57v-12.667zM18.667 11.333c-0.368 0-0.667 0.298-0.667 0.667s0.299 0.667 0.667 0.667c0.368 0 0.667-0.298 0.667-0.667s-0.299-0.667-0.667-0.667zM16 12c0-1.473 1.194-2.667 2.667-2.667s2.667 1.194 2.667 2.667c0 1.473-1.194 2.667-2.667 2.667s-2.667-1.194-2.667-2.667zM26.903 16.602l0.172 0.141 0.156 0.15c1.019 1.055 1.024 2.7-0.025 3.767l-5.059 5.147c-0.326 0.332-0.733 0.581-1.184 0.727l-1.85 0.598c-0.034 0.016-0.069 0.030-0.106 0.042-0.242 0.081-0.476 0.154-0.705 0.22l-0.156 0.051c-0.069 0.022-0.14 0.039-0.21 0.051-1.609 0.422-2.923 0.463-4.447 0.149-0.459-0.094-0.99-0.326-1.26-0.88-0.249-0.51-0.129-1.015-0.045-1.281 0.054-0.17-0.078-0.347-0.254-0.318-0.838 0.14-2.125 0.449-4.064 1.018-0.24 0.070-0.514 0.093-0.797 0.021-0.284-0.073-0.509-0.225-0.677-0.398-0.307-0.317-0.447-0.729-0.523-1.034-0.042-0.168 0.139-0.301 0.303-0.246 0.267 0.090 0.553 0.138 0.85 0.138 0.827 0 1.593-0.361 2.362-0.723 0.583-0.275 1.169-0.55 1.785-0.67 0.556-0.108 1.009-0.171 1.374-0.192 0.462-0.027 1-0.006 1.431 0.259 0.252 0.155 0.455 0.386 0.563 0.682 0.101 0.276 0.093 0.535 0.065 0.721-0.050 0.335-0.203 0.66-0.29 0.844l-0.004 0.009-0.046 0.096c-0.014 0.029 0.004 0.064 0.036 0.069 0.714 0.113 1.385 0.124 2.14 0.009l0.782-2.603c0.127-0.421 0.357-0.808 0.671-1.127l5.071-5.159c1.046-1.064 2.762-1.172 3.935-0.282l0.004 0.003z"></path>
</svg>
