<!-- Generated by IcoMoon.io -->
<svg version="1.1" xmlns="http://www.w3.org/2000/svg" width="32" height="32" viewBox="0 0 32 32">
<title>drawer-dismiss-filled</title>
<path d="M29.333 8.667c0 4.050-3.283 7.333-7.333 7.333s-7.333-3.283-7.333-7.333v0c0-4.050 3.283-7.333 7.333-7.333s7.333 3.283 7.333 7.333v0zM19.805 5.528c-0.121-0.121-0.288-0.196-0.472-0.196-0.369 0-0.668 0.299-0.668 0.668 0 0.184 0.075 0.351 0.195 0.472v0l2.196 2.195-2.196 2.195c-0.121 0.121-0.195 0.288-0.195 0.472 0 0.369 0.299 0.668 0.668 0.668 0.184 0 0.351-0.075 0.472-0.195v0l2.195-2.196 2.195 2.196c0.121 0.121 0.288 0.195 0.472 0.195 0.369 0 0.668-0.299 0.668-0.668 0-0.184-0.075-0.351-0.195-0.472l-2.196-2.195 2.196-2.195c0.121-0.121 0.195-0.288 0.195-0.472 0-0.369-0.299-0.668-0.668-0.668-0.184 0-0.351 0.075-0.472 0.196l-2.195 2.196-2.195-2.196zM8.333 5.333h5.664c-0.249 0.577-0.445 1.25-0.556 1.951l-0.006 0.049h-5.101c-1.289 0-2.333 1.045-2.333 2.333v0 1h7.565c0.167 0.704 0.419 1.373 0.744 2h-8.309v6h6.077c0.509 0 0.923 0.413 0.923 0.923v0.077c0 1.657 1.343 3 3 3s3-1.343 3-3v0-0.077c0-0.509 0.413-0.923 0.923-0.923h6.077v-2.309c0.765-0.404 1.422-0.882 2.003-1.44l-0.003 0.003v10.080c0 2.393-1.94 4.333-4.333 4.333v0h-15.333c-2.393 0-4.333-1.94-4.333-4.333v0-15.333c0-2.393 1.94-4.333 4.333-4.333v0z"></path>
</svg>
