<!-- Generated by IcoMoon.io -->
<svg version="1.1" xmlns="http://www.w3.org/2000/svg" width="32" height="32" viewBox="0 0 32 32">
<title>drawer-subtract-filled</title>
<path d="M29.333 8.667c0-4.050-3.283-7.333-7.333-7.333s-7.333 3.283-7.333 7.333c0 4.050 3.283 7.333 7.333 7.333s7.333-3.283 7.333-7.333zM17.994 9.333c-0.368 0-0.666-0.298-0.666-0.667s0.298-0.667 0.666-0.667h8.001c0.368 0 0.666 0.298 0.666 0.667s-0.298 0.667-0.666 0.667h-8.001zM8.333 5.333h5.664c-0.264 0.632-0.455 1.302-0.562 2h-5.102c-1.289 0-2.333 1.045-2.333 2.333v1h7.565c0.166 0.704 0.418 1.374 0.744 2h-8.31v6h6.077c0.51 0 0.923 0.413 0.923 0.923v0.077c0 1.657 1.343 3 3 3s3-1.343 3-3v-0.077c0-0.51 0.413-0.923 0.923-0.923h6.077v-2.31c0.735-0.383 1.408-0.868 2-1.437v10.079c0 2.393-1.94 4.333-4.333 4.333h-15.333c-2.393 0-4.333-1.94-4.333-4.333v-15.333c0-2.393 1.94-4.333 4.333-4.333z"></path>
</svg>
