<!-- Generated by IcoMoon.io -->
<svg version="1.1" xmlns="http://www.w3.org/2000/svg" width="32" height="32" viewBox="0 0 32 32">
<title>drink-coffee-filled</title>
<path d="M7.333 3.667c0-0.552-0.448-1-1-1s-1 0.448-1 1v0c0 1.693 1.237 2.556 2.008 3.093l0.085 0.059c0.907 0.635 1.24 0.94 1.24 1.515 0 0.552 0.448 1 1 1s1-0.448 1-1v0c0-1.693-1.237-2.556-2.008-3.093l-0.085-0.059c-0.907-0.635-1.24-0.941-1.24-1.515zM6.428 10.667c-1.341 0-2.428 1.087-2.428 2.428v0 5.572c0 0.003 0 0.006 0 0.009 0 5.891 4.776 10.667 10.667 10.667 4.453 0 8.269-2.729 9.866-6.605l0.026-0.071h1.775c2.393 0 4.333-1.94 4.333-4.333s-1.94-4.333-4.333-4.333v0h-1v-0.905c0-1.341-1.087-2.428-2.428-2.428h-16.479zM26.333 20.667h-1.187c0.119-0.599 0.187-1.287 0.187-1.992 0-0.003 0-0.006 0-0.009v0-2.667h1c1.289 0 2.333 1.045 2.333 2.333s-1.045 2.333-2.333 2.333v0zM11.667 2.667c0.552 0 1 0.448 1 1v0c0 0.575 0.333 0.88 1.24 1.515l0.085 0.059c0.771 0.537 2.008 1.4 2.008 3.093 0 0.552-0.448 1-1 1s-1-0.448-1-1v0c0-0.575-0.333-0.88-1.24-1.515l-0.085-0.059c-0.771-0.537-2.008-1.4-2.008-3.093 0-0.552 0.448-1 1-1v0zM18 3.667c0-0.552-0.448-1-1-1s-1 0.448-1 1v0c0 1.693 1.237 2.556 2.008 3.093l0.085 0.059c0.907 0.635 1.24 0.94 1.24 1.515 0 0.552 0.448 1 1 1s1-0.448 1-1v0c0-1.693-1.237-2.556-2.008-3.093l-0.085-0.059c-0.907-0.635-1.24-0.94-1.24-1.515z"></path>
</svg>
