<!-- Generated by IcoMoon.io -->
<svg version="1.1" xmlns="http://www.w3.org/2000/svg" width="32" height="32" viewBox="0 0 32 32">
<title>drink-bottle-off-filled</title>
<path d="M24.981 26.395l3.312 3.312c0.18 0.174 0.425 0.281 0.695 0.281 0.552 0 1-0.448 1-1 0-0.27-0.107-0.515-0.281-0.695l-26-26c-0.18-0.174-0.425-0.281-0.695-0.281-0.552 0-1 0.448-1 1 0 0.27 0.107 0.515 0.281 0.695l7.14 7.14c-0.098 0.104-0.197 0.215-0.294 0.329l-0.011 0.013c-1.325 1.553-2.13 3.584-2.13 5.803 0 0.073 0.001 0.146 0.003 0.219l-0-0.011v8.8c0 2.209 1.791 4 4 4 0.95 0 1.822-0.331 2.508-0.884l-0.008 0.006c0.676 0.547 1.547 0.878 2.495 0.878 0.002 0 0.004 0 0.005 0h-0c0.002 0 0.004 0 0.006 0 0.948 0 1.818-0.331 2.501-0.884l-0.008 0.006c0.678 0.547 1.55 0.877 2.5 0.877 2.070 0 3.772-1.572 3.979-3.587l0.001-0.017zM22.586 24l0.414 0.414v1.586c-0 1.105-0.895 2-2 2-0.693 0-1.304-0.352-1.662-0.888l-0.005-0.007c-0.182-0.27-0.487-0.446-0.832-0.446s-0.651 0.176-0.83 0.442l-0.002 0.004c-0.36 0.542-0.973 0.895-1.668 0.895-0 0-0.001 0-0.002 0-0.692 0-1.303-0.352-1.661-0.888l-0.005-0.007c-0.182-0.27-0.487-0.446-0.832-0.446s-0.651 0.176-0.83 0.442l-0.002 0.004c-0.363 0.543-0.974 0.896-1.668 0.896-1.105 0-2-0.895-2-2 0-0.001 0-0.001 0-0.002v0-2h13.585zM25 17.2v4.262l-10.462-10.462h5.204c-1.020-1.022-2.027-2.202-2.332-3.799h-2.905c-0.19 0.988-0.648 1.82-1.214 2.553l-1.43-1.43c0.348-0.488 0.582-0.975 0.682-1.514-0.914-0.386-1.544-1.274-1.544-2.31 0-1.381 1.119-2.5 2.5-2.5 0 0 0.001 0 0.001 0h5c0.001 0 0.002 0 0.003 0 1.381 0 2.5 1.119 2.5 2.5 0 1.067-0.668 1.977-1.608 2.336l-0.017 0.006c0.199 1.015 0.878 1.854 1.907 2.872 2.263 1.653 3.716 4.297 3.716 7.28 0 0.044-0 0.088-0.001 0.132l0-0.007v0.081zM13.5 4c-0.276 0-0.5 0.224-0.5 0.5s0.224 0.5 0.5 0.5v0h5c0.276 0 0.5-0.224 0.5-0.5s-0.224-0.5-0.5-0.5v0h-5z"></path>
</svg>
