<!-- Generated by IcoMoon.io -->
<svg version="1.1" xmlns="http://www.w3.org/2000/svg" width="32" height="32" viewBox="0 0 32 32">
<title>drink-wine-filled</title>
<path d="M9 2.667c-0.552 0-1 0.448-1 1v0 9.333c0.001 3.881 2.885 7.089 6.627 7.597l0.040 0.004v6.743l-2.996-0.011c-0.001 0-0.003 0-0.004 0-0.552 0-1 0.448-1 1 0 0.551 0.445 0.998 0.996 1l4.007 0.015 4.667-0.015c0.551-0.002 0.997-0.449 0.997-1s-0.448-1-1-1c-0.001 0-0.002 0-0.003 0h0l-3.664 0.012v-6.737c4.152-0.517 7.333-4.024 7.333-8.274 0-0 0-0 0-0v0-8.667c0-0.552-0.448-1-1-1v0h-14zM10 9.333v-4.667h12v4.667h-12zM20.911 12.943c-0.214 1.1-0.766 2.047-1.541 2.751l-0.004 0.004c-0.636 0.581-1.428 1.001-2.306 1.191l-0.033 0.006c-0.041 0.009-0.088 0.014-0.137 0.014-0.368 0-0.667-0.299-0.667-0.667 0-0.32 0.225-0.587 0.526-0.652l0.004-0.001c0.668-0.143 1.249-0.451 1.717-0.88l-0.003 0.002c0.569-0.521 0.973-1.214 1.129-1.996l0.004-0.024c0.066-0.305 0.333-0.529 0.652-0.529 0.368 0 0.667 0.298 0.667 0.667 0 0.040-0.004 0.079-0.010 0.117l0.001-0.004z"></path>
</svg>
