<!-- Generated by IcoMoon.io -->
<svg version="1.1" xmlns="http://www.w3.org/2000/svg" width="32" height="32" viewBox="0 0 32 32">
<title>drink-bottle-filled</title>
<path d="M11 4.5c0-1.381 1.119-2.5 2.5-2.5v0h5c0 0 0 0 0 0 1.381 0 2.5 1.119 2.5 2.5 0 1.067-0.668 1.977-1.608 2.336l-0.017 0.006c0.2 1.015 0.88 1.854 1.908 2.872 2.262 1.653 3.715 4.297 3.715 7.28 0 0.044-0 0.088-0.001 0.132l0-0.007v0.027l0.001 0.054v8.8c-0 2.209-1.791 4-4 4-0.95 0-1.822-0.331-2.508-0.884l0.008 0.006c-0.676 0.547-1.547 0.878-2.495 0.878-0.002 0-0.004 0-0.005 0h0c-0.001 0-0.003 0-0.005 0-0.948 0-1.819-0.331-2.503-0.884l0.008 0.006c-0.678 0.547-1.55 0.878-2.5 0.878-2.209 0-4-1.791-4-3.999v-9.001c0-0.003 0-0.008 0-0.012 0-2.251 0.829-4.308 2.199-5.883l-0.009 0.011c0.343-0.396 0.709-0.752 1.102-1.075l0.016-0.012c1.215-1.176 2.024-2.080 2.235-3.218-0.912-0.386-1.541-1.274-1.541-2.309 0-0 0-0.001 0-0.001v0zM13.5 4c-0.276 0-0.5 0.224-0.5 0.5s0.224 0.5 0.5 0.5v0h5c0.276 0 0.5-0.224 0.5-0.5s-0.224-0.5-0.5-0.5v0h-5zM12.171 11h7.569c-1.020-1.022-2.027-2.202-2.332-3.8h-2.906c-0.304 1.591-1.306 2.775-2.33 3.8zM8.998 26c0 1.105 0.895 2 2 2 0.693 0 1.304-0.352 1.662-0.888l0.005-0.007c0.182-0.271 0.487-0.447 0.833-0.447s0.651 0.176 0.831 0.443l0.002 0.004c0.363 0.543 0.974 0.897 1.667 0.897s1.304-0.353 1.662-0.889l0.005-0.007c0.182-0.271 0.487-0.447 0.833-0.447s0.651 0.176 0.831 0.443l0.002 0.004c0.363 0.543 0.974 0.895 1.667 0.895 1.105 0 2-0.895 2-2v0-2h-14v2z"></path>
</svg>
