<!-- Generated by IcoMoon.io -->
<svg version="1.1" xmlns="http://www.w3.org/2000/svg" width="32" height="32" viewBox="0 0 32 32">
<title>drink-beer-filled</title>
<path d="M9.667 2.667c-2.393 0-4.333 1.94-4.333 4.333v19.333c0 1.657 1.343 3 3 3h12c1.657 0 3-1.343 3-3v-2.333h1.667c2.393 0 4.333-1.94 4.333-4.333v-7.333c0-2.393-1.94-4.333-4.333-4.333h-1.667v-1c0-2.393-1.94-4.333-4.333-4.333h-9.333zM25 22h-1.667v-12h1.667c1.289 0 2.333 1.045 2.333 2.333v7.333c0 1.289-1.045 2.333-2.333 2.333zM21.333 8h-14v-1c0-1.289 1.045-2.333 2.333-2.333h9.333c1.289 0 2.333 1.045 2.333 2.333v1zM11.333 13.333v9.333c0 0.552-0.448 1-1 1s-1-0.448-1-1v-9.333c0-0.552 0.448-1 1-1s1 0.448 1 1zM15.333 13.333v9.333c0 0.552-0.448 1-1 1s-1-0.448-1-1v-9.333c0-0.552 0.448-1 1-1s1 0.448 1 1zM19.333 13.333v9.333c0 0.552-0.448 1-1 1s-1-0.448-1-1v-9.333c0-0.552 0.448-1 1-1s1 0.448 1 1z"></path>
</svg>
