<!-- Generated by IcoMoon.io -->
<svg version="1.1" xmlns="http://www.w3.org/2000/svg" width="32" height="32" viewBox="0 0 32 32">
<title>drink-margarita-filled</title>
<path d="M27.32 3.503c0.009 0.049 0.014 0.106 0.014 0.164 0 0.494-0.359 0.905-0.83 0.986l-0.006 0.001-7.32 1.22-0.157 0.793h5.313c0.552 0 1 0.448 1 1v0 5.333c-0 2.276-1.755 4.142-3.985 4.319l-0.015 0.001v0.68c0 2.604-1.867 4.772-4.333 5.24v4.093h3.333c0.552 0 1 0.448 1 1s-0.448 1-1 1v0h-8.667c-0.552 0-1-0.448-1-1s0.448-1 1-1v0h3.333v-4.093c-2.485-0.487-4.333-2.648-4.333-5.24 0-0 0-0 0-0v0-0.68c-2.245-0.178-4-2.044-4-4.32v-5.333c0-0.552 0.448-1 1-1v0h9.313l0.373-1.863c0.083-0.407 0.405-0.72 0.81-0.79l0.006-0.001 8-1.333c0.049-0.009 0.106-0.014 0.164-0.014 0.494 0 0.905 0.359 0.986 0.83l0.001 0.006zM15.98 11.667l0.6-3h-7.913v3h7.313zM23.333 11.667v-3h-4.713l-0.6 3h5.313z"></path>
</svg>
