<!-- Generated by IcoMoon.io -->
<svg version="1.1" xmlns="http://www.w3.org/2000/svg" width="32" height="32" viewBox="0 0 32 32">
<title>drive-train-filled</title>
<path d="M4 7.333c0-1.841 1.492-3.333 3.333-3.333s3.333 1.492 3.333 3.333v0 1.333h2.751c0.306-1.161 1.346-2.003 2.583-2.003s2.277 0.842 2.578 1.984l0.004 0.019h2.751v-1.333c0-1.841 1.492-3.333 3.333-3.333s3.333 1.492 3.333 3.333v0 4c0 1.841-1.492 3.333-3.333 3.333s-3.333-1.492-3.333-3.333v0-0.667h-3.024c-0.3 0.513-0.751 0.909-1.292 1.133l-0.018 0.007v8.387c0.553 0.224 1.013 0.628 1.309 1.14h3.024v-0.667c0-1.841 1.492-3.333 3.333-3.333s3.333 1.492 3.333 3.333v0 4c0 1.841-1.492 3.333-3.333 3.333s-3.333-1.492-3.333-3.333v0-1.333h-2.751c-0.306 1.161-1.346 2.003-2.583 2.003s-2.277-0.842-2.579-1.984l-0.004-0.019h-2.751v1.333c0 1.841-1.492 3.333-3.333 3.333s-3.333-1.492-3.333-3.333v0-4c0-1.841 1.492-3.333 3.333-3.333s3.333 1.492 3.333 3.333v0 0.667h3.024c0.295-0.512 0.756-0.916 1.309-1.14v-8.387c-0.558-0.231-1.009-0.627-1.303-1.127l-0.007-0.013h-3.024v0.667c0 1.841-1.492 3.333-3.333 3.333s-3.333-1.492-3.333-3.333v0-4z"></path>
</svg>
