<!-- Generated by IcoMoon.io -->
<svg version="1.1" xmlns="http://www.w3.org/2000/svg" width="32" height="32" viewBox="0 0 32 32">
<title>dual-screen-update-filled</title>
<path d="M26.993 5.339c1.289 0 2.333 1.045 2.333 2.333v16.661c0 1.289-1.045 2.333-2.333 2.333v0h-9.663c-0.116 0-0.229-0.008-0.341-0.024v-21.279c0.111-0.016 0.225-0.025 0.341-0.025h9.663zM14.664 5.336c0.115 0 0.229 0.008 0.339 0.024l-0.013-0.002v21.281c-0.098 0.014-0.211 0.023-0.327 0.023h-9.664c-1.289 0-2.333-1.045-2.333-2.333v0-16.66c0-1.289 1.045-2.333 2.333-2.333h9.664zM23.333 9.333l-0.136 0.009-0.131 0.027c-0.379 0.106-0.663 0.419-0.725 0.806l-0.001 0.006-0.011 0.149v8.931l-1.285-1.28-0.113-0.096c-0.165-0.122-0.372-0.196-0.597-0.196-0.276 0-0.527 0.111-0.709 0.292l0-0c-0.181 0.18-0.293 0.43-0.293 0.705 0 0.224 0.074 0.431 0.199 0.597l-0.002-0.003 0.096 0.112 2.997 2.983 0.144 0.119 0.103 0.061 0.149 0.063 0.128 0.032 0.123 0.016h0.125l0.124-0.016 0.083-0.019 0.135-0.048 0.081-0.040 0.089-0.056 0.084-0.065 0.051-0.047 2.997-2.983 0.096-0.112c0.123-0.164 0.197-0.37 0.197-0.594 0-0.217-0.070-0.419-0.188-0.582l0.002 0.003-0.107-0.127-0.113-0.096c-0.165-0.122-0.372-0.195-0.596-0.195-0.219 0-0.421 0.070-0.587 0.188l0.003-0.002-0.125 0.107-1.287 1.279 0.001-8.931-0.009-0.135c-0.064-0.445-0.412-0.792-0.852-0.853l-0.005-0.001-0.136-0.009z"></path>
</svg>
