<!-- Generated by IcoMoon.io -->
<svg version="1.1" xmlns="http://www.w3.org/2000/svg" width="32" height="32" viewBox="0 0 32 32">
<title>dual-screen-span-filled</title>
<path d="M29.336 7.671c0-1.289-1.045-2.333-2.333-2.333h-9.663c-0.116 0-0.229 0.008-0.341 0.025v9.637h6.441l-1.187-1.336c-0.367-0.413-0.33-1.045 0.083-1.412s1.045-0.33 1.412 0.083l2.667 3c0.337 0.379 0.337 0.95 0 1.329l-2.667 3c-0.367 0.413-0.999 0.45-1.412 0.083s-0.45-0.999-0.083-1.412l1.187-1.336h-6.441l0 9.64c0.111 0.016 0.225 0.025 0.341 0.025h9.663c1.289 0 2.333-1.045 2.333-2.333v-16.66z"></path>
<path d="M15 15h-6.44l1.187-1.336c0.367-0.413 0.33-1.045-0.083-1.412s-1.045-0.33-1.412 0.083l-2.667 3c-0.337 0.379-0.337 0.95 0 1.329l2.667 3c0.367 0.413 0.999 0.45 1.412 0.083s0.45-0.999 0.083-1.412l-1.187-1.336h6.44l-0 9.639c-0.107 0.015-0.216 0.023-0.327 0.023h-9.663c-1.289 0-2.333-1.045-2.333-2.333v-16.66c0-1.289 1.045-2.333 2.333-2.333h9.663c0.111 0 0.22 0.008 0.327 0.023l-0 9.642z"></path>
</svg>
