<!-- Generated by IcoMoon.io -->
<svg version="1.1" xmlns="http://www.w3.org/2000/svg" width="32" height="32" viewBox="0 0 32 32">
<title>dual-screen-vertical-scroll-filled</title>
<path d="M26.993 5.339c1.289 0 2.333 1.045 2.333 2.333v16.661c0 1.289-1.045 2.333-2.333 2.333v0h-9.663c-0.116 0-0.229-0.008-0.341-0.024v-21.279c0.111-0.016 0.225-0.025 0.341-0.025h9.663zM14.664 5.336c0.115 0 0.229 0.008 0.339 0.024l-0.013-0.002v21.281c-0.098 0.014-0.211 0.023-0.327 0.023h-9.664c-1.289 0-2.333-1.045-2.333-2.333v0-16.66c0-1.289 1.045-2.333 2.333-2.333h9.664zM20.936 17.869c-0.166-0.128-0.378-0.206-0.608-0.206-0.552 0-1 0.448-1 1 0 0.223 0.073 0.429 0.196 0.595l-0.002-0.003 0.097 0.112 3.004 3.061 0.112 0.099c0.355 0.267 0.848 0.267 1.203 0l0.113-0.1 3-3.060 0.095-0.113c0.12-0.163 0.192-0.368 0.192-0.59 0-0.552-0.448-1-1-1-0.229 0-0.44 0.077-0.608 0.206l0.002-0.002-0.111 0.099-2.285 2.333-2.291-2.333-0.111-0.099zM24.052 9.635c-0.182-0.186-0.435-0.301-0.715-0.301-0.227 0-0.436 0.075-0.604 0.203l0.003-0.002-0.112 0.099-3.004 3.061c-0.177 0.18-0.286 0.428-0.286 0.7 0 0.552 0.448 1 1 1 0.227 0 0.437-0.076 0.605-0.203l-0.002 0.002 0.111-0.097 2.291-2.333 2.285 2.333c0.182 0.188 0.436 0.304 0.718 0.304 0.552 0 1-0.448 1-1 0-0.223-0.073-0.429-0.196-0.595l0.002 0.003-0.095-0.112-3-3.061z"></path>
</svg>
