<!-- Generated by IcoMoon.io -->
<svg version="1.1" xmlns="http://www.w3.org/2000/svg" width="32" height="32" viewBox="0 0 32 32">
<title>dual-screen-filled</title>
<path d="M27.003 5.338c1.289 0 2.333 1.045 2.333 2.333v16.66c0 1.289-1.045 2.333-2.333 2.333h-9.663c-0.116 0-0.229-0.008-0.341-0.025l-0-21.277c0.111-0.016 0.225-0.025 0.341-0.025h9.663zM14.673 5.335c0.111 0 0.22 0.008 0.327 0.023l-0 21.281c-0.107 0.015-0.216 0.023-0.327 0.023h-9.663c-1.289 0-2.333-1.045-2.333-2.333v-16.66c0-1.289 1.045-2.333 2.333-2.333h9.663zM12.334 20.666h-2.002l-0.136 0.009c-0.488 0.066-0.864 0.485-0.864 0.991s0.376 0.925 0.864 0.991l0.136 0.009h2.002l0.136-0.009c0.488-0.066 0.864-0.485 0.864-0.991s-0.376-0.925-0.864-0.991l-0.136-0.009zM21.661 20.666h-2l-0.136 0.009c-0.488 0.066-0.864 0.485-0.864 0.991s0.376 0.925 0.864 0.991l0.136 0.009h2l0.136-0.009c0.488-0.066 0.864-0.485 0.864-0.991s-0.376-0.925-0.864-0.991l-0.136-0.009z"></path>
</svg>
