<!-- Generated by IcoMoon.io -->
<svg version="1.1" xmlns="http://www.w3.org/2000/svg" width="32" height="32" viewBox="0 0 32 32">
<title>dual-screen-tablet-filled</title>
<path d="M10 11.999v16l-5 0.001c-1.224 0-2.228-0.943-2.326-2.142l-0.008-0.191v-11.334c0-1.224 0.943-2.228 2.142-2.326l0.191-0.008 5-0zM16.333 12c1.224 0 2.228 0.943 2.326 2.142l0.008 0.191v11.334c0 1.224-0.943 2.228-2.142 2.326l-0.191 0.008-5-0.001v-16l5 0zM14.192 23.333h-0.667l-0.136 0.009c-0.488 0.066-0.864 0.485-0.864 0.991s0.376 0.925 0.864 0.991l0.136 0.009h0.667l0.136-0.009c0.488-0.066 0.864-0.485 0.864-0.991 0-0.552-0.448-1-1-1zM7.858 23.333h-0.667l-0.136 0.009c-0.488 0.066-0.864 0.485-0.864 0.991s0.376 0.925 0.864 0.991l0.136 0.009h0.667l0.136-0.009c0.488-0.066 0.864-0.485 0.864-0.991 0-0.552-0.448-1-1-1zM26.333 4c1.588 0 2.887 1.234 2.993 2.795l0.007 0.205v11.333c0 1.588-1.234 2.887-2.795 2.993l-0.205 0.007h-6.333v-3.333h1.667c0.552 0 1-0.448 1-1s-0.448-1-1-1h-1.667v-2c0-1.767-1.375-3.213-3.114-3.326l-0.219-0.007h-8.667v-3.667c0-1.588 1.234-2.888 2.795-2.993l0.205-0.007h15.333z"></path>
</svg>
