<!-- Generated by IcoMoon.io -->
<svg version="1.1" xmlns="http://www.w3.org/2000/svg" width="32" height="32" viewBox="0 0 32 32">
<title>dual-screen-clock-filled</title>
<path d="M29.328 13.296v13.704c0 1.289-1.045 2.333-2.333 2.333v0h-9.664c-0.116 0-0.229-0.008-0.341-0.025v-13.568c1.388 0.996 3.122 1.593 4.995 1.593 0.005 0 0.011 0 0.016 0h-0.001c0.001 0 0.003 0 0.005 0 3.068 0 5.764-1.596 7.302-4.003l0.021-0.035zM13.359 8.003c-0.017 0.202-0.027 0.438-0.027 0.676 0 1.912 0.622 3.679 1.675 5.109l-0.017-0.024v15.541c-0.098 0.014-0.211 0.023-0.326 0.023-0 0-0 0-0 0h-9.664c-1.289 0-2.333-1.045-2.333-2.333v0-16.66c0-1.288 1.045-2.333 2.333-2.333h8.359zM12.324 23.333h-2.004l-0.136 0.009c-0.491 0.069-0.864 0.486-0.864 0.991s0.373 0.921 0.858 0.99l0.005 0.001 0.136 0.009h2.003l0.136-0.009c0.491-0.069 0.864-0.486 0.864-0.991s-0.373-0.921-0.858-0.99l-0.005-0.001-0.136-0.009zM21.652 23.333h-2l-0.136 0.009c-0.491 0.069-0.864 0.486-0.864 0.991s0.373 0.921 0.858 0.99l0.005 0.001 0.136 0.009h2l0.135-0.009c0.491-0.069 0.864-0.486 0.864-0.991s-0.373-0.921-0.858-0.99l-0.005-0.001-0.135-0.009zM21.997 1.333c4.050 0 7.333 3.283 7.333 7.333s-3.283 7.333-7.333 7.333v0c-4.050 0-7.333-3.283-7.333-7.333s3.283-7.333 7.333-7.333v0zM20.664 4c-0.368 0-0.667 0.298-0.667 0.667v0 5.333c0 0.368 0.298 0.667 0.667 0.667v0h4.001c0.368 0 0.667-0.298 0.667-0.667s-0.298-0.667-0.667-0.667v0h-3.335v-4.667c0-0.368-0.298-0.667-0.667-0.667v0z"></path>
</svg>
