<!-- Generated by IcoMoon.io -->
<svg version="1.1" xmlns="http://www.w3.org/2000/svg" width="32" height="32" viewBox="0 0 32 32">
<title>dual-screen-filled</title>
<path d="M26.993 5.336c1.289 0 2.333 1.045 2.333 2.333v16.661c0 1.289-1.045 2.333-2.333 2.333v0h-9.663c-0.116 0-0.229-0.009-0.341-0.025v-21.277c0.111-0.016 0.225-0.025 0.341-0.025h9.663zM14.664 5.333c0.115 0 0.229 0.008 0.339 0.024l-0.013-0.002v21.281c-0.098 0.014-0.211 0.023-0.326 0.023-0 0-0 0-0 0h-9.664c-1.289 0-2.333-1.045-2.333-2.333v0-16.66c0-1.288 1.045-2.333 2.333-2.333h9.664zM12.324 20.665h-2.004l-0.136 0.009c-0.491 0.069-0.864 0.486-0.864 0.991s0.373 0.921 0.858 0.99l0.005 0.001 0.136 0.009h2.003l0.136-0.009c0.491-0.069 0.864-0.486 0.864-0.991s-0.373-0.921-0.858-0.99l-0.005-0.001-0.136-0.009zM21.652 20.665h-2l-0.136 0.009c-0.491 0.069-0.864 0.486-0.864 0.991s0.373 0.921 0.858 0.99l0.005 0.001 0.136 0.009h2l0.135-0.009c0.491-0.069 0.864-0.486 0.864-0.991s-0.373-0.921-0.858-0.99l-0.005-0.001-0.135-0.009z"></path>
</svg>
