<!-- Generated by IcoMoon.io -->
<svg version="1.1" xmlns="http://www.w3.org/2000/svg" width="32" height="32" viewBox="0 0 32 32">
<title>dual-screen-arrow-right-filled</title>
<path d="M29.328 13.296v13.704c0 1.289-1.045 2.333-2.333 2.333v0h-9.664c-0.116 0-0.229-0.008-0.341-0.025v-13.568c1.388 0.996 3.122 1.593 4.995 1.593 0.005 0 0.011 0 0.016 0h-0.001c0.001 0 0.003 0 0.005 0 3.068 0 5.764-1.596 7.302-4.003l0.021-0.035zM13.359 8.003c-0.017 0.202-0.027 0.438-0.027 0.676 0 1.912 0.622 3.679 1.675 5.109l-0.017-0.024v15.541c-0.098 0.014-0.211 0.023-0.326 0.023-0 0-0 0-0 0h-9.664c-1.289 0-2.333-1.045-2.333-2.333v0-16.66c0-1.288 1.045-2.333 2.333-2.333h8.359zM12.324 23.333h-2.004l-0.136 0.009c-0.491 0.069-0.864 0.486-0.864 0.991s0.373 0.921 0.858 0.99l0.005 0.001 0.136 0.009h2.003l0.136-0.009c0.491-0.069 0.864-0.486 0.864-0.991s-0.373-0.921-0.858-0.99l-0.005-0.001-0.136-0.009zM21.652 23.333h-2l-0.136 0.009c-0.491 0.069-0.864 0.486-0.864 0.991s0.373 0.921 0.858 0.99l0.005 0.001 0.136 0.009h2l0.135-0.009c0.491-0.069 0.864-0.486 0.864-0.991s-0.373-0.921-0.858-0.99l-0.005-0.001-0.135-0.009zM22 1.333c4.050 0 7.333 3.283 7.333 7.333s-3.283 7.333-7.333 7.333v0c-4.050 0-7.333-3.283-7.333-7.333s3.283-7.333 7.333-7.333v0zM22.389 4.727l-0.101 0.059-0.093 0.076-0.076 0.093c-0.074 0.106-0.118 0.237-0.118 0.379s0.044 0.273 0.119 0.381l-0.001-0.002 0.076 0.093 2.195 2.193-6.397 0.001-0.12 0.011c-0.273 0.051-0.485 0.263-0.535 0.532l-0.001 0.004-0.011 0.12 0.011 0.12c0.051 0.273 0.263 0.485 0.532 0.535l0.004 0.001 0.12 0.011 6.4-0.001-2.197 2.196-0.076 0.093c-0.073 0.105-0.116 0.236-0.116 0.376 0 0.368 0.298 0.667 0.667 0.667 0.141 0 0.271-0.044 0.379-0.118l-0.002 0.001 0.093-0.076 3.373-3.377 0.048-0.067 0.056-0.107 0.035-0.111 0.013-0.085v-0.117l-0.013-0.085-0.035-0.111-0.055-0.107-0.051-0.067-3.373-3.377-0.092-0.076c-0.106-0.074-0.238-0.119-0.38-0.119-0.1 0-0.195 0.022-0.28 0.062l0.004-0.002z"></path>
</svg>
