<!-- Generated by IcoMoon.io -->
<svg version="1.1" xmlns="http://www.w3.org/2000/svg" width="32" height="32" viewBox="0 0 32 32">
<title>dual-screen-arrow-up-filled</title>
<path d="M29.333 8.667c0 4.050-3.283 7.333-7.333 7.333s-7.333-3.283-7.333-7.333v0c0-4.050 3.283-7.333 7.333-7.333s7.333 3.283 7.333 7.333v0zM21.333 6.276v6.391c0 0.368 0.298 0.667 0.667 0.667s0.667-0.298 0.667-0.667v0-6.391l2.195 2.196c0.121 0.121 0.288 0.196 0.472 0.196 0.369 0 0.668-0.299 0.668-0.668 0-0.184-0.075-0.351-0.195-0.472l-3.333-3.333c-0.121-0.121-0.288-0.196-0.472-0.196s-0.351 0.075-0.472 0.196v0l-3.333 3.333c-0.121 0.121-0.195 0.288-0.195 0.472 0 0.369 0.299 0.668 0.668 0.668 0.184 0 0.351-0.075 0.472-0.195v0l2.195-2.196zM29.327 26.999l0.001-13.703c-1.559 2.442-4.255 4.037-7.323 4.037-0.002 0-0.003 0-0.005 0h0c-0.005 0-0.010 0-0.015 0-1.873 0-3.607-0.597-5.021-1.611l0.026 0.018v13.567c0.111 0.016 0.225 0.025 0.341 0.025h9.663c1.289 0 2.333-1.045 2.333-2.333v0zM19.653 23.333h2l0.135 0.009c0.491 0.069 0.864 0.486 0.864 0.991s-0.373 0.921-0.858 0.99l-0.005 0.001-0.135 0.009h-2l-0.136-0.009c-0.491-0.069-0.864-0.486-0.864-0.991s0.373-0.921 0.858-0.99l0.005-0.001 0.136-0.009zM13.333 8.667c0-0.224 0.008-0.445 0.025-0.664h-8.359c-1.288 0-2.333 1.044-2.333 2.332v16.659c0 1.289 1.045 2.333 2.333 2.333h9.664c0.111 0 0.22-0.007 0.327-0.023v-15.54c-1.036-1.406-1.657-3.172-1.657-5.084 0-0.005 0-0.009 0-0.014v0.001zM10.321 23.333h2.003l0.136 0.009c0.491 0.069 0.864 0.486 0.864 0.991s-0.373 0.921-0.858 0.99l-0.005 0.001-0.136 0.009h-2.004l-0.136-0.009c-0.491-0.069-0.864-0.486-0.864-0.991s0.373-0.921 0.858-0.99l0.005-0.001 0.136-0.009z"></path>
</svg>
