<!-- Generated by IcoMoon.io -->
<svg version="1.1" xmlns="http://www.w3.org/2000/svg" width="32" height="32" viewBox="0 0 32 32">
<title>dual-screen-vertical-scroll-filled</title>
<path d="M26.993 5.338c1.289 0 2.333 1.045 2.333 2.333v16.66c0 1.289-1.045 2.333-2.333 2.333h-9.663c-0.116 0-0.229-0.008-0.341-0.025l-0-21.277c0.111-0.016 0.225-0.025 0.341-0.025h9.663zM14.663 5.335c0.111 0 0.22 0.008 0.327 0.023l-0 21.281c-0.107 0.015-0.216 0.023-0.327 0.023h-9.663c-1.289 0-2.333-1.045-2.333-2.333v-16.66c0-1.289 1.045-2.333 2.333-2.333h9.663zM20.936 17.868c-0.389-0.294-0.945-0.267-1.303 0.085s-0.396 0.907-0.109 1.301l0.096 0.113 3.004 3.061 0.113 0.099c0.355 0.267 0.848 0.267 1.202-0l0.113-0.099 3-3.061 0.096-0.113c0.286-0.394 0.249-0.95-0.11-1.301s-0.914-0.378-1.303-0.084l-0.111 0.098-2.286 2.333-2.29-2.333-0.111-0.098zM24.051 9.633c-0.356-0.364-0.921-0.397-1.315-0.1l-0.113 0.099-3.004 3.061c-0.387 0.394-0.381 1.027 0.013 1.414 0.358 0.352 0.914 0.379 1.303 0.085l0.111-0.098 2.29-2.333 2.286 2.333c0.387 0.394 1.020 0.401 1.414 0.014 0.359-0.351 0.396-0.907 0.11-1.301l-0.096-0.113-3-3.061z"></path>
</svg>
