<!-- Generated by IcoMoon.io -->
<svg version="1.1" xmlns="http://www.w3.org/2000/svg" width="32" height="32" viewBox="0 0 32 32">
<title>dual-screen-header-filled</title>
<path d="M29.327 10.663v13.671c0 1.289-1.045 2.333-2.333 2.333v0h-9.663c-0.12-0-0.238-0.009-0.353-0.027l0.013 0.002-0.001-15.979h12.337zM14.991 10.663v15.977c-0.098 0.014-0.211 0.023-0.327 0.023h-9.664c-1.289 0-2.333-1.045-2.333-2.333v0-13.667h12.324zM14.664 5.336c0.111 0 0.22 0.008 0.328 0.023l-0.001 3.971h-12.324v-1.66c0-1.289 1.045-2.333 2.333-2.333h9.664zM26.995 5.339c1.288 0 2.333 1.045 2.333 2.333l-0.001 1.657h-12.337v-3.965c0.112-0.016 0.227-0.025 0.341-0.025h9.664z"></path>
</svg>
