<!-- Generated by IcoMoon.io -->
<svg version="1.1" xmlns="http://www.w3.org/2000/svg" width="32" height="32" viewBox="0 0 32 32">
<title>dual-screen-settings-filled</title>
<path d="M17.699 3.967c0.42 1.454-0.453 2.965-1.922 3.328l-0.779 0.193c-0.060 0.384-0.091 0.777-0.091 1.178 0 0.42 0.034 0.831 0.099 1.231l0.719 0.173c1.484 0.357 2.366 1.884 1.934 3.347l-0.248 0.842c0.586 0.514 1.253 0.932 1.979 1.229l0.658-0.692c1.052-1.106 2.815-1.105 3.866 0.001l0.665 0.7c0.725-0.294 1.392-0.707 1.978-1.217l-0.264-0.915c-0.42-1.454 0.453-2.965 1.922-3.328l0.779-0.193c0.060-0.384 0.091-0.777 0.091-1.178 0-0.42-0.034-0.831-0.1-1.232l-0.719-0.173c-1.484-0.357-2.366-1.884-1.934-3.347l0.248-0.841c-0.586-0.514-1.253-0.932-1.979-1.229l-0.658 0.691c-1.052 1.106-2.815 1.105-3.866-0.001l-0.665-0.7c-0.725 0.294-1.392 0.707-1.977 1.217l0.264 0.915zM21.996 10.666c-1.068 0-1.933-0.895-1.933-2s0.866-2 1.933-2c1.068 0 1.933 0.895 1.933 2s-0.866 2-1.933 2zM21.996 17.333c3.090 0 5.803-1.617 7.338-4.050v13.715c0 1.289-1.045 2.333-2.334 2.333h-9.666c-0.116 0-0.229-0.008-0.341-0.025v-13.561c1.413 1 3.139 1.588 5.003 1.588zM21.656 23.333h-2.001l-0.136 0.009c-0.488 0.066-0.865 0.485-0.865 0.991s0.376 0.925 0.865 0.991l0.136 0.009h2.001l0.136-0.009c0.488-0.066 0.865-0.485 0.865-0.991s-0.376-0.925-0.865-0.991l-0.136-0.009zM13.327 8.667c0-0.224 0.009-0.446 0.025-0.665h-8.351c-1.289 0-2.334 1.045-2.334 2.333v16.66c0 1.289 1.045 2.333 2.334 2.333h9.666c0.111 0 0.22-0.008 0.327-0.023l0-15.528c-1.048-1.433-1.667-3.2-1.667-5.111zM12.326 23.333l0.136 0.009c0.488 0.066 0.865 0.485 0.865 0.991s-0.376 0.925-0.865 0.991l-0.136 0.009h-2.003l-0.136-0.009c-0.488-0.066-0.864-0.485-0.864-0.991s0.376-0.925 0.864-0.991l0.136-0.009h2.003z"></path>
</svg>
