<!-- Generated by IcoMoon.io -->
<svg version="1.1" xmlns="http://www.w3.org/2000/svg" width="32" height="32" viewBox="0 0 32 32">
<title>dual-screen-mirror-filled</title>
<path d="M27.004 5.339c1.288 0 2.333 1.045 2.333 2.333v16.661c0 1.289-1.045 2.333-2.333 2.333v0h-9.664c-0.001 0-0.002 0-0.002 0-0.119 0-0.236-0.009-0.351-0.026l0.013 0.002v-21.279c0.102-0.016 0.22-0.025 0.34-0.025h9.664zM24.229 12.553c-0.168-0.331-0.505-0.553-0.895-0.553s-0.727 0.223-0.892 0.548l-0.003 0.006-3 6c-0.067 0.131-0.106 0.285-0.106 0.448 0 0.552 0.447 1 0.999 1h6c0.001 0 0.001 0 0.002 0 0.552 0 1-0.448 1-1 0-0.163-0.039-0.317-0.109-0.454l0.003 0.006-3-6zM14.673 5.336c0.112 0 0.221 0.008 0.328 0.023v21.281c-0.107 0.015-0.216 0.023-0.328 0.023h-9.663c-1.289 0-2.333-1.045-2.333-2.333v0-16.66c0-1.289 1.044-2.333 2.333-2.333h9.663zM9.563 12.553c-0.168-0.331-0.505-0.553-0.895-0.553s-0.727 0.223-0.892 0.548l-0.003 0.006-3 6c-0.067 0.131-0.106 0.285-0.106 0.448 0 0.552 0.447 1 0.999 1h6c0.001 0 0.001 0 0.002 0 0.552 0 1-0.448 1-1 0-0.163-0.039-0.317-0.109-0.454l0.003 0.006-3-6z"></path>
</svg>
