<!-- Generated by IcoMoon.io -->
<svg version="1.1" xmlns="http://www.w3.org/2000/svg" width="32" height="32" viewBox="0 0 32 32">
<title>dual-screen-header-filled</title>
<path d="M29.326 10.661l0.001 13.67c0 1.289-1.045 2.333-2.333 2.333h-9.663c-0.116 0-0.229-0.008-0.341-0.025l-0.001-15.979h12.337zM14.99 10.661l0 15.978c-0.107 0.015-0.216 0.023-0.327 0.023h-9.663c-1.289 0-2.333-1.045-2.333-2.333l-0.001-13.667h12.324zM14.663 5.335c0.111 0 0.22 0.008 0.327 0.023l-0.001 3.971h-12.324l0.001-1.66c0-1.289 1.045-2.333 2.333-2.333h9.663zM26.993 5.338c1.289 0 2.333 1.045 2.333 2.333l-0.001 1.657h-12.337l0.001-3.965c0.111-0.016 0.225-0.025 0.341-0.025h9.663z"></path>
</svg>
