<!-- Generated by IcoMoon.io -->
<svg version="1.1" xmlns="http://www.w3.org/2000/svg" width="32" height="32" viewBox="0 0 32 32">
<title>dual-screen-update-filled</title>
<path d="M26.993 5.338c1.289 0 2.333 1.045 2.333 2.333v16.66c0 1.289-1.045 2.333-2.333 2.333h-9.663c-0.116 0-0.229-0.008-0.341-0.025l-0-21.277c0.111-0.016 0.225-0.025 0.341-0.025h9.663zM14.663 5.335c0.111 0 0.22 0.008 0.327 0.023l-0 21.281c-0.107 0.015-0.216 0.023-0.327 0.023h-9.663c-1.289 0-2.333-1.045-2.333-2.333v-16.66c0-1.289 1.045-2.333 2.333-2.333h9.663zM23.333 9.333l-0.136 0.009-0.13 0.027c-0.377 0.103-0.666 0.42-0.725 0.812l-0.011 0.15-0.001 8.93-1.284-1.279-0.113-0.097c-0.393-0.29-0.95-0.258-1.306 0.097s-0.388 0.909-0.097 1.299l0.097 0.112 2.997 2.983 0.143 0.118 0.103 0.061 0.149 0.063 0.129 0.033 0.123 0.015h0.125l0.124-0.015 0.084-0.019 0.135-0.048 0.081-0.040 0.089-0.055 0.084-0.065 0.051-0.047 2.997-2.983 0.097-0.112c0.259-0.347 0.262-0.824 0.010-1.174l-0.107-0.125-0.112-0.097c-0.349-0.258-0.828-0.261-1.18-0.009l-0.126 0.106-1.286 1.279 0.001-8.93-0.009-0.135c-0.060-0.443-0.413-0.793-0.857-0.853l-0.136-0.009z"></path>
</svg>
