<!-- Generated by IcoMoon.io -->
<svg version="1.1" xmlns="http://www.w3.org/2000/svg" width="32" height="32" viewBox="0 0 32 32">
<title>dual-screen-clock-filled</title>
<path d="M29.328 13.296l-0.001 13.702c0 1.289-1.045 2.333-2.333 2.333h-9.663c-0.116 0-0.229-0.008-0.341-0.025l0.001-13.568c1.415 1.004 3.143 1.594 5.010 1.594 3.084 0 5.792-1.611 7.328-4.037zM13.358 8.002c-0.017 0.219-0.025 0.441-0.025 0.665 0 1.905 0.615 3.667 1.657 5.097l0.001 15.542c-0.107 0.015-0.216 0.023-0.327 0.023h-9.663c-1.289 0-2.333-1.045-2.333-2.333v-16.66c0-1.289 1.045-2.333 2.333-2.333l8.358 0zM12.324 23.333h-2.002l-0.136 0.009c-0.488 0.066-0.864 0.485-0.864 0.991s0.376 0.925 0.864 0.991l0.136 0.009h2.002l0.136-0.009c0.488-0.066 0.864-0.485 0.864-0.991s-0.376-0.925-0.864-0.991l-0.136-0.009zM21.652 23.333h-2l-0.136 0.009c-0.488 0.066-0.864 0.485-0.864 0.991s0.376 0.925 0.864 0.991l0.136 0.009h2l0.136-0.009c0.488-0.066 0.864-0.485 0.864-0.991s-0.376-0.925-0.864-0.991l-0.136-0.009zM21.997 1.333c4.050 0 7.333 3.283 7.333 7.333s-3.283 7.333-7.333 7.333c-4.050 0-7.333-3.283-7.333-7.333s3.283-7.333 7.333-7.333zM20.663 4c-0.368 0-0.667 0.299-0.667 0.667v5.333c0 0.368 0.299 0.667 0.667 0.667h4.002c0.368 0 0.667-0.299 0.667-0.667s-0.299-0.667-0.667-0.667h-3.335v-4.667c0-0.368-0.299-0.667-0.667-0.667z"></path>
</svg>
