<!-- Generated by IcoMoon.io -->
<svg version="1.1" xmlns="http://www.w3.org/2000/svg" width="32" height="32" viewBox="0 0 32 32">
<title>dual-screen-desktop-filled</title>
<path d="M10 13.333v16h-5c-1.221-0-2.224-0.939-2.325-2.134l-0.001-0.009-0.008-0.191v-11.333c0-1.221 0.938-2.223 2.133-2.325l0.009-0.001 0.192-0.008h5zM16.333 13.333c1.221 0 2.223 0.938 2.325 2.133l0.001 0.009 0.008 0.192v11.333c-0 1.221-0.939 2.224-2.134 2.325l-0.009 0.001-0.191 0.008h-5v-16h5zM14.192 24.667h-0.667l-0.136 0.009c-0.491 0.069-0.864 0.486-0.864 0.991s0.373 0.921 0.858 0.99l0.005 0.001 0.136 0.009h0.667l0.135-0.009c0.491-0.069 0.864-0.486 0.864-0.991 0-0.552-0.447-0.999-0.998-1h-0zM7.859 24.667h-0.667l-0.136 0.009c-0.491 0.069-0.864 0.486-0.864 0.991s0.373 0.921 0.858 0.99l0.005 0.001 0.136 0.009h0.667l0.136-0.009c0.491-0.069 0.864-0.486 0.864-0.991 0-0.552-0.448-1-1-1h-0zM26.333 2.667c0 0 0 0 0 0 1.585 0 2.882 1.229 2.992 2.785l0.001 0.010 0.007 0.205v12c0 0 0 0 0 0 0 1.585-1.229 2.882-2.785 2.992l-0.010 0.001-0.205 0.007h-3.667v2.667h1.667c0.552 0 1 0.448 1 1 0 0.504-0.373 0.921-0.858 0.99l-0.005 0.001-0.136 0.009h-4.333v-2h0.667v-2.667h-0.667v-5.333c0-0 0-0 0-0.001 0-1.764-1.37-3.208-3.104-3.326l-0.010-0.001-0.219-0.007h-11.333v-6.333c0-0 0-0 0-0 0-1.585 1.229-2.882 2.785-2.992l0.010-0.001 0.205-0.007h18z"></path>
</svg>
