<!-- Generated by IcoMoon.io -->
<svg version="1.1" xmlns="http://www.w3.org/2000/svg" width="32" height="32" viewBox="0 0 32 32">
<title>dual-screen-settings-filled</title>
<path d="M17.699 3.968c0.066 0.221 0.105 0.476 0.105 0.739 0 1.245-0.854 2.291-2.007 2.585l-0.018 0.004-0.78 0.193c-0.058 0.353-0.091 0.761-0.091 1.175 0 0.436 0.037 0.863 0.107 1.279l-0.006-0.045 0.72 0.173c1.181 0.291 2.042 1.341 2.042 2.593 0 0.269-0.040 0.528-0.114 0.773l0.005-0.019-0.249 0.841c0.587 0.515 1.253 0.933 1.98 1.229l0.657-0.692c0.487-0.512 1.173-0.83 1.933-0.83s1.447 0.318 1.932 0.829l0.001 0.001 0.665 0.7c0.76-0.313 1.413-0.722 1.985-1.223l-0.008 0.007-0.264-0.915c-0.067-0.222-0.105-0.477-0.105-0.741 0-1.245 0.854-2.291 2.008-2.585l0.018-0.004 0.779-0.192c0.058-0.355 0.092-0.763 0.092-1.18 0-0.434-0.036-0.86-0.106-1.274l0.006 0.045-0.72-0.173c-1.181-0.291-2.042-1.341-2.042-2.593 0-0.269 0.040-0.528 0.114-0.773l-0.005 0.019 0.249-0.841c-0.564-0.499-1.219-0.913-1.934-1.212l-0.046-0.017-0.657 0.691c-0.487 0.512-1.173 0.83-1.933 0.83s-1.447-0.318-1.932-0.829l-0.001-0.001-0.665-0.7c-0.725 0.293-1.392 0.707-1.977 1.217l0.264 0.915zM21.996 10.667c-1.068 0-1.933-0.895-1.933-2 0-1.104 0.865-2 1.933-2 1.067 0 1.933 0.896 1.933 2 0 1.105-0.867 2-1.933 2zM21.996 17.333c0.002 0 0.003 0 0.005 0 3.074 0 5.774-1.601 7.311-4.014l0.021-0.035v13.715c0 1.289-1.045 2.333-2.333 2.333v0h-9.667c-0.001 0-0.002 0-0.003 0-0.119 0-0.235-0.009-0.35-0.026l0.013 0.002v-13.564c1.388 0.994 3.119 1.589 4.99 1.589 0.004 0 0.009 0 0.013 0h-0.001zM21.656 23.333h-2l-0.136 0.009c-0.491 0.069-0.864 0.486-0.864 0.991s0.373 0.921 0.858 0.99l0.005 0.001 0.136 0.009h2l0.136-0.009c0.491-0.069 0.864-0.486 0.864-0.991s-0.373-0.921-0.858-0.99l-0.005-0.001-0.136-0.009zM13.327 8.667c0-0.223 0.009-0.445 0.025-0.665h-8.352c-1.289 0-2.333 1.045-2.333 2.333v0 16.661c0 1.288 1.045 2.333 2.333 2.333h9.667c0.115-0 0.229-0.008 0.339-0.024l-0.013 0.002v-15.528c-1.041-1.409-1.667-3.18-1.667-5.097 0-0.005 0-0.011 0-0.016v0.001zM12.327 23.333l0.135 0.009c0.491 0.069 0.864 0.486 0.864 0.991s-0.373 0.921-0.858 0.99l-0.005 0.001-0.135 0.009h-2.003l-0.136-0.009c-0.491-0.069-0.864-0.486-0.864-0.991s0.373-0.921 0.858-0.99l0.005-0.001 0.136-0.009h2.003z"></path>
</svg>
