<!-- Generated by IcoMoon.io -->
<svg version="1.1" xmlns="http://www.w3.org/2000/svg" width="32" height="32" viewBox="0 0 32 32">
<title>dual-screen-status-bar-filled</title>
<path d="M26.993 5.339c1.289 0 2.333 1.045 2.333 2.333v16.661c0 1.289-1.045 2.333-2.333 2.333v0h-9.663c-0.116 0-0.229-0.008-0.341-0.024v-21.279c0.111-0.016 0.225-0.025 0.341-0.025h9.663zM14.664 5.336c0.115 0 0.229 0.008 0.339 0.024l-0.013-0.002v21.281c-0.098 0.014-0.211 0.023-0.327 0.023h-9.664c-1.289 0-2.333-1.045-2.333-2.333v0-16.66c0-1.289 1.045-2.333 2.333-2.333h9.664zM26.333 8.667h-6.003c-0.552 0.001-0.998 0.448-0.998 1 0 0.504 0.373 0.921 0.858 0.99l0.005 0.001 0.135 0.009h6.003c0.552-0 1-0.448 1-1 0-0.504-0.373-0.921-0.858-0.99l-0.005-0.001-0.136-0.009z"></path>
</svg>
