<!-- Generated by IcoMoon.io -->
<svg version="1.1" xmlns="http://www.w3.org/2000/svg" width="32" height="32" viewBox="0 0 32 32">
<title>dual-screen-speaker-filled</title>
<path d="M29.524 4.402c-0.438-0.729-0.887-1.228-1.217-1.504-0.424-0.354-1.055-0.296-1.408 0.128s-0.296 1.055 0.128 1.408c0.169 0.141 0.47 0.475 0.783 0.996 0.535 0.892 0.857 1.966 0.857 3.236s-0.322 2.343-0.857 3.236c-0.312 0.521-0.613 0.855-0.783 0.996-0.424 0.354-0.482 0.984-0.128 1.408s0.984 0.482 1.408 0.128c0.331-0.276 0.78-0.775 1.217-1.504 0.715-1.191 1.142-2.617 1.142-4.264s-0.428-3.073-1.142-4.264zM26.499 5.862c-0.319-0.478-0.647-0.807-0.899-0.995-0.442-0.331-1.069-0.242-1.4 0.2s-0.242 1.069 0.2 1.4c0.082 0.062 0.253 0.233 0.435 0.505 0.312 0.468 0.499 1.028 0.499 1.695s-0.187 1.227-0.499 1.695c-0.181 0.272-0.353 0.443-0.435 0.505l-0.112 0.097c-0.343 0.346-0.39 0.901-0.088 1.303 0.331 0.442 0.958 0.531 1.4 0.2 0.251-0.188 0.58-0.517 0.899-0.995 0.521-0.782 0.835-1.722 0.835-2.805s-0.313-2.023-0.835-2.805zM22.667 5c0-0.417-0.258-0.79-0.648-0.936s-0.83-0.036-1.104 0.278l-2.035 2.325h-1.88c-0.552 0-1 0.448-1 1v2c0 0.552 0.448 1 1 1h1.88l2.035 2.325c0.274 0.314 0.714 0.424 1.104 0.278s0.648-0.52 0.648-0.936v-7.333zM14.667 6.666c0-0.338 0.126-0.647 0.334-0.883v-0.426c-0.107-0.015-0.216-0.023-0.327-0.023h-9.663c-1.289 0-2.333 1.045-2.333 2.333v16.66c0 1.289 1.045 2.333 2.333 2.333h9.663c0.111 0 0.22-0.008 0.327-0.023l0-15.090c-0.208-0.235-0.334-0.544-0.334-0.883v-4zM12.334 20.666l0.136 0.009c0.488 0.066 0.864 0.485 0.864 0.991s-0.376 0.925-0.864 0.991l-0.136 0.009h-2.002l-0.136-0.009c-0.488-0.066-0.864-0.485-0.864-0.991s0.376-0.925 0.864-0.991l0.136-0.009h2.002zM18.045 12h-1.045v14.64c0.111 0.016 0.225 0.025 0.341 0.025h9.663c1.289 0 2.333-1.045 2.333-2.333v-9.027c-0.060 0.055-0.119 0.107-0.176 0.155-0.99 0.825-2.461 0.691-3.286-0.299-0.293-0.352-0.465-0.764-0.521-1.187-0.572 0.087-1.163-0.041-1.65-0.367-0.721 1.273-2.59 1.666-3.739 0.44l-1.92-2.048zM21.661 20.666l0.136 0.009c0.488 0.066 0.864 0.485 0.864 0.991s-0.376 0.925-0.864 0.991l-0.136 0.009h-2l-0.136-0.009c-0.488-0.066-0.864-0.485-0.864-0.991s0.376-0.925 0.864-0.991l0.136-0.009h2z"></path>
</svg>
