<!-- Generated by IcoMoon.io -->
<svg version="1.1" xmlns="http://www.w3.org/2000/svg" width="32" height="32" viewBox="0 0 32 32">
<title>dumbbell-filled</title>
<path d="M23.119 4.698c-1.275-1.275-3.341-1.275-4.616 0-0.117 0.117-0.223 0.241-0.319 0.37-1.23-0.218-2.545 0.147-3.496 1.099-1.547 1.547-1.547 4.055 0 5.602l1.663 1.663-1.505 1.505 2.246 2.246 1.505-1.505 1.663 1.663c1.547 1.547 4.055 1.547 5.602 0 0.952-0.952 1.317-2.266 1.099-3.496 0.129-0.096 0.253-0.202 0.37-0.319 1.275-1.275 1.275-3.341 0-4.616l-0.984-0.984 0.862-0.862c0.62-0.62 0.62-1.626 0-2.246s-1.626-0.62-2.246 0l-0.862 0.862-0.984-0.984zM23.69 11.818c-0.391 0.391-1.024 0.391-1.414 0l-2.093-2.093c-0.391-0.391-0.391-1.024 0-1.414s1.024-0.391 1.414 0l2.093 2.093c0.391 0.391 0.391 1.024 0 1.414zM6.166 14.689c1.547-1.547 4.055-1.547 5.602 0l5.573 5.573c1.547 1.547 1.547 4.055 0 5.602-0.952 0.952-2.266 1.317-3.496 1.099-0.096 0.129-0.202 0.253-0.319 0.37-1.275 1.275-3.341 1.275-4.616 0l-0.984-0.984-0.89 0.89c-0.62 0.62-1.626 0.62-2.246 0s-0.62-1.626 0-2.246l0.89-0.89-0.983-0.983c-1.275-1.275-1.275-3.341 0-4.616 0.117-0.117 0.241-0.223 0.37-0.319-0.218-1.23 0.147-2.545 1.099-3.496zM11.132 24.376c0.391-0.391 0.391-1.024 0-1.414l-2.093-2.093c-0.391-0.391-1.024-0.391-1.414 0s-0.391 1.024 0 1.414l2.093 2.093c0.391 0.391 1.024 0.391 1.414 0z"></path>
</svg>
