<!-- Generated by IcoMoon.io -->
<svg version="1.1" xmlns="http://www.w3.org/2000/svg" width="32" height="32" viewBox="0 0 32 32">
<title>dumbbell-filled</title>
<path d="M23.421 4.217c-0.616-0.616-1.466-0.997-2.406-0.997-1.119 0-2.112 0.54-2.732 1.374l-0.006 0.009c-0.219-0.041-0.471-0.065-0.728-0.065-2.28 0-4.129 1.849-4.129 4.129 0 1.141 0.463 2.174 1.211 2.922l1.735 1.734-1.832 1.832 2.342 2.342 1.832-1.832 1.734 1.734c0.747 0.748 1.78 1.21 2.92 1.21 2.28 0 4.129-1.849 4.129-4.129 0-0.257-0.023-0.508-0.068-0.752l0.004 0.025c0.843-0.627 1.383-1.619 1.383-2.738 0-0.94-0.381-1.79-0.997-2.406l-1.025-1.025 0.898-0.897c0.3-0.3 0.485-0.714 0.485-1.171 0-0.915-0.742-1.657-1.657-1.657-0.457 0-0.872 0.185-1.171 0.485v0l-0.897 0.898-1.025-1.025zM23.885 11.509c-0.155 0.155-0.369 0.251-0.606 0.251s-0.451-0.096-0.606-0.251l-2.183-2.182c-0.143-0.153-0.23-0.358-0.23-0.584 0-0.473 0.384-0.857 0.857-0.857 0.226 0 0.432 0.088 0.585 0.231l-0-0 2.184 2.182c0.155 0.155 0.251 0.369 0.251 0.606s-0.096 0.451-0.251 0.606v0zM17.397 20.442l-5.809-5.809c-0.747-0.747-1.78-1.209-2.92-1.209-2.281 0-4.13 1.849-4.13 4.13 0 0.256 0.023 0.507 0.068 0.75l-0.004-0.025c-0.843 0.627-1.383 1.619-1.383 2.738 0 0.94 0.381 1.79 0.997 2.406v0l1.026 1.025-0.928 0.928c-0.29 0.298-0.469 0.705-0.469 1.155 0 0.915 0.741 1.656 1.656 1.656 0.449 0 0.857-0.179 1.155-0.469l-0 0 0.928-0.928 1.025 1.025c0.616 0.616 1.466 0.997 2.406 0.997 1.119 0 2.112-0.54 2.732-1.374l0.006-0.009c0.219 0.041 0.471 0.065 0.728 0.065 2.28 0 4.129-1.849 4.129-4.129 0-1.141-0.463-2.174-1.211-2.922l-0-0zM10.792 23.389c0.168 0.157 0.273 0.38 0.273 0.627 0 0.473-0.384 0.857-0.857 0.857-0.247 0-0.47-0.105-0.627-0.272l-0-0-2.183-2.182c-0.149-0.154-0.24-0.364-0.24-0.595 0-0.473 0.384-0.857 0.857-0.857 0.232 0 0.442 0.092 0.596 0.241l2.183 2.181z"></path>
</svg>
