<!-- Generated by IcoMoon.io -->
<svg version="1.1" xmlns="http://www.w3.org/2000/svg" width="32" height="32" viewBox="0 0 32 32">
<title>earth-filled</title>
<path d="M14.594 2.729l0.007 0.010c0.46-0.048 0.927-0.073 1.399-0.073 7.364 0 13.333 5.97 13.333 13.333s-5.969 13.333-13.333 13.333c-4.279 0-8.087-2.016-10.527-5.149l-0.003-0.001 0.001-0.003c-1.757-2.259-2.804-5.097-2.804-8.18 0-6.883 5.215-12.547 11.909-13.258l0.018-0.012zM16 4.667c-0.071 0-0.142 0.001-0.212 0.002 0.163 0.326 0.339 0.71 0.498 1.134 0.463 1.229 0.888 3.041 0.133 4.648-0.697 1.484-1.9 1.868-2.787 2.097l-0.113 0.029c-0.875 0.226-1.212 0.312-1.457 0.685-0.225 0.342-0.191 0.776 0.082 1.666 0.019 0.063 0.040 0.129 0.062 0.198 0.108 0.345 0.239 0.76 0.306 1.15 0.085 0.486 0.108 1.104-0.203 1.701-0.309 0.592-0.718 0.996-1.201 1.259-0.454 0.247-0.924 0.341-1.276 0.404l-0.124 0.022c-0.687 0.121-1.015 0.179-1.335 0.521-0.248 0.266-0.409 0.736-0.502 1.437-0.038 0.286-0.061 0.569-0.085 0.862l-0.013 0.156c-0.027 0.323-0.060 0.695-0.132 1.014l-0 0.002c2.072 2.262 5.050 3.68 8.359 3.68 2.103 0 4.072-0.573 5.759-1.57-0.131-0.134-0.273-0.29-0.414-0.467-0.453-0.57-1.046-1.552-0.841-2.71 0.099-0.557 0.398-1.024 0.686-1.381 0.294-0.365 0.649-0.701 0.959-0.987 0.074-0.068 0.144-0.132 0.212-0.194 0.238-0.217 0.44-0.401 0.612-0.582 0.23-0.241 0.28-0.35 0.283-0.356 0.091-0.3-0.020-0.512-0.141-0.605-0.061-0.047-0.142-0.081-0.253-0.082s-0.293 0.033-0.535 0.186c-0.28 0.177-0.686 0.286-1.114 0.114-0.356-0.144-0.554-0.418-0.649-0.575-0.192-0.317-0.3-0.728-0.37-1.030-0.054-0.233-0.106-0.497-0.153-0.737-0.019-0.096-0.037-0.189-0.054-0.275-0.067-0.333-0.124-0.571-0.179-0.719 0 0-0.008-0.018-0.026-0.051-0.020-0.036-0.047-0.082-0.085-0.14-0.077-0.118-0.178-0.256-0.304-0.422-0.045-0.060-0.094-0.124-0.146-0.192-0.215-0.282-0.471-0.617-0.688-0.949-0.261-0.398-0.556-0.918-0.649-1.472-0.049-0.294-0.049-0.633 0.073-0.978 0.125-0.353 0.353-0.643 0.649-0.865 0.645-0.483 1.591-1.563 2.431-2.612 0.383-0.479 0.726-0.927 0.981-1.268-1.75-1.106-3.823-1.746-6.046-1.746z"></path>
</svg>
