<!-- Generated by IcoMoon.io -->
<svg version="1.1" xmlns="http://www.w3.org/2000/svg" width="32" height="32" viewBox="0 0 32 32">
<title>edit-arrow-back-filled</title>
<path d="M20.672 4.597c0.857-0.838 2.031-1.355 3.326-1.355 2.629 0 4.76 2.131 4.76 4.76 0 1.295-0.517 2.469-1.356 3.327l0.001-0.001-1.070 1.070-6.731-6.731 1.072-1.070zM18.47 6.8l-12.798 12.798c-0.508 0.509-0.877 1.158-1.043 1.884l-0.005 0.026-1.405 6.32c-0.012 0.052-0.019 0.113-0.019 0.174 0 0.442 0.358 0.8 0.8 0.8 0.062 0 0.122-0.007 0.18-0.020l-0.005 0.001 6.282-1.397c0.778-0.177 1.448-0.558 1.974-1.085l0-0 0.701-0.702c-0.212-0.72-0.335-1.547-0.335-2.403 0-4.86 3.94-8.8 8.8-8.8 0.856 0 1.683 0.122 2.466 0.35l-0.062-0.016 1.202-1.2-6.731-6.733zM21.6 30.4c3.976 0 7.2-3.224 7.2-7.2s-3.224-7.2-7.2-7.2v0c-3.976 0-7.2 3.224-7.2 7.2s3.224 7.2 7.2 7.2v0zM20.166 20.166l-1.435 1.434h2.469c2.43 0 4.4 1.97 4.4 4.4v0 0.4c0 0.442-0.358 0.8-0.8 0.8s-0.8-0.358-0.8-0.8v0-0.4c0-1.546-1.254-2.8-2.8-2.8v0h-2.469l1.435 1.434c0.145 0.145 0.235 0.345 0.235 0.566 0 0.442-0.359 0.801-0.801 0.801-0.221 0-0.421-0.090-0.566-0.235l-2.803-2.805c-0.143-0.144-0.232-0.343-0.232-0.562 0-0.221 0.090-0.421 0.235-0.566l2.8-2.8c0.145-0.145 0.345-0.235 0.566-0.235 0.442 0 0.801 0.359 0.801 0.801 0 0.221-0.090 0.421-0.235 0.566v0z"></path>
</svg>
