<!-- Generated by IcoMoon.io -->
<svg version="1.1" xmlns="http://www.w3.org/2000/svg" width="32" height="32" viewBox="0 0 32 32">
<title>edit-off-filled</title>
<path d="M18.667 20.081l8.959 8.959c0.391 0.391 1.024 0.391 1.414 0s0.391-1.024 0-1.414l-24.666-24.667c-0.391-0.391-1.024-0.391-1.414 0s-0.391 1.024-0 1.414l8.959 8.96-6.584 6.584c-0.369 0.369-0.636 0.828-0.773 1.332l-1.86 6.821c-0.204 0.746 0.481 1.431 1.228 1.228l6.821-1.86c0.504-0.137 0.963-0.404 1.332-0.773l6.584-6.584z"></path>
<path d="M25.334 13.415l-3.839 3.839-6.748-6.748 3.839-3.839 6.748 6.748z"></path>
<path d="M28.041 3.96c1.863 1.863 1.863 4.884 0 6.748l-1.293 1.292-6.748-6.747 1.294-1.293c1.863-1.863 4.884-1.863 6.747 0z"></path>
</svg>
