<!-- Generated by IcoMoon.io -->
<svg version="1.1" xmlns="http://www.w3.org/2000/svg" width="32" height="32" viewBox="0 0 32 32">
<title>edit-off-filled</title>
<path d="M18.667 19.845l9.244 9.244c0.151 0.151 0.359 0.244 0.589 0.244 0.46 0 0.833-0.373 0.833-0.833 0-0.23-0.093-0.439-0.244-0.589v0l-25-25c-0.151-0.151-0.359-0.244-0.589-0.244-0.46 0-0.833 0.373-0.833 0.833 0 0.23 0.093 0.438 0.244 0.589l9.245 9.244-6.797 6.798c-0.494 0.493-0.859 1.115-1.042 1.811l-0.006 0.028-1.618 6.323c-0.017 0.062-0.026 0.133-0.026 0.207 0 0.46 0.373 0.833 0.833 0.833 0.073 0 0.144-0.009 0.212-0.027l-0.006 0.001 6.325-1.616c0.724-0.189 1.346-0.555 1.84-1.049l6.797-6.797zM25.333 13.178l-4.309 4.311-6.512-6.512 4.31-4.31 6.512 6.512zM21.471 4.017c0.836-0.853 2-1.381 3.288-1.381 2.543 0 4.605 2.062 4.605 4.605 0 1.287-0.528 2.451-1.38 3.287l-1.471 1.471-6.513-6.512 1.47-1.47z"></path>
</svg>
