<!-- Generated by IcoMoon.io -->
<svg version="1.1" xmlns="http://www.w3.org/2000/svg" width="32" height="32" viewBox="0 0 32 32">
<title>emoji-hand-filled</title>
<path d="M10 10v-7.667c0-0.552 0.448-1 1-1s1 0.448 1 1v7.667c0 0.368 0.298 0.667 0.667 0.667s0.667-0.298 0.667-0.667v-6.667c0-0.552 0.448-1 1-1s1 0.448 1 1v7.667c0 0.028-0.001 0.056-0.003 0.084 0.576-0.218 1.298-0.422 2.003-0.422 0.666 0 1.236 0.166 1.659 0.379 0.209 0.105 0.403 0.232 0.561 0.376 0.078 0.071 0.168 0.164 0.246 0.281 0.061 0.091 0.201 0.319 0.201 0.635 0 0.345-0.178 0.665-0.47 0.848l-2.542 1.589-2.211 2.521-1.836 2.529c-0.69 0.95-1.793 1.512-2.967 1.512h-1.518c-1.241 0-2.431-0.63-3.073-1.748-0.403-0.702-0.902-1.624-1.303-2.536-0.381-0.868-0.747-1.884-0.747-2.716v-9.333c0-0.552 0.448-1 1-1s1 0.448 1 1v5.664c0 0.368 0.298 0.667 0.667 0.667s0.667-0.298 0.667-0.667v-7.331c0-0.552 0.448-1 1-1s1 0.448 1 1v6.667c0 0.368 0.298 0.667 0.667 0.667s0.667-0.298 0.667-0.667z"></path>
<path d="M20 29.333c-4.268 0-7.868-2.865-8.979-6.777 1.194-0.256 2.268-0.944 2.999-1.952l1.8-2.48 2.041-2.328 2.375-1.485c0.682-0.426 1.097-1.174 1.097-1.979 0-0.708-0.31-1.205-0.427-1.379-0.065-0.097-0.133-0.184-0.199-0.261 4.825 0.361 8.627 4.39 8.627 9.307 0 5.155-4.179 9.333-9.333 9.333zM24 18.667c0-0.736-0.597-1.333-1.333-1.333s-1.333 0.597-1.333 1.333c0 0.736 0.597 1.333 1.333 1.333s1.333-0.597 1.333-1.333zM16.183 22.283c-0.398 0.383-0.41 1.016-0.027 1.414 0.969 1.008 2.334 1.637 3.844 1.637s2.875-0.629 3.844-1.637c0.383-0.398 0.371-1.031-0.027-1.414s-1.031-0.371-1.414 0.027c-0.608 0.632-1.459 1.023-2.403 1.023s-1.795-0.391-2.403-1.023c-0.383-0.398-1.016-0.41-1.414-0.027zM18.667 18.667c0-0.736-0.597-1.333-1.333-1.333s-1.333 0.597-1.333 1.333c0 0.736 0.597 1.333 1.333 1.333s1.333-0.597 1.333-1.333z"></path>
</svg>
