<!-- Generated by IcoMoon.io -->
<svg version="1.1" xmlns="http://www.w3.org/2000/svg" width="32" height="32" viewBox="0 0 32 32">
<title>emoji-sparkle-filled</title>
<path d="M21.889 8.075c-0.43-0.551-1.006-0.968-1.671-1.195l-0.025-0.007-1.733-0.563c-0.138-0.049-0.251-0.136-0.332-0.249l-0.001-0.002c-0.079-0.11-0.126-0.247-0.126-0.395 0-0.297 0.189-0.549 0.453-0.644l0.005-0.002 1.735-0.563c1.043-0.368 1.85-1.176 2.208-2.195l0.008-0.025 0.015-0.043 0.563-1.733c0.096-0.27 0.349-0.46 0.647-0.46s0.551 0.19 0.645 0.455l0.002 0.005 0.563 1.733c0.364 1.072 1.193 1.9 2.239 2.255l0.025 0.007 1.735 0.563 0.035 0.009c0.268 0.097 0.456 0.35 0.456 0.646s-0.188 0.548-0.451 0.644l-0.005 0.002-1.735 0.563c-1.072 0.363-1.9 1.191-2.257 2.237l-0.007 0.025-0.564 1.733c-0.097 0.269-0.349 0.458-0.646 0.458-0.148 0-0.286-0.047-0.398-0.128l0.002 0.001c-0.114-0.082-0.201-0.195-0.248-0.327l-0.002-0.005-0.564-1.733c-0.137-0.409-0.33-0.763-0.574-1.076l0.006 0.008zM26.067 12.788c-0.027 0.037-0.047 0.081-0.058 0.128l-0 0.002c-0.007 0.026-0.011 0.056-0.011 0.088 0 0.157 0.1 0.291 0.24 0.341l0.003 0.001 0.919 0.299c0.568 0.193 1.007 0.632 1.196 1.187l0.004 0.013 0.299 0.918c0.052 0.141 0.185 0.24 0.342 0.24 0.147 0 0.273-0.087 0.331-0.212l0.001-0.002v-0.007c0.003-0.006 0.007-0.015 0.010-0.024l0.001-0.002 0.299-0.918c0.193-0.567 0.631-1.005 1.185-1.193l0.013-0.004 0.919-0.299c0.141-0.052 0.24-0.185 0.24-0.342s-0.099-0.29-0.237-0.341l-0.003-0.001-0.019-0.005-0.919-0.299c-0.567-0.193-1.005-0.631-1.194-1.184l-0.004-0.013-0.299-0.918c-0.051-0.143-0.185-0.243-0.342-0.243s-0.291 0.1-0.342 0.24l-0.001 0.003-0.299 0.918c-0.189 0.563-0.62 1-1.167 1.193l-0.013 0.004-0.919 0.299c-0.072 0.026-0.132 0.072-0.175 0.131l-0.001 0.001zM16 29.333c-7.364 0-13.333-5.969-13.333-13.333s5.969-13.333 13.333-13.333c1.299 0 2.553 0.185 3.74 0.531l-1.695 0.551c-0.806 0.277-1.375 1.028-1.375 1.912 0 0.873 0.554 1.616 1.33 1.897l0.014 0.004 1.767 0.575c0.666 0.231 1.18 0.749 1.402 1.402l0.005 0.016 0.563 1.729c0.277 0.807 1.030 1.377 1.915 1.377 0.428 0 0.824-0.133 1.151-0.359l-0.007 0.004c-0.094 0.204-0.148 0.442-0.148 0.693 0 0.737 0.47 1.364 1.126 1.598l0.012 0.004 0.949 0.309c0.163 0.059 0.289 0.187 0.343 0.347l0.001 0.004 0.297 0.913c0.231 0.681 0.864 1.162 1.609 1.162 0.095 0 0.189-0.008 0.279-0.023l-0.010 0.001c-0.66 6.749-6.349 12.020-13.269 12.020zM11.667 14.667c0.92 0 1.667-0.746 1.667-1.667s-0.746-1.667-1.667-1.667v0c-0.92 0-1.667 0.746-1.667 1.667s0.746 1.667 1.667 1.667v0zM22 13c0-0.92-0.746-1.667-1.667-1.667s-1.667 0.746-1.667 1.667v0c0 0.92 0.746 1.667 1.667 1.667s1.667-0.746 1.667-1.667v0zM12.301 23.121c1.046 0.554 2.286 0.88 3.602 0.88 0.034 0 0.068-0 0.102-0.001l-0.005 0c0.029 0 0.063 0.001 0.097 0.001 2.666 0 5.021-1.336 6.43-3.375l0.017-0.026c0.077-0.124 0.123-0.274 0.123-0.436 0-0.46-0.373-0.833-0.833-0.833-0.299 0-0.561 0.157-0.708 0.394l-0.002 0.004c-1.126 1.584-2.954 2.606-5.021 2.606-0.036 0-0.072-0-0.108-0.001l0.005 0c-0.030 0.001-0.065 0.001-0.101 0.001-2.068 0-3.897-1.021-5.011-2.587l-0.013-0.019c-0.149-0.24-0.411-0.397-0.71-0.397-0.46 0-0.833 0.373-0.833 0.833 0 0.161 0.046 0.312 0.125 0.439l-0.002-0.004c0.731 1.058 1.687 1.911 2.803 2.5l0.043 0.020z"></path>
</svg>
