<!-- Generated by IcoMoon.io -->
<svg version="1.1" xmlns="http://www.w3.org/2000/svg" width="32" height="32" viewBox="0 0 32 32">
<title>emoji-laugh-filled</title>
<path d="M16 2.667c-7.364 0-13.333 5.969-13.333 13.333s5.969 13.333 13.333 13.333 13.333-5.969 13.333-13.333-5.969-13.333-13.333-13.333zM19.323 12.48c-0.074 0.486-0.489 0.853-0.989 0.853-0.552 0-1-0.448-1-1 0-0.052 0.004-0.103 0.012-0.152l-0.001 0.006c0.216-1.453 1.497-2.52 2.989-2.52s2.773 1.067 2.989 2.52c0.007 0.044 0.011 0.095 0.011 0.147 0 0.552-0.448 1-1 1-0.501 0-0.915-0.368-0.989-0.848l-0.001-0.006c-0.064-0.431-0.467-0.813-1.011-0.813s-0.947 0.383-1.011 0.813zM16 24c-4.189 0-6.983-3.151-7.333-7h14.667c-0.351 3.849-3.144 7-7.333 7zM11.667 11.667c-0.544 0-0.947 0.383-1.011 0.813-0.074 0.486-0.489 0.853-0.989 0.853-0.552 0-1-0.448-1-1 0-0.052 0.004-0.103 0.011-0.152l-0.001 0.006c0.216-1.453 1.497-2.52 2.989-2.52s2.773 1.067 2.989 2.52c0.007 0.044 0.011 0.095 0.011 0.147 0 0.552-0.448 1-1 1-0.501 0-0.915-0.368-0.989-0.848l-0.001-0.006c-0.064-0.431-0.467-0.813-1.011-0.813z"></path>
</svg>
