<!-- Generated by IcoMoon.io -->
<svg version="1.1" xmlns="http://www.w3.org/2000/svg" width="32" height="32" viewBox="0 0 32 32">
<title>emoji-surprise-filled</title>
<path d="M16 2.672c7.364 0 13.333 5.969 13.333 13.333s-5.969 13.333-13.333 13.333-13.333-5.969-13.333-13.333 5.969-13.333 13.333-13.333zM16 17.332c-1.657 0-3 1.343-3 3s1.343 3 3 3v0c1.657 0 3-1.343 3-3s-1.343-3-3-3v0zM12 11.667c-0.014-0-0.031-0.001-0.047-0.001-0.92 0-1.667 0.746-1.667 1.667s0.746 1.667 1.667 1.667c0.017 0 0.033-0 0.050-0.001l-0.002 0c0.9-0.026 1.62-0.762 1.62-1.666s-0.72-1.64-1.617-1.666l-0.002-0zM20 11.667c-0.014-0-0.031-0.001-0.047-0.001-0.92 0-1.667 0.746-1.667 1.667s0.746 1.667 1.667 1.667c0.017 0 0.033-0 0.050-0.001l-0.002 0c0.9-0.026 1.62-0.762 1.62-1.666s-0.72-1.64-1.617-1.666l-0.002-0z"></path>
</svg>
