<!-- Generated by IcoMoon.io -->
<svg version="1.1" xmlns="http://www.w3.org/2000/svg" width="32" height="32" viewBox="0 0 32 32">
<title>emoji-meh-filled</title>
<path d="M16 2.667c-7.364 0-13.333 5.969-13.333 13.333s5.969 13.333 13.333 13.333 13.333-5.969 13.333-13.333-5.969-13.333-13.333-13.333zM13.667 13.333c0 0.014 0.001 0.031 0.001 0.047 0 0.92-0.746 1.667-1.667 1.667s-1.667-0.746-1.667-1.667c0-0.017 0-0.033 0.001-0.050l-0 0.002c0.026-0.9 0.762-1.62 1.666-1.62s1.64 0.72 1.666 1.617l0 0.002zM21.667 13.333c0 0.014 0.001 0.031 0.001 0.047 0 0.92-0.746 1.667-1.667 1.667s-1.667-0.746-1.667-1.667c0-0.017 0-0.033 0.001-0.050l-0 0.002c0.026-0.9 0.762-1.62 1.666-1.62s1.64 0.72 1.666 1.617l0 0.002zM10 21c0-0.552 0.448-1 1-1v0h10c0.552 0 1 0.448 1 1s-0.448 1-1 1v0h-10c-0.552 0-1-0.448-1-1v0z"></path>
</svg>
