<!-- Generated by IcoMoon.io -->
<svg version="1.1" xmlns="http://www.w3.org/2000/svg" width="32" height="32" viewBox="0 0 32 32">
<title>emoji-smile-slight-filled</title>
<path d="M29.336 16.003c0-7.365-5.971-13.336-13.336-13.336s-13.333 5.971-13.333 13.336c0 7.364 5.969 13.335 13.335 13.335s13.336-5.971 13.336-13.335zM10.336 13.336c-0.001-0.020-0.001-0.043-0.001-0.067 0-0.92 0.746-1.667 1.667-1.667s1.667 0.746 1.667 1.667c0 0.023-0 0.047-0.001 0.070l0-0.003c-0.026 0.9-0.762 1.62-1.666 1.62s-1.64-0.72-1.666-1.617l-0-0.002zM18.336 13.336c-0.001-0.020-0.001-0.043-0.001-0.067 0-0.92 0.746-1.667 1.667-1.667s1.667 0.746 1.667 1.667c0 0.023-0 0.047-0.001 0.070l0-0.003c-0.026 0.9-0.762 1.62-1.666 1.62s-1.64-0.72-1.666-1.617l-0-0.002zM13.515 20.144c0.644 0.387 1.54 0.607 2.485 0.607 0.947 0 1.841-0.22 2.485-0.607 0.149-0.093 0.33-0.148 0.523-0.148 0.552 0 1 0.448 1 1 0 0.366-0.196 0.686-0.489 0.86l-0.005 0.003c-1.023 0.613-2.293 0.893-3.515 0.893s-2.492-0.28-3.515-0.893c-0.298-0.177-0.494-0.497-0.494-0.862 0-0.552 0.448-1 1-1 0.194 0 0.374 0.055 0.527 0.15l-0.004-0.002z"></path>
</svg>
