<!-- Generated by IcoMoon.io -->
<svg version="1.1" xmlns="http://www.w3.org/2000/svg" width="32" height="32" viewBox="0 0 32 32">
<title>emoji-sparkle-filled</title>
<path d="M19.654 7.276c0.559 0.186 1.068 0.501 1.484 0.919 0.111 0.112 0.216 0.23 0.312 0.355 0.263 0.34 0.467 0.722 0.601 1.131l0.597 1.836c0.049 0.138 0.137 0.258 0.255 0.344s0.259 0.135 0.405 0.14c0.146 0.005 0.29-0.034 0.413-0.113 0.026-0.016 0.050-0.034 0.073-0.053 0.089-0.073 0.159-0.167 0.205-0.273l0.002-0.004 0.015-0.028 0.066-0.202-0.002-0.006 0.534-1.641c0.17-0.512 0.448-0.981 0.815-1.377 0.006-0.003 0.012-0.006 0.018-0.009 0.027-0.029 0.055-0.058 0.083-0.086 0.244-0.244 0.519-0.453 0.818-0.621-0.002-0.002-0.003-0.004-0.005-0.006 0.212-0.12 0.436-0.219 0.669-0.297l1.837-0.597c0.142-0.050 0.264-0.142 0.351-0.265s0.133-0.269 0.133-0.419-0.047-0.296-0.133-0.419c-0.087-0.122-0.209-0.215-0.351-0.265l-0.037-0.009-1.837-0.597c-0.559-0.186-1.066-0.499-1.482-0.914s-0.729-0.923-0.915-1.481l-0.597-1.836c-0.050-0.141-0.143-0.264-0.265-0.351s-0.269-0.133-0.419-0.133c-0.15 0-0.297 0.047-0.419 0.133s-0.215 0.209-0.265 0.351l-0.597 1.836-0.015 0.045c-0.184 0.536-0.486 1.025-0.884 1.429-0.168 0.171-0.351 0.324-0.547 0.459-0.282 0.193-0.589 0.348-0.915 0.459l-1.837 0.597c-0.106 0.037-0.202 0.098-0.28 0.179s-0.137 0.178-0.171 0.285c-0.034 0.107-0.043 0.22-0.025 0.331 0.007 0.044 0.018 0.088 0.033 0.13 0.022 0.064 0.053 0.124 0.093 0.18 0.087 0.122 0.209 0.215 0.351 0.265l1.837 0.597zM31.711 13.618l-1.021-0.331c-0.31-0.103-0.592-0.277-0.823-0.508s-0.405-0.513-0.508-0.823l-0.332-1.020c-0.028-0.079-0.079-0.147-0.147-0.195s-0.149-0.074-0.233-0.074-0.165 0.026-0.233 0.074c-0.068 0.048-0.119 0.116-0.147 0.195l-0.332 1.020c-0.101 0.308-0.272 0.588-0.5 0.819s-0.505 0.406-0.812 0.512l-0.129 0.042-0.005-0-0.89 0.288c-0.079 0.028-0.147 0.080-0.195 0.148s-0.075 0.149-0.075 0.233 0.026 0.165 0.075 0.233c0.043 0.060 0.101 0.107 0.168 0.136 0.010 0.004 0.019 0.008 0.029 0.012l1.017 0.331c0.076 0.025 0.15 0.054 0.222 0.088 0.225 0.104 0.43 0.247 0.605 0.423 0.105 0.105 0.199 0.222 0.279 0.346 0.095 0.148 0.171 0.308 0.227 0.476l0.332 1.020c0.009 0.026 0.021 0.052 0.035 0.075 0.029 0.048 0.067 0.090 0.114 0.123 0.068 0.048 0.149 0.074 0.233 0.074s0.165-0.026 0.233-0.074c0.068-0.048 0.12-0.116 0.147-0.195l0.332-1.020c0.103-0.31 0.277-0.592 0.508-0.823s0.513-0.405 0.823-0.508l1.021-0.331c0.079-0.028 0.147-0.079 0.195-0.147s0.074-0.149 0.074-0.233-0.026-0.165-0.074-0.233c-0.048-0.068-0.116-0.119-0.195-0.147l-0.020-0.005zM15.999 29.335c6.468 0 11.86-4.605 13.078-10.715-0.222 0.054-0.452 0.064-0.679 0.029-0.265-0.041-0.518-0.144-0.737-0.3-0.302-0.215-0.528-0.519-0.645-0.871l-0.331-1.016c-0.038-0.113-0.101-0.216-0.185-0.301-0.082-0.082-0.182-0.145-0.292-0.183l-1.052-0.343c-0.241-0.085-0.46-0.221-0.642-0.4s-0.322-0.396-0.41-0.636-0.123-0.496-0.1-0.75c0.022-0.254 0.1-0.501 0.229-0.721-0.264 0.128-0.551 0.198-0.844 0.206s-0.584-0.047-0.854-0.161c-0.27-0.114-0.513-0.283-0.712-0.498s-0.35-0.469-0.443-0.747l-0.596-1.831c-0.087-0.265-0.218-0.512-0.389-0.732-0.062-0.081-0.129-0.157-0.201-0.229-0.267-0.268-0.593-0.471-0.952-0.592l-1.867-0.607c-0.3-0.106-0.572-0.28-0.793-0.509s-0.387-0.505-0.484-0.809c-0.097-0.303-0.121-0.625-0.073-0.94s0.17-0.614 0.354-0.874c0.253-0.356 0.612-0.623 1.027-0.763l1.815-0.589c0.186-0.064 0.364-0.151 0.528-0.257-1.189-0.348-2.447-0.534-3.748-0.534-7.365 0-13.335 5.97-13.335 13.335s5.97 13.335 13.335 13.335zM9.877 19.544c0.434-0.342 1.063-0.267 1.404 0.167 1.132 1.437 2.854 2.291 4.718 2.291 1.862 0 3.581-0.852 4.713-2.285 0.342-0.433 0.971-0.507 1.405-0.165s0.507 0.971 0.165 1.405c-1.508 1.909-3.803 3.046-6.283 3.046-2.484 0-4.781-1.14-6.289-3.053-0.342-0.434-0.267-1.063 0.167-1.404zM10.334 13.333c0-0.92 0.746-1.666 1.666-1.666s1.666 0.746 1.666 1.666c0 0.92-0.746 1.666-1.666 1.666s-1.666-0.746-1.666-1.666zM18.334 13.333c0-0.92 0.746-1.666 1.666-1.666s1.666 0.746 1.666 1.666-0.746 1.666-1.666 1.666c-0.92 0-1.666-0.746-1.666-1.666z"></path>
</svg>
