<!-- Generated by IcoMoon.io -->
<svg version="1.1" xmlns="http://www.w3.org/2000/svg" width="32" height="32" viewBox="0 0 32 32">
<title>emoji-add-filled</title>
<path d="M23.333 16c0.029-0 0.064-0.001 0.099-0.001 4.050 0 7.333 3.283 7.333 7.333s-3.283 7.333-7.333 7.333c-0.035 0-0.069-0-0.104-0.001l0.005 0c-4.050 0-7.333-3.283-7.333-7.333s3.283-7.333 7.333-7.333v0zM16 2.663c7.365 0 13.336 5.971 13.336 13.336 0 0.351-0.013 0.699-0.040 1.043-1.55-1.47-3.65-2.375-5.961-2.375-4.272 0-7.823 3.090-8.538 7.157l-0.008 0.052c-1.431-0.3-2.646-1.077-3.497-2.154l-0.010-0.013c-0.185-0.223-0.462-0.364-0.771-0.364-0.552 0-1 0.448-1 1 0 0.227 0.075 0.436 0.203 0.604l-0.002-0.003c1.21 1.53 2.943 2.601 4.926 2.94l0.047 0.007c0.133 2.085 1.005 3.973 2.359 5.4-0.344 0.027-0.693 0.040-1.044 0.040-7.365 0-13.336-5.971-13.336-13.335s5.971-13.335 13.336-13.335zM23.333 18.663l-0.12 0.011c-0.273 0.051-0.485 0.263-0.535 0.532l-0.001 0.004-0.011 0.12v3.333l-3.336 0.004-0.12 0.011c-0.273 0.051-0.485 0.263-0.535 0.532l-0.001 0.004-0.011 0.12 0.011 0.12c0.051 0.273 0.263 0.485 0.532 0.535l0.004 0.001 0.12 0.011h3.336v3.339l0.011 0.12c0.052 0.272 0.263 0.484 0.532 0.534l0.004 0.001 0.12 0.012 0.12-0.012c0.273-0.051 0.485-0.263 0.535-0.532l0.001-0.004 0.011-0.12v-3.339l3.339 0.001 0.12-0.011c0.273-0.051 0.485-0.263 0.535-0.532l0.001-0.004 0.011-0.12-0.011-0.12c-0.051-0.273-0.263-0.485-0.532-0.535l-0.004-0.001-0.12-0.011h-3.339v-3.333l-0.011-0.12c-0.051-0.273-0.263-0.486-0.532-0.537l-0.004-0.001-0.12-0.011zM12 11.667c-0.014-0-0.031-0.001-0.047-0.001-0.92 0-1.667 0.746-1.667 1.667s0.746 1.667 1.667 1.667c0.017 0 0.033-0 0.050-0.001l-0.002 0c0.9-0.026 1.62-0.762 1.62-1.666s-0.72-1.64-1.617-1.666l-0.002-0zM20 11.667c-0.014-0-0.031-0.001-0.047-0.001-0.92 0-1.667 0.746-1.667 1.667s0.746 1.667 1.667 1.667c0.017 0 0.033-0 0.050-0.001l-0.002 0c0.9-0.026 1.62-0.762 1.62-1.666s-0.72-1.64-1.617-1.666l-0.002-0z"></path>
</svg>
