<!-- Generated by IcoMoon.io -->
<svg version="1.1" xmlns="http://www.w3.org/2000/svg" width="32" height="32" viewBox="0 0 32 32">
<title>emoji-sad-slight-filled</title>
<path d="M29.335 16.001c0-7.365-5.97-13.335-13.335-13.335s-13.335 5.97-13.335 13.335c0 7.365 5.97 13.335 13.335 13.335s13.335-5.97 13.335-13.335zM10.334 13.334c0-0.92 0.746-1.666 1.666-1.666s1.666 0.746 1.666 1.666c0 0.92-0.746 1.666-1.666 1.666s-1.666-0.746-1.666-1.666zM18.334 13.334c0-0.92 0.746-1.666 1.666-1.666s1.666 0.746 1.666 1.666c0 0.92-0.746 1.666-1.666 1.666s-1.666-0.746-1.666-1.666zM20.999 18.667h0.8c0.552 0 1 0.448 1 1s-0.448 1-1 1h-0.8c-0.824 0-1.783 0.214-2.663 0.557-0.892 0.347-1.597 0.784-1.963 1.15-0.391 0.391-1.024 0.391-1.414 0s-0.391-1.024 0-1.414c0.634-0.634 1.617-1.197 2.652-1.6 1.047-0.407 2.255-0.693 3.389-0.693z"></path>
</svg>
