<!-- Generated by IcoMoon.io -->
<svg version="1.1" xmlns="http://www.w3.org/2000/svg" width="32" height="32" viewBox="0 0 32 32">
<title>emoji-filled</title>
<path d="M2.667 16c0-7.364 5.969-13.333 13.333-13.333s13.333 5.969 13.333 13.333-5.969 13.333-13.333 13.333-13.333-5.969-13.333-13.333zM11.667 14.667c0.92 0 1.667-0.746 1.667-1.667s-0.746-1.667-1.667-1.667v0c-0.92 0-1.667 0.746-1.667 1.667s0.746 1.667 1.667 1.667v0zM22 13c0-0.92-0.746-1.667-1.667-1.667s-1.667 0.746-1.667 1.667v0c0 0.92 0.746 1.667 1.667 1.667s1.667-0.746 1.667-1.667v0zM12.301 23.121c1.046 0.554 2.286 0.88 3.602 0.88 0.034 0 0.068-0 0.102-0.001l-0.005 0c0.029 0 0.063 0.001 0.097 0.001 2.666 0 5.021-1.336 6.43-3.375l0.017-0.026c0.077-0.124 0.123-0.274 0.123-0.436 0-0.46-0.373-0.833-0.833-0.833-0.299 0-0.561 0.157-0.708 0.394l-0.002 0.004c-1.126 1.584-2.954 2.606-5.021 2.606-0.036 0-0.072-0-0.108-0.001l0.005 0c-0.030 0.001-0.065 0.001-0.101 0.001-2.068 0-3.897-1.021-5.011-2.587l-0.013-0.019c-0.149-0.24-0.411-0.397-0.71-0.397-0.46 0-0.833 0.373-0.833 0.833 0 0.161 0.046 0.312 0.125 0.439l-0.002-0.004c0.731 1.058 1.687 1.911 2.803 2.5l0.043 0.020z"></path>
</svg>
