<!-- Generated by IcoMoon.io -->
<svg version="1.1" xmlns="http://www.w3.org/2000/svg" width="32" height="32" viewBox="0 0 32 32">
<title>emoji-meh-filled</title>
<path d="M16 2.667c-7.364 0-13.333 5.97-13.333 13.333s5.97 13.333 13.333 13.333c7.364 0 13.333-5.97 13.333-13.333s-5.97-13.333-13.333-13.333zM13.666 13.334c0 0.92-0.746 1.666-1.666 1.666s-1.666-0.746-1.666-1.666c0-0.92 0.746-1.666 1.666-1.666s1.666 0.746 1.666 1.666zM21.666 13.334c0 0.92-0.746 1.666-1.666 1.666s-1.666-0.746-1.666-1.666c0-0.92 0.746-1.666 1.666-1.666s1.666 0.746 1.666 1.666zM10 21c0-0.552 0.448-1 1-1h10c0.552 0 1 0.448 1 1s-0.448 1-1 1h-10c-0.552 0-1-0.448-1-1z"></path>
</svg>
