<!-- Generated by IcoMoon.io -->
<svg version="1.1" xmlns="http://www.w3.org/2000/svg" width="32" height="32" viewBox="0 0 32 32">
<title>emoji-angry-filled</title>
<path d="M16 2.673c7.364 0 13.333 5.97 13.333 13.333s-5.97 13.333-13.333 13.333c-7.364 0-13.333-5.97-13.333-13.333s5.97-13.333 13.333-13.333zM16 17.998c-2.18 0-4.223 0.877-5.718 2.404-0.386 0.395-0.38 1.028 0.015 1.414s1.028 0.38 1.414-0.015c1.123-1.146 2.652-1.803 4.289-1.803 1.633 0 3.159 0.654 4.281 1.796 0.387 0.394 1.020 0.399 1.414 0.012s0.4-1.020 0.012-1.414c-1.494-1.521-3.533-2.394-5.708-2.394zM10.958 8.886l-0.122-0.084c-0.421-0.245-0.97-0.152-1.283 0.24s-0.284 0.948 0.048 1.305l0.109 0.101 1.675 1.339c-0.615 0.245-1.049 0.846-1.049 1.548 0 0.92 0.746 1.666 1.666 1.666s1.666-0.746 1.666-1.666c0.293-0 0.584-0.129 0.781-0.375 0.314-0.392 0.284-0.948-0.048-1.305l-0.109-0.101-3.333-2.667zM22.447 9.042c-0.314-0.392-0.862-0.485-1.283-0.24l-0.122 0.084-3.332 2.667-0.109 0.101c-0.332 0.357-0.361 0.913-0.047 1.305 0.165 0.206 0.394 0.329 0.635 0.363l0.146 0.010c0 0.923 0.746 1.668 1.666 1.668s1.666-0.746 1.666-1.666c0-0.643-0.365-1.202-0.899-1.479l-0.15-0.069 1.674-1.339 0.109-0.101c0.332-0.357 0.361-0.913 0.047-1.305z"></path>
</svg>
