<!-- Generated by IcoMoon.io -->
<svg version="1.1" xmlns="http://www.w3.org/2000/svg" width="32" height="32" viewBox="0 0 32 32">
<title>emoji-add-filled</title>
<path d="M23.333 16c4.050 0 7.333 3.283 7.333 7.333s-3.283 7.333-7.333 7.333c-4.050 0-7.333-3.283-7.333-7.333s3.283-7.333 7.333-7.333zM16 2.665c7.365 0 13.335 5.97 13.335 13.335 0 0.351-0.014 0.699-0.040 1.043-1.553-1.473-3.652-2.377-5.962-2.377-4.291 0-7.853 3.118-8.545 7.212-1.385-0.282-2.624-1.048-3.506-2.167-0.342-0.434-0.971-0.508-1.404-0.167s-0.508 0.971-0.167 1.404c1.237 1.57 3.006 2.619 4.973 2.945 0.133 2.086 1.005 3.973 2.359 5.401-0.344 0.027-0.692 0.041-1.043 0.041-7.365 0-13.335-5.97-13.335-13.335s5.97-13.335 13.335-13.335zM23.333 18.666l-0.12 0.011c-0.272 0.049-0.487 0.264-0.536 0.536l-0.011 0.12-0 3.333-3.336 0.001-0.12 0.011c-0.272 0.049-0.487 0.264-0.536 0.536l-0.011 0.12 0.011 0.12c0.049 0.272 0.264 0.487 0.536 0.536l0.12 0.011 3.337-0.001 0.001 3.339 0.011 0.12c0.049 0.272 0.264 0.487 0.536 0.536l0.12 0.011 0.12-0.011c0.272-0.049 0.487-0.264 0.536-0.536l0.011-0.12-0.001-3.339 3.339 0.001 0.12-0.011c0.272-0.049 0.487-0.264 0.536-0.536l0.011-0.12-0.011-0.12c-0.049-0.272-0.264-0.487-0.536-0.536l-0.12-0.011-3.34-0.001 0-3.333-0.011-0.12c-0.049-0.272-0.264-0.487-0.536-0.536l-0.12-0.011zM12.001 11.668c-0.92 0-1.666 0.746-1.666 1.666s0.746 1.666 1.666 1.666 1.666-0.746 1.666-1.666c0-0.92-0.746-1.666-1.666-1.666zM20.001 11.668c-0.92 0-1.666 0.746-1.666 1.666s0.746 1.666 1.666 1.666c0.92 0 1.666-0.746 1.666-1.666s-0.746-1.666-1.666-1.666z"></path>
</svg>
