<!-- Generated by IcoMoon.io -->
<svg version="1.1" xmlns="http://www.w3.org/2000/svg" width="32" height="32" viewBox="0 0 32 32">
<title>emoji-filled</title>
<path d="M16 2.665c7.365 0 13.335 5.97 13.335 13.335s-5.971 13.335-13.335 13.335-13.335-5.97-13.335-13.335c0-7.365 5.97-13.335 13.335-13.335zM11.282 19.712c-0.342-0.434-0.971-0.508-1.404-0.167s-0.508 0.971-0.167 1.404c1.507 1.913 3.805 3.053 6.289 3.053 2.48 0 4.775-1.137 6.283-3.046 0.342-0.433 0.268-1.062-0.165-1.405s-1.062-0.269-1.405 0.165c-1.132 1.434-2.852 2.285-4.713 2.285-1.864 0-3.585-0.854-4.718-2.291zM12.001 11.668c-0.92 0-1.666 0.746-1.666 1.666s0.746 1.666 1.666 1.666 1.666-0.746 1.666-1.666c0-0.92-0.746-1.666-1.666-1.666zM20.001 11.668c-0.92 0-1.666 0.746-1.666 1.666s0.746 1.666 1.666 1.666c0.92 0 1.666-0.746 1.666-1.666s-0.746-1.666-1.666-1.666z"></path>
</svg>
