<!-- Generated by IcoMoon.io -->
<svg version="1.1" xmlns="http://www.w3.org/2000/svg" width="32" height="32" viewBox="0 0 32 32">
<title>emoji-smile-slight-filled</title>
<path d="M29.335 16.001c0-7.365-5.97-13.335-13.335-13.335s-13.335 5.97-13.335 13.335c0 7.365 5.97 13.335 13.335 13.335s13.335-5.97 13.335-13.335zM10.334 13.334c0-0.92 0.746-1.666 1.666-1.666s1.666 0.746 1.666 1.666c0 0.92-0.746 1.666-1.666 1.666s-1.666-0.746-1.666-1.666zM18.334 13.334c0-0.92 0.746-1.666 1.666-1.666s1.666 0.746 1.666 1.666c0 0.92-0.746 1.666-1.666 1.666s-1.666-0.746-1.666-1.666zM13.514 20.143c0.644 0.387 1.54 0.607 2.485 0.607s1.841-0.221 2.486-0.607c0.474-0.284 1.088-0.131 1.372 0.343s0.13 1.088-0.343 1.372c-1.022 0.613-2.294 0.892-3.514 0.892s-2.492-0.279-3.514-0.893c-0.474-0.284-0.627-0.898-0.343-1.372s0.898-0.627 1.372-0.343z"></path>
</svg>
