<!-- Generated by IcoMoon.io -->
<svg version="1.1" xmlns="http://www.w3.org/2000/svg" width="32" height="32" viewBox="0 0 32 32">
<title>emoji-edit-filled</title>
<path d="M2.667 16c0-7.364 5.969-13.333 13.333-13.333 6.985 0 12.716 5.371 13.287 12.209-0.38-0.132-0.818-0.209-1.274-0.209-1.112 0-2.118 0.455-2.841 1.19l-0 0.001-3.425 3.479c-0.264 0.028-0.489 0.177-0.62 0.389l-0.002 0.004c-1.126 1.584-2.954 2.606-5.021 2.606-0.036 0-0.073-0-0.109-0.001l0.005 0c-0.030 0.001-0.065 0.001-0.101 0.001-2.068 0-3.897-1.021-5.011-2.587l-0.013-0.019c-0.149-0.24-0.411-0.397-0.71-0.397-0.46 0-0.833 0.373-0.833 0.833 0 0.161 0.046 0.312 0.125 0.439l-0.002-0.004c1.427 2.065 3.781 3.401 6.447 3.401 0.034 0 0.068-0 0.103-0.001l-0.005 0c0.029 0 0.064 0.001 0.098 0.001 0.401 0 0.796-0.030 1.181-0.089l-0.043 0.005-1.072 1.089c-0.399 0.405-0.695 0.912-0.846 1.479l-0.005 0.023-0.559 2.157c-0.053 0.203-0.081 0.405-0.087 0.603-6.738-0.669-12-6.353-12-13.267zM11.667 14.667c0.92 0 1.667-0.746 1.667-1.667s-0.746-1.667-1.667-1.667v0c-0.92 0-1.667 0.746-1.667 1.667s0.746 1.667 1.667 1.667v0zM22 13c0-0.92-0.746-1.667-1.667-1.667s-1.667 0.746-1.667 1.667v0c0 0.92 0.746 1.667 1.667 1.667s1.667-0.746 1.667-1.667v0zM29.889 16.779c-0.48-0.48-1.144-0.777-1.877-0.777-0.74 0-1.41 0.303-1.891 0.792l-0 0-9.007 9.149c-0.239 0.243-0.417 0.547-0.508 0.887l-0.003 0.014-0.559 2.156c-0.255 0.985 0.641 1.88 1.625 1.625l2.157-0.559c0.354-0.094 0.658-0.271 0.901-0.511l-0 0 9.149-9.007c0.489-0.482 0.792-1.151 0.792-1.891 0-0.733-0.297-1.396-0.777-1.876v0z"></path>
</svg>
