<!-- Generated by IcoMoon.io -->
<svg version="1.1" xmlns="http://www.w3.org/2000/svg" width="32" height="32" viewBox="0 0 32 32">
<title>emoji-hand-filled</title>
<path d="M9.714 9.714v-6.571c0-0.473 0.384-0.857 0.857-0.857s0.857 0.384 0.857 0.857v0 6.571c0 0.316 0.256 0.571 0.571 0.571s0.571-0.256 0.571-0.571v0-5.714c0-0.473 0.384-0.857 0.857-0.857s0.857 0.384 0.857 0.857v0 6.571c0 0.024 0 0.048-0.003 0.072 0.495-0.186 1.113-0.362 1.718-0.362 0.571 0 1.059 0.143 1.422 0.326 0.179 0.089 0.345 0.199 0.481 0.322 0.067 0.061 0.144 0.141 0.211 0.24 0.053 0.080 0.171 0.274 0.171 0.545 0 0 0 0 0 0 0 0.305-0.159 0.572-0.399 0.724l-0.003 0.002-2.179 1.362-1.895 2.16-1.574 2.169c-0.578 0.789-1.501 1.296-2.543 1.296h-1.302c-0.008 0-0.016 0-0.025 0-1.107 0-2.075-0.596-2.601-1.484l-0.008-0.014c-0.347-0.58-0.72-1.293-1.056-2.026l-0.061-0.147c-0.327-0.744-0.64-1.615-0.64-2.328v-8c0-0.473 0.384-0.857 0.857-0.857s0.857 0.384 0.857 0.857v0 4.855c0 0.316 0.256 0.571 0.571 0.571s0.571-0.256 0.571-0.571v0-6.283c0-0.473 0.384-0.857 0.857-0.857s0.857 0.384 0.857 0.857v0 5.714c0 0.316 0.256 0.571 0.571 0.571s0.571-0.256 0.571-0.571v0zM20 29.714c-5.179-0-9.411-4.053-9.698-9.161l-0.001-0.025c1.182-0.174 2.19-0.809 2.852-1.713l0.008-0.012 1.543-2.126 1.749-1.995 2.037-1.272c0.584-0.366 0.939-1.006 0.939-1.696-0.002-0.524-0.193-1.003-0.509-1.372l0.002 0.003c0.322-0.038 0.695-0.059 1.073-0.059 5.365 0 9.714 4.349 9.714 9.714 0 5.363-4.346 9.712-9.709 9.714h-0zM24.143 18.286c0-0.71-0.576-1.286-1.286-1.286s-1.286 0.576-1.286 1.286v0c0 0.71 0.576 1.286 1.286 1.286s1.286-0.576 1.286-1.286v0zM15.736 22.48c-0.186 0.158-0.303 0.392-0.303 0.654 0 0.211 0.076 0.405 0.203 0.554l-0.001-0.001c1.053 1.243 2.615 2.027 4.36 2.027 0.001 0 0.003 0 0.004 0h-0c0.002 0 0.003 0 0.005 0 1.745 0 3.308-0.784 4.354-2.019l0.007-0.008c0.126-0.148 0.202-0.342 0.202-0.553 0-0.473-0.384-0.857-0.857-0.857-0.262 0-0.497 0.118-0.654 0.303l-0.001 0.001c-0.736 0.87-1.83 1.419-3.051 1.419-0.001 0-0.003 0-0.004 0h0c-0.002 0-0.004 0-0.006 0-1.221 0-2.314-0.549-3.046-1.414l-0.005-0.006c-0.158-0.186-0.393-0.304-0.655-0.304-0.211 0-0.405 0.077-0.554 0.203l0.001-0.001zM18.429 18.286c0-0.71-0.576-1.286-1.286-1.286s-1.286 0.576-1.286 1.286v0c0 0.71 0.576 1.286 1.286 1.286s1.286-0.576 1.286-1.286v0z"></path>
</svg>
