<!-- Generated by IcoMoon.io -->
<svg version="1.1" xmlns="http://www.w3.org/2000/svg" width="32" height="32" viewBox="0 0 32 32">
<title>engine-filled</title>
<path d="M13 4c0.552 0 1 0.448 1 1v1.667h2.667v-1.667c0-0.552 0.448-1 1-1s1 0.448 1 1v1.667h3.667c0.409 0 0.777 0.249 0.929 0.629l1.082 2.705h1.323c2.025 0 3.667 1.642 3.667 3.667v7.333c0 2.025-1.642 3.667-3.667 3.667h-1.323l-1.082 2.705c-0.152 0.38-0.52 0.629-0.929 0.629h-10c-0.277 0-0.542-0.115-0.731-0.318l-3.949-4.232c-0.634-0.679-0.986-1.573-0.986-2.502v-4.282h-2v5c0 0.552-0.448 1-1 1s-1-0.448-1-1v-11.333c0-0.552 0.448-1 1-1s1 0.448 1 1v4.333h2v-4.333c0-2.025 1.642-3.667 3.667-3.667h1.667v-1.667c0-0.552 0.448-1 1-1zM14 13c0-0.552-0.448-1-1-1s-1 0.448-1 1v3.333c0 2.025 1.642 3.667 3.667 3.667h8.667c0.552 0 1-0.448 1-1s-0.448-1-1-1h-5.667v-5c0-0.552-0.448-1-1-1s-1 0.448-1 1v5h-1c-0.921 0-1.667-0.746-1.667-1.667v-3.333z"></path>
</svg>
