<!-- Generated by IcoMoon.io -->
<svg version="1.1" xmlns="http://www.w3.org/2000/svg" width="32" height="32" viewBox="0 0 32 32">
<title>engine-filled</title>
<path d="M13 4c0.552 0 1 0.448 1 1v0 1.667h2.667v-1.667c0-0.552 0.448-1 1-1s1 0.448 1 1v0 1.667h3.667c0.418 0 0.776 0.257 0.926 0.621l0.002 0.007 1.083 2.705h1.323c2.025 0 3.667 1.642 3.667 3.667v0 7.333c0 2.025-1.642 3.667-3.667 3.667v0h-1.323l-1.083 2.705c-0.152 0.371-0.51 0.628-0.928 0.628h-10c-0.288-0-0.548-0.122-0.73-0.317l-0.001-0.001-3.949-4.232c-0.611-0.653-0.986-1.533-0.987-2.501v-4.283h-2v5c0 0.552-0.448 1-1 1s-1-0.448-1-1v0-11.333c0-0.552 0.448-1 1-1s1 0.448 1 1v0 4.333h2v-4.333c0-2.025 1.642-3.667 3.667-3.667v0h1.667v-1.667c0-0.552 0.448-1 1-1v0zM14 13c0-0.552-0.448-1-1-1s-1 0.448-1 1v0 3.333c0 2.025 1.642 3.667 3.667 3.667v0h8.667c0.552 0 1-0.448 1-1s-0.448-1-1-1v0h-5.667v-5c0-0.552-0.448-1-1-1s-1 0.448-1 1v0 5h-1c-0.92 0-1.667-0.747-1.667-1.667v-3.333z"></path>
</svg>
