<!-- Generated by IcoMoon.io -->
<svg version="1.1" xmlns="http://www.w3.org/2000/svg" width="32" height="32" viewBox="0 0 32 32">
<title>equal-off-filled</title>
<path d="M4.373 2.96c-0.183-0.196-0.443-0.318-0.732-0.318-0.552 0-1 0.448-1 1 0 0.289 0.122 0.549 0.318 0.731l0.001 0.001 6.293 6.293h-3.92c-0.736 0-1.333 0.597-1.333 1.333s0.597 1.333 1.333 1.333v0h6.587l5.333 5.333h-11.92c-0.736 0-1.333 0.597-1.333 1.333s0.597 1.333 1.333 1.333v0h14.587l7.707 7.707c0.178 0.166 0.418 0.268 0.682 0.268 0.552 0 1-0.448 1-1 0-0.264-0.102-0.504-0.269-0.682l0.001 0.001-24.667-24.667zM26.667 18.667h-3.757l2.667 2.667h1.091c0.736 0 1.333-0.597 1.333-1.333s-0.597-1.333-1.333-1.333v0zM14.909 10.667l2.667 2.667h9.091c0.736 0 1.333-0.597 1.333-1.333s-0.597-1.333-1.333-1.333v0h-11.757z"></path>
</svg>
