<!-- Generated by IcoMoon.io -->
<svg version="1.1" xmlns="http://www.w3.org/2000/svg" width="32" height="32" viewBox="0 0 32 32">
<title>eraser-segment-filled</title>
<path d="M16.868 3.517c1.181-1.17 3.089-1.156 4.254 0.031l6.547 6.678c1.147 1.171 1.143 3.045-0.010 4.21l-11.443 11.563h5.271c0.425-1.352 1.688-2.333 3.181-2.333 1.841 0 3.333 1.492 3.333 3.333s-1.492 3.333-3.333 3.333c-1.493 0-2.756-0.981-3.181-2.333h-8.355c-0.808 0.040-1.63-0.244-2.252-0.856l-6.799-6.677c-1.194-1.172-1.198-3.094-0.009-4.272l12.798-12.678zM13.067 25.999c0.228-0.020 0.45-0.117 0.624-0.293l1.957-1.978-8.132-8.132-2.038 2.019c-0.396 0.392-0.395 1.033 0.003 1.424l6.799 6.677c0.2 0.196 0.461 0.291 0.72 0.286v-0.004h0.067z"></path>
</svg>
