<!-- Generated by IcoMoon.io -->
<svg version="1.1" xmlns="http://www.w3.org/2000/svg" width="32" height="32" viewBox="0 0 32 32">
<title>eraser-segment-filled</title>
<path d="M16.868 3.517c0.542-0.537 1.288-0.869 2.111-0.869 0.839 0 1.597 0.344 2.141 0.899l0 0 6.547 6.677c0.531 0.541 0.858 1.282 0.858 2.101 0 0.823-0.331 1.568-0.868 2.11l0-0-11.445 11.564h5.272c0.439-1.365 1.697-2.335 3.181-2.335 1.842 0 3.335 1.493 3.335 3.335s-1.493 3.335-3.335 3.335c-1.485 0-2.743-0.97-3.175-2.311l-0.007-0.024h-8.355c-0.046 0.003-0.1 0.004-0.154 0.004-0.818 0-1.559-0.328-2.1-0.86l-6.797-6.677c-0.554-0.545-0.898-1.303-0.898-2.141 0-0.833 0.34-1.588 0.889-2.131l0-0 12.797-12.677zM13.068 26c0.245-0.022 0.462-0.13 0.623-0.293l0-0 1.957-1.977-8.132-8.133-2.039 2.020c-0.183 0.181-0.296 0.432-0.296 0.71 0 0.28 0.115 0.532 0.3 0.714l0 0 6.799 6.677c0.2 0.196 0.46 0.291 0.72 0.285v-0.003h0.067z"></path>
</svg>
