<!-- Generated by IcoMoon.io -->
<svg version="1.1" xmlns="http://www.w3.org/2000/svg" width="32" height="32" viewBox="0 0 32 32">
<title>eraser-tool-filled</title>
<path d="M26.667 3c0.506 0 0.925 0.376 0.991 0.864l0.009 0.136v18.667c0 3.401-2.68 6.175-6.043 6.327l-0.29 0.007h-10.667c-3.401 0-6.175-2.68-6.327-6.043l-0.007-0.29v-17.998c0-0.552 0.448-1 1-1 0.506 0 0.925 0.376 0.991 0.864l0.009 0.136v4.386h19.333v-5.055c0-0.552 0.448-1 1-1zM25.667 11.055h-19.333v4.945h19.333v-4.945z"></path>
</svg>
