<!-- Generated by IcoMoon.io -->
<svg version="1.1" xmlns="http://www.w3.org/2000/svg" width="32" height="32" viewBox="0 0 32 32">
<title>eraser-medium-filled</title>
<path d="M16.868 3.517c1.181-1.17 3.089-1.156 4.254 0.031l6.547 6.678c1.147 1.171 1.143 3.045-0.010 4.21l-0.916 0.926c-1.046-0.448-2.199-0.696-3.409-0.696-4.596 0-8.356 3.577-8.648 8.099l-7.169-7.169-2.038 2.019c-0.396 0.392-0.395 1.033 0.003 1.424l6.799 6.677c0.393 0.386 1.024 0.381 1.412-0.010l1.071-1.082c0.115 0.771 0.332 1.509 0.637 2.2l-0.286 0.289c-1.162 1.174-3.055 1.188-4.234 0.030l-6.799-6.677c-1.194-1.172-1.198-3.094-0.009-4.272l12.798-12.678z"></path>
<path d="M23.333 15.999c0.835 0 1.638 0.14 2.386 0.397 2.879 0.99 4.948 3.722 4.948 6.937 0 4.050-3.283 7.333-7.333 7.333-3.188 0-5.901-2.034-6.911-4.876-0.273-0.768-0.422-1.596-0.422-2.458 0-4.050 3.283-7.333 7.333-7.333z"></path>
</svg>
