<!-- Generated by IcoMoon.io -->
<svg version="1.1" xmlns="http://www.w3.org/2000/svg" width="32" height="32" viewBox="0 0 32 32">
<title>eraser-filled</title>
<path d="M21.16 3.558l6.625 6.625c1.171 1.172 1.171 3.071 0 4.243l-11.576 11.574 8.13 0c0.506 0 0.925 0.376 0.991 0.864l0.009 0.136c0 0.506-0.376 0.925-0.864 0.991l-0.136 0.009-11.213 0.002c-0.822 0.045-1.658-0.247-2.286-0.874l-6.625-6.625c-1.172-1.171-1.172-3.071 0-4.243l12.702-12.702c1.171-1.172 3.071-1.172 4.243 0zM15.597 23.678l-7.94-7.94-2.008 1.955c-0.391 0.39-0.391 1.024 0 1.414l6.594 6.594c0.397 0.384 1.030 0.374 1.414-0.022l1.94-2.002z"></path>
</svg>
