<!-- Generated by IcoMoon.io -->
<svg version="1.1" xmlns="http://www.w3.org/2000/svg" width="32" height="32" viewBox="0 0 32 32">
<title>eraser-medium-filled</title>
<path d="M16.868 3.517c0.542-0.537 1.288-0.869 2.111-0.869 0.839 0 1.597 0.344 2.141 0.899l0 0 6.547 6.677c0.531 0.541 0.858 1.282 0.858 2.101 0 0.823-0.331 1.568-0.868 2.11l-0.916 0.926c-1.005-0.442-2.177-0.699-3.409-0.699-4.588 0-8.343 3.564-8.647 8.075l-0.001 0.026-7.169-7.168-2.039 2.019c-0.183 0.181-0.296 0.432-0.296 0.71 0 0.28 0.115 0.532 0.3 0.714l0 0 6.799 6.677c0.18 0.177 0.427 0.286 0.7 0.286 0.278 0 0.529-0.113 0.711-0.296l0-0 1.072-1.083c0.125 0.822 0.347 1.563 0.658 2.254l-0.022-0.054-0.285 0.289c-0.544 0.55-1.299 0.89-2.133 0.89-0.819 0-1.561-0.328-2.102-0.86l0 0-6.8-6.677c-0.554-0.545-0.897-1.302-0.897-2.14 0-0.834 0.34-1.588 0.889-2.132l0-0 12.797-12.677zM23.333 15.999c0.002 0 0.004 0 0.007 0 4.046 0 7.327 3.28 7.327 7.327 0 0.002 0 0.005 0 0.007v-0c0 4.050-3.283 7.333-7.333 7.333s-7.333-3.283-7.333-7.333c0-4.050 3.283-7.333 7.333-7.333v0z"></path>
</svg>
