<!-- Generated by IcoMoon.io -->
<svg version="1.1" xmlns="http://www.w3.org/2000/svg" width="32" height="32" viewBox="0 0 32 32">
<title>error-circle-filled</title>
<path d="M16 2.667c7.364 0 13.333 5.971 13.333 13.333s-5.969 13.333-13.333 13.333c-7.364 0-13.333-5.971-13.333-13.333s5.969-13.333 13.333-13.333zM16.002 20.005c-0.735 0-1.332 0.596-1.332 1.332s0.596 1.331 1.332 1.331 1.332-0.596 1.332-1.331c0-0.735-0.596-1.332-1.332-1.332zM15.999 9.333c-0.684 0-1.247 0.515-1.324 1.178l-0.009 0.155 0.002 6.668 0.009 0.156c0.077 0.663 0.641 1.178 1.325 1.177s1.247-0.515 1.324-1.178l0.009-0.155-0.002-6.668-0.009-0.155c-0.077-0.663-0.641-1.178-1.325-1.177z"></path>
</svg>
