<!-- Generated by IcoMoon.io -->
<svg version="1.1" xmlns="http://www.w3.org/2000/svg" width="32" height="32" viewBox="0 0 32 32">
<title>extended-dock-filled</title>
<path d="M8.333 14.663c1.289 0 2.333 1.045 2.333 2.333v3.333c0 1.289-1.045 2.333-2.333 2.333h-3.333c-1.289 0-2.333-1.045-2.333-2.333v-3.333c0-1.289 1.045-2.333 2.333-2.333h3.333zM17.667 14.663c1.289 0 2.333 1.045 2.333 2.333v3.333c0 1.289-1.045 2.333-2.333 2.333h-3.333c-1.289 0-2.333-1.045-2.333-2.333v-3.333c0-1.289 1.045-2.333 2.333-2.333h3.333zM27 14.663c1.289 0 2.333 1.045 2.333 2.333v3.333c0 1.289-1.045 2.333-2.333 2.333h-3.333c-1.289 0-2.333-1.045-2.333-2.333v-3.333c0-1.289 1.045-2.333 2.333-2.333h3.333zM10.626 10.293l4.667-4.667c0.351-0.351 0.9-0.387 1.291-0.104l0.112 0.094 4.804 4.667c0.396 0.385 0.405 1.018 0.021 1.414-0.35 0.36-0.905 0.4-1.301 0.116l-0.114-0.095-4.097-3.98-3.97 3.97c-0.391 0.391-1.024 0.391-1.414 0-0.355-0.355-0.387-0.911-0.097-1.302l0.097-0.112z"></path>
</svg>
