<!-- Generated by IcoMoon.io -->
<svg version="1.1" xmlns="http://www.w3.org/2000/svg" width="32" height="32" viewBox="0 0 32 32">
<title>eye-off-filled</title>
<path d="M2.96 2.96c-0.181 0.181-0.293 0.431-0.293 0.707 0 0.224 0.073 0.43 0.198 0.597l-0.002-0.003 0.097 0.112 5.379 5.38c-2.577 1.822-4.457 4.481-5.253 7.574l-0.020 0.092c-0.017 0.069-0.026 0.147-0.026 0.229 0 0.552 0.448 1 1 1 0.461 0 0.849-0.312 0.965-0.736l0.002-0.007c0.724-2.822 2.434-5.162 4.731-6.686l0.042-0.026 2.413 2.413c-0.916 0.956-1.48 2.256-1.48 3.687 0 2.946 2.388 5.333 5.333 5.333 1.432 0 2.732-0.564 3.69-1.483l-0.002 0.002 7.892 7.893c0.181 0.182 0.431 0.294 0.708 0.294 0.552 0 1-0.448 1-1 0-0.225-0.074-0.432-0.199-0.599l0.002 0.003-0.097-0.112-24.665-24.665c-0.181-0.181-0.431-0.292-0.707-0.292s-0.526 0.112-0.707 0.292v0zM16 7.333c-1.333 0-2.627 0.197-3.852 0.567l1.649 1.648c0.662-0.137 1.423-0.216 2.202-0.216 5.282 0 9.72 3.612 10.979 8.5l0.017 0.079c0.12 0.427 0.506 0.736 0.964 0.736 0.552 0 1-0.448 1-1 0-0.078-0.009-0.154-0.026-0.226l0.001 0.007c-1.502-5.844-6.722-10.093-12.936-10.093h-0zM16.26 12.013l5.068 5.067c-0.14-2.741-2.327-4.927-5.055-5.066l-0.013-0.001z"></path>
</svg>
