<!-- Generated by IcoMoon.io -->
<svg version="1.1" xmlns="http://www.w3.org/2000/svg" width="32" height="32" viewBox="0 0 32 32">
<title>eye-tracking-filled</title>
<path d="M4.653 20.864c-0.069-0.491-0.486-0.864-0.991-0.864s-0.921 0.373-0.99 0.858l-0.001 0.005-0.009 0.136v4.669l0.007 0.233c0.121 1.845 1.591 3.311 3.427 3.426l0.011 0.001 0.223 0.007h4.667l0.136-0.008c0.493-0.067 0.869-0.485 0.869-0.991s-0.376-0.924-0.863-0.991l-0.005-0.001-0.136-0.009h-4.667l-0.171-0.008c-0.786-0.084-1.404-0.702-1.486-1.481l-0.001-0.007-0.009-0.171v-4.669l-0.009-0.136zM29.32 20.864c-0.069-0.491-0.486-0.864-0.991-0.864-0.552 0-1 0.448-1 1v4.669l-0.008 0.171c-0.089 0.844-0.798 1.496-1.658 1.496-0 0-0.001 0-0.001 0h-4.667l-0.136 0.009c-0.491 0.069-0.864 0.486-0.864 0.991 0 0.552 0.448 1 1 1h4.667l0.224-0.007c1.926-0.122 3.443-1.714 3.443-3.66 0-0 0-0 0-0v0-4.669l-0.009-0.136zM11.996 3.667c0-0.552-0.448-1-1-1v0h-4.667l-0.223 0.007c-1.927 0.121-3.444 1.713-3.444 3.66 0 0 0 0 0 0v0 4.669l0.009 0.136c0.069 0.491 0.486 0.864 0.991 0.864 0.552 0 1-0.448 1-1v-4.669l0.009-0.171c0.089-0.844 0.797-1.496 1.657-1.496h4.667l0.136-0.009c0.491-0.069 0.864-0.486 0.864-0.991v0zM25.887 2.673l-0.224-0.007h-4.667l-0.136 0.009c-0.491 0.069-0.864 0.486-0.864 0.991s0.373 0.921 0.858 0.99l0.005 0.001 0.136 0.009h4.667l0.171 0.008c0.786 0.083 1.405 0.702 1.487 1.481l0.001 0.007 0.008 0.171v4.669l0.009 0.136c0.069 0.491 0.486 0.864 0.991 0.864s0.921-0.373 0.99-0.858l0.001-0.005 0.009-0.136v-4.669l-0.007-0.232c-0.12-1.845-1.59-3.312-3.425-3.427l-0.011-0.001zM11.333 18c0-2.577 2.089-4.667 4.667-4.667s4.667 2.089 4.667 4.667v0c0 2.577-2.089 4.667-4.667 4.667s-4.667-2.089-4.667-4.667v0zM8.28 15.657l-0.011 0.028v0.003c-0.147 0.38-0.51 0.645-0.935 0.645-0.126 0-0.247-0.023-0.359-0.066l0.007 0.002c-0.797-0.299-0.584-1.292-0.581-1.299l0.008-0.020c0.043-0.112 0.082-0.2 0.125-0.286l-0.009 0.019c0.080-0.172 0.197-0.408 0.36-0.688 0.458-0.774 0.979-1.442 1.573-2.036l0-0c1.496-1.493 3.908-2.96 7.541-2.96 3.635 0 6.047 1.467 7.54 2.96 0.595 0.594 1.116 1.262 1.548 1.989l0.026 0.046c0.157 0.262 0.317 0.576 0.456 0.9l0.021 0.054 0.011 0.027v0.003l0.001 0.003c0.040 0.104 0.063 0.225 0.063 0.35 0 0.426-0.267 0.79-0.642 0.934l-0.007 0.002c-0.103 0.038-0.221 0.061-0.345 0.061-0.426 0-0.791-0.264-0.94-0.638l-0.002-0.007-0.011-0.027s-0.031-0.073-0.059-0.133c-0.1-0.214-0.192-0.385-0.291-0.551l0.016 0.029c-0.367-0.619-0.784-1.155-1.26-1.631v0c-1.173-1.173-3.093-2.373-6.127-2.373-3.032 0-4.953 1.2-6.127 2.373-0.476 0.476-0.893 1.011-1.239 1.593l-0.021 0.037c-0.107 0.177-0.218 0.392-0.317 0.613l-0.016 0.040z"></path>
</svg>
