<!-- Generated by IcoMoon.io -->
<svg version="1.1" xmlns="http://www.w3.org/2000/svg" width="32" height="32" viewBox="0 0 32 32">
<title>eyedropper-off-filled</title>
<path d="M11.92 13.333l-8.96-8.96c-0.196-0.183-0.318-0.443-0.318-0.732 0-0.552 0.448-1 1-1 0.289 0 0.549 0.122 0.731 0.318l0.001 0.001 24.667 24.667c0.166 0.178 0.268 0.418 0.268 0.682 0 0.552-0.448 1-1 1-0.264 0-0.504-0.102-0.682-0.269l0.001 0.001-8.96-8.959-6.373 6.373c-0.543 0.543-1.292 0.878-2.12 0.879h-0.917l-3.129 1.707c-2.044 1.115-4.28-1.121-3.165-3.165l1.707-3.129v-0.917c0-0.795 0.316-1.559 0.88-2.12l6.372-6.375zM17.253 18.667l-3.92-3.917-6.373 6.373c-0.18 0.181-0.292 0.43-0.292 0.706 0 0 0 0 0 0v-0 1.172c0 0.001 0 0.002 0 0.003 0 0.175-0.045 0.34-0.124 0.483l0.003-0.005-1.829 3.352c-0.030 0.047-0.048 0.104-0.048 0.166 0 0.017 0.001 0.033 0.004 0.049l-0-0.002c0.015 0.072 0.050 0.135 0.1 0.183l0 0c0.048 0.050 0.111 0.085 0.182 0.1l0.002 0c0.051 0.009 0.12 0.007 0.212-0.043l3.353-1.829c0.139-0.077 0.304-0.123 0.48-0.123 0 0 0 0 0 0h1.171c0.276-0 0.526-0.112 0.707-0.293v0l6.373-6.375zM24.651 17.431c-0.422 0.423-1.006 0.684-1.65 0.684-0.277 0-0.543-0.048-0.79-0.137l0.016 0.005-8.208-8.209c-0.084-0.23-0.132-0.496-0.132-0.774 0-0.645 0.261-1.228 0.684-1.65v0l0.78-0.781c0.422-0.422 1.006-0.684 1.65-0.684s1.228 0.261 1.65 0.684v0l0.017 0.016 2.627-2.627c0.863-0.863 2.056-1.397 3.373-1.397 2.635 0 4.771 2.136 4.771 4.771 0 1.318-0.534 2.511-1.398 3.374l-2.627 2.628 0.017 0.017c0.422 0.422 0.683 1.006 0.683 1.65s-0.261 1.228-0.683 1.65v0l-0.781 0.78zM22.708 5.373l-3.333 3.333c-0.181 0.181-0.431 0.292-0.707 0.292s-0.526-0.112-0.707-0.292v0l-0.724-0.724c-0.060-0.061-0.144-0.098-0.236-0.098s-0.176 0.037-0.236 0.098v0l-0.781 0.781c-0.060 0.060-0.098 0.144-0.098 0.236s0.037 0.176 0.098 0.236v0l6.781 6.781c0.060 0.061 0.144 0.098 0.236 0.098s0.176-0.037 0.236-0.098v0l0.78-0.781c0.061-0.060 0.098-0.144 0.098-0.236s-0.037-0.176-0.098-0.236v0l-0.723-0.724c-0.181-0.181-0.292-0.431-0.292-0.707s0.112-0.526 0.292-0.707v0l3.333-3.333c0.502-0.502 0.812-1.195 0.812-1.96 0-1.531-1.241-2.772-2.772-2.772-0.765 0-1.458 0.31-1.96 0.812v0z"></path>
</svg>
