<!-- Generated by IcoMoon.io -->
<svg version="1.1" xmlns="http://www.w3.org/2000/svg" width="32" height="32" viewBox="0 0 32 32">
<title>f-stop-filled</title>
<path d="M17.826 9.128c0.426-2.119 2.272-3.693 4.486-3.693 0.577 0 1.128 0.107 1.636 0.302l-0.031-0.011 0.538 0.201c0.127 0.053 0.275 0.084 0.43 0.084 0.631 0 1.143-0.512 1.143-1.143 0-0.498-0.318-0.921-0.762-1.078l-0.008-0.002-0.537-0.202c-3.969-1.488-8.325 0.944-9.138 5.104l-0.983 5.025h-5.743c-0.631 0-1.143 0.512-1.143 1.143s0.512 1.143 1.143 1.143v0h5.295l-1.12 5.729c-0.426 2.119-2.272 3.693-4.486 3.693-0.577 0-1.128-0.107-1.636-0.302l0.031 0.011-0.539-0.201c-0.127-0.053-0.275-0.084-0.429-0.084-0.631 0-1.143 0.512-1.143 1.143 0 0.498 0.318 0.921 0.762 1.078l0.008 0.002 0.538 0.202c3.969 1.488 8.323-0.944 9.137-5.104l1.207-6.168h5.519c0.631 0 1.143-0.512 1.143-1.143s-0.512-1.143-1.143-1.143v0h-5.071l0.897-4.586z"></path>
</svg>
