<!-- Generated by IcoMoon.io -->
<svg version="1.1" xmlns="http://www.w3.org/2000/svg" width="32" height="32" viewBox="0 0 32 32">
<title>f-stop-filled</title>
<path d="M17.922 8.76c0.416-2.435 2.918-3.915 5.253-3.106l0.789 0.273c0.696 0.241 1.455-0.127 1.697-0.823s-0.127-1.455-0.823-1.696l-0.789-0.273c-3.891-1.348-8.061 1.118-8.755 5.177l-0.971 5.689h-4.989c-0.736 0-1.333 0.597-1.333 1.333s0.597 1.333 1.333 1.333h4.534l-0.92 5.389c-0.463 2.711-3.461 4.157-5.871 2.832l-0.1-0.055c-0.645-0.355-1.456-0.119-1.811 0.526s-0.12 1.456 0.526 1.811l0.1 0.055c4.017 2.209 9.013-0.201 9.784-4.719l0.997-5.837h4.761c0.736 0 1.333-0.597 1.333-1.333s-0.597-1.333-1.333-1.333h-4.306l0.895-5.24z"></path>
</svg>
