<!-- Generated by IcoMoon.io -->
<svg version="1.1" xmlns="http://www.w3.org/2000/svg" width="32" height="32" viewBox="0 0 32 32">
<title>fast-acceleration-filled</title>
<path d="M18 5.333c6.259 0 11.333 5.074 11.333 11.333s-5.074 11.333-11.333 11.333c-2.404 0-4.632-0.748-6.466-2.024l0.037 0.024h-9.235c-0.552-0-1-0.448-1-1 0-0.504 0.373-0.921 0.858-0.99l0.005-0.001 0.136-0.009 7.024 0.001c-0.501-0.585-0.952-1.241-1.333-1.94l-0.030-0.060-3.001-0.001c-0.552-0-1-0.448-1-1 0-0.504 0.373-0.921 0.858-0.99l0.005-0.001 0.136-0.009 2.169 0.001c-0.316-0.994-0.499-2.138-0.499-3.325 0-0.004 0-0.007 0-0.011v0.001c0-2.797 1.013-5.357 2.692-7.333h-5.692c-0.552-0-1-0.448-1-1 0-0.504 0.373-0.921 0.858-0.99l0.005-0.001 0.136-0.009h7.903c1.791-1.252 4.014-2 6.412-2 0.006 0 0.013 0 0.019 0h-0.001zM19.539 19.621c-0.447 0.238-0.977 0.377-1.539 0.377-0.556 0-1.081-0.137-1.542-0.378l0.018 0.009-1.461 1.461c0.853 0.577 1.881 0.916 2.989 0.916 1.112 0 2.144-0.34 2.999-0.921l-1.464-1.464zM12.669 16.671c0 1.115 0.341 2.151 0.927 3.007l1.457-1.455c-0.244-0.45-0.387-0.986-0.387-1.554 0-0.001 0-0.002 0-0.003v0c0-0.556 0.137-1.080 0.379-1.54l-1.455-1.453c-0.577 0.837-0.921 1.873-0.921 2.99 0 0.004 0 0.007 0 0.011v-0.001zM22.424 13.681l-1.46 1.46c0.233 0.442 0.37 0.967 0.37 1.523 0 0.563-0.14 1.094-0.388 1.559l0.009-0.018 1.464 1.464c0.581-0.855 0.92-1.887 0.92-2.999 0-1.107-0.337-2.137-0.915-2.989zM18 15.333c-0.018-0.001-0.039-0.001-0.060-0.001-0.736 0-1.333 0.597-1.333 1.333s0.597 1.333 1.333 1.333c0.021 0 0.042-0 0.063-0.001l-0.003 0c0.71-0.033 1.274-0.617 1.274-1.332s-0.563-1.299-1.271-1.332l-0.003-0zM18.004 11.336c-0.002 0-0.005 0-0.008 0-1.117 0-2.154 0.344-3.010 0.933l0.018-0.012 1.453 1.453c0.448-0.238 0.979-0.378 1.542-0.378 0.569 0 1.104 0.142 1.573 0.393l-0.018-0.009 1.456-1.455c-0.839-0.58-1.878-0.927-2.997-0.927-0.003 0-0.007 0-0.010 0h0z"></path>
</svg>
