<!-- Generated by IcoMoon.io -->
<svg version="1.1" xmlns="http://www.w3.org/2000/svg" width="32" height="32" viewBox="0 0 32 32">
<title>fax-filled</title>
<path d="M8 7.2c0-1.325 1.075-2.4 2.4-2.4v0h11.2c1.325 0 2.4 1.075 2.4 2.4v0 4h-1.6v-4c0-0.442-0.358-0.8-0.8-0.8v0h-11.2c-0.442 0-0.8 0.358-0.8 0.8v0 5.6h8.8c-0.499 0.658-0.8 1.491-0.8 2.395 0 0.002 0 0.004 0 0.006v-0 9.6c0 0.901 0.298 1.731 0.8 2.4h-11.2c-1.325 0-2.4-1.075-2.4-2.4v0-8.8c0-1.767 1.433-3.2 3.2-3.2v0-5.6zM10 17c0-0.552-0.448-1-1-1s-1 0.448-1 1v0c0 0.552 0.448 1 1 1s1-0.448 1-1v0zM10 20.6c0-0.552-0.448-1-1-1s-1 0.448-1 1v0c0 0.552 0.448 1 1 1s1-0.448 1-1v0zM12.6 19.8c-0.552 0-1 0.448-1 1s0.448 1 1 1v0c0.552 0 1-0.448 1-1s-0.448-1-1-1v0zM13.6 17c0-0.552-0.448-1-1-1s-1 0.448-1 1v0c0 0.552 0.448 1 1 1s1-0.448 1-1v0zM21.6 12.8c-1.325 0-2.4 1.075-2.4 2.4v0 9.6c0 1.325 1.075 2.4 2.4 2.4v0h3.2c1.325 0 2.4-1.075 2.4-2.4v0-9.6c0-1.325-1.075-2.4-2.4-2.4v0h-3.2z"></path>
</svg>
