<!-- Generated by IcoMoon.io -->
<svg version="1.1" xmlns="http://www.w3.org/2000/svg" width="32" height="32" viewBox="0 0 32 32">
<title>feed-filled</title>
<path d="M19.75 28v-0.005c0.050 0.003 0.109 0.006 0.169 0.006 1.235 0 2.267-0.866 2.524-2.023l0.003-0.017 0.711-3.293h3.343c1.565 0 2.833-1.269 2.833-2.833v0-7.73c-0-1.493-1.182-2.711-2.661-2.768l-0.005-0v-0.002h-7.667v-2.5c0-1.565-1.269-2.833-2.833-2.833v0h-10.667c-1.565 0-2.833 1.269-2.833 2.833v0 17c0 2.301 1.865 4.167 4.167 4.167v0h12.917zM19 11h5.023c-0.066 0.147-0.123 0.321-0.163 0.501l-0.003 0.018-3.039 14.089c-0.091 0.419-0.459 0.728-0.899 0.728-0.507 0-0.919-0.411-0.919-0.919 0-0.001 0-0.002 0-0.003v0-14.415zM8.667 10.333c0 0.552-0.448 1-1 1s-1-0.448-1-1v0c0-0.552 0.448-1 1-1s1 0.448 1 1v0zM7.5 14.667h7c0.46 0 0.833 0.373 0.833 0.833s-0.373 0.833-0.833 0.833v0h-7c-0.46 0-0.833-0.373-0.833-0.833s0.373-0.833 0.833-0.833v0zM6.667 20.833c0-0.46 0.373-0.833 0.833-0.833h7c0.46 0 0.833 0.373 0.833 0.833s-0.373 0.833-0.833 0.833v0h-7c-0.46 0-0.833-0.373-0.833-0.833z"></path>
</svg>
