<!-- Generated by IcoMoon.io -->
<svg version="1.1" xmlns="http://www.w3.org/2000/svg" width="32" height="32" viewBox="0 0 32 32">
<title>filmstrip-filled</title>
<path d="M29.333 8.333c0-1.657-1.343-3-3-3v0h-20.667c-1.657 0-3 1.343-3 3v0 15.333c0 1.657 1.343 3 3 3v0h20.667c1.657 0 3-1.343 3-3v0-15.333zM26.333 7.333c0.552 0 1 0.448 1 1v0 1.667h-3.333v-2.667h2.333zM24 12h3.333v3.333h-3.333v-3.333zM24 17.333h3.333v2.667h-3.333v-2.667zM24 22h3.333v1.667c0 0.552-0.448 1-1 1v0h-2.333v-2.667zM8 7.333v2.667h-3.333v-1.667c0-0.552 0.448-1 1-1v0h2.333zM8 22v2.667h-2.333c-0.552 0-1-0.448-1-1v0-1.667h3.333zM8 20h-3.333v-2.667h3.333v2.667zM8 12v3.333h-3.333v-3.333h3.333z"></path>
</svg>
