<!-- Generated by IcoMoon.io -->
<svg version="1.1" xmlns="http://www.w3.org/2000/svg" width="32" height="32" viewBox="0 0 32 32">
<title>filter-add-filled</title>
<path d="M27.2 14.787c-1.124 0.76-2.509 1.213-4 1.213-3.977 0-7.2-3.224-7.2-7.2 0-2.486 1.259-4.677 3.175-5.971l0.026-0.016c1.124-0.76 2.509-1.213 4-1.213 3.977 0 7.2 3.224 7.2 7.2 0 2.486-1.259 4.677-3.175 5.971l-0.026 0.016zM23.766 5.034c-0.145-0.145-0.345-0.235-0.566-0.235-0.442 0-0.8 0.358-0.8 0.8 0 0 0 0.001 0 0.002v-0 2.4h-2.4c-0.442 0-0.8 0.358-0.8 0.8s0.358 0.8 0.8 0.8v0h2.4v2.4c0 0.442 0.358 0.8 0.8 0.8s0.8-0.358 0.8-0.8v0-2.4h2.4c0.442 0 0.8-0.358 0.8-0.8s-0.358-0.8-0.8-0.8v0h-2.4v-2.4c0-0 0-0.001 0-0.001 0-0.221-0.089-0.42-0.234-0.565l0 0zM14.435 8c-0.023 0.238-0.035 0.515-0.035 0.794 0 0.568 0.053 1.123 0.155 1.661l-0.009-0.055h-8.546c-0.663 0-1.2-0.537-1.2-1.2s0.537-1.2 1.2-1.2v0h8.435zM16.763 14.8c1.016 1.089 2.299 1.918 3.744 2.383l0.062 0.017h-11.37c-0.663 0-1.2-0.537-1.2-1.2s0.537-1.2 1.2-1.2v0h7.563zM19.6 21.6c0.663 0 1.2 0.537 1.2 1.2s-0.537 1.2-1.2 1.2v0h-7.2c-0.663 0-1.2-0.537-1.2-1.2s0.537-1.2 1.2-1.2v0h7.2z"></path>
</svg>
