<!-- Generated by IcoMoon.io -->
<svg version="1.1" xmlns="http://www.w3.org/2000/svg" width="32" height="32" viewBox="0 0 32 32">
<title>filter-dismiss-filled</title>
<path d="M30.667 10c0 4.050-3.283 7.333-7.333 7.333s-7.333-3.283-7.333-7.333c0-4.050 3.283-7.333 7.333-7.333s7.333 3.283 7.333 7.333zM21.138 6.862c-0.26-0.26-0.683-0.26-0.943 0s-0.26 0.682 0 0.943l2.195 2.195-2.195 2.195c-0.26 0.26-0.26 0.682 0 0.943s0.683 0.26 0.943 0l2.195-2.195 2.195 2.195c0.26 0.26 0.683 0.26 0.943 0s0.26-0.682 0-0.943l-2.195-2.195 2.195-2.195c0.26-0.26 0.26-0.682 0-0.943s-0.683-0.26-0.943 0l-2.195 2.195-2.195-2.195zM10.667 14.667h5.362c0.687 1.074 1.605 1.986 2.683 2.667h-8.046c-0.736 0-1.333-0.597-1.333-1.333 0-0.684 0.515-1.247 1.178-1.324l0.155-0.009zM6.667 8h8.232c-0.152 0.642-0.232 1.312-0.232 2 0 0.224 0.009 0.447 0.025 0.667h-8.025c-0.736 0-1.333-0.597-1.333-1.333 0-0.684 0.515-1.247 1.178-1.324l0.155-0.009zM13.178 21.342l0.155-0.009h5.333c0.736 0 1.333 0.597 1.333 1.333 0 0.684-0.515 1.247-1.178 1.324l-0.155 0.009h-5.333c-0.736 0-1.333-0.597-1.333-1.333 0-0.684 0.515-1.247 1.178-1.324z"></path>
</svg>
