<!-- Generated by IcoMoon.io -->
<svg version="1.1" xmlns="http://www.w3.org/2000/svg" width="32" height="32" viewBox="0 0 32 32">
<title>filter-sync-filled</title>
<path d="M16 10c0 4.050 3.283 7.333 7.333 7.333s7.333-3.283 7.333-7.333c0-4.050-3.283-7.333-7.333-7.333s-7.333 3.283-7.333 7.333zM27.333 5.333c0.368 0 0.667 0.298 0.667 0.667v2.667c0 0.368-0.299 0.667-0.667 0.667h-2.667c-0.368 0-0.667-0.298-0.667-0.667s0.299-0.667 0.667-0.667h1.334c-0.609-0.811-1.577-1.333-2.667-1.333-1.111 0-2.096 0.543-2.702 1.381-0.216 0.298-0.633 0.365-0.931 0.149s-0.365-0.633-0.149-0.931c0.847-1.17 2.225-1.933 3.782-1.933 1.306 0 2.487 0.537 3.333 1.401v-0.734c0-0.368 0.299-0.667 0.667-0.667zM20 13.266v0.734c0 0.368-0.299 0.667-0.667 0.667s-0.667-0.299-0.667-0.667v-2.667c0-0.368 0.299-0.667 0.667-0.667h2.667c0.368 0 0.667 0.298 0.667 0.667s-0.299 0.667-0.667 0.667h-1.334c0.609 0.811 1.577 1.333 2.667 1.333 1.022 0 1.936-0.459 2.548-1.184 0.237-0.281 0.658-0.317 0.939-0.079s0.317 0.658 0.079 0.939c-0.855 1.013-2.136 1.657-3.567 1.657-1.306 0-2.487-0.537-3.333-1.401zM10.667 17.333h8.046c-1.078-0.681-1.996-1.593-2.683-2.667h-5.362l-0.155 0.009c-0.663 0.077-1.178 0.641-1.178 1.324 0 0.736 0.597 1.333 1.333 1.333zM6.667 8h8.232c-0.152 0.642-0.232 1.312-0.232 2 0 0.224 0.009 0.447 0.025 0.667h-8.025c-0.736 0-1.333-0.597-1.333-1.333 0-0.684 0.515-1.247 1.178-1.324l0.155-0.009zM13.178 21.342l0.155-0.009h5.333c0.736 0 1.333 0.597 1.333 1.333 0 0.684-0.515 1.247-1.178 1.324l-0.155 0.009h-5.333c-0.736 0-1.333-0.597-1.333-1.333 0-0.684 0.515-1.247 1.178-1.324z"></path>
</svg>
