<!-- Generated by IcoMoon.io -->
<svg version="1.1" xmlns="http://www.w3.org/2000/svg" width="32" height="32" viewBox="0 0 32 32">
<title>filter-filled</title>
<path d="M19.429 21.714c0.631 0 1.143 0.512 1.143 1.143s-0.512 1.143-1.143 1.143v0h-6.857c-0.631 0-1.143-0.512-1.143-1.143s0.512-1.143 1.143-1.143v0h6.857zM24 14.857c0.631 0 1.143 0.512 1.143 1.143s-0.512 1.143-1.143 1.143v0h-16c-0.631 0-1.143-0.512-1.143-1.143s0.512-1.143 1.143-1.143v0h16zM27.429 8c0.631 0 1.143 0.512 1.143 1.143s-0.512 1.143-1.143 1.143v0h-22.857c-0.631 0-1.143-0.512-1.143-1.143s0.512-1.143 1.143-1.143v0h22.857z"></path>
</svg>
