<!-- Generated by IcoMoon.io -->
<svg version="1.1" xmlns="http://www.w3.org/2000/svg" width="32" height="32" viewBox="0 0 32 32">
<title>fireplace-filled</title>
<path d="M16 2.667c-6.627 0-12 5.373-12 12v8.833c0 0.46 0.373 0.833 0.833 0.833h22.333c0.46 0 0.833-0.373 0.833-0.833v-8.833c0-6.627-5.373-12-12-12zM5.667 14.667c0-5.707 4.627-10.333 10.333-10.333s10.333 4.627 10.333 10.333v8h-6.088c1.281-1.088 2.088-2.7 2.088-4.5v0c0-1.927-1.129-3.285-2.103-4.455-0.002 0.001-0.085-0.099-0.167-0.199l-0.086-0.107c-1.061-1.293-1.977-2.563-1.977-4.572-0-0.46-0.373-0.833-0.833-0.833-0.069 0-0.137 0.008-0.201 0.024l0.006-0.001c-1.439 0.347-2.287 1.119-2.741 2.070-0.424 0.888-0.469 1.865-0.5 2.535l-0.002 0.041c-0.012 0.271-0.021 0.476-0.040 0.64-0.2-0.084-0.49-0.24-0.899-0.507-0.129-0.085-0.286-0.136-0.456-0.136-0.218 0-0.417 0.084-0.566 0.222l0.001-0.001s0.003-0.003 0 0l-0.001 0.001-0.012 0.012c-0.035 0.033-0.067 0.065-0.099 0.099l-0.001 0.001c-0.082 0.085-0.163 0.175-0.24 0.267l-0.007 0.008c-0.198 0.236-0.456 0.58-0.713 1.026-0.646 1.103-1.028 2.429-1.028 3.843 0 0.007 0 0.015 0 0.022v-0.001c0 1.801 0.809 3.413 2.082 4.493l0.008 0.007h-6.091v-8zM3.5 26.333c-0.46 0-0.833 0.373-0.833 0.833s0.373 0.833 0.833 0.833v0h25c0.46 0 0.833-0.373 0.833-0.833s-0.373-0.833-0.833-0.833v0h-25z"></path>
</svg>
