<!-- Generated by IcoMoon.io -->
<svg version="1.1" xmlns="http://www.w3.org/2000/svg" width="32" height="32" viewBox="0 0 32 32">
<title>fixed-width-filled</title>
<path d="M5 5.333c0.552 0 1 0.411 1 0.917v1.749h9v-1.751c0-0.507 0.448-0.916 1-0.916s1 0.411 1 0.917v1.749h9v-1.751c0-0.507 0.448-0.916 1-0.916s1 0.411 1 0.917v5.5c0 0.507-0.448 0.916-1 0.916s-1-0.411-1-0.917v-1.749h-9v1.751c0 0.507-0.448 0.916-1 0.916s-1-0.411-1-0.917v-1.749h-9v1.751c0 0.507-0.448 0.916-1 0.916s-1-0.411-1-0.917v-5.497c0-0.507 0.448-0.917 1-0.917zM7.667 14.667c-2.025 0-3.667 1.642-3.667 3.667v0 5.333c0 2.025 1.642 3.667 3.667 3.667v0h7.333v-12.667h-7.333zM24.333 27.333h-7.333v-12.667h7.333c2.025 0 3.667 1.642 3.667 3.667v0 5.333c0 2.025-1.642 3.667-3.667 3.667v0z"></path>
</svg>
