<!-- Generated by IcoMoon.io -->
<svg version="1.1" xmlns="http://www.w3.org/2000/svg" width="32" height="32" viewBox="0 0 32 32">
<title>flag-off-filled</title>
<path d="M3.333 3.333l24 24c0.39 0.391 0.39 1.024 0 1.414s-1.024 0.391-1.414 0l-6.749-6.748-13.17 0v6.333c0 0.506-0.376 0.925-0.864 0.991l-0.136 0.009c-0.506 0-0.925-0.376-0.991-0.864l-0.009-0.136-0-21.504-2.080-2.081c-0.391-0.391-0.391-1.024 0-1.414s1.024-0.391 1.414 0zM6.823 3.995l20.183 0.001c0.824 0 1.294 0.941 0.8 1.6l-5.552 7.402 5.552 7.402c0.495 0.659 0.024 1.6-0.8 1.6l-2.177-0-18.005-18.004z"></path>
</svg>
