<!-- Generated by IcoMoon.io -->
<svg version="1.1" xmlns="http://www.w3.org/2000/svg" width="32" height="32" viewBox="0 0 32 32">
<title>flag-pride-filled</title>
<path fill="#745125" d="M5.333 5.667h21.333v2h-21.333v-2z"></path>
<path fill="#e62c46" d="M5.333 7.667h21.333v2h-21.333v-2z"></path>
<path fill="#f36d38" d="M5.333 9.667h21.333v2.333h-21.333v-2.333z"></path>
<path fill="#ffd23e" d="M5.333 12h21.333v2h-21.333v-2z"></path>
<path fill="#61bc51" d="M5.333 14h21.333v2.333h-21.333v-2.333z"></path>
<path fill="#1793e8" d="M5.333 16.333h21.333v2h-21.333v-2z"></path>
<path fill="#b73fbb" d="M5.333 18.333h22.667v2h-22.667v-2z"></path>
<path fill="#212121" d="M5 4c-0.552 0-1 0.448-1 1v23.333c0 0.552 0.448 1 1 1s1-0.448 1-1v-6.333h21c0.552 0 1-0.448 1-1v-16c0-0.552-0.448-1-1-1h-22zM6 6h20v14h-20v-14z"></path>
</svg>
