<!-- Generated by IcoMoon.io -->
<svg version="1.1" xmlns="http://www.w3.org/2000/svg" width="32" height="32" viewBox="0 0 32 32">
<title>flag-off-filled</title>
<path d="M4.331 5.17l0.058-0.070c0.153-0.164 0.37-0.267 0.611-0.267 0.187 0 0.36 0.062 0.499 0.166l-0.002-0.002 0.070 0.058 18.333 17c0.164 0.153 0.266 0.369 0.266 0.61 0 0.46-0.373 0.833-0.833 0.833-0.187 0-0.359-0.061-0.498-0.165l0.002 0.002-0.070-0.057-4.253-3.945h-10.18v6.5c-0.002 0.459-0.374 0.831-0.833 0.831-0.429 0-0.783-0.325-0.828-0.742l-0-0.004-0.005-0.085v-17.485l-2.233-2.070c-0.164-0.153-0.267-0.37-0.267-0.611 0-0.187 0.062-0.36 0.166-0.499l-0.002 0.002zM7.917 5.333h16.583c0 0 0 0 0 0 0.46 0 0.833 0.373 0.833 0.833 0 0.122-0.026 0.239-0.074 0.343l0.002-0.005-0.037 0.073-3.267 5.755 3.267 5.755c0.068 0.118 0.109 0.26 0.109 0.411 0 0.431-0.328 0.786-0.748 0.829l-0.004 0-0.082 0.004h-1.484l-15.099-14z"></path>
</svg>
