<!-- Generated by IcoMoon.io -->
<svg version="1.1" xmlns="http://www.w3.org/2000/svg" width="32" height="32" viewBox="0 0 32 32">
<title>flash-off-filled</title>
<path d="M19.248 20.663l8.377 8.379c0.181 0.181 0.431 0.293 0.707 0.293 0.552 0 1-0.448 1-1 0-0.276-0.112-0.526-0.293-0.707l-24.667-24.667c-0.183-0.196-0.443-0.318-0.732-0.318-0.552 0-1 0.448-1 1 0 0.289 0.122 0.549 0.318 0.731l0.001 0.001 4.959 4.96-2.448 6.871c-0.086 0.233-0.135 0.502-0.135 0.783 0 1.286 1.040 2.328 2.324 2.333l2.091 0.008-1.692 7.557c-0.44 1.971 1.983 3.28 3.388 1.829l7.801-8.052zM26.195 13.493l-4.163 4.296-12.627-12.627 0.493-1.388c0.237-0.651 0.85-1.108 1.57-1.108 0 0 0 0 0 0h8.604c0 0 0 0 0 0 0.92 0 1.667 0.746 1.667 1.667 0 0.188-0.031 0.37-0.089 0.538l0.003-0.012-1.935 5.807h5.277c1.472 0 2.221 1.769 1.197 2.827z"></path>
</svg>
