<!-- Generated by IcoMoon.io -->
<svg version="1.1" xmlns="http://www.w3.org/2000/svg" width="32" height="32" viewBox="0 0 32 32">
<title>flash-checkmark-filled</title>
<path d="M8.703 28.091l2.356-9.424h-3.392c-0.664 0-1.144-0.636-0.962-1.275l4-14c0.123-0.429 0.515-0.725 0.962-0.725h9.333c0.683 0 1.165 0.669 0.949 1.316l-2.228 6.684h5.946c0.881 0 1.331 1.057 0.721 1.692l-2.25 2.345c-0.265-0.024-0.534-0.037-0.805-0.037-4.786 0-8.666 3.88-8.666 8.667 0 0.393 0.026 0.781 0.077 1.16l-4.349 4.532c-0.71 0.74-1.94 0.060-1.692-0.935zM23.333 30.667c4.050 0 7.333-3.283 7.333-7.333s-3.283-7.333-7.333-7.333c-4.050 0-7.333 3.283-7.333 7.333s3.283 7.333 7.333 7.333zM27.805 21.138l-5.333 5.333c-0.26 0.26-0.682 0.26-0.943 0l-2.667-2.667c-0.26-0.26-0.26-0.683 0-0.943s0.682-0.26 0.943 0l2.195 2.195 4.862-4.862c0.26-0.26 0.683-0.26 0.943 0s0.26 0.683 0 0.943z"></path>
</svg>
