<!-- Generated by IcoMoon.io -->
<svg version="1.1" xmlns="http://www.w3.org/2000/svg" width="32" height="32" viewBox="0 0 32 32">
<title>flash-flow-filled</title>
<path d="M9.901 3.773l-4.428 12.431c-0.086 0.233-0.135 0.502-0.135 0.783 0 1.286 1.040 2.328 2.324 2.333l2.091 0.008-1.693 7.557c-0.44 1.971 1.984 3.28 3.389 1.829l6.696-6.911c-0.246-1.113-0.329-1.444-0.414-1.775l0.172 0.787c-0.243-1.017-0.411-1.634-0.589-2.246l0.101 0.406c-0.921 1.039-2.258 1.69-3.748 1.69-2.761 0-5-2.239-5-5s2.239-5 5-5c2.054 0 3.82 1.239 4.589 3.011l0.012 0.032c0.564 0.083 1.159 0.287 1.713 0.684 0.744 0.531 1.247 1.285 1.543 2.137 0.133 0.344 0.283 0.824 0.429 1.343l4.244-4.38c1.024-1.057 0.275-2.827-1.197-2.827h-5.279l1.936-5.807c0.054-0.157 0.085-0.338 0.085-0.527 0-0.92-0.746-1.667-1.667-1.667-0 0-0 0-0 0h-8.604c-0.707 0-1.333 0.444-1.571 1.107zM15.333 15.667c0-0.92-0.746-1.667-1.667-1.667s-1.667 0.746-1.667 1.667v0c0 0.92 0.746 1.667 1.667 1.667s1.667-0.746 1.667-1.667v0zM17.084 17c-0.548 1.379-1.871 2.336-3.417 2.336-2.026 0-3.668-1.642-3.668-3.668s1.642-3.668 3.668-3.668c1.79 0 3.28 1.282 3.603 2.978l0.004 0.023h0.393c0.501 0 1.048 0.127 1.54 0.477 0.487 0.348 0.844 0.863 1.067 1.512 0.251 0.643 0.595 1.945 0.864 3.019-0.014-0.181 0.146 0.467 0.301 1.117l0.163 0.812 0.028 0.12c0.109 0.309 0.24 0.443 0.327 0.504 0.093 0.067 0.213 0.105 0.377 0.105h1.015c0.177-1.876 1.744-3.333 3.651-3.333 2.025 0 3.667 1.642 3.667 3.667s-1.642 3.667-3.667 3.667c-1.417 0-2.646-0.804-3.256-1.98l-0.010-0.020h-1.4c-0.501 0-1.048-0.127-1.54-0.477-0.493-0.353-0.853-0.877-1.075-1.54-0.009-0.024-0.018-0.055-0.025-0.087l-0.001-0.007-0.011-0.043-0.027-0.124c-0.316-1.443-0.474-2.081-0.637-2.716l0.179 0.819c-0.283-1.133-0.6-2.308-0.791-2.787-0.005-0.012-0.012-0.030-0.018-0.049l-0.002-0.007c-0.113-0.337-0.252-0.48-0.341-0.544-0.098-0.066-0.218-0.106-0.348-0.106-0.010 0-0.020 0-0.030 0.001l0.001-0h-0.584zM27 24.667c0.92 0 1.667-0.746 1.667-1.667s-0.746-1.667-1.667-1.667v0c-0.92 0-1.667 0.746-1.667 1.667s0.746 1.667 1.667 1.667v0z"></path>
</svg>
