<!-- Generated by IcoMoon.io -->
<svg version="1.1" xmlns="http://www.w3.org/2000/svg" width="32" height="32" viewBox="0 0 32 32">
<title>flash-auto-filled</title>
<path d="M9.9 3.773c0.237-0.651 0.85-1.107 1.57-1.107 0 0 0.001 0 0.001 0h8.604c0 0 0 0 0 0 0.92 0 1.667 0.746 1.667 1.667 0 0.188-0.031 0.37-0.089 0.538l0.003-0.012-1.936 5.807h5.28c1.471 0 2.22 1.769 1.196 2.827l-0.896 0.924c-0.976-1.56-3.419-1.441-4.143 0.392l-2.588 6.555-7.121 7.351c-1.405 1.451-3.829 0.141-3.388-1.829l1.693-7.557-2.093-0.008c-1.284-0.006-2.323-1.048-2.323-2.333 0-0.281 0.050-0.55 0.14-0.799l-0.005 0.016 4.428-12.429zM24.259 15.3l5 12.66c0.046 0.11 0.072 0.238 0.072 0.373 0 0.552-0.448 1-1 1-0.374 0-0.701-0.206-0.872-0.51l-0.003-0.005-0.059-0.123-1.331-3.367h-5.48l-1.328 3.367c-0.151 0.374-0.51 0.633-0.93 0.633-0.084 0-0.166-0.010-0.245-0.030l0.007 0.001-0.129-0.040c-0.374-0.151-0.633-0.51-0.633-0.93 0-0.084 0.010-0.166 0.030-0.245l-0.001 0.007 0.040-0.131 5-12.66c0.106-0.273 0.322-0.483 0.593-0.577l0.007-0.002c0.098-0.034 0.211-0.054 0.329-0.054 0.144 0 0.281 0.030 0.406 0.083l-0.007-0.003c0.187 0.077 0.352 0.216 0.465 0.412l0.067 0.14zM21.376 23.328h3.901l-1.951-4.94-1.951 4.94z"></path>
</svg>
