<!-- Generated by IcoMoon.io -->
<svg version="1.1" xmlns="http://www.w3.org/2000/svg" width="32" height="32" viewBox="0 0 32 32">
<title>flash-settings-filled</title>
<path d="M11.059 18.667l-2.356 9.424c-0.249 0.995 0.982 1.675 1.692 0.935l4.349-4.532c-0.051-0.379-0.077-0.767-0.077-1.16 0-4.787 3.88-8.667 8.667-8.667 0.271 0 0.54 0.013 0.805 0.037l2.25-2.345c0.61-0.636 0.159-1.692-0.721-1.692h-5.946l2.228-6.684c0.216-0.648-0.266-1.316-0.949-1.316h-9.333c-0.446 0-0.839 0.296-0.962 0.725l-4 14c-0.183 0.639 0.297 1.275 0.962 1.275h3.392zM16.667 20.838l0.596 0.574c1.090 1.049 1.090 2.794 0 3.843l-0.596 0.574c0.267 0.765 0.654 1.47 1.137 2.093l0.803-0.237c1.463-0.432 2.99 0.449 3.348 1.932l0.23 0.955c0.374 0.063 0.758 0.096 1.149 0.096s0.775-0.033 1.149-0.096l0.23-0.955c0.358-1.483 1.885-2.365 3.348-1.932l0.803 0.237c0.483-0.622 0.87-1.328 1.137-2.093l-0.596-0.574c-1.090-1.049-1.090-2.794 0-3.843l0.596-0.574c-0.267-0.765-0.654-1.47-1.137-2.093l-0.803 0.237c-1.463 0.432-2.99-0.449-3.348-1.932l-0.23-0.955c-0.374-0.063-0.757-0.096-1.149-0.096s-0.775 0.033-1.149 0.096l-0.23 0.955c-0.358 1.483-1.885 2.365-3.348 1.932l-0.803-0.237c-0.483 0.622-0.87 1.328-1.137 2.093zM23.334 25.333c-1.067 0-1.933-0.895-1.933-2s0.865-2 1.933-2c1.067 0 1.933 0.895 1.933 2s-0.865 2-1.933 2z"></path>
</svg>
