<!-- Generated by IcoMoon.io -->
<svg version="1.1" xmlns="http://www.w3.org/2000/svg" width="32" height="32" viewBox="0 0 32 32">
<title>flash-play-filled</title>
<path d="M11.541 3.2c-0.758 0-1.426 0.502-1.634 1.232l-3.6 12.598c-0.042 0.14-0.066 0.301-0.066 0.467 0 0.938 0.761 1.699 1.699 1.699h2.029l-1.872 7.488c-0.422 1.688 1.664 2.843 2.872 1.592l3.55-3.624c-0.077-0.437-0.121-0.94-0.121-1.453 0-4.86 3.94-8.8 8.8-8.8 0.45 0 0.891 0.034 1.323 0.099l-0.049-0.006 0.379-0.389 0.005-0.006c1.026-1.067 0.288-2.898-1.226-2.898h-4.102l2.022-5.763c0.055-0.16 0.087-0.345 0.087-0.538 0-0.938-0.761-1.699-1.699-1.699-0 0-0.001 0-0.001 0h-8.398zM30.4 23.2c0 3.976-3.224 7.2-7.2 7.2s-7.2-3.224-7.2-7.2v0c0-3.976 3.224-7.2 7.2-7.2s7.2 3.224 7.2 7.2v0zM26.741 22.501l-4.752-2.64c-0.112-0.063-0.246-0.101-0.389-0.101-0.442 0-0.8 0.358-0.8 0.8 0 0 0 0 0 0v0 5.28c0 0 0 0 0 0 0 0.442 0.358 0.8 0.8 0.8 0.143 0 0.277-0.037 0.393-0.103l-0.004 0.002 4.752-2.64c0.247-0.139 0.411-0.4 0.411-0.699s-0.164-0.56-0.407-0.697l-0.004-0.002z"></path>
</svg>
