<!-- Generated by IcoMoon.io -->
<svg version="1.1" xmlns="http://www.w3.org/2000/svg" width="32" height="32" viewBox="0 0 32 32">
<title>flash-checkmark-filled</title>
<path d="M9.609 3.259c0.227-0.574 0.776-0.973 1.419-0.974h9.731c1.059 0 1.795 1.054 1.431 2.048l-2.39 6.523h5.528c1.346 0 2.031 1.618 1.094 2.585l-1.499 1.545c-0.45-0.084-0.968-0.132-1.497-0.132-4.734 0-8.571 3.838-8.571 8.571 0 0.62 0.066 1.224 0.191 1.806l-0.010-0.056-3.851 3.969c-1.303 1.343-3.55 0.134-3.146-1.694l1.897-8.595h-3.171c-1.21-0-2.19-0.981-2.19-2.191 0-0.285 0.054-0.557 0.153-0.807l-0.005 0.015 4.888-12.614zM30.857 23.429c0 4.103-3.326 7.429-7.429 7.429s-7.429-3.326-7.429-7.429v0c0-4.103 3.326-7.429 7.429-7.429s7.429 3.326 7.429 7.429v0zM27.833 20.167c-0.103-0.104-0.247-0.168-0.405-0.168s-0.301 0.064-0.405 0.168v0l-5.31 5.311-1.881-1.882c-0.104-0.104-0.247-0.168-0.405-0.168-0.316 0-0.572 0.256-0.572 0.572 0 0.158 0.064 0.301 0.168 0.405l2.286 2.286c0.103 0.104 0.247 0.168 0.405 0.168s0.301-0.064 0.405-0.168v0l5.714-5.714c0.104-0.103 0.168-0.247 0.168-0.405s-0.064-0.301-0.168-0.405v0z"></path>
</svg>
