<!-- Generated by IcoMoon.io -->
<svg version="1.1" xmlns="http://www.w3.org/2000/svg" width="32" height="32" viewBox="0 0 32 32">
<title>flashlight-off-filled</title>
<path d="M4.373 2.96c-0.183-0.196-0.443-0.318-0.732-0.318-0.552 0-1 0.448-1 1 0 0.289 0.122 0.549 0.318 0.731l0.001 0.001 24.667 24.667c0.178 0.166 0.418 0.268 0.682 0.268 0.552 0 1-0.448 1-1 0-0.264-0.102-0.504-0.269-0.682l0.001 0.001-24.667-24.667zM25.413 20l1.88-1.879c0.543-0.543 0.879-1.293 0.879-2.121s-0.336-1.578-0.879-2.121l-9.173-9.172c-0.543-0.543-1.293-0.878-2.121-0.878s-1.578 0.336-2.121 0.878l-1.88 1.88 13.415 13.413zM17.333 21.413l-6.747-6.747-6.547 6.545c-0.543 0.543-0.879 1.293-0.879 2.121s0.336 1.578 0.879 2.121l2.507 2.505c0.543 0.543 1.293 0.879 2.121 0.879s1.578-0.336 2.121-0.879l6.544-6.547zM12.707 20.707l-2 2c-0.183 0.196-0.443 0.318-0.732 0.318-0.552 0-1-0.448-1-1 0-0.289 0.122-0.549 0.318-0.731l0.001-0.001 2-2c0.183-0.196 0.443-0.318 0.732-0.318 0.552 0 1 0.448 1 1 0 0.289-0.122 0.549-0.318 0.731l-0.001 0.001z"></path>
</svg>
