<!-- Generated by IcoMoon.io -->
<svg version="1.1" xmlns="http://www.w3.org/2000/svg" width="32" height="32" viewBox="0 0 32 32">
<title>flip-horizontal-filled</title>
<path d="M29.116 26.063c-0.246 0.377-0.666 0.604-1.116 0.604h-9.333c-0.736 0-1.333-0.597-1.333-1.333v-21.333c0-0.631 0.443-1.176 1.060-1.305s1.242 0.192 1.495 0.771l9.333 21.333c0.18 0.412 0.141 0.888-0.106 1.264zM20 10.374v13.626h5.961l-5.961-13.626zM3.333 26.667c-0.228 0-0.441-0.117-0.563-0.309s-0.138-0.435-0.040-0.641l10.667-22.667c0.133-0.282 0.444-0.435 0.749-0.367s0.521 0.338 0.521 0.651v22.667c0 0.368-0.299 0.667-0.667 0.667h-10.667z"></path>
</svg>
