<!-- Generated by IcoMoon.io -->
<svg version="1.1" xmlns="http://www.w3.org/2000/svg" width="32" height="32" viewBox="0 0 32 32">
<title>flip-horizontal-filled</title>
<path d="M29.174 26.208c-0.181 0.278-0.49 0.459-0.841 0.459h-10c-0.552 0-1-0.448-1-1v0-22c0-0 0-0 0-0 0-0.552 0.448-1 1-1 0.403 0 0.75 0.238 0.908 0.581l0.003 0.006 10 22c0.056 0.121 0.089 0.263 0.089 0.413 0 0.201-0.059 0.389-0.162 0.545l0.002-0.004zM19.333 8.283v16.383h7.447l-7.447-16.383zM3.333 26.667c-0.368-0-0.667-0.299-0.667-0.667 0-0.103 0.023-0.2 0.065-0.287l-0.002 0.004 10.667-22.667c0.109-0.228 0.338-0.383 0.603-0.383 0.368 0 0.666 0.298 0.667 0.666v0 22.667c0 0.368-0.298 0.667-0.667 0.667v0h-10.667z"></path>
</svg>
