<!-- Generated by IcoMoon.io -->
<svg version="1.1" xmlns="http://www.w3.org/2000/svg" width="32" height="32" viewBox="0 0 32 32">
<title>flip-vertical-filled</title>
<path d="M26.208 2.826c0.278 0.181 0.459 0.49 0.459 0.841v0 10c0 0.552-0.448 1-1 1v0h-22c-0 0-0 0-0 0-0.552 0-1-0.448-1-1 0-0.403 0.238-0.75 0.581-0.908l0.006-0.003 22-10c0.121-0.056 0.263-0.089 0.413-0.089 0.201 0 0.389 0.059 0.545 0.162l-0.004-0.002zM8.283 12.667h16.383v-7.447l-16.383 7.447zM26.667 28.667c0 0 0 0 0 0 0 0.368-0.298 0.667-0.667 0.667-0.103 0-0.201-0.023-0.288-0.065l0.004 0.002-22.667-10.667c-0.228-0.109-0.383-0.338-0.383-0.603 0-0.368 0.298-0.667 0.667-0.667 0 0 0 0 0 0h22.667c0.368 0 0.667 0.298 0.667 0.667v0 10.667z"></path>
</svg>
