<!-- Generated by IcoMoon.io -->
<svg version="1.1" xmlns="http://www.w3.org/2000/svg" width="32" height="32" viewBox="0 0 32 32">
<title>flip-vertical-filled</title>
<path d="M26.063 2.884c0.377 0.246 0.604 0.666 0.604 1.116v9.333c0 0.736-0.597 1.333-1.333 1.333h-21.333c-0.631 0-1.176-0.443-1.305-1.060s0.192-1.242 0.771-1.495l21.333-9.333c0.412-0.18 0.888-0.141 1.264 0.106zM10.374 12h13.626v-5.961l-13.626 5.961zM26.667 28.667c0 0.228-0.117 0.441-0.309 0.563s-0.435 0.137-0.641 0.040l-22.667-10.667c-0.282-0.133-0.435-0.444-0.367-0.749s0.338-0.521 0.651-0.521h22.667c0.368 0 0.667 0.299 0.667 0.667v10.667z"></path>
</svg>
