<!-- Generated by IcoMoon.io -->
<svg version="1.1" xmlns="http://www.w3.org/2000/svg" width="32" height="32" viewBox="0 0 32 32">
<title>flowchart-circle-filled</title>
<path d="M2.667 16c0-7.364 5.97-13.333 13.333-13.333s13.333 5.97 13.333 13.333c0 7.364-5.97 13.333-13.333 13.333s-13.333-5.97-13.333-13.333zM8.667 9.667v3.333c0 0.552 0.448 1 1 1h0.667v3.586l-2.374 2.374c-0.391 0.391-0.391 1.024 0 1.414l2.667 2.667c0.391 0.391 1.024 0.391 1.414 0l2.374-2.374h3.586v0.667c0 0.552 0.448 1 1 1h3.333c0.552 0 1-0.448 1-1v-3.333c0-0.552-0.448-1-1-1h-3.333c-0.552 0-1 0.448-1 1v0.667h-3.586l-2.081-2.081v-3.586h0.667c0.552 0 1-0.448 1-1v-3.333c0-0.552-0.448-1-1-1h-3.333c-0.552 0-1 0.448-1 1z"></path>
</svg>
