<!-- Generated by IcoMoon.io -->
<svg version="1.1" xmlns="http://www.w3.org/2000/svg" width="32" height="32" viewBox="0 0 32 32">
<title>flowchart-filled</title>
<path d="M3.996 6.994c0-1.657 1.343-3 3-3h3.343c1.657 0 3 1.343 3 3v3.343c0 1.657-1.343 3-3 3h-0.673v4.941c0.062 0.047 0.122 0.098 0.178 0.155l3.721 3.722c0.057 0.057 0.108 0.116 0.155 0.179h4.952v-0.667c0-1.657 1.343-3 3-3h3.325c1.657 0 3 1.343 3 3v3.339c0 1.657-1.343 3-3 3h-3.325c-1.657 0-3-1.343-3-3v-0.672h-4.953c-0.047 0.062-0.098 0.121-0.155 0.178l-3.721 3.723c-0.651 0.651-1.706 0.651-2.357 0l-3.723-3.723c-0.651-0.651-0.651-1.706 0-2.357l3.723-3.722c0.057-0.057 0.116-0.108 0.179-0.155v-4.941h-0.67c-1.657 0-3-1.343-3-3v-3.343z"></path>
</svg>
