<!-- Generated by IcoMoon.io -->
<svg version="1.1" xmlns="http://www.w3.org/2000/svg" width="32" height="32" viewBox="0 0 32 32">
<title>flow-filled</title>
<path d="M24 6.4c-0.001 0-0.001 0-0.002 0-2.371 0-4.341 1.719-4.73 3.979l-0.004 0.029c-1.872 0.119-3.386 1.509-3.696 3.311l-0.003 0.024-0.709 4.253c-0.183 1.063-1.044 1.879-2.114 1.991l-0.010 0.001c-0.402-2.279-2.367-3.988-4.731-3.988-2.651 0-4.8 2.149-4.8 4.8s2.149 4.8 4.8 4.8c2.371 0 4.34-1.719 4.73-3.979l0.004-0.029c1.873-0.118 3.388-1.508 3.697-3.311l0.003-0.024 0.709-4.253c0.183-1.063 1.044-1.879 2.114-1.991l0.010-0.001c0.402 2.279 2.367 3.987 4.731 3.987 2.651 0 4.8-2.149 4.8-4.8s-2.149-4.8-4.799-4.8h-0z"></path>
</svg>
