<!-- Generated by IcoMoon.io -->
<svg version="1.1" xmlns="http://www.w3.org/2000/svg" width="32" height="32" viewBox="0 0 32 32">
<title>fluent-filled</title>
<path d="M16.548 3.344l0.062-0.008 0.116 0 0.141 0.028 0.098 0.040 8 4c0.491 0.246 0.491 0.947 0 1.193l-6.807 3.404 6.807 3.404c0.493 0.246 0.491 0.951-0.003 1.194l-7.676 3.783 0.048 7.615c0.003 0.516-0.557 0.84-1.003 0.58l-8-4.667c-0.205-0.119-0.331-0.339-0.331-0.576l0.002-15.392 0.025-0.129 0.029-0.078 0.016-0.034c0.023-0.045 0.050-0.086 0.080-0.124l0.088-0.089 0.095-0.066 8.099-4.047 0.113-0.031z"></path>
</svg>
