<!-- Generated by IcoMoon.io -->
<svg version="1.1" xmlns="http://www.w3.org/2000/svg" width="32" height="32" viewBox="0 0 32 32">
<title>folder-open-vertical-filled</title>
<path d="M6.619 4.597c-0.138 0.293-0.219 0.636-0.219 0.999 0 0.002 0 0.003 0 0.005v-0 17.005c0 1.691 1.050 3.137 2.533 3.722l0.027 0.009 6.976 2.691c0.568 0.219 1.152 0.208 1.664 0.024v-18.542c0-0 0-0 0-0 0-1.012-0.627-1.878-1.513-2.231l-0.016-0.006-9.451-3.675zM7.894 3.376l8.755 3.405c1.505 0.597 2.55 2.040 2.55 3.728v0 15.091h2.4c1.325 0 2.4-1.075 2.4-2.4v0-4.701l1.528-6.114c0.048-0.192 0.072-0.386 0.072-0.582v-6.203c0-1.325-1.075-2.4-2.4-2.4v0h-14.4c-0.32 0-0.626 0.064-0.906 0.176z"></path>
</svg>
