<!-- Generated by IcoMoon.io -->
<svg version="1.1" xmlns="http://www.w3.org/2000/svg" width="32" height="32" viewBox="0 0 32 32">
<title>folder-swap-filled</title>
<path d="M18.428 8.667h7.905c0 0 0.001 0 0.001 0 1.51 0 2.76 1.116 2.969 2.568l0.002 0.016 0.021 0.211 0.007 0.205v11.037l-2.684-2.683c-0.422-0.423-1.006-0.684-1.651-0.684-1.289 0-2.333 1.045-2.333 2.333 0 0.362 0.083 0.705 0.23 1.011l-0.006-0.014h-3.109c0.139-0.29 0.22-0.63 0.22-0.99 0-1.289-1.045-2.333-2.333-2.333-0.644 0-1.227 0.261-1.65 0.683l-3.333 3.331c-0.423 0.422-0.684 1.006-0.684 1.651s0.261 1.228 0.684 1.651l0.007 0.007h-7.024c-0 0-0 0-0 0-1.585 0-2.882-1.229-2.992-2.785l-0.001-0.010-0.007-0.205v-9.668l8.276 0.001 0.261-0.012c0.547-0.049 1.043-0.238 1.46-0.53l-0.010 0.006 0.208-0.16 5.565-4.637zM10.943 5.333c0.613 0 1.211 0.188 1.712 0.536l0.208 0.16 2.804 2.335-4.084 3.404-0.113 0.081c-0.111 0.070-0.241 0.12-0.381 0.141l-0.005 0.001-0.141 0.009-8.275-0.001v-3.665c0-0 0-0 0-0 0-1.585 1.229-2.882 2.785-2.992l0.010-0.001 0.205-0.007h5.276zM18.373 22.387c0.181-0.181 0.294-0.431 0.294-0.708 0-0.552-0.448-1-1-1-0.276 0-0.526 0.112-0.707 0.292v0l-3.333 3.332c-0.181 0.181-0.292 0.431-0.292 0.707s0.112 0.526 0.292 0.707v0l3.333 3.329c0.182 0.188 0.437 0.305 0.719 0.305 0.552 0 1-0.448 1-1 0-0.282-0.117-0.538-0.305-0.719l-1.632-1.631h9.177l-1.625 1.621c-0.189 0.182-0.306 0.437-0.306 0.72 0 0.552 0.448 1 1 1 0.282 0 0.537-0.117 0.719-0.305l0-0 3.333-3.327c0.181-0.181 0.293-0.431 0.293-0.707s-0.112-0.526-0.293-0.707l-3.333-3.332c-0.181-0.181-0.431-0.292-0.707-0.292-0.552 0-1 0.448-1 1 0 0.277 0.112 0.527 0.294 0.708v0l1.623 1.621h-9.159l1.616-1.616z"></path>
</svg>
