<!-- Generated by IcoMoon.io -->
<svg version="1.1" xmlns="http://www.w3.org/2000/svg" width="32" height="32" viewBox="0 0 32 32">
<title>folder-open-filled</title>
<path d="M2.667 8.333c0-1.657 1.343-3 3-3v0h5.275c0.731 0 1.402 0.262 1.922 0.697l-0.005-0.004 3.175 2.64h7.633c1.657 0 3 1.343 3 3v0 1.003h-18.104c0 0 0 0 0 0-1.399 0-2.574 0.957-2.906 2.253l-0.005 0.021-2.564 10.267c0.057-0.228 0 0.007 0 0-0.268-0.439-0.427-0.97-0.427-1.538 0-0.002 0-0.004 0-0.006v0l0.005-15.332zM4.993 25.839c-0.013 0.048-0.020 0.104-0.020 0.161 0 0.368 0.298 0.667 0.666 0.667h18.987c0 0 0 0 0 0 1.088 0 2.002-0.745 2.26-1.752l0.004-0.016 2.351-9.4c0.013-0.049 0.020-0.105 0.020-0.163 0-0.368-0.298-0.667-0.667-0.667-0 0-0 0-0 0h-20.032c-0 0-0 0-0.001 0-0.466 0-0.858 0.319-0.969 0.75l-0.002 0.007-2.599 10.413z"></path>
</svg>
