<!-- Generated by IcoMoon.io -->
<svg version="1.1" xmlns="http://www.w3.org/2000/svg" width="32" height="32" viewBox="0 0 32 32">
<title>folder-arrow-right-filled</title>
<path d="M26.833 8.333c0 0 0 0 0 0 1.334 0 2.424 1.045 2.496 2.36l0 0.006 0.003 0.133v5.204c-1.405-1.264-3.273-2.037-5.322-2.037-0.004 0-0.008 0-0.012 0h0.001c-4.418 0-8 3.582-8 8 0 1.457 0.39 2.824 1.071 4.001l-11.904-0.001c-0 0-0 0-0 0-1.334 0-2.424-1.045-2.496-2.36l-0-0.006-0.003-0.133v-10.834l9.353-0.004c0.675-0.042 1.272-0.346 1.696-0.811l0.002-0.002 0.098-0.115 2.739-3.401h10.278zM24 15.333c3.682 0 6.667 2.985 6.667 6.667s-2.985 6.667-6.667 6.667-6.667-2.985-6.667-6.667 2.985-6.667 6.667-6.667zM24 18.423l-0.075 0.051-0.063 0.055-0.055 0.063c-0.087 0.112-0.14 0.254-0.14 0.409s0.053 0.297 0.141 0.41l-0.001-0.001 0.055 0.063 1.861 1.862-5.135 0.005c-0.306 0.037-0.547 0.278-0.584 0.581l-0 0.003-0.005 0.078 0.005 0.078c0.037 0.306 0.278 0.547 0.581 0.584l0.003 0 0.078 0.005h5.057l-1.861 1.862-0.055 0.063c-0.087 0.112-0.14 0.254-0.14 0.408 0 0.368 0.298 0.667 0.667 0.667 0.155 0 0.297-0.053 0.41-0.141l-0.001 0.001 0.063-0.055 3-3 0.049-0.056 0.033-0.043 0.030-0.050 0.021-0.040 0.029-0.075 0.015-0.052 0.013-0.078 0.005-0.078-0.002-0.051-0.011-0.083-0.020-0.073-0.014-0.040-0.036-0.075-0.030-0.050-0.029-0.039-0.025-0.031-0.028-0.029-3-3-0.063-0.055c-0.112-0.087-0.254-0.14-0.409-0.14-0.123 0-0.238 0.033-0.337 0.091l0.003-0.002zM11.373 6c0.555 0 1.093 0.185 1.53 0.523l0.117 0.096 1.629 1.425-2.131 2.645-0.063 0.070c-0.133 0.131-0.307 0.215-0.493 0.235l-0.093 0.005-9.203-0.001v-2.499c0-0 0-0 0-0 0-1.334 1.045-2.424 2.36-2.496l0.006-0 0.133-0.003h6.207z"></path>
</svg>
