<!-- Generated by IcoMoon.io -->
<svg version="1.1" xmlns="http://www.w3.org/2000/svg" width="32" height="32" viewBox="0 0 32 32">
<title>folder-link-filled</title>
<path d="M16.555 8.333h10.278c0 0 0 0 0 0 1.334 0 2.424 1.045 2.496 2.36l0 0.006 0.003 0.133v9.029c-0.977-1.142-2.407-1.862-4-1.862h-6.667c-2.945 0-5.333 2.463-5.333 5.5 0 0.9 0.21 1.75 0.581 2.5h-8.748c-0 0-0 0-0 0-1.334 0-2.424-1.045-2.496-2.36l-0-0.006-0.003-0.133v-10.834l9.353-0.004c0.675-0.042 1.272-0.346 1.696-0.811l0.002-0.002 0.098-0.115 2.739-3.401zM11.374 6c0.555 0 1.093 0.185 1.529 0.523l0.117 0.096 1.629 1.425-2.131 2.645-0.063 0.070c-0.133 0.131-0.307 0.215-0.493 0.235l-0.093 0.005-9.203-0.001v-2.499c0-0 0-0 0-0 0-1.334 1.045-2.424 2.36-2.496l0.006-0 0.133-0.003h6.207zM18.833 19.333c-2.301 0-4.167 1.865-4.167 4.167s1.865 4.167 4.167 4.167v0h1c0.46 0 0.833-0.373 0.833-0.833s-0.373-0.833-0.833-0.833v0h-1c-1.381 0-2.5-1.119-2.5-2.5s1.119-2.5 2.5-2.5v0h1c0.46 0 0.833-0.373 0.833-0.833s-0.373-0.833-0.833-0.833v0h-1zM25.167 19.333c2.301 0 4.167 1.865 4.167 4.167s-1.865 4.167-4.167 4.167v0h-1c-0.46 0-0.833-0.373-0.833-0.833s0.373-0.833 0.833-0.833v0h1c1.381 0 2.5-1.119 2.5-2.5s-1.119-2.5-2.5-2.5v0h-1c-0.46 0-0.833-0.373-0.833-0.833s0.373-0.833 0.833-0.833v0h1zM18 23.5c0-0.46 0.373-0.833 0.833-0.833h6.333c0.46 0 0.833 0.373 0.833 0.833s-0.373 0.833-0.833 0.833v0h-6.333c-0.46 0-0.833-0.373-0.833-0.833z"></path>
</svg>
