<!-- Generated by IcoMoon.io -->
<svg version="1.1" xmlns="http://www.w3.org/2000/svg" width="32" height="32" viewBox="0 0 32 32">
<title>folder-sync-filled</title>
<path d="M18.428 8.667h7.905c1.516 0 2.769 1.124 2.971 2.584l0.022 0.211 0.007 0.205v4.079c-1.557-1.494-3.671-2.413-6-2.413-4.787 0-8.667 3.88-8.667 8.667 0 1.718 0.5 3.32 1.362 4.667h-10.362c-1.588 0-2.888-1.234-2.993-2.795l-0.007-0.205v-9.668l8.276 0.001 0.262-0.011c0.521-0.046 1.021-0.227 1.45-0.525l0.209-0.159 5.565-4.638zM10.943 5.333c0.614 0 1.211 0.188 1.712 0.536l0.209 0.159 2.804 2.335-4.084 3.404-0.113 0.082c-0.118 0.073-0.25 0.121-0.388 0.14l-0.139 0.010-8.276-0.001v-3.665c0-1.588 1.234-2.888 2.795-2.993l0.205-0.007h5.276zM16 22c0 4.050 3.283 7.333 7.333 7.333s7.333-3.283 7.333-7.333c0-4.050-3.283-7.333-7.333-7.333s-7.333 3.283-7.333 7.333zM27.333 17.333c0.368 0 0.667 0.299 0.667 0.667v2.667c0 0.368-0.299 0.667-0.667 0.667h-2.667c-0.368 0-0.667-0.299-0.667-0.667s0.299-0.667 0.667-0.667h1.334c-0.609-0.811-1.577-1.333-2.667-1.333-1.111 0-2.096 0.543-2.702 1.381-0.216 0.298-0.633 0.365-0.931 0.149s-0.365-0.633-0.149-0.931c0.847-1.17 2.225-1.933 3.782-1.933 1.306 0 2.487 0.537 3.333 1.401v-0.734c0-0.368 0.299-0.667 0.667-0.667zM20 25.266v0.734c0 0.368-0.299 0.667-0.667 0.667s-0.667-0.299-0.667-0.667v-2.667c0-0.368 0.299-0.667 0.667-0.667h2.667c0.368 0 0.667 0.299 0.667 0.667s-0.299 0.667-0.667 0.667h-1.334c0.609 0.811 1.577 1.333 2.667 1.333 1.022 0 1.936-0.459 2.548-1.184 0.237-0.281 0.658-0.317 0.939-0.079s0.317 0.658 0.079 0.939c-0.855 1.013-2.136 1.657-3.567 1.657-1.306 0-2.487-0.537-3.333-1.401z"></path>
</svg>
