<!-- Generated by IcoMoon.io -->
<svg version="1.1" xmlns="http://www.w3.org/2000/svg" width="32" height="32" viewBox="0 0 32 32">
<title>folder-arrow-up-filled</title>
<path d="M26.833 8.333c0 0 0 0 0 0 1.334 0 2.424 1.045 2.496 2.36l0 0.006 0.003 0.133v4.913c-1.55-1.493-3.662-2.413-5.989-2.413-0.004 0-0.008 0-0.012 0h0.001c-4.787 0-8.667 3.88-8.667 8.667 0 1.443 0.353 2.804 0.977 4h-10.477c-0 0-0 0-0 0-1.334 0-2.424-1.045-2.496-2.36l-0-0.006-0.003-0.133v-10.834l9.353-0.004c0.675-0.042 1.272-0.346 1.696-0.811l0.002-0.002 0.098-0.115 2.739-3.401h10.278zM11.373 6c0.555 0 1.093 0.185 1.53 0.523l0.117 0.096 1.629 1.425-2.131 2.645-0.063 0.070c-0.133 0.131-0.307 0.215-0.493 0.235l-0.093 0.005-9.203-0.001v-2.499c0-0 0-0 0-0 0-1.334 1.045-2.424 2.36-2.496l0.006-0 0.133-0.003h6.207zM30.667 22c0 4.050-3.283 7.333-7.333 7.333s-7.333-3.283-7.333-7.333 3.283-7.333 7.333-7.333 7.333 3.283 7.333 7.333zM23.333 16.667c-0.184 0-0.351 0.075-0.471 0.195l-3.333 3.333c-0.116 0.12-0.187 0.283-0.187 0.463 0 0.368 0.298 0.667 0.667 0.667 0.18 0 0.343-0.071 0.463-0.187l2.195-2.195v7.724c0 0.368 0.298 0.667 0.667 0.667s0.667-0.298 0.667-0.667v0-7.724l2.195 2.195c0.12 0.116 0.283 0.187 0.463 0.187 0.368 0 0.667-0.298 0.667-0.667 0-0.18-0.071-0.343-0.187-0.463l-3.333-3.333c-0.121-0.121-0.287-0.195-0.471-0.195v0z"></path>
</svg>
