<!-- Generated by IcoMoon.io -->
<svg version="1.1" xmlns="http://www.w3.org/2000/svg" width="32" height="32" viewBox="0 0 32 32">
<title>folder-briefcase-filled</title>
<path d="M12.907 5.28l2.11 1.584-3.125 3.286c-0.146 0.154-0.351 0.249-0.579 0.25h-8.114v-1.6c0-2.209 1.791-4 4-4v0h4.267c0.518 0 1.024 0.168 1.44 0.48zM13.053 11.253l3.851-4.053h7.896c0 0 0 0 0.001 0 2.117 0 3.85 1.644 3.991 3.725l0.001 0.012 0.008 0.262v6.672c-0.501-0.176-1.040-0.272-1.6-0.272v-1.6c0-0.884-0.716-1.6-1.6-1.6v0h-6.4c-0.884 0-1.6 0.716-1.6 1.6v0 1.6c-2.651 0-4.8 2.149-4.8 4.8v0 4.8h-5.6c-2.209 0-4-1.791-4-4v0-11.2h8.112c0 0 0 0 0.001 0 0.684 0 1.302-0.287 1.739-0.746l0.001-0.001zM17.6 19.2c-1.767 0-3.2 1.433-3.2 3.2v0 4.8c0 1.767 1.433 3.2 3.2 3.2v0h9.6c1.767 0 3.2-1.433 3.2-3.2v0-4.8c0-1.767-1.433-3.2-3.2-3.2v0h-1.6v-2.4c0-0.442-0.358-0.8-0.8-0.8v0h-4.8c-0.442 0-0.8 0.358-0.8 0.8v0 2.4h-1.6zM20.8 19.2v-1.6h3.2v1.6h-3.2z"></path>
</svg>
