<!-- Generated by IcoMoon.io -->
<svg version="1.1" xmlns="http://www.w3.org/2000/svg" width="32" height="32" viewBox="0 0 32 32">
<title>folder-zip-filled</title>
<path d="M18.663 8.667h-0.235l-5.565 4.639-0.208 0.159c-0.408 0.286-0.903 0.475-1.439 0.523l-0.012 0.001-0.261 0.012-8.276-0.001v9.668l0.007 0.205c0.111 1.566 1.408 2.795 2.993 2.795 0 0 0 0 0 0h14.996v-4.669h-0.333c-0.552 0-1-0.448-1-1s0.448-1 1-1v0h0.333v-2h-0.333c-0.552 0-1-0.448-1-1s0.448-1 1-1v0h0.333v-1.337h-1c-0.552 0-1-0.448-1-1v0-4.993zM20.663 8.667h2v3.667h-2v-3.667zM24.663 8.667h1.671c0 0 0.001 0 0.001 0 1.51 0 2.76 1.116 2.969 2.568l0.002 0.016 0.021 0.211 0.007 0.205v12c0 0 0 0 0 0 0 1.585-1.229 2.882-2.785 2.992l-0.010 0.001-0.205 0.007h-3.671v-2.667h0.333c0.552 0 1-0.448 1-1s-0.448-1-1-1v0h-0.333v-2h0.333c0.552 0 1-0.448 1-1s-0.448-1-1-1v0h-0.333v-3.34h1c0.552 0 1-0.448 1-1v0-4.993zM12.653 5.869c-0.477-0.335-1.071-0.536-1.711-0.536h-5.276l-0.205 0.007c-1.566 0.111-2.795 1.408-2.795 2.993 0 0 0 0 0 0v-0 3.665l8.276 0.001 0.139-0.009c0.146-0.021 0.277-0.071 0.392-0.144l-0.004 0.002 0.113-0.080 4.084-3.405-2.804-2.336-0.208-0.159z"></path>
</svg>
