<!-- Generated by IcoMoon.io -->
<svg version="1.1" xmlns="http://www.w3.org/2000/svg" width="32" height="32" viewBox="0 0 32 32">
<title>folder-filled</title>
<path d="M18.428 8.667h7.905c1.516 0 2.769 1.124 2.971 2.584l0.022 0.211 0.007 0.205v12c0 1.588-1.234 2.887-2.795 2.993l-0.205 0.007h-20.667c-1.588 0-2.888-1.234-2.993-2.795l-0.007-0.205v-9.668l8.276 0.001 0.262-0.011c0.521-0.046 1.021-0.227 1.45-0.525l0.209-0.159 5.565-4.638zM10.943 5.333c0.614 0 1.211 0.188 1.712 0.536l0.209 0.159 2.804 2.335-4.084 3.404-0.113 0.082c-0.118 0.073-0.25 0.121-0.388 0.14l-0.139 0.010-8.276-0.001v-3.665c0-1.588 1.234-2.888 2.795-2.993l0.205-0.007h5.276z"></path>
</svg>
