<!-- Generated by IcoMoon.io -->
<svg version="1.1" xmlns="http://www.w3.org/2000/svg" width="32" height="32" viewBox="0 0 32 32">
<title>folder-link-filled</title>
<path d="M24.333 19.333c2.761 0 5 2.239 5 5 0 2.672-2.097 4.855-4.73 4.993l-0.265 0.007-1.333 0.006c-0.552 0.003-1.002-0.443-1.005-0.995-0.002-0.506 0.372-0.926 0.86-0.995l0.136-0.010 1.338-0.006c1.657 0 3-1.343 3-3 0-1.588-1.234-2.887-2.795-2.993l-0.205-0.007h-1.333c-0.552 0-1-0.448-1-1 0-0.506 0.376-0.925 0.864-0.991l0.136-0.009h1.333zM18.333 19.333c0.552 0 1 0.448 1 1 0 0.506-0.376 0.925-0.864 0.991l-0.136 0.009h-1.333c-1.657 0-3 1.343-3 3 0 1.588 1.234 2.887 2.795 2.993l0.205 0.007h1.333c0.552 0 1 0.448 1 1 0 0.506-0.376 0.925-0.864 0.991l-0.136 0.009h-1.333c-2.761 0-5-2.239-5-5 0-2.672 2.097-4.855 4.734-4.993l0.266-0.007h1.333zM26.333 8.667c1.516 0 2.769 1.124 2.971 2.584l0.022 0.211 0.007 0.205 0.001 8.78c-1.159-1.489-2.968-2.447-5.001-2.447h-7.333c-3.498 0-6.333 2.835-6.333 6.333 0 0.825 0.158 1.612 0.444 2.335l-5.444-0.002c-1.588 0-2.888-1.234-2.993-2.795l-0.007-0.205v-9.668l8.276 0.001 0.262-0.011c0.521-0.046 1.021-0.227 1.45-0.525l0.209-0.159 5.565-4.638h7.905zM24.333 23.333c0.552 0 1 0.448 1 1 0 0.506-0.376 0.925-0.864 0.991l-0.136 0.009h-7.333c-0.552 0-1-0.448-1-1 0-0.506 0.376-0.925 0.864-0.991l0.136-0.009h7.333zM10.943 5.333c0.614 0 1.211 0.188 1.712 0.536l0.209 0.159 2.804 2.335-4.084 3.404-0.113 0.082c-0.118 0.073-0.25 0.121-0.388 0.14l-0.139 0.010-8.276-0.001v-3.665c0-1.588 1.234-2.888 2.795-2.993l0.205-0.007h5.276z"></path>
</svg>
