<!-- Generated by IcoMoon.io -->
<svg version="1.1" xmlns="http://www.w3.org/2000/svg" width="32" height="32" viewBox="0 0 32 32">
<title>folder-arrow-left-filled</title>
<path d="M14.413 8h-0.062l-2.226-1.78c-0.169-0.137-0.388-0.22-0.625-0.22h-3.5c-2.209 0-4 1.791-4 4v0 1h7.113l3.3-3zM17.387 8l-5.214 4.74c-0.177 0.161-0.413 0.26-0.673 0.26-0 0-0 0-0 0h-7.5v9c0 2.209 1.791 4 4 4v0h6.512c-0.327-0.895-0.516-1.927-0.516-3.005 0-4.971 4.029-9 9-9 1.866 0 3.599 0.568 5.036 1.54l-0.032-0.020v-3.515c0-2.209-1.791-4-4-4v0h-6.613zM15.5 23c0 4.142 3.358 7.5 7.5 7.5s7.5-3.358 7.5-7.5v0c0-4.142-3.358-7.5-7.5-7.5s-7.5 3.358-7.5 7.5v0zM27.75 24h-7.69l2.72 2.72c0.147 0.137 0.239 0.332 0.239 0.549 0 0.414-0.336 0.75-0.75 0.75-0.216 0-0.411-0.092-0.548-0.238l-0-0-4-4c-0.136-0.136-0.219-0.323-0.219-0.53s0.084-0.394 0.219-0.53v0l4-4c0.137-0.147 0.332-0.239 0.549-0.239 0.414 0 0.75 0.336 0.75 0.75 0 0.216-0.092 0.411-0.238 0.548l-0 0-2.72 2.72h7.69c0.414 0 0.75 0.336 0.75 0.75s-0.336 0.75-0.75 0.75v0z"></path>
</svg>
