<!-- Generated by IcoMoon.io -->
<svg version="1.1" xmlns="http://www.w3.org/2000/svg" width="32" height="32" viewBox="0 0 32 32">
<title>folder-arrow-up-filled</title>
<path d="M26.333 8.667c1.516 0 2.769 1.124 2.971 2.584l0.022 0.211 0.007 0.205 0.001 4.081c-1.557-1.495-3.672-2.414-6.001-2.414-4.787 0-8.667 3.88-8.667 8.667 0 1.719 0.5 3.321 1.363 4.668l-10.363-0.002c-1.588 0-2.888-1.234-2.993-2.795l-0.007-0.205v-9.668l8.276 0.001 0.262-0.011c0.521-0.046 1.021-0.227 1.45-0.525l0.209-0.159 5.565-4.638h7.905z"></path>
<path d="M10.943 5.333c0.614 0 1.211 0.188 1.712 0.536l0.209 0.159 2.804 2.335-4.084 3.404-0.113 0.082c-0.118 0.073-0.25 0.121-0.388 0.14l-0.139 0.010-8.276-0.001v-3.665c0-1.588 1.234-2.888 2.795-2.993l0.205-0.007h5.276z"></path>
<path d="M30.667 22c0 4.050-3.283 7.333-7.333 7.333s-7.333-3.283-7.333-7.333c0-4.050 3.283-7.333 7.333-7.333s7.333 3.283 7.333 7.333zM22.667 19.609v6.391c0 0.368 0.299 0.667 0.667 0.667s0.667-0.299 0.667-0.667v-6.391l2.195 2.195c0.26 0.26 0.683 0.26 0.943 0s0.26-0.683 0-0.943l-3.333-3.333c-0.26-0.26-0.683-0.26-0.943 0l-3.333 3.333c-0.26 0.26-0.26 0.683 0 0.943s0.683 0.26 0.943 0l2.195-2.195z"></path>
</svg>
