<!-- Generated by IcoMoon.io -->
<svg version="1.1" xmlns="http://www.w3.org/2000/svg" width="32" height="32" viewBox="0 0 32 32">
<title>folder-globe-filled</title>
<path d="M15.018 6.864l-2.112-1.584c-0.396-0.3-0.897-0.48-1.44-0.48h-4.266c-2.209 0-4 1.791-4 4v0 1.6h8.112c0 0 0 0 0 0 0.228 0 0.434-0.096 0.58-0.249l0-0 3.125-3.286zM16.904 7.2l-3.851 4.053c-0.438 0.46-1.055 0.747-1.739 0.747h-8.114v11.2c0 2.209 1.791 4 4 4v0h8.16c-0.607-1.164-0.963-2.542-0.963-4.003 0-4.86 3.94-8.8 8.8-8.8 2.136 0 4.094 0.761 5.618 2.026l-0.014-0.012v-5.211l-0.008-0.262c-0.142-2.093-1.875-3.738-3.991-3.738-0 0-0 0-0.001 0h-7.896zM20.816 22.4c0.075-1.805 0.4-3.397 0.864-4.56 0.267-0.667 0.565-1.155 0.856-1.462 0.288-0.304 0.512-0.378 0.664-0.378 0.15 0 0.376 0.074 0.664 0.378 0.291 0.307 0.589 0.795 0.856 1.462 0.464 1.163 0.789 2.755 0.864 4.56h-4.768zM20.194 17.246c0.102-0.256 0.214-0.502 0.333-0.734-2.43 0.992-4.174 3.204-4.48 5.855l-0.003 0.033h3.171c0.075-1.974 0.429-3.776 0.979-5.154zM26.205 17.246c-0.121-0.304-0.232-0.546-0.355-0.781l0.022 0.047c2.43 0.992 4.174 3.204 4.48 5.855l0.003 0.033h-3.171c-0.075-1.974-0.427-3.776-0.979-5.154zM27.184 24h3.171c-0.309 2.684-2.053 4.896-4.435 5.871l-0.048 0.017c0.12-0.232 0.23-0.478 0.333-0.734 0.552-1.379 0.904-3.179 0.979-5.154zM23.864 30.022c-0.288 0.304-0.512 0.378-0.664 0.378s-0.376-0.074-0.664-0.378c-0.291-0.307-0.589-0.795-0.856-1.462-0.464-1.163-0.789-2.755-0.864-4.56h4.768c-0.075 1.805-0.4 3.397-0.864 4.56-0.267 0.667-0.565 1.155-0.856 1.461zM16.043 24c0.31 2.684 2.053 4.896 4.435 5.871l0.048 0.017c-0.1-0.188-0.212-0.43-0.312-0.677l-0.021-0.057c-0.55-1.379-0.904-3.179-0.979-5.154h-3.171z"></path>
</svg>
