<!-- Generated by IcoMoon.io -->
<svg version="1.1" xmlns="http://www.w3.org/2000/svg" width="32" height="32" viewBox="0 0 32 32">
<title>folder-person-filled</title>
<path d="M24.8 7.2h-7.896l-3.851 4.053-0.178 0.17c-0.356 0.307-0.809 0.511-1.306 0.564l-0.010 0.001-0.246 0.013h-8.112v11.2l0.008 0.262c0.142 2.093 1.875 3.738 3.991 3.738 0 0 0 0 0.001 0h10.461c-0.039-0.24-0.061-0.516-0.061-0.798 0-0.001 0-0.002 0-0.002v0c0-0 0-0 0-0.001 0-2.081 1.59-3.791 3.621-3.982l0.016-0.001c-0.763-0.846-1.23-1.973-1.23-3.209 0-2.651 2.149-4.8 4.8-4.8 1.658 0 3.12 0.841 3.983 2.12l0.011 0.017v-5.344l-0.008-0.262-0.026-0.259c-0.267-1.973-1.941-3.478-3.966-3.478-0 0-0 0-0.001 0h0zM12.691 5.136c-0.35-0.211-0.772-0.336-1.224-0.336h-4.267l-0.262 0.008c-2.093 0.142-3.738 1.875-3.738 3.991 0 0 0 0 0 0.001v-0 1.6h8.112l0.131-0.011c0.134-0.023 0.253-0.076 0.354-0.152l-0.002 0.001 0.098-0.088 3.123-3.286-2.109-1.584-0.216-0.144zM28 19.2c0 1.767-1.433 3.2-3.2 3.2s-3.2-1.433-3.2-3.2v0c0-1.767 1.433-3.2 3.2-3.2s3.2 1.433 3.2 3.2v0zM30.4 26.4c0 1.992-1.6 4-5.6 4s-5.6-2-5.6-4c0-1.325 1.075-2.4 2.4-2.4v0h6.4c1.325 0 2.4 1.075 2.4 2.4v0z"></path>
</svg>
