<!-- Generated by IcoMoon.io -->
<svg version="1.1" xmlns="http://www.w3.org/2000/svg" width="32" height="32" viewBox="0 0 32 32">
<title>folder-people-filled</title>
<path d="M18.428 8.667h7.905c0 0 0.001 0 0.001 0 1.51 0 2.76 1.116 2.969 2.568l0.002 0.016 0.021 0.211 0.007 0.205v6.067c-0.5-0.256-1.067-0.4-1.667-0.4-0.002 0-0.003 0-0.005 0-0.983 0-1.875 0.388-2.532 1.020l0.001-0.001c-0.578-1.761-2.207-3.009-4.128-3.009-2.39 0-4.329 1.934-4.336 4.323v0.001c0 1.175 0.467 2.24 1.227 3.021-1.901 0.211-3.227 1.936-3.227 3.812 0 0.056 0 0.111 0.003 0.167h-9.003c-0 0-0 0-0 0-1.585 0-2.882-1.229-2.992-2.785l-0.001-0.010-0.007-0.205v-9.668l8.276 0.001 0.261-0.012c0.547-0.049 1.043-0.238 1.46-0.53l-0.010 0.006 0.208-0.16 5.565-4.637zM10.943 5.333c0.613 0 1.211 0.188 1.712 0.536l0.208 0.16 2.804 2.335-4.084 3.404-0.113 0.081c-0.111 0.070-0.241 0.12-0.381 0.141l-0.005 0.001-0.141 0.009-8.275-0.001v-3.665c0-0 0-0 0-0 0-1.585 1.229-2.882 2.785-2.992l0.010-0.001 0.205-0.007h5.276zM21 22.667c1.657 0 3-1.343 3-3s-1.343-3-3-3v0c-1.657 0-3 1.343-3 3s1.343 3 3 3v0zM21 30.667c3.572 0 5-2.092 5-4.167 0-1.38-0.96-2.5-2.143-2.5h-5.715c-1.183 0-2.143 1.12-2.143 2.5 0 2.083 1.428 4.167 5 4.167zM30 21c0 1.289-1.045 2.333-2.333 2.333s-2.333-1.045-2.333-2.333v0c0-1.289 1.045-2.333 2.333-2.333s2.333 1.045 2.333 2.333v0zM26.555 29.333c0.539-0.88 0.776-1.873 0.776-2.833-0.001-0.668-0.159-1.298-0.438-1.858l0.011 0.024h2.053c0.947 0 1.715 0.784 1.715 1.751 0 1.453-1.143 2.916-4 2.916h-0.117z"></path>
</svg>
