<!-- Generated by IcoMoon.io -->
<svg version="1.1" xmlns="http://www.w3.org/2000/svg" width="32" height="32" viewBox="0 0 32 32">
<title>font-increase-filled</title>
<path d="M22.166 7.708c-0.575 0.46-1.414 0.367-1.874-0.208s-0.367-1.414 0.208-1.874l3.333-2.667c0.487-0.39 1.179-0.39 1.666 0l3.333 2.667c0.575 0.46 0.668 1.299 0.208 1.874s-1.299 0.668-1.874 0.208l-2.5-2-2.5 2zM17.226 6.142c-0.21-0.49-0.692-0.808-1.225-0.808s-1.015 0.318-1.225 0.808l-8 18.666c-0.29 0.677 0.023 1.461 0.7 1.751s1.461-0.023 1.751-0.7l2.511-5.859h8.527l2.511 5.859c0.29 0.677 1.074 0.99 1.751 0.7s0.99-1.074 0.7-1.751l-8-18.666zM16 10.052l3.121 7.282h-6.241l3.121-7.282z"></path>
</svg>
