<!-- Generated by IcoMoon.io -->
<svg version="1.1" xmlns="http://www.w3.org/2000/svg" width="32" height="32" viewBox="0 0 32 32">
<title>font-decrease-filled</title>
<path d="M22.167 2.96c-0.231-0.199-0.535-0.319-0.866-0.319-0.736 0-1.333 0.597-1.333 1.333 0 0.434 0.208 0.82 0.529 1.064l0.003 0.002 3.333 2.667c0.226 0.182 0.517 0.293 0.833 0.293s0.607-0.11 0.836-0.295l-0.003 0.002 3.333-2.667c0.287-0.246 0.468-0.609 0.468-1.014 0-0.736-0.597-1.333-1.333-1.333-0.302 0-0.581 0.1-0.804 0.27l0.003-0.002-2.5 2-2.5-2zM16 5.333c0 0 0.001 0 0.001 0 0.547 0 1.016 0.329 1.222 0.799l0.003 0.009 7.999 18.667c0.064 0.15 0.101 0.325 0.101 0.508 0 0.736-0.597 1.333-1.333 1.333-0.54 0-1.005-0.321-1.214-0.782l-0.003-0.008-2.511-5.859h-8.528l-2.509 5.859c-0.213 0.47-0.678 0.791-1.218 0.791-0.736 0-1.333-0.597-1.333-1.333 0-0.183 0.037-0.358 0.104-0.517l-0.003 0.009 8-18.667c0.209-0.479 0.678-0.807 1.224-0.808h0zM16 10.052l-3.12 7.28h6.24l-3.12-7.279z"></path>
</svg>
