<!-- Generated by IcoMoon.io -->
<svg version="1.1" xmlns="http://www.w3.org/2000/svg" width="32" height="32" viewBox="0 0 32 32">
<title>font-space-tracking-out-filled</title>
<path d="M23.338 18.731c-0.178 0.413-0.582 0.698-1.053 0.698s-0.874-0.284-1.050-0.69l-0.003-0.007-6.286-14.857c-0.057-0.132-0.090-0.285-0.090-0.446 0-0.631 0.512-1.143 1.143-1.143 0.47 0 0.874 0.284 1.050 0.69l0.003 0.007 5.234 12.37 5.231-12.37c0.18-0.41 0.582-0.69 1.049-0.69 0.631 0 1.143 0.512 1.143 1.143 0 0.158-0.032 0.308-0.090 0.445l0.003-0.007-6.286 14.857zM9.715 2.286c0.47 0 0.873 0.284 1.049 0.69l0.003 0.007 6.286 14.857c0.057 0.132 0.090 0.285 0.090 0.446 0 0.631-0.512 1.143-1.143 1.143-0.47 0-0.874-0.284-1.050-0.69l-0.003-0.007-1.638-3.871h-7.191l-1.638 3.871c-0.178 0.413-0.582 0.697-1.053 0.697-0.631 0-1.143-0.512-1.143-1.143 0-0.161 0.033-0.314 0.093-0.453l-0.003 0.007 6.286-14.857c0.178-0.413 0.582-0.697 1.052-0.697 0 0 0 0 0 0v0zM7.087 12.575h5.257l-2.63-6.213-2.629 6.213zM24.265 22.126c0.211-0.252 0.526-0.412 0.878-0.412 0.279 0 0.535 0.1 0.734 0.267l-0.002-0.001 3.429 2.857c0.252 0.211 0.412 0.526 0.412 0.878s-0.159 0.667-0.41 0.877l-0.002 0.001-3.429 2.857c-0.197 0.165-0.452 0.265-0.731 0.265-0.631 0-1.143-0.512-1.143-1.143 0-0.352 0.159-0.667 0.41-0.877l0.002-0.001 1.002-0.837h-18.83l1.003 0.837c0.252 0.211 0.412 0.526 0.412 0.878 0 0.631-0.512 1.143-1.143 1.143-0.279 0-0.535-0.1-0.733-0.266l0.002 0.001-3.429-2.857c-0.252-0.211-0.412-0.526-0.412-0.878s0.159-0.667 0.41-0.877l0.002-0.001 3.429-2.857c0.197-0.165 0.452-0.265 0.731-0.265 0.631 0 1.143 0.512 1.143 1.143 0 0.352-0.159 0.667-0.41 0.877l-0.002 0.001-1.003 0.835h18.83l-1.003-0.837c-0.252-0.211-0.411-0.526-0.411-0.878 0-0.279 0.1-0.535 0.266-0.733l-0.001 0.002z"></path>
</svg>
