<!-- Generated by IcoMoon.io -->
<svg version="1.1" xmlns="http://www.w3.org/2000/svg" width="32" height="32" viewBox="0 0 32 32">
<title>font-increase-filled</title>
<path d="M22.167 7.707c-0.22 0.167-0.499 0.267-0.801 0.267-0.736 0-1.333-0.597-1.333-1.333 0-0.405 0.181-0.768 0.466-1.012l0.002-0.002 3.333-2.667c0.226-0.182 0.517-0.292 0.833-0.292s0.607 0.11 0.836 0.294l-0.003-0.002 3.333 2.667c0.287 0.246 0.468 0.609 0.468 1.014 0 0.736-0.597 1.333-1.333 1.333-0.302 0-0.581-0.1-0.804-0.27l0.003 0.002-2.5-2-2.5 2zM17.225 6.141c-0.209-0.479-0.679-0.808-1.225-0.808s-1.016 0.329-1.222 0.799l-0.003 0.009-8 18.667c-0.064 0.15-0.101 0.325-0.101 0.508 0 0.736 0.597 1.333 1.333 1.333 0.54 0 1.005-0.321 1.214-0.782l0.003-0.008 2.512-5.859h8.527l2.511 5.859c0.213 0.47 0.678 0.791 1.218 0.791 0.736 0 1.333-0.597 1.333-1.333 0-0.183-0.037-0.358-0.104-0.517l0.003 0.009-8-18.667zM16 10.053l3.12 7.28h-6.24l3.12-7.28z"></path>
</svg>
