<!-- Generated by IcoMoon.io -->
<svg version="1.1" xmlns="http://www.w3.org/2000/svg" width="32" height="32" viewBox="0 0 32 32">
<title>font-space-tracking-in-filled</title>
<path d="M11.484 21.613l0.126 0.111 2.667 2.667c0.481 0.481 0.518 1.237 0.111 1.76l-0.111 0.126-2.667 2.667c-0.521 0.521-1.365 0.521-1.886 0-0.481-0.481-0.518-1.237-0.111-1.76l0.111-0.126 0.39-0.392-4.781 0.001c-0.736 0-1.333-0.597-1.333-1.333 0-0.684 0.515-1.247 1.178-1.324l0.155-0.009 4.78-0.001-0.389-0.389c-0.481-0.481-0.518-1.237-0.111-1.76l0.111-0.126c0.481-0.481 1.237-0.518 1.76-0.111zM20.516 21.613c0.479-0.373 1.155-0.373 1.634 0l0.126 0.111 0.111 0.126c0.373 0.479 0.373 1.155 0 1.634l-0.111 0.126-0.39 0.389 4.78 0.001c0.736 0 1.333 0.597 1.333 1.333 0 0.684-0.515 1.247-1.178 1.324l-0.155 0.009-4.782-0.001 0.391 0.392 0.111 0.126c0.407 0.523 0.37 1.279-0.111 1.76s-1.237 0.518-1.76 0.111l-0.126-0.111-2.667-2.667-0.111-0.126c-0.373-0.479-0.373-1.155 0-1.634l0.111-0.126 2.667-2.667 0.126-0.111zM12.158 3.262l0.085 0.138 0.071 0.154 5.739 14.667c0.268 0.686-0.070 1.459-0.756 1.728-0.637 0.249-1.349-0.025-1.663-0.614l-0.065-0.142-1.482-3.787h-6.032l-1.481 3.787c-0.249 0.637-0.934 0.974-1.579 0.804l-0.148-0.048c-0.637-0.249-0.974-0.934-0.804-1.579l0.048-0.148 5.739-14.667c0.4-1.022 1.747-1.12 2.328-0.292zM25.521 3.373c0.313-0.589 1.026-0.863 1.663-0.614s0.974 0.934 0.804 1.579l-0.048 0.148-5.739 14.667-0.071 0.154c-0.495 0.925-1.847 0.925-2.342 0l-0.071-0.154-5.739-14.667-0.048-0.148c-0.157-0.596 0.118-1.225 0.663-1.514l0.141-0.065 0.148-0.048c0.596-0.157 1.225 0.118 1.514 0.663l0.065 0.142 4.496 11.494 4.499-11.494 0.065-0.142zM11.072 7.697l-1.972 5.041h3.944l-1.972-5.041z"></path>
</svg>
