<!-- Generated by IcoMoon.io -->
<svg version="1.1" xmlns="http://www.w3.org/2000/svg" width="32" height="32" viewBox="0 0 32 32">
<title>food-pizza-filled</title>
<path d="M6.671 6.214c0-1.995 1.642-3.74 3.761-3.53 7.102 0.701 13.416 4.077 17.922 9.103 1.426 1.591 0.983 3.952-0.638 5.127l-0.564 0.409-0.484-0.721-0.011-0.014c-4.255-5.875-11.174-9.7-18.987-9.7h-1l0-0.674zM25.028 17.746l0.504 0.751c-1.943 1.409-4.061 2.945-5.263 3.82l-0.27 0.201v2.802c0 0.736-0.597 1.333-1.333 1.333s-1.333-0.597-1.333-1.333v-0.081c-0.041-0.331-0.324-0.588-0.661-0.588-0.368 0-0.667 0.298-0.667 0.667v2.004c0 0.736-0.597 1.333-1.333 1.333-0.691 0-1.259-0.526-1.327-1.199-0.62 0.447-1.284 0.926-1.92 1.385-1.985 1.433-4.759 0.015-4.758-2.434l0.004-17.519h1.001c7.138 0 13.461 3.489 17.357 8.858zM12.005 14.654c0.736 0 1.333-0.597 1.333-1.333s-0.597-1.333-1.333-1.333c-0.736 0-1.333 0.597-1.333 1.333s0.597 1.333 1.333 1.333zM17.339 18.651c0.736 0 1.333-0.597 1.333-1.333s-0.597-1.333-1.333-1.333c-0.736 0-1.333 0.597-1.333 1.333s0.597 1.333 1.333 1.333zM12.005 22.648c0.736 0 1.333-0.597 1.333-1.333s-0.597-1.333-1.333-1.333-1.333 0.597-1.333 1.333c0 0.736 0.597 1.333 1.333 1.333z"></path>
</svg>
