<!-- Generated by IcoMoon.io -->
<svg version="1.1" xmlns="http://www.w3.org/2000/svg" width="32" height="32" viewBox="0 0 32 32">
<title>food-egg-filled</title>
<path d="M15.333 16.333c0-0.552 0.448-1 1-1v0c0.552 0 1-0.448 1-1s-0.448-1-1-1v0c-1.657 0-3 1.343-3 3v0c0 0.552 0.448 1 1 1s1-0.448 1-1v0zM18 2.667c-4.156 0-7.749 2.433-9.713 5.992-0.32 0.58-0.812 1.084-1.408 1.487-2.545 1.723-4.212 4.761-4.212 8.188 0 5.261 3.956 9.667 9 9.667 0.432 0 0.857-0.032 1.273-0.096 0.267-0.043 0.575-0.067 0.888-0.067 0.921 0 1.793 0.212 2.569 0.59l-0.035-0.015c1.159 0.583 2.526 0.924 3.973 0.924 4.971 0 9-4.029 9-9 0-0.582-0.055-1.151-0.161-1.702l0.009 0.056c-0.051-0.244-0.079-0.525-0.079-0.812 0-0.222 0.017-0.44 0.051-0.653l-0.003 0.024c0.115-0.662 0.181-1.425 0.181-2.203 0-0.004 0-0.009 0-0.013v0.001c0-6.739-4.987-12.367-11.333-12.367zM23 16.667c0 3.498-2.836 6.333-6.333 6.333s-6.333-2.836-6.333-6.333v0c0-3.498 2.836-6.333 6.333-6.333s6.333 2.836 6.333 6.333v0z"></path>
</svg>
