<!-- Generated by IcoMoon.io -->
<svg version="1.1" xmlns="http://www.w3.org/2000/svg" width="32" height="32" viewBox="0 0 32 32">
<title>food-apple-filled</title>
<path d="M7.297 4.56c-0.109 1.848 0.52 3.735 1.89 5.177-2.503 0.72-4.494 2.85-4.881 5.621-0.438 3.141 0.208 6.337 1.83 9.061l0.468 0.786c0.017 0.029 0.036 0.057 0.056 0.085l1.888 2.542c1.702 2.292 5.055 2.505 7.034 0.447 0.229-0.238 0.61-0.238 0.839 0 1.979 2.058 5.332 1.844 7.034-0.447l1.888-2.542c0.020-0.027 0.039-0.055 0.056-0.085l0.468-0.786c1.623-2.725 2.268-5.921 1.83-9.061-0.545-3.908-4.281-6.542-8.145-5.741l-2.54 0.526c0.040-1.040 0.203-2.161 0.522-3.118 0.386-1.157 0.923-1.853 1.519-2.101 0.51-0.212 0.751-0.798 0.539-1.308s-0.798-0.751-1.308-0.538c-1.404 0.585-2.2 1.972-2.647 3.315-0.021 0.063-0.041 0.126-0.061 0.189-0.32-0.619-0.739-1.2-1.258-1.719-1.457-1.457-3.403-2.128-5.307-2.016-0.924 0.055-1.659 0.789-1.713 1.714zM11.197 14.98c-0.462 0.093-0.886 0.418-1.152 1.038-0.271 0.632-0.367 1.568-0.074 2.739 0.134 0.536-0.192 1.079-0.728 1.213s-1.079-0.192-1.213-0.728c-0.374-1.496-0.303-2.894 0.176-4.011 0.484-1.129 1.393-1.971 2.598-2.212 0.542-0.108 1.068 0.243 1.177 0.784s-0.243 1.068-0.784 1.177z"></path>
</svg>
