<!-- Generated by IcoMoon.io -->
<svg version="1.1" xmlns="http://www.w3.org/2000/svg" width="32" height="32" viewBox="0 0 32 32">
<title>food-egg-filled</title>
<path d="M15.333 16.333c0-0.552 0.448-1 1-1s1-0.448 1-1c0-0.552-0.448-1-1-1-1.657 0-3 1.343-3 3 0 0.552 0.448 1 1 1s1-0.448 1-1z"></path>
<path d="M18 2.667c-4.157 0-7.75 2.434-9.714 5.991-0.32 0.58-0.811 1.085-1.407 1.488-2.547 1.721-4.212 4.759-4.212 8.187 0 5.262 3.956 9.667 9 9.667 0.432 0 0.857-0.033 1.273-0.096 1.159-0.176 2.389-0.001 3.422 0.508 1.199 0.59 2.548 0.921 3.971 0.921 4.971 0 9-4.029 9-9 0-0.56-0.051-1.109-0.15-1.643-0.092-0.497-0.107-0.985-0.031-1.443 0.119-0.719 0.181-1.459 0.181-2.214 0-6.738-4.987-12.367-11.333-12.367zM23 16.667c0 3.498-2.835 6.333-6.333 6.333s-6.333-2.836-6.333-6.333c0-3.498 2.836-6.333 6.333-6.333s6.333 2.836 6.333 6.333z"></path>
</svg>
