<!-- Generated by IcoMoon.io -->
<svg version="1.1" xmlns="http://www.w3.org/2000/svg" width="32" height="32" viewBox="0 0 32 32">
<title>food-filled</title>
<path d="M24 4c0.681 0 1.243 0.511 1.323 1.171l0.001 0.006 0.009 0.156v21.333c-0.001 0.736-0.597 1.332-1.333 1.332-0.681 0-1.243-0.51-1.323-1.169l-0.001-0.006-0.009-0.156v-6.667h-1.333c-0.681-0-1.243-0.511-1.323-1.171l-0.001-0.006-0.009-0.156v-8c0-2.947 2-6.667 4-6.667zM16 4c0.681 0 1.243 0.511 1.323 1.171l0.001 0.006 0.009 0.156v6.667c-0 2.472-1.681 4.551-3.963 5.157l-0.037 0.008v9.501c-0.001 0.736-0.597 1.332-1.333 1.332-0.681 0-1.243-0.51-1.323-1.169l-0.001-0.006-0.009-0.156v-9.501c-2.23-0.59-3.868-2.533-3.993-4.877l-0.001-0.013-0.007-0.275v-6.667c0.001-0.736 0.597-1.332 1.333-1.332 0.681 0 1.243 0.51 1.323 1.169l0.001 0.006 0.009 0.156v6.667c0 0.982 0.531 1.84 1.321 2.303l0.013 0.007v-8.976c0.001-0.736 0.597-1.332 1.333-1.332 0.681 0 1.243 0.51 1.323 1.169l0.001 0.006 0.009 0.156 0.001 8.976c0.738-0.432 1.245-1.192 1.322-2.074l0.001-0.010 0.009-0.225v-6.667c0-0.736 0.597-1.333 1.333-1.333v0z"></path>
</svg>
