<!-- Generated by IcoMoon.io -->
<svg version="1.1" xmlns="http://www.w3.org/2000/svg" width="32" height="32" viewBox="0 0 32 32">
<title>food-cake-filled</title>
<path d="M16 9.333c2.286 0 2.667-1.787 2.667-3.259s-0.983-4.074-2.667-4.074c-1.683 0-2.667 2.601-2.667 4.074s0.381 3.259 2.667 3.259z"></path>
<path d="M4.667 13.667c0-1.657 1.343-3 3-3h16.667c1.657 0 3 1.343 3 3v1.167l-4.845 3.634c-0.538 0.403-1.266 0.444-1.845 0.103l-2.719-1.599c-1.194-0.703-2.683-0.672-3.847 0.079l-2.348 1.515c-0.548 0.353-1.251 0.355-1.8 0.004l-5.262-3.359v-1.544z"></path>
<path d="M4.667 17.583v7.083h-1c-0.552 0-1 0.448-1 1s0.448 1 1 1h24.667c0.552 0 1-0.448 1-1s-0.448-1-1-1h-1v-7.333l-3.645 2.734c-1.183 0.888-2.784 0.977-4.059 0.227l-2.719-1.599c-0.543-0.319-1.219-0.305-1.749 0.036l-2.348 1.515c-1.205 0.777-2.752 0.781-3.961 0.010l-4.186-2.672z"></path>
</svg>
