<!-- Generated by IcoMoon.io -->
<svg version="1.1" xmlns="http://www.w3.org/2000/svg" width="32" height="32" viewBox="0 0 32 32">
<title>food-chicken-leg-filled</title>
<path d="M30 10.5c0-0.003 0-0.006 0-0.009 0-4.694-3.806-8.5-8.5-8.5-4.155 0-7.614 2.982-8.354 6.922l-0.008 0.053c-0.777 2.366-1.467 3.695-1.86 4.342l-3.985 3.985c-0.181 0.181-0.293 0.431-0.293 0.707 0 0.552 0.448 1 1 1h0.108l-3.024 3.024c-1.748 0.213-3.089 1.688-3.089 3.476 0 1.129 0.535 2.133 1.364 2.773l0.008 0.006c0.135 0.104 0.257 0.225 0.361 0.36 0.646 0.832 1.647 1.362 2.771 1.362 1.791 0 3.268-1.346 3.475-3.081l0.002-0.017 3.023-3.025v0.122c0 0.552 0.448 1 1 1 0.276 0 0.526-0.112 0.707-0.293l3.986-3.986c0.654-0.395 1.992-1.087 4.372-1.865 3.974-0.765 6.935-4.215 6.935-8.356v0zM10.937 19h2.063v2.050l-4.683 4.684c-0.196 0.196-0.317 0.467-0.317 0.766v0c0 0 0 0 0 0 0 0.828-0.672 1.5-1.5 1.5-0.482 0-0.911-0.227-1.185-0.581l-0.003-0.003c-0.213-0.274-0.452-0.512-0.718-0.717l-0.009-0.007c-0.36-0.277-0.589-0.708-0.589-1.192 0-0.828 0.671-1.5 1.499-1.5h0c0.283 0 0.553-0.112 0.753-0.311l4.689-4.689z"></path>
</svg>
