<!-- Generated by IcoMoon.io -->
<svg version="1.1" xmlns="http://www.w3.org/2000/svg" width="32" height="32" viewBox="0 0 32 32">
<title>food-fish-filled</title>
<path d="M13.809 5.471c-1.335 1.335-2.107 3.113-2.549 4.897-0.444 1.791-0.575 3.663-0.573 5.265-0.002 0.237-0.193 0.428-0.429 0.432h-0c-2.361 0.009-5.355 0.293-7.776 1.449-0.909 0.435-1.289 1.331-1.101 2.18 0.177 0.795 0.82 1.447 1.689 1.659 1.060 0.259 2.289 0.593 3.359 0.973 0.535 0.189 1.013 0.384 1.403 0.579 0.403 0.201 0.649 0.373 0.771 0.495 0.121 0.123 0.293 0.368 0.495 0.771 0.195 0.389 0.389 0.867 0.579 1.4 0.379 1.069 0.712 2.297 0.971 3.357 0.212 0.869 0.864 1.512 1.66 1.689 0.849 0.188 1.745-0.191 2.18-1.1 1.156-2.419 1.44-5.405 1.453-7.764 0-0.233 0.196-0.428 0.431-0.428 1.603 0 3.475-0.131 5.267-0.575 1.787-0.444 3.565-1.216 4.901-2.553 1.493-1.492 2.224-3.477 2.556-5.407 0.333-1.936 0.279-3.901 0.127-5.457-0.229-2.413-2.133-4.317-4.526-4.544l-0.020-0.002c-1.555-0.152-3.52-0.205-5.456 0.127-1.929 0.332-3.915 1.063-5.408 2.556zM21.333 6.667c0.736 0 1.333 0.597 1.333 1.333s-0.597 1.333-1.333 1.333v0c-0.736 0-1.333-0.597-1.333-1.333s0.597-1.333 1.333-1.333v0z"></path>
</svg>
