<!-- Generated by IcoMoon.io -->
<svg version="1.1" xmlns="http://www.w3.org/2000/svg" width="32" height="32" viewBox="0 0 32 32">
<title>food-apple-filled</title>
<path d="M7.295 4.56c-0.008 0.123-0.012 0.267-0.012 0.412 0 1.848 0.725 3.526 1.907 4.765l-0.003-0.003c-2.576 0.756-4.494 2.922-4.876 5.585l-0.004 0.037c-0.086 0.58-0.134 1.25-0.134 1.931 0 2.632 0.729 5.093 1.996 7.194l-0.035-0.063 0.467 0.787c0.020 0.033 0.039 0.060 0.059 0.086l-0.002-0.002 1.888 2.541c0.851 1.137 2.193 1.864 3.706 1.864 1.306 0 2.486-0.543 3.326-1.415l0.001-0.001c0.106-0.11 0.255-0.179 0.42-0.179s0.314 0.069 0.42 0.179l0 0c0.841 0.874 2.021 1.416 3.327 1.416 1.513 0 2.856-0.728 3.698-1.852l0.009-0.012 1.888-2.543c0.018-0.024 0.036-0.051 0.053-0.080l0.003-0.004 0.468-0.787c1.234-2.039 1.964-4.502 1.964-7.136 0-0.679-0.048-1.346-0.142-1.998l0.009 0.075c-0.48-3.343-3.324-5.883-6.761-5.883-0.491 0-0.969 0.052-1.43 0.15l0.045-0.008-2.539 0.525c0.040-1.040 0.203-2.16 0.521-3.117 0.387-1.157 0.923-1.853 1.52-2.101 0.364-0.155 0.615-0.51 0.615-0.923 0-0.553-0.448-1-1-1-0.139 0-0.272 0.028-0.392 0.080l0.007-0.002c-1.403 0.585-2.2 1.973-2.647 3.315l-0.061 0.189c-0.346-0.66-0.765-1.227-1.257-1.72l0 0c-1.25-1.252-2.979-2.026-4.887-2.026-0.147 0-0.294 0.005-0.439 0.014l0.020-0.001c-0.923 0.055-1.658 0.788-1.714 1.706l-0 0.005zM11.196 14.98c-0.463 0.092-0.887 0.417-1.152 1.037-0.271 0.632-0.367 1.569-0.075 2.739 0.017 0.069 0.026 0.147 0.026 0.229 0 0.552-0.448 1-1 1-0.461 0-0.849-0.312-0.965-0.736l-0.002-0.007c-0.373-1.496-0.303-2.893 0.176-4.012 0.484-1.129 1.393-1.971 2.599-2.211 0.069-0.017 0.148-0.027 0.23-0.027 0.552 0 1 0.448 1 1 0 0.495-0.36 0.906-0.832 0.986l-0.006 0.001z"></path>
</svg>
