<!-- Generated by IcoMoon.io -->
<svg version="1.1" xmlns="http://www.w3.org/2000/svg" width="32" height="32" viewBox="0 0 32 32">
<title>food-cake-filled</title>
<path d="M16 9.333c2.285 0 2.667-1.787 2.667-3.259 0-1.475-0.984-4.075-2.667-4.075s-2.667 2.601-2.667 4.075c0 1.472 0.381 3.259 2.667 3.259zM4.667 13.667c0-1.657 1.343-3 3-3v0h16.667c1.657 0 3 1.343 3 3v0 1.167l-4.845 3.635c-0.275 0.208-0.623 0.333-1 0.333-0.312 0-0.604-0.086-0.853-0.235l0.008 0.004-2.72-1.6c-0.532-0.318-1.173-0.505-1.858-0.505-0.739 0-1.426 0.218-2.002 0.594l0.014-0.009-2.348 1.515c-0.255 0.167-0.568 0.266-0.903 0.266-0.333 0-0.643-0.098-0.903-0.266l0.007 0.004-5.263-3.359v-1.544zM4.667 17.584v7.083h-1c-0.552 0-1 0.448-1 1s0.448 1 1 1v0h24.667c0.552 0 1-0.448 1-1s-0.448-1-1-1v0h-1v-7.333l-3.645 2.733c-0.605 0.458-1.371 0.734-2.201 0.734-0.685 0-1.326-0.188-1.875-0.515l0.017 0.009-2.72-1.6c-0.242-0.145-0.533-0.23-0.845-0.23-0.336 0-0.648 0.099-0.91 0.27l0.006-0.004-2.347 1.515c-0.562 0.368-1.25 0.586-1.989 0.586-0.732 0-1.414-0.215-1.987-0.584l0.014 0.009-4.187-2.673z"></path>
</svg>
