<!-- Generated by IcoMoon.io -->
<svg version="1.1" xmlns="http://www.w3.org/2000/svg" width="32" height="32" viewBox="0 0 32 32">
<title>food-filled</title>
<path d="M24 4c0.684 0 1.247 0.515 1.324 1.178l0.009 0.155v21.333c0 0.736-0.597 1.333-1.333 1.333-0.684 0-1.247-0.515-1.324-1.178l-0.009-0.155v-6.667h-1.333c-0.684 0-1.247-0.515-1.324-1.178l-0.009-0.155v-8c0-2.946 2-6.667 4-6.667zM16 4c0.684 0 1.247 0.515 1.324 1.178l0.009 0.155v6.667c0 2.485-1.699 4.573-3.999 5.165l-0.001 9.502c0 0.736-0.597 1.333-1.333 1.333-0.684 0-1.247-0.515-1.324-1.178l-0.009-0.155 0-9.501c-2.215-0.57-3.874-2.527-3.993-4.891l-0.007-0.274v-6.667c0-0.736 0.597-1.333 1.333-1.333 0.684 0 1.247 0.515 1.324 1.178l0.009 0.155v6.667c0 0.987 0.536 1.849 1.333 2.31l0-8.977c0-0.736 0.597-1.333 1.333-1.333 0.684 0 1.247 0.515 1.324 1.178l0.009 0.155 0.001 8.976c0.735-0.426 1.248-1.192 1.323-2.084l0.009-0.225v-6.667c0-0.736 0.597-1.333 1.333-1.333z"></path>
</svg>
