<!-- Generated by IcoMoon.io -->
<svg version="1.1" xmlns="http://www.w3.org/2000/svg" width="32" height="32" viewBox="0 0 32 32">
<title>form-new-filled</title>
<path d="M11 13.336c-0.552 0-1 0.448-1 1s0.448 1 1 1c0.552 0 1-0.448 1-1s-0.448-1-1-1z"></path>
<path d="M10 21.667c0-0.552 0.448-1 1-1s1 0.448 1 1c0 0.552-0.448 1-1 1s-1-0.448-1-1z"></path>
<path d="M4 7.667c0-2.025 1.642-3.667 3.667-3.667h16.667c2.025 0 3.667 1.642 3.667 3.667v8.362c-1.187-0.76-2.571-1.238-4.058-1.341 0.041-0.11 0.064-0.228 0.064-0.352 0-0.552-0.448-1-1-1h-6.673c-0.552 0-1 0.448-1 1s0.448 1 1 1h3.655c-3.126 1.309-5.322 4.397-5.322 7.998 0 1.718 0.5 3.32 1.362 4.667h-8.362c-2.025 0-3.667-1.642-3.667-3.667v-16.667zM8 14.336c0 1.657 1.343 3 3 3s3-1.343 3-3c0-1.657-1.343-3-3-3s-3 1.343-3 3zM11 18.667c-1.657 0-3 1.343-3 3s1.343 3 3 3c1.657 0 3-1.343 3-3s-1.343-3-3-3zM9.007 10l13.999-0c0.552 0 1-0.448 1-1s-0.448-1-1-1l-13.999 0c-0.552 0-1 0.448-1 1s0.448 1 1 1z"></path>
<path d="M30.667 23.333c0-4.050-3.283-7.333-7.333-7.333s-7.333 3.283-7.333 7.333c0 4.050 3.283 7.333 7.333 7.333s7.333-3.283 7.333-7.333zM24.001 27.338c0 0.368-0.298 0.667-0.667 0.667s-0.667-0.298-0.667-0.667l-0.001-3.338h-3.339c-0.368 0-0.667-0.298-0.667-0.667s0.299-0.667 0.667-0.667h3.339l-0.001-3.334c0-0.368 0.299-0.667 0.667-0.667s0.667 0.298 0.667 0.667l0.001 3.334h3.337c0.368 0 0.667 0.299 0.667 0.667s-0.298 0.667-0.667 0.667h-3.337l0.001 3.338z"></path>
</svg>
