<!-- Generated by IcoMoon.io -->
<svg version="1.1" xmlns="http://www.w3.org/2000/svg" width="32" height="32" viewBox="0 0 32 32">
<title>fps-240-filled</title>
<path d="M2.865 8.237c0.147 0.060 0.317 0.096 0.496 0.096 0.546 0 1.016-0.329 1.221-0.799l0.003-0.009c0.081-0.143 0.18-0.266 0.295-0.371l0.001-0.001c0.227-0.209 0.661-0.487 1.473-0.487 0.567 0 0.995 0.173 1.259 0.396 0.244 0.207 0.407 0.5 0.407 0.937 0 0.732-0.229 1.153-0.563 1.499-0.403 0.417-0.963 0.737-1.763 1.196-0.727 0.416-1.667 0.955-2.395 1.773-0.781 0.879-1.273 2.017-1.273 3.532 0 0.736 0.596 1.333 1.332 1.333h5.993c0.736 0 1.333-0.597 1.333-1.333s-0.597-1.333-1.333-1.333v0h-4.364c0.088-0.16 0.191-0.3 0.303-0.427 0.396-0.444 0.955-0.788 1.727-1.231l0.137-0.077c0.68-0.387 1.545-0.88 2.22-1.581 0.791-0.82 1.311-1.896 1.311-3.351 0-1.22-0.507-2.259-1.349-2.973-0.82-0.693-1.889-1.027-2.98-1.027-1.517 0-2.581 0.556-3.268 1.18-0.355 0.324-0.651 0.705-0.876 1.129l-0.011 0.023c-0.017 0.031-0.039 0.079-0.060 0.127l-0.007 0.017-0.007 0.016-0.003 0.007v0.003l-0.001 0.003s-0.279 0.693 0 0c-0.060 0.147-0.096 0.317-0.096 0.496 0 0.558 0.342 1.035 0.828 1.234l0.009 0.003zM21.341 8c0-2.209 1.789-4 3.996-4s3.996 1.79 3.996 3.997c0 0.001 0 0.002 0 0.003v-0 5.333c0 2.209-1.789 4-3.996 4s-3.996-1.79-3.996-3.997c0-0.001 0-0.002 0-0.003v0-5.333zM25.337 6.667c-0.736 0.001-1.332 0.597-1.332 1.333v0 5.333c-0.001 0.018-0.001 0.039-0.001 0.060 0 0.736 0.597 1.333 1.333 1.333s1.333-0.597 1.333-1.333c0-0.021-0-0.042-0.001-0.063l0 0.003v-5.333c0-0.736-0.596-1.333-1.332-1.333h-0zM6.357 20c-0.552 0-1 0.448-1 1v0 7.308c-0 0.011-0.001 0.024-0.001 0.037 0 0.552 0.448 1 1 1s1-0.448 1-1c0-0.013-0-0.026-0.001-0.038l0 0.002v-2.304h2.331c0.552 0 1-0.448 1-1s-0.448-1-1-1v0h-2.331v-2.004h2.997c0.552 0 1-0.448 1-1s-0.448-1-1-1v0h-3.996zM12.684 21c0 0 0 0 0 0 0-0.552 0.447-0.999 0.999-1h1.997c1.656 0.001 2.997 1.343 2.997 2.999 0 0 0 0.001 0 0.001v-0c0 0 0 0.001 0 0.001 0 1.655-1.341 2.997-2.996 2.999h-1v2.333c0.001 0.015 0.001 0.033 0.001 0.052 0 0.552-0.448 1-1 1s-1-0.448-1-1c0-0.018 0-0.036 0.001-0.054l-0 0.003v-7.333zM14.68 24h1c0.552 0 1-0.448 1-1s-0.448-1-1-1v0h-1v2zM23.172 20c-1.564 0.001-2.831 1.268-2.831 2.832 0 0 0 0.001 0 0.001v-0c0 1.565 1.267 2.833 2.831 2.833h0.667c0.46 0 0.833 0.373 0.833 0.833s-0.373 0.833-0.833 0.833v0h-0.833c-0.368 0-0.667-0.298-0.667-0.667v0c0.001-0.015 0.001-0.033 0.001-0.052 0-0.552-0.448-1-1-1s-1 0.448-1 1c0 0.018 0 0.036 0.001 0.054l-0-0.003c0 1.473 1.192 2.667 2.664 2.667h0.832c1.564-0.001 2.831-1.268 2.831-2.832 0-0 0-0.001 0-0.001v0c0-1.565-1.267-2.833-2.831-2.833h-0.667c-0.46 0-0.833-0.373-0.833-0.833s0.373-0.833 0.833-0.833v0h0.833c0.368 0 0.667 0.298 0.667 0.667v0c-0.001 0.015-0.001 0.033-0.001 0.052 0 0.552 0.448 1 1 1s1-0.448 1-1c0-0.018-0-0.036-0.001-0.054l0 0.003c0-1.473-1.192-2.667-2.664-2.667h-0.832zM20.009 5.325c0.001-0.015 0.001-0.033 0.001-0.051 0-0.736-0.597-1.333-1.333-1.333s-1.333 0.597-1.333 1.333c0 0.024 0.001 0.047 0.002 0.070l-0-0.003 0.024 3.992h-2.689v-4c0.001-0.018 0.001-0.039 0.001-0.060 0-0.736-0.597-1.333-1.333-1.333s-1.333 0.597-1.333 1.333c0 0.021 0 0.042 0.001 0.063l-0-0.003v5.333c0 0.736 0.597 1.333 1.333 1.333v0h4.027v4c-0.001 0.018-0.001 0.039-0.001 0.060 0 0.736 0.597 1.333 1.333 1.333s1.333-0.597 1.333-1.333c0-0.021-0-0.042-0.001-0.063l0 0.003v-6.127c-0-0.044-0.003-0.086-0.007-0.128l0 0.006-0.025-4.425z"></path>
</svg>
