<!-- Generated by IcoMoon.io -->
<svg version="1.1" xmlns="http://www.w3.org/2000/svg" width="32" height="32" viewBox="0 0 32 32">
<title>fps-960-filled</title>
<path d="M15.667 20c1.657 0 3 1.343 3 3 0 1.588-1.234 2.887-2.795 2.993l-0.205 0.007h-1v2.333c0 0.506-0.376 0.925-0.864 0.991l-0.136 0.009c-0.506 0-0.925-0.376-0.991-0.864l-0.009-0.136v-7.333c0-0.506 0.376-0.925 0.864-0.991l0.136-0.009h2zM24 20c1.473 0 2.667 1.194 2.667 2.667 0 0.552-0.448 1-1 1-0.506 0-0.925-0.376-0.991-0.864l-0.009-0.136c0-0.327-0.236-0.599-0.547-0.656l-0.12-0.011h-0.833c-0.46 0-0.833 0.373-0.833 0.833 0 0.418 0.308 0.765 0.71 0.824l0.123 0.009h0.667c1.565 0 2.833 1.269 2.833 2.833 0 1.497-1.161 2.723-2.631 2.826l-0.202 0.007h-0.833c-1.473 0-2.667-1.194-2.667-2.667 0-0.552 0.448-1 1-1 0.506 0 0.925 0.376 0.991 0.864l0.009 0.136c0 0.327 0.236 0.599 0.547 0.656l0.12 0.011h0.833c0.46 0 0.833-0.373 0.833-0.833 0-0.418-0.308-0.765-0.71-0.824l-0.123-0.009h-0.667c-1.565 0-2.833-1.269-2.833-2.833 0-1.497 1.161-2.723 2.631-2.826l0.202-0.007h0.833zM10.333 20c0.552 0 1 0.448 1 1 0 0.506-0.376 0.925-0.864 0.991l-0.136 0.009-3-0.001v2.004l2.333 0.001c0.552 0 1 0.448 1 1 0 0.506-0.376 0.925-0.864 0.991l-0.136 0.009-2.333-0.001v2.305c0 0.506-0.376 0.925-0.864 0.991l-0.136 0.009c-0.506 0-0.925-0.376-0.991-0.864l-0.009-0.136v-7.308c0-0.506 0.376-0.925 0.864-0.991l0.136-0.009h4zM15.667 22h-1v2h1c0.552 0 1-0.448 1-1 0-0.506-0.376-0.925-0.864-0.991l-0.136-0.009zM6.667 4c2.209 0 4 1.791 4 4l-0.002 0.14 0.002 0.066v5.127c0 2.13-1.665 3.872-3.765 3.993l-0.235 0.007h-0.331c-2.026 0-3.669-1.642-3.669-3.669 0-0.736 0.597-1.333 1.333-1.333 0.684 0 1.247 0.515 1.324 1.178l0.009 0.155c0 0.507 0.377 0.926 0.866 0.993l0.136 0.009h0.331c0.684 0 1.247-0.515 1.324-1.178l0.009-0.155-0-1.561c-0.417 0.147-0.866 0.228-1.333 0.228-2.209 0-4-1.791-4-4s1.791-4 4-4zM16.335 4c2.026 0 3.669 1.642 3.669 3.669 0 0.736-0.597 1.333-1.333 1.333-0.684 0-1.247-0.515-1.324-1.178l-0.009-0.155c0-0.507-0.377-0.926-0.866-0.993l-0.136-0.009h-0.331c-0.684 0-1.247 0.515-1.324 1.178l-0.009 0.155 0 1.561c0.417-0.147 0.866-0.228 1.333-0.228 2.209 0 4 1.791 4 4s-1.791 4-4 4c-2.209 0-4-1.791-4-4l0.002-0.141-0.002-0.066v-5.127c0-2.13 1.665-3.872 3.765-3.993l0.235-0.007h0.331zM25.333 4c2.13 0 3.872 1.665 3.993 3.765l0.007 0.235v5.333c0 2.209-1.791 4-4 4-2.13 0-3.872-1.665-3.993-3.765l-0.007-0.235v-5.333c0-2.209 1.791-4 4-4zM16.003 12c-0.736 0-1.333 0.597-1.333 1.333s0.597 1.333 1.333 1.333c0.736 0 1.333-0.597 1.333-1.333s-0.597-1.333-1.333-1.333zM25.333 6.667c-0.684 0-1.247 0.515-1.324 1.178l-0.009 0.155v5.333c0 0.736 0.597 1.333 1.333 1.333 0.684 0 1.247-0.515 1.324-1.178l0.009-0.155v-5.333c0-0.736-0.597-1.333-1.333-1.333zM6.667 6.667c-0.736 0-1.333 0.597-1.333 1.333s0.597 1.333 1.333 1.333c0.736 0 1.333-0.597 1.333-1.333s-0.597-1.333-1.333-1.333z"></path>
</svg>
