<!-- Generated by IcoMoon.io -->
<svg version="1.1" xmlns="http://www.w3.org/2000/svg" width="32" height="32" viewBox="0 0 32 32">
<title>fps-60-filled</title>
<path d="M20 4c-2.209 0-4 1.791-4 4v0 5.333c0 2.209 1.791 4 4 4s4-1.791 4-4v0-5.333c0-2.209-1.791-4-4-4v0zM22 13.333c0 1.105-0.895 2-2 2s-2-0.895-2-2v0-5.333c0-1.105 0.895-2 2-2s2 0.895 2 2v0 5.333zM5.333 20.833c0-0.46 0.373-0.833 0.833-0.833h4.337c0.46 0 0.833 0.373 0.833 0.833s-0.373 0.833-0.833 0.833v0h-3.504v2.333h2.833c0.46 0 0.833 0.373 0.833 0.833s-0.373 0.833-0.833 0.833v0h-2.833v2.86c0 0.46-0.373 0.833-0.833 0.833s-0.833-0.373-0.833-0.833v0-7.693zM13.833 20c-0.46 0-0.833 0.373-0.833 0.833v7.693c0 0.46 0.373 0.833 0.833 0.833s0.833-0.373 0.833-0.833v0-2.86h1.5c1.565 0 2.833-1.269 2.833-2.833s-1.269-2.833-2.833-2.833v0h-2.333zM16.167 24h-1.5v-2.333h1.5c0.644 0 1.167 0.522 1.167 1.167s-0.522 1.167-1.167 1.167v0zM22 22.771c0-0.61 0.494-1.104 1.104-1.104h1.063c0.46 0 0.833 0.373 0.833 0.833s0.373 0.833 0.833 0.833 0.833-0.373 0.833-0.833v0c0-1.381-1.119-2.5-2.5-2.5v0h-1.063c-0.013-0-0.028-0-0.043-0-1.53 0-2.771 1.24-2.771 2.771s1.24 2.771 2.771 2.771c0.015 0 0.030-0 0.045-0l-0.002 0h0.833c0.576 0.015 1.037 0.485 1.037 1.063s-0.461 1.048-1.035 1.063l-0.001 0h-1.104c-0.46 0-0.833-0.373-0.833-0.833s-0.373-0.833-0.833-0.833-0.833 0.373-0.833 0.833v0c0 1.381 1.119 2.5 2.5 2.5v0h1.104c1.508 0 2.73-1.222 2.73-2.73s-1.222-2.73-2.73-2.73v0h-0.833c-0.61 0-1.104-0.494-1.104-1.103v-0zM8.667 8c0-1.105 0.895-2 2-2s2 0.895 2 2v0c0 0.552 0.448 1 1 1s1-0.448 1-1v0c0-2.209-1.791-4-4-4s-4 1.791-4 4v0 5.5c0 0.056 0.005 0.111 0.013 0.165 0.177 2.061 1.894 3.668 3.986 3.668 2.209 0 4-1.791 4-4s-1.791-4-4-4c-0.736 0-1.426 0.199-2.018 0.546l0.019-0.010v-1.869zM8.667 13.333c0-1.105 0.895-2 2-2s2 0.895 2 2v0c0 1.105-0.895 2-2 2s-2-0.895-2-2v0z"></path>
</svg>
