<!-- Generated by IcoMoon.io -->
<svg version="1.1" xmlns="http://www.w3.org/2000/svg" width="32" height="32" viewBox="0 0 32 32">
<title>fps-960-filled</title>
<path d="M15.667 20c0.002 0 0.004 0 0.006 0 1.657 0 3 1.343 3 3 0 1.587-1.232 2.885-2.791 2.993l-0.009 0-0.205 0.007h-1v2.333c-0 0.504-0.373 0.921-0.859 0.99l-0.005 0.001-0.136 0.009c-0.504-0-0.921-0.373-0.99-0.859l-0.001-0.005-0.009-0.136v-7.333c0-0.504 0.373-0.921 0.859-0.99l0.005-0.001 0.136-0.009h2zM24 20c1.473 0 2.667 1.194 2.667 2.667v0c-0 0.552-0.448 1-1 1-0.504 0-0.921-0.373-0.99-0.858l-0.001-0.005-0.009-0.136c0-0 0-0 0-0 0-0.326-0.234-0.597-0.543-0.655l-0.004-0.001-0.12-0.011h-0.833c-0.459 0.001-0.832 0.374-0.832 0.833 0 0.416 0.305 0.761 0.704 0.823l0.005 0.001 0.123 0.009h0.667c0.003 0 0.006 0 0.009 0 1.565 0 2.833 1.269 2.833 2.833 0 1.497-1.16 2.722-2.63 2.826l-0.009 0-0.203 0.007h-0.833c-1.473 0-2.667-1.194-2.667-2.667v0c0-0.552 0.448-1 1-1 0.504 0 0.921 0.373 0.99 0.858l0.001 0.005 0.009 0.136c0 0 0 0 0 0 0 0.326 0.234 0.597 0.543 0.655l0.004 0.001 0.12 0.011h0.833c0.459-0.001 0.832-0.374 0.832-0.833 0-0.416-0.305-0.761-0.704-0.823l-0.005-0.001-0.123-0.009h-0.667c-0.003 0-0.006 0-0.009 0-1.565 0-2.833-1.269-2.833-2.833 0-1.497 1.16-2.722 2.63-2.826l0.009-0 0.203-0.007h0.833zM10.333 20c0.552 0 1 0.448 1 1 0 0.504-0.373 0.921-0.858 0.99l-0.005 0.001-0.136 0.009h-3v2.003h2.333c0.003-0 0.007-0 0.010-0 0.552 0 1 0.448 1 1 0 0.508-0.379 0.927-0.869 0.991l-0.005 0.001-0.136 0.009h-2.333v2.304c-0 0.504-0.373 0.921-0.859 0.99l-0.005 0.001-0.136 0.009c-0.504-0-0.921-0.373-0.99-0.859l-0.001-0.005-0.009-0.136v-7.308c0-0.504 0.373-0.921 0.859-0.99l0.005-0.001 0.136-0.009h4zM15.667 22h-1v2h1c0.552-0 1-0.448 1-1 0-0.504-0.373-0.921-0.858-0.99l-0.005-0.001-0.136-0.009zM6.667 4c2.209 0 4 1.791 4 4v0l-0.003 0.14 0.003 0.067v5.127c0 0 0 0 0 0 0 2.127-1.659 3.866-3.754 3.993l-0.011 0.001-0.235 0.007h-0.332c-2.026 0-3.668-1.642-3.668-3.668v0c0.001-0.736 0.597-1.332 1.333-1.332 0.681 0 1.243 0.51 1.323 1.169l0.001 0.006 0.009 0.156c0 0.507 0.377 0.925 0.867 0.992l0.133 0.009h0.333c0.681-0 1.243-0.511 1.323-1.171l0.001-0.006 0.009-0.156v-1.56c-0.395 0.144-0.852 0.227-1.327 0.227-2.209 0-4-1.791-4-4 0-2.207 1.787-3.997 3.994-4h0zM16.335 4c0 0 0.001 0 0.001 0 2.026 0 3.668 1.642 3.668 3.668v0c0 0.003 0 0.007 0 0.011 0 0.736-0.597 1.333-1.333 1.333-0.685 0-1.25-0.517-1.325-1.182l-0.001-0.006-0.008-0.156c-0.001-0.505-0.375-0.923-0.861-0.991l-0.005-0.001-0.136-0.009h-0.331c-0 0-0.001 0-0.001 0-0.681 0-1.243 0.511-1.324 1.171l-0.001 0.006-0.008 0.156v1.56c0.397-0.145 0.855-0.229 1.333-0.229 2.209 0 4 1.791 4 4s-1.791 4-4 4c-2.208 0-3.999-1.79-4-3.998v-0l0.001-0.14-0.001-0.067v-5.127c0-0 0-0 0-0 0-2.126 1.659-3.865 3.753-3.992l0.011-0.001 0.236-0.007h0.331zM25.333 4c0 0 0 0 0 0 2.127 0 3.866 1.659 3.993 3.754l0.001 0.011 0.007 0.235v5.333c0 0.001 0 0.002 0 0.004 0 2.209-1.791 4-4 4-2.128 0-3.868-1.662-3.993-3.758l-0.001-0.011-0.007-0.235v-5.333c0-2.209 1.791-4 4-4v0zM16.004 12c-0.736 0-1.333 0.597-1.333 1.333s0.597 1.333 1.333 1.333v0c0.736 0 1.333-0.597 1.333-1.333s-0.597-1.333-1.333-1.333v0zM25.333 6.667c-0.681 0-1.243 0.511-1.323 1.171l-0.001 0.006-0.009 0.156v5.333c0.001 0.736 0.597 1.332 1.333 1.332 0.681 0 1.243-0.51 1.323-1.169l0.001-0.006 0.009-0.156v-5.333c0-0.736-0.597-1.333-1.333-1.333v0zM6.667 6.667c-0.736 0-1.333 0.597-1.333 1.333s0.597 1.333 1.333 1.333v0c0.736 0 1.333-0.597 1.333-1.333s-0.597-1.333-1.333-1.333v0z"></path>
</svg>
