<!-- Generated by IcoMoon.io -->
<svg version="1.1" xmlns="http://www.w3.org/2000/svg" width="32" height="32" viewBox="0 0 32 32">
<title>fps-30-filled</title>
<path d="M10.667 9.667c1.186 0 2-0.9 2-1.833s-0.813-1.833-2-1.833c-0.88 0-1.583 0.509-1.866 1.252-0.149 0.395-0.476 0.748-0.898 0.748-0.689 0-1.28-0.558-1.080-1.217 0.494-1.62 2.089-2.783 3.844-2.783 2.209 0 4 1.716 4 3.833 0 1.123-0.503 2.132-1.306 2.833 0.803 0.701 1.307 1.711 1.307 2.833 0 2.117-1.791 3.833-4 3.833-1.757 0-3.351-1.163-3.844-2.783-0.201-0.66 0.39-1.217 1.080-1.217 0.421 0 0.748 0.353 0.897 0.748 0.283 0.743 0.985 1.252 1.867 1.252 1.185 0 2-0.9 2-1.833s-0.816-1.833-2.001-1.833c-0.552 0-1-0.448-1-1s0.448-1 1-1v0zM16 8c0-2.209 1.791-4 4-4s4 1.791 4 4v0 5.333c0 2.209-1.791 4-4 4s-4-1.791-4-4v0-5.333zM18 13.333c0 1.105 0.895 2 2 2s2-0.895 2-2v0-5.333c0-1.105-0.895-2-2-2s-2 0.895-2 2v0 5.333zM6.167 20c-0.46 0-0.833 0.373-0.833 0.833v7.693c0 0.46 0.373 0.833 0.833 0.833s0.833-0.373 0.833-0.833v0-2.86h2.833c0.46 0 0.833-0.373 0.833-0.833s-0.373-0.833-0.833-0.833v0h-2.833v-2.333h3.504c0.46 0 0.833-0.373 0.833-0.833s-0.373-0.833-0.833-0.833v0h-4.337zM13.833 20c-0.46 0-0.833 0.373-0.833 0.833v7.693c0 0.46 0.373 0.833 0.833 0.833s0.833-0.373 0.833-0.833v0-2.86h1.5c1.565 0 2.833-1.269 2.833-2.833s-1.269-2.833-2.833-2.833v0h-2.333zM16.167 24h-1.5v-2.333h1.5c0.644 0 1.167 0.522 1.167 1.167s-0.522 1.167-1.167 1.167v0zM23.104 21.667c-0.008-0-0.018-0-0.027-0-0.61 0-1.104 0.494-1.104 1.104s0.494 1.104 1.104 1.104c0.010 0 0.019-0 0.029-0l-0.001 0h0.833c1.508 0 2.73 1.222 2.73 2.73s-1.222 2.73-2.73 2.73v0h-1.104c-1.381 0-2.5-1.119-2.5-2.5v0c0-0.46 0.373-0.833 0.833-0.833s0.833 0.373 0.833 0.833v0c0 0.46 0.373 0.833 0.833 0.833h1.104c0.587 0 1.063-0.476 1.063-1.063s-0.476-1.063-1.063-1.063v0h-0.833c-0.013 0-0.028 0-0.043 0-1.53 0-2.771-1.24-2.771-2.771s1.24-2.771 2.771-2.771c0.015 0 0.030 0 0.045 0l-0.002-0h1.063c1.381 0 2.5 1.119 2.5 2.5v0c0 0.46-0.373 0.833-0.833 0.833s-0.833-0.373-0.833-0.833v0c0-0.46-0.373-0.833-0.833-0.833h-1.063z"></path>
</svg>
