<!-- Generated by IcoMoon.io -->
<svg version="1.1" xmlns="http://www.w3.org/2000/svg" width="32" height="32" viewBox="0 0 32 32">
<title>games-filled</title>
<path d="M19.997 6.667c5.155 0 9.333 4.179 9.333 9.333 0 5.047-4.006 9.159-9.013 9.328l-0.321 0.005h-7.994c-5.155 0-9.333-4.179-9.333-9.333 0-5.047 4.006-9.159 9.012-9.328l0.321-0.005h7.994zM19.667 16.667c-0.921 0-1.667 0.746-1.667 1.667s0.746 1.667 1.667 1.667c0.92 0 1.667-0.746 1.667-1.667s-0.746-1.667-1.667-1.667zM10.667 12c-0.506 0-0.925 0.376-0.991 0.864l-0.009 0.136v1.997l-2 0.001c-0.552 0-1 0.448-1 1 0 0.506 0.376 0.925 0.864 0.991l0.136 0.009 2-0.001v2.003c0 0.552 0.448 1 1 1 0.506 0 0.925-0.376 0.991-0.864l0.009-0.136v-2.003l2 0.001c0.552 0 1-0.448 1-1 0-0.506-0.376-0.925-0.864-0.991l-0.136-0.009-2-0.001v-1.997c0-0.552-0.448-1-1-1zM22.333 12c-0.921 0-1.667 0.746-1.667 1.667s0.746 1.667 1.667 1.667c0.92 0 1.667-0.746 1.667-1.667s-0.746-1.667-1.667-1.667z"></path>
</svg>
