<!-- Generated by IcoMoon.io -->
<svg version="1.1" xmlns="http://www.w3.org/2000/svg" width="32" height="32" viewBox="0 0 32 32">
<title>gauge-filled</title>
<path d="M2 16c0-7.732 6.268-14 14-14s14 6.268 14 14-6.268 14-14 14-14-6.268-14-14zM17.56 8.152c0.059 0.012 0.126 0.019 0.196 0.019 0.552 0 1-0.448 1-1 0-0.484-0.344-0.888-0.801-0.98l-0.006-0.001c-0.586-0.122-1.26-0.192-1.95-0.192-5.523 0-10 4.477-10 10 0 2.086 0.639 4.024 1.732 5.626l-0.022-0.035c0.18 0.283 0.492 0.469 0.847 0.469 0.552 0 1-0.448 1-1 0-0.22-0.071-0.424-0.192-0.589l0.002 0.003c-0.857-1.255-1.368-2.805-1.368-4.474 0-4.418 3.582-8 8-8 0.554 0 1.094 0.056 1.616 0.163l-0.052-0.009zM23.236 10.555c-0.295 0.177-0.49 0.496-0.49 0.86 0 0.188 0.052 0.364 0.142 0.514l-0.003-0.005c0.701 1.166 1.116 2.573 1.116 4.077 0 1.662-0.507 3.206-1.374 4.485l0.018-0.028c-0.114 0.16-0.183 0.36-0.183 0.576 0 0.552 0.448 1 1 1 0.353 0 0.664-0.183 0.841-0.459l0.002-0.004c1.061-1.564 1.695-3.494 1.695-5.571 0-1.88-0.518-3.638-1.42-5.14l0.025 0.045c-0.177-0.296-0.496-0.491-0.86-0.491-0.188 0-0.364 0.052-0.514 0.142l0.005-0.003zM20.992 8.053l-1.056 0.842c-0.638 0.507-1.494 1.192-2.368 1.9s-1.77 1.437-2.485 2.037c-0.357 0.3-0.673 0.568-0.92 0.786-0.202 0.173-0.386 0.349-0.559 0.534l-0.004 0.004c-0.363 0.426-0.584 0.983-0.584 1.592 0 1.36 1.103 2.463 2.463 2.463 0.744 0 1.411-0.33 1.863-0.852l0.003-0.003c0.147-0.185 0.293-0.394 0.427-0.611l0.016-0.029c0.176-0.278 0.393-0.632 0.632-1.032 0.48-0.8 1.061-1.798 1.623-2.773s1.108-1.927 1.508-2.636l0.484-0.853 0.182-0.322c0.068-0.117 0.109-0.258 0.109-0.408 0-0.453-0.367-0.82-0.82-0.82-0.195 0-0.374 0.068-0.515 0.182l0.002-0.001z"></path>
</svg>
