<!-- Generated by IcoMoon.io -->
<svg version="1.1" xmlns="http://www.w3.org/2000/svg" width="32" height="32" viewBox="0 0 32 32">
<title>gesture-filled</title>
<path d="M4 24c0.736 0 1.333 0.597 1.333 1.333s-0.597 1.333-1.333 1.333c-0.736 0-1.333-0.597-1.333-1.333s0.597-1.333 1.333-1.333zM9.333 5.333h13.333c0.736 0 1.333 0.597 1.333 1.333 0 0.684-0.515 1.247-1.178 1.324l-0.155 0.009h-6.198l10.68 4.136c1.027 0.398 1.14 1.773 0.26 2.353l-0.147 0.085-18.667 9.287c-0.659 0.328-1.46 0.059-1.788-0.6-0.305-0.612-0.095-1.346 0.465-1.71l0.135-0.077 15.962-7.941-14.516-5.621c-1.326-0.513-1.021-2.427 0.322-2.568l0.159-0.008zM26.667 5.333c0.736 0 1.333 0.597 1.333 1.333s-0.597 1.333-1.333 1.333c-0.736 0-1.333-0.597-1.333-1.333s0.597-1.333 1.333-1.333z"></path>
</svg>
