<!-- Generated by IcoMoon.io -->
<svg version="1.1" xmlns="http://www.w3.org/2000/svg" width="32" height="32" viewBox="0 0 32 32">
<title>gesture-filled</title>
<path d="M4 24c0.736 0 1.333 0.597 1.333 1.333s-0.597 1.333-1.333 1.333v0c-0.736 0-1.333-0.597-1.333-1.333s0.597-1.333 1.333-1.333v0zM9.333 5.333h13.333c0.736 0.001 1.332 0.597 1.332 1.333 0 0.681-0.51 1.243-1.169 1.323l-0.006 0.001-0.156 0.009h-6.199l10.68 4.136c1.027 0.397 1.14 1.773 0.26 2.352l-0.147 0.085-18.667 9.287c-0.173 0.088-0.377 0.139-0.593 0.139-0.736 0-1.333-0.597-1.333-1.333 0-0.464 0.237-0.873 0.598-1.112l0.005-0.003 0.136-0.077 15.96-7.941-14.513-5.621c-1.325-0.515-1.021-2.428 0.321-2.569l0.159-0.008zM26.667 5.333c0.736 0 1.333 0.597 1.333 1.333s-0.597 1.333-1.333 1.333v0c-0.736 0-1.333-0.597-1.333-1.333s0.597-1.333 1.333-1.333v0z"></path>
</svg>
