<!-- Generated by IcoMoon.io -->
<svg version="1.1" xmlns="http://www.w3.org/2000/svg" width="32" height="32" viewBox="0 0 32 32">
<title>gif-filled</title>
<path d="M25 4.668c2.393 0 4.333 1.94 4.333 4.333v14.003c0 2.393-1.94 4.333-4.333 4.333h-18c-2.393 0-4.333-1.94-4.333-4.333v-14.004c0-2.393 1.94-4.333 4.333-4.333h18zM10.686 11.83c-2.168 0-3.671 1.88-3.671 4.163s1.503 4.168 3.671 4.168c1.184 0 2.271-0.569 2.816-1.619l0.102-0.216 0.031-0.093 0.024-0.099 0.010-0.111 0-2.028-0.009-0.123c-0.053-0.357-0.332-0.641-0.688-0.699l-0.136-0.011h-1.335l-0.123 0.009c-0.357 0.053-0.641 0.333-0.699 0.688l-0.011 0.137 0.009 0.123c0.053 0.357 0.332 0.641 0.688 0.699l0.136 0.011 0.501-0v0.979l-0.008 0.019c-0.252 0.428-0.736 0.668-1.307 0.668-1.155 0-2.005-1.065-2.005-2.501 0-1.435 0.849-2.496 2.005-2.496 0.562 0 0.882 0.062 1.281 0.254 0.415 0.199 0.913 0.024 1.112-0.391s0.024-0.913-0.39-1.112c-0.644-0.309-1.207-0.418-2.003-0.418zM16.839 11.992c-0.418 0-0.765 0.308-0.824 0.71l-0.009 0.123v6.35l0.009 0.123c0.060 0.402 0.406 0.71 0.824 0.71s0.765-0.308 0.824-0.71l0.009-0.123v-6.349l-0.009-0.123c-0.060-0.402-0.406-0.71-0.824-0.71zM23.496 12.002l-2.663-0.009c-0.418-0.001-0.766 0.306-0.827 0.707l-0.009 0.123v6.331l0.009 0.123c0.053 0.357 0.332 0.64 0.688 0.699l0.137 0.011 0.123-0.009c0.357-0.053 0.64-0.332 0.699-0.688l0.011-0.137-0.001-1.487 1.497 0.001 0.123-0.009c0.357-0.053 0.64-0.333 0.699-0.688l0.011-0.137-0.009-0.123c-0.053-0.357-0.332-0.641-0.688-0.699l-0.137-0.011-1.497-0.001v-2.34l1.828 0.008 0.123-0.009c0.402-0.058 0.712-0.403 0.713-0.822s-0.306-0.766-0.707-0.827l-0.123-0.009z"></path>
</svg>
