<!-- Generated by IcoMoon.io -->
<svg version="1.1" xmlns="http://www.w3.org/2000/svg" width="32" height="32" viewBox="0 0 32 32">
<title>gift-card-arrow-right-filled</title>
<path d="M10.667 2.667h-4c-2.209 0-4 1.791-4 4v0 4h3.611c-0.176-0.393-0.279-0.852-0.279-1.335 0-1.841 1.492-3.333 3.333-3.333 0.483 0 0.942 0.103 1.356 0.287l-0.021-0.008v-3.611zM2.667 12.667v6c0 2.209 1.791 4 4 4v0h4v-8.587l-2.293 2.293c-0.178 0.166-0.418 0.268-0.682 0.268-0.552 0-1-0.448-1-1 0-0.264 0.102-0.504 0.269-0.682l-0.001 0.001 2.293-2.293h-6.587zM12.667 22.667h2.025c0.357-4.491 4.089-8 8.641-8 2.33 0 4.446 0.92 6.003 2.416l-0.003-0.003v-4.413h-15.253l2.293 2.293c0.196 0.183 0.318 0.443 0.318 0.732 0 0.552-0.448 1-1 1-0.289 0-0.549-0.122-0.731-0.318l-0.001-0.001-2.293-2.293v8.587zM29.333 10.667h-12.277c0.176-0.393 0.279-0.852 0.279-1.335 0-1.841-1.492-3.333-3.333-3.333-0.483 0-0.942 0.103-1.356 0.287l0.021-0.008v-3.611h12.667c2.209 0 4 1.791 4 4v0 4zM14 10.667h-1.333v-1.333c0-0.736 0.597-1.333 1.333-1.333s1.333 0.597 1.333 1.333c0 0.736-0.597 1.333-1.333 1.333v0zM10.667 10.667h-1.333c-0.736-0-1.333-0.597-1.333-1.333s0.597-1.333 1.333-1.333c0.733 0 1.327 0.591 1.333 1.322v1.345zM30.667 23.333c0 4.050-3.283 7.333-7.333 7.333s-7.333-3.283-7.333-7.333v0c0-4.050 3.283-7.333 7.333-7.333s7.333 3.283 7.333 7.333v0zM19.333 22.667c-0.368 0-0.667 0.298-0.667 0.667s0.298 0.667 0.667 0.667v0h6.391l-2.196 2.195c-0.121 0.121-0.195 0.288-0.195 0.472 0 0.369 0.299 0.668 0.668 0.668 0.184 0 0.351-0.075 0.472-0.195l3.333-3.333c0.121-0.121 0.196-0.288 0.196-0.472s-0.075-0.351-0.196-0.472v0l-3.333-3.333c-0.121-0.121-0.288-0.195-0.472-0.195-0.369 0-0.668 0.299-0.668 0.668 0 0.184 0.075 0.351 0.195 0.472l2.196 2.195h-6.391z"></path>
</svg>
