<!-- Generated by IcoMoon.io -->
<svg version="1.1" xmlns="http://www.w3.org/2000/svg" width="32" height="32" viewBox="0 0 32 32">
<title>gift-card-add-filled</title>
<path d="M10.667 2.667h-4c-2.209 0-4 1.791-4 4v4h3.611c-0.178-0.408-0.277-0.859-0.277-1.333 0-1.841 1.492-3.333 3.333-3.333 0.474 0 0.925 0.099 1.333 0.277v-3.611zM2.667 12.667v6c0 2.209 1.791 4 4 4h4v-8.586l-2.293 2.293c-0.391 0.391-1.024 0.391-1.414 0s-0.391-1.024 0-1.414l2.293-2.293h-6.586zM12.667 22.667h2.025c0.341-4.475 4.079-8 8.641-8 2.329 0 4.443 0.918 6 2.413v-4.413h-15.252l2.293 2.293c0.391 0.391 0.391 1.024 0 1.414s-1.024 0.391-1.414 0l-2.293-2.293v8.586zM29.333 10.667h-12.277c0.178-0.408 0.277-0.859 0.277-1.333 0-1.841-1.492-3.333-3.333-3.333-0.474 0-0.925 0.099-1.333 0.277v-3.611h12.667c2.209 0 4 1.791 4 4v4zM14 10.667h-1.333v-1.333c0-0.736 0.597-1.333 1.333-1.333s1.333 0.597 1.333 1.333c0 0.736-0.597 1.333-1.333 1.333zM10.667 10.667h-1.333c-0.736 0-1.333-0.597-1.333-1.333s0.597-1.333 1.333-1.333c0.733 0 1.328 0.591 1.333 1.323v1.343zM30.667 23.333c0-4.050-3.283-7.333-7.333-7.333s-7.333 3.283-7.333 7.333c0 4.050 3.283 7.333 7.333 7.333s7.333-3.283 7.333-7.333zM24.001 24l0.001 3.338c0 0.368-0.298 0.667-0.667 0.667s-0.667-0.298-0.667-0.667l-0.001-3.338h-3.34c-0.368 0-0.666-0.298-0.666-0.667s0.298-0.667 0.666-0.667h3.34l-0.001-3.334c0-0.368 0.299-0.667 0.667-0.667s0.667 0.298 0.667 0.667l0.001 3.334h3.328c0.368 0 0.666 0.299 0.666 0.667s-0.298 0.667-0.666 0.667h-3.328z"></path>
</svg>
