<!-- Generated by IcoMoon.io -->
<svg version="1.1" xmlns="http://www.w3.org/2000/svg" width="32" height="32" viewBox="0 0 32 32">
<title>gift-card-multiple-filled</title>
<path d="M6.667 5.333h4v3.611c-0.393-0.176-0.852-0.279-1.335-0.279-1.841 0-3.333 1.492-3.333 3.333 0 0.483 0.103 0.942 0.287 1.356l-0.008-0.021h-3.611v-4c0-2.209 1.791-4 4-4v0zM2.667 19.333v-4h6.587l-2.293 2.293c-0.196 0.183-0.318 0.443-0.318 0.732 0 0.552 0.448 1 1 1 0.289 0 0.549-0.122 0.731-0.318l0.001-0.001 2.293-2.293v6.587h-4c-2.209 0-4-1.791-4-4v0zM12.667 23.333h9.333c2.209 0 4-1.791 4-4v0-4h-11.92l2.293 2.293c0.196 0.183 0.318 0.443 0.318 0.732 0 0.552-0.448 1-1 1-0.289 0-0.549-0.122-0.731-0.318l-0.001-0.001-2.293-2.293v6.587zM17.056 13.333h8.944v-4c0-2.209-1.791-4-4-4v0h-9.333v3.611c0.393-0.176 0.852-0.279 1.335-0.279 1.841 0 3.333 1.492 3.333 3.333 0 0.483-0.103 0.942-0.287 1.356l0.008-0.021zM14 13.333h-1.333v-1.333c0-0.736 0.597-1.333 1.333-1.333s1.333 0.597 1.333 1.333c0 0.736-0.597 1.333-1.333 1.333v0zM9.333 13.333h1.333v-1.344c-0.006-0.732-0.601-1.323-1.333-1.323-0.736 0-1.333 0.597-1.333 1.333s0.597 1.333 1.333 1.333v0zM10 26.667c-0 0-0.001 0-0.001 0-1.473 0-2.76-0.796-3.454-1.981l-0.010-0.019h15.465c2.946 0 5.333-2.388 5.333-5.333v0-10.132c1.204 0.704 2 1.991 2 3.463 0 0.001 0 0.001 0 0.002v-0 6.667c0 4.050-3.283 7.333-7.333 7.333v0h-12z"></path>
</svg>
