<!-- Generated by IcoMoon.io -->
<svg version="1.1" xmlns="http://www.w3.org/2000/svg" width="32" height="32" viewBox="0 0 32 32">
<title>gift-card-money-filled</title>
<path d="M10.667 2.667h-4c-2.209 0-4 1.791-4 4v0 4h3.611c-0.176-0.393-0.279-0.852-0.279-1.335 0-1.841 1.492-3.333 3.333-3.333 0.483 0 0.942 0.103 1.356 0.287l-0.021-0.008v-3.611zM2.667 12.667v6c0 2.209 1.791 4 4 4v0h4v-8.587l-2.293 2.293c-0.178 0.166-0.418 0.268-0.682 0.268-0.552 0-1-0.448-1-1 0-0.264 0.102-0.504 0.269-0.682l-0.001 0.001 2.293-2.293h-6.587zM12.667 22.667h2v-0.667c0-1.841 1.492-3.333 3.333-3.333v0h10.667c0.228 0 0.451 0.023 0.667 0.067v-6.067h-15.253l2.293 2.293c0.196 0.183 0.318 0.443 0.318 0.732 0 0.552-0.448 1-1 1-0.289 0-0.549-0.122-0.731-0.318l-0.001-0.001-2.293-2.293v8.587zM29.333 10.667h-12.277c0.176-0.393 0.279-0.852 0.279-1.335 0-1.841-1.492-3.333-3.333-3.333-0.483 0-0.942 0.103-1.356 0.287l0.021-0.008v-3.611h12.667c2.209 0 4 1.791 4 4v0 4zM14 10.667h-1.333v-1.333c0-0.736 0.597-1.333 1.333-1.333s1.333 0.597 1.333 1.333c0 0.736-0.597 1.333-1.333 1.333v0zM10.667 10.667h-1.333c-0.736-0-1.333-0.597-1.333-1.333s0.597-1.333 1.333-1.333c0.733 0 1.327 0.591 1.333 1.322v1.345zM16 22c0-1.105 0.895-2 2-2v0h10.667c1.105 0 2 0.895 2 2v0 5.333c0 1.105-0.895 2-2 2v0h-10.667c-1.105 0-2-0.895-2-2v0-5.333zM29.333 22.667c-0.736 0-1.333-0.597-1.333-1.333v0h-1.333c0 1.473 1.194 2.667 2.667 2.667v0-1.333zM29.333 25.333c-1.473 0-2.667 1.194-2.667 2.667v0h1.333c0-0.736 0.597-1.333 1.333-1.333v0-1.333zM18.667 21.333c0 0.736-0.597 1.333-1.333 1.333v0 1.333c1.473 0 2.667-1.194 2.667-2.667v0h-1.333zM20 28c0-1.473-1.194-2.667-2.667-2.667v0 1.333c0.736 0 1.333 0.597 1.333 1.333v0h1.333zM25.667 24.667c0-1.289-1.045-2.333-2.333-2.333s-2.333 1.045-2.333 2.333v0c0 1.289 1.045 2.333 2.333 2.333s2.333-1.045 2.333-2.333v0z"></path>
</svg>
