<!-- Generated by IcoMoon.io -->
<svg version="1.1" xmlns="http://www.w3.org/2000/svg" width="32" height="32" viewBox="0 0 32 32">
<title>gift-filled</title>
<path d="M15 17.333v12h-5.333c-2.393 0-4.333-1.94-4.333-4.333v-7.667h9.667zM26.667 17.333v7.667c0 2.393-1.94 4.333-4.333 4.333h-5.333v-12h9.667zM19.333 2.667c2.393 0 4.333 1.94 4.333 4.333 0 0.86-0.251 1.661-0.683 2.335l3.349-0.002c0.921 0 1.667 0.622 1.667 1.389v3.889c0 0.767-0.746 1.389-1.667 1.389l-9.333-0.001v-6.665h-2v6.665l-9.333 0.001c-0.92 0-1.667-0.622-1.667-1.389v-3.889c0-0.767 0.746-1.389 1.667-1.389l3.349 0.002c-0.432-0.674-0.683-1.475-0.683-2.335 0-2.393 1.94-4.333 4.333-4.333 1.341 0 2.539 0.609 3.334 1.565 0.793-0.956 1.992-1.565 3.333-1.565zM12.667 4.667c-1.289 0-2.333 1.045-2.333 2.333 0 1.224 0.943 2.228 2.142 2.326l0.191 0.008h2.333v-2.333l-0.008-0.191c-0.097-1.199-1.101-2.142-2.326-2.142zM19.333 4.667c-1.289 0-2.333 1.045-2.333 2.333v2.333h2.333c1.289 0 2.333-1.045 2.333-2.333s-1.045-2.333-2.333-2.333z"></path>
</svg>
