<!-- Generated by IcoMoon.io -->
<svg version="1.1" xmlns="http://www.w3.org/2000/svg" width="32" height="32" viewBox="0 0 32 32">
<title>glance-horizontal-sparkles-filled</title>
<path d="M21.451 8.549c-0.455-0.583-1.065-1.025-1.769-1.265l-0.027-0.008-1.837-0.597c-0.283-0.103-0.482-0.37-0.482-0.683s0.199-0.58 0.477-0.682l0.005-0.002 1.837-0.597c1.104-0.389 1.958-1.244 2.337-2.323l0.008-0.027 0.015-0.045 0.597-1.836c0.102-0.285 0.37-0.486 0.685-0.486s0.583 0.201 0.683 0.481l0.002 0.005 0.596 1.836c0.386 1.135 1.263 2.011 2.372 2.387l0.027 0.008 1.836 0.597 0.037 0.009c0.283 0.103 0.482 0.37 0.482 0.683s-0.199 0.58-0.477 0.682l-0.005 0.002-1.837 0.597c-1.134 0.385-2.011 1.261-2.389 2.368l-0.008 0.027-0.597 1.836c-0.102 0.284-0.37 0.484-0.684 0.484s-0.582-0.2-0.682-0.479l-0.002-0.005-0.597-1.836c-0.145-0.433-0.349-0.808-0.606-1.139l0.006 0.008zM31.711 13.617l-1.021-0.331c-0.63-0.214-1.117-0.702-1.326-1.317l-0.004-0.015-0.333-1.019c-0.057-0.158-0.205-0.269-0.38-0.269s-0.323 0.111-0.379 0.267l-0.001 0.003-0.331 1.019c-0.21 0.627-0.689 1.113-1.297 1.327l-0.015 0.005-1.020 0.331c-0.158 0.057-0.269 0.205-0.269 0.38s0.111 0.323 0.267 0.379l0.003 0.001 1.020 0.332c0.632 0.215 1.12 0.704 1.329 1.321l0.004 0.015 0.331 1.019c0.057 0.158 0.205 0.269 0.38 0.269s0.323-0.111 0.379-0.267l0.001-0.003 0.332-1.019c0.214-0.631 0.701-1.118 1.317-1.328l0.015-0.004 1.020-0.331c0.158-0.057 0.269-0.205 0.269-0.38s-0.111-0.323-0.267-0.379l-0.003-0.001-0.020-0.005zM13.667 4.004c1.288 0 2.333 1.044 2.333 2.333v6c0 1.289-1.045 2.333-2.333 2.333v0h-7.333c-1.289 0-2.333-1.045-2.333-2.333v0-6c0-1.289 1.044-2.333 2.333-2.333h7.333zM9.651 17.313c1.288 0 2.333 1.044 2.333 2.333v6.019c0 1.289-1.045 2.333-2.333 2.333v0h-3.317c-1.289 0-2.333-1.045-2.333-2.333v0-6.019c0-1.289 1.044-2.333 2.333-2.333h3.317zM25.669 17.332c1.288 0 2.333 1.045 2.333 2.333v6c0 1.289-1.045 2.333-2.333 2.333v0h-8.667c-1.289 0-2.333-1.045-2.333-2.333v0-6l0.007-0.192c0.103-1.203 1.105-2.14 2.325-2.14 0.001 0 0.002 0 0.003 0h8.667z"></path>
</svg>
