<!-- Generated by IcoMoon.io -->
<svg version="1.1" xmlns="http://www.w3.org/2000/svg" width="32" height="32" viewBox="0 0 32 32">
<title>glasses-filled</title>
<path d="M10.545 6.667h1.122c0.552 0 1 0.448 1 1 0 0.506-0.376 0.925-0.864 0.991l-0.136 0.009h-1.122c-0.233 0-0.458 0.081-0.636 0.228l-0.101 0.096-2.765 3.009 4.621 0.001c1.546 0 2.819 1.17 2.982 2.673h2.703c0.163-1.503 1.436-2.673 2.982-2.673l4.636-0.001-2.778-3.010c-0.158-0.171-0.369-0.281-0.597-0.312l-0.138-0.010h-1.123c-0.552 0-1-0.448-1-1 0-0.506 0.376-0.925 0.864-0.991l0.136-0.009h1.123c0.754 0 1.477 0.284 2.028 0.789l0.177 0.177 4.856 5.263c0.067 0.073 0.121 0.152 0.163 0.237 0.408 0.512 0.652 1.161 0.652 1.867v4.662c0 2.393-1.94 4.333-4.333 4.333h-3.332c-2.393 0-4.333-1.94-4.333-4.333l-0.001-2.989h-2.668l0.001 2.989c0 2.393-1.94 4.333-4.333 4.333h-3.332c-2.393 0-4.333-1.94-4.333-4.333v-4.662c0-0.749 0.274-1.434 0.728-1.959l0.050-0.074 0.058-0.070 4.832-5.26c0.511-0.557 1.211-0.897 1.959-0.96l0.251-0.010z"></path>
</svg>
