<!-- Generated by IcoMoon.io -->
<svg version="1.1" xmlns="http://www.w3.org/2000/svg" width="32" height="32" viewBox="0 0 32 32">
<title>globe-person-filled</title>
<path d="M20.127 22c-0.053 0.281-0.109 0.556-0.169 0.825-1.531 0.475-2.623 1.878-2.624 3.536v0.137c0 0.62 0.112 1.24 0.347 1.828-0.539 0.648-1.111 1.004-1.68 1.004-1.596 0-3.201-2.792-4.051-6.939l-0.077-0.392h8.255zM20 19.333c0-0.872 0.24-1.688 0.656-2.387 0.008-0.279 0.013-0.608 0.013-0.938 0-0.942-0.038-1.874-0.111-2.797l0.008 0.122h-9.132l-0.044 0.652c-0.037 0.597-0.058 1.295-0.058 1.998 0 1.415 0.085 2.811 0.25 4.182l-0.016-0.165h8.483c-0.030-0.2-0.048-0.431-0.048-0.666v-0zM24.667 14.667c2.14 0.001 3.943 1.441 4.495 3.404l0.008 0.033c0.105-0.633 0.166-1.361 0.166-2.104 0-0.944-0.097-1.865-0.282-2.754l0.015 0.087h-6.493l0.052 0.876c0.013 0.301 0.024 0.604 0.032 0.911 0.608-0.291 1.289-0.453 2.008-0.453zM4.087 22.001h5.741c0.487 2.776 1.311 5.139 2.389 6.791-3.443-1.044-6.234-3.342-7.9-6.35l-0.035-0.069-0.196-0.372zM2.931 13.335h6.493c-0.060 0.798-0.095 1.728-0.095 2.667 0 1.136 0.050 2.26 0.149 3.37l-0.010-0.144 0.077 0.773h-6.271c-0.388-1.196-0.612-2.573-0.612-4.002 0-0.943 0.097-1.864 0.283-2.752l-0.015 0.087zM19.925 3.436l-0.144-0.227c4.043 1.227 7.217 4.207 8.684 8.032l0.031 0.092h-6.123c-0.421-3.221-1.276-5.989-2.449-7.897zM12.053 3.259l0.163-0.049c-1.173 1.8-2.047 4.439-2.511 7.539l-0.081 0.587h-6.12c1.476-3.865 4.582-6.816 8.455-8.051l0.095-0.026zM16 2.669c1.757 0 3.527 3.389 4.285 8.244l0.061 0.42h-8.693c0.72-5.079 2.539-8.664 4.347-8.664zM28 19.333c0 1.841-1.492 3.333-3.333 3.333s-3.333-1.492-3.333-3.333v0c0-1.841 1.492-3.333 3.333-3.333s3.333 1.492 3.333 3.333v0zM30.667 26.5c0 2.075-1.715 4.167-6 4.167s-6-2.084-6-4.167v-0.137c0-1.307 1.059-2.363 2.364-2.363h7.272c1.307 0 2.364 1.057 2.364 2.363v0.137z"></path>
</svg>
