<!-- Generated by IcoMoon.io -->
<svg version="1.1" xmlns="http://www.w3.org/2000/svg" width="32" height="32" viewBox="0 0 32 32">
<title>globe-add-filled</title>
<path d="M23.333 16c4.050 0 7.333 3.283 7.333 7.333s-3.283 7.333-7.333 7.333v0c-4.050 0-7.333-3.283-7.333-7.333s3.283-7.333 7.333-7.333v0zM14.769 21.997c-0.067 0.404-0.105 0.87-0.105 1.345 0 2.205 0.826 4.216 2.186 5.742l-0.008-0.009c-0.277 0.167-0.56 0.253-0.84 0.253-1.596 0-3.201-2.792-4.051-6.939l-0.077-0.392h2.893zM9.831 21.997c0.487 2.777 1.311 5.14 2.389 6.792-3.577-1.085-6.457-3.528-8.096-6.714l-0.035-0.075h5.741zM23.333 18.667l-0.12 0.011c-0.273 0.051-0.485 0.263-0.535 0.532l-0.001 0.004-0.011 0.12v3.333h-3.336l-0.12 0.011c-0.273 0.051-0.485 0.263-0.535 0.532l-0.001 0.004-0.011 0.12 0.011 0.12c0.051 0.273 0.263 0.485 0.532 0.535l0.004 0.001 0.12 0.011h3.336v3.337l0.011 0.12c0.051 0.273 0.263 0.485 0.532 0.535l0.004 0.001 0.12 0.011 0.12-0.011c0.273-0.051 0.485-0.263 0.535-0.532l0.001-0.004 0.011-0.12v-3.337l3.339 0.001 0.12-0.011c0.273-0.051 0.485-0.263 0.535-0.532l0.001-0.004 0.011-0.12-0.011-0.12c-0.051-0.273-0.264-0.485-0.533-0.535l-0.004-0.001-0.12-0.011h-3.337v-3.333l-0.011-0.12c-0.051-0.273-0.263-0.486-0.532-0.537l-0.004-0.001-0.12-0.011zM9.427 13.333c-0.060 0.798-0.095 1.728-0.095 2.667 0 1.136 0.050 2.26 0.149 3.37l-0.010-0.144 0.076 0.773h-6.269c-0.388-1.196-0.612-2.573-0.612-4.002 0-0.943 0.097-1.864 0.283-2.752l-0.015 0.087h6.493zM20.568 13.333c0.045 0.571 0.075 1.157 0.091 1.755-2.423 0.807-4.334 2.582-5.305 4.854l-0.022 0.057-3.764 0.001c-0.149-1.206-0.234-2.601-0.234-4.017 0-0.703 0.021-1.402 0.062-2.095l-0.005 0.095 0.044-0.652h9.133zM29.071 13.333c0.17 0.801 0.268 1.721 0.268 2.665 0 0.369-0.015 0.734-0.044 1.095l0.003-0.047c-1.547-1.473-3.644-2.379-5.954-2.379-0.245 0-0.488 0.010-0.728 0.030l0.031-0.002c-0.004-0.189-0.010-0.358-0.019-0.527l0.002 0.041-0.052-0.875h6.493zM19.784 3.208c4.043 1.227 7.217 4.207 8.684 8.032l0.031 0.092h-6.121c-0.395-3.020-1.171-5.641-2.233-7.529l-0.216-0.368-0.144-0.227zM12.22 3.208c-1.173 1.8-2.047 4.439-2.511 7.539l-0.081 0.587h-6.121c1.426-3.734 4.368-6.611 8.053-7.918l0.094-0.029 0.404-0.133 0.163-0.048zM16.003 2.667c1.757 0 3.527 3.389 4.284 8.244l0.063 0.42h-8.695c0.719-5.077 2.539-8.664 4.345-8.664z"></path>
</svg>
