<!-- Generated by IcoMoon.io -->
<svg version="1.1" xmlns="http://www.w3.org/2000/svg" width="32" height="32" viewBox="0 0 32 32">
<title>globe-surface-filled</title>
<path d="M12.907 10c0.211-1.685 0.548-3.181 0.973-4.389 0.369-1.055 0.788-1.837 1.203-2.336 0.42-0.505 0.733-0.608 0.917-0.608 0.183 0 0.497 0.103 0.917 0.608 0.415 0.499 0.833 1.281 1.203 2.336 0.425 1.208 0.763 2.704 0.973 4.389h-6.187zM11.992 4.947c0.233-0.661 0.497-1.275 0.796-1.819-3.426 1.039-6.116 3.558-7.368 6.794l-0.026 0.078h5.499c0.223-1.907 0.6-3.631 1.1-5.053zM20.008 4.947c-0.246-0.709-0.515-1.31-0.828-1.883l0.032 0.064c3.426 1.039 6.116 3.558 7.368 6.794l0.026 0.078h-5.499c-0.223-1.907-0.6-3.631-1.1-5.053zM21.279 12h5.88c0.112 0.601 0.177 1.293 0.177 2s-0.064 1.399-0.187 2.070l0.011-0.070h-5.88c0.035-0.598 0.055-1.296 0.055-2s-0.020-1.402-0.060-2.096l0.004 0.096zM21.108 18h5.499c-0.491 1.281-1.155 2.385-1.978 3.349l0.013-0.016-0.023 0.027c-0.632 0.737-1.341 1.38-2.121 1.928l-0.036 0.024c-0.932 0.656-2.011 1.188-3.169 1.539l-0.080 0.021c0.281-0.509 0.55-1.11 0.77-1.734l0.026-0.086c0.499-1.421 0.877-3.145 1.1-5.052zM16.917 24.725c-0.42 0.505-0.733 0.608-0.917 0.608-0.183 0-0.497-0.103-0.917-0.608-0.415-0.499-0.833-1.281-1.203-2.336-0.425-1.208-0.763-2.704-0.973-4.389h6.187c-0.211 1.685-0.548 3.181-0.973 4.389-0.369 1.055-0.787 1.837-1.203 2.336zM9.539 23.312c0.981 0.683 2.076 1.213 3.249 1.56-0.281-0.509-0.55-1.11-0.77-1.734l-0.026-0.086c-0.499-1.421-0.877-3.145-1.1-5.052h-5.499c0.463 1.227 1.132 2.352 1.965 3.333l0.023 0.027c0.632 0.737 1.341 1.38 2.121 1.928l0.036 0.024zM10.721 16h-5.88c-0.112-0.601-0.177-1.293-0.177-2s0.064-1.399 0.187-2.070l-0.011 0.070h5.88c-0.035 0.598-0.056 1.296-0.056 2s0.020 1.402 0.060 2.096l-0.004-0.096zM12.725 12c-0.038 0.598-0.059 1.296-0.059 2s0.021 1.402 0.064 2.095l-0.005-0.095h6.549c0.038-0.598 0.059-1.296 0.059-2s-0.021-1.402-0.064-2.095l0.005 0.095h-6.549zM5.333 21.333h0.337c0.535 0.747 1.115 1.402 1.756 1.992l0.009 0.008h-1.343l-1.111 4h22.035l-1.111-4h-1.343c0.65-0.598 1.23-1.253 1.739-1.962l0.026-0.038h0.337c0 0 0 0 0 0 0.457 0 0.843 0.307 0.962 0.726l0.002 0.007 1.667 6c0.023 0.080 0.036 0.172 0.036 0.267 0 0.552-0.448 1-1 1-0 0-0 0-0 0h-24.667c-0 0-0 0-0 0-0.552 0-1-0.448-1-1 0-0.095 0.013-0.187 0.038-0.274l-0.002 0.007 1.667-6c0.121-0.426 0.506-0.733 0.964-0.733 0 0 0 0 0 0v0z"></path>
</svg>
