<!-- Generated by IcoMoon.io -->
<svg version="1.1" xmlns="http://www.w3.org/2000/svg" width="32" height="32" viewBox="0 0 32 32">
<title>globe-filled</title>
<path d="M11 16c0-1.393 0.078-2.734 0.222-4h9.556c0.144 1.266 0.222 2.607 0.222 4s-0.078 2.734-0.222 4h-9.556c-0.141-1.189-0.222-2.567-0.222-3.963 0-0.013 0-0.026 0-0.039v0.002zM9.21 20c-0.134-1.191-0.21-2.571-0.21-3.969 0-0.011 0-0.021 0-0.032v0.002c0-1.379 0.073-2.72 0.21-4h-6.63c-0.368 1.194-0.58 2.566-0.58 3.988 0 0.004 0 0.008 0 0.012v-0.001c0 1.39 0.203 2.733 0.58 4h6.63zM3.347 22h6.138c0.314 1.86 0.771 3.547 1.344 4.978 0.369 0.922 0.793 1.758 1.272 2.472-3.895-1.159-7.017-3.854-8.717-7.366l-0.037-0.084zM11.515 22h8.97c-0.29 1.6-0.69 3.032-1.17 4.235-0.516 1.288-1.104 2.262-1.706 2.9-0.6 0.634-1.144 0.865-1.609 0.865s-1.009-0.231-1.609-0.866c-0.602-0.637-1.19-1.611-1.705-2.899-0.481-1.203-0.881-2.636-1.171-4.235zM22.515 22c-0.314 1.86-0.771 3.547-1.344 4.978-0.369 0.922-0.793 1.758-1.272 2.472 3.895-1.159 7.017-3.854 8.717-7.366l0.037-0.084h-6.138zM29.42 20c0.377-1.267 0.58-2.61 0.58-4s-0.203-2.733-0.58-4h-6.63c0.137 1.28 0.21 2.621 0.21 4s-0.073 2.72-0.21 4h6.63zM19.314 5.765c0.481 1.203 0.881 2.636 1.171 4.235h-8.97c0.29-1.6 0.69-3.032 1.17-4.235 0.516-1.288 1.104-2.263 1.706-2.9 0.598-0.631 1.14-0.863 1.604-0.865h0.008c0.464 0 1.007 0.233 1.606 0.866 0.602 0.636 1.19 1.611 1.705 2.899zM22.515 10h6.138c-1.738-3.596-4.859-6.291-8.655-7.425l-0.099-0.025c0.479 0.714 0.903 1.55 1.272 2.472 0.573 1.431 1.030 3.118 1.344 4.978zM3.347 10h6.138c0.314-1.86 0.771-3.547 1.344-4.978 0.369-0.922 0.793-1.758 1.272-2.472-3.895 1.159-7.017 3.854-8.717 7.366l-0.037 0.084z"></path>
</svg>
