<!-- Generated by IcoMoon.io -->
<svg version="1.1" xmlns="http://www.w3.org/2000/svg" width="32" height="32" viewBox="0 0 32 32">
<title>globe-location-filled</title>
<path d="M11.872 22.001h4.824c-0.020 0.219-0.030 0.441-0.030 0.666 0 1.601 0.609 3.148 1.696 4.65-0.721 1.279-1.543 2.015-2.363 2.015-1.596 0-3.201-2.792-4.050-6.938l-0.077-0.393z"></path>
<path d="M11.565 20.001h5.601c0.655-1.678 1.911-3.056 3.503-3.869l0-0.131c0-0.914-0.036-1.806-0.103-2.667h-9.132l-0.044 0.651c-0.038 0.657-0.058 1.33-0.058 2.016 0 1.396 0.083 2.739 0.234 4.001z"></path>
<path d="M24 15.333c2.057 0 3.915 0.847 5.247 2.21 0.058-0.506 0.088-1.021 0.088-1.543 0-0.913-0.092-1.805-0.267-2.667l-6.493 0.001 0.052 0.875c0.019 0.411 0.032 0.826 0.038 1.246 0.433-0.080 0.879-0.121 1.335-0.121z"></path>
<path d="M4.088 22.001l5.741-0c0.486 2.776 1.311 5.138 2.39 6.791-3.417-1.009-6.262-3.349-7.935-6.419l-0.195-0.372z"></path>
<path d="M2.931 13.334l6.493 0.001c-0.062 0.867-0.093 1.758-0.093 2.666 0 1.106 0.047 2.185 0.138 3.227l0.076 0.774h-6.27c-0.397-1.263-0.61-2.607-0.61-4.001 0-0.913 0.092-1.805 0.267-2.667z"></path>
<path d="M19.926 3.436l-0.144-0.227c4.024 1.188 7.256 4.223 8.714 8.124l-6.121 0c-0.421-3.223-1.275-5.99-2.449-7.898z"></path>
<path d="M12.056 3.258l0.162-0.049c-1.174 1.799-2.047 4.439-2.511 7.538l-0.082 0.586-6.121-0c1.438-3.848 4.603-6.854 8.552-8.075z"></path>
<path d="M16 2.669c1.758 0 3.527 3.389 4.285 8.245l0.062 0.42h-8.696c0.719-5.079 2.539-8.664 4.348-8.664z"></path>
<path d="M30 22.667c0-3.314-2.686-6-6-6s-6 2.686-6 6c0 2.483 1.893 5.087 5.6 7.867 0.237 0.178 0.563 0.178 0.8 0 3.707-2.78 5.6-5.383 5.6-7.867zM22 22.667c0-1.105 0.895-2 2-2s2 0.895 2 2-0.895 2-2 2c-1.105 0-2-0.895-2-2z"></path>
</svg>
