<!-- Generated by IcoMoon.io -->
<svg version="1.1" xmlns="http://www.w3.org/2000/svg" width="32" height="32" viewBox="0 0 32 32">
<title>globe-desktop-filled</title>
<path d="M14.667 22h-2.795l0.077 0.393c0.851 4.147 2.455 6.94 4.051 6.94 0.66 0 1.323-0.477 1.932-1.332h-0.599c-1.473 0-2.667-1.194-2.667-2.667v0-3.333zM14.667 20h-3.101c-0.149-1.206-0.234-2.602-0.234-4.017 0-0.703 0.021-1.401 0.062-2.094l-0.005 0.095 0.045-0.651h9.132c0.067 0.861 0.103 1.752 0.103 2.667h-3.336c-1.473 0-2.667 1.194-2.667 2.667v0 1.333zM29.336 16h-6.667c0-0.605-0.015-1.203-0.043-1.791l-0.051-0.876h6.493c0.173 0.86 0.267 1.752 0.267 2.665zM9.829 22l-5.741 0.001 0.195 0.372c1.701 3.077 4.492 5.375 7.841 6.394l0.095 0.025c-1.080-1.653-1.904-4.015-2.389-6.791zM9.425 13.333h-6.493c-0.171 0.802-0.268 1.723-0.268 2.667 0 1.428 0.223 2.804 0.637 4.094l-0.026-0.095h6.272l-0.076-0.773c-0.089-0.969-0.139-2.096-0.139-3.235 0-0.935 0.034-1.863 0.101-2.781l-0.007 0.123zM19.781 3.209l0.144 0.227c1.173 1.907 2.029 4.676 2.449 7.897h6.121c-1.497-3.917-4.671-6.897-8.62-8.099l-0.095-0.025zM12.219 3.209l-0.163 0.049c-3.968 1.26-7.075 4.21-8.521 7.983l-0.031 0.092h6.123l0.083-0.587c0.463-3.099 1.336-5.739 2.511-7.537zM20.285 10.913c-0.757-4.855-2.525-8.244-4.285-8.244-1.808 0-3.628 3.585-4.347 8.664h8.693l-0.061-0.42zM16 18.667c0-0.736 0.597-1.333 1.333-1.333v0h12c0.736 0 1.333 0.597 1.333 1.333v0 6.667c0 0.736-0.597 1.333-1.333 1.333v0h-4v2.667h0.667c0.368 0 0.667 0.298 0.667 0.667s-0.298 0.667-0.667 0.667v0h-5.333c-0.368 0-0.667-0.298-0.667-0.667s0.298-0.667 0.667-0.667v0h0.667v-2.667h-4c-0.736 0-1.333-0.597-1.333-1.333v0-6.667z"></path>
</svg>
