<!-- Generated by IcoMoon.io -->
<svg version="1.1" xmlns="http://www.w3.org/2000/svg" width="32" height="32" viewBox="0 0 32 32">
<title>globe-location-filled</title>
<path d="M11.872 22h4.824c-0.018 0.199-0.029 0.431-0.029 0.666v0.001c0 1.601 0.609 3.148 1.696 4.651-0.72 1.279-1.543 2.015-2.363 2.015-1.596 0-3.2-2.792-4.051-6.939l-0.077-0.392zM11.565 20h5.6c0.675-1.69 1.905-3.039 3.462-3.849l0.041-0.019v-0.131c0-0.915-0.035-1.807-0.101-2.667h-9.133l-0.044 0.651c-0.037 0.597-0.058 1.295-0.058 1.998 0 1.416 0.085 2.811 0.25 4.182l-0.016-0.165zM24 15.333c0.003 0 0.007 0 0.010 0 2.053 0 3.907 0.846 5.235 2.209l0.002 0.002c0.057-0.464 0.089-1.001 0.089-1.546 0-0.943-0.097-1.864-0.282-2.752l0.015 0.087h-6.493l0.051 0.876c0.020 0.411 0.032 0.827 0.039 1.245 0.432-0.080 0.88-0.121 1.335-0.121zM4.088 22.001h5.741c0.485 2.776 1.311 5.139 2.389 6.791-3.444-1.044-6.235-3.342-7.901-6.35l-0.035-0.069-0.195-0.372zM2.932 13.335h6.493c-0.060 0.798-0.095 1.728-0.095 2.667 0 1.136 0.050 2.26 0.149 3.37l-0.010-0.144 0.076 0.773h-6.271c-0.388-1.196-0.612-2.573-0.612-4.002 0-0.943 0.097-1.864 0.283-2.752l-0.015 0.087zM19.925 3.436l-0.144-0.227c4.043 1.227 7.217 4.207 8.684 8.032l0.031 0.092h-6.12c-0.421-3.221-1.276-5.989-2.451-7.897zM12.056 3.259l0.163-0.049c-1.175 1.8-2.048 4.439-2.512 7.537l-0.083 0.587h-6.117c1.477-3.865 4.583-6.816 8.456-8.050l0.095-0.026zM16 2.669c1.759 0 3.528 3.389 4.285 8.244l0.063 0.42h-8.696c0.721-5.079 2.54-8.664 4.348-8.664zM30 22.667c0-3.314-2.686-6-6-6s-6 2.686-6 6v0c0 2.484 1.893 5.087 5.6 7.867 0.11 0.083 0.249 0.133 0.4 0.133s0.29-0.050 0.402-0.135l-0.002 0.001c3.707-2.78 5.6-5.383 5.6-7.867zM22 22.667c0-1.105 0.895-2 2-2s2 0.895 2 2v0c0 1.105-0.895 2-2 2s-2-0.895-2-2v0z"></path>
</svg>
