<!-- Generated by IcoMoon.io -->
<svg version="1.1" xmlns="http://www.w3.org/2000/svg" width="32" height="32" viewBox="0 0 32 32">
<title>globe-shield-filled</title>
<path d="M11.872 22h4.128v0.667c0 2.304 0.788 4.096 1.844 5.453-0.584 0.779-1.215 1.212-1.844 1.212-1.596 0-3.2-2.792-4.051-6.939l-0.077-0.392zM11.565 20h4.435v-2c0-1.132 0.901-1.936 1.88-2.025 1.031-0.093 1.979-0.44 2.777-0.853-0.017-0.669-0.049-1.29-0.098-1.906l0.008 0.12h-9.133l-0.044 0.651c-0.037 0.597-0.058 1.295-0.058 1.998 0 1.416 0.085 2.811 0.25 4.182l-0.016-0.165zM29.069 13.333c0.165 0.816 0.256 1.659 0.265 2.52-1.773-0.381-3.221-1.429-3.953-2.057-0.26-0.223-0.578-0.385-0.929-0.459l-0.014-0.002h4.631zM4.088 22.001h5.741c0.485 2.776 1.311 5.139 2.389 6.791-3.444-1.044-6.235-3.342-7.901-6.35l-0.035-0.069-0.195-0.372zM2.932 13.335h6.493c-0.060 0.798-0.095 1.728-0.095 2.667 0 1.136 0.050 2.26 0.149 3.37l-0.010-0.144 0.076 0.773h-6.271c-0.388-1.196-0.612-2.573-0.612-4.002 0-0.943 0.097-1.864 0.283-2.752l-0.015 0.087zM19.925 3.436l-0.144-0.227c4.043 1.227 7.217 4.207 8.684 8.032l0.031 0.092h-6.12c-0.421-3.221-1.276-5.989-2.451-7.897zM12.056 3.259l0.163-0.049c-1.175 1.8-2.048 4.439-2.512 7.537l-0.083 0.587h-6.117c1.477-3.865 4.583-6.816 8.456-8.050l0.095-0.026zM16 2.669c1.759 0 3.528 3.389 4.285 8.244l0.063 0.42h-8.696c0.721-5.079 2.54-8.664 4.348-8.664zM30 17.303c-2.543-0.229-4.579-1.716-5.487-2.493-0.138-0.116-0.317-0.186-0.513-0.186s-0.375 0.070-0.515 0.187l0.001-0.001c-0.908 0.777-2.945 2.264-5.487 2.493-0.368 0.027-0.657 0.327-0.667 0.696l-0 0.001v4.667c0 5.631 5.459 7.621 6.497 7.949 0.051 0.017 0.109 0.026 0.17 0.026s0.119-0.010 0.174-0.028l-0.004 0.001c1.039-0.328 6.496-2.32 6.496-7.949v-4.667c-0.010-0.371-0.299-0.671-0.664-0.697l-0.002-0z"></path>
</svg>
