<!-- Generated by IcoMoon.io -->
<svg version="1.1" xmlns="http://www.w3.org/2000/svg" width="32" height="32" viewBox="0 0 32 32">
<title>globe-clock-filled</title>
<path d="M14.667 23.333c0-0.453 0.035-0.9 0.103-1.336h-2.895l0.077 0.393c0.849 4.147 2.453 6.939 4.051 6.939 0.28 0 0.563-0.087 0.84-0.253-1.351-1.517-2.176-3.527-2.176-5.73 0-0.004 0-0.009 0-0.013v0.001zM12.22 28.789c-1.079-1.653-1.903-4.013-2.389-6.791h-5.741c1.673 3.262 4.553 5.705 8.036 6.766l0.095 0.025zM9.333 16c0-0.909 0.032-1.8 0.093-2.667h-6.493c-0.17 0.801-0.268 1.722-0.268 2.665 0 1.429 0.224 2.806 0.638 4.097l-0.026-0.095h6.269l-0.076-0.773c-0.087-0.957-0.137-2.071-0.137-3.196 0-0.011 0-0.023 0-0.034v0.002zM20.659 15.088c-0.017-0.66-0.050-1.27-0.098-1.876l0.008 0.12h-9.132l-0.044 0.652c-0.037 0.597-0.058 1.296-0.058 1.999 0 1.416 0.085 2.811 0.25 4.182l-0.016-0.165h3.764c0.992-2.33 2.903-4.105 5.265-4.894l0.061-0.018zM29.339 16c0-0.915-0.093-1.805-0.268-2.667h-6.493l0.052 0.875c0.007 0.16 0.013 0.323 0.017 0.487 0.209-0.018 0.452-0.028 0.697-0.028 2.309 0 4.407 0.906 5.957 2.382l-0.004-0.003c0.027-0.345 0.040-0.693 0.040-1.045zM28.499 11.333c-1.497-3.918-4.671-6.898-8.62-8.101l-0.095-0.025 0.144 0.227 0.216 0.368c1.063 1.888 1.839 4.509 2.233 7.529h6.12zM9.709 10.747c0.464-3.1 1.336-5.74 2.511-7.539l-0.163 0.049-0.405 0.133c-3.778 1.335-6.72 4.209-8.116 7.85l-0.031 0.092h6.123l0.081-0.587zM20.288 10.912c-0.76-4.856-2.528-8.245-4.285-8.245-1.809 0-3.629 3.587-4.349 8.664h8.695l-0.061-0.42zM30.667 23.333c0-4.050-3.283-7.333-7.333-7.333s-7.333 3.283-7.333 7.333v0c0 4.050 3.283 7.333 7.333 7.333s7.333-3.283 7.333-7.333v0zM23.333 23.333h2.667c0.368 0 0.667 0.298 0.667 0.667s-0.298 0.667-0.667 0.667v0h-3.333c-0 0-0 0-0 0-0.364 0-0.66-0.292-0.667-0.654v-4.014c0-0.368 0.298-0.667 0.667-0.667s0.667 0.298 0.667 0.667v0 3.335z"></path>
</svg>
