<!-- Generated by IcoMoon.io -->
<svg version="1.1" xmlns="http://www.w3.org/2000/svg" width="32" height="32" viewBox="0 0 32 32">
<title>globe-clock-filled</title>
<path d="M14.667 23.333c0-0.454 0.035-0.9 0.102-1.336l-2.895 0.001 0.077 0.393c0.849 4.146 2.454 6.938 4.050 6.938 0.281 0 0.563-0.087 0.84-0.254-1.354-1.529-2.175-3.54-2.175-5.742z"></path>
<path d="M12.22 28.79c-1.079-1.653-1.903-4.015-2.39-6.791l-5.741 0c1.642 3.253 4.577 5.741 8.13 6.791z"></path>
<path d="M9.333 15.998c0-0.909 0.032-1.8 0.093-2.666l-6.493-0.001c-0.175 0.862-0.267 1.754-0.267 2.667 0 1.394 0.214 2.738 0.61 4.001h6.27l-0.076-0.774c-0.091-1.041-0.138-2.121-0.138-3.227z"></path>
<path d="M20.659 15.086c-0.016-0.597-0.046-1.183-0.091-1.755h-9.132l-0.044 0.651c-0.038 0.657-0.058 1.33-0.058 2.016 0 1.396 0.083 2.74 0.234 4.001l3.764-0.001c0.968-2.32 2.916-4.129 5.327-4.912z"></path>
<path d="M29.337 15.998c0-0.913-0.092-1.805-0.267-2.667l-6.493 0.001 0.052 0.874c0.008 0.161 0.014 0.323 0.017 0.487 0.227-0.018 0.456-0.027 0.687-0.027 2.311 0 4.41 0.904 5.964 2.378 0.027-0.345 0.040-0.694 0.040-1.046z"></path>
<path d="M28.498 11.331c-1.458-3.901-4.69-6.936-8.714-8.124l0.144 0.227 0.216 0.368c1.063 1.888 1.838 4.509 2.233 7.53l6.121-0z"></path>
<path d="M9.709 10.745c0.464-3.099 1.336-5.739 2.511-7.538l-0.162 0.049-0.406 0.133c-3.759 1.297-6.758 4.227-8.146 7.943l6.121 0 0.082-0.586z"></path>
<path d="M20.287 10.911c-0.758-4.856-2.527-8.245-4.285-8.245-1.809 0-3.629 3.585-4.348 8.664h8.696l-0.063-0.42z"></path>
<path d="M30.667 23.333c0-4.050-3.283-7.333-7.333-7.333s-7.333 3.283-7.333 7.333c0 4.050 3.283 7.333 7.333 7.333s7.333-3.283 7.333-7.333zM23.333 23.333h2.667c0.368 0 0.667 0.299 0.667 0.667s-0.299 0.667-0.667 0.667h-3.333c-0.364 0-0.66-0.292-0.667-0.655l-0-0.012v-4c0-0.368 0.299-0.667 0.667-0.667s0.667 0.299 0.667 0.667v3.333z"></path>
</svg>
