<!-- Generated by IcoMoon.io -->
<svg version="1.1" xmlns="http://www.w3.org/2000/svg" width="32" height="32" viewBox="0 0 32 32">
<title>globe-search-filled</title>
<path d="M4.588 13.275c-1.19 1.189-1.927 2.832-1.927 4.647 0 3.627 2.941 6.568 6.568 6.568 1.369 0 2.64-0.419 3.692-1.135l-0.023 0.015 5.675 5.676c0.187 0.191 0.448 0.31 0.737 0.31 0.569 0 1.031-0.461 1.031-1.031 0-0.235-0.079-0.451-0.211-0.625l0.002 0.003-0.1-0.116-5.623-5.624c0.866-1.102 1.389-2.51 1.389-4.040 0-3.628-2.941-6.569-6.569-6.569-1.813 0-3.454 0.734-4.643 1.921l0-0zM22.205 22.001c-0.3 1.716-0.731 3.275-1.269 4.605l0.040 0.037 0.165 0.187c0.293 0.393 0.459 0.832 0.504 1.269 2.743-1.296 4.922-3.41 6.266-6.023l0.035-0.075h-5.741zM16.333 22l3.045 3.049c0.269-0.8 0.508-1.691 0.707-2.656l0.076-0.392-3.827-0.001zM12.419 14.733c0.844 0.82 1.368 1.966 1.368 3.234 0 2.489-2.018 4.507-4.507 4.507-1.268 0-2.415-0.524-3.234-1.368l-0.001-0.001c-0.808-0.814-1.307-1.935-1.307-3.173 0-2.489 2.018-4.507 4.507-4.507 1.238 0 2.359 0.499 3.174 1.307l-0-0zM20.6 13.333h-4.933c0.917 1.275 1.467 2.868 1.467 4.59 0 0.739-0.101 1.454-0.291 2.133l0.013-0.056h3.613c0.149-1.205 0.234-2.6 0.234-4.015 0-0.704-0.021-1.403-0.063-2.096l0.005 0.095-0.045-0.651zM22.609 13.333c0.060 0.798 0.095 1.729 0.095 2.667 0 1.136-0.050 2.26-0.149 3.37l0.010-0.143-0.076 0.773h6.271c0.388-1.196 0.612-2.573 0.612-4.002 0-0.943-0.097-1.864-0.283-2.752l0.015 0.087h-6.493zM19.816 3.209c1.175 1.8 2.048 4.439 2.511 7.539l0.083 0.587h6.12c-1.426-3.733-4.368-6.608-8.052-7.915l-0.094-0.029-0.405-0.133-0.163-0.048zM16.035 2.669c-1.703 0-3.415 3.176-4.211 7.785 0.62 0.213 1.216 0.507 1.775 0.877l6.784 0.001c-0.72-5.079-2.54-8.664-4.348-8.664zM12.252 3.209c-4.043 1.227-7.216 4.207-8.682 8.032l-0.031 0.092h1.327c1.227-0.824 2.738-1.316 4.364-1.316 0.221 0 0.439 0.009 0.655 0.027l-0.028-0.002c0.429-2.477 1.128-4.627 2.036-6.24l0.216-0.367 0.144-0.227z"></path>
</svg>
