<!-- Generated by IcoMoon.io -->
<svg version="1.1" xmlns="http://www.w3.org/2000/svg" width="32" height="32" viewBox="0 0 32 32">
<title>globe-desktop-filled</title>
<path d="M14.667 22.001h-2.794l0.077 0.393c0.849 4.146 2.454 6.938 4.050 6.938 0.66 0 1.322-0.478 1.931-1.332h-0.598c-1.473 0-2.667-1.194-2.667-2.667v-3.332z"></path>
<path d="M14.667 20.001h-3.101c-0.151-1.261-0.234-2.604-0.234-4.001 0-0.686 0.020-1.359 0.058-2.016l0.044-0.651h9.132c0.067 0.861 0.103 1.752 0.103 2.666h-3.335c-1.473 0-2.667 1.194-2.667 2.667v1.335z"></path>
<path d="M29.335 16h-6.667c0-0.606-0.014-1.203-0.042-1.791l-0.052-0.875 6.493-0.001c0.175 0.862 0.267 1.753 0.267 2.666z"></path>
<path d="M9.829 22.001l-5.741 0 0.195 0.372c1.673 3.070 4.518 5.41 7.935 6.419-1.079-1.653-1.903-4.015-2.39-6.791z"></path>
<path d="M9.425 13.334l-6.493-0.001c-0.175 0.862-0.267 1.754-0.267 2.667 0 1.394 0.214 2.738 0.61 4.001h6.27l-0.076-0.774c-0.091-1.041-0.138-2.121-0.138-3.227 0-0.909 0.032-1.8 0.093-2.666z"></path>
<path d="M19.782 3.209l0.144 0.227c1.174 1.908 2.028 4.675 2.449 7.898l6.121-0c-1.458-3.901-4.69-6.936-8.714-8.124z"></path>
<path d="M12.218 3.209l-0.162 0.049c-3.949 1.221-7.114 4.227-8.552 8.075l6.121 0 0.082-0.586c0.464-3.099 1.336-5.739 2.511-7.538z"></path>
<path d="M20.285 10.914c-0.758-4.856-2.527-8.245-4.285-8.245-1.809 0-3.629 3.585-4.348 8.664h8.695l-0.062-0.42z"></path>
<path d="M16 18.667c0-0.736 0.597-1.333 1.333-1.333h12c0.736 0 1.333 0.597 1.333 1.333v6.667c0 0.736-0.597 1.333-1.333 1.333h-4v2.667h0.667c0.368 0 0.667 0.299 0.667 0.667s-0.299 0.667-0.667 0.667h-5.333c-0.368 0-0.667-0.299-0.667-0.667s0.299-0.667 0.667-0.667h0.667v-2.667h-4c-0.736 0-1.333-0.597-1.333-1.333v-6.667z"></path>
</svg>
