<!-- Generated by IcoMoon.io -->
<svg version="1.1" xmlns="http://www.w3.org/2000/svg" width="32" height="32" viewBox="0 0 32 32">
<title>globe-add-filled</title>
<path d="M23.333 16c4.050 0 7.333 3.283 7.333 7.333s-3.283 7.333-7.333 7.333c-4.050 0-7.333-3.283-7.333-7.333s3.283-7.333 7.333-7.333zM14.769 21.997c-0.067 0.435-0.102 0.882-0.102 1.336 0 2.203 0.822 4.213 2.175 5.742-0.277 0.167-0.559 0.254-0.84 0.254-1.596 0-3.201-2.792-4.050-6.938l-0.077-0.393 2.895-0.001zM9.831 21.998c0.486 2.776 1.311 5.138 2.39 6.791-3.554-1.050-6.489-3.538-8.13-6.791l5.741-0zM23.333 18.666l-0.12 0.011c-0.272 0.049-0.487 0.264-0.536 0.536l-0.011 0.12-0.001 3.333-3.336 0.001-0.12 0.011c-0.272 0.049-0.487 0.264-0.536 0.536l-0.011 0.12 0.011 0.12c0.049 0.272 0.264 0.487 0.536 0.536l0.12 0.011 3.337-0.001 0.001 3.339 0.011 0.12c0.049 0.272 0.264 0.487 0.536 0.536l0.12 0.011 0.12-0.011c0.272-0.049 0.487-0.264 0.536-0.536l0.011-0.12-0.001-3.339 3.339 0.001 0.12-0.011c0.272-0.049 0.487-0.264 0.536-0.536l0.011-0.12-0.011-0.12c-0.049-0.272-0.264-0.487-0.536-0.536l-0.12-0.011-3.34-0.001 0.001-3.333-0.011-0.12c-0.049-0.272-0.264-0.487-0.536-0.536l-0.12-0.011zM9.427 13.332c-0.062 0.867-0.093 1.758-0.093 2.666 0 1.106 0.047 2.186 0.138 3.227l0.076 0.774h-6.27c-0.397-1.263-0.61-2.607-0.61-4.001 0-0.913 0.092-1.805 0.267-2.667l6.493 0.001zM20.568 13.331c0.045 0.572 0.075 1.158 0.091 1.755-2.411 0.783-4.359 2.592-5.327 4.912l-3.764 0.001c-0.151-1.261-0.234-2.605-0.234-4.001 0-0.686 0.020-1.359 0.058-2.016l0.044-0.651h9.132zM29.071 13.331c0.175 0.862 0.267 1.754 0.267 2.667 0 0.352-0.014 0.701-0.040 1.046-1.554-1.473-3.653-2.378-5.964-2.378-0.231 0-0.46 0.009-0.687 0.027-0.003-0.164-0.010-0.326-0.017-0.487l-0.052-0.874 6.493-0.001zM19.784 3.207c4.024 1.188 7.257 4.223 8.714 8.124l-6.121 0c-0.394-3.021-1.17-5.642-2.233-7.53l-0.216-0.368-0.144-0.227zM12.22 3.207c-1.174 1.799-2.047 4.439-2.511 7.538l-0.082 0.586-6.121-0c1.388-3.716 4.387-6.646 8.146-7.943l0.406-0.133 0.162-0.049zM16.002 2.667c1.758 0 3.527 3.389 4.285 8.245l0.063 0.42h-8.696c0.719-5.079 2.539-8.664 4.348-8.664z"></path>
</svg>
