<!-- Generated by IcoMoon.io -->
<svg version="1.1" xmlns="http://www.w3.org/2000/svg" width="32" height="32" viewBox="0 0 32 32">
<title>globe-prohibited-filled</title>
<path d="M11.709 10.4c0.269-1.397 0.635-2.651 1.072-3.712 0.482-1.173 1.037-2.070 1.613-2.661 0.573-0.589 1.115-0.827 1.606-0.827s1.034 0.238 1.606 0.827c0.576 0.592 1.131 1.488 1.613 2.661 0.437 1.061 0.803 2.315 1.072 3.712h-8.582zM11.301 6.080c0.373-0.929 0.817-1.73 1.347-2.466l-0.023 0.034c-3.605 1.012-6.509 3.463-8.104 6.677l-0.034 0.075h5.595c0.291-1.611 0.706-3.075 1.219-4.32zM20.699 6.080c-0.373-0.928-0.817-1.729-1.347-2.465l0.023 0.034c3.605 1.012 6.508 3.462 8.104 6.676l0.034 0.075h-5.595c-0.291-1.611-0.706-3.075-1.219-4.32zM22.16 12h6.003c0.404 1.19 0.637 2.561 0.637 3.987 0 0.148-0.003 0.294-0.007 0.441l0.001-0.021c-1.504-1.25-3.455-2.009-5.583-2.009-0.298 0-0.592 0.015-0.882 0.044l0.037-0.003c-0.043-0.922-0.116-1.764-0.221-2.596l0.016 0.158zM20.776 14.738c-0.040-1.015-0.122-1.961-0.246-2.893l0.017 0.155h-9.094c-0.161 1.189-0.253 2.562-0.253 3.958 0 0.015 0 0.030 0 0.045v-0.002c0 1.4 0.090 2.742 0.253 4h3.547c1.017-2.55 3.116-4.48 5.714-5.247l0.062-0.016zM14.544 21.6h-2.835c0.269 1.397 0.635 2.651 1.072 3.712 0.482 1.173 1.037 2.070 1.613 2.661 0.573 0.589 1.115 0.827 1.606 0.827 0.122 0 0.246-0.016 0.374-0.046-1.229-1.497-1.974-3.432-1.974-5.541 0-0.004 0-0.009 0-0.013v0.001c0-0.546 0.050-1.082 0.144-1.6zM4.485 21.6c1.63 3.289 4.533 5.739 8.049 6.729l0.090 0.022c-0.506-0.701-0.951-1.501-1.297-2.352l-0.028-0.077c-0.512-1.248-0.928-2.71-1.219-4.322h-5.594zM9.838 20h-6.002c-0.404-1.19-0.637-2.56-0.637-3.985 0-0.005 0-0.011 0-0.016v0.001c0-1.397 0.224-2.741 0.637-4h6.003c-0.157 1.272-0.24 2.614-0.24 4s0.083 2.728 0.24 4zM15.998 23.2c0 3.976 3.224 7.2 7.2 7.2s7.2-3.224 7.2-7.2v0c0-3.976-3.224-7.2-7.2-7.2s-7.2 3.224-7.2 7.2v0zM19.845 27.685l7.84-7.84c0.699 0.924 1.12 2.093 1.12 3.36 0 3.093-2.507 5.6-5.6 5.6-1.267 0-2.436-0.421-3.374-1.13l0.014 0.010zM18.714 26.554c-0.699-0.924-1.12-2.093-1.12-3.36 0-3.093 2.507-5.6 5.6-5.6 1.267 0 2.436 0.421 3.374 1.13l-0.014-0.010-7.84 7.84z"></path>
</svg>
