<!-- Generated by IcoMoon.io -->
<svg version="1.1" xmlns="http://www.w3.org/2000/svg" width="32" height="32" viewBox="0 0 32 32">
<title>globe-shield-filled</title>
<path d="M11.872 22.001h4.128l0 0.666c0 2.304 0.788 4.096 1.844 5.452-0.585 0.779-1.215 1.213-1.844 1.213-1.596 0-3.201-2.792-4.050-6.938l-0.077-0.393zM11.565 20.001h4.435l-0-2.001c0-1.132 0.902-1.937 1.879-2.025 1.031-0.093 1.98-0.44 2.779-0.853-0.015-0.609-0.046-1.205-0.092-1.788h-9.132l-0.044 0.651c-0.038 0.657-0.058 1.33-0.058 2.016 0 1.396 0.083 2.74 0.234 4.001zM29.068 13.334c0.166 0.816 0.257 1.659 0.266 2.521-1.773-0.383-3.221-1.43-3.953-2.058-0.277-0.237-0.602-0.391-0.942-0.462l4.629-0.001zM4.087 22.001l5.741-0c0.486 2.776 1.311 5.138 2.39 6.791-3.417-1.009-6.262-3.349-7.935-6.419l-0.195-0.372zM2.931 13.334l6.493 0.001c-0.062 0.867-0.093 1.758-0.093 2.666 0 1.106 0.047 2.186 0.138 3.227l0.076 0.774h-6.27c-0.397-1.263-0.61-2.607-0.61-4.001 0-0.913 0.092-1.805 0.267-2.667zM19.925 3.436l-0.144-0.227c4.024 1.188 7.256 4.223 8.714 8.124l-6.121 0c-0.421-3.223-1.275-5.99-2.449-7.898zM12.055 3.258l0.162-0.049c-1.174 1.799-2.047 4.439-2.511 7.538l-0.082 0.586-6.121-0c1.438-3.848 4.603-6.854 8.552-8.075zM15.999 2.669c1.758 0 3.527 3.389 4.285 8.245l0.062 0.42h-8.695c0.719-5.079 2.539-8.664 4.348-8.664zM30 17.303c-2.543-0.23-4.579-1.716-5.487-2.495-0.289-0.248-0.737-0.248-1.027-0-0.908 0.779-2.945 2.265-5.487 2.495-0.367 0.033-0.666 0.329-0.666 0.697l0 4.667c0 5.63 5.458 7.621 6.497 7.949 0.111 0.035 0.228 0.035 0.339-0 1.039-0.328 6.496-2.319 6.496-7.949l0-4.667c0-0.368-0.299-0.664-0.666-0.697z"></path>
</svg>
