<!-- Generated by IcoMoon.io -->
<svg version="1.1" xmlns="http://www.w3.org/2000/svg" width="32" height="32" viewBox="0 0 32 32">
<title>grid-filled</title>
<path d="M11.667 17.333c1.657 0 3 1.343 3 3v4.667c0 1.657-1.343 3-3 3h-4.667c-1.657 0-3-1.343-3-3v-4.667c0-1.657 1.343-3 3-3h4.667zM25 17.333c1.657 0 3 1.343 3 3v4.667c0 1.657-1.343 3-3 3h-4.667c-1.657 0-3-1.343-3-3v-4.667c0-1.657 1.343-3 3-3h4.667zM11.667 4c1.657 0 3 1.343 3 3v4.667c0 1.657-1.343 3-3 3h-4.667c-1.657 0-3-1.343-3-3v-4.667c0-1.657 1.343-3 3-3h4.667zM25 4c1.657 0 3 1.343 3 3v4.667c0 1.657-1.343 3-3 3h-4.667c-1.657 0-3-1.343-3-3v-4.667c0-1.657 1.343-3 3-3h4.667z"></path>
</svg>
