<!-- Generated by IcoMoon.io -->
<svg version="1.1" xmlns="http://www.w3.org/2000/svg" width="32" height="32" viewBox="0 0 32 32">
<title>grid-kanban-filled</title>
<path d="M4.8 3.2c-0.884 0-1.6 0.716-1.6 1.6v0 3.2c0 0.884 0.716 1.6 1.6 1.6v0h8c0.884 0 1.6-0.716 1.6-1.6v0-3.2c0-0.884-0.716-1.6-1.6-1.6v0h-8zM4.8 12.8c-0.884 0-1.6 0.716-1.6 1.6v0 3.2c0 0.884 0.716 1.6 1.6 1.6v0h8c0.884 0 1.6-0.716 1.6-1.6v0-3.2c0-0.884-0.716-1.6-1.6-1.6v0h-8zM4.8 22.4c-0.884 0-1.6 0.716-1.6 1.6v0 3.2c0 0.884 0.716 1.6 1.6 1.6v0h8c0.884 0 1.6-0.716 1.6-1.6v0-3.2c0-0.884-0.716-1.6-1.6-1.6v0h-8zM19.2 3.2c-0.884 0-1.6 0.716-1.6 1.6v0 3.2c0 0.884 0.716 1.6 1.6 1.6v0h8c0.884 0 1.6-0.716 1.6-1.6v0-3.2c0-0.884-0.716-1.6-1.6-1.6v0h-8zM19.2 12.8c-0.884 0-1.6 0.716-1.6 1.6v0 3.2c0 0.884 0.716 1.6 1.6 1.6v0h8c0.884 0 1.6-0.716 1.6-1.6v0-3.2c0-0.884-0.716-1.6-1.6-1.6v0h-8z"></path>
</svg>
