<!-- Generated by IcoMoon.io -->
<svg version="1.1" xmlns="http://www.w3.org/2000/svg" width="32" height="32" viewBox="0 0 32 32">
<title>grid-dots-filled</title>
<path d="M16 22.857c1.578 0 2.857 1.279 2.857 2.857s-1.279 2.857-2.857 2.857v0c-1.578 0-2.857-1.279-2.857-2.857s1.279-2.857 2.857-2.857v0zM25.714 22.857c1.578 0 2.857 1.279 2.857 2.857s-1.279 2.857-2.857 2.857v0c-1.578 0-2.857-1.279-2.857-2.857s1.279-2.857 2.857-2.857v0zM6.286 22.857c1.578 0 2.857 1.279 2.857 2.857s-1.279 2.857-2.857 2.857v0c-1.578 0-2.857-1.279-2.857-2.857s1.279-2.857 2.857-2.857v0zM16 13.143c1.578 0 2.857 1.279 2.857 2.857s-1.279 2.857-2.857 2.857v0c-1.578 0-2.857-1.279-2.857-2.857s1.279-2.857 2.857-2.857v0zM25.714 13.143c1.578 0 2.857 1.279 2.857 2.857s-1.279 2.857-2.857 2.857v0c-1.578 0-2.857-1.279-2.857-2.857s1.279-2.857 2.857-2.857v0zM6.286 13.143c1.578 0 2.857 1.279 2.857 2.857s-1.279 2.857-2.857 2.857v0c-1.578 0-2.857-1.279-2.857-2.857s1.279-2.857 2.857-2.857v0zM16 3.429c1.578 0 2.857 1.279 2.857 2.857s-1.279 2.857-2.857 2.857v0c-1.578 0-2.857-1.279-2.857-2.857s1.279-2.857 2.857-2.857v0zM25.714 3.429c1.578 0 2.857 1.279 2.857 2.857s-1.279 2.857-2.857 2.857v0c-1.578 0-2.857-1.279-2.857-2.857s1.279-2.857 2.857-2.857v0zM6.286 3.429c1.578 0 2.857 1.279 2.857 2.857s-1.279 2.857-2.857 2.857v0c-1.578 0-2.857-1.279-2.857-2.857s1.279-2.857 2.857-2.857v0z"></path>
</svg>
