<!-- Generated by IcoMoon.io -->
<svg version="1.1" xmlns="http://www.w3.org/2000/svg" width="32" height="32" viewBox="0 0 32 32">
<title>grid-filled</title>
<path d="M12.286 17.143c1.42 0 2.571 1.151 2.571 2.571v0 6.286c0 1.42-1.151 2.571-2.571 2.571v0h-6.286c-1.42 0-2.571-1.151-2.571-2.571v0-6.286c0-1.42 1.151-2.571 2.571-2.571v0h6.286zM26 17.143c1.42 0 2.571 1.151 2.571 2.571v0 6.286c0 1.42-1.151 2.571-2.571 2.571v0h-6.286c-1.42 0-2.571-1.151-2.571-2.571v0-6.286c0-1.42 1.151-2.571 2.571-2.571v0h6.286zM12.286 3.429c1.42 0 2.571 1.151 2.571 2.571v0 6.286c0 1.42-1.151 2.571-2.571 2.571v0h-6.286c-1.42 0-2.571-1.151-2.571-2.571v0-6.286c0-1.42 1.151-2.571 2.571-2.571v0h6.286zM26 3.429c1.42 0 2.571 1.151 2.571 2.571v0 6.286c0 1.42-1.151 2.571-2.571 2.571v0h-6.286c-1.42 0-2.571-1.151-2.571-2.571v0-6.286c0-1.42 1.151-2.571 2.571-2.571v0h6.286z"></path>
</svg>
