<!-- Generated by IcoMoon.io -->
<svg version="1.1" xmlns="http://www.w3.org/2000/svg" width="32" height="32" viewBox="0 0 32 32">
<title>grid-circles-filled</title>
<path d="M9.143 14.857c3.156 0 5.714-2.558 5.714-5.714s-2.558-5.714-5.714-5.714v0c-3.156 0-5.714 2.558-5.714 5.714s2.558 5.714 5.714 5.714v0zM22.857 14.857c3.156 0 5.714-2.558 5.714-5.714s-2.558-5.714-5.714-5.714v0c-3.156 0-5.714 2.558-5.714 5.714s2.558 5.714 5.714 5.714v0zM14.857 22.857c0 3.156-2.558 5.714-5.714 5.714s-5.714-2.558-5.714-5.714v0c0-3.156 2.558-5.714 5.714-5.714s5.714 2.558 5.714 5.714v0zM22.857 28.571c3.156 0 5.714-2.558 5.714-5.714s-2.558-5.714-5.714-5.714v0c-3.156 0-5.714 2.558-5.714 5.714s2.558 5.714 5.714 5.714v0z"></path>
</svg>
