<!-- Generated by IcoMoon.io -->
<svg version="1.1" xmlns="http://www.w3.org/2000/svg" width="32" height="32" viewBox="0 0 32 32">
<title>group-filled</title>
<path d="M6.667 9.333c1.473 0 2.667-1.194 2.667-2.667s-1.194-2.667-2.667-2.667c-1.473 0-2.667 1.194-2.667 2.667s1.194 2.667 2.667 2.667z"></path>
<path d="M25.333 9.333c1.473 0 2.667-1.194 2.667-2.667s-1.194-2.667-2.667-2.667c-1.473 0-2.667 1.194-2.667 2.667s1.194 2.667 2.667 2.667z"></path>
<path d="M28 25.333c0 1.473-1.194 2.667-2.667 2.667s-2.667-1.194-2.667-2.667c0-1.473 1.194-2.667 2.667-2.667s2.667 1.194 2.667 2.667z"></path>
<path d="M6.667 28c1.473 0 2.667-1.194 2.667-2.667s-1.194-2.667-2.667-2.667c-1.473 0-2.667 1.194-2.667 2.667s1.194 2.667 2.667 2.667z"></path>
<path d="M10.439 8c0.147-0.417 0.228-0.866 0.228-1.333s-0.080-0.916-0.228-1.333h6.228c1.841 0 3.333 1.492 3.333 3.333v3.333h3.333c1.841 0 3.333 1.492 3.333 3.333v6.228c-0.417-0.147-0.866-0.228-1.333-0.228s-0.916 0.080-1.333 0.228v-6.228c0-0.368-0.299-0.667-0.667-0.667h-3.333v2c0 1.841-1.492 3.333-3.333 3.333h-2v3.333c0 0.368 0.299 0.667 0.667 0.667h6.228c-0.147 0.417-0.228 0.866-0.228 1.333s0.080 0.916 0.228 1.333h-6.228c-1.841 0-3.333-1.492-3.333-3.333v-3.333h-3.333c-1.841 0-3.333-1.492-3.333-3.333v-6.228c0.417 0.147 0.866 0.228 1.333 0.228s0.916-0.080 1.333-0.228v6.228c0 0.368 0.298 0.667 0.667 0.667h3.333v-2c0-1.841 1.492-3.333 3.333-3.333h2v-3.333c0-0.368-0.299-0.667-0.667-0.667h-6.228zM17.333 16.667v-2h-2c-0.368 0-0.667 0.299-0.667 0.667v2h2c0.368 0 0.667-0.299 0.667-0.667z"></path>
</svg>
