<!-- Generated by IcoMoon.io -->
<svg version="1.1" xmlns="http://www.w3.org/2000/svg" width="32" height="32" viewBox="0 0 32 32">
<title>group-return-filled</title>
<path d="M9.333 6.667c0 1.473-1.194 2.667-2.667 2.667s-2.667-1.194-2.667-2.667c0-1.473 1.194-2.667 2.667-2.667s2.667 1.194 2.667 2.667zM28 6.667c0 1.473-1.194 2.667-2.667 2.667s-2.667-1.194-2.667-2.667c0-1.473 1.194-2.667 2.667-2.667s2.667 1.194 2.667 2.667zM9.333 25.333c0 1.473-1.194 2.667-2.667 2.667s-2.667-1.194-2.667-2.667c0-1.473 1.194-2.667 2.667-2.667s2.667 1.194 2.667 2.667zM10.667 6.667c0 0.468-0.080 0.916-0.228 1.333h6.228c0.368 0 0.667 0.298 0.667 0.667v3.333h-2c-1.841 0-3.333 1.492-3.333 3.333v2h-3.333c-0.368 0-0.667-0.299-0.667-0.667v-6.228c-0.417 0.147-0.866 0.228-1.333 0.228s-0.916-0.080-1.333-0.228v6.228c0 1.841 1.492 3.333 3.333 3.333h3.333v3.333c0 1.84 1.491 3.332 3.331 3.333-0.428-1.026-0.664-2.152-0.664-3.333v-8c0-0.368 0.299-0.667 0.667-0.667h8c1.181 0 2.307 0.236 3.333 0.664-0.001-1.84-1.493-3.331-3.333-3.331h-3.333v-3.333c0-1.841-1.492-3.333-3.333-3.333h-6.228c0.147 0.417 0.228 0.866 0.228 1.333zM30.667 23.333c0 4.050-3.283 7.333-7.333 7.333s-7.333-3.283-7.333-7.333c0-4.050 3.283-7.333 7.333-7.333s7.333 3.283 7.333 7.333zM20.943 21.333l0.862-0.862c0.26-0.26 0.26-0.683 0-0.943s-0.683-0.26-0.943 0l-2 2c-0.26 0.26-0.26 0.683 0 0.943l2 2c0.26 0.26 0.683 0.26 0.943 0s0.26-0.683 0-0.943l-0.862-0.862h2.724c1.657 0 3 1.343 3 3v0.333c0 0.368 0.299 0.667 0.667 0.667s0.667-0.299 0.667-0.667v-0.333c0-2.393-1.94-4.333-4.333-4.333h-2.724z"></path>
</svg>
