<!-- Generated by IcoMoon.io -->
<svg version="1.1" xmlns="http://www.w3.org/2000/svg" width="32" height="32" viewBox="0 0 32 32">
<title>group-filled</title>
<path d="M6.667 9.333c1.473 0 2.667-1.194 2.667-2.667s-1.194-2.667-2.667-2.667v0c-1.473 0-2.667 1.194-2.667 2.667s1.194 2.667 2.667 2.667v0zM25.333 9.333c1.473 0 2.667-1.194 2.667-2.667s-1.194-2.667-2.667-2.667v0c-1.473 0-2.667 1.194-2.667 2.667s1.194 2.667 2.667 2.667v0zM28 25.333c0 1.473-1.194 2.667-2.667 2.667s-2.667-1.194-2.667-2.667v0c0-1.473 1.194-2.667 2.667-2.667s2.667 1.194 2.667 2.667v0zM6.667 28c1.473 0 2.667-1.194 2.667-2.667s-1.194-2.667-2.667-2.667v0c-1.473 0-2.667 1.194-2.667 2.667s1.194 2.667 2.667 2.667v0zM10.44 8c0.145-0.397 0.229-0.855 0.229-1.333s-0.084-0.936-0.238-1.361l0.009 0.028h6.227c1.841 0 3.333 1.492 3.333 3.333v0 3.333h3.333c1.841 0 3.333 1.492 3.333 3.333v0 6.227c-0.397-0.145-0.855-0.229-1.333-0.229s-0.936 0.084-1.361 0.238l0.028-0.009v-6.227c0-0.368-0.298-0.667-0.667-0.667v0h-3.333v2c0 1.841-1.492 3.333-3.333 3.333v0h-2v3.333c0 0.368 0.298 0.667 0.667 0.667v0h6.227c-0.145 0.397-0.229 0.855-0.229 1.333s0.084 0.936 0.238 1.361l-0.009-0.028h-6.227c-1.841 0-3.333-1.492-3.333-3.333v0-3.333h-3.333c-1.841 0-3.333-1.492-3.333-3.333v0-6.227c0.397 0.145 0.855 0.229 1.333 0.229s0.936-0.084 1.361-0.238l-0.028 0.009v6.227c0 0.368 0.298 0.667 0.667 0.667v0h3.333v-2c0-1.841 1.492-3.333 3.333-3.333v0h2v-3.333c0-0.368-0.298-0.667-0.667-0.667v0h-6.227zM17.333 16.667v-2h-2c-0.368 0-0.667 0.298-0.667 0.667v0 2h2c0.368 0 0.667-0.298 0.667-0.667v0z"></path>
</svg>
