<!-- Generated by IcoMoon.io -->
<svg version="1.1" xmlns="http://www.w3.org/2000/svg" width="32" height="32" viewBox="0 0 32 32">
<title>group-dismiss-filled</title>
<path d="M9.333 6.667c0 1.473-1.194 2.667-2.667 2.667s-2.667-1.194-2.667-2.667v0c0-1.473 1.194-2.667 2.667-2.667s2.667 1.194 2.667 2.667v0zM28 6.667c0 1.473-1.194 2.667-2.667 2.667s-2.667-1.194-2.667-2.667v0c0-1.473 1.194-2.667 2.667-2.667s2.667 1.194 2.667 2.667v0zM9.333 25.333c0 1.473-1.194 2.667-2.667 2.667s-2.667-1.194-2.667-2.667v0c0-1.473 1.194-2.667 2.667-2.667s2.667 1.194 2.667 2.667v0zM10.667 6.667c0 0.467-0.080 0.916-0.227 1.333h6.227c0.368 0 0.667 0.298 0.667 0.667v0 3.333h-2c-1.841 0-3.333 1.492-3.333 3.333v0 2h-3.333c-0.368 0-0.667-0.298-0.667-0.667v0-6.227c-0.397 0.145-0.855 0.229-1.333 0.229s-0.936-0.084-1.361-0.238l0.028 0.009v6.227c0 1.841 1.492 3.333 3.333 3.333v0h3.333v3.333c0 1.84 1.491 3.332 3.331 3.333h0c-0.42-0.981-0.664-2.123-0.664-3.322 0-0.004 0-0.008 0-0.012v0.001-8c0-0.368 0.298-0.667 0.667-0.667v0h8c1.181 0 2.307 0.236 3.333 0.664-0.002-1.84-1.493-3.331-3.333-3.331h-3.333v-3.333c0-1.841-1.492-3.333-3.333-3.333v0h-6.227c0.147 0.417 0.227 0.867 0.227 1.333zM30.667 23.333c0 4.050-3.283 7.333-7.333 7.333s-7.333-3.283-7.333-7.333v0c0-4.050 3.283-7.333 7.333-7.333s7.333 3.283 7.333 7.333v0zM21.139 20.195c-0.121-0.121-0.288-0.195-0.472-0.195-0.369 0-0.668 0.299-0.668 0.668 0 0.184 0.075 0.351 0.195 0.472v0l2.196 2.195-2.196 2.195c-0.121 0.121-0.195 0.288-0.195 0.472 0 0.369 0.299 0.668 0.668 0.668 0.184 0 0.351-0.075 0.472-0.195l2.195-2.196 2.195 2.196c0.121 0.121 0.288 0.195 0.472 0.195 0.369 0 0.668-0.299 0.668-0.668 0-0.184-0.075-0.351-0.195-0.472l-2.196-2.195 2.196-2.195c0.121-0.121 0.195-0.288 0.195-0.472 0-0.369-0.299-0.668-0.668-0.668-0.184 0-0.351 0.075-0.472 0.195l-2.195 2.196-2.195-2.196z"></path>
</svg>
