<!-- Generated by IcoMoon.io -->
<svg version="1.1" xmlns="http://www.w3.org/2000/svg" width="32" height="32" viewBox="0 0 32 32">
<title>group-list-filled</title>
<path d="M4.001 15.995l4 0.005c0.734 0.003 1.328 0.599 1.328 1.333 0 0.681-0.51 1.243-1.169 1.323l-0.006 0.001-0.153 0.009-2.667-0.005v6.671l2.667 0.001c0.681 0 1.243 0.511 1.323 1.171l0.001 0.006 0.009 0.156c-0 0.681-0.511 1.243-1.171 1.323l-0.006 0.001-0.156 0.009h-4c-0.681-0-1.243-0.511-1.323-1.171l-0.001-0.006-0.009-0.156v-9.339c0-0 0-0.001 0-0.001 0-0.682 0.513-1.245 1.174-1.324l0.006-0.001 0.153-0.008zM28 22.667c0.736 0.001 1.332 0.597 1.332 1.333 0 0.681-0.51 1.243-1.169 1.323l-0.006 0.001-0.156 0.009h-16c-0.736-0.001-1.332-0.597-1.332-1.333 0-0.681 0.51-1.243 1.169-1.323l0.006-0.001 0.156-0.009h16zM28 18.667c0.736 0.001 1.332 0.597 1.332 1.333 0 0.681-0.51 1.243-1.169 1.323l-0.006 0.001-0.156 0.009h-16c-0.736-0.001-1.332-0.597-1.332-1.333 0-0.681 0.51-1.243 1.169-1.323l0.006-0.001 0.156-0.009h16zM8 2.667c0.736 0.001 1.332 0.597 1.332 1.333 0 0.681-0.51 1.243-1.169 1.323l-0.006 0.001-0.156 0.009h-2.667v6.66h2.667c0.681 0 1.243 0.511 1.323 1.171l0.001 0.006 0.009 0.156c-0 0.681-0.511 1.243-1.171 1.323l-0.006 0.001-0.156 0.009h-4c-0.681-0-1.243-0.511-1.323-1.171l-0.001-0.006-0.009-0.156v-9.327c0-0.681 0.511-1.243 1.171-1.323l0.006-0.001 0.156-0.009h4zM28 9.333c0.736 0.001 1.332 0.597 1.332 1.333 0 0.681-0.51 1.243-1.169 1.323l-0.006 0.001-0.156 0.009h-16c-0.736-0.001-1.332-0.597-1.332-1.333 0-0.681 0.51-1.243 1.169-1.323l0.006-0.001 0.156-0.009h16zM28 5.333c0.736 0.001 1.332 0.597 1.332 1.333 0 0.681-0.51 1.243-1.169 1.323l-0.006 0.001-0.156 0.009h-16c-0.736-0.001-1.332-0.597-1.332-1.333 0-0.681 0.51-1.243 1.169-1.323l0.006-0.001 0.156-0.009h16z"></path>
</svg>
