<!-- Generated by IcoMoon.io -->
<svg version="1.1" xmlns="http://www.w3.org/2000/svg" width="32" height="32" viewBox="0 0 32 32">
<title>guardian-filled</title>
<path d="M14 6.667c0 2.209-1.791 4-4 4s-4-1.791-4-4c0-2.209 1.791-4 4-4s4 1.791 4 4zM22 13.333c1.841 0 3.333-1.492 3.333-3.333s-1.492-3.333-3.333-3.333c-1.841 0-3.333 1.492-3.333 3.333s1.492 3.333 3.333 3.333zM17.862 14.333c0.090 0.318 0.138 0.653 0.138 1v4c0 0.23-0.029 0.454-0.084 0.667-0.296 1.15-1.34 2-2.583 2-0.23 0-0.454-0.029-0.667-0.084v4.751c0 1.473-1.194 2.667-2.667 2.667-0.631 0-1.21-0.219-1.667-0.585-0.457 0.366-1.036 0.585-1.667 0.585-1.473 0-2.667-1.194-2.667-2.667v-4.751c-0.213 0.055-0.436 0.084-0.667 0.084-1.473 0-2.667-1.194-2.667-2.667v-4c0-2.025 1.642-3.667 3.667-3.667h8c1.678 0 3.093 1.128 3.529 2.667zM19.233 14.333h7.1c2.025 0 3.667 1.642 3.667 3.667v2.333c0 1.473-1.194 2.667-2.667 2.667-0.23 0-0.454-0.029-0.667-0.084v3.751c0 1.473-1.194 2.667-2.667 2.667-0.631 0-1.21-0.219-1.667-0.585-0.457 0.366-1.036 0.585-1.667 0.585-1.473 0-2.667-1.194-2.667-2.667v-4.352c0.818-0.732 1.333-1.797 1.333-2.981v-4c0-0.342-0.034-0.677-0.1-1z"></path>
</svg>
