<!-- Generated by IcoMoon.io -->
<svg version="1.1" xmlns="http://www.w3.org/2000/svg" width="32" height="32" viewBox="0 0 32 32">
<title>guardian-filled</title>
<path d="M11.863 11c1.272-0.594 2.137-1.862 2.137-3.333 0-2.025-1.642-3.667-3.667-3.667-0.555 0-1.081 0.123-1.553 0.344l0.023-0.009c-1.272 0.594-2.137 1.862-2.137 3.333 0 2.025 1.642 3.667 3.667 3.667 0.555 0 1.081-0.123 1.553-0.344l-0.023 0.009zM18.998 17.003l0.002 0.164v2.167c0 0.033 0 0.065-0.001 0.098-0.023 0.981-0.398 1.871-1.002 2.552l0.004-0.004v4.354c0 0 0 0 0 0 0 1.289 1.045 2.333 2.333 2.333 0.573 0 1.097-0.206 1.503-0.549l-0.003 0.003c0.403 0.34 0.927 0.546 1.5 0.546 1.289 0 2.333-1.045 2.333-2.333 0 0 0-0 0-0v0-3.825c0.2 0.062 0.429 0.097 0.667 0.097s0.467-0.036 0.683-0.102l-0.017 0.004c0.972-0.297 1.666-1.186 1.667-2.237v-2.42c-0-1.759-1.426-3.185-3.185-3.185h-7.009c0.313 0.686 0.504 1.486 0.526 2.328l0 0.008zM20.545 13c0.44 0.213 0.933 0.333 1.455 0.333 1.84-0.001 3.332-1.493 3.332-3.333s-1.492-3.333-3.333-3.333-3.333 1.492-3.333 3.333c0 1.312 0.758 2.448 1.861 2.991l0.020 0.009zM16.682 14.833c0.413 0.68 0.651 1.479 0.651 2.333v2.167l-0.001 0.055c-0.033 1.265-1.066 2.278-2.335 2.278-0.237 0-0.465-0.035-0.681-0.101l0.017 0.004v4.669c0 0 0 0 0 0 0 1.335-1.082 2.417-2.417 2.417-0.607 0-1.162-0.224-1.586-0.593l0.003 0.002c-0.422 0.367-0.976 0.591-1.583 0.591-1.335 0-2.417-1.082-2.417-2.417 0-0 0-0 0-0v0-4.669c-0.2 0.062-0.429 0.097-0.667 0.097s-0.467-0.036-0.683-0.102l0.017 0.004c-0.972-0.297-1.666-1.186-1.667-2.237v-2.167c0-2.485 2.015-4.5 4.5-4.5v0h5c0.001 0 0.002 0 0.004 0 1.622 0 3.043 0.859 3.834 2.147l0.011 0.020z"></path>
</svg>
