<!-- Generated by IcoMoon.io -->
<svg version="1.1" xmlns="http://www.w3.org/2000/svg" width="32" height="32" viewBox="0 0 32 32">
<title>guest-filled</title>
<path d="M16 10.286c-2.209 0-4 1.791-4 4s1.791 4 4 4v0c2.209 0 4-1.791 4-4s-1.791-4-4-4v0zM12.229 19.429c-0.983 0-2.053 0.688-2.080 1.911-0.021 0.856 0.133 2.118 1.022 3.173 0.91 1.080 2.446 1.774 4.83 1.774s3.92-0.694 4.83-1.774c0.889-1.055 1.042-2.317 1.023-3.173-0.029-1.223-1.098-1.911-2.081-1.911h-7.543zM21.597 4.571h1.546c1.736 0 3.143 1.407 3.143 3.143v0 18.857c0 1.736-1.407 3.143-3.143 3.143v0h-14.286c-1.736 0-3.143-1.407-3.143-3.143v0-18.857c0-1.736 1.407-3.143 3.143-3.143v0h1.547c0.386-1.33 1.594-2.285 3.024-2.286h5.143c0 0 0 0 0 0 1.431 0 2.638 0.956 3.018 2.264l0.006 0.022zM10.405 6.286h-1.547c-0.789 0-1.429 0.64-1.429 1.429v18.857c0 0.789 0.64 1.429 1.429 1.429h14.286c0.789 0 1.429-0.64 1.429-1.429v-18.857c0-0.789-0.64-1.429-1.429-1.429h-1.547c-0.386 1.33-1.593 2.285-3.024 2.286h-5.143c-1.431-0-2.638-0.956-3.018-2.264l-0.006-0.022zM12 5.429c0 0.789 0.64 1.429 1.429 1.429h5.143c0.789 0 1.429-0.64 1.429-1.429s-0.64-1.429-1.429-1.429v0h-5.143c-0.789 0-1.429 0.64-1.429 1.429z"></path>
</svg>
