<!-- Generated by IcoMoon.io -->
<svg version="1.1" xmlns="http://www.w3.org/2000/svg" width="32" height="32" viewBox="0 0 32 32">
<title>guitar-filled</title>
<path d="M24.656 4.575l1.58-1.58c0.521-0.521 1.365-0.521 1.886 0l0.943 0.943c0.521 0.521 0.521 1.365 0 1.886l-1.58 1.58-2.828-2.828zM23.241 5.989l-5.094 5.094-0.212-0.212c-1.77-1.77-4.753-1.286-5.872 0.953l-0.555 1.11c-0.164 0.327-0.526 0.504-0.884 0.433l-0.096-0.019c-2.37-0.474-4.802 0.455-6.253 2.389-2.4 3.199-2.081 7.676 0.747 10.504l0.798 0.798c2.828 2.828 7.305 3.146 10.504 0.747 1.934-1.45 2.863-3.882 2.389-6.253l-0.019-0.096c-0.072-0.359 0.105-0.721 0.433-0.885l1.11-0.555c2.239-1.119 2.723-4.103 0.953-5.872l-0.212-0.212 5.094-5.094-2.828-2.828zM12.586 19.414c-0.781-0.781-0.781-2.047 0-2.829s2.047-0.781 2.828 0c0.781 0.781 0.781 2.047 0 2.829s-2.047 0.781-2.828 0z"></path>
</svg>
