<!-- Generated by IcoMoon.io -->
<svg version="1.1" xmlns="http://www.w3.org/2000/svg" width="32" height="32" viewBox="0 0 32 32">
<title>guitar-filled</title>
<path d="M24.221 4.722l1.712-1.734c0.207-0.211 0.496-0.341 0.814-0.341 0.316 0 0.602 0.128 0.809 0.335l1.355 1.358c0.207 0.207 0.335 0.493 0.335 0.809 0 0.313-0.126 0.597-0.33 0.803l0-0-1.723 1.744-2.973-2.974zM23.016 5.943l-4.793 4.854-0.218-0.219c-1.767-1.767-4.745-1.283-5.863 0.951l-0.583 1.167c-0.176 0.346-0.529 0.579-0.937 0.579-0.073 0-0.143-0.007-0.212-0.021l0.007 0.001-0.102-0.021c-0.377-0.079-0.811-0.124-1.256-0.124-2.088 0-3.943 0.999-5.112 2.546l-0.012 0.016c-1.030 1.362-1.651 3.084-1.651 4.952 0 2.279 0.924 4.342 2.417 5.836l0.839 0.839c1.494 1.493 3.557 2.417 5.836 2.417 1.868 0 3.591-0.62 4.974-1.666l-0.021 0.015c1.562-1.181 2.561-3.035 2.561-5.123 0-0.444-0.045-0.878-0.131-1.297l0.007 0.041-0.019-0.102c-0.013-0.062-0.020-0.132-0.020-0.205 0-0.407 0.233-0.76 0.572-0.933l0.006-0.003 1.167-0.584c2.234-1.118 2.718-4.096 0.952-5.863l-0.229-0.226 4.793-4.854-2.971-2.973zM12.098 19.902c-0.431-0.416-0.698-0.999-0.698-1.644 0-1.262 1.023-2.286 2.286-2.286 0.645 0 1.228 0.267 1.643 0.697l0.001 0.001c0.397 0.411 0.642 0.971 0.642 1.588 0 1.262-1.023 2.286-2.286 2.286-0.617 0-1.177-0.245-1.589-0.642l0.001 0.001z"></path>
</svg>
