<!-- Generated by IcoMoon.io -->
<svg version="1.1" xmlns="http://www.w3.org/2000/svg" width="32" height="32" viewBox="0 0 32 32">
<title>hand-open-heart-filled</title>
<path d="M24 5l-0.532-0.655c-0.672-0.823-1.687-1.344-2.824-1.344-2.009 0-3.638 1.629-3.638 3.638 0 0.974 0.383 1.859 1.006 2.511l4.957 5.19 0.284 0.32c0.090 0.1 0.194 0.178 0.307 0.233 0.127 0.070 0.279 0.111 0.44 0.111 0.264 0 0.502-0.11 0.671-0.286l0-0 5.32-5.563c0.622-0.652 1.004-1.537 1.004-2.511 0-2.011-1.63-3.641-3.641-3.641-1.136 0-2.151 0.52-2.818 1.336l-0.005 0.006-0.531 0.656zM25.292 16.704c0.347 0.721 0.689 1.598 0.969 2.501l0.038 0.143 0.489 1.615c0.136 0.433 0.214 0.931 0.214 1.447 0 1.138-0.38 2.188-1.021 3.028l0.009-0.012-1.92 2.54c-1.609 2.128-4.519 2.545-6.783 1.455-3.224-1.55-7.036-2.703-10.188-2.839-0.697-0.027-1.31-0.364-1.71-0.875l-0.004-0.005c-0.418-0.554-0.56-1.352-0.112-2.088 0.865-1.421 2.229-2.071 3.353-2.367l-6.186-6.187c-0.272-0.272-0.439-0.647-0.439-1.061 0-0.829 0.672-1.5 1.5-1.5 0.414 0 0.789 0.168 1.061 0.439l4.103 4.104c0.112 0.113 0.268 0.182 0.44 0.182 0.343 0 0.621-0.278 0.621-0.621 0-0.171-0.069-0.327-0.182-0.439v0l-6.104-6.103c-0.272-0.272-0.439-0.647-0.439-1.061 0-0.829 0.672-1.5 1.5-1.5 0.414 0 0.789 0.168 1.061 0.439l5.977 5.978c0.144 0.144 0.344 0.234 0.565 0.234 0.441 0 0.798-0.357 0.798-0.798 0-0.22-0.089-0.42-0.234-0.565l-5.229-5.227c-0.272-0.272-0.439-0.647-0.439-1.061 0-0.829 0.672-1.5 1.5-1.5 0.414 0 0.789 0.168 1.061 0.439l4.637 4.637c0.295 0.295 0.703 0.478 1.154 0.478s0.859-0.183 1.154-0.478v0l0.104 0.12 5.148 5.792c0.552 0.619 1.352 1.008 2.243 1.008 0.469 0 0.913-0.108 1.308-0.3l-0.018 0.008zM16.196 21.98c1.142-0.228 2.088-0.211 2.881 0.037 0.778 0.243 1.485 0.731 2.125 1.582 0.183 0.257 0.481 0.423 0.816 0.423 0.552 0 1-0.448 1-1 0-0.236-0.082-0.453-0.219-0.625l0.002 0.002c-0.862-1.148-1.905-1.91-3.127-2.291-1.207-0.377-2.512-0.36-3.87-0.090-0.462 0.095-0.804 0.498-0.804 0.981 0 0.552 0.448 1 1 1 0.069 0 0.137-0.007 0.202-0.020l-0.006 0.001zM15.798 9c-0.368-0.721-0.583-1.572-0.583-2.473 0-0.598 0.095-1.174 0.27-1.714l-0.011 0.039-0.913-0.913c-0.272-0.272-0.647-0.439-1.061-0.439-0.829 0-1.5 0.672-1.5 1.5 0 0.414 0.168 0.789 0.439 1.061l2.941 2.939h0.42z"></path>
</svg>
