<!-- Generated by IcoMoon.io -->
<svg version="1.1" xmlns="http://www.w3.org/2000/svg" width="32" height="32" viewBox="0 0 32 32">
<title>handshake-filled</title>
<path d="M17.113 4.216c0.075-0.057 0.141-0.124 0.197-0.198h3.415c0.016 0 0.032-0 0.047-0.001 0.227-0.011 0.453-0.011 0.679 0 0.016 0.001 0.032 0.001 0.047 0.001h0.051c0.767 0 1.491 0.168 2.142 0.468 0.017 0.008 0.035 0.015 0.052 0.022 1.223 0.483 2.316 1.305 3.12 2.43 1.212 1.695 1.59 3.82 1.073 5.798l-4.375-4.317c-0.187-0.185-0.439-0.288-0.702-0.288h-6.326c-0.014 0-0.027 0-0.041 0.001-0.204 0.008-0.4 0.079-0.563 0.202l-2.513 1.904c-0.071 0.054-0.145 0.099-0.223 0.136-0.541 0.259-1.21 0.113-1.588-0.381-0.054-0.070-0.099-0.144-0.136-0.22-0.259-0.535-0.115-1.193 0.378-1.567l5.266-3.989z"></path>
<path d="M10.531 18.981l-0.018 0.017-1.316 1.308c-0.471 0.449-1.219 0.443-1.682-0.017-0.469-0.466-0.469-1.223 0-1.689l1.299-1.29c0.469-0.467 1.231-0.467 1.7 0 0.464 0.461 0.469 1.204 0.017 1.672z"></path>
<path d="M10.144 21.246c-0.452 0.468-0.447 1.211 0.017 1.672 0.469 0.467 1.231 0.467 1.7 0l1.299-1.29c0.47-0.467 0.47-1.223 0-1.689-0.058-0.058-0.12-0.108-0.186-0.151-0.46-0.304-1.085-0.259-1.496 0.134l-0.017 0.017-1.316 1.308z"></path>
<path d="M7.334 15.211c0.469 0.467 0.469 1.223 0 1.689l-1.299 1.291c-0.469 0.466-1.231 0.466-1.7 0s-0.469-1.223 0-1.689l1.299-1.291c0.469-0.466 1.231-0.466 1.7 0z"></path>
<path d="M15.806 22.567c0.469 0.467 0.469 1.223 0 1.689l-1.299 1.291c-0.096 0.096-0.205 0.172-0.321 0.228-0.449 0.219-1.006 0.143-1.379-0.228s-0.45-0.925-0.23-1.371l0.002-0.003c0.057-0.114 0.133-0.221 0.228-0.315l1.299-1.291c0.469-0.466 1.231-0.466 1.7 0z"></path>
<path d="M7.125 6.441c1.861-1.849 4.392-2.626 6.816-2.332l-3.302 2.502c-1.447 1.096-1.726 3.156-0.622 4.597 1.101 1.438 3.162 1.717 4.606 0.623l2.245-1.701h5.58l4.675 4.612c0.015 0.018 0.031 0.036 0.048 0.053l1.533 1.533c0.749 0.749 0.749 1.963 0 2.713-0.706 0.706-1.827 0.747-2.58 0.121l-0.128-0.128c-0.025-0.025-0.052-0.048-0.080-0.069l-1.457-1.457c-0.26-0.26-0.682-0.26-0.943 0s-0.26 0.682 0 0.943l1.533 1.533c0.055 0.055 0.112 0.109 0.171 0.159l0.059 0.058c0.531 0.531 0.531 1.391 0 1.922s-1.391 0.531-1.922 0l-0.225-0.225c-0.26-0.26-0.683-0.26-0.943 0-0.134 0.133-0.199 0.309-0.195 0.484-0.004 0.176 0.061 0.352 0.195 0.486l0.297 0.297c0.491 0.491 0.491 1.287 0 1.777s-1.287 0.491-1.777 0l-0.001-0.001-0.016-0.016-0.28-0.28c-0.097-0.097-0.215-0.157-0.34-0.182-0.211-0.042-0.439 0.018-0.603 0.182-0.26 0.26-0.26 0.682 0 0.943l0.291 0.291c0.489 0.501 0.486 1.304-0.011 1.801-0.491 0.491-1.285 0.501-1.789 0.023l-1.909-1.814 0.7-0.695c0.992-0.986 0.992-2.583 0-3.569-0.523-0.52-1.219-0.766-1.904-0.737 0.029-0.681-0.218-1.372-0.742-1.892s-1.218-0.766-1.904-0.737c0.029-0.681-0.218-1.372-0.742-1.892-0.666-0.662-1.61-0.879-2.459-0.652-0.072-0.529-0.312-1.040-0.721-1.446-0.915-0.909-2.355-0.98-3.352-0.211-0.616-2.653 0.117-5.552 2.197-7.619z"></path>
</svg>
