<!-- Generated by IcoMoon.io -->
<svg version="1.1" xmlns="http://www.w3.org/2000/svg" width="32" height="32" viewBox="0 0 32 32">
<title>hand-right-off-filled</title>
<path d="M6.4 8.4c0-0.246 0.075-0.475 0.202-0.667l-3.168-3.168c-0.145-0.145-0.234-0.345-0.234-0.566 0-0.442 0.358-0.8 0.8-0.8 0.221 0 0.421 0.090 0.566 0.235v0l24 24c0.145 0.145 0.235 0.345 0.235 0.566 0 0.442-0.359 0.801-0.801 0.801-0.221 0-0.421-0.090-0.566-0.235l-5.946-5.947c-0.371 0.458-0.736 0.969-1.072 1.502l-0.039 0.066c-0.466 0.738-1.026 1.715-1.553 2.712l-0.133 0.275c-0.576 1.083-0.941 1.626-2.691 1.626h-4.872c-1.528 0-2.109-0.853-3.128-3.2s-1.6-4.71-1.6-5.6v-11.6zM10.4 11.531l-1.6-1.6v4.469c0 0.442 0.358 0.8 0.8 0.8s0.8-0.358 0.8-0.8v0-2.869zM12.8 6v3.406l-2.4-2.4v-1.006c0-0.663 0.537-1.2 1.2-1.2s1.2 0.537 1.2 1.2v0zM17.776 14.381l5.92 5.92c0.358-0.317 0.726-0.618 1.098-0.896l2.101-1.576c0.186-0.141 0.305-0.362 0.306-0.611v-0c0-0.003 0-0.007 0-0.011 0-0.079-0.009-0.155-0.027-0.228l0.001 0.007c-0.315-1.267-1.621-1.786-3.174-1.786-0.973 0-2.141 0.518-3.2 1.2v-10.4c0-0.663-0.537-1.2-1.2-1.2s-1.2 0.537-1.2 1.2v0 7.6c0 0 0 0 0 0 0 0.379-0.264 0.697-0.619 0.779l-0.005 0.001zM14.4 11.005l2.4 2.4v-9.005c0-0.663-0.537-1.2-1.2-1.2s-1.2 0.537-1.2 1.2v0 6.606z"></path>
</svg>
