<!-- Generated by IcoMoon.io -->
<svg version="1.1" xmlns="http://www.w3.org/2000/svg" width="32" height="32" viewBox="0 0 32 32">
<title>hand-right-filled</title>
<path d="M13.333 5.667c0-0.736-0.597-1.333-1.333-1.333s-1.333 0.597-1.333 1.333v8.998c0 0.368-0.298 0.667-0.667 0.667s-0.667-0.298-0.667-0.667v-6.668c0-0.736-0.597-1.333-1.333-1.333s-1.333 0.597-1.333 1.333v11.676c0 2.906 1.558 6.013 2.552 7.719 0.742 1.273 2.107 1.945 3.497 1.945h2.891c1.642 0 3.142-0.928 3.876-2.396l0.178-0.356c0.561-1.122 1.26-2.17 2.082-3.118l2.949-3.403 2.923-2.273c0.243-0.189 0.386-0.481 0.386-0.789 0-0.646-0.345-1.126-0.789-1.413-0.395-0.255-0.867-0.364-1.283-0.414-0.848-0.101-1.88 0.002-2.786 0.178-0.685 0.133-1.299 0.392-1.809 0.673v-10.358c0-0.736-0.597-1.333-1.333-1.333s-1.333 0.597-1.333 1.333v8.333c0 0.368-0.299 0.667-0.667 0.667s-0.667-0.298-0.667-0.667v-10.004c0-0.736-0.597-1.333-1.333-1.333s-1.333 0.597-1.333 1.333v10.004c0 0.368-0.299 0.667-0.667 0.667s-0.667-0.298-0.667-0.667v-8.333z"></path>
</svg>
