<!-- Generated by IcoMoon.io -->
<svg version="1.1" xmlns="http://www.w3.org/2000/svg" width="32" height="32" viewBox="0 0 32 32">
<title>hand-left-chat-filled</title>
<path d="M17.143 3.429v10.573c0 0.473 0.384 0.857 0.857 0.857s0.857-0.384 0.857-0.857v0-8.857c0-0.631 0.512-1.143 1.143-1.143s1.143 0.512 1.143 1.143v0 9.429c0 0.206 0.072 0.394 0.193 0.542-3.752 0.969-6.48 4.323-6.48 8.315 0 1.35 0.312 2.627 0.868 3.763l-0.022-0.051-0.72 2.459c-1.069-0.276-1.935-0.99-2.41-1.933l-0.010-0.021-0.795-1.609c-0.368-0.739-0.758-1.371-1.198-1.964l0.024 0.035-3.189-4.327-3.008-1.914c-0.24-0.155-0.397-0.42-0.397-0.723 0-0 0-0 0-0.001v0c0-0.557 0.245-1.016 0.627-1.336 0.354-0.297 0.799-0.454 1.218-0.533 0.838-0.16 1.854-0.069 2.762 0.183 0.825 0.209 1.626 0.599 2.249 0.957v-11.272c0-0.631 0.512-1.143 1.143-1.143s1.143 0.512 1.143 1.143v0 8.858c0 0.473 0.384 0.857 0.857 0.857s0.857-0.384 0.857-0.857v0-10.571c0-0.631 0.512-1.143 1.143-1.143s1.143 0.512 1.143 1.143v0zM23.43 14.857c-0.211 0-0.422 0.008-0.629 0.023 0.035-0.090 0.056-0.195 0.056-0.305 0-0.001 0-0.003 0-0.004v0-6.574c0-0.631 0.512-1.143 1.143-1.143s1.143 0.512 1.143 1.143v0 7.031c-0.514-0.109-1.105-0.171-1.71-0.171-0.001 0-0.002 0-0.003 0h0zM23.43 30.857c4.102-0.001 7.426-3.327 7.426-7.429s-3.326-7.429-7.429-7.429-7.429 3.326-7.429 7.429c0 1.32 0.344 2.559 0.947 3.633l-0.019-0.037-0.907 3.101c-0.015 0.048-0.023 0.103-0.023 0.16 0 0.316 0.256 0.571 0.571 0.571 0.057 0 0.112-0.008 0.164-0.024l-0.004 0.001 3.104-0.903c1.033 0.583 2.269 0.927 3.585 0.927 0.005 0 0.009 0 0.014 0h-0.001zM20.001 22.286c0-0.316 0.256-0.571 0.571-0.571v0h5.714c0.316 0 0.571 0.256 0.571 0.571s-0.256 0.571-0.571 0.571v0h-5.714c-0.316 0-0.571-0.256-0.571-0.571v0zM20.571 25.143c-0.316 0-0.571-0.256-0.571-0.571s0.256-0.571 0.571-0.571v0h2.857c0.316 0 0.571 0.256 0.571 0.571s-0.256 0.571-0.571 0.571v0h-2.857z"></path>
</svg>
