<!-- Generated by IcoMoon.io -->
<svg version="1.1" xmlns="http://www.w3.org/2000/svg" width="32" height="32" viewBox="0 0 32 32">
<title>hand-draw-filled</title>
<path d="M14.597 3.422c1.899-0.021 4.383-0.048 6.471 0.181 1.163 0.127 2.126 0.326 2.775 0.609 0.677 0.295 0.729 0.541 0.729 0.646 0 0.157-0.057 0.344-0.469 0.573-0.439 0.245-1.141 0.441-2.101 0.579-1.907 0.274-4.48 0.277-7.145 0.277h-0.051c-2.605 0-5.296 0-7.338 0.295-1.023 0.147-1.973 0.379-2.69 0.777-0.745 0.416-1.349 1.087-1.349 2.071 0 0.753 0.389 1.33 0.866 1.735 0.465 0.394 1.062 0.669 1.648 0.864 1.178 0.393 2.56 0.544 3.486 0.544h0.857v-1.714h-0.857c-0.789 0-1.979-0.134-2.943-0.456-0.485-0.161-0.853-0.351-1.083-0.546-0.218-0.185-0.259-0.321-0.259-0.426 0-0.157 0.057-0.343 0.469-0.571 0.439-0.245 1.139-0.441 2.101-0.579 1.907-0.275 4.48-0.278 7.145-0.278h0.051c2.605 0 5.295 0 7.338-0.294 1.022-0.149 1.973-0.379 2.689-0.778 0.746-0.415 1.349-1.085 1.349-2.071 0-1.162-0.893-1.84-1.757-2.217-0.891-0.389-2.063-0.61-3.274-0.743-2.199-0.24-4.789-0.21-6.674-0.19l-0.587 0.007c-0.47 0.005-0.849 0.387-0.849 0.857 0 0.473 0.384 0.857 0.857 0.857 0.003 0 0.006 0 0.008-0h-0l0.589-0.007zM12.571 12.286c0-1.736 1.407-3.143 3.143-3.143s3.143 1.407 3.143 3.143v0 3.539l2.743 0.378c2.101 0.299 3.699 2.085 3.699 4.245 0 0.32-0.035 0.632-0.102 0.932l0.005-0.028-1.177 5.455c-0.28 1.267-1.297 2.235-2.568 2.44l-0.018 0.002-3.179 0.497c-0.146 0.024-0.314 0.038-0.485 0.038-1.162 0-2.176-0.63-2.72-1.568l-0.008-0.015-0.403-0.706c-0.654-1.131-1.574-2.043-2.677-2.67l-0.035-0.018-5.206-2.917c-0.264-0.149-0.439-0.428-0.439-0.748 0-0.097 0.016-0.189 0.045-0.276l-0.002 0.006c0.35-1.047 1.149-2.135 2.474-2.638 1.046-0.397 2.31-0.389 3.768 0.15v-6.098z"></path>
</svg>
