<!-- Generated by IcoMoon.io -->
<svg version="1.1" xmlns="http://www.w3.org/2000/svg" width="32" height="32" viewBox="0 0 32 32">
<title>hand-right-filled</title>
<path d="M14.857 3.429v10.571c0 0.473-0.384 0.857-0.857 0.857s-0.857-0.384-0.857-0.857v0-8.857c0-0.631-0.512-1.143-1.143-1.143s-1.143 0.512-1.143 1.143v0 9.429c0 0.473-0.384 0.857-0.857 0.857s-0.857-0.384-0.857-0.857v0-6.575c0-0.631-0.512-1.143-1.143-1.143s-1.143 0.512-1.143 1.143v0 11.718c0 2.879 1.122 6.051 1.879 7.874 0.557 1.339 1.873 2.122 3.263 2.122h4.109c0 0 0 0 0 0 1.452 0 2.709-0.833 3.32-2.047l0.010-0.021 0.794-1.607c0.335-0.677 0.728-1.321 1.175-1.929l3.189-4.326 3.008-1.914c0.24-0.155 0.397-0.42 0.397-0.723 0-0 0-0 0-0.001v0c0-0.557-0.245-1.016-0.627-1.337-0.354-0.297-0.799-0.453-1.218-0.533-0.838-0.16-1.854-0.067-2.762 0.183-0.825 0.209-1.626 0.6-2.249 0.957v-11.27c0-0.631-0.512-1.143-1.143-1.143s-1.143 0.512-1.143 1.143v0 8.857c0 0.473-0.384 0.857-0.857 0.857s-0.857-0.384-0.857-0.857v0-10.571c0-0.631-0.512-1.143-1.143-1.143s-1.143 0.512-1.143 1.143v0z"></path>
</svg>
