<!-- Generated by IcoMoon.io -->
<svg version="1.1" xmlns="http://www.w3.org/2000/svg" width="32" height="32" viewBox="0 0 32 32">
<title>hand-wave-filled</title>
<path d="M10.587 3.547c-0.2-0.499-0.68-0.845-1.241-0.845-0.736 0-1.333 0.597-1.333 1.333 0 0.149 0.025 0.293 0.070 0.427l-0.003-0.009 3 8.311c0.033 0.090 0.052 0.195 0.052 0.304 0 0.501-0.406 0.907-0.907 0.907-0.381 0-0.706-0.234-0.841-0.567l-0.002-0.006-2.807-7.217c-0.205-0.49-0.68-0.828-1.234-0.828-0.736 0-1.333 0.597-1.333 1.333 0 0.165 0.030 0.323 0.085 0.469l-0.003-0.009 4.212 10.831c-2.269-0.245-3.889 0.333-4.867 0.891-0.462 0.259-0.768 0.746-0.768 1.304 0 0.074 0.005 0.147 0.016 0.219l-0.001-0.008c0.079 0.555 0.452 1.023 0.969 1.249 1.781 0.78 5.848 2.784 9.331 6.107 1.368 1.304 3.363 1.96 5.284 1.387l3.732-1.117c1.107-0.332 2.032-1.181 2.367-2.351 0.4-1.396 0.968-3.76 0.968-5.993 0-1.533-0.537-3.447-1.027-4.893-0.971-2.861-2.056-5.688-3.047-8.544-0.187-0.526-0.68-0.896-1.26-0.896-0.737 0-1.334 0.597-1.334 1.334 0 0.157 0.027 0.307 0.077 0.447l-0.003-0.009 1.325 3.819c0.034 0.093 0.053 0.199 0.053 0.311 0 0.516-0.419 0.935-0.935 0.935-0.405 0-0.75-0.258-0.88-0.618l-0.002-0.007-2.379-6.659c-0.198-0.503-0.68-0.853-1.244-0.853-0.736 0-1.333 0.597-1.333 1.333 0 0.148 0.024 0.291 0.069 0.425l-0.003-0.009 2.157 6.040c0.035 0.094 0.055 0.204 0.055 0.317 0 0.518-0.42 0.937-0.937 0.937-0.404 0-0.748-0.255-0.88-0.614l-0.002-0.007-3.219-8.909zM24.845 3.096c0.183-0.261 0.482-0.429 0.821-0.429 0.214 0 0.411 0.067 0.574 0.181l-0.003-0.002c1.077 0.747 1.971 2.059 2.531 3.503 0.565 1.459 0.84 3.179 0.551 4.824-0.085 0.474-0.494 0.828-0.985 0.828-0.552 0-1-0.448-1-1 0-0.061 0.005-0.12 0.016-0.178l-0.001 0.006c0.213-1.217 0.017-2.565-0.445-3.757-0.467-1.208-1.159-2.133-1.807-2.583-0.261-0.183-0.43-0.482-0.43-0.821 0-0.214 0.067-0.411 0.181-0.574l-0.002 0.003zM24.399 5.652c-0.183-0.197-0.444-0.319-0.733-0.319-0.552 0-1 0.448-1 1 0 0.263 0.102 0.503 0.268 0.681l-0.001-0.001c0.557 0.597 1.065 1.32 1.065 2.652 0 0.552 0.448 1 1 1s1-0.448 1-1v0c0-2.001-0.831-3.187-1.601-4.015z"></path>
</svg>
