<!-- Generated by IcoMoon.io -->
<svg version="1.1" xmlns="http://www.w3.org/2000/svg" width="32" height="32" viewBox="0 0 32 32">
<title>hard-drive-filled</title>
<path d="M10.384 6.4c-0.001 0-0.002 0-0.003 0-1.312 0-2.439 0.789-2.933 1.919l-0.008 0.021-3.214 7.504c0.612-0.403 1.363-0.643 2.17-0.643 0.002 0 0.003 0 0.005 0h19.2c0.898 0 1.728 0.296 2.394 0.795-1.247-3.274-2.399-5.863-3.664-8.385l0.24 0.529c-0.524-1.039-1.583-1.739-2.805-1.739-0.006 0-0.011 0-0.017 0h-11.364zM4 19.2c0-1.325 1.075-2.4 2.4-2.4v0h19.2c1.325 0 2.4 1.075 2.4 2.4v0 3.2c0 1.325-1.075 2.4-2.4 2.4v0h-19.2c-1.325 0-2.4-1.075-2.4-2.4v0-3.2zM24 20.4c0-0.663-0.537-1.2-1.2-1.2s-1.2 0.537-1.2 1.2v0c0 0.663 0.537 1.2 1.2 1.2s1.2-0.537 1.2-1.2v0z"></path>
</svg>
