<!-- Generated by IcoMoon.io -->
<svg version="1.1" xmlns="http://www.w3.org/2000/svg" width="32" height="32" viewBox="0 0 32 32">
<title>hat-graduation-filled</title>
<path d="M6.667 23.667v-5.021l5.413 3.537c1.105 0.732 2.462 1.167 3.92 1.167s2.815-0.436 3.947-1.184l-0.027 0.017 5.413-3.537v5.021c0 0.226-0.075 0.435-0.202 0.602l0-0.001-0.001 0.003-0.004 0.005-0.012 0.013-0.016 0.021-0.017 0.023-0.115 0.135c-0.138 0.157-0.276 0.3-0.42 0.438l-0.003 0.003c-0.369 0.356-0.92 0.819-1.667 1.277-1.495 0.92-3.759 1.815-6.877 1.815s-5.381-0.893-6.879-1.815c-0.629-0.386-1.174-0.808-1.671-1.28l0.004 0.004c-0.199-0.192-0.385-0.394-0.559-0.606l-0.010-0.012-0.012-0.013-0.004-0.007v-0.003c-0.126-0.165-0.202-0.374-0.203-0.601v-0zM29.547 13.504l-10.72 7.004c-0.797 0.528-1.775 0.842-2.827 0.842s-2.030-0.314-2.846-0.854l0.019 0.012-9.173-5.993v7.152c0 0.552-0.448 1-1 1s-1-0.448-1-1v0-8.333c0-0.117 0.020-0.229 0.057-0.333-0.036-0.099-0.057-0.214-0.057-0.333 0-0.352 0.182-0.661 0.456-0.839l0.004-0.002 10.752-6.893c0.788-0.512 1.753-0.817 2.788-0.817s2 0.305 2.808 0.829l-0.020-0.012 10.752 6.893c0.278 0.181 0.46 0.49 0.46 0.841 0 0.349-0.179 0.656-0.449 0.835l-0.004 0.002z"></path>
</svg>
