<!-- Generated by IcoMoon.io -->
<svg version="1.1" xmlns="http://www.w3.org/2000/svg" width="32" height="32" viewBox="0 0 32 32">
<title>hd-filled</title>
<path d="M19.333 19.333v-6.667h0.333c1.289 0 2.333 1.045 2.333 2.333v2c0 1.289-1.045 2.333-2.333 2.333h-0.333z"></path>
<path d="M8.333 4c-2.393 0-4.333 1.94-4.333 4.333v15.333c0 2.393 1.94 4.333 4.333 4.333h15.333c2.393 0 4.333-1.94 4.333-4.333v-15.333c0-2.393-1.94-4.333-4.333-4.333h-15.333zM9.667 10.667c0.552 0 1 0.448 1 1v3.667h2.667v-3.667c0-0.552 0.448-1 1-1s1 0.448 1 1v8.667c0 0.552-0.448 1-1 1s-1-0.448-1-1v-3h-2.667v3c0 0.552-0.448 1-1 1s-1-0.448-1-1v-8.667c0-0.552 0.448-1 1-1zM18.333 10.667h1.333c2.393 0 4.333 1.94 4.333 4.333v2c0 2.393-1.94 4.333-4.333 4.333h-1.333c-0.552 0-1-0.448-1-1v-8.667c0-0.552 0.448-1 1-1z"></path>
</svg>
