<!-- Generated by IcoMoon.io -->
<svg version="1.1" xmlns="http://www.w3.org/2000/svg" width="32" height="32" viewBox="0 0 32 32">
<title>hdr-filled</title>
<path d="M25 4.668c2.393 0 4.333 1.94 4.333 4.333v14.004c0 2.393-1.94 4.333-4.333 4.333v0h-18c-2.393 0-4.333-1.94-4.333-4.333v0-14.005c0-2.393 1.94-4.333 4.333-4.333v0h18zM11.171 11.992c-0.416 0-0.762 0.306-0.823 0.705l-0.001 0.005-0.009 0.124v2.357h-1.975v-2.335l-0.009-0.124c-0.063-0.404-0.408-0.709-0.824-0.709s-0.761 0.305-0.823 0.704l-0.001 0.005-0.009 0.124v6.336l0.009 0.123c0.063 0.404 0.408 0.709 0.824 0.709s0.761-0.305 0.823-0.704l0.001-0.005 0.009-0.123v-2.335h1.973l0.001 2.311 0.009 0.124c0.061 0.406 0.407 0.713 0.825 0.713s0.764-0.308 0.824-0.709l0.001-0.005 0.008-0.123v-6.336l-0.008-0.124c-0.062-0.404-0.408-0.709-0.824-0.709-0 0-0.001 0-0.001 0h0zM22.935 12.021h-2.095l-0.124 0.009c-0.358 0.055-0.638 0.332-0.698 0.683l-0.001 0.005-0.011 0.137 0.007 6.313 0.011 0.144 0.031 0.137c0.243 0.776 1.484 0.732 1.613-0.132l0.013-0.151-0.003-2.336h0.991l1.067 2.647 0.060 0.121c0.148 0.243 0.412 0.403 0.714 0.403 0.46 0 0.833-0.373 0.833-0.833 0-0.065-0.007-0.128-0.021-0.189l0.001 0.006-0.040-0.131-0.987-2.444c0.636-0.439 1.047-1.164 1.047-1.985 0-1.26-0.968-2.293-2.201-2.397l-0.009-0.001-0.197-0.008zM15.167 12.008h-1l-0.124 0.009c-0.358 0.055-0.638 0.332-0.698 0.683l-0.001 0.005-0.011 0.136v6.323l0.008 0.123c0.053 0.357 0.333 0.64 0.688 0.7l0.137 0.011h1l0.221-0.007c1.759-0.115 3.157-1.513 3.271-3.262l0.001-0.010 0.007-0.221v-0.989l-0.007-0.221c-0.115-1.758-1.513-3.156-3.262-3.27l-0.010-0.001-0.221-0.008zM15.167 13.675c0.953 0 1.737 0.728 1.827 1.657l0.007 0.176v0.989l-0.008 0.177c-0.087 0.873-0.775 1.561-1.64 1.647l-0.008 0.001-0.177 0.008h-0.168v-4.656h0.168zM21.673 13.688h1.261l0.12 0.009c0.357 0.057 0.626 0.362 0.626 0.73s-0.269 0.673-0.622 0.729l-0.004 0.001-0.12 0.009h-1.26l-0.003-1.48z"></path>
</svg>
