<!-- Generated by IcoMoon.io -->
<svg version="1.1" xmlns="http://www.w3.org/2000/svg" width="32" height="32" viewBox="0 0 32 32">
<title>hdr-off-filled</title>
<path d="M4.373 2.96c-0.183-0.196-0.443-0.318-0.732-0.318-0.552 0-1 0.448-1 1 0 0.289 0.122 0.549 0.318 0.731l0.001 0.001 1.283 1.284c-0.966 0.799-1.576 1.997-1.576 3.338 0 0.002 0 0.004 0 0.006v-0 14.003c0 2.393 1.94 4.333 4.333 4.333v0h18c0.288 0 0.569-0.027 0.84-0.081l1.787 1.784c0.178 0.166 0.418 0.268 0.682 0.268 0.552 0 1-0.448 1-1 0-0.264-0.102-0.504-0.269-0.682l0.001 0.001-24.667-24.667zM17.6 19.013c-0.577 0.559-1.348 0.921-2.202 0.975l-0.010 0.001-0.221 0.008h-1l-0.137-0.012c-0.356-0.061-0.633-0.341-0.687-0.694l-0.001-0.005-0.008-0.123v-4.417l1.665 1.667v1.916h0.168l0.177-0.008c0.42-0.041 0.791-0.219 1.077-0.488l-0.001 0.001 1.18 1.179zM10.713 12.128l1.291 1.291v5.741l-0.008 0.123c-0.061 0.406-0.407 0.713-0.825 0.713s-0.764-0.308-0.824-0.709l-0.001-0.005-0.009-0.123v-2.312h-1.975v2.335l-0.009 0.124c-0.063 0.404-0.408 0.709-0.824 0.709s-0.761-0.305-0.823-0.704l-0.001-0.005-0.009-0.124v-6.336l0.009-0.123c0.063-0.404 0.408-0.709 0.824-0.709s0.761 0.305 0.823 0.704l0.001 0.005 0.009 0.123v2.335h1.973l0.001-2.357 0.009-0.123c0.037-0.241 0.173-0.445 0.364-0.571l0.003-0.002zM29.333 23.004c0 0.613-0.128 1.2-0.359 1.728l-4.803-4.801c0.1 0.046 0.217 0.073 0.34 0.073 0.459 0 0.831-0.372 0.831-0.831 0-0.067-0.008-0.132-0.023-0.195l0.001 0.006-0.040-0.128-0.987-2.445c0.636-0.439 1.047-1.164 1.047-1.985 0-1.26-0.968-2.293-2.201-2.397l-0.009-0.001-0.197-0.007h-2.095l-0.124 0.008c-0.358 0.055-0.639 0.332-0.698 0.684l-0.001 0.005-0.011 0.136 0.003 2.911-11.097-11.097h16.088c2.393 0 4.333 1.939 4.333 4.332v14.003zM23.733 19.479l0.015 0.027-2.069-2.069v-0.604h0.988l1.067 2.647zM22.935 13.688l-1.263-0.001 0.003 1.479h1.26l0.12-0.009c0.351-0.062 0.615-0.365 0.615-0.729s-0.263-0.667-0.61-0.729l-0.004-0.001-0.12-0.009z"></path>
</svg>
