<!-- Generated by IcoMoon.io -->
<svg version="1.1" xmlns="http://www.w3.org/2000/svg" width="32" height="32" viewBox="0 0 32 32">
<title>hdr-filled</title>
<path d="M25 4.668c2.393 0 4.333 1.94 4.333 4.333v14.003c0 2.393-1.94 4.333-4.333 4.333h-18c-2.393 0-4.333-1.94-4.333-4.333v-14.004c0-2.393 1.94-4.333 4.333-4.333h18zM11.171 11.991c-0.418 0-0.765 0.308-0.824 0.71l-0.009 0.123-0.001 2.357h-1.975v-2.334l-0.009-0.123c-0.060-0.402-0.406-0.71-0.824-0.71s-0.765 0.308-0.824 0.71l-0.009 0.123v6.336l0.009 0.123c0.060 0.402 0.406 0.71 0.824 0.71s0.765-0.308 0.824-0.71l0.009-0.123v-2.335h1.975l0.001 2.312 0.009 0.123c0.060 0.402 0.406 0.71 0.824 0.71s0.765-0.308 0.824-0.71l0.009-0.123v-6.336l-0.009-0.123c-0.060-0.402-0.406-0.71-0.824-0.71zM22.935 12.021h-2.097l-0.123 0.009c-0.357 0.053-0.641 0.333-0.699 0.689l-0.011 0.137 0.007 6.313 0.010 0.145 0.031 0.137c0.243 0.776 1.485 0.732 1.615-0.131l0.011-0.151-0.001-2.335 0.989-0 1.067 2.647 0.061 0.121c0.208 0.343 0.64 0.495 1.024 0.34s0.59-0.564 0.502-0.955l-0.041-0.129-0.985-2.444c0.631-0.434 1.045-1.161 1.045-1.985 0-1.262-0.972-2.298-2.208-2.398l-0.197-0.008zM15.167 12.009h-1.001l-0.123 0.009c-0.357 0.053-0.641 0.332-0.699 0.688l-0.011 0.136v6.322l0.009 0.123c0.053 0.357 0.332 0.641 0.688 0.699l0.137 0.011h1.001l0.221-0.007c1.757-0.11 3.162-1.515 3.272-3.272l0.007-0.221v-0.989l-0.007-0.221c-0.11-1.757-1.515-3.162-3.272-3.272l-0.221-0.007zM15.167 13.675c0.953 0 1.736 0.727 1.825 1.657l0.008 0.177v0.989l-0.008 0.177c-0.083 0.872-0.777 1.565-1.648 1.648l-0.177 0.008-0.169-0.001v-4.655h0.169zM21.673 13.687l1.262 0.001 0.12 0.010c0.351 0.057 0.619 0.362 0.619 0.729s-0.268 0.672-0.619 0.729l-0.12 0.010-1.261-0.001-0.001-1.479z"></path>
</svg>
