<!-- Generated by IcoMoon.io -->
<svg version="1.1" xmlns="http://www.w3.org/2000/svg" width="32" height="32" viewBox="0 0 32 32">
<title>headset-filled</title>
<path d="M8.333 12c0-4.234 3.433-7.667 7.667-7.667s7.667 3.433 7.667 7.667v1.333h-3.5c-0.828 0-1.5 0.672-1.5 1.5v0 5c0 0.828 0.672 1.5 1.5 1.5v0h2.333c1.565 0 2.833-1.269 2.833-2.833v0-4.333c0-0.028-0.001-0.056-0.004-0.083 0.003-0.027 0.004-0.055 0.004-0.083v-2c0-5.155-4.179-9.333-9.333-9.333s-9.333 4.179-9.333 9.333v9.333c0 3.038 2.462 5.5 5.5 5.5v0h0.605c0.383 1.449 1.683 2.5 3.227 2.5 1.841 0 3.333-1.492 3.333-3.333s-1.492-3.333-3.333-3.333c-1.545 0-2.844 1.051-3.222 2.477l-0.005 0.023h-0.605c-2.117 0-3.833-1.716-3.833-3.833v0-0.251c0.342 0.158 0.741 0.251 1.163 0.251 0.001 0 0.003 0 0.004 0h2.333c0.828 0 1.5-0.672 1.5-1.5v0-5c0-0.828-0.672-1.5-1.5-1.5v0h-3.5v-1.333z"></path>
</svg>
