<!-- Generated by IcoMoon.io -->
<svg version="1.1" xmlns="http://www.w3.org/2000/svg" width="32" height="32" viewBox="0 0 32 32">
<title>headset-vr-filled</title>
<path d="M12 5c0-0.552 0.448-1 1-1v0h6c0.552 0 1 0.448 1 1v0 1.667h4c2.946 0 5.333 2.388 5.333 5.333v0h0.333c0.552 0 1 0.448 1 1v0 4.667c0 0.552-0.448 1-1 1v0h-0.333v3.333c0 2.946-2.388 5.333-5.333 5.333v0h-2.061c-0 0-0 0-0.001 0-1.071 0-2.068-0.316-2.904-0.859l0.021 0.013-2.875-1.848c-0.051-0.033-0.113-0.053-0.18-0.053s-0.129 0.020-0.181 0.054l0.001-0.001-2.875 1.848c-0.815 0.531-1.812 0.847-2.883 0.847-0.001 0-0.001 0-0.002 0h-2.060c-2.946 0-5.333-2.388-5.333-5.333v0-3.333h-0.333c-0.552 0-1-0.448-1-1v0-4.667c0-0.552 0.448-1 1-1v0h0.333c0-2.946 2.388-5.333 5.333-5.333v0h4v-1.667zM16 13.333c0.736 0 1.333-0.597 1.333-1.333s-0.597-1.333-1.333-1.333v0c-0.736 0-1.333 0.597-1.333 1.333s0.597 1.333 1.333 1.333v0zM8 16.333c0 0.552 0.448 1 1 1h3.333c0.552 0 1-0.448 1-1s-0.448-1-1-1v0h-3.333c-0.552 0-1 0.448-1 1v0zM19.667 15.333c-0.552 0-1 0.448-1 1s0.448 1 1 1v0h3.333c0.552 0 1-0.448 1-1s-0.448-1-1-1v0h-3.333z"></path>
</svg>
