<!-- Generated by IcoMoon.io -->
<svg version="1.1" xmlns="http://www.w3.org/2000/svg" width="32" height="32" viewBox="0 0 32 32">
<title>headset-add-filled</title>
<path d="M30.667 8.667c0-4.050-3.283-7.333-7.333-7.333s-7.333 3.283-7.333 7.333c0 4.050 3.283 7.333 7.333 7.333s7.333-3.283 7.333-7.333zM24.001 9.333l0.001 3.338c0 0.368-0.298 0.667-0.667 0.667s-0.667-0.298-0.667-0.667l-0.001-3.338h-3.34c-0.368 0-0.666-0.298-0.666-0.667s0.298-0.667 0.666-0.667h3.34l-0.001-3.334c0-0.368 0.299-0.667 0.667-0.667s0.667 0.298 0.667 0.667l0.001 3.334h3.328c0.368 0 0.666 0.298 0.666 0.667s-0.298 0.667-0.666 0.667h-3.328zM23.333 17.333c0.688 0 1.358-0.080 2-0.232v2.899c0 1.473-1.194 2.667-2.667 2.667h-2.667c-0.736 0-1.333-0.597-1.333-1.333v-5.333l0-0.029c1.347 0.862 2.948 1.362 4.666 1.362zM16.029 4c-0.406 0.635-0.732 1.326-0.963 2.059-3.609 0.459-6.399 3.541-6.399 7.274v1.333h3.333c0.736 0 1.333 0.597 1.333 1.333v5.333c0 0.736-0.597 1.333-1.333 1.333h-2.667c-0.23 0-0.454-0.029-0.667-0.084l0 0.417c0 1.588 1.234 2.887 2.795 2.993l0.205 0.007 1.504 0.001c0.412-1.166 1.523-2.001 2.83-2.001 1.657 0 3 1.343 3 3s-1.343 3-3 3c-1.306 0-2.417-0.835-2.829-2l-1.504-0c-2.672 0-4.855-2.097-4.993-4.734l-0.007-0.266v-9.667c0-5.155 4.179-9.333 9.333-9.333l0.029 0z"></path>
</svg>
