<!-- Generated by IcoMoon.io -->
<svg version="1.1" xmlns="http://www.w3.org/2000/svg" width="32" height="32" viewBox="0 0 32 32">
<title>headphones-filled</title>
<path d="M16 2.667c7.364 0 13.333 5.97 13.333 13.333v9.333c0 2.209-1.791 4-4 4h-4c-0.736 0-1.333-0.597-1.333-1.333v-8c0-0.736 0.597-1.333 1.333-1.333h6v-2.667c0-6.259-5.074-11.333-11.333-11.333s-11.333 5.074-11.333 11.333v2.667h6c0.736 0 1.333 0.597 1.333 1.333v8c0 0.736-0.597 1.333-1.333 1.333h-4c-2.209 0-4-1.791-4-4v-9.333c0-7.364 5.97-13.333 13.333-13.333z"></path>
</svg>
