<!-- Generated by IcoMoon.io -->
<svg version="1.1" xmlns="http://www.w3.org/2000/svg" width="32" height="32" viewBox="0 0 32 32">
<title>heart-pulse-filled</title>
<path d="M15.033 6.119c-1.382-1.385-3.292-2.242-5.403-2.242-4.215 0-7.631 3.416-7.631 7.631 0 1.081 0.225 2.11 0.63 3.042l-0.019-0.049h5.081l2.137-3.74c0.439-0.758 1.246-1.26 2.171-1.26 0.973 0 1.817 0.556 2.23 1.368l0.007 0.014 2.16 4.322 1.582-2.174c0.46-0.627 1.194-1.029 2.022-1.029 0.611 0 1.17 0.219 1.604 0.583l-0.004-0.003 2.305 1.92h5.551c0.34-0.837 0.537-1.807 0.537-2.823 0-4.251-3.446-7.697-7.697-7.697-2.121 0-4.042 0.858-5.435 2.247l-0.86 0.86-0.966-0.967zM15.27 28.684l-8.608-9.184h2.481c0.924-0 1.731-0.502 2.164-1.248l0.006-0.012 0.54-0.944 1.91 3.822c0.419 0.826 1.263 1.383 2.236 1.383 0.828 0 1.563-0.403 2.018-1.024l0.005-0.007 2.43-3.34 0.947 0.79c0.43 0.361 0.99 0.58 1.601 0.58h2.468l-8.744 9.19c-0.183 0.191-0.439 0.31-0.724 0.31-0.288 0-0.547-0.121-0.729-0.316l-0.001-0.001zM12.894 11.553c-0.168-0.331-0.505-0.553-0.895-0.553-0.362 0-0.679 0.193-0.855 0.481l-0.002 0.004-2.708 4.515h-5.767c-0.552 0-1 0.448-1 1s0.448 1 1 1v0h6.333c0.362-0 0.679-0.192 0.854-0.481l0.002-0.004 2.063-3.439 3.186 6.371c0.168 0.33 0.505 0.553 0.894 0.553 0.331 0 0.625-0.161 0.807-0.409l0.002-0.003 3.371-4.636 2.18 1.816c0.172 0.144 0.396 0.232 0.64 0.232h6c0.552 0 1-0.448 1-1s-0.448-1-1-1v0h-5.638l-2.722-2.268c-0.172-0.144-0.396-0.232-0.64-0.232-0.331 0-0.625 0.161-0.807 0.409l-0.002 0.003-3.032 4.17-3.265-6.53z"></path>
</svg>
