<!-- Generated by IcoMoon.io -->
<svg version="1.1" xmlns="http://www.w3.org/2000/svg" width="32" height="32" viewBox="0 0 32 32">
<title>highlight-filled</title>
<path d="M7 2.667c-1.657 0-3 1.343-3 3v4c0 1.657 1.343 3 3 3h18c1.657 0 3-1.343 3-3v-4c0-1.657-1.343-3-3-3h-18z"></path>
<path d="M6.667 15.667v-1h18.667v1c0 1.657-1.343 3-3 3h-12.667c-1.657 0-3-1.343-3-3z"></path>
<path d="M10.004 20.667h11.998l0.001 1.717c0 1.087-0.587 2.082-1.522 2.611l-0.206 0.106-8.846 4.142c-0.622 0.291-1.329-0.116-1.415-0.771l-0.009-0.134-0-7.671z"></path>
</svg>
