<!-- Generated by IcoMoon.io -->
<svg version="1.1" xmlns="http://www.w3.org/2000/svg" width="32" height="32" viewBox="0 0 32 32">
<title>highlight-filled</title>
<path d="M7 2.667c-1.657 0-3 1.343-3 3v0 4c0 1.657 1.343 3 3 3v0h18c1.657 0 3-1.343 3-3v0-4c0-1.657-1.343-3-3-3v0h-18zM6.667 15.667v-1h18.667v1c0 1.657-1.343 3-3 3v0h-12.667c-1.657 0-3-1.343-3-3v0zM10.004 20.667h11.996v1.717c0 0 0 0 0 0 0 1.113-0.606 2.085-1.507 2.603l-0.015 0.008-0.205 0.107-8.847 4.141c-0.124 0.059-0.27 0.094-0.424 0.094-0.505 0-0.922-0.374-0.99-0.86l-0.001-0.005-0.009-0.135v-7.671z"></path>
</svg>
