<!-- Generated by IcoMoon.io -->
<svg version="1.1" xmlns="http://www.w3.org/2000/svg" width="32" height="32" viewBox="0 0 32 32">
<title>history-filled</title>
<path d="M6 16c0 5.523 4.477 10 10 10s10-4.477 10-10c0-5.523-4.477-10-10-10-0.004 0-0.009 0-0.013 0-2.709 0-5.166 1.081-6.963 2.835l0.002-0.002h2.141c0.552 0 1 0.448 1 1s-0.448 1-1 1v0h-4.333c-0.552 0-1-0.448-1-1v0-4.333c0-0.552 0.448-1 1-1s1 0.448 1 1v0 1.707c2.129-1.987 4.997-3.207 8.15-3.207 0.006 0 0.012 0 0.018 0h-0.001c6.627 0 12 5.373 12 12s-5.373 12-12 12-12-5.373-12-12c0-0.347 0.015-0.692 0.044-1.032 0.047-0.561 0.535-0.968 1.098-0.968 0.547 0 0.955 0.502 0.903 1.047-0.029 0.313-0.045 0.631-0.045 0.953zM16.667 10.333c0-0.552-0.448-1-1-1s-1 0.448-1 1v0 6.667c0 0.552 0.448 1 1 1v0h3.333c0.552 0 1-0.448 1-1s-0.448-1-1-1v0h-2.333v-5.667z"></path>
</svg>
