<!-- Generated by IcoMoon.io -->
<svg version="1.1" xmlns="http://www.w3.org/2000/svg" width="32" height="32" viewBox="0 0 32 32">
<title>history-filled</title>
<path d="M16 4c6.627 0 12 5.373 12 12s-5.373 12-12 12c-2.279 0-4.468-0.638-6.359-1.822-0.77-0.482-1.484-1.051-2.127-1.693-0.644-0.644-1.213-1.359-1.695-2.13-1.182-1.891-1.819-4.077-1.819-6.354 0-0.365 0.016-0.729 0.049-1.090 0.066-0.733 0.714-1.274 1.448-1.208s1.274 0.714 1.208 1.448c-0.025 0.281-0.038 0.565-0.038 0.85 0 1.774 0.494 3.471 1.413 4.941 0.376 0.601 0.819 1.157 1.32 1.659s1.056 0.943 1.656 1.319c1.47 0.92 3.169 1.415 4.944 1.415 5.155 0 9.333-4.179 9.333-9.333s-4.179-9.333-9.333-9.333c-2.495 0-4.821 0.986-6.536 2.669l1.866 0.002c0.736 0 1.333 0.597 1.333 1.333 0 0.684-0.515 1.247-1.178 1.324l-0.155 0.009h-5.335c-0.684 0-1.247-0.515-1.324-1.178l-0.009-0.155v-5.333c0-0.736 0.597-1.333 1.333-1.333 0.684 0 1.247 0.515 1.324 1.178l0.009 0.155-0.001 2.367c2.227-2.329 5.333-3.705 8.672-3.705zM15 9.333c0.506 0 0.925 0.376 0.991 0.864l0.009 0.136v5.667h3c0.552 0 1 0.448 1 1 0 0.506-0.376 0.925-0.864 0.991l-0.136 0.009h-4c-0.506 0-0.925-0.376-0.991-0.864l-0.009-0.136v-6.667c0-0.552 0.448-1 1-1z"></path>
</svg>
