<!-- Generated by IcoMoon.io -->
<svg version="1.1" xmlns="http://www.w3.org/2000/svg" width="32" height="32" viewBox="0 0 32 32">
<title>home-split-filled</title>
<path d="M17.581 3.897c-0.427-0.351-0.979-0.564-1.581-0.564s-1.154 0.213-1.586 0.567l0.004-0.003-8.833 7.216c-0.563 0.462-0.919 1.157-0.919 1.936v13.116c0 1.381 1.119 2.5 2.5 2.5v0h17.667c1.381 0 2.5-1.119 2.5-2.5v0-13.116c0-0 0-0 0-0 0-0.778-0.356-1.474-0.914-1.932l-0.004-0.003-8.833-7.216zM16.833 8.833v1.667c0 0.46-0.373 0.833-0.833 0.833s-0.833-0.373-0.833-0.833v0-1.667c0-0.46 0.373-0.833 0.833-0.833s0.833 0.373 0.833 0.833v0zM16 14.667c0.46 0 0.833 0.373 0.833 0.833v1.667c0 0.46-0.373 0.833-0.833 0.833s-0.833-0.373-0.833-0.833v0-1.667c0-0.46 0.373-0.833 0.833-0.833zM16.833 22.167v1.667c0 0.46-0.373 0.833-0.833 0.833s-0.833-0.373-0.833-0.833v0-1.667c0-0.46 0.373-0.833 0.833-0.833s0.833 0.373 0.833 0.833v0z"></path>
</svg>
