<!-- Generated by IcoMoon.io -->
<svg version="1.1" xmlns="http://www.w3.org/2000/svg" width="32" height="32" viewBox="0 0 32 32">
<title>home-checkmark-filled</title>
<path d="M14.049 3.378c1.117-0.944 2.752-0.946 3.871-0.003l9.014 7.599c0.676 0.57 1.066 1.409 1.066 2.294v13.065c0 1.289-1.045 2.333-2.333 2.333h-19.333c-1.289 0-2.333-1.045-2.333-2.333v-13.066c0-0.883 0.389-1.721 1.063-2.291l8.986-7.597zM21.045 15.702c0.391-0.391 0.391-1.024 0-1.414s-1.024-0.391-1.414 0l-5.297 5.297-1.96-1.96c-0.391-0.391-1.024-0.391-1.414 0s-0.391 1.024 0 1.414l2.667 2.667c0.187 0.187 0.442 0.293 0.707 0.293s0.52-0.105 0.707-0.293l6.005-6.005z"></path>
</svg>
