<!-- Generated by IcoMoon.io -->
<svg version="1.1" xmlns="http://www.w3.org/2000/svg" width="32" height="32" viewBox="0 0 32 32">
<title>home-add-filled</title>
<path d="M28 15.971c-1.347 0.862-2.949 1.362-4.667 1.362-4.787 0-8.667-3.88-8.667-8.667 0-2.253 0.86-4.306 2.27-5.847-0.964-0.316-2.055-0.131-2.871 0.558l-9 7.593c-0.676 0.57-1.066 1.409-1.066 2.293v13.071c0 1.289 1.045 2.333 2.333 2.333h4c1.289 0 2.333-1.045 2.333-2.333v-6.667c0-0.552 0.448-1 1-1h4.667c0.552 0 1 0.448 1 1v6.667c0 1.289 1.045 2.333 2.333 2.333h4c1.289 0 2.333-1.045 2.333-2.333v-10.362z"></path>
<path d="M23.333 1.333c4.050 0 7.333 3.283 7.333 7.333s-3.283 7.333-7.333 7.333c-4.050 0-7.333-3.283-7.333-7.333s3.283-7.333 7.333-7.333zM24.001 12.671l-0.001-3.338h3.337c0.368 0 0.667-0.298 0.667-0.667s-0.298-0.667-0.667-0.667h-3.337l-0.001-3.334c0-0.368-0.299-0.667-0.667-0.667s-0.667 0.298-0.667 0.667l0.001 3.334h-3.339c-0.368 0-0.667 0.298-0.667 0.667s0.299 0.667 0.667 0.667h3.339l0.001 3.338c0 0.368 0.299 0.667 0.667 0.667s0.667-0.298 0.667-0.667z"></path>
</svg>
