<!-- Generated by IcoMoon.io -->
<svg version="1.1" xmlns="http://www.w3.org/2000/svg" width="32" height="32" viewBox="0 0 32 32">
<title>home-filled</title>
<path d="M14.066 3.378c1.117-0.943 2.751-0.943 3.869 0l9 7.593c0.676 0.57 1.066 1.409 1.066 2.293v13.071c0 1.289-1.045 2.333-2.333 2.333h-4c-1.289 0-2.333-1.045-2.333-2.333v-6.667c0-0.552-0.448-1-1-1h-4.667c-0.552 0-1 0.448-1 1v6.667c0 1.289-1.045 2.333-2.333 2.333h-4c-1.289 0-2.333-1.045-2.333-2.333v-13.071c0-0.884 0.39-1.723 1.066-2.293l9-7.593z"></path>
</svg>
