<!-- Generated by IcoMoon.io -->
<svg version="1.1" xmlns="http://www.w3.org/2000/svg" width="32" height="32" viewBox="0 0 32 32">
<title>home-person-filled</title>
<path d="M17.933 3.377c-0.518-0.439-1.195-0.706-1.933-0.706s-1.415 0.267-1.938 0.71l0.004-0.004-9 7.592c-0.654 0.554-1.066 1.375-1.067 2.293v13.071c0 1.288 1.045 2.333 2.333 2.333h4c1.289 0 2.333-1.045 2.333-2.333v0-6.667c0-0.552 0.448-1 1-1v0h6.38c0.338-2.275 2.278-4 4.62-4 1.305 0 2.486 0.536 3.333 1.399l0.001 0.001v-2.804c-0-0.918-0.413-1.74-1.062-2.29l-0.004-0.004-9-7.592zM28 19.333c0 1.841-1.492 3.333-3.333 3.333s-3.333-1.492-3.333-3.333v0c0-1.841 1.492-3.333 3.333-3.333s3.333 1.492 3.333 3.333v0zM30.667 26.5c0 2.075-1.715 4.167-6 4.167s-6-2.084-6-4.167v-0.137c0-1.307 1.059-2.363 2.364-2.363h7.272c1.307 0 2.364 1.057 2.364 2.363v0.137z"></path>
</svg>
