<!-- Generated by IcoMoon.io -->
<svg version="1.1" xmlns="http://www.w3.org/2000/svg" width="32" height="32" viewBox="0 0 32 32">
<title>home-more-filled</title>
<path d="M18.105 2.777c-0.563-0.481-1.3-0.774-2.105-0.774s-1.542 0.293-2.11 0.778l0.005-0.004-9.75 8.287c-0.702 0.6-1.145 1.486-1.145 2.476v0 12.215c0 1.792 1.453 3.245 3.245 3.245v0h19.51c1.792 0 3.245-1.453 3.245-3.245v0-12.214c0-0 0-0.001 0-0.001 0-0.99-0.442-1.876-1.14-2.472l-0.005-0.004-9.75-8.287zM12 16.5c0 0.828-0.672 1.5-1.5 1.5s-1.5-0.672-1.5-1.5v0c0-0.828 0.672-1.5 1.5-1.5s1.5 0.672 1.5 1.5v0zM10.5 23c-0.828 0-1.5-0.672-1.5-1.5s0.672-1.5 1.5-1.5v0c0.828 0 1.5 0.672 1.5 1.5s-0.672 1.5-1.5 1.5v0zM16 23c-0.828 0-1.5-0.672-1.5-1.5s0.672-1.5 1.5-1.5v0c0.828 0 1.5 0.672 1.5 1.5s-0.672 1.5-1.5 1.5v0zM16 18c-0.828 0-1.5-0.672-1.5-1.5s0.672-1.5 1.5-1.5v0c0.828 0 1.5 0.672 1.5 1.5s-0.672 1.5-1.5 1.5v0zM21.5 18c-0.828 0-1.5-0.672-1.5-1.5s0.672-1.5 1.5-1.5v0c0.828 0 1.5 0.672 1.5 1.5s-0.672 1.5-1.5 1.5v0zM21.5 23c-0.828 0-1.5-0.672-1.5-1.5s0.672-1.5 1.5-1.5v0c0.828 0 1.5 0.672 1.5 1.5s-0.672 1.5-1.5 1.5v0z"></path>
</svg>
