<!-- Generated by IcoMoon.io -->
<svg version="1.1" xmlns="http://www.w3.org/2000/svg" width="32" height="32" viewBox="0 0 32 32">
<title>home-filled</title>
<path d="M14.404 3.903c0.431-0.355 0.988-0.57 1.596-0.57s1.165 0.215 1.6 0.574l-0.004-0.003 8.783 7.161c0.584 0.482 0.954 1.206 0.954 2.016 0 0.002 0 0.003 0 0.005v-0 12.99c0 1.431-1.141 2.591-2.55 2.591h-3.4c-1.409 0-2.55-1.16-2.55-2.591v-6.242c0-0.477-0.38-0.863-0.85-0.863h-3.967c-0.469 0-0.85 0.387-0.85 0.863v6.243c0 1.431-1.141 2.591-2.55 2.591h-3.4c-1.408-0.001-2.55-1.161-2.55-2.592v-12.99c0-0.001 0-0.003 0-0.005 0-0.81 0.37-1.534 0.95-2.012l0.004-0.004 8.783-7.161z"></path>
</svg>
