<!-- Generated by IcoMoon.io -->
<svg version="1.1" xmlns="http://www.w3.org/2000/svg" width="32" height="32" viewBox="0 0 32 32">
<title>hourglass-filled</title>
<path d="M23 6h-14c-0.184 0-0.333 0.149-0.333 0.333v0 0.8c0.014 1.464 0.755 2.753 1.879 3.524l0.015 0.010 2.773 1.973c0.56 0.371 1.027 0.867 1.36 1.452 0.329 0.545 0.523 1.204 0.523 1.908s-0.194 1.363-0.533 1.925l0.009-0.017c-0.333 0.584-0.8 1.081-1.36 1.452l-2.773 1.973c-1.138 0.78-1.879 2.069-1.893 3.531l-0 0.002v0.8c0 0.184 0.149 0.333 0.333 0.333v0h14c0.184 0 0.333-0.149 0.333-0.333v0-0.8c-0.014-1.464-0.755-2.753-1.879-3.524l-0.015-0.010-2.773-1.973c-0.561-0.375-1.019-0.862-1.349-1.431l-0.011-0.021c-0.329-0.545-0.523-1.204-0.523-1.908s0.195-1.363 0.533-1.925l-0.009 0.017c0.333-0.584 0.8-1.081 1.36-1.452l2.773-1.973c1.138-0.78 1.879-2.069 1.893-3.531l0-0.002v-0.8c0-0.184-0.149-0.333-0.333-0.333v0z"></path>
</svg>
