<!-- Generated by IcoMoon.io -->
<svg version="1.1" xmlns="http://www.w3.org/2000/svg" width="32" height="32" viewBox="0 0 32 32">
<title>icons-filled</title>
<path d="M22.803 12.795c0.297-0.346 0.558-0.724 0.776-1.128h3.091c1.473 0 2.667-1.194 2.667-2.667 0-0.736-0.597-1.333-1.333-1.333h-3.748c-0.479-3.023-3.097-5.333-6.255-5.333-3.498 0-6.333 2.836-6.333 6.333 0 1.223 0.347 2.365 0.947 3.333h-6.614c-1.105 0-2 0.895-2 2v1c0 5.155 4.179 9.333 9.333 9.333h1.289c0.024-0.055 0.049-0.111 0.075-0.167-0.379-0.724-0.697-1.678-0.697-2.833 0-1.647 0.817-3.287 1.97-4.516 1.197-1.277 2.927-2.306 5.057-2.588 1.165-0.154 2.205-0.225 3.131-0.236-0.38-0.472-0.838-0.878-1.355-1.198z"></path>
<path d="M16.32 23.938c-0.984 1.479-1.566 3.048-1.644 4.335-0.034 0.551 0.386 1.025 0.937 1.059s1.025-0.386 1.059-0.937c0.042-0.686 0.322-1.615 0.861-2.601 0.79 0.827 2.028 1.545 3.8 1.545 1.738 0 3.040-0.609 3.999-1.586 0.924-0.941 1.473-2.167 1.862-3.317 0.197-0.582 0.361-1.168 0.509-1.715l0.076-0.282c0.12-0.445 0.231-0.855 0.348-1.234 0.142-0.459 0.28-0.823 0.426-1.1 0.148-0.28 0.271-0.403 0.347-0.454 0.326-0.216 0.496-0.602 0.435-0.989s-0.341-0.702-0.717-0.808c-1.366-0.384-3.683-0.797-7.417-0.303-1.798 0.238-3.254 1.105-4.26 2.178-0.987 1.053-1.609 2.381-1.609 3.604 0 0.503 0.077 0.957 0.197 1.359 0.288-0.429 0.612-0.85 0.969-1.257 1.579-1.799 3.86-3.379 6.673-4.082 0.357-0.089 0.719 0.128 0.809 0.485s-0.128 0.719-0.485 0.809c-2.521 0.63-4.573 2.050-5.994 3.668-0.469 0.534-0.863 1.082-1.181 1.623z"></path>
</svg>
