<!-- Generated by IcoMoon.io -->
<svg version="1.1" xmlns="http://www.w3.org/2000/svg" width="32" height="32" viewBox="0 0 32 32">
<title>image-copy-filled</title>
<path d="M5.151 6.866c-1.042 0.668-1.722 1.82-1.722 3.131 0 0.001 0 0.002 0 0.003v-0 12c0 3.314 2.686 6 6 6h12c0.001 0 0.001 0 0.002 0 1.312 0 2.465-0.681 3.125-1.709l0.009-0.015-0.139 0.007-0.139 0.002h-14.857c-2.367 0-4.286-1.919-4.286-4.286v0-14.857c0-0.093 0.002-0.185 0.008-0.277zM16.649 16.169l-0.106 0.089-8.489 8.335c0.552 0.345 1.222 0.55 1.94 0.55 0.002 0 0.005 0 0.007 0h14.285c0.714 0 1.381-0.201 1.946-0.55l-8.488-8.335-0.096-0.080c-0.14-0.103-0.315-0.165-0.506-0.165-0.137 0-0.267 0.032-0.382 0.089l0.005-0.002-0.117 0.069zM10 3.429c-2.051 0-3.714 1.663-3.714 3.714v0 14.286c0 0.717 0.203 1.386 0.554 1.954l8.502-8.347 0.146-0.134c0.444-0.375 1.023-0.603 1.655-0.603 0.628 0 1.204 0.225 1.651 0.6l-0.004-0.003 0.155 0.141 8.501 8.346c0.348-0.553 0.554-1.226 0.554-1.947 0-0.002 0-0.004 0-0.006v0-14.286c0-2.051-1.663-3.714-3.714-3.714v0h-14.286zM12.571 8.286c0.012-0 0.026-0.001 0.040-0.001 0.789 0 1.429 0.64 1.429 1.429s-0.64 1.429-1.429 1.429c-0.014 0-0.028-0-0.042-0.001l0.002 0c-0.771-0.023-1.388-0.653-1.388-1.428s0.617-1.405 1.386-1.428l0.002-0z"></path>
</svg>
