<!-- Generated by IcoMoon.io -->
<svg version="1.1" xmlns="http://www.w3.org/2000/svg" width="32" height="32" viewBox="0 0 32 32">
<title>image-arrow-counterclockwise-filled</title>
<path d="M16 8.667c0-4.050-3.283-7.333-7.333-7.333s-7.333 3.283-7.333 7.333v0c0 4.050 3.283 7.333 7.333 7.333s7.333-3.283 7.333-7.333v0zM5.333 4.667v0.735c0.848-0.865 2.028-1.401 3.334-1.401 2.577 0 4.667 2.089 4.667 4.667s-2.089 4.667-4.667 4.667c-1.437 0-2.721-0.649-3.578-1.67l-0.006-0.007c-0.351-0.42-0.003-0.989 0.544-0.989 0.235 0 0.452 0.113 0.613 0.284 0.609 0.646 1.471 1.048 2.426 1.048 1.841 0 3.333-1.492 3.333-3.333s-1.492-3.333-3.333-3.333c-1.087 0-2.053 0.521-2.662 1.326l-0.006 0.008h1.333c0.368 0 0.667 0.298 0.667 0.667s-0.298 0.667-0.667 0.667v0h-2.667c-0.368 0-0.667-0.298-0.667-0.667v0-2.667c0-0.368 0.298-0.667 0.667-0.667s0.667 0.298 0.667 0.667v0zM23.339 12.336c0-0.554-0.449-1.003-1.003-1.003s-1.003 0.449-1.003 1.003v0c0 0.554 0.449 1.003 1.003 1.003s1.003-0.449 1.003-1.003v0zM17.333 8.667c0 0.001 0 0.002 0 0.003 0 4.786-3.88 8.667-8.667 8.667-1.203 0-2.349-0.245-3.39-0.688l0.057 0.021v8.331c0 0.836 0.237 1.617 0.647 2.28l9.252-9.084 0.18-0.163c0.516-0.433 1.188-0.696 1.921-0.696 0.738 0 1.413 0.266 1.935 0.708l-0.004-0.004 0.171 0.156 9.252 9.081c0.406-0.646 0.647-1.43 0.647-2.272 0-0.002 0-0.005 0-0.007v0-15.333c0-2.393-1.94-4.333-4.333-4.333v0h-8.331c0.427 1.027 0.664 2.152 0.664 3.333zM19.333 12.336c0-1.658 1.344-3.003 3.003-3.003s3.003 1.344 3.003 3.003v0c0 1.658-1.344 3.003-3.003 3.003s-3.003-1.344-3.003-3.003v0zM16.633 19.624l0.111-0.095c0.163-0.12 0.368-0.192 0.589-0.192 0.216 0 0.416 0.068 0.579 0.185l-0.003-0.002 0.124 0.104 9.237 9.067c-0.644 0.403-1.427 0.643-2.265 0.643-0.002 0-0.004 0-0.006 0h-15.333c-0.002 0-0.005 0-0.008 0-0.838 0-1.619-0.239-2.281-0.652l0.018 0.011 9.237-9.068z"></path>
</svg>
