<!-- Generated by IcoMoon.io -->
<svg version="1.1" xmlns="http://www.w3.org/2000/svg" width="32" height="32" viewBox="0 0 32 32">
<title>image-multiple-filled</title>
<path d="M7.167 3.333c-2.117 0-3.833 1.716-3.833 3.833v0 14.333c0 0.761 0.222 1.471 0.605 2.067l8.585-8.299c0.389-0.377 0.921-0.609 1.506-0.609 0.561 0 1.072 0.213 1.457 0.563l-0.002-0.002 9.231 8.367c0.387-0.587 0.617-1.307 0.617-2.081 0-0.002 0-0.004 0-0.006v0-14.333c0-2.117-1.716-3.833-3.833-3.833v0h-14.333zM23.524 24.756l-9.159-8.3c-0.088-0.080-0.206-0.13-0.336-0.13-0.135 0-0.258 0.054-0.348 0.14l0-0-8.562 8.275c0.592 0.375 1.293 0.591 2.046 0.591h14.333c0.002 0 0.004 0 0.006 0 0.748 0 1.445-0.215 2.034-0.587l-0.016 0.009zM20 10.667c0 0.736-0.597 1.333-1.333 1.333s-1.333-0.597-1.333-1.333v0c0-0.736 0.597-1.333 1.333-1.333s1.333 0.597 1.333 1.333v0zM10.167 28.333c-0.001 0-0.002 0-0.003 0-1.308 0-2.463-0.656-3.154-1.657l-0.008-0.013c0.055 0.002 0.109 0.003 0.165 0.003h14.333c2.853 0 5.167-2.313 5.167-5.167v0-14.333c0-0.055-0.001-0.11-0.003-0.165 1.014 0.699 1.669 1.854 1.669 3.162 0 0.001 0 0.002 0 0.003v-0 11.333c0 3.773-3.060 6.833-6.833 6.833h-11.333z"></path>
</svg>
