<!-- Generated by IcoMoon.io -->
<svg version="1.1" xmlns="http://www.w3.org/2000/svg" width="32" height="32" viewBox="0 0 32 32">
<title>image-copy-filled</title>
<path d="M6.009 8.010c-1.207 0.767-2.009 2.118-2.009 3.656v8.667c0 3.866 3.134 7 7 7h8.667c1.538 0 2.89-0.802 3.659-2.010l-0.163 0.008-0.162 0.002h-12c-2.761 0-5-2.239-5-5v-12c0-0.108 0.003-0.216 0.009-0.323zM16.761 16.199l-0.124 0.104-7.193 7.084c0.65 0.389 1.41 0.613 2.223 0.613h11.333c0.828 0 1.602-0.232 2.26-0.635l-7.223-7.064-0.112-0.094c-0.303-0.22-0.701-0.25-1.029-0.088l-0.136 0.081zM11.667 4c-2.393 0-4.333 1.94-4.333 4.333v11.333c0 0.855 0.248 1.653 0.676 2.325l7.224-7.113 0.171-0.156c1.109-0.937 2.736-0.942 3.851-0.014l0.181 0.163 7.244 7.086c0.414-0.664 0.654-1.449 0.654-2.29v-11.333c0-2.393-1.94-4.333-4.333-4.333h-11.333zM12.666 7.668c0.92 0 1.666 0.746 1.666 1.666s-0.746 1.666-1.666 1.666c-0.92 0-1.666-0.746-1.666-1.666s0.746-1.666 1.666-1.666z"></path>
</svg>
