<!-- Generated by IcoMoon.io -->
<svg version="1.1" xmlns="http://www.w3.org/2000/svg" width="32" height="32" viewBox="0 0 32 32">
<title>image-add-filled</title>
<path d="M17.909 19.52l0.125 0.104 9.237 9.068c-0.66 0.407-1.438 0.642-2.271 0.642h-15.333c-0.833 0-1.61-0.235-2.271-0.642l9.237-9.068 0.111-0.095c0.346-0.252 0.816-0.256 1.165-0.009zM25 5.333c2.393 0 4.333 1.94 4.333 4.333v15.333c0 0.836-0.237 1.617-0.647 2.279l-9.251-9.082-0.171-0.156c-1.11-0.935-2.738-0.938-3.851-0.008l-0.181 0.164-9.251 9.082c-0.41-0.662-0.647-1.443-0.647-2.279v-8.331c1.026 0.428 2.152 0.664 3.333 0.664 4.787 0 8.667-3.88 8.667-8.667 0-1.181-0.236-2.307-0.664-3.333h8.331zM8.667 1.333c4.050 0 7.333 3.283 7.333 7.333s-3.283 7.333-7.333 7.333c-4.050 0-7.333-3.283-7.333-7.333s3.283-7.333 7.333-7.333zM22.336 9.333c-1.658 0-3.003 1.344-3.003 3.003s1.344 3.003 3.003 3.003 3.003-1.344 3.003-3.003c0-1.658-1.344-3.003-3.003-3.003zM22.336 11.333c0.554 0 1.003 0.449 1.003 1.003s-0.449 1.003-1.003 1.003c-0.554 0-1.003-0.449-1.003-1.003s0.449-1.003 1.003-1.003zM8.667 3.999l-0.12 0.011c-0.272 0.049-0.487 0.264-0.536 0.536l-0.011 0.12-0 3.333-3.336 0.001-0.12 0.011c-0.272 0.049-0.487 0.264-0.536 0.536l-0.011 0.12 0.011 0.12c0.049 0.272 0.264 0.487 0.536 0.536l0.12 0.011 3.337-0.001 0.001 3.339 0.011 0.12c0.049 0.272 0.264 0.487 0.536 0.536l0.12 0.011 0.12-0.011c0.272-0.049 0.487-0.264 0.536-0.536l0.011-0.12-0.001-3.339 3.339 0.001 0.12-0.011c0.272-0.049 0.487-0.264 0.536-0.536l0.011-0.12-0.011-0.12c-0.049-0.272-0.264-0.487-0.536-0.536l-0.12-0.011-3.34-0.001 0-3.333-0.011-0.12c-0.049-0.272-0.264-0.487-0.536-0.536l-0.12-0.011z"></path>
</svg>
