<!-- Generated by IcoMoon.io -->
<svg version="1.1" xmlns="http://www.w3.org/2000/svg" width="32" height="32" viewBox="0 0 32 32">
<title>image-off-filled</title>
<path d="M4.374 2.96c-0.391-0.391-1.024-0.391-1.414-0s-0.391 1.024-0 1.414l1.685 1.685c-0.409 0.661-0.644 1.44-0.644 2.275v15.333c0 0.836 0.237 1.617 0.647 2.279l9.251-9.082 0.181-0.164c0.231-0.193 0.483-0.345 0.749-0.458l1.265 1.265-0.793 0.784-9.237 9.068c0.66 0.407 1.438 0.642 2.271 0.642h15.333c0.833 0 1.61-0.235 2.271-0.642-0.011-0.013-0.022-0.026-0.033-0.039l1.722 1.722c0.391 0.391 1.024 0.391 1.414 0s0.391-1.024 0-1.414l-24.666-24.667z"></path>
<path d="M21.003 10c-0.554 0-1.003 0.449-1.003 1.003s0.449 1.003 1.003 1.003c0.554 0 1.003-0.449 1.003-1.003s-0.449-1.003-1.003-1.003z"></path>
<path d="M28 23.667c0 0.030-0 0.060-0.001 0.090l-19.756-19.756c0.030-0.001 0.060-0.001 0.090-0.001h15.333c2.393 0 4.333 1.94 4.333 4.333v15.333zM21.003 8c-1.658 0-3.003 1.344-3.003 3.003s1.344 3.003 3.003 3.003c1.658 0 3.003-1.344 3.003-3.003s-1.344-3.003-3.003-3.003z"></path>
</svg>
