<!-- Generated by IcoMoon.io -->
<svg version="1.1" xmlns="http://www.w3.org/2000/svg" width="32" height="32" viewBox="0 0 32 32">
<title>image-search-filled</title>
<path d="M22.006 11.003c0-0.554-0.449-1.003-1.003-1.003s-1.003 0.449-1.003 1.003c0 0.554 0.449 1.003 1.003 1.003s1.003-0.449 1.003-1.003z"></path>
<path d="M4 14.343v-6.010c0-2.393 1.94-4.333 4.333-4.333h15.333c2.393 0 4.333 1.94 4.333 4.333v15.333c0 0.836-0.237 1.617-0.647 2.279l-9.251-9.082-0.171-0.156c-0.849-0.715-1.999-0.885-2.992-0.51-1.286-2.117-3.614-3.531-6.272-3.531-1.773 0-3.399 0.629-4.667 1.676zM18 11.003c0 1.658 1.344 3.003 3.003 3.003s3.003-1.344 3.003-3.003c0-1.658-1.344-3.003-3.003-3.003s-3.003 1.344-3.003 3.003z"></path>
<path d="M18.643 28c-0.069-0.482-0.289-0.946-0.66-1.317l-2.984-2.984c0.636-1.086 1.001-2.351 1.001-3.7 0-0.679-0.092-1.336-0.265-1.96 0.283-0.077 0.593-0.028 0.841 0.147l0.125 0.104 9.237 9.068c-0.66 0.407-1.438 0.642-2.271 0.642h-5.024z"></path>
<path d="M13.267 23.853c0.874-1.042 1.4-2.386 1.4-3.853 0-3.314-2.686-6-6-6s-6 2.686-6 6c0 3.314 2.686 6 6 6 1.123 0 2.174-0.309 3.073-0.846l3.886 3.886c0.391 0.391 1.024 0.391 1.414 0s0.391-1.024 0-1.414l-3.774-3.774zM8.667 24c2.209 0 4-1.791 4-4s-1.791-4-4-4c-2.209 0-4 1.791-4 4s1.791 4 4 4z"></path>
</svg>
