<!-- Generated by IcoMoon.io -->
<svg version="1.1" xmlns="http://www.w3.org/2000/svg" width="32" height="32" viewBox="0 0 32 32">
<title>image-edit-filled</title>
<path d="M15.41 18.195l-0.112 0.095-9.236 9.067c0.66 0.407 1.438 0.642 2.271 0.642h6.553l0.474-1.897c0.216-0.864 0.663-1.653 1.292-2.283l2.813-2.813-2.766-2.715-0.125-0.104c-0.349-0.246-0.819-0.243-1.165 0.009zM22.004 11.002c0-0.554-0.449-1.003-1.003-1.003s-1.003 0.449-1.003 1.003 0.449 1.003 1.003 1.003c0.554 0 1.003-0.449 1.003-1.003zM20.88 19.591l-2.779-2.729-0.171-0.156c-1.11-0.935-2.738-0.938-3.851-0.008l-0.181 0.164-9.251 9.081c-0.41-0.662-0.647-1.443-0.647-2.279v-15.332c0-2.393 1.94-4.333 4.333-4.333h15.332c2.393 0 4.333 1.94 4.333 4.333v6.349c-1.244-0.107-2.524 0.315-3.476 1.267l-3.642 3.642zM17.999 11.002c0 1.658 1.344 3.003 3.003 3.003s3.003-1.344 3.003-3.003c0-1.658-1.344-3.003-3.003-3.003s-3.003 1.344-3.003 3.003zM25.465 16.891l-7.869 7.869c-0.459 0.459-0.784 1.034-0.942 1.663l-0.61 2.441c-0.265 1.061 0.696 2.023 1.757 1.758l2.441-0.61c0.629-0.157 1.204-0.483 1.663-0.942l7.869-7.869c1.19-1.19 1.19-3.12 0-4.31s-3.119-1.19-4.31 0z"></path>
</svg>
