<!-- Generated by IcoMoon.io -->
<svg version="1.1" xmlns="http://www.w3.org/2000/svg" width="32" height="32" viewBox="0 0 32 32">
<title>image-alt-text-filled</title>
<path d="M1.333 4c0-1.473 1.194-2.667 2.667-2.667v0h9.333c1.473 0 2.667 1.194 2.667 2.667v0 8c0 1.473-1.194 2.667-2.667 2.667v0h-9.333c-1.473 0-2.667-1.194-2.667-2.667v0-8zM4.667 5.333c-0.368 0-0.667 0.298-0.667 0.667s0.298 0.667 0.667 0.667v0h8c0.368 0 0.667-0.298 0.667-0.667s-0.298-0.667-0.667-0.667v0h-8zM4.667 9.333c-0.368 0-0.667 0.298-0.667 0.667s0.298 0.667 0.667 0.667v0h8c0.368 0 0.667-0.298 0.667-0.667s-0.298-0.667-0.667-0.667v0h-8zM22.336 11.333c0.554 0 1.003 0.449 1.003 1.003s-0.449 1.003-1.003 1.003v0c-0.554 0-1.003-0.449-1.003-1.003s0.449-1.003 1.003-1.003v0zM17.333 12c0 2.209-1.791 4-4 4v0h-8v9c0 0.836 0.237 1.617 0.647 2.28l9.252-9.084 0.18-0.163c0.516-0.433 1.188-0.696 1.921-0.696 0.738 0 1.413 0.266 1.935 0.708l-0.004-0.004 0.171 0.156 9.252 9.081c0.406-0.646 0.647-1.43 0.647-2.272 0-0.002 0-0.005 0-0.007v0-15.333c0-2.393-1.94-4.333-4.333-4.333v0h-7.667v6.667zM22.336 9.333c1.658 0 3.003 1.344 3.003 3.003s-1.344 3.003-3.003 3.003v0c-1.658 0-3.003-1.344-3.003-3.003s1.344-3.003 3.003-3.003v0zM16.633 19.624l0.111-0.095c0.163-0.12 0.368-0.192 0.589-0.192 0.216 0 0.416 0.068 0.579 0.185l-0.003-0.002 0.124 0.104 9.237 9.067c-0.644 0.403-1.427 0.643-2.265 0.643-0.002 0-0.004 0-0.006 0h-15.333c-0.002 0-0.005 0-0.008 0-0.838 0-1.619-0.239-2.281-0.652l0.018 0.011 9.237-9.068z"></path>
</svg>
