<!-- Generated by IcoMoon.io -->
<svg version="1.1" xmlns="http://www.w3.org/2000/svg" width="32" height="32" viewBox="0 0 32 32">
<title>image-arrow-back-filled</title>
<path d="M16 8.667c0 4.050-3.283 7.333-7.333 7.333s-7.333-3.283-7.333-7.333c0-4.050 3.283-7.333 7.333-7.333s7.333 3.283 7.333 7.333zM7.138 5.805c0.26-0.26 0.26-0.682 0-0.943s-0.682-0.26-0.943 0l-2 2c-0.26 0.26-0.26 0.682 0 0.943l2 2c0.26 0.26 0.682 0.26 0.943 0s0.26-0.682 0-0.943l-0.862-0.862h2.724c1.657 0 3 1.343 3 3v0.333c0 0.368 0.298 0.667 0.667 0.667s0.667-0.298 0.667-0.667v-0.333c0-2.393-1.94-4.333-4.333-4.333h-2.724l0.862-0.862zM21.003 10c0.554 0 1.003 0.449 1.003 1.003s-0.449 1.003-1.003 1.003c-0.554 0-1.003-0.449-1.003-1.003s0.449-1.003 1.003-1.003zM17.333 8.667c0 4.787-3.88 8.667-8.667 8.667-1.718 0-3.32-0.5-4.667-1.362v7.696c0 0.836 0.237 1.617 0.647 2.279l9.251-9.082 0.181-0.164c1.113-0.93 2.741-0.927 3.851 0.008l0.171 0.156 9.251 9.082c0.41-0.662 0.647-1.443 0.647-2.279v-15.333c0-2.393-1.94-4.333-4.333-4.333h-7.696c0.862 1.347 1.362 2.948 1.362 4.667zM21.003 8c1.658 0 3.003 1.344 3.003 3.003s-1.344 3.003-3.003 3.003c-1.658 0-3.003-1.344-3.003-3.003s1.344-3.003 3.003-3.003zM15.299 18.291l0.111-0.095c0.346-0.252 0.816-0.256 1.165-0.009l0.125 0.104 9.237 9.068c-0.66 0.407-1.438 0.642-2.271 0.642h-15.333c-0.833 0-1.61-0.235-2.271-0.642l9.237-9.068z"></path>
</svg>
