<!-- Generated by IcoMoon.io -->
<svg version="1.1" xmlns="http://www.w3.org/2000/svg" width="32" height="32" viewBox="0 0 32 32">
<title>image-reflection-filled</title>
<path d="M5.333 8.333c0-2.393 1.94-4.333 4.333-4.333v0h12.667c2.393 0 4.333 1.94 4.333 4.333v0 12c0 0.001 0 0.003 0 0.005 0 1.336-0.606 2.53-1.557 3.323l-0.007 0.006c0.958 0.799 1.564 1.993 1.564 3.329 0 0.001 0 0.003 0 0.004v-0 1c0 0.552-0.448 1-1 1s-1-0.448-1-1v0-1c0-1.289-1.045-2.333-2.333-2.333v0h-1.333c-0.552-0-1-0.448-1-1 0-0.119 0.021-0.234 0.059-0.34l-0.002 0.007h-2.115c0.036 0.099 0.057 0.214 0.057 0.333 0 0.552-0.448 1-1 1h-2c-0.552-0-1-0.448-1-1 0-0.119 0.021-0.234 0.059-0.34l-0.002 0.007h-2.115c0.037 0.1 0.058 0.215 0.058 0.335 0 0.552-0.447 0.999-0.999 0.999-0.001 0-0.001 0-0.002 0h-1.333c-1.289 0-2.333 1.045-2.333 2.333v0 1c0 0.552-0.448 1-1 1s-1-0.448-1-1v0-1c0-1.34 0.608-2.539 1.564-3.333-0.958-0.797-1.564-1.99-1.564-3.324 0-0.003 0-0.006 0-0.010v0-12zM7.708 21.603c0.387 0.593 1.033 1 1.779 1.057l5.819-5.709c0.18-0.176 0.427-0.285 0.699-0.285s0.518 0.108 0.698 0.284l-0-0 5.853 5.707c0.742-0.073 1.374-0.484 1.749-1.074l0.006-0.010-6.211-6.055c-0.54-0.527-1.279-0.852-2.095-0.852-0.819 0-1.561 0.328-2.102 0.859l0-0-6.196 6.079zM20 12c0.92 0 1.667-0.746 1.667-1.667s-0.746-1.667-1.667-1.667v0c-0.92 0-1.667 0.746-1.667 1.667s0.746 1.667 1.667 1.667v0z"></path>
</svg>
