<!-- Generated by IcoMoon.io -->
<svg version="1.1" xmlns="http://www.w3.org/2000/svg" width="32" height="32" viewBox="0 0 32 32">
<title>image-globe-filled</title>
<path d="M6.676 8c0.053-1.887 0.331-3.559 0.737-4.78 0.228-0.684 0.485-1.191 0.739-1.512 0.261-0.329 0.439-0.375 0.515-0.375s0.255 0.045 0.515 0.375c0.253 0.321 0.511 0.827 0.739 1.512 0.407 1.221 0.684 2.893 0.737 4.78h-3.981zM6.148 2.8c0.144-0.431 0.307-0.829 0.491-1.183-2.875 0.848-4.989 3.334-5.274 6.353l-0.002 0.029h3.98c0.053-2 0.347-3.82 0.805-5.2zM11.185 2.8c-0.152-0.463-0.318-0.854-0.512-1.228l0.021 0.045c2.875 0.848 4.989 3.334 5.274 6.353l0.002 0.029h-3.98c-0.053-2-0.347-3.82-0.805-5.2zM11.991 9.333h3.98c-0.287 3.048-2.401 5.535-5.224 6.37l-0.052 0.013c0.173-0.328 0.339-0.719 0.474-1.124l0.017-0.058c0.46-1.381 0.752-3.2 0.805-5.201zM9.181 15.625c-0.26 0.329-0.439 0.375-0.515 0.375s-0.255-0.045-0.515-0.375c-0.253-0.321-0.511-0.827-0.739-1.512-0.407-1.221-0.684-2.893-0.737-4.78h3.981c-0.053 1.887-0.331 3.559-0.737 4.78-0.228 0.684-0.485 1.191-0.739 1.512zM1.363 9.333c0.288 3.048 2.401 5.535 5.224 6.37l0.052 0.013c-0.173-0.328-0.339-0.719-0.474-1.124l-0.017-0.058c-0.46-1.381-0.752-3.201-0.805-5.201h-3.98zM21.003 10c0.554 0 1.003 0.449 1.003 1.003s-0.449 1.003-1.003 1.003v0c-0.554 0-1.003-0.449-1.003-1.003s0.449-1.003 1.003-1.003v0z"></path>
<path d="M8.667 17.333c0 0 0.001 0 0.001 0 4.786 0 8.667-3.88 8.667-8.667 0-1.733-0.508-3.347-1.384-4.701l0.021 0.034h7.696c2.393 0 4.333 1.94 4.333 4.333v0 15.333c0 0.836-0.237 1.617-0.647 2.28l-9.252-9.084-0.171-0.155c-0.518-0.438-1.193-0.704-1.931-0.704-0.733 0-1.405 0.263-1.926 0.7l0.005-0.004-0.18 0.164-9.252 9.081c-0.406-0.646-0.647-1.43-0.647-2.272 0-0.002 0-0.005 0-0.007v0-7.696c1.316 0.855 2.925 1.363 4.653 1.363 0.005 0 0.009 0 0.014 0h-0.001zM21.003 8c-1.658 0-3.003 1.344-3.003 3.003s1.344 3.003 3.003 3.003v0c1.658 0 3.003-1.344 3.003-3.003s-1.344-3.003-3.003-3.003v0z"></path>
<path d="M15.3 18.291l0.111-0.095c0.163-0.12 0.368-0.192 0.589-0.192 0.216 0 0.416 0.068 0.579 0.185l-0.003-0.002 0.124 0.104 9.237 9.067c-0.644 0.403-1.427 0.643-2.265 0.643-0.002 0-0.004 0-0.006 0h-15.333c-0.002 0-0.005 0-0.008 0-0.838 0-1.619-0.239-2.281-0.652l0.018 0.011 9.237-9.068z"></path>
</svg>
