<!-- Generated by IcoMoon.io -->
<svg version="1.1" xmlns="http://www.w3.org/2000/svg" width="32" height="32" viewBox="0 0 32 32">
<title>image-arrow-back-filled</title>
<path d="M16 8.667c0 4.050-3.283 7.333-7.333 7.333s-7.333-3.283-7.333-7.333v0c0-4.050 3.283-7.333 7.333-7.333s7.333 3.283 7.333 7.333v0zM7.139 5.805c0.121-0.121 0.196-0.288 0.196-0.472 0-0.369-0.299-0.668-0.667-0.668-0.184 0-0.351 0.075-0.472 0.196v0l-2 2c-0.121 0.121-0.196 0.288-0.196 0.472s0.075 0.351 0.196 0.472v0l2 2c0.121 0.121 0.288 0.195 0.472 0.195 0.369 0 0.668-0.299 0.668-0.668 0-0.184-0.075-0.351-0.196-0.472v0l-0.863-0.861h2.724c1.657 0 3 1.343 3 3v0 0.333c0 0.368 0.298 0.667 0.667 0.667s0.667-0.298 0.667-0.667v0-0.333c0-2.393-1.94-4.333-4.333-4.333v0h-2.724l0.863-0.861zM21.003 10c0.554 0 1.003 0.449 1.003 1.003s-0.449 1.003-1.003 1.003v0c-0.554 0-1.003-0.449-1.003-1.003s0.449-1.003 1.003-1.003v0zM17.333 8.667c0 0 0 0.001 0 0.001 0 4.786-3.88 8.667-8.667 8.667-1.733 0-3.347-0.508-4.701-1.384l0.034 0.021v7.696c0 0.836 0.237 1.617 0.647 2.28l9.252-9.084 0.18-0.163c0.516-0.433 1.188-0.696 1.921-0.696 0.737 0 1.413 0.266 1.935 0.708l-0.004-0.004 0.171 0.156 9.252 9.081c0.406-0.646 0.647-1.43 0.647-2.272 0-0.002 0-0.005 0-0.007v0-15.333c0-2.393-1.94-4.333-4.333-4.333v0h-7.696c0.855 1.316 1.363 2.925 1.363 4.653 0 0.005 0 0.009 0 0.014v-0.001zM21.003 8c1.658 0 3.003 1.344 3.003 3.003s-1.344 3.003-3.003 3.003v0c-1.658 0-3.003-1.344-3.003-3.003s1.344-3.003 3.003-3.003v0zM15.3 18.291l0.111-0.095c0.163-0.12 0.368-0.192 0.589-0.192 0.216 0 0.416 0.068 0.579 0.185l-0.003-0.002 0.124 0.104 9.237 9.067c-0.644 0.403-1.427 0.643-2.265 0.643-0.002 0-0.004 0-0.006 0h-15.333c-0.002 0-0.005 0-0.008 0-0.838 0-1.619-0.239-2.281-0.652l0.018 0.011 9.237-9.068z"></path>
</svg>
