<!-- Generated by IcoMoon.io -->
<svg version="1.1" xmlns="http://www.w3.org/2000/svg" width="32" height="32" viewBox="0 0 32 32">
<title>image-prohibited-filled</title>
<path d="M8.667 16c4.050 0 7.333-3.283 7.333-7.333s-3.283-7.333-7.333-7.333c-4.050 0-7.333 3.283-7.333 7.333s3.283 7.333 7.333 7.333zM8.667 14c-1.111 0-2.143-0.34-2.998-0.921l7.409-7.409c0.582 0.854 0.921 1.886 0.921 2.998 0 2.946-2.388 5.333-5.333 5.333zM4.255 11.664c-0.582-0.854-0.922-1.886-0.922-2.998 0-2.946 2.388-5.333 5.333-5.333 1.111 0 2.143 0.34 2.998 0.922l-7.409 7.409zM22.006 11.003c0-0.554-0.449-1.003-1.003-1.003s-1.003 0.449-1.003 1.003c0 0.554 0.449 1.003 1.003 1.003s1.003-0.449 1.003-1.003zM8.667 17.333c4.787 0 8.667-3.88 8.667-8.667 0-1.718-0.5-3.32-1.362-4.667h7.696c2.393 0 4.333 1.94 4.333 4.333v15.333c0 0.836-0.237 1.617-0.647 2.279l-9.251-9.082-0.171-0.156c-1.11-0.935-2.738-0.938-3.851-0.008l-0.181 0.164-9.251 9.082c-0.41-0.662-0.647-1.443-0.647-2.279v-7.696c1.347 0.862 2.948 1.362 4.667 1.362zM18 11.003c0 1.658 1.344 3.003 3.003 3.003s3.003-1.344 3.003-3.003c0-1.658-1.344-3.003-3.003-3.003s-3.003 1.344-3.003 3.003zM15.411 18.196l-0.111 0.095-9.237 9.068c0.66 0.407 1.438 0.642 2.271 0.642h15.333c0.833 0 1.61-0.235 2.271-0.642l-9.237-9.068-0.125-0.104c-0.349-0.246-0.819-0.243-1.165 0.009z"></path>
</svg>
