<!-- Generated by IcoMoon.io -->
<svg version="1.1" xmlns="http://www.w3.org/2000/svg" width="32" height="32" viewBox="0 0 32 32">
<title>image-filled</title>
<path d="M15.299 18.291l0.111-0.095c0.346-0.252 0.816-0.256 1.165-0.009l0.125 0.104 9.237 9.068c-0.66 0.407-1.438 0.642-2.271 0.642h-15.333c-0.833 0-1.61-0.235-2.271-0.642l9.237-9.068zM23.667 4c2.393 0 4.333 1.94 4.333 4.333v15.333c0 0.836-0.237 1.617-0.647 2.279l-9.251-9.082-0.171-0.156c-1.11-0.935-2.738-0.938-3.851-0.008l-0.181 0.164-9.251 9.082c-0.41-0.662-0.647-1.443-0.647-2.279v-15.333c0-2.393 1.94-4.333 4.333-4.333h15.333zM21.003 8c-1.658 0-3.003 1.344-3.003 3.003s1.344 3.003 3.003 3.003c1.658 0 3.003-1.344 3.003-3.003s-1.344-3.003-3.003-3.003zM21.003 10c0.554 0 1.003 0.449 1.003 1.003s-0.449 1.003-1.003 1.003c-0.554 0-1.003-0.449-1.003-1.003s0.449-1.003 1.003-1.003z"></path>
</svg>
