<!-- Generated by IcoMoon.io -->
<svg version="1.1" xmlns="http://www.w3.org/2000/svg" width="32" height="32" viewBox="0 0 32 32">
<title>image-reflection-filled</title>
<path d="M5.333 8.333c0-2.393 1.94-4.333 4.333-4.333h12.667c2.393 0 4.333 1.94 4.333 4.333v12c0 1.34-0.609 2.539-1.564 3.333 0.956 0.795 1.564 1.993 1.564 3.333v1c0 0.552-0.448 1-1 1s-1-0.448-1-1v-1c0-1.289-1.045-2.333-2.333-2.333h-1.333c-0.552 0-1-0.448-1-1 0-0.117 0.020-0.229 0.057-0.333h-2.114c0.037 0.104 0.057 0.216 0.057 0.333 0 0.552-0.448 1-1 1h-2c-0.552 0-1-0.448-1-1 0-0.117 0.020-0.229 0.057-0.333h-2.114c0.037 0.104 0.057 0.216 0.057 0.333 0 0.552-0.448 1-1 1h-1.333c-1.289 0-2.333 1.045-2.333 2.333v1c0 0.552-0.448 1-1 1s-1-0.448-1-1v-1c0-1.34 0.609-2.538 1.564-3.333-0.233-0.193-0.445-0.411-0.633-0.648-0.583-0.738-0.932-1.671-0.932-2.685v-12zM7.708 21.602c0.385 0.593 1.033 1.001 1.778 1.057l5.819-5.709c0.388-0.381 1.009-0.382 1.398-0.002l5.854 5.707c0.739-0.070 1.378-0.486 1.754-1.083l-6.211-6.056c-1.168-1.139-3.031-1.136-4.195 0.007l-6.196 6.079zM20 12c0.921 0 1.667-0.746 1.667-1.667s-0.746-1.667-1.667-1.667c-0.921 0-1.667 0.746-1.667 1.667s0.746 1.667 1.667 1.667z"></path>
</svg>
