<!-- Generated by IcoMoon.io -->
<svg version="1.1" xmlns="http://www.w3.org/2000/svg" width="32" height="32" viewBox="0 0 32 32">
<title>image-search-filled</title>
<path d="M22.005 11.003c0-0.554-0.449-1.003-1.003-1.003s-1.003 0.449-1.003 1.003v0c0 0.554 0.449 1.003 1.003 1.003s1.003-0.449 1.003-1.003v0zM4 14.343v-6.009c0-2.393 1.94-4.333 4.333-4.333v0h15.333c2.393 0 4.333 1.94 4.333 4.333v0 15.333c0 0.836-0.237 1.617-0.647 2.28l-9.252-9.084-0.171-0.155c-0.518-0.438-1.194-0.704-1.932-0.704-0.381 0-0.745 0.071-1.081 0.201l0.021-0.007c-1.307-2.131-3.624-3.531-6.268-3.531-0.001 0-0.003 0-0.004 0h0c-1.773 0-3.4 0.629-4.667 1.676zM18 11.003c0 1.658 1.344 3.003 3.003 3.003s3.003-1.344 3.003-3.003v0c0-1.658-1.344-3.003-3.003-3.003s-3.003 1.344-3.003 3.003v0zM18.643 28c-0.076-0.519-0.314-0.971-0.66-1.316l-2.983-2.984c0.628-1.061 1-2.339 1-3.703 0-0.696-0.097-1.37-0.277-2.009l0.013 0.052c0.079-0.023 0.171-0.036 0.265-0.036 0.216 0 0.416 0.068 0.579 0.184l-0.003-0.002 0.124 0.104 9.237 9.067c-0.644 0.403-1.427 0.643-2.265 0.643-0.002 0-0.004 0-0.006 0h-5.024zM13.267 23.853c0.87-1.034 1.399-2.381 1.399-3.851 0-3.314-2.686-6-6-6s-6 2.686-6 6c0 3.314 2.686 6 6 6 1.135 0 2.196-0.315 3.101-0.862l-0.027 0.015 3.887 3.885c0.183 0.196 0.443 0.318 0.732 0.318 0.552 0 1-0.448 1-1 0-0.289-0.122-0.549-0.318-0.731l-0.001-0.001-3.773-3.773zM8.667 24c-2.209 0-4-1.791-4-4s1.791-4 4-4v0c2.209 0 4 1.791 4 4s-1.791 4-4 4v0z"></path>
</svg>
