<!-- Generated by IcoMoon.io -->
<svg version="1.1" xmlns="http://www.w3.org/2000/svg" width="32" height="32" viewBox="0 0 32 32">
<title>image-filled</title>
<path d="M8.167 4c-2.301 0-4.167 1.865-4.167 4.167v0 15.667c0 0.856 0.258 1.651 0.7 2.313l0.397-0.392-0.015-0.015 9.165-9.017c0.451-0.444 1.070-0.718 1.753-0.718s1.302 0.274 1.754 0.718l-0-0 9.165 9.017-0.012 0.012 0.397 0.391c0.437-0.647 0.697-1.444 0.697-2.302 0-0.003 0-0.005 0-0.008v0-15.667c0-2.301-1.865-4.167-4.167-4.167v0h-15.667zM8.167 28c-0.002 0-0.004 0-0.007 0-0.847 0-1.634-0.254-2.291-0.69l0.015 0.010 9.531-9.405c0.15-0.148 0.357-0.24 0.585-0.24s0.435 0.092 0.585 0.24l-0-0 9.535 9.402c-0.642 0.428-1.431 0.683-2.28 0.683-0.002 0-0.005 0-0.007 0h-15.666zM20.333 14.333c-1.473 0-2.667-1.194-2.667-2.667s1.194-2.667 2.667-2.667v0c1.473 0 2.667 1.194 2.667 2.667s-1.194 2.667-2.667 2.667v0z"></path>
</svg>
