<!-- Generated by IcoMoon.io -->
<svg version="1.1" xmlns="http://www.w3.org/2000/svg" width="32" height="32" viewBox="0 0 32 32">
<title>image-alt-text-filled</title>
<path d="M1.333 4c0-1.473 1.194-2.667 2.667-2.667h9.333c1.473 0 2.667 1.194 2.667 2.667v8c0 1.473-1.194 2.667-2.667 2.667h-9.333c-1.473 0-2.667-1.194-2.667-2.667v-8zM4.667 5.333c-0.368 0-0.667 0.298-0.667 0.667s0.298 0.667 0.667 0.667h8c0.368 0 0.667-0.298 0.667-0.667s-0.298-0.667-0.667-0.667h-8zM4.667 9.333c-0.368 0-0.667 0.298-0.667 0.667s0.298 0.667 0.667 0.667h8c0.368 0 0.667-0.298 0.667-0.667s-0.298-0.667-0.667-0.667h-8z"></path>
<path d="M22.336 11.333c0.554 0 1.003 0.449 1.003 1.003s-0.449 1.003-1.003 1.003c-0.554 0-1.003-0.449-1.003-1.003s0.449-1.003 1.003-1.003z"></path>
<path d="M17.333 12c0 2.209-1.791 4-4 4h-8v9c0 0.836 0.237 1.617 0.647 2.279l9.251-9.082 0.181-0.164c1.113-0.93 2.741-0.927 3.851 0.008l0.171 0.156 9.251 9.082c0.41-0.662 0.647-1.443 0.647-2.279v-15.333c0-2.393-1.94-4.333-4.333-4.333h-7.667v6.667zM22.336 9.333c1.658 0 3.003 1.344 3.003 3.003s-1.344 3.003-3.003 3.003-3.003-1.344-3.003-3.003c0-1.658 1.344-3.003 3.003-3.003z"></path>
<path d="M16.633 19.624l0.111-0.095c0.346-0.252 0.816-0.256 1.165-0.009l0.125 0.104 9.237 9.068c-0.66 0.407-1.438 0.642-2.271 0.642h-15.333c-0.833 0-1.61-0.235-2.271-0.642l9.237-9.068z"></path>
</svg>
