<!-- Generated by IcoMoon.io -->
<svg version="1.1" xmlns="http://www.w3.org/2000/svg" width="32" height="32" viewBox="0 0 32 32">
<title>image-multiple-filled</title>
<path d="M4 8.333c0-2.393 1.94-4.333 4.333-4.333h12c2.393 0 4.333 1.94 4.333 4.333v12c0 0.862-0.251 1.665-0.685 2.339l-7.589-7.167c-1.156-1.092-2.963-1.092-4.12 0l-7.588 7.166c-0.433-0.675-0.684-1.477-0.684-2.338v-12zM18.33 11.995c0.919 0 1.664-0.745 1.664-1.664s-0.745-1.664-1.664-1.664c-0.919 0-1.664 0.745-1.664 1.664s0.745 1.664 1.664 1.664z"></path>
<path d="M15.019 16.96l7.522 7.103c-0.647 0.383-1.401 0.604-2.207 0.604h-12c-0.807 0-1.562-0.22-2.209-0.604l7.521-7.103c0.385-0.364 0.988-0.364 1.373 0z"></path>
<path d="M11.665 28c-1.534 0-2.882-0.797-3.652-2l12.986 0c2.761 0 5-2.239 5-5v-12.986c1.203 0.77 2 2.118 2 3.652v9.333c0 3.866-3.134 7-7 7h-9.333z"></path>
</svg>
