<!-- Generated by IcoMoon.io -->
<svg version="1.1" xmlns="http://www.w3.org/2000/svg" width="32" height="32" viewBox="0 0 32 32">
<title>immersive-reader-filled</title>
<path d="M13.143 4.571c1.12 0 2.131 0.459 2.857 1.2 0.725-0.741 1.735-1.2 2.852-1.2 0.002 0 0.004 0 0.006 0h8.571c1.262 0 2.286 1.023 2.286 2.286v0 10.88c-0.045-0.041-0.093-0.084-0.142-0.125l-0.006-0.005c-0.344-0.289-0.792-0.464-1.281-0.464-0.311 0-0.605 0.071-0.868 0.198l0.012-0.005v-10.478h-8.571c-0.947 0-1.714 0.768-1.714 1.714v0 10.857h-0.286c-1.105 0-2 0.895-2 2v0-12.857c0-0.947-0.768-1.714-1.714-1.714v0h-8.571v18.286h8.571c0.947 0 1.714-0.767 1.714-1.714v0 2c0 0.51 0.191 0.975 0.505 1.328-0.622 0.421-1.388 0.672-2.214 0.672-0.002 0-0.004 0-0.006 0h-8.571c-1.262 0-2.286-1.023-2.286-2.286v0-18.286c0-1.262 1.023-2.286 2.286-2.286v0h8.571zM24 27.4l0.029 0.029h-0.029v-0.029zM22.302 18.341c0.327 0.126 0.555 0.437 0.555 0.802v0 8.571c-0 0.473-0.384 0.857-0.857 0.857-0.256 0-0.487-0.113-0.644-0.291l-0.001-0.001-1.744-1.993h-2.754c-0.473 0-0.857-0.384-0.857-0.857v0-4c0-0.473 0.384-0.857 0.857-0.857v0h2.754l1.744-1.993c0.158-0.18 0.388-0.292 0.645-0.292 0.108 0 0.212 0.020 0.307 0.057l-0.006-0.002zM29.879 19.774c-0.376-0.625-0.761-1.053-1.045-1.289-0.15-0.132-0.348-0.212-0.564-0.212-0.473 0-0.857 0.384-0.857 0.857 0 0.271 0.126 0.513 0.323 0.67l0.002 0.001c0.145 0.121 0.402 0.408 0.671 0.854 0.458 0.766 0.735 1.686 0.735 2.774s-0.277 2.009-0.735 2.774c-0.269 0.446-0.526 0.733-0.671 0.854-0.198 0.158-0.324 0.4-0.324 0.671 0 0.473 0.384 0.857 0.857 0.857 0.217 0 0.414-0.080 0.565-0.213l-0.001 0.001c0.283-0.237 0.669-0.663 1.043-1.289 0.613-1.021 0.979-2.242 0.979-3.655s-0.366-2.634-0.979-3.655zM26.713 21.025c-0.214-0.331-0.469-0.613-0.763-0.848l-0.007-0.005c-0.141-0.107-0.32-0.171-0.514-0.171-0.473 0-0.857 0.384-0.857 0.857 0 0.279 0.134 0.528 0.341 0.684l0.002 0.002c0.071 0.053 0.217 0.2 0.373 0.433 0.267 0.4 0.427 0.88 0.427 1.453 0 0.571-0.16 1.051-0.427 1.453-0.105 0.166-0.229 0.309-0.37 0.431l-0.002 0.002-0.096 0.083c-0.154 0.155-0.248 0.368-0.248 0.604 0 0.473 0.384 0.857 0.857 0.857 0.195 0 0.374-0.065 0.518-0.174l-0.002 0.002c0.216-0.161 0.497-0.443 0.77-0.853 0.448-0.665 0.716-1.484 0.716-2.365 0-0.014-0-0.027-0-0.041v0.002c0-0.928-0.269-1.734-0.715-2.405z"></path>
</svg>
