<!-- Generated by IcoMoon.io -->
<svg version="1.1" xmlns="http://www.w3.org/2000/svg" width="32" height="32" viewBox="0 0 32 32">
<title>important-filled</title>
<path d="M16 2.669c-2.853 0-5.167 2.313-5.167 5.167v0c0 3.893 1.609 8.736 2.417 10.932 0.425 1.118 1.488 1.897 2.732 1.897 0.007 0 0.014-0 0.021-0h-0.001c1.205 0 2.319-0.723 2.751-1.891 0.808-2.187 2.413-7.005 2.413-10.939 0-2.853-2.313-5.167-5.167-5.167v0zM16.001 22.667c-1.842 0-3.335 1.493-3.335 3.335s1.493 3.335 3.335 3.335v0c1.842 0 3.335-1.493 3.335-3.335s-1.493-3.335-3.335-3.335v0z"></path>
</svg>
