<!-- Generated by IcoMoon.io -->
<svg version="1.1" xmlns="http://www.w3.org/2000/svg" width="32" height="32" viewBox="0 0 32 32">
<title>incognito-filled</title>
<path d="M23.333 15.667c3.498 0 6.333 2.835 6.333 6.333s-2.836 6.333-6.333 6.333c-2.797 0-5.171-1.814-6.010-4.329h-2.647c-0.839 2.515-3.212 4.329-6.010 4.329-3.498 0-6.333-2.835-6.333-6.333s2.836-6.333 6.333-6.333c3.273 0 5.966 2.482 6.299 5.667h2.069c0.333-3.185 3.026-5.667 6.299-5.667zM8.667 18.333c-2.025 0-3.667 1.642-3.667 3.667s1.642 3.667 3.667 3.667c2.025 0 3.667-1.642 3.667-3.667s-1.642-3.667-3.667-3.667zM23.333 18.333c-2.025 0-3.667 1.642-3.667 3.667s1.642 3.667 3.667 3.667c2.025 0 3.667-1.642 3.667-3.667s-1.642-3.667-3.667-3.667zM20.683 4c1.619 0 3.047 1.062 3.512 2.613l1.342 4.468c1.057 0.176 2.091 0.383 3.103 0.621 0.717 0.169 1.161 0.886 0.993 1.603s-0.887 1.161-1.603 0.992c-3.674-0.864-7.683-1.298-12.028-1.298s-8.354 0.433-12.028 1.298c-0.717 0.169-1.435-0.276-1.603-0.992s0.276-1.435 0.993-1.603c1.011-0.238 2.045-0.445 3.101-0.621l1.343-4.468c0.465-1.551 1.893-2.613 3.512-2.613h9.365z"></path>
</svg>
