<!-- Generated by IcoMoon.io -->
<svg version="1.1" xmlns="http://www.w3.org/2000/svg" width="32" height="32" viewBox="0 0 32 32">
<title>info-filled</title>
<path d="M2.286 16c0 7.574 6.141 13.714 13.714 13.714s13.714-6.141 13.714-13.714-6.141-13.714-13.714-13.714-13.714 6.141-13.714 13.714zM17.429 9.143c0 0.789-0.64 1.429-1.429 1.429s-1.429-0.64-1.429-1.429v0c0-0.789 0.64-1.429 1.429-1.429s1.429 0.64 1.429 1.429v0zM16 12.571c0.631 0 1.143 0.512 1.143 1.143v0 9.143c0 0.631-0.512 1.143-1.143 1.143s-1.143-0.512-1.143-1.143v0-9.143c0-0.631 0.512-1.143 1.143-1.143v0z"></path>
</svg>
