<!-- Generated by IcoMoon.io -->
<svg version="1.1" xmlns="http://www.w3.org/2000/svg" width="32" height="32" viewBox="0 0 32 32">
<title>info-filled</title>
<path d="M16 2.665c7.365 0 13.335 5.97 13.335 13.335s-5.97 13.335-13.335 13.335c-7.365 0-13.335-5.97-13.335-13.335s5.97-13.335 13.335-13.335zM15.995 13.666c-0.684 0-1.247 0.516-1.324 1.179l-0.009 0.156 0.005 7.335 0.009 0.155c0.077 0.663 0.641 1.177 1.325 1.177s1.247-0.516 1.324-1.179l0.009-0.156-0.005-7.335-0.009-0.156c-0.077-0.663-0.641-1.177-1.325-1.177zM16.001 8.667c-0.922 0-1.669 0.747-1.669 1.669s0.747 1.669 1.669 1.669c0.922 0 1.669-0.747 1.669-1.669s-0.747-1.669-1.669-1.669z"></path>
</svg>
