<!-- Generated by IcoMoon.io -->
<svg version="1.1" xmlns="http://www.w3.org/2000/svg" width="32" height="32" viewBox="0 0 32 32">
<title>ink-stroke-filled</title>
<path d="M4.005 3.876c0.065-0.681 0.635-1.21 1.328-1.21 0.044 0 0.088 0.002 0.131 0.006l-0.005-0 4.995 0.467c3.54 0.352 6.936 0.775 9.728 1.256 2.721 0.468 5.063 1.021 6.349 1.7 0.331 0.175 0.695 0.409 0.976 0.731 0.3 0.343 0.584 0.884 0.467 1.555-0.109 0.611-0.503 1.023-0.817 1.271-0.337 0.254-0.722 0.472-1.134 0.636l-0.034 0.012c-1.693 0.7-4.88 1.363-9.856 2.013-2.243 0.293-3.897 0.58-5.068 0.848 0.28 0.061 0.584 0.123 0.907 0.181 1.623 0.299 3.667 0.553 5.843 0.748 1.663 0.149 3.443 0.384 4.964 0.685 0.76 0.151 1.473 0.32 2.085 0.511 0.583 0.181 1.179 0.412 1.627 0.723 0.223 0.153 0.517 0.4 0.712 0.772 0.227 0.436 0.271 0.964 0.047 1.464-0.189 0.427-0.516 0.701-0.769 0.873-0.262 0.173-0.563 0.327-0.881 0.447l-0.031 0.010c-1.28 0.493-3.552 0.941-7.064 1.36-3.481 0.416-5.572 0.943-6.715 1.461-0.456 0.208-0.684 0.38-0.788 0.48 0.040 0.061 0.115 0.155 0.241 0.276 0.24 0.231 0.592 0.488 1.048 0.757 0.909 0.537 2.084 1.037 3.223 1.427l4.327 1.395c0.541 0.178 0.924 0.679 0.924 1.269 0 0.737-0.597 1.334-1.334 1.334-0.146 0-0.287-0.024-0.419-0.067l0.009 0.003-4.359-1.407c-1.244-0.425-2.607-0.995-3.728-1.657-0.582-0.336-1.085-0.709-1.542-1.132l0.005 0.005c-0.425-0.407-0.853-0.947-1.028-1.619-0.196-0.752-0.031-1.504 0.453-2.139 0.44-0.575 1.101-1.008 1.864-1.353 1.529-0.693 3.956-1.257 7.5-1.68 2.117-0.253 3.675-0.507 4.783-0.747-0.071-0.023-0.31-0.075-0.551-0.124l-0.159-0.027c-1.279-0.259-2.88-0.488-4.506-0.633l-0.178-0.013c-2.223-0.2-4.356-0.463-6.087-0.781-0.929-0.164-1.705-0.347-2.465-0.57l0.161 0.040c-0.621-0.184-1.252-0.42-1.713-0.747-0.317-0.216-0.566-0.509-0.724-0.852l-0.005-0.013c-0.216-0.509-0.16-1.053 0.099-1.499 0.219-0.376 0.544-0.623 0.801-0.783 0.276-0.169 0.596-0.315 0.94-0.443 1.341-0.497 3.679-0.969 7.204-1.431 4.309-0.564 7.027-1.111 8.543-1.601-1.036-0.343-2.599-0.7-4.601-1.044-2.704-0.467-6.029-0.881-9.535-1.229l-4.984-0.467c-0.681-0.065-1.21-0.635-1.21-1.328 0-0.043 0.002-0.086 0.006-0.128l-0 0.005z"></path>
</svg>
