<!-- Generated by IcoMoon.io -->
<svg version="1.1" xmlns="http://www.w3.org/2000/svg" width="32" height="32" viewBox="0 0 32 32">
<title>inking-tool-filled</title>
<path d="M4.018 2c-1.105 0-2 0.895-2 2v0 0.812c-0.011 0.056-0.018 0.12-0.018 0.186 0 0.001 0 0.001 0 0.002v-0 2c0 1.657 1.343 3 3 3v0h0.504l0.003 0.005 21.493-0.005c1.657 0 3-1.343 3-3v0-3c0-1.105-0.895-2-2-2v0h-23.982zM13.018 26c0.021 0.82 0.216 1.716 0.622 2.454 0.429 0.78 1.195 1.535 2.344 1.55h0.032c1.148-0.015 1.915-0.77 2.344-1.55 0.406-0.738 0.6-1.634 0.622-2.454h-5.964zM19.96 22.904l5.52-10.899h-18.96l5.514 10.898c0.337 0.656 1.009 1.097 1.785 1.097 0 0 0 0 0.001 0h4.358c0.775 0 1.447-0.441 1.779-1.085l0.005-0.011z"></path>
</svg>
