<!-- Generated by IcoMoon.io -->
<svg version="1.1" xmlns="http://www.w3.org/2000/svg" width="32" height="32" viewBox="0 0 32 32">
<title>inking-tool-accent-filled</title>
<path d="M3 4h26v4c0 0.552-0.448 1-1 1v0h-5c0 0.15-0.034 0.303-0.106 0.447l-5 10c-0.162 0.346-0.508 0.581-0.908 0.581-0.552 0-1-0.448-1-1 0-0.174 0.044-0.337 0.122-0.48l-0.003 0.005 4.776-9.553h-16.882c-0.552 0-1-0.448-1-1v0-4zM17.857 25.875c0 1.864-0.863 3.375-1.928 3.375s-1.929-1.511-1.929-3.375 0.864-3.375 1.929-3.375 1.928 1.511 1.928 3.375z"></path>
</svg>
