<!-- Generated by IcoMoon.io -->
<svg version="1.1" xmlns="http://www.w3.org/2000/svg" width="32" height="32" viewBox="0 0 32 32">
<title>insert-filled</title>
<path d="M6.4 6.4c0-1.767 1.433-3.2 3.2-3.2v0h12.8c1.767 0 3.2 1.433 3.2 3.2v0 3.2c0 1.767-1.433 3.2-3.2 3.2v0h-12.8c-1.767 0-3.2-1.433-3.2-3.2v0-3.2zM6.4 25.6c0 1.767 1.433 3.2 3.2 3.2v0h12.8c1.767 0 3.2-1.433 3.2-3.2v0-3.2c0-1.767-1.433-3.2-3.2-3.2v0h-12.8c-1.767 0-3.2 1.433-3.2 3.2v0 3.2zM4 15.2c-0.442 0-0.8 0.358-0.8 0.8s0.358 0.8 0.8 0.8v0h24c0.442 0 0.8-0.358 0.8-0.8s-0.358-0.8-0.8-0.8v0h-24z"></path>
</svg>
