<!-- Generated by IcoMoon.io -->
<svg version="1.1" xmlns="http://www.w3.org/2000/svg" width="32" height="32" viewBox="0 0 32 32">
<title>ios-chevron-right-filled</title>
<path d="M19.552 9.648c-0.2-0.214-0.322-0.502-0.322-0.818 0-0.663 0.537-1.2 1.2-1.2 0.316 0 0.604 0.123 0.819 0.323l-0.001-0.001 7.2 7.2c0.217 0.217 0.351 0.517 0.351 0.848s-0.134 0.631-0.351 0.848v0l-7.2 7.2c-0.22 0.235-0.532 0.382-0.878 0.382-0.663 0-1.2-0.537-1.2-1.2 0-0.346 0.147-0.658 0.381-0.877l0.001-0.001 6.352-6.352-6.352-6.352z"></path>
</svg>
