<!-- Generated by IcoMoon.io -->
<svg version="1.1" xmlns="http://www.w3.org/2000/svg" width="32" height="32" viewBox="0 0 32 32">
<title>ios-arrow-rtl-filled</title>
<path d="M15.031 4.916c-0.226-0.238-0.364-0.561-0.364-0.916 0-0.737 0.597-1.334 1.334-1.334 0.382 0 0.726 0.16 0.969 0.417l0.001 0.001 11.333 12c0.226 0.238 0.364 0.561 0.364 0.916s-0.139 0.678-0.365 0.917l0.001-0.001-11.333 12.001c-0.244 0.266-0.594 0.431-0.982 0.431-0.736 0-1.333-0.597-1.333-1.333 0-0.361 0.144-0.689 0.377-0.929l-0 0 10.469-11.087-10.469-11.084z"></path>
</svg>
