<!-- Generated by IcoMoon.io -->
<svg version="1.1" xmlns="http://www.w3.org/2000/svg" width="32" height="32" viewBox="0 0 32 32">
<title>iot-filled</title>
<path d="M25.333 5.988c0 0 0 0.001 0 0.001 0 1.841-1.492 3.333-3.333 3.333-0.242 0-0.477-0.026-0.705-0.075l0.022 0.004-1.707 2.823c1.061 0.976 1.723 2.37 1.723 3.919 0 0.002 0 0.004 0 0.006v-0 0.077l1.728 0.347c0.574-1.055 1.674-1.759 2.938-1.759 1.841 0 3.333 1.492 3.333 3.333s-1.492 3.333-3.333 3.333c-1.703 0-3.107-1.277-3.309-2.925l-0.002-0.016-1.76-0.355c-0.473 1.122-1.28 2.025-2.296 2.605l-0.026 0.014 0.66 2.015h0.067c1.841 0 3.333 1.493 3.333 3.333s-1.492 3.333-3.333 3.333-3.333-1.492-3.333-3.333c0-1.103 0.536-2.081 1.362-2.688l0.009-0.006-0.661-2.021c-0.214 0.030-0.461 0.048-0.712 0.048-1.754 0-3.311-0.848-4.281-2.157l-0.010-0.014-2.393 1.131c0.013 0.112 0.021 0.242 0.021 0.374 0 1.841-1.492 3.333-3.333 3.333s-3.333-1.492-3.333-3.333c0-1.841 1.492-3.333 3.333-3.333 0.995 0 1.888 0.436 2.499 1.127l0.003 0.004 2.339-1.105c-0.111-0.407-0.175-0.874-0.175-1.356 0-1.295 0.461-2.482 1.228-3.407l-0.007 0.009-1.321-1.507c-0.365 0.149-0.788 0.236-1.232 0.236-1.841 0-3.333-1.492-3.333-3.333s1.492-3.333 3.333-3.333c1.841 0 3.333 1.492 3.333 3.333 0 0.683-0.205 1.317-0.557 1.846l0.008-0.012 1.311 1.493c0.739-0.415 1.623-0.66 2.564-0.66 0.003 0 0.006 0 0.009 0h-0c0.673 0 1.32 0.125 1.912 0.353l1.66-2.747c-0.561-0.595-0.905-1.399-0.905-2.284 0-1.841 1.492-3.333 3.333-3.333s3.333 1.492 3.333 3.333v0z"></path>
</svg>
