<!-- Generated by IcoMoon.io -->
<svg version="1.1" xmlns="http://www.w3.org/2000/svg" width="32" height="32" viewBox="0 0 32 32">
<title>it-text-bold-filled</title>
<path d="M11.429 5.944c1.222-0.814 2.745-1.277 4.57-1.277 2.567 0 4.407 0.871 5.624 1.845 0.594 0.475 1.019 0.957 1.305 1.339 0.143 0.191 0.253 0.359 0.333 0.491 0.040 0.066 0.073 0.124 0.099 0.171 0.013 0.024 0.024 0.045 0.034 0.063l0.013 0.026 0.009 0.017 0.001 0.003c0 0-0.752-1.287-0.001-0.003l0.002 0.005c0.576 1.153 0.109 2.554-1.043 3.13-1.135 0.568-2.512 0.123-3.104-0.992-0.009-0.015-0.034-0.055-0.077-0.111-0.089-0.119-0.247-0.303-0.487-0.495-0.449-0.36-1.276-0.822-2.709-0.822-1.008 0-1.609 0.245-1.982 0.494-0.387 0.258-0.674 0.618-0.89 1.050-0.22 0.441-0.342 0.91-0.405 1.288-0.031 0.184-0.045 0.332-0.052 0.425-0.003 0.046-0.005 0.077-0.005 0.091l-0 0.003v6.65c0 1.841 1.492 3.333 3.333 3.333s3.333-1.492 3.333-3.333l-1-0c-1.289 0-2.333-1.045-2.333-2.333s1.045-2.333 2.333-2.333h3.333c1.289 0 2.333 1.045 2.333 2.333v2.333c0 4.418-3.582 8-8 8s-8-3.582-8-8v-6.667l0.001-0.023c-0.001 0.689-0.001 0.020-0.001 0.020v-0.002l0-0.005 0.001-0.012-0-0.031c0-0.024 0.001-0.053 0.002-0.088 0.002-0.069 0.007-0.159 0.014-0.268 0.015-0.217 0.045-0.512 0.103-0.859 0.114-0.684 0.346-1.632 0.834-2.608 0.493-0.985 1.268-2.041 2.475-2.846z"></path>
</svg>
