<!-- Generated by IcoMoon.io -->
<svg version="1.1" xmlns="http://www.w3.org/2000/svg" width="32" height="32" viewBox="0 0 32 32">
<title>key-reset-filled</title>
<path d="M20.667 2.733c-4.822 0.003-8.73 3.911-8.733 8.733v0c0 0.516 0.067 1.013 0.147 1.472 0.005 0.022 0.007 0.047 0.007 0.073 0 0.098-0.038 0.187-0.101 0.253l-8.313 8.315c-0.664 0.663-1.074 1.58-1.075 2.592v2.896c0 1.288 1.045 2.333 2.333 2.333h3.333c1.289 0 2.333-1.045 2.333-2.333v0-1.667h2.335c0.92 0 1.667-0.747 1.667-1.667v-2.333h0.441c0.137-0.212 0.307-0.4 0.504-0.556l-2.193-2.195c-0.422-0.422-0.683-1.005-0.683-1.649s0.261-1.227 0.683-1.649l2.667-2.667c0.422-0.422 1.005-0.683 1.649-0.683 1.289 0 2.333 1.045 2.333 2.333 0 0.117-0.009 0.232-0.025 0.345l0.002-0.013h2.689c0 0 0.001 0 0.001 0 1.926 0 3.692 0.68 5.073 1.814l-0.014-0.011c1.045-1.417 1.672-3.198 1.672-5.125 0-0.004 0-0.008 0-0.012v0.001c0-4.841-3.937-8.6-8.733-8.6zM22.667 7.667c0.92 0 1.667 0.746 1.667 1.667s-0.746 1.667-1.667 1.667v0c-0.92 0-1.667-0.746-1.667-1.667s0.746-1.667 1.667-1.667v0zM18.373 15.040c0.196-0.183 0.318-0.443 0.318-0.732 0-0.552-0.448-1-1-1-0.289 0-0.549 0.122-0.731 0.318l-0.001 0.001-2.667 2.667c-0.181 0.181-0.292 0.431-0.292 0.707s0.112 0.526 0.292 0.707v0l2.667 2.667c0.183 0.196 0.443 0.318 0.732 0.318 0.552 0 1-0.448 1-1 0-0.289-0.122-0.549-0.318-0.731l-0.001-0.001-0.96-0.96h5.253c2.577 0 4.667 2.089 4.667 4.667s-2.089 4.667-4.667 4.667c-2.577 0-4.667-2.089-4.667-4.667v0c0-0.552-0.448-1-1-1s-1 0.448-1 1v0c0 3.682 2.985 6.667 6.667 6.667s6.667-2.985 6.667-6.667c0-3.682-2.985-6.667-6.667-6.667v0h-5.253l0.96-0.96z"></path>
</svg>
