<!-- Generated by IcoMoon.io -->
<svg version="1.1" xmlns="http://www.w3.org/2000/svg" width="32" height="32" viewBox="0 0 32 32">
<title>key-multiple-filled</title>
<path d="M16 3.2c0.171 0 0.342 0.006 0.512 0.021-2.258 1.612-3.712 4.223-3.712 7.174 0 0.002 0 0.004 0 0.005v-0c0 2.107 0.741 4.042 1.976 5.557l-1.176 1.174v2.709c0 0.53-0.43 0.96-0.96 0.96v0h-3.040v2.24c0 0.53-0.43 0.96-0.96 0.96v0h-4.48c-0.53 0-0.96-0.43-0.96-0.96v0-4.574c0-0.265 0.108-0.505 0.282-0.678v0l6.378-6.378c-0.166-0.542-0.261-1.165-0.261-1.81 0-3.535 2.865-6.4 6.4-6.4 0.001 0 0.001 0 0.002 0h-0zM14.4 10.4c0-3.976 3.224-7.199 7.2-7.199s7.2 3.224 7.2 7.2c0 2.485-1.259 4.677-3.174 5.97l-0.026 0.016v3.28l1.253 1.254c0.173 0.174 0.281 0.413 0.281 0.678s-0.107 0.505-0.281 0.678v0l-1.722 1.722 1.709 1.707c0.174 0.174 0.281 0.414 0.281 0.679 0 0.303-0.14 0.573-0.359 0.749l-0.002 0.001-3.76 3.008c-0.163 0.131-0.372 0.211-0.6 0.211s-0.437-0.079-0.602-0.212l0.002 0.001-3.84-3.072c-0.22-0.177-0.36-0.447-0.36-0.749v-9.936c-1.941-1.309-3.2-3.499-3.2-5.983 0-0.001 0-0.003 0-0.004v0zM22.8 8.8c0-0.663-0.537-1.2-1.2-1.2s-1.2 0.537-1.2 1.2v0c0 0.663 0.537 1.2 1.2 1.2s1.2-0.537 1.2-1.2v0z"></path>
</svg>
