<!-- Generated by IcoMoon.io -->
<svg version="1.1" xmlns="http://www.w3.org/2000/svg" width="32" height="32" viewBox="0 0 32 32">
<title>key-filled</title>
<path d="M11.932 11.466c0-4.819 3.914-8.733 8.733-8.733 4.796 0 8.733 3.758 8.733 8.6 0 4.819-3.914 8.733-8.733 8.733-0.707 0-1.405-0.101-2.068-0.272-0.032 0.892-0.766 1.605-1.666 1.605h-2.333v2.333c0 0.921-0.746 1.667-1.667 1.667h-2.333v1.667c0 1.289-1.045 2.333-2.333 2.333h-3.333c-1.289 0-2.333-1.045-2.333-2.333v-2.895c0-0.972 0.386-1.905 1.074-2.593l8.314-8.314c0.073-0.073 0.116-0.19 0.092-0.325-0.080-0.458-0.147-0.956-0.147-1.472zM24.332 9.333c0-0.92-0.746-1.667-1.667-1.667s-1.667 0.746-1.667 1.667 0.746 1.667 1.667 1.667c0.92 0 1.667-0.746 1.667-1.667z"></path>
</svg>
