<!-- Generated by IcoMoon.io -->
<svg version="1.1" xmlns="http://www.w3.org/2000/svg" width="32" height="32" viewBox="0 0 32 32">
<title>key-command-filled</title>
<path d="M8.667 6.667c1.105 0 2 0.895 2 2v0 2h-2c-1.105 0-2-0.895-2-2s0.895-2 2-2v0zM13.333 10.667v-2c0-2.577-2.089-4.667-4.667-4.667s-4.667 2.089-4.667 4.667c0 2.577 2.089 4.667 4.667 4.667v0h2v5.333h-2c-2.577 0-4.667 2.089-4.667 4.667s2.089 4.667 4.667 4.667c2.577 0 4.667-2.089 4.667-4.667v0-2h5.333v2c0 2.577 2.089 4.667 4.667 4.667s4.667-2.089 4.667-4.667c0-2.577-2.089-4.667-4.667-4.667v0h-2v-5.333h2c2.577 0 4.667-2.089 4.667-4.667s-2.089-4.667-4.667-4.667c-2.577 0-4.667 2.089-4.667 4.667v0 2h-5.333zM13.333 13.333h5.333v5.333h-5.333v-5.333zM21.333 10.667v-2c0-1.105 0.895-2 2-2s2 0.895 2 2c0 1.105-0.895 2-2 2v0h-2zM21.333 21.333h2c1.105 0 2 0.895 2 2s-0.895 2-2 2c-1.105 0-2-0.895-2-2v0-2zM10.667 21.333v2c0 1.105-0.895 2-2 2s-2-0.895-2-2c0-1.105 0.895-2 2-2v0h2z"></path>
</svg>
