<!-- Generated by IcoMoon.io -->
<svg version="1.1" xmlns="http://www.w3.org/2000/svg" width="32" height="32" viewBox="0 0 32 32">
<title>keyboard-tab-filled</title>
<path d="M24.276 15.057l-8.667-8.667c-0.521-0.521-1.365-0.521-1.886 0-0.481 0.481-0.518 1.237-0.111 1.76l0.111 0.126 6.391 6.391h-14.781c-0.684 0-1.247 0.515-1.324 1.178l-0.009 0.155c0 0.684 0.515 1.247 1.178 1.324l0.155 0.009h14.781l-6.391 6.391c-0.481 0.481-0.518 1.237-0.111 1.76l0.111 0.126c0.481 0.481 1.237 0.518 1.76 0.111l0.126-0.111 8.667-8.667c0.481-0.481 0.518-1.237 0.111-1.76l-0.111-0.126zM28 24.667v-17.333c0-0.736-0.597-1.333-1.333-1.333s-1.333 0.597-1.333 1.333v17.333c0 0.736 0.597 1.333 1.333 1.333s1.333-0.597 1.333-1.333z"></path>
</svg>
