<!-- Generated by IcoMoon.io -->
<svg version="1.1" xmlns="http://www.w3.org/2000/svg" width="32" height="32" viewBox="0 0 32 32">
<title>keyboard-dock-filled</title>
<path d="M29.327 6.333c0-1.657-1.343-3-3-3v0h-20.66c-1.657 0-3 1.343-3 3v0 12.673c0 1.657 1.343 3 3 3v0h9.333v3.912l-1.12-1.12c-0.182-0.189-0.437-0.306-0.72-0.306-0.552 0-1 0.448-1 1 0 0.282 0.117 0.537 0.305 0.719l0 0 2.827 2.828c0.181 0.181 0.431 0.293 0.707 0.293s0.526-0.112 0.707-0.293v0l2.828-2.827c0.189-0.182 0.306-0.437 0.306-0.72 0-0.552-0.448-1-1-1-0.282 0-0.537 0.117-0.719 0.305l-0 0-1.121 1.12v-3.912h9.327c1.657 0 3-1.343 3-3v0-12.673zM9 16l14.136 0.009c0.491 0.069 0.864 0.486 0.864 0.991s-0.373 0.921-0.858 0.99l-0.005 0.001-0.136 0.009-14.136-0.009c-0.491-0.069-0.864-0.486-0.864-0.991s0.373-0.921 0.858-0.99l0.005-0.001 0.136-0.009zM20.667 12.667c0-0.736 0.597-1.333 1.333-1.333s1.333 0.597 1.333 1.333v0c0 0.736-0.597 1.333-1.333 1.333s-1.333-0.597-1.333-1.333v0zM16.673 12.667c0-0.736 0.597-1.333 1.333-1.333s1.333 0.597 1.333 1.333v0c0 0.736-0.597 1.333-1.333 1.333s-1.333-0.597-1.333-1.333v0zM12.673 12.667c0-0.736 0.597-1.333 1.333-1.333s1.333 0.597 1.333 1.333v0c0 0.736-0.597 1.333-1.333 1.333s-1.333-0.597-1.333-1.333v0zM8.673 12.667c0-0.736 0.597-1.333 1.333-1.333s1.333 0.597 1.333 1.333v0c0 0.736-0.597 1.333-1.333 1.333s-1.333-0.597-1.333-1.333v0zM6.667 8.667c0-0.736 0.597-1.333 1.333-1.333s1.333 0.597 1.333 1.333v0c0 0.736-0.597 1.333-1.333 1.333s-1.333-0.597-1.333-1.333v0zM10.66 8.667c0-0.736 0.597-1.333 1.333-1.333s1.333 0.597 1.333 1.333v0c0 0.736-0.597 1.333-1.333 1.333s-1.333-0.597-1.333-1.333v0zM14.66 8.667c0-0.736 0.597-1.333 1.333-1.333s1.333 0.597 1.333 1.333v0c0 0.736-0.597 1.333-1.333 1.333s-1.333-0.597-1.333-1.333v0zM18.66 8.667c0-0.736 0.597-1.333 1.333-1.333s1.333 0.597 1.333 1.333v0c0 0.736-0.597 1.333-1.333 1.333s-1.333-0.597-1.333-1.333v0zM22.66 8.667c0-0.736 0.597-1.333 1.333-1.333s1.333 0.597 1.333 1.333v0c0 0.736-0.597 1.333-1.333 1.333s-1.333-0.597-1.333-1.333v0z"></path>
</svg>
