<!-- Generated by IcoMoon.io -->
<svg version="1.1" xmlns="http://www.w3.org/2000/svg" width="32" height="32" viewBox="0 0 32 32">
<title>keyboard-tab-filled</title>
<path d="M24.276 15.057l-8.667-8.667c-0.241-0.24-0.574-0.389-0.941-0.389-0.736 0-1.333 0.597-1.333 1.333 0 0.309 0.105 0.593 0.281 0.819l-0.002-0.003 0.111 0.125 6.391 6.391h-14.781c-0.681 0-1.243 0.511-1.323 1.171l-0.001 0.006-0.009 0.156c0 0.681 0.511 1.243 1.171 1.323l0.006 0.001 0.156 0.009h14.781l-6.391 6.391c-0.241 0.241-0.39 0.575-0.39 0.943 0 0.309 0.105 0.594 0.282 0.82l-0.002-0.003 0.111 0.125c0.241 0.241 0.575 0.39 0.943 0.39 0.309 0 0.594-0.105 0.82-0.282l-0.003 0.002 0.125-0.111 8.667-8.667c0.241-0.241 0.39-0.575 0.39-0.943 0-0.309-0.105-0.594-0.282-0.82l0.002 0.003-0.111-0.125zM28 24.667v-17.333c0-0.736-0.597-1.333-1.333-1.333s-1.333 0.597-1.333 1.333v0 17.333c0 0.736 0.597 1.333 1.333 1.333s1.333-0.597 1.333-1.333v0z"></path>
</svg>
