<!-- Generated by IcoMoon.io -->
<svg version="1.1" xmlns="http://www.w3.org/2000/svg" width="32" height="32" viewBox="0 0 32 32">
<title>keyboard-shift-uppercase-filled</title>
<path d="M21.333 26.666c0.736 0 1.333 0.597 1.333 1.333 0 0.684-0.515 1.247-1.178 1.324l-0.155 0.009h-10.667c-0.736 0-1.333-0.597-1.333-1.333 0-0.684 0.515-1.247 1.178-1.324l0.155-0.009h10.667zM14.675 3.161c0.925-0.639 2.18-0.525 2.974 0.27l0.143 0.157 10.487 12.584c0.349 0.419 0.541 0.948 0.541 1.494 0 1.224-0.943 2.228-2.142 2.326l-0.191 0.008h-3.821l0.001 3c0 1.156-0.841 2.116-1.945 2.301l-0.197 0.025-0.191 0.008h-8.667c-1.224 0-2.228-0.943-2.326-2.142l-0.008-0.191-0.001-3h-3.819c-0.39 0-0.771-0.098-1.11-0.281l-0.198-0.12-0.186-0.14c-0.935-0.779-1.106-2.135-0.427-3.117l0.129-0.169 10.487-12.584 0.143-0.156 0.156-0.143 0.169-0.129z"></path>
</svg>
