<!-- Generated by IcoMoon.io -->
<svg version="1.1" xmlns="http://www.w3.org/2000/svg" width="32" height="32" viewBox="0 0 32 32">
<title>keyboard-filled</title>
<path d="M26.327 6.667c1.657 0 3 1.343 3 3v0 12.673c0 1.657-1.343 3-3 3v0h-20.66c-1.657 0-3-1.343-3-3v-12.673c0-1.657 1.343-3 3-3v0h20.66zM23 19.333l-14.136 0.009c-0.491 0.069-0.864 0.486-0.864 0.991s0.373 0.921 0.858 0.99l0.005 0.001 0.136 0.009 14.136-0.009c0.491-0.069 0.864-0.486 0.864-0.991s-0.373-0.921-0.858-0.99l-0.005-0.001-0.136-0.009zM22 14.667c-0.736 0-1.333 0.597-1.333 1.333s0.597 1.333 1.333 1.333v0c0.736 0 1.333-0.597 1.333-1.333s-0.597-1.333-1.333-1.333v0zM18.007 14.667c-0.736 0-1.333 0.597-1.333 1.333s0.597 1.333 1.333 1.333v0c0.736 0 1.333-0.597 1.333-1.333s-0.597-1.333-1.333-1.333v0zM14.007 14.667c-0.736 0-1.333 0.597-1.333 1.333s0.597 1.333 1.333 1.333v0c0.736 0 1.333-0.597 1.333-1.333s-0.597-1.333-1.333-1.333v0zM10.007 14.667c-0.736 0-1.333 0.597-1.333 1.333s0.597 1.333 1.333 1.333v0c0.736 0 1.333-0.597 1.333-1.333s-0.597-1.333-1.333-1.333v0zM8 10.667c-0.736 0-1.333 0.597-1.333 1.333s0.597 1.333 1.333 1.333v0c0.736 0 1.333-0.597 1.333-1.333s-0.597-1.333-1.333-1.333v0zM11.993 10.667c-0.736 0-1.333 0.597-1.333 1.333s0.597 1.333 1.333 1.333v0c0.736 0 1.333-0.597 1.333-1.333s-0.597-1.333-1.333-1.333v0zM15.993 10.667c-0.736 0-1.333 0.597-1.333 1.333s0.597 1.333 1.333 1.333v0c0.736 0 1.333-0.597 1.333-1.333s-0.597-1.333-1.333-1.333v0zM19.993 10.667c-0.736 0-1.333 0.597-1.333 1.333s0.597 1.333 1.333 1.333v0c0.736 0 1.333-0.597 1.333-1.333s-0.597-1.333-1.333-1.333v0zM23.993 10.667c-0.736 0-1.333 0.597-1.333 1.333s0.597 1.333 1.333 1.333v0c0.736 0 1.333-0.597 1.333-1.333s-0.597-1.333-1.333-1.333v0z"></path>
</svg>
