<!-- Generated by IcoMoon.io -->
<svg version="1.1" xmlns="http://www.w3.org/2000/svg" width="32" height="32" viewBox="0 0 32 32">
<title>keyboard-dock-filled</title>
<path d="M29.33 6.333c0-1.657-1.343-3-3-3h-20.66c-1.657 0-3 1.343-3 3v12.673c0 1.657 1.343 3 3 3h8.997v1.994h0.003v0.782l-0.553-0.553-0.126-0.111c-0.523-0.407-1.279-0.37-1.76 0.111-0.521 0.521-0.521 1.365 0 1.886l2.828 2.828 0.126 0.111c0.218 0.169 0.476 0.262 0.739 0.277h0.157l0.157-0.019c0.259-0.046 0.507-0.169 0.707-0.37l2.828-2.828 0.111-0.126c0.407-0.523 0.37-1.279-0.111-1.76l-0.126-0.111c-0.523-0.407-1.279-0.37-1.76 0.111l-0.552 0.553-0-2.776h8.994c1.657 0 3-1.343 3-3v-12.673zM9.003 16l14.136 0.009c0.488 0.066 0.864 0.485 0.864 0.991s-0.376 0.925-0.864 0.991l-0.136 0.009-14.136-0.009c-0.488-0.066-0.864-0.485-0.864-0.991s0.376-0.925 0.864-0.991l0.136-0.009zM20.67 12.667c0-0.736 0.597-1.333 1.333-1.333s1.333 0.597 1.333 1.333c0 0.736-0.597 1.333-1.333 1.333s-1.333-0.597-1.333-1.333zM16.676 12.667c0-0.736 0.597-1.333 1.333-1.333s1.333 0.597 1.333 1.333c0 0.736-0.597 1.333-1.333 1.333s-1.333-0.597-1.333-1.333zM12.676 12.667c0-0.736 0.597-1.333 1.333-1.333s1.333 0.597 1.333 1.333c0 0.736-0.597 1.333-1.333 1.333s-1.333-0.597-1.333-1.333zM8.676 12.667c0-0.736 0.597-1.333 1.333-1.333s1.333 0.597 1.333 1.333c0 0.736-0.597 1.333-1.333 1.333s-1.333-0.597-1.333-1.333zM6.67 8.667c0-0.736 0.597-1.333 1.333-1.333s1.333 0.597 1.333 1.333c0 0.736-0.597 1.333-1.333 1.333s-1.333-0.597-1.333-1.333zM10.663 8.667c0-0.736 0.597-1.333 1.333-1.333s1.333 0.597 1.333 1.333c0 0.736-0.597 1.333-1.333 1.333s-1.333-0.597-1.333-1.333zM14.663 8.667c0-0.736 0.597-1.333 1.333-1.333s1.333 0.597 1.333 1.333-0.597 1.333-1.333 1.333c-0.736 0-1.333-0.597-1.333-1.333zM18.663 8.667c0-0.736 0.597-1.333 1.333-1.333s1.333 0.597 1.333 1.333-0.597 1.333-1.333 1.333c-0.736 0-1.333-0.597-1.333-1.333zM22.663 8.667c0-0.736 0.597-1.333 1.333-1.333s1.333 0.597 1.333 1.333-0.597 1.333-1.333 1.333c-0.736 0-1.333-0.597-1.333-1.333z"></path>
</svg>
