<!-- Generated by IcoMoon.io -->
<svg version="1.1" xmlns="http://www.w3.org/2000/svg" width="32" height="32" viewBox="0 0 32 32">
<title>keyboard-shift-uppercase-filled</title>
<path d="M17.76 3.471c-0.43-0.494-1.060-0.804-1.762-0.804s-1.332 0.31-1.76 0.801l-0.002 0.003-10.993 12.672c-1.311 1.511-0.239 3.863 1.761 3.863h4.329v2.996c0 1.288 1.045 2.333 2.333 2.333h8.667c1.289 0 2.333-1.045 2.333-2.333 0-0 0-0.001 0-0.001v0-2.996h4.327c2 0 3.073-2.352 1.763-3.863l-10.993-12.672zM10.333 27.333c-0.552 0-1 0.448-1 1s0.448 1 1 1v0h11.333c0.552 0 1-0.448 1-1s-0.448-1-1-1v0h-11.333z"></path>
</svg>
