<!-- Generated by IcoMoon.io -->
<svg version="1.1" xmlns="http://www.w3.org/2000/svg" width="32" height="32" viewBox="0 0 32 32">
<title>laptop-dismiss-filled</title>
<path d="M17.6 8.8c0 0.001 0 0.001 0 0.002 0 4.86-3.94 8.8-8.8 8.8-1.46 0-2.837-0.356-4.049-0.985l0.049 0.023v3.36c0 1.325 1.075 2.4 2.4 2.4v0h17.6c1.325 0 2.4-1.075 2.4-2.4v0-9.6c0-1.325-1.075-2.4-2.4-2.4v0h-7.235c0.022 0.264 0.035 0.53 0.035 0.8zM3.2 24.8c0-0.442 0.358-0.8 0.8-0.8v0h24c0.442 0 0.8 0.358 0.8 0.8s-0.358 0.8-0.8 0.8v0h-24c-0.442 0-0.8-0.358-0.8-0.8v0zM8.8 16c3.976 0 7.2-3.224 7.2-7.2s-3.224-7.2-7.2-7.2v0c-3.976 0-7.2 3.224-7.2 7.2s3.224 7.2 7.2 7.2v0zM11.766 5.834c0.145 0.145 0.235 0.345 0.235 0.566s-0.090 0.422-0.235 0.566l-1.835 1.834 1.835 1.834c0.145 0.145 0.235 0.345 0.235 0.566 0 0.442-0.359 0.801-0.801 0.801-0.221 0-0.421-0.090-0.566-0.235v0l-1.834-1.835-1.834 1.835c-0.145 0.145-0.345 0.235-0.566 0.235-0.442 0-0.801-0.359-0.801-0.801 0-0.221 0.090-0.421 0.235-0.566v0l1.835-1.834-1.835-1.834c-0.145-0.145-0.235-0.345-0.235-0.566 0-0.442 0.359-0.801 0.801-0.801 0.221 0 0.421 0.090 0.566 0.235v0l1.834 1.835 1.834-1.835c0.145-0.145 0.345-0.235 0.566-0.235s0.422 0.090 0.566 0.235l0 0z"></path>
</svg>
