<!-- Generated by IcoMoon.io -->
<svg version="1.1" xmlns="http://www.w3.org/2000/svg" width="32" height="32" viewBox="0 0 32 32">
<title>laser-tool-filled</title>
<path d="M5.6 3.2c-0.442 0-0.8 0.358-0.8 0.8v0 4c0 1.767 1.433 3.2 3.2 3.2v0h16c1.767 0 3.2-1.433 3.2-3.2v0-4c0-0.442-0.358-0.8-0.8-0.8v0h-20.8zM16.8 16h6.4c1.325 0 2.4-1.075 2.4-2.4v0-0.8h-19.2v0.8c0 1.325 1.075 2.4 2.4 2.4v0h6.4v4c0 0.442 0.358 0.8 0.8 0.8s0.8-0.358 0.8-0.8v0-4zM8 23.2c0-0.442 0.358-0.8 0.8-0.8v0h2.4c0.442 0 0.8 0.358 0.8 0.8s-0.358 0.8-0.8 0.8v0h-2.4c-0.442 0-0.8-0.358-0.8-0.8v0zM20.8 22.4c-0.442 0-0.8 0.358-0.8 0.8s0.358 0.8 0.8 0.8v0h2.4c0.442 0 0.8-0.358 0.8-0.8s-0.358-0.8-0.8-0.8v0h-2.4zM16.8 23.2c0 0.442-0.358 0.8-0.8 0.8s-0.8-0.358-0.8-0.8v0c0-0.442 0.358-0.8 0.8-0.8s0.8 0.358 0.8 0.8v0zM16.8 26.4c0-0.442-0.358-0.8-0.8-0.8s-0.8 0.358-0.8 0.8v0 3.2c0 0.442 0.358 0.8 0.8 0.8s0.8-0.358 0.8-0.8v0-3.2zM14.166 24.234c0.145 0.145 0.235 0.345 0.235 0.566s-0.090 0.422-0.235 0.566l-2.4 2.4c-0.145 0.145-0.345 0.235-0.566 0.235-0.442 0-0.801-0.359-0.801-0.801 0-0.221 0.090-0.421 0.235-0.566l2.4-2.4c0.145-0.145 0.345-0.235 0.566-0.235s0.422 0.090 0.566 0.235l0 0zM17.834 25.366c-0.145-0.145-0.235-0.345-0.235-0.566 0-0.442 0.359-0.801 0.801-0.801 0.221 0 0.421 0.090 0.566 0.235v0l2.4 2.4c0.145 0.145 0.235 0.345 0.235 0.566 0 0.442-0.359 0.801-0.801 0.801-0.221 0-0.421-0.090-0.566-0.235l-2.4-2.4z"></path>
</svg>
