<!-- Generated by IcoMoon.io -->
<svg version="1.1" xmlns="http://www.w3.org/2000/svg" width="32" height="32" viewBox="0 0 32 32">
<title>lasso-filled</title>
<path d="M12.937 3.020c0.985-0.232 2.010-0.354 3.063-0.354s2.078 0.122 3.063 0.354c0.717 0.169 1.161 0.886 0.993 1.603s-0.886 1.161-1.603 0.993c-0.786-0.185-1.607-0.283-2.452-0.283s-1.666 0.098-2.452 0.283c-0.717 0.169-1.435-0.276-1.603-0.993s0.276-1.435 0.993-1.603z"></path>
<path d="M21.177 5.089c0.388-0.626 1.21-0.819 1.836-0.431 1.757 1.088 3.242 2.573 4.33 4.33 0.388 0.626 0.195 1.448-0.431 1.836s-1.448 0.195-1.836-0.431c-0.871-1.407-2.061-2.596-3.467-3.467-0.626-0.388-0.819-1.21-0.431-1.836z"></path>
<path d="M10.823 5.089c0.388 0.626 0.195 1.448-0.431 1.836-1.407 0.871-2.596 2.061-3.467 3.467-0.388 0.626-1.21 0.819-1.836 0.431s-0.819-1.21-0.431-1.836c1.088-1.757 2.573-3.242 4.33-4.33 0.626-0.388 1.448-0.195 1.836 0.431z"></path>
<path d="M4.624 11.945c0.717 0.169 1.161 0.886 0.993 1.603-0.185 0.786-0.283 1.607-0.283 2.452s0.098 1.666 0.283 2.452c0.169 0.717-0.276 1.435-0.993 1.603s-1.435-0.276-1.603-0.993c-0.232-0.985-0.354-2.010-0.354-3.063s0.122-2.078 0.354-3.063c0.169-0.717 0.886-1.161 1.603-0.993z"></path>
<path d="M27.376 11.945c0.717-0.169 1.435 0.276 1.603 0.993 0.232 0.985 0.354 2.010 0.354 3.063s-0.122 2.078-0.354 3.063c-0.169 0.717-0.886 1.161-1.603 0.993s-1.161-0.886-0.993-1.603c0.185-0.786 0.283-1.607 0.283-2.452s-0.098-1.666-0.283-2.452c-0.169-0.717 0.276-1.435 0.993-1.603z"></path>
<path d="M5.089 21.177c0.626-0.388 1.448-0.195 1.836 0.431 0.871 1.407 2.061 2.596 3.467 3.467 0.626 0.388 0.819 1.21 0.431 1.836s-1.21 0.819-1.836 0.431c-1.757-1.088-3.242-2.573-4.33-4.33-0.388-0.626-0.195-1.448 0.431-1.836z"></path>
<path d="M27.496 23.32c0.361-0.642 0.133-1.455-0.508-1.816-0.641-0.361-1.452-0.135-1.814 0.505l-0.001 0.002-0.001 0.001-0.017 0.028c-0.017 0.028-0.045 0.073-0.084 0.134-0.078 0.122-0.201 0.303-0.367 0.525-0.241 0.321-0.57 0.721-0.986 1.143-1.589-1.35-3.726-2.509-6.385-2.509-3.022 0-5.333 1.6-5.333 4s2.311 4 5.333 4c2.547 0 4.612-0.845 6.186-1.886 0.462 0.567 0.829 1.11 1.098 1.545 0.177 0.286 0.308 0.522 0.394 0.683 0.043 0.080 0.074 0.141 0.093 0.18l0.020 0.041 0.003 0.006 0.001 0.001c0.314 0.665 1.108 0.949 1.773 0.636s0.952-1.108 0.639-1.774c-0.156-0.308-0.001-0.002-0.001-0.002l-0.001-0.003-0.003-0.007-0.010-0.021c-0.005-0.011-0.012-0.024-0.019-0.040-0.005-0.009-0.010-0.020-0.015-0.031-0.029-0.059-0.071-0.141-0.126-0.243-0.109-0.204-0.268-0.489-0.477-0.828-0.317-0.513-0.753-1.158-1.307-1.838 0.533-0.535 0.952-1.044 1.259-1.454 0.209-0.278 0.367-0.513 0.477-0.683 0.055-0.085 0.097-0.154 0.127-0.204 0.015-0.025 0.027-0.046 0.036-0.061l0.011-0.019 0.004-0.007 0.001-0.003 0.001-0.002zM17.333 24c1.634 0 3.048 0.634 4.225 1.526-1.148 0.662-2.554 1.141-4.225 1.141-2.311 0-2.667-1.067-2.667-1.333s0.356-1.333 2.667-1.333z"></path>
</svg>
