<!-- Generated by IcoMoon.io -->
<svg version="1.1" xmlns="http://www.w3.org/2000/svg" width="32" height="32" viewBox="0 0 32 32">
<title>launcher-settings-filled</title>
<path d="M16.014 3c0.979 0.011 1.953 0.124 2.909 0.337 0.417 0.093 0.729 0.441 0.776 0.865l0.227 2.036c0.103 0.935 0.892 1.643 1.833 1.644 0.253 0 0.503-0.052 0.737-0.156l1.867-0.82c0.388-0.171 0.842-0.078 1.132 0.232 1.35 1.441 2.355 3.17 2.94 5.056 0.126 0.407-0.019 0.849-0.362 1.101l-1.655 1.22c-0.472 0.347-0.751 0.898-0.751 1.484s0.279 1.137 0.752 1.485l1.657 1.221c0.343 0.253 0.488 0.695 0.362 1.101-0.585 1.886-1.589 3.614-2.938 5.056-0.29 0.31-0.743 0.403-1.131 0.233l-1.875-0.821c-0.536-0.235-1.153-0.2-1.659 0.093s-0.844 0.81-0.909 1.392l-0.225 2.036c-0.046 0.42-0.352 0.765-0.762 0.863-1.931 0.459-3.943 0.459-5.875 0-0.411-0.098-0.716-0.443-0.762-0.863l-0.225-2.033c-0.066-0.581-0.404-1.096-0.911-1.388s-1.122-0.326-1.656-0.093l-1.875 0.822c-0.388 0.17-0.842 0.077-1.132-0.233-1.35-1.443-2.354-3.174-2.938-5.061-0.126-0.407 0.020-0.848 0.362-1.101l1.658-1.221c0.472-0.347 0.751-0.898 0.751-1.484s-0.279-1.137-0.752-1.484l-1.657-1.219c-0.343-0.253-0.489-0.695-0.362-1.102 0.585-1.886 1.59-3.615 2.94-5.056 0.29-0.31 0.744-0.403 1.132-0.232l1.867 0.82c0.537 0.236 1.155 0.2 1.664-0.097 0.507-0.294 0.845-0.811 0.91-1.393l0.227-2.034c0.047-0.425 0.36-0.773 0.777-0.865 0.956-0.213 1.932-0.326 2.935-0.337zM18.1 10.667h-4.363l4.14 5.333-3.697 4.685c-0.137 0.173-0.107 0.425 0.066 0.562 0.071 0.056 0.158 0.086 0.248 0.086h3.606c0.124 0 0.24-0.057 0.316-0.155l3.704-4.77c0.187-0.241 0.187-0.577 0-0.818l-3.704-4.77c-0.076-0.098-0.192-0.155-0.316-0.155zM12.903 11.737l-3.018 3.851c-0.162 0.207-0.185 0.486-0.070 0.713l0.069 0.109 2.669 3.407 0.066 0.066c0.148 0.118 0.354 0.114 0.497 0.001l0.065-0.065 1.782-2.24c0.092-0.116 0.111-0.271 0.056-0.402l-0.055-0.094-0.852-1.085 1.042-1.328-2.252-2.935z"></path>
</svg>
