<!-- Generated by IcoMoon.io -->
<svg version="1.1" xmlns="http://www.w3.org/2000/svg" width="32" height="32" viewBox="0 0 32 32">
<title>layer-diagonal-person-filled</title>
<path d="M18.395 5.453c-0.080-1.26-1.122-2.252-2.395-2.252-0.319 0-0.623 0.062-0.901 0.175l0.016-0.006-9.389 3.718c-1.492 0.603-2.526 2.040-2.526 3.719 0 0 0 0.001 0 0.001v-0 9.187c0 0 0 0.001 0 0.001 0 1.325 1.075 2.4 2.4 2.4 0.287 0 0.562-0.050 0.817-0.143l-0.017 0.005v-9.61c0-0 0-0 0-0 0-1.511 0.93-2.804 2.249-3.338l0.024-0.009 9.722-3.85zM23.198 8.8c-0.001-1.325-1.075-2.399-2.4-2.399-0.318 0-0.622 0.062-0.899 0.174l0.016-0.006-9.893 3.92c-1.195 0.482-2.022 1.632-2.022 2.975 0 0 0 0 0 0.001v-0 9.731c0 1.325 1.075 2.399 2.4 2.399 0.319 0 0.623-0.062 0.901-0.175l-0.016 0.006 1.515-0.6v-9.568c0-0 0-0 0-0.001 0-1.343 0.828-2.493 2.001-2.968l0.021-0.008 8.376-3.317v-0.166zM25.517 9.768c0.262-0.107 0.565-0.168 0.883-0.168 1.325 0 2.4 1.075 2.4 2.4 0 0 0 0 0 0v-0 4.546c-0.873-1.296-2.335-2.137-3.994-2.137-2.651 0-4.8 2.149-4.8 4.8 0 1.236 0.467 2.362 1.234 3.213l-0.004-0.004c-2.047 0.192-3.636 1.902-3.637 3.982v0c0 0.709 0.142 1.422 0.438 2.091l-0.355 0.141c-0.262 0.107-0.565 0.168-0.883 0.168-1.325 0-2.4-1.075-2.4-2.4 0-0 0-0 0-0v0-10.597c0-0 0-0 0-0 0-1.007 0.621-1.87 1.501-2.226l0.016-0.006 9.6-3.802zM28 19.2c0 1.767-1.433 3.2-3.2 3.2s-3.2-1.433-3.2-3.2v0c0-1.767 1.433-3.2 3.2-3.2s3.2 1.433 3.2 3.2v0zM30.4 26.4c0 1.992-1.6 4-5.6 4s-5.6-2-5.6-4c0-1.325 1.075-2.4 2.4-2.4v0h6.4c1.325 0 2.4 1.075 2.4 2.4v0z"></path>
</svg>
