<!-- Generated by IcoMoon.io -->
<svg version="1.1" xmlns="http://www.w3.org/2000/svg" width="32" height="32" viewBox="0 0 32 32">
<title>leaf-two-filled</title>
<path d="M4.943 2.667c-1.255 0-2.273 1.018-2.273 2.273v5.727c0 3.965 2.885 7.256 6.67 7.89 0.021-2.201 0.709-4.242 1.871-5.932l-2.918-2.918c-0.391-0.391-0.391-1.024 0-1.414s1.024-0.391 1.414 0l2.791 2.791c1.536-1.522 3.533-2.581 5.763-2.947-1.059-3.178-4.058-5.47-7.592-5.47h-5.727z"></path>
<path d="M12.739 24.516l-3.112 3.11c-0.391 0.39-0.391 1.023-0 1.414s1.024 0.391 1.414 0l3.113-3.111c1.601 1.291 3.637 2.063 5.853 2.063 5.154 0 9.332-4.178 9.332-9.332v-6.998c0-1.289-1.045-2.333-2.333-2.333h-6.998c-5.154 0-9.332 4.178-9.332 9.332 0 2.217 0.773 4.253 2.064 5.854zM21.040 19.047l-5.46 5.46c-0.533-0.405-1.010-0.88-1.415-1.413l5.461-5.461c0.391-0.391 1.024-0.391 1.414 0s0.391 1.024 0 1.414z"></path>
</svg>
