<!-- Generated by IcoMoon.io -->
<svg version="1.1" xmlns="http://www.w3.org/2000/svg" width="32" height="32" viewBox="0 0 32 32">
<title>leaf-one-filled</title>
<path d="M14.717 4.064c0.906-0.598 2.136-0.498 2.933 0.299l4.949 4.949c3.644 3.644 3.644 9.553 0 13.197-0.196 0.196-0.398 0.381-0.607 0.556-0.521 0.437-1.078 0.808-1.661 1.114-1.049 0.55-2.181 0.886-3.331 1.010v3.145c0 0.552-0.448 1-1 1s-1-0.448-1-1v-3.145c-2.045-0.219-4.031-1.112-5.598-2.68-3.644-3.644-3.644-9.553 0-13.197l4.949-4.949c0 0 0 0 0 0 0.114-0.114 0.237-0.214 0.366-0.299zM16 14.666c-0.552 0-1 0.448-1 1v7.507c0.663 0.091 1.337 0.091 2 0v-7.507c0-0.552-0.448-1-1-1z"></path>
</svg>
