<!-- Generated by IcoMoon.io -->
<svg version="1.1" xmlns="http://www.w3.org/2000/svg" width="32" height="32" viewBox="0 0 32 32">
<title>leaf-three-filled</title>
<path d="M18 2.667c-0.001 0-0.002 0-0.003 0-2.838 0-5.299 1.612-6.518 3.97l-0.019 0.041c3.057 0.154 5.709 1.758 7.299 4.133l0.021 0.034c0.613-0.116 1.244-0.177 1.887-0.177h4.637c0.019-0.22 0.029-0.441 0.029-0.667v-5.413c0-1.060-0.86-1.92-1.92-1.92v0h-5.413zM11.235 23.996c-0.070 0.002-0.152 0.003-0.235 0.003-4.418 0-8-3.581-8-7.999v-5.981c0-1.115 0.904-2.019 2.019-2.019h5.981c2.621 0 4.949 1.261 6.408 3.209-2.22 0.783-4.033 2.256-5.226 4.158l-0.024 0.042-2.117-2.116c-0.178-0.166-0.418-0.268-0.682-0.268-0.552 0-1 0.448-1 1 0 0.264 0.102 0.504 0.269 0.682l-0.001-0.001 2.613 2.613c-0.363 0.993-0.573 2.139-0.573 3.335 0 0.004 0 0.008 0 0.013v-0.001c0 1.168 0.2 2.288 0.568 3.329zM12 20.667c0-4.786 3.88-8.667 8.667-8.667v0h6.552c1.168 0 2.115 0.947 2.115 2.115v6.552c0 0 0 0 0 0 0 4.786-3.88 8.667-8.667 8.667-2.041 0-3.917-0.705-5.398-1.886l0.018 0.014-1.58 1.579c-0.183 0.196-0.443 0.318-0.732 0.318-0.552 0-1-0.448-1-1 0-0.289 0.122-0.549 0.318-0.731l0.001-0.001 1.579-1.58c-1.167-1.459-1.872-3.331-1.872-5.367 0-0.004 0-0.009 0-0.013v0.001zM16.236 26.511l6.137-6.137c0.196-0.183 0.318-0.443 0.318-0.732 0-0.552-0.448-1-1-1-0.289 0-0.549 0.122-0.731 0.318l-0.001 0.001-6.137 6.137c0.404 0.533 0.88 1.009 1.413 1.413z"></path>
</svg>
