<!-- Generated by IcoMoon.io -->
<svg version="1.1" xmlns="http://www.w3.org/2000/svg" width="32" height="32" viewBox="0 0 32 32">
<title>learning-app-filled</title>
<path d="M7.333 2.667h15.333c1.841 0 3.333 1.492 3.333 3.333v9.085c-0.84-0.271-1.736-0.418-2.667-0.418-4.787 0-8.667 3.88-8.667 8.667 0 0.93 0.147 1.827 0.418 2.667h-9.085c0 0.736 0.597 1.333 1.333 1.333h8.31c0.383 0.735 0.868 1.408 1.437 2h-9.746c-1.841 0-3.333-1.492-3.333-3.333v-20c0-1.841 1.492-3.333 3.333-3.333zM9.333 6.667c-0.736 0-1.333 0.597-1.333 1.333v1.333c0 0.736 0.597 1.333 1.333 1.333h10.667c0.736 0 1.333-0.597 1.333-1.333v-1.333c0-0.736-0.597-1.333-1.333-1.333h-10.667z"></path>
<path d="M30.667 23.333c0-4.050-3.283-7.333-7.333-7.333s-7.333 3.283-7.333 7.333c0 4.050 3.283 7.333 7.333 7.333s7.333-3.283 7.333-7.333zM22.552 20.129l3.742 2.454c0.116 0.075 0.207 0.174 0.273 0.297 0.066 0.121 0.099 0.253 0.099 0.397 0 0.138-0.032 0.27-0.095 0.397s-0.152 0.227-0.265 0.302l-3.742 2.553c-0.069 0.046-0.14 0.081-0.211 0.103-0.069 0.023-0.144 0.035-0.224 0.035-0.105 0-0.206-0.022-0.302-0.065-0.097-0.046-0.182-0.106-0.257-0.181-0.072-0.078-0.13-0.167-0.174-0.267-0.041-0.101-0.062-0.205-0.062-0.315v-5.011c0-0.112 0.021-0.219 0.062-0.319 0.044-0.101 0.102-0.188 0.174-0.263s0.156-0.134 0.253-0.177c0.097-0.046 0.199-0.069 0.307-0.069 0.155 0 0.296 0.043 0.423 0.129z"></path>
</svg>
