<!-- Generated by IcoMoon.io -->
<svg version="1.1" xmlns="http://www.w3.org/2000/svg" width="32" height="32" viewBox="0 0 32 32">
<title>library-filled</title>
<path d="M6.846 3.429c1.262 0 2.286 1.023 2.286 2.286v0 20.571c0 1.262-1.023 2.286-2.286 2.286v0h-2.274c-1.262 0-2.286-1.023-2.286-2.286v0-20.571c0-1.262 1.023-2.286 2.286-2.286v0h2.274zM14.846 3.429c1.262 0 2.286 1.023 2.286 2.286v0 20.571c0 1.262-1.023 2.286-2.286 2.286v0h-2.28c-1.262 0-2.286-1.023-2.286-2.286v0-20.571c0-1.262 1.023-2.286 2.286-2.286v0h2.28zM25.223 7.478l4.411 17.695c0.043 0.166 0.068 0.356 0.068 0.552 0 1.066-0.73 1.962-1.717 2.216l-0.016 0.003-2.243 0.56c-0.166 0.043-0.356 0.068-0.552 0.068-1.066 0-1.962-0.73-2.215-1.718l-0.003-0.016-4.411-17.695c-0.043-0.166-0.068-0.357-0.068-0.554 0-1.066 0.729-1.961 1.716-2.214l0.016-0.003 2.243-0.559c0.166-0.043 0.357-0.068 0.553-0.068 1.066 0 1.962 0.73 2.215 1.717l0.003 0.016z"></path>
</svg>
