<!-- Generated by IcoMoon.io -->
<svg version="1.1" xmlns="http://www.w3.org/2000/svg" width="32" height="32" viewBox="0 0 32 32">
<title>library-filled</title>
<path d="M7.333 4c1.104 0 2 0.896 2 2v20c0 1.104-0.896 2-2 2h-2.667c-1.104 0-2-0.896-2-2v-20c0-1.104 0.896-2 2-2h2.667zM15.333 4c1.104 0 2 0.896 2 2v20c0 1.104-0.896 2-2 2h-2.667c-1.104 0-2-0.896-2-2v-20c0-1.104 0.896-2 2-2h2.667zM25.041 8.165l4.285 16.692c0.275 1.069-0.369 2.16-1.44 2.435l-2.501 0.641c-1.071 0.275-2.16-0.369-2.435-1.44l-4.285-16.689c-0.275-1.071 0.369-2.16 1.44-2.435l2.501-0.644c1.071-0.273 2.16 0.372 2.435 1.44z"></path>
</svg>
