<!-- Generated by IcoMoon.io -->
<svg version="1.1" xmlns="http://www.w3.org/2000/svg" width="32" height="32" viewBox="0 0 32 32">
<title>lightbulb-circle-filled</title>
<path d="M16 2.667c7.364 0 13.333 5.97 13.333 13.333s-5.97 13.333-13.333 13.333c-7.364 0-13.333-5.97-13.333-13.333s5.97-13.333 13.333-13.333zM19.308 22.667h-6.616l0.137 0.606 0.057 0.203 0.076 0.19c0.384 0.862 1.203 1.399 2.116 1.399h1.842l0.208-0.010 0.202-0.031 0.195-0.046c0.83-0.232 1.454-0.875 1.644-1.701l0.138-0.609zM16 6.936c-3.682 0-6.667 2.985-6.667 6.667l0.010 0.362 0.028 0.341 0.045 0.336c0.247 1.558 1.026 2.953 2.186 3.971l0.206 0.172 0.428 1.883h7.525l0.427-1.88 0.217-0.182c1.347-1.193 2.162-2.857 2.253-4.662l0.009-0.34c0-3.682-2.985-6.667-6.667-6.667z"></path>
</svg>
