<!-- Generated by IcoMoon.io -->
<svg version="1.1" xmlns="http://www.w3.org/2000/svg" width="32" height="32" viewBox="0 0 32 32">
<title>lightbulb-filament-filled</title>
<path d="M16 2.667c-5.339 0-9.667 4.328-9.667 9.667 0 2.826 1.213 5.369 3.145 7.136 0.3 0.274 0.501 0.583 0.582 0.901l0.843 3.296h4.263v-9.333c0-0.46 0.373-0.833 0.833-0.833s0.833 0.373 0.833 0.833v0 9.333h4.264l0.844-3.299c0.081-0.317 0.282-0.627 0.582-0.9 1.935-1.77 3.143-4.306 3.143-7.123 0-0.004 0-0.008 0-0.012v0.001c0-5.339-4.328-9.667-9.667-9.667zM20.671 25.333h-9.341l0.413 1.618c0.362 1.38 1.598 2.382 3.068 2.382 0.001 0 0.001 0 0.002 0h2.377c0 0 0 0 0 0 1.47 0 2.706-1.001 3.063-2.359l0.005-0.022 0.413-1.619zM16.833 8.167v2.333c0 0.46-0.373 0.833-0.833 0.833s-0.833-0.373-0.833-0.833v0-2.333c0-0.46 0.373-0.833 0.833-0.833s0.833 0.373 0.833 0.833v0zM21.755 10.244c0.151 0.151 0.244 0.359 0.244 0.589s-0.093 0.438-0.244 0.589l-1.665 1.665c-0.151 0.151-0.359 0.244-0.59 0.244-0.46 0-0.834-0.373-0.834-0.834 0-0.23 0.093-0.438 0.244-0.589v0l1.665-1.664c0.151-0.151 0.359-0.244 0.589-0.244s0.439 0.093 0.589 0.244v0zM13.088 11.908c0.151 0.151 0.244 0.359 0.244 0.589 0 0.46-0.373 0.833-0.833 0.833-0.23 0-0.438-0.093-0.589-0.244v0l-1.665-1.665c-0.157-0.152-0.254-0.364-0.254-0.599 0-0.46 0.373-0.833 0.833-0.833 0.235 0 0.448 0.098 0.599 0.254l0 0 1.665 1.664z"></path>
</svg>
