<!-- Generated by IcoMoon.io -->
<svg version="1.1" xmlns="http://www.w3.org/2000/svg" width="32" height="32" viewBox="0 0 32 32">
<title>lightbulb-person-filled</title>
<path d="M16 2.667c-5.339 0-9.667 4.328-9.667 9.667 0 2.823 1.211 5.365 3.14 7.131 0.299 0.273 0.499 0.582 0.58 0.899l0.003 0.013c1.617-1.274 3.683-2.043 5.929-2.043 0.005 0 0.010 0 0.016 0h-0.001c2.241 0 4.304 0.763 5.943 2.043l0.003-0.013c0.081-0.317 0.281-0.625 0.58-0.899 1.933-1.77 3.14-4.304 3.14-7.12 0-0.004 0-0.007 0-0.011v0.001c0-5.339-4.328-9.667-9.667-9.667zM21.483 22.173c-1.424-1.346-3.351-2.173-5.471-2.173-0.004 0-0.008 0-0.013 0h0.001c-0.004 0-0.008 0-0.012 0-2.12 0-4.046 0.827-5.474 2.177l0.004-0.004 0.383 1.493h10.199l0.383-1.493zM11.328 25.333l0.415 1.62c0.362 1.379 1.598 2.38 3.067 2.38h2.38c1.469-0 2.704-1.001 3.062-2.358l0.005-0.022 0.415-1.62h-9.344zM16 9.333c-1.657 0-3 1.343-3 3s1.343 3 3 3v0c1.657 0 3-1.343 3-3s-1.343-3-3-3v0zM11.333 12.333c0-2.577 2.089-4.667 4.667-4.667s4.667 2.089 4.667 4.667v0c0 2.577-2.089 4.667-4.667 4.667s-4.667-2.089-4.667-4.667v0z"></path>
</svg>
