<!-- Generated by IcoMoon.io -->
<svg version="1.1" xmlns="http://www.w3.org/2000/svg" width="32" height="32" viewBox="0 0 32 32">
<title>lightbulb-filled</title>
<path d="M20.717 25.332l-0.388 1.678c-0.298 1.284-1.395 2.215-2.692 2.314l-0.231 0.009h-2.816c-1.319 0-2.474-0.86-2.863-2.102l-0.061-0.223-0.387-1.676h9.436zM16 2.668c5.339 0 9.667 4.328 9.667 9.667 0 2.849-1.247 5.458-3.687 7.788-0.047 0.045-0.080 0.103-0.095 0.166l-0.704 3.044h-10.363l-0.701-3.043c-0.015-0.063-0.048-0.121-0.095-0.166-2.441-2.33-3.689-4.939-3.689-7.788 0-5.339 4.328-9.667 9.667-9.667z"></path>
</svg>
