<!-- Generated by IcoMoon.io -->
<svg version="1.1" xmlns="http://www.w3.org/2000/svg" width="32" height="32" viewBox="0 0 32 32">
<title>lightbulb-circle-filled</title>
<path d="M16 2.667c7.364 0 13.333 5.969 13.333 13.333s-5.969 13.333-13.333 13.333-13.333-5.969-13.333-13.333 5.969-13.333 13.333-13.333zM19.308 22.667h-6.616l0.137 0.605 0.057 0.203 0.076 0.191c0.384 0.861 1.203 1.4 2.116 1.4h1.843l0.208-0.012 0.2-0.031 0.196-0.047c0.819-0.226 1.446-0.872 1.641-1.686l0.003-0.016 0.139-0.608zM16 6.936c-3.682 0-6.667 2.985-6.667 6.667v0l0.011 0.361 0.027 0.341 0.045 0.336c0.257 1.593 1.048 2.968 2.179 3.964l0.007 0.006 0.205 0.172 0.428 1.883h7.525l0.427-1.88 0.217-0.181c1.307-1.154 2.156-2.8 2.253-4.646l0.001-0.016 0.008-0.34c0-3.682-2.985-6.667-6.667-6.667v0z"></path>
</svg>
