<!-- Generated by IcoMoon.io -->
<svg version="1.1" xmlns="http://www.w3.org/2000/svg" width="32" height="32" viewBox="0 0 32 32">
<title>lightbulb-filled</title>
<path d="M16 2.667c-5.339 0-9.667 4.328-9.667 9.667 0 2.823 1.211 5.365 3.14 7.131 0.299 0.273 0.499 0.582 0.58 0.899l0.847 3.303h10.2l0.847-3.303c0.081-0.317 0.281-0.625 0.58-0.9 1.933-1.77 3.14-4.304 3.14-7.12 0-0.003 0-0.007 0-0.010v0.001c0-5.339-4.328-9.667-9.667-9.667zM20.672 25.333h-9.344l0.415 1.62c0.362 1.379 1.598 2.38 3.067 2.38h2.38c1.469-0 2.704-1.001 3.062-2.358l0.005-0.022 0.415-1.62z"></path>
</svg>
