<!-- Generated by IcoMoon.io -->
<svg version="1.1" xmlns="http://www.w3.org/2000/svg" width="32" height="32" viewBox="0 0 32 32">
<title>line-horizontal-5-error-filled</title>
<path d="M4.4 4.8c-0.663 0-1.2 0.537-1.2 1.2s0.537 1.2 1.2 1.2v0h23.2c0.663 0 1.2-0.537 1.2-1.2s-0.537-1.2-1.2-1.2v0h-23.2zM4.4 14.4c-0.663 0-1.2 0.537-1.2 1.2s0.537 1.2 1.2 1.2v0h11.424c0.624-0.949 1.394-1.746 2.286-2.382l0.027-0.018h-13.738zM4.4 19.2h10.331c-0.21 0.717-0.331 1.54-0.331 2.392 0 0.003 0 0.006 0 0.009v-0h-10c-0.663 0-1.2-0.537-1.2-1.2s0.537-1.2 1.2-1.2v0zM4.4 24h10.331c0.243 0.861 0.614 1.669 1.091 2.4h-11.422c-0.663 0-1.2-0.537-1.2-1.2s0.537-1.2 1.2-1.2v0zM4.4 9.6c-0.663 0-1.2 0.537-1.2 1.2s0.537 1.2 1.2 1.2v0h23.2c0.663 0 1.2-0.537 1.2-1.2s-0.537-1.2-1.2-1.2v0h-23.2zM30.4 21.6c0 3.976-3.224 7.2-7.2 7.2s-7.2-3.224-7.2-7.2v0c0-3.976 3.224-7.2 7.2-7.2s7.2 3.224 7.2 7.2v0zM23.2 17.6c-0.442 0-0.8 0.358-0.8 0.8v0 3.2c0 0.442 0.358 0.8 0.8 0.8s0.8-0.358 0.8-0.8v0-3.2c0-0.442-0.358-0.8-0.8-0.8v0zM23.2 25.8c0.552 0 1-0.448 1-1s-0.448-1-1-1v0c-0.552 0-1 0.448-1 1s0.448 1 1 1v0z"></path>
</svg>
