<!-- Generated by IcoMoon.io -->
<svg version="1.1" xmlns="http://www.w3.org/2000/svg" width="32" height="32" viewBox="0 0 32 32">
<title>line-horizontal-3-filled</title>
<path d="M3.2 7.6c0-0.663 0.537-1.2 1.2-1.2v0h23.2c0.663 0 1.2 0.537 1.2 1.2s-0.537 1.2-1.2 1.2v0h-23.2c-0.663 0-1.2-0.537-1.2-1.2v0zM3.2 15.6c0-0.663 0.537-1.2 1.2-1.2v0h23.2c0.663 0 1.2 0.537 1.2 1.2s-0.537 1.2-1.2 1.2v0h-23.2c-0.663 0-1.2-0.537-1.2-1.2v0zM4.4 22.4c-0.663 0-1.2 0.537-1.2 1.2s0.537 1.2 1.2 1.2v0h23.2c0.663 0 1.2-0.537 1.2-1.2s-0.537-1.2-1.2-1.2v0h-23.2z"></path>
</svg>
