<!-- Generated by IcoMoon.io -->
<svg version="1.1" xmlns="http://www.w3.org/2000/svg" width="32" height="32" viewBox="0 0 32 32">
<title>link-dismiss-filled</title>
<path d="M12 6.667c0.736 0 1.333 0.597 1.333 1.333 0 0.684-0.515 1.247-1.178 1.324l-0.155 0.009h-2.667c-2.209 0-4 1.791-4 4 0 2.13 1.665 3.872 3.765 3.993l0.235 0.007h2.667c0.736 0 1.333 0.597 1.333 1.333 0 0.684-0.515 1.247-1.178 1.324l-0.155 0.009h-2.667c-3.682 0-6.667-2.985-6.667-6.667 0-3.585 2.83-6.509 6.377-6.66l0.289-0.006h2.667zM22.667 6.667c3.682 0 6.667 2.985 6.667 6.667 0 1.117-0.275 2.171-0.761 3.096-0.705-0.536-1.496-0.967-2.347-1.268 0.282-0.548 0.441-1.169 0.441-1.828 0-2.13-1.665-3.872-3.765-3.993l-0.235-0.007h-2.667c-0.736 0-1.333-0.597-1.333-1.333 0-0.684 0.515-1.247 1.178-1.324l0.155-0.009h2.667zM9.333 12h13.333c0.736 0 1.333 0.597 1.333 1.333 0 0.684-0.515 1.247-1.178 1.324l-0.155 0.009h-13.333c-0.736 0-1.333-0.597-1.333-1.333 0-0.684 0.515-1.247 1.178-1.324l0.155-0.009zM30.667 23.333c0 4.050-3.283 7.333-7.333 7.333s-7.333-3.283-7.333-7.333c0-4.050 3.283-7.333 7.333-7.333s7.333 3.283 7.333 7.333zM21.138 20.195c-0.26-0.26-0.683-0.26-0.943 0s-0.26 0.683 0 0.943l2.195 2.195-2.195 2.195c-0.26 0.26-0.26 0.683 0 0.943s0.683 0.26 0.943 0l2.195-2.195 2.195 2.195c0.26 0.26 0.683 0.26 0.943 0s0.26-0.683 0-0.943l-2.195-2.195 2.195-2.195c0.26-0.26 0.26-0.683 0-0.943s-0.683-0.26-0.943 0l-2.195 2.195-2.195-2.195z"></path>
</svg>
