<!-- Generated by IcoMoon.io -->
<svg version="1.1" xmlns="http://www.w3.org/2000/svg" width="32" height="32" viewBox="0 0 32 32">
<title>link-square-filled</title>
<path d="M8.669 4.004c-2.577 0-4.667 2.089-4.667 4.667v0 8c0 2.577 2.089 4.667 4.667 4.667v0h0.664v-2.667h-0.663c-1.105 0-2-0.895-2-2v0-8c0-1.105 0.895-2 2-2v0h8c1.105 0 2 0.895 2 2v0 8c0 1.105-0.895 2-2 2v0h-2.008v2.667h2.008c2.577 0 4.667-2.089 4.667-4.667v0-8c0-2.577-2.089-4.667-4.667-4.667v0h-8zM13.333 15.333c0-1.105 0.895-2 2-2v0h1.999v-2.667h-1.999c-2.577 0-4.667 2.089-4.667 4.667v0 8c0 2.577 2.089 4.667 4.667 4.667v0h8c2.577 0 4.667-2.089 4.667-4.667v0-8c0-2.577-2.089-4.667-4.667-4.667v0h-0.66v2.667h0.66c1.105 0 2 0.895 2 2v0 8c0 1.105-0.895 2-2 2v0h-8c-1.105 0-2-0.895-2-2v0-8z"></path>
</svg>
