<!-- Generated by IcoMoon.io -->
<svg version="1.1" xmlns="http://www.w3.org/2000/svg" width="32" height="32" viewBox="0 0 32 32">
<title>link-toolbox-filled</title>
<path d="M14 7.6c0-0.663-0.537-1.2-1.2-1.2v0h-3.2l-0.32 0.008c-3.394 0.175-6.080 2.97-6.080 6.392 0 3.535 2.865 6.4 6.4 6.4 0 0 0 0 0 0h3.2l0.163-0.011c0.589-0.083 1.036-0.584 1.036-1.189 0-0.663-0.537-1.2-1.2-1.2h-3.2l-0.262-0.008c-2.098-0.137-3.747-1.872-3.747-3.992 0-2.209 1.791-4 4-4 0.003 0 0.007 0 0.010 0h3.199l0.163-0.011c0.589-0.083 1.037-0.584 1.037-1.189v0zM28.8 12.8c0-3.535-2.865-6.4-6.4-6.4v0h-3.2l-0.163 0.011c-0.589 0.083-1.036 0.584-1.036 1.189 0 0.663 0.537 1.2 1.2 1.2h3.2l0.262 0.008c2.094 0.141 3.739 1.874 3.739 3.991 0 0.648-0.154 1.26-0.427 1.801l0.010-0.023c0.797 0.246 1.486 0.736 1.984 1.381 0.53-0.934 0.832-2.010 0.832-3.158zM10 11.6h12c0.663 0 1.2 0.537 1.2 1.2 0 0.605-0.448 1.106-1.030 1.188l-0.006 0.001-0.163 0.011h-12c-0.663-0-1.2-0.537-1.2-1.2 0-0.605 0.448-1.106 1.030-1.188l0.006-0.001 0.163-0.011zM19.2 19.2v-0.8c0-1.325 1.075-2.4 2.4-2.4v0h3.2c1.325 0 2.4 1.075 2.4 2.4v0 0.8h0.8c1.325 0 2.4 1.075 2.4 2.4v0 2.4h-3.2v-0.8c0-0.442-0.358-0.8-0.8-0.8s-0.8 0.358-0.8 0.8v0 0.8h-4.8v-0.8c0-0.442-0.358-0.8-0.8-0.8s-0.8 0.358-0.8 0.8v0 0.8h-3.2v-2.4c0-1.325 1.075-2.4 2.4-2.4v0h0.8zM20.8 18.4v0.8h4.8v-0.8c0-0.442-0.358-0.8-0.8-0.8v0h-3.2c-0.442 0-0.8 0.358-0.8 0.8v0zM27.2 26.4v-0.8h3.2v2.4c0 1.325-1.075 2.4-2.4 2.4v0h-9.6c-1.325 0-2.4-1.075-2.4-2.4v0-2.4h3.2v0.8c0 0.442 0.358 0.8 0.8 0.8s0.8-0.358 0.8-0.8v0-0.8h4.8v0.8c0 0.442 0.358 0.8 0.8 0.8s0.8-0.358 0.8-0.8v0z"></path>
</svg>
