<!-- Generated by IcoMoon.io -->
<svg version="1.1" xmlns="http://www.w3.org/2000/svg" width="32" height="32" viewBox="0 0 32 32">
<title>list-filled</title>
<path d="M22.857 22.857c0.631 0 1.143 0.512 1.143 1.143s-0.512 1.143-1.143 1.143v0h-18.286c-0.631 0-1.143-0.512-1.143-1.143s0.512-1.143 1.143-1.143v0h18.286zM27.429 14.857c0.631 0 1.143 0.512 1.143 1.143s-0.512 1.143-1.143 1.143v0h-22.857c-0.631 0-1.143-0.512-1.143-1.143s0.512-1.143 1.143-1.143v0h22.857zM25.143 6.857c0.631 0 1.143 0.512 1.143 1.143s-0.512 1.143-1.143 1.143v0h-20.571c-0.631 0-1.143-0.512-1.143-1.143s0.512-1.143 1.143-1.143v0h20.571z"></path>
</svg>
