<!-- Generated by IcoMoon.io -->
<svg version="1.1" xmlns="http://www.w3.org/2000/svg" width="32" height="32" viewBox="0 0 32 32">
<title>live-off-filled</title>
<path d="M4.373 2.96c-0.183-0.196-0.443-0.318-0.732-0.318-0.552 0-1 0.448-1 1 0 0.289 0.122 0.549 0.318 0.731l0.001 0.001 2.936 2.937c-4.523 5.24-4.297 13.163 0.675 18.135 0.241 0.242 0.575 0.391 0.943 0.391 0.737 0 1.334-0.597 1.334-1.334 0-0.368-0.149-0.701-0.39-0.943v0c-1.932-1.931-3.126-4.6-3.126-7.547 0-2.597 0.928-4.977 2.47-6.828l-0.014 0.017 2.028 2.027c-1 1.309-1.602 2.968-1.602 4.768 0 2.18 0.884 4.154 2.312 5.583v0c0.242 0.242 0.575 0.391 0.944 0.391 0.737 0 1.335-0.598 1.335-1.335 0-0.368-0.149-0.702-0.391-0.943v0c-0.946-0.946-1.531-2.253-1.531-3.697 0-1.061 0.316-2.049 0.859-2.873l-0.012 0.020 2.448 2.448c-0.044 0.156-0.069 0.335-0.069 0.519 0 1.105 0.895 2 2 2 0.185 0 0.363-0.025 0.533-0.072l-0.014 0.003 11 11c0.18 0.174 0.424 0.28 0.694 0.28 0.552 0 1-0.448 1-1 0-0.27-0.107-0.515-0.281-0.695l0 0-24.668-24.667zM25.371 21.128l1.948 1.949c3.219-5.148 2.591-12.016-1.887-16.493-0.241-0.241-0.575-0.39-0.943-0.39-0.737 0-1.334 0.597-1.334 1.334 0 0.368 0.149 0.702 0.391 0.943v0c1.932 1.932 3.126 4.6 3.126 7.548 0 1.873-0.483 3.634-1.33 5.164l0.028-0.055zM21.24 16.997l2.12 2.121c0.406-0.92 0.643-1.992 0.643-3.12 0-2.18-0.884-4.154-2.312-5.583l0 0c-0.241-0.242-0.575-0.391-0.943-0.391-0.737 0-1.334 0.597-1.334 1.334 0 0.368 0.149 0.701 0.39 0.943v0c0.947 0.945 1.533 2.252 1.533 3.695 0 0.354-0.035 0.7-0.102 1.034l0.006-0.033z"></path>
</svg>
