<!-- Generated by IcoMoon.io -->
<svg version="1.1" xmlns="http://www.w3.org/2000/svg" width="32" height="32" viewBox="0 0 32 32">
<title>live-filled</title>
<path d="M8.457 6.584c0.242 0.241 0.391 0.575 0.391 0.943s-0.149 0.702-0.391 0.943v0c-1.931 1.931-3.125 4.598-3.125 7.545s1.194 5.614 3.125 7.545l-0-0c0.241 0.241 0.39 0.575 0.39 0.943 0 0.737-0.597 1.334-1.334 1.334-0.368 0-0.702-0.149-0.943-0.391v0c-5.208-5.208-5.208-13.653 0-18.861 0.241-0.242 0.575-0.391 0.943-0.391s0.702 0.149 0.943 0.391v0zM25.432 6.584c5.208 5.209 5.208 13.653 0 18.861-0.24 0.232-0.566 0.374-0.926 0.374-0.736 0-1.333-0.597-1.333-1.333 0-0.36 0.143-0.687 0.375-0.927l-0 0c1.931-1.931 3.125-4.598 3.125-7.545s-1.194-5.614-3.125-7.545l0 0c-0.242-0.241-0.391-0.575-0.391-0.943 0-0.737 0.597-1.334 1.334-1.334 0.368 0 0.701 0.149 0.943 0.39v0zM12.413 10.416c0.241 0.241 0.39 0.575 0.39 0.943s-0.149 0.701-0.39 0.943v0c-0.946 0.946-1.531 2.253-1.531 3.696s0.585 2.75 1.531 3.696v0c0.251 0.243 0.407 0.583 0.407 0.959 0 0.736-0.597 1.333-1.333 1.333-0.376 0-0.716-0.156-0.959-0.407l-0-0c-1.428-1.428-2.312-3.402-2.312-5.581s0.883-4.153 2.312-5.581v0c0.241-0.241 0.575-0.39 0.943-0.39s0.701 0.149 0.943 0.39v0zM21.692 10.416c1.428 1.428 2.312 3.402 2.312 5.581s-0.883 4.153-2.312 5.581v0c-0.241 0.242-0.575 0.391-0.943 0.391-0.737 0-1.334-0.597-1.334-1.334 0-0.368 0.149-0.701 0.39-0.943v0c0.946-0.946 1.531-2.253 1.531-3.696s-0.585-2.75-1.531-3.696v0c-0.241-0.241-0.39-0.575-0.39-0.943 0-0.737 0.597-1.334 1.334-1.334 0.368 0 0.702 0.149 0.943 0.391v0zM16.109 14.109c1.105 0 2 0.895 2 2s-0.895 2-2 2v0c-1.105 0-2-0.895-2-2s0.895-2 2-2v0z"></path>
</svg>
