<!-- Generated by IcoMoon.io -->
<svg version="1.1" xmlns="http://www.w3.org/2000/svg" width="32" height="32" viewBox="0 0 32 32">
<title>location-live-filled</title>
<path d="M12 3.633c0.036-0.523 0.469-0.934 0.998-0.934 0.024 0 0.047 0.001 0.071 0.002l-0.003-0c7.989 0.525 14.376 6.913 14.9 14.905 0.001 0.020 0.002 0.042 0.002 0.065 0 0.552-0.448 1-1 1-0.529 0-0.963-0.411-0.998-0.932l-0-0.003c-0.457-6.989-6.047-12.58-13.036-13.040-0.524-0.035-0.936-0.468-0.936-0.998 0-0.023 0.001-0.046 0.002-0.069l-0 0.003zM10.119 28.515l0.517 0.515c0.181 0.18 0.43 0.29 0.705 0.29s0.524-0.111 0.705-0.291l-0 0 1.795-1.783c0.971-0.964 2.091-2.079 2.683-2.671 1.326-1.326 2.146-3.158 2.146-5.181 0-4.047-3.281-7.328-7.328-7.328s-7.328 3.281-7.328 7.328c0 2.023 0.82 3.855 2.146 5.181v0c1.266 1.264 2.556 2.547 3.849 3.828l0.111 0.11zM11.333 21c-0.92 0-1.667-0.746-1.667-1.667s0.746-1.667 1.667-1.667v0c0.92 0 1.667 0.746 1.667 1.667s-0.746 1.667-1.667 1.667v0zM13.091 7.337c-0.027-0.003-0.059-0.004-0.091-0.004-0.552 0-1 0.448-1 1 0 0.521 0.399 0.95 0.909 0.996l0.004 0c4.472 0.422 8.001 3.95 8.422 8.384l0.003 0.038c0.048 0.512 0.475 0.91 0.996 0.91 0.552 0 1-0.448 1-1 0-0.032-0.001-0.063-0.004-0.094l0 0.004c-0.514-5.434-4.804-9.722-10.193-10.23l-0.045-0.003z"></path>
</svg>
