<!-- Generated by IcoMoon.io -->
<svg version="1.1" xmlns="http://www.w3.org/2000/svg" width="32" height="32" viewBox="0 0 32 32">
<title>local-language-filled</title>
<path d="M12.75 10.007l0.075 0.156 7.076 17.339c0.278 0.682-0.049 1.46-0.731 1.738-0.633 0.258-1.349-0.005-1.671-0.59l-0.067-0.141-1.841-4.511h-8.381l-1.988 4.542c-0.274 0.626-0.972 0.936-1.61 0.741l-0.146-0.054c-0.626-0.274-0.936-0.972-0.741-1.61l0.054-0.146 7.59-17.339c0.449-1.026 1.86-1.059 2.381-0.125zM25.333 2.667c0.684 0 1.247 0.515 1.324 1.178l0.009 0.155-0 5.333h1.334c0.684 0 1.247 0.515 1.324 1.178l0.009 0.155c0 0.684-0.515 1.247-1.178 1.324l-0.155 0.009h-1.334l0 9.333c0 0.684-0.515 1.247-1.178 1.324l-0.155 0.009c-0.684 0-1.247-0.515-1.324-1.178l-0.009-0.155v-17.333c0-0.736 0.597-1.333 1.333-1.333zM11.547 14.090l-3.171 7.242h6.127l-2.955-7.242zM14.667 2.667h6.667c0.684 0 1.247 0.515 1.324 1.178l0.009 0.155v3.966c0 2.945-2.388 5.333-5.333 5.333-0.736 0-1.333-0.597-1.333-1.333s0.597-1.333 1.333-1.333c1.406 0 2.558-1.088 2.659-2.468l0.007-0.199v-2.633h-5.333c-0.736 0-1.333-0.597-1.333-1.333 0-0.684 0.515-1.247 1.178-1.324l0.155-0.009z"></path>
</svg>
