<!-- Generated by IcoMoon.io -->
<svg version="1.1" xmlns="http://www.w3.org/2000/svg" width="32" height="32" viewBox="0 0 32 32">
<title>local-language-zi-filled</title>
<path d="M24 2.667c0-0.736-0.597-1.333-1.333-1.333s-1.333 0.597-1.333 1.333v1.333h-5.333c-0.736 0-1.333 0.597-1.333 1.333v1.667c0 0.736 0.597 1.333 1.333 1.333s1.333-0.597 1.333-1.333v-0.333h10.667v0.333c0 0.736 0.597 1.333 1.333 1.333s1.333-0.597 1.333-1.333v-1.667c0-0.736-0.597-1.333-1.333-1.333h-5.333v-1.333zM11.417 10.007l0.075 0.156 7.076 17.339c0.278 0.682-0.049 1.46-0.731 1.738-0.633 0.258-1.349-0.005-1.671-0.59l-0.067-0.141-1.841-4.511h-8.381l-1.988 4.542c-0.274 0.626-0.972 0.936-1.61 0.741l-0.146-0.054c-0.626-0.274-0.936-0.972-0.741-1.61l0.054-0.146 7.59-17.339c0.449-1.026 1.86-1.059 2.381-0.125zM10.214 14.090l-3.171 7.242h6.127l-2.955-7.242zM17.999 9.333c0-0.736 0.597-1.333 1.333-1.333h6.667c0.539 0 1.025 0.325 1.232 0.823s0.092 1.072-0.289 1.453l-2.391 2.391h4.781c0.736 0 1.333 0.597 1.333 1.333s-0.597 1.333-1.333 1.333h-5.333v3.979c0 2.233-2.152 3.834-4.291 3.193l-0.759-0.228c-0.705-0.212-1.106-0.955-0.894-1.66s0.955-1.106 1.66-0.894l0.759 0.228c0.428 0.128 0.858-0.192 0.858-0.639v-3.979h-5.333c-0.736 0-1.333-0.597-1.333-1.333s0.597-1.333 1.333-1.333h5.333c0-0.354 0.141-0.693 0.391-0.943l1.057-1.057h-3.448c-0.736 0-1.333-0.597-1.333-1.333z"></path>
</svg>
