<!-- Generated by IcoMoon.io -->
<svg version="1.1" xmlns="http://www.w3.org/2000/svg" width="32" height="32" viewBox="0 0 32 32">
<title>location-arrow-right-filled</title>
<path d="M24.667 21.333l-6.725 7.14c-0.487 0.517-1.177 0.838-1.941 0.838s-1.454-0.322-1.94-0.837l-0.001-0.001-6.725-7.14h0.025l-0.011-0.013-0.014-0.017c-1.658-1.951-2.667-4.5-2.667-7.284 0-0.007 0-0.014 0-0.020v0.001c0-6.259 5.074-11.333 11.333-11.333s11.333 5.074 11.333 11.333c0 0.006 0 0.013 0 0.019 0 2.784-1.008 5.333-2.68 7.3l0.013-0.016-0.014 0.017-0.011 0.013h0.025zM16.744 11.256l1.911 1.911h-7.321c-0.46 0-0.833 0.373-0.833 0.833s0.373 0.833 0.833 0.833v0h7.321l-1.911 1.911c-0.151 0.151-0.244 0.359-0.244 0.589 0 0.46 0.373 0.833 0.833 0.833 0.23 0 0.439-0.093 0.589-0.244v0l3.333-3.333c0.151-0.151 0.244-0.359 0.244-0.589s-0.093-0.439-0.244-0.589l-3.333-3.333c-0.151-0.151-0.359-0.244-0.589-0.244-0.46 0-0.833 0.373-0.833 0.833 0 0.23 0.093 0.438 0.244 0.589v0z"></path>
</svg>
