<!-- Generated by IcoMoon.io -->
<svg version="1.1" xmlns="http://www.w3.org/2000/svg" width="32" height="32" viewBox="0 0 32 32">
<title>local-language-filled</title>
<path d="M14.858 2.286c-0.631 0-1.143 0.512-1.143 1.143s0.512 1.143 1.143 1.143v0h5.713v2.857c0 0.946-0.361 1.619-0.914 2.077-0.578 0.477-1.446 0.781-2.514 0.781-0.631 0-1.143 0.512-1.143 1.143s0.512 1.143 1.143 1.143v0c1.48 0 2.899-0.419 3.97-1.304 1.093-0.905 1.744-2.232 1.744-3.839v-4c0-0.631-0.512-1.143-1.143-1.143v0h-6.856zM12.489 8.703c-0.176-0.419-0.583-0.709-1.057-0.709s-0.882 0.289-1.054 0.701l-0.003 0.008-8.002 19.433c-0.054 0.129-0.086 0.278-0.086 0.435 0 0.631 0.512 1.143 1.143 1.143 0.474 0 0.881-0.289 1.054-0.7l0.003-0.008 2.065-5.017h9.76l2.065 5.017c0.176 0.419 0.583 0.708 1.057 0.708 0.631 0 1.143-0.512 1.143-1.143 0-0.157-0.032-0.307-0.089-0.443l0.003 0.008-2.24-5.44c-0.028-0.205-0.107-0.388-0.224-0.541l0.002 0.003-5.541-13.455zM15.37 21.705h-7.878l3.939-9.566 3.938 9.566zM25.143 2.286c0.631 0 1.143 0.512 1.143 1.143v0 5.714h2.286c0.631 0 1.143 0.512 1.143 1.143s-0.512 1.143-1.143 1.143v0h-2.286v10.286c0 0.631-0.512 1.143-1.143 1.143s-1.143-0.512-1.143-1.143v0-18.286c0-0.631 0.512-1.143 1.143-1.143v0z"></path>
</svg>
