<!-- Generated by IcoMoon.io -->
<svg version="1.1" xmlns="http://www.w3.org/2000/svg" width="32" height="32" viewBox="0 0 32 32">
<title>location-filled</title>
<path d="M24.209 22.509l-1.583 1.565c-1.166 1.145-2.68 2.617-4.541 4.416-1.163 1.125-3.008 1.124-4.171-0l-4.655-4.528c-0.585-0.574-1.075-1.059-1.469-1.453-4.534-4.534-4.534-11.885 0-16.419s11.885-4.534 16.419 0c4.534 4.534 4.534 11.885 0 16.419zM19.334 14.666c0-1.841-1.493-3.334-3.334-3.334s-3.334 1.492-3.334 3.334c0 1.841 1.492 3.334 3.334 3.334s3.334-1.493 3.334-3.334z"></path>
</svg>
