<!-- Generated by IcoMoon.io -->
<svg version="1.1" xmlns="http://www.w3.org/2000/svg" width="32" height="32" viewBox="0 0 32 32">
<title>location-filled</title>
<path d="M26.009 19.32c0.834-1.535 1.324-3.362 1.324-5.303 0-0.006 0-0.012 0-0.018v0.001c0-6.259-5.074-11.333-11.333-11.333s-11.333 5.074-11.333 11.333c0 0.006-0 0.013-0 0.019 0 2.784 1.008 5.333 2.68 7.3l-0 0c0.005 0.004 0.009 0.009 0.012 0.013h-0.025l6.725 7.14c0.487 0.517 1.177 0.838 1.941 0.838s1.454-0.322 1.94-0.837l0.001-0.001 6.726-7.14h-0.025l0.011-0.013 0.001-0.001c0.048-0.057 0.096-0.115 0.143-0.173 0.438-0.534 0.84-1.132 1.184-1.767l0.030-0.060zM16.003 18.333c-2.209 0-4-1.791-4-4s1.791-4 4-4v0c2.209 0 4 1.791 4 4s-1.791 4-4 4v0z"></path>
</svg>
