<!-- Generated by IcoMoon.io -->
<svg version="1.1" xmlns="http://www.w3.org/2000/svg" width="32" height="32" viewBox="0 0 32 32">
<title>lock-shield-filled</title>
<path d="M13.333 2.667c2.945 0 5.333 2.388 5.333 5.333v2.667h3.333c1.105 0 2 0.895 2 2l0.001 2c-0.425 0-0.85 0.146-1.195 0.438l-0.143 0.134c-1.082 1.127-2.207 1.65-3.462 1.65-1.043 0-1.867 0.858-1.867 1.889v3.335c0 3.165 1.231 5.626 3.574 7.223l-16.24-0.002c-1.105 0-2-0.895-2-2v-14.667c0-1.105 0.895-2 2-2h3.333v-2.667c0-2.946 2.388-5.333 5.333-5.333zM24.378 16.163c1.323 1.38 2.789 2.059 4.422 2.059 0.258 0 0.473 0.19 0.523 0.444l0.011 0.112v3.335c0 3.576-1.751 6.007-5.165 7.192-0.109 0.038-0.228 0.038-0.337 0-3.3-1.146-5.046-3.456-5.159-6.839l-0.006-0.354v-3.335c0-0.307 0.239-0.555 0.533-0.555 1.631 0 3.098-0.679 4.424-2.060 0.208-0.217 0.546-0.217 0.755 0zM13.333 18c-1.105 0-2 0.895-2 2s0.895 2 2 2c1.105 0 2-0.895 2-2s-0.895-2-2-2zM13.333 5.333c-1.473 0-2.667 1.194-2.667 2.667v2.667h5.333v-2.667c0-1.473-1.194-2.667-2.667-2.667z"></path>
</svg>
