<!-- Generated by IcoMoon.io -->
<svg version="1.1" xmlns="http://www.w3.org/2000/svg" width="32" height="32" viewBox="0 0 32 32">
<title>lock-multiple-filled</title>
<path d="M9.667 7.333c0-2.577 2.089-4.667 4.667-4.667s4.667 2.089 4.667 4.667v0 1.333h1.333c1.657 0 3 1.343 3 3v0 10c0 1.657-1.343 3-3 3v0h-12c-1.657 0-3-1.343-3-3v0-10c0-1.657 1.343-3 3-3v0h1.333v-1.333zM17 7.333c0-1.473-1.194-2.667-2.667-2.667s-2.667 1.194-2.667 2.667v0 1.333h5.333v-1.333zM14.333 18.333c0.92 0 1.667-0.746 1.667-1.667s-0.746-1.667-1.667-1.667v0c-0.92 0-1.667 0.746-1.667 1.667s0.746 1.667 1.667 1.667v0zM10.171 26c0.424 1.175 1.53 2 2.828 2 0 0 0.001 0 0.001 0h8c3.13 0 5.667-2.537 5.667-5.667v0-6c0-0 0-0.001 0-0.001 0-1.298-0.825-2.404-1.979-2.822l-0.021-0.007v8.829c0 2.025-1.642 3.667-3.667 3.667v0h-10.829z"></path>
</svg>
