<!-- Generated by IcoMoon.io -->
<svg version="1.1" xmlns="http://www.w3.org/2000/svg" width="32" height="32" viewBox="0 0 32 32">
<title>lock-open-filled</title>
<path d="M16 2.668c2.278 0 4.281 1.442 5.028 3.555 0.245 0.694-0.119 1.456-0.813 1.701-0.645 0.228-1.348-0.070-1.641-0.669l-0.060-0.144c-0.373-1.056-1.375-1.777-2.514-1.777-1.405 0-2.556 1.087-2.658 2.466l-0.007 0.199v2.665l10.332 0.001c1.588 0 2.887 1.234 2.993 2.795l0.007 0.205v12.662c0 1.588-1.234 2.888-2.795 2.993l-0.205 0.007h-15.333c-1.588 0-2.888-1.233-2.993-2.795l-0.007-0.205v-12.662c0-1.588 1.234-2.887 2.795-2.993l0.205-0.007 2.335-0.001 0-2.665c0-2.945 2.387-5.332 5.332-5.332zM16 17.999c-1.104 0-1.998 0.895-1.998 1.998s0.895 1.998 1.998 1.998 1.998-0.895 1.998-1.998c0-1.104-0.895-1.998-1.998-1.998z"></path>
</svg>
