<!-- Generated by IcoMoon.io -->
<svg version="1.1" xmlns="http://www.w3.org/2000/svg" width="32" height="32" viewBox="0 0 32 32">
<title>lock-closed-filled</title>
<path d="M10 8v2h-1.5c-1.933 0-3.5 1.567-3.5 3.5v0 13c0 1.933 1.567 3.5 3.5 3.5v0h15c1.933 0 3.5-1.567 3.5-3.5v0-13c0-1.933-1.567-3.5-3.5-3.5v0h-1.5v-2c0-3.314-2.686-6-6-6s-6 2.686-6 6v0zM16 4c2.209 0 4 1.791 4 4v0 2h-8v-2c0-2.209 1.791-4 4-4v0zM16 22c-1.105 0-2-0.895-2-2s0.895-2 2-2v0c1.105 0 2 0.895 2 2s-0.895 2-2 2v0z"></path>
</svg>
