<!-- Generated by IcoMoon.io -->
<svg version="1.1" xmlns="http://www.w3.org/2000/svg" width="32" height="32" viewBox="0 0 32 32">
<title>lottery-filled</title>
<path d="M20.746 5.565c-1.971 0.486-3.654 1.702-4.746 3.344-1.092-1.643-2.776-2.859-4.746-3.344 0.885-1.721 2.678-2.899 4.746-2.899s3.862 1.177 4.746 2.899z"></path>
<path d="M5.409 18.723c0.581-4.87 4.444-8.733 9.314-9.314-1.212-1.662-3.175-2.742-5.39-2.742-3.682 0-6.667 2.985-6.667 6.667 0 2.215 1.080 4.177 2.742 5.39z"></path>
<path d="M26.591 18.723c1.662-1.212 2.742-3.175 2.742-5.39 0-3.682-2.985-6.667-6.667-6.667-2.215 0-4.177 1.080-5.39 2.742 4.87 0.581 8.733 4.444 9.314 9.314z"></path>
<path d="M16 29.333c5.155 0 9.333-4.179 9.333-9.333s-4.179-9.333-9.333-9.333c-5.155 0-9.333 4.179-9.333 9.333s4.179 9.333 9.333 9.333zM12.667 17.667c0-0.552 0.448-1 1-1h5.667c0.417 0 0.79 0.258 0.936 0.648s0.036 0.829-0.276 1.103l-0.001 0.001-0.016 0.015c-0.015 0.013-0.039 0.036-0.071 0.066-0.065 0.061-0.162 0.156-0.283 0.282-0.243 0.253-0.582 0.63-0.95 1.115-0.741 0.975-1.584 2.361-2.040 4.033-0.145 0.533-0.695 0.847-1.228 0.702s-0.847-0.695-0.702-1.228c0.544-1.994 1.535-3.609 2.377-4.717l0.015-0.020h-3.427c-0.552 0-1-0.448-1-1z"></path>
</svg>
