<!-- Generated by IcoMoon.io -->
<svg version="1.1" xmlns="http://www.w3.org/2000/svg" width="32" height="32" viewBox="0 0 32 32">
<title>lottery-filled</title>
<path d="M20.747 5.565c-1.991 0.505-3.645 1.702-4.728 3.315l-0.018 0.029c-1.101-1.642-2.756-2.839-4.691-3.332l-0.055-0.012c0.903-1.736 2.689-2.902 4.747-2.902s3.843 1.165 4.733 2.872l0.014 0.029zM5.409 18.723c0.607-4.88 4.434-8.706 9.261-9.308l0.052-0.005c-1.227-1.668-3.181-2.738-5.386-2.738-3.682 0-6.667 2.985-6.667 6.667 0 2.205 1.070 4.16 2.72 5.373l0.018 0.013zM26.591 18.723c1.668-1.227 2.738-3.181 2.738-5.386 0-3.682-2.985-6.667-6.667-6.667-2.205 0-4.16 1.070-5.373 2.72l-0.013 0.018c4.881 0.607 8.708 4.434 9.309 9.263l0.005 0.052zM16 29.333c5.155 0 9.333-4.179 9.333-9.333s-4.179-9.333-9.333-9.333v0c-5.155 0-9.333 4.179-9.333 9.333s4.179 9.333 9.333 9.333v0zM12.667 17.667c0-0.552 0.448-1 1-1v0h5.667c0.552 0 0.999 0.448 0.999 1 0 0.299-0.131 0.567-0.338 0.75l-0.001 0.001v0.001l-0.017 0.015-0.071 0.067c-0.437 0.427-0.841 0.883-1.211 1.367l-0.022 0.030c-0.743 0.975-1.584 2.36-2.040 4.032-0.119 0.429-0.506 0.738-0.965 0.738-0.553 0-1-0.448-1-1 0-0.093 0.013-0.184 0.037-0.27l-0.002 0.007c0.544-1.995 1.536-3.609 2.377-4.717l0.015-0.020h-3.427c-0.552 0-1-0.448-1-1v0z"></path>
</svg>
