<!-- Generated by IcoMoon.io -->
<svg version="1.1" xmlns="http://www.w3.org/2000/svg" width="32" height="32" viewBox="0 0 32 32">
<title>luggage-filled</title>
<path d="M10.667 2.5c0-0.46 0.373-0.833 0.833-0.833h9c0.46 0 0.833 0.373 0.833 0.833s-0.373 0.833-0.833 0.833v0h-0.833v1.333h2.833c2.301 0 4.167 1.865 4.167 4.167v0 15c0 2.301-1.865 4.167-4.167 4.167v0h-0.183c0.011 0.053 0.017 0.109 0.017 0.167v1c0 0.46-0.373 0.833-0.833 0.833s-0.833-0.373-0.833-0.833v0-1c0-0.057 0.006-0.113 0.017-0.167h-9.7c0.011 0.053 0.017 0.109 0.017 0.167v1c0 0.46-0.373 0.833-0.833 0.833s-0.833-0.373-0.833-0.833v0-1c0-0.058 0.006-0.115 0.017-0.169-2.236-0.083-4.017-1.915-4.017-4.164 0 0 0 0 0 0v0-15c0-2.301 1.865-4.167 4.167-4.167v0h2.5v-1.333h-0.5c-0.46 0-0.833-0.373-0.833-0.833zM13.667 3.333v1.333h4.333v-1.333h-4.333zM10.833 12c-0.46 0-0.833 0.373-0.833 0.833s0.373 0.833 0.833 0.833v0h10.333c0.46 0 0.833-0.373 0.833-0.833s-0.373-0.833-0.833-0.833v0h-10.333z"></path>
</svg>
