<!-- Generated by IcoMoon.io -->
<svg version="1.1" xmlns="http://www.w3.org/2000/svg" width="32" height="32" viewBox="0 0 32 32">
<title>mail-inbox-all-filled</title>
<path d="M23.667 4c2.393 0 4.333 1.94 4.333 4.333v0 15.333c0 2.393-1.94 4.333-4.333 4.333v0h-15.333c-2.393 0-4.333-1.94-4.333-4.333v0-15.333c0-2.393 1.94-4.333 4.333-4.333v0h15.333zM23.667 6h-15.333c-1.289 0-2.333 1.045-2.333 2.333v0 9h6c0.504 0 0.921 0.373 0.99 0.859l0.001 0.005 0.009 0.136c0 0.002 0 0.004 0 0.006 0 1.657 1.343 3 3 3 1.587 0 2.885-1.232 2.993-2.791l0-0.009 0.007-0.205c0-0.552 0.448-1 1-1v0h6v-9c-0-1.221-0.939-2.224-2.134-2.325l-0.009-0.001-0.191-0.008zM9 12.667h14c0.552 0 1 0.448 1 1 0 0.504-0.373 0.921-0.858 0.99l-0.005 0.001-0.136 0.009h-14c-0.552-0-1-0.448-1-1 0-0.504 0.373-0.921 0.858-0.99l0.005-0.001 0.136-0.009zM9 8.667h14c0.552 0 1 0.448 1 1 0 0.504-0.373 0.921-0.858 0.99l-0.005 0.001-0.136 0.009h-14c-0.552-0-1-0.448-1-1 0-0.504 0.373-0.921 0.858-0.99l0.005-0.001 0.136-0.009z"></path>
</svg>
