<!-- Generated by IcoMoon.io -->
<svg version="1.1" xmlns="http://www.w3.org/2000/svg" width="32" height="32" viewBox="0 0 32 32">
<title>mail-inbox-arrow-right-filled</title>
<path d="M13.999 5.333c-0.249 0.577-0.446 1.25-0.558 1.951l-0.006 0.049h-5.101c-1.289 0-2.333 1.045-2.333 2.333v0 9h6c0.504 0 0.921 0.373 0.99 0.859l0.001 0.005 0.009 0.136c0 1.657 1.343 3 3 3s3-1.343 3-3v0c0-0.552 0.448-1 1-1v0h6l0.001-2.311c0.765-0.403 1.422-0.881 2.003-1.439l-0.003 0.003-0.001 10.080c0 2.393-1.94 4.333-4.333 4.333v0h-15.333c-2.393 0-4.333-1.94-4.333-4.333v0-15.333c0-2.393 1.94-4.333 4.333-4.333v0h5.665zM22 1.333c4.050 0 7.333 3.283 7.333 7.333s-3.283 7.333-7.333 7.333v0c-4.050 0-7.333-3.283-7.333-7.333s3.283-7.333 7.333-7.333v0zM22.288 4.785l-0.093 0.076-0.076 0.093c-0.074 0.106-0.118 0.237-0.118 0.379s0.044 0.273 0.119 0.381l-0.001-0.002 0.076 0.093 2.195 2.195h-7.056l-0.12 0.011c-0.273 0.051-0.485 0.263-0.535 0.532l-0.001 0.004-0.011 0.12 0.011 0.12c0.051 0.273 0.263 0.485 0.532 0.535l0.004 0.001 0.12 0.011h7.056l-2.195 2.195-0.076 0.093c-0.073 0.105-0.116 0.236-0.116 0.376 0 0.368 0.298 0.667 0.667 0.667 0.141 0 0.271-0.044 0.379-0.118l-0.002 0.001 0.093-0.076 3.388-3.397 0.044-0.064 0.045-0.089 0.028-0.084 0.020-0.109 0.003-0.061-0.004-0.071-0.019-0.1-0.040-0.111-0.056-0.099-0.060-0.075-3.349-3.351-0.093-0.076c-0.106-0.074-0.237-0.118-0.379-0.118s-0.273 0.044-0.381 0.119l0.002-0.001z"></path>
</svg>
