<!-- Generated by IcoMoon.io -->
<svg version="1.1" xmlns="http://www.w3.org/2000/svg" width="32" height="32" viewBox="0 0 32 32">
<title>mail-multiple-filled</title>
<path d="M26.286 10.981v9.305c0 0 0 0 0 0 0 1.977-1.545 3.594-3.494 3.708l-0.010 0-0.21 0.006h-15.429c-0 0-0 0-0 0-1.977 0-3.594-1.545-3.708-3.494l-0-0.010-0.006-0.21v-9.305l11.031 5.778c0.115 0.062 0.252 0.098 0.398 0.098s0.282-0.036 0.402-0.1l-0.005 0.002 11.031-5.778zM7.143 5.714h15.429c0 0 0 0 0 0 1.92 0 3.5 1.457 3.694 3.326l0.001 0.016-11.41 5.977-11.41-5.977c0.188-1.812 1.655-3.228 3.473-3.336l0.010-0 0.213-0.006zM6.871 25.143c0.67 1.037 1.82 1.714 3.128 1.714 0.001 0 0.002 0 0.002 0h13.143c3.314 0 6-2.686 6-6v-8.571c0-0 0-0.001 0-0.002 0-1.309-0.677-2.459-1.7-3.121l-0.015-0.009v11.703c0 2.367-1.919 4.286-4.286 4.286-0 0-0.001 0-0.001 0h-16.274z"></path>
</svg>
