<!-- Generated by IcoMoon.io -->
<svg version="1.1" xmlns="http://www.w3.org/2000/svg" width="32" height="32" viewBox="0 0 32 32">
<title>mail-shield-filled</title>
<path d="M28.8 4.198c-0.598-0.087-1.137-0.242-1.642-0.459l0.042 0.016c-0.97-0.406-1.883-1.059-2.746-1.96-0.114-0.12-0.275-0.195-0.453-0.195s-0.339 0.075-0.453 0.195l-0 0c-1.592 1.658-3.352 2.472-5.309 2.472-0.352 0-0.64 0.298-0.64 0.666v4.002l0.006 0.426c0.067 1.995 0.608 3.68 1.61 5.040 0.44 0.595 0.968 1.13 1.584 1.6 0.837 0.64 1.837 1.163 2.997 1.566 0.061 0.021 0.13 0.034 0.203 0.034s0.143-0.012 0.208-0.035l-0.004 0.001c4.094-1.424 6.197-4.341 6.197-8.632v-4l-0.013-0.136c-0.057-0.301-0.315-0.526-0.627-0.531h-0.001c-0.325 0-0.645-0.022-0.96-0.069zM19.685 17.16l0.144 0.112c0.992 0.758 2.149 1.355 3.443 1.805 0.472 0.165 0.984 0.165 1.456 0 1.584-0.55 2.957-1.32 4.072-2.326v6.45c0 2.209-1.791 4-4 4v0h-17.6c-2.209 0-4-1.791-4-4v0-11.403l12.395 7.293c0.116 0.069 0.256 0.11 0.406 0.11s0.29-0.041 0.409-0.112l-0.004 0.002 3.278-1.93zM16 6.4v2.549l0.008 0.451v0.013c0.075 2.261 0.694 4.272 1.92 5.936 0.171 0.232 0.352 0.454 0.544 0.669l-2.472 1.454-12.776-7.515c0.231-2.010 1.922-3.557 3.975-3.557 0 0 0 0 0.001 0h8.8z"></path>
</svg>
