<!-- Generated by IcoMoon.io -->
<svg version="1.1" xmlns="http://www.w3.org/2000/svg" width="32" height="32" viewBox="0 0 32 32">
<title>mail-inbox-all-filled</title>
<path d="M23.667 4c2.393 0 4.333 1.94 4.333 4.333v15.333c0 2.393-1.94 4.333-4.333 4.333h-15.333c-2.393 0-4.333-1.94-4.333-4.333v-15.333c0-2.393 1.94-4.333 4.333-4.333h15.333zM23.667 6h-15.333c-1.289 0-2.333 1.045-2.333 2.333v9h6c0.506 0 0.925 0.376 0.991 0.864l0.009 0.136c0 1.657 1.343 3 3 3 1.588 0 2.887-1.234 2.993-2.795l0.007-0.205c0-0.552 0.448-1 1-1h6v-9c0-1.224-0.943-2.228-2.142-2.326l-0.191-0.008zM9 12.667h14c0.552 0 1 0.448 1 1 0 0.506-0.376 0.925-0.864 0.991l-0.136 0.009h-14c-0.552 0-1-0.448-1-1 0-0.506 0.376-0.925 0.864-0.991l0.136-0.009zM9 8.667h14c0.552 0 1 0.448 1 1 0 0.506-0.376 0.925-0.864 0.991l-0.136 0.009h-14c-0.552 0-1-0.448-1-1 0-0.506 0.376-0.925 0.864-0.991l0.136-0.009z"></path>
</svg>
