<!-- Generated by IcoMoon.io -->
<svg version="1.1" xmlns="http://www.w3.org/2000/svg" width="32" height="32" viewBox="0 0 32 32">
<title>mail-add-filled</title>
<path d="M30.667 8.667c0-4.050-3.283-7.333-7.333-7.333s-7.333 3.283-7.333 7.333v0c0 4.050 3.283 7.333 7.333 7.333s7.333-3.283 7.333-7.333v0zM24 9.333l0.001 3.339c0 0.368-0.298 0.667-0.667 0.667s-0.667-0.298-0.667-0.667v0-3.339h-3.34c-0.368 0-0.667-0.298-0.667-0.667s0.298-0.667 0.667-0.667v0h3.339v-3.333c0-0.368 0.298-0.667 0.667-0.667s0.667 0.298 0.667 0.667v0 3.333h3.329c0.368 0 0.667 0.298 0.667 0.667s-0.298 0.667-0.667 0.667v0h-3.329zM23.333 17.333c0.003 0 0.007 0 0.011 0 2.327 0 4.438-0.92 5.991-2.416l-0.003 0.003v7.413c0 0 0 0 0 0 0 2.307-1.803 4.193-4.076 4.326l-0.012 0.001-0.245 0.007h-18c-0 0-0 0-0 0-2.307 0-4.193-1.803-4.326-4.076l-0.001-0.012-0.007-0.245v-10.856l12.869 6.741c0.135 0.072 0.294 0.114 0.464 0.114s0.329-0.042 0.469-0.117l-0.005 0.003 3.223-1.688c1.066 0.507 2.316 0.803 3.636 0.803 0.004 0 0.008 0 0.011 0h-0.001zM7 5.333h8.331c-0.42 0.981-0.664 2.123-0.664 3.321 0 0.004 0 0.008 0 0.013v-0.001c0 2.657 1.196 5.035 3.077 6.624l-1.744 0.913-13.312-6.973c0.22-2.114 1.931-3.765 4.052-3.89l0.012-0.001 0.248-0.007z"></path>
</svg>
