<!-- Generated by IcoMoon.io -->
<svg version="1.1" xmlns="http://www.w3.org/2000/svg" width="32" height="32" viewBox="0 0 32 32">
<title>mail-inbox-add-filled</title>
<path d="M29.333 8.667c0-4.050-3.283-7.333-7.333-7.333s-7.333 3.283-7.333 7.333c0 4.050 3.283 7.333 7.333 7.333s7.333-3.283 7.333-7.333zM22.667 9.333l0.001 3.338c0 0.368-0.298 0.667-0.667 0.667s-0.667-0.298-0.667-0.667l-0.001-3.338h-3.339c-0.368 0-0.667-0.298-0.667-0.667s0.299-0.667 0.667-0.667h3.339l-0.001-3.334c0-0.368 0.299-0.667 0.667-0.667s0.667 0.298 0.667 0.667l0.001 3.334h3.337c0.368 0 0.667 0.298 0.667 0.667s-0.298 0.667-0.667 0.667h-3.337z"></path>
<path d="M26 18.667v-2.31c0.735-0.383 1.408-0.868 2-1.437v10.079c0 2.393-1.94 4.333-4.333 4.333h-15.333c-2.393 0-4.333-1.94-4.333-4.333v-15.333c0-2.393 1.94-4.333 4.333-4.333h5.664c-0.264 0.632-0.455 1.302-0.562 2h-5.102c-1.289 0-2.333 1.045-2.333 2.333v9h6c0.506 0 0.925 0.376 0.991 0.864l0.009 0.136c0 1.657 1.343 3 3 3s3-1.343 3-3c0-0.552 0.448-1 1-1h6z"></path>
</svg>
