<!-- Generated by IcoMoon.io -->
<svg version="1.1" xmlns="http://www.w3.org/2000/svg" width="32" height="32" viewBox="0 0 32 32">
<title>mail-edit-filled</title>
<path d="M29.333 15.013v-4.869l-12.869 6.741c-0.135 0.072-0.294 0.114-0.464 0.114s-0.329-0.042-0.469-0.117l0.005 0.003-12.869-6.741v10.856l0.007 0.245c0.134 2.285 2.019 4.088 4.326 4.088 0 0 0 0 0 0h8.623c0.245-0.563 0.593-1.076 1.031-1.513l7.871-7.871c0.793-0.793 1.889-1.284 3.099-1.284 0.618 0 1.206 0.128 1.739 0.358l-0.028-0.011zM25 4l-18.248 0.007c-2.134 0.126-3.845 1.778-4.062 3.873l-0.002 0.019 13.312 6.973 13.312-6.973c-0.228-2.199-2.071-3.899-4.311-3.899-0 0-0 0-0.001 0h0zM25.467 16.893l-7.871 7.869c-0.446 0.446-0.774 1.008-0.936 1.638l-0.005 0.025-0.611 2.441c-0.027 0.106-0.043 0.227-0.043 0.352 0 0.8 0.649 1.449 1.449 1.449 0.125 0 0.247-0.016 0.363-0.046l-0.010 0.002 2.44-0.609c0.655-0.167 1.218-0.496 1.664-0.943l7.869-7.869c0.522-0.546 0.843-1.288 0.843-2.104 0-1.683-1.365-3.048-3.048-3.048-0.817 0-1.558 0.321-2.105 0.844l0.001-0.001z"></path>
</svg>
