<!-- Generated by IcoMoon.io -->
<svg version="1.1" xmlns="http://www.w3.org/2000/svg" width="32" height="32" viewBox="0 0 32 32">
<title>mail-pause-filled</title>
<path d="M23.2 17.6c2.128 0 4.080-0.755 5.6-2.011v7.611c0 2.209-1.791 4-4 4v0h-17.6c-2.209 0-4-1.791-4-4v0-11.403l12.395 7.293c0.116 0.069 0.256 0.11 0.406 0.11s0.29-0.041 0.409-0.112l-0.004 0.002 3.568-2.099c0.952 0.386 2.057 0.61 3.214 0.61 0.004 0 0.008 0 0.012 0h-0.001zM7.2 6.4h7.531c-0.212 0.72-0.334 1.547-0.334 2.402 0 3.036 1.539 5.713 3.879 7.293l0.031 0.020-2.307 1.357-12.776-7.515c0.231-2.010 1.922-3.557 3.975-3.557 0 0 0 0 0.001 0h-0zM23.2 16c3.976 0 7.2-3.224 7.2-7.2s-3.224-7.2-7.2-7.2v0c-3.976 0-7.2 3.224-7.2 7.2s3.224 7.2 7.2 7.2v0zM21.6 5.6v6.4c0 0.442-0.358 0.8-0.8 0.8s-0.8-0.358-0.8-0.8v0-6.4c0-0.442 0.358-0.8 0.8-0.8s0.8 0.358 0.8 0.8v0zM26.4 5.6v6.4c0 0.442-0.358 0.8-0.8 0.8s-0.8-0.358-0.8-0.8v0-6.4c0-0.442 0.358-0.8 0.8-0.8s0.8 0.358 0.8 0.8v0z"></path>
</svg>
