<!-- Generated by IcoMoon.io -->
<svg version="1.1" xmlns="http://www.w3.org/2000/svg" width="32" height="32" viewBox="0 0 32 32">
<title>mail-multiple-filled</title>
<path d="M28.001 10.015c1.202 0.77 1.999 2.118 1.999 3.652v8c0 3.866-3.134 7-7 7h-12c-1.534 0-2.882-0.797-3.652-1.999l15.652-0.001c2.761 0 5-2.239 5-5l0.001-11.652zM26.667 10.813v10.187c0 2.311-1.809 4.199-4.087 4.327l-0.246 0.007h-15.333c-2.311 0-4.199-1.809-4.326-4.087l-0.007-0.246v-10.187l11.534 6.072c0.291 0.153 0.64 0.153 0.931 0l11.534-6.072zM7 5.333h15.333c2.033 0 3.739 1.4 4.207 3.288l-11.873 6.248-11.873-6.248c0.448-1.81 2.034-3.171 3.954-3.281l0.252-0.007z"></path>
</svg>
