<!-- Generated by IcoMoon.io -->
<svg version="1.1" xmlns="http://www.w3.org/2000/svg" width="32" height="32" viewBox="0 0 32 32">
<title>mail-attach-filled</title>
<path d="M23.322 17.219l5.241-5.249v10.594c-0 1.976-1.544 3.591-3.492 3.706l-0.010 0-0.211 0.006h-17.707c-1.976-0-3.592-1.544-3.707-3.492l-0-0.010-0.007-0.21v-10.999l12.171 6.331c0.115 0.061 0.251 0.097 0.395 0.097s0.281-0.036 0.4-0.099l-0.005 0.002 1.641-0.854c0.668 0.76 1.642 1.237 2.727 1.237 1.001 0 1.908-0.406 2.564-1.062v0zM7.143 5.714h12.882l-3.443 3.44c-0.362 0.362-0.585 0.862-0.585 1.414 0 1.037 0.789 1.89 1.8 1.99l0.008 0.001c-0.419 0.584-0.67 1.312-0.67 2.099 0 0.308 0.038 0.606 0.11 0.891l-0.005-0.025-1.243 0.647-12.568-6.535v-0.21c0-1.977 1.545-3.592 3.493-3.707l0.010-0 0.21-0.006zM25.090 4.686l-6.489 6.488z"></path>
<path d="M25.090 4.686c0.43-0.43 1.023-0.695 1.679-0.695 1.311 0 2.374 1.063 2.374 2.374 0 0.656-0.266 1.249-0.695 1.679v0l-7.145 7.158c-0.137 0.13-0.323 0.21-0.528 0.21-0.424 0-0.768-0.344-0.768-0.768 0-0.205 0.080-0.391 0.211-0.528l-0 0 5.81-5.797c0.162-0.156 0.262-0.375 0.262-0.617 0-0.473-0.384-0.857-0.857-0.857-0.242 0-0.46 0.1-0.616 0.261l-0 0-5.81 5.797c-0.421 0.444-0.68 1.045-0.68 1.706 0 1.371 1.111 2.482 2.482 2.482 0.661 0 1.262-0.259 1.707-0.68l-0.001 0.001 7.146-7.158c0.739-0.74 1.197-1.762 1.197-2.89 0-2.258-1.83-4.088-4.088-4.088-1.129 0-2.152 0.458-2.891 1.198l-6.488 6.488c-0.168 0.157-0.273 0.38-0.273 0.627 0 0.473 0.384 0.857 0.857 0.857 0.247 0 0.47-0.105 0.627-0.272l0-0.001 6.489-6.488z"></path>
</svg>
