<!-- Generated by IcoMoon.io -->
<svg version="1.1" xmlns="http://www.w3.org/2000/svg" width="32" height="32" viewBox="0 0 32 32">
<title>mail-dismiss-filled</title>
<path d="M30.857 8.571c0 4.103-3.326 7.429-7.429 7.429s-7.429-3.326-7.429-7.429v0c0-4.103 3.326-7.429 7.429-7.429s7.429 3.326 7.429 7.429v0zM20.405 4.738c-0.104-0.104-0.247-0.168-0.405-0.168-0.316 0-0.572 0.256-0.572 0.572 0 0.158 0.064 0.301 0.168 0.405l3.025 3.024-3.025 3.024c-0.104 0.104-0.168 0.247-0.168 0.405 0 0.316 0.256 0.572 0.572 0.572 0.158 0 0.301-0.064 0.405-0.168l3.024-3.025 3.024 3.025c0.104 0.104 0.247 0.168 0.405 0.168 0.316 0 0.572-0.256 0.572-0.572 0-0.158-0.064-0.301-0.168-0.405l-3.025-3.024 3.025-3.024c0.104-0.104 0.168-0.247 0.168-0.405 0-0.316-0.256-0.572-0.572-0.572-0.158 0-0.301 0.064-0.405 0.168l-3.024 3.025-3.024-3.025zM23.429 17.143c0.004 0 0.008 0 0.013 0 1.935 0 3.72-0.644 5.152-1.73l-0.021 0.015v7.143c0 0 0 0 0 0 0 1.977-1.545 3.593-3.493 3.708l-0.010 0-0.211 0.006h-17.714c-0 0-0 0-0 0-1.977 0-3.594-1.545-3.708-3.494l-0-0.010-0.006-0.21v-11.001l12.176 6.333c0.115 0.061 0.251 0.097 0.395 0.097s0.281-0.036 0.4-0.099l-0.005 0.002 3.2-1.663c1.113 0.569 2.428 0.903 3.821 0.903 0.004 0 0.009 0 0.013 0h-0.001zM7.143 5.714h8.202c-0.309 0.848-0.488 1.827-0.488 2.848 0 0.003 0 0.006 0 0.009v-0c0 0.003 0 0.006 0 0.009 0 2.641 1.197 5.003 3.079 6.572l0.014 0.011-1.95 1.014-12.571-6.538v-0.21c0-0 0-0 0-0 0-1.977 1.545-3.594 3.494-3.708l0.010-0 0.21-0.006z"></path>
</svg>
