<!-- Generated by IcoMoon.io -->
<svg version="1.1" xmlns="http://www.w3.org/2000/svg" width="32" height="32" viewBox="0 0 32 32">
<title>mail-copy-filled</title>
<path d="M4 10.015c-1.21 0.781-2 2.123-2 3.649 0 0.001 0 0.002 0 0.003v-0 8c0 3.867 3.133 7 7 7h12c1.533 0 2.881-0.797 3.652-2h-15.652c-2.761 0-5-2.239-5-5v0-11.652zM5.333 10.813v10.187c0 0 0 0 0 0 0 2.307 1.803 4.193 4.076 4.326l0.012 0.001 0.245 0.007h15.333c0 0 0 0 0 0 2.307 0 4.193-1.803 4.326-4.076l0.001-0.012 0.007-0.245v-10.187l-11.533 6.072c-0.135 0.073-0.296 0.116-0.467 0.116s-0.331-0.043-0.472-0.118l0.005 0.003-11.533-6.072zM25 5.333h-15.333c-0 0-0 0-0 0-2.022 0-3.721 1.385-4.2 3.258l-0.006 0.030 11.873 6.248 11.873-6.248c-0.465-1.821-2.038-3.165-3.943-3.279l-0.012-0.001-0.252-0.008z"></path>
</svg>
