<!-- Generated by IcoMoon.io -->
<svg version="1.1" xmlns="http://www.w3.org/2000/svg" width="32" height="32" viewBox="0 0 32 32">
<title>mail-inbox-arrow-down-filled</title>
<path d="M25.6 16.64v0.96h-5.6c0 0 0 0 0 0-0.441 0-0.798 0.356-0.8 0.797v0.021l-0.006 0.096c-0.040 0.563-0.186 1.083-0.42 1.552l0.011-0.024c-0.212 0.437-0.524 0.797-0.906 1.061l-0.009 0.006c-0.416 0.278-1.008 0.491-1.869 0.491s-1.451-0.213-1.869-0.491c-0.392-0.27-0.703-0.63-0.908-1.051l-0.007-0.016c-0.237-0.473-0.388-1.028-0.416-1.615l-0-0.009v-0.018c0-0.442-0.358-0.8-0.8-0.8v0h-5.6v-6.4c0-1.767 1.433-3.2 3.2-3.2v0h3.235c0.055-0.594 0.159-1.138 0.311-1.662l-0.015 0.062h-3.531c-2.651 0-4.8 2.149-4.8 4.8v0 12.8c0 2.651 2.149 4.8 4.8 4.8v0h12.8c2.651 0 4.8-2.149 4.8-4.8v0-8.411c-0.467 0.388-0.991 0.737-1.551 1.028l-0.049 0.023zM21.6 16c3.976 0 7.2-3.224 7.2-7.2s-3.224-7.2-7.2-7.2v0c-3.976 0-7.2 3.224-7.2 7.2s3.224 7.2 7.2 7.2v0zM17.834 9.366c-0.145-0.145-0.235-0.345-0.235-0.566 0-0.442 0.359-0.801 0.801-0.801 0.221 0 0.421 0.090 0.566 0.235v0l1.834 1.835v-4.469c0-0.442 0.358-0.8 0.8-0.8s0.8 0.358 0.8 0.8v0 4.469l1.834-1.835c0.145-0.145 0.345-0.235 0.566-0.235 0.442 0 0.801 0.359 0.801 0.801 0 0.221-0.090 0.421-0.235 0.566v0l-3.2 3.2c-0.144 0.144-0.342 0.233-0.561 0.234h-0.010c-0.217-0.001-0.414-0.089-0.557-0.23l-3.205-3.205z"></path>
</svg>
