<!-- Generated by IcoMoon.io -->
<svg version="1.1" xmlns="http://www.w3.org/2000/svg" width="32" height="32" viewBox="0 0 32 32">
<title>mail-read-filled</title>
<path d="M4.033 12.382l11.542 6.835c0.121 0.073 0.268 0.116 0.425 0.116s0.303-0.043 0.428-0.118l-0.004 0.002 11.542-6.835c0.022 0.159 0.033 0.321 0.033 0.484v10.3c0 1.565-1.269 2.833-2.833 2.833v0h-18.333c-1.565 0-2.833-1.269-2.833-2.833v0-10.3c0-0.163 0.011-0.325 0.033-0.485zM16.42 4.113l9.841 5.729c0.43 0.253 0.789 0.579 1.070 0.966l0.007 0.010-11.339 6.713-11.338-6.713c0.289-0.397 0.647-0.723 1.061-0.967l0.016-0.009 9.841-5.729c0.12-0.071 0.265-0.113 0.419-0.113s0.299 0.042 0.423 0.115l-0.004-0.002z"></path>
</svg>
