<!-- Generated by IcoMoon.io -->
<svg version="1.1" xmlns="http://www.w3.org/2000/svg" width="32" height="32" viewBox="0 0 32 32">
<title>mail-list-filled</title>
<path d="M17.238 7.181c-0.060-0.182-0.095-0.392-0.095-0.61 0-0.311 0.071-0.606 0.198-0.868l-0.005 0.012-10.402 0.006c-1.959 0.114-3.504 1.731-3.504 3.708 0 0 0 0 0 0v-0 0.21l12.571 6.537 8.031-4.176h-4.888c-0 0-0 0-0.001 0-1.105 0-2-0.895-2-2 0-0.724 0.385-1.358 0.961-1.709l0.009-0.005c-0.411-0.251-0.72-0.635-0.87-1.091l-0.004-0.014zM27.747 12l-11.352 5.903c-0.115 0.061-0.251 0.097-0.395 0.097s-0.281-0.036-0.4-0.099l0.005 0.002-12.176-6.333v11.001l0.006 0.21c0.115 1.959 1.731 3.504 3.708 3.504 0 0 0 0 0 0l17.926-0.006c1.958-0.115 3.503-1.731 3.503-3.708 0-0 0-0 0-0v0-10.571h-0.824zM18.286 3.143c0-0.473 0.384-0.857 0.857-0.857v0h9.714c0.473 0 0.857 0.384 0.857 0.857s-0.384 0.857-0.857 0.857v0h-9.714c-0.473 0-0.857-0.384-0.857-0.857v0zM19.143 5.714c-0.473 0-0.857 0.384-0.857 0.857s0.384 0.857 0.857 0.857v0h9.714c0.473 0 0.857-0.384 0.857-0.857s-0.384-0.857-0.857-0.857v0h-9.714zM18.286 10c0-0.473 0.384-0.857 0.857-0.857v0h9.714c0.473 0 0.857 0.384 0.857 0.857s-0.384 0.857-0.857 0.857v0h-9.714c-0.473 0-0.857-0.384-0.857-0.857v0z"></path>
</svg>
