<!-- Generated by IcoMoon.io -->
<svg version="1.1" xmlns="http://www.w3.org/2000/svg" width="32" height="32" viewBox="0 0 32 32">
<title>mail-read-filled</title>
<path d="M2.667 13.503l12.871 6.717c0.29 0.151 0.635 0.151 0.925 0l12.871-6.716v10.163c0 2.311-1.809 4.199-4.087 4.327l-0.246 0.007h-18c-2.311 0-4.199-1.809-4.326-4.087l-0.007-0.246v-10.164zM4.133 10.892l11.355-6.752c0.27-0.161 0.597-0.183 0.883-0.069l0.139 0.069 11.356 6.752c0.313 0.186 0.585 0.425 0.806 0.701l-12.673 6.612-12.673-6.612c0.166-0.207 0.36-0.393 0.579-0.552l0.227-0.149z"></path>
</svg>
