<!-- Generated by IcoMoon.io -->
<svg version="1.1" xmlns="http://www.w3.org/2000/svg" width="32" height="32" viewBox="0 0 32 32">
<title>mail-read-multiple-filled</title>
<path d="M14.004 3.132c0.142-0.083 0.314-0.132 0.496-0.132s0.354 0.049 0.501 0.134l-0.005-0.003 9.492 5.424c0.165 0.094 0.318 0.202 0.46 0.322l-10.448 5.97-10.447-5.97c0.135-0.116 0.285-0.222 0.445-0.314l0.014-0.008 9.492-5.424zM25.949 10.61c0.034 0.18 0.051 0.364 0.051 0.55v8.34c0 2.485-2.015 4.5-4.5 4.5v0h-14c-2.485 0-4.5-2.015-4.5-4.5v0-8.34c0-0.194 0.019-0.385 0.054-0.569l-0.003 0.019 10.953 6.258c0.142 0.083 0.314 0.132 0.496 0.132s0.354-0.049 0.501-0.134l-0.005 0.003 10.954-6.258zM7.256 25.495c0.818 1.216 2.188 2.005 3.743 2.005 0 0 0.001 0 0.001 0h11.5c3.866 0 7-3.134 7-7v0-7.34c-0-1.109-0.602-2.077-1.497-2.596l-0.014-0.008-0.49-0.28v2.844l0.002 0.040v7.34c0 2.761-2.239 5-5 5v0h-15.001c-0.082 0-0.164-0.002-0.245-0.005z"></path>
</svg>
