<!-- Generated by IcoMoon.io -->
<svg version="1.1" xmlns="http://www.w3.org/2000/svg" width="32" height="32" viewBox="0 0 32 32">
<title>mail-inbox-arrow-right-filled</title>
<path d="M13.998 5.332c-0.264 0.633-0.455 1.303-0.563 2.001l-5.102-0c-1.289 0-2.333 1.045-2.333 2.333v9h6c0.506 0 0.925 0.376 0.991 0.864l0.009 0.136c0 1.657 1.343 3 3 3s3-1.343 3-3c0-0.552 0.448-1 1-1h6l0.001-2.31c0.735-0.383 1.407-0.868 2-1.437l-0.001 10.081c0 2.393-1.94 4.333-4.333 4.333h-15.333c-2.393 0-4.333-1.94-4.333-4.333v-15.333c0-2.393 1.94-4.333 4.333-4.333l5.665-0.001zM22 1.333c4.050 0 7.333 3.283 7.333 7.333s-3.283 7.333-7.333 7.333c-4.050 0-7.333-3.283-7.333-7.333s3.283-7.333 7.333-7.333zM22.288 4.785l-0.092 0.077-0.077 0.092c-0.157 0.227-0.157 0.531 0 0.758l0.077 0.092 2.194 2.195h-7.056l-0.12 0.011c-0.272 0.049-0.487 0.264-0.536 0.536l-0.011 0.12 0.011 0.12c0.049 0.272 0.264 0.487 0.536 0.536l0.12 0.011h7.056l-2.194 2.195-0.077 0.092c-0.18 0.26-0.154 0.619 0.077 0.85s0.591 0.257 0.851 0.077l0.092-0.077 3.389-3.397 0.044-0.063 0.045-0.090 0.028-0.084 0.019-0.109 0.003-0.062-0.004-0.071-0.018-0.1-0.040-0.111-0.056-0.098-0.061-0.075-3.349-3.35-0.092-0.077c-0.227-0.157-0.531-0.157-0.758 0z"></path>
</svg>
