<!-- Generated by IcoMoon.io -->
<svg version="1.1" xmlns="http://www.w3.org/2000/svg" width="32" height="32" viewBox="0 0 32 32">
<title>mail-template-filled</title>
<path d="M2.667 6.667c0-2.209 1.791-4 4-4v0h14.667c2.209 0 4 1.791 4 4v0 6.667h-12c-2.946 0-5.333 2.388-5.333 5.333v0 6.667c0 0.46 0.059 0.907 0.168 1.333h-1.501c-2.209 0-4-1.791-4-4v0-16zM7.667 5.333c-0.552 0-1 0.448-1 1s0.448 1 1 1v0h12.667c0.552 0 1-0.448 1-1s-0.448-1-1-1v0h-12.667zM10.333 9.333c-0.552 0-1 0.448-1 1s0.448 1 1 1v0h10c0.552 0 1-0.448 1-1s-0.448-1-1-1v0h-10zM10.064 16.36c0.732-1.030 1.921-1.693 3.265-1.693 0.001 0 0.003 0 0.004 0h12c0 0 0.001 0 0.001 0 1.345 0 2.534 0.664 3.26 1.681l0.008 0.012-9.269 5.795-9.269-5.792zM9.352 18.275c-0.013 0.129-0.019 0.259-0.019 0.392v6.667c0 2.209 1.791 4 4 4v0h12c2.209 0 4-1.791 4-4v0-6.667c0-0.133-0.007-0.263-0.019-0.392l-9.451 5.907c-0.151 0.096-0.334 0.152-0.531 0.152s-0.38-0.057-0.535-0.155l0.004 0.002-9.451-5.907z"></path>
</svg>
