<!-- Generated by IcoMoon.io -->
<svg version="1.1" xmlns="http://www.w3.org/2000/svg" width="32" height="32" viewBox="0 0 32 32">
<title>mail-all-read-filled</title>
<path d="M15.255 3.070c-0.115-0.062-0.252-0.098-0.398-0.098s-0.282 0.036-0.402 0.1l0.005-0.002-9.661 5.065c-0.442 0.232-0.798 0.583-1.035 1.001l11.094 5.893 11.094-5.894c-0.246-0.427-0.598-0.769-1.022-0.994l-0.014-0.007-9.661-5.065zM3.429 20.286v-9.386l11.026 5.857c0.117 0.063 0.255 0.1 0.402 0.1s0.286-0.037 0.407-0.102l-0.005 0.002 11.026-5.857v9.386c0 2.051-1.663 3.714-3.714 3.714v0h-15.429c-2.051 0-3.714-1.663-3.714-3.714v0zM6.871 25.143c0.67 1.037 1.82 1.714 3.128 1.714 0.001 0 0.002 0 0.002 0h13.143c3.314 0 6-2.686 6-6v-8.571c0-0 0-0.001 0-0.002 0-1.309-0.677-2.459-1.7-3.121l-0.015-0.009v11.703c0 2.367-1.919 4.286-4.286 4.286-0 0-0.001 0-0.001 0h-16.274z"></path>
</svg>
