<!-- Generated by IcoMoon.io -->
<svg version="1.1" xmlns="http://www.w3.org/2000/svg" width="32" height="32" viewBox="0 0 32 32">
<title>mail-warning-filled</title>
<path d="M21.548 2.44l-5.329 10.664c-0.134 0.261-0.212 0.569-0.212 0.896 0 1.105 0.895 2 2 2 0.001 0 0.002 0 0.003 0h10.659c0.001 0 0.002 0 0.003 0 1.105 0 2-0.895 2-2 0-0.327-0.078-0.635-0.217-0.907l0.005 0.011-5.329-10.664c-0.737-1.476-2.844-1.476-3.581 0zM24.005 5.995v4.001c0 0.368-0.298 0.667-0.667 0.667s-0.667-0.298-0.667-0.667v0-4.001c0-0.368 0.298-0.667 0.667-0.667s0.667 0.298 0.667 0.667v0zM23.339 13.332c-0.369 0-0.667-0.299-0.667-0.667s0.299-0.667 0.667-0.667v0c0.368 0 0.667 0.298 0.667 0.667s-0.298 0.667-0.667 0.667v0zM28.665 17.333h-10.511l-1.691 0.885c-0.135 0.072-0.294 0.114-0.464 0.114s-0.329-0.042-0.469-0.117l0.005 0.003-12.869-6.741v10.856l0.007 0.245c0.134 2.285 2.019 4.088 4.326 4.088 0 0 0 0 0 0l18.245-0.007c2.285-0.134 4.088-2.019 4.088-4.326 0-0 0-0 0-0v0-5.065c-0.213 0.043-0.437 0.065-0.667 0.065zM7 5.333h11.613l-3.587 7.173c-0.224 0.434-0.355 0.947-0.355 1.491 0 0.662 0.195 1.279 0.53 1.796l-0.008-0.013-12.505-6.549c0.219-2.114 1.93-3.766 4.052-3.891l0.012-0.001 0.248-0.007z"></path>
</svg>
