<!-- Generated by IcoMoon.io -->
<svg version="1.1" xmlns="http://www.w3.org/2000/svg" width="32" height="32" viewBox="0 0 32 32">
<title>mail-clock-filled</title>
<path d="M23.333 1.333c4.050 0 7.333 3.283 7.333 7.333s-3.283 7.333-7.333 7.333c-4.050 0-7.333-3.283-7.333-7.333s3.283-7.333 7.333-7.333zM26 8.667h-2.667v-3.333c0-0.368-0.299-0.667-0.667-0.667s-0.667 0.298-0.667 0.667v4c0 0.368 0.299 0.667 0.667 0.667h3.333c0.368 0 0.667-0.298 0.667-0.667s-0.299-0.667-0.667-0.667zM23.333 17.333c2.329 0 4.443-0.918 6-2.413v7.413c0 2.311-1.809 4.199-4.087 4.327l-0.246 0.007h-18c-2.311 0-4.199-1.809-4.326-4.087l-0.007-0.246v-10.856l12.869 6.742c0.291 0.152 0.637 0.152 0.928 0l3.223-1.688c1.109 0.515 2.344 0.802 3.647 0.802zM7 5.333h8.331c-0.428 1.026-0.664 2.152-0.664 3.333 0 2.657 1.195 5.034 3.078 6.624l-1.744 0.914-13.312-6.973c0.21-2.108 1.931-3.771 4.064-3.891l0.248-0.007z"></path>
</svg>
