<!-- Generated by IcoMoon.io -->
<svg version="1.1" xmlns="http://www.w3.org/2000/svg" width="32" height="32" viewBox="0 0 32 32">
<title>mail-inbox-checkmark-filled</title>
<path d="M29.333 8.667c0 4.050-3.283 7.333-7.333 7.333s-7.333-3.283-7.333-7.333c0-4.050 3.283-7.333 7.333-7.333s7.333 3.283 7.333 7.333zM26.471 5.529c-0.26-0.26-0.683-0.26-0.943 0l-4.862 4.862-2.195-2.195c-0.26-0.26-0.683-0.26-0.943 0s-0.26 0.682 0 0.943l2.667 2.667c0.26 0.26 0.683 0.26 0.943 0l5.333-5.333c0.26-0.26 0.26-0.682 0-0.943zM26 16.357v2.31h-6c-0.552 0-1 0.448-1 1 0 1.657-1.343 3-3 3s-3-1.343-3-3l-0.009-0.136c-0.066-0.488-0.485-0.864-0.991-0.864h-6v-9c0-1.289 1.045-2.333 2.333-2.333h5.102c0.108-0.698 0.299-1.368 0.562-2h-5.664c-2.393 0-4.333 1.94-4.333 4.333v15.333c0 2.393 1.94 4.333 4.333 4.333h15.333c2.393 0 4.333-1.94 4.333-4.333v-10.079c-0.592 0.569-1.265 1.054-2 1.437z"></path>
</svg>
