<!-- Generated by IcoMoon.io -->
<svg version="1.1" xmlns="http://www.w3.org/2000/svg" width="32" height="32" viewBox="0 0 32 32">
<title>mail-alert-filled</title>
<path d="M23.426 1.143c-2.84 0-5.143 2.303-5.143 5.143v0 2.857l-1.851 2.144c-0.247 0.286-0.371 0.43-0.406 0.544-0.016 0.051-0.026 0.109-0.026 0.169 0 0.233 0.139 0.433 0.339 0.522l0.004 0.001c0.11 0.048 0.299 0.048 0.678 0.048h12.811c0.378 0 0.568 0 0.678-0.048 0.203-0.091 0.342-0.291 0.342-0.523 0-0.060-0.009-0.119-0.027-0.173l0.001 0.004c-0.034-0.114-0.159-0.257-0.407-0.544l-1.85-2.144v-2.857c0-2.84-2.303-5.143-5.143-5.143v0zM23.426 16c1.262 0 2.286-1.023 2.286-2.286v0h-4.571c0 1.262 1.023 2.286 2.286 2.286v0zM14.939 11.491c0.074-0.217 0.179-0.406 0.312-0.57l-0.003 0.003c0.087-0.111 0.198-0.24 0.307-0.366l1.589-1.841v-2.432c0-0.193 0.009-0.383 0.026-0.571l-10.239 0.006c-1.959 0.114-3.504 1.731-3.504 3.708 0 0 0 0 0 0v-0 0.21l12.571 6.537 4.023-2.091c-0.013-0.111-0.020-0.24-0.021-0.37v-0h-3.001c-0.168 0-0.338 0-0.478-0.008-0.23-0.007-0.446-0.056-0.644-0.139l0.012 0.004c-0.611-0.271-1.029-0.872-1.029-1.571 0-0.182 0.028-0.357 0.081-0.521l-0.003 0.012zM23.431 17.143c-0 0-0.001 0-0.002 0-1.149 0-2.166-0.566-2.787-1.434l-0.007-0.010-4.24 2.206c-0.115 0.061-0.251 0.097-0.395 0.097s-0.281-0.036-0.4-0.099l0.005 0.002-12.176-6.335v11.001l0.006 0.21c0.114 1.959 1.731 3.505 3.708 3.505 0 0 0 0 0 0l17.926-0.006c1.958-0.115 3.503-1.731 3.503-3.708 0-0 0-0 0-0v0-8.857h-1.712c0 1.894-1.535 3.429-3.429 3.429v0z"></path>
</svg>
