<!-- Generated by IcoMoon.io -->
<svg version="1.1" xmlns="http://www.w3.org/2000/svg" width="32" height="32" viewBox="0 0 32 32">
<title>mail-template-filled</title>
<path d="M2.667 6.667c0-2.209 1.791-4 4-4h14.667c2.209 0 4 1.791 4 4v6.667h-12c-2.946 0-5.333 2.388-5.333 5.333v6.667c0 0.46 0.058 0.907 0.168 1.333h-1.501c-2.209 0-4-1.791-4-4v-16zM7.667 5.333c-0.552 0-1 0.448-1 1s0.448 1 1 1h12.667c0.552 0 1-0.448 1-1s-0.448-1-1-1h-12.667zM10.333 9.333c-0.552 0-1 0.448-1 1s0.448 1 1 1h10c0.552 0 1-0.448 1-1s-0.448-1-1-1h-10zM10.065 16.361c0.724-1.025 1.918-1.694 3.269-1.694h12c1.35 0 2.545 0.669 3.269 1.694l-9.269 5.793-9.269-5.793zM9.352 18.274c-0.013 0.129-0.019 0.26-0.019 0.393v6.667c0 2.209 1.791 4 4 4h12c2.209 0 4-1.791 4-4v-6.667c0-0.132-0.006-0.263-0.019-0.393l-9.451 5.907c-0.324 0.203-0.736 0.203-1.060 0l-9.451-5.907z"></path>
</svg>
