<!-- Generated by IcoMoon.io -->
<svg version="1.1" xmlns="http://www.w3.org/2000/svg" width="32" height="32" viewBox="0 0 32 32">
<title>map-filled</title>
<path d="M11.333 5.811v16.62l-5.76 4.051c-0.16 0.114-0.36 0.182-0.575 0.182-0.503 0-0.919-0.372-0.99-0.855l-0.001-0.005-0.009-0.139v-14.177c0-0.288 0.122-0.548 0.317-0.73l0.001-0.001 0.107-0.087 6.911-4.859zM27.992 6.197l0.009 0.139v14.177c-0 0.288-0.122 0.548-0.317 0.73l-0.001 0.001-0.107 0.087-6.911 4.856v-16.621l5.76-4.047c0.16-0.114 0.36-0.182 0.575-0.182 0.503 0 0.919 0.372 0.99 0.855l0.001 0.005zM13.333 5.812l5.333 3.749v16.623l-5.333-3.752v-16.62z"></path>
</svg>
