<!-- Generated by IcoMoon.io -->
<svg version="1.1" xmlns="http://www.w3.org/2000/svg" width="32" height="32" viewBox="0 0 32 32">
<title>map-drive-filled</title>
<path d="M2.667 7c0-1.657 1.343-3 3-3v0h20.667c1.657 0 3 1.343 3 3v0 6.667c0 0.552-0.448 1-1 1v0h-11.333v2.668h1.333c0.552 0 1 0.448 1 1v0 3.005h2.333c0.552 0 1 0.448 1 1v0 0.993h5.667c0.552 0 1 0.448 1 1s-0.448 1-1 1v0h-5.667v1.671c0 0.552-0.448 1-1 1v0h-11.333c-0.552 0-1-0.448-1-1v0-1.671h-5.667c-0.552 0-1-0.448-1-1s0.448-1 1-1v0h5.668v-0.993c0-0.552 0.448-1 1-1v0h2.333v-3.007c0-0.552 0.448-1 1-1v0h1.332v-2.667h-11.333c-0.552 0-1-0.448-1-1v0-6.667zM23.997 10.669c0.738 0 1.336-0.598 1.336-1.336s-0.598-1.336-1.336-1.336v0c-0.738 0-1.336 0.598-1.336 1.336s0.598 1.336 1.336 1.336v0z"></path>
</svg>
