<!-- Generated by IcoMoon.io -->
<svg version="1.1" xmlns="http://www.w3.org/2000/svg" width="32" height="32" viewBox="0 0 32 32">
<title>markdown-filled</title>
<path d="M3.986 6.474c0.123-0.047 0.265-0.074 0.414-0.074 0.365 0 0.693 0.163 0.913 0.421l0.001 0.002 5.886 6.925 5.885-6.925c0.221-0.26 0.549-0.424 0.915-0.424 0.663 0 1.2 0.537 1.2 1.2 0 0 0 0.001 0 0.002v-0 15.2c0 0.663-0.537 1.2-1.2 1.2s-1.2-0.537-1.2-1.2v0-11.936l-4.686 5.514c-0.221 0.259-0.549 0.422-0.914 0.422s-0.692-0.163-0.912-0.42l-0.001-0.002-4.686-5.514v11.936c0 0.663-0.537 1.2-1.2 1.2s-1.2-0.537-1.2-1.2v0-15.2c0-0 0-0 0-0 0-0.514 0.323-0.952 0.777-1.123l0.008-0.003zM21.152 18.752c0.217-0.217 0.517-0.351 0.848-0.351s0.631 0.134 0.848 0.351v0l1.152 1.152v-12.304c0-0.663 0.537-1.2 1.2-1.2s1.2 0.537 1.2 1.2v0 12.304l1.152-1.152c0.22-0.235 0.532-0.382 0.878-0.382 0.663 0 1.2 0.537 1.2 1.2 0 0.346-0.147 0.658-0.381 0.877l-0.001 0.001-3.2 3.2c-0.217 0.217-0.517 0.351-0.848 0.351s-0.631-0.134-0.848-0.351v0l-3.2-3.2c-0.217-0.217-0.351-0.517-0.351-0.848s0.134-0.631 0.351-0.848v0z"></path>
</svg>
