<!-- Generated by IcoMoon.io -->
<svg version="1.1" xmlns="http://www.w3.org/2000/svg" width="32" height="32" viewBox="0 0 32 32">
<title>match-app-layout-filled</title>
<path d="M12.667 10.667c1.288 0 2.333 1.045 2.333 2.333v6c0 1.289-1.045 2.333-2.333 2.333v0h-7.667c-1.289 0-2.333-1.045-2.333-2.333v0-6c0-1.221 0.938-2.223 2.133-2.325l0.009-0.001 0.192-0.008h7.667zM27 10.667c1.288 0 2.333 1.045 2.333 2.333v6c0 1.289-1.045 2.333-2.333 2.333v0h-7.667c-1.289 0-2.333-1.045-2.333-2.333v0-6c0-1.288 1.045-2.333 2.333-2.333h7.667z"></path>
</svg>
