<!-- Generated by IcoMoon.io -->
<svg version="1.1" xmlns="http://www.w3.org/2000/svg" width="32" height="32" viewBox="0 0 32 32">
<title>math-symbols-filled</title>
<path d="M8.333 2.667c0.552 0 1 0.448 1 1v0 3.667h3.667c0.552 0 1 0.448 1 1s-0.448 1-1 1v0h-3.667v3.667c0 0.552-0.448 1-1 1s-1-0.448-1-1v0-3.667h-3.667c-0.552 0-1-0.448-1-1s0.448-1 1-1v0h3.667v-3.667c0-0.552 0.448-1 1-1v0zM18.999 7.333c-0.552 0-1 0.448-1 1s0.448 1 1 1v0h9.333c0.552 0 1-0.448 1-1s-0.448-1-1-1v0h-9.333zM18.001 23.667c0-0.552 0.448-1 1-1v0h9.333c0.552 0 1 0.448 1 1s-0.448 1-1 1v0h-9.333c-0.552 0-1-0.448-1-1v0zM23.667 21.333c0.736 0 1.333-0.597 1.333-1.333s-0.597-1.333-1.333-1.333v0c-0.736 0-1.333 0.597-1.333 1.333s0.597 1.333 1.333 1.333v0zM25 27.333c0 0.736-0.597 1.333-1.333 1.333s-1.333-0.597-1.333-1.333v0c0-0.736 0.597-1.333 1.333-1.333s1.333 0.597 1.333 1.333v0zM2.793 18.127c0.181-0.181 0.431-0.292 0.707-0.292s0.526 0.112 0.707 0.292v0l4.127 4.126 4.127-4.127c0.18-0.174 0.425-0.28 0.694-0.28 0.552 0 1 0.448 1 1 0 0.27-0.107 0.515-0.281 0.695l0-0-4.125 4.126 4.127 4.127c0.174 0.18 0.28 0.424 0.28 0.694 0 0.552-0.448 1-1 1-0.27 0-0.515-0.107-0.695-0.281l0 0-4.127-4.125-4.127 4.127c-0.18 0.174-0.425 0.28-0.694 0.28-0.552 0-1-0.448-1-1 0-0.27 0.107-0.515 0.281-0.695l-0 0 4.126-4.126-4.127-4.127c-0.181-0.181-0.292-0.431-0.292-0.707s0.112-0.526 0.292-0.707v0z"></path>
</svg>
