<!-- Generated by IcoMoon.io -->
<svg version="1.1" xmlns="http://www.w3.org/2000/svg" width="32" height="32" viewBox="0 0 32 32">
<title>math-format-linear-filled</title>
<path d="M15.609 4.391c-0.241-0.241-0.575-0.39-0.943-0.39s-0.701 0.149-0.943 0.39l-2.667 2.667c-0.232 0.24-0.374 0.566-0.374 0.926 0 0.736 0.597 1.333 1.333 1.333 0.36 0 0.687-0.143 0.927-0.375l1.724-1.724 1.724 1.724c0.243 0.251 0.583 0.407 0.959 0.407 0.736 0 1.333-0.597 1.333-1.333 0-0.376-0.156-0.716-0.407-0.959l-2.667-2.667zM19.297 12.977c0.116-0.1 0.268-0.161 0.434-0.161 0.255 0 0.476 0.143 0.588 0.353l0.002 0.004 1.479 2.808-4.743 4.743c-0.232 0.24-0.374 0.566-0.374 0.926 0 0.736 0.597 1.333 1.333 1.333 0.36 0 0.687-0.143 0.927-0.375l4.157-4.157 1.552 2.951c0.57 1.067 1.677 1.781 2.95 1.781 0.831 0 1.591-0.304 2.175-0.807l-0.004 0.004 0.429-0.368c0.279-0.246 0.454-0.604 0.454-1.003 0-0.736-0.597-1.333-1.333-1.333-0.327 0-0.627 0.118-0.859 0.314l0.002-0.002-0.429 0.368c-0.116 0.1-0.268 0.16-0.434 0.16-0.255 0-0.476-0.143-0.588-0.353l-0.002-0.004-1.937-3.681 3.868-3.869c0.232-0.24 0.374-0.566 0.374-0.926 0-0.736-0.597-1.333-1.333-1.333-0.36 0-0.687 0.143-0.927 0.375l-3.284 3.284-1.093-2.077c-0.57-1.067-1.676-1.78-2.949-1.78-0.831 0-1.59 0.304-2.174 0.806l0.004-0.004-0.429 0.368c-0.292 0.246-0.476 0.612-0.476 1.021 0 0.736 0.597 1.333 1.333 1.333 0.337 0 0.646-0.125 0.88-0.332l-0.001 0.001 0.429-0.368zM4.060 18.287c1.16-0.023 2.369-0.1 3.473-0.339 1.435-0.309 2.919-0.94 3.829-2.316 0.817-1.237 0.856-2.744 0.072-3.883-0.8-1.163-2.253-1.656-3.815-1.303-1.103 0.234-2.071 0.703-2.887 1.353l0.014-0.011c-1.165 0.925-2.268 2.409-3.009 4.775-0.533 1.708-0.544 3.245 0.004 4.499 0.561 1.28 1.627 2.080 2.84 2.416 2.351 0.648 5.252-0.395 7.089-2.715 0.18-0.225 0.288-0.514 0.288-0.828 0-0.736-0.597-1.334-1.334-1.334-0.422 0-0.799 0.196-1.043 0.503l-0.002 0.003c-1.289 1.629-3.141 2.116-4.289 1.8-0.533-0.147-0.905-0.455-1.107-0.915-0.157-0.36-0.253-0.913-0.124-1.707zM9.239 13.261c0.1 0.147 0.187 0.467-0.1 0.899-0.353 0.533-1.029 0.936-2.169 1.181-0.567 0.121-1.235 0.207-1.917 0.24l-0.029 0.001c0.455-0.829 0.947-1.36 1.383-1.707 0.504-0.399 1.112-0.689 1.777-0.823l0.027-0.005c0.677-0.153 0.945 0.092 1.029 0.213z"></path>
</svg>
