<!-- Generated by IcoMoon.io -->
<svg version="1.1" xmlns="http://www.w3.org/2000/svg" width="32" height="32" viewBox="0 0 32 32">
<title>math-format-professional-filled</title>
<path d="M20.592 6.602c-0.194-0.347-0.646-0.449-0.97-0.218l-0.514 0.367c-0.599 0.428-1.432 0.289-1.86-0.31s-0.289-1.432 0.31-1.86l0.514-0.367c1.617-1.155 3.88-0.647 4.848 1.088l0.677 1.214 2.126-2.126c0.521-0.521 1.365-0.521 1.886 0s0.521 1.365 0 1.886l-2.661 2.661 1.057 1.895c0.202 0.362 0.681 0.454 1.002 0.193l0.486-0.394c0.572-0.464 1.411-0.377 1.875 0.195s0.377 1.412-0.195 1.875l-0.486 0.394c-1.608 1.304-4.003 0.843-5.011-0.964l-0.689-1.234-2.045 2.045c-0.521 0.521-1.365 0.521-1.886 0s-0.521-1.365 0-1.886l2.58-2.58-1.046-1.875zM11.195 18.85c-1.888 0.369-4.003 0.461-6.041 0.479-0.363 1.48-0.213 2.531 0.131 3.24 0.403 0.831 1.18 1.419 2.277 1.693 2.265 0.565 5.565-0.332 7.769-2.845 0.485-0.554 1.328-0.609 1.882-0.124s0.609 1.328 0.124 1.882c-2.797 3.191-7.093 4.505-10.419 3.675-1.698-0.424-3.216-1.434-4.031-3.117-0.809-1.67-0.816-3.771 0.015-6.168 1.119-3.231 2.823-5.255 4.541-6.514 1.705-1.25 3.353-1.697 4.291-1.889 2.168-0.444 4.113 0.166 5.2 1.593 1.105 1.45 1.068 3.422-0.123 5.049-1.306 1.784-3.44 2.623-5.614 3.047zM12.268 11.773c-0.729 0.149-1.967 0.487-3.249 1.427-0.961 0.705-1.988 1.778-2.841 3.446 1.611-0.040 3.148-0.147 4.506-0.412 1.941-0.379 3.261-1.032 3.973-2.005 0.575-0.785 0.462-1.453 0.153-1.858-0.326-0.428-1.13-0.886-2.543-0.597z"></path>
</svg>
