<!-- Generated by IcoMoon.io -->
<svg version="1.1" xmlns="http://www.w3.org/2000/svg" width="32" height="32" viewBox="0 0 32 32">
<title>meet-now-filled</title>
<path d="M10.608 3.365c1.282-0.356 3.123-0.707 5.394-0.703 2.269 0.003 4.108 0.354 5.39 0.708 0.641 0.177 1.143 0.355 1.49 0.492 0.174 0.068 0.309 0.126 0.404 0.169 0.047 0.021 0.085 0.039 0.112 0.051l0.033 0.016 0.014 0.007 0.002 0.001c0 0 0.001 0.001-0.446 0.895l0.447-0.895c0.494 0.247 0.695 0.847 0.448 1.341s-0.845 0.694-1.339 0.449c-0-0-0.001-0.001-0.002-0.001l-0.013-0.006c-0.014-0.007-0.038-0.018-0.072-0.033-0.068-0.030-0.175-0.077-0.319-0.133-0.288-0.113-0.723-0.269-1.291-0.425-1.135-0.314-2.796-0.633-4.86-0.635-2.063-0.003-3.722 0.316-4.856 0.631-0.567 0.157-1.002 0.314-1.29 0.428-0.144 0.057-0.25 0.103-0.318 0.134-0.034 0.015-0.058 0.027-0.072 0.033l-0.014 0.007c-0.493 0.248-1.093 0.050-1.342-0.443s-0.050-1.094 0.443-1.343l0.45 0.893c-0.45-0.893-0.451-0.893-0.45-0.893l0.007-0.003 0.011-0.005 0.033-0.016c0.027-0.013 0.064-0.030 0.112-0.052 0.095-0.043 0.23-0.102 0.404-0.171 0.348-0.138 0.85-0.318 1.492-0.496z"></path>
<path d="M9 27c-0.446 0.895-0.445 0.896-0.445 0.896l0.002 0.001 0.004 0.002 0.010 0.005 0.033 0.016c0.027 0.013 0.064 0.030 0.112 0.051 0.095 0.042 0.23 0.1 0.404 0.168 0.347 0.136 0.849 0.314 1.49 0.49 1.281 0.353 3.12 0.702 5.389 0.705 2.27 0.003 4.111-0.346 5.393-0.701 0.641-0.177 1.144-0.356 1.491-0.493 0.174-0.069 0.309-0.127 0.404-0.17 0.047-0.021 0.085-0.039 0.112-0.052l0.033-0.016 0.010-0.005 0.004-0.002 0.001-0.001c0 0 0.001-0.001-0.448-0.894l0.449 0.894c0.493-0.248 0.693-0.849 0.445-1.342s-0.849-0.693-1.342-0.445l-0.013 0.006c-0.014 0.007-0.038 0.018-0.072 0.033-0.068 0.031-0.175 0.077-0.318 0.134-0.288 0.114-0.723 0.269-1.29 0.426-1.135 0.314-2.794 0.631-4.857 0.628-2.065-0.003-3.726-0.321-4.861-0.633-0.568-0.156-1.003-0.311-1.291-0.424-0.144-0.056-0.251-0.102-0.319-0.133-0.034-0.015-0.058-0.026-0.072-0.033l-0.013-0.006c-0.494-0.246-1.094-0.044-1.34 0.45s-0.044 1.095 0.45 1.341l0.445-0.896z"></path>
<path d="M8.333 8.667c-1.657 0-3 1.343-3 3v8.667c0 1.657 1.343 3 3 3h8.667c1.657 0 3-1.343 3-3v-8.667c0-1.657-1.343-3-3-3h-8.667z"></path>
<path d="M25.693 21.768l-4.36-3.633v-4.268l4.36-3.629c0.298-0.248 0.713-0.302 1.064-0.137s0.576 0.518 0.576 0.905v9.994c0 0.388-0.224 0.741-0.576 0.906s-0.766 0.111-1.064-0.137z"></path>
</svg>
