<!-- Generated by IcoMoon.io -->
<svg version="1.1" xmlns="http://www.w3.org/2000/svg" width="32" height="32" viewBox="0 0 32 32">
<title>megaphone-filled</title>
<path d="M29.209 7.496c0.082 0.277 0.124 0.565 0.124 0.855v15.301c0 1.657-1.343 3-3 3-0.289 0-0.577-0.042-0.855-0.124l-7.352-2.186c-0.876 1.793-2.715 2.991-4.793 2.991-2.856 0-5.188-2.245-5.327-5.067l-0.007-0.266-0.001-0.668-3.187-0.948c-1.273-0.378-2.145-1.548-2.145-2.876v-3.016c0-1.328 0.873-2.497 2.145-2.876l20.667-6.141c1.588-0.472 3.258 0.433 3.73 2.021zM9.999 21.926l0.001 0.073c0 1.841 1.492 3.333 3.333 3.333 1.18 0 2.238-0.619 2.832-1.573l-6.166-1.834z"></path>
</svg>
