<!-- Generated by IcoMoon.io -->
<svg version="1.1" xmlns="http://www.w3.org/2000/svg" width="32" height="32" viewBox="0 0 32 32">
<title>megaphone-loud-filled</title>
<path d="M20.725 5.988c-0.422-0.124-0.725-0.507-0.725-0.961 0-0.098 0.014-0.193 0.041-0.283l-0.002 0.007 0.827-2.884c0.118-0.43 0.506-0.741 0.966-0.741 0.552 0 1 0.448 1 1 0 0.104-0.016 0.205-0.046 0.3l0.002-0.007-0.826 2.884c-0.124 0.421-0.507 0.724-0.961 0.724-0.098 0-0.193-0.014-0.283-0.041l0.007 0.002zM28.707 3.293c0.181 0.181 0.293 0.431 0.293 0.707s-0.112 0.526-0.293 0.707l-3 3c-0.182 0.188-0.437 0.305-0.719 0.305-0.552 0-1-0.448-1-1 0-0.282 0.117-0.537 0.305-0.719l3-3c0.181-0.181 0.431-0.293 0.707-0.293s0.526 0.112 0.707 0.293v0zM21.593 22.418l4.75-2.374c0.991-0.504 1.658-1.515 1.658-2.683 0-0.829-0.336-1.579-0.879-2.122l-10.36-10.359c-0.543-0.543-1.293-0.879-2.121-0.879-1.168 0-2.18 0.667-2.676 1.642l-0.008 0.017-8.64 17.279c-0.199 0.39-0.316 0.851-0.316 1.34 0 0.828 0.336 1.578 0.879 2.121l1.72 1.72c0.543 0.543 1.293 0.879 2.121 0.879 0.489 0 0.951-0.117 1.359-0.325l-0.017 0.008 2.717-1.358c0.976 1.622 2.727 2.69 4.728 2.69 3.038 0 5.5-2.462 5.5-5.5 0-0.756-0.153-1.477-0.429-2.132l0.014 0.036zM19.795 23.317c0.132 0.354 0.208 0.762 0.208 1.188 0 1.933-1.567 3.5-3.5 3.5-1.218 0-2.291-0.622-2.918-1.566l-0.008-0.013 6.218-3.109zM27 10.002c-0.552 0-1 0.448-1 1s0.448 1 1 1v0h3c0.552 0 1-0.448 1-1s-0.448-1-1-1v0h-3z"></path>
</svg>
