<!-- Generated by IcoMoon.io -->
<svg version="1.1" xmlns="http://www.w3.org/2000/svg" width="32" height="32" viewBox="0 0 32 32">
<title>megaphone-loud-filled</title>
<path d="M22.949 2.983c0.175-0.524-0.108-1.090-0.632-1.265s-1.090 0.108-1.265 0.632l-1 2.999c-0.175 0.524 0.108 1.090 0.632 1.265s1.090-0.108 1.265-0.632l1-2.999zM29.040 2.96c0.391 0.391 0.391 1.024 0 1.414l-3.333 3.333c-0.391 0.391-1.024 0.391-1.414 0s-0.391-1.024 0-1.414l3.333-3.333c0.391-0.391 1.024-0.391 1.414 0zM17.161 4.988c-1.488-1.594-4.113-1.195-5.059 0.77l-7.864 16.321c-0.454 0.942-0.245 2.070 0.516 2.788l1.918 1.809c0.703 0.663 1.735 0.84 2.619 0.448l1.89-0.837c0.856 1.802 2.692 3.047 4.82 3.047 2.946 0 5.333-2.388 5.333-5.333 0-0.72-0.143-1.407-0.402-2.034l4.56-2.020c1.949-0.863 2.465-3.391 1.011-4.95l-9.342-10.008zM19.102 22.777c0.149 0.379 0.232 0.792 0.232 1.223 0 1.841-1.492 3.333-3.333 3.333-1.311 0-2.445-0.757-2.99-1.858l6.092-2.699zM25.333 10.999c0-0.552 0.448-1 1-1h2.667c0.552 0 1 0.448 1 1s-0.448 1-1 1h-2.667c-0.552 0-1-0.448-1-1z"></path>
</svg>
