<!-- Generated by IcoMoon.io -->
<svg version="1.1" xmlns="http://www.w3.org/2000/svg" width="32" height="32" viewBox="0 0 32 32">
<title>megaphone-off-filled</title>
<path d="M4.374 2.96c-0.391-0.391-1.024-0.391-1.414-0s-0.391 1.024-0 1.414l6.008 6.008-4.155 1.235c-1.273 0.378-2.145 1.548-2.145 2.876v3.016c0 1.328 0.873 2.497 2.145 2.876l3.187 0.948 0.001 0.668 0.007 0.266c0.139 2.822 2.471 5.067 5.327 5.067 2.078 0 3.917-1.198 4.793-2.992l6.831 2.031 2.669 2.669c0.391 0.391 1.024 0.391 1.414 0s0.391-1.024 0-1.414l-24.666-24.667zM9.999 21.926l6.166 1.834c-0.594 0.954-1.651 1.573-2.832 1.573-1.841 0-3.333-1.492-3.333-3.333l-0.001-0.073z"></path>
<path d="M29.333 23.651c0 0.424-0.088 0.828-0.247 1.193l-15.758-15.759 12.151-3.611c1.588-0.472 3.258 0.433 3.73 2.021 0.082 0.277 0.124 0.565 0.124 0.855v15.301z"></path>
</svg>
