<!-- Generated by IcoMoon.io -->
<svg version="1.1" xmlns="http://www.w3.org/2000/svg" width="32" height="32" viewBox="0 0 32 32">
<title>megaphone-circle-filled</title>
<path d="M16 29.333c7.364 0 13.333-5.969 13.333-13.333s-5.969-13.333-13.333-13.333-13.333 5.969-13.333 13.333 5.969 13.333 13.333 13.333zM10.667 19.245l-1.148-0.425c-0.897-0.339-1.524-1.19-1.524-2.188v-1.267c0-0.001 0-0.001 0-0.002 0-0.999 0.627-1.851 1.509-2.184l0.016-0.005 10.001-3.7c0.241-0.092 0.519-0.145 0.809-0.145 1.288 0 2.333 1.044 2.333 2.333v8.667c0 0 0 0.001 0 0.001 0 1.289-1.045 2.333-2.333 2.333-0.291 0-0.569-0.053-0.825-0.15l0.016 0.005-1.912-0.708c-0.315 1.637-1.736 2.856-3.441 2.856-1.933 0-3.501-1.567-3.501-3.5v-1.921zM15.667 21.095v0.072c0 0.828-0.672 1.5-1.5 1.5s-1.5-0.672-1.5-1.5v0-1.183l3 1.111z"></path>
</svg>
