<!-- Generated by IcoMoon.io -->
<svg version="1.1" xmlns="http://www.w3.org/2000/svg" width="32" height="32" viewBox="0 0 32 32">
<title>mention-filled</title>
<path d="M16 2.667c7.24 0 13.131 5.769 13.328 12.96l0.005 0.373v2.033c-0.017 2.933-2.398 5.303-5.333 5.303-1.919 0-3.601-1.013-4.54-2.534l-0.013-0.023c-1.067 1.111-2.509 1.797-4.113 1.797-3.353 0-6-3-6-6.621 0-3.623 2.647-6.623 6-6.623 1.249 0 2.4 0.416 3.352 1.125 0.106-0.639 0.655-1.12 1.316-1.12 0.68 0 1.241 0.509 1.323 1.167l0.001 0.007 0.008 0.155v7.333c0.004 1.47 1.196 2.66 2.667 2.66 1.4 0 2.548-1.079 2.658-2.451l0.001-0.009 0.008-0.233v-1.967c0-5.891-4.776-10.667-10.667-10.667s-10.667 4.776-10.667 10.667c0 5.891 4.776 10.667 10.667 10.667v0c1.228 0 2.427-0.207 3.56-0.608 0.132-0.048 0.285-0.076 0.445-0.076 0.737 0 1.334 0.597 1.334 1.334 0 0.577-0.367 1.069-0.88 1.254l-0.009 0.003c-1.32 0.482-2.845 0.76-4.434 0.76-0.005 0-0.011 0-0.016 0h0.001c-7.364 0-13.333-5.969-13.333-13.333s5.969-13.333 13.333-13.333zM15.533 12.007l-0.2-0.007c-1.8 0-3.333 1.736-3.333 3.956 0 2.219 1.533 3.955 3.333 3.955 1.733 0 3.22-1.609 3.327-3.711l0.007-0.293c-0.023-2.115-1.433-3.779-3.133-3.9v0z"></path>
</svg>
