<!-- Generated by IcoMoon.io -->
<svg version="1.1" xmlns="http://www.w3.org/2000/svg" width="32" height="32" viewBox="0 0 32 32">
<title>mention-brackets-filled</title>
<path d="M7.6 3.2c-2.43 0-4.4 1.97-4.4 4.4v0 16.8c0 2.43 1.97 4.4 4.4 4.4v0h2.4c0.663 0 1.2-0.537 1.2-1.2s-0.537-1.2-1.2-1.2v0h-2.4c-1.104 0-2-0.896-2-2v-16.8c0-1.104 0.896-2 2-2h2.4c0.663 0 1.2-0.537 1.2-1.2s-0.537-1.2-1.2-1.2v0h-2.4zM18.8 11.6c0.663 0 1.2 0.537 1.2 1.2v0 4.4c0 0.663 0.537 1.2 1.2 1.2s1.2-0.537 1.2-1.2v0-1.2c-0-3.535-2.865-6.4-6.4-6.4s-6.4 2.865-6.4 6.4c0 3.401 2.652 6.182 6.001 6.388l0.018 0.001-0.008 0.011 0.019-0.011c0.124 0.009 0.268 0.014 0.414 0.014 0.581 0 1.144-0.079 1.678-0.226l-0.044 0.010c0.568-0.154 1.2 0.082 1.418 0.626 0.275 0.688-0.034 1.483-0.747 1.682-0.683 0.194-1.468 0.306-2.279 0.306-0.025 0-0.049-0-0.074-0l0.004 0c-4.86 0-8.8-3.94-8.8-8.8s3.94-8.8 8.8-8.8c4.86 0 8.8 3.94 8.8 8.8v0 1.2c0 0.73-0.218 1.41-0.592 1.978-0.085 0.223-0.155 0.386-0.23 0.545l0.022-0.053v-0.208c-0.664 0.819-1.67 1.338-2.797 1.338-0.001 0-0.002 0-0.003 0h0c-0 0-0.001 0-0.001 0-1.202 0-2.267-0.59-2.919-1.497l-0.007-0.011c-0.634 0.442-1.421 0.706-2.27 0.706-2.209 0-4-1.791-4-4s1.791-4 4-4c0.609 0 1.186 0.136 1.702 0.379l-0.024-0.010c0.178-0.453 0.612-0.768 1.12-0.768 0 0 0 0 0 0h-0zM16 14.4c-0.884 0-1.6 0.716-1.6 1.6s0.716 1.6 1.6 1.6v0c0.884 0 1.6-0.716 1.6-1.6s-0.716-1.6-1.6-1.6v0zM28.8 7.6c0-2.43-1.97-4.4-4.4-4.4v0h-2.4c-0.663 0-1.2 0.537-1.2 1.2s0.537 1.2 1.2 1.2v0h2.4c1.104 0 2 0.896 2 2v16.8c0 1.104-0.896 2-2 2h-2.4c-0.663 0-1.2 0.537-1.2 1.2s0.537 1.2 1.2 1.2v0h2.4c2.43 0 4.4-1.97 4.4-4.4v0-16.8z"></path>
</svg>
