<!-- Generated by IcoMoon.io -->
<svg version="1.1" xmlns="http://www.w3.org/2000/svg" width="32" height="32" viewBox="0 0 32 32">
<title>mention-filled</title>
<path d="M16 2.667c7.239 0 13.131 5.769 13.328 12.96l0.005 0.373-0 2.034c-0.018 2.93-2.399 5.299-5.333 5.299-1.927 0-3.616-1.022-4.553-2.555-1.067 1.112-2.509 1.799-4.114 1.799-3.353 0-6-2.999-6-6.622s2.647-6.622 6-6.622c1.249 0 2.4 0.416 3.352 1.125 0.097-0.637 0.649-1.125 1.315-1.125 0.684 0 1.247 0.515 1.324 1.178l0.009 0.155v7.333c0 1.473 1.194 2.667 2.667 2.667 1.406 0 2.558-1.088 2.659-2.468l0.008-0.233-0-1.966c0-5.891-4.776-10.667-10.667-10.667s-10.667 4.776-10.667 10.667c0 5.891 4.776 10.667 10.667 10.667 1.229 0 2.427-0.207 3.559-0.608 0.694-0.246 1.456 0.118 1.702 0.812s-0.118 1.456-0.812 1.702c-1.417 0.501-2.916 0.761-4.449 0.761-7.364 0-13.333-5.97-13.333-13.333s5.97-13.333 13.333-13.333zM15.532 12.007l-0.199-0.007c-1.801 0-3.333 1.736-3.333 3.956s1.532 3.955 3.333 3.955c1.735 0 3.219-1.61 3.327-3.711l0.006-0.294c-0.022-2.113-1.434-3.777-3.134-3.899v0z"></path>
</svg>
