<!-- Generated by IcoMoon.io -->
<svg version="1.1" xmlns="http://www.w3.org/2000/svg" width="32" height="32" viewBox="0 0 32 32">
<title>merge-filled</title>
<path d="M4 9.333c0-0.736 0.597-1.333 1.333-1.333v0h3.676c0 0 0 0 0 0 1.473 0 2.807 0.597 3.772 1.563l3.933 3.933c0.724 0.723 1.723 1.17 2.827 1.171h5.237l-4.387-4.385c-0.224-0.238-0.361-0.559-0.361-0.913 0-0.736 0.597-1.333 1.333-1.333 0.353 0 0.674 0.137 0.913 0.361l-0.001-0.001 6.667 6.661c0.241 0.241 0.39 0.575 0.39 0.943s-0.149 0.701-0.39 0.943l-6.667 6.667c-0.24 0.232-0.566 0.374-0.926 0.374-0.736 0-1.333-0.597-1.333-1.333 0-0.36 0.143-0.687 0.375-0.927l4.39-4.39h-5.292c-1.086 0.015-2.064 0.46-2.776 1.172l-3.933 3.933c-0.965 0.964-2.297 1.561-3.769 1.561h-3.677c-0.736 0-1.333-0.597-1.333-1.333s0.597-1.333 1.333-1.333v0h3.676c0 0 0.001 0 0.001 0 0.737 0 1.403-0.299 1.886-0.781l3.933-3.933c0.224-0.224 0.463-0.431 0.713-0.619-0.263-0.198-0.497-0.401-0.715-0.619l-3.933-3.933c-0.482-0.482-1.148-0.781-1.884-0.781h-3.677c-0.736 0-1.333-0.597-1.333-1.333v0z"></path>
</svg>
