<!-- Generated by IcoMoon.io -->
<svg version="1.1" xmlns="http://www.w3.org/2000/svg" width="32" height="32" viewBox="0 0 32 32">
<title>merge-filled</title>
<path d="M10.115 10.672h-4.781c-0.736 0-1.333-0.597-1.333-1.333s0.597-1.333 1.333-1.333h5.333c0.353 0 0.692 0.14 0.942 0.39l6.276 6.272h6.894l-4.389-4.385c-0.521-0.521-0.521-1.365-0.001-1.886s1.365-0.521 1.886-0.001l6.667 6.662c0.25 0.25 0.391 0.589 0.391 0.943s-0.14 0.693-0.391 0.943l-6.667 6.667c-0.521 0.521-1.365 0.521-1.886 0s-0.521-1.365 0-1.886l4.391-4.391h-6.895l-6.276 6.276c-0.25 0.25-0.589 0.391-0.943 0.391h-5.333c-0.736 0-1.333-0.597-1.333-1.333s0.597-1.333 1.333-1.333h4.781l5.333-5.333-5.333-5.329z"></path>
</svg>
