<!-- Generated by IcoMoon.io -->
<svg version="1.1" xmlns="http://www.w3.org/2000/svg" width="32" height="32" viewBox="0 0 32 32">
<title>mic-settings-filled</title>
<path d="M14.667 23.333c0 1.461 0.361 2.839 1 4.047v0.953c-0 0.552-0.448 1-1 1-0.504 0-0.921-0.373-0.99-0.858l-0.001-0.005-0.009-0.136v-3.024c-4.567-0.349-8.162-4.060-8.328-8.645l-0-0.016-0.005-0.315v-0.667c0-0.552 0.448-1 1-1 0.504 0 0.921 0.373 0.99 0.858l0.001 0.005 0.009 0.136v0.667c0 0 0 0 0 0.001 0 3.765 2.972 6.835 6.698 6.994l0.014 0 0.288 0.005h0.333zM14.9 21.328c0.667-2.73 2.558-4.916 5.043-5.976l0.057-0.021v-7.331c0-2.946-2.388-5.333-5.333-5.333s-5.333 2.388-5.333 5.333v0 8c0 2.945 2.388 5.333 5.333 5.333 0.082 0 0.164-0.002 0.245-0.006l-0.012 0zM19.037 18.635c0.066 0.221 0.105 0.476 0.105 0.739 0 1.245-0.854 2.291-2.007 2.585l-0.018 0.004-0.779 0.192c-0.058 0.355-0.092 0.763-0.092 1.18 0 0.434 0.036 0.86 0.106 1.274l-0.006-0.045 0.72 0.173c1.181 0.291 2.042 1.341 2.042 2.593 0 0.269-0.040 0.528-0.114 0.773l0.005-0.019-0.249 0.843c0.587 0.515 1.253 0.932 1.979 1.228l0.659-0.691c0.487-0.511 1.173-0.829 1.933-0.829s1.446 0.318 1.932 0.828l0.001 0.001 0.664 0.7c0.76-0.313 1.413-0.723 1.985-1.224l-0.008 0.007-0.264-0.915c-0.066-0.221-0.105-0.476-0.105-0.739 0-1.245 0.854-2.291 2.007-2.585l0.018-0.004 0.779-0.192c0.059-0.355 0.092-0.764 0.092-1.18 0-0.434-0.036-0.86-0.106-1.275l0.006 0.045-0.72-0.173c-1.181-0.291-2.042-1.341-2.042-2.593 0-0.269 0.040-0.528 0.114-0.773l-0.005 0.019 0.249-0.84c-0.564-0.499-1.218-0.914-1.932-1.213l-0.046-0.017-0.657 0.692c-0.487 0.512-1.173 0.83-1.933 0.83s-1.447-0.318-1.932-0.829l-0.001-0.001-0.664-0.7c-0.725 0.293-1.392 0.707-1.977 1.216l0.264 0.915zM23.333 25.333c-1.067 0-1.933-0.896-1.933-2 0-1.105 0.867-2 1.933-2s1.933 0.895 1.933 2c0 1.104-0.867 2-1.933 2z"></path>
</svg>
