<!-- Generated by IcoMoon.io -->
<svg version="1.1" xmlns="http://www.w3.org/2000/svg" width="32" height="32" viewBox="0 0 32 32">
<title>mic-off-filled</title>
<path d="M10.667 11.845v4.155c0 0 0 0 0 0.001 0 2.946 2.388 5.333 5.333 5.333 1.179 0 2.268-0.382 3.151-1.030l-0.015 0.010 1.571 1.571c-1.281 1.007-2.917 1.615-4.695 1.615-0.004 0-0.008 0-0.012 0h0.001c-4.234 0-7.667-3.433-7.667-7.667 0-0.46-0.373-0.833-0.833-0.833s-0.833 0.373-0.833 0.833v0c0 4.817 3.649 8.781 8.333 9.28v3.387c0 0.46 0.373 0.833 0.833 0.833s0.833-0.373 0.833-0.833v0-3.357c1.975-0.14 3.78-0.893 5.227-2.072l5.851 5.851c0.151 0.151 0.359 0.244 0.589 0.244 0.46 0 0.833-0.373 0.833-0.833 0-0.23-0.093-0.439-0.244-0.589v0l-24.667-24.667c-0.151-0.151-0.359-0.244-0.589-0.244-0.46 0-0.833 0.373-0.833 0.833 0 0.23 0.093 0.439 0.244 0.589l7.589 7.589zM22.839 19.303l1.228 1.229c0.796-1.342 1.267-2.957 1.267-4.683 0-0.005 0-0.010 0-0.016v0.001c0-0.46-0.373-0.833-0.833-0.833s-0.833 0.373-0.833 0.833v0c0 0.003 0 0.008 0 0.012 0 1.262-0.306 2.452-0.848 3.5l0.020-0.043zM10.727 7.192l10.373 10.373c0.148-0.466 0.233-1.003 0.233-1.559 0-0.002 0-0.004 0-0.006v0-8c0-0.002 0-0.004 0-0.006 0-2.946-2.388-5.333-5.333-5.333-2.662 0-4.869 1.951-5.269 4.501l-0.004 0.030z"></path>
</svg>
