<!-- Generated by IcoMoon.io -->
<svg version="1.1" xmlns="http://www.w3.org/2000/svg" width="32" height="32" viewBox="0 0 32 32">
<title>mic-prohibited-filled</title>
<path d="M9.333 8c0-2.946 2.388-5.333 5.333-5.333s5.333 2.388 5.333 5.333v0 7.331c-2.542 1.082-4.433 3.267-5.088 5.938l-0.012 0.060c-0.070 0.003-0.151 0.005-0.233 0.005-2.946 0-5.333-2.388-5.333-5.333 0-0 0-0 0-0v0-8.001zM14.668 23.5h-0.001c-4.234 0-7.667-3.433-7.667-7.667 0-0.46-0.373-0.833-0.833-0.833s-0.833 0.373-0.833 0.833v0c0 4.817 3.649 8.781 8.333 9.28v3.387c0 0.46 0.373 0.833 0.833 0.833s0.833-0.373 0.833-0.833v0-1.827c-0.402-0.936-0.644-2.023-0.665-3.165l-0-0.008zM23.333 30.667c-4.050 0-7.333-3.283-7.333-7.333s3.283-7.333 7.333-7.333 7.333 3.283 7.333 7.333-3.283 7.333-7.333 7.333zM23.333 29.333c0 0 0 0 0.001 0 3.314 0 6-2.686 6-6 0-1.422-0.495-2.729-1.322-3.757l0.009 0.012-8.433 8.433c1.013 0.817 2.317 1.312 3.736 1.312 0.003 0 0.007 0 0.010 0h-0.001zM18.645 27.079l8.433-8.433c-1.017-0.819-2.325-1.315-3.748-1.315-3.314 0-6 2.686-6 6 0 1.423 0.496 2.731 1.324 3.759l-0.009-0.012z"></path>
</svg>
