<!-- Generated by IcoMoon.io -->
<svg version="1.1" xmlns="http://www.w3.org/2000/svg" width="32" height="32" viewBox="0 0 32 32">
<title>mic-on-filled</title>
<path d="M24.333 14.667c0.506 0 0.925 0.376 0.991 0.864l0.009 0.136v0.667c0 4.746-3.673 8.634-8.332 8.976l-0.001 3.024c0 0.552-0.448 1-1 1-0.506 0-0.925-0.376-0.991-0.864l-0.009-0.136v-3.024c-4.556-0.334-8.17-4.058-8.328-8.661l-0.005-0.315v-0.667c0-0.552 0.448-1 1-1 0.506 0 0.925 0.376 0.991 0.864l0.009 0.136v0.667c0 3.769 2.979 6.843 6.711 6.994l0.289 0.006h0.667c3.769 0 6.843-2.979 6.994-6.711l0.006-0.289v-0.667c0-0.552 0.448-1 1-1zM16 2.667c2.945 0 5.333 2.388 5.333 5.333v8c0 2.945-2.388 5.333-5.333 5.333s-5.333-2.388-5.333-5.333v-8c0-2.946 2.388-5.333 5.333-5.333z"></path>
</svg>
