<!-- Generated by IcoMoon.io -->
<svg version="1.1" xmlns="http://www.w3.org/2000/svg" width="32" height="32" viewBox="0 0 32 32">
<title>mic-pulse-filled</title>
<path d="M14.667 2.667c-2.946 0-5.333 2.388-5.333 5.333v0 8c0 2.945 2.388 5.333 5.333 5.333 0.082 0 0.164-0.002 0.245-0.006l-0.012 0c0.667-2.73 2.558-4.916 5.043-5.976l0.057-0.021v-7.331c0-2.946-2.388-5.333-5.333-5.333v0zM14.667 23.5h0.001c0.021 1.123 0.256 2.193 0.665 3.173v1.827c0 0.46-0.373 0.833-0.833 0.833s-0.833-0.373-0.833-0.833v0-3.387c-4.685-0.498-8.333-4.463-8.333-9.28 0-0.46 0.373-0.833 0.833-0.833s0.833 0.373 0.833 0.833v0c0 4.234 3.433 7.667 7.667 7.667zM30.667 23.333c0 4.050-3.283 7.333-7.333 7.333s-7.333-3.283-7.333-7.333 3.283-7.333 7.333-7.333 7.333 3.283 7.333 7.333zM21.345 19.333c-0.004-0-0.008-0-0.012-0-0.281 0-0.522 0.174-0.62 0.421l-0.002 0.005-1.137 2.931h-0.907c-0.368 0-0.667 0.298-0.667 0.667s0.298 0.667 0.667 0.667v0h1.363c0.281-0 0.522-0.174 0.62-0.421l0.002-0.005 0.649-1.672 1.737 4.961c0.094 0.262 0.34 0.446 0.629 0.446 0.284 0 0.527-0.178 0.623-0.428l0.002-0.005 1.463-3.902 0.317 0.633c0.11 0.217 0.33 0.363 0.584 0.368h0.001l1.333 0.023c0.003 0 0.007 0 0.011 0 0.368 0 0.667-0.299 0.667-0.667 0-0.364-0.292-0.66-0.655-0.667h-0.001l-0.929-0.016-0.819-1.638c-0.112-0.22-0.337-0.368-0.596-0.368-0.284 0-0.526 0.177-0.622 0.427l-0.002 0.005-1.355 3.611-1.725-4.93c-0.092-0.259-0.333-0.442-0.617-0.447h-0.001z"></path>
</svg>
