<!-- Generated by IcoMoon.io -->
<svg version="1.1" xmlns="http://www.w3.org/2000/svg" width="32" height="32" viewBox="0 0 32 32">
<title>mic-prohibited-filled</title>
<path d="M14.9 21.328c0.644-2.718 2.568-4.941 5.1-5.997v-7.331c0-2.946-2.388-5.333-5.333-5.333s-5.333 2.388-5.333 5.333v8c0 2.945 2.388 5.333 5.333 5.333 0.078 0 0.156-0.002 0.233-0.005z"></path>
<path d="M14.667 23.333c0 1.461 0.362 2.838 1 4.046l-0 0.954c0 0.552-0.448 1-1 1-0.506 0-0.925-0.376-0.991-0.864l-0.009-0.136v-3.024c-4.556-0.334-8.17-4.058-8.328-8.661l-0.005-0.315v-0.667c0-0.552 0.448-1 1-1 0.506 0 0.925 0.376 0.991 0.864l0.009 0.136v0.667c0 3.769 2.979 6.843 6.711 6.994l0.289 0.006h0.333z"></path>
<path d="M30.667 23.333c0 4.050-3.283 7.333-7.333 7.333s-7.333-3.283-7.333-7.333c0-4.050 3.283-7.333 7.333-7.333s7.333 3.283 7.333 7.333zM18 23.333c0 1.111 0.34 2.143 0.921 2.998l7.409-7.409c-0.854-0.581-1.886-0.921-2.998-0.921-2.945 0-5.333 2.388-5.333 5.333zM23.333 28.667c2.945 0 5.333-2.388 5.333-5.333 0-1.111-0.34-2.143-0.921-2.998l-7.409 7.409c0.854 0.581 1.886 0.921 2.998 0.921z"></path>
</svg>
