<!-- Generated by IcoMoon.io -->
<svg version="1.1" xmlns="http://www.w3.org/2000/svg" width="32" height="32" viewBox="0 0 32 32">
<title>mic-pulse-off-filled</title>
<path d="M9.333 10.512v5.488c0 2.945 2.388 5.333 5.333 5.333 0.082 0 0.164-0.002 0.245-0.006l-0.012 0c0.327-1.351 0.933-2.529 1.755-3.52l-0.011 0.014 0.948 0.948c-0.992 1.236-1.592 2.824-1.592 4.551 0 0.004 0 0.008 0 0.012v-0.001c0 4.050 3.283 7.333 7.333 7.333 1.725 0 3.311-0.595 4.563-1.592l0.015 0.015c0.151 0.151 0.359 0.244 0.589 0.244 0.46 0 0.833-0.373 0.833-0.833 0-0.23-0.093-0.439-0.244-0.589v0l-25-25c-0.151-0.151-0.359-0.244-0.589-0.244-0.46 0-0.833 0.373-0.833 0.833 0 0.23 0.093 0.438 0.244 0.589l6.423 6.423zM24.681 25.86l-0.391 1.041c-0.098 0.255-0.34 0.433-0.624 0.433-0.289 0-0.535-0.184-0.628-0.441l-0.001-0.005-1.437-4.11 3.082 3.082zM21.146 22.324l-0.495 1.273c-0.099 0.251-0.34 0.425-0.621 0.425h-1.363c-0.368 0-0.667-0.298-0.667-0.667s0.298-0.667 0.667-0.667v0h0.907l0.542-1.395 1.031 1.030zM20.225 16.689l4.707 4.707 0.111-0.297c0.098-0.255 0.34-0.432 0.624-0.432 0.259 0 0.484 0.148 0.594 0.364l0.002 0.004 0.82 1.638 0.929 0.016c0.363 0.006 0.655 0.302 0.655 0.667 0 0.368-0.299 0.667-0.667 0.667-0.004 0-0.008-0-0.012-0h0.001l-0.439-0.007 2.427 2.427c0.436-0.908 0.69-1.974 0.69-3.099 0-0.003 0-0.007 0-0.010v0c0-4.050-3.283-7.333-7.333-7.333-1.111 0-2.165 0.247-3.109 0.689zM9.669 6.134l9.563 9.563c0.249-0.134 0.505-0.256 0.768-0.366v-7.331c0-0.002 0-0.003 0-0.005 0-2.946-2.388-5.333-5.333-5.333-2.277 0-4.221 1.427-4.986 3.435l-0.012 0.037zM14.667 23.5h0.001c0.021 1.123 0.256 2.193 0.665 3.173v1.827c0 0.46-0.373 0.833-0.833 0.833s-0.833-0.373-0.833-0.833v0-3.387c-4.685-0.498-8.333-4.463-8.333-9.28 0-0.46 0.373-0.833 0.833-0.833s0.833 0.373 0.833 0.833v0c0 4.234 3.433 7.667 7.667 7.667z"></path>
</svg>
