<!-- Generated by IcoMoon.io -->
<svg version="1.1" xmlns="http://www.w3.org/2000/svg" width="32" height="32" viewBox="0 0 32 32">
<title>mic-sparkle-filled</title>
<path d="M18.472 20.195c0.404 0.406 0.717 0.904 0.905 1.459l0.008 0.027 0.597 1.836c0.102 0.284 0.37 0.484 0.684 0.484s0.582-0.2 0.682-0.479l0.002-0.005 0.597-1.836c0.386-1.134 1.263-2.010 2.371-2.387l0.027-0.008 1.837-0.597c0.282-0.104 0.479-0.371 0.479-0.683s-0.197-0.579-0.474-0.682l-0.005-0.002-0.037-0.009-1.837-0.597c-1.134-0.385-2.011-1.261-2.389-2.368l-0.008-0.027-0.596-1.836c-0.102-0.285-0.37-0.486-0.685-0.486s-0.583 0.201-0.683 0.481l-0.002 0.005-0.597 1.836c-0.378 1.127-1.24 2.001-2.334 2.387l-0.026 0.008-1.837 0.597c-0.282 0.104-0.479 0.371-0.479 0.683s0.197 0.579 0.474 0.682l0.005 0.002 1.837 0.597c0.56 0.187 1.067 0.501 1.484 0.919zM21.333 8v2.791c-0.209-0.079-0.451-0.124-0.704-0.124-0.891 0-1.65 0.566-1.937 1.359l-0.005 0.014-0.005 0.016-0.601 1.849c-0.244 0.726-0.798 1.29-1.502 1.541l-0.017 0.005-1.84 0.596-0.015 0.007c-0.807 0.291-1.374 1.050-1.374 1.941s0.567 1.651 1.359 1.937l0.014 0.005 0.015 0.005 1.848 0.6c0.352 0.117 0.673 0.315 0.939 0.573-0.452 0.138-0.971 0.218-1.509 0.218-2.946 0-5.333-2.388-5.333-5.333 0-0 0-0 0-0.001v0-7.999c0-2.946 2.388-5.333 5.333-5.333s5.333 2.388 5.333 5.333v0zM16.333 23.333c0.002 0 0.004 0 0.006 0 0.742 0 1.458-0.116 2.129-0.33l-0.050 0.014 0.301 0.927 0.005 0.016c0.119 0.336 0.323 0.635 0.589 0.867-0.679 0.247-1.466 0.419-2.283 0.481l-0.030 0.002-0.001 3.024c-0 0.552-0.448 1-1 1-0.504 0-0.921-0.373-0.99-0.858l-0.001-0.005-0.009-0.136v-3.024c-4.567-0.349-8.162-4.060-8.328-8.646l-0-0.016-0.005-0.315v-0.667c0-0.552 0.448-1 1-1 0.504 0 0.921 0.373 0.99 0.858l0.001 0.005 0.009 0.136v0.667c0 0 0 0 0 0.001 0 3.765 2.972 6.835 6.698 6.994l0.014 0 0.288 0.005h0.667zM29.356 25.287l1.021 0.331 0.020 0.005c0.158 0.057 0.27 0.206 0.27 0.381 0 0.087-0.028 0.168-0.074 0.234l0.001-0.001c-0.048 0.067-0.115 0.118-0.193 0.146l-0.003 0.001-1.020 0.331c-0.631 0.214-1.118 0.7-1.329 1.316l-0.004 0.015-0.331 1.020c-0.057 0.158-0.205 0.269-0.38 0.269s-0.323-0.111-0.379-0.267l-0.001-0.003-0.332-1.019c-0.213-0.632-0.7-1.122-1.317-1.332l-0.015-0.004-1.020-0.332c-0.158-0.057-0.27-0.206-0.27-0.381 0-0.087 0.028-0.168 0.074-0.234l-0.001 0.001c0.048-0.067 0.115-0.118 0.193-0.146l0.003-0.001 1.020-0.331c0.622-0.219 1.102-0.704 1.308-1.316l0.004-0.015 0.332-1.020c0.057-0.158 0.205-0.269 0.38-0.269s0.323 0.111 0.379 0.267l0.001 0.003 0.332 1.019c0.213 0.631 0.7 1.118 1.316 1.328l0.015 0.004z"></path>
</svg>
