<!-- Generated by IcoMoon.io -->
<svg version="1.1" xmlns="http://www.w3.org/2000/svg" width="32" height="32" viewBox="0 0 32 32">
<title>mic-off-filled</title>
<path d="M4.374 2.96c-0.391-0.391-1.024-0.391-1.414-0s-0.391 1.024-0 1.414l7.707 7.707v3.919c0 2.945 2.388 5.333 5.333 5.333 1.111 0 2.143-0.34 2.997-0.921l1.528 1.528c-1.169 0.875-2.62 1.393-4.192 1.393h-0.667l-0.289-0.006c-3.732-0.151-6.711-3.225-6.711-6.994v-0.667l-0.009-0.136c-0.066-0.488-0.485-0.864-0.991-0.864-0.552 0-1 0.448-1 1v0.667l0.005 0.315c0.158 4.602 3.772 8.327 8.328 8.661v3.024l0.009 0.136c0.066 0.488 0.485 0.864 0.991 0.864 0.552 0 1-0.448 1-1l0.001-3.024c1.865-0.137 3.573-0.842 4.949-1.943l5.675 5.675c0.391 0.391 1.024 0.391 1.414 0s0.391-1.024 0-1.414l-24.666-24.667z"></path>
<path d="M22.928 18.686l1.528 1.528c0.562-1.175 0.877-2.491 0.877-3.881v-0.667l-0.009-0.136c-0.066-0.488-0.485-0.864-0.991-0.864-0.552 0-1 0.448-1 1v0.667l-0.006 0.289c-0.029 0.721-0.168 1.415-0.399 2.064z"></path>
<path d="M10.85 6.608l10.39 10.39c0.061-0.323 0.093-0.657 0.093-0.998v-8c0-2.946-2.388-5.333-5.333-5.333-2.464 0-4.537 1.671-5.15 3.941z"></path>
</svg>
