<!-- Generated by IcoMoon.io -->
<svg version="1.1" xmlns="http://www.w3.org/2000/svg" width="32" height="32" viewBox="0 0 32 32">
<title>microscope-filled</title>
<path d="M10.667 3.667c0-0.552 0.448-1 1-1h2c0.552 0 1 0.448 1 1v0.333h1.667c0.552 0 1 0.448 1 1v2.379c0.011 0.001 0.023 0.002 0.034 0.003 2.815 0.266 5.42 1.606 7.274 3.741s2.813 4.903 2.68 7.728c-0.133 2.825-1.349 5.49-3.395 7.441-0.399 0.38-0.823 0.728-1.268 1.041h4.342c0.552 0 1 0.448 1 1s-0.448 1-1 1h-10.628c-0.013 0-0.026 0-0.039 0-0.004 0-0.008-0-0.012-0h-11.321c-0.552 0-1-0.448-1-1s0.448-1 1-1h11.369c2.301-0.009 4.511-0.899 6.177-2.488 1.674-1.597 2.669-3.777 2.778-6.089s-0.677-4.575-2.193-6.323c-1.483-1.708-3.553-2.794-5.797-3.045v6.944c0 0.552-0.448 1-1 1h-1v1.333c0 1.473-1.194 2.667-2.667 2.667s-2.667-1.194-2.667-2.667v-1.333h-1c-0.552 0-1-0.448-1-1v-11.333c0-0.552 0.448-1 1-1h1.667v-0.333zM12 17.333v1.333c0 0.368 0.298 0.667 0.667 0.667s0.667-0.299 0.667-0.667v-1.333h-1.333zM7.667 23.333c-0.552 0-1 0.448-1 1s0.448 1 1 1h10c0.552 0 1-0.448 1-1s-0.448-1-1-1h-10z"></path>
</svg>
