<!-- Generated by IcoMoon.io -->
<svg version="1.1" xmlns="http://www.w3.org/2000/svg" width="32" height="32" viewBox="0 0 32 32">
<title>midi-filled</title>
<path d="M28.333 5.339c0.506 0 0.925 0.376 0.991 0.864l0.009 0.136v19.327c0 0.506-0.376 0.925-0.864 0.991l-0.136 0.009h-24.667c-0.506 0-0.925-0.376-0.991-0.864l-0.009-0.136v-19.327c0-0.506 0.376-0.925 0.864-0.991l0.136-0.009h24.667zM8 16.005h-3.333v8.661h22.667v-8.661h-3.333v5.661c0 0.552-0.448 1-1 1-0.506 0-0.925-0.376-0.991-0.864l-0.009-0.136v-5.661h-2.667v5.661c0 0.552-0.448 1-1 1-0.506 0-0.925-0.376-0.991-0.864l-0.009-0.136v-5.661h-2.667v5.661c0 0.552-0.448 1-1 1-0.506 0-0.925-0.376-0.991-0.864l-0.009-0.136v-5.661h-2.667v5.661c0 0.552-0.448 1-1 1-0.506 0-0.925-0.376-0.991-0.864l-0.009-0.136v-5.661zM23 10.001h-3.333l-0.136 0.009c-0.488 0.066-0.864 0.485-0.864 0.991s0.376 0.925 0.864 0.991l0.136 0.009h3.333l0.136-0.009c0.488-0.066 0.864-0.485 0.864-0.991 0-0.552-0.448-1-1-1zM8.333 9.999c-0.552 0-1 0.448-1 1s0.448 1 1 1c0.552 0 1-0.448 1-1s-0.448-1-1-1zM12.333 9.999c-0.552 0-1 0.448-1 1s0.448 1 1 1c0.552 0 1-0.448 1-1s-0.448-1-1-1z"></path>
</svg>
