<!-- Generated by IcoMoon.io -->
<svg version="1.1" xmlns="http://www.w3.org/2000/svg" width="32" height="32" viewBox="0 0 32 32">
<title>midi-filled</title>
<path d="M28.333 5.339c0.504 0 0.921 0.373 0.99 0.859l0.001 0.005 0.009 0.136v19.327c0 0 0 0.001 0 0.001 0 0.504-0.373 0.921-0.859 0.99l-0.005 0.001-0.136 0.009h-24.667c-0.505-0-0.922-0.374-0.99-0.86l-0.001-0.005-0.009-0.135v-19.328c0-0.504 0.373-0.921 0.859-0.99l0.005-0.001 0.136-0.009h24.667zM8 16.005h-3.333v8.661h22.667v-8.661h-3.333v5.661c-0.001 0.552-0.448 0.998-1 0.998-0.504 0-0.921-0.373-0.99-0.858l-0.001-0.005-0.009-0.135v-5.661h-2.667v5.661c-0.001 0.552-0.448 0.998-1 0.998-0.504 0-0.921-0.373-0.99-0.858l-0.001-0.005-0.009-0.135v-5.661h-2.667v5.661c-0.001 0.552-0.448 0.998-1 0.998-0.504 0-0.921-0.373-0.99-0.858l-0.001-0.005-0.009-0.135v-5.661h-2.667v5.661c-0.001 0.552-0.448 0.998-1 0.998-0.504 0-0.921-0.373-0.99-0.858l-0.001-0.005-0.009-0.135v-5.661zM23 10h-3.333l-0.136 0.009c-0.493 0.067-0.869 0.485-0.869 0.991s0.376 0.924 0.863 0.991l0.005 0.001 0.136 0.008h3.333l0.136-0.008c0.495-0.065 0.874-0.484 0.874-0.992 0-0.552-0.448-1-1-1-0.004 0-0.007 0-0.011 0h0.001zM8.333 10c-0.552 0-1 0.448-1 1s0.448 1 1 1v0c0.552 0 1-0.448 1-1s-0.448-1-1-1v0zM12.333 10c-0.552 0-1 0.448-1 1s0.448 1 1 1v0c0.552 0 1-0.448 1-1s-0.448-1-1-1v0z"></path>
</svg>
