<!-- Generated by IcoMoon.io -->
<svg version="1.1" xmlns="http://www.w3.org/2000/svg" width="32" height="32" viewBox="0 0 32 32">
<title>mobile-optimized-filled</title>
<path d="M25.667 24.667h2.667c0.552 0 1 0.448 1 1 0 0.506-0.376 0.925-0.864 0.991l-0.136 0.009h-1.667v1.667c0 0.552-0.448 1-1 1-0.506 0-0.925-0.376-0.991-0.864l-0.009-0.136v-2.667c0-0.506 0.376-0.925 0.864-0.991l0.136-0.009zM3.667 24.667h2.667c0.506 0 0.925 0.376 0.991 0.864l0.009 0.136v2.667c0 0.552-0.448 1-1 1-0.506 0-0.925-0.376-0.991-0.864l-0.009-0.136v-1.667h-1.667c-0.552 0-1-0.448-1-1 0-0.506 0.376-0.925 0.864-0.991l0.136-0.009zM22.334 7.338c0.552 0 1 0.448 1 1v15.329c0 0.552-0.448 1-1 1h-12.666c-0.552 0-1-0.448-1-1v-15.329c0-0.552 0.448-1 1-1h12.666zM16.336 16.686h-3.336l-0.136 0.009c-0.488 0.066-0.864 0.485-0.864 0.991s0.376 0.925 0.864 0.991l0.136 0.009h3.336l0.136-0.009c0.488-0.066 0.864-0.485 0.864-0.991 0-0.552-0.448-1-1-1zM19.003 12.667h-6.003l-0.136 0.009c-0.488 0.066-0.864 0.485-0.864 0.991s0.376 0.925 0.864 0.991l0.136 0.009h6.003l0.136-0.009c0.488-0.066 0.864-0.485 0.864-0.991 0-0.552-0.448-1-1-1zM6.333 2.667c0.506 0 0.925 0.376 0.991 0.864l0.009 0.136v2.667c0 0.506-0.376 0.925-0.864 0.991l-0.136 0.009h-2.667c-0.552 0-1-0.448-1-1 0-0.506 0.376-0.925 0.864-0.991l0.136-0.009h1.667v-1.667c0-0.552 0.448-1 1-1zM25.667 2.667c0.506 0 0.925 0.376 0.991 0.864l0.009 0.136v1.667h1.667c0.552 0 1 0.448 1 1 0 0.506-0.376 0.925-0.864 0.991l-0.136 0.009h-2.667c-0.506 0-0.925-0.376-0.991-0.864l-0.009-0.136v-2.667c0-0.552 0.448-1 1-1z"></path>
</svg>
