<!-- Generated by IcoMoon.io -->
<svg version="1.1" xmlns="http://www.w3.org/2000/svg" width="32" height="32" viewBox="0 0 32 32">
<title>money-settings-filled</title>
<path d="M5.6 6.4c-1.325 0-2.4 1.075-2.4 2.4v0 11.2c0 1.325 1.075 2.4 2.4 2.4v0h8.835c0.422-4.505 4.184-8.003 8.764-8.003 0.855 0 1.682 0.122 2.463 0.349l-0.062-0.015v-5.931c0-1.325-1.075-2.4-2.4-2.4v0h-17.6zM9.6 9.6c0 1.767-1.433 3.2-3.2 3.2v0h-1.6v-1.6h1.6c0.884 0 1.6-0.716 1.6-1.6v0-1.6h1.6v1.6zM14.4 17.2c-1.546 0-2.8-1.254-2.8-2.8s1.254-2.8 2.8-2.8v0c1.546 0 2.8 1.254 2.8 2.8s-1.254 2.8-2.8 2.8v0zM4.8 17.6v-1.6h1.6c1.767 0 3.2 1.433 3.2 3.2v0 1.6h-1.6v-1.6c0-0.884-0.716-1.6-1.6-1.6v0h-1.6zM20.8 9.6c0 0.884 0.716 1.6 1.6 1.6v0h1.6v1.6h-1.6c-1.767 0-3.2-1.433-3.2-3.2v0-1.6h1.6v1.6zM6.536 24h7.899c0.055 0.594 0.159 1.138 0.311 1.662l-0.015-0.062h-5.931c-0 0-0.001 0-0.001 0-1.039 0-1.923-0.66-2.257-1.583l-0.005-0.017zM28.8 12v4.411c-0.467-0.388-0.991-0.737-1.551-1.028l-0.049-0.023v-5.624c0.94 0.339 1.6 1.224 1.6 2.263 0 0 0 0.001 0 0.001v-0zM19.304 18.309c0.076 0.259 0.119 0.557 0.119 0.865 0 1.486-1.012 2.735-2.385 3.095l-0.022 0.005-0.739 0.189c-0.023 0.221-0.036 0.479-0.036 0.739 0 0.313 0.019 0.621 0.056 0.923l-0.004-0.036 0.56 0.133c1.423 0.345 2.464 1.608 2.464 3.114 0 0.327-0.049 0.642-0.14 0.939l0.006-0.023-0.203 0.675c0.413 0.326 0.859 0.605 1.336 0.829l0.52-0.55c0.585-0.618 1.411-1.003 2.326-1.003 0.917 0 1.745 0.386 2.328 1.005l0.001 0.002 0.539 0.573c0.467-0.216 0.909-0.483 1.315-0.797l-0.25-0.89c-0.076-0.26-0.119-0.558-0.119-0.866 0-1.486 1.012-2.735 2.385-3.095l0.022-0.005 0.736-0.187c0.023-0.222 0.037-0.479 0.037-0.74 0-0.313-0.019-0.621-0.056-0.923l0.004 0.036-0.557-0.131c-1.423-0.345-2.464-1.608-2.464-3.114 0-0.327 0.049-0.643 0.14-0.94l-0.006 0.023 0.202-0.674c-0.388-0.31-0.827-0.587-1.295-0.812l-0.041-0.018-0.52 0.55c-0.585 0.619-1.411 1.004-2.327 1.004s-1.744-0.386-2.327-1.004l-0.001-0.002-0.539-0.573c-0.501 0.234-0.932 0.499-1.329 0.807l0.016-0.012 0.25 0.891zM23.198 24.802c-0.884 0-1.6-0.716-1.6-1.6s0.716-1.6 1.6-1.6v0c0.884 0 1.6 0.716 1.6 1.6s-0.716 1.6-1.6 1.6v0z"></path>
</svg>
