<!-- Generated by IcoMoon.io -->
<svg version="1.1" xmlns="http://www.w3.org/2000/svg" width="32" height="32" viewBox="0 0 32 32">
<title>money-dismiss-filled</title>
<path d="M2.667 9c0-1.288 1.045-2.333 2.333-2.333h18c1.288 0 2.333 1.045 2.333 2.333v5.899c-0.601-0.149-1.291-0.234-2-0.234-4.553 0-8.285 3.51-8.639 7.972l-0.002 0.030h-9.692c-1.289 0-2.333-1.045-2.333-2.333v0-11.333zM6.667 9.667c0 0.552-0.448 1-1 1v0h-1.333v2h1.333c1.657 0 3-1.343 3-3v0-1.333h-2v1.333zM14 18c1.657 0 3-1.343 3-3s-1.343-3-3-3v0c-1.657 0-3 1.343-3 3s1.343 3 3 3v0zM5.667 18.667c0.552 0 1 0.448 1 1v0 1.333h2v-1.333c0-1.657-1.343-3-3-3v0h-1.333v2h1.333zM22.333 10.667c-0.552 0-1-0.448-1-1v0-1.333h-2v1.333c0 1.657 1.343 3 3 3v0h1.333v-2h-1.333zM5.868 24.667h8.9c0.108 0.697 0.299 1.368 0.563 2h-5.997c-0 0-0.001 0-0.001 0-1.473 0-2.76-0.796-3.454-1.981l-0.010-0.019zM27.333 15.643c0.765 0.404 1.422 0.882 2.003 1.44l-0.003-0.003v-3.747c0-0 0-0.001 0-0.001 0-1.473-0.796-2.76-1.981-3.454l-0.019-0.010v5.775zM30.667 23.333c0 4.050-3.283 7.333-7.333 7.333s-7.333-3.283-7.333-7.333v0c0-4.050 3.283-7.333 7.333-7.333s7.333 3.283 7.333 7.333v0zM21.139 20.195c-0.121-0.121-0.288-0.195-0.472-0.195-0.369 0-0.668 0.299-0.668 0.668 0 0.184 0.075 0.351 0.195 0.472v0l2.196 2.195-2.196 2.195c-0.121 0.121-0.195 0.288-0.195 0.472 0 0.369 0.299 0.668 0.668 0.668 0.184 0 0.351-0.075 0.472-0.195l2.195-2.196 2.195 2.196c0.121 0.121 0.288 0.195 0.472 0.195 0.369 0 0.668-0.299 0.668-0.668 0-0.184-0.075-0.351-0.195-0.472l-2.196-2.195 2.196-2.195c0.121-0.121 0.195-0.288 0.195-0.472 0-0.369-0.299-0.668-0.668-0.668-0.184 0-0.351 0.075-0.472 0.195l-2.195 2.196-2.195-2.196z"></path>
</svg>
