<!-- Generated by IcoMoon.io -->
<svg version="1.1" xmlns="http://www.w3.org/2000/svg" width="32" height="32" viewBox="0 0 32 32">
<title>money-off-filled</title>
<path d="M4.373 2.96c-0.178-0.166-0.418-0.268-0.682-0.268-0.552 0-1 0.448-1 1 0 0.264 0.102 0.504 0.269 0.682l-0.001-0.001 2.293 2.293h-0.253c-1.289 0-2.333 1.045-2.333 2.333v0 11.333c0 1.288 1.045 2.333 2.333 2.333h16.253l1.992 1.993c-0.072 0.004-0.157 0.007-0.242 0.007-0.001 0-0.002 0-0.003 0h-17.132c0.704 1.204 1.991 2 3.463 2 0.001 0 0.001 0 0.002 0h13.667c0.68 0 1.333-0.107 1.947-0.305l2.68 2.68c0.182 0.188 0.437 0.305 0.719 0.305 0.552 0 1-0.448 1-1 0-0.282-0.117-0.538-0.305-0.719l-24.667-24.667zM15.904 17.319c-0.514 0.425-1.18 0.683-1.906 0.683-1.657 0-3-1.343-3-3 0-0.726 0.258-1.392 0.687-1.911l-0.004 0.005 4.223 4.223zM6.92 8.333l1.723 1.723c-0.199 1.481-1.455 2.611-2.975 2.611-0 0-0.001 0-0.001 0h-1.333v-2h1.333c0.552 0 1-0.448 1-1v0-1.333h0.253zM5.667 18.667h-1.333v-2h1.333c1.657 0 3 1.343 3 3v0 1.333h-2v-1.333c0-0.552-0.448-1-1-1v0zM23.667 18.667h-0.76l2.331 2.331c0.063-0.211 0.096-0.433 0.096-0.664v-11.333c0-1.289-1.045-2.333-2.333-2.333v0h-12.093l10.244 10.243c0.348-0.153 0.753-0.243 1.179-0.243 0.001 0 0.002 0 0.004 0h1.333v2zM21.333 8.333v1.333c0 0.552 0.448 1 1 1h1.333v2h-1.333c-1.657 0-3-1.343-3-3v0-1.333h2zM26.749 22.508l1.447 1.447c0.717-1.027 1.137-2.275 1.137-3.621v-7c0-0 0-0.001 0-0.001 0-1.473-0.796-2.76-1.981-3.454l-0.019-0.010v10.465c0 0.792-0.213 1.536-0.584 2.175z"></path>
</svg>
