<!-- Generated by IcoMoon.io -->
<svg version="1.1" xmlns="http://www.w3.org/2000/svg" width="32" height="32" viewBox="0 0 32 32">
<title>money-filled</title>
<path d="M2.667 9c0-1.289 1.045-2.333 2.333-2.333h18c1.289 0 2.333 1.045 2.333 2.333v11.333c0 1.289-1.045 2.333-2.333 2.333h-18c-1.289 0-2.333-1.045-2.333-2.333v-11.333zM6.667 8.333v1.333c0 0.552-0.448 1-1 1h-1.333v2h1.333c1.657 0 3-1.343 3-3v-1.333h-2zM14 18c1.657 0 3-1.343 3-3s-1.343-3-3-3c-1.657 0-3 1.343-3 3s1.343 3 3 3zM4.333 18.667h1.333c0.552 0 1 0.448 1 1v1.333h2v-1.333c0-1.657-1.343-3-3-3h-1.333v2zM21.333 19.667c0-0.552 0.448-1 1-1h1.333v-2h-1.333c-1.657 0-3 1.343-3 3v1.333h2v-1.333zM21.333 9.667v-1.333h-2v1.333c0 1.657 1.343 3 3 3h1.333v-2h-1.333c-0.552 0-1-0.448-1-1z"></path>
<path d="M5.868 24.667c0.692 1.196 1.984 2 3.465 2h13.667c3.498 0 6.333-2.835 6.333-6.333v-7c0-1.481-0.804-2.773-2-3.465v10.465c0 2.393-1.94 4.333-4.333 4.333h-17.132z"></path>
</svg>
