<!-- Generated by IcoMoon.io -->
<svg version="1.1" xmlns="http://www.w3.org/2000/svg" width="32" height="32" viewBox="0 0 32 32">
<title>money-calculator-filled</title>
<path d="M2.667 7.667c0-1.288 1.045-2.333 2.333-2.333h18c1.288 0 2.333 1.045 2.333 2.333v7h-4c-1.473 0-2.667 1.194-2.667 2.667v0 4h-13.667c-1.289 0-2.333-1.045-2.333-2.333v0-11.333zM6.667 8.333c0 0.552-0.448 1-1 1v0h-1.333v2h1.333c1.657 0 3-1.343 3-3v0-1.333h-2v1.333zM14 16.667c1.657 0 3-1.343 3-3s-1.343-3-3-3v0c-1.657 0-3 1.343-3 3s1.343 3 3 3v0zM5.667 17.333c0.552 0 1 0.448 1 1v0 1.333h2v-1.333c0-1.657-1.343-3-3-3v0h-1.333v2h1.333zM22.333 9.333c-0.552 0-1-0.448-1-1v0-1.333h-2v1.333c0 1.657 1.343 3 3 3v0h1.333v-2h-1.333zM5.868 23.333h12.799v2h-9.333c-0 0-0.001 0-0.001 0-1.473 0-2.76-0.796-3.454-1.981l-0.010-0.019zM29.333 12v2.667h-2v-6.132c1.204 0.704 2 1.991 2 3.463 0 0.001 0 0.001 0 0.002v-0zM22 16c-1.105 0-2 0.895-2 2v0 10.667c0 1.105 0.895 2 2 2v0h6.667c1.105 0 2-0.895 2-2v0-10.667c0-1.105-0.895-2-2-2v0h-6.667zM22.667 22h1.333c0.368 0 0.667 0.298 0.667 0.667s-0.298 0.667-0.667 0.667v0h-1.333c-0.368 0-0.667-0.298-0.667-0.667s0.298-0.667 0.667-0.667v0zM26.667 22h1.333c0.368 0 0.667 0.298 0.667 0.667s-0.298 0.667-0.667 0.667v0h-1.333c-0.368 0-0.667-0.298-0.667-0.667s0.298-0.667 0.667-0.667v0zM22.667 24.667h1.333c0.368 0 0.667 0.298 0.667 0.667s-0.298 0.667-0.667 0.667v0h-1.333c-0.368 0-0.667-0.298-0.667-0.667s0.298-0.667 0.667-0.667v0zM26.667 24.667h1.333c0.368 0 0.667 0.298 0.667 0.667s-0.298 0.667-0.667 0.667v0h-1.333c-0.368 0-0.667-0.298-0.667-0.667s0.298-0.667 0.667-0.667v0zM22.667 27.333h1.333c0.368 0 0.667 0.298 0.667 0.667s-0.298 0.667-0.667 0.667v0h-1.333c-0.368 0-0.667-0.298-0.667-0.667s0.298-0.667 0.667-0.667v0zM26.667 27.333h1.333c0.368 0 0.667 0.298 0.667 0.667s-0.298 0.667-0.667 0.667v0h-1.333c-0.368 0-0.667-0.298-0.667-0.667s0.298-0.667 0.667-0.667v0zM22 18.667c0-0.368 0.298-0.667 0.667-0.667v0h5.333c0.368 0 0.667 0.298 0.667 0.667v0 1.333c0 0.368-0.298 0.667-0.667 0.667v0h-5.333c-0.368 0-0.667-0.298-0.667-0.667v0-1.333z"></path>
</svg>
