<!-- Generated by IcoMoon.io -->
<svg version="1.1" xmlns="http://www.w3.org/2000/svg" width="32" height="32" viewBox="0 0 32 32">
<title>money-filled</title>
<path d="M2.667 9c0-1.288 1.045-2.333 2.333-2.333h18c1.288 0 2.333 1.045 2.333 2.333v11.333c0 1.289-1.045 2.333-2.333 2.333v0h-18c-1.289 0-2.333-1.045-2.333-2.333v0-11.333zM6.667 8.333v1.333c0 0.552-0.448 1-1 1v0h-1.333v2h1.333c1.657 0 3-1.343 3-3v0-1.333h-2zM14 18c1.657 0 3-1.343 3-3s-1.343-3-3-3v0c-1.657 0-3 1.343-3 3s1.343 3 3 3v0zM4.333 18.667h1.333c0.552 0 1 0.448 1 1v0 1.333h2v-1.333c0-1.657-1.343-3-3-3v0h-1.333v2zM21.333 19.667c0-0.552 0.448-1 1-1v0h1.333v-2h-1.333c-1.657 0-3 1.343-3 3v0 1.333h2v-1.333zM21.333 9.667v-1.333h-2v1.333c0 1.657 1.343 3 3 3v0h1.333v-2h-1.333c-0.552 0-1-0.448-1-1v0zM5.868 24.667c0.704 1.204 1.991 2 3.463 2 0.001 0 0.001 0 0.002 0h13.667c3.498 0 6.333-2.836 6.333-6.333v0-7c0-0 0-0.001 0-0.001 0-1.473-0.796-2.76-1.981-3.454l-0.019-0.010v10.465c0 2.393-1.94 4.333-4.333 4.333v0h-17.132z"></path>
</svg>
