<!-- Generated by IcoMoon.io -->
<svg version="1.1" xmlns="http://www.w3.org/2000/svg" width="32" height="32" viewBox="0 0 32 32">
<title>multiplier-1-8x-filled</title>
<path d="M20.667 12.667c0 0.989-0.438 1.823-1.113 2.429 1.071 0.779 1.78 1.99 1.78 3.405 0 2.481-2.181 4.333-4.667 4.333s-4.667-1.853-4.667-4.333c0-1.415 0.709-2.625 1.78-3.405-0.675-0.606-1.113-1.44-1.113-2.429 0-2.096 1.969-3.5 4-3.5s4 1.404 4 3.5zM16.667 11.167c-1.283 0-2 0.835-2 1.5s0.717 1.5 2 1.5 2-0.835 2-1.5-0.717-1.5-2-1.5zM14 18.5c0 1.201 1.102 2.333 2.667 2.333s2.667-1.132 2.667-2.333-1.102-2.333-2.667-2.333-2.667 1.132-2.667 2.333zM24.373 16.293c-0.178-0.166-0.418-0.268-0.682-0.268-0.552 0-1 0.448-1 1 0 0.264 0.102 0.504 0.269 0.682l-0.001-0.001 1.625 1.627-1.627 1.627c-0.174 0.18-0.28 0.424-0.28 0.694 0 0.552 0.448 1 1 1 0.27 0 0.515-0.107 0.695-0.281l-0 0 1.627-1.625 1.627 1.627c0.18 0.174 0.424 0.28 0.694 0.28 0.552 0 1-0.448 1-1 0-0.27-0.107-0.515-0.281-0.695l0 0-1.625-1.627 1.627-1.627c0.174-0.18 0.28-0.424 0.28-0.694 0-0.552-0.448-1-1-1-0.27 0-0.515 0.107-0.695 0.281l0-0-1.627 1.625-1.627-1.627zM11 21.833c0 0.46-0.373 0.833-0.833 0.833s-0.833-0.373-0.833-0.833v0c0-0.46 0.373-0.833 0.833-0.833s0.833 0.373 0.833 0.833v0zM7.267 9.369c0.426 0.121 0.733 0.506 0.733 0.964 0 0 0 0 0 0v0 11.333c0 0.552-0.448 1-1 1s-1-0.448-1-1v0-8.552c-0.536 0.522-1.132 0.987-1.774 1.384l-0.044 0.025c-0.149 0.093-0.33 0.148-0.523 0.148-0.552 0-1-0.448-1-1 0-0.366 0.196-0.685 0.489-0.86l0.005-0.003c0.915-0.549 1.668-1.296 2.199-1.924 0.252-0.296 0.498-0.622 0.726-0.963l0.024-0.039 0.035-0.055 0.007-0.011h0.001c0.178-0.293 0.495-0.485 0.857-0.485 0.095 0 0.187 0.013 0.274 0.038l-0.007-0.002z"></path>
</svg>
