<!-- Generated by IcoMoon.io -->
<svg version="1.1" xmlns="http://www.w3.org/2000/svg" width="32" height="32" viewBox="0 0 32 32">
<title>multiplier-5x-filled</title>
<path d="M9.677 10.192c0.072-0.488 0.488-0.859 0.99-0.859 0 0 0 0 0 0h6c0.552 0 1 0.448 1 1s-0.448 1-1 1v0h-5.133l-0.365 2.556 2.083-0.189c0.129-0.013 0.279-0.020 0.431-0.020 2.574 0 4.66 2.086 4.66 4.66s-2.086 4.66-4.66 4.66c-0.003 0-0.006 0-0.010 0h-0.376c-0 0-0 0-0.001 0-1.484 0-2.817-0.642-3.739-1.662l-0.004-0.004-0.297-0.331c-0.167-0.178-0.269-0.418-0.269-0.682 0-0.552 0.448-1 1-1 0.301 0 0.571 0.133 0.755 0.344l0.001 0.001 0.297 0.33c0.558 0.618 1.362 1.005 2.257 1.005h0.377c0.003 0 0.007 0 0.011 0 1.469 0 2.66-1.191 2.66-2.66s-1.191-2.66-2.66-2.66c-0.089 0-0.177 0.004-0.263 0.013l0.011-0.001-3.343 0.304c-0.027 0.003-0.058 0.004-0.090 0.004-0.552 0-1-0.448-1-1 0-0.050 0.004-0.099 0.011-0.147l-0.001 0.005 0.667-4.667zM19.626 16.293c0.181-0.181 0.431-0.293 0.707-0.293s0.526 0.112 0.707 0.293l1.626 1.627 1.627-1.627c0.18-0.174 0.424-0.28 0.694-0.28 0.552 0 1 0.448 1 1 0 0.27-0.107 0.515-0.281 0.695l0-0-1.625 1.625 1.627 1.627c0.174 0.18 0.28 0.424 0.28 0.694 0 0.552-0.448 1-1 1-0.27 0-0.515-0.107-0.695-0.281l0 0-1.627-1.625-1.627 1.627c-0.18 0.174-0.424 0.28-0.694 0.28-0.552 0-1-0.448-1-1 0-0.27 0.107-0.515 0.281-0.695l-0 0 1.625-1.627-1.627-1.627c-0.181-0.181-0.292-0.431-0.292-0.707s0.112-0.526 0.292-0.707v0zM6.833 22.667c0.46 0 0.833-0.373 0.833-0.833s-0.373-0.833-0.833-0.833v0c-0.46 0-0.833 0.373-0.833 0.833s0.373 0.833 0.833 0.833v0z"></path>
</svg>
