<!-- Generated by IcoMoon.io -->
<svg version="1.1" xmlns="http://www.w3.org/2000/svg" width="32" height="32" viewBox="0 0 32 32">
<title>multiplier-1x-filled</title>
<path d="M13.333 10.333c0-0 0-0 0-0 0-0.552-0.448-1-1-1-0.362 0-0.679 0.192-0.854 0.48l-0.002 0.004v0.001l-0.007 0.011c-0.071 0.115-0.132 0.205-0.196 0.293l0.011-0.016c-0.135 0.193-0.337 0.468-0.601 0.779-0.532 0.629-1.284 1.375-2.199 1.924-0.298 0.177-0.494 0.497-0.494 0.862 0 0.552 0.448 1 1 1 0.194 0 0.374-0.055 0.527-0.15l-0.004 0.002c0.687-0.422 1.283-0.887 1.821-1.412l-0.002 0.002v8.552c0 0.552 0.448 1 1 1s1-0.448 1-1v0-11.333zM17.707 16.293c-0.178-0.166-0.418-0.268-0.682-0.268-0.552 0-1 0.448-1 1 0 0.264 0.102 0.504 0.269 0.682l-0.001-0.001 1.625 1.627-1.627 1.627c-0.174 0.18-0.28 0.424-0.28 0.694 0 0.552 0.448 1 1 1 0.27 0 0.515-0.107 0.695-0.281l-0 0 1.627-1.625 1.627 1.627c0.18 0.174 0.424 0.28 0.694 0.28 0.552 0 1-0.448 1-1 0-0.27-0.107-0.515-0.281-0.695l0 0-1.625-1.627 1.627-1.627c0.174-0.18 0.28-0.424 0.28-0.694 0-0.552-0.448-1-1-1-0.27 0-0.515 0.107-0.695 0.281l0-0-1.627 1.625-1.627-1.627z"></path>
</svg>
