<!-- Generated by IcoMoon.io -->
<svg version="1.1" xmlns="http://www.w3.org/2000/svg" width="32" height="32" viewBox="0 0 32 32">
<title>multiplier-5x-filled</title>
<path d="M9.347 10.478c0.094-0.657 0.656-1.145 1.32-1.145h5.333c0.736 0 1.333 0.597 1.333 1.333s-0.597 1.333-1.333 1.333h-4.177l-0.248 1.735 0.467-0.074c2.953-0.466 5.625 1.816 5.625 4.806 0 2.701-2.219 4.866-4.893 4.866-1.379 0-2.713-0.581-3.646-1.61l-0.448-0.494c-0.495-0.545-0.454-1.389 0.092-1.883s1.389-0.454 1.883 0.092l0.448 0.494c0.421 0.464 1.034 0.735 1.671 0.735 1.228 0 2.227-0.998 2.227-2.199 0-1.351-1.207-2.383-2.542-2.172l-2.25 0.355c-0.418 0.066-0.842-0.070-1.144-0.367s-0.444-0.719-0.384-1.138l0.667-4.667zM19.057 16.391c0.521-0.521 1.365-0.521 1.886 0l1.057 1.057 1.057-1.057c0.521-0.521 1.365-0.521 1.886 0s0.521 1.365 0 1.886l-1.057 1.057 1.057 1.057c0.521 0.521 0.521 1.365 0 1.886s-1.365 0.521-1.886 0l-1.057-1.057-1.057 1.057c-0.521 0.521-1.365 0.521-1.886 0s-0.521-1.365 0-1.886l1.057-1.057-1.057-1.057c-0.521-0.521-0.521-1.365 0-1.886zM6.333 22.667c0.552 0 1-0.448 1-1s-0.448-1-1-1c-0.552 0-1 0.448-1 1s0.448 1 1 1z"></path>
</svg>
