<!-- Generated by IcoMoon.io -->
<svg version="1.1" xmlns="http://www.w3.org/2000/svg" width="32" height="32" viewBox="0 0 32 32">
<title>multiplier-1-2x-filled</title>
<path d="M13.56 13.494c0.032 0.004 0.069 0.006 0.107 0.006 0.51 0 0.931-0.382 0.992-0.875l0.001-0.005 0.005-0.028c0.056-0.255 0.16-0.479 0.302-0.674l-0.004 0.005c0.236-0.323 0.727-0.757 1.869-0.757 1.029 0 1.702 0.337 2.085 0.791s0.607 1.175 0.43 2.206c-0.1 0.582-0.383 0.914-0.85 1.203-0.397 0.246-0.84 0.414-1.387 0.623-0.223 0.085-0.463 0.176-0.724 0.281-0.827 0.335-1.789 0.795-2.527 1.658-0.764 0.891-1.193 2.095-1.193 3.737 0 0.552 0.448 1 1 1v0h6.667c0.552 0 1-0.448 1-1s-0.448-1-1-1v0h-5.587c0.12-0.675 0.36-1.119 0.632-1.437 0.413-0.482 0.997-0.797 1.758-1.105 0.161-0.065 0.339-0.132 0.525-0.203 0.607-0.23 1.314-0.499 1.888-0.853 0.841-0.521 1.551-1.3 1.769-2.566 0.252-1.469-0.024-2.831-0.873-3.836-0.849-1.004-2.142-1.5-3.613-1.5-1.773 0-2.867 0.733-3.483 1.576-0.305 0.414-0.53 0.906-0.643 1.44l-0.004 0.025c-0.008 0.037-0.017 0.091-0.025 0.146l-0.002 0.014-0.002 0.015v0.007l-0.001 0.003v0.001c0 0.001-0.021 0.2 0 0.001-0.004 0.032-0.006 0.068-0.006 0.106 0 0.515 0.389 0.939 0.889 0.994l0.005 0zM24.373 16.293c-0.18-0.174-0.424-0.28-0.694-0.28-0.552 0-1 0.448-1 1 0 0.27 0.107 0.515 0.281 0.695l-0-0 1.625 1.626-1.627 1.627c-0.174 0.18-0.28 0.424-0.28 0.694 0 0.552 0.448 1 1 1 0.27 0 0.515-0.107 0.695-0.281l-0 0 1.627-1.625 1.627 1.627c0.18 0.174 0.424 0.28 0.694 0.28 0.552 0 1-0.448 1-1 0-0.27-0.107-0.515-0.281-0.695l0 0-1.625-1.627 1.627-1.627c0.174-0.18 0.28-0.424 0.28-0.694 0-0.552-0.448-1-1-1-0.27 0-0.515 0.107-0.695 0.281l0-0-1.627 1.625-1.627-1.627zM11 21.833c0 0.46-0.373 0.833-0.833 0.833s-0.833-0.373-0.833-0.833v0c0-0.46 0.373-0.833 0.833-0.833s0.833 0.373 0.833 0.833v0zM7.267 9.369c0.426 0.121 0.733 0.506 0.733 0.964 0 0 0 0 0 0v0 11.333c0 0.552-0.448 1-1 1s-1-0.448-1-1v0-8.552c-0.536 0.522-1.132 0.987-1.774 1.384l-0.044 0.025c-0.149 0.093-0.33 0.148-0.523 0.148-0.552 0-1-0.448-1-1 0-0.366 0.196-0.685 0.489-0.86l0.005-0.003c0.915-0.549 1.668-1.296 2.199-1.924 0.252-0.296 0.498-0.622 0.726-0.963l0.024-0.039 0.035-0.055 0.007-0.011h0.001c0.178-0.293 0.495-0.485 0.857-0.485 0.095 0 0.187 0.013 0.274 0.038l-0.007-0.002z"></path>
</svg>
