<!-- Generated by IcoMoon.io -->
<svg version="1.1" xmlns="http://www.w3.org/2000/svg" width="32" height="32" viewBox="0 0 32 32">
<title>multiplier-1x-filled</title>
<path d="M13.334 10.536c0-0.598-0.398-1.123-0.973-1.284s-1.188 0.080-1.499 0.591c-0.032 0.053-0.065 0.107-0.097 0.161-0.537 0.889-1.123 1.858-2.783 2.854-0.631 0.379-0.836 1.198-0.457 1.83s1.198 0.836 1.829 0.457c0.504-0.302 0.937-0.609 1.314-0.914v7.105c0 0.737 0.597 1.334 1.334 1.333s1.333-0.597 1.333-1.333v-10.799zM18.276 16.392c-0.521-0.521-1.365-0.521-1.886 0s-0.521 1.365 0 1.886l1.057 1.057-1.057 1.057c-0.521 0.521-0.521 1.365 0 1.886s1.365 0.521 1.886 0l1.057-1.057 1.057 1.057c0.521 0.521 1.365 0.521 1.886 0s0.521-1.365 0-1.886l-1.057-1.057 1.057-1.057c0.521-0.521 0.521-1.365 0-1.886s-1.365-0.521-1.886 0l-1.057 1.057-1.057-1.057z"></path>
</svg>
