<!-- Generated by IcoMoon.io -->
<svg version="1.1" xmlns="http://www.w3.org/2000/svg" width="32" height="32" viewBox="0 0 32 32">
<title>multiselect-rtl-filled</title>
<path d="M28.944 4.391c-0.241-0.242-0.575-0.391-0.943-0.391s-0.702 0.149-0.943 0.391v0l-1.724 1.724-0.389-0.391c-0.241-0.242-0.575-0.391-0.943-0.391-0.737 0-1.334 0.597-1.334 1.334 0 0.368 0.149 0.701 0.39 0.943l1.333 1.333c0.241 0.242 0.575 0.391 0.943 0.391s0.702-0.149 0.943-0.391v0l2.667-2.667c0.241-0.241 0.39-0.575 0.39-0.943s-0.149-0.701-0.39-0.943v0zM4 22.657h14.672c0.003-0 0.007-0 0.011-0 0.736 0 1.333 0.597 1.333 1.333 0 0.685-0.517 1.25-1.182 1.325l-0.006 0.001-0.156 0.008h-14.672c-0.736-0.001-1.332-0.597-1.332-1.333 0-0.681 0.51-1.243 1.169-1.323l0.006-0.001 0.156-0.009zM4 14.667h14.672c0.736 0.001 1.332 0.597 1.332 1.333 0 0.681-0.51 1.243-1.169 1.323l-0.006 0.001-0.156 0.009h-14.672c-0.736-0.001-1.332-0.597-1.332-1.333 0-0.681 0.51-1.243 1.169-1.323l0.006-0.001 0.156-0.009zM4 6.667h14.672c0.736 0.001 1.332 0.597 1.332 1.333 0 0.681-0.51 1.243-1.169 1.323l-0.006 0.001-0.157 0.009h-14.671c-0.736-0.001-1.332-0.597-1.332-1.333 0-0.681 0.51-1.243 1.169-1.323l0.006-0.001 0.156-0.009zM27.057 21.724c0.241-0.242 0.575-0.391 0.943-0.391 0.737 0 1.334 0.597 1.334 1.334 0 0.368-0.149 0.701-0.39 0.943l-2.667 2.667c-0.241 0.242-0.575 0.391-0.943 0.391s-0.702-0.149-0.943-0.391v0l-1.333-1.333c-0.241-0.241-0.39-0.575-0.39-0.943 0-0.737 0.597-1.334 1.334-1.334 0.368 0 0.702 0.149 0.943 0.391l0.391 0.391 1.723-1.724z"></path>
</svg>
