<!-- Generated by IcoMoon.io -->
<svg version="1.1" xmlns="http://www.w3.org/2000/svg" width="32" height="32" viewBox="0 0 32 32">
<title>multiplier-1-5x-filled</title>
<path d="M8 10.534c0-0.598-0.398-1.123-0.973-1.284s-1.188 0.080-1.499 0.591c-0.032 0.053-0.065 0.107-0.098 0.161-0.537 0.889-1.123 1.858-2.783 2.854-0.631 0.379-0.836 1.198-0.457 1.83s1.198 0.836 1.829 0.457c0.503-0.302 0.937-0.609 1.314-0.914v7.105c0 0.737 0.597 1.334 1.334 1.334s1.333-0.597 1.333-1.334v-10.799zM14.666 9.331c-0.663 0-1.226 0.488-1.32 1.145l-0.667 4.667c-0.060 0.419 0.083 0.841 0.384 1.138s0.726 0.433 1.144 0.367l2.427-0.383c1.242-0.196 2.365 0.764 2.365 2.021 0 1.13-0.916 2.046-2.046 2.046h-0.362c-0.586 0-1.153-0.214-1.593-0.602l-0.451-0.398c-0.552-0.487-1.395-0.434-1.882 0.118s-0.434 1.395 0.118 1.882l0.451 0.398c0.927 0.818 2.121 1.269 3.357 1.269h0.362c2.603 0 4.712-2.11 4.712-4.713 0-2.896-2.587-5.107-5.447-4.655l-0.644 0.102 0.248-1.735h4.177c0.736 0 1.333-0.597 1.333-1.334s-0.597-1.334-1.333-1.334h-5.333zM24.943 16.39c-0.521-0.521-1.365-0.521-1.886 0s-0.521 1.365 0 1.886l1.057 1.057-1.057 1.057c-0.521 0.521-0.521 1.365 0 1.886s1.365 0.521 1.886 0l1.057-1.057 1.057 1.057c0.521 0.521 1.365 0.521 1.886 0s0.521-1.365 0-1.886l-1.057-1.057 1.057-1.057c0.521-0.521 0.521-1.365 0-1.886s-1.365-0.521-1.886 0l-1.057 1.057-1.057-1.057zM11.333 21.667c0 0.552-0.448 1-1 1s-1-0.448-1-1c0-0.552 0.448-1 1-1s1 0.448 1 1z"></path>
</svg>
