<!-- Generated by IcoMoon.io -->
<svg version="1.1" xmlns="http://www.w3.org/2000/svg" width="32" height="32" viewBox="0 0 32 32">
<title>multiplier-1-8x-filled</title>
<path d="M21.333 12.667c0 0.879-0.317 1.643-0.828 2.243 0.92 0.852 1.495 2.071 1.495 3.423 0 2.577-2.089 4.667-4.667 4.667s-4.667-2.089-4.667-4.667c0-1.353 0.576-2.571 1.495-3.423-0.511-0.6-0.828-1.365-0.828-2.243 0-2.187 1.964-3.667 4-3.667s4 1.48 4 3.667zM17.333 11.667c-0.909 0-1.333 0.609-1.333 1s0.424 1 1.333 1c0.909 0 1.333-0.609 1.333-1s-0.424-1-1.333-1zM15.333 18.333c0 1.105 0.895 2 2 2s2-0.895 2-2c0-1.105-0.895-2-2-2s-2 0.895-2 2zM10.333 22.667c0.552 0 1-0.448 1-1s-0.448-1-1-1c-0.552 0-1 0.448-1 1s0.448 1 1 1zM23.057 16.391c0.521-0.521 1.365-0.521 1.886 0l1.057 1.057 1.057-1.057c0.521-0.521 1.365-0.521 1.886 0s0.521 1.365 0 1.886l-1.057 1.057 1.057 1.057c0.521 0.521 0.521 1.365 0 1.886s-1.365 0.521-1.886 0l-1.057-1.057-1.057 1.057c-0.521 0.521-1.365 0.521-1.886 0s-0.521-1.365 0-1.886l1.057-1.057-1.057-1.057c-0.521-0.521-0.521-1.365 0-1.886zM8 10.535c0-0.598-0.398-1.122-0.973-1.284s-1.188 0.080-1.499 0.59c-0.032 0.053-0.065 0.107-0.097 0.161-0.537 0.889-1.123 1.857-2.783 2.854-0.631 0.379-0.836 1.198-0.457 1.829s1.198 0.836 1.829 0.457c0.503-0.302 0.937-0.609 1.314-0.914v7.104c0 0.736 0.597 1.333 1.334 1.333s1.333-0.597 1.333-1.333v-10.798z"></path>
</svg>
