<!-- Generated by IcoMoon.io -->
<svg version="1.1" xmlns="http://www.w3.org/2000/svg" width="32" height="32" viewBox="0 0 32 32">
<title>multiplier-1-5x-filled</title>
<path d="M7.267 9.37c0.426 0.121 0.733 0.506 0.733 0.963v11.333c0 0.552-0.448 1-1 1s-1-0.448-1-1v0-8.552c-0.536 0.522-1.132 0.987-1.774 1.384l-0.044 0.025c-0.145 0.086-0.32 0.138-0.506 0.138-0.552 0-1-0.448-1-1 0-0.359 0.189-0.673 0.473-0.85l0.004-0.002c0.915-0.549 1.668-1.295 2.199-1.924 0.252-0.296 0.498-0.622 0.726-0.963l0.024-0.039 0.035-0.055 0.007-0.011h0.001c0.178-0.292 0.495-0.484 0.857-0.484 0.095 0 0.187 0.013 0.274 0.038l-0.007-0.002zM14 9.333c0 0-0 0-0 0-0.502 0-0.918 0.371-0.989 0.853l-0.001 0.005-0.667 4.667c-0.006 0.043-0.010 0.091-0.010 0.141 0 0.552 0.448 1 1 1 0.032 0 0.063-0.001 0.094-0.004l-0.004 0 3.343-0.304c0.076-0.008 0.163-0.012 0.252-0.012 1.469 0 2.66 1.191 2.66 2.66s-1.191 2.66-2.66 2.66c-0.004 0-0.009 0-0.013-0h-0.613c-0 0-0 0-0 0-0.874 0-1.666-0.354-2.239-0.927l-0.447-0.447c-0.18-0.174-0.425-0.28-0.694-0.28-0.552 0-1 0.448-1 1 0 0.27 0.107 0.515 0.281 0.695l-0-0 0.446 0.447c0.935 0.935 2.226 1.513 3.653 1.513 0 0 0 0 0.001 0h0.615c2.573-0 4.659-2.087 4.659-4.66v0c0-2.739-2.353-4.888-5.081-4.64l-2.083 0.189 0.365-2.556h5.133c0.552 0 1-0.448 1-1s-0.448-1-1-1v0h-6zM24.373 16.293c-0.178-0.166-0.418-0.268-0.682-0.268-0.552 0-1 0.448-1 1 0 0.264 0.102 0.504 0.269 0.682l-0.001-0.001 1.625 1.627-1.627 1.627c-0.174 0.18-0.28 0.424-0.28 0.694 0 0.552 0.448 1 1 1 0.27 0 0.515-0.107 0.695-0.281l-0 0 1.627-1.625 1.627 1.627c0.18 0.174 0.424 0.28 0.694 0.28 0.552 0 1-0.448 1-1 0-0.27-0.107-0.515-0.281-0.695l0 0-1.625-1.627 1.627-1.627c0.174-0.18 0.28-0.424 0.28-0.694 0-0.552-0.448-1-1-1-0.27 0-0.515 0.107-0.695 0.281l0-0-1.627 1.625-1.627-1.627zM11 21.833c0 0.46-0.373 0.833-0.833 0.833s-0.833-0.373-0.833-0.833v0c0-0.46 0.373-0.833 0.833-0.833s0.833 0.373 0.833 0.833v0z"></path>
</svg>
