<!-- Generated by IcoMoon.io -->
<svg version="1.1" xmlns="http://www.w3.org/2000/svg" width="32" height="32" viewBox="0 0 32 32">
<title>multiselect-filled</title>
<path d="M8.943 4.391c-0.521-0.521-1.365-0.521-1.886 0l-1.724 1.724-0.391-0.391c-0.521-0.521-1.365-0.521-1.886 0s-0.521 1.365 0 1.886l1.333 1.333c0.521 0.521 1.365 0.521 1.886 0l2.667-2.667c0.521-0.521 0.521-1.365 0-1.886zM13.333 22.658h14.672c0.736 0 1.333 0.597 1.333 1.333 0 0.684-0.515 1.247-1.178 1.324l-0.156 0.009h-14.672c-0.736 0-1.333-0.597-1.333-1.333 0-0.684 0.515-1.247 1.178-1.324l0.155-0.009zM13.333 14.667h14.672c0.736 0 1.333 0.597 1.333 1.333 0 0.684-0.515 1.247-1.178 1.324l-0.156 0.009h-14.672c-0.736 0-1.333-0.597-1.333-1.333 0-0.684 0.515-1.247 1.178-1.324l0.155-0.009zM13.333 6.667h14.672c0.736 0 1.333 0.597 1.333 1.333 0 0.684-0.515 1.247-1.178 1.324l-0.156 0.009h-14.672c-0.736 0-1.333-0.597-1.333-1.333 0-0.684 0.515-1.247 1.178-1.324l0.155-0.009zM7.057 21.724c0.521-0.521 1.365-0.521 1.886 0s0.521 1.365 0 1.886l-2.667 2.667c-0.521 0.521-1.365 0.521-1.886 0l-1.333-1.333c-0.521-0.521-0.521-1.365 0-1.886s1.365-0.521 1.886 0l0.391 0.391 1.724-1.724z"></path>
</svg>
