<!-- Generated by IcoMoon.io -->
<svg version="1.1" xmlns="http://www.w3.org/2000/svg" width="32" height="32" viewBox="0 0 32 32">
<title>music-note-1-filled</title>
<path d="M15.351 2.73c-0.307-0.115-0.651-0.072-0.921 0.114s-0.43 0.494-0.43 0.822v16.17c-0.913-0.732-2.072-1.17-3.333-1.17-2.946 0-5.333 2.388-5.333 5.333s2.388 5.333 5.333 5.333c2.748 0 5.011-2.079 5.302-4.75 0.021-0.080 0.032-0.164 0.032-0.25v-12.557l9.316 3.493c0.307 0.115 0.651 0.072 0.921-0.115s0.43-0.494 0.43-0.822v-4.357c0-1.806-1.121-3.423-2.812-4.057l-8.504-3.189z"></path>
</svg>
