<!-- Generated by IcoMoon.io -->
<svg version="1.1" xmlns="http://www.w3.org/2000/svg" width="32" height="32" viewBox="0 0 32 32">
<title>music-note-2-filled</title>
<path d="M26.667 3.667c-0-0.552-0.448-0.999-1-0.999-0.102 0-0.201 0.015-0.294 0.044l0.007-0.002-13.333 4c-0.416 0.127-0.713 0.508-0.713 0.957v13.169c-0.744-0.524-1.669-0.837-2.666-0.837-2.577 0-4.667 2.089-4.667 4.667s2.089 4.667 4.667 4.667c2.577 0 4.667-2.089 4.667-4.667 0-0.080-0.002-0.159-0.006-0.238l0 0.011c0.003-0.031 0.005-0.067 0.005-0.104 0-0.001 0-0.001 0-0.002v0-10.589l11.333-3.4v7.827c-0.744-0.524-1.669-0.837-2.666-0.837-2.577 0-4.667 2.089-4.667 4.667s2.089 4.667 4.667 4.667c2.577 0 4.667-2.089 4.667-4.667 0-0.080-0.002-0.159-0.006-0.238l0 0.011c0.003-0.031 0.005-0.067 0.005-0.104 0-0.001 0-0.002 0-0.003v0-18z"></path>
</svg>
