<!-- Generated by IcoMoon.io -->
<svg version="1.1" xmlns="http://www.w3.org/2000/svg" width="32" height="32" viewBox="0 0 32 32">
<title>music-note-2-filled</title>
<path d="M26.667 3.667c0-0.316-0.149-0.614-0.403-0.802s-0.581-0.246-0.884-0.156l-13.333 4c-0.423 0.127-0.713 0.516-0.713 0.958v13.17c-0.756-0.527-1.675-0.836-2.667-0.836-2.577 0-4.667 2.089-4.667 4.667s2.089 4.667 4.667 4.667c2.577 0 4.667-2.089 4.667-4.667 0-0.077-0.002-0.153-0.005-0.228 0.004-0.035 0.005-0.070 0.005-0.105v-10.589l11.333-3.4v7.826c-0.756-0.527-1.675-0.836-2.667-0.836-2.577 0-4.667 2.089-4.667 4.667s2.089 4.667 4.667 4.667c2.577 0 4.667-2.089 4.667-4.667 0-0.076-0.002-0.153-0.005-0.228 0.004-0.035 0.005-0.070 0.005-0.105v-18z"></path>
</svg>
