<!-- Generated by IcoMoon.io -->
<svg version="1.1" xmlns="http://www.w3.org/2000/svg" width="32" height="32" viewBox="0 0 32 32">
<title>my-location-filled</title>
<path d="M16 2.667c0.681 0 1.243 0.511 1.323 1.171l0.001 0.006 0.009 0.156v1.752c4.651 0.624 8.291 4.265 8.909 8.863l0.006 0.053 1.752-0.001c0.736 0.001 1.332 0.597 1.332 1.333 0 0.681-0.51 1.243-1.169 1.323l-0.006 0.001-0.156 0.009h-1.752c-0.624 4.651-4.264 8.291-8.862 8.909l-0.053 0.006v1.752c-0.001 0.736-0.597 1.332-1.333 1.332-0.681 0-1.243-0.51-1.323-1.169l-0.001-0.006-0.009-0.156v-1.752c-4.65-0.624-8.29-4.264-8.908-8.862l-0.006-0.053h-1.753c-0.736-0.001-1.332-0.597-1.332-1.333 0-0.681 0.51-1.243 1.169-1.323l0.006-0.001 0.156-0.009h1.752c0.624-4.65 4.264-8.29 8.862-8.908l0.053-0.006v-1.753c0-0.736 0.597-1.333 1.333-1.333v0zM16 8.333c-4.234 0-7.667 3.432-7.667 7.667s3.432 7.667 7.667 7.667v0c4.234 0 7.667-3.432 7.667-7.667s-3.432-7.667-7.667-7.667v0zM16 10.667c2.946 0 5.333 2.388 5.333 5.333s-2.388 5.333-5.333 5.333v0c-2.946 0-5.333-2.388-5.333-5.333s2.388-5.333 5.333-5.333v0z"></path>
</svg>
