<!-- Generated by IcoMoon.io -->
<svg version="1.1" xmlns="http://www.w3.org/2000/svg" width="32" height="32" viewBox="0 0 32 32">
<title>my-location-filled</title>
<path d="M16 2.667c0.684 0 1.247 0.515 1.324 1.178l0.009 0.155 0 1.752c4.641 0.598 8.317 4.275 8.915 8.916l1.752-0.001c0.736 0 1.333 0.597 1.333 1.333 0 0.684-0.515 1.247-1.178 1.324l-0.155 0.009-1.752 0c-0.598 4.64-4.274 8.316-8.914 8.914l-0 1.752c0 0.736-0.597 1.333-1.333 1.333-0.684 0-1.247-0.515-1.324-1.178l-0.009-0.155 0.001-1.752c-4.641-0.597-8.318-4.274-8.916-8.915l-1.752-0c-0.736 0-1.333-0.597-1.333-1.333 0-0.684 0.515-1.247 1.178-1.324l0.155-0.009 1.752 0.001c0.598-4.641 4.274-8.318 8.916-8.916l-0.001-1.752c0-0.736 0.597-1.333 1.333-1.333zM16 8.333c-4.234 0-7.667 3.432-7.667 7.667s3.432 7.667 7.667 7.667c4.234 0 7.667-3.433 7.667-7.667s-3.433-7.667-7.667-7.667zM16 10.667c2.945 0 5.333 2.388 5.333 5.333s-2.388 5.333-5.333 5.333c-2.946 0-5.333-2.388-5.333-5.333s2.388-5.333 5.333-5.333z"></path>
</svg>
