<!-- Generated by IcoMoon.io -->
<svg version="1.1" xmlns="http://www.w3.org/2000/svg" width="32" height="32" viewBox="0 0 32 32">
<title>navigation-play-filled</title>
<path d="M4.4 8c-0.663 0-1.2 0.537-1.2 1.2s0.537 1.2 1.2 1.2v0h23.2c0.663 0 1.2-0.537 1.2-1.2s-0.537-1.2-1.2-1.2v0h-23.2zM3.2 17.2c0-0.663 0.537-1.2 1.2-1.2v0h15.339c-0.92 0.654-1.69 1.451-2.295 2.367l-0.021 0.033h-13.024c-0.663 0-1.2-0.537-1.2-1.2v0zM4.4 24h11.635c0.081 0.884 0.282 1.698 0.586 2.459l-0.021-0.059h-12.2c-0.663 0-1.2-0.537-1.2-1.2s0.537-1.2 1.2-1.2v0zM32 23.2c0 3.976-3.224 7.2-7.2 7.2s-7.2-3.224-7.2-7.2v0c0-3.976 3.224-7.2 7.2-7.2s7.2 3.224 7.2 7.2v0zM28.341 22.501l-4.752-2.64c-0.112-0.063-0.246-0.101-0.389-0.101-0.442 0-0.8 0.358-0.8 0.8 0 0 0 0 0 0v0 5.28c0 0 0 0 0 0 0 0.442 0.358 0.8 0.8 0.8 0.143 0 0.277-0.037 0.393-0.103l-0.004 0.002 4.752-2.64c0.247-0.139 0.411-0.4 0.411-0.699s-0.164-0.56-0.407-0.697l-0.004-0.002z"></path>
</svg>
