<!-- Generated by IcoMoon.io -->
<svg version="1.1" xmlns="http://www.w3.org/2000/svg" width="32" height="32" viewBox="0 0 32 32">
<title>network-check-filled</title>
<path d="M13.4 20.56l8.341-11.301c0.17-0.23 0.441-0.378 0.746-0.378 0.511 0 0.925 0.414 0.925 0.925 0 0.075-0.009 0.149-0.026 0.219l0.001-0.006-0.040 0.131-5.16 13.067c-0.421 1.020-1.407 1.725-2.559 1.725-1.524 0-2.76-1.236-2.76-2.76 0-0.484 0.124-0.938 0.343-1.334l-0.007 0.014 0.092-0.153 0.101-0.147v-0.001zM16.133 14.495l-1.635 2.213c-1.733 0.576-2.976 2.149-3.053 4.023l-0 0.009c-0.023 0.534-0.462 0.959-1 0.959-0.553 0-1.001-0.448-1.001-1.001 0-0.015 0-0.029 0.001-0.044l-0 0.002c0.088-2.070 1.143-3.876 2.721-4.989l0.020-0.014c1.026-0.729 2.304-1.165 3.685-1.165 0.093 0 0.185 0.002 0.276 0.006l-0.013-0zM21.689 18.164c0.373 0.781 0.581 1.627 0.617 2.488 0.001 0.013 0.001 0.028 0.001 0.043 0 0.552-0.448 1-1 1-0.348 0-0.654-0.178-0.833-0.447l-0.002-0.004 1.217-3.080zM18.712 11.004l-1.292 1.748c-0.466-0.093-1.001-0.146-1.549-0.146-1.785 0-3.438 0.564-4.791 1.523l0.026-0.017c-1.539 1.083-2.679 2.643-3.211 4.461l-0.015 0.059c-0.13 0.412-0.508 0.706-0.956 0.706-0.552 0-1-0.448-1-1 0-0.091 0.012-0.179 0.035-0.263l-0.002 0.007c0.678-2.329 2.092-4.265 3.968-5.588l0.032-0.022c1.648-1.169 3.7-1.868 5.916-1.868 1.011 0 1.989 0.146 2.912 0.417l-0.073-0.018zM23.392 13.855c0.333 0.356 0.648 0.741 0.936 1.153 0.621 0.874 1.12 1.888 1.444 2.978l0.019 0.073c0.020 0.074 0.031 0.159 0.031 0.246 0 0.552-0.448 1-1 1-0.441 0-0.816-0.286-0.949-0.683l-0.002-0.007c-0.276-0.938-0.679-1.755-1.197-2.486l0.017 0.026-0.136-0.184 0.836-2.116zM21.307 7.803l-0.117 0.072c-0.164 0.109-0.315 0.24-0.449 0.393l-0.128 0.16-0.72 0.976c-1.197-0.432-2.578-0.681-4.018-0.681-2.621 0-5.048 0.827-7.035 2.235l0.038-0.026c-1.956 1.376-3.464 3.268-4.342 5.479l-0.029 0.082c-0.145 0.386-0.51 0.655-0.939 0.655-0.552 0-1-0.448-1-1 0-0.137 0.027-0.267 0.077-0.386l-0.002 0.007c1.056-2.67 2.812-4.873 5.045-6.446l0.045-0.030c2.269-1.608 5.095-2.571 8.145-2.571 1.959 0 3.825 0.397 5.523 1.115l-0.093-0.035zM24.812 9.885c1.029 0.838 1.918 1.791 2.666 2.85l0.030 0.045c0.653 0.936 1.189 1.935 1.599 2.98 0.044 0.108 0.069 0.233 0.069 0.365 0 0.552-0.448 1-1 1-0.421 0-0.782-0.26-0.929-0.629l-0.002-0.007c-0.712-1.789-1.767-3.306-3.094-4.532l-0.008-0.008 0.508-1.285c0.101-0.253 0.153-0.517 0.163-0.779z"></path>
</svg>
