<!-- Generated by IcoMoon.io -->
<svg version="1.1" xmlns="http://www.w3.org/2000/svg" width="32" height="32" viewBox="0 0 32 32">
<title>news-filled</title>
<path d="M22.333 5.333c1.588 0 2.887 1.234 2.993 2.795l0.007 0.205v15c0 0.368 0.299 0.667 0.667 0.667 0.327 0 0.599-0.236 0.656-0.547l0.011-0.12 0.001-13.982c1.428 0.158 2.554 1.319 2.658 2.763l0.008 0.219v10c0 2.311-1.809 4.199-4.087 4.327l-0.246 0.007h-18c-2.311 0-4.199-1.809-4.326-4.087l-0.007-0.246v-14c0-1.588 1.234-2.888 2.795-2.993l0.205-0.007h16.667zM12.33 14.667h-4.667c-0.552 0-1 0.448-1 1v4.667c0 0.552 0.448 1 1 1h4.667c0.552 0 1-0.448 1-1v-4.667c0-0.552-0.448-1-1-1zM20.336 19.333h-3.331l-0.136 0.009c-0.488 0.066-0.864 0.485-0.864 0.991 0 0.552 0.448 1 1 1h3.331l0.136-0.009c0.488-0.066 0.864-0.485 0.864-0.991 0-0.552-0.448-1-1-1zM11.33 16.667v2.667h-2.667v-2.667h2.667zM20.335 14.667l-3.331 0.006-0.136 0.009c-0.488 0.067-0.863 0.486-0.863 0.992 0.001 0.552 0.45 0.999 1.002 0.998l3.331-0.006 0.136-0.009c0.488-0.067 0.863-0.486 0.863-0.992-0.001-0.552-0.449-0.999-1.002-0.998zM20.336 10.006l-12.808 0.009c-0.488 0.066-0.864 0.485-0.864 0.991 0 0.552 0.448 1 1 1l12.808-0.009c0.488-0.066 0.864-0.485 0.864-0.991 0-0.552-0.448-1-1-1z"></path>
</svg>
