<!-- Generated by IcoMoon.io -->
<svg version="1.1" xmlns="http://www.w3.org/2000/svg" width="32" height="32" viewBox="0 0 32 32">
<title>note-add-filled</title>
<path d="M16 8.667c0 4.050-3.283 7.333-7.333 7.333s-7.333-3.283-7.333-7.333 3.283-7.333 7.333-7.333 7.333 3.283 7.333 7.333zM9.333 4c0-0.368-0.298-0.667-0.667-0.667s-0.667 0.298-0.667 0.667v0 4h-4c-0.368 0-0.667 0.298-0.667 0.667s0.298 0.667 0.667 0.667v0h4v4c0 0.368 0.298 0.667 0.667 0.667s0.667-0.298 0.667-0.667v0-4h4c0.368 0 0.667-0.298 0.667-0.667s-0.298-0.667-0.667-0.667v0h-4v-4zM8.667 17.333c4.787 0 8.667-3.88 8.667-8.667 0-1.718-0.5-3.32-1.363-4.667h7.863c2.301 0 4.167 1.865 4.167 4.167v0 9.167h-6.5c-2.301 0-4.167 1.865-4.167 4.167v0 6.5h-9.167c-2.301 0-4.167-1.865-4.167-4.167v0-7.863c1.316 0.855 2.925 1.363 4.653 1.363 0.005 0 0.009 0 0.014 0h-0.001zM27.631 19h-6.131c-1.381 0-2.5 1.119-2.5 2.5v0 6.131c0.477-0.219 0.885-0.505 1.232-0.852l6.547-6.547c0.347-0.347 0.633-0.755 0.841-1.207l0.011-0.026z"></path>
</svg>
