<!-- Generated by IcoMoon.io -->
<svg version="1.1" xmlns="http://www.w3.org/2000/svg" width="32" height="32" viewBox="0 0 32 32">
<title>notebook-question-mark-filled</title>
<path d="M8.667 16c4.050 0 7.333 3.283 7.333 7.333s-3.283 7.333-7.333 7.333v0c-4.050 0-7.333-3.283-7.333-7.333s3.283-7.333 7.333-7.333v0zM22.332 2.667c1.657 0 3 1.343 3 3v0 20.667c0 1.657-1.343 3-3 3v0h-7.413c1.495-1.555 2.416-3.672 2.416-6.003 0-4.786-3.88-8.667-8.667-8.667-1.203 0-2.35 0.245-3.391 0.689l0.057-0.021v-9.663c0-0 0-0.001 0-0.001 0-1.657 1.343-3 3-3 0 0 0.001 0 0.001 0h13.999zM8.667 26.507c-0.010-0-0.022-0.001-0.033-0.001-0.46 0-0.833 0.373-0.833 0.833s0.373 0.833 0.833 0.833c0.012 0 0.023-0 0.035-0.001l-0.002 0c0.446-0.018 0.8-0.384 0.8-0.833s-0.354-0.814-0.798-0.833l-0.002-0zM8.667 18.671c-1.397 0-2.485 1.089-2.471 2.605 0.004 0.365 0.301 0.66 0.667 0.66 0.368 0 0.667-0.299 0.667-0.667 0-0.002 0-0.005-0-0.007v0c-0.008-0.771 0.48-1.259 1.137-1.259 0.629 0 1.137 0.523 1.137 1.267 0 0.299-0.1 0.52-0.423 0.903l-0.133 0.151-0.353 0.387c-0.645 0.723-0.895 1.189-0.895 1.957 0 0.368 0.298 0.667 0.667 0.667s0.667-0.298 0.667-0.667v0c0-0.311 0.101-0.537 0.432-0.927l0.133-0.153 0.355-0.387c0.637-0.713 0.884-1.176 0.884-1.931 0-1.472-1.096-2.6-2.471-2.6zM27.667 20.003c0.504 0 0.921 0.373 0.99 0.859l0.001 0.005 0.009 0.136v1.997c-0 0.504-0.373 0.921-0.859 0.99l-0.005 0.001-0.136 0.009h-1v-3.997h1zM27.667 14.669c0.504 0 0.921 0.373 0.99 0.859l0.001 0.005 0.009 0.136v1.997c-0 0.504-0.373 0.921-0.859 0.99l-0.005 0.001-0.136 0.009h-1v-3.997h1zM27.667 9.336c0.504 0 0.921 0.373 0.99 0.859l0.001 0.005 0.009 0.136v1.997c-0 0.504-0.373 0.921-0.859 0.99l-0.005 0.001-0.136 0.009h-1v-3.997h1zM19.664 7.329h-8.661c-0.504 0-0.921 0.373-0.99 0.859l-0.001 0.005-0.009 0.136v2.005c0 0.507 0.377 0.924 0.865 0.991l0.135 0.009h8.661c0.504-0 0.921-0.373 0.99-0.859l0.001-0.005 0.009-0.136v-2.005c0-0.552-0.448-1-1-1v0z"></path>
</svg>
