<!-- Generated by IcoMoon.io -->
<svg version="1.1" xmlns="http://www.w3.org/2000/svg" width="32" height="32" viewBox="0 0 32 32">
<title>notebook-lightning-filled</title>
<path d="M8.667 16c4.050 0 7.333 3.283 7.333 7.333s-3.283 7.333-7.333 7.333v0c-4.050 0-7.333-3.283-7.333-7.333s3.283-7.333 7.333-7.333v0zM22.332 2.667c1.657 0 3 1.343 3 3v0 20.667c0 1.657-1.343 3-3 3v0h-7.413c1.495-1.555 2.416-3.672 2.416-6.003 0-4.786-3.88-8.667-8.667-8.667-1.203 0-2.35 0.245-3.391 0.689l0.057-0.021v-9.663c0-0 0-0.001 0-0.001 0-1.657 1.343-3 3-3 0 0 0.001 0 0.001 0h13.999zM10.005 18.669h-1.997c-0.292 0-0.541 0.188-0.631 0.45l-0.001 0.005-1.341 3.997c-0.022 0.063-0.035 0.136-0.035 0.212 0 0.368 0.298 0.667 0.667 0.667h1.069l-1.036 3.12c-0.248 0.748 0.781 1.232 1.199 0.563l3.329-5.329c0.064-0.1 0.101-0.222 0.101-0.353 0-0.368-0.298-0.667-0.667-0.667 0 0 0 0 0 0h-0.593l0.571-1.795c0.020-0.061 0.032-0.13 0.032-0.203 0-0.368-0.298-0.666-0.666-0.667h-0zM27.667 20.003c0.504 0 0.921 0.373 0.99 0.859l0.001 0.005 0.009 0.136v1.997c-0 0.504-0.373 0.921-0.859 0.99l-0.005 0.001-0.136 0.009h-1v-3.997h1zM27.667 14.669c0.504 0 0.921 0.373 0.99 0.859l0.001 0.005 0.009 0.136v1.997c-0 0.504-0.373 0.921-0.859 0.99l-0.005 0.001-0.136 0.009h-1v-3.997h1zM27.667 9.336c0.504 0 0.921 0.373 0.99 0.859l0.001 0.005 0.009 0.136v1.997c-0 0.504-0.373 0.921-0.859 0.99l-0.005 0.001-0.136 0.009h-1v-3.997h1zM19.669 7.333h-8.665c-0 0-0.001 0-0.001 0-0.504 0-0.921 0.373-0.99 0.859l-0.001 0.005-0.008 0.136v2c0 0.507 0.376 0.924 0.864 0.991l0.136 0.009h8.664c0.504-0 0.921-0.373 0.99-0.859l0.001-0.005 0.009-0.136v-2c0-0.552-0.448-1-1-1v0z"></path>
</svg>
