<!-- Generated by IcoMoon.io -->
<svg version="1.1" xmlns="http://www.w3.org/2000/svg" width="32" height="32" viewBox="0 0 32 32">
<title>notebook-section-arrow-right-filled</title>
<path d="M20.864 2.675l0.136-0.009c0.506 0 0.925 0.376 0.991 0.864l0.009 0.136v11.102c-4.153 0.641-7.333 4.232-7.333 8.565 0 1.179 0.235 2.303 0.662 3.328l-2.995 0c-1.657 0-3-1.343-3-3v-15.329c0-1.657 1.343-3 3-3l7.667-0.001v-1.665c0-0.506 0.376-0.925 0.864-0.991zM30.667 23.333c0 4.050-3.283 7.333-7.333 7.333s-7.333-3.283-7.333-7.333c0-4.050 3.283-7.333 7.333-7.333s7.333 3.283 7.333 7.333zM19.333 22.667c-0.368 0-0.667 0.299-0.667 0.667s0.299 0.667 0.667 0.667h6.391l-2.195 2.195c-0.26 0.26-0.26 0.683 0 0.943s0.683 0.26 0.943 0l3.333-3.333c0.26-0.26 0.26-0.683 0-0.943l-3.333-3.333c-0.26-0.26-0.683-0.26-0.943 0s-0.26 0.683 0 0.943l2.195 2.195h-6.391z"></path>
</svg>
