<!-- Generated by IcoMoon.io -->
<svg version="1.1" xmlns="http://www.w3.org/2000/svg" width="32" height="32" viewBox="0 0 32 32">
<title>notebook-eye-filled</title>
<path d="M8 3.2c-1.767 0-3.2 1.433-3.2 3.2v0 12.112c1.171-0.573 2.548-0.908 4.004-0.908 2.455 0 4.687 0.953 6.347 2.51l-0.005-0.005c1.422 1.322 2.454 3.115 2.454 4.691 0 0.827-0.29 1.678-0.694 2.43-0.327 0.596-0.692 1.11-1.107 1.578l0.008-0.009h4.994c1.767 0 3.2-1.433 3.2-3.2v0-19.2c0-1.767-1.433-3.2-3.2-3.2v0h-12.8zM8 8.8c0-0.442 0.358-0.8 0.8-0.8v0h11.2c0.442 0 0.8 0.358 0.8 0.8v0 1.6c0 0.442-0.358 0.8-0.8 0.8v0h-11.2c-0.442 0-0.8-0.358-0.8-0.8v0-1.6zM25.6 9.6h0.8c0.442 0 0.8 0.358 0.8 0.8v0 2.4c0 0.442-0.358 0.8-0.8 0.8v0h-0.8v-4zM25.6 15.2h0.8c0.442 0 0.8 0.358 0.8 0.8v0 2.4c0 0.442-0.358 0.8-0.8 0.8v0h-0.8v-4zM25.6 20.8h0.8c0.442 0 0.8 0.358 0.8 0.8v0 2.4c0 0.442-0.358 0.8-0.8 0.8v0h-0.8v-4zM1.6 24.8c0-1.891 2.778-5.6 7.2-5.6 4.418 0 7.2 3.68 7.2 5.6 0 1.891-2.782 5.6-7.2 5.6s-7.2-3.68-7.2-5.6zM6.578 28.126c0.625 0.422 1.394 0.674 2.223 0.674 2.21 0 4.002-1.792 4.002-4.002 0-1.381-0.7-2.599-1.764-3.318l-0.014-0.009c-0.625-0.423-1.395-0.675-2.224-0.675-2.211 0-4.003 1.792-4.003 4.003 0 1.382 0.7 2.6 1.765 3.319l0.014 0.009zM10.795 26.133c0.272-0.384 0.434-0.861 0.434-1.377 0-1.325-1.075-2.4-2.4-2.4-0.847 0-1.592 0.439-2.019 1.102l-0.006 0.009c-0.235 0.365-0.375 0.81-0.375 1.289 0 1.325 1.075 2.4 2.4 2.4 0.81 0 1.526-0.401 1.961-1.016l0.005-0.008z"></path>
</svg>
