<!-- Generated by IcoMoon.io -->
<svg version="1.1" xmlns="http://www.w3.org/2000/svg" width="32" height="32" viewBox="0 0 32 32">
<title>note-edit-filled</title>
<path d="M4 23.667c0 2.393 1.94 4.333 4.333 4.333h6.553l0.474-1.898c0.216-0.864 0.663-1.653 1.293-2.283l7.87-7.87c0.952-0.952 2.233-1.374 3.476-1.267v-6.35c0-2.393-1.94-4.333-4.333-4.333h-9v6.333c0 2.393-1.94 4.333-4.333 4.333h-6.333v9zM12.667 4.587l-8.080 8.080h5.747c1.289 0 2.333-1.045 2.333-2.333v-5.747zM25.467 16.893l-7.87 7.87c-0.459 0.459-0.784 1.034-0.942 1.663l-0.61 2.441c-0.265 1.061 0.696 2.023 1.758 1.758l2.441-0.61c0.629-0.157 1.204-0.483 1.663-0.942l7.87-7.87c1.19-1.19 1.19-3.12 0-4.31s-3.12-1.19-4.31 0z"></path>
</svg>
