<!-- Generated by IcoMoon.io -->
<svg version="1.1" xmlns="http://www.w3.org/2000/svg" width="32" height="32" viewBox="0 0 32 32">
<title>notepad-edit-filled</title>
<path d="M25.296 16.877l-7.728 7.728c-0.438 0.437-0.76 0.99-0.919 1.608l-0.005 0.024-0.6 2.397c-0.027 0.103-0.042 0.221-0.042 0.343 0 0.786 0.638 1.424 1.424 1.424 0.122 0 0.241-0.015 0.354-0.044l-0.010 0.002 2.397-0.598c0.642-0.164 1.195-0.487 1.632-0.925l7.728-7.728c0.531-0.54 0.86-1.281 0.86-2.099 0-1.652-1.34-2.992-2.992-2.992-0.818 0-1.56 0.328-2.1 0.861l0-0zM11.2 4c0-0.442-0.358-0.8-0.8-0.8s-0.8 0.358-0.8 0.8v0 0.8h-0.8c-1.325 0-2.4 1.075-2.4 2.4v0 19.2c0 1.325 1.075 2.4 2.4 2.4v0h5.605c0.011-0.182 0.040-0.368 0.086-0.555l0.6-2.397c0.238-0.935 0.707-1.739 1.344-2.376l7.728-7.728c0.402-0.403 0.879-0.731 1.407-0.961l0.029-0.011v-7.571c0-1.325-1.075-2.4-2.4-2.4v0h-0.8v-0.8c0-0.442-0.358-0.8-0.8-0.8s-0.8 0.358-0.8 0.8v0 0.8h-4v-0.8c0-0.442-0.358-0.8-0.8-0.8s-0.8 0.358-0.8 0.8v0 0.8h-4v-0.8zM12 11.2h8c0.442 0 0.8 0.358 0.8 0.8s-0.358 0.8-0.8 0.8v0h-8c-0.442 0-0.8-0.358-0.8-0.8s0.358-0.8 0.8-0.8v0zM20.8 16.8c0 0.442-0.358 0.8-0.8 0.8v0h-8c-0.442 0-0.8-0.358-0.8-0.8s0.358-0.8 0.8-0.8v0h8c0.442 0 0.8 0.358 0.8 0.8v0zM12 20.8h3.2c0.442 0 0.8 0.358 0.8 0.8s-0.358 0.8-0.8 0.8v0h-3.2c-0.442 0-0.8-0.358-0.8-0.8s0.358-0.8 0.8-0.8v0z"></path>
</svg>
