<!-- Generated by IcoMoon.io -->
<svg version="1.1" xmlns="http://www.w3.org/2000/svg" width="32" height="32" viewBox="0 0 32 32">
<title>notepad-filled</title>
<path d="M21.667 2.667c0.506 0 0.925 0.376 0.991 0.864l0.009 0.136-0.001 0.999 0.999 0.001c1.657 0.001 2.999 1.343 3 3l0.001 13.667h-5.005l-0.205 0.007c-1.49 0.101-2.682 1.29-2.787 2.778l-0.008 0.215v5.006h-10.989c-1.657-0-3-1.343-3-3l-0.002-18.673c-0-1.657 1.343-3 3-3l0.996-0.001 0.001-0.999c0-0.552 0.448-1 1-1 0.506 0 0.925 0.376 0.991 0.864l0.009 0.136-0.001 0.999h4.003l0.001-0.999c0-0.552 0.448-1 1-1 0.506 0 0.925 0.376 0.991 0.864l0.009 0.136-0.001 0.999h3.997l0.001-0.999c0-0.552 0.448-1 1-1zM26.079 23.333l-5.42 5.42 0.001-4.42 0.009-0.136c0.060-0.444 0.411-0.795 0.855-0.855l0.136-0.009h4.419zM14.998 21.333h-5.331l-0.136 0.009c-0.488 0.066-0.864 0.485-0.864 0.991s0.376 0.925 0.864 0.991l0.136 0.009h5.331l0.136-0.009c0.488-0.066 0.864-0.485 0.864-0.991s-0.376-0.925-0.864-0.991l-0.136-0.009zM21.665 16l-12.133 0.009c-0.488 0.066-0.864 0.485-0.864 0.991s0.376 0.925 0.864 0.991l0.136 0.009 12.133-0.009c0.488-0.066 0.864-0.485 0.864-0.991s-0.376-0.925-0.864-0.991l-0.136-0.009zM21.665 10.667l-12.133 0.009c-0.488 0.066-0.864 0.485-0.864 0.991s0.376 0.925 0.864 0.991l0.136 0.009 12.133-0.009c0.488-0.066 0.864-0.485 0.864-0.991s-0.376-0.925-0.864-0.991l-0.136-0.009z"></path>
</svg>
