<!-- Generated by IcoMoon.io -->
<svg version="1.1" xmlns="http://www.w3.org/2000/svg" width="32" height="32" viewBox="0 0 32 32">
<title>notepad-person-filled</title>
<path d="M21.666 2.667c0.506 0 0.925 0.376 0.991 0.864l0.009 0.136-0.001 0.999 0.999 0.001c1.657 0.001 3 1.343 3 3l0.001 5.769c-0.772-0.487-1.686-0.769-2.666-0.769-2.177 0-4.030 1.391-4.716 3.333l-9.755 0.009c-0.488 0.066-0.864 0.485-0.864 0.991s0.376 0.925 0.864 0.991l0.136 0.009h9.345c0.087 1.315 0.681 2.491 1.59 3.333h-1.267c-1.841 0-3.334 1.492-3.334 3.333v0.667c0 1.467 0.563 2.87 1.565 4.006h-9.894c-1.657-0-3-1.343-3-3l-0.002-18.673c-0-1.657 1.343-3 3-3l0.997-0.001 0.001-0.999c0-0.552 0.448-1 1-1 0.506 0 0.925 0.376 0.991 0.864l0.009 0.136-0.001 0.999h4.003l0.001-0.999c0-0.552 0.448-1 1-1 0.506 0 0.925 0.376 0.991 0.864l0.009 0.136-0.001 0.999h3.998l0.001-0.999c0-0.552 0.448-1 1-1zM14.996 21.333h-5.332l-0.136 0.009c-0.488 0.066-0.864 0.485-0.864 0.991s0.376 0.925 0.864 0.991l0.136 0.009h5.332l0.136-0.009c0.488-0.066 0.864-0.485 0.864-0.991s-0.376-0.925-0.864-0.991l-0.136-0.009zM21.663 10.667l-12.135 0.009c-0.488 0.066-0.864 0.485-0.864 0.991s0.376 0.925 0.864 0.991l0.136 0.009 12.135-0.009c0.488-0.066 0.864-0.485 0.864-0.991s-0.376-0.925-0.864-0.991l-0.136-0.009zM23.999 14c1.050 0 1.997 0.441 2.666 1.149 0.621 0.657 1.001 1.543 1.001 2.518s-0.38 1.861-1.001 2.517c-0.669 0.708-1.616 1.149-2.666 1.149-1.913 0-3.484-1.465-3.652-3.333-0.010-0.11-0.015-0.221-0.015-0.333 0-0.6 0.144-1.167 0.4-1.667 0.607-1.187 1.842-2 3.267-2zM17.332 24.667c0-1.046 0.804-1.905 1.828-1.993 0.057-0.005 0.115-0.007 0.173-0.007h9.335c1.105 0 2 0.895 2 2v0.667c0 2.629-2.48 5.333-6.667 5.333-2.378 0-4.205-0.872-5.34-2.107-0.864-0.94-1.327-2.090-1.327-3.226v-0.667z"></path>
</svg>
