<!-- Generated by IcoMoon.io -->
<svg version="1.1" xmlns="http://www.w3.org/2000/svg" width="32" height="32" viewBox="0 0 32 32">
<title>notebook-add-filled</title>
<path d="M22.332 2.667c1.657 0 3 1.343 3 3v20.667c0 1.657-1.343 3-3 3h-7.411c1.494-1.557 2.413-3.671 2.413-6 0-4.787-3.88-8.667-8.667-8.667-1.181 0-2.307 0.236-3.333 0.664v-9.664c0-1.657 1.343-3 3-3h13.998zM19.671 7.33h-8.67c-0.506 0-0.925 0.376-0.991 0.864l-0.009 0.136v2.005c0 0.506 0.376 0.925 0.864 0.991l0.136 0.009h8.67c0.506 0 0.925-0.376 0.991-0.864l0.009-0.136v-2.005c0-0.552-0.448-1-1-1zM26.667 20.003h1c0.506 0 0.925 0.376 0.991 0.864l0.009 0.136v1.997c0 0.506-0.376 0.925-0.864 0.991l-0.136 0.009h-1v-3.997zM26.667 14.669h1c0.506 0 0.925 0.376 0.991 0.864l0.009 0.136v1.997c0 0.506-0.376 0.925-0.864 0.991l-0.136 0.009h-1v-3.997zM26.667 9.336h1c0.506 0 0.925 0.376 0.991 0.864l0.009 0.136v1.997c0 0.506-0.376 0.925-0.864 0.991l-0.136 0.009h-1v-3.997zM16 23.333c0-4.050-3.283-7.333-7.333-7.333s-7.333 3.283-7.333 7.333c0 4.050 3.283 7.333 7.333 7.333s7.333-3.283 7.333-7.333zM9.334 24l0.001 3.338c0 0.368-0.298 0.667-0.667 0.667s-0.667-0.298-0.667-0.667l-0.001-3.338h-3.34c-0.368 0-0.666-0.298-0.666-0.667s0.298-0.667 0.666-0.667h3.34l-0.001-3.334c0-0.368 0.298-0.667 0.667-0.667s0.667 0.298 0.667 0.667l0.001 3.334h3.328c0.368 0 0.666 0.299 0.666 0.667s-0.298 0.667-0.666 0.667h-3.328z"></path>
</svg>
