<!-- Generated by IcoMoon.io -->
<svg version="1.1" xmlns="http://www.w3.org/2000/svg" width="32" height="32" viewBox="0 0 32 32">
<title>notebook-section-arrow-right-filled</title>
<path d="M20.864 2.676l0.136-0.009c0.504 0 0.921 0.373 0.99 0.859l0.001 0.005 0.009 0.136v11.103c-4.18 0.669-7.336 4.249-7.336 8.566 0 1.201 0.244 2.344 0.685 3.384l-0.021-0.057h-2.995c-1.657 0-3-1.343-3-3 0-0 0-0.001 0-0.001v0-15.328c0-1.657 1.343-3 3-3v0l7.667-0.001v-1.665c0-0.504 0.373-0.921 0.859-0.99l0.005-0.001z"></path>
<path d="M30.667 23.333c0 4.050-3.283 7.333-7.333 7.333s-7.333-3.283-7.333-7.333v0c0-4.050 3.283-7.333 7.333-7.333s7.333 3.283 7.333 7.333v0zM19.333 22.667c-0.368 0-0.667 0.298-0.667 0.667s0.298 0.667 0.667 0.667v0h6.391l-2.196 2.196c-0.12 0.121-0.195 0.287-0.195 0.471 0 0.368 0.299 0.667 0.667 0.667 0.184 0 0.351-0.075 0.472-0.196v0l3.333-3.333c0.121-0.121 0.195-0.287 0.195-0.471s-0.075-0.351-0.195-0.471l-3.333-3.333c-0.121-0.121-0.288-0.196-0.472-0.196-0.368 0-0.667 0.299-0.667 0.667 0 0.184 0.075 0.351 0.195 0.471v0l2.196 2.195h-6.391z"></path>
</svg>
