<!-- Generated by IcoMoon.io -->
<svg version="1.1" xmlns="http://www.w3.org/2000/svg" width="32" height="32" viewBox="0 0 32 32">
<title>notebook-add-filled</title>
<path d="M22.332 2.667c1.657 0 3 1.343 3 3v0 20.667c0 1.657-1.343 3-3 3v0h-7.412c1.496-1.555 2.417-3.672 2.417-6.004 0-4.786-3.88-8.667-8.667-8.667-1.204 0-2.351 0.246-3.393 0.69l0.057-0.021v-9.664c0-1.657 1.343-3 3-3v0h13.999zM19.672 7.329h-8.672c-0.505 0-0.922 0.374-0.99 0.86l-0.001 0.005-0.009 0.135v2.005c0 0.507 0.377 0.924 0.865 0.991l0.135 0.009h8.671c0.504-0 0.921-0.373 0.99-0.859l0.001-0.005 0.009-0.136v-2.005c0-0.552-0.448-1-1-1v0zM26.667 20.003h1c0.504 0 0.921 0.373 0.99 0.859l0.001 0.005 0.009 0.136v1.997c-0 0.504-0.373 0.921-0.859 0.99l-0.005 0.001-0.136 0.009h-1v-3.997zM26.667 14.669h1c0.504 0 0.921 0.373 0.99 0.859l0.001 0.005 0.009 0.136v1.997c-0 0.504-0.373 0.921-0.859 0.99l-0.005 0.001-0.136 0.009h-1v-3.997zM26.667 9.336h1c0.504 0 0.921 0.373 0.99 0.859l0.001 0.005 0.009 0.136v1.997c-0 0.504-0.373 0.921-0.859 0.99l-0.005 0.001-0.136 0.009h-1v-3.997z"></path>
<path d="M16 23.333c0-4.050-3.283-7.333-7.333-7.333s-7.333 3.283-7.333 7.333v0c0 4.050 3.283 7.333 7.333 7.333s7.333-3.283 7.333-7.333v0zM9.333 24l0.001 3.337c0 0.368-0.298 0.667-0.667 0.667s-0.667-0.298-0.667-0.667v0-3.337h-3.34c-0.368 0-0.667-0.298-0.667-0.667s0.298-0.667 0.667-0.667v0h3.339v-3.333c0-0.368 0.298-0.667 0.667-0.667s0.667 0.298 0.667 0.667v0 3.333h3.329c0.368 0 0.667 0.298 0.667 0.667s-0.298 0.667-0.667 0.667v0h-3.329z"></path>
</svg>
