<!-- Generated by IcoMoon.io -->
<svg version="1.1" xmlns="http://www.w3.org/2000/svg" width="32" height="32" viewBox="0 0 32 32">
<title>notepad-person-filled</title>
<path d="M21.667 2.667c0.504 0 0.921 0.373 0.99 0.859l0.001 0.005 0.009 0.136-0.001 0.999h1c1.657 0 3 1.343 3 3v0 7.449c-0.586-0.285-1.275-0.452-2.003-0.452-2.577 0-4.667 2.089-4.667 4.667 0 1.307 0.538 2.489 1.404 3.336l0.001 0.001h-0.371c-2.041 0-3.696 1.655-3.696 3.696v0 0.137c0 0.988 0.287 1.977 0.891 2.84h-10.553c-1.657 0-3-1.343-3-3v0l-0.001-18.673c0-1.657 1.343-3 3-3v0l0.996-0.001v-0.999c-0-0.003-0-0.007-0-0.010 0-0.552 0.448-1 1-1 0.508 0 0.927 0.379 0.992 0.869l0.001 0.005 0.009 0.136-0.001 0.999h4.001v-0.999c-0-0.003-0-0.007-0-0.010 0-0.552 0.448-1 1-1 0.508 0 0.927 0.379 0.992 0.869l0.001 0.005 0.009 0.136-0.001 0.999h3.997v-0.999c0-0.552 0.448-1 1-1v0zM14.997 21.333h-5.331l-0.136 0.009c-0.491 0.069-0.864 0.486-0.864 0.991s0.373 0.921 0.858 0.99l0.005 0.001 0.136 0.009h5.331l0.136-0.009c0.491-0.069 0.864-0.486 0.864-0.991s-0.373-0.921-0.858-0.99l-0.005-0.001-0.136-0.009zM21.664 10.667l-12.133 0.009c-0.491 0.069-0.864 0.486-0.864 0.991s0.373 0.921 0.858 0.99l0.005 0.001 0.136 0.009 12.133-0.009c0.491-0.069 0.864-0.486 0.864-0.991s-0.373-0.921-0.858-0.99l-0.005-0.001-0.136-0.009zM8.667 17c0 0.552 0.448 1 1 1h8c0.552 0 1-0.448 1-1s-0.448-1-1-1v0h-8c-0.552 0-1 0.448-1 1v0zM28 19.333c0 1.841-1.492 3.333-3.333 3.333s-3.333-1.492-3.333-3.333v0c0-1.841 1.492-3.333 3.333-3.333s3.333 1.492 3.333 3.333v0zM30.667 26.5c0 2.075-1.715 4.167-6 4.167s-6-2.084-6-4.167v-0.137c0-1.307 1.059-2.363 2.364-2.363h7.272c1.307 0 2.364 1.057 2.364 2.363v0.137z"></path>
</svg>
