<!-- Generated by IcoMoon.io -->
<svg version="1.1" xmlns="http://www.w3.org/2000/svg" width="32" height="32" viewBox="0 0 32 32">
<title>notebook-filled</title>
<path d="M22.332 2.667c1.657 0 3 1.343 3 3v20.667c0 1.657-1.343 3-3 3h-13.998c-1.657 0-3-1.343-3-3v-20.667c0-1.657 1.343-3 3-3h13.998zM26.667 20.003h1c0.506 0 0.925 0.376 0.991 0.864l0.009 0.136v1.997c0 0.506-0.376 0.925-0.864 0.991l-0.136 0.009h-1v-3.997zM26.667 14.669h1c0.506 0 0.925 0.376 0.991 0.864l0.009 0.136v1.997c0 0.506-0.376 0.925-0.864 0.991l-0.136 0.009h-1v-3.997zM26.667 9.336h1c0.506 0 0.925 0.376 0.991 0.864l0.009 0.136v1.997c0 0.506-0.376 0.925-0.864 0.991l-0.136 0.009h-1v-3.997zM19.671 7.33h-8.67c-0.506 0-0.925 0.376-0.991 0.864l-0.009 0.136v2.005c0 0.506 0.376 0.925 0.864 0.991l0.136 0.009h8.67c0.506 0 0.925-0.376 0.991-0.864l0.009-0.136v-2.005c0-0.552-0.448-1-1-1z"></path>
</svg>
