<!-- Generated by IcoMoon.io -->
<svg version="1.1" xmlns="http://www.w3.org/2000/svg" width="32" height="32" viewBox="0 0 32 32">
<title>notebook-arrow-curve-down-filled</title>
<path d="M3.043 9.143c0-3.787 3.070-6.857 6.857-6.857 0.002 0 0.003 0 0.005 0h-0c3.786 0.002 6.854 3.071 6.854 6.857 0 3.787-3.070 6.857-6.857 6.857s-6.857-3.070-6.857-6.857c0 0 0 0 0 0v0zM12.794 10.508l-1.367 1.367v-2.351c0-2.314-1.875-4.19-4.189-4.19h-0.383c-0.421 0-0.762 0.341-0.762 0.762s0.341 0.762 0.762 0.762v0h0.381c1.474 0 2.667 1.195 2.667 2.667v2.351l-1.365-1.367c-0.138-0.138-0.328-0.223-0.539-0.223-0.421 0-0.762 0.341-0.762 0.762 0 0.211 0.085 0.401 0.224 0.539v0l2.67 2.67c0.137 0.137 0.327 0.221 0.536 0.221 0.211 0 0.402-0.086 0.539-0.224l2.667-2.667c0.138-0.138 0.224-0.329 0.224-0.539 0-0.421-0.341-0.762-0.762-0.762-0.21 0-0.401 0.085-0.539 0.223v0zM18.283 9.143c0 0.001 0 0.001 0 0.002 0 4.63-3.753 8.382-8.382 8.382-1.393 0-2.707-0.34-3.864-0.942l0.046 0.022v8.535c0 1.683 1.364 3.048 3.048 3.048v0h12.197c1.683 0 3.048-1.364 3.048-3.048v0-18.286c0-1.683-1.364-3.048-3.048-3.048v0h-4.962c1.193 1.433 1.917 3.293 1.917 5.321 0 0.004 0 0.008 0 0.013v-0.001zM25.9 9.905h0.762c0.421 0 0.762 0.341 0.762 0.762v0 2.286c0 0.421-0.341 0.762-0.762 0.762v0h-0.762v-3.81zM25.9 15.238h0.762c0.421 0 0.762 0.341 0.762 0.762v0 2.286c0 0.421-0.341 0.762-0.762 0.762v0h-0.762v-3.81zM25.9 20.571h0.762c0.421 0 0.762 0.341 0.762 0.762v0 2.286c0 0.421-0.341 0.762-0.762 0.762v0h-0.762v-3.81z"></path>
</svg>
