<!-- Generated by IcoMoon.io -->
<svg version="1.1" xmlns="http://www.w3.org/2000/svg" width="32" height="32" viewBox="0 0 32 32">
<title>number-symbol-square-filled</title>
<path d="M17.914 14.667l-0.534 2.667h-3.294l0.533-2.667h3.294zM8.333 4c-2.393 0-4.333 1.94-4.333 4.333v15.333c0 2.393 1.94 4.333 4.333 4.333h15.333c2.393 0 4.333-1.94 4.333-4.333v-15.333c0-2.393-1.94-4.333-4.333-4.333h-15.333zM14.531 10.020c0.541 0.108 0.893 0.635 0.784 1.177l-0.294 1.47h3.294l0.373-1.863c0.108-0.542 0.635-0.893 1.177-0.784s0.893 0.635 0.784 1.177l-0.294 1.47h1.313c0.552 0 1 0.448 1 1s-0.448 1-1 1h-1.713l-0.533 2.667h1.58c0.552 0 1 0.448 1 1s-0.448 1-1 1h-1.98l-0.373 1.863c-0.108 0.542-0.635 0.893-1.177 0.784s-0.893-0.635-0.784-1.177l0.294-1.471h-3.294l-0.373 1.863c-0.108 0.542-0.635 0.893-1.177 0.784s-0.893-0.635-0.784-1.177l0.294-1.471h-1.314c-0.552 0-1-0.448-1-1s0.448-1 1-1h1.714l0.534-2.667h-1.581c-0.552 0-1-0.448-1-1s0.448-1 1-1h1.981l0.373-1.863c0.108-0.542 0.635-0.893 1.177-0.784z"></path>
</svg>
