<!-- Generated by IcoMoon.io -->
<svg version="1.1" xmlns="http://www.w3.org/2000/svg" width="32" height="32" viewBox="0 0 32 32">
<title>number-circle-4-filled</title>
<path d="M16 29.333c7.364 0 13.333-5.969 13.333-13.333s-5.969-13.333-13.333-13.333-13.333 5.969-13.333 13.333 5.969 13.333 13.333 13.333zM18.333 9.72v8.613h1.5c0.46 0 0.833 0.373 0.833 0.833s-0.373 0.833-0.833 0.833v0h-1.5v1.833c0 0.46-0.373 0.833-0.833 0.833s-0.833-0.373-0.833-0.833v0-1.833h-5.628c-0.823 0-1.316-0.917-0.862-1.603l6.139-9.283c0.601-0.909 2.017-0.484 2.017 0.607zM16.667 11.604v6.729h-4.45l4.45-6.729z"></path>
</svg>
