<!-- Generated by IcoMoon.io -->
<svg version="1.1" xmlns="http://www.w3.org/2000/svg" width="32" height="32" viewBox="0 0 32 32">
<title>number-circle-5-filled</title>
<path d="M16 29.333c7.364 0 13.333-5.969 13.333-13.333s-5.969-13.333-13.333-13.333-13.333 5.969-13.333 13.333 5.969 13.333 13.333 13.333zM19.167 11h-4.555l-0.221 3.319 0.44-0.003c0.685-0.003 1.55 0.004 1.962 0.062 2.201 0.318 3.874 2.192 3.874 4.456 0 2.485-2.015 4.5-4.5 4.5-1.571 0-2.955-0.805-3.76-2.026l-0.010-0.017c-0.085-0.128-0.135-0.286-0.135-0.455 0-0.46 0.373-0.833 0.833-0.833 0.291 0 0.547 0.149 0.696 0.375l0.002 0.003c0.513 0.78 1.384 1.287 2.374 1.287 1.565 0 2.833-1.269 2.833-2.833 0-1.426-1.053-2.605-2.424-2.804l-0.015-0.002c-0.267-0.037-0.99-0.049-1.724-0.046-0.447 0.002-0.872 0.008-1.296 0.017l0.084-0.001-0.080 0.001-0.027 0.001c-0.006 0-0.012 0-0.019 0-0.461 0-0.834-0.373-0.834-0.834 0-0.019 0.001-0.038 0.002-0.057l-0 0.003 0.333-5c0.030-0.436 0.391-0.778 0.832-0.778 0 0 0 0 0.001 0h5.335c0.46 0 0.833 0.373 0.833 0.833s-0.373 0.833-0.833 0.833v0z"></path>
</svg>
