<!-- Generated by IcoMoon.io -->
<svg version="1.1" xmlns="http://www.w3.org/2000/svg" width="32" height="32" viewBox="0 0 32 32">
<title>number-symbol-filled</title>
<path d="M14.816 3.684c0.014-0.063 0.022-0.135 0.022-0.208 0-0.552-0.448-1-1-1-0.496 0-0.908 0.361-0.986 0.835l-0.001 0.006-1.248 6.683h-6.769c-0.552 0-1 0.448-1 1s0.448 1 1 1v0h6.396l-1.493 8h-6.236c-0.552 0-1 0.448-1 1s0.448 1 1 1v0h5.863l-1.179 6.317c-0.011 0.055-0.017 0.119-0.017 0.183 0 0.552 0.448 1 1 1 0.488 0 0.894-0.349 0.982-0.811l0.001-0.006 1.247-6.683h7.3l-1.18 6.317c-0.011 0.055-0.017 0.119-0.017 0.183 0 0.552 0.448 1 1 1 0.488 0 0.894-0.349 0.982-0.811l0.001-0.006 1.247-6.683h6.437c0.552 0 1-0.448 1-1s-0.448-1-1-1v0h-6.063l1.493-8h5.903c0.552 0 1-0.448 1-1s-0.448-1-1-1v0h-5.529l1.179-6.316c0.014-0.063 0.022-0.135 0.022-0.208 0-0.552-0.448-1-1-1-0.496 0-0.908 0.361-0.986 0.835l-0.001 0.006-1.248 6.683h-7.299l1.179-6.316zM19.069 20h-7.299l1.493-8h7.299l-1.493 8z"></path>
</svg>
