<!-- Generated by IcoMoon.io -->
<svg version="1.1" xmlns="http://www.w3.org/2000/svg" width="32" height="32" viewBox="0 0 32 32">
<title>number-circle-1-filled</title>
<path d="M16 29.333c7.364 0 13.333-5.969 13.333-13.333s-5.969-13.333-13.333-13.333-13.333 5.969-13.333 13.333 5.969 13.333 13.333 13.333zM17.667 9.5v12.333c0 0.46-0.373 0.833-0.833 0.833s-0.833-0.373-0.833-0.833v0-8.719c-0.671 0.865-1.604 1.697-2.879 2.167-0.091 0.038-0.198 0.059-0.309 0.059-0.46 0-0.833-0.373-0.833-0.833 0-0.365 0.234-0.675 0.56-0.788l0.006-0.002c1.32-0.487 2.191-1.544 2.745-2.555 0.273-0.5 0.458-0.969 0.574-1.312 0.043-0.117 0.094-0.285 0.139-0.455l0.011-0.048 0.005-0.023v-0.003l0.001-0.001c0.085-0.377 0.417-0.655 0.814-0.655 0.46 0 0.833 0.373 0.833 0.833 0 0 0 0 0 0v0z"></path>
</svg>
