<!-- Generated by IcoMoon.io -->
<svg version="1.1" xmlns="http://www.w3.org/2000/svg" width="32" height="32" viewBox="0 0 32 32">
<title>number-circle-3-filled</title>
<path d="M16 29.333c7.364 0 13.333-5.969 13.333-13.333s-5.969-13.333-13.333-13.333-13.333 5.969-13.333 13.333 5.969 13.333 13.333 13.333zM14.667 16c0-0.46 0.373-0.833 0.833-0.833h0.831c1.533 0 2.669-1.14 2.669-2.417s-1.135-2.417-2.669-2.417c-0.88 0-1.593 0.327-2.102 0.67-0.215 0.146-0.404 0.3-0.578 0.468l0.001-0.001c-0.060 0.058-0.12 0.118-0.173 0.182-0.154 0.189-0.387 0.308-0.647 0.308-0.46 0-0.833-0.373-0.833-0.833 0-0.2 0.070-0.383 0.188-0.527l-0.001 0.002v-0.001h0.001l0.001-0.002 0.002-0.003 0.007-0.008 0.007-0.009 0.011-0.013 0.061-0.070c0.051-0.057 0.124-0.133 0.217-0.223 0.241-0.233 0.504-0.447 0.783-0.637l0.021-0.013c0.695-0.469 1.729-0.955 3.035-0.955 2.335 0 4.335 1.771 4.335 4.083 0 1.349-0.681 2.513-1.711 3.25 1.031 0.737 1.711 1.901 1.711 3.25 0 2.313-2 4.083-4.335 4.083-1.305 0-2.34-0.486-3.035-0.955-0.3-0.204-0.563-0.418-0.806-0.652l0.002 0.002c-0.102-0.099-0.199-0.202-0.291-0.309l-0.005-0.006-0.007-0.008-0.002-0.003-0.001-0.001v-0.001h-0.001c-0.116-0.142-0.187-0.326-0.187-0.526 0-0.46 0.373-0.833 0.833-0.833 0.26 0 0.493 0.119 0.646 0.306l0.001 0.002 0.004 0.005 0.029 0.033c0.029 0.032 0.076 0.082 0.14 0.145 0.129 0.125 0.325 0.295 0.577 0.467 0.508 0.343 1.223 0.669 2.102 0.669 1.533 0 2.669-1.14 2.669-2.417s-1.135-2.417-2.669-2.417h-0.831c-0.46 0-0.833-0.373-0.833-0.833zM12.196 10.588l0.007-0.009 0.011-0.013z"></path>
</svg>
