<!-- Generated by IcoMoon.io -->
<svg version="1.1" xmlns="http://www.w3.org/2000/svg" width="32" height="32" viewBox="0 0 32 32">
<title>number-symbol-dismiss-filled</title>
<path d="M14.646 4.22c0.121-0.726-0.37-1.413-1.096-1.534s-1.413 0.369-1.535 1.096l-1.148 6.883-5.536 0.003c-0.736 0-1.333 0.598-1.333 1.334s0.598 1.333 1.334 1.333l5.089-0.003-0.889 5.334-5.535 0.003c-0.736 0-1.333 0.597-1.333 1.334s0.598 1.333 1.334 1.333l5.089-0.002-1.076 6.45c-0.121 0.726 0.37 1.413 1.096 1.534s1.413-0.369 1.534-1.096l1.149-6.889 3.107-0.001c0.228-0.961 0.615-1.86 1.133-2.667l-3.795 0.002 0.89-5.334 6.634-0.004-0.383 2.295c0.874-0.449 1.835-0.754 2.851-0.883l0.235-1.413 5.536-0.003c0.736-0 1.333-0.598 1.333-1.334s-0.598-1.333-1.334-1.333l-5.090 0.003 1.073-6.437c0.121-0.726-0.37-1.413-1.096-1.534s-1.413 0.37-1.534 1.096l-1.146 6.877-6.633 0.004 1.074-6.442z"></path>
<path d="M30.667 23.334c0 4.050-3.283 7.333-7.333 7.333s-7.333-3.283-7.333-7.333c0-4.050 3.283-7.333 7.333-7.333s7.333 3.283 7.333 7.333zM21.138 20.196c-0.26-0.26-0.683-0.26-0.943 0s-0.26 0.682 0 0.943l2.195 2.195-2.195 2.195c-0.26 0.26-0.26 0.682 0 0.943s0.683 0.26 0.943 0l2.195-2.195 2.195 2.195c0.26 0.26 0.683 0.26 0.943 0s0.26-0.682 0-0.943l-2.195-2.195 2.195-2.195c0.26-0.26 0.26-0.682 0-0.943s-0.683-0.26-0.943 0l-2.195 2.195-2.195-2.195z"></path>
</svg>
