<!-- Generated by IcoMoon.io -->
<svg version="1.1" xmlns="http://www.w3.org/2000/svg" width="32" height="32" viewBox="0 0 32 32">
<title>number-row-filled</title>
<path d="M6.333 5.333h5.333c2.025 0 3.667 1.642 3.667 3.667v0 14c0 2.025-1.642 3.667-3.667 3.667v0h-5.333c-2.025 0-3.667-1.642-3.667-3.667v0-14c0-2.025 1.642-3.667 3.667-3.667v0zM8 12v8c0 0.552 0.448 1 1 1s1-0.448 1-1v0-8c0-0.552-0.448-1-1-1s-1 0.448-1 1v0zM20.333 5.333h5.333c2.025 0 3.667 1.642 3.667 3.667v0 14c0 2.025-1.642 3.667-3.667 3.667v0h-5.333c-2.025 0-3.667-1.642-3.667-3.667v0-14c0-2.025 1.642-3.667 3.667-3.667v0zM23.333 13v2h-1.667c-0.552 0-1 0.448-1 1v0 4c0 0.552 0.448 1 1 1h2.667c0.552 0 1-0.448 1-1s-0.448-1-1-1v0h-1.667v-2h1.667c0.552 0 1-0.448 1-1v0-4c0-0.552-0.448-1-1-1v0h-2.667c-0.552 0-1 0.448-1 1s0.448 1 1 1v0h1.667z"></path>
</svg>
