<!-- Generated by IcoMoon.io -->
<svg version="1.1" xmlns="http://www.w3.org/2000/svg" width="32" height="32" viewBox="0 0 32 32">
<title>number-symbol-dismiss-filled</title>
<path d="M14.647 4.22c0.012-0.066 0.018-0.142 0.018-0.22 0-0.737-0.597-1.334-1.334-1.334-0.659 0-1.206 0.478-1.314 1.106l-0.001 0.008-1.147 6.884-5.539 0.003c-0.736 0.001-1.332 0.597-1.332 1.333s0.597 1.333 1.333 1.333c0 0 0.001 0 0.001 0l5.089-0.003-0.889 5.333-5.533 0.003c-0.736 0-1.333 0.597-1.333 1.333s0.597 1.333 1.333 1.333v0l5.089-0.003-1.076 6.451c-0.012 0.066-0.018 0.142-0.018 0.219 0 0.736 0.597 1.334 1.333 1.334 0.659 0 1.206-0.478 1.314-1.106l0.001-0.008 1.149-6.889 3.107-0.003c0.227-0.96 0.615-1.859 1.133-2.667l-3.796 0.001 0.889-5.333 6.635-0.004-0.383 2.295c0.827-0.434 1.789-0.745 2.807-0.878l0.043-0.005 0.235-1.413 5.536-0.004c0.736 0 1.333-0.597 1.333-1.333s-0.597-1.333-1.333-1.333v0l-5.091 0.003 1.072-6.436c0.015-0.076 0.024-0.163 0.024-0.252 0-0.736-0.597-1.333-1.333-1.333-0.67 0-1.224 0.494-1.319 1.138l-0.001 0.007-1.147 6.879-6.633 0.004 1.075-6.443zM30.667 23.333c0 4.050-3.283 7.333-7.333 7.333s-7.333-3.283-7.333-7.333v0c0-4.050 3.283-7.333 7.333-7.333s7.333 3.283 7.333 7.333v0zM21.139 20.196c-0.121-0.121-0.288-0.196-0.472-0.196-0.368 0-0.667 0.299-0.667 0.667 0 0.184 0.075 0.351 0.195 0.471v0l2.196 2.195-2.196 2.196c-0.12 0.121-0.195 0.287-0.195 0.471 0 0.368 0.299 0.667 0.667 0.667 0.184 0 0.351-0.075 0.472-0.196l2.195-2.196 2.195 2.196c0.121 0.121 0.288 0.196 0.472 0.196 0.368 0 0.667-0.299 0.667-0.667 0-0.184-0.075-0.351-0.195-0.471v0l-2.196-2.196 2.196-2.195c0.12-0.121 0.195-0.287 0.195-0.471 0-0.368-0.299-0.667-0.667-0.667-0.184 0-0.351 0.075-0.472 0.196v0l-2.195 2.195-2.195-2.195z"></path>
</svg>
