<!-- Generated by IcoMoon.io -->
<svg version="1.1" xmlns="http://www.w3.org/2000/svg" width="32" height="32" viewBox="0 0 32 32">
<title>open-filled</title>
<path d="M27.633 4.227c0.224 0.183 0.367 0.461 0.367 0.773v8c0 0.552-0.448 1-1 1s-1-0.448-1-1v0-5.586l-6.293 6.293c-0.182 0.188-0.437 0.305-0.719 0.305-0.552 0-1-0.448-1-1 0-0.282 0.117-0.537 0.305-0.719l6.292-6.293h-5.585c-0.552 0-1-0.448-1-1s0.448-1 1-1v0h7.987c0.003-0 0.007-0 0.011-0 0.242 0 0.464 0.086 0.638 0.228l-0.002-0.001zM8.333 6c-1.289 0-2.333 1.045-2.333 2.333v0 15.333c0 1.289 1.045 2.333 2.333 2.333v0h15.333c1.289 0 2.333-1.045 2.333-2.333v0-5.333c0-0.552 0.448-1 1-1s1 0.448 1 1v0 5.333c0 2.393-1.94 4.333-4.333 4.333v0h-15.333c-2.393 0-4.333-1.94-4.333-4.333v0-15.333c0-2.393 1.94-4.333 4.333-4.333v0h5.333c0.552 0 1 0.448 1 1s-0.448 1-1 1v0h-5.333z"></path>
</svg>
