<!-- Generated by IcoMoon.io -->
<svg version="1.1" xmlns="http://www.w3.org/2000/svg" width="32" height="32" viewBox="0 0 32 32">
<title>open-filled</title>
<path d="M8.333 6.333c-1.105 0-2 0.895-2 2v15.333c0 1.105 0.895 2 2 2h15.333c1.105 0 2-0.895 2-2v-5.333c0-0.736 0.597-1.333 1.333-1.333s1.333 0.597 1.333 1.333v5.333c0 2.577-2.089 4.667-4.667 4.667h-15.333c-2.577 0-4.667-2.089-4.667-4.667v-15.333c0-2.577 2.089-4.667 4.667-4.667h5.333c0.736 0 1.333 0.597 1.333 1.333s-0.597 1.333-1.333 1.333h-5.333zM17 5c0-0.736 0.597-1.333 1.333-1.333h8.667c0.736 0 1.333 0.597 1.333 1.333v8.667c0 0.736-0.597 1.333-1.333 1.333s-1.333-0.597-1.333-1.333v-5.448l-6.391 6.39c-0.521 0.521-1.365 0.521-1.886 0s-0.521-1.365 0-1.886l6.391-6.39h-5.448c-0.736 0-1.333-0.597-1.333-1.333z"></path>
</svg>
