<!-- Generated by IcoMoon.io -->
<svg version="1.1" xmlns="http://www.w3.org/2000/svg" width="32" height="32" viewBox="0 0 32 32">
<title>open-folder-filled</title>
<path d="M8.996 4l14.008 0.002c2.672 0.001 4.854 2.097 4.993 4.735l0.007 0.266v5.99c0 0.552-0.448 1-1 1-0.506 0-0.925-0.376-0.991-0.864l-0.009-0.136v-5.99c-0-1.588-1.234-2.888-2.795-2.994l-0.205-0.007-14.009-0.002c-1.57-0.001-2.859 1.205-2.989 2.742l-0.010 0.212 0.003 14.048c0.001 1.588 1.234 2.887 2.795 2.994l0.205 0.007h5.995c0.552 0 1 0.448 1 1 0 0.506-0.376 0.925-0.864 0.991l-0.136 0.009h-5.995c-2.672-0.001-4.854-2.097-4.993-4.734l-0.007-0.266-0.002-13.999 0.006-0.271c0.134-2.55 2.179-4.594 4.728-4.726l0.265-0.007zM13.254 12.002l8.074-0.001c0.736 0 1.333 0.597 1.333 1.333 0 0.684-0.515 1.247-1.178 1.324l-0.155 0.009-4.773-0 8.725 8.722c0.481 0.481 0.518 1.237 0.111 1.76l-0.111 0.126c-0.481 0.481-1.237 0.518-1.76 0.111l-0.126-0.111-8.731-8.727 0 4.787c0 0.684-0.515 1.247-1.178 1.324l-0.155 0.009c-0.684 0-1.247-0.515-1.324-1.178l-0.009-0.155v-8.002l0.005-0.112 0.021-0.141 0.012-0.061 0.025-0.088 0.048-0.132 0.085-0.162c0.055-0.091 0.121-0.174 0.196-0.248l0.146-0.126 0.162-0.104 0.136-0.064 0.118-0.041 0.148-0.035 0.154-0.018z"></path>
</svg>
