<!-- Generated by IcoMoon.io -->
<svg version="1.1" xmlns="http://www.w3.org/2000/svg" width="32" height="32" viewBox="0 0 32 32">
<title>open-off-filled</title>
<path d="M26.085 27.263c-0.676 0.461-1.511 0.737-2.411 0.737-0.003 0-0.005 0-0.008 0h-15.333c-2.393 0-4.333-1.94-4.333-4.333v0-15.333c0-0.002 0-0.005 0-0.007 0-0.899 0.275-1.735 0.746-2.426l-0.010 0.015-1.826-1.827c-0.157-0.152-0.254-0.364-0.254-0.599 0-0.46 0.373-0.833 0.833-0.833 0.235 0 0.448 0.098 0.599 0.254l0 0 25 25c0.151 0.151 0.244 0.359 0.244 0.589 0 0.46-0.373 0.833-0.833 0.833-0.23 0-0.439-0.093-0.589-0.244v0l-1.827-1.827zM24.619 25.797l-18.416-18.416c-0.13 0.291-0.203 0.613-0.203 0.952v15.333c0 1.289 1.045 2.333 2.333 2.333v0h15.333c0.339 0 0.661-0.073 0.952-0.203zM27.938 24.402l-1.938-1.938v-4.131c0-0.552 0.448-1 1-1s1 0.448 1 1v0 5.333c0 0.251-0.021 0.497-0.062 0.735zM7.598 4.062l1.937 1.938h4.131c0.552 0 1-0.448 1-1s-0.448-1-1-1v0h-5.333c-0.251 0-0.497 0.021-0.735 0.062zM27.633 4.227c0.224 0.183 0.367 0.461 0.367 0.773v8c0 0.552-0.448 1-1 1s-1-0.448-1-1v0-5.586l-6.293 6.293c-0.182 0.188-0.437 0.305-0.719 0.305-0.552 0-1-0.448-1-1 0-0.282 0.117-0.537 0.305-0.719l6.292-6.293h-5.585c-0.552 0-1-0.448-1-1s0.448-1 1-1v0h7.987c0.003-0 0.007-0 0.011-0 0.242 0 0.464 0.086 0.638 0.228l-0.002-0.001z"></path>
</svg>
