<!-- Generated by IcoMoon.io -->
<svg version="1.1" xmlns="http://www.w3.org/2000/svg" width="32" height="32" viewBox="0 0 32 32">
<title>organization-filled</title>
<path d="M10.998 7.667c0-2.762 2.239-5 5.001-5s5.001 2.239 5.001 5.001c0 2.467-1.787 4.517-4.137 4.926l-0.030 0.004v2.735h5c1.381 0 2.5 1.119 2.5 2.5v0 1.567c2.379 0.415 4.164 2.465 4.164 4.931 0 2.761-2.237 4.999-4.997 5.002h-0c-0.001 0-0.003 0-0.005 0-2.762 0-5.001-2.239-5.001-5.001 0-2.469 1.789-4.52 4.141-4.927l0.030-0.004v-1.568c0-0.46-0.373-0.833-0.833-0.833h-11.664c-0.46 0-0.833 0.373-0.833 0.833v1.567c2.38 0.413 4.167 2.463 4.167 4.931 0 2.762-2.239 5.001-5.001 5.001s-5.001-2.239-5.001-5.001c0-2.467 1.787-4.517 4.137-4.926l0.030-0.004v-1.567c0-1.381 1.119-2.5 2.5-2.5v0h5v-2.735c-2.38-0.414-4.168-2.464-4.168-4.931v-0z"></path>
</svg>
