<!-- Generated by IcoMoon.io -->
<svg version="1.1" xmlns="http://www.w3.org/2000/svg" width="32" height="32" viewBox="0 0 32 32">
<title>organization-filled</title>
<path d="M10.663 7.666c0-2.763 2.24-5.003 5.003-5.003s5.003 2.24 5.003 5.003c0 2.421-1.719 4.44-4.003 4.903v2.764h4.333c1.657 0 3 1.343 3 3v1.099c2.285 0.462 4.006 2.482 4.006 4.904 0 2.763-2.24 5.003-5.003 5.003s-5.003-2.24-5.003-5.003c0-2.42 1.718-4.438 4-4.903v-1.101c0-0.552-0.448-1-1-1h-10.667c-0.552 0-1 0.448-1 1v1.099c2.285 0.462 4.006 2.482 4.006 4.904 0 2.763-2.24 5.003-5.003 5.003s-5.003-2.24-5.003-5.003c0-2.42 1.718-4.438 4-4.903v-1.101c0-1.657 1.343-3 3-3h4.333v-2.763c-2.284-0.463-4.003-2.482-4.003-4.903z"></path>
</svg>
