<!-- Generated by IcoMoon.io -->
<svg version="1.1" xmlns="http://www.w3.org/2000/svg" width="32" height="32" viewBox="0 0 32 32">
<title>oven-filled</title>
<path d="M8 4c-2.209 0-4 1.791-4 4v0 3.667h24v-3.667c0-2.209-1.791-4-4-4v0h-16zM12 8.167c0 0.736-0.597 1.333-1.333 1.333s-1.333-0.597-1.333-1.333v0c0-0.736 0.597-1.333 1.333-1.333s1.333 0.597 1.333 1.333v0zM17.333 8.167c0 0.736-0.597 1.333-1.333 1.333s-1.333-0.597-1.333-1.333v0c0-0.736 0.597-1.333 1.333-1.333s1.333 0.597 1.333 1.333v0zM21.333 6.833c0.736 0 1.333 0.597 1.333 1.333s-0.597 1.333-1.333 1.333v0c-0.736 0-1.333-0.597-1.333-1.333s0.597-1.333 1.333-1.333v0zM4 13.333v10.667c0 2.209 1.791 4 4 4v0h16c2.209 0 4-1.791 4-4v0-10.667h-24zM8.5 15.667h15c0.645 0 1.167 0.523 1.167 1.167v6.667c0 0.644-0.522 1.167-1.167 1.167v0h-15c-0.644 0-1.167-0.522-1.167-1.167v0-6.667c0-0.644 0.523-1.167 1.167-1.167z"></path>
</svg>
