<!-- Generated by IcoMoon.io -->
<svg version="1.1" xmlns="http://www.w3.org/2000/svg" width="32" height="32" viewBox="0 0 32 32">
<title>padding-left-filled</title>
<path d="M4 5.333c-0.736 0-1.333 0.597-1.333 1.333v0 2.333c0 0.736 0.597 1.333 1.333 1.333s1.333-0.597 1.333-1.333v0-2.333c0-0.736-0.597-1.333-1.333-1.333v0zM4 12.333c-0.736 0-1.333 0.597-1.333 1.333v0 4.667c0 0.736 0.597 1.333 1.333 1.333s1.333-0.597 1.333-1.333v0-4.667c0-0.736-0.597-1.333-1.333-1.333v0zM4 21.667c-0.736 0-1.333 0.597-1.333 1.333v0 2.333c0 0.736 0.597 1.333 1.333 1.333s1.333-0.597 1.333-1.333v0-2.333c0-0.736-0.597-1.333-1.333-1.333v0zM28 5.333c-0.736 0-1.333 0.597-1.333 1.333v0 18.667c0 0.736 0.597 1.333 1.333 1.333s1.333-0.597 1.333-1.333v0-18.667c0-0.736-0.597-1.333-1.333-1.333v0zM7.057 16.943c-0.241-0.241-0.39-0.575-0.39-0.943s0.149-0.701 0.39-0.943l6.667-6.667c0.243-0.251 0.583-0.407 0.959-0.407 0.736 0 1.333 0.597 1.333 1.333 0 0.376-0.156 0.716-0.407 0.959l-4.391 4.391h12.781c0.736 0 1.333 0.597 1.333 1.333s-0.597 1.333-1.333 1.333v0h-12.781l4.391 4.391c0.232 0.24 0.374 0.566 0.374 0.926 0 0.736-0.597 1.333-1.333 1.333-0.36 0-0.687-0.143-0.927-0.375l-6.666-6.666z"></path>
</svg>
