<!-- Generated by IcoMoon.io -->
<svg version="1.1" xmlns="http://www.w3.org/2000/svg" width="32" height="32" viewBox="0 0 32 32">
<title>padding-down-filled</title>
<path d="M5.333 4c0 0.736 0.597 1.333 1.333 1.333v0h18.667c0.736 0 1.333-0.597 1.333-1.333s-0.597-1.333-1.333-1.333v0h-18.667c-0.736 0-1.333 0.597-1.333 1.333v0zM5.333 28c0 0.736 0.597 1.333 1.333 1.333v0h2.333c0.736 0 1.333-0.597 1.333-1.333s-0.597-1.333-1.333-1.333v0h-2.333c-0.736 0-1.333 0.597-1.333 1.333v0zM12.333 28c0 0.736 0.597 1.333 1.333 1.333v0h4.667c0.736 0 1.333-0.597 1.333-1.333s-0.597-1.333-1.333-1.333v0h-4.667c-0.736 0-1.333 0.597-1.333 1.333v0zM21.667 28c0 0.736 0.597 1.333 1.333 1.333v0h2.333c0.736 0 1.333-0.597 1.333-1.333s-0.597-1.333-1.333-1.333v0h-2.333c-0.736 0-1.333 0.597-1.333 1.333v0zM23.609 18.276l-6.667 6.667c-0.241 0.241-0.575 0.39-0.943 0.39s-0.701-0.149-0.943-0.39l-6.667-6.667c-0.251-0.243-0.407-0.583-0.407-0.959 0-0.736 0.597-1.333 1.333-1.333 0.376 0 0.716 0.156 0.959 0.407l4.391 4.391v-12.781c0-0.736 0.597-1.333 1.333-1.333s1.333 0.597 1.333 1.333v0 12.781l4.391-4.391c0.24-0.232 0.566-0.374 0.926-0.374 0.736 0 1.333 0.597 1.333 1.333 0 0.36-0.143 0.687-0.375 0.927l0-0z"></path>
</svg>
