<!-- Generated by IcoMoon.io -->
<svg version="1.1" xmlns="http://www.w3.org/2000/svg" width="32" height="32" viewBox="0 0 32 32">
<title>padding-left-filled</title>
<path d="M4 5.333c-0.736 0-1.333 0.597-1.333 1.333v2.333c0 0.736 0.597 1.333 1.333 1.333s1.333-0.597 1.333-1.333v-2.333c0-0.736-0.597-1.333-1.333-1.333zM4 12.333c-0.736 0-1.333 0.597-1.333 1.333v4.667c0 0.736 0.597 1.333 1.333 1.333s1.333-0.597 1.333-1.333v-4.667c0-0.736-0.597-1.333-1.333-1.333zM4 21.667c-0.736 0-1.333 0.597-1.333 1.333v2.333c0 0.736 0.597 1.333 1.333 1.333s1.333-0.597 1.333-1.333v-2.333c0-0.736-0.597-1.333-1.333-1.333zM28 5.333c-0.736 0-1.333 0.597-1.333 1.333v18.667c0 0.736 0.597 1.333 1.333 1.333s1.333-0.597 1.333-1.333v-18.667c0-0.736-0.597-1.333-1.333-1.333zM7.057 16.943c-0.521-0.521-0.521-1.365 0-1.886l6.667-6.667c0.521-0.521 1.365-0.521 1.886 0s0.521 1.365 0 1.886l-4.391 4.391h12.781c0.736 0 1.333 0.597 1.333 1.333s-0.597 1.333-1.333 1.333h-12.781l4.391 4.391c0.521 0.521 0.521 1.365 0 1.886s-1.365 0.521-1.886 0l-6.667-6.667z"></path>
</svg>
