<!-- Generated by IcoMoon.io -->
<svg version="1.1" xmlns="http://www.w3.org/2000/svg" width="32" height="32" viewBox="0 0 32 32">
<title>padding-down-filled</title>
<path d="M5.333 4c0 0.736 0.597 1.333 1.333 1.333h18.667c0.736 0 1.333-0.597 1.333-1.333s-0.597-1.333-1.333-1.333h-18.667c-0.736 0-1.333 0.597-1.333 1.333zM5.333 28c0 0.736 0.597 1.333 1.333 1.333h2.333c0.736 0 1.333-0.597 1.333-1.333s-0.597-1.333-1.333-1.333h-2.333c-0.736 0-1.333 0.597-1.333 1.333zM12.333 28c0 0.736 0.597 1.333 1.333 1.333h4.667c0.736 0 1.333-0.597 1.333-1.333s-0.597-1.333-1.333-1.333h-4.667c-0.736 0-1.333 0.597-1.333 1.333zM21.667 28c0 0.736 0.597 1.333 1.333 1.333h2.333c0.736 0 1.333-0.597 1.333-1.333s-0.597-1.333-1.333-1.333h-2.333c-0.736 0-1.333 0.597-1.333 1.333zM23.609 18.276l-6.667 6.667c-0.521 0.521-1.365 0.521-1.886 0l-6.667-6.667c-0.521-0.521-0.521-1.365 0-1.886s1.365-0.521 1.886 0l4.391 4.391v-12.781c0-0.736 0.597-1.333 1.333-1.333s1.333 0.597 1.333 1.333v12.781l4.391-4.391c0.521-0.521 1.365-0.521 1.886 0s0.521 1.365 0 1.886z"></path>
</svg>
