<!-- Generated by IcoMoon.io -->
<svg version="1.1" xmlns="http://www.w3.org/2000/svg" width="32" height="32" viewBox="0 0 32 32">
<title>padding-right-filled</title>
<path d="M4 5.333c0.736 0 1.333 0.597 1.333 1.333v0 18.667c0 0.736-0.597 1.333-1.333 1.333s-1.333-0.597-1.333-1.333v0-18.667c0-0.736 0.597-1.333 1.333-1.333v0zM28 5.333c0.736 0 1.333 0.597 1.333 1.333v0 2.333c0 0.736-0.597 1.333-1.333 1.333s-1.333-0.597-1.333-1.333v0-2.333c0-0.736 0.597-1.333 1.333-1.333v0zM28 12.333c0.736 0 1.333 0.597 1.333 1.333v0 4.667c0 0.736-0.597 1.333-1.333 1.333s-1.333-0.597-1.333-1.333v0-4.667c0-0.736 0.597-1.333 1.333-1.333v0zM28 21.667c0.736 0 1.333 0.597 1.333 1.333v0 2.333c0 0.736-0.597 1.333-1.333 1.333s-1.333-0.597-1.333-1.333v0-2.333c0-0.736 0.597-1.333 1.333-1.333v0zM24.943 16.943c0.241-0.241 0.39-0.575 0.39-0.943s-0.149-0.701-0.39-0.943l-6.667-6.667c-0.243-0.251-0.583-0.407-0.959-0.407-0.736 0-1.333 0.597-1.333 1.333 0 0.376 0.156 0.716 0.407 0.959l4.391 4.391h-12.781c-0.736 0-1.333 0.597-1.333 1.333s0.597 1.333 1.333 1.333v0h12.781l-4.391 4.391c-0.232 0.24-0.374 0.566-0.374 0.926 0 0.736 0.597 1.333 1.333 1.333 0.36 0 0.687-0.143 0.927-0.375l6.666-6.666z"></path>
</svg>
