<!-- Generated by IcoMoon.io -->
<svg version="1.1" xmlns="http://www.w3.org/2000/svg" width="32" height="32" viewBox="0 0 32 32">
<title>page-fit-filled</title>
<path d="M24.333 5.333c2.761 0 5 2.239 5 5v0 11.333c0 2.761-2.239 5-5 5v0h-16.667c-2.761 0-5-2.239-5-5v0-11.333c0-2.761 2.239-5 5-5v0h16.667zM24.333 17.333c-0.504 0-0.921 0.373-0.99 0.859l-0.001 0.005-0.009 0.136v1.667c0 0 0 0 0 0 0 0.326-0.234 0.597-0.543 0.655l-0.004 0.001-0.12 0.011h-1.667c-0.552 0-1 0.448-1 1 0 0.504 0.373 0.921 0.858 0.99l0.005 0.001 0.136 0.009h1.667c1.402-0 2.551-1.083 2.658-2.458l0.001-0.009 0.008-0.2v-1.667c0-0.552-0.448-1-1-1v0zM7.667 17.333c-0.504 0-0.921 0.373-0.99 0.859l-0.001 0.005-0.009 0.136v1.667c0 1.402 1.083 2.551 2.458 2.658l0.009 0.001 0.2 0.008h1.667c0.552-0 1-0.448 1-1 0-0.504-0.373-0.921-0.858-0.99l-0.005-0.001-0.136-0.009h-1.667c-0 0-0 0-0 0-0.326 0-0.597-0.234-0.655-0.543l-0.001-0.004-0.011-0.12v-1.667c0-0.552-0.448-1-1-1v0zM11 9.333h-1.667l-0.2 0.007c-1.312 0.102-2.353 1.139-2.458 2.441l-0.001 0.009-0.008 0.209v1.667l0.009 0.136c0.069 0.491 0.486 0.864 0.991 0.864s0.921-0.373 0.99-0.858l0.001-0.005 0.009-0.136v-1.667l0.011-0.12c0.051-0.273 0.263-0.485 0.532-0.535l0.004-0.001 0.12-0.011h1.667l0.136-0.009c0.491-0.069 0.864-0.486 0.864-0.991s-0.373-0.921-0.858-0.99l-0.005-0.001-0.136-0.009zM22.667 9.333h-1.667c-0.552 0-1 0.448-1 1 0 0.504 0.373 0.921 0.858 0.99l0.005 0.001 0.136 0.009h1.667c0 0 0 0 0 0 0.326 0 0.597 0.234 0.655 0.543l0.001 0.004 0.011 0.12v1.667c0 0.552 0.448 1 1 1 0.504 0 0.921-0.373 0.99-0.858l0.001-0.005 0.009-0.136v-1.667c0-0 0-0.001 0-0.001 0-1.402-1.083-2.552-2.458-2.659l-0.009-0.001-0.2-0.007z"></path>
</svg>
