<!-- Generated by IcoMoon.io -->
<svg version="1.1" xmlns="http://www.w3.org/2000/svg" width="32" height="32" viewBox="0 0 32 32">
<title>paint-brush-arrow-down-filled</title>
<path d="M13.333 5.333c0-1.473 1.194-2.667 2.667-2.667s2.667 1.194 2.667 2.667v4.667h3.667c1.657 0 3 1.343 3 3v2.333h-18.547c0.013-0.954-0.001-1.805-0.023-2.492-0.050-1.518 1.154-2.842 2.719-2.842h3.851v-4.667z"></path>
<path d="M6.718 17.333h18.615v1.528c-0.286-0.125-0.602-0.194-0.934-0.194-1.289 0-2.333 1.045-2.333 2.333v3.257c-0.878-0.451-1.981-0.309-2.716 0.426-0.911 0.911-0.911 2.389 0 3.3l1.35 1.35h-6.629c0.22-0.512 0.481-1.162 0.711-1.85 0.264-0.792 0.402-1.381 0.474-1.788 0.036-0.204 0.055-0.362 0.066-0.477 0.005-0.057 0.008-0.104 0.010-0.14 0.001-0.018 0.001-0.034 0.002-0.047l0-0.017 0-0.007v-0.006c0-0.552-0.448-1-1-1-0.547 0-0.992 0.44-1 0.985-0 0.006-0.001 0.023-0.004 0.052-0.005 0.057-0.017 0.159-0.044 0.31-0.053 0.301-0.165 0.795-0.401 1.503-0.237 0.711-0.516 1.389-0.737 1.893-0.109 0.247-0.202 0.449-0.269 0.59h-1.79c0.162-0.356 0.35-0.779 0.542-1.238 0.542-1.292 1.173-2.981 1.359-4.287 0.078-0.547-0.302-1.053-0.849-1.131s-1.053 0.302-1.131 0.849c-0.147 1.027-0.682 2.505-1.224 3.796-0.264 0.63-0.519 1.19-0.707 1.593-0.080 0.171-0.148 0.313-0.199 0.419h-2.88c-0.366 0-0.703-0.2-0.878-0.522s-0.16-0.714 0.039-1.021c1.263-1.952 1.96-4.775 2.313-7.638 0.118-0.962 0.196-1.914 0.245-2.819z"></path>
<path d="M20.293 25.626c0.391-0.391 1.024-0.391 1.414 0l1.693 1.693v-6.319c0-0.552 0.448-1 1-1s1 0.448 1 1v6.186l1.56-1.56c0.39-0.391 1.024-0.391 1.414 0s0.391 1.024 0 1.414l-3.333 3.333c-0.187 0.188-0.442 0.293-0.707 0.293s-0.52-0.105-0.707-0.293l-3.333-3.333c-0.391-0.391-0.391-1.024 0-1.414z"></path>
</svg>
