<!-- Generated by IcoMoon.io -->
<svg version="1.1" xmlns="http://www.w3.org/2000/svg" width="32" height="32" viewBox="0 0 32 32">
<title>paint-brush-filled</title>
<path d="M16.667 2.667v4.336c0 0.552 0.448 1 1 1s1-0.448 1-1v0-4.336h1.333v5.668c0 0.552 0.448 1 1 1s1-0.448 1-1v0-5.668h2.333c0.552 0 1 0.448 1 1v0 11h-18.667v-11c0-0.552 0.448-1 1-1v0h9zM6.667 16.667v2.336c0 1.657 1.343 3 3 3v0h3.667v4.664c0 1.473 1.194 2.667 2.667 2.667s2.667-1.194 2.667-2.667v0-4.664h3.667c1.657 0 3-1.343 3-3v0-2.336h-18.667z"></path>
</svg>
