<!-- Generated by IcoMoon.io -->
<svg version="1.1" xmlns="http://www.w3.org/2000/svg" width="32" height="32" viewBox="0 0 32 32">
<title>paint-brush-arrow-up-filled</title>
<path d="M16 2.667c-1.473 0-2.667 1.194-2.667 2.667v0 4.667h-3.851c-1.565 0-2.769 1.324-2.72 2.841 0.017 0.523 0.029 1.807 0.028 2.492h18.543v-2.333c0-1.657-1.343-3-3-3v0h-3.667v-4.667c0-1.473-1.194-2.667-2.667-2.667v0zM6.473 20.152c0.119-0.96 0.245-2.819 0.245-2.819h18.615v1.559c-0.293-0.142-0.637-0.226-1.001-0.226-0.645 0-1.228 0.262-1.65 0.684l-3.333 3.333c-0.423 0.422-0.685 1.006-0.685 1.651 0 1.289 1.045 2.333 2.333 2.333 0.39 0 0.758-0.096 1.081-0.265l-0.013 0.006v2.924h-7.995c0.22-0.512 0.48-1.163 0.709-1.851 0.178-0.492 0.342-1.092 0.462-1.708l0.013-0.080c0.032-0.172 0.059-0.384 0.074-0.599l0.001-0.018 0.003-0.047v-0.031s0-1-1-1c-0 0-0 0-0 0-0.547 0-0.992 0.439-1 0.985v0.001c0 0.005 0 0.023-0.004 0.052-0.005 0.057-0.017 0.16-0.043 0.309-0.053 0.301-0.167 0.796-0.403 1.504-0.338 1.001-0.677 1.822-1.062 2.616l0.058-0.134h-1.792c0.163-0.356 0.349-0.779 0.543-1.239 0.541-1.292 1.173-2.98 1.36-4.287 0.006-0.042 0.010-0.091 0.010-0.141 0-0.552-0.448-1-1-1-0.502 0-0.918 0.371-0.989 0.853l-0.001 0.005c-0.147 1.027-0.683 2.505-1.224 3.796-0.395 0.952-0.699 1.614-1.019 2.266l0.113-0.254h-2.88c0 0-0 0-0 0-0.552 0-1-0.448-1-1 0-0.202 0.060-0.389 0.162-0.547l-0.002 0.004c1.264-1.953 1.96-4.775 2.313-7.639zM21.707 25.040c-0.183 0.196-0.443 0.318-0.732 0.318-0.552 0-1-0.448-1-1 0-0.289 0.122-0.549 0.318-0.731l0.001-0.001 3.333-3.333c0.181-0.181 0.431-0.292 0.707-0.292s0.526 0.112 0.707 0.292v0l3.333 3.333c0.196 0.183 0.318 0.443 0.318 0.732 0 0.552-0.448 1-1 1-0.289 0-0.549-0.122-0.731-0.318l-0.001-0.001-1.627-1.627v6.253c0 0.552-0.448 1-1 1s-1-0.448-1-1v0-6.253l-1.627 1.627z"></path>
</svg>
