<!-- Generated by IcoMoon.io -->
<svg version="1.1" xmlns="http://www.w3.org/2000/svg" width="32" height="32" viewBox="0 0 32 32">
<title>pair-filled</title>
<path d="M24.357 28.001h-8.715c-0.47 0.801-1.327 1.329-2.307 1.329-1.473 0-2.667-1.194-2.667-2.667 0-0.981 0.53-1.838 1.319-2.301l0.013-0.007v-4.356l-4.36 0.001c-0.437 0.746-1.207 1.256-2.1 1.325l-0.009 0.001-0.197 0.007c-1.473-0-2.667-1.194-2.667-2.667 0-0.982 0.531-1.84 1.321-2.303l0.013-0.007v-8.715c-0.803-0.47-1.333-1.328-1.333-2.309 0-1.473 1.194-2.667 2.667-2.667 0.982 0 1.84 0.531 2.303 1.321l0.007 0.013h8.715c0.47-0.803 1.328-1.333 2.309-1.333 1.473 0 2.667 1.194 2.667 2.667 0 0.982-0.531 1.84-1.321 2.303l-0.013 0.007v4.357h4.357c0.437-0.747 1.207-1.257 2.102-1.326l0.009-0.001 0.199-0.007c0 0 0 0 0 0 1.473 0 2.667 1.194 2.667 2.667 0 0.981-0.53 1.838-1.318 2.301l-0.013 0.007v8.717c0.801 0.47 1.331 1.327 1.331 2.308 0 1.473-1.194 2.667-2.667 2.667-0.982 0-1.84-0.531-2.303-1.321l-0.007-0.013zM24.357 14.668l-4.357-0.001 0.001 1.691c0.746 0.437 1.256 1.207 1.325 2.102l0.001 0.009 0.007 0.199c0 0 0 0.001 0 0.001 0 1.473-1.194 2.667-2.667 2.667-0.982 0-1.84-0.531-2.303-1.321l-0.007-0.013-1.689-0.001 0.001 4.359c0.404 0.233 0.74 0.571 0.973 0.973h8.715c0.239-0.407 0.57-0.737 0.965-0.969l0.013-0.007v-8.712c-0.342-0.2-0.626-0.461-0.846-0.772l-0.006-0.008-0.125-0.196zM17.333 14.667l-1.691 0.001c-0.238 0.406-0.567 0.735-0.961 0.966l-0.013 0.007-0.001 1.692h1.689c0.239-0.407 0.569-0.737 0.963-0.969l0.013-0.007v-1.691zM16.357 6.668h-8.715c-0.238 0.406-0.567 0.735-0.961 0.966l-0.013 0.007v8.716c0.403 0.235 0.74 0.572 0.973 0.976h4.359v-1.689c-0.748-0.436-1.258-1.208-1.327-2.103l-0.001-0.009-0.007-0.199c0-1.473 1.194-2.667 2.667-2.667 0.982 0 1.84 0.531 2.303 1.321l0.007 0.013h1.691v-4.357c-0.341-0.2-0.625-0.461-0.845-0.77l-0.006-0.008-0.125-0.196z"></path>
</svg>
