<!-- Generated by IcoMoon.io -->
<svg version="1.1" xmlns="http://www.w3.org/2000/svg" width="32" height="32" viewBox="0 0 32 32">
<title>panel-right-expand-filled</title>
<path d="M10.914 16.8l1.597 1.398c0.154 0.146 0.25 0.352 0.25 0.581 0 0.442-0.358 0.8-0.8 0.8-0.191 0-0.367-0.067-0.504-0.179l0.001 0.001-3.2-2.8c-0.168-0.147-0.273-0.362-0.273-0.602s0.105-0.454 0.272-0.601l0.001-0.001 3.2-2.8c0.136-0.111 0.312-0.178 0.503-0.178 0.442 0 0.8 0.358 0.8 0.8 0 0.229-0.096 0.435-0.25 0.581l-0 0-1.597 1.398h5.886c0.442 0 0.8 0.358 0.8 0.8s-0.358 0.8-0.8 0.8v0h-5.886zM28.8 22.4c0 1.767-1.433 3.2-3.2 3.2v0h-19.2c-1.767 0-3.2-1.433-3.2-3.2v0-12.8c0-1.767 1.433-3.2 3.2-3.2v0h19.2c1.767 0 3.2 1.433 3.2 3.2v0 12.8zM19.2 24v-16h-12.8c-0.884 0-1.6 0.716-1.6 1.6v0 12.8c0 0.884 0.716 1.6 1.6 1.6v0h12.8z"></path>
</svg>
