<!-- Generated by IcoMoon.io -->
<svg version="1.1" xmlns="http://www.w3.org/2000/svg" width="32" height="32" viewBox="0 0 32 32">
<title>panel-right-contract-filled</title>
<path d="M12.257 12.331c0.184-0.203 0.448-0.33 0.743-0.33 0.258 0 0.493 0.098 0.67 0.258l-0.001-0.001 3.333 3c0.203 0.184 0.33 0.448 0.33 0.743s-0.127 0.559-0.329 0.742l-0.001 0.001-3.333 3c-0.178 0.168-0.42 0.271-0.685 0.271-0.552 0-1-0.448-1-1 0-0.302 0.134-0.572 0.345-0.756l0.001-0.001 1.397-1.257h-4.728c-0.552 0-1-0.448-1-1s0.448-1 1-1v0h4.728l-1.397-1.257c-0.203-0.184-0.33-0.448-0.33-0.743 0-0.258 0.098-0.493 0.258-0.67l-0.001 0.001zM29.333 23c0 2.025-1.642 3.667-3.667 3.667v0h-19.333c-2.025 0-3.667-1.642-3.667-3.667v0-14c0-2.025 1.642-3.667 3.667-3.667v0h19.333c2.025 0 3.667 1.642 3.667 3.667v0 14zM20.003 24.667v-17.333h-13.669c-0.92 0-1.667 0.747-1.667 1.667v14c0 0.92 0.747 1.667 1.667 1.667h13.669z"></path>
</svg>
