<!-- Generated by IcoMoon.io -->
<svg version="1.1" xmlns="http://www.w3.org/2000/svg" width="32" height="32" viewBox="0 0 32 32">
<title>panel-right-add-filled</title>
<path d="M24 4.8c2.651 0 4.8 2.149 4.8 4.8v0 6.811c-1.504-1.252-3.456-2.011-5.586-2.011-0.005 0-0.010 0-0.015 0h0.001c-0.004 0-0.008 0-0.013 0-1.781 0-3.437 0.531-4.82 1.444l0.033-0.020v-9.424h-10.4c-1.767 0-3.2 1.433-3.2 3.2v0 11.2c0 1.767 1.433 3.2 3.2 3.2v0h6.435c0.055 0.594 0.159 1.138 0.311 1.662l-0.015-0.062h-6.731c-2.651 0-4.8-2.149-4.8-4.8v0-11.2c0-2.651 2.149-4.8 4.8-4.8v0h16zM30.4 23.2c0 3.976-3.224 7.2-7.2 7.2s-7.2-3.224-7.2-7.2v0c0-3.976 3.224-7.2 7.2-7.2s7.2 3.224 7.2 7.2v0zM24 20c0-0.442-0.358-0.8-0.8-0.8s-0.8 0.358-0.8 0.8v0 2.4h-2.4c-0.442 0-0.8 0.358-0.8 0.8s0.358 0.8 0.8 0.8v0h2.4v2.4c0 0.442 0.358 0.8 0.8 0.8s0.8-0.358 0.8-0.8v0-2.4h2.4c0.442 0 0.8-0.358 0.8-0.8s-0.358-0.8-0.8-0.8v0h-2.4v-2.4z"></path>
</svg>
