<!-- Generated by IcoMoon.io -->
<svg version="1.1" xmlns="http://www.w3.org/2000/svg" width="32" height="32" viewBox="0 0 32 32">
<title>password-filled</title>
<path d="M7 6.667c-2.393 0-4.333 1.94-4.333 4.333v0 10c0 2.393 1.94 4.333 4.333 4.333v0h18c2.393 0 4.333-1.94 4.333-4.333v0-10c0-2.393-1.94-4.333-4.333-4.333v0h-18zM8.373 13.627l0.96 0.96 0.96-0.96c0.183-0.196 0.443-0.318 0.732-0.318 0.552 0 1 0.448 1 1 0 0.289-0.122 0.549-0.318 0.731l-0.001 0.001-0.959 0.96 0.96 0.957c0.181 0.181 0.293 0.431 0.293 0.708 0 0.553-0.448 1.001-1.001 1.001-0.276 0-0.526-0.112-0.707-0.293v0l-0.96-0.96-0.96 0.96c-0.178 0.166-0.418 0.268-0.682 0.268-0.552 0-1-0.448-1-1 0-0.264 0.102-0.504 0.269-0.682l-0.001 0.001 0.96-0.96-0.96-0.96c-0.166-0.178-0.268-0.418-0.268-0.682 0-0.552 0.448-1 1-1 0.264 0 0.504 0.102 0.682 0.269l-0.001-0.001zM15.707 13.627l0.96 0.96 0.96-0.96c0.183-0.196 0.443-0.318 0.732-0.318 0.552 0 1 0.448 1 1 0 0.289-0.122 0.549-0.318 0.731l-0.001 0.001-0.959 0.96 0.96 0.957c0.181 0.181 0.293 0.431 0.293 0.707 0 0.552-0.448 1-1 1-0.276 0-0.526-0.112-0.707-0.293v0l-0.96-0.959-0.96 0.96c-0.183 0.196-0.443 0.318-0.732 0.318-0.552 0-1-0.448-1-1 0-0.289 0.122-0.549 0.318-0.731l0.001-0.001 0.96-0.96-0.96-0.96c-0.166-0.178-0.268-0.418-0.268-0.682 0-0.552 0.448-1 1-1 0.264 0 0.504 0.102 0.682 0.269l-0.001-0.001zM21 19c0-0.552 0.448-1 1-1v0h2.333c0.552 0 1 0.448 1 1s-0.448 1-1 1v0h-2.333c-0.552 0-1-0.448-1-1v0z"></path>
</svg>
