<!-- Generated by IcoMoon.io -->
<svg version="1.1" xmlns="http://www.w3.org/2000/svg" width="32" height="32" viewBox="0 0 32 32">
<title>patch-filled</title>
<path d="M13.064 4.317l1.993 1.993-8.748 8.748-1.993-1.993c-1.692-1.692-1.692-4.436 0-6.128l2.619-2.619c1.692-1.692 4.436-1.692 6.128 0zM18.936 27.684l-1.993-1.993 8.748-8.748 1.993 1.993c1.692 1.692 1.692 4.436 0 6.128l-2.619 2.619c-1.692 1.692-4.436 1.692-6.128 0zM4.317 18.936c-1.692 1.692-1.692 4.436 0 6.128l2.619 2.619c1.692 1.692 4.436 1.692 6.128 0l14.619-14.619c1.692-1.692 1.692-4.436 0-6.128l-2.619-2.619c-1.692-1.692-4.436-1.692-6.128 0l-14.619 14.619zM17 12c0 0.552-0.448 1-1 1s-1-0.448-1-1c0-0.552 0.448-1 1-1s1 0.448 1 1zM12 17c-0.552 0-1-0.448-1-1s0.448-1 1-1c0.552 0 1 0.448 1 1s-0.448 1-1 1zM16 17c-0.552 0-1-0.448-1-1s0.448-1 1-1c0.552 0 1 0.448 1 1s-0.448 1-1 1zM21 16c0 0.552-0.448 1-1 1s-1-0.448-1-1c0-0.552 0.448-1 1-1s1 0.448 1 1zM16 21c-0.552 0-1-0.448-1-1s0.448-1 1-1c0.552 0 1 0.448 1 1s-0.448 1-1 1z"></path>
</svg>
