<!-- Generated by IcoMoon.io -->
<svg version="1.1" xmlns="http://www.w3.org/2000/svg" width="32" height="32" viewBox="0 0 32 32">
<title>patch-filled</title>
<path d="M13.064 4.316l1.993 1.993-8.747 8.747-1.995-1.992c-0.784-0.784-1.269-1.867-1.269-3.064s0.485-2.28 1.269-3.064l2.62-2.62c0.784-0.784 1.867-1.269 3.064-1.269s2.28 0.485 3.064 1.269v0zM18.936 27.683l-1.993-1.993 8.747-8.747 1.993 1.992c0.785 0.784 1.27 1.868 1.27 3.065s-0.485 2.28-1.27 3.065l-2.619 2.619c-0.784 0.784-1.867 1.269-3.064 1.269s-2.28-0.485-3.064-1.269v0zM4.317 18.936c-0.784 0.784-1.269 1.867-1.269 3.064s0.485 2.28 1.269 3.064l2.619 2.619c0.784 0.784 1.867 1.269 3.064 1.269s2.28-0.485 3.064-1.269l14.62-14.619c0.784-0.784 1.269-1.867 1.269-3.064s-0.485-2.28-1.269-3.064l-2.62-2.62c-0.784-0.784-1.867-1.269-3.064-1.269s-2.28 0.485-3.064 1.269l-14.619 14.619zM17 12c0 0.552-0.448 1-1 1s-1-0.448-1-1v0c0-0.552 0.448-1 1-1s1 0.448 1 1v0zM12 17c-0.552 0-1-0.448-1-1s0.448-1 1-1v0c0.552 0 1 0.448 1 1s-0.448 1-1 1v0zM16 17c-0.552 0-1-0.448-1-1s0.448-1 1-1v0c0.552 0 1 0.448 1 1s-0.448 1-1 1v0zM21 16c0 0.552-0.448 1-1 1s-1-0.448-1-1v0c0-0.552 0.448-1 1-1s1 0.448 1 1v0zM16 21c-0.552 0-1-0.448-1-1s0.448-1 1-1v0c0.552 0 1 0.448 1 1s-0.448 1-1 1v0z"></path>
</svg>
