<!-- Generated by IcoMoon.io -->
<svg version="1.1" xmlns="http://www.w3.org/2000/svg" width="32" height="32" viewBox="0 0 32 32">
<title>pause-off-filled</title>
<path d="M4.8 5.931v20.469c0 1.325 1.075 2.4 2.4 2.4v0h3.2c1.325 0 2.4-1.075 2.4-2.4v0-12.469l6.4 6.4v6.069c0 1.325 1.075 2.4 2.4 2.4v0h3.2c0.782 0 1.477-0.374 1.915-0.954l0.72 0.72c0.145 0.145 0.345 0.234 0.566 0.234 0.442 0 0.8-0.358 0.8-0.8 0-0.221-0.090-0.421-0.235-0.566v0l-24-24c-0.145-0.145-0.345-0.235-0.566-0.235-0.442 0-0.801 0.359-0.801 0.801 0 0.221 0.090 0.421 0.235 0.566v0l1.366 1.365zM19.2 15.806l8 8v-18.206c0-1.325-1.075-2.4-2.4-2.4v0h-3.2c-1.325 0-2.4 1.075-2.4 2.4v0 10.206zM6.656 3.262l6.144 6.144v-3.806c0-1.325-1.075-2.4-2.4-2.4v0h-3.2c-0.187 0-0.368 0.021-0.544 0.062z"></path>
</svg>
