<!-- Generated by IcoMoon.io -->
<svg version="1.1" xmlns="http://www.w3.org/2000/svg" width="32" height="32" viewBox="0 0 32 32">
<title>pause-settings-filled</title>
<path d="M19.2 5.6c0-1.325 1.075-2.4 2.4-2.4v0h3.2c1.325 0 2.4 1.075 2.4 2.4v0 9.76c-1.159-0.605-2.53-0.96-3.985-0.96-0.005 0-0.010 0-0.015 0h0.001c-1.44 0-2.8 0.346-4 0.96v-9.76zM4.8 5.6c0-1.325 1.075-2.4 2.4-2.4v0h3.2c1.325 0 2.4 1.075 2.4 2.4v0 20.8c0 1.325-1.075 2.4-2.4 2.4v0h-3.2c-1.325 0-2.4-1.075-2.4-2.4v0-20.8zM19.304 18.307c0.076 0.259 0.119 0.557 0.119 0.865 0 1.486-1.012 2.735-2.385 3.095l-0.022 0.005-0.738 0.189c-0.023 0.221-0.036 0.479-0.036 0.739 0 0.313 0.019 0.621 0.056 0.923l-0.004-0.036 0.56 0.133c1.422 0.346 2.462 1.608 2.462 3.114 0 0.327-0.049 0.642-0.14 0.939l0.006-0.023-0.202 0.677c0.411 0.325 0.859 0.603 1.336 0.827l0.52-0.55c0.585-0.618 1.41-1.002 2.326-1.002 0.917 0 1.744 0.386 2.327 1.004l0.001 0.002 0.539 0.573c0.469-0.216 0.909-0.483 1.315-0.797l-0.25-0.89c-0.076-0.259-0.119-0.557-0.119-0.865 0-1.486 1.012-2.735 2.385-3.095l0.022-0.005 0.738-0.189c0.023-0.222 0.036-0.479 0.036-0.74 0-0.313-0.019-0.621-0.056-0.924l0.004 0.036-0.558-0.131c-1.423-0.345-2.464-1.608-2.464-3.114 0-0.327 0.049-0.643 0.14-0.94l-0.006 0.023 0.202-0.674c-0.388-0.31-0.827-0.587-1.295-0.812l-0.041-0.018-0.518 0.55c-0.585 0.619-1.411 1.004-2.327 1.004s-1.744-0.386-2.327-1.004l-0.001-0.002-0.539-0.573c-0.502 0.234-0.934 0.499-1.331 0.807l0.016-0.012 0.25 0.891zM23.2 24.8c-0.884 0-1.6-0.716-1.6-1.6s0.716-1.6 1.6-1.6v0c0.884 0 1.6 0.716 1.6 1.6s-0.716 1.6-1.6 1.6v0z"></path>
</svg>
