<!-- Generated by IcoMoon.io -->
<svg version="1.1" xmlns="http://www.w3.org/2000/svg" width="32" height="32" viewBox="0 0 32 32">
<title>payment-filled</title>
<path d="M2.667 10.333c0-2.025 1.642-3.667 3.667-3.667h19.333c2.025 0 3.667 1.642 3.667 3.667v2.333h-26.667v-2.333z"></path>
<path d="M2.667 14.667h26.667v7c0 2.025-1.642 3.667-3.667 3.667h-19.333c-2.025 0-3.667-1.642-3.667-3.667v-7zM21 19.333c-0.552 0-1 0.448-1 1s0.448 1 1 1h3.333c0.552 0 1-0.448 1-1s-0.448-1-1-1h-3.333z"></path>
</svg>
