<!-- Generated by IcoMoon.io -->
<svg version="1.1" xmlns="http://www.w3.org/2000/svg" width="32" height="32" viewBox="0 0 32 32">
<title>payment-filled</title>
<path d="M6.833 6c-2.301 0-4.167 1.865-4.167 4.167v0 2.167h26.667v-2.167c0-2.301-1.865-4.167-4.167-4.167v0h-18.333zM2.667 21.833v-7.833h26.667v7.833c0 2.301-1.865 4.167-4.167 4.167v0h-18.333c-2.301 0-4.167-1.865-4.167-4.167v0zM20.833 19.667c-0.46 0-0.833 0.373-0.833 0.833s0.373 0.833 0.833 0.833v0h3.667c0.46 0 0.833-0.373 0.833-0.833s-0.373-0.833-0.833-0.833v0h-3.667z"></path>
</svg>
