<!-- Generated by IcoMoon.io -->
<svg version="1.1" xmlns="http://www.w3.org/2000/svg" width="32" height="32" viewBox="0 0 32 32">
<title>pen-filled</title>
<path d="M21.471 4.017c0.836-0.853 2-1.381 3.288-1.381 2.543 0 4.605 2.062 4.605 4.605 0 1.287-0.528 2.451-1.38 3.287l-1.49 1.491 0.623 0.665c0.475 0.505 0.766 1.188 0.766 1.938 0 0.782-0.317 1.491-0.83 2.003l-2.297 2.297c-0.151 0.151-0.359 0.244-0.589 0.244-0.46 0-0.833-0.373-0.833-0.833 0-0.23 0.093-0.439 0.244-0.589v0l2.297-2.297c0.211-0.211 0.342-0.503 0.342-0.825 0-0.309-0.12-0.589-0.316-0.798l0.001 0.001-0.587-0.627-13.443 13.445c-0.494 0.494-1.116 0.86-1.812 1.042l-0.028 0.006-6.324 1.615c-0.062 0.017-0.133 0.026-0.207 0.026-0.46 0-0.833-0.373-0.833-0.833 0-0.073 0.009-0.144 0.027-0.212l-0.001 0.006 1.618-6.324c0.189-0.724 0.554-1.345 1.048-1.839l16.112-16.113z"></path>
</svg>
