<!-- Generated by IcoMoon.io -->
<svg version="1.1" xmlns="http://www.w3.org/2000/svg" width="32" height="32" viewBox="0 0 32 32">
<title>pen-off-filled</title>
<path d="M18.667 19.845l9.244 9.244c0.151 0.151 0.359 0.244 0.589 0.244 0.46 0 0.833-0.373 0.833-0.833 0-0.23-0.093-0.439-0.244-0.589v0l-25-25c-0.151-0.151-0.359-0.244-0.589-0.244-0.46 0-0.833 0.373-0.833 0.833 0 0.23 0.093 0.438 0.244 0.589l9.245 9.244-6.797 6.798c-0.494 0.493-0.859 1.115-1.042 1.811l-0.006 0.028-1.618 6.323c-0.017 0.062-0.026 0.133-0.026 0.207 0 0.46 0.373 0.833 0.833 0.833 0.073 0 0.144-0.009 0.212-0.027l-0.006 0.001 6.325-1.616c0.724-0.189 1.346-0.555 1.84-1.049l6.797-6.797zM25.314 13.198l-4.29 4.291-6.512-6.512 6.959-6.96c0.833-0.833 1.984-1.349 3.256-1.349 2.543 0 4.605 2.062 4.605 4.605 0 1.272-0.515 2.423-1.349 3.256l-1.489 1.49 0.623 0.665c0.475 0.505 0.766 1.188 0.766 1.938 0 0.782-0.317 1.491-0.83 2.003l-2.297 2.297c-0.151 0.151-0.359 0.244-0.589 0.244-0.46 0-0.833-0.373-0.833-0.833 0-0.23 0.093-0.439 0.244-0.589v0l2.297-2.297c0.211-0.211 0.342-0.503 0.342-0.825 0-0.309-0.12-0.589-0.316-0.798l0.001 0.001-0.587-0.627z"></path>
</svg>
