<!-- Generated by IcoMoon.io -->
<svg version="1.1" xmlns="http://www.w3.org/2000/svg" width="32" height="32" viewBox="0 0 32 32">
<title>pentagon-filled</title>
<path d="M14.335 2.875c0.461-0.339 1.040-0.542 1.667-0.542s1.205 0.203 1.675 0.548l-0.008-0.006 10.5 7.637c0.711 0.521 1.167 1.353 1.167 2.292 0 0.313-0.051 0.614-0.144 0.895l0.006-0.020-4.012 12.36c-0.38 1.146-1.443 1.959-2.695 1.959h-12.978c-1.252-0-2.314-0.812-2.689-1.939l-0.006-0.020-4.012-12.36c-0.088-0.261-0.139-0.563-0.139-0.875 0-0.938 0.456-1.77 1.159-2.286l0.008-0.006 10.501-7.637z"></path>
</svg>
