<!-- Generated by IcoMoon.io -->
<svg version="1.1" xmlns="http://www.w3.org/2000/svg" width="32" height="32" viewBox="0 0 32 32">
<title>people-money-filled</title>
<path d="M10.667 14.667c2.946 0 5.333-2.388 5.333-5.333s-2.388-5.333-5.333-5.333v0c-2.946 0-5.333 2.388-5.333 5.333s2.388 5.333 5.333 5.333v0zM22.667 14.667c2.209 0 4-1.791 4-4s-1.791-4-4-4v0c-2.209 0-4 1.791-4 4s1.791 4 4 4v0zM5.667 17.333c-1.657 0-3 1.343-3 3v0 0.333s0 6 8 6c1.651 0 2.96-0.256 4-0.66v-5.34c0-1.419 0.887-2.629 2.135-3.112-0.334-0.14-0.722-0.221-1.129-0.221-0.002 0-0.004 0-0.006 0h-10zM16 20.667c0-1.105 0.895-2 2-2v0h10.667c1.105 0 2 0.895 2 2v0 5.333c0 1.105-0.895 2-2 2v0h-10.667c-1.105 0-2-0.895-2-2v0-5.333zM17.333 21.333v1.333c1.473 0 2.667-1.194 2.667-2.667v0h-1.333c0 0.736-0.597 1.333-1.333 1.333v0zM29.333 22.667v-1.333c-0.736 0-1.333-0.597-1.333-1.333v0h-1.333c0 1.473 1.194 2.667 2.667 2.667v0zM26.667 26.667h1.333c0-0.736 0.597-1.333 1.333-1.333v0-1.333c-1.473 0-2.667 1.194-2.667 2.667v0zM17.333 24v1.333c0.736 0 1.333 0.597 1.333 1.333v0h1.333c0-1.473-1.194-2.667-2.667-2.667v0zM23.333 25.667c1.289 0 2.333-1.045 2.333-2.333s-1.045-2.333-2.333-2.333v0c-1.289 0-2.333 1.045-2.333 2.333s1.045 2.333 2.333 2.333v0z"></path>
</svg>
