<!-- Generated by IcoMoon.io -->
<svg version="1.1" xmlns="http://www.w3.org/2000/svg" width="32" height="32" viewBox="0 0 32 32">
<title>people-money-filled</title>
<path d="M18 16.668c1.039 0 1.894 0.794 1.991 1.807l0.009 0.193v1.332h-2c-1.841 0-3.333 1.492-3.333 3.333v4.295c-1.116 0.263-2.275 0.371-3.333 0.371-3.63 0-8.447-1.275-8.659-5.694l-0.007-0.306v-3.333c0-1.039 0.794-1.894 1.807-1.991l0.193-0.009 13.333 0.001zM28.667 20c0.228 0 0.451 0.023 0.667 0.067v-1.4l-0.009-0.193c-0.097-1.015-0.952-1.807-1.991-1.807h-6.683l0.151 0.215c0.333 0.516 0.532 1.125 0.532 1.785v1.333h7.333zM11.333 2.667c3.313 0 6 2.687 6 6s-2.687 6-6 6c-3.313 0-6-2.687-6-6s2.687-6 6-6zM23.333 5.333c2.577 0 4.667 2.089 4.667 4.667s-2.089 4.667-4.667 4.667c-2.577 0-4.667-2.089-4.667-4.667s2.089-4.667 4.667-4.667zM16 23.333c0-1.105 0.895-2 2-2h10.667c1.105 0 2 0.895 2 2v5.333c0 1.105-0.895 2-2 2h-10.667c-1.105 0-2-0.895-2-2v-5.333zM29.333 24c-0.736 0-1.333-0.597-1.333-1.333h-1.333c0 1.473 1.194 2.667 2.667 2.667v-1.333zM29.333 26.667c-1.473 0-2.667 1.194-2.667 2.667h1.333c0-0.736 0.597-1.333 1.333-1.333v-1.333zM18.667 22.667c0 0.736-0.597 1.333-1.333 1.333v1.333c1.473 0 2.667-1.194 2.667-2.667h-1.333zM20 29.333c0-1.473-1.194-2.667-2.667-2.667v1.333c0.736 0 1.333 0.597 1.333 1.333h1.333zM25.667 26c0-1.289-1.045-2.333-2.333-2.333s-2.333 1.045-2.333 2.333c0 1.289 1.045 2.333 2.333 2.333s2.333-1.045 2.333-2.333z"></path>
</svg>
