<!-- Generated by IcoMoon.io -->
<svg version="1.1" xmlns="http://www.w3.org/2000/svg" width="32" height="32" viewBox="0 0 32 32">
<title>people-lock-filled</title>
<path d="M16 9.333c0 2.946-2.388 5.333-5.333 5.333s-5.333-2.388-5.333-5.333v0c0-2.946 2.388-5.333 5.333-5.333s5.333 2.388 5.333 5.333v0zM21.347 14.443c0.582-0.28 1.266-0.444 1.988-0.444 0.449 0 0.883 0.063 1.295 0.182l-0.033-0.008c1.245-0.694 2.073-2.003 2.073-3.505 0-2.209-1.791-4-4-4-0.001 0-0.003 0-0.004 0h0c-0 0-0 0-0 0-2.209 0-4 1.791-4 4 0 1.736 1.106 3.214 2.652 3.767l0.028 0.009zM18.269 18.84c-1.331 0.458-2.269 1.699-2.269 3.16 0 0 0 0 0 0v0 3.32c-1.179 0.783-2.88 1.347-5.333 1.347-8 0-8-6-8-6v-0.333c0-1.657 1.343-3 3-3v0h10c0 0 0.001 0 0.001 0 1.107 0 2.074 0.6 2.594 1.492l0.008 0.014zM20 20v-1.333c0-1.841 1.492-3.333 3.333-3.333s3.333 1.492 3.333 3.333v0 1.333h0.667c1.105 0 2 0.895 2 2v0 6.667c0 1.105-0.895 2-2 2v0h-8c-1.105 0-2-0.895-2-2v0-6.667c0-1.105 0.895-2 2-2v0h0.667zM22 18.667v1.333h2.667v-1.333c0-0.736-0.597-1.333-1.333-1.333s-1.333 0.597-1.333 1.333v0zM24.667 25.333c0-0.736-0.597-1.333-1.333-1.333s-1.333 0.597-1.333 1.333v0c0 0.736 0.597 1.333 1.333 1.333s1.333-0.597 1.333-1.333v0z"></path>
</svg>
