<!-- Generated by IcoMoon.io -->
<svg version="1.1" xmlns="http://www.w3.org/2000/svg" width="32" height="32" viewBox="0 0 32 32">
<title>people-settings-filled</title>
<path d="M10.857 14.857c2.84 0 5.143-2.303 5.143-5.143s-2.303-5.143-5.143-5.143v0c-2.84 0-5.143 2.303-5.143 5.143s2.303 5.143 5.143 5.143v0zM26.857 10.857c0 2.209-1.791 4-4 4s-4-1.791-4-4v0c0-2.209 1.791-4 4-4s4 1.791 4 4v0zM2.286 19.714c0-1.42 1.151-2.571 2.571-2.571v0h12c0.226 0 0.446 0.030 0.655 0.085-1.637 1.56-2.655 3.757-2.655 6.191 0 0.004 0 0.007 0 0.011v-0.001c0 0.76 0.098 1.496 0.285 2.197-1.114 0.406-2.518 0.661-4.285 0.661-8.571 0-8.571-6-8.571-6v-0.571zM19.195 19.083c0.057 0.19 0.090 0.409 0.090 0.635 0 1.067-0.732 1.964-1.721 2.215l-0.016 0.003-1.17 0.289c-0.059 0.361-0.093 0.777-0.093 1.201 0 0.444 0.037 0.88 0.109 1.304l-0.006-0.046 1.115 0.269c1.012 0.25 1.75 1.15 1.75 2.222 0 0.23-0.034 0.453-0.098 0.663l0.004-0.016-0.37 1.255c0.592 0.526 1.269 0.954 2.003 1.257l0.963-1.013c0.417-0.438 1.005-0.711 1.657-0.711s1.239 0.273 1.656 0.71l0.001 0.001 0.971 1.023c0.769-0.321 1.431-0.74 2.009-1.252l-0.007 0.006-0.383-1.326c-0.057-0.19-0.089-0.407-0.089-0.633 0-1.067 0.731-1.964 1.72-2.215l0.016-0.003 1.173-0.29c0.059-0.361 0.093-0.777 0.093-1.201 0-0.444-0.037-0.88-0.109-1.304l0.006 0.046-1.117-0.269c-1.012-0.25-1.75-1.15-1.75-2.222 0-0.23 0.034-0.453 0.098-0.663l-0.004 0.016 0.37-1.257c-0.571-0.51-1.233-0.933-1.957-1.24l-0.047-0.017-0.963 1.015c-0.417 0.439-1.005 0.711-1.657 0.711s-1.24-0.273-1.656-0.71l-0.001-0.001-0.97-1.023c-0.77 0.32-1.432 0.74-2.010 1.252l0.007-0.006 0.383 1.326zM23.429 25.143c-0.947 0-1.714-0.767-1.714-1.714s0.767-1.714 1.714-1.714v0c0.947 0 1.714 0.767 1.714 1.714s-0.767 1.714-1.714 1.714v0z"></path>
</svg>
