<!-- Generated by IcoMoon.io -->
<svg version="1.1" xmlns="http://www.w3.org/2000/svg" width="32" height="32" viewBox="0 0 32 32">
<title>people-search-filled</title>
<path d="M15.88 18.667h10.457c1.657 0 3 1.343 3 3v0 1.207c-0 1.514-0.673 2.871-1.736 3.788l-0.006 0.005c-2.088 1.793-5.075 2.669-8.928 2.669h-0.239c0.153-0.303 0.243-0.66 0.243-1.038 0-0.569-0.203-1.090-0.541-1.495l0.003 0.004-0.148-0.161-2.973-2.965c0.623-1.053 0.99-2.32 0.99-3.674 0-0.474-0.045-0.937-0.131-1.385l0.007 0.046zM8.667 14c3.314 0 6 2.686 6 6 0 1.463-0.524 2.804-1.394 3.846l0.008-0.009 3.764 3.752c0.18 0.181 0.291 0.43 0.291 0.706 0 0.552-0.448 1-1 1-0.223 0-0.428-0.073-0.594-0.196l0.003 0.002-0.113-0.096-3.871-3.861c-0.882 0.538-1.949 0.857-3.091 0.857-3.314 0-6-2.686-6-6s2.685-5.999 5.997-6h0zM8.667 16c-2.209 0-4 1.791-4 4s1.791 4 4 4v0c2.209 0 4-1.791 4-4s-1.791-4-4-4v0zM18.667 2.673c3.682 0 6.667 2.985 6.667 6.667s-2.985 6.667-6.667 6.667v0c-3.682 0-6.667-2.985-6.667-6.667s2.985-6.667 6.667-6.667v0z"></path>
</svg>
