<!-- Generated by IcoMoon.io -->
<svg version="1.1" xmlns="http://www.w3.org/2000/svg" width="32" height="32" viewBox="0 0 32 32">
<title>people-error-filled</title>
<path d="M10.667 14.667c2.946 0 5.333-2.388 5.333-5.333s-2.388-5.333-5.333-5.333v0c-2.946 0-5.333 2.388-5.333 5.333s2.388 5.333 5.333 5.333v0zM22.667 14.667c2.209 0 4-1.791 4-4s-1.791-4-4-4v0c-2.209 0-4 1.791-4 4s1.791 4 4 4v0zM5.667 17.333c-1.657 0-3 1.343-3 3v0 0.333s0 6 8 6c1.853 0 3.277-0.321 4.371-0.817-0.235-0.75-0.371-1.613-0.371-2.508 0-0.003 0-0.006 0-0.009v0c0-2.209 0.827-4.225 2.187-5.756-0.349-0.154-0.755-0.244-1.183-0.244-0.001 0-0.002 0-0.004 0h-10zM30.667 23.333c0 4.050-3.283 7.333-7.333 7.333s-7.333-3.283-7.333-7.333v0c0-4.050 3.283-7.333 7.333-7.333s7.333 3.283 7.333 7.333v0zM23.333 18.667c-0.368 0-0.667 0.298-0.667 0.667v0 5.333c0 0.368 0.298 0.667 0.667 0.667s0.667-0.298 0.667-0.667v0-5.333c0-0.368-0.298-0.667-0.667-0.667v0zM23.333 28.167c0.46 0 0.833-0.373 0.833-0.833s-0.373-0.833-0.833-0.833v0c-0.46 0-0.833 0.373-0.833 0.833s0.373 0.833 0.833 0.833v0z"></path>
</svg>
