<!-- Generated by IcoMoon.io -->
<svg version="1.1" xmlns="http://www.w3.org/2000/svg" width="32" height="32" viewBox="0 0 32 32">
<title>people-team-toolbox-filled</title>
<path d="M19.672 13.333c1.057 0 1.95 0.703 2.237 1.667h-0.909c-2.025 0-3.667 1.642-3.667 3.667v0.067c-1.521 0.309-2.667 1.654-2.667 3.267v5.85c-2.671-0.608-4.664-2.997-4.664-5.852v-6.332c0-1.289 1.045-2.333 2.333-2.333h7.336zM25.667 15c2.020 0 3.658 1.633 3.667 3.651v-2.984c0-1.289-1.045-2.333-2.333-2.333l-4.5-0.001c0.39 0.471 0.664 1.042 0.779 1.668h2.388zM9.508 13.332c-0.466 0.564-0.767 1.269-0.828 2.042l-0.012 0.293v6.332c0 1.129 0.255 2.198 0.711 3.153-0.439 0.119-0.901 0.181-1.378 0.181-2.946 0-5.335-2.389-5.335-5.335v-4.332c0-1.224 0.943-2.228 2.142-2.326l0.191-0.008 4.508-0.001zM16 4c2.209 0 4 1.791 4 4s-1.791 4-4 4c-2.209 0-4-1.791-4-4s1.791-4 4-4zM24.667 5.333c1.841 0 3.333 1.492 3.333 3.333s-1.492 3.333-3.333 3.333c-1.841 0-3.333-1.492-3.333-3.333s1.492-3.333 3.333-3.333zM7.333 5.333c1.841 0 3.333 1.492 3.333 3.333s-1.492 3.333-3.333 3.333c-1.841 0-3.333-1.492-3.333-3.333s1.492-3.333 3.333-3.333zM18.667 20h-0.667c-1.105 0-2 0.895-2 2v2h3.333v-0.333c0-0.552 0.448-1 1-1s1 0.448 1 1v0.333h4v-0.333c0-0.552 0.448-1 1-1s1 0.448 1 1v0.333h3.333v-2c0-1.105-0.895-2-2-2h-0.667v-1.333c0-1.289-1.045-2.333-2.333-2.333h-4.667c-1.289 0-2.333 1.045-2.333 2.333v1.333zM20.667 18.667c0-0.184 0.149-0.333 0.333-0.333h4.667c0.184 0 0.333 0.149 0.333 0.333v1.333h-5.333v-1.333zM16 28.667v-2.667h3.333v1c0 0.552 0.448 1 1 1s1-0.448 1-1v-1h4v1c0 0.552 0.448 1 1 1s1-0.448 1-1v-1h3.333v2.667c0 1.105-0.895 2-2 2h-10.667c-1.105 0-2-0.895-2-2z"></path>
</svg>
