<!-- Generated by IcoMoon.io -->
<svg version="1.1" xmlns="http://www.w3.org/2000/svg" width="32" height="32" viewBox="0 0 32 32">
<title>people-community-add-filled</title>
<path d="M23.333 16c4.050 0 7.333 3.283 7.333 7.333s-3.283 7.333-7.333 7.333c-4.050 0-7.333-3.283-7.333-7.333s3.283-7.333 7.333-7.333zM23.333 18.666l-0.12 0.011c-0.272 0.049-0.487 0.264-0.536 0.536l-0.011 0.12-0.001 3.333-3.336 0.001-0.12 0.011c-0.272 0.049-0.487 0.264-0.536 0.536l-0.011 0.12 0.011 0.12c0.049 0.272 0.264 0.487 0.536 0.536l0.12 0.011 3.337-0.001 0.001 3.339 0.011 0.12c0.049 0.272 0.264 0.487 0.536 0.536l0.12 0.011 0.12-0.011c0.272-0.049 0.487-0.264 0.536-0.536l0.011-0.12-0.001-3.339 3.339 0.001 0.12-0.011c0.272-0.049 0.487-0.264 0.536-0.536l0.011-0.12-0.011-0.12c-0.049-0.272-0.264-0.487-0.536-0.536l-0.12-0.011-3.34-0.001 0.001-3.333-0.011-0.12c-0.049-0.272-0.264-0.487-0.536-0.536l-0.12-0.011zM16.029 18.666c-0.863 1.347-1.363 2.949-1.363 4.667 0 1.178 0.235 2.302 0.661 3.326-3.405-0.183-5.328-1.629-5.328-4.326v-1.333c0-1.289 1.045-2.333 2.333-2.333l3.696-0zM10.835 12c-0.11 0.426-0.168 0.873-0.168 1.333 0 1.487 0.609 2.833 1.591 3.8l0.216 0.201-0.14-0.001c-0.402 0-0.789 0.065-1.15 0.184-1.153 0.381-2.053 1.318-2.381 2.494l-0.046 0.001c-3.879 0-6.089-1.453-6.089-4.345v-1.333c0-1.224 0.943-2.228 2.142-2.326l0.191-0.008 5.835 0zM16 9.333c2.209 0 4 1.791 4 4s-1.791 4-4 4-4-1.791-4-4c0-2.209 1.791-4 4-4zM27 12c1.289 0 2.333 1.045 2.333 2.333l-0.001 1.283c0.026 0.492-0.014 0.943-0.117 1.352-1.546-1.429-3.612-2.302-5.882-2.302-0.78 0-1.537 0.103-2.256 0.297 0.167-0.512 0.256-1.061 0.256-1.63 0-0.46-0.058-0.907-0.168-1.333l5.835-0zM8.667 2.667c2.209 0 4 1.791 4 4s-1.791 4-4 4c-2.209 0-4-1.791-4-4s1.791-4 4-4zM23.333 2.667c2.209 0 4 1.791 4 4s-1.791 4-4 4c-2.209 0-4-1.791-4-4s1.791-4 4-4z"></path>
</svg>
