<!-- Generated by IcoMoon.io -->
<svg version="1.1" xmlns="http://www.w3.org/2000/svg" width="32" height="32" viewBox="0 0 32 32">
<title>people-prohibited-filled</title>
<path d="M10.667 14.667c2.946 0 5.333-2.388 5.333-5.333s-2.388-5.333-5.333-5.333v0c-2.946 0-5.333 2.388-5.333 5.333s2.388 5.333 5.333 5.333v0zM22.667 14.667c2.209 0 4-1.791 4-4s-1.791-4-4-4v0c-2.209 0-4 1.791-4 4s1.791 4 4 4v0zM5.667 17.333c-1.657 0-3 1.343-3 3v0 0.333s0 6 8 6c1.853 0 3.277-0.321 4.371-0.817-0.235-0.75-0.371-1.613-0.371-2.508 0-0.003 0-0.006 0-0.009v0c0-2.209 0.827-4.225 2.187-5.756-0.349-0.154-0.755-0.244-1.183-0.244-0.001 0-0.002 0-0.004 0h-10zM30.667 23.333c0 4.050-3.283 7.333-7.333 7.333s-7.333-3.283-7.333-7.333v0c0-4.050 3.283-7.333 7.333-7.333s7.333 3.283 7.333 7.333v0zM18 23.333c0 1.112 0.34 2.144 0.921 2.997l7.409-7.409c-0.84-0.577-1.878-0.922-2.997-0.922-2.946 0-5.333 2.388-5.333 5.333 0 0 0 0 0 0.001v-0zM23.333 28.667c0 0 0 0 0.001 0 2.946 0 5.333-2.388 5.333-5.333 0-1.119-0.345-2.158-0.934-3.015l0.012 0.018-7.409 7.409c0.837 0.577 1.872 0.921 2.988 0.921 0.003 0 0.006 0 0.010 0h-0z"></path>
</svg>
