<!-- Generated by IcoMoon.io -->
<svg version="1.1" xmlns="http://www.w3.org/2000/svg" width="32" height="32" viewBox="0 0 32 32">
<title>people-filled</title>
<path d="M4.667 18.667l13.333 0.001c1.039 0 1.894 0.794 1.991 1.807l0.009 0.193v2.665c-0.001 4.667-4.955 6-8.667 6-3.63 0-8.447-1.275-8.659-5.694l-0.007-0.306v-2.667c0-1.039 0.794-1.894 1.807-1.991l0.193-0.009zM20.651 18.667h6.683c1.039 0 1.894 0.793 1.991 1.807l0.009 0.193v2c-0.001 4.083-3.811 5.333-6.667 5.333-0.907 0-1.908-0.128-2.853-0.429 0.87-1 1.435-2.271 1.511-3.864l0.009-0.373v-2.667c0-0.659-0.199-1.268-0.532-1.785l-0.151-0.215zM11.333 4c3.313 0 6 2.687 6 6s-2.687 6-6 6c-3.313 0-6-2.687-6-6s2.687-6 6-6zM23.333 6.667c2.577 0 4.667 2.089 4.667 4.667s-2.089 4.667-4.667 4.667c-2.577 0-4.667-2.089-4.667-4.667s2.089-4.667 4.667-4.667z"></path>
</svg>
