<!-- Generated by IcoMoon.io -->
<svg version="1.1" xmlns="http://www.w3.org/2000/svg" width="32" height="32" viewBox="0 0 32 32">
<title>people-sync-filled</title>
<path d="M10.857 14.857c2.84 0 5.143-2.303 5.143-5.143s-2.303-5.143-5.143-5.143v0c-2.84 0-5.143 2.303-5.143 5.143s2.303 5.143 5.143 5.143v0zM26.857 10.857c0 2.209-1.791 4-4 4s-4-1.791-4-4v0c0-2.209 1.791-4 4-4s4 1.791 4 4v0zM2.286 19.714c0-1.42 1.151-2.571 2.571-2.571v0h12c0.226 0 0.446 0.030 0.655 0.085-1.637 1.56-2.655 3.757-2.655 6.191 0 0.004 0 0.007 0 0.011v-0.001c0 0.76 0.098 1.496 0.285 2.197-1.114 0.406-2.518 0.661-4.285 0.661-8.571 0-8.571-6-8.571-6v-0.571zM16 23.429c0 4.103 3.326 7.429 7.429 7.429s7.429-3.326 7.429-7.429v0c0-4.103-3.326-7.429-7.429-7.429s-7.429 3.326-7.429 7.429v0zM22.113 18.766c0.394-0.123 0.847-0.194 1.316-0.194 1.712 0 3.204 0.941 3.987 2.334l0.012 0.023v-0.929c0-0.316 0.256-0.571 0.571-0.571s0.571 0.256 0.571 0.571v0 2.286c0 0.316-0.256 0.571-0.571 0.571v0h-2.286c-0.316 0-0.571-0.256-0.571-0.571s0.256-0.571 0.571-0.571v0h0.831c-0.554-1.191-1.74-2.001-3.116-2.001-0.947 0-1.805 0.384-2.425 1.006l-0 0c-0.103 0.099-0.243 0.16-0.397 0.16-0.316 0-0.571-0.256-0.571-0.571 0-0.154 0.061-0.294 0.161-0.397l-0 0c0.52-0.52 1.164-0.915 1.884-1.138l0.032-0.009zM24.744 28.091c-0.394 0.123-0.847 0.194-1.316 0.194-1.712 0-3.204-0.941-3.987-2.334l-0.012-0.023v0.93c0 0.316-0.256 0.571-0.571 0.571s-0.571-0.256-0.571-0.571v0-2.286c0-0.316 0.256-0.571 0.571-0.571v0h2.286c0.316 0 0.571 0.256 0.571 0.571s-0.256 0.571-0.571 0.571v0h-0.831c0.554 1.191 1.74 2.001 3.116 2.001 0.947 0 1.805-0.384 2.425-1.006l0-0c0.103-0.099 0.243-0.16 0.397-0.16 0.316 0 0.571 0.256 0.571 0.571 0 0.154-0.061 0.294-0.161 0.397l0-0c-0.52 0.52-1.164 0.915-1.884 1.138l-0.032 0.009z"></path>
</svg>
