<!-- Generated by IcoMoon.io -->
<svg version="1.1" xmlns="http://www.w3.org/2000/svg" width="32" height="32" viewBox="0 0 32 32">
<title>people-edit-filled</title>
<path d="M10.8 14.4c2.872 0 5.2-2.328 5.2-5.2s-2.328-5.2-5.2-5.2v0c-2.872 0-5.2 2.328-5.2 5.2s2.328 5.2 5.2 5.2v0zM16 16c0 0 0.001 0 0.001 0 1.736 0 3.149 1.382 3.199 3.106l0 0.005-2.762 2.762c-0.637 0.637-1.106 1.441-1.338 2.34l-0.008 0.035-0.17 0.677c-1.080 0.416-2.432 0.675-4.123 0.675-8.4 0-8.4-6.4-8.4-6.4 0-1.767 1.433-3.2 3.2-3.2v0h10.4zM27.2 10.4c0 2.209-1.791 4-4 4s-4-1.791-4-4v0c0-2.209 1.791-4 4-4s4 1.791 4 4v0zM25.296 15.277l-7.728 7.728c-0.438 0.437-0.76 0.99-0.919 1.608l-0.005 0.024-0.6 2.397c-0.027 0.103-0.042 0.221-0.042 0.343 0 0.786 0.638 1.424 1.424 1.424 0.122 0 0.241-0.015 0.354-0.044l-0.010 0.002 2.397-0.598c0.642-0.164 1.195-0.487 1.632-0.925l7.728-7.728c0.531-0.54 0.86-1.281 0.86-2.099 0-1.652-1.34-2.992-2.992-2.992-0.818 0-1.56 0.328-2.1 0.861l0-0z"></path>
</svg>
