<!-- Generated by IcoMoon.io -->
<svg version="1.1" xmlns="http://www.w3.org/2000/svg" width="32" height="32" viewBox="0 0 32 32">
<title>people-team-filled</title>
<path d="M16 11c2.209 0 4-1.791 4-4s-1.791-4-4-4v0c-2.209 0-4 1.791-4 4s1.791 4 4 4v0zM10 7.5c0 1.933-1.567 3.5-3.5 3.5s-3.5-1.567-3.5-3.5v0c0-1.933 1.567-3.5 3.5-3.5s3.5 1.567 3.5 3.5v0zM29 7.5c0 1.933-1.567 3.5-3.5 3.5s-3.5-1.567-3.5-3.5v0c0-1.933 1.567-3.5 3.5-3.5s3.5 1.567 3.5 3.5v0zM9.377 13c-0.546 0.676-0.877 1.546-0.877 2.493 0 0.002 0 0.005 0 0.007v-0 7.5c0 1.235 0.298 2.4 0.827 3.427-0.675 0.362-1.476 0.575-2.327 0.575-2.761 0-5-2.239-5-5 0-0.001 0-0.001 0-0.002v0-6.5c0-1.381 1.119-2.5 2.5-2.5v0h4.877zM22.673 26.427c0.521-0.992 0.827-2.168 0.827-3.416 0-0.004 0-0.008 0-0.012v0.001-7.5c0-0.946-0.328-1.815-0.877-2.5h4.877c1.381 0 2.5 1.119 2.5 2.5v0 6.5c0 0 0 0.001 0 0.002 0 2.761-2.239 5-5 5-0.851 0-1.652-0.213-2.354-0.588l0.027 0.013zM12.5 13c-1.381 0-2.5 1.119-2.5 2.5v0 7.5c0 3.314 2.686 6 6 6s6-2.686 6-6v0-7.5c0-1.381-1.119-2.5-2.5-2.5v0h-7z"></path>
</svg>
