<!-- Generated by IcoMoon.io -->
<svg version="1.1" xmlns="http://www.w3.org/2000/svg" width="32" height="32" viewBox="0 0 32 32">
<title>people-filled</title>
<path d="M10.667 16c2.946 0 5.333-2.388 5.333-5.333s-2.388-5.333-5.333-5.333v0c-2.946 0-5.333 2.388-5.333 5.333s2.388 5.333 5.333 5.333v0zM22.667 16c2.209 0 4-1.791 4-4s-1.791-4-4-4v0c-2.209 0-4 1.791-4 4s1.791 4 4 4v0zM4.5 18c-1.381 0-2.5 1.119-2.5 2.5v0 0.833s0 6 8.667 6 8.667-6 8.667-6v-0.833c0-1.381-1.119-2.5-2.5-2.5v0h-12.333zM19.116 25.393c0.917 0.372 2.079 0.607 3.55 0.607 7 0 7-5.333 7-5.333v-0.167c0-1.38-1.119-2.5-2.499-2.5h-7.429c0.576 0.665 0.927 1.539 0.927 2.494 0 0.002 0 0.004 0 0.006v-0 0.863l-0.001 0.038c-0.004 0.143-0.014 0.277-0.029 0.41l0.002-0.023c-0.038 0.336-0.094 0.636-0.171 0.928l0.010-0.045c-0.271 1.046-0.741 1.958-1.372 2.735l0.010-0.013z"></path>
</svg>
