<!-- Generated by IcoMoon.io -->
<svg version="1.1" xmlns="http://www.w3.org/2000/svg" width="32" height="32" viewBox="0 0 32 32">
<title>people-team-delete-filled</title>
<path d="M16 11c2.209 0 4-1.791 4-4s-1.791-4-4-4v0c-2.209 0-4 1.791-4 4s1.791 4 4 4v0zM10 7.5c0 1.933-1.567 3.5-3.5 3.5s-3.5-1.567-3.5-3.5v0c0-1.933 1.567-3.5 3.5-3.5s3.5 1.567 3.5 3.5v0zM29 7.5c0 1.933-1.567 3.5-3.5 3.5s-3.5-1.567-3.5-3.5v0c0-1.933 1.567-3.5 3.5-3.5s3.5 1.567 3.5 3.5v0zM9.377 13c-0.546 0.676-0.877 1.546-0.877 2.493 0 0.002 0 0.005 0 0.007v-0 7.5c0 1.235 0.298 2.4 0.827 3.427-0.675 0.362-1.476 0.575-2.327 0.575-2.761 0-5-2.239-5-5 0-0.001 0-0.001 0-0.002v0-6.5c0-1.381 1.119-2.5 2.5-2.5v0h4.877zM14 23c0-4.487 3.284-8.207 7.58-8.889-0.454-0.674-1.215-1.111-2.078-1.111-0.001 0-0.002 0-0.003 0h-7c-1.381 0-2.5 1.119-2.5 2.5v0 7.5c0 3.314 2.686 6 6 6 0.101 0 0.201-0.002 0.3-0.007l-0.014 0.001c-1.419-1.579-2.286-3.679-2.286-5.981 0-0.004 0-0.009 0-0.013v0.001zM22.623 13c0.241 0.302 0.44 0.639 0.587 1.002 2.741 0.063 5.171 1.345 6.777 3.323l0.013 0.017v-1.842c0-1.381-1.119-2.5-2.5-2.5v0h-4.877zM23 15.5c4.142 0 7.5 3.358 7.5 7.5s-3.358 7.5-7.5 7.5v0c-4.142 0-7.5-3.358-7.5-7.5s3.358-7.5 7.5-7.5v0zM25.72 19.22l-2.72 2.72-2.72-2.72c-0.137-0.147-0.332-0.239-0.549-0.239-0.414 0-0.75 0.336-0.75 0.75 0 0.216 0.092 0.411 0.238 0.548l0 0 2.72 2.72-2.72 2.72c-0.147 0.137-0.239 0.332-0.239 0.549 0 0.414 0.336 0.75 0.75 0.75 0.216 0 0.411-0.092 0.548-0.238l0-0 2.72-2.72 2.72 2.72c0.137 0.147 0.332 0.239 0.549 0.239 0.414 0 0.75-0.336 0.75-0.75 0-0.216-0.092-0.411-0.238-0.548l-0-0-2.72-2.72 2.72-2.72c0.147-0.137 0.239-0.332 0.239-0.549 0-0.414-0.336-0.75-0.75-0.75-0.216 0-0.411 0.092-0.548 0.238l-0 0z"></path>
</svg>
