<!-- Generated by IcoMoon.io -->
<svg version="1.1" xmlns="http://www.w3.org/2000/svg" width="32" height="32" viewBox="0 0 32 32">
<title>people-error-filled</title>
<path d="M17.333 8.667c0-3.313-2.687-6-6-6s-6 2.687-6 6c0 3.313 2.687 6 6 6s6-2.687 6-6z"></path>
<path d="M17.079 17.334l-11.746-0.002c-1.472 0-2.667 1.195-2.667 2.667v2.001l0.007 0.306c0.212 4.419 5.030 5.694 8.659 5.694 1.374 0 2.918-0.183 4.319-0.649-0.629-1.201-0.985-2.567-0.985-4.017 0-2.329 0.918-4.443 2.413-6z"></path>
<path d="M23.333 5.333c2.577 0 4.667 2.089 4.667 4.667s-2.089 4.667-4.667 4.667c-2.577 0-4.667-2.089-4.667-4.667s2.089-4.667 4.667-4.667z"></path>
<path d="M30.667 23.333c0 4.050-3.283 7.333-7.333 7.333s-7.333-3.283-7.333-7.333c0-4.050 3.283-7.333 7.333-7.333s7.333 3.283 7.333 7.333zM23.333 18.667c-0.368 0-0.667 0.299-0.667 0.667v5.333c0 0.368 0.299 0.667 0.667 0.667s0.667-0.299 0.667-0.667v-5.333c0-0.368-0.299-0.667-0.667-0.667zM23.333 28.167c0.46 0 0.833-0.373 0.833-0.833s-0.373-0.833-0.833-0.833c-0.46 0-0.833 0.373-0.833 0.833s0.373 0.833 0.833 0.833z"></path>
</svg>
