<!-- Generated by IcoMoon.io -->
<svg version="1.1" xmlns="http://www.w3.org/2000/svg" width="32" height="32" viewBox="0 0 32 32">
<title>people-team-add-filled</title>
<path d="M23.333 16c4.050 0 7.333 3.283 7.333 7.333s-3.283 7.333-7.333 7.333c-4.050 0-7.333-3.283-7.333-7.333s3.283-7.333 7.333-7.333zM23.333 18.666l-0.12 0.011c-0.272 0.049-0.487 0.264-0.536 0.536l-0.011 0.12-0.001 3.333-3.336 0.001-0.12 0.011c-0.272 0.049-0.487 0.264-0.536 0.536l-0.011 0.12 0.011 0.12c0.049 0.272 0.264 0.487 0.536 0.536l0.12 0.011 3.337-0.001 0.001 3.339 0.011 0.12c0.049 0.272 0.264 0.487 0.536 0.536l0.12 0.011 0.12-0.011c0.272-0.049 0.487-0.264 0.536-0.536l0.011-0.12-0.001-3.339 3.339 0.001 0.12-0.011c0.272-0.049 0.487-0.264 0.536-0.536l0.011-0.12-0.011-0.12c-0.049-0.272-0.264-0.487-0.536-0.536l-0.12-0.011-3.34-0.001 0.001-3.333-0.011-0.12c-0.049-0.272-0.264-0.487-0.536-0.536l-0.12-0.011zM19.005 13.333c1.113 0 2.084 0.606 2.602 1.506-3.96 0.801-6.941 4.299-6.941 8.494 0 1.719 0.5 3.321 1.363 4.668l-0.026-0.002c-3.314 0-6.001-2.687-6.001-6.001v-5.665c0-1.657 1.343-3 3-3h6.003zM9.875 13.334c-0.685 0.714-1.128 1.661-1.197 2.711l-0.009 0.289v5.665c0 1.129 0.255 2.198 0.711 3.153-0.439 0.119-0.901 0.181-1.378 0.181-2.946 0-5.335-2.389-5.335-5.335v-3.665c0-1.588 1.234-2.887 2.795-2.993l0.205-0.007 4.209 0zM26.333 13.333c1.657 0 3 1.343 3 3l0.001 0.747c-1.557-1.495-3.672-2.414-6.001-2.414l-0.324 0.006c-0.207-0.5-0.507-0.953-0.876-1.339l4.201-0zM24.667 5.333c1.841 0 3.333 1.492 3.333 3.333s-1.492 3.333-3.333 3.333c-1.841 0-3.333-1.492-3.333-3.333s1.492-3.333 3.333-3.333zM16 4c2.209 0 4 1.791 4 4s-1.791 4-4 4c-2.209 0-4-1.791-4-4s1.791-4 4-4zM7.333 5.333c1.841 0 3.333 1.492 3.333 3.333s-1.492 3.333-3.333 3.333c-1.841 0-3.333-1.492-3.333-3.333s1.492-3.333 3.333-3.333z"></path>
</svg>
