<!-- Generated by IcoMoon.io -->
<svg version="1.1" xmlns="http://www.w3.org/2000/svg" width="32" height="32" viewBox="0 0 32 32">
<title>people-team-filled</title>
<path d="M19.672 13.333c1.289 0 2.333 1.045 2.333 2.333v6.332c0 3.314-2.687 6.001-6.001 6.001s-6.001-2.687-6.001-6.001v-6.332c0-1.289 1.045-2.333 2.333-2.333h7.336zM9.508 13.332c-0.466 0.564-0.767 1.269-0.828 2.042l-0.012 0.293v6.332c0 1.129 0.255 2.198 0.711 3.153-0.439 0.119-0.901 0.181-1.378 0.181-2.946 0-5.335-2.389-5.335-5.335v-4.332c0-1.224 0.943-2.228 2.142-2.326l0.191-0.008 4.508-0.001zM22.5 13.332l4.5 0.001c1.289 0 2.333 1.045 2.333 2.333v4.333c0 2.945-2.388 5.333-5.333 5.333-0.475 0-0.936-0.062-1.375-0.179 0.401-0.837 0.646-1.761 0.701-2.735l0.012-0.421v-6.332c0-0.887-0.315-1.7-0.839-2.335zM16 4c2.209 0 4 1.791 4 4s-1.791 4-4 4c-2.209 0-4-1.791-4-4s1.791-4 4-4zM24.667 5.333c1.841 0 3.333 1.492 3.333 3.333s-1.492 3.333-3.333 3.333c-1.841 0-3.333-1.492-3.333-3.333s1.492-3.333 3.333-3.333zM7.333 5.333c1.841 0 3.333 1.492 3.333 3.333s-1.492 3.333-3.333 3.333c-1.841 0-3.333-1.492-3.333-3.333s1.492-3.333 3.333-3.333z"></path>
</svg>
