<!-- Generated by IcoMoon.io -->
<svg version="1.1" xmlns="http://www.w3.org/2000/svg" width="32" height="32" viewBox="0 0 32 32">
<title>people-community-filled</title>
<path d="M19.667 20c1.289 0 2.333 1.045 2.333 2.333l-0.001 1.283c0.156 2.919-2.015 4.396-5.909 4.396-3.879 0-6.089-1.453-6.089-4.345v-1.333c0-1.289 1.045-2.333 2.333-2.333h7.333zM5 13.333l5.835 0c-0.11 0.426-0.168 0.873-0.168 1.333 0 1.487 0.609 2.833 1.591 3.8l0.216 0.201-0.14-0.001c-0.402 0-0.789 0.065-1.15 0.184-1.153 0.381-2.053 1.318-2.381 2.494l-0.046 0.001c-3.879 0-6.089-1.453-6.089-4.345v-1.333c0-1.289 1.045-2.333 2.333-2.333zM27 13.333c1.289 0 2.333 1.045 2.333 2.333l-0.001 1.283c0.156 2.919-2.015 4.396-5.909 4.396l-0.224-0.002c-0.319-1.139-1.173-2.053-2.274-2.455-0.314-0.115-0.647-0.187-0.995-0.212l-0.263-0.009-0.14 0.001c1.108-0.977 1.807-2.408 1.807-4.001 0-0.46-0.058-0.907-0.168-1.333l5.835-0zM16 10.667c2.209 0 4 1.791 4 4s-1.791 4-4 4-4-1.791-4-4c0-2.209 1.791-4 4-4zM8.667 4c2.209 0 4 1.791 4 4s-1.791 4-4 4c-2.209 0-4-1.791-4-4s1.791-4 4-4zM23.333 4c2.209 0 4 1.791 4 4s-1.791 4-4 4c-2.209 0-4-1.791-4-4s1.791-4 4-4z"></path>
</svg>
