<!-- Generated by IcoMoon.io -->
<svg version="1.1" xmlns="http://www.w3.org/2000/svg" width="32" height="32" viewBox="0 0 32 32">
<title>person-lock-filled</title>
<path d="M18.667 18.733v-0.066h-12.996c-1.656 0-2.998 1.342-2.998 2.999v1.227c0 0.763 0.238 1.507 0.68 2.128 2.056 2.886 5.42 4.315 9.982 4.315 0.953 0 1.853-0.062 2.701-0.187-0.023-0.157-0.035-0.318-0.035-0.481v-6.667c0-1.613 1.145-2.958 2.667-3.267zM13.334 2.673c3.682 0 6.667 2.985 6.667 6.667s-2.985 6.667-6.667 6.667c-3.682 0-6.667-2.985-6.667-6.667s2.985-6.667 6.667-6.667zM20 20v-1.333c0-1.841 1.492-3.333 3.333-3.333s3.333 1.492 3.333 3.333v1.333h0.667c1.105 0 2 0.895 2 2v6.667c0 1.105-0.895 2-2 2h-8c-1.105 0-2-0.895-2-2v-6.667c0-1.105 0.895-2 2-2h0.667zM22 18.667v1.333h2.667v-1.333c0-0.736-0.597-1.333-1.333-1.333s-1.333 0.597-1.333 1.333zM24.667 25.333c0-0.736-0.597-1.333-1.333-1.333s-1.333 0.597-1.333 1.333c0 0.736 0.597 1.333 1.333 1.333s1.333-0.597 1.333-1.333z"></path>
</svg>
