<!-- Generated by IcoMoon.io -->
<svg version="1.1" xmlns="http://www.w3.org/2000/svg" width="32" height="32" viewBox="0 0 32 32">
<title>person-pill-filled</title>
<path d="M15.577 29.329c-0.464-0.76-0.739-1.679-0.739-2.662 0-1.426 0.578-2.717 1.512-3.651l4.351-4.349h-12.364c-0 0-0.001 0-0.001 0-1.656 0-2.999 1.343-2.999 2.999 0 0 0 0.001 0 0.001v-0 1.225c0 0.763 0.24 1.507 0.681 2.128 1.992 2.796 5.212 4.224 9.559 4.311zM22.667 9.339c0-3.682-2.985-6.667-6.667-6.667s-6.667 2.985-6.667 6.667v0c0 3.682 2.985 6.667 6.667 6.667s6.667-2.985 6.667-6.667v0zM23.96 17.292c0.693-0.693 1.65-1.121 2.707-1.121 2.114 0 3.828 1.714 3.828 3.828 0 1.057-0.429 2.015-1.122 2.707l-6.667 6.667c-0.69 0.676-1.636 1.094-2.679 1.094-2.114 0-3.828-1.714-3.828-3.828 0-1.043 0.418-1.989 1.095-2.68l-0.001 0.001 6.667-6.667zM27.96 18.707c-0.331-0.331-0.788-0.536-1.293-0.536s-0.962 0.205-1.293 0.536l-2.627 2.627 2.587 2.587 2.627-2.627c0.331-0.331 0.536-0.788 0.536-1.293s-0.205-0.962-0.536-1.293l-0-0zM22.707 26.707c0.196-0.183 0.318-0.443 0.318-0.732 0-0.552-0.448-1-1-1-0.289 0-0.549 0.122-0.731 0.318l-0.001 0.001-1.333 1.333c-0.196 0.183-0.318 0.443-0.318 0.732 0 0.552 0.448 1 1 1 0.289 0 0.549-0.122 0.731-0.318l0.001-0.001 1.333-1.333z"></path>
</svg>
