<!-- Generated by IcoMoon.io -->
<svg version="1.1" xmlns="http://www.w3.org/2000/svg" width="32" height="32" viewBox="0 0 32 32">
<title>person-note-filled</title>
<path d="M14.667 20c0-0.468 0.080-0.916 0.228-1.333h-9.225c-1.656 0-2.998 1.343-2.998 2.999v1.227c0 0.763 0.238 1.507 0.68 2.128 2.056 2.886 5.42 4.315 9.981 4.315 0.53 0 1.044-0.019 1.542-0.058-0.135-0.401-0.208-0.83-0.208-1.277v-8zM13.333 2.673c3.682 0 6.667 2.985 6.667 6.667s-2.985 6.667-6.667 6.667c-3.682 0-6.667-2.985-6.667-6.667s2.985-6.667 6.667-6.667zM16 20c0-1.473 1.194-2.667 2.667-2.667h9.333c1.473 0 2.667 1.194 2.667 2.667v8c0 1.473-1.194 2.667-2.667 2.667h-9.333c-1.473 0-2.667-1.194-2.667-2.667v-8zM19.333 21.333c-0.368 0-0.667 0.299-0.667 0.667s0.299 0.667 0.667 0.667h8c0.368 0 0.667-0.299 0.667-0.667s-0.299-0.667-0.667-0.667h-8zM19.333 25.333c-0.368 0-0.667 0.299-0.667 0.667s0.299 0.667 0.667 0.667h8c0.368 0 0.667-0.299 0.667-0.667s-0.299-0.667-0.667-0.667h-8z"></path>
</svg>
