<!-- Generated by IcoMoon.io -->
<svg version="1.1" xmlns="http://www.w3.org/2000/svg" width="32" height="32" viewBox="0 0 32 32">
<title>person-available-filled</title>
<path d="M23.333 16c4.050 0 7.333 3.283 7.333 7.333s-3.283 7.333-7.333 7.333v0c-4.050 0-7.333-3.283-7.333-7.333s3.283-7.333 7.333-7.333v0zM16.029 18.667c-0.855 1.316-1.363 2.925-1.363 4.653 0 0.005 0 0.009 0 0.014v-0.001c0 2.173 0.8 4.16 2.123 5.683-1.061 0.213-2.213 0.32-3.456 0.32-4.561 0-7.925-1.431-9.981-4.316-0.425-0.591-0.68-1.329-0.68-2.127 0-0 0-0.001 0-0.001v0-1.227c0-1.655 1.341-2.997 2.996-2.999h10.36zM19.804 22.863c-0.121-0.126-0.291-0.204-0.48-0.204-0.368 0-0.667 0.298-0.667 0.667 0 0.188 0.078 0.358 0.203 0.479l2.667 2.667c0.121 0.121 0.287 0.195 0.471 0.195s0.351-0.075 0.471-0.195l5.333-5.333c0.126-0.121 0.204-0.291 0.204-0.48 0-0.368-0.298-0.667-0.667-0.667-0.188 0-0.358 0.078-0.479 0.203l-4.862 4.862-2.196-2.195zM13.333 2.673c3.682 0 6.667 2.985 6.667 6.667s-2.985 6.667-6.667 6.667v0c-3.682 0-6.667-2.985-6.667-6.667s2.985-6.667 6.667-6.667v0z"></path>
</svg>
