<!-- Generated by IcoMoon.io -->
<svg version="1.1" xmlns="http://www.w3.org/2000/svg" width="32" height="32" viewBox="0 0 32 32">
<title>person-alert-filled</title>
<path d="M23.672 18.667c0 0 0.001 0 0.001 0 1.656 0 2.998 1.342 2.999 2.997v1.224c-0 0.801-0.257 1.541-0.693 2.144l0.007-0.011c-2.059 2.883-5.427 4.312-9.987 4.312-0.217 0-0.431-0.003-0.643-0.009h0.011c0.155-0.008 0.491-0.027 0.817-0.18 0.685-0.327 1.149-1.014 1.149-1.81 0-0.303-0.067-0.59-0.188-0.847l0.005 0.012c-0.13-0.26-0.301-0.48-0.506-0.662l-0.002-0.002c-0.148-0.136-0.31-0.277-0.476-0.415l-0.023-0.018-0.813-0.688v-3.38c0-0.948-0.2-1.851-0.556-2.667h8.896zM16 2.671c3.682 0 6.667 2.985 6.667 6.667s-2.985 6.667-6.667 6.667v0c-3.682 0-6.667-2.985-6.667-6.667s2.985-6.667 6.667-6.667v0zM8.671 16c-2.946 0-5.333 2.388-5.333 5.333v0 4l-1.267 1.067c-0.409 0.347-0.613 0.52-0.676 0.655-0.039 0.082-0.061 0.178-0.061 0.279 0 0.265 0.155 0.494 0.379 0.601l0.004 0.002c0.135 0.063 0.404 0.063 0.941 0.063h12.027c0.536 0 0.804 0 0.939-0.063 0.229-0.109 0.384-0.338 0.384-0.604 0-0.101-0.023-0.197-0.063-0.283l0.002 0.004c-0.063-0.135-0.267-0.308-0.677-0.653l-1.265-1.068v-4c0-2.946-2.388-5.333-5.333-5.333v0zM10.671 29.333c-0.292 0.777-1.077 1.333-2 1.333-0.924 0-1.709-0.556-2-1.333h4z"></path>
</svg>
