<!-- Generated by IcoMoon.io -->
<svg version="1.1" xmlns="http://www.w3.org/2000/svg" width="32" height="32" viewBox="0 0 32 32">
<title>person-chat-filled</title>
<path d="M14.663 23.332c0-1.72 0.5-3.32 1.363-4.668h-7.692c-1.657 0-3 1.343-3 3v0 1.227c0 0.763 0.237 1.507 0.68 2.128 1.871 2.624 4.823 4.045 8.773 4.28l0.696-2.284c-0.518-1.076-0.82-2.34-0.82-3.674 0-0.003 0-0.006 0-0.009v0zM15.997 2.667c3.683 0 6.668 2.985 6.668 6.668s-2.985 6.668-6.668 6.668v0c-3.683 0-6.668-2.985-6.668-6.668s2.985-6.668 6.668-6.668v0zM30.667 23.332c0 0.001 0 0.002 0 0.002 0 4.051-3.284 7.335-7.335 7.335-1.305 0-2.531-0.341-3.593-0.939l0.037 0.019-2.916 0.887c-0.058 0.018-0.125 0.029-0.194 0.029-0.368 0-0.667-0.298-0.667-0.667 0-0.069 0.011-0.136 0.030-0.199l-0.001 0.005 0.888-2.916c-0.578-1.025-0.919-2.25-0.919-3.554 0-4.051 3.284-7.335 7.335-7.335 4.050 0 7.333 3.282 7.335 7.331v0zM20.664 21.332c-0.368 0-0.667 0.298-0.667 0.667s0.298 0.667 0.667 0.667v0h5.336c0.368 0 0.667-0.298 0.667-0.667s-0.298-0.667-0.667-0.667v0h-5.333zM19.997 24.665c0 0.368 0.298 0.667 0.667 0.667v0h2.667c0.368 0 0.667-0.298 0.667-0.667s-0.298-0.667-0.667-0.667v0h-2.667c-0.368 0-0.667 0.298-0.667 0.667v0z"></path>
</svg>
