<!-- Generated by IcoMoon.io -->
<svg version="1.1" xmlns="http://www.w3.org/2000/svg" width="32" height="32" viewBox="0 0 32 32">
<title>person-edit-filled</title>
<path d="M16.654 23.82l5.153-5.153h-13.47c-1.656 0-2.998 1.342-2.998 2.999v1.227c0 0.763 0.238 1.507 0.68 2.128 1.85 2.597 4.76 4.015 8.648 4.272-0.005-0.244 0.021-0.495 0.085-0.748l0.61-2.441c0.216-0.864 0.663-1.653 1.292-2.283zM16.001 2.673c3.682 0 6.667 2.985 6.667 6.667s-2.985 6.667-6.667 6.667c-3.682 0-6.667-2.985-6.667-6.667s2.985-6.667 6.667-6.667zM25.467 16.893l-7.87 7.87c-0.459 0.459-0.784 1.034-0.942 1.663l-0.61 2.441c-0.265 1.061 0.696 2.023 1.758 1.758l2.441-0.61c0.629-0.157 1.204-0.483 1.663-0.942l7.87-7.87c1.19-1.19 1.19-3.12 0-4.31s-3.12-1.19-4.31 0z"></path>
</svg>
