<!-- Generated by IcoMoon.io -->
<svg version="1.1" xmlns="http://www.w3.org/2000/svg" width="32" height="32" viewBox="0 0 32 32">
<title>person-add-filled</title>
<path d="M14.667 23.334c0-1.719 0.5-3.32 1.363-4.668l-10.36 0.001c-1.656 0-2.998 1.342-2.998 2.999v1.227c0 0.763 0.238 1.507 0.68 2.128 2.056 2.886 5.42 4.315 9.982 4.315 1.242 0 2.395-0.106 3.456-0.319-1.322-1.521-2.122-3.508-2.122-5.682z"></path>
<path d="M20.001 9.34c0-3.682-2.985-6.667-6.667-6.667s-6.667 2.985-6.667 6.667 2.985 6.667 6.667 6.667c3.682 0 6.667-2.985 6.667-6.667z"></path>
<path d="M30.667 23.334c0-4.050-3.283-7.333-7.333-7.333s-7.333 3.283-7.333 7.333c0 4.050 3.283 7.333 7.333 7.333s7.333-3.283 7.333-7.333zM23.214 18.678l0.12-0.011 0.12 0.011c0.272 0.049 0.487 0.264 0.536 0.536l0.011 0.12-0.001 3.333h3.34l0.12 0.011c0.272 0.049 0.487 0.264 0.536 0.536l0.011 0.12-0.011 0.12c-0.049 0.272-0.264 0.487-0.536 0.536l-0.12 0.011h-3.34l0.001 3.333-0.011 0.12c-0.049 0.272-0.264 0.487-0.536 0.536l-0.12 0.011-0.12-0.011c-0.272-0.049-0.487-0.264-0.536-0.536l-0.011-0.12-0.001-3.333h-3.327l-0.12-0.011c-0.272-0.049-0.487-0.264-0.536-0.536l-0.011-0.12 0.011-0.12c0.049-0.272 0.264-0.487 0.536-0.536l0.12-0.011h3.327l0.001-3.333 0.011-0.12c0.049-0.272 0.264-0.487 0.536-0.536z"></path>
</svg>
