<!-- Generated by IcoMoon.io -->
<svg version="1.1" xmlns="http://www.w3.org/2000/svg" width="32" height="32" viewBox="0 0 32 32">
<title>person-board-filled</title>
<path d="M8.333 4c-2.393 0-4.333 1.94-4.333 4.333v11.333c0 2.393 1.94 4.333 4.333 4.333h11.333c2.393 0 4.333-1.94 4.333-4.333v-11.333c0-2.393-1.94-4.333-4.333-4.333h-11.333zM17 10c0 1.657-1.343 3-3 3s-3-1.343-3-3 1.343-3 3-3c1.657 0 3 1.343 3 3zM18 14.333c1.105 0 2 0.895 2 2v0.667c0 0.661-0.115 1.147-0.339 1.547-0.224 0.403-0.574 0.749-1.091 1.105-0.977 0.671-2.477 1.014-4.57 1.014-1.76 0-3.26-0.343-4.32-1.014-0.558-0.353-0.973-0.698-1.251-1.106-0.273-0.401-0.429-0.885-0.429-1.546v-0.667c0-1.105 0.895-2 2-2h8z"></path>
<path d="M8.015 25.333c0.77 1.203 2.118 2 3.652 2h8.667c3.866 0 7-3.134 7-7v-8.667c0-1.534-0.797-2.882-2-3.652v12.319c0 2.761-2.239 5-5 5h-12.319z"></path>
</svg>
