<!-- Generated by IcoMoon.io -->
<svg version="1.1" xmlns="http://www.w3.org/2000/svg" width="32" height="32" viewBox="0 0 32 32">
<title>person-call-filled</title>
<path d="M7.004 18.667l14.652 0.001c0.139 0.229 0.307 0.441 0.507 0.631l0.959 0.909c-0.136 0.508-0.328 0.953-0.573 1.361l0.013-0.024c-0.264 0.453-0.567 0.844-0.916 1.19l-0 0-1.059-0.353c-0.273-0.093-0.587-0.146-0.913-0.146-1.010 0-1.9 0.513-2.424 1.292l-0.007 0.010-0.961 1.413c-0.338 0.494-0.54 1.105-0.54 1.763 0 0.858 0.344 1.636 0.901 2.204l-0-0 0.303 0.304c-0.723 0.075-1.48 0.112-2.277 0.112-3.853 0-6.837-0.875-8.921-2.667-1.069-0.922-1.741-2.279-1.741-3.792v-1.209c0-1.657 1.343-3 3-3v0zM22.68 16.327l0.672-1.583c0.315-0.741 1.068-1.145 1.808-0.991l0.157 0.040 0.84 0.269c0.833 0.267 1.472 0.98 1.679 1.876 0.489 2.131-0.099 4.724-1.763 7.781-1.663 3.053-3.485 4.888-5.467 5.507-0.208 0.067-0.447 0.105-0.694 0.105-0.583 0-1.117-0.213-1.527-0.565l0.003 0.003-0.164-0.151-0.639-0.64c-0.317-0.326-0.513-0.772-0.513-1.263 0-0.315 0.080-0.611 0.221-0.869l-0.005 0.009 0.095-0.155 0.961-1.413c0.379-0.556 1.027-0.819 1.651-0.687l0.169 0.047 1.776 0.592c0.717-0.551 1.31-1.224 1.756-1.993l0.017-0.032c0.369-0.61 0.646-1.322 0.788-2.080l0.006-0.040 0.051-0.36-1.479-1.403c-0.337-0.328-0.546-0.786-0.546-1.293 0-0.192 0.030-0.377 0.085-0.55l-0.004 0.013 0.063-0.173 0.672-1.584-0.672 1.583zM14.667 2.673c3.682 0 6.667 2.985 6.667 6.667s-2.985 6.667-6.667 6.667v0c-3.682 0-6.667-2.985-6.667-6.667s2.985-6.667 6.667-6.667v0z"></path>
</svg>
