<!-- Generated by IcoMoon.io -->
<svg version="1.1" xmlns="http://www.w3.org/2000/svg" width="32" height="32" viewBox="0 0 32 32">
<title>person-walking-filled</title>
<path d="M17.333 8.667c1.657 0 3-1.343 3-3s-1.343-3-3-3v0c-1.657 0-3 1.343-3 3s1.343 3 3 3v0zM13.815 8.559c0.247 0.060 0.467 0.195 0.657 0.363 0.757 0.671 1.76 1.081 2.857 1.081 0.36 0 0.71-0.044 1.044-0.127l-0.030 0.006c0.248-0.059 0.505-0.075 0.752-0.013l0.176 0.044c0.521 0.132 0.951 0.455 1.22 0.889l0.005 0.009 1.776 2.903c0.193 0.312 0.503 0.537 0.867 0.612l0.009 0.002 1.908 0.38c0.921 0.191 1.603 0.996 1.603 1.96 0 1.105-0.895 2-2 2-0.137 0-0.27-0.014-0.399-0.040l0.013 0.002-3.339-0.667c-0.56-0.114-1.025-0.45-1.31-0.909l-0.005-0.009-0.244-0.4c-0.129-0.208-0.356-0.345-0.615-0.345-0.306 0-0.567 0.191-0.672 0.46l-0.002 0.005c-0.083 0.211-0.131 0.455-0.131 0.711 0 0.427 0.134 0.823 0.362 1.147l-0.004-0.006 1.325 1.911c0.201 0.287 0.33 0.638 0.353 1.017l0 0.006 0.333 5.667c0.002 0.035 0.003 0.076 0.003 0.117 0 1.105-0.895 2-2 2-1.063 0-1.933-0.83-1.996-1.877l-0-0.006-0.267-4.521c-0.018-0.31-0.14-0.588-0.331-0.804l0.001 0.001-1.135-1.291c-0.216-0.245-0.531-0.399-0.881-0.399-0.49 0-0.91 0.3-1.085 0.727l-0.003 0.008-2.781 6.909c-0.304 0.741-1.020 1.252-1.855 1.252-1.105 0-2-0.896-2-2 0-0.27 0.053-0.527 0.15-0.761l-0.005 0.013 4.101-10.179c0.019-0.072 0.041-0.144 0.069-0.216l0.753-1.96c0.027-0.067 0.043-0.145 0.043-0.227 0-0.345-0.28-0.625-0.625-0.625-0.253 0-0.47 0.15-0.569 0.365l-0.002 0.004-1.691 3.741c-0.327 0.686-1.015 1.152-1.811 1.152-1.105 0-2-0.895-2-2 0-0.287 0.061-0.56 0.17-0.807l-0.005 0.013 2.165-4.813c0.223-0.489 0.622-0.864 1.114-1.051l0.014-0.005 4.1-1.52c0.206-0.079 0.445-0.124 0.695-0.124 0.171 0 0.338 0.022 0.497 0.062l-0.014-0.003 0.669 0.167z"></path>
</svg>
