<!-- Generated by IcoMoon.io -->
<svg version="1.1" xmlns="http://www.w3.org/2000/svg" width="32" height="32" viewBox="0 0 32 32">
<title>person-heart-filled</title>
<path d="M15.197 25.432c-1.078-1.078-1.744-2.567-1.744-4.212 0-0.928 0.212-1.806 0.59-2.589l-0.015 0.036h-8.357c-0 0-0.001 0-0.001 0-1.656 0-2.999 1.343-2.999 2.999 0 0 0 0.001 0 0.001v-0 1.227c0 0.761 0.24 1.505 0.681 2.127 2.056 2.884 5.421 4.313 9.981 4.313 1.884 0 3.564-0.244 5.032-0.733l-3.168-3.168zM13.333 2.672c3.682 0 6.667 2.985 6.667 6.667s-2.985 6.667-6.667 6.667v0c-3.682 0-6.667-2.985-6.667-6.667s2.985-6.667 6.667-6.667v0zM22.725 30.66c-0 0-0 0-0.001 0-0.276 0-0.526-0.112-0.706-0.293l-5.879-5.877c-0.807-0.831-1.304-1.966-1.304-3.218 0-2.553 2.070-4.623 4.623-4.623 1.252 0 2.387 0.497 3.22 1.306l-0.001-0.001 0.048 0.048 0.048-0.048c0.831-0.807 1.967-1.304 3.218-1.304 2.553 0 4.623 2.070 4.623 4.623 0 1.251-0.497 2.387-1.305 3.219l0.001-0.001-5.879 5.879c-0.18 0.181-0.43 0.293-0.706 0.293-0 0-0.001 0-0.001 0h0z"></path>
</svg>
