<!-- Generated by IcoMoon.io -->
<svg version="1.1" xmlns="http://www.w3.org/2000/svg" width="32" height="32" viewBox="0 0 32 32">
<title>person-filled</title>
<path d="M16 2.667c-3.682 0-6.667 2.985-6.667 6.667s2.985 6.667 6.667 6.667 6.667-2.985 6.667-6.667-2.985-6.667-6.667-6.667zM8.167 18.667c-1.565 0-2.833 1.268-2.833 2.833v0.501c0 2.503 1.295 4.378 3.28 5.587 1.953 1.189 4.577 1.747 7.387 1.747s5.433-0.558 7.387-1.747c1.985-1.209 3.28-3.083 3.28-5.587v-0.501c0-1.564-1.268-2.833-2.833-2.833-0 0-0 0-0.001 0h-15.667z"></path>
</svg>
