<!-- Generated by IcoMoon.io -->
<svg version="1.1" xmlns="http://www.w3.org/2000/svg" width="32" height="32" viewBox="0 0 32 32">
<title>person-5-filled</title>
<path d="M16 16c3.866 0 7-3.134 7-7s-3.134-7-7-7v0c-3.866 0-7 3.134-7 7s3.134 7 7 7v0zM7.5 18c-1.933 0-3.5 1.567-3.5 3.5v0 0.5c0 2.394 1.523 4.418 3.685 5.794 2.174 1.383 5.117 2.206 8.315 2.206 1.142 0 2.251-0.105 3.305-0.303-0.192-0.346-0.305-0.758-0.305-1.197 0-1.204 0.851-2.209 1.984-2.447l0.016-0.003v-0.415c-1.023-0.328-1.75-1.271-1.75-2.384 0-0.084 0.004-0.166 0.012-0.248l-0.001 0.010 0.479-5.013h-12.24zM21.255 17.905c0.050-0.51 0.476-0.905 0.995-0.905h6.25c0.552 0 1 0.448 1 1s-0.448 1-1 1v0h-5.34l-0.295 3.090 1.91-0.26c0.186-0.027 0.402-0.042 0.621-0.042 2.544 0 4.606 2.062 4.606 4.606s-2.062 4.606-4.606 4.606c-0 0-0 0-0.001 0h-0.617c-0 0-0 0-0.001 0-1.363 0-2.605-0.523-3.535-1.378l0.004 0.003-0.422-0.388c-0.2-0.183-0.324-0.446-0.324-0.737 0-0.552 0.448-1 1-1 0.261 0 0.499 0.1 0.677 0.264l-0.001-0.001 0.423 0.388c0.572 0.526 1.338 0.849 2.179 0.849h0.616c0.001 0 0.002 0 0.003 0 1.439 0 2.606-1.167 2.606-2.606s-1.167-2.606-2.606-2.606c-0.124 0-0.247 0.009-0.367 0.026l0.014-0.002-3.16 0.429c-0.040 0.006-0.087 0.009-0.135 0.009-0.552 0-1-0.448-1-1 0-0.034 0.002-0.067 0.005-0.099l-0 0.004 0.5-5.25z"></path>
</svg>
