<!-- Generated by IcoMoon.io -->
<svg version="1.1" xmlns="http://www.w3.org/2000/svg" width="32" height="32" viewBox="0 0 32 32">
<title>person-note-filled</title>
<path d="M14.667 20c0-0.467 0.080-0.916 0.228-1.333h-9.224c-0 0-0.001 0-0.001 0-1.656 0-2.999 1.343-2.999 2.999 0 0 0 0.001 0 0.001v-0 1.225c0 0.763 0.24 1.507 0.681 2.128 2.056 2.885 5.421 4.313 9.981 4.313 0.531 0 1.044-0.019 1.543-0.057-0.133-0.381-0.209-0.819-0.209-1.276v-8zM13.333 2.673c3.682 0 6.667 2.985 6.667 6.667s-2.985 6.667-6.667 6.667v0c-3.682 0-6.667-2.985-6.667-6.667s2.985-6.667 6.667-6.667v0zM16 20c0-1.473 1.194-2.667 2.667-2.667v0h9.333c1.473 0 2.667 1.194 2.667 2.667v0 8c0 1.473-1.194 2.667-2.667 2.667v0h-9.333c-1.473 0-2.667-1.194-2.667-2.667v0-8zM19.333 21.333c-0.368 0-0.667 0.298-0.667 0.667s0.298 0.667 0.667 0.667v0h8c0.368 0 0.667-0.298 0.667-0.667s-0.298-0.667-0.667-0.667v0h-8zM19.333 25.333c-0.368 0-0.667 0.298-0.667 0.667s0.298 0.667 0.667 0.667v0h8c0.368 0 0.667-0.298 0.667-0.667s-0.298-0.667-0.667-0.667v0h-8z"></path>
</svg>
