<!-- Generated by IcoMoon.io -->
<svg version="1.1" xmlns="http://www.w3.org/2000/svg" width="32" height="32" viewBox="0 0 32 32">
<title>person-swap-filled</title>
<path d="M21.001 18.663c1.656 0 2.999 1.343 2.999 2.999v1.225c0 0.381-0.059 0.757-0.174 1.115h-2.712c0.404-0.864 0.25-1.925-0.463-2.639-0.911-0.911-2.388-0.912-3.3-0.001l-3.333 3.331c-0.438 0.438-0.684 1.032-0.684 1.651s0.246 1.213 0.685 1.651l1.246 1.244c-0.619 0.062-1.264 0.093-1.935 0.093-4.561 0-7.925-1.43-9.981-4.315-0.443-0.621-0.68-1.365-0.68-2.128v-1.227c0-1.656 1.342-2.999 2.998-2.999h15.336z"></path>
<path d="M13.329 2.669c3.682 0 6.667 2.985 6.667 6.667s-2.985 6.667-6.667 6.667c-3.682 0-6.667-2.985-6.667-6.667s2.985-6.667 6.667-6.667z"></path>
<path d="M19.707 23.711c0.39-0.391 0.39-1.024-0-1.414s-1.024-0.39-1.414 0l-3.333 3.335c-0.187 0.188-0.293 0.442-0.293 0.707s0.105 0.519 0.293 0.707l3.333 3.332c0.391 0.39 1.024 0.39 1.414-0s0.39-1.024-0-1.414l-1.627-1.626h9.173l-1.627 1.626c-0.391 0.39-0.391 1.024-0 1.414s1.023 0.391 1.414 0l3.333-3.331c0.188-0.187 0.293-0.442 0.293-0.707s-0.105-0.52-0.293-0.707l-3.333-3.335c-0.39-0.391-1.024-0.391-1.414-0.001s-0.391 1.024-0 1.414l1.625 1.626h-9.17l1.626-1.626z"></path>
</svg>
