<!-- Generated by IcoMoon.io -->
<svg version="1.1" xmlns="http://www.w3.org/2000/svg" width="32" height="32" viewBox="0 0 32 32">
<title>person-board-filled</title>
<path d="M7.5 3c-2.485 0-4.5 2.015-4.5 4.5v0 13c0 2.485 2.015 4.5 4.5 4.5v0h13c2.485 0 4.5-2.015 4.5-4.5v0-13c0-2.485-2.015-4.5-4.5-4.5v0h-13zM9.625 15h8.75c1.174 0 2.125 0.951 2.125 2.125 0 1.561-0.888 2.7-2.118 3.396-1.196 0.678-2.759 0.979-4.382 0.979s-3.186-0.3-4.382-0.979c-1.23-0.697-2.118-1.835-2.118-3.396 0-1.174 0.951-2.125 2.125-2.125zM10.5 9.5c0-1.933 1.567-3.5 3.5-3.5s3.5 1.567 3.5 3.5v0c0 1.933-1.567 3.5-3.5 3.5s-3.5-1.567-3.5-3.5v0zM11 28.5c-0.001 0-0.002 0-0.003 0-1.555 0-2.925-0.789-3.733-1.989l-0.010-0.016c0.081 0.003 0.163 0.005 0.245 0.005h14c2.761 0 5-2.239 5-5v0-14c0-0.082-0.001-0.164-0.005-0.246 1.216 0.818 2.006 2.188 2.006 3.744 0 0.001 0 0.002 0 0.003v-0 10.5c0 3.866-3.134 7-7 7v0h-10.5z"></path>
</svg>
