<!-- Generated by IcoMoon.io -->
<svg version="1.1" xmlns="http://www.w3.org/2000/svg" width="32" height="32" viewBox="0 0 32 32">
<title>person-running-filled</title>
<path d="M18.4 7.2c0.001-1.767 1.433-3.199 3.2-3.199s3.2 1.433 3.2 3.2c0 1.417-0.922 2.62-2.198 3.040l-0.023 0.006 2.552 2.552h2.869c1.325 0 2.4 1.075 2.4 2.4s-1.075 2.4-2.4 2.4v0h-5.157c-1.008 0-1.974-0.4-2.688-1.114l-0.155-0.155-1.669 1.669 2.235 2.234c0.144 0.145 0.234 0.344 0.234 0.565 0 0 0 0.001 0 0.002v-0 5.6c0 1.325-1.075 2.4-2.4 2.4s-2.4-1.075-2.4-2.4v0-2.869l-2.475-2.475-1.603 1.203c-0.777 0.587-1.759 0.941-2.823 0.941-0 0-0 0-0.001 0h-5.098c-1.325 0-2.4-1.075-2.4-2.4s1.075-2.4 2.4-2.4v0h6.8c1.988 0 3.6-1.612 3.6-3.6v0-2h1.6c0.442 0 0.8-0.358 0.8-0.8s-0.358-0.8-0.8-0.8v0h-2.4c-0.442 0-0.8 0.358-0.8 0.8v0 2.8c0 1.105-0.895 2-2 2s-2-0.895-2-2v0-3.6c0-2.209 1.791-4 4-4v0h5.6z"></path>
</svg>
