<!-- Generated by IcoMoon.io -->
<svg version="1.1" xmlns="http://www.w3.org/2000/svg" width="32" height="32" viewBox="0 0 32 32">
<title>person-chat-filled</title>
<path d="M14.663 23.332c0-1.719 0.5-3.32 1.363-4.668h-7.693c-1.656 0-2.999 1.343-2.999 2.999v1.227c0 0.763 0.238 1.507 0.681 2.128 1.87 2.625 4.822 4.045 8.773 4.281l0.695-2.284c-0.526-1.119-0.82-2.368-0.82-3.683zM15.997 2.667c3.683 0 6.668 2.985 6.668 6.668s-2.985 6.668-6.668 6.668c-3.683 0-6.668-2.985-6.668-6.668s2.985-6.668 6.668-6.668zM30.667 23.332c0 4.051-3.284 7.335-7.335 7.335-1.29 0-2.503-0.333-3.556-0.918l-2.916 0.887c-0.51 0.155-0.987-0.322-0.832-0.832l0.888-2.915c-0.585-1.053-0.919-2.266-0.919-3.557 0-4.051 3.284-7.335 7.335-7.335s7.335 3.284 7.335 7.335zM20.665 21.331c-0.368 0-0.667 0.299-0.667 0.667s0.299 0.667 0.667 0.667h5.334c0.368 0 0.667-0.299 0.667-0.667s-0.299-0.667-0.667-0.667h-5.334zM19.998 24.665c0 0.368 0.299 0.667 0.667 0.667h2.667c0.368 0 0.667-0.299 0.667-0.667s-0.299-0.667-0.667-0.667h-2.667c-0.368 0-0.667 0.299-0.667 0.667z"></path>
</svg>
