<!-- Generated by IcoMoon.io -->
<svg version="1.1" xmlns="http://www.w3.org/2000/svg" width="32" height="32" viewBox="0 0 32 32">
<title>person-arrow-right-filled</title>
<path d="M14.667 23.333c0-0.004 0-0.009 0-0.013 0-1.728 0.508-3.337 1.383-4.687l-0.020 0.034h-10.36c-1.656 0-2.999 1.343-2.999 2.999 0 0 0 0.001 0 0.001v-0 1.225c0 0.763 0.239 1.507 0.68 2.128 2.059 2.885 5.423 4.313 9.983 4.313 1.241 0 2.395-0.107 3.456-0.317-1.319-1.508-2.123-3.495-2.123-5.67 0-0.005 0-0.009 0-0.014v0.001zM13.333 2.673c3.682 0 6.667 2.985 6.667 6.667s-2.985 6.667-6.667 6.667v0c-3.682 0-6.667-2.985-6.667-6.667s2.985-6.667 6.667-6.667v0zM30.667 23.333c0 4.050-3.283 7.333-7.333 7.333s-7.333-3.283-7.333-7.333v0c0-4.050 3.283-7.333 7.333-7.333s7.333 3.283 7.333 7.333v0zM24.471 19.529c-0.12-0.116-0.283-0.187-0.463-0.187-0.368 0-0.667 0.298-0.667 0.667 0 0.18 0.071 0.343 0.187 0.463l2.196 2.194h-5.724c-0.368 0-0.667 0.298-0.667 0.667s0.298 0.667 0.667 0.667v0h5.724l-2.196 2.196c-0.116 0.12-0.187 0.283-0.187 0.463 0 0.368 0.298 0.667 0.667 0.667 0.18 0 0.343-0.071 0.463-0.187l3.333-3.333c0.119-0.118 0.193-0.28 0.196-0.459v-0.013c0-0 0-0.001 0-0.001 0-0.186-0.077-0.354-0.2-0.475l-3.329-3.328z"></path>
</svg>
