<!-- Generated by IcoMoon.io -->
<svg version="1.1" xmlns="http://www.w3.org/2000/svg" width="32" height="32" viewBox="0 0 32 32">
<title>person-clock-filled</title>
<path d="M14.667 23.333c0-0.004 0-0.009 0-0.013 0-1.728 0.508-3.337 1.383-4.687l-0.020 0.034h-10.36c-1.656 0.001-2.997 1.343-2.997 2.999 0 0 0 0.001 0 0.001v-0 0.769c0 1.189 0.424 2.341 1.197 3.247 2.088 2.445 5.269 3.653 9.464 3.653 1.241 0 2.395-0.107 3.457-0.32-1.319-1.508-2.124-3.496-2.124-5.671 0-0.004 0-0.008 0-0.012v0.001zM13.333 2.673c3.682 0 6.667 2.985 6.667 6.667s-2.985 6.667-6.667 6.667v0c-3.682 0-6.667-2.985-6.667-6.667s2.985-6.667 6.667-6.667v0zM23.333 16c4.050 0 7.333 3.283 7.333 7.333s-3.283 7.333-7.333 7.333v0c-4.050 0-7.333-3.283-7.333-7.333s3.283-7.333 7.333-7.333v0zM26 23.333h-2.667v-3.333c0-0.368-0.298-0.667-0.667-0.667s-0.667 0.298-0.667 0.667v0 4c0 0.368 0.298 0.667 0.667 0.667v0h3.333c0.368 0 0.667-0.298 0.667-0.667s-0.298-0.667-0.667-0.667v0z"></path>
</svg>
