<!-- Generated by IcoMoon.io -->
<svg version="1.1" xmlns="http://www.w3.org/2000/svg" width="32" height="32" viewBox="0 0 32 32">
<title>person-accounts-filled</title>
<path d="M17.333 18.733v-0.067h-11.663c-0 0-0.001 0-0.001 0-1.656 0-2.999 1.343-2.999 2.999v0 1.227c0 0.763 0.24 1.507 0.681 2.128 2.056 2.885 5.421 4.313 9.981 4.313 0.477 0 0.941-0.016 1.391-0.047-0.036-0.186-0.057-0.399-0.057-0.618 0-0.001 0-0.002 0-0.002v0-6.667c0-0 0-0 0-0.001 0-1.605 1.134-2.945 2.645-3.262l0.022-0.004zM13.333 2.673c3.682 0 6.667 2.985 6.667 6.667s-2.985 6.667-6.667 6.667v0c-3.682 0-6.667-2.985-6.667-6.667s2.985-6.667 6.667-6.667v0zM18.667 20h-0.667c-1.105 0-2 0.895-2 2v0 6.667c0 1.105 0.895 2 2 2v0h10.667c1.105 0 2-0.895 2-2v0-6.667c0-1.105-0.895-2-2-2v0h-0.667v-1.667c0-1.289-1.045-2.333-2.333-2.333v0h-4.667c-1.289 0-2.333 1.045-2.333 2.333v0 1.667zM20.667 18.333c0-0.184 0.149-0.333 0.333-0.333v0h4.667c0.184 0 0.333 0.149 0.333 0.333v0 1.667h-5.333v-1.667z"></path>
</svg>
