<!-- Generated by IcoMoon.io -->
<svg version="1.1" xmlns="http://www.w3.org/2000/svg" width="32" height="32" viewBox="0 0 32 32">
<title>person-filled</title>
<path d="M23.672 18.666c1.656 0 2.999 1.342 2.999 2.999v1.225c0 0.765-0.239 1.51-0.683 2.132-2.061 2.884-5.427 4.313-9.987 4.313s-7.925-1.429-9.981-4.315c-0.443-0.621-0.681-1.365-0.681-2.128v-1.227c0-1.656 1.342-2.999 2.998-2.999h15.336zM16 2.673c3.682 0 6.667 2.985 6.667 6.667s-2.985 6.667-6.667 6.667c-3.682 0-6.667-2.985-6.667-6.667s2.985-6.667 6.667-6.667z"></path>
</svg>
