<!-- Generated by IcoMoon.io -->
<svg version="1.1" xmlns="http://www.w3.org/2000/svg" width="32" height="32" viewBox="0 0 32 32">
<title>person-swap-filled</title>
<path d="M21 18.663c0 0 0.001 0 0.001 0 1.656 0 2.999 1.343 2.999 2.999 0 0 0 0.001 0 0.001v-0 1.224c0 0.38-0.060 0.756-0.173 1.115h-2.713c0.139-0.29 0.22-0.63 0.22-0.99 0-1.289-1.045-2.333-2.333-2.333-0.644 0-1.227 0.261-1.65 0.683l-3.333 3.331c-0.423 0.422-0.685 1.006-0.685 1.651s0.262 1.229 0.685 1.651l1.247 1.244c-0.62 0.061-1.264 0.093-1.936 0.093-4.56 0-7.924-1.431-9.981-4.316-0.425-0.591-0.68-1.329-0.68-2.127 0-0 0-0.001 0-0.001v0-1.227c0-1.656 1.343-2.999 2.999-2.999h15.335zM13.329 2.669c3.682 0 6.667 2.985 6.667 6.667s-2.985 6.667-6.667 6.667v0c-3.682 0-6.667-2.985-6.667-6.667s2.985-6.667 6.667-6.667v0zM19.708 23.712c0.166-0.178 0.268-0.418 0.268-0.682 0-0.552-0.448-1-1-1-0.264 0-0.504 0.102-0.682 0.269l0.001-0.001-3.333 3.333c-0.181 0.181-0.292 0.431-0.292 0.707s0.112 0.526 0.292 0.707v0l3.333 3.333c0.18 0.174 0.424 0.28 0.694 0.28 0.552 0 1-0.448 1-1 0-0.27-0.107-0.515-0.281-0.695l0 0-1.627-1.627h9.173l-1.627 1.627c-0.166 0.178-0.268 0.418-0.268 0.682 0 0.552 0.448 1 1 1 0.264 0 0.504-0.102 0.682-0.269l-0.001 0.001 3.333-3.331c0.181-0.181 0.292-0.431 0.292-0.707s-0.112-0.526-0.292-0.707l-3.333-3.336c-0.183-0.196-0.443-0.318-0.732-0.318-0.552 0-1 0.448-1 1 0 0.289 0.122 0.549 0.318 0.731l0.001 0.001 1.624 1.627h-9.169l1.627-1.627z"></path>
</svg>
