<!-- Generated by IcoMoon.io -->
<svg version="1.1" xmlns="http://www.w3.org/2000/svg" width="32" height="32" viewBox="0 0 32 32">
<title>person-sync-filled</title>
<path d="M14.667 2.667c-3.682 0-6.667 2.985-6.667 6.667s2.985 6.667 6.667 6.667 6.667-2.985 6.667-6.667-2.985-6.667-6.667-6.667zM6.833 18.667c-1.565 0-2.833 1.268-2.833 2.833v0.501c0 2.503 1.295 4.378 3.28 5.587 1.953 1.189 4.577 1.747 7.387 1.747 0.781 0 1.548-0.043 2.29-0.131-1.419-1.534-2.29-3.594-2.29-5.857 0-0.004 0-0.009 0-0.013v0.001c0-1.718 0.5-3.32 1.363-4.667h-9.196zM16 23.333c0 4.050 3.283 7.333 7.333 7.333s7.333-3.283 7.333-7.333-3.283-7.333-7.333-7.333-7.333 3.283-7.333 7.333zM21.765 18.605c0.467-0.172 1.006-0.271 1.569-0.271 1.305 0 2.486 0.536 3.333 1.4l0.001 0.001v-0.401c0-0.368 0.298-0.667 0.667-0.667s0.667 0.298 0.667 0.667v0 2c0 0.368-0.298 0.667-0.667 0.667v0h-2c-0.368 0-0.667-0.298-0.667-0.667s0.298-0.667 0.667-0.667v0h0.38c-0.605-0.617-1.448-1-2.38-1-0.921 0-1.754 0.373-2.357 0.976v0c-0.121 0.121-0.287 0.195-0.471 0.195-0.368 0-0.667-0.299-0.667-0.667 0-0.184 0.075-0.351 0.195-0.472v0c0.476-0.476 1.054-0.85 1.699-1.085l0.032-0.010zM24.902 28.062c-0.467 0.172-1.006 0.271-1.569 0.271-1.305 0-2.486-0.536-3.333-1.4l-0.001-0.001v0.401c0 0.368-0.298 0.667-0.667 0.667s-0.667-0.298-0.667-0.667v0-2c0-0.368 0.298-0.667 0.667-0.667v0h2c0.368 0 0.667 0.298 0.667 0.667s-0.298 0.667-0.667 0.667v0h-0.38c0.605 0.618 1.448 1.001 2.38 1.001 0.402 0 0.787-0.071 1.143-0.201l-0.023 0.007c0.484-0.176 0.897-0.443 1.237-0.783l0-0c0.121-0.121 0.287-0.195 0.471-0.195 0.368 0 0.667 0.299 0.667 0.667 0 0.184-0.075 0.351-0.195 0.472v0c-0.476 0.476-1.054 0.85-1.699 1.085l-0.032 0.010z"></path>
</svg>
