<!-- Generated by IcoMoon.io -->
<svg version="1.1" xmlns="http://www.w3.org/2000/svg" width="32" height="32" viewBox="0 0 32 32">
<title>person-support-filled</title>
<path d="M26.666 21.661c0-1.656-1.342-2.999-2.999-2.999h-15.336c-1.656 0-2.998 1.343-2.998 2.999v1.227c0 0.763 0.238 1.507 0.681 2.128 2.056 2.886 5.42 4.315 9.982 4.315 4.56 0 7.926-1.429 9.987-4.313 0.445-0.622 0.683-1.367 0.683-2.132v-1.225z"></path>
<path d="M22.662 9.336c0-3.682-2.985-6.667-6.667-6.667-2.201 0-4.152 1.066-5.366 2.71-0.094-0.029-0.195-0.045-0.299-0.045h-3.33c-0.552 0-1 0.448-1 1v7.332c0 2.025 1.642 3.667 3.667 3.667h0.333v-0.006c0.005 0 0.009 0 0.014 0 0.735 0 1.33-0.595 1.33-1.33s-0.595-1.33-1.33-1.33c-0.426 0-0.805 0.2-1.048 0.511-0.57-0.265-0.965-0.842-0.965-1.512v-0.334h0.997c0.508 0 0.977-0.162 1.36-0.437 1.181 1.868 3.265 3.108 5.638 3.108 3.682 0 6.667-2.985 6.667-6.667zM9.33 9.195c-0.001 0.047-0.001 0.094-0.001 0.141s0.001 0.094 0.001 0.141v1.521c0 0.184-0.149 0.333-0.333 0.333h-0.997v-3.998h1.33v1.86z"></path>
</svg>
