<!-- Generated by IcoMoon.io -->
<svg version="1.1" xmlns="http://www.w3.org/2000/svg" width="32" height="32" viewBox="0 0 32 32">
<title>person-available-filled</title>
<path d="M23.333 16c4.050 0 7.333 3.283 7.333 7.333s-3.283 7.333-7.333 7.333c-4.050 0-7.333-3.283-7.333-7.333s3.283-7.333 7.333-7.333zM16.030 18.665c-0.863 1.347-1.363 2.949-1.363 4.668 0 2.174 0.8 4.161 2.122 5.682-1.061 0.213-2.214 0.319-3.456 0.319-4.561 0-7.925-1.429-9.981-4.315-0.443-0.621-0.68-1.365-0.68-2.128v-1.227c0-1.656 1.342-2.999 2.998-2.999l10.36-0.001zM19.805 22.862c-0.26-0.26-0.683-0.26-0.943 0s-0.26 0.683 0 0.943l2.667 2.667c0.26 0.26 0.682 0.26 0.943 0l5.333-5.333c0.26-0.26 0.26-0.682 0-0.943s-0.683-0.26-0.943 0l-4.862 4.862-2.195-2.195zM13.333 2.673c3.682 0 6.667 2.985 6.667 6.667s-2.985 6.667-6.667 6.667c-3.682 0-6.667-2.985-6.667-6.667s2.985-6.667 6.667-6.667z"></path>
</svg>
