<!-- Generated by IcoMoon.io -->
<svg version="1.1" xmlns="http://www.w3.org/2000/svg" width="32" height="32" viewBox="0 0 32 32">
<title>person-pill-filled</title>
<path d="M15.577 29.33c-1.197-1.985-0.939-4.601 0.773-6.313l4.351-4.351h-12.364c-1.656 0-2.998 1.342-2.998 2.999v1.227c0 0.763 0.238 1.507 0.681 2.128 1.992 2.796 5.212 4.225 9.558 4.311zM22.667 9.339c0-3.682-2.985-6.667-6.667-6.667s-6.667 2.985-6.667 6.667c0 3.682 2.985 6.667 6.667 6.667s6.667-2.985 6.667-6.667zM23.96 17.293c1.495-1.495 3.919-1.495 5.414 0s1.495 3.919 0 5.414l-6.667 6.667c-1.495 1.495-3.919 1.495-5.414 0s-1.495-3.919 0-5.414l6.667-6.667zM27.96 18.707c-0.714-0.714-1.872-0.714-2.586 0l-2.626 2.626 2.586 2.586 2.626-2.626c0.714-0.714 0.714-1.872 0-2.586zM22.707 26.707c0.391-0.391 0.391-1.024 0-1.414s-1.024-0.391-1.414 0l-1.333 1.333c-0.391 0.391-0.391 1.024 0 1.414s1.024 0.391 1.414 0l1.333-1.333z"></path>
</svg>
