<!-- Generated by IcoMoon.io -->
<svg version="1.1" xmlns="http://www.w3.org/2000/svg" width="32" height="32" viewBox="0 0 32 32">
<title>person-arrow-right-filled</title>
<path d="M14.667 23.334c0-1.718 0.5-3.32 1.362-4.667h-10.359c-1.656 0-2.998 1.342-2.998 2.999v1.227c0 0.763 0.238 1.507 0.68 2.128 2.056 2.886 5.42 4.315 9.981 4.315 1.242 0 2.394-0.106 3.457-0.318-1.323-1.521-2.123-3.509-2.123-5.683z"></path>
<path d="M13.333 2.673c3.682 0 6.667 2.985 6.667 6.667s-2.985 6.667-6.667 6.667c-3.682 0-6.667-2.985-6.667-6.667s2.985-6.667 6.667-6.667z"></path>
<path d="M30.667 23.334c0 4.050-3.283 7.333-7.333 7.333s-7.333-3.283-7.333-7.333c0-4.050 3.283-7.333 7.333-7.333s7.333 3.283 7.333 7.333zM24.471 19.529c-0.26-0.26-0.682-0.26-0.943 0s-0.26 0.683 0 0.943l2.195 2.195h-5.724c-0.368 0-0.667 0.299-0.667 0.667s0.298 0.667 0.667 0.667h5.724l-2.195 2.195c-0.26 0.26-0.26 0.683 0 0.943s0.683 0.26 0.943 0l3.333-3.333c0.071-0.071 0.123-0.154 0.155-0.242 0.025-0.068 0.039-0.141 0.040-0.217l0-0.012c0-0.103-0.023-0.2-0.065-0.287-0.020-0.043-0.046-0.084-0.076-0.122-0.019-0.024-0.039-0.046-0.060-0.067l-3.328-3.328z"></path>
</svg>
