<!-- Generated by IcoMoon.io -->
<svg version="1.1" xmlns="http://www.w3.org/2000/svg" width="32" height="32" viewBox="0 0 32 32">
<title>person-add-filled</title>
<path d="M17.273 29.393c-1.494-1.537-2.416-3.637-2.416-5.953 0-0.004 0-0.008 0-0.012v0.001c0-1.929 0.638-3.711 1.714-5.143h-10.857c-1.894 0-3.429 1.535-3.429 3.429v0 0.817c0 4.249 4.811 7.183 11.429 7.183 0.018 0 0.039 0 0.060 0 1.237 0 2.447-0.117 3.619-0.34l-0.12 0.019zM20.571 9.143c0-3.787-3.070-6.857-6.857-6.857s-6.857 3.070-6.857 6.857v0c0 3.787 3.070 6.857 6.857 6.857s6.857-3.070 6.857-6.857v0zM23.429 30.857c4.103 0 7.429-3.326 7.429-7.429s-3.326-7.429-7.429-7.429v0c-4.103 0-7.429 3.326-7.429 7.429s3.326 7.429 7.429 7.429v0zM23.429 18.286c0.316 0 0.571 0.256 0.571 0.571v0 4h4c0.316 0 0.571 0.256 0.571 0.571s-0.256 0.571-0.571 0.571v0h-4v4c0 0.316-0.256 0.571-0.571 0.571s-0.571-0.256-0.571-0.571v0-4h-4c-0.316 0-0.571-0.256-0.571-0.571s0.256-0.571 0.571-0.571v0h4v-4c0-0.316 0.256-0.571 0.571-0.571v0z"></path>
</svg>
