<!-- Generated by IcoMoon.io -->
<svg version="1.1" xmlns="http://www.w3.org/2000/svg" width="32" height="32" viewBox="0 0 32 32">
<title>person-starburst-filled</title>
<path d="M17.985 4.061c-0.679-1.497-2.805-1.497-3.483 0-0.307 0.668-0.971 1.124-1.741 1.124-0.418 0-0.806-0.135-1.12-0.363l0.006 0.004c-1.336-0.959-3.179 0.105-3.016 1.741 0.12 1.2-0.889 2.209-2.091 2.091-1.636-0.163-2.7 1.68-1.74 3.016 0.704 0.98 0.333 2.359-0.765 2.856-1.497 0.677-1.497 2.805 0 3.481 0.668 0.307 1.124 0.971 1.124 1.741 0 0.418-0.135 0.805-0.363 1.12l0.004-0.006c-0.959 1.336 0.105 3.179 1.741 3.016 1.2-0.12 2.211 0.891 2.091 2.091-0.163 1.636 1.68 2.7 3.016 1.741 0.309-0.224 0.696-0.359 1.115-0.359 0.77 0 1.434 0.456 1.736 1.112l0.005 0.012c0.677 1.497 2.804 1.497 3.481 0 0.307-0.668 0.971-1.124 1.741-1.124 0.418 0 0.805 0.135 1.12 0.363l-0.006-0.004c1.336 0.96 3.179-0.105 3.016-1.741-0.12-1.2 0.891-2.209 2.091-2.091 1.636 0.163 2.7-1.68 1.741-3.016-0.224-0.309-0.359-0.696-0.359-1.115 0-0.77 0.456-1.434 1.112-1.736l0.012-0.005c1.499-0.677 1.499-2.804 0-3.481-0.668-0.307-1.124-0.971-1.124-1.741 0-0.418 0.135-0.806 0.363-1.12l-0.004 0.006c0.96-1.336-0.105-3.179-1.741-3.016-1.2 0.12-2.209-0.889-2.091-2.091 0.163-1.636-1.68-2.7-3.016-1.741-0.309 0.224-0.696 0.359-1.115 0.359-0.77 0-1.434-0.456-1.736-1.112l-0.005-0.012zM13.025 11.444c0-1.778 1.441-3.219 3.219-3.219s3.219 1.441 3.219 3.219v0c0 1.778-1.441 3.219-3.219 3.219s-3.219-1.441-3.219-3.219v0zM12.22 16.271h8.047c1.333 0 2.413 1.081 2.413 2.415 0 1.796-0.737 3.235-1.951 4.208-1.192 0.957-2.791 1.424-4.485 1.424s-3.293-0.467-4.487-1.424c-1.213-0.973-1.951-2.412-1.951-4.208 0-1.333 1.080-2.413 2.413-2.413z"></path>
</svg>
