<!-- Generated by IcoMoon.io -->
<svg version="1.1" xmlns="http://www.w3.org/2000/svg" width="32" height="32" viewBox="0 0 32 32">
<title>person-arrow-left-filled</title>
<path d="M23.333 16c4.050 0 7.333 3.283 7.333 7.333s-3.283 7.333-7.333 7.333v0c-4.050 0-7.333-3.283-7.333-7.333s3.283-7.333 7.333-7.333v0zM16.029 18.667c-0.855 1.316-1.363 2.925-1.363 4.653 0 0.005 0 0.009 0 0.014v-0.001c0 2.192 0.813 4.195 2.156 5.72-1.069 0.189-2.233 0.281-3.489 0.281-3.853 0-6.837-0.875-8.921-2.667-1.069-0.922-1.741-2.279-1.741-3.792v-1.209c0-1.657 1.343-3 3-3v0h10.36zM22.292 19.452l-0.093 0.077-3.353 3.355-0.053 0.067-0.047 0.077-0.043 0.104-0.016 0.057-0.015 0.116 0.005 0.116 0.025 0.113 0.043 0.104 0.032 0.056 0.068 0.088 3.355 3.356c0.121 0.121 0.288 0.196 0.472 0.196 0.368 0 0.667-0.298 0.667-0.667 0-0.142-0.045-0.274-0.121-0.382l0.001 0.002-0.077-0.093-2.195-2.195h6.385c0 0 0 0 0 0 0.326 0 0.597-0.234 0.655-0.543l0.001-0.004 0.011-0.12c0-0 0-0 0-0 0-0.326-0.234-0.597-0.543-0.655l-0.004-0.001-0.12-0.011h-6.387l2.196-2.195c0.121-0.121 0.196-0.287 0.196-0.472 0-0.142-0.044-0.273-0.12-0.381l0.001 0.002-0.077-0.093c-0.121-0.12-0.287-0.195-0.471-0.195-0.142 0-0.274 0.044-0.382 0.12l0.002-0.001zM13.333 2.673c3.682 0 6.667 2.985 6.667 6.667s-2.985 6.667-6.667 6.667v0c-3.682 0-6.667-2.985-6.667-6.667s2.985-6.667 6.667-6.667v0z"></path>
</svg>
