<!-- Generated by IcoMoon.io -->
<svg version="1.1" xmlns="http://www.w3.org/2000/svg" width="32" height="32" viewBox="0 0 32 32">
<title>person-delete-filled</title>
<path d="M23.333 16c4.050 0 7.333 3.283 7.333 7.333s-3.283 7.333-7.333 7.333v0c-4.050 0-7.333-3.283-7.333-7.333s3.283-7.333 7.333-7.333v0zM16.029 18.667c-0.855 1.316-1.363 2.925-1.363 4.653 0 0.005 0 0.009 0 0.014v-0.001c0 2.192 0.813 4.195 2.156 5.72-1.069 0.189-2.233 0.281-3.489 0.281-3.853 0-6.837-0.875-8.921-2.667-1.069-0.922-1.741-2.279-1.741-3.792v-1.209c0-1.657 1.343-3 3-3v0h10.36zM20.123 19.955l-0.091 0.077-0.077 0.093c-0.074 0.106-0.118 0.237-0.118 0.379s0.044 0.273 0.119 0.381l-0.001-0.002 0.077 0.093 2.36 2.359-2.357 2.356-0.077 0.092c-0.074 0.106-0.118 0.237-0.118 0.379s0.044 0.273 0.12 0.381l-0.001-0.002 0.077 0.092 0.093 0.077c0.106 0.074 0.237 0.118 0.379 0.118s0.273-0.044 0.381-0.119l-0.002 0.001 0.093-0.077 2.355-2.356 2.36 2.36 0.092 0.076c0.106 0.074 0.237 0.118 0.379 0.118s0.273-0.044 0.381-0.119l-0.002 0.001 0.093-0.077 0.076-0.093c0.074-0.106 0.118-0.237 0.118-0.379s-0.044-0.273-0.119-0.381l0.001 0.002-0.077-0.092-2.359-2.36 2.363-2.357 0.077-0.093c0.074-0.106 0.118-0.237 0.118-0.379s-0.044-0.273-0.119-0.381l0.001 0.002-0.077-0.093-0.093-0.076c-0.106-0.074-0.237-0.118-0.379-0.118s-0.273 0.044-0.381 0.119l0.002-0.001-0.092 0.076-2.363 2.36-2.36-2.36-0.092-0.076c-0.106-0.074-0.238-0.119-0.38-0.119-0.1 0-0.195 0.022-0.28 0.062l0.004-0.002-0.101 0.057zM13.333 2.673c3.682 0 6.667 2.985 6.667 6.667s-2.985 6.667-6.667 6.667v0c-3.682 0-6.667-2.985-6.667-6.667s2.985-6.667 6.667-6.667v0z"></path>
</svg>
