<!-- Generated by IcoMoon.io -->
<svg version="1.1" xmlns="http://www.w3.org/2000/svg" width="32" height="32" viewBox="0 0 32 32">
<title>person-circle-filled</title>
<path d="M16 2c-7.732 0-14 6.268-14 14s6.268 14 14 14 14-6.268 14-14-6.268-14-14-14zM16 24.5c-3.866 0-7-2.429-7-6.071 0-1.341 1.088-2.429 2.429-2.429v0h9.142c1.341 0 2.429 1.087 2.429 2.429v0c0 3.642-3.134 6.071-7 6.071zM16 14.5c-2.071 0-3.75-1.679-3.75-3.75s1.679-3.75 3.75-3.75v0c2.071 0 3.75 1.679 3.75 3.75s-1.679 3.75-3.75 3.75v0z"></path>
</svg>
