<!-- Generated by IcoMoon.io -->
<svg version="1.1" xmlns="http://www.w3.org/2000/svg" width="32" height="32" viewBox="0 0 32 32">
<title>person-accounts-filled</title>
<path d="M5.665 18.66l7.835-0c-0.466 0.564-0.766 1.269-0.827 2.041l-0.011 0.293v6c0 0.887 0.315 1.7 0.838 2.334l-0.172 0.001c-4.561 0-7.925-1.429-9.981-4.315-0.443-0.621-0.68-1.365-0.68-2.128v-1.227c0-1.656 1.342-2.999 2.998-2.999zM19.662 15.327h4c0.863 0 1.573 0.656 1.658 1.496l0.009 0.17-0.001 1.666 1.667 0.001c1.289 0 2.333 1.045 2.333 2.333v6c0 1.289-1.045 2.333-2.333 2.333h-10.667c-1.289 0-2.333-1.045-2.333-2.333v-6c0-1.289 1.045-2.333 2.333-2.333l1.666-0.001 0.001-1.666c0-0.863 0.656-1.573 1.496-1.658l0.17-0.009zM23.329 17.327h-3.333l-0.001 1.333h3.333l0.001-1.333zM13.329 2.667c3.682 0 6.667 2.985 6.667 6.667s-2.985 6.667-6.667 6.667c-3.682 0-6.667-2.985-6.667-6.667s2.985-6.667 6.667-6.667z"></path>
</svg>
