<!-- Generated by IcoMoon.io -->
<svg version="1.1" xmlns="http://www.w3.org/2000/svg" width="32" height="32" viewBox="0 0 32 32">
<title>person-money-filled</title>
<path d="M23.673 18.667c1.040 0 1.956 0.529 2.494 1.333h-8.166c-1.841 0-3.333 1.492-3.333 3.333v5.333c0 0.215 0.020 0.425 0.059 0.629-3.918-0.247-6.847-1.666-8.707-4.276-0.443-0.621-0.68-1.365-0.68-2.128v-1.227c0-1.656 1.342-2.999 2.998-2.999h15.336zM16.001 2.673c3.682 0 6.667 2.985 6.667 6.667s-2.985 6.667-6.667 6.667c-3.682 0-6.667-2.985-6.667-6.667s2.985-6.667 6.667-6.667zM16 23.333c0-1.105 0.895-2 2-2h10.667c1.105 0 2 0.895 2 2v5.333c0 1.105-0.895 2-2 2h-10.667c-1.105 0-2-0.895-2-2v-5.333zM29.334 24c-0.736 0-1.333-0.597-1.333-1.333h-1.333c0 1.473 1.194 2.667 2.667 2.667v-1.333zM29.334 26.667c-1.473 0-2.667 1.194-2.667 2.667h1.333c0-0.736 0.597-1.333 1.333-1.333v-1.333zM18.667 22.667c0 0.736-0.597 1.333-1.333 1.333v1.333c1.473 0 2.667-1.194 2.667-2.667h-1.333zM20 29.333c0-1.473-1.194-2.667-2.667-2.667v1.333c0.736 0 1.333 0.597 1.333 1.333h1.333zM25.667 26c0-1.289-1.045-2.333-2.333-2.333s-2.333 1.045-2.333 2.333c0 1.289 1.045 2.333 2.333 2.333s2.333-1.045 2.333-2.333z"></path>
</svg>
