<!-- Generated by IcoMoon.io -->
<svg version="1.1" xmlns="http://www.w3.org/2000/svg" width="32" height="32" viewBox="0 0 32 32">
<title>person-feedback-filled</title>
<path d="M14.333 18.667c1.657 0 3 1.343 3 3v2.003l-0.011 0.145c-0.414 2.835-2.961 4.198-7.234 4.198-4.258 0-6.845-1.348-7.403-4.15l-0.019-0.195v-2c0-1.657 1.343-3 3-3h8.667zM10 8c2.577 0 4.667 2.089 4.667 4.667s-2.089 4.667-4.667 4.667c-2.577 0-4.667-2.089-4.667-4.667s2.089-4.667 4.667-4.667zM26.333 2.667c1.657 0 3 1.343 3 3v4.667c0 1.657-1.343 3-3 3h-2.070l-3.389 2.943c-0.556 0.483-1.398 0.423-1.881-0.133-0.211-0.243-0.326-0.553-0.326-0.874l-0.001-1.955c-1.499-0.166-2.666-1.438-2.666-2.982v-4.667c0-1.657 1.343-3 3-3h7.333z"></path>
</svg>
