<!-- Generated by IcoMoon.io -->
<svg version="1.1" xmlns="http://www.w3.org/2000/svg" width="32" height="32" viewBox="0 0 32 32">
<title>phone-update-checkmark-filled</title>
<path d="M11 29.333h6.080c-1.493-1.55-2.413-3.662-2.413-5.989 0-0.004 0-0.008 0-0.012v0.001c0-0.828 0.116-1.629 0.333-2.388v-8.267l-1.281 1.28-0.113 0.097c-0.164 0.123-0.372 0.198-0.597 0.198-0.552 0-1-0.448-1-1 0-0.225 0.074-0.433 0.2-0.6l-0.002 0.003 0.097-0.111 2.989-2.989 0.069-0.064 0.073-0.055 0.101-0.061 0.149-0.063 0.128-0.033 0.123-0.015h0.125l0.123 0.015 0.084 0.020 0.133 0.048 0.081 0.040 0.089 0.055 0.083 0.067 0.051 0.047 2.989 2.989 0.097 0.112c0.122 0.164 0.196 0.371 0.196 0.594 0 0.218-0.070 0.42-0.189 0.585l0.002-0.003-0.107 0.125-0.112 0.097c-0.164 0.123-0.371 0.196-0.595 0.196-0.219 0-0.421-0.070-0.585-0.189l0.003 0.002-0.125-0.107-1.283-1.28v4.739c1.582-1.694 3.829-2.751 6.323-2.751 0.239 0 0.475 0.010 0.709 0.029l-0.031-0.002v-9.027c0-1.657-1.343-3-3-3v0h-10c-1.657 0-3 1.343-3 3v0 20.667c0 1.657 1.343 3 3 3v0zM30.667 23.333c0 4.050-3.283 7.333-7.333 7.333s-7.333-3.283-7.333-7.333v0c0-4.050 3.283-7.333 7.333-7.333s7.333 3.283 7.333 7.333v0zM27.805 20.195c-0.121-0.121-0.288-0.196-0.472-0.196s-0.351 0.075-0.472 0.196v0l-4.861 4.863-2.195-2.196c-0.121-0.121-0.288-0.195-0.472-0.195-0.369 0-0.668 0.299-0.668 0.668 0 0.184 0.075 0.351 0.195 0.472l2.667 2.667c0.121 0.121 0.288 0.196 0.472 0.196s0.351-0.075 0.472-0.196v0l5.333-5.333c0.121-0.121 0.196-0.288 0.196-0.472s-0.075-0.351-0.196-0.472v0z"></path>
</svg>
