<!-- Generated by IcoMoon.io -->
<svg version="1.1" xmlns="http://www.w3.org/2000/svg" width="32" height="32" viewBox="0 0 32 32">
<title>phone-screen-time-filled</title>
<path d="M23.333 16c4.050 0 7.333 3.283 7.333 7.333s-3.283 7.333-7.333 7.333c-4.050 0-7.333-3.283-7.333-7.333s3.283-7.333 7.333-7.333zM18.333 2.667c1.657 0 3 1.343 3 3l0 9.232c-3.822 0.903-6.667 4.337-6.667 8.435 0 0.224 0.009 0.447 0.025 0.667l-3.025-0c-0.552 0-1 0.448-1 1 0 0.506 0.376 0.925 0.864 0.991l0.136 0.009h3.333l0.083-0.005c0.408 1.265 1.098 2.403 1.997 3.339l-8.747-0.001c-1.657 0-3-1.343-3-3v-20.667c0-1.657 1.343-3 3-3h10zM22 18.667c-0.368 0-0.667 0.299-0.667 0.667v5.333c0 0.368 0.299 0.667 0.667 0.667h4.002c0.368 0 0.667-0.299 0.667-0.667s-0.299-0.667-0.667-0.667h-3.335v-4.667c0-0.368-0.299-0.667-0.667-0.667z"></path>
</svg>
