<!-- Generated by IcoMoon.io -->
<svg version="1.1" xmlns="http://www.w3.org/2000/svg" width="32" height="32" viewBox="0 0 32 32">
<title>phone-update-filled</title>
<path d="M21 2.667c1.657 0 3 1.343 3 3v0 20.667c0 1.657-1.343 3-3 3v0h-10c-1.657 0-3-1.343-3-3v0-20.667c0-1.657 1.343-3 3-3v0h10zM16 9.373l-0.136 0.011-0.129 0.027c-0.378 0.107-0.662 0.42-0.723 0.808l-0.001 0.006-0.011 0.151v8.947l-1.281-1.28-0.113-0.097c-0.164-0.123-0.372-0.198-0.597-0.198-0.552 0-1 0.448-1 1 0 0.225 0.074 0.433 0.2 0.6l-0.002-0.003 0.097 0.112 2.989 2.988 0.069 0.064 0.073 0.055 0.101 0.061 0.149 0.063 0.128 0.033 0.123 0.015h0.125l0.123-0.015 0.084-0.020 0.133-0.048 0.081-0.040 0.089-0.055 0.083-0.067 0.051-0.047 2.989-2.988 0.097-0.113c0.122-0.164 0.196-0.371 0.196-0.594 0-0.218-0.070-0.42-0.189-0.585l0.002 0.003-0.107-0.125-0.112-0.097c-0.164-0.123-0.371-0.196-0.595-0.196-0.219 0-0.421 0.070-0.585 0.189l0.003-0.002-0.125 0.107-1.283 1.28 0.001-8.947-0.009-0.136c-0.063-0.444-0.41-0.792-0.849-0.854l-0.005-0.001-0.136-0.011z"></path>
</svg>
