<!-- Generated by IcoMoon.io -->
<svg version="1.1" xmlns="http://www.w3.org/2000/svg" width="32" height="32" viewBox="0 0 32 32">
<title>phone-desktop-add-filled</title>
<path d="M30.4 8.8c0 3.976-3.224 7.2-7.2 7.2s-7.2-3.224-7.2-7.2v0c0-3.976 3.224-7.2 7.2-7.2s7.2 3.224 7.2 7.2v0zM24 5.6c0-0.442-0.358-0.8-0.8-0.8s-0.8 0.358-0.8 0.8v0 2.4h-2.4c-0.442 0-0.8 0.358-0.8 0.8s0.358 0.8 0.8 0.8v0h2.4v2.4c0 0.442 0.358 0.8 0.8 0.8s0.8-0.358 0.8-0.8v0-2.4h2.4c0.442 0 0.8-0.358 0.8-0.8s-0.358-0.8-0.8-0.8v0h-2.4v-2.4zM23.2 17.6c2.128 0 4.080-0.755 5.6-2.011v2.011c0 1.767-1.433 3.2-3.2 3.2v0h-4.8v3.2h2.4c0.442 0 0.8 0.358 0.8 0.8s-0.358 0.8-0.8 0.8v0h-8.8v-1.6h4.8v-3.2h-4.8v-5.6c0-2.209-1.791-4-4-4v0h-4v-4.8c0-1.767 1.433-3.2 3.2-3.2v0h6.811c-1.252 1.509-2.012 3.466-2.012 5.6 0 4.86 3.94 8.8 8.8 8.8 0 0 0 0 0.001 0h-0zM5.6 12.8c-1.325 0-2.4 1.075-2.4 2.4v0 11.2c0 1.325 1.075 2.4 2.4 2.4v0h4.8c1.325 0 2.4-1.075 2.4-2.4v0-11.2c0-1.325-1.075-2.4-2.4-2.4v0h-4.8zM6.4 24.8c0-0.442 0.358-0.8 0.8-0.8v0h1.6c0.442 0 0.8 0.358 0.8 0.8s-0.358 0.8-0.8 0.8v0h-1.6c-0.442 0-0.8-0.358-0.8-0.8v0z"></path>
</svg>
