<!-- Generated by IcoMoon.io -->
<svg version="1.1" xmlns="http://www.w3.org/2000/svg" width="32" height="32" viewBox="0 0 32 32">
<title>phone-checkmark-filled</title>
<path d="M28.8 8.8c0 3.976-3.224 7.2-7.2 7.2s-7.2-3.224-7.2-7.2v0c0-3.976 3.224-7.2 7.2-7.2s7.2 3.224 7.2 7.2v0zM25.366 5.834c-0.145-0.145-0.345-0.235-0.566-0.235s-0.422 0.090-0.566 0.235l-4.234 4.235-1.034-1.035c-0.145-0.145-0.345-0.235-0.566-0.235-0.442 0-0.801 0.359-0.801 0.801 0 0.221 0.090 0.421 0.235 0.566v0l1.6 1.6c0.145 0.145 0.345 0.235 0.566 0.235s0.422-0.090 0.566-0.235l4.8-4.8c0.145-0.145 0.235-0.345 0.235-0.566s-0.090-0.422-0.235-0.566l-0-0zM10.4 3.2h4.411c-1.254 1.51-2.015 3.468-2.015 5.603 0 4.86 3.94 8.8 8.8 8.8 0.856 0 1.683-0.122 2.466-0.35l-0.062 0.016v9.131c0 1.325-1.075 2.4-2.4 2.4v0h-11.2c-1.325 0-2.4-1.075-2.4-2.4v0-20.8c0-1.325 1.075-2.4 2.4-2.4v0zM12.8 23.2c0 0.442 0.358 0.8 0.8 0.8v0h4.8c0.442 0 0.8-0.358 0.8-0.8s-0.358-0.8-0.8-0.8v0h-4.8c-0.442 0-0.8 0.358-0.8 0.8v0z"></path>
</svg>
