<!-- Generated by IcoMoon.io -->
<svg version="1.1" xmlns="http://www.w3.org/2000/svg" width="32" height="32" viewBox="0 0 32 32">
<title>phone-laptop-filled</title>
<path d="M6 8c0-1.657 1.343-3 3-3v0h16c1.657 0 3 1.343 3 3v0 10c0 1.657-1.343 3-3 3v0h-8v-8c0-2.761-2.239-5-5-5v0h-5c-0.345 0-0.68 0.044-1 0.126v-0.126zM29 25h-12v-2h12c0.552 0 1 0.448 1 1s-0.448 1-1 1v0zM6 10c-1.657 0-3 1.343-3 3v0 12c0 1.657 1.343 3 3 3v0h6c1.657 0 3-1.343 3-3v0-12c0-1.657-1.343-3-3-3v0h-6zM9 25c-0.552 0-1-0.448-1-1s0.448-1 1-1v0c0.552 0 1 0.448 1 1s-0.448 1-1 1v0z"></path>
</svg>
