<!-- Generated by IcoMoon.io -->
<svg version="1.1" xmlns="http://www.w3.org/2000/svg" width="32" height="32" viewBox="0 0 32 32">
<title>phone-eraser-filled</title>
<path d="M23.325 2.304c0.434-0.434 1.034-0.702 1.696-0.702s1.262 0.268 1.696 0.702l2.982 2.976c0.435 0.434 0.704 1.035 0.704 1.698s-0.269 1.263-0.703 1.698l-8.221 8.221c-0.434 0.435-1.035 0.703-1.698 0.703s-1.263-0.269-1.698-0.703v0l-2.979-2.978c-0.435-0.434-0.704-1.035-0.704-1.698s0.269-1.263 0.703-1.698l8.222-8.221zM16.235 11.656c-0.145 0.145-0.234 0.345-0.234 0.566s0.090 0.421 0.234 0.566l2.978 2.979c0.145 0.145 0.345 0.235 0.566 0.235s0.422-0.090 0.566-0.235l2.064-2.064-4.112-4.112-2.064 2.064zM20.16 3.205c-0.046-0.003-0.099-0.005-0.153-0.005-0.002 0-0.005 0-0.007 0h-11.2c-1.325 0-2.4 1.075-2.4 2.4v0 20.8c0 1.325 1.075 2.4 2.4 2.4v0h11.2c1.325 0 2.4-1.075 2.4-2.4v0-8.176c-0.698 0.607-1.615 0.977-2.619 0.977-1.105 0-2.105-0.448-2.829-1.172l-2.979-2.979c-0.724-0.724-1.172-1.724-1.172-2.829s0.448-2.105 1.172-2.829l6.187-6.187zM16.8 23.2c0 0.442-0.358 0.8-0.8 0.8v0h-3.2c-0.442 0-0.8-0.358-0.8-0.8s0.358-0.8 0.8-0.8v0h3.2c0.442 0 0.8 0.358 0.8 0.8v0z"></path>
</svg>
