<!-- Generated by IcoMoon.io -->
<svg version="1.1" xmlns="http://www.w3.org/2000/svg" width="32" height="32" viewBox="0 0 32 32">
<title>phone-filled</title>
<path d="M10.833 2.667c-1.565 0-2.833 1.269-2.833 2.833v0 21c0 1.565 1.269 2.833 2.833 2.833v0h10.333c1.565 0 2.833-1.269 2.833-2.833v0-21c0-1.565-1.269-2.833-2.833-2.833v0h-10.333zM14.167 23.667h3.667c0.46 0 0.833 0.373 0.833 0.833s-0.373 0.833-0.833 0.833v0h-3.667c-0.46 0-0.833-0.373-0.833-0.833s0.373-0.833 0.833-0.833v0z"></path>
</svg>
