<!-- Generated by IcoMoon.io -->
<svg version="1.1" xmlns="http://www.w3.org/2000/svg" width="32" height="32" viewBox="0 0 32 32">
<title>phone-shake-filled</title>
<path d="M16.453 5.427c1.601-0.43 3.246 0.52 3.675 2.121l3.677 13.719c0.429 1.601-0.521 3.246-2.122 3.675l-6.128 1.64c-1.6 0.428-3.245-0.522-3.673-2.122l-3.673-13.715c-0.428-1.6 0.521-3.244 2.12-3.673l6.123-1.644zM19.586 20.372c-0.143-0.533-0.691-0.85-1.225-0.707l-2.576 0.69-0.129 0.044c-0.454 0.19-0.709 0.692-0.578 1.181 0.143 0.533 0.691 0.85 1.225 0.707l2.576-0.69 0.129-0.044c0.454-0.19 0.709-0.692 0.579-1.181z"></path>
<path d="M24.904 3.19c0.265-0.485 0.872-0.663 1.357-0.398 0.425 0.232 1.006 0.679 1.578 1.374 0.576 0.7 1.019 1.525 1.275 2.479 0.373 1.391 0.26 2.714-0.154 3.89-0.145 0.411-0.295 0.718-0.409 0.906-0.287 0.472-0.902 0.622-1.374 0.334-0.432-0.263-0.594-0.802-0.397-1.253l0.063-0.121c0.046-0.075 0.136-0.259 0.231-0.53 0.289-0.821 0.367-1.743 0.109-2.708-0.178-0.666-0.486-1.238-0.887-1.725-0.392-0.476-0.776-0.771-0.993-0.89-0.485-0.265-0.663-0.872-0.398-1.357z"></path>
<path d="M23.334 5.925c0.335-0.439 0.962-0.524 1.401-0.189 0.178 0.136 0.408 0.354 0.637 0.655 0.252 0.332 0.446 0.7 0.555 1.108 0.156 0.582 0.124 1.163-0.017 1.712l-0.069 0.237c-0.023 0.069-0.045 0.127-0.064 0.175-0.213 0.509-0.799 0.749-1.309 0.536-0.467-0.196-0.708-0.704-0.58-1.18l0.067-0.198c0.006-0.019 0.012-0.042 0.019-0.068 0.063-0.244 0.076-0.494 0.022-0.696-0.037-0.136-0.112-0.279-0.217-0.418-0.079-0.105-0.158-0.186-0.211-0.235l-0.044-0.037c-0.439-0.335-0.524-0.962-0.189-1.401z"></path>
<path d="M3.385 20.548c0.276-0.478 0.888-0.642 1.366-0.366 0.438 0.253 0.613 0.788 0.426 1.244l-0.127 0.257c-0.041 0.092-0.092 0.219-0.144 0.377-0.274 0.824-0.343 1.756-0.080 2.737 0.179 0.668 0.484 1.247 0.882 1.745 0.343 0.43 0.68 0.719 0.906 0.869l0.090 0.056c0.478 0.276 0.642 0.888 0.365 1.366s-0.888 0.642-1.366 0.365c-0.419-0.242-0.992-0.702-1.557-1.408-0.563-0.705-0.998-1.529-1.252-2.476-0.373-1.393-0.275-2.715 0.114-3.886 0.133-0.4 0.271-0.698 0.377-0.881z"></path>
<path d="M6.232 22.342c0.211-0.51 0.796-0.752 1.307-0.541 0.468 0.194 0.71 0.702 0.584 1.178l-0.066 0.197c-0.005 0.019-0.012 0.041-0.018 0.067-0.062 0.244-0.075 0.495-0.021 0.699 0.037 0.137 0.112 0.281 0.217 0.421 0.079 0.105 0.158 0.188 0.211 0.237l0.044 0.038c0.438 0.337 0.519 0.965 0.182 1.403s-0.965 0.519-1.402 0.182c-0.177-0.136-0.406-0.355-0.633-0.657-0.249-0.331-0.441-0.699-0.55-1.105-0.156-0.581-0.125-1.161 0.014-1.709l0.068-0.235c0.022-0.068 0.044-0.126 0.063-0.173z"></path>
</svg>
