<!-- Generated by IcoMoon.io -->
<svg version="1.1" xmlns="http://www.w3.org/2000/svg" width="32" height="32" viewBox="0 0 32 32">
<title>phone-lock-filled</title>
<path d="M18.333 2.667c1.657 0 3 1.343 3 3v0 8.783c-1.589 0.767-2.667 2.366-2.667 4.216 0 0 0 0.001 0 0.001v-0 0.067c-1.532 0.321-2.667 1.661-2.667 3.266 0 0 0 0 0 0.001v-0 3c0-0.552-0.448-1-1-1v0h-3.333c-0.552 0-1 0.448-1 1s0.448 1 1 1v0h3.333c0.552 0 1-0.448 1-1v0 3.667c0 0.228 0.023 0.451 0.067 0.667h-7.733c-1.657 0-3-1.343-3-3v0-20.667c0-1.657 1.343-3 3-3v0h10zM20 18.667v1.333h-0.667c-1.105 0-2 0.895-2 2v0 6.667c0 0.001 0 0.003 0 0.004 0 1.102 0.894 1.996 1.996 1.996 0.001 0 0.003 0 0.004 0h8c1.105 0 2-0.895 2-2v0-6.667c0-1.105-0.895-2-2-2v0h-0.667v-1.333c0-1.841-1.492-3.333-3.333-3.333s-3.333 1.492-3.333 3.333v0zM22 18.667c0-0.736 0.597-1.333 1.333-1.333s1.333 0.597 1.333 1.333v0 1.333h-2.667v-1.333zM24.667 25.333c0 0.736-0.597 1.333-1.333 1.333s-1.333-0.597-1.333-1.333v0c0-0.736 0.597-1.333 1.333-1.333s1.333 0.597 1.333 1.333v0z"></path>
</svg>
