<!-- Generated by IcoMoon.io -->
<svg version="1.1" xmlns="http://www.w3.org/2000/svg" width="32" height="32" viewBox="0 0 32 32">
<title>phone-screen-time-filled</title>
<path d="M23.333 16c4.050 0 7.333 3.283 7.333 7.333s-3.283 7.333-7.333 7.333v0c-4.050 0-7.333-3.283-7.333-7.333s3.283-7.333 7.333-7.333v0zM18.333 2.667c1.657 0 3 1.343 3 3v0 9.232c-3.851 0.938-6.666 4.358-6.666 8.436 0 0.234 0.009 0.466 0.028 0.696l-0.002-0.030h-3.027c-0.552 0-1 0.448-1 1 0 0.504 0.373 0.921 0.858 0.99l0.005 0.001 0.136 0.009h3.333l0.083-0.004c0.429 1.302 1.113 2.419 2 3.34l-0.003-0.003h-8.747c-1.657 0-3-1.343-3-3v0-20.667c0-1.657 1.343-3 3-3v0h10zM22 18.667c-0.368 0-0.667 0.298-0.667 0.667v0 5.333c0 0.368 0.298 0.667 0.667 0.667v0h4.003c0.368 0 0.667-0.298 0.667-0.667s-0.298-0.667-0.667-0.667v0h-3.336v-4.667c0-0.368-0.298-0.667-0.667-0.667v0z"></path>
</svg>
