<!-- Generated by IcoMoon.io -->
<svg version="1.1" xmlns="http://www.w3.org/2000/svg" width="32" height="32" viewBox="0 0 32 32">
<title>phone-dismiss-filled</title>
<path d="M23.333 16c4.050 0 7.333 3.283 7.333 7.333s-3.283 7.333-7.333 7.333v0c-4.050 0-7.333-3.283-7.333-7.333s3.283-7.333 7.333-7.333v0zM18.333 2.667c1.657 0 3 1.343 3 3v0 9.232c-3.851 0.938-6.666 4.358-6.666 8.436 0 0.234 0.009 0.466 0.028 0.696l-0.002-0.030h-3.027c-0.552 0-1 0.448-1 1 0 0.504 0.373 0.921 0.858 0.99l0.005 0.001 0.136 0.009h3.333l0.083-0.004c0.429 1.302 1.113 2.419 2 3.34l-0.003-0.003h-8.747c-1.657 0-3-1.343-3-3v0-20.667c0-1.657 1.343-3 3-3v0h10zM20.124 19.955l-0.093 0.077-0.076 0.093c-0.074 0.106-0.118 0.237-0.118 0.379s0.044 0.273 0.119 0.381l-0.001-0.002 0.077 0.093 2.36 2.359-2.357 2.355-0.076 0.093c-0.074 0.106-0.118 0.237-0.118 0.379s0.044 0.273 0.119 0.381l-0.001-0.002 0.076 0.093 0.093 0.076c0.106 0.074 0.237 0.118 0.379 0.118s0.273-0.044 0.381-0.119l-0.002 0.001 0.093-0.076 2.355-2.356 2.36 2.359 0.092 0.077c0.106 0.074 0.237 0.118 0.379 0.118s0.273-0.044 0.381-0.119l-0.002 0.001 0.093-0.077 0.076-0.093c0.074-0.106 0.118-0.237 0.118-0.379s-0.044-0.273-0.119-0.381l0.001 0.002-0.076-0.093-2.36-2.357 2.363-2.36 0.077-0.092c0.074-0.106 0.118-0.237 0.118-0.379s-0.044-0.273-0.12-0.381l0.001 0.002-0.077-0.092-0.092-0.077c-0.106-0.074-0.237-0.118-0.379-0.118s-0.273 0.044-0.381 0.12l0.002-0.001-0.092 0.077-2.363 2.36-2.36-2.36-0.091-0.077c-0.106-0.074-0.237-0.118-0.379-0.118-0.101 0-0.197 0.022-0.282 0.063l0.004-0.002-0.101 0.057z"></path>
</svg>
