<!-- Generated by IcoMoon.io -->
<svg version="1.1" xmlns="http://www.w3.org/2000/svg" width="32" height="32" viewBox="0 0 32 32">
<title>phone-span-in-filled</title>
<path d="M10 2.286c-1.736 0-3.143 1.407-3.143 3.143v0 5.862c0.401-0.271 0.896-0.433 1.428-0.433 0.71 0 1.353 0.288 1.818 0.753l3.429 3.429c0.465 0.465 0.753 1.108 0.753 1.818s-0.288 1.353-0.753 1.818l-3.429 3.429c-0.465 0.465-1.108 0.753-1.818 0.753-0.532 0-1.027-0.162-1.438-0.439l0.009 0.006v4.147c0 1.736 1.407 3.143 3.143 3.143v0h12c1.736 0 3.143-1.407 3.143-3.143v0-4.149c-0.401 0.271-0.896 0.433-1.428 0.433-0.71 0-1.353-0.288-1.818-0.753l-3.429-3.429c-0.465-0.465-0.753-1.108-0.753-1.818s0.288-1.353 0.753-1.818l3.429-3.429c0.465-0.465 1.108-0.753 1.818-0.753 0.533 0 1.028 0.162 1.438 0.44l-0.009-0.006v-5.862c0-1.736-1.407-3.143-3.143-3.143v0h-12zM7.68 14.034l1.966 1.966h-5.36c-0.473 0-0.857 0.384-0.857 0.857s0.384 0.857 0.857 0.857v0h5.36l-1.966 1.966c-0.168 0.157-0.273 0.38-0.273 0.627 0 0.473 0.384 0.857 0.857 0.857 0.247 0 0.47-0.105 0.627-0.272l0-0 3.429-3.429c0.155-0.155 0.251-0.369 0.251-0.606s-0.096-0.451-0.251-0.606v0l-3.429-3.429c-0.157-0.168-0.38-0.273-0.627-0.273-0.473 0-0.857 0.384-0.857 0.857 0 0.247 0.105 0.47 0.272 0.627l0 0zM24.32 14.034l-1.966 1.966h5.36c0.473 0 0.857 0.384 0.857 0.857s-0.384 0.857-0.857 0.857v0h-5.36l1.966 1.966c0.168 0.157 0.273 0.38 0.273 0.627 0 0.473-0.384 0.857-0.857 0.857-0.247 0-0.47-0.105-0.627-0.272l-0-0-3.429-3.429c-0.155-0.155-0.251-0.369-0.251-0.606s0.096-0.451 0.251-0.606v0l3.429-3.429c0.157-0.168 0.38-0.273 0.627-0.273 0.473 0 0.857 0.384 0.857 0.857 0 0.247-0.105 0.47-0.272 0.627l-0 0z"></path>
</svg>
