<!-- Generated by IcoMoon.io -->
<svg version="1.1" xmlns="http://www.w3.org/2000/svg" width="32" height="32" viewBox="0 0 32 32">
<title>phone-vertical-scroll-filled</title>
<path d="M21 2.667c1.657 0 3 1.343 3 3v0 20.667c0 1.657-1.343 3-3 3v0h-10c-1.657 0-3-1.343-3-3v0-20.667c0-1.657 1.343-3 3-3v0h10zM18.285 17.967l-2.285 2.333-2.291-2.333c-0.179-0.171-0.422-0.276-0.69-0.276-0.552 0-1 0.448-1 1 0 0.261 0.1 0.498 0.264 0.676l-0.001-0.001 3.004 3.061c0.392 0.4 1.036 0.4 1.427 0l3-3.061c0.191-0.183 0.31-0.439 0.31-0.724 0-0.552-0.448-1-1-1-0.291 0-0.554 0.125-0.736 0.324l-0.001 0.001zM19.715 12.695l-3-3.061c-0.182-0.186-0.435-0.301-0.715-0.301-0.227 0-0.436 0.075-0.604 0.203l0.002-0.002-0.112 0.1-3.004 3.060c-0.18 0.181-0.291 0.43-0.291 0.706 0 0.552 0.448 1 1 1 0.229 0 0.441-0.077 0.61-0.207l-0.002 0.002 0.111-0.099 2.291-2.333 2.285 2.333c0.182 0.185 0.435 0.3 0.714 0.3 0.552 0 1-0.448 1-1 0-0.22-0.071-0.424-0.192-0.59l0.002 0.003-0.095-0.113z"></path>
</svg>
