<!-- Generated by IcoMoon.io -->
<svg version="1.1" xmlns="http://www.w3.org/2000/svg" width="32" height="32" viewBox="0 0 32 32">
<title>phone-tablet-filled</title>
<path d="M11.007 9.333c1.289 0 2.333 1.044 2.333 2.333v12.667c0 1.289-1.045 2.333-2.333 2.333v0h-6.005c-1.289 0-2.333-1.045-2.333-2.333v0-12.667c0-1.289 1.044-2.333 2.333-2.333h6.005zM8.337 21.993h-0.667l-0.136 0.009c-0.491 0.069-0.864 0.486-0.864 0.991s0.373 0.921 0.858 0.99l0.005 0.001 0.136 0.009h0.667l0.136-0.009c0.491-0.069 0.864-0.486 0.864-0.991s-0.373-0.921-0.858-0.99l-0.005-0.001-0.136-0.009zM26.333 5.333c0 0 0 0 0 0 1.585 0 2.882 1.229 2.992 2.785l0.001 0.010 0.007 0.205v11.333c0 0 0 0 0 0 0 1.585-1.229 2.882-2.785 2.992l-0.010 0.001-0.205 0.007h-11.667v-11.333c0-0 0-0 0-0.001 0-1.764-1.37-3.207-3.103-3.325l-0.010-0.001-0.22-0.007h-3.315c0.165-1.433 1.318-2.55 2.753-2.658l0.010-0.001 0.219-0.008h15.333zM20.333 18h-3.333c-0.552 0.001-0.998 0.448-0.998 1 0 0.504 0.373 0.921 0.858 0.99l0.005 0.001 0.135 0.009h3.333c0.552-0 1-0.448 1-1 0-0.504-0.373-0.921-0.858-0.99l-0.005-0.001-0.136-0.009z"></path>
</svg>
