<!-- Generated by IcoMoon.io -->
<svg version="1.1" xmlns="http://www.w3.org/2000/svg" width="32" height="32" viewBox="0 0 32 32">
<title>phone-speaker-filled</title>
<path d="M18.333 2.667c1.657 0 3 1.343 3 3v11.565c-0.491 0.068-0.973 0.298-1.369 0.721l-1.92 2.048h-2.045c-0.736 0-1.333 0.597-1.333 1.333v2.667h-3c-0.552 0-1 0.448-1 1s0.448 1 1 1h3.179c0.231 0.398 0.661 0.666 1.155 0.666h2.045l1.92 2.048c0.027 0.029 0.054 0.056 0.081 0.083-0.485 0.338-1.076 0.536-1.712 0.536h-10c-1.657 0-3-1.343-3-3v-20.667c0-1.657 1.343-3 3-3h10zM29.524 19.069c-0.438-0.729-0.887-1.228-1.217-1.504-0.424-0.354-1.055-0.296-1.408 0.128s-0.296 1.055 0.128 1.408c0.169 0.141 0.47 0.475 0.783 0.996 0.535 0.892 0.857 1.966 0.857 3.235s-0.322 2.343-0.857 3.235c-0.312 0.521-0.613 0.855-0.783 0.996-0.424 0.353-0.482 0.984-0.128 1.408s0.984 0.482 1.408 0.128c0.331-0.276 0.78-0.775 1.217-1.504 0.715-1.191 1.142-2.617 1.142-4.265s-0.428-3.073-1.142-4.265zM26.499 20.529c-0.319-0.478-0.647-0.807-0.899-0.995-0.442-0.331-1.069-0.242-1.4 0.2s-0.242 1.069 0.2 1.4c0.082 0.062 0.253 0.233 0.435 0.505 0.312 0.468 0.499 1.028 0.499 1.695s-0.187 1.227-0.499 1.695c-0.181 0.272-0.353 0.443-0.435 0.505l-0.112 0.097c-0.343 0.347-0.39 0.901-0.088 1.303 0.331 0.442 0.958 0.531 1.4 0.2 0.251-0.188 0.58-0.517 0.899-0.995 0.521-0.782 0.835-1.722 0.835-2.805s-0.313-2.023-0.835-2.805zM22.667 19.667c0-0.417-0.258-0.789-0.648-0.936s-0.83-0.036-1.104 0.278l-2.035 2.325h-1.88c-0.552 0-1 0.448-1 1v2c0 0.552 0.448 1 1 1h1.88l2.035 2.325c0.274 0.314 0.714 0.424 1.104 0.278s0.648-0.519 0.648-0.936v-7.333z"></path>
</svg>
