<!-- Generated by IcoMoon.io -->
<svg version="1.1" xmlns="http://www.w3.org/2000/svg" width="32" height="32" viewBox="0 0 32 32">
<title>phone-span-in-filled</title>
<path d="M21 2.667c1.588 0 2.887 1.234 2.993 2.795l0.007 0.205 0.001 4.89c-0.866-0.411-1.933-0.258-2.65 0.459l-2.906 2.958c-0.694 0.419-1.112 1.194-1.112 2.027l0.009 0.207c0.051 0.616 0.332 1.186 0.781 1.583l0.155 0.125 3.074 3.070 0.183 0.163c0.765 0.571 1.701 0.653 2.466 0.294l-0.001 4.891c0 1.588-1.234 2.887-2.795 2.993l-0.205 0.007h-10c-1.588 0-2.888-1.234-2.993-2.795l-0.007-0.205-0-4.908c0.784 0.376 1.692 0.3 2.388-0.217l0.189-0.158 3.144-3.136 0.156-0.125c0.499-0.441 0.789-1.096 0.789-1.79l-0.009-0.207c-0.051-0.616-0.331-1.185-0.78-1.582l-0.15-0.121-3.080-3.075c-0.716-0.716-1.783-0.869-2.649-0.459l0.001-4.889c0-1.588 1.234-2.888 2.795-2.993l0.205-0.007h10zM23.708 11.958c0.355 0.355 0.387 0.911 0.097 1.302l-0.097 0.112-1.628 1.626h5.045c0.483-0 0.875 0.448 0.875 1 0 0.506-0.329 0.925-0.756 0.991l-0.119 0.009h-5.045l1.628 1.628c0.355 0.355 0.387 0.911 0.097 1.302l-0.097 0.112c-0.355 0.355-0.911 0.387-1.302 0.097l-0.112-0.097-3.16-3.156c-0.278-0.167-0.468-0.501-0.468-0.885s0.189-0.717 0.467-0.885l3.16-3.157c0.391-0.391 1.024-0.391 1.414 0zM9.594 11.861l0.112 0.097 3.16 3.157c0.278 0.167 0.467 0.501 0.467 0.885 0 0.336-0.145 0.633-0.368 0.815l-0.1 0.070-3.16 3.156-0.112 0.097c-0.348 0.258-0.826 0.261-1.177 0.010l-0.125-0.106-0.097-0.112c-0.258-0.348-0.261-0.826-0.010-1.177l0.106-0.125 1.628-1.628h-5.045l-0.119-0.009c-0.427-0.066-0.756-0.485-0.756-0.991s0.329-0.925 0.756-0.991l0.119-0.009h5.045l-1.628-1.626-0.097-0.112c-0.29-0.391-0.258-0.947 0.097-1.302s0.911-0.387 1.302-0.097z"></path>
</svg>
