<!-- Generated by IcoMoon.io -->
<svg version="1.1" xmlns="http://www.w3.org/2000/svg" width="32" height="32" viewBox="0 0 32 32">
<title>phone-shake-filled</title>
<path d="M16.453 5.427c0.233-0.065 0.501-0.102 0.777-0.102 1.38 0 2.543 0.932 2.893 2.201l0.005 0.021 3.677 13.72c0.065 0.233 0.102 0.5 0.102 0.777 0 1.381-0.933 2.544-2.204 2.893l-0.021 0.005-6.127 1.64c-0.233 0.065-0.5 0.102-0.777 0.102-1.381 0-2.544-0.933-2.893-2.204l-0.005-0.021-3.672-13.715c-0.065-0.233-0.102-0.5-0.102-0.776 0-1.38 0.932-2.543 2.201-2.892l0.021-0.005 6.124-1.644zM19.587 20.373c-0.118-0.431-0.506-0.742-0.966-0.742-0.092 0-0.181 0.012-0.266 0.036l0.007-0.002-2.576 0.691-0.128 0.044c-0.358 0.157-0.604 0.509-0.604 0.918 0 0.552 0.448 1 1 1 0.089 0 0.174-0.012 0.256-0.033l-0.007 0.002 2.576-0.689 0.129-0.044c0.363-0.155 0.613-0.509 0.613-0.922 0-0.092-0.012-0.182-0.036-0.266l0.002 0.007zM24.904 3.191c0.173-0.313 0.501-0.522 0.878-0.522 0.176 0 0.341 0.045 0.484 0.125l-0.005-0.003c0.425 0.233 1.005 0.68 1.577 1.375 0.576 0.7 1.020 1.525 1.275 2.48 0.143 0.51 0.226 1.095 0.226 1.7 0 0.785-0.139 1.537-0.394 2.234l0.014-0.045c-0.119 0.349-0.257 0.648-0.422 0.93l0.013-0.024c-0.179 0.29-0.494 0.48-0.854 0.48-0.552 0-1-0.448-1-1 0-0.145 0.031-0.282 0.086-0.406l-0.003 0.006 0.063-0.12c0.313-0.599 0.496-1.309 0.496-2.061 0-0.419-0.057-0.825-0.163-1.21l0.008 0.032c-0.18-0.665-0.486-1.242-0.894-1.733l0.006 0.007c-0.392-0.476-0.775-0.772-0.993-0.891-0.312-0.173-0.52-0.501-0.52-0.877 0-0.176 0.045-0.341 0.125-0.484l-0.003 0.005zM23.333 5.924c0.185-0.24 0.472-0.393 0.795-0.393 0.229 0 0.44 0.077 0.609 0.207l-0.002-0.002c0.179 0.135 0.408 0.353 0.637 0.655 0.251 0.332 0.445 0.7 0.555 1.108 0.156 0.583 0.124 1.163-0.017 1.712l-0.069 0.236c-0.024 0.076-0.046 0.134-0.070 0.191l0.006-0.016c-0.154 0.366-0.51 0.619-0.924 0.619-0.552 0-1-0.448-1-1 0-0.093 0.013-0.184 0.037-0.27l-0.002 0.007 0.067-0.197c0.047-0.135 0.074-0.291 0.074-0.454 0-0.11-0.013-0.217-0.036-0.32l0.002 0.010c-0.048-0.16-0.122-0.299-0.218-0.42l0.002 0.003c-0.066-0.087-0.135-0.163-0.21-0.234l-0.001-0.001-0.044-0.037c-0.24-0.185-0.394-0.472-0.394-0.795 0-0.229 0.077-0.44 0.206-0.608l-0.002 0.002zM3.387 20.549c0.176-0.303 0.498-0.503 0.868-0.503 0.552 0 1 0.448 1 1 0 0.138-0.028 0.269-0.078 0.388l0.002-0.007-0.127 0.257c-0.246 0.553-0.389 1.198-0.389 1.876 0 0.44 0.060 0.866 0.173 1.271l-0.008-0.033c0.179 0.667 0.484 1.247 0.881 1.745 0.344 0.429 0.68 0.719 0.907 0.869l0.089 0.056c0.304 0.175 0.506 0.499 0.506 0.869 0 0.552-0.448 1-1 1-0.186 0-0.361-0.051-0.51-0.14l0.005 0.003c-0.42-0.243-0.993-0.703-1.557-1.409-0.563-0.697-0.995-1.525-1.242-2.429l-0.011-0.047c-0.149-0.526-0.234-1.13-0.234-1.754 0-0.763 0.128-1.496 0.363-2.179l-0.014 0.047c0.133-0.4 0.272-0.699 0.377-0.88zM6.233 22.344c0.155-0.363 0.51-0.613 0.922-0.613 0.552 0 1 0.448 1 1 0 0.089-0.012 0.175-0.033 0.256l0.002-0.007-0.065 0.197c-0.047 0.136-0.074 0.292-0.074 0.455 0 0.11 0.012 0.217 0.036 0.32l-0.002-0.010c0.039 0.137 0.113 0.28 0.219 0.421 0.080 0.105 0.157 0.187 0.211 0.237l0.044 0.037c0.227 0.185 0.37 0.464 0.37 0.777 0 0.552-0.448 1-1 1-0.222 0-0.427-0.072-0.593-0.195l0.003 0.002c-0.24-0.192-0.448-0.408-0.627-0.648l-0.007-0.009c-0.242-0.313-0.431-0.681-0.545-1.081l-0.006-0.023c-0.066-0.249-0.104-0.535-0.104-0.829 0-0.313 0.043-0.616 0.123-0.904l-0.006 0.024 0.069-0.235c0.024-0.076 0.045-0.133 0.069-0.189l-0.006 0.016z"></path>
</svg>
