<!-- Generated by IcoMoon.io -->
<svg version="1.1" xmlns="http://www.w3.org/2000/svg" width="32" height="32" viewBox="0 0 32 32">
<title>photo-filter-filled</title>
<path d="M12.667 2.667c4.512 0 8.327 2.989 9.571 7.095 4.106 1.245 7.095 5.059 7.095 9.572 0 5.523-4.477 10-10 10-4.512 0-8.327-2.989-9.571-7.095-4.106-1.245-7.095-5.059-7.095-9.572 0-5.523 4.477-10 10-10zM22.665 12.799l0.002-0.132c0 5.479-4.406 9.928-9.867 9.999 1.213 2.374 3.683 4.001 6.534 4.001 4.050 0 7.333-3.283 7.333-7.333 0-2.851-1.627-5.321-4.002-6.535zM12.667 5.333c-4.050 0-7.333 3.283-7.333 7.333 0 2.851 1.627 5.321 4.002 6.535l-0.002 0.132c0-5.478 4.405-9.928 9.867-9.999-1.212-2.374-3.683-4.001-6.533-4.001z"></path>
</svg>
