<!-- Generated by IcoMoon.io -->
<svg version="1.1" xmlns="http://www.w3.org/2000/svg" width="32" height="32" viewBox="0 0 32 32">
<title>picture-in-picture-filled</title>
<path d="M7 4c-2.393 0-4.333 1.94-4.333 4.333v0 12.667c0 2.393 1.94 4.333 4.333 4.333v0h7.667v-5.333c0-2.209 1.791-4 4-4v0h9.333c0.467 0 0.916 0.080 1.333 0.227v-7.893c0-2.393-1.94-4.333-4.333-4.333v0h-18zM29.333 17.691c-0.381-0.225-0.84-0.357-1.33-0.357-0.001 0-0.002 0-0.004 0h-9.333c-1.473 0-2.667 1.194-2.667 2.667v0 6.667c0 1.473 1.194 2.667 2.667 2.667v0h9.333c1.473 0 2.667-1.194 2.667-2.667v0-6.667c-0-0.982-0.531-1.84-1.321-2.303l-0.013-0.007z"></path>
</svg>
