<!-- Generated by IcoMoon.io -->
<svg version="1.1" xmlns="http://www.w3.org/2000/svg" width="32" height="32" viewBox="0 0 32 32">
<title>pill-filled</title>
<path d="M17.737 4.7c2.641-2.641 6.922-2.641 9.562 0s2.641 6.922 0 9.562l-13.037 13.037c-2.641 2.641-6.922 2.641-9.562 0s-2.641-6.922 0-9.562l13.037-13.037zM25.886 6.115c-1.859-1.86-4.874-1.86-6.734 0l-5.811 5.811 6.734 6.734 5.811-5.811c1.86-1.86 1.86-4.874 0-6.734zM14.411 24.37c0.391-0.391 0.391-1.024 0-1.414s-1.024-0.391-1.414 0l-1.921 1.921c-0.77 0.77-2.014 0.782-2.799 0.028l-0.022-0.021c-0.398-0.383-1.031-0.37-1.414 0.029s-0.37 1.031 0.029 1.414l0.022 0.021c1.571 1.508 4.059 1.483 5.599-0.057l1.921-1.921z"></path>
</svg>
