<!-- Generated by IcoMoon.io -->
<svg version="1.1" xmlns="http://www.w3.org/2000/svg" width="32" height="32" viewBox="0 0 32 32">
<title>pin-off-filled</title>
<path d="M4.374 2.96c-0.391-0.391-1.024-0.391-1.414 0s-0.391 1.024 0 1.414l7.873 7.873-4.419 1.526c-1.164 0.402-1.505 1.883-0.634 2.754l4.139 4.139-5.919 5.919-0 1.414h1.414l5.919-5.919 4.139 4.139c0.871 0.871 2.352 0.529 2.754-0.634l1.526-4.418 7.873 7.873c0.391 0.391 1.024 0.391 1.414 0s0.391-1.024 0-1.414l-24.667-24.667zM27.138 16.216l-4.453 2.227-9.127-9.127 2.227-4.453c1.119-2.239 4.103-2.723 5.872-0.953l6.434 6.434c1.77 1.77 1.286 4.753-0.953 5.872z"></path>
</svg>
