<!-- Generated by IcoMoon.io -->
<svg version="1.1" xmlns="http://www.w3.org/2000/svg" width="32" height="32" viewBox="0 0 32 32">
<title>pin-off-filled</title>
<path d="M19.683 20.861l8.061 8.061c0.152 0.157 0.364 0.255 0.6 0.255 0.46 0 0.833-0.373 0.833-0.833 0-0.235-0.097-0.448-0.254-0.599l-24.667-24.667c-0.152-0.157-0.364-0.255-0.6-0.255-0.46 0-0.833 0.373-0.833 0.833 0 0.235 0.097 0.448 0.254 0.599l8.063 8.062-4.167 1.439c-1.28 0.442-1.656 2.072-0.698 3.029l3.88 3.88-6.155 6.155v1.178h1.179l6.155-6.155 3.88 3.88c0.958 0.958 2.587 0.583 3.029-0.697l1.44-4.167zM27.477 15.86l-5.388 2.694-8.643-8.643 2.694-5.388c0.967-1.933 3.543-2.351 5.072-0.823l7.088 7.089c1.529 1.528 1.11 4.105-0.823 5.071z"></path>
</svg>
