<!-- Generated by IcoMoon.io -->
<svg version="1.1" xmlns="http://www.w3.org/2000/svg" width="32" height="32" viewBox="0 0 32 32">
<title>pin-filled</title>
<path d="M28.091 10.343l-6.434-6.434c-1.77-1.77-4.753-1.286-5.872 0.953l-3.247 6.495c-0.117 0.234-0.321 0.413-0.568 0.498l-5.555 1.919c-1.164 0.402-1.505 1.883-0.634 2.754l4.139 4.139-5.919 5.919-0 1.414h1.414l5.919-5.919 4.139 4.139c0.871 0.87 2.352 0.529 2.754-0.634l1.919-5.555c0.085-0.247 0.264-0.451 0.498-0.568l6.495-3.247c2.239-1.119 2.723-4.103 0.953-5.872z"></path>
</svg>
