<!-- Generated by IcoMoon.io -->
<svg version="1.1" xmlns="http://www.w3.org/2000/svg" width="32" height="32" viewBox="0 0 32 32">
<title>pin-filled</title>
<path d="M21.212 3.7l7.088 7.089c1.529 1.528 1.11 4.105-0.823 5.071l-7.031 3.515c-0.194 0.099-0.341 0.265-0.413 0.468l-0.002 0.006-1.789 5.18c-0.443 1.28-2.072 1.655-3.029 0.698l-3.88-3.88-6.155 6.154h-1.179v-1.178l6.155-6.155-3.88-3.88c-0.958-0.957-0.583-2.587 0.697-3.029l5.18-1.789c0.208-0.073 0.375-0.221 0.471-0.411l0.002-0.005 3.515-7.029c0.967-1.933 3.543-2.351 5.072-0.823z"></path>
</svg>
