<!-- Generated by IcoMoon.io -->
<svg version="1.1" xmlns="http://www.w3.org/2000/svg" width="32" height="32" viewBox="0 0 32 32">
<title>pipeline-add-filled</title>
<path d="M4 6c-1.105 0-2 0.895-2 2v0 16c0 1.105 0.895 2 2 2s2-0.895 2-2v0-16c0-1.105-0.895-2-2-2v0zM28 6c-1.105 0-2 0.895-2 2v0 6.512c1.613 0.582 2.966 1.558 3.987 2.813l0.013 0.017v-9.342c0-1.105-0.895-2-2-2v0zM23 14c0.338 0 0.672 0.019 1 0.055v-5.055h-16v14h6c0-4.971 4.029-9 9-9v0zM23 30.5c4.142 0 7.5-3.358 7.5-7.5s-3.358-7.5-7.5-7.5v0c-4.142 0-7.5 3.358-7.5 7.5s3.358 7.5 7.5 7.5v0zM24 18.25v3.75h3.75c0.414 0 0.75 0.336 0.75 0.75s-0.336 0.75-0.75 0.75v0h-3.75v3.75c0 0.414-0.336 0.75-0.75 0.75s-0.75-0.336-0.75-0.75v0-3.75h-3.75c-0.414 0-0.75-0.336-0.75-0.75s0.336-0.75 0.75-0.75v0h3.75v-3.75c0-0.414 0.336-0.75 0.75-0.75s0.75 0.336 0.75 0.75v0z"></path>
</svg>
