<!-- Generated by IcoMoon.io -->
<svg version="1.1" xmlns="http://www.w3.org/2000/svg" width="32" height="32" viewBox="0 0 32 32">
<title>pipeline-arrow-curve-down-filled</title>
<path d="M1.527 9.143c0-3.787 3.070-6.857 6.857-6.857 0.001 0 0.002 0 0.003 0h-0c3.786 0.002 6.854 3.071 6.854 6.857 0 3.787-3.070 6.857-6.857 6.857s-6.857-3.070-6.857-6.857c0 0 0 0 0 0v0zM11.278 10.508l-1.367 1.367v-2.351c0-2.314-1.876-4.19-4.19-4.19-0.001 0-0.001 0-0.002 0h-0.381c-0.421 0-0.762 0.341-0.762 0.762s0.341 0.762 0.762 0.762v0h0.381c1.474 0 2.667 1.195 2.667 2.667v2.351l-1.365-1.367c-0.138-0.138-0.329-0.223-0.539-0.223-0.421 0-0.763 0.342-0.763 0.763 0 0.211 0.085 0.401 0.223 0.539v0l2.671 2.67c0.137 0.136 0.327 0.221 0.536 0.221 0.21 0 0.401-0.085 0.539-0.224l2.668-2.667c0.138-0.138 0.224-0.329 0.224-0.539 0-0.421-0.341-0.762-0.762-0.762-0.21 0-0.401 0.085-0.539 0.223v0zM3.042 15.604c1.245 1.037 2.816 1.722 4.54 1.882l0.033 0.003v5.37c-0 1.262-1.024 2.285-2.286 2.285s-2.286-1.023-2.286-2.286c0-0 0-0.001 0-0.001v0-7.253zM16.731 9.905c-0.38 4.029-3.561 7.209-7.558 7.583l-0.033 0.003v4.605h12.194v-12.19h-4.602zM25.144 6.857c-1.262 0-2.286 1.023-2.286 2.286v0 13.714c0 1.263 1.024 2.286 2.286 2.286s2.286-1.024 2.286-2.286v0-13.714c0-1.262-1.023-2.286-2.286-2.286v0z"></path>
</svg>
