<!-- Generated by IcoMoon.io -->
<svg version="1.1" xmlns="http://www.w3.org/2000/svg" width="32" height="32" viewBox="0 0 32 32">
<title>pivot-filled</title>
<path d="M4 8.667v14c0 2.577 2.089 4.667 4.667 4.667h5.838c-0.113-0.318-0.172-0.656-0.172-1 0-0.796 0.316-1.559 0.879-2.121l2-2c1.172-1.172 3.071-1.172 4.243 0 0.327 0.327 0.563 0.712 0.708 1.121h1.171v-1.171c-0.409-0.144-0.794-0.38-1.121-0.708-1.172-1.172-1.172-3.071 0-4.243l2-2c0.563-0.563 1.326-0.879 2.121-0.879 0.344 0 0.682 0.059 1 0.172v-5.838c0-2.577-2.089-4.667-4.667-4.667h-14c-2.577 0-4.667 2.089-4.667 4.667zM8.667 6.667h1.333c1.105 0 2 0.895 2 2v1.333c0 1.105-0.895 2-2 2h-1.333c-1.105 0-2-0.895-2-2v-1.333c0-1.105 0.895-2 2-2zM14.667 8.667c0-1.105 0.895-2 2-2h6c1.105 0 2 0.895 2 2v1.333c0 1.105-0.895 2-2 2h-6c-1.105 0-2-0.895-2-2v-1.333zM10 14.667c1.105 0 2 0.895 2 2v6c0 1.105-0.895 2-2 2h-1.333c-1.105 0-2-0.895-2-2v-6c0-1.105 0.895-2 2-2h1.333zM27.040 16.626c-0.187-0.188-0.442-0.293-0.707-0.293s-0.52 0.105-0.707 0.293l-2 2c-0.391 0.391-0.391 1.024 0 1.414s1.024 0.391 1.414 0l0.293-0.293v3.252c0 1.289-1.045 2.333-2.333 2.333h-3.252l0.293-0.293c0.391-0.391 0.391-1.024 0-1.414s-1.024-0.391-1.414 0l-2 2c-0.188 0.188-0.293 0.442-0.293 0.707s0.105 0.52 0.293 0.707l2 2c0.391 0.391 1.024 0.391 1.414 0s0.391-1.024 0-1.414l-0.293-0.293h3.253c2.393 0 4.333-1.94 4.333-4.333v-3.252l0.293 0.293c0.391 0.391 1.024 0.391 1.414 0s0.391-1.024 0-1.414l-2-2z"></path>
</svg>
