<!-- Generated by IcoMoon.io -->
<svg version="1.1" xmlns="http://www.w3.org/2000/svg" width="32" height="32" viewBox="0 0 32 32">
<title>pivot-filled</title>
<path d="M4 8.667v14c0 2.577 2.089 4.667 4.667 4.667v0h5.839c-0.109-0.298-0.172-0.642-0.172-1 0-0.828 0.336-1.578 0.878-2.121l2-2c0.543-0.543 1.293-0.879 2.122-0.879 1.299 0 2.405 0.825 2.822 1.98l0.007 0.021h1.171v-1.171c-1.176-0.424-2.001-1.53-2.001-2.829 0-0.829 0.336-1.579 0.879-2.122l2-2c0.543-0.543 1.293-0.878 2.121-0.878 0.359 0 0.702 0.063 1.021 0.178l-0.021-0.007v-5.839c0-2.577-2.089-4.667-4.667-4.667v0h-14c-2.577 0-4.667 2.089-4.667 4.667v0zM8.667 6.667h1.333c1.105 0 2 0.895 2 2v0 1.333c0 1.105-0.895 2-2 2v0h-1.333c-1.105 0-2-0.895-2-2v0-1.333c0-1.105 0.895-2 2-2v0zM14.667 8.667c0-1.105 0.895-2 2-2v0h6c1.105 0 2 0.895 2 2v0 1.333c0 1.105-0.895 2-2 2v0h-6c-1.105 0-2-0.895-2-2v0-1.333zM10 14.667c1.105 0 2 0.895 2 2v0 6c0 1.105-0.895 2-2 2v0h-1.333c-1.105 0-2-0.895-2-2v0-6c0-1.105 0.895-2 2-2v0h1.333zM27.040 16.627c-0.181-0.181-0.431-0.292-0.707-0.292s-0.526 0.112-0.707 0.292v0l-2 2c-0.196 0.183-0.318 0.443-0.318 0.732 0 0.552 0.448 1 1 1 0.289 0 0.549-0.122 0.731-0.318l0.001-0.001 0.293-0.293v3.253c0 1.289-1.045 2.333-2.333 2.333v0h-3.253l0.293-0.293c0.196-0.183 0.318-0.443 0.318-0.732 0-0.552-0.448-1-1-1-0.289 0-0.549 0.122-0.731 0.318l-0.001 0.001-2 2c-0.181 0.181-0.292 0.431-0.292 0.707s0.112 0.526 0.292 0.707v0l2 2c0.183 0.196 0.443 0.318 0.732 0.318 0.552 0 1-0.448 1-1 0-0.289-0.122-0.549-0.318-0.731l-0.001-0.001-0.293-0.293h3.253c2.393 0 4.333-1.94 4.333-4.333v0-3.253l0.293 0.293c0.183 0.196 0.443 0.318 0.732 0.318 0.552 0 1-0.448 1-1 0-0.289-0.122-0.549-0.318-0.731l-0.001-0.001-2-2z"></path>
</svg>
