<!-- Generated by IcoMoon.io -->
<svg version="1.1" xmlns="http://www.w3.org/2000/svg" width="32" height="32" viewBox="0 0 32 32">
<title>playing-cards-filled</title>
<path d="M10.91 4.384c0.123-0.45 0.306-0.844 0.545-1.198l-0.009 0.014h-0.25c-1.766 0-3.2 1.432-3.202 3.2l-0.008 8.856 2.925-10.87zM6.4 5.6c0-0.243 0.022-0.48 0.064-0.712l-0.090 0.024c-1.378 0.378-2.374 1.62-2.374 3.094 0 0.294 0.040 0.578 0.114 0.848l-0.005-0.022 2.282 8.542 0.010-11.774zM16.17 3.31c-0.249-0.069-0.534-0.109-0.829-0.109-1.473 0-2.713 0.994-3.088 2.347l-0.005 0.022-4.538 16.88c-0.070 0.249-0.11 0.535-0.11 0.83 0 1.472 0.994 2.711 2.348 3.083l0.022 0.005 8.666 2.32c0.249 0.069 0.534 0.109 0.829 0.109 1.473 0 2.713-0.994 3.088-2.347l0.005-0.023 4.538-16.877c0.070-0.249 0.11-0.535 0.11-0.83 0-1.472-0.994-2.711-2.348-3.083l-0.022-0.005-8.666-2.322zM19.197 11.2c-0.884 0-1.6-0.716-1.6-1.6s0.716-1.6 1.6-1.6v0c0.884 0 1.6 0.716 1.6 1.6s-0.716 1.6-1.6 1.6v0zM17.197 22.4c0 0.884-0.716 1.6-1.6 1.6s-1.6-0.716-1.6-1.6v0c0-0.884 0.716-1.6 1.6-1.6s1.6 0.716 1.6 1.6v0z"></path>
</svg>
