<!-- Generated by IcoMoon.io -->
<svg version="1.1" xmlns="http://www.w3.org/2000/svg" width="32" height="32" viewBox="0 0 32 32">
<title>plug-connected-add-filled</title>
<path d="M28.448 5.248c0.2-0.214 0.322-0.502 0.322-0.818 0-0.663-0.537-1.2-1.2-1.2-0.316 0-0.604 0.123-0.819 0.323l0.001-0.001-3.914 3.912c-1.018-0.702-2.279-1.122-3.638-1.122-1.783 0-3.398 0.723-4.567 1.891l-0.48 0.48c-0.432 0.431-0.699 1.028-0.699 1.686s0.267 1.255 0.699 1.686l3.944 3.942c1.419-1.019 3.192-1.63 5.107-1.63 0.773 0 1.523 0.1 2.238 0.287l-0.061-0.014c0.176-0.56 0.277-1.204 0.277-1.871 0-1.359-0.419-2.62-1.136-3.661l0.014 0.022 3.912-3.914zM12.086 14.154l3.942 3.944c-1.019 1.419-1.63 3.192-1.63 5.107 0 0.773 0.1 1.523 0.287 2.238l-0.014-0.061c-0.56 0.176-1.204 0.277-1.871 0.277-1.359 0-2.62-0.419-3.661-1.136l0.022 0.014-3.914 3.912c-0.214 0.2-0.502 0.322-0.818 0.322-0.663 0-1.2-0.537-1.2-1.2 0-0.316 0.123-0.604 0.323-0.819l-0.001 0.001 3.914-3.914c-0.703-1.019-1.122-2.28-1.122-3.639 0-1.783 0.722-3.397 1.891-4.566l0.48-0.48c0.431-0.432 1.028-0.699 1.686-0.699s1.255 0.267 1.686 0.699v0zM27.2 29.187c-1.124 0.76-2.509 1.213-4 1.213-3.977 0-7.2-3.224-7.2-7.2 0-2.486 1.259-4.677 3.175-5.971l0.026-0.016c1.124-0.76 2.509-1.213 4-1.213 3.977 0 7.2 3.224 7.2 7.2 0 2.486-1.259 4.677-3.175 5.971l-0.026 0.016zM23.766 19.434c-0.145-0.145-0.345-0.235-0.566-0.235-0.442 0-0.8 0.358-0.8 0.8 0 0 0 0.001 0 0.002v-0 2.4h-2.4c-0.442 0-0.8 0.358-0.8 0.8s0.358 0.8 0.8 0.8v0h2.4v2.4c0 0.442 0.358 0.8 0.8 0.8s0.8-0.358 0.8-0.8v0-2.4h2.4c0.442 0 0.8-0.358 0.8-0.8s-0.358-0.8-0.8-0.8v0h-2.4v-2.4c0-0 0-0.001 0-0.001 0-0.221-0.089-0.42-0.234-0.565l0 0z"></path>
</svg>
