<!-- Generated by IcoMoon.io -->
<svg version="1.1" xmlns="http://www.w3.org/2000/svg" width="32" height="32" viewBox="0 0 32 32">
<title>plug-disconnected-filled</title>
<path d="M25.989 7.231c0.797 1.042 1.276 2.364 1.276 3.797 0 1.736-0.704 3.307-1.841 4.445v0l-2.224 2.222c-0.155 0.155-0.369 0.251-0.606 0.251s-0.451-0.096-0.606-0.251v0l-7.678-7.677c-0.155-0.155-0.251-0.369-0.251-0.606s0.096-0.451 0.251-0.606v0l2.223-2.223c1.138-1.138 2.709-1.842 4.446-1.842 1.433 0 2.754 0.48 3.812 1.287l-0.015-0.011 3.479-3.479c0.154-0.149 0.364-0.241 0.596-0.241 0.473 0 0.857 0.384 0.857 0.857 0 0.231-0.092 0.441-0.241 0.595l-3.479 3.48zM14.603 14.030c0.149-0.154 0.241-0.364 0.241-0.596 0-0.473-0.384-0.857-0.857-0.857-0.231 0-0.441 0.092-0.595 0.241l-2.432 2.429-0.939-0.939c-0.155-0.155-0.369-0.251-0.606-0.251s-0.451 0.096-0.606 0.251l-2.223 2.222c-1.138 1.138-1.842 2.709-1.842 4.446 0 1.433 0.48 2.754 1.287 3.812l-0.011-0.015-3.478 3.48c-0.168 0.157-0.273 0.38-0.273 0.627 0 0.473 0.384 0.857 0.857 0.857 0.247 0 0.47-0.105 0.627-0.272l0-0 3.48-3.479c1.042 0.797 2.364 1.276 3.797 1.276 1.736 0 3.307-0.703 4.445-1.841l2.222-2.223c0.155-0.155 0.251-0.369 0.251-0.606s-0.096-0.451-0.251-0.606l-0.945-0.946 2.43-2.429c0.161-0.156 0.261-0.374 0.261-0.616 0-0.473-0.384-0.857-0.857-0.857-0.242 0-0.461 0.1-0.617 0.262l-2.429 2.429-3.368-3.368 2.43-2.43z"></path>
</svg>
