<!-- Generated by IcoMoon.io -->
<svg version="1.1" xmlns="http://www.w3.org/2000/svg" width="32" height="32" viewBox="0 0 32 32">
<title>plug-connected-filled</title>
<path d="M25.986 7.428c1.053 1.355 1.68 3.057 1.68 4.906 0 3.044-1.701 5.692-4.204 7.044-0.865 0.467-1.907 0.179-2.602-0.516l-7.721-7.721c-0.696-0.696-0.984-1.737-0.516-2.602 1.352-2.503 3.999-4.204 7.044-4.204 1.849 0 3.551 0.627 4.906 1.68l3.054-3.054c0.391-0.391 1.024-0.391 1.414 0s0.391 1.024 0 1.414l-3.054 3.054zM4.374 29.040l3.054-3.054c1.355 1.053 3.057 1.68 4.906 1.68 3.044 0 5.692-1.701 7.043-4.204 0.468-0.865 0.179-1.907-0.516-2.602l-7.721-7.721c-0.696-0.696-1.737-0.984-2.602-0.516-2.503 1.352-4.204 3.999-4.204 7.044 0 1.849 0.627 3.551 1.68 4.906l-3.054 3.054c-0.391 0.391-0.391 1.024 0 1.414s1.024 0.391 1.414 0z"></path>
</svg>
