<!-- Generated by IcoMoon.io -->
<svg version="1.1" xmlns="http://www.w3.org/2000/svg" width="32" height="32" viewBox="0 0 32 32">
<title>point-scan-filled</title>
<path d="M13.667 2.667c0.506 0 0.925 0.376 0.991 0.864l0.009 0.136 0.001 6.392c3.803 0.455 6.819 3.472 7.274 7.275l6.392-0c0.552 0 1 0.448 1 1 0 0.506-0.376 0.925-0.864 0.991l-0.136 0.009-6.392 0.001c-0.455 3.802-3.471 6.818-7.273 7.273l-0.001 1.726c0 0.552-0.448 1-1 1-0.506 0-0.925-0.376-0.991-0.864l-0.009-0.136-0-1.726c-3.803-0.455-6.819-3.47-7.274-7.273l-1.726-0.001c-0.552 0-1-0.448-1-1 0-0.506 0.376-0.925 0.864-0.991l0.136-0.009 1.726 0c0.455-3.803 3.471-6.82 7.274-7.275l0-6.392c0-0.552 0.448-1 1-1zM13.667 9.999c-0.338 0-0.672 0.020-1 0.059l-0 7.275-7.274 0c-0.039 0.328-0.059 0.661-0.059 0.999s0.020 0.673 0.060 1.001l7.274-0.001 0 7.274c0.328 0.039 0.662 0.059 1 0.059s0.673-0.020 1.001-0.059l-0.001-7.274 7.274 0.001c0.039-0.328 0.060-0.663 0.060-1.001s-0.020-0.672-0.059-0.999l-7.275-0 0.001-7.275c-0.328-0.039-0.662-0.059-1.001-0.059z"></path>
</svg>
