<!-- Generated by IcoMoon.io -->
<svg version="1.1" xmlns="http://www.w3.org/2000/svg" width="32" height="32" viewBox="0 0 32 32">
<title>point-scan-filled</title>
<path d="M13.667 2.667c0.504 0 0.921 0.373 0.99 0.859l0.001 0.005 0.009 0.136v6.392c3.812 0.474 6.801 3.463 7.272 7.234l0.004 0.041h6.392c0.552 0 1 0.448 1 1 0 0.504-0.373 0.921-0.858 0.99l-0.005 0.001-0.136 0.009h-6.392c-0.475 3.812-3.464 6.801-7.235 7.271l-0.041 0.004v1.727c0 0.003 0 0.007 0 0.010 0 0.552-0.448 1-1 1-0.508 0-0.927-0.379-0.992-0.869l-0.001-0.005-0.008-0.137v-1.727c-3.81-0.475-6.798-3.462-7.269-7.231l-0.004-0.041h-1.727c-0.003 0-0.007 0-0.010 0-0.552 0-1-0.448-1-1 0-0.508 0.379-0.927 0.869-0.991l0.005-0.001 0.136-0.009h1.725c0.475-3.811 3.463-6.8 7.234-7.271l0.041-0.004v-6.392c0-0.552 0.448-1 1-1v0zM13.667 10c-0 0-0.001 0-0.001 0-0.352 0-0.699 0.021-1.040 0.063l0.041-0.004v7.275h-7.275c-0.038 0.3-0.060 0.648-0.060 1s0.022 0.7 0.064 1.041l-0.004-0.041h7.275v7.273c0.3 0.038 0.648 0.060 1 0.060s0.7-0.022 1.041-0.064l-0.041 0.004v-7.273h7.275c0.038-0.3 0.060-0.648 0.060-1s-0.022-0.7-0.064-1.041l0.004 0.041h-7.275v-7.275c-0.298-0.037-0.643-0.059-0.992-0.059-0.003 0-0.005 0-0.008 0h0z"></path>
</svg>
