<!-- Generated by IcoMoon.io -->
<svg version="1.1" xmlns="http://www.w3.org/2000/svg" width="32" height="32" viewBox="0 0 32 32">
<title>poll-filled</title>
<path d="M15.669 2.666c2.026 0 3.669 1.643 3.669 3.669v19.331c0 2.026-1.643 3.669-3.669 3.669s-3.669-1.643-3.669-3.669v-19.331c0-2.026 1.643-3.669 3.669-3.669zM25.003 9.333c2.026 0 3.669 1.643 3.669 3.669v12.665c0 2.026-1.643 3.669-3.669 3.669s-3.669-1.643-3.669-3.669v-12.665c0-2.026 1.643-3.669 3.669-3.669zM6.336 15.999c2.026 0 3.669 1.643 3.669 3.669v5.998c0 2.026-1.643 3.669-3.669 3.669s-3.669-1.643-3.669-3.669v-5.998c0-2.026 1.643-3.669 3.669-3.669z"></path>
</svg>
