<!-- Generated by IcoMoon.io -->
<svg version="1.1" xmlns="http://www.w3.org/2000/svg" width="32" height="32" viewBox="0 0 32 32">
<title>port-hdmi-filled</title>
<path d="M28.547 15.213l-3.76-3.76c-0.248-0.249-0.543-0.447-0.868-0.582s-0.673-0.205-1.025-0.205h-13.787c-0.352 0-0.7 0.070-1.025 0.205s-0.62 0.333-0.868 0.582l-3.76 3.76c-0.249 0.248-0.447 0.543-0.582 0.868s-0.205 0.673-0.205 1.025v1.56c0.002 0.707 0.284 1.384 0.783 1.883s1.177 0.781 1.883 0.783h21.333c0.707-0.002 1.384-0.284 1.883-0.783s0.781-1.177 0.783-1.883v-1.56c-0-0.352-0.070-0.7-0.205-1.025s-0.333-0.62-0.582-0.868zM22.667 16c-0.002 0.265-0.108 0.518-0.295 0.705s-0.44 0.293-0.705 0.295h-11.333c-0.265 0-0.52-0.105-0.707-0.293s-0.293-0.442-0.293-0.707 0.105-0.52 0.293-0.707c0.188-0.188 0.442-0.293 0.707-0.293h11.333c0.265 0.002 0.518 0.108 0.705 0.295s0.293 0.44 0.295 0.705z"></path>
</svg>
