<!-- Generated by IcoMoon.io -->
<svg version="1.1" xmlns="http://www.w3.org/2000/svg" width="32" height="32" viewBox="0 0 32 32">
<title>port-usb-c-filled</title>
<path d="M25.333 16c0.001 0.525-0.102 1.046-0.303 1.532s-0.495 0.927-0.867 1.298c-0.372 0.372-0.813 0.666-1.298 0.867s-1.006 0.304-1.532 0.303h-10.667c-1.061 0-2.078-0.421-2.828-1.172s-1.172-1.767-1.172-2.828c0-1.061 0.421-2.078 1.172-2.828s1.768-1.172 2.828-1.172h10.667c0.525-0.001 1.046 0.102 1.532 0.303s0.927 0.495 1.298 0.867c0.372 0.372 0.666 0.813 0.867 1.298s0.304 1.006 0.303 1.532z"></path>
</svg>
