<!-- Generated by IcoMoon.io -->
<svg version="1.1" xmlns="http://www.w3.org/2000/svg" width="32" height="32" viewBox="0 0 32 32">
<title>port-micro-usb-filled</title>
<path d="M25.333 17.107v0.227c-0.002 0.707-0.284 1.384-0.783 1.883s-1.177 0.781-1.883 0.783h-13.333c-0.707-0.002-1.384-0.284-1.883-0.783s-0.781-1.177-0.783-1.883v-0.227c0-0.352 0.070-0.7 0.205-1.025s0.333-0.62 0.582-0.868l2.427-2.427c0.248-0.249 0.543-0.447 0.868-0.582s0.673-0.205 1.025-0.205h8.453c0.352 0 0.7 0.070 1.025 0.205s0.62 0.333 0.868 0.582l2.427 2.427c0.249 0.248 0.447 0.543 0.582 0.868s0.205 0.673 0.205 1.025z"></path>
</svg>
