<!-- Generated by IcoMoon.io -->
<svg version="1.1" xmlns="http://www.w3.org/2000/svg" width="32" height="32" viewBox="0 0 32 32">
<title>position-to-back-filled</title>
<path d="M8 14.667h1.667c2.761 0 5-2.239 5-5v0-1.667h5c2.393 0 4.333 1.94 4.333 4.333v0 5h-1.667c-2.761 0-5 2.239-5 5v0 1.667h-5c-2.393 0-4.333-1.94-4.333-4.333v0-5zM1.333 5c0-2.025 1.642-3.667 3.667-3.667v0h4.667c2.025 0 3.667 1.642 3.667 3.667v0 4.667c0 2.025-1.642 3.667-3.667 3.667v0h-4.667c-2.025 0-3.667-1.642-3.667-3.667v0-4.667zM5 3.333c-0.92 0-1.667 0.747-1.667 1.667v4.667c0 0.92 0.747 1.667 1.667 1.667h4.667c0.92 0 1.667-0.747 1.667-1.667v-4.667c0-0.92-0.747-1.667-1.667-1.667h-4.667zM18.667 22.333c0-2.025 1.642-3.667 3.667-3.667v0h4.667c2.025 0 3.667 1.642 3.667 3.667v0 4.667c0 2.025-1.642 3.667-3.667 3.667v0h-4.667c-2.025 0-3.667-1.642-3.667-3.667v0-4.667zM22.333 20.667c-0.92 0-1.667 0.747-1.667 1.667v4.667c0 0.92 0.747 1.667 1.667 1.667h4.667c0.92 0 1.667-0.747 1.667-1.667v-4.667c0-0.92-0.747-1.667-1.667-1.667h-4.667z"></path>
</svg>
