<!-- Generated by IcoMoon.io -->
<svg version="1.1" xmlns="http://www.w3.org/2000/svg" width="32" height="32" viewBox="0 0 32 32">
<title>position-to-front-filled</title>
<path d="M1.333 5c0-2.025 1.642-3.667 3.667-3.667h4.667c2.025 0 3.667 1.642 3.667 3.667v1.667h-1c-0.341 0-0.675 0.030-1 0.088v-1.755c0-0.92-0.746-1.667-1.667-1.667h-4.667c-0.92 0-1.667 0.746-1.667 1.667v4.667c0 0.92 0.746 1.667 1.667 1.667h1.755c-0.058 0.325-0.088 0.659-0.088 1v1h-1.667c-2.025 0-3.667-1.642-3.667-3.667v-4.667z"></path>
<path d="M18.667 25.333v1.667c0 2.025 1.642 3.667 3.667 3.667h4.667c2.025 0 3.667-1.642 3.667-3.667v-4.667c0-2.025-1.642-3.667-3.667-3.667h-1.667v1c0 0.341-0.030 0.675-0.088 1h1.755c0.921 0 1.667 0.746 1.667 1.667v4.667c0 0.921-0.746 1.667-1.667 1.667h-4.667c-0.921 0-1.667-0.746-1.667-1.667v-1.755c-0.325 0.058-0.659 0.088-1 0.088h-1z"></path>
<path d="M8 12.333c0-2.393 1.94-4.333 4.333-4.333h7.333c2.393 0 4.333 1.94 4.333 4.333v7.333c0 2.393-1.94 4.333-4.333 4.333h-7.333c-2.393 0-4.333-1.94-4.333-4.333v-7.333z"></path>
</svg>
