<!-- Generated by IcoMoon.io -->
<svg version="1.1" xmlns="http://www.w3.org/2000/svg" width="32" height="32" viewBox="0 0 32 32">
<title>position-forward-filled</title>
<path d="M17.667 22c2.393 0 4.333-1.94 4.333-4.333v-10.667c0-2.393-1.94-4.333-4.333-4.333h-10.667c-2.393 0-4.333 1.94-4.333 4.333v10.667c0 2.393 1.94 4.333 4.333 4.333h10.667z"></path>
<path d="M10 23.333h2v1.667c0 1.289 1.045 2.333 2.333 2.333h10.667c1.289 0 2.333-1.045 2.333-2.333v-10.667c0-1.289-1.045-2.333-2.333-2.333h-1.667v-2h1.667c2.393 0 4.333 1.94 4.333 4.333v10.667c0 2.393-1.94 4.333-4.333 4.333h-10.667c-2.393 0-4.333-1.94-4.333-4.333v-1.667z"></path>
</svg>
