<!-- Generated by IcoMoon.io -->
<svg version="1.1" xmlns="http://www.w3.org/2000/svg" width="32" height="32" viewBox="0 0 32 32">
<title>power-filled</title>
<path d="M10.94 6.458c0.668-0.311 1.461-0.021 1.771 0.646s0.021 1.461-0.646 1.771c-3.266 1.52-5.399 4.798-5.399 8.462 0 5.152 4.179 9.329 9.333 9.329s9.333-4.177 9.333-9.329c0-3.657-2.124-6.929-5.38-8.453-0.667-0.312-0.954-1.106-0.642-1.773s1.106-0.954 1.773-0.642c4.185 1.959 6.916 6.167 6.916 10.868 0 6.625-5.373 11.996-12 11.996s-12-5.37-12-11.996c0-4.711 2.742-8.926 6.94-10.88zM16 2.666c0.684 0 1.247 0.515 1.324 1.178l0.009 0.155v9.335c0 0.736-0.597 1.333-1.333 1.333-0.684 0-1.247-0.515-1.324-1.178l-0.009-0.156v-9.335c0-0.736 0.597-1.333 1.333-1.333z"></path>
</svg>
