<!-- Generated by IcoMoon.io -->
<svg version="1.1" xmlns="http://www.w3.org/2000/svg" width="32" height="32" viewBox="0 0 32 32">
<title>power-filled</title>
<path d="M17.143 3.429c0-0.631-0.512-1.143-1.143-1.143s-1.143 0.512-1.143 1.143v0 10.286c0 0.631 0.512 1.143 1.143 1.143s1.143-0.512 1.143-1.143v0-10.286zM11.886 7.712c0.424-0.173 0.718-0.583 0.718-1.061 0-0.631-0.512-1.143-1.143-1.143-0.178 0-0.346 0.041-0.496 0.113l0.007-0.003c-4.477 1.99-7.543 6.399-7.543 11.523 0 0 0 0.001 0 0.001v-0c0 6.943 5.629 12.571 12.571 12.571s12.571-5.629 12.571-12.571c0-5.157-3.105-9.586-7.543-11.525-0.126-0.052-0.272-0.082-0.425-0.082-0.631 0-1.143 0.512-1.143 1.143 0 0.453 0.264 0.845 0.647 1.030l0.007 0.003c3.663 1.629 6.171 5.236 6.171 9.428 0 0.001 0 0.002 0 0.002v-0c0 5.681-4.605 10.286-10.286 10.286s-10.286-4.605-10.286-10.286v0c0-0.001 0-0.002 0-0.002 0-4.193 2.508-7.8 6.106-9.402l0.065-0.026z"></path>
</svg>
