<!-- Generated by IcoMoon.io -->
<svg version="1.1" xmlns="http://www.w3.org/2000/svg" width="32" height="32" viewBox="0 0 32 32">
<title>premium-person-filled</title>
<path d="M25.109 4.593c-0.243-0.36-0.649-0.593-1.109-0.593-0 0-0 0-0 0l-16.167 0.011c-0.452 0.058-0.828 0.335-1.023 0.719l-0.003 0.008-4 8-0.069 0.167c-0.045 0.128-0.071 0.275-0.071 0.429 0 0.344 0.13 0.657 0.344 0.894l-0.001-0.001 11.976 13.311c0.18 0.211 0.423 0.364 0.701 0.428l0.009 0.002 0.149 0.027c0.046 0.006 0.1 0.009 0.154 0.009 0.412 0 0.78-0.185 1.027-0.476l0.002-0.002 0.347-0.387c-0.025-0.191-0.040-0.411-0.040-0.635 0-0 0-0.001 0-0.002v0-0.137c0-2.041 1.655-3.696 3.696-3.696 0.001 0 0.002 0 0.003 0h0.365l0.003-0.003c-0.866-0.848-1.402-2.029-1.402-3.335 0-2.577 2.089-4.667 4.667-4.667 1.133 0 2.172 0.404 2.98 1.076l-0.008-0.006 1.355-1.507 0.112-0.143c0.144-0.21 0.231-0.47 0.231-0.749 0-0.218-0.052-0.423-0.145-0.605l0.003 0.008-4-8-0.083-0.143zM12.564 14.667h6.871l-3.435 8.456-3.436-8.456zM6.995 14.667h2.691l2.213 5.449-4.904-5.449zM8.824 6.667h2.672l-1.733 5.333h-3.605l2.667-5.333zM14.301 6.667h3.396l1.732 5.333h-6.86l1.732-5.333zM20.503 6.667h2.672l2.667 5.333h-3.605l-1.733-5.333zM28 19.333c0 1.841-1.492 3.333-3.333 3.333s-3.333-1.492-3.333-3.333v0c0-1.841 1.492-3.333 3.333-3.333s3.333 1.492 3.333 3.333v0zM30.667 26.5c0 2.075-1.715 4.167-6 4.167s-6-2.084-6-4.167v-0.137c0-1.307 1.059-2.363 2.364-2.363h7.272c1.307 0 2.364 1.057 2.364 2.363v0.137z"></path>
</svg>
