<!-- Generated by IcoMoon.io -->
<svg version="1.1" xmlns="http://www.w3.org/2000/svg" width="32" height="32" viewBox="0 0 32 32">
<title>premium-filled</title>
<path d="M24 4c0.449 0 0.864 0.225 1.109 0.593l0.084 0.144 4 8c0.218 0.436 0.179 0.951-0.090 1.346l-0.112 0.142-11.965 13.297c-0.239 0.292-0.582 0.45-0.932 0.474-0.083 0.006-0.167 0.004-0.25-0.006l-0.15-0.025c-0.268-0.061-0.52-0.204-0.71-0.43l-11.976-13.311c-0.326-0.362-0.425-0.869-0.271-1.322l0.070-0.167 4-8c0.201-0.402 0.588-0.672 1.026-0.727l0.166-0.010h16zM19.435 14.667h-6.871l3.436 8.456 3.435-8.456zM25.004 14.667h-2.691l-2.215 5.451 4.905-5.451zM9.685 14.667h-2.691l4.904 5.449-2.213-5.449zM11.496 6.667h-2.672l-2.667 5.333h3.605l1.733-5.333zM17.697 6.667h-3.396l-1.732 5.333h6.86l-1.732-5.333zM23.175 6.667h-2.672l1.733 5.333h3.605l-2.667-5.333z"></path>
</svg>
