<!-- Generated by IcoMoon.io -->
<svg version="1.1" xmlns="http://www.w3.org/2000/svg" width="32" height="32" viewBox="0 0 32 32">
<title>premium-person-filled</title>
<path d="M25.109 4.593c-0.245-0.367-0.66-0.593-1.109-0.593l-16.166 0.010c-0.438 0.055-0.825 0.325-1.026 0.727l-4 8-0.070 0.167c-0.154 0.452-0.055 0.959 0.271 1.322l11.976 13.311c0.19 0.225 0.441 0.368 0.71 0.43l0.15 0.025c0.083 0.010 0.166 0.012 0.25 0.006 0.169-0.012 0.336-0.054 0.491-0.128-0.381-0.792-0.585-1.652-0.585-2.535v-0.667c0-1.841 1.492-3.333 3.333-3.333h1.267c-0.985-0.913-1.601-2.218-1.601-3.667 0-2.761 2.239-5 5-5 1.799 0 3.375 0.95 4.256 2.375l0.735-0.816 0.112-0.142c0.269-0.395 0.308-0.91 0.090-1.346l-4-8-0.084-0.144zM12.564 14.667h6.871l-3.435 8.456-3.436-8.456zM6.995 14.667h2.691l2.213 5.449-4.904-5.449zM8.824 6.667h2.672l-1.733 5.333h-3.605l2.667-5.333zM14.301 6.667h3.396l1.732 5.333h-6.86l1.732-5.333zM20.503 6.667h2.672l2.667 5.333h-3.605l-1.733-5.333zM28.667 22.667c1.105 0 2 0.895 2 2v0.667c0 2.629-2.479 5.333-6.667 5.333s-6.667-2.705-6.667-5.333v-0.667c0-1.105 0.895-2 2-2h9.333zM24 14c2.025 0 3.667 1.642 3.667 3.667s-1.642 3.667-3.667 3.667c-2.025 0-3.667-1.642-3.667-3.667s1.642-3.667 3.667-3.667z"></path>
</svg>
