<!-- Generated by IcoMoon.io -->
<svg version="1.1" xmlns="http://www.w3.org/2000/svg" width="32" height="32" viewBox="0 0 32 32">
<title>premium-filled</title>
<path d="M7 4c-0.48 0-0.916 0.274-1.125 0.706l-3.75 7.75c-0.079 0.159-0.125 0.346-0.125 0.544 0 0.299 0.105 0.573 0.28 0.788l-0.002-0.002 12.75 15.75c0.231 0.284 0.58 0.464 0.972 0.464s0.741-0.18 0.97-0.462l0.002-0.002 12.75-15.75c0.173-0.213 0.278-0.487 0.278-0.786 0-0.198-0.046-0.385-0.128-0.552l0.003 0.007-3.75-7.75c-0.207-0.421-0.633-0.706-1.125-0.706h-18zM5.364 11.5l2.42-5h3.688l-1.563 5h-4.545zM5.668 14h4.098l2.868 8.606-6.966-8.606zM12.401 14h7.198l-3.599 10.797-3.599-10.797zM22.234 14h4.098l-6.966 8.606 2.868-8.606zM26.636 11.5h-4.546l-1.563-5h3.688l2.42 5zM19.472 11.5h-6.944l1.563-5h3.818l1.563 5z"></path>
</svg>
