<!-- Generated by IcoMoon.io -->
<svg version="1.1" xmlns="http://www.w3.org/2000/svg" width="32" height="32" viewBox="0 0 32 32">
<title>print-filled</title>
<path d="M24 23.333v1.667c0 1.657-1.343 3-3 3h-10c-1.657 0-3-1.343-3-3v-1.668l-2.333 0.001c-1.657 0-3-1.343-3-3v-7.995c0-2.393 1.94-4.333 4.333-4.333l0.999-0.001 0.001-1.004c0-1.657 1.343-3 3-3h10.003c1.657 0 3 1.343 3 3l-0.001 1.004 1.001 0.001c2.393 0.002 4.331 1.94 4.335 4.332l0.004 7.996c0.003 1.656-1.34 3.001-2.997 3.002l-2.345-0.001zM21 18h-10c-0.552 0-1 0.448-1 1v6c0 0.552 0.448 1 1 1h10c0.552 0 1-0.448 1-1v-6c0-0.552-0.448-1-1-1zM21.003 6h-10.003c-0.552 0-1 0.448-1 1l-0.001 1.004h12.004l0.001-1.004c0-0.552-0.448-1-1-1z"></path>
</svg>
