<!-- Generated by IcoMoon.io -->
<svg version="1.1" xmlns="http://www.w3.org/2000/svg" width="32" height="32" viewBox="0 0 32 32">
<title>print-filled</title>
<path d="M21.167 5.333c0 0 0 0 0 0 1.153 0 2.096 0.901 2.163 2.038l0 0.006 0.003 0.123v1.833h1.167c1.933 0 3.5 1.567 3.5 3.5v9c0 1.197-0.97 2.167-2.167 2.167v0h-2.5v1.167c0 1.197-0.97 2.167-2.167 2.167v0h-10.333c-1.197 0-2.167-0.97-2.167-2.167v0-1.167h-2.5c-1.197 0-2.167-0.97-2.167-2.167v0-9c0-1.933 1.567-3.5 3.5-3.5h1.167v-1.833c0-0 0-0 0-0 0-1.153 0.901-2.096 2.038-2.163l0.006-0 0.123-0.003h10.333zM10.333 25.167c0 0.276 0.224 0.5 0.5 0.5h10.333c0.276 0 0.5-0.224 0.5-0.5v0-5.667c0-0.276-0.224-0.5-0.5-0.5v0h-10.333c-0.276 0-0.5 0.224-0.5 0.5v0 5.667zM21.167 7h-10.333c-0.252 0-0.461 0.187-0.495 0.429l-0 0.003-0.005 0.068v1.833h11.333v-1.833c0-0.252-0.187-0.461-0.429-0.495l-0.003-0-0.068-0.005z"></path>
</svg>
