<!-- Generated by IcoMoon.io -->
<svg version="1.1" xmlns="http://www.w3.org/2000/svg" width="32" height="32" viewBox="0 0 32 32">
<title>print-add-filled</title>
<path d="M30.667 8.667c0-4.050-3.283-7.333-7.333-7.333s-7.333 3.283-7.333 7.333v0c0 4.050 3.283 7.333 7.333 7.333s7.333-3.283 7.333-7.333v0zM24 9.333l0.001 3.339c0 0.368-0.298 0.667-0.667 0.667s-0.667-0.298-0.667-0.667v0-3.339h-3.34c-0.368 0-0.667-0.298-0.667-0.667s0.298-0.667 0.667-0.667v0h3.339v-3.333c0-0.368 0.298-0.667 0.667-0.667s0.667 0.298 0.667 0.667v0 3.333h3.329c0.368 0 0.667 0.298 0.667 0.667s-0.298 0.667-0.667 0.667v0h-3.329zM23.333 17.333c2.332 0 4.448-0.92 6.005-2.419l0.004 6.752c0 0 0 0.001 0 0.001 0 1.656-1.342 2.998-2.997 2.999h-2.345v1.667c0 1.657-1.343 3-3 3v0h-10c-1.657 0-3-1.343-3-3v0-1.668l-2.333 0.001c-1.657 0-3-1.343-3-3v0-7.995c0-2.393 1.94-4.333 4.333-4.333v0l0.999-0.001 0.001-1.004c0-1.657 1.343-3 3-3v0h4.331c-0.249 0.577-0.445 1.25-0.556 1.951l-0.006 0.049h-3.768c-0.552 0-1 0.448-1 1v0l-0.001 1.004h4.693c0.359 4.489 4.090 7.996 8.641 7.996 0 0 0 0 0.001 0h-0zM22 20.333c0-0.552-0.448-1-1-1v0h-10c-0.552 0-1 0.448-1 1v0 6c0 0.552 0.448 1 1 1h10c0.552 0 1-0.448 1-1v0-6z"></path>
</svg>
