<!-- Generated by IcoMoon.io -->
<svg version="1.1" xmlns="http://www.w3.org/2000/svg" width="32" height="32" viewBox="0 0 32 32">
<title>production-checkmark-filled</title>
<path d="M8.333 4.667c-1.289 0-2.333 1.045-2.333 2.333v3.333c0 1.289 1.045 2.333 2.333 2.333h3.333c1.289 0 2.333-1.045 2.333-2.333v-3.333c0-1.289-1.045-2.333-2.333-2.333h-3.333zM18 7v3.333c0 1.289 1.045 2.333 2.333 2.333h3.333c1.289 0 2.333-1.045 2.333-2.333v-3.333c0-1.289-1.045-2.333-2.333-2.333h-3.333c-1.289 0-2.333 1.045-2.333 2.333zM20.333 6.667h3.333c0.184 0 0.333 0.149 0.333 0.333v3.333c0 0.184-0.149 0.333-0.333 0.333h-3.333c-0.184 0-0.333-0.149-0.333-0.333v-3.333c0-0.184 0.149-0.333 0.333-0.333zM8.667 15.333c-3.314 0-6 2.686-6 6s2.686 6 6 6h6.976c-0.624-1.197-0.976-2.557-0.976-4 0-0.167 0.005-0.332 0.014-0.497-0.417-0.367-0.681-0.904-0.681-1.503 0-0.976 0.7-1.789 1.625-1.965 0.932-1.808 2.481-3.246 4.369-4.035h-11.327zM9.333 23.333c-1.105 0-2-0.895-2-2s0.895-2 2-2c1.105 0 2 0.895 2 2s-0.895 2-2 2zM30.667 23.333c0 4.050-3.283 7.333-7.333 7.333s-7.333-3.283-7.333-7.333c0-4.050 3.283-7.333 7.333-7.333s7.333 3.283 7.333 7.333zM27.805 20.195c-0.26-0.26-0.683-0.26-0.943 0l-4.862 4.862-2.195-2.195c-0.26-0.26-0.683-0.26-0.943 0s-0.26 0.683 0 0.943l2.667 2.667c0.26 0.26 0.683 0.26 0.943 0l5.333-5.333c0.26-0.26 0.26-0.683 0-0.943z"></path>
</svg>
