<!-- Generated by IcoMoon.io -->
<svg version="1.1" xmlns="http://www.w3.org/2000/svg" width="32" height="32" viewBox="0 0 32 32">
<title>production-checkmark-filled</title>
<path d="M8.333 4.667c-1.289 0-2.333 1.045-2.333 2.333v0 3.333c0 1.288 1.045 2.333 2.333 2.333h3.333c1.289 0 2.333-1.045 2.333-2.333v0-3.333c0-1.289-1.045-2.333-2.333-2.333v0h-3.333zM18 7v3.333c0 1.288 1.045 2.333 2.333 2.333h3.333c1.289 0 2.333-1.045 2.333-2.333v0-3.333c0-1.289-1.045-2.333-2.333-2.333v0h-3.333c-1.289 0-2.333 1.045-2.333 2.333v0zM20.333 6.667h3.333c0.184 0 0.333 0.149 0.333 0.333v0 3.333c0 0.184-0.149 0.333-0.333 0.333v0h-3.333c-0.184 0-0.333-0.149-0.333-0.333v0-3.333c0-0.184 0.149-0.333 0.333-0.333v0zM8.667 15.333c-3.314 0-6 2.686-6 6s2.686 6 6 6v0h6.976c-0.615-1.157-0.976-2.53-0.976-3.987 0-0.179 0.005-0.358 0.016-0.534l-0.001 0.024c-0.418-0.368-0.681-0.905-0.681-1.503 0-0.972 0.693-1.782 1.612-1.962l0.013-0.002c0.95-1.815 2.467-3.224 4.313-4.013l0.057-0.022h-11.328zM9.333 23.333c-1.105 0-2-0.895-2-2s0.895-2 2-2v0c1.105 0 2 0.895 2 2s-0.895 2-2 2v0zM30.667 23.333c0 4.050-3.283 7.333-7.333 7.333s-7.333-3.283-7.333-7.333v0c0-4.050 3.283-7.333 7.333-7.333s7.333 3.283 7.333 7.333v0zM27.805 20.195c-0.121-0.121-0.288-0.196-0.472-0.196s-0.351 0.075-0.472 0.196v0l-4.861 4.863-2.195-2.196c-0.121-0.121-0.288-0.195-0.472-0.195-0.369 0-0.668 0.299-0.668 0.668 0 0.184 0.075 0.351 0.195 0.472l2.667 2.667c0.121 0.121 0.288 0.196 0.472 0.196s0.351-0.075 0.472-0.196v0l5.333-5.333c0.121-0.121 0.196-0.288 0.196-0.472s-0.075-0.351-0.196-0.472v0z"></path>
</svg>
