<!-- Generated by IcoMoon.io -->
<svg version="1.1" xmlns="http://www.w3.org/2000/svg" width="32" height="32" viewBox="0 0 32 32">
<title>production-filled</title>
<path d="M6 7c0-1.289 1.045-2.333 2.333-2.333h3.333c1.289 0 2.333 1.045 2.333 2.333v3.333c0 1.289-1.045 2.333-2.333 2.333h-3.333c-1.289 0-2.333-1.045-2.333-2.333v-3.333zM20.333 4.667c-1.289 0-2.333 1.045-2.333 2.333v3.333c0 1.289 1.045 2.333 2.333 2.333h3.333c1.289 0 2.333-1.045 2.333-2.333v-3.333c0-1.289-1.045-2.333-2.333-2.333h-3.333zM20 7c0-0.184 0.149-0.333 0.333-0.333h3.333c0.184 0 0.333 0.149 0.333 0.333v3.333c0 0.184-0.149 0.333-0.333 0.333h-3.333c-0.184 0-0.333-0.149-0.333-0.333v-3.333zM2.667 21.333c0-3.314 2.686-6 6-6h14.667c3.314 0 6 2.686 6 6s-2.686 6-6 6h-14.667c-3.314 0-6-2.686-6-6zM11.333 21.333c0-1.105-0.895-2-2-2s-2 0.895-2 2c0 1.105 0.895 2 2 2s2-0.895 2-2zM18 21.333c0-1.105-0.895-2-2-2s-2 0.895-2 2c0 1.105 0.895 2 2 2s2-0.895 2-2zM22.667 23.333c1.105 0 2-0.895 2-2s-0.895-2-2-2c-1.105 0-2 0.895-2 2s0.895 2 2 2z"></path>
</svg>
