<!-- Generated by IcoMoon.io -->
<svg version="1.1" xmlns="http://www.w3.org/2000/svg" width="32" height="32" viewBox="0 0 32 32">
<title>prohibited-filled</title>
<path d="M16 3.333c3.412 0 6.509 1.349 8.786 3.542 0.133 0.093 0.245 0.205 0.335 0.334l0.003 0.004c2.192 2.268 3.543 5.361 3.543 8.77 0 0.006 0 0.012 0 0.017v-0.001c0 6.995-5.671 12.667-12.667 12.667s-12.667-5.671-12.667-12.667 5.671-12.667 12.667-12.667zM23.951 9.935l-14.017 14.017c1.657 1.278 3.763 2.049 6.049 2.049 0.006 0 0.011 0 0.017 0h-0.001c5.523 0 10-4.477 10-10 0-2.189-0.703-4.215-1.897-5.861l-0.151-0.204zM16 6c-5.523 0-10 4.477-10 10 0 2.28 0.763 4.383 2.049 6.065l14.017-14.017c-1.657-1.278-3.763-2.049-6.049-2.049-0.006 0-0.011 0-0.017 0h0.001z"></path>
</svg>
