<!-- Generated by IcoMoon.io -->
<svg version="1.1" xmlns="http://www.w3.org/2000/svg" width="32" height="32" viewBox="0 0 32 32">
<title>prohibited-filled</title>
<path d="M16 2.667c7.364 0 13.333 5.97 13.333 13.333s-5.97 13.333-13.333 13.333c-7.364 0-13.333-5.97-13.333-13.333s5.97-13.333 13.333-13.333zM24.151 10.205l-13.946 13.946c1.635 1.164 3.635 1.849 5.795 1.849 5.523 0 10-4.477 10-10 0-2.16-0.685-4.16-1.849-5.795zM16 6c-5.523 0-10 4.477-10 10 0 2.16 0.685 4.16 1.849 5.795l13.946-13.946c-1.635-1.164-3.635-1.849-5.795-1.849z"></path>
</svg>
