<!-- Generated by IcoMoon.io -->
<svg version="1.1" xmlns="http://www.w3.org/2000/svg" width="32" height="32" viewBox="0 0 32 32">
<title>prohibited-multiple-filled</title>
<path d="M14.333 26c6.443 0 11.667-5.223 11.667-11.667s-5.223-11.667-11.667-11.667c-6.443 0-11.667 5.223-11.667 11.667s5.223 11.667 11.667 11.667zM14.333 23.333c-2.004 0-3.856-0.655-5.351-1.763l12.588-12.588c1.108 1.496 1.763 3.347 1.763 5.351 0 4.971-4.029 9-9 9zM19.685 7.096l-12.588 12.588c-1.108-1.496-1.763-3.347-1.763-5.351 0-4.971 4.029-9 9-9 2.004 0 3.855 0.655 5.351 1.763zM27.333 14.333c0 7.18-5.82 13-13 13-1.422 0-2.79-0.228-4.071-0.65 2.014 1.656 4.593 2.65 7.404 2.65 6.443 0 11.667-5.223 11.667-11.667 0-2.811-0.994-5.39-2.65-7.404 0.422 1.28 0.65 2.649 0.65 4.071z"></path>
</svg>
