<!-- Generated by IcoMoon.io -->
<svg version="1.1" xmlns="http://www.w3.org/2000/svg" width="32" height="32" viewBox="0 0 32 32">
<title>prohibited-multiple-filled</title>
<path d="M14.333 26c6.443 0 11.667-5.223 11.667-11.667s-5.223-11.667-11.667-11.667v0c-6.443 0-11.667 5.223-11.667 11.667s5.223 11.667 11.667 11.667v0zM14.333 23.333c-0.005 0-0.010 0-0.015 0-2.010 0-3.865-0.662-5.36-1.779l0.023 0.017 12.589-12.589c1.102 1.476 1.764 3.337 1.764 5.352 0 4.971-4.029 9-9 9-0.001 0-0.001 0-0.002 0h0zM19.685 7.096l-12.589 12.589c-1.102-1.476-1.765-3.337-1.765-5.353 0-4.971 4.029-9 9-9 2.016 0 3.877 0.663 5.377 1.782l-0.024-0.017zM27.333 14.333c0 7.18-5.82 13-13 13v0c-0.003 0-0.007 0-0.011 0-1.452 0-2.848-0.238-4.151-0.677l0.092 0.027c1.998 1.651 4.585 2.652 7.406 2.652 6.443 0 11.667-5.223 11.667-11.667 0-2.822-1.002-5.409-2.669-7.427l0.016 0.020c0.413 1.212 0.651 2.608 0.651 4.059 0 0.005 0 0.009 0 0.014v-0.001z"></path>
</svg>
