<!-- Generated by IcoMoon.io -->
<svg version="1.1" xmlns="http://www.w3.org/2000/svg" width="32" height="32" viewBox="0 0 32 32">
<title>projection-screen-dismiss-filled</title>
<path d="M30.667 8.667c0 4.050-3.283 7.333-7.333 7.333s-7.333-3.283-7.333-7.333c0-4.050 3.283-7.333 7.333-7.333s7.333 3.283 7.333 7.333zM21.138 5.529c-0.26-0.26-0.683-0.26-0.943 0s-0.26 0.682 0 0.943l2.195 2.195-2.195 2.195c-0.26 0.26-0.26 0.682 0 0.943s0.683 0.26 0.943 0l2.195-2.195 2.195 2.195c0.26 0.26 0.683 0.26 0.943 0s0.26-0.682 0-0.943l-2.195-2.195 2.195-2.195c0.26-0.26 0.26-0.682 0-0.943s-0.683-0.26-0.943 0l-2.195 2.195-2.195-2.195zM23.333 17.333c1.718 0 3.32-0.5 4.667-1.362v1.696c0 2.761-2.239 5-5 5h-6v3.333h4.667c0.552 0 1 0.448 1 1s-0.448 1-1 1h-11.333c-0.552 0-1-0.448-1-1s0.448-1 1-1h4.667v-3.333h-6c-2.761 0-5-2.239-5-5v-9.78c-0.777-0.275-1.333-1.015-1.333-1.886 0-1.105 0.895-2 2-2h11.362c-0.862 1.347-1.362 2.948-1.362 4.667 0 4.787 3.88 8.667 8.667 8.667z"></path>
</svg>
