<!-- Generated by IcoMoon.io -->
<svg version="1.1" xmlns="http://www.w3.org/2000/svg" width="32" height="32" viewBox="0 0 32 32">
<title>projection-screen-dismiss-filled</title>
<path d="M30.857 8.571c0 4.103-3.326 7.429-7.429 7.429s-7.429-3.326-7.429-7.429v0c0-4.103 3.326-7.429 7.429-7.429s7.429 3.326 7.429 7.429v0zM20.405 4.738c-0.104-0.104-0.247-0.168-0.405-0.168-0.316 0-0.572 0.256-0.572 0.572 0 0.158 0.064 0.301 0.168 0.405l3.025 3.024-3.025 3.024c-0.104 0.104-0.168 0.247-0.168 0.405 0 0.316 0.256 0.572 0.572 0.572 0.158 0 0.301-0.064 0.405-0.168l3.024-3.025 3.024 3.025c0.104 0.104 0.247 0.168 0.405 0.168 0.316 0 0.572-0.256 0.572-0.572 0-0.158-0.064-0.301-0.168-0.405l-3.025-3.024 3.025-3.024c0.104-0.104 0.168-0.247 0.168-0.405 0-0.316-0.256-0.572-0.572-0.572-0.158 0-0.301 0.064-0.405 0.168l-3.024 3.025-3.024-3.025zM23.429 17.143c0.004 0 0.008 0 0.013 0 1.935 0 3.72-0.644 5.151-1.73l-0.021 0.015v3.143c0 2.683-2.175 4.857-4.857 4.857v0h-6.857v3.429h5.143c0.473 0 0.857 0.384 0.857 0.857s-0.384 0.857-0.857 0.857v0h-12c-0.473 0-0.857-0.384-0.857-0.857s0.384-0.857 0.857-0.857v0h5.143v-3.429h-6.857c-2.683 0-4.857-2.175-4.857-4.857v0-10.878c-0.688-0.403-1.143-1.138-1.143-1.979 0-1.262 1.023-2.286 2.286-2.286h12c-1.070 1.415-1.714 3.204-1.714 5.143 0 4.734 3.838 8.571 8.571 8.571v0z"></path>
</svg>
