<!-- Generated by IcoMoon.io -->
<svg version="1.1" xmlns="http://www.w3.org/2000/svg" width="32" height="32" viewBox="0 0 32 32">
<title>protocol-handler-filled</title>
<path d="M17.976 23.643l-1.033-1.033 3.309-3.309c0.845-0.845 1.367-2.011 1.367-3.3s-0.522-2.455-1.367-3.3l-3.309-3.309 1.033-1.035c0.603-0.603 1.436-0.976 2.357-0.976s1.753 0.373 2.357 0.976l5.287 5.287c0.603 0.603 0.976 1.436 0.976 2.357s-0.373 1.754-0.976 2.357l-5.287 5.287c-0.603 0.603-1.436 0.976-2.357 0.976s-1.753-0.373-2.357-0.976v0zM19.309 18.356c0.603-0.603 0.976-1.436 0.976-2.357s-0.373-1.754-0.976-2.357l-5.287-5.287c-0.603-0.603-1.436-0.976-2.357-0.976s-1.754 0.373-2.357 0.976l-5.287 5.287c-0.603 0.603-0.976 1.436-0.976 2.357s0.373 1.753 0.976 2.357l5.287 5.287c0.603 0.603 1.436 0.976 2.357 0.976s1.754-0.373 2.357-0.976l5.287-5.287z"></path>
</svg>
