<!-- Generated by IcoMoon.io -->
<svg version="1.1" xmlns="http://www.w3.org/2000/svg" width="32" height="32" viewBox="0 0 32 32">
<title>pulse-square-filled</title>
<path d="M24.999 4c1.657 0 3 1.343 3 3v0 18.003c0 1.657-1.343 3-3 3v0h-17.999c-1.657 0-3-1.343-3-3v-18.003c0-1.657 1.343-3 3-3v0h17.999zM13.083 10.6l-2.076 4.733h-2.007c-0.552 0-1 0.448-1 1s0.448 1 1 1v0h2.66c0 0 0 0 0.001 0 0.407 0 0.756-0.243 0.913-0.591l0.003-0.006 1.38-3.149 3.116 7.779c0.152 0.371 0.51 0.628 0.928 0.628 0.389 0 0.726-0.222 0.892-0.547l0.003-0.006 2.056-4.107h2.049c0.552 0 1-0.448 1-1s-0.448-1-1-1v0h-2.667c-0.389 0-0.725 0.222-0.891 0.546l-0.003 0.006-1.339 2.671-3.175-7.928c-0.152-0.371-0.51-0.629-0.928-0.629-0.407 0-0.757 0.243-0.913 0.591l-0.003 0.006z"></path>
</svg>
