<!-- Generated by IcoMoon.io -->
<svg version="1.1" xmlns="http://www.w3.org/2000/svg" width="32" height="32" viewBox="0 0 32 32">
<title>pulse-filled</title>
<path d="M11.53 5c0.557 0.014 1.023 0.39 1.171 0.901l0.002 0.009 4.354 15.438 3.25-10.468c0.163-0.513 0.636-0.879 1.194-0.879 0.502 0 0.936 0.296 1.134 0.724l0.003 0.008 2.167 4.767h2.945c0.69 0 1.25 0.56 1.25 1.25s-0.56 1.25-1.25 1.25v0h-3.75c-0.503-0-0.936-0.297-1.135-0.725l-0.003-0.008-1.141-2.51-3.527 11.364c-0.163 0.514-0.636 0.879-1.194 0.879-0.57 0-1.050-0.381-1.201-0.902l-0.002-0.009-4.397-15.587-2.214 6.643c-0.171 0.501-0.637 0.855-1.186 0.855-0 0-0 0-0 0h-3.75c-0.69 0-1.25-0.56-1.25-1.25s0.56-1.25 1.25-1.25v0h2.849l3.215-9.645c0.17-0.501 0.637-0.855 1.186-0.855 0.011 0 0.021 0 0.031 0l-0.002-0z"></path>
</svg>
