<!-- Generated by IcoMoon.io -->
<svg version="1.1" xmlns="http://www.w3.org/2000/svg" width="32" height="32" viewBox="0 0 32 32">
<title>puzzle-piece-filled</title>
<path d="M17.333 2.667c1.819 0 3.293 1.474 3.293 3.293v0l-0.001 0.707h4.708c0.736 0 1.333 0.597 1.333 1.333v0l-0.001 4.665-2.040 0.001c-1.742 0-3.168 1.353-3.285 3.066l-0.001 0.010-0.007 0.217v0.080c0 0 0 0 0 0 0 1.742 1.353 3.169 3.066 3.286l0.010 0.001 0.217 0.007 2.039-0.001 0.001 4.672c0 0.736-0.597 1.333-1.333 1.333v0l-4.708-0.001v0.704c0 0.020 0.001 0.043 0.001 0.066 0 1.819-1.474 3.293-3.293 3.293s-3.293-1.474-3.293-3.293c0-0.023 0-0.047 0.001-0.070l-0 0.003v-0.704h-4.707c-0.736 0-1.333-0.597-1.333-1.333v0l-0.001-4.708h-0.707c-1.819 0-3.293-1.474-3.293-3.293s1.474-3.293 3.293-3.293h0.708v-4.708c0-0.736 0.597-1.333 1.333-1.333v0h4.707v-0.707c0-1.819 1.474-3.293 3.293-3.293v0z"></path>
</svg>
