<!-- Generated by IcoMoon.io -->
<svg version="1.1" xmlns="http://www.w3.org/2000/svg" width="32" height="32" viewBox="0 0 32 32">
<title>puzzle-piece-shield-filled</title>
<path d="M8 24.090v-3.747c0.283 0.12 0.574 0.23 0.872 0.336 0.472 0.163 0.984 0.163 1.456 0 2.291-0.797 4.141-2.054 5.408-3.819 1.272-1.765 1.864-3.912 1.864-6.325v-4.078l-0.029-0.288-0.014-0.077c-0.205-1.043-1.11-1.819-2.196-1.824h-0.001c-0.048 0-0.096 0-0.144-0.003 0.588-0.655 1.438-1.065 2.384-1.065 1.767 0 3.2 1.433 3.2 3.2 0 0 0 0.001 0 0.001v-0l-0.002 0.090h4.802c0.884 0 1.6 0.716 1.6 1.6v0l-0.002 4.71h-1.598c-0 0-0.001 0-0.001 0-1.683 0-3.062 1.299-3.19 2.949l-0.001 0.011-0.008 0.24c0 0 0 0.001 0 0.001 0 1.683 1.299 3.062 2.949 3.19l0.011 0.001 0.24 0.008 1.598-0.002 0.002 4.891c0 0.884-0.716 1.6-1.6 1.6v0h-4.805l-0.003 0.149c-0.116 1.672-1.501 2.984-3.193 2.984-1.743 0-3.161-1.394-3.199-3.128l-0-0.004h-4.8c-0.884 0-1.6-0.716-1.6-1.6v0zM12.8 5.357c0.746 0.324 1.614 0.512 2.527 0.512 0.012 0 0.023-0 0.035-0h-0.002c0.309 0 0.568 0.227 0.627 0.531l0.013 0.134v4.002c0 4.291-2.101 7.21-6.198 8.632-0.060 0.021-0.129 0.034-0.202 0.034s-0.142-0.012-0.206-0.035l0.004 0.001c-1.146-0.389-2.14-0.92-3.028-1.586l0.028 0.020c-0.605-0.462-1.126-0.989-1.567-1.579l-0.015-0.021c-1.002-1.36-1.542-3.045-1.61-5.040l-0.006-0.427v-4c0-0.368 0.288-0.667 0.64-0.667 1.957 0 3.717-0.816 5.309-2.472 0.114-0.12 0.275-0.195 0.453-0.195s0.339 0.075 0.453 0.195l0 0c0.864 0.901 1.776 1.552 2.746 1.96z"></path>
</svg>
