<!-- Generated by IcoMoon.io -->
<svg version="1.1" xmlns="http://www.w3.org/2000/svg" width="32" height="32" viewBox="0 0 32 32">
<title>qr-code-filled</title>
<path d="M10.667 8h-2.667v2.667h2.667v-2.667z"></path>
<path d="M4 7.333c0-1.841 1.492-3.333 3.333-3.333h4c1.841 0 3.333 1.492 3.333 3.333v4c0 1.841-1.492 3.333-3.333 3.333h-4c-1.841 0-3.333-1.492-3.333-3.333v-4zM7.333 6.667c-0.368 0-0.667 0.298-0.667 0.667v4c0 0.368 0.298 0.667 0.667 0.667h4c0.368 0 0.667-0.298 0.667-0.667v-4c0-0.368-0.298-0.667-0.667-0.667h-4z"></path>
<path d="M8 21.333h2.667v2.667h-2.667v-2.667z"></path>
<path d="M4 20.667c0-1.841 1.492-3.333 3.333-3.333h4c1.841 0 3.333 1.492 3.333 3.333v4c0 1.841-1.492 3.333-3.333 3.333h-4c-1.841 0-3.333-1.492-3.333-3.333v-4zM7.333 20c-0.368 0-0.667 0.299-0.667 0.667v4c0 0.368 0.298 0.667 0.667 0.667h4c0.368 0 0.667-0.299 0.667-0.667v-4c0-0.368-0.298-0.667-0.667-0.667h-4z"></path>
<path d="M24 8h-2.667v2.667h2.667v-2.667z"></path>
<path d="M20.667 4c-1.841 0-3.333 1.492-3.333 3.333v4c0 1.841 1.492 3.333 3.333 3.333h4c1.841 0 3.333-1.492 3.333-3.333v-4c0-1.841-1.492-3.333-3.333-3.333h-4zM20 7.333c0-0.368 0.299-0.667 0.667-0.667h4c0.368 0 0.667 0.298 0.667 0.667v4c0 0.368-0.299 0.667-0.667 0.667h-4c-0.368 0-0.667-0.298-0.667-0.667v-4z"></path>
<path d="M17.333 17.333h3.667v3.667h-3.667v-3.667z"></path>
<path d="M24.333 21h-3.333v3.333h-3.667v3.667h3.667v-3.667h3.333v3.667h3.667v-3.667h-3.667v-3.333z"></path>
<path d="M24.333 21v-3.667h3.667v3.667h-3.667z"></path>
</svg>
