<!-- Generated by IcoMoon.io -->
<svg version="1.1" xmlns="http://www.w3.org/2000/svg" width="32" height="32" viewBox="0 0 32 32">
<title>question-circle-filled</title>
<path d="M16 2.667c7.364 0 13.333 5.971 13.333 13.333s-5.969 13.333-13.333 13.333c-7.364 0-13.333-5.971-13.333-13.333s5.969-13.333 13.333-13.333zM16 20.667c-0.736 0-1.333 0.597-1.333 1.333s0.597 1.333 1.333 1.333c0.736 0 1.333-0.597 1.333-1.333s-0.597-1.333-1.333-1.333zM16 9c-2.025 0-3.667 1.642-3.667 3.667 0 0.552 0.448 1 1 1 0.506 0 0.925-0.376 0.991-0.864l0.009-0.136c0-0.92 0.746-1.667 1.667-1.667s1.667 0.746 1.667 1.667c0 0.718-0.18 1.074-0.86 1.776l-0.181 0.183c-1.171 1.171-1.626 1.93-1.626 3.374 0 0.552 0.448 1 1 1s1-0.448 1-1c0-0.718 0.18-1.074 0.86-1.776l0.181-0.183c1.171-1.171 1.626-1.93 1.626-3.374 0-2.025-1.642-3.667-3.667-3.667z"></path>
</svg>
