<!-- Generated by IcoMoon.io -->
<svg version="1.1" xmlns="http://www.w3.org/2000/svg" width="32" height="32" viewBox="0 0 32 32">
<title>quiz-new-filled</title>
<path d="M11.763 12.679h2.473l-1.237-2.996-1.236 2.996zM7.5 4c-1.933 0-3.5 1.567-3.5 3.5v0 17c0 1.933 1.567 3.5 3.5 3.5h8.846c-0.855-1.316-1.363-2.925-1.363-4.653 0-0.005 0-0.009 0-0.014v0.001c0-1.056 0.189-2.067 0.535-3.003h-8.018c-0.46 0-0.833-0.373-0.833-0.833s0.373-0.833 0.833-0.833v0h8.847c1.563-2.419 4.246-3.997 7.298-3.997 0.002 0 0.004 0 0.005 0h-0c1.585 0 3.071 0.426 4.35 1.169v-8.336c0-1.933-1.567-3.5-3.5-3.5h-17zM6.667 23.5c0-0.46 0.373-0.833 0.833-0.833h5.339c0.46 0 0.833 0.373 0.833 0.833s-0.373 0.833-0.833 0.833v0h-5.339c-0.46 0-0.833-0.373-0.833-0.833zM12.999 6.665c0.337 0 0.641 0.203 0.77 0.515l3.168 7.671c0.035 0.089 0.055 0.191 0.055 0.299 0 0.46-0.373 0.833-0.833 0.833-0.338 0-0.629-0.202-0.76-0.491l-0.002-0.005-0.472-1.142h-3.85l-0.471 1.142c-0.124 0.315-0.425 0.534-0.778 0.534-0.46 0-0.833-0.373-0.833-0.833 0-0.122 0.026-0.238 0.073-0.342l-0.002 0.005 3.165-7.671c0.128-0.305 0.425-0.515 0.77-0.515 0 0 0 0 0 0h-0zM21.165 6.665c0.46 0 0.833 0.373 0.833 0.833v1.835h1.835c0.46 0 0.833 0.373 0.833 0.833s-0.373 0.833-0.833 0.833v0h-1.835v1.832c0 0.46-0.373 0.833-0.833 0.833s-0.833-0.373-0.833-0.833v0-1.832h-1.832c-0.46 0-0.833-0.373-0.833-0.833s0.373-0.833 0.833-0.833v0h1.832v-1.835c0-0.46 0.373-0.833 0.833-0.833zM30.983 23.333c0 4.050-3.283 7.333-7.333 7.333s-7.333-3.283-7.333-7.333 3.283-7.333 7.333-7.333 7.333 3.283 7.333 7.333zM24.317 18.667c0-0.368-0.298-0.667-0.667-0.667s-0.667 0.298-0.667 0.667v0 4h-4c-0.368 0-0.667 0.298-0.667 0.667s0.298 0.667 0.667 0.667v0h4v4c0 0.368 0.298 0.667 0.667 0.667s0.667-0.298 0.667-0.667v0-4h4c0.368 0 0.667-0.298 0.667-0.667s-0.298-0.667-0.667-0.667v0h-4v-4z"></path>
</svg>
