<!-- Generated by IcoMoon.io -->
<svg version="1.1" xmlns="http://www.w3.org/2000/svg" width="32" height="32" viewBox="0 0 32 32">
<title>quiz-new-filled</title>
<path d="M14.023 11.997l-0.691-1.691-0.691 1.691h1.382z"></path>
<path d="M7.667 4c-2.025 0-3.667 1.642-3.667 3.667v16.667c0 2.025 1.642 3.667 3.667 3.667h8.362c-0.862-1.347-1.362-2.949-1.362-4.667 0-1.181 0.236-2.307 0.664-3.333h-7.664c-0.552 0-1-0.448-1-1s0.448-1 1-1h8.835c1.586-2.029 4.057-3.333 6.832-3.333 1.718 0 3.32 0.5 4.667 1.362v-8.362c0-2.025-1.642-3.667-3.667-3.667h-16.667zM12.333 24.667h-4.666c-0.552 0-1-0.448-1-1s0.448-1 1-1h4.666c0.552 0 1 0.448 1 1s-0.448 1-1 1zM14.259 7.285l2.997 7.337c0.209 0.511-0.036 1.095-0.548 1.304s-1.095-0.036-1.304-0.548l-0.564-1.381h-3.017l-0.565 1.381c-0.209 0.511-0.793 0.756-1.304 0.547s-0.756-0.793-0.547-1.304l3-7.337c0.154-0.376 0.52-0.622 0.926-0.622s0.772 0.246 0.925 0.622zM22 7.663v1.667h1.667c0.552 0 1 0.448 1 1s-0.448 1-1 1h-1.667v1.667c0 0.552-0.448 1-1 1s-1-0.448-1-1v-1.667h-1.667c-0.552 0-1-0.448-1-1s0.448-1 1-1h1.667v-1.667c0-0.552 0.448-1 1-1s1 0.448 1 1z"></path>
<path d="M30.667 23.333c0-4.050-3.283-7.333-7.333-7.333s-7.333 3.283-7.333 7.333c0 4.050 3.283 7.333 7.333 7.333s7.333-3.283 7.333-7.333zM24.001 24l0.001 3.338c0 0.368-0.298 0.667-0.667 0.667s-0.667-0.298-0.667-0.667l-0.001-3.338h-3.339c-0.368 0-0.667-0.298-0.667-0.667s0.299-0.667 0.667-0.667h3.339l-0.001-3.334c0-0.368 0.299-0.667 0.667-0.667s0.667 0.298 0.667 0.667l0.001 3.334h3.337c0.368 0 0.667 0.299 0.667 0.667s-0.298 0.667-0.667 0.667h-3.337z"></path>
</svg>
