<!-- Generated by IcoMoon.io -->
<svg version="1.1" xmlns="http://www.w3.org/2000/svg" width="32" height="32" viewBox="0 0 32 32">
<title>radar-rectangle-multiple-filled</title>
<path d="M22.854 5.186l-1.75 1.75c-1.467-0.84-3.225-1.335-5.099-1.335-5.746 0-10.405 4.658-10.405 10.405 0 0.563 0.045 1.115 0.131 1.654l-0.008-0.059h-2.424c-0.063-0.479-0.1-1.033-0.1-1.595 0-7.072 5.733-12.805 12.805-12.805 2.541 0 4.908 0.74 6.9 2.016l-0.051-0.031zM16 27.2v-0.8c0.004 0 0.008 0 0.013 0 2.868 0 5.464-1.164 7.341-3.046l0-0c0.214-0.2 0.502-0.322 0.818-0.322 0.663 0 1.2 0.537 1.2 1.2 0 0.316-0.123 0.604-0.323 0.819l0.001-0.001c-2.311 2.317-5.507 3.75-9.037 3.75-0.1 0-0.2-0.001-0.299-0.003l0.015 0c0.176-0.499 0.272-1.037 0.272-1.597zM16 23.2v0.96c2.088 0 4.176-0.797 5.77-2.39 0.235-0.22 0.382-0.532 0.382-0.878 0-0.663-0.537-1.2-1.2-1.2-0.346 0-0.658 0.147-0.877 0.381l-0.001 0.001c-1.040 1.042-2.478 1.686-4.067 1.686-0.177 0-0.352-0.008-0.525-0.024l0.022 0.002c0.31 0.406 0.496 0.912 0.496 1.462zM10.4 17.6h0.066c-0.144-0.48-0.227-1.032-0.227-1.602 0-3.181 2.579-5.76 5.76-5.76 0.564 0 1.108 0.081 1.623 0.232l-0.041-0.010 1.861-1.861c-1.008-0.48-2.191-0.76-3.44-0.76-4.508 0-8.163 3.655-8.163 8.163 0 0.566 0.058 1.118 0.167 1.651l-0.009-0.053h2.403zM25.248 6.752c0.217 0.217 0.351 0.517 0.351 0.848s-0.134 0.631-0.351 0.848v0l-6.928 6.93c0.052 0.187 0.082 0.401 0.082 0.622 0 1.325-1.075 2.4-2.4 2.4s-2.4-1.075-2.4-2.4c0-1.325 1.075-2.4 2.4-2.4 0.221 0 0.435 0.030 0.639 0.086l-0.017-0.004 6.928-6.93c0.217-0.217 0.517-0.351 0.848-0.351s0.631 0.134 0.848 0.351v0zM27.6 21.2c0 0.663-0.537 1.2-1.2 1.2s-1.2-0.537-1.2-1.2v0c0-0.663 0.537-1.2 1.2-1.2s1.2 0.537 1.2 1.2v0zM26.4 12c0.663 0 1.2-0.537 1.2-1.2s-0.537-1.2-1.2-1.2v0c-0.663 0-1.2 0.537-1.2 1.2s0.537 1.2 1.2 1.2v0zM28.8 18c0 0.663-0.537 1.2-1.2 1.2s-1.2-0.537-1.2-1.2v0c0-0.663 0.537-1.2 1.2-1.2s1.2 0.537 1.2 1.2v0zM27.6 15.2c0.663 0 1.2-0.537 1.2-1.2s-0.537-1.2-1.2-1.2v0c-0.663 0-1.2 0.537-1.2 1.2s0.537 1.2 1.2 1.2v0zM24 18c0 0.663-0.537 1.2-1.2 1.2s-1.2-0.537-1.2-1.2v0c0-0.663 0.537-1.2 1.2-1.2s1.2 0.537 1.2 1.2v0zM22.8 15.2c0.663 0 1.2-0.537 1.2-1.2s-0.537-1.2-1.2-1.2v0c-0.663 0-1.2 0.537-1.2 1.2s0.537 1.2 1.2 1.2v0zM2.4 19.2c-0.442 0-0.8 0.358-0.8 0.8v0 6.4c0 0.442 0.358 0.8 0.8 0.8v0h8c0.442 0 0.8-0.358 0.8-0.8v0-6.4c0-0.442-0.358-0.8-0.8-0.8v0h-8zM13.6 22.4c0.442 0 0.8 0.358 0.8 0.8v0 4c0 1.767-1.433 3.2-3.2 3.2v0h-5.6c-0.442 0-0.8-0.358-0.8-0.8s0.358-0.8 0.8-0.8v0h5.6c0.884 0 1.6-0.716 1.6-1.6v0-4c0-0.442 0.358-0.8 0.8-0.8v0z"></path>
</svg>
