<!-- Generated by IcoMoon.io -->
<svg version="1.1" xmlns="http://www.w3.org/2000/svg" width="32" height="32" viewBox="0 0 32 32">
<title>radar-filled</title>
<path d="M22.854 5.186l-1.75 1.75c-1.468-0.842-3.228-1.338-5.103-1.338-5.744 0-10.4 4.656-10.4 10.4s4.656 10.4 10.4 10.4c2.871 0 5.47-1.163 7.352-3.045l-0 0c0.214-0.2 0.502-0.322 0.818-0.322 0.663 0 1.2 0.537 1.2 1.2 0 0.316-0.123 0.604-0.323 0.819l0.001-0.001c-2.316 2.315-5.515 3.747-9.049 3.747-7.069 0-12.8-5.731-12.8-12.8s5.731-12.8 12.8-12.8c2.543 0 4.912 0.741 6.904 2.020l-0.051-0.031zM17.581 10.459l1.861-1.861c-1.006-0.477-2.186-0.756-3.431-0.756-4.508 0-8.163 3.655-8.163 8.163 0 2.25 0.91 4.287 2.383 5.764l-0-0c1.477 1.476 3.516 2.39 5.77 2.39s4.293-0.913 5.77-2.39v0c0.235-0.22 0.382-0.532 0.382-0.878 0-0.663-0.537-1.2-1.2-1.2-0.346 0-0.658 0.147-0.877 0.381l-0.001 0.001c-1.042 1.041-2.481 1.685-4.071 1.685-3.181 0-5.76-2.579-5.76-5.76s2.579-5.76 5.76-5.76c0.562 0 1.105 0.081 1.619 0.231l-0.041-0.010zM25.248 6.752c0.217 0.217 0.351 0.517 0.351 0.848s-0.134 0.631-0.351 0.848v0l-6.928 6.93c0.052 0.187 0.082 0.401 0.082 0.622 0 1.325-1.075 2.4-2.4 2.4s-2.4-1.075-2.4-2.4c0-1.325 1.075-2.4 2.4-2.4 0.221 0 0.435 0.030 0.639 0.086l-0.017-0.004 6.928-6.93c0.217-0.217 0.517-0.351 0.848-0.351s0.631 0.134 0.848 0.351v0zM27.6 21.2c0 0.663-0.537 1.2-1.2 1.2s-1.2-0.537-1.2-1.2v0c0-0.663 0.537-1.2 1.2-1.2s1.2 0.537 1.2 1.2v0zM26.4 12c0.663 0 1.2-0.537 1.2-1.2s-0.537-1.2-1.2-1.2v0c-0.663 0-1.2 0.537-1.2 1.2s0.537 1.2 1.2 1.2v0zM28.8 18c0 0.663-0.537 1.2-1.2 1.2s-1.2-0.537-1.2-1.2v0c0-0.663 0.537-1.2 1.2-1.2s1.2 0.537 1.2 1.2v0zM27.6 15.2c0.663 0 1.2-0.537 1.2-1.2s-0.537-1.2-1.2-1.2v0c-0.663 0-1.2 0.537-1.2 1.2s0.537 1.2 1.2 1.2v0zM24 18c0 0.663-0.537 1.2-1.2 1.2s-1.2-0.537-1.2-1.2v0c0-0.663 0.537-1.2 1.2-1.2s1.2 0.537 1.2 1.2v0zM22.8 15.2c0.663 0 1.2-0.537 1.2-1.2s-0.537-1.2-1.2-1.2v0c-0.663 0-1.2 0.537-1.2 1.2s0.537 1.2 1.2 1.2v0z"></path>
</svg>
