<!-- Generated by IcoMoon.io -->
<svg version="1.1" xmlns="http://www.w3.org/2000/svg" width="32" height="32" viewBox="0 0 32 32">
<title>radio-button-filled</title>
<path d="M16 2.665c7.365 0 13.336 5.971 13.336 13.336 0 7.364-5.971 13.335-13.336 13.335s-13.336-5.971-13.336-13.335c0-7.365 5.971-13.336 13.336-13.336zM16 4.665c-0.037-0-0.080-0.001-0.123-0.001-6.261 0-11.336 5.075-11.336 11.336s5.075 11.336 11.336 11.336c0.043 0 0.086-0 0.129-0.001l-0.007 0c6.185-0.098 11.162-5.135 11.162-11.335s-4.977-11.237-11.153-11.335l-0.009-0zM15.996 7.999c4.417 0 7.997 3.581 7.997 7.997s-3.581 7.997-7.997 7.997v0c-4.417 0-7.997-3.581-7.997-7.997s3.581-7.997 7.997-7.997v0z"></path>
</svg>
