<!-- Generated by IcoMoon.io -->
<svg version="1.1" xmlns="http://www.w3.org/2000/svg" width="32" height="32" viewBox="0 0 32 32">
<title>ratio-one-to-one-filled</title>
<path d="M7 5.333c-2.393 0-4.333 1.94-4.333 4.333v0 12.667c0 2.393 1.94 4.333 4.333 4.333v0h18c2.393 0 4.333-1.94 4.333-4.333v0-12.667c0-2.393-1.94-4.333-4.333-4.333v0h-18zM11.333 11.667v8.667c0 0.552-0.448 1-1 1s-1-0.448-1-1v0-6.799l-0.445 0.297c-0.158 0.109-0.353 0.174-0.564 0.174-0.552 0-1-0.448-1-1 0-0.349 0.179-0.657 0.451-0.836l0.004-0.002 2-1.333c0.156-0.105 0.348-0.168 0.555-0.168 0.552 0 1 0.448 1 1v0zM23.333 11.667v8.667c0 0.552-0.448 1-1 1s-1-0.448-1-1v0-6.799l-0.445 0.297c-0.158 0.109-0.353 0.174-0.564 0.174-0.552 0-1-0.448-1-1 0-0.349 0.179-0.657 0.451-0.836l0.004-0.002 2-1.333c0.156-0.105 0.348-0.168 0.555-0.168 0.552 0 1 0.448 1 1v0zM17.333 18.667c0 0.736-0.597 1.333-1.333 1.333s-1.333-0.597-1.333-1.333v0c0-0.736 0.597-1.333 1.333-1.333s1.333 0.597 1.333 1.333v0zM16 14.667c-0.736 0-1.333-0.597-1.333-1.333s0.597-1.333 1.333-1.333v0c0.736 0 1.333 0.597 1.333 1.333s-0.597 1.333-1.333 1.333v0z"></path>
</svg>
