<!-- Generated by IcoMoon.io -->
<svg version="1.1" xmlns="http://www.w3.org/2000/svg" width="32" height="32" viewBox="0 0 32 32">
<title>reading-list-add-filled</title>
<path d="M4.571 8.571c0-0 0-0.001 0-0.001 0-0.947 0.768-1.714 1.714-1.714 0.594 0 1.117 0.302 1.425 0.76l0.004 0.006c0.209 0.295 0.55 0.486 0.935 0.486 0.631 0 1.143-0.512 1.143-1.143 0-0.227-0.066-0.438-0.18-0.616l0.003 0.005c-0.727-1.081-1.946-1.783-3.329-1.783-2.209 0-4 1.791-4 4 0 2.194 1.767 3.976 3.955 4l0.002 0h17.757c0.631 0 1.143-0.512 1.143-1.143s-0.512-1.143-1.143-1.143v0h-17.714c-0.947 0-1.714-0.768-1.714-1.714v0zM13.714 5.714c-0.631 0-1.143 0.512-1.143 1.143s0.512 1.143 1.143 1.143v0h14.857c0.631 0 1.143-0.512 1.143-1.143s-0.512-1.143-1.143-1.143v0h-14.857zM8 14.857c-0.631 0-1.143 0.512-1.143 1.143s0.512 1.143 1.143 1.143v0h9.6c1.512-1.409 3.545-2.277 5.78-2.286h-15.38zM3.429 19.429h12.417c-0.357 0.66-0.639 1.424-0.807 2.23l-0.010 0.055h-11.6c-0.631 0-1.143-0.512-1.143-1.143s0.512-1.143 1.143-1.143v0zM8 24h6.875c0.053 0.797 0.214 1.563 0.469 2.286h-7.344c-0.631 0-1.143-0.512-1.143-1.143s0.512-1.143 1.143-1.143v0zM30.857 23.429c0 4.103-3.326 7.429-7.429 7.429s-7.429-3.326-7.429-7.429v0c0-4.103 3.326-7.429 7.429-7.429s7.429 3.326 7.429 7.429v0zM24 18.857c0-0.316-0.256-0.571-0.571-0.571s-0.571 0.256-0.571 0.571v0 4h-4c-0.316 0-0.571 0.256-0.571 0.571s0.256 0.571 0.571 0.571v0h4v4c0 0.316 0.256 0.571 0.571 0.571s0.571-0.256 0.571-0.571v0-4h4c0.316 0 0.571-0.256 0.571-0.571s-0.256-0.571-0.571-0.571v0h-4v-4z"></path>
</svg>
