<!-- Generated by IcoMoon.io -->
<svg version="1.1" xmlns="http://www.w3.org/2000/svg" width="32" height="32" viewBox="0 0 32 32">
<title>read-aloud-filled</title>
<path d="M20.107 2.946c0.186-0.393 0.58-0.66 1.036-0.66 0.175 0 0.341 0.039 0.49 0.11l-0.007-0.003c3.026 1.409 8.435 5.858 8.088 14.224-0.036 0.602-0.533 1.076-1.141 1.076-0.631 0-1.143-0.512-1.143-1.143 0-0.010 0-0.020 0-0.030l-0 0.001c0.297-7.175-4.305-10.911-6.77-12.058-0.393-0.186-0.66-0.58-0.66-1.036 0-0.175 0.039-0.341 0.11-0.49l-0.003 0.007zM13.357 5.313c-0.167-0.437-0.583-0.742-1.070-0.742s-0.903 0.305-1.068 0.734l-0.003 0.008-7.714 20.571c-0.046 0.119-0.073 0.257-0.073 0.401 0 0.631 0.512 1.143 1.143 1.143 0.487 0 0.903-0.305 1.068-0.734l0.003-0.008 2.293-6.115h8.702l2.294 6.114c0.17 0.431 0.583 0.731 1.066 0.731 0.631 0 1.143-0.512 1.143-1.143 0-0.14-0.025-0.273-0.071-0.397l0.003 0.008-7.714-20.571zM15.779 18.286h-6.987l3.494-9.314 3.494 9.314zM21.237 7.071c-0.185-0.133-0.415-0.213-0.665-0.213-0.631 0-1.143 0.512-1.143 1.143 0 0.382 0.187 0.72 0.475 0.928l0.003 0.002c0.907 0.648 1.627 1.366 2.129 2.271 0.498 0.902 0.822 2.062 0.822 3.656 0 0.631 0.512 1.143 1.143 1.143s1.143-0.512 1.143-1.143v0c0-1.917-0.392-3.471-1.109-4.762-0.712-1.288-1.706-2.245-2.8-3.025z"></path>
</svg>
