<!-- Generated by IcoMoon.io -->
<svg version="1.1" xmlns="http://www.w3.org/2000/svg" width="32" height="32" viewBox="0 0 32 32">
<title>reading-list-filled</title>
<path d="M4.571 8.571c0-0 0-0.001 0-0.001 0-0.947 0.768-1.714 1.714-1.714 0.594 0 1.117 0.302 1.425 0.76l0.004 0.006c0.209 0.295 0.55 0.486 0.935 0.486 0.631 0 1.143-0.512 1.143-1.143 0-0.227-0.066-0.438-0.18-0.616l0.003 0.005c-0.727-1.081-1.946-1.783-3.329-1.783-2.209 0-4 1.791-4 4 0 2.202 1.78 3.989 3.98 4h17.735c0.631 0 1.143-0.512 1.143-1.143s-0.512-1.143-1.143-1.143v0h-17.714c-0.947 0-1.714-0.768-1.714-1.714v0zM13.714 5.714c-0.631 0-1.143 0.512-1.143 1.143s0.512 1.143 1.143 1.143v0h14.857c0.631 0 1.143-0.512 1.143-1.143s-0.512-1.143-1.143-1.143v0h-14.857zM8 14.857c-0.631 0-1.143 0.512-1.143 1.143s0.512 1.143 1.143 1.143v0h20.571c0.631 0 1.143-0.512 1.143-1.143s-0.512-1.143-1.143-1.143v0h-20.571zM2.286 20.571c0-0.631 0.512-1.143 1.143-1.143v0h20.571c0.631 0 1.143 0.512 1.143 1.143s-0.512 1.143-1.143 1.143v0h-20.571c-0.631 0-1.143-0.512-1.143-1.143v0zM8 24c-0.631 0-1.143 0.512-1.143 1.143s0.512 1.143 1.143 1.143v0h20.571c0.631 0 1.143-0.512 1.143-1.143s-0.512-1.143-1.143-1.143v0h-20.571z"></path>
</svg>
