<!-- Generated by IcoMoon.io -->
<svg version="1.1" xmlns="http://www.w3.org/2000/svg" width="32" height="32" viewBox="0 0 32 32">
<title>reading-mode-mobile-filled</title>
<path d="M23.667 2.668c0 0 0 0 0 0 1.585 0 2.882 1.229 2.992 2.785l0.001 0.010 0.007 0.204v20.664c0 0 0 0 0 0 0 1.585-1.229 2.882-2.785 2.992l-0.010 0.001-0.205 0.007h-15.333c-0 0-0 0-0 0-1.585 0-2.882-1.229-2.992-2.785l-0.001-0.010-0.007-0.203v-20.665c0-0 0-0 0-0 0-1.585 1.229-2.882 2.785-2.992l0.010-0.001 0.205-0.007h15.333zM16.331 17.329h-5.997l-0.136 0.009c-0.493 0.067-0.869 0.485-0.869 0.991s0.376 0.924 0.863 0.991l0.005 0.001 0.136 0.008h5.997l0.136-0.008c0.493-0.067 0.869-0.485 0.869-0.991s-0.376-0.924-0.863-0.991l-0.005-0.001-0.136-0.009zM21.667 13.333l-11.469 0.008c-0.493 0.067-0.869 0.485-0.869 0.991s0.376 0.924 0.863 0.991l0.005 0.001 0.136 0.009 11.469-0.009c0.493-0.067 0.869-0.485 0.869-0.991s-0.376-0.924-0.863-0.991l-0.005-0.001-0.136-0.008zM21.667 9.335l-11.469 0.009c-0.491 0.069-0.864 0.486-0.864 0.991s0.373 0.921 0.858 0.99l0.005 0.001 0.136 0.009 11.469-0.009c0.491-0.069 0.864-0.486 0.864-0.991s-0.373-0.921-0.858-0.99l-0.005-0.001-0.136-0.011z"></path>
</svg>
