<!-- Generated by IcoMoon.io -->
<svg version="1.1" xmlns="http://www.w3.org/2000/svg" width="32" height="32" viewBox="0 0 32 32">
<title>reading-mode-mobile-filled</title>
<path d="M23.667 2.668c1.588 0 2.888 1.234 2.993 2.795l0.007 0.205v20.664c0 1.588-1.233 2.888-2.795 2.993l-0.205 0.007h-15.333c-1.588 0-2.888-1.233-2.993-2.795l-0.007-0.205v-20.664c0-1.588 1.234-2.888 2.795-2.993l0.205-0.007h15.333zM16.331 17.33h-5.997l-0.136 0.009c-0.488 0.066-0.864 0.485-0.864 0.991s0.376 0.925 0.864 0.991l0.136 0.009h5.997l0.136-0.009c0.488-0.066 0.864-0.485 0.864-0.991s-0.376-0.925-0.864-0.991l-0.136-0.009zM21.667 13.332l-11.469 0.009c-0.488 0.066-0.864 0.485-0.864 0.991s0.376 0.925 0.864 0.991l0.136 0.009 11.469-0.009c0.488-0.066 0.864-0.485 0.864-0.991s-0.376-0.925-0.864-0.991l-0.136-0.009zM21.667 9.333l-11.469 0.009c-0.488 0.066-0.864 0.485-0.864 0.991s0.376 0.925 0.864 0.991l0.136 0.009 11.469-0.009c0.488-0.066 0.864-0.485 0.864-0.991s-0.376-0.925-0.864-0.991l-0.136-0.009z"></path>
</svg>
