<!-- Generated by IcoMoon.io -->
<svg version="1.1" xmlns="http://www.w3.org/2000/svg" width="32" height="32" viewBox="0 0 32 32">
<title>read-aloud-filled</title>
<path d="M19.456 2.775c0.309-0.669 1.101-0.96 1.769-0.652 0.351 0.178 0.001 0.001 0.001 0.001l0.001 0.001 0.004 0.002 0.010 0.004 0.028 0.014c0.023 0.011 0.054 0.026 0.093 0.046 0.077 0.039 0.184 0.094 0.317 0.167 0.265 0.146 0.632 0.361 1.064 0.651 0.862 0.578 1.995 1.462 3.087 2.69 2.203 2.478 4.22 6.353 3.492 11.812-0.097 0.73-0.768 1.243-1.498 1.145s-1.243-0.768-1.145-1.498c0.605-4.541-1.044-7.666-2.842-9.688-0.908-1.022-1.858-1.763-2.58-2.247-0.36-0.241-0.659-0.416-0.863-0.529-0.102-0.056-0.18-0.096-0.229-0.121-0.025-0.012-0.042-0.021-0.052-0.026l-0.009-0.004c-0.666-0.31-0.957-1.1-0.649-1.768zM13.241 6.179c-0.2-0.51-0.693-0.846-1.241-0.846s-1.041 0.336-1.241 0.846l-7.333 18.666c-0.269 0.685 0.068 1.459 0.753 1.729s1.459-0.068 1.729-0.753l2.287-5.821h7.611l2.287 5.821c0.269 0.685 1.043 1.023 1.729 0.753s1.023-1.043 0.753-1.729l-7.333-18.666zM14.758 17.333h-5.516l2.758-7.020 2.758 7.020zM20.597 7.474c-0.659-0.329-1.459-0.062-1.789 0.596s-0.062 1.46 0.596 1.789c0.388 0.194 1.057 0.768 1.636 1.685 0.563 0.892 0.961 1.981 0.961 3.123 0 0.736 0.597 1.333 1.333 1.333s1.333-0.597 1.333-1.333c0-1.752-0.603-3.329-1.373-4.547-0.754-1.193-1.752-2.173-2.698-2.645z"></path>
</svg>
