<!-- Generated by IcoMoon.io -->
<svg version="1.1" xmlns="http://www.w3.org/2000/svg" width="32" height="32" viewBox="0 0 32 32">
<title>real-estate-filled</title>
<path d="M4 5.333c0-0.736 0.597-1.333 1.333-1.333s1.333 0.597 1.333 1.333h21.333c0.736 0 1.333 0.597 1.333 1.333s-0.597 1.333-1.333 1.333h-21.333v20.667c0 0.368-0.298 0.667-0.667 0.667h-1.333c-0.368 0-0.667-0.299-0.667-0.667v-23.333z"></path>
<path d="M8 10.333c0-0.552 0.448-1 1-1h18c0.552 0 1 0.448 1 1v11.333c0 2.025-1.642 3.667-3.667 3.667h-12.667c-2.025 0-3.667-1.642-3.667-3.667v-11.333zM13.333 16.613v4.053c0 0.368 0.299 0.667 0.667 0.667h2.333c0.184 0 0.333-0.149 0.333-0.333v-1.667c0-0.368 0.299-0.667 0.667-0.667h1.333c0.368 0 0.667 0.299 0.667 0.667v1.667c0 0.184 0.149 0.333 0.333 0.333h2.333c0.368 0 0.667-0.298 0.667-0.667v-4.053c0-0.389-0.17-0.759-0.466-1.012l-3.767-3.229c-0.25-0.214-0.618-0.214-0.868 0l-3.767 3.229c-0.295 0.253-0.466 0.623-0.466 1.012z"></path>
</svg>
