<!-- Generated by IcoMoon.io -->
<svg version="1.1" xmlns="http://www.w3.org/2000/svg" width="32" height="32" viewBox="0 0 32 32">
<title>real-estate-filled</title>
<path d="M4 5.333c0-0.736 0.597-1.333 1.333-1.333s1.333 0.597 1.333 1.333v0h21.333c0.736 0 1.333 0.597 1.333 1.333s-0.597 1.333-1.333 1.333v0h-21.333v20.667c0 0.368-0.298 0.667-0.667 0.667v0h-1.333c-0.368 0-0.667-0.298-0.667-0.667v0-23.333zM8 10.333c0-0.552 0.448-1 1-1v0h18c0.552 0 1 0.448 1 1v0 11.333c0 2.025-1.642 3.667-3.667 3.667v0h-12.667c-2.025 0-3.667-1.642-3.667-3.667v0-11.333zM13.333 16.613v4.053c0 0.368 0.298 0.667 0.667 0.667v0h2.333c0.184 0 0.333-0.149 0.333-0.333v0-1.667c0-0.368 0.298-0.667 0.667-0.667v0h1.333c0.368 0 0.667 0.298 0.667 0.667v0 1.667c0 0.184 0.149 0.333 0.333 0.333h2.333c0.368 0 0.667-0.298 0.667-0.667v0-4.053c0-0 0-0 0-0 0-0.405-0.18-0.767-0.465-1.012l-0.002-0.002-3.765-3.227c-0.116-0.099-0.267-0.16-0.433-0.16s-0.318 0.061-0.434 0.161l0.001-0.001-3.769 3.227c-0.286 0.246-0.465 0.608-0.465 1.012v0z"></path>
</svg>
