<!-- Generated by IcoMoon.io -->
<svg version="1.1" xmlns="http://www.w3.org/2000/svg" width="32" height="32" viewBox="0 0 32 32">
<title>receipt-bag-filled</title>
<path d="M9.667 2.667c-1.657 0-3 1.343-3 3v7.047c0.347 0.050 0.682 0.138 1 0.259 0.519-0.198 1.081-0.307 1.667-0.307 0.534 0 1.047 0.090 1.524 0.255-0.12-0.165-0.191-0.368-0.191-0.588 0-0.552 0.448-1 1-1h7.333c0.552 0 1 0.448 1 1s-0.448 1-1 1h-7.261c0.985 0.594 1.733 1.541 2.068 2.667h5.193c0.552 0 1 0.448 1 1s-0.448 1-1 1h-4.367c0.432 0.423 0.7 1.014 0.7 1.667v5h9c2.393 0 4.333-1.94 4.333-4.333v-4.333h-4.667v-10.333c0-1.657-1.343-3-3-3h-11.333zM24.333 22.667h-0.333v-4.667h2.667v2.333c0 1.289-1.045 2.333-2.333 2.333zM10.667 7.667c0-0.552 0.448-1 1-1h7.333c0.552 0 1 0.448 1 1s-0.448 1-1 1h-7.333c-0.552 0-1-0.448-1-1zM1.333 19.667c0-0.552 0.448-1 1-1h0.333v-1.333c0-1.841 1.492-3.333 3.333-3.333 0.607 0 1.176 0.162 1.667 0.446 0.49-0.284 1.060-0.446 1.667-0.446 1.841 0 3.333 1.492 3.333 3.333v1.333h0.333c0.552 0 1 0.448 1 1v8c0 1.657-1.343 3-3 3h-6.667c-1.657 0-3-1.343-3-3v-8zM9.333 17.333v1.333h1.333v-1.333c0-0.736-0.597-1.333-1.333-1.333-0.091 0-0.18 0.009-0.266 0.027 0.171 0.401 0.266 0.843 0.266 1.307zM7.333 18.667v-1.333c0-0.736-0.597-1.333-1.333-1.333s-1.333 0.597-1.333 1.333v1.333h2.667z"></path>
</svg>
