<!-- Generated by IcoMoon.io -->
<svg version="1.1" xmlns="http://www.w3.org/2000/svg" width="32" height="32" viewBox="0 0 32 32">
<title>receipt-bag-filled</title>
<path d="M9.667 2.667c-1.657 0-3 1.343-3 3v0 7.048c0.347 0.049 0.681 0.137 1 0.259 0.495-0.196 1.069-0.309 1.668-0.309 0.545 0 1.069 0.094 1.555 0.266l-0.033-0.010c-0.119-0.162-0.19-0.366-0.19-0.587 0-0.552 0.447-1 0.999-1h7.333c0.552 0 1 0.448 1 1s-0.448 1-1 1v0h-7.261c0.986 0.601 1.721 1.531 2.059 2.634l0.009 0.033h5.193c0.552 0 1 0.448 1 1s-0.448 1-1 1v0h-4.367c0.432 0.424 0.7 1.013 0.7 1.667v5h9c2.393 0 4.333-1.94 4.333-4.333v0-4.333h-4.667v-10.333c0-1.657-1.343-3-3-3v0h-11.333zM24.333 22.667h-0.333v-4.667h2.667v2.333c0 1.289-1.045 2.333-2.333 2.333v0zM10.667 7.667c0-0.552 0.448-1 1-1v0h7.333c0.552 0 1 0.448 1 1s-0.448 1-1 1v0h-7.333c-0.552 0-1-0.448-1-1v0zM1.333 19.667c0-0.552 0.448-1 1-1v0h0.333v-1.333c0-1.841 1.492-3.333 3.333-3.333 0.614 0 1.189 0.166 1.682 0.455l-0.016-0.009c0.478-0.281 1.053-0.447 1.667-0.447 1.841 0 3.333 1.492 3.333 3.333v0 1.333h0.333c0.552 0 1 0.448 1 1v0 8c0 1.657-1.343 3-3 3v0h-6.667c-1.657 0-3-1.343-3-3v0-8zM9.333 17.333v1.333h1.333v-1.333c0-0 0-0 0-0 0-0.736-0.597-1.333-1.333-1.333-0.094 0-0.187 0.010-0.275 0.028l0.009-0.002c0.172 0.4 0.267 0.843 0.267 1.307zM7.333 18.667v-1.333c0-0.736-0.597-1.333-1.333-1.333s-1.333 0.597-1.333 1.333v0 1.333h2.667z"></path>
</svg>
