<!-- Generated by IcoMoon.io -->
<svg version="1.1" xmlns="http://www.w3.org/2000/svg" width="32" height="32" viewBox="0 0 32 32">
<title>receipt-filled</title>
<path d="M7.714 3.429c-2.367 0-4.286 1.919-4.286 4.286v0 16.571c0 2.367 1.919 4.286 4.286 4.286v0h16.571c2.367 0 4.286-1.919 4.286-4.286v0-4.857h-5.714v-11.714c0-2.367-1.919-4.286-4.286-4.286v0h-10.857zM22.857 26.857v-5.714h4v3.143c0 1.42-1.151 2.571-2.571 2.571v0h-1.429zM8.857 9.143h8.571c0.473 0 0.857 0.384 0.857 0.857s-0.384 0.857-0.857 0.857v0h-8.571c-0.473 0-0.857-0.384-0.857-0.857s0.384-0.857 0.857-0.857v0zM8 15.714c0-0.473 0.384-0.857 0.857-0.857v0h8.571c0.473 0 0.857 0.384 0.857 0.857s-0.384 0.857-0.857 0.857v0h-8.571c-0.473 0-0.857-0.384-0.857-0.857v0zM8.857 20.571h4c0.473 0 0.857 0.384 0.857 0.857s-0.384 0.857-0.857 0.857v0h-4c-0.473 0-0.857-0.384-0.857-0.857s0.384-0.857 0.857-0.857v0z"></path>
</svg>
