<!-- Generated by IcoMoon.io -->
<svg version="1.1" xmlns="http://www.w3.org/2000/svg" width="32" height="32" viewBox="0 0 32 32">
<title>receipt-filled</title>
<path d="M5.333 8.333c0-1.657 1.343-3 3-3h11.333c1.657 0 3 1.343 3 3v10.333h4.667v4.333c0 2.393-1.94 4.333-4.333 4.333h-14.667c-1.657 0-3-1.343-3-3v-16zM22.667 25.333h0.333c1.289 0 2.333-1.045 2.333-2.333v-2.333h-2.667v4.667zM10.333 10.667c-0.552 0-1 0.448-1 1s0.448 1 1 1h7.333c0.552 0 1-0.448 1-1s-0.448-1-1-1h-7.333zM10.333 15.333c-0.552 0-1 0.448-1 1s0.448 1 1 1h7.333c0.552 0 1-0.448 1-1s-0.448-1-1-1h-7.333zM10.333 20c-0.552 0-1 0.448-1 1s0.448 1 1 1h3.333c0.552 0 1-0.448 1-1s-0.448-1-1-1h-3.333z"></path>
</svg>
