<!-- Generated by IcoMoon.io -->
<svg version="1.1" xmlns="http://www.w3.org/2000/svg" width="32" height="32" viewBox="0 0 32 32">
<title>receipt-cube-filled</title>
<path d="M9.667 2.667c-1.657 0-3 1.343-3 3v0 9.515c0.393-0.176 0.851-0.278 1.334-0.278 0.543 0 1.056 0.13 1.509 0.36l-0.019-0.009 1.715 0.857c0.133-0.071 0.291-0.112 0.459-0.112 0.001 0 0.002 0 0.003 0h7.333c0.552 0 1 0.448 1 1s-0.448 1-1 1v0h-4.209c0.741 0.616 1.209 1.538 1.209 2.569 0 0 0 0 0 0v-0 4.097h8.333c2.393 0 4.333-1.94 4.333-4.333v0-4.333h-4.667v-10.333c0-1.657-1.343-3-3-3v0h-11.333zM24.333 22.667h-0.333v-4.667h2.667v2.333c0 1.289-1.045 2.333-2.333 2.333v0zM10.667 7.667c0-0.552 0.448-1 1-1v0h7.333c0.552 0 1 0.448 1 1s-0.448 1-1 1v0h-7.333c-0.552 0-1-0.448-1-1v0zM10.667 12.333c0-0.552 0.448-1 1-1v0h7.333c0.552 0 1 0.448 1 1s-0.448 1-1 1v0h-7.333c-0.552 0-1-0.448-1-1v0zM1.333 26.097v-5.528c0-0.779 0.445-1.454 1.095-1.784l0.011-0.005 4.667-2.333c0.26-0.133 0.568-0.211 0.893-0.211s0.633 0.078 0.905 0.216l-0.011-0.005 4.667 2.333c0.661 0.335 1.107 1.010 1.107 1.789v0 5.528c-0 0.779-0.445 1.454-1.095 1.784l-0.011 0.005-4.667 2.333c-0.26 0.133-0.568 0.211-0.893 0.211s-0.633-0.078-0.905-0.216l0.011 0.005-4.667-2.333c-0.661-0.335-1.107-1.010-1.107-1.789v0zM3.404 20.701c-0.045 0.087-0.071 0.19-0.071 0.299 0 0.259 0.148 0.484 0.364 0.594l0.004 0.002 3.632 1.817v3.92c0 0.368 0.298 0.667 0.667 0.667s0.667-0.298 0.667-0.667v0-3.921l3.632-1.816c0.223-0.111 0.373-0.337 0.373-0.598 0-0.368-0.298-0.667-0.667-0.667-0.111 0-0.215 0.027-0.307 0.075l0.004-0.002-3.701 1.849-3.701-1.851c-0.087-0.045-0.19-0.071-0.299-0.071-0.259 0-0.484 0.148-0.594 0.364l-0.002 0.004z"></path>
</svg>
