<!-- Generated by IcoMoon.io -->
<svg version="1.1" xmlns="http://www.w3.org/2000/svg" width="32" height="32" viewBox="0 0 32 32">
<title>receipt-play-filled</title>
<path d="M6.667 5.667c0-1.657 1.343-3 3-3v0h11.333c1.657 0 3 1.343 3 3v0 10.333h4.667v4.333c0 2.393-1.94 4.333-4.333 4.333v0h-7.101c0.067-0.435 0.101-0.88 0.101-1.333 0-0.004 0-0.009 0-0.014 0-1.457-0.361-2.83-0.999-4.033l0.023 0.047h2.643c0.552 0 1-0.448 1-1s-0.448-1-1-1v0h-4.080c-1.576-1.645-3.79-2.667-6.242-2.667-0.004 0-0.008 0-0.011 0h0.001c-0.002 0-0.003 0-0.005 0-0.708 0-1.396 0.085-2.054 0.244l0.059-0.012v-9.232zM24 22.667h0.333c1.289 0 2.333-1.045 2.333-2.333v0-2.333h-2.667v4.667zM11.667 8c-0.552 0-1 0.448-1 1s0.448 1 1 1v0h7.333c0.552 0 1-0.448 1-1s-0.448-1-1-1v0h-7.333zM11.667 12.667c-0.552 0-1 0.448-1 1s0.448 1 1 1v0h7.333c0.552 0 1-0.448 1-1s-0.448-1-1-1v0h-7.333zM8.667 16c4.050 0 7.333 3.283 7.333 7.333s-3.283 7.333-7.333 7.333v0c-4.050 0-7.333-3.283-7.333-7.333s3.283-7.333 7.333-7.333v0zM6.667 19.947v6.773c0 0 0 0 0 0.001 0 0.368 0.298 0.667 0.667 0.667 0.143 0 0.276-0.045 0.385-0.122l-0.002 0.001 4.837-3.387c0.173-0.122 0.285-0.321 0.285-0.547s-0.112-0.425-0.283-0.545l-0.002-0.001-4.837-3.387c-0.107-0.076-0.239-0.121-0.383-0.121-0.368 0-0.667 0.298-0.667 0.667 0 0 0 0.001 0 0.001v-0z"></path>
</svg>
