<!-- Generated by IcoMoon.io -->
<svg version="1.1" xmlns="http://www.w3.org/2000/svg" width="32" height="32" viewBox="0 0 32 32">
<title>receipt-search-filled</title>
<path d="M4.8 8c0-1.767 1.433-3.2 3.2-3.2v0h11.2c1.767 0 3.2 1.433 3.2 3.2v0 11.2h4.8v3.2c0 2.651-2.149 4.8-4.8 4.8v0h-3.333c-0.126-0.351-0.319-0.65-0.565-0.896l-3.2-3.2c0.444-0.908 0.704-1.976 0.704-3.105 0-1.491-0.453-2.876-1.229-4.025l0.016 0.025h2.006c0.442 0 0.8-0.358 0.8-0.8s-0.358-0.8-0.8-0.8v0h-3.466c-1.226-0.997-2.807-1.6-4.528-1.6-1.494 0-2.881 0.454-4.032 1.232l0.025-0.016v-6.016zM22.4 25.6c1.767 0 3.2-1.433 3.2-3.2v0-1.6h-3.2v4.8zM10.4 9.6c-0.442 0-0.8 0.358-0.8 0.8s0.358 0.8 0.8 0.8v0h6.4c0.442 0 0.8-0.358 0.8-0.8s-0.358-0.8-0.8-0.8v0h-6.4zM12.16 24.48c-0.924 0.699-2.093 1.12-3.36 1.12-3.093 0-5.6-2.507-5.6-5.6s2.507-5.6 5.6-5.6c3.093 0 5.6 2.507 5.6 5.6 0 1.267-0.421 2.436-1.13 3.374l0.010-0.014 4.091 4.069c0.145 0.145 0.235 0.345 0.235 0.566 0 0.442-0.358 0.8-0.8 0.8-0.221 0-0.421-0.089-0.566-0.234v0l-4.080-4.082zM6.578 23.326c0.625 0.422 1.394 0.674 2.223 0.674 2.21 0 4.002-1.792 4.002-4.002 0-1.381-0.7-2.599-1.764-3.318l-0.014-0.009c-0.625-0.423-1.395-0.675-2.224-0.675-2.211 0-4.003 1.792-4.003 4.003 0 1.382 0.7 2.6 1.765 3.319l0.014 0.009z"></path>
</svg>
