<!-- Generated by IcoMoon.io -->
<svg version="1.1" xmlns="http://www.w3.org/2000/svg" width="32" height="32" viewBox="0 0 32 32">
<title>receipt-add-filled</title>
<path d="M6.667 5.667c0-1.657 1.343-3 3-3v0h11.333c1.657 0 3 1.343 3 3v0 10.333h4.667v4.333c0 2.393-1.94 4.333-4.333 4.333v0h-7.101c0.067-0.435 0.101-0.88 0.101-1.333 0-0.004 0-0.009 0-0.014 0-2.015-0.691-3.869-1.849-5.338l0.014 0.018h3.501c0.552 0 1-0.448 1-1s-0.448-1-1-1v0h-5.712c-1.312-0.837-2.911-1.333-4.626-1.333-0.708 0-1.396 0.085-2.054 0.244l0.059-0.012v-9.232zM24 22.667h0.333c1.289 0 2.333-1.045 2.333-2.333v0-2.333h-2.667v4.667zM11.667 6.667c-0.552 0-1 0.448-1 1s0.448 1 1 1v0h7.333c0.552 0 1-0.448 1-1s-0.448-1-1-1v0h-7.333zM11.667 11.333c-0.552 0-1 0.448-1 1s0.448 1 1 1v0h7.333c0.552 0 1-0.448 1-1s-0.448-1-1-1v0h-7.333zM16 23.333c0-4.050-3.283-7.333-7.333-7.333s-7.333 3.283-7.333 7.333v0c0 4.050 3.283 7.333 7.333 7.333s7.333-3.283 7.333-7.333v0zM9.333 24l0.001 3.337c0 0.368-0.298 0.667-0.667 0.667s-0.667-0.298-0.667-0.667v0-3.337h-3.34c-0.368 0-0.667-0.298-0.667-0.667s0.298-0.667 0.667-0.667v0h3.339v-3.333c0-0.368 0.298-0.667 0.667-0.667s0.667 0.298 0.667 0.667v0 3.333h3.329c0.368 0 0.667 0.298 0.667 0.667s-0.298 0.667-0.667 0.667v0h-3.329z"></path>
</svg>
