<!-- Generated by IcoMoon.io -->
<svg version="1.1" xmlns="http://www.w3.org/2000/svg" width="32" height="32" viewBox="0 0 32 32">
<title>remote-filled</title>
<path d="M27.152 24.048c0.22 0.235 0.532 0.382 0.878 0.382 0.663 0 1.2-0.537 1.2-1.2 0-0.346-0.147-0.658-0.381-0.877l-0.001-0.001-8.752-8.752 8.752-8.752c0.2-0.214 0.322-0.502 0.322-0.818 0-0.663-0.537-1.2-1.2-1.2-0.316 0-0.604 0.123-0.819 0.323l0.001-0.001-9.6 9.6c-0.217 0.217-0.351 0.517-0.351 0.848s0.134 0.631 0.351 0.848v0l9.6 9.6zM4.848 7.952c-0.214-0.2-0.502-0.322-0.818-0.322-0.663 0-1.2 0.537-1.2 1.2 0 0.316 0.123 0.604 0.323 0.819l-0.001-0.001 8.752 8.752-8.752 8.752c-0.235 0.22-0.382 0.532-0.382 0.878 0 0.663 0.537 1.2 1.2 1.2 0.346 0 0.658-0.147 0.877-0.381l0.001-0.001 9.6-9.6c0.217-0.217 0.351-0.517 0.351-0.848s-0.134-0.631-0.351-0.848v0l-9.6-9.6z"></path>
</svg>
