<!-- Generated by IcoMoon.io -->
<svg version="1.1" xmlns="http://www.w3.org/2000/svg" width="32" height="32" viewBox="0 0 32 32">
<title>rename-filled</title>
<path d="M13.429 2.286c-0.473 0-0.857 0.384-0.857 0.857s0.384 0.857 0.857 0.857v0h1.714v24h-1.714c-0.473 0-0.857 0.384-0.857 0.857s0.384 0.857 0.857 0.857v0h5.143c0.473 0 0.857-0.384 0.857-0.857s-0.384-0.857-0.857-0.857v0h-1.714v-24h1.714c0.473 0 0.857-0.384 0.857-0.857s-0.384-0.857-0.857-0.857v0h-5.143zM7.143 6.88h6.857v18.286h-6.857c-2.051 0-3.714-1.663-3.714-3.714v0-10.857c0-2.051 1.663-3.714 3.714-3.714v0zM24.857 25.166h-6.857v-18.286h6.857c2.051 0 3.714 1.663 3.714 3.714v0 10.857c0 2.051-1.663 3.714-3.714 3.714v0z"></path>
</svg>
