<!-- Generated by IcoMoon.io -->
<svg version="1.1" xmlns="http://www.w3.org/2000/svg" width="32" height="32" viewBox="0 0 32 32">
<title>rename-filled</title>
<path d="M13 2.667h5.331c0.552 0 1 0.448 1 1 0 0.506-0.376 0.925-0.864 0.991l-0.136 0.009h-1.666v22.667h1.661c0.506 0 0.925 0.376 0.991 0.864l0.009 0.136c0 0.506-0.376 0.925-0.864 0.991l-0.136 0.009h-5.327c-0.552 0-1-0.448-1-1 0-0.506 0.376-0.925 0.864-0.991l0.136-0.009h1.665v-22.667h-1.665c-0.506 0-0.925-0.376-0.991-0.864l-0.009-0.136c0-0.506 0.376-0.925 0.864-0.991l0.136-0.009zM24.328 6.663c2.393 0.002 4.332 1.94 4.335 4.332l0.004 10.007c0.002 2.31-1.805 4.2-4.085 4.328l-0.249 0.006-6.326-0.001v-18.673h6.32zM13.329 6.663l-0.006 18.673h-6.323c-2.393 0-4.333-1.94-4.333-4.333v-10.006c0-2.393 1.94-4.333 4.333-4.333h6.329z"></path>
</svg>
