<!-- Generated by IcoMoon.io -->
<svg version="1.1" xmlns="http://www.w3.org/2000/svg" width="32" height="32" viewBox="0 0 32 32">
<title>resize-table-filled</title>
<path d="M7 2.667h6.667c0.552 0 1 0.448 1 1s-0.448 1-1 1h-6.667c-1.289 0-2.333 1.045-2.333 2.333v3.951c-0.771 0.273-1.455 0.729-2 1.316v-5.267c0-2.393 1.94-4.333 4.333-4.333z"></path>
<path d="M21.049 27.333c-0.273 0.771-0.729 1.455-1.316 2h5.267c2.393 0 4.333-1.94 4.333-4.333v-6.667c0-0.552-0.448-1-1-1s-1 0.448-1 1v6.667c0 1.289-1.045 2.333-2.333 2.333h-3.951z"></path>
<path d="M28.333 14.667c0.552 0 1-0.448 1-1v-6.667c0-2.393-1.94-4.333-4.333-4.333h-6.667c-0.552 0-1 0.448-1 1s0.448 1 1 1h6.667c1.289 0 2.333 1.045 2.333 2.333v6.667c0 0.552 0.448 1 1 1z"></path>
<path d="M9.333 12h4v4.667h-4v-4.667z"></path>
<path d="M9.333 18.667h4v4.667h-4v-4.667z"></path>
<path d="M15.333 18.667v4.667h4.667v-4.667h-4.667z"></path>
<path d="M9.333 25.333h4v4h-4v-4z"></path>
<path d="M15.333 25.333v4h1c2.025 0 3.667-1.642 3.667-3.667v-0.333h-4.667z"></path>
<path d="M15.333 12v4.667h4.667v-1c0-2.025-1.642-3.667-3.667-3.667h-1z"></path>
<path d="M7.333 12h-1c-2.025 0-3.667 1.642-3.667 3.667v1h4.667v-4.667z"></path>
<path d="M7.333 18.667h-4.667v4.667h4.667v-4.667z"></path>
<path d="M7.333 25.333h-4.667v0.333c0 2.025 1.642 3.667 3.667 3.667h1v-4z"></path>
</svg>
