<!-- Generated by IcoMoon.io -->
<svg version="1.1" xmlns="http://www.w3.org/2000/svg" width="32" height="32" viewBox="0 0 32 32">
<title>resize-video-filled</title>
<path d="M28.333 17.333c0.506 0 0.925 0.376 0.991 0.864l0.009 0.136v6.667c0 2.311-1.809 4.199-4.087 4.327l-0.246 0.007-6.224 0c0.715-0.514 1.298-1.201 1.687-1.999l4.537-0.001c1.224 0 2.228-0.943 2.326-2.142l0.008-0.191v-6.667c0-0.552 0.448-1 1-1zM15.667 12c2.393 0 4.333 1.94 4.333 4.333v8.667c0 2.393-1.94 4.333-4.333 4.333h-8.667c-2.393 0-4.333-1.94-4.333-4.333v-8.667c0-2.393 1.94-4.333 4.333-4.333h8.667zM8.081 17.47c-0.053 0.098-0.081 0.208-0.081 0.319v5.754c0 0.368 0.298 0.667 0.667 0.667 0.112 0 0.221-0.028 0.319-0.081l5.274-2.877c0.323-0.176 0.442-0.581 0.266-0.904-0.061-0.112-0.154-0.205-0.266-0.266l-5.274-2.877c-0.323-0.176-0.728-0.057-0.905 0.266zM25 2.667c2.311 0 4.199 1.809 4.327 4.087l0.007 0.246v6.667c0 0.552-0.448 1-1 1-0.506 0-0.925-0.376-0.991-0.864l-0.009-0.136v-6.667c0-1.224-0.943-2.228-2.142-2.326l-0.191-0.008h-6.667c-0.552 0-1-0.448-1-1 0-0.506 0.376-0.925 0.864-0.991l0.136-0.009h6.667zM13.667 2.667c0.552 0 1 0.448 1 1 0 0.506-0.376 0.925-0.864 0.991l-0.136 0.009h-6.667c-1.224 0-2.228 0.943-2.326 2.142l-0.008 0.191-0 4.536c-0.799 0.389-1.486 0.972-2 1.688l0-6.224c0-2.311 1.809-4.199 4.087-4.326l0.246-0.007h6.667z"></path>
</svg>
