<!-- Generated by IcoMoon.io -->
<svg version="1.1" xmlns="http://www.w3.org/2000/svg" width="32" height="32" viewBox="0 0 32 32">
<title>resize-large-filled</title>
<path d="M6 8.333c0-1.289 1.045-2.333 2.333-2.333h2c0.552 0 1-0.448 1-1s-0.448-1-1-1h-2c-2.393 0-4.333 1.94-4.333 4.333v2c0 0.552 0.448 1 1 1s1-0.448 1-1v-2z"></path>
<path d="M23.667 6c1.289 0 2.333 1.045 2.333 2.333v2c0 0.552 0.448 1 1 1s1-0.448 1-1v-2c0-2.393-1.94-4.333-4.333-4.333h-2c-0.552 0-1 0.448-1 1s0.448 1 1 1h2z"></path>
<path d="M23.667 26c1.289 0 2.333-1.045 2.333-2.333v-2c0-0.552 0.448-1 1-1s1 0.448 1 1v2c0 2.393-1.94 4.333-4.333 4.333h-2c-0.552 0-1-0.448-1-1s0.448-1 1-1h2z"></path>
<path d="M8.333 26c-1.289 0-2.333-1.045-2.333-2.333v-2c0-0.552-0.448-1-1-1s-1 0.448-1 1v2c0 2.393 1.94 4.333 4.333 4.333h2c0.552 0 1-0.448 1-1s-0.448-1-1-1h-2z"></path>
<path d="M11 8c-1.657 0-3 1.343-3 3v10c0 1.657 1.343 3 3 3h10c1.657 0 3-1.343 3-3v-10c0-1.657-1.343-3-3-3h-10z"></path>
</svg>
