<!-- Generated by IcoMoon.io -->
<svg version="1.1" xmlns="http://www.w3.org/2000/svg" width="32" height="32" viewBox="0 0 32 32">
<title>resize-filled</title>
<path d="M14.667 4c0-0.736-0.597-1.333-1.333-1.333v0h-6.333c-2.393 0-4.333 1.94-4.333 4.333v0 6.333c0 0.736 0.597 1.333 1.333 1.333s1.333-0.597 1.333-1.333v0-6.333c0-0.92 0.747-1.667 1.667-1.667h6.333c0.736 0 1.333-0.597 1.333-1.333v0zM18.667 2.667c-0.736 0-1.333 0.597-1.333 1.333s0.597 1.333 1.333 1.333v0h6.333c0.92 0 1.667 0.747 1.667 1.667v6.333c0 0.736 0.597 1.333 1.333 1.333s1.333-0.597 1.333-1.333v0-6.333c0-2.393-1.94-4.333-4.333-4.333v0h-6.333zM18.667 29.333c-0.736 0-1.333-0.597-1.333-1.333s0.597-1.333 1.333-1.333v0h6.333c0.92 0 1.667-0.747 1.667-1.667v-6.333c0-0.736 0.597-1.333 1.333-1.333s1.333 0.597 1.333 1.333v0 6.333c0 2.393-1.94 4.333-4.333 4.333v0h-6.333zM13.333 29.333c0.736 0 1.333-0.597 1.333-1.333s-0.597-1.333-1.333-1.333v0h-6.333c-0.92 0-1.667-0.747-1.667-1.667v-6.333c0-0.736-0.597-1.333-1.333-1.333s-1.333 0.597-1.333 1.333v0 6.333c0 2.393 1.94 4.333 4.333 4.333v0h6.333z"></path>
</svg>
