<!-- Generated by IcoMoon.io -->
<svg version="1.1" xmlns="http://www.w3.org/2000/svg" width="32" height="32" viewBox="0 0 32 32">
<title>resize-small-filled</title>
<path d="M8.333 6c-1.289 0-2.333 1.045-2.333 2.333v2c0 0.552-0.448 1-1 1s-1-0.448-1-1v-2c0-2.393 1.94-4.333 4.333-4.333h2c0.552 0 1 0.448 1 1s-0.448 1-1 1h-2z"></path>
<path d="M13.6 10.667c-1.657 0-3 1.343-3 3v4.667c0 1.657 1.343 3 3 3h4.667c1.657 0 3-1.343 3-3v-4.667c0-1.657-1.343-3-3-3h-4.667z"></path>
<path d="M23.667 6c1.289 0 2.333 1.045 2.333 2.333v2c0 0.552 0.448 1 1 1s1-0.448 1-1v-2c0-2.393-1.94-4.333-4.333-4.333h-2c-0.552 0-1 0.448-1 1s0.448 1 1 1h2z"></path>
<path d="M23.667 26c1.289 0 2.333-1.045 2.333-2.333v-2c0-0.552 0.448-1 1-1s1 0.448 1 1v2c0 2.393-1.94 4.333-4.333 4.333h-2c-0.552 0-1-0.448-1-1s0.448-1 1-1h2z"></path>
<path d="M8.333 26c-1.289 0-2.333-1.045-2.333-2.333v-2c0-0.552-0.448-1-1-1s-1 0.448-1 1v2c0 2.393 1.94 4.333 4.333 4.333h2c0.552 0 1-0.448 1-1s-0.448-1-1-1h-2z"></path>
</svg>
