<!-- Generated by IcoMoon.io -->
<svg version="1.1" xmlns="http://www.w3.org/2000/svg" width="32" height="32" viewBox="0 0 32 32">
<title>resize-image-filled</title>
<path d="M14.667 4c0-0.736-0.597-1.333-1.333-1.333v0h-6.333c-2.393 0-4.333 1.94-4.333 4.333v0 6.333c0 0.736 0.597 1.333 1.333 1.333s1.333-0.597 1.333-1.333v0-6.333c0-0.92 0.747-1.667 1.667-1.667h6.333c0.736 0 1.333-0.597 1.333-1.333v0zM18.667 2.667c-0.736 0-1.333 0.597-1.333 1.333s0.597 1.333 1.333 1.333v0h6.333c0.92 0 1.667 0.747 1.667 1.667v6.333c0 0.736 0.597 1.333 1.333 1.333s1.333-0.597 1.333-1.333v0-6.333c0-2.393-1.94-4.333-4.333-4.333v0h-6.333zM18.667 29.333c-0.736 0-1.333-0.597-1.333-1.333s0.597-1.333 1.333-1.333v0h6.333c0.92 0 1.667-0.747 1.667-1.667v-6.333c0-0.736 0.597-1.333 1.333-1.333s1.333 0.597 1.333 1.333v0 6.333c0 2.393-1.94 4.333-4.333 4.333v0h-6.333zM5.333 16c-2.209 0-4 1.791-4 4v0 6.667c0 0.741 0.201 1.436 0.553 2.032l4.66-4.659c0.543-0.543 1.293-0.879 2.121-0.879s1.578 0.336 2.121 0.879l4.659 4.659c0.352-0.596 0.553-1.291 0.553-2.032v-6.667c0-2.209-1.791-4-4-4v0h-6.668zM5.333 30.667c-0.002 0-0.005 0-0.008 0-0.747 0-1.445-0.206-2.043-0.563l0.018 0.010 4.659-4.66c0.181-0.181 0.431-0.292 0.707-0.292s0.526 0.112 0.707 0.292v0l4.659 4.659c-0.58 0.349-1.279 0.555-2.027 0.555-0.002 0-0.003 0-0.005 0h-6.666zM12 21.333c-0.736 0-1.333-0.597-1.333-1.333s0.597-1.333 1.333-1.333v0c0.736 0 1.333 0.597 1.333 1.333s-0.597 1.333-1.333 1.333v0z"></path>
</svg>
