<!-- Generated by IcoMoon.io -->
<svg version="1.1" xmlns="http://www.w3.org/2000/svg" width="32" height="32" viewBox="0 0 32 32">
<title>resize-image-filled</title>
<path d="M28.333 17.333c0.506 0 0.925 0.376 0.991 0.864l0.009 0.136v6.667c0 2.311-1.809 4.199-4.087 4.327l-0.246 0.007-6.224 0c0.715-0.514 1.298-1.201 1.687-1.999l4.537-0.001c1.224 0 2.228-0.943 2.326-2.142l0.008-0.191v-6.667c0-0.552 0.448-1 1-1zM12.596 22.886l0.152 0.137 5.478 5.473c-0.717 0.526-1.602 0.836-2.559 0.836h-8.667c-0.957 0-1.842-0.31-2.559-0.836l0.031-0.026 5.448-5.448 0.152-0.137c0.733-0.598 1.791-0.598 2.525 0zM15.667 12c2.393 0 4.333 1.94 4.333 4.333v8.667c0 0.957-0.31 1.842-0.836 2.559l-0.026-0.031-5.448-5.448-0.174-0.162c-1.247-1.083-3.107-1.085-4.357-0.007l-0.183 0.17-5.474 5.478c-0.526-0.717-0.836-1.602-0.836-2.559v-8.667c0-2.393 1.94-4.333 4.333-4.333h8.667zM14.667 16c-0.736 0-1.333 0.597-1.333 1.333s0.597 1.333 1.333 1.333c0.736 0 1.333-0.597 1.333-1.333s-0.597-1.333-1.333-1.333zM25 2.667c2.311 0 4.199 1.809 4.327 4.087l0.007 0.246v6.667c0 0.552-0.448 1-1 1-0.506 0-0.925-0.376-0.991-0.864l-0.009-0.136v-6.667c0-1.224-0.943-2.228-2.142-2.326l-0.191-0.008h-6.667c-0.552 0-1-0.448-1-1 0-0.506 0.376-0.925 0.864-0.991l0.136-0.009h6.667zM13.667 2.667c0.552 0 1 0.448 1 1 0 0.506-0.376 0.925-0.864 0.991l-0.136 0.009h-6.667c-1.224 0-2.228 0.943-2.326 2.142l-0.008 0.191-0 4.536c-0.799 0.389-1.486 0.972-2 1.688l0-6.224c0-2.311 1.809-4.199 4.087-4.326l0.246-0.007h6.667z"></path>
</svg>
