<!-- Generated by IcoMoon.io -->
<svg version="1.1" xmlns="http://www.w3.org/2000/svg" width="32" height="32" viewBox="0 0 32 32">
<title>reward-filled</title>
<path d="M27 2.666c1.289 0 2.333 1.045 2.333 2.333v4.057c0 1.366-0.759 2.618-1.969 3.25l-8.4 4.387c2.195 1.091 3.703 3.356 3.703 5.973 0 3.682-2.985 6.667-6.667 6.667s-6.667-2.985-6.667-6.667c0-2.617 1.508-4.882 3.703-5.973l-8.4-4.387c-1.21-0.632-1.969-1.885-1.969-3.25v-4.057c0-1.289 1.045-2.333 2.333-2.333h22zM16 18c-2.577 0-4.667 2.089-4.667 4.667s2.089 4.667 4.667 4.667c2.577 0 4.667-2.089 4.667-4.667s-2.089-4.667-4.667-4.667zM21.333 4.666h-10.671v8.531l5.183 2.708c0.097 0.051 0.212 0.051 0.309 0l5.179-2.707v-8.532z"></path>
</svg>
