<!-- Generated by IcoMoon.io -->
<svg version="1.1" xmlns="http://www.w3.org/2000/svg" width="32" height="32" viewBox="0 0 32 32">
<title>reward-filled</title>
<path d="M27 2.665c1.288 0 2.333 1.045 2.333 2.333v4.057c-0 1.404-0.79 2.624-1.949 3.24l-0.020 0.010-8.4 4.387c2.216 1.115 3.709 3.37 3.709 5.975 0 3.682-2.985 6.667-6.667 6.667-0.002 0-0.004 0-0.007 0h0c-0.001 0-0.002 0-0.004 0-3.682 0-6.667-2.985-6.667-6.667 0-2.603 1.492-4.858 3.668-5.956l0.038-0.017-8.4-4.387c-1.18-0.625-1.969-1.846-1.969-3.25 0-0 0-0 0-0.001v0-4.057c0-1.288 1.045-2.333 2.333-2.333h22zM16 17.999c-2.577 0-4.667 2.089-4.667 4.667s2.089 4.667 4.667 4.667v0c2.577 0 4.667-2.089 4.667-4.667s-2.089-4.667-4.667-4.667v0zM21.333 4.665h-10.671v8.531l5.183 2.707c0.045 0.024 0.098 0.038 0.155 0.038s0.11-0.014 0.156-0.039l-0.002 0.001 5.179-2.704v-8.533z"></path>
</svg>
