<!-- Generated by IcoMoon.io -->
<svg version="1.1" xmlns="http://www.w3.org/2000/svg" width="32" height="32" viewBox="0 0 32 32">
<title>ribbon-filled</title>
<path d="M10 21.813v7.187c0 0 0 0 0 0 0 0.552 0.448 1 1 1 0.19 0 0.367-0.053 0.518-0.145l-0.004 0.003 4.486-2.692 4.485 2.692c0.147 0.090 0.325 0.143 0.515 0.143 0.552 0 1-0.448 1-1 0-0 0-0.001 0-0.001v0-7.187c-1.702 1.059-3.768 1.687-5.981 1.687-0.007 0-0.013 0-0.020-0h0.001c-2.199 0-4.253-0.617-6-1.687zM22 20c-1.645 1.248-3.728 2-5.985 2-0.005 0-0.010 0-0.015 0h0.001c-0.004 0-0.010 0-0.015 0-2.419 0-4.636-0.863-6.361-2.297l0.016 0.013c-2.23-1.844-3.64-4.611-3.64-7.707 0-0.003 0-0.006 0-0.009v0c0-5.523 4.477-10 10-10s10 4.477 10 10c0 0.002 0 0.005 0 0.008 0 3.258-1.56 6.152-3.975 7.974l-0.025 0.018z"></path>
</svg>
