<!-- Generated by IcoMoon.io -->
<svg version="1.1" xmlns="http://www.w3.org/2000/svg" width="32" height="32" viewBox="0 0 32 32">
<title>ribbon-star-filled</title>
<path d="M22.667 28.327l0.003-8c-1.803 1.458-4.124 2.34-6.651 2.34-0.007 0-0.013 0-0.020-0h0.001c-0.005 0-0.011 0-0.018 0-2.526 0-4.846-0.882-6.669-2.354l0.020 0.016 0.004 8c0.001 0.551 0.449 0.998 1 0.998 0.215 0 0.415-0.068 0.578-0.184l-0.003 0.002 5.089-3.583 5.091 3.583c0.16 0.114 0.36 0.183 0.576 0.183 0.552 0 1-0.448 1-1v0zM25.333 12c0-5.155-4.179-9.333-9.333-9.333s-9.333 4.179-9.333 9.333v0c0 5.155 4.179 9.333 9.333 9.333s9.333-4.179 9.333-9.333v0zM16.305 7.523l1.216 2.471 2.725 0.393c0.28 0.040 0.391 0.384 0.189 0.58l-1.972 1.92 0.467 2.715c0.003 0.017 0.005 0.037 0.005 0.058 0 0.188-0.152 0.34-0.34 0.34-0.058 0-0.112-0.014-0.16-0.040l0.002 0.001-2.437-1.283-2.436 1.283c-0.046 0.025-0.1 0.039-0.158 0.039-0.188 0-0.34-0.152-0.34-0.34 0-0.020 0.002-0.040 0.005-0.060l-0 0.002 0.467-2.713-1.973-1.92c-0.064-0.062-0.104-0.149-0.104-0.245 0-0.171 0.127-0.313 0.291-0.337l0.002-0 2.725-0.393 1.216-2.471c0.057-0.114 0.172-0.19 0.305-0.19s0.249 0.077 0.304 0.188l0.001 0.002z"></path>
</svg>
