<!-- Generated by IcoMoon.io -->
<svg version="1.1" xmlns="http://www.w3.org/2000/svg" width="32" height="32" viewBox="0 0 32 32">
<title>ribbon-off-filled</title>
<path d="M6.758 8.173c-0.479 1.127-0.758 2.437-0.758 3.813 0 0.005 0 0.010 0 0.015v-0.001c0 0.003 0 0.007 0 0.010 0 3.257 1.561 6.15 3.975 7.972l0.025 0.018c1.645 1.248 3.727 2 5.985 2 0.005 0 0.011 0 0.016 0h-0.001c1.355 0 2.648-0.27 3.827-0.759l1.135 1.136c-1.447 0.709-3.148 1.123-4.946 1.123-0.005 0-0.011 0-0.016 0h0.001c-2.199 0-4.253-0.617-6-1.687v7.187c0 0 0 0 0 0 0 0.552 0.448 1 1 1 0.19 0 0.367-0.053 0.518-0.145l-0.004 0.003 4.486-2.692 4.485 2.692c0.147 0.090 0.325 0.143 0.515 0.143 0.552 0 1-0.448 1-1 0-0 0-0.001 0-0.001v0-5.586l6.293 6.293c0.18 0.174 0.425 0.281 0.695 0.281 0.552 0 1-0.448 1-1 0-0.27-0.107-0.515-0.281-0.695l-26-26c-0.181-0.181-0.431-0.293-0.708-0.293-0.552 0-1 0.448-1 1 0 0.276 0.112 0.526 0.293 0.707l4.466 4.466zM8.7 5.166l14.134 14.134c1.951-1.825 3.166-4.415 3.166-7.288 0-0.004 0-0.008 0-0.012v0.001c0-5.523-4.477-10-10-10-0.003 0-0.008 0-0.012 0-2.874 0-5.463 1.216-7.283 3.16l-0.005 0.006z"></path>
</svg>
