<!-- Generated by IcoMoon.io -->
<svg version="1.1" xmlns="http://www.w3.org/2000/svg" width="32" height="32" viewBox="0 0 32 32">
<title>road-cone-filled</title>
<path d="M14.925 2.667c-0 0-0 0-0 0-0.781 0-1.436 0.537-1.617 1.262l-0.002 0.011c-0.921 3.789-2.047 7.932-3.18 12.060h6.875c0.552 0 1 0.448 1 1s-0.448 1-1 1v0h-7.425l-0.733 2.667h9.491c0.552 0 1 0.448 1 1s-0.448 1-1 1v0h-10.037c0.297-1.51-0.131 0.052-0.549 1.618l-0.694 3.049h-3.387c-0.552 0-1 0.448-1 1s0.448 1 1 1v0h24.667c0.552 0 1-0.448 1-1s-0.448-1-1-1v0h-3.387l-6.249-23.429c-0.196-0.718-0.842-1.237-1.609-1.237h-2.163z"></path>
</svg>
