<!-- Generated by IcoMoon.io -->
<svg version="1.1" xmlns="http://www.w3.org/2000/svg" width="32" height="32" viewBox="0 0 32 32">
<title>road-cone-filled</title>
<path d="M14.925 2.667c-0.769 0-1.439 0.526-1.62 1.274-0.921 3.789-2.046 7.932-3.18 12.060h6.875c0.552 0 1 0.448 1 1s-0.448 1-1 1h-7.425c-0.246 0.894-0.491 1.784-0.733 2.667h9.491c0.552 0 1 0.448 1 1s-0.448 1-1 1h-10.037c-0.434 1.598-0.852 3.161-1.243 4.667h-3.387c-0.552 0-1 0.448-1 1s0.448 1 1 1h24.667c0.552 0 1-0.448 1-1s-0.448-1-1-1h-3.387l-6.248-23.429c-0.195-0.73-0.855-1.237-1.61-1.237h-2.162z"></path>
</svg>
