<!-- Generated by IcoMoon.io -->
<svg version="1.1" xmlns="http://www.w3.org/2000/svg" width="32" height="32" viewBox="0 0 32 32">
<title>rocket-filled</title>
<path d="M17.409 9.907c0.603-0.603 1.437-0.976 2.357-0.976 1.841 0 3.334 1.493 3.334 3.334 0 0.921-0.373 1.754-0.976 2.357v0c-0.602 0.597-1.431 0.966-2.347 0.966-1.841 0-3.333-1.492-3.333-3.333 0-0.915 0.369-1.744 0.966-2.347l-0 0zM20.709 11.321c-0.241-0.241-0.575-0.39-0.943-0.39-0.737 0-1.334 0.597-1.334 1.334 0 0.368 0.149 0.702 0.391 0.943v0c0.241 0.241 0.575 0.39 0.943 0.39 0.737 0 1.334-0.597 1.334-1.334 0-0.368-0.149-0.702-0.391-0.943v0zM26.264 3.348c1.155 0.367 2.047 1.259 2.406 2.389l0.007 0.026 0.276 0.885c0.257 0.799 0.406 1.718 0.406 2.672 0 2.485-1.008 4.736-2.636 6.364l-1.331 1.331c0.58 0.769 0.928 1.74 0.928 2.792 0 1.288-0.522 2.453-1.366 3.297l-1.656 1.657c-0.181 0.181-0.431 0.292-0.707 0.292s-0.526-0.112-0.707-0.292v0l-2.12-2.12-0.236 0.236c-0.422 0.422-1.006 0.683-1.65 0.683s-1.228-0.261-1.65-0.683l-0.649-0.649-1.081 1.853c-0.177 0.299-0.497 0.496-0.864 0.496-0.276 0-0.526-0.112-0.707-0.292v0l-5.187-5.187c-0.18-0.181-0.292-0.43-0.292-0.706 0-0.363 0.193-0.68 0.482-0.856l0.004-0.003 1.845-1.105-0.627-0.627c-0.423-0.422-0.684-1.006-0.684-1.651s0.261-1.228 0.684-1.651l0.24-0.24-2.123-2.12c-0.181-0.181-0.292-0.431-0.292-0.707s0.112-0.526 0.292-0.707v0l1.657-1.657c0.844-0.844 2.010-1.366 3.298-1.366 1.053 0 2.025 0.349 2.806 0.938l-0.012-0.009 1.328-1.328c1.629-1.629 3.879-2.636 6.364-2.636 0.952 0 1.869 0.148 2.73 0.422l-0.064-0.018 0.884 0.275zM26.768 6.356c-0.167-0.525-0.572-0.931-1.086-1.094l-0.012-0.003-0.883-0.273c-0.621-0.2-1.334-0.315-2.075-0.315-1.933 0-3.683 0.784-4.95 2.051l-7.195 7.195c-0.060 0.060-0.098 0.144-0.098 0.236s0.037 0.176 0.098 0.236v0l7.076 7.075c0.060 0.060 0.143 0.097 0.235 0.097s0.175-0.037 0.235-0.097v0l7.195-7.193c1.266-1.267 2.049-3.016 2.049-4.948 0-0.742-0.115-1.457-0.329-2.128l0.014 0.050-0.275-0.887zM8.92 24.525c0.166-0.178 0.268-0.418 0.268-0.682 0-0.552-0.448-1-1-1-0.264 0-0.504 0.102-0.682 0.269l0.001-0.001-3.301 3.299c-0.181 0.181-0.293 0.431-0.293 0.707 0 0.552 0.448 1 1 1 0.276 0 0.526-0.112 0.707-0.293l3.3-3.3zM6.327 20.52c0.181 0.181 0.292 0.431 0.292 0.707s-0.112 0.526-0.292 0.707l-1.413 1.415c-0.18 0.174-0.425 0.281-0.695 0.281-0.552 0-1-0.448-1-1 0-0.27 0.107-0.515 0.281-0.695l1.413-1.414c0.181-0.181 0.431-0.293 0.707-0.293s0.526 0.112 0.707 0.293v0zM11.509 27.123c0.196-0.183 0.318-0.443 0.318-0.732 0-0.552-0.448-1-1-1-0.289 0-0.549 0.122-0.731 0.318l-0.001 0.001-1.412 1.411c-0.166 0.178-0.268 0.418-0.268 0.682 0 0.552 0.448 1 1 1 0.264 0 0.504-0.102 0.682-0.269l-0.001 0.001 1.413-1.411z"></path>
</svg>
