<!-- Generated by IcoMoon.io -->
<svg version="1.1" xmlns="http://www.w3.org/2000/svg" width="32" height="32" viewBox="0 0 32 32">
<title>rocket-filled</title>
<path d="M17.409 9.908c1.302-1.302 3.412-1.302 4.714 0s1.302 3.412 0 4.714c-1.302 1.302-3.412 1.302-4.714 0s-1.302-3.412 0-4.714zM20.709 11.323c-0.521-0.521-1.365-0.521-1.886 0s-0.521 1.365 0 1.886c0.521 0.521 1.365 0.521 1.886 0s0.521-1.365 0-1.886z"></path>
<path d="M26.263 3.35c1.153 0.358 2.056 1.261 2.415 2.414l0.275 0.886c0.992 3.192 0.133 6.671-2.231 9.035l-1.331 1.331c1.37 1.826 1.224 4.429-0.437 6.090l-1.657 1.657c-0.391 0.391-1.024 0.391-1.414 0l-2.119-2.119-0.236 0.236c-0.911 0.911-2.389 0.911-3.3 0l-0.649-0.649-1.082 1.854c-0.156 0.268-0.428 0.448-0.735 0.488s-0.616-0.065-0.835-0.285l-5.185-5.185c-0.218-0.218-0.323-0.524-0.285-0.83s0.215-0.577 0.479-0.735l1.846-1.105-0.628-0.627c-0.911-0.911-0.911-2.389 0-3.3l0.24-0.24-2.121-2.121c-0.391-0.391-0.391-1.024 0-1.414l1.657-1.657c1.662-1.662 4.266-1.807 6.092-0.435l1.328-1.328c2.363-2.363 5.84-3.222 9.032-2.232l0.883 0.274zM26.768 6.357c-0.163-0.524-0.573-0.934-1.098-1.097l-0.883-0.274c-2.482-0.77-5.187-0.102-7.025 1.736l-7.195 7.195c-0.13 0.13-0.13 0.341 0 0.471l7.075 7.075c0.13 0.13 0.341 0.13 0.471 0l7.194-7.194c1.838-1.838 2.506-4.544 1.735-7.027l-0.275-0.886z"></path>
<path d="M8.92 24.526c0.391-0.391 0.391-1.024 0-1.414s-1.024-0.391-1.414 0l-3.3 3.3c-0.391 0.391-0.391 1.024 0 1.414s1.024 0.391 1.414 0l3.3-3.3z"></path>
<path d="M6.327 20.519c0.391 0.391 0.391 1.024 0 1.414l-1.414 1.414c-0.391 0.391-1.024 0.391-1.414 0s-0.391-1.024 0-1.414l1.414-1.414c0.391-0.391 1.024-0.391 1.414 0z"></path>
<path d="M11.51 27.122c0.391-0.391 0.391-1.024 0-1.414s-1.024-0.391-1.414 0l-1.411 1.411c-0.391 0.391-0.391 1.024 0 1.414s1.024 0.391 1.414 0l1.411-1.411z"></path>
</svg>
