<!-- Generated by IcoMoon.io -->
<svg version="1.1" xmlns="http://www.w3.org/2000/svg" width="32" height="32" viewBox="0 0 32 32">
<title>rotate-right-filled</title>
<path d="M12.667 20c0.552 0 1-0.448 1-1s-0.448-1-1-1v0h-0.667c-3.313 0-6-2.089-6-4.667 0-2.499 2.525-4.54 5.7-4.661l0.3-0.005h9.252l-2.293 2.293c-0.182 0.181-0.294 0.431-0.294 0.708 0 0.552 0.448 1 1 1 0.225 0 0.432-0.074 0.599-0.199l-0.003 0.002 0.112-0.097 4-4c0.181-0.181 0.292-0.431 0.292-0.707s-0.112-0.526-0.292-0.707v0l-4-4-0.112-0.097c-0.163-0.121-0.369-0.194-0.591-0.194-0.552 0-1 0.448-1 1 0 0.275 0.111 0.524 0.29 0.704l-0-0 2.291 2.293h-9.251c-4.419 0-8 2.985-8 6.667s3.581 6.667 8 6.667h0.667zM27.333 13.823c0.368 0 0.667 0.298 0.667 0.667v0 12.177c0 0.736-0.597 1.333-1.333 1.333v0h-21.517c-0 0-0.001 0-0.001 0-0.368 0-0.667-0.298-0.667-0.667 0-0.245 0.133-0.46 0.33-0.576l0.003-0.002 22.184-12.844c0.096-0.056 0.211-0.089 0.333-0.089 0 0 0.001 0 0.001 0h-0z"></path>
</svg>
