<!-- Generated by IcoMoon.io -->
<svg version="1.1" xmlns="http://www.w3.org/2000/svg" width="32" height="32" viewBox="0 0 32 32">
<title>rotate-right-filled</title>
<path d="M12.667 20c0.552 0 1-0.448 1-1s-0.448-1-1-1h-0.667c-3.314 0-6-2.089-6-4.667 0-2.499 2.526-4.54 5.701-4.661l0.299-0.006h9.252l-2.292 2.293c-0.391 0.391-0.391 1.024 0 1.414 0.355 0.355 0.911 0.387 1.302 0.097l0.112-0.097 4-4c0.391-0.391 0.391-1.024 0-1.414l-4-4-0.112-0.097c-0.391-0.29-0.947-0.258-1.302 0.097-0.391 0.391-0.391 1.024 0 1.414l2.291 2.293h-9.251c-4.418 0-8 2.985-8 6.667s3.582 6.667 8 6.667h0.667z"></path>
<path d="M27.333 13.823c0.368 0 0.667 0.299 0.667 0.667v12.177c0 0.736-0.597 1.333-1.333 1.333h-21.518c-0.238 0-0.458-0.127-0.577-0.333-0.184-0.319-0.076-0.727 0.243-0.911l22.185-12.844c0.102-0.059 0.217-0.090 0.334-0.090z"></path>
</svg>
