<!-- Generated by IcoMoon.io -->
<svg version="1.1" xmlns="http://www.w3.org/2000/svg" width="32" height="32" viewBox="0 0 32 32">
<title>router-filled</title>
<path d="M16 4.667c-5.523 0-10 4.477-10 10v0 0.333c0 0.552-0.448 1-1 1s-1-0.448-1-1v0-0.333c0-6.627 5.373-12 12-12s12 5.373 12 12v0 0.333c0 0.552-0.448 1-1 1s-1-0.448-1-1v0-0.333c0-5.523-4.477-10-10-10v0zM16 8.667c-3.314 0-6 2.686-6 6v0 0.333c0 0.552-0.448 1-1 1s-1-0.448-1-1v0-0.333c0-4.418 3.582-8 8-8s8 3.582 8 8v0 0.333c0 0.552-0.448 1-1 1s-1-0.448-1-1v0-0.333c0-3.314-2.686-6-6-6v0zM12 14.667c0-2.209 1.791-4 4-4s4 1.791 4 4c0 1.854-1.261 3.413-2.972 3.867l-0.028 0.006v2.793h7c2.209 0 4 1.791 4 4s-1.791 4-4 4v0h-16c-2.209 0-4-1.791-4-4s1.791-4 4-4v0h7v-2.793c-1.739-0.46-3-2.020-3-3.873v-0z"></path>
</svg>
