<!-- Generated by IcoMoon.io -->
<svg version="1.1" xmlns="http://www.w3.org/2000/svg" width="32" height="32" viewBox="0 0 32 32">
<title>rss-filled</title>
<path d="M8.333 4c-2.393 0-4.333 1.94-4.333 4.333v15.333c0 2.393 1.94 4.333 4.333 4.333h15.333c2.393 0 4.333-1.94 4.333-4.333v-15.333c0-2.393-1.94-4.333-4.333-4.333h-15.333zM9 10c-0.54 0-1-0.423-1-0.963v-0.073c0-0.524 0.407-0.962 0.931-0.964l0.069-0c8.284 0 15 6.716 15 15l-0 0.069c-0.002 0.524-0.44 0.931-0.964 0.931h-0.073c-0.54 0-0.963-0.46-0.963-1 0-7.18-5.82-13-13-13zM17.725 24h-0.121c-0.531 0-0.938-0.469-0.938-1 0-4.234-3.432-7.667-7.667-7.667-0.532 0-1-0.407-1-0.938v-0.121c0-0.506 0.383-0.935 0.889-0.941 0.037-0 0.074-0.001 0.111-0.001 5.339 0 9.667 4.328 9.667 9.667 0 0.037-0 0.074-0.001 0.111-0.006 0.506-0.435 0.889-0.941 0.889zM10 24c-1.105 0-2-0.895-2-2s0.895-2 2-2c1.105 0 2 0.895 2 2s-0.895 2-2 2z"></path>
</svg>
