<!-- Generated by IcoMoon.io -->
<svg version="1.1" xmlns="http://www.w3.org/2000/svg" width="32" height="32" viewBox="0 0 32 32">
<title>ruler-filled</title>
<path d="M9.348 5.21c0.152-1.435 1.356-2.543 2.818-2.543 0 0 0 0 0 0h7.667c1.565 0 2.833 1.269 2.833 2.833v0 21c0 1.565-1.269 2.833-2.833 2.833v0h-7.667c-1.565 0-2.833-1.269-2.833-2.833v0-21c0-0.098 0.005-0.195 0.015-0.29zM11 6.833v1.667h2.833c0.46 0 0.833-0.373 0.833-0.833s-0.373-0.833-0.833-0.833v0h-2.833zM11 11v1.667h5.5c0.46 0 0.833-0.373 0.833-0.833s-0.373-0.833-0.833-0.833v0h-5.5zM11 15.167v1.667h2.833c0.46 0 0.833-0.373 0.833-0.833s-0.373-0.833-0.833-0.833v0h-2.833zM11 19.333v1.667h5.5c0.46 0 0.833-0.373 0.833-0.833s-0.373-0.833-0.833-0.833v0h-5.5zM11 23.5v1.667h2.833c0.46 0 0.833-0.373 0.833-0.833s-0.373-0.833-0.833-0.833v0h-2.833z"></path>
</svg>
