<!-- Generated by IcoMoon.io -->
<svg version="1.1" xmlns="http://www.w3.org/2000/svg" width="32" height="32" viewBox="0 0 32 32">
<title>ruler-filled</title>
<path d="M20.337 2.665c1.289 0 2.333 1.045 2.333 2.333v22.004c0 1.289-1.045 2.333-2.333 2.333h-8.67c-1.289 0-2.333-1.045-2.333-2.333v-22.004c0-1.289 1.045-2.333 2.333-2.333h8.67zM16.333 10.667h-5v2h5c0.552 0 1-0.448 1-1s-0.448-1-1-1zM13.769 14.998h-2.436v2h2.436c0.552 0 1-0.448 1-1s-0.448-1-1-1zM16.333 19.333h-5v2h5c0.552 0 1-0.448 1-1s-0.448-1-1-1zM13.769 23.333h-2.436v2h2.436c0.552 0 1-0.448 1-1s-0.448-1-1-1zM13.769 6.665h-2.436v2h2.436c0.552 0 1-0.448 1-1s-0.448-1-1-1z"></path>
</svg>
