<!-- Generated by IcoMoon.io -->
<svg version="1.1" xmlns="http://www.w3.org/2000/svg" width="32" height="32" viewBox="0 0 32 32">
<title>run-filled</title>
<path d="M14.706 3.446c-0.165-0.062-0.344-0.079-0.518-0.049-1.315 0.224-2.66 0.875-3.873 1.639-1.226 0.772-2.383 1.703-3.333 2.559-0.735 0.662-1.357 1.29-1.802 1.782-0.009 0.010-0.017 0.020-0.026 0.030-0.127 0.152-0.348 0.384-0.616 0.667-0.079 0.083-0.161 0.17-0.247 0.26-0.341 0.36-0.75 0.799-0.982 1.127-0.508 0.72-0.995 1.494-1.449 2.326-0.133 0.244-0.158 0.533-0.069 0.797 1.199 3.551 4.938 6.809 9.321 9.152 4.425 2.365 9.755 3.933 14.452 3.933h1.117c0.551 0 0.997-0.447 0.997-0.997v-3.728c0-1.388-0.784-2.656-2.025-3.277l-3.176-1.589c-0.53-0.643-1.152-1.575-1.666-2.571-0.496-0.961-0.846-1.892-0.959-2.627l0.722-1.189c0.623-1.027 1.557-1.829 2.666-2.291l1.145-0.477c0.378-0.157 0.621-0.529 0.614-0.939s-0.264-0.772-0.647-0.916l-9.645-3.62zM25.681 22.958c-2.111-0.28-3-0.531-4.683-1.016l1.188-1.78 2.573 1.287c0.565 0.283 0.922 0.861 0.922 1.493v0.016zM20.347 23.831c1.857 0.535 2.841 0.819 5.334 1.139v0.703h-0.119c-4.302 0-9.31-1.451-13.512-3.697-4.042-2.161-7.115-4.935-8.22-7.628 0.115-0.201 0.233-0.399 0.352-0.592 1.136 1.351 2.877 3.025 5.221 4.739 1.926 1.408 3.475 2.381 6.245 3.7 0.027 0.013 0.055 0.025 0.083 0.035l3.333 1.231c0.025 0.009 0.050 0.017 0.075 0.025 0.448 0.126 0.845 0.241 1.208 0.345zM11.716 11.913l-2.698-3.447c0.728-0.612 1.533-1.222 2.36-1.742 1.016-0.64 2.010-1.11 2.893-1.31l7.145 2.682c-1.036 0.635-1.912 1.51-2.549 2.558l-0.435 0.717-3.657-1.693c-0.37-0.171-0.808-0.1-1.104 0.18s-0.392 0.713-0.242 1.093l2.869 7.231-0.733 1.752c-1.855-0.927-3.094-1.697-4.478-2.685l0.826-4.543c0.051-0.28-0.020-0.569-0.196-0.793z"></path>
</svg>
