<!-- Generated by IcoMoon.io -->
<svg version="1.1" xmlns="http://www.w3.org/2000/svg" width="32" height="32" viewBox="0 0 32 32">
<title>run-filled</title>
<path d="M14.707 3.447c-0.104-0.040-0.225-0.064-0.351-0.064-0.060 0-0.118 0.005-0.175 0.015l0.006-0.001c-1.315 0.224-2.66 0.875-3.873 1.64-1.252 0.809-2.34 1.651-3.353 2.575l0.020-0.018c-0.647 0.582-1.243 1.173-1.809 1.792l-0.018 0.020c-0.127 0.152-0.347 0.384-0.616 0.667l-0.248 0.26c-0.34 0.36-0.749 0.8-0.981 1.127-0.508 0.72-0.995 1.493-1.449 2.327-0.133 0.244-0.159 0.533-0.069 0.796 1.2 3.552 4.939 6.809 9.32 9.152 4.427 2.365 9.756 3.933 14.453 3.933h1.116c0.551 0 0.997-0.447 0.997-0.997v0-3.728c0-0 0-0.001 0-0.001 0-1.426-0.815-2.662-2.005-3.267l-0.021-0.010-3.176-1.589c-0.606-0.75-1.159-1.592-1.625-2.487l-0.040-0.084c-0.496-0.96-0.845-1.891-0.96-2.627l0.723-1.189c0.628-1.022 1.542-1.814 2.63-2.277l0.037-0.014 1.145-0.477c0.364-0.154 0.614-0.508 0.614-0.921 0-0.425-0.266-0.788-0.641-0.932l-0.007-0.002-9.645-3.62zM25.681 22.959c-2.112-0.28-3-0.531-4.683-1.016l1.187-1.78 2.573 1.287c0.565 0.283 0.923 0.861 0.923 1.493v0.016zM20.348 23.831c1.856 0.536 2.84 0.82 5.333 1.14v0.703h-0.12c-4.301 0-9.309-1.452-13.511-3.697-4.043-2.16-7.115-4.935-8.22-7.628 0.115-0.201 0.232-0.4 0.352-0.592 1.135 1.351 2.877 3.025 5.221 4.739 1.925 1.408 3.475 2.381 6.244 3.7 0.027 0.013 0.055 0.025 0.083 0.035l3.333 1.232c0.018 0.007 0.042 0.015 0.068 0.022l0.007 0.002c0.448 0.127 0.845 0.241 1.208 0.347zM11.715 11.913l-2.697-3.447c0.728-0.612 1.533-1.223 2.36-1.743 1.016-0.64 2.009-1.111 2.893-1.311l7.145 2.683c-1.047 0.648-1.904 1.507-2.53 2.524l-0.019 0.033-0.435 0.717-3.657-1.693c-0.123-0.058-0.267-0.092-0.419-0.092-0.551 0-0.997 0.447-0.997 0.997 0 0.132 0.026 0.258 0.072 0.374l-0.002-0.007 2.869 7.232-0.733 1.752c-1.719-0.849-3.186-1.742-4.566-2.747l0.088 0.061 0.827-4.543c0.010-0.053 0.016-0.114 0.016-0.177 0-0.234-0.080-0.448-0.215-0.618l0.002 0.002z"></path>
</svg>
