<!-- Generated by IcoMoon.io -->
<svg version="1.1" xmlns="http://www.w3.org/2000/svg" width="32" height="32" viewBox="0 0 32 32">
<title>sanitize-filled</title>
<path d="M4.828 14.162c-1.562-1.562-1.562-4.095 0-5.657l4.343-4.343c1.562-1.562 4.095-1.562 5.657 0l4.889 4.889c-0.061 0.093-0.116 0.191-0.164 0.293-0.355-0.218-0.773-0.344-1.22-0.344-1.289 0-2.333 1.045-2.333 2.333v6.037c-0.218-0.027-0.441-0.042-0.667-0.042-0.887 0-1.661 0.221-2.259 0.522-0.292 0.147-0.593 0.339-0.859 0.581-0.045 0.041-0.094 0.088-0.146 0.142-0.099 0.103-0.207 0.23-0.309 0.382-0.117 0.174-0.427 0.671-0.427 1.379 0 0.122 0.010 0.243 0.028 0.361l-6.533-6.533zM22.667 10.333v7.667c0 0.368 0.299 0.667 0.667 0.667s0.667-0.298 0.667-0.667v-6.667c0-0.552 0.448-1 1-1s1 0.448 1 1v7.331c0 0.368 0.299 0.667 0.667 0.667s0.667-0.298 0.667-0.667v-5.664c0-0.552 0.448-1 1-1s1 0.448 1 1v9.333c0 0.832-0.366 1.848-0.747 2.716-0.401 0.912-0.9 1.834-1.303 2.536-0.642 1.118-1.832 1.748-3.073 1.748h-1.518c-1.174 0-2.277-0.562-2.967-1.512l-1.836-2.529-2.211-2.521-2.542-1.589c-0.292-0.183-0.47-0.503-0.47-0.848 0-0.316 0.139-0.544 0.201-0.635 0.078-0.116 0.168-0.21 0.246-0.281 0.159-0.144 0.352-0.271 0.561-0.376 0.423-0.213 0.993-0.379 1.659-0.379 0.705 0 1.427 0.205 2.003 0.422-0.002-0.028-0.003-0.056-0.003-0.084v-7.667c0-0.552 0.448-1 1-1s1 0.448 1 1v6.667c0 0.368 0.299 0.667 0.667 0.667s0.667-0.298 0.667-0.667v-7.667c0-0.552 0.448-1 1-1s1 0.448 1 1zM5.668 18.667c0.552 0 1 0.448 1 1v0.997h0.994c0.552 0 1 0.448 1 1s-0.448 1-1 1h-0.994l0 1.008c0 0.552-0.448 1-1 1s-1-0.448-1-1l-0-1.008h-1.002c-0.552 0-1-0.448-1-1s0.448-1 1-1h1.002v-0.997c0-0.552 0.448-1 1-1zM12.002 24.333c0-0.552-0.448-1-1-1s-1 0.448-1 1v0.997h-1.002c-0.552 0-1 0.448-1 1s0.448 1 1 1h1.002l0 1.008c0 0.552 0.448 1 1 1s1-0.448 1-1l-0-1.008h0.994c0.552 0 1-0.448 1-1s-0.448-1-1-1h-0.994v-0.997z"></path>
</svg>
