<!-- Generated by IcoMoon.io -->
<svg version="1.1" xmlns="http://www.w3.org/2000/svg" width="32" height="32" viewBox="0 0 32 32">
<title>save-multiple-filled</title>
<path d="M7.667 4h1.667v4.333c0 1.657 1.343 3 3 3h3.333c1.657 0 3-1.343 3-3v-3.98c0.499 0.215 0.958 0.524 1.35 0.916l2.714 2.714c0.813 0.813 1.269 1.915 1.269 3.064v9.286c0 2.025-1.642 3.667-3.667 3.667h-0.333v-6.333c0-1.657-1.343-3-3-3h-6c-1.657 0-3 1.343-3 3v6.333h-0.333c-2.025 0-3.667-1.642-3.667-3.667v-12.667c0-2.025 1.642-3.667 3.667-3.667zM10 24h8v-6.333c0-0.552-0.448-1-1-1h-6c-0.552 0-1 0.448-1 1v6.333zM11.333 4h5.333v4.333c0 0.552-0.448 1-1 1h-3.333c-0.552 0-1-0.448-1-1v-4.333zM14.333 28c-1.822 0-3.463-0.769-4.619-2h11.952c2.393 0 4.333-1.94 4.333-4.333v-10.414l0.731 0.731c0.813 0.813 1.269 1.915 1.269 3.064v6.619c0 3.498-2.836 6.333-6.333 6.333h-7.333z"></path>
</svg>
