<!-- Generated by IcoMoon.io -->
<svg version="1.1" xmlns="http://www.w3.org/2000/svg" width="32" height="32" viewBox="0 0 32 32">
<title>save-image-filled</title>
<path d="M8 3.2c-1.767 0-3.2 1.433-3.2 3.2v0 16c0 1.767 1.433 3.2 3.2 3.2v0-8.8c0-1.325 1.075-2.4 2.4-2.4v0h16c0.272 0 0.539 0.019 0.8 0.056v-5.462c-0-0.884-0.358-1.683-0.938-2.262l-2.594-2.594c-0.579-0.579-1.379-0.937-2.262-0.938h-0.606v5.6c0 1.325-1.075 2.4-2.4 2.4v0h-6.4c-1.325 0-2.4-1.075-2.4-2.4v0-5.6h-1.6zM16.080 16c-1.037 1.015-1.68 2.428-1.68 3.992 0 0.003 0 0.005 0 0.008v-0 5.6h-4.8v-8.8c0-0.442 0.358-0.8 0.8-0.8v0h5.68zM19.2 3.2h-8v5.6c0 0.442 0.358 0.8 0.8 0.8v0h6.4c0.442 0 0.8-0.358 0.8-0.8v0-5.6zM16 20c0-2.209 1.791-4 4-4v0h6.4c2.209 0 4 1.791 4 4v0 6.4c0 0.816-0.243 1.573-0.662 2.206l-4.84-4.84c-0.434-0.435-1.035-0.704-1.698-0.704s-1.263 0.269-1.698 0.703l-4.84 4.84c-0.415-0.619-0.662-1.38-0.662-2.199 0-0.003 0-0.005 0-0.008v0-6.4zM27.2 20.4c0-0.663-0.537-1.2-1.2-1.2s-1.2 0.537-1.2 1.2v0c0 0.663 0.537 1.2 1.2 1.2s1.2-0.537 1.2-1.2v0zM17.794 29.738c0.634 0.419 1.392 0.662 2.206 0.662h6.4c0.816 0 1.573-0.243 2.206-0.662l-4.84-4.84c-0.145-0.145-0.345-0.235-0.566-0.235s-0.422 0.090-0.566 0.235l-4.84 4.84z"></path>
</svg>
