<!-- Generated by IcoMoon.io -->
<svg version="1.1" xmlns="http://www.w3.org/2000/svg" width="32" height="32" viewBox="0 0 32 32">
<title>save-sync-filled</title>
<path d="M4.8 8c0-1.767 1.433-3.2 3.2-3.2v0h1.6v5.6c0 1.325 1.075 2.4 2.4 2.4v0h6.4c1.325 0 2.4-1.075 2.4-2.4v0-5.6h0.606c0.884 0 1.683 0.358 2.262 0.938l2.594 2.594c0.579 0.579 0.937 1.379 0.938 2.262v4.766c-1.159-0.605-2.53-0.96-3.985-0.96-0.005 0-0.010 0-0.015 0h0.001c-1.883 0-3.629 0.592-5.061 1.6h-7.739c-1.325 0-2.4 1.075-2.4 2.4v0 8.8c-1.767 0-3.2-1.433-3.2-3.2v0-16zM14.4 23.2c0-2.128 0.755-4.080 2.011-5.6h-6.011c-0.442 0-0.8 0.358-0.8 0.8v0 8.8h5.76c-0.605-1.159-0.96-2.53-0.96-3.985 0-0.005 0-0.010 0-0.015v0.001zM19.2 4.8h-8v5.6c0 0.442 0.358 0.8 0.8 0.8v0h6.4c0.442 0 0.8-0.358 0.8-0.8v0-5.6zM16 23.2c0 3.976 3.224 7.2 7.2 7.2s7.2-3.224 7.2-7.2v0c0-3.976-3.224-7.2-7.2-7.2s-7.2 3.224-7.2 7.2v0zM26.4 18.4c0.442 0 0.8 0.358 0.8 0.8v0 2.4c0 0.442-0.358 0.8-0.8 0.8v0h-2.4c-0.442 0-0.8-0.358-0.8-0.8s0.358-0.8 0.8-0.8v0h0.749c-0.447-0.252-0.981-0.401-1.55-0.401-0.884 0-1.684 0.359-2.263 0.938l-0 0c-0.142 0.131-0.332 0.211-0.541 0.211-0.442 0-0.8-0.358-0.8-0.8 0-0.209 0.081-0.4 0.212-0.543l-0 0.001c0.869-0.868 2.069-1.406 3.394-1.406 0.883 0 1.711 0.238 2.422 0.655l-0.023-0.012v-0.243c0-0.442 0.358-0.8 0.8-0.8v0zM24.998 27.251c-0.532 0.221-1.15 0.349-1.798 0.349-0.884 0-1.712-0.239-2.423-0.656l0.023 0.012v0.243c0 0.442-0.358 0.8-0.8 0.8s-0.8-0.358-0.8-0.8v0-2.4c0-0.442 0.358-0.8 0.8-0.8v0h2.4c0.442 0 0.8 0.358 0.8 0.8s-0.358 0.8-0.8 0.8v0h-0.749c0.447 0.252 0.981 0.401 1.55 0.401 0.884 0 1.684-0.359 2.263-0.938l0-0c0.142-0.131 0.332-0.211 0.541-0.211 0.442 0 0.8 0.358 0.8 0.8 0 0.209-0.081 0.4-0.212 0.543l0-0.001c-0.454 0.456-0.998 0.816-1.595 1.056z"></path>
</svg>
