<!-- Generated by IcoMoon.io -->
<svg version="1.1" xmlns="http://www.w3.org/2000/svg" width="32" height="32" viewBox="0 0 32 32">
<title>save-filled</title>
<path d="M9 4h-1.333c-2.025 0-3.667 1.642-3.667 3.667v16.667c0 2.025 1.642 3.667 3.667 3.667h0.333v-8c0-1.657 1.343-3 3-3h10c1.657 0 3 1.343 3 3v8h0.333c2.025 0 3.667-1.642 3.667-3.667v-13.286c0-1.149-0.457-2.251-1.269-3.064l-2.714-2.714c-0.802-0.801-1.885-1.257-3.017-1.269v6c0 1.657-1.343 3-3 3h-6c-1.657 0-3-1.343-3-3v-6z"></path>
<path d="M19 4v6c0 0.552-0.448 1-1 1h-6c-0.552 0-1-0.448-1-1v-6h8z"></path>
<path d="M22 28v-8c0-0.552-0.448-1-1-1h-10c-0.552 0-1 0.448-1 1v8h12z"></path>
</svg>
