<!-- Generated by IcoMoon.io -->
<svg version="1.1" xmlns="http://www.w3.org/2000/svg" width="32" height="32" viewBox="0 0 32 32">
<title>save-copy-filled</title>
<path d="M27.328 7.502c1.168 0.41 2.005 1.523 2.005 2.831v13.333c0 3.13-2.537 5.667-5.667 5.667h-13.333c-1.308 0-2.421-0.837-2.831-2.005l2.796 0.005 13.368 0.001c2.025 0 3.667-1.642 3.667-3.667v-13.333l-0.005-0.068 0-2.763zM22.996 2.667c1.657 0 3 1.343 3 3v17.329c0 1.657-1.343 3-3 3h-17.329c-1.657 0-3-1.343-3-3v-17.329c0-1.657 1.343-3 3-3h17.329zM14.333 9c-0.506 0-0.925 0.376-0.991 0.864l-0.009 0.136v3.333h-3.333c-0.552 0-1 0.448-1 1 0 0.506 0.376 0.925 0.864 0.991l0.136 0.009h3.333v3.333c0 0.552 0.448 1 1 1 0.506 0 0.925-0.376 0.991-0.864l0.009-0.136v-3.333h3.333c0.552 0 1-0.448 1-1 0-0.506-0.376-0.925-0.864-0.991l-0.136-0.009h-3.333v-3.333c0-0.552-0.448-1-1-1z"></path>
</svg>
