<!-- Generated by IcoMoon.io -->
<svg version="1.1" xmlns="http://www.w3.org/2000/svg" width="32" height="32" viewBox="0 0 32 32">
<title>save-arrow-right-filled</title>
<path d="M9 4h-1.333c-2.025 0-3.667 1.642-3.667 3.667v16.667c0 2.025 1.642 3.667 3.667 3.667h0.333v-8c0-1.657 1.343-3 3-3h6.417c1.549-1.447 3.629-2.333 5.916-2.333 1.718 0 3.32 0.5 4.667 1.362v-4.982c0-1.149-0.457-2.251-1.269-3.064l-2.714-2.714c-0.802-0.801-1.885-1.257-3.017-1.269v6c0 1.657-1.343 3-3 3h-6c-1.657 0-3-1.343-3-3v-6zM11 19h4.826c-0.737 1.275-1.159 2.755-1.159 4.333 0 1.718 0.5 3.32 1.362 4.667h-6.029v-8c0-0.552 0.448-1 1-1zM19 4v6c0 0.552-0.448 1-1 1h-6c-0.552 0-1-0.448-1-1v-6h8zM30.667 23.333c0 4.050-3.283 7.333-7.333 7.333s-7.333-3.283-7.333-7.333c0-4.050 3.283-7.333 7.333-7.333s7.333 3.283 7.333 7.333zM19.333 22.667c-0.368 0-0.667 0.299-0.667 0.667s0.299 0.667 0.667 0.667h6.391l-2.195 2.195c-0.26 0.26-0.26 0.683 0 0.943s0.683 0.26 0.943 0l3.333-3.333c0.26-0.26 0.26-0.683 0-0.943l-3.333-3.333c-0.26-0.26-0.683-0.26-0.943 0s-0.26 0.683 0 0.943l2.195 2.195h-6.391z"></path>
</svg>
