<!-- Generated by IcoMoon.io -->
<svg version="1.1" xmlns="http://www.w3.org/2000/svg" width="32" height="32" viewBox="0 0 32 32">
<title>save-arrow-right-filled</title>
<path d="M9 4h-1.333c-2.025 0-3.667 1.642-3.667 3.667v0 16.667c0 2.025 1.642 3.667 3.667 3.667v0h0.333v-8c0-1.657 1.343-3 3-3v0h6.417c1.54-1.445 3.618-2.333 5.904-2.333 0.004 0 0.008 0 0.013 0h-0.001c0.004 0 0.009 0 0.013 0 1.728 0 3.337 0.508 4.687 1.383l-0.034-0.020v-4.981c0-0 0-0.001 0-0.001 0-1.197-0.485-2.28-1.269-3.064l-2.713-2.713c-0.773-0.774-1.838-1.256-3.015-1.269l-0.003-0v6c0 1.657-1.343 3-3 3v0h-6c-1.657 0-3-1.343-3-3v0-6zM11 19h4.827c-0.729 1.239-1.16 2.73-1.16 4.321 0 0.004 0 0.009 0 0.013v-0.001c0 0.004 0 0.009 0 0.013 0 1.728 0.508 3.337 1.383 4.687l-0.020-0.034h-6.029v-8c0-0.552 0.448-1 1-1v0zM19 4v6c0 0.552-0.448 1-1 1v0h-6c-0.552 0-1-0.448-1-1v0-6h8zM30.667 23.333c0 4.050-3.283 7.333-7.333 7.333s-7.333-3.283-7.333-7.333v0c0-4.050 3.283-7.333 7.333-7.333s7.333 3.283 7.333 7.333v0zM19.333 22.667c-0.368 0-0.667 0.298-0.667 0.667s0.298 0.667 0.667 0.667v0h6.391l-2.196 2.195c-0.121 0.121-0.195 0.288-0.195 0.472 0 0.369 0.299 0.668 0.668 0.668 0.184 0 0.351-0.075 0.472-0.195l3.333-3.333c0.121-0.121 0.196-0.288 0.196-0.472s-0.075-0.351-0.196-0.472v0l-3.333-3.333c-0.121-0.121-0.288-0.195-0.472-0.195-0.369 0-0.668 0.299-0.668 0.668 0 0.184 0.075 0.351 0.195 0.472l2.196 2.195h-6.391z"></path>
</svg>
