<!-- Generated by IcoMoon.io -->
<svg version="1.1" xmlns="http://www.w3.org/2000/svg" width="32" height="32" viewBox="0 0 32 32">
<title>save-multiple-filled</title>
<path d="M8 4.48h1.6v4.16c0 1.591 1.289 2.88 2.88 2.88v0h3.2c1.591 0 2.88-1.289 2.88-2.88v0-3.821c0.503 0.22 0.933 0.516 1.297 0.879l2.605 2.605c0.781 0.781 1.219 1.839 1.219 2.943v8.914c0 1.944-1.576 3.52-3.52 3.52v0h-0.32v-6.080c0-1.591-1.289-2.88-2.88-2.88v0h-5.76c-1.591 0-2.88 1.289-2.88 2.88v0 6.080h-0.32c-1.944 0-3.52-1.576-3.52-3.52v0-12.16c0-1.944 1.576-3.52 3.52-3.52v0zM10.24 23.68h7.68v-6.080c0-0.53-0.43-0.96-0.96-0.96v0h-5.76c-0.53 0-0.96 0.43-0.96 0.96v0 6.080zM11.52 4.48h5.12v4.16c0 0.53-0.43 0.96-0.96 0.96v0h-3.2c-0.53 0-0.96-0.43-0.96-0.96v0-4.16zM14.4 27.52c-0.002 0-0.005 0-0.007 0-1.745 0-3.318-0.737-4.424-1.917l-0.003-0.003h11.474c2.297 0 4.16-1.863 4.16-4.16v0-9.997l0.701 0.701c0.781 0.78 1.219 1.838 1.219 2.941v6.354c0 3.358-2.722 6.080-6.080 6.080v0h-7.040z"></path>
</svg>
