<!-- Generated by IcoMoon.io -->
<svg version="1.1" xmlns="http://www.w3.org/2000/svg" width="32" height="32" viewBox="0 0 32 32">
<title>save-search-filled</title>
<path d="M4.8 8c0-1.767 1.433-3.2 3.2-3.2v0h1.6v5.6c0 1.325 1.075 2.4 2.4 2.4v0h6.4c1.325 0 2.4-1.075 2.4-2.4v0-5.6h0.606c0.884 0 1.683 0.358 2.262 0.938l2.594 2.594c0.579 0.579 0.937 1.379 0.938 2.262v13.406c0 1.767-1.433 3.2-3.2 3.2v0-8.8c0-1.325-1.075-2.4-2.4-2.4v0h-6.674c-1.225-0.997-2.805-1.601-4.527-1.601-2.256 0-4.269 1.037-5.59 2.661l-0.010 0.013v-9.074zM16.899 24.704l2.496 2.496h3.005v-8.8c0-0.442-0.358-0.8-0.8-0.8v0h-5.211c0.759 1.124 1.212 2.51 1.212 4.002 0 1.128-0.259 2.195-0.72 3.145l0.019-0.043zM19.2 4.8h-8v5.6c0 0.442 0.358 0.8 0.8 0.8v0h6.4c0.442 0 0.8-0.358 0.8-0.8v0-5.6zM16 21.6c0 1.258-0.416 2.419-1.115 3.354l4.080 4.080c0.145 0.145 0.235 0.345 0.235 0.566 0 0.442-0.358 0.8-0.8 0.8-0.221 0-0.421-0.089-0.566-0.234v0l-4.080-4.080c-0.923 0.696-2.089 1.115-3.354 1.115-3.093 0-5.6-2.507-5.6-5.6s2.507-5.6 5.6-5.6c3.092 0 5.599 2.506 5.6 5.598v0zM6.4 21.6c0 2.209 1.791 4 4 4s4-1.791 4-4v0c0-2.209-1.791-4-4-4s-4 1.791-4 4v0z"></path>
</svg>
