<!-- Generated by IcoMoon.io -->
<svg version="1.1" xmlns="http://www.w3.org/2000/svg" width="32" height="32" viewBox="0 0 32 32">
<title>save-edit-filled</title>
<path d="M9 4h-1.333c-2.025 0-3.667 1.642-3.667 3.667v0 16.667c0 2.025 1.642 3.667 3.667 3.667v0h0.333v-8c0-1.657 1.343-3 3-3v0h9.804l2.384-2.384c0.792-0.792 1.886-1.283 3.094-1.283 0.001 0 0.001 0 0.002 0h0.003c0.583 0 1.167 0.116 1.713 0.348v-2.632c0-0 0-0.001 0-0.001 0-1.197-0.485-2.28-1.269-3.064l-2.713-2.713c-0.773-0.774-1.838-1.257-3.015-1.271l-0.003-0v6c0 1.657-1.343 3-3 3v0h-6c-1.657 0-3-1.343-3-3v0-6zM18.804 19l-3.487 3.487c-0.612 0.612-1.063 1.384-1.285 2.249l-0.007 0.034-0.611 2.44c-0.067 0.269-0.093 0.533-0.083 0.791h-3.332v-8c0-0.552 0.448-1 1-1v0h7.804zM19 4v6c0 0.552-0.448 1-1 1v0h-6c-0.552 0-1-0.448-1-1v0-6h8zM26.287 14.667h-0.003c-0.78 0-1.56 0.297-2.153 0.893l-7.869 7.869c-0.446 0.446-0.775 1.008-0.937 1.638l-0.005 0.025-0.611 2.441c-0.027 0.106-0.043 0.227-0.043 0.352 0 0.8 0.649 1.449 1.449 1.449 0.125 0 0.247-0.016 0.363-0.046l-0.010 0.002 2.44-0.609c0.655-0.167 1.218-0.496 1.664-0.943l7.869-7.869c0.552-0.552 0.894-1.314 0.894-2.156 0-1.683-1.364-3.047-3.047-3.047-0 0-0 0-0.001 0h0z"></path>
</svg>
