<!-- Generated by IcoMoon.io -->
<svg version="1.1" xmlns="http://www.w3.org/2000/svg" width="32" height="32" viewBox="0 0 32 32">
<title>save-copy-filled</title>
<path d="M27.328 7.503c1.178 0.423 2.005 1.53 2.005 2.83 0 0 0 0 0 0v-0 13.333c0 3.13-2.537 5.667-5.667 5.667v0h-13.333c-0 0-0 0-0 0-1.3 0-2.408-0.827-2.824-1.984l-0.007-0.021 2.796 0.005h13.368c2.025 0 3.667-1.642 3.667-3.667v0-13.333l-0.005-0.068v-2.763zM22.995 2.667c1.657 0 3 1.343 3 3v0 17.329c0 1.657-1.343 3-3 3v0h-17.328c-1.657 0-3-1.343-3-3v0-17.329c0-1.657 1.343-3 3-3v0h17.329zM14.333 9c-0.504 0-0.921 0.373-0.99 0.859l-0.001 0.005-0.009 0.136v3.333h-3.333c-0.552 0-1 0.448-1 1 0 0.504 0.373 0.921 0.858 0.99l0.005 0.001 0.136 0.009h3.333v3.333c0 0.552 0.448 1 1 1 0.504 0 0.921-0.373 0.99-0.858l0.001-0.005 0.009-0.136v-3.333h3.333c0.552-0 1-0.448 1-1 0-0.504-0.373-0.921-0.858-0.99l-0.005-0.001-0.136-0.009h-3.333v-3.333c0-0.552-0.448-1-1-1v0z"></path>
</svg>
