<!-- Generated by IcoMoon.io -->
<svg version="1.1" xmlns="http://www.w3.org/2000/svg" width="32" height="32" viewBox="0 0 32 32">
<title>save-edit-filled</title>
<path d="M9 4h-1.333c-2.025 0-3.667 1.642-3.667 3.667v16.667c0 2.025 1.642 3.667 3.667 3.667h0.333v-8c0-1.657 1.343-3 3-3h9.804l2.383-2.383c0.855-0.855 1.978-1.283 3.096-1.283h0.003c0.583 0 1.167 0.117 1.713 0.349v-2.635c0-1.149-0.457-2.251-1.269-3.064l-2.714-2.714c-0.802-0.801-1.885-1.257-3.017-1.269v6c0 1.657-1.343 3-3 3h-6c-1.657 0-3-1.343-3-3v-6z"></path>
<path d="M18.804 19l-3.486 3.486c-0.63 0.63-1.076 1.419-1.292 2.283l-0.61 2.441c-0.067 0.268-0.093 0.533-0.084 0.79h-3.331v-8c0-0.552 0.448-1 1-1h7.804z"></path>
<path d="M19 4v6c0 0.552-0.448 1-1 1h-6c-0.552 0-1-0.448-1-1v-6h8z"></path>
<path d="M26.287 14.667h-0.003c-0.779 0-1.559 0.298-2.154 0.893l-7.87 7.87c-0.459 0.459-0.784 1.034-0.942 1.663l-0.61 2.441c-0.265 1.061 0.696 2.023 1.758 1.758l2.441-0.61c0.63-0.157 1.205-0.483 1.663-0.942l7.87-7.87c1.19-1.19 1.19-3.12 0-4.31-0.595-0.595-1.374-0.892-2.153-0.893z"></path>
</svg>
