<!-- Generated by IcoMoon.io -->
<svg version="1.1" xmlns="http://www.w3.org/2000/svg" width="32" height="32" viewBox="0 0 32 32">
<title>savings-filled</title>
<path d="M25.097 14.837c1.24-0.857 2.164-2.095 2.609-3.542l0.012-0.047c0.133 0.181 0.259 0.369 0.376 0.564 0.805 1.332 1.239 2.939 1.239 4.853 0 2.943-1.111 5-2.24 6.319-0.514 0.597-1.092 1.117-1.73 1.556l-0.030 0.020v2.439c0 0 0 0.001 0 0.001 0 1.289-1.045 2.333-2.333 2.333h-1.667c-1.105 0-2-0.895-2-2v0h-2.667c0 1.105-0.895 2-2 2v0h-1.667c-1.289 0-2.333-1.045-2.333-2.333v0-0.911c-0.274-0.092-0.478-0.171-0.68-0.256l0.061 0.023c-1.070-0.446-1.984-1.060-2.756-1.817l0.001 0.001c-0.818-0.825-1.528-1.758-2.106-2.776l-0.034-0.065c-0.088-0.172-0.245-0.299-0.434-0.343l-0.004-0.001c-1.169-0.2-2.048-1.206-2.048-2.417v0-2.337c0-1.124 0.813-2.083 1.92-2.267 0.116-0.020 0.288-0.136 0.369-0.379 0.256-0.769 0.753-1.912 1.671-2.829 0.643-0.631 1.369-1.182 2.159-1.634l0.052-0.027c0.181-0.104 0.349-0.193 0.496-0.267v-3.804c0-1.251 1.507-1.764 2.32-0.955 0.44 0.439 1.080 1.023 1.788 1.512 0.707 0.488 1.383 0.809 1.939 0.88-0.45 0.874-0.715 1.908-0.715 3.003 0 0.435 0.042 0.861 0.121 1.272l-0.007-0.042c0.241 1.276 1.219 2.083 2.136 2.464l4.928 2.040c0.919 0.38 2.179 0.5 3.253-0.232zM10.667 14.665c0.736 0 1.333-0.597 1.333-1.333s-0.597-1.333-1.333-1.333v0c-0.736 0-1.333 0.597-1.333 1.333s0.597 1.333 1.333 1.333v0zM24.345 13.736c1.222-0.845 2.068-2.161 2.274-3.68l0.003-0.028c0.028-0.206 0.044-0.445 0.044-0.687 0-2.946-2.388-5.333-5.333-5.333s-5.333 2.388-5.333 5.333c0 0.345 0.033 0.683 0.096 1.010l-0.005-0.033c0.033 0.173 0.092 0.336 0.173 0.487 0.067 0.124 0.147 0.24 0.24 0.347 0.243 0.28 0.568 0.499 0.923 0.647l4.928 2.040c0.653 0.271 1.407 0.297 1.991-0.101z"></path>
</svg>
