<!-- Generated by IcoMoon.io -->
<svg version="1.1" xmlns="http://www.w3.org/2000/svg" width="32" height="32" viewBox="0 0 32 32">
<title>scales-filled</title>
<path d="M5 4c-0.552 0-1 0.448-1 1s0.448 1 1 1h1.389l-3.649 8.956c-0.049 0.12-0.074 0.248-0.074 0.377 0 2.577 2.089 4.667 4.667 4.667s4.667-2.089 4.667-4.667c0-0.129-0.025-0.257-0.074-0.377l-3.649-8.956h6.723v16h-5.329c-1.657 0-3 1.343-3 3s1.343 3 3 3h12.663c1.657 0 3-1.343 3-3s-1.343-3-3-3h-5.333v-16h6.723l-3.649 8.956c-0.049 0.12-0.074 0.248-0.074 0.377 0 2.577 2.089 4.667 4.667 4.667s4.667-2.089 4.667-4.667c0-0.129-0.025-0.257-0.074-0.377l-3.649-8.956h1.389c0.552 0 1-0.448 1-1s-0.448-1-1-1h-22zM7.333 8.984l2.179 5.35h-4.359l2.179-5.35zM22.487 14.333l2.179-5.35 2.179 5.35h-4.359z"></path>
</svg>
