<!-- Generated by IcoMoon.io -->
<svg version="1.1" xmlns="http://www.w3.org/2000/svg" width="32" height="32" viewBox="0 0 32 32">
<title>scales-filled</title>
<path d="M5 4c-0.552 0-1 0.448-1 1s0.448 1 1 1v0h1.557l-3.491 9.143c-0.042 0.106-0.066 0.229-0.066 0.357v0c0 2.577 1.923 4.5 4.5 4.5s4.5-1.923 4.5-4.5c-0-0.128-0.024-0.251-0.068-0.364l0.002 0.007-3.49-9.143h6.556v16h-6c-1.657 0-3 1.343-3 3s1.343 3 3 3v0h14c1.657 0 3-1.343 3-3s-1.343-3-3-3v0h-6v-16h6.434l-3.372 9.154c-0.039 0.103-0.062 0.222-0.062 0.346v0c0 2.577 1.923 4.5 4.5 4.5s4.5-1.923 4.5-4.5c-0-0.124-0.023-0.243-0.064-0.353l0.002 0.007-3.372-9.154h1.434c0.552 0 1-0.448 1-1s-0.448-1-1-1v0h-22zM7.5 9.137l2.048 5.363h-4.096l2.048-5.363zM22.434 14.5l2.066-5.607 2.066 5.607h-4.132z"></path>
</svg>
