<!-- Generated by IcoMoon.io -->
<svg version="1.1" xmlns="http://www.w3.org/2000/svg" width="32" height="32" viewBox="0 0 32 32">
<title>scale-fill-filled</title>
<path d="M7 4c-1.657 0-3 1.343-3 3v18c0 1.657 1.343 3 3 3h18c1.657 0 3-1.343 3-3v-18c0-1.657-1.343-3-3-3h-18zM8 9c0-0.552 0.448-1 1-1h3.333c0.552 0 1 0.448 1 1s-0.448 1-1 1h-0.919l2.293 2.293c0.391 0.391 0.391 1.024 0 1.414s-1.024 0.391-1.414 0l-2.293-2.293v0.921c0 0.552-0.448 1-1 1s-1-0.448-1-1v-3.335zM23.708 23.709c-0.187 0.188-0.442 0.293-0.707 0.293h-3.333c-0.552 0-1-0.448-1-1s0.448-1 1-1h0.919l-2.294-2.294c-0.391-0.391-0.39-1.024 0-1.414s1.024-0.39 1.414 0l2.294 2.294v-0.92c0-0.552 0.448-1 1-1s1 0.448 1 1v3.335c0 0.265-0.105 0.52-0.293 0.707zM24.001 9.001v3.333c0 0.552-0.448 1-1 1s-1-0.448-1-1v-0.92l-2.294 2.293c-0.391 0.391-1.024 0.39-1.414-0s-0.39-1.024 0-1.414l2.293-2.292h-0.92c-0.552 0-1-0.448-1-1s0.448-1 1-1h3.335c0.265 0 0.52 0.105 0.707 0.293s0.293 0.442 0.293 0.707zM8.293 23.708c-0.188-0.187-0.293-0.442-0.293-0.707v-3.333c0-0.552 0.448-1 1-1s1 0.448 1 1v0.919l2.293-2.293c0.39-0.391 1.024-0.391 1.414-0s0.391 1.024 0 1.414l-2.293 2.294h0.921c0.552 0 1 0.448 1 1s-0.448 1-1 1h-3.335c-0.265 0-0.52-0.105-0.707-0.293z"></path>
</svg>
