<!-- Generated by IcoMoon.io -->
<svg version="1.1" xmlns="http://www.w3.org/2000/svg" width="32" height="32" viewBox="0 0 32 32">
<title>scan-type-checkmark-filled</title>
<path d="M7.333 5.333c-1.105 0-2 0.895-2 2v3.333c0 0.736-0.597 1.333-1.333 1.333s-1.333-0.597-1.333-1.333v-3.333c0-2.577 2.089-4.667 4.667-4.667h3.333c0.736 0 1.333 0.597 1.333 1.333s-0.597 1.333-1.333 1.333h-3.333zM7.333 26.667c-1.105 0-2-0.895-2-2v-3.333c0-0.736-0.597-1.333-1.333-1.333s-1.333 0.597-1.333 1.333v3.333c0 2.577 2.089 4.667 4.667 4.667h3.333c0.736 0 1.333-0.597 1.333-1.333s-0.597-1.333-1.333-1.333h-3.333zM26.667 7.333c0-1.105-0.895-2-2-2h-3.333c-0.736 0-1.333-0.597-1.333-1.333s0.597-1.333 1.333-1.333h3.333c2.577 0 4.667 2.089 4.667 4.667v3.333c0 0.736-0.597 1.333-1.333 1.333s-1.333-0.597-1.333-1.333v-3.333zM10.333 8c-0.736 0-1.333 0.597-1.333 1.333v2c0 0.736 0.597 1.333 1.333 1.333s1.333-0.597 1.333-1.333v-0.667h3v10.667h-1.667c-0.736 0-1.333 0.597-1.333 1.333s0.597 1.333 1.333 1.333h1.692c-0.017-0.22-0.025-0.442-0.025-0.667 0-2.458 1.023-4.677 2.667-6.254v-6.413h3v0.667c0 0.736 0.597 1.333 1.333 1.333s1.333-0.597 1.333-1.333v-2c0-0.736-0.597-1.333-1.333-1.333h-11.333zM30.667 23.333c0 4.050-3.283 7.333-7.333 7.333s-7.333-3.283-7.333-7.333c0-4.050 3.283-7.333 7.333-7.333s7.333 3.283 7.333 7.333zM27.805 20.195c-0.26-0.26-0.683-0.26-0.943 0l-4.862 4.862-2.195-2.195c-0.26-0.26-0.683-0.26-0.943 0s-0.26 0.683 0 0.943l2.667 2.667c0.26 0.26 0.683 0.26 0.943 0l5.333-5.333c0.26-0.26 0.26-0.683 0-0.943z"></path>
</svg>
