<!-- Generated by IcoMoon.io -->
<svg version="1.1" xmlns="http://www.w3.org/2000/svg" width="32" height="32" viewBox="0 0 32 32">
<title>scan-table-filled</title>
<path d="M3.663 20c0.504 0 0.921 0.373 0.99 0.859l0.001 0.005 0.009 0.136v4.669l0.008 0.171c0.083 0.786 0.702 1.405 1.481 1.487l0.007 0.001 0.171 0.008h4.667l0.136 0.009c0.491 0.069 0.864 0.486 0.864 0.991s-0.373 0.921-0.858 0.99l-0.005 0.001-0.136 0.009h-4.667l-0.224-0.007c-1.846-0.116-3.315-1.582-3.435-3.416l-0.001-0.011-0.007-0.233v-4.669l0.009-0.136c0.069-0.491 0.486-0.864 0.991-0.864v0zM28.329 20c0.504 0 0.921 0.373 0.99 0.859l0.001 0.005 0.009 0.136v4.669c0 0 0 0 0 0 0 1.947-1.517 3.539-3.433 3.659l-0.011 0.001-0.223 0.007h-4.667c-0.552-0-1-0.448-1-1 0-0.504 0.373-0.921 0.858-0.99l0.005-0.001 0.136-0.009h4.667c0.86-0 1.568-0.652 1.657-1.489l0.001-0.007 0.009-0.171v-4.669c0-0.552 0.448-1 1-1v0zM24 14.667v5.333c0 0 0 0 0 0 0 2.127-1.66 3.866-3.754 3.993l-0.011 0.001-0.235 0.007h-8c-0 0-0 0-0 0-2.127 0-3.866-1.66-3.993-3.754l-0.001-0.011-0.007-0.235v-5.333h16zM20 8c0 0 0 0 0 0 2.127 0 3.866 1.659 3.993 3.754l0.001 0.011 0.007 0.235v0.667h-16v-0.667c0-0 0-0 0-0 0-2.127 1.659-3.866 3.754-3.993l0.011-0.001 0.235-0.007h8zM10.996 2.667c0.552 0 1 0.448 1 1 0 0.504-0.373 0.921-0.858 0.99l-0.005 0.001-0.136 0.009h-4.667c-0 0-0 0-0.001 0-0.86 0-1.568 0.652-1.657 1.489l-0.001 0.007-0.008 0.171v4.669c-0 0.552-0.448 1-1 1-0.504 0-0.921-0.373-0.99-0.858l-0.001-0.005-0.009-0.136v-4.669c0-0 0-0 0-0 0-1.946 1.516-3.538 3.432-3.659l0.011-0.001 0.224-0.007h4.667zM25.663 2.667l0.223 0.007c1.846 0.116 3.315 1.582 3.435 3.416l0.001 0.011 0.008 0.233v4.669l-0.009 0.136c-0.069 0.491-0.486 0.864-0.991 0.864s-0.921-0.373-0.99-0.858l-0.001-0.005-0.009-0.136v-4.669l-0.009-0.171c-0.083-0.786-0.701-1.404-1.479-1.487l-0.007-0.001-0.171-0.008h-4.667l-0.136-0.009c-0.491-0.069-0.864-0.486-0.864-0.991s0.373-0.921 0.858-0.99l0.005-0.001 0.136-0.009h4.667z"></path>
</svg>
