<!-- Generated by IcoMoon.io -->
<svg version="1.1" xmlns="http://www.w3.org/2000/svg" width="32" height="32" viewBox="0 0 32 32">
<title>scan-object-filled</title>
<path d="M4.667 7c0-1.288 1.045-2.333 2.333-2.333h4c0.552 0 1-0.448 1-1s-0.448-1-1-1v0h-4c-2.393 0-4.333 1.94-4.333 4.333v0 4c0 0.552 0.448 1 1 1s1-0.448 1-1v0-4zM27.333 7c0-1.289-1.045-2.333-2.333-2.333v0h-4c-0.552 0-1-0.448-1-1s0.448-1 1-1v0h4c2.393 0 4.333 1.94 4.333 4.333v0 4c0 0.552-0.448 1-1 1s-1-0.448-1-1v0-4zM7 27.333c-1.289 0-2.333-1.045-2.333-2.333v0-4c0-0.552-0.448-1-1-1s-1 0.448-1 1v0 4c0 2.393 1.94 4.333 4.333 4.333v0h4c0.552 0 1-0.448 1-1s-0.448-1-1-1v0h-4zM27.333 25c0 1.289-1.045 2.333-2.333 2.333v0h-4c-0.552 0-1 0.448-1 1s0.448 1 1 1v0h4c2.393 0 4.333-1.94 4.333-4.333v0-4c0-0.552-0.448-1-1-1s-1 0.448-1 1v0 4zM18.427 10.969c-0.552-0.753-1.433-1.236-2.427-1.236s-1.875 0.483-2.421 1.228l-0.006 0.008-4.072 5.6c-1.443 1.983-0.027 4.764 2.427 4.764h8.144c2.453 0 3.869-2.781 2.427-4.764l-4.072-5.6z"></path>
</svg>
