<!-- Generated by IcoMoon.io -->
<svg version="1.1" xmlns="http://www.w3.org/2000/svg" width="32" height="32" viewBox="0 0 32 32">
<title>scan-thumb-up-filled</title>
<path d="M4.667 7c0-1.289 1.045-2.333 2.333-2.333h4c0.552 0 1-0.448 1-1s-0.448-1-1-1h-4c-2.393 0-4.333 1.94-4.333 4.333v4c0 0.552 0.448 1 1 1s1-0.448 1-1v-4zM27.333 7c0-1.289-1.045-2.333-2.333-2.333h-4c-0.552 0-1-0.448-1-1s0.448-1 1-1h4c2.393 0 4.333 1.94 4.333 4.333v4c0 0.552-0.448 1-1 1s-1-0.448-1-1v-4zM7 27.333c-1.289 0-2.333-1.045-2.333-2.333v-4c0-0.552-0.448-1-1-1s-1 0.448-1 1v4c0 2.393 1.94 4.333 4.333 4.333h4c0.552 0 1-0.448 1-1s-0.448-1-1-1h-4zM27.333 25c0 1.289-1.045 2.333-2.333 2.333h-4c-0.552 0-1 0.448-1 1s0.448 1 1 1h4c2.393 0 4.333-1.94 4.333-4.333v-4c0-0.552-0.448-1-1-1s-1 0.448-1 1v4zM15.052 8.566c0.353-0.821 1.418-1.873 2.906-1.487 0.934 0.242 1.606 0.801 1.985 1.57 0.331 0.67 0.388 1.401 0.4 1.955 0.011 0.529-0.074 1.104-0.183 1.619h0.259c2.077 0 3.763 1.91 3.109 3.988l-1.532 4.872c-0.622 1.976-2.8 3-4.771 2.422l-6.016-1.764c-0.934-0.274-1.711-0.944-2.076-1.849l-0.584-1.451c-0.585-1.453 0.054-3.048 1.407-3.793l2.056-1.133c0.010-0.007 0.023-0.017 0.040-0.030 0.068-0.054 0.191-0.158 0.351-0.327 0.319-0.336 0.794-0.934 1.283-1.905 0.236-0.47 0.435-0.839 0.611-1.165l0.001-0.002c0.284-0.527 0.503-0.934 0.754-1.519z"></path>
</svg>
