<!-- Generated by IcoMoon.io -->
<svg version="1.1" xmlns="http://www.w3.org/2000/svg" width="32" height="32" viewBox="0 0 32 32">
<title>scan-dash-filled</title>
<path d="M8.333 4c-2.393 0-4.333 1.94-4.333 4.333v0 3.562c0 0.552 0.448 1 1 1s1-0.448 1-1v0-3.562c0-1.289 1.045-2.333 2.333-2.333v0h3.562c0.552 0 1-0.448 1-1s-0.448-1-1-1v0h-3.562zM20.105 4c-0.552 0-1 0.448-1 1s0.448 1 1 1v0h3.562c1.289 0 2.333 1.045 2.333 2.333v0 3.562c0 0.552 0.448 1 1 1s1-0.448 1-1v0-3.562c0-2.393-1.94-4.333-4.333-4.333v0h-3.562zM6 20.105c0-0.552-0.448-1-1-1s-1 0.448-1 1v0 3.562c0 2.393 1.94 4.333 4.333 4.333v0h3.562c0.552 0 1-0.448 1-1s-0.448-1-1-1v0h-3.562c-1.289 0-2.333-1.045-2.333-2.333v0-3.562zM28 20.105c0-0.552-0.448-1-1-1s-1 0.448-1 1v0 3.562c0 1.289-1.045 2.333-2.333 2.333v0h-3.562c-0.552 0-1 0.448-1 1s0.448 1 1 1v0h3.562c2.393 0 4.333-1.94 4.333-4.333v0-3.562zM9.667 15c-0.552 0-1 0.448-1 1s0.448 1 1 1v0h12.667c0.552 0 1-0.448 1-1s-0.448-1-1-1v0h-12.667z"></path>
</svg>
