<!-- Generated by IcoMoon.io -->
<svg version="1.1" xmlns="http://www.w3.org/2000/svg" width="32" height="32" viewBox="0 0 32 32">
<title>scan-camera-filled</title>
<path d="M4 8.333c0-2.393 1.94-4.333 4.333-4.333v0h3.562c0.552 0 1 0.448 1 1s-0.448 1-1 1v0h-3.562c-1.289 0-2.333 1.045-2.333 2.333v0 3.562c0 0.552-0.448 1-1 1s-1-0.448-1-1v0-3.562zM19.105 5c0-0.552 0.448-1 1-1v0h3.562c2.393 0 4.333 1.94 4.333 4.333v0 3.562c0 0.552-0.448 1-1 1s-1-0.448-1-1v0-3.562c0-1.289-1.045-2.333-2.333-2.333v0h-3.562c-0.552 0-1-0.448-1-1v0zM5 19.105c0.552 0 1 0.448 1 1v0 3.562c0 1.289 1.045 2.333 2.333 2.333v0h3.562c0.552 0 1 0.448 1 1s-0.448 1-1 1v0h-3.562c-2.393 0-4.333-1.94-4.333-4.333v0-3.562c0-0.552 0.448-1 1-1v0zM27 19.105c0.552 0 1 0.448 1 1v0 3.562c0 2.393-1.94 4.333-4.333 4.333v0h-3.562c-0.552 0-1-0.448-1-1s0.448-1 1-1v0h3.562c1.289 0 2.333-1.045 2.333-2.333v0-3.562c0-0.552 0.448-1 1-1v0zM18 16.333c0-1.105-0.895-2-2-2s-2 0.895-2 2v0c0 1.105 0.895 2 2 2s2-0.895 2-2v0zM18.577 10.409c-0.265-0.446-0.745-0.74-1.293-0.74-0 0-0 0-0 0h-2.535c-0.538 0-1.010 0.283-1.274 0.709l-0.004 0.006-0.583 0.949h-1.387c-1.197 0-2.167 0.97-2.167 2.167v0 6.333c0 1.197 0.97 2.167 2.167 2.167v0h9c1.197 0 2.167-0.97 2.167-2.167v0-6.333c0-1.197-0.97-2.167-2.167-2.167v0h-1.38l-0.543-0.925zM13 16.333c0-1.657 1.343-3 3-3s3 1.343 3 3v0c0 1.657-1.343 3-3 3s-3-1.343-3-3v0z"></path>
</svg>
