<!-- Generated by IcoMoon.io -->
<svg version="1.1" xmlns="http://www.w3.org/2000/svg" width="32" height="32" viewBox="0 0 32 32">
<title>scan-type-checkmark-filled</title>
<path d="M7.333 5.333c-1.105 0-2 0.895-2 2v0 3.333c0 0.736-0.597 1.333-1.333 1.333s-1.333-0.597-1.333-1.333v0-3.333c0-2.577 2.089-4.667 4.667-4.667v0h3.333c0.736 0 1.333 0.597 1.333 1.333s-0.597 1.333-1.333 1.333v0h-3.333zM7.333 26.667c-1.105 0-2-0.895-2-2v0-3.333c0-0.736-0.597-1.333-1.333-1.333s-1.333 0.597-1.333 1.333v0 3.333c0 2.577 2.089 4.667 4.667 4.667v0h3.333c0.736 0 1.333-0.597 1.333-1.333s-0.597-1.333-1.333-1.333v0h-3.333zM26.667 7.333c0-1.105-0.895-2-2-2v0h-3.333c-0.736 0-1.333-0.597-1.333-1.333s0.597-1.333 1.333-1.333v0h3.333c2.577 0 4.667 2.089 4.667 4.667v0 3.333c0 0.736-0.597 1.333-1.333 1.333s-1.333-0.597-1.333-1.333v0-3.333zM10.333 8c-0.736 0-1.333 0.597-1.333 1.333v0 2c0 0.736 0.597 1.333 1.333 1.333s1.333-0.597 1.333-1.333v0-0.667h3v10.667h-1.667c-0.736 0-1.333 0.597-1.333 1.333s0.597 1.333 1.333 1.333v0h1.692c-0.017-0.203-0.027-0.438-0.027-0.676 0-2.453 1.023-4.668 2.665-6.241l0.003-0.003v-6.413h3v0.667c0 0.736 0.597 1.333 1.333 1.333s1.333-0.597 1.333-1.333v0-2c0-0.736-0.597-1.333-1.333-1.333v0h-11.333zM30.667 23.333c0 4.050-3.283 7.333-7.333 7.333s-7.333-3.283-7.333-7.333v0c0-4.050 3.283-7.333 7.333-7.333s7.333 3.283 7.333 7.333v0zM27.805 20.195c-0.121-0.121-0.288-0.196-0.472-0.196s-0.351 0.075-0.472 0.196v0l-4.861 4.863-2.195-2.196c-0.121-0.121-0.288-0.195-0.472-0.195-0.369 0-0.668 0.299-0.668 0.668 0 0.184 0.075 0.351 0.195 0.472l2.667 2.667c0.121 0.121 0.288 0.196 0.472 0.196s0.351-0.075 0.472-0.196v0l5.333-5.333c0.121-0.121 0.196-0.288 0.196-0.472s-0.075-0.351-0.196-0.472v0z"></path>
</svg>
