<!-- Generated by IcoMoon.io -->
<svg version="1.1" xmlns="http://www.w3.org/2000/svg" width="32" height="32" viewBox="0 0 32 32">
<title>scan-dash-filled</title>
<path d="M8.667 4c-2.577 0-4.667 2.089-4.667 4.667v2.485c0 0.736 0.597 1.333 1.333 1.333s1.333-0.597 1.333-1.333v-2.485c0-1.105 0.895-2 2-2h2.485c0.736 0 1.333-0.597 1.333-1.333s-0.597-1.333-1.333-1.333h-2.485zM20.849 4c-0.736 0-1.333 0.597-1.333 1.333s0.597 1.333 1.333 1.333h2.485c1.105 0 2 0.895 2 2v2.485c0 0.736 0.597 1.333 1.333 1.333s1.333-0.597 1.333-1.333v-2.485c0-2.577-2.089-4.667-4.667-4.667h-2.485zM6.667 20.849c0-0.736-0.597-1.333-1.333-1.333s-1.333 0.597-1.333 1.333v2.485c0 2.577 2.089 4.667 4.667 4.667h2.485c0.736 0 1.333-0.597 1.333-1.333s-0.597-1.333-1.333-1.333h-2.485c-1.105 0-2-0.895-2-2v-2.485zM28 20.849c0-0.736-0.597-1.333-1.333-1.333s-1.333 0.597-1.333 1.333v2.485c0 1.105-0.895 2-2 2h-2.485c-0.736 0-1.333 0.597-1.333 1.333s0.597 1.333 1.333 1.333h2.485c2.577 0 4.667-2.089 4.667-4.667v-2.485zM10.667 14.667c-0.736 0-1.333 0.597-1.333 1.333s0.597 1.333 1.333 1.333h10.667c0.736 0 1.333-0.597 1.333-1.333s-0.597-1.333-1.333-1.333h-10.667z"></path>
</svg>
