<!-- Generated by IcoMoon.io -->
<svg version="1.1" xmlns="http://www.w3.org/2000/svg" width="32" height="32" viewBox="0 0 32 32">
<title>scan-text-filled</title>
<path d="M7.714 3.429c-2.367 0-4.286 1.919-4.286 4.286v0 3.714c0 0.631 0.512 1.143 1.143 1.143s1.143-0.512 1.143-1.143v0-3.714c0-1.104 0.896-2 2-2h3.714c0.631 0 1.143-0.512 1.143-1.143s-0.512-1.143-1.143-1.143v0h-3.714zM20.571 3.429c-0.631 0-1.143 0.512-1.143 1.143s0.512 1.143 1.143 1.143v0h3.714c1.104 0 2 0.896 2 2v3.714c0 0.631 0.512 1.143 1.143 1.143s1.143-0.512 1.143-1.143v0-3.714c0-2.367-1.919-4.286-4.286-4.286v0h-3.714zM5.714 20.571c0-0.631-0.512-1.143-1.143-1.143s-1.143 0.512-1.143 1.143v0 3.714c0 2.367 1.919 4.286 4.286 4.286v0h3.714c0.631 0 1.143-0.512 1.143-1.143s-0.512-1.143-1.143-1.143v0h-3.714c-1.105 0-2-0.895-2-2v0-3.714zM28.571 20.571c0-0.631-0.512-1.143-1.143-1.143s-1.143 0.512-1.143 1.143v0 3.714c0 1.105-0.895 2-2 2v0h-3.714c-0.631 0-1.143 0.512-1.143 1.143s0.512 1.143 1.143 1.143v0h3.714c2.367 0 4.286-1.919 4.286-4.286v0-3.714zM10.286 9.143c-0.631 0-1.143 0.512-1.143 1.143s0.512 1.143 1.143 1.143v0h11.429c0.631 0 1.143-0.512 1.143-1.143s-0.512-1.143-1.143-1.143v0h-11.429zM10.286 14.857c-0.631 0-1.143 0.512-1.143 1.143s0.512 1.143 1.143 1.143v0h11.429c0.631 0 1.143-0.512 1.143-1.143s-0.512-1.143-1.143-1.143v0h-11.429zM9.143 21.714c0-0.631 0.512-1.143 1.143-1.143v0h5.714c0.631 0 1.143 0.512 1.143 1.143s-0.512 1.143-1.143 1.143v0h-5.714c-0.631 0-1.143-0.512-1.143-1.143v0z"></path>
</svg>
