<!-- Generated by IcoMoon.io -->
<svg version="1.1" xmlns="http://www.w3.org/2000/svg" width="32" height="32" viewBox="0 0 32 32">
<title>scan-qr-code-filled</title>
<path d="M4 8.667c0-2.577 2.089-4.667 4.667-4.667v0h2.485c0.736 0 1.333 0.597 1.333 1.333s-0.597 1.333-1.333 1.333v0h-2.485c-1.105 0-2 0.895-2 2v0 2.485c0 0.736-0.597 1.333-1.333 1.333s-1.333-0.597-1.333-1.333v0-2.485zM19.515 5.333c0-0.736 0.597-1.333 1.333-1.333v0h2.485c2.577 0 4.667 2.089 4.667 4.667v0 2.485c0 0.736-0.597 1.333-1.333 1.333s-1.333-0.597-1.333-1.333v0-2.485c0-1.105-0.895-2-2-2v0h-2.485c-0.736 0-1.333-0.597-1.333-1.333v0zM5.333 19.515c0.736 0 1.333 0.597 1.333 1.333v0 2.485c0 1.105 0.895 2 2 2v0h2.485c0.736 0 1.333 0.597 1.333 1.333s-0.597 1.333-1.333 1.333v0h-2.485c-2.577 0-4.667-2.089-4.667-4.667v0-2.485c0-0.736 0.597-1.333 1.333-1.333v0zM26.667 19.515c0.736 0 1.333 0.597 1.333 1.333v0 2.485c0 2.577-2.089 4.667-4.667 4.667v0h-2.485c-0.736 0-1.333-0.597-1.333-1.333s0.597-1.333 1.333-1.333v0h2.485c1.105 0 2-0.895 2-2v0-2.485c0-0.736 0.597-1.333 1.333-1.333v0zM13.333 9.333h-4v4h4v5.333h-4v4h4v-4h5.333v4h4v-4h-4v-5.333h4v-4h-4v4h-5.333v-4z"></path>
</svg>
