<!-- Generated by IcoMoon.io -->
<svg version="1.1" xmlns="http://www.w3.org/2000/svg" width="32" height="32" viewBox="0 0 32 32">
<title>screenshot-filled</title>
<path d="M23 4c2.761 0 5 2.239 5 5v14c0 2.761-2.239 5-5 5h-14c-2.761 0-5-2.239-5-5v-14c0-2.761 2.239-5 5-5h14zM23 17.333c-0.506 0-0.925 0.376-0.991 0.864l-0.009 0.136v3c0 0.327-0.236 0.599-0.547 0.656l-0.12 0.011h-3c-0.552 0-1 0.448-1 1 0 0.506 0.376 0.925 0.864 0.991l0.136 0.009h3c1.406 0 2.558-1.088 2.659-2.468l0.007-0.199v-3c0-0.552-0.448-1-1-1zM9 17.333c-0.506 0-0.925 0.376-0.991 0.864l-0.009 0.136v3c0 1.406 1.088 2.558 2.468 2.659l0.199 0.007h3c0.552 0 1-0.448 1-1 0-0.506-0.376-0.925-0.864-0.991l-0.136-0.009h-3c-0.327 0-0.599-0.236-0.656-0.547l-0.011-0.12v-3c0-0.552-0.448-1-1-1zM13.667 8h-3l-0.199 0.007c-1.311 0.097-2.358 1.141-2.46 2.45l-0.008 0.209v3l0.009 0.136c0.066 0.488 0.485 0.864 0.991 0.864s0.925-0.376 0.991-0.864l0.009-0.136v-3l0.011-0.12c0.049-0.272 0.264-0.487 0.536-0.536l0.12-0.011h3l0.136-0.009c0.488-0.066 0.864-0.485 0.864-0.991s-0.376-0.925-0.864-0.991l-0.136-0.009zM21.333 8h-3c-0.552 0-1 0.448-1 1 0 0.506 0.376 0.925 0.864 0.991l0.136 0.009h3c0.327 0 0.599 0.236 0.656 0.547l0.011 0.12v3c0 0.552 0.448 1 1 1 0.506 0 0.925-0.376 0.991-0.864l0.009-0.136v-3c0-1.406-1.088-2.558-2.468-2.659l-0.199-0.007z"></path>
</svg>
