<!-- Generated by IcoMoon.io -->
<svg version="1.1" xmlns="http://www.w3.org/2000/svg" width="32" height="32" viewBox="0 0 32 32">
<title>screen-search-filled</title>
<path d="M2.667 9.667c0-2.393 1.94-4.333 4.333-4.333v0h18c2.393 0 4.333 1.94 4.333 4.333v0 12.667c0 2.393-1.94 4.333-4.333 4.333v0h-8.367l-2.733-2.733c0.485-0.953 0.769-2.078 0.769-3.269 0-4.050-3.283-7.333-7.333-7.333-1.78 0-3.411 0.634-4.681 1.688l0.012-0.010v-5.343zM7.333 26.667c0.003 0 0.006 0 0.009 0 1.301 0 2.504-0.416 3.485-1.122l-0.018 0.012 3.484 3.483c0.183 0.196 0.443 0.318 0.732 0.318 0.552 0 1-0.448 1-1 0-0.289-0.122-0.549-0.318-0.731l-0.001-0.001-3.483-3.484c0.694-0.966 1.109-2.172 1.109-3.476 0-3.314-2.686-6-6-6s-6 2.686-6 6c0 3.314 2.686 6 6 6v0zM7.333 24.667c-2.209 0-4-1.791-4-4s1.791-4 4-4v0c2.209 0 4 1.791 4 4s-1.791 4-4 4v0z"></path>
</svg>
