<!-- Generated by IcoMoon.io -->
<svg version="1.1" xmlns="http://www.w3.org/2000/svg" width="32" height="32" viewBox="0 0 32 32">
<title>screen-cut-filled</title>
<path d="M4.8 9.594c0-0.884 0.716-1.6 1.6-1.6v0h0.8c0.442 0 0.8-0.358 0.8-0.8s-0.358-0.8-0.8-0.8v0h-0.8c-1.767 0-3.2 1.433-3.2 3.2v0 0.8c0 0.442 0.358 0.8 0.8 0.8s0.8-0.358 0.8-0.8v0-0.8zM6.4 22.406c-0.884 0-1.6-0.716-1.6-1.6v0-0.8c0-0.442-0.358-0.8-0.8-0.8s-0.8 0.358-0.8 0.8v0 0.8c0 1.767 1.433 3.2 3.2 3.2v0h0.4c0.442 0 0.8-0.358 0.8-0.8s-0.358-0.8-0.8-0.8v0h-0.4zM4 12.8c0.442 0 0.8 0.358 0.8 0.8v0 3.2c0 0.442-0.358 0.8-0.8 0.8s-0.8-0.358-0.8-0.8v0-3.2c0-0.442 0.358-0.8 0.8-0.8v0zM27.2 9.594c0-0.884-0.716-1.6-1.6-1.6v0h-0.8c-0.442 0-0.8-0.358-0.8-0.8s0.358-0.8 0.8-0.8v0h0.8c1.767 0 3.2 1.433 3.2 3.2v0 0.8c0 0.442-0.358 0.8-0.8 0.8s-0.8-0.358-0.8-0.8v0-0.8zM27.2 20.806c0 0.884-0.716 1.6-1.6 1.6v0h-0.403c-0.442 0-0.8 0.358-0.8 0.8s0.358 0.8 0.8 0.8v0h0.403c1.767 0 3.2-1.433 3.2-3.2v0-0.8c0-0.442-0.358-0.8-0.8-0.8s-0.8 0.358-0.8 0.8v0 0.8zM27.2 13.6c0-0.442 0.358-0.8 0.8-0.8s0.8 0.358 0.8 0.8v0 3.2c0 0.442-0.358 0.8-0.8 0.8s-0.8-0.358-0.8-0.8v0-3.2zM9.6 7.194c0-0.442 0.358-0.8 0.8-0.8v0h4c0.442 0 0.8 0.358 0.8 0.8s-0.358 0.8-0.8 0.8v0h-4c-0.442 0-0.8-0.358-0.8-0.8v0zM17.6 6.394c-0.442 0-0.8 0.358-0.8 0.8s0.358 0.8 0.8 0.8v0h4c0.442 0 0.8-0.358 0.8-0.8s-0.358-0.8-0.8-0.8v0h-4zM8 9.6c-0.884 0-1.6 0.716-1.6 1.6v0 8c0 0.884 0.716 1.6 1.6 1.6v0h4.317l0.792-1.189-3.118-4.677c-0.252-0.374-0.403-0.834-0.403-1.33 0-0.831 0.423-1.563 1.066-1.993l0.009-0.005c0.373-0.25 0.832-0.398 1.326-0.398 0.831 0 1.563 0.421 1.995 1.062l0.005 0.009 2.005 3.008 2.005-3.008c0.438-0.649 1.17-1.070 2-1.070 0.493 0 0.952 0.149 1.333 0.403l-0.009-0.005c1.109 0.731 1.41 2.224 0.672 3.328l-3.115 4.677 0.792 1.189h4.328c0.884 0 1.6-0.716 1.6-1.6v0-8c0-0.884-0.716-1.6-1.6-1.6v0h-16z"></path>
<path d="M11.546 12.939c-0.217 0.144-0.359 0.388-0.359 0.665 0 0.165 0.050 0.318 0.136 0.445l-0.002-0.003 3.71 5.565-1.981 2.971c-0.312-0.112-0.673-0.177-1.048-0.177-1.767 0-3.2 1.433-3.2 3.2s1.433 3.2 3.2 3.2c0.432 0 0.844-0.086 1.22-0.241l-0.021 0.008c1.184-0.487 2.003-1.632 2.003-2.968 0-0.823-0.311-1.574-0.822-2.141l0.003 0.003 1.608-2.413 1.614 2.421c-0.505 0.563-0.813 1.311-0.813 2.131 0 1.767 1.433 3.2 3.2 3.2s3.2-1.433 3.2-3.2c0-1.767-1.433-3.2-3.2-3.2-0.378 0-0.741 0.066-1.078 0.186l0.022-0.007-1.984-2.974 0.003-0.005-0.962-1.442-0.003 0.005-3.338-5.005c-0.147-0.216-0.391-0.356-0.668-0.356-0.165 0-0.318 0.049-0.445 0.134l0.003-0.002zM20 27.2c-0.884 0-1.6-0.716-1.6-1.6s0.716-1.6 1.6-1.6v0c0.884 0 1.6 0.716 1.6 1.6s-0.716 1.6-1.6 1.6v0zM12 27.2c-0.884 0-1.6-0.716-1.6-1.6s0.716-1.6 1.6-1.6v0c0.884 0 1.6 0.716 1.6 1.6s-0.716 1.6-1.6 1.6v0zM16.958 16.722l0.96 1.443 2.747-4.118c0.084-0.124 0.135-0.278 0.135-0.443 0-0.277-0.141-0.52-0.356-0.663l-0.003-0.002c-0.125-0.084-0.278-0.134-0.444-0.134-0.278 0-0.522 0.141-0.666 0.355l-0.002 0.003-2.37 3.56z"></path>
</svg>
