<!-- Generated by IcoMoon.io -->
<svg version="1.1" xmlns="http://www.w3.org/2000/svg" width="32" height="32" viewBox="0 0 32 32">
<title>search-info-filled</title>
<path d="M23 13.333c-0.001-5.338-4.328-9.665-9.667-9.665s-9.667 4.328-9.667 9.667 4.328 9.667 9.667 9.667c2.317 0 4.444-0.815 6.109-2.175l-0.017 0.014 6.533 6.533 0.113 0.097c0.163 0.121 0.369 0.194 0.591 0.194 0.552 0 1-0.448 1-1 0-0.275-0.111-0.524-0.29-0.704l-6.533-6.535c1.345-1.643 2.16-3.764 2.16-6.076 0-0.005 0-0.011 0-0.017v0.001zM14.667 9.333c0 0.736-0.597 1.333-1.333 1.333s-1.333-0.597-1.333-1.333v0c0-0.736 0.597-1.333 1.333-1.333s1.333 0.597 1.333 1.333v0zM13.333 12c0.552 0 1 0.448 1 1v0 4.667c0 0.552-0.448 1-1 1s-1-0.448-1-1v0-4.667c0-0.552 0.448-1 1-1v0z"></path>
</svg>
