<!-- Generated by IcoMoon.io -->
<svg version="1.1" xmlns="http://www.w3.org/2000/svg" width="32" height="32" viewBox="0 0 32 32">
<title>search-visual-filled</title>
<path d="M4 8.667c0-2.577 2.089-4.667 4.667-4.667v0h3.333c0.736 0 1.333 0.597 1.333 1.333s-0.597 1.333-1.333 1.333v0h-3.333c-1.105 0-2 0.895-2 2v0 3.333c0 0.736-0.597 1.333-1.333 1.333s-1.333-0.597-1.333-1.333v0-3.333zM28 23.333c0 2.577-2.089 4.667-4.667 4.667v0h-3.333c-0.736 0-1.333-0.597-1.333-1.333s0.597-1.333 1.333-1.333v0h3.333c1.105 0 2-0.895 2-2v0-3.333c0-0.736 0.597-1.333 1.333-1.333s1.333 0.597 1.333 1.333v0 3.333zM28 8.667c0-2.577-2.089-4.667-4.667-4.667v0h-3.333c-0.736 0-1.333 0.597-1.333 1.333s0.597 1.333 1.333 1.333v0h3.333c1.105 0 2 0.895 2 2v0 3.333c0 0.736 0.597 1.333 1.333 1.333s1.333-0.597 1.333-1.333v0-3.333zM8.667 28c-2.577 0-4.667-2.089-4.667-4.667v0-3.333c0-0.736 0.597-1.333 1.333-1.333s1.333 0.597 1.333 1.333v0 3.333c0 1.105 0.895 2 2 2v0h3.333c0.736 0 1.333 0.597 1.333 1.333s-0.597 1.333-1.333 1.333v0h-3.333zM16 20c2.209 0 4-1.791 4-4s-1.791-4-4-4v0c-2.209 0-4 1.791-4 4s1.791 4 4 4v0zM10 11.667c0.92 0 1.667-0.746 1.667-1.667s-0.746-1.667-1.667-1.667v0c-0.92 0-1.667 0.746-1.667 1.667s0.746 1.667 1.667 1.667v0z"></path>
</svg>
