<!-- Generated by IcoMoon.io -->
<svg version="1.1" xmlns="http://www.w3.org/2000/svg" width="32" height="32" viewBox="0 0 32 32">
<title>search-info-filled</title>
<path d="M23 13.333c0-5.339-4.328-9.667-9.667-9.667s-9.667 4.328-9.667 9.667c0 5.339 4.328 9.667 9.667 9.667 2.309 0 4.429-0.81 6.092-2.161l6.535 6.534 0.112 0.097c0.391 0.291 0.947 0.258 1.302-0.097 0.391-0.391 0.391-1.024 0-1.414l-6.534-6.535c1.351-1.663 2.161-3.783 2.161-6.092zM14.667 9.333c0 0.736-0.597 1.333-1.333 1.333s-1.333-0.597-1.333-1.333c0-0.736 0.597-1.333 1.333-1.333s1.333 0.597 1.333 1.333zM13.333 12c0.552 0 1 0.448 1 1v4.667c0 0.552-0.448 1-1 1s-1-0.448-1-1v-4.667c0-0.552 0.448-1 1-1z"></path>
</svg>
