<!-- Generated by IcoMoon.io -->
<svg version="1.1" xmlns="http://www.w3.org/2000/svg" width="32" height="32" viewBox="0 0 32 32">
<title>search-filled</title>
<path d="M13.333 3.333c5.523 0 10 4.477 10 10 0 2.28-0.763 4.382-2.048 6.064l6.324 6.326c0.521 0.521 0.521 1.365 0 1.886-0.481 0.481-1.237 0.518-1.76 0.111l-0.126-0.111-6.326-6.324c-1.682 1.285-3.784 2.048-6.064 2.048-5.523 0-10-4.477-10-10s4.477-10 10-10zM13.333 6c-4.050 0-7.333 3.283-7.333 7.333s3.283 7.333 7.333 7.333c4.050 0 7.333-3.283 7.333-7.333s-3.283-7.333-7.333-7.333z"></path>
</svg>
