<!-- Generated by IcoMoon.io -->
<svg version="1.1" xmlns="http://www.w3.org/2000/svg" width="32" height="32" viewBox="0 0 32 32">
<title>search-shield-filled</title>
<path d="M13.6 4.8c0 0 0 0 0.001 0 4.86 0 8.8 3.94 8.8 8.8 0 2.007-0.672 3.858-1.803 5.338l0.016-0.021 6.635 6.635c0.215 0.217 0.348 0.515 0.348 0.845 0 0.663-0.537 1.2-1.2 1.2-0.267 0-0.514-0.087-0.713-0.235l0.003 0.002-0.134-0.117-6.635-6.635c-0.864 0.656-1.851 1.155-2.92 1.456l0.003-0.334v-2.198c2.367-0.975 4.002-3.264 4.002-5.935 0-3.535-2.866-6.402-6.402-6.402-3.302 0-6.020 2.5-6.365 5.71l-0.002 0.028c-0.307 0.112-0.595 0.298-0.838 0.55-0.444 0.472-0.944 0.882-1.492 1.223l-0.031 0.018c-0.046-0.339-0.073-0.731-0.073-1.13 0-4.86 3.94-8.8 8.8-8.8 0 0 0.001 0 0.001 0h-0zM11.2 16.555c-0.611-0.263-1.137-0.576-1.617-0.946l0.017 0.013c-0.422-0.323-0.796-0.66-1.142-1.023l-0.004-0.004c-0.114-0.12-0.275-0.195-0.453-0.195s-0.339 0.075-0.453 0.195l-0 0c-1.592 1.658-3.352 2.472-5.309 2.472-0.352 0-0.64 0.298-0.64 0.666v4.002l0.006 0.426c0.043 1.275 0.278 2.422 0.704 3.44 0.55 1.299 1.402 2.379 2.47 3.186l0.019 0.014c0.838 0.64 1.84 1.163 3 1.566 0.131 0.045 0.272 0.045 0.403 0 4.096-1.424 6.197-4.341 6.197-8.632v-4l-0.013-0.136c-0.057-0.301-0.315-0.526-0.627-0.531h-0.001c-0.010 0-0.021 0-0.033 0-0.913 0-1.781-0.188-2.569-0.528l0.042 0.016z"></path>
</svg>
