<!-- Generated by IcoMoon.io -->
<svg version="1.1" xmlns="http://www.w3.org/2000/svg" width="32" height="32" viewBox="0 0 32 32">
<title>search-filled</title>
<path d="M13.667 4c-5.339 0-9.667 4.328-9.667 9.667s4.328 9.667 9.667 9.667c0.004 0 0.010 0 0.015 0 2.312 0 4.434-0.815 6.094-2.174l-0.017 0.014 6.534 6.534c0.182 0.188 0.437 0.305 0.719 0.305 0.552 0 1-0.448 1-1 0-0.282-0.117-0.537-0.305-0.719l-6.534-6.534c1.345-1.643 2.16-3.764 2.16-6.076 0-0.005 0-0.011 0-0.017v0.001c0-5.339-4.328-9.667-9.667-9.667zM6 13.667c0-4.234 3.433-7.667 7.667-7.667s7.667 3.433 7.667 7.667-3.433 7.667-7.667 7.667-7.667-3.433-7.667-7.667z"></path>
</svg>
