<!-- Generated by IcoMoon.io -->
<svg version="1.1" xmlns="http://www.w3.org/2000/svg" width="32" height="32" viewBox="0 0 32 32">
<title>select-object-skew-edit-filled</title>
<path d="M24.781 8.552c0.483 0.483 1.149 0.781 1.886 0.781 0.223 0 0.44-0.027 0.647-0.079 1.16-0.289 2.019-1.338 2.019-2.588 0-1.473-1.194-2.667-2.667-2.667-1.013 0-1.893 0.564-2.345 1.396-0.205 0.378-0.322 0.811-0.322 1.271 0 0.486 0.13 0.941 0.357 1.333 0.11 0.19 0.242 0.365 0.393 0.521l0.031 0.031zM2.667 25.333c0 1.473 1.194 2.667 2.667 2.667 0.987 0 1.849-0.536 2.31-1.333 0.227-0.392 0.357-0.848 0.357-1.333 0-0.46-0.117-0.893-0.322-1.271-0.116-0.214-0.261-0.41-0.428-0.583-0.485-0.501-1.164-0.812-1.917-0.812-0.207 0-0.409 0.024-0.602 0.068-0.015 0.003-0.030 0.007-0.045 0.011-1.16 0.289-2.019 1.338-2.019 2.588zM8.781 8.552c0.483 0.483 1.149 0.781 1.886 0.781 0.223 0 0.44-0.027 0.647-0.079 0.709-0.177 1.306-0.637 1.662-1.254 0.012-0.021 0.024-0.041 0.035-0.062 0.205-0.378 0.322-0.811 0.322-1.271 0-0.486-0.13-0.941-0.357-1.333-0.461-0.797-1.323-1.333-2.31-1.333-1.473 0-2.667 1.194-2.667 2.667 0 0.721 0.286 1.374 0.75 1.854l0.031 0.031zM8.349 9.927l-3.261 11.414c0.081-0.005 0.163-0.007 0.246-0.007 0.864 0 1.664 0.274 2.318 0.74l3.261-11.414c-0.081 0.005-0.163 0.007-0.246 0.007-0.864 0-1.664-0.274-2.318-0.74zM22.894 8h-8.455c0.147-0.417 0.228-0.866 0.228-1.333s-0.080-0.916-0.228-1.333h8.455c-0.147 0.417-0.228 0.866-0.228 1.333s0.080 0.916 0.228 1.333zM15.361 26.102c0.196-0.783 0.581-1.505 1.121-2.102h-7.377c0.147 0.417 0.228 0.866 0.228 1.333s-0.080 0.916-0.228 1.333h6.114l0.141-0.564zM26.913 10.659l-1.281 4.484c-0.399 0.204-0.774 0.472-1.108 0.807l-2.654 2.654 2.479-8.677c0.654 0.466 1.454 0.74 2.318 0.74 0.083 0 0.165-0.002 0.246-0.007zM25.467 16.893l-7.87 7.87c-0.459 0.459-0.784 1.034-0.942 1.663l-0.61 2.441c-0.265 1.061 0.696 2.023 1.758 1.758l2.441-0.61c0.629-0.157 1.204-0.483 1.663-0.942l7.87-7.87c1.19-1.19 1.19-3.12 0-4.31s-3.12-1.19-4.31 0z"></path>
</svg>
