<!-- Generated by IcoMoon.io -->
<svg version="1.1" xmlns="http://www.w3.org/2000/svg" width="32" height="32" viewBox="0 0 32 32">
<title>select-object-skew-dismiss-filled</title>
<path d="M24.781 8.552c0.482 0.484 1.148 0.783 1.884 0.783 0.23 0 0.454-0.029 0.667-0.084l-0.018 0.004c1.169-0.3 2.020-1.344 2.020-2.587 0-1.473-1.194-2.667-2.667-2.667s-2.667 1.194-2.667 2.667c0 0.721 0.286 1.374 0.75 1.854l-0.001-0.001 0.031 0.031zM2.667 25.333c0 1.473 1.194 2.667 2.667 2.667s2.667-1.194 2.667-2.667v0c0-1.473-1.194-2.667-2.667-2.667s-2.667 1.194-2.667 2.667v0zM8.781 8.552c0.482 0.484 1.148 0.783 1.884 0.783 0.23 0 0.454-0.029 0.667-0.084l-0.018 0.004c1.168-0.302 2.017-1.346 2.019-2.588v-0c0-0 0-0.001 0-0.001 0-1.473-1.194-2.667-2.667-2.667s-2.667 1.194-2.667 2.667c0 0.721 0.286 1.375 0.751 1.855l-0.001-0.001 0.031 0.032zM8.347 9.927l-3.26 11.413c0.075-0.005 0.162-0.008 0.25-0.008 0.868 0 1.671 0.278 2.325 0.749l-0.012-0.008 3.261-11.413c-0.075 0.005-0.162 0.008-0.25 0.008-0.868 0-1.671-0.278-2.325-0.749l0.012 0.008zM22.895 8h-8.456c0.145-0.397 0.229-0.855 0.229-1.333s-0.084-0.936-0.238-1.361l0.009 0.028h8.456c-0.145 0.397-0.229 0.855-0.229 1.333s0.084 0.936 0.238 1.361l-0.009-0.028zM15.331 26.667c-0.336-0.782-0.564-1.688-0.638-2.637l-0.002-0.030h-5.584c0.145 0.397 0.229 0.855 0.229 1.333s-0.084 0.936-0.238 1.361l0.009-0.028h6.227zM26.913 10.659l-1.237 4.328c-0.7-0.203-1.504-0.32-2.335-0.32-0.123 0-0.245 0.003-0.366 0.008l0.017-0.001 1.356-4.747c0.642 0.463 1.446 0.741 2.314 0.741 0.089 0 0.176-0.003 0.264-0.009l-0.012 0.001zM30.667 23.333c0 4.050-3.283 7.333-7.333 7.333s-7.333-3.283-7.333-7.333v0c0-4.050 3.283-7.333 7.333-7.333s7.333 3.283 7.333 7.333v0zM21.139 20.195c-0.121-0.121-0.288-0.195-0.472-0.195-0.369 0-0.668 0.299-0.668 0.668 0 0.184 0.075 0.351 0.195 0.472v0l2.196 2.195-2.196 2.195c-0.121 0.121-0.195 0.288-0.195 0.472 0 0.369 0.299 0.668 0.668 0.668 0.184 0 0.351-0.075 0.472-0.195l2.195-2.196 2.195 2.196c0.121 0.121 0.288 0.195 0.472 0.195 0.369 0 0.668-0.299 0.668-0.668 0-0.184-0.075-0.351-0.195-0.472l-2.196-2.195 2.196-2.195c0.121-0.121 0.195-0.288 0.195-0.472 0-0.369-0.299-0.668-0.668-0.668-0.184 0-0.351 0.075-0.472 0.195l-2.195 2.196-2.195-2.196z"></path>
</svg>
