<!-- Generated by IcoMoon.io -->
<svg version="1.1" xmlns="http://www.w3.org/2000/svg" width="32" height="32" viewBox="0 0 32 32">
<title>select-object-skew-filled</title>
<path d="M24.781 8.552c0.482 0.484 1.148 0.783 1.884 0.783 0.23 0 0.454-0.029 0.667-0.084l-0.018 0.004c1.169-0.299 2.020-1.344 2.020-2.587 0-1.473-1.194-2.667-2.667-2.667s-2.667 1.194-2.667 2.667c0 0.736 0.298 1.402 0.78 1.884l-0-0zM19.024 26.667c0.47 0.803 1.328 1.333 2.309 1.333 1.473 0 2.667-1.194 2.667-2.667v0c0-0.001 0-0.002 0-0.003 0-0.735-0.299-1.401-0.781-1.883l-0-0c-0.482-0.484-1.148-0.783-1.884-0.783-0.23 0-0.454 0.029-0.667 0.084l0.018-0.004c-1.168 0.302-2.017 1.346-2.019 2.588v0c0 0.485 0.129 0.941 0.357 1.333zM5.333 28c-1.473 0-2.667-1.194-2.667-2.667s1.194-2.667 2.667-2.667v0c1.473 0 2.667 1.194 2.667 2.667s-1.194 2.667-2.667 2.667v0zM8.781 8.552c0.482 0.484 1.148 0.783 1.884 0.783 0.23 0 0.454-0.029 0.667-0.084l-0.018 0.004c1.168-0.302 2.017-1.346 2.019-2.588v-0c0-0 0-0 0-0.001 0-1.473-1.194-2.667-2.667-2.667s-2.667 1.194-2.667 2.667c0 0.737 0.299 1.403 0.781 1.886v0zM5.088 21.341l3.26-11.413c0.642 0.462 1.444 0.739 2.31 0.739 0.090 0 0.179-0.003 0.267-0.009l-0.012 0.001-3.261 11.413c-0.642-0.462-1.444-0.739-2.31-0.739-0.089 0-0.178 0.003-0.266 0.009l0.012-0.001zM22.893 8h-8.456c0.145-0.397 0.229-0.855 0.229-1.333s-0.084-0.936-0.238-1.361l0.009 0.028h8.456c-0.145 0.397-0.229 0.855-0.229 1.333s0.084 0.936 0.238 1.361l-0.009-0.028zM17.56 26.667c-0.145-0.397-0.229-0.855-0.229-1.333s0.084-0.936 0.238-1.361l-0.009 0.028h-8.455c0.145 0.397 0.229 0.855 0.229 1.333s-0.084 0.936-0.238 1.361l0.009-0.028h8.456zM21.087 21.341l3.26-11.413c0.642 0.462 1.444 0.739 2.31 0.739 0.090 0 0.179-0.003 0.267-0.009l-0.012 0.001-3.261 11.413c-0.642-0.462-1.444-0.739-2.31-0.739-0.089 0-0.178 0.003-0.266 0.009l0.012-0.001z"></path>
</svg>
