<!-- Generated by IcoMoon.io -->
<svg version="1.1" xmlns="http://www.w3.org/2000/svg" width="32" height="32" viewBox="0 0 32 32">
<title>select-object-skew-edit-filled</title>
<path d="M24.781 8.552c0.482 0.484 1.148 0.783 1.884 0.783 0.23 0 0.454-0.029 0.667-0.084l-0.018 0.004c1.169-0.3 2.020-1.344 2.020-2.587 0-1.473-1.194-2.667-2.667-2.667s-2.667 1.194-2.667 2.667c0 0.721 0.286 1.374 0.75 1.854l-0.001-0.001 0.031 0.031zM2.667 25.333c0 1.473 1.194 2.667 2.667 2.667s2.667-1.194 2.667-2.667v0c0-1.473-1.194-2.667-2.667-2.667s-2.667 1.194-2.667 2.667v0zM8.781 8.552c0.482 0.484 1.148 0.783 1.884 0.783 0.23 0 0.454-0.029 0.667-0.084l-0.018 0.004c1.168-0.302 2.017-1.346 2.019-2.588v-0c0-0 0-0.001 0-0.001 0-1.473-1.194-2.667-2.667-2.667s-2.667 1.194-2.667 2.667c0 0.721 0.286 1.375 0.751 1.855l-0.001-0.001 0.031 0.032zM8.347 9.927l-3.26 11.413c0.075-0.005 0.162-0.008 0.25-0.008 0.868 0 1.671 0.278 2.325 0.749l-0.012-0.008 3.261-11.413c-0.075 0.005-0.162 0.008-0.25 0.008-0.868 0-1.671-0.278-2.325-0.749l0.012 0.008zM22.895 8h-8.456c0.145-0.397 0.229-0.855 0.229-1.333s-0.084-0.936-0.238-1.361l0.009 0.028h8.456c-0.145 0.397-0.229 0.855-0.229 1.333s0.084 0.936 0.238 1.361l-0.009-0.028zM15.361 26.103c0.208-0.817 0.597-1.525 1.122-2.107l-0.004 0.004h-7.373c0.145 0.397 0.229 0.855 0.229 1.333s-0.084 0.936-0.238 1.361l0.009-0.028h6.115l0.141-0.564zM26.912 10.659l-1.28 4.485c-0.4 0.203-0.773 0.472-1.108 0.805l-2.655 2.655 2.48-8.677c0.642 0.463 1.445 0.741 2.313 0.741 0.088 0 0.175-0.003 0.261-0.008l-0.012 0.001zM25.467 16.893l-7.871 7.871c-0.446 0.446-0.774 1.008-0.936 1.638l-0.005 0.025-0.611 2.441c-0.027 0.106-0.043 0.227-0.043 0.352 0 0.8 0.649 1.449 1.449 1.449 0.125 0 0.247-0.016 0.363-0.046l-0.010 0.002 2.44-0.609c0.655-0.167 1.218-0.496 1.664-0.943l7.869-7.869c0.532-0.548 0.86-1.297 0.86-2.122 0-1.683-1.365-3.048-3.048-3.048-0.825 0-1.573 0.328-2.122 0.86l0.001-0.001z"></path>
</svg>
