<!-- Generated by IcoMoon.io -->
<svg version="1.1" xmlns="http://www.w3.org/2000/svg" width="32" height="32" viewBox="0 0 32 32">
<title>select-object-filled</title>
<path d="M9.333 6.667c0 1.473-1.194 2.667-2.667 2.667s-2.667-1.194-2.667-2.667c0-1.473 1.194-2.667 2.667-2.667s2.667 1.194 2.667 2.667z"></path>
<path d="M10.667 6.667c0 0.736 0.597 1.333 1.333 1.333h8c0.736 0 1.333-0.597 1.333-1.333s-0.597-1.333-1.333-1.333h-8c-0.736 0-1.333 0.597-1.333 1.333z"></path>
<path d="M6.667 10.667c-0.736 0-1.333 0.597-1.333 1.333v8c0 0.736 0.597 1.333 1.333 1.333s1.333-0.597 1.333-1.333v-8c0-0.736-0.597-1.333-1.333-1.333z"></path>
<path d="M25.333 10.667c-0.736 0-1.333 0.597-1.333 1.333v8c0 0.736 0.597 1.333 1.333 1.333s1.333-0.597 1.333-1.333v-8c0-0.736-0.597-1.333-1.333-1.333z"></path>
<path d="M12 26.667c-0.736 0-1.333-0.597-1.333-1.333s0.597-1.333 1.333-1.333h8c0.736 0 1.333 0.597 1.333 1.333s-0.597 1.333-1.333 1.333h-8z"></path>
<path d="M6.667 28c1.473 0 2.667-1.194 2.667-2.667s-1.194-2.667-2.667-2.667c-1.473 0-2.667 1.194-2.667 2.667s1.194 2.667 2.667 2.667z"></path>
<path d="M28 6.667c0 1.473-1.194 2.667-2.667 2.667s-2.667-1.194-2.667-2.667c0-1.473 1.194-2.667 2.667-2.667s2.667 1.194 2.667 2.667z"></path>
<path d="M25.333 28c1.473 0 2.667-1.194 2.667-2.667s-1.194-2.667-2.667-2.667c-1.473 0-2.667 1.194-2.667 2.667s1.194 2.667 2.667 2.667z"></path>
</svg>
