<!-- Generated by IcoMoon.io -->
<svg version="1.1" xmlns="http://www.w3.org/2000/svg" width="32" height="32" viewBox="0 0 32 32">
<title>send-clock-filled</title>
<path d="M17.086 16.263l-10.042 1.674c-0.235 0.039-0.432 0.201-0.515 0.424l-3.464 9.277c-0.332 0.853 0.561 1.666 1.379 1.257l10.233-5.116c-0.007-0.147-0.011-0.295-0.011-0.444 0-4.787 3.88-8.667 8.667-8.667 2.071 0 3.972 0.726 5.463 1.938 0.357-0.47 0.24-1.204-0.351-1.5l-24-12c-0.818-0.409-1.711 0.404-1.379 1.257l3.464 9.277c0.083 0.223 0.28 0.385 0.515 0.424l10.042 1.674c0.145 0.024 0.243 0.162 0.219 0.307-0.019 0.112-0.107 0.201-0.219 0.219zM23.333 16c4.050 0 7.333 3.283 7.333 7.333s-3.283 7.333-7.333 7.333c-4.050 0-7.333-3.283-7.333-7.333s3.283-7.333 7.333-7.333zM26 23.333h-2.667v-3.334c0-0.368-0.299-0.667-0.667-0.667s-0.667 0.299-0.667 0.667v4c0 0.368 0.299 0.667 0.667 0.667h3.333c0.368 0 0.667-0.299 0.667-0.667s-0.299-0.667-0.667-0.667z"></path>
</svg>
