<!-- Generated by IcoMoon.io -->
<svg version="1.1" xmlns="http://www.w3.org/2000/svg" width="32" height="32" viewBox="0 0 32 32">
<title>send-clock-filled</title>
<path d="M17.087 16.263l-10.043 1.673c-0.238 0.041-0.43 0.203-0.513 0.419l-0.002 0.005-3.463 9.277c-0.331 0.853 0.561 1.667 1.38 1.256l10.232-5.116c-0.007-0.133-0.011-0.289-0.011-0.446 0-4.786 3.88-8.667 8.667-8.667 2.078 0 3.986 0.732 5.479 1.951l-0.016-0.012c0.126-0.166 0.201-0.375 0.201-0.603 0-0.389-0.222-0.727-0.546-0.893l-0.006-0.003-24-12c-0.819-0.409-1.711 0.404-1.38 1.256l3.464 9.277c0.084 0.221 0.277 0.383 0.511 0.423l0.004 0.001 10.043 1.673c0.128 0.021 0.225 0.131 0.225 0.263s-0.097 0.242-0.223 0.263l-0.002 0zM23.333 16c4.050 0 7.333 3.283 7.333 7.333s-3.283 7.333-7.333 7.333v0c-4.050 0-7.333-3.283-7.333-7.333s3.283-7.333 7.333-7.333v0zM26 23.333h-2.667v-3.333c0-0.368-0.298-0.667-0.667-0.667s-0.667 0.298-0.667 0.667v0 4c0 0.368 0.298 0.667 0.667 0.667v0h3.333c0.368 0 0.667-0.298 0.667-0.667s-0.298-0.667-0.667-0.667v0z"></path>
</svg>
