<!-- Generated by IcoMoon.io -->
<svg version="1.1" xmlns="http://www.w3.org/2000/svg" width="32" height="32" viewBox="0 0 32 32">
<title>send-copy-filled</title>
<path d="M26.673 15.333c0.681 0 1.243 0.511 1.323 1.171l0.001 0.006 0.009 0.156v6c-0 3.946-3.118 7.164-7.024 7.326l-0.015 0-0.295 0.007h-9.673c-0 0-0 0-0 0-1.611 0-2.955-1.142-3.266-2.661l-0.004-0.021h3.129l0.069 0.012 0.071 0.004h9.673c2.482-0 4.511-1.937 4.658-4.382l0.001-0.013 0.008-0.256v-6.016c0-0.736 0.597-1.333 1.333-1.333v0zM22.665 12.649c0.681 0 1.243 0.511 1.323 1.171l0.001 0.006 0.009 0.156v8.667c0 0 0 0 0 0 0 1.764-1.37 3.208-3.104 3.326l-0.010 0.001-0.219 0.008h-13.333c-0 0-0 0-0 0-1.764 0-3.208-1.37-3.326-3.104l-0.001-0.010-0.007-0.219v-8.653c0.002-0.735 0.598-1.331 1.333-1.331 0.681 0 1.243 0.51 1.323 1.169l0.001 0.006 0.009 0.155v8.653c0 0 0 0 0 0 0 0.326 0.234 0.597 0.543 0.655l0.004 0.001 0.12 0.011h13.333c0 0 0 0 0 0 0.326 0 0.597-0.234 0.655-0.543l0.001-0.004 0.011-0.12v-8.668c0-0.736 0.597-1.333 1.333-1.333v0zM8.391 7.724l4.663-4.667c0.241-0.242 0.575-0.391 0.944-0.391 0.309 0 0.593 0.105 0.819 0.281l-0.003-0.002 0.127 0.112 4.669 4.667c0.24 0.241 0.389 0.574 0.389 0.941 0 0.736-0.597 1.333-1.333 1.333-0.309 0-0.593-0.105-0.819-0.281l0.003 0.002-0.125-0.111-2.391-2.389v11.787c-0 0.681-0.511 1.243-1.171 1.323l-0.006 0.001-0.156 0.009c-0.681-0-1.243-0.511-1.323-1.171l-0.001-0.006-0.009-0.156v-11.791l-2.391 2.393c-0.241 0.241-0.575 0.39-0.943 0.39-0.309 0-0.594-0.105-0.82-0.282l0.003 0.002-0.125-0.111c-0.241-0.241-0.39-0.575-0.39-0.943 0-0.309 0.105-0.594 0.282-0.82l-0.002 0.003 0.111-0.125z"></path>
</svg>
