<!-- Generated by IcoMoon.io -->
<svg version="1.1" xmlns="http://www.w3.org/2000/svg" width="32" height="32" viewBox="0 0 32 32">
<title>serial-port-filled</title>
<path d="M2.976 13.848c-0.548-2.304 1.199-4.516 3.567-4.516h18.913c2.369 0 4.117 2.213 3.567 4.518l-1.432 6.002c-0.394 1.651-1.869 2.815-3.567 2.815h-16.052c-1.698 0-3.174-1.166-3.567-2.817l-1.429-6.002zM9.333 15.334c0.552 0 1-0.448 1-1s-0.448-1-1-1c-0.552 0-1 0.448-1 1s0.448 1 1 1zM13.667 14.334c0-0.552-0.448-1-1-1s-1 0.448-1 1c0 0.552 0.448 1 1 1s1-0.448 1-1zM11 18.667c0.552 0 1-0.448 1-1s-0.448-1-1-1c-0.552 0-1 0.448-1 1s0.448 1 1 1zM15.333 17.667c0-0.552-0.448-1-1-1s-1 0.448-1 1c0 0.552 0.448 1 1 1s1-0.448 1-1zM17.667 18.667c0.552 0 1-0.448 1-1s-0.448-1-1-1c-0.552 0-1 0.448-1 1s0.448 1 1 1zM22 17.667c0-0.552-0.448-1-1-1s-1 0.448-1 1c0 0.552 0.448 1 1 1s1-0.448 1-1zM16 15.334c0.552 0 1-0.448 1-1s-0.448-1-1-1c-0.552 0-1 0.448-1 1s0.448 1 1 1zM20.333 14.334c0-0.552-0.448-1-1-1s-1 0.448-1 1c0 0.552 0.448 1 1 1s1-0.448 1-1zM22.667 15.334c0.552 0 1-0.448 1-1s-0.448-1-1-1c-0.552 0-1 0.448-1 1s0.448 1 1 1z"></path>
</svg>
