<!-- Generated by IcoMoon.io -->
<svg version="1.1" xmlns="http://www.w3.org/2000/svg" width="32" height="32" viewBox="0 0 32 32">
<title>serial-port-filled</title>
<path d="M2.976 13.848c-0.063-0.255-0.1-0.548-0.1-0.849 0-2.025 1.641-3.667 3.666-3.667h18.912c0 0 0 0 0 0 2.025 0 3.667 1.642 3.667 3.667 0 0.302-0.036 0.595-0.105 0.876l0.005-0.025-1.432 6.003c-0.398 1.627-1.844 2.815-3.566 2.815-0 0-0 0-0 0h-16.049c-0 0-0.001 0-0.001 0-1.724 0-3.17-1.189-3.562-2.792l-0.005-0.025-1.428-6.001zM9.333 15.333c0.552 0 1-0.448 1-1s-0.448-1-1-1v0c-0.552 0-1 0.448-1 1s0.448 1 1 1v0zM13.667 14.333c0-0.552-0.448-1-1-1s-1 0.448-1 1v0c0 0.552 0.448 1 1 1s1-0.448 1-1v0zM11 18.667c0.552 0 1-0.448 1-1s-0.448-1-1-1v0c-0.552 0-1 0.448-1 1s0.448 1 1 1v0zM15.333 17.667c0-0.552-0.448-1-1-1s-1 0.448-1 1v0c0 0.552 0.448 1 1 1s1-0.448 1-1v0zM17.667 18.667c0.552 0 1-0.448 1-1s-0.448-1-1-1v0c-0.552 0-1 0.448-1 1s0.448 1 1 1v0zM22 17.667c0-0.552-0.448-1-1-1s-1 0.448-1 1v0c0 0.552 0.448 1 1 1s1-0.448 1-1v0zM16 15.333c0.552 0 1-0.448 1-1s-0.448-1-1-1v0c-0.552 0-1 0.448-1 1s0.448 1 1 1v0zM20.333 14.333c0-0.552-0.448-1-1-1s-1 0.448-1 1v0c0 0.552 0.448 1 1 1s1-0.448 1-1v0zM22.667 15.333c0.552 0 1-0.448 1-1s-0.448-1-1-1v0c-0.552 0-1 0.448-1 1s0.448 1 1 1v0z"></path>
</svg>
