<!-- Generated by IcoMoon.io -->
<svg version="1.1" xmlns="http://www.w3.org/2000/svg" width="32" height="32" viewBox="0 0 32 32">
<title>server-play-filled</title>
<path d="M12 3.2c-2.209 0-4 1.791-4 4v0 17.6c0 2.209 1.791 4 4 4v0h4.411c-1.088-1.307-1.806-2.956-1.973-4.765l-0.003-0.035h-2.435c-0.442 0-0.8-0.358-0.8-0.8s0.358-0.8 0.8-0.8v0h2.435c0.055-0.594 0.159-1.138 0.311-1.662l-0.015 0.062h-2.731c-0.442 0-0.8-0.358-0.8-0.8s0.358-0.8 0.8-0.8v0h3.36c1.488-2.872 4.438-4.801 7.839-4.801 0.282 0 0.561 0.013 0.836 0.039l-0.035-0.003v-7.235c0-2.209-1.791-4-4-4v0h-8zM11.2 8.8c0-0.442 0.358-0.8 0.8-0.8v0h8c0.442 0 0.8 0.358 0.8 0.8s-0.358 0.8-0.8 0.8v0h-8c-0.442 0-0.8-0.358-0.8-0.8v0zM30.4 23.2c0 3.976-3.224 7.2-7.2 7.2s-7.2-3.224-7.2-7.2v0c0-3.976 3.224-7.2 7.2-7.2s7.2 3.224 7.2 7.2v0zM26.741 22.501l-4.752-2.64c-0.112-0.063-0.246-0.101-0.389-0.101-0.442 0-0.8 0.358-0.8 0.8 0 0 0 0 0 0v0 5.28c0 0 0 0 0 0 0 0.442 0.358 0.8 0.8 0.8 0.143 0 0.277-0.037 0.393-0.103l-0.004 0.002 4.752-2.64c0.247-0.139 0.411-0.4 0.411-0.699s-0.164-0.56-0.407-0.697l-0.004-0.002z"></path>
</svg>
