<!-- Generated by IcoMoon.io -->
<svg version="1.1" xmlns="http://www.w3.org/2000/svg" width="32" height="32" viewBox="0 0 32 32">
<title>server-multiple-filled</title>
<path d="M12 3.2c-2.209 0-4 1.791-4 4v0 17.6c0 2.209 1.791 4 4 4v0h8c2.209 0 4-1.791 4-4v0-17.6c0-2.209-1.791-4-4-4v0h-8zM12 8h8c0.442 0 0.8 0.358 0.8 0.8s-0.358 0.8-0.8 0.8v0h-8c-0.442 0-0.8-0.358-0.8-0.8s0.358-0.8 0.8-0.8v0zM11.2 20c0-0.442 0.358-0.8 0.8-0.8v0h8c0.442 0 0.8 0.358 0.8 0.8s-0.358 0.8-0.8 0.8v0h-8c-0.442 0-0.8-0.358-0.8-0.8v0zM11.2 23.2c0-0.442 0.358-0.8 0.8-0.8v0h8c0.442 0 0.8 0.358 0.8 0.8s-0.358 0.8-0.8 0.8v0h-8c-0.442 0-0.8-0.358-0.8-0.8v0zM3.2 11.2c0-1.767 1.433-3.2 3.2-3.2v0 16.8c0 0.272 0.019 0.539 0.056 0.8h-0.056c-1.767 0-3.2-1.433-3.2-3.2v0-11.2zM25.6 24.8c0 0.272-0.019 0.539-0.056 0.8h0.056c1.767 0 3.2-1.433 3.2-3.2v0-11.2c0-1.767-1.433-3.2-3.2-3.2v0 16.8z"></path>
</svg>
