<!-- Generated by IcoMoon.io -->
<svg version="1.1" xmlns="http://www.w3.org/2000/svg" width="32" height="32" viewBox="0 0 32 32">
<title>server-filled</title>
<path d="M12 2.667c-2.209 0-4 1.791-4 4v0 18.667c0 2.209 1.791 4 4 4v0h8c2.209 0 4-1.791 4-4v0-18.667c0-2.209-1.791-4-4-4v0h-8zM11.333 9c0-0.552 0.448-1 1-1v0h7.333c0.552 0 1 0.448 1 1s-0.448 1-1 1v0h-7.333c-0.552 0-1-0.448-1-1v0zM11.333 23.667c0-0.552 0.448-1 1-1v0h7.333c0.552 0 1 0.448 1 1s-0.448 1-1 1v0h-7.333c-0.552 0-1-0.448-1-1v0zM11.333 19.667c0-0.552 0.448-1 1-1v0h7.333c0.552 0 1 0.448 1 1s-0.448 1-1 1v0h-7.333c-0.552 0-1-0.448-1-1v0z"></path>
</svg>
