<!-- Generated by IcoMoon.io -->
<svg version="1.1" xmlns="http://www.w3.org/2000/svg" width="32" height="32" viewBox="0 0 32 32">
<title>settings-chat-filled</title>
<path d="M18.927 3.337c-0.87-0.203-1.872-0.325-2.901-0.337l-0.009-0c-1.003 0.012-1.979 0.124-2.935 0.337-0.415 0.094-0.728 0.437-0.777 0.861l-0 0.005-0.227 2.035c-0.107 0.929-0.889 1.643-1.838 1.643-0.266 0-0.519-0.056-0.747-0.157l0.012 0.005-1.867-0.82c-0.119-0.054-0.257-0.085-0.403-0.085-0.288 0-0.547 0.122-0.73 0.316l-0 0.001c-1.309 1.395-2.318 3.087-2.915 4.964l-0.025 0.092c-0.028 0.088-0.045 0.19-0.045 0.296 0 0.329 0.159 0.621 0.405 0.804l0.003 0.002 1.657 1.219c0.458 0.339 0.751 0.877 0.751 1.484s-0.293 1.145-0.746 1.48l-0.005 0.004-1.657 1.221c-0.248 0.184-0.407 0.476-0.407 0.805 0 0.106 0.016 0.207 0.047 0.303l-0.002-0.007c0.621 1.971 1.63 3.665 2.945 5.069l-0.007-0.007c0.183 0.196 0.443 0.317 0.731 0.317 0.145 0 0.283-0.031 0.408-0.087l-0.006 0.003 1.875-0.823c0.217-0.097 0.47-0.154 0.737-0.154 0.944 0 1.723 0.711 1.829 1.627l0.001 0.009 0.227 2.032c0.048 0.423 0.354 0.763 0.754 0.861l0.007 0.001c0.521 0.131 1.146 0.236 1.784 0.294l0.049 0.004 0.588-1.933c-0.517-1.075-0.819-2.338-0.819-3.671 0-0.005 0-0.009 0-0.014v0.001c0-1.201 0.244-2.347 0.687-3.387-1.913-0.322-3.353-1.967-3.353-3.947 0-2.209 1.791-4 4-4 1.98 0 3.625 1.439 3.944 3.329l0.003 0.024c0.996-0.434 2.156-0.687 3.376-0.687 0.004 0 0.008 0 0.012 0h-0.001c0.002 0 0.003 0 0.005 0 0.923 0 1.813 0.144 2.647 0.412l-0.061-0.017c0.125-0.211 0.293-0.397 0.493-0.547l1.656-1.219c0.248-0.184 0.407-0.476 0.407-0.806 0-0.106-0.016-0.207-0.047-0.303l0.002 0.007c-0.622-1.969-1.631-3.661-2.947-5.063l0.007 0.007c-0.183-0.195-0.442-0.317-0.73-0.317-0.146 0-0.284 0.031-0.409 0.087l0.006-0.003-1.867 0.82c-0.217 0.097-0.469 0.153-0.735 0.153-0.947 0-1.728-0.713-1.833-1.632l-0.001-0.009-0.227-2.036c-0.049-0.428-0.362-0.77-0.769-0.864l-0.007-0.001zM25.713 16.393c-0.705-0.249-1.519-0.393-2.366-0.393-0.005 0-0.010 0-0.015 0h0.001c-0.001 0-0.001 0-0.002 0-4.051 0-7.335 3.284-7.335 7.335 0 1.306 0.341 2.532 0.939 3.594l-0.019-0.037-0.888 2.915c-0.019 0.059-0.029 0.126-0.029 0.196 0 0.368 0.298 0.667 0.667 0.667 0.069 0 0.136-0.011 0.199-0.030l-0.005 0.001 2.916-0.888c1.019 0.57 2.236 0.906 3.532 0.906 4.051 0 7.335-3.284 7.335-7.335 0-3.191-2.037-5.906-4.882-6.915l-0.051-0.016zM20.667 24.001h2.667c0.368 0 0.667 0.298 0.667 0.667s-0.298 0.667-0.667 0.667v0h-2.667c-0.368 0-0.667-0.298-0.667-0.667s0.298-0.667 0.667-0.667v0zM26 22.668h-5.333c-0.368 0-0.667-0.298-0.667-0.667s0.298-0.667 0.667-0.667h5.333c0.368 0 0.667 0.298 0.667 0.667s-0.298 0.667-0.667 0.667v0z"></path>
</svg>
