<!-- Generated by IcoMoon.io -->
<svg version="1.1" xmlns="http://www.w3.org/2000/svg" width="32" height="32" viewBox="0 0 32 32">
<title>shape-intersect-filled</title>
<path d="M2.667 7c0-2.393 1.94-4.333 4.333-4.333v0h10.667c2.393 0 4.333 1.94 4.333 4.333v0 3h3c2.393 0 4.333 1.94 4.333 4.333v0 10.667c0 2.393-1.94 4.333-4.333 4.333v0h-10.667c-2.393 0-4.333-1.94-4.333-4.333v0-3h-3c-2.393 0-4.333-1.94-4.333-4.333v0-10.667zM20 7c0-1.289-1.045-2.333-2.333-2.333v0h-10.667c-1.289 0-2.333 1.045-2.333 2.333v0 10.667c0 1.288 1.045 2.333 2.333 2.333h3v-5.667c0-0.849 0.244-1.641 0.667-2.311 0.351-0.551 0.805-1.005 1.339-1.346l0.017-0.010c0.653-0.418 1.449-0.667 2.304-0.667 0.002 0 0.005 0 0.007 0h5.666v-3zM21.333 19.977c-0.351 0.551-0.805 1.005-1.339 1.346l-0.017 0.010c-0.669 0.423-1.461 0.667-2.311 0.667h-5.667v3c0 1.288 1.045 2.333 2.333 2.333h10.667c1.289 0 2.333-1.045 2.333-2.333v0-10.667c0-1.289-1.045-2.333-2.333-2.333v0h-3v5.667c0 0.849-0.244 1.641-0.667 2.311z"></path>
</svg>
