<!-- Generated by IcoMoon.io -->
<svg version="1.1" xmlns="http://www.w3.org/2000/svg" width="32" height="32" viewBox="0 0 32 32">
<title>shape-subtract-filled</title>
<path d="M4 3.873c-0.822 0.789-1.333 1.898-1.333 3.127v10.667c0 0.134 0.006 0.266 0.018 0.397 0.062 0.685 0.283 1.323 0.627 1.878 0.031 0.050 0.063 0.099 0.096 0.148 0.779 1.153 2.098 1.911 3.593 1.911h3v3c0 2.393 1.94 4.333 4.333 4.333h10.667c2.393 0 4.333-1.94 4.333-4.333v-10.667c0-2.393-1.94-4.333-4.333-4.333h-3v-3c0-2.393-1.94-4.333-4.333-4.333h-10.667c-1.164 0-2.221 0.459-3 1.206zM12 14.333c0-1.289 1.045-2.333 2.333-2.333h10.667c1.289 0 2.333 1.045 2.333 2.333v10.667c0 1.289-1.045 2.333-2.333 2.333h-10.667c-1.289 0-2.333-1.045-2.333-2.333v-10.667z"></path>
</svg>
