<!-- Generated by IcoMoon.io -->
<svg version="1.1" xmlns="http://www.w3.org/2000/svg" width="32" height="32" viewBox="0 0 32 32">
<title>share-android-filled</title>
<path d="M22.667 4.003c2.208 0 3.997 1.79 3.997 3.997s-1.79 3.997-3.997 3.997c-1.123 0-2.138-0.463-2.864-1.209l-7.276 4.159c0.091 0.335 0.14 0.688 0.14 1.052s-0.049 0.717-0.14 1.052l7.277 4.159c0.726-0.745 1.741-1.207 2.863-1.207 2.208 0 3.997 1.79 3.997 3.997s-1.79 3.997-3.997 3.997c-2.208 0-3.997-1.79-3.997-3.997 0-0.364 0.049-0.717 0.14-1.052l-7.276-4.159c-0.726 0.745-1.741 1.209-2.864 1.209-2.208 0-3.997-1.79-3.997-3.997s1.79-3.997 3.997-3.997c1.122 0 2.137 0.463 2.863 1.208l7.277-4.158c-0.091-0.335-0.14-0.688-0.14-1.052 0-2.208 1.79-3.997 3.997-3.997z"></path>
</svg>
