<!-- Generated by IcoMoon.io -->
<svg version="1.1" xmlns="http://www.w3.org/2000/svg" width="32" height="32" viewBox="0 0 32 32">
<title>share-filled</title>
<path d="M8.995 5.333h4.619c0.552 0 1 0.448 1 1 0 0.506-0.376 0.925-0.864 0.991l-0.136 0.009h-4.619c-1.588 0-2.888 1.234-2.993 2.795l-0.007 0.205v12.667c0 1.588 1.234 2.888 2.795 2.993l0.205 0.007h12.668c1.588 0 2.888-1.233 2.993-2.795l0.007-0.205v-0.664c0-0.552 0.448-1 1-1 0.506 0 0.925 0.376 0.991 0.864l0.009 0.136v0.664c0 2.672-2.096 4.855-4.734 4.993l-0.266 0.007h-12.668c-2.672 0-4.855-2.096-4.993-4.734l-0.007-0.266v-12.667c0-2.672 2.096-4.855 4.734-4.993l0.266-0.007zM19.334 8.726v-3.726c0-0.832 0.942-1.28 1.583-0.814l0.109 0.092 7.993 7.667c0.373 0.358 0.407 0.932 0.102 1.33l-0.102 0.113-7.993 7.669c-0.6 0.576-1.576 0.206-1.683-0.579l-0.009-0.143v-3.736l-0.428-0.008c-3.543-0.011-6.572 1.444-9.153 4.402-0.661 0.757-1.9 0.176-1.741-0.816 1.103-6.854 4.799-10.726 10.919-11.411l0.403-0.040z"></path>
</svg>
