<!-- Generated by IcoMoon.io -->
<svg version="1.1" xmlns="http://www.w3.org/2000/svg" width="32" height="32" viewBox="0 0 32 32">
<title>share-screen-person-overlay-filled</title>
<path d="M7 5.333c-2.393 0-4.333 1.94-4.333 4.333v12.667c0 2.393 1.94 4.333 4.333 4.333h9.157c-0.103-0.434-0.157-0.881-0.157-1.333v-0.667c0-1.841 1.492-3.333 3.333-3.333h1.267c-0.985-0.913-1.601-2.218-1.601-3.667 0-2.761 2.239-5 5-5 2.649 0 4.818 2.061 4.989 4.667h0.344v-7.667c0-2.393-1.94-4.333-4.333-4.333h-18zM8 9.333h6.667c0.736 0 1.333 0.597 1.333 1.333v5.333c0 0.736-0.597 1.333-1.333 1.333h-6.667c-0.736 0-1.333-0.597-1.333-1.333v-5.333c0-0.736 0.597-1.333 1.333-1.333zM28.667 22.667c1.105 0 2 0.895 2 2v0.667c0 2.629-2.479 5.333-6.667 5.333s-6.667-2.705-6.667-5.333v-0.667c0-1.105 0.895-2 2-2h9.333zM24 14c2.025 0 3.667 1.642 3.667 3.667s-1.642 3.667-3.667 3.667c-2.025 0-3.667-1.642-3.667-3.667s1.642-3.667 3.667-3.667z"></path>
</svg>
