<!-- Generated by IcoMoon.io -->
<svg version="1.1" xmlns="http://www.w3.org/2000/svg" width="32" height="32" viewBox="0 0 32 32">
<title>share-screen-person-filled</title>
<path d="M6.571 4.571c-2.367 0-4.286 1.919-4.286 4.286v0 14.286c0 2.367 1.919 4.286 4.286 4.286v0h10.647c-0.048-0.257-0.075-0.553-0.075-0.855 0-0.001 0-0.002 0-0.002v0-0.234c0-1.922 1.558-3.48 3.48-3.48 0 0 0.001 0 0.001 0h0.923c-0.951-0.842-1.548-2.065-1.548-3.428 0-2.525 2.047-4.571 4.571-4.571 2.424 0 4.408 1.887 4.562 4.272l0.001 0.014c0.010 0.158 0.137 0.286 0.295 0.286s0.286-0.128 0.286-0.286v0-10.286c0-2.367-1.919-4.286-4.286-4.286v0h-18.857zM28 19.429c0 1.894-1.535 3.429-3.429 3.429s-3.429-1.535-3.429-3.429v0c0-1.894 1.535-3.429 3.429-3.429s3.429 1.535 3.429 3.429v0zM30.857 26.571c0 2.135-1.795 4.286-6.286 4.286s-6.286-2.143-6.286-4.286v-0.234c0-1.291 1.047-2.337 2.338-2.337h7.896c1.291 0 2.337 1.046 2.337 2.337v0.234z"></path>
</svg>
