<!-- Generated by IcoMoon.io -->
<svg version="1.1" xmlns="http://www.w3.org/2000/svg" width="32" height="32" viewBox="0 0 32 32">
<title>share-filled</title>
<path d="M21.070 4.559c-0.149-0.14-0.349-0.225-0.57-0.225-0.46 0-0.833 0.373-0.833 0.833 0 0 0 0 0 0v0 3.648c-0.239 0.005-0.517 0.020-0.827 0.048-1.023 0.095-2.411 0.351-3.851 1.003-2.935 1.33-5.951 4.249-6.651 10.373-0.003 0.028-0.005 0.061-0.005 0.094 0 0.46 0.373 0.833 0.833 0.833 0.213 0 0.407-0.080 0.555-0.212l-0.001 0.001c2.89-2.569 5.598-3.675 7.557-4.146 0.685-0.176 1.481-0.295 2.299-0.33l0.025-0.001 0.065-0.002v3.69c0 0 0 0 0 0 0 0.46 0.373 0.833 0.833 0.833 0.221 0 0.421-0.086 0.57-0.226l-0 0 8-7.5c0.162-0.152 0.263-0.368 0.263-0.608s-0.101-0.456-0.263-0.608l-0-0-8-7.5zM4 9.5c0-2.301 1.865-4.167 4.167-4.167v0h5.5c0.46 0 0.833 0.373 0.833 0.833s-0.373 0.833-0.833 0.833v0h-5.5c-1.381 0-2.5 1.119-2.5 2.5v0 14.333c0 1.381 1.119 2.5 2.5 2.5v0h14.333c1.381 0 2.5-1.119 2.5-2.5v0-1.5c0-0.46 0.373-0.833 0.833-0.833s0.833 0.373 0.833 0.833v0 1.5c0 2.301-1.865 4.167-4.167 4.167v0h-14.333c-2.301 0-4.167-1.865-4.167-4.167v0-14.333z"></path>
</svg>
