<!-- Generated by IcoMoon.io -->
<svg version="1.1" xmlns="http://www.w3.org/2000/svg" width="32" height="32" viewBox="0 0 32 32">
<title>share-screen-person-p-filled</title>
<path d="M2.286 8.857c0-2.367 1.919-4.286 4.286-4.286v0h18.857c2.367 0 4.286 1.919 4.286 4.286v0 10.286c0 0.158-0.128 0.286-0.286 0.286v0c-0.159-0.003-0.287-0.128-0.295-0.285l-0-0.001c-0.155-2.399-2.138-4.286-4.563-4.286-2.525 0-4.571 2.047-4.571 4.571 0 1.363 0.597 2.587 1.543 3.424l0.005 0.004h-0.923c-0 0-0.001 0-0.001 0-1.922 0-3.48 1.558-3.48 3.48v0 0.234c0 0.287 0.025 0.574 0.075 0.857h-10.647c-2.367 0-4.286-1.919-4.286-4.286v0-14.286zM9.143 11.143v9.714c0 0.473 0.384 0.857 0.857 0.857s0.857-0.384 0.857-0.857v0-2.571h2.286c2.209 0 4-1.791 4-4s-1.791-4-4-4v0h-3.143c-0.473 0-0.857 0.384-0.857 0.857v0zM10.857 16.571h2.286c1.262 0 2.286-1.023 2.286-2.286s-1.023-2.286-2.286-2.286v0h-2.286v4.571zM28 19.429c0 1.894-1.535 3.429-3.429 3.429s-3.429-1.535-3.429-3.429v0c0-1.894 1.535-3.429 3.429-3.429s3.429 1.535 3.429 3.429v0zM30.857 26.571c0 2.135-1.795 4.286-6.286 4.286s-6.286-2.143-6.286-4.286v-0.234c0-1.291 1.047-2.337 2.338-2.337h7.896c1.291 0 2.337 1.046 2.337 2.337v0.234z"></path>
</svg>
