<!-- Generated by IcoMoon.io -->
<svg version="1.1" xmlns="http://www.w3.org/2000/svg" width="32" height="32" viewBox="0 0 32 32">
<title>share-ios-filled</title>
<path d="M25.328 14.667c0.684 0 1.247 0.515 1.324 1.178l0.009 0.155v8c0 2.856-2.245 5.188-5.067 5.327l-0.266 0.007h-10.661c-2.856 0-5.188-2.245-5.327-5.067l-0.007-0.266v-8c0-0.736 0.597-1.333 1.333-1.333 0.684 0 1.247 0.515 1.324 1.178l0.009 0.155v8c0 1.406 1.088 2.558 2.468 2.659l0.199 0.007h10.661c1.406 0 2.558-1.088 2.659-2.468l0.007-0.199v-8c0-0.736 0.597-1.333 1.333-1.333zM8.385 9.719l6.664-6.662c0.48-0.48 1.236-0.517 1.759-0.111l0.126 0.111 6.671 6.662c0.521 0.52 0.522 1.365 0.001 1.886-0.48 0.481-1.237 0.518-1.76 0.112l-0.126-0.111-4.392-4.386 0 13.12c0 0.684-0.515 1.247-1.178 1.324l-0.155 0.009c-0.684 0-1.247-0.515-1.324-1.178l-0.009-0.156-0-13.127-4.391 4.392c-0.481 0.481-1.237 0.518-1.76 0.111l-0.126-0.111c-0.481-0.481-0.518-1.237-0.111-1.76l0.111-0.126z"></path>
</svg>
