<!-- Generated by IcoMoon.io -->
<svg version="1.1" xmlns="http://www.w3.org/2000/svg" width="32" height="32" viewBox="0 0 32 32">
<title>share-android-filled</title>
<path d="M22.667 4.003c2.207 0 3.997 1.79 3.997 3.997s-1.79 3.997-3.997 3.997c-1.122 0-2.136-0.462-2.862-1.207l-0.001-0.001-7.276 4.16c0.089 0.315 0.141 0.677 0.141 1.051s-0.051 0.736-0.147 1.079l0.007-0.028 7.277 4.159c0.727-0.745 1.74-1.206 2.862-1.206 2.208 0 3.997 1.79 3.997 3.997s-1.79 3.997-3.997 3.997c-2.208 0-3.997-1.79-3.997-3.997 0-0.374 0.051-0.737 0.148-1.080l-0.007 0.028-7.276-4.16c-0.727 0.746-1.741 1.208-2.863 1.208-2.208 0-3.997-1.79-3.997-3.997s1.79-3.997 3.997-3.997c1.122 0 2.136 0.462 2.862 1.207l0.001 0.001 7.276-4.16c-0.088-0.314-0.139-0.674-0.139-1.047 0-2.208 1.789-3.998 3.997-4h0z"></path>
</svg>
