<!-- Generated by IcoMoon.io -->
<svg version="1.1" xmlns="http://www.w3.org/2000/svg" width="32" height="32" viewBox="0 0 32 32">
<title>share-close-tray-filled</title>
<path d="M5.667 26.667c-1.657 0-3-1.343-3-3v0-15.333c0-1.657 1.343-3 3-3v0h20.667c1.657 0 3 1.343 3 3v0 15.333c0 1.657-1.343 3-3 3v0h-20.667zM16.707 22.047l4.34-4.34c0.196-0.183 0.318-0.443 0.318-0.732 0-0.552-0.448-1-1-1-0.289 0-0.549 0.122-0.731 0.318l-0.001 0.001-2.633 2.632v-8.596c0-0.552-0.448-1-1-1s-1 0.448-1 1v0 8.593l-2.627-2.629c-0.183-0.196-0.443-0.318-0.732-0.318-0.552 0-1 0.448-1 1 0 0.289 0.122 0.549 0.318 0.731l0.001 0.001 4.333 4.34c0.181 0.181 0.431 0.292 0.707 0.292s0.526-0.112 0.707-0.292v0z"></path>
</svg>
