<!-- Generated by IcoMoon.io -->
<svg version="1.1" xmlns="http://www.w3.org/2000/svg" width="32" height="32" viewBox="0 0 32 32">
<title>shield-task-filled</title>
<path d="M27 6.667c-3.551 0-7.011-1.258-10.4-3.8-0.356-0.267-0.844-0.267-1.2 0-3.389 2.542-6.849 3.8-10.4 3.8-0.552 0-1 0.448-1 1v7c0 6.668 3.943 11.568 11.633 14.597 0.236 0.093 0.497 0.093 0.733 0 7.69-3.029 11.633-7.929 11.633-14.597v-7c0-0.552-0.448-1-1-1zM22.342 12.404l-8 7.333c-0.395 0.362-1.004 0.349-1.383-0.030l-3.333-3.333c-0.391-0.391-0.391-1.024 0-1.414s1.024-0.391 1.414 0l2.656 2.656 7.294-6.686c0.407-0.373 1.040-0.346 1.413 0.061s0.346 1.040-0.061 1.413z"></path>
</svg>
