<!-- Generated by IcoMoon.io -->
<svg version="1.1" xmlns="http://www.w3.org/2000/svg" width="32" height="32" viewBox="0 0 32 32">
<title>shield-task-filled</title>
<path d="M15.423 2.899c0.149-0.143 0.353-0.232 0.577-0.232s0.427 0.088 0.577 0.232l-0-0c1.839 1.762 4.456 2.718 6.691 3.227 1.106 0.251 2.093 0.387 2.801 0.46 0.294 0.033 0.675 0.062 1.060 0.080l0.043 0.002h0.015c0.452 0.011 0.813 0.38 0.813 0.833 0 0 0 0 0 0v0 6.5c0 6.331-3.373 12.677-11.751 15.295-0.074 0.024-0.16 0.038-0.249 0.038s-0.174-0.014-0.255-0.040l0.006 0.002c-4.159-1.3-7.112-3.528-9.020-6.279-1.902-2.745-2.731-5.959-2.731-9.183v-6.333c0-0 0-0 0-0 0-0.453 0.362-0.822 0.812-0.833l0.001-0h0.015l0.053-0.002c0.412-0.020 0.774-0.049 1.134-0.087l-0.085 0.007c1.075-0.112 2.029-0.275 2.962-0.491l-0.16 0.031c2.235-0.508 4.852-1.464 6.691-3.227zM21.742 12.769c0.166-0.153 0.269-0.371 0.269-0.613 0-0.46-0.373-0.833-0.833-0.833-0.229 0-0.436 0.092-0.586 0.241l0-0-6.745 6.438-2.424-2.425c-0.151-0.151-0.359-0.244-0.589-0.244-0.46 0-0.833 0.373-0.833 0.833 0 0.23 0.093 0.439 0.244 0.589v0l3 3c0.32 0.32 0.837 0.327 1.165 0.013l7.333-7z"></path>
</svg>
