<!-- Generated by IcoMoon.io -->
<svg version="1.1" xmlns="http://www.w3.org/2000/svg" width="32" height="32" viewBox="0 0 32 32">
<title>shield-keyhole-filled</title>
<path d="M4 7.667v7c0 6.668 3.944 11.568 11.633 14.597 0.109 0.044 0.235 0.070 0.367 0.070s0.258-0.026 0.373-0.072l-0.007 0.002c7.689-3.029 11.633-7.931 11.633-14.597v-7c0-0.552-0.448-1-1-1v0c-3.551 0-7.011-1.257-10.4-3.8-0.165-0.125-0.374-0.2-0.6-0.2s-0.435 0.075-0.602 0.202l0.002-0.002c-3.389 2.543-6.849 3.8-10.4 3.8-0.552 0-1 0.448-1 1v0zM18.66 14.667c0 1.11-0.678 2.061-1.642 2.463l-0.018 0.006v3.197c0 0.552-0.448 1-1 1s-1-0.448-1-1v0-3.192c-0.989-0.405-1.673-1.36-1.673-2.475 0-1.473 1.194-2.667 2.667-2.667s2.667 1.194 2.667 2.667c0 0 0 0 0 0v0z"></path>
</svg>
