<!-- Generated by IcoMoon.io -->
<svg version="1.1" xmlns="http://www.w3.org/2000/svg" width="32" height="32" viewBox="0 0 32 32">
<title>shield-add-filled</title>
<path d="M4 7.667c0-0.552 0.448-1 1-1v0c3.551 0 7.011-1.257 10.4-3.8 0.165-0.125 0.374-0.2 0.6-0.2s0.435 0.075 0.602 0.202l-0.003-0.002c3.389 2.543 6.849 3.8 10.4 3.8 0.552 0 1 0.448 1 1v0 7c0 0.451-0.019 0.893-0.053 1.328-1.309-0.836-2.905-1.332-4.617-1.332-4.786 0-8.667 3.88-8.667 8.667 0 2.208 0.826 4.223 2.185 5.753l-0.008-0.009-0.473 0.191c-0.109 0.044-0.235 0.070-0.367 0.070s-0.258-0.026-0.373-0.072l0.007 0.002c-7.689-3.029-11.633-7.931-11.633-14.597v-7zM30.667 23.333c0-4.050-3.283-7.333-7.333-7.333s-7.333 3.283-7.333 7.333v0c0 4.050 3.283 7.333 7.333 7.333s7.333-3.283 7.333-7.333v0zM24 24l0.001 3.337c0 0.368-0.298 0.667-0.667 0.667s-0.667-0.298-0.667-0.667v0-3.337h-3.34c-0.368 0-0.667-0.298-0.667-0.667s0.298-0.667 0.667-0.667v0h3.339v-3.333c0-0.368 0.298-0.667 0.667-0.667s0.667 0.298 0.667 0.667v0 3.333h3.329c0.368 0 0.667 0.298 0.667 0.667s-0.298 0.667-0.667 0.667v0h-3.329z"></path>
</svg>
