<!-- Generated by IcoMoon.io -->
<svg version="1.1" xmlns="http://www.w3.org/2000/svg" width="32" height="32" viewBox="0 0 32 32">
<title>shield-error-filled</title>
<path d="M16.6 2.867c3.389 2.542 6.849 3.8 10.4 3.8 0.552 0 1 0.448 1 1v7c0 6.668-3.943 11.568-11.633 14.597-0.236 0.093-0.497 0.093-0.733 0-7.69-3.029-11.633-7.929-11.633-14.597v-7c0-0.552 0.448-1 1-1 3.551 0 7.011-1.258 10.4-3.8 0.356-0.267 0.844-0.267 1.2 0zM16 21.333c-0.552 0-1 0.448-1 1s0.448 1 1 1c0.552 0 1-0.448 1-1s-0.448-1-1-1zM16 9.309c-0.506 0-0.925 0.376-0.991 0.864l-0.009 0.136v8.667l0.009 0.136c0.066 0.488 0.485 0.864 0.991 0.864s0.925-0.376 0.991-0.864l0.009-0.136v-8.667l-0.009-0.136c-0.066-0.488-0.485-0.864-0.991-0.864z"></path>
</svg>
