<!-- Generated by IcoMoon.io -->
<svg version="1.1" xmlns="http://www.w3.org/2000/svg" width="32" height="32" viewBox="0 0 32 32">
<title>shield-person-filled</title>
<path d="M16.443 3.334c-0.125-0.084-0.278-0.134-0.443-0.134s-0.319 0.050-0.446 0.136l0.003-0.002c-2.857 1.95-6.263 3.319-9.94 3.858l-0.131 0.016c-0.39 0.058-0.686 0.39-0.686 0.792 0 0 0 0 0 0v0 7.2c0 6.226 3.691 10.768 10.912 13.547 0.085 0.034 0.184 0.054 0.288 0.054s0.203-0.020 0.293-0.056l-0.005 0.002c7.221-2.779 10.912-7.323 10.912-13.547v-7.2c-0-0.402-0.297-0.735-0.684-0.791l-0.004-0.001c-3.807-0.555-7.213-1.924-10.152-3.927l0.083 0.054zM16 15.2c-1.767 0-3.2-1.433-3.2-3.2s1.433-3.2 3.2-3.2v0c1.767 0 3.2 1.433 3.2 3.2s-1.433 3.2-3.2 3.2v0zM16 23.2c-4 0-5.6-2-5.6-4 0-1.325 1.075-2.4 2.4-2.4v0h6.4c1.325 0 2.4 1.075 2.4 2.4v0c0 1.992-1.6 4-5.6 4z"></path>
</svg>
