<!-- Generated by IcoMoon.io -->
<svg version="1.1" xmlns="http://www.w3.org/2000/svg" width="32" height="32" viewBox="0 0 32 32">
<title>shield-prohibited-filled</title>
<path d="M5 6.667c-0.552 0-1 0.448-1 1v7c0 6.668 3.943 11.568 11.633 14.597 0.236 0.093 0.497 0.093 0.733 0 0.192-0.076 0.381-0.152 0.569-0.23-2.182-1.574-3.602-4.138-3.602-7.033 0-4.787 3.88-8.667 8.667-8.667 2.312 0 4.413 0.905 5.967 2.381 0.022-0.344 0.033-0.693 0.033-1.048v-7c0-0.552-0.448-1-1-1-3.551 0-7.011-1.258-10.4-3.8-0.356-0.267-0.844-0.267-1.2 0-3.389 2.542-6.849 3.8-10.4 3.8z"></path>
<path d="M22 29.333c4.050 0 7.333-3.283 7.333-7.333s-3.283-7.333-7.333-7.333c-4.050 0-7.333 3.283-7.333 7.333s3.283 7.333 7.333 7.333zM17.588 24.998c-0.581-0.854-0.921-1.886-0.921-2.998 0-2.945 2.388-5.333 5.333-5.333 1.111 0 2.143 0.34 2.998 0.921l-7.409 7.409zM19.002 26.412l7.409-7.409c0.581 0.854 0.921 1.886 0.921 2.998 0 2.945-2.388 5.333-5.333 5.333-1.111 0-2.143-0.34-2.998-0.921z"></path>
</svg>
