<!-- Generated by IcoMoon.io -->
<svg version="1.1" xmlns="http://www.w3.org/2000/svg" width="32" height="32" viewBox="0 0 32 32">
<title>shield-checkmark-filled</title>
<path d="M16.577 2.899c-0.149-0.143-0.353-0.232-0.577-0.232s-0.427 0.088-0.577 0.232l0-0c-1.839 1.762-4.457 2.718-6.691 3.227-1.107 0.251-2.093 0.387-2.801 0.46-0.294 0.033-0.675 0.062-1.060 0.080l-0.043 0.002h-0.015c-0.452 0.011-0.813 0.38-0.813 0.833 0 0 0 0 0 0v0 6.333c0 3.225 0.829 6.439 2.732 9.183 1.907 2.751 4.86 4.979 9.019 6.279 0.162 0.051 0.335 0.051 0.497 0 0.207-0.065 0.41-0.131 0.611-0.2-1.361-1.52-2.193-3.537-2.193-5.749 0-0.004 0-0.009 0-0.013v0.001c0-4.787 3.88-8.667 8.667-8.667 1.672 0 3.233 0.473 4.557 1.293 0.073-0.651 0.11-1.305 0.11-1.96v-6.5c0-0 0-0 0-0 0-0.453-0.362-0.822-0.812-0.833l-0.001-0h-0.015l-0.053-0.002c-0.412-0.020-0.774-0.049-1.134-0.087l0.085 0.007c-1.075-0.112-2.029-0.275-2.962-0.491l0.16 0.031c-2.235-0.508-4.853-1.464-6.691-3.227zM30.667 23.333c0 4.050-3.283 7.333-7.333 7.333s-7.333-3.283-7.333-7.333 3.283-7.333 7.333-7.333 7.333 3.283 7.333 7.333zM27.805 20.195c-0.121-0.121-0.287-0.195-0.471-0.195s-0.351 0.075-0.471 0.195l-4.862 4.862-2.195-2.195c-0.12-0.116-0.283-0.187-0.463-0.187-0.368 0-0.667 0.298-0.667 0.667 0 0.18 0.071 0.343 0.187 0.463l2.666 2.666c0.121 0.121 0.287 0.195 0.471 0.195s0.351-0.075 0.471-0.195l5.333-5.333c0.121-0.121 0.195-0.287 0.195-0.471s-0.075-0.351-0.195-0.471v0z"></path>
</svg>
