<!-- Generated by IcoMoon.io -->
<svg version="1.1" xmlns="http://www.w3.org/2000/svg" width="32" height="32" viewBox="0 0 32 32">
<title>shield-person-add-filled</title>
<path d="M16.443 3.334c-0.125-0.084-0.278-0.134-0.443-0.134s-0.319 0.050-0.446 0.136l0.003-0.002c-2.857 1.95-6.263 3.319-9.94 3.858l-0.131 0.016c-0.39 0.058-0.686 0.39-0.686 0.792 0 0 0 0 0 0v0 7.2c0 6.226 3.691 10.768 10.912 13.547 0.085 0.034 0.184 0.054 0.288 0.054s0.203-0.020 0.293-0.056l-0.005 0.002 0.061-0.024c-1.214-1.492-1.95-3.416-1.95-5.511 0-0.047 0-0.094 0.001-0.141l-0 0.007c-2.832-0.462-4-2.171-4-3.88 0.001-1.325 1.075-2.398 2.4-2.398h4.362c1.568-1.486 3.691-2.4 6.027-2.4 0.004 0 0.008 0 0.012 0h-0.001c1.44 0 2.8 0.346 4 0.96v-7.36c-0-0.402-0.297-0.735-0.684-0.791l-0.004-0.001c-3.807-0.555-7.213-1.924-10.152-3.927l0.083 0.054zM16 15.2c-1.767 0-3.2-1.433-3.2-3.2s1.433-3.2 3.2-3.2v0c1.767 0 3.2 1.433 3.2 3.2s-1.433 3.2-3.2 3.2v0zM30.4 23.2c0 3.976-3.224 7.2-7.2 7.2s-7.2-3.224-7.2-7.2v0c0-3.976 3.224-7.2 7.2-7.2s7.2 3.224 7.2 7.2v0zM24 20c0-0.442-0.358-0.8-0.8-0.8s-0.8 0.358-0.8 0.8v0 2.4h-2.4c-0.442 0-0.8 0.358-0.8 0.8s0.358 0.8 0.8 0.8v0h2.4v2.4c0 0.442 0.358 0.8 0.8 0.8s0.8-0.358 0.8-0.8v0-2.4h2.4c0.442 0 0.8-0.358 0.8-0.8s-0.358-0.8-0.8-0.8v0h-2.4v-2.4z"></path>
</svg>
