<!-- Generated by IcoMoon.io -->
<svg version="1.1" xmlns="http://www.w3.org/2000/svg" width="32" height="32" viewBox="0 0 32 32">
<title>shield-dismiss-filled</title>
<path d="M16.6 2.867c3.389 2.543 6.849 3.8 10.4 3.8 0.552 0 1 0.448 1 1v0 7c0 6.668-3.944 11.568-11.633 14.597-0.109 0.044-0.235 0.070-0.367 0.070s-0.258-0.026-0.373-0.072l0.007 0.002c-7.689-3.029-11.633-7.931-11.633-14.597v-7c0-0.552 0.448-1 1-1v0c3.551 0 7.011-1.257 10.4-3.8 0.165-0.125 0.374-0.2 0.6-0.2s0.435 0.075 0.603 0.202l-0.003-0.002zM12.373 10.963c-0.179-0.17-0.421-0.274-0.688-0.274-0.552 0-1 0.448-1 1 0 0.215 0.068 0.414 0.183 0.577l-0.002-0.003 0.096 0.112 3.631 3.631-3.631 3.633c-0.19 0.182-0.308 0.438-0.308 0.721 0 0.552 0.447 0.999 0.999 0.999 0.283 0 0.539-0.118 0.721-0.308l3.631-3.632 3.633 3.632c0.181 0.181 0.431 0.292 0.707 0.292 0.223 0 0.43-0.073 0.596-0.197l-0.003 0.002 0.112-0.097c0.181-0.181 0.292-0.431 0.292-0.707 0-0.223-0.073-0.43-0.197-0.596l0.002 0.003-0.097-0.112-3.632-3.633 3.632-3.631c0.181-0.181 0.293-0.431 0.293-0.707 0-0.552-0.447-0.999-0.999-0.999-0.276 0-0.526 0.112-0.707 0.293v0l-3.632 3.632-3.631-3.631z"></path>
</svg>
