<!-- Generated by IcoMoon.io -->
<svg version="1.1" xmlns="http://www.w3.org/2000/svg" width="32" height="32" viewBox="0 0 32 32">
<title>shifts-team-filled</title>
<path d="M23.667 4c2.393 0 4.333 1.94 4.333 4.333v0 15.333c0 2.393-1.94 4.333-4.333 4.333v0h-6.653c0.221-0.509 0.325-1.049 0.325-1.584 0-0.001 0-0.003 0-0.004 0-1.227-0.715-2.288-1.751-2.788l-0.018-0.008c0.687-0.667 1.114-1.6 1.114-2.632 0-2.025-1.642-3.667-3.667-3.667-0.993 0-1.894 0.395-2.554 1.036l0.001-0.001c-0.575-1.765-2.206-3.018-4.13-3.018-0.866 0-1.673 0.254-2.35 0.691l0.017-0.010v-7.681c0-2.393 1.94-4.333 4.333-4.333v0h15.333zM15.667 8c-0.552 0-1 0.448-1 1v0 8c0 0.552 0.448 1 1 1h5.997c0.552 0 1-0.448 1-1s-0.448-1-1-1v0h-4.997v-7c0-0.552-0.448-1-1-1v0zM6.333 22.667c1.657 0 3-1.343 3-3s-1.343-3-3-3v0c-1.657 0-3 1.343-3 3s1.343 3 3 3v0zM6.333 30.667c3.572 0 5-2.092 5-4.167 0-1.38-0.96-2.5-2.143-2.5h-5.715c-1.183 0-2.143 1.12-2.143 2.5 0 2.083 1.428 4.167 5 4.167zM15.333 21c0 1.289-1.045 2.333-2.333 2.333s-2.333-1.045-2.333-2.333v0c0-1.289 1.045-2.333 2.333-2.333s2.333 1.045 2.333 2.333v0zM11.888 29.333c0.539-0.88 0.776-1.873 0.776-2.833-0.001-0.668-0.159-1.298-0.438-1.858l0.011 0.024h2.053c0.947 0 1.715 0.784 1.715 1.751 0 1.453-1.143 2.916-4 2.916h-0.117z"></path>
</svg>
