<!-- Generated by IcoMoon.io -->
<svg version="1.1" xmlns="http://www.w3.org/2000/svg" width="32" height="32" viewBox="0 0 32 32">
<title>shifts-availability-filled</title>
<path d="M11.333 2.667c-4.786 0.001-8.665 3.881-8.665 8.667 0 4.56 3.521 8.297 7.993 8.641l0.030 0.002c0.356-4.979 4.307-8.93 9.253-9.284l0.032-0.002c-0.345-4.502-4.082-8.024-8.643-8.024v0zM15.040 10.373l-4 4c-0.181 0.181-0.431 0.292-0.707 0.292s-0.526-0.112-0.707-0.292v0l-2-2.003c-0.173-0.18-0.28-0.425-0.28-0.694 0-0.552 0.448-1 1-1 0.27 0 0.515 0.107 0.695 0.281l-0-0 1.293 1.295 3.292-3.293c0.18-0.174 0.425-0.28 0.694-0.28 0.552 0 1 0.448 1 1 0 0.27-0.107 0.515-0.281 0.695l0-0zM12 20.667c0-4.786 3.88-8.667 8.667-8.667s8.667 3.88 8.667 8.667v0c0 4.786-3.88 8.667-8.667 8.667s-8.667-3.88-8.667-8.667v0zM17.623 17.653c-0.179 0.181-0.289 0.429-0.289 0.703 0 0.278 0.113 0.529 0.296 0.71l1.62 1.604-1.623 1.623c-0.196 0.183-0.318 0.443-0.318 0.732 0 0.552 0.448 1 1 1 0.289 0 0.549-0.122 0.731-0.318l0.001-0.001 1.627-1.625 1.62 1.625c0.181 0.181 0.431 0.294 0.708 0.294 0.552 0 1-0.448 1-1 0-0.276-0.112-0.526-0.292-0.707l-1.62-1.623 1.616-1.605c0.175-0.18 0.283-0.426 0.283-0.697 0-0.552-0.448-1-1-1-0.269 0-0.513 0.106-0.693 0.279l0-0-1.623 1.612-1.628-1.613c-0.181-0.179-0.429-0.289-0.703-0.289-0.278 0-0.529 0.113-0.71 0.296l-0 0z"></path>
</svg>
