<!-- Generated by IcoMoon.io -->
<svg version="1.1" xmlns="http://www.w3.org/2000/svg" width="32" height="32" viewBox="0 0 32 32">
<title>shifts-team-filled</title>
<path d="M8.667 16c4.050 0 7.333 3.283 7.333 7.333s-3.283 7.333-7.333 7.333c-4.050 0-7.333-3.283-7.333-7.333s3.283-7.333 7.333-7.333zM23.667 4c2.393 0 4.333 1.94 4.333 4.333v15.333c0 2.393-1.94 4.333-4.333 4.333l-7.697 0.002c0.863-1.347 1.363-2.949 1.363-4.668 0-2.021-0.691-3.879-1.852-5.351l0.092 0.013 0.094 0.004h5.998l0.136-0.009c0.488-0.066 0.864-0.485 0.864-0.991s-0.376-0.925-0.864-0.991l-0.136-0.009h-4.998v-7l-0.009-0.136c-0.066-0.488-0.485-0.864-0.991-0.864s-0.925 0.376-0.991 0.864l-0.009 0.136v8l0.006 0.086c-1.558-1.498-3.675-2.419-6.006-2.419-1.719 0-3.321 0.5-4.668 1.363l0.002-7.697c0-2.393 1.94-4.333 4.333-4.333h15.333zM8.667 23.333h-4c-0.327 0-0.599 0.236-0.656 0.547l-0.011 0.12v0.661c0 1.326 1.009 1.997 2.667 1.997 1.575 0 2.564-0.605 2.659-1.802l0.008-0.194v-0.663c0-0.368-0.298-0.667-0.667-0.667zM12.694 23.315l-2.148-0.002c0.059 0.161 0.098 0.331 0.113 0.508l0.008 0.179v0.663l-0.010 0.283c-0.026 0.369-0.102 0.704-0.223 1.007 0.178 0.018 0.367 0.027 0.567 0.027 1.368 0 2.257-0.427 2.351-1.381l0.008-0.174v-0.443c0-0.327-0.236-0.599-0.547-0.656l-0.12-0.011zM6.667 19.333c-0.738 0-1.336 0.598-1.336 1.336s0.598 1.336 1.336 1.336c0.738 0 1.336-0.598 1.336-1.336s-0.598-1.336-1.336-1.336zM10.84 19.677c-0.643 0-1.164 0.521-1.164 1.164s0.521 1.164 1.164 1.164c0.643 0 1.164-0.521 1.164-1.164s-0.521-1.164-1.164-1.164z"></path>
</svg>
