<!-- Generated by IcoMoon.io -->
<svg version="1.1" xmlns="http://www.w3.org/2000/svg" width="32" height="32" viewBox="0 0 32 32">
<title>shifts-open-filled</title>
<path d="M20 4c-0.736 0-1.333 0.597-1.333 1.333s0.597 1.333 1.333 1.333l3.333 0c1.105 0 2 0.895 2 2v14.667c0 1.105-0.895 2-2 2h-3.333c-0.736 0-1.333 0.597-1.333 1.333s0.597 1.333 1.333 1.333h3.333c2.577 0 4.667-2.089 4.667-4.667v-14.667c0-2.577-2.089-4.667-4.667-4.667l-3.333-0z"></path>
<path d="M6.667 8.667c0-1.105 0.895-2 2-2h3.333c0.736 0 1.333-0.597 1.333-1.333s-0.597-1.333-1.333-1.333h-3.333c-2.577 0-4.667 2.089-4.667 4.667v14.667c0 2.577 2.089 4.667 4.667 4.667h3.333c0.736 0 1.333-0.597 1.333-1.333s-0.597-1.333-1.333-1.333h-3.333c-1.105 0-2-0.895-2-2v-14.667z"></path>
<path d="M16.667 9.333c0-0.736-0.597-1.333-1.333-1.333s-1.333 0.597-1.333 1.333v8c0 0.736 0.597 1.333 1.333 1.333h5.996c0.736 0 1.333-0.597 1.333-1.333s-0.597-1.333-1.333-1.333h-4.662v-6.667z"></path>
</svg>
