<!-- Generated by IcoMoon.io -->
<svg version="1.1" xmlns="http://www.w3.org/2000/svg" width="32" height="32" viewBox="0 0 32 32">
<title>shifts-activity-filled</title>
<path d="M14.812 5.398c0.732-0.081 1.26-0.74 1.179-1.472s-0.74-1.26-1.472-1.179c-6.667 0.738-11.852 6.388-11.852 13.252 0 7.364 5.97 13.333 13.333 13.333 6.862 0 12.511-5.182 13.251-11.847 0.081-0.732-0.446-1.391-1.178-1.472s-1.391 0.446-1.472 1.178c-0.592 5.329-5.113 9.475-10.601 9.475-5.891 0-10.667-4.776-10.667-10.667 0-5.489 4.147-10.012 9.479-10.601z"></path>
<path d="M19.69 3.188c-0.709-0.199-1.445 0.214-1.644 0.923s0.214 1.445 0.923 1.644c0.384 0.108 0.759 0.237 1.124 0.386 0.682 0.279 1.46-0.048 1.739-0.73s-0.048-1.46-0.73-1.739c-0.458-0.187-0.929-0.349-1.411-0.485z"></path>
<path d="M23.133 6.256c0.498-0.543 1.341-0.579 1.884-0.082 0.282 0.259 0.553 0.529 0.811 0.812 0.498 0.543 0.461 1.386-0.082 1.884s-1.386 0.461-1.884-0.082c-0.207-0.225-0.423-0.442-0.648-0.648-0.543-0.498-0.579-1.341-0.082-1.884z"></path>
<path d="M14.667 8c0.736 0 1.333 0.597 1.333 1.333v6.667h4c0.736 0 1.333 0.597 1.333 1.333s-0.597 1.333-1.333 1.333h-5.333c-0.736 0-1.333-0.597-1.333-1.333v-8c0-0.736 0.597-1.333 1.333-1.333z"></path>
<path d="M26.586 10.164c0.681-0.279 1.46 0.048 1.739 0.729 0.143 0.35 0.272 0.708 0.385 1.073 0.036 0.114 0.070 0.229 0.102 0.345 0.199 0.709-0.214 1.445-0.923 1.644s-1.445-0.214-1.644-0.923c-0.026-0.092-0.053-0.184-0.081-0.275-0.090-0.29-0.193-0.575-0.307-0.854-0.279-0.682 0.048-1.46 0.729-1.739z"></path>
</svg>
