<!-- Generated by IcoMoon.io -->
<svg version="1.1" xmlns="http://www.w3.org/2000/svg" width="32" height="32" viewBox="0 0 32 32">
<title>shifts-day-filled</title>
<path d="M28 8.333c0-2.393-1.94-4.333-4.333-4.333h-15.333c-2.393 0-4.333 1.94-4.333 4.333v15.333c0 2.393 1.94 4.333 4.333 4.333h15.333c2.393 0 4.333-1.94 4.333-4.333v-15.333zM9.999 11.659c0.463-0.51 1.221-0.992 2.334-0.992 1.536 0 2.526 1.056 2.873 2.215 0.338 1.129 0.133 2.527-0.826 3.49-0.33 0.331-0.718 0.631-1.057 0.893l-0.054 0.042c-0.372 0.288-0.705 0.549-0.998 0.841-0.341 0.341-0.62 0.713-0.782 1.185h2.845c0.552 0 1 0.448 1 1s-0.448 1-1 1h-4c-0.265 0-0.52-0.105-0.707-0.293s-0.293-0.442-0.293-0.707c0-1.663 0.699-2.777 1.525-3.601 0.395-0.394 0.824-0.727 1.187-1.007l0.004-0.003c0.381-0.295 0.677-0.523 0.913-0.76 0.363-0.365 0.489-0.967 0.328-1.506-0.152-0.509-0.493-0.789-0.957-0.789-0.47 0-0.713 0.182-0.854 0.337-0.079 0.087-0.133 0.176-0.166 0.24-0.016 0.031-0.026 0.055-0.030 0.065l-0.001 0.004c-0.172 0.516-0.726 0.801-1.248 0.638-0.527-0.165-0.82-0.726-0.655-1.253l0.046-0.128c0.025-0.062 0.060-0.143 0.108-0.236 0.095-0.185 0.244-0.429 0.466-0.674zM17.667 10.667c0.552 0 1 0.448 1 1v3.666h2v-3.666c0-0.552 0.448-1 1-1s1 0.448 1 1v8.627c0 0.552-0.448 1-1 1s-1-0.448-1-1v-2.961h-3c-0.552 0-1-0.448-1-1v-4.666c0-0.552 0.448-1 1-1z"></path>
</svg>
