<!-- Generated by IcoMoon.io -->
<svg version="1.1" xmlns="http://www.w3.org/2000/svg" width="32" height="32" viewBox="0 0 32 32">
<title>shifts-add-filled</title>
<path d="M8.333 4c-2.393 0-4.333 1.94-4.333 4.333v0 7.696c1.316-0.855 2.925-1.363 4.653-1.363 0.005 0 0.009 0 0.014 0h-0.001c2.331 0 4.445 0.92 6.003 2.416-0.002-0.023-0.003-0.049-0.003-0.075 0-0.003 0-0.005 0-0.008v0-8c0-0.552 0.448-1 1-1s1 0.448 1 1v0 7h5c0.552 0 1 0.448 1 1s-0.448 1-1 1v0h-6c-0.001 0-0.002 0-0.003 0-0.063 0-0.125-0.006-0.184-0.017l0.006 0.001c1.152 1.453 1.848 3.314 1.848 5.337 0 0.005 0 0.009 0 0.013v-0.001c0 0.004 0 0.009 0 0.013 0 1.728-0.508 3.337-1.383 4.687l0.020-0.034h7.696c2.393 0 4.333-1.94 4.333-4.333v0-15.333c0-2.393-1.94-4.333-4.333-4.333v0h-15.333zM16 23.333c0-4.050-3.283-7.333-7.333-7.333s-7.333 3.283-7.333 7.333v0c0 4.050 3.283 7.333 7.333 7.333s7.333-3.283 7.333-7.333v0zM9.333 24l0.001 3.337c0 0.368-0.298 0.667-0.667 0.667s-0.667-0.298-0.667-0.667v0-3.337h-3.34c-0.368 0-0.667-0.298-0.667-0.667s0.298-0.667 0.667-0.667v0h3.339v-3.333c0-0.368 0.298-0.667 0.667-0.667s0.667 0.298 0.667 0.667v0 3.333h3.337c0.368 0 0.667 0.298 0.667 0.667s-0.298 0.667-0.667 0.667v0h-3.336z"></path>
</svg>
