<!-- Generated by IcoMoon.io -->
<svg version="1.1" xmlns="http://www.w3.org/2000/svg" width="32" height="32" viewBox="0 0 32 32">
<title>shifts-availability-filled</title>
<path d="M11.333 2.667c-4.786 0-8.667 3.88-8.667 8.667 0 4.57 3.537 8.314 8.023 8.643 0.339-4.973 4.314-8.947 9.286-9.286-0.329-4.486-4.073-8.023-8.643-8.023zM15.040 10.374l-4 4c-0.188 0.188-0.442 0.293-0.707 0.293s-0.52-0.106-0.707-0.293l-2-2.002c-0.39-0.391-0.39-1.024 0.001-1.414s1.024-0.39 1.414 0.001l1.292 1.294 3.292-3.292c0.391-0.391 1.024-0.391 1.414 0s0.391 1.024 0 1.414z"></path>
<path d="M12 20.667c0-4.787 3.88-8.667 8.667-8.667s8.667 3.88 8.667 8.667c0 4.787-3.88 8.667-8.667 8.667s-8.667-3.88-8.667-8.667zM17.623 17.652c-0.389 0.392-0.386 1.026 0.007 1.414l1.619 1.604-1.623 1.623c-0.391 0.391-0.391 1.024 0 1.414s1.024 0.391 1.414 0l1.625-1.625 1.621 1.625c0.39 0.391 1.023 0.392 1.414 0.002s0.392-1.023 0.002-1.414l-1.62-1.624 1.616-1.604c0.392-0.389 0.394-1.022 0.005-1.414s-1.022-0.394-1.414-0.005l-1.624 1.612-1.629-1.613c-0.392-0.389-1.025-0.386-1.414 0.007z"></path>
</svg>
