<!-- Generated by IcoMoon.io -->
<svg version="1.1" xmlns="http://www.w3.org/2000/svg" width="32" height="32" viewBox="0 0 32 32">
<title>shifts-add-filled</title>
<path d="M8.333 4c-2.393 0-4.333 1.94-4.333 4.333v7.696c1.347-0.862 2.948-1.362 4.667-1.362 2.33 0 4.446 0.92 6.003 2.416-0.002-0.027-0.003-0.055-0.003-0.083v-8c0-0.552 0.448-1 1-1s1 0.448 1 1v7h5c0.552 0 1 0.448 1 1s-0.448 1-1 1h-6c-0.062 0-0.122-0.006-0.181-0.016 1.157 1.473 1.848 3.331 1.848 5.35 0 1.718-0.5 3.32-1.362 4.667h7.696c2.393 0 4.333-1.94 4.333-4.333v-15.333c0-2.393-1.94-4.333-4.333-4.333h-15.333z"></path>
<path d="M16 23.333c0-4.050-3.283-7.333-7.333-7.333s-7.333 3.283-7.333 7.333c0 4.050 3.283 7.333 7.333 7.333s7.333-3.283 7.333-7.333zM9.334 24l0.001 3.338c0 0.368-0.298 0.667-0.667 0.667s-0.667-0.298-0.667-0.667l-0.001-3.338h-3.339c-0.368 0-0.667-0.298-0.667-0.667s0.298-0.667 0.667-0.667h3.339l-0.001-3.334c0-0.368 0.298-0.667 0.667-0.667s0.667 0.298 0.667 0.667l0.001 3.334h3.337c0.368 0 0.667 0.299 0.667 0.667s-0.298 0.667-0.667 0.667h-3.336z"></path>
</svg>
