<!-- Generated by IcoMoon.io -->
<svg version="1.1" xmlns="http://www.w3.org/2000/svg" width="32" height="32" viewBox="0 0 32 32">
<title>shifts-prohibited-filled</title>
<path d="M8.333 4c-2.393 0-4.333 1.94-4.333 4.333v7.696c1.347-0.862 2.948-1.362 4.667-1.362 2.33 0 4.446 0.92 6.003 2.416-0.002-0.027-0.003-0.055-0.003-0.083v-8c0-0.552 0.448-1 1-1s1 0.448 1 1v7h5c0.552 0 1 0.448 1 1s-0.448 1-1 1h-6c-0.062 0-0.122-0.006-0.181-0.016 1.157 1.473 1.848 3.331 1.848 5.35 0 1.718-0.5 3.32-1.362 4.667h7.696c2.393 0 4.333-1.94 4.333-4.333v-15.333c0-2.393-1.94-4.333-4.333-4.333h-15.333z"></path>
<path d="M16 23.333c0 4.050-3.283 7.333-7.333 7.333s-7.333-3.283-7.333-7.333c0-4.050 3.283-7.333 7.333-7.333s7.333 3.283 7.333 7.333zM3.333 23.333c0 1.111 0.34 2.143 0.921 2.998l7.409-7.409c-0.854-0.581-1.886-0.921-2.998-0.921-2.946 0-5.333 2.388-5.333 5.333zM8.667 28.667c2.946 0 5.333-2.388 5.333-5.333 0-1.111-0.34-2.143-0.921-2.998l-7.409 7.409c0.854 0.581 1.886 0.921 2.998 0.921z"></path>
</svg>
