<!-- Generated by IcoMoon.io -->
<svg version="1.1" xmlns="http://www.w3.org/2000/svg" width="32" height="32" viewBox="0 0 32 32">
<title>shifts-day-filled</title>
<path d="M28 8.333c0-2.393-1.94-4.333-4.333-4.333v0h-15.333c-2.393 0-4.333 1.94-4.333 4.333v0 15.333c0 2.393 1.94 4.333 4.333 4.333v0h15.333c2.393 0 4.333-1.94 4.333-4.333v0-15.333zM10 11.659c0.463-0.509 1.22-0.992 2.333-0.992 1.536 0 2.525 1.056 2.873 2.215 0.337 1.129 0.133 2.527-0.827 3.491-0.322 0.31-0.667 0.602-1.029 0.873l-0.028 0.020-0.053 0.041c-0.373 0.288-0.707 0.549-1 0.84-0.34 0.341-0.619 0.713-0.78 1.187h2.844c0.552 0 1 0.448 1 1s-0.448 1-1 1h-4c-0.552 0-1-0.448-1-1v0c0-1.663 0.699-2.777 1.525-3.601 0.395-0.395 0.824-0.727 1.187-1.008l0.004-0.003c0.381-0.295 0.677-0.524 0.913-0.76 0.363-0.365 0.489-0.967 0.328-1.507-0.153-0.508-0.493-0.788-0.957-0.788-0.471 0-0.713 0.183-0.853 0.337-0.079 0.087-0.145 0.188-0.194 0.298l-0.003 0.007v0.004c-0.134 0.405-0.509 0.693-0.952 0.693-0.553 0-1.001-0.448-1.001-1.001 0-0.11 0.018-0.216 0.051-0.315l-0.002 0.007 0.047-0.128c0.146-0.351 0.339-0.652 0.576-0.913l-0.002 0.003zM17.667 10.667c0.552 0 1 0.448 1 1v0 3.667h2v-3.667c0-0.552 0.448-1 1-1s1 0.448 1 1v0 8.627c0 0.552-0.448 1-1 1s-1-0.448-1-1v0-2.96h-3c-0.552 0-1-0.448-1-1v0-4.667c0-0.552 0.448-1 1-1v0z"></path>
</svg>
