<!-- Generated by IcoMoon.io -->
<svg version="1.1" xmlns="http://www.w3.org/2000/svg" width="32" height="32" viewBox="0 0 32 32">
<title>shopping-bag-arrow-left-filled</title>
<path d="M9.333 9.333v-2.667c0-2.209 1.791-4 4-4 1.026 0 1.962 0.386 2.67 1.022l-0.004-0.003c0.704-0.632 1.64-1.019 2.667-1.019 2.209 0 4 1.791 4 4v0 2.667h2c1.105 0 2 0.895 2 2v0 3.997c-0.981-0.42-2.123-0.664-3.322-0.664-0.004 0-0.008 0-0.012 0h0.001c-0.004 0-0.009 0-0.014 0-1.457 0-2.83 0.361-4.033 0.999l0.047-0.023v-6.309h1.333v-2.667c0-0 0-0 0-0 0-1.105-0.895-2-2-2-0.619 0-1.172 0.281-1.539 0.722l-0.003 0.003c0.135 0.4 0.208 0.829 0.208 1.275v10.413c-1.645 1.576-2.667 3.79-2.667 6.242 0 0.004 0 0.008 0 0.011v-0.001c0 2.329 0.919 4.443 2.413 6h-6.413c-2.946 0-5.333-2.388-5.333-5.333v0-12.667c0-1.105 0.895-2 2-2v0h2zM15.333 6.667c0-1.105-0.895-2-2-2s-2 0.895-2 2v0 2.667h4v-2.667zM23.333 16c4.050 0 7.333 3.283 7.333 7.333s-3.283 7.333-7.333 7.333v0c-4.050 0-7.333-3.283-7.333-7.333s3.283-7.333 7.333-7.333v0zM22.293 19.452l-0.093 0.076-3.355 3.356-0.053 0.067-0.059 0.103-0.031 0.079-0.027 0.113-0.003 0.147 0.020 0.115 0.040 0.107 0.044 0.081 0.068 0.088 3.355 3.356c0.121 0.121 0.288 0.196 0.472 0.196 0.368 0 0.667-0.298 0.667-0.667 0-0.142-0.045-0.274-0.121-0.382l0.001 0.002-0.077-0.093-2.195-2.195h6.385c0 0 0 0 0 0 0.326 0 0.597-0.234 0.655-0.543l0.001-0.004 0.011-0.12c0-0 0-0 0-0 0-0.326-0.234-0.597-0.543-0.655l-0.004-0.001-0.12-0.011h-6.385l2.195-2.195c0.121-0.121 0.196-0.287 0.196-0.472 0-0.142-0.044-0.273-0.12-0.381l0.001 0.002-0.077-0.093c-0.121-0.12-0.287-0.195-0.471-0.195-0.142 0-0.274 0.044-0.382 0.12l0.002-0.001z"></path>
</svg>
