<!-- Generated by IcoMoon.io -->
<svg version="1.1" xmlns="http://www.w3.org/2000/svg" width="32" height="32" viewBox="0 0 32 32">
<title>shopping-bag-percent-filled</title>
<path d="M9.333 6.667v2.667h-2c-1.105 0-2 0.895-2 2v12.667c0 2.945 2.388 5.333 5.333 5.333h5.558c-0.411-0.866-0.258-1.933 0.459-2.65l0.945-0.945c-0.189-0.549-0.295-1.131-0.295-1.738v-0.449c-1.577-0.749-2.667-2.356-2.667-4.218s1.090-3.469 2.667-4.218v-8.449c0-0.446-0.073-0.875-0.208-1.275 0.367-0.443 0.921-0.725 1.541-0.725 1.105 0 2 0.895 2 2v2.667h-1.333v5.333c2.577 0 4.667 2.089 4.667 4.667l-0 0.034 2.667-2.667v-5.367c0-1.105-0.895-2-2-2h-2v-2.667c0-2.209-1.791-4-4-4-1.024 0-1.959 0.385-2.667 1.019-0.708-0.633-1.642-1.019-2.667-1.019-2.209 0-4 1.791-4 4zM11.333 9.333v-2.667c0-1.105 0.895-2 2-2s2 0.895 2 2v2.667h-4zM19.333 22.667c1.841 0 3.333-1.492 3.333-3.333s-1.492-3.333-3.333-3.333c-1.841 0-3.333 1.492-3.333 3.333s1.492 3.333 3.333 3.333zM19.333 18c0.736 0 1.333 0.597 1.333 1.333s-0.597 1.333-1.333 1.333c-0.736 0-1.333-0.597-1.333-1.333s0.597-1.333 1.333-1.333zM27.333 30.667c1.841 0 3.333-1.492 3.333-3.333s-1.492-3.333-3.333-3.333c-1.841 0-3.333 1.492-3.333 3.333s1.492 3.333 3.333 3.333zM27.333 26c0.736 0 1.333 0.597 1.333 1.333s-0.597 1.333-1.333 1.333c-0.736 0-1.333-0.597-1.333-1.333s0.597-1.333 1.333-1.333zM29.040 19.040c0.391-0.391 0.391-1.024 0-1.414s-1.024-0.391-1.414 0l-10 10c-0.391 0.391-0.391 1.024 0 1.414s1.024 0.391 1.414 0l10-10z"></path>
</svg>
