<!-- Generated by IcoMoon.io -->
<svg version="1.1" xmlns="http://www.w3.org/2000/svg" width="32" height="32" viewBox="0 0 32 32">
<title>shopping-bag-filled</title>
<path d="M9.333 9.333v-2.667c0-2.209 1.791-4 4-4 1.025 0 1.959 0.385 2.667 1.019 0.708-0.633 1.642-1.019 2.667-1.019 2.209 0 4 1.791 4 4v2.667h2c1.105 0 2 0.895 2 2v12.667c0 1.876-0.968 3.525-2.433 4.476l-0.728-0.128c-1.033-0.181-2.098-0.751-2.9-1.563-0.801-0.811-1.273-1.795-1.273-2.785v-14.667h1.333v-2.667c0-1.105-0.895-2-2-2-0.62 0-1.174 0.282-1.541 0.725 0.135 0.4 0.208 0.829 0.208 1.275v17.333c0 1.639 0.776 3.102 1.85 4.19 0.429 0.434 0.915 0.82 1.438 1.143h-9.955c-2.946 0-5.333-2.388-5.333-5.333v-12.667c0-1.105 0.895-2 2-2h2zM11.333 6.667v2.667h4v-2.667c0-1.105-0.895-2-2-2s-2 0.895-2 2z"></path>
</svg>
