<!-- Generated by IcoMoon.io -->
<svg version="1.1" xmlns="http://www.w3.org/2000/svg" width="32" height="32" viewBox="0 0 32 32">
<title>shopping-bag-percent-filled</title>
<path d="M9.333 6.667v2.667h-2c-1.105 0-2 0.895-2 2v0 12.667c0 2.946 2.388 5.333 5.333 5.333v0h5.557c-0.142-0.292-0.224-0.636-0.224-0.998 0-0.645 0.262-1.229 0.684-1.651l0-0 0.944-0.947c-0.186-0.518-0.293-1.115-0.295-1.737v-0.45c-1.591-0.766-2.669-2.366-2.669-4.217s1.078-3.451 2.641-4.205l0.028-0.012v-8.449c0-0.445-0.073-0.875-0.208-1.275 0.369-0.445 0.923-0.726 1.541-0.726 1.105 0 2 0.895 2 2 0 0 0 0 0 0v0 2.667h-1.333v5.333c2.577 0 4.667 2.089 4.667 4.667v0 0.033l2.667-2.667v-5.367c0-1.105-0.895-2-2-2v0h-2v-2.667c-0-2.209-1.791-4-4-4-1.026 0-1.962 0.386-2.67 1.022l0.004-0.003c-0.704-0.632-1.64-1.019-2.667-1.019-2.209 0-4 1.791-4 4v0zM11.333 9.333v-2.667c0-1.105 0.895-2 2-2s2 0.895 2 2v0 2.667h-4zM19.333 22.667c1.841 0 3.333-1.492 3.333-3.333s-1.492-3.333-3.333-3.333v0c-1.841 0-3.333 1.492-3.333 3.333s1.492 3.333 3.333 3.333v0zM19.333 18c0.736 0 1.333 0.597 1.333 1.333s-0.597 1.333-1.333 1.333v0c-0.736 0-1.333-0.597-1.333-1.333s0.597-1.333 1.333-1.333v0zM27.333 30.667c1.841 0 3.333-1.492 3.333-3.333s-1.492-3.333-3.333-3.333v0c-1.841 0-3.333 1.492-3.333 3.333s1.492 3.333 3.333 3.333v0zM27.333 26c0.736 0 1.333 0.597 1.333 1.333s-0.597 1.333-1.333 1.333v0c-0.736 0-1.333-0.597-1.333-1.333s0.597-1.333 1.333-1.333v0zM29.040 19.040c0.196-0.183 0.318-0.443 0.318-0.732 0-0.552-0.448-1-1-1-0.289 0-0.549 0.122-0.731 0.318l-0.001 0.001-10 10c-0.196 0.183-0.318 0.443-0.318 0.732 0 0.552 0.448 1 1 1 0.289 0 0.549-0.122 0.731-0.318l0.001-0.001 10-10z"></path>
</svg>
