<!-- Generated by IcoMoon.io -->
<svg version="1.1" xmlns="http://www.w3.org/2000/svg" width="32" height="32" viewBox="0 0 32 32">
<title>shopping-bag-tag-filled</title>
<path d="M9.333 9.333v-2.667c0-2.209 1.791-4 4-4 1.025 0 1.959 0.385 2.667 1.019 0.708-0.633 1.642-1.019 2.667-1.019 2.209 0 4 1.791 4 4v2.667h2c1.105 0 2 0.895 2 2v5.757l-1.291-1.272c-0.751-0.739-1.763-1.153-2.817-1.152l-3.225 0.002v-5.336h1.333v-2.667c0-1.105-0.895-2-2-2-0.62 0-1.174 0.282-1.541 0.725 0.135 0.4 0.208 0.829 0.208 1.275v8.231c-1.552 0.549-2.667 2.025-2.667 3.766v3.915c0 1.047 0.412 2.051 1.145 2.797l3.887 3.956h-9.032c-2.946 0-5.333-2.388-5.333-5.333v-12.667c0-1.105 0.895-2 2-2h2zM11.333 6.667v2.667h4v-2.667c0-1.105-0.895-2-2-2s-2 0.895-2 2zM16.763 24.443l5.335 5.43c1.042 1.060 2.753 1.068 3.803 0.016l3.991-3.996c1.043-1.045 1.036-2.735-0.016-3.772l-5.435-5.352c-0.501-0.493-1.177-0.769-1.88-0.769l-3.89 0.003c-1.475 0.001-2.669 1.192-2.669 2.661v3.915c0 0.696 0.274 1.365 0.763 1.863zM21.328 20c0 0.736-0.596 1.333-1.332 1.333s-1.332-0.597-1.332-1.333 0.596-1.333 1.332-1.333c0.736 0 1.332 0.597 1.332 1.333z"></path>
</svg>
