<!-- Generated by IcoMoon.io -->
<svg version="1.1" xmlns="http://www.w3.org/2000/svg" width="32" height="32" viewBox="0 0 32 32">
<title>shopping-bag-pause-filled</title>
<path d="M9.6 9.6v-2.56c0-2.121 1.719-3.84 3.84-3.84 0.985 0 1.884 0.371 2.564 0.981l-0.004-0.003c0.676-0.607 1.575-0.978 2.56-0.978 2.121 0 3.84 1.719 3.84 3.84v0 2.56h1.92c1.060 0 1.92 0.86 1.92 1.92v0 3.837c-0.942-0.403-2.038-0.637-3.189-0.637-0.004 0-0.008 0-0.012 0h0.001c-0.004 0-0.008 0-0.013 0-1.399 0-2.716 0.347-3.872 0.959l0.045-0.022v-6.057h1.28v-2.56c0-0 0-0 0-0 0-1.060-0.86-1.92-1.92-1.92-0.594 0-1.125 0.27-1.477 0.693l-0.003 0.003c0.129 0.384 0.2 0.796 0.2 1.224v9.997c-1.579 1.513-2.56 3.638-2.56 5.993 0 0.004 0 0.007 0 0.011v-0.001c0 2.236 0.882 4.265 2.317 5.76h-6.157c-2.828 0-5.12-2.292-5.12-5.12v0-12.16c0-1.060 0.86-1.92 1.92-1.92v0h1.92zM11.52 7.040v2.56h3.84v-2.56c0-1.060-0.86-1.92-1.92-1.92s-1.92 0.86-1.92 1.92v0zM30.080 23.040c0 3.888-3.152 7.040-7.040 7.040s-7.040-3.152-7.040-7.040v0c0-3.888 3.152-7.040 7.040-7.040s7.040 3.152 7.040 7.040v0zM20.48 19.2c-0.353 0-0.64 0.287-0.64 0.64v0 6.4c0 0.353 0.287 0.64 0.64 0.64s0.64-0.287 0.64-0.64v0-6.4c0-0.353-0.287-0.64-0.64-0.64v0zM25.6 19.2c-0.353 0-0.64 0.287-0.64 0.64v0 6.4c0 0.353 0.287 0.64 0.64 0.64s0.64-0.287 0.64-0.64v0-6.4c0-0.353-0.287-0.64-0.64-0.64v0z"></path>
</svg>
