<!-- Generated by IcoMoon.io -->
<svg version="1.1" xmlns="http://www.w3.org/2000/svg" width="32" height="32" viewBox="0 0 32 32">
<title>shopping-bag-filled</title>
<path d="M9.333 9.333v-2.667c0-2.209 1.791-4 4-4 1.026 0 1.962 0.386 2.67 1.022l-0.004-0.003c0.704-0.632 1.64-1.019 2.667-1.019 2.209 0 4 1.791 4 4v0 2.667h2c1.105 0 2 0.895 2 2v0 12.667c0 0.001 0 0.001 0 0.002 0 1.867-0.96 3.509-2.413 4.461l-0.020 0.012-0.727-0.128c-1.033-0.181-2.099-0.751-2.9-1.563-0.8-0.812-1.273-1.795-1.273-2.785v-14.667h1.333v-2.667c0-0 0-0 0-0 0-1.105-0.895-2-2-2-0.619 0-1.172 0.281-1.539 0.722l-0.003 0.003c0.135 0.4 0.208 0.829 0.208 1.275v17.333c0 1.639 0.776 3.101 1.849 4.189 0.423 0.427 0.895 0.805 1.407 1.125l0.033 0.019h-9.956c-2.946 0-5.333-2.388-5.333-5.333v0-12.667c0-1.105 0.895-2 2-2v0h2zM11.333 6.667v2.667h4v-2.667c0-1.105-0.895-2-2-2s-2 0.895-2 2v0z"></path>
</svg>
