<!-- Generated by IcoMoon.io -->
<svg version="1.1" xmlns="http://www.w3.org/2000/svg" width="32" height="32" viewBox="0 0 32 32">
<title>shopping-bag-pause-filled</title>
<path d="M9.333 9.333v-2.667c0-2.209 1.791-4 4-4 1.025 0 1.959 0.385 2.667 1.019 0.708-0.633 1.642-1.019 2.667-1.019 2.209 0 4 1.791 4 4v2.667h2c1.105 0 2 0.895 2 2v3.998c-1.026-0.428-2.152-0.664-3.333-0.664-1.443 0-2.803 0.353-4 0.976v-6.31h1.333v-2.667c0-1.105-0.895-2-2-2-0.62 0-1.174 0.282-1.541 0.725 0.135 0.4 0.208 0.829 0.208 1.275v10.413c-1.644 1.577-2.667 3.796-2.667 6.254 0 2.329 0.918 4.443 2.413 6h-6.413c-2.946 0-5.333-2.388-5.333-5.333v-12.667c0-1.105 0.895-2 2-2h2zM11.333 6.667v2.667h4v-2.667c0-1.105-0.895-2-2-2s-2 0.895-2 2zM30.667 23.333c0 4.050-3.283 7.333-7.333 7.333s-7.333-3.283-7.333-7.333c0-4.050 3.283-7.333 7.333-7.333s7.333 3.283 7.333 7.333zM20.667 19.333c-0.368 0-0.667 0.299-0.667 0.667v6.667c0 0.368 0.299 0.667 0.667 0.667s0.667-0.299 0.667-0.667v-6.667c0-0.368-0.299-0.667-0.667-0.667zM26 19.333c-0.368 0-0.667 0.299-0.667 0.667v6.667c0 0.368 0.299 0.667 0.667 0.667s0.667-0.299 0.667-0.667v-6.667c0-0.368-0.299-0.667-0.667-0.667z"></path>
</svg>
