<!-- Generated by IcoMoon.io -->
<svg version="1.1" xmlns="http://www.w3.org/2000/svg" width="32" height="32" viewBox="0 0 32 32">
<title>sidebar-search-ltr-filled</title>
<path d="M4.8 8.8c0-2.209 1.791-4 4-4v0h14.4c2.209 0 4 1.791 4 4v0 14.4c0 2.209-1.791 4-4 4v0h-4.136c-0.126-0.351-0.32-0.65-0.566-0.896l-3.2-3.2c0.444-0.908 0.704-1.977 0.704-3.106 0-3.976-3.224-7.2-7.2-7.2-1.492 0-2.878 0.454-4.027 1.231l0.025-0.016v-5.213zM20.8 10.4v11.2c0 0.442 0.358 0.8 0.8 0.8s0.8-0.358 0.8-0.8v0-11.2c0-0.442-0.358-0.8-0.8-0.8s-0.8 0.358-0.8 0.8v0zM14.4 20c0 1.258-0.416 2.419-1.115 3.354l4.080 4.080c0.139 0.144 0.225 0.34 0.225 0.556 0 0.442-0.358 0.8-0.8 0.8-0.216 0-0.412-0.086-0.556-0.225l-4.080-4.080c-0.923 0.696-2.089 1.115-3.354 1.115-3.093 0-5.6-2.507-5.6-5.6s2.507-5.6 5.6-5.6c3.093 0 5.6 2.507 5.6 5.6v0zM12.8 20c0-2.209-1.791-4-4-4s-4 1.791-4 4v0c0 2.209 1.791 4 4 4s4-1.791 4-4v0z"></path>
</svg>
