<!-- Generated by IcoMoon.io -->
<svg version="1.1" xmlns="http://www.w3.org/2000/svg" width="32" height="32" viewBox="0 0 32 32">
<title>sim-filled</title>
<path d="M5.333 7c0-2.393 1.94-4.333 4.333-4.333v0h7.285c0 0 0.001 0 0.001 0 1.197 0 2.28 0.485 3.064 1.269l5.38 5.38c0.813 0.813 1.269 1.916 1.269 3.065v12.619c0 2.393-1.94 4.333-4.333 4.333v0h-12.667c-2.393 0-4.333-1.94-4.333-4.333v0-18zM10.333 18.667h5.667v-4.333h-3.667c-1.105 0-2 0.895-2 2v0 2.333zM10.333 20.667v1.667c0 1.105 0.895 2 2 2v0h3.667v-3.667h-5.667zM18 24.333h1.667c1.105 0 2-0.895 2-2v0-6c0-1.105-0.895-2-2-2v0h-1.667v10z"></path>
</svg>
