<!-- Generated by IcoMoon.io -->
<svg version="1.1" xmlns="http://www.w3.org/2000/svg" width="32" height="32" viewBox="0 0 32 32">
<title>skip-forward-tab-filled</title>
<path d="M29.333 4.333c0-0.736-0.597-1.333-1.333-1.333s-1.333 0.597-1.333 1.333v3.638c-1.424-1.439-3.171-2.628-5.272-3.278-3.241-1.003-6.683-0.92-9.859 0.262-3.152 1.172-6.138 3.552-7.704 6.409-0.354 0.646-0.118 1.456 0.528 1.81s1.456 0.118 1.81-0.528c1.215-2.216 3.654-4.209 6.296-5.191 2.617-0.974 5.455-1.045 8.141-0.214 1.965 0.608 3.597 1.855 4.91 3.426h-4.516c-0.736 0-1.333 0.597-1.333 1.333s0.597 1.333 1.333 1.333h7c0.736 0 1.333-0.597 1.333-1.333v-7.667zM8 20c0-1.473 1.194-2.667 2.667-2.667h10.667c1.473 0 2.667 1.194 2.667 2.667v5.333c0 1.473-1.194 2.667-2.667 2.667h-10.667c-1.473 0-2.667-1.194-2.667-2.667v-5.333zM10.667 20.667v4c0 0.368 0.298 0.667 0.667 0.667h9.333c0.368 0 0.667-0.299 0.667-0.667v-4c0-0.368-0.299-0.667-0.667-0.667h-9.333c-0.368 0-0.667 0.299-0.667 0.667z"></path>
</svg>
