<!-- Generated by IcoMoon.io -->
<svg version="1.1" xmlns="http://www.w3.org/2000/svg" width="32" height="32" viewBox="0 0 32 32">
<title>skip-forward-30-filled</title>
<path d="M28 3c0.736 0 1.333 0.597 1.333 1.333v7.667c0 0.736-0.597 1.333-1.333 1.333h-7c-0.736 0-1.333-0.597-1.333-1.333s0.597-1.333 1.333-1.333h4.516c-1.313-1.571-2.944-2.818-4.91-3.426-2.686-0.831-5.524-0.76-8.141 0.214-2.641 0.983-5.080 2.975-6.296 5.191-0.354 0.646-1.164 0.882-1.81 0.528s-0.882-1.164-0.528-1.81c1.567-2.857 4.553-5.236 7.704-6.409 3.176-1.181 6.618-1.265 9.859-0.262 2.102 0.65 3.848 1.839 5.272 3.278v-3.638c0-0.736 0.597-1.333 1.333-1.333zM8.608 18.278c0.205-0.205 0.41-0.405 0.77-0.581 0.363-0.177 0.962-0.363 1.955-0.363 2.143 0 2.565 1.026 2.578 1.381 0.011 0.322-0.29 1.286-2.244 1.286-0.736 0-1.333 0.597-1.333 1.333s0.597 1.333 1.333 1.333c1.954 0 2.256 0.964 2.244 1.286-0.013 0.355-0.435 1.381-2.578 1.381-0.993 0-1.592-0.186-1.955-0.363-0.361-0.176-0.565-0.377-0.77-0.581-0.522-0.52-1.366-0.518-1.886 0.003s-0.518 1.366 0.003 1.886l0.010 0.010c0.248 0.248 0.708 0.706 1.474 1.079 0.774 0.377 1.782 0.633 3.124 0.633 2.992 0 5.16-1.641 5.243-3.953 0.038-1.073-0.381-2.012-1.124-2.714 0.743-0.702 1.162-1.641 1.124-2.714-0.082-2.312-2.251-3.953-5.243-3.953-1.341 0-2.349 0.255-3.124 0.633-0.766 0.373-1.226 0.832-1.474 1.079l-0.010 0.010c-0.522 0.52-0.523 1.364-0.003 1.886s1.364 0.523 1.886 0.003zM18.989 16.881c0.812-1.368 2.163-2.215 4.011-2.215s3.199 0.847 4.011 2.215c0.752 1.266 0.989 2.882 0.989 4.452s-0.237 3.186-0.989 4.452c-0.812 1.368-2.163 2.215-4.011 2.215s-3.199-0.847-4.011-2.215c-0.752-1.266-0.989-2.882-0.989-4.452s0.237-3.186 0.989-4.452zM21.282 18.243c-0.394 0.664-0.615 1.715-0.615 3.091s0.221 2.426 0.615 3.091c0.334 0.563 0.816 0.909 1.718 0.909s1.384-0.347 1.718-0.909c0.394-0.664 0.615-1.715 0.615-3.091s-0.221-2.426-0.615-3.091c-0.334-0.563-0.816-0.909-1.718-0.909s-1.384 0.347-1.718 0.909z"></path>
</svg>
