<!-- Generated by IcoMoon.io -->
<svg version="1.1" xmlns="http://www.w3.org/2000/svg" width="32" height="32" viewBox="0 0 32 32">
<title>skip-forward-10-filled</title>
<path d="M28.333 2.667c0.552 0 1 0.448 1 1v0 8c0 0.552-0.448 1-1 1v0h-7.333c-0.552 0-1-0.448-1-1s0.448-1 1-1v0h5.597c-2.43-3.488-6.243-5.398-10.583-5.333-4.955 0.073-9.46 2.589-11.619 6.944-0.168 0.329-0.505 0.55-0.893 0.55-0.552 0-1-0.448-1-1 0-0.159 0.037-0.31 0.104-0.444l-0.003 0.006c2.536-5.115 7.781-7.972 13.381-8.056 4.487-0.067 8.531 1.721 11.348 5.018v-4.685c0-0.552 0.448-1 1-1v0zM20.21 14.667c-1.8 0-3.084 0.829-3.859 2.155-0.729 1.249-0.975 2.875-0.975 4.511s0.245 3.262 0.975 4.511c0.775 1.327 2.058 2.155 3.859 2.155s3.083-0.829 3.858-2.155c0.73-1.249 0.975-2.875 0.975-4.511s-0.245-3.262-0.975-4.511c-0.775-1.326-2.058-2.155-3.858-2.155zM17.377 21.333c0-1.493 0.233-2.701 0.702-3.503 0.423-0.724 1.056-1.164 2.131-1.164s1.707 0.439 2.131 1.164c0.469 0.801 0.703 2.009 0.703 3.503s-0.234 2.701-0.702 3.503c-0.425 0.724-1.057 1.164-2.132 1.164s-1.708-0.439-2.131-1.164c-0.468-0.801-0.702-2.009-0.702-3.503zM12.667 15.667c0-0 0-0 0-0 0-0.552-0.448-1-1-1-0.366 0-0.686 0.196-0.86 0.49l-0.003 0.005v0.001l-0.040 0.064c-0.245 0.378-0.486 0.704-0.746 1.013l0.012-0.015c-0.522 0.627-1.265 1.371-2.177 1.919-0.283 0.18-0.468 0.492-0.468 0.847 0 0.552 0.448 1 1 1 0.183 0 0.354-0.049 0.501-0.134l-0.005 0.003c0.674-0.414 1.259-0.871 1.787-1.386l-0.002 0.002v8.527c0 0.552 0.448 1 1 1s1-0.448 1-1v0-11.333z"></path>
</svg>
