<!-- Generated by IcoMoon.io -->
<svg version="1.1" xmlns="http://www.w3.org/2000/svg" width="32" height="32" viewBox="0 0 32 32">
<title>skip-forward-tab-filled</title>
<path d="M29.333 4.333c0-0.736-0.597-1.333-1.333-1.333s-1.333 0.597-1.333 1.333v0 3.639c-1.424-1.44-3.171-2.628-5.272-3.28-1.359-0.44-2.922-0.693-4.545-0.693-1.908 0-3.735 0.351-5.418 0.991l0.105-0.035c-3.152 1.173-6.139 3.552-7.705 6.409-0.103 0.185-0.164 0.406-0.164 0.641 0 0.736 0.597 1.333 1.333 1.333 0.501 0 0.938-0.277 1.166-0.686l0.003-0.007c1.215-2.216 3.653-4.208 6.296-5.191 1.302-0.499 2.809-0.788 4.382-0.788 1.342 0 2.635 0.21 3.848 0.599l-0.089-0.025c1.965 0.608 3.596 1.853 4.909 3.425h-4.516c-0.736 0-1.333 0.597-1.333 1.333s0.597 1.333 1.333 1.333v0h7c0.736 0 1.333-0.597 1.333-1.333v0-7.667zM8 20c0-1.473 1.194-2.667 2.667-2.667v0h10.667c1.473 0 2.667 1.194 2.667 2.667v0 5.333c0 1.473-1.194 2.667-2.667 2.667v0h-10.667c-1.473 0-2.667-1.194-2.667-2.667v0-5.333zM10.667 20.667v4c0 0.368 0.298 0.667 0.667 0.667v0h9.333c0.368 0 0.667-0.298 0.667-0.667v0-4c0-0.368-0.298-0.667-0.667-0.667v0h-9.333c-0.368 0-0.667 0.298-0.667 0.667v0z"></path>
</svg>
