<!-- Generated by IcoMoon.io -->
<svg version="1.1" xmlns="http://www.w3.org/2000/svg" width="32" height="32" viewBox="0 0 32 32">
<title>skip-back-10-filled</title>
<path d="M2.667 3.667c0-0.552 0.448-1 1-1s1 0.448 1 1v0 4.685c2.817-3.297 6.861-5.085 11.348-5.018 5.6 0.084 10.846 2.941 13.381 8.056 0.064 0.128 0.101 0.278 0.101 0.438 0 0.552-0.448 1-1 1-0.388 0-0.725-0.221-0.89-0.544l-0.003-0.006c-2.159-4.355-6.664-6.87-11.619-6.944-4.34-0.065-8.153 1.845-10.583 5.333h5.597c0.552 0 1 0.448 1 1s-0.448 1-1 1v0h-7.333c-0.552 0-1-0.448-1-1v0-8zM12.667 15.667c0-0 0-0 0-0 0-0.552-0.448-1-1-1-0.366 0-0.686 0.196-0.86 0.49l-0.003 0.005-0.001 0.001-0.007 0.011c-0.069 0.114-0.128 0.204-0.19 0.292l0.011-0.016c-0.132 0.193-0.33 0.467-0.588 0.776-0.523 0.627-1.265 1.371-2.178 1.919-0.298 0.177-0.494 0.497-0.494 0.862 0 0.552 0.448 1 1 1 0.194 0 0.374-0.055 0.527-0.15l-0.004 0.002c0.674-0.414 1.259-0.871 1.787-1.386l-0.002 0.002v8.527c0 0.552 0.448 1 1 1s1-0.448 1-1v0-11.333zM20.209 14.667c-1.8 0-3.083 0.829-3.858 2.155-0.73 1.249-0.975 2.875-0.975 4.511s0.245 3.262 0.975 4.511c0.775 1.327 2.058 2.155 3.858 2.155s3.084-0.829 3.859-2.155c0.729-1.249 0.975-2.875 0.975-4.511s-0.245-3.262-0.975-4.511c-0.775-1.327-2.059-2.155-3.859-2.155zM17.376 21.333c0-1.493 0.234-2.701 0.702-3.503 0.423-0.724 1.057-1.164 2.131-1.164s1.708 0.439 2.131 1.164c0.468 0.801 0.702 2.009 0.702 3.503s-0.233 2.701-0.702 3.503c-0.423 0.724-1.057 1.164-2.131 1.164s-1.708-0.439-2.131-1.164c-0.468-0.801-0.702-2.009-0.702-3.503z"></path>
</svg>
