<!-- Generated by IcoMoon.io -->
<svg version="1.1" xmlns="http://www.w3.org/2000/svg" width="32" height="32" viewBox="0 0 32 32">
<title>sleep-filled</title>
<path d="M17.837 4.035c6.342 0.358 11.35 5.588 11.35 11.987 0 6.63-5.375 12.005-12.005 12.005-4.081 0-7.686-2.036-9.856-5.148l-0.026-0.039c-0.1-0.143-0.159-0.32-0.159-0.511 0-0.389 0.246-0.72 0.591-0.846l0.006-0.002c4.521-1.619 6.944-3.493 8.349-6.177 1.48-2.824 1.861-5.917 0.827-10.159-0.016-0.064-0.026-0.138-0.026-0.213 0-0.497 0.403-0.9 0.9-0.9 0.017 0 0.034 0 0.051 0.001l-0.002-0zM14.659 4.871l0.008 0.129v7c-0.001 1.472-1.194 2.666-2.667 2.666s-2.667-1.194-2.667-2.667 1.194-2.667 2.667-2.667c0.237 0 0.468 0.031 0.687 0.089l-0.019-0.004-0.001-3.067-4.667 1.421v5.561c-0.001 1.472-1.194 2.666-2.667 2.666s-2.667-1.194-2.667-2.667 1.194-2.667 2.667-2.667c0.237 0 0.468 0.031 0.687 0.089l-0.019-0.004-0.001-3.72c0-0 0-0.001 0-0.001 0-0.397 0.232-0.74 0.567-0.902l0.006-0.003 0.136-0.052 6.667-2.028c0.087-0.028 0.187-0.043 0.291-0.043 0.506 0 0.924 0.376 0.991 0.864l0.001 0.005z"></path>
</svg>
