<!-- Generated by IcoMoon.io -->
<svg version="1.1" xmlns="http://www.w3.org/2000/svg" width="32" height="32" viewBox="0 0 32 32">
<title>slide-layout-filled</title>
<path d="M8.667 11.667c0-0.184 0.149-0.333 0.333-0.333v0h14c0.184 0 0.333 0.149 0.333 0.333v0 2.333h-14.667v-2.333zM8.667 16v4.333c0 0.184 0.149 0.333 0.333 0.333h3v-4.667h-3.333zM23 20.667h-9v-4.667h9.333v4.333c0 0.184-0.149 0.333-0.333 0.333v0zM2.667 9c0-2.025 1.642-3.667 3.667-3.667v0h19.333c2.025 0 3.667 1.642 3.667 3.667v0 14c0 2.025-1.642 3.667-3.667 3.667v0h-19.333c-2.025 0-3.667-1.642-3.667-3.667v0-14zM9 9.333c-1.289 0-2.333 1.045-2.333 2.333v0 8.667c0 1.288 1.045 2.333 2.333 2.333h14c1.289 0 2.333-1.045 2.333-2.333v0-8.667c0-1.289-1.045-2.333-2.333-2.333v0h-14z"></path>
</svg>
