<!-- Generated by IcoMoon.io -->
<svg version="1.1" xmlns="http://www.w3.org/2000/svg" width="32" height="32" viewBox="0 0 32 32">
<title>slide-text-multiple-filled</title>
<path d="M6.5 4c-2.485 0-4.5 2.015-4.5 4.5v0 11c0 2.485 2.015 4.5 4.5 4.5v0h15c2.485 0 4.5-2.015 4.5-4.5v0-11c0-2.485-2.015-4.5-4.5-4.5v0h-15zM8 9h7c0.552 0 1 0.448 1 1s-0.448 1-1 1v0h-7c-0.552 0-1-0.448-1-1s0.448-1 1-1v0zM8 13h12c0.552 0 1 0.448 1 1s-0.448 1-1 1v0h-12c-0.552 0-1-0.448-1-1s0.448-1 1-1v0zM7 18c0-0.552 0.448-1 1-1v0h8c0.552 0 1 0.448 1 1s-0.448 1-1 1v0h-8c-0.552 0-1-0.448-1-1v0zM28 21c0 2.761-2.239 5-5 5v0h-15.899c1.258 1.237 2.985 2 4.89 2 0.003 0 0.006 0 0.009 0h11c3.866 0 7-3.134 7-7v0-7c0-0.003 0-0.006 0-0.009 0-1.905-0.763-3.632-2.001-4.891l0.001 0.001v11.9z"></path>
</svg>
