<!-- Generated by IcoMoon.io -->
<svg version="1.1" xmlns="http://www.w3.org/2000/svg" width="32" height="32" viewBox="0 0 32 32">
<title>slide-eraser-filled</title>
<path d="M6.33 5.333c-2.023 0-3.664 1.641-3.664 3.666v13.995c0 2.024 1.64 3.666 3.664 3.666h10.426c-1.069-1.309-0.994-3.241 0.226-4.462l6.551-6.555c1.301-1.301 3.409-1.301 4.71 0l1.067 1.068v-7.712c0-2.024-1.64-3.665-3.664-3.665h-19.318zM27.303 16.585c-0.78-0.781-2.046-0.781-2.826 0l-4.144 4.146 5.605 5.608 4.144-4.146c0.78-0.781 0.78-2.047 0-2.827l-2.779-2.78zM17.925 23.14l1.465-1.466 5.605 5.608-1.465 1.466c-0.78 0.781-2.046 0.781-2.826 0l-2.779-2.78c-0.78-0.781-0.78-2.047 0-2.828z"></path>
</svg>
