<!-- Generated by IcoMoon.io -->
<svg version="1.1" xmlns="http://www.w3.org/2000/svg" width="32" height="32" viewBox="0 0 32 32">
<title>slide-microphone-filled</title>
<path d="M2.667 9c0-2.025 1.642-3.667 3.667-3.667h19.333c2.025 0 3.667 1.642 3.667 3.667v10.333c0-2.307-1.844-4.667-4.667-4.667-2.82 0-4.667 2.345-4.667 4.667v2.114c-0.209-0.074-0.433-0.114-0.667-0.114-1.105 0-2 0.895-2 2 0 1.226 0.37 2.36 1.004 3.333h-12.004c-2.025 0-3.667-1.642-3.667-3.667v-14zM9 10.667c-0.552 0-1 0.448-1 1s0.448 1 1 1h6c0.552 0 1-0.448 1-1s-0.448-1-1-1h-6zM9 14.667c-0.552 0-1 0.448-1 1s0.448 1 1 1h8.667c0.552 0 1-0.448 1-1s-0.448-1-1-1h-8.667zM8 19.667c0 0.552 0.448 1 1 1h7.333c0.552 0 1-0.448 1-1s-0.448-1-1-1h-7.333c-0.552 0-1 0.448-1 1z"></path>
<path d="M20 23.333c0 1.447 0.803 2.638 2.029 3.333 0.751 0.426 1.659 0.667 2.638 0.667 2.577 0 4.667-1.667 4.667-4 0-0.368 0.299-0.667 0.667-0.667s0.667 0.299 0.667 0.667c0 2.667-2.333 4.965-5.333 5.297v1.37c0 0.368-0.299 0.667-0.667 0.667s-0.667-0.299-0.667-0.667v-1.37c-1.598-0.177-3.008-0.912-3.975-1.963-0.849-0.922-1.358-2.087-1.358-3.333 0-0.368 0.299-0.667 0.667-0.667s0.667 0.299 0.667 0.667z"></path>
<path d="M21.333 19.333c0-1.672 1.333-3.333 3.333-3.333s3.333 1.673 3.333 3.333v3.333c0 1.661-1.333 3.333-3.333 3.333s-3.333-1.664-3.333-3.333v-3.333z"></path>
</svg>
