<!-- Generated by IcoMoon.io -->
<svg version="1.1" xmlns="http://www.w3.org/2000/svg" width="32" height="32" viewBox="0 0 32 32">
<title>slide-text-filled</title>
<path d="M2.667 9c0-2.025 1.642-3.667 3.667-3.667h19.333c2.025 0 3.667 1.642 3.667 3.667v14c0 2.025-1.642 3.667-3.667 3.667h-19.333c-2.025 0-3.667-1.642-3.667-3.667v-14zM9 10.667c-0.552 0-1 0.448-1 1s0.448 1 1 1h6c0.552 0 1-0.448 1-1s-0.448-1-1-1h-6zM9 14.667c-0.552 0-1 0.448-1 1s0.448 1 1 1h11.333c0.552 0 1-0.448 1-1s-0.448-1-1-1h-11.333zM8 19.667c0 0.552 0.448 1 1 1h8.667c0.552 0 1-0.448 1-1s-0.448-1-1-1h-8.667c-0.552 0-1 0.448-1 1z"></path>
</svg>
