<!-- Generated by IcoMoon.io -->
<svg version="1.1" xmlns="http://www.w3.org/2000/svg" width="32" height="32" viewBox="0 0 32 32">
<title>slide-link-filled</title>
<path d="M2.667 8.333c0-1.657 1.343-3 3-3v0h20.667c1.657 0 3 1.343 3 3v0 9.503c-1.016-0.731-2.285-1.169-3.657-1.169-0.003 0-0.007 0-0.010 0h-4.666c0 0 0 0-0 0-3.498 0-6.333 2.836-6.333 6.333 0 1.375 0.438 2.647 1.182 3.686l-0.013-0.019h-10.169c-1.657 0-3-1.343-3-3v0-15.333zM30.667 23c0-2.761-2.239-5-5-5v0l-0.136 0.009c-0.491 0.069-0.864 0.486-0.864 0.991 0 0.552 0.448 1 1 1h0l0.205 0.007c1.569 0.108 2.8 1.407 2.8 2.993 0 1.657-1.343 3-3 3-0.002 0-0.004 0-0.006 0h0l-0.004 0.007-0.136 0.009c-0.491 0.069-0.864 0.486-0.864 0.991 0 0.552 0.448 1 1 1 0.003 0 0.006 0 0.008-0h-0v-0.007l0.267-0.007c2.642-0.148 4.729-2.326 4.729-4.993 0-0 0-0 0-0.001v0zM22 19c0-0.552-0.448-1-1-1v0l-0.267 0.007c-2.648 0.141-4.742 2.323-4.742 4.993 0 2.761 2.239 5 5 5 0.003 0 0.006 0 0.009 0h-0l0.136-0.009c0.491-0.069 0.864-0.486 0.864-0.991 0-0.552-0.448-1-1-1h-0l-0.205-0.007c-1.569-0.108-2.8-1.407-2.8-2.993 0-1.657 1.343-3 3-3 0.002 0 0.004 0 0.006 0h-0l0.136-0.009c0.491-0.069 0.864-0.486 0.864-0.991v0zM26.667 23c0-0.552-0.448-1-1-1v0h-4.667l-0.136 0.009c-0.491 0.069-0.864 0.486-0.864 0.991 0 0.552 0.448 1 1 1h4.667l0.136-0.009c0.491-0.069 0.864-0.486 0.864-0.991v0z"></path>
</svg>
