<!-- Generated by IcoMoon.io -->
<svg version="1.1" xmlns="http://www.w3.org/2000/svg" width="32" height="32" viewBox="0 0 32 32">
<title>slide-text-filled</title>
<path d="M2.667 8.5c0-1.749 1.418-3.167 3.167-3.167v0h20.333c1.749 0 3.167 1.418 3.167 3.167v0 15c0 1.749-1.418 3.167-3.167 3.167v0h-20.333c-1.749 0-3.167-1.418-3.167-3.167v0-15zM8.833 15c-0.46 0-0.833 0.373-0.833 0.833s0.373 0.833 0.833 0.833v0h11.667c0.46 0 0.833-0.373 0.833-0.833s-0.373-0.833-0.833-0.833v0h-11.667zM8 20.167c0 0.46 0.373 0.833 0.833 0.833h9c0.46 0 0.833-0.373 0.833-0.833s-0.373-0.833-0.833-0.833v0h-9c-0.46 0-0.833 0.373-0.833 0.833zM8.833 10.667c-0.46 0-0.833 0.373-0.833 0.833s0.373 0.833 0.833 0.833v0h6.333c0.46 0 0.833-0.373 0.833-0.833s-0.373-0.833-0.833-0.833v0h-6.333z"></path>
</svg>
