<!-- Generated by IcoMoon.io -->
<svg version="1.1" xmlns="http://www.w3.org/2000/svg" width="32" height="32" viewBox="0 0 32 32">
<title>slide-multiple-arrow-right-filled</title>
<path d="M2.667 10.333c0-3.498 2.836-6.333 6.333-6.333v0h13.333c1.657 0 3 1.343 3 3v0 0.333h-15c-2.393 0-4.333 1.94-4.333 4.333v0 11h-0.333c-1.657 0-3-1.343-3-3v0-9.333zM10.333 8.667c-1.657 0-3 1.343-3 3v0 12.667c0 1.657 1.343 3 3 3v0h5.309c-0.617-1.162-0.98-2.54-0.98-4.003 0-4.786 3.88-8.667 8.667-8.667 2.332 0 4.449 0.921 6.007 2.419l-0.003-0.003v-5.413c0-1.657-1.343-3-3-3v0h-16zM23.333 16c4.050 0 7.333 3.283 7.333 7.333s-3.283 7.333-7.333 7.333v0c-4.050 0-7.333-3.283-7.333-7.333s3.283-7.333 7.333-7.333v0zM19.333 22.667c-0.368 0-0.667 0.298-0.667 0.667s0.298 0.667 0.667 0.667v0h6.391l-2.196 2.195c-0.121 0.121-0.195 0.288-0.195 0.472 0 0.369 0.299 0.668 0.668 0.668 0.184 0 0.351-0.075 0.472-0.195l3.333-3.333c0.121-0.121 0.196-0.288 0.196-0.472s-0.075-0.351-0.196-0.472v0l-3.333-3.333c-0.121-0.121-0.288-0.195-0.472-0.195-0.369 0-0.668 0.299-0.668 0.668 0 0.184 0.075 0.351 0.195 0.472l2.196 2.195h-6.391z"></path>
</svg>
