<!-- Generated by IcoMoon.io -->
<svg version="1.1" xmlns="http://www.w3.org/2000/svg" width="32" height="32" viewBox="0 0 32 32">
<title>slide-microphone-filled</title>
<path d="M6.5 4c-2.485 0-4.5 2.015-4.5 4.5v0 15c0 2.485 2.015 4.5 4.5 4.5v0h12.255c-1.093-1.353-1.755-3.094-1.755-4.99 0-0.003 0-0.007 0-0.010v0.001c0-0 0-0 0-0 0-1.519 1.231-2.75 2.75-2.75 0.088 0 0.175 0.004 0.261 0.012l-0.011-0.001v-1.261c0-2.761 2.239-5 5-5s5 2.239 5 5v0-10.5c0-2.485-2.015-4.5-4.5-4.5v0h-19zM8 10c0-0.552 0.448-1 1-1v0h6c0.552 0 1 0.448 1 1s-0.448 1-1 1v0h-6c-0.552 0-1-0.448-1-1v0zM9 19h6c0.552 0 1 0.448 1 1s-0.448 1-1 1v0h-6c-0.552 0-1-0.448-1-1s0.448-1 1-1v0zM8 15c0-0.552 0.448-1 1-1v0h9c0.552 0 1 0.448 1 1s-0.448 1-1 1v0h-9c-0.552 0-1-0.448-1-1v0zM20.528 27c-0.948-1.053-1.528-2.453-1.528-3.989 0-0.004 0-0.007 0-0.011v0.001c0-0.414 0.336-0.75 0.75-0.75s0.75 0.336 0.75 0.75v0c0 1.152 0.433 2.204 1.146 3 0.74 0.829 1.777 1.379 2.943 1.482l0.017 0.001 0.017 0.002c0.113 0.010 0.244 0.016 0.376 0.016 0.266 0 0.526-0.023 0.78-0.066l-0.027 0.004 0.018-0.004c0.665-0.117 1.256-0.366 1.77-0.719l-0.015 0.010c0.472-0.32 0.88-0.728 1.2-1.2 0.485-0.705 0.775-1.577 0.775-2.517 0-0.003 0-0.006 0-0.009v0c0-0.414 0.336-0.75 0.75-0.75s0.75 0.336 0.75 0.75v0c0 0.003 0 0.006 0 0.009 0 1.254-0.387 2.418-1.047 3.379l0.013-0.020c-0.434 0.633-0.965 1.164-1.578 1.585l-0.020 0.013c-0.673 0.463-1.471 0.797-2.332 0.946l-0.036 0.005v1.333c0 0.414-0.336 0.75-0.75 0.75s-0.75-0.336-0.75-0.75v0-1.27c-1.059-0.089-2.021-0.443-2.839-0.994l0.021 0.014c-0.437-0.293-0.816-0.623-1.149-0.994l-0.005-0.006zM22 19c0-1.657 1.343-3 3-3s3 1.343 3 3v0 4c0 1.657-1.343 3-3 3s-3-1.343-3-3v0-4z"></path>
</svg>
