<!-- Generated by IcoMoon.io -->
<svg version="1.1" xmlns="http://www.w3.org/2000/svg" width="32" height="32" viewBox="0 0 32 32">
<title>slide-multiple-arrow-right-filled</title>
<path d="M7 4c-2.393 0-4.333 1.94-4.333 4.333v11.333c0 1.657 1.343 3 3 3h0.333v-11c0-2.393 1.94-4.333 4.333-4.333h15v-0.333c0-1.657-1.343-3-3-3h-15.333z"></path>
<path d="M10.333 8.667c-1.657 0-3 1.343-3 3v12.667c0 1.657 1.343 3 3 3h5.31c-0.624-1.197-0.976-2.557-0.976-4 0-4.787 3.88-8.667 8.667-8.667 2.329 0 4.443 0.918 6 2.413v-5.413c0-1.657-1.343-3-3-3h-16z"></path>
<path d="M30.667 23.333c0 4.050-3.283 7.333-7.333 7.333s-7.333-3.283-7.333-7.333c0-4.050 3.283-7.333 7.333-7.333s7.333 3.283 7.333 7.333zM19.333 22.667c-0.368 0-0.667 0.299-0.667 0.667s0.299 0.667 0.667 0.667h6.391l-2.195 2.195c-0.26 0.26-0.26 0.683 0 0.943s0.683 0.26 0.943 0l3.333-3.333c0.26-0.26 0.26-0.683 0-0.943l-3.333-3.333c-0.26-0.26-0.683-0.26-0.943 0s-0.26 0.683 0 0.943l2.195 2.195h-6.391z"></path>
</svg>
