<!-- Generated by IcoMoon.io -->
<svg version="1.1" xmlns="http://www.w3.org/2000/svg" width="32" height="32" viewBox="0 0 32 32">
<title>slide-size-filled</title>
<path d="M2.667 9c0-2.025 1.642-3.667 3.667-3.667v0h19.333c2.025 0 3.667 1.642 3.667 3.667v0 14c0 2.025-1.642 3.667-3.667 3.667v0h-19.333c-2.025 0-3.667-1.642-3.667-3.667v0-14zM22.373 9.627c-0.181-0.181-0.431-0.293-0.707-0.293h-3.333c-0.552 0-1 0.448-1 1s0.448 1 1 1v0h0.92l-2.293 2.292c-0.196 0.183-0.318 0.443-0.318 0.732 0 0.552 0.448 1 1 1 0.289 0 0.549-0.122 0.731-0.318l0.001-0.001 2.293-2.292v0.92c0 0.552 0.448 1 1 1s1-0.448 1-1v0-3.333c-0-0.276-0.112-0.526-0.293-0.707v0zM10.333 22.667h3.335c0.552 0 1-0.448 1-1s-0.448-1-1-1v0h-0.92l2.293-2.293c0.174-0.18 0.28-0.424 0.28-0.694 0-0.552-0.448-1-1-1-0.27 0-0.515 0.107-0.695 0.281l0-0-2.293 2.291v-0.92c0-0.552-0.448-1-1-1s-1 0.448-1 1v0 3.333c0 0.552 0.448 1 1 1v0z"></path>
</svg>
