<!-- Generated by IcoMoon.io -->
<svg version="1.1" xmlns="http://www.w3.org/2000/svg" width="32" height="32" viewBox="0 0 32 32">
<title>slide-add-filled</title>
<path d="M6.333 5.333c-2.025 0-3.667 1.642-3.667 3.667v14c0 2.025 1.642 3.667 3.667 3.667h8.998c-0.428-1.026-0.664-2.152-0.664-3.333 0-4.787 3.88-8.667 8.667-8.667 2.329 0 4.443 0.918 6 2.413v-8.079c0-2.025-1.642-3.667-3.667-3.667h-19.333z"></path>
<path d="M30.667 23.333c0-4.050-3.283-7.333-7.333-7.333s-7.333 3.283-7.333 7.333c0 4.050 3.283 7.333 7.333 7.333s7.333-3.283 7.333-7.333zM24.001 24l0.001 3.338c0 0.368-0.298 0.667-0.667 0.667s-0.667-0.298-0.667-0.667l-0.001-3.338h-3.339c-0.368 0-0.667-0.298-0.667-0.667s0.299-0.667 0.667-0.667h3.339l-0.001-3.334c0-0.368 0.299-0.667 0.667-0.667s0.667 0.298 0.667 0.667l0.001 3.334h3.337c0.368 0 0.667 0.299 0.667 0.667s-0.298 0.667-0.667 0.667h-3.337z"></path>
</svg>
