<!-- Generated by IcoMoon.io -->
<svg version="1.1" xmlns="http://www.w3.org/2000/svg" width="32" height="32" viewBox="0 0 32 32">
<title>smartwatch-filled</title>
<path d="M12.667 2.667c-1.473 0-2.667 1.194-2.667 2.667v0 1.72c0.617-0.248 1.293-0.387 2-0.387h8c0.002 0 0.004 0 0.006 0 0.718 0 1.404 0.142 2.029 0.4l-0.035-0.013v-1.72c0-1.473-1.194-2.667-2.667-2.667v0h-6.667zM12 8c-2.209 0-4 1.791-4 4v0 8c0 2.209 1.791 4 4 4v0h8c2.209 0 4-1.791 4-4v0-2.667c0.736 0 1.333-0.597 1.333-1.333v0-1.333c0-0.736-0.597-1.333-1.333-1.333v0-1.333c0-2.209-1.791-4-4-4v0h-8zM12 25.333c-0.002 0-0.004 0-0.006 0-0.718 0-1.404-0.142-2.029-0.4l0.035 0.013v1.72c0 1.473 1.194 2.667 2.667 2.667v0h6.667c1.473 0 2.667-1.194 2.667-2.667v0-1.72c-0.59 0.245-1.275 0.387-1.994 0.387-0.002 0-0.004 0-0.007 0h-8z"></path>
</svg>
