<!-- Generated by IcoMoon.io -->
<svg version="1.1" xmlns="http://www.w3.org/2000/svg" width="32" height="32" viewBox="0 0 32 32">
<title>smartwatch-dot-filled</title>
<path d="M19.333 2.667c1.044 0 1.947 0.6 2.385 1.473-0.248 0.57-0.385 1.199-0.385 1.86 0 0.292 0.027 0.578 0.078 0.855-0.45-0.123-0.923-0.189-1.412-0.189h-8c-0.707 0-1.382 0.138-2 0.388v-1.721c0-1.473 1.194-2.667 2.667-2.667h6.667zM20 8c0.785 0 1.518 0.226 2.136 0.617 0.333 0.49 0.756 0.914 1.247 1.247 0.391 0.618 0.617 1.351 0.617 2.136v1.333c0.736 0 1.333 0.597 1.333 1.333v1.333c0 0.736-0.597 1.333-1.333 1.333v2.667c0 2.209-1.791 4-4 4h-8c-2.209 0-4-1.791-4-4v-8c0-2.209 1.791-4 4-4h8zM12 25.333c-0.707 0-1.382-0.138-2-0.388v1.721c0 1.473 1.194 2.667 2.667 2.667h6.667c1.473 0 2.667-1.194 2.667-2.667v-1.721c-0.618 0.25-1.293 0.388-2 0.388h-8zM29.333 6c0-1.841-1.492-3.333-3.333-3.333s-3.333 1.492-3.333 3.333c0 1.841 1.492 3.333 3.333 3.333s3.333-1.492 3.333-3.333z"></path>
</svg>
