<!-- Generated by IcoMoon.io -->
<svg version="1.1" xmlns="http://www.w3.org/2000/svg" width="32" height="32" viewBox="0 0 32 32">
<title>smartwatch-dot-filled</title>
<path d="M19.333 2.667c0.001 0 0.001 0 0.002 0 1.038 0 1.937 0.593 2.378 1.458l0.007 0.015c-0.245 0.547-0.388 1.186-0.388 1.859 0 0.303 0.029 0.599 0.084 0.886l-0.005-0.029c-0.423-0.12-0.908-0.189-1.409-0.189-0.001 0-0.002 0-0.003 0h-8c-0.002 0-0.004 0-0.006 0-0.718 0-1.404 0.142-2.029 0.4l0.035-0.013v-1.72c0-1.473 1.194-2.667 2.667-2.667v0h6.667zM20 8c0.785 0 1.517 0.227 2.136 0.617 0.333 0.491 0.756 0.915 1.247 1.247 0.387 0.604 0.617 1.341 0.617 2.131 0 0.002 0 0.004 0 0.005v-0 1.333c0.736 0 1.333 0.597 1.333 1.333v0 1.333c0 0.736-0.597 1.333-1.333 1.333v0 2.667c0 2.209-1.791 4-4 4v0h-8c-2.209 0-4-1.791-4-4v0-8c0-2.209 1.791-4 4-4v0h8zM12 25.333c-0.002 0-0.004 0-0.006 0-0.718 0-1.404-0.142-2.029-0.4l0.035 0.013v1.72c0 1.473 1.194 2.667 2.667 2.667v0h6.667c1.473 0 2.667-1.194 2.667-2.667v0-1.72c-0.59 0.245-1.275 0.387-1.994 0.387-0.002 0-0.004 0-0.007 0h-8zM29.333 6c0-1.841-1.492-3.333-3.333-3.333s-3.333 1.492-3.333 3.333v0c0 1.841 1.492 3.333 3.333 3.333s3.333-1.492 3.333-3.333v0z"></path>
</svg>
