<!-- Generated by IcoMoon.io -->
<svg version="1.1" xmlns="http://www.w3.org/2000/svg" width="32" height="32" viewBox="0 0 32 32">
<title>smartwatch-filled</title>
<path d="M12.667 2.667c-1.473 0-2.667 1.194-2.667 2.667v1.721c0.618-0.25 1.293-0.388 2-0.388h8c0.707 0 1.382 0.138 2 0.388v-1.721c0-1.473-1.194-2.667-2.667-2.667h-6.667zM12 8c-2.209 0-4 1.791-4 4v8c0 2.209 1.791 4 4 4h8c2.209 0 4-1.791 4-4v-2.667c0.736 0 1.333-0.597 1.333-1.333v-1.333c0-0.736-0.597-1.333-1.333-1.333v-1.333c0-2.209-1.791-4-4-4h-8zM12 25.333c-0.707 0-1.382-0.138-2-0.388v1.721c0 1.473 1.194 2.667 2.667 2.667h6.667c1.473 0 2.667-1.194 2.667-2.667v-1.721c-0.618 0.25-1.293 0.388-2 0.388h-8z"></path>
</svg>
