<!-- Generated by IcoMoon.io -->
<svg version="1.1" xmlns="http://www.w3.org/2000/svg" width="32" height="32" viewBox="0 0 32 32">
<title>snooze-filled</title>
<path d="M12 16.672c1.067 0 1.682 1.179 1.128 2.045l-0.087 0.121-6.266 7.827 5.225 0.001c0.684 0 1.247 0.515 1.324 1.178l0.009 0.155c0 0.684-0.515 1.247-1.178 1.324l-0.155 0.009h-8c-1.067 0-1.682-1.179-1.128-2.045l0.087-0.121 6.265-7.828-5.223 0c-0.684 0-1.247-0.515-1.324-1.178l-0.009-0.155c0-0.684 0.515-1.247 1.178-1.324l0.155-0.009h7.999zM28 2.667c1.074 0 1.687 1.191 1.121 2.056l-0.089 0.121-10.22 12.489h9.188c0.684 0 1.247 0.515 1.324 1.178l0.009 0.155c0 0.684-0.515 1.247-1.178 1.324l-0.155 0.009h-12c-1.074 0-1.687-1.191-1.121-2.056l0.089-0.121 10.217-12.489h-9.185c-0.684 0-1.247-0.515-1.324-1.178l-0.009-0.155c0-0.684 0.515-1.247 1.178-1.324l0.155-0.009h12z"></path>
</svg>
