<!-- Generated by IcoMoon.io -->
<svg version="1.1" xmlns="http://www.w3.org/2000/svg" width="32" height="32" viewBox="0 0 32 32">
<title>snooze-filled</title>
<path d="M12 16.672c0 0 0 0 0.001 0 0.736 0 1.333 0.597 1.333 1.333 0 0.264-0.077 0.51-0.209 0.717l0.003-0.005-0.087 0.121-6.268 7.828h5.227c0.681 0 1.243 0.511 1.323 1.171l0.001 0.006 0.009 0.156c-0 0.681-0.511 1.243-1.171 1.323l-0.006 0.001-0.156 0.009h-8c-0 0-0 0-0.001 0-0.736 0-1.333-0.597-1.333-1.333 0-0.264 0.077-0.51 0.209-0.717l-0.003 0.005 0.087-0.12 6.265-7.829h-5.224c-0.681-0-1.243-0.511-1.323-1.171l-0.001-0.006-0.009-0.156c0-0.681 0.511-1.243 1.171-1.323l0.006-0.001 0.156-0.009h8zM28 2.667c0.736 0 1.333 0.597 1.333 1.333 0 0.269-0.079 0.519-0.216 0.728l0.003-0.005-0.088 0.121-10.22 12.489h9.187c0 0 0.001 0 0.001 0 0.681 0 1.243 0.511 1.324 1.171l0.001 0.006 0.009 0.156c-0 0.682-0.512 1.244-1.172 1.323l-0.006 0.001-0.155 0.009h-12c-0.736-0-1.333-0.597-1.333-1.333 0-0.269 0.079-0.519 0.216-0.728l-0.003 0.005 0.088-0.121 10.217-12.489h-9.187c-0.681-0.001-1.242-0.512-1.322-1.171l-0.001-0.006-0.009-0.156c0-0.681 0.511-1.243 1.171-1.323l0.006-0.001 0.156-0.009h12z"></path>
</svg>
