<!-- Generated by IcoMoon.io -->
<svg version="1.1" xmlns="http://www.w3.org/2000/svg" width="32" height="32" viewBox="0 0 32 32">
<title>sound-source-filled</title>
<path d="M4.667 16c0-6.259 5.074-11.333 11.333-11.333s11.333 5.074 11.333 11.333c0 2.956-1.131 5.647-2.985 7.665l1.324 1.513c2.269-2.391 3.661-5.621 3.661-9.177 0-7.364-5.97-13.333-13.333-13.333s-13.333 5.97-13.333 13.333c0 3.556 1.392 6.787 3.661 9.177l1.324-1.513c-1.853-2.018-2.985-4.709-2.985-7.665z"></path>
<path d="M25.667 16.167c0 2.411-0.898 4.612-2.378 6.287l-1.331-1.521c1.067-1.296 1.709-2.956 1.709-4.766 0-4.142-3.358-7.5-7.5-7.5s-7.5 3.358-7.5 7.5c0 1.718 0.578 3.302 1.55 4.566l-1.337 1.528c-1.381-1.65-2.212-3.775-2.212-6.095 0-5.247 4.253-9.5 9.5-9.5s9.5 4.253 9.5 9.5z"></path>
<path d="M21.667 16c0 1.253-0.406 2.41-1.095 3.348l-1.368-1.564c0.295-0.528 0.463-1.137 0.463-1.785 0-2.025-1.642-3.667-3.667-3.667s-3.667 1.642-3.667 3.667c0 0.648 0.168 1.257 0.463 1.785l-1.368 1.564c-0.688-0.938-1.095-2.096-1.095-3.349 0-3.13 2.537-5.667 5.667-5.667s5.667 2.537 5.667 5.667z"></path>
<path d="M16 16.667c0.288 0 0.563 0.125 0.753 0.341l9.333 10.667c0.258 0.295 0.32 0.714 0.158 1.072s-0.518 0.587-0.911 0.587h-18.667c-0.392 0-0.748-0.229-0.911-0.587s-0.1-0.776 0.158-1.072l9.333-10.667c0.19-0.217 0.464-0.341 0.753-0.341z"></path>
</svg>
