<!-- Generated by IcoMoon.io -->
<svg version="1.1" xmlns="http://www.w3.org/2000/svg" width="32" height="32" viewBox="0 0 32 32">
<title>sound-wave-circle-filled</title>
<path d="M16 2.667c-7.364 0-13.333 5.969-13.333 13.333s5.969 13.333 13.333 13.333 13.333-5.969 13.333-13.333-5.969-13.333-13.333-13.333zM14.667 11.667v8.667c0 0.552-0.448 1-1 1s-1-0.448-1-1v0-8.667c0-0.552 0.448-1 1-1s1 0.448 1 1v0zM22.667 11.667v8.667c0 0.552-0.448 1-1 1s-1-0.448-1-1v0-8.667c0-0.552 0.448-1 1-1s1 0.448 1 1v0zM18.667 13.667v4.667c0 0.552-0.448 1-1 1s-1-0.448-1-1v0-4.667c0-0.552 0.448-1 1-1s1 0.448 1 1v0zM10.667 14.333v3.333c0 0.552-0.448 1-1 1s-1-0.448-1-1v0-3.333c0-0.552 0.448-1 1-1s1 0.448 1 1v0z"></path>
</svg>
