<!-- Generated by IcoMoon.io -->
<svg version="1.1" xmlns="http://www.w3.org/2000/svg" width="32" height="32" viewBox="0 0 32 32">
<title>sparkle-filled</title>
<path d="M11.638 21.007c0.287 0.205 0.644 0.328 1.030 0.328 0.383 0 0.738-0.121 1.028-0.327l-0.006 0.004c0.27-0.192 0.482-0.455 0.611-0.759l0.824-2.513c0.418-1.231 1.369-2.182 2.571-2.591l0.029-0.009 2.421-0.789c0.698-0.251 1.188-0.908 1.188-1.679s-0.49-1.427-1.176-1.675l-0.012-0.004-2.467-0.795c-1.227-0.419-2.176-1.366-2.588-2.563l-0.009-0.029-0.786-2.419c-0.127-0.355-0.354-0.649-0.645-0.857l-0.005-0.004c-0.287-0.201-0.644-0.321-1.028-0.321s-0.741 0.12-1.034 0.325l0.006-0.004c-0.302 0.216-0.531 0.517-0.654 0.867l-0.004 0.013-0.795 2.445c-0.419 1.195-1.339 2.12-2.502 2.536l-0.029 0.009-2.418 0.785c-0.698 0.251-1.189 0.908-1.189 1.679 0 0.779 0.5 1.44 1.196 1.682l0.013 0.004 2.391 0.777c1.231 0.421 2.182 1.374 2.593 2.578l0.009 0.029 0.787 2.415c0.122 0.347 0.349 0.649 0.651 0.861zM21.917 27.095c0.219 0.155 0.481 0.239 0.749 0.239l0.003 0.002c0.569-0 1.052-0.367 1.227-0.876l0.003-0.009 0.379-1.167c0.162-0.473 0.527-0.839 0.988-0.998l0.011-0.003 1.193-0.388c0.508-0.184 0.864-0.662 0.864-1.223 0-0.281-0.089-0.54-0.24-0.753l0.003 0.004c-0.164-0.227-0.393-0.398-0.661-0.484l-0.009-0.003-1.171-0.379c-0.473-0.161-0.839-0.527-0.997-0.989l-0.003-0.011-0.388-1.193c-0.182-0.509-0.661-0.867-1.223-0.867-0.569 0-1.053 0.367-1.227 0.878l-0.003 0.009-0.381 1.171c-0.157 0.466-0.512 0.829-0.962 0.993l-0.011 0.003-1.193 0.388c-0.508 0.183-0.865 0.661-0.865 1.222 0 0.569 0.366 1.052 0.876 1.226l0.009 0.003 1.168 0.38c0.474 0.162 0.84 0.529 0.997 0.993l0.003 0.011 0.388 1.192c0.089 0.253 0.255 0.473 0.473 0.627z"></path>
</svg>
