<!-- Generated by IcoMoon.io -->
<svg version="1.1" xmlns="http://www.w3.org/2000/svg" width="32" height="32" viewBox="0 0 32 32">
<title>sparkle-filled</title>
<path d="M11.553 20.979c0.326 0.231 0.715 0.354 1.115 0.353v-0.005c0.376 0.001 0.745-0.109 1.059-0.316s0.561-0.501 0.71-0.847l0.817-2.485c0.189-0.563 0.506-1.074 0.926-1.494s0.933-0.735 1.496-0.922l2.371-0.771c0.382-0.134 0.712-0.385 0.943-0.718s0.351-0.729 0.343-1.134c-0.008-0.405-0.143-0.797-0.386-1.12s-0.583-0.562-0.969-0.682l-2.34-0.76c-0.566-0.188-1.080-0.506-1.502-0.928s-0.739-0.936-0.927-1.503l-0.771-2.369c-0.134-0.377-0.383-0.704-0.711-0.933s-0.72-0.351-1.121-0.348-0.79 0.131-1.115 0.366c-0.325 0.235-0.568 0.565-0.696 0.944l-0.777 2.389c-0.187 0.55-0.497 1.050-0.906 1.462s-0.906 0.727-1.454 0.919l-2.369 0.761c-0.282 0.099-0.537 0.261-0.745 0.475s-0.364 0.474-0.454 0.758c-0.091 0.285-0.114 0.586-0.068 0.881s0.16 0.575 0.333 0.819c0.236 0.332 0.57 0.581 0.956 0.712l2.339 0.759c0.568 0.19 1.083 0.509 1.505 0.933 0.113 0.113 0.219 0.232 0.317 0.359 0.266 0.344 0.471 0.73 0.607 1.143l0.771 2.367c0.131 0.377 0.377 0.704 0.703 0.934zM21.775 27.709c-0.254-0.181-0.445-0.437-0.547-0.732l-0.437-1.343c-0.085-0.255-0.228-0.488-0.417-0.679s-0.422-0.334-0.677-0.419l-1.321-0.431c-0.307-0.103-0.574-0.301-0.761-0.565-0.183-0.256-0.281-0.564-0.28-0.879 0-0.317 0.1-0.626 0.284-0.884 0.183-0.259 0.443-0.454 0.744-0.556l1.341-0.435c0.249-0.089 0.475-0.233 0.66-0.422s0.324-0.418 0.407-0.67l0.432-1.323c0.102-0.299 0.294-0.559 0.549-0.744s0.563-0.286 0.879-0.289c0.316-0.003 0.625 0.092 0.884 0.272s0.456 0.436 0.564 0.733l0.439 1.352c0.086 0.253 0.229 0.484 0.419 0.672s0.421 0.331 0.674 0.416l1.323 0.431c0.305 0.095 0.572 0.284 0.764 0.54s0.298 0.565 0.303 0.885c0.006 0.319-0.089 0.633-0.271 0.895s-0.442 0.461-0.744 0.567l-1.352 0.439c-0.253 0.086-0.484 0.23-0.673 0.419-0.19 0.19-0.333 0.422-0.417 0.677l-0.429 1.319c-0.103 0.307-0.302 0.573-0.567 0.76-0.256 0.184-0.563 0.283-0.879 0.283-0.32 0-0.633-0.101-0.892-0.289z"></path>
</svg>
