<!-- Generated by IcoMoon.io -->
<svg version="1.1" xmlns="http://www.w3.org/2000/svg" width="32" height="32" viewBox="0 0 32 32">
<title>speaker-usb-filled</title>
<path d="M20 5.665c0-0.394-0.14-0.776-0.395-1.077-0.595-0.703-1.646-0.79-2.349-0.195l-6.623 5.605h-4.967c-1.657 0-3 1.343-3 3v6c0 1.657 1.343 3 3 3h4.967l6.623 5.608c0.301 0.255 0.683 0.395 1.077 0.395 0.921 0 1.667-0.746 1.667-1.667v-20.669z"></path>
<path d="M21.999 11c0-0.552 0.448-1 1-1h4.67c0.552 0 1 0.448 1 1v2.396c0.387 0.138 0.665 0.508 0.665 0.942v6.667c0 0.552-0.448 1-1 1h-0.315v3.662c0 0.552-0.448 1-1 1s-1-0.448-1-1v-3.662h-1.309v3.662c0 0.552-0.448 1-1 1s-1-0.448-1-1v-3.662h-0.376c-0.552 0-1-0.448-1-1v-6.667c0-0.435 0.278-0.805 0.665-0.943v-2.395zM27.333 15.338h-4v4.667h4v-4.667zM23.999 12v1.333h2.67v-1.333h-2.67z"></path>
</svg>
