<!-- Generated by IcoMoon.io -->
<svg version="1.1" xmlns="http://www.w3.org/2000/svg" width="32" height="32" viewBox="0 0 32 32">
<title>speaker-usb-filled</title>
<path d="M18.857 5.502c0-1.25-1.494-1.897-2.406-1.042l-5.642 5.291c-0.357 0.335-0.838 0.541-1.367 0.541-0 0-0 0-0.001 0h-3.441c-2.051 0-3.714 1.663-3.714 3.714v0 3.991c0 2.051 1.663 3.714 3.714 3.714v0h3.442c0.507 0 0.997 0.194 1.367 0.541l5.642 5.287c0.913 0.855 2.406 0.208 2.406-1.042v-20.994zM22.286 24v-2.666l-1.568-2.787c-0.092-0.161-0.146-0.354-0.146-0.56v-4.762c0-0.631 0.512-1.143 1.143-1.143v0-2.938c0-0.631 0.512-1.143 1.143-1.143v0h4.571c0.631 0 1.143 0.512 1.143 1.143v0 2.938c0.631 0 1.143 0.512 1.143 1.143v0 4.762c0 0 0 0 0 0.001 0 0.206-0.054 0.398-0.149 0.565l0.003-0.006-1.568 2.787v2.666c0 0.631-0.512 1.143-1.143 1.143v0h-3.429c-0.631 0-1.143-0.512-1.143-1.143v0zM26.857 9.714h-3.429v2.367h3.429v-2.367z"></path>
</svg>
