<!-- Generated by IcoMoon.io -->
<svg version="1.1" xmlns="http://www.w3.org/2000/svg" width="32" height="32" viewBox="0 0 32 32">
<title>speaker-off-filled</title>
<path d="M4.374 2.96c-0.391-0.391-1.024-0.391-1.414-0s-0.391 1.024-0 1.414l5.624 5.624h-2.917c-1.657 0-3 1.343-3 3v5.997c0 1.657 1.343 3 3 3h4.906c0.245 0 0.481 0.090 0.665 0.253l5.989 5.325c1.075 0.956 2.774 0.193 2.774-1.245v-4.913l7.626 7.626c0.391 0.391 1.024 0.391 1.414 0s0.391-1.024 0-1.414l-24.666-24.667z"></path>
<path d="M22.855 18.612l1.517 1.517c0.616-1.246 0.961-2.649 0.961-4.13 0-1.604-0.406-3.117-1.121-4.438-0.263-0.486-0.87-0.666-1.355-0.403s-0.666 0.87-0.403 1.355c0.561 1.036 0.879 2.222 0.879 3.485 0 0.921-0.169 1.802-0.479 2.612z"></path>
<path d="M25.851 21.609l1.458 1.458c1.283-2.049 2.025-4.472 2.025-7.067 0-2.968-0.971-5.712-2.612-7.928-0.329-0.444-0.955-0.537-1.399-0.208s-0.537 0.955-0.208 1.399c1.395 1.883 2.22 4.213 2.22 6.738 0 2.041-0.539 3.955-1.483 5.609z"></path>
<path d="M12.693 8.451l7.307 7.307v-10.091c0-1.438-1.699-2.201-2.774-1.246l-4.533 4.030z"></path>
</svg>
