<!-- Generated by IcoMoon.io -->
<svg version="1.1" xmlns="http://www.w3.org/2000/svg" width="32" height="32" viewBox="0 0 32 32">
<title>speaker-edit-filled</title>
<path d="M19.999 5.67v14.804l-3.346 3.346c-0.593 0.593-1.023 1.326-1.252 2.131l-4.164-3.702c-0.183-0.163-0.419-0.253-0.664-0.253h-4.906c-1.657 0-3-1.343-3-2.999v-5.996c0-1.656 1.343-2.999 3-2.999h4.906c0.245 0 0.481-0.090 0.664-0.253l5.988-5.323c1.075-0.955 2.774-0.193 2.774 1.245zM24.522 15.951c0.243-0.243 0.506-0.451 0.786-0.624-0.097-1.353-0.483-2.628-1.096-3.762-0.263-0.486-0.87-0.666-1.355-0.403s-0.666 0.87-0.403 1.355c0.561 1.035 0.879 2.221 0.879 3.485 0 0.425-0.036 0.841-0.105 1.245l1.295-1.295zM27.255 14.683c0.689-0.057 1.39 0.048 2.039 0.317-0.192-2.582-1.12-4.961-2.575-6.925-0.329-0.444-0.955-0.537-1.399-0.208s-0.537 0.955-0.208 1.398c1.149 1.55 1.91 3.403 2.144 5.419zM25.465 16.893l-7.869 7.868c-0.459 0.459-0.784 1.033-0.942 1.663l-0.61 2.44c-0.265 1.061 0.696 2.023 1.757 1.757l2.441-0.61c0.629-0.157 1.204-0.483 1.663-0.942l7.869-7.868c1.19-1.19 1.19-3.119 0-4.309s-3.119-1.19-4.31 0z"></path>
</svg>
