<!-- Generated by IcoMoon.io -->
<svg version="1.1" xmlns="http://www.w3.org/2000/svg" width="32" height="32" viewBox="0 0 32 32">
<title>speaker-bluetooth-filled</title>
<path d="M18.857 5.502c0-1.25-1.494-1.897-2.406-1.042l-5.642 5.291c-0.357 0.335-0.838 0.541-1.367 0.541-0 0-0 0-0.001 0h-3.441c-2.051 0-3.714 1.663-3.714 3.714v0 3.991c0 2.051 1.663 3.714 3.714 3.714v0h3.442c0.507 0 0.997 0.194 1.367 0.541l5.642 5.287c0.913 0.855 2.406 0.208 2.406-1.042v-20.994zM24.754 7.136c-0.2-0.177-0.465-0.284-0.754-0.284-0.631 0-1.143 0.511-1.143 1.143v5.755l-0.41-0.343c-0.197-0.165-0.452-0.265-0.731-0.265-0.631 0-1.143 0.512-1.143 1.143 0 0.352 0.159 0.667 0.41 0.877l0.002 0.001 1.002 0.835-1.002 0.834c-0.253 0.211-0.412 0.526-0.412 0.879 0 0.631 0.512 1.143 1.143 1.143 0.279 0 0.535-0.1 0.733-0.266l-0.002 0.001 0.411-0.343v5.752c0.001 0.631 0.512 1.142 1.143 1.142 0.289 0 0.552-0.107 0.753-0.283l-0.001 0.001 4.571-4c0.24-0.211 0.39-0.518 0.39-0.86 0-0.352-0.159-0.666-0.409-0.876l-0.002-0.001-3.746-3.122 3.745-3.12c0.252-0.211 0.412-0.526 0.412-0.878 0-0.342-0.15-0.648-0.388-0.858l-0.001-0.001-4.571-4.008zM26.811 20.021l-1.669 1.461v-2.853l1.669 1.391zM25.143 10.517l1.67 1.463-1.669 1.391v-2.854z"></path>
</svg>
