<!-- Generated by IcoMoon.io -->
<svg version="1.1" xmlns="http://www.w3.org/2000/svg" width="32" height="32" viewBox="0 0 32 32">
<title>speaker-2-filled</title>
<path d="M20 5.667v20.661c0 1.438-1.699 2.201-2.774 1.245l-5.989-5.325c-0.183-0.163-0.42-0.253-0.665-0.253h-4.906c-1.657 0-3-1.343-3-3v-5.997c0-1.657 1.343-3 3-3h4.906c0.245 0 0.481-0.090 0.664-0.253l5.989-5.324c1.075-0.956 2.774-0.193 2.774 1.246zM25.322 7.863c0.444-0.329 1.070-0.235 1.399 0.208 1.641 2.216 2.612 4.96 2.612 7.928s-0.971 5.712-2.612 7.929c-0.329 0.444-0.955 0.537-1.399 0.208s-0.537-0.955-0.208-1.399c1.395-1.883 2.22-4.213 2.22-6.738s-0.825-4.855-2.22-6.738c-0.329-0.444-0.235-1.070 0.208-1.399zM22.857 11.159c0.486-0.263 1.093-0.082 1.355 0.403 0.715 1.321 1.121 2.833 1.121 4.438s-0.406 3.117-1.121 4.438c-0.263 0.486-0.87 0.666-1.355 0.403s-0.666-0.87-0.403-1.355c0.561-1.036 0.879-2.222 0.879-3.485s-0.319-2.45-0.879-3.485c-0.263-0.486-0.082-1.093 0.403-1.355z"></path>
</svg>
