<!-- Generated by IcoMoon.io -->
<svg version="1.1" xmlns="http://www.w3.org/2000/svg" width="32" height="32" viewBox="0 0 32 32">
<title>sport-baseball-filled</title>
<path d="M5.253 8.105c-1.616 2.173-2.587 4.91-2.587 7.873 0 0.008 0 0.016 0 0.023v-0.001c0 2.945 0.955 5.667 2.572 7.873 0.093-0.090 0.192-0.181 0.292-0.271l0.011-0.009c0.86-0.771 2.144-1.691 3.809-2.245 0.098-0.035 0.211-0.056 0.329-0.056 0.552 0 1 0.448 1 1 0 0.444-0.289 0.82-0.69 0.951l-0.007 0.002c-1.333 0.444-2.384 1.191-3.107 1.837-0.12 0.108-0.229 0.211-0.336 0.316l0.001-0.001c2.41 2.431 5.75 3.936 9.442 3.936 0.006 0 0.012 0 0.017 0h-0.001c0.005 0 0.011 0 0.017 0 3.692 0 7.032-1.505 9.441-3.935l0.001-0.001c-0.105-0.104-0.214-0.207-0.325-0.307l-0.009-0.008c-0.724-0.647-1.773-1.393-3.108-1.837-0.407-0.133-0.697-0.509-0.697-0.953 0-0.552 0.448-1 1-1 0.118 0 0.231 0.020 0.336 0.058l-0.007-0.002c1.667 0.555 2.949 1.475 3.809 2.245 0.107 0.096 0.208 0.189 0.303 0.28 1.607-2.169 2.572-4.898 2.572-7.853 0-0.007 0-0.015-0-0.022v0.001c0-2.955-0.96-5.685-2.587-7.895l-0.288 0.265c-0.861 0.769-2.144 1.689-3.809 2.245-0.091 0.030-0.195 0.047-0.303 0.047-0.552 0-1-0.448-1-1 0-0.435 0.277-0.804 0.664-0.942l0.007-0.002c1.333-0.445 2.384-1.192 3.107-1.84 0.115-0.101 0.22-0.2 0.316-0.293-2.408-2.421-5.741-3.919-9.424-3.919-0.006 0-0.011 0-0.017 0h0.001c-0.005 0-0.011 0-0.017 0-3.682 0-7.015 1.498-9.422 3.917l-0.001 0.001c0.096 0.095 0.2 0.193 0.315 0.296 0.724 0.647 1.773 1.393 3.108 1.837 0.401 0.136 0.685 0.51 0.685 0.949 0 0.553-0.448 1.001-1.001 1.001-0.113 0-0.222-0.019-0.323-0.053l0.007 0.002c-1.667-0.556-2.951-1.476-3.809-2.245-0.105-0.095-0.198-0.182-0.29-0.27l0.004 0.004zM12.031 21.539c-0.018-0.071-0.028-0.152-0.028-0.235 0-0.468 0.318-0.862 0.75-0.977l0.007-0.002h0.004l0.009-0.003 0.032-0.008 0.107-0.024c0.494-0.104 1.096-0.19 1.709-0.238l0.051-0.003c0.385-0.032 0.834-0.050 1.287-0.050 1.145 0 2.264 0.115 3.344 0.334l-0.107-0.018c0.445 0.108 0.77 0.502 0.77 0.973 0 0.552-0.448 1-1 1-0.057 0-0.113-0.005-0.168-0.014l0.006 0.001c-0.855-0.176-1.837-0.277-2.843-0.277-0.399 0-0.795 0.016-1.186 0.047l0.052-0.003c-0.566 0.044-1.078 0.116-1.58 0.218l0.083-0.014c-0.075 0.016-0.104 0.023-0.134 0.030l0.047-0.010s-0.997 0.132-1.213-0.728zM13.243 9.696l0.087 0.020c0.067 0.013 0.173 0.035 0.309 0.059 0.275 0.048 0.681 0.107 1.188 0.145 0.34 0.028 0.735 0.044 1.135 0.044 1.006 0 1.988-0.101 2.937-0.293l-0.094 0.016c0.049-0.008 0.105-0.013 0.162-0.013 0.552 0 1 0.448 1 1 0 0.471-0.325 0.866-0.763 0.972l-0.007 0.001c-0.973 0.201-2.091 0.316-3.236 0.316-0.453 0-0.901-0.018-1.345-0.053l0.059 0.004c-0.664-0.052-1.266-0.137-1.856-0.258l0.096 0.016c-0.078-0.016-0.114-0.024-0.15-0.033l0.042 0.009-0.032-0.007-0.009-0.003h-0.004c-0.439-0.117-0.757-0.51-0.757-0.978 0-0.083 0.010-0.164 0.029-0.242l-0.001 0.007c0.213-0.861 1.212-0.729 1.212-0.729z"></path>
</svg>
