<!-- Generated by IcoMoon.io -->
<svg version="1.1" xmlns="http://www.w3.org/2000/svg" width="32" height="32" viewBox="0 0 32 32">
<title>sport-american-football-filled</title>
<path d="M28.505 15.333c-1.906 6.347-6.932 11.343-13.296 13.209l-11.75-11.75c1.866-6.364 6.862-11.39 13.209-13.296l11.838 11.838zM18.293 12.293l-6 6c-0.391 0.391-0.391 1.024 0 1.414s1.024 0.391 1.414 0l6-6c0.391-0.39 0.391-1.024 0-1.414s-1.024-0.391-1.414 0z"></path>
<path d="M2.932 19.094l9.974 9.974c-1.054 0.175-2.136 0.266-3.24 0.266h-1.333c-3.13 0-5.667-2.537-5.667-5.667v-1.333c0-1.103 0.091-2.186 0.266-3.24z"></path>
<path d="M18.956 2.956l10.089 10.089c0.19-1.097 0.289-2.226 0.289-3.378v-1.333c0-3.13-2.537-5.667-5.667-5.667h-1.333c-1.152 0-2.28 0.099-3.377 0.289z"></path>
</svg>
