<!-- Generated by IcoMoon.io -->
<svg version="1.1" xmlns="http://www.w3.org/2000/svg" width="32" height="32" viewBox="0 0 32 32">
<title>sport-basketball-filled</title>
<path d="M24.578 17.155c-1.714-0.512-3.687-1.196-5.548-2.77l-1.615 1.615 8.695 8.695c1.437-1.667 2.394-3.606 2.87-5.634-0.003-0.003-0.006-0.006-0.009-0.009s-0.008-0.007-0.011-0.011c-0.453-0.453-1.038-0.783-1.785-1.072-0.581-0.225-1.202-0.406-1.901-0.609-0.224-0.065-0.455-0.132-0.696-0.204z"></path>
<path d="M24.696 5.891l-5.661 5.661c-1.227-1.5-1.799-3.108-2.275-4.701-0.061-0.205-0.122-0.413-0.183-0.623-0.209-0.719-0.423-1.454-0.682-2.124-0.187-0.483-0.408-0.961-0.687-1.413 3.36-0.199 6.781 0.868 9.487 3.201z"></path>
<path d="M26.11 7.305l-5.66 5.66c1.5 1.226 3.107 1.798 4.7 2.273 0.205 0.061 0.413 0.122 0.623 0.183 0.719 0.209 1.455 0.423 2.124 0.682 0.484 0.187 0.962 0.408 1.414 0.688 0.199-3.36-0.868-6.78-3.201-9.486z"></path>
<path d="M12.96 3.040l-0.019-0.020c-2.029 0.476-3.967 1.433-5.635 2.87l8.695 8.695 1.615-1.614c-1.575-1.861-2.259-3.835-2.771-5.549-0.072-0.241-0.139-0.472-0.204-0.696-0.203-0.699-0.384-1.321-0.609-1.902-0.289-0.747-0.618-1.331-1.072-1.785z"></path>
<path d="M2.841 13.85c0.383-2.356 1.4-4.629 3.050-6.545l8.695 8.695-1.452 1.452c-1.966-1.591-4.256-2.154-6.216-2.548-0.277-0.056-0.544-0.107-0.802-0.157-0.809-0.157-1.531-0.296-2.192-0.488-0.418-0.121-0.778-0.255-1.084-0.408z"></path>
<path d="M2.668 15.949c-0.012 3.117 1.063 6.238 3.224 8.745l5.819-5.819c-1.522-1.164-3.329-1.638-5.186-2.011-0.238-0.048-0.479-0.095-0.722-0.142-0.83-0.16-1.677-0.324-2.434-0.544-0.235-0.068-0.469-0.144-0.7-0.229z"></path>
<path d="M13.13 20.286l-5.823 5.823c2.578 2.222 5.805 3.296 9.010 3.221-0.201-0.402-0.359-0.821-0.49-1.242-0.221-0.711-0.386-1.5-0.547-2.267-0.047-0.224-0.093-0.445-0.141-0.663-0.37-1.699-0.839-3.377-2.009-4.871z"></path>
<path d="M18.526 29.093c2.222-0.426 4.357-1.421 6.17-2.984l-8.695-8.695-1.449 1.449c1.577 1.919 2.144 4.043 2.541 5.869 0.056 0.258 0.108 0.506 0.158 0.745 0.156 0.746 0.295 1.405 0.485 2.017 0.209 0.672 0.456 1.195 0.79 1.6z"></path>
</svg>
