<!-- Generated by IcoMoon.io -->
<svg version="1.1" xmlns="http://www.w3.org/2000/svg" width="32" height="32" viewBox="0 0 32 32">
<title>sport-soccer-filled</title>
<path d="M16 2.667c-7.364 0-13.333 5.97-13.333 13.333s5.97 13.333 13.333 13.333c7.364 0 13.333-5.97 13.333-13.333s-5.97-13.333-13.333-13.333zM10.992 5.83l4.010 2.399v2.925l-3.722 2.704-2.725-0.942-0.782-4.712c0.919-0.97 2.008-1.777 3.219-2.374zM4.828 17.919l3.103-3.103 2.718 0.94 1.444 4.443-1.292 2.1-4.392-0.258c-0.779-1.234-1.326-2.628-1.581-4.122zM14.040 27.164l-1.579-3.745 1.285-2.089h4.495l1.216 2.108-1.386 3.707c-0.671 0.124-1.363 0.189-2.071 0.189-0.669 0-1.323-0.058-1.96-0.169zM25.189 22.635l-4.033-0.253-1.25-2.166 1.449-4.459 2.684-0.928 3.083 3.361c-0.32 1.635-0.992 3.144-1.933 4.446zM24.229 8.207l-0.785 4.711-2.72 0.941-3.722-2.704v-2.926l4.003-2.4c1.213 0.598 2.303 1.407 3.224 2.378z"></path>
</svg>
