<!-- Generated by IcoMoon.io -->
<svg version="1.1" xmlns="http://www.w3.org/2000/svg" width="32" height="32" viewBox="0 0 32 32">
<title>sport-american-football-filled</title>
<path d="M28.505 15.333c-1.967 6.373-6.907 11.283-13.158 13.172l-0.14 0.036-11.749-11.749c1.925-6.391 6.835-11.331 13.068-13.261l0.14-0.037 11.84 11.84zM18.292 12.293l-6 6c-0.188 0.182-0.305 0.437-0.305 0.719 0 0.552 0.448 1 1 1 0.282 0 0.537-0.117 0.719-0.305l6-6c0.196-0.183 0.318-0.443 0.318-0.732 0-0.552-0.448-1-1-1-0.289 0-0.549 0.122-0.731 0.318l-0.001 0.001zM2.933 19.093l9.973 9.973c-1.053 0.176-2.135 0.267-3.239 0.267h-1.333c-0 0-0.001 0-0.001 0-3.13 0-5.667-2.537-5.667-5.667v0-1.333c0-1.104 0.091-2.187 0.267-3.24zM18.956 2.956l10.088 10.088c0.191-1.097 0.289-2.227 0.289-3.377v-1.333c0-3.13-2.537-5.667-5.667-5.667v0h-1.333c-1.152 0-2.28 0.099-3.377 0.289z"></path>
</svg>
