<!-- Generated by IcoMoon.io -->
<svg version="1.1" xmlns="http://www.w3.org/2000/svg" width="32" height="32" viewBox="0 0 32 32">
<title>sport-filled</title>
<path d="M26.787 6.627c0.576 0.69 1.054 1.434 1.435 2.214-0.141 0.221-0.308 0.43-0.501 0.623-1.187 1.187-2.985 1.39-4.381 0.61l3.447-3.447zM25.373 5.213l-3.447 3.447c-0.781-1.396-0.577-3.194 0.609-4.381 0.193-0.193 0.402-0.36 0.623-0.501 0.78 0.381 1.524 0.859 2.214 1.435zM27.365 19.95c1.847-2.647 2.394-5.926 1.643-8.947-1.974 1.856-4.954 2.030-7.117 0.521l-1.476 1.476 6.95 6.95zM20.476 10.109c-1.509-2.163-1.335-5.143 0.521-7.117-3.022-0.751-6.3-0.203-8.947 1.643l6.95 6.95 1.476-1.476zM17.586 13l-7.071-7.071c-1.244 1.256-2.123 2.738-2.637 4.313 2.55 0.393 5.927 1.363 8.706 3.76l1.003-1.002zM15.638 14.948c0.251 0.213 0.497 0.439 0.736 0.678s0.465 0.485 0.678 0.736c2.173 2.56 3.055 5.701 3.409 8.098 0.081 0.549 0.134 1.060 0.169 1.515 0.006 0.085 0.009 0.168 0.009 0.251-0 1.804-1.492 3.209-3.33 3.069-2.637-0.2-7.119-1.025-10.349-4.255s-4.055-7.712-4.255-10.349c-0.006-0.085-0.010-0.168-0.010-0.251 0-1.804 1.492-3.209 3.33-3.069 0.455 0.035 0.966 0.088 1.515 0.169 2.397 0.353 5.538 1.236 8.098 3.409zM10.707 17.96c-0.391-0.391-1.024-0.391-1.414 0s-0.391 1.024 0 1.414l3.333 3.333c0.391 0.391 1.024 0.391 1.414 0s0.391-1.024 0-1.414l-3.333-3.333zM21.758 24.123c-0.393-2.55-1.363-5.927-3.76-8.706l1.003-1.003 7.071 7.071c-1.257 1.244-2.738 2.123-4.313 2.637z"></path>
</svg>
