<!-- Generated by IcoMoon.io -->
<svg version="1.1" xmlns="http://www.w3.org/2000/svg" width="32" height="32" viewBox="0 0 32 32">
<title>sport-soccer-filled</title>
<path d="M16 2.667c-7.364 0-13.333 5.969-13.333 13.333s5.969 13.333 13.333 13.333 13.333-5.969 13.333-13.333-5.969-13.333-13.333-13.333zM10.992 5.831l4.011 2.4v2.924l-3.721 2.704-2.725-0.943-0.783-4.712c0.907-0.955 1.971-1.749 3.153-2.344l0.065-0.030zM4.828 17.919l3.103-3.103 2.72 0.94 1.443 4.444-1.293 2.1-4.391-0.259c-0.757-1.18-1.31-2.567-1.571-4.055l-0.010-0.068zM14.040 27.164l-1.579-3.745 1.284-2.089h4.496l1.216 2.108-1.387 3.707c-0.623 0.121-1.339 0.19-2.071 0.19-0.692 0-1.37-0.062-2.029-0.18l0.069 0.010zM25.189 22.635l-4.032-0.253-1.251-2.165 1.449-4.46 2.684-0.928 3.083 3.36c-0.339 1.694-1.014 3.19-1.956 4.479l0.022-0.032zM24.229 8.208l-0.785 4.711-2.72 0.94-3.721-2.704v-2.925l4.003-2.4c1.25 0.625 2.316 1.421 3.219 2.374l0.005 0.005z"></path>
</svg>
