<!-- Generated by IcoMoon.io -->
<svg version="1.1" xmlns="http://www.w3.org/2000/svg" width="32" height="32" viewBox="0 0 32 32">
<title>sport-filled</title>
<path d="M26.787 6.627c0.541 0.644 1.020 1.371 1.407 2.151l0.029 0.064c-0.662 1.027-1.799 1.697-3.094 1.697-0.657 0-1.273-0.172-1.806-0.475l0.018 0.009 3.445-3.447zM25.373 5.213l-3.447 3.447c-0.293-0.515-0.465-1.131-0.465-1.788 0-1.294 0.67-2.432 1.683-3.085l0.014-0.009c0.844 0.416 1.571 0.894 2.232 1.448l-0.017-0.014zM27.365 19.949c1.232-1.753 1.97-3.933 1.97-6.284 0-0.946-0.119-1.863-0.343-2.739l0.017 0.076c-1.011 0.951-2.377 1.535-3.879 1.535-1.211 0-2.334-0.38-3.255-1.027l0.018 0.012-1.479 1.477 6.951 6.949zM20.477 10.109c-0.635-0.903-1.015-2.026-1.015-3.238 0-1.502 0.584-2.868 1.538-3.883l-0.003 0.003c-0.799-0.207-1.716-0.327-2.661-0.327-2.352 0-4.532 0.738-6.32 1.994l0.035-0.023 6.951 6.949 1.476-1.476zM17.587 13l-7.071-7.071c-1.17 1.178-2.075 2.622-2.615 4.233l-0.022 0.077c2.549 0.393 5.927 1.364 8.707 3.76l1.001-1.001zM15.639 14.948c0.514 0.438 0.976 0.9 1.399 1.396l0.014 0.017c2.173 2.56 3.056 5.701 3.409 8.099 0.080 0.549 0.133 1.060 0.168 1.515 0.008 0.082 0.012 0.177 0.012 0.274 0 1.689-1.369 3.059-3.059 3.059-0.096 0-0.192-0.004-0.286-0.013l0.012 0.001c-2.637-0.2-7.12-1.024-10.349-4.253-3.229-3.231-4.055-7.712-4.255-10.351-0.008-0.082-0.012-0.177-0.012-0.274 0-1.689 1.369-3.059 3.059-3.059 0.096 0 0.192 0.004 0.286 0.013l-0.012-0.001c0.456 0.035 0.965 0.088 1.515 0.169 2.397 0.353 5.539 1.236 8.099 3.408zM10.707 17.959c-0.18-0.174-0.425-0.28-0.694-0.28-0.552 0-1 0.448-1 1 0 0.27 0.107 0.515 0.281 0.695l-0-0 3.333 3.333c0.183 0.196 0.443 0.318 0.732 0.318 0.552 0 1-0.448 1-1 0-0.289-0.122-0.549-0.318-0.731l-0.001-0.001-3.333-3.333zM21.757 24.123c-0.392-2.551-1.363-5.927-3.76-8.707l1.003-1.003 7.071 7.072c-1.179 1.171-2.624 2.075-4.236 2.615l-0.077 0.022z"></path>
</svg>
