<!-- Generated by IcoMoon.io -->
<svg version="1.1" xmlns="http://www.w3.org/2000/svg" width="32" height="32" viewBox="0 0 32 32">
<title>square-eraser-filled</title>
<path d="M13.973 21.819l7.84-7.84c0.719-0.728 1.718-1.179 2.821-1.179 0.981 0 1.879 0.356 2.571 0.947l-0.006-0.005v-4.142c0-2.651-2.149-4.8-4.8-4.8v0h-12.8c-2.651 0-4.8 2.149-4.8 4.8v0 12.8c0 2.651 2.149 4.8 4.8 4.8v0h4.146c-0.579-0.689-0.931-1.586-0.931-2.566 0-1.098 0.442-2.093 1.159-2.815l-0 0zM26.35 15.102l3.352 3.352c0.435 0.434 0.704 1.034 0.704 1.698s-0.269 1.263-0.704 1.698l-5.76 5.76-6.746-6.747 5.76-5.76c0.434-0.434 1.034-0.703 1.697-0.703s1.262 0.269 1.697 0.703v0zM22.811 28.739l-6.746-6.747-0.96 0.96c-0.435 0.434-0.704 1.035-0.704 1.698s0.269 1.263 0.703 1.698v0l3.36 3.352c0.434 0.434 1.034 0.703 1.697 0.703 0.032 0 0.064-0.001 0.095-0.002l-0.005 0h6.547c0.442 0 0.8-0.358 0.8-0.8s-0.358-0.8-0.8-0.8v0h-4.050l0.061-0.061z"></path>
</svg>
