<!-- Generated by IcoMoon.io -->
<svg version="1.1" xmlns="http://www.w3.org/2000/svg" width="32" height="32" viewBox="0 0 32 32">
<title>squares-nested-filled</title>
<path d="M4.8 9.6c0-2.651 2.149-4.8 4.8-4.8v0h12.8c2.651 0 4.8 2.149 4.8 4.8v0 2.822c-0.843-0.758-1.964-1.222-3.193-1.222-0.002 0-0.005 0-0.007 0h-8c-2.651 0-4.8 2.149-4.8 4.8v0 8c0 1.229 0.462 2.352 1.222 3.2h-2.822c-2.651 0-4.8-2.149-4.8-4.8v0-12.8zM16 27.2h6.4c2.651 0 4.8-2.149 4.8-4.8v0-6.4c0-1.767-1.433-3.2-3.2-3.2v0h-8c-1.767 0-3.2 1.433-3.2 3.2v0 8c0 1.767 1.433 3.2 3.2 3.2v0z"></path>
</svg>
