<!-- Generated by IcoMoon.io -->
<svg version="1.1" xmlns="http://www.w3.org/2000/svg" width="32" height="32" viewBox="0 0 32 32">
<title>square-hint-apps-filled</title>
<path d="M8.333 4c0.552 0 1 0.448 1 1s-0.448 1-1 1v0c-1.289 0-2.333 1.045-2.333 2.333v0c0 0.552-0.448 1-1 1s-1-0.448-1-1v0c0-2.393 1.94-4.333 4.333-4.333v0zM13 4c-0.552 0-1 0.448-1 1s0.448 1 1 1v0h6c0.552 0 1-0.448 1-1s-0.448-1-1-1v0h-6zM22.667 5c0 0.552 0.448 1 1 1 1.288 0 2.333 1.045 2.333 2.333v1.333c0 0.552 0.448 1 1 1s1-0.448 1-1v0-1.333c0-2.393-1.94-4.333-4.333-4.333v0c-0.552 0-1 0.448-1 1v0zM4 23.667c0-0.552 0.448-1 1-1s1 0.448 1 1v0c0 1.288 1.045 2.333 2.333 2.333h1.333c0.552 0 1 0.448 1 1s-0.448 1-1 1v0h-1.333c-2.393 0-4.333-1.94-4.333-4.333v0zM4 19c0 0.552 0.448 1 1 1s1-0.448 1-1v0-6c0-0.552-0.448-1-1-1s-1 0.448-1 1v0 6zM9.333 7.333c-1.105 0-2 0.895-2 2v0 13.333c0 1.105 0.895 2 2 2v0h2.667v-1c0-2.393 1.94-4.333 4.333-4.333v0h3v-3c0-2.393 1.94-4.333 4.333-4.333v0h1v-2.667c0-1.105-0.895-2-2-2v0h-13.333zM16.333 20.667h4.333v-4.333c0-1.657 1.343-3 3-3v0h4c1.657 0 3 1.343 3 3v0 10c0 2.393-1.94 4.333-4.333 4.333v0h-10c-1.657 0-3-1.343-3-3v0-4c0-1.657 1.343-3 3-3v0zM22.667 16.333v4.333h6v-4.333c0-0.552-0.448-1-1-1v0h-4c-0.552 0-1 0.448-1 1v0zM20.667 28.667v-6h-4.333c-0.552 0-1 0.448-1 1v0 4c0 0.552 0.448 1 1 1h4.333zM22.667 22.667v6h3.667c1.289 0 2.333-1.045 2.333-2.333v0-3.667h-6z"></path>
</svg>
