<!-- Generated by IcoMoon.io -->
<svg version="1.1" xmlns="http://www.w3.org/2000/svg" width="32" height="32" viewBox="0 0 32 32">
<title>stack-arrow-forward-filled</title>
<path d="M23.333 16c-4.050 0-7.333-3.283-7.333-7.333s3.283-7.333 7.333-7.333c4.050 0 7.333 3.283 7.333 7.333s-3.283 7.333-7.333 7.333zM25.805 4.862c-0.26-0.26-0.683-0.26-0.943 0s-0.26 0.682 0 0.943l0.862 0.862h-2.724c-2.393 0-4.333 1.94-4.333 4.333v0.333c0 0.368 0.299 0.667 0.667 0.667s0.667-0.298 0.667-0.667v-0.333c0-1.657 1.343-3 3-3h2.724l-0.862 0.862c-0.26 0.26-0.26 0.682 0 0.943s0.683 0.26 0.943 0l2-2c0.26-0.26 0.26-0.682 0-0.943l-2-2zM5.333 5.333h9.998c-0.428 1.026-0.664 2.152-0.664 3.333 0 4.562 3.525 8.301 8 8.641v0.025c0 1.473-1.194 2.667-2.667 2.667h-14.667c-1.473 0-2.667-1.194-2.667-2.667v-9.333c0-1.473 1.194-2.667 2.667-2.667zM24 17.308c0.693-0.053 1.363-0.187 2-0.393v1.085c0 2.945-2.388 5.333-5.333 5.333h-12c-1.243 0-2.287-0.85-2.583-2h14.583c1.841 0 3.333-1.492 3.333-3.333v-0.692zM29.333 14.921c-0.592 0.569-1.265 1.054-2 1.437v2.643c0 3.13-2.537 5.667-5.667 5.667h-12.249c0.296 1.15 1.34 2 2.583 2h9.667c4.234 0 7.667-3.433 7.667-7.667v-4.079z"></path>
</svg>
