<!-- Generated by IcoMoon.io -->
<svg version="1.1" xmlns="http://www.w3.org/2000/svg" width="32" height="32" viewBox="0 0 32 32">
<title>stack-filled</title>
<path d="M5.333 5.333c-1.473 0-2.667 1.194-2.667 2.667v9.333c0 1.473 1.194 2.667 2.667 2.667h14.667c1.473 0 2.667-1.194 2.667-2.667v-9.333c0-1.473-1.194-2.667-2.667-2.667h-14.667zM8.667 23.333c-1.243 0-2.287-0.85-2.583-2h14.583c1.841 0 3.333-1.492 3.333-3.333v-9.249c1.15 0.296 2 1.34 2 2.583v6.667c0 2.945-2.388 5.333-5.333 5.333h-12zM12 26.667c-1.243 0-2.287-0.85-2.583-2h12.249c3.13 0 5.667-2.537 5.667-5.667v-6.916c1.15 0.296 2 1.34 2 2.583v4.333c0 4.234-3.433 7.667-7.667 7.667h-9.667z"></path>
</svg>
