<!-- Generated by IcoMoon.io -->
<svg version="1.1" xmlns="http://www.w3.org/2000/svg" width="32" height="32" viewBox="0 0 32 32">
<title>stack-arrow-forward-filled</title>
<path d="M23.333 16c-4.050 0-7.333-3.283-7.333-7.333s3.283-7.333 7.333-7.333v0c4.050 0 7.333 3.283 7.333 7.333s-3.283 7.333-7.333 7.333v0zM25.805 4.861c-0.121-0.121-0.288-0.196-0.472-0.196-0.369 0-0.668 0.299-0.668 0.667 0 0.184 0.075 0.351 0.195 0.472v0l0.863 0.861h-2.724c-2.393 0-4.333 1.94-4.333 4.333v0 0.333c0 0.368 0.298 0.667 0.667 0.667s0.667-0.298 0.667-0.667v0-0.333c0-1.657 1.343-3 3-3v0h2.724l-0.863 0.861c-0.121 0.121-0.195 0.288-0.195 0.472 0 0.369 0.299 0.668 0.668 0.668 0.184 0 0.351-0.075 0.472-0.195l2-2c0.121-0.121 0.196-0.288 0.196-0.472s-0.075-0.351-0.196-0.472v0l-2-2zM5.333 5.333h9.997c-0.422 0.985-0.667 2.13-0.667 3.333 0 4.553 3.511 8.286 7.972 8.639l0.030 0.002v0.025c0 1.473-1.194 2.667-2.667 2.667v0h-14.667c-1.473 0-2.667-1.194-2.667-2.667v0-9.333c0-1.473 1.194-2.667 2.667-2.667v0zM24 17.308c0.693-0.053 1.363-0.187 2-0.392v1.084c0 2.946-2.388 5.333-5.333 5.333v0h-12c-0 0-0 0-0.001 0-1.236 0-2.275-0.841-2.578-1.981l-0.004-0.019h14.583c1.841 0 3.333-1.492 3.333-3.333v0-0.692zM29.333 14.921c-0.592 0.568-1.265 1.053-2 1.436v2.643c0 3.13-2.537 5.667-5.667 5.667v0h-12.249c0.307 1.159 1.346 2 2.582 2 0 0 0 0 0.001 0h9.667c4.234 0 7.667-3.432 7.667-7.667v0-4.080z"></path>
</svg>
