<!-- Generated by IcoMoon.io -->
<svg version="1.1" xmlns="http://www.w3.org/2000/svg" width="32" height="32" viewBox="0 0 32 32">
<title>stack-star-filled</title>
<path d="M5.333 5.333c-1.473 0-2.667 1.194-2.667 2.667v9.333c0 1.473 1.194 2.667 2.667 2.667h14.667c1.473 0 2.667-1.194 2.667-2.667v-9.333c0-1.473-1.194-2.667-2.667-2.667h-14.667zM12.667 8.133c0.253 0 0.483 0.143 0.596 0.369l1.174 2.348 2.313 0.289c0.263 0.033 0.482 0.219 0.557 0.474s-0.009 0.53-0.213 0.7l-1.688 1.407 0.579 2.603c0.058 0.262-0.047 0.534-0.266 0.689s-0.51 0.163-0.738 0.021l-2.313-1.446-2.313 1.446c-0.228 0.142-0.519 0.134-0.738-0.021s-0.324-0.427-0.266-0.689l0.579-2.603-1.688-1.407c-0.204-0.17-0.288-0.445-0.213-0.7s0.294-0.441 0.557-0.474l2.313-0.289 1.174-2.348c0.113-0.226 0.344-0.369 0.596-0.369zM8.667 23.333c-1.243 0-2.287-0.85-2.583-2h14.583c1.841 0 3.333-1.492 3.333-3.333v-9.249c1.15 0.296 2 1.34 2 2.583v6.667c0 2.945-2.388 5.333-5.333 5.333h-12zM12 26.667c-1.243 0-2.287-0.85-2.583-2h12.249c3.13 0 5.667-2.537 5.667-5.667v-6.916c1.15 0.296 2 1.34 2 2.583v4.333c0 4.234-3.433 7.667-7.667 7.667h-9.667z"></path>
</svg>
