<!-- Generated by IcoMoon.io -->
<svg version="1.1" xmlns="http://www.w3.org/2000/svg" width="32" height="32" viewBox="0 0 32 32">
<title>stack-star-filled</title>
<path d="M5.333 5.333c-1.473 0-2.667 1.194-2.667 2.667v0 9.333c0 1.473 1.194 2.667 2.667 2.667v0h14.667c1.473 0 2.667-1.194 2.667-2.667v0-9.333c0-1.473-1.194-2.667-2.667-2.667v0h-14.667zM12.667 8.133c0.259 0 0.484 0.148 0.594 0.364l0.002 0.004 1.173 2.348 2.313 0.289c0.331 0.043 0.584 0.323 0.584 0.661 0 0.205-0.093 0.389-0.238 0.511l-0.001 0.001-1.688 1.407 0.579 2.604c0.010 0.043 0.016 0.093 0.016 0.144 0 0.368-0.298 0.667-0.667 0.667-0.131 0-0.253-0.038-0.356-0.103l0.003 0.002-2.313-1.445-2.313 1.445c-0.1 0.063-0.222 0.101-0.353 0.101-0.368 0-0.667-0.298-0.667-0.667 0-0.051 0.006-0.101 0.017-0.148l-0.001 0.004 0.579-2.604-1.688-1.407c-0.147-0.123-0.24-0.307-0.24-0.512 0-0.339 0.253-0.619 0.58-0.661l0.003-0 2.312-0.289 1.173-2.347c0.112-0.221 0.337-0.369 0.597-0.369 0 0 0 0 0.001 0h-0zM8.667 23.333c-0 0-0 0-0.001 0-1.236 0-2.275-0.841-2.578-1.981l-0.004-0.019h14.583c1.841 0 3.333-1.492 3.333-3.333v0-9.249c1.159 0.307 2 1.346 2 2.582 0 0 0 0 0 0.001v-0 6.667c0 2.946-2.388 5.333-5.333 5.333v0h-12zM12 26.667c-0 0-0 0-0.001 0-1.236 0-2.275-0.841-2.578-1.981l-0.004-0.019h12.249c3.13 0 5.667-2.537 5.667-5.667v0-6.916c1.159 0.307 2 1.346 2 2.582 0 0 0 0 0 0.001v-0 4.333c0 4.234-3.432 7.667-7.667 7.667v0h-9.667z"></path>
</svg>
