<!-- Generated by IcoMoon.io -->
<svg version="1.1" xmlns="http://www.w3.org/2000/svg" width="32" height="32" viewBox="0 0 32 32">
<title>star-one-quarter-filled</title>
<path d="M17.612 4.137c-0.66-1.338-2.568-1.338-3.228 0l-3.144 6.37-7.030 1.022c-1.476 0.215-2.066 2.029-0.998 3.070l5.087 4.959-1.201 7.002c-0.199 1.161 0.721 2.104 1.767 2.108 0.28 0.002 0.569-0.064 0.848-0.211l6.285-3.306 6.288 3.306c1.321 0.694 2.864-0.427 2.612-1.898l-1.201-7.002 5.087-4.959c1.068-1.041 0.479-2.856-0.998-3.070l-7.030-1.022-3.144-6.37zM12 24.993v-12.616c0.426-0.158 0.781-0.475 0.987-0.891l3.011-6.101 3.011 6.101c0.262 0.531 0.769 0.899 1.355 0.985l6.733 0.978-4.872 4.749c-0.424 0.414-0.618 1.009-0.518 1.593l1.15 6.706-6.022-3.166c-0.524-0.276-1.151-0.276-1.675 0l-3.16 1.661z"></path>
</svg>
