<!-- Generated by IcoMoon.io -->
<svg version="1.1" xmlns="http://www.w3.org/2000/svg" width="32" height="32" viewBox="0 0 32 32">
<title>star-line-horizontal-3-filled</title>
<path d="M14.384 4.136c0.66-1.337 2.568-1.337 3.228 0l2.249 4.567c-1.443 0.235-2.531 1.472-2.531 2.963 0 1.156 0.653 2.159 1.611 2.66l0.017 0.008c-0.973 0.509-1.626 1.512-1.626 2.667s0.653 2.157 1.609 2.659l0.017 0.008c-0.972 0.51-1.624 1.512-1.624 2.666 0 0.68 0.226 1.307 0.607 1.81l-0.005-0.008-8.224 4.321c-1.32 0.693-2.864-0.427-2.613-1.897l1.201-7.001-5.087-4.96c-1.068-1.040-0.479-2.855 0.997-3.069l7.031-1.021 3.144-6.371zM19.333 22.333c0-0.552 0.448-1 1-1v0h8c0.552 0 1 0.448 1 1s-0.448 1-1 1v0h-8c-0.001 0-0.003 0-0.004 0-0.55 0-0.996-0.446-0.996-0.996 0-0.001 0-0.003 0-0.004v0zM19.333 17c0-0.552 0.448-1 1-1v0h8c0.552 0 1 0.448 1 1s-0.448 1-1 1v0h-8c-0.552 0-1-0.448-1-1v0zM19.333 11.667c0-0.552 0.448-1 1-1v0h8c0.552 0 1 0.448 1 1s-0.448 1-1 1v0h-8c-0.552 0-1-0.448-1-1v0z"></path>
</svg>
