<!-- Generated by IcoMoon.io -->
<svg version="1.1" xmlns="http://www.w3.org/2000/svg" width="32" height="32" viewBox="0 0 32 32">
<title>star-settings-filled</title>
<path d="M14.384 4.137c0.66-1.338 2.568-1.338 3.228 0l3.144 6.37 7.030 1.022c1.476 0.215 2.066 2.029 0.998 3.070l-1.207 1.176c-1.254-0.706-2.702-1.108-4.244-1.108-4.787 0-8.667 3.88-8.667 8.667 0 0.814 0.112 1.601 0.322 2.348l-5.279 2.775c-1.321 0.694-2.864-0.427-2.612-1.898l1.201-7.002-5.087-4.959c-1.068-1.041-0.479-2.856 0.998-3.070l7.030-1.022 3.144-6.37zM19.038 18.634c0.42 1.454-0.453 2.965-1.922 3.328l-0.779 0.193c-0.060 0.384-0.091 0.777-0.091 1.178 0 0.42 0.034 0.831 0.099 1.231l0.719 0.173c1.483 0.357 2.365 1.884 1.933 3.347l-0.248 0.842c0.585 0.514 1.253 0.932 1.979 1.229l0.658-0.692c1.051-1.106 2.815-1.105 3.865 0.001l0.665 0.7c0.725-0.294 1.391-0.707 1.977-1.217l-0.264-0.915c-0.42-1.454 0.453-2.965 1.922-3.328l0.778-0.193c0.060-0.384 0.091-0.777 0.091-1.178 0-0.42-0.034-0.831-0.099-1.231l-0.719-0.173c-1.483-0.357-2.365-1.884-1.933-3.347l0.248-0.841c-0.585-0.514-1.253-0.932-1.979-1.229l-0.657 0.691c-1.051 1.106-2.814 1.105-3.865-0.001l-0.665-0.7c-0.725 0.294-1.391 0.707-1.977 1.217l0.264 0.915zM23.333 25.333c-1.067 0-1.933-0.895-1.933-2s0.865-2 1.933-2c1.068 0 1.933 0.895 1.933 2s-0.865 2-1.933 2z"></path>
</svg>
