<!-- Generated by IcoMoon.io -->
<svg version="1.1" xmlns="http://www.w3.org/2000/svg" width="32" height="32" viewBox="0 0 32 32">
<title>star-edit-filled</title>
<path d="M17.612 4.136c-0.66-1.337-2.568-1.337-3.228 0l-3.144 6.371-7.031 1.021c-1.476 0.213-2.067 2.029-0.997 3.071l5.087 4.959-1.2 7c-0.253 1.472 1.291 2.593 2.612 1.899l3.923-2.063 0.405-1.624c0.216-0.864 0.661-1.653 1.291-2.283l7.861-7.871c0.792-0.793 1.887-1.284 3.096-1.284 1.043 0 2.001 0.365 2.753 0.974l-0.008-0.006c0.707-1.056 0.097-2.577-1.245-2.772l-7.031-1.021-3.144-6.371zM24.133 15.56l-7.861 7.869c-0.446 0.446-0.774 1.009-0.936 1.639l-0.005 0.025-0.609 2.44c-0.028 0.106-0.044 0.228-0.044 0.354 0 0.8 0.648 1.448 1.448 1.448 0.125 0 0.246-0.016 0.362-0.046l-0.010 0.002 2.439-0.611c0.654-0.167 1.216-0.496 1.661-0.941l7.861-7.871c0.551-0.552 0.892-1.313 0.892-2.155s-0.341-1.603-0.892-2.155l0 0c-0.551-0.552-1.312-0.893-2.153-0.893s-1.602 0.341-2.153 0.893l-0 0z"></path>
</svg>
