<!-- Generated by IcoMoon.io -->
<svg version="1.1" xmlns="http://www.w3.org/2000/svg" width="32" height="32" viewBox="0 0 32 32">
<title>star-arrow-right-end-filled</title>
<path d="M14.384 4.136c0.66-1.337 2.568-1.337 3.228 0l3.144 6.371 7.031 1.021c1.476 0.213 2.065 2.029 0.997 3.071l-1.208 1.176c-1.223-0.7-2.687-1.113-4.248-1.113-4.786 0-8.667 3.88-8.667 8.667 0 0.838 0.119 1.648 0.341 2.414l-0.015-0.061-5.276 2.775c-1.32 0.693-2.864-0.427-2.613-1.897l1.201-7.001-5.087-4.96c-1.068-1.040-0.479-2.855 0.997-3.069l7.031-1.021 3.144-6.371zM30.664 23.333c0 4.050-3.283 7.333-7.333 7.333s-7.333-3.283-7.333-7.333v0c0-4.050 3.283-7.333 7.333-7.333s7.333 3.283 7.333 7.333v0zM19.331 22.667c-0.368 0-0.667 0.298-0.667 0.667s0.298 0.667 0.667 0.667v0h6.391l-2.195 2.195c-0.126 0.121-0.204 0.291-0.204 0.48 0 0.368 0.298 0.667 0.667 0.667 0.188 0 0.358-0.078 0.479-0.203l3.334-3.334c0.121-0.121 0.195-0.287 0.195-0.471s-0.075-0.351-0.195-0.471l-3.333-3.333c-0.121-0.126-0.291-0.204-0.48-0.204-0.368 0-0.667 0.298-0.667 0.667 0 0.188 0.078 0.358 0.203 0.479l0 0 2.193 2.196h-6.391z"></path>
</svg>
