<!-- Generated by IcoMoon.io -->
<svg version="1.1" xmlns="http://www.w3.org/2000/svg" width="32" height="32" viewBox="0 0 32 32">
<title>star-prohibited-filled</title>
<path d="M14.384 4.136c0.66-1.337 2.568-1.337 3.228 0l3.144 6.371 7.031 1.021c1.476 0.213 2.065 2.029 0.997 3.071l-1.208 1.176c-1.223-0.7-2.687-1.113-4.248-1.113-4.786 0-8.667 3.88-8.667 8.667 0 0.838 0.119 1.648 0.341 2.414l-0.015-0.061-5.276 2.775c-1.32 0.693-2.864-0.427-2.613-1.897l1.201-7.001-5.087-4.96c-1.068-1.040-0.479-2.855 0.997-3.069l7.031-1.021 3.144-6.371zM30.664 23.333c0 4.050-3.283 7.333-7.333 7.333s-7.333-3.283-7.333-7.333v0c0-4.050 3.283-7.333 7.333-7.333s7.333 3.283 7.333 7.333v0zM17.997 23.333c0 1.111 0.34 2.143 0.921 2.997l7.409-7.409c-0.84-0.577-1.878-0.922-2.997-0.922-2.946 0-5.333 2.388-5.333 5.333 0 0 0 0 0 0.001v-0zM23.331 28.667c0 0 0.001 0 0.002 0 2.946 0 5.333-2.388 5.333-5.333 0-1.12-0.345-2.159-0.935-3.017l0.012 0.018-7.409 7.409c0.853 0.583 1.887 0.923 2.997 0.923z"></path>
</svg>
