<!-- Generated by IcoMoon.io -->
<svg version="1.1" xmlns="http://www.w3.org/2000/svg" width="32" height="32" viewBox="0 0 32 32">
<title>star-add-filled</title>
<path d="M14.515 4.466c0.608-1.232 2.365-1.232 2.971 0l3.077 6.231 6.877 1c1.36 0.198 1.902 1.867 0.919 2.826l-1.211 1.181c-1.088-0.536-2.368-0.85-3.722-0.85-4.734 0-8.571 3.838-8.571 8.571 0 0.642 0.071 1.268 0.204 1.869l-0.011-0.057-5.197 2.731c-1.216 0.64-2.637-0.392-2.405-1.746l1.175-6.849-4.977-4.85c-0.983-0.959-0.44-2.629 0.919-2.826l6.877-1 3.075-6.231zM30.857 23.429c0 4.103-3.326 7.429-7.429 7.429s-7.429-3.326-7.429-7.429v0c0-4.103 3.326-7.429 7.429-7.429s7.429 3.326 7.429 7.429v0zM24 18.857c0-0.316-0.256-0.571-0.571-0.571s-0.571 0.256-0.571 0.571v0 4h-4c-0.316 0-0.571 0.256-0.571 0.571s0.256 0.571 0.571 0.571v0h4v4c0 0.316 0.256 0.571 0.571 0.571s0.571-0.256 0.571-0.571v0-4h4c0.316 0 0.571-0.256 0.571-0.571s-0.256-0.571-0.571-0.571v0h-4v-4z"></path>
</svg>
