<!-- Generated by IcoMoon.io -->
<svg version="1.1" xmlns="http://www.w3.org/2000/svg" width="32" height="32" viewBox="0 0 32 32">
<title>star-add-filled</title>
<path d="M14.384 4.137c0.66-1.338 2.568-1.338 3.228 0l3.144 6.37 7.030 1.022c1.476 0.215 2.066 2.029 0.998 3.070l-1.208 1.177c-1.255-0.706-2.703-1.109-4.245-1.109-4.786 0-8.667 3.88-8.667 8.667 0 0.814 0.112 1.602 0.322 2.349l-5.276 2.774c-1.321 0.694-2.864-0.427-2.612-1.898l1.201-7.002-5.087-4.959c-1.068-1.041-0.479-2.856 0.998-3.070l7.030-1.022 3.144-6.37z"></path>
<path d="M30.664 23.333c0-4.050-3.283-7.333-7.333-7.333s-7.333 3.283-7.333 7.333 3.283 7.333 7.333 7.333c4.050 0 7.333-3.283 7.333-7.333zM23.998 24l0.001 3.338c0 0.368-0.299 0.667-0.667 0.667s-0.667-0.298-0.667-0.667l-0.001-3.338h-3.34c-0.368 0-0.666-0.299-0.666-0.667s0.298-0.667 0.666-0.667h3.34l-0.001-3.334c0-0.368 0.299-0.667 0.667-0.667s0.667 0.298 0.667 0.667l0.001 3.334h3.328c0.368 0 0.666 0.299 0.666 0.667s-0.298 0.667-0.666 0.667h-3.328z"></path>
</svg>
