<!-- Generated by IcoMoon.io -->
<svg version="1.1" xmlns="http://www.w3.org/2000/svg" width="32" height="32" viewBox="0 0 32 32">
<title>star-off-filled</title>
<path d="M4.374 2.96c-0.391-0.391-1.024-0.391-1.414-0s-0.391 1.024-0 1.414l6.406 6.406-5.153 0.749c-1.476 0.215-2.066 2.029-0.998 3.070l5.087 4.959-1.201 7.002c-0.252 1.471 1.291 2.592 2.612 1.898l6.288-3.306 6.288 3.306c1.321 0.694 2.864-0.427 2.612-1.898l-0.051-0.295 2.776 2.777c0.391 0.391 1.024 0.391 1.414 0s0.391-1.024 0-1.414l-24.666-24.667z"></path>
<path d="M28.786 14.599l-5.036 4.909-11.349-11.349 1.985-4.022c0.66-1.338 2.568-1.338 3.228 0l3.144 6.37 7.030 1.022c1.476 0.215 2.066 2.029 0.998 3.070z"></path>
</svg>
