<!-- Generated by IcoMoon.io -->
<svg version="1.1" xmlns="http://www.w3.org/2000/svg" width="32" height="32" viewBox="0 0 32 32">
<title>star-arrow-right-start-filled</title>
<path d="M14.386 4.137c0.66-1.338 2.568-1.338 3.228 0l3.144 6.37 7.030 1.022c1.476 0.215 2.066 2.029 0.998 3.070l-5.087 4.959 1.201 7.002c0.252 1.471-1.291 2.592-2.612 1.898l-5.277-2.774c0.21-0.747 0.322-1.535 0.322-2.349 0-4.787-3.88-8.667-8.667-8.667-1.542 0-2.99 0.403-4.245 1.109l-1.207-1.177c-1.068-1.041-0.479-2.856 0.998-3.070l7.030-1.022 3.144-6.37z"></path>
<path d="M16 23.333c0 4.050-3.283 7.333-7.333 7.333s-7.333-3.283-7.333-7.333c0-4.050 3.283-7.333 7.333-7.333s7.333 3.283 7.333 7.333zM4.667 22.667c-0.368 0-0.667 0.299-0.667 0.667s0.298 0.667 0.667 0.667h6.391l-2.195 2.195c-0.26 0.26-0.26 0.683 0 0.943s0.682 0.26 0.943 0l3.333-3.333c0.26-0.26 0.26-0.683 0-0.943l-3.333-3.333c-0.26-0.26-0.682-0.26-0.943 0s-0.26 0.683 0 0.943l2.195 2.195h-6.391z"></path>
</svg>
