<!-- Generated by IcoMoon.io -->
<svg version="1.1" xmlns="http://www.w3.org/2000/svg" width="32" height="32" viewBox="0 0 32 32">
<title>star-edit-filled</title>
<path d="M17.612 4.137c-0.66-1.338-2.568-1.338-3.228 0l-3.144 6.37-7.030 1.022c-1.476 0.215-2.066 2.029-0.998 3.070l5.087 4.959-1.201 7.002c-0.252 1.471 1.291 2.592 2.612 1.898l3.923-2.062 0.406-1.625c0.216-0.864 0.662-1.653 1.291-2.283l7.861-7.87c1.597-1.599 4.122-1.704 5.841-0.316 0.707-1.057 0.098-2.577-1.246-2.772l-7.030-1.022-3.144-6.37z"></path>
<path d="M24.133 15.559l-7.861 7.87c-0.458 0.459-0.783 1.034-0.941 1.663l-0.61 2.441c-0.265 1.061 0.695 2.023 1.756 1.758l2.438-0.61c0.629-0.157 1.203-0.483 1.661-0.942l7.861-7.87c1.189-1.19 1.189-3.12 0-4.31s-3.116-1.19-4.305 0z"></path>
</svg>
