<!-- Generated by IcoMoon.io -->
<svg version="1.1" xmlns="http://www.w3.org/2000/svg" width="32" height="32" viewBox="0 0 32 32">
<title>star-settings-filled</title>
<path d="M14.384 4.136c0.66-1.337 2.568-1.337 3.228 0l3.144 6.371 7.031 1.021c1.476 0.213 2.065 2.029 0.997 3.071l-1.207 1.176c-1.222-0.699-2.686-1.112-4.246-1.112-4.786 0-8.667 3.88-8.667 8.667 0 0.837 0.119 1.647 0.34 2.413l-0.015-0.061-5.28 2.775c-1.32 0.693-2.863-0.427-2.611-1.897l1.2-7.001-5.087-4.96c-1.068-1.040-0.479-2.855 0.997-3.069l7.031-1.021 3.144-6.371zM19.037 18.633c0.066 0.221 0.105 0.476 0.105 0.739 0 1.245-0.854 2.291-2.007 2.585l-0.018 0.004-0.779 0.193c-0.058 0.355-0.092 0.763-0.092 1.18 0 0.434 0.036 0.86 0.106 1.274l-0.006-0.045 0.72 0.173c1.181 0.291 2.042 1.341 2.042 2.593 0 0.269-0.040 0.528-0.114 0.773l0.005-0.019-0.249 0.841c0.587 0.515 1.253 0.933 1.979 1.229l0.659-0.692c0.487-0.511 1.173-0.829 1.933-0.829s1.446 0.318 1.932 0.828l0.001 0.001 0.664 0.7c0.76-0.313 1.413-0.722 1.985-1.223l-0.008 0.007-0.264-0.915c-0.067-0.222-0.105-0.477-0.105-0.741 0-1.245 0.854-2.291 2.008-2.585l0.018-0.004 0.779-0.192c0.058-0.355 0.092-0.763 0.092-1.18 0-0.434-0.036-0.86-0.106-1.274l0.006 0.045-0.72-0.173c-1.181-0.291-2.042-1.341-2.042-2.593 0-0.269 0.040-0.528 0.114-0.773l-0.005 0.019 0.249-0.841c-0.564-0.499-1.218-0.913-1.932-1.212l-0.046-0.017-0.657 0.691c-0.487 0.512-1.173 0.83-1.933 0.83s-1.447-0.318-1.932-0.829l-0.001-0.001-0.664-0.7c-0.725 0.293-1.392 0.707-1.977 1.217l0.264 0.915zM23.333 25.332c-1.067 0-1.933-0.895-1.933-2 0-1.104 0.867-2 1.933-2s1.933 0.896 1.933 2c0 1.105-0.867 2-1.933 2z"></path>
</svg>
