<!-- Generated by IcoMoon.io -->
<svg version="1.1" xmlns="http://www.w3.org/2000/svg" width="32" height="32" viewBox="0 0 32 32">
<title>star-three-quarter-filled</title>
<path d="M17.615 4.137l2.385 4.833v0.005l0.756 1.532 7.030 1.022c1.476 0.215 2.066 2.029 0.998 3.070l-5.087 4.959 1.201 7.002c0.252 1.471-1.291 2.592-2.612 1.898l-6.287-3.305-6.287 3.305c-0.276 0.145-0.562 0.211-0.839 0.211-1.049 0.001-1.975-0.944-1.775-2.108l1.201-7.002-5.087-4.959c-1.068-1.041-0.479-2.856 0.998-3.070l7.030-1.022 3.144-6.37c0.33-0.669 0.973-1.004 1.615-1.003s1.285 0.334 1.615 1.003zM20 12.379v12.617l2.858 1.502-1.15-6.706c-0.1-0.584 0.093-1.18 0.518-1.593l4.872-4.749-6.733-0.978c-0.126-0.018-0.248-0.050-0.364-0.093z"></path>
</svg>
