<!-- Generated by IcoMoon.io -->
<svg version="1.1" xmlns="http://www.w3.org/2000/svg" width="32" height="32" viewBox="0 0 32 32">
<title>star-half-filled</title>
<path d="M15.999 3.133c-0.642-0-1.285 0.334-1.615 1.003l-3.144 6.37-7.030 1.022c-1.476 0.215-2.066 2.029-0.998 3.070l5.087 4.959-1.201 7.002c-0.2 1.164 0.726 2.109 1.775 2.108 0.277 0 0.563-0.066 0.839-0.211l6.287-3.305 6.287 3.305c1.321 0.694 2.864-0.427 2.612-1.898l-1.201-7.002 5.087-4.959c1.068-1.041 0.479-2.856-0.998-3.070l-7.030-1.022-3.144-6.37c-0.33-0.668-0.972-1.003-1.613-1.003-0 0 0 0 0 0zM16 23.125v-17.735l3.009 6.097c0.262 0.531 0.769 0.899 1.355 0.985l6.733 0.978-4.872 4.749c-0.424 0.414-0.618 1.009-0.518 1.593l1.15 6.706-6.022-3.166c-0.261-0.137-0.548-0.206-0.835-0.207z"></path>
</svg>
