<!-- Generated by IcoMoon.io -->
<svg version="1.1" xmlns="http://www.w3.org/2000/svg" width="32" height="32" viewBox="0 0 32 32">
<title>star-arrow-right-start-filled</title>
<path d="M14.387 4.136c0.66-1.337 2.568-1.337 3.228 0l3.144 6.371 7.029 1.021c1.477 0.213 2.067 2.029 0.999 3.071l-5.088 4.959 1.201 7c0.253 1.472-1.291 2.593-2.612 1.899l-5.277-2.773c0.207-0.705 0.325-1.515 0.325-2.353 0-4.786-3.88-8.667-8.667-8.667-1.561 0-3.026 0.413-4.291 1.135l0.043-0.022-1.207-1.177c-1.068-1.041-0.479-2.856 0.997-3.071l7.031-1.021 3.144-6.371zM16 23.333c0 4.050-3.283 7.333-7.333 7.333s-7.333-3.283-7.333-7.333v0c0-4.050 3.283-7.333 7.333-7.333s7.333 3.283 7.333 7.333v0zM4.667 22.667c-0.368 0-0.667 0.298-0.667 0.667s0.298 0.667 0.667 0.667v0h6.391l-2.196 2.195c-0.12 0.121-0.195 0.287-0.195 0.471 0 0.368 0.299 0.667 0.667 0.667 0.184 0 0.351-0.075 0.472-0.196v0l3.333-3.333c0.121-0.121 0.195-0.287 0.195-0.471s-0.075-0.351-0.195-0.471l-3.333-3.333c-0.121-0.121-0.288-0.196-0.472-0.196-0.368 0-0.667 0.299-0.667 0.667 0 0.184 0.075 0.351 0.195 0.471v0l2.196 2.196h-6.391z"></path>
</svg>
