<!-- Generated by IcoMoon.io -->
<svg version="1.1" xmlns="http://www.w3.org/2000/svg" width="32" height="32" viewBox="0 0 32 32">
<title>steps-filled</title>
<path d="M16 4.5c0-1.013 0.821-1.833 1.833-1.833h5c1.013 0 1.833 0.821 1.833 1.833v7.5h-2v-7.333h-4.667v4.833c0 1.013-0.821 1.833-1.833 1.833h-4.833v4.833c0 1.013-0.821 1.833-1.833 1.833h-4.833v4.667h7.333v2h-7.5c-1.013 0-1.833-0.821-1.833-1.833v-5c0-1.013 0.821-1.833 1.833-1.833h4.833v-4.833c0-1.013 0.821-1.833 1.833-1.833h4.833v-4.833zM20 15.167c0-1.013 0.821-1.833 1.833-1.833h5c1.013 0 1.833 0.821 1.833 1.833v9.167c0 2.393-1.94 4.333-4.333 4.333h-9.167c-1.013 0-1.833-0.821-1.833-1.833v-5c0-1.013 0.821-1.833 1.833-1.833h4.833v-4.833z"></path>
</svg>
