<!-- Generated by IcoMoon.io -->
<svg version="1.1" xmlns="http://www.w3.org/2000/svg" width="32" height="32" viewBox="0 0 32 32">
<title>stethoscope-filled</title>
<path d="M4 3.333c-0.736 0-1.333 0.597-1.333 1.333v0 7.333c0 2.321 0.819 4.341 2.28 5.783 1.164 1.147 2.68 1.875 4.387 2.123v1.095c0 4.602 3.731 8.333 8.333 8.333s8.333-3.731 8.333-8.333v0-0.876c1.75-0.585 2.989-2.208 2.989-4.121 0-2.39-1.933-4.328-4.321-4.336h-0.001c-0.001 0-0.002 0-0.003 0-2.393 0-4.333 1.94-4.333 4.333 0 1.918 1.246 3.544 2.972 4.115l0.031 0.009v0.876c0 3.13-2.537 5.667-5.667 5.667s-5.667-2.537-5.667-5.667v0-1.095c1.707-0.248 3.223-0.976 4.387-2.123 1.46-1.44 2.28-3.461 2.28-5.783v-7.333c0-0.736-0.597-1.333-1.333-1.333v0h-2.664c-0.736 0-1.333 0.597-1.333 1.333s0.597 1.333 1.333 1.333v0h1.331v6c0 1.679-0.581 2.992-1.487 3.884-0.907 0.895-2.227 1.449-3.847 1.449-1.621 0-2.939-0.555-3.847-1.449-0.907-0.893-1.487-2.205-1.487-3.884v-6h1.333c0.736 0 1.333-0.597 1.333-1.333s-0.597-1.333-1.333-1.333v0h-2.667zM24.667 14.333c0.92 0 1.667 0.746 1.667 1.667s-0.746 1.667-1.667 1.667v0c-0.92 0-1.667-0.746-1.667-1.667s0.746-1.667 1.667-1.667v0z"></path>
</svg>
