<!-- Generated by IcoMoon.io -->
<svg version="1.1" xmlns="http://www.w3.org/2000/svg" width="32" height="32" viewBox="0 0 32 32">
<title>sticker-add-filled</title>
<path d="M23.333 16c4.050 0 7.333 3.283 7.333 7.333s-3.283 7.333-7.333 7.333c-4.050 0-7.333-3.283-7.333-7.333s3.283-7.333 7.333-7.333zM23.333 18.666l-0.12 0.011c-0.272 0.049-0.487 0.264-0.536 0.536l-0.011 0.12-0.001 3.333-3.336 0.001-0.12 0.011c-0.272 0.049-0.487 0.264-0.536 0.536l-0.011 0.12 0.011 0.12c0.049 0.272 0.264 0.487 0.536 0.536l0.12 0.011 3.337-0.001 0.001 3.339 0.011 0.12c0.049 0.272 0.264 0.487 0.536 0.536l0.12 0.011 0.12-0.011c0.272-0.049 0.487-0.264 0.536-0.536l0.011-0.12-0.001-3.339 3.339 0.001 0.12-0.011c0.272-0.049 0.487-0.264 0.536-0.536l0.011-0.12-0.011-0.12c-0.049-0.272-0.264-0.487-0.536-0.536l-0.12-0.011-3.34-0.001 0.001-3.333-0.011-0.12c-0.049-0.272-0.264-0.487-0.536-0.536l-0.12-0.011zM23.667 4c2.393 0 4.333 1.94 4.333 4.333l0.002 7.697c-1.347-0.863-2.949-1.363-4.668-1.363-3.598 0-6.684 2.192-7.994 5.314-1.129-0.103-2.159-0.479-3.104-1.133-0.454-0.314-1.077-0.201-1.391 0.254s-0.201 1.077 0.254 1.391c1.124 0.778 2.356 1.258 3.682 1.439-0.075 0.456-0.113 0.925-0.113 1.402 0 1.719 0.5 3.321 1.363 4.668l-7.697-0.002c-2.393 0-4.333-1.94-4.333-4.333v-15.333c0-2.393 1.94-4.333 4.333-4.333h15.333zM12.001 10.335c-0.92 0-1.666 0.746-1.666 1.666s0.746 1.666 1.666 1.666c0.92 0 1.666-0.746 1.666-1.666s-0.746-1.666-1.666-1.666zM20.001 10.335c-0.92 0-1.666 0.746-1.666 1.666s0.746 1.666 1.666 1.666c0.92 0 1.666-0.746 1.666-1.666s-0.746-1.666-1.666-1.666z"></path>
</svg>
