<!-- Generated by IcoMoon.io -->
<svg version="1.1" xmlns="http://www.w3.org/2000/svg" width="32" height="32" viewBox="0 0 32 32">
<title>sticker-filled</title>
<path d="M23.667 4c2.393 0 4.333 1.94 4.333 4.333v0 8.999l-6.332 0.001-0.284 0.009c-1.595 0.108-2.943 1.064-3.607 2.417l-0.011 0.026c-0.56 0.152-1.147 0.227-1.764 0.227-0.020 0-0.044 0-0.068 0-1.384 0-2.667-0.436-3.718-1.178l0.020 0.014c-0.161-0.116-0.363-0.186-0.58-0.186-0.552 0-1 0.448-1 1 0 0.344 0.174 0.647 0.438 0.827l0.003 0.002c1.348 0.951 3.025 1.52 4.834 1.52 0.024 0 0.049-0 0.073-0l-0.004 0c0.303 0 0.6-0.013 0.895-0.043l0.439-0.053-0.001 6.084h-9c-2.393 0-4.333-1.94-4.333-4.333v0-15.333c0-2.393 1.94-4.333 4.333-4.333v0h15.333zM27.121 19.627l-7.495 7.493c-0.089 0.089-0.184 0.172-0.284 0.25l-0.007 0.005-0.003-5.708 0.008-0.191c0.096-1.134 0.991-2.032 2.115-2.133l0.009-0.001 0.201-0.009h5.709c-0.079 0.103-0.164 0.2-0.256 0.293zM12.001 10.333c-0.014-0-0.031-0.001-0.047-0.001-0.92 0-1.667 0.746-1.667 1.667s0.746 1.667 1.667 1.667c0.017 0 0.033-0 0.050-0.001l-0.002 0c0.9-0.027 1.619-0.762 1.619-1.666s-0.72-1.64-1.618-1.666l-0.002-0zM20.001 10.333c-0.014-0-0.031-0.001-0.047-0.001-0.92 0-1.667 0.746-1.667 1.667s0.746 1.667 1.667 1.667c0.017 0 0.033-0 0.050-0.001l-0.002 0c0.9-0.026 1.62-0.762 1.62-1.666s-0.72-1.64-1.617-1.666l-0.002-0z"></path>
</svg>
