<!-- Generated by IcoMoon.io -->
<svg version="1.1" xmlns="http://www.w3.org/2000/svg" width="32" height="32" viewBox="0 0 32 32">
<title>sticker-filled</title>
<path d="M23.667 4c2.393 0 4.333 1.94 4.333 4.333v8.999l-6.332 0.001-0.284 0.009c-1.597 0.104-2.958 1.072-3.619 2.443-0.56 0.151-1.147 0.227-1.764 0.227-1.393 0-2.639-0.386-3.766-1.165-0.454-0.314-1.077-0.201-1.391 0.254s-0.201 1.077 0.254 1.391c1.462 1.011 3.106 1.52 4.904 1.52 0.303 0 0.601-0.014 0.895-0.043l0.438-0.054-0.001 6.085h-9c-2.393 0-4.333-1.94-4.333-4.333v-15.333c0-2.393 1.94-4.333 4.333-4.333h15.333zM27.121 19.626l-7.495 7.495c-0.092 0.092-0.189 0.177-0.291 0.255l-0.001-5.71 0.008-0.191c0.092-1.132 0.993-2.036 2.124-2.133l0.202-0.009 5.709 0.001c-0.079 0.102-0.164 0.2-0.256 0.292zM12.001 10.335c-0.92 0-1.666 0.746-1.666 1.666s0.746 1.666 1.666 1.666c0.92 0 1.666-0.746 1.666-1.666s-0.746-1.666-1.666-1.666zM20.001 10.335c-0.92 0-1.666 0.746-1.666 1.666s0.746 1.666 1.666 1.666c0.92 0 1.666-0.746 1.666-1.666s-0.746-1.666-1.666-1.666z"></path>
</svg>
