<!-- Generated by IcoMoon.io -->
<svg version="1.1" xmlns="http://www.w3.org/2000/svg" width="32" height="32" viewBox="0 0 32 32">
<title>sticker-add-filled</title>
<path d="M23.333 16c4.050 0 7.333 3.283 7.333 7.333s-3.283 7.333-7.333 7.333v0c-4.050 0-7.333-3.283-7.333-7.333s3.283-7.333 7.333-7.333v0zM23.333 18.667l-0.12 0.009c-0.273 0.051-0.485 0.263-0.535 0.532l-0.001 0.004-0.011 0.121v3.333h-3.336l-0.12 0.011c-0.273 0.051-0.485 0.263-0.535 0.532l-0.001 0.004-0.011 0.12 0.011 0.12c0.051 0.273 0.263 0.485 0.532 0.535l0.004 0.001 0.12 0.011h3.336v3.337l0.011 0.12c0.051 0.273 0.263 0.485 0.532 0.535l0.004 0.001 0.12 0.011 0.12-0.011c0.273-0.051 0.485-0.263 0.535-0.532l0.001-0.004 0.011-0.12v-3.337l3.339 0.001 0.12-0.011c0.273-0.051 0.485-0.263 0.535-0.532l0.001-0.004 0.011-0.12-0.011-0.12c-0.051-0.273-0.264-0.485-0.533-0.535l-0.004-0.001-0.12-0.011h-3.337v-3.333l-0.011-0.12c-0.051-0.273-0.263-0.486-0.532-0.537l-0.004-0.001-0.12-0.011zM23.667 4c2.393 0 4.333 1.94 4.333 4.333v0l0.001 7.697c-1.321-0.856-2.935-1.364-4.669-1.364-3.577 0-6.648 2.166-7.973 5.259l-0.021 0.056c-1.172-0.106-2.232-0.515-3.122-1.147l0.020 0.013c-0.161-0.116-0.363-0.186-0.58-0.186-0.552 0-1 0.448-1 1 0 0.344 0.174 0.647 0.438 0.827l0.003 0.002c1.039 0.735 2.287 1.246 3.638 1.435l0.044 0.005c-0.072 0.42-0.113 0.904-0.113 1.398 0 1.734 0.509 3.349 1.385 4.704l-0.021-0.034h-7.697c-2.393 0-4.333-1.94-4.333-4.333v0-15.333c0-2.393 1.94-4.333 4.333-4.333v0h15.333zM12 10.335c-0.014-0-0.031-0.001-0.047-0.001-0.92 0-1.667 0.746-1.667 1.667s0.746 1.667 1.667 1.667c0.017 0 0.033-0 0.050-0.001l-0.002 0c0.92 0 1.667-0.746 1.667-1.667s-0.746-1.667-1.667-1.667v0zM20 10.335c-0.014-0-0.031-0.001-0.047-0.001-0.92 0-1.667 0.746-1.667 1.667s0.746 1.667 1.667 1.667c0.017 0 0.033-0 0.050-0.001l-0.002 0c0.9-0.026 1.62-0.762 1.62-1.666s-0.72-1.64-1.617-1.666l-0.002-0z"></path>
</svg>
