<!-- Generated by IcoMoon.io -->
<svg version="1.1" xmlns="http://www.w3.org/2000/svg" width="32" height="32" viewBox="0 0 32 32">
<title>storage-filled</title>
<path d="M6.667 9.333h18.667c2.13 0 3.872 1.665 3.993 3.765l0.007 0.235v5.333c0 2.13-1.665 3.872-3.765 3.993l-0.235 0.007h-18.667c-2.13 0-3.872-1.665-3.993-3.765l-0.007-0.235v-5.333c0-2.13 1.665-3.872 3.765-3.993l0.235-0.007zM24 13.333c-0.736 0-1.333 0.597-1.333 1.333s0.597 1.333 1.333 1.333c0.736 0 1.333-0.597 1.333-1.333s-0.597-1.333-1.333-1.333zM18.667 13.333c-0.736 0-1.333 0.597-1.333 1.333s0.597 1.333 1.333 1.333c0.736 0 1.333-0.597 1.333-1.333s-0.597-1.333-1.333-1.333z"></path>
</svg>
