<!-- Generated by IcoMoon.io -->
<svg version="1.1" xmlns="http://www.w3.org/2000/svg" width="32" height="32" viewBox="0 0 32 32">
<title>store-microsoft-filled</title>
<path d="M10.667 5v3h-7c-0.552 0-1 0.448-1 1v15.333c0 2.025 1.642 3.667 3.667 3.667h19.333c2.025 0 3.667-1.642 3.667-3.667v-15.333c0-0.552-0.448-1-1-1h-7v-3c0-1.289-1.045-2.333-2.333-2.333h-6c-1.289 0-2.333 1.045-2.333 2.333zM13 4.667h6c0.184 0 0.333 0.149 0.333 0.333v3h-6.667v-3c0-0.184 0.149-0.333 0.333-0.333zM10.667 17.333v-4.667h4.667v4.667h-4.667zM10.667 23.333v-4.667h4.667v4.667h-4.667zM21.333 17.333h-4.667v-4.667h4.667v4.667zM16.667 23.333v-4.667h4.667v4.667h-4.667z"></path>
</svg>
