<!-- Generated by IcoMoon.io -->
<svg version="1.1" xmlns="http://www.w3.org/2000/svg" width="32" height="32" viewBox="0 0 32 32">
<title>stream-input-filled</title>
<path d="M12 14.8c0-5.081 4.119-9.2 9.2-9.2v0h0.8c0.663 0 1.2-0.537 1.2-1.2s-0.537-1.2-1.2-1.2v0h-0.8c-6.407 0-11.6 5.194-11.6 11.6v0 1.6c0 0.663-0.537 1.2-1.2 1.2v0h-0.56l2.070 2.069c1.244-0.585 2.090-1.828 2.090-3.268 0-0 0-0.001 0-0.001v0-1.6zM10.245 26.397l-1.968 1.968c0.221 0.267 0.552 0.435 0.923 0.435 0 0 0 0 0 0h0.8c6.407 0 11.6-5.194 11.6-11.6v0-1.6c0-0.663 0.537-1.2 1.2-1.2v0h4.8c0.663 0 1.2-0.537 1.2-1.2s-0.537-1.2-1.2-1.2v0h-4.8c-1.988 0-3.6 1.612-3.6 3.6v0 1.6c0 0 0 0 0 0 0 4.995-3.981 9.060-8.943 9.196l-0.013 0zM11.506 21.462c0.286 0.501 0.455 1.101 0.455 1.74 0 0.251-0.026 0.495-0.075 0.731l0.004-0.023c2.895-1.119 4.91-3.879 4.91-7.11 0 0 0-0 0-0v0-1.6c0-2.872 2.328-5.2 5.2-5.2v0h5.6c0.663 0 1.2-0.537 1.2-1.2s-0.537-1.2-1.2-1.2v0h-5.6c-4.197 0-7.6 3.403-7.6 7.6v0 1.6c0 0 0 0.001 0 0.001 0 2.032-1.166 3.792-2.865 4.647l-0.030 0.014zM2.752 17.552c0.217-0.217 0.517-0.351 0.848-0.351s0.631 0.134 0.848 0.351v0l4.8 4.8c0.217 0.217 0.351 0.517 0.351 0.848s-0.134 0.631-0.351 0.848v0l-4.8 4.8c-0.214 0.2-0.502 0.322-0.818 0.322-0.663 0-1.2-0.537-1.2-1.2 0-0.316 0.123-0.604 0.323-0.819l-0.001 0.001 2.752-2.752h-4.304c-0.663 0-1.2-0.537-1.2-1.2s0.537-1.2 1.2-1.2v0h4.304l-2.752-2.752c-0.217-0.217-0.351-0.517-0.351-0.848s0.134-0.631 0.351-0.848v0z"></path>
</svg>
