<!-- Generated by IcoMoon.io -->
<svg version="1.1" xmlns="http://www.w3.org/2000/svg" width="32" height="32" viewBox="0 0 32 32">
<title>stream-output-filled</title>
<path d="M26.848 3.152c-0.22-0.235-0.532-0.382-0.878-0.382-0.663 0-1.2 0.537-1.2 1.2 0 0.346 0.147 0.658 0.381 0.877l0.001 0.001 2.752 2.752h-5.904c-4.197 0-7.6 3.403-7.6 7.6v0 1.6c0 2.872-2.328 5.2-5.2 5.2v0h-4.8c-0.663 0-1.2 0.537-1.2 1.2s0.537 1.2 1.2 1.2v0h4.8c4.197 0 7.6-3.403 7.6-7.6v0-1.6c0-2.872 2.328-5.2 5.2-5.2v0h5.904l-2.752 2.752c-0.2 0.214-0.322 0.502-0.322 0.818 0 0.663 0.537 1.2 1.2 1.2 0.316 0 0.604-0.123 0.819-0.323l-0.001 0.001 4.8-4.8c0.217-0.217 0.351-0.517 0.351-0.848s-0.134-0.631-0.351-0.848v0l-4.8-4.8zM21.2 5.6c-5.081 0-9.2 4.119-9.2 9.2v0 1.6c0 1.988-1.612 3.6-3.6 3.6v0h-4c-0.663 0-1.2-0.537-1.2-1.2s0.537-1.2 1.2-1.2v0h4c0.663 0 1.2-0.537 1.2-1.2v0-1.6c0-6.406 5.194-11.6 11.6-11.6v0h0.8c0.663 0 1.2 0.537 1.2 1.2s-0.537 1.2-1.2 1.2v0h-0.8zM22.662 12.002c-0.39 0.776-0.48 1.648-0.272 2.47-0.465 0.172-0.79 0.612-0.79 1.128 0 0 0 0 0 0v0 1.6c0 6.407-5.194 11.6-11.6 11.6v0h-0.8c-0.663 0-1.2-0.537-1.2-1.2s0.537-1.2 1.2-1.2v0h0.8c5.081 0 9.2-4.119 9.2-9.2v0-1.6c0-0.001 0-0.002 0-0.003 0-1.94 1.534-3.521 3.456-3.597l0.007-0z"></path>
</svg>
