<!-- Generated by IcoMoon.io -->
<svg version="1.1" xmlns="http://www.w3.org/2000/svg" width="32" height="32" viewBox="0 0 32 32">
<title>stream-filled</title>
<path d="M12 14.667c0-5.155 4.179-9.333 9.333-9.333v0h2c0.736 0 1.333-0.597 1.333-1.333s-0.597-1.333-1.333-1.333v0h-2c-6.627 0-12 5.373-12 12v0c0 0.736-0.597 1.333-1.333 1.333v0h-4c-0.736 0-1.333 0.597-1.333 1.333s0.597 1.333 1.333 1.333v0h4c2.209 0 4-1.791 4-4v0zM22.667 10.667c-2.946 0-5.333 2.388-5.333 5.333v0c0 4.418-3.582 8-8 8v0h-5.333c-0.736 0-1.333-0.597-1.333-1.333s0.597-1.333 1.333-1.333v0h5.333c2.946 0 5.333-2.388 5.333-5.333v0c0-4.418 3.582-8 8-8v0h5.333c0.736 0 1.333 0.597 1.333 1.333s-0.597 1.333-1.333 1.333v0h-5.333zM24 16c-0.736 0-1.333 0.597-1.333 1.333v0c0 6.627-5.373 12-12 12v0h-2.667c-0.736 0-1.333-0.597-1.333-1.333s0.597-1.333 1.333-1.333v0h2.667c5.155 0 9.333-4.179 9.333-9.333v0c0-2.209 1.791-4 4-4v0h4c0.736 0 1.333 0.597 1.333 1.333s-0.597 1.333-1.333 1.333v0h-4z"></path>
</svg>
