<!-- Generated by IcoMoon.io -->
<svg version="1.1" xmlns="http://www.w3.org/2000/svg" width="32" height="32" viewBox="0 0 32 32">
<title>style-guide-filled</title>
<path d="M23.205 6.297l3.624 13.523c0.079 0.285 0.125 0.611 0.125 0.949 0 1.688-1.14 3.109-2.692 3.536l-0.026 0.006-8.369 2.243c-0.285 0.079-0.612 0.125-0.949 0.125-1.687 0-3.108-1.14-3.535-2.691l-0.006-0.026-3.625-13.524c-0.079-0.285-0.125-0.611-0.125-0.949 0-1.688 1.14-3.109 2.692-3.536l0.026-0.006 8.371-2.243c0.285-0.079 0.611-0.125 0.949-0.125 1.688 0 3.109 1.14 3.536 2.692l0.006 0.026zM14.621 10.323c-0.155-0.577-0.674-0.995-1.29-0.995-0.736 0-1.333 0.597-1.333 1.333 0 0.125 0.017 0.246 0.049 0.36l-0.002-0.009c0.159 0.571 0.675 0.983 1.286 0.983 0.736 0 1.333-0.597 1.333-1.333 0-0.12-0.016-0.237-0.046-0.348l0.002 0.009zM7.737 15.545l2.349 8.76c0.245 0.901 0.71 1.674 1.335 2.283l0.001 0.001-0.591-0.031c-1.941-0.105-3.474-1.704-3.474-3.662 0-0.067 0.002-0.134 0.005-0.201l-0 0.009 0.375-7.16zM6.504 13.573l-0.473 9.061c-0.049 0.932 0.16 1.817 0.565 2.587l-0.552-0.213c-1.388-0.543-2.353-1.871-2.353-3.423 0-0.473 0.089-0.924 0.252-1.339l-0.009 0.025 2.569-6.697z"></path>
</svg>
