<!-- Generated by IcoMoon.io -->
<svg version="1.1" xmlns="http://www.w3.org/2000/svg" width="32" height="32" viewBox="0 0 32 32">
<title>subtract-circle-arrow-forward-filled</title>
<path d="M27.166 15.342c0.022-0.282 0.035-0.61 0.035-0.941 0-7.069-5.731-12.8-12.8-12.8s-12.8 5.731-12.8 12.8c0 7.069 5.731 12.8 12.8 12.8 0.331 0 0.66-0.013 0.985-0.037l-0.043 0.003c-0.596-1.155-0.945-2.52-0.945-3.967 0-3.53 2.078-6.574 5.078-7.976l0.054-0.023h-10.73c-0.442 0-0.8-0.358-0.8-0.8s0.358-0.8 0.8-0.8v0h11.2c0.442 0 0.8 0.358 0.8 0.8 0 0.129-0.031 0.252-0.085 0.36l0.002-0.005c0.741-0.225 1.593-0.355 2.475-0.355 0.003 0 0.005 0 0.008 0h-0c1.427 0 2.774 0.339 3.966 0.942zM16 23.2c0 3.976 3.224 7.2 7.2 7.2s7.2-3.224 7.2-7.2v0c0-3.976-3.224-7.2-7.2-7.2s-7.2 3.224-7.2 7.2v0zM24.634 19.034c0.145-0.145 0.345-0.235 0.566-0.235s0.422 0.090 0.566 0.235l2.8 2.8c0.145 0.145 0.234 0.345 0.234 0.566 0 0.219-0.088 0.418-0.231 0.562l-2.803 2.805c-0.145 0.145-0.345 0.235-0.566 0.235-0.442 0-0.801-0.359-0.801-0.801 0-0.221 0.090-0.421 0.235-0.566v0l1.435-1.434h-2.469c-1.546 0-2.8 1.254-2.8 2.8v0 0.4c0 0.442-0.358 0.8-0.8 0.8s-0.8-0.358-0.8-0.8v0-0.4c0-2.43 1.97-4.4 4.4-4.4v0h2.469l-1.435-1.434c-0.145-0.145-0.235-0.345-0.235-0.566s0.090-0.422 0.235-0.566l0-0z"></path>
</svg>
