<!-- Generated by IcoMoon.io -->
<svg version="1.1" xmlns="http://www.w3.org/2000/svg" width="32" height="32" viewBox="0 0 32 32">
<title>surface-hub-filled</title>
<path d="M25.666 2.667c0.548 0 0.985 0.438 1 0.97l-0.005 0.135-1.333 12.667c-0.049 0.463-0.408 0.824-0.857 0.886l-0.137 0.009h-0.972l1.956 10.824 0.015 0.135c0.022 0.492-0.323 0.937-0.821 1.027s-0.977-0.206-1.129-0.674l-0.033-0.132-0.816-4.513h-3.729l-0.81 4.512c-0.098 0.544-0.618 0.905-1.161 0.807-0.498-0.090-0.843-0.534-0.822-1.026l0.015-0.135 0.746-4.158h-5.968l-0.81 4.512c-0.098 0.544-0.618 0.905-1.161 0.807-0.498-0.090-0.843-0.534-0.822-1.026l0.015-0.135 1.945-10.825h-3.638c-0.548 0-0.985-0.438-1-0.97l0.005-0.135 1.333-12.667c0.049-0.463 0.408-0.824 0.857-0.886l0.137-0.009h18zM17.971 17.333h-5.968l-0.839 4.667h5.968l0.839-4.667zM21.328 17.333h-1.325l-0.839 4.667h3.007l-0.843-4.667z"></path>
</svg>
