<!-- Generated by IcoMoon.io -->
<svg version="1.1" xmlns="http://www.w3.org/2000/svg" width="32" height="32" viewBox="0 0 32 32">
<title>surface-earbuds-filled</title>
<path d="M13.479 22.987c0.494 2.762 2.202 5.102 4.552 6.45l-3.297 1.094c-1.164 0.386-2.442-0.071-3.096-1.109l-0.574-0.911c-0.643-1.021-0.521-2.346 0.298-3.232l2.117-2.291zM22.667 13.334c4.418 0 8 3.582 8 8s-3.582 8-8 8c-4.418 0-8-3.582-8-8s3.582-8 8-8zM9.333 1.334c0.285 0 0.567 0.015 0.845 0.044l-0.467 0.154c-0.516 0.143-1.067 0.388-1.578 0.715-2.806 1.794-3.644 5.515-1.866 8.315 1.779 2.803 5.501 3.615 8.31 1.819 0.458-0.293 0.874-0.644 1.244-1.044l1.504-1.613c-0.204 4.237-3.703 7.609-7.991 7.609-4.418 0-8-3.582-8-8s3.582-8 8-8zM17.062 2.198l0.143 0.174 0.122 0.176 0.864 1.361c0.61 0.96 0.539 2.193-0.153 3.075l-0.147 0.172-3.051 3.276c-0.285 0.308-0.612 0.588-0.983 0.826-2.188 1.399-5.083 0.768-6.466-1.41s-0.729-5.078 1.459-6.477c0.406-0.26 0.836-0.449 1.277-0.572l4.114-1.354c1.019-0.336 2.124-0.026 2.821 0.754zM13.801 4.080c-0.417 0.279-0.557 0.818-0.348 1.258l0.073 0.129 0.348 0.52 0.091 0.117c0.328 0.361 0.879 0.437 1.296 0.158s0.557-0.818 0.348-1.258l-0.073-0.129-0.348-0.52-0.091-0.117c-0.328-0.361-0.879-0.437-1.296-0.158z"></path>
</svg>
