<!-- Generated by IcoMoon.io -->
<svg version="1.1" xmlns="http://www.w3.org/2000/svg" width="32" height="32" viewBox="0 0 32 32">
<title>surface-earbuds-filled</title>
<path d="M13.48 22.987c0.514 2.777 2.196 5.082 4.507 6.425l0.045 0.024-3.297 1.093c-0.251 0.086-0.54 0.136-0.841 0.136-0.945 0-1.775-0.492-2.249-1.233l-0.006-0.011-0.575-0.912c-0.257-0.403-0.41-0.894-0.41-1.421 0-0.7 0.27-1.337 0.711-1.812l-0.002 0.002 2.117-2.291zM22.667 13.333c4.418 0 8 3.582 8 8s-3.582 8-8 8v0c-4.418 0-8-3.582-8-8s3.582-8 8-8v0zM9.333 1.333c0.285 0 0.567 0.013 0.845 0.044l-0.468 0.153c-0.516 0.143-1.067 0.389-1.579 0.716-2.805 1.793-3.643 5.513-1.865 8.313 1.78 2.803 5.501 3.615 8.311 1.82 0.459-0.293 0.873-0.645 1.244-1.044l1.504-1.613c-0.213 4.248-3.709 7.611-7.991 7.611-4.418 0-8-3.582-8-8s3.581-7.999 7.998-8h0zM17.063 2.197l0.143 0.173 0.121 0.177 0.864 1.36c0.261 0.405 0.416 0.9 0.416 1.431 0 0.623-0.214 1.197-0.572 1.651l0.004-0.006-0.147 0.172-3.052 3.276c-0.284 0.307-0.611 0.588-0.983 0.827-2.188 1.397-5.083 0.767-6.467-1.412-1.381-2.177-0.728-5.077 1.46-6.477 0.405-0.259 0.836-0.449 1.277-0.572l4.113-1.353c0.249-0.085 0.536-0.134 0.835-0.134 0.788 0 1.496 0.342 1.984 0.885l0.002 0.002zM13.8 4.080c-0.269 0.182-0.443 0.486-0.443 0.83 0 0.156 0.036 0.303 0.099 0.434l-0.003-0.006 0.072 0.129 0.348 0.52 0.092 0.116c0.184 0.201 0.447 0.327 0.74 0.327 0.552 0 1-0.448 1-1 0-0.155-0.035-0.302-0.098-0.433l0.003 0.006-0.073-0.129-0.348-0.52-0.092-0.116c-0.184-0.202-0.447-0.327-0.74-0.327-0.207 0-0.4 0.063-0.559 0.171l0.004-0.002z"></path>
</svg>
