<!-- Generated by IcoMoon.io -->
<svg version="1.1" xmlns="http://www.w3.org/2000/svg" width="32" height="32" viewBox="0 0 32 32">
<title>swimming-pool-filled</title>
<path d="M8 5.333c-1.105 0-2 0.895-2 2v0 1c0 0.552-0.448 1-1 1s-1-0.448-1-1v0-1c0-2.209 1.791-4 4-4s4 1.791 4 4v0 4.667h10v-4.667c0-1.105-0.895-2-2-2s-2 0.895-2 2v0 1c0 0.552-0.448 1-1 1s-1-0.448-1-1v0-1c0-2.209 1.791-4 4-4s4 1.791 4 4v0 11.81c-0.599 0.117-1.29 0.186-1.996 0.19l-0.004 0v-5.333h-10v2.349c-0.569-0.137-1.252-0.246-1.949-0.305l-0.051-0.003v-8.707c0-1.105-0.895-2-2-2v0zM3.563 20.323c-0.143-0.172-0.23-0.395-0.23-0.638 0-0.309 0.14-0.585 0.36-0.769l0.002-0.001 0.001-0.001 0.001-0.001 0.003-0.002 0.007-0.005 0.017-0.014c0.065-0.052 0.14-0.107 0.217-0.158l0.012-0.008c0.176-0.121 0.383-0.245 0.597-0.358l0.035-0.017c0.68-0.359 1.469-0.642 2.3-0.809l0.056-0.009c2.060-0.413 4.981-0.307 8.615 1.543 3.307 1.682 6.229 1.765 8.317 1.443 0.926-0.143 1.754-0.37 2.541-0.678l-0.081 0.028c0.285-0.111 0.503-0.21 0.645-0.279 0.071-0.035 0.123-0.061 0.155-0.079l0.033-0.017 0.001-0.001h0.001v-0.001h0.001c0.138-0.076 0.302-0.121 0.476-0.121 0.552 0 1 0.448 1 1 0 0.359-0.189 0.674-0.473 0.85l-0.004 0.002-0.001 0.001-0.010 0.006-0.019 0.011c-0.067 0.040-0.16 0.088-0.254 0.134l-0.028 0.012c-0.188 0.091-0.457 0.213-0.799 0.346-0.826 0.328-1.794 0.593-2.798 0.751l-0.078 0.010c-2.433 0.377-5.793 0.265-9.529-1.636-3.248-1.653-5.711-1.687-7.315-1.365-0.811 0.163-1.423 0.42-1.822 0.629-0.206 0.108-0.379 0.216-0.545 0.335l0.013-0.009-0.015 0.011c-0.171 0.14-0.392 0.225-0.632 0.225-0.309 0-0.585-0.14-0.769-0.36l-0.001-0.002zM3.563 26.323c-0.143-0.172-0.23-0.395-0.23-0.638 0-0.309 0.14-0.585 0.36-0.769l0.002-0.001 0.001-0.001 0.001-0.001 0.003-0.003 0.007-0.005 0.017-0.014c0.065-0.052 0.14-0.107 0.217-0.158l0.012-0.008c0.176-0.121 0.383-0.245 0.597-0.358l0.035-0.017c0.68-0.359 1.469-0.642 2.3-0.809l0.056-0.009c2.060-0.413 4.981-0.307 8.615 1.543 3.307 1.682 6.229 1.765 8.317 1.443 0.926-0.143 1.754-0.37 2.541-0.678l-0.081 0.028c0.285-0.111 0.503-0.21 0.645-0.279 0.071-0.035 0.123-0.062 0.155-0.079l0.033-0.017 0.001-0.001h0.001v-0.001h0.001c0.138-0.076 0.302-0.121 0.476-0.121 0.552 0 1 0.448 1 1 0 0.359-0.189 0.674-0.473 0.85l-0.004 0.002-0.001 0.001-0.001 0.001-0.003 0.001-0.007 0.004-0.019 0.011c-0.067 0.040-0.16 0.088-0.254 0.134l-0.028 0.012c-0.188 0.091-0.457 0.213-0.799 0.346-0.826 0.328-1.794 0.593-2.798 0.751l-0.078 0.010c-2.433 0.377-5.793 0.265-9.529-1.636-3.248-1.653-5.711-1.687-7.315-1.365-0.811 0.163-1.423 0.42-1.822 0.629-0.206 0.108-0.379 0.216-0.545 0.335l0.013-0.009-0.015 0.011c-0.171 0.14-0.392 0.225-0.632 0.225-0.309 0-0.585-0.14-0.769-0.36l-0.001-0.002z"></path>
</svg>
