<!-- Generated by IcoMoon.io -->
<svg version="1.1" xmlns="http://www.w3.org/2000/svg" width="32" height="32" viewBox="0 0 32 32">
<title>swipe-down-filled</title>
<path d="M16 8c0.736 0 1.333 0.597 1.333 1.333v15.447l1.724-1.723c0.481-0.481 1.237-0.518 1.76-0.111l0.126 0.111c0.481 0.481 0.518 1.237 0.111 1.76l-0.111 0.126-4 4c-0.481 0.481-1.237 0.518-1.76 0.111l-0.126-0.111-4-4c-0.521-0.521-0.521-1.365 0-1.886 0.481-0.481 1.237-0.518 1.76-0.111l0.126 0.111 1.724 1.723v-15.447c0-0.736 0.597-1.333 1.333-1.333zM16 2.667c3.682 0 6.667 2.985 6.667 6.667 0 2.733-1.645 5.083-3.999 6.112l0.001-2.282c1.208-0.843 1.999-2.244 1.999-3.829 0-2.577-2.089-4.667-4.667-4.667s-4.667 2.089-4.667 4.667c0 1.586 0.791 2.987 2 3.83l0.001 2.282c-2.355-1.029-4.001-3.378-4.001-6.112 0-3.682 2.985-6.667 6.667-6.667z"></path>
</svg>
