<!-- Generated by IcoMoon.io -->
<svg version="1.1" xmlns="http://www.w3.org/2000/svg" width="32" height="32" viewBox="0 0 32 32">
<title>symbols-filled</title>
<path d="M22.557 24c0.552 0 1 0.448 1 1 0 0.504-0.373 0.921-0.858 0.99l-0.005 0.001-0.136 0.009h-1.381c0.735 0.821 1.799 1.335 2.982 1.335 1.357 0 2.556-0.676 3.278-1.709l0.009-0.013c0.183-0.261 0.483-0.429 0.821-0.429 0.552 0 1 0.448 1 1 0 0.214-0.067 0.411-0.181 0.574l0.002-0.003c-1.097 1.567-2.893 2.579-4.925 2.579-0.002 0-0.004 0-0.006 0h0c-0.001 0-0.003 0-0.004 0-1.507 0-2.883-0.556-3.936-1.474l0.007 0.006v0.468c-0 0.552-0.448 1-1 1-0.504 0-0.921-0.373-0.99-0.858l-0.001-0.005-0.009-0.136v-3.333c0-0.505 0.374-0.922 0.86-0.99l0.005-0.001 0.135-0.009h3.333zM8.531 17.343l0.136-0.009c0.504 0 0.921 0.373 0.99 0.859l0.001 0.005 0.009 0.136v4h4c0.504 0 0.921 0.373 0.99 0.859l0.001 0.005 0.009 0.136c-0 0.504-0.373 0.921-0.859 0.99l-0.005 0.001-0.136 0.009h-4v4c-0 0.504-0.373 0.921-0.859 0.99l-0.005 0.001-0.136 0.009c-0.504-0-0.921-0.373-0.99-0.859l-0.001-0.005-0.009-0.136v-4h-4c-0.504-0-0.921-0.373-0.99-0.859l-0.001-0.005-0.009-0.136c0-0.504 0.373-0.921 0.859-0.99l0.005-0.001 0.136-0.009h4v-4c0-0.504 0.373-0.921 0.859-0.99l0.005-0.001zM23.333 17.333c1.484 0 2.868 0.544 3.933 1.468v-0.468c0-0.552 0.448-1 1-1 0.504 0 0.921 0.373 0.99 0.858l0.001 0.005 0.009 0.136v3.333c-0 0.504-0.373 0.921-0.859 0.99l-0.005 0.001-0.136 0.009h-3.333c-0.552-0-1-0.448-1-1 0-0.504 0.373-0.921 0.858-0.99l0.005-0.001 0.136-0.009h1.383c-0.735-0.821-1.799-1.336-2.983-1.336-1.357 0-2.556 0.676-3.279 1.71l-0.009 0.013c-0.181 0.275-0.488 0.453-0.837 0.453-0.552 0-1-0.448-1-1 0-0.224 0.074-0.431 0.198-0.597l-0.002 0.003c1.097-1.567 2.893-2.579 4.925-2.579 0.001 0 0.003 0 0.004 0h-0zM8.667 2.667c3.314 0 6 2.686 6 6s-2.686 6-6 6v0c-3.314 0-6-2.686-6-6s2.686-6 6-6v0zM25.619 2.667c2.069 0 3.715 1.853 3.715 4.105 0 1.149-0.431 2.228-1.136 2.952l-3.336 4.188c-0.367 0.462-0.929 0.755-1.559 0.755-0.634 0-1.198-0.297-1.562-0.759l-0.003-0.004-3.568-4.536c-0.522-0.711-0.836-1.603-0.836-2.569 0-0.009 0-0.019 0-0.028v0.001c0-2.252 1.645-4.105 3.715-4.105 0.752 0 1.467 0.248 2.067 0.693l0.219 0.175 0.22-0.175c0.599-0.445 1.313-0.693 2.067-0.693zM5.219 6.636c-0.348 0.581-0.554 1.282-0.554 2.032 0 2.209 1.791 4 4 4 0.749 0 1.45-0.206 2.050-0.565l-0.018 0.010-5.475-5.477zM8.667 4.667c-0.741 0-1.435 0.201-2.031 0.553l5.477 5.477c0.348-0.581 0.554-1.282 0.554-2.031 0-2.209-1.791-4-4-4-0 0-0 0-0 0h0z"></path>
</svg>
