<!-- Generated by IcoMoon.io -->
<svg version="1.1" xmlns="http://www.w3.org/2000/svg" width="32" height="32" viewBox="0 0 32 32">
<title>syringe-filled</title>
<path d="M22.3 2.96c0.181-0.181 0.431-0.292 0.707-0.292s0.526 0.112 0.707 0.292v0l5.333 5.333c0.166 0.178 0.268 0.418 0.268 0.682 0 0.552-0.448 1-1 1-0.264 0-0.504-0.102-0.682-0.269l0.001 0.001-0.627-0.627-2.26 2.253 3.293 3.293c0.188 0.182 0.305 0.437 0.305 0.719 0 0.552-0.448 1-1 1-0.282 0-0.538-0.117-0.719-0.305l-1.96-1.96-9.121 9.123c-0.905 0.904-2.154 1.464-3.535 1.464h-3.261l-4.373 4.373c-0.18 0.174-0.425 0.281-0.695 0.281-0.552 0-1-0.448-1-1 0-0.27 0.107-0.515 0.281-0.695l4.373-4.373v-3.263c0-0 0-0.001 0-0.001 0-1.38 0.559-2.63 1.464-3.535v0l0.456-0.455 2.040 2.040c0.18 0.174 0.425 0.281 0.695 0.281 0.552 0 1-0.448 1-1 0-0.27-0.107-0.515-0.281-0.695l-2.041-2.040 1.253-1.253 2.040 2.040c0.183 0.196 0.443 0.318 0.732 0.318 0.552 0 1-0.448 1-1 0-0.289-0.122-0.549-0.318-0.731l-0.001-0.001-2.040-2.040 1.253-1.253 2.040 2.040c0.183 0.196 0.443 0.318 0.732 0.318 0.552 0 1-0.448 1-1 0-0.289-0.122-0.549-0.318-0.731l-0.001-0.001-2.040-2.040 1.92-1.92-1.96-1.96c-0.166-0.178-0.268-0.418-0.268-0.682 0-0.552 0.448-1 1-1 0.264 0 0.504 0.102 0.682 0.269l-0.001-0.001 3.293 3.293 2.259-2.253-0.627-0.627c-0.181-0.181-0.292-0.431-0.292-0.707s0.112-0.526 0.292-0.707v0zM25.592 7.667l-1.253-1.253-2.257 2.253 1.252 1.253 2.259-2.253z"></path>
</svg>
