<!-- Generated by IcoMoon.io -->
<svg version="1.1" xmlns="http://www.w3.org/2000/svg" width="32" height="32" viewBox="0 0 32 32">
<title>system-filled</title>
<path d="M6.595 6.667h18.811c2.165 0 3.928 1.739 3.928 3.893v10.88c0 2.155-1.763 3.893-3.928 3.893h-18.811c-2.165 0-3.928-1.739-3.928-3.893v-10.88c0-2.155 1.763-3.893 3.928-3.893zM6.595 9.333c-0.005-0-0.011-0-0.017-0-0.681 0-1.234 0.547-1.244 1.226v10.881c0 0.673 0.56 1.227 1.261 1.227h18.811c0.005 0 0.011 0 0.017 0 0.681 0 1.234-0.547 1.244-1.226v-10.881c0-0.673-0.56-1.227-1.261-1.227h-18.811z"></path>
</svg>
