<!-- Generated by IcoMoon.io -->
<svg version="1.1" xmlns="http://www.w3.org/2000/svg" width="32" height="32" viewBox="0 0 32 32">
<title>tab-shield-dismiss-filled</title>
<path d="M4 8c0-2.209 1.791-4 4-4h16c2.209 0 4 1.791 4 4v6.317c-0.892-0.327-1.748-0.893-2.583-1.73-0.027-0.027-0.055-0.053-0.083-0.079v-4.508c0-0.736-0.597-1.333-1.333-1.333h-16c-0.736 0-1.333 0.597-1.333 1.333v16c0 0.736 0.597 1.333 1.333 1.333h8.974c0.282 0.595 0.627 1.155 1.037 1.678 0.274 0.351 0.574 0.68 0.898 0.989h-10.909c-2.209 0-4-1.791-4-4v-16z"></path>
<path d="M30 16c-2.041 0-3.874-0.815-5.527-2.471-0.26-0.261-0.683-0.261-0.943-0.001-1.657 1.657-3.491 2.471-5.53 2.471-0.368 0-0.667 0.299-0.667 0.667v4.002l0.006 0.386c0.129 4.080 2.312 6.865 6.45 8.244 0.137 0.046 0.285 0.046 0.422 0 4.267-1.422 6.456-4.34 6.456-8.631v-4.002l-0.011-0.12c-0.056-0.311-0.329-0.547-0.656-0.547zM21.195 18.529l0.092-0.077 0.102-0.058c0.211-0.096 0.462-0.077 0.657 0.058l0.092 0.077 1.862 1.862 1.862-1.862 0.092-0.077c0.227-0.157 0.531-0.157 0.758 0l0.092 0.077 0.077 0.092c0.157 0.227 0.157 0.531 0 0.758l-0.077 0.092-1.862 1.862 1.862 1.862 0.077 0.092c0.157 0.227 0.157 0.531 0 0.758l-0.077 0.092-0.092 0.077c-0.227 0.157-0.531 0.157-0.758 0l-0.092-0.077-1.862-1.862-1.862 1.862-0.092 0.077c-0.227 0.157-0.531 0.157-0.758 0l-0.092-0.077-0.077-0.092c-0.157-0.227-0.157-0.531 0-0.758l0.077-0.092 1.862-1.862-1.862-1.862-0.077-0.092c-0.157-0.227-0.157-0.531 0-0.758l0.077-0.092z"></path>
</svg>
