<!-- Generated by IcoMoon.io -->
<svg version="1.1" xmlns="http://www.w3.org/2000/svg" width="32" height="32" viewBox="0 0 32 32">
<title>tab-arrow-left-filled</title>
<path d="M4 8c0-2.209 1.791-4 4-4h16c2.209 0 4 1.791 4 4v8.029c-0.807-0.517-1.706-0.904-2.667-1.131v-6.899c0-0.736-0.597-1.333-1.333-1.333h-16c-0.736 0-1.333 0.597-1.333 1.333v16c0 0.736 0.597 1.333 1.333 1.333h6.899c0.227 0.961 0.614 1.859 1.131 2.667h-8.029c-2.209 0-4-1.791-4-4v-16z"></path>
<path d="M30.667 23.333c0 4.050-3.283 7.333-7.333 7.333s-7.333-3.283-7.333-7.333c0-4.050 3.283-7.333 7.333-7.333s7.333 3.283 7.333 7.333zM23.138 20.471c0.26-0.26 0.26-0.683 0-0.943s-0.683-0.26-0.943 0l-3.333 3.333c-0.26 0.26-0.26 0.683 0 0.943l3.333 3.333c0.26 0.26 0.683 0.26 0.943 0s0.26-0.683 0-0.943l-2.195-2.195h6.391c0.368 0 0.667-0.299 0.667-0.667s-0.299-0.667-0.667-0.667h-6.391l2.195-2.195z"></path>
</svg>
