<!-- Generated by IcoMoon.io -->
<svg version="1.1" xmlns="http://www.w3.org/2000/svg" width="32" height="32" viewBox="0 0 32 32">
<title>tab-desktop-arrow-clockwise-filled</title>
<path d="M7.667 4c-2.025 0-3.667 1.642-3.667 3.667v0 7.135c1.691-1.729 4.048-2.801 6.655-2.801 0.004 0 0.008 0 0.012 0h-0.001c1.311 0 2.56 0.271 3.691 0.759 0.419-0.662 1.148-1.096 1.977-1.096 1.288 0 2.332 1.044 2.332 2.332 0 0.002 0 0.004 0 0.005v-0 2.523c0.837 1.368 1.333 3.024 1.333 4.796 0 0.005 0 0.011 0 0.016v-0.001c0 0.003 0 0.007 0 0.011 0 2.607-1.072 4.964-2.8 6.654l-0.002 0.002h7.135c2.025 0 3.667-1.642 3.667-3.667v0-13.667h-10.333c-1.657 0-3-1.343-3-3v0-3.667h-7zM16.667 4v3.667c0 0.552 0.448 1 1 1h10.333v-1c0-2.025-1.642-3.667-3.667-3.667v0h-7.667zM17.333 17.667c0 0.552-0.448 1-1 1v0h-3.667c-0.552 0-1-0.448-1-1s0.448-1 1-1v0h1.773c-1.017-0.83-2.33-1.333-3.761-1.333-0.004 0-0.009 0-0.013 0h0.001c-3.314 0-6 2.686-6 6s2.686 6 6 6c3.314 0 6-2.686 6-6v0c0-0.552 0.448-1 1-1s1 0.448 1 1v0c-0 4.418-3.582 7.999-8 7.999s-8-3.582-8-8 3.582-8 8-8c1.752 0 3.372 0.563 4.69 1.518l-0.023-0.016v-0.835c0-0.001 0-0.003 0-0.004 0-0.55 0.446-0.996 0.996-0.996 0.001 0 0.003 0 0.004 0h-0c0.552 0 1 0.448 1 1v0 3.667z"></path>
</svg>
