<!-- Generated by IcoMoon.io -->
<svg version="1.1" xmlns="http://www.w3.org/2000/svg" width="32" height="32" viewBox="0 0 32 32">
<title>tab-inprivate-account-filled</title>
<path d="M3.81 8c0-2.209 1.791-4 4-4h16c2.209 0 4 1.791 4 4v5.601c-0.968-0.988-2.317-1.601-3.81-1.601-2.945 0-5.333 2.388-5.333 5.333 0 1.593 0.698 3.023 1.806 4h-0.556c-1.223 0-2.208 0.593-2.839 1.274-0.62 0.67-1.078 1.613-1.078 2.652v0.512c0 0.801 0.176 1.549 0.495 2.229h-8.685c-2.209 0-4-1.791-4-4v-16z"></path>
<path d="M24 13.333c-2.209 0-4 1.791-4 4s1.791 4 4 4c1.185 0 2.249-0.515 2.981-1.333h-2.981v-1.333h3.772c0.147-0.417 0.228-0.866 0.228-1.333h-4v-1.333h3.772c-0.176-0.497-0.447-0.949-0.791-1.333h-2.981v-1.333z"></path>
<path d="M18.056 23.513c0.435-0.47 1.085-0.846 1.86-0.846h8.167c0.775 0 1.425 0.376 1.86 0.846 0.137 0.147 0.259 0.311 0.363 0.487h-6.306v1.333h6.667v0.437c0 0.304-0.037 0.604-0.108 0.896h-6.559v1.333h5.96c-0.336 0.497-0.785 0.949-1.33 1.333h-4.63v1.333c-3.945 0-6.667-2.281-6.667-4.896v-0.512c0-0.648 0.291-1.279 0.723-1.746z"></path>
</svg>
