<!-- Generated by IcoMoon.io -->
<svg version="1.1" xmlns="http://www.w3.org/2000/svg" width="32" height="32" viewBox="0 0 32 32">
<title>tab-inprivate-account-filled</title>
<path d="M7.667 4c-2.025 0-3.667 1.642-3.667 3.667v0 16.667c0 2.025 1.642 3.667 3.667 3.667v0h8.828c-0.312-0.649-0.495-1.41-0.495-2.215 0-0.005 0-0.010 0-0.015v0.001-0.437h-8.333c-0.552 0-1-0.448-1-1v0-16.667c0-0.552 0.448-1 1-1v0h16.667c0.552 0 1 0.448 1 1v0 4.501c1.068 0.282 1.976 0.856 2.662 1.632l0.005 0.006v-6.139c0-2.025-1.642-3.667-3.667-3.667v0h-16.667zM20 17.333c0-2.209 1.791-4 4-4v0 1.333h2.981c0.344 0.385 0.616 0.836 0.791 1.333h-3.772v1.333h4c0 0.467-0.080 0.916-0.227 1.333h-3.773v1.333h2.981c-0.736 0.82-1.799 1.333-2.981 1.333-2.209 0-4-1.791-4-4v0zM19.916 22.667c-0.773 0-1.424 0.376-1.86 0.847-0.432 0.467-0.723 1.097-0.723 1.745v0.512c0 2.615 2.721 4.896 6.667 4.896v-1.333h4.631c0.524-0.366 0.965-0.808 1.318-1.316l0.011-0.017h-5.96v-1.333h6.559c0.068-0.269 0.108-0.578 0.108-0.896v-0.438h-6.667v-1.333h6.307c-0.11-0.184-0.229-0.343-0.364-0.488l0.002 0.002c-0.436-0.471-1.085-0.847-1.86-0.847h-8.167z"></path>
</svg>
