<!-- Generated by IcoMoon.io -->
<svg version="1.1" xmlns="http://www.w3.org/2000/svg" width="32" height="32" viewBox="0 0 32 32">
<title>tab-desktop-arrow-left-filled</title>
<path d="M8.794 4.8c-2.209 0-4 1.791-4 4v0 6.563c1.166-0.609 2.546-0.967 4.010-0.967 4.86 0 8.8 3.94 8.8 8.8 0 1.461-0.356 2.839-0.986 4.052l0.023-0.049h6.554c2.209 0 4-1.791 4-4v0-12h-12c-1.325 0-2.4-1.075-2.4-2.4v0-4h-4zM14.394 4.8v4c0 0.442 0.358 0.8 0.8 0.8v0h12v-0.8c0-2.209-1.791-4-4-4v0h-8.8zM16 23.2c0 3.976-3.224 7.2-7.2 7.2s-7.2-3.224-7.2-7.2v0c0-3.976 3.224-7.2 7.2-7.2s7.2 3.224 7.2 7.2v0zM5.035 22.634l-0.005 0.005c-0.142 0.143-0.229 0.34-0.23 0.557v0.010c0.001 0.219 0.090 0.417 0.234 0.56l3.2 3.2c0.145 0.145 0.345 0.235 0.566 0.235 0.442 0 0.8-0.358 0.8-0.8 0-0.221-0.089-0.421-0.234-0.566v0l-1.835-1.834h4.469c0.442 0 0.8-0.358 0.8-0.8s-0.358-0.8-0.8-0.8v0h-4.469l1.835-1.834c0.145-0.145 0.235-0.345 0.235-0.566 0-0.442-0.359-0.801-0.801-0.801-0.221 0-0.421 0.090-0.566 0.235v0l-3.2 3.2z"></path>
</svg>
