<!-- Generated by IcoMoon.io -->
<svg version="1.1" xmlns="http://www.w3.org/2000/svg" width="32" height="32" viewBox="0 0 32 32">
<title>tab-prohibited-filled</title>
<path d="M4 7.667c0-2.025 1.642-3.667 3.667-3.667v0h16.667c2.025 0 3.667 1.642 3.667 3.667v0 8.363c-0.765-0.498-1.656-0.887-2.608-1.119l-0.059-0.012v-7.232c0-0.552-0.448-1-1-1v0h-16.667c-0.552 0-1 0.448-1 1v0 16.667c0 0.552 0.448 1 1 1h7.232c0.227 0.96 0.613 1.86 1.131 2.667h-8.363c-2.025 0-3.667-1.642-3.667-3.667v0-16.667zM30.667 23.333c0 4.050-3.283 7.333-7.333 7.333s-7.333-3.283-7.333-7.333v0c0-4.050 3.283-7.333 7.333-7.333s7.333 3.283 7.333 7.333v0zM18 23.333c0 1.112 0.34 2.144 0.921 2.997l7.409-7.409c-0.84-0.577-1.878-0.922-2.997-0.922-2.946 0-5.333 2.388-5.333 5.333 0 0 0 0 0 0.001v-0zM23.333 28.667c0 0 0 0 0.001 0 2.946 0 5.333-2.388 5.333-5.333 0-1.119-0.345-2.158-0.934-3.015l0.012 0.018-7.409 7.409c0.837 0.577 1.872 0.921 2.988 0.921 0.003 0 0.006 0 0.010 0h-0z"></path>
</svg>
