<!-- Generated by IcoMoon.io -->
<svg version="1.1" xmlns="http://www.w3.org/2000/svg" width="32" height="32" viewBox="0 0 32 32">
<title>tab-desktop-arrow-clockwise-filled</title>
<path d="M7.667 4c-2.025 0-3.667 1.642-3.667 3.667v7.135c1.694-1.729 4.055-2.801 6.667-2.801 1.311 0 2.559 0.27 3.691 0.758 0.413-0.656 1.143-1.092 1.976-1.092 1.289 0 2.333 1.045 2.333 2.333v2.523c0.846 1.405 1.333 3.051 1.333 4.81 0 2.612-1.073 4.973-2.801 6.667h7.135c2.025 0 3.667-1.642 3.667-3.667v-13.667h-10.333c-1.657 0-3-1.343-3-3v-3.667h-7z"></path>
<path d="M16.667 4v3.667c0 0.552 0.448 1 1 1h10.333v-1c0-2.025-1.642-3.667-3.667-3.667h-7.667z"></path>
<path d="M17.333 17.667c0 0.552-0.448 1-1 1h-3.667c-0.552 0-1-0.448-1-1s0.448-1 1-1h1.772c-0.008-0.006-0.015-0.012-0.023-0.018-1.027-0.824-2.33-1.316-3.749-1.316-3.314 0-6 2.686-6 6s2.686 6 6 6c3.314 0 6-2.686 6-6 0-0.552 0.448-1 1-1s1 0.448 1 1c0 4.418-3.582 8-8 8s-8-3.582-8-8c0-4.418 3.582-8 8-8 1.74 0 3.353 0.557 4.667 1.501v-0.835c0-0.235 0.081-0.451 0.217-0.622 0.183-0.23 0.466-0.378 0.783-0.378 0.552 0 1 0.448 1 1v3.667z"></path>
</svg>
