<!-- Generated by IcoMoon.io -->
<svg version="1.1" xmlns="http://www.w3.org/2000/svg" width="32" height="32" viewBox="0 0 32 32">
<title>tab-desktop-new-page-filled</title>
<path d="M4.8 8.8c0-2.209 1.791-4 4-4v0h4v4c0 1.325 1.075 2.4 2.4 2.4v0h12v12c0 2.209-1.791 4-4 4v0h-14.4c-2.209 0-4-1.791-4-4v0-14.4zM12.8 17.6c0-0.884-0.716-1.6-1.6-1.6s-1.6 0.716-1.6 1.6v0c0 0.884 0.716 1.6 1.6 1.6s1.6-0.716 1.6-1.6v0zM16 19.2c0.884 0 1.6-0.716 1.6-1.6s-0.716-1.6-1.6-1.6v0c-0.884 0-1.6 0.716-1.6 1.6s0.716 1.6 1.6 1.6v0zM22.4 17.6c0-0.884-0.716-1.6-1.6-1.6s-1.6 0.716-1.6 1.6v0c0 0.884 0.716 1.6 1.6 1.6s1.6-0.716 1.6-1.6v0zM27.2 9.6v-0.8c0-2.209-1.791-4-4-4v0h-8.8v4c0 0.442 0.358 0.8 0.8 0.8v0h12z"></path>
</svg>
