<!-- Generated by IcoMoon.io -->
<svg version="1.1" xmlns="http://www.w3.org/2000/svg" width="32" height="32" viewBox="0 0 32 32">
<title>tab-shield-dismiss-filled</title>
<path d="M4 7.667c0-2.025 1.642-3.667 3.667-3.667v0h16.667c2.025 0 3.667 1.642 3.667 3.667v0 6.651c-0.892-0.328-1.748-0.893-2.584-1.731-0.027-0.027-0.053-0.053-0.083-0.079v-4.841c0-0.552-0.448-1-1-1v0h-16.667c-0.552 0-1 0.448-1 1v0 16.667c0 0.552 0.448 1 1 1h9.307c0.498 1.037 1.148 1.92 1.932 2.663l0.004 0.004h-11.243c-2.025 0-3.667-1.642-3.667-3.667v0-16.667zM24.473 13.529c1.653 1.656 3.485 2.471 5.527 2.471 0 0 0 0 0 0 0.326 0 0.597 0.234 0.655 0.543l0.001 0.004 0.011 0.12v4.001c0 4.292-2.188 7.208-6.456 8.631-0.063 0.022-0.135 0.034-0.211 0.034s-0.148-0.013-0.215-0.036l0.005 0.001c-4.139-1.379-6.321-4.164-6.449-8.244l-0.007-0.387v-4.001c0-0.368 0.298-0.667 0.667-0.667v0c2.040 0 3.872-0.815 5.529-2.472 0.121-0.121 0.288-0.196 0.472-0.196s0.351 0.075 0.472 0.196v0zM21.287 18.452l-0.092 0.076-0.076 0.093c-0.074 0.106-0.118 0.237-0.118 0.379s0.044 0.273 0.119 0.381l-0.001-0.002 0.076 0.093 1.863 1.861-1.863 1.861-0.076 0.093c-0.074 0.106-0.118 0.237-0.118 0.379s0.044 0.273 0.119 0.381l-0.001-0.002 0.076 0.093 0.093 0.076c0.106 0.074 0.237 0.118 0.379 0.118s0.273-0.044 0.381-0.119l-0.002 0.001 0.093-0.076 1.861-1.863 1.861 1.863 0.093 0.076c0.106 0.074 0.237 0.118 0.379 0.118s0.273-0.044 0.381-0.119l-0.002 0.001 0.093-0.076 0.076-0.093c0.074-0.106 0.118-0.237 0.118-0.379s-0.044-0.273-0.119-0.381l0.001 0.002-0.076-0.093-1.863-1.861 1.863-1.861 0.076-0.093c0.074-0.106 0.118-0.237 0.118-0.379s-0.044-0.273-0.119-0.381l0.001 0.002-0.076-0.093-0.093-0.076c-0.106-0.074-0.237-0.118-0.379-0.118s-0.273 0.044-0.381 0.119l0.002-0.001-0.093 0.076-1.861 1.863-1.861-1.863-0.093-0.076c-0.106-0.074-0.238-0.119-0.38-0.119-0.1 0-0.195 0.022-0.28 0.062l0.004-0.002-0.101 0.059z"></path>
</svg>
