<!-- Generated by IcoMoon.io -->
<svg version="1.1" xmlns="http://www.w3.org/2000/svg" width="32" height="32" viewBox="0 0 32 32">
<title>tab-desktop-multiple-bottom-filled</title>
<path d="M8.013 6.667h2.011c0.169-1.137 1.138-2 2.309-2h10.667c2.393 0 4.333 1.94 4.333 4.333v0 10.667c-0 1.171-0.863 2.141-1.987 2.308l-0.013 0.002v2.012c2.245-0.178 4-2.045 4-4.32 0-0 0-0.001 0-0.001v0-10.667c0-3.498-2.836-6.333-6.333-6.333v0h-10.667c-2.276 0-4.142 1.755-4.319 3.985l-0.001 0.015zM2.667 12.333c0-2.393 1.94-4.333 4.333-4.333v0h12.667c2.393 0 4.333 1.94 4.333 4.333v0 12.667c0 2.393-1.94 4.333-4.333 4.333v0h-4.333v-4.333c0-1.657-1.343-3-3-3v0h-9.667v-9.667zM2.667 24v1c0 2.393 1.94 4.333 4.333 4.333v0h6.333v-4.333c0-0.552-0.448-1-1-1v0h-9.667z"></path>
</svg>
