<!-- Generated by IcoMoon.io -->
<svg version="1.1" xmlns="http://www.w3.org/2000/svg" width="32" height="32" viewBox="0 0 32 32">
<title>tab-in-private-filled</title>
<path d="M8 4c-2.209 0-4 1.791-4 4v16c0 2.209 1.791 4 4 4h16c2.209 0 4-1.791 4-4v-16c0-2.209-1.791-4-4-4h-16zM6.667 8c0-0.736 0.597-1.333 1.333-1.333h1.633l-2.966 3.535v-2.202zM6.667 12.276l4.707-5.609h3.581l-8.288 9.877v-4.268zM16.695 6.667h3.581l-13.61 16.22v-4.268l10.029-11.952zM22.017 6.667h1.983c0.46 0 0.866 0.233 1.106 0.588l-15.17 18.079h-1.936c-0.474 0-0.89-0.247-1.126-0.619l15.144-18.047zM25.333 9.058v4.268l-10.075 12.008h-3.582l13.657-16.276zM25.333 15.4v4.268l-4.753 5.665h-3.581l8.335-9.933zM25.333 21.743v2.257c0 0.736-0.597 1.333-1.333 1.333h-1.68l3.013-3.591z"></path>
</svg>
