<!-- Generated by IcoMoon.io -->
<svg version="1.1" xmlns="http://www.w3.org/2000/svg" width="32" height="32" viewBox="0 0 32 32">
<title>tab-desktop-image-filled</title>
<path d="M7.667 4c-2.025 0-3.667 1.642-3.667 3.667v6.243c0.697-0.368 1.491-0.577 2.333-0.577h7.333c2.761 0 5 2.239 5 5v7.333c0 0.843-0.209 1.637-0.577 2.333h6.243c2.025 0 3.667-1.642 3.667-3.667v-13.667h-10.333c-1.657 0-3-1.343-3-3v-3.667h-7z"></path>
<path d="M16.667 4v3.667c0 0.552 0.448 1 1 1h10.333v-1c0-2.025-1.642-3.667-3.667-3.667h-7.667z"></path>
<path d="M14 19.333c0 0.736-0.597 1.333-1.333 1.333s-1.333-0.597-1.333-1.333c0-0.736 0.597-1.333 1.333-1.333s1.333 0.597 1.333 1.333z"></path>
<path d="M7 14.667c-2.393 0-4.333 1.94-4.333 4.333v6c0 2.393 1.94 4.333 4.333 4.333h6c2.393 0 4.333-1.94 4.333-4.333v-6c0-2.393-1.94-4.333-4.333-4.333h-6zM4.667 19c0-1.289 1.045-2.333 2.333-2.333h6c1.289 0 2.333 1.045 2.333 2.333v6c0 0.275-0.048 0.539-0.135 0.784l-3.077-3.077c-1.172-1.171-3.071-1.171-4.243 0l-3.077 3.077c-0.087-0.245-0.135-0.509-0.135-0.784v-6zM6.216 27.198l3.077-3.077c0.391-0.391 1.024-0.391 1.414 0l3.077 3.077c-0.245 0.087-0.509 0.135-0.784 0.135h-6c-0.275 0-0.539-0.048-0.784-0.135z"></path>
</svg>
