<!-- Generated by IcoMoon.io -->
<svg version="1.1" xmlns="http://www.w3.org/2000/svg" width="32" height="32" viewBox="0 0 32 32">
<title>tab-prohibited-filled</title>
<path d="M7.81 4c-2.209 0-4 1.791-4 4v16c0 2.209 1.791 4 4 4h8.219c-0.517-0.807-0.904-1.706-1.131-2.667h-7.089c-0.736 0-1.333-0.597-1.333-1.333v-16c0-0.736 0.597-1.333 1.333-1.333h16c0.736 0 1.333 0.597 1.333 1.333v6.856c0.957 0.203 1.855 0.564 2.667 1.055v-7.911c0-2.209-1.791-4-4-4h-16z"></path>
<path d="M23.333 30.667c4.050 0 7.333-3.283 7.333-7.333s-3.283-7.333-7.333-7.333c-4.050 0-7.333 3.283-7.333 7.333s3.283 7.333 7.333 7.333zM18.921 26.331c-0.581-0.854-0.921-1.886-0.921-2.998 0-2.945 2.388-5.333 5.333-5.333 1.111 0 2.143 0.34 2.998 0.921l-7.409 7.409zM20.336 27.745l7.409-7.409c0.581 0.854 0.921 1.886 0.921 2.998 0 2.945-2.388 5.333-5.333 5.333-1.111 0-2.143-0.34-2.998-0.921z"></path>
</svg>
