<!-- Generated by IcoMoon.io -->
<svg version="1.1" xmlns="http://www.w3.org/2000/svg" width="32" height="32" viewBox="0 0 32 32">
<title>tab-in-private-filled</title>
<path d="M7.143 3.429h17.714c2.051 0 3.714 1.663 3.714 3.714v0 17.714c0 2.051-1.663 3.714-3.714 3.714v0h-17.714c-2.051 0-3.714-1.663-3.714-3.714v0-17.714c0-2.051 1.663-3.714 3.714-3.714v0zM5.714 7.143v0.787l2.216-2.216h-0.787c-0.789 0-1.429 0.64-1.429 1.429zM5.714 10.354v3.29l7.93-7.93h-3.291l-4.639 4.64zM16.069 5.714l-10.354 10.354v3.29l13.645-13.645h-3.291zM21.783 5.714l-16.069 16.069v3.074c0 0.069 0.005 0.136 0.014 0.201l19.33-19.33c-0.060-0.009-0.128-0.014-0.198-0.014-0.001 0-0.002 0-0.003 0h-3.074zM26.272 6.939l-19.333 19.333c0.066 0.009 0.135 0.014 0.203 0.014h3.073l16.070-16.070v-3.073c0-0.069-0.005-0.137-0.014-0.203zM26.286 12.64l-13.646 13.646h3.29l10.355-10.355v-3.291zM26.286 18.354l-7.931 7.931h3.29l4.641-4.641v-3.291zM26.286 24.069l-2.217 2.217h0.789c0.789 0 1.429-0.64 1.429-1.429v-0.789z"></path>
</svg>
