<!-- Generated by IcoMoon.io -->
<svg version="1.1" xmlns="http://www.w3.org/2000/svg" width="32" height="32" viewBox="0 0 32 32">
<title>tab-filled</title>
<path d="M3.429 7.143c0-2.051 1.663-3.714 3.714-3.714v0h17.714c2.051 0 3.714 1.663 3.714 3.714v0 17.714c0 2.051-1.663 3.714-3.714 3.714v0h-17.714c-2.051 0-3.714-1.663-3.714-3.714v0-17.714zM7.143 5.714c-0.789 0-1.429 0.64-1.429 1.429v17.714c0 0.789 0.64 1.429 1.429 1.429h17.714c0.789 0 1.429-0.64 1.429-1.429v-17.714c0-0.789-0.64-1.429-1.429-1.429h-17.714z"></path>
</svg>
