<!-- Generated by IcoMoon.io -->
<svg version="1.1" xmlns="http://www.w3.org/2000/svg" width="32" height="32" viewBox="0 0 32 32">
<title>table-resize-column-filled</title>
<path d="M7.714 28.571c-2.367 0-4.286-1.919-4.286-4.286v0-16.571c0-2.367 1.919-4.286 4.286-4.286v0h0.857v9.882l-1.209 1.36c-0.314 0.352-0.506 0.818-0.506 1.329s0.192 0.978 0.507 1.331l-0.002-0.002 1.209 1.36v9.882h-0.857zM10.286 28.571v-8.192c0.251 0.122 0.547 0.194 0.859 0.194 1.105 0 2-0.895 2-2 0-0.204-0.031-0.402-0.088-0.587l0.004 0.014h5.88c-0.053 0.171-0.084 0.368-0.084 0.573 0 1.105 0.895 2 2 2 0.312 0 0.606-0.071 0.869-0.198l-0.012 0.005v8.192h-11.429zM19.528 11.934c0.352-0.314 0.818-0.506 1.33-0.506 0.311 0 0.606 0.071 0.869 0.198l-0.012-0.005v-8.192h-11.429v8.192c0.251-0.122 0.547-0.194 0.859-0.194 1.105 0 2 0.895 2 2 0 0.204-0.031 0.402-0.088 0.587l0.004-0.014h5.88c-0.053-0.171-0.083-0.368-0.083-0.572 0-0.593 0.258-1.127 0.669-1.493l0.002-0.002zM24.638 17.328l-1.209 1.36v9.883h0.857c2.367 0 4.286-1.919 4.286-4.286v0-16.571c0-2.367-1.919-4.286-4.286-4.286v0h-0.857v9.882l1.206 1.357c0.316 0.352 0.509 0.819 0.509 1.332 0 0.496-0.181 0.95-0.481 1.299l0.002-0.003-0.007 0.010-0.021 0.023zM10.766 15.143h10.469l-1.017-1.145c-0.121-0.147-0.194-0.337-0.194-0.544 0-0.473 0.384-0.857 0.857-0.857 0.242 0 0.461 0.101 0.617 0.262l0 0 2.283 2.568c0.136 0.151 0.22 0.352 0.22 0.572 0 0.213-0.078 0.407-0.206 0.557l0.001-0.001-0.011 0.014-2.286 2.571c-0.158 0.177-0.387 0.288-0.641 0.288-0.473 0-0.857-0.384-0.857-0.857 0-0.219 0.082-0.419 0.217-0.57l1.016-1.144h-10.467l1.017 1.145c0.121 0.147 0.194 0.337 0.194 0.544 0 0.473-0.384 0.857-0.857 0.857-0.242 0-0.461-0.101-0.617-0.262l-0-0-2.286-2.571c-0.134-0.151-0.216-0.35-0.216-0.569s0.082-0.419 0.217-0.57l2.285-2.571c0.156-0.162 0.375-0.262 0.617-0.262 0.473 0 0.857 0.384 0.857 0.857 0 0.207-0.073 0.397-0.196 0.545l0.001-0.001-1.017 1.145zM25.143 15.923v0.16z"></path>
</svg>
