<!-- Generated by IcoMoon.io -->
<svg version="1.1" xmlns="http://www.w3.org/2000/svg" width="32" height="32" viewBox="0 0 32 32">
<title>table-switch-filled</title>
<path d="M11.707 1.626c-0.391-0.391-1.024-0.391-1.414 0s-0.391 1.024 0 1.414l0.96 0.96h-2.919c-2.393 0-4.333 1.94-4.333 4.333v2.919l-0.96-0.96c-0.391-0.391-1.024-0.391-1.414 0s-0.391 1.024 0 1.414l2.667 2.667c0.391 0.391 1.024 0.391 1.414 0l2.667-2.667c0.391-0.391 0.391-1.024 0-1.414s-1.024-0.391-1.414 0l-0.96 0.96v-2.919c0-1.289 1.045-2.333 2.333-2.333h2.919l-0.96 0.96c-0.391 0.391-0.391 1.024 0 1.414s1.024 0.391 1.414 0l2.667-2.667c0.391-0.391 0.391-1.024 0-1.414l-2.667-2.667z"></path>
<path d="M19.333 10.667h-6.664v-1.37l2.647-2.647c0.717-0.717 0.87-1.784 0.459-2.65h3.558v6.667z"></path>
<path d="M4 15.776v3.558h6.667v-6.667h-1.367l-2.65 2.65c-0.717 0.717-1.784 0.87-2.65 0.459z"></path>
<path d="M19.333 19.333v-6.667h-6.667v6.667h6.667z"></path>
<path d="M21.333 19.333v-6.667h6.667v6.667h-6.667z"></path>
<path d="M21.333 10.667h6.667v-2.333c0-2.393-1.94-4.333-4.333-4.333h-2.333v6.667z"></path>
<path d="M19.333 28v-6.667h-6.667v6.667h6.667z"></path>
<path d="M10.667 21.333h-6.667v2.333c0 2.393 1.94 4.333 4.333 4.333h2.333v-6.667z"></path>
<path d="M21.333 21.333h6.667v2.333c0 2.393-1.94 4.333-4.333 4.333h-2.333v-6.667z"></path>
</svg>
