<!-- Generated by IcoMoon.io -->
<svg version="1.1" xmlns="http://www.w3.org/2000/svg" width="32" height="32" viewBox="0 0 32 32">
<title>table-freeze-column-and-row-filled</title>
<path d="M8.333 4c-2.393 0-4.333 1.94-4.333 4.333v15.333c0 2.393 1.94 4.333 4.333 4.333h11v-6.667h-6.667v4.667h-4.333c-1.289 0-2.333-1.045-2.333-2.333v-15.333c0-1.289 1.045-2.333 2.333-2.333h15.333c1.289 0 2.333 1.045 2.333 2.333v4.333h-4.667v6.667h6.667v-11c0-2.393-1.94-4.333-4.333-4.333h-15.333z"></path>
<path d="M21.333 21.333v6.667h2.333c2.393 0 4.333-1.94 4.333-4.333v-2.333h-6.667z"></path>
<path d="M19.333 19.333v-6.667h-6.667v6.667h6.667z"></path>
</svg>
