<!-- Generated by IcoMoon.io -->
<svg version="1.1" xmlns="http://www.w3.org/2000/svg" width="32" height="32" viewBox="0 0 32 32">
<title>table-edit-filled</title>
<path d="M3.429 7.714c0-2.367 1.919-4.286 4.286-4.286v0h3.143v7.429h-7.429v-3.143zM3.429 12.571v6.857h7.429v-6.857h-7.429zM3.429 21.143v3.143c0 2.367 1.919 4.286 4.286 4.286v0h3.143v-7.429h-7.429zM12.571 28.571h2.475l0.407-1.626c0.185-0.741 0.568-1.417 1.109-1.957l2.866-2.867v-0.978h-6.857v7.429zM28.571 12.571v2.299c-0.098-0.009-0.212-0.014-0.327-0.014-1.036 0-1.974 0.42-2.652 1.1l-3.472 3.472h-0.978v-6.857h7.429zM28.571 10.857v-3.143c0-2.367-1.919-4.286-4.286-4.286v0h-3.143v7.429h7.429zM19.429 3.429h-6.857v7.429h6.857v-7.429zM19.429 12.571v6.857h-6.857v-6.857h6.857zM26.4 16.766l-9.032 9.031c-0.382 0.382-0.664 0.864-0.802 1.404l-0.005 0.021-0.523 2.093c-0.024 0.090-0.037 0.194-0.037 0.301 0 0.686 0.556 1.242 1.242 1.242 0.107 0 0.212-0.014 0.311-0.039l-0.009 0.002 2.091-0.522c0.561-0.143 1.044-0.425 1.426-0.808l9.031-9.031c0.456-0.47 0.737-1.111 0.737-1.819 0-1.443-1.17-2.613-2.613-2.613-0.707 0-1.348 0.281-1.819 0.737l0.001-0.001z"></path>
</svg>
