<!-- Generated by IcoMoon.io -->
<svg version="1.1" xmlns="http://www.w3.org/2000/svg" width="32" height="32" viewBox="0 0 32 32">
<title>table-settings-filled</title>
<path d="M12.667 28h3.362c-0.862-1.347-1.362-2.949-1.362-4.667 0-0.688 0.080-1.358 0.232-2h-2.232v6.667zM28 12.667v3.362c-1.347-0.862-2.949-1.362-4.667-1.362-0.688 0-1.358 0.080-2 0.232v-2.232h6.667zM19.333 12.667v2.976c-1.577 0.822-2.869 2.114-3.69 3.69h-2.976v-6.667h6.667zM28 10.667v-2.333c0-2.393-1.94-4.333-4.333-4.333h-2.333v6.667h6.667zM19.333 4h-6.667v6.667h6.667v-6.667zM10.667 4h-2.333c-2.393 0-4.333 1.94-4.333 4.333v2.333h6.667v-6.667zM4 12.667v6.667h6.667v-6.667h-6.667zM4 21.333v2.333c0 2.393 1.94 4.333 4.333 4.333h2.333v-6.667h-6.667zM19.038 18.634c0.42 1.454-0.453 2.965-1.922 3.328l-0.779 0.193c-0.060 0.384-0.091 0.777-0.091 1.178 0 0.42 0.034 0.831 0.099 1.231l0.719 0.173c1.483 0.357 2.365 1.884 1.933 3.347l-0.248 0.842c0.585 0.514 1.253 0.932 1.979 1.229l0.658-0.692c1.051-1.106 2.815-1.105 3.865 0.001l0.665 0.7c0.725-0.294 1.391-0.707 1.977-1.217l-0.264-0.915c-0.42-1.454 0.453-2.965 1.922-3.328l0.778-0.193c0.060-0.384 0.091-0.777 0.091-1.178 0-0.42-0.034-0.831-0.099-1.231l-0.719-0.173c-1.483-0.357-2.365-1.884-1.933-3.347l0.248-0.841c-0.585-0.514-1.253-0.932-1.979-1.229l-0.657 0.691c-1.051 1.106-2.814 1.105-3.865-0.001l-0.665-0.7c-0.725 0.294-1.391 0.707-1.977 1.217l0.264 0.915zM23.333 25.333c-1.067 0-1.933-0.895-1.933-2s0.865-2 1.933-2c1.068 0 1.933 0.895 1.933 2s-0.865 2-1.933 2z"></path>
</svg>
