<!-- Generated by IcoMoon.io -->
<svg version="1.1" xmlns="http://www.w3.org/2000/svg" width="32" height="32" viewBox="0 0 32 32">
<title>table-image-filled</title>
<path d="M26.4 14.4c0.272 0 0.539 0.019 0.8 0.056v-1.656h-6.4v1.6h5.6zM14.4 26.4v-5.6h-1.6v6.4h1.656c-0.036-0.238-0.056-0.514-0.056-0.793 0-0.002 0-0.005 0-0.007v0zM14.456 19.2c0.365-2.459 2.285-4.379 4.713-4.74l0.031-0.004v-1.656h-6.4v6.4h1.656zM11.2 19.2v-6.4h-6.4v6.4h6.4zM4.8 20.8h6.4v6.4h-2.4c-2.209 0-4-1.791-4-4v0-2.4zM20.8 11.2h6.4v-2.4c0-2.209-1.791-4-4-4v0h-2.4v6.4zM19.2 4.8v6.4h-6.4v-6.4h6.4zM11.2 4.8v6.4h-6.4v-2.4c0-2.209 1.791-4 4-4v0h2.4zM16 20c0-2.209 1.791-4 4-4v0h6.4c2.209 0 4 1.791 4 4v0 6.4c0 0.816-0.243 1.573-0.662 2.206l-4.84-4.84c-0.434-0.435-1.035-0.704-1.698-0.704s-1.263 0.269-1.698 0.703l-4.84 4.84c-0.415-0.619-0.662-1.38-0.662-2.199 0-0.003 0-0.005 0-0.008v0-6.4zM27.2 20.4c0-0.663-0.537-1.2-1.2-1.2s-1.2 0.537-1.2 1.2v0c0 0.663 0.537 1.2 1.2 1.2s1.2-0.537 1.2-1.2v0zM17.794 29.738c0.634 0.419 1.392 0.662 2.206 0.662h6.4c0.816 0 1.573-0.243 2.206-0.662l-4.84-4.84c-0.145-0.145-0.345-0.235-0.566-0.235s-0.422 0.090-0.566 0.235l-4.84 4.84z"></path>
</svg>
