<!-- Generated by IcoMoon.io -->
<svg version="1.1" xmlns="http://www.w3.org/2000/svg" width="32" height="32" viewBox="0 0 32 32">
<title>table-insert-column-filled</title>
<path d="M5.143 4.286c0-0.473-0.384-0.857-0.857-0.857s-0.857 0.384-0.857 0.857v0 23.429c0 0.473 0.384 0.857 0.857 0.857s0.857-0.384 0.857-0.857v0-23.429zM28.571 4.286c0-0.473-0.384-0.857-0.857-0.857s-0.857 0.384-0.857 0.857v0 23.429c0 0.473 0.384 0.857 0.857 0.857s0.857-0.384 0.857-0.857v0-23.429zM13.429 3.429c-1.736 0-3.143 1.407-3.143 3.143v0 4.286h11.429v-4.286c0-1.736-1.407-3.143-3.143-3.143v0h-5.143zM10.286 19.429v-6.857h11.429v6.857h-11.429zM10.286 21.143h11.429v4.286c0 1.736-1.407 3.143-3.143 3.143v0h-5.143c-1.736 0-3.143-1.407-3.143-3.143v0-4.286z"></path>
</svg>
