<!-- Generated by IcoMoon.io -->
<svg version="1.1" xmlns="http://www.w3.org/2000/svg" width="32" height="32" viewBox="0 0 32 32">
<title>table-move-left-filled</title>
<path d="M21.333 28h2.333c2.393 0 4.333-1.94 4.333-4.333v-2.333h-6.667v6.667z"></path>
<path d="M21.333 19.333h6.667v-6.667h-6.667v6.667z"></path>
<path d="M13.976 12.667h5.357v6.667h-5.357c0.048-0.333 0.024-0.674-0.073-1h1.097c1.289 0 2.333-1.045 2.333-2.333s-1.045-2.333-2.333-2.333h-1.097c0.097-0.326 0.121-0.667 0.073-1z"></path>
<path d="M21.333 10.667h6.667v-2.333c0-2.393-1.94-4.333-4.333-4.333h-2.333v6.667z"></path>
<path d="M19.333 4v6.667h-6.667v-5.667c0-0.265 0.105-0.52 0.293-0.707s0.442-0.293 0.707-0.293h5.667z"></path>
<path d="M19.333 21.333v6.667h-5.667c-0.552 0-1-0.448-1-1v-5.667h6.667z"></path>
<path d="M6 5c0-0.552-0.448-1-1-1s-1 0.448-1 1v22c0 0.552 0.448 1 1 1s1-0.448 1-1v-22z"></path>
<path d="M12.331 12.253c0.413 0.367 0.45 0.999 0.083 1.412l-1.187 1.336h3.773c0.552 0 1 0.448 1 1s-0.448 1-1 1h-3.773l1.187 1.336c0.367 0.413 0.33 1.045-0.083 1.412s-1.045 0.33-1.412-0.083l-2.667-3c-0.337-0.379-0.337-0.95 0-1.329l2.667-3c0.367-0.413 0.999-0.45 1.412-0.083z"></path>
</svg>
