<!-- Generated by IcoMoon.io -->
<svg version="1.1" xmlns="http://www.w3.org/2000/svg" width="32" height="32" viewBox="0 0 32 32">
<title>table-resize-row-filled</title>
<path d="M3.429 7.714c0-2.367 1.919-4.286 4.286-4.286v0h16.571c2.367 0 4.286 1.919 4.286 4.286v0 0.857h-9.882l-1.36-1.209c-0.352-0.314-0.818-0.506-1.329-0.506s-0.978 0.192-1.331 0.507l0.002-0.002-1.36 1.209h-9.882v-0.857zM3.429 10.286h8.192c-0.122 0.251-0.194 0.547-0.194 0.859 0 1.105 0.895 2 2 2 0.204 0 0.402-0.031 0.587-0.088l-0.014 0.004v5.88c-0.171-0.053-0.368-0.084-0.573-0.084-1.105 0-2 0.895-2 2 0 0.312 0.071 0.606 0.198 0.869l-0.005-0.012h-8.192v-11.429zM20.066 19.528c0.314 0.352 0.506 0.818 0.506 1.33 0 0.311-0.071 0.606-0.198 0.869l0.005-0.012h8.192v-11.429h-8.192c0.122 0.251 0.194 0.547 0.194 0.859 0 1.105-0.895 2-2 2-0.204 0-0.402-0.031-0.587-0.088l0.014 0.004v5.88c0.171-0.053 0.368-0.083 0.572-0.083 0.593 0 1.127 0.258 1.493 0.669l0.002 0.002zM14.672 24.638l-1.36-1.209h-9.883v0.857c0 2.367 1.919 4.286 4.286 4.286v0h16.571c2.367 0 4.286-1.919 4.286-4.286v0-0.857h-9.882l-1.357 1.206c-0.352 0.316-0.819 0.509-1.332 0.509-0.496 0-0.95-0.181-1.299-0.481l0.003 0.002-0.010-0.007-0.023-0.021zM16.857 10.766v10.469l1.145-1.017c0.147-0.121 0.337-0.194 0.544-0.194 0.473 0 0.857 0.384 0.857 0.857 0 0.242-0.101 0.461-0.262 0.617l-0 0-2.568 2.283c-0.151 0.136-0.352 0.22-0.572 0.22-0.213 0-0.407-0.078-0.557-0.206l0.001 0.001-0.014-0.011-2.571-2.286c-0.177-0.158-0.288-0.387-0.288-0.641 0-0.473 0.384-0.857 0.857-0.857 0.219 0 0.418 0.082 0.57 0.217l1.144 1.016v-10.467l-1.145 1.017c-0.147 0.121-0.337 0.194-0.544 0.194-0.473 0-0.857-0.384-0.857-0.857 0-0.242 0.101-0.461 0.262-0.617l0-0 2.571-2.286c0.151-0.134 0.35-0.216 0.569-0.216s0.419 0.082 0.57 0.217l2.571 2.285c0.162 0.156 0.262 0.375 0.262 0.617 0 0.473-0.384 0.857-0.857 0.857-0.207 0-0.397-0.073-0.545-0.196l0.001 0.001-1.145-1.017zM16.077 25.143h-0.16z"></path>
</svg>
