<!-- Generated by IcoMoon.io -->
<svg version="1.1" xmlns="http://www.w3.org/2000/svg" width="32" height="32" viewBox="0 0 32 32">
<title>table-stack-above-filled</title>
<path d="M27.714 5.143c0.473 0 0.857-0.384 0.857-0.857s-0.384-0.857-0.857-0.857v0h-23.429c-0.473 0-0.857 0.384-0.857 0.857s0.384 0.857 0.857 0.857v0h23.429zM3.429 19.429v-5.714c0-0.631 0.512-1.143 1.143-1.143v0h6.286v6.857h-7.429zM3.429 24.286v-3.143h7.429v7.429h-3.143c-2.367 0-4.286-1.919-4.286-4.286v0zM19.429 28.571h-6.857v-7.429h6.857v7.429zM24.286 28.571h-3.143v-7.429h7.429v3.143c0 2.367-1.919 4.286-4.286 4.286v0zM27.429 12.571c0.631 0 1.143 0.512 1.143 1.143v0 5.714h-7.429v-6.857h6.286zM12.571 19.429h6.857v-6.857h-6.857v6.857z"></path>
</svg>
