<!-- Generated by IcoMoon.io -->
<svg version="1.1" xmlns="http://www.w3.org/2000/svg" width="32" height="32" viewBox="0 0 32 32">
<title>table-stack-above-filled</title>
<path d="M27 6c0.552 0 1-0.448 1-1s-0.448-1-1-1h-22c-0.552 0-1 0.448-1 1s0.448 1 1 1h22z"></path>
<path d="M19.333 12.667v6.667h-6.667v-6.667h6.667z"></path>
<path d="M12.667 21.333h6.667v6.667h-6.667v-6.667z"></path>
<path d="M10.667 12.667v6.667h-6.667v-5.667c0-0.552 0.448-1 1-1h5.667z"></path>
<path d="M10.667 21.333h-6.667v2.333c0 2.393 1.94 4.333 4.333 4.333h2.333v-6.667z"></path>
<path d="M28 21.333h-6.667v6.667h2.333c2.393 0 4.333-1.94 4.333-4.333v-2.333z"></path>
<path d="M21.333 19.333h6.667v-5.667c0-0.265-0.105-0.52-0.293-0.707s-0.442-0.293-0.707-0.293h-5.667v6.667z"></path>
</svg>
