<!-- Generated by IcoMoon.io -->
<svg version="1.1" xmlns="http://www.w3.org/2000/svg" width="32" height="32" viewBox="0 0 32 32">
<title>table-resize-column-filled</title>
<path d="M23.667 4c2.393 0 4.333 1.94 4.333 4.333v15.333c0 2.393-1.94 4.333-4.333 4.333h-0.333v-8.863l1.411-1.587c0.786-0.884 0.786-2.216 0-3.1l-1.411-1.587v-8.863h0.333z"></path>
<path d="M18.783 20.744c-0.699-0.622-0.937-1.569-0.687-2.411h-4.193c0.25 0.841 0.013 1.789-0.687 2.411-0.721 0.641-1.73 0.753-2.55 0.365v6.891h10.667v-6.891c-0.821 0.389-1.829 0.276-2.55-0.365z"></path>
<path d="M18.783 11.256c0.721-0.641 1.73-0.754 2.55-0.365v-6.891h-10.667v6.891c0.821-0.389 1.829-0.276 2.55 0.365 0.699 0.622 0.937 1.569 0.687 2.411h4.193c-0.25-0.841-0.013-1.789 0.687-2.411z"></path>
<path d="M8.667 12.863v-8.863h-0.333c-2.393 0-4.333 1.94-4.333 4.333v15.333c0 2.393 1.94 4.333 4.333 4.333h0.333v-8.863l-1.411-1.587c-0.786-0.884-0.786-2.216 0-3.1l1.411-1.587z"></path>
<path d="M20.773 15h-9.546l1.187-1.336c0.367-0.413 0.33-1.045-0.083-1.412s-1.045-0.33-1.412 0.083l-2.667 3c-0.337 0.379-0.337 0.95 0 1.329l2.667 3c0.367 0.413 0.999 0.45 1.412 0.083s0.45-0.999 0.083-1.412l-1.187-1.336h9.546l-1.187 1.336c-0.367 0.413-0.33 1.045 0.083 1.412s1.045 0.33 1.412-0.083l2.667-3c0.005-0.005 0.009-0.011 0.014-0.016 0.14-0.165 0.228-0.375 0.238-0.606 0.001-0.027 0.001-0.054 0-0.081-0.009-0.241-0.104-0.461-0.255-0.629l-2.664-2.997c-0.367-0.413-0.999-0.45-1.412-0.083s-0.45 0.999-0.083 1.412l1.187 1.336z"></path>
</svg>
