<!-- Generated by IcoMoon.io -->
<svg version="1.1" xmlns="http://www.w3.org/2000/svg" width="32" height="32" viewBox="0 0 32 32">
<title>table-move-below-filled</title>
<path d="M12.667 12.667v5.357c0.333-0.048 0.674-0.024 1 0.073v-1.097c0-1.289 1.045-2.333 2.333-2.333s2.333 1.045 2.333 2.333v1.097c0.326-0.097 0.667-0.121 1-0.073v-5.357h-6.667z"></path>
<path d="M10.667 12.667v6.667h-5.667c-0.265 0-0.52-0.105-0.707-0.293s-0.293-0.442-0.293-0.707v-5.667h6.667z"></path>
<path d="M12.667 10.667h6.667v-6.667h-6.667v6.667z"></path>
<path d="M21.333 12.667v6.667h5.667c0.552 0 1-0.448 1-1v-5.667h-6.667z"></path>
<path d="M28 10.667h-6.667v-6.667h2.333c2.393 0 4.333 1.94 4.333 4.333v2.333z"></path>
<path d="M10.667 10.667h-6.667v-2.333c0-2.393 1.94-4.333 4.333-4.333h2.333v6.667z"></path>
<path d="M5 26c-0.552 0-1 0.448-1 1s0.448 1 1 1h22c0.552 0 1-0.448 1-1s-0.448-1-1-1h-22z"></path>
<path d="M12.253 19.669c0.367-0.413 0.999-0.45 1.412-0.083l1.336 1.187v-3.773c0-0.552 0.448-1 1-1s1 0.448 1 1v3.773l1.336-1.187c0.413-0.367 1.045-0.33 1.412 0.083s0.33 1.045-0.083 1.412l-3 2.667c-0.379 0.337-0.95 0.337-1.329 0l-3-2.667c-0.413-0.367-0.45-0.999-0.083-1.412z"></path>
</svg>
