<!-- Generated by IcoMoon.io -->
<svg version="1.1" xmlns="http://www.w3.org/2000/svg" width="32" height="32" viewBox="0 0 32 32">
<title>table-add-filled</title>
<path d="M12.667 28h3.362c-0.862-1.347-1.362-2.949-1.362-4.667 0-0.688 0.080-1.358 0.232-2h-2.232v6.667z"></path>
<path d="M28 12.667v3.362c-1.347-0.862-2.949-1.362-4.667-1.362-0.688 0-1.358 0.080-2 0.232v-2.232h6.667z"></path>
<path d="M19.333 12.667v2.976c-1.577 0.822-2.869 2.114-3.69 3.69h-2.976v-6.667h6.667z"></path>
<path d="M28 10.667v-2.333c0-2.393-1.94-4.333-4.333-4.333h-2.333v6.667h6.667z"></path>
<path d="M19.333 4h-6.667v6.667h6.667v-6.667z"></path>
<path d="M10.667 4h-2.333c-2.393 0-4.333 1.94-4.333 4.333v2.333h6.667v-6.667z"></path>
<path d="M4 12.667v6.667h6.667v-6.667h-6.667z"></path>
<path d="M4 21.333v2.333c0 2.393 1.94 4.333 4.333 4.333h2.333v-6.667h-6.667z"></path>
<path d="M30.667 23.333c0-4.050-3.283-7.333-7.333-7.333s-7.333 3.283-7.333 7.333c0 4.050 3.283 7.333 7.333 7.333s7.333-3.283 7.333-7.333zM24.001 24l0.001 3.338c0 0.368-0.298 0.667-0.667 0.667s-0.667-0.298-0.667-0.667l-0.001-3.338h-3.339c-0.368 0-0.667-0.298-0.667-0.667s0.299-0.667 0.667-0.667h3.339l-0.001-3.334c0-0.368 0.299-0.667 0.667-0.667s0.667 0.299 0.667 0.667l0.001 3.334h3.337c0.368 0 0.667 0.299 0.667 0.667s-0.298 0.667-0.667 0.667h-3.337z"></path>
</svg>
