<!-- Generated by IcoMoon.io -->
<svg version="1.1" xmlns="http://www.w3.org/2000/svg" width="32" height="32" viewBox="0 0 32 32">
<title>table-link-filled</title>
<path d="M3.429 7.714c0-2.367 1.919-4.286 4.286-4.286v0h3.143v7.429h-7.429v-3.143zM3.429 12.571v6.857h7.429v-6.857h-7.429zM3.429 21.143v3.143c0 2.367 1.919 4.286 4.286 4.286v0h3.143v-7.429h-7.429zM12.571 28.571h2.933c-0.408-0.744-0.648-1.63-0.648-2.572 0-2.114 1.208-3.945 2.972-4.842l0.031-0.014h-5.287v7.429zM28.571 19.429v-6.857h-7.429v6.857h7.429zM28.571 10.857v-3.143c0-2.367-1.919-4.286-4.286-4.286v0h-3.143v7.429h7.429zM19.429 3.429h-6.857v7.429h6.857v-7.429zM19.429 12.571v6.857h-6.857v-6.857h6.857zM20.286 23.429c-1.42 0-2.571 1.151-2.571 2.571s1.151 2.571 2.571 2.571v0h0.571c0.473 0 0.857 0.384 0.857 0.857s-0.384 0.857-0.857 0.857v0h-0.571c-2.367 0-4.286-1.919-4.286-4.286s1.919-4.286 4.286-4.286v0h0.571c0.473 0 0.857 0.384 0.857 0.857s-0.384 0.857-0.857 0.857v0h-0.571zM19.429 26c0-0.473 0.384-0.857 0.857-0.857v0h6.286c0.473 0 0.857 0.384 0.857 0.857s-0.384 0.857-0.857 0.857v0h-6.286c-0.473 0-0.857-0.384-0.857-0.857v0zM26.571 28.571c1.42 0 2.571-1.151 2.571-2.571s-1.151-2.571-2.571-2.571v0h-0.571c-0.473 0-0.857-0.384-0.857-0.857s0.384-0.857 0.857-0.857v0h0.571c2.367 0 4.286 1.919 4.286 4.286s-1.919 4.286-4.286 4.286v0h-0.571c-0.473 0-0.857-0.384-0.857-0.857s0.384-0.857 0.857-0.857v0h0.571z"></path>
</svg>
