<!-- Generated by IcoMoon.io -->
<svg version="1.1" xmlns="http://www.w3.org/2000/svg" width="32" height="32" viewBox="0 0 32 32">
<title>table-cell-edit-filled</title>
<path d="M7 8.667c-1.657 0-3 1.343-3 3v6c0 1.657 1.343 3 3 3h3.667v-12h-3.667zM16.651 19.82c-0.258 0.258-0.485 0.542-0.678 0.847h-3.307v-12h6.667v8.471l-2.682 2.682zM27.62 10.667c0.070 0 0.141 0.002 0.211 0.005-0.41-1.168-1.523-2.005-2.831-2.005h-3.667v6.471l3.188-3.188c0.855-0.855 1.978-1.283 3.096-1.283h0.003zM27.62 12h-0.003c-0.779 0-1.559 0.298-2.154 0.893l-7.87 7.87c-0.459 0.459-0.784 1.034-0.942 1.663l-0.61 2.441c-0.265 1.061 0.696 2.023 1.758 1.758l2.441-0.61c0.63-0.157 1.205-0.483 1.663-0.942l7.87-7.87c1.19-1.19 1.19-3.12 0-4.31-0.595-0.595-1.374-0.892-2.153-0.893z"></path>
</svg>
