<!-- Generated by IcoMoon.io -->
<svg version="1.1" xmlns="http://www.w3.org/2000/svg" width="32" height="32" viewBox="0 0 32 32">
<title>table-stack-right-filled</title>
<path d="M26.857 27.714c0 0.473 0.384 0.857 0.857 0.857s0.857-0.384 0.857-0.857v0-23.429c0-0.473-0.384-0.857-0.857-0.857s-0.857 0.384-0.857 0.857v0 23.429zM12.571 3.429h5.714c0.631 0 1.143 0.512 1.143 1.143v0 6.286h-6.857v-7.429zM7.714 3.429h3.143v7.429h-7.429v-3.143c0-2.367 1.919-4.286 4.286-4.286v0zM3.429 19.429v-6.857h7.429v6.857h-7.429zM3.429 24.286v-3.143h7.429v7.429h-3.143c-2.367 0-4.286-1.919-4.286-4.286v0zM19.429 27.429c0 0.631-0.512 1.143-1.143 1.143v0h-5.714v-7.429h6.857v6.286zM12.571 12.571v6.857h6.857v-6.857h-6.857z"></path>
</svg>
