<!-- Generated by IcoMoon.io -->
<svg version="1.1" xmlns="http://www.w3.org/2000/svg" width="32" height="32" viewBox="0 0 32 32">
<title>table-simple-checkmark-filled</title>
<path d="M8 4h7.167v11.167h-11.167v-7.167c0-2.209 1.791-4 4-4v0zM4 16.833h11.167v11.167h-7.167c-2.209 0-4-1.791-4-4v0-7.167zM16.833 16.833v11.167h7.167c2.209 0 4-1.791 4-4v0-7.167h-11.167zM16.833 4v11.167h11.167v-7.167c0-2.209-1.791-4-4-4v0h-7.167zM25.587 21.089l-3.667 3.667c-0.151 0.151-0.359 0.244-0.589 0.244s-0.439-0.093-0.589-0.244l-1.831-1.831c-0.151-0.151-0.244-0.359-0.244-0.589 0-0.46 0.373-0.833 0.833-0.833 0.23 0 0.439 0.093 0.589 0.244v0l1.241 1.241 3.077-3.077c0.151-0.151 0.359-0.244 0.589-0.244 0.46 0 0.833 0.373 0.833 0.833 0 0.23-0.093 0.439-0.244 0.589v0z"></path>
</svg>
