<!-- Generated by IcoMoon.io -->
<svg version="1.1" xmlns="http://www.w3.org/2000/svg" width="32" height="32" viewBox="0 0 32 32">
<title>table-lightning-filled</title>
<path d="M12.667 28h3.362c-0.862-1.347-1.362-2.949-1.362-4.667 0-0.688 0.080-1.358 0.232-2h-2.232v6.667zM28 12.667v3.362c-1.347-0.862-2.949-1.362-4.667-1.362-0.688 0-1.358 0.080-2 0.232v-2.232h6.667zM19.333 12.667v2.976c-1.577 0.822-2.869 2.114-3.69 3.69h-2.976v-6.667h6.667zM28 10.667v-2.333c0-2.393-1.94-4.333-4.333-4.333h-2.333v6.667h6.667zM19.333 4h-6.667v6.667h6.667v-6.667zM10.667 4h-2.333c-2.393 0-4.333 1.94-4.333 4.333v2.333h6.667v-6.667zM4 12.667v6.667h6.667v-6.667h-6.667zM4 21.333v2.333c0 2.393 1.94 4.333 4.333 4.333h2.333v-6.667h-6.667zM30.667 23.333c0 4.050-3.283 7.333-7.333 7.333s-7.333-3.283-7.333-7.333c0-4.050 3.283-7.333 7.333-7.333s7.333 3.283 7.333 7.333zM24.705 18.667h-1.909c-0.278 0-0.527 0.172-0.624 0.433l-1.5 4c-0.163 0.436 0.159 0.901 0.624 0.901h1.038l-1.030 3.091c-0.149 0.447 0.184 0.909 0.655 0.909 0.234 0 0.452-0.118 0.579-0.314l3.5-5.385c0.271-0.417-0.028-0.968-0.525-0.968h-0.846l0.662-1.766c0.163-0.436-0.159-0.901-0.624-0.901z"></path>
</svg>
