<!-- Generated by IcoMoon.io -->
<svg version="1.1" xmlns="http://www.w3.org/2000/svg" width="32" height="32" viewBox="0 0 32 32">
<title>table-freeze-row-filled</title>
<path d="M8.333 4c-2.393 0-4.333 1.94-4.333 4.333v11h6.667v-6.667h-4.667v-4.333c0-1.289 1.045-2.333 2.333-2.333h15.333c1.289 0 2.333 1.045 2.333 2.333v4.333h-4.667v6.667h6.667v-11c0-2.393-1.94-4.333-4.333-4.333h-15.333z"></path>
<path d="M28 21.333h-6.667v6.667h2.333c2.393 0 4.333-1.94 4.333-4.333v-2.333z"></path>
<path d="M19.333 19.333v-6.667h-6.667v6.667h6.667z"></path>
<path d="M12.667 21.333h6.667v6.667h-6.667v-6.667z"></path>
<path d="M10.667 21.333h-6.667v2.333c0 2.393 1.94 4.333 4.333 4.333h2.333v-6.667z"></path>
</svg>
