<!-- Generated by IcoMoon.io -->
<svg version="1.1" xmlns="http://www.w3.org/2000/svg" width="32" height="32" viewBox="0 0 32 32">
<title>table-cell-edit-filled</title>
<path d="M6.571 21.714c-1.736 0-3.143-1.407-3.143-3.143v0-5.143c0-1.736 1.407-3.143 3.143-3.143v0h4.286v11.429h-4.286zM12.571 21.714h3.843c0.050-0.055 0.097-0.105 0.146-0.154l2.867-2.867v-8.407h-6.857v11.429zM25.429 10.286c0.985 0 1.863 0.453 2.44 1.162-0.895 0.092-1.684 0.487-2.275 1.080l-4.45 4.45v-6.693h4.286zM26.4 13.337l-9.032 9.031c-0.382 0.382-0.664 0.864-0.802 1.404l-0.005 0.021-0.523 2.093c-0.024 0.090-0.037 0.194-0.037 0.301 0 0.686 0.556 1.242 1.242 1.242 0.107 0 0.212-0.014 0.311-0.039l-0.009 0.002 2.091-0.522c0.561-0.143 1.044-0.425 1.426-0.808l9.031-9.031c0.447-0.468 0.722-1.104 0.722-1.803 0-1.443-1.17-2.613-2.613-2.613-0.7 0-1.335 0.275-1.804 0.723l0.001-0.001z"></path>
</svg>
