<!-- Generated by IcoMoon.io -->
<svg version="1.1" xmlns="http://www.w3.org/2000/svg" width="32" height="32" viewBox="0 0 32 32">
<title>table-cells-merge-filled</title>
<path d="M7.714 3.429c-2.367 0-4.286 1.919-4.286 4.286v0 0.857h25.143v-0.857c0-2.367-1.919-4.286-4.286-4.286v0h-16.571zM28.571 10.286h-25.143v11.429h25.143v-11.429zM21.234 15.143l-1.017-1.145c-0.121-0.147-0.194-0.337-0.194-0.544 0-0.473 0.384-0.857 0.857-0.857 0.242 0 0.461 0.101 0.617 0.262l0 0 2.283 2.568c0.136 0.151 0.22 0.352 0.22 0.572 0 0.213-0.078 0.407-0.206 0.557l0.001-0.001-0.011 0.014-2.286 2.571c-0.158 0.177-0.387 0.288-0.641 0.288-0.473 0-0.857-0.384-0.857-0.857 0-0.219 0.082-0.419 0.217-0.57l1.016-1.144h-10.467l1.017 1.145c0.121 0.147 0.194 0.337 0.194 0.544 0 0.473-0.384 0.857-0.857 0.857-0.242 0-0.461-0.101-0.617-0.262l-0-0-2.286-2.571c-0.134-0.151-0.216-0.35-0.216-0.569s0.082-0.419 0.217-0.57l2.285-2.571c0.156-0.162 0.375-0.262 0.617-0.262 0.473 0 0.857 0.384 0.857 0.857 0 0.207-0.073 0.397-0.196 0.545l0.001-0.001-1.017 1.145h10.469zM28.571 23.429h-25.143v0.857c0 2.367 1.919 4.286 4.286 4.286v0h16.571c2.367 0 4.286-1.919 4.286-4.286v0-0.857z"></path>
</svg>
