<!-- Generated by IcoMoon.io -->
<svg version="1.1" xmlns="http://www.w3.org/2000/svg" width="32" height="32" viewBox="0 0 32 32">
<title>table-search-filled</title>
<path d="M20.8 27.2h2.4c2.209 0 4-1.791 4-4v0-2.4h-6.4v6.4zM20.8 19.2v-6.4h6.4v6.4h-6.4zM19.2 19.2h-5.21c-0.293-0.815-0.696-1.52-1.201-2.14l0.010 0.013v-4.274h6.4v6.4zM13.698 24.704l2.496 2.496h3.006v-6.4h-4.843c0.029 0.242 0.046 0.523 0.046 0.807 0 1.126-0.259 2.191-0.722 3.139l0.019-0.042zM7.2 14.4c1.48 0 2.856 0.448 4 1.213v-2.813h-6.4v2.010c0.752-0.266 1.558-0.41 2.4-0.41zM20.8 11.2h6.4v-2.4c0-2.209-1.791-4-4-4v0h-2.4v6.4zM19.2 4.8v6.4h-6.4v-6.4h6.4zM11.2 4.8v6.4h-6.4v-2.4c0-2.209 1.791-4 4-4v0h2.4z"></path>
<path d="M7.2 27.2c1.258 0 2.419-0.416 3.354-1.115l4.080 4.080c0.145 0.145 0.345 0.235 0.566 0.235 0.442 0 0.8-0.358 0.8-0.8 0-0.221-0.089-0.421-0.234-0.566v0l-4.080-4.080c0.696-0.923 1.115-2.089 1.115-3.354 0-3.093-2.507-5.6-5.6-5.6s-5.6 2.507-5.6 5.6c0 3.092 2.506 5.599 5.598 5.6h0zM7.2 25.6c-2.209 0-4-1.791-4-4s1.791-4 4-4v0c2.209 0 4 1.791 4 4s-1.791 4-4 4v0z"></path>
</svg>
