<!-- Generated by IcoMoon.io -->
<svg version="1.1" xmlns="http://www.w3.org/2000/svg" width="32" height="32" viewBox="0 0 32 32">
<title>table-freeze-row-filled</title>
<path d="M24.286 5.143c1.42 0 2.571 1.151 2.571 2.571v0 4.857h-5.714v6.857h7.429v-11.714c0-2.367-1.919-4.286-4.286-4.286v0h-16.571c-2.367 0-4.286 1.919-4.286 4.286v0 11.714h7.429v-6.857h-5.714v-4.857c0-1.42 1.151-2.571 2.571-2.571v0h16.571zM3.429 24.286v-3.143h7.429v7.429h-3.143c-2.367 0-4.286-1.919-4.286-4.286v0zM19.429 28.571h-6.857v-7.429h6.857v7.429zM24.286 28.571h-3.143v-7.429h7.429v3.143c0 2.367-1.919 4.286-4.286 4.286v0zM12.571 19.429h6.857v-6.857h-6.857v6.857z"></path>
</svg>
