<!-- Generated by IcoMoon.io -->
<svg version="1.1" xmlns="http://www.w3.org/2000/svg" width="32" height="32" viewBox="0 0 32 32">
<title>table-checker-filled</title>
<path d="M11.2 4.8v6.4h-6.4v-2.4c0-2.209 1.791-4 4-4v0h2.4zM19.2 12.8h-6.4v6.4h6.4v-6.4zM20.8 20.8h6.4v2.4c0 2.209-1.791 4-4 4v0h-2.4v-6.4zM12.8 6.4h10.4c1.325 0 2.4 1.075 2.4 2.4v0 10.4h1.6v-10.4c0-2.209-1.791-4-4-4v0h-10.4v1.6zM8.8 25.6h10.4v1.6h-10.4c-2.209 0-4-1.791-4-4v0-10.4h1.6v10.4c0 1.325 1.075 2.4 2.4 2.4v0z"></path>
</svg>
