<!-- Generated by IcoMoon.io -->
<svg version="1.1" xmlns="http://www.w3.org/2000/svg" width="32" height="32" viewBox="0 0 32 32">
<title>table-lightning-filled</title>
<path d="M7.714 3.429c-2.367 0-4.286 1.919-4.286 4.286v0 3.143h7.429v-7.429h-3.143zM3.429 19.429v-6.857h7.429v6.857h-7.429zM3.429 24.286v-3.143h7.429v7.429h-3.143c-2.367 0-4.286-1.919-4.286-4.286v0zM19.429 28.571h-6.857v-7.429h4.872l-1.277 2.695c-0.104 0.215-0.165 0.467-0.165 0.734 0 0.947 0.767 1.714 1.714 1.714 0 0 0 0 0 0h1.712v2.286zM28.571 14.857v-2.286h-7.429v2.325c0.118-0.025 0.24-0.039 0.363-0.039h7.065zM19.429 16.953v-4.382h-6.857v6.857h5.685l1.173-2.475zM28.571 7.714v3.143h-7.429v-7.429h3.143c2.367 0 4.286 1.919 4.286 4.286v0zM12.571 3.429h6.857v7.429h-6.857v-7.429zM21.505 16h7.232c0 0 0 0 0 0 0.316 0 0.571 0.256 0.571 0.571 0 0.103-0.027 0.199-0.075 0.283l0.001-0.003-2.091 3.72h1.73c0 0 0.001 0 0.001 0 0.473 0 0.857 0.384 0.857 0.857 0 0.215-0.079 0.411-0.209 0.561l0.001-0.001-7.333 8.517c-0.597 0.693-1.713 0.059-1.424-0.808l1.518-4.554h-4.571c-0.315-0.001-0.57-0.256-0.57-0.571 0-0.089 0.020-0.173 0.056-0.248l-0.002 0.003 3.79-8c0.094-0.195 0.29-0.327 0.516-0.327 0 0 0 0 0 0v0z"></path>
</svg>
