<!-- Generated by IcoMoon.io -->
<svg version="1.1" xmlns="http://www.w3.org/2000/svg" width="32" height="32" viewBox="0 0 32 32">
<title>table-delete-row-filled</title>
<path d="M5 2.667h5.667v6.667h-2.333c-2.393 0-4.333-1.94-4.333-4.333v-1.333c0-0.552 0.448-1 1-1z"></path>
<path d="M12.667 2.667h6.667v6.667h-6.667v-6.667z"></path>
<path d="M28 3.667c0-0.552-0.448-1-1-1h-5.667v6.667h2.333c2.393 0 4.333-1.94 4.333-4.333v-1.333z"></path>
<path d="M27 29.333c0.552 0 1-0.448 1-1v-1.333c0-2.393-1.94-4.333-4.333-4.333h-2.333v6.667h5.667z"></path>
<path d="M12.667 29.333h6.667v-6.667h-6.667v6.667z"></path>
<path d="M5 29.333h5.667v-6.667h-2.333c-2.393 0-4.333 1.94-4.333 4.333v1.333c0 0.552 0.448 1 1 1z"></path>
<path d="M20.697 17h7.637c0.552 0 1-0.448 1-1s-0.448-1-1-1h-7.637c-0.031 0.034-0.063 0.068-0.096 0.101l-0.899 0.899 0.899 0.899c0.033 0.033 0.065 0.067 0.096 0.101z"></path>
<path d="M11.637 17c0.031-0.034 0.063-0.068 0.096-0.101l0.899-0.899-0.899-0.899c-0.033-0.033-0.065-0.067-0.096-0.101h-7.97c-0.552 0-1 0.448-1 1s0.448 1 1 1h7.97z"></path>
<path d="M19.374 19.374c-0.391 0.391-1.024 0.391-1.414 0l-1.96-1.959-1.96 1.959c-0.391 0.391-1.024 0.391-1.414 0s-0.391-1.024 0-1.414l1.96-1.96-1.96-1.96c-0.391-0.391-0.391-1.024 0-1.414s1.024-0.391 1.414 0l1.96 1.96 1.96-1.96c0.391-0.391 1.024-0.391 1.414 0s0.391 1.024 0 1.414l-1.959 1.96 1.959 1.96c0.391 0.391 0.391 1.024 0 1.414z"></path>
</svg>
