<!-- Generated by IcoMoon.io -->
<svg version="1.1" xmlns="http://www.w3.org/2000/svg" width="32" height="32" viewBox="0 0 32 32">
<title>table-copy-filled</title>
<path d="M4.8 21.6c0 3.093 2.507 5.6 5.6 5.6v0h12.526c-1.237 1-2.811 1.6-4.526 1.6h-8c-3.976 0-7.2-3.224-7.2-7.2v0-8c0-1.715 0.6-3.29 1.6-4.526v12.528zM24.8 25.6h-2.4v-6.4h6.4v2.4c0 2.209-1.791 4-4 4v0zM22.4 11.2v6.4h6.4v-6.4h-6.4zM14.4 17.6h6.4v-6.4h-6.4v6.4zM20.8 19.2h-6.4v6.4h6.4v-6.4zM12.8 11.2v6.4h-6.4v-6.4h6.4zM12.8 19.2h-6.4v2.4c0 2.209 1.791 4 4 4v0h2.4v-6.4zM28.8 9.6h-6.4v-6.4h2.4c2.209 0 4 1.791 4 4v0 2.4zM20.8 9.6v-6.4h-6.4v6.4h6.4zM12.8 9.6v-6.4h-2.4c-2.209 0-4 1.791-4 4v0 2.4h6.4z"></path>
</svg>
