<!-- Generated by IcoMoon.io -->
<svg version="1.1" xmlns="http://www.w3.org/2000/svg" width="32" height="32" viewBox="0 0 32 32">
<title>table-insert-column-filled</title>
<path d="M6 5v22c0 0.552-0.448 1-1 1s-1-0.448-1-1v-22c0-0.552 0.448-1 1-1s1 0.448 1 1z"></path>
<path d="M21.333 7c0-1.657-1.194-3-2.667-3h-5.333c-1.473 0-2.667 1.343-2.667 3v3.667h10.667v-3.667z"></path>
<path d="M10.667 19.333v-6.667h10.667v6.667h-10.667z"></path>
<path d="M10.667 21.333v3.667c0 1.657 1.194 3 2.667 3h5.333c1.473 0 2.667-1.343 2.667-3v-3.667h-10.667z"></path>
<path d="M28 27v-22c0-0.552-0.448-1-1-1s-1 0.448-1 1v22c0 0.552 0.448 1 1 1s1-0.448 1-1z"></path>
</svg>
