<!-- Generated by IcoMoon.io -->
<svg version="1.1" xmlns="http://www.w3.org/2000/svg" width="32" height="32" viewBox="0 0 32 32">
<title>table-move-right-filled</title>
<path d="M26.857 27.714c0 0.473 0.384 0.857 0.857 0.857s0.857-0.384 0.857-0.857v0-23.429c0-0.473-0.384-0.857-0.857-0.857s-0.857 0.384-0.857 0.857v0 23.429zM12.571 3.429h6.286c0.316 0 0.571 0.256 0.571 0.571v0 6.857h-6.857v-7.429zM7.714 3.429h3.143v7.429h-7.429v-3.143c0-2.367 1.919-4.286 4.286-4.286v0zM3.429 19.429v-6.857h7.429v6.857h-7.429zM3.429 24.286v-3.143h7.429v7.429h-3.143c-2.367 0-4.286-1.919-4.286-4.286v0zM19.429 28c0 0.316-0.256 0.571-0.571 0.571v0h-6.286v-7.429h6.857v6.857zM12.571 12.571v6.857h6.857v-1.429h-1.143c-1.105 0-2-0.895-2-2s0.895-2 2-2v0h1.143v-1.429h-6.857zM21.36 18.002l1.017-1.145h-4.091c-0.473 0-0.857-0.384-0.857-0.857s0.384-0.857 0.857-0.857v0h4.091l-1.017-1.145c-0.121-0.147-0.194-0.337-0.194-0.544 0-0.473 0.384-0.857 0.857-0.857 0.242 0 0.461 0.101 0.617 0.262l0 0 2.286 2.571c0.134 0.151 0.216 0.35 0.216 0.569s-0.082 0.419-0.217 0.57l-2.285 2.571c-0.156 0.162-0.375 0.262-0.617 0.262-0.473 0-0.857-0.384-0.857-0.857 0-0.207 0.073-0.397 0.196-0.545l-0.001 0.001z"></path>
</svg>
