<!-- Generated by IcoMoon.io -->
<svg version="1.1" xmlns="http://www.w3.org/2000/svg" width="32" height="32" viewBox="0 0 32 32">
<title>table-insert-row-filled</title>
<path d="M4.286 26.857c-0.473 0-0.857 0.384-0.857 0.857s0.384 0.857 0.857 0.857v0h23.429c0.473 0 0.857-0.384 0.857-0.857s-0.384-0.857-0.857-0.857v0h-23.429zM4.286 3.429c-0.473 0-0.857 0.384-0.857 0.857s0.384 0.857 0.857 0.857v0h23.429c0.473 0 0.857-0.384 0.857-0.857s-0.384-0.857-0.857-0.857v0h-23.429zM3.429 18.571c0 1.736 1.407 3.143 3.143 3.143v0h4.286v-11.429h-4.286c-1.736 0-3.143 1.407-3.143 3.143v0 5.143zM19.429 21.714h-6.857v-11.429h6.857v11.429zM21.143 21.714v-11.429h4.286c1.736 0 3.143 1.407 3.143 3.143v0 5.143c0 1.736-1.407 3.143-3.143 3.143v0h-4.286z"></path>
</svg>
