<!-- Generated by IcoMoon.io -->
<svg version="1.1" xmlns="http://www.w3.org/2000/svg" width="32" height="32" viewBox="0 0 32 32">
<title>table-move-right-filled</title>
<path d="M10.667 4h-2.333c-2.393 0-4.333 1.94-4.333 4.333v2.333h6.667v-6.667z"></path>
<path d="M10.667 12.667h-6.667v6.667h6.667v-6.667z"></path>
<path d="M12.667 19.333v-6.667h5.357c-0.048 0.333-0.024 0.674 0.073 1h-1.097c-1.289 0-2.333 1.045-2.333 2.333s1.045 2.333 2.333 2.333h1.097c-0.097 0.326-0.121 0.667-0.073 1h-5.357z"></path>
<path d="M10.667 21.333h-6.667v2.333c0 2.393 1.94 4.333 4.333 4.333h2.333v-6.667z"></path>
<path d="M12.667 28v-6.667h6.667v5.667c0 0.265-0.105 0.52-0.293 0.707s-0.442 0.293-0.707 0.293h-5.667z"></path>
<path d="M12.667 10.667v-6.667h5.667c0.552 0 1 0.448 1 1v5.667h-6.667z"></path>
<path d="M26 27c0 0.552 0.448 1 1 1s1-0.448 1-1v-22c0-0.552-0.448-1-1-1s-1 0.448-1 1v22z"></path>
<path d="M19.669 19.747c-0.413-0.367-0.45-0.999-0.083-1.412l1.187-1.336h-3.773c-0.552 0-1-0.448-1-1s0.448-1 1-1h3.773l-1.187-1.336c-0.367-0.413-0.33-1.045 0.083-1.412s1.045-0.33 1.412 0.083l2.667 3c0.337 0.379 0.337 0.95 0 1.329l-2.667 3c-0.367 0.413-0.999 0.45-1.412 0.083z"></path>
</svg>
