<!-- Generated by IcoMoon.io -->
<svg version="1.1" xmlns="http://www.w3.org/2000/svg" width="32" height="32" viewBox="0 0 32 32">
<title>table-cells-split-filled</title>
<path d="M16.571 8.571h12v-0.857c0-2.367-1.919-4.286-4.286-4.286v0h-7.714v5.143zM14.857 3.429h-7.143c-2.367 0-4.286 1.919-4.286 4.286v0 0.857h11.429v-5.143zM16.571 28.571h7.714c2.367 0 4.286-1.919 4.286-4.286v0-0.857h-12v5.143zM14.857 23.429h-11.429v0.857c0 2.367 1.919 4.286 4.286 4.286v0h7.143v-5.143zM3.429 10.286h25.143v11.429h-25.143v-11.429zM14.857 11.429v9.143h1.714v-9.143h-1.714z"></path>
</svg>
