<!-- Generated by IcoMoon.io -->
<svg version="1.1" xmlns="http://www.w3.org/2000/svg" width="32" height="32" viewBox="0 0 32 32">
<title>table-move-above-filled</title>
<path d="M27.714 5.143c0.473 0 0.857-0.384 0.857-0.857s-0.384-0.857-0.857-0.857v0h-23.429c-0.473 0-0.857 0.384-0.857 0.857s0.384 0.857 0.857 0.857v0h23.429zM3.429 19.429v-5.714c0-0.631 0.512-1.143 1.143-1.143v0h6.286v6.857h-7.429zM3.429 24.286v-3.143h7.429v7.429h-3.143c-2.367 0-4.286-1.919-4.286-4.286v0zM19.429 28.571h-6.857v-7.429h6.857v7.429zM24.286 28.571h-3.143v-7.429h7.429v3.143c0 2.367-1.919 4.286-4.286 4.286v0zM27.429 12.571c0.631 0 1.143 0.512 1.143 1.143v0 5.714h-7.429v-6.857h6.286zM12.571 19.429h6.857v-6.857h-1.429v1.143c0 1.105-0.895 2-2 2s-2-0.895-2-2v0-1.143h-1.429v6.857zM18.002 10.64l-1.145-1.017v4.091c0 0.473-0.384 0.857-0.857 0.857s-0.857-0.384-0.857-0.857v0-4.091l-1.145 1.017c-0.147 0.121-0.337 0.194-0.544 0.194-0.473 0-0.857-0.384-0.857-0.857 0-0.242 0.101-0.461 0.262-0.617l0-0 2.571-2.286c0.151-0.134 0.35-0.216 0.569-0.216s0.419 0.082 0.57 0.217l2.571 2.285c0.162 0.156 0.262 0.375 0.262 0.617 0 0.473-0.384 0.857-0.857 0.857-0.207 0-0.397-0.073-0.545-0.196l0.001 0.001z"></path>
</svg>
