<!-- Generated by IcoMoon.io -->
<svg version="1.1" xmlns="http://www.w3.org/2000/svg" width="32" height="32" viewBox="0 0 32 32">
<title>table-resize-row-filled</title>
<path d="M28 23.667c0 2.393-1.94 4.333-4.333 4.333h-15.333c-2.393 0-4.333-1.94-4.333-4.333v-0.333h8.863l1.587 1.411c0.884 0.786 2.216 0.786 3.1 0l1.587-1.411h8.863v0.333z"></path>
<path d="M11.256 18.783c0.622-0.699 1.569-0.937 2.411-0.687v-4.193c-0.841 0.25-1.789 0.013-2.411-0.687-0.641-0.721-0.754-1.73-0.365-2.55h-6.891v10.667h6.891c-0.389-0.821-0.276-1.829 0.365-2.55z"></path>
<path d="M18.333 13.903v4.193c0.841-0.25 1.789-0.013 2.411 0.687 0.641 0.721 0.754 1.73 0.365 2.55h6.891v-10.667h-6.891c0.389 0.821 0.276 1.829-0.365 2.55-0.622 0.699-1.569 0.937-2.411 0.687z"></path>
<path d="M19.137 8.667h8.863v-0.333c0-2.393-1.94-4.333-4.333-4.333h-15.333c-2.393 0-4.333 1.94-4.333 4.333v0.333h8.863l1.587-1.411c0.884-0.786 2.216-0.786 3.1 0l1.587 1.411z"></path>
<path d="M17 20.773v-9.546l1.336 1.187c0.413 0.367 1.045 0.33 1.412-0.083s0.33-1.045-0.083-1.412l-3-2.667c-0.379-0.337-0.95-0.337-1.329 0l-3 2.667c-0.413 0.367-0.45 0.999-0.083 1.412s0.999 0.45 1.412 0.083l1.336-1.187v9.546l-1.336-1.187c-0.413-0.367-1.045-0.33-1.412 0.083s-0.33 1.045 0.083 1.412l3 2.667c0.005 0.005 0.011 0.009 0.016 0.014 0.165 0.141 0.377 0.229 0.609 0.238 0.025 0.001 0.050 0.001 0.075 0 0.242-0.009 0.463-0.103 0.632-0.255l2.997-2.664c0.413-0.367 0.45-0.999 0.083-1.412s-0.999-0.45-1.412-0.083l-1.336 1.187z"></path>
</svg>
