<!-- Generated by IcoMoon.io -->
<svg version="1.1" xmlns="http://www.w3.org/2000/svg" width="32" height="32" viewBox="0 0 32 32">
<title>table-edit-filled</title>
<path d="M16.654 26.424c0.157-0.629 0.483-1.204 0.942-1.663l7.869-7.869c0.371-0.371 0.813-0.626 1.283-0.766 0.023-0.007 0.046-0.013 0.069-0.020 0.165-0.045 0.333-0.076 0.503-0.092 0.877-0.086 1.783 0.206 2.455 0.878 1.19 1.19 1.19 3.119 0 4.31l-7.869 7.869c-0.459 0.459-1.034 0.784-1.663 0.942l-2.441 0.61c-1.061 0.265-2.023-0.696-1.757-1.758l0.61-2.441zM12.666 27.998h2.22l0.474-1.897c0.216-0.864 0.663-1.653 1.292-2.283l2.486-2.486h-6.473v6.666zM21.332 12.666v6.473l3.19-3.19c0.952-0.952 2.233-1.374 3.476-1.267v-2.016h-6.666zM27.998 10.666v-2.333c0-2.393-1.94-4.333-4.333-4.333h-2.333v6.666h6.666zM19.332 4h-6.666v6.666h6.666v-6.666zM10.666 4h-2.333c-2.393 0-4.333 1.94-4.333 4.333v2.333h6.666v-6.666zM4 12.666v6.666h6.666v-6.666h-6.666zM4 21.332v2.333c0 2.393 1.94 4.333 4.333 4.333h2.333v-6.666h-6.666zM19.332 12.666v6.666h-6.666v-6.666h6.666z"></path>
</svg>
