<!-- Generated by IcoMoon.io -->
<svg version="1.1" xmlns="http://www.w3.org/2000/svg" width="32" height="32" viewBox="0 0 32 32">
<title>table-link-filled</title>
<path d="M12.667 28h3.715c-1.063-1.133-1.715-2.657-1.715-4.333 0-0.824 0.157-1.611 0.444-2.333h-2.444v6.667zM28 12.667v5.11c-0.722-0.286-1.509-0.444-2.333-0.444h-4.333v-4.667h6.667zM19.333 12.667v4.888c-1.146 0.312-2.163 0.937-2.952 1.778h-3.715v-6.667h6.667zM28 10.667v-2.333c0-2.393-1.94-4.333-4.333-4.333h-2.333v6.667h6.667zM19.333 4h-6.667v6.667h6.667v-6.667zM10.667 4h-2.333c-2.393 0-4.333 1.94-4.333 4.333v2.333h6.667v-6.667zM4 12.667v6.667h6.667v-6.667h-6.667zM4 21.333v2.333c0 2.393 1.94 4.333 4.333 4.333h2.333v-6.667h-6.667zM30.667 23.667c0-2.761-2.239-5-5-5l-0.136 0.009c-0.488 0.066-0.864 0.485-0.864 0.991 0 0.552 0.448 1 1 1l0.205 0.007c1.561 0.106 2.795 1.405 2.795 2.993 0 1.657-1.343 3-3 3l-0.005 0.006-0.136 0.010c-0.488 0.069-0.862 0.489-0.86 0.995 0.003 0.552 0.452 0.998 1.005 0.995v-0.006l0.265-0.007c2.634-0.138 4.73-2.321 4.73-4.993zM22 19.667c0-0.552-0.448-1-1-1l-0.266 0.007c-2.638 0.138-4.734 2.321-4.734 4.993 0 2.761 2.239 5 5 5l0.136-0.009c0.488-0.066 0.864-0.485 0.864-0.991 0-0.552-0.448-1-1-1l-0.205-0.007c-1.561-0.106-2.795-1.405-2.795-2.993 0-1.657 1.343-3 3-3l0.136-0.009c0.488-0.066 0.864-0.485 0.864-0.991zM26.667 23.667c0-0.552-0.448-1-1-1h-4.667l-0.136 0.009c-0.488 0.066-0.864 0.485-0.864 0.991 0 0.552 0.448 1 1 1h4.667l0.136-0.009c0.488-0.066 0.864-0.485 0.864-0.991z"></path>
</svg>
