<!-- Generated by IcoMoon.io -->
<svg version="1.1" xmlns="http://www.w3.org/2000/svg" width="32" height="32" viewBox="0 0 32 32">
<title>table-dismiss-filled</title>
<path d="M3.429 7.714c0-2.367 1.919-4.286 4.286-4.286v0h3.143v7.429h-7.429v-3.143zM3.429 12.571v6.857h7.429v-6.857h-7.429zM3.429 21.143v3.143c0 2.367 1.919 4.286 4.286 4.286v0h3.143v-7.429h-7.429zM12.571 28.571h4c-1.070-1.41-1.714-3.195-1.714-5.13 0-0.005 0-0.009 0-0.014v0.001c0-0.792 0.107-1.558 0.309-2.286h-2.594v7.429zM28.571 12.571v4c-1.41-1.070-3.195-1.714-5.13-1.714-0.005 0-0.009 0-0.014 0h0.001c-0.792 0-1.558 0.107-2.286 0.309v-2.594h7.429zM19.429 12.571v3.274c-1.534 0.823-2.76 2.049-3.56 3.537l-0.023 0.046h-3.274v-6.857h6.857zM28.571 10.857v-3.143c0-2.367-1.919-4.286-4.286-4.286v0h-3.143v7.429h7.429zM19.429 3.429h-6.857v7.429h6.857v-7.429zM30.857 23.429c0 4.103-3.326 7.429-7.429 7.429s-7.429-3.326-7.429-7.429v0c0-4.103 3.326-7.429 7.429-7.429s7.429 3.326 7.429 7.429v0zM20.405 19.595c-0.104-0.104-0.247-0.168-0.405-0.168-0.316 0-0.572 0.256-0.572 0.572 0 0.158 0.064 0.301 0.168 0.405l3.025 3.024-3.025 3.024c-0.104 0.104-0.168 0.247-0.168 0.405 0 0.316 0.256 0.572 0.572 0.572 0.158 0 0.301-0.064 0.405-0.168l3.024-3.025 3.024 3.025c0.104 0.104 0.247 0.168 0.405 0.168 0.316 0 0.572-0.256 0.572-0.572 0-0.158-0.064-0.301-0.168-0.405l-3.025-3.024 3.025-3.024c0.104-0.104 0.168-0.247 0.168-0.405 0-0.316-0.256-0.572-0.572-0.572-0.158 0-0.301 0.064-0.405 0.168l-3.024 3.025-3.024-3.025z"></path>
</svg>
