<!-- Generated by IcoMoon.io -->
<svg version="1.1" xmlns="http://www.w3.org/2000/svg" width="32" height="32" viewBox="0 0 32 32">
<title>tabs-filled</title>
<path d="M25 10.665c2.311 0 4.199 1.809 4.327 4.087l0.007 0.246v10c0 2.311-1.809 4.199-4.087 4.327l-0.246 0.007h-10c-2.311 0-4.199-1.809-4.326-4.087l-0.007-0.246v-10c0-2.311 1.809-4.199 4.087-4.326l0.246-0.007h10zM21 6.667c1.802 0 3.346 1.099 4 2.664l-10 0.001c-3.13 0-5.667 2.537-5.667 5.667l0 10.003c-1.494-0.623-2.565-2.059-2.66-3.755l-0.007-0.246v-10c0-2.311 1.809-4.199 4.087-4.326l0.246-0.007h10zM17 2.667c1.733 0 3.228 1.017 3.922 2.487l0.078 0.179-10.283 0.007c-3.031 0.169-5.384 2.649-5.384 5.659l0 10.001c-1.494-0.623-2.565-2.059-2.66-3.755l-0.007-0.246v-10c0-2.311 1.809-4.199 4.087-4.326l0.246-0.007h10z"></path>
</svg>
