<!-- Generated by IcoMoon.io -->
<svg version="1.1" xmlns="http://www.w3.org/2000/svg" width="32" height="32" viewBox="0 0 32 32">
<title>tag-filled</title>
<path d="M15.952 4.079c0.713-0.668 1.675-1.079 2.732-1.079h6.816c1.933 0 3.5 1.567 3.5 3.5v0 6.757c0 0 0 0 0 0 0 1.105-0.448 2.105-1.172 2.829l-11.823 11.823c-0.769 0.769-1.832 1.245-3.005 1.245s-2.236-0.476-3.005-1.245l-6.326-6.326c-0.769-0.769-1.245-1.832-1.245-3.006 0-1.223 0.517-2.326 1.344-3.101l0.002-0.002 12.182-11.394zM22.5 12c1.381 0 2.5-1.119 2.5-2.5s-1.119-2.5-2.5-2.5v0c-1.381 0-2.5 1.119-2.5 2.5s1.119 2.5 2.5 2.5v0z"></path>
</svg>
