<!-- Generated by IcoMoon.io -->
<svg version="1.1" xmlns="http://www.w3.org/2000/svg" width="32" height="32" viewBox="0 0 32 32">
<title>tag-multiple-filled</title>
<path d="M17.001 2.667c-1.114 0-2.185 0.429-2.991 1.198l-9.082 8.662c-1.221 1.165-1.242 3.107-0.046 4.297l8.342 8.302c1.166 1.16 3.048 1.165 4.22 0.012l9.261-9.112c0.828-0.815 1.294-1.927 1.294-3.089v-6.604c0-2.025-1.642-3.667-3.667-3.667h-7.332zM21.667 10.333c-0.921 0-1.667-0.746-1.667-1.667s0.746-1.667 1.667-1.667c0.921 0 1.667 0.746 1.667 1.667s-0.746 1.667-1.667 1.667zM25.674 18.911l1.967-1.935c0.060-0.059 0.119-0.12 0.176-0.181 0.413 1.277 0.109 2.74-0.921 3.751l-7.111 6.971c-2.471 2.422-6.429 2.413-8.888-0.021l-5.809-5.748c-1.020-1.009-1.323-2.467-0.908-3.743l2.172 2.161c0.044 0.056 0.091 0.109 0.143 0.16l3.215 3.181 2.575 2.563c1.407 1.4 3.537 1.636 5.187 0.703 0.326-0.183 0.633-0.412 0.913-0.686l7.111-6.971c0.066-0.065 0.126-0.134 0.179-0.206z"></path>
</svg>
