<!-- Generated by IcoMoon.io -->
<svg version="1.1" xmlns="http://www.w3.org/2000/svg" width="32" height="32" viewBox="0 0 32 32">
<title>tag-dismiss-filled</title>
<path d="M26.333 2.667c1.657 0 3 1.343 3 3v0 7.283c-0 1.197-0.485 2.28-1.269 3.064l-0.035 0.035c-1.327-0.868-2.953-1.385-4.699-1.385-4.786 0-8.667 3.88-8.667 8.667 0 1.71 0.495 3.304 1.35 4.646l-0.021-0.035c-0.659 0.424-1.463 0.676-2.327 0.676-1.196 0-2.279-0.483-3.064-1.266l0 0-5.949-5.939c-0.786-0.784-1.272-1.869-1.272-3.067 0-1.195 0.484-2.277 1.266-3.061l11.333-11.347c0.784-0.785 1.868-1.271 3.066-1.271 0 0 0.001 0 0.001 0h7.287zM22.667 7.336c-1.105 0-2 0.895-2 2s0.895 2 2 2v0c1.105 0 2-0.895 2-2s-0.895-2-2-2v0zM30.667 23.333c0 4.050-3.283 7.333-7.333 7.333s-7.333-3.283-7.333-7.333v0c0-4.050 3.283-7.333 7.333-7.333s7.333 3.283 7.333 7.333v0zM21.137 20.195c-0.121-0.12-0.287-0.195-0.471-0.195-0.368 0-0.667 0.299-0.667 0.667 0 0.184 0.075 0.351 0.196 0.472l2.196 2.195-2.196 2.195c-0.121 0.121-0.196 0.288-0.196 0.472 0 0.368 0.299 0.667 0.667 0.667 0.184 0 0.351-0.075 0.471-0.195v0l2.196-2.196 2.195 2.196c0.121 0.12 0.287 0.195 0.471 0.195 0.368 0 0.667-0.299 0.667-0.667 0-0.184-0.075-0.351-0.196-0.472v0l-2.195-2.195 2.195-2.195c0.121-0.121 0.196-0.288 0.196-0.472 0-0.368-0.299-0.667-0.667-0.667-0.184 0-0.351 0.075-0.471 0.195v0l-2.195 2.196-2.196-2.196z"></path>
</svg>
