<!-- Generated by IcoMoon.io -->
<svg version="1.1" xmlns="http://www.w3.org/2000/svg" width="32" height="32" viewBox="0 0 32 32">
<title>tag-off-filled</title>
<path d="M21.333 22.747l6.293 6.293c0.391 0.391 1.024 0.391 1.414 0s0.391-1.024 0-1.414l-24.667-24.667c-0.391-0.391-1.024-0.391-1.414 0s-0.391 1.024 0 1.414l6.297 6.297-4.608 4.614c-1.691 1.694-1.689 4.437 0.005 6.128l5.949 5.94c1.695 1.689 4.436 1.687 6.128-0.002l4.602-4.603zM28.066 16.013l-3.985 3.986-12.078-12.078 3.979-3.984c0.813-0.814 1.916-1.271 3.066-1.271h7.287c1.657 0 3 1.343 3 3v7.283c0 1.149-0.456 2.251-1.269 3.064zM22.668 7.336c-1.105 0-2 0.895-2 2s0.895 2 2 2c1.105 0 2-0.895 2-2s-0.895-2-2-2z"></path>
</svg>
