<!-- Generated by IcoMoon.io -->
<svg version="1.1" xmlns="http://www.w3.org/2000/svg" width="32" height="32" viewBox="0 0 32 32">
<title>tag-lock-accent-filled</title>
<path d="M26.334 3.333c0.619 0.001 1.212 0.247 1.649 0.684s0.683 1.030 0.684 1.649v7.283c0.002 0.481-0.091 0.958-0.274 1.403s-0.453 0.849-0.793 1.189l-0.446 0.446c-0.844-1.202-2.241-1.987-3.821-1.987-2.577 0-4.667 2.089-4.667 4.667v0.067c-1.521 0.309-2.667 1.654-2.667 3.267v5.117c-0.653 0.535-1.474 0.831-2.326 0.831-0.972 0-1.905-0.386-2.593-1.073l-5.957-5.935c-0.34-0.34-0.61-0.744-0.795-1.189s-0.279-0.921-0.279-1.403c0-0.481 0.095-0.958 0.279-1.403s0.454-0.849 0.795-1.189l11.333-11.347c0.339-0.342 0.743-0.613 1.187-0.798s0.922-0.279 1.403-0.278h7.287zM19.047 2.667c-0.569 0-1.133 0.112-1.66 0.33-0.252 0.105-0.493 0.232-0.721 0.382 0.701-0.461 1.528-0.712 2.38-0.712zM28.805 3.965c0.265 0.384 0.442 0.832 0.505 1.317-0.061-0.473-0.235-0.925-0.505-1.317zM28.105 3.245c-0.502-0.367-1.109-0.572-1.738-0.579 0.65 0.007 1.25 0.221 1.738 0.579z"></path>
</svg>
