<!-- Generated by IcoMoon.io -->
<svg version="1.1" xmlns="http://www.w3.org/2000/svg" width="32" height="32" viewBox="0 0 32 32">
<title>tag-error-filled</title>
<path d="M26.333 2.667c1.657 0 3 1.343 3 3v7.283c0 1.149-0.456 2.251-1.269 3.064l-0.035 0.035c-1.353-0.874-2.965-1.381-4.696-1.381-4.786 0-8.667 3.88-8.667 8.667 0 1.694 0.486 3.274 1.326 4.609-1.676 1.067-3.925 0.871-5.391-0.59l-5.949-5.94c-1.694-1.691-1.696-4.434-0.005-6.128l11.333-11.346c0.813-0.814 1.916-1.271 3.066-1.271h7.287zM22.666 7.336c-1.105 0-2 0.895-2 2s0.895 2 2 2c1.105 0 2-0.895 2-2s-0.895-2-2-2zM30.666 23.333c0 4.050-3.283 7.333-7.333 7.333s-7.333-3.283-7.333-7.333 3.283-7.333 7.333-7.333c4.050 0 7.333 3.283 7.333 7.333zM23.333 18.667c-0.368 0-0.667 0.299-0.667 0.667v5.333c0 0.368 0.299 0.667 0.667 0.667s0.667-0.299 0.667-0.667v-5.333c0-0.368-0.298-0.667-0.667-0.667zM23.333 28.167c0.46 0 0.833-0.373 0.833-0.833s-0.373-0.833-0.833-0.833c-0.46 0-0.833 0.373-0.833 0.833s0.373 0.833 0.833 0.833z"></path>
</svg>
