<!-- Generated by IcoMoon.io -->
<svg version="1.1" xmlns="http://www.w3.org/2000/svg" width="32" height="32" viewBox="0 0 32 32">
<title>tag-lock-filled</title>
<path d="M15.952 4.079c0.713-0.668 1.675-1.079 2.732-1.079h6.816c1.933 0 3.5 1.567 3.5 3.5v0 6.757c0 0 0 0 0 0 0 1.105-0.448 2.105-1.172 2.829l-0.467 0.467c-0.874-1.534-2.499-2.552-4.361-2.552-2.446 0-4.481 1.755-4.916 4.074l-0.005 0.031c-1.779 0.432-3.079 2.011-3.079 3.894v0 6c0 0.214 0.018 0.424 0.050 0.628-0.591 0.331-1.297 0.526-2.048 0.526-1.174 0-2.237-0.476-3.006-1.245l-6.326-6.326c-0.769-0.769-1.245-1.832-1.245-3.006 0-1.223 0.517-2.326 1.344-3.101l0.002-0.002 12.181-11.394zM22.5 12c1.381 0 2.5-1.119 2.5-2.5s-1.119-2.5-2.5-2.5v0c-1.381 0-2.5 1.119-2.5 2.5s1.119 2.5 2.5 2.5v0zM19.5 19.5h-0.5c-1.381 0-2.5 1.119-2.5 2.5v0 6c0 1.381 1.119 2.5 2.5 2.5v0h8c1.381 0 2.5-1.119 2.5-2.5v0-6c0-1.381-1.119-2.5-2.5-2.5v0h-0.5v-0.5c0-1.933-1.567-3.5-3.5-3.5s-3.5 1.567-3.5 3.5v0 0.5zM21.5 19c0-0.828 0.672-1.5 1.5-1.5s1.5 0.672 1.5 1.5v0 0.5h-3v-0.5zM25 25c0 1.105-0.895 2-2 2s-2-0.895-2-2v0c0-1.105 0.895-2 2-2s2 0.895 2 2v0z"></path>
</svg>
