<!-- Generated by IcoMoon.io -->
<svg version="1.1" xmlns="http://www.w3.org/2000/svg" width="32" height="32" viewBox="0 0 32 32">
<title>tag-circle-filled</title>
<path d="M3.2 16c0-7.069 5.731-12.8 12.8-12.8s12.8 5.731 12.8 12.8v0c0 7.069-5.731 12.8-12.8 12.8s-12.8-5.731-12.8-12.8v0zM9.6 13.6v4.8c0 1.325 1.075 2.4 2.4 2.4v0h6.493c0.64 0 1.262-0.219 1.76-0.624l2.858-2.31c0.545-0.444 0.89-1.114 0.89-1.866s-0.345-1.422-0.886-1.862l-0.004-0.003-2.858-2.31c-0.476-0.388-1.091-0.623-1.76-0.624h-6.493c-1.325 0-2.4 1.075-2.4 2.4v0z"></path>
</svg>
