<!-- Generated by IcoMoon.io -->
<svg version="1.1" xmlns="http://www.w3.org/2000/svg" width="32" height="32" viewBox="0 0 32 32">
<title>tag-search-filled</title>
<path d="M29.333 5.667c0-1.657-1.343-3-3-3v0h-7.288c-1.197 0-2.281 0.486-3.065 1.271l-11.333 11.347c-0.782 0.784-1.266 1.866-1.266 3.061 0 1.198 0.486 2.282 1.272 3.067l5.949 5.94c0.785 0.782 1.868 1.266 3.063 1.266s2.28-0.484 3.065-1.267l0.125-0.125c-1.348-1.331-2.183-3.178-2.183-5.221 0-4.050 3.283-7.333 7.333-7.333 2.042 0 3.889 0.835 5.219 2.181l0.001 0.001 0.84-0.84c0.784-0.784 1.269-1.867 1.269-3.064v0-7.283zM20.667 9.336c0-1.105 0.895-2 2-2s2 0.895 2 2v0c0 1.105-0.895 2-2 2s-2-0.895-2-2v0zM26.891 25.476c0.694-0.966 1.11-2.173 1.11-3.477 0-3.314-2.686-6-6-6s-6 2.686-6 6c0 3.314 2.686 6 6 6 1.304 0 2.511-0.416 3.495-1.122l-0.018 0.012 3.483 3.484c0.183 0.196 0.443 0.318 0.732 0.318 0.552 0 1-0.448 1-1 0-0.289-0.122-0.549-0.318-0.731l-0.001-0.001-3.483-3.484zM26 22c0 2.209-1.791 4-4 4s-4-1.791-4-4v0c0-2.209 1.791-4 4-4s4 1.791 4 4v0z"></path>
</svg>
