<!-- Generated by IcoMoon.io -->
<svg version="1.1" xmlns="http://www.w3.org/2000/svg" width="32" height="32" viewBox="0 0 32 32">
<title>tap-single-filled</title>
<path d="M15.665 8c1.811 0 2.603 1.198 2.666 3.101l0.004 0.252v3.315l3.829 0.563c0.149 0.022 0.297 0.053 0.443 0.093 1.877 0.518 3.008 2.405 2.613 4.285l-0.055 0.225-1.636 5.923c-0.229 0.83-0.895 1.461-1.724 1.652l-0.194 0.036-4.081 0.586c-1.014 0.146-1.995-0.387-2.433-1.296l-0.080-0.187-0.289-0.762c-0.328-0.866-0.868-1.633-1.569-2.232l-0.27-0.217-2.129-1.602c-0.111-0.084-0.23-0.157-0.354-0.22l-0.191-0.085-2.927-1.157c-0.365-0.144-0.612-0.488-0.631-0.88-0.048-0.963 0.653-1.662 1.895-2.283 0.959-0.479 2.303-0.44 4.088 0.058l0.363 0.106v-5.934c0-2.050 0.771-3.341 2.661-3.341zM15.665 3.333c4.235 0 7.667 3.433 7.667 7.667 0 1.058-0.214 2.065-0.602 2.982l0.232 0.057c-0.199-0.055-0.4-0.097-0.604-0.127l-1.69-0.248c0.424-0.794 0.664-1.701 0.664-2.664 0-3.13-2.537-5.667-5.667-5.667s-5.667 2.537-5.667 5.667c0 1.572 0.64 2.994 1.673 4.020l-0 0.553c-0.818-0.145-1.558-0.181-2.229-0.096-0.908-1.259-1.444-2.806-1.444-4.478 0-4.234 3.433-7.667 7.667-7.667z"></path>
</svg>
