<!-- Generated by IcoMoon.io -->
<svg version="1.1" xmlns="http://www.w3.org/2000/svg" width="32" height="32" viewBox="0 0 32 32">
<title>tap-double-filled</title>
<path d="M15.665 9.333c1.811 0 2.603 1.198 2.666 3.101l0.004 0.252v3.315l3.829 0.563c0.149 0.022 0.297 0.053 0.443 0.093 1.877 0.518 3.008 2.405 2.613 4.285l-0.055 0.225-1.636 5.923c-0.229 0.83-0.895 1.461-1.724 1.652l-0.194 0.036-4.081 0.586c-1.014 0.145-1.995-0.387-2.433-1.296l-0.080-0.187-0.289-0.762c-0.328-0.866-0.868-1.633-1.569-2.232l-0.27-0.217-2.129-1.602c-0.111-0.084-0.23-0.157-0.354-0.22l-0.191-0.085-2.927-1.157c-0.365-0.144-0.612-0.488-0.631-0.88-0.048-0.963 0.653-1.662 1.895-2.283 0.959-0.479 2.303-0.44 4.088 0.058l0.363 0.106v-5.934c0-2.050 0.771-3.341 2.661-3.341zM15.665 2.667c5.339 0 9.667 4.328 9.667 9.668 0 1.35-0.277 2.635-0.776 3.802-0.469-0.338-1.005-0.6-1.594-0.763l-0.231-0.057c0.387-0.917 0.601-1.924 0.601-2.982 0-4.235-3.433-7.668-7.667-7.668s-7.667 3.433-7.667 7.668c0 1.712 0.561 3.293 1.509 4.569-0.672 0.051-1.189 0.168-1.55 0.349-0.161 0.080-0.316 0.163-0.464 0.247-0.947-1.493-1.495-3.265-1.495-5.165 0-5.339 4.328-9.668 9.667-9.668zM15.665 6.002c3.497 0 6.332 2.835 6.332 6.332 0 0.992-0.228 1.93-0.634 2.765l-1.694-0.249 0.001-0.862c0.211-0.51 0.327-1.068 0.327-1.654 0-1.28-0.555-2.43-1.437-3.223l-0.194-0.164c-0.64-0.6-1.53-0.947-2.701-0.947-1.184 0-2.080 0.352-2.72 0.962-0.983 0.795-1.612 2.010-1.612 3.372 0 0.594 0.12 1.16 0.336 1.675l0.001 2.476c-0 0.221-0.179 0.4-0.4 0.4-1.197-1.15-1.937-2.764-1.937-4.551 0-3.497 2.835-6.332 6.332-6.332z"></path>
</svg>
