<!-- Generated by IcoMoon.io -->
<svg version="1.1" xmlns="http://www.w3.org/2000/svg" width="32" height="32" viewBox="0 0 32 32">
<title>target-filled</title>
<path d="M16 13.75c-1.243 0-2.25 1.007-2.25 2.25s1.007 2.25 2.25 2.25v0c1.243 0 2.25-1.007 2.25-2.25s-1.007-2.25-2.25-2.25v0z"></path>
<path d="M16 8.75c-4.004 0-7.25 3.246-7.25 7.25s3.246 7.25 7.25 7.25v0c4.004 0 7.25-3.246 7.25-7.25s-3.246-7.25-7.25-7.25v0zM11.25 16c0-2.623 2.127-4.75 4.75-4.75s4.75 2.127 4.75 4.75v0c0 2.623-2.127 4.75-4.75 4.75s-4.75-2.127-4.75-4.75v0z"></path>
<path d="M16.001 3.75c-6.766 0-12.251 5.485-12.251 12.251s5.485 12.252 12.251 12.252c6.766 0 12.252-5.486 12.252-12.252s-5.486-12.251-12.253-12.251zM6.25 16.001c0-5.385 4.366-9.751 9.751-9.751 5.386 0 9.752 4.366 9.752 9.751s-4.366 9.752-9.752 9.752c-5.385 0-9.751-4.366-9.751-9.752z"></path>
</svg>
