<!-- Generated by IcoMoon.io -->
<svg version="1.1" xmlns="http://www.w3.org/2000/svg" width="32" height="32" viewBox="0 0 32 32">
<title>target-edit-filled</title>
<path d="M16 18.665c1.472-0 2.666-1.194 2.666-2.667s-1.194-2.667-2.667-2.667c-0 0-0 0-0.001 0h0c-1.473 0-2.667 1.194-2.667 2.667s1.194 2.667 2.667 2.667v0zM8 15.999c0-0.005-0-0.011-0-0.017 0-4.418 3.582-8 8-8s8 3.582 8 8c0 0.178-0.006 0.354-0.017 0.529l0.001-0.024-7.332 7.331c-0.053 0.053-0.107 0.109-0.157 0.165-0.148 0.010-0.321 0.015-0.495 0.015-4.418 0-7.999-3.581-8-7.998v-0zM16 10.665c-2.946 0-5.333 2.388-5.333 5.333s2.388 5.333 5.333 5.333v0c2.946 0 5.333-2.388 5.333-5.333s-2.388-5.333-5.333-5.333v0zM16 5.332c5.463 0.001 9.966 4.108 10.591 9.403l0.005 0.050c0.307-0.076 0.659-0.12 1.021-0.12 0.605 0 1.181 0.122 1.706 0.343l-0.029-0.011c-0.515-6.896-6.269-12.331-13.296-12.331-7.363 0-13.332 5.969-13.332 13.333 0 6.912 5.261 12.596 11.997 13.265-0-0.009-0-0.019-0-0.029 0-0.247 0.032-0.486 0.091-0.714l-0.004 0.020 0.475-1.904c-5.541-0.424-9.876-5.024-9.876-10.637 0-5.886 4.767-10.658 10.65-10.667h0.001zM25.464 16.892l-7.868 7.868c-0.446 0.446-0.775 1.009-0.937 1.639l-0.005 0.025-0.609 2.44c-0.028 0.106-0.044 0.227-0.044 0.353 0 0.8 0.649 1.449 1.449 1.449 0.125 0 0.246-0.016 0.362-0.045l-0.010 0.002 2.44-0.611c0.655-0.167 1.218-0.496 1.664-0.941l7.868-7.871c0.551-0.551 0.892-1.313 0.892-2.155 0-1.683-1.364-3.048-3.048-3.048-0.842 0-1.604 0.341-2.155 0.893v0z"></path>
</svg>
