<!-- Generated by IcoMoon.io -->
<svg version="1.1" xmlns="http://www.w3.org/2000/svg" width="32" height="32" viewBox="0 0 32 32">
<title>target-edit-filled</title>
<path d="M15.999 18.665c1.473 0 2.666-1.194 2.666-2.666s-1.194-2.667-2.666-2.667c-1.473 0-2.667 1.194-2.667 2.666s1.194 2.666 2.666 2.666zM8 15.999c0-4.418 3.581-7.999 7.999-7.999s7.999 3.581 7.999 7.999c0 0.164-0.005 0.327-0.015 0.488l-7.331 7.331c-0.054 0.054-0.107 0.109-0.158 0.165-0.164 0.010-0.329 0.015-0.496 0.015-4.418 0-7.999-3.581-7.999-7.999zM15.999 10.666c-2.945 0-5.333 2.388-5.333 5.333s2.388 5.333 5.333 5.333c2.945 0 5.333-2.388 5.333-5.333s-2.388-5.333-5.333-5.333zM15.999 5.333c5.48 0 9.995 4.133 10.597 9.453 0.893-0.214 1.84-0.143 2.698 0.211-0.512-6.895-6.269-12.331-13.295-12.331-7.363 0-13.332 5.969-13.332 13.332 0 6.913 5.261 12.597 11.998 13.266-0.003-0.236 0.024-0.479 0.085-0.724l0.476-1.904c-5.53-0.396-9.893-5.008-9.893-10.638 0-5.891 4.775-10.666 10.666-10.666zM25.465 16.891l-7.869 7.869c-0.459 0.459-0.784 1.034-0.942 1.663l-0.61 2.441c-0.265 1.061 0.696 2.023 1.757 1.758l2.441-0.61c0.629-0.157 1.204-0.483 1.663-0.942l7.869-7.869c1.19-1.19 1.19-3.119 0-4.309s-3.119-1.19-4.31 0z"></path>
</svg>
