<!-- Generated by IcoMoon.io -->
<svg version="1.1" xmlns="http://www.w3.org/2000/svg" width="32" height="32" viewBox="0 0 32 32">
<title>target-arrow-filled</title>
<path d="M29.040 9.040c0.181-0.181 0.292-0.431 0.292-0.707 0-0.552-0.447-1-0.999-1h-3.667v-3.667c-0-0.552-0.448-0.999-1-0.999-0.276 0-0.526 0.112-0.707 0.292v0l-3.333 3.333c-0.181 0.181-0.293 0.431-0.293 0.707v3.781l-2.643 2.643c-0.206-0.057-0.442-0.090-0.687-0.090-1.473 0-2.668 1.193-2.671 2.666v0c0.001 1.472 1.194 2.665 2.667 2.665s2.667-1.194 2.667-2.667c0-0.245-0.033-0.483-0.095-0.708l0.004 0.019 2.643-2.643h3.781c0.276-0 0.526-0.112 0.707-0.293v0l3.333-3.333zM16 2.667c0.005 0 0.011 0 0.017 0 1.632 0 3.195 0.294 4.64 0.831l-0.092-0.030-1.883 1.883c-0.083 0.083-0.16 0.173-0.228 0.267-0.736-0.181-1.582-0.286-2.452-0.286-5.891 0-10.667 4.776-10.667 10.667s4.776 10.667 10.667 10.667c5.891 0 10.667-4.776 10.667-10.667 0-0.87-0.104-1.715-0.301-2.525l0.015 0.073c0.093-0.069 0.183-0.147 0.267-0.229l1.88-1.883c0.508 1.354 0.803 2.919 0.803 4.552 0 0.005 0 0.009 0 0.014v-0.001c0 7.364-5.969 13.333-13.333 13.333s-13.333-5.969-13.333-13.333 5.969-13.333 13.333-13.333zM16 8c0.691 0 1.36 0.088 2 0.253v1.976l-0.552 0.552c-0.022 0.022-0.043 0.043-0.064 0.065l-0.001 0.001c-0.413-0.114-0.887-0.18-1.376-0.18-2.947 0-5.336 2.386-5.34 5.332v0c0.002 2.944 2.389 5.33 5.333 5.33 2.946 0 5.333-2.388 5.333-5.333 0-0.49-0.066-0.965-0.19-1.416l0.009 0.037 0.067-0.065 0.552-0.552h1.977c0.161 0.6 0.254 1.289 0.254 2 0 4.418-3.582 8-8 8s-8-3.582-8-8c0-4.418 3.581-7.999 7.998-8h0z"></path>
</svg>
