<!-- Generated by IcoMoon.io -->
<svg version="1.1" xmlns="http://www.w3.org/2000/svg" width="32" height="32" viewBox="0 0 32 32">
<title>task-list-rtl-filled</title>
<path d="M28.943 4.391c-0.521-0.521-1.365-0.521-1.886 0l-1.724 1.724-0.391-0.391c-0.521-0.521-1.365-0.521-1.886 0s-0.521 1.365 0 1.886l1.333 1.333c0.521 0.521 1.365 0.521 1.886 0l2.667-2.667c0.521-0.521 0.521-1.365 0-1.886zM18.672 22.667l-14.827 0.009c-0.663 0.077-1.178 0.641-1.178 1.324 0 0.736 0.597 1.333 1.333 1.333l14.827-0.009c0.663-0.077 1.178-0.641 1.178-1.324 0-0.736-0.597-1.333-1.333-1.333zM18.672 14.667l-14.827 0.009c-0.663 0.077-1.178 0.641-1.178 1.324 0 0.736 0.597 1.333 1.333 1.333l14.827-0.009c0.663-0.077 1.178-0.641 1.178-1.324 0-0.736-0.597-1.333-1.333-1.333zM18.672 6.667l-14.827 0.009c-0.663 0.077-1.178 0.641-1.178 1.324 0 0.736 0.597 1.333 1.333 1.333l14.827-0.009c0.663-0.077 1.178-0.641 1.178-1.324 0-0.736-0.597-1.333-1.333-1.333zM28.943 21.724c-0.521-0.521-1.365-0.521-1.886 0l-1.724 1.724-0.391-0.391c-0.521-0.521-1.365-0.521-1.886 0s-0.521 1.365 0 1.886l1.333 1.333c0.521 0.521 1.365 0.521 1.886 0l2.667-2.667c0.521-0.521 0.521-1.365 0-1.886zM27.057 13.057c0.521-0.521 1.365-0.521 1.886 0s0.521 1.365 0 1.886l-2.667 2.667c-0.521 0.521-1.365 0.521-1.886 0l-1.333-1.333c-0.521-0.521-0.521-1.365 0-1.886s1.365-0.521 1.886 0l0.391 0.391 1.724-1.724z"></path>
</svg>
