<!-- Generated by IcoMoon.io -->
<svg version="1.1" xmlns="http://www.w3.org/2000/svg" width="32" height="32" viewBox="0 0 32 32">
<title>task-list-square-add-filled</title>
<path d="M4 8.333c0-2.393 1.94-4.333 4.333-4.333v0h15.333c2.393 0 4.333 1.94 4.333 4.333v0 7.696c-1.321-0.856-2.936-1.366-4.67-1.366-4.786 0-8.667 3.88-8.667 8.667 0 1.734 0.509 3.349 1.386 4.703l-0.021-0.034h-7.696c-2.393 0-4.333-1.94-4.333-4.333v0-15.333zM16.667 12.333c0 0.552 0.448 1 1 1h4.667c0.552 0 1-0.448 1-1s-0.448-1-1-1v0h-4.667c-0.552 0-1 0.448-1 1v0zM14.373 11.707c0.196-0.183 0.318-0.443 0.318-0.732 0-0.552-0.448-1-1-1-0.289 0-0.549 0.122-0.731 0.318l-0.001 0.001-1.96 1.96-0.627-0.627c-0.178-0.166-0.418-0.268-0.682-0.268-0.552 0-1 0.448-1 1 0 0.264 0.102 0.504 0.269 0.682l-0.001-0.001 1.333 1.333c0.181 0.181 0.431 0.292 0.707 0.292s0.526-0.112 0.707-0.292v0l2.667-2.667zM14.373 17.627c-0.181-0.181-0.431-0.292-0.707-0.292s-0.526 0.112-0.707 0.292v0l-1.96 1.96-0.627-0.627c-0.178-0.166-0.418-0.268-0.682-0.268-0.552 0-1 0.448-1 1 0 0.264 0.102 0.504 0.269 0.682l-0.001-0.001 1.333 1.333c0.181 0.181 0.431 0.292 0.707 0.292s0.526-0.112 0.707-0.292v0l2.667-2.667c0.181-0.181 0.292-0.431 0.292-0.707s-0.112-0.526-0.292-0.707v0zM30.667 23.333c0-4.050-3.283-7.333-7.333-7.333s-7.333 3.283-7.333 7.333v0c0 4.050 3.283 7.333 7.333 7.333s7.333-3.283 7.333-7.333v0zM24 24l0.001 3.337c0 0.368-0.298 0.667-0.667 0.667s-0.667-0.298-0.667-0.667v0-3.337h-3.34c-0.368 0-0.667-0.298-0.667-0.667s0.298-0.667 0.667-0.667v0h3.339v-3.333c0-0.368 0.298-0.667 0.667-0.667s0.667 0.298 0.667 0.667v0 3.333h3.329c0.368 0 0.667 0.298 0.667 0.667s-0.298 0.667-0.667 0.667v0h-3.329z"></path>
</svg>
