<!-- Generated by IcoMoon.io -->
<svg version="1.1" xmlns="http://www.w3.org/2000/svg" width="32" height="32" viewBox="0 0 32 32">
<title>task-list-add-filled</title>
<path d="M8.943 3.057c-0.241-0.241-0.575-0.39-0.943-0.39s-0.701 0.149-0.943 0.39l-1.724 1.724-0.391-0.391c-0.24-0.232-0.566-0.374-0.926-0.374-0.736 0-1.333 0.597-1.333 1.333 0 0.36 0.143 0.687 0.375 0.927l1.333 1.333c0.241 0.241 0.575 0.39 0.943 0.39s0.701-0.149 0.943-0.39l2.667-2.667c0.241-0.241 0.39-0.575 0.39-0.943s-0.149-0.701-0.39-0.943v0zM14.667 23.333c0 0.221 0.008 0.44 0.024 0.657h-1.357c-0.736-0.001-1.332-0.597-1.332-1.333 0-0.681 0.51-1.243 1.169-1.323l0.006-0.001 0.156-0.009h1.567c-0.148 0.601-0.233 1.291-0.233 2.001 0 0.003 0 0.006 0 0.009v-0zM23.333 14.667c0.004 0 0.009 0 0.014 0 1.709 0 3.302 0.497 4.642 1.354l-0.035-0.021h0.051l0.155-0.009c0.666-0.081 1.176-0.643 1.176-1.324 0-0.735-0.595-1.331-1.329-1.333l-14.83 0.009c-0.665 0.081-1.176 0.643-1.176 1.324 0 0.736 0.596 1.332 1.332 1.333h5.379c1.306-0.836 2.898-1.333 4.607-1.333 0.005 0 0.010 0 0.015 0h-0.001zM28.005 5.333l-14.828 0.009c-0.665 0.081-1.176 0.643-1.176 1.324 0 0.736 0.596 1.332 1.332 1.333l14.827-0.009c0.666-0.081 1.176-0.643 1.176-1.324 0-0.735-0.595-1.331-1.329-1.333h-0zM8.943 20.391c-0.241-0.241-0.575-0.39-0.943-0.39s-0.701 0.149-0.943 0.39l-1.724 1.724-0.391-0.391c-0.24-0.232-0.566-0.374-0.926-0.374-0.736 0-1.333 0.597-1.333 1.333 0 0.36 0.143 0.687 0.375 0.927l1.333 1.333c0.241 0.241 0.575 0.39 0.943 0.39s0.701-0.149 0.943-0.39l2.667-2.667c0.241-0.241 0.39-0.575 0.39-0.943s-0.149-0.701-0.39-0.943v0zM7.057 11.724c0.24-0.232 0.566-0.374 0.926-0.374 0.736 0 1.333 0.597 1.333 1.333 0 0.36-0.143 0.687-0.375 0.927l-2.666 2.666c-0.241 0.241-0.575 0.39-0.943 0.39s-0.701-0.149-0.943-0.39l-1.333-1.333c-0.232-0.24-0.374-0.566-0.374-0.926 0-0.736 0.597-1.333 1.333-1.333 0.36 0 0.687 0.143 0.927 0.375l0.39 0.39 1.724-1.724zM30.667 23.333c0-4.050-3.283-7.333-7.333-7.333s-7.333 3.283-7.333 7.333v0c0 4.050 3.283 7.333 7.333 7.333s7.333-3.283 7.333-7.333v0zM24 24l0.001 3.337c0 0.368-0.298 0.667-0.667 0.667s-0.667-0.298-0.667-0.667v0-3.337h-3.34c-0.368 0-0.667-0.298-0.667-0.667s0.298-0.667 0.667-0.667v0h3.339v-3.333c0-0.368 0.298-0.667 0.667-0.667s0.667 0.298 0.667 0.667v0 3.333h3.329c0.368 0 0.667 0.298 0.667 0.667s-0.298 0.667-0.667 0.667v0h-3.329z"></path>
</svg>
