<!-- Generated by IcoMoon.io -->
<svg version="1.1" xmlns="http://www.w3.org/2000/svg" width="32" height="32" viewBox="0 0 32 32">
<title>task-list-square-person-filled</title>
<path d="M4.8 9.6c0-2.651 2.149-4.8 4.8-4.8v0h12.8c2.651 0 4.8 2.149 4.8 4.8v0 5.442c-0.688-0.404-1.516-0.643-2.4-0.643-2.651 0-4.8 2.149-4.8 4.8 0 0.001 0 0.001 0 0.002v-0h-2.4c-0.442 0-0.8 0.358-0.8 0.8s0.358 0.8 0.8 0.8v0h2.672c0.225 0.625 0.553 1.163 0.968 1.62l-0.004-0.004c-2.047 0.192-3.637 1.902-3.637 3.983 0 0 0 0 0 0.001v-0c0 0.267 0.021 0.534 0.061 0.8h-8.061c-2.651 0-4.8-2.149-4.8-4.8v0-12.8zM14.966 11.366c0.145-0.145 0.235-0.345 0.235-0.566 0-0.442-0.359-0.801-0.801-0.801-0.221 0-0.421 0.090-0.566 0.235v0l-2.259 2.259-0.635-0.579c-0.139-0.119-0.321-0.192-0.52-0.192-0.442 0-0.8 0.358-0.8 0.8 0 0.224 0.092 0.427 0.241 0.573l0 0 1.2 1.096c0.142 0.129 0.331 0.208 0.539 0.208 0.221 0 0.421-0.089 0.565-0.234v0l2.8-2.8zM14.966 18.234c-0.145-0.145-0.345-0.235-0.566-0.235s-0.422 0.090-0.566 0.235l-2.259 2.259-0.635-0.579c-0.139-0.119-0.321-0.192-0.52-0.192-0.442 0-0.8 0.358-0.8 0.8 0 0.224 0.092 0.427 0.241 0.573l0 0 1.2 1.096c0.142 0.13 0.331 0.209 0.539 0.209 0.22 0 0.42-0.089 0.565-0.233l2.8-2.8c0.145-0.145 0.234-0.345 0.234-0.566s-0.089-0.421-0.234-0.566v0zM16.8 12c0 0.442 0.358 0.8 0.8 0.8v0h4c0.442 0 0.8-0.358 0.8-0.8s-0.358-0.8-0.8-0.8v0h-4c-0.442 0-0.8 0.358-0.8 0.8v0zM28 19.2c0 1.767-1.433 3.2-3.2 3.2s-3.2-1.433-3.2-3.2v0c0-1.767 1.433-3.2 3.2-3.2s3.2 1.433 3.2 3.2v0zM30.4 26.4c0 1.992-1.6 4-5.6 4s-5.6-2-5.6-4c0-1.325 1.075-2.4 2.4-2.4v0h6.4c1.325 0 2.4 1.075 2.4 2.4v0z"></path>
</svg>
