<!-- Generated by IcoMoon.io -->
<svg version="1.1" xmlns="http://www.w3.org/2000/svg" width="32" height="32" viewBox="0 0 32 32">
<title>tasks-app-filled</title>
<path d="M23.667 2.668c1.588 0 2.887 1.234 2.993 2.795l0.007 0.205v13.503c-0.161 0.107-0.313 0.232-0.455 0.374l-4.544 4.544-1.212-1.213c-0.555-0.555-1.274-0.848-2.001-0.877h3.212c0.552 0 1-0.448 1-1s-0.448-1-1-1h-6.672c-0.552 0-1 0.448-1 1s0.448 1 1 1h3.217c-0.726 0.029-1.444 0.321-1.999 0.875-1.172 1.171-1.173 3.071-0.002 4.243l2.212 2.214h-10.090c-1.588 0-2.888-1.233-2.993-2.795l-0.007-0.205v-20.664c0-1.588 1.234-2.888 2.795-2.993l0.205-0.007h15.333zM12 10.335c0-0.736-0.597-1.333-1.333-1.333s-1.333 0.597-1.333 1.333c0 0.736 0.597 1.333 1.333 1.333s1.333-0.597 1.333-1.333zM14.995 9.333c-0.552 0-1 0.448-1 1s0.448 1 1 1h6.672c0.552 0 1-0.448 1-1s-0.448-1-1-1h-6.672zM13.995 15.667c0 0.552 0.448 1 1 1h6.672c0.552 0 1-0.448 1-1s-0.448-1-1-1h-6.672c-0.552 0-1 0.448-1 1zM12 15.667c0-0.736-0.597-1.333-1.333-1.333s-1.333 0.597-1.333 1.333c0 0.736 0.597 1.333 1.333 1.333s1.333-0.597 1.333-1.333zM12 20.997c0-0.736-0.597-1.333-1.333-1.333s-1.333 0.597-1.333 1.333c0 0.736 0.597 1.333 1.333 1.333s1.333-0.597 1.333-1.333z"></path>
<path d="M21.667 26.919l5.959-5.959c0.39-0.391 1.024-0.391 1.414 0s0.391 1.024 0 1.414l-6.667 6.667c-0.022 0.022-0.045 0.043-0.069 0.063-0.166 0.138-0.372 0.218-0.588 0.229-0.017 0.001-0.034 0.001-0.051 0.001s-0.034-0-0.050-0.001c-0.247-0.012-0.481-0.116-0.657-0.292l-3.332-3.335c-0.39-0.391-0.391-1.024 0-1.415s1.024-0.39 1.414 0.001l2.626 2.628z"></path>
</svg>
