<!-- Generated by IcoMoon.io -->
<svg version="1.1" xmlns="http://www.w3.org/2000/svg" width="32" height="32" viewBox="0 0 32 32">
<title>task-list-square-add-filled</title>
<path d="M4 7c0-1.657 1.343-3 3-3h18c1.657 0 3 1.343 3 3v9.029c-1.347-0.862-2.949-1.362-4.667-1.362-4.787 0-8.667 3.88-8.667 8.667 0 1.718 0.5 3.32 1.362 4.667h-9.029c-1.657 0-3-1.343-3-3v-18zM13.707 11.707c0.391-0.391 0.391-1.024 0-1.414s-1.024-0.391-1.414 0l-1.96 1.96-0.626-0.626c-0.391-0.391-1.024-0.391-1.414 0s-0.391 1.024 0 1.414l1.333 1.333c0.391 0.391 1.024 0.391 1.414 0l2.667-2.667zM13.707 19.040c0.391-0.391 0.391-1.024 0-1.414s-1.024-0.391-1.414 0l-1.96 1.959-0.626-0.626c-0.391-0.391-1.024-0.391-1.414 0s-0.391 1.024 0 1.414l1.333 1.333c0.391 0.391 1.024 0.391 1.414 0l2.667-2.667zM17.667 11.333c-0.552 0-1 0.448-1 1s0.448 1 1 1h4.667c0.552 0 1-0.448 1-1s-0.448-1-1-1h-4.667zM30.667 23.333c0-4.050-3.283-7.333-7.333-7.333s-7.333 3.283-7.333 7.333c0 4.050 3.283 7.333 7.333 7.333s7.333-3.283 7.333-7.333zM24.001 24l0.001 3.338c0 0.368-0.298 0.667-0.667 0.667s-0.667-0.298-0.667-0.667l-0.001-3.338h-3.339c-0.368 0-0.667-0.298-0.667-0.667s0.299-0.667 0.667-0.667h3.339l-0.001-3.334c0-0.368 0.299-0.667 0.667-0.667s0.667 0.298 0.667 0.667l0.001 3.334h3.337c0.368 0 0.667 0.299 0.667 0.667s-0.298 0.667-0.667 0.667h-3.337z"></path>
</svg>
