<!-- Generated by IcoMoon.io -->
<svg version="1.1" xmlns="http://www.w3.org/2000/svg" width="32" height="32" viewBox="0 0 32 32">
<title>task-list-square-database-filled</title>
<path d="M9.6 4.8c-2.651 0-4.8 2.149-4.8 4.8v0 12.8c0 2.651 2.149 4.8 4.8 4.8v0h4.882c-0.052-0.24-0.082-0.515-0.082-0.797 0-0.001 0-0.002 0-0.003v0-6.469l-2.234 2.234c-0.145 0.145-0.345 0.235-0.566 0.235-0.208 0-0.398-0.079-0.54-0.21l0.001 0.001-1.2-1.096c-0.149-0.145-0.241-0.348-0.241-0.573 0-0.442 0.358-0.8 0.8-0.8 0.199 0 0.381 0.073 0.521 0.193l-0.001-0.001 0.635 0.581 2.259-2.261c0.144-0.144 0.344-0.234 0.564-0.234 0.001 0 0.002 0 0.003 0h-0v-1.2c0-1.949 1.403-3.378 2.931-4.227 1.584-0.88 3.661-1.373 5.869-1.373 1.419 0 2.784 0.205 4 0.584v-2.184c0-2.651-2.149-4.8-4.8-4.8v0h-12.8zM27.2 13.474c-1.144-0.426-2.52-0.674-4-0.674-3.976 0-7.2 1.792-7.2 4s3.224 4 7.2 4 7.2-1.792 7.2-4c0-1.387-1.27-2.608-3.2-3.326zM14.966 10.234c0.145 0.145 0.235 0.345 0.235 0.566s-0.090 0.422-0.235 0.566l-2.8 2.8c-0.145 0.145-0.345 0.234-0.565 0.234-0.209 0-0.398-0.080-0.541-0.21l0.001 0.001-1.2-1.096c-0.172-0.148-0.28-0.365-0.28-0.608 0-0.442 0.358-0.8 0.8-0.8 0.217 0 0.415 0.087 0.559 0.227l-0-0 0.635 0.579 2.259-2.259c0.145-0.145 0.345-0.235 0.566-0.235s0.422 0.090 0.566 0.235l0 0zM23.2 22.4c2.208 0 4.285-0.494 5.869-1.373 0.469-0.261 0.925-0.576 1.333-0.944l-0.002 6.317c0 2.21-3.224 4-7.2 4s-7.2-1.792-7.2-4v-6.312c0.408 0.368 0.864 0.68 1.331 0.941 1.584 0.88 3.661 1.373 5.869 1.373z"></path>
</svg>
