<!-- Generated by IcoMoon.io -->
<svg version="1.1" xmlns="http://www.w3.org/2000/svg" width="32" height="32" viewBox="0 0 32 32">
<title>task-list-add-filled</title>
<path d="M8.943 3.057c-0.521-0.521-1.365-0.521-1.886 0l-1.724 1.724-0.391-0.391c-0.521-0.521-1.365-0.521-1.886 0s-0.521 1.365 0 1.886l1.333 1.333c0.521 0.521 1.365 0.521 1.886 0l2.667-2.667c0.521-0.521 0.521-1.365 0-1.886zM14.667 23.333c0 0.221 0.008 0.441 0.025 0.658h-1.358c-0.736 0-1.333-0.597-1.333-1.333 0-0.684 0.515-1.247 1.178-1.324l0.155-0.009h1.567c-0.153 0.645-0.234 1.317-0.234 2.009zM23.333 14.667c1.699 0 3.283 0.489 4.621 1.333h0.051l0.155-0.009c0.663-0.077 1.178-0.641 1.178-1.324 0-0.736-0.597-1.333-1.333-1.333l-14.827 0.009c-0.663 0.077-1.178 0.641-1.178 1.324 0 0.736 0.597 1.333 1.333 1.333h5.379c1.337-0.845 2.922-1.333 4.621-1.333zM28.005 5.333l-14.827 0.009c-0.663 0.077-1.178 0.641-1.178 1.324 0 0.736 0.597 1.333 1.333 1.333l14.827-0.009c0.663-0.077 1.178-0.641 1.178-1.324 0-0.736-0.597-1.333-1.333-1.333zM8.943 20.391c-0.521-0.521-1.365-0.521-1.886 0l-1.724 1.724-0.391-0.391c-0.521-0.521-1.365-0.521-1.886 0s-0.521 1.365 0 1.886l1.333 1.333c0.521 0.521 1.365 0.521 1.886 0l2.667-2.667c0.521-0.521 0.521-1.365 0-1.886zM7.057 11.724c0.521-0.521 1.365-0.521 1.886 0s0.521 1.365 0 1.886l-2.667 2.667c-0.521 0.521-1.365 0.521-1.886 0l-1.333-1.333c-0.521-0.521-0.521-1.365 0-1.886s1.365-0.521 1.886 0l0.391 0.391 1.724-1.724zM30.667 23.333c0-4.050-3.283-7.333-7.333-7.333s-7.333 3.283-7.333 7.333c0 4.050 3.283 7.333 7.333 7.333s7.333-3.283 7.333-7.333zM24.001 24l0.001 3.338c0 0.368-0.298 0.667-0.667 0.667s-0.667-0.298-0.667-0.667l-0.001-3.338h-3.34c-0.368 0-0.666-0.298-0.666-0.667s0.298-0.667 0.666-0.667h3.34l-0.001-3.334c0-0.368 0.299-0.667 0.667-0.667s0.667 0.298 0.667 0.667l0.001 3.334h3.328c0.368 0 0.666 0.299 0.666 0.667s-0.298 0.667-0.666 0.667h-3.328z"></path>
</svg>
