<!-- Generated by IcoMoon.io -->
<svg version="1.1" xmlns="http://www.w3.org/2000/svg" width="32" height="32" viewBox="0 0 32 32">
<title>tasks-app-filled</title>
<path d="M8.286 2.286c-2.051 0-3.714 1.663-3.714 3.714v0 20c0 2.051 1.663 3.714 3.714 3.714v0h10.935l-2.465-2.465c-0.465-0.465-0.753-1.108-0.753-1.818 0-1.42 1.151-2.571 2.571-2.571 0.71 0 1.353 0.288 1.818 0.753l1.608 1.608 5.039-5.039c0.121-0.121 0.251-0.229 0.39-0.32v-13.862c0-2.051-1.663-3.714-3.714-3.714v0h-15.429zM12 10c0 0.789-0.64 1.429-1.429 1.429s-1.429-0.64-1.429-1.429v0c0-0.789 0.64-1.429 1.429-1.429s1.429 0.64 1.429 1.429v0zM10.571 17.429c-0.789 0-1.429-0.64-1.429-1.429s0.64-1.429 1.429-1.429v0c0.789 0 1.429 0.64 1.429 1.429s-0.64 1.429-1.429 1.429v0zM10.571 23.429c-0.789 0-1.429-0.64-1.429-1.429s0.64-1.429 1.429-1.429v0c0.789 0 1.429 0.64 1.429 1.429s-0.64 1.429-1.429 1.429v0zM14.571 9.143h7.429c0.473 0 0.857 0.384 0.857 0.857s-0.384 0.857-0.857 0.857v0h-7.429c-0.473 0-0.857-0.384-0.857-0.857s0.384-0.857 0.857-0.857v0zM13.714 16c0-0.473 0.384-0.857 0.857-0.857v0h7.429c0.473 0 0.857 0.384 0.857 0.857s-0.384 0.857-0.857 0.857v0h-7.429c-0.473 0-0.857-0.384-0.857-0.857v0zM14.571 21.143h7.429c0.473 0 0.857 0.384 0.857 0.857s-0.384 0.857-0.857 0.857v0h-7.429c-0.473 0-0.857-0.384-0.857-0.857s0.384-0.857 0.857-0.857v0zM22.606 29.463l6.857-6.857c0.168-0.157 0.273-0.38 0.273-0.627 0-0.473-0.384-0.857-0.857-0.857-0.247 0-0.47 0.105-0.627 0.272l-0 0-6.251 6.251-2.821-2.821c-0.153-0.143-0.358-0.23-0.584-0.23-0.473 0-0.857 0.384-0.857 0.857 0 0.226 0.087 0.432 0.23 0.585l-0-0 3.426 3.426c0.155 0.155 0.369 0.251 0.606 0.251s0.451-0.096 0.606-0.251v0z"></path>
</svg>
