<!-- Generated by IcoMoon.io -->
<svg version="1.1" xmlns="http://www.w3.org/2000/svg" width="32" height="32" viewBox="0 0 32 32">
<title>teddy-filled</title>
<path d="M4.276 13.695c-0.592-0.847-0.945-1.898-0.945-3.031 0-2.946 2.388-5.333 5.333-5.333 1.562 0 2.967 0.672 3.943 1.742l0.004 0.004c-3.777 0.937-6.859 3.4-8.335 6.619zM19.389 7.077c0.979-1.074 2.384-1.746 3.947-1.746 2.946 0 5.333 2.388 5.333 5.333 0 1.134-0.354 2.185-0.957 3.049l0.011-0.017c-1.476-3.22-4.557-5.683-8.335-6.619zM8.837 25.751c-2.544-1.833-4.171-4.625-4.171-7.751 0-5.523 5.075-10 11.333-10s11.333 4.477 11.333 10c0 3.125-1.627 5.917-4.171 7.751-0.352-1.555-1.158-2.884-2.269-3.879l-0.007-0.006c-1.291-1.157-3.006-1.865-4.887-1.865-3.489 0-6.41 2.436-7.153 5.701l-0.009 0.049zM19.997 22.86c-0.576-0.518-1.261-0.929-2.014-1.193l-0.042-0.013c-0.215 0.581-1.003 1.012-1.941 1.012s-1.725-0.431-1.941-1.013c-2.124 0.743-3.682 2.587-4 4.831l-0.004 0.032c1.703 0.934 3.731 1.484 5.888 1.484 0.020 0 0.041-0 0.061-0h-0.003c0.017 0 0.037 0 0.057 0 2.157 0 4.185-0.55 5.953-1.517l-0.065 0.032c-0.205-1.463-0.913-2.732-1.941-3.651l-0.006-0.005z"></path>
</svg>
