<!-- Generated by IcoMoon.io -->
<svg version="1.1" xmlns="http://www.w3.org/2000/svg" width="32" height="32" viewBox="0 0 32 32">
<title>temperature-filled</title>
<path d="M16 6c-1.381 0-2.5 1.119-2.5 2.5v0 10.138l-0.323 0.297c-0.828 0.764-1.344 1.854-1.344 3.065 0 2.301 1.865 4.167 4.167 4.167s4.167-1.865 4.167-4.167c0-1.211-0.517-2.301-1.341-3.063l-0.003-0.003-0.322-0.297v-10.138c0-1.381-1.119-2.5-2.5-2.5v0zM11.5 8.5c0-2.485 2.015-4.5 4.5-4.5s4.5 2.015 4.5 4.5v0 9.283c1.032 1.1 1.667 2.584 1.667 4.216 0 3.406-2.761 6.167-6.167 6.167s-6.167-2.761-6.167-6.167c0-1.632 0.634-3.117 1.67-4.22l-0.003 0.003v-9.283zM18.667 22c-0.001 1.472-1.194 2.665-2.667 2.665s-2.667-1.194-2.667-2.667c0-1.112 0.681-2.066 1.649-2.466l0.018-0.006v-7.193c0-0.552 0.448-1 1-1s1 0.448 1 1v0 7.193c0.986 0.407 1.667 1.36 1.667 2.473 0 0 0 0.001 0 0.001v-0z"></path>
</svg>
