<!-- Generated by IcoMoon.io -->
<svg version="1.1" xmlns="http://www.w3.org/2000/svg" width="32" height="32" viewBox="0 0 32 32">
<title>temperature-filled</title>
<path d="M16 2.667c2.856 0 5.188 2.245 5.327 5.067l0.007 0.266 0.001 8.971 0.074 0.077c1.061 1.158 1.729 2.629 1.888 4.214l0.028 0.368 0.009 0.371c0 4.050-3.283 7.333-7.333 7.333s-7.333-3.283-7.333-7.333c0-1.74 0.611-3.384 1.688-4.681l0.238-0.273 0.073-0.077 0.001-8.969c0-2.764 2.103-5.037 4.796-5.307l0.271-0.020 0.266-0.007zM16 5.333c-1.406 0-2.558 1.088-2.659 2.468l-0.007 0.199-0 10.124-0.444 0.397c-0.984 0.881-1.556 2.132-1.556 3.478 0 2.577 2.089 4.667 4.667 4.667s4.667-2.089 4.667-4.667c0-1.25-0.492-2.417-1.35-3.283l-0.204-0.194-0.444-0.397-0.002-10.125c0-1.473-1.194-2.667-2.667-2.667zM16 10.667c0.736 0 1.333 0.597 1.333 1.333l0.001 6.945c1.177 0.515 1.999 1.689 1.999 3.055 0 1.841-1.492 3.333-3.333 3.333s-3.333-1.492-3.333-3.333c0-1.367 0.823-2.542 2-3.056l-0-6.944c0-0.736 0.597-1.333 1.333-1.333z"></path>
</svg>
