<!-- Generated by IcoMoon.io -->
<svg version="1.1" xmlns="http://www.w3.org/2000/svg" width="32" height="32" viewBox="0 0 32 32">
<title>tent-filled</title>
<path d="M16.668 4.013c-0.154-0.184-0.383-0.3-0.64-0.3s-0.486 0.116-0.639 0.298l-0.001 0.001c-1.995 2.393-5.93 5.233-8.193 6.497-0.224 0.127-0.381 0.348-0.418 0.609l-0.001 0.004-1.82 13.209h-1.456c-0.46 0-0.833 0.373-0.833 0.833s0.373 0.833 0.833 0.833v0h25c0.46 0 0.833-0.373 0.833-0.833s-0.373-0.833-0.833-0.833v0h-1.4l-1.82-13.209c-0.038-0.265-0.196-0.487-0.416-0.611l-0.004-0.002c-2.263-1.265-6.198-4.105-8.192-6.498zM11.858 24.333c1.398-2.032 2.841-4.643 4.142-8.768 1.176 3.721 2.488 6.293 4.142 8.768h-8.285z"></path>
</svg>
