<!-- Generated by IcoMoon.io -->
<svg version="1.1" xmlns="http://www.w3.org/2000/svg" width="32" height="32" viewBox="0 0 32 32">
<title>tent-filled</title>
<path d="M16.349 2.936c-0.394-0.368-1.008-0.357-1.389 0.024l-2.266 2.266c-1.537 1.537-3.256 2.879-5.119 3.997-0.525 0.315-0.881 0.85-0.967 1.457l-1.808 12.654h-1.133c-0.552 0-1 0.448-1 1s0.448 1 1 1h24.667c0.552 0 1-0.448 1-1s-0.448-1-1-1h-1.133l-1.801-12.606c-0.093-0.649-0.486-1.217-1.062-1.531-2.046-1.116-3.943-2.485-5.647-4.075l-2.342-2.186zM18.795 20.157c0.653 1.16 1.497 2.302 2.199 3.177h-9.947c0.714-0.877 1.563-2.029 2.174-3.206 0.829-1.597 1.764-3.983 2.482-5.933 0.095-0.257 0.186-0.507 0.273-0.749 0.079 0.227 0.162 0.462 0.249 0.704 0.695 1.941 1.636 4.344 2.571 6.007z"></path>
</svg>
