<!-- Generated by IcoMoon.io -->
<svg version="1.1" xmlns="http://www.w3.org/2000/svg" width="32" height="32" viewBox="0 0 32 32">
<title>tetris-app-filled</title>
<path d="M10.667 4c0-0.736 0.597-1.333 1.333-1.333h5.333v6.667h-6.667v-5.333zM4 10.667c-0.736 0-1.333 0.597-1.333 1.333v4c0 0.736 0.597 1.333 1.333 1.333h5.333v-6.667h-5.333zM17.333 10.667h-6.667v6.667h5.333c0.736 0 1.333-0.597 1.333-1.333v-5.333zM24 2.667h-5.333v6.667h5.333c0.736 0 1.333-0.597 1.333-1.333v-4c0-0.736-0.597-1.333-1.333-1.333zM5.333 22.667c0-0.736 0.597-1.333 1.333-1.333h5.333v6.667h-5.333c-0.736 0-1.333-0.597-1.333-1.333v-4zM20 21.333h-6.667v6.667h6.667v-6.667zM21.333 21.333h6.667v5.333c0 0.736-0.597 1.333-1.333 1.333h-5.333v-6.667zM22.667 13.333c-0.736 0-1.333 0.597-1.333 1.333v5.333h6.667v-5.333c0-0.736-0.597-1.333-1.333-1.333h-4z"></path>
</svg>
