<!-- Generated by IcoMoon.io -->
<svg version="1.1" xmlns="http://www.w3.org/2000/svg" width="32" height="32" viewBox="0 0 32 32">
<title>text-font-size-filled</title>
<path d="M13.293 21.557l6.12-16.682c0.408-1.113 1.929-1.163 2.438-0.152l0.066 0.152 7.335 19.996c0.254 0.691-0.101 1.457-0.793 1.711-0.642 0.235-1.348-0.054-1.649-0.65l-0.062-0.143-1.881-5.124h-8.407l-1.922 5.226-0.055 0.105-0.096 0.144-0.103 0.12-0.113 0.104-0.11 0.080-0.067 0.041-0.112 0.058-0.139 0.054-0.14 0.037-0.178 0.025-0.143 0.003-0.094-0.007-0.137-0.022-0.2-0.059-0.092-0.039-0.133-0.073-0.149-0.107-0.122-0.115-0.085-0.101-0.082-0.12-0.072-0.137-0.994-2.551h-4.916l-0.964 2.48c-0.248 0.637-0.932 0.976-1.578 0.807l-0.148-0.048c-0.637-0.248-0.976-0.932-0.807-1.578l0.048-0.148 4.665-11.995c0.42-1.079 1.894-1.131 2.415-0.154l0.071 0.154 3.386 8.705zM8.664 17.013l-1.421 3.653h2.841l-1.42-3.653zM20.665 9.205l-3.227 8.793h6.451l-3.224-8.793z"></path>
</svg>
