<!-- Generated by IcoMoon.io -->
<svg version="1.1" xmlns="http://www.w3.org/2000/svg" width="32" height="32" viewBox="0 0 32 32">
<title>text-font-filled</title>
<path d="M9.334 2.667c0.561 0 1.061 0.351 1.253 0.878l3.842 10.567-1.481 3.731-0.67-1.843h-5.89l-1.136 3.122c-0.252 0.692-1.017 1.049-1.709 0.797s-1.049-1.017-0.797-1.709l5.334-14.667c0.192-0.527 0.692-0.878 1.253-0.878zM7.359 13.333h3.95l-1.975-5.432-1.975 5.432z"></path>
<path d="M20.49 8.704c-0.201-0.508-0.692-0.842-1.239-0.843s-1.038 0.333-1.24 0.841l-7.143 17.995h-0.201c-0.736 0-1.333 0.597-1.333 1.333s0.597 1.333 1.333 1.333h1.079c0.018 0 0.036 0 0.053 0h2.867c0.736 0 1.333-0.597 1.333-1.333s-0.597-1.333-1.333-1.333h-0.93l1.071-2.698h8.87l1.068 2.698h-0.746c-0.736 0-1.333 0.597-1.333 1.333s0.597 1.333 1.333 1.333l2.685 0c0.015 0 0.031 0 0.046 0h1.28c0.736 0 1.333-0.597 1.333-1.333s-0.597-1.333-1.333-1.333h-0.397l-7.124-17.994zM22.622 21.333h-6.756l3.382-8.521 3.373 8.521z"></path>
</svg>
