<!-- Generated by IcoMoon.io -->
<svg version="1.1" xmlns="http://www.w3.org/2000/svg" width="32" height="32" viewBox="0 0 32 32">
<title>text-underline-filled</title>
<path d="M16 4c0 0 0 0 0 0 0.551 0 1.024 0.334 1.227 0.811l0.003 0.009 6.667 16c0.065 0.152 0.103 0.328 0.103 0.513 0 0.736-0.597 1.333-1.333 1.333-0.551 0-1.024-0.334-1.227-0.811l-0.003-0.009-1.88-4.513h-7.111l-1.88 4.513c-0.206 0.486-0.68 0.821-1.231 0.821-0.737 0-1.334-0.597-1.334-1.334 0-0.185 0.038-0.362 0.106-0.522l-0.003 0.009 6.667-16c0.206-0.486 0.679-0.82 1.231-0.82 0 0 0 0 0 0v0zM13.556 14.667h4.889l-2.445-5.867-2.444 5.867zM8 25.333c0-0.736 0.597-1.333 1.333-1.333v0h13.333c0.736 0 1.333 0.597 1.333 1.333s-0.597 1.333-1.333 1.333v0h-13.333c-0.736 0-1.333-0.597-1.333-1.333v0z"></path>
</svg>
