<!-- Generated by IcoMoon.io -->
<svg version="1.1" xmlns="http://www.w3.org/2000/svg" width="32" height="32" viewBox="0 0 32 32">
<title>text-more-filled</title>
<path d="M16 27.333c0 1.105-0.895 2-2 2s-2-0.895-2-2 0.895-2 2-2c1.105 0 2 0.895 2 2zM22.666 27.333c0 1.105-0.895 2-2 2s-2-0.895-2-2 0.895-2 2-2c1.105 0 2 0.895 2 2zM29.333 27.333c0 1.105-0.895 2-2 2s-2-0.895-2-2 0.895-2 2-2c1.105 0 2 0.895 2 2zM19.876 24.094l-1.555-3.794h-10.475l-2.399 5.932c-0.102 0.255-0.248 0.467-0.447 0.615-0.202 0.15-0.44 0.219-0.7 0.219-0.352 0-0.665-0.088-0.889-0.311-0.209-0.209-0.318-0.484-0.344-0.8l-0.001-0.011v-0.111c0-0.141 0.011-0.276 0.047-0.384l0.006-0.017 8.8-21.531c0.105-0.262 0.264-0.477 0.483-0.623s0.479-0.211 0.765-0.211c0.273 0 0.52 0.082 0.725 0.251 0.217 0.14 0.379 0.334 0.486 0.574l0.003 0.007 8.606 21.040c-0.6-0.581-1.418-0.939-2.319-0.939-0.272 0-0.537 0.033-0.791 0.094zM8.828 17.8h8.474l-4.268-10.425-4.207 10.425z"></path>
</svg>
