<!-- Generated by IcoMoon.io -->
<svg version="1.1" xmlns="http://www.w3.org/2000/svg" width="32" height="32" viewBox="0 0 32 32">
<title>text-grammar-arrow-right-filled</title>
<path d="M4 6.667h24c0.736 0 1.333 0.597 1.333 1.333 0 0.684-0.515 1.247-1.178 1.324l-0.155 0.009h-24c-0.736 0-1.333-0.597-1.333-1.333 0-0.684 0.515-1.247 1.178-1.324l0.155-0.009z"></path>
<path d="M4 14.667c-0.736 0-1.333-0.597-1.333-1.333 0-0.684 0.515-1.247 1.178-1.324l0.155-0.009h24c0.736 0 1.333 0.597 1.333 1.333 0 0.684-0.515 1.247-1.178 1.324l-0.155 0.009h-24z"></path>
<path d="M4 20h11.331c0.416-0.997 1.012-1.899 1.749-2.667l-13.235 0.009c-0.663 0.077-1.178 0.641-1.178 1.324 0 0.736 0.597 1.333 1.333 1.333z"></path>
<path d="M4 22.667h10.692c-0.017 0.22-0.025 0.442-0.025 0.667 0 0.688 0.080 1.358 0.232 2h-10.899c-0.736 0-1.333-0.597-1.333-1.333 0-0.684 0.515-1.247 1.178-1.324l0.155-0.009z"></path>
<path d="M16 23.333c0 4.050 3.283 7.333 7.333 7.333s7.333-3.283 7.333-7.333c0-4.050-3.283-7.333-7.333-7.333s-7.333 3.283-7.333 7.333zM24.467 27.138l-0.092 0.077c-0.26 0.18-0.619 0.154-0.851-0.077l-0.077-0.092c-0.18-0.26-0.154-0.619 0.077-0.851l2.195-2.195h-6.385l-0.12-0.011c-0.311-0.056-0.547-0.329-0.547-0.656l0.011-0.12c0.056-0.311 0.329-0.547 0.656-0.547h6.385l-2.195-2.195-0.077-0.092c-0.18-0.26-0.154-0.619 0.077-0.851 0.26-0.26 0.683-0.26 0.943 0l3.354 3.355 0.068 0.088 0.045 0.082 0.039 0.107 0.020 0.114-0.003 0.147-0.025 0.114-0.030 0.078-0.059 0.102-0.054 0.067-3.354 3.355z"></path>
</svg>
