<!-- Generated by IcoMoon.io -->
<svg version="1.1" xmlns="http://www.w3.org/2000/svg" width="32" height="32" viewBox="0 0 32 32">
<title>text-case-uppercase-filled</title>
<path d="M24 4h-4c-0.736 0-1.333 0.597-1.333 1.333v0 20.333c0 0.736 0.597 1.333 1.333 1.333v0h5.167c0.001 0 0.002 0 0.004 0 3.59 0 6.5-2.91 6.5-6.5 0-2.393-1.294-4.485-3.22-5.613l-0.031-0.017c1.182-1.152 1.915-2.759 1.915-4.537 0-3.498-2.836-6.333-6.333-6.333-0 0-0.001 0-0.002 0h0zM24 14h-2.667v-7.333h2.667c2.025 0 3.667 1.642 3.667 3.667s-1.642 3.667-3.667 3.667v0zM21.333 24.333v-7.667h3.833c2.117 0 3.833 1.716 3.833 3.833s-1.716 3.833-3.833 3.833v0h-3.833zM9.676 4c0.57 0.004 1.055 0.365 1.242 0.871l0.003 0.009 7.333 20.333c0.050 0.135 0.079 0.291 0.079 0.453 0 0.736-0.597 1.333-1.333 1.333-0.574 0-1.063-0.362-1.251-0.871l-0.003-0.009-1.727-4.787h-8.96l-1.812 4.804c-0.201 0.498-0.68 0.844-1.24 0.844-0.736 0-1.333-0.597-1.333-1.333 0-0.162 0.029-0.317 0.082-0.461l-0.003 0.009 7.667-20.333c0.196-0.508 0.68-0.863 1.248-0.863 0.003 0 0.006 0 0.009 0h-0zM6.067 18.667h6.993l-3.421-9.48-3.572 9.48z"></path>
</svg>
