<!-- Generated by IcoMoon.io -->
<svg version="1.1" xmlns="http://www.w3.org/2000/svg" width="32" height="32" viewBox="0 0 32 32">
<title>text-bullet-list-rtl-rotate-90-filled</title>
<path d="M9.6 26.8c0-1.105-0.895-2-2-2s-2 0.895-2 2v0c0 1.105 0.895 2 2 2s2-0.895 2-2v0zM7.6 20.8c-0.663 0-1.2-0.537-1.2-1.2v0-15.2c0-0.663 0.537-1.2 1.2-1.2s1.2 0.537 1.2 1.2v0 15.2c0 0.663-0.537 1.2-1.2 1.2v0zM14.4 19.6c0 0.663 0.537 1.2 1.2 1.2s1.2-0.537 1.2-1.2v0-15.2c0-0.663-0.537-1.2-1.2-1.2s-1.2 0.537-1.2 1.2v0 15.2zM22.4 19.6c0 0.663 0.537 1.2 1.2 1.2s1.2-0.537 1.2-1.2v0-15.2c0-0.663-0.537-1.2-1.2-1.2s-1.2 0.537-1.2 1.2v0 15.2zM15.6 24.8c1.105 0 2 0.895 2 2s-0.895 2-2 2v0c-1.105 0-2-0.895-2-2s0.895-2 2-2v0zM25.6 26.8c0-1.105-0.895-2-2-2s-2 0.895-2 2v0c0 1.105 0.895 2 2 2s2-0.895 2-2v0z"></path>
</svg>
