<!-- Generated by IcoMoon.io -->
<svg version="1.1" xmlns="http://www.w3.org/2000/svg" width="32" height="32" viewBox="0 0 32 32">
<title>text-field-filled</title>
<path d="M2.667 10.333c0-2.761 2.239-5 5-5h16.667c2.761 0 5 2.239 5 5v11.333c0 2.761-2.239 5-5 5h-16.667c-2.761 0-5-2.239-5-5v-11.333zM11 9.333c-0.552 0-1 0.448-1 1v2c0 0.552 0.448 1 1 1s1-0.448 1-1v-1h3v9.333h-0.667c-0.552 0-1 0.448-1 1s0.448 1 1 1h3.333c0.552 0 1-0.448 1-1s-0.448-1-1-1h-0.667v-9.333h3v1c0 0.552 0.448 1 1 1s1-0.448 1-1v-2c0-0.552-0.448-1-1-1h-10z"></path>
</svg>
