<!-- Generated by IcoMoon.io -->
<svg version="1.1" xmlns="http://www.w3.org/2000/svg" width="32" height="32" viewBox="0 0 32 32">
<title>text-column-one-wide-lightning-filled</title>
<path d="M5.333 6.667c-0.736 0-1.333 0.597-1.333 1.333s0.597 1.333 1.333 1.333h21.333c0.736 0 1.333-0.597 1.333-1.333s-0.597-1.333-1.333-1.333h-21.333zM5.333 12c-0.736 0-1.333 0.597-1.333 1.333s0.597 1.333 1.333 1.333h21.333c0.736 0 1.333-0.597 1.333-1.333s-0.597-1.333-1.333-1.333h-21.333zM14.667 23.333c0-0.224 0.009-0.447 0.025-0.667h-9.359c-0.736 0-1.333 0.597-1.333 1.333s0.597 1.333 1.333 1.333h9.565c-0.152-0.642-0.232-1.312-0.232-2zM15.331 20c0.416-0.997 1.012-1.899 1.749-2.667h-11.746c-0.736 0-1.333 0.597-1.333 1.333s0.597 1.333 1.333 1.333h9.998zM30.667 23.333c0 4.050-3.283 7.333-7.333 7.333s-7.333-3.283-7.333-7.333c0-4.050 3.283-7.333 7.333-7.333s7.333 3.283 7.333 7.333zM24.705 18.667h-1.909c-0.278 0-0.527 0.172-0.624 0.433l-1.5 4c-0.163 0.436 0.159 0.901 0.624 0.901h1.038l-1.030 3.091c-0.149 0.447 0.184 0.909 0.655 0.909 0.234 0 0.452-0.118 0.579-0.314l3.5-5.385c0.271-0.417-0.028-0.968-0.525-0.968h-0.846l0.662-1.766c0.163-0.436-0.159-0.901-0.624-0.901z"></path>
</svg>
