<!-- Generated by IcoMoon.io -->
<svg version="1.1" xmlns="http://www.w3.org/2000/svg" width="32" height="32" viewBox="0 0 32 32">
<title>text-font-size-filled</title>
<path d="M13.293 21.557l6.12-16.681c0.408-1.113 1.928-1.164 2.439-0.152l0.065 0.152 7.335 19.995c0.050 0.134 0.078 0.288 0.078 0.45 0 0.736-0.597 1.333-1.333 1.333-0.513 0-0.958-0.29-1.181-0.715l-0.003-0.007-0.063-0.143-1.883-5.123h-8.407l-1.923 5.227-0.053 0.105-0.097 0.144-0.103 0.12-0.113 0.103-0.111 0.080-0.067 0.043-0.112 0.057-0.139 0.053-0.14 0.037-0.177 0.027-0.143 0.001-0.095-0.007-0.137-0.021-0.2-0.059-0.092-0.040-0.133-0.073-0.148-0.107-0.123-0.115-0.085-0.101-0.081-0.12-0.072-0.136-0.995-2.551h-4.915l-0.964 2.48c-0.199 0.502-0.68 0.851-1.243 0.851-0.119 0-0.234-0.016-0.344-0.045l0.009 0.002-0.148-0.048c-0.502-0.199-0.851-0.68-0.851-1.243 0-0.119 0.016-0.235 0.045-0.345l-0.002 0.009 0.048-0.147 4.665-11.996c0.42-1.080 1.893-1.131 2.413-0.155l0.072 0.155 3.385 8.705zM8.665 17.015l-1.421 3.652h2.841l-1.42-3.653zM20.665 9.207l-3.227 8.792h6.451l-3.224-8.792z"></path>
</svg>
