<!-- Generated by IcoMoon.io -->
<svg version="1.1" xmlns="http://www.w3.org/2000/svg" width="32" height="32" viewBox="0 0 32 32">
<title>text-indent-decrease-rtl-filled</title>
<path d="M7.333 9.333c0 0.736 0.597 1.333 1.333 1.333v0l11.489-0.009c0.666-0.081 1.176-0.643 1.176-1.324 0-0.736-0.596-1.332-1.332-1.333l-11.489 0.009c-0.666 0.081-1.177 0.643-1.177 1.324v0zM4.667 17.335l15.489-0.011c0.666-0.081 1.176-0.643 1.176-1.324 0-0.736-0.596-1.332-1.332-1.333l-15.489 0.011c-0.661 0.086-1.165 0.646-1.165 1.323 0 0.732 0.59 1.327 1.321 1.333h0.001zM7.333 22.667c0 0.736 0.597 1.333 1.333 1.333v0l11.489-0.009c0.666-0.081 1.176-0.643 1.176-1.324 0-0.736-0.596-1.332-1.332-1.333l-11.489 0.009c-0.666 0.081-1.177 0.643-1.177 1.324v0zM26.151 19.72c-0.223 0.174-0.507 0.279-0.816 0.279-0.736 0-1.333-0.597-1.333-1.333 0-0.367 0.149-0.7 0.389-0.941l1.724-1.724-1.724-1.724-0.111-0.125c-0.174-0.223-0.279-0.507-0.279-0.816 0-0.736 0.597-1.333 1.333-1.333 0.367 0 0.7 0.149 0.941 0.389l2.667 2.667 0.111 0.125c0.174 0.223 0.28 0.508 0.28 0.817 0 0.368-0.149 0.701-0.39 0.943l-2.667 2.667-0.125 0.111z"></path>
</svg>
