<!-- Generated by IcoMoon.io -->
<svg version="1.1" xmlns="http://www.w3.org/2000/svg" width="32" height="32" viewBox="0 0 32 32">
<title>text-grammar-wand-filled</title>
<path d="M4 22.667h10.029l-2.667 2.667h-7.362c-0.736 0-1.333-0.597-1.333-1.333 0-0.684 0.515-1.247 1.178-1.324l0.155-0.009z"></path>
<path d="M4 20h10.464c-0.682-0.411-1.131-1.158-1.131-2 0-0.231 0.034-0.455 0.097-0.667l-9.586 0.009c-0.663 0.077-1.178 0.641-1.178 1.324 0 0.736 0.597 1.333 1.333 1.333z"></path>
<path d="M4 9.333l24.155-0.009c0.663-0.077 1.178-0.641 1.178-1.324 0-0.736-0.597-1.333-1.333-1.333l-24.155 0.009c-0.663 0.077-1.178 0.641-1.178 1.324 0 0.736 0.597 1.333 1.333 1.333z"></path>
<path d="M16.96 21.621c0.391-0.391 1.024-0.391 1.414 0s0.391 1.024 0 1.414l-6 6c-0.391 0.391-1.024 0.391-1.414 0s-0.391-1.024 0-1.414l6-6z"></path>
<path d="M4 12h13.333c0.736 0 1.333 0.597 1.333 1.333 0 0.684-0.515 1.247-1.178 1.324l-0.155 0.009h-13.333c-0.736 0-1.333-0.597-1.333-1.333 0-0.684 0.515-1.247 1.178-1.324l0.155-0.009z"></path>
<path d="M22 10.667c0.505 0 0.931 0.377 0.993 0.878l0.185 1.506c0.243 1.974 1.798 3.529 3.771 3.771l1.506 0.185c0.501 0.062 0.878 0.487 0.878 0.993s-0.377 0.931-0.878 0.993l-1.506 0.185c-1.974 0.243-3.529 1.798-3.771 3.771l-0.185 1.506c-0.062 0.501-0.487 0.878-0.993 0.878s-0.931-0.377-0.993-0.878l-0.185-1.506c-0.243-1.974-1.798-3.529-3.771-3.771l-1.506-0.185c-0.501-0.062-0.878-0.487-0.878-0.993s0.377-0.931 0.878-0.993l1.506-0.185c1.974-0.243 3.529-1.798 3.771-3.771l0.185-1.506c0.062-0.501 0.487-0.878 0.993-0.878z"></path>
</svg>
