<!-- Generated by IcoMoon.io -->
<svg version="1.1" xmlns="http://www.w3.org/2000/svg" width="32" height="32" viewBox="0 0 32 32">
<title>text-color-filled</title>
<path d="M23.667 19.334c1.657 0 3 1.343 3 3v4c0 1.657-1.343 3-3 3h-16.667c-1.657 0-3-1.343-3-3v-4c0-1.657 1.343-3 3-3h16.667zM9.403 15.959l5.005-12.66c0.314-0.794 1.39-0.84 1.793-0.139l0.067 0.14 4.995 12.667c0.203 0.514-0.050 1.094-0.563 1.297-0.471 0.186-0.998-0.011-1.239-0.441l-0.058-0.123-1.328-3.367h-5.484l-1.327 3.361c-0.186 0.471-0.69 0.722-1.168 0.604l-0.13-0.041c-0.471-0.186-0.722-0.69-0.604-1.168l0.041-0.13zM15.337 6.39l-1.956 4.944h3.904l-1.948-4.944z"></path>
</svg>
