<!-- Generated by IcoMoon.io -->
<svg version="1.1" xmlns="http://www.w3.org/2000/svg" width="32" height="32" viewBox="0 0 32 32">
<title>text-number-list-rtl-filled</title>
<path d="M26.667 3.667c-0-0.552-0.448-0.999-1-0.999-0.404 0-0.752 0.239-0.909 0.584l-0.003 0.006-0.003 0.004c-0.036 0.077-0.066 0.135-0.097 0.192l0.008-0.016c-0.11 0.202-0.215 0.369-0.329 0.531l0.012-0.017c-0.289 0.416-0.699 0.883-1.208 1.201-0.272 0.182-0.448 0.487-0.448 0.834 0 0.552 0.448 1 1 1 0.187 0 0.362-0.051 0.511-0.141l-0.005 0.003c0.181-0.114 0.334-0.222 0.482-0.339l-0.011 0.008v3.149c0 0.552 0.448 1 1 1s1-0.448 1-1v0-6zM17.333 24l-11.489 0.009c-0.665 0.081-1.176 0.643-1.176 1.324 0 0.736 0.596 1.332 1.332 1.333l11.489-0.009c0.666-0.081 1.176-0.643 1.176-1.324 0-0.736-0.596-1.332-1.332-1.333h-0zM17.333 15.333l-11.489 0.009c-0.665 0.081-1.176 0.643-1.176 1.324 0 0.736 0.596 1.332 1.332 1.333l11.489-0.009c0.666-0.081 1.176-0.643 1.176-1.324 0-0.736-0.596-1.332-1.332-1.333h-0zM18.667 8c0-0.736-0.597-1.333-1.333-1.333v0l-11.489 0.009c-0.665 0.081-1.176 0.643-1.176 1.324 0 0.736 0.596 1.332 1.332 1.333l11.489-0.009c0.666-0.081 1.177-0.643 1.177-1.324v0zM25.533 14.027c-0.4-0.071-0.901 0.088-1.16 0.347-0.178 0.166-0.418 0.268-0.682 0.268-0.552 0-1-0.448-1-1 0-0.264 0.102-0.504 0.269-0.682l-0.001 0.001c0.741-0.741 1.907-1.083 2.923-0.903 0.529 0.093 1.073 0.339 1.487 0.807 0.421 0.477 0.631 1.1 0.631 1.803 0 0.827-0.361 1.44-0.808 1.893-0.371 0.377-0.84 0.681-1.208 0.919l-0.107 0.068c-0.248 0.158-0.457 0.307-0.658 0.466l0.017-0.013h1.764c0.552 0 1 0.448 1 1s-0.448 1-1 1v0h-3.333c-0.552 0-1-0.448-1-1v0c0-1.751 1.312-2.604 2.1-3.116l0.080-0.053c0.424-0.273 0.711-0.46 0.92-0.672 0.179-0.181 0.233-0.317 0.233-0.492 0-0.297-0.081-0.424-0.131-0.48-0.087-0.087-0.203-0.145-0.332-0.16l-0.003-0zM22.627 28.373s0.124 0.112 0.005 0.007l0.008 0.007 0.017 0.017c0.061 0.058 0.126 0.113 0.195 0.163l0.005 0.004c0.127 0.095 0.303 0.211 0.529 0.324 0.455 0.227 1.107 0.44 1.947 0.44 0.853 0 1.595-0.243 2.135-0.72 0.544-0.48 0.813-1.144 0.793-1.813-0.018-0.563-0.23-1.073-0.571-1.47l0.003 0.003c0.345-0.408 0.549-0.915 0.567-1.469 0.001-0.022 0.001-0.047 0.001-0.073 0-0.694-0.306-1.316-0.79-1.738l-0.003-0.002c-0.54-0.476-1.281-0.719-2.135-0.719-0.84 0-1.492 0.211-1.947 0.44-0.259 0.13-0.482 0.278-0.685 0.45l0.005-0.004c-0.019 0.016-0.035 0.031-0.051 0.045l0.001-0.001-0.017 0.017-0.008 0.007-0.003 0.004h-0.001l-0.001 0.003c-0.172 0.179-0.277 0.423-0.277 0.691 0 0.552 0.448 1 1 1 0.26 0 0.498-0.1 0.676-0.263l-0.001 0.001c0.075-0.059 0.158-0.113 0.248-0.157l0.008-0.004c0.212-0.107 0.56-0.227 1.053-0.227 0.48 0 0.715 0.132 0.811 0.217 0.072 0.057 0.117 0.144 0.117 0.241 0 0.003-0 0.006-0 0.008v-0c-0.010 0.125-0.072 0.233-0.163 0.306l-0.001 0.001c-0.117 0.104-0.351 0.227-0.764 0.227-0.552 0-1 0.448-1 1s0.448 1 1 1v0c0.413 0 0.647 0.12 0.764 0.223 0.121 0.107 0.161 0.221 0.164 0.308 0 0.002 0 0.005 0 0.008 0 0.098-0.046 0.185-0.117 0.242l-0.001 0c-0.096 0.084-0.329 0.217-0.811 0.217-0.015 0-0.032 0.001-0.049 0.001-0.365 0-0.71-0.084-1.018-0.233l0.014 0.006c-0.098-0.049-0.181-0.103-0.259-0.165l0.003 0.002c-0.177-0.162-0.414-0.262-0.675-0.262-0.552 0-1 0.448-1 1 0 0.268 0.106 0.512 0.278 0.692l-0-0zM22.629 22.291h-0.001c0.009-0.007 0.267-0.221 0 0z"></path>
</svg>
