<!-- Generated by IcoMoon.io -->
<svg version="1.1" xmlns="http://www.w3.org/2000/svg" width="32" height="32" viewBox="0 0 32 32">
<title>text-superscript-filled</title>
<path d="M24.981 5c-0.515 0-0.981 0.486-0.981 1.030 0 0.736-0.597 1.333-1.333 1.333s-1.333-0.597-1.333-1.333c0-1.819 1.47-3.697 3.648-3.697 1.24 0 2.457 0.58 3.147 1.64 0.73 1.122 0.728 2.557-0.069 3.914-0.409 0.697-0.964 1.211-1.474 1.614-0.256 0.202-0.518 0.389-0.757 0.558l-0.104 0.074c-0.205 0.144-0.389 0.275-0.568 0.409-0.215 0.162-0.396 0.311-0.548 0.457h2.659c0.736 0 1.333 0.597 1.333 1.333s-0.597 1.333-1.333 1.333h-4.601c-0.736 0-1.333-0.597-1.333-1.333 0-2.023 1.203-3.156 2.219-3.921 0.214-0.161 0.436-0.318 0.639-0.461l0.097-0.069c0.236-0.167 0.447-0.318 0.643-0.473 0.393-0.311 0.659-0.584 0.828-0.872 0.36-0.613 0.236-0.951 0.133-1.109-0.143-0.22-0.468-0.428-0.912-0.428z"></path>
<path d="M15.089 16l5.867-6.845c0.177-0.262 0.369-0.499 0.567-0.715-0.861-0.409-1.468-1.267-1.519-2.271l-6.67 7.782-6.988-8.152c-0.479-0.559-1.321-0.624-1.88-0.145s-0.624 1.321-0.145 1.88l7.256 8.466-7.256 8.466c-0.479 0.559-0.414 1.401 0.145 1.88s1.401 0.414 1.88-0.145l6.988-8.152 6.988 8.152c0.479 0.559 1.321 0.624 1.88 0.145s0.624-1.321 0.145-1.88l-7.256-8.466z"></path>
</svg>
