<!-- Generated by IcoMoon.io -->
<svg version="1.1" xmlns="http://www.w3.org/2000/svg" width="32" height="32" viewBox="0 0 32 32">
<title>text-grammar-settings-filled</title>
<path d="M14.692 22.667l-10.848 0.009c-0.665 0.081-1.176 0.643-1.176 1.324 0 0.736 0.596 1.332 1.332 1.333h10.899c-0.148-0.6-0.232-1.289-0.232-1.997 0-0.236 0.009-0.469 0.028-0.7l-0.002 0.030zM28 14.667h-24c-0.736-0.001-1.332-0.597-1.332-1.333 0-0.681 0.51-1.243 1.169-1.323l0.006-0.001 0.156-0.009h24c0.736 0.001 1.332 0.597 1.332 1.333 0 0.681-0.51 1.243-1.169 1.323l-0.006 0.001-0.156 0.009zM4 20h11.331c0.438-1.032 1.027-1.916 1.752-2.669l-0.003 0.003-13.236 0.009c-0.665 0.081-1.176 0.643-1.176 1.324 0 0.736 0.596 1.332 1.332 1.333h0zM28 6.667l-24.156 0.009c-0.665 0.081-1.176 0.643-1.176 1.324 0 0.736 0.596 1.332 1.332 1.333l24.156-0.009c0.666-0.081 1.176-0.643 1.176-1.324 0-0.736-0.596-1.332-1.332-1.333h-0zM19.037 18.633l-0.264-0.915c0.564-0.493 1.218-0.903 1.931-1.199l0.047-0.017 0.665 0.699c0.487 0.511 1.173 0.829 1.933 0.829s1.446-0.318 1.932-0.828l0.001-0.001 0.657-0.691c0.76 0.317 1.415 0.731 1.986 1.236l-0.008-0.006-0.248 0.84c-0.069 0.226-0.109 0.486-0.109 0.755 0 1.251 0.862 2.301 2.024 2.589l0.018 0.004 0.719 0.173c0.063 0.37 0.1 0.796 0.1 1.23 0 0.417-0.033 0.826-0.097 1.224l0.006-0.044-0.779 0.192c-1.172 0.298-2.025 1.343-2.025 2.588 0 0.264 0.038 0.518 0.109 0.759l-0.005-0.019 0.263 0.915c-0.564 0.495-1.218 0.905-1.931 1.2l-0.046 0.017-0.664-0.7c-0.487-0.512-1.173-0.83-1.933-0.83s-1.447 0.318-1.932 0.829l-0.001 0.001-0.657 0.691c-0.76-0.316-1.415-0.73-1.986-1.235l0.008 0.007 0.249-0.841c0.069-0.226 0.109-0.485 0.109-0.754 0-1.251-0.862-2.301-2.024-2.589l-0.018-0.004-0.72-0.173c-0.064-0.37-0.1-0.796-0.1-1.23 0-0.417 0.033-0.826 0.098-1.224l-0.006 0.044 0.779-0.192c1.173-0.297 2.026-1.343 2.026-2.589 0-0.264-0.038-0.519-0.11-0.76l0.005 0.019zM23.333 25.333c1.067 0 1.933-0.896 1.933-2 0-1.105-0.867-2-1.933-2s-1.933 0.895-1.933 2c0 1.104 0.867 2 1.933 2z"></path>
</svg>
