<!-- Generated by IcoMoon.io -->
<svg version="1.1" xmlns="http://www.w3.org/2000/svg" width="32" height="32" viewBox="0 0 32 32">
<title>text-number-format-filled</title>
<path d="M7.945 4.555c-0.189-0.522-0.68-0.888-1.257-0.888-0.563 0-1.045 0.349-1.24 0.843l-0.003 0.009-3.355 8.667c-0.054 0.139-0.085 0.3-0.085 0.468 0 0.736 0.597 1.333 1.333 1.333 0.558 0 1.036-0.343 1.235-0.829l0.003-0.009 0.291-0.751h3.387l0.253 0.715c0.177 0.543 0.679 0.929 1.271 0.929 0.736 0 1.333-0.597 1.333-1.333 0-0.175-0.034-0.342-0.095-0.496l0.003 0.009-3.075-8.667zM7.307 10.731h-1.407l0.733-1.897 0.675 1.897zM12 5c0-0.736 0.597-1.333 1.333-1.333v0h2.913c0.292 0 1.143-0.003 1.935 0.44 0.443 0.247 0.859 0.625 1.156 1.173 0.292 0.541 0.428 1.176 0.428 1.887 0 0.704-0.153 1.297-0.415 1.784 0.177 0.169 0.341 0.369 0.484 0.603 0.336 0.553 0.497 1.209 0.497 1.947 0 0.715-0.172 1.349-0.507 1.883-0.302 0.472-0.711 0.85-1.194 1.109l-0.017 0.008c-0.832 0.448-1.717 0.5-2.116 0.5h-3.165c-0.736 0-1.333-0.597-1.333-1.333v0-8.667zM16.224 8c0.005 0 0.010 0 0.016 0 0.219 0 0.426-0.054 0.607-0.15l-0.007 0.003c0.067-0.038 0.121-0.093 0.158-0.158l0.001-0.002c0.037-0.068 0.1-0.221 0.1-0.527 0-0.372-0.071-0.549-0.108-0.619-0.024-0.049-0.062-0.088-0.108-0.113l-0.001-0.001c-0.147-0.081-0.369-0.101-0.667-0.101h-1.548v1.667h1.559zM16.231 10.667h-1.564v1.667h1.833c0.227 0 0.592-0.040 0.853-0.181 0.088-0.043 0.16-0.107 0.212-0.185l0.001-0.002c0.037-0.057 0.1-0.189 0.1-0.465 0-0.347-0.073-0.501-0.107-0.56-0.040-0.063-0.097-0.111-0.164-0.14l-0.002-0.001c-0.233-0.115-0.56-0.132-0.893-0.132h-0.268zM27.516 4.063c0.92 0.451 1.611 1.292 2.071 2.565 0.050 0.135 0.079 0.29 0.079 0.452 0 0.737-0.597 1.334-1.334 1.334-0.574 0-1.064-0.363-1.252-0.872l-0.003-0.009c-0.291-0.807-0.593-1.005-0.736-1.075-0.212-0.104-0.467-0.124-1.009-0.124-0.421 0-0.669 0.129-0.848 0.288-0.207 0.184-0.387 0.471-0.528 0.847-0.116 0.311-0.205 0.673-0.251 1.049l-0.002 0.023c-0.017 0.127-0.030 0.282-0.036 0.439l-0 0.009v0.016c0 0.707 0.013 1.54 0.281 2.225 0.105 0.291 0.276 0.536 0.495 0.728l0.002 0.002c0.2 0.164 0.512 0.325 1.035 0.383 0.157 0.017 0.5 0.017 0.835-0.107 0.295-0.109 0.595-0.315 0.803-0.773 0.21-0.478 0.679-0.806 1.225-0.806 0.736 0 1.333 0.597 1.333 1.333 0 0.208-0.047 0.404-0.132 0.58l0.003-0.008c-1.117 2.469-3.573 2.52-4.361 2.432-0.977-0.109-1.792-0.445-2.435-0.976-0.566-0.478-1.006-1.088-1.274-1.783l-0.010-0.030c-0.408-1.037-0.488-2.176-0.467-3.28 0.009-0.262 0.029-0.508 0.060-0.751l-0.004 0.039c0.055-0.44 0.167-1.051 0.403-1.679 0.233-0.623 0.616-1.337 1.253-1.904 0.665-0.591 1.543-0.96 2.62-0.96h0.061c0.477-0.003 1.309-0.004 2.123 0.395zM23.849 19.904c-0.108 0.098-0.19 0.223-0.233 0.365l-0.002 0.006c-0.17 0.555-0.677 0.951-1.277 0.951-0.736 0-1.333-0.597-1.333-1.333 0-0.124 0.017-0.245 0.049-0.359l-0.002 0.009c0.192-0.655 0.552-1.21 1.031-1.636l0.004-0.003c0.623-0.549 1.484-0.904 2.58-0.904 2.276 0 3.667 1.684 3.667 3.303 0 0.565-0.105 1.484-0.724 2.291 0.059 0.067 0.115 0.139 0.168 0.213 0.365 0.513 0.556 1.133 0.556 1.829 0 1.201-0.409 2.197-1.203 2.867-0.752 0.635-1.679 0.831-2.464 0.831-0.717 0-1.487-0.119-2.171-0.552-0.711-0.448-1.163-1.131-1.429-1.94-0.042-0.124-0.067-0.268-0.067-0.417 0-0.736 0.597-1.333 1.333-1.333 0.587 0 1.086 0.38 1.264 0.907l0.003 0.009c0.123 0.372 0.253 0.477 0.321 0.52 0.093 0.060 0.296 0.139 0.747 0.139 0.38 0 0.62-0.099 0.743-0.203 0.083-0.069 0.256-0.256 0.256-0.827 0-0.192-0.045-0.26-0.061-0.283-0.059-0.070-0.134-0.125-0.219-0.159l-0.004-0.001c-0.311-0.147-0.756-0.195-1.104-0.195-0.736 0-1.333-0.597-1.333-1.333s0.597-1.333 1.333-1.333v0c0.889 0 1.137-0.265 1.208-0.353 0.116-0.147 0.18-0.387 0.18-0.677 0-0.115-0.165-0.636-1-0.636-0.487 0-0.709 0.144-0.816 0.237zM14.332 20.697c0-0.544 0.467-1.031 0.981-1.031 0.443 0 0.769 0.208 0.912 0.427 0.103 0.16 0.227 0.497-0.133 1.109-0.169 0.289-0.435 0.563-0.827 0.873-0.196 0.155-0.408 0.307-0.644 0.473l-0.097 0.068c-0.203 0.143-0.425 0.3-0.64 0.461-1.016 0.765-2.219 1.899-2.219 3.921 0 0.736 0.597 1.333 1.333 1.333v0h4.601c0.736 0 1.333-0.597 1.333-1.333s-0.597-1.333-1.333-1.333v0h-2.66c0.152-0.147 0.333-0.296 0.548-0.457 0.179-0.135 0.364-0.265 0.568-0.409l0.104-0.073c0.24-0.169 0.501-0.356 0.757-0.559 0.511-0.403 1.065-0.917 1.475-1.613 0.797-1.357 0.799-2.792 0.068-3.915-0.689-1.060-1.907-1.64-3.147-1.64-2.177 0-3.648 1.877-3.648 3.697 0 0.736 0.597 1.333 1.333 1.333s1.333-0.597 1.333-1.333v0zM6.697 22.389c-0.075 0.056-0.17 0.124-0.267 0.189l-0.025 0.016c-0.208 0.14-0.464 0.224-0.74 0.224-0.736 0-1.333-0.597-1.333-1.334 0-0.461 0.234-0.867 0.589-1.106l0.005-0.003c0.965-0.644 1.655-1.659 1.801-2.328 0.133-0.607 0.666-1.055 1.304-1.055 0.736 0 1.333 0.597 1.333 1.333 0 0.003 0 0.005-0 0.008v-0 8.667c0 0.736-0.597 1.333-1.333 1.333s-1.333-0.597-1.333-1.333v0-4.611z"></path>
</svg>
