<!-- Generated by IcoMoon.io -->
<svg version="1.1" xmlns="http://www.w3.org/2000/svg" width="32" height="32" viewBox="0 0 32 32">
<title>text-number-list-rotate-90-filled</title>
<path d="M28.333 8c0.552-0 0.999-0.448 0.999-1 0-0.404-0.239-0.752-0.584-0.909l-0.006-0.003-0.004-0.003c-0.072-0.032-0.129-0.062-0.185-0.094l0.009 0.005c-0.201-0.11-0.368-0.215-0.529-0.329l0.017 0.012c-0.417-0.289-0.884-0.699-1.203-1.208-0.182-0.272-0.487-0.448-0.834-0.448-0.552 0-1 0.448-1 1 0 0.187 0.051 0.362 0.14 0.511l-0.003-0.005c0.104 0.167 0.215 0.324 0.331 0.471h-3.149c-0.552 0-1 0.448-1 1s0.448 1 1 1v0h6zM8 26v-11.333l-0.009-0.156c-0.081-0.665-0.643-1.176-1.324-1.176-0.736 0-1.333 0.596-1.333 1.332v11.333l0.009 0.155c0.081 0.666 0.643 1.176 1.324 1.176 0.735 0 1.332-0.595 1.333-1.33v-0zM16.667 26v-11.333l-0.009-0.156c-0.081-0.665-0.643-1.176-1.324-1.176-0.736 0-1.332 0.596-1.333 1.332v11.333l0.009 0.155c0.081 0.666 0.643 1.176 1.324 1.176 0.735 0 1.332-0.595 1.333-1.33v-0zM25.333 26v-11.333l-0.009-0.156c-0.081-0.665-0.643-1.176-1.324-1.176-0.736 0-1.332 0.596-1.333 1.332v11.333l0.009 0.155c0.081 0.666 0.643 1.176 1.324 1.176 0.735 0 1.332-0.595 1.333-1.33v-0zM17.973 6.867c0.071-0.4-0.088-0.901-0.347-1.16-0.196-0.183-0.318-0.443-0.318-0.732 0-0.552 0.448-1 1-1 0.289 0 0.549 0.122 0.731 0.318l0.001 0.001c0.741 0.741 1.083 1.907 0.903 2.923-0.093 0.529-0.339 1.073-0.807 1.487-0.477 0.421-1.1 0.631-1.803 0.631-0.827 0-1.44-0.361-1.893-0.808-0.377-0.371-0.681-0.84-0.919-1.208l-0.068-0.107c-0.158-0.248-0.307-0.457-0.466-0.658l0.013 0.016v1.764c0 0.552-0.448 1-1 1s-1-0.448-1-1v0-3.333c0-0.552 0.448-1 1-1v0c1.752 0 2.604 1.312 3.116 2.1l0.053 0.080c0.273 0.424 0.46 0.711 0.672 0.92 0.181 0.179 0.317 0.233 0.492 0.233 0.297 0 0.424-0.081 0.48-0.131 0.087-0.087 0.145-0.203 0.16-0.332l0-0.003zM3.627 3.96s-0.112 0.124-0.007 0.005l-0.007 0.008-0.017 0.017c-0.058 0.061-0.113 0.126-0.163 0.195l-0.004 0.005c-0.093 0.127-0.211 0.303-0.324 0.529-0.277 0.556-0.439 1.211-0.439 1.903 0 0.015 0 0.030 0 0.046l-0-0.002c0 0.853 0.241 1.595 0.72 2.135 0.48 0.544 1.143 0.813 1.812 0.793 0.564-0.018 1.075-0.229 1.471-0.571l-0.003 0.003c0.394 0.338 0.904 0.55 1.464 0.568l0.004 0c0.669 0.021 1.333-0.249 1.813-0.793 0.476-0.54 0.719-1.281 0.719-2.135 0-0.84-0.211-1.492-0.44-1.947-0.13-0.259-0.278-0.482-0.45-0.685l0.004 0.005c-0.016-0.019-0.031-0.035-0.045-0.051l0.001 0.001-0.017-0.017-0.007-0.008-0.004-0.003v-0.003h-0.003c-0.179-0.172-0.423-0.277-0.691-0.277-0.552 0-1 0.448-1 1 0 0.26 0.1 0.498 0.263 0.676l-0.001-0.001c0.059 0.074 0.113 0.158 0.158 0.248l0.004 0.008c0.107 0.212 0.228 0.56 0.228 1.053 0 0.48-0.133 0.715-0.219 0.811-0.057 0.072-0.145 0.117-0.243 0.117-0.002 0-0.005-0-0.007-0h0c-0.125-0.010-0.233-0.072-0.306-0.163l-0.001-0.001c-0.104-0.119-0.225-0.351-0.225-0.764 0-0.552-0.448-1-1-1s-1 0.448-1 1v0c0 0.413-0.123 0.645-0.224 0.764-0.073 0.093-0.183 0.154-0.307 0.164l-0.001 0c-0.002 0-0.004 0-0.007 0-0.098 0-0.185-0.046-0.242-0.117l-0-0.001c-0.085-0.096-0.219-0.329-0.219-0.811 0-0.493 0.123-0.841 0.227-1.053 0.049-0.098 0.103-0.181 0.165-0.259l-0.002 0.003c0.162-0.177 0.262-0.414 0.262-0.675 0-0.552-0.448-1-1-1-0.268 0-0.512 0.106-0.692 0.278l0-0zM9.711 3.963l-0.001-0.001c0.007 0.009 0.223 0.267 0 0z"></path>
</svg>
