<!-- Generated by IcoMoon.io -->
<svg version="1.1" xmlns="http://www.w3.org/2000/svg" width="32" height="32" viewBox="0 0 32 32">
<title>text-effects-ga-filled</title>
<path d="M15.672 14.156c-0.167 0.869-0.409 1.757-0.746 2.618-0.198 0.506-0.429 1.003-0.698 1.48-0.699 1.243-1.652 2.347-2.899 3.139s-2.787 1.274-4.664 1.274c-0.736 0-1.333-0.597-1.333-1.333s0.597-1.333 1.333-1.333c2.643 0 4.235-1.27 5.238-3.054 0.065-0.116 0.128-0.235 0.188-0.355 0.302-0.603 0.541-1.254 0.725-1.925 0.241-0.879 0.388-1.79 0.46-2.667h-6.612c-0.736 0-1.333-0.597-1.333-1.333s0.597-1.333 1.333-1.333h8c0.736 0 1.333 0.597 1.333 1.333 0 0.483-0.019 0.997-0.062 1.529-0.001 0.008-0.001 0.016-0.002 0.024-0.052 0.626-0.137 1.278-0.264 1.936zM10.022 14.667c-0.128 0.351-0.275 0.677-0.441 0.972-0.339 0.603-0.708 0.998-1.106 1.249-0.381 0.242-0.934 0.445-1.808 0.445-2.209 0-4 1.791-4 4s1.791 4 4 4c4.866 0 8.093-2.585 9.886-5.772 1.661-2.953 2.114-6.381 2.114-8.894v13.333c0 2.209 1.791 4 4 4s4-1.791 4-4v-6.722c1.892-0.317 3.333-1.963 3.333-3.945s-1.441-3.627-3.333-3.945v-2.722c0-2.209-1.791-4-4-4s-4 1.791-4 4v4c0-2.209-1.791-4-4-4h-8c-2.209 0-4 1.791-4 4s1.791 4 4 4h3.355zM26 14.667h-2v9.333c0 0.736-0.597 1.333-1.333 1.333s-1.333-0.597-1.333-1.333v-17.333c0-0.736 0.597-1.333 1.333-1.333s1.333 0.597 1.333 1.333v5.333h2c0.736 0 1.333 0.597 1.333 1.333s-0.597 1.333-1.333 1.333z"></path>
</svg>
