<!-- Generated by IcoMoon.io -->
<svg version="1.1" xmlns="http://www.w3.org/2000/svg" width="32" height="32" viewBox="0 0 32 32">
<title>text-case-title-filled</title>
<path d="M11.257 4.554c-0.186-0.525-0.68-0.879-1.238-0.887s-1.061 0.332-1.262 0.852l-8 20.667c-0.266 0.687 0.075 1.459 0.762 1.725s1.459-0.075 1.725-0.762l1.864-4.815h9.274l1.696 4.779c0.246 0.694 1.009 1.057 1.703 0.811s1.057-1.008 0.811-1.702l-7.333-20.667zM6.14 18.667l3.806-9.833 3.489 9.833h-7.295zM21.333 4c0.736 0 1.333 0.597 1.333 1.333v10.158c0.784-0.525 1.695-0.825 2.667-0.825 2.945 0 5.333 2.761 5.333 6.167s-2.388 6.167-5.333 6.167c-1.004 0-1.944-0.321-2.746-0.879-0.186 0.513-0.677 0.879-1.254 0.879-0.736 0-1.333-0.597-1.333-1.333v-20.333c0-0.736 0.597-1.333 1.333-1.333zM25.333 24.333c1.123 0 2.667-1.19 2.667-3.5s-1.544-3.5-2.667-3.5c-1.123 0-2.667 1.19-2.667 3.5s1.544 3.5 2.667 3.5z"></path>
</svg>
