<!-- Generated by IcoMoon.io -->
<svg version="1.1" xmlns="http://www.w3.org/2000/svg" width="32" height="32" viewBox="0 0 32 32">
<title>text-bullet-list-tree-filled</title>
<path d="M9.999 20.667c1.104 0 1.999 0.895 1.999 1.999s-0.895 1.999-1.999 1.999c-1.104 0-1.999-0.895-1.999-1.999s0.895-1.999 1.999-1.999zM15.334 21.333h12.671c0.736 0 1.333 0.597 1.333 1.333 0 0.684-0.515 1.247-1.178 1.324l-0.155 0.009h-12.671c-0.736 0-1.333-0.597-1.333-1.333 0-0.684 0.515-1.247 1.178-1.324l0.155-0.009zM4.666 14.001c1.104 0 1.999 0.895 1.999 1.999s-0.895 1.999-1.999 1.999c-1.104 0-1.999-0.895-1.999-1.999s0.895-1.999 1.999-1.999zM10 14.666h18.004c0.736 0 1.333 0.597 1.333 1.333 0 0.684-0.515 1.247-1.178 1.324l-0.155 0.009h-18.004c-0.736 0-1.333-0.597-1.333-1.333 0-0.684 0.515-1.247 1.178-1.324l0.155-0.009zM4.666 7.342c1.104 0 1.999 0.895 1.999 1.999s-0.895 1.999-1.999 1.999c-1.104 0-1.999-0.895-1.999-1.999s0.895-1.999 1.999-1.999zM10 8h18.004c0.736 0 1.333 0.597 1.333 1.333 0 0.684-0.515 1.247-1.178 1.324l-0.155 0.009h-18.004c-0.736 0-1.333-0.597-1.333-1.333 0-0.684 0.515-1.247 1.178-1.324l0.155-0.009z"></path>
</svg>
