<!-- Generated by IcoMoon.io -->
<svg version="1.1" xmlns="http://www.w3.org/2000/svg" width="32" height="32" viewBox="0 0 32 32">
<title>text-paragraph-direction-right-filled</title>
<path d="M18.4 4.8c-3.535 0-6.4 2.865-6.4 6.4s2.865 6.4 6.4 6.4v0h2.4v10.4c0 0.442 0.358 0.8 0.8 0.8s0.8-0.358 0.8-0.8v0-21.6h1.6v21.6c0 0.442 0.358 0.8 0.8 0.8s0.8-0.358 0.8-0.8v0-21.6h0.8c0.442 0 0.8-0.358 0.8-0.8s-0.358-0.8-0.8-0.8v0h-8zM6.166 12.234c-0.145-0.145-0.345-0.235-0.566-0.235-0.442 0-0.801 0.359-0.801 0.801 0 0.221 0.090 0.421 0.235 0.566l2.635 2.634-2.635 2.634c-0.145 0.145-0.235 0.345-0.235 0.566 0 0.442 0.359 0.801 0.801 0.801 0.221 0 0.421-0.090 0.566-0.235v0l3.2-3.2c0.145-0.145 0.235-0.345 0.235-0.566s-0.090-0.422-0.235-0.566l-3.2-3.2z"></path>
</svg>
