<!-- Generated by IcoMoon.io -->
<svg version="1.1" xmlns="http://www.w3.org/2000/svg" width="32" height="32" viewBox="0 0 32 32">
<title>text-footnote-filled</title>
<path d="M26.698 10.056c-0.096 0.071-0.193 0.14-0.291 0.205-0.613 0.408-1.441 0.243-1.849-0.37s-0.243-1.441 0.37-1.849c0.965-0.643 1.654-1.658 1.801-2.327 0.146-0.668 0.769-1.108 1.432-1.042 0.676 0.065 1.204 0.634 1.204 1.327v8.667c0 0.736-0.597 1.333-1.333 1.333s-1.333-0.597-1.333-1.333v-4.611zM2.815 23.965l-0.010-0.009c-0.304-0.27-0.471-0.631-0.471-1.041 0-0.242 0.066-0.487 0.152-0.713l0.001-0.002 4.579-11.943c0.141-0.369 0.361-0.696 0.686-0.927 0.327-0.232 0.707-0.33 1.102-0.33 0.385 0 0.756 0.101 1.073 0.334 0.313 0.23 0.525 0.551 0.664 0.911l4.591 11.957c0.086 0.226 0.152 0.471 0.152 0.713 0 0.42-0.178 0.783-0.491 1.050l-0.001 0.001c-0.307 0.26-0.68 0.368-1.063 0.368-0.332 0-0.657-0.089-0.935-0.299-0.272-0.206-0.449-0.49-0.56-0.795l-1.101-2.97h-4.707l-1.092 2.969c-0.111 0.306-0.287 0.59-0.56 0.796-0.278 0.211-0.604 0.299-0.935 0.299-0.384 0-0.754-0.107-1.063-0.359l-0.011-0.009zM10.191 17.48l-1.357-3.728-1.357 3.728h2.715zM15.667 22.862c0 0.377 0.113 0.743 0.383 1.037l0.010 0.010c0.285 0.298 0.657 0.423 1.040 0.423 0.393 0 0.76-0.134 1.049-0.422 0.139-0.139 0.241-0.295 0.311-0.465 0.145 0.114 0.299 0.218 0.461 0.313l0.003 0.002c0.667 0.387 1.415 0.573 2.227 0.573 1.448 0 2.654-0.54 3.552-1.623l0.001-0.002c0.887-1.078 1.297-2.479 1.297-4.134 0-1.65-0.411-3.048-1.297-4.125-0.895-1.087-2.090-1.634-3.525-1.634-0.797 0-1.535 0.188-2.199 0.573l-0.003 0.002c-0.115 0.067-0.225 0.139-0.331 0.215v-3.057c0-0.403-0.128-0.787-0.418-1.091-0.287-0.308-0.664-0.456-1.072-0.456-0.41 0-0.786 0.148-1.077 0.451l-0.009 0.010c-0.283 0.307-0.404 0.688-0.404 1.086v12.315zM22.984 18.574c0 1.027-0.231 1.757-0.618 2.262-0.37 0.476-0.858 0.716-1.536 0.716-0.631 0-1.129-0.238-1.542-0.752-0.413-0.521-0.65-1.242-0.65-2.225 0-0.976 0.237-1.695 0.651-2.217 0.414-0.521 0.912-0.761 1.541-0.761 0.676 0 1.164 0.242 1.535 0.724 0.388 0.505 0.619 1.233 0.619 2.253z"></path>
</svg>
