<!-- Generated by IcoMoon.io -->
<svg version="1.1" xmlns="http://www.w3.org/2000/svg" width="32" height="32" viewBox="0 0 32 32">
<title>text-align-justify-low-rotate-90-filled</title>
<path d="M24 17.333c0.736 0 1.333 0.597 1.333 1.333v0 9.333c0 0.736-0.597 1.333-1.333 1.333s-1.333-0.597-1.333-1.333v0-9.333c0-0.736 0.597-1.333 1.333-1.333v0zM8 2.667c0.736 0 1.333 0.597 1.333 1.333v0 24c0 0.736-0.597 1.333-1.333 1.333s-1.333-0.597-1.333-1.333v0-24c0-0.736 0.597-1.333 1.333-1.333v0zM17.333 18.667c0-0.736-0.597-1.333-1.333-1.333s-1.333 0.597-1.333 1.333v0 9.333c0 0.736 0.597 1.333 1.333 1.333s1.333-0.597 1.333-1.333v0-9.333z"></path>
</svg>
