<!-- Generated by IcoMoon.io -->
<svg version="1.1" xmlns="http://www.w3.org/2000/svg" width="32" height="32" viewBox="0 0 32 32">
<title>text-case-lowercase-filled</title>
<path d="M20 5.333c0-0.736-0.597-1.333-1.333-1.333s-1.333 0.597-1.333 1.333v0 20.333c0 0.001 0 0.002 0 0.004 0 0.736 0.597 1.333 1.333 1.333 0.694 0 1.265-0.531 1.328-1.209l0-0.005c0.789 0.547 1.765 0.875 2.818 0.877h0.001c3.027 0 5.481-2.76 5.481-6.167 0-3.405-2.453-6.167-5.48-6.167-1.031 0-1.993 0.32-2.816 0.875v-9.875zM22.815 24c-1.267 0-2.815-1.263-2.815-3.5s1.547-3.5 2.815-3.5c1.268 0 2.815 1.263 2.815 3.5s-1.547 3.5-2.813 3.5zM14.667 25.68v-7.333l-0.007-0.28v-0.008c-0.056-1.281-0.5-2.351-1.301-3.116-0.8-0.763-1.925-1.192-3.293-1.26l-0.392-0.013c-1.544-0.029-2.819 0.248-3.776 0.92-0.347 0.244-0.57 0.643-0.57 1.093 0 0.736 0.597 1.333 1.333 1.333 0.288 0 0.555-0.091 0.773-0.247l-0.004 0.003c0.435-0.305 1.243-0.489 2.504-0.427 0.78 0.040 1.279 0.229 1.585 0.528 0.233 0.227 0.388 0.547 0.449 0.997-0.678-0.16-1.456-0.251-2.255-0.251-0.425 0-0.844 0.026-1.255 0.076l0.049-0.005c-1.377 0.167-2.507 0.701-3.293 1.52-0.787 0.82-1.213 1.907-1.213 3.136 0 2.8 2.040 4.667 4.667 4.667 1.075 0 2.204-0.325 3.392-0.943 0.172 0.55 0.678 0.943 1.275 0.943h0.011l0.159-0.011h0.011c0.655-0.092 1.153-0.648 1.153-1.321 0-0.001 0-0.001 0-0.002v0zM6.667 22.396c0-0.56 0.176-1.004 0.511-1.333 0.341-0.336 0.877-0.583 1.649-0.677 0.265-0.032 0.573-0.051 0.884-0.051 0.757 0 1.488 0.109 2.18 0.311l-0.055-0.014 0.163 0.049v2.361l-0.183 0.124c-1.287 0.851-2.337 1.229-3.149 1.229-0.621 0-1.116-0.195-1.453-0.524-0.335-0.328-0.547-0.82-0.547-1.476z"></path>
</svg>
