<!-- Generated by IcoMoon.io -->
<svg version="1.1" xmlns="http://www.w3.org/2000/svg" width="32" height="32" viewBox="0 0 32 32">
<title>text-edit-style-ga-filled</title>
<path d="M14.334 3.333c0.552 0 1 0.448 1 1v4.333h2c0.552 0 1 0.448 1 1s-0.448 1-1 1h-2v4.041l-2 1.997v-12.371c0-0.552 0.448-1 1-1zM13.766 18.157l1.568-1.565v0.002l5.345-5.337c1.678-1.675 4.396-1.673 6.071 0.003s1.674 4.393-0.002 6.068l-9.485 9.469c-0.362 0.362-0.811 0.625-1.304 0.764l-6.151 1.738c-0.762 0.215-1.459-0.498-1.228-1.254l1.85-6.058c0.144-0.471 0.401-0.899 0.75-1.247l2.586-2.584c0 0-0-0 0 0zM2.667 5.667c0-0.552 0.448-1 1-1h6.667c0.517 0 0.949 0.394 0.996 0.909 0.259 2.847-1.522 7.959-7.375 9.715-0.529 0.159-1.086-0.141-1.245-0.671s0.141-1.086 0.67-1.245c4.176-1.253 5.731-4.53 5.948-6.709h-5.66c-0.552 0-1-0.448-1-1z"></path>
</svg>
