<!-- Generated by IcoMoon.io -->
<svg version="1.1" xmlns="http://www.w3.org/2000/svg" width="32" height="32" viewBox="0 0 32 32">
<title>text-grammar-arrow-right-filled</title>
<path d="M4 6.667h24c0.736 0.001 1.332 0.597 1.332 1.333 0 0.681-0.51 1.243-1.169 1.323l-0.006 0.001-0.156 0.009h-24c-0.736-0.001-1.332-0.597-1.332-1.333 0-0.681 0.51-1.243 1.169-1.323l0.006-0.001 0.156-0.009zM4 14.667c-0.736-0.001-1.332-0.597-1.332-1.333 0-0.681 0.51-1.243 1.169-1.323l0.006-0.001 0.156-0.009h24c0.736 0.001 1.332 0.597 1.332 1.333 0 0.681-0.51 1.243-1.169 1.323l-0.006 0.001-0.156 0.009h-24zM4 20h11.331c0.438-1.032 1.027-1.916 1.752-2.669l-0.003 0.003-13.236 0.009c-0.665 0.081-1.176 0.643-1.176 1.324 0 0.736 0.596 1.332 1.332 1.333h0zM4 22.667h10.692c-0.016 0.197-0.025 0.427-0.025 0.659 0 0.712 0.084 1.404 0.243 2.068l-0.012-0.060h-10.899c-0.736-0.001-1.332-0.597-1.332-1.333 0-0.681 0.51-1.243 1.169-1.323l0.006-0.001 0.156-0.009zM16 23.333c0 4.050 3.283 7.333 7.333 7.333s7.333-3.283 7.333-7.333v0c0-4.050-3.283-7.333-7.333-7.333s-7.333 3.283-7.333 7.333v0zM24.467 27.139l-0.093 0.076c-0.106 0.074-0.237 0.118-0.379 0.118-0.184 0-0.35-0.074-0.47-0.194l0 0-0.077-0.093c-0.074-0.106-0.118-0.237-0.118-0.379 0-0.184 0.075-0.351 0.196-0.472v0l2.195-2.195h-6.385l-0.12-0.011c-0.313-0.059-0.547-0.33-0.547-0.656 0-0 0-0 0-0v0l0.011-0.12c0.059-0.313 0.33-0.547 0.656-0.547 0 0 0 0 0 0h6.385l-2.195-2.195-0.077-0.093c-0.075-0.106-0.119-0.238-0.119-0.38 0-0.368 0.298-0.667 0.667-0.667 0.185 0 0.352 0.075 0.472 0.196l3.355 3.356 0.067 0.088 0.047 0.081 0.039 0.107 0.019 0.115-0.003 0.147-0.025 0.113-0.031 0.079-0.059 0.103-0.053 0.067-3.355 3.356z"></path>
</svg>
