<!-- Generated by IcoMoon.io -->
<svg version="1.1" xmlns="http://www.w3.org/2000/svg" width="32" height="32" viewBox="0 0 32 32">
<title>text-bullet-list-square-person-filled</title>
<path d="M3 7.5c0-2.485 2.015-4.5 4.5-4.5v0h17c2.485 0 4.5 2.015 4.5 4.5v0 8.5c-0.92-1.22-2.367-2-3.996-2-0.001 0-0.003 0-0.004 0h0c-0.002 0-0.005 0-0.007 0-1.129 0-2.17 0.376-3.005 1.009l0.012-0.009h-7c-0.552 0-1 0.448-1 1s0.448 1 1 1v0h5.416c-0.263 0.587-0.416 1.272-0.416 1.993 0 0.002 0 0.005 0 0.007v-0c0 0.523 0.080 1.026 0.229 1.5h-5.229c-0.552 0-1 0.448-1 1s0.448 1 1 1v0h6.417c-2.18 0-3.917 1.79-3.917 3.938 0 0.886 0.231 1.77 0.71 2.562h-10.71c-2.485 0-4.5-2.015-4.5-4.5v0-17zM10.5 12c0.828 0 1.5-0.672 1.5-1.5s-0.672-1.5-1.5-1.5v0c-0.828 0-1.5 0.672-1.5 1.5s0.672 1.5 1.5 1.5v0zM15 9.5c-0.552 0-1 0.448-1 1s0.448 1 1 1v0h7c0.552 0 1-0.448 1-1s-0.448-1-1-1v0h-7zM12 16c0-0.828-0.672-1.5-1.5-1.5s-1.5 0.672-1.5 1.5v0c0 0.828 0.672 1.5 1.5 1.5s1.5-0.672 1.5-1.5v0zM10.5 23c0.828 0 1.5-0.672 1.5-1.5s-0.672-1.5-1.5-1.5v0c-0.828 0-1.5 0.672-1.5 1.5s0.672 1.5 1.5 1.5v0zM28.5 19c0 1.933-1.567 3.5-3.5 3.5s-3.5-1.567-3.5-3.5v0c0-1.933 1.567-3.5 3.5-3.5s3.5 1.567 3.5 3.5v0zM31 26.438c0 2.023-1.714 4.062-6 4.062s-6-2.031-6-4.063c0-1.335 1.082-2.437 2.417-2.437h7.166c1.335 0 2.417 1.102 2.417 2.438z"></path>
</svg>
