<!-- Generated by IcoMoon.io -->
<svg version="1.1" xmlns="http://www.w3.org/2000/svg" width="32" height="32" viewBox="0 0 32 32">
<title>text-font-info-filled</title>
<path d="M12.686 2.333c0.557 0.008 1.051 0.362 1.238 0.887l4.205 11.849c-0.804 0.605-1.5 1.347-2.052 2.191l-3.463-9.76-3.806 9.833h7.223c-0.517 0.807-0.904 1.706-1.131 2.667h-7.124l-1.864 4.815c-0.266 0.687-1.038 1.028-1.725 0.762s-1.028-1.038-0.762-1.725l8-20.667c0.201-0.52 0.705-0.86 1.262-0.852zM22.667 21.333v4c0 0.368 0.299 0.667 0.667 0.667s0.667-0.299 0.667-0.667v-4c0-0.368-0.299-0.667-0.667-0.667s-0.667 0.299-0.667 0.667zM24.333 18.333c0 0.552-0.448 1-1 1s-1-0.448-1-1c0-0.552 0.448-1 1-1s1 0.448 1 1zM30.667 22c0 4.050-3.283 7.333-7.333 7.333s-7.333-3.283-7.333-7.333c0-4.050 3.283-7.333 7.333-7.333s7.333 3.283 7.333 7.333zM29.333 22c0-3.314-2.686-6-6-6s-6 2.686-6 6c0 3.314 2.686 6 6 6s6-2.686 6-6z"></path>
</svg>
