<!-- Generated by IcoMoon.io -->
<svg version="1.1" xmlns="http://www.w3.org/2000/svg" width="32" height="32" viewBox="0 0 32 32">
<title>text-header-2-filled</title>
<path d="M20.526 10.596c0.261-0.522 1.067-1.596 3.141-1.596 1.053 0 1.789 0.325 2.251 0.761 0.457 0.432 0.749 1.068 0.749 1.906 0 2.438-1.516 3.741-3.64 5.355-0.094 0.071-0.189 0.144-0.287 0.217-1.92 1.45-4.407 3.328-4.407 6.761 0 0.354 0.141 0.693 0.391 0.943s0.589 0.391 0.943 0.391h8.667c0.736 0 1.333-0.597 1.333-1.333s-0.597-1.333-1.333-1.333h-7.099c0.49-1.289 1.717-2.239 3.406-3.522 2.043-1.553 4.693-3.583 4.693-7.478 0-1.496-0.542-2.859-1.585-3.844-1.038-0.981-2.469-1.489-4.082-1.489-3.26 0-4.898 1.814-5.526 3.070-0.329 0.659-0.062 1.46 0.596 1.789s1.459 0.062 1.789-0.596zM5.333 8c0-0.736-0.597-1.333-1.333-1.333s-1.333 0.597-1.333 1.333v16c0 0.736 0.597 1.333 1.333 1.333s1.333-0.597 1.333-1.333v-6.667h8v6.667c0 0.736 0.597 1.333 1.333 1.333s1.333-0.597 1.333-1.333v-16c0-0.736-0.597-1.333-1.333-1.333s-1.333 0.597-1.333 1.333v6.667h-8v-6.667z"></path>
</svg>
