<!-- Generated by IcoMoon.io -->
<svg version="1.1" xmlns="http://www.w3.org/2000/svg" width="32" height="32" viewBox="0 0 32 32">
<title>text-underline-double-filled</title>
<path d="M29.587 6.628c-0.457-1.273-1.151-2.115-2.069-2.565-0.813-0.399-1.645-0.397-2.123-0.396h-0.061c-1.077 0-1.955 0.371-2.62 0.961-0.637 0.567-1.020 1.28-1.253 1.904-0.184 0.486-0.325 1.053-0.399 1.64l-0.004 0.037c-0.027 0.204-0.047 0.45-0.056 0.699l-0 0.013v0.129c-0.001 0.664-0.003 1.96 0.467 3.152 0.249 0.637 0.648 1.291 1.284 1.813 0.643 0.531 1.457 0.867 2.435 0.976 0.787 0.088 3.244 0.037 4.361-2.432 0.075-0.162 0.119-0.351 0.119-0.55 0-0.736-0.597-1.333-1.333-1.333-0.537 0-1 0.318-1.211 0.775l-0.003 0.008c-0.208 0.46-0.507 0.667-0.803 0.775-0.197 0.072-0.424 0.114-0.661 0.114-0.061 0-0.122-0.003-0.181-0.008l0.008 0.001c-0.523-0.057-0.835-0.219-1.035-0.383-0.221-0.193-0.392-0.438-0.494-0.717l-0.004-0.012c-0.268-0.685-0.283-1.519-0.283-2.225v-0.016l0.004-0.088c0.031-0.522 0.134-1.010 0.298-1.469l-0.011 0.037c0.141-0.376 0.321-0.663 0.528-0.847 0.179-0.159 0.427-0.288 0.848-0.288 0.544 0 0.799 0.020 1.011 0.124 0.141 0.069 0.444 0.268 0.736 1.075 0.177 0.544 0.679 0.93 1.271 0.93 0.736 0 1.333-0.597 1.333-1.333 0-0.18-0.036-0.352-0.101-0.509l0.003 0.009zM19.352 8.951c0.261-0.487 0.415-1.080 0.415-1.784 0-0.711-0.136-1.347-0.428-1.885-0.27-0.497-0.664-0.897-1.141-1.166l-0.015-0.008c-0.792-0.444-1.643-0.441-1.935-0.44h-2.915c-0.736 0-1.333 0.597-1.333 1.333v0 8.667c0 0.736 0.597 1.333 1.333 1.333v0h3.167c0.399 0 1.284-0.053 2.116-0.5 0.501-0.267 0.91-0.647 1.204-1.107l0.008-0.013c0.333-0.533 0.507-1.167 0.507-1.88 0-0.739-0.161-1.395-0.499-1.947-0.141-0.23-0.301-0.428-0.483-0.603l-0.001-0.001zM16.883 6.435c0.048 0.026 0.085 0.065 0.109 0.112l0.001 0.001c0.037 0.069 0.108 0.247 0.108 0.619 0 0.305-0.061 0.459-0.1 0.527s-0.092 0.122-0.157 0.159l-0.002 0.001c-0.175 0.092-0.383 0.147-0.603 0.147-0.005 0-0.009-0-0.014-0h-1.558v-1.667h1.551c0.296 0 0.52 0.020 0.667 0.101zM16.232 10.667h0.268c0.335 0 0.66 0.017 0.893 0.133 0.087 0.041 0.133 0.087 0.165 0.141 0.035 0.057 0.108 0.213 0.108 0.56 0 0.275-0.063 0.407-0.099 0.465-0.054 0.079-0.127 0.142-0.211 0.184l-0.003 0.001c-0.261 0.14-0.627 0.181-0.853 0.181h-1.833v-1.667h1.564zM6.707 3.667c0.569 0.009 1.051 0.372 1.234 0.879l0.003 0.009 3.075 8.667c0.052 0.137 0.082 0.295 0.082 0.46 0 0.736-0.597 1.333-1.333 1.333-0.582 0-1.077-0.373-1.259-0.893l-0.003-0.009-0.253-0.713h-3.385l-0.289 0.749c-0.195 0.51-0.68 0.866-1.249 0.866-0.736 0-1.333-0.597-1.333-1.333 0-0.178 0.035-0.349 0.099-0.504l-0.003 0.009 3.355-8.667c0.198-0.503 0.68-0.852 1.243-0.852 0.007 0 0.013 0 0.020 0h-0.001zM6.633 8.835l-0.735 1.896h1.408l-0.673-1.896zM2 20c0-0.736 0.597-1.333 1.333-1.333v0h25.333c0.736 0 1.333 0.597 1.333 1.333s-0.597 1.333-1.333 1.333v0h-25.333c-0.736 0-1.333-0.597-1.333-1.333v0zM3.333 25.333c-0.736 0-1.333 0.597-1.333 1.333s0.597 1.333 1.333 1.333v0h25.333c0.736 0 1.333-0.597 1.333-1.333s-0.597-1.333-1.333-1.333v0h-25.333z"></path>
</svg>
