<!-- Generated by IcoMoon.io -->
<svg version="1.1" xmlns="http://www.w3.org/2000/svg" width="32" height="32" viewBox="0 0 32 32">
<title>text-description-filled</title>
<path d="M4 22.667h16c0.736 0.001 1.332 0.597 1.332 1.333 0 0.681-0.51 1.243-1.169 1.323l-0.006 0.001-0.156 0.009h-16c-0.736-0.001-1.332-0.597-1.332-1.333 0-0.681 0.51-1.243 1.169-1.323l0.006-0.001 0.156-0.009zM4 17.333h24c0.736 0.001 1.332 0.597 1.332 1.333 0 0.681-0.51 1.243-1.169 1.323l-0.006 0.001-0.156 0.009h-24c-0.736-0.001-1.332-0.597-1.332-1.333 0-0.681 0.51-1.243 1.169-1.323l0.006-0.001 0.156-0.009zM4 12h24c0.736 0.001 1.332 0.597 1.332 1.333 0 0.681-0.51 1.243-1.169 1.323l-0.006 0.001-0.156 0.009h-24c-0.736-0.001-1.332-0.597-1.332-1.333 0-0.681 0.51-1.243 1.169-1.323l0.006-0.001 0.156-0.009zM4 6.667h24c0.736 0.001 1.332 0.597 1.332 1.333 0 0.681-0.51 1.243-1.169 1.323l-0.006 0.001-0.156 0.009h-24c-0.736-0.001-1.332-0.597-1.332-1.333 0-0.681 0.51-1.243 1.169-1.323l0.006-0.001 0.156-0.009z"></path>
</svg>
