<!-- Generated by IcoMoon.io -->
<svg version="1.1" xmlns="http://www.w3.org/2000/svg" width="32" height="32" viewBox="0 0 32 32">
<title>text-clear-formatting-ga-filled</title>
<path d="M16.667 4.333c0-0.552-0.448-1-1-1s-1 0.448-1 1v11.333c0 0.552 0.448 1 1 1s1-0.448 1-1v-5h2c0.552 0 1-0.448 1-1s-0.448-1-1-1h-2v-4.333zM5 4.667c-0.552 0-1 0.448-1 1s0.448 1 1 1h5.66c-0.217 2.179-1.771 5.456-5.948 6.709-0.529 0.159-0.829 0.716-0.67 1.245s0.716 0.829 1.245 0.671c5.853-1.756 7.634-6.868 7.375-9.715-0.047-0.515-0.479-0.909-0.996-0.909h-6.667zM24.362 26.948l-7.308-7.308 5.542-5.542c0.829-0.829 2.077-0.982 3.059-0.461 0.223 0.118 0.431 0.271 0.619 0.458l3.632 3.632c1.015 1.015 1.014 2.662-0.002 3.678l-5.542 5.542zM15.64 21.054l7.308 7.308-0.306 0.306h4.027c0.552 0 1 0.448 1 1s-0.448 1-1 1h-7.335l0.003-0.010c-0.588-0.051-1.161-0.301-1.611-0.751l-3.632-3.632c-1.015-1.015-1.014-2.662 0.002-3.678l1.543-1.543z"></path>
</svg>
