<!-- Generated by IcoMoon.io -->
<svg version="1.1" xmlns="http://www.w3.org/2000/svg" width="32" height="32" viewBox="0 0 32 32">
<title>text-case-lowercase-filled</title>
<path d="M20 5.333c0-0.736-0.597-1.333-1.333-1.333s-1.333 0.597-1.333 1.333v20.333c0 0.736 0.597 1.333 1.333 1.333 0.695 0 1.266-0.532 1.328-1.211 0.824 0.557 1.789 0.878 2.82 0.878 3.027 0 5.481-2.761 5.481-6.167s-2.454-6.167-5.481-6.167c-1.029 0-1.992 0.319-2.815 0.874v-9.874zM22.815 24c-1.268 0-2.815-1.263-2.815-3.5s1.547-3.5 2.815-3.5c1.268 0 2.815 1.263 2.815 3.5s-1.547 3.5-2.815 3.5zM14.667 25.681v-7.333l-0.006-0.281-0-0.007c-0.057-1.282-0.5-2.351-1.302-3.116-0.8-0.763-1.925-1.193-3.292-1.261l-0.393-0.013c-1.544-0.028-2.818 0.249-3.775 0.92-0.603 0.423-0.749 1.254-0.326 1.857s1.254 0.749 1.857 0.326c0.435-0.305 1.243-0.489 2.505-0.427 0.78 0.039 1.278 0.23 1.585 0.527 0.233 0.226 0.388 0.547 0.45 0.997-1.165-0.257-2.321-0.318-3.462-0.18-1.377 0.167-2.506 0.701-3.292 1.52-0.788 0.821-1.214 1.907-1.214 3.137 0 2.799 2.039 4.667 4.667 4.667 1.075 0 2.204-0.326 3.391-0.943 0.167 0.546 0.675 0.943 1.275 0.943h0.011l0.158-0.011 0.011-0.001c0.651-0.088 1.153-0.646 1.153-1.321zM6.667 22.396c0-0.558 0.176-1.003 0.511-1.333 0.34-0.335 0.876-0.583 1.649-0.676 0.972-0.118 1.972-0.039 3.009 0.246l0.162 0.048v2.362l-0.183 0.125c-1.287 0.85-2.338 1.228-3.149 1.228-0.621 0-1.116-0.195-1.453-0.523-0.336-0.328-0.547-0.82-0.547-1.477z"></path>
</svg>
