<!-- Generated by IcoMoon.io -->
<svg version="1.1" xmlns="http://www.w3.org/2000/svg" width="32" height="32" viewBox="0 0 32 32">
<title>text-effects-filled</title>
<path d="M27.382 23.912l0.031 0.092c0.154 0.462 0.225 0.934 0.225 1.401 0 1.078-0.406 2.107-1.227 2.888-0.738 0.721-1.701 1.128-2.76 1.128-0.817 0-1.583-0.243-2.242-0.683l-0.109-0.072-0.101-0.083c-0.572-0.468-0.977-1.044-1.256-1.64l-0.021-0.045-1.151-2.728h-5.509l-1.082 2.626c-0.269 0.741-0.75 1.419-1.465 1.911-0.675 0.477-1.456 0.714-2.259 0.714-0.863 0-1.954-0.233-2.824-1.104-0.822-0.822-1.104-1.853-1.104-2.766 0-0.336 0.062-0.712 0.095-0.908l0.050-0.299 7.617-18.46c0.295-0.675 0.771-1.348 1.502-1.841 0.753-0.515 1.627-0.736 2.511-0.663 0.741 0.028 1.465 0.25 2.109 0.679 0.739 0.493 1.234 1.182 1.51 1.936l7.46 17.915zM17.433 6.954c-0.065-0.195-0.16-0.36-0.286-0.495-0.063-0.068-0.134-0.128-0.213-0.18-0.235-0.156-0.499-0.235-0.792-0.235-0.313-0.039-0.596 0.029-0.851 0.205-0.235 0.156-0.42 0.391-0.557 0.704l-7.48 18.128c-0.039 0.235-0.059 0.391-0.059 0.469 0 0.372 0.108 0.665 0.323 0.88s0.528 0.323 0.939 0.323c0.274 0 0.518-0.078 0.733-0.235 0.176-0.117 0.314-0.273 0.413-0.468 0.033-0.065 0.061-0.133 0.086-0.207l1.789-4.341h9.064l1.819 4.312c0.137 0.293 0.313 0.528 0.528 0.704 0.235 0.157 0.489 0.235 0.763 0.235 0.352 0 0.655-0.127 0.909-0.381 0.274-0.254 0.411-0.577 0.411-0.968 0-0.195-0.029-0.381-0.088-0.557l-7.451-17.893zM15.995 10.621l3.432 8.213h-6.835l3.403-8.213z"></path>
</svg>
