<!-- Generated by IcoMoon.io -->
<svg version="1.1" xmlns="http://www.w3.org/2000/svg" width="32" height="32" viewBox="0 0 32 32">
<title>text-font-info-filled</title>
<path d="M12.685 2.333c0.569 0.008 1.052 0.372 1.236 0.879l0.003 0.009 4.204 11.848c-0.806 0.611-1.487 1.336-2.032 2.16l-0.020 0.032-3.464-9.76-3.804 9.832h7.223c-0.498 0.765-0.887 1.656-1.119 2.608l-0.012 0.059h-7.127l-1.864 4.815c-0.202 0.495-0.68 0.838-1.238 0.838-0.736 0-1.333-0.597-1.333-1.333 0-0.168 0.031-0.329 0.088-0.477l-0.003 0.009 8-20.667c0.198-0.503 0.68-0.852 1.243-0.852 0.006 0 0.013 0 0.019 0h-0.001zM22.667 21.333v4c0 0.368 0.298 0.667 0.667 0.667s0.667-0.298 0.667-0.667v0-4c0-0.368-0.298-0.667-0.667-0.667s-0.667 0.298-0.667 0.667v0zM24.333 18.333c0 0.552-0.448 1-1 1s-1-0.448-1-1v0c0-0.552 0.448-1 1-1s1 0.448 1 1v0zM30.667 22c0 4.050-3.283 7.333-7.333 7.333s-7.333-3.283-7.333-7.333v0c0-4.050 3.283-7.333 7.333-7.333s7.333 3.283 7.333 7.333v0zM29.333 22c0-3.314-2.686-6-6-6s-6 2.686-6 6v0c0 3.314 2.686 6 6 6s6-2.686 6-6v0z"></path>
</svg>
