<!-- Generated by IcoMoon.io -->
<svg version="1.1" xmlns="http://www.w3.org/2000/svg" width="32" height="32" viewBox="0 0 32 32">
<title>text-wrap-filled</title>
<path d="M4 6.667c-0.736 0-1.333 0.597-1.333 1.333s0.597 1.333 1.333 1.333h24c0.736 0 1.333-0.597 1.333-1.333s-0.597-1.333-1.333-1.333h-24z"></path>
<path d="M4 14.667c-0.736 0-1.333 0.597-1.333 1.333s0.597 1.333 1.333 1.333h21.667c1.473 0 2.667 1.194 2.667 2.667s-1.194 2.667-2.667 2.667h-5.114l0.391-0.391c0.521-0.521 0.521-1.365 0-1.886s-1.365-0.521-1.886 0l-2.667 2.667c-0.521 0.521-0.521 1.365 0 1.886l2.667 2.667c0.521 0.521 1.365 0.521 1.886 0s0.521-1.365 0-1.886l-0.391-0.391h5.114c2.945 0 5.333-2.388 5.333-5.333s-2.388-5.333-5.333-5.333h-21.667z"></path>
<path d="M2.667 24c0-0.736 0.597-1.333 1.333-1.333h8c0.736 0 1.333 0.597 1.333 1.333s-0.597 1.333-1.333 1.333h-8c-0.736 0-1.333-0.597-1.333-1.333z"></path>
</svg>
