<!-- Generated by IcoMoon.io -->
<svg version="1.1" xmlns="http://www.w3.org/2000/svg" width="32" height="32" viewBox="0 0 32 32">
<title>text-bullet-list-square-warning-filled</title>
<path d="M7 4c-1.657 0-3 1.343-3 3v0 18c0 1.657 1.343 3 3 3v0h7.733c0.071-0.347 0.196-0.681 0.373-0.992l2.867-5.008h-2.973c-0.552 0-1-0.448-1-1s0.448-1 1-1v0h4.116l1.328-2.323c0.144-0.253 0.317-0.479 0.511-0.677h-5.955c-0.552 0-1-0.448-1-1s0.448-1 1-1v0h7.333c0.552 0 1 0.448 1 1v0c1.23 0 2.305 0.668 2.881 1.661l0.009 0.016 1.777 3.108v-13.785c0-1.657-1.343-3-3-3v0h-18zM11.667 11c0 0.736-0.597 1.333-1.333 1.333s-1.333-0.597-1.333-1.333v0c0-0.736 0.597-1.333 1.333-1.333s1.333 0.597 1.333 1.333v0zM14 11c0-0.552 0.448-1 1-1v0h7.333c0.552 0 1 0.448 1 1s-0.448 1-1 1v0h-7.333c-0.552 0-1-0.448-1-1v0zM10.333 17.333c-0.736 0-1.333-0.597-1.333-1.333s0.597-1.333 1.333-1.333v0c0.736 0 1.333 0.597 1.333 1.333s-0.597 1.333-1.333 1.333v0zM11.667 21c0 0.736-0.597 1.333-1.333 1.333s-1.333-0.597-1.333-1.333v0c0-0.736 0.597-1.333 1.333-1.333s1.333 0.597 1.333 1.333v0zM22.811 17.404c0.156-0.044 0.335-0.069 0.52-0.069 0.738 0 1.382 0.4 1.728 0.995l0.005 0.010 5.339 9.331c0.273 0.48 0.328 1.024 0.193 1.519-0.235 0.857-1.007 1.476-1.923 1.476-0.001 0-0.002 0-0.002 0h-10.675c-0.551 0-1.049-0.223-1.411-0.587-0.362-0.361-0.587-0.86-0.587-1.412 0-0.367 0.099-0.71 0.272-1.005l-0.005 0.009 5.336-9.332c0.263-0.455 0.688-0.791 1.195-0.931l0.014-0.003zM23.995 20.667c0-0.368-0.298-0.667-0.667-0.667s-0.667 0.298-0.667 0.667v0 4c0 0.368 0.298 0.667 0.667 0.667s0.667-0.298 0.667-0.667v0-4zM23.333 28.667c0.552 0 1-0.448 1-1s-0.448-1-1-1v0c-0.552 0-1 0.448-1 1s0.448 1 1 1v0z"></path>
</svg>
