<!-- Generated by IcoMoon.io -->
<svg version="1.1" xmlns="http://www.w3.org/2000/svg" width="32" height="32" viewBox="0 0 32 32">
<title>text-effects-filled</title>
<path d="M19.677 5.091c-0.628-1.438-2.037-2.425-3.677-2.425s-3.049 0.987-3.667 2.399l-0.010 0.026-5.68 13.253c-0.015 0.029-0.039 0.084-0.061 0.139l-0.010 0.026-2.249 5.248c-0.205 0.465-0.324 1.006-0.324 1.576 0 2.209 1.791 4 4 4 1.64 0 3.049-0.987 3.667-2.398l0.010-0.026 1.247-2.909h6.153l1.247 2.909c0.628 1.438 2.037 2.424 3.677 2.424 2.209 0 4-1.791 4-4 0-0.57-0.119-1.111-0.334-1.602l0.010 0.026-2.249-5.248c-0.032-0.082-0.056-0.136-0.081-0.191l0.010 0.024-5.68-13.252zM17.227 6.141l8 18.668c0.076 0.163 0.121 0.354 0.121 0.555 0 0.736-0.597 1.333-1.333 1.333-0.558 0-1.036-0.343-1.235-0.83l-0.003-0.009-1.94-4.525h-9.671l-1.939 4.525c-0.205 0.489-0.68 0.825-1.233 0.825-0.736 0-1.333-0.597-1.333-1.333 0-0.197 0.043-0.383 0.119-0.551l-0.003 0.008 2.273-5.305c0.008-0.022 0.016-0.040 0.025-0.057l-0.001 0.003 5.703-13.307c0.209-0.479 0.679-0.808 1.225-0.808s1.016 0.329 1.222 0.799l0.003 0.009zM19.693 18.667h-7.384l3.691-8.613 3.693 8.613z"></path>
</svg>
