<!-- Generated by IcoMoon.io -->
<svg version="1.1" xmlns="http://www.w3.org/2000/svg" width="32" height="32" viewBox="0 0 32 32">
<title>text-align-distributed-vertical-filled</title>
<path d="M25.333 7.219v20.781c0 0.736-0.597 1.333-1.333 1.333s-1.333-0.597-1.333-1.333v-20.781l-0.391 0.391c-0.521 0.521-1.365 0.521-1.886 0s-0.521-1.365 0-1.886l2.667-2.667c0.521-0.521 1.365-0.521 1.886 0l2.667 2.667c0.521 0.521 0.521 1.365 0 1.886s-1.365 0.521-1.886 0l-0.391-0.391zM6.667 24.781l-0.391-0.391c-0.521-0.521-1.365-0.521-1.886 0s-0.521 1.365 0 1.886l2.667 2.667c0.521 0.521 1.365 0.521 1.886 0l2.667-2.667c0.521-0.521 0.521-1.365 0-1.886s-1.365-0.521-1.886 0l-0.391 0.391v-20.781c0-0.736-0.597-1.333-1.333-1.333s-1.333 0.597-1.333 1.333v20.781zM17.333 4c0-0.736-0.597-1.333-1.333-1.333s-1.333 0.597-1.333 1.333v24c0 0.736 0.597 1.333 1.333 1.333s1.333-0.597 1.333-1.333v-24z"></path>
</svg>
