<!-- Generated by IcoMoon.io -->
<svg version="1.1" xmlns="http://www.w3.org/2000/svg" width="32" height="32" viewBox="0 0 32 32">
<title>text-edit-style-filled</title>
<path d="M26.751 11.26c0.776 0.776 1.255 1.848 1.255 3.033 0 1.186-0.481 2.259-1.258 3.035l-9.485 9.469c-0.352 0.352-0.792 0.616-1.283 0.759l-0.021 0.005-6.151 1.737c-0.081 0.024-0.174 0.037-0.27 0.037-0.552 0-1-0.448-1-1 0-0.104 0.016-0.204 0.045-0.297l-0.002 0.007 1.849-6.057c0.143-0.472 0.4-0.9 0.749-1.248l9.499-9.483c0.777-0.776 1.85-1.256 3.035-1.256 1.186 0 2.26 0.481 3.037 1.259l0 0zM10.867 3.16l0.067 0.14 4.337 10.999-1.543 1.54-0.987-2.505h-5.484l-1.327 3.36c-0.15 0.374-0.51 0.634-0.931 0.634-0.084 0-0.166-0.010-0.244-0.030l0.007 0.001-0.131-0.041c-0.373-0.151-0.631-0.51-0.631-0.93 0-0.085 0.011-0.167 0.030-0.245l-0.001 0.007 0.040-0.131 5.005-12.66c0.15-0.374 0.51-0.633 0.93-0.633 0.366 0 0.686 0.197 0.86 0.49l0.003 0.005zM10.003 6.389l-1.955 4.944h3.904l-1.948-4.944z"></path>
</svg>
