<!-- Generated by IcoMoon.io -->
<svg version="1.1" xmlns="http://www.w3.org/2000/svg" width="32" height="32" viewBox="0 0 32 32">
<title>text-change-case-filled</title>
<path d="M22.019 3.667c0.569 0.009 1.051 0.372 1.234 0.879l0.003 0.009 7.333 20.667c0.040 0.121 0.063 0.26 0.063 0.404 0 0.736-0.597 1.333-1.333 1.333-0.561 0-1.041-0.347-1.238-0.838l-0.003-0.009-1.696-4.779h-9.275l-1.863 4.815c-0.199 0.503-0.68 0.853-1.244 0.853-0.737 0-1.334-0.597-1.334-1.334 0-0.173 0.033-0.339 0.093-0.49l-0.003 0.009 8-20.667c0.198-0.503 0.68-0.852 1.243-0.852 0.007 0 0.014 0 0.020 0h-0.001zM21.945 8.833l-3.805 9.833h7.295l-3.489-9.833zM11 27.013c-0.597-0-1.102-0.392-1.272-0.933l-0.003-0.009c-1.188 0.617-2.317 0.943-3.392 0.943-2.627 0-4.667-1.867-4.667-4.667 0-1.229 0.427-2.316 1.213-3.136 0.787-0.819 1.916-1.353 3.293-1.52 0.362-0.045 0.781-0.071 1.206-0.071 0.8 0 1.578 0.092 2.325 0.265l-0.069-0.014c-0.061-0.451-0.216-0.772-0.449-0.997-0.307-0.299-0.805-0.489-1.585-0.528-1.261-0.063-2.069 0.121-2.504 0.427-0.218 0.163-0.494 0.26-0.792 0.26-0.736 0-1.333-0.597-1.333-1.333 0-0.461 0.234-0.867 0.59-1.107l0.005-0.003c0.956-0.672 2.231-0.949 3.773-0.92h0.007l0.387 0.013c1.368 0.067 2.493 0.497 3.293 1.26 0.801 0.765 1.244 1.835 1.301 3.116v0.008l0.007 0.28v7.333c0 0 0 0 0 0 0 0.673-0.498 1.229-1.146 1.32l-0.007 0.001-0.011 0.001-0.159 0.011h-0.011zM6.493 20.387c-0.773 0.093-1.308 0.34-1.649 0.676-0.333 0.329-0.511 0.773-0.511 1.333 0 0.656 0.212 1.148 0.547 1.476 0.337 0.329 0.832 0.524 1.453 0.524 0.812 0 1.863-0.379 3.149-1.229l0.183-0.124v-2.361l-0.163-0.049c-0.636-0.188-1.366-0.296-2.122-0.296-0.313 0-0.621 0.019-0.925 0.055l0.037-0.004z"></path>
</svg>
