<!-- Generated by IcoMoon.io -->
<svg version="1.1" xmlns="http://www.w3.org/2000/svg" width="32" height="32" viewBox="0 0 32 32">
<title>text-position-tight-filled</title>
<path d="M5 5c-0.736 0-1.333 0.597-1.333 1.333s0.597 1.333 1.333 1.333v0h22c0.736 0 1.333-0.597 1.333-1.333s-0.597-1.333-1.333-1.333v0h-22zM21.165 12.333c-0.529-1.149-1.393-2.068-2.466-2.652l-0.030-0.015c-0.77-0.42-1.686-0.667-2.66-0.667-0.003 0-0.006 0-0.009 0h0c-0.965 0-1.873 0.24-2.669 0.667-1.103 0.599-1.967 1.518-2.481 2.631l-0.015 0.035c-0.317 0.683-0.501 1.482-0.501 2.324 0 0.003 0 0.007 0 0.010v-0.001 6.333c0 0.736 0.597 1.333 1.333 1.333s1.333-0.597 1.333-1.333v0-6.333c0-0.118 0.007-0.234 0.020-0.348l-0.001 0.014c0.171-1.507 1.439-2.667 2.978-2.667 0.001 0 0.002 0 0.004 0h-0c0.001 0 0.003 0 0.004 0 1.655 0 2.996 1.341 2.996 2.996 0 0.001 0 0.003 0 0.004v-0 6.333c0 0.736 0.597 1.333 1.333 1.333s1.333-0.597 1.333-1.333v0-6.333c0-0.003 0-0.006 0-0.010 0-0.842-0.185-1.641-0.516-2.359l0.014 0.035zM5 9.667h6.101c-0.744 0.729-1.326 1.621-1.687 2.618l-0.015 0.049h-4.399c-0.736 0-1.333-0.597-1.333-1.333s0.597-1.333 1.333-1.333v0zM5 14.333h4.008c-0.005 0.099-0.008 0.216-0.008 0.333v2.334h-4c-0.736 0-1.333-0.597-1.333-1.333s0.597-1.333 1.333-1.333v0zM5 19h4v2c0 0.231 0.029 0.453 0.084 0.667h-4.084c-0.736 0-1.333-0.597-1.333-1.333s0.597-1.333 1.333-1.333v0zM23 21c0 0.231-0.029 0.453-0.084 0.667h4.084c0.736 0 1.333-0.597 1.333-1.333s-0.597-1.333-1.333-1.333v0h-4v2zM27 17h-4v-2.333c0-0.112-0.003-0.223-0.008-0.333h4.008c0.736 0 1.333 0.597 1.333 1.333s-0.597 1.333-1.333 1.333v0zM27 12.333h-4.399c-0.377-1.046-0.959-1.938-1.701-2.665l-0.001-0.001h6.101c0.736 0 1.333 0.597 1.333 1.333s-0.597 1.333-1.333 1.333v0zM5 23.667h22c0.736 0 1.333 0.597 1.333 1.333s-0.597 1.333-1.333 1.333v0h-22c-0.736 0-1.333-0.597-1.333-1.333s0.597-1.333 1.333-1.333v0z"></path>
</svg>
