<!-- Generated by IcoMoon.io -->
<svg version="1.1" xmlns="http://www.w3.org/2000/svg" width="32" height="32" viewBox="0 0 32 32">
<title>text-superscript-filled</title>
<path d="M24.981 5c-0.516 0-0.981 0.487-0.981 1.031 0 0.736-0.597 1.333-1.333 1.333s-1.333-0.597-1.333-1.333v0c0-1.82 1.469-3.697 3.648-3.697 1.24 0 2.457 0.58 3.147 1.64 0.731 1.123 0.728 2.557-0.069 3.915-0.408 0.696-0.963 1.211-1.473 1.613-0.257 0.203-0.52 0.389-0.757 0.559l-0.104 0.073c-0.204 0.144-0.389 0.275-0.568 0.409-0.202 0.15-0.381 0.3-0.549 0.46l0.003-0.003h2.659c0.736 0 1.333 0.597 1.333 1.333s-0.597 1.333-1.333 1.333v0h-4.601c-0.736 0-1.333-0.597-1.333-1.333v0c0-2.023 1.203-3.156 2.219-3.921 0.215-0.161 0.437-0.317 0.64-0.461l0.097-0.068c0.236-0.168 0.447-0.32 0.643-0.473 0.393-0.311 0.659-0.584 0.828-0.872 0.36-0.613 0.236-0.952 0.133-1.109-0.144-0.22-0.469-0.428-0.912-0.428zM15.089 16l5.867-6.844c0.177-0.263 0.369-0.5 0.567-0.716-0.867-0.418-1.466-1.269-1.52-2.264l-0-0.007-6.669 7.781-6.987-8.151c-0.246-0.286-0.609-0.466-1.013-0.466-0.737 0-1.334 0.597-1.334 1.334 0 0.332 0.121 0.636 0.322 0.87l-0.001-0.002 7.259 8.464-7.256 8.467c-0.18 0.225-0.289 0.514-0.289 0.829 0 0.736 0.597 1.333 1.333 1.333 0.387 0 0.735-0.165 0.979-0.428l0.001-0.001 6.987-8.149 6.987 8.152c0.246 0.286 0.609 0.466 1.013 0.466 0.737 0 1.334-0.597 1.334-1.334 0-0.332-0.121-0.636-0.322-0.87l0.001 0.002-7.259-8.467z"></path>
</svg>
