<!-- Generated by IcoMoon.io -->
<svg version="1.1" xmlns="http://www.w3.org/2000/svg" width="32" height="32" viewBox="0 0 32 32">
<title>text-grammar-settings-filled</title>
<path d="M14.692 22.667l-10.847 0.009c-0.663 0.077-1.178 0.641-1.178 1.324 0 0.736 0.597 1.333 1.333 1.333h10.899c-0.152-0.642-0.232-1.312-0.232-2 0-0.224 0.009-0.447 0.025-0.667zM28 14.667h-24c-0.736 0-1.333-0.597-1.333-1.333 0-0.684 0.515-1.247 1.178-1.324l0.155-0.009h24c0.736 0 1.333 0.597 1.333 1.333 0 0.684-0.515 1.247-1.178 1.324l-0.155 0.009zM4 20h11.331c0.416-0.997 1.012-1.899 1.749-2.667l-13.235 0.009c-0.663 0.077-1.178 0.641-1.178 1.324 0 0.736 0.597 1.333 1.333 1.333zM28 6.667l-24.155 0.009c-0.663 0.077-1.178 0.641-1.178 1.324 0 0.736 0.597 1.333 1.333 1.333l24.155-0.009c0.663-0.077 1.178-0.641 1.178-1.324 0-0.736-0.597-1.333-1.333-1.333zM19.038 18.634l-0.264-0.915c0.586-0.51 1.252-0.923 1.977-1.217l0.665 0.7c1.051 1.106 2.814 1.106 3.865 0.001l0.657-0.691c0.726 0.297 1.393 0.715 1.979 1.229l-0.248 0.841c-0.432 1.463 0.45 2.99 1.933 3.347l0.719 0.173c0.065 0.4 0.099 0.812 0.099 1.231 0 0.401-0.031 0.795-0.091 1.178l-0.778 0.193c-1.469 0.363-2.341 1.875-1.922 3.328l0.264 0.915c-0.586 0.51-1.252 0.923-1.977 1.217l-0.665-0.7c-1.051-1.106-2.814-1.106-3.865-0.001l-0.658 0.692c-0.726-0.297-1.393-0.715-1.979-1.229l0.248-0.842c0.432-1.463-0.45-2.99-1.933-3.347l-0.719-0.173c-0.065-0.4-0.099-0.812-0.099-1.231 0-0.401 0.031-0.795 0.091-1.178l0.779-0.193c1.469-0.363 2.341-1.875 1.922-3.328zM23.333 25.333c1.068 0 1.933-0.895 1.933-2s-0.865-2-1.933-2c-1.067 0-1.933 0.895-1.933 2s0.865 2 1.933 2z"></path>
</svg>
