<!-- Generated by IcoMoon.io -->
<svg version="1.1" xmlns="http://www.w3.org/2000/svg" width="32" height="32" viewBox="0 0 32 32">
<title>text-bullet-list-square-edit-filled</title>
<path d="M4 7c0-1.657 1.343-3 3-3v0h18c1.657 0 3 1.343 3 3v0 7.683c-0.114-0.011-0.247-0.017-0.382-0.017-1.209 0-2.303 0.491-3.094 1.283l-4.051 4.051h-5.473c-0.552 0-1 0.448-1 1s0.448 1 1 1v0h3.473l-1.82 1.82c-0.612 0.612-1.064 1.384-1.286 2.249l-0.007 0.034-0.472 1.897h-7.888c-1.657 0-3-1.343-3-3v0-18zM10.333 12.333c0.736 0 1.333-0.597 1.333-1.333s-0.597-1.333-1.333-1.333v0c-0.736 0-1.333 0.597-1.333 1.333s0.597 1.333 1.333 1.333v0zM15 10c-0.552 0-1 0.448-1 1s0.448 1 1 1v0h7.333c0.552 0 1-0.448 1-1s-0.448-1-1-1v0h-7.333zM15 15c-0.552 0-1 0.448-1 1s0.448 1 1 1v0h7.333c0.552 0 1-0.448 1-1s-0.448-1-1-1v0h-7.333zM9 16c0 0.736 0.597 1.333 1.333 1.333s1.333-0.597 1.333-1.333v0c0-0.736-0.597-1.333-1.333-1.333s-1.333 0.597-1.333 1.333v0zM10.333 22.333c0.736 0 1.333-0.597 1.333-1.333s-0.597-1.333-1.333-1.333v0c-0.736 0-1.333 0.597-1.333 1.333s0.597 1.333 1.333 1.333v0zM25.467 16.893l-7.871 7.869c-0.446 0.446-0.774 1.008-0.936 1.638l-0.005 0.025-0.611 2.441c-0.027 0.106-0.043 0.227-0.043 0.352 0 0.8 0.649 1.449 1.449 1.449 0.125 0 0.247-0.016 0.363-0.046l-0.010 0.002 2.44-0.609c0.655-0.167 1.218-0.496 1.664-0.943l7.869-7.869c0.522-0.546 0.843-1.288 0.843-2.104 0-1.683-1.365-3.048-3.048-3.048-0.817 0-1.558 0.321-2.105 0.844l0.001-0.001z"></path>
</svg>
