<!-- Generated by IcoMoon.io -->
<svg version="1.1" xmlns="http://www.w3.org/2000/svg" width="32" height="32" viewBox="0 0 32 32">
<title>text-grammar-arrow-left-filled</title>
<path d="M23.333 16c4.050 0 7.333 3.283 7.333 7.333s-3.283 7.333-7.333 7.333v0c-4.050 0-7.333-3.283-7.333-7.333s3.283-7.333 7.333-7.333v0zM22.293 19.452l-0.093 0.076-3.355 3.356-0.053 0.067-0.059 0.103-0.031 0.079-0.027 0.113-0.003 0.147 0.020 0.115 0.040 0.107 0.044 0.081 0.068 0.088 3.355 3.356c0.121 0.121 0.288 0.196 0.472 0.196 0.368 0 0.667-0.298 0.667-0.667 0-0.142-0.045-0.274-0.121-0.382l0.001 0.002-0.077-0.093-2.195-2.195h6.385c0 0 0 0 0 0 0.326 0 0.597-0.234 0.655-0.543l0.001-0.004 0.011-0.12c0-0 0-0 0-0 0-0.326-0.234-0.597-0.543-0.655l-0.004-0.001-0.12-0.011h-6.385l2.195-2.195c0.121-0.121 0.196-0.287 0.196-0.472 0-0.142-0.044-0.273-0.12-0.381l0.001 0.002-0.077-0.093c-0.121-0.12-0.287-0.195-0.471-0.195-0.142 0-0.274 0.044-0.382 0.12l0.002-0.001zM14.691 22.667l-10.847 0.009c-0.665 0.081-1.176 0.643-1.176 1.324 0 0.736 0.596 1.332 1.332 1.333h10.899c-0.148-0.6-0.232-1.289-0.232-1.997 0-0.236 0.009-0.469 0.028-0.7l-0.002 0.030zM15.331 20h-11.331c-0.736-0.001-1.332-0.597-1.332-1.333 0-0.681 0.51-1.243 1.169-1.323l0.006-0.001 0.156-0.009h13.080c-0.722 0.75-1.312 1.634-1.728 2.61l-0.021 0.057zM4 14.667c-0.736-0.001-1.332-0.597-1.332-1.333 0-0.681 0.51-1.243 1.169-1.323l0.006-0.001 0.156-0.009h24c0.736 0.001 1.332 0.597 1.332 1.333 0 0.681-0.51 1.243-1.169 1.323l-0.006 0.001-0.156 0.009h-24zM28 6.667l-24.156 0.009c-0.665 0.081-1.176 0.643-1.176 1.324 0 0.736 0.596 1.332 1.332 1.333l24.156-0.009c0.666-0.081 1.176-0.643 1.176-1.324 0-0.736-0.596-1.332-1.332-1.333h-0z"></path>
</svg>
