<!-- Generated by IcoMoon.io -->
<svg version="1.1" xmlns="http://www.w3.org/2000/svg" width="32" height="32" viewBox="0 0 32 32">
<title>text-header-2-filled</title>
<path d="M20.525 10.596c0.261-0.52 1.067-1.596 3.141-1.596 1.053 0 1.789 0.325 2.251 0.76 0.457 0.432 0.749 1.069 0.749 1.907 0 2.439-1.516 3.741-3.64 5.355l-0.287 0.217c-1.92 1.451-4.407 3.328-4.407 6.761 0 0.736 0.597 1.333 1.333 1.333v0h8.667c0.736 0 1.333-0.597 1.333-1.333s-0.597-1.333-1.333-1.333v0h-7.099c0.489-1.289 1.717-2.239 3.405-3.521 2.043-1.553 4.693-3.585 4.693-7.479 0-1.496-0.541-2.859-1.584-3.844-1.039-0.981-2.469-1.489-4.083-1.489-3.26 0-4.897 1.813-5.525 3.071-0.101 0.183-0.16 0.401-0.16 0.633 0 0.736 0.597 1.333 1.333 1.333 0.534 0 0.994-0.313 1.207-0.766l0.003-0.008zM5.333 8c0-0.736-0.597-1.333-1.333-1.333s-1.333 0.597-1.333 1.333v0 16c0 0.736 0.597 1.333 1.333 1.333s1.333-0.597 1.333-1.333v0-6.667h8v6.667c0 0.736 0.597 1.333 1.333 1.333s1.333-0.597 1.333-1.333v0-16c0-0.736-0.597-1.333-1.333-1.333s-1.333 0.597-1.333 1.333v0 6.667h-8v-6.667z"></path>
</svg>
