<!-- Generated by IcoMoon.io -->
<svg version="1.1" xmlns="http://www.w3.org/2000/svg" width="32" height="32" viewBox="0 0 32 32">
<title>text-hanging-filled</title>
<path d="M4 6.667c-0.736 0-1.333 0.597-1.333 1.333s0.597 1.333 1.333 1.333h24c0.736 0 1.333-0.597 1.333-1.333s-0.597-1.333-1.333-1.333h-24z"></path>
<path d="M13.333 22.667c-0.736 0-1.333 0.597-1.333 1.333s0.597 1.333 1.333 1.333h14.667c0.736 0 1.333-0.597 1.333-1.333s-0.597-1.333-1.333-1.333h-14.667z"></path>
<path d="M12 16c0-0.736 0.597-1.333 1.333-1.333h14.667c0.736 0 1.333 0.597 1.333 1.333s-0.597 1.333-1.333 1.333h-14.667c-0.736 0-1.333-0.597-1.333-1.333z"></path>
<path d="M6.276 17.724c-0.521-0.521-1.365-0.521-1.886 0s-0.521 1.365 0 1.886l1.724 1.724-1.724 1.724c-0.521 0.521-0.521 1.365 0 1.886s1.365 0.521 1.886 0l2.667-2.667c0.521-0.521 0.521-1.365 0-1.886l-2.667-2.667z"></path>
</svg>
