<!-- Generated by IcoMoon.io -->
<svg version="1.1" xmlns="http://www.w3.org/2000/svg" width="32" height="32" viewBox="0 0 32 32">
<title>textbox-rotate-90-filled</title>
<path d="M24.333 28c2.025 0 3.667-1.642 3.667-3.667v0-16.667c0-2.025-1.642-3.667-3.667-3.667v0h-16.667c-2.025 0-3.667 1.642-3.667 3.667v0 16.667c0 2.025 1.642 3.667 3.667 3.667v0h16.667zM16.667 19c-0 0.552-0.448 1-1 1-0.504 0-0.921-0.373-0.99-0.858l-0.001-0.005-0.009-0.136v-10c0-0.552 0.448-1 1-1 0.504 0 0.921 0.373 0.99 0.858l0.001 0.005 0.009 0.136v10zM11.333 9v14c-0 0.552-0.448 1-1 1-0.504 0-0.921-0.373-0.99-0.858l-0.001-0.005-0.009-0.136v-14c0-0.552 0.448-1 1-1 0.504 0 0.921 0.373 0.99 0.858l0.001 0.005 0.009 0.136zM22 23c-0 0.552-0.448 1-1 1-0.504 0-0.921-0.373-0.99-0.858l-0.001-0.005-0.009-0.136v-14c0-0.552 0.448-1 1-1 0.504 0 0.921 0.373 0.99 0.858l0.001 0.005 0.009 0.136v14z"></path>
</svg>
