<!-- Generated by IcoMoon.io -->
<svg version="1.1" xmlns="http://www.w3.org/2000/svg" width="32" height="32" viewBox="0 0 32 32">
<title>text-direction-rotate-270-right-filled</title>
<path d="M26.276 7.057c0.251 0.243 0.407 0.583 0.407 0.959 0 0.736-0.597 1.333-1.333 1.333-0.376 0-0.716-0.156-0.959-0.407l-0.391-0.391v18.115c0 0.736-0.597 1.333-1.333 1.333s-1.333-0.597-1.333-1.333v0-18.115l-0.391 0.391c-0.24 0.232-0.566 0.374-0.926 0.374-0.736 0-1.333-0.597-1.333-1.333 0-0.36 0.143-0.687 0.375-0.927l2.666-2.666c0.241-0.241 0.575-0.39 0.943-0.39s0.701 0.149 0.943 0.39l2.667 2.667zM4.82 22.897l12 5c0.152 0.065 0.328 0.103 0.513 0.103 0.736 0 1.333-0.597 1.333-1.333 0-0.551-0.334-1.024-0.811-1.227l-0.009-0.003-3.18-1.324v-4.889l3.18-1.325c0.486-0.206 0.82-0.68 0.82-1.231 0-0.736-0.597-1.333-1.333-1.333-0.185 0-0.362 0.038-0.522 0.106l0.009-0.003-12 5c-0.486 0.206-0.82 0.679-0.82 1.231s0.334 1.024 0.812 1.227l0.009 0.003zM12 23l-3.2-1.333 3.2-1.333v2.667zM14.276 8.943c0.241-0.241 0.39-0.575 0.39-0.943s-0.149-0.701-0.39-0.943l-2.667-2.667c-0.241-0.241-0.575-0.39-0.943-0.39s-0.701 0.149-0.943 0.39l-2.667 2.667c-0.251 0.243-0.407 0.583-0.407 0.959 0 0.736 0.597 1.333 1.333 1.333 0.376 0 0.716-0.156 0.959-0.407l0.391-0.391v4.781c0 0.736 0.597 1.333 1.333 1.333s1.333-0.597 1.333-1.333v0-4.781l0.391 0.391c0.241 0.241 0.575 0.39 0.943 0.39s0.701-0.149 0.943-0.39v0z"></path>
</svg>
