<!-- Generated by IcoMoon.io -->
<svg version="1.1" xmlns="http://www.w3.org/2000/svg" width="32" height="32" viewBox="0 0 32 32">
<title>text-align-distributed-evenly-filled</title>
<path d="M2.667 8c0-0.736 0.597-1.333 1.333-1.333h24c0.736 0 1.333 0.597 1.333 1.333s-0.597 1.333-1.333 1.333h-24c-0.736 0-1.333-0.597-1.333-1.333zM7.609 20.391c-0.521-0.521-1.365-0.521-1.886 0l-2.667 2.667c-0.521 0.521-0.521 1.365 0 1.886l2.667 2.667c0.521 0.521 1.365 0.521 1.886 0s0.521-1.365 0-1.886l-0.391-0.391h17.562l-0.391 0.391c-0.521 0.521-0.521 1.365 0 1.886s1.365 0.521 1.886 0l2.667-2.667c0.521-0.521 0.521-1.365 0-1.886l-2.667-2.667c-0.521-0.521-1.365-0.521-1.886 0s-0.521 1.365 0 1.886l0.391 0.391h-17.562l0.391-0.391c0.521-0.521 0.521-1.365 0-1.886zM4 14.667c-0.736 0-1.333 0.597-1.333 1.333s0.597 1.333 1.333 1.333h24c0.736 0 1.333-0.597 1.333-1.333s-0.597-1.333-1.333-1.333h-24z"></path>
</svg>
