<!-- Generated by IcoMoon.io -->
<svg version="1.1" xmlns="http://www.w3.org/2000/svg" width="32" height="32" viewBox="0 0 32 32">
<title>text-paragraph-filled</title>
<path d="M28 2.667c0.736 0 1.333 0.597 1.333 1.333v0 5.333c0 2.209-1.791 4-4 4v0h-6.115l3.057 3.057c0.232 0.24 0.374 0.566 0.374 0.926 0 0.736-0.597 1.333-1.333 1.333-0.36 0-0.687-0.143-0.927-0.375l-5.333-5.333c-0.241-0.241-0.39-0.575-0.39-0.943s0.149-0.701 0.39-0.943l5.333-5.333c0.243-0.251 0.583-0.407 0.959-0.407 0.736 0 1.333 0.597 1.333 1.333 0 0.376-0.156 0.716-0.407 0.959l-3.058 3.058h6.115c0.736 0 1.333-0.597 1.333-1.333v0-5.333c0-0.736 0.597-1.333 1.333-1.333v0zM9.724 15.057c-0.241 0.241-0.39 0.575-0.39 0.943s0.149 0.701 0.39 0.943l3.057 3.057h-8.781c-0.736 0-1.333 0.597-1.333 1.333s0.597 1.333 1.333 1.333v0h8.781l-3.057 3.057c-0.251 0.243-0.407 0.583-0.407 0.959 0 0.736 0.597 1.333 1.333 1.333 0.376 0 0.716-0.156 0.959-0.407l5.334-5.334c0.241-0.24 0.39-0.572 0.391-0.939v-0.004c0-0.001 0-0.002 0-0.003 0-0.369-0.15-0.703-0.393-0.944l-5.331-5.329c-0.241-0.241-0.575-0.39-0.943-0.39s-0.701 0.149-0.943 0.39v0z"></path>
</svg>
