<!-- Generated by IcoMoon.io -->
<svg version="1.1" xmlns="http://www.w3.org/2000/svg" width="32" height="32" viewBox="0 0 32 32">
<title>text-period-asterisk-filled</title>
<path d="M19.594 7.6c0-0.663-0.537-1.2-1.2-1.2s-1.2 0.537-1.2 1.2v0 2.973l-2.822-0.917c-0.118-0.043-0.255-0.068-0.398-0.068-0.663 0-1.2 0.537-1.2 1.2 0 0.54 0.357 0.996 0.847 1.147l0.008 0.002 2.829 0.92-1.747 2.406c-0.143 0.195-0.229 0.44-0.229 0.706 0 0.663 0.537 1.2 1.2 1.2 0.398 0 0.75-0.194 0.969-0.491l0.002-0.003 1.744-2.403 1.747 2.403c0.22 0.311 0.578 0.512 0.983 0.512 0.663 0 1.2-0.537 1.2-1.2 0-0.273-0.091-0.524-0.244-0.726l0.002 0.003-1.749-2.405 2.834-0.922c0.504-0.15 0.865-0.609 0.865-1.152 0-0.663-0.537-1.2-1.2-1.2-0.146 0-0.285 0.026-0.414 0.073l0.008-0.003-2.835 0.92v-2.976zM10.4 25.6c1.325 0 2.4-1.075 2.4-2.4s-1.075-2.4-2.4-2.4v0c-1.325 0-2.4 1.075-2.4 2.4s1.075 2.4 2.4 2.4v0z"></path>
</svg>
