<!-- Generated by IcoMoon.io -->
<svg version="1.1" xmlns="http://www.w3.org/2000/svg" width="32" height="32" viewBox="0 0 32 32">
<title>text-continuous-filled</title>
<path d="M4 8c0-0.736 0.597-1.333 1.333-1.333v0h21.333c0.736 0 1.333 0.597 1.333 1.333s-0.597 1.333-1.333 1.333v0h-21.333c-0.736 0-1.333-0.597-1.333-1.333v0zM10.667 13.333c0-0.736 0.597-1.333 1.333-1.333v0h14.667c0.736 0 1.333 0.597 1.333 1.333s-0.597 1.333-1.333 1.333v0h-14.667c-0.736 0-1.333-0.597-1.333-1.333v0zM10.667 18.667c0-0.736 0.597-1.333 1.333-1.333v0h14.667c0.736 0 1.333 0.597 1.333 1.333s-0.597 1.333-1.333 1.333v0h-14.667c-0.736 0-1.333-0.597-1.333-1.333v0zM26.667 25.333h-21.333c-0.736 0-1.333-0.597-1.333-1.333s0.597-1.333 1.333-1.333v0h21.333c0.736 0 1.333 0.597 1.333 1.333s-0.597 1.333-1.333 1.333v0zM4.391 14.943c-0.232-0.24-0.374-0.566-0.374-0.926 0-0.736 0.597-1.333 1.333-1.333 0.36 0 0.687 0.143 0.927 0.375l2 2c0.241 0.241 0.39 0.575 0.39 0.943s-0.149 0.701-0.39 0.943l-2 2c-0.24 0.232-0.566 0.374-0.926 0.374-0.736 0-1.333-0.597-1.333-1.333 0-0.36 0.143-0.687 0.375-0.927l1.057-1.057-1.057-1.057z"></path>
</svg>
