<!-- Generated by IcoMoon.io -->
<svg version="1.1" xmlns="http://www.w3.org/2000/svg" width="32" height="32" viewBox="0 0 32 32">
<title>text-wrap-off-filled</title>
<path d="M4.373 2.96c-0.183-0.196-0.443-0.318-0.732-0.318-0.552 0-1 0.448-1 1 0 0.289 0.122 0.549 0.318 0.731l0.001 0.001 2.293 2.293h-1.253c-0.736 0-1.333 0.597-1.333 1.333s0.597 1.333 1.333 1.333v0h3.92l5.333 5.333h-9.253c-0.736 0-1.333 0.597-1.333 1.333s0.597 1.333 1.333 1.333v0h11.92l3.096 3.097-2.627 2.627c-0.241 0.241-0.39 0.575-0.39 0.943s0.149 0.701 0.39 0.943l2.667 2.667c0.241 0.242 0.575 0.391 0.943 0.391 0.737 0 1.334-0.597 1.334-1.334 0-0.368-0.149-0.701-0.39-0.943l-0.391-0.391h3.367l3.707 3.707c0.18 0.174 0.425 0.281 0.695 0.281 0.552 0 1-0.448 1-1 0-0.27-0.107-0.515-0.281-0.695l-24.666-24.666zM18.908 14.667h6.425c0 0 0.001 0 0.001 0 2.946 0 5.333 2.388 5.333 5.333 0 1.745-0.838 3.294-2.134 4.267l-0.014 0.010-1.927-1.927c0.844-0.459 1.407-1.339 1.407-2.351 0-1.473-1.194-2.667-2.667-2.667-0 0-0.001 0-0.001 0h-3.759l-2.667-2.667zM13.575 9.333l-2.667-2.667h17.092c0.736 0 1.333 0.597 1.333 1.333s-0.597 1.333-1.333 1.333v0h-14.425zM2.667 24c0-0.736 0.597-1.333 1.333-1.333v0h8c0.736 0 1.333 0.597 1.333 1.333s-0.597 1.333-1.333 1.333v0h-8c-0.736 0-1.333-0.597-1.333-1.333v0z"></path>
</svg>
