<!-- Generated by IcoMoon.io -->
<svg version="1.1" xmlns="http://www.w3.org/2000/svg" width="32" height="32" viewBox="0 0 32 32">
<title>text-bullet-list-square-search-filled</title>
<path d="M8 4.8c-1.767 0-3.2 1.433-3.2 3.2v0 7.613c1.124-0.761 2.51-1.214 4.001-1.214 3.695 0 6.74 2.783 7.152 6.368l0.003 0.033h5.646c0.442 0 0.8 0.358 0.8 0.8s-0.358 0.8-0.8 0.8v0h-5.648c-0.098 0.854-0.33 1.632-0.676 2.345l0.019-0.043 2.498 2.498h6.206c1.767 0 3.2-1.433 3.2-3.2v0-16c0-1.767-1.433-3.2-3.2-3.2v0h-16.002zM12 11.6c0 0.663-0.537 1.2-1.2 1.2s-1.2-0.537-1.2-1.2v0c0-0.663 0.537-1.2 1.2-1.2s1.2 0.537 1.2 1.2v0zM15.2 11.2h6.4c0.442 0 0.8 0.358 0.8 0.8s-0.358 0.8-0.8 0.8v0h-6.4c-0.442 0-0.8-0.358-0.8-0.8s0.358-0.8 0.8-0.8v0zM14.4 16.8c0-0.442 0.358-0.8 0.8-0.8v0h6.4c0.442 0 0.8 0.358 0.8 0.8s-0.358 0.8-0.8 0.8v0h-6.4c-0.442 0-0.8-0.358-0.8-0.8v0zM3.816 19.048c-0.388 0.742-0.615 1.62-0.615 2.551 0 3.093 2.507 5.6 5.6 5.6 1.267 0 2.435-0.42 3.373-1.129l-0.014 0.010 4.069 4.093c0.145 0.145 0.345 0.234 0.566 0.234 0.442 0 0.8-0.358 0.8-0.8 0-0.221-0.090-0.421-0.235-0.566v0l-4.080-4.080c0.697-0.924 1.117-2.091 1.117-3.356 0-3.093-2.507-5.6-5.6-5.6-2.16 0-4.034 1.223-4.968 3.013l-0.015 0.031zM12.126 19.378c0.435 0.631 0.695 1.411 0.695 2.253 0 2.209-1.791 4-4 4-1.393 0-2.62-0.712-3.337-1.793l-0.009-0.015c-0.41-0.618-0.654-1.376-0.654-2.192 0-2.209 1.791-4 4-4 1.368 0 2.575 0.687 3.297 1.734l0.009 0.013z"></path>
</svg>
