<!-- Generated by IcoMoon.io -->
<svg version="1.1" xmlns="http://www.w3.org/2000/svg" width="32" height="32" viewBox="0 0 32 32">
<title>text-align-justify-filled</title>
<path d="M2.667 8c0-0.736 0.597-1.333 1.333-1.333v0h24c0.736 0 1.333 0.597 1.333 1.333s-0.597 1.333-1.333 1.333v0h-24c-0.736 0-1.333-0.597-1.333-1.333v0zM2.667 24c0-0.736 0.597-1.333 1.333-1.333v0h24c0.736 0 1.333 0.597 1.333 1.333s-0.597 1.333-1.333 1.333v0h-24c-0.736 0-1.333-0.597-1.333-1.333v0zM4 14.667c-0.736 0-1.333 0.597-1.333 1.333s0.597 1.333 1.333 1.333v0h24c0.736 0 1.333-0.597 1.333-1.333s-0.597-1.333-1.333-1.333v0h-24z"></path>
</svg>
