<!-- Generated by IcoMoon.io -->
<svg version="1.1" xmlns="http://www.w3.org/2000/svg" width="32" height="32" viewBox="0 0 32 32">
<title>text-whole-word-filled</title>
<path d="M30.4 25.2v0.8c-0.002 1.546-1.254 2.798-2.8 2.8h-23.2c-1.546-0.002-2.798-1.254-2.8-2.8v-0.8c0-0.663 0.537-1.2 1.2-1.2s1.2 0.537 1.2 1.2v0 0.8c0 0.221 0.179 0.4 0.4 0.4v0h23.2c0.221 0 0.4-0.179 0.4-0.4v0-0.8c0-0.663 0.537-1.2 1.2-1.2s1.2 0.537 1.2 1.2v0zM6.133 16.602c0.997-0.626 2.209-0.997 3.508-0.997 0.188 0 0.375 0.008 0.559 0.023l-0.024-0.002c0.592 0.032 1.184 0.118 1.76 0.259-0.069-0.539-0.406-0.985-0.871-1.207l-0.009-0.004c-0.516-0.242-1.12-0.382-1.757-0.382-0.092 0-0.183 0.003-0.273 0.009l0.012-0.001c-0.621 0.013-1.206 0.149-1.737 0.386l0.029-0.011c-0.156 0.080-0.341 0.127-0.537 0.127-0.663 0-1.2-0.537-1.2-1.2 0-0.467 0.267-0.872 0.657-1.070l0.007-0.003c0.792-0.375 1.719-0.603 2.696-0.625l0.008-0c0.105-0.006 0.229-0.009 0.353-0.009 1.029 0 2.002 0.234 2.871 0.652l-0.040-0.017c1.365 0.74 2.276 2.161 2.276 3.795 0 0.144-0.007 0.287-0.021 0.428l0.001-0.018v6.469c0.001 0.013 0.001 0.029 0.001 0.045 0 0.663-0.538 1.201-1.201 1.201-0.647 0-1.175-0.512-1.2-1.154l-0-0.002c-0.947 0.662-2.123 1.058-3.392 1.058-0.468 0-0.924-0.054-1.361-0.156l0.040 0.008c-1.818-0.478-3.138-2.107-3.138-4.045 0-1.494 0.785-2.805 1.965-3.543l0.018-0.010zM7.91 21.882c0.162 0.020 0.349 0.031 0.54 0.031 1.417 0 2.687-0.63 3.545-1.625l0.005-0.006v-1.882c-0.574-0.203-1.238-0.338-1.927-0.375l-0.018-0.001c-0.122-0.012-0.264-0.019-0.408-0.019-0.805 0-1.558 0.222-2.202 0.608l0.019-0.011c-0.547 0.311-0.909 0.889-0.909 1.552 0 0.832 0.571 1.531 1.343 1.725l0.012 0.003zM17.6 23.2v-16.8c0-0.663 0.537-1.2 1.2-1.2s1.2 0.537 1.2 1.2v0 7.451c0.747-0.647 1.727-1.044 2.798-1.051h0.002c2.705 0.231 4.813 2.483 4.813 5.228 0 0.131-0.005 0.26-0.014 0.389l0.001-0.017c0.008 0.111 0.013 0.241 0.013 0.372 0 2.745-2.108 4.998-4.794 5.227l-0.019 0.001c-1.073-0.008-2.053-0.405-2.805-1.056l0.006 0.005v0.251c0 0.663-0.537 1.2-1.2 1.2s-1.2-0.537-1.2-1.2v0zM20.4 18.4c-0.014 0.107-0.022 0.231-0.022 0.357 0 1.429 1.041 2.615 2.405 2.841l0.017 0.002c1.382-0.229 2.422-1.414 2.422-2.843 0-0.126-0.008-0.25-0.024-0.371l0.002 0.014c0.014-0.107 0.022-0.231 0.022-0.357 0-1.429-1.041-2.615-2.405-2.841l-0.017-0.002c-1.382 0.229-2.422 1.414-2.422 2.843 0 0.126 0.008 0.25 0.024 0.371l-0.002-0.014z"></path>
</svg>
