<!-- Generated by IcoMoon.io -->
<svg version="1.1" xmlns="http://www.w3.org/2000/svg" width="32" height="32" viewBox="0 0 32 32">
<title>text-align-distributed-evenly-filled</title>
<path d="M2.667 8c0-0.736 0.597-1.333 1.333-1.333v0h24c0.736 0 1.333 0.597 1.333 1.333s-0.597 1.333-1.333 1.333v0h-24c-0.736 0-1.333-0.597-1.333-1.333v0zM7.609 20.391c-0.241-0.241-0.575-0.39-0.943-0.39s-0.701 0.149-0.943 0.39l-2.667 2.667c-0.241 0.241-0.39 0.575-0.39 0.943s0.149 0.701 0.39 0.943l2.667 2.667c0.24 0.232 0.566 0.374 0.926 0.374 0.736 0 1.333-0.597 1.333-1.333 0-0.36-0.143-0.687-0.375-0.927l-0.39-0.39h17.563l-0.391 0.391c-0.232 0.24-0.374 0.566-0.374 0.926 0 0.736 0.597 1.333 1.333 1.333 0.36 0 0.687-0.143 0.927-0.375l2.666-2.666c0.241-0.241 0.39-0.575 0.39-0.943s-0.149-0.701-0.39-0.943l-2.667-2.667c-0.24-0.232-0.566-0.374-0.926-0.374-0.736 0-1.333 0.597-1.333 1.333 0 0.36 0.143 0.687 0.375 0.927l0.39 0.39h-17.563l0.391-0.391c0.241-0.241 0.39-0.575 0.39-0.943s-0.149-0.701-0.39-0.943v0zM4 14.667c-0.736 0-1.333 0.597-1.333 1.333s0.597 1.333 1.333 1.333v0h24c0.736 0 1.333-0.597 1.333-1.333s-0.597-1.333-1.333-1.333v0h-24z"></path>
</svg>
