<!-- Generated by IcoMoon.io -->
<svg version="1.1" xmlns="http://www.w3.org/2000/svg" width="32" height="32" viewBox="0 0 32 32">
<title>text-clear-formatting-filled</title>
<path d="M3.682 18.668c-0.293 0-0.538-0.080-0.733-0.239-0.188-0.167-0.282-0.373-0.282-0.62 0-0.145 0.041-0.326 0.124-0.544l5.234-13.651c0.241-0.631 0.684-0.946 1.331-0.946 0.609 0 1.034 0.312 1.275 0.935l5.245 13.661c0.083 0.218 0.124 0.399 0.124 0.544 0 0.247-0.098 0.453-0.293 0.62-0.188 0.16-0.429 0.239-0.722 0.239-0.481 0-0.812-0.25-0.993-0.751l-1.444-3.894h-6.441l-1.433 3.894c-0.18 0.5-0.511 0.751-0.993 0.751zM6.694 12.359h5.279l-2.606-7.157h-0.068l-2.606 7.157zM17.054 19.64l7.308 7.308 5.542-5.542c1.016-1.016 1.017-2.663 0.002-3.678l-3.632-3.632c-0.187-0.187-0.396-0.34-0.619-0.458-0.983-0.522-2.231-0.368-3.059 0.461l-5.542 5.542zM19.665 15.144l-2.331 2.331v-13.801c0-0.296 0.087-0.537 0.26-0.725 0.18-0.188 0.407-0.281 0.682-0.281s0.498 0.094 0.671 0.281c0.18 0.188 0.271 0.429 0.271 0.725v5.431h0.043c0.361-0.649 0.855-1.158 1.482-1.525 0.635-0.368 1.345-0.552 2.131-0.552 1.421 0 2.567 0.53 3.44 1.59s1.309 2.47 1.309 4.23c0 0.235-0.008 0.463-0.023 0.686l-0.381-0.381c-0.45-0.45-0.982-0.768-1.549-0.954-0.084-0.975-0.363-1.772-0.839-2.39-0.577-0.75-1.363-1.125-2.358-1.125-0.959 0-1.745 0.386-2.358 1.158-0.606 0.764-0.909 1.767-0.909 3.007 0 0.888 0.153 1.653 0.46 2.296zM22.948 28.362l-7.308-7.308-1.543 1.543c-1.016 1.016-1.017 2.663-0.002 3.678l3.632 3.632c0.45 0.45 1.023 0.7 1.611 0.751l-0.003 0.010h7.335c0.552 0 1-0.448 1-1s-0.448-1-1-1h-4.027l0.306-0.306z"></path>
</svg>
