<!-- Generated by IcoMoon.io -->
<svg version="1.1" xmlns="http://www.w3.org/2000/svg" width="32" height="32" viewBox="0 0 32 32">
<title>text-direction-horizontal-left-filled</title>
<path d="M21.667 4c-0 0-0 0-0 0-0.551 0-1.024 0.334-1.227 0.811l-0.003 0.009-5 12c-0.065 0.152-0.103 0.328-0.103 0.513 0 0.736 0.597 1.333 1.333 1.333 0.551 0 1.024-0.334 1.227-0.811l0.003-0.009 1.324-3.18h4.889l1.325 3.18c0.206 0.486 0.68 0.82 1.231 0.82 0.736 0 1.333-0.597 1.333-1.333 0-0.185-0.038-0.362-0.106-0.522l0.003 0.009-5-12c-0.206-0.486-0.679-0.82-1.231-0.82-0 0-0 0-0 0v0zM21.667 8.8l1.333 3.2h-2.667l1.333-3.2zM8.943 7.057c-0.241-0.241-0.575-0.39-0.943-0.39s-0.701 0.149-0.943 0.39v0l-2.569 2.579c-0.298 0.245-0.487 0.614-0.488 1.027v0.008c0 0.413 0.191 0.784 0.488 1.027l2.569 2.579c0.24 0.232 0.566 0.374 0.926 0.374 0.736 0 1.333-0.597 1.333-1.333 0-0.36-0.143-0.687-0.375-0.927l-0.39-0.39h6.115c0.736 0 1.333-0.597 1.333-1.333s-0.597-1.333-1.333-1.333v0h-6.115l0.391-0.391c0.241-0.241 0.39-0.575 0.39-0.943s-0.149-0.701-0.39-0.943v0zM7.057 19.057c0.24-0.232 0.566-0.374 0.926-0.374 0.736 0 1.333 0.597 1.333 1.333 0 0.36-0.143 0.687-0.375 0.927l-0.39 0.39h18.115c0.736 0 1.333 0.597 1.333 1.333s-0.597 1.333-1.333 1.333v0h-18.115l0.391 0.391c0.251 0.243 0.407 0.583 0.407 0.959 0 0.736-0.597 1.333-1.333 1.333-0.376 0-0.716-0.156-0.959-0.407l-2.667-2.667c-0.241-0.241-0.39-0.575-0.39-0.943s0.149-0.701 0.39-0.943l2.667-2.667z"></path>
</svg>
