<!-- Generated by IcoMoon.io -->
<svg version="1.1" xmlns="http://www.w3.org/2000/svg" width="32" height="32" viewBox="0 0 32 32">
<title>text-direction-horizontal-right-filled</title>
<path d="M10.333 4c0 0 0 0 0 0 0.551 0 1.024 0.334 1.227 0.811l0.003 0.009 5 12c0.065 0.152 0.103 0.328 0.103 0.513 0 0.736-0.597 1.333-1.333 1.333-0.551 0-1.024-0.334-1.227-0.811l-0.003-0.009-1.324-3.18h-4.889l-1.325 3.18c-0.206 0.486-0.679 0.82-1.231 0.82-0.736 0-1.333-0.597-1.333-1.333 0-0.185 0.038-0.362 0.106-0.522l-0.003 0.009 5-12c0.206-0.486 0.679-0.82 1.231-0.82 0 0 0 0 0 0v0zM10.333 8.8l-1.333 3.2h2.667l-1.333-3.2zM23.057 7.057c0.241-0.241 0.575-0.39 0.943-0.39s0.701 0.149 0.943 0.39v0l2.569 2.579c0.297 0.243 0.487 0.613 0.488 1.027v0.008c0 0.413-0.191 0.784-0.488 1.027l-2.569 2.579c-0.24 0.232-0.566 0.374-0.926 0.374-0.736 0-1.333-0.597-1.333-1.333 0-0.36 0.143-0.687 0.375-0.927l0.39-0.39h-6.115c-0.736 0-1.333-0.597-1.333-1.333s0.597-1.333 1.333-1.333v0h6.115l-0.391-0.391c-0.241-0.241-0.39-0.575-0.39-0.943s0.149-0.701 0.39-0.943v0zM24.943 19.057c-0.24-0.232-0.566-0.374-0.926-0.374-0.736 0-1.333 0.597-1.333 1.333 0 0.36 0.143 0.687 0.375 0.927l0.39 0.39h-18.115c-0.736 0-1.333 0.597-1.333 1.333s0.597 1.333 1.333 1.333v0h18.115l-0.391 0.391c-0.232 0.24-0.374 0.566-0.374 0.926 0 0.736 0.597 1.333 1.333 1.333 0.36 0 0.687-0.143 0.927-0.375l2.666-2.666c0.241-0.241 0.39-0.575 0.39-0.943s-0.149-0.701-0.39-0.943l-2.667-2.667z"></path>
</svg>
