<!-- Generated by IcoMoon.io -->
<svg version="1.1" xmlns="http://www.w3.org/2000/svg" width="32" height="32" viewBox="0 0 32 32">
<title>text-footnote-ga-na-filled</title>
<path d="M26.698 10.056c-0.096 0.071-0.193 0.14-0.291 0.205-0.613 0.408-1.441 0.243-1.849-0.37s-0.243-1.441 0.37-1.849c0.965-0.643 1.654-1.658 1.801-2.327 0.146-0.668 0.769-1.108 1.432-1.042 0.676 0.065 1.204 0.634 1.204 1.327v8.667c0 0.736-0.597 1.333-1.333 1.333s-1.333-0.597-1.333-1.333v-4.611zM1.334 12c0-0.736 0.597-1.333 1.333-1.333h4.667c0.736 0 1.333 0.597 1.333 1.333 0 1.322-0.225 3.079-1.052 4.633-0.857 1.612-2.357 2.978-4.742 3.351-0.728 0.114-1.409-0.384-1.523-1.111s0.384-1.41 1.112-1.523c1.449-0.226 2.282-0.996 2.8-1.968 0.333-0.625 0.534-1.341 0.641-2.048h-3.235c-0.736 0-1.333-0.597-1.333-1.333zM10 8v16.001c0 0.736 0.597 1.333 1.333 1.333s1.333-0.597 1.333-1.333v-16.001c0-0.736-0.597-1.333-1.333-1.333s-1.333 0.597-1.333 1.333zM20.667 24.001v-16.001c0-0.736 0.597-1.333 1.333-1.333s1.333 0.597 1.333 1.333v16.001c0 0.736-0.597 1.333-1.333 1.333s-1.333-0.597-1.333-1.333zM17.97 9.613c0.154-0.72-0.304-1.429-1.024-1.583s-1.429 0.304-1.583 1.024l-2 9.333c-0.092 0.432 0.035 0.881 0.34 1.2s0.748 0.467 1.183 0.394l4-0.667c0.726-0.121 1.217-0.808 1.096-1.534s-0.808-1.217-1.534-1.096l-2.066 0.344 1.589-7.416z"></path>
</svg>
