<!-- Generated by IcoMoon.io -->
<svg version="1.1" xmlns="http://www.w3.org/2000/svg" width="32" height="32" viewBox="0 0 32 32">
<title>text-box-settings-filled</title>
<path d="M28 7.667c0-2.025-1.642-3.667-3.667-3.667v0h-16.667c-2.025 0-3.667 1.642-3.667 3.667v0 16.667c0 2.025 1.642 3.667 3.667 3.667v0h8.363c-0.855-1.316-1.364-2.927-1.364-4.655 0-0.239 0.010-0.475 0.029-0.709l-0.002 0.031h-5.692c-0.552-0-1-0.448-1-1 0-0.504 0.373-0.921 0.858-0.99l0.005-0.001 0.136-0.009h6.084c0.429-1.301 1.113-2.416 1.999-3.336l-0.003 0.003h-8.080c-0.552-0-1-0.448-1-1 0-0.504 0.373-0.921 0.858-0.99l0.005-0.001 0.136-0.009h10c0.216 0 0.417 0.069 0.58 0.187 1.094-0.538 2.381-0.853 3.742-0.853 0.004 0 0.008 0 0.012 0h-0.001c0.004 0 0.009 0 0.013 0 1.728 0 3.337 0.508 4.687 1.383l-0.034-0.020v-8.363zM23 10c0.552 0 1 0.448 1 1 0 0.504-0.373 0.921-0.858 0.99l-0.005 0.001-0.136 0.009h-14c-0.552-0-1-0.448-1-1 0-0.504 0.373-0.921 0.858-0.99l0.005-0.001 0.136-0.009h14zM16.667 20.839l0.596 0.573c0.504 0.486 0.817 1.167 0.817 1.921s-0.313 1.435-0.817 1.921l-0.597 0.574c0.267 0.765 0.653 1.471 1.137 2.093l0.803-0.237c0.226-0.069 0.485-0.109 0.754-0.109 1.251 0 2.301 0.862 2.589 2.024l0.004 0.018 0.232 0.953c0.345 0.061 0.742 0.096 1.148 0.096s0.803-0.035 1.189-0.102l-0.041 0.006 0.231-0.955c0.292-1.18 1.341-2.041 2.592-2.041 0.269 0 0.529 0.040 0.775 0.114l-0.019-0.005 0.803 0.237c0.483-0.623 0.869-1.328 1.137-2.093l-0.596-0.573c-0.504-0.486-0.817-1.167-0.817-1.921s0.313-1.435 0.817-1.921l0.597-0.574c-0.284-0.801-0.669-1.494-1.15-2.11l0.012 0.016-0.803 0.237c-0.226 0.069-0.485 0.109-0.754 0.109-1.251 0-2.301-0.862-2.589-2.024l-0.004-0.018-0.232-0.953c-0.345-0.061-0.743-0.096-1.149-0.096s-0.803 0.035-1.19 0.102l0.041-0.006-0.229 0.955c-0.292 1.18-1.341 2.041-2.592 2.041-0.269 0-0.529-0.040-0.775-0.114l0.019 0.005-0.803-0.237c-0.468 0.599-0.854 1.292-1.121 2.042l-0.016 0.052zM23.333 25.333c-1.067 0-1.933-0.896-1.933-2s0.867-2 1.933-2c1.067 0 1.933 0.896 1.933 2s-0.867 2-1.933 2z"></path>
</svg>
