<!-- Generated by IcoMoon.io -->
<svg version="1.1" xmlns="http://www.w3.org/2000/svg" width="32" height="32" viewBox="0 0 32 32">
<title>text-align-distributed-filled</title>
<path d="M5.724 4.391c0.24-0.232 0.566-0.374 0.926-0.374 0.736 0 1.333 0.597 1.333 1.333 0 0.36-0.143 0.687-0.375 0.927l-0.39 0.39h20.781c0.736 0 1.333 0.597 1.333 1.333s-0.597 1.333-1.333 1.333v0h-20.781l0.391 0.391c0.232 0.24 0.374 0.566 0.374 0.926 0 0.736-0.597 1.333-1.333 1.333-0.36 0-0.687-0.143-0.927-0.375l-2.666-2.666c-0.241-0.241-0.39-0.575-0.39-0.943s0.149-0.701 0.39-0.943l2.667-2.667zM24.781 25.333l-0.391 0.391c-0.232 0.24-0.374 0.566-0.374 0.926 0 0.736 0.597 1.333 1.333 1.333 0.36 0 0.687-0.143 0.927-0.375l2.666-2.666c0.241-0.241 0.39-0.575 0.39-0.943s-0.149-0.701-0.39-0.943l-2.667-2.667c-0.24-0.232-0.566-0.374-0.926-0.374-0.736 0-1.333 0.597-1.333 1.333 0 0.36 0.143 0.687 0.375 0.927l0.39 0.39h-20.781c-0.736 0-1.333 0.597-1.333 1.333s0.597 1.333 1.333 1.333v0h20.781zM4 14.667c-0.736 0-1.333 0.597-1.333 1.333s0.597 1.333 1.333 1.333v0h24c0.736 0 1.333-0.597 1.333-1.333s-0.597-1.333-1.333-1.333v0h-24z"></path>
</svg>
