<!-- Generated by IcoMoon.io -->
<svg version="1.1" xmlns="http://www.w3.org/2000/svg" width="32" height="32" viewBox="0 0 32 32">
<title>text-indent-increase-rotate-90-filled</title>
<path d="M10.667 12v11.333c-0.001 0.736-0.597 1.332-1.333 1.332-0.681 0-1.243-0.51-1.323-1.169l-0.001-0.006-0.009-0.156v-11.333c0.001-0.736 0.597-1.332 1.333-1.332 0.681 0 1.243 0.51 1.323 1.169l0.001 0.006 0.009 0.156zM19.609 3.057c0.241 0.241 0.39 0.575 0.39 0.943 0 0.309-0.105 0.594-0.282 0.82l0.002-0.003-0.111 0.125-2.667 2.667c-0.241 0.241-0.575 0.39-0.943 0.39-0.309 0-0.594-0.105-0.82-0.282l0.003 0.002-0.125-0.111-2.667-2.667c-0.24-0.241-0.389-0.574-0.389-0.941 0-0.736 0.597-1.333 1.333-1.333 0.309 0 0.593 0.105 0.819 0.281l-0.003-0.002 0.125 0.111 1.724 1.724 1.724-1.724c0.241-0.241 0.575-0.39 0.943-0.39s0.701 0.149 0.943 0.39v0zM17.333 12l0.001 15.333c-0.001 0.736-0.597 1.332-1.333 1.332-0.681 0-1.243-0.51-1.323-1.169l-0.001-0.006-0.011-0.156v-15.333c0.001-0.736 0.597-1.332 1.333-1.332 0.681 0 1.243 0.51 1.323 1.169l0.001 0.006 0.009 0.156zM24 12v11.333c-0.001 0.736-0.597 1.332-1.333 1.332-0.681 0-1.243-0.51-1.323-1.169l-0.001-0.006-0.009-0.156v-11.333c0.001-0.736 0.597-1.332 1.333-1.332 0.681 0 1.243 0.51 1.323 1.169l0.001 0.006 0.009 0.156z"></path>
</svg>
