<!-- Generated by IcoMoon.io -->
<svg version="1.1" xmlns="http://www.w3.org/2000/svg" width="32" height="32" viewBox="0 0 32 32">
<title>text-wrap-filled</title>
<path d="M2.667 8c0-0.736 0.597-1.333 1.333-1.333v0h24c0.736 0 1.333 0.597 1.333 1.333s-0.597 1.333-1.333 1.333v0h-24c-0.736 0-1.333-0.597-1.333-1.333v0zM4 22.667c-0.736 0-1.333 0.597-1.333 1.333s0.597 1.333 1.333 1.333v0h8c0.736 0 1.333-0.597 1.333-1.333s-0.597-1.333-1.333-1.333v0h-8zM20.552 22.667h4.781c1.473 0 2.667-1.194 2.667-2.667s-1.194-2.667-2.667-2.667v0h-21.333c-0.736 0-1.333-0.597-1.333-1.333s0.597-1.333 1.333-1.333v0h21.333c2.946 0 5.333 2.388 5.333 5.333s-2.388 5.333-5.333 5.333v0h-4.781l0.391 0.391c0.232 0.24 0.374 0.566 0.374 0.926 0 0.736-0.597 1.333-1.333 1.333-0.36 0-0.687-0.143-0.927-0.375l-2.666-2.666c-0.241-0.241-0.39-0.575-0.39-0.943s0.149-0.701 0.39-0.943l2.667-2.667c0.24-0.232 0.566-0.374 0.926-0.374 0.736 0 1.333 0.597 1.333 1.333 0 0.36-0.143 0.687-0.375 0.927l-0.39 0.39z"></path>
</svg>
