<!-- Generated by IcoMoon.io -->
<svg version="1.1" xmlns="http://www.w3.org/2000/svg" width="32" height="32" viewBox="0 0 32 32">
<title>text-strikethrough-filled</title>
<path d="M18.464 15.333h7.537c0.736 0 1.333 0.597 1.333 1.333s-0.597 1.333-1.333 1.333h-3.183c0.881 1.033 1.331 2.233 1.331 3.579 0 3.905-4.374 6.553-9.378 5.972-3.104-0.361-5.286-1.625-6.435-3.777-0.347-0.649-0.277-1.354 0.33-1.775s1.675-0.131 2.022 0.518c0.711 1.33 2.138 2.123 4.391 2.384 3.449 0.401 6.404-1.213 6.404-3.323 0-1.464-0.73-2.586-2.81-3.579h-12.007c-0.736 0-1.333-0.597-1.333-1.333s0.597-1.333 1.333-1.333h11.749c0.025-0 0.026-0 0.048 0zM9.316 12.926c-0.14-0.211-0.272-0.433-0.397-0.679-0.401-0.787-0.624-1.62-0.58-2.448 0.212-3.953 3.912-6.284 8.803-5.716 3.014 0.35 5.319 1.445 6.863 3.316 0.469 0.568 0.364 1.398-0.204 1.867s-1.398 0.435-1.867-0.133c-1.084-1.313-2.757-2.128-5.1-2.4-3.414-0.397-5.829 0.957-5.829 3.098 0 0.952 0.319 1.626 1.016 2.413 0.3 0.339 0.863 0.701 1.688 1.086h-4.119c-0.149-0.218-0.24-0.352-0.274-0.404z"></path>
</svg>
