<!-- Generated by IcoMoon.io -->
<svg version="1.1" xmlns="http://www.w3.org/2000/svg" width="32" height="32" viewBox="0 0 32 32">
<title>text-more-filled</title>
<path d="M14.229 3.481c-0.207-0.483-0.679-0.816-1.229-0.816s-1.021 0.332-1.225 0.807l-0.003 0.009-9 21.333c-0.066 0.153-0.105 0.331-0.105 0.519 0 0.737 0.597 1.334 1.334 1.334 0.549 0 1.021-0.332 1.225-0.806l0.003-0.009 2.468-5.852h10.605l1.715 4.063c0.196-0.041 0.421-0.064 0.651-0.064 1.087 0 2.052 0.521 2.659 1.326l0.006 0.008c0-0.001 0-0.002 0-0.003 0-0.186-0.038-0.363-0.107-0.524l0.003 0.009-9-21.333zM17.179 17.333h-8.356l4.177-9.903 4.179 9.903zM14 29.333c1.105 0 2-0.895 2-2s-0.895-2-2-2v0c-1.105 0-2 0.895-2 2s0.895 2 2 2v0zM22.667 27.333c0 1.105-0.895 2-2 2s-2-0.895-2-2v0c0-1.105 0.895-2 2-2s2 0.895 2 2v0zM29.333 27.333c0 1.105-0.895 2-2 2s-2-0.895-2-2v0c0-1.105 0.895-2 2-2s2 0.895 2 2v0z"></path>
</svg>
