<!-- Generated by IcoMoon.io -->
<svg version="1.1" xmlns="http://www.w3.org/2000/svg" width="32" height="32" viewBox="0 0 32 32">
<title>text-bullet-list-ltr-rotate-90-filled</title>
<path d="M22.4 5.2c0 1.105 0.895 2 2 2s2-0.895 2-2v0c0-1.105-0.895-2-2-2s-2 0.895-2 2v0zM24.4 11.2c0.663 0 1.2 0.537 1.2 1.2v0 15.2c0 0.663-0.537 1.2-1.2 1.2s-1.2-0.537-1.2-1.2v0-15.2c0-0.663 0.537-1.2 1.2-1.2v0zM17.6 12.4c0-0.663-0.537-1.2-1.2-1.2s-1.2 0.537-1.2 1.2v0 15.2c0 0.663 0.537 1.2 1.2 1.2s1.2-0.537 1.2-1.2v0-15.2zM9.6 12.4c0-0.663-0.537-1.2-1.2-1.2s-1.2 0.537-1.2 1.2v0 15.2c0 0.663 0.537 1.2 1.2 1.2s1.2-0.537 1.2-1.2v0-15.2zM16.4 7.2c-1.105 0-2-0.895-2-2s0.895-2 2-2v0c1.105 0 2 0.895 2 2s-0.895 2-2 2v0zM6.4 5.2c0 1.105 0.895 2 2 2s2-0.895 2-2v0c0-1.105-0.895-2-2-2s-2 0.895-2 2v0z"></path>
</svg>
