<!-- Generated by IcoMoon.io -->
<svg version="1.1" xmlns="http://www.w3.org/2000/svg" width="32" height="32" viewBox="0 0 32 32">
<title>text-add-space-after-filled</title>
<path d="M4 9.333c0-0.736 0.597-1.333 1.333-1.333h21.333c0.736 0 1.333 0.597 1.333 1.333s-0.597 1.333-1.333 1.333h-21.333c-0.736 0-1.333-0.597-1.333-1.333z"></path>
<path d="M4 17.333c0-0.736 0.597-1.333 1.333-1.333h21.333c0.736 0 1.333 0.597 1.333 1.333s-0.597 1.333-1.333 1.333h-21.333c-0.736 0-1.333-0.597-1.333-1.333z"></path>
<path d="M12.391 24.391c-0.521 0.521-0.521 1.365 0 1.886s1.365 0.521 1.886 0l1.724-1.724 1.724 1.724c0.521 0.521 1.365 0.521 1.886 0s0.521-1.365 0-1.886l-2.667-2.667c-0.521-0.521-1.365-0.521-1.886 0l-2.667 2.667z"></path>
</svg>
