<!-- Generated by IcoMoon.io -->
<svg version="1.1" xmlns="http://www.w3.org/2000/svg" width="32" height="32" viewBox="0 0 32 32">
<title>text-filled</title>
<path d="M6 5.25c0-0.69 0.56-1.25 1.25-1.25h17.5c0.69 0 1.25 0.56 1.25 1.25v3.5c0 0.69-0.56 1.25-1.25 1.25s-1.25-0.56-1.25-1.25v0-2.25h-6.25v19h1.5c0.69 0 1.25 0.56 1.25 1.25s-0.56 1.25-1.25 1.25v0h-5.5c-0.69 0-1.25-0.56-1.25-1.25s0.56-1.25 1.25-1.25v0h1.5v-19h-6.25v2.25c0 0.69-0.56 1.25-1.25 1.25s-1.25-0.56-1.25-1.25v0-3.5z"></path>
</svg>
