<!-- Generated by IcoMoon.io -->
<svg version="1.1" xmlns="http://www.w3.org/2000/svg" width="32" height="32" viewBox="0 0 32 32">
<title>text-align-distributed-vertical-filled</title>
<path d="M25.333 7.219v20.781c0 0.736-0.597 1.333-1.333 1.333s-1.333-0.597-1.333-1.333v0-20.781l-0.391 0.391c-0.243 0.251-0.583 0.407-0.959 0.407-0.736 0-1.333-0.597-1.333-1.333 0-0.376 0.156-0.716 0.407-0.959l2.667-2.667c0.241-0.241 0.575-0.39 0.943-0.39s0.701 0.149 0.943 0.39l2.667 2.667c0.232 0.24 0.374 0.566 0.374 0.926 0 0.736-0.597 1.333-1.333 1.333-0.36 0-0.687-0.143-0.927-0.375l-0.39-0.39zM6.667 24.781l-0.391-0.391c-0.24-0.232-0.566-0.374-0.926-0.374-0.736 0-1.333 0.597-1.333 1.333 0 0.36 0.143 0.687 0.375 0.927l2.666 2.666c0.241 0.241 0.575 0.39 0.943 0.39s0.701-0.149 0.943-0.39l2.667-2.667c0.251-0.243 0.407-0.583 0.407-0.959 0-0.736-0.597-1.333-1.333-1.333-0.376 0-0.716 0.156-0.959 0.407l-0.391 0.391v-20.781c0-0.736-0.597-1.333-1.333-1.333s-1.333 0.597-1.333 1.333v0 20.781zM17.333 4c0-0.736-0.597-1.333-1.333-1.333s-1.333 0.597-1.333 1.333v0 24c0 0.736 0.597 1.333 1.333 1.333s1.333-0.597 1.333-1.333v0-24z"></path>
</svg>
