<!-- Generated by IcoMoon.io -->
<svg version="1.1" xmlns="http://www.w3.org/2000/svg" width="32" height="32" viewBox="0 0 32 32">
<title>text-column-two-left-filled</title>
<path d="M28 8c0-0.736-0.597-1.333-1.333-1.333h-12c-0.736 0-1.333 0.597-1.333 1.333s0.597 1.333 1.333 1.333h12c0.736 0 1.333-0.597 1.333-1.333z"></path>
<path d="M10.667 8c0-0.736-0.597-1.333-1.333-1.333h-4c-0.736 0-1.333 0.597-1.333 1.333s0.597 1.333 1.333 1.333h4c0.736 0 1.333-0.597 1.333-1.333z"></path>
<path d="M28 13.333c0-0.736-0.597-1.333-1.333-1.333h-12c-0.736 0-1.333 0.597-1.333 1.333s0.597 1.333 1.333 1.333h12c0.736 0 1.333-0.597 1.333-1.333z"></path>
<path d="M10.667 13.333c0-0.736-0.597-1.333-1.333-1.333h-4c-0.736 0-1.333 0.597-1.333 1.333s0.597 1.333 1.333 1.333h4c0.736 0 1.333-0.597 1.333-1.333z"></path>
<path d="M28 18.667c0-0.736-0.597-1.333-1.333-1.333h-12c-0.736 0-1.333 0.597-1.333 1.333s0.597 1.333 1.333 1.333h12c0.736 0 1.333-0.597 1.333-1.333z"></path>
<path d="M10.667 18.667c0-0.736-0.597-1.333-1.333-1.333h-4c-0.736 0-1.333 0.597-1.333 1.333s0.597 1.333 1.333 1.333h4c0.736 0 1.333-0.597 1.333-1.333z"></path>
<path d="M28 24c0-0.736-0.597-1.333-1.333-1.333h-12c-0.736 0-1.333 0.597-1.333 1.333s0.597 1.333 1.333 1.333h12c0.736 0 1.333-0.597 1.333-1.333z"></path>
<path d="M10.667 24c0-0.736-0.597-1.333-1.333-1.333h-4c-0.736 0-1.333 0.597-1.333 1.333s0.597 1.333 1.333 1.333h4c0.736 0 1.333-0.597 1.333-1.333z"></path>
</svg>
