<!-- Generated by IcoMoon.io -->
<svg version="1.1" xmlns="http://www.w3.org/2000/svg" width="32" height="32" viewBox="0 0 32 32">
<title>text-position-top-bottom-filled</title>
<path d="M3.667 6.333c0-0.736 0.597-1.333 1.333-1.333h22c0.736 0 1.333 0.597 1.333 1.333s-0.597 1.333-1.333 1.333h-22c-0.736 0-1.333-0.597-1.333-1.333z"></path>
<path d="M3.667 25c0-0.736 0.597-1.333 1.333-1.333h22c0.736 0 1.333 0.597 1.333 1.333s-0.597 1.333-1.333 1.333h-22c-0.736 0-1.333-0.597-1.333-1.333z"></path>
<path d="M13 14.667c0-1.657 1.343-3 3-3s3 1.343 3 3v6.333c0 0.736 0.597 1.333 1.333 1.333s1.333-0.597 1.333-1.333v-6.333c0-3.13-2.537-5.667-5.667-5.667s-5.667 2.537-5.667 5.667v6.333c0 0.736 0.597 1.333 1.333 1.333s1.333-0.597 1.333-1.333v-6.333z"></path>
</svg>
