<!-- Generated by IcoMoon.io -->
<svg version="1.1" xmlns="http://www.w3.org/2000/svg" width="32" height="32" viewBox="0 0 32 32">
<title>text-header-1-filled</title>
<path d="M26.909 6.689c0.119 0.022 0.232 0.059 0.338 0.11 0.48 0.231 0.771 0.725 0.754 1.245v15.956c0 0.736-0.597 1.333-1.333 1.333s-1.333-0.597-1.333-1.333v-11.185c-0.849 0.828-1.826 1.422-2.911 1.784-0.699 0.233-1.454-0.145-1.687-0.843s0.145-1.454 0.843-1.687c1.505-0.502 2.91-1.777 3.81-4.451 0.046-0.153 0.118-0.294 0.212-0.419 0.048-0.064 0.101-0.123 0.159-0.176 0.302-0.28 0.727-0.412 1.149-0.334zM4 6.667c0.736 0 1.333 0.597 1.333 1.333v6.667h8v-6.667c0-0.736 0.597-1.333 1.333-1.333s1.333 0.597 1.333 1.333v16c0 0.736-0.597 1.333-1.333 1.333s-1.333-0.597-1.333-1.333v-6.667h-8v6.667c0 0.736-0.597 1.333-1.333 1.333s-1.333-0.597-1.333-1.333v-16c0-0.736 0.597-1.333 1.333-1.333z"></path>
</svg>
