<!-- Generated by IcoMoon.io -->
<svg version="1.1" xmlns="http://www.w3.org/2000/svg" width="32" height="32" viewBox="0 0 32 32">
<title>text-direction-horizontal-rtl-filled</title>
<path d="M21.666 4c-0.538 0-1.024 0.324-1.231 0.821l-5 12c-0.283 0.68 0.038 1.46 0.718 1.744s1.46-0.038 1.744-0.718l1.325-3.179h4.889l1.325 3.179c0.283 0.68 1.064 1.001 1.744 0.718s1.001-1.064 0.718-1.744l-5-12c-0.207-0.497-0.693-0.821-1.231-0.821zM21.666 8.8l1.333 3.2h-2.667l1.333-3.2zM8.942 7.057c-0.521-0.521-1.365-0.521-1.886 0l-2.569 2.578c-0.297 0.244-0.487 0.613-0.488 1.027v0.008c0.001 0.414 0.191 0.784 0.488 1.027l2.569 2.578c0.521 0.521 1.365 0.521 1.886 0s0.521-1.365 0-1.886l-0.391-0.391h6.114c0.736 0 1.333-0.597 1.333-1.333s-0.597-1.333-1.333-1.333h-6.114l0.391-0.391c0.521-0.521 0.521-1.365 0-1.886zM7.057 19.057c0.521-0.521 1.365-0.521 1.886 0s0.521 1.365 0 1.886l-0.391 0.391h18.114c0.736 0 1.333 0.597 1.333 1.333s-0.597 1.333-1.333 1.333h-18.114l0.391 0.391c0.521 0.521 0.521 1.365 0 1.886s-1.365 0.521-1.886 0l-2.667-2.667c-0.521-0.521-0.521-1.365 0-1.886l2.667-2.667z"></path>
</svg>
