<!-- Generated by IcoMoon.io -->
<svg version="1.1" xmlns="http://www.w3.org/2000/svg" width="32" height="32" viewBox="0 0 32 32">
<title>text-direction-vertical-filled</title>
<path d="M10.667 5.333c0-0.736-0.597-1.333-1.333-1.333s-1.333 0.597-1.333 1.333v0 18.115l-0.391-0.391c-0.24-0.232-0.566-0.374-0.926-0.374-0.736 0-1.333 0.597-1.333 1.333 0 0.36 0.143 0.687 0.375 0.927l2.666 2.666c0.241 0.241 0.575 0.39 0.943 0.39s0.701-0.149 0.943-0.39l2.667-2.667c0.232-0.24 0.374-0.566 0.374-0.926 0-0.736-0.597-1.333-1.333-1.333-0.36 0-0.687 0.143-0.927 0.375l-0.39 0.39v-18.115zM22.897 4.82c-0.206-0.486-0.679-0.82-1.231-0.82s-1.024 0.334-1.227 0.812l-0.003 0.009-5 12c-0.065 0.152-0.103 0.328-0.103 0.513 0 0.736 0.597 1.333 1.333 1.333 0.551 0 1.024-0.334 1.227-0.811l0.003-0.009 1.325-3.18h4.889l1.324 3.18c0.206 0.486 0.68 0.82 1.231 0.82 0.736 0 1.333-0.597 1.333-1.333 0-0.185-0.038-0.362-0.106-0.522l0.003 0.009-5-12zM23 12h-2.667l1.333-3.2 1.333 3.2zM21.333 18.667c-0.736 0-1.333 0.597-1.333 1.333v0 3.448l-0.391-0.391c-0.24-0.232-0.566-0.374-0.926-0.374-0.736 0-1.333 0.597-1.333 1.333 0 0.36 0.143 0.687 0.375 0.927l2.666 2.666c0.241 0.241 0.575 0.39 0.943 0.39s0.701-0.149 0.943-0.39l2.667-2.667c0.232-0.24 0.374-0.566 0.374-0.926 0-0.736-0.597-1.333-1.333-1.333-0.36 0-0.687 0.143-0.927 0.375l-0.39 0.39v-3.448c0-0.736-0.597-1.333-1.333-1.333v0z"></path>
</svg>
