<!-- Generated by IcoMoon.io -->
<svg version="1.1" xmlns="http://www.w3.org/2000/svg" width="32" height="32" viewBox="0 0 32 32">
<title>text-expand-filled</title>
<path d="M9.333 24c-0.736 0-1.333 0.597-1.333 1.333s0.597 1.333 1.333 1.333h18.667c0.736 0 1.333-0.597 1.333-1.333s-0.597-1.333-1.333-1.333h-18.667z"></path>
<path d="M17.333 12c0-0.736 0.597-1.333 1.333-1.333h9.333c0.736 0 1.333 0.597 1.333 1.333s-0.597 1.333-1.333 1.333h-9.333c-0.736 0-1.333-0.597-1.333-1.333z"></path>
<path d="M8 5.333c0-0.736 0.597-1.333 1.333-1.333h18.667c0.736 0 1.333 0.597 1.333 1.333s-0.597 1.333-1.333 1.333h-18.667c-0.736 0-1.333-0.597-1.333-1.333z"></path>
<path d="M17.333 18.667c0-0.736 0.597-1.333 1.333-1.333h9.333c0.736 0 1.333 0.597 1.333 1.333s-0.597 1.333-1.333 1.333h-9.333c-0.736 0-1.333-0.597-1.333-1.333z"></path>
<path d="M14.667 15.333c0 3.314-2.686 6-6 6s-6-2.686-6-6c0-3.314 2.686-6 6-6s6 2.686 6 6zM9.333 12.667c0-0.368-0.298-0.667-0.667-0.667s-0.667 0.298-0.667 0.667v2h-2c-0.368 0-0.667 0.299-0.667 0.667s0.298 0.667 0.667 0.667h2v2c0 0.368 0.298 0.667 0.667 0.667s0.667-0.299 0.667-0.667v-2h2c0.368 0 0.667-0.299 0.667-0.667s-0.298-0.667-0.667-0.667h-2v-2z"></path>
</svg>
