<!-- Generated by IcoMoon.io -->
<svg version="1.1" xmlns="http://www.w3.org/2000/svg" width="32" height="32" viewBox="0 0 32 32">
<title>text-grammar-checkmark-filled</title>
<path d="M23.333 16c4.050 0 7.333 3.283 7.333 7.333s-3.283 7.333-7.333 7.333c-4.050 0-7.333-3.283-7.333-7.333s3.283-7.333 7.333-7.333zM26.862 20.195l-5.457 5.457-1.539-2.052c-0.221-0.295-0.639-0.354-0.933-0.133s-0.354 0.639-0.133 0.933l2 2.667c0.243 0.325 0.718 0.358 1.005 0.071l6-6c0.26-0.26 0.26-0.682 0-0.943s-0.683-0.26-0.943 0z"></path>
<path d="M14.692 22.667l-10.847 0.009c-0.663 0.077-1.178 0.641-1.178 1.324 0 0.736 0.597 1.333 1.333 1.333h10.899c-0.152-0.642-0.232-1.312-0.232-2 0-0.224 0.009-0.447 0.025-0.667z"></path>
<path d="M15.331 20h-11.331c-0.736 0-1.333-0.597-1.333-1.333 0-0.684 0.515-1.247 1.178-1.324l0.155-0.009h13.079c-0.736 0.767-1.333 1.67-1.749 2.667z"></path>
<path d="M4 14.667c-0.736 0-1.333-0.597-1.333-1.333 0-0.684 0.515-1.247 1.178-1.324l0.155-0.009h24c0.736 0 1.333 0.597 1.333 1.333 0 0.684-0.515 1.247-1.178 1.324l-0.155 0.009h-24z"></path>
<path d="M28 6.667l-24.155 0.009c-0.663 0.077-1.178 0.641-1.178 1.324 0 0.736 0.597 1.333 1.333 1.333l24.155-0.009c0.663-0.077 1.178-0.641 1.178-1.324 0-0.736-0.597-1.333-1.333-1.333z"></path>
</svg>
