<!-- Generated by IcoMoon.io -->
<svg version="1.1" xmlns="http://www.w3.org/2000/svg" width="32" height="32" viewBox="0 0 32 32">
<title>text-position-behind-filled</title>
<path d="M5 5c-0.736 0-1.333 0.597-1.333 1.333s0.597 1.333 1.333 1.333h22c0.736 0 1.333-0.597 1.333-1.333s-0.597-1.333-1.333-1.333h-22z"></path>
<path d="M14.333 14.667c0-0.114 0.011-0.226 0.033-0.333h3.267c0.022 0.108 0.033 0.219 0.033 0.333v2.333h-3.333v-2.333z"></path>
<path d="M18.982 14.333c0.012 0.109 0.018 0.221 0.018 0.333v6.333c0 0.736 0.597 1.333 1.333 1.333s1.333-0.597 1.333-1.333v-6.333c0-0.112-0.003-0.223-0.010-0.333-0.173-2.974-2.639-5.333-5.657-5.333s-5.484 2.359-5.657 5.333c-0.006 0.11-0.010 0.221-0.010 0.333v6.333c0 0.736 0.597 1.333 1.333 1.333s1.333-0.597 1.333-1.333v-6.333c0-0.113 0.006-0.224 0.018-0.333 0.166-1.5 1.438-2.667 2.982-2.667s2.816 1.167 2.982 2.667z"></path>
<path d="M27 17h-4v-2.333c0-0.112-0.003-0.223-0.008-0.333h4.008c0.736 0 1.333 0.597 1.333 1.333s-0.597 1.333-1.333 1.333z"></path>
<path d="M9 14.667c0-0.112 0.003-0.223 0.008-0.333h-4.008c-0.736 0-1.333 0.597-1.333 1.333s0.597 1.333 1.333 1.333h4v-2.333z"></path>
<path d="M3.667 25c0-0.736 0.597-1.333 1.333-1.333h22c0.736 0 1.333 0.597 1.333 1.333s-0.597 1.333-1.333 1.333h-22c-0.736 0-1.333-0.597-1.333-1.333z"></path>
</svg>
