<!-- Generated by IcoMoon.io -->
<svg version="1.1" xmlns="http://www.w3.org/2000/svg" width="32" height="32" viewBox="0 0 32 32">
<title>text-case-title-filled</title>
<path d="M11.257 4.555c-0.189-0.522-0.68-0.888-1.257-0.888-0.563 0-1.045 0.349-1.24 0.843l-0.003 0.009-8 20.667c-0.054 0.139-0.085 0.3-0.085 0.468 0 0.736 0.597 1.333 1.333 1.333 0.558 0 1.036-0.343 1.235-0.829l0.003-0.009 1.863-4.815h9.273l1.696 4.779c0.193 0.514 0.68 0.873 1.251 0.873 0.736 0 1.333-0.597 1.333-1.333 0-0.154-0.026-0.302-0.074-0.44l0.003 0.009-7.333-20.667zM6.14 18.667l3.805-9.833 3.489 9.833h-7.295zM21.333 4c0.736 0 1.333 0.597 1.333 1.333v0 10.159c0.747-0.514 1.671-0.822 2.666-0.825h0.001c2.947 0 5.333 2.76 5.333 6.167 0 3.405-2.387 6.167-5.333 6.167-1.030-0.003-1.983-0.333-2.761-0.89l0.014 0.010c-0.191 0.517-0.68 0.878-1.253 0.878-0.736 0-1.332-0.596-1.333-1.332v-20.333c0-0.736 0.597-1.333 1.333-1.333v0zM25.333 24.333c1.123 0 2.667-1.191 2.667-3.5s-1.544-3.5-2.667-3.5c-1.123 0-2.667 1.191-2.667 3.5s1.544 3.5 2.667 3.5z"></path>
</svg>
