<!-- Generated by IcoMoon.io -->
<svg version="1.1" xmlns="http://www.w3.org/2000/svg" width="32" height="32" viewBox="0 0 32 32">
<title>text-bullet-list-add-filled</title>
<path d="M6.665 24c0-0.015 0.001-0.033 0.001-0.052 0-1.105-0.895-2-2-2s-2 0.895-2 2c0 0.018 0 0.036 0.001 0.054l-0-0.003c0.029 1.082 0.913 1.948 1.999 1.948s1.971-0.866 1.999-1.946l0-0.003zM16.025 22.667h-6.025l-0.155 0.009c-0.665 0.081-1.176 0.643-1.176 1.324 0 0.735 0.595 1.332 1.33 1.333h6.232c-0.148-0.6-0.232-1.289-0.232-1.997 0-0.236 0.009-0.469 0.028-0.7l-0.002 0.030zM18.412 17.333h-8.412c-0.735-0.002-1.331-0.598-1.331-1.333 0-0.681 0.51-1.243 1.169-1.323l0.006-0.001 0.155-0.009h14.667c-0.003 0-0.007 0-0.011 0-2.453 0-4.667 1.022-6.24 2.664l-0.003 0.003zM6.667 16c0-1.105-0.895-2-2-2s-2 0.895-2 2v0c0.029 1.082 0.913 1.948 1.999 1.948s1.97-0.866 1.999-1.946l0-0.003zM6.667 8.009c0-0.015 0.001-0.033 0.001-0.052 0-1.105-0.895-2-2-2s-2 0.895-2 2c0 0.018 0 0.036 0.001 0.054l-0-0.003c0.029 1.082 0.913 1.948 1.999 1.948s1.97-0.866 1.999-1.946l0-0.003zM28.005 6.668l-18.16 0.009c-0.661 0.086-1.166 0.646-1.166 1.323 0 0.732 0.589 1.326 1.319 1.333l18.161-0.009c0.666-0.081 1.176-0.643 1.176-1.324 0-0.736-0.596-1.332-1.332-1.333h-0zM32 23.333c0-4.050-3.283-7.333-7.333-7.333s-7.333 3.283-7.333 7.333v0c0 4.050 3.283 7.333 7.333 7.333s7.333-3.283 7.333-7.333v0zM25.333 24l0.001 3.337c0 0.368-0.298 0.667-0.667 0.667s-0.667-0.298-0.667-0.667v0-3.337h-3.34c-0.368 0-0.667-0.298-0.667-0.667s0.298-0.667 0.667-0.667v0h3.339v-3.333c0-0.368 0.298-0.667 0.667-0.667s0.667 0.298 0.667 0.667v0 3.333h3.329c0.368 0 0.667 0.298 0.667 0.667s-0.298 0.667-0.667 0.667v0h-3.329z"></path>
</svg>
