<!-- Generated by IcoMoon.io -->
<svg version="1.1" xmlns="http://www.w3.org/2000/svg" width="32" height="32" viewBox="0 0 32 32">
<title>text-align-center-rotate-270-filled</title>
<path d="M8 5.333c-0.736 0-1.333 0.597-1.333 1.333v18.667c0 0.736 0.597 1.333 1.333 1.333s1.333-0.597 1.333-1.333v-18.667c0-0.736-0.597-1.333-1.333-1.333zM24 8c-0.736 0-1.333 0.597-1.333 1.333v13.333c0 0.736 0.597 1.333 1.333 1.333s1.333-0.597 1.333-1.333v-13.333c0-0.736-0.597-1.333-1.333-1.333zM14.667 4c0-0.736 0.597-1.333 1.333-1.333s1.333 0.597 1.333 1.333v24c0 0.736-0.597 1.333-1.333 1.333s-1.333-0.597-1.333-1.333v-24z"></path>
</svg>
