<!-- Generated by IcoMoon.io -->
<svg version="1.1" xmlns="http://www.w3.org/2000/svg" width="32" height="32" viewBox="0 0 32 32">
<title>text-indent-decrease-ltr-filled</title>
<path d="M12 21.333h11.333c0.736 0 1.333 0.597 1.333 1.333 0 0.684-0.515 1.247-1.178 1.324l-0.155 0.009h-11.333c-0.736 0-1.333-0.597-1.333-1.333 0-0.684 0.515-1.247 1.178-1.324l0.155-0.009zM3.057 15.057l2.667-2.667c0.521-0.521 1.365-0.521 1.886 0 0.481 0.481 0.518 1.237 0.111 1.76l-0.111 0.126-1.724 1.724 1.724 1.724c0.521 0.521 0.521 1.365 0 1.886-0.481 0.481-1.237 0.518-1.76 0.111l-0.126-0.111-2.667-2.667c-0.481-0.481-0.518-1.237-0.111-1.76l0.111-0.126zM12 14.667l15.333-0.001c0.736 0 1.333 0.597 1.333 1.333 0 0.684-0.515 1.247-1.178 1.325l-0.155 0.009-15.333 0.001c-0.736 0-1.333-0.597-1.333-1.333 0-0.684 0.515-1.247 1.178-1.325l0.155-0.009zM12 8h11.333c0.736 0 1.333 0.597 1.333 1.333 0 0.684-0.515 1.247-1.178 1.324l-0.155 0.009h-11.333c-0.736 0-1.333-0.597-1.333-1.333 0-0.684 0.515-1.247 1.178-1.324l0.155-0.009z"></path>
</svg>
