<!-- Generated by IcoMoon.io -->
<svg version="1.1" xmlns="http://www.w3.org/2000/svg" width="32" height="32" viewBox="0 0 32 32">
<title>text-direction-horizontal-right-filled</title>
<path d="M10.334 4c0.538 0 1.024 0.324 1.231 0.821l5 12c0.283 0.68-0.038 1.46-0.718 1.744s-1.46-0.038-1.744-0.718l-1.325-3.179h-4.889l-1.325 3.179c-0.283 0.68-1.064 1.001-1.744 0.718s-1.001-1.064-0.718-1.744l5-12c0.207-0.497 0.693-0.821 1.231-0.821zM10.334 8.8l-1.333 3.2h2.667l-1.333-3.2zM23.057 7.057c0.521-0.521 1.365-0.521 1.886 0l2.569 2.578c0.297 0.244 0.487 0.613 0.488 1.027v0.008c-0.001 0.414-0.191 0.784-0.488 1.027l-2.569 2.578c-0.521 0.521-1.365 0.521-1.886 0s-0.521-1.365 0-1.886l0.391-0.391h-6.114c-0.736 0-1.333-0.597-1.333-1.333s0.597-1.333 1.333-1.333h6.114l-0.391-0.391c-0.521-0.521-0.521-1.365 0-1.886zM24.943 19.057c-0.521-0.521-1.365-0.521-1.886 0s-0.521 1.365 0 1.886l0.391 0.391h-18.114c-0.736 0-1.333 0.597-1.333 1.333s0.597 1.333 1.333 1.333h18.114l-0.391 0.391c-0.521 0.521-0.521 1.365 0 1.886s1.365 0.521 1.886 0l2.667-2.667c0.521-0.521 0.521-1.365 0-1.886l-2.667-2.667z"></path>
</svg>
