<!-- Generated by IcoMoon.io -->
<svg version="1.1" xmlns="http://www.w3.org/2000/svg" width="32" height="32" viewBox="0 0 32 32">
<title>text-bullet-list-tree-filled</title>
<path d="M10 22c1.105 0 2 0.895 2 2s-0.895 2-2 2v0c-1.105 0-2-0.895-2-2s0.895-2 2-2v0zM15.333 22.667h12.671c0.736 0.001 1.332 0.597 1.332 1.333 0 0.681-0.51 1.243-1.169 1.323l-0.006 0.001-0.156 0.009h-12.671c-0.735-0.002-1.331-0.598-1.331-1.333 0-0.681 0.51-1.243 1.169-1.323l0.006-0.001 0.155-0.009zM4.667 14c1.105 0 2 0.895 2 2s-0.895 2-2 2v0c-1.105 0-2-0.895-2-2s0.895-2 2-2v0zM10 14.667h18.004c0.736 0.001 1.332 0.597 1.332 1.333 0 0.681-0.51 1.243-1.169 1.323l-0.006 0.001-0.156 0.009h-18.004c-0.735-0.002-1.331-0.598-1.331-1.333 0-0.681 0.51-1.243 1.169-1.323l0.006-0.001 0.155-0.009zM4.667 6.011c0.015-0 0.033-0.001 0.052-0.001 1.105 0 2 0.895 2 2s-0.895 2-2 2c-0.018 0-0.036-0-0.054-0.001l0.003 0c-1.105 0-2-0.895-2-2s0.895-2 2-2v0zM10 6.667h18.004c0.736 0.001 1.332 0.597 1.332 1.333 0 0.681-0.51 1.243-1.169 1.323l-0.006 0.001-0.156 0.009h-18.004c-0.735-0.002-1.331-0.598-1.331-1.333 0-0.681 0.51-1.243 1.169-1.323l0.006-0.001 0.155-0.009z"></path>
</svg>
