<!-- Generated by IcoMoon.io -->
<svg version="1.1" xmlns="http://www.w3.org/2000/svg" width="32" height="32" viewBox="0 0 32 32">
<title>text-word-count-filled</title>
<path d="M2.667 8c0-0.736 0.597-1.333 1.333-1.333v0h24c0.736 0 1.333 0.597 1.333 1.333s-0.597 1.333-1.333 1.333v0h-24c-0.736 0-1.333-0.597-1.333-1.333v0zM2.667 16c0-0.736 0.597-1.333 1.333-1.333v0h24c0.736 0 1.333 0.597 1.333 1.333s-0.597 1.333-1.333 1.333v0h-24c-0.736 0-1.333-0.597-1.333-1.333v0zM24 24c0-0.736 0.597-1.333 1.333-1.333v0h2.667c0.736 0 1.333 0.597 1.333 1.333s-0.597 1.333-1.333 1.333v0h-2.667c-0.736 0-1.333-0.597-1.333-1.333v0zM18.713 22.837c-0.082 0.080-0.143 0.181-0.175 0.294l-0.001 0.005c-0.147 0.589-0.671 1.018-1.296 1.018-0.736 0-1.333-0.597-1.333-1.333 0-0.136 0.020-0.267 0.058-0.39l-0.002 0.009c0.171-0.617 0.496-1.144 0.932-1.554l0.002-0.002c0.573-0.533 1.376-0.884 2.395-0.884 2.148 0 3.375 1.667 3.375 3.152 0 0.511-0.088 1.355-0.621 2.112 0.043 0.053 0.083 0.109 0.123 0.167 0.331 0.491 0.499 1.075 0.499 1.72 0 1.111-0.357 2.053-1.084 2.701-0.699 0.621-1.563 0.815-2.291 0.815-0.655 0-1.376-0.115-2.017-0.543-0.659-0.44-1.063-1.097-1.297-1.848-0.038-0.119-0.061-0.255-0.061-0.397 0-0.737 0.597-1.334 1.334-1.334 0.595 0 1.099 0.389 1.271 0.927l0.003 0.009c0.105 0.34 0.211 0.411 0.232 0.425 0.040 0.027 0.169 0.093 0.536 0.093 0.293 0 0.449-0.080 0.517-0.14 0.037-0.033 0.191-0.181 0.191-0.708 0-0.168-0.037-0.221-0.041-0.228-0.009-0.013-0.040-0.053-0.137-0.1-0.229-0.113-0.577-0.157-0.869-0.157-0.736 0-1.333-0.597-1.333-1.333s0.597-1.333 1.333-1.333v0c0.373 0 0.591-0.063 0.709-0.115 0.079-0.031 0.145-0.081 0.195-0.144l0.001-0.001c0.085-0.113 0.143-0.319 0.143-0.588-0.013-0.113-0.063-0.212-0.139-0.287l-0-0c-0.085-0.088-0.247-0.199-0.569-0.199-0.368 0-0.515 0.111-0.579 0.171zM10.417 23.515c0-0.212 0.087-0.447 0.24-0.62 0.106-0.135 0.267-0.222 0.448-0.228l0.001-0c0.008-0 0.018-0.001 0.028-0.001 0.253 0 0.476 0.126 0.612 0.318l0.002 0.002c0.076 0.124 0.187 0.421-0.119 0.971-0.14 0.252-0.36 0.493-0.696 0.773-0.154 0.128-0.335 0.269-0.519 0.405l-0.036 0.025-0.085 0.063c-0.177 0.132-0.373 0.279-0.564 0.429-0.913 0.725-1.98 1.795-1.98 3.68 0 0.736 0.597 1.333 1.333 1.333v0h4.027c0.736 0 1.333-0.597 1.333-1.333s-0.597-1.333-1.333-1.333v0h-2.029c0.092-0.083 0.191-0.167 0.294-0.249l0.013-0.010c0.156-0.123 0.315-0.24 0.493-0.373l0.093-0.069c0.208-0.156 0.44-0.331 0.667-0.52 0.456-0.38 0.953-0.867 1.32-1.524 0.707-1.269 0.711-2.608 0.057-3.667-0.621-1.011-1.743-1.588-2.909-1.588-2.072 0-3.357 1.857-3.357 3.515 0 0.736 0.597 1.333 1.333 1.333s1.333-0.597 1.333-1.333v0zM3.403 25.355c-0.207 0.139-0.462 0.222-0.736 0.222-0.736 0-1.333-0.597-1.333-1.333 0-0.449 0.222-0.847 0.563-1.088l0.004-0.003c0.813-0.573 1.404-1.485 1.529-2.089 0.128-0.614 0.664-1.068 1.307-1.068 0.736 0 1.333 0.597 1.333 1.333 0 0.002 0 0.004 0 0.006v-0 8c0 0.736-0.597 1.333-1.333 1.333s-1.333-0.597-1.333-1.333v0-3.979z"></path>
</svg>
