<!-- Generated by IcoMoon.io -->
<svg version="1.1" xmlns="http://www.w3.org/2000/svg" width="32" height="32" viewBox="0 0 32 32">
<title>text-line-spacing-filled</title>
<path d="M26.667 8.552v4.781c0 0.736-0.597 1.333-1.333 1.333s-1.333-0.597-1.333-1.333v-4.781l-0.391 0.391c-0.521 0.521-1.365 0.521-1.886 0s-0.521-1.365 0-1.886l2.667-2.667c0.128-0.128 0.275-0.224 0.432-0.289s0.33-0.101 0.51-0.101 0.353 0.036 0.51 0.101c0.157 0.065 0.305 0.162 0.432 0.289l2.667 2.667c0.521 0.521 0.521 1.365 0 1.886s-1.365 0.521-1.886 0l-0.391-0.391z"></path>
<path d="M2.667 8c0-0.736 0.597-1.333 1.333-1.333h10.667c0.736 0 1.333 0.597 1.333 1.333s-0.597 1.333-1.333 1.333h-10.667c-0.736 0-1.333-0.597-1.333-1.333z"></path>
<path d="M2.667 16c0-0.736 0.597-1.333 1.333-1.333h14.667c0.736 0 1.333 0.597 1.333 1.333s-0.597 1.333-1.333 1.333h-14.667c-0.736 0-1.333-0.597-1.333-1.333z"></path>
<path d="M4 22.667c-0.736 0-1.333 0.597-1.333 1.333s0.597 1.333 1.333 1.333h10.667c0.736 0 1.333-0.597 1.333-1.333s-0.597-1.333-1.333-1.333h-10.667z"></path>
<path d="M26.667 18.667v4.781l0.391-0.391c0.521-0.521 1.365-0.521 1.886 0s0.521 1.365 0 1.886l-2.667 2.667c-0.521 0.521-1.365 0.521-1.886 0l-2.667-2.667c-0.521-0.521-0.521-1.365 0-1.886s1.365-0.521 1.886 0l0.391 0.391v-4.781c0-0.736 0.597-1.333 1.333-1.333s1.333 0.597 1.333 1.333z"></path>
</svg>
