<!-- Generated by IcoMoon.io -->
<svg version="1.1" xmlns="http://www.w3.org/2000/svg" width="32" height="32" viewBox="0 0 32 32">
<title>text-bullet-list-rtl-filled</title>
<path d="M27.339 22c-1.105 0-2 0.895-2 2s0.895 2 2 2v0c1.105 0 2-0.895 2-2s-0.895-2-2-2v0zM22.005 22.667h-18.005c-0.736 0.001-1.332 0.597-1.332 1.333 0 0.681 0.51 1.243 1.169 1.323l0.006 0.001 0.156 0.009h18.004c0.736-0.001 1.332-0.597 1.332-1.333 0-0.681-0.51-1.243-1.169-1.323l-0.006-0.001-0.156-0.009zM27.339 14c-1.105 0-2 0.895-2 2s0.895 2 2 2v0c1.105 0 2-0.895 2-2s-0.895-2-2-2v0zM22.005 14.667h-18.005c-0.736 0.001-1.332 0.597-1.332 1.333 0 0.681 0.51 1.243 1.169 1.323l0.006 0.001 0.156 0.009h18.004c0.736-0.001 1.332-0.597 1.332-1.333 0-0.681-0.51-1.243-1.169-1.323l-0.006-0.001-0.156-0.009zM27.339 6.011c-0.015-0-0.033-0.001-0.052-0.001-1.105 0-2 0.895-2 2s0.895 2 2 2c0.018 0 0.036-0 0.054-0.001l-0.003 0c1.105 0 2-0.895 2-2s-0.895-2-2-2v0zM22.005 6.668h-18.005c-0.736 0.001-1.332 0.597-1.332 1.333 0 0.681 0.51 1.243 1.169 1.323l0.006 0.001 0.156 0.009h18.004c0.736-0.001 1.332-0.597 1.332-1.333 0-0.681-0.51-1.243-1.169-1.323l-0.006-0.001-0.156-0.011z"></path>
</svg>
