<!-- Generated by IcoMoon.io -->
<svg version="1.1" xmlns="http://www.w3.org/2000/svg" width="32" height="32" viewBox="0 0 32 32">
<title>textbox-more-filled</title>
<path d="M24.333 4c2.025 0 3.667 1.642 3.667 3.667v16.4c-0.813 0.165-1.519 0.626-2 1.266-0.608-0.809-1.576-1.333-2.667-1.333s-2.059 0.524-2.667 1.333c-0.608-0.809-1.576-1.333-2.667-1.333-1.841 0-3.333 1.492-3.333 3.333 0 0.228 0.023 0.451 0.067 0.667h-7.067c-2.025 0-3.667-1.642-3.667-3.667v-16.667c0-2.025 1.642-3.667 3.667-3.667h16.667zM20 16.333c0-0.552-0.448-1-1-1l-10.136 0.009c-0.488 0.066-0.864 0.485-0.864 0.991 0 0.552 0.448 1 1 1l10.136-0.009c0.488-0.066 0.864-0.485 0.864-0.991zM23 20.667l-14.136 0.009c-0.488 0.066-0.864 0.485-0.864 0.991 0 0.552 0.448 1 1 1l14.136-0.009c0.488-0.066 0.864-0.485 0.864-0.991 0-0.552-0.448-1-1-1zM24 11c0-0.552-0.448-1-1-1l-14.136 0.009c-0.488 0.066-0.864 0.485-0.864 0.991 0 0.552 0.448 1 1 1l14.136-0.009c0.488-0.066 0.864-0.485 0.864-0.991zM18 29.333c1.105 0 2-0.895 2-2s-0.895-2-2-2c-1.105 0-2 0.895-2 2s0.895 2 2 2zM23.333 29.333c1.105 0 2-0.895 2-2s-0.895-2-2-2c-1.105 0-2 0.895-2 2s0.895 2 2 2zM30.667 27.333c0 1.105-0.895 2-2 2s-2-0.895-2-2c0-1.105 0.895-2 2-2s2 0.895 2 2z"></path>
</svg>
