<!-- Generated by IcoMoon.io -->
<svg version="1.1" xmlns="http://www.w3.org/2000/svg" width="32" height="32" viewBox="0 0 32 32">
<title>text-align-right-rotate-270-filled</title>
<path d="M8 25.333c-0.736 0-1.333-0.597-1.333-1.333v0-20c0-0.736 0.597-1.333 1.333-1.333s1.333 0.597 1.333 1.333v0 20c0 0.736-0.597 1.333-1.333 1.333v0zM24 20c-0.736 0-1.333-0.597-1.333-1.333v0-14.667c0-0.736 0.597-1.333 1.333-1.333s1.333 0.597 1.333 1.333v0 14.667c0 0.736-0.597 1.333-1.333 1.333v0zM14.667 28c0 0.736 0.597 1.333 1.333 1.333s1.333-0.597 1.333-1.333v0-24c0-0.736-0.597-1.333-1.333-1.333s-1.333 0.597-1.333 1.333v0 24z"></path>
</svg>
