<!-- Generated by IcoMoon.io -->
<svg version="1.1" xmlns="http://www.w3.org/2000/svg" width="32" height="32" viewBox="0 0 32 32">
<title>text-bullet-list-square-shield-filled</title>
<path d="M8 4.8c-1.767 0-3.2 1.433-3.2 3.2v0 16c0 1.767 1.433 3.2 3.2 3.2v0h9.288c-0.765-1.28-1.288-2.866-1.288-4.8h-0.8c-0.442 0-0.8-0.358-0.8-0.8s0.358-0.8 0.8-0.8v0h0.8v-2.4c0-0.288 0.048-0.555 0.133-0.8h-0.933c-0.442 0-0.8-0.358-0.8-0.8s0.358-0.8 0.8-0.8v0h2.757c0.072-0.016 0.144-0.032 0.218-0.042 1.654-0.232 3.125-1.416 3.987-2.296 0.47-0.471 1.12-0.762 1.838-0.762s1.368 0.291 1.838 0.762l0 0c0.358 0.366 0.822 0.784 1.362 1.166v-6.829c0-1.767-1.433-3.2-3.2-3.2v0h-16zM12 11.6c0 0.663-0.537 1.2-1.2 1.2s-1.2-0.537-1.2-1.2v0c0-0.663 0.537-1.2 1.2-1.2s1.2 0.537 1.2 1.2v0zM10.8 17.6c-0.663 0-1.2-0.537-1.2-1.2s0.537-1.2 1.2-1.2v0c0.663 0 1.2 0.537 1.2 1.2s-0.537 1.2-1.2 1.2v0zM12 21.2c0 0.663-0.537 1.2-1.2 1.2s-1.2-0.537-1.2-1.2v0c0-0.663 0.537-1.2 1.2-1.2s1.2 0.537 1.2 1.2v0zM15.2 11.2h6.4c0.442 0 0.8 0.358 0.8 0.8s-0.358 0.8-0.8 0.8v0h-6.4c-0.442 0-0.8-0.358-0.8-0.8s0.358-0.8 0.8-0.8v0zM24.696 14.784c0.928 0.944 2.712 2.451 4.906 2.76 0.438 0.061 0.798 0.414 0.798 0.856v4c0 5.549-5.091 7.563-6.192 7.934-0.062 0.022-0.134 0.035-0.208 0.035s-0.146-0.013-0.212-0.036l0.004 0.001c-1.101-0.371-6.192-2.384-6.192-7.934v-4c0-0.442 0.36-0.795 0.798-0.856 2.192-0.309 3.976-1.814 4.906-2.762 0.18-0.175 0.425-0.283 0.696-0.283s0.516 0.108 0.696 0.283l-0-0z"></path>
</svg>
