<!-- Generated by IcoMoon.io -->
<svg version="1.1" xmlns="http://www.w3.org/2000/svg" width="32" height="32" viewBox="0 0 32 32">
<title>text-proofing-tools-filled</title>
<path d="M29.588 6.628c-0.459-1.274-1.152-2.114-2.071-2.565-0.813-0.399-1.646-0.397-2.123-0.396l-0.061 0c-1.078 0-1.955 0.371-2.62 0.962-0.637 0.567-1.020 1.28-1.253 1.903-0.236 0.629-0.348 1.238-0.403 1.678-0.028 0.223-0.042 0.411-0.049 0.547-0.004 0.068-0.006 0.124-0.007 0.165l-0.001 0.051-0 0.017v0.062c-0 0.663-0.001 1.958 0.467 3.151 0.25 0.637 0.648 1.29 1.284 1.814 0.643 0.53 1.457 0.867 2.435 0.975 0.788 0.087 3.244 0.038 4.362-2.431 0.304-0.671 0.006-1.461-0.665-1.765s-1.461-0.006-1.765 0.665c-0.208 0.46-0.508 0.665-0.803 0.774-0.334 0.124-0.677 0.124-0.835 0.107-0.523-0.058-0.834-0.219-1.034-0.384-0.208-0.171-0.372-0.41-0.497-0.729-0.269-0.685-0.283-1.518-0.283-2.225l0-0.016c0-0.018 0.001-0.048 0.004-0.089 0.005-0.083 0.014-0.207 0.033-0.359 0.039-0.311 0.114-0.701 0.254-1.072 0.141-0.377 0.322-0.663 0.528-0.847 0.179-0.159 0.426-0.288 0.849-0.288 0.543 0 0.798 0.020 1.010 0.124 0.142 0.069 0.445 0.269 0.736 1.075 0.25 0.693 1.014 1.052 1.706 0.802s1.052-1.014 0.802-1.707zM19.352 8.95c0.261-0.486 0.415-1.079 0.415-1.783 0-0.711-0.137-1.346-0.429-1.886-0.297-0.549-0.714-0.927-1.155-1.174-0.793-0.443-1.644-0.441-1.936-0.44l-0.031 0h-2.883c-0.736 0-1.333 0.597-1.333 1.333v8.667c0 0.736 0.597 1.333 1.333 1.333h3.167c0.398 0 1.283-0.052 2.116-0.499 0.435-0.234 0.88-0.59 1.211-1.118 0.334-0.533 0.506-1.168 0.506-1.882 0-0.737-0.161-1.394-0.497-1.946-0.143-0.234-0.307-0.434-0.485-0.604zM16.883 6.435c0.044 0.024 0.077 0.052 0.109 0.113 0.037 0.069 0.108 0.247 0.108 0.619 0 0.305-0.062 0.458-0.101 0.526-0.037 0.067-0.087 0.116-0.158 0.16-0.179 0.108-0.441 0.146-0.617 0.147h-1.558v-1.667h1.55c0.296 0 0.519 0.020 0.666 0.102zM16.232 10.667h0.269c0.334 0 0.66 0.017 0.893 0.132 0.086 0.043 0.133 0.087 0.166 0.142 0.035 0.057 0.108 0.213 0.108 0.559 0 0.276-0.063 0.408-0.099 0.466-0.040 0.063-0.103 0.126-0.215 0.186-0.261 0.14-0.626 0.181-0.853 0.181h-1.833v-1.667l1.565-0zM6.707 3.667c0.558 0.008 1.051 0.362 1.238 0.887l3.075 8.667c0.246 0.694-0.117 1.456-0.811 1.702s-1.456-0.117-1.702-0.811l-0.254-0.715h-3.386l-0.29 0.75c-0.266 0.687-1.038 1.028-1.725 0.762s-1.028-1.038-0.762-1.725l3.355-8.667c0.201-0.52 0.705-0.86 1.262-0.852zM6.634 8.834l-0.734 1.897h1.408l-0.673-1.897zM20.643 16.813l-5.732 6.878-2.301-2.301c-0.521-0.521-1.365-0.521-1.886 0s-0.521 1.365 0 1.886l3.333 3.333c0.554 0.554 1.465 0.513 1.967-0.089l6.667-8c0.471-0.566 0.395-1.406-0.171-1.878s-1.406-0.395-1.878 0.171z"></path>
</svg>
