<!-- Generated by IcoMoon.io -->
<svg version="1.1" xmlns="http://www.w3.org/2000/svg" width="32" height="32" viewBox="0 0 32 32">
<title>text-position-through-filled</title>
<path d="M5 5c-0.736 0-1.333 0.597-1.333 1.333s0.597 1.333 1.333 1.333h22c0.736 0 1.333-0.597 1.333-1.333s-0.597-1.333-1.333-1.333h-22z"></path>
<path d="M21.165 12.333c-0.516-1.14-1.398-2.079-2.496-2.667-0.795-0.425-1.704-0.667-2.669-0.667s-1.874 0.241-2.669 0.667c-1.098 0.588-1.981 1.527-2.496 2.667-0.279 0.616-0.45 1.29-0.492 2-0.006 0.11-0.010 0.221-0.010 0.333v6.333c0 0.243 0.065 0.471 0.178 0.667 0.231 0.399 0.661 0.667 1.155 0.667s0.924-0.268 1.155-0.667c0.113-0.196 0.178-0.424 0.178-0.667v-6.333c0-0.113 0.006-0.224 0.018-0.333 0.089-0.806 0.498-1.516 1.096-2 0.515-0.417 1.171-0.667 1.886-0.667s1.371 0.25 1.886 0.667c0.598 0.484 1.007 1.194 1.096 2 0.012 0.109 0.018 0.221 0.018 0.333v6.333c0 0.243 0.065 0.471 0.178 0.667 0.231 0.399 0.661 0.667 1.155 0.667s0.924-0.268 1.155-0.667c0.113-0.196 0.178-0.424 0.178-0.667v-6.333c0-0.112-0.003-0.223-0.010-0.333-0.041-0.71-0.213-1.384-0.492-2z"></path>
<path d="M5 9.667h6.101c-0.755 0.74-1.343 1.649-1.703 2.667h-4.398c-0.736 0-1.333-0.597-1.333-1.333s0.597-1.333 1.333-1.333z"></path>
<path d="M5 14.333h4.008c-0.005 0.11-0.008 0.222-0.008 0.333v2.333h-4c-0.736 0-1.333-0.597-1.333-1.333s0.597-1.333 1.333-1.333z"></path>
<path d="M5 19h4v2c0 0.23 0.029 0.454 0.084 0.667h-4.084c-0.736 0-1.333-0.597-1.333-1.333s0.597-1.333 1.333-1.333z"></path>
<path d="M14.333 21c0 0.23-0.029 0.454-0.084 0.667h3.501c-0.055-0.213-0.084-0.437-0.084-0.667v-2h-3.333v2z"></path>
<path d="M23 21c0 0.23-0.029 0.454-0.084 0.667h4.084c0.736 0 1.333-0.597 1.333-1.333s-0.597-1.333-1.333-1.333h-4v2z"></path>
<path d="M27 17h-4v-2.333c0-0.112-0.003-0.223-0.008-0.333h4.008c0.736 0 1.333 0.597 1.333 1.333s-0.597 1.333-1.333 1.333z"></path>
<path d="M17.667 14.667v2.333h-3.333v-2.333c0-0.114 0.011-0.226 0.033-0.333h3.267c0.022 0.108 0.033 0.219 0.033 0.333z"></path>
<path d="M27 12.333h-4.398c-0.36-1.017-0.948-1.927-1.703-2.667h6.101c0.736 0 1.333 0.597 1.333 1.333s-0.597 1.333-1.333 1.333z"></path>
<path d="M5 23.667h22c0.736 0 1.333 0.597 1.333 1.333s-0.597 1.333-1.333 1.333h-22c-0.736 0-1.333-0.597-1.333-1.333s0.597-1.333 1.333-1.333z"></path>
</svg>
