<!-- Generated by IcoMoon.io -->
<svg version="1.1" xmlns="http://www.w3.org/2000/svg" width="32" height="32" viewBox="0 0 32 32">
<title>text-underline-filled</title>
<path d="M8 6c0-0.736 0.597-1.333 1.333-1.333s1.333 0.597 1.333 1.333v8.001c-0.005 4.617 1.759 6.665 5.663 6.665s5.671-2.049 5.671-6.667v-8c0-0.736 0.597-1.333 1.333-1.333s1.333 0.597 1.333 1.333v8c0 6.052-2.906 9.333-8.337 9.333s-8.335-3.282-8.329-9.333v-8zM9.333 28c-0.736 0-1.333-0.597-1.333-1.333s0.597-1.333 1.333-1.333h14c0.736 0 1.333 0.597 1.333 1.333s-0.597 1.333-1.333 1.333h-14z"></path>
</svg>
