<!-- Generated by IcoMoon.io -->
<svg version="1.1" xmlns="http://www.w3.org/2000/svg" width="32" height="32" viewBox="0 0 32 32">
<title>text-bullet-list-square-filled</title>
<path d="M7 4c-1.657 0-3 1.343-3 3v18c0 1.657 1.343 3 3 3h18c1.657 0 3-1.343 3-3v-18c0-1.657-1.343-3-3-3h-18zM11.667 11c0 0.736-0.597 1.333-1.333 1.333s-1.333-0.597-1.333-1.333c0-0.736 0.597-1.333 1.333-1.333s1.333 0.597 1.333 1.333zM14 11c0-0.552 0.448-1 1-1h7.333c0.552 0 1 0.448 1 1s-0.448 1-1 1h-7.333c-0.552 0-1-0.448-1-1zM14 16c0-0.552 0.448-1 1-1h7.333c0.552 0 1 0.448 1 1s-0.448 1-1 1h-7.333c-0.552 0-1-0.448-1-1zM15 20h7.333c0.552 0 1 0.448 1 1s-0.448 1-1 1h-7.333c-0.552 0-1-0.448-1-1s0.448-1 1-1zM10.333 17.333c-0.736 0-1.333-0.597-1.333-1.333s0.597-1.333 1.333-1.333c0.736 0 1.333 0.597 1.333 1.333s-0.597 1.333-1.333 1.333zM11.667 21c0 0.736-0.597 1.333-1.333 1.333s-1.333-0.597-1.333-1.333c0-0.736 0.597-1.333 1.333-1.333s1.333 0.597 1.333 1.333z"></path>
</svg>
