<!-- Generated by IcoMoon.io -->
<svg version="1.1" xmlns="http://www.w3.org/2000/svg" width="32" height="32" viewBox="0 0 32 32">
<title>text-position-front-filled</title>
<path d="M5 5c-0.736 0-1.333 0.597-1.333 1.333s0.597 1.333 1.333 1.333h22c0.736 0 1.333-0.597 1.333-1.333s-0.597-1.333-1.333-1.333h-22z"></path>
<path d="M16 11.667c-1.040 0-1.957 0.529-2.495 1.333h-2.923c0.712-2.316 2.868-4 5.418-4s4.706 1.684 5.418 4h-2.923c-0.538-0.804-1.455-1.333-2.495-1.333z"></path>
<path d="M5 14.333c-0.736 0-1.333 0.597-1.333 1.333s0.597 1.333 1.333 1.333h22c0.736 0 1.333-0.597 1.333-1.333s-0.597-1.333-1.333-1.333h-22z"></path>
<path d="M10.333 18.333h2.667v2.667c0 0.736-0.597 1.333-1.333 1.333s-1.333-0.597-1.333-1.333v-2.667z"></path>
<path d="M21.667 18.333h-2.667v2.667c0 0.736 0.597 1.333 1.333 1.333s1.333-0.597 1.333-1.333v-2.667z"></path>
<path d="M3.667 25c0-0.736 0.597-1.333 1.333-1.333h22c0.736 0 1.333 0.597 1.333 1.333s-0.597 1.333-1.333 1.333h-22c-0.736 0-1.333-0.597-1.333-1.333z"></path>
</svg>
