<!-- Generated by IcoMoon.io -->
<svg version="1.1" xmlns="http://www.w3.org/2000/svg" width="32" height="32" viewBox="0 0 32 32">
<title>text-grammar-dismiss-filled</title>
<path d="M23.333 16c4.050 0 7.333 3.283 7.333 7.333s-3.283 7.333-7.333 7.333v0c-4.050 0-7.333-3.283-7.333-7.333s3.283-7.333 7.333-7.333v0zM20.032 20.032c-0.121 0.121-0.195 0.287-0.195 0.471s0.075 0.351 0.195 0.471l2.359 2.36-2.356 2.355c-0.121 0.121-0.196 0.288-0.196 0.472 0 0.368 0.299 0.667 0.667 0.667 0.184 0 0.351-0.075 0.471-0.195v0l2.356-2.356 2.36 2.359c0.121 0.126 0.291 0.204 0.48 0.204 0.368 0 0.667-0.298 0.667-0.667 0-0.188-0.078-0.358-0.203-0.479l-2.359-2.36 2.361-2.36c0.116-0.12 0.187-0.283 0.187-0.463 0-0.368-0.298-0.667-0.667-0.667-0.18 0-0.343 0.071-0.463 0.187l-2.361 2.36-2.36-2.36c-0.121-0.121-0.287-0.195-0.471-0.195s-0.351 0.075-0.471 0.195v0zM14.692 22.667l-10.848 0.009c-0.665 0.081-1.176 0.643-1.176 1.324 0 0.736 0.596 1.332 1.332 1.333h10.899c-0.148-0.6-0.232-1.289-0.232-1.997 0-0.236 0.009-0.469 0.028-0.7l-0.002 0.030zM15.332 20h-11.332c-0.736-0.001-1.332-0.597-1.332-1.333 0-0.681 0.51-1.243 1.169-1.323l0.006-0.001 0.156-0.009h13.080c-0.722 0.75-1.312 1.634-1.728 2.61l-0.021 0.057zM4 14.667c-0.736-0.001-1.332-0.597-1.332-1.333 0-0.681 0.51-1.243 1.169-1.323l0.006-0.001 0.156-0.009h24c0.736 0.001 1.332 0.597 1.332 1.333 0 0.681-0.51 1.243-1.169 1.323l-0.006 0.001-0.156 0.009h-24zM28 6.667l-24.156 0.009c-0.665 0.081-1.176 0.643-1.176 1.324 0 0.736 0.596 1.332 1.332 1.333l24.156-0.009c0.666-0.081 1.176-0.643 1.176-1.324 0-0.736-0.596-1.332-1.332-1.333h-0z"></path>
</svg>
