<!-- Generated by IcoMoon.io -->
<svg version="1.1" xmlns="http://www.w3.org/2000/svg" width="32" height="32" viewBox="0 0 32 32">
<title>text-proofing-tools-zi-filled</title>
<path d="M10.667 4c0-0.736-0.597-1.333-1.333-1.333s-1.333 0.597-1.333 1.333v1.333h-4.667c-0.736 0-1.333 0.597-1.333 1.333v1.667c0 0.736 0.597 1.333 1.333 1.333s1.333-0.597 1.333-1.333v-0.333h9.333v0.333c0 0.736 0.597 1.333 1.333 1.333s1.333-0.597 1.333-1.333v-1.667c0-0.736-0.597-1.333-1.333-1.333h-4.667v-1.333zM5.333 10.667c0-0.736 0.597-1.333 1.333-1.333h5.333c0.513 0 0.98 0.294 1.202 0.756s0.16 1.010-0.161 1.411l-2 2.5h3.626c0.736 0 1.333 0.597 1.333 1.333s-0.597 1.333-1.333 1.333h-4.001v1.461c0 2.719-3.176 4.199-5.258 2.45l-0.266-0.223c-0.564-0.474-0.637-1.315-0.163-1.879s1.315-0.637 1.879-0.163l0.266 0.223c0.347 0.291 0.876 0.045 0.876-0.408v-1.461h-3.999c-0.736 0-1.333-0.597-1.333-1.333s0.597-1.333 1.333-1.333h3.999c0-0.303 0.103-0.596 0.292-0.832l0.934-1.167h-2.559c-0.736 0-1.333-0.597-1.333-1.333zM24.233 6.154c-0.207-0.497-0.693-0.821-1.231-0.821s-1.024 0.324-1.231 0.821l-5 12c-0.283 0.68 0.038 1.46 0.718 1.744s1.46-0.038 1.744-0.718l1.047-2.513h5.443l1.047 2.513c0.283 0.68 1.064 1.001 1.743 0.718s1.001-1.064 0.718-1.743l-4.998-12zM24.612 14h-3.221l1.611-3.866 1.61 3.866zM14.91 27.358l5.732-6.878c0.471-0.566 1.312-0.642 1.878-0.171s0.642 1.312 0.171 1.878l-6.667 8c-0.502 0.602-1.413 0.644-1.967 0.089l-3.333-3.333c-0.521-0.521-0.521-1.365 0-1.886s1.365-0.521 1.886 0l2.301 2.301z"></path>
</svg>
