<!-- Generated by IcoMoon.io -->
<svg version="1.1" xmlns="http://www.w3.org/2000/svg" width="32" height="32" viewBox="0 0 32 32">
<title>text-bullet-list-rotate-90-filled</title>
<path d="M9.999 4.667c0 0.015 0.001 0.033 0.001 0.052 0 1.105-0.895 2-2 2s-2-0.895-2-2c0-0.018 0-0.036 0.001-0.054l-0 0.003c0.029-1.082 0.913-1.948 1.999-1.948s1.97 0.866 1.999 1.946l0 0.003zM9.332 10v18.004c-0.001 0.736-0.597 1.332-1.333 1.332-0.681 0-1.243-0.51-1.323-1.169l-0.001-0.006-0.008-0.156v-18.004c-0-0.003-0-0.006-0-0.009 0-0.736 0.597-1.333 1.333-1.333 0.685 0 1.25 0.517 1.325 1.182l0.001 0.006 0.008 0.155zM17.999 4.667c0 0.015 0.001 0.033 0.001 0.052 0 1.105-0.895 2-2 2s-2-0.895-2-2c0-0.018 0-0.036 0.001-0.054l-0 0.003c0.029-1.082 0.913-1.948 1.999-1.948s1.971 0.866 1.999 1.946l0 0.003zM17.332 10v18.004c-0.001 0.736-0.597 1.332-1.333 1.332-0.681 0-1.243-0.51-1.323-1.169l-0.001-0.006-0.008-0.156v-18.004c-0-0.003-0-0.006-0-0.009 0-0.736 0.597-1.333 1.333-1.333 0.685 0 1.25 0.517 1.325 1.182l0.001 0.006 0.008 0.155zM25.989 4.667c0 1.105-0.895 2-2 2s-2-0.895-2-2v0c0-1.105 0.895-2 2-2s2 0.895 2 2v0zM25.332 10v18.004c0 0.003 0 0.007 0 0.011 0 0.736-0.597 1.333-1.333 1.333-0.685 0-1.25-0.517-1.325-1.182l-0.001-0.006-0.007-0.156v-18.004c0.002-0.735 0.598-1.331 1.333-1.331 0.681 0 1.243 0.51 1.323 1.169l0.001 0.006 0.009 0.155z"></path>
</svg>
