<!-- Generated by IcoMoon.io -->
<svg version="1.1" xmlns="http://www.w3.org/2000/svg" width="32" height="32" viewBox="0 0 32 32">
<title>text-number-format-filled</title>
<path d="M7.945 4.554c-0.186-0.525-0.68-0.879-1.238-0.887s-1.061 0.332-1.262 0.852l-3.355 8.667c-0.266 0.687 0.075 1.459 0.762 1.725s1.459-0.075 1.725-0.762l0.29-0.75h3.386l0.254 0.715c0.246 0.694 1.008 1.057 1.702 0.811s1.057-1.008 0.811-1.702l-3.075-8.667zM7.307 10.731h-1.408l0.734-1.897 0.673 1.897zM12 5c0-0.736 0.597-1.333 1.333-1.333l0.018 0 2.896-0c0.292-0.001 1.142-0.003 1.936 0.44 0.441 0.247 0.859 0.625 1.155 1.174 0.292 0.54 0.429 1.175 0.429 1.886 0 0.704-0.154 1.297-0.415 1.783 0.177 0.17 0.342 0.37 0.485 0.604 0.336 0.552 0.497 1.209 0.497 1.946 0 0.714-0.172 1.349-0.506 1.882-0.331 0.529-0.776 0.884-1.211 1.118-0.833 0.448-1.718 0.499-2.116 0.499h-3.167c-0.736 0-1.333-0.597-1.333-1.333v-8.667zM16.225 8c0.175-0.001 0.438-0.039 0.617-0.147 0.072-0.043 0.121-0.092 0.158-0.16 0.038-0.069 0.1-0.222 0.1-0.526 0-0.372-0.071-0.55-0.108-0.619-0.033-0.060-0.065-0.088-0.109-0.113-0.147-0.082-0.37-0.102-0.666-0.102h-1.55v1.667h1.558zM16.231 10.667c-0.005 0-0.010 0-0.014 0h-1.55v1.667h1.833c0.227 0 0.592-0.041 0.853-0.181 0.111-0.060 0.175-0.122 0.215-0.186 0.037-0.058 0.099-0.19 0.099-0.466 0-0.346-0.073-0.502-0.108-0.559-0.033-0.055-0.079-0.099-0.166-0.142-0.232-0.115-0.558-0.132-0.893-0.132h-0.269zM27.517 4.063c0.919 0.451 1.611 1.291 2.071 2.565 0.25 0.693-0.109 1.457-0.802 1.707s-1.457-0.109-1.707-0.802c-0.291-0.806-0.594-1.006-0.736-1.075-0.212-0.104-0.467-0.124-1.010-0.124-0.422 0-0.67 0.129-0.849 0.288-0.206 0.183-0.387 0.47-0.528 0.847-0.139 0.371-0.215 0.762-0.253 1.072-0.019 0.152-0.028 0.276-0.033 0.359-0.002 0.041-0.003 0.071-0.004 0.089l-0 0.016c0 0.707 0.014 1.539 0.283 2.225 0.125 0.319 0.289 0.558 0.497 0.729 0.2 0.165 0.512 0.326 1.034 0.384 0.158 0.018 0.501 0.017 0.835-0.107 0.295-0.11 0.595-0.315 0.803-0.774 0.304-0.671 1.094-0.968 1.765-0.665s0.968 1.094 0.665 1.765c-1.118 2.469-3.574 2.519-4.362 2.431-0.977-0.109-1.791-0.445-2.435-0.975-0.636-0.524-1.035-1.177-1.284-1.814-0.407-1.037-0.487-2.177-0.466-3.281 0.001-0.041 0.003-0.097 0.007-0.165 0.007-0.136 0.021-0.324 0.049-0.547 0.055-0.439 0.167-1.049 0.403-1.678 0.234-0.623 0.616-1.337 1.253-1.903 0.665-0.591 1.542-0.962 2.62-0.962 0.020 0 0.040-0 0.061-0 0.477-0.001 1.31-0.002 2.123 0.396zM23.85 19.905c-0.132 0.116-0.205 0.267-0.235 0.371-0.202 0.708-0.94 1.118-1.648 0.916s-1.118-0.94-0.916-1.648c0.135-0.475 0.437-1.111 1.035-1.638 0.623-0.549 1.484-0.905 2.581-0.905 2.276 0 3.667 1.684 3.667 3.303 0 0.565-0.105 1.483-0.724 2.291 0.058 0.067 0.114 0.138 0.167 0.213 0.365 0.513 0.557 1.133 0.557 1.829 0 1.201-0.41 2.196-1.202 2.865-0.752 0.635-1.679 0.831-2.464 0.831-0.717 0-1.487-0.118-2.171-0.551-0.71-0.449-1.162-1.131-1.428-1.941-0.23-0.7 0.15-1.453 0.85-1.683s1.453 0.15 1.683 0.85c0.123 0.372 0.253 0.478 0.322 0.521 0.094 0.059 0.296 0.138 0.745 0.138 0.382 0 0.621-0.099 0.744-0.203 0.083-0.070 0.256-0.256 0.256-0.828 0-0.191-0.046-0.259-0.062-0.282-0.025-0.035-0.085-0.096-0.223-0.161-0.311-0.146-0.756-0.194-1.104-0.194-0.736 0-1.333-0.597-1.333-1.333s0.597-1.333 1.333-1.333c0.89 0 1.138-0.265 1.208-0.353 0.116-0.147 0.181-0.386 0.181-0.677 0-0.115-0.165-0.636-1-0.636-0.487 0-0.71 0.144-0.817 0.238zM14.334 20.697c0-0.544 0.466-1.030 0.981-1.030 0.443 0 0.769 0.208 0.912 0.428 0.103 0.158 0.227 0.496-0.133 1.109-0.169 0.288-0.435 0.562-0.828 0.873-0.196 0.155-0.407 0.306-0.643 0.473l-0.097 0.069c-0.203 0.143-0.425 0.3-0.639 0.461-1.017 0.765-2.219 1.899-2.219 3.921 0 0.736 0.597 1.333 1.333 1.333 0.004 0 0.007 0 0.011 0s0.007 0 0.011 0h4.579c0.736 0 1.333-0.597 1.333-1.333s-0.597-1.333-1.333-1.333h-2.659c0.151-0.146 0.333-0.296 0.548-0.457 0.179-0.135 0.363-0.265 0.568-0.409l0.104-0.074c0.238-0.169 0.5-0.356 0.757-0.558 0.511-0.403 1.065-0.918 1.474-1.614 0.797-1.357 0.799-2.791 0.069-3.914-0.69-1.061-1.907-1.64-3.147-1.64-2.178 0-3.648 1.877-3.648 3.697 0 0.736 0.597 1.333 1.333 1.333s1.333-0.597 1.333-1.333zM6.698 22.389c-0.096 0.071-0.193 0.14-0.292 0.205-0.613 0.408-1.441 0.243-1.849-0.37s-0.243-1.441 0.37-1.849c0.965-0.643 1.654-1.658 1.801-2.327 0.146-0.668 0.769-1.108 1.432-1.042 0.676 0.065 1.204 0.634 1.204 1.327v8.667c0 0.736-0.597 1.333-1.333 1.333s-1.333-0.597-1.333-1.333v-4.611z"></path>
</svg>
