<!-- Generated by IcoMoon.io -->
<svg version="1.1" xmlns="http://www.w3.org/2000/svg" width="32" height="32" viewBox="0 0 32 32">
<title>text-baseline-filled</title>
<path d="M17.117 5.56c-0.181-0.448-0.612-0.759-1.116-0.759s-0.935 0.311-1.113 0.751l-0.003 0.008-6 15.2c-0.046 0.122-0.073 0.264-0.073 0.411 0 0.663 0.537 1.2 1.2 1.2 0.493 0 0.917-0.298 1.102-0.724l0.003-0.008 1.91-4.84h5.946l1.912 4.84c0.187 0.434 0.611 0.731 1.105 0.731 0.663 0 1.2-0.537 1.2-1.2 0-0.148-0.027-0.289-0.075-0.42l0.003 0.008-6-15.2zM18.026 14.4h-4.051l2.027-5.131 2.024 5.131zM4 25.6c-0.442 0-0.8 0.358-0.8 0.8s0.358 0.8 0.8 0.8v0h24c0.442 0 0.8-0.358 0.8-0.8s-0.358-0.8-0.8-0.8v0h-24z"></path>
</svg>
