<!-- Generated by IcoMoon.io -->
<svg version="1.1" xmlns="http://www.w3.org/2000/svg" width="32" height="32" viewBox="0 0 32 32">
<title>text-sort-ascending-filled</title>
<path d="M10.638 3.564c-0.186-0.537-0.692-0.897-1.26-0.897s-1.074 0.36-1.26 0.897l-3.724 10.759c-0.241 0.696 0.128 1.455 0.824 1.696s1.455-0.128 1.696-0.824l0.549-1.586h3.831l0.549 1.586c0.241 0.696 1 1.065 1.696 0.824s1.065-1 0.824-1.696l-3.724-10.759zM8.386 10.943l0.992-2.866 0.992 2.866h-1.985zM4.999 18.667c0-0.736 0.597-1.333 1.333-1.333h7c0.505 0 0.967 0.285 1.193 0.737s0.177 0.992-0.126 1.396l-5.4 7.2h4.333c0.736 0 1.333 0.597 1.333 1.333s-0.597 1.333-1.333 1.333h-7c-0.505 0-0.967-0.285-1.193-0.737s-0.177-0.992 0.126-1.396l5.4-7.2h-4.333c-0.736 0-1.333-0.597-1.333-1.333zM23.333 2.667c0.736 0 1.333 0.597 1.333 1.333v20.781l2.391-2.391c0.521-0.521 1.365-0.521 1.886 0s0.521 1.365 0 1.886l-4.667 4.667c-0.521 0.521-1.365 0.521-1.886 0l-4.667-4.667c-0.521-0.521-0.521-1.365 0-1.886s1.365-0.521 1.886 0l2.391 2.391v-20.781c0-0.736 0.597-1.333 1.333-1.333z"></path>
</svg>
