<!-- Generated by IcoMoon.io -->
<svg version="1.1" xmlns="http://www.w3.org/2000/svg" width="32" height="32" viewBox="0 0 32 32">
<title>text-header-3-filled</title>
<path d="M20.525 10.596c0.261-0.52 1.067-1.596 3.141-1.596 1.053 0 1.789 0.325 2.251 0.76 0.457 0.432 0.749 1.069 0.749 1.907 0 0.767-0.187 1.271-0.423 1.619-0.24 0.357-0.587 0.635-1.029 0.848-0.923 0.448-2.079 0.533-2.84 0.533-0.736 0-1.333 0.597-1.333 1.333s0.597 1.333 1.333 1.333v0c0.761 0 1.917 0.085 2.84 0.533 0.441 0.213 0.789 0.491 1.029 0.848 0.235 0.347 0.423 0.852 0.423 1.619 0 1.264-1.069 2.667-3 2.667-2.181 0-2.877-0.943-3.093-1.491-0.201-0.498-0.68-0.843-1.24-0.843-0.736 0-1.334 0.597-1.334 1.334 0 0.177 0.034 0.345 0.097 0.5l-0.003-0.009c0.664 1.675 2.421 3.176 5.573 3.176 3.403 0 5.667-2.597 5.667-5.333 0-1.233-0.312-2.271-0.879-3.111-0.327-0.478-0.72-0.883-1.171-1.213l-0.014-0.010c0.44-0.32 0.848-0.721 1.187-1.223 0.565-0.84 0.877-1.877 0.877-3.111 0-1.496-0.541-2.859-1.584-3.844-1.039-0.981-2.469-1.489-4.083-1.489-3.26 0-4.897 1.813-5.525 3.071-0.101 0.183-0.16 0.401-0.16 0.633 0 0.736 0.597 1.333 1.333 1.333 0.534 0 0.994-0.313 1.207-0.766l0.003-0.008zM5.333 8c0-0.736-0.597-1.333-1.333-1.333s-1.333 0.597-1.333 1.333v0 16c0 0.736 0.597 1.333 1.333 1.333s1.333-0.597 1.333-1.333v0-6.667h8v6.667c0 0.736 0.597 1.333 1.333 1.333s1.333-0.597 1.333-1.333v0-16c0-0.736-0.597-1.333-1.333-1.333s-1.333 0.597-1.333 1.333v0 6.667h-8v-6.667z"></path>
</svg>
