<!-- Generated by IcoMoon.io -->
<svg version="1.1" xmlns="http://www.w3.org/2000/svg" width="32" height="32" viewBox="0 0 32 32">
<title>textbox-align-middle-rotate-90-filled</title>
<path d="M28 24.333c0 2.025-1.642 3.667-3.667 3.667h-16.667c-2.025 0-3.667-1.642-3.667-3.667v-16.667c0-2.025 1.642-3.667 3.667-3.667h16.667c2.025 0 3.667 1.642 3.667 3.667v16.667zM18.667 9.333l-0.009-0.181c-0.066-0.651-0.485-1.152-0.991-1.152-0.552 0-1 0.597-1 1.333v13.333l0.009 0.181c0.066 0.651 0.485 1.152 0.991 1.152 0.552 0 1-0.597 1-1.333v-13.333zM14.667 22.667v-13.333l-0.009-0.181c-0.066-0.651-0.485-1.152-0.991-1.152-0.552 0-1 0.597-1 1.333v13.333l0.009 0.181c0.066 0.651 0.485 1.152 0.991 1.152 0.552 0 1-0.597 1-1.333z"></path>
</svg>
