<!-- Generated by IcoMoon.io -->
<svg version="1.1" xmlns="http://www.w3.org/2000/svg" width="32" height="32" viewBox="0 0 32 32">
<title>text-collapse-filled</title>
<path d="M8 5.333c0 0.736 0.597 1.333 1.333 1.333v0h18.667c0.736 0 1.333-0.597 1.333-1.333s-0.597-1.333-1.333-1.333v0h-18.667c-0.736 0-1.333 0.597-1.333 1.333v0zM17.333 12c0 0.736 0.597 1.333 1.333 1.333v0h9.333c0.736 0 1.333-0.597 1.333-1.333s-0.597-1.333-1.333-1.333v0h-9.333c-0.736 0-1.333 0.597-1.333 1.333v0zM9.333 24h18.667c0.736 0 1.333 0.597 1.333 1.333s-0.597 1.333-1.333 1.333v0h-18.667c-0.736 0-1.333-0.597-1.333-1.333s0.597-1.333 1.333-1.333v0zM17.333 18.667c0 0.736 0.597 1.333 1.333 1.333v0h9.333c0.736 0 1.333-0.597 1.333-1.333s-0.597-1.333-1.333-1.333v0h-9.333c-0.736 0-1.333 0.597-1.333 1.333v0zM14.667 15.333c0-3.314-2.686-6-6-6s-6 2.686-6 6v0c0 3.314 2.686 6 6 6s6-2.686 6-6v0zM12 15.333c0 0.368-0.298 0.667-0.667 0.667v0h-5.333c-0.368 0-0.667-0.298-0.667-0.667s0.298-0.667 0.667-0.667v0h5.333c0.368 0 0.667 0.298 0.667 0.667v0z"></path>
</svg>
