<!-- Generated by IcoMoon.io -->
<svg version="1.1" xmlns="http://www.w3.org/2000/svg" width="32" height="32" viewBox="0 0 32 32">
<title>text-strikethrough-filled</title>
<path d="M18.464 15.333h7.536c0.736 0 1.333 0.597 1.333 1.333s-0.597 1.333-1.333 1.333v0h-3.183c0.826 0.94 1.331 2.181 1.331 3.54 0 0.014-0 0.027-0 0.041v-0.002c0 3.907-4.373 6.553-9.377 5.973-3.104-0.361-5.287-1.627-6.436-3.777-0.347-0.649-0.276-1.355 0.331-1.775 0.607-0.421 1.675-0.132 2.021 0.517 0.711 1.331 2.139 2.123 4.392 2.385 3.448 0.4 6.403-1.213 6.403-3.323 0-1.465-0.729-2.587-2.809-3.58h-12.005c-0.736 0-1.333-0.597-1.333-1.333s0.597-1.333 1.333-1.333v0h11.797zM9.316 12.927c-0.128-0.189-0.26-0.412-0.379-0.642l-0.018-0.038c-0.4-0.787-0.624-1.619-0.58-2.447 0.213-3.953 3.912-6.284 8.803-5.716 3.013 0.351 5.32 1.445 6.863 3.316 0.183 0.225 0.294 0.516 0.294 0.832 0 0.418-0.193 0.79-0.495 1.033l-0.003 0.002c-0.568 0.468-1.399 0.435-1.867-0.133-1.084-1.313-2.757-2.128-5.1-2.4-3.413-0.397-5.828 0.957-5.828 3.097 0 0.952 0.319 1.627 1.016 2.413 0.3 0.339 0.863 0.7 1.687 1.087h-4.119c0.020 0.038-0.070-0.093-0.159-0.225l-0.114-0.179z"></path>
</svg>
