<!-- Generated by IcoMoon.io -->
<svg version="1.1" xmlns="http://www.w3.org/2000/svg" width="32" height="32" viewBox="0 0 32 32">
<title>textbox-align-middle-filled</title>
<path d="M24.333 4c2.025 0 3.667 1.642 3.667 3.667v0 16.667c0 2.025-1.642 3.667-3.667 3.667v0h-16.667c-2.025 0-3.667-1.642-3.667-3.667v0-16.667c0-2.025 1.642-3.667 3.667-3.667v0h16.667zM9.333 13.333l-0.181 0.009c-0.651 0.067-1.152 0.484-1.152 0.991 0 0.552 0.597 1 1.333 1l13.515-0.009c0.651-0.067 1.152-0.484 1.152-0.991 0-0.552-0.597-1-1.333-1h-13.333zM22.667 17.333l-13.515 0.009c-0.651 0.067-1.152 0.484-1.152 0.991 0 0.552 0.597 1 1.333 1l13.515-0.009c0.651-0.067 1.152-0.484 1.152-0.991 0-0.552-0.597-1-1.333-1z"></path>
</svg>
