<!-- Generated by IcoMoon.io -->
<svg version="1.1" xmlns="http://www.w3.org/2000/svg" width="32" height="32" viewBox="0 0 32 32">
<title>text-sort-descending-filled</title>
<path d="M5 4c0-0.736 0.597-1.333 1.333-1.333v0h7c0.736 0 1.333 0.597 1.333 1.333 0 0.302-0.1 0.58-0.269 0.803l0.002-0.003-5.4 7.2h4.333c0.736 0 1.333 0.597 1.333 1.333s-0.597 1.333-1.333 1.333v0h-7c-0.736 0-1.333-0.597-1.333-1.333 0-0.302 0.1-0.58 0.269-0.803l-0.002 0.003 5.4-7.2h-4.333c-0.736 0-1.333-0.597-1.333-1.333v0zM10.639 16.897c-0.186-0.527-0.68-0.897-1.26-0.897s-1.074 0.371-1.257 0.888l-0.003 0.009-3.724 10.759c-0.045 0.128-0.070 0.274-0.070 0.427 0 0.736 0.597 1.333 1.333 1.333 0.577 0 1.068-0.367 1.254-0.88l0.003-0.009 0.548-1.585h3.831l0.549 1.587c0.186 0.526 0.68 0.897 1.26 0.897 0.736 0 1.334-0.597 1.334-1.334 0-0.156-0.027-0.307-0.076-0.446l0.003 0.009-3.724-10.76zM8.385 24.276l0.993-2.867 0.992 2.867h-1.984zM23.333 2.667c0.736 0 1.333 0.597 1.333 1.333v0 20.781l2.391-2.391c0.24-0.232 0.566-0.374 0.926-0.374 0.736 0 1.333 0.597 1.333 1.333 0 0.36-0.143 0.687-0.375 0.927l-4.666 4.666c-0.241 0.241-0.575 0.39-0.943 0.39s-0.701-0.149-0.943-0.39l-4.667-4.667c-0.232-0.24-0.374-0.566-0.374-0.926 0-0.736 0.597-1.333 1.333-1.333 0.36 0 0.687 0.143 0.927 0.375l2.39 2.39v-20.781c0-0.736 0.597-1.333 1.333-1.333v0z"></path>
</svg>
