<!-- Generated by IcoMoon.io -->
<svg version="1.1" xmlns="http://www.w3.org/2000/svg" width="32" height="32" viewBox="0 0 32 32">
<title>text-bullet-list-rotate-270-filled</title>
<path d="M22 27.333c0-1.105 0.895-2 2-2s2 0.895 2 2v0c0 1.105-0.895 2-2 2s-2-0.895-2-2v0zM22.667 22v-18.004c0.001-0.736 0.597-1.332 1.333-1.332 0.681 0 1.243 0.51 1.323 1.169l0.001 0.006 0.009 0.156v18.004c-0.002 0.735-0.598 1.331-1.333 1.331-0.681 0-1.243-0.51-1.323-1.169l-0.001-0.006-0.009-0.155zM14 27.333c0-1.105 0.895-2 2-2s2 0.895 2 2v0c0 1.105-0.895 2-2 2s-2-0.895-2-2v0zM14.667 22v-18.004c0.001-0.736 0.597-1.332 1.333-1.332 0.681 0 1.243 0.51 1.323 1.169l0.001 0.006 0.009 0.156v18.004c-0.002 0.735-0.598 1.331-1.333 1.331-0.681 0-1.243-0.51-1.323-1.169l-0.001-0.006-0.009-0.155zM6.011 27.333c-0-0.015-0.001-0.033-0.001-0.052 0-1.105 0.895-2 2-2s2 0.895 2 2c0 0.018-0 0.036-0.001 0.054l0-0.003c0 1.105-0.895 2-2 2s-2-0.895-2-2v0zM6.668 22v-18.004c0.001-0.736 0.597-1.332 1.333-1.332 0.681 0 1.243 0.51 1.323 1.169l0.001 0.006 0.009 0.156v18.004c-0.002 0.735-0.598 1.331-1.333 1.331-0.681 0-1.243-0.51-1.323-1.169l-0.001-0.006-0.011-0.155z"></path>
</svg>
