<!-- Generated by IcoMoon.io -->
<svg version="1.1" xmlns="http://www.w3.org/2000/svg" width="32" height="32" viewBox="0 0 32 32">
<title>text-header-1-filled</title>
<path d="M26.909 6.689c0.625 0.119 1.091 0.661 1.091 1.312 0 0.015-0 0.030-0.001 0.045l0-0.002v15.956c0 0.736-0.597 1.333-1.333 1.333s-1.333-0.597-1.333-1.333v0-11.185c-0.798 0.787-1.772 1.398-2.858 1.768l-0.053 0.016c-0.121 0.040-0.26 0.063-0.405 0.063-0.736 0-1.333-0.597-1.333-1.333 0-0.579 0.369-1.072 0.885-1.256l0.009-0.003c1.505-0.503 2.909-1.777 3.811-4.452 0.072-0.236 0.2-0.437 0.37-0.594l0.001-0.001c0.237-0.22 0.556-0.356 0.907-0.356 0.086 0 0.17 0.008 0.251 0.024l-0.008-0.001zM4 6.667c0.736 0 1.333 0.597 1.333 1.333v0 6.667h8v-6.667c0-0.736 0.597-1.333 1.333-1.333s1.333 0.597 1.333 1.333v0 16c0 0.736-0.597 1.333-1.333 1.333s-1.333-0.597-1.333-1.333v0-6.667h-8v6.667c0 0.736-0.597 1.333-1.333 1.333s-1.333-0.597-1.333-1.333v0-16c0-0.736 0.597-1.333 1.333-1.333v0z"></path>
</svg>
