<!-- Generated by IcoMoon.io -->
<svg version="1.1" xmlns="http://www.w3.org/2000/svg" width="32" height="32" viewBox="0 0 32 32">
<title>text-asterisk-filled</title>
<path d="M16.96 4c0-0.53-0.43-0.96-0.96-0.96s-0.96 0.43-0.96 0.96v9.683l-6.846-6.848c-0.174-0.173-0.414-0.281-0.678-0.281-0.53 0-0.961 0.43-0.961 0.961 0 0.266 0.108 0.506 0.282 0.68l6.846 6.845h-9.683c-0.53 0-0.96 0.43-0.96 0.96s0.43 0.96 0.96 0.96h9.683l-6.846 6.848c-0.17 0.173-0.275 0.411-0.275 0.673 0 0.53 0.43 0.96 0.96 0.96 0.263 0 0.5-0.105 0.674-0.276l6.845-6.846v9.682c0 0.53 0.43 0.96 0.96 0.96s0.96-0.43 0.96-0.96v-9.68l6.848 6.846c0.173 0.17 0.411 0.275 0.673 0.275 0.53 0 0.96-0.43 0.96-0.96 0-0.263-0.105-0.5-0.276-0.674l-6.846-6.848h9.682c0.53 0 0.96-0.43 0.96-0.96s-0.43-0.96-0.96-0.96h-9.68l6.845-6.846c0.16-0.171 0.258-0.401 0.258-0.654 0-0.53-0.43-0.96-0.96-0.96-0.253 0-0.483 0.098-0.655 0.258l0.001-0-6.848 6.846v-9.683z"></path>
</svg>
