<!-- Generated by IcoMoon.io -->
<svg version="1.1" xmlns="http://www.w3.org/2000/svg" width="32" height="32" viewBox="0 0 32 32">
<title>text-direction-rotate-90-right-filled</title>
<path d="M27.179 11.564l-12 5c-0.68 0.283-1.46-0.038-1.744-0.718s0.038-1.46 0.718-1.744l3.179-1.325v-4.889l-3.179-1.325c-0.68-0.283-1.001-1.064-0.718-1.744s1.064-1.001 1.744-0.718l12 5c0.497 0.207 0.821 0.693 0.821 1.231s-0.324 1.024-0.821 1.231zM20 11.667l3.2-1.333-3.2-1.333v2.667zM10.667 5.333c0-0.736-0.597-1.333-1.333-1.333s-1.333 0.597-1.333 1.333v18.114l-0.391-0.391c-0.521-0.521-1.365-0.521-1.886 0s-0.521 1.365 0 1.886l2.667 2.667c0.521 0.521 1.365 0.521 1.886 0l2.667-2.667c0.521-0.521 0.521-1.365 0-1.886s-1.365-0.521-1.886 0l-0.391 0.391v-18.114zM21.333 17.333c-0.736 0-1.333 0.597-1.333 1.333v4.781l-0.391-0.391c-0.521-0.521-1.365-0.521-1.886 0s-0.521 1.365 0 1.886l2.667 2.667c0.521 0.521 1.365 0.521 1.886 0l2.667-2.667c0.521-0.521 0.521-1.365 0-1.886s-1.365-0.521-1.886 0l-0.391 0.391v-4.781c0-0.736-0.597-1.333-1.333-1.333z"></path>
</svg>
