<!-- Generated by IcoMoon.io -->
<svg version="1.1" xmlns="http://www.w3.org/2000/svg" width="32" height="32" viewBox="0 0 32 32">
<title>text-position-square-filled</title>
<path d="M5 5c-0.736 0-1.333 0.597-1.333 1.333s0.597 1.333 1.333 1.333v0h22c0.736 0 1.333-0.597 1.333-1.333s-0.597-1.333-1.333-1.333v0h-22zM3.667 11c0-0.736 0.597-1.333 1.333-1.333v0h2.667c0.736 0 1.333 0.597 1.333 1.333s-0.597 1.333-1.333 1.333v0h-2.667c-0.736 0-1.333-0.597-1.333-1.333v0zM23 11c0-0.736 0.597-1.333 1.333-1.333v0h2.667c0.736 0 1.333 0.597 1.333 1.333s-0.597 1.333-1.333 1.333v0h-2.667c-0.736 0-1.333-0.597-1.333-1.333v0zM5 14.333c-0.736 0-1.333 0.597-1.333 1.333s0.597 1.333 1.333 1.333v0h2.667c0.736 0 1.333-0.597 1.333-1.333s-0.597-1.333-1.333-1.333v0h-2.667zM23 15.667c0-0.736 0.597-1.333 1.333-1.333v0h2.667c0.736 0 1.333 0.597 1.333 1.333s-0.597 1.333-1.333 1.333v0h-2.667c-0.736 0-1.333-0.597-1.333-1.333v0zM5 19c-0.736 0-1.333 0.597-1.333 1.333s0.597 1.333 1.333 1.333v0h2.667c0.736 0 1.333-0.597 1.333-1.333s-0.597-1.333-1.333-1.333v0h-2.667zM23 20.333c0-0.736 0.597-1.333 1.333-1.333v0h2.667c0.736 0 1.333 0.597 1.333 1.333s-0.597 1.333-1.333 1.333v0h-2.667c-0.736 0-1.333-0.597-1.333-1.333v0zM3.667 25c0-0.736 0.597-1.333 1.333-1.333v0h22c0.736 0 1.333 0.597 1.333 1.333s-0.597 1.333-1.333 1.333v0h-22c-0.736 0-1.333-0.597-1.333-1.333v0zM13 14.667c0-1.657 1.343-3 3-3s3 1.343 3 3v0 6.333c0 0.736 0.597 1.333 1.333 1.333s1.333-0.597 1.333-1.333v0-6.333c0-3.13-2.537-5.667-5.667-5.667s-5.667 2.537-5.667 5.667v0 6.333c0 0.736 0.597 1.333 1.333 1.333s1.333-0.597 1.333-1.333v0-6.333z"></path>
</svg>
