<!-- Generated by IcoMoon.io -->
<svg version="1.1" xmlns="http://www.w3.org/2000/svg" width="32" height="32" viewBox="0 0 32 32">
<title>text-clear-formatting-filled</title>
<path d="M3.681 18.668c-0.012 0-0.025 0.001-0.039 0.001-0.263 0-0.505-0.091-0.696-0.242l0.002 0.002c-0.173-0.147-0.281-0.364-0.281-0.607 0-0.004 0-0.008 0-0.012v0.001c0-0.147 0.041-0.327 0.124-0.544l5.236-13.652c0.24-0.631 0.684-0.947 1.331-0.947 0.609 0 1.033 0.312 1.275 0.936l5.245 13.661c0.083 0.217 0.124 0.399 0.124 0.544 0 0.245-0.097 0.453-0.293 0.62-0.183 0.149-0.419 0.24-0.677 0.24-0.016 0-0.031-0-0.047-0.001l0.002 0c-0.481 0-0.813-0.251-0.993-0.751l-1.444-3.893h-6.44l-1.433 3.893c-0.18 0.5-0.512 0.751-0.993 0.751zM6.695 12.36h5.279l-2.607-7.157h-0.067l-2.607 7.157zM17.055 19.64l7.307 7.307 5.543-5.541c0.471-0.471 0.763-1.121 0.763-1.84 0-0.717-0.291-1.367-0.76-1.837l-3.632-3.632c-0.47-0.472-1.12-0.763-1.839-0.763s-1.37 0.292-1.84 0.765l-5.541 5.543zM19.664 15.144l-2.331 2.331v-13.8c-0.001-0.012-0.001-0.027-0.001-0.042 0-0.263 0.099-0.503 0.262-0.685l-0.001 0.001c0.165-0.174 0.399-0.282 0.657-0.282 0.008 0 0.016 0 0.024 0l-0.001-0c0.275 0 0.499 0.093 0.672 0.28 0.168 0.18 0.271 0.422 0.271 0.689 0 0.013-0 0.026-0.001 0.039l0-0.002v5.431h0.043c0.36-0.649 0.855-1.159 1.483-1.525 0.596-0.347 1.311-0.552 2.075-0.552 0.020 0 0.039 0 0.059 0l-0.003-0c1.421 0 2.568 0.529 3.44 1.589 0.873 1.061 1.309 2.471 1.309 4.231 0 0.235-0.008 0.463-0.023 0.685l-0.381-0.381c-0.422-0.423-0.941-0.75-1.52-0.945l-0.028-0.008c-0.084-0.976-0.364-1.773-0.84-2.391-0.576-0.751-1.363-1.125-2.357-1.125-0.96 0-1.745 0.387-2.359 1.157-0.605 0.765-0.908 1.768-0.908 3.008 0 0.888 0.153 1.653 0.46 2.296zM22.948 28.361l-7.308-7.307-1.543 1.543c-0.472 0.471-0.764 1.122-0.764 1.841 0 0.718 0.291 1.368 0.761 1.838l3.632 3.631c0.417 0.419 0.977 0.696 1.601 0.751l0.010 0.001-0.004 0.008h7.333c0.552 0 1-0.448 1-1s-0.448-1-1-1v0h-4.027l0.307-0.307z"></path>
</svg>
