<!-- Generated by IcoMoon.io -->
<svg version="1.1" xmlns="http://www.w3.org/2000/svg" width="32" height="32" viewBox="0 0 32 32">
<title>text-grammar-arrow-left-filled</title>
<path d="M23.333 16c4.050 0 7.333 3.283 7.333 7.333s-3.283 7.333-7.333 7.333c-4.050 0-7.333-3.283-7.333-7.333s3.283-7.333 7.333-7.333zM22.292 19.451l-0.092 0.077-3.354 3.355-0.054 0.067-0.059 0.102-0.030 0.078-0.025 0.114-0.003 0.147 0.020 0.114 0.039 0.107 0.045 0.082 0.068 0.088 3.354 3.355c0.26 0.26 0.682 0.26 0.943 0 0.231-0.231 0.257-0.591 0.077-0.851l-0.077-0.092-2.195-2.195h6.385c0.327 0 0.599-0.236 0.656-0.547l0.011-0.12c0-0.327-0.236-0.599-0.547-0.656l-0.12-0.011h-6.385l2.195-2.195c0.231-0.231 0.257-0.591 0.077-0.851l-0.077-0.092c-0.231-0.231-0.591-0.257-0.851-0.077z"></path>
<path d="M14.692 22.667l-10.847 0.009c-0.663 0.077-1.178 0.641-1.178 1.324 0 0.736 0.597 1.333 1.333 1.333h10.899c-0.152-0.642-0.232-1.312-0.232-2 0-0.224 0.009-0.447 0.025-0.667z"></path>
<path d="M15.331 20h-11.331c-0.736 0-1.333-0.597-1.333-1.333 0-0.684 0.515-1.247 1.178-1.324l0.155-0.009h13.079c-0.736 0.767-1.333 1.67-1.749 2.667z"></path>
<path d="M4 14.667c-0.736 0-1.333-0.597-1.333-1.333 0-0.684 0.515-1.247 1.178-1.324l0.155-0.009h24c0.736 0 1.333 0.597 1.333 1.333 0 0.684-0.515 1.247-1.178 1.324l-0.155 0.009h-24z"></path>
<path d="M28 6.667l-24.155 0.009c-0.663 0.077-1.178 0.641-1.178 1.324 0 0.736 0.597 1.333 1.333 1.333l24.155-0.009c0.663-0.077 1.178-0.641 1.178-1.324 0-0.736-0.597-1.333-1.333-1.333z"></path>
</svg>
