<!-- Generated by IcoMoon.io -->
<svg version="1.1" xmlns="http://www.w3.org/2000/svg" width="32" height="32" viewBox="0 0 32 32">
<title>thinking-filled</title>
<path d="M5.333 24c1.473 0 2.667 1.194 2.667 2.667s-1.194 2.667-2.667 2.667v0c-1.473 0-2.667-1.194-2.667-2.667s1.194-2.667 2.667-2.667v0zM12.667 20c1.841 0 3.333 1.492 3.333 3.333s-1.492 3.333-3.333 3.333v0c-1.841 0-3.333-1.492-3.333-3.333s1.492-3.333 3.333-3.333v0zM16 2.667c3.541 0.001 6.487 2.551 7.1 5.916l0.007 0.044h0.109c2.772 0 5.020 2.248 5.020 5.020s-2.248 5.020-5.020 5.020v0h-14.432c-2.772 0-5.020-2.248-5.020-5.020s2.248-5.020 5.020-5.020v0h0.109c0.62-3.409 3.565-5.959 7.107-5.96h0z"></path>
</svg>
