<!-- Generated by IcoMoon.io -->
<svg version="1.1" xmlns="http://www.w3.org/2000/svg" width="32" height="32" viewBox="0 0 32 32">
<title>thinking-filled</title>
<path d="M5.333 24c1.473 0 2.667 1.194 2.667 2.667s-1.194 2.667-2.667 2.667c-1.473 0-2.667-1.194-2.667-2.667s1.194-2.667 2.667-2.667zM12.667 20c1.841 0 3.333 1.492 3.333 3.333s-1.492 3.333-3.333 3.333c-1.841 0-3.333-1.492-3.333-3.333s1.492-3.333 3.333-3.333zM16 2.667c3.546 0 6.512 2.563 7.107 5.961h0.109c2.772 0 5.020 2.247 5.020 5.020s-2.247 5.020-5.020 5.020h-14.431c-2.772 0-5.020-2.247-5.020-5.020s2.247-5.020 5.020-5.020h0.109c0.595-3.397 3.561-5.961 7.107-5.961z"></path>
</svg>
