<!-- Generated by IcoMoon.io -->
<svg version="1.1" xmlns="http://www.w3.org/2000/svg" width="32" height="32" viewBox="0 0 32 32">
<title>thumb-dislike-filled</title>
<path d="M20.075 18.911c0.614 1.903 0.925 3.568 0.925 5.004 0 3.198-1.252 5.663-3.333 5.663-1.066 0-1.437-0.6-1.843-2.062l-0.36-1.362c-0.135-0.478-0.369-1.293-0.703-2.441-0.009-0.031-0.022-0.060-0.039-0.087l-3.822-5.981c-0.904-1.415-2.238-2.502-3.806-3.102l-1.676-0.642c-1.058-0.405-1.672-1.511-1.456-2.623l0.915-4.718c0.223-1.149 1.094-2.064 2.231-2.343l10.999-2.696c3.375-0.827 6.786 1.219 7.645 4.587l2.098 8.23c0.5 1.962-0.685 3.959-2.647 4.459-0.296 0.075-0.6 0.114-0.906 0.114h-4.221z"></path>
</svg>
