<!-- Generated by IcoMoon.io -->
<svg version="1.1" xmlns="http://www.w3.org/2000/svg" width="32" height="32" viewBox="0 0 32 32">
<title>thumb-like-filled</title>
<path d="M18.818 1.326c-1.099-0.327-1.971 0.477-2.255 1.253-0.163 0.445-0.312 0.857-0.452 1.243-0.556 1.537-0.966 2.67-1.526 3.81-1.767 3.599-4.022 6.416-8.238 8.351-1.609 0.739-2.643 2.532-2.137 4.35l0.823 2.955c0.481 1.691 1.816 2.984 3.497 3.398l0.033 0.007 9.38 2.247c0.432 0.108 0.927 0.17 1.437 0.17 2.828 0 5.212-1.904 5.939-4.5l0.010-0.043 2.223-8.145c0.607-2.227-1.069-4.421-3.377-4.421h-3.36c0.476-1.627 0.841-3.62 0.827-5.433-0.009-1.126-0.165-2.245-0.581-3.176-0.426-0.953-1.142-1.739-2.243-2.065z"></path>
</svg>
