<!-- Generated by IcoMoon.io -->
<svg version="1.1" xmlns="http://www.w3.org/2000/svg" width="32" height="32" viewBox="0 0 32 32">
<title>thumb-dislike-filled</title>
<path d="M20.075 18.911c0.613 1.903 0.924 3.568 0.924 5.004 0 3.197-1.252 5.663-3.333 5.663-1.067 0-1.437-0.6-1.844-2.061l-0.36-1.363c-0.133-0.477-0.368-1.293-0.701-2.44-0.010-0.033-0.023-0.063-0.041-0.089l0.001 0.001-3.821-5.98c-0.906-1.403-2.211-2.481-3.753-3.084l-0.053-0.018-1.676-0.641c-0.884-0.345-1.499-1.19-1.499-2.179 0-0.157 0.016-0.311 0.045-0.46l-0.002 0.015 0.915-4.717c0.229-1.154 1.096-2.059 2.21-2.34l0.021-0.004 11-2.695c0.453-0.116 0.972-0.182 1.507-0.182 2.942 0 5.415 2.006 6.127 4.724l0.010 0.044 2.099 8.229c0.072 0.272 0.114 0.585 0.114 0.907 0 2.025-1.642 3.667-3.667 3.667-0 0-0 0-0.001 0h-4.22z"></path>
</svg>
