<!-- Generated by IcoMoon.io -->
<svg version="1.1" xmlns="http://www.w3.org/2000/svg" width="32" height="32" viewBox="0 0 32 32">
<title>ticket-horizontal-filled</title>
<path d="M27.667 6.667c0.92 0 1.667 0.747 1.667 1.667v3.012c-0 0.527-0.408 0.959-0.926 0.997l-0.003 0c-1.909 0.141-3.405 1.724-3.405 3.657s1.496 3.517 3.393 3.657l0.012 0.001c0.521 0.038 0.929 0.47 0.929 0.997v0 3.012c0 0.92-0.747 1.667-1.667 1.667h-23.333c-0.92 0-1.667-0.747-1.667-1.667v-3.012c0-0.527 0.408-0.959 0.926-0.997l0.003-0c1.909-0.141 3.405-1.724 3.405-3.657s-1.496-3.517-3.393-3.657l-0.012-0.001c-0.521-0.038-0.929-0.47-0.929-0.997v0-3.012c0-0.92 0.747-1.667 1.667-1.667h23.333z"></path>
</svg>
