<!-- Generated by IcoMoon.io -->
<svg version="1.1" xmlns="http://www.w3.org/2000/svg" width="32" height="32" viewBox="0 0 32 32">
<title>ticket-diagonal-filled</title>
<path d="M20.788 3.373c-1.172-1.172-3.071-1.172-4.243 0l-13.172 13.172c-1.172 1.172-1.172 3.071 0 4.243l1.562 1.562c0.681 0.681 1.637 0.559 2.214 0.216 0.248-0.147 0.537-0.232 0.85-0.232 0.92 0 1.667 0.746 1.667 1.667 0 0.312-0.085 0.602-0.232 0.85-0.343 0.577-0.465 1.533 0.216 2.214l1.562 1.562c1.172 1.172 3.071 1.172 4.243 0l13.171-13.171c1.172-1.172 1.172-3.071 0-4.243l-1.562-1.562c-0.681-0.681-1.637-0.559-2.215-0.216-0.248 0.148-0.537 0.232-0.85 0.232-0.921 0-1.667-0.746-1.667-1.667 0-0.312 0.085-0.602 0.232-0.85 0.343-0.578 0.465-1.534-0.216-2.215l-1.562-1.562z"></path>
</svg>
