<!-- Generated by IcoMoon.io -->
<svg version="1.1" xmlns="http://www.w3.org/2000/svg" width="32" height="32" viewBox="0 0 32 32">
<title>timeline-filled</title>
<path d="M20.333 17.333c1.289 0 2.333 1.045 2.333 2.333v6.004c0 1.289-1.045 2.333-2.333 2.333h-15.333c-1.289 0-2.333-1.045-2.333-2.333v-6.004c0-1.289 1.045-2.333 2.333-2.333h15.333zM28 19.861l-0.001 7.139c0 0.552-0.448 1-1 1-0.506 0-0.925-0.376-0.991-0.864l-0.009-0.136-0-7.125c0.311 0.078 0.637 0.119 0.973 0.119 0.355 0 0.7-0.046 1.028-0.133zM27 13.456c1.405 0 2.544 1.139 2.544 2.544s-1.139 2.544-2.544 2.544c-1.405 0-2.544-1.139-2.544-2.544s1.139-2.544 2.544-2.544zM20.327 3.995c1.289 0 2.333 1.045 2.333 2.333v6.004c0 1.289-1.045 2.333-2.333 2.333h-15.333c-1.289 0-2.333-1.045-2.333-2.333v-6.004c0-1.224 0.943-2.228 2.142-2.326l0.191-0.008h15.333zM27 4c0.506 0 0.925 0.376 0.991 0.864l0.009 0.136-0 7.128c-0.328-0.087-0.673-0.133-1.028-0.133-0.335 0-0.661 0.041-0.973 0.119l0.001-7.113c0-0.552 0.448-1 1-1z"></path>
</svg>
