<!-- Generated by IcoMoon.io -->
<svg version="1.1" xmlns="http://www.w3.org/2000/svg" width="32" height="32" viewBox="0 0 32 32">
<title>time-picker-filled</title>
<path d="M16.833 2.96c-0.226-0.182-0.517-0.292-0.833-0.292s-0.607 0.11-0.836 0.294l0.003-0.002-5 4c-0.325 0.246-0.533 0.632-0.533 1.066 0 0.736 0.597 1.333 1.333 1.333 0.331 0 0.634-0.121 0.868-0.321l-0.002 0.002 4.167-3.333 4.167 3.333c0.22 0.167 0.499 0.267 0.801 0.267 0.736 0 1.333-0.597 1.333-1.333 0-0.405-0.181-0.768-0.466-1.012l-0.002-0.002-5-4zM3.667 12c-1.657 0-3 1.343-3 3v0 2c0 1.657 1.343 3 3 3s3-1.343 3-3v0-2c0-1.657-1.343-3-3-3v0zM2.667 15c0-0.552 0.448-1 1-1s1 0.448 1 1v0 2c0 0.552-0.448 1-1 1s-1-0.448-1-1v0-2zM11 12c-1.657 0-3 1.343-3 3v0 2c0 1.657 1.343 3 3 3s3-1.343 3-3v0-2c0-1.657-1.343-3-3-3v0zM10 15c0-0.552 0.448-1 1-1s1 0.448 1 1v0 2c0 0.552-0.448 1-1 1s-1-0.448-1-1v0-2zM18.667 15c0-1.657 1.343-3 3-3s3 1.343 3 3v0 2c0 1.657-1.343 3-3 3s-3-1.343-3-3v0-2zM21.667 14c-0.552 0-1 0.448-1 1v0 2c0 0.552 0.448 1 1 1s1-0.448 1-1v0-2c0-0.552-0.448-1-1-1v0zM29 12c-1.657 0-3 1.343-3 3v0 2c0 1.657 1.343 3 3 3s3-1.343 3-3v0-2c0-1.657-1.343-3-3-3v0zM28 15c0-0.552 0.448-1 1-1s1 0.448 1 1v0 2c0 0.552-0.448 1-1 1s-1-0.448-1-1v0-2zM17.333 14.333c0 0.552-0.448 1-1 1s-1-0.448-1-1v0c0-0.552 0.448-1 1-1s1 0.448 1 1v0zM16.333 19.333c0.552 0 1-0.448 1-1s-0.448-1-1-1v0c-0.552 0-1 0.448-1 1s0.448 1 1 1v0zM16.84 29.368l5.333-4.333c0.284-0.246 0.462-0.607 0.462-1.009 0-0.736-0.597-1.333-1.333-1.333-0.305 0-0.587 0.103-0.812 0.275l0.003-0.002-4.493 3.651-4.493-3.651c-0.232-0.201-0.538-0.324-0.871-0.324-0.736 0-1.333 0.597-1.333 1.333 0 0.431 0.204 0.814 0.522 1.058l0.003 0.002 5.333 4.333c0.227 0.186 0.521 0.298 0.84 0.298s0.613-0.112 0.842-0.3l-0.002 0.002z"></path>
</svg>
