<!-- Generated by IcoMoon.io -->
<svg version="1.1" xmlns="http://www.w3.org/2000/svg" width="32" height="32" viewBox="0 0 32 32">
<title>timer-2-filled</title>
<path d="M15.997 6.668c6.259 0 11.333 5.074 11.333 11.333 0 0.485-0.030 0.963-0.090 1.432-0.738-0.487-1.621-0.771-2.57-0.771h-0.335l-0.25 0.008c-2.313 0.156-4.083 2.043-4.083 4.326l0.008 0.191c0.061 0.757 0.485 1.413 1.102 1.795l-0.076 0.089c-0.649 0.802-1.034 1.82-1.034 2.925v0.332l0.012 0.225 0.008 0.044c-1.251 0.475-2.607 0.736-4.025 0.736-6.259 0-11.333-5.074-11.333-11.333s5.074-11.333 11.333-11.333zM24.671 19.996c1.841 0 3.334 1.492 3.334 3.333 0 1.767-1.375 3.214-3.114 3.327l-0.219 0.007c-0.475 0-0.891 0.247-1.128 0.619l-0.027 0.047 3.489 0.001c0.506 0 0.925 0.376 0.991 0.864l0.009 0.136c0 0.506-0.376 0.925-0.864 0.991l-0.136 0.009h-4.669c-0.506 0-0.925-0.376-0.991-0.864l-0.009-0.136v-0.332c0-1.768 1.376-3.215 3.115-3.327l0.219-0.007c0.737 0 1.335-0.597 1.335-1.334 0-0.684-0.515-1.247-1.178-1.325l-0.156-0.009h-0.335c-0.507 0-0.925 0.376-0.991 0.865l-0.009 0.136c0 0.552-0.448 1-1 1s-1-0.448-1-1c0-1.588 1.234-2.888 2.795-2.994l0.205-0.007h0.335zM15.997 10.668c-0.506 0-0.925 0.376-0.991 0.864l-0.009 0.136v6l0.009 0.136c0.066 0.488 0.485 0.864 0.991 0.864s0.925-0.376 0.991-0.864l0.009-0.136v-6l-0.009-0.136c-0.066-0.488-0.485-0.864-0.991-0.864zM25.557 6.831l0.108 0.082 1.532 1.332c0.417 0.362 0.461 0.994 0.099 1.411-0.332 0.382-0.891 0.451-1.302 0.181l-0.108-0.082-1.532-1.332c-0.417-0.362-0.461-0.994-0.099-1.411 0.332-0.382 0.891-0.451 1.302-0.181zM18.997 3.335c0.552 0 1 0.448 1 1 0 0.506-0.376 0.925-0.864 0.991l-0.136 0.009h-6c-0.552 0-1-0.448-1-1 0-0.506 0.376-0.925 0.864-0.991l0.136-0.009h6z"></path>
</svg>
