<!-- Generated by IcoMoon.io -->
<svg version="1.1" xmlns="http://www.w3.org/2000/svg" width="32" height="32" viewBox="0 0 32 32">
<title>timeline-filled</title>
<path d="M20.333 17.333c1.289 0 2.333 1.045 2.333 2.333v6.005c0 1.289-1.045 2.333-2.333 2.333v0h-15.333c-1.289 0-2.333-1.045-2.333-2.333v0-6.005c0-1.288 1.045-2.333 2.333-2.333h15.333zM28.001 19.861v7.139c0 0.003 0 0.007 0 0.010 0 0.552-0.448 1-1 1-0.508 0-0.927-0.379-0.991-0.869l-0.001-0.005-0.009-0.136v-7.124c0.292 0.076 0.627 0.12 0.972 0.12 0.366 0 0.72-0.049 1.057-0.141l-0.028 0.007zM27.001 13.456c1.405 0 2.544 1.139 2.544 2.544s-1.139 2.544-2.544 2.544v0c-1.405 0-2.544-1.139-2.544-2.544s1.139-2.544 2.544-2.544v0zM20.328 3.996c1.289 0 2.333 1.045 2.333 2.333v6.004c0 1.289-1.045 2.333-2.333 2.333v0h-15.333c-1.289 0-2.333-1.045-2.333-2.333v0-6.004c0-1.221 0.939-2.224 2.134-2.325l0.009-0.001 0.191-0.008h15.333zM27.001 4c0.505 0 0.922 0.374 0.99 0.86l0.001 0.005 0.009 0.135v7.128c-0.308-0.085-0.661-0.134-1.026-0.134-0.346 0-0.682 0.044-1.002 0.126l0.028-0.006v-7.115c0-0.552 0.448-1 1-1v0z"></path>
</svg>
