<!-- Generated by IcoMoon.io -->
<svg version="1.1" xmlns="http://www.w3.org/2000/svg" width="32" height="32" viewBox="0 0 32 32">
<title>timer-filled</title>
<path d="M12.833 3.333c-0.46 0-0.833 0.373-0.833 0.833s0.373 0.833 0.833 0.833v0h6.333c0.46 0 0.833-0.373 0.833-0.833s-0.373-0.833-0.833-0.833v0h-6.333zM4.667 18c0-6.259 5.074-11.333 11.333-11.333s11.333 5.074 11.333 11.333-5.074 11.333-11.333 11.333-11.333-5.074-11.333-11.333zM15.167 17.833c0 0.46 0.373 0.833 0.833 0.833s0.833-0.373 0.833-0.833v0-6.333c0-0.46-0.373-0.833-0.833-0.833s-0.833 0.373-0.833 0.833v0 6.333zM24.244 6.911c0.151-0.151 0.359-0.244 0.589-0.244s0.439 0.093 0.589 0.244l1.667 1.667c0.151 0.151 0.244 0.359 0.244 0.589 0 0.46-0.373 0.833-0.833 0.833-0.23 0-0.439-0.093-0.589-0.244v0l-1.667-1.667c-0.151-0.151-0.244-0.359-0.244-0.589s0.093-0.439 0.244-0.589v0z"></path>
</svg>
