<!-- Generated by IcoMoon.io -->
<svg version="1.1" xmlns="http://www.w3.org/2000/svg" width="32" height="32" viewBox="0 0 32 32">
<title>timer-2-filled</title>
<path d="M27.192 16.208c-0.897-5.44-5.565-9.538-11.19-9.538-6.259 0-11.333 5.074-11.333 11.333s5.074 11.333 11.333 11.333c1.437 0 2.811-0.267 4.076-0.755l-0.077 0.026v-0.275c0-0.002 0-0.004 0-0.006 0-1.743 0.789-3.301 2.028-4.338l0.009-0.007c-1.155-0.152-2.037-1.13-2.037-2.314 0-0 0-0 0-0v0c0-0 0-0.001 0-0.001 0-3.13 2.537-5.667 5.667-5.667 0.543 0 1.068 0.076 1.565 0.219l-0.040-0.010zM15.009 11.531c0.069-0.491 0.486-0.864 0.991-0.864s0.921 0.373 0.99 0.858l0.001 0.005 0.009 0.136v6l-0.009 0.136c-0.069 0.491-0.486 0.864-0.991 0.864s-0.921-0.373-0.99-0.858l-0.001-0.005-0.009-0.136v-6l0.009-0.136zM25.669 6.912l-0.109-0.081c-0.154-0.101-0.343-0.162-0.545-0.162-0.552 0-1 0.448-1 1 0 0.3 0.132 0.568 0.34 0.751l0.001 0.001 1.532 1.333 0.108 0.081c0.155 0.104 0.346 0.165 0.551 0.165 0.552 0 1-0.448 1-1 0-0.301-0.133-0.572-0.344-0.755l-0.001-0.001-1.533-1.333zM20 4.333c0-0.552-0.448-1-1-1v0h-6l-0.136 0.009c-0.491 0.069-0.864 0.486-0.864 0.991 0 0.552 0.448 1 1 1h6l0.136-0.009c0.491-0.069 0.864-0.486 0.864-0.991v0zM25.667 17.333c-2.393 0-4.333 1.94-4.333 4.333v0c0 0.552 0.448 1 1 1s1-0.448 1-1v0c0-1.289 1.045-2.333 2.333-2.333s2.333 1.045 2.333 2.333c0 1.289-1.045 2.333-2.333 2.333v0c-2.393 0-4.333 1.94-4.333 4.333v0 1.333c0 0.552 0.448 1 1 1h6.667c0.552 0 1-0.448 1-1s-0.448-1-1-1v0h-5.667v-0.333c0-1.288 1.045-2.333 2.333-2.333 2.393 0 4.333-1.94 4.333-4.333s-1.94-4.333-4.333-4.333v0z"></path>
</svg>
