<!-- Generated by IcoMoon.io -->
<svg version="1.1" xmlns="http://www.w3.org/2000/svg" width="32" height="32" viewBox="0 0 32 32">
<title>timer-off-filled</title>
<path d="M4.374 2.96c-0.391-0.391-1.024-0.391-1.414-0s-0.391 1.024-0 1.414l5.325 5.325c-2.225 2.069-3.618 5.023-3.618 8.301 0 6.259 5.074 11.333 11.333 11.333 3.279 0 6.232-1.392 8.301-3.617l3.325 3.325c0.391 0.391 1.024 0.391 1.414 0s0.391-1.024 0-1.414l-24.666-24.667zM16.822 18.236c-0.181 0.26-0.481 0.43-0.822 0.43-0.506 0-0.925-0.376-0.991-0.864l-0.009-0.136v-1.252l1.822 1.822z"></path>
<path d="M17 11.667v1.091l9.505 9.505c0.534-1.316 0.829-2.755 0.829-4.262 0-6.259-5.074-11.333-11.333-11.333-1.508 0-2.946 0.294-4.262 0.829l3.511 3.511c0.183-0.208 0.452-0.34 0.751-0.34 0.506 0 0.925 0.376 0.991 0.864l0.009 0.136z"></path>
<path d="M25.561 6.83l0.108 0.082 1.532 1.333c0.417 0.363 0.46 0.994 0.098 1.411-0.332 0.382-0.891 0.451-1.303 0.18l-0.108-0.082-1.532-1.333c-0.417-0.363-0.46-0.994-0.098-1.411 0.332-0.382 0.891-0.451 1.302-0.18z"></path>
<path d="M19 3.333c0.552 0 1 0.448 1 1 0 0.506-0.376 0.925-0.864 0.991l-0.136 0.009h-6c-0.552 0-1-0.448-1-1 0-0.506 0.376-0.925 0.864-0.991l0.136-0.009h6z"></path>
</svg>
