<!-- Generated by IcoMoon.io -->
<svg version="1.1" xmlns="http://www.w3.org/2000/svg" width="32" height="32" viewBox="0 0 32 32">
<title>toggle-multiple-filled</title>
<path d="M2.667 8.667c0-3.314 2.686-6 6-6v0h14.667c3.314 0 6 2.686 6 6s-2.686 6-6 6v0h-14.667c-3.314 0-6-2.686-6-6v0zM8.667 11.333c1.473 0 2.667-1.194 2.667-2.667s-1.194-2.667-2.667-2.667v0c-1.473 0-2.667 1.194-2.667 2.667s1.194 2.667 2.667 2.667v0zM8.667 17.333c-3.314 0-6 2.686-6 6s2.686 6 6 6v0h14.667c3.314 0 6-2.686 6-6s-2.686-6-6-6v0h-14.667zM26 23.333c0 1.473-1.194 2.667-2.667 2.667s-2.667-1.194-2.667-2.667v0c0-1.473 1.194-2.667 2.667-2.667s2.667 1.194 2.667 2.667v0z"></path>
</svg>
