<!-- Generated by IcoMoon.io -->
<svg version="1.1" xmlns="http://www.w3.org/2000/svg" width="32" height="32" viewBox="0 0 32 32">
<title>tooltip-quote-filled</title>
<path d="M5.667 2.667c-1.657 0-3 1.343-3 3v10c0 1.657 1.343 3 3 3h2.589l2.526 4.799c0.173 0.329 0.514 0.534 0.885 0.534s0.712-0.206 0.885-0.534l2.526-4.799h2.589c1.657 0 3-1.343 3-3v-10c0-1.657-1.343-3-3-3h-12zM7.333 8.333c0-0.552 0.448-1 1-1h2c0.552 0 1 0.448 1 1 0 2.868-1.717 4.798-2.293 5.374-0.391 0.391-1.024 0.391-1.414 0s-0.391-1.024 0-1.414c0.268-0.268 0.817-0.882 1.22-1.768-0.15 0.090-0.325 0.141-0.513 0.141-0.552 0-1-0.448-1-1v-1.333zM12.667 8.333c0-0.552 0.448-1 1-1h2c0.552 0 1 0.448 1 1 0 2.868-1.717 4.798-2.293 5.374-0.391 0.391-1.024 0.391-1.414 0s-0.391-1.024 0-1.414c0.268-0.268 0.817-0.882 1.22-1.768-0.15 0.090-0.325 0.141-0.513 0.141-0.552 0-1-0.448-1-1v-1.333zM3.667 22h4.837l1.053 2h-5.889c-0.552 0-1-0.448-1-1s0.448-1 1-1zM28.333 24h-14.556l1.053-2h13.504c0.552 0 1 0.448 1 1s-0.448 1-1 1zM2.667 28.333c0-0.552 0.448-1 1-1h16c0.552 0 1 0.448 1 1s-0.448 1-1 1h-16c-0.552 0-1-0.448-1-1z"></path>
</svg>
