<!-- Generated by IcoMoon.io -->
<svg version="1.1" xmlns="http://www.w3.org/2000/svg" width="32" height="32" viewBox="0 0 32 32">
<title>tooltip-quote-filled</title>
<path d="M5.667 2.667c-1.657 0-3 1.343-3 3v0 10c0 1.657 1.343 3 3 3v0h2.589l2.525 4.8c0.171 0.321 0.503 0.535 0.885 0.535s0.714-0.214 0.883-0.53l0.003-0.005 2.525-4.8h2.589c1.657 0 3-1.343 3-3v0-10c0-1.657-1.343-3-3-3v0h-12zM7.333 8.333c0-0.552 0.448-1 1-1v0h2c0.552 0 1 0.448 1 1v0c0 2.868-1.717 4.799-2.293 5.373-0.183 0.196-0.443 0.318-0.732 0.318-0.552 0-1-0.448-1-1 0-0.289 0.122-0.549 0.318-0.731l0.001-0.001c0.267-0.268 0.816-0.883 1.22-1.768-0.147 0.089-0.324 0.142-0.513 0.142-0.552 0-1-0.448-1-1 0-0 0-0 0-0.001v0-1.333zM12.667 8.333c0-0.552 0.448-1 1-1v0h2c0.552 0 1 0.448 1 1v0c0 2.868-1.717 4.799-2.293 5.373-0.183 0.196-0.443 0.318-0.732 0.318-0.552 0-1-0.448-1-1 0-0.289 0.122-0.549 0.318-0.731l0.001-0.001c0.267-0.268 0.816-0.883 1.22-1.768-0.147 0.089-0.324 0.142-0.513 0.142-0.552 0-1-0.448-1-1 0-0 0-0 0-0.001v0-1.333zM3.667 22h4.837l1.053 2h-5.891c-0.552 0-1-0.448-1-1s0.448-1 1-1v0zM28.333 24h-14.556l1.053-2h13.503c0.552 0 1 0.448 1 1s-0.448 1-1 1v0zM2.667 28.333c0-0.552 0.448-1 1-1v0h16c0.552 0 1 0.448 1 1s-0.448 1-1 1v0h-16c-0.552 0-1-0.448-1-1v0z"></path>
</svg>
