<!-- Generated by IcoMoon.io -->
<svg version="1.1" xmlns="http://www.w3.org/2000/svg" width="32" height="32" viewBox="0 0 32 32">
<title>top-speed-filled</title>
<path d="M14.667 4.744v1.923c0 0.736 0.597 1.333 1.333 1.333s1.333-0.597 1.333-1.333v0-1.923c5.204 0.636 9.287 4.718 9.917 9.868l0.005 0.055h-1.923c-0.736 0-1.333 0.597-1.333 1.333s0.597 1.333 1.333 1.333v0h1.92c-0.299 2.423-1.392 4.597-2.987 6.32-0.165 0.178-0.267 0.417-0.267 0.68 0 0.552 0.448 1 1 1 0.289 0 0.55-0.123 0.733-0.319l0.001-0.001c2.191-2.367 3.6-5.503 3.6-9.013 0-7.364-5.969-13.333-13.333-13.333s-13.333 5.969-13.333 13.333c0 3.511 1.409 6.647 3.6 9.013 0.183 0.197 0.444 0.32 0.733 0.32 0.552 0 1-0.448 1-1 0-0.263-0.101-0.502-0.267-0.681l0.001 0.001c-1.595-1.723-2.688-3.896-2.987-6.32h1.92c0.736 0 1.333-0.597 1.333-1.333s-0.597-1.333-1.333-1.333v0h-1.923c0.261-2.175 1.107-4.115 2.372-5.706l-0.018 0.023 1.292 1.293c0.241 0.241 0.575 0.39 0.943 0.39 0.737 0 1.334-0.597 1.334-1.334 0-0.368-0.149-0.702-0.391-0.943l-1.292-1.292c1.567-1.248 3.507-2.093 5.629-2.349l0.054-0.005zM22.345 8.845c-0.144-0.112-0.327-0.179-0.526-0.179-0.21 0-0.402 0.075-0.552 0.2l0.001-0.001-0.291 0.244c-1.811 1.512-2.832 2.379-3.848 3.251l0.714-0.597c-0.875 0.747-1.769 1.52-2.484 2.151-0.359 0.316-0.658 0.586-0.954 0.859l0.036-0.033c-0.199 0.179-0.382 0.363-0.554 0.558l-0.006 0.007c-0.341 0.418-0.548 0.957-0.548 1.544 0 0.792 0.376 1.496 0.958 1.943l0.006 0.004c0.431 0.335 0.979 0.537 1.575 0.537 0.802 0 1.518-0.366 1.991-0.94l0.004-0.004c0.117-0.144 0.273-0.395 0.433-0.663 0.171-0.287 0.38-0.653 0.612-1.064 0.463-0.827 1.024-1.856 1.567-2.86-0.652 1.407-0.013 0.23 0.62-0.95l1.298-2.646 0.175-0.332c0.059-0.11 0.094-0.241 0.094-0.38 0-0.264-0.125-0.498-0.319-0.648l-0.002-0.001z"></path>
</svg>
