<!-- Generated by IcoMoon.io -->
<svg version="1.1" xmlns="http://www.w3.org/2000/svg" width="32" height="32" viewBox="0 0 32 32">
<title>translate-filled</title>
<path d="M22.604 7.071c0.223-0.702-0.165-1.452-0.866-1.675s-1.452 0.165-1.675 0.866c-0.165 0.519-0.314 1.198-0.431 1.791-0.753 0.017-1.494 0-2.203-0.050-0.735-0.052-1.373 0.501-1.425 1.235s0.501 1.372 1.235 1.425c0.613 0.044 1.245 0.065 1.889 0.063-0.141 0.816-0.246 1.567-0.319 2.263-1.684 0.955-2.857 2.246-3.516 3.601-0.832 1.71-0.934 3.808 0.319 5.176 0.901 0.982 2.273 1.011 3.332 0.785 0.43-0.092 0.873-0.236 1.318-0.427 0.34 0.461 0.955 0.666 1.522 0.463 0.693-0.248 1.054-1.011 0.806-1.704-0.019-0.052-0.037-0.103-0.055-0.153 1.531-1.242 2.937-3.077 3.647-5.413 0.381 0.335 0.676 0.732 0.877 1.153 0.379 0.792 0.446 1.694 0.131 2.546-0.311 0.844-1.040 1.751-2.452 2.457-0.659 0.329-0.926 1.13-0.596 1.789s1.13 0.926 1.789 0.596c1.921-0.961 3.18-2.343 3.761-3.92 0.578-1.568 0.442-3.218-0.228-4.619-0.585-1.224-1.561-2.239-2.805-2.886 0.005-0.144 0.008-0.289 0.008-0.435 0-0.736-0.597-1.333-1.333-1.333-0.631 0-1.159 0.438-1.298 1.027-0.757-0.060-1.56-0.005-2.394 0.184 0.062-0.406 0.135-0.835 0.221-1.286 1.303-0.125 2.592-0.336 3.789-0.63 0.715-0.175 1.153-0.897 0.977-1.612s-0.897-1.153-1.612-0.978c-0.829 0.203-1.714 0.363-2.618 0.477 0.063-0.278 0.132-0.545 0.206-0.778zM17.689 17.758c0.221-0.454 0.553-0.93 1.011-1.383 0.026 0.464 0.071 0.894 0.131 1.297 0.111 0.746 0.275 1.398 0.455 1.97-0.324 0.145-0.628 0.246-0.899 0.303-0.572 0.122-0.783 0.024-0.819 0.008l-0.005-0.002c-0.216-0.258-0.439-1.032 0.126-2.193zM23.687 14.341c-0.411 1.483-1.187 2.707-2.090 3.639-0.048-0.217-0.090-0.449-0.127-0.699-0.101-0.684-0.155-1.509-0.117-2.539 0.044-0.016 0.088-0.032 0.133-0.048l2.201-0.353zM23.687 14.341l-2.201 0.353c0.803-0.283 1.541-0.386 2.201-0.353z"></path>
<path d="M10.048 8.387c-2.694-0.784-4.893-0.050-5.942 0.441-0.667 0.312-0.955 1.106-0.642 1.773s1.106 0.955 1.773 0.642c0.707-0.331 2.213-0.835 4.065-0.296 0.485 0.143 0.758 0.33 0.92 0.493s0.271 0.36 0.344 0.606c0.089 0.299 0.115 0.594 0.119 0.918-0.231-0.057-0.478-0.11-0.74-0.155-1.528-0.265-3.644-0.287-5.682 0.854-1.696 0.949-2.396 2.89-2.243 4.596 0.159 1.768 1.252 3.572 3.429 4.181 1.973 0.552 3.885-0.059 5.17-0.676 0.036-0.017 0.072-0.035 0.107-0.052 0.162 0.553 0.674 0.957 1.28 0.957 0.736 0 1.333-0.597 1.333-1.333v-7.337c0-0.071 0.003-0.161 0.006-0.268 0.017-0.555 0.046-1.547-0.224-2.45-0.175-0.585-0.481-1.191-1.006-1.721s-1.213-0.925-2.063-1.175l-0.003-0.001zM9.49 15.437c0.459 0.079 0.863 0.191 1.182 0.296v2.931c-0.301 0.205-0.717 0.463-1.207 0.697-1.056 0.507-2.244 0.807-3.298 0.512-0.93-0.26-1.414-0.988-1.491-1.851-0.083-0.925 0.323-1.715 0.889-2.031 1.316-0.737 2.745-0.758 3.924-0.554z"></path>
</svg>
