<!-- Generated by IcoMoon.io -->
<svg version="1.1" xmlns="http://www.w3.org/2000/svg" width="32" height="32" viewBox="0 0 32 32">
<title>translate-filled</title>
<path d="M22.604 7.071c0.040-0.121 0.063-0.26 0.063-0.404 0-0.736-0.597-1.333-1.333-1.333-0.592 0-1.094 0.386-1.268 0.92l-0.003 0.009c-0.147 0.465-0.297 1.067-0.414 1.681l-0.018 0.111c-0.753 0.016-1.493 0-2.203-0.051-0.028-0.002-0.061-0.003-0.095-0.003-0.736 0-1.333 0.597-1.333 1.333 0 0.703 0.544 1.279 1.234 1.33l0.004 0c0.613 0.043 1.245 0.064 1.888 0.063-0.107 0.556-0.22 1.329-0.306 2.11l-0.014 0.154c-1.684 0.955-2.856 2.245-3.515 3.6-0.832 1.711-0.933 3.809 0.319 5.177 0.9 0.981 2.272 1.011 3.332 0.784 0.503-0.111 0.944-0.258 1.362-0.444l-0.044 0.018c0.246 0.329 0.634 0.54 1.072 0.54 0.736 0 1.333-0.597 1.333-1.333 0-0.16-0.028-0.314-0.080-0.456l0.003 0.009c-0.057-0.173-0.075-0.224-0.094-0.275l0.039 0.122c1.692-1.383 2.962-3.224 3.625-5.334l0.021-0.079c0.381 0.335 0.676 0.733 0.877 1.152 0.208 0.417 0.33 0.908 0.33 1.428 0 0.401-0.073 0.786-0.206 1.141l0.007-0.022c-0.312 0.844-1.040 1.751-2.453 2.457-0.44 0.224-0.737 0.674-0.737 1.193 0 0.737 0.597 1.334 1.334 1.334 0.218 0 0.423-0.052 0.604-0.144l-0.008 0.003c1.92-0.96 3.18-2.344 3.761-3.92 0.23-0.607 0.364-1.309 0.364-2.042 0-0.937-0.218-1.823-0.606-2.611l0.015 0.035c-0.61-1.249-1.578-2.244-2.771-2.87l-0.035-0.017c0.005-0.128 0.008-0.279 0.008-0.431 0-0.001 0-0.003 0-0.004v0c0-0.001 0-0.003 0-0.005 0-0.736-0.597-1.333-1.333-1.333-0.629 0-1.157 0.436-1.297 1.022l-0.002 0.009c-0.177-0.014-0.384-0.022-0.593-0.022-0.639 0-1.26 0.075-1.856 0.217l0.054-0.011c0.063-0.407 0.136-0.835 0.221-1.285 1.428-0.136 2.718-0.358 3.974-0.669l-0.185 0.039c0.573-0.158 0.987-0.674 0.987-1.287 0-0.736-0.597-1.333-1.333-1.333-0.102 0-0.201 0.011-0.297 0.033l0.009-0.002c-0.707 0.181-1.596 0.349-2.501 0.465l-0.118 0.012c0.064-0.277 0.133-0.545 0.207-0.779zM17.689 17.757c0.27-0.534 0.608-0.99 1.010-1.382l0.001-0.001c0.027 0.464 0.071 0.893 0.131 1.297 0.111 0.747 0.276 1.397 0.455 1.969-0.256 0.121-0.556 0.225-0.868 0.297l-0.031 0.006c-0.572 0.123-0.784 0.025-0.819 0.008l-0.005-0.001c-0.216-0.257-0.439-1.032 0.127-2.193zM23.687 14.341c-0.405 1.426-1.129 2.651-2.093 3.642l0.002-0.002c-0.039-0.166-0.084-0.403-0.12-0.643l-0.007-0.057c-0.084-0.571-0.132-1.23-0.132-1.9 0-0.225 0.005-0.448 0.016-0.67l-0.001 0.031c0.044-0.017 0.089-0.032 0.133-0.048l2.201-0.353zM21.485 14.695l2.201-0.353c-0.66-0.033-1.399 0.071-2.201 0.353zM10.048 8.387c-0.714-0.218-1.536-0.344-2.386-0.344-1.29 0-2.513 0.289-3.607 0.806l0.051-0.022c-0.446 0.222-0.747 0.675-0.747 1.198 0 0.736 0.597 1.333 1.333 1.333 0.197 0 0.385-0.043 0.553-0.12l-0.008 0.003c0.712-0.336 1.546-0.533 2.426-0.533 0.584 0 1.148 0.087 1.68 0.248l-0.041-0.011c0.485 0.143 0.757 0.331 0.92 0.493 0.16 0.164 0.271 0.36 0.343 0.605 0.089 0.3 0.116 0.595 0.12 0.92-0.171-0.046-0.421-0.101-0.674-0.146l-0.066-0.010c-1.528-0.265-3.644-0.287-5.683 0.853-1.695 0.951-2.395 2.891-2.243 4.597 0.16 1.768 1.253 3.572 3.429 4.181 1.973 0.552 3.884-0.060 5.169-0.676l0.107-0.053c0.167 0.559 0.677 0.96 1.28 0.96 0.736 0 1.333-0.597 1.333-1.333 0-0 0-0.001 0-0.001v0-7.336c0-0.071 0.003-0.16 0.007-0.267 0.016-0.556 0.045-1.547-0.224-2.451-0.199-0.675-0.547-1.253-1.007-1.72l0.001 0.001c-0.525-0.531-1.213-0.925-2.063-1.175h-0.004zM9.489 15.436c0.459 0.080 0.863 0.191 1.183 0.296v2.929c-0.344 0.239-0.739 0.471-1.152 0.674l-0.055 0.024c-1.056 0.507-2.243 0.807-3.297 0.512-0.931-0.26-1.413-0.989-1.492-1.852-0.083-0.924 0.324-1.715 0.889-2.031 1.316-0.737 2.747-0.759 3.924-0.553z"></path>
</svg>
