<!-- Generated by IcoMoon.io -->
<svg version="1.1" xmlns="http://www.w3.org/2000/svg" width="32" height="32" viewBox="0 0 32 32">
<title>transmission-filled</title>
<path d="M16 2.667c-0 0-0.001 0-0.001 0-2.025 0-3.667 1.642-3.667 3.667 0 1.669 1.116 3.078 2.642 3.522l0.026 0.006v5.139c0 0.552 0.448 1 1 1s1-0.448 1-1v0-5.139c1.548-0.453 2.66-1.86 2.66-3.527 0-2.023-1.637-3.663-3.659-3.668h-0zM7.333 5.333c-1.841 0-3.333 1.492-3.333 3.333v0 16c0 1.841 1.492 3.333 3.333 3.333s3.333-1.492 3.333-3.333v0-4.667h2v4.667c0 1.841 1.492 3.333 3.333 3.333s3.333-1.492 3.333-3.333v0-4.667h6c1.473 0 2.667-1.194 2.667-2.667v0-8.667c0-1.841-1.492-3.333-3.333-3.333s-3.333 1.492-3.333 3.333v0 4.667h-3v2h5v-6.667c0-0.736 0.597-1.333 1.333-1.333s1.333 0.597 1.333 1.333v0 8.667c0 0.368-0.298 0.667-0.667 0.667v0h-8v6.667c0 0.736-0.597 1.333-1.333 1.333s-1.333-0.597-1.333-1.333v0-6.667h-6v6.667c0 0.736-0.597 1.333-1.333 1.333s-1.333-0.597-1.333-1.333v0-16c0-0.736 0.597-1.333 1.333-1.333s1.333 0.597 1.333 1.333v0 6.667h5v-2h-3v-4.667c0-1.841-1.492-3.333-3.333-3.333v0z"></path>
</svg>
