<!-- Generated by IcoMoon.io -->
<svg version="1.1" xmlns="http://www.w3.org/2000/svg" width="32" height="32" viewBox="0 0 32 32">
<title>tray-item-add-filled</title>
<path d="M18.333 2.667c-0.921 0-1.667 0.746-1.667 1.667v3.333c0 0.92 0.746 1.667 1.667 1.667h5.333c0.921 0 1.667-0.746 1.667-1.667v-3.333c0-0.92-0.746-1.667-1.667-1.667h-5.333zM22 12.333c0-0.552-0.448-1-1-1s-1 0.448-1 1v8.919l-1.626-1.626c-0.391-0.391-1.024-0.391-1.414 0s-0.391 1.024 0 1.414l3.333 3.333c0.391 0.391 1.024 0.391 1.414 0l3.333-3.333c0.391-0.391 0.391-1.024 0-1.414s-1.024-0.391-1.414 0l-1.626 1.626v-8.919zM8.333 18c-0.92 0-1.667 0.746-1.667 1.667v3.333c0 0.921 0.746 1.667 1.667 1.667h5.333c0.921 0 1.667-0.746 1.667-1.667v-3.333c0-0.921-0.746-1.667-1.667-1.667h-5.333zM4.667 22.333c0-0.552-0.448-1-1-1s-1 0.448-1 1v2.667c0 2.025 1.642 3.667 3.667 3.667h19.333c2.025 0 3.667-1.642 3.667-3.667v-2.667c0-0.552-0.448-1-1-1s-1 0.448-1 1v2.667c0 0.921-0.746 1.667-1.667 1.667h-19.333c-0.92 0-1.667-0.746-1.667-1.667v-2.667z"></path>
</svg>
