<!-- Generated by IcoMoon.io -->
<svg version="1.1" xmlns="http://www.w3.org/2000/svg" width="32" height="32" viewBox="0 0 32 32">
<title>tree-deciduous-filled</title>
<path d="M16 3.2c-0 0-0.001 0-0.001 0-2.589 0-4.767 1.756-5.409 4.142l-0.009 0.039c-2.425 0.651-4.182 2.83-4.182 5.419 0 0.335 0.029 0.664 0.086 0.983l-0.005-0.034c-1.505 1.020-2.481 2.721-2.481 4.651 0 3.093 2.507 5.6 5.6 5.6 0 0 0.001 0 0.001 0h3.2v2.8c0 1.104 0.896 2 2 2h2.4c1.104 0 2-0.896 2-2v-2.8h3.2c0 0 0.001 0 0.001 0 3.093 0 5.6-2.507 5.6-5.6 0-1.93-0.976-3.632-2.462-4.639l-0.020-0.013c0.052-0.285 0.081-0.614 0.081-0.949 0-2.589-1.756-4.768-4.143-5.41l-0.039-0.009c-0.651-2.425-2.83-4.181-5.418-4.181-0 0-0.001 0-0.001 0h0zM14.4 24h3.2v2.8c0 0.221-0.179 0.4-0.4 0.4v0h-2.4c-0.221 0-0.4-0.179-0.4-0.4v0-2.8z"></path>
</svg>
