<!-- Generated by IcoMoon.io -->
<svg version="1.1" xmlns="http://www.w3.org/2000/svg" width="32" height="32" viewBox="0 0 32 32">
<title>tv-usb-filled</title>
<path d="M2.667 7.833c0-1.749 1.418-3.167 3.167-3.167v0h20.333c1.749 0 3.167 1.418 3.167 3.167v0 5.263c-0.199-0.061-0.428-0.097-0.665-0.097-0.001 0-0.001 0-0.002 0h-4.667c-1.289 0-2.333 1.045-2.333 2.333v0 1.891c-0.736 0-1.333 0.597-1.333 1.333v0 4.775h-14.5c-1.749 0-3.167-1.418-3.167-3.167v0-12.333zM7.5 27.333h14.529l-1.053-1.667h-13.476c-0.46 0-0.833 0.373-0.833 0.833s0.373 0.833 0.833 0.833v0zM23.333 15.333v3.333h-0.667c-0.368 0-0.667 0.298-0.667 0.667v0 4.64c0 0 0 0.001 0 0.001 0 0.132 0.038 0.255 0.104 0.358l-0.002-0.003 1.897 3.003v2.667c0 0.368 0.298 0.667 0.667 0.667v0h3.333c0.368 0 0.667-0.298 0.667-0.667v0-2.667l1.897-3.003c0.064-0.101 0.103-0.224 0.103-0.355 0-0 0-0.001 0-0.001v0-4.64c0-0.368-0.298-0.667-0.667-0.667v0h-0.667v-3.333c0-0.368-0.298-0.667-0.667-0.667v0h-4.667c-0.368 0-0.667 0.298-0.667 0.667v0zM25 16.333h2.667v2.333h-2.667v-2.333z"></path>
</svg>
