<!-- Generated by IcoMoon.io -->
<svg version="1.1" xmlns="http://www.w3.org/2000/svg" width="32" height="32" viewBox="0 0 32 32">
<title>uninstall-app-filled</title>
<path d="M22.151 11.72l0.125-0.111 2.391-2.389 2.391 2.389c0.241 0.241 0.575 0.39 0.943 0.39 0.309 0 0.594-0.105 0.82-0.282l-0.003 0.002 0.125-0.111c0.241-0.241 0.39-0.575 0.39-0.943 0-0.309-0.105-0.594-0.282-0.82l0.002 0.003-0.111-0.125-2.389-2.391 2.389-2.391c0.241-0.241 0.39-0.575 0.39-0.943 0-0.309-0.105-0.594-0.282-0.82l0.002 0.003-0.111-0.125c-0.241-0.241-0.575-0.39-0.943-0.39-0.309 0-0.594 0.105-0.82 0.282l0.003-0.002-0.125 0.111-2.391 2.389-2.391-2.389c-0.241-0.241-0.575-0.39-0.943-0.39-0.309 0-0.594 0.105-0.82 0.282l0.003-0.002-0.125 0.111c-0.241 0.241-0.39 0.575-0.39 0.943 0 0.309 0.105 0.594 0.282 0.82l-0.002-0.003 0.111 0.125 2.389 2.391-2.389 2.391c-0.241 0.241-0.39 0.575-0.39 0.943 0 0.309 0.105 0.594 0.282 0.82l-0.002-0.003 0.111 0.125c0.241 0.242 0.575 0.391 0.943 0.391 0.251 0 0.486-0.069 0.687-0.19l-0.006 0.003 0.136-0.093zM24.667 28c1.841 0 3.333-1.492 3.333-3.333v0-6.667c0-1.841-1.492-3.333-3.333-3.333v0h-7.333v-7.333c0-1.841-1.492-3.333-3.333-3.333v0h-6.667c-1.841 0-3.333 1.492-3.333 3.333v0 17.333c0 1.841 1.492 3.333 3.333 3.333v0h17.333zM6.667 14.667v-7.333c0-0.368 0.298-0.667 0.667-0.667v0h6.667c0.368 0 0.667 0.298 0.667 0.667v0 7.333h-8zM14.667 25.333h-7.333c-0.368 0-0.667-0.298-0.667-0.667v0-7.333h8v8zM24.667 25.333h-7.333v-8h7.333c0.368 0 0.667 0.298 0.667 0.667v0 6.667c0 0.368-0.298 0.667-0.667 0.667v0z"></path>
</svg>
