<!-- Generated by IcoMoon.io -->
<svg version="1.1" xmlns="http://www.w3.org/2000/svg" width="32" height="32" viewBox="0 0 32 32">
<title>usb-stick-filled</title>
<path d="M20.356 2.663c0.506 0 0.925 0.376 0.991 0.864l0.009 0.136 0.001 5.847c1.088 0.392 1.884 1.396 1.973 2.596l0.009 0.227v14c0 1.588-1.234 2.888-2.795 2.993l-0.205 0.007h-8.667c-1.588 0-2.888-1.233-2.993-2.795l-0.007-0.205v-14c0-1.313 0.843-2.428 2.017-2.835l-0.001-5.835c0-0.506 0.376-0.925 0.864-0.991l0.136-0.009h8.668zM19.356 4.663h-6.668v4.669h6.668v-4.669z"></path>
</svg>
