<!-- Generated by IcoMoon.io -->
<svg version="1.1" xmlns="http://www.w3.org/2000/svg" width="32" height="32" viewBox="0 0 32 32">
<title>usb-plug-filled</title>
<path d="M14.667 28.331c-0 0.552-0.448 1-1 1-0.504 0-0.921-0.373-0.99-0.858l-0.001-0.005-0.009-0.136v-5.664h-0.995c-0 0-0 0-0 0-1.584 0-2.881-1.228-2.992-2.784l-0.001-0.010-0.007-0.205v-7.333c0-0 0-0.001 0-0.002 0-1.305 0.833-2.415 1.996-2.828l0.021-0.007v-5.836c0-0.504 0.373-0.921 0.859-0.99l0.005-0.001 0.135-0.009h8.668c0.504 0 0.921 0.373 0.99 0.859l0.001 0.005 0.009 0.136v5.848c1.094 0.404 1.879 1.397 1.973 2.584l0.001 0.010 0.009 0.227v7.333c0 0 0 0.001 0 0.002 0 1.585-1.229 2.882-2.785 2.992l-0.010 0.001-0.205 0.007h-1.005l0.001 5.66c-0 0.552-0.448 1-1 1-0.504 0-0.921-0.373-0.99-0.858l-0.001-0.005-0.011-0.136v-5.66h-2.667v5.667zM19.356 4.663h-6.668v4.669h6.668v-4.669z"></path>
</svg>
