<!-- Generated by IcoMoon.io -->
<svg version="1.1" xmlns="http://www.w3.org/2000/svg" width="32" height="32" viewBox="0 0 32 32">
<title>vault-filled</title>
<path d="M18.667 18c1.105 0 2-0.895 2-2s-0.895-2-2-2c-1.105 0-2 0.895-2 2s0.895 2 2 2z"></path>
<path d="M2.667 10.333c0-2.761 2.239-5 5-5h16.667c2.761 0 5 2.239 5 5v11.333c0 2.761-2.239 5-5 5h-16.667c-2.761 0-5-2.239-5-5v-11.333zM7.667 9.333c-0.552 0-1 0.448-1 1v11.333c0 0.552 0.448 1 1 1s1-0.448 1-1v-11.333c0-0.552-0.448-1-1-1zM15.040 10.96c-0.391-0.391-1.024-0.391-1.414 0s-0.391 1.024 0 1.414l1.594 1.594c-0.352 0.596-0.554 1.29-0.554 2.032s0.202 1.436 0.554 2.032l-1.594 1.594c-0.391 0.391-0.391 1.024 0 1.414s1.024 0.391 1.414 0l1.594-1.594c0.596 0.352 1.29 0.554 2.032 0.554s1.436-0.202 2.032-0.554l1.594 1.594c0.391 0.391 1.024 0.391 1.414 0s0.391-1.024 0-1.414l-1.594-1.594c0.352-0.596 0.554-1.29 0.554-2.032s-0.202-1.436-0.554-2.032l1.594-1.594c0.391-0.391 0.391-1.024 0-1.414s-1.024-0.391-1.414 0l-1.594 1.594c-0.596-0.352-1.29-0.554-2.032-0.554s-1.436 0.202-2.032 0.554l-1.594-1.594z"></path>
</svg>
