<!-- Generated by IcoMoon.io -->
<svg version="1.1" xmlns="http://www.w3.org/2000/svg" width="32" height="32" viewBox="0 0 32 32">
<title>vehicle-bus-filled</title>
<path d="M14.333 6.667c-0.552 0-1 0.448-1 1s0.448 1 1 1v0h3.333c0.552 0 1-0.448 1-1s-0.448-1-1-1v0h-3.333zM5.333 7.667c0-2.761 2.239-5 5-5v0h11.333c2.761 0 5 2.239 5 5v0 5h1.636c0.552 0 1 0.448 1 1s-0.448 1-1 1v0h-1.636v11.667c0 1.289-1.045 2.333-2.333 2.333v0h-2c-1.289 0-2.333-1.045-2.333-2.333v0-1.667h-8v1.667c0 1.289-1.045 2.333-2.333 2.333v0h-2c-1.289 0-2.333-1.045-2.333-2.333v0-11.667h-1.667c-0.552 0-1-0.448-1-1s0.448-1 1-1v0h1.667v-5zM22 24.667v1.667c0 0.184 0.149 0.333 0.333 0.333h2c0.184 0 0.333-0.149 0.333-0.333v0-1.667h-2.667zM7.333 24.667v1.667c0 0.184 0.149 0.333 0.333 0.333h2c0.184 0 0.333-0.149 0.333-0.333v0-1.667h-2.667zM10.333 4.667c-1.657 0-3 1.343-3 3v0 8.333h17.333v-8.333c0-1.657-1.343-3-3-3v0h-11.333zM12 20c0-0.736-0.597-1.333-1.333-1.333s-1.333 0.597-1.333 1.333v0c0 0.736 0.597 1.333 1.333 1.333s1.333-0.597 1.333-1.333v0zM21.333 21.333c0.736 0 1.333-0.597 1.333-1.333s-0.597-1.333-1.333-1.333v0c-0.736 0-1.333 0.597-1.333 1.333s0.597 1.333 1.333 1.333v0z"></path>
</svg>
