<!-- Generated by IcoMoon.io -->
<svg version="1.1" xmlns="http://www.w3.org/2000/svg" width="32" height="32" viewBox="0 0 32 32">
<title>vehicle-car-parking-filled</title>
<path d="M24.333 1.333c-0.736 0-1.333 0.597-1.333 1.333v0 6.667c0 0.736 0.597 1.333 1.333 1.333v0h1.667v19.167c0 0.46 0.373 0.833 0.833 0.833s0.833-0.373 0.833-0.833v0-19.167h1.667c0.736 0 1.333-0.597 1.333-1.333v0-6.667c0-0.736-0.597-1.333-1.333-1.333v0h-5zM21.667 4.125c-0.304-0.079-0.652-0.125-1.012-0.125-0.001 0-0.002 0-0.003 0h-9.538c-1.949 0-3.586 1.339-4.041 3.147l-0.006 0.029-0.528 2.158h-1.707c-0.46 0-0.833 0.373-0.833 0.833s0.373 0.833 0.833 0.833v0h1.299l-0.289 1.178c-1.086 0.414-1.843 1.446-1.843 2.655v11.667c0 1.197 0.97 2.167 2.167 2.167v0h2.333c1.197 0 2.167-0.97 2.167-2.167v0-2.167h10.667v2.167c0 1.197 0.97 2.167 2.167 2.167v0h1.167v-1.667h-1.167c-0.276 0-0.5-0.224-0.5-0.5v0-2.167h1.667v-12.333h-17.064l1.085-4.428c0.277-1.102 1.258-1.905 2.428-1.905h9.538c0.357 0 0.702 0.076 1.014 0.215v-1.757zM5.667 24.333h3.333v2.167c0 0.276-0.224 0.5-0.5 0.5v0h-2.333c-0.276 0-0.5-0.224-0.5-0.5v0-2.167zM8 17.333c0-0.736 0.597-1.333 1.333-1.333s1.333 0.597 1.333 1.333v0c0 0.736-0.597 1.333-1.333 1.333s-1.333-0.597-1.333-1.333v0zM22.667 18.667c-0.736 0-1.333-0.597-1.333-1.333s0.597-1.333 1.333-1.333v0c0.736 0 1.333 0.597 1.333 1.333s-0.597 1.333-1.333 1.333v0zM18.5 18.667c0.46 0 0.833 0.373 0.833 0.833s-0.373 0.833-0.833 0.833v0h-5c-0.46 0-0.833-0.373-0.833-0.833s0.373-0.833 0.833-0.833v0h5z"></path>
</svg>
