<!-- Generated by IcoMoon.io -->
<svg version="1.1" xmlns="http://www.w3.org/2000/svg" width="32" height="32" viewBox="0 0 32 32">
<title>vehicle-subway-filled</title>
<path d="M21.667 4c2.761 0 5 2.239 5 5v0 12c0 0 0 0 0 0 0 2.355-1.628 4.33-3.819 4.861l-0.034 0.007 3.284 1.563c0.341 0.164 0.572 0.507 0.572 0.904 0 0.552-0.448 1-1 1-0.109 0-0.214-0.017-0.312-0.050l0.007 0.002-0.127-0.051-6.797-3.236h-4.881l-6.796 3.236c-0.133 0.069-0.289 0.11-0.456 0.11-0.552 0-1-0.448-1-1 0-0.407 0.243-0.756 0.591-0.913l0.006-0.003 3.283-1.564c-2.225-0.538-3.852-2.512-3.853-4.867v-12c0-2.761 2.239-5 5-5v0h11.333zM10.667 20c-0.736 0-1.333 0.597-1.333 1.333s0.597 1.333 1.333 1.333v0c0.736 0 1.333-0.597 1.333-1.333s-0.597-1.333-1.333-1.333v0zM21.333 20c-0.736 0-1.333 0.597-1.333 1.333s0.597 1.333 1.333 1.333v0c0.736 0 1.333-0.597 1.333-1.333s-0.597-1.333-1.333-1.333v0zM21.667 6h-11.333c-1.657 0-3 1.343-3 3v0 7.667h17.333v-7.667c0-1.657-1.343-3-3-3v0zM17.667 8c0.552 0 1 0.448 1 1s-0.448 1-1 1v0h-3.333c-0.552 0-1-0.448-1-1s0.448-1 1-1v0h3.333z"></path>
</svg>
