<!-- Generated by IcoMoon.io -->
<svg version="1.1" xmlns="http://www.w3.org/2000/svg" width="32" height="32" viewBox="0 0 32 32">
<title>vehicle-truck-cube-filled</title>
<path d="M1.333 11.432v-5.528c0-0.779 0.445-1.454 1.095-1.784l0.011-0.005 4.667-2.333c0.26-0.133 0.568-0.211 0.893-0.211s0.633 0.078 0.905 0.216l-0.011-0.005 4.667 2.333c0.661 0.335 1.107 1.010 1.107 1.789v0 5.528c-0.001 0.778-0.446 1.453-1.095 1.783l-0.011 0.005-4.667 2.333c-0.26 0.133-0.568 0.211-0.893 0.211s-0.633-0.078-0.905-0.216l0.011 0.005-4.667-2.333c-0.661-0.335-1.106-1.010-1.107-1.788v-0zM3.404 6.036c-0.044 0.087-0.070 0.189-0.070 0.298 0 0.259 0.148 0.484 0.364 0.594l0.004 0.002 3.632 1.817v3.92c0 0.368 0.298 0.667 0.667 0.667s0.667-0.298 0.667-0.667v0-3.92l3.632-1.816c0.22-0.112 0.369-0.337 0.369-0.597 0-0.369-0.299-0.667-0.667-0.667-0.109 0-0.212 0.026-0.302 0.072l0.004-0.002-3.701 1.852-3.701-1.852c-0.087-0.044-0.189-0.070-0.298-0.070-0.26 0-0.485 0.149-0.595 0.365l-0.002 0.004zM15.404 4c0.373 0.531 0.596 1.19 0.596 1.902 0 0.001 0 0.001 0 0.002v-0 5.527c-0 1.298-0.741 2.422-1.824 2.973l-0.019 0.009-4.667 2.333c-0.434 0.222-0.947 0.352-1.491 0.352s-1.056-0.13-1.51-0.361l0.019 0.009-3.843-1.919v8.175c0 1.558 1.188 2.839 2.708 2.986l0.012 0.001c0.323 1.913 1.967 3.352 3.947 3.352 1.975 0 3.616-1.432 3.941-3.315l0.003-0.024h2.776c0.327 1.908 1.969 3.341 3.945 3.341s3.618-1.433 3.942-3.317l0.003-0.024h2.388c1.657 0 3-1.343 3-3 0-0 0-0.001 0-0.001v0-7.216c-0-0.467-0.107-0.908-0.297-1.302l0.008 0.018-2.265-4.784c-0.492-1.023-1.521-1.716-2.711-1.716h-2.068v-1c0-1.657-1.343-3-3-3v0h-3.596zM25.667 20.667h1.667v2h-1.667c-0.552 0-1-0.448-1-1s0.448-1 1-1v0zM24.972 10.573l1.939 4.093h-4.911v-4.667h2.067c0 0 0.001 0 0.001 0 0.397 0 0.741 0.232 0.902 0.567l0.003 0.006zM11.333 25.333c0 1.105-0.895 2-2 2s-2-0.895-2-2v0c0-1.105 0.895-2 2-2s2 0.895 2 2v0zM20 23.333c1.105 0 2 0.895 2 2s-0.895 2-2 2v0c-1.105 0-2-0.895-2-2s0.895-2 2-2v0z"></path>
</svg>
