<!-- Generated by IcoMoon.io -->
<svg version="1.1" xmlns="http://www.w3.org/2000/svg" width="32" height="32" viewBox="0 0 32 32">
<title>vehicle-bicycle-filled</title>
<path d="M17.333 2.667c-0.736 0-1.333 0.597-1.333 1.333s0.597 1.333 1.333 1.333v0h1.583l0.833 4h-7.749v-1.333c0-0.736-0.597-1.333-1.333-1.333-0 0-0.001 0-0.001 0h-3.999c-0.736 0-1.333 0.597-1.333 1.333s0.597 1.333 1.333 1.333v0h2.667v1.147l-1.203 4.211c-3.075 0.284-5.464 2.851-5.464 5.976 0 3.314 2.686 6 6 6s6-2.686 6-6c0-0.060-0.001-0.12-0.003-0.179l0 0.009 5.961-6.955 0.336 1.613c-2.154 0.943-3.631 3.056-3.631 5.513 0 3.314 2.687 6.001 6.001 6.001s6.001-2.687 6.001-6.001c0-3.225-2.544-5.856-5.735-5.996l-0.013-0-2.28-10.944c-0.131-0.61-0.665-1.061-1.305-1.061 0 0-0 0-0 0h-2.667zM21.527 17.865l0.501 2.407c0.131 0.61 0.665 1.061 1.305 1.061 0.736 0 1.333-0.597 1.333-1.333 0-0.096-0.010-0.19-0.030-0.281l0.002 0.009-0.477-2.291c1.452 0.382 2.506 1.683 2.506 3.23 0 1.842-1.493 3.335-3.335 3.335s-3.335-1.493-3.335-3.335c0-1.171 0.603-2.201 1.516-2.796l0.013-0.008zM13.745 17.471c-0.697-1.093-1.708-1.932-2.906-2.399l-0.041-0.014 0.873-3.057h6.763l-4.689 5.471zM10.061 17.639c0.514 0.24 0.941 0.589 1.266 1.020l0.006 0.008h-1.565l0.293-1.028zM7.291 17.629l-0.573 2.004c-0.033 0.11-0.051 0.236-0.051 0.367 0 0.736 0.597 1.333 1.333 1.333 0 0 0.001 0 0.001 0h3.933c-0.322 1.532-1.661 2.665-3.266 2.665-1.841 0-3.333-1.492-3.333-3.333 0-1.342 0.793-2.498 1.936-3.027l0.021-0.009z"></path>
</svg>
