<!-- Generated by IcoMoon.io -->
<svg version="1.1" xmlns="http://www.w3.org/2000/svg" width="32" height="32" viewBox="0 0 32 32">
<title>vehicle-bicycle-filled</title>
<path d="M17.333 2.667c-0.736 0-1.333 0.597-1.333 1.333s0.597 1.333 1.333 1.333h1.583l0.833 4h-7.749v-1.333c0-0.736-0.598-1.333-1.335-1.333h-3.999c-0.736 0-1.333 0.597-1.333 1.333s0.597 1.333 1.333 1.333h2.667v1.147l-1.203 4.21c-3.062 0.271-5.464 2.843-5.464 5.976 0 3.314 2.686 6 6 6s6-2.686 6-6c0-0.057-0.001-0.114-0.002-0.171l5.961-6.955 0.336 1.613c-2.134 0.919-3.628 3.042-3.628 5.513 0 3.314 2.686 6 6 6s6-2.686 6-6c0-3.229-2.551-5.863-5.748-5.995l-2.28-10.944c-0.129-0.618-0.674-1.061-1.305-1.061h-2.667zM21.527 17.865l0.501 2.407c0.15 0.721 0.856 1.183 1.577 1.033s1.183-0.856 1.033-1.577l-0.477-2.291c1.44 0.368 2.505 1.675 2.505 3.23 0 1.841-1.492 3.333-3.333 3.333s-3.333-1.492-3.333-3.333c0-1.175 0.608-2.208 1.527-2.802zM13.745 17.47c-0.689-1.093-1.722-1.948-2.946-2.414l0.873-3.057h6.762l-4.689 5.47zM10.061 17.638c0.505 0.233 0.942 0.589 1.272 1.028h-1.566l0.294-1.028zM7.291 17.63l-0.573 2.004c-0.115 0.402-0.034 0.835 0.218 1.169s0.646 0.53 1.064 0.53h3.933c-0.309 1.521-1.654 2.667-3.267 2.667-1.841 0-3.333-1.492-3.333-3.333 0-1.35 0.803-2.513 1.957-3.037z"></path>
</svg>
