<!-- Generated by IcoMoon.io -->
<svg version="1.1" xmlns="http://www.w3.org/2000/svg" width="32" height="32" viewBox="0 0 32 32">
<title>vehicle-truck-filled</title>
<path d="M4 7c0-1.657 1.343-3 3-3v0h18c1.657 0 3 1.343 3 3v0 18c0 0.552-0.448 1-1 1v0h-1.333v-11c0-0.147-0.016-0.292-0.048-0.433l-0.985-4.435c-0.412-1.805-2.003-3.132-3.904-3.132h-9.459c-1.902 0-3.493 1.328-3.899 3.107l-0.005 0.027-0.987 4.433c-0.030 0.129-0.047 0.277-0.047 0.43 0 0.001 0 0.003 0 0.004v-0 11h-1.333c-0.552 0-1-0.448-1-1v0-18zM11.271 8c-1.426 0-2.62 0.995-2.924 2.329l-0.004 0.020-0.987 4.433c-0.014 0.064-0.023 0.137-0.023 0.212 0 0.002 0 0.004 0 0.006v-0 12c0 1.288 1.045 2.333 2.333 2.333h2c1.289 0 2.333-1.045 2.333-2.333v0-1h4v1c0 1.288 1.045 2.333 2.333 2.333h2c1.289 0 2.333-1.045 2.333-2.333v0-12c0-0.077-0.009-0.152-0.025-0.224l0.001 0.007-0.985-4.433c-0.308-1.354-1.502-2.349-2.928-2.349h-9.459zM10.295 10.783c0.103-0.451 0.501-0.783 0.976-0.783h9.459c0.475 0 0.873 0.332 0.975 0.776l0.001 0.007 0.715 3.217h-12.84l0.715-3.217zM9.333 27v-1h2.667v1c0 0.184-0.149 0.333-0.333 0.333v0h-2c-0.184 0-0.333-0.149-0.333-0.333v0zM22.667 26v1c0 0.184-0.149 0.333-0.333 0.333v0h-2c-0.184 0-0.333-0.149-0.333-0.333v0-1h2.667zM14.333 22h3.333c0.552 0 1 0.448 1 1s-0.448 1-1 1v0h-3.333c-0.552 0-1-0.448-1-1s0.448-1 1-1v0zM13.34 18.667c0 0.736-0.597 1.333-1.333 1.333s-1.333-0.597-1.333-1.333v0c0-0.736 0.597-1.333 1.333-1.333s1.333 0.597 1.333 1.333v0zM20 20c-0.736 0-1.333-0.597-1.333-1.333s0.597-1.333 1.333-1.333v0c0.736 0 1.333 0.597 1.333 1.333s-0.597 1.333-1.333 1.333v0z"></path>
</svg>
