<!-- Generated by IcoMoon.io -->
<svg version="1.1" xmlns="http://www.w3.org/2000/svg" width="32" height="32" viewBox="0 0 32 32">
<title>vehicle-car-collision-filled</title>
<path d="M15.92 1.371c0.074-0.024 0.159-0.037 0.247-0.037 0.284 0 0.534 0.142 0.685 0.359l0.002 0.003 3.187 4.634 3.975-2.84c0.135-0.097 0.303-0.156 0.485-0.156 0.46 0 0.833 0.373 0.833 0.833 0 0.090-0.014 0.176-0.041 0.258l0.002-0.006-1.657 5.249h4.196c0 0 0 0 0 0 0.46 0 0.833 0.373 0.833 0.833 0 0.206-0.075 0.394-0.198 0.54l0.001-0.001-3.089 3.651 4.28 3.138c0.207 0.153 0.341 0.397 0.341 0.672 0 0.46-0.373 0.833-0.833 0.833-0 0-0 0-0.001 0h-5c-0.46 0-0.833-0.373-0.833-0.833s0.373-0.833 0.833-0.833v0h2.455l-2.947-2.161c-0.207-0.153-0.34-0.397-0.34-0.672 0-0.206 0.075-0.394 0.198-0.539l-0.001 0.001 2.506-2.962h-3.537c-0.46-0-0.833-0.373-0.833-0.833 0-0.090 0.014-0.176 0.040-0.257l-0.002 0.006 1.249-3.954-2.636 1.883c-0.135 0.097-0.303 0.155-0.485 0.155-0.284 0-0.535-0.142-0.685-0.359l-0.002-0.003-2.147-3.122v4.317c0 0.46-0.373 0.833-0.833 0.833s-0.833-0.373-0.833-0.833v0-7c0-0.365 0.237-0.687 0.587-0.796zM4.254 18.172l0.109-0.505h-0.863c-0.46 0-0.833-0.373-0.833-0.833s0.373-0.833 0.833-0.833v0h1.224l0.34-1.573c0.353-1.589 1.75-2.76 3.421-2.76 0 0 0 0 0 0h7.696c0 0 0 0 0 0 1.671 0 3.068 1.171 3.417 2.737l0.004 0.023 0.347 1.602c0.065-0.018 0.14-0.029 0.217-0.029 0 0 0 0 0.001 0h1c0.46 0 0.833 0.373 0.833 0.833s-0.373 0.833-0.833 0.833v0h-0.863l0.109 0.505c0.938 0.375 1.588 1.275 1.588 2.328v0 6c0 0.028-0.001 0.056-0.004 0.083 0.003 0.027 0.004 0.055 0.004 0.083v1.5c0 1.197-0.97 2.167-2.167 2.167v0h-1.667c-1.197 0-2.167-0.97-2.167-2.167v0-0.833h-7.333v0.833c0 1.197-0.97 2.167-2.167 2.167v0h-1.667c-1.197 0-2.167-0.97-2.167-2.167v0-1.5c0-0.028 0.001-0.056 0.004-0.083-0.003-0.025-0.004-0.053-0.004-0.082 0-0 0-0.001 0-0.001v0-6c0-0 0-0 0-0 0-1.052 0.65-1.953 1.571-2.322l0.017-0.006zM6.693 14.779l-0.696 3.221h12.673l-0.697-3.22c-0.184-0.833-0.916-1.447-1.792-1.447h-7.696c0 0-0 0-0 0-0.875 0-1.607 0.613-1.79 1.434l-0.002 0.012zM17.667 28.167c0 0.276 0.224 0.5 0.5 0.5h1.667c0.276 0 0.5-0.224 0.5-0.5v0-0.833h-2.667v0.833zM7 27.333h-2.667v0.833c0 0.276 0.224 0.5 0.5 0.5h1.667c0.276 0 0.5-0.224 0.5-0.5v0-0.833zM7.333 23.333c0.736 0 1.333-0.597 1.333-1.333s-0.597-1.333-1.333-1.333v0c-0.736 0-1.333 0.597-1.333 1.333s0.597 1.333 1.333 1.333v0zM18.667 22c0-0.736-0.597-1.333-1.333-1.333s-1.333 0.597-1.333 1.333v0c0 0.736 0.597 1.333 1.333 1.333s1.333-0.597 1.333-1.333v0zM10.833 22.667c-0.46 0-0.833 0.373-0.833 0.833s0.373 0.833 0.833 0.833v0h3c0.46 0 0.833-0.373 0.833-0.833s-0.373-0.833-0.833-0.833v0h-3z"></path>
</svg>
