<!-- Generated by IcoMoon.io -->
<svg version="1.1" xmlns="http://www.w3.org/2000/svg" width="32" height="32" viewBox="0 0 32 32">
<title>vehicle-truck-bag-filled</title>
<path d="M2.333 6c-0.552 0-1 0.448-1 1v8c0 1.657 1.343 3 3 3h6.667c1.657 0 3-1.343 3-3v-8c0-0.552-0.448-1-1-1h-0.333v-1.333c0-1.841-1.492-3.333-3.333-3.333-0.607 0-1.176 0.162-1.667 0.446-0.49-0.284-1.060-0.446-1.667-0.446-1.841 0-3.333 1.492-3.333 3.333v1.333h-0.333zM9.333 6v-1.333c0-0.464-0.095-0.906-0.266-1.307 0.086-0.017 0.175-0.027 0.266-0.027 0.736 0 1.333 0.597 1.333 1.333v1.333h-1.333zM7.333 4.667v1.333h-2.667v-1.333c0-0.736 0.597-1.333 1.333-1.333s1.333 0.597 1.333 1.333zM2.667 23v-3.999c0.513 0.214 1.076 0.332 1.667 0.332h6.667c2.393 0 4.333-1.94 4.333-4.333v-8c0-0.931-0.545-1.734-1.333-2.109v-0.225c0-0.226-0.016-0.449-0.047-0.667h5.047c1.657 0 3 1.343 3 3v1h2.068c1.159 0 2.215 0.668 2.711 1.716l2.266 4.783c0.19 0.401 0.289 0.84 0.289 1.284v7.217c0 1.657-1.343 3-3 3h-2.389c-0.317 1.892-1.963 3.333-3.945 3.333s-3.627-1.441-3.945-3.333h-2.777c-0.317 1.892-1.963 3.333-3.945 3.333-1.986 0-3.635-1.448-3.947-3.346-1.525-0.141-2.72-1.425-2.72-2.987zM27.333 20.667h-1.667c-0.552 0-1 0.448-1 1s0.448 1 1 1h1.667v-2zM26.911 14.667l-1.94-4.095c-0.165-0.349-0.517-0.572-0.904-0.572h-2.068v4.667h4.911zM9.333 27.333c1.105 0 2-0.895 2-2s-0.895-2-2-2c-1.105 0-2 0.895-2 2s0.895 2 2 2zM22 25.333c0-1.105-0.895-2-2-2s-2 0.895-2 2c0 1.105 0.895 2 2 2s2-0.895 2-2zM4.667 4.667c0-0.189 0.040-0.37 0.111-0.533z"></path>
</svg>
