<!-- Generated by IcoMoon.io -->
<svg version="1.1" xmlns="http://www.w3.org/2000/svg" width="32" height="32" viewBox="0 0 32 32">
<title>vehicle-truck-filled</title>
<path d="M4 7c0-1.657 1.343-3 3-3h18c1.657 0 3 1.343 3 3v18c0 0.552-0.448 1-1 1h-1.333v-11c0-0.146-0.016-0.291-0.048-0.434l-0.985-4.434c-0.407-1.83-2.030-3.132-3.905-3.132h-9.458c-1.875 0-3.498 1.302-3.905 3.132l-0.985 4.434c-0.032 0.142-0.048 0.288-0.048 0.434v11h-1.333c-0.552 0-1-0.448-1-1v-18z"></path>
<path d="M11.271 8c-1.406 0-2.624 0.977-2.929 2.349l-0.985 4.434c-0.016 0.071-0.024 0.144-0.024 0.217v12c0 1.289 1.045 2.333 2.333 2.333h2c1.289 0 2.333-1.045 2.333-2.333v-1h4v1c0 1.289 1.045 2.333 2.333 2.333h2c1.289 0 2.333-1.045 2.333-2.333v-12c0-0.073-0.008-0.146-0.024-0.217l-0.985-4.434c-0.305-1.373-1.523-2.349-2.929-2.349h-9.458zM10.295 10.783c0.102-0.458 0.507-0.783 0.976-0.783h9.458c0.469 0 0.875 0.326 0.976 0.783l0.715 3.217h-12.84l0.715-3.217zM9.333 27v-1h2.667v1c0 0.184-0.149 0.333-0.333 0.333h-2c-0.184 0-0.333-0.149-0.333-0.333zM22.667 26v1c0 0.184-0.149 0.333-0.333 0.333h-2c-0.184 0-0.333-0.149-0.333-0.333v-1h2.667zM14.333 22h3.333c0.552 0 1 0.448 1 1s-0.448 1-1 1h-3.333c-0.552 0-1-0.448-1-1s0.448-1 1-1zM13.341 18.667c0 0.736-0.597 1.333-1.333 1.333s-1.333-0.597-1.333-1.333c0-0.736 0.597-1.333 1.333-1.333s1.333 0.597 1.333 1.333zM20 20c-0.736 0-1.333-0.597-1.333-1.333s0.597-1.333 1.333-1.333c0.736 0 1.333 0.597 1.333 1.333s-0.597 1.333-1.333 1.333z"></path>
</svg>
