<!-- Generated by IcoMoon.io -->
<svg version="1.1" xmlns="http://www.w3.org/2000/svg" width="32" height="32" viewBox="0 0 32 32">
<title>vehicle-car-collision-filled</title>
<path d="M16.459 3.057c-0.261-0.339-0.709-0.475-1.115-0.337s-0.678 0.519-0.678 0.947v6c0 0.552 0.448 1 1 1s1-0.448 1-1v-3.060l1.541 2.003c0.317 0.412 0.896 0.512 1.333 0.231l2.28-1.466-1.103 3.308c-0.102 0.305-0.051 0.64 0.137 0.901s0.49 0.415 0.811 0.415h4.252l-1.626 1.626c-0.346 0.346-0.391 0.891-0.107 1.288l2.204 3.085h-2.057c-0.552 0-1 0.448-1 1s0.448 1 1 1h4c0.375 0 0.718-0.209 0.889-0.542s0.142-0.734-0.075-1.039l-2.841-3.977 2.734-2.734c0.286-0.286 0.372-0.716 0.217-1.090s-0.519-0.617-0.924-0.617h-5.279l1.561-4.684c0.134-0.402-0-0.846-0.335-1.106s-0.798-0.281-1.154-0.052l-3.894 2.503-2.773-3.605zM3.817 18.333h-0.15c-0.552 0-1-0.448-1-1s0.448-1 1-1h1.024l0.354-1.886c0.266-1.419 1.505-2.447 2.949-2.447h8.112c1.377 0 2.577 0.937 2.91 2.272l0.515 2.061h0.802c0.552 0 1 0.448 1 1s-0.448 1-1 1h-0.15c0.708 0.669 1.15 1.616 1.15 2.667v6.333c0 1.105-0.895 2-2 2s-2-0.895-2-2v-0.667h-10.667v0.667c0 1.105-0.895 2-2 2s-2-0.895-2-2v-6.333c0-1.051 0.442-1.998 1.15-2.667zM7.010 14.816l-0.472 2.518h11.128c0-0.054 0.004-0.108 0.013-0.16l-0.604-2.416c-0.111-0.445-0.511-0.757-0.97-0.757h-8.112c-0.481 0-0.894 0.343-0.983 0.816zM17.333 22c0-0.736-0.597-1.333-1.333-1.333s-1.333 0.597-1.333 1.333c0 0.736 0.597 1.333 1.333 1.333s1.333-0.597 1.333-1.333zM8 23.333c0.736 0 1.333-0.597 1.333-1.333s-0.597-1.333-1.333-1.333c-0.736 0-1.333 0.597-1.333 1.333s0.597 1.333 1.333 1.333z"></path>
</svg>
