<!-- Generated by IcoMoon.io -->
<svg version="1.1" xmlns="http://www.w3.org/2000/svg" width="32" height="32" viewBox="0 0 32 32">
<title>vehicle-ship-filled</title>
<path d="M11.667 2.667c-0.552 0-1 0.448-1 1v0 3h-3c-0.552 0-1 0.448-1 1v0 6.352l-1.947 0.713c-0.387 0.144-0.657 0.51-0.657 0.939 0 0.153 0.034 0.297 0.095 0.427l-0.003-0.006 3.113 6.692c0.219-0.075 0.47-0.118 0.732-0.118 1.042 0 1.924 0.683 2.223 1.625l0.005 0.017c0 0.005 0.005 0.017 0.012 0.036 0.133 0.352 0.302 0.657 0.507 0.933l-0.007-0.010c0.368 0.489 0.752 0.733 1.259 0.733s0.891-0.243 1.257-0.733c0.205-0.275 0.378-0.592 0.504-0.931l0.008-0.026c0.304-0.96 1.187-1.644 2.229-1.644 1.040 0 1.921 0.68 2.222 1.62l0.005 0.017 0.013 0.037c0.135 0.353 0.305 0.659 0.511 0.935l-0.007-0.010c0.369 0.493 0.755 0.735 1.257 0.735s0.887-0.243 1.257-0.733c0.206-0.277 0.38-0.594 0.506-0.935l0.009-0.026c0.305-0.957 1.187-1.638 2.227-1.638 0.299 0 0.584 0.056 0.847 0.159l-0.016-0.005 3.291-6.708c0.065-0.129 0.102-0.28 0.102-0.441 0-0.432-0.274-0.8-0.657-0.94l-0.007-0.002-2.227-0.795v-6.268c0-0.552-0.448-1-1-1v0h-3v-3c0-0.552-0.448-1-1-1v0h-8.667zM19.333 6.667h-6.667v-2h6.667v2zM23.333 8.667v4.555l-5.863-2.092c-0.433-0.159-0.933-0.252-1.455-0.252-0.535 0-1.048 0.097-1.522 0.275l0.030-0.010-5.857 2.143v-4.619h14.667zM24.969 24.752l-0.004-0.013c-0.119-0.429-0.506-0.738-0.965-0.738-0.448 0-0.827 0.294-0.954 0.7l-0.002 0.007v0.003l-0.005 0.012-0.027 0.077c-0.183 0.484-0.416 0.902-0.699 1.28l0.010-0.013c-0.516 0.687-1.252 1.267-2.323 1.267s-1.808-0.58-2.324-1.267c-0.29-0.387-0.532-0.832-0.706-1.31l-0.011-0.036-0.004-0.012c-0.129-0.413-0.508-0.708-0.956-0.708s-0.828 0.295-0.955 0.702l-0.002 0.007v0.001l-0.005 0.013c-0.056 0.162-0.107 0.29-0.165 0.415l0.011-0.028c-0.119 0.264-0.303 0.613-0.56 0.955-0.513 0.687-1.248 1.267-2.323 1.267s-1.811-0.58-2.325-1.267c-0.289-0.386-0.53-0.83-0.702-1.307l-0.011-0.036-0.004-0.015c-0.129-0.414-0.508-0.709-0.957-0.709-0.458 0-0.845 0.308-0.963 0.729l-0.002 0.007-0.028 0.084c-0.169 0.47-0.397 0.877-0.679 1.239l0.007-0.010c-0.512 0.653-1.328 1.284-2.669 1.284-0.552 0-1 0.448-1 1s0.448 1 1 1v0c2.099 0 3.449-1.036 4.244-2.049l0.089-0.119 0.075 0.101c0.736 0.98 2 2.067 3.925 2.067s3.189-1.087 3.924-2.067l0.076-0.104 0.077 0.105c0.736 0.979 2 2.065 3.923 2.065s3.187-1.087 3.923-2.067l0.073-0.1c0.028 0.040 0.057 0.077 0.088 0.116 0.793 1.015 2.147 2.051 4.249 2.051 0.552 0 1-0.448 1-1s-0.448-1-1-1v0c-1.349 0-2.164-0.631-2.673-1.283-0.289-0.371-0.524-0.802-0.682-1.268l-0.009-0.031z"></path>
</svg>
