<!-- Generated by IcoMoon.io -->
<svg version="1.1" xmlns="http://www.w3.org/2000/svg" width="32" height="32" viewBox="0 0 32 32">
<title>video-switch-filled</title>
<path d="M5.333 7.667c0-2.025 1.642-3.667 3.667-3.667v0h7.333c2.025 0 3.667 1.642 3.667 3.667v0 8.667c0 2.025-1.642 3.667-3.667 3.667v0h-7.333c-2.025 0-3.667-1.642-3.667-3.667v0-8.667zM5.592 19.993c-0.562 0.188-1.042 0.404-1.497 0.661l0.042-0.022c-0.667 0.384-1.471 1.035-1.471 2.035s0.804 1.651 1.471 2.035c0.741 0.427 1.748 0.777 2.905 1.059 2.312 0.561 5.447 0.901 8.876 0.907l-0.955 0.956c-0.166 0.178-0.268 0.418-0.268 0.682 0 0.552 0.448 1 1 1 0.264 0 0.504-0.102 0.682-0.269l-0.001 0.001 2.663-2.663c0.181-0.181 0.292-0.431 0.292-0.707s-0.112-0.526-0.292-0.707l-2.661-2.667c-0.181-0.181-0.431-0.294-0.708-0.294-0.552 0-1 0.448-1 1 0 0.276 0.112 0.526 0.292 0.707v0l0.96 0.96c-3.32-0.005-6.289-0.336-8.407-0.851-1.076-0.261-1.875-0.557-2.381-0.848-0.159-0.086-0.296-0.186-0.418-0.302l0.001 0.001c0.061-0.064 0.183-0.167 0.417-0.301 0.507-0.291 1.307-0.587 2.381-0.848 0.304-0.075 0.627-0.145 0.964-0.211-1.126-0.119-2.122-0.597-2.891-1.316l0.003 0.003zM18.697 20.74c2.251 0.125 4.245 0.401 5.787 0.777 1.076 0.261 1.875 0.557 2.381 0.848 0.233 0.135 0.355 0.237 0.417 0.301-0.006 0.006-0.013 0.012-0.019 0.018l-0.001 0.001c-0.136 0.129-0.388 0.3-0.8 0.487-0.82 0.372-2.057 0.715-3.629 0.979-0.477 0.082-0.835 0.493-0.835 0.987 0 0.553 0.448 1.001 1.001 1.001 0.059 0 0.116-0.005 0.172-0.015l-0.006 0.001c1.651-0.279 3.080-0.657 4.123-1.131 0.519-0.235 0.995-0.516 1.356-0.861 0.363-0.347 0.689-0.84 0.689-1.465 0-1-0.804-1.651-1.471-2.035-0.741-0.427-1.748-0.777-2.905-1.059-1.233-0.3-2.7-0.536-4.321-0.693-0.472 0.786-1.129 1.418-1.912 1.847l-0.026 0.013zM27.345 22.589v0zM26.667 6.995c-0-0.552-0.448-1-1-1-0.237 0-0.455 0.082-0.626 0.22l0.002-0.002-3.711 2.968v5.633l3.711 2.961c0.169 0.136 0.387 0.219 0.624 0.219 0.552 0 1-0.448 1-1v0-10z"></path>
</svg>
