<!-- Generated by IcoMoon.io -->
<svg version="1.1" xmlns="http://www.w3.org/2000/svg" width="32" height="32" viewBox="0 0 32 32">
<title>video-recording-filled</title>
<path d="M16.8 6.4c2.209 0 4 1.791 4 4v0 11.2c0 0 0 0.001 0 0.001 0 1.926-1.361 3.534-3.174 3.915l-0.026 0.005v-5.52c0-3.093-2.507-5.6-5.6-5.6v0h-6.4c-0.859 0-1.672 0.192-2.4 0.539v-4.539c0-2.209 1.791-4 4-4v0h9.6zM22.4 19.331v-6.643l4.432-3.701c0.206-0.173 0.475-0.278 0.768-0.278 0.662 0 1.199 0.536 1.2 1.198v12.269c-0.001 0.662-0.538 1.198-1.2 1.198-0.297 0-0.57-0.108-0.779-0.287l0.002 0.001-4.422-3.757zM1.6 20c0-2.209 1.791-4 4-4v0h6.4c2.209 0 4 1.791 4 4v0 6.4c0 2.209-1.791 4-4 4v0h-6.4c-2.209 0-4-1.791-4-4v0-6.4zM8.032 20.054c-0.114-0.080-0.256-0.127-0.409-0.127-0.111 0-0.216 0.025-0.31 0.070l0.004-0.002c-0.097 0.043-0.18 0.101-0.249 0.173l-0 0c-0.143 0.147-0.232 0.348-0.232 0.57 0 0 0 0.001 0 0.001v-0 4.92c-0 0.002-0 0.005-0 0.008 0 0.22 0.089 0.42 0.232 0.565l-0-0c0.072 0.071 0.155 0.13 0.247 0.174l0.005 0.002c0.088 0.041 0.191 0.065 0.3 0.065 0.077 0 0.152-0.012 0.222-0.035l-0.005 0.001c0.079-0.026 0.148-0.061 0.211-0.104l-0.003 0.002 3.674-2.507c0.111-0.074 0.2-0.174 0.259-0.292l0.002-0.004c0.057-0.112 0.091-0.245 0.091-0.385 0-0.144-0.036-0.28-0.098-0.399l0.002 0.005c-0.065-0.12-0.156-0.218-0.266-0.289l-0.003-0.002-3.674-2.41z"></path>
</svg>
