<!-- Generated by IcoMoon.io -->
<svg version="1.1" xmlns="http://www.w3.org/2000/svg" width="32" height="32" viewBox="0 0 32 32">
<title>video-add-filled</title>
<path d="M21.333 21.667c0 2.393-1.94 4.333-4.333 4.333v0h-0.084c0.267-0.798 0.422-1.716 0.422-2.67 0-4.786-3.88-8.667-8.667-8.667-2.332 0-4.449 0.921-6.007 2.42l0.003-0.003v-6.747c0-2.393 1.94-4.333 4.333-4.333v0h10c2.393 0 4.333 1.94 4.333 4.333v0 11.333zM29.016 7.857c0.197 0.231 0.317 0.533 0.317 0.863 0 0 0 0 0 0.001v-0 14.557c0 0 0 0 0 0 0 0.736-0.597 1.333-1.333 1.333-0.33 0-0.633-0.12-0.866-0.319l0.002 0.002-4.469-3.801v-8.989l4.469-3.799c0.231-0.198 0.534-0.318 0.864-0.318 0.406 0 0.77 0.182 1.014 0.468l0.002 0.002zM16 23.333c0-4.050-3.283-7.333-7.333-7.333s-7.333 3.283-7.333 7.333v0c0 4.050 3.283 7.333 7.333 7.333s7.333-3.283 7.333-7.333v0zM9.333 24l0.001 3.337c0 0.368-0.298 0.667-0.667 0.667s-0.667-0.298-0.667-0.667v0-3.337h-3.34c-0.368 0-0.667-0.298-0.667-0.667s0.298-0.667 0.667-0.667v0h3.339v-3.333c0-0.368 0.298-0.667 0.667-0.667s0.667 0.298 0.667 0.667v0 3.333h3.329c0.368 0 0.667 0.298 0.667 0.667s-0.298 0.667-0.667 0.667v0h-3.329z"></path>
</svg>
