<!-- Generated by IcoMoon.io -->
<svg version="1.1" xmlns="http://www.w3.org/2000/svg" width="32" height="32" viewBox="0 0 32 32">
<title>video-background-effect-filled</title>
<path d="M8 22.584v2.828l-1.255 1.255h-2.827l4.080-4.083zM29.336 19.247v2.829l-4.589 4.591h-0.755v-2.076l5.344-5.344zM11.667 18.667h8.66c1.221 0 2.224 0.939 2.325 2.134l0.001 0.009 0.008 0.191v5.667h-13.327v-5.667c0-1.221 0.938-2.223 2.133-2.325l0.009-0.001 0.192-0.008zM10.695 13.888c0.080 0.772 0.324 1.493 0.697 2.133l-8.725 8.725v-2.829l8.028-8.029zM29.335 13.243v2.831l-5.343 5.347v-0.42l-0.005-0.224c-0.038-0.619-0.225-1.187-0.525-1.679l0.009 0.016 5.863-5.871zM16.075 5.333l-13.408 13.413v-2.828l10.581-10.585h2.827zM29.336 7.243v2.831l-7.556 7.56c-0.335-0.149-0.725-0.252-1.133-0.287l-0.014-0.001-0.307-0.012h-0.8c0.452-0.399 0.832-0.867 1.126-1.389l0.014-0.027 8.669-8.675zM16 9.333c2.209 0 4 1.791 4 4s-1.791 4-4 4v0c-2.209 0-4-1.791-4-4s1.791-4 4-4v0zM10.079 5.333l-7.413 7.413v-2.829l4.587-4.584h2.827zM28.075 5.333l-6.861 6.865c-0.166-0.747-0.467-1.404-0.88-1.976l0.011 0.016 4.903-4.905h2.829zM22.077 5.333l-3.391 3.392c-0.613-0.364-1.337-0.612-2.11-0.694l-0.023-0.002 2.697-2.696h2.828z"></path>
</svg>
