<!-- Generated by IcoMoon.io -->
<svg version="1.1" xmlns="http://www.w3.org/2000/svg" width="32" height="32" viewBox="0 0 32 32">
<title>video-person-star-off-filled</title>
<path d="M4.373 2.96c-0.183-0.196-0.443-0.318-0.732-0.318-0.552 0-1 0.448-1 1 0 0.289 0.122 0.549 0.318 0.731l0.001 0.001 1.307 1.307c-0.959 0.514-1.6 1.509-1.6 2.653 0 0 0 0 0 0v0 15.34c0 1.657 1.343 3 3 3v0h9.667c-0.422-0.983-0.667-2.127-0.667-3.328 0-0.004 0-0.009 0-0.013v0.001c0-0.004 0-0.009 0-0.013 0-1.728 0.508-3.337 1.383-4.687l-0.020 0.034h-4.363l-0.192 0.008c-1.203 0.102-2.141 1.104-2.141 2.325v0l-0.001 3.672h-3.665c-0.552 0-1-0.448-1-1v0-15.339c0-0.552 0.448-1 1-1v0h0.253l6.080 6.081c0.045 2.146 1.773 3.875 3.916 3.919l0.004 0 1.571 1.571c-0.93 1.216-1.49 2.758-1.49 4.431 0 4.050 3.283 7.333 7.333 7.333 1.679 0 3.227-0.564 4.463-1.514l-0.017 0.013c0.156 0.106 0.349 0.169 0.556 0.169 0.552 0 1-0.448 1-1 0-0.277-0.113-0.528-0.294-0.709l-24.668-24.667zM26.315 27.729c-0.138 0.166-0.345 0.271-0.576 0.271-0.175 0-0.335-0.060-0.463-0.16l-1.942-1.471-1.944 1.472c-0.611 0.463-1.432-0.16-1.199-0.907l0.743-2.384-1.944-1.472c-0.611-0.463-0.297-1.468 0.457-1.468h0.749l6.119 6.119zM14.071 9.829l5.435 5.433c0.312-0.557 0.496-1.222 0.496-1.929 0-2.209-1.791-4-4-4-0.708 0-1.373 0.184-1.95 0.507l0.020-0.010zM20.721 16.479l2.268 2.268c0.1-0.051 0.218-0.081 0.343-0.081 0.351 0 0.647 0.235 0.739 0.555l0.001 0.005 0.275 0.879 1.504 1.505h1.368c0.755 0 1.067 1.005 0.457 1.467l-0.203 0.155 2.713 2.713c0.305-0.776 0.482-1.675 0.482-2.616 0-4.050-3.283-7.333-7.333-7.333-0.94 0-1.839 0.177-2.666 0.5l0.050-0.017zM9.573 5.333l2 2h14.752c0.552 0 1 0.448 1 1v0 7.307c0.765 0.402 1.422 0.879 2.003 1.436l-0.003-0.003v-8.74c0-1.656-1.342-2.999-2.999-3h-16.751z"></path>
</svg>
