<!-- Generated by IcoMoon.io -->
<svg version="1.1" xmlns="http://www.w3.org/2000/svg" width="32" height="32" viewBox="0 0 32 32">
<title>video-person-star-filled</title>
<path d="M26.327 5.333c1.657 0 3 1.343 3 3v0 8.74c-0.578-0.554-1.235-1.031-1.953-1.411l-0.047-0.023v-7.307c0-0.552-0.448-1-1-1v0h-20.66c-0.552 0-1 0.448-1 1v0 15.34c0 0.552 0.448 1 1 1l3.665-0.001 0.001-3.672c0-1.221 0.938-2.223 2.133-2.325l0.009-0.001 0.192-0.008h4.363c-0.855 1.316-1.363 2.925-1.363 4.653 0 0.005 0 0.009 0 0.014v-0.001c0 1.184 0.237 2.312 0.667 3.34h-9.667c-1.657 0-3-1.343-3-3v0-15.34c0-1.657 1.343-3 3-3v0h20.66zM16 9.333c2.209 0 4 1.791 4 4s-1.791 4-4 4v0c-2.209 0-4-1.791-4-4s1.791-4 4-4v0zM30.667 23.333c0 4.050-3.283 7.333-7.333 7.333s-7.333-3.283-7.333-7.333v0c0-4.050 3.283-7.333 7.333-7.333s7.333 3.283 7.333 7.333v0zM24.073 19.227c-0.095-0.325-0.39-0.559-0.74-0.559s-0.645 0.234-0.739 0.553l-0.001 0.005-0.743 2.384h-2.404c-0.755 0-1.067 1.005-0.457 1.467l1.944 1.473-0.743 2.383c-0.233 0.748 0.588 1.371 1.199 0.908l1.944-1.472 1.944 1.472c0.611 0.463 1.432-0.16 1.199-0.907l-0.743-2.384 1.944-1.472c0.611-0.463 0.297-1.468-0.457-1.468h-2.404l-0.743-2.383z"></path>
</svg>
