<!-- Generated by IcoMoon.io -->
<svg version="1.1" xmlns="http://www.w3.org/2000/svg" width="32" height="32" viewBox="0 0 32 32">
<title>video-clip-multiple-filled</title>
<path d="M7 4c-2.393 0-4.333 1.94-4.333 4.333v0 12c0 2.393 1.94 4.333 4.333 4.333v0h14c2.393 0 4.333-1.94 4.333-4.333v0-12c0-2.393-1.94-4.333-4.333-4.333v0h-14zM10.667 17.667v-7.332c0-0.552 0.448-1 1-1 0.201 0 0.387 0.059 0.544 0.161l-0.004-0.002 6.157 3.945c0.186 0.12 0.307 0.327 0.307 0.561s-0.121 0.441-0.304 0.56l-0.003 0.002-6.157 3.945c-0.153 0.099-0.339 0.158-0.54 0.158-0.552 0-1-0.448-1-1v-0zM10.333 28c-0.001 0-0.003 0-0.004 0-1.526 0-2.868-0.79-3.639-1.983l-0.010-0.017h14.987c2.761 0 5-2.239 5-5v0-12.987c1.21 0.781 2 2.123 2 3.649 0 0.001 0 0.003 0 0.004v-0 9.333c0 3.867-3.133 7-7 7h-11.333z"></path>
</svg>
