<!-- Generated by IcoMoon.io -->
<svg version="1.1" xmlns="http://www.w3.org/2000/svg" width="32" height="32" viewBox="0 0 32 32">
<title>video-security-filled</title>
<path d="M2.667 8.333c0-2.393 1.94-4.333 4.333-4.333h11.333c2.393 0 4.333 1.94 4.333 4.333v8.667c0 2.393-1.94 4.333-4.333 4.333h-11.333c-2.393 0-4.333-1.94-4.333-4.333v-8.667z"></path>
<path d="M28.826 4.796c0.314 0.178 0.507 0.51 0.507 0.87v14c0 0.36-0.194 0.693-0.507 0.87s-0.698 0.173-1.007-0.013l-3.819-2.291v-11.132l3.819-2.291c0.309-0.185 0.694-0.19 1.007-0.013z"></path>
<path d="M10.847 22.667c-0.425 1.352-1.688 2.333-3.181 2.333h-2.667c-0.552 0-1 0.448-1 1v2.133c0 0.663 0.537 1.2 1.2 1.2h2.592c4.006 0 7.342-2.87 8.064-6.667h-5.008z"></path>
</svg>
