<!-- Generated by IcoMoon.io -->
<svg version="1.1" xmlns="http://www.w3.org/2000/svg" width="32" height="32" viewBox="0 0 32 32">
<title>video-switch-filled</title>
<path d="M5.333 7.667c-0-2.025 1.642-3.667 3.667-3.667h7.333c2.025 0 3.667 1.642 3.667 3.667v8.667c0 2.025-1.642 3.667-3.667 3.667h-7.333c-2.025 0-3.667-1.642-3.667-3.667l-0-8.667z"></path>
<path d="M5.592 19.993c-0.553 0.191-1.045 0.403-1.455 0.639-0.667 0.383-1.471 1.035-1.471 2.035s0.804 1.651 1.471 2.035c0.742 0.427 1.748 0.777 2.905 1.058 2.312 0.562 5.447 0.902 8.877 0.907l-0.956 0.956c-0.391 0.391-0.391 1.024 0 1.414s1.024 0.391 1.414 0l2.663-2.663c0.39-0.39 0.391-1.023 0.001-1.414l-2.663-2.667c-0.39-0.391-1.023-0.391-1.414-0.001s-0.391 1.023-0.001 1.414l0.959 0.96c-3.319-0.005-6.289-0.335-8.406-0.85-1.075-0.261-1.874-0.557-2.381-0.849-0.234-0.135-0.356-0.237-0.417-0.301 0.062-0.064 0.183-0.166 0.417-0.301 0.507-0.291 1.306-0.587 2.381-0.849 0.304-0.074 0.627-0.144 0.965-0.21-1.111-0.115-2.114-0.593-2.888-1.314z"></path>
<path d="M18.697 20.74c2.252 0.125 4.246 0.402 5.788 0.777 1.075 0.261 1.874 0.557 2.381 0.849 0.233 0.134 0.355 0.237 0.417 0.3-0.006 0.006-0.013 0.013-0.020 0.020-0.135 0.129-0.388 0.3-0.8 0.486-0.819 0.371-2.057 0.715-3.628 0.979-0.545 0.091-0.912 0.607-0.821 1.152s0.607 0.912 1.152 0.821c1.651-0.277 3.080-0.657 4.123-1.129 0.518-0.235 0.995-0.517 1.356-0.862 0.363-0.347 0.689-0.839 0.689-1.465 0-1-0.804-1.651-1.471-2.035-0.742-0.426-1.748-0.777-2.905-1.058-1.233-0.3-2.7-0.537-4.322-0.693-0.464 0.782-1.136 1.427-1.939 1.859zM27.346 22.59c0.002-0.003 0.002-0.005 0.002-0.005l-0.002 0.005z"></path>
<path d="M26.667 6.995c0-0.384-0.22-0.735-0.567-0.901s-0.758-0.12-1.058 0.12l-3.71 2.968v5.633l3.711 2.962c0.3 0.24 0.711 0.286 1.057 0.119s0.566-0.517 0.566-0.901v-10z"></path>
</svg>
