<!-- Generated by IcoMoon.io -->
<svg version="1.1" xmlns="http://www.w3.org/2000/svg" width="32" height="32" viewBox="0 0 32 32">
<title>video-person-call-filled</title>
<path d="M24.014 16.327l0.671-1.583c0.315-0.742 1.069-1.146 1.808-0.992l0.158 0.042 0.84 0.269c0.833 0.266 1.471 0.98 1.677 1.876 0.49 2.13-0.098 4.724-1.763 7.781-1.662 3.052-3.485 4.888-5.466 5.506-0.769 0.24-1.596 0.066-2.218-0.456l-0.164-0.151-0.638-0.641c-0.553-0.555-0.667-1.434-0.296-2.121l0.094-0.155 0.962-1.413c0.378-0.556 1.026-0.819 1.65-0.686l0.169 0.046 1.776 0.592c0.709-0.536 1.3-1.211 1.773-2.025 0.405-0.698 0.671-1.405 0.796-2.121l0.051-0.359-1.479-1.403c-0.487-0.462-0.664-1.182-0.465-1.83l0.064-0.175zM26.327 5.333c1.657 0 3 1.343 3 3l0.001 5.305c-0.337-0.317-0.73-0.573-1.165-0.75l-0.266-0.096-0.57-0.183 0.001-4.276c0-0.552-0.448-1-1-1h-20.661c-0.552 0-1 0.448-1 1v15.339c0 0.552 0.448 1 1 1l3.665-0.001 0.001-3.672c0-1.224 0.943-2.228 2.142-2.326l0.191-0.008h8.66c1.224 0 2.228 0.943 2.326 2.142l0.008 0.191-0.001 1.629-0.739-0.246-0.221-0.064c-1.108-0.275-2.267 0.132-2.985 1.032l-0.138 0.187-0.962 1.413-0.131 0.209c-0.268 0.469-0.403 0.991-0.41 1.512l-11.408 0c-1.657 0-3-1.343-3-3v-15.339c0-1.657 1.343-3 3-3h20.661zM16 9.334c2.209 0 4 1.791 4 4s-1.791 4-4 4-4-1.791-4-4c0-2.209 1.791-4 4-4z"></path>
</svg>
