<!-- Generated by IcoMoon.io -->
<svg version="1.1" xmlns="http://www.w3.org/2000/svg" width="32" height="32" viewBox="0 0 32 32">
<title>video-person-filled</title>
<path d="M20 13.333c0 2.209-1.791 4-4 4s-4-1.791-4-4v0c0-2.209 1.791-4 4-4s4 1.791 4 4v0zM2.667 7.833c0-1.381 1.119-2.5 2.5-2.5v0h21.667c1.381 0 2.5 1.119 2.5 2.5v0 16.333c0 1.381-1.119 2.5-2.5 2.5v0h-21.667c-1.381 0-2.5-1.119-2.5-2.5v0-16.333zM5.167 7c-0.46 0-0.833 0.373-0.833 0.833v16.333c0 0.46 0.373 0.833 0.833 0.833h4.167v-4.167c0-1.197 0.97-2.167 2.167-2.167v0h9c1.197 0 2.167 0.97 2.167 2.167v0 4.167h4.167c0.46 0 0.833-0.373 0.833-0.833v-16.333c0-0.46-0.373-0.833-0.833-0.833h-21.667z"></path>
</svg>
