<!-- Generated by IcoMoon.io -->
<svg version="1.1" xmlns="http://www.w3.org/2000/svg" width="32" height="32" viewBox="0 0 32 32">
<title>video-people-filled</title>
<path d="M6.001 7.5c0-2.485 2.015-4.5 4.5-4.5v0h15c2.485 0 4.5 2.015 4.5 4.5v0 10c0 2.485-2.015 4.5-4.5 4.5v0h-6.309c-0.6-1.316-1.876-2.17-3.192-2.422v-1.578c0-1.657 1.343-3 3-3v0h5c1.657 0 3 1.343 3 3v0 1.5c0.61-0.46 1.001-1.184 1.001-1.999 0-0 0-0.001 0-0.001v0-10c0-1.381-1.119-2.5-2.5-2.5v0h-15c-1.381 0-2.5 1.119-2.5 2.5v0 0.314c-0.766 0.252-1.43 0.613-2.014 1.072l0.014-0.011v-1.376zM15.191 21c0.883 0.002 1.676 0.387 2.221 0.997l0.003 0.003h-0.001c0.394 0.447 0.634 1.037 0.634 1.683 0 0.067-0.003 0.133-0.008 0.199l0.001-0.009c-0.135 2.074-0.918 3.68-2.403 4.728-1.433 1.011-3.378 1.399-5.639 1.399-2.248 0-4.156-0.384-5.566-1.386-1.458-1.037-2.228-2.619-2.417-4.65-0.163-1.746 1.334-2.964 2.856-2.964h10.318zM21.5 14c1.933 0 3.5-1.567 3.5-3.5s-1.567-3.5-3.5-3.5v0c-1.933 0-3.5 1.567-3.5 3.5s1.567 3.5 3.5 3.5v0zM15 14c0 2.761-2.239 5-5 5s-5-2.239-5-5v0c0-2.761 2.239-5 5-5s5 2.239 5 5v0z"></path>
</svg>
