<!-- Generated by IcoMoon.io -->
<svg version="1.1" xmlns="http://www.w3.org/2000/svg" width="32" height="32" viewBox="0 0 32 32">
<title>video-off-filled</title>
<path d="M4.374 2.96c-0.391-0.391-1.024-0.391-1.414-0s-0.391 1.024-0 1.414l2.089 2.089c-1.413 0.714-2.382 2.179-2.382 3.87v11.333c0 2.393 1.94 4.333 4.333 4.333h10c2.059 0 3.783-1.436 4.224-3.361l6.402 6.402c0.391 0.391 1.024 0.391 1.414 0s0.391-1.024 0-1.414l-24.666-24.667z"></path>
<path d="M22.667 18.424l6.006 6.006c0.395-0.231 0.661-0.661 0.661-1.152v-14.557c0-0.316-0.113-0.622-0.317-0.864-0.477-0.561-1.318-0.629-1.879-0.152l-4.47 3.799v6.92z"></path>
<path d="M10.243 6l11.091 11.091v-6.758c0-2.393-1.94-4.333-4.333-4.333h-6.757z"></path>
</svg>
