<!-- Generated by IcoMoon.io -->
<svg version="1.1" xmlns="http://www.w3.org/2000/svg" width="32" height="32" viewBox="0 0 32 32">
<title>video-prohibited-filled</title>
<path d="M6 6.857c-2.051 0-3.714 1.663-3.714 3.714v0 12c0 2.051 1.663 3.714 3.714 3.714v0h9.345c-0.31-0.851-0.49-1.832-0.49-2.856 0-3.711 2.357-6.871 5.656-8.065l0.060-0.019v-4.774c0-2.051-1.663-3.714-3.714-3.714v0h-10.857zM28.855 10.003v6.79c-1.461-1.205-3.352-1.936-5.413-1.936-0.005 0-0.009 0-0.014 0h0.001c-0.389 0-0.769 0.026-1.143 0.075v-1.79l4.128-4.146c0.899-0.903 2.441-0.266 2.441 1.008zM23.429 30.857c4.103 0 7.429-3.326 7.429-7.429s-3.326-7.429-7.429-7.429v0c-4.103 0-7.429 3.326-7.429 7.429s3.326 7.429 7.429 7.429v0zM23.429 29.143c-0.002 0-0.005 0-0.008 0-1.273 0-2.448-0.418-3.395-1.124l0.015 0.011 7.99-7.99c0.695 0.935 1.113 2.113 1.113 3.389 0 3.156-2.558 5.714-5.714 5.714v0zM26.817 18.827l-7.99 7.99c-0.695-0.935-1.113-2.113-1.113-3.389 0-3.156 2.558-5.714 5.714-5.714 1.275 0 2.453 0.418 3.404 1.124l-0.015-0.011z"></path>
</svg>
