<!-- Generated by IcoMoon.io -->
<svg version="1.1" xmlns="http://www.w3.org/2000/svg" width="32" height="32" viewBox="0 0 32 32">
<title>video-sync-filled</title>
<path d="M20.8 10.4c0-2.209-1.791-4-4-4v0h-9.6c-2.209 0-4 1.791-4 4v0 6.011c1.51-1.254 3.468-2.014 5.603-2.014 4.86 0 8.8 3.94 8.8 8.8 0 0.845-0.119 1.663-0.342 2.437l0.015-0.062c1.994-0.246 3.523-1.93 3.523-3.971v-11.2zM22.4 12.688v6.643l4.422 3.76c0.208 0.178 0.48 0.286 0.778 0.286 0.663 0 1.2-0.537 1.2-1.2 0-0 0-0.001 0-0.001v0-12.267c-0.001-0.662-0.538-1.198-1.2-1.198-0.293 0-0.561 0.105-0.77 0.279l0.002-0.002-4.432 3.699zM1.6 23.2c0 3.976 3.224 7.2 7.2 7.2s7.2-3.224 7.2-7.2v0c0-3.976-3.224-7.2-7.2-7.2s-7.2 3.224-7.2 7.2v0zM12 18.4c0.442 0 0.8 0.358 0.8 0.8v0 2.4c0 0.442-0.358 0.8-0.8 0.8v0h-2.4c-0.442 0-0.8-0.358-0.8-0.8s0.358-0.8 0.8-0.8v0h0.749c-0.43-0.243-0.943-0.391-1.49-0.4l-0.003-0c-0.017-0-0.037-0-0.056-0-0.884 0-1.684 0.358-2.264 0.938l-0 0c-0.142 0.131-0.332 0.211-0.541 0.211-0.442 0-0.8-0.358-0.8-0.8 0-0.209 0.080-0.4 0.212-0.543l-0 0.001c0.869-0.869 2.069-1.406 3.394-1.406 0.883 0 1.711 0.239 2.422 0.655l-0.023-0.012v-0.243c0-0.442 0.358-0.8 0.8-0.8v0zM10.598 27.251c-0.532 0.221-1.15 0.349-1.798 0.349-0.884 0-1.712-0.239-2.423-0.656l0.023 0.012v0.243c0 0.442-0.358 0.8-0.8 0.8s-0.8-0.358-0.8-0.8v0-2.4c0-0.442 0.358-0.8 0.8-0.8v0h2.4c0.442 0 0.8 0.358 0.8 0.8s-0.358 0.8-0.8 0.8v0h-0.749c0.43 0.243 0.943 0.391 1.49 0.4l0.003 0c0.017 0 0.037 0 0.056 0 0.884 0 1.684-0.358 2.264-0.938l0-0c0.142-0.131 0.332-0.211 0.541-0.211 0.442 0 0.8 0.358 0.8 0.8 0 0.209-0.081 0.4-0.212 0.543l0.001-0.001c-0.444 0.444-0.974 0.801-1.563 1.044l-0.032 0.012z"></path>
</svg>
