<!-- Generated by IcoMoon.io -->
<svg version="1.1" xmlns="http://www.w3.org/2000/svg" width="32" height="32" viewBox="0 0 32 32">
<title>video-clip-filled</title>
<path d="M2.667 8.333c0-2.393 1.94-4.333 4.333-4.333v0h18c2.393 0 4.333 1.94 4.333 4.333v0 15.333c0 2.393-1.94 4.333-4.333 4.333v0h-18c-2.393 0-4.333-1.94-4.333-4.333v0-15.333zM12.667 12.512v6.975c0 0.76 0.813 1.243 1.48 0.877l6.381-3.488c0.312-0.173 0.52-0.501 0.52-0.877s-0.208-0.704-0.515-0.875l-0.005-0.003-6.381-3.487c-0.139-0.077-0.304-0.123-0.48-0.123-0.552 0-1 0.448-1 1 0 0 0 0 0 0v0z"></path>
</svg>
