<!-- Generated by IcoMoon.io -->
<svg version="1.1" xmlns="http://www.w3.org/2000/svg" width="32" height="32" viewBox="0 0 32 32">
<title>video-clip-off-filled</title>
<path d="M4.373 2.96c-0.183-0.196-0.443-0.318-0.732-0.318-0.552 0-1 0.448-1 1 0 0.289 0.122 0.549 0.318 0.731l0.001 0.001 0.936 0.936c-0.76 0.778-1.229 1.843-1.229 3.018 0 0.002 0 0.004 0 0.006v-0 15.333c0 2.393 1.94 4.333 4.333 4.333v0h18c0.001 0 0.003 0 0.004 0 0.487 0 0.955-0.081 1.391-0.229l-0.030 0.009 1.26 1.26c0.18 0.174 0.425 0.281 0.695 0.281 0.552 0 1-0.448 1-1 0-0.27-0.107-0.515-0.281-0.695l-24.666-24.666zM17.253 18.667l-3.107 1.697c-0.139 0.077-0.304 0.123-0.48 0.123-0.552 0-1-0.448-1-1 0-0 0-0 0-0v0-5.405l4.587 4.585zM20.528 15.121c0.563 0.307 0.669 1.023 0.319 1.483l8.307 8.307c0.114-0.37 0.18-0.795 0.18-1.236 0-0.003 0-0.006 0-0.008v0-15.333c0-2.393-1.94-4.333-4.333-4.333v0h-16.757l9.717 9.719 2.568 1.403z"></path>
</svg>
