<!-- Generated by IcoMoon.io -->
<svg version="1.1" xmlns="http://www.w3.org/2000/svg" width="32" height="32" viewBox="0 0 32 32">
<title>video-off-filled</title>
<path d="M20.667 21.845l7.244 7.244c0.151 0.151 0.359 0.244 0.589 0.244 0.46 0 0.833-0.373 0.833-0.833 0-0.23-0.093-0.439-0.244-0.589v0l-25-25c-0.151-0.151-0.359-0.244-0.589-0.244-0.46 0-0.833 0.373-0.833 0.833 0 0.23 0.093 0.438 0.244 0.589l2.257 2.257c-1.485 0.659-2.501 2.121-2.501 3.82 0 0 0 0.001 0 0.001v-0 11.667c0 2.301 1.865 4.167 4.167 4.167v0h9.667c0 0 0 0 0 0 2.297 0 4.16-1.859 4.167-4.154v-0.001zM22 18.465l5.107 5.107c1.031 0.373 2.227-0.373 2.227-1.573v-11.997c0-1.389-1.598-2.168-2.693-1.313l-4.641 3.623v6.152zM9.535 6l11.131 11.131v-6.965c0-2.301-1.865-4.167-4.167-4.167v0h-6.965z"></path>
</svg>
