<!-- Generated by IcoMoon.io -->
<svg version="1.1" xmlns="http://www.w3.org/2000/svg" width="32" height="32" viewBox="0 0 32 32">
<title>video-360-off-filled</title>
<path d="M4.566 3.434c-0.145-0.145-0.345-0.235-0.566-0.235-0.442 0-0.801 0.359-0.801 0.801 0 0.221 0.090 0.421 0.235 0.566v0l1.896 1.894c-1.227 0.28-2.13 1.362-2.13 2.655 0 0 0 0.001 0 0.001v-0 13.766c0.001 1.501 1.219 2.718 2.72 2.718 0.153 0 0.302-0.013 0.448-0.037l-0.016 0.002c2.899-0.491 6.24-0.771 9.645-0.771 2.901 0 5.755 0.204 8.548 0.597l-0.321-0.037 3.21 3.211c0.145 0.145 0.345 0.235 0.566 0.235 0.442 0 0.801-0.359 0.801-0.801 0-0.221-0.090-0.421-0.235-0.566l-24-24zM22.39 23.523c-0.272-0.035-0.82-0.086-1.37-0.13l-0.22-0.014v-1.448l1.592 1.592zM19.2 20.331v2.944c-0.956-0.052-2.074-0.082-3.2-0.082s-2.244 0.030-3.355 0.089l0.155-0.007v-4.075c0-0.884 0.716-1.6 1.6-1.6v0h2.069l2.731 2.731zM6.4 23.939v-3.139c0-0.884 0.716-1.6 1.6-1.6v0h3.2v4.179c-1.884 0.147-3.531 0.346-5.157 0.607l0.357-0.047zM8.8 17.6c-0.884 0-1.6-0.716-1.6-1.6s0.716-1.6 1.6-1.6v0c0.884 0 1.6 0.716 1.6 1.6s-0.716 1.6-1.6 1.6v0zM22.594 19.2l-12.258-12.259c5.101 0.48 10.246 0.31 15.315-0.507 0.129-0.022 0.278-0.034 0.43-0.034 1.501 0 2.718 1.217 2.718 2.717v13.766c0 0.707-0.267 1.344-0.701 1.822l-2.499-2.499v-1.408c0-0.884-0.716-1.6-1.6-1.6v0h-1.406zM23.2 17.6c0.884 0 1.6-0.716 1.6-1.6s-0.716-1.6-1.6-1.6v0c-0.884 0-1.6 0.716-1.6 1.6s0.716 1.6 1.6 1.6v0z"></path>
</svg>
