<!-- Generated by IcoMoon.io -->
<svg version="1.1" xmlns="http://www.w3.org/2000/svg" width="32" height="32" viewBox="0 0 32 32">
<title>video-person-off-filled</title>
<path d="M2.96 2.96c0.391-0.391 1.024-0.39 1.414 0l24.666 24.667c0.391 0.391 0.391 1.024 0 1.414s-1.024 0.391-1.414 0l-2.368-2.368h-19.591c-1.657 0-3-1.343-3-3v-15.339c0-1.151 0.648-2.15 1.599-2.653l-1.306-1.306c-0.391-0.391-0.39-1.024 0-1.414zM15.919 17.333c-2.145-0.043-3.875-1.773-3.918-3.918l-6.082-6.082h-0.252c-0.552 0-1 0.448-1 1v15.339c0 0.552 0.448 1 1 1l3.665-0.001 0.001-3.672c0-1.224 0.943-2.228 2.142-2.326l0.191-0.008h5.585l-1.333-1.333z"></path>
<path d="M19.505 15.263l-5.434-5.434c0.572-0.315 1.229-0.495 1.929-0.495 2.209 0 4 1.791 4 4 0 0.699-0.179 1.357-0.495 1.929z"></path>
<path d="M27.327 23.085v-14.752c0-0.552-0.448-1-1-1h-14.751l-2-2h16.751c1.657 0 3 1.343 3 3v15.339c0 0.417-0.085 0.813-0.238 1.174l-1.762-1.762z"></path>
</svg>
