<!-- Generated by IcoMoon.io -->
<svg version="1.1" xmlns="http://www.w3.org/2000/svg" width="32" height="32" viewBox="0 0 32 32">
<title>video-360-filled</title>
<path d="M6.256 5.357c-1.831-0.257-3.589 1.144-3.589 3.065l0 15.158c0 1.921 1.757 3.321 3.588 3.065 0.263-0.037 0.546-0.075 0.848-0.112 2.116-0.264 5.176-0.532 8.897-0.532 4.252 0 7.643 0.349 9.745 0.644 1.831 0.257 3.588-1.144 3.588-3.065v-15.158c0-1.921-1.758-3.322-3.589-3.065-2.101 0.295-5.489 0.644-9.744 0.644s-7.643-0.349-9.744-0.644zM25.333 24.571c-1.245-0.159-2.819-0.322-4.667-0.433v-4.139h3.333c0.736 0 1.333 0.597 1.333 1.333v3.238zM18.666 24.045c-0.846-0.029-1.736-0.045-2.666-0.045s-1.82 0.016-2.666 0.045c-0.001-0.015-0.001-0.030-0.001-0.045v-4c0-0.736 0.597-1.333 1.333-1.333h2.667c0.736 0 1.333 0.597 1.333 1.333v4c0 0.015-0 0.030-0.001 0.045zM11.333 24.139c-1.847 0.111-3.422 0.273-4.667 0.433v-3.238c0-0.736 0.597-1.333 1.333-1.333h3.333v4.139zM16 17.334c-1.105 0-2-0.895-2-2s0.895-2 2-2c1.105 0 2 0.895 2 2s-0.895 2-2 2zM11.333 16.667c0 1.105-0.895 2-2 2s-2-0.895-2-2c0-1.105 0.895-2 2-2s2 0.895 2 2zM24.667 16.667c0 1.105-0.895 2-2 2s-2-0.895-2-2c0-1.105 0.895-2 2-2s2 0.895 2 2z"></path>
</svg>
