<!-- Generated by IcoMoon.io -->
<svg version="1.1" xmlns="http://www.w3.org/2000/svg" width="32" height="32" viewBox="0 0 32 32">
<title>video-filled</title>
<path d="M21.333 21.667c0 2.393-1.94 4.333-4.333 4.333h-10c-2.393 0-4.333-1.94-4.333-4.333v-11.333c0-2.393 1.94-4.333 4.333-4.333h10c2.393 0 4.333 1.94 4.333 4.333v11.333zM29.016 7.858c0.205 0.241 0.317 0.547 0.317 0.864v14.557c0 0.736-0.597 1.333-1.333 1.333-0.316 0-0.622-0.113-0.863-0.317l-4.47-3.8v-8.991l4.47-3.799c0.561-0.477 1.403-0.409 1.879 0.152z"></path>
</svg>
