<!-- Generated by IcoMoon.io -->
<svg version="1.1" xmlns="http://www.w3.org/2000/svg" width="32" height="32" viewBox="0 0 32 32">
<title>video-add-filled</title>
<path d="M21.333 21.667c0 2.393-1.94 4.333-4.333 4.333h-0.085c0.271-0.84 0.418-1.736 0.418-2.667 0-4.787-3.88-8.667-8.667-8.667-2.329 0-4.443 0.918-6 2.413v-6.746c0-2.393 1.94-4.333 4.333-4.333h10c2.393 0 4.333 1.94 4.333 4.333v11.333zM29.016 7.858c0.205 0.241 0.317 0.547 0.317 0.864v14.557c0 0.736-0.597 1.333-1.333 1.333-0.316 0-0.622-0.113-0.863-0.317l-4.47-3.8v-8.991l4.47-3.799c0.561-0.477 1.403-0.409 1.879 0.152zM16 23.333c0-4.050-3.283-7.333-7.333-7.333s-7.333 3.283-7.333 7.333c0 4.050 3.283 7.333 7.333 7.333s7.333-3.283 7.333-7.333zM9.334 24l0.001 3.338c0 0.368-0.298 0.667-0.667 0.667s-0.667-0.298-0.667-0.667l-0.001-3.338h-3.34c-0.368 0-0.666-0.298-0.666-0.667s0.298-0.667 0.666-0.667h3.34l-0.001-3.334c0-0.368 0.298-0.667 0.667-0.667s0.667 0.298 0.667 0.667l0.001 3.334h3.328c0.368 0 0.666 0.299 0.666 0.667s-0.298 0.667-0.666 0.667h-3.328z"></path>
</svg>
