<!-- Generated by IcoMoon.io -->
<svg version="1.1" xmlns="http://www.w3.org/2000/svg" width="32" height="32" viewBox="0 0 32 32">
<title>view-desktop-filled</title>
<path d="M26.332 4c0 0 0 0 0 0 1.585 0 2.882 1.229 2.992 2.785l0.001 0.010 0.007 0.205v14.003c0 0 0 0 0 0 0 1.585-1.229 2.882-2.785 2.992l-0.010 0.001-0.205 0.007h-5.667v3.331h2.335c0.003-0 0.007-0 0.010-0 0.552 0 1 0.448 1 1 0 0.508-0.379 0.927-0.869 0.991l-0.005 0.001-0.136 0.008h-14c-0.552-0-1-0.448-1-1 0-0.504 0.373-0.921 0.858-0.99l0.005-0.001 0.136-0.009h2.332v-3.331h-5.665c-0 0-0 0-0 0-1.585 0-2.882-1.229-2.992-2.785l-0.001-0.010-0.007-0.205v-14.003c0-0 0-0 0-0 0-1.585 1.229-2.882 2.785-2.992l0.010-0.001 0.205-0.007h20.665zM18.664 24.003h-5.333l0.001 3.331h5.333l-0.001-3.331zM24.672 8h-12.005c-0.368 0-0.667 0.298-0.667 0.667v0 10.669c0 0.368 0.298 0.667 0.667 0.667v0h12.005c0.368 0 0.667-0.298 0.667-0.667v0-10.669c0-0.368-0.298-0.667-0.667-0.667v0zM10 8h-2.667c-0.368 0-0.667 0.298-0.667 0.667v0 10.669c0 0.368 0.298 0.667 0.667 0.667v0h2.667c0.368 0 0.667-0.298 0.667-0.667v0-10.669c0-0.368-0.298-0.667-0.667-0.667v0z"></path>
</svg>
