<!-- Generated by IcoMoon.io -->
<svg version="1.1" xmlns="http://www.w3.org/2000/svg" width="32" height="32" viewBox="0 0 32 32">
<title>view-desktop-mobile-filled</title>
<path d="M21 2.667c1.657 0 3 1.343 3 3v20.667c0 1.657-1.343 3-3 3h-10c-1.657 0-3-1.343-3-3v-20.667c0-1.657 1.343-3 3-3h10zM17.667 24h-3.333c-0.552 0-1 0.448-1 1 0 0.506 0.376 0.925 0.864 0.991l0.136 0.009h3.333c0.552 0 1-0.448 1-1s-0.448-1-1-1zM19.333 11.998h-6.667c-0.368 0-0.667 0.298-0.667 0.667v8.001c0 0.368 0.298 0.667 0.667 0.667h6.667c0.368 0 0.667-0.299 0.667-0.667v-8.001c0-0.368-0.299-0.667-0.667-0.667zM19.333 6.667h-6.667c-0.368 0-0.667 0.298-0.667 0.667v2.662c0 0.368 0.298 0.667 0.667 0.667h6.667c0.368 0 0.667-0.298 0.667-0.667v-2.662c0-0.368-0.299-0.667-0.667-0.667z"></path>
</svg>
