<!-- Generated by IcoMoon.io -->
<svg version="1.1" xmlns="http://www.w3.org/2000/svg" width="32" height="32" viewBox="0 0 32 32">
<title>virtual-network-toolbox-filled</title>
<path d="M7.75 11.531c0.139-0.193 0.222-0.434 0.222-0.695 0-0.663-0.537-1.2-1.2-1.2-0.37 0-0.701 0.167-0.921 0.431l-0.002 0.002-4 5.2c-0.155 0.2-0.248 0.455-0.248 0.731s0.093 0.531 0.251 0.734l-0.002-0.003 4 5.2c0.22 0.307 0.576 0.505 0.978 0.505 0.663 0 1.2-0.537 1.2-1.2 0-0.293-0.105-0.561-0.279-0.769l0.002 0.002-3.437-4.469 3.437-4.469zM28.733 17.667c-0.216-1.126-0.878-2.066-1.792-2.646l-0.016-0.010-2.675-3.48c-0.173-0.206-0.277-0.475-0.277-0.767 0-0.663 0.537-1.2 1.2-1.2 0.402 0 0.758 0.198 0.976 0.501l0.002 0.004 4 5.2c0.155 0.2 0.248 0.455 0.248 0.731s-0.093 0.531-0.251 0.734l0.002-0.003-0.837 1.088c-0.161-0.058-0.356-0.111-0.556-0.148l-0.025-0.004zM11.2 16c0 0.884-0.716 1.6-1.6 1.6s-1.6-0.716-1.6-1.6v0c0-0.884 0.716-1.6 1.6-1.6s1.6 0.716 1.6 1.6v0zM16 17.6c0.884 0 1.6-0.716 1.6-1.6s-0.716-1.6-1.6-1.6v0c-0.884 0-1.6 0.716-1.6 1.6s0.716 1.6 1.6 1.6v0zM19.2 19.2v-0.8c0-1.325 1.075-2.4 2.4-2.4v0h3.2c1.325 0 2.4 1.075 2.4 2.4v0 0.8h0.8c1.325 0 2.4 1.075 2.4 2.4v0 2.4h-3.2v-0.8c0-0.442-0.358-0.8-0.8-0.8s-0.8 0.358-0.8 0.8v0 0.8h-4.8v-0.8c0-0.442-0.358-0.8-0.8-0.8s-0.8 0.358-0.8 0.8v0 0.8h-3.2v-2.4c0-1.325 1.075-2.4 2.4-2.4v0h0.8zM20.8 18.4v0.8h4.8v-0.8c0-0.442-0.358-0.8-0.8-0.8v0h-3.2c-0.442 0-0.8 0.358-0.8 0.8v0zM27.2 25.6h3.2v2.4c0 1.325-1.075 2.4-2.4 2.4v0h-9.6c-1.325 0-2.4-1.075-2.4-2.4v0-2.4h3.2v0.8c0 0.442 0.358 0.8 0.8 0.8s0.8-0.358 0.8-0.8v0-0.8h4.8v0.8c0 0.442 0.358 0.8 0.8 0.8s0.8-0.358 0.8-0.8v0-0.8z"></path>
</svg>
