<!-- Generated by IcoMoon.io -->
<svg version="1.1" xmlns="http://www.w3.org/2000/svg" width="32" height="32" viewBox="0 0 32 32">
<title>voicemail-filled</title>
<path d="M8.571 16c0-1.262 1.023-2.286 2.286-2.286s2.286 1.023 2.286 2.286v0c0 1.262-1.023 2.286-2.286 2.286s-2.286-1.023-2.286-2.286v0zM18.857 16c0-1.262 1.023-2.286 2.286-2.286s2.286 1.023 2.286 2.286v0c0 1.262-1.023 2.286-2.286 2.286s-2.286-1.023-2.286-2.286v0z"></path>
<path d="M6.576 4.569c-2.367 0-4.286 1.919-4.286 4.286v0 14.286c0 2.367 1.919 4.286 4.286 4.286v0h18.853c2.367 0 4.286-1.919 4.286-4.286v0-14.286c0-2.367-1.919-4.286-4.286-4.286v0h-18.851zM14.141 13.714c0.449 0.638 0.717 1.43 0.717 2.286 0 2.209-1.791 4-4 4s-4-1.791-4-4c0-2.209 1.79-4 3.999-4h10.286c2.209 0 3.999 1.791 3.999 4s-1.791 4-4 4-4-1.791-4-4c0-0.855 0.269-1.648 0.726-2.298l-0.008 0.013h-3.719z"></path>
</svg>
