<!-- Generated by IcoMoon.io -->
<svg version="1.1" xmlns="http://www.w3.org/2000/svg" width="32" height="32" viewBox="0 0 32 32">
<title>voicemail-arrow-subtract-filled</title>
<path d="M20.8 12.8c0 0 0 0 0 0 1.181 0 2.213 0.64 2.768 1.593l0.008 0.015c1.999 0.085 3.811 0.827 5.238 2.015l-0.014-0.012v-6.811c0-1.767-1.433-3.2-3.2-3.2v0h-19.2c-1.767 0-3.2 1.433-3.2 3.2v0 12.8c0 1.767 1.433 3.2 3.2 3.2v0h8.331c-0.21-0.717-0.331-1.541-0.331-2.392 0-0.003 0-0.005 0-0.008v0c0-0.002 0-0.005 0-0.008 0-2.735 1.25-5.177 3.209-6.788l0.015-0.012c-0.015-0.116-0.023-0.249-0.023-0.385 0-0.591 0.159-1.146 0.436-1.622l-0.008 0.015h-4.058c0.27 0.459 0.429 1.011 0.429 1.6 0 1.767-1.433 3.2-3.2 3.2s-3.2-1.433-3.2-3.2c0-1.767 1.433-3.2 3.2-3.2 0 0 0 0 0 0h9.6zM9.6 16c0-0.884 0.716-1.6 1.6-1.6s1.6 0.716 1.6 1.6v0c0 0.884-0.716 1.6-1.6 1.6s-1.6-0.716-1.6-1.6v0zM30.4 23.2c0 3.976-3.224 7.2-7.2 7.2s-7.2-3.224-7.2-7.2v0c0-3.976 3.224-7.2 7.2-7.2s7.2 3.224 7.2 7.2v0zM19.2 23.2c0 0.442 0.358 0.8 0.8 0.8v0h6.4c0.442 0 0.8-0.358 0.8-0.8s-0.358-0.8-0.8-0.8v0h-6.4c-0.442 0-0.8 0.358-0.8 0.8v0z"></path>
</svg>
