<!-- Generated by IcoMoon.io -->
<svg version="1.1" xmlns="http://www.w3.org/2000/svg" width="32" height="32" viewBox="0 0 32 32">
<title>voicemail-filled</title>
<path d="M26.332 5.333c1.657 0 3 1.343 3 3v15.339c0 1.657-1.343 3-3 3h-20.665c-1.657 0-3-1.343-3-3v-15.339c0-1.657 1.343-3 3-3h20.665zM20.998 12l-10.566 0.007c-2.1 0.122-3.765 1.863-3.765 3.993 0 2.209 1.791 4 4 4s4-1.791 4-4c0-0.624-0.143-1.215-0.398-1.742l-0.137-0.258h3.737c-0.34 0.588-0.535 1.271-0.535 2 0 2.209 1.791 4 4 4s4-1.791 4-4c0-2.13-1.665-3.872-3.765-3.993l-0.235-0.007-0.226 0.006-0.11-0.006zM10.667 14c1.105 0 2 0.895 2 2s-0.895 2-2 2c-1.105 0-2-0.895-2-2s0.895-2 2-2zM21.333 14c1.105 0 2 0.895 2 2s-0.895 2-2 2c-1.105 0-2-0.895-2-2s0.895-2 2-2z"></path>
</svg>
