<!-- Generated by IcoMoon.io -->
<svg version="1.1" xmlns="http://www.w3.org/2000/svg" width="32" height="32" viewBox="0 0 32 32">
<title>voicemail-subtract-filled</title>
<path d="M8 11.5c0-0.828 0.672-1.5 1.5-1.5s1.5 0.672 1.5 1.5v0c0 0.828-0.672 1.5-1.5 1.5s-1.5-0.672-1.5-1.5v0zM18.5 8c0 0 0 0 0 0 1.396 0 2.601 0.817 3.163 1.999l0.009 0.021c1.595 0.098 3.071 0.523 4.389 1.209l-0.061-0.029v-6.2c0-1.657-1.343-3-3-3v0h-18c-1.657 0-3 1.343-3 3v0 13c0 1.657 1.343 3 3 3v0h5c0-3.866 1.994-7.266 5.010-9.228-0.006-0.079-0.010-0.171-0.010-0.264 0-0.547 0.124-1.066 0.345-1.529l-0.009 0.021h-2.672c0.213 0.439 0.338 0.955 0.338 1.5 0 1.933-1.567 3.5-3.5 3.5s-3.5-1.567-3.5-3.5c0-1.932 1.566-3.499 3.498-3.5h9zM17.264 10.65c0.608-0.22 1.242-0.386 1.896-0.496-0.193-0.098-0.421-0.155-0.663-0.155-0.51 0-0.961 0.256-1.23 0.646l-0.003 0.005zM30 21c0 4.971-4.029 9-9 9s-9-4.029-9-9v0c0-4.971 4.029-9 9-9s9 4.029 9 9v0zM26 21c0-0.552-0.448-1-1-1v0h-8c-0.552 0-1 0.448-1 1s0.448 1 1 1v0h8c0.552 0 1-0.448 1-1v0z"></path>
</svg>
