<!-- Generated by IcoMoon.io -->
<svg version="1.1" xmlns="http://www.w3.org/2000/svg" width="32" height="32" viewBox="0 0 32 32">
<title>walkie-talkie-filled</title>
<path d="M12.667 10v4h6.667v-4h-6.667z"></path>
<path d="M11.667 1.333c0.552 0 1 0.448 1 1v1.667h9.667c1.657 0 3 1.343 3 3v11.667c0 0.251-0.095 0.494-0.265 0.678l-1.735 1.879v5.109c0 1.657-1.343 3-3 3h-8.665c-1.657 0-3-1.343-3-3v-5.109l-1.736-1.879c-0.171-0.185-0.265-0.427-0.265-0.679v-11.667c0-1.657 1.343-3 3-3h1v-1.667c0-0.552 0.448-1 1-1zM10.667 9v6c0 0.552 0.448 1 1 1h8.667c0.552 0 1-0.448 1-1v-6c0-0.552-0.448-1-1-1h-8.667c-0.552 0-1 0.448-1 1zM12.667 19.667c0 0.552 0.448 1 1 1h4.667c0.552 0 1-0.448 1-1s-0.448-1-1-1h-4.667c-0.552 0-1 0.448-1 1z"></path>
</svg>
