<!-- Generated by IcoMoon.io -->
<svg version="1.1" xmlns="http://www.w3.org/2000/svg" width="32" height="32" viewBox="0 0 32 32">
<title>wallet-filled</title>
<path d="M4 6.667v17c0 2.393 1.94 4.333 4.333 4.333h16c2.393 0 4.333-1.94 4.333-4.333v-11.333c0-2.049-1.422-3.766-3.333-4.217v-1.116c0-1.657-1.343-3-3-3h-15.333c-1.544 0-2.816 1.167-2.982 2.667h-0.018zM7 8c-0.552 0-1-0.448-1-1s0.448-1 1-1h15.333c0.552 0 1 0.448 1 1v1h-16.333zM21.667 17.333h2.667c0.552 0 1 0.448 1 1s-0.448 1-1 1h-2.667c-0.552 0-1-0.448-1-1s0.448-1 1-1z"></path>
</svg>
