<!-- Generated by IcoMoon.io -->
<svg version="1.1" xmlns="http://www.w3.org/2000/svg" width="32" height="32" viewBox="0 0 32 32">
<title>wallpaper-filled</title>
<path d="M4 8.333c0-2.393 1.94-4.333 4.333-4.333v0h5c0.736 0 1.333 0.597 1.333 1.333s-0.597 1.333-1.333 1.333v0h-5c-0.92 0-1.667 0.747-1.667 1.667v5c0 0.736-0.597 1.333-1.333 1.333s-1.333-0.597-1.333-1.333v0-5zM17.333 5.333c0-0.736 0.597-1.333 1.333-1.333v0h5c2.393 0 4.333 1.94 4.333 4.333v0 5c0 0.736-0.597 1.333-1.333 1.333s-1.333-0.597-1.333-1.333v0-5c0-0.92-0.747-1.667-1.667-1.667h-5c-0.736 0-1.333-0.597-1.333-1.333v0zM5.333 17.333c0.736 0 1.333 0.597 1.333 1.333v0 4.781l6.033-6.033c0.845-0.845 2.011-1.367 3.3-1.367s2.455 0.522 3.3 1.367l6.033 6.033v-4.781c0-0.736 0.597-1.333 1.333-1.333s1.333 0.597 1.333 1.333v0 5c0 2.393-1.94 4.333-4.333 4.333v0h-5c-0.736 0-1.333-0.597-1.333-1.333s0.597-1.333 1.333-1.333v0h4.781l-6.033-6.033c-0.362-0.362-0.862-0.586-1.415-0.586s-1.053 0.224-1.415 0.586l-6.033 6.033h4.781c0.736 0 1.333 0.597 1.333 1.333s-0.597 1.333-1.333 1.333v0h-5c-2.393 0-4.333-1.94-4.333-4.333v0-5c0-0.736 0.597-1.333 1.333-1.333v0zM23.333 11.667c0 1.657-1.343 3-3 3s-3-1.343-3-3v0c0-1.657 1.343-3 3-3s3 1.343 3 3v0z"></path>
</svg>
