<!-- Generated by IcoMoon.io -->
<svg version="1.1" xmlns="http://www.w3.org/2000/svg" width="32" height="32" viewBox="0 0 32 32">
<title>wallpaper-filled</title>
<path d="M19.683 17.502l0.183 0.183 7.467 7.835v-7.188c0-0.552 0.448-1 1-1 0.506 0 0.925 0.376 0.991 0.864l0.009 0.136v7.337c0 1.95-1.522 3.545-3.443 3.66l-0.223 0.007h-7.333c-0.552 0-1-0.448-1-1 0-0.506 0.376-0.925 0.864-0.991l0.136-0.009 7.045-0.001-7.443-7.81c-0.030-0.031-0.060-0.062-0.091-0.091-1.010-0.962-2.579-0.976-3.604-0.068l-0.166 0.16-7.437 7.809 7.029 0.001 0.136 0.009c0.488 0.066 0.864 0.485 0.864 0.991s-0.376 0.925-0.864 0.991l-0.136 0.009-7.557-0.007c-1.844-0.111-3.321-1.585-3.436-3.428l-0.007-0.232v-7.337l0.009-0.136c0.066-0.488 0.485-0.864 0.991-0.864s0.925 0.376 0.991 0.864l0.009 0.136v7.205l7.476-7.85c2.031-2.133 5.407-2.216 7.54-0.185zM13.667 2.665c0.552 0 1 0.448 1 1 0 0.506-0.376 0.925-0.864 0.991l-0.136 0.009h-7.333c-0.863 0-1.573 0.656-1.658 1.496l-0.009 0.17v7.337c0 0.552-0.448 1-1 1-0.506 0-0.925-0.376-0.991-0.864l-0.009-0.136v-7.337c0-1.95 1.522-3.545 3.443-3.66l0.223-0.007h7.333zM25.667 2.665l0.223 0.007c1.844 0.111 3.321 1.585 3.436 3.428l0.007 0.232v7.337l-0.009 0.136c-0.066 0.488-0.485 0.864-0.991 0.864s-0.925-0.376-0.991-0.864l-0.009-0.136v-7.337l-0.009-0.17c-0.080-0.784-0.703-1.408-1.488-1.488l-0.17-0.009h-7.333l-0.136-0.009c-0.488-0.066-0.864-0.485-0.864-0.991s0.376-0.925 0.864-0.991l0.136-0.009h7.333zM21.337 7.999c1.473 0 2.667 1.194 2.667 2.667s-1.194 2.667-2.667 2.667c-1.473 0-2.667-1.194-2.667-2.667s1.194-2.667 2.667-2.667z"></path>
</svg>
