<!-- Generated by IcoMoon.io -->
<svg version="1.1" xmlns="http://www.w3.org/2000/svg" width="32" height="32" viewBox="0 0 32 32">
<title>wand-filled</title>
<path d="M26 4.833c0-0.46-0.373-0.833-0.833-0.833s-0.833 0.373-0.833 0.833v0 1.167h-1.167c-0.46 0-0.833 0.373-0.833 0.833s0.373 0.833 0.833 0.833v0h1.167v1.167c0 0.46 0.373 0.833 0.833 0.833s0.833-0.373 0.833-0.833v0-1.167h1.167c0.46 0 0.833-0.373 0.833-0.833s-0.373-0.833-0.833-0.833v0h-1.167v-1.167zM10 7.5c0-0.46-0.373-0.833-0.833-0.833s-0.833 0.373-0.833 0.833v0 1.167h-1.167c-0.46 0-0.833 0.373-0.833 0.833s0.373 0.833 0.833 0.833v0h1.167v1.167c0 0.46 0.373 0.833 0.833 0.833s0.833-0.373 0.833-0.833v0-1.167h1.167c0.46 0 0.833-0.373 0.833-0.833s-0.373-0.833-0.833-0.833v0h-1.167v-1.167zM22.5 20c0.46 0 0.833 0.373 0.833 0.833v1.167h1.167c0.46 0 0.833 0.373 0.833 0.833s-0.373 0.833-0.833 0.833v0h-1.167v1.167c0 0.46-0.373 0.833-0.833 0.833s-0.833-0.373-0.833-0.833v0-1.167h-1.167c-0.46 0-0.833-0.373-0.833-0.833s0.373-0.833 0.833-0.833v0h1.167v-1.167c0-0.46 0.373-0.833 0.833-0.833zM21.738 10.269c-0.573-0.573-1.365-0.927-2.239-0.927s-1.666 0.354-2.239 0.927l-0.907 0.906 4.479 4.478 0.906-0.905c0.573-0.573 0.928-1.365 0.928-2.239s-0.355-1.666-0.928-2.239v0zM19.654 16.832l-4.479-4.478-11.578 11.578c-0.57 0.573-0.923 1.362-0.923 2.235 0 1.749 1.418 3.167 3.167 3.167 0.872 0 1.662-0.352 2.234-0.923l11.579-11.579z"></path>
</svg>
