<!-- Generated by IcoMoon.io -->
<svg version="1.1" xmlns="http://www.w3.org/2000/svg" width="32" height="32" viewBox="0 0 32 32">
<title>wand-filled</title>
<path d="M15.206 12.62l-11.609 11.618c-1.181 1.182-1.181 3.098 0.001 4.28s3.098 1.181 4.28-0.002l11.608-11.616-4.28-4.28zM22.469 20.009l-0.136-0.009c-0.506 0-0.925 0.376-0.991 0.864l-0.009 0.136v1h-1c-0.506 0-0.925 0.376-0.991 0.864l-0.009 0.136c0 0.506 0.376 0.925 0.864 0.991l0.136 0.009h1v1c0 0.506 0.376 0.925 0.864 0.991l0.136 0.009c0.506 0 0.925-0.376 0.991-0.864l0.009-0.136v-1h1c0.506 0 0.925-0.376 0.991-0.864l0.009-0.136c0-0.506-0.376-0.925-0.864-0.991l-0.136-0.009h-1v-1c0-0.506-0.376-0.925-0.864-0.991v0zM17.751 10.087l-0.181 0.167-0.949 0.95 4.28 4.28 0.949-0.951c1.17-1.172 1.17-3.071-0.001-4.242l-0.209-0.196c-1.116-0.957-2.769-0.959-3.889-0.008zM9.136 6.676l-0.136-0.009c-0.506 0-0.925 0.376-0.991 0.864l-0.009 0.136v1h-1c-0.506 0-0.925 0.376-0.991 0.864l-0.009 0.136c0 0.506 0.376 0.925 0.864 0.991l0.136 0.009h1v1c0 0.506 0.376 0.925 0.864 0.991l0.136 0.009c0.506 0 0.925-0.376 0.991-0.864l0.009-0.136v-1h1c0.506 0 0.925-0.376 0.991-0.864l0.009-0.136c0-0.506-0.376-0.925-0.864-0.991l-0.136-0.009h-1v-1c0-0.506-0.376-0.925-0.864-0.991v0zM25.136 4.009l-0.136-0.009c-0.506 0-0.925 0.376-0.991 0.864l-0.009 0.136v1h-1c-0.506 0-0.925 0.376-0.991 0.864l-0.009 0.136c0 0.506 0.376 0.925 0.864 0.991l0.136 0.009h1v1c0 0.506 0.376 0.925 0.864 0.991l0.136 0.009c0.506 0 0.925-0.376 0.991-0.864l0.009-0.136v-1h1c0.506 0 0.925-0.376 0.991-0.864l0.009-0.136c0-0.506-0.376-0.925-0.864-0.991l-0.136-0.009h-1v-1c0-0.506-0.376-0.925-0.864-0.991v0z"></path>
</svg>
