<!-- Generated by IcoMoon.io -->
<svg version="1.1" xmlns="http://www.w3.org/2000/svg" width="32" height="32" viewBox="0 0 32 32">
<title>warning-filled</title>
<path d="M18.752 4.768c-1.194-2.167-4.309-2.167-5.503 0l-10.563 19.141c-1.155 2.095 0.359 4.661 2.752 4.661h21.122c2.392 0 3.909-2.566 2.752-4.661l-10.56-19.143zM17.143 22.857c0 0.631-0.512 1.143-1.143 1.143s-1.143-0.512-1.143-1.143v0c0-0.631 0.512-1.143 1.143-1.143s1.143 0.512 1.143 1.143v0zM15.143 19.143v-7.429c0-0.473 0.384-0.857 0.857-0.857s0.857 0.384 0.857 0.857v0 7.429c0 0.473-0.384 0.857-0.857 0.857s-0.857-0.384-0.857-0.857v0z"></path>
</svg>
