<!-- Generated by IcoMoon.io -->
<svg version="1.1" xmlns="http://www.w3.org/2000/svg" width="32" height="32" viewBox="0 0 32 32">
<title>warning-filled</title>
<path d="M14.545 3.71c1.386-0.768 3.117-0.322 3.967 0.987l0.11 0.184 10.345 18.678c0.246 0.445 0.376 0.945 0.376 1.454 0 1.588-1.233 2.887-2.795 2.993l-0.205 0.007h-20.688c-0.508 0-1.008-0.129-1.453-0.375-1.386-0.768-1.926-2.472-1.268-3.887l0.097-0.191 10.342-18.678c0.273-0.492 0.678-0.898 1.171-1.171zM16.001 21.336c-0.735 0-1.331 0.596-1.331 1.331s0.596 1.332 1.331 1.332c0.735 0 1.332-0.596 1.332-1.332s-0.596-1.331-1.332-1.331zM15.998 10.664c-0.684 0-1.247 0.515-1.324 1.178l-0.009 0.155 0.002 6.668 0.009 0.155c0.077 0.663 0.641 1.178 1.325 1.177s1.247-0.515 1.324-1.178l0.009-0.155-0.002-6.668-0.009-0.155c-0.077-0.663-0.641-1.178-1.325-1.177z"></path>
</svg>
