<!-- Generated by IcoMoon.io -->
<svg version="1.1" xmlns="http://www.w3.org/2000/svg" width="32" height="32" viewBox="0 0 32 32">
<title>warning-shield-filled</title>
<path d="M12.298 2.963l-10.494 19.080c-0.187 0.334-0.297 0.732-0.297 1.157 0 1.325 1.075 2.4 2.4 2.4 0 0 0.001 0 0.001 0h12.694c-0.347-1.006-0.562-2.166-0.593-3.372l-0-0.015v-0.013l-0.008-0.451v-4.016c0-1.189 0.942-2.266 2.24-2.266 1.426 0 2.768-0.562 4.088-1.912l-5.824-10.592c-0.416-0.747-1.202-1.244-2.103-1.244s-1.687 0.497-2.097 1.232l-0.006 0.012zM14.4 9.2c0.663 0 1.2 0.537 1.2 1.2v0 6.4c0 0.663-0.537 1.2-1.2 1.2s-1.2-0.537-1.2-1.2v0-6.4c0-0.663 0.537-1.2 1.2-1.2v0zM15.6 20.4c0 0.663-0.537 1.2-1.2 1.2s-1.2-0.537-1.2-1.2v0c0-0.663 0.537-1.2 1.2-1.2s1.2 0.537 1.2 1.2v0z"></path>
<path d="M27.2 16.555c-0.611-0.263-1.137-0.575-1.617-0.944l0.017 0.013c-0.422-0.323-0.796-0.66-1.142-1.023l-0.004-0.004c-0.114-0.12-0.275-0.195-0.453-0.195s-0.339 0.075-0.453 0.195l-0 0c-1.592 1.656-3.352 2.47-5.309 2.47-0.355 0.009-0.64 0.299-0.64 0.656 0 0.004 0 0.008 0 0.012v-0.001 4l0.006 0.426c0.043 1.275 0.278 2.422 0.704 3.44 0.55 1.299 1.402 2.379 2.47 3.186l0.019 0.014c0.838 0.64 1.84 1.163 2.998 1.566 0.061 0.021 0.13 0.034 0.203 0.034s0.143-0.012 0.208-0.035l-0.004 0.001c4.096-1.424 6.197-4.339 6.197-8.63v-4.002l-0.014-0.134c-0.056-0.302-0.314-0.528-0.627-0.533h-0.001c-0.010 0-0.022 0-0.034 0-0.912 0-1.78-0.188-2.568-0.528l0.042 0.016z"></path>
</svg>
