<!-- Generated by IcoMoon.io -->
<svg version="1.1" xmlns="http://www.w3.org/2000/svg" width="32" height="32" viewBox="0 0 32 32">
<title>washer-filled</title>
<path d="M10.5 18.167c0-0.002 0-0.004 0-0.006 0-3.038 2.462-5.5 5.5-5.5 2.53 0 4.662 1.709 5.303 4.036l0.009 0.039-0.066 0.071c-0.308 0.331-0.627 0.673-1.213 0.926-0.709 0.307-1.879 0.489-3.898-0.016-2.253-0.563-3.771-0.228-4.833 0.43-0.29 0.183-0.543 0.38-0.773 0.6l0.002-0.002c-0.019-0.173-0.030-0.374-0.030-0.577 0-0 0-0 0-0.001v0zM4 8c0-2.209 1.791-4 4-4v0h16c2.209 0 4 1.791 4 4v0 16c0 2.209-1.791 4-4 4v0h-16c-2.209 0-4-1.791-4-4v0-16zM10.667 9.5c0.736 0 1.333-0.597 1.333-1.333s-0.597-1.333-1.333-1.333v0c-0.736 0-1.333 0.597-1.333 1.333s0.597 1.333 1.333 1.333v0zM16 8.167c0 0.46 0.373 0.833 0.833 0.833h5c0.46 0 0.833-0.373 0.833-0.833s-0.373-0.833-0.833-0.833v0h-5c-0.46 0-0.833 0.373-0.833 0.833zM16 11c-3.958 0-7.167 3.209-7.167 7.167s3.209 7.167 7.167 7.167 7.167-3.209 7.167-7.167-3.209-7.167-7.167-7.167z"></path>
</svg>
