<!-- Generated by IcoMoon.io -->
<svg version="1.1" xmlns="http://www.w3.org/2000/svg" width="32" height="32" viewBox="0 0 32 32">
<title>water-filled</title>
<path d="M24.667 5.333c0.422 0 0.783 0.261 0.93 0.631l0.002 0.007c0.367 0.942 0.927 1.635 1.48 2.085 0.584 0.475 1.068 0.611 1.255 0.611 0.552 0 1 0.448 1 1s-0.448 1-1 1v0c-0.813 0-1.731-0.421-2.516-1.059-0.434-0.357-0.813-0.755-1.139-1.195l-0.013-0.018c-1.105 1.474-2.684 2.267-4.332 2.267s-3.228-0.793-4.333-2.269c-1.105 1.475-2.685 2.269-4.333 2.269-1.647 0-3.227-0.793-4.332-2.267-0.339 0.458-0.718 0.857-1.141 1.204l-0.012 0.009c-0.785 0.639-1.702 1.057-2.515 1.057-0.552 0-1-0.448-1-1s0.448-1 1-1v0c0.187 0 0.671-0.136 1.255-0.609 0.553-0.449 1.113-1.141 1.48-2.085 0.149-0.376 0.51-0.638 0.932-0.638s0.783 0.261 0.93 0.631l0.002 0.007c0.731 1.883 2.127 2.691 3.401 2.691s2.67-0.808 3.401-2.691c0.149-0.376 0.51-0.638 0.932-0.638s0.783 0.261 0.93 0.631l0.002 0.007c0.731 1.883 2.127 2.691 3.401 2.69s2.67-0.808 3.401-2.691c0.149-0.377 0.51-0.638 0.932-0.638v0zM24.667 13.333c0.422 0 0.783 0.261 0.93 0.631l0.002 0.007c0.367 0.942 0.927 1.635 1.48 2.085 0.584 0.475 1.068 0.611 1.255 0.611 0.552 0 1 0.448 1 1s-0.448 1-1 1v0c-0.813 0-1.731-0.421-2.516-1.059-0.434-0.357-0.813-0.755-1.139-1.195l-0.013-0.018c-1.105 1.474-2.684 2.267-4.332 2.268s-3.228-0.794-4.333-2.269c-1.105 1.475-2.685 2.269-4.333 2.269-1.647 0-3.227-0.793-4.332-2.267-0.339 0.458-0.718 0.857-1.141 1.204l-0.012 0.009c-0.785 0.639-1.702 1.057-2.515 1.057-0.552 0-1-0.448-1-1s0.448-1 1-1v0c0.187 0 0.671-0.136 1.255-0.609 0.553-0.449 1.113-1.141 1.48-2.085 0.149-0.376 0.51-0.638 0.932-0.638s0.783 0.261 0.929 0.63l0.002 0.007c0.731 1.883 2.127 2.691 3.401 2.691s2.67-0.808 3.401-2.691c0.149-0.376 0.51-0.638 0.932-0.638s0.783 0.261 0.93 0.631l0.002 0.007c0.731 1.883 2.127 2.691 3.401 2.691s2.67-0.809 3.401-2.691c0.149-0.377 0.51-0.638 0.932-0.638v0zM25.599 21.971c0.367 0.942 0.927 1.635 1.48 2.085 0.584 0.475 1.068 0.611 1.255 0.611 0.552 0 1 0.448 1 1s-0.448 1-1 1v0c-0.813 0-1.731-0.421-2.516-1.059-0.434-0.357-0.813-0.755-1.139-1.195l-0.013-0.018c-1.105 1.474-2.684 2.267-4.332 2.267s-3.228-0.793-4.333-2.269c-1.105 1.475-2.685 2.269-4.333 2.269-1.647 0-3.227-0.793-4.332-2.267-0.339 0.458-0.718 0.857-1.141 1.204l-0.012 0.009c-0.785 0.639-1.702 1.057-2.515 1.057-0.552 0-1-0.448-1-1s0.448-1 1-1v0c0.187 0 0.671-0.136 1.255-0.609 0.553-0.449 1.113-1.141 1.48-2.085 0.149-0.376 0.51-0.638 0.932-0.638s0.783 0.261 0.929 0.63l0.002 0.007c0.731 1.883 2.127 2.691 3.401 2.691s2.67-0.808 3.401-2.691c0.149-0.376 0.51-0.638 0.932-0.638s0.783 0.261 0.93 0.631l0.002 0.007c0.731 1.883 2.127 2.691 3.401 2.69s2.67-0.808 3.401-2.691c0.149-0.376 0.51-0.638 0.932-0.638s0.783 0.261 0.93 0.631l0.002 0.007z"></path>
</svg>
