<!-- Generated by IcoMoon.io -->
<svg version="1.1" xmlns="http://www.w3.org/2000/svg" width="32" height="32" viewBox="0 0 32 32">
<title>weather-sunny-low-filled</title>
<path d="M16 8.72c4.020 0 7.28 3.26 7.28 7.28 0 0.455-0.043 0.901-0.123 1.333h5.343c0.46 0 0.833 0.373 0.833 0.833s-0.373 0.833-0.833 0.833v0h-25c-0.46 0-0.833-0.373-0.833-0.833s0.373-0.833 0.833-0.833v0h5.342c-0.078-0.4-0.122-0.86-0.122-1.331 0-0.001 0-0.002 0-0.002v0c0-4.020 3.26-7.28 7.28-7.28zM7.67 6.536l0.068 0.061 1.432 1.432c0.151 0.151 0.244 0.359 0.244 0.589 0 0.46-0.373 0.833-0.833 0.833-0.198 0-0.38-0.069-0.523-0.185l0.002 0.001-0.068-0.061-1.432-1.432c-0.151-0.151-0.244-0.359-0.244-0.589 0-0.46 0.373-0.833 0.833-0.833 0.198 0 0.38 0.069 0.523 0.185l-0.002-0.001zM25.429 6.597c0.151 0.151 0.244 0.359 0.244 0.589 0 0.198-0.069 0.38-0.185 0.523l0.001-0.002-0.061 0.068-1.432 1.432c-0.151 0.151-0.359 0.244-0.589 0.244-0.46 0-0.833-0.373-0.833-0.833 0-0.198 0.069-0.38 0.185-0.523l-0.001 0.002 0.061-0.068 1.432-1.432c0.151-0.151 0.359-0.244 0.589-0.244s0.439 0.093 0.589 0.244v0zM16 2.665c0.432 0 0.787 0.328 0.829 0.748l0.004 0.085v2.025c-0.002 0.459-0.374 0.83-0.833 0.83-0.429 0-0.783-0.325-0.828-0.742l-0-0.004-0.005-0.085v-2.025c0-0.46 0.373-0.833 0.833-0.833zM14.167 25.333c-0.46 0-0.833 0.373-0.833 0.833s0.373 0.833 0.833 0.833v0h3.667c0.46 0 0.833-0.373 0.833-0.833s-0.373-0.833-0.833-0.833v0h-3.667zM8 22.167c0-0.46 0.373-0.833 0.833-0.833h14.333c0.46 0 0.833 0.373 0.833 0.833s-0.373 0.833-0.833 0.833v0h-14.333c-0.46 0-0.833-0.373-0.833-0.833z"></path>
</svg>
