<!-- Generated by IcoMoon.io -->
<svg version="1.1" xmlns="http://www.w3.org/2000/svg" width="32" height="32" viewBox="0 0 32 32">
<title>weather-cloudy-filled</title>
<path d="M17.335 9.345c4.225 0 6.621 2.796 6.97 6.173h0.107c2.719 0 4.923 2.199 4.923 4.91s-2.204 4.91-4.923 4.91h-14.153c-2.719 0-4.923-2.198-4.923-4.91s2.204-4.91 4.923-4.91h0.107c0.351-3.399 2.745-6.173 6.969-6.173zM13.333 5.333c0.001 0 0.001 0 0.002 0 2.151 0 4.051 1.081 5.184 2.729l0.014 0.021c-0.356-0.045-0.769-0.071-1.187-0.071-0.005 0-0.009 0-0.014 0h0.001c-4.052 0-6.984 2.292-7.973 5.743l-0.053 0.193-0.077 0.317-0.276 0.051c-2.154 0.467-3.868 1.995-4.59 3.996l-0.014 0.044c-1.029-0.808-1.684-2.053-1.684-3.45 0-2.417 1.959-4.376 4.376-4.376h0.095c0.54-2.972 3.108-5.196 6.196-5.197h0z"></path>
</svg>
