<!-- Generated by IcoMoon.io -->
<svg version="1.1" xmlns="http://www.w3.org/2000/svg" width="32" height="32" viewBox="0 0 32 32">
<title>weather-rain-snow-filled</title>
<path d="M16.002 4.667c4.225 0 6.621 2.797 6.97 6.173h0.107c2.719 0 4.923 2.199 4.923 4.91s-2.204 4.91-4.923 4.91h-1.803c0.038 0.101 0.059 0.218 0.059 0.339 0 0.552-0.448 1-1 1s-1-0.448-1-1c0-0.122 0.022-0.238 0.062-0.346l-0.002 0.007h-7.024l-2.871 4.78c-0.208 0.341-0.578 0.566-1 0.566-0.644 0-1.167-0.522-1.167-1.167 0-0.184 0.043-0.358 0.118-0.512l-0.003 0.007 0.051-0.094 2.149-3.579h-0.723c-2.719 0-4.923-2.198-4.923-4.91s2.204-4.91 4.923-4.91h0.107c0.351-3.399 2.746-6.173 6.971-6.173zM15.725 22.847c0.335 0.209 0.554 0.575 0.554 0.993 0 0.19-0.045 0.369-0.125 0.527l0.003-0.007-0.052 0.093-0.612 0.993c-0.209 0.337-0.576 0.558-0.995 0.558-0.644 0-1.167-0.522-1.167-1.167 0-0.191 0.046-0.371 0.127-0.53l-0.003 0.007 0.052-0.093 0.612-0.993c0.209-0.335 0.575-0.554 0.993-0.554 0.227 0 0.439 0.065 0.618 0.177l-0.005-0.003zM19.001 23.333c0.552 0 1 0.448 1 1s-0.448 1-1 1v0c-0.552 0-1-0.448-1-1s0.448-1 1-1v0zM22.335 22.667c0.552 0 1 0.448 1 1s-0.448 1-1 1v0c-0.552 0-1-0.448-1-1s0.448-1 1-1v0z"></path>
</svg>
