<!-- Generated by IcoMoon.io -->
<svg version="1.1" xmlns="http://www.w3.org/2000/svg" width="32" height="32" viewBox="0 0 32 32">
<title>weather-moon-filled</title>
<path d="M25.269 22.006c-3.314 5.74-10.653 7.706-16.393 4.392-1.564-0.911-2.861-2.111-3.855-3.539l-0.026-0.039c-0.099-0.143-0.159-0.32-0.159-0.511 0-0.388 0.246-0.719 0.59-0.845l0.006-0.002c4.52-1.618 6.941-3.493 8.347-6.174 1.479-2.823 1.861-5.916 0.827-10.155-0.016-0.064-0.026-0.138-0.026-0.213 0-0.497 0.403-0.9 0.9-0.9 0.017 0 0.033 0 0.050 0.001l-0.002-0c1.868 0.1 3.693 0.637 5.348 1.592 5.74 3.313 7.707 10.653 4.393 16.393z"></path>
</svg>
