<!-- Generated by IcoMoon.io -->
<svg version="1.1" xmlns="http://www.w3.org/2000/svg" width="32" height="32" viewBox="0 0 32 32">
<title>weather-haze-filled</title>
<path d="M6.667 25.175l-0.104 0.056c-0.115 0.064-0.253 0.102-0.399 0.102-0.46 0-0.833-0.373-0.833-0.833 0-0.314 0.174-0.587 0.43-0.73l0.004-0.002c1.988-1.085 3.776-1.337 5.546-1.011 1.723 0.319 3.375 1.179 5.105 2.189 3.168 1.847 6.861 1.354 8.93-0.124 0.137-0.102 0.309-0.163 0.495-0.163 0.46 0 0.833 0.373 0.833 0.833 0 0.283-0.141 0.533-0.357 0.684l-0.003 0.002c-2.597 1.855-6.997 2.389-10.738 0.207-1.725-1.006-3.156-1.728-4.568-1.989-1.338-0.247-2.709-0.087-4.341 0.779zM24 23.322c0.133-0.042 0.263-0.087 0.391-0.135 0.735-0.273 1.37-0.613 1.95-1.026l-0.025 0.017c0.219-0.152 0.36-0.403 0.36-0.686 0-0.46-0.373-0.833-0.833-0.833-0.186 0-0.359 0.061-0.497 0.165l0.002-0.002c-2.069 1.478-5.762 1.971-8.93 0.124-1.73-1.009-3.381-1.87-5.105-2.189-1.77-0.327-3.557-0.073-5.547 1.011-0.261 0.144-0.434 0.418-0.434 0.732 0 0.46 0.373 0.834 0.834 0.834 0.146 0 0.284-0.038 0.404-0.104l-0.004 0.002c1.678-0.915 3.080-1.087 4.445-0.835 1.412 0.261 2.844 0.983 4.568 1.989 2.78 1.622 5.925 1.743 8.423 0.937zM16 8.72c-2.94 0-5.473 1.743-6.623 4.253 0.154-0.009 0.334-0.014 0.515-0.014 0.61 0 1.206 0.058 1.783 0.17l-0.059-0.009c2.035 0.376 3.905 1.375 5.642 2.387 2.069 1.207 4.385 1.163 6.021 0.539v-0.045c0-4.020-3.259-7.28-7.28-7.28zM8.731 16.409c0.352-0.075 0.756-0.118 1.17-0.118 0.393 0 0.776 0.039 1.147 0.112l-0.037-0.006c0.269 0.049 0.54 0.116 0.812 0.198 1.157 0.349 2.36 0.977 3.756 1.791 3.741 2.182 8.141 1.648 10.739-0.207 0.219-0.152 0.36-0.403 0.36-0.686 0-0.46-0.373-0.833-0.833-0.833-0.186 0-0.359 0.061-0.497 0.165l0.002-0.002c-1.465 1.046-3.743 1.598-6.073 1.178-0.628-0.115-1.181-0.278-1.709-0.49l0.059 0.021c-0.472-0.187-0.87-0.383-1.249-0.608l0.041 0.022c-1.513-0.883-2.967-1.653-4.462-2.045-0.23-0.064-0.528-0.129-0.832-0.178l-0.052-0.007c-1.692-0.261-3.407 0.016-5.306 1.051-0.261 0.144-0.434 0.418-0.434 0.732 0 0.46 0.373 0.834 0.834 0.834 0.146 0 0.284-0.038 0.404-0.104l-0.004 0.002c0.773-0.421 1.487-0.685 2.165-0.823zM16.049 29.333c-0.016 0.001-0.035 0.002-0.055 0.002s-0.038-0.001-0.057-0.002l0.003 0h0.109zM7.738 6.597l-0.067-0.060c-0.141-0.114-0.323-0.183-0.521-0.183-0.46 0-0.833 0.373-0.833 0.833 0 0.23 0.093 0.438 0.244 0.589v0l1.432 1.432 0.068 0.060c0.141 0.113 0.322 0.181 0.518 0.181 0.46 0 0.833-0.373 0.833-0.833 0-0.229-0.092-0.436-0.241-0.586l-1.432-1.432zM25.49 7.707c0.114-0.141 0.183-0.323 0.183-0.521 0-0.46-0.373-0.833-0.833-0.833-0.23 0-0.439 0.093-0.589 0.244l-1.432 1.432-0.060 0.068c-0.113 0.141-0.181 0.322-0.181 0.518 0 0.46 0.373 0.833 0.833 0.833 0.229 0 0.436-0.092 0.586-0.241l1.432-1.432 0.061-0.068zM16.829 3.413c-0.043-0.424-0.398-0.752-0.829-0.752-0.46 0-0.833 0.373-0.833 0.833 0 0.001 0 0.003 0 0.004v-0 2.025l0.005 0.085c0.046 0.421 0.399 0.745 0.829 0.745 0.459 0 0.831-0.371 0.833-0.83v-2.026l-0.004-0.085z"></path>
</svg>
