<!-- Generated by IcoMoon.io -->
<svg version="1.1" xmlns="http://www.w3.org/2000/svg" width="32" height="32" viewBox="0 0 32 32">
<title>weather-partly-cloudy-day-filled</title>
<path d="M17.336 10.676c4.225 0 6.621 2.796 6.97 6.174h0.107c2.719 0 4.923 2.198 4.923 4.91s-2.204 4.91-4.923 4.91h-14.153c-2.719 0-4.923-2.198-4.923-4.91s2.204-4.91 4.923-4.91h0.107c0.351-3.399 2.745-6.174 6.97-6.174zM5.824 16.217c0.194 0.468 0.006 0.998-0.419 1.246l-0.122 0.060-1.235 0.512c-0.51 0.211-1.095-0.031-1.307-0.541-0.194-0.468-0.006-0.998 0.419-1.246l0.122-0.060 1.235-0.512c0.51-0.211 1.095 0.031 1.307 0.541zM14.473 9.772l-0.229 0.077c-2.379 0.841-4.083 2.674-4.82 5.097l-0.094 0.334-0.077 0.317-0.275 0.051c-0.811 0.17-1.565 0.499-2.227 0.953-0.118-0.2-0.224-0.413-0.316-0.635-1.111-2.681 0.163-5.756 2.844-6.866 1.79-0.741 3.754-0.421 5.194 0.672zM3.921 9.814l0.141 0.047 1.235 0.512c0.51 0.211 0.753 0.796 0.541 1.307-0.192 0.464-0.693 0.706-1.166 0.588l-0.141-0.047-1.235-0.512c-0.51-0.211-0.753-0.796-0.541-1.307 0.192-0.464 0.693-0.706 1.166-0.588zM9.008 5.832l0.060 0.122 0.512 1.235c0.211 0.51-0.031 1.095-0.541 1.307-0.468 0.194-0.998 0.006-1.246-0.419l-0.060-0.122-0.512-1.235c-0.211-0.51 0.031-1.095 0.541-1.307 0.468-0.194 0.998-0.006 1.246 0.419zM14.813 5.407c0.464 0.192 0.706 0.693 0.588 1.166l-0.047 0.141-0.512 1.235c-0.211 0.51-0.796 0.753-1.307 0.541-0.464-0.192-0.706-0.693-0.588-1.166l0.047-0.141 0.512-1.235c0.211-0.51 0.796-0.753 1.307-0.541z"></path>
</svg>
