<!-- Generated by IcoMoon.io -->
<svg version="1.1" xmlns="http://www.w3.org/2000/svg" width="32" height="32" viewBox="0 0 32 32">
<title>weather-snow-shower-night-filled</title>
<path d="M14.333 26.667c0.552 0 1 0.448 1 1s-0.448 1-1 1c-0.552 0-1-0.448-1-1s0.448-1 1-1zM20.333 26.667c0.552 0 1 0.448 1 1s-0.448 1-1 1c-0.552 0-1-0.448-1-1s0.448-1 1-1zM11.333 25.334c0.552 0 1 0.448 1 1s-0.448 1-1 1c-0.552 0-1-0.448-1-1s0.448-1 1-1zM17.333 25.334c0.552 0 1 0.448 1 1s-0.448 1-1 1c-0.552 0-1-0.448-1-1s0.448-1 1-1zM23.333 25.334c0.552 0 1 0.448 1 1s-0.448 1-1 1c-0.552 0-1-0.448-1-1s0.448-1 1-1zM17.335 8.024c4.225 0 6.621 2.796 6.97 6.173h0.107c2.719 0 4.923 2.198 4.923 4.91s-2.204 4.91-4.923 4.91h-14.153c-2.719 0-4.923-2.198-4.923-4.91s2.204-4.91 4.923-4.91h0.107c0.351-3.399 2.745-6.173 6.97-6.173zM8.784 2.68c1.060 0.057 2.089 0.362 3.017 0.898 1.406 0.812 2.411 2.052 2.944 3.46-2.646 0.75-4.539 2.669-5.325 5.262l-0.092 0.328-0.077 0.317-0.275 0.051c-1.525 0.32-2.847 1.201-3.739 2.419l-0.206-0.112c-0.877-0.506-1.621-1.194-2.189-2.019-0.373-0.541-0.132-1.289 0.487-1.51 2.19-0.784 3.37-1.666 4.045-2.954 0.737-1.407 0.873-2.899 0.384-4.903-0.159-0.652 0.356-1.273 1.026-1.237z"></path>
</svg>
