<!-- Generated by IcoMoon.io -->
<svg version="1.1" xmlns="http://www.w3.org/2000/svg" width="32" height="32" viewBox="0 0 32 32">
<title>weather-snow-filled</title>
<path d="M13 24.201c0.552 0 1 0.448 1 1s-0.448 1-1 1-1-0.448-1-1c0-0.552 0.448-1 1-1zM19 24.201c0.552 0 1 0.448 1 1s-0.448 1-1 1c-0.552 0-1-0.448-1-1s0.448-1 1-1zM10 22.868c0.552 0 1 0.448 1 1s-0.448 1-1 1-1-0.448-1-1c0-0.552 0.448-1 1-1zM16 22.868c0.552 0 1 0.448 1 1s-0.448 1-1 1c-0.552 0-1-0.448-1-1s0.448-1 1-1zM22 22.868c0.552 0 1 0.448 1 1s-0.448 1-1 1c-0.552 0-1-0.448-1-1s0.448-1 1-1zM16 5.334c4.225 0 6.621 2.796 6.97 6.174h0.107c2.719 0 4.923 2.198 4.923 4.91s-2.204 4.91-4.923 4.91h-14.153c-2.719 0-4.923-2.198-4.923-4.91s2.204-4.91 4.923-4.91h0.107c0.351-3.399 2.745-6.173 6.97-6.173z"></path>
</svg>
