<!-- Generated by IcoMoon.io -->
<svg version="1.1" xmlns="http://www.w3.org/2000/svg" width="32" height="32" viewBox="0 0 32 32">
<title>weather-partly-cloudy-day-filled</title>
<path d="M17.331 10.665c4.225 0 6.621 2.796 6.969 6.173h0.107c2.719 0 4.923 2.199 4.923 4.91s-2.204 4.91-4.923 4.91h-14.153c-2.718 0-4.922-2.198-4.922-4.91s2.204-4.91 4.923-4.91h0.107c0.351-3.399 2.745-6.173 6.97-6.173zM5.046 16.127c0.098 0.167 0.156 0.368 0.156 0.583 0 0.39-0.191 0.735-0.485 0.947l-0.003 0.002-0.095 0.061-0.866 0.5c-0.168 0.099-0.369 0.157-0.585 0.157-0.644 0-1.167-0.522-1.167-1.167 0-0.391 0.192-0.736 0.487-0.948l0.003-0.002 0.095-0.061 0.867-0.5c0.167-0.098 0.369-0.156 0.583-0.156 0.429 0 0.805 0.232 1.007 0.577l0.003 0.006zM14.47 9.767c-2.534 0.813-4.339 2.727-5.080 5.281l-0.063 0.227-0.077 0.317-0.275 0.051c-0.846 0.182-1.593 0.513-2.248 0.967l0.020-0.013c-0.451-0.759-0.717-1.673-0.717-2.65 0-2.902 2.353-5.255 5.255-5.255 1.203 0 2.311 0.404 3.197 1.084l-0.012-0.009zM3.67 9.319l0.088 0.037 0.907 0.423c0.404 0.189 0.679 0.592 0.679 1.060 0 0.644-0.522 1.167-1.167 1.167-0.147 0-0.289-0.027-0.419-0.077l0.008 0.003-0.088-0.037-0.907-0.423c-0.4-0.191-0.672-0.592-0.672-1.057 0-0.644 0.522-1.167 1.167-1.167 0.145 0 0.283 0.026 0.411 0.075l-0.008-0.003zM16.41 5.478c0.303 0.214 0.498 0.562 0.498 0.956 0 0.217-0.059 0.42-0.162 0.594l0.003-0.005-0.052 0.081-0.573 0.819c-0.213 0.305-0.563 0.502-0.959 0.502-0.644 0-1.167-0.522-1.167-1.167 0-0.219 0.060-0.424 0.165-0.599l-0.003 0.005 0.052-0.080 0.573-0.82c0.214-0.303 0.562-0.498 0.956-0.498 0.251 0 0.483 0.079 0.673 0.214l-0.004-0.002zM9.549 5.198l0.043 0.104 0.342 0.94c0.045 0.12 0.072 0.258 0.072 0.402 0 0.644-0.522 1.167-1.167 1.167-0.463 0-0.863-0.269-1.051-0.66l-0.003-0.007-0.043-0.104-0.342-0.94c-0.045-0.119-0.070-0.256-0.070-0.399 0-0.644 0.522-1.167 1.167-1.167 0.462 0 0.861 0.268 1.050 0.658l0.003 0.007z"></path>
</svg>
