<!-- Generated by IcoMoon.io -->
<svg version="1.1" xmlns="http://www.w3.org/2000/svg" width="32" height="32" viewBox="0 0 32 32">
<title>weather-thunderstorm-filled</title>
<path d="M18.346 17.605c0.411 0.369 0.444 1.001 0.075 1.412l-1.482 1.649h3.035c0.838 0 1.304 0.968 0.782 1.623l-4.282 5.375c-0.344 0.432-0.973 0.503-1.405 0.159s-0.503-0.973-0.159-1.405l2.989-3.752h-3.204c-0.865 0-1.322-1.025-0.744-1.669l2.981-3.317c0.369-0.411 1.001-0.444 1.412-0.075zM17.336 6.679c4.225 0 6.621 2.796 6.97 6.173h0.107c2.719 0 4.923 2.198 4.923 4.91s-2.204 4.91-4.923 4.91l-2.329 0.001c0.723-1.486-0.337-3.341-2.108-3.341h-0.181c0.421-0.906 0.225-2.017-0.557-2.719-0.959-0.861-2.434-0.783-3.295 0.176l-2.981 3.317c-0.691 0.769-0.749 1.772-0.37 2.567l-2.332-0.001c-2.719 0-4.923-2.198-4.923-4.91s2.204-4.91 4.923-4.91h0.107c0.351-3.399 2.745-6.173 6.97-6.173zM13.333 2.667c2.156 0 4.065 1.087 5.2 2.749-0.387-0.047-0.787-0.071-1.198-0.071-3.992 0-6.894 2.236-7.916 5.617l-0.090 0.32-0.077 0.317-0.275 0.051c-2.146 0.451-3.889 2.011-4.599 4.060-1.040-0.799-1.712-2.057-1.712-3.472 0-2.333 1.826-4.24 4.128-4.369l0.343-0.007c0.519-2.962 3.105-5.197 6.196-5.197z"></path>
</svg>
