<!-- Generated by IcoMoon.io -->
<svg version="1.1" xmlns="http://www.w3.org/2000/svg" width="32" height="32" viewBox="0 0 32 32">
<title>weather-rain-showers-night-filled</title>
<path d="M17.335 8.013c4.225 0 6.621 2.796 6.97 6.174h0.107c2.719 0 4.923 2.198 4.923 4.91s-2.204 4.91-4.923 4.91l-0.844-0.007-2.056 3.508c-0.276 0.478-0.888 0.642-1.366 0.366-0.438-0.253-0.613-0.788-0.426-1.244l0.060-0.122 1.479-2.508h-2.848l-2.057 3.508c-0.276 0.478-0.888 0.642-1.366 0.366-0.438-0.253-0.613-0.788-0.426-1.244l0.060-0.122 1.479-2.508h-2.849l-2.056 3.508c-0.276 0.478-0.888 0.642-1.366 0.366-0.438-0.253-0.613-0.788-0.426-1.244l0.060-0.122 1.478-2.508-0.809 0c-2.719 0-4.798-2.191-4.798-4.903s2.204-4.91 4.923-4.91h0.107c0.351-3.399 2.745-6.174 6.97-6.174zM8.784 2.669c1.060 0.057 2.089 0.362 3.017 0.898 1.406 0.812 2.411 2.052 2.944 3.46-2.646 0.75-4.539 2.669-5.325 5.262l-0.092 0.328-0.077 0.317-0.275 0.051c-1.525 0.32-2.847 1.201-3.739 2.419l-0.206-0.112c-0.877-0.506-1.621-1.194-2.189-2.019-0.373-0.541-0.132-1.289 0.487-1.51 2.19-0.784 3.37-1.666 4.045-2.954 0.737-1.407 0.873-2.899 0.384-4.903-0.159-0.652 0.356-1.273 1.026-1.237z"></path>
</svg>
