<!-- Generated by IcoMoon.io -->
<svg version="1.1" xmlns="http://www.w3.org/2000/svg" width="32" height="32" viewBox="0 0 32 32">
<title>weather-rain-filled</title>
<path d="M15.999 4.667c4.225 0 6.621 2.797 6.97 6.173h0.107c2.719 0 4.923 2.199 4.923 4.91s-2.204 4.91-4.923 4.91h-0.045l-2.867 4.773c-0.208 0.338-0.577 0.56-0.997 0.56-0.644 0-1.167-0.522-1.167-1.167 0-0.182 0.042-0.355 0.116-0.508l-0.003 0.007 0.050-0.093 2.145-3.571h-2.611l-2.867 4.773c-0.208 0.338-0.577 0.56-0.997 0.56-0.644 0-1.167-0.522-1.167-1.167 0-0.182 0.042-0.355 0.116-0.508l-0.003 0.007 0.050-0.093 2.145-3.571h-2.611l-2.867 4.773c-0.208 0.338-0.577 0.56-0.997 0.56-0.644 0-1.167-0.522-1.167-1.167 0-0.182 0.042-0.355 0.116-0.508l-0.003 0.007 0.050-0.093 2.145-3.571h-0.72c-2.719 0-4.923-2.198-4.923-4.91s2.204-4.91 4.923-4.91h0.107c0.351-3.399 2.745-6.173 6.971-6.173z"></path>
</svg>
