<!-- Generated by IcoMoon.io -->
<svg version="1.1" xmlns="http://www.w3.org/2000/svg" width="32" height="32" viewBox="0 0 32 32">
<title>weather-squalls-filled</title>
<path d="M9.333 10.333c0-3.13 2.537-5.667 5.667-5.667s5.667 2.537 5.667 5.667c0 3.13-2.537 5.667-5.667 5.667v0h-11.333c-0.552 0-1-0.448-1-1s0.448-1 1-1v0h11.333c2.025 0 3.667-1.642 3.667-3.667s-1.642-3.667-3.667-3.667c-2.025 0-3.667 1.642-3.667 3.667v0c0 0.552-0.448 1-1 1s-1-0.448-1-1v0zM20.732 15.949c0.487-1.9 2.184-3.283 4.204-3.283h0.064c2.393 0 4.333 1.94 4.333 4.333s-1.94 4.333-4.333 4.333v0h-1.535c0.335 0.572 0.532 1.26 0.532 1.994 0 2.209-1.791 4-4 4-1.651 0-3.069-1.001-3.68-2.429l-0.010-0.026-0.064-0.154c-0.049-0.114-0.077-0.246-0.077-0.385 0-0.552 0.448-1 1-1 0.414 0 0.769 0.251 0.921 0.609l0.002 0.007 0.064 0.153c0.309 0.729 1.019 1.231 1.846 1.231 1.105 0 2-0.895 2-2s-0.895-2-2-2c-0 0-0 0-0 0h-16.333c-0.552 0-1-0.448-1-1s0.448-1 1-1v0h21.333c1.289 0 2.333-1.045 2.333-2.333s-1.045-2.333-2.333-2.333v0h-0.064c-0 0-0 0-0 0-1.088 0-2.002 0.744-2.26 1.751l-0.004 0.016-0.035 0.142c-0.107 0.446-0.502 0.771-0.974 0.771-0.552 0-1-0.448-1-1 0-0.091 0.012-0.18 0.035-0.264l-0.002 0.007 0.035-0.141z"></path>
</svg>
