<!-- Generated by IcoMoon.io -->
<svg version="1.1" xmlns="http://www.w3.org/2000/svg" width="32" height="32" viewBox="0 0 32 32">
<title>weather-moon-off-filled</title>
<path d="M4.256 3.077c-0.151-0.151-0.359-0.244-0.589-0.244-0.46 0-0.833 0.373-0.833 0.833 0 0.23 0.093 0.439 0.244 0.589l10.813 10.813c-0.036 0.073-0.073 0.146-0.111 0.219-1.405 2.681-3.826 4.557-8.347 6.174-0.351 0.128-0.596 0.459-0.596 0.847 0 0.191 0.059 0.368 0.161 0.514l-0.002-0.003c1.020 1.467 2.317 2.667 3.824 3.547l0.057 0.031c4.799 2.771 10.715 1.851 14.463-1.88l4.405 4.405c0.151 0.151 0.359 0.244 0.589 0.244 0.46 0 0.833-0.373 0.833-0.833 0-0.23-0.093-0.439-0.244-0.589v0l-24.667-24.667zM20.876 5.614c5.682 3.28 7.667 10.505 4.491 16.218l-10.327-10.327c0.288-1.853 0.163-3.921-0.435-6.372-0.016-0.064-0.026-0.138-0.026-0.213 0-0.497 0.403-0.9 0.9-0.9 0.017 0 0.033 0 0.050 0.001l-0.002-0c1.868 0.1 3.693 0.637 5.348 1.593z"></path>
</svg>
