<!-- Generated by IcoMoon.io -->
<svg version="1.1" xmlns="http://www.w3.org/2000/svg" width="32" height="32" viewBox="0 0 32 32">
<title>weather-blowing-snow-filled</title>
<path d="M15 4c-3.13 0-5.667 2.537-5.667 5.667v0c0 0.552 0.448 1 1 1s1-0.448 1-1v0c0-2.025 1.642-3.667 3.667-3.667s3.667 1.642 3.667 3.667c0 2.025-1.642 3.667-3.667 3.667v0h-11.333c-0.552 0-1 0.448-1 1s0.448 1 1 1v0h11.333c3.13 0 5.667-2.537 5.667-5.667s-2.537-5.667-5.667-5.667v0zM24.936 12c-2.020 0-3.717 1.382-4.197 3.253l-0.007 0.030-0.035 0.141c-0.021 0.077-0.034 0.165-0.034 0.257 0 0.552 0.448 1 1 1 0.471 0 0.866-0.326 0.972-0.765l0.001-0.007 0.035-0.142c0.262-1.023 1.176-1.767 2.264-1.767 0 0 0 0 0 0h0.064c1.289 0 2.333 1.045 2.333 2.333s-1.045 2.333-2.333 2.333v0h-21.333c-0.552 0-1 0.448-1 1s0.448 1 1 1v0h16.333c1.104 0 1.999 0.896 1.999 2s-0.895 2-2 2c-0.827 0-1.537-0.502-1.841-1.218l-0.005-0.013-0.063-0.153c-0.155-0.365-0.51-0.616-0.923-0.616-0.552 0-1 0.448-1 1 0 0.139 0.028 0.271 0.079 0.391l-0.002-0.007 0.065 0.153c0.619 1.458 2.038 2.462 3.692 2.462 2.209 0 4-1.791 4-4 0-0.736-0.199-1.426-0.546-2.018l0.010 0.019h1.535c2.393 0 4.333-1.94 4.333-4.333s-1.94-4.333-4.333-4.333v0h-0.064zM11.667 28c0.92 0 1.667-0.746 1.667-1.667s-0.746-1.667-1.667-1.667v0c-0.92 0-1.667 0.746-1.667 1.667s0.746 1.667 1.667 1.667v0zM6.667 6.333c0 0.92-0.746 1.667-1.667 1.667s-1.667-0.746-1.667-1.667v0c0-0.92 0.746-1.667 1.667-1.667s1.667 0.746 1.667 1.667v0zM25.667 9.333c0.92 0 1.667-0.746 1.667-1.667s-0.746-1.667-1.667-1.667v0c-0.92 0-1.667 0.746-1.667 1.667s0.746 1.667 1.667 1.667v0z"></path>
</svg>
