<!-- Generated by IcoMoon.io -->
<svg version="1.1" xmlns="http://www.w3.org/2000/svg" width="32" height="32" viewBox="0 0 32 32">
<title>weather-cloudy-filled</title>
<path d="M17.336 9.345c4.225 0 6.621 2.796 6.97 6.173h0.107c2.719 0 4.923 2.198 4.923 4.91s-2.204 4.91-4.923 4.91h-14.153c-2.719 0-4.923-2.198-4.923-4.91s2.204-4.91 4.923-4.91h0.107c0.351-3.399 2.745-6.173 6.97-6.173zM13.333 5.333c2.156 0 4.065 1.087 5.2 2.749-0.387-0.047-0.787-0.071-1.198-0.071-3.992 0-6.894 2.236-7.916 5.617l-0.090 0.32-0.077 0.317-0.275 0.051c-2.146 0.451-3.889 2.011-4.599 4.060-1.040-0.799-1.712-2.057-1.712-3.472 0-2.334 1.826-4.24 4.128-4.369l0.343-0.007c0.519-2.962 3.105-5.197 6.196-5.197z"></path>
</svg>
