<!-- Generated by IcoMoon.io -->
<svg version="1.1" xmlns="http://www.w3.org/2000/svg" width="32" height="32" viewBox="0 0 32 32">
<title>weather-fog-filled</title>
<path d="M10.326 26h11.335c0.552 0 0.999 0.448 0.999 1 0 0.506-0.376 0.925-0.863 0.991l-0.136 0.009h-11.335c-0.552 0-0.999-0.448-0.999-1 0-0.506 0.376-0.925 0.864-0.991l0.136-0.009zM6.333 22.026h19.333c0.552 0 1 0.448 1 1 0 0.506-0.376 0.925-0.864 0.991l-0.136 0.009h-19.333c-0.552 0-1-0.448-1-1 0-0.506 0.376-0.925 0.864-0.991l0.136-0.009zM16 4.006c4.225 0 6.621 2.796 6.97 6.173h0.107c2.719 0 4.923 2.198 4.923 4.91s-2.204 4.91-4.923 4.91h-14.153c-2.719 0-4.923-2.198-4.923-4.91s2.204-4.91 4.923-4.91h0.107c0.351-3.399 2.745-6.173 6.97-6.173z"></path>
</svg>
