<!-- Generated by IcoMoon.io -->
<svg version="1.1" xmlns="http://www.w3.org/2000/svg" width="32" height="32" viewBox="0 0 32 32">
<title>weather-partly-cloudy-night-filled</title>
<path d="M17.335 10.673c4.225 0 6.621 2.796 6.97 6.173h0.107c2.719 0 4.923 2.198 4.923 4.91s-2.204 4.91-4.923 4.91h-14.152c-2.719 0-4.923-2.198-4.923-4.91s2.204-4.91 4.923-4.91h0.107c0.351-3.4 2.745-6.173 6.97-6.173zM8.788 5.335c1.060 0.057 2.089 0.363 3.017 0.899 1.345 0.784 2.376 1.981 2.93 3.416l0.016 0.046c-2.677 0.763-4.585 2.722-5.351 5.366l-0.061 0.221-0.077 0.317-0.275 0.051c-1.546 0.335-2.849 1.206-3.733 2.404l-0.012 0.017-0.205-0.115c-0.882-0.514-1.615-1.191-2.175-1.997l-0.015-0.022c-0.11-0.159-0.176-0.355-0.176-0.567 0-0.432 0.273-0.8 0.657-0.94l0.007-0.002c2.19-0.784 3.37-1.667 4.045-2.955 0.737-1.407 0.873-2.899 0.384-4.903-0.018-0.071-0.029-0.153-0.029-0.237 0-0.553 0.448-1.001 1.001-1.001 0.019 0 0.037 0 0.056 0.002l-0.003-0z"></path>
</svg>
