<!-- Generated by IcoMoon.io -->
<svg version="1.1" xmlns="http://www.w3.org/2000/svg" width="32" height="32" viewBox="0 0 32 32">
<title>weather-drizzle-filled</title>
<path d="M16 4.001c4.225 0 6.621 2.796 6.97 6.173h0.107c2.719 0 4.923 2.198 4.923 4.91s-2.204 4.91-4.923 4.91l-0.777-0-0.003 0.006h-0.352c-0.027 0.077-0.064 0.151-0.111 0.222l-1.333 2c-0.306 0.46-0.927 0.584-1.387 0.278s-0.584-0.927-0.278-1.387l0.745-1.118h-2.439l-0.003 0.006h-0.529c-0.027 0.077-0.064 0.151-0.111 0.222l-1.333 2c-0.306 0.46-0.927 0.584-1.387 0.278s-0.584-0.927-0.278-1.387l0.745-1.118h-2.264l-0.003 0.006h-0.703c-0.027 0.077-0.064 0.151-0.111 0.222l-1.333 2c-0.306 0.46-0.927 0.584-1.387 0.278s-0.584-0.927-0.278-1.387l0.745-1.118c-2.714-0.005-4.913-2.202-4.913-4.91 0-2.712 2.204-4.91 4.923-4.91h0.107c0.351-3.399 2.745-6.173 6.97-6.173z"></path>
<path d="M9.501 25.113c-0.306 0.459-0.182 1.080 0.278 1.387s1.080 0.182 1.387-0.278l1.333-2c0.306-0.46 0.182-1.080-0.278-1.387s-1.080-0.182-1.387 0.278l-1.333 2z"></path>
<path d="M15.112 26.499c-0.46-0.306-0.584-0.927-0.278-1.387l1.333-2c0.306-0.46 0.927-0.584 1.387-0.278s0.584 0.927 0.278 1.387l-1.333 2c-0.306 0.46-0.927 0.584-1.387 0.278z"></path>
</svg>
