<!-- Generated by IcoMoon.io -->
<svg version="1.1" xmlns="http://www.w3.org/2000/svg" width="32" height="32" viewBox="0 0 32 32">
<title>weather-rain-filled</title>
<path d="M16 5.334c4.225 0 6.621 2.796 6.97 6.174h0.107c2.719 0 4.923 2.198 4.923 4.91s-2.204 4.91-4.923 4.91l-0.777-0-2.11 3.516c-0.276 0.478-0.888 0.642-1.366 0.366-0.439-0.253-0.613-0.788-0.426-1.244l0.060-0.122 1.533-2.516h-2.848l-2.11 3.516c-0.276 0.478-0.888 0.642-1.366 0.366-0.438-0.253-0.613-0.788-0.426-1.244l0.060-0.122 1.533-2.516h-2.849l-2.109 3.516c-0.276 0.478-0.888 0.642-1.366 0.366-0.438-0.253-0.613-0.788-0.426-1.244l0.060-0.122 1.532-2.516-0.751 0c-2.719 0-4.923-2.198-4.923-4.91s2.204-4.91 4.923-4.91h0.107c0.351-3.399 2.745-6.173 6.97-6.173z"></path>
</svg>
