<!-- Generated by IcoMoon.io -->
<svg version="1.1" xmlns="http://www.w3.org/2000/svg" width="32" height="32" viewBox="0 0 32 32">
<title>weather-sunny-high-filled</title>
<path d="M16.833 3.5c0-0.46-0.373-0.833-0.833-0.833s-0.833 0.373-0.833 0.833v0 1c0 0.46 0.373 0.833 0.833 0.833s0.833-0.373 0.833-0.833v0-1zM16 6.667c-2.946 0-5.333 2.388-5.333 5.333s2.388 5.333 5.333 5.333v0c2.946 0 5.333-2.388 5.333-5.333s-2.388-5.333-5.333-5.333v0zM2.86 29.033c0.154 0.184 0.383 0.3 0.64 0.3 0.203 0 0.39-0.073 0.535-0.194l-0.001 0.001 0.007-0.005 0.033-0.027c0.031-0.025 0.080-0.063 0.147-0.113 0.133-0.1 0.337-0.247 0.607-0.424 0.675-0.448 1.456-0.886 2.269-1.267l0.113-0.048c2.571-1.214 5.585-1.923 8.765-1.923 0.009 0 0.017 0 0.026 0h-0.001c3.707 0 6.713 0.962 8.79 1.923 0.927 0.428 1.708 0.867 2.451 1.358l-0.069-0.043c0.298 0.196 0.544 0.373 0.783 0.558l-0.028-0.021 0.033 0.027 0.007 0.005c0.143 0.12 0.33 0.193 0.533 0.193 0.257 0 0.486-0.116 0.639-0.298l0.001-0.001c0.453-0.587-0.107-1.173-0.107-1.173l-0.003-0.002-0.019-0.016-0.027-0.021-0.024-0.020c-0.245-0.191-0.529-0.396-0.822-0.59l-0.052-0.032c-0.736-0.489-1.588-0.968-2.475-1.383l-0.123-0.052c-2.776-1.311-6.030-2.077-9.464-2.077-0.009 0-0.018 0-0.027 0h0.001c-0.008 0-0.017 0-0.026 0-3.433 0-6.688 0.765-9.602 2.135l0.138-0.058c-1.123 0.52-2 1.041-2.599 1.435-0.344 0.227-0.628 0.432-0.905 0.647l0.031-0.024c-0.027 0.021-0.043 0.034-0.059 0.047l0.009-0.007-0.015 0.012-0.005 0.004c-0.286 0.237-0.338 0.901-0.109 1.176zM16 18.667c0.46 0 0.833 0.373 0.833 0.833v1c0 0.46-0.373 0.833-0.833 0.833s-0.833-0.373-0.833-0.833v0-1c0-0.46 0.373-0.833 0.833-0.833zM6.667 11.5c0-0.46 0.373-0.833 0.833-0.833h1c0.46 0 0.833 0.373 0.833 0.833s-0.373 0.833-0.833 0.833v0h-1c-0.46 0-0.833-0.373-0.833-0.833zM23.5 10.667c-0.46 0-0.833 0.373-0.833 0.833s0.373 0.833 0.833 0.833v0h1c0.46 0 0.833-0.373 0.833-0.833s-0.373-0.833-0.833-0.833v0h-1zM10.423 7.756c-0.151 0.151-0.359 0.244-0.589 0.244s-0.439-0.093-0.589-0.244l-1-1c-0.151-0.151-0.244-0.359-0.244-0.589 0-0.46 0.373-0.833 0.833-0.833 0.23 0 0.438 0.093 0.589 0.244v0l1 1c0.151 0.151 0.244 0.359 0.244 0.589s-0.093 0.439-0.244 0.589v0zM9.244 16.244c0.151-0.151 0.359-0.244 0.589-0.244 0.46 0 0.833 0.373 0.833 0.833 0 0.23-0.093 0.439-0.244 0.589v0l-1 1c-0.151 0.151-0.359 0.244-0.589 0.244-0.46 0-0.833-0.373-0.833-0.833 0-0.23 0.093-0.439 0.244-0.589v0l1-1zM21.577 7.756c0.151 0.151 0.359 0.244 0.589 0.244s0.439-0.093 0.589-0.244l1-1c0.151-0.151 0.244-0.359 0.244-0.589 0-0.46-0.373-0.833-0.833-0.833-0.23 0-0.439 0.093-0.589 0.244v0l-1 1c-0.151 0.151-0.244 0.359-0.244 0.589s0.093 0.439 0.244 0.589v0zM22.756 16.244c-0.151-0.151-0.359-0.244-0.589-0.244-0.46 0-0.833 0.373-0.833 0.833 0 0.23 0.093 0.439 0.244 0.589v0l1 1c0.151 0.151 0.359 0.244 0.589 0.244 0.46 0 0.833-0.373 0.833-0.833 0-0.23-0.093-0.439-0.244-0.589v0l-1-1z"></path>
</svg>
