<!-- Generated by IcoMoon.io -->
<svg version="1.1" xmlns="http://www.w3.org/2000/svg" width="32" height="32" viewBox="0 0 32 32">
<title>weather-fog-filled</title>
<path d="M21.5 25.667c0.644 0 1.166 0.523 1.166 1.167 0 0.61-0.469 1.111-1.066 1.162l-0.004 0-0.095 0.004h-11c-0.644-0-1.166-0.523-1.166-1.167 0-0.61 0.469-1.111 1.066-1.162l0.004-0 0.096-0.004h11zM25.5 21.67c0.644 0 1.166 0.523 1.166 1.167 0 0.61-0.469 1.111-1.066 1.162l-0.004 0-0.095 0.004h-19.001c-0.644-0.001-1.165-0.523-1.165-1.167 0-0.61 0.469-1.111 1.066-1.162l0.004-0 0.095-0.004h19zM16 4.007c4.225 0 6.621 2.796 6.97 6.173h0.107c2.719 0 4.923 2.198 4.923 4.91s-2.205 4.91-4.923 4.91h-14.153c-2.719 0-4.923-2.198-4.923-4.91s2.204-4.91 4.923-4.91h0.107c0.351-3.399 2.745-6.173 6.971-6.173z"></path>
</svg>
