<!-- Generated by IcoMoon.io -->
<svg version="1.1" xmlns="http://www.w3.org/2000/svg" width="32" height="32" viewBox="0 0 32 32">
<title>weather-sunny-low-filled</title>
<path d="M17 3.667c0-0.552-0.448-1-1-1s-1 0.448-1 1v2c0 0.552 0.448 1 1 1s1-0.448 1-1v-2z"></path>
<path d="M25.374 6.626c0.391 0.391 0.391 1.024 0 1.414l-1.414 1.414c-0.391 0.391-1.024 0.391-1.414 0s-0.391-1.024 0-1.414l1.414-1.414c0.391-0.391 1.024-0.391 1.414 0z"></path>
<path d="M8.788 17.333c-0.079-0.432-0.121-0.878-0.121-1.333 0-4.050 3.283-7.333 7.333-7.333s7.333 3.283 7.333 7.333c0 0.455-0.041 0.901-0.121 1.333h5.121c0.552 0 1 0.448 1 1s-0.448 1-1 1h-24.667c-0.552 0-1-0.448-1-1s0.448-1 1-1h5.121z"></path>
<path d="M9 21.333c-0.552 0-1 0.448-1 1s0.448 1 1 1h14c0.552 0 1-0.448 1-1s-0.448-1-1-1h-14z"></path>
<path d="M14.333 25.333c-0.552 0-1 0.448-1 1s0.448 1 1 1h3.333c0.552 0 1-0.448 1-1s-0.448-1-1-1h-3.333z"></path>
<path d="M6.626 6.626c0.391-0.391 1.024-0.391 1.414 0l1.414 1.414c0.391 0.391 0.391 1.024 0 1.414s-1.024 0.391-1.414 0l-1.414-1.414c-0.391-0.391-0.391-1.024 0-1.414z"></path>
</svg>
