<!-- Generated by IcoMoon.io -->
<svg version="1.1" xmlns="http://www.w3.org/2000/svg" width="32" height="32" viewBox="0 0 32 32">
<title>weather-blowing-snow-filled</title>
<path d="M24.997 12.659c2.395 0 4.336 1.94 4.336 4.333 0 2.311-1.81 4.199-4.090 4.326l-0.267 0.007-0.155 0.009h-1.049c0.146 0.414 0.226 0.86 0.226 1.324 0 2.219-1.681 4.008-3.9 4.008-1.734 0-2.98-0.837-3.585-2.169-0.304-0.671-0.007-1.461 0.663-1.765 0.623-0.283 1.349-0.047 1.693 0.525l0.131 0.251c0.187 0.323 0.498 0.491 1.098 0.491 0.708 0 1.233-0.559 1.233-1.341 0-0.681-0.525-1.248-1.206-1.324l-16.125 0c-0.736 0-1.333-0.597-1.333-1.333 0-0.684 0.515-1.247 1.178-1.324l0.155-0.009 15.967-0.009c0.085 0 0.169 0.003 0.253 0.008l4.617 0.002 0.080-0.007 0.252-0.011c0.842-0.085 1.499-0.795 1.499-1.658 0-0.92-0.747-1.667-1.669-1.667-0.648 0-1.225 0.372-1.501 0.935l-0.13 0.301c-0.301 0.596-1.007 0.885-1.649 0.649-0.691-0.254-1.046-1.020-0.792-1.711 0.621-1.693 2.238-2.841 4.072-2.841zM13 23.333c0.552 0 1 0.448 1 1s-0.448 1-1 1-1-0.448-1-1c0-0.552 0.448-1 1-1zM15.666 4.666c3.13 0 5.667 2.537 5.667 5.667 0 3.12-2.521 5.65-5.636 5.667h-11.697c-0.736 0-1.333-0.597-1.333-1.333 0-0.684 0.515-1.247 1.178-1.324l0.155-0.009 11.872-0.007c1.561-0.106 2.795-1.405 2.795-2.994 0-1.657-1.343-3-3-3s-3 1.343-3 3c0 0.736-0.597 1.333-1.333 1.333s-1.333-0.597-1.333-1.333c0-3.13 2.537-5.667 5.667-5.667zM25.667 8.667c0.552 0 1 0.448 1 1s-0.448 1-1 1c-0.552 0-1-0.448-1-1s0.448-1 1-1zM7.667 6.667c0.552 0 1 0.448 1 1s-0.448 1-1 1c-0.552 0-1-0.448-1-1s0.448-1 1-1z"></path>
</svg>
