<!-- Generated by IcoMoon.io -->
<svg version="1.1" xmlns="http://www.w3.org/2000/svg" width="32" height="32" viewBox="0 0 32 32">
<title>whiteboard-filled</title>
<path d="M21.319 5.333l-4.089 4.084c-0.45 0.449-0.803 0.985-1.037 1.574l-0.107 0.299-0.985 3.060c-0.186 0.579-0.193 1.2-0.018 1.782 0.456 1.518 2.006 2.408 3.528 2.065l0.207-0.054 3.103-0.931c0.633-0.19 1.217-0.512 1.714-0.943l0.241-0.224 5.457-5.449v11.745c0 2.393-1.94 4.333-4.333 4.333h-18c-2.393 0-4.333-1.94-4.333-4.333l0.001-5.599 0.101-0.042 0.098-0.054 5.013-3.151 0.131-0.069c0.446-0.196 0.981-0.041 1.248 0.384 0.163 0.259 0.197 0.576 0.098 0.86l-0.060 0.139-1.61 3.047-0.093 0.193c-0.63 1.428-0.057 3.121 1.344 3.861 0.827 0.437 1.805 0.461 2.647 0.077l0.226-0.115 2.353-1.328 0.113-0.075c0.391-0.299 0.512-0.849 0.261-1.289s-0.784-0.618-1.241-0.434l-0.122 0.059-2.345 1.324-0.131 0.062c-0.268 0.103-0.569 0.087-0.827-0.049-0.448-0.237-0.642-0.765-0.472-1.227l0.055-0.124 1.61-3.047 0.106-0.222c0.385-0.9 0.308-1.938-0.218-2.776-0.842-1.339-2.567-1.785-3.942-1.056l-0.194 0.112-4.147 2.607v-4.74c0-2.311 1.809-4.199 4.088-4.326l0.246-0.007h14.319zM28.234 4.726l0.174 0.161 0.161 0.174c1.018 1.189 0.963 2.98-0.162 4.104l-5.708 5.698c-0.351 0.35-0.783 0.608-1.257 0.75l-3.103 0.932c-0.705 0.212-1.449-0.188-1.66-0.894-0.078-0.259-0.075-0.535 0.008-0.792l0.985-3.060c0.146-0.454 0.399-0.867 0.736-1.204l5.721-5.712c1.126-1.125 2.918-1.177 4.106-0.158z"></path>
</svg>
