<!-- Generated by IcoMoon.io -->
<svg version="1.1" xmlns="http://www.w3.org/2000/svg" width="32" height="32" viewBox="0 0 32 32">
<title>whiteboard-filled</title>
<path d="M28.47 5.453c-1.125-1.687-3.511-1.923-4.945-0.49l-5.562 5.562c-0.365 0.365-0.617 0.841-0.701 1.374l-0.002 0.014-0.583 3.793c-0.006 0.038-0.010 0.082-0.010 0.127 0 0.46 0.373 0.833 0.833 0.833 0.066 0 0.131-0.008 0.193-0.022l-0.006 0.001 3.847-0.888c0.494-0.116 0.918-0.366 1.246-0.709l0.001-0.001 5.34-5.594c0.55-0.576 0.889-1.358 0.889-2.219 0-0.664-0.201-1.281-0.547-1.794l0.007 0.011zM15.029 15.453c-0.019 0.114-0.029 0.246-0.029 0.381 0 1.381 1.119 2.5 2.5 2.5 0.199 0 0.393-0.023 0.579-0.067l-0.017 0.003 3.847-0.888c0.823-0.194 1.53-0.61 2.076-1.181l0.001-0.002 5.347-5.602v11.903c0 2.301-1.865 4.167-4.167 4.167v0h-18.333c-2.301 0-4.167-1.865-4.167-4.167v0-6.403c0.049-0.021 0.096-0.048 0.141-0.079 0.385-0.267 0.858-0.629 1.363-1.017 0.229-0.176 0.466-0.357 0.703-0.537 0.783-0.592 1.623-1.199 2.445-1.684 0.835-0.493 1.585-0.819 2.195-0.912 0.572-0.087 0.926 0.037 1.187 0.341 0.152 0.177 0.209 0.331 0.227 0.47 0.020 0.15 0.001 0.337-0.079 0.579-0.169 0.509-0.531 1.061-0.982 1.747l-0.024 0.036c-0.42 0.64-0.933 1.422-1.145 2.223-0.111 0.42-0.152 0.88-0.041 1.355 0.112 0.48 0.367 0.917 0.754 1.305 0.557 0.557 1.193 0.821 1.832 0.867 0.618 0.044 1.185-0.119 1.637-0.32 0.419-0.192 0.78-0.414 1.11-0.673l-0.012 0.009c0.159-0.123 0.299-0.244 0.433-0.372l-0.002 0.002 0.009-0.009 0.003-0.003 0.001-0.001h0.001l-0.589-0.59 0.589 0.589c0.136-0.148 0.22-0.346 0.22-0.564 0-0.461-0.373-0.834-0.834-0.834-0.217 0-0.415 0.083-0.563 0.219l-0 0-0.010 0.009-0.053 0.049c-0.066 0.059-0.139 0.119-0.213 0.177l-0.009 0.007c-0.219 0.173-0.468 0.327-0.733 0.451l-0.023 0.010c-0.298 0.132-0.585 0.199-0.842 0.18-0.236-0.017-0.496-0.107-0.772-0.383-0.197-0.197-0.277-0.366-0.31-0.507-0.035-0.145-0.031-0.321 0.029-0.547 0.131-0.492 0.473-1.043 0.928-1.735l0.080-0.121c0.4-0.607 0.875-1.327 1.115-2.052 0.133-0.403 0.212-0.851 0.15-1.321-0.063-0.48-0.267-0.93-0.615-1.337-0.739-0.862-1.74-1.051-2.704-0.903-0.927 0.141-1.895 0.596-2.79 1.124-0.907 0.535-1.807 1.189-2.602 1.79-0.268 0.202-0.52 0.396-0.757 0.577h-0.001l-0.001 0.001c-0.155 0.12-0.304 0.233-0.445 0.341v-4.554c0-2.301 1.865-4.167 4.167-4.167h13.965l-4.013 4.013c-0.607 0.607-1.028 1.401-1.169 2.288l-0.003 0.024-0.583 3.795z"></path>
</svg>
