<!-- Generated by IcoMoon.io -->
<svg version="1.1" xmlns="http://www.w3.org/2000/svg" width="32" height="32" viewBox="0 0 32 32">
<title>wifi-off-filled</title>
<path d="M17.144 19.031l9.912 9.912c0.24 0.232 0.566 0.374 0.926 0.374 0.736 0 1.333-0.597 1.333-1.333 0-0.36-0.143-0.687-0.375-0.927l-23.998-24c-0.243-0.251-0.583-0.407-0.959-0.407-0.736 0-1.333 0.597-1.333 1.333 0 0.376 0.156 0.716 0.407 0.959l4.13 4.13c-0.857 0.572-1.672 1.236-2.428 1.993-0.665 0.674-1.274 1.407-1.818 2.19l-0.036 0.054c-0.149 0.212-0.238 0.476-0.238 0.76 0 0.737 0.597 1.334 1.334 1.334 0.452 0 0.852-0.225 1.093-0.569l0.003-0.004c0.484-0.699 1.015-1.347 1.547-1.88 0.727-0.727 1.537-1.371 2.416-1.914l0.057-0.033 1.536 1.537c-1.834 1.068-3.293 2.602-4.242 4.442l-0.029 0.061c-0.082 0.168-0.131 0.366-0.131 0.576 0 0.736 0.597 1.333 1.333 1.333 0.506 0 0.947-0.282 1.173-0.698l0.004-0.007c0.41-0.802 0.914-1.489 1.511-2.084l0-0c0.666-0.667 1.447-1.219 2.31-1.624l0.050-0.021 1.876 1.876c-1.337 0.308-2.49 0.966-3.393 1.873l-0 0c-0.598 0.603-1.088 1.316-1.436 2.105l-0.018 0.045c-0.067 0.153-0.106 0.332-0.106 0.52 0 0.736 0.597 1.333 1.333 1.333 0.537 0 1-0.318 1.212-0.776l0.003-0.008c0.223-0.508 0.525-0.963 0.896-1.333 0.78-0.78 1.857-1.263 3.047-1.263 0.39 0 0.768 0.052 1.127 0.149l-0.030-0.007zM15.368 11.124l2.971 2.972c1.371 0.406 2.545 1.121 3.488 2.067l0 0c0.595 0.605 1.101 1.3 1.494 2.062l0.022 0.047c0.221 0.448 0.675 0.75 1.199 0.75 0.736 0 1.333-0.597 1.333-1.333 0-0.231-0.059-0.449-0.163-0.639l0.003 0.007c-0.549-1.067-1.217-1.983-2.005-2.781l0.001 0.001c-1.957-1.962-4.664-3.175-7.653-3.175-0.243 0-0.484 0.008-0.723 0.024l0.032-0.002zM11.347 7.103l2.201 2.201c0.736-0.146 1.583-0.229 2.449-0.229 4.512 0 8.495 2.263 10.877 5.715l0.029 0.044c0.243 0.354 0.646 0.584 1.103 0.584 0.736 0 1.333-0.597 1.333-1.333 0-0.286-0.090-0.552-0.244-0.769l0.003 0.004c-2.901-4.197-7.687-6.912-13.106-6.912-1.657 0-3.255 0.254-4.757 0.725l0.113-0.030zM17.416 21.921c0.362 0.362 0.586 0.863 0.586 1.415 0 1.105-0.896 2.002-2.002 2.002-0.553 0-1.053-0.224-1.415-0.586v0c-0.362-0.362-0.586-0.863-0.586-1.415 0-1.105 0.896-2.002 2.002-2.002 0.553 0 1.053 0.224 1.415 0.586v0z"></path>
</svg>
