<!-- Generated by IcoMoon.io -->
<svg version="1.1" xmlns="http://www.w3.org/2000/svg" width="32" height="32" viewBox="0 0 32 32">
<title>wifi-settings-filled</title>
<path d="M28.552 12.987c-2.767-4-7.33-6.587-12.497-6.587-4.183 0-7.97 1.695-10.711 4.436v0c-0.635 0.643-1.216 1.342-1.734 2.089l-0.034 0.052c-0.134 0.191-0.214 0.428-0.214 0.684 0 0.663 0.537 1.2 1.2 1.2 0.407 0 0.767-0.203 0.984-0.512l0.003-0.004c0.467-0.675 0.957-1.267 1.493-1.813l-0.002 0.002c2.307-2.307 5.494-3.734 9.014-3.734 4.351 0 8.193 2.18 10.494 5.507l0.028 0.043c0.219 0.315 0.58 0.519 0.988 0.519 0.663 0 1.2-0.537 1.2-1.2 0-0.255-0.079-0.491-0.215-0.685l0.003 0.004zM11.382 17.68c1.196-1.196 2.848-1.936 4.673-1.936 0.716 0 1.406 0.114 2.052 0.325l-0.047-0.013c-0.8 0.576-1.498 1.283-2.064 2.090-1.059 0.016-2.112 0.426-2.918 1.232-0.361 0.366-0.655 0.797-0.865 1.275l-0.011 0.027c-0.19 0.427-0.611 0.718-1.099 0.718-0.663 0-1.2-0.537-1.2-1.2 0-0.174 0.037-0.34 0.104-0.489l-0.003 0.008c0.334-0.762 0.797-1.456 1.376-2.037zM23.344 13.858c0.181 0.181 0.355 0.37 0.523 0.568-0.198-0.016-0.429-0.025-0.662-0.025-0.887 0-1.744 0.129-2.553 0.37l0.063-0.016c-1.289-0.948-2.908-1.518-4.659-1.518-3.064 0-5.721 1.742-7.035 4.29l-0.021 0.044c-0.197 0.409-0.608 0.685-1.084 0.685-0.663 0-1.2-0.537-1.2-1.2 0-0.208 0.053-0.404 0.146-0.575l-0.003 0.006c1.739-3.379 5.202-5.65 9.196-5.65 2.846 0 5.423 1.153 7.289 3.018v0zM19.307 18.307c0.076 0.259 0.119 0.557 0.119 0.864 0 1.486-1.013 2.736-2.386 3.096l-0.022 0.005-0.738 0.189c-0.023 0.222-0.036 0.479-0.036 0.739 0 0.312 0.019 0.62 0.056 0.923l-0.004-0.036 0.56 0.133c1.423 0.345 2.464 1.608 2.464 3.114 0 0.327-0.049 0.642-0.14 0.939l0.006-0.023-0.203 0.677c0.411 0.325 0.859 0.603 1.336 0.829l0.52-0.552c0.585-0.618 1.411-1.003 2.326-1.003 0.917 0 1.745 0.386 2.328 1.005l0.001 0.002 0.539 0.573c0.467-0.216 0.909-0.483 1.315-0.797l-0.251-0.89c-0.076-0.259-0.119-0.557-0.119-0.864 0-1.486 1.013-2.736 2.386-3.096l0.022-0.005 0.736-0.189c0.023-0.222 0.037-0.479 0.037-0.74 0-0.313-0.019-0.621-0.056-0.923l0.004 0.036-0.557-0.131c-1.423-0.345-2.464-1.608-2.464-3.114 0-0.327 0.049-0.642 0.14-0.939l-0.006 0.023 0.202-0.675c-0.388-0.309-0.827-0.586-1.295-0.811l-0.041-0.018-0.52 0.549c-0.585 0.619-1.411 1.004-2.327 1.004s-1.744-0.386-2.327-1.004l-0.001-0.002-0.539-0.573c-0.501 0.234-0.932 0.499-1.329 0.807l0.016-0.012 0.25 0.891zM23.2 24.8c-0.884 0-1.6-0.716-1.6-1.6s0.716-1.6 1.6-1.6v0c0.884 0 1.6 0.716 1.6 1.6s-0.716 1.6-1.6 1.6v0z"></path>
</svg>
