<!-- Generated by IcoMoon.io -->
<svg version="1.1" xmlns="http://www.w3.org/2000/svg" width="32" height="32" viewBox="0 0 32 32">
<title>wifi-3-filled</title>
<path d="M14.584 21.928c0.362-0.362 0.863-0.586 1.415-0.586 1.105 0 2.002 0.896 2.002 2.002 0 0.553-0.224 1.053-0.586 1.415v0c-0.362 0.362-0.863 0.586-1.415 0.586-1.105 0-2.002-0.896-2.002-2.002 0-0.553 0.224-1.053 0.586-1.415v0zM11.113 18.272c1.263-1.262 3.007-2.043 4.933-2.043s3.671 0.781 4.933 2.043v0c0.613 0.615 1.117 1.367 1.468 2.167 0.071 0.158 0.112 0.342 0.112 0.535 0 0.736-0.597 1.334-1.334 1.334-0.543 0-1.010-0.324-1.218-0.79l-0.003-0.008c-0.231-0.523-0.537-0.971-0.911-1.351l0.001 0.001c-0.78-0.78-1.858-1.262-3.048-1.262s-2.268 0.482-3.048 1.262v0c-0.369 0.375-0.671 0.816-0.885 1.305l-0.011 0.028c-0.208 0.482-0.679 0.813-1.228 0.813-0.736 0-1.333-0.597-1.333-1.333 0-0.199 0.044-0.388 0.122-0.558l-0.003 0.008c0.366-0.834 0.855-1.547 1.454-2.151l-0.001 0.001z"></path>
</svg>
