<!-- Generated by IcoMoon.io -->
<svg version="1.1" xmlns="http://www.w3.org/2000/svg" width="32" height="32" viewBox="0 0 32 32">
<title>wifi-lock-filled</title>
<path d="M8.667 16c4.050 0 7.333 3.283 7.333 7.333s-3.283 7.333-7.333 7.333-7.333-3.283-7.333-7.333c0-4.050 3.283-7.333 7.333-7.333zM8.667 18.664c-1.224 0-2.228 0.943-2.326 2.142l-0.008 0.191 0 1.042c-0.527 0.135-0.929 0.586-0.992 1.138l-0.009 0.153v3.333c0 0.684 0.515 1.247 1.178 1.324l0.155 0.009h4c0.684 0 1.247-0.515 1.324-1.178l0.009-0.155v-3.333c0-0.569-0.357-1.055-0.859-1.246l-0.14-0.045-0.001-1.042c0-1.289-1.045-2.333-2.333-2.333zM21.008 18.268c0.614 0.614 1.118 1.366 1.468 2.166 0.295 0.674-0.012 1.461-0.686 1.756s-1.461-0.012-1.756-0.686c-0.22-0.503-0.538-0.977-0.911-1.351-0.833-0.833-1.922-1.254-3.013-1.262-0.542-0.908-1.247-1.709-2.075-2.363 2.385-0.728 5.085-0.148 6.973 1.739zM8.667 19.998c0.506 0 0.925 0.376 0.991 0.864l0.009 0.136v1h-2v-1c0-0.552 0.448-1 1-1zM23.74 14.279c0.795 0.795 1.482 1.757 2.005 2.78 0.335 0.656 0.076 1.459-0.58 1.794s-1.459 0.076-1.794-0.58c-0.4-0.782-0.924-1.516-1.516-2.109-2.807-2.807-7.147-3.145-10.323-1.014-0.896-0.314-1.86-0.484-2.865-0.484-0.216 0-0.431 0.008-0.643 0.023 0.126-0.14 0.256-0.277 0.39-0.411 4.232-4.232 11.094-4.232 15.326 0zM27.253 11.067c0.677 0.677 1.316 1.45 1.872 2.255 0.418 0.606 0.266 1.436-0.34 1.855s-1.436 0.266-1.855-0.34c-0.466-0.675-1.002-1.324-1.563-1.884-5.163-5.163-13.534-5.163-18.697 0-0.532 0.532-1.063 1.181-1.547 1.879-0.42 0.605-1.25 0.755-1.856 0.335s-0.755-1.25-0.336-1.855c0.571-0.823 1.201-1.593 1.853-2.245 6.204-6.204 16.264-6.204 22.468 0z"></path>
</svg>
