<!-- Generated by IcoMoon.io -->
<svg version="1.1" xmlns="http://www.w3.org/2000/svg" width="32" height="32" viewBox="0 0 32 32">
<title>wifi-1-filled</title>
<path d="M23.712 14.277c0.787 0.796 1.456 1.713 1.976 2.718l0.029 0.062c0.081 0.167 0.129 0.364 0.129 0.572 0 0.736-0.597 1.333-1.333 1.333-0.501 0-0.937-0.276-1.165-0.685l-0.003-0.007c-0.416-0.809-0.922-1.503-1.518-2.108l0.001 0.001c-1.479-1.479-3.522-2.394-5.779-2.394-3.165 0-5.91 1.799-7.267 4.431l-0.021 0.046c-0.229 0.423-0.67 0.705-1.176 0.705-0.736 0-1.333-0.597-1.333-1.333 0-0.209 0.048-0.407 0.134-0.584l-0.003 0.008c1.828-3.552 5.469-5.94 9.667-5.94 2.993 0 5.702 1.213 7.663 3.174v0zM20.98 18.267c0.613 0.613 1.117 1.365 1.469 2.165 0.071 0.158 0.112 0.342 0.112 0.535 0 0.736-0.597 1.334-1.334 1.334-0.543 0-1.010-0.324-1.218-0.79l-0.003-0.008c-0.231-0.523-0.538-0.971-0.913-1.351l0.001 0.001c-0.78-0.78-1.858-1.262-3.048-1.262s-2.268 0.482-3.048 1.262v0c-0.369 0.375-0.671 0.816-0.885 1.305l-0.011 0.028c-0.208 0.482-0.679 0.813-1.228 0.813-0.736 0-1.333-0.597-1.333-1.333 0-0.199 0.044-0.388 0.122-0.558l-0.003 0.008c0.366-0.834 0.855-1.546 1.454-2.15l-0.001 0c1.263-1.262 3.007-2.043 4.933-2.043s3.671 0.781 4.933 2.043v0zM27.225 11.065c0.677 0.677 1.316 1.449 1.872 2.255 0.145 0.21 0.231 0.47 0.231 0.75 0 0.736-0.597 1.333-1.333 1.333-0.45 0-0.848-0.223-1.089-0.564l-0.003-0.004c-0.467-0.675-1.003-1.324-1.563-1.884-5.163-5.163-13.533-5.163-18.697 0-0.532 0.532-1.063 1.181-1.547 1.88-0.244 0.349-0.644 0.574-1.096 0.574-0.737 0-1.334-0.597-1.334-1.334 0-0.284 0.089-0.548 0.241-0.764l-0.003 0.004c0.571-0.824 1.201-1.593 1.853-2.245 6.204-6.205 16.264-6.205 22.468 0zM17.416 21.921c0.362 0.362 0.586 0.863 0.586 1.415 0 1.105-0.896 2.002-2.002 2.002-0.553 0-1.053-0.224-1.415-0.586v0c-0.362-0.362-0.586-0.863-0.586-1.415 0-1.105 0.896-2.002 2.002-2.002 0.553 0 1.053 0.224 1.415 0.586v0z"></path>
</svg>
