<!-- Generated by IcoMoon.io -->
<svg version="1.1" xmlns="http://www.w3.org/2000/svg" width="32" height="32" viewBox="0 0 32 32">
<title>wifi-2-filled</title>
<path d="M14.613 21.92c0.365-0.385 0.881-0.624 1.452-0.624 1.105 0 2.001 0.896 2.001 2.001 0 0.571-0.239 1.086-0.623 1.451l-0.001 0.001c-0.36 0.35-0.852 0.566-1.394 0.566-1.105 0-2.001-0.896-2.001-2.001 0-0.542 0.215-1.034 0.565-1.394l-0 0zM11.141 18.264c1.262-1.263 3.007-2.044 4.933-2.044s3.671 0.781 4.933 2.044l0 0c0.613 0.615 1.117 1.367 1.468 2.167 0.071 0.158 0.112 0.342 0.112 0.535 0 0.736-0.597 1.334-1.334 1.334-0.543 0-1.010-0.324-1.218-0.79l-0.003-0.008c-0.231-0.523-0.537-0.971-0.911-1.351l0.001 0.001c-0.78-0.78-1.858-1.262-3.048-1.262s-2.268 0.482-3.048 1.262v0c-0.369 0.375-0.671 0.816-0.885 1.305l-0.011 0.028c-0.208 0.482-0.679 0.813-1.228 0.813-0.736 0-1.333-0.597-1.333-1.333 0-0.199 0.044-0.388 0.122-0.558l-0.003 0.008c0.366-0.834 0.855-1.547 1.454-2.151l-0.001 0.001zM8.413 14.276c1.961-1.961 4.671-3.174 7.663-3.174s5.702 1.213 7.663 3.174v0c0.787 0.796 1.456 1.712 1.976 2.718l0.029 0.062c0.092 0.176 0.146 0.385 0.146 0.607 0 0.736-0.597 1.333-1.333 1.333-0.515 0-0.962-0.292-1.184-0.719l-0.003-0.007c-0.416-0.809-0.921-1.504-1.517-2.109l0.001 0.001c-1.479-1.479-3.522-2.394-5.779-2.394-3.165 0-5.91 1.799-7.267 4.431l-0.021 0.046c-0.218 0.458-0.676 0.768-1.208 0.768-0.736 0-1.333-0.597-1.333-1.333 0-0.234 0.060-0.454 0.166-0.645l-0.003 0.007c0.544-1.064 1.213-1.976 2.004-2.765l0-0z"></path>
</svg>
