<!-- Generated by IcoMoon.io -->
<svg version="1.1" xmlns="http://www.w3.org/2000/svg" width="32" height="32" viewBox="0 0 32 32">
<title>wifi-lock-filled</title>
<path d="M23.712 14.277c0.787 0.796 1.456 1.713 1.976 2.718l0.029 0.062c0.081 0.167 0.129 0.364 0.129 0.572 0 0.736-0.597 1.333-1.333 1.333-0.501 0-0.937-0.276-1.165-0.685l-0.003-0.007c-0.416-0.809-0.922-1.503-1.518-2.108l0.001 0.001c-1.479-1.48-3.523-2.395-5.78-2.395-1.309 0-2.546 0.308-3.643 0.855l0.047-0.021c-0.58-0.797-1.388-1.397-2.328-1.707l-0.033-0.009c1.678-1.118 3.74-1.784 5.958-1.784 2.993 0 5.703 1.213 7.665 3.175v0zM6.643 12.951c-0.115 0.115-0.227 0.232-0.336 0.352l-0.008 0.008c-0.801 0.478-1.433 1.165-1.833 1.986l-0.012 0.028c-0.136 0.051-0.293 0.081-0.457 0.081-0.736 0-1.332-0.596-1.332-1.332 0-0.285 0.090-0.55 0.242-0.766l-0.003 0.004c0.571-0.824 1.201-1.593 1.853-2.245 6.204-6.205 16.264-6.205 22.468 0 0.677 0.677 1.316 1.449 1.872 2.255 0.145 0.21 0.231 0.47 0.231 0.75 0 0.736-0.597 1.333-1.333 1.333-0.45 0-0.848-0.223-1.089-0.564l-0.003-0.004c-0.467-0.675-1.003-1.324-1.563-1.884-5.163-5.163-13.533-5.163-18.697 0zM20.98 18.267c0.613 0.613 1.117 1.365 1.469 2.165 0.071 0.158 0.112 0.342 0.112 0.535 0 0.736-0.597 1.334-1.334 1.334-0.543 0-1.010-0.324-1.218-0.79l-0.003-0.008c-0.231-0.523-0.538-0.971-0.913-1.351l0.001 0.001c-0.779-0.78-1.855-1.262-3.044-1.262-0.191 0-0.379 0.012-0.564 0.037l0.022-0.002c-0.48-0.774-1.249-1.33-2.153-1.52l-0.022-0.004v-0.067c0-0.187-0.011-0.369-0.032-0.549 0.809-0.355 1.753-0.562 2.744-0.562 1.928 0 3.673 0.782 4.936 2.045l0 0zM17.416 21.921c0.363 0.362 0.587 0.863 0.587 1.416 0 1.105-0.896 2.001-2.001 2.001-0.001 0-0.001 0-0.002 0h0v-4.003c0.512 0 1.024 0.195 1.416 0.587zM5.333 18.667v-1.333c0-1.841 1.492-3.333 3.333-3.333s3.333 1.492 3.333 3.333v0 1.333h0.667c1.105 0 2 0.895 2 2v0 6.667c0 1.105-0.895 2-2 2v0h-8c-1.105 0-2-0.895-2-2v0-6.667c0-1.105 0.895-2 2-2v0h0.667zM7.333 17.333v1.333h2.667v-1.333c0-0.736-0.597-1.333-1.333-1.333s-1.333 0.597-1.333 1.333v0zM10 24c0-0.736-0.597-1.333-1.333-1.333s-1.333 0.597-1.333 1.333v0c0 0.736 0.597 1.333 1.333 1.333s1.333-0.597 1.333-1.333v0z"></path>
</svg>
