<!-- Generated by IcoMoon.io -->
<svg version="1.1" xmlns="http://www.w3.org/2000/svg" width="32" height="32" viewBox="0 0 32 32">
<title>wifi-2-filled</title>
<path d="M14.612 21.92c0.782-0.782 2.049-0.782 2.83 0s0.782 2.049 0 2.83c-0.782 0.782-2.049 0.782-2.83 0s-0.782-2.049 0-2.83zM11.141 18.265c2.725-2.725 7.142-2.725 9.867 0 0.614 0.614 1.118 1.366 1.468 2.166 0.296 0.674-0.012 1.461-0.686 1.756s-1.461-0.012-1.756-0.686c-0.22-0.503-0.538-0.977-0.911-1.351-1.683-1.683-4.412-1.683-6.096 0-0.371 0.371-0.674 0.825-0.896 1.334-0.295 0.675-1.081 0.982-1.756 0.687s-0.982-1.081-0.687-1.756c0.352-0.805 0.84-1.537 1.454-2.15zM8.413 14.276c4.232-4.232 11.094-4.232 15.326 0 0.795 0.795 1.482 1.757 2.005 2.78 0.335 0.656 0.076 1.459-0.58 1.794s-1.459 0.076-1.794-0.58c-0.4-0.782-0.924-1.516-1.516-2.109-3.191-3.191-8.364-3.191-11.555 0-0.62 0.62-1.123 1.317-1.511 2.083-0.332 0.657-1.135 0.92-1.792 0.588s-0.92-1.134-0.588-1.792c0.515-1.017 1.184-1.944 2.005-2.765z"></path>
</svg>
