<!-- Generated by IcoMoon.io -->
<svg version="1.1" xmlns="http://www.w3.org/2000/svg" width="32" height="32" viewBox="0 0 32 32">
<title>window-ad-filled</title>
<path d="M10.4 12.8c-0.442 0-0.8 0.358-0.8 0.8v0 6.4c0 0.442 0.358 0.8 0.8 0.8v0h6.4c0.442 0 0.8-0.358 0.8-0.8v0-6.4c0-0.442-0.358-0.8-0.8-0.8v0h-6.4zM16 14.4v4.8h-4.8v-4.8h4.8zM4.8 8.8c0-2.209 1.791-4 4-4v0h14.4c2.209 0 4 1.791 4 4v0 14.4c0 2.209-1.791 4-4 4v0h-14.4c-2.209 0-4-1.791-4-4v0-14.4zM7.2 11.2v11.6c0 1.104 0.896 2 2 2h13.6c1.104 0 2-0.896 2-2v-11.6h-17.6z"></path>
</svg>
