<!-- Generated by IcoMoon.io -->
<svg version="1.1" xmlns="http://www.w3.org/2000/svg" width="32" height="32" viewBox="0 0 32 32">
<title>window-inprivate-filled</title>
<path d="M8.797 4.802c-2.209 0-4 1.791-4 4v0 14.4c0 2.209 1.791 4 4 4v0h14.4c2.209 0 4-1.791 4-4v0-10.402h0.003v-2.4h-0.003v-1.598c0-2.209-1.791-4-4-4v0h-14.4zM24.8 9.6v0.8h-2.064l1.83-1.832c0.15 0.312 0.234 0.662 0.234 1.032zM23.437 7.435l-2.965 2.965h-4.526l3.2-3.2h3.254c0.371 0 0.723 0.085 1.037 0.235zM16.883 7.2l-3.2 3.2h-4.525l3.2-3.2h4.525zM10.096 7.2l-2.896 2.896v-0.496c0-1.325 1.075-2.4 2.4-2.4v0h0.496zM11.283 12.8l-4.083 4.083v-4.083h4.083zM7.2 19.146l6.346-6.346h4.526l-10.637 10.637c-0.148-0.302-0.235-0.658-0.235-1.034 0-0.001 0-0.002 0-0.003v0-3.254zM20.336 12.8h4.464v0.059l-11.941 11.941h-3.259c-0.37 0-0.72-0.083-1.032-0.234l11.766-11.766zM24.8 15.123v4.525l-5.152 5.152h-4.525l9.677-9.677zM24.8 21.91v0.49c0 1.325-1.075 2.4-2.4 2.4v0h-0.49l2.89-2.89z"></path>
</svg>
