<!-- Generated by IcoMoon.io -->
<svg version="1.1" xmlns="http://www.w3.org/2000/svg" width="32" height="32" viewBox="0 0 32 32">
<title>window-multiple-filled</title>
<path d="M7.2 3.2c-2.209 0-4 1.791-4 4v0 12.8c0 2.209 1.791 4 4 4v0h12.8c2.209 0 4-1.791 4-4v0-12.8c0-2.209-1.791-4-4-4v0h-12.8zM4.8 20v-10.4h17.6v10.4c0 1.325-1.075 2.4-2.4 2.4v0h-12.8c-1.325 0-2.4-1.075-2.4-2.4v0zM12 28.8c-0 0-0.001 0-0.001 0-1.926 0-3.534-1.361-3.915-3.174l-0.005-0.026h1.656c0.339 0.94 1.224 1.6 2.263 1.6 0 0 0.001 0 0.001 0h10.4c2.651 0 4.8-2.149 4.8-4.8v0-10.4c0-0 0-0.001 0-0.001 0-1.039-0.66-1.923-1.583-2.257l-0.017-0.005v-1.656c1.839 0.385 3.2 1.993 3.2 3.919 0 0 0 0.001 0 0.001v-0 10.4c0 3.535-2.865 6.4-6.4 6.4v0h-10.4z"></path>
</svg>
