<!-- Generated by IcoMoon.io -->
<svg version="1.1" xmlns="http://www.w3.org/2000/svg" width="32" height="32" viewBox="0 0 32 32">
<title>window-new-filled</title>
<path d="M25.333 23.967v-0.181c1.566-0.653 2.667-2.199 2.667-4.001v-11.451c0-2.393-1.94-4.333-4.333-4.333h-11.333c-1.928 0-3.562 1.259-4.124 3h-0.268c-1.216 0-2.251 0.428-2.963 1.271-0.691 0.818-0.979 1.908-0.979 3.062v11.667c0 1.414 0.511 2.685 1.481 3.599 0.967 0.911 2.31 1.394 3.852 1.394l10.664 0.006c1.301 0.006 2.592-0.267 3.591-0.908 1.039-0.665 1.745-1.726 1.745-3.125zM7.941 9h0.059v10.784c0 2.393 1.94 4.333 4.333 4.333h10.994c-0.042 0.557-0.322 0.973-0.818 1.291-0.578 0.37-1.454 0.597-2.505 0.592l-10.672-0.006c-1.124 0-1.947-0.347-2.481-0.85-0.53-0.499-0.852-1.224-0.852-2.144v-11.667c0-0.846 0.212-1.423 0.507-1.771 0.273-0.324 0.71-0.562 1.435-0.562zM16.029 8.667h6.305c0.552 0 1 0.448 1 1v6.305c0 0.552-0.448 1-1 1s-1-0.448-1-1v-3.89l-6.96 6.96c-0.391 0.391-1.024 0.391-1.414 0s-0.391-1.024 0-1.414l6.96-6.96h-3.89c-0.552 0-1-0.448-1-1s0.448-1 1-1z"></path>
</svg>
