<!-- Generated by IcoMoon.io -->
<svg version="1.1" xmlns="http://www.w3.org/2000/svg" width="32" height="32" viewBox="0 0 32 32">
<title>window-ad-off-filled</title>
<path d="M4.566 3.434l24 24c0.145 0.145 0.235 0.345 0.235 0.566 0 0.442-0.359 0.801-0.801 0.801-0.221 0-0.421-0.090-0.566-0.235l-2.027-2.029c-0.619 0.415-1.38 0.662-2.2 0.662-0.002 0-0.005 0-0.007 0h-14.4c-2.209 0-4-1.791-4-4v0-14.4c0-0.816 0.243-1.573 0.662-2.206l-2.029-2.027c-0.145-0.145-0.235-0.345-0.235-0.566 0-0.442 0.359-0.801 0.801-0.801 0.221 0 0.421 0.090 0.566 0.235v0zM23.531 24.662l-5.931-5.931v1.269c0 0.442-0.358 0.8-0.8 0.8v0h-6.4c-0.442 0-0.8-0.358-0.8-0.8v0-6.4c0-0.442 0.358-0.8 0.8-0.8v0h1.269l-1.6-1.6h-2.869v11.6c0 1.104 0.896 2 2 2h13.6c0.258 0 0.504-0.048 0.731-0.138zM13.269 14.4h-2.069v4.8h4.8v-2.069l-2.731-2.731zM24.8 21.406v-10.206h-10.206l-6.36-6.36c0.186-0.027 0.374-0.040 0.566-0.040h14.4c2.209 0 4 1.791 4 4v0 14.4c0 0.192-0.014 0.381-0.040 0.566l-2.36-2.36z"></path>
</svg>
