<!-- Generated by IcoMoon.io -->
<svg version="1.1" xmlns="http://www.w3.org/2000/svg" width="32" height="32" viewBox="0 0 32 32">
<title>window-console-filled</title>
<path d="M9.034 14.634c0.145-0.145 0.345-0.235 0.566-0.235s0.422 0.090 0.566 0.235l3.2 3.2c0.145 0.145 0.235 0.345 0.235 0.566s-0.090 0.422-0.235 0.566l-3.2 3.2c-0.145 0.145-0.345 0.235-0.566 0.235-0.442 0-0.801-0.359-0.801-0.801 0-0.221 0.090-0.421 0.235-0.566v0l2.635-2.634-2.635-2.634c-0.145-0.145-0.235-0.345-0.235-0.566s0.090-0.422 0.235-0.566l0-0zM22.4 20.8h-7.2c-0.442 0-0.8 0.358-0.8 0.8s0.358 0.8 0.8 0.8v0h7.2c0.442 0 0.8-0.358 0.8-0.8s-0.358-0.8-0.8-0.8v0zM4.8 8.8c0-2.209 1.791-4 4-4v0h14.4c2.209 0 4 1.791 4 4v0 14.4c0 2.209-1.791 4-4 4v0h-14.4c-2.209 0-4-1.791-4-4v0-14.4zM7.2 11.2v11.6c0 1.104 0.896 2 2 2h13.6c1.104 0 2-0.896 2-2v-11.6h-17.6z"></path>
</svg>
