<!-- Generated by IcoMoon.io -->
<svg version="1.1" xmlns="http://www.w3.org/2000/svg" width="32" height="32" viewBox="0 0 32 32">
<title>window-inprivate-account-filled</title>
<path d="M4.8 8.8c0-2.209 1.791-4 4-4v0h14.4c2.209 0 4 1.791 4 4v0 0.8h-22.395v1.6h19.195c-0 0-0.001 0-0.001 0-3.093 0-5.6 2.507-5.6 5.6 0 1.567 0.643 2.983 1.68 3.999l0.001 0.001c-1.306 0-2.338 0.659-2.982 1.382-0.669 0.742-1.083 1.726-1.098 2.807l-0 0.003v0.512c0 0.595 0.090 1.162 0.256 1.696h-7.456c-2.209 0-4-1.791-4-4v0-14.4zM24 20.8c-2.209 0-4-1.791-4-4s1.791-4 4-4c1.304 0 2.462 0.624 3.193 1.59l0.007 0.010h-3.2v1.6h3.92c0.051 0.241 0.080 0.517 0.080 0.8s-0.029 0.559-0.085 0.826l0.005-0.026h-3.92v1.6h3.2c-0.73 0.971-1.891 1.6-3.2 1.6zM20.080 22.4c-0.744 0-1.368 0.376-1.786 0.846-0.416 0.466-0.694 1.098-0.694 1.746v0.512c0 2.614 2.613 4.896 6.4 4.896 1.984 0 3.648-0.627 4.781-1.6h-4.781v-1.6h6.018c0.227-0.468 0.366-1.016 0.381-1.595l0-0.005h-6.398v-1.6h6.187c-0.127-0.289-0.288-0.538-0.483-0.756l0.003 0.003c-0.419-0.47-1.043-0.846-1.787-0.846h-7.84z"></path>
</svg>
