<!-- Generated by IcoMoon.io -->
<svg version="1.1" xmlns="http://www.w3.org/2000/svg" width="32" height="32" viewBox="0 0 32 32">
<title>window-apps-filled</title>
<path d="M4 8.167c0-2.301 1.865-4.167 4.167-4.167v0h15.667c2.301 0 4.167 1.865 4.167 4.167v0 3.833h-1.667v-1h-20.667v12.833c0 1.381 1.119 2.5 2.5 2.5v0h3.833v1.667h-3.833c-2.301 0-4.167-1.865-4.167-4.167v0-15.667zM23.667 13.333c-1.381 0-2.5 1.119-2.5 2.5v0 5.333h-5.333c-1.381 0-2.5 1.119-2.5 2.5v0 4.5c0 1.381 1.119 2.5 2.5 2.5v0h10.667c2.301 0 4.167-1.865 4.167-4.167v0-10.667c0-1.381-1.119-2.5-2.5-2.5v0h-4.5zM22.833 15.833c0-0.46 0.373-0.833 0.833-0.833h4.5c0.46 0 0.833 0.373 0.833 0.833v5.333h-6.167v-5.333zM29 22.833v3.667c0 1.381-1.119 2.5-2.5 2.5v0h-3.667v-6.167h6.167zM15.833 22.833h5.333v6.167h-5.333c-0.46 0-0.833-0.373-0.833-0.833v-4.5c0-0.46 0.373-0.833 0.833-0.833z"></path>
</svg>
