<!-- Generated by IcoMoon.io -->
<svg version="1.1" xmlns="http://www.w3.org/2000/svg" width="32" height="32" viewBox="0 0 32 32">
<title>window-multiple-swap-filled</title>
<path d="M3.2 7.2c0-2.209 1.791-4 4-4v0h12.8c2.209 0 4 1.791 4 4v0 12.8c0 2.209-1.791 4-4 4v0h-2.536c0.087-0.238 0.137-0.513 0.137-0.8s-0.050-0.562-0.142-0.817l0.005 0.017h2.536c1.325 0 2.4-1.075 2.4-2.4v0-10.4h-17.6v8.136c-0.351 0.126-0.65 0.319-0.896 0.566l-0.704 0.704v-11.806zM22.4 28.8h-10.4c0.614 0 1.229-0.234 1.696-0.704l0.898-0.896h7.806c2.651 0 4.8-2.149 4.8-4.8v0-10.4c0-0 0-0.001 0-0.001 0-1.039-0.66-1.923-1.583-2.257l-0.017-0.005v-1.656c1.839 0.385 3.2 1.993 3.2 3.919 0 0 0 0.001 0 0.001v-0 10.4c0 3.535-2.865 6.4-6.4 6.4v0zM15.766 23.766l-3.2 3.2c-0.145 0.145-0.345 0.235-0.566 0.235-0.442 0-0.801-0.359-0.801-0.801 0-0.221 0.090-0.421 0.235-0.566l1.835-1.834h-8.938l1.835 1.834c0.145 0.145 0.235 0.345 0.235 0.566 0 0.442-0.359 0.801-0.801 0.801-0.221 0-0.421-0.090-0.566-0.235l-3.2-3.2c-0.145-0.145-0.235-0.345-0.235-0.566s0.090-0.422 0.235-0.566l3.2-3.2c0.145-0.145 0.345-0.235 0.566-0.235 0.442 0 0.801 0.359 0.801 0.801 0 0.221-0.090 0.421-0.235 0.566v0l-1.835 1.834h8.938l-1.835-1.834c-0.145-0.145-0.235-0.345-0.235-0.566 0-0.442 0.359-0.801 0.801-0.801 0.221 0 0.421 0.090 0.566 0.235v0l3.2 3.2c0.145 0.145 0.235 0.345 0.235 0.566s-0.090 0.422-0.235 0.566l-0 0zM5.189 22.4h2.12z"></path>
</svg>
