<!-- Generated by IcoMoon.io -->
<svg version="1.1" xmlns="http://www.w3.org/2000/svg" width="32" height="32" viewBox="0 0 32 32">
<title>window-play-filled</title>
<path d="M27.2 8.8c0-2.209-1.791-4-4-4v0h-14.4c-2.209 0-4 1.791-4 4v0 0.8h22.4v-0.8zM27.2 15.36v-4.16h-22.4v12c0 2.209 1.791 4 4 4v0h6.56c-0.607-1.164-0.963-2.542-0.963-4.003 0-4.86 3.94-8.8 8.8-8.8 1.461 0 2.839 0.356 4.052 0.986l-0.049-0.023zM30.4 23.2c0 3.976-3.224 7.2-7.2 7.2s-7.2-3.224-7.2-7.2v0c0-3.976 3.224-7.2 7.2-7.2s7.2 3.224 7.2 7.2v0zM26.741 22.501l-4.752-2.64c-0.112-0.063-0.246-0.101-0.389-0.101-0.442 0-0.8 0.358-0.8 0.8 0 0 0 0 0 0v0 5.28c0 0 0 0 0 0 0 0.442 0.358 0.8 0.8 0.8 0.143 0 0.277-0.037 0.393-0.103l-0.004 0.002 4.752-2.64c0.247-0.139 0.411-0.4 0.411-0.699s-0.164-0.56-0.407-0.697l-0.004-0.002z"></path>
</svg>
