<!-- Generated by IcoMoon.io -->
<svg version="1.1" xmlns="http://www.w3.org/2000/svg" width="32" height="32" viewBox="0 0 32 32">
<title>window-edit-filled</title>
<path d="M4.8 9.6c0-2.651 2.149-4.8 4.8-4.8v0h12.8c2.651 0 4.8 2.149 4.8 4.8v0 4.805c-0.546 0.026-1.088 0.147-1.6 0.366v-3.571h-19.2v11.2c0 1.767 1.433 3.2 3.2 3.2v0h5.56c-0.016 0.046-0.040 0.129-0.061 0.213l-0.008 0.035-0.339 1.352h-5.152c-2.651 0-4.8-2.149-4.8-4.8v0-12.8zM17.568 24.603l7.728-7.728c0.541-0.541 1.289-0.876 2.115-0.876 1.653 0 2.992 1.34 2.992 2.992 0 0.827-0.335 1.575-0.877 2.117l-7.728 7.726c-0.437 0.438-0.99 0.76-1.608 0.919l-0.024 0.005-2.397 0.598c-0.103 0.027-0.222 0.042-0.344 0.042-0.786 0-1.424-0.638-1.424-1.424 0-0.122 0.015-0.24 0.044-0.353l-0.002 0.010 0.6-2.397c0.163-0.643 0.486-1.195 0.925-1.632l0-0z"></path>
</svg>
