<!-- Generated by IcoMoon.io -->
<svg version="1.1" xmlns="http://www.w3.org/2000/svg" width="32" height="32" viewBox="0 0 32 32">
<title>window-database-filled</title>
<path d="M4 8.333c0-2.393 1.94-4.333 4.333-4.333v0h15.333c2.393 0 4.333 1.94 4.333 4.333v0 6.101c-0.557-0.138-1.238-0.255-1.932-0.328l-0.068-0.006v-2.768h-20v12.333c0 1.288 1.045 2.333 2.333 2.333h7v2h-7c-2.393 0-4.333-1.94-4.333-4.333v0-15.333zM19.552 16.641c1.183-0.405 2.757-0.641 4.448-0.641s3.265 0.236 4.448 0.641c0.591 0.203 1.12 0.46 1.517 0.78 0.399 0.321 0.701 0.743 0.701 1.245s-0.303 0.924-0.701 1.245c-0.396 0.32-0.927 0.577-1.517 0.78-1.183 0.405-2.757 0.641-4.448 0.641s-3.265-0.236-4.448-0.641c-0.589-0.203-1.12-0.46-1.517-0.78-0.399-0.321-0.701-0.743-0.701-1.245s0.303-0.924 0.701-1.245c0.396-0.32 0.928-0.577 1.517-0.78zM17.333 28.001v-6.141c0.508 0.315 1.055 0.547 1.571 0.724 1.44 0.493 3.244 0.749 5.096 0.749 1.853 0 3.656-0.255 5.097-0.749 0.601-0.203 1.12-0.447 1.604-0.743l-0.034 0.019v6.14c0 0.569-0.349 1.004-0.728 1.301-0.388 0.304-0.908 0.549-1.491 0.744-1.171 0.391-2.747 0.621-4.448 0.621-1.703 0-3.276-0.231-4.448-0.621-0.583-0.195-1.103-0.44-1.491-0.744-0.379-0.297-0.728-0.733-0.728-1.301z"></path>
</svg>
