<!-- Generated by IcoMoon.io -->
<svg version="1.1" xmlns="http://www.w3.org/2000/svg" width="32" height="32" viewBox="0 0 32 32">
<title>window-shield-filled</title>
<path d="M23.667 4l0.245 0.007c2.201 0.128 3.953 1.88 4.082 4.068l0.001 0.012 0.005 0.247v8.48c-0.916-0.173-1.793-0.668-2.66-1.573l-0.007-0.007v-4.567h-18.667v13c0 0.863 0.655 1.573 1.496 1.659l0.171 0.008h9.501c0.355 1.030 0.882 1.918 1.552 2.675l-0.007-0.008h-11.047c-0 0-0 0-0 0-2.307 0-4.193-1.803-4.326-4.076l-0.001-0.012-0.007-0.245v-15.333c0-0 0-0 0-0 0-2.306 1.802-4.192 4.075-4.326l0.012-0.001 0.247-0.007h15.333zM25.333 17.019c0.835 0.632 1.721 1.012 2.667 1.147 0.263 0.039 0.529 0.057 0.8 0.057 0.257 0 0.473 0.191 0.523 0.443l0.011 0.112v3.335c0 3.576-1.751 6.008-5.164 7.193-0.050 0.018-0.108 0.029-0.169 0.029s-0.118-0.010-0.172-0.030l0.004 0.001c-0.955-0.323-1.783-0.766-2.521-1.322l0.023 0.016c-0.905-0.686-1.614-1.585-2.057-2.625l-0.016-0.042c-0.356-0.848-0.552-1.804-0.587-2.867l-0.007-0.355v-3.333c0-0.307 0.24-0.556 0.533-0.556 1.631 0 3.099-0.68 4.424-2.060 0.095-0.1 0.229-0.163 0.377-0.163s0.283 0.062 0.377 0.163l0 0c0.311 0.324 0.628 0.609 0.955 0.856z"></path>
</svg>
