<!-- Generated by IcoMoon.io -->
<svg version="1.1" xmlns="http://www.w3.org/2000/svg" width="32" height="32" viewBox="0 0 32 32">
<title>window-bullet-list-filled</title>
<path d="M8.925 14.576c-0.079 0.18-0.125 0.39-0.125 0.61 0 0.005 0 0.010 0 0.015v-0.001c0.005 0.231 0.051 0.451 0.129 0.653l-0.004-0.013c0.078 0.195 0.192 0.361 0.337 0.495l0.001 0.001c0.15 0.144 0.323 0.256 0.512 0.339 0.18 0.079 0.39 0.125 0.61 0.125 0.005 0 0.011-0 0.017-0h-0.001c0.018 0.001 0.039 0.001 0.061 0.001 0.205 0 0.399-0.047 0.573-0.13l-0.008 0.003c0.198-0.090 0.368-0.208 0.512-0.352l-0 0c0.286-0.282 0.463-0.674 0.463-1.107 0-0.006-0-0.012-0-0.017v0.001c0-0 0-0.001 0-0.001 0-0.225-0.046-0.439-0.129-0.633l0.004 0.011c-0.084-0.201-0.202-0.371-0.35-0.511l-0.001-0.001c-0.145-0.137-0.315-0.25-0.501-0.333l-0.011-0.005c-0.179-0.080-0.388-0.126-0.608-0.126-0.002 0-0.003 0-0.005 0h0c-0.014-0.001-0.030-0.001-0.046-0.001-0.21 0-0.41 0.047-0.588 0.132l0.008-0.004c-0.382 0.167-0.681 0.465-0.845 0.836l-0.004 0.010zM8.925 20.976c-0.079 0.18-0.125 0.39-0.125 0.61 0 0.005 0 0.010 0 0.015v-0.001c0.005 0.231 0.051 0.449 0.129 0.651l-0.004-0.013c0.077 0.196 0.192 0.363 0.337 0.498l0.001 0.001c0.15 0.141 0.323 0.256 0.512 0.336 0.181 0.080 0.392 0.126 0.614 0.126 0.004 0 0.008-0 0.013-0h-0.001c0.018 0.001 0.039 0.001 0.061 0.001 0.205 0 0.399-0.047 0.573-0.13l-0.008 0.003c0.383-0.168 0.682-0.467 0.846-0.839l0.004-0.010c0.080-0.184 0.126-0.399 0.126-0.625s-0.046-0.44-0.13-0.635l0.004 0.010c-0.083-0.201-0.202-0.372-0.35-0.513l-0.001-0.001c-0.145-0.137-0.315-0.25-0.501-0.332l-0.011-0.004c-0.179-0.081-0.387-0.128-0.607-0.128-0.002 0-0.004 0-0.006 0h0c-0.015-0.001-0.032-0.001-0.050-0.001-0.209 0-0.407 0.048-0.584 0.132l0.008-0.003c-0.383 0.168-0.682 0.467-0.846 0.839l-0.004 0.010zM15.278 16c-0.004 0-0.010 0-0.015 0-0.234 0-0.446-0.090-0.605-0.237l0.001 0.001v-0.006c-0.158-0.136-0.257-0.337-0.257-0.56s0.099-0.424 0.256-0.559l0.001-0.001c0.158-0.147 0.371-0.237 0.604-0.237 0.006 0 0.011 0 0.017 0h7.039c0.002-0 0.005-0 0.008-0 0.237 0 0.452 0.093 0.612 0.244l-0-0c0.157 0.137 0.256 0.337 0.256 0.56s-0.099 0.423-0.255 0.559l-0.001 0.001c-0.158 0.147-0.371 0.237-0.604 0.237-0.005 0-0.010-0-0.015-0h-7.039zM14.659 22.163c0.159 0.147 0.373 0.237 0.607 0.237 0.005 0 0.010-0 0.015-0h7.039c0.004 0 0.008 0 0.012 0 0.346 0 0.646-0.196 0.795-0.483l0.002-0.005c0.042-0.090 0.067-0.196 0.067-0.308 0-0.224-0.099-0.424-0.257-0.56l-0.001-0.001c-0.16-0.151-0.377-0.243-0.615-0.243-0.001 0-0.003 0-0.004 0h-7.040c-0.003-0-0.005-0-0.008-0-0.347 0-0.648 0.197-0.797 0.485l-0.002 0.005c-0.042 0.090-0.067 0.196-0.067 0.308 0 0.223 0.099 0.423 0.255 0.559l0.001 0.001v0.006zM9.6 4.8c-2.651 0-4.8 2.149-4.8 4.8v0 12.8c0 2.651 2.149 4.8 4.8 4.8v0h12.8c2.651 0 4.8-2.149 4.8-4.8v0-12.8c0-2.651-2.149-4.8-4.8-4.8v0h-12.8zM6.4 22.4v-11.2h19.2v11.2c0 1.767-1.433 3.2-3.2 3.2v0h-12.8c-1.767 0-3.2-1.433-3.2-3.2v0z"></path>
</svg>
