<!-- Generated by IcoMoon.io -->
<svg version="1.1" xmlns="http://www.w3.org/2000/svg" width="32" height="32" viewBox="0 0 32 32">
<title>window-wrench-filled</title>
<path d="M8.167 4c-2.301 0-4.167 1.865-4.167 4.167v0 15.667c0 2.301 1.865 4.167 4.167 4.167v0h6.515c0.058-0.626 0.265-1.194 0.586-1.68l-0.008 0.014h-7.093c-1.381 0-2.5-1.119-2.5-2.5v0-12.833h20.667v3.741c0.181 0.027 0.361 0.062 0.537 0.104 0.577 0.136 0.951 0.5 1.129 0.938v-7.617c0-2.301-1.865-4.167-4.167-4.167v0h-15.667zM19.983 29.983c-0.422 0.422-1.006 0.683-1.65 0.683-1.289 0-2.333-1.045-2.333-2.333 0-0.644 0.261-1.228 0.683-1.65l3.608-3.607c-0.186-0.52-0.293-1.12-0.293-1.745 0-2.946 2.388-5.333 5.333-5.333 0.438 0 0.863 0.053 1.27 0.152l-0.037-0.008c0.239 0.057 0.308 0.35 0.135 0.524l-2.35 2.35c-0.422 0.422-0.683 1.006-0.683 1.65 0 1.289 1.045 2.333 2.333 2.333 0.644 0 1.228-0.261 1.65-0.683l2.349-2.349c0.174-0.175 0.469-0.105 0.525 0.135 0.092 0.37 0.145 0.796 0.145 1.233 0 2.946-2.388 5.333-5.333 5.333-0.625 0-1.225-0.107-1.782-0.305l0.037 0.012-3.607 3.607z"></path>
</svg>
