<!-- Generated by IcoMoon.io -->
<svg version="1.1" xmlns="http://www.w3.org/2000/svg" width="32" height="32" viewBox="0 0 32 32">
<title>wrench-screwdriver-filled</title>
<path d="M21.44 3.22c0.168-0.33 0.504-0.553 0.893-0.553h2c0.389 0.001 0.726 0.223 0.891 0.548l0.003 0.006 1.333 2.667c0.067 0.13 0.106 0.284 0.106 0.448 0 0.182-0.049 0.353-0.134 0.5l0.003-0.005-1.201 2.104v7.067h1.667c0.552 0 1 0.448 1 1v0 2.333h-9.333v-2.333c0-0.552 0.448-1 1-1v0h1.667v-7.067l-1.201-2.104c-0.083-0.143-0.132-0.314-0.132-0.496 0-0.163 0.039-0.316 0.108-0.452l-0.003 0.006 1.333-2.667zM18.667 21.333v3.333c0 2.577 2.089 4.667 4.667 4.667s4.667-2.089 4.667-4.667v0-3.333h-9.333zM11.771 2.949c0.157-0.108 0.352-0.172 0.561-0.172 0.133 0 0.26 0.026 0.376 0.073l-0.007-0.002c2.736 1.107 4.632 3.742 4.632 6.819 0 2.815-1.585 5.259-3.912 6.489l-0.040 0.019v9.776c0 1.867-1.514 3.381-3.381 3.381s-3.381-1.514-3.381-3.381v0-9.776c-2.366-1.249-3.952-3.694-3.952-6.509 0-3.078 1.895-5.713 4.582-6.802l0.049-0.018c0.109-0.044 0.236-0.070 0.368-0.070 0.552 0 1 0.447 1 0.999v4.889c0 0.736 0.597 1.333 1.333 1.333s1.333-0.597 1.333-1.333v0-4.889c0-0.342 0.172-0.644 0.434-0.824l0.003-0.002z"></path>
</svg>
