<!-- Generated by IcoMoon.io -->
<svg version="1.1" xmlns="http://www.w3.org/2000/svg" width="32" height="32" viewBox="0 0 32 32">
<title>wrench-filled</title>
<path d="M22.333 2.668c-0 0-0.001 0-0.002 0-3.866 0-7 3.134-7 7 0 0.757 0.12 1.486 0.342 2.168l-0.014-0.050-12.091 12.507c-0.565 0.565-0.914 1.346-0.914 2.209 0 1.726 1.399 3.125 3.125 3.125 0.9 0 1.71-0.38 2.281-0.988l0.002-0.002 11.951-12.363c0.692 0.251 1.49 0.396 2.322 0.396 3.866 0 7-3.134 7-7 0-0.691-0.1-1.358-0.286-1.989l0.013 0.050c-0.124-0.421-0.507-0.723-0.961-0.723-0.276 0-0.526 0.112-0.707 0.293l-4.245 4.245-2.747-2.747 4.213-4.216c0.181-0.181 0.293-0.431 0.293-0.707 0-0.459-0.309-0.845-0.73-0.963l-0.007-0.002c-0.551-0.156-1.184-0.245-1.837-0.245h-0z"></path>
</svg>
