<!-- Generated by IcoMoon.io -->
<svg version="1.1" xmlns="http://www.w3.org/2000/svg" width="32" height="32" viewBox="0 0 32 32">
<title>wrench-filled</title>
<path d="M22.333 2.669c-3.866 0-7 3.134-7 7 0 0.737 0.114 1.449 0.327 2.118l-12.090 12.507c-1.28 1.324-1.143 3.462 0.295 4.612 1.259 1.007 3.078 0.891 4.199-0.268l11.95-12.363c0.727 0.255 1.508 0.394 2.319 0.394 3.866 0 7-3.134 7-7 0-0.67-0.094-1.32-0.271-1.936-0.098-0.34-0.368-0.604-0.711-0.692s-0.707 0.011-0.957 0.261l-4.245 4.245-2.748-2.748 4.215-4.215c0.252-0.252 0.351-0.62 0.259-0.964s-0.36-0.614-0.705-0.708c-0.587-0.159-1.203-0.244-1.837-0.244z"></path>
</svg>
