<!-- Generated by IcoMoon.io -->
<svg version="1.1" xmlns="http://www.w3.org/2000/svg" width="32" height="32" viewBox="0 0 32 32">
<title>xbox-controller-filled</title>
<path d="M13.031 7.347c-0.707-0.358-1.487-0.415-2.201-0.279l-1.496 0.287c-1.182 0.232-2.152 0.983-2.679 2l-0.010 0.021c-1.823 3.589-3.192 6.515-3.727 9.007-0.548 2.557-0.233 4.735 1.363 6.721 1.067 1.327 2.935 1.063 3.907-0.044 0.436-0.489 1.175-1.34 1.91-2.194l0.352-0.419c0.586-0.682 1.45-1.112 2.414-1.113h6.276c0.927 0 1.809 0.407 2.415 1.113 1.088 1.275 1.827 2.125 2.571 2.972l-0.309-0.358c0.971 1.107 2.841 1.371 3.907 0.044 1.596-1.987 1.911-4.164 1.363-6.721-0.535-2.492-1.904-5.419-3.727-9.007-0.537-1.039-1.507-1.789-2.664-2.017l-0.024-0.004-1.495-0.287c-0.715-0.137-1.495-0.080-2.202 0.278-0.24 0.119-0.377 0.191-0.512 0.266l0.095-0.048c-0.523 0.28-1.084 0.435-1.641 0.435h-1.825c-0.558 0-1.119-0.155-1.641-0.435-0.033-0.023-0.17-0.095-0.308-0.166l-0.11-0.052zM16 14c-0.736 0-1.333-0.597-1.333-1.333s0.597-1.333 1.333-1.333v0c0.736 0 1.333 0.597 1.333 1.333s-0.597 1.333-1.333 1.333v0z"></path>
</svg>
