<!-- Generated by IcoMoon.io -->
<svg version="1.1" xmlns="http://www.w3.org/2000/svg" width="32" height="32" viewBox="0 0 32 32">
<title>xbox-controller-error-filled</title>
<path d="M13.031 5.347c-0.707-0.358-1.487-0.415-2.201-0.278l-1.496 0.287c-1.182 0.232-2.152 0.982-2.679 1.999l-0.010 0.021c-1.823 3.589-3.192 6.515-3.727 9.007-0.548 2.557-0.233 4.735 1.363 6.721 1.067 1.327 2.935 1.063 3.907-0.044 0.436-0.489 1.175-1.34 1.91-2.194l0.352-0.419c0.586-0.682 1.45-1.112 2.414-1.113h1.904c0.641-4.153 4.231-7.333 8.565-7.333 1.801 0 3.475 0.55 4.861 1.491-0.695-1.809-1.672-3.827-2.834-6.115-0.537-1.038-1.507-1.789-2.664-2.017l-0.024-0.004-1.495-0.287c-0.715-0.137-1.495-0.080-2.202 0.278-0.24 0.119-0.377 0.191-0.512 0.266l0.095-0.048c-0.523 0.28-1.084 0.435-1.641 0.435h-1.825c-0.558 0-1.119-0.155-1.641-0.435-0.034-0.023-0.171-0.096-0.309-0.167l-0.109-0.051zM16 12c-0.736 0-1.333-0.597-1.333-1.333s0.597-1.333 1.333-1.333v0c0.736 0 1.333 0.597 1.333 1.333s-0.597 1.333-1.333 1.333v0zM30.667 20.667c0 4.050-3.283 7.333-7.333 7.333s-7.333-3.283-7.333-7.333 3.283-7.333 7.333-7.333 7.333 3.283 7.333 7.333zM24 16.667c0-0.368-0.298-0.667-0.667-0.667s-0.667 0.298-0.667 0.667v0 5.333c0 0.368 0.298 0.667 0.667 0.667s0.667-0.298 0.667-0.667v0-5.333zM23.333 25.5c0.46 0 0.833-0.373 0.833-0.833s-0.373-0.833-0.833-0.833v0c-0.46 0-0.833 0.373-0.833 0.833s0.373 0.833 0.833 0.833v0z"></path>
</svg>
