<!-- Generated by IcoMoon.io -->
<svg version="1.1" xmlns="http://www.w3.org/2000/svg" width="32" height="32" viewBox="0 0 32 32">
<title>zoom-out-filled</title>
<path d="M23.333 13.333c-0-5.523-4.477-10-10-10s-10 4.477-10 10 4.477 10 10 10c2.291 0 4.402-0.77 6.088-2.066l-0.024 0.017 6.327 6.324 0.125 0.111c0.223 0.174 0.507 0.279 0.816 0.279 0.736 0 1.333-0.597 1.333-1.333 0-0.367-0.149-0.7-0.389-0.941l-6.324-6.327c1.278-1.657 2.048-3.763 2.048-6.049 0-0.005 0-0.011 0-0.016v0.001zM18 12c0.736 0 1.333 0.597 1.333 1.333s-0.597 1.333-1.333 1.333v0h-9.333c-0.736 0-1.333-0.597-1.333-1.333s0.597-1.333 1.333-1.333v0h9.333z"></path>
</svg>
