<!-- Generated by IcoMoon.io -->
<svg version="1.1" xmlns="http://www.w3.org/2000/svg" width="32" height="32" viewBox="0 0 32 32">
<title>zoom-fit-filled</title>
<path d="M16.693 3.612c-0.179-0.17-0.421-0.274-0.688-0.274-0.265 0-0.507 0.103-0.686 0.272l0.001-0-2.968 2.792c-0.174 0.149-0.401 0.24-0.65 0.24-0.552 0-1-0.448-1-1 0-0.27 0.107-0.515 0.281-0.695l-0 0 2.965-2.793c0.536-0.505 1.26-0.816 2.056-0.816 0.8 0 1.527 0.313 2.065 0.824l-0.001-0.001 2.943 2.788c0.192 0.183 0.312 0.44 0.312 0.726 0 0.552-0.448 1-1 1-0.267 0-0.509-0.104-0.688-0.275l0 0-2.941-2.788zM6.361 10.937c0.193 0.183 0.314 0.441 0.314 0.727 0 0.266-0.104 0.507-0.273 0.686l0-0-2.789 2.967c-0.169 0.179-0.272 0.42-0.272 0.686s0.104 0.509 0.274 0.688l-0-0 2.789 2.943c0.17 0.179 0.274 0.421 0.274 0.688 0 0.552-0.448 1-1 1-0.286 0-0.543-0.12-0.726-0.312l-0-0-2.789-2.943c-0.509-0.537-0.822-1.263-0.822-2.064 0-0.797 0.311-1.521 0.817-2.058l-0.001 0.001 2.792-2.965c0.183-0.194 0.441-0.314 0.728-0.314 0.265 0 0.507 0.103 0.686 0.272l-0-0zM25.636 10.953c0.179-0.17 0.421-0.274 0.688-0.274 0.285 0 0.543 0.12 0.725 0.311l0 0 2.799 2.951c0.51 0.537 0.823 1.264 0.823 2.065s-0.314 1.528-0.825 2.066l0.001-0.001-2.799 2.951c-0.184 0.202-0.448 0.329-0.741 0.329-0.552 0-1-0.448-1-1 0-0.275 0.111-0.524 0.291-0.705l-0 0 2.797-2.951c0.17-0.179 0.275-0.422 0.275-0.689s-0.105-0.51-0.275-0.689l0 0-2.796-2.951c-0.17-0.179-0.274-0.421-0.274-0.688 0-0.285 0.119-0.543 0.311-0.725l0-0zM21.057 25.637c0.17 0.179 0.274 0.421 0.274 0.688 0 0.285-0.119 0.543-0.311 0.725l-0 0-2.949 2.797c-0.537 0.509-1.263 0.822-2.063 0.822s-1.527-0.313-2.065-0.823l0.001 0.001-2.955-2.797c-0.192-0.183-0.312-0.44-0.312-0.725 0-0.552 0.448-1 1-1 0.267 0 0.51 0.105 0.689 0.275l-0-0 2.953 2.797c0.179 0.17 0.421 0.274 0.688 0.274s0.509-0.104 0.688-0.275l-0 0 2.949-2.796c0.179-0.17 0.421-0.274 0.688-0.274 0.285 0 0.543 0.119 0.725 0.311l0 0zM13 9.333c-2.025 0-3.667 1.642-3.667 3.667v0 6c0 2.025 1.642 3.667 3.667 3.667v0h6c2.025 0 3.667-1.642 3.667-3.667v0-6c0-2.025-1.642-3.667-3.667-3.667v0h-6z"></path>
</svg>
