<!-- Generated by IcoMoon.io -->
<svg version="1.1" xmlns="http://www.w3.org/2000/svg" width="32" height="32" viewBox="0 0 32 32">
<title>zoom-in-filled</title>
<path d="M23.333 13.333c0 2.28-0.763 4.383-2.048 6.064l6.324 6.327c0.24 0.241 0.389 0.574 0.389 0.941 0 0.736-0.597 1.333-1.333 1.333-0.309 0-0.593-0.105-0.819-0.281l0.003 0.002-0.125-0.111-6.327-6.324c-1.662 1.278-3.773 2.048-6.064 2.048-5.523 0-10-4.477-10-10s4.477-10 10-10c5.523 0 10 4.477 10 10v0zM13.333 7.333c-0.736 0-1.333 0.597-1.333 1.333v0 3.333h-3.333c-0.736 0-1.333 0.597-1.333 1.333s0.597 1.333 1.333 1.333v0h3.333v3.333c0 0.736 0.597 1.333 1.333 1.333s1.333-0.597 1.333-1.333v0-3.333h3.333c0.736 0 1.333-0.597 1.333-1.333s-0.597-1.333-1.333-1.333v0h-3.333v-3.333c0-0.736-0.597-1.333-1.333-1.333v0z"></path>
</svg>
