<!-- Generated by IcoMoon.io -->
<svg version="1.1" xmlns="http://www.w3.org/2000/svg" width="32" height="32" viewBox="0 0 32 32">
<title>zoom-out-filled</title>
<path d="M23.333 13.333c0-5.523-4.477-10-10-10s-10 4.477-10 10c0 5.523 4.477 10 10 10 2.28 0 4.382-0.763 6.064-2.048l6.326 6.324 0.126 0.111c0.523 0.407 1.279 0.37 1.76-0.111 0.521-0.521 0.521-1.365 0-1.886l-6.324-6.326c1.285-1.682 2.048-3.784 2.048-6.064zM18 12c0.736 0 1.333 0.597 1.333 1.333s-0.597 1.333-1.333 1.333h-9.333c-0.736 0-1.333-0.597-1.333-1.333s0.597-1.333 1.333-1.333h9.333z"></path>
</svg>
