<!-- Generated by IcoMoon.io -->
<svg version="1.1" xmlns="http://www.w3.org/2000/svg" width="32" height="32" viewBox="0 0 32 32">
<title>accessibility</title>
<path d="M12.055 7.324c-0.036-0.215-0.054-0.435-0.054-0.66 0-2.209 1.791-4 4-4s4 1.791 4 4c0 0.226-0.019 0.447-0.054 0.662l3.242-1.209c1.674-0.624 3.531 0.269 4.088 1.967 0.505 1.542-0.245 3.215-1.733 3.862l-4.209 1.834v4.148l2.511 7.288c0.513 1.489-0.177 3.125-1.6 3.798-1.642 0.776-3.597-0.026-4.22-1.732l-2.020-5.53-2.017 5.533c-0.604 1.656-2.467 2.473-4.094 1.796-1.508-0.628-2.268-2.32-1.736-3.865l2.509-7.272v-4.159l-4.409-1.941c-1.581-0.696-2.3-2.54-1.608-4.123 0.666-1.524 2.407-2.261 3.965-1.68l3.439 1.283zM14 6.664c0 0.818 0.491 1.521 1.194 1.831 0.51 0.188 1.070 0.193 1.582 0.012 0.719-0.303 1.223-1.014 1.223-1.844 0-1.105-0.895-2-2-2s-2 0.895-2 2zM14.44 10.348l-6.523-2.433c-0.563-0.21-1.193 0.057-1.434 0.607-0.25 0.572 0.010 1.239 0.581 1.491l5.006 2.204c0.363 0.16 0.597 0.519 0.597 0.915v4.979c0 0.111-0.018 0.221-0.055 0.326l-2.564 7.43c-0.188 0.546 0.080 1.144 0.613 1.366 0.575 0.239 1.233-0.050 1.447-0.635l2.2-6.035c0.577-1.582 2.813-1.583 3.391-0.001l2.203 6.032c0.22 0.601 0.908 0.884 1.487 0.61 0.502-0.237 0.745-0.813 0.564-1.338l-2.565-7.446c-0.036-0.105-0.055-0.215-0.055-0.326v-4.971c0-0.398 0.236-0.758 0.601-0.917l4.81-2.095c0.541-0.236 0.815-0.845 0.631-1.406-0.203-0.618-0.879-0.943-1.488-0.716l-6.375 2.378c-0.466 0.191-0.977 0.296-1.512 0.296-0.554 0-1.081-0.113-1.561-0.316z"></path>
</svg>
