<!-- Generated by IcoMoon.io -->
<svg version="1.1" xmlns="http://www.w3.org/2000/svg" width="32" height="32" viewBox="0 0 32 32">
<title>accessibility-checkmark</title>
<path d="M12.054 7.324c-0.036-0.215-0.054-0.435-0.054-0.66 0-2.209 1.791-4 4-4s4 1.791 4 4c0 0.226-0.019 0.447-0.055 0.662l3.242-1.209c1.674-0.624 3.531 0.269 4.088 1.967 0.505 1.542-0.245 3.215-1.733 3.862l-4.209 1.833v1.119c-0.704 0.166-1.374 0.418-2 0.744v-2.519c0-0.398 0.236-0.758 0.601-0.917l4.81-2.095c0.541-0.236 0.815-0.845 0.631-1.406-0.203-0.618-0.879-0.943-1.488-0.716l-6.374 2.378c-0.467 0.191-0.977 0.296-1.513 0.296-0.554 0-1.081-0.113-1.561-0.316l-6.523-2.433c-0.563-0.21-1.193 0.057-1.434 0.608-0.25 0.572 0.010 1.239 0.581 1.491l5.006 2.204c0.363 0.16 0.597 0.519 0.597 0.915v4.98c0 0.111-0.018 0.221-0.055 0.326l-2.564 7.43c-0.188 0.546 0.080 1.144 0.613 1.366 0.575 0.239 1.233-0.050 1.447-0.635l2.2-6.035c0.232-0.638 0.735-1.019 1.289-1.142-0.595 1.175-0.931 2.504-0.931 3.911 0 0.566 0.054 1.119 0.158 1.654l-0.837 2.297c-0.604 1.656-2.467 2.473-4.094 1.796-1.508-0.628-2.268-2.32-1.736-3.865l2.509-7.272v-4.159l-4.409-1.941c-1.581-0.696-2.3-2.54-1.608-4.123 0.666-1.524 2.407-2.261 3.965-1.68l3.439 1.283zM14 6.664c0 0.818 0.491 1.521 1.194 1.831 0.51 0.189 1.070 0.193 1.583 0.012 0.719-0.303 1.223-1.014 1.223-1.843 0-1.105-0.895-2-2-2s-2 0.895-2 2zM30.667 23.333c0 4.050-3.283 7.333-7.333 7.333s-7.333-3.283-7.333-7.333c0-4.050 3.283-7.333 7.333-7.333s7.333 3.283 7.333 7.333zM27.805 20.195c-0.26-0.26-0.683-0.26-0.943 0l-4.862 4.862-2.195-2.195c-0.26-0.26-0.683-0.26-0.943 0s-0.26 0.683 0 0.943l2.667 2.667c0.26 0.26 0.683 0.26 0.943 0l5.333-5.333c0.26-0.26 0.26-0.683 0-0.943z"></path>
</svg>
