<!-- Generated by IcoMoon.io -->
<svg version="1.1" xmlns="http://www.w3.org/2000/svg" width="32" height="32" viewBox="0 0 32 32">
<title>accessibility</title>
<path d="M13.335 7c0 0 0 0 0 0.001 0 1.042 0.598 1.944 1.469 2.383l0.015 0.007 0.328 0.119c0.254 0.096 0.548 0.151 0.855 0.151s0.601-0.055 0.873-0.156l-0.017 0.006 0.327-0.119c0.886-0.446 1.483-1.348 1.483-2.39 0-1.473-1.194-2.667-2.667-2.667s-2.666 1.193-2.667 2.666v0zM11.872 8.318c-0.13-0.394-0.205-0.847-0.205-1.318 0-2.393 1.94-4.333 4.333-4.333 0.001 0 0.001 0 0.002 0h-0c0 0 0.001 0 0.001 0 2.393 0 4.333 1.94 4.333 4.333 0 0.471-0.075 0.924-0.214 1.349l0.009-0.031 4.067-1.48c0.288-0.108 0.622-0.171 0.969-0.171 1.565 0 2.834 1.269 2.834 2.834 0 1.217-0.767 2.255-1.845 2.656l-0.020 0.006-5.467 1.99v3.197c0 0.235 0.045 0.469 0.133 0.687l2.991 7.403c0.131 0.314 0.206 0.679 0.206 1.062 0 1.565-1.269 2.834-2.834 2.834-1.182 0-2.196-0.724-2.62-1.753l-0.007-0.019-2.538-6.281-2.538 6.281c-0.432 1.048-1.445 1.772-2.627 1.772-1.565 0-2.834-1.269-2.834-2.834 0-0.383 0.076-0.747 0.213-1.080l-0.007 0.019 2.993-7.408c0.088-0.218 0.133-0.451 0.133-0.687v-3.192l-5.468-1.99c-1.111-0.4-1.891-1.445-1.891-2.672 0-1.565 1.269-2.833 2.833-2.833 0.358 0 0.7 0.066 1.015 0.187l-0.019-0.007 4.067 1.48zM14.168 10.927l-6.933-2.523c-0.119-0.045-0.256-0.070-0.399-0.070-0.644 0-1.167 0.522-1.167 1.167 0 0.501 0.316 0.929 0.76 1.094l0.008 0.003 5.577 2.029c0.581 0.216 0.987 0.765 0.987 1.409v3.309c0 0.449-0.087 0.895-0.255 1.311l-2.993 7.408c-0.057 0.132-0.089 0.286-0.089 0.448 0 0.644 0.522 1.167 1.167 1.167 0.491 0 0.911-0.303 1.083-0.733l0.003-0.008 2.693-6.663c0.505-1.251 2.276-1.251 2.781 0l2.693 6.663c0.18 0.426 0.595 0.719 1.077 0.719 0.644 0 1.167-0.522 1.167-1.167 0-0.153-0.030-0.3-0.083-0.434l0.003 0.008-2.991-7.403c-0.161-0.388-0.255-0.838-0.255-1.311 0 0 0 0 0 0v0-3.315c0-0.63 0.395-1.193 0.987-1.409l5.577-2.029c0.452-0.168 0.768-0.595 0.768-1.097 0-0.645-0.522-1.167-1.167-1.167-0.143 0-0.28 0.026-0.407 0.073l0.008-0.003-6.932 2.523c-0.536 0.256-1.164 0.406-1.828 0.406-0.002 0-0.004 0-0.006 0h0c-0.002 0-0.004 0-0.006 0-0.664 0-1.292-0.15-1.854-0.417l0.026 0.011z"></path>
</svg>
