<!-- Generated by IcoMoon.io -->
<svg version="1.1" xmlns="http://www.w3.org/2000/svg" width="32" height="32" viewBox="0 0 32 32">
<title>add-circle</title>
<path d="M15 11c0-0.552 0.448-1 1-1s1 0.448 1 1v0 4h4c0.552 0 1 0.448 1 1s-0.448 1-1 1v0h-4v4c0 0.552-0.448 1-1 1s-1-0.448-1-1v0-4h-4c-0.552 0-1-0.448-1-1s0.448-1 1-1v0h4v-4zM30 16c0 7.732-6.268 14-14 14s-14-6.268-14-14 6.268-14 14-14 14 6.268 14 14zM28 16c0-6.627-5.373-12-12-12s-12 5.373-12 12 5.373 12 12 12 12-5.373 12-12z"></path>
</svg>
