<!-- Generated by IcoMoon.io -->
<svg version="1.1" xmlns="http://www.w3.org/2000/svg" width="32" height="32" viewBox="0 0 32 32">
<title>add-circle</title>
<path d="M16 2.667c7.364 0 13.333 5.97 13.333 13.333s-5.97 13.333-13.333 13.333c-7.364 0-13.333-5.97-13.333-13.333s5.97-13.333 13.333-13.333zM16 4.667c-6.259 0-11.333 5.074-11.333 11.333s5.074 11.333 11.333 11.333c6.259 0 11.333-5.074 11.333-11.333s-5.074-11.333-11.333-11.333zM16 9.333c0.552 0 1 0.448 1 1v4.667h4.667c0.552 0 1 0.448 1 1s-0.448 1-1 1h-4.667v4.667c0 0.552-0.448 1-1 1s-1-0.448-1-1v-4.667h-4.667c-0.552 0-1-0.448-1-1s0.448-1 1-1h4.667v-4.667c0-0.552 0.448-1 1-1z"></path>
</svg>
