<!-- Generated by IcoMoon.io -->
<svg version="1.1" xmlns="http://www.w3.org/2000/svg" width="32" height="32" viewBox="0 0 32 32">
<title>add-subtract-circle-regular</title>
<path d="M17.333 20.5c0-0.46 0.373-0.833 0.833-0.833h5c0.46 0 0.833 0.373 0.833 0.833s-0.373 0.833-0.833 0.833v0h-5c-0.46 0-0.833-0.373-0.833-0.833zM12.667 8.833c0-0.46-0.373-0.833-0.833-0.833s-0.833 0.373-0.833 0.833v0 1.833h-2c-0.46 0-0.833 0.373-0.833 0.833s0.373 0.833 0.833 0.833v0h2v1.833c0 0.46 0.373 0.833 0.833 0.833s0.833-0.373 0.833-0.833v0-1.833h1.833c0.46 0 0.833-0.373 0.833-0.833s-0.373-0.833-0.833-0.833v0h-1.833v-1.833zM16 29.333c-7.364 0-13.333-5.969-13.333-13.333s5.969-13.333 13.333-13.333 13.333 5.969 13.333 13.333-5.969 13.333-13.333 13.333zM16 27.667c6.443 0 11.667-5.223 11.667-11.667 0-2.922-1.074-5.593-2.849-7.64l-16.458 16.459c2.028 1.769 4.699 2.848 7.621 2.848 0.007 0 0.013 0 0.020-0h-0.001zM7.182 23.64l16.458-16.459c-2.028-1.769-4.699-2.848-7.621-2.848-0.007 0-0.013 0-0.020 0h0.001c-6.443 0-11.667 5.223-11.667 11.667 0 2.922 1.074 5.593 2.849 7.64z"></path>
</svg>
