<!-- Generated by IcoMoon.io -->
<svg version="1.1" xmlns="http://www.w3.org/2000/svg" width="32" height="32" viewBox="0 0 32 32">
<title>add-square-multiple</title>
<path d="M25.6 8.429v12.371c0 2.651-2.149 4.8-4.8 4.8v0h-12.371c0.564 0.963 1.593 1.6 2.771 1.6h9.6c3.535 0 6.4-2.865 6.4-6.4v0-9.6c-0-1.178-0.637-2.208-1.585-2.763l-0.015-0.008zM18.4 15.2c0.442 0 0.8-0.358 0.8-0.8s-0.358-0.8-0.8-0.8v0h-3.2v-3.2c0-0.442-0.358-0.8-0.8-0.8s-0.8 0.358-0.8 0.8v0 3.2h-3.2c-0.442 0-0.8 0.358-0.8 0.8s0.358 0.8 0.8 0.8v0h3.2v3.2c0 0.442 0.358 0.8 0.8 0.8s0.8-0.358 0.8-0.8v0-3.2h3.2zM20.8 4.8c1.767 0 3.2 1.433 3.2 3.2v0 12.8c0 1.767-1.433 3.2-3.2 3.2v0h-12.8c-1.767 0-3.2-1.433-3.2-3.2v0-12.8c0-1.767 1.433-3.2 3.2-3.2v0h12.8zM22.4 8c0-0.884-0.716-1.6-1.6-1.6v0h-12.8c-0.884 0-1.6 0.716-1.6 1.6v0 12.8c0 0.884 0.716 1.6 1.6 1.6v0h12.8c0.884 0 1.6-0.716 1.6-1.6v0-12.8z"></path>
</svg>
