<!-- Generated by IcoMoon.io -->
<svg version="1.1" xmlns="http://www.w3.org/2000/svg" width="32" height="32" viewBox="0 0 32 32">
<title>add</title>
<path d="M15.666 4c0.506 0 0.925 0.376 0.991 0.864l0.009 0.136 0.002 9.667h9.671c0.552 0 1 0.448 1 1 0 0.506-0.376 0.925-0.864 0.991l-0.136 0.009h-9.671l0.003 9.665c0 0.552-0.447 1-1 1-0.506 0-0.925-0.376-0.991-0.864l-0.009-0.136-0.003-9.666h-9.665c-0.552 0-1-0.448-1-1 0-0.506 0.376-0.925 0.864-0.991l0.136-0.009h9.665l-0.002-9.666c-0-0.552 0.447-1 1-1z"></path>
</svg>
