<!-- Generated by IcoMoon.io -->
<svg version="1.1" xmlns="http://www.w3.org/2000/svg" width="32" height="32" viewBox="0 0 32 32">
<title>airplane-take-off</title>
<path d="M11.088 11.211l-1.029-1.503c-1.272-1.855 0.057-4.375 2.307-4.375 0.64 0 1.26 0.22 1.757 0.623l3.441 2.787c0.446-0.476 0.921-0.911 1.426-1.309l0.027-0.021c0.88-0.677 2-1.315 3.24-1.409 2.983-0.231 5.212 1.657 6.472 3.101 0.652 0.747 0.783 1.691 0.504 2.511-0.299 0.833-0.95 1.474-1.769 1.754l-0.020 0.006-7.161 2.469-4.216 5.623c-0.553 0.731-1.421 1.198-2.398 1.198-1.656 0-2.999-1.343-2.999-2.999 0-0.203 0.020-0.402 0.059-0.594l-0.003 0.019 0.335-1.712-3.373 0.729c-0.193 0.044-0.415 0.069-0.643 0.069-1.681 0-3.044-1.363-3.044-3.044 0-0.001 0-0.001 0-0.002v0-4.88c0-0 0-0.001 0-0.002 0-1.245 1.009-2.255 2.255-2.255 0.85 0 1.59 0.47 1.974 1.165l0.006 0.012 1.288 2.363 1.565-0.327zM11.708 8.579l1.501 2.191 2.531-0.528c0.12-0.025 0.24-0.064 0.355-0.116l-3.228-2.615c-0.135-0.109-0.309-0.175-0.498-0.175-0.44 0-0.796 0.356-0.796 0.796 0 0.166 0.051 0.32 0.138 0.448l-0.002-0.003zM22.411 7.997c-0.676 0.053-1.424 0.423-2.172 1-0.732 0.564-1.369 1.253-1.813 1.787-0.56 0.676-1.341 1.22-2.277 1.416l-6.944 1.447c-0.061 0.013-0.131 0.021-0.204 0.021-0.377 0-0.705-0.208-0.875-0.516l-0.003-0.005-1.644-3.013c-0.044-0.080-0.128-0.134-0.224-0.134-0.141 0-0.255 0.114-0.255 0.255 0 0.001 0 0.001 0 0.002v-0 4.879c0 0.665 0.613 1.16 1.265 1.020l4.857-1.048c0.063-0.014 0.136-0.022 0.211-0.022 0.552 0 1 0.448 1 1 0 0.068-0.007 0.134-0.020 0.198l0.001-0.006-0.627 3.2c-0.012 0.058-0.019 0.124-0.019 0.193 0 0.552 0.447 0.999 0.999 0.999 0.325 0 0.615-0.156 0.797-0.397l0.002-0.003 4.4-5.867c0.119-0.158 0.28-0.278 0.466-0.345l0.007-0.002 7.452-2.569c0.253-0.080 0.451-0.268 0.545-0.508l0.002-0.006c0.020-0.054 0.032-0.117 0.032-0.182 0-0.143-0.056-0.273-0.148-0.369l0 0c-1.137-1.303-2.799-2.579-4.813-2.424zM5 26c-0.552 0-1 0.448-1 1s0.448 1 1 1v0h22c0.552 0 1-0.448 1-1s-0.448-1-1-1v0h-22z"></path>
</svg>
