<!-- Generated by IcoMoon.io -->
<svg version="1.1" xmlns="http://www.w3.org/2000/svg" width="32" height="32" viewBox="0 0 32 32">
<title>airplane-take-off</title>
<path d="M11.087 11.211l-1.029-1.502c-1.271-1.855 0.058-4.375 2.306-4.375 0.64 0 1.261 0.22 1.759 0.623l3.441 2.786c0.413-0.437 0.905-0.906 1.454-1.329 0.878-0.677 2-1.314 3.239-1.409 2.984-0.23 5.212 1.658 6.473 3.102 0.652 0.747 0.782 1.691 0.504 2.51-0.273 0.803-0.925 1.462-1.789 1.76l-7.161 2.469-4.217 5.622c-0.566 0.755-1.455 1.199-2.399 1.199-1.887 0-3.305-1.722-2.942-3.574l0.335-1.711-3.373 0.728c-1.897 0.409-3.687-1.036-3.687-2.976v-4.879c0-1.245 1.010-2.255 2.255-2.255 0.825 0 1.585 0.451 1.98 1.175l1.288 2.361 1.565-0.326zM11.708 8.578l1.501 2.191 2.532-0.527c0.12-0.025 0.239-0.064 0.355-0.116l-3.23-2.615c-0.142-0.115-0.318-0.177-0.5-0.177-0.64 0-1.018 0.717-0.656 1.245zM22.41 7.998c-0.675 0.052-1.424 0.423-2.171 0.999-0.732 0.565-1.37 1.254-1.814 1.788-0.56 0.675-1.341 1.22-2.277 1.414l-6.944 1.447c-0.431 0.090-0.871-0.113-1.082-0.5l-1.643-3.013c-0.045-0.082-0.131-0.133-0.224-0.133-0.141 0-0.255 0.114-0.255 0.255v4.879c0 0.666 0.614 1.161 1.265 1.021l4.857-1.049c0.329-0.071 0.671 0.028 0.911 0.264s0.346 0.576 0.281 0.906l-0.627 3.201c-0.121 0.617 0.351 1.19 0.98 1.19 0.314 0 0.61-0.148 0.799-0.399l4.401-5.868c0.12-0.16 0.285-0.28 0.474-0.345l7.451-2.569c0.298-0.103 0.48-0.314 0.548-0.513 0.062-0.182 0.040-0.372-0.117-0.552-1.137-1.303-2.798-2.578-4.812-2.423z"></path>
<path d="M5 26c-0.552 0-1 0.448-1 1s0.448 1 1 1h22c0.552 0 1-0.448 1-1s-0.448-1-1-1h-22z"></path>
</svg>
