<!-- Generated by IcoMoon.io -->
<svg version="1.1" xmlns="http://www.w3.org/2000/svg" width="32" height="32" viewBox="0 0 32 32">
<title>album</title>
<path d="M13.333 12c0-1.473 1.194-2.667 2.667-2.667h5.333c1.473 0 2.667 1.194 2.667 2.667v1.333c0 1.473-1.194 2.667-2.667 2.667h-5.333c-1.473 0-2.667-1.194-2.667-2.667v-1.333zM16 11.333c-0.368 0-0.667 0.298-0.667 0.667v1.333c0 0.368 0.299 0.667 0.667 0.667h5.333c0.368 0 0.667-0.299 0.667-0.667v-1.333c0-0.368-0.299-0.667-0.667-0.667h-5.333z"></path>
<path d="M5.333 5.333c-1.473 0-2.667 1.194-2.667 2.667v16c0 1.473 1.194 2.667 2.667 2.667h21.333c1.473 0 2.667-1.194 2.667-2.667v-16c0-1.473-1.194-2.667-2.667-2.667h-21.333zM26.667 7.333c0.368 0 0.667 0.298 0.667 0.667v16c0 0.368-0.299 0.667-0.667 0.667h-16.667v-17.333h16.667zM5.333 7.333h2.667v17.333h-2.667c-0.368 0-0.667-0.299-0.667-0.667v-16c0-0.368 0.298-0.667 0.667-0.667z"></path>
</svg>
