<!-- Generated by IcoMoon.io -->
<svg version="1.1" xmlns="http://www.w3.org/2000/svg" width="32" height="32" viewBox="0 0 32 32">
<title>album-add</title>
<path d="M2.667 8c0-1.473 1.194-2.667 2.667-2.667h21.333c1.473 0 2.667 1.194 2.667 2.667v16c0 1.473-1.194 2.667-2.667 2.667h-9.998c0.264-0.632 0.455-1.302 0.562-2h9.435c0.368 0 0.667-0.299 0.667-0.667v-16c0-0.368-0.299-0.667-0.667-0.667h-16.667v7.435c-0.435-0.067-0.88-0.102-1.333-0.102-0.224 0-0.447 0.009-0.667 0.025v-7.359h-2.667c-0.368 0-0.667 0.298-0.667 0.667v7.643c-0.735 0.383-1.408 0.868-2 1.437v-9.079z"></path>
<path d="M16 9.333c-1.473 0-2.667 1.194-2.667 2.667v1.333c0 1.473 1.194 2.667 2.667 2.667h5.333c1.473 0 2.667-1.194 2.667-2.667v-1.333c0-1.473-1.194-2.667-2.667-2.667h-5.333zM21.333 11.333c0.368 0 0.667 0.298 0.667 0.667v1.333c0 0.368-0.299 0.667-0.667 0.667h-5.333c-0.368 0-0.667-0.299-0.667-0.667v-1.333c0-0.368 0.299-0.667 0.667-0.667h5.333z"></path>
<path d="M8.667 16c4.050 0 7.333 3.283 7.333 7.333s-3.283 7.333-7.333 7.333c-4.050 0-7.333-3.283-7.333-7.333s3.283-7.333 7.333-7.333zM9.335 27.338l-0.001-3.338h3.328c0.368 0 0.666-0.298 0.666-0.667s-0.298-0.667-0.666-0.667h-3.328l-0.001-3.334c0-0.368-0.298-0.667-0.667-0.667s-0.667 0.298-0.667 0.667l0.001 3.334h-3.34c-0.368 0-0.666 0.299-0.666 0.667s0.298 0.667 0.666 0.667h3.34l0.001 3.338c0 0.368 0.298 0.667 0.667 0.667s0.667-0.298 0.667-0.667z"></path>
</svg>
