<!-- Generated by IcoMoon.io -->
<svg version="1.1" xmlns="http://www.w3.org/2000/svg" width="32" height="32" viewBox="0 0 32 32">
<title>alert-on-regular</title>
<path d="M16 2.661c0.004 0 0.009 0 0.013 0 5.403 0 9.804 4.291 9.981 9.65l0 0.016 0.005 0.333v5.463l1.84 4.208c0.088 0.197 0.14 0.426 0.14 0.668 0 0.92-0.746 1.665-1.665 1.665-0 0-0.001 0-0.001 0l-6.313 0.004c0 0.002 0 0.003 0 0.005 0 2.209-1.791 4-4 4-2.128 0-3.868-1.662-3.993-3.758l-0.001-0.011-0.007-0.24h-6.3c-0.92-0.001-1.666-0.747-1.666-1.668 0-0.239 0.050-0.466 0.141-0.672l-0.004 0.011 1.829-4.211v-5.464c0-5.54 4.469-10 10-10zM18 24.667l-4 0.003c0 0 0 0 0 0 0 1.105 0.895 2 2 2 1.037 0 1.889-0.789 1.99-1.799l0.001-0.008 0.008-0.196zM16 4.661c-4.427 0-8 3.565-8 8v5.88l-1.792 4.125h19.596l-1.804-4.124v-5.864l-0.005-0.3c-0.148-4.293-3.664-7.717-7.98-7.717-0.005 0-0.011 0-0.016 0h0.001zM28 11h2.667c0.552 0 1 0.448 1 1 0 0.504-0.373 0.921-0.858 0.99l-0.005 0.001-0.136 0.009h-2.667c-0.552-0-1-0.448-1-1 0-0.504 0.373-0.921 0.858-0.99l0.005-0.001 0.136-0.009zM1.333 11h2.667c0.552 0 1 0.448 1 1 0 0.504-0.373 0.921-0.858 0.99l-0.005 0.001-0.136 0.009h-2.667c-0.552-0-1-0.448-1-1 0-0.504 0.373-0.921 0.858-0.99l0.005-0.001 0.136-0.009zM30.133 3.4c0.125 0.165 0.2 0.374 0.2 0.6 0 0.274-0.11 0.522-0.288 0.702l0-0-0.112 0.097-2.667 2c-0.165 0.126-0.375 0.201-0.602 0.201-0.552 0-1-0.448-1-1 0-0.275 0.111-0.523 0.29-0.704l-0 0 0.112-0.097 2.667-2c0.165-0.125 0.374-0.2 0.6-0.2 0.326 0 0.616 0.156 0.798 0.397l0.002 0.002zM3.267 3.2l2.667 2c0.244 0.184 0.4 0.474 0.4 0.8 0 0.552-0.448 1-1 1-0.226 0-0.435-0.075-0.603-0.202l0.003 0.002-2.667-2c-0.244-0.184-0.4-0.474-0.4-0.8 0-0.552 0.448-1 1-1 0.226 0 0.435 0.075 0.603 0.202l-0.002-0.002z"></path>
</svg>
