<!-- Generated by IcoMoon.io -->
<svg version="1.1" xmlns="http://www.w3.org/2000/svg" width="32" height="32" viewBox="0 0 32 32">
<title>alert</title>
<path d="M7.667 12.667v5.833c0 0.116-0.024 0.231-0.071 0.337l-1.837 4.163h20.483l-1.837-4.163c-0.045-0.099-0.071-0.215-0.071-0.337v-5.833c0-4.603-3.731-8.333-8.333-8.333s-8.333 3.731-8.333 8.333zM12 24.667h-6.497c-0.828-0-1.5-0.672-1.5-1.5 0-0.219 0.047-0.427 0.131-0.615l-0.004 0.009 1.869-4.237v-5.658c0-5.523 4.477-10 10-10s10 4.477 10 10v5.657l1.869 4.237c0.081 0.178 0.128 0.386 0.128 0.605 0 0.828-0.671 1.5-1.5 1.5h-6.497v0.667c0 2.209-1.791 4-4 4s-4-1.791-4-4v0-0.667zM18.333 24.667h-4.667v0.667c0 1.289 1.045 2.333 2.333 2.333s2.333-1.045 2.333-2.333v0-0.667z"></path>
</svg>
