<!-- Generated by IcoMoon.io -->
<svg version="1.1" xmlns="http://www.w3.org/2000/svg" width="32" height="32" viewBox="0 0 32 32">
<title>alert-snooze</title>
<path d="M15.999 4.667c-4.138 0-8 3.243-8 8.333v5.537l-1.755 4.13h19.559l-1.804-4.124v-2.876c0-0.552 0.448-1 1-1s1 0.448 1 1v2.457l1.841 4.208c0.482 1.101-0.325 2.335-1.527 2.335h-6.311c-0.001 2.209-1.793 4-4.002 4s-4.001-1.791-4.002-4h-6.257c-1.194 0-2.001-1.219-1.534-2.319l1.793-4.219v-5.13c0-6.243 4.805-10.333 10-10.333 1.146 0 2.273 0.199 3.334 0.576 0.52 0.185 0.792 0.757 0.607 1.277s-0.757 0.792-1.277 0.607c-0.849-0.302-1.749-0.46-2.664-0.46zM15.999 26.667c1.105 0 2.001-0.895 2.002-2h-4.004c0.001 1.105 0.897 2 2.002 2z"></path>
<path d="M20.334 9.333h-3.333l-0.136 0.009c-0.488 0.066-0.864 0.485-0.864 0.991 0 0.552 0.448 1 1 1h1.39l-2.204 3.085-0.074 0.119c-0.342 0.648 0.122 1.462 0.887 1.462h3.333l0.136-0.009c0.488-0.066 0.864-0.485 0.864-0.991 0-0.552-0.448-1-1-1h-1.39l2.204-3.085 0.074-0.119c0.342-0.648-0.122-1.462-0.887-1.462z"></path>
<path d="M28.334 2.667h-4.667l-0.136 0.009c-0.488 0.066-0.864 0.485-0.864 0.991 0 0.552 0.448 1 1 1h2.845l-3.689 5.796-0.065 0.119c-0.301 0.646 0.166 1.417 0.909 1.417h4.667l0.136-0.009c0.488-0.066 0.864-0.485 0.864-0.991 0-0.552-0.448-1-1-1h-2.845l3.689-5.796 0.065-0.119c0.301-0.646-0.166-1.417-0.909-1.417z"></path>
</svg>
