<!-- Generated by IcoMoon.io -->
<svg version="1.1" xmlns="http://www.w3.org/2000/svg" width="32" height="32" viewBox="0 0 32 32">
<title>alert-urgent</title>
<path d="M13.905 26.566l4.75-2.016c0.178 1.174-0.451 2.364-1.594 2.849s-2.435 0.111-3.156-0.833zM21.148 2.792c2.781 1.519 4.869 3.47 6.242 5.849s2.019 5.163 1.945 8.331c-0.013 0.552-0.471 0.989-1.023 0.976s-0.989-0.471-0.976-1.023c0.066-2.815-0.495-5.236-1.677-7.284s-2.998-3.744-5.469-5.094c-0.485-0.265-0.663-0.872-0.398-1.357s0.872-0.663 1.357-0.398zM8.949 8.687c3.816-1.699 8.272-0.092 10.133 3.661l0.131 0.279 1.717 3.856 2.264 1.96c0.124 0.107 0.231 0.232 0.355 0.433l0.078 0.152c0.373 0.842-0.008 1.826-0.85 2.199l-13.769 6.093c-0.212 0.094-0.442 0.143-0.675 0.143-0.92 0-1.667-0.746-1.667-1.666l-0.001-3.124-1.657-3.722c-1.751-3.933 0.012-8.515 3.94-10.264zM6.836 18.138l1.829 4.11 0.001 3.037 12.82-5.674-2.204-1.907-1.889-4.244-0.113-0.242c-1.375-2.774-4.682-3.966-7.518-2.703-2.919 1.3-4.228 4.699-2.926 7.623zM20.832 7.593c1.289 0.703 2.323 1.726 3.088 3.052s1.135 2.733 1.099 4.201c-0.013 0.552-0.472 0.989-1.024 0.975s-0.989-0.472-0.975-1.024c0.027-1.095-0.248-2.14-0.832-3.152s-1.352-1.772-2.314-2.296c-0.485-0.264-0.664-0.872-0.399-1.357s0.872-0.664 1.357-0.399z"></path>
</svg>
