<!-- Generated by IcoMoon.io -->
<svg version="1.1" xmlns="http://www.w3.org/2000/svg" width="32" height="32" viewBox="0 0 32 32">
<title>alert-off</title>
<path d="M6.959 8.373l-4-4c-0.391-0.391-0.39-1.024 0-1.414s1.024-0.39 1.414 0l24.666 24.667c0.391 0.391 0.391 1.024 0 1.414s-1.024 0.39-1.414-0l-4.373-4.373-3.253 0.001c0 2.209-1.791 4-4 4-2.13 0-3.872-1.665-3.993-3.765l-0.007-0.238-6.3 0.001c-0.228 0-0.454-0.047-0.664-0.138-0.844-0.367-1.231-1.348-0.865-2.193l1.829-4.211v-5.464c0-1.536 0.344-2.99 0.959-4.288zM21.252 22.667l-12.766-12.766c-0.314 0.86-0.486 1.79-0.486 2.761v5.879l-1.792 4.126h15.044zM18 24.665l-3.999 0.003c0 1.105 0.895 2 2 2 1.040 0 1.894-0.793 1.991-1.807l0.009-0.196z"></path>
<path d="M24 18.542l0.944 2.16 2.917 2.917c0.077-0.191 0.119-0.4 0.119-0.619 0-0.23-0.047-0.457-0.14-0.668l-1.84-4.208v-5.463l-0.006-0.335c-0.185-5.406-4.595-9.665-9.994-9.665-2.536 0-4.848 0.938-6.609 2.487l1.418 1.418c1.396-1.189 3.208-1.905 5.191-1.905 4.322 0 7.847 3.406 7.995 7.717l0.005 0.3-0 5.864z"></path>
</svg>
