<!-- Generated by IcoMoon.io -->
<svg version="1.1" xmlns="http://www.w3.org/2000/svg" width="32" height="32" viewBox="0 0 32 32">
<title>alert-off-regular</title>
<path d="M3.749 2.537c-0.157-0.168-0.38-0.273-0.627-0.273-0.473 0-0.857 0.384-0.857 0.857 0 0.247 0.105 0.47 0.272 0.627l0.001 0 4.865 4.866c-0.703 1.308-1.117 2.861-1.117 4.512 0 0.006 0 0.011 0 0.017v-0.001l-0.001 5.27-1.618 4.165-0.048 0.142c-0.033 0.116-0.053 0.25-0.053 0.389 0 0.808 0.655 1.463 1.463 1.463 0 0 0.001 0 0.001 0l5.969-0.001 0.007 0.222c0.136 2.1 1.872 3.751 3.994 3.751 2.199 0 3.984-1.774 4.002-3.969v-0.002h3.358l4.891 4.891c0.155 0.155 0.37 0.251 0.606 0.251 0.474 0 0.857-0.384 0.857-0.857 0-0.237-0.096-0.451-0.251-0.606l-25.715-25.713zM21.643 22.856h-15.248l1.545-3.97 0.032-0.101c0.017-0.063 0.026-0.136 0.026-0.21v-5.431l0.005-0.274c0.036-1.083 0.284-2.1 0.701-3.023l-0.020 0.050 12.96 12.959zM18.281 24.743c-0.095 1.185-1.080 2.111-2.281 2.111-1.261 0-2.284-1.021-2.288-2.281v-0l4.574-0.001-0.005 0.173zM9.531 5.895l1.215 1.215c1.398-1.222 3.239-1.968 5.255-1.968 4.419 0 8.001 3.582 8.001 8.001 0 0 0 0 0 0.001v-0 5.431l0.006 0.106c0.010 0.076 0.028 0.145 0.053 0.21l-0.002-0.006 0.975 2.513 2.281 2.28c0.074-0.175 0.114-0.368 0.114-0.57l-0.011-0.181c-0.016-0.13-0.047-0.247-0.090-0.359l0.003 0.010-1.616-4.165v-5.271l-0.005-0.291c-0.162-5.239-4.448-9.424-9.711-9.424-2.489 0-4.759 0.936-6.478 2.474l0.009-0.008z"></path>
</svg>
