<!-- Generated by IcoMoon.io -->
<svg version="1.1" xmlns="http://www.w3.org/2000/svg" width="32" height="32" viewBox="0 0 32 32">
<title>align-top</title>
<path d="M3.5 4.333c-0.46 0-0.833 0.373-0.833 0.833s0.373 0.833 0.833 0.833v0h25c0.46 0 0.833-0.373 0.833-0.833s-0.373-0.833-0.833-0.833v0h-25zM17.333 10.5c0-1.565 1.269-2.833 2.833-2.833v0h3.667c1.565 0 2.833 1.269 2.833 2.833v0 10c0 1.565-1.269 2.833-2.833 2.833v0h-3.667c-1.565 0-2.833-1.269-2.833-2.833v0-10zM20.167 9.333c-0.644 0-1.167 0.522-1.167 1.167v0 10c0 0.644 0.523 1.167 1.167 1.167h3.667c0.644 0 1.167-0.522 1.167-1.167v0-10c0-0.644-0.522-1.167-1.167-1.167v0h-3.667zM8.167 7.667h3.667c1.565 0 2.833 1.269 2.833 2.833v0 14.833c0 1.565-1.269 2.833-2.833 2.833v0h-3.667c-1.565 0-2.833-1.269-2.833-2.833v0-14.833c0-1.565 1.269-2.833 2.833-2.833v0zM11.833 9.333h-3.667c-0.644 0-1.167 0.522-1.167 1.167v0 14.833c0 0.645 0.523 1.167 1.167 1.167h3.667c0.644 0 1.167-0.522 1.167-1.167v0-14.833c0-0.644-0.522-1.167-1.167-1.167v0z"></path>
</svg>
