<!-- Generated by IcoMoon.io -->
<svg version="1.1" xmlns="http://www.w3.org/2000/svg" width="32" height="32" viewBox="0 0 32 32">
<title>align-center-horizontal</title>
<path d="M29.333 16.167c0 0.46-0.373 0.833-0.833 0.833h-1.833v4.167c0 1.565-1.269 2.833-2.833 2.833v0h-3.667c-1.565 0-2.833-1.269-2.833-2.833v0-4.167h-2.667v6.833c0 1.565-1.269 2.833-2.833 2.833v0h-3.667c-1.565 0-2.833-1.269-2.833-2.833v0-6.833h-1.833c-0.46 0-0.833-0.373-0.833-0.833s0.373-0.833 0.833-0.833v0h1.833v-7.167c0-1.565 1.269-2.833 2.833-2.833v0h3.667c1.565 0 2.833 1.269 2.833 2.833v0 7.167h2.667v-4.5c0-1.565 1.269-2.833 2.833-2.833v0h3.667c1.565 0 2.833 1.269 2.833 2.833v0 4.5h1.833c0.46 0 0.833 0.373 0.833 0.833zM25 10.833c0-0.644-0.522-1.167-1.167-1.167v0h-3.667c-0.644 0-1.167 0.522-1.167 1.167v0 10.333c0 0.645 0.523 1.167 1.167 1.167h3.667c0.644 0 1.167-0.522 1.167-1.167v0-10.333zM11.833 7h-3.667c-0.644 0-1.167 0.522-1.167 1.167v0 15.667c0 0.645 0.523 1.167 1.167 1.167h3.667c0.644 0 1.167-0.522 1.167-1.167v0-15.667c0-0.644-0.522-1.167-1.167-1.167v0z"></path>
</svg>
