<!-- Generated by IcoMoon.io -->
<svg version="1.1" xmlns="http://www.w3.org/2000/svg" width="32" height="32" viewBox="0 0 32 32">
<title>align-right</title>
<path d="M28 3.667c0-0.552-0.448-1-1-1s-1 0.448-1 1v24.667c0 0.552 0.448 1 1 1s1-0.448 1-1v-24.667zM21 5.333c1.657 0 3 1.343 3 3v3.333c0 1.657-1.343 3-3 3h-14c-1.657 0-3-1.343-3-3v-3.333c0-1.657 1.343-3 3-3h14zM22 8.333c0-0.552-0.448-1-1-1h-14c-0.552 0-1 0.448-1 1v3.333c0 0.552 0.448 1 1 1h14c0.552 0 1-0.448 1-1v-3.333zM21 17.333c1.657 0 3 1.343 3 3v3.333c0 1.657-1.343 3-3 3h-9.333c-1.657 0-3-1.343-3-3v-3.333c0-1.657 1.343-3 3-3h9.333zM22 20.333c0-0.552-0.448-1-1-1h-9.333c-0.552 0-1 0.448-1 1v3.333c0 0.552 0.448 1 1 1h9.333c0.552 0 1-0.448 1-1v-3.333z"></path>
</svg>
