<!-- Generated by IcoMoon.io -->
<svg version="1.1" xmlns="http://www.w3.org/2000/svg" width="32" height="32" viewBox="0 0 32 32">
<title>align-right</title>
<path d="M27.667 3.5c0-0.46-0.373-0.833-0.833-0.833s-0.833 0.373-0.833 0.833v0 25c0 0.46 0.373 0.833 0.833 0.833s0.833-0.373 0.833-0.833v0-25zM21.5 17.333c1.565 0 2.833 1.269 2.833 2.833v0 3.667c0 1.565-1.269 2.833-2.833 2.833v0h-10c-1.565 0-2.833-1.269-2.833-2.833v0-3.667c0-1.565 1.269-2.833 2.833-2.833v0h10zM22.667 20.167c0-0.644-0.522-1.167-1.167-1.167v0h-10c-0.644 0-1.167 0.522-1.167 1.167v0 3.667c0 0.645 0.523 1.167 1.167 1.167h10c0.644 0 1.167-0.522 1.167-1.167v0-3.667zM24.333 8.167v3.667c0 1.565-1.269 2.833-2.833 2.833v0h-14.833c-1.565 0-2.833-1.269-2.833-2.833v0-3.667c0-1.565 1.269-2.833 2.833-2.833v0h14.833c1.565 0 2.833 1.269 2.833 2.833v0zM22.667 11.833v-3.667c0-0.644-0.522-1.167-1.167-1.167v0h-14.833c-0.644 0-1.167 0.522-1.167 1.167v0 3.667c0 0.644 0.523 1.167 1.167 1.167h14.833c0.644 0 1.167-0.522 1.167-1.167v0z"></path>
</svg>
