<!-- Generated by IcoMoon.io -->
<svg version="1.1" xmlns="http://www.w3.org/2000/svg" width="32" height="32" viewBox="0 0 32 32">
<title>align-center-vertical</title>
<path d="M15.833 29.333c-0.46 0-0.833-0.373-0.833-0.833v-1.833h-4.167c-1.565 0-2.833-1.269-2.833-2.833v0-3.667c0-1.565 1.269-2.833 2.833-2.833v0h4.167v-2.667h-6.833c-1.565 0-2.833-1.269-2.833-2.833v0-3.667c0-1.565 1.269-2.833 2.833-2.833v0h6.833v-1.833c0-0.46 0.373-0.833 0.833-0.833s0.833 0.373 0.833 0.833v0 1.833h7.167c1.565 0 2.833 1.269 2.833 2.833v0 3.667c0 1.565-1.269 2.833-2.833 2.833v0h-7.167v2.667h4.5c1.565 0 2.833 1.269 2.833 2.833v0 3.667c0 1.565-1.269 2.833-2.833 2.833v0h-4.5v1.833c0 0.46-0.373 0.833-0.833 0.833zM21.167 25c0.644 0 1.167-0.522 1.167-1.167v0-3.667c0-0.644-0.522-1.167-1.167-1.167v0h-10.333c-0.644 0-1.167 0.522-1.167 1.167v0 3.667c0 0.645 0.523 1.167 1.167 1.167h10.333zM25 11.833v-3.667c0-0.644-0.522-1.167-1.167-1.167v0h-15.667c-0.644 0-1.167 0.522-1.167 1.167v0 3.667c0 0.644 0.523 1.167 1.167 1.167h15.667c0.644 0 1.167-0.522 1.167-1.167v0z"></path>
</svg>
