<!-- Generated by IcoMoon.io -->
<svg version="1.1" xmlns="http://www.w3.org/2000/svg" width="32" height="32" viewBox="0 0 32 32">
<title>align-center-vertical</title>
<path d="M15 28.333v-1.667h-3.333c-1.657 0-3-1.343-3-3v-3.333c0-1.657 1.343-3 3-3h3.333v-2.667h-6c-1.657 0-3-1.343-3-3v-3.333c0-1.657 1.343-3 3-3h6v-1.667c0-0.552 0.448-1 1-1s1 0.448 1 1v1.667h6c1.657 0 3 1.343 3 3v3.333c0 1.657-1.343 3-3 3h-6v2.667h3.333c1.657 0 3 1.343 3 3v3.333c0 1.657-1.343 3-3 3h-3.333v1.667c0 0.552-0.448 1-1 1s-1-0.448-1-1zM20.333 24.667c0.552 0 1-0.448 1-1v-3.333c0-0.552-0.448-1-1-1h-8.667c-0.552 0-1 0.448-1 1v3.333c0 0.552 0.448 1 1 1h8.667zM23 12.667c0.552 0 1-0.448 1-1v-3.333c0-0.552-0.448-1-1-1h-14c-0.552 0-1 0.448-1 1v3.333c0 0.552 0.448 1 1 1h14z"></path>
</svg>
