<!-- Generated by IcoMoon.io -->
<svg version="1.1" xmlns="http://www.w3.org/2000/svg" width="32" height="32" viewBox="0 0 32 32">
<title>align-space-evenly-vertical-regular</title>
<path d="M6.4 4.8c0-1.767 1.433-3.2 3.2-3.2v0h12.8c1.767 0 3.2 1.433 3.2 3.2v0 1.6c0 1.767-1.433 3.2-3.2 3.2v0h-12.8c-1.767 0-3.2-1.433-3.2-3.2v0-1.6zM9.6 3.2c-0.884 0-1.6 0.716-1.6 1.6v0 1.6c0 0.884 0.716 1.6 1.6 1.6v0h12.8c0.884 0 1.6-0.716 1.6-1.6v0-1.6c0-0.884-0.716-1.6-1.6-1.6v0h-12.8zM6.4 24c0-1.767 1.433-3.2 3.2-3.2v0h12.8c1.767 0 3.2 1.433 3.2 3.2v0 1.6c0 1.767-1.433 3.2-3.2 3.2v0h-12.8c-1.767 0-3.2-1.433-3.2-3.2v0-1.6zM9.6 22.4c-0.884 0-1.6 0.716-1.6 1.6v0 1.6c0 0.884 0.716 1.6 1.6 1.6v0h12.8c0.884 0 1.6-0.716 1.6-1.6v0-1.6c0-0.884-0.716-1.6-1.6-1.6v0h-12.8zM9.6 11.2c-1.767 0-3.2 1.433-3.2 3.2v0 1.6c0 1.767 1.433 3.2 3.2 3.2v0h12.8c1.767 0 3.2-1.433 3.2-3.2v0-1.6c0-1.767-1.433-3.2-3.2-3.2v0h-12.8zM8 14.4c0-0.884 0.716-1.6 1.6-1.6v0h12.8c0.884 0 1.6 0.716 1.6 1.6v0 1.6c0 0.884-0.716 1.6-1.6 1.6v0h-12.8c-0.884 0-1.6-0.716-1.6-1.6v0-1.6z"></path>
</svg>
