<!-- Generated by IcoMoon.io -->
<svg version="1.1" xmlns="http://www.w3.org/2000/svg" width="32" height="32" viewBox="0 0 32 32">
<title>animal-rabbit-off-regular</title>
<path d="M23.576 24.99l4.717 4.717c0.18 0.174 0.425 0.281 0.695 0.281 0.552 0 1-0.448 1-1 0-0.27-0.107-0.515-0.281-0.695l-26-26c-0.18-0.174-0.425-0.281-0.695-0.281-0.552 0-1 0.448-1 1 0 0.27 0.107 0.515 0.281 0.695l6.71 6.711c-0.588-0.263-1.274-0.415-1.995-0.415-2.761 0-5 2.239-5 5 0 2.405 1.698 4.413 3.96 4.892l0.033 0.006v2.1c0 2.761 2.239 5 5 5v0h9.106c1.484 0 2.78-0.808 3.47-2.010zM22.051 23.465c-0.217 0.887-1.006 1.535-1.945 1.535h-2.106v-0.5c0-2.485-2.015-4.5-4.5-4.5v0h-1.5c-0.552 0-1 0.448-1 1s0.448 1 1 1v0h1.5c1.381 0 2.5 1.119 2.5 2.5v0 0.5h-5c-1.657 0-3-1.343-3-3v0-4.002c0-0 0-0 0-0 0-2.16 1.712-3.921 3.854-3.997l0.007-0h0.725l9.465 9.465zM6.003 17.831c-1.179-0.423-2.006-1.53-2.006-2.831 0-1.657 1.344-3.001 3.001-3.001 0.783 0 1.495 0.3 2.030 0.79l-0.002-0.002c-1.773 1.026-2.961 2.889-3.022 5.035l-0 0.009zM28 17c0 0 0 0 0 0 0 2.031-1.513 3.708-3.474 3.966l-0.020 0.002 1.638 1.638c2.275-0.888 3.857-3.062 3.857-5.605 0-1.852-0.839-3.509-2.158-4.61l-0.010-0.008-7.173-7.46c-0.548-0.572-1.317-0.928-2.17-0.928-1.658 0-3.002 1.344-3.002 3.002 0 0.722 0.255 1.384 0.679 1.902l-0.004-0.005 1.904 2.35c-0.163 0.219-0.318 0.466-0.453 0.726l-0.014 0.030h-2.062l2 2h1.425l0.236-0.666c0.182-0.515 0.481-0.976 0.867-1.35l0.658-0.636-3.007-3.713c-0.139-0.171-0.223-0.391-0.223-0.63 0-0.553 0.449-1.002 1.002-1.002 0.284 0 0.539 0.118 0.722 0.307l0 0 7.256 7.546 0.047 0.038c0.906 0.737 1.48 1.852 1.48 3.102 0 0.002 0 0.003 0 0.005v-0z"></path>
</svg>
