<!-- Generated by IcoMoon.io -->
<svg version="1.1" xmlns="http://www.w3.org/2000/svg" width="32" height="32" viewBox="0 0 32 32">
<title>animal-dog</title>
<path d="M17.665 2.667l4.247-0c0.679 0 1.343 0.188 1.921 0.544l3.691 2.271c0.296 0.182 0.476 0.504 0.476 0.852v2c0 1.657-1.343 3-3 3h-0.333v12.063c1.329 0.178 2.259 0.739 2.793 1.701 0.298 0.536 0.424 1.12 0.483 1.657 0.058 0.521 0.057 1.066 0.057 1.546v0.034c0 0.552-0.448 1-1 1h-19.222c-2.823 0-5.111-2.288-5.111-5.111 0-1.864 0.999-3.494 2.485-4.386 0.474-0.284 1.088-0.13 1.372 0.343s0.13 1.088-0.343 1.372c-0.909 0.545-1.514 1.538-1.514 2.671 0 1.718 1.393 3.111 3.111 3.111 0.425 0 0.689-0.111 0.864-0.234 0.186-0.131 0.331-0.318 0.442-0.543 0.113-0.227 0.178-0.466 0.213-0.657 0.017-0.093 0.027-0.168 0.032-0.217 0.002-0.021 0.003-0.037 0.004-0.046l0.001-0.046c0.001-0.045 0.002-0.109 0.005-0.191 0.006-0.163 0.017-0.394 0.039-0.679 0.044-0.569 0.132-1.357 0.308-2.236 0.345-1.723 1.061-3.958 2.602-5.519 1.131-1.146 1.745-2.825 2.063-4.485 0.314-1.641 0.315-3.135 0.315-3.812v-3c0-1.656 1.341-3 2.999-3zM10.333 25.667c0.999 0.033 0.999 0.034 0.999 0.034l-0 0.003-0 0.005-0.001 0.013-0.002 0.038c-0.002 0.030-0.005 0.071-0.010 0.119-0.010 0.097-0.027 0.23-0.056 0.387-0.053 0.284-0.151 0.666-0.334 1.066h9.667c-0.122-0.658-0.453-1.341-1.352-1.76-0.015-0.007-0.029-0.014-0.044-0.022-0.070-0.037-0.269-0.102-0.599-0.154-0.307-0.048-0.646-0.073-0.935-0.073-0.071 0-0.229 0.002-0.377 0.005l-0.269 0.005c-0.552 0.010-1.008-0.429-1.018-0.982s0.429-1.008 0.981-1.018l0.274-0.005c0.143-0.002 0.318-0.005 0.409-0.005 0.313 0 0.66 0.021 1 0.063v-3.050c0-0.552 0.448-1 1-1s1 0.448 1 1v3.739c1.42 0.908 1.832 2.27 1.951 3.257h3.365c-0.007-0.124-0.016-0.244-0.029-0.361-0.044-0.401-0.125-0.692-0.244-0.905-0.173-0.313-0.578-0.734-2.044-0.734-0.552 0-1-0.448-1-1v-14c0-0.552 0.448-1 1-1h1.333c0.552 0 1-0.448 1-1v-1.441l-3.215-1.978c-0.263-0.162-0.564-0.247-0.873-0.247l-4.247 0c-0.551 0-0.999 0.447-0.999 1v2.976c0.017 0.305 0.123 0.567 0.273 0.739 0.135 0.153 0.348 0.286 0.727 0.286 0.382 0 0.604-0.135 0.741-0.292 0.153-0.175 0.259-0.447 0.259-0.775 0-0.552 0.448-1 1-1s1 0.448 1 1c0 0.739-0.236 1.5-0.754 2.092-0.534 0.61-1.313 0.975-2.246 0.975-0.416 0-0.798-0.072-1.141-0.205-0.050 0.443-0.118 0.912-0.211 1.394-0.349 1.821-1.068 3.957-2.604 5.514-1.126 1.141-1.743 2.906-2.065 4.508-0.157 0.783-0.236 1.488-0.275 1.997-0.020 0.254-0.029 0.457-0.034 0.595-0.002 0.069-0.004 0.121-0.004 0.155l-0 0.036-0 0.007c0 0.011-0 0.023-0.001 0.034l-0.999-0.034z"></path>
</svg>
