<!-- Generated by IcoMoon.io -->
<svg version="1.1" xmlns="http://www.w3.org/2000/svg" width="32" height="32" viewBox="0 0 32 32">
<title>app-generic</title>
<path d="M4 8.333c0-2.393 1.94-4.333 4.333-4.333h15.333c2.393 0 4.333 1.94 4.333 4.333v15.333c0 2.393-1.94 4.333-4.333 4.333h-15.333c-2.393 0-4.333-1.94-4.333-4.333v-15.333zM8.333 6c-1.289 0-2.333 1.045-2.333 2.333v0.333h20v-0.333c0-1.289-1.045-2.333-2.333-2.333h-15.333zM6 23.667c0 1.289 1.045 2.333 2.333 2.333h15.333c1.289 0 2.333-1.045 2.333-2.333v-13h-20v13zM9.133 12.667h4.4c0.626 0 1.133 0.507 1.133 1.133v9.067c0 0.626-0.507 1.133-1.133 1.133h-4.4c-0.626 0-1.133-0.507-1.133-1.133v-9.067c0-0.626 0.507-1.133 1.133-1.133zM10 22h2.667v-7.333h-2.667v7.333zM16 13.667c0-0.552 0.448-1 1-1h6c0.552 0 1 0.448 1 1s-0.448 1-1 1h-6c-0.552 0-1-0.448-1-1zM17 16.667c-0.552 0-1 0.448-1 1s0.448 1 1 1h4.667c0.552 0 1-0.448 1-1s-0.448-1-1-1h-4.667z"></path>
</svg>
