<!-- Generated by IcoMoon.io -->
<svg version="1.1" xmlns="http://www.w3.org/2000/svg" width="32" height="32" viewBox="0 0 32 32">
<title>app-recent</title>
<path d="M21 2.667c0 0 0 0 0 0 1.585 0 2.882 1.229 2.992 2.785l0.001 0.010 0.007 0.205v0.999l2.333 0.001c0 0 0 0 0 0 1.585 0 2.882 1.229 2.992 2.785l0.001 0.010 0.007 0.205v12.667c0 0 0 0 0 0 0 1.585-1.229 2.882-2.785 2.992l-0.010 0.001-0.205 0.007h-2.333v1c0 0 0 0 0 0 0 1.585-1.229 2.882-2.785 2.992l-0.010 0.001-0.205 0.007h-10c-0 0-0 0-0 0-1.585 0-2.882-1.229-2.992-2.785l-0.001-0.010-0.007-0.205v-1h-2.333c-0 0-0 0-0 0-1.585 0-2.882-1.229-2.992-2.785l-0.001-0.010-0.007-0.205v-12.667c0-0 0-0 0-0 0-1.585 1.229-2.882 2.785-2.992l0.010-0.001 0.205-0.007 2.333-0.001v-0.999c0-0 0-0 0-0 0-1.585 1.229-2.882 2.785-2.992l0.010-0.001 0.205-0.007h10zM21 4.667h-10c-0.504 0-0.921 0.373-0.99 0.859l-0.001 0.005-0.009 0.136v20.667c0 0.507 0.376 0.925 0.864 0.991l0.136 0.009h10c0.504-0 0.921-0.373 0.99-0.859l0.001-0.005 0.009-0.136v-20.667c-0-0.504-0.373-0.921-0.859-0.99l-0.005-0.001-0.136-0.009zM8 8.665l-2.333 0.001c-0.504 0-0.921 0.373-0.99 0.859l-0.001 0.005-0.009 0.136v12.667c0 0.507 0.376 0.925 0.864 0.991l0.136 0.009h2.333v-14.668zM26.333 8.667l-2.333-0.001v14.668h2.333c0.504-0 0.921-0.373 0.99-0.859l0.001-0.005 0.009-0.136v-12.667c0-0.552-0.448-1-1-1v0z"></path>
</svg>
