<!-- Generated by IcoMoon.io -->
<svg version="1.1" xmlns="http://www.w3.org/2000/svg" width="32" height="32" viewBox="0 0 32 32">
<title>app-folder-regular</title>
<path d="M8 10.333c0-1.289 1.045-2.333 2.333-2.333v0h2.667c1.289 0 2.333 1.045 2.333 2.333v0 2.667c0 1.289-1.045 2.333-2.333 2.333v0h-2.667c-1.289 0-2.333-1.045-2.333-2.333v0-2.667zM10.333 9.667c-0.368 0-0.667 0.298-0.667 0.667v0 2.667c0 0.368 0.298 0.667 0.667 0.667v0h2.667c0.368 0 0.667-0.298 0.667-0.667v0-2.667c0-0.368-0.298-0.667-0.667-0.667v0h-2.667zM10.333 16.667c-1.289 0-2.333 1.045-2.333 2.333v0 2.667c0 1.289 1.045 2.333 2.333 2.333v0h2.667c1.289 0 2.333-1.045 2.333-2.333v0-2.667c0-1.289-1.045-2.333-2.333-2.333v0h-2.667zM9.667 19c0-0.368 0.298-0.667 0.667-0.667v0h2.667c0.368 0 0.667 0.298 0.667 0.667v0 2.667c0 0.368-0.298 0.667-0.667 0.667v0h-2.667c-0.368 0-0.667-0.298-0.667-0.667v0-2.667zM16.667 10.333c0-1.289 1.045-2.333 2.333-2.333v0h2.667c1.289 0 2.333 1.045 2.333 2.333v0 2.667c0 1.289-1.045 2.333-2.333 2.333v0h-2.667c-1.289 0-2.333-1.045-2.333-2.333v0-2.667zM19 9.667c-0.368 0-0.667 0.298-0.667 0.667v0 2.667c0 0.368 0.298 0.667 0.667 0.667v0h2.667c0.368 0 0.667-0.298 0.667-0.667v0-2.667c0-0.368-0.298-0.667-0.667-0.667v0h-2.667zM19 16.667c-1.289 0-2.333 1.045-2.333 2.333v0 2.667c0 1.289 1.045 2.333 2.333 2.333v0h2.667c1.289 0 2.333-1.045 2.333-2.333v0-2.667c0-1.289-1.045-2.333-2.333-2.333v0h-2.667zM18.333 19c0-0.368 0.298-0.667 0.667-0.667v0h2.667c0.368 0 0.667 0.298 0.667 0.667v0 2.667c0 0.368-0.298 0.667-0.667 0.667v0h-2.667c-0.368 0-0.667-0.298-0.667-0.667v0-2.667zM4 8.167c0-2.301 1.865-4.167 4.167-4.167v0h15.667c2.301 0 4.167 1.865 4.167 4.167v0 15.667c0 2.301-1.865 4.167-4.167 4.167v0h-15.667c-2.301 0-4.167-1.865-4.167-4.167v0-15.667zM8.167 5.667c-1.381 0-2.5 1.119-2.5 2.5v0 15.667c0 1.381 1.119 2.5 2.5 2.5v0h15.667c1.381 0 2.5-1.119 2.5-2.5v0-15.667c0-1.381-1.119-2.5-2.5-2.5v0h-15.667z"></path>
</svg>
