<!-- Generated by IcoMoon.io -->
<svg version="1.1" xmlns="http://www.w3.org/2000/svg" width="32" height="32" viewBox="0 0 32 32">
<title>app-recent</title>
<path d="M21 2.667c1.588 0 2.887 1.234 2.993 2.795l0.007 0.205v0.999l2.333 0.001c1.588 0 2.887 1.234 2.993 2.795l0.007 0.205v12.667c0 1.588-1.234 2.888-2.795 2.993l-0.205 0.007h-2.333v1c0 1.588-1.234 2.887-2.795 2.993l-0.205 0.007h-10c-1.588 0-2.888-1.234-2.993-2.795l-0.007-0.205v-1h-2.333c-1.588 0-2.888-1.233-2.993-2.795l-0.007-0.205v-12.667c0-1.588 1.234-2.888 2.795-2.993l0.205-0.007 2.333-0.001v-0.999c0-1.588 1.234-2.888 2.795-2.993l0.205-0.007h10zM21 4.667h-10c-0.506 0-0.925 0.376-0.991 0.864l-0.009 0.136v20.667c0 0.506 0.376 0.925 0.864 0.991l0.136 0.009h10c0.506 0 0.925-0.376 0.991-0.864l0.009-0.136v-20.667c0-0.506-0.376-0.925-0.864-0.991l-0.136-0.009zM8 8.665l-2.333 0.001c-0.506 0-0.925 0.376-0.991 0.864l-0.009 0.136v12.667c0 0.506 0.376 0.925 0.864 0.991l0.136 0.009h2.333v-14.668zM26.333 8.667l-2.333-0.001v14.668h2.333c0.506 0 0.925-0.376 0.991-0.864l0.009-0.136v-12.667c0-0.552-0.448-1-1-1z"></path>
</svg>
