<!-- Generated by IcoMoon.io -->
<svg version="1.1" xmlns="http://www.w3.org/2000/svg" width="32" height="32" viewBox="0 0 32 32">
<title>app-generic</title>
<path d="M9 13c-1.105 0-2 0.895-2 2v0 8c0 1.105 0.895 2 2 2v0h3c1.105 0 2-0.895 2-2v0-8c0-1.105-0.895-2-2-2v0h-3zM9 15h3v8h-3v-8zM16 14c0-0.552 0.448-1 1-1v0h7c0.552 0 1 0.448 1 1s-0.448 1-1 1v0h-7c-0.552 0-1-0.448-1-1v0zM17 17c-0.552 0-1 0.448-1 1s0.448 1 1 1v0h5c0.552 0 1-0.448 1-1s-0.448-1-1-1v0h-5zM3 7.5c0-2.485 2.015-4.5 4.5-4.5v0h17c2.485 0 4.5 2.015 4.5 4.5v0 17c0 2.485-2.015 4.5-4.5 4.5v0h-17c-2.485 0-4.5-2.015-4.5-4.5v0-17zM7.5 5c-1.381 0-2.5 1.119-2.5 2.5v0 1.5h22v-1.5c0-1.381-1.119-2.5-2.5-2.5v0h-17zM27 11h-22v13.5c0 1.381 1.119 2.5 2.5 2.5v0h17c1.381 0 2.5-1.119 2.5-2.5v0-13.5z"></path>
</svg>
