<!-- Generated by IcoMoon.io -->
<svg version="1.1" xmlns="http://www.w3.org/2000/svg" width="32" height="32" viewBox="0 0 32 32">
<title>approvals-app</title>
<path d="M14.707 0.293c-0.182-0.188-0.437-0.305-0.719-0.305-0.552 0-1 0.448-1 1 0 0.282 0.117 0.537 0.305 0.719l2.3 2.3c-6.993 0.214-12.593 5.949-12.593 12.993 0 7.18 5.82 13 13 13s13-5.82 13-13v-0.080c-0.003-0.52-0.439-0.92-0.958-0.92h-0.086c-0.537 0-0.956 0.462-0.956 1 0 6.075-4.925 11-11 11s-11-4.925-11-11c0-5.934 4.698-10.77 10.578-10.992l-2.285 2.285c-0.174 0.18-0.281 0.425-0.281 0.695 0 0.552 0.448 1 1 1 0.27 0 0.515-0.107 0.695-0.281l4-4c0.181-0.181 0.293-0.431 0.293-0.707s-0.112-0.526-0.293-0.707l-4-4zM22.707 12.293c0.181 0.181 0.293 0.431 0.293 0.707s-0.112 0.526-0.293 0.707l-6 6c-0.181 0.181-0.431 0.293-0.707 0.293s-0.526-0.112-0.707-0.293l-3-3c-0.174-0.18-0.281-0.425-0.281-0.695 0-0.552 0.448-1 1-1 0.27 0 0.515 0.107 0.695 0.281l2.293 2.293 5.293-5.293c0.181-0.181 0.431-0.293 0.707-0.293s0.526 0.112 0.707 0.293v0z"></path>
</svg>
