<!-- Generated by IcoMoon.io -->
<svg version="1.1" xmlns="http://www.w3.org/2000/svg" width="32" height="32" viewBox="0 0 32 32">
<title>apps-list</title>
<path d="M8.331 21.336c1.288 0 2.333 1.045 2.333 2.333v3.331c0 1.289-1.045 2.333-2.333 2.333v0h-3.331c-1.289 0-2.333-1.045-2.333-2.333v0-3.331c0-1.288 1.045-2.333 2.333-2.333h3.331zM8.331 23.336h-3.331c-0.184 0-0.333 0.149-0.333 0.333v0 3.331c0 0.184 0.149 0.333 0.333 0.333h3.331c0.184 0 0.333-0.149 0.333-0.333v0-3.331c0-0.184-0.149-0.333-0.333-0.333v0zM12.997 24h15.34c0.552 0 1 0.448 1 1 0 0.504-0.373 0.921-0.858 0.99l-0.005 0.001-0.136 0.009h-15.34c-0.552-0-1-0.448-1-1 0-0.504 0.373-0.921 0.858-0.99l0.005-0.001 0.136-0.009zM8.331 12.001c1.288 0 2.333 1.045 2.333 2.333v3.331c0 1.289-1.045 2.333-2.333 2.333v0h-3.331c-1.289 0-2.333-1.045-2.333-2.333v0-3.332c0-1.288 1.045-2.333 2.333-2.333h3.331zM8.331 14.001h-3.331c-0.184 0-0.333 0.149-0.333 0.333v0 3.331c0 0.184 0.149 0.333 0.333 0.333h3.331c0.184 0 0.333-0.149 0.333-0.333v0-3.332c0-0.184-0.149-0.333-0.333-0.333v0zM12.997 14.667h15.34c0.552 0 1 0.448 1 1 0 0.504-0.373 0.921-0.858 0.99l-0.005 0.001-0.136 0.009h-15.34c-0.552-0-1-0.448-1-1 0-0.504 0.373-0.921 0.858-0.99l0.005-0.001 0.136-0.009zM8.331 2.667c1.288 0 2.333 1.045 2.333 2.333v3.331c0 1.289-1.045 2.333-2.333 2.333v0h-3.331c-1.289 0-2.333-1.045-2.333-2.333v0-3.331c0-1.288 1.045-2.333 2.333-2.333h3.331zM8.331 4.667h-3.331c-0.184 0-0.333 0.149-0.333 0.333v0 3.331c0 0.184 0.149 0.333 0.333 0.333h3.331c0.184 0 0.333-0.149 0.333-0.333v0-3.331c0-0.184-0.149-0.333-0.333-0.333v0zM12.997 5.333h15.34c0.552 0 1 0.448 1 1 0 0.504-0.373 0.921-0.858 0.99l-0.005 0.001-0.136 0.009h-15.34c-0.552-0-1-0.448-1-1 0-0.504 0.373-0.921 0.858-0.99l0.005-0.001 0.136-0.009z"></path>
</svg>
