<!-- Generated by IcoMoon.io -->
<svg version="1.1" xmlns="http://www.w3.org/2000/svg" width="32" height="32" viewBox="0 0 32 32">
<title>apps</title>
<path d="M24.656 3.107l4.238 4.238c1.172 1.172 1.172 3.071 0 4.243l-3.446 3.445c1.444 0.217 2.551 1.462 2.551 2.967v7c0 1.657-1.343 3-3 3h-18c-1.657 0-3-1.343-3-3v-18c0-1.657 1.343-3 3-3h7c1.505 0 2.752 1.109 2.967 2.554l3.447-3.447c1.172-1.172 3.071-1.172 4.243 0zM6 24.999c0 0.552 0.448 1 1 1l7.999-0.001 0.001-8.999-9-0.001v8.001zM16.999 25.999l8.001 0.001c0.552 0 1-0.448 1-1v-7c0-0.552-0.448-1-1-1l-8.001-0.001v9zM14 5.999h-7c-0.552 0-1 0.448-1 1v7.999h9v-7.999c0-0.552-0.448-1-1-1zM17 12.412v2.588l2.587-0.001-2.587-2.587zM21.828 4.521l-4.238 4.238c-0.391 0.391-0.391 1.024 0 1.414l4.238 4.238c0.391 0.391 1.024 0.391 1.414 0l4.238-4.238c0.391-0.391 0.391-1.024 0-1.414l-4.238-4.238c-0.391-0.391-1.024-0.391-1.414 0z"></path>
</svg>
