<!-- Generated by IcoMoon.io -->
<svg version="1.1" xmlns="http://www.w3.org/2000/svg" width="32" height="32" viewBox="0 0 32 32">
<title>apps-add-in</title>
<path d="M14 4c1.657 0 3 1.343 3 3v8h8c1.657 0 3 1.343 3 3v7c0 1.657-1.343 3-3 3h-18c-1.657 0-3-1.343-3-3v-18c0-1.657 1.343-3 3-3h7zM15 17h-9v8c0 0.552 0.448 1 1 1h7.999l0.001-9zM25 17h-8.001v9h8.001c0.552 0 1-0.448 1-1v-7c0-0.552-0.448-1-1-1zM14 6h-7c-0.552 0-1 0.448-1 1v8h9v-8c0-0.552-0.448-1-1-1zM23.864 2.676l0.136-0.009c0.506 0 0.925 0.376 0.991 0.864l0.009 0.136v3.333h3.333c0.506 0 0.925 0.376 0.991 0.864l0.009 0.136c0 0.506-0.376 0.925-0.864 0.991l-0.136 0.009h-3.333v3.333c0 0.506-0.376 0.925-0.864 0.991l-0.136 0.009c-0.506 0-0.925-0.376-0.991-0.864l-0.009-0.136v-3.333h-3.333c-0.506 0-0.925-0.376-0.991-0.864l-0.009-0.136c0-0.506 0.376-0.925 0.864-0.991l0.136-0.009h3.333v-3.333c0-0.506 0.376-0.925 0.864-0.991z"></path>
</svg>
