<!-- Generated by IcoMoon.io -->
<svg version="1.1" xmlns="http://www.w3.org/2000/svg" width="32" height="32" viewBox="0 0 32 32">
<title>apps</title>
<path d="M24.808 2.954c-0.588-0.588-1.401-0.952-2.298-0.952s-1.71 0.364-2.298 0.952l-3.213 3.213c-0.046-1.759-1.483-3.167-3.249-3.167-0 0-0 0-0 0h-7.5c-1.795 0-3.25 1.455-3.25 3.25v0 19.5c0 1.795 1.455 3.25 3.25 3.25v0h19.5c1.795 0 3.25-1.455 3.25-3.25v0-7.5c0-0 0-0 0-0 0-1.763-1.403-3.197-3.153-3.249l-0.005-0 3.209-3.208c0.588-0.588 0.952-1.401 0.952-2.298s-0.364-1.71-0.952-2.298l-4.243-4.243zM19.176 15h-2.176v-2.176l2.176 2.176zM21.626 4.368c0.226-0.226 0.539-0.366 0.884-0.366s0.658 0.14 0.884 0.366l4.242 4.243c0.226 0.226 0.366 0.539 0.366 0.884s-0.14 0.658-0.366 0.884l-4.242 4.242c-0.226 0.226-0.539 0.366-0.884 0.366s-0.658-0.14-0.884-0.366l-4.243-4.242c-0.226-0.226-0.366-0.539-0.366-0.884s0.14-0.658 0.366-0.884l4.243-4.243zM15 6.25v8.75h-10v-8.75c0-0.69 0.56-1.25 1.25-1.25h7.5c0.69 0 1.25 0.56 1.25 1.25zM5 25.75v-8.75h10v10h-8.75c-0.69 0-1.25-0.56-1.25-1.25zM17 17h8.75c0.69 0 1.25 0.56 1.25 1.25v7.5c0 0.69-0.56 1.25-1.25 1.25h-8.75v-10z"></path>
</svg>
