<!-- Generated by IcoMoon.io -->
<svg version="1.1" xmlns="http://www.w3.org/2000/svg" width="32" height="32" viewBox="0 0 32 32">
<title>apps-list-detail</title>
<path d="M5.667 5.333c-1.657 0-3 1.343-3 3v0 3.333c0 1.657 1.343 3 3 3v0h3.333c1.657 0 3-1.343 3-3v0-3.333c0-1.657-1.343-3-3-3v0h-3.333zM4.667 8.333c0-0.552 0.448-1 1-1v0h3.333c0.552 0 1 0.448 1 1v0 3.333c0 0.552-0.448 1-1 1v0h-3.333c-0.552 0-1-0.448-1-1v0-3.333zM15 6.667c-0.552 0-1 0.448-1 1s0.448 1 1 1v0h13.333c0.552 0 1-0.448 1-1s-0.448-1-1-1v0h-13.333zM15 10.667c-0.552 0-1 0.448-1 1s0.448 1 1 1v0h9.333c0.552 0 1-0.448 1-1s-0.448-1-1-1v0h-9.333zM5.667 17.333c-1.657 0-3 1.343-3 3v0 3.333c0 1.657 1.343 3 3 3v0h3.333c1.657 0 3-1.343 3-3v0-3.333c0-1.657-1.343-3-3-3v0h-3.333zM4.667 20.333c0-0.552 0.448-1 1-1v0h3.333c0.552 0 1 0.448 1 1v0 3.333c0 0.552-0.448 1-1 1v0h-3.333c-0.552 0-1-0.448-1-1v0-3.333zM15 18.667c-0.552 0-1 0.448-1 1s0.448 1 1 1v0h13.333c0.552 0 1-0.448 1-1s-0.448-1-1-1v0h-13.333zM15 22.667c-0.552 0-1 0.448-1 1s0.448 1 1 1v0h9.333c0.552 0 1-0.448 1-1s-0.448-1-1-1v0h-9.333z"></path>
</svg>
