<!-- Generated by IcoMoon.io -->
<svg version="1.1" xmlns="http://www.w3.org/2000/svg" width="32" height="32" viewBox="0 0 32 32">
<title>apps-list</title>
<path d="M8.331 21.336c1.289 0 2.333 1.045 2.333 2.333v3.331c0 1.289-1.045 2.333-2.333 2.333h-3.33c-1.289 0-2.333-1.045-2.333-2.333v-3.331c0-1.289 1.045-2.333 2.333-2.333h3.33zM8.331 23.336h-3.33c-0.184 0-0.333 0.149-0.333 0.333v3.331c0 0.184 0.149 0.333 0.333 0.333h3.33c0.184 0 0.333-0.149 0.333-0.333v-3.331c0-0.184-0.149-0.333-0.333-0.333zM12.997 24h15.34c0.552 0 1 0.448 1 1 0 0.506-0.376 0.925-0.864 0.991l-0.136 0.009h-15.34c-0.552 0-1-0.448-1-1 0-0.506 0.376-0.925 0.864-0.991l0.136-0.009zM8.331 12.001c1.289 0 2.333 1.045 2.333 2.333v3.33c0 1.289-1.045 2.333-2.333 2.333h-3.33c-1.289 0-2.333-1.045-2.333-2.333v-3.33c0-1.289 1.045-2.333 2.333-2.333h3.33zM8.331 14.001h-3.33c-0.184 0-0.333 0.149-0.333 0.333v3.33c0 0.184 0.149 0.333 0.333 0.333h3.33c0.184 0 0.333-0.149 0.333-0.333v-3.33c0-0.184-0.149-0.333-0.333-0.333zM12.997 14.667h15.34c0.552 0 1 0.448 1 1 0 0.506-0.376 0.925-0.864 0.991l-0.136 0.009h-15.34c-0.552 0-1-0.448-1-1 0-0.506 0.376-0.925 0.864-0.991l0.136-0.009zM8.331 2.667c1.289 0 2.333 1.045 2.333 2.333v3.331c0 1.289-1.045 2.333-2.333 2.333h-3.33c-1.289 0-2.333-1.045-2.333-2.333v-3.33c0-1.289 1.045-2.333 2.333-2.333h3.33zM8.331 4.667h-3.33c-0.184 0-0.333 0.149-0.333 0.333v3.331c0 0.184 0.149 0.333 0.333 0.333h3.33c0.184 0 0.333-0.149 0.333-0.333v-3.33c0-0.184-0.149-0.333-0.333-0.333zM12.997 5.333h15.34c0.552 0 1 0.448 1 1 0 0.506-0.376 0.925-0.864 0.991l-0.136 0.009h-15.34c-0.552 0-1-0.448-1-1 0-0.506 0.376-0.925 0.864-0.991l0.136-0.009z"></path>
</svg>
