<!-- Generated by IcoMoon.io -->
<svg version="1.1" xmlns="http://www.w3.org/2000/svg" width="32" height="32" viewBox="0 0 32 32">
<title>archive-regular</title>
<path d="M13.667 14.833c-0.46 0-0.833 0.373-0.833 0.833s0.373 0.833 0.833 0.833v0h4.667c0.46 0 0.833-0.373 0.833-0.833s-0.373-0.833-0.833-0.833v0h-4.667zM4.167 6.667c0-1.381 1.119-2.5 2.5-2.5v0h18.667c1.381 0 2.5 1.119 2.5 2.5v0 2.667c0 0 0 0 0 0 0 0.954-0.534 1.783-1.32 2.205l-0.013 0.007v11.455c0 2.669-2.164 4.833-4.833 4.833v0h-11.333c-2.669 0-4.833-2.164-4.833-4.833v0-11.455c-0.799-0.428-1.333-1.257-1.333-2.211 0-0 0-0 0-0v0-2.667zM7.167 11.833v11.167c0 1.749 1.418 3.167 3.167 3.167v0h11.333c1.749 0 3.167-1.418 3.167-3.167v0-11.167h-17.667zM6.667 5.833c-0.46 0-0.833 0.373-0.833 0.833v2.667c0 0.46 0.373 0.833 0.833 0.833h18.667c0.46 0 0.833-0.373 0.833-0.833v-2.667c0-0.46-0.373-0.833-0.833-0.833h-18.667z"></path>
</svg>
