<!-- Generated by IcoMoon.io -->
<svg version="1.1" xmlns="http://www.w3.org/2000/svg" width="32" height="32" viewBox="0 0 32 32">
<title>arrow-step-in-right-regular</title>
<path d="M11.094 22.592c-0.147-0.154-0.237-0.362-0.237-0.591 0-0.244 0.102-0.464 0.265-0.62l0-0 4.738-4.523h-12.718c-0.473 0-0.857-0.384-0.857-0.857s0.384-0.857 0.857-0.857v0h12.718l-4.738-4.522c-0.164-0.156-0.266-0.377-0.266-0.621 0-0.474 0.384-0.858 0.858-0.858 0.23 0 0.438 0.090 0.592 0.237l-0-0 6.286 6c0.164 0.156 0.265 0.376 0.265 0.62s-0.102 0.464-0.265 0.62l-0 0-6.286 6c-0.154 0.147-0.362 0.237-0.592 0.237-0.243 0-0.463-0.101-0.619-0.264l-0-0zM25.143 11.429c2.525 0 4.571 2.047 4.571 4.571s-2.047 4.571-4.571 4.571v0c-2.525 0-4.571-2.047-4.571-4.571s2.047-4.571 4.571-4.571v0zM25.143 13.143c-1.578 0-2.857 1.279-2.857 2.857s1.279 2.857 2.857 2.857v0c1.578 0 2.857-1.279 2.857-2.857s-1.279-2.857-2.857-2.857v0z"></path>
</svg>
