<!-- Generated by IcoMoon.io -->
<svg version="1.1" xmlns="http://www.w3.org/2000/svg" width="32" height="32" viewBox="0 0 32 32">
<title>arrow-down</title>
<path d="M26.387 17.69c0.381-0.4 0.365-1.033-0.034-1.414s-1.033-0.365-1.414 0.034l-7.939 8.335v-19.645c0-0.552-0.448-1-1-1s-1 0.448-1 1v19.646l-7.94-8.336c-0.381-0.4-1.014-0.415-1.414-0.034s-0.415 1.014-0.034 1.414l9.422 9.892c0.215 0.225 0.489 0.359 0.773 0.4 0.062 0.012 0.127 0.019 0.192 0.019s0.131-0.006 0.194-0.019c0.284-0.041 0.557-0.175 0.772-0.4l9.422-9.892z"></path>
</svg>
