<!-- Generated by IcoMoon.io -->
<svg version="1.1" xmlns="http://www.w3.org/2000/svg" width="32" height="32" viewBox="0 0 32 32">
<title>arrow-sort-down</title>
<path d="M15.533 5.343l0.133-0.009c0 0 0.001 0 0.001 0 0.504 0 0.921 0.373 0.99 0.859l0.001 0.005 0.009 0.136-0.001 16.928 4.293-4.295c0.181-0.181 0.431-0.293 0.707-0.293 0.224 0 0.43 0.073 0.597 0.198l-0.003-0.002 0.112 0.096c0.181 0.181 0.294 0.431 0.294 0.708 0 0.224-0.074 0.431-0.198 0.598l0.002-0.003-0.096 0.112-5.996 6c-0.181 0.181-0.431 0.293-0.707 0.293-0.224 0-0.43-0.073-0.597-0.198l0.003 0.002-0.112-0.097-6.005-6c-0.179-0.181-0.29-0.43-0.29-0.704 0-0.552 0.448-1 1-1 0.223 0 0.428 0.073 0.594 0.196l-0.003-0.002 0.112 0.096 4.293 4.291v-16.923c0-0.505 0.375-0.923 0.861-0.99l0.005-0.001z"></path>
</svg>
