<!-- Generated by IcoMoon.io -->
<svg version="1.1" xmlns="http://www.w3.org/2000/svg" width="32" height="32" viewBox="0 0 32 32">
<title>arrow-clockwise-dashes</title>
<path d="M13.505 4.26c0.806-0.17 1.64-0.26 2.495-0.26s1.689 0.089 2.495 0.26c0.54 0.114 0.886 0.645 0.771 1.185s-0.645 0.886-1.185 0.771c-0.67-0.142-1.366-0.217-2.081-0.217s-1.411 0.075-2.081 0.217c-0.54 0.114-1.071-0.231-1.185-0.771s0.231-1.071 0.771-1.185zM21.153 6.228c0.301-0.463 0.921-0.594 1.384-0.293 0.517 0.336 1.006 0.711 1.463 1.12v-1.389c0-0.552 0.448-1 1-1s1 0.448 1 1v4c0 0.552-0.448 1-1 1h-4c-0.552 0-1-0.448-1-1s0.448-1 1-1h1.799c-0.419-0.389-0.872-0.742-1.353-1.055-0.463-0.301-0.594-0.921-0.293-1.384zM26 16v-1c0-0.552 0.448-1 1-1s1 0.448 1 1v1c0 0.855-0.089 1.689-0.26 2.495-0.114 0.54-0.645 0.886-1.185 0.771s-0.886-0.645-0.771-1.185c0.142-0.67 0.217-1.366 0.217-2.081zM10.847 6.228c0.301 0.463 0.17 1.082-0.293 1.384-1.174 0.764-2.178 1.768-2.942 2.942-0.301 0.463-0.921 0.594-1.384 0.293s-0.594-0.921-0.293-1.384c0.916-1.408 2.12-2.611 3.528-3.528 0.463-0.301 1.082-0.17 1.384 0.293zM6.217 13.919c0.114-0.54-0.231-1.071-0.771-1.185s-1.071 0.231-1.185 0.771c-0.17 0.806-0.26 1.64-0.26 2.495s0.089 1.689 0.26 2.495c0.114 0.54 0.645 0.886 1.185 0.771s0.886-0.645 0.771-1.185c-0.142-0.67-0.217-1.366-0.217-2.081s0.075-1.411 0.217-2.081zM25.772 21.153c0.463 0.301 0.594 0.921 0.293 1.384-0.916 1.408-2.12 2.611-3.528 3.528-0.463 0.301-1.082 0.17-1.384-0.293s-0.17-1.082 0.293-1.383c1.174-0.764 2.178-1.768 2.942-2.942 0.301-0.463 0.921-0.594 1.383-0.293zM7.612 21.446c-0.301-0.463-0.921-0.594-1.384-0.293s-0.594 0.921-0.293 1.384c0.916 1.408 2.12 2.611 3.528 3.528 0.463 0.301 1.082 0.17 1.384-0.293s0.17-1.082-0.293-1.383c-1.174-0.764-2.178-1.768-2.942-2.942zM12.734 26.555c0.114-0.54 0.645-0.886 1.185-0.771 0.67 0.142 1.366 0.217 2.081 0.217s1.411-0.075 2.081-0.217c0.54-0.114 1.071 0.231 1.185 0.771s-0.231 1.071-0.771 1.185c-0.806 0.17-1.64 0.26-2.495 0.26s-1.689-0.089-2.495-0.26c-0.54-0.114-0.886-0.645-0.771-1.185z"></path>
</svg>
