<!-- Generated by IcoMoon.io -->
<svg version="1.1" xmlns="http://www.w3.org/2000/svg" width="32" height="32" viewBox="0 0 32 32">
<title>arrow-bidirectional-up-down-regular</title>
<path d="M15 7.504v16.992l-4.608-4.852c-0.183-0.192-0.44-0.311-0.725-0.311-0.553 0-1.001 0.448-1.001 1.001 0 0.267 0.105 0.51 0.276 0.69l-0-0 6.333 6.667c0.183 0.192 0.44 0.312 0.725 0.312s0.543-0.119 0.725-0.311l0-0 6.333-6.667c0.17-0.179 0.275-0.422 0.275-0.689 0-0.553-0.448-1.001-1.001-1.001-0.285 0-0.543 0.119-0.725 0.311l-0 0-4.608 4.852v-16.992l4.608 4.852c0.183 0.192 0.44 0.311 0.725 0.311 0.553 0 1.001-0.448 1.001-1.001 0-0.267-0.105-0.51-0.276-0.69l0 0-6.333-6.664c-0.182-0.193-0.44-0.314-0.726-0.314s-0.544 0.12-0.726 0.313l-0 0-6.332 6.664c-0.17 0.179-0.275 0.422-0.275 0.689 0 0.553 0.448 1.001 1.001 1.001 0.285 0 0.543-0.119 0.725-0.311l0-0 4.608-4.852z"></path>
</svg>
