<!-- Generated by IcoMoon.io -->
<svg version="1.1" xmlns="http://www.w3.org/2000/svg" width="32" height="32" viewBox="0 0 32 32">
<title>arrow-import</title>
<path d="M28.334 6c0.506 0 0.925 0.376 0.991 0.864l0.009 0.136v17.339c0 0.552-0.448 1-1 1-0.506 0-0.925-0.376-0.991-0.864l-0.009-0.136v-17.339c0-0.552 0.448-1 1-1zM16.863 8.405l0.097-0.112c0.355-0.355 0.911-0.387 1.302-0.097l0.112 0.097 6.662 6.664c0.355 0.355 0.387 0.91 0.097 1.301l-0.097 0.112-6.662 6.671c-0.39 0.391-1.023 0.391-1.414 0.001-0.355-0.355-0.388-0.91-0.098-1.302l0.097-0.112 4.948-4.956-18.24 0.001c-0.506 0-0.925-0.376-0.991-0.864l-0.009-0.136c0-0.506 0.376-0.925 0.864-0.991l0.136-0.009 18.257-0.001-4.965-4.965c-0.355-0.355-0.387-0.911-0.097-1.302v0z"></path>
</svg>
