<!-- Generated by IcoMoon.io -->
<svg version="1.1" xmlns="http://www.w3.org/2000/svg" width="32" height="32" viewBox="0 0 32 32">
<title>arrow-trending-settings</title>
<path d="M27 4c0.552 0 1 0.448 1 1v0 6.667c0 0.552-0.448 1-1 1s-1-0.448-1-1v0-4.253l-7.96 7.96c-0.181 0.181-0.431 0.292-0.707 0.292s-0.526-0.112-0.707-0.292v0l-2.96-2.96-7.96 7.96c-0.178 0.166-0.418 0.268-0.682 0.268-0.552 0-1-0.448-1-1 0-0.264 0.102-0.504 0.269-0.682l-0.001 0.001 8.667-8.667c0.181-0.181 0.431-0.292 0.707-0.292s0.526 0.112 0.707 0.292v0l2.96 2.96 7.253-7.253h-4.253c-0.552 0-1-0.448-1-1s0.448-1 1-1v0h6.667zM19.037 18.633c0.067 0.222 0.105 0.477 0.105 0.741 0 1.245-0.853 2.291-2.007 2.584l-0.018 0.004-0.78 0.192c-0.058 0.355-0.092 0.763-0.092 1.18 0 0.434 0.036 0.86 0.106 1.274l-0.006-0.045 0.72 0.173c1.181 0.291 2.042 1.341 2.042 2.593 0 0.269-0.040 0.528-0.114 0.773l0.005-0.019-0.249 0.843c0.587 0.515 1.253 0.932 1.98 1.228l0.657-0.691c0.487-0.511 1.173-0.829 1.933-0.829s1.446 0.318 1.932 0.828l0.001 0.001 0.665 0.7c0.76-0.313 1.413-0.723 1.985-1.224l-0.008 0.007-0.265-0.915c-0.066-0.221-0.105-0.476-0.105-0.739 0-1.246 0.854-2.292 2.009-2.585l0.018-0.004 0.777-0.192c0.058-0.355 0.092-0.764 0.092-1.18 0-0.434-0.036-0.86-0.106-1.275l0.006 0.045-0.719-0.173c-1.181-0.291-2.042-1.341-2.042-2.593 0-0.269 0.040-0.528 0.114-0.773l-0.005 0.019 0.248-0.84c-0.564-0.499-1.218-0.914-1.932-1.213l-0.046-0.017-0.657 0.692c-0.487 0.512-1.173 0.83-1.933 0.83s-1.447-0.318-1.932-0.829l-0.001-0.001-0.664-0.7c-0.724 0.293-1.391 0.707-1.977 1.216l0.264 0.915zM23.333 25.333c-1.067 0-1.933-0.896-1.933-2 0-1.105 0.867-2 1.933-2s1.933 0.895 1.933 2c0 1.104-0.867 2-1.933 2z"></path>
</svg>
