<!-- Generated by IcoMoon.io -->
<svg version="1.1" xmlns="http://www.w3.org/2000/svg" width="32" height="32" viewBox="0 0 32 32">
<title>arrow-sort-up</title>
<path d="M8.96 11.62l5.993-5.993c0.355-0.355 0.91-0.387 1.301-0.097l0.112 0.097 6.007 5.993c0.391 0.39 0.392 1.023 0.001 1.414-0.355 0.355-0.91 0.388-1.302 0.098l-0.112-0.097-4.297-4.289 0.001 16.928c0 0.506-0.376 0.925-0.864 0.991l-0.136 0.009c-0.506 0-0.925-0.376-0.991-0.864l-0.009-0.136-0.001-16.93-4.289 4.291c-0.355 0.355-0.911 0.387-1.302 0.097l-0.112-0.097c-0.355-0.355-0.387-0.911-0.097-1.302l0.097-0.112z"></path>
</svg>
