<!-- Generated by IcoMoon.io -->
<svg version="1.1" xmlns="http://www.w3.org/2000/svg" width="32" height="32" viewBox="0 0 32 32">
<title>arrow-wrap-regular</title>
<path d="M22.4 6.4c2.651 0 4.8 2.149 4.8 4.8s-2.149 4.8-4.8 4.8v0h-12.8c-1.767 0-3.2 1.433-3.2 3.2s1.433 3.2 3.2 3.2v0h16.469l-1.035-1.034c-0.145-0.145-0.235-0.345-0.235-0.566 0-0.442 0.359-0.801 0.801-0.801 0.221 0 0.421 0.090 0.566 0.235v0l2.4 2.4c0.145 0.145 0.235 0.345 0.235 0.566s-0.090 0.422-0.235 0.566l-2.4 2.4c-0.145 0.145-0.345 0.235-0.566 0.235-0.442 0-0.801-0.359-0.801-0.801 0-0.221 0.090-0.421 0.235-0.566v0l1.035-1.034h-16.469c-2.651 0-4.8-2.149-4.8-4.8s2.149-4.8 4.8-4.8v0h12.8c1.767 0 3.2-1.433 3.2-3.2s-1.433-3.2-3.2-3.2v0h-16.8c-0.442 0-0.8-0.358-0.8-0.8s0.358-0.8 0.8-0.8v0h16.8z"></path>
</svg>
