<!-- Generated by IcoMoon.io -->
<svg version="1.1" xmlns="http://www.w3.org/2000/svg" width="32" height="32" viewBox="0 0 32 32">
<title>arrow-trending</title>
<path d="M18.331 7.333l10.072 0.001 0.134 0.019 0.132 0.037 0.080 0.034c0.106 0.046 0.205 0.114 0.292 0.201l0.054 0.059 0.058 0.075 0.072 0.12 0.052 0.12 0.025 0.085 0.018 0.085 0.013 0.126 0.001 10.043c0 0.552-0.448 1-1 1-0.506 0-0.925-0.376-0.991-0.864l-0.009-0.136-0.001-7.593-10.292 10.294c-0.355 0.355-0.911 0.387-1.302 0.097l-0.112-0.097-3.961-3.961-7.293 7.293c-0.391 0.391-1.024 0.391-1.414 0-0.355-0.355-0.387-0.911-0.097-1.302l0.097-0.112 8-8c0.355-0.355 0.911-0.387 1.302-0.097l0.112 0.097 3.961 3.961 9.583-9.584h-7.585c-0.506 0-0.925-0.376-0.991-0.864l-0.009-0.136c0-0.506 0.376-0.925 0.864-0.991l0.136-0.009z"></path>
</svg>
