<!-- Generated by IcoMoon.io -->
<svg version="1.1" xmlns="http://www.w3.org/2000/svg" width="32" height="32" viewBox="0 0 32 32">
<title>arrow-paragraph</title>
<path d="M28.333 2.667c0.552 0 1 0.448 1 1v0 5.333c0 2.025-1.642 3.667-3.667 3.667v0h-7.587l3.627 3.627c0.196 0.183 0.318 0.443 0.318 0.732 0 0.552-0.448 1-1 1-0.289 0-0.549-0.122-0.731-0.318l-0.001-0.001-5.333-5.333c-0.181-0.181-0.292-0.431-0.292-0.707s0.112-0.526 0.292-0.707v0l5.333-5.333c0.183-0.196 0.443-0.318 0.732-0.318 0.552 0 1 0.448 1 1 0 0.289-0.122 0.549-0.318 0.731l-0.001 0.001-3.627 3.627h7.587c0.92 0 1.667-0.747 1.667-1.667v-5.333c0-0.552 0.448-1 1-1v0zM10.293 14.96c-0.181 0.181-0.292 0.431-0.292 0.707s0.112 0.526 0.292 0.707v0l3.627 3.627h-10.253c-0.552 0-1 0.448-1 1s0.448 1 1 1v0h10.253l-3.627 3.627c-0.196 0.183-0.318 0.443-0.318 0.732 0 0.552 0.448 1 1 1 0.289 0 0.549-0.122 0.731-0.318l0.001-0.001 5.333-5.333c0.181-0.181 0.292-0.431 0.292-0.707s-0.112-0.526-0.292-0.707v0l-5.333-5.333c-0.181-0.181-0.431-0.292-0.707-0.292s-0.526 0.112-0.707 0.292v0z"></path>
</svg>
