<!-- Generated by IcoMoon.io -->
<svg version="1.1" xmlns="http://www.w3.org/2000/svg" width="32" height="32" viewBox="0 0 32 32">
<title>arrow_turn_up_left</title>
<path d="M23.667 27.167c0 0.46 0.373 0.833 0.833 0.833s0.833-0.373 0.833-0.833v0-12.333c0-2.669-2.164-4.833-4.833-4.833v0h-12.112l4.693-4.569c0.156-0.152 0.252-0.363 0.252-0.597 0-0.46-0.373-0.834-0.834-0.834-0.226 0-0.431 0.090-0.582 0.236l0-0-6.333 6.167c-0.156 0.152-0.252 0.363-0.252 0.597s0.097 0.446 0.252 0.597l0 0 6.333 6.167c0.15 0.146 0.355 0.236 0.581 0.236 0.46 0 0.834-0.373 0.834-0.834 0-0.234-0.097-0.446-0.252-0.597l-0-0-5.035-4.903h12.454c1.749 0 3.167 1.418 3.167 3.167v0 12.333z"></path>
</svg>
