<!-- Generated by IcoMoon.io -->
<svg version="1.1" xmlns="http://www.w3.org/2000/svg" width="32" height="32" viewBox="0 0 32 32">
<title>arrow-hook-down-right</title>
<path d="M7.817 9.161c1.415-1.413 3.512-2.304 6.183-2.304h8c0.473 0 0.857 0.384 0.857 0.857s-0.384 0.857-0.857 0.857v0h-8c-2.273 0-3.915 0.75-4.971 1.803-0.989 0.995-1.6 2.366-1.6 3.879 0 0.011 0 0.022 0 0.033v-0.002c0 1.43 0.536 2.85 1.6 3.911 1.056 1.054 2.698 1.803 4.971 1.803h9.36l-3.68-3.68c-0.168-0.157-0.273-0.38-0.273-0.627 0-0.473 0.384-0.857 0.857-0.857 0.247 0 0.47 0.105 0.627 0.272l0 0.001 5.143 5.143c0.155 0.155 0.251 0.369 0.251 0.606s-0.096 0.451-0.251 0.606v0l-5.143 5.143c-0.157 0.168-0.38 0.273-0.627 0.273-0.473 0-0.857-0.384-0.857-0.857 0-0.247 0.105-0.47 0.272-0.627l0-0 3.68-3.68h-9.36c-2.671 0-4.768-0.893-6.183-2.304-1.3-1.305-2.103-3.104-2.103-5.091 0-0.012 0-0.023 0-0.035v0.002c0-1.856 0.696-3.721 2.103-5.125z"></path>
</svg>
