<!-- Generated by IcoMoon.io -->
<svg version="1.1" xmlns="http://www.w3.org/2000/svg" width="32" height="32" viewBox="0 0 32 32">
<title>arrow-reply-down</title>
<path d="M12.369 10.372c0.188-0.182 0.305-0.437 0.305-0.719 0-0.552-0.448-1-1-1-0.282 0-0.537 0.117-0.719 0.305l-0 0-6.663 6.671c-0.181 0.181-0.292 0.431-0.292 0.707s0.112 0.526 0.292 0.707v0l6.663 6.664c0.18 0.174 0.425 0.281 0.695 0.281 0.552 0 1-0.448 1-1 0-0.27-0.107-0.515-0.281-0.695l-4.96-4.96h10.456c2.127 0 3.747-0.323 5.185-1.019l0.328-0.168c1.47-0.79 2.645-1.965 3.413-3.391l0.022-0.044c0.813-1.52 1.187-3.224 1.187-5.513 0-0.552-0.448-1-1-1s-1 0.448-1 1v0c0 1.979-0.304 3.36-0.951 4.571-0.6 1.119-1.494 2.014-2.58 2.597l-0.033 0.016c-1.117 0.597-2.381 0.901-4.125 0.945l-0.445 0.005h-10.449l4.953-4.961z"></path>
</svg>
