<!-- Generated by IcoMoon.io -->
<svg version="1.1" xmlns="http://www.w3.org/2000/svg" width="32" height="32" viewBox="0 0 32 32">
<title>arrow-up</title>
<path d="M16 29.333c-0.46 0-0.833-0.373-0.833-0.833v-21.631l-8.407 8.548c-0.153 0.164-0.37 0.266-0.61 0.266-0.46 0-0.833-0.373-0.833-0.833 0-0.236 0.098-0.449 0.256-0.601l0-0 9.843-10.010c0.15-0.148 0.356-0.24 0.583-0.24 0.032 0 0.063 0.002 0.093 0.005l-0.004-0c0.208 0.022 0.39 0.119 0.523 0.261l0 0.001 9.816 9.983c0.158 0.152 0.256 0.365 0.256 0.601 0 0.46-0.373 0.833-0.833 0.833-0.241 0-0.458-0.102-0.61-0.266l-0-0.001-8.407-8.548v21.631c0 0.46-0.373 0.833-0.833 0.833z"></path>
</svg>
