<!-- Generated by IcoMoon.io -->
<svg version="1.1" xmlns="http://www.w3.org/2000/svg" width="32" height="32" viewBox="0 0 32 32">
<title>arrow-circle-down-split</title>
<path d="M14.667 18.666l-0.112-0.097c-0.391-0.29-0.947-0.258-1.302 0.097l-0.585 0.585-0-5.251h6.666l0 5.254-0.795-0.684c-0.391-0.291-0.947-0.258-1.302 0.097-0.391 0.39-0.391 1.024-0 1.414l2.389 2.294 0.112 0.097c0.391 0.291 0.947 0.258 1.302-0.097l2.293-2.293 0.097-0.112c0.29-0.391 0.258-0.947-0.097-1.302l-0.112-0.097c-0.391-0.29-0.947-0.258-1.302 0.097l-0.585 0.585-0-6.253-0.009-0.136c-0.066-0.488-0.485-0.864-0.991-0.864l-0.025 0.002h-3.308l-0-4.335-0.009-0.136c-0.066-0.488-0.485-0.864-0.991-0.864l-0.136 0.009c-0.488 0.066-0.864 0.485-0.864 0.991l0 4.335h-3.275c-0.019-0.001-0.038-0.002-0.058-0.002l-0.136 0.009c-0.488 0.066-0.864 0.485-0.864 0.991l0 6.256-0.586-0.588-0.112-0.097c-0.391-0.291-0.947-0.258-1.302 0.097-0.391 0.39-0.391 1.024-0 1.414l2.292 2.294 0.112 0.097c0.391 0.291 0.947 0.258 1.302-0.097l2.294-2.294 0.097-0.112c0.291-0.391 0.258-0.947-0.097-1.302zM2.665 15.999c0 7.364 5.97 13.333 13.333 13.333s13.333-5.969 13.333-13.333c0-7.364-5.969-13.333-13.333-13.333s-13.333 5.97-13.333 13.333zM27.332 15.999c0 6.259-5.074 11.333-11.333 11.333s-11.333-5.074-11.333-11.333c0-6.259 5.074-11.333 11.333-11.333s11.333 5.074 11.333 11.333z"></path>
</svg>
