<!-- Generated by IcoMoon.io -->
<svg version="1.1" xmlns="http://www.w3.org/2000/svg" width="32" height="32" viewBox="0 0 32 32">
<title>arrow-wrap-off</title>
<path d="M4.566 3.434c-0.145-0.145-0.345-0.235-0.566-0.235-0.442 0-0.801 0.359-0.801 0.801 0 0.221 0.090 0.421 0.235 0.566v0l1.886 1.885c-0.306 0.117-0.518 0.408-0.518 0.749 0 0.441 0.357 0.799 0.798 0.8h1.269l6.4 6.4h-3.669c-2.651 0-4.8 2.149-4.8 4.8s2.149 4.8 4.8 4.8v0h13.269l4.566 4.566c0.145 0.145 0.345 0.234 0.566 0.234 0.442 0 0.8-0.358 0.8-0.8 0-0.221-0.090-0.422-0.235-0.566v0l-24-24zM21.269 22.4h-11.669c-1.767 0-3.2-1.433-3.2-3.2s1.433-3.2 3.2-3.2v0h5.269l6.4 6.4zM22.4 14.4h-4.606l1.6 1.6h3.006c2.651 0 4.8-2.149 4.8-4.8s-2.149-4.8-4.8-4.8v0h-12.606l1.6 1.6h11.006c1.767 0 3.2 1.433 3.2 3.2s-1.433 3.2-3.2 3.2v0zM27.862 24.469l-2.069-2.069h0.275l-1.035-1.034c-0.145-0.145-0.235-0.345-0.235-0.566 0-0.442 0.359-0.801 0.801-0.801 0.221 0 0.421 0.090 0.566 0.235v0l2.4 2.4c0.145 0.145 0.235 0.345 0.235 0.566s-0.090 0.422-0.235 0.566l-0.704 0.702z"></path>
</svg>
