<!-- Generated by IcoMoon.io -->
<svg version="1.1" xmlns="http://www.w3.org/2000/svg" width="32" height="32" viewBox="0 0 32 32">
<title>arrow-sort</title>
<path d="M23.001 5.333l-0.136 0.009c-0.488 0.066-0.864 0.485-0.864 0.991l-0.001 16.923-4.293-4.29-0.112-0.097c-0.392-0.29-0.947-0.258-1.302 0.097-0.39 0.391-0.39 1.024 0.001 1.414l6.005 6 0.112 0.097c0.392 0.29 0.947 0.258 1.302-0.097l5.995-6 0.097-0.112c0.29-0.392 0.258-0.947-0.097-1.302l-0.112-0.097c-0.392-0.29-0.947-0.258-1.302 0.097l-4.293 4.295 0.001-16.928-0.009-0.136c-0.066-0.488-0.485-0.864-0.991-0.864zM8.286 5.626l-5.993 5.993-0.097 0.112c-0.29 0.392-0.258 0.947 0.097 1.302l0.112 0.097c0.392 0.29 0.947 0.258 1.302-0.097l4.289-4.291 0.001 16.93 0.009 0.136c0.066 0.488 0.485 0.864 0.991 0.864l0.136-0.009c0.488-0.066 0.864-0.485 0.864-0.991l-0.001-16.928 4.297 4.289 0.112 0.097c0.392 0.29 0.947 0.257 1.302-0.098 0.39-0.391 0.389-1.024-0.001-1.414l-6.007-5.993-0.112-0.097c-0.392-0.29-0.947-0.257-1.301 0.097z"></path>
</svg>
