<!-- Generated by IcoMoon.io -->
<svg version="1.1" xmlns="http://www.w3.org/2000/svg" width="32" height="32" viewBox="0 0 32 32">
<title>arrow-expand</title>
<path d="M10.127 20.466c0.391-0.391 1.024-0.391 1.414 0s0.391 1.024 0 1.414l-4.127 4.125h2.919c0.506 0 0.925 0.376 0.991 0.864l0.009 0.136c0 0.552-0.448 1-1 1h-5.333c-0.552 0-1-0.448-1-1v-5.333c0-0.552 0.448-1 1-1s1 0.448 1 1v2.919l4.127-4.125zM21.673 28.006c-0.552 0-1-0.448-1-1s0.448-1 1-1h2.915l-4.122-4.125c-0.355-0.355-0.387-0.911-0.096-1.302l0.097-0.112c0.391-0.39 1.024-0.39 1.414 0.001l4.126 4.128v-2.923c0-0.506 0.376-0.925 0.864-0.991l0.136-0.009c0.552 0 1 0.448 1 1v5.333c0 0.552-0.448 1-1 1h-5.333zM10.333 4c0.552 0 1 0.448 1 1s-0.448 1-1 1h-2.916l4.123 4.127c0.355 0.355 0.387 0.911 0.096 1.302l-0.097 0.112c-0.391 0.39-1.024 0.39-1.414-0.001l-4.126-4.13v2.923c0 0.506-0.376 0.925-0.864 0.991l-0.136 0.009c-0.552 0-1-0.448-1-1v-5.333c0-0.552 0.448-1 1-1h5.333zM27.007 4c0.552 0 1 0.448 1 1v5.333c0 0.552-0.448 1-1 1s-1-0.448-1-1v-2.921l-4.126 4.128c-0.355 0.355-0.91 0.387-1.302 0.097l-0.112-0.097c-0.391-0.39-0.391-1.024-0-1.414l4.123-4.126h-2.916c-0.506 0-0.925-0.376-0.991-0.864l-0.009-0.136c0-0.552 0.448-1 1-1h5.333z"></path>
</svg>
