<!-- Generated by IcoMoon.io -->
<svg version="1.1" xmlns="http://www.w3.org/2000/svg" width="32" height="32" viewBox="0 0 32 32">
<title>arrow-turn-up-down-regular</title>
<path d="M6.938 25.649c-0.13 0.3-0.424 0.506-0.766 0.506-0.46 0-0.833-0.373-0.833-0.833 0-0.11 0.021-0.214 0.060-0.31l-0.002 0.006 8.549-20.873c0.509-1.242 2.267-1.242 2.776 0l8.249 20.139 2.779-5.809c0.134-0.291 0.424-0.49 0.759-0.49 0.46 0 0.833 0.373 0.833 0.833 0 0.137-0.033 0.266-0.092 0.38l0.002-0.005-3.667 7.667c-0.191 0.4-0.663 0.58-1.072 0.41l-8-3.333c-0.304-0.129-0.513-0.425-0.513-0.769 0-0.46 0.373-0.833 0.833-0.833 0.116 0 0.226 0.024 0.326 0.066l-0.005-0.002 6.322 2.634-8.143-19.88-8.395 20.499z"></path>
</svg>
