<!-- Generated by IcoMoon.io -->
<svg version="1.1" xmlns="http://www.w3.org/2000/svg" width="32" height="32" viewBox="0 0 32 32">
<title>arrow-fit-in-regular</title>
<path d="M9.034 11.766c-0.145-0.145-0.235-0.345-0.235-0.566 0-0.442 0.359-0.801 0.801-0.801 0.221 0 0.421 0.090 0.566 0.235v0l4 4c0.145 0.145 0.235 0.345 0.235 0.566s-0.090 0.422-0.235 0.566l-4 4c-0.145 0.145-0.345 0.235-0.566 0.235-0.442 0-0.801-0.359-0.801-0.801 0-0.221 0.090-0.421 0.235-0.566v0l2.635-2.634h-7.669c-0.442 0-0.8-0.358-0.8-0.8s0.358-0.8 0.8-0.8v0h7.669l-2.635-2.634zM22.966 11.766c0.145-0.145 0.235-0.345 0.235-0.566 0-0.442-0.359-0.801-0.801-0.801-0.221 0-0.421 0.090-0.566 0.235v0l-4 4c-0.145 0.145-0.235 0.345-0.235 0.566s0.090 0.422 0.235 0.566l4 4c0.145 0.145 0.345 0.235 0.566 0.235 0.442 0 0.801-0.359 0.801-0.801 0-0.221-0.090-0.421-0.235-0.566v0l-2.635-2.634h7.669c0.442 0 0.8-0.358 0.8-0.8s-0.358-0.8-0.8-0.8v0h-7.669l2.635-2.634z"></path>
</svg>
