<!-- Generated by IcoMoon.io -->
<svg version="1.1" xmlns="http://www.w3.org/2000/svg" width="32" height="32" viewBox="0 0 32 32">
<title>arrow-turn-right</title>
<path d="M21.707 4.293c-0.391-0.39-1.024-0.39-1.414 0s-0.39 1.024 0 1.414l4.293 4.293h-10.253c-3.13 0-5.667 2.537-5.667 5.667v11c0 0.552 0.448 1 1 1s1-0.448 1-1v-11c0-2.025 1.642-3.667 3.667-3.667h10.252l-4.293 4.293c-0.39 0.391-0.39 1.024 0 1.414s1.024 0.39 1.414-0l6-6.001c0.187-0.188 0.293-0.442 0.293-0.707s-0.105-0.52-0.293-0.707l-6-5.999z"></path>
</svg>
