<!-- Generated by IcoMoon.io -->
<svg version="1.1" xmlns="http://www.w3.org/2000/svg" width="32" height="32" viewBox="0 0 32 32">
<title>arrow-join</title>
<path d="M8 4c0-0.442-0.358-0.8-0.8-0.8s-0.8 0.358-0.8 0.8v0c-0 0.021-0 0.046-0 0.070 0 5.046 3.134 9.36 7.562 11.102l0.081 0.028c-4.509 1.769-7.643 6.084-7.643 11.13 0 0.025 0 0.049 0 0.074l-0-0.004c0 0.442 0.358 0.8 0.8 0.8s0.8-0.358 0.8-0.8v0c0-5.798 4.602-10.4 10.4-10.4h1.269l-1.835 1.834c-0.145 0.145-0.235 0.345-0.235 0.566 0 0.442 0.359 0.801 0.801 0.801 0.221 0 0.421-0.090 0.566-0.235v0l3.2-3.2c0.145-0.145 0.235-0.345 0.235-0.566s-0.090-0.422-0.235-0.566l-3.2-3.2c-0.145-0.145-0.345-0.235-0.566-0.235-0.442 0-0.801 0.359-0.801 0.801 0 0.221 0.090 0.421 0.235 0.566v0l1.835 1.834h-1.269c-0.020 0-0.045 0-0.069 0-5.706 0-10.331-4.625-10.331-10.331 0-0.024 0-0.049 0-0.073l-0 0.004zM13.6 6.4c-0.442 0-0.8 0.358-0.8 0.8s0.358 0.8 0.8 0.8v0h10.4c0.838 0 1.6 0.762 1.6 1.6v11.2c0 0.838-0.762 1.6-1.6 1.6h-10.4c-0.442 0-0.8 0.358-0.8 0.8s0.358 0.8 0.8 0.8v0h10.4c1.722 0 3.2-1.478 3.2-3.2v-11.2c0-1.722-1.478-3.2-3.2-3.2h-10.4z"></path>
</svg>
