<!-- Generated by IcoMoon.io -->
<svg version="1.1" xmlns="http://www.w3.org/2000/svg" width="32" height="32" viewBox="0 0 32 32">
<title>arrow-export-up-regular</title>
<path d="M16.373 2.96c-0.181-0.181-0.431-0.292-0.707-0.292s-0.526 0.112-0.707 0.292v0l-6.667 6.667c-0.166 0.178-0.268 0.418-0.268 0.682 0 0.552 0.448 1 1 1 0.264 0 0.504-0.102 0.682-0.269l-0.001 0.001 4.96-4.96v18.253c0 0.552 0.448 1 1 1s1-0.448 1-1v0-18.253l4.96 4.96c0.183 0.196 0.443 0.318 0.732 0.318 0.552 0 1-0.448 1-1 0-0.289-0.122-0.549-0.318-0.731l-0.001-0.001-6.667-6.667zM7 27.333c-0.552 0-1 0.448-1 1s0.448 1 1 1v0h17.333c0.552 0 1-0.448 1-1s-0.448-1-1-1v0h-17.333z"></path>
</svg>
