<!-- Generated by IcoMoon.io -->
<svg version="1.1" xmlns="http://www.w3.org/2000/svg" width="32" height="32" viewBox="0 0 32 32">
<title>arrow-redo</title>
<path d="M25.667 2.667c-0.506 0-0.925 0.376-0.991 0.864l-0.009 0.136v7.587l-6.099-6.080c-3.256-3.256-8.486-3.335-11.838-0.238l-0.248 0.238c-3.337 3.337-3.337 8.748 0 12.086l11.794 11.786c0.391 0.39 1.024 0.39 1.414-0.001s0.39-1.024-0.001-1.414l-11.793-11.785c-2.556-2.556-2.556-6.701 0-9.257 2.479-2.479 6.451-2.554 9.021-0.224l0.237 0.225 6.096 6.078-7.584 0c-0.506 0-0.925 0.376-0.991 0.864l-0.009 0.136c0 0.506 0.376 0.925 0.864 0.991l0.136 0.009h10c0.506 0 0.925-0.376 0.991-0.864l0.009-0.136v-10c0-0.552-0.448-1-1-1z"></path>
</svg>
