<!-- Generated by IcoMoon.io -->
<svg version="1.1" xmlns="http://www.w3.org/2000/svg" width="32" height="32" viewBox="0 0 32 32">
<title>arrow-curve-down-right</title>
<path d="M10.789 4.686c-0.235-0.142-0.389-0.396-0.389-0.686 0-0.442 0.358-0.8 0.8-0.8 0.152 0 0.294 0.042 0.415 0.116l-0.004-0.002c2.104 1.264 3.63 2.771 4.611 4.845 0.973 2.050 1.378 4.586 1.378 7.842v10.069l5.034-5.034c0.145-0.145 0.345-0.235 0.566-0.235 0.442 0 0.8 0.358 0.8 0.8 0 0.221-0.089 0.421-0.234 0.566v0l-6.4 6.4c-0.145 0.145-0.345 0.235-0.566 0.235s-0.422-0.090-0.566-0.235l-6.4-6.4c-0.145-0.145-0.234-0.345-0.234-0.566 0-0.442 0.358-0.8 0.8-0.8 0.221 0 0.421 0.090 0.566 0.235v0l5.034 5.034v-10.069c0-3.144-0.395-5.408-1.222-7.157-0.819-1.728-2.093-3.019-3.989-4.157z"></path>
</svg>
