<!-- Generated by IcoMoon.io -->
<svg version="1.1" xmlns="http://www.w3.org/2000/svg" width="32" height="32" viewBox="0 0 32 32">
<title>arrow-step-over-regular</title>
<path d="M19.438 5.034c-0.145 0.145-0.234 0.345-0.234 0.566s0.090 0.421 0.234 0.566l5.032 5.035h-8.47c-4.691 0-8.949 2.624-11.098 6.469-0.064 0.112-0.102 0.247-0.102 0.39 0 0.442 0.358 0.8 0.8 0.8 0.298 0 0.559-0.163 0.696-0.406l0.002-0.004c1.87-3.347 5.598-5.65 9.701-5.65h8.469l-5.030 5.032c-0.151 0.146-0.244 0.35-0.244 0.575 0 0.442 0.358 0.8 0.8 0.8 0.226 0 0.43-0.094 0.575-0.244l6.375-6.376c0.159-0.146 0.258-0.355 0.258-0.588 0-0.221-0.090-0.421-0.235-0.566l-6.397-6.4c-0.145-0.145-0.345-0.234-0.566-0.234s-0.421 0.090-0.566 0.234v0zM19.2 24c0-1.767-1.433-3.2-3.2-3.2s-3.2 1.433-3.2 3.2v0c0 1.767 1.433 3.2 3.2 3.2s3.2-1.433 3.2-3.2v0zM16 22.4c0.884 0 1.6 0.716 1.6 1.6s-0.716 1.6-1.6 1.6v0c-0.884 0-1.6-0.716-1.6-1.6s0.716-1.6 1.6-1.6v0z"></path>
</svg>
