<!-- Generated by IcoMoon.io -->
<svg version="1.1" xmlns="http://www.w3.org/2000/svg" width="32" height="32" viewBox="0 0 32 32">
<title>arrow-autofit-width-dotted-regular</title>
<path d="M23.677 5.333c1.657 0 3 1.343 3 3v0 5.333c0 0.552-0.448 1-1 1s-1-0.448-1-1v0-5.333c0-0.552-0.448-1-1-1v0h-15.333c-0.552 0-1 0.448-1 1v0 5.333c0 0.552-0.448 1-1 1s-1-0.448-1-1v0-5.333c0-1.657 1.343-3 3-3h15.333zM24.373 25.707l3.333-3.333c0.181-0.181 0.292-0.431 0.292-0.707s-0.112-0.526-0.292-0.707v0l-3.333-3.333c-0.183-0.196-0.443-0.318-0.732-0.318-0.552 0-1 0.448-1 1 0 0.289 0.122 0.549 0.318 0.731l0.001 0.001 2.627 2.627-2.627 2.627c-0.196 0.183-0.318 0.443-0.318 0.732 0 0.552 0.448 1 1 1 0.289 0 0.549-0.122 0.731-0.318l0.001-0.001zM4.293 20.96c-0.181 0.181-0.292 0.431-0.292 0.707s0.112 0.526 0.292 0.707v0l3.333 3.333c0.178 0.166 0.418 0.268 0.682 0.268 0.552 0 1-0.448 1-1 0-0.264-0.102-0.504-0.269-0.682l0.001 0.001-2.627-2.627 2.627-2.627c0.196-0.183 0.318-0.443 0.318-0.732 0-0.552-0.448-1-1-1-0.289 0-0.549 0.122-0.731 0.318l-0.001 0.001-3.333 3.333zM17.333 21.667c0-0.552-0.448-1-1-1v0h-0.667c-0.552 0-1 0.448-1 1s0.448 1 1 1v0h0.667c0.552 0 1-0.448 1-1v0zM13.333 21.667c0 0.552-0.448 1-1 1v0h-2c-0.552 0-1-0.448-1-1s0.448-1 1-1v0h2c0.552 0 1 0.448 1 1v0zM22.667 21.667c0-0.552-0.448-1-1-1v0h-2c-0.552 0-1 0.448-1 1s0.448 1 1 1v0h2c0.552 0 1-0.448 1-1v0z"></path>
</svg>
