<!-- Generated by IcoMoon.io -->
<svg version="1.1" xmlns="http://www.w3.org/2000/svg" width="32" height="32" viewBox="0 0 32 32">
<title>arrow-reset</title>
<path d="M9.040 3.626c0.391 0.391 0.391 1.024 0 1.414l-2.96 2.96h11.586c5.707 0 10.333 4.626 10.333 10.333s-4.626 10.333-10.333 10.333c-5.707 0-10.333-4.626-10.333-10.333 0-0.552 0.448-1 1-1s1 0.448 1 1c0 4.602 3.731 8.333 8.333 8.333s8.333-3.731 8.333-8.333c0-4.602-3.731-8.333-8.333-8.333h-11.586l2.96 2.96c0.391 0.391 0.391 1.024 0 1.414s-1.024 0.391-1.414 0l-4.667-4.667c-0.391-0.391-0.391-1.024 0-1.414l4.667-4.667c0.391-0.391 1.024-0.391 1.414 0z"></path>
</svg>
