<!-- Generated by IcoMoon.io -->
<svg version="1.1" xmlns="http://www.w3.org/2000/svg" width="32" height="32" viewBox="0 0 32 32">
<title>arrow-import</title>
<path d="M28.333 6c0.504 0 0.921 0.373 0.99 0.859l0.001 0.005 0.009 0.136v17.339c-0 0.552-0.448 1-1 1-0.504 0-0.921-0.373-0.99-0.858l-0.001-0.005-0.009-0.136v-17.339c0-0.552 0.448-1 1-1v0zM16.863 8.405l0.096-0.112c0.181-0.181 0.431-0.294 0.708-0.294 0.224 0 0.431 0.074 0.598 0.198l-0.003-0.002 0.112 0.097 6.663 6.663c0.181 0.181 0.293 0.431 0.293 0.707 0 0.224-0.073 0.43-0.198 0.597l0.002-0.003-0.097 0.113-6.663 6.671c-0.181 0.179-0.43 0.29-0.704 0.29-0.552 0-1-0.448-1-1 0-0.223 0.073-0.428 0.196-0.594l-0.002 0.003 0.096-0.112 4.948-4.956h-18.24c-0 0-0 0-0 0-0.504 0-0.921-0.373-0.99-0.857l-0.001-0.005-0.009-0.136c0-0.504 0.373-0.921 0.859-0.99l0.005-0.001 0.136-0.009 18.257-0.001-4.965-4.965c-0.181-0.181-0.292-0.431-0.292-0.706 0-0.224 0.074-0.431 0.198-0.598l-0.002 0.003z"></path>
</svg>
