<!-- Generated by IcoMoon.io -->
<svg version="1.1" xmlns="http://www.w3.org/2000/svg" width="32" height="32" viewBox="0 0 32 32">
<title>arrow-down-left</title>
<path d="M4.526 27.887c-0.277-0.149-0.474-0.42-0.519-0.74l-0.010-0.14v-10.005c0-0.552 0.448-1 1-1 0.506 0 0.925 0.376 0.991 0.864l0.009 0.136-0.001 7.592 20.296-20.3c0.355-0.355 0.911-0.387 1.302-0.097l0.112 0.097c0.355 0.355 0.387 0.911 0.097 1.302l-0.097 0.112-20.296 20.3 7.589 0c0.506 0 0.925 0.376 0.991 0.864l0.009 0.136c0 0.506-0.376 0.925-0.864 0.991l-0.136 0.009-10.080-0.004c-0.11-0.007-0.215-0.033-0.312-0.074l-0.082-0.041z"></path>
</svg>
