<!-- Generated by IcoMoon.io -->
<svg version="1.1" xmlns="http://www.w3.org/2000/svg" width="32" height="32" viewBox="0 0 32 32">
<title>arrow-between-down</title>
<path d="M8 2.333c0-0.552-0.448-1-1-1s-1 0.448-1 1v0 0.667c0 1.657 1.343 3 3 3v0h13.333c1.657 0 3-1.343 3-3v0-0.667c0-0.552-0.448-1-1-1s-1 0.448-1 1v0 0.667c0 0.552-0.448 1-1 1v0h-13.333c-0.552 0-1-0.448-1-1v0-0.667zM15.667 8c0.552 0 1 0.448 1 1v0 11.587l4.96-4.96c0.183-0.196 0.443-0.318 0.732-0.318 0.552 0 1 0.448 1 1 0 0.289-0.122 0.549-0.318 0.731l-0.001 0.001-6.667 6.667c-0.181 0.181-0.431 0.292-0.707 0.292s-0.526-0.112-0.707-0.292v0l-6.667-6.667c-0.196-0.183-0.318-0.443-0.318-0.732 0-0.552 0.448-1 1-1 0.289 0 0.549 0.122 0.731 0.318l0.001 0.001 4.96 4.96v-11.587c0-0.552 0.448-1 1-1v0zM6 29c0-1.657 1.343-3 3-3v0h13.333c1.657 0 3 1.343 3 3v0 0.667c0 0.552-0.448 1-1 1s-1-0.448-1-1v0-0.667c0-0.552-0.448-1-1-1v0h-13.333c-0.552 0-1 0.448-1 1v0 0.667c0 0.552-0.448 1-1 1s-1-0.448-1-1v0-0.667z"></path>
</svg>
