<!-- Generated by IcoMoon.io -->
<svg version="1.1" xmlns="http://www.w3.org/2000/svg" width="32" height="32" viewBox="0 0 32 32">
<title>arrow-circle-up-left-regular</title>
<path d="M14.013 12.667h6.32c0.552 0 1-0.448 1-1s-0.448-1-1-1v0h-8.667c-0.552 0-1 0.448-1 1v0 8.667c0 0.552 0.448 1 1 1s1-0.448 1-1v0-6.185l6.963 6.896c0.181 0.179 0.429 0.29 0.704 0.29 0.552 0 1-0.448 1-1 0-0.278-0.113-0.529-0.296-0.711l-7.025-6.956zM29.333 16c0 7.364-5.969 13.333-13.333 13.333s-13.333-5.969-13.333-13.333 5.969-13.333 13.333-13.333 13.333 5.969 13.333 13.333zM16 27.333c6.259 0 11.333-5.074 11.333-11.333s-5.074-11.333-11.333-11.333v0c-6.259 0-11.333 5.074-11.333 11.333s5.074 11.333 11.333 11.333v0z"></path>
</svg>
