<!-- Generated by IcoMoon.io -->
<svg version="1.1" xmlns="http://www.w3.org/2000/svg" width="32" height="32" viewBox="0 0 32 32">
<title>arrow-reply-regular</title>
<path d="M8.677 15l4.707 4.707c0.153 0.151 0.248 0.361 0.248 0.593 0 0.46-0.373 0.833-0.833 0.833-0.2 0-0.383-0.070-0.527-0.187l0.002 0.001-0.068-0.061-6.128-6.128c-0.151-0.151-0.244-0.359-0.244-0.589 0-0.198 0.069-0.38 0.185-0.523l-0.001 0.002 0.061-0.068 6.128-6.128c0.151-0.153 0.361-0.248 0.593-0.248 0.46 0 0.833 0.373 0.833 0.833 0 0.2-0.070 0.383-0.187 0.527l0.001-0.002-0.061 0.067-4.704 4.704h5.987c2.169 0 4.187 0.481 5.936 1.4l0.273 0.149c1.789 1.012 3.23 2.453 4.214 4.187l0.029 0.055c1.016 1.811 1.548 3.927 1.548 6.209 0 0.46-0.373 0.833-0.833 0.833s-0.833-0.373-0.833-0.833v0c0-2.003-0.461-3.837-1.335-5.395-0.859-1.52-2.083-2.744-3.557-3.58l-0.046-0.024c-1.471-0.825-3.189-1.283-5.063-1.331l-0.332-0.004h-5.99l4.707 4.707-4.707-4.707z"></path>
</svg>
