<!-- Generated by IcoMoon.io -->
<svg version="1.1" xmlns="http://www.w3.org/2000/svg" width="32" height="32" viewBox="0 0 32 32">
<title>arrow-turn-left-right-regular</title>
<path d="M26.316 6.271c0.306-0.128 0.518-0.425 0.518-0.771 0-0.46-0.373-0.834-0.834-0.834-0.114 0-0.223 0.023-0.322 0.064l0.006-0.002-20.873 8.55c-1.242 0.509-1.242 2.267 0 2.776l20.139 8.249-5.809 2.778c-0.283 0.137-0.474 0.422-0.474 0.752 0 0.46 0.373 0.833 0.833 0.833 0.131 0 0.254-0.030 0.364-0.084l-0.005 0.002 7.667-3.667c0.4-0.191 0.58-0.663 0.41-1.073l-3.333-8c-0.129-0.304-0.425-0.513-0.769-0.513-0.46 0-0.834 0.373-0.834 0.833 0 0.116 0.024 0.226 0.066 0.326l-0.002-0.005 2.635 6.322-19.881-8.143 20.498-8.395z"></path>
</svg>
