<!-- Generated by IcoMoon.io -->
<svg version="1.1" xmlns="http://www.w3.org/2000/svg" width="32" height="32" viewBox="0 0 32 32">
<title>arrow-trending-text</title>
<path d="M27 4c0.552 0 1 0.448 1 1v0 6.667c0 0.552-0.448 1-1 1s-1-0.448-1-1v0-4.253l-7.96 7.96c-0.181 0.181-0.431 0.292-0.707 0.292s-0.526-0.112-0.707-0.292v0l-2.96-2.96-7.96 7.96c-0.178 0.166-0.418 0.268-0.682 0.268-0.552 0-1-0.448-1-1 0-0.264 0.102-0.504 0.269-0.682l-0.001 0.001 8.667-8.667c0.181-0.181 0.431-0.292 0.707-0.292s0.526 0.112 0.707 0.292v0l2.96 2.96 7.253-7.253h-4.253c-0.552 0-1-0.448-1-1s0.448-1 1-1v0h6.667zM18.667 17.333c-1.473 0-2.667 1.194-2.667 2.667v0 8c0 1.473 1.194 2.667 2.667 2.667v0h9.333c1.473 0 2.667-1.194 2.667-2.667v0-8c0-1.473-1.194-2.667-2.667-2.667v0h-9.333zM18.667 22c0-0.368 0.298-0.667 0.667-0.667v0h8c0.368 0 0.667 0.298 0.667 0.667s-0.298 0.667-0.667 0.667v0h-8c-0.368 0-0.667-0.298-0.667-0.667v0zM18.667 26c0-0.368 0.298-0.667 0.667-0.667v0h8c0.368 0 0.667 0.298 0.667 0.667s-0.298 0.667-0.667 0.667v0h-8c-0.368 0-0.667-0.298-0.667-0.667v0z"></path>
</svg>
