<!-- Generated by IcoMoon.io -->
<svg version="1.1" xmlns="http://www.w3.org/2000/svg" width="32" height="32" viewBox="0 0 32 32">
<title>arrow-curve-down-left</title>
<path d="M21.868 4.504c-0.274-0.479-0.885-0.646-1.364-0.372-3.025 1.729-4.522 3.938-5.228 6.279-0.624 2.070-0.617 4.221-0.61 6.057 0.001 0.18 0.001 0.358 0.001 0.532v7.586l-4.96-4.96c-0.391-0.391-1.024-0.391-1.414 0s-0.391 1.024 0 1.414l6.667 6.667c0.391 0.391 1.024 0.391 1.414 0l6.667-6.667c0.391-0.391 0.391-1.024 0-1.414s-1.024-0.391-1.414 0l-4.96 4.96v-7.586c0-0.169-0-0.338-0.001-0.506-0.004-1.882-0.009-3.736 0.525-5.505 0.56-1.858 1.731-3.649 4.305-5.12 0.479-0.274 0.646-0.885 0.372-1.364z"></path>
</svg>
