<!-- Generated by IcoMoon.io -->
<svg version="1.1" xmlns="http://www.w3.org/2000/svg" width="32" height="32" viewBox="0 0 32 32">
<title>arrow-forward-down-lightning</title>
<path d="M17.333 22c0 4.050-3.283 7.333-7.333 7.333s-7.333-3.283-7.333-7.333v0c0-4.050 3.283-7.333 7.333-7.333s7.333 3.283 7.333 7.333v0zM11.371 17.333h-1.909c-0.284 0-0.527 0.178-0.622 0.429l-0.002 0.005-1.5 4c-0.027 0.069-0.042 0.15-0.042 0.233 0 0.368 0.298 0.666 0.666 0.667h1.039l-1.031 3.092c-0.023 0.065-0.036 0.141-0.036 0.219 0 0.381 0.309 0.691 0.691 0.691 0.242 0 0.455-0.124 0.578-0.313l0.002-0.003 3.5-5.385c0.063-0.096 0.101-0.214 0.101-0.341 0-0.346-0.28-0.627-0.626-0.627h-0.845l0.663-1.765c0.027-0.070 0.043-0.15 0.043-0.235 0-0.368-0.298-0.667-0.667-0.667-0 0-0.001 0-0.001 0h0zM22.165 8.717l3.951 3.949-7.893-0.007c-4.468-0.17-8.027-3.833-8.027-8.328 0-0 0-0 0-0v0c0-0.552-0.448-1-1-1s-1 0.448-1 1v0l0.005 0.328c0.182 5.565 4.736 10.007 10.328 10.007h7.587l-3.951 3.949-0.096 0.112c-0.123 0.164-0.197 0.372-0.197 0.597 0 0.552 0.448 1 1 1 0.277 0 0.527-0.112 0.708-0.294l5.656-5.657 0.097-0.112c0.122-0.164 0.196-0.37 0.196-0.594 0-0.276-0.112-0.526-0.293-0.707l-5.656-5.657-0.112-0.097c-0.165-0.126-0.375-0.202-0.602-0.202-0.552 0-1 0.448-1 1 0 0.279 0.115 0.532 0.299 0.713l0 0z"></path>
</svg>
