<!-- Generated by IcoMoon.io -->
<svg version="1.1" xmlns="http://www.w3.org/2000/svg" width="32" height="32" viewBox="0 0 32 32">
<title>arrow-circle-down-double-regular</title>
<path d="M15 18.333l-0.113-0.097c-0.164-0.122-0.37-0.196-0.594-0.196-0.276 0-0.526 0.112-0.707 0.293l-0.92 0.92v-8.92l-0.009-0.136c-0.069-0.49-0.486-0.863-0.989-0.864h-0l-0.136 0.008c-0.491 0.069-0.864 0.486-0.864 0.991 0 0 0 0.001 0 0.001v-0 8.921l-0.92-0.92-0.112-0.099c-0.163-0.121-0.369-0.194-0.591-0.194-0.552 0-1 0.448-1 1 0 0.275 0.111 0.524 0.29 0.704l-0-0 2.625 2.628 0.112 0.097c0.164 0.123 0.371 0.196 0.595 0.196 0.276 0 0.527-0.112 0.708-0.294v0l2.627-2.627 0.097-0.113c0.123-0.164 0.196-0.371 0.196-0.595 0-0.276-0.112-0.526-0.292-0.706v0zM2.665 16c0 7.364 5.969 13.333 13.333 13.333s13.333-5.969 13.333-13.333-5.969-13.333-13.333-13.333-13.333 5.969-13.333 13.333zM27.332 16c0 6.259-5.074 11.333-11.333 11.333s-11.333-5.074-11.333-11.333v0c0-6.259 5.074-11.333 11.333-11.333s11.333 5.074 11.333 11.333v0zM23.665 18.333l-0.112-0.097c-0.164-0.122-0.37-0.196-0.594-0.196-0.276 0-0.526 0.112-0.707 0.293l-0.92 0.92v-8.92l-0.009-0.136c-0.069-0.491-0.486-0.865-0.991-0.865v0l-0.136 0.009c-0.491 0.069-0.864 0.486-0.864 0.991v0 8.923l-0.92-0.92-0.111-0.099c-0.164-0.123-0.372-0.197-0.597-0.197-0.552 0-1 0.448-1 1 0 0.277 0.112 0.527 0.294 0.708l0 0 2.625 2.628 0.112 0.097c0.164 0.123 0.371 0.196 0.595 0.196 0.276 0 0.527-0.112 0.708-0.294v0l2.627-2.627 0.097-0.113c0.123-0.164 0.196-0.371 0.196-0.595 0-0.276-0.112-0.526-0.292-0.706v0z"></path>
</svg>
