<!-- Generated by IcoMoon.io -->
<svg version="1.1" xmlns="http://www.w3.org/2000/svg" width="32" height="32" viewBox="0 0 32 32">
<title>arrow-circle-left</title>
<path d="M16.089 21.756c0.151-0.151 0.244-0.359 0.244-0.589s-0.093-0.439-0.244-0.589l-3.744-3.744h9.488c0.46 0 0.833-0.373 0.833-0.833s-0.373-0.833-0.833-0.833v0h-9.488l3.744-3.744c0.151-0.151 0.244-0.359 0.244-0.589 0-0.46-0.373-0.833-0.833-0.833-0.23 0-0.438 0.093-0.589 0.244v0l-5.167 5.167c-0.151 0.151-0.244 0.359-0.244 0.589s0.093 0.439 0.244 0.589l5.167 5.167c0.151 0.151 0.359 0.244 0.589 0.244s0.439-0.093 0.589-0.244v0zM16 29.333c7.364 0 13.333-5.969 13.333-13.333s-5.969-13.333-13.333-13.333-13.333 5.969-13.333 13.333 5.969 13.333 13.333 13.333zM27.667 16c0 6.443-5.223 11.667-11.667 11.667s-11.667-5.223-11.667-11.667 5.223-11.667 11.667-11.667 11.667 5.223 11.667 11.667z"></path>
</svg>
