<!-- Generated by IcoMoon.io -->
<svg version="1.1" xmlns="http://www.w3.org/2000/svg" width="32" height="32" viewBox="0 0 32 32">
<title>arrow-repeat-all-off</title>
<path d="M4.262 2.863l0.112 0.097 24.667 24.667c0.391 0.391 0.391 1.024 0 1.414-0.355 0.355-0.911 0.387-1.302 0.097l-0.112-0.097-4.678-4.677c-0.581 0.158-1.187 0.257-1.811 0.291l-0.471 0.013h-9.248l2.533 2.532 0.089 0.102c0.298 0.392 0.269 0.954-0.089 1.312-0.355 0.355-0.911 0.387-1.302 0.097l-0.112-0.097-4.243-4.243-0.089-0.102c-0.269-0.353-0.271-0.843-0.008-1.199l0.098-0.113 4.243-4.243 0.102-0.089c0.353-0.268 0.843-0.271 1.199-0.008l0.113 0.097 0.089 0.102c0.269 0.353 0.271 0.843 0.008 1.199l-0.097 0.113-2.541 2.539h9.256c0.189 0 0.377-0.008 0.562-0.023l-12.695-12.696c-2.283 1.058-3.867 3.37-3.867 6.052 0 1.728 0.657 3.303 1.736 4.487 0.164 0.176 0.264 0.414 0.264 0.675 0 0.552-0.448 1-1 1-0.296 0-0.562-0.129-0.745-0.333-1.401-1.537-2.255-3.584-2.255-5.83 0-3.228 1.765-6.044 4.383-7.536l-4.090-4.090c-0.391-0.391-0.391-1.024 0-1.414 0.355-0.355 0.911-0.387 1.302-0.097zM26.333 9.838c0.292 0 0.555 0.125 0.738 0.325 1.405 1.538 2.262 3.588 2.262 5.837 0 2.742-1.273 5.187-3.261 6.775l-1.425-1.426c1.631-1.215 2.687-3.159 2.687-5.349 0-1.741-0.668-3.327-1.761-4.515-0.149-0.173-0.239-0.4-0.239-0.648 0-0.552 0.448-1 1-1zM19.378 3.203l0.102 0.090 4.243 4.243c0.358 0.358 0.388 0.92 0.089 1.312l-0.089 0.102-4.243 4.243c-0.391 0.391-1.024 0.391-1.414 0-0.358-0.358-0.388-0.92-0.089-1.312l0.089-0.102 2.442-2.445h-7.877l-1.972-1.974c0.121-0.009 0.242-0.016 0.364-0.020l0.311-0.005 9.361 0-2.629-2.626c-0.358-0.358-0.388-0.92-0.089-1.312l0.089-0.102c0.358-0.358 0.92-0.388 1.312-0.090z"></path>
</svg>
