<!-- Generated by IcoMoon.io -->
<svg version="1.1" xmlns="http://www.w3.org/2000/svg" width="32" height="32" viewBox="0 0 32 32">
<title>arrow-sort-up-regular</title>
<path d="M8.96 11.62l5.992-5.993c0.181-0.181 0.431-0.293 0.707-0.293 0.224 0 0.43 0.073 0.597 0.198l-0.003-0.002 0.113 0.096 6.005 5.993c0.18 0.181 0.291 0.43 0.291 0.706 0 0.552-0.448 1-1 1-0.223 0-0.428-0.073-0.594-0.196l0.003 0.002-0.112-0.096-4.297-4.289v16.928c-0 0.504-0.373 0.921-0.859 0.99l-0.005 0.001-0.135 0.009c-0.504-0-0.921-0.373-0.99-0.859l-0.001-0.005-0.009-0.136-0.001-16.931-4.289 4.291c-0.181 0.181-0.431 0.293-0.707 0.293-0.224 0-0.43-0.073-0.597-0.198l0.003 0.002-0.112-0.097c-0.181-0.181-0.293-0.431-0.293-0.707 0-0.224 0.073-0.43 0.198-0.597l-0.002 0.003 0.097-0.112z"></path>
</svg>
