<!-- Generated by IcoMoon.io -->
<svg version="1.1" xmlns="http://www.w3.org/2000/svg" width="32" height="32" viewBox="0 0 32 32">
<title>arrow-bounce-regular</title>
<path d="M14.669 9c0-0.552-0.448-1-1-1v0h-10c-0.552 0-1 0.448-1 1v0 10c0 0.552 0.448 1 1 1s1-0.448 1-1v0-7.587l11.624 11.627c0.181 0.181 0.431 0.292 0.707 0.292s0.526-0.112 0.707-0.292v0l11.333-11.333c0.196-0.183 0.318-0.443 0.318-0.732 0-0.552-0.448-1-1-1-0.289 0-0.549 0.122-0.731 0.318l-0.001 0.001-10.627 10.627-10.917-10.92h7.587c0.552 0 1-0.448 1-1v0z"></path>
</svg>
