<!-- Generated by IcoMoon.io -->
<svg version="1.1" xmlns="http://www.w3.org/2000/svg" width="32" height="32" viewBox="0 0 32 32">
<title>arrow-circle-up-left</title>
<path d="M14.013 12.667h6.321c0.552 0 1-0.448 1-1s-0.448-1-1-1h-8.667c-0.552 0-1 0.448-1 1v8.667c0 0.552 0.448 1 1 1s1-0.448 1-1v-6.185l6.963 6.895c0.392 0.389 1.026 0.385 1.414-0.007s0.386-1.026-0.007-1.414l-7.024-6.956z"></path>
<path d="M29.333 16c0 7.364-5.97 13.333-13.333 13.333s-13.333-5.97-13.333-13.333c0-7.364 5.97-13.333 13.333-13.333s13.333 5.97 13.333 13.333zM16 27.333c6.259 0 11.333-5.074 11.333-11.333s-5.074-11.333-11.333-11.333c-6.259 0-11.333 5.074-11.333 11.333s5.074 11.333 11.333 11.333z"></path>
</svg>
