<!-- Generated by IcoMoon.io -->
<svg version="1.1" xmlns="http://www.w3.org/2000/svg" width="32" height="32" viewBox="0 0 32 32">
<title>arrow-rotate-counterclockwise</title>
<path d="M16 4c-0.001 0-0.002 0-0.003 0-6.627 0-12 5.373-12 12 0 4.156 2.113 7.819 5.324 9.973l0.043 0.027h-2.364c-0.552 0-1 0.448-1 1 0 0.504 0.373 0.921 0.858 0.99l0.005 0.001 0.136 0.009h5.333c0.504-0 0.921-0.373 0.99-0.859l0.001-0.005 0.009-0.136v-5.333c-0-0.552-0.448-1-1-1-0.504 0-0.921 0.373-0.99 0.858l-0.001 0.005-0.009 0.136-0.001 3.18c-3.196-1.712-5.334-5.029-5.334-8.845 0-5.524 4.478-10.001 10.001-10.001 0 0 0 0 0 0v0c5.523 0 10 4.477 10 10v0c0 0.552 0.448 1 1 1s1-0.448 1-1v0c0-6.627-5.373-12-12-12v0zM16 12.333c-2.025 0-3.667 1.642-3.667 3.667s1.642 3.667 3.667 3.667v0c2.025 0 3.667-1.642 3.667-3.667s-1.642-3.667-3.667-3.667v0zM16 14.333c0.92 0 1.667 0.746 1.667 1.667s-0.746 1.667-1.667 1.667v0c-0.92 0-1.667-0.746-1.667-1.667s0.746-1.667 1.667-1.667v0z"></path>
</svg>
