<!-- Generated by IcoMoon.io -->
<svg version="1.1" xmlns="http://www.w3.org/2000/svg" width="32" height="32" viewBox="0 0 32 32">
<title>arrow-trending-down-regular</title>
<path d="M18.332 24.667h10.072l0.133-0.019 0.132-0.037 0.080-0.035c0.113-0.051 0.21-0.118 0.292-0.2v0l0.053-0.059 0.059-0.076 0.072-0.12 0.052-0.12 0.025-0.085 0.019-0.085 0.012-0.127v-10.043c-0-0.552-0.448-1-1-1-0.504 0-0.921 0.373-0.99 0.858l-0.001 0.005-0.009 0.136v7.593l-10.292-10.293c-0.181-0.181-0.431-0.293-0.707-0.293-0.224 0-0.43 0.073-0.597 0.198l0.003-0.002-0.113 0.097-3.96 3.96-7.293-7.293c-0.181-0.182-0.431-0.294-0.708-0.294-0.552 0-1 0.448-1 1 0 0.225 0.074 0.432 0.199 0.599l-0.002-0.003 0.097 0.112 8 8c0.181 0.181 0.431 0.293 0.707 0.293 0.224 0 0.43-0.073 0.597-0.198l-0.003 0.002 0.112-0.097 3.96-3.96 9.585 9.584h-7.587c-0.504 0.001-0.92 0.374-0.989 0.859l-0.001 0.005-0.009 0.136c0 0.507 0.376 0.925 0.864 0.991l0.136 0.009z"></path>
</svg>
