<!-- Generated by IcoMoon.io -->
<svg version="1.1" xmlns="http://www.w3.org/2000/svg" width="32" height="32" viewBox="0 0 32 32">
<title>arrow-eject</title>
<path d="M15.357 8.32c0.148-0.195 0.379-0.32 0.64-0.32s0.492 0.125 0.639 0.318l0.001 0.002 7.198 9.602c0.1 0.132 0.16 0.299 0.16 0.48 0 0.442-0.358 0.8-0.8 0.8h-14.39c-0.442 0-0.8-0.358-0.8-0.8 0-0.181 0.060-0.348 0.161-0.482l-0.001 0.002 7.192-9.6zM17.917 7.36c-0.96-1.28-2.88-1.28-3.84 0l-7.194 9.603c-1.184 1.582-0.056 3.84 1.92 3.84h14.392c1.978 0 3.106-2.259 1.92-3.84l-7.197-9.603zM6.4 24c-0.442 0-0.8 0.358-0.8 0.8s0.358 0.8 0.8 0.8v0h19.2c0.442 0 0.8-0.358 0.8-0.8s-0.358-0.8-0.8-0.8v0h-19.2z"></path>
</svg>
