<!-- Generated by IcoMoon.io -->
<svg version="1.1" xmlns="http://www.w3.org/2000/svg" width="32" height="32" viewBox="0 0 32 32">
<title>arrow-repeat-1-regular</title>
<path d="M19.48 3.293l-0.103-0.089c-0.166-0.127-0.376-0.204-0.604-0.204-0.276 0-0.526 0.112-0.706 0.293l-0 0-0.091 0.104c-0.127 0.166-0.203 0.377-0.203 0.606 0 0.277 0.112 0.528 0.293 0.71l-0-0 2.628 2.636-9.672 0.005c-4.643 0.164-8.356 3.992-8.356 8.693 0 2.253 0.853 4.307 2.256 5.853l0.096 0.092c0.174 0.149 0.402 0.24 0.651 0.24 0.553 0 1.001-0.448 1.001-1.001 0-0.233-0.080-0.448-0.214-0.619l0.002 0.002-0.267-0.308c-0.949-1.145-1.525-2.629-1.525-4.248 0-0.005 0-0.009 0-0.014v0.001c0-3.695 2.985-6.691 6.667-6.691h9.175l-2.443 2.453-0.089 0.104c-0.127 0.166-0.203 0.377-0.203 0.606 0 0.277 0.112 0.528 0.293 0.71l-0-0c0.181 0.181 0.431 0.294 0.707 0.294s0.526-0.112 0.707-0.294l0-0 4.243-4.257 0.089-0.104c0.127-0.167 0.203-0.378 0.203-0.607 0-0.277-0.112-0.528-0.293-0.71l0 0-4.243-4.259zM26.973 10.095c-0.172-0.143-0.395-0.229-0.638-0.229-0.553 0-1.001 0.448-1.001 1.001 0 0.248 0.090 0.476 0.24 0.651l-0.001-0.001c1.003 1.089 1.649 2.521 1.746 4.101l0.001 0.019c0.719 0.373 1.376 0.843 1.96 1.392 0.034-0.294 0.053-0.635 0.053-0.981v-0c0-0.004 0-0.009 0-0.014 0-2.255-0.86-4.309-2.269-5.853l0.006 0.007-0.097-0.092zM11.411 22.739h3.276c-0.013 0.179-0.020 0.387-0.020 0.597 0 0.498 0.041 0.986 0.121 1.461l-0.007-0.051h-3.36l2.533 2.541 0.088 0.103c0.127 0.167 0.203 0.378 0.203 0.607 0 0.277-0.112 0.528-0.293 0.71l0-0c-0.181 0.181-0.431 0.294-0.707 0.294-0.224 0-0.431-0.074-0.597-0.198l0.003 0.002-0.112-0.097-4.243-4.257-0.089-0.103c-0.127-0.167-0.203-0.378-0.203-0.607 0-0.224 0.073-0.431 0.197-0.599l-0.002 0.003 0.097-0.113 4.243-4.259 0.103-0.089c0.166-0.127 0.376-0.204 0.605-0.204 0.224 0 0.43 0.074 0.597 0.198l-0.003-0.002 0.112 0.097 0.091 0.103c0.127 0.166 0.203 0.377 0.203 0.606 0 0.225-0.074 0.432-0.198 0.6l0.002-0.003-0.097 0.113-2.54 2.549zM30.667 23.333c0 4.050-3.283 7.333-7.333 7.333s-7.333-3.283-7.333-7.333v0c0-4.050 3.283-7.333 7.333-7.333s7.333 3.283 7.333 7.333v0zM24.153 18.684c-0.046-0.011-0.099-0.018-0.153-0.018-0.259 0-0.484 0.148-0.595 0.365l-0.002 0.004c-0.246 0.417-0.517 0.779-0.821 1.108l0.004-0.004c-0.445 0.497-0.992 0.985-1.552 1.265-0.223 0.111-0.373 0.337-0.373 0.598 0 0.368 0.298 0.667 0.667 0.667 0.111 0 0.215-0.027 0.307-0.075l-0.004 0.002c0.652-0.325 1.235-0.821 1.701-1.303v6.040c0 0.368 0.298 0.667 0.667 0.667s0.667-0.298 0.667-0.667v0-8c0-0 0-0 0-0.001 0-0.314-0.217-0.577-0.509-0.648l-0.005-0.001z"></path>
</svg>
