<!-- Generated by IcoMoon.io -->
<svg version="1.1" xmlns="http://www.w3.org/2000/svg" width="32" height="32" viewBox="0 0 32 32">
<title>arrow-clockwise-regular</title>
<path d="M16 26.333c5.707 0 10.333-4.627 10.333-10.333 0-0.367-0.019-0.73-0.057-1.087-0.049-0.476 0.308-0.913 0.787-0.913 0.445 0 0.829 0.321 0.873 0.764 0.042 0.407 0.063 0.819 0.063 1.236 0 6.627-5.373 12-12 12s-12-5.373-12-12 5.373-12 12-12c0.005 0 0.011 0 0.016 0 3.234 0 6.168 1.283 8.32 3.368l-0.003-0.003v-1.865c0-0.46 0.373-0.833 0.833-0.833s0.833 0.373 0.833 0.833v0 4.333c0 0.46-0.373 0.833-0.833 0.833h-4.333c-0.46 0-0.833-0.373-0.833-0.833s0.373-0.833 0.833-0.833v0h2.768c-1.89-2.052-4.59-3.333-7.589-3.333-0.004 0-0.008 0-0.013 0h0.001c-5.707 0-10.333 4.627-10.333 10.333s4.627 10.333 10.333 10.333z"></path>
</svg>
