<!-- Generated by IcoMoon.io -->
<svg version="1.1" xmlns="http://www.w3.org/2000/svg" width="32" height="32" viewBox="0 0 32 32">
<title>arrow-step-out</title>
<path d="M17 18.333c0 0.552-0.448 1-1 1s-1-0.448-1-1v-12.342l-4.646 4.401c-0.401 0.38-1.034 0.363-1.414-0.038s-0.363-1.034 0.038-1.414l6.333-6c0.386-0.365 0.99-0.365 1.375 0l6.333 6c0.401 0.38 0.418 1.013 0.038 1.414s-1.013 0.418-1.414 0.038l-4.646-4.401v12.342zM20 25.333c0 2.209-1.791 4-4 4s-4-1.791-4-4c0-2.209 1.791-4 4-4s4 1.791 4 4zM14 25.333c0 1.105 0.895 2 2 2s2-0.895 2-2c0-1.105-0.895-2-2-2s-2 0.895-2 2z"></path>
</svg>
