<!-- Generated by IcoMoon.io -->
<svg version="1.1" xmlns="http://www.w3.org/2000/svg" width="32" height="32" viewBox="0 0 32 32">
<title>arrow-maximize</title>
<path d="M27.167 16c-0.46 0-0.833-0.373-0.833-0.833v-8.321l-19.488 19.488h8.321c0.46 0 0.833 0.373 0.833 0.833s-0.373 0.833-0.833 0.833v0h-10.333c-0.46 0-0.833-0.373-0.833-0.833v-10.333c0-0.46 0.373-0.833 0.833-0.833s0.833 0.373 0.833 0.833v0 8.321l19.488-19.488h-8.321c-0.46 0-0.833-0.373-0.833-0.833s0.373-0.833 0.833-0.833v0h10.333c0.46 0 0.833 0.373 0.833 0.833v10.333c0 0.46-0.373 0.833-0.833 0.833z"></path>
</svg>
