<!-- Generated by IcoMoon.io -->
<svg version="1.1" xmlns="http://www.w3.org/2000/svg" width="32" height="32" viewBox="0 0 32 32">
<title>arrow-routing-rectangle-multiple</title>
<path d="M25.040 2.96c-0.391-0.391-1.024-0.391-1.414 0s-0.391 1.024 0 1.414l2.293 2.293h-8.252c-2.025 0-3.667 1.642-3.667 3.667l-0 12.663c0 0.921-0.746 1.667-1.667 1.667h-1.722c-0.319-1.89-1.963-3.329-3.944-3.329-2.209 0-4 1.791-4 4s1.791 4 4 4c1.743 0 3.226-1.115 3.774-2.671h1.892c2.025 0 3.667-1.642 3.667-3.667l0-12.663c0-0.92 0.746-1.667 1.667-1.667h8.252l-2.293 2.293c-0.391 0.391-0.391 1.024 0 1.414s1.024 0.391 1.414 0l4-4c0.391-0.391 0.391-1.024 0-1.414l-4-4zM4.667 25.333c0-1.105 0.895-2 2-2s2 0.895 2 2c0 1.105-0.895 2-2 2s-2-0.895-2-2zM18.667 21.333c0-0.736 0.597-1.333 1.333-1.333h6.667c0.736 0 1.333 0.597 1.333 1.333v5.333c0 0.736-0.597 1.333-1.333 1.333h-6.667c-0.736 0-1.333-0.597-1.333-1.333v-5.333zM30.667 23.333c0-0.368-0.299-0.667-0.667-0.667s-0.667 0.299-0.667 0.667v4c0 1.105-0.895 2-2 2h-5.333c-0.368 0-0.667 0.299-0.667 0.667s0.299 0.667 0.667 0.667h5.333c1.841 0 3.333-1.492 3.333-3.333v-4z"></path>
</svg>
