<!-- Generated by IcoMoon.io -->
<svg version="1.1" xmlns="http://www.w3.org/2000/svg" width="32" height="32" viewBox="0 0 32 32">
<title>arrow-circle-down-right</title>
<path d="M17.987 19.333h-6.321c-0.552 0-1 0.448-1 1s0.448 1 1 1h8.667c0.552 0 1-0.448 1-1v-8.667c0-0.552-0.448-1-1-1s-1 0.448-1 1v6.185l-6.963-6.895c-0.392-0.389-1.026-0.386-1.414 0.007s-0.386 1.026 0.007 1.414l7.024 6.956z"></path>
<path d="M2.667 16c0-7.364 5.97-13.333 13.333-13.333s13.333 5.97 13.333 13.333c0 7.364-5.97 13.333-13.333 13.333s-13.333-5.97-13.333-13.333zM16 4.667c-6.259 0-11.333 5.074-11.333 11.333s5.074 11.333 11.333 11.333c6.259 0 11.333-5.074 11.333-11.333s-5.074-11.333-11.333-11.333z"></path>
</svg>
