<!-- Generated by IcoMoon.io -->
<svg version="1.1" xmlns="http://www.w3.org/2000/svg" width="32" height="32" viewBox="0 0 32 32">
<title>arrow-forward-down-lightning</title>
<path d="M17.333 22c0 4.050-3.283 7.333-7.333 7.333s-7.333-3.283-7.333-7.333c0-4.050 3.283-7.333 7.333-7.333s7.333 3.283 7.333 7.333zM11.371 17.334h-1.909c-0.278 0-0.527 0.172-0.624 0.433l-1.5 4c-0.163 0.436 0.159 0.901 0.624 0.901h1.038l-1.030 3.091c-0.149 0.447 0.184 0.909 0.655 0.909 0.234 0 0.452-0.118 0.579-0.314l3.5-5.385c0.271-0.417-0.028-0.968-0.525-0.968h-0.846l0.662-1.766c0.163-0.436-0.159-0.901-0.624-0.901zM22.303 8.717l3.951 3.951-7.892-0.006c-4.461-0.161-8.028-3.828-8.028-8.328 0-0.552-0.448-1-1-1s-1 0.448-1 1l0.005 0.328c0.173 5.555 4.731 10.005 10.328 10.005l7.587 0.001-3.951 3.949-0.097 0.112c-0.29 0.391-0.258 0.947 0.097 1.302 0.391 0.391 1.024 0.391 1.414 0l5.657-5.657 0.097-0.112c0.29-0.391 0.258-0.947-0.097-1.302l-5.657-5.657-0.112-0.097c-0.391-0.29-0.947-0.258-1.302 0.097-0.391 0.391-0.391 1.024 0 1.414z"></path>
</svg>
