<!-- Generated by IcoMoon.io -->
<svg version="1.1" xmlns="http://www.w3.org/2000/svg" width="32" height="32" viewBox="0 0 32 32">
<title>arrow-split</title>
<path d="M16 4c0.552 0 1 0.448 1 1v0 7.667h3.327c2.025 0 3.667 1.642 3.667 3.667v0 8.256l2.3-2.297c0.181-0.181 0.431-0.292 0.707-0.292 0.552 0 1 0.448 1 1 0 0.277-0.112 0.527-0.294 0.708l-4.007 4c-0.181 0.181-0.431 0.292-0.707 0.292s-0.526-0.112-0.707-0.292v0l-4-4c-0.189-0.182-0.306-0.437-0.306-0.72 0-0.552 0.448-1 1-1 0.282 0 0.537 0.117 0.719 0.305l0 0 2.293 2.293v-8.253c0-0.92-0.747-1.667-1.667-1.667h-8.66c-0.92 0-1.667 0.747-1.667 1.667v8.253l2.293-2.293c0.183-0.196 0.443-0.318 0.732-0.318 0.552 0 1 0.448 1 1 0 0.289-0.122 0.549-0.318 0.731l-0.001 0.001-4 4c-0.181 0.181-0.431 0.292-0.707 0.292s-0.526-0.112-0.707-0.292v0l-4.001-4c-0.196-0.183-0.318-0.443-0.318-0.732 0-0.552 0.448-1 1-1 0.289 0 0.549 0.122 0.731 0.318l0.001 0.001 2.295 2.293v-8.253c0-2.025 1.642-3.667 3.667-3.667v0h3.333v-7.667c0-0.552 0.448-1 1-1v0z"></path>
</svg>
