<!-- Generated by IcoMoon.io -->
<svg version="1.1" xmlns="http://www.w3.org/2000/svg" width="32" height="32" viewBox="0 0 32 32">
<title>arrow-circle-right</title>
<path d="M16.001 2.668c7.364 0 13.333 5.97 13.333 13.333s-5.969 13.333-13.333 13.333c-7.364 0-13.333-5.97-13.333-13.333s5.97-13.333 13.333-13.333zM16.001 4.668c-6.259 0-11.333 5.074-11.333 11.333s5.074 11.333 11.333 11.333c6.259 0 11.333-5.074 11.333-11.333s-5.074-11.333-11.333-11.333zM15.53 10.072l0.097-0.112c0.355-0.355 0.911-0.387 1.302-0.097l0.112 0.097 5.334 5.334c0.355 0.355 0.387 0.911 0.097 1.302l-0.097 0.112-5.335 5.333c-0.391 0.391-1.024 0.39-1.414-0-0.355-0.355-0.387-0.911-0.097-1.302l0.097-0.112 3.629-3.628-8.922 0c-0.506 0-0.925-0.376-0.991-0.864l-0.009-0.136c0-0.506 0.376-0.925 0.864-0.991l0.136-0.009 8.92-0-3.626-3.626c-0.355-0.355-0.387-0.911-0.097-1.302v0z"></path>
</svg>
