<!-- Generated by IcoMoon.io -->
<svg version="1.1" xmlns="http://www.w3.org/2000/svg" width="32" height="32" viewBox="0 0 32 32">
<title>arrow-routing-rectangle-multiple-regular</title>
<path d="M25.040 2.96c-0.183-0.196-0.443-0.318-0.732-0.318-0.552 0-1 0.448-1 1 0 0.289 0.122 0.549 0.318 0.731l0.001 0.001 2.293 2.293h-8.253c-2.025 0-3.667 1.642-3.667 3.667v0 12.663c0 0.92-0.747 1.667-1.667 1.667h-1.723c-0.332-1.902-1.971-3.329-3.943-3.329-2.209 0-4 1.791-4 4s1.791 4 4 4c1.733 0 3.208-1.102 3.764-2.643l0.009-0.028h1.893c2.025 0 3.667-1.642 3.667-3.667v0-12.663c0-0.92 0.747-1.667 1.667-1.667h8.253l-2.293 2.293c-0.166 0.178-0.268 0.418-0.268 0.682 0 0.552 0.448 1 1 1 0.264 0 0.504-0.102 0.682-0.269l-0.001 0.001 4-4c0.181-0.181 0.292-0.431 0.292-0.707s-0.112-0.526-0.292-0.707v0l-4-4zM4.667 25.333c0-1.105 0.895-2 2-2s2 0.895 2 2v0c0 1.105-0.895 2-2 2s-2-0.895-2-2v0zM18.667 21.333c0-0.736 0.597-1.333 1.333-1.333v0h6.667c0.736 0 1.333 0.597 1.333 1.333v0 5.333c0 0.736-0.597 1.333-1.333 1.333v0h-6.667c-0.736 0-1.333-0.597-1.333-1.333v0-5.333zM30.667 23.333c0-0.368-0.298-0.667-0.667-0.667s-0.667 0.298-0.667 0.667v0 4c0 1.105-0.895 2-2 2v0h-5.333c-0.368 0-0.667 0.298-0.667 0.667s0.298 0.667 0.667 0.667v0h5.333c1.841 0 3.333-1.492 3.333-3.333v0-4z"></path>
</svg>
