<!-- Generated by IcoMoon.io -->
<svg version="1.1" xmlns="http://www.w3.org/2000/svg" width="32" height="32" viewBox="0 0 32 32">
<title>arrows-bidirectional</title>
<path d="M20.002 11.998h-7.996l0.001-2.999c0-0.88-1.054-1.331-1.69-0.724l-7.338 7c-0.413 0.394-0.413 1.053 0 1.447l7.338 7 0.11 0.091c0.641 0.464 1.581 0.016 1.581-0.815l-0.001-3h7.996l0.001 3c0 0.88 1.054 1.331 1.691 0.723l7.329-7c0.413-0.394 0.413-1.053 0-1.446l-7.33-7c-0.636-0.608-1.691-0.157-1.691 0.723l-0.001 2.999zM5.116 16l4.889-4.665 0.001 1.665c0 0.552 0.448 1 1 1l10.131-0.009c0.488-0.066 0.864-0.485 0.864-0.991l-0.001-1.662 4.881 4.663-4.881 4.661 0.001-1.66c0-0.552-0.448-1-1-1l-10.131 0.009c-0.488 0.066-0.864 0.485-0.864 0.991l-0.001 1.663-4.889-4.664z"></path>
</svg>
