<!-- Generated by IcoMoon.io -->
<svg version="1.1" xmlns="http://www.w3.org/2000/svg" width="32" height="32" viewBox="0 0 32 32">
<title>arrow-sync-off</title>
<path d="M18.262 5.816c0.145-0.145 0.234-0.345 0.234-0.566s-0.090-0.421-0.234-0.566l-3.394-3.394c-0.144-0.139-0.34-0.225-0.556-0.225-0.442 0-0.8 0.358-0.8 0.8 0 0.216 0.086 0.412 0.225 0.556l1.595 1.595c-2.231 0.125-4.271 0.842-5.995 1.995l0.043-0.027 1.158 1.158c1.55-0.971 3.434-1.546 5.452-1.546 0.041 0 0.082 0 0.122 0.001l-0.006-0c0.038 0 0.080-0.002 0.117-0.006l-2.486 2.486c-0.139 0.144-0.225 0.34-0.225 0.556 0 0.442 0.358 0.8 0.8 0.8 0.216 0 0.412-0.086 0.556-0.225l3.393-3.393zM6.966 8.098c-1.843 2.099-2.968 4.869-2.968 7.901 0 3.919 1.878 7.399 4.784 9.589l0.031 0.022c0.132 0.1 0.299 0.16 0.48 0.16 0.442 0 0.8-0.358 0.8-0.8 0-0.261-0.125-0.492-0.318-0.639l-0.002-0.001c-2.546-1.917-4.174-4.934-4.174-8.331 0-2.59 0.947-4.96 2.514-6.78l-0.011 0.014 14.664 14.664c-1.803 1.557-4.169 2.505-6.757 2.505-0.040 0-0.080-0-0.12-0.001l0.006 0c-0.005-0-0.010-0-0.016-0-0.036 0-0.072 0.002-0.107 0.007l0.004-0 2.486-2.486c0.151-0.146 0.244-0.35 0.244-0.575 0-0.442-0.358-0.8-0.8-0.8-0.226 0-0.43 0.094-0.575 0.244l-3.394 3.394c-0.145 0.145-0.234 0.345-0.234 0.566s0.089 0.421 0.234 0.566l3.394 3.394c0.144 0.139 0.34 0.225 0.556 0.225 0.442 0 0.8-0.358 0.8-0.8 0-0.216-0.086-0.412-0.225-0.556l-1.595-1.595c2.79-0.156 5.3-1.246 7.247-2.96l-0.013 0.011 3.533 3.534c0.145 0.145 0.345 0.235 0.566 0.235 0.442 0 0.801-0.359 0.801-0.801 0-0.221-0.090-0.421-0.235-0.566l-24-24c-0.145-0.145-0.345-0.235-0.566-0.235-0.442 0-0.801 0.359-0.801 0.801 0 0.221 0.090 0.421 0.235 0.566v0l3.534 3.53zM24.486 7.514c2.172 2.172 3.515 5.173 3.515 8.487 0 2.464-0.742 4.755-2.016 6.661l0.027-0.044-1.158-1.158c0.971-1.553 1.548-3.439 1.548-5.46 0-3.397-1.628-6.414-4.147-8.313l-0.026-0.019c-0.195-0.147-0.32-0.379-0.32-0.64 0-0.442 0.358-0.8 0.8-0.8 0.181 0 0.348 0.060 0.482 0.161l-0.002-0.001c0.451 0.339 0.885 0.715 1.296 1.126z"></path>
</svg>
