<!-- Generated by IcoMoon.io -->
<svg version="1.1" xmlns="http://www.w3.org/2000/svg" width="32" height="32" viewBox="0 0 32 32">
<title>arrow-sync-dismiss-regular</title>
<path d="M21.699 8.159c-0.146-0.173-0.236-0.398-0.236-0.645 0-0.552 0.448-1 1-1 0.229 0 0.44 0.077 0.609 0.206l-0.002-0.002c2.806 2.153 4.597 5.508 4.597 9.281 0 6.105-4.69 11.115-10.664 11.624l-0.043 0.003 1 0.999 0.096 0.112c0.121 0.163 0.194 0.369 0.194 0.591 0 0.552-0.448 1-1 1-0.275 0-0.524-0.111-0.704-0.29l-2.667-2.667-0.097-0.112c-0.122-0.164-0.196-0.37-0.196-0.594 0-0.276 0.112-0.526 0.293-0.707l0.417-0.417c0.512 0.096 1.102 0.151 1.705 0.151 5.353 0 9.693-4.34 9.693-9.693 0-3.212-1.562-6.059-3.968-7.823l-0.027-0.019zM17.705 6.457c-0.512-0.096-1.102-0.151-1.704-0.151-5.353 0-9.693 4.34-9.693 9.693 0 3.077 1.434 5.82 3.67 7.596l0.020 0.015c0.133 0.168 0.213 0.383 0.213 0.617 0 0.552-0.448 1-1 1-0.243 0-0.466-0.087-0.639-0.231l0.002 0.001c-2.598-2.155-4.241-5.385-4.241-8.998 0-6.105 4.69-11.115 10.663-11.624l0.043-0.003-1-0.999c-0.188-0.182-0.305-0.437-0.305-0.719 0-0.552 0.448-1 1-1 0.282 0 0.537 0.117 0.719 0.305l2.667 2.667c0.181 0.181 0.292 0.431 0.292 0.707s-0.112 0.526-0.292 0.707v0l-0.416 0.417zM12.625 12.627c0.181-0.181 0.431-0.293 0.707-0.293s0.526 0.112 0.707 0.293l1.96 1.96 1.96-1.96c0.183-0.196 0.443-0.318 0.732-0.318 0.552 0 1 0.448 1 1 0 0.289-0.122 0.549-0.318 0.731l-0.001 0.001-1.96 1.96 1.96 1.96c0.196 0.183 0.318 0.443 0.318 0.732 0 0.552-0.448 1-1 1-0.289 0-0.549-0.122-0.731-0.318l-0.001-0.001-1.96-1.96-1.96 1.96c-0.183 0.196-0.443 0.318-0.732 0.318-0.552 0-1-0.448-1-1 0-0.289 0.122-0.549 0.318-0.731l0.001-0.001 1.96-1.96-1.96-1.96c-0.181-0.181-0.292-0.431-0.292-0.707s0.112-0.526 0.292-0.707v0zM16 24c4.418 0 8-3.582 8-8s-3.582-8-8-8v0c-4.418 0-8 3.582-8 8s3.582 8 8 8v0zM16 22c-3.314 0-6-2.686-6-6s2.686-6 6-6v0c3.314 0 6 2.686 6 6s-2.686 6-6 6v0z"></path>
</svg>
