<!-- Generated by IcoMoon.io -->
<svg version="1.1" xmlns="http://www.w3.org/2000/svg" width="32" height="32" viewBox="0 0 32 32">
<title>arrow-rotate-clockwise</title>
<path d="M16 4c6.627 0 12 5.373 12 12 0 4.104-2.079 7.82-5.364 10.001l2.364-0.001c0.552 0 1 0.448 1 1 0 0.506-0.376 0.925-0.864 0.991l-0.136 0.009h-5.333c-0.506 0-0.925-0.376-0.991-0.864l-0.009-0.136v-5.333c0-0.552 0.448-1 1-1 0.506 0 0.925 0.376 0.991 0.864l0.009 0.136 0.001 3.18c3.231-1.706 5.332-5.080 5.332-8.847 0-5.523-4.477-10-10-10s-10 4.477-10 10c0 0.552-0.448 1-1 1s-1-0.448-1-1c0-6.627 5.373-12 12-12zM16 12.333c2.025 0 3.667 1.642 3.667 3.667s-1.642 3.667-3.667 3.667c-2.025 0-3.667-1.642-3.667-3.667s1.642-3.667 3.667-3.667zM16 14.333c-0.921 0-1.667 0.746-1.667 1.667s0.746 1.667 1.667 1.667c0.921 0 1.667-0.746 1.667-1.667s-0.746-1.667-1.667-1.667z"></path>
</svg>
