<!-- Generated by IcoMoon.io -->
<svg version="1.1" xmlns="http://www.w3.org/2000/svg" width="32" height="32" viewBox="0 0 32 32">
<title>arrow-autofit-width</title>
<path d="M26.667 8.323c0-1.657-1.343-3-3-3v0h-15.333c-1.657 0-3 1.343-3 3v0 5.333c0 0.552 0.448 1 1 1s1-0.448 1-1v0-5.333c0-0.552 0.448-1 1-1v0h15.333c0.552 0 1 0.448 1 1v0 5.333c0 0.552 0.448 1 1 1s1-0.448 1-1v0-5.333zM22.959 17.627c0.181-0.181 0.431-0.293 0.707-0.293 0.224 0 0.43 0.073 0.597 0.198l-0.003-0.002 0.112 0.097 3.16 3.156c0.284 0.186 0.468 0.502 0.468 0.862 0 0.008-0 0.017-0 0.025l0-0.001c0 0.005 0 0.011 0 0.017 0 0.319-0.142 0.604-0.367 0.796l-0.001 0.001-0.1 0.071-3.16 3.156-0.112 0.097c-0.164 0.122-0.371 0.196-0.594 0.196-0.218 0-0.42-0.070-0.585-0.189l0.003 0.002-0.125-0.107-0.097-0.112c-0.123-0.164-0.196-0.371-0.196-0.595 0-0.219 0.070-0.421 0.189-0.585l-0.002 0.003 0.107-0.125 1.628-1.628h-5.045l-0.119-0.009c-0.427-0.067-0.756-0.484-0.756-0.991s0.329-0.925 0.756-0.991l0.12-0.009h5.044l-1.628-1.627-0.097-0.112c-0.122-0.164-0.196-0.37-0.196-0.594 0-0.276 0.112-0.526 0.293-0.707v0zM9.041 17.631c0.181 0.181 0.293 0.431 0.293 0.707 0 0.224-0.073 0.43-0.198 0.597l0.002-0.003-0.097 0.112-1.628 1.627h5.045c0.483 0 0.875 0.448 0.875 1 0 0.507-0.329 0.924-0.756 0.991l-0.12 0.009h-5.044l1.628 1.628c0.181 0.181 0.294 0.431 0.294 0.708 0 0.224-0.074 0.431-0.198 0.598l0.002-0.003-0.097 0.112c-0.181 0.181-0.431 0.293-0.707 0.293-0.224 0-0.43-0.073-0.597-0.198l0.003 0.002-0.113-0.097-3.16-3.156c-0.283-0.186-0.467-0.502-0.467-0.861 0-0.009 0-0.017 0-0.026l-0 0.001c-0-0.007-0-0.016-0-0.025 0-0.359 0.184-0.675 0.463-0.858l0.004-0.002 3.16-3.156c0.181-0.181 0.431-0.293 0.707-0.293s0.526 0.112 0.707 0.293v0z"></path>
</svg>
