<!-- Generated by IcoMoon.io -->
<svg version="1.1" xmlns="http://www.w3.org/2000/svg" width="32" height="32" viewBox="0 0 32 32">
<title>arrow-outline-up-right-regular</title>
<path d="M25.431 2.695c2.239-0.26 4.137 1.633 3.882 3.873l-1.777 15.591c-0.267 2.344-3.115 3.353-4.799 1.702l-1.895-1.858-6.31 6.307c-0.633 0.633-1.508 1.025-2.474 1.025-0.968 0-1.843-0.393-2.477-1.027l-5.889-5.899c-0.632-0.633-1.022-1.507-1.022-2.472 0-0.966 0.392-1.841 1.025-2.475l6.301-6.302-1.832-1.834c-1.674-1.676-0.675-4.543 1.677-4.817l15.591-1.813zM27.657 6.379c0.008-0.062 0.012-0.134 0.012-0.208 0-1.013-0.821-1.833-1.833-1.833-0.075 0-0.148 0.004-0.221 0.013l0.009-0.001-15.591 1.813c-0.969 0.113-1.38 1.293-0.691 1.984l2.421 2.423c0.151 0.151 0.244 0.359 0.244 0.589s-0.093 0.439-0.244 0.589l-6.891 6.89c-0.332 0.332-0.537 0.79-0.537 1.296s0.205 0.964 0.536 1.295l5.889 5.899c0.332 0.332 0.791 0.538 1.297 0.538s0.964-0.205 1.296-0.537l6.893-6.89c0.151-0.151 0.359-0.244 0.589-0.244 0.227 0 0.433 0.091 0.583 0.238l-0-0 2.484 2.436c0.693 0.68 1.866 0.264 1.976-0.701l1.777-15.592z"></path>
</svg>
