<!-- Generated by IcoMoon.io -->
<svg version="1.1" xmlns="http://www.w3.org/2000/svg" width="32" height="32" viewBox="0 0 32 32">
<title>arrow-curve-down-left-regular</title>
<path d="M22.173 3.861c-0.15-0.26-0.427-0.433-0.745-0.433-0.156 0-0.303 0.042-0.429 0.115l0.004-0.002c-6.064 3.467-6.146 9.338-6.146 13.317v8.789l-5.394-5.394c-0.157-0.168-0.38-0.273-0.627-0.273-0.473 0-0.857 0.384-0.857 0.857 0 0.247 0.105 0.47 0.272 0.627l0.001 0 6.857 6.857c0.155 0.155 0.369 0.251 0.606 0.251s0.451-0.096 0.606-0.251v0l6.857-6.857c0.143-0.153 0.23-0.358 0.23-0.584 0-0.473-0.384-0.857-0.857-0.857-0.226 0-0.432 0.087-0.585 0.23l0-0-5.394 5.394v-8.789c0-4.021 0.146-8.891 5.282-11.827 0.26-0.15 0.433-0.427 0.433-0.745 0-0.156-0.042-0.303-0.115-0.429l0.002 0.004z"></path>
</svg>
