<!-- Generated by IcoMoon.io -->
<svg version="1.1" xmlns="http://www.w3.org/2000/svg" width="32" height="32" viewBox="0 0 32 32">
<title>arrow-forward</title>
<path d="M19.63 21.628c-0.39 0.391-0.39 1.024 0.001 1.414s1.024 0.39 1.414-0.001l6.662-6.671c0.39-0.391 0.39-1.023-0-1.414l-6.662-6.664c-0.391-0.391-1.024-0.391-1.414-0s-0.391 1.024-0 1.414l4.96 4.96h-10.456c-2.126 0-3.748 0.323-5.185 1.019l-0.329 0.167c-1.478 0.791-2.644 1.956-3.434 3.434-0.813 1.519-1.187 3.224-1.187 5.514 0 0.552 0.448 1 1 1s1-0.448 1-1c0-1.978 0.304-3.361 0.95-4.571 0.604-1.129 1.484-2.010 2.614-2.614 1.116-0.597 2.381-0.902 4.125-0.945l0.446-0.005h10.449l-4.954 4.961z"></path>
</svg>
