<!-- Generated by IcoMoon.io -->
<svg version="1.1" xmlns="http://www.w3.org/2000/svg" width="32" height="32" viewBox="0 0 32 32">
<title>arrow-enter-left</title>
<path d="M28.333 5.333c0.552 0 1 0.448 1 1v8.667c0 2.761-2.239 5-5 5h-18.219l4.959 4.96c0.355 0.355 0.387 0.911 0.097 1.302l-0.097 0.112c-0.355 0.355-0.911 0.387-1.302 0.097l-0.112-0.097-6.667-6.667c-0.355-0.355-0.387-0.911-0.097-1.302l0.097-0.112 6.667-6.667c0.391-0.391 1.024-0.391 1.414 0 0.355 0.355 0.387 0.911 0.097 1.302l-0.097 0.112-4.959 4.96h18.219c1.588 0 2.887-1.234 2.993-2.795l0.007-0.205v-8.667c0-0.552 0.448-1 1-1z"></path>
</svg>
