<!-- Generated by IcoMoon.io -->
<svg version="1.1" xmlns="http://www.w3.org/2000/svg" width="32" height="32" viewBox="0 0 32 32">
<title>arrow-minimize</title>
<path d="M29.037 2.963c0.355 0.355 0.387 0.911 0.097 1.302l-0.097 0.112-8.297 8.298 7.59 0.001c0.506 0 0.925 0.376 0.991 0.864l0.009 0.136c0 0.506-0.376 0.925-0.864 0.991l-0.136 0.009-10.087-0.005c-0.091-0.007-0.178-0.026-0.261-0.057l-0.13-0.061c-0.273-0.147-0.47-0.418-0.514-0.738l-0.010-0.14v-10.005c0-0.552 0.448-1 1-1 0.506 0 0.925 0.376 0.991 0.864l0.009 0.136-0 7.588 8.296-8.296c0.39-0.391 1.023-0.391 1.413-0zM14.67 18.34v10.005c0 0.552-0.448 1-1 1-0.506 0-0.925-0.376-0.991-0.864l-0.009-0.136-0.001-7.594-8.295 8.288c-0.39 0.391-1.024 0.391-1.414 0-0.355-0.355-0.387-0.911-0.097-1.302l0.097-0.112 8.294-8.286-7.585 0c-0.506 0-0.925-0.376-0.991-0.864l-0.009-0.136c0-0.552 0.448-1 1-1l10.072 0.003 0.098 0.012 0.13 0.031 0.070 0.025 0.115 0.054 0.118 0.077c0.075 0.056 0.141 0.123 0.197 0.197l0.089 0.141 0.054 0.125 0.029 0.095 0.015 0.073 0.008 0.077 0.001-0.011 0.005 0.102z"></path>
</svg>
