<!-- Generated by IcoMoon.io -->
<svg version="1.1" xmlns="http://www.w3.org/2000/svg" width="32" height="32" viewBox="0 0 32 32">
<title>arrow-collapse-all</title>
<path d="M2.667 6.333c0-0.552 0.448-1 1-1v0h24.667c0.552 0 1 0.448 1 1s-0.448 1-1 1v0h-24.667c-0.552 0-1-0.448-1-1v0zM8.293 10.96c0.181-0.181 0.431-0.292 0.707-0.292s0.526 0.112 0.707 0.292v0l4 4c0.196 0.183 0.318 0.443 0.318 0.732 0 0.552-0.448 1-1 1-0.289 0-0.549-0.122-0.731-0.318l-0.001-0.001-2.293-2.293v10.92c0 0.552-0.448 1-1 1s-1-0.448-1-1v0-10.92l-2.293 2.293c-0.178 0.166-0.418 0.268-0.682 0.268-0.552 0-1-0.448-1-1 0-0.264 0.102-0.504 0.269-0.682l-0.001 0.001 4-4zM15.333 11.667c0-0.552 0.448-1 1-1v0h12c0.552 0 1 0.448 1 1s-0.448 1-1 1v0h-12c-0.552 0-1-0.448-1-1v0z"></path>
</svg>
