<!-- Generated by IcoMoon.io -->
<svg version="1.1" xmlns="http://www.w3.org/2000/svg" width="32" height="32" viewBox="0 0 32 32">
<title>arrow-right</title>
<path d="M17.69 5.612c-0.4-0.381-1.033-0.366-1.414 0.034s-0.365 1.033 0.034 1.414l8.335 7.939h-19.645c-0.552 0-1 0.448-1 1s0.448 1 1 1h19.646l-8.335 7.94c-0.4 0.381-0.415 1.014-0.034 1.414s1.014 0.415 1.414 0.034l9.892-9.422c0.225-0.215 0.359-0.488 0.4-0.773 0.012-0.062 0.019-0.127 0.019-0.193s-0.006-0.131-0.019-0.193c-0.041-0.284-0.175-0.558-0.4-0.772l-9.892-9.422z"></path>
</svg>
