<!-- Generated by IcoMoon.io -->
<svg version="1.1" xmlns="http://www.w3.org/2000/svg" width="32" height="32" viewBox="0 0 32 32">
<title>arrow-sort-down</title>
<path d="M15.532 5.342l0.136-0.009c0.506 0 0.925 0.376 0.991 0.864l0.009 0.136-0.001 16.928 4.293-4.295c0.355-0.355 0.911-0.388 1.302-0.097l0.112 0.097c0.355 0.355 0.388 0.91 0.097 1.302l-0.097 0.112-5.995 6c-0.355 0.355-0.91 0.388-1.302 0.097l-0.112-0.097-6.005-6c-0.391-0.39-0.391-1.023-0.001-1.414 0.355-0.355 0.91-0.388 1.302-0.097l0.112 0.097 4.293 4.29 0.001-16.923c0-0.506 0.376-0.925 0.864-0.991v0z"></path>
</svg>
