<!-- Generated by IcoMoon.io -->
<svg version="1.1" xmlns="http://www.w3.org/2000/svg" width="32" height="32" viewBox="0 0 32 32">
<title>arrow-enter-up</title>
<path d="M26.667 28.333c0 0.552-0.448 1-1 1h-8.667c-2.761 0-5-2.239-5-5v-18.219l-4.96 4.959c-0.355 0.355-0.911 0.387-1.302 0.097l-0.112-0.097c-0.355-0.355-0.387-0.911-0.097-1.302l0.097-0.112 6.667-6.667c0.355-0.355 0.911-0.387 1.302-0.097l0.112 0.097 6.667 6.667c0.391 0.391 0.391 1.024 0 1.414-0.355 0.355-0.911 0.387-1.302 0.097l-0.112-0.097-4.96-4.959v18.219c0 1.588 1.234 2.887 2.795 2.993l0.205 0.007h8.667c0.552 0 1 0.448 1 1z"></path>
</svg>
