<!-- Generated by IcoMoon.io -->
<svg version="1.1" xmlns="http://www.w3.org/2000/svg" width="32" height="32" viewBox="0 0 32 32">
<title>arrow-undo</title>
<path d="M23.863 6.56c-2.783-3.068-7.535-3.003-10.57 0.447l-0.011 0.013-5.705 5.972h8.253c0.46 0 0.833 0.373 0.833 0.833s-0.373 0.833-0.833 0.833v0h-10.365c-0.46 0-0.833-0.373-0.833-0.833v-10.313c0-0.46 0.373-0.833 0.833-0.833s0.833 0.373 0.833 0.833v0 8.404l5.754-6.023c3.633-4.116 9.538-4.319 13.045-0.453 3.493 3.852 2.415 8.877-0.009 11.463l-0.007 0.007-5.989 6.119-6.003 6.061c-0.152 0.157-0.364 0.255-0.6 0.255-0.46 0-0.833-0.373-0.833-0.833 0-0.235 0.097-0.448 0.254-0.599l0.168-0.168 5.83-5.888 5.97-6.099c1.946-2.083 2.781-6.113-0.015-9.197z"></path>
</svg>
