<!-- Generated by IcoMoon.io -->
<svg version="1.1" xmlns="http://www.w3.org/2000/svg" width="32" height="32" viewBox="0 0 32 32">
<title>arrow-forward-down-person</title>
<path d="M16 24.667c0-1.105-0.895-2-2-2h-9.333c-1.105 0-2 0.895-2 2v0.667c0 2.629 2.479 5.333 6.667 5.333s6.667-2.705 6.667-5.333v-0.667zM13 17.667c0-2.025-1.642-3.667-3.667-3.667s-3.667 1.642-3.667 3.667c0 2.025 1.642 3.667 3.667 3.667s3.667-1.642 3.667-3.667zM22.303 8.717l3.951 3.951-7.892-0.006c-4.461-0.161-8.028-3.828-8.028-8.328 0-0.552-0.448-1-1-1s-1 0.448-1 1l0.005 0.328c0.173 5.555 4.731 10.005 10.328 10.005l7.587 0.001-3.951 3.949-0.097 0.112c-0.29 0.391-0.258 0.947 0.097 1.302 0.391 0.391 1.024 0.391 1.414 0l5.657-5.657 0.097-0.112c0.291-0.391 0.258-0.947-0.097-1.302l-5.657-5.657-0.112-0.097c-0.391-0.29-0.947-0.258-1.302 0.097-0.391 0.391-0.391 1.024 0 1.414z"></path>
</svg>
