<!-- Generated by IcoMoon.io -->
<svg version="1.1" xmlns="http://www.w3.org/2000/svg" width="32" height="32" viewBox="0 0 32 32">
<title>arrow-shuffle</title>
<path d="M25.423 5.911c-0.151-0.151-0.359-0.244-0.589-0.244-0.46 0-0.833 0.373-0.833 0.833 0 0.23 0.093 0.439 0.244 0.589v0l2.244 2.244h-0.655c-5.592 0-8.767 3.131-11.697 6.020l-0.055 0.053c-2.971 2.93-5.708 5.593-10.581 5.593-0.46 0-0.833 0.373-0.833 0.833s0.373 0.833 0.833 0.833v0c5.592 0 8.767-3.131 11.697-6.020l0.055-0.053c2.971-2.93 5.708-5.593 10.581-5.593h0.655l-2.244 2.244c-0.151 0.151-0.244 0.359-0.244 0.589 0 0.46 0.373 0.833 0.833 0.833 0.23 0 0.439-0.093 0.589-0.244v0l3.667-3.667c0.151-0.151 0.244-0.359 0.244-0.589s-0.093-0.439-0.244-0.589l-3.667-3.667zM3.5 9.333c4.661 0 7.644 2.176 10.205 4.573-0.147 0.143-0.291 0.286-0.433 0.427l-0.126 0.124-0.631 0.62c-2.439-2.273-5.003-4.077-9.014-4.077-0.46 0-0.833-0.373-0.833-0.833s0.373-0.833 0.833-0.833v0zM25.833 22.667c-4.661 0-7.644-2.176-10.205-4.573l0.435-0.427 0.125-0.123 0.631-0.62c2.439 2.273 5.003 4.077 9.014 4.077h0.655l-2.244-2.244c-0.151-0.151-0.244-0.359-0.244-0.589 0-0.46 0.373-0.833 0.833-0.833 0.23 0 0.439 0.093 0.589 0.244v0l3.667 3.667c0.151 0.151 0.244 0.359 0.244 0.589s-0.093 0.439-0.244 0.589l-3.667 3.667c-0.151 0.151-0.359 0.244-0.589 0.244-0.46 0-0.833-0.373-0.833-0.833 0-0.23 0.093-0.439 0.244-0.589v0l2.244-2.244h-0.655z"></path>
</svg>
