<!-- Generated by IcoMoon.io -->
<svg version="1.1" xmlns="http://www.w3.org/2000/svg" width="32" height="32" viewBox="0 0 32 32">
<title>arrow-repeat-all-off-regular</title>
<path d="M4.261 2.863l0.112 0.097 24.667 24.667c0.179 0.181 0.29 0.43 0.29 0.704 0 0.552-0.448 1-1 1-0.223 0-0.428-0.073-0.594-0.196l0.003 0.002-0.112-0.097-4.679-4.677c-0.581 0.16-1.187 0.259-1.811 0.292l-0.471 0.012h-9.248l2.533 2.533 0.088 0.101c0.126 0.166 0.202 0.375 0.202 0.602 0 0.552-0.448 1-1 1-0.223 0-0.429-0.073-0.595-0.196l0.003 0.002-0.112-0.096-4.243-4.243-0.089-0.103c-0.127-0.166-0.204-0.376-0.204-0.605 0-0.224 0.073-0.43 0.197-0.597l-0.002 0.003 0.097-0.113 4.243-4.243 0.103-0.089c0.166-0.127 0.376-0.204 0.605-0.204 0.224 0 0.43 0.073 0.597 0.197l-0.003-0.002 0.112 0.097 0.091 0.103c0.127 0.166 0.203 0.376 0.203 0.604 0 0.224-0.074 0.431-0.198 0.598l0.002-0.003-0.097 0.113-2.54 2.539h9.256c0.189 0 0.377-0.008 0.561-0.023l-12.692-12.697c-2.303 1.083-3.87 3.384-3.87 6.051 0 1.731 0.659 3.307 1.741 4.492l-0.005-0.005c0.178 0.18 0.288 0.428 0.288 0.702 0 0.552-0.448 1-1 1-0.308 0-0.583-0.139-0.767-0.358l-0.001-0.002c-1.399-1.528-2.256-3.572-2.256-5.817 0-0.004 0-0.008 0-0.012v0.001c0-0.001 0-0.002 0-0.004 0-3.211 1.746-6.013 4.341-7.51l0.042-0.022-4.089-4.091c-0.179-0.181-0.29-0.43-0.29-0.704 0-0.552 0.448-1 1-1 0.223 0 0.428 0.073 0.594 0.196l-0.003-0.002zM26.333 9.837c0.293 0 0.555 0.125 0.737 0.325 1.403 1.529 2.263 3.576 2.263 5.824 0 0.005 0 0.009 0 0.014v-0.001c0 2.743-1.273 5.187-3.261 6.775l-1.425-1.427c1.638-1.227 2.687-3.163 2.687-5.344 0-0.002 0-0.003 0-0.005v0c0-1.741-0.667-3.327-1.76-4.515-0.148-0.173-0.238-0.4-0.238-0.648 0-0.552 0.447-0.999 0.998-1h0zM19.377 3.204l0.103 0.089 4.243 4.243c0.181 0.181 0.293 0.431 0.293 0.707 0 0.228-0.077 0.439-0.205 0.607l0.002-0.002-0.089 0.101-4.243 4.243c-0.181 0.182-0.432 0.295-0.71 0.295-0.552 0-1-0.448-1-1 0-0.229 0.077-0.441 0.207-0.61l-0.002 0.002 0.091-0.101 2.44-2.445h-7.876l-1.973-1.973c0.095-0.008 0.221-0.016 0.349-0.021l0.016-0 0.311-0.005h9.361l-2.628-2.627c-0.181-0.181-0.293-0.431-0.293-0.707 0-0.228 0.077-0.439 0.205-0.607l-0.002 0.002 0.091-0.101c0.181-0.181 0.431-0.292 0.707-0.292 0.228 0 0.438 0.076 0.606 0.205l-0.002-0.002z"></path>
</svg>
