<!-- Generated by IcoMoon.io -->
<svg version="1.1" xmlns="http://www.w3.org/2000/svg" width="32" height="32" viewBox="0 0 32 32">
<title>arrow-minimize</title>
<path d="M4.857 17.143h9.143c0.432 0 0.79 0.32 0.849 0.736l0.001 0.005 0.008 0.117v9.143c-0 0.473-0.384 0.857-0.857 0.857-0.432 0-0.79-0.32-0.849-0.736l-0.001-0.005-0.008-0.117v-7.074l-9.109 9.109c-0.155 0.154-0.368 0.249-0.604 0.249-0.473 0-0.857-0.384-0.857-0.857 0-0.191 0.062-0.367 0.168-0.509l-0.002 0.002 0.083-0.096 9.106-9.109h-7.072c-0.432-0-0.79-0.32-0.849-0.736l-0.001-0.005-0.008-0.117c0-0.432 0.32-0.79 0.736-0.849l0.005-0.001 0.117-0.008zM29.177 2.823c0.155 0.155 0.251 0.369 0.251 0.606 0 0.192-0.063 0.369-0.169 0.512l0.002-0.002-0.083 0.096-9.109 9.109h7.074c0.432 0 0.79 0.32 0.849 0.736l0.001 0.005 0.008 0.117c-0 0.432-0.32 0.79-0.736 0.849l-0.005 0.001-0.117 0.008h-9.143c-0.432-0-0.79-0.32-0.849-0.736l-0.001-0.005-0.008-0.117v-9.143c0-0.473 0.384-0.857 0.857-0.857 0.432 0 0.79 0.32 0.849 0.736l0.001 0.005 0.008 0.117v7.072l9.109-9.106c0.155-0.155 0.369-0.251 0.606-0.251s0.451 0.096 0.606 0.251v0z"></path>
</svg>
