<!-- Generated by IcoMoon.io -->
<svg version="1.1" xmlns="http://www.w3.org/2000/svg" width="32" height="32" viewBox="0 0 32 32">
<title>arrow-circle-left</title>
<path d="M16.373 22.042l0.097-0.112c0.291-0.392 0.258-0.947-0.097-1.302l-3.626-3.626 8.92-0 0.136-0.009c0.488-0.066 0.864-0.485 0.864-0.991l-0.009-0.136c-0.066-0.488-0.485-0.864-0.991-0.864l-8.922 0 3.629-3.628 0.097-0.112c0.291-0.391 0.258-0.947-0.097-1.302-0.39-0.391-1.024-0.391-1.414-0l-5.335 5.333-0.097 0.112c-0.291 0.391-0.258 0.947 0.097 1.302l5.335 5.334 0.112 0.097c0.391 0.29 0.947 0.258 1.302-0.097zM16 2.668c-7.364 0-13.333 5.97-13.333 13.333s5.97 13.333 13.333 13.333c7.364 0 13.333-5.97 13.333-13.333s-5.97-13.333-13.333-13.333zM16 27.335c-6.259 0-11.333-5.074-11.333-11.333s5.074-11.333 11.333-11.333 11.333 5.074 11.333 11.333c0 6.259-5.074 11.333-11.333 11.333z"></path>
</svg>
