<!-- Generated by IcoMoon.io -->
<svg version="1.1" xmlns="http://www.w3.org/2000/svg" width="32" height="32" viewBox="0 0 32 32">
<title>arrow-circle-down-up-regular</title>
<path d="M11.766 22.166l2.634-2.635c0.151-0.146 0.244-0.35 0.244-0.575 0-0.442-0.358-0.8-0.8-0.8-0.226 0-0.43 0.094-0.575 0.244l-1.269 1.269v-9.269c0-0.442-0.358-0.8-0.8-0.8s-0.8 0.358-0.8 0.8v0 9.269l-1.269-1.269c-0.146-0.151-0.35-0.244-0.575-0.244-0.442 0-0.8 0.358-0.8 0.8 0 0.226 0.094 0.43 0.244 0.575l2.634 2.635c0.145 0.145 0.345 0.235 0.566 0.235s0.422-0.090 0.566-0.235l0-0zM24 12.469l-2.634-2.635c-0.145-0.145-0.345-0.235-0.566-0.235s-0.422 0.090-0.566 0.235l-2.634 2.635c-0.151 0.146-0.244 0.35-0.244 0.575 0 0.442 0.358 0.8 0.8 0.8 0.226 0 0.43-0.094 0.575-0.244l1.269-1.269v9.269c0 0.442 0.358 0.8 0.8 0.8s0.8-0.358 0.8-0.8v0-9.269l1.269 1.269c0.146 0.151 0.35 0.244 0.575 0.244 0.442 0 0.8-0.358 0.8-0.8 0-0.226-0.094-0.43-0.244-0.575l-0-0zM28.8 16c0 7.069-5.731 12.8-12.8 12.8s-12.8-5.731-12.8-12.8v0c0-7.069 5.731-12.8 12.8-12.8s12.8 5.731 12.8 12.8v0zM16 27.2c6.186 0 11.2-5.014 11.2-11.2s-5.014-11.2-11.2-11.2v0c-6.186 0-11.2 5.014-11.2 11.2s5.014 11.2 11.2 11.2v0z"></path>
</svg>
