<!-- Generated by IcoMoon.io -->
<svg version="1.1" xmlns="http://www.w3.org/2000/svg" width="32" height="32" viewBox="0 0 32 32">
<title>arrow-sync-circle-regular</title>
<path d="M21.333 11c0-0.552 0.448-1 1-1s1 0.448 1 1v0 4.333c0 0.552-0.448 1-1 1v0h-3.667c-0.552 0-1-0.448-1-1s0.448-1 1-1v0h1.693c-0.691-1.769-2.382-3-4.36-3h-0c-1.457 0-2.716 0.619-3.564 1.64-0.185 0.221-0.461 0.361-0.769 0.361-0.553 0-1.001-0.448-1.001-1.001 0-0.244 0.087-0.468 0.233-0.642l-0.001 0.002c1.231-1.48 3.053-2.36 5.103-2.36 0.002 0 0.004 0 0.007 0 2.172 0 4.1 1.040 5.314 2.65l0.012 0.017v-1zM10.667 20v1c0 0.552-0.448 1-1 1s-1-0.448-1-1v0-4c0-0.552 0.448-1 1-1v0h3.667c0.552 0 1 0.448 1 1s-0.448 1-1 1v0h-1.551c0.772 1.588 2.373 2.664 4.226 2.664 1.424 0 2.699-0.635 3.558-1.638l0.005-0.006c0.185-0.226 0.463-0.368 0.775-0.368 0.552 0 1 0.448 1 1 0 0.256-0.096 0.489-0.254 0.665l0.001-0.001c-1.233 1.441-3.054 2.349-5.087 2.349-2.175 0-4.108-1.039-5.329-2.648l-0.012-0.017zM16 2.667c-7.364 0-13.333 5.969-13.333 13.333s5.969 13.333 13.333 13.333 13.333-5.969 13.333-13.333-5.969-13.333-13.333-13.333zM27.333 16c0 6.259-5.074 11.333-11.333 11.333s-11.333-5.074-11.333-11.333v0c0-6.259 5.074-11.333 11.333-11.333s11.333 5.074 11.333 11.333v0z"></path>
</svg>
