<!-- Generated by IcoMoon.io -->
<svg version="1.1" xmlns="http://www.w3.org/2000/svg" width="32" height="32" viewBox="0 0 32 32">
<title>arrow-down</title>
<path d="M16.833 3.5c0-0.46-0.373-0.833-0.833-0.833s-0.833 0.373-0.833 0.833v0 21.631l-8.406-8.548c-0.153-0.164-0.37-0.266-0.61-0.266-0.46 0-0.833 0.373-0.833 0.833 0 0.236 0.098 0.449 0.256 0.601l0 0 9.833 10c0.151 0.154 0.361 0.249 0.594 0.249s0.443-0.095 0.594-0.249l0-0 9.833-10c0.158-0.152 0.256-0.365 0.256-0.601 0-0.46-0.373-0.833-0.833-0.833-0.241 0-0.458 0.102-0.61 0.266l-0 0-8.406 8.548v-21.631z"></path>
</svg>
