<!-- Generated by IcoMoon.io -->
<svg version="1.1" xmlns="http://www.w3.org/2000/svg" width="32" height="32" viewBox="0 0 32 32">
<title>arrow-minimize-vertical</title>
<path d="M15.667 2.667c0.552 0 1 0.448 1 1v5.586l1.626-1.626c0.391-0.391 1.024-0.391 1.414 0s0.391 1.024 0 1.414l-3.333 3.333c-0.391 0.391-1.024 0.391-1.414 0l-3.333-3.333c-0.391-0.391-0.391-1.024 0-1.414s1.024-0.391 1.414 0l1.626 1.626v-5.586c0-0.552 0.448-1 1-1zM5.333 15.667c0-0.552 0.448-1 1-1h19.333c0.552 0 1 0.448 1 1s-0.448 1-1 1h-19.333c-0.552 0-1-0.448-1-1zM18.293 23.707c0.391 0.391 1.024 0.391 1.414 0s0.391-1.024 0-1.414l-3.333-3.333c-0.391-0.391-1.024-0.391-1.414 0l-3.333 3.333c-0.391 0.391-0.391 1.024 0 1.414s1.024 0.391 1.414 0l1.626-1.626v6.252c0 0.552 0.448 1 1 1s1-0.448 1-1v-6.252l1.626 1.626z"></path>
</svg>
