<!-- Generated by IcoMoon.io -->
<svg version="1.1" xmlns="http://www.w3.org/2000/svg" width="32" height="32" viewBox="0 0 32 32">
<title>arrow-autofit-height-dotted-regular</title>
<path d="M22.373 4.293c-0.181-0.181-0.431-0.292-0.707-0.292s-0.526 0.112-0.707 0.292v0l-3.333 3.333c-0.166 0.178-0.268 0.418-0.268 0.682 0 0.552 0.448 1 1 1 0.264 0 0.504-0.102 0.682-0.269l-0.001 0.001 2.627-2.627 2.627 2.627c0.183 0.196 0.443 0.318 0.732 0.318 0.552 0 1-0.448 1-1 0-0.289-0.122-0.549-0.318-0.731l-0.001-0.001-3.333-3.333zM5.333 8.323c0-1.657 1.343-3 3-3v0h5.333c0.552 0 1 0.448 1 1s-0.448 1-1 1v0h-5.333c-0.552 0-1 0.448-1 1v0 15.333c0 0.552 0.448 1 1 1h5.333c0.552 0 1 0.448 1 1s-0.448 1-1 1v0h-5.333c-1.657 0-3-1.343-3-3v0-15.333zM22.373 27.707l3.333-3.333c0.196-0.183 0.318-0.443 0.318-0.732 0-0.552-0.448-1-1-1-0.289 0-0.549 0.122-0.731 0.318l-0.001 0.001-2.627 2.627-2.627-2.627c-0.183-0.196-0.443-0.318-0.732-0.318-0.552 0-1 0.448-1 1 0 0.289 0.122 0.549 0.318 0.731l0.001 0.001 3.333 3.333c0.181 0.181 0.431 0.292 0.707 0.292s0.526-0.112 0.707-0.292v0zM21.667 14.667c-0.552 0-1 0.448-1 1v0 0.667c0 0.552 0.448 1 1 1s1-0.448 1-1v0-0.667c0-0.552-0.448-1-1-1v0zM20.667 20.333c0-0.552 0.448-1 1-1s1 0.448 1 1v0 1.333c0 0.552-0.448 1-1 1s-1-0.448-1-1v0-1.333zM21.667 9.333c-0.552 0-1 0.448-1 1v0 1.333c0 0.552 0.448 1 1 1s1-0.448 1-1v0-1.333c0-0.552-0.448-1-1-1v0z"></path>
</svg>
