<!-- Generated by IcoMoon.io -->
<svg version="1.1" xmlns="http://www.w3.org/2000/svg" width="32" height="32" viewBox="0 0 32 32">
<title>arrow-up</title>
<path d="M5.612 14.31c-0.381 0.4-0.366 1.033 0.034 1.414s1.033 0.365 1.414-0.034l7.939-8.335v19.645c0 0.552 0.448 1 1 1s1-0.448 1-1v-19.646l7.94 8.336c0.381 0.4 1.014 0.415 1.414 0.034s0.415-1.014 0.034-1.414l-9.422-9.892c-0.215-0.225-0.489-0.359-0.773-0.4-0.062-0.012-0.127-0.018-0.192-0.018s-0.131 0.006-0.194 0.019c-0.284 0.042-0.557 0.175-0.771 0.4l-9.422 9.892z"></path>
</svg>
