<!-- Generated by IcoMoon.io -->
<svg version="1.1" xmlns="http://www.w3.org/2000/svg" width="32" height="32" viewBox="0 0 32 32">
<title>arrow-counterclockwise</title>
<path d="M16 6c5.523 0 10 4.477 10 10s-4.477 10-10 10c-5.523 0-10-4.477-10-10 0-0.502 0.037-0.995 0.108-1.477 0.090-0.605-0.354-1.19-0.966-1.19-0.494 0-0.928 0.342-1.003 0.83-0.092 0.599-0.14 1.212-0.14 1.836 0 6.627 5.373 12 12 12s12-5.373 12-12c0-6.627-5.373-12-12-12-3.073 0-5.877 1.155-8 3.056v-1.389c0-0.552-0.448-1-1-1s-1 0.448-1 1v4c0 0.552 0.448 1 1 1h4c0.552 0 1-0.448 1-1s-0.448-1-1-1h-1.799c1.784-1.655 4.173-2.667 6.799-2.667z"></path>
</svg>
