<!-- Generated by IcoMoon.io -->
<svg version="1.1" xmlns="http://www.w3.org/2000/svg" width="32" height="32" viewBox="0 0 32 32">
<title>arrow-autofit-up</title>
<path d="M17.627 9.041c-0.181-0.181-0.293-0.431-0.293-0.707 0-0.224 0.073-0.43 0.198-0.597l-0.002 0.003 0.097-0.113 3.156-3.16c0.186-0.283 0.502-0.467 0.861-0.467 0.009 0 0.017 0 0.026 0l-0.001-0c0.336 0 0.633 0.145 0.815 0.368l0.071 0.1 3.156 3.16 0.097 0.112c0.122 0.164 0.196 0.371 0.196 0.594 0 0.218-0.070 0.42-0.189 0.585l0.002-0.003-0.107 0.125-0.112 0.097c-0.164 0.123-0.371 0.196-0.595 0.196-0.219 0-0.421-0.070-0.585-0.189l0.003 0.002-0.125-0.107-1.628-1.628v19.712l-0.009 0.119c-0.067 0.427-0.484 0.756-0.991 0.756s-0.925-0.329-0.991-0.756l-0.009-0.12v-19.711l-1.627 1.628-0.112 0.097c-0.164 0.122-0.37 0.196-0.594 0.196-0.276 0-0.526-0.112-0.707-0.293v0zM8.333 5.323c-1.657 0-3 1.343-3 3v0 15.333c0 1.657 1.343 3 3 3v0h8c0.552 0 1-0.448 1-1s-0.448-1-1-1v0h-8c-0.552 0-1-0.448-1-1v0-15.333c0-0.552 0.448-1 1-1v0h5.333c0.552 0 1-0.448 1-1s-0.448-1-1-1v0h-5.333z"></path>
</svg>
