<!-- Generated by IcoMoon.io -->
<svg version="1.1" xmlns="http://www.w3.org/2000/svg" width="32" height="32" viewBox="0 0 32 32">
<title>arrow-swap</title>
<path d="M19.709 2.96l5.993 5.992c0.181 0.181 0.293 0.431 0.293 0.707 0 0.224-0.073 0.43-0.198 0.597l0.002-0.003-0.096 0.113-5.993 6.005c-0.181 0.18-0.43 0.291-0.706 0.291-0.552 0-1-0.448-1-1 0-0.223 0.073-0.428 0.196-0.594l-0.002 0.003 0.096-0.112 4.289-4.297h-15.595c-0.503-0.001-0.92-0.373-0.989-0.857l-0.001-0.005-0.009-0.135c0-0.504 0.373-0.921 0.859-0.99l0.005-0.001 0.136-0.009 15.597-0.001-4.291-4.289c-0.181-0.181-0.293-0.431-0.293-0.707 0-0.224 0.073-0.43 0.198-0.597l-0.002 0.003 0.097-0.112c0.181-0.181 0.431-0.293 0.707-0.293 0.224 0 0.43 0.073 0.597 0.198l-0.003-0.002 0.112 0.097zM26 22.2l0.009 0.133c0 0 0 0.001 0 0.001 0 0.504-0.373 0.921-0.859 0.99l-0.005 0.001-0.136 0.009-15.595-0.001 4.295 4.293c0.181 0.181 0.293 0.431 0.293 0.707 0 0.224-0.073 0.43-0.198 0.597l0.002-0.003-0.096 0.112c-0.181 0.181-0.431 0.294-0.708 0.294-0.224 0-0.431-0.074-0.598-0.198l0.003 0.002-0.112-0.096-6-5.996c-0.181-0.181-0.293-0.431-0.293-0.707 0-0.224 0.073-0.43 0.198-0.597l-0.002 0.003 0.097-0.112 6-6.005c0.181-0.179 0.43-0.29 0.704-0.29 0.552 0 1 0.448 1 1 0 0.223-0.073 0.428-0.196 0.594l0.002-0.003-0.096 0.112-4.291 4.293h15.589c0.505 0 0.923 0.375 0.99 0.861l0.001 0.005z"></path>
</svg>
