<!-- Generated by IcoMoon.io -->
<svg version="1.1" xmlns="http://www.w3.org/2000/svg" width="32" height="32" viewBox="0 0 32 32">
<title>arrow-sort-regular</title>
<path d="M2.537 11.391l6.571-6.568 0.097-0.085 0.066-0.043 0.082-0.045 0.12-0.046 0.12-0.025 0.059-0.006 0.061-0.002 0.065 0.002 0.105 0.015 0.122 0.034 0.097 0.042 0.062 0.034 0.072 0.050 0.082 0.073 6.571 6.568c0.154 0.155 0.249 0.368 0.249 0.604 0 0.473-0.384 0.857-0.857 0.857-0.191 0-0.367-0.062-0.509-0.168l0.002 0.002-0.096-0.082-5.109-5.106v19.074c-0 0.473-0.384 0.857-0.857 0.857-0.432 0-0.79-0.32-0.849-0.736l-0.001-0.005-0.008-0.117v-19.074l-5.109 5.106c-0.155 0.155-0.369 0.25-0.606 0.25-0.192 0-0.369-0.063-0.512-0.17l0.002 0.002-0.096-0.082c-0.155-0.155-0.252-0.37-0.252-0.607 0-0.192 0.063-0.369 0.17-0.512l-0.002 0.002 0.083-0.096zM22.286 4.571c0.432 0 0.79 0.32 0.849 0.736l0.001 0.005 0.008 0.117v19.071l5.109-5.105 0.096-0.083c0.141-0.106 0.319-0.169 0.512-0.169 0.473 0 0.857 0.384 0.857 0.857 0 0.193-0.064 0.371-0.172 0.515l0.002-0.002-0.083 0.095-6.546 6.545c-0.157 0.171-0.381 0.278-0.631 0.278-0.209 0-0.4-0.075-0.549-0.199l0.001 0.001-0.083-0.080-6.546-6.545-0.083-0.096c-0.105-0.141-0.168-0.318-0.168-0.509 0-0.187 0.060-0.36 0.162-0.501l-0.002 0.003 0.091-0.107 0.096-0.083c0.141-0.105 0.318-0.168 0.509-0.168 0.187 0 0.36 0.060 0.501 0.162l-0.003-0.002 0.107 0.091 5.109 5.107v-19.073l0.008-0.117c0.059-0.421 0.417-0.741 0.849-0.741v0z"></path>
</svg>
