<!-- Generated by IcoMoon.io -->
<svg version="1.1" xmlns="http://www.w3.org/2000/svg" width="32" height="32" viewBox="0 0 32 32">
<title>arrow-download</title>
<path d="M24.333 27.333c0.552-0 1 0.447 1 1s-0.447 1-1 1l-17.333 0.005c-0.552 0-1-0.447-1-1s0.447-1 1-1l17.333-0.005zM15.531 2.682l0.136-0.009c0.506 0 0.925 0.376 0.991 0.864l0.009 0.136-0.001 18.247 4.962-4.96c0.355-0.355 0.911-0.387 1.302-0.097l0.112 0.097c0.355 0.355 0.387 0.911 0.097 1.302l-0.097 0.112-6.664 6.662c-0.355 0.355-0.91 0.387-1.301 0.097l-0.112-0.097-6.671-6.662c-0.391-0.39-0.391-1.023-0.001-1.414 0.355-0.355 0.91-0.388 1.302-0.098l0.112 0.097 4.959 4.952 0.001-18.237c0-0.506 0.376-0.925 0.864-0.991v0z"></path>
</svg>
