<!-- Generated by IcoMoon.io -->
<svg version="1.1" xmlns="http://www.w3.org/2000/svg" width="32" height="32" viewBox="0 0 32 32">
<title>arrow-sort-down-lines</title>
<path d="M11.667 5.333l-0.133 0.009c-0.492 0.068-0.866 0.486-0.867 0.991v16.923l-4.293-4.291-0.112-0.096c-0.164-0.123-0.372-0.197-0.597-0.197-0.552 0-1 0.448-1 1 0 0.277 0.113 0.528 0.295 0.709l6.005 6 0.112 0.096c0.164 0.122 0.37 0.196 0.594 0.196 0.276 0 0.526-0.112 0.707-0.293l5.996-6 0.096-0.112c0.123-0.164 0.196-0.371 0.196-0.595 0-0.276-0.112-0.527-0.294-0.708v0l-0.112-0.096c-0.164-0.123-0.371-0.196-0.595-0.196-0.276 0-0.527 0.112-0.708 0.294v0l-4.292 4.295v-16.928l-0.008-0.136c-0.069-0.491-0.486-0.864-0.991-0.864v0zM16.333 6c-0.552 0-1 0.448-1 1s0.448 1 1 1v0h10.667c0.552 0 1-0.448 1-1s-0.448-1-1-1v0h-10.667zM15.333 11c0-0.552 0.448-1 1-1v0h6.667c0.552 0 1 0.448 1 1s-0.448 1-1 1v0h-6.667c-0.552 0-1-0.448-1-1v0zM16.333 14c-0.552 0-1 0.448-1 1s0.448 1 1 1v0h2.667c0.552 0 1-0.448 1-1s-0.448-1-1-1v0h-2.667z"></path>
</svg>
