<!-- Generated by IcoMoon.io -->
<svg version="1.1" xmlns="http://www.w3.org/2000/svg" width="32" height="32" viewBox="0 0 32 32">
<title>arrow-move</title>
<path d="M20.373 8.040c-0.181 0.181-0.431 0.292-0.707 0.292s-0.526-0.112-0.707-0.292v0l-1.96-1.96v4.92c0 0.552-0.448 1-1 1s-1-0.448-1-1v0-4.92l-1.96 1.96c-0.178 0.166-0.418 0.268-0.682 0.268-0.552 0-1-0.448-1-1 0-0.264 0.102-0.504 0.269-0.682l-0.001 0.001 3.667-3.667c0.181-0.181 0.431-0.292 0.707-0.292s0.526 0.112 0.707 0.292v0l3.667 3.667c0.181 0.181 0.292 0.431 0.292 0.707s-0.112 0.526-0.292 0.707v0zM8.040 18.96c0.196 0.183 0.318 0.443 0.318 0.732 0 0.552-0.448 1-1 1-0.289 0-0.549-0.122-0.731-0.318l-0.001-0.001-3.667-3.667c-0.181-0.181-0.292-0.431-0.292-0.707s0.112-0.526 0.292-0.707v0l3.667-3.667c0.178-0.166 0.418-0.268 0.682-0.268 0.552 0 1 0.448 1 1 0 0.264-0.102 0.504-0.269 0.682l0.001-0.001-1.96 1.96h4.92c0.552 0 1 0.448 1 1s-0.448 1-1 1v0h-4.92l1.96 1.96zM23.96 20.373c-0.181-0.181-0.292-0.431-0.292-0.707s0.112-0.526 0.292-0.707v0l1.96-1.96h-4.92c-0.552 0-1-0.448-1-1s0.448-1 1-1v0h4.92l-1.96-1.96c-0.166-0.178-0.268-0.418-0.268-0.682 0-0.552 0.448-1 1-1 0.264 0 0.504 0.102 0.682 0.269l-0.001-0.001 3.667 3.667c0.181 0.181 0.292 0.431 0.292 0.707s-0.112 0.526-0.292 0.707v0l-3.667 3.667c-0.181 0.181-0.431 0.292-0.707 0.292s-0.526-0.112-0.707-0.292v0zM20.373 23.96c-0.181-0.181-0.431-0.292-0.707-0.292s-0.526 0.112-0.707 0.292v0l-1.96 1.96v-4.92c0-0.552-0.448-1-1-1s-1 0.448-1 1v0 4.92l-1.96-1.96c-0.178-0.166-0.418-0.268-0.682-0.268-0.552 0-1 0.448-1 1 0 0.264 0.102 0.504 0.269 0.682l-0.001-0.001 3.667 3.667c0.181 0.181 0.431 0.292 0.707 0.292s0.526-0.112 0.707-0.292v0l3.667-3.667c0.181-0.181 0.292-0.431 0.292-0.707s-0.112-0.526-0.292-0.707v0z"></path>
</svg>
