<!-- Generated by IcoMoon.io -->
<svg version="1.1" xmlns="http://www.w3.org/2000/svg" width="32" height="32" viewBox="0 0 32 32">
<title>arrow-collapse-all</title>
<path d="M2.667 6.333c0-0.552 0.448-1 1-1h24.667c0.552 0 1 0.448 1 1s-0.448 1-1 1h-24.667c-0.552 0-1-0.448-1-1zM8.293 10.96c0.391-0.391 1.024-0.391 1.414 0l4 4c0.391 0.391 0.391 1.024 0 1.414s-1.024 0.391-1.414 0l-2.293-2.293v10.919c0 0.552-0.448 1-1 1s-1-0.448-1-1v-10.919l-2.293 2.293c-0.391 0.391-1.024 0.391-1.414 0s-0.391-1.024 0-1.414l4-4zM15.333 11.667c0-0.552 0.448-1 1-1h12c0.552 0 1 0.448 1 1s-0.448 1-1 1h-12c-0.552 0-1-0.448-1-1z"></path>
</svg>
