<!-- Generated by IcoMoon.io -->
<svg version="1.1" xmlns="http://www.w3.org/2000/svg" width="32" height="32" viewBox="0 0 32 32">
<title>arrow-trending-settings</title>
<path d="M27 4c0.552 0 1 0.448 1 1v6.667c0 0.552-0.448 1-1 1s-1-0.448-1-1v-4.252l-7.96 7.96c-0.391 0.391-1.024 0.391-1.414 0l-2.96-2.96-7.96 7.96c-0.391 0.391-1.024 0.391-1.414 0s-0.391-1.024 0-1.414l8.667-8.667c0.391-0.391 1.024-0.391 1.414 0l2.96 2.96 7.253-7.252h-4.253c-0.552 0-1-0.448-1-1s0.448-1 1-1h6.667zM19.038 18.634c0.42 1.454-0.453 2.965-1.922 3.328l-0.779 0.193c-0.060 0.384-0.091 0.777-0.091 1.178 0 0.42 0.034 0.831 0.099 1.231l0.719 0.173c1.483 0.357 2.365 1.884 1.933 3.347l-0.248 0.842c0.586 0.514 1.253 0.932 1.979 1.229l0.658-0.692c1.051-1.106 2.814-1.105 3.865 0.001l0.665 0.7c0.725-0.294 1.391-0.707 1.977-1.217l-0.264-0.915c-0.42-1.454 0.453-2.965 1.922-3.328l0.778-0.193c0.060-0.384 0.091-0.777 0.091-1.178 0-0.42-0.034-0.831-0.099-1.231l-0.719-0.173c-1.483-0.357-2.365-1.884-1.933-3.347l0.248-0.841c-0.585-0.514-1.253-0.932-1.979-1.229l-0.657 0.691c-1.051 1.106-2.814 1.105-3.865-0.001l-0.665-0.7c-0.725 0.294-1.391 0.707-1.977 1.217l0.264 0.915zM23.333 25.333c-1.067 0-1.933-0.895-1.933-2s0.865-2 1.933-2c1.068 0 1.933 0.895 1.933 2s-0.865 2-1.933 2z"></path>
</svg>
