<!-- Generated by IcoMoon.io -->
<svg version="1.1" xmlns="http://www.w3.org/2000/svg" width="32" height="32" viewBox="0 0 32 32">
<title>arrow-trending-text</title>
<path d="M27 4c0.552 0 1 0.448 1 1v6.667c0 0.552-0.448 1-1 1s-1-0.448-1-1v-4.252l-7.96 7.96c-0.391 0.391-1.024 0.391-1.414 0l-2.96-2.96-7.96 7.96c-0.391 0.391-1.024 0.391-1.414 0s-0.391-1.024 0-1.414l8.667-8.667c0.391-0.391 1.024-0.391 1.414 0l2.96 2.96 7.253-7.252h-4.253c-0.552 0-1-0.448-1-1s0.448-1 1-1h6.667zM18.667 17.333c-1.473 0-2.667 1.194-2.667 2.667v8c0 1.473 1.194 2.667 2.667 2.667h9.333c1.473 0 2.667-1.194 2.667-2.667v-8c0-1.473-1.194-2.667-2.667-2.667h-9.333zM18.667 22c0-0.368 0.299-0.667 0.667-0.667h8c0.368 0 0.667 0.299 0.667 0.667s-0.299 0.667-0.667 0.667h-8c-0.368 0-0.667-0.299-0.667-0.667zM18.667 26c0-0.368 0.299-0.667 0.667-0.667h8c0.368 0 0.667 0.299 0.667 0.667s-0.299 0.667-0.667 0.667h-8c-0.368 0-0.667-0.299-0.667-0.667z"></path>
</svg>
