<!-- Generated by IcoMoon.io -->
<svg version="1.1" xmlns="http://www.w3.org/2000/svg" width="32" height="32" viewBox="0 0 32 32">
<title>arrow-maximize-vertical</title>
<path d="M18.293 7.707c0.391 0.391 1.024 0.391 1.414 0s0.391-1.024 0-1.414l-3.333-3.333c-0.391-0.391-1.024-0.391-1.414 0l-3.333 3.333c-0.391 0.391-0.391 1.024 0 1.414s1.024 0.391 1.414 0l1.626-1.626v5.586c0 0.552 0.448 1 1 1s1-0.448 1-1v-5.586l1.626 1.626z"></path>
<path d="M5.333 15.667c0-0.552 0.448-1 1-1h19.333c0.552 0 1 0.448 1 1s-0.448 1-1 1h-19.333c-0.552 0-1-0.448-1-1z"></path>
<path d="M16.667 19.667c0-0.552-0.448-1-1-1s-1 0.448-1 1v6.252l-1.626-1.626c-0.391-0.391-1.024-0.391-1.414 0s-0.391 1.024 0 1.414l3.333 3.333c0.391 0.391 1.024 0.391 1.414 0l3.333-3.333c0.391-0.391 0.391-1.024 0-1.414s-1.024-0.391-1.414 0l-1.626 1.626v-6.252z"></path>
</svg>
