<!-- Generated by IcoMoon.io -->
<svg version="1.1" xmlns="http://www.w3.org/2000/svg" width="32" height="32" viewBox="0 0 32 32">
<title>arrow-trending-wrench</title>
<path d="M28 5c0-0.552-0.448-1-1-1h-6.667c-0.552 0-1 0.448-1 1s0.448 1 1 1h4.253l-7.253 7.252-2.96-2.96c-0.391-0.391-1.024-0.391-1.414 0l-8.667 8.667c-0.391 0.391-0.391 1.024 0 1.414s1.024 0.391 1.414 0l7.96-7.96 2.96 2.96c0.391 0.391 1.024 0.391 1.414 0l7.96-7.96v4.252c0 0.552 0.448 1 1 1s1-0.448 1-1v-6.667zM27.307 15.777c0.334-0.334 0.22-0.898-0.242-0.998-1.715-0.374-3.579 0.106-4.913 1.439-1.583 1.583-1.963 3.913-1.14 5.855l-4.989 4.988c-0.781 0.781-0.781 2.047 0 2.829s2.047 0.781 2.829 0l4.989-4.989c1.941 0.822 4.271 0.442 5.853-1.14 1.334-1.333 1.813-3.198 1.439-4.913-0.101-0.462-0.664-0.576-0.998-0.242l-3.741 3.741-2.828-2.828 3.741-3.741z"></path>
</svg>
