<!-- Generated by IcoMoon.io -->
<svg version="1.1" xmlns="http://www.w3.org/2000/svg" width="32" height="32" viewBox="0 0 32 32">
<title>arrow-hook-up-left-regular</title>
<path d="M9.143 24.286c0 0.473 0.384 0.857 0.857 0.857h8c2.671 0 4.871-0.893 6.286-2.304 1.407-1.403 2-3.269 2-5.125s-0.593-3.721-2-5.125c-1.415-1.413-3.615-2.304-6.286-2.304h-9.36l3.68-3.68c0.168-0.157 0.273-0.38 0.273-0.627 0-0.473-0.384-0.857-0.857-0.857-0.247 0-0.47 0.105-0.627 0.272l-0 0-5.143 5.143c-0.155 0.155-0.251 0.369-0.251 0.606s0.096 0.451 0.251 0.606v0l5.143 5.143c0.157 0.168 0.38 0.273 0.627 0.273 0.473 0 0.857-0.384 0.857-0.857 0-0.247-0.105-0.47-0.272-0.627l-0.001-0-3.68-3.68h9.36c2.272 0 3.915 0.75 4.971 1.803 1.064 1.061 1.6 2.48 1.6 3.911 0 0.009 0 0.020 0 0.031 0 1.514-0.611 2.885-1.6 3.88l0-0c-1.056 1.054-2.699 1.803-4.971 1.803h-8c-0.473 0-0.857 0.384-0.857 0.857v0z"></path>
</svg>
