<!-- Generated by IcoMoon.io -->
<svg version="1.1" xmlns="http://www.w3.org/2000/svg" width="32" height="32" viewBox="0 0 32 32">
<title>arrow-circle-down-double</title>
<path d="M14.999 18.332l-0.112-0.097c-0.391-0.291-0.947-0.258-1.302 0.097l-0.919 0.919-0-8.92-0.009-0.136c-0.066-0.488-0.485-0.864-0.991-0.864l-0.136 0.009c-0.488 0.066-0.864 0.485-0.864 0.991l0 8.922-0.92-0.922-0.112-0.097c-0.391-0.291-0.947-0.258-1.302 0.097-0.391 0.391-0.391 1.024-0 1.414l2.626 2.628 0.112 0.097c0.391 0.291 0.947 0.258 1.302-0.097l2.628-2.628 0.097-0.112c0.291-0.392 0.258-0.947-0.097-1.302zM2.665 15.999c0 7.364 5.97 13.333 13.333 13.333s13.333-5.97 13.333-13.333c0-7.364-5.969-13.333-13.333-13.333s-13.333 5.97-13.333 13.333zM27.332 15.999c0 6.259-5.074 11.333-11.333 11.333s-11.333-5.074-11.333-11.333c0-6.259 5.074-11.333 11.333-11.333s11.333 5.074 11.333 11.333zM23.666 18.332l-0.112-0.097c-0.391-0.291-0.947-0.258-1.302 0.097l-0.919 0.919-0-8.92-0.009-0.136c-0.066-0.488-0.485-0.864-0.991-0.864l-0.136 0.009c-0.488 0.066-0.864 0.485-0.864 0.991l0 8.922-0.92-0.921-0.112-0.097c-0.391-0.291-0.947-0.258-1.302 0.097-0.391 0.391-0.391 1.024-0 1.414l2.626 2.628 0.112 0.097c0.391 0.291 0.947 0.258 1.302-0.097l2.628-2.628 0.097-0.112c0.291-0.392 0.258-0.947-0.097-1.302z"></path>
</svg>
