<!-- Generated by IcoMoon.io -->
<svg version="1.1" xmlns="http://www.w3.org/2000/svg" width="32" height="32" viewBox="0 0 32 32">
<title>arrow-right</title>
<path d="M2.667 16c0-0.46 0.373-0.833 0.833-0.833h21.631l-8.548-8.407c-0.164-0.153-0.266-0.37-0.266-0.61 0-0.46 0.373-0.833 0.833-0.833 0.236 0 0.449 0.098 0.601 0.256l0 0 10.010 9.843c0.148 0.15 0.239 0.356 0.239 0.583 0 0.032-0.002 0.063-0.005 0.093l0-0.004c-0.022 0.208-0.119 0.39-0.261 0.523l-0.001 0-9.983 9.817c-0.152 0.158-0.365 0.256-0.601 0.256-0.46 0-0.833-0.373-0.833-0.833 0-0.241 0.102-0.458 0.266-0.61l0-0 8.548-8.407h-21.631c-0.46 0.001-0.833-0.373-0.833-0.833z"></path>
</svg>
