<!-- Generated by IcoMoon.io -->
<svg version="1.1" xmlns="http://www.w3.org/2000/svg" width="32" height="32" viewBox="0 0 32 32">
<title>arrow-enter-up</title>
<path d="M26.667 28.333c0 0.552-0.448 1-1 1v0h-8.667c-2.761 0-5-2.239-5-5v0-18.217l-4.96 4.96c-0.181 0.181-0.431 0.292-0.706 0.292-0.224 0-0.431-0.074-0.598-0.198l0.003 0.002-0.112-0.096c-0.181-0.181-0.294-0.431-0.294-0.708 0-0.224 0.074-0.431 0.198-0.598l-0.002 0.003 0.097-0.112 6.667-6.667c0.181-0.181 0.431-0.293 0.707-0.293 0.224 0 0.43 0.073 0.597 0.198l-0.003-0.002 0.112 0.097 6.667 6.667c0.179 0.181 0.29 0.43 0.29 0.704 0 0.552-0.448 1-1 1-0.223 0-0.428-0.073-0.594-0.196l0.003 0.002-0.112-0.096-4.96-4.96v18.22c0.001 1.584 1.229 2.881 2.785 2.991l0.010 0.001 0.205 0.008h8.667c0.552 0 1 0.448 1 1v0z"></path>
</svg>
