<!-- Generated by IcoMoon.io -->
<svg version="1.1" xmlns="http://www.w3.org/2000/svg" width="32" height="32" viewBox="0 0 32 32">
<title>attach_arrow_right</title>
<path d="M15.696 4.992c1.446-1.438 3.44-2.327 5.641-2.327 4.418 0 8 3.582 8 8 0 1.934-0.686 3.708-1.829 5.091l0.011-0.014c-0.569-0.322-1.228-0.593-1.921-0.78l-0.060-0.014 0.059-0.057c1.065-1.083 1.722-2.569 1.722-4.208 0-3.315-2.688-6.003-6.003-6.003-1.532 0-2.929 0.574-3.99 1.518l0.006-0.005-0.224 0.213-0.016 0.019-12.716 12.715c-0.181 0.182-0.431 0.294-0.708 0.294-0.552 0-1-0.448-1-1 0-0.225 0.074-0.432 0.199-0.599l-0.002 0.003 0.097-0.112 12.733-12.733zM14.949 25.535c0.187 0.713 0.461 1.389 0.812 2.017l-0.504 0.503-0.048 0.040c-0.876 0.791-2.042 1.275-3.321 1.275-2.742 0-4.964-2.222-4.964-4.964 0-1.107 0.362-2.129 0.975-2.955l-0.009 0.013c0.034-0.066 0.072-0.123 0.115-0.175l-0.001 0.002 0.072-0.080 0.116-0.117 0.188-0.197 0.004 0.004 9.915-9.939c0.181-0.181 0.431-0.294 0.708-0.294 0.223 0 0.43 0.073 0.596 0.197l-0.003-0.002 0.112 0.097c0.181 0.181 0.294 0.431 0.294 0.708 0 0.223-0.073 0.43-0.197 0.596l0.002-0.003-0.096 0.112-10.127 10.151c-0.416 0.508-0.669 1.164-0.669 1.878 0 1.642 1.331 2.973 2.973 2.973 0.737 0 1.412-0.268 1.931-0.713l-0.004 0.003 1.131-1.131zM30.668 23.335c0 4.050-3.283 7.333-7.333 7.333s-7.333-3.283-7.333-7.333v0c0-4.050 3.283-7.333 7.333-7.333s7.333 3.283 7.333 7.333v0zM19.335 22.668c-0.368 0-0.667 0.298-0.667 0.667s0.298 0.667 0.667 0.667v0h6.391l-2.196 2.195c-0.126 0.121-0.204 0.291-0.204 0.48 0 0.368 0.298 0.667 0.667 0.667 0.188 0 0.358-0.078 0.479-0.203l3.334-3.334c0.121-0.121 0.195-0.287 0.195-0.471s-0.075-0.351-0.195-0.471l-3.333-3.333c-0.121-0.126-0.291-0.204-0.48-0.204-0.368 0-0.667 0.298-0.667 0.667 0 0.188 0.078 0.358 0.203 0.479l2.196 2.196h-6.392z"></path>
</svg>
