<!-- Generated by IcoMoon.io -->
<svg version="1.1" xmlns="http://www.w3.org/2000/svg" width="32" height="32" viewBox="0 0 32 32">
<title>attach</title>
<path d="M15.696 4.991c3.122-3.125 8.187-3.125 11.311-0.001 3.044 3.044 3.122 7.931 0.234 11.070l-0.251 0.263-11.782 11.771c-1.948 1.756-4.954 1.696-6.83-0.181-1.759-1.759-1.922-4.509-0.488-6.451 0.031-0.060 0.069-0.119 0.113-0.174l0.071-0.080 0.116-0.117 0.188-0.197 0.004 0.004 9.914-9.939c0.355-0.355 0.91-0.389 1.302-0.099l0.112 0.097c0.355 0.355 0.388 0.91 0.099 1.302l-0.097 0.112-10.126 10.151c-0.957 1.167-0.89 2.893 0.2 3.983 1.105 1.105 2.865 1.158 4.033 0.158l11.777-11.774c2.341-2.344 2.341-6.143-0.003-8.486-2.27-2.27-5.906-2.341-8.261-0.213l-0.224 0.213-0.017 0.019-12.715 12.715c-0.391 0.39-1.024 0.39-1.414 0-0.355-0.355-0.387-0.911-0.097-1.302l0.097-0.112 12.734-12.734z"></path>
</svg>
