<!-- Generated by IcoMoon.io -->
<svg version="1.1" xmlns="http://www.w3.org/2000/svg" width="32" height="32" viewBox="0 0 32 32">
<title>autocorrect-regular</title>
<path d="M17.948 6.579c0.391 0.245 0.731 0.56 1.003 0.931l0.156 0.228 3.927 6.261h5.633c0.505 0 0.922 0.374 0.99 0.86l0.001 0.005 0.009 0.136c0 0.552-0.448 1-1 1v0l-4.379-0.001 0.008 0.012-0.012-0.013c1.062 1.13 1.715 2.655 1.715 4.333 0 3.498-2.836 6.333-6.333 6.333s-6.333-2.836-6.333-6.333c0-3.498 2.836-6.333 6.333-6.333 0.001 0 0.001 0 0.002 0h1.008l-3.263-5.197c-0.3-0.473-0.82-0.782-1.413-0.782-0.528 0-0.999 0.246-1.305 0.63l-0.003 0.003-0.104 0.149-10.075 16.064c-0.18 0.281-0.491 0.465-0.845 0.465-0.552 0-1-0.448-1-1 0-0.144 0.030-0.28 0.085-0.403l-0.003 0.006 0.069-0.131 10.073-16.064c0.659-1.039 1.803-1.719 3.107-1.719 0.722 0 1.395 0.209 1.963 0.569l-0.015-0.009zM19.668 16c-2.393 0-4.333 1.94-4.333 4.333s1.94 4.333 4.333 4.333v0c2.393 0 4.333-1.94 4.333-4.333s-1.94-4.333-4.333-4.333v0z"></path>
</svg>
