<!-- Generated by IcoMoon.io -->
<svg version="1.1" xmlns="http://www.w3.org/2000/svg" width="32" height="32" viewBox="0 0 32 32">
<title>auto-fit-width-regular</title>
<path d="M4 24.333c0 0.552 0.448 1 1 1s1-0.448 1-1v0-16.667c0-0.552-0.448-1-1-1s-1 0.448-1 1v0 16.667zM26 24.333c0 0.552 0.448 1 1 1s1-0.448 1-1v0-16.667c0-0.552-0.448-1-1-1s-1 0.448-1 1v0 16.667zM18.861 18.737c-0.123 0.164-0.197 0.372-0.197 0.597 0 0.552 0.448 1 1 1 0.277 0 0.527-0.112 0.708-0.294l0-0 3.16-3.156c0.284-0.186 0.468-0.502 0.468-0.862 0-0.008-0-0.017-0-0.025l0 0.001c0-0.007 0-0.016 0-0.025 0-0.359-0.184-0.675-0.463-0.858l-0.004-0.002-3.16-3.156-0.113-0.097c-0.164-0.122-0.37-0.196-0.594-0.196-0.276 0-0.526 0.112-0.707 0.293v0l-0.097 0.112c-0.122 0.164-0.196 0.37-0.196 0.594 0 0.276 0.112 0.526 0.293 0.707v0l1.628 1.629-9.173 0.003 1.628-1.629 0.107-0.125c0.117-0.161 0.187-0.363 0.187-0.582 0-0.224-0.074-0.43-0.198-0.597l0.002 0.003-0.099-0.112-0.125-0.107c-0.161-0.117-0.363-0.187-0.582-0.187-0.224 0-0.43 0.074-0.597 0.198l0.003-0.002-0.113 0.097-3.16 3.156-0.099 0.071c-0.225 0.193-0.367 0.478-0.367 0.796 0 0.006 0 0.012 0 0.018v-0.001c-0 0.008-0 0.017-0 0.026 0 0.359 0.184 0.675 0.463 0.858l0.004 0.002 3.16 3.156 0.113 0.097c0.164 0.123 0.372 0.198 0.597 0.198 0.552 0 1-0.448 1-1 0-0.225-0.074-0.433-0.2-0.6l0.002 0.003-0.097-0.112-1.628-1.627 9.173-0.001-1.628 1.627-0.097 0.111z"></path>
</svg>
