<!-- Generated by IcoMoon.io -->
<svg version="1.1" xmlns="http://www.w3.org/2000/svg" width="32" height="32" viewBox="0 0 32 32">
<title>auto-fit-height</title>
<path d="M7.667 4c-0.552 0-1 0.448-1 1s0.448 1 1 1h16.667c0.552 0 1-0.448 1-1s-0.448-1-1-1h-16.667z"></path>
<path d="M12.296 18.958c0.355-0.355 0.911-0.387 1.302-0.097l0.112 0.097 1.626 1.628v-4.095l-0.003-0.034v-5.045l-1.626 1.628-0.112 0.097c-0.391 0.29-0.947 0.258-1.302-0.097s-0.387-0.911-0.097-1.302l0.097-0.112 3.157-3.16c0.168-0.278 0.501-0.467 0.885-0.467 0.336 0 0.633 0.145 0.815 0.368l0.070 0.1 3.156 3.16 0.097 0.112c0.258 0.348 0.261 0.826 0.010 1.177l-0.106 0.125-0.112 0.097c-0.348 0.258-0.826 0.261-1.177 0.010l-0.125-0.106-1.628-1.628v4.094l0.003 0.034v5.045l1.628-1.628c0.355-0.355 0.911-0.387 1.302-0.097l0.112 0.097c0.355 0.355 0.387 0.911 0.097 1.302l-0.097 0.112-3.156 3.16c-0.167 0.278-0.501 0.468-0.885 0.468s-0.718-0.189-0.885-0.467l-3.156-3.16c-0.391-0.391-0.391-1.024 0-1.414z"></path>
<path d="M6.667 27c0-0.552 0.448-1 1-1h16.667c0.552 0 1 0.448 1 1s-0.448 1-1 1h-16.667c-0.552 0-1-0.448-1-1z"></path>
</svg>
