<!-- Generated by IcoMoon.io -->
<svg version="1.1" xmlns="http://www.w3.org/2000/svg" width="32" height="32" viewBox="0 0 32 32">
<title>auto-fit-width</title>
<path d="M4 24.333c0 0.552 0.448 1 1 1s1-0.448 1-1v-16.667c0-0.552-0.448-1-1-1s-1 0.448-1 1v16.667z"></path>
<path d="M26 24.333c0 0.552 0.448 1 1 1s1-0.448 1-1v-16.667c0-0.552-0.448-1-1-1s-1 0.448-1 1v16.667z"></path>
<path d="M18.862 18.738c-0.29 0.392-0.258 0.947 0.097 1.302 0.391 0.391 1.024 0.391 1.414 0l3.16-3.157c0.278-0.168 0.467-0.501 0.467-0.885s-0.19-0.718-0.468-0.885l-3.16-3.156-0.112-0.097c-0.391-0.29-0.947-0.258-1.302 0.097l-0.097 0.112c-0.29 0.391-0.258 0.947 0.097 1.302l1.628 1.629-9.173 0.003 1.628-1.628 0.106-0.125c0.252-0.351 0.249-0.829-0.010-1.177l-0.097-0.112-0.125-0.106c-0.351-0.252-0.829-0.249-1.177 0.010l-0.112 0.097-3.16 3.156-0.1 0.070c-0.223 0.181-0.368 0.479-0.368 0.815 0 0.384 0.189 0.717 0.467 0.885l3.16 3.157 0.112 0.097c0.391 0.29 0.947 0.258 1.302-0.097s0.387-0.911 0.097-1.302l-0.097-0.112-1.628-1.626 9.173-0.003-1.628 1.626-0.097 0.112z"></path>
</svg>
