<!-- Generated by IcoMoon.io -->
<svg version="1.1" xmlns="http://www.w3.org/2000/svg" width="32" height="32" viewBox="0 0 32 32">
<title>autosum</title>
<path d="M6.746 5.943c0.157-0.37 0.519-0.61 0.921-0.61h16.667c0.552 0 1 0.448 1 1s-0.448 1-1 1h-14.307l7.147 7.385c0.359 0.371 0.377 0.954 0.041 1.346l-7.373 8.602h14.492c0.552 0 1 0.448 1 1s-0.448 1-1 1h-16.667c-0.391 0-0.745-0.227-0.909-0.582s-0.105-0.772 0.149-1.069l8.195-9.561-8.154-8.426c-0.279-0.288-0.359-0.716-0.202-1.086z"></path>
</svg>
