<!-- Generated by IcoMoon.io -->
<svg version="1.1" xmlns="http://www.w3.org/2000/svg" width="32" height="32" viewBox="0 0 32 32">
<title>backspace</title>
<path d="M25 5.333c0 0 0 0 0 0 2.307 0 4.193 1.803 4.326 4.076l0.001 0.012 0.007 0.245v12.667c0 0 0 0 0 0 0 2.307-1.803 4.193-4.076 4.326l-0.012 0.001-0.245 0.007h-11.335c-0 0-0.001 0-0.002 0-1.060 0-2.032-0.381-2.785-1.013l0.007 0.005-0.207-0.185-6.66-6.333c-0.831-0.791-1.347-1.905-1.347-3.14 0-1.158 0.454-2.21 1.194-2.987l-0.002 0.002 0.155-0.155 6.66-6.333c0.71-0.676 1.653-1.115 2.696-1.183l0.013-0.001 0.279-0.009h11.335zM25 7.333h-11.335c-0.001 0-0.001 0-0.002 0-0.545 0-1.046 0.187-1.443 0.5l0.005-0.004-0.168 0.147-6.744 6.416c-0.398 0.418-0.642 0.984-0.642 1.608 0 0.586 0.216 1.121 0.573 1.531l-0.002-0.003 0.155 0.163 6.661 6.333c0.38 0.36 0.867 0.583 1.385 0.632l0.223 0.011h11.335c1.221-0 2.224-0.939 2.325-2.134l0.001-0.009 0.008-0.191v-12.667c-0-1.221-0.939-2.224-2.134-2.325l-0.009-0.001-0.191-0.008zM15.261 11.196l0.112 0.097 3.293 3.292 3.293-3.293c0.181-0.182 0.431-0.294 0.708-0.294 0.552 0 1 0.448 1 1 0 0.225-0.074 0.432-0.199 0.599l0.002-0.003-0.097 0.112-3.292 3.293 3.293 3.293c0.182 0.181 0.294 0.431 0.294 0.708 0 0.552-0.448 1-1 1-0.225 0-0.432-0.074-0.599-0.199l0.003 0.002-0.112-0.097-3.293-3.292-3.293 3.293c-0.181 0.182-0.431 0.294-0.708 0.294-0.552 0-1-0.448-1-1 0-0.225 0.074-0.432 0.199-0.599l-0.002 0.003 0.097-0.112 3.293-3.293-3.293-3.293c-0.179-0.181-0.29-0.43-0.29-0.704 0-0.552 0.448-1 1-1 0.223 0 0.428 0.073 0.594 0.196l-0.003-0.002z"></path>
</svg>
