<!-- Generated by IcoMoon.io -->
<svg version="1.1" xmlns="http://www.w3.org/2000/svg" width="32" height="32" viewBox="0 0 32 32">
<title>backpack</title>
<path d="M13.889 10.667c-1.78 0-3.222 1.443-3.222 3.222 0 1.166 0.945 2.111 2.111 2.111h6.445c1.166 0 2.111-0.945 2.111-2.111 0-1.78-1.443-3.222-3.222-3.222h-4.222zM12.667 13.889c0-0.675 0.547-1.222 1.222-1.222h4.222c0.675 0 1.222 0.547 1.222 1.222 0 0.061-0.050 0.111-0.111 0.111h-6.444c-0.061 0-0.111-0.050-0.111-0.111z"></path>
<path d="M16 2.667c-2.615 0-4.761 2.008-4.981 4.566-3.381 1.789-5.685 5.343-5.685 9.434v8.333c0 2.393 1.94 4.333 4.333 4.333h12.667c2.393 0 4.333-1.94 4.333-4.333v-8.333c0-4.092-2.304-7.645-5.685-9.434-0.22-2.558-2.366-4.566-4.981-4.566zM24.667 18.667h-17.333v-2c0-4.786 3.88-8.667 8.667-8.667s8.667 3.88 8.667 8.667v2zM10.667 23c0 0.552 0.448 1 1 1s1-0.448 1-1v-2.048h12v4.048c0 1.289-1.045 2.333-2.333 2.333h-12.667c-1.289 0-2.333-1.045-2.333-2.333v-4.048h3.333v2.048zM16 6c-0.93 0-1.833 0.119-2.693 0.343 0.489-0.993 1.511-1.676 2.693-1.676s2.204 0.683 2.693 1.676c-0.86-0.224-1.763-0.343-2.693-0.343z"></path>
</svg>
