<!-- Generated by IcoMoon.io -->
<svg version="1.1" xmlns="http://www.w3.org/2000/svg" width="32" height="32" viewBox="0 0 32 32">
<title>balloon</title>
<path d="M16.024 7.553c0.107-0.446 0.502-0.772 0.974-0.772 0.081 0 0.16 0.010 0.236 0.028l-0.007-0.001c1.964 0.477 3.482 1.992 3.955 3.918l0.008 0.037c0.017 0.069 0.027 0.149 0.027 0.231 0 0.553-0.448 1-1 1-0.47 0-0.865-0.325-0.972-0.762l-0.001-0.007c-0.301-1.225-1.248-2.172-2.452-2.466l-0.023-0.005c-0.445-0.108-0.77-0.502-0.77-0.973 0-0.081 0.010-0.16 0.028-0.235l-0.001 0.007zM6.667 12c0-5.155 4.179-9.333 9.333-9.333s9.333 4.179 9.333 9.333v0c0 2.7-0.893 5.648-2.467 7.941-1.389 2.027-3.391 3.641-5.867 3.989v0.403c0 0.552 0.448 1 1 1h4.333c1.657 0 3 1.343 3 3v0 1.333c0 0.552-0.448 1-1 1s-1-0.448-1-1v0-1.333c0-0.552-0.448-1-1-1v0h-4.333c-1.657 0-3-1.343-3-3v0-0.403c-2.476-0.348-4.477-1.964-5.867-3.989-1.573-2.293-2.467-5.241-2.467-7.941zM16 4.667c-4.050 0-7.333 3.283-7.333 7.333v0c0 2.3 0.773 4.853 2.115 6.809 1.344 1.957 3.156 3.191 5.219 3.191s3.875-1.233 5.219-3.191c1.341-1.957 2.115-4.509 2.115-6.809 0-4.050-3.283-7.333-7.333-7.333v0z"></path>
</svg>
