<!-- Generated by IcoMoon.io -->
<svg version="1.1" xmlns="http://www.w3.org/2000/svg" width="32" height="32" viewBox="0 0 32 32">
<title>balloon</title>
<path d="M16.024 7.553c0.127-0.538 0.665-0.871 1.203-0.744 1.958 0.461 3.497 1.998 3.963 3.954 0.128 0.537-0.204 1.076-0.742 1.204s-1.076-0.204-1.204-0.742c-0.29-1.22-1.254-2.182-2.475-2.47-0.538-0.127-0.871-0.665-0.744-1.203z"></path>
<path d="M6.667 12c0-5.155 4.179-9.333 9.333-9.333s9.333 4.179 9.333 9.333c0 2.7-0.893 5.648-2.466 7.941-1.391 2.027-3.391 3.642-5.867 3.99v0.403c0 0.552 0.448 1 1 1h4.333c1.657 0 3 1.343 3 3v1.333c0 0.552-0.448 1-1 1s-1-0.448-1-1v-1.333c0-0.552-0.448-1-1-1h-4.333c-1.657 0-3-1.343-3-3v-0.403c-2.476-0.348-4.477-1.963-5.867-3.99-1.573-2.293-2.466-5.241-2.466-7.941zM16 4.667c-4.050 0-7.333 3.283-7.333 7.333 0 2.3 0.773 4.852 2.115 6.809s3.155 3.191 5.218 3.191 3.875-1.234 5.218-3.191c1.343-1.957 2.115-4.509 2.115-6.809 0-4.050-3.283-7.333-7.333-7.333z"></path>
</svg>
