<!-- Generated by IcoMoon.io -->
<svg version="1.1" xmlns="http://www.w3.org/2000/svg" width="32" height="32" viewBox="0 0 32 32">
<title>barcode-scanner</title>
<path d="M2.667 7.667c0-2.025 1.642-3.667 3.667-3.667h2c0.552 0 1 0.448 1 1s-0.448 1-1 1h-2c-0.92 0-1.667 0.746-1.667 1.667v2c0 0.552-0.448 1-1 1s-1-0.448-1-1v-2zM22.667 5c0-0.552 0.448-1 1-1h2c2.025 0 3.667 1.642 3.667 3.667v2c0 0.552-0.448 1-1 1s-1-0.448-1-1v-2c0-0.92-0.746-1.667-1.667-1.667h-2c-0.552 0-1-0.448-1-1zM3.667 21.333c0.552 0 1 0.448 1 1v2c0 0.921 0.746 1.667 1.667 1.667h2c0.552 0 1 0.448 1 1s-0.448 1-1 1h-2c-2.025 0-3.667-1.642-3.667-3.667v-2c0-0.552 0.448-1 1-1zM28.333 21.333c0.552 0 1 0.448 1 1v2c0 2.025-1.642 3.667-3.667 3.667h-2c-0.552 0-1-0.448-1-1s0.448-1 1-1h2c0.921 0 1.667-0.746 1.667-1.667v-2c0-0.552 0.448-1 1-1zM7.667 9.333c0.552 0 1 0.448 1 1v11.333c0 0.552-0.448 1-1 1s-1-0.448-1-1v-11.333c0-0.552 0.448-1 1-1zM14 10.333c0-0.552-0.448-1-1-1s-1 0.448-1 1v11.333c0 0.552 0.448 1 1 1s1-0.448 1-1v-11.333zM18.333 9.333c0.552 0 1 0.448 1 1v11.333c0 0.552-0.448 1-1 1s-1-0.448-1-1v-11.333c0-0.552 0.448-1 1-1zM24.667 10.333c0-0.552-0.448-1-1-1s-1 0.448-1 1v11.333c0 0.552 0.448 1 1 1s1-0.448 1-1v-11.333z"></path>
</svg>
