<!-- Generated by IcoMoon.io -->
<svg version="1.1" xmlns="http://www.w3.org/2000/svg" width="32" height="32" viewBox="0 0 32 32">
<title>battery-checkmark</title>
<path d="M22.667 8c2.209 0 4 1.791 4 4v0 1.333h1.333c0.736 0 1.333 0.597 1.333 1.333v0 2.667c0 0.736-0.597 1.333-1.333 1.333v0h-1.333v1.333c0 2.209-1.791 4-4 4v0h-5.565c0.147-0.599 0.232-1.287 0.232-1.995 0-0.002 0-0.004 0-0.005v0h5.331c0 0 0.001 0 0.001 0 1.037 0 1.889-0.788 1.99-1.798l0.001-0.008 0.008-0.193v-8c0 0 0-0 0-0 0-1.037-0.788-1.889-1.798-1.99l-0.008-0.001-0.193-0.009h-15.997c-1.037 0-1.889 0.789-1.99 1.8l-0.001 0.008-0.009 0.192v2.309c-0.765 0.403-1.422 0.882-2.003 1.44l0.003-0.003v-3.747c0-2.209 1.791-4 4-4v0h16zM16 22c0 4.050-3.283 7.333-7.333 7.333s-7.333-3.283-7.333-7.333v0c0-4.050 3.283-7.333 7.333-7.333s7.333 3.283 7.333 7.333v0zM13.139 18.861c-0.121-0.121-0.288-0.196-0.472-0.196s-0.351 0.075-0.472 0.196v0l-4.861 4.863-2.195-2.196c-0.121-0.121-0.288-0.195-0.472-0.195-0.369 0-0.667 0.299-0.667 0.668 0 0.184 0.075 0.351 0.196 0.472l2.667 2.667c0.121 0.121 0.288 0.196 0.472 0.196s0.351-0.075 0.472-0.196v0l5.333-5.333c0.121-0.121 0.196-0.288 0.196-0.472s-0.075-0.351-0.196-0.472v0z"></path>
</svg>
