<!-- Generated by IcoMoon.io -->
<svg version="1.1" xmlns="http://www.w3.org/2000/svg" width="32" height="32" viewBox="0 0 32 32">
<title>battery-9-regular</title>
<path d="M22.667 8c2.209 0 4 1.791 4 4v0 1.333h1.333c0.736 0 1.333 0.597 1.333 1.333v0 2.667c0 0.736-0.597 1.333-1.333 1.333v0h-1.333v1.333c0 2.209-1.791 4-4 4v0h-16c-2.209 0-4-1.791-4-4v0-8c0-2.209 1.791-4 4-4v0h16zM22.664 10h-15.997c-1.037 0-1.889 0.789-1.99 1.8l-0.001 0.008-0.009 0.192v8c0 0 0 0 0 0 0 1.037 0.788 1.889 1.798 1.99l0.008 0.001 0.193 0.009h15.997c0 0 0 0 0 0 1.037 0 1.889-0.788 1.99-1.798l0.001-0.008 0.009-0.193v-8c0 0 0-0 0-0 0-1.037-0.788-1.889-1.798-1.99l-0.008-0.001-0.193-0.009zM8 12h12c0.681 0 1.243 0.511 1.323 1.171l0.001 0.006 0.009 0.156v5.333c-0 0.681-0.511 1.243-1.171 1.323l-0.006 0.001-0.156 0.009h-12c-0 0-0.001 0-0.001 0-0.681 0-1.243-0.511-1.324-1.171l-0.001-0.006-0.008-0.156v-5.333c0-0.681 0.511-1.243 1.171-1.323l0.006-0.001 0.156-0.009z"></path>
</svg>
