<!-- Generated by IcoMoon.io -->
<svg version="1.1" xmlns="http://www.w3.org/2000/svg" width="32" height="32" viewBox="0 0 32 32">
<title>battery-warning</title>
<path d="M10.992 14.933c0.309 0.177 0.564 0.433 0.741 0.741l5.346 9.331c0.549 0.958 0.217 2.18-0.741 2.729-0.303 0.173-0.645 0.265-0.994 0.265h-10.692c-1.105 0-2-0.895-2-2 0-0.349 0.091-0.692 0.265-0.994l5.346-9.331c0.549-0.959 1.771-1.29 2.73-0.741zM10 24c-0.368 0-0.667 0.299-0.667 0.667s0.298 0.667 0.667 0.667c0.368 0 0.667-0.299 0.667-0.667s-0.298-0.667-0.667-0.667zM22.667 8c2.209 0 4 1.791 4 4v1.333h1.334c0.243 0 0.471 0.065 0.667 0.178 0.399 0.231 0.667 0.661 0.667 1.155v2.667c0 0.493-0.268 0.924-0.667 1.155-0.196 0.113-0.424 0.178-0.667 0.178h-1.334v1.333c0 2.209-1.791 4-4 4h-4.628l-1.145-2h5.771c1.040 0 1.894-0.793 1.991-1.807l0.009-0.193v-8c0-1.040-0.793-1.894-1.807-1.991l-0.193-0.009h-15.998c-1.040 0-1.894 0.793-1.991 1.807l-0.009 0.193-0.001 7.271-1.513 2.642c-0.31-0.568-0.486-1.22-0.486-1.913v-8c0-2.209 1.791-4 4-4h16zM9.998 17.333c-0.327 0-0.599 0.236-0.656 0.547l-0.011 0.12v4l0.011 0.12c0.056 0.311 0.329 0.547 0.656 0.547s0.599-0.236 0.656-0.547l0.011-0.12v-4l-0.011-0.12c-0.056-0.311-0.329-0.547-0.656-0.547z"></path>
</svg>
