<!-- Generated by IcoMoon.io -->
<svg version="1.1" xmlns="http://www.w3.org/2000/svg" width="32" height="32" viewBox="0 0 32 32">
<title>battery-8</title>
<path d="M22.667 8c2.209 0 4 1.791 4 4v1.333h1.334c0.243 0 0.471 0.065 0.667 0.178 0.399 0.231 0.667 0.661 0.667 1.155v2.667c0 0.493-0.268 0.924-0.667 1.155-0.196 0.113-0.424 0.178-0.667 0.178h-1.334v1.333c0 2.209-1.791 4-4 4h-16c-2.209 0-4-1.791-4-4v-8c0-2.209 1.791-4 4-4h16zM22.664 10h-15.998c-1.040 0-1.894 0.793-1.991 1.807l-0.009 0.193v8c0 1.040 0.793 1.894 1.807 1.991l0.193 0.009h15.998c1.040 0 1.894-0.793 1.991-1.807l0.009-0.193v-8c0-1.040-0.793-1.894-1.807-1.991l-0.193-0.009zM8 12h10.667c0.684 0 1.247 0.515 1.324 1.178l0.009 0.155v5.333c0 0.684-0.515 1.247-1.178 1.324l-0.155 0.009h-10.667c-0.684 0-1.247-0.515-1.324-1.178l-0.009-0.155v-5.333c0-0.684 0.515-1.247 1.178-1.324l0.155-0.009z"></path>
</svg>
