<!-- Generated by IcoMoon.io -->
<svg version="1.1" xmlns="http://www.w3.org/2000/svg" width="32" height="32" viewBox="0 0 32 32">
<title>battery-saver-regular</title>
<path d="M14.673 14.773c0-2.099-1.060-5.156-3.145-8.959-0.359-0.653-1.293-0.644-1.693-0.027-0.56 0.861-1.392 1.744-2.503 2.641l-0.493 0.387-0.472 0.357-0.653 0.504c-2.305 1.836-3.213 3.469-3.013 5.881 0.175 2.133 1.465 3.661 3.683 4.36-0.783 0.912-1.812 1.631-3.099 2.163-0.366 0.154-0.618 0.51-0.618 0.925 0 0.553 0.448 1.001 1.001 1.001 0.138 0 0.27-0.028 0.389-0.079l-0.007 0.002c2.444-1.013 4.199-2.635 5.216-4.845 0.38-0.827 0.685-1.64 0.912-2.444l0.057-0.208 0.136-0.549 0.091-0.44 0.056-0.316 0.088-0.636c0.048-0.4 0.076-0.862 0.076-1.331 0-0.057-0-0.114-0.001-0.171l0 0.009-0.005-0.032c0.009-0.546 0.453-0.985 1-0.985 0.552 0 1 0.448 1 1 0 0.005-0 0.011-0 0.016v-0.001c0.031 1.947-0.365 3.933-1.181 5.952l-0.033 0.117c-0.006 0.033-0.010 0.070-0.010 0.109 0 0.334 0.271 0.605 0.605 0.605 0.091 0 0.176-0.020 0.254-0.055l-0.004 0.002 0.152-0.076c0.097-0.055 0.184-0.116 0.261-0.183 0.963-0.832 1.955-2.593 1.955-4.693zM22.667 8h-7l-0.136 0.009c-0.495 0.065-0.874 0.484-0.874 0.992 0 0.552 0.448 1 1 1 0.004 0 0.007-0 0.011-0h6.999l0.193 0.008c1.018 0.102 1.807 0.954 1.807 1.991 0 0 0 0.001 0 0.001v-0 8l-0.009 0.192c-0.102 1.018-0.954 1.807-1.991 1.807 0 0-0 0-0 0h-12.333c-0.541 0.037-1 0.428-1 1 0 0.553 0.448 1 1 1l12.568-0.007c2.106-0.128 3.765-1.867 3.765-3.993 0-0 0-0 0-0v0-1.333l1.333 0.024 0.18-0.012c0.655-0.091 1.155-0.648 1.155-1.321 0 0 0-0 0-0v0-2.667l-0.011-0.161c-0.083-0.663-0.643-1.172-1.323-1.172h-0l-1.335-0.024v-1.333l-0.007-0.235c-0.128-2.105-1.867-3.764-3.993-3.764-0 0-0 0-0 0v0z"></path>
</svg>
