<!-- Generated by IcoMoon.io -->
<svg version="1.1" xmlns="http://www.w3.org/2000/svg" width="32" height="32" viewBox="0 0 32 32">
<title>battery-checkmark</title>
<path d="M22.667 8c2.209 0 4 1.791 4 4v1.333h1.334c0.243 0 0.471 0.065 0.667 0.178 0.399 0.231 0.667 0.661 0.667 1.155v2.667c0 0.493-0.268 0.924-0.667 1.155-0.196 0.113-0.424 0.178-0.667 0.178h-1.334v1.333c0 2.209-1.791 4-4 4h-5.566c0.152-0.642 0.232-1.312 0.232-2h5.331c1.039 0 1.894-0.793 1.991-1.807l0.009-0.193v-8c0-1.040-0.793-1.894-1.807-1.991l-0.193-0.009h-15.998c-1.040 0-1.894 0.793-1.991 1.807l-0.009 0.193v2.31c-0.735 0.383-1.408 0.868-2 1.437v-3.746c0-2.209 1.791-4 4-4h16zM16 22c0 4.050-3.283 7.333-7.333 7.333s-7.333-3.283-7.333-7.333c0-4.050 3.283-7.333 7.333-7.333s7.333 3.283 7.333 7.333zM13.138 18.862c-0.26-0.26-0.682-0.26-0.943 0l-4.862 4.862-2.195-2.195c-0.26-0.26-0.682-0.26-0.943 0s-0.26 0.683 0 0.943l2.667 2.667c0.26 0.26 0.682 0.26 0.943 0l5.333-5.333c0.26-0.26 0.26-0.683 0-0.943z"></path>
</svg>
