<!-- Generated by IcoMoon.io -->
<svg version="1.1" xmlns="http://www.w3.org/2000/svg" width="32" height="32" viewBox="0 0 32 32">
<title>battery-charge</title>
<path d="M14.333 8h8.333c2.13 0 3.872 1.665 3.993 3.765l0.007 0.235v1.333l1.334 0.024c0.243 0 0.471 0.065 0.667 0.178 0.354 0.205 0.606 0.568 0.657 0.993l0.010 0.162v2.667c0 0.493-0.268 0.924-0.667 1.155-0.147 0.085-0.312 0.143-0.488 0.167l-0.179 0.012-1.334-0.024v1.333c0 2.13-1.665 3.872-3.765 3.993l-0.235 0.007h-12.003c-0.552 0-1-0.448-1-1 0-0.506 0.376-0.925 0.864-0.991l0.136-0.009h12.003c1.040 0 1.894-0.793 1.991-1.807l0.009-0.193v-8c0-1.040-0.793-1.894-1.807-1.991l-0.193-0.009h-8.333c-0.552 0-1-0.448-1-1 0-0.506 0.376-0.925 0.864-0.991l0.136-0.009zM8.335 14.664l0.001 8.336c0 0.552-0.448 1-1 1-0.506 0-0.925-0.376-0.991-0.864l-0.009-0.136v-8.336l-1.336 0.001c-1.289 0-2.333-1.045-2.333-2.333v-3.332c0-0.552 0.448-1 1-1h1.001l0-1.667c0-0.506 0.376-0.925 0.864-0.991l0.136-0.009c0.506 0 0.925 0.376 0.991 0.864l0.009 0.136-0 1.667h1.327l0.001-1.667c0-0.506 0.376-0.925 0.864-0.991l0.136-0.009c0.506 0 0.925 0.376 0.991 0.864l0.009 0.136-0.001 1.667h1.010c0.552 0 1 0.448 1 1v3.332c0 1.289-1.045 2.333-2.333 2.333l-1.337-0.001zM10.005 10h-5.338v2.332c0 0.184 0.149 0.333 0.333 0.333h4.671c0.184 0 0.333-0.149 0.333-0.333v-2.332z"></path>
</svg>
