<!-- Generated by IcoMoon.io -->
<svg version="1.1" xmlns="http://www.w3.org/2000/svg" width="32" height="32" viewBox="0 0 32 32">
<title>beach</title>
<path d="M12.467 7.095c2.485-4.305 7.99-5.78 12.294-3.294s5.779 7.99 3.294 12.294l-0.333 0.577c-0.276 0.478-0.888 0.642-1.366 0.366l-6.078-3.509-3.164 5.537c2.54 0.301 4.786 1.613 6.457 3.486-0.7 0.114-1.322 0.503-1.733 1.069-1.554-1.611-3.618-2.621-5.839-2.621s-4.285 1.010-5.839 2.621c-0.411-0.568-1.033-0.956-1.733-1.069 1.654-1.853 3.87-3.158 6.377-3.476l3.741-6.547-6.046-3.491c-0.478-0.276-0.642-0.888-0.366-1.366l0.333-0.577zM14.373 7.81l2.621 1.513c0.712-1.092 1.432-1.991 2.325-2.802 0.701-0.637 1.49-1.204 2.435-1.768-2.794-0.61-5.771 0.547-7.381 3.056zM22.119 12.283c0.739-1.329 1.094-2.386 1.222-3.407 0.103-0.828 0.063-1.674-0.085-2.681-1.091 0.614-1.906 1.183-2.591 1.806-0.711 0.646-1.309 1.375-1.935 2.324l3.39 1.957zM23.852 13.283l2.632 1.52c1.391-2.693 0.865-5.912-1.142-8.026 0.076 0.798 0.081 1.568-0.016 2.348-0.168 1.346-0.635 2.656-1.474 4.159zM8.952 24.878c-0.137-0.427-0.543-0.711-0.991-0.693s-0.83 0.332-0.934 0.769c-0.281 1.187-0.809 1.818-1.389 2.179-0.612 0.381-1.4 0.534-2.305 0.534-0.552 0-1 0.448-1 1s0.448 1 1 1c1.095 0 2.307-0.18 3.362-0.836 0.55-0.342 1.028-0.796 1.416-1.371 2.069 2.488 5.879 2.475 7.889-0.039 2.045 2.558 5.955 2.526 7.996-0.095 1.13 1.479 2.894 2.341 4.67 2.341 0.552 0 1-0.448 1-1s-0.448-1-1-1c-1.577 0-3.179-1.063-3.712-2.779-0.129-0.417-0.514-0.702-0.95-0.704s-0.824 0.279-0.957 0.694c-1.045 3.253-5.079 3.199-6.099 0.139-0.136-0.408-0.518-0.684-0.949-0.684s-0.813 0.275-0.949 0.684c-1.020 3.060-5.054 3.114-6.099-0.139z"></path>
</svg>
