<!-- Generated by IcoMoon.io -->
<svg version="1.1" xmlns="http://www.w3.org/2000/svg" width="32" height="32" viewBox="0 0 32 32">
<title>beaker</title>
<path d="M10.667 6h1.333v8.318c0 0.5-0.125 0.992-0.363 1.431l-4.78 8.804c-0.844 1.555 0.282 3.447 2.051 3.447h14.185c1.769 0 2.895-1.892 2.051-3.447l-4.78-8.804c-0.239-0.439-0.363-0.931-0.363-1.431v-8.318h1.333c0.552 0 1-0.448 1-1s-0.448-1-1-1h-10.667c-0.552 0-1 0.448-1 1s0.448 1 1 1zM14 14.318v-8.318h4v8.318c0 0.833 0.208 1.653 0.606 2.385l1.066 1.964h-7.343l1.066-1.964c0.397-0.732 0.606-1.552 0.606-2.385zM11.243 20.667h9.515l2.628 4.841c0.121 0.222-0.040 0.492-0.293 0.492h-14.185c-0.253 0-0.414-0.27-0.293-0.492l2.628-4.841z"></path>
</svg>
