<!-- Generated by IcoMoon.io -->
<svg version="1.1" xmlns="http://www.w3.org/2000/svg" width="32" height="32" viewBox="0 0 32 32">
<title>beaker-edit</title>
<path d="M8 4.667h1.333v8.318c0 0.5-0.125 0.992-0.363 1.431l-4.78 8.804c-0.844 1.555 0.282 3.447 2.051 3.447h8.979l0.141-0.564c0.128-0.511 0.336-0.995 0.615-1.436h-9.735c-0.253 0-0.414-0.27-0.293-0.492l2.628-4.841h9.515l1.073 1.976 1.475-1.475-2.942-5.419c-0.239-0.439-0.363-0.931-0.363-1.431v-8.318h1.333c0.552 0 1-0.448 1-1s-0.448-1-1-1h-10.667c-0.552 0-1 0.448-1 1s0.448 1 1 1zM11.333 12.984v-8.318h4v8.318c0 0.833 0.208 1.653 0.606 2.385l1.066 1.964h-7.343l1.066-1.964c0.398-0.732 0.606-1.552 0.606-2.385zM25.467 16.893l-7.87 7.87c-0.459 0.459-0.784 1.034-0.942 1.663l-0.61 2.441c-0.265 1.061 0.696 2.023 1.758 1.758l2.441-0.61c0.629-0.157 1.204-0.483 1.663-0.942l7.87-7.87c1.19-1.19 1.19-3.12 0-4.31s-3.12-1.19-4.31 0z"></path>
</svg>
