<!-- Generated by IcoMoon.io -->
<svg version="1.1" xmlns="http://www.w3.org/2000/svg" width="32" height="32" viewBox="0 0 32 32">
<title>beaker-edit</title>
<path d="M8 4.667h1.333v8.317c0 0.5-0.125 0.992-0.364 1.432l-4.779 8.804c-0.178 0.322-0.283 0.705-0.283 1.113 0 1.288 1.044 2.333 2.332 2.333h8.979l0.141-0.564c0.128-0.511 0.336-0.995 0.615-1.436h-9.733c-0 0-0.001 0-0.001 0-0.184 0-0.333-0.149-0.333-0.333 0-0.059 0.015-0.114 0.042-0.162l-0.001 0.002 2.627-4.84h9.516l1.073 1.976 1.475-1.475-2.941-5.419c-0.229-0.414-0.364-0.907-0.364-1.432v-8.317h1.333c0.552 0 1-0.448 1-1s-0.448-1-1-1v0h-10.667c-0.552 0-1 0.448-1 1s0.448 1 1 1v0zM11.333 12.984v-8.317h4v8.317c0 0.833 0.208 1.653 0.605 2.387l1.067 1.963h-7.344l1.067-1.964c0.381-0.689 0.605-1.511 0.605-2.385 0-0 0-0 0-0.001v0zM25.467 16.892l-7.871 7.871c-0.446 0.446-0.774 1.008-0.936 1.638l-0.005 0.025-0.611 2.441c-0.027 0.106-0.043 0.227-0.043 0.352 0 0.8 0.649 1.449 1.449 1.449 0.125 0 0.247-0.016 0.363-0.046l-0.010 0.002 2.44-0.609c0.655-0.167 1.218-0.496 1.664-0.943l7.869-7.869c0.522-0.546 0.843-1.288 0.843-2.104 0-1.683-1.365-3.048-3.048-3.048-0.817 0-1.558 0.321-2.105 0.844l0.001-0.001z"></path>
</svg>
