<!-- Generated by IcoMoon.io -->
<svg version="1.1" xmlns="http://www.w3.org/2000/svg" width="32" height="32" viewBox="0 0 32 32">
<title>bed</title>
<path d="M9 5.333h14c1.95 0 3.545 1.522 3.66 3.443l0.007 0.223 0.001 4.472c1.462 0.414 2.552 1.711 2.657 3.279l0.008 0.25v10c0 0.552-0.448 1-1 1-0.506 0-0.925-0.376-0.991-0.864l-0.009-0.136v-3h-22.667v3c0 0.506-0.376 0.925-0.864 0.991l-0.136 0.009c-0.506 0-0.925-0.376-0.991-0.864l-0.009-0.136v-10c0-1.679 1.128-3.094 2.667-3.529l-0.001-4.471c0-1.95 1.522-3.545 3.443-3.66l0.223-0.007zM25.667 15.333h-19.333c-0.863 0-1.573 0.656-1.658 1.496l-0.009 0.17v5h22.667v-5c0-0.863-0.656-1.573-1.496-1.658l-0.17-0.009zM23 7.333h-14c-0.863 0-1.573 0.656-1.658 1.496l-0.009 0.17v4.333h2c0-0.736 0.597-1.333 1.333-1.333h2.667c0.684 0 1.247 0.515 1.324 1.178l0.009 0.155h2.667c0-0.736 0.597-1.333 1.333-1.333h2.667c0.684 0 1.247 0.515 1.324 1.178l0.009 0.155h2v-4.333c0-0.863-0.656-1.573-1.496-1.658l-0.17-0.009z"></path>
</svg>
