<!-- Generated by IcoMoon.io -->
<svg version="1.1" xmlns="http://www.w3.org/2000/svg" width="32" height="32" viewBox="0 0 32 32">
<title>bed</title>
<path d="M9 5.333h14c0 0 0 0 0 0 1.946 0 3.538 1.516 3.659 3.432l0.001 0.011 0.007 0.224v4.472c1.471 0.427 2.548 1.714 2.658 3.267l0.001 0.012 0.008 0.249v10c-0 0.552-0.448 1-1 1-0.504 0-0.921-0.373-0.99-0.858l-0.001-0.005-0.009-0.136v-3h-22.667v3c-0 0.504-0.373 0.921-0.859 0.99l-0.005 0.001-0.136 0.009c-0.504-0-0.921-0.373-0.99-0.859l-0.001-0.005-0.009-0.136v-10c0-1.679 1.128-3.093 2.667-3.529v-4.471c0-0 0-0 0-0 0-1.946 1.516-3.538 3.432-3.659l0.011-0.001 0.224-0.007zM25.667 15.333h-19.333c-0 0-0 0-0.001 0-0.86 0-1.568 0.652-1.657 1.489l-0.001 0.007-0.008 0.171v5h22.667v-5c-0-0.86-0.652-1.568-1.489-1.657l-0.007-0.001-0.171-0.009zM23 7.333h-14c-0 0-0.001 0-0.001 0-0.86 0-1.568 0.652-1.657 1.489l-0.001 0.007-0.008 0.171v4.333h2c0-0.736 0.597-1.333 1.333-1.333v0h2.667c0.681 0 1.243 0.511 1.323 1.171l0.001 0.006 0.009 0.156h2.667c0-0.736 0.597-1.333 1.333-1.333v0h2.667c0.681 0 1.243 0.511 1.323 1.171l0.001 0.006 0.009 0.156h2v-4.333c0-0 0-0.001 0-0.001 0-0.86-0.652-1.568-1.489-1.657l-0.007-0.001-0.171-0.008z"></path>
</svg>
