<!-- Generated by IcoMoon.io -->
<svg version="1.1" xmlns="http://www.w3.org/2000/svg" width="32" height="32" viewBox="0 0 32 32">
<title>bezier-curve-square-regular</title>
<path d="M8 4.8c-1.767 0-3.2 1.433-3.2 3.2v0 16c0 1.767 1.433 3.2 3.2 3.2v0h16c1.767 0 3.2-1.433 3.2-3.2v0-16c0-1.767-1.433-3.2-3.2-3.2v0h-16zM25.6 20.672c-1.336-0.229-2.277-0.752-2.979-1.408-0.982-0.915-1.579-2.166-2.067-3.533-0.168-0.469-0.315-0.928-0.462-1.387l-0.208-0.65c-0.234-0.751-0.486-1.381-0.78-1.987l0.037 0.085c-0.291-0.581-0.662-1.133-1.181-1.541-0.518-0.406-1.179-0.652-1.898-0.652-0.022 0-0.044 0-0.066 0.001l0.003-0c-0.771 0-1.422 0.23-1.96 0.651-0.518 0.408-0.89 0.96-1.181 1.541-0.256 0.521-0.507 1.151-0.713 1.801l-0.028 0.101-0.211 0.65c-0.147 0.459-0.293 0.918-0.461 1.387-0.488 1.366-1.085 2.618-2.067 3.534-0.704 0.656-1.643 1.178-2.979 1.408v-12.674c0-0.884 0.716-1.6 1.6-1.6v0h16c0.884 0 1.6 0.716 1.6 1.6v0 12.672zM6.4 22.291c1.747-0.25 3.064-0.917 4.070-1.856 1.269-1.184 1.971-2.733 2.483-4.166 0.176-0.493 0.336-0.995 0.488-1.467l0.197-0.608c0.207-0.667 0.428-1.226 0.686-1.764l-0.033 0.077c0.234-0.469 0.475-0.792 0.736-0.997 0.249-0.194 0.567-0.312 0.912-0.312 0.021 0 0.042 0 0.064 0.001l-0.003-0c0.429 0 0.728 0.12 0.971 0.31 0.262 0.205 0.504 0.528 0.738 0.997 0.235 0.469 0.438 1.035 0.653 1.686l0.197 0.608c0.152 0.472 0.312 0.974 0.488 1.467 0.512 1.434 1.216 2.982 2.483 4.166 1.008 0.939 2.323 1.606 4.070 1.856v1.709c0 0.884-0.716 1.6-1.6 1.6v0h-16c-0.884 0-1.6-0.716-1.6-1.6v0-1.709z"></path>
</svg>
