<!-- Generated by IcoMoon.io -->
<svg version="1.1" xmlns="http://www.w3.org/2000/svg" width="32" height="32" viewBox="0 0 32 32">
<title>bin-full</title>
<path d="M23.175 3.126c0.299 0.465 0.164 1.083-0.3 1.382l-15.803 10.159h5.595v-1c0-1.289 1.045-2.333 2.333-2.333h4.333v-1c0-1.289 1.045-2.333 2.333-2.333h4c1.289 0 2.333 1.045 2.333 2.333v4.333h0.333c0.552 0 1 0.448 1 1v9.333c0 2.393-1.94 4.333-4.333 4.333h-18c-2.393 0-4.333-1.94-4.333-4.333v-9.333c0-0.34 0.173-0.657 0.459-0.841l18.667-12c0.465-0.299 1.083-0.164 1.382 0.3zM26 14.667v-4.333c0-0.184-0.149-0.333-0.333-0.333h-4c-0.184 0-0.333 0.149-0.333 0.333v4.333h4.667zM19.333 14.667v-1.333h-4.333c-0.184 0-0.333 0.149-0.333 0.333v1h4.667zM4.667 16.667v8.333c0 1.289 1.045 2.333 2.333 2.333h18c1.289 0 2.333-1.045 2.333-2.333v-8.333h-22.667z"></path>
</svg>
