<!-- Generated by IcoMoon.io -->
<svg version="1.1" xmlns="http://www.w3.org/2000/svg" width="32" height="32" viewBox="0 0 32 32">
<title>bluetooth-disabled-regular</title>
<path d="M4.373 2.96c-0.183-0.196-0.443-0.318-0.732-0.318-0.552 0-1 0.448-1 1 0 0.289 0.122 0.549 0.318 0.731l0.001 0.001 10.373 10.373v0.664l0.005 0.004v1.161l-2.773 2.312c-0.21 0.184-0.342 0.453-0.342 0.753 0 0.552 0.448 1 1 1 0.236 0 0.453-0.082 0.624-0.218l-0.002 0.002 1.493-1.245v7.817c0 0 0 0 0 0 0 0.552 0.448 1 1 1 0.291 0 0.553-0.124 0.735-0.322l0.001-0.001 5.367-5.817 7.184 7.185c0.181 0.181 0.431 0.293 0.707 0.293 0.552 0 1-0.448 1-1 0-0.276-0.112-0.526-0.293-0.707l-24.667-24.667zM15.336 16.751l3.691 3.691-3.688 3.996v-6.924l-0.003-0.763zM21.261 12.579l-2.421 2.019-1.421-1.42 1.755-1.461-3.835-4.153v3.533l-2-2v-4.091c0-0 0-0 0-0 0-0.552 0.448-1 1-1 0.291 0 0.553 0.124 0.735 0.322l0.001 0.001 6.281 6.805c0.165 0.178 0.266 0.417 0.266 0.679 0 0.308-0.139 0.583-0.358 0.766l-0.002 0.001z"></path>
</svg>
