<!-- Generated by IcoMoon.io -->
<svg version="1.1" xmlns="http://www.w3.org/2000/svg" width="32" height="32" viewBox="0 0 32 32">
<title>bluetooth-disabled</title>
<path d="M4.374 2.96c-0.391-0.391-1.024-0.391-1.414-0s-0.391 1.024-0 1.414l10.374 10.374v0.663l0.006 0.005v1.161l-2.774 2.311c-0.424 0.354-0.482 0.984-0.128 1.408s0.984 0.482 1.408 0.128l1.494-1.245v7.816c0 0.911 1.118 1.347 1.735 0.678l5.367-5.817 7.184 7.184c0.391 0.391 1.024 0.391 1.414 0s0.391-1.024 0-1.414l-24.666-24.667zM15.336 16.751l3.69 3.69-3.687 3.996v-6.924l-0.003-0.762z"></path>
<path d="M21.262 12.579l-2.422 2.018-1.42-1.42 1.754-1.461-3.834-4.153v3.535l-2-2v-4.092c0-0.91 1.117-1.347 1.735-0.678l6.282 6.806c0.388 0.42 0.345 1.080-0.095 1.447z"></path>
</svg>
