<!-- Generated by IcoMoon.io -->
<svg version="1.1" xmlns="http://www.w3.org/2000/svg" width="32" height="32" viewBox="0 0 32 32">
<title>bluetooth-searching</title>
<path d="M13.339 12.811v-7.806c0-0.862 1.003-1.3 1.633-0.775l0.101 0.097 6.282 6.806c0.356 0.385 0.349 0.972 0.007 1.349l-0.102 0.097-4.103 3.418 4.103 3.422c0.403 0.336 0.472 0.918 0.182 1.336l-0.088 0.11-6.282 6.809c-0.585 0.634-1.619 0.275-1.726-0.538l-0.009-0.14v-7.816l-1.494 1.245c-0.424 0.354-1.055 0.296-1.408-0.128-0.321-0.386-0.303-0.942 0.022-1.305l0.107-0.103 2.774-2.311v-1.161l-2.775-2.314c-0.424-0.354-0.481-0.984-0.127-1.408 0.322-0.386 0.872-0.468 1.288-0.214l0.12 0.086 1.494 1.246zM15.597 17.298l-0.258 0.215v6.924l3.834-4.156-3.577-2.983zM25.693 9.829c0.42-0.358 1.052-0.308 1.41 0.113 1.428 1.677 2.227 3.804 2.227 6.052 0 2.255-0.803 4.388-2.24 6.067-0.359 0.42-0.99 0.469-1.41 0.11s-0.469-0.99-0.11-1.41c1.129-1.32 1.759-2.993 1.759-4.767 0-1.768-0.626-3.437-1.749-4.755-0.358-0.42-0.308-1.052 0.113-1.41zM23.034 12.246c0.42-0.358 1.052-0.308 1.41 0.113 0.858 1.007 1.338 2.287 1.338 3.637 0 1.355-0.483 2.638-1.346 3.646-0.359 0.42-0.99 0.469-1.41 0.11s-0.469-0.99-0.11-1.41c0.556-0.65 0.866-1.473 0.866-2.346 0-0.871-0.308-1.691-0.861-2.34-0.358-0.42-0.308-1.052 0.113-1.41zM15.339 7.562v6.917l0.259 0.215 3.575-2.979-3.834-4.153z"></path>
</svg>
