<!-- Generated by IcoMoon.io -->
<svg version="1.1" xmlns="http://www.w3.org/2000/svg" width="32" height="32" viewBox="0 0 32 32">
<title>bluetooth-connected-regular</title>
<path d="M13.339 12.811v-7.807c0-0.861 1.003-1.299 1.633-0.773l0.101 0.096 6.283 6.805c0.164 0.178 0.265 0.416 0.265 0.678 0 0.259-0.098 0.494-0.259 0.672l0.001-0.001-0.101 0.097-4.103 3.419 4.103 3.421c0.22 0.185 0.36 0.46 0.36 0.768 0 0.212-0.066 0.409-0.179 0.571l0.002-0.003-0.088 0.111-6.281 6.808c-0.183 0.199-0.445 0.323-0.736 0.323-0.504 0-0.92-0.372-0.99-0.857l-0.001-0.005-0.009-0.139v-7.817l-1.493 1.245c-0.172 0.144-0.395 0.231-0.639 0.231-0.552 0-1-0.448-1-1 0-0.255 0.096-0.488 0.253-0.665l-0.001 0.001 0.107-0.103 2.773-2.312v-1.16l-2.773-2.315c-0.221-0.185-0.361-0.46-0.361-0.769 0-0.552 0.448-1 1-1 0.193 0 0.372 0.054 0.525 0.149l-0.004-0.002 0.12 0.087 1.493 1.245zM15.597 17.299l-0.259 0.213v6.925l3.835-4.156-3.576-2.983zM22.667 14.667c0.736 0 1.333 0.597 1.333 1.333s-0.597 1.333-1.333 1.333v0c-0.736 0-1.333-0.597-1.333-1.333s0.597-1.333 1.333-1.333v0zM8 14.667c0.736 0 1.333 0.597 1.333 1.333s-0.597 1.333-1.333 1.333v0c-0.736 0-1.333-0.597-1.333-1.333s0.597-1.333 1.333-1.333v0zM15.339 7.563v6.916l0.259 0.216 3.576-2.979-3.835-4.153z"></path>
</svg>
