<!-- Generated by IcoMoon.io -->
<svg version="1.1" xmlns="http://www.w3.org/2000/svg" width="32" height="32" viewBox="0 0 32 32">
<title>bluetooth</title>
<path d="M14.785 2.365c0.105-0.049 0.228-0.078 0.358-0.078 0.213 0 0.409 0.078 0.559 0.207l-0.001-0.001 8 6.857c0.184 0.158 0.299 0.391 0.299 0.651 0 0.262-0.118 0.497-0.304 0.655l-0.001 0.001-6.362 5.344 6.362 5.344c0.187 0.158 0.306 0.393 0.306 0.656 0 0.26-0.116 0.493-0.299 0.65l-0.001 0.001-8 6.857c-0.149 0.128-0.344 0.206-0.558 0.206-0.473 0-0.857-0.384-0.857-0.857 0-0 0-0 0-0.001v0-10.297l-4.878 4.096c-0.151 0.137-0.353 0.221-0.574 0.221-0.473 0-0.857-0.384-0.857-0.857 0-0.274 0.128-0.517 0.328-0.674l0.002-0.001 5.979-5.024v-0.642l-5.979-5.021c-0.201-0.158-0.329-0.402-0.329-0.675 0-0.473 0.384-0.857 0.857-0.857 0.221 0 0.423 0.084 0.575 0.221l-0.001-0.001 4.878 4.095v-10.297c0-0.343 0.202-0.639 0.494-0.776l0.005-0.002zM16 17.119v9.874l5.817-4.986-5.817-4.888zM16 14.881l5.817-4.888-5.817-4.986v9.874z"></path>
</svg>
