<!-- Generated by IcoMoon.io -->
<svg version="1.1" xmlns="http://www.w3.org/2000/svg" width="32" height="32" viewBox="0 0 32 32">
<title>bluetooth-connected</title>
<path d="M13.339 12.811v-7.806c0-0.862 1.003-1.3 1.633-0.775l0.101 0.097 6.282 6.806c0.356 0.385 0.349 0.972 0.007 1.349l-0.102 0.097-4.102 3.418 4.103 3.422c0.403 0.336 0.472 0.918 0.183 1.336l-0.088 0.11-6.282 6.809c-0.585 0.634-1.619 0.275-1.726-0.538l-0.009-0.14v-7.816l-1.494 1.245c-0.424 0.354-1.055 0.296-1.408-0.128-0.321-0.386-0.303-0.942 0.022-1.305l0.107-0.103 2.774-2.311v-1.161l-2.775-2.314c-0.424-0.354-0.481-0.984-0.127-1.408 0.322-0.386 0.872-0.468 1.288-0.214l0.12 0.086 1.494 1.246zM15.597 17.298l-0.258 0.215v6.924l3.834-4.156-3.577-2.983zM22.667 14.667c0.736 0 1.333 0.597 1.333 1.333s-0.597 1.333-1.333 1.333-1.333-0.597-1.333-1.333c0-0.736 0.597-1.333 1.333-1.333zM8 14.667c0.736 0 1.333 0.597 1.333 1.333s-0.597 1.333-1.333 1.333-1.333-0.597-1.333-1.333c0-0.736 0.597-1.333 1.333-1.333zM15.339 7.562v6.917l0.258 0.215 3.575-2.979-3.834-4.153z"></path>
</svg>
