<!-- Generated by IcoMoon.io -->
<svg version="1.1" xmlns="http://www.w3.org/2000/svg" width="32" height="32" viewBox="0 0 32 32">
<title>blur</title>
<path d="M4 16c0-6.627 5.373-12 12-12 2.453 0 4.735 0.736 6.636 2h-6.636c-5.523 0-10 4.477-10 10s4.477 10 10 10v-2h8.944c-2.197 2.455-5.39 4-8.944 4-6.627 0-12-5.373-12-12z"></path>
<path d="M24.3 7.333h-8.3v2h9.979c-0.487-0.727-1.050-1.397-1.679-2z"></path>
<path d="M16 10.667h10.753c0.316 0.637 0.578 1.305 0.778 2h-11.531v-2z"></path>
<path d="M27.834 14h-11.834v2h12c0-0.681-0.057-1.35-0.166-2z"></path>
<path d="M16 17.333h11.927c-0.076 0.686-0.209 1.354-0.396 2h-11.531v-2z"></path>
<path d="M27.059 20.667h-11.059v2h9.979c0.42-0.627 0.782-1.297 1.079-2z"></path>
</svg>
