<!-- Generated by IcoMoon.io -->
<svg version="1.1" xmlns="http://www.w3.org/2000/svg" width="32" height="32" viewBox="0 0 32 32">
<title>blur-regular</title>
<path d="M3.429 16c0-6.943 5.629-12.571 12.571-12.571 2.313 0 4.48 0.625 6.342 1.714h-6.342c-5.996 0-10.857 4.861-10.857 10.857s4.861 10.857 10.857 10.857v0-0.571h7.23c-2.007 1.43-4.508 2.286-7.21 2.286-0.007 0-0.014 0-0.021-0h0.001c-6.943 0-12.571-5.629-12.571-12.571zM23.981 6.286c0.625 0.514 1.201 1.089 1.718 1.714h-9.698v-1.714h7.981zM27.474 10.857c-0.301-0.665-0.613-1.227-0.965-1.761l0.029 0.047h-10.538v1.714h11.474zM27.922 12c0.185 0.555 0.334 1.128 0.442 1.714h-12.365v-1.714h11.921zM28.571 16c0-0.385-0.017-0.766-0.051-1.143h-12.52v1.714h12.559c0.008-0.19 0.013-0.379 0.013-0.571zM28.456 17.714c-0.080 0.585-0.2 1.158-0.358 1.714h-12.098v-1.714h12.456zM26.89 22.286c0.315-0.546 0.592-1.12 0.824-1.714h-11.714v1.714h10.889zM26.143 23.429c-0.453 0.617-0.96 1.191-1.514 1.714h-8.629v-1.714h10.143z"></path>
</svg>
