<!-- Generated by IcoMoon.io -->
<svg version="1.1" xmlns="http://www.w3.org/2000/svg" width="32" height="32" viewBox="0 0 32 32">
<title>board-heart-regular</title>
<path d="M28.661 7.419c-0.134-2.285-2.019-4.088-4.326-4.088-0 0-0 0-0 0h-16c-0 0-0.001 0-0.001 0-2.393 0-4.333 1.94-4.333 4.333v0 16.005l0.007 0.245c0.134 2.285 2.019 4.088 4.326 4.088 0 0 0 0 0 0h9.488l-1.935-2.003h-0.553v0.001h-7c-0 0-0 0-0.001 0-1.213 0-2.209-0.925-2.323-2.108l-0.001-0.009-0.009-0.215v-11.004h9.333v3.565c0.56-0.518 1.225-0.931 1.959-1.203l0.041-0.013v-9.685l7.001 0.001c0 0 0 0 0 0 1.214 0 2.211 0.926 2.323 2.111l0.001 0.009 0.009 0.213v7.040c0.743 0.086 1.419 0.298 2.033 0.615l-0.033-0.015v-7.64l-0.007-0.245zM8.335 5.331h6.999v5.333l-9.333 0.003v-3c0-0 0-0.001 0-0.001 0-1.222 0.939-2.224 2.134-2.325l0.009-0.001 0.192-0.008zM29.303 17.412c1.819 1.883 1.819 4.936 0 6.819l-5.923 6.131c-0.18 0.188-0.433 0.305-0.713 0.305s-0.533-0.117-0.713-0.305l-0-0-5.923-6.131c-0.261-0.27-0.492-0.572-0.685-0.899l-0.012-0.022c-0.419-0.714-0.667-1.572-0.667-2.488s0.248-1.774 0.68-2.511l-0.013 0.023c0.191-0.328 0.424-0.637 0.697-0.92 0.829-0.871 1.998-1.413 3.293-1.413s2.464 0.542 3.292 1.411l0.002 0.002 0.049 0.049 0.048-0.051c0.831-0.87 2-1.411 3.296-1.411 0.231 0 0.459 0.017 0.681 0.051l-0.025-0.003c0.761 0.115 1.439 0.403 2.014 0.822l-0.013-0.009c0.223 0.161 0.436 0.345 0.635 0.551z"></path>
</svg>
