<!-- Generated by IcoMoon.io -->
<svg version="1.1" xmlns="http://www.w3.org/2000/svg" width="32" height="32" viewBox="0 0 32 32">
<title>board-games</title>
<path d="M21.6 4.8c-0 0-0 0-0.001 0-1.767 0-3.2 1.433-3.2 3.2 0 0.227 0.024 0.448 0.068 0.661l-0.004-0.021c0.011 0.049 0.017 0.106 0.017 0.164 0 0.442-0.358 0.8-0.8 0.8-0.029 0-0.057-0.002-0.084-0.004l0.003 0c-0.528 0-1.027 0.128-1.466 0.355-0.257-0.51-0.553-0.949-0.898-1.345l0.007 0.008c0.45-0.259 0.973-0.452 1.53-0.548l0.028-0.004v-0.066c0-2.651 2.149-4.8 4.8-4.8s4.8 2.149 4.8 4.8v0l-0.002 0.066c2.274 0.406 3.979 2.368 3.979 4.729 0 2.651-2.149 4.8-4.8 4.8-0.354 0-0.699-0.038-1.031-0.111l0.032 0.006 0.352 1.451c0.050 0.198 0.079 0.425 0.079 0.659 0 1.546-1.254 2.8-2.8 2.8-0.001 0-0.001 0-0.002 0h-1.219c-1.546-0-2.799-1.254-2.799-2.8 0-0.235 0.029-0.463 0.084-0.682l-0.004 0.019 0.72-2.963c0.088-0.354 0.403-0.611 0.778-0.611 0.442 0 0.8 0.358 0.8 0.8 0 0.067-0.008 0.132-0.024 0.194l0.001-0.006-0.72 2.965c-0.022 0.085-0.034 0.183-0.034 0.283 0 0.662 0.537 1.199 1.199 1.2h1.219c0.001 0 0.001 0 0.002 0 0.663 0 1.2-0.537 1.2-1.2 0-0.101-0.012-0.198-0.036-0.291l0.002 0.008-0.72-2.966c-0.014-0.056-0.022-0.12-0.022-0.187 0-0.442 0.358-0.8 0.8-0.8 0.161 0 0.311 0.048 0.436 0.129l-0.003-0.002c0.489 0.319 1.088 0.508 1.73 0.508 1.767 0 3.2-1.433 3.2-3.2s-1.433-3.2-3.2-3.2c-0.022 0-0.043 0-0.065 0.001l0.003-0c-0.005 0-0.011 0-0.016 0-0.442 0-0.8-0.358-0.8-0.8 0-0.057 0.006-0.112 0.017-0.165l-0.001 0.005c0.041-0.192 0.065-0.413 0.065-0.64 0-1.767-1.433-3.2-3.2-3.2-0 0-0 0-0.001 0h0zM7.2 12.8c0-1.767 1.433-3.2 3.2-3.2s3.2 1.433 3.2 3.2c0 0.724-0.24 1.392-0.646 1.928l0.006-0.008c-0.1 0.132-0.16 0.299-0.16 0.48 0 0.442 0.358 0.8 0.8 0.8v0h0.8c0.442 0 0.8 0.358 0.8 0.8s-0.358 0.8-0.8 0.8v0h-1.771c-0.442 0-0.799 0.358-0.799 0.8 0 0.034 0.002 0.067 0.006 0.1l-0-0.004c0.483 3.952 2.574 6.221 3.744 7.2 0.28 0.234 0.421 0.528 0.421 0.782 0 0.398-0.323 0.722-0.722 0.722h-9.758c-0.398-0.001-0.72-0.324-0.72-0.722 0 0 0 0 0 0v0c0-0.256 0.141-0.549 0.419-0.782 1.171-0.979 3.264-3.248 3.746-7.2 0.004-0.029 0.006-0.062 0.006-0.096 0-0.442-0.358-0.8-0.799-0.8h-1.771c-0.442 0-0.8-0.358-0.8-0.8s0.358-0.8 0.8-0.8v0h0.8c0.442 0 0.8-0.358 0.8-0.8 0-0.181-0.060-0.348-0.161-0.482l0.001 0.002c-0.399-0.526-0.64-1.192-0.64-1.914 0-0.002 0-0.004 0-0.006v0zM10.4 8c-0 0-0.001 0-0.001 0-2.651 0-4.8 2.149-4.8 4.8 0 0.594 0.108 1.163 0.305 1.688l-0.011-0.033c-1.089 0.242-1.892 1.2-1.892 2.346 0 1.325 1.074 2.399 2.399 2.4h0.832c-0.595 2.877-2.165 4.538-3.040 5.269-0.554 0.464-0.992 1.178-0.992 2.010 0 1.282 1.040 2.322 2.322 2.322h9.758c1.28 0 2.32-1.040 2.32-2.322 0-0.832-0.438-1.546-0.992-2.010-0.875-0.731-2.445-2.392-3.040-5.269h0.832c1.325-0 2.399-1.075 2.399-2.4 0-1.145-0.803-2.104-1.876-2.343l-0.016-0.003c0.186-0.492 0.294-1.061 0.294-1.654 0-2.651-2.149-4.8-4.8-4.8-0 0-0.001 0-0.001 0h0z"></path>
</svg>
