<!-- Generated by IcoMoon.io -->
<svg version="1.1" xmlns="http://www.w3.org/2000/svg" width="32" height="32" viewBox="0 0 32 32">
<title>board</title>
<path d="M24.335 3.331c2.311 0 4.199 1.808 4.327 4.087l0.007 0.246-0.001 16.005c-0 2.393-1.94 4.333-4.333 4.333h-16.001c-2.311 0-4.199-1.808-4.327-4.087l-0.007-0.246 0.001-16.005c0-2.393 1.94-4.333 4.333-4.333h16.001zM15.333 12.664l-9.333 0.001 0 11.004 0.010 0.214c0.108 1.188 1.107 2.119 2.324 2.119l7-0.001v-13.337zM26.667 20.664l-9.333 0.001v5.336l7.001 0.001c1.289 0 2.333-1.045 2.334-2.333l-0.001-3.005zM24.335 5.331l-7.002-0.001v13.336l9.333-0.001 0.002-11-0.010-0.214c-0.108-1.188-1.107-2.119-2.324-2.119zM15.333 5.329l-6.999 0.001-0.191 0.008c-1.199 0.097-2.142 1.101-2.142 2.326l-0.001 3.001 9.333-0.001v-5.335z"></path>
</svg>
