<!-- Generated by IcoMoon.io -->
<svg version="1.1" xmlns="http://www.w3.org/2000/svg" width="32" height="32" viewBox="0 0 32 32">
<title>board-split</title>
<path d="M4 8.333c0-2.393 1.94-4.333 4.333-4.333h15.333c2.393 0 4.333 1.94 4.333 4.333v15.333c0 2.393-1.94 4.333-4.333 4.333h-15.333c-2.393 0-4.333-1.94-4.333-4.333v-15.333zM6 16.667v7c0 1.289 1.045 2.333 2.333 2.333h10.333v-9.333h-12.667zM18.667 14.667v-8.667h-10.333c-1.289 0-2.333 1.045-2.333 2.333v6.333h12.667zM26 12.667h-5.333v6.667h5.333v-6.667zM26 21.333h-5.333v4.667h3c1.289 0 2.333-1.045 2.333-2.333v-2.333zM26 10.667v-2.333c0-1.289-1.045-2.333-2.333-2.333h-3v4.667h5.333z"></path>
</svg>
