<!-- Generated by IcoMoon.io -->
<svg version="1.1" xmlns="http://www.w3.org/2000/svg" width="32" height="32" viewBox="0 0 32 32">
<title>book-question-mark-rtl</title>
<path d="M19.333 11.666c-0.545 0-0.987-0.435-1-0.977l-0.001-0.007c-0.002-0.017-0.007-0.052-0.018-0.098-0.023-0.094-0.069-0.219-0.16-0.342-0.145-0.195-0.557-0.597-1.804-0.576-0.733 0.013-1.276 0.315-1.572 0.682-0.284 0.353-0.377 0.798-0.184 1.28 0.156 0.389 0.499 0.587 1.221 0.905l0.051 0.023c0.295 0.13 0.714 0.314 1.048 0.581 0.415 0.333 0.751 0.831 0.751 1.529v1c-0 0.552-0.448 1-1 1s-1-0.449-1-1.001v-0.965l-0.002-0.001c-0.107-0.085-0.285-0.171-0.656-0.335l-0.068-0.030c-0.628-0.276-1.72-0.755-2.203-1.962-0.474-1.184-0.233-2.389 0.483-3.277 0.704-0.874 1.828-1.405 3.095-1.427 1.753-0.030 2.841 0.568 3.446 1.385 0.284 0.383 0.425 0.768 0.496 1.057 0.035 0.145 0.054 0.271 0.064 0.365 0.005 0.048 0.008 0.088 0.009 0.12 0.001 0.020 0.001 0.039 0.002 0.059l0 0.007v0.005c0 0 0 1.001-1 1.001zM15.333 19.333c0 0.736 0.597 1.333 1.333 1.333s1.333-0.597 1.333-1.333c0-0.736-0.597-1.333-1.333-1.333s-1.333 0.597-1.333 1.333zM8.667 2.667c-1.841 0-3.333 1.492-3.333 3.333v20c0 1.841 1.492 3.333 3.333 3.333h17.667c0.552 0 1-0.448 1-1s-0.448-1-1-1h-17.667c-0.736 0-1.333-0.597-1.333-1.333h19c0.552 0 1-0.448 1-1v-19c0-1.841-1.492-3.333-3.333-3.333h-15.333zM7.333 24v-18c0-0.736 0.597-1.333 1.333-1.333h15.333c0.736 0 1.333 0.597 1.333 1.333v18h-18z"></path>
</svg>
