<!-- Generated by IcoMoon.io -->
<svg version="1.1" xmlns="http://www.w3.org/2000/svg" width="32" height="32" viewBox="0 0 32 32">
<title>book-theta</title>
<path d="M16.667 22c2.945 0 5.333-3.283 5.333-7.333s-2.388-7.333-5.333-7.333-5.333 3.283-5.333 7.333c0 4.050 2.388 7.333 5.333 7.333zM18.82 18.676c-0.692 0.952-1.479 1.324-2.154 1.324s-1.461-0.372-2.154-1.324c-0.496-0.682-0.888-1.601-1.069-2.676h6.446c-0.182 1.074-0.573 1.994-1.069 2.676zM18.82 10.658c0.596 0.819 1.041 1.981 1.153 3.342h-6.613c0.111-1.361 0.557-2.523 1.153-3.342 0.692-0.952 1.479-1.324 2.154-1.324s1.461 0.372 2.154 1.324z"></path>
<path d="M8.667 2.667c-1.841 0-3.333 1.492-3.333 3.333v20c0 1.841 1.492 3.333 3.333 3.333h17.667c0.552 0 1-0.448 1-1s-0.448-1-1-1h-17.667c-0.736 0-1.333-0.597-1.333-1.333h19c0.552 0 1-0.448 1-1v-19c0-1.841-1.492-3.333-3.333-3.333h-15.333zM25.333 24h-18v-18c0-0.736 0.597-1.333 1.333-1.333h15.333c0.736 0 1.333 0.597 1.333 1.333v18z"></path>
</svg>
