<!-- Generated by IcoMoon.io -->
<svg version="1.1" xmlns="http://www.w3.org/2000/svg" width="32" height="32" viewBox="0 0 32 32">
<title>bookmark-add</title>
<path d="M30.667 8.667c0-4.050-3.283-7.333-7.333-7.333s-7.333 3.283-7.333 7.333v0c0 4.050 3.283 7.333 7.333 7.333s7.333-3.283 7.333-7.333v0zM24 9.333v3.339c0 0.368-0.298 0.667-0.667 0.667s-0.667-0.298-0.667-0.667v0-3.339h-3.34c-0.368 0-0.667-0.298-0.667-0.667s0.298-0.667 0.667-0.667v0h3.34v-3.333c0-0.368 0.298-0.667 0.667-0.667s0.667 0.298 0.667 0.667v0 3.333h3.328c0.368 0 0.667 0.298 0.667 0.667s-0.298 0.667-0.667 0.667v0h-3.328zM23.333 26.376v-9.043c0.002 0 0.003 0 0.005 0 0.708 0 1.396-0.085 2.054-0.244l-0.059 0.012v11.227c-0.001 0.552-0.448 0.999-1 0.999-0.219 0-0.422-0.071-0.587-0.19l0.003 0.002-7.747-5.575-7.749 5.573c-0.162 0.118-0.365 0.188-0.584 0.188-0.552 0-0.999-0.447-1-0.999v-19.993c0-2.393 1.94-4.333 4.333-4.333h5.027c-0.375 0.575-0.695 1.237-0.928 1.939l-0.018 0.061h-4.081c-1.289 0-2.333 1.045-2.333 2.333v0 18.044l6.748-4.856c0.162-0.118 0.365-0.188 0.584-0.188s0.422 0.071 0.587 0.19l-0.003-0.002 6.748 4.856z"></path>
</svg>
