<!-- Generated by IcoMoon.io -->
<svg version="1.1" xmlns="http://www.w3.org/2000/svg" width="32" height="32" viewBox="0 0 32 32">
<title>book-globe</title>
<path d="M16.052 8.022c-3.289 0.23-5.886 2.97-5.886 6.318 0 3.498 2.836 6.333 6.333 6.333s6.333-2.836 6.333-6.333c0-3.498-2.835-6.333-6.333-6.333-0.004 0-0.009 0-0.013 0-0.050-0.004-0.101-0.007-0.153-0.007-0.097 0-0.191 0.008-0.281 0.022zM13.891 10.47c-0.301 0.902-0.491 2.007-0.543 3.197h-1.466c0.192-1.329 0.944-2.477 2.010-3.197zM13.392 15.667c0.084 0.942 0.258 1.813 0.505 2.547-0.889-0.599-1.561-1.495-1.872-2.547h1.367zM18.679 18.467c0.001-0.004 0.003-0.008 0.004-0.012 0.293-0.782 0.497-1.741 0.591-2.789h1.701c-0.359 1.213-1.197 2.219-2.296 2.801zM17.265 15.667c-0.086 0.823-0.249 1.539-0.454 2.087-0.156 0.417-0.318 0.685-0.448 0.831-0.011 0.012-0.021 0.023-0.030 0.033-0.009-0.010-0.019-0.020-0.030-0.033-0.129-0.146-0.291-0.414-0.448-0.831-0.205-0.548-0.368-1.263-0.454-2.087h1.864zM17.317 13.667h-1.967c0.056-1.104 0.246-2.063 0.505-2.753 0.156-0.417 0.318-0.685 0.448-0.831 0.011-0.012 0.021-0.023 0.030-0.033 0.009 0.009 0.019 0.020 0.030 0.033 0.129 0.146 0.291 0.414 0.448 0.831 0.259 0.691 0.45 1.649 0.505 2.753zM19.319 13.667c-0.057-1.304-0.28-2.507-0.633-3.451 1.287 0.684 2.216 1.952 2.433 3.451h-1.8zM16.41 9.986c0.001-0 0 0 0 0s-0.002 0.001-0.005 0.003c0.002-0.001 0.005-0.002 0.005-0.003zM16.259 9.987c0.001 0 0.002 0.001 0.003 0.002-0.004-0.002-0.005-0.003-0.005-0.003s0.001 0.001 0.002 0.001z"></path>
<path d="M8.667 2.667c-1.841 0-3.333 1.492-3.333 3.333v20c0 1.841 1.492 3.333 3.333 3.333h17.667c0.552 0 1-0.448 1-1s-0.448-1-1-1h-17.667c-0.736 0-1.333-0.597-1.333-1.333h19c0.552 0 1-0.448 1-1v-19c0-1.841-1.492-3.333-3.333-3.333h-15.333zM25.333 6v18h-18v-18c0-0.736 0.597-1.333 1.333-1.333h15.333c0.736 0 1.333 0.597 1.333 1.333z"></path>
</svg>
