<!-- Generated by IcoMoon.io -->
<svg version="1.1" xmlns="http://www.w3.org/2000/svg" width="32" height="32" viewBox="0 0 32 32">
<title>book-search-regular</title>
<path d="M19.759 15.727c0.525-0.775 0.839-1.732 0.839-2.761 0-2.742-2.223-4.965-4.965-4.965s-4.965 2.223-4.965 4.965c0 2.742 2.223 4.965 4.965 4.965 1.030 0 1.986-0.313 2.779-0.85l-0.017 0.011 3.301 3.3 0.089 0.077 0.011 0.008c0.157 0.115 0.354 0.184 0.567 0.184 0.533 0 0.965-0.432 0.965-0.965 0-0.263-0.105-0.502-0.276-0.676l-3.293-3.293zM15.632 9.929c1.676 0 3.035 1.359 3.035 3.035s-1.359 3.035-3.035 3.035v0c-1.676 0-3.035-1.359-3.035-3.035s1.359-3.035 3.035-3.035v0zM8.667 2.667c-1.841 0-3.333 1.492-3.333 3.333v0 20c0 1.841 1.492 3.333 3.333 3.333v0h17.667c0.552 0 1-0.448 1-1s-0.448-1-1-1v0h-17.667c-0.736 0-1.333-0.597-1.333-1.333v0h19c0.552 0 1-0.448 1-1v0-19c0-1.841-1.492-3.333-3.333-3.333v0h-15.333zM25.333 24h-18v-18c0-0.736 0.597-1.333 1.333-1.333v0h15.333c0.736 0 1.333 0.597 1.333 1.333v0 18z"></path>
</svg>
