<!-- Generated by IcoMoon.io -->
<svg version="1.1" xmlns="http://www.w3.org/2000/svg" width="32" height="32" viewBox="0 0 32 32">
<title>book-template</title>
<path d="M3.2 5.6c0-2.209 1.791-4 4-4v0h14.4c2.209 0 4 1.791 4 4v0 4h-1.6v-4c0-1.325-1.075-2.4-2.4-2.4v0h-14.4c-1.325 0-2.4 1.075-2.4 2.4v0 14.4c0 1.325 1.075 2.4 2.4 2.4v0h5.6v1.6h-5.6c-2.209 0-4-1.791-4-4v0-14.4zM8.8 9.6h8.8c-1.422 0-2.699 0.618-3.578 1.6h-5.222c-0.442 0-0.8-0.358-0.8-0.8s0.358-0.8 0.8-0.8v0zM13.072 12.8h-4.272c-0.442 0-0.8 0.358-0.8 0.8s0.358 0.8 0.8 0.8v0h4c0-0.56 0.096-1.099 0.272-1.6zM8.8 6.4c-0.442 0-0.8 0.358-0.8 0.8s0.358 0.8 0.8 0.8v0h11.2c0.442 0 0.8-0.358 0.8-0.8s-0.358-0.8-0.8-0.8v0h-11.2zM28.8 14.4c0-1.767-1.433-3.2-3.2-3.2v0h-8c-1.767 0-3.2 1.433-3.2 3.2v0 12.8c0 1.767 1.433 3.2 3.2 3.2v0h10.4c0.442 0 0.8-0.358 0.8-0.8s-0.358-0.8-0.8-0.8v0h-10.4c-0.884 0-1.6-0.716-1.6-1.6v0-0.005h12c0.442 0 0.8-0.358 0.8-0.8v0-11.995zM16 25.595v-11.195c0-0.884 0.716-1.6 1.6-1.6v0h8c0.884 0 1.6 0.716 1.6 1.6v0 11.195h-11.2z"></path>
</svg>
