<!-- Generated by IcoMoon.io -->
<svg version="1.1" xmlns="http://www.w3.org/2000/svg" width="32" height="32" viewBox="0 0 32 32">
<title>book-question-mark</title>
<path d="M14.666 10.69c-0.012 0.541-0.455 0.977-1 0.977-1 0-1-1.001-1-1.001v-0.005l0-0.007c0-0.020 0.001-0.039 0.002-0.059 0.002-0.032 0.004-0.073 0.009-0.12 0.010-0.095 0.029-0.22 0.064-0.365 0.071-0.289 0.212-0.674 0.496-1.057 0.605-0.818 1.693-1.416 3.446-1.385 1.266 0.022 2.391 0.553 3.095 1.427 0.716 0.889 0.957 2.093 0.483 3.277-0.483 1.207-1.575 1.687-2.203 1.962l-0.068 0.030c-0.371 0.164-0.549 0.249-0.656 0.335l-0.002 0.001v0.965c0 0.552-0.448 1.001-1 1.001s-1-0.448-1-1v-1c0-0.697 0.336-1.196 0.751-1.529 0.333-0.267 0.752-0.451 1.048-0.581l0.051-0.023c0.722-0.319 1.066-0.516 1.221-0.905 0.193-0.482 0.1-0.927-0.184-1.28-0.296-0.367-0.838-0.669-1.572-0.682-1.247-0.022-1.659 0.38-1.804 0.576-0.091 0.123-0.137 0.248-0.16 0.342-0.011 0.046-0.016 0.081-0.018 0.098l-0.001 0.007z"></path>
<path d="M16.333 20.667c0.736 0 1.333-0.597 1.333-1.333s-0.597-1.333-1.333-1.333c-0.736 0-1.333 0.597-1.333 1.333s0.597 1.333 1.333 1.333z"></path>
<path d="M5.333 6c0-1.841 1.492-3.333 3.333-3.333h15.333c1.841 0 3.333 1.492 3.333 3.333v19c0 0.552-0.448 1-1 1h-19c0 0.736 0.597 1.333 1.333 1.333h17.667c0.552 0 1 0.448 1 1s-0.448 1-1 1h-17.667c-1.841 0-3.333-1.492-3.333-3.333v-20zM7.333 6v18h18v-18c0-0.736-0.597-1.333-1.333-1.333h-15.333c-0.736 0-1.333 0.597-1.333 1.333z"></path>
</svg>
