<!-- Generated by IcoMoon.io -->
<svg version="1.1" xmlns="http://www.w3.org/2000/svg" width="32" height="32" viewBox="0 0 32 32">
<title>bookmark-regular</title>
<path d="M6 7.2c0-2.32 1.88-4.2 4.2-4.2v0h11.6c2.32 0 4.2 1.88 4.2 4.2v20.8c-0.001 0.552-0.448 0.999-1 0.999-0.22 0-0.423-0.071-0.588-0.191l0.003 0.002-8.415-6.075-8.415 6.075c-0.162 0.118-0.365 0.189-0.585 0.189-0.552 0-0.999-0.447-1-0.999v-20.8zM10.2 5c-1.215 0-2.2 0.985-2.2 2.2v0 18.844l7.415-5.355c0.162-0.118 0.365-0.189 0.585-0.189s0.423 0.071 0.588 0.191l-0.003-0.002 7.415 5.355v-18.844c0-1.215-0.985-2.2-2.2-2.2v0h-11.6z"></path>
</svg>
