<!-- Generated by IcoMoon.io -->
<svg version="1.1" xmlns="http://www.w3.org/2000/svg" width="32" height="32" viewBox="0 0 32 32">
<title>book-toolbox-regular</title>
<path d="M18.667 5.333h-0.667c-1.105 0-2 0.895-2 2v0 2h3.333v-0.333c0-0.552 0.448-1 1-1s1 0.448 1 1v0 0.333h4v-0.333c0-0.552 0.448-1 1-1s1 0.448 1 1v0 0.333h3.333v-2c0-1.105-0.895-2-2-2v0h-0.667v-1.333c0-1.289-1.045-2.333-2.333-2.333v0h-4.667c-1.289 0-2.333 1.045-2.333 2.333v0 1.333zM20.667 4c0-0.184 0.149-0.333 0.333-0.333v0h4.667c0.184 0 0.333 0.149 0.333 0.333v0 1.333h-5.333v-1.333zM16 14v-2.667h3.333v1c0 0.552 0.448 1 1 1s1-0.448 1-1v0-1h4v1c0 0.552 0.448 1 1 1s1-0.448 1-1v0-1h3.333v2.667c0 1.105-0.895 2-2 2v0h-10.667c-1.105 0-2-0.895-2-2v0zM17.333 4.067c-0.493 0.1-0.947 0.309-1.333 0.6h-7.333c-0.736 0-1.333 0.597-1.333 1.333v0 18h18v-6.667h2v7.667c0 0.552-0.448 1-1 1v0h-19c0 0.736 0.597 1.333 1.333 1.333v0h17.667c0.552 0 1 0.448 1 1s-0.448 1-1 1v0h-17.667c-1.841 0-3.333-1.492-3.333-3.333v0-20c0-1.841 1.492-3.333 3.333-3.333v0h8.917c-0.163 0.413-0.251 0.863-0.251 1.333v0.067z"></path>
</svg>
