<!-- Generated by IcoMoon.io -->
<svg version="1.1" xmlns="http://www.w3.org/2000/svg" width="32" height="32" viewBox="0 0 32 32">
<title>book-coins</title>
<path d="M13.597 9.952c0.829-0.396 1.915-0.619 3.070-0.619s2.241 0.222 3.070 0.619c0.768 0.367 1.597 1.037 1.597 2.048s-0.829 1.681-1.597 2.048c-0.829 0.396-1.915 0.619-3.070 0.619s-2.241-0.222-3.070-0.619c-0.768-0.367-1.597-1.037-1.597-2.048s0.829-1.681 1.597-2.048zM14.316 11.455c-0.62 0.296-0.649 0.545-0.649 0.545s0.029 0.248 0.649 0.545c0.559 0.267 1.389 0.455 2.351 0.455s1.792-0.188 2.351-0.455c0.62-0.296 0.649-0.545 0.649-0.545s-0.029-0.248-0.649-0.545c-0.559-0.267-1.389-0.455-2.351-0.455s-1.792 0.188-2.351 0.455z"></path>
<path d="M16.667 16c1.881 0 3.56-0.577 4.66-1.48 0.005 0.049 0.007 0.098 0.007 0.147 0 1.473-2.089 2.667-4.667 2.667s-4.667-1.194-4.667-2.667c0-0.049 0.002-0.098 0.007-0.147 1.1 0.903 2.779 1.48 4.66 1.48z"></path>
<path d="M16.667 18.667c1.881 0 3.56-0.577 4.66-1.48 0.005 0.049 0.007 0.097 0.007 0.147 0 1.473-2.089 2.667-4.667 2.667s-4.667-1.194-4.667-2.667c0-0.049 0.002-0.098 0.007-0.147 1.1 0.903 2.779 1.48 4.66 1.48z"></path>
<path d="M8.667 2.667c-1.841 0-3.333 1.492-3.333 3.333v20c0 1.841 1.492 3.333 3.333 3.333h17.667c0.552 0 1-0.448 1-1s-0.448-1-1-1h-17.667c-0.736 0-1.333-0.597-1.333-1.333h19c0.552 0 1-0.448 1-1v-19c0-1.841-1.492-3.333-3.333-3.333h-15.333zM25.333 24h-18v-18c0-0.736 0.597-1.333 1.333-1.333h15.333c0.736 0 1.333 0.597 1.333 1.333v18z"></path>
</svg>
