<!-- Generated by IcoMoon.io -->
<svg version="1.1" xmlns="http://www.w3.org/2000/svg" width="32" height="32" viewBox="0 0 32 32">
<title>bookmark-search</title>
<path d="M25.476 12.224c-0.966 0.694-2.173 1.11-3.477 1.11-3.314 0-6-2.686-6-6s2.686-6 6-6c3.314 0 6 2.686 6 6 0 1.304-0.416 2.511-1.122 3.495l0.012-0.018 3.484 3.483c0.196 0.183 0.318 0.443 0.318 0.732 0 0.552-0.448 1-1 1-0.289 0-0.549-0.122-0.731-0.318l-0.001-0.001-3.484-3.483zM26 7.333c0-2.209-1.791-4-4-4s-4 1.791-4 4v0c0 2.209 1.791 4 4 4s4-1.791 4-4v0zM25.333 13.968v14.359c0 0 0 0 0 0 0 0.552-0.448 1-1 1-0.219 0-0.422-0.071-0.587-0.19l0.003 0.002-7.747-5.575-7.749 5.573c-0.162 0.118-0.365 0.188-0.584 0.188-0.552 0-0.999-0.447-1-0.999v-19.995c0-2.393 1.94-4.333 4.333-4.333v0h4.464c-0.317 0.621-0.549 1.293-0.68 2h-3.784c-1.289 0-2.333 1.045-2.333 2.333v0 18.043l6.748-4.853c0.162-0.118 0.365-0.188 0.584-0.188s0.422 0.071 0.587 0.19l-0.003-0.002 6.748 4.853v-11.828c0.727-0.136 1.375-0.36 1.975-0.664l-0.041 0.019 0.067 0.067z"></path>
</svg>
