<!-- Generated by IcoMoon.io -->
<svg version="1.1" xmlns="http://www.w3.org/2000/svg" width="32" height="32" viewBox="0 0 32 32">
<title>bookmark-add</title>
<path d="M30.667 8.667c0-4.050-3.283-7.333-7.333-7.333s-7.333 3.283-7.333 7.333c0 4.050 3.283 7.333 7.333 7.333s7.333-3.283 7.333-7.333zM24.001 9.333l0.001 3.338c0 0.368-0.298 0.667-0.667 0.667s-0.667-0.298-0.667-0.667l-0.001-3.338h-3.34c-0.368 0-0.666-0.298-0.666-0.667s0.298-0.667 0.666-0.667h3.34l-0.001-3.334c0-0.368 0.299-0.667 0.667-0.667s0.667 0.298 0.667 0.667l0.001 3.334h3.328c0.368 0 0.666 0.298 0.666 0.667s-0.298 0.667-0.666 0.667h-3.328zM23.334 26.375v-9.042c0.688-0 1.358-0.080 2-0.232v11.226c0 0.815-0.922 1.288-1.584 0.812l-7.748-5.575-7.748 5.575c-0.662 0.476-1.584 0.003-1.584-0.812v-19.995c0-2.393 1.94-4.333 4.333-4.333h5.027c-0.396 0.618-0.715 1.289-0.945 2h-4.082c-1.289 0-2.333 1.045-2.333 2.333v18.043l6.748-4.855c0.349-0.251 0.819-0.251 1.168 0l6.748 4.855z"></path>
</svg>
