<!-- Generated by IcoMoon.io -->
<svg version="1.1" xmlns="http://www.w3.org/2000/svg" width="32" height="32" viewBox="0 0 32 32">
<title>book-open-microphone-regular</title>
<path d="M13.333 5.333c1.068 0 2.025 0.479 2.667 1.233 0.645-0.757 1.598-1.233 2.663-1.233 0.001 0 0.002 0 0.003 0h8.833c1.013 0 1.833 0.821 1.833 1.833v0 12.167c0-0.001 0-0.003 0-0.005 0-1.43-0.645-2.71-1.66-3.564l-0.007-0.006v-8.592c0-0.092-0.075-0.167-0.167-0.167v0h-8.833c-1.013 0-1.833 0.821-1.833 1.833v0 14.333c0 0.535 0.229 1.017 0.595 1.352 0.131 0.788 0.368 1.495 0.701 2.145l-0.019-0.041c-0.851-0.14-1.583-0.57-2.107-1.184l-0.004-0.005c-0.645 0.756-1.598 1.233-2.663 1.233-0.001 0-0.003 0-0.004 0h-8.833c-1.013 0-1.833-0.821-1.833-1.833v0-17.667c0-1.013 0.821-1.833 1.833-1.833v0h8.833zM15.167 23.167v-14.333c0-1.013-0.821-1.833-1.833-1.833v0h-8.833c-0.092 0-0.167 0.075-0.167 0.167v0 17.667c0 0.092 0.075 0.167 0.167 0.167h8.833c1.013 0 1.833-0.821 1.833-1.833v0zM18.901 25c-0.149-0.498-0.235-1.070-0.235-1.662 0-0.002 0-0.003 0-0.005v0c0-0.368 0.298-0.667 0.667-0.667s0.667 0.298 0.667 0.667v0c0 0.001 0 0.003 0 0.004 0 1.304 0.536 2.483 1.4 3.328l0.001 0.001c0.839 0.824 1.99 1.333 3.26 1.333 0.002 0 0.004 0 0.007 0h-0c0.002 0 0.004 0 0.007 0 1.404 0 2.662-0.621 3.515-1.604l0.005-0.006c0.708-0.811 1.14-1.88 1.14-3.050 0-0.003 0-0.005 0-0.008v0c0-0.368 0.298-0.667 0.667-0.667s0.667 0.298 0.667 0.667v0c0 0 0 0 0 0 0 3.079-2.319 5.616-5.306 5.96l-0.028 0.003v0.703c0 0.368-0.298 0.667-0.667 0.667s-0.667-0.298-0.667-0.667v0-0.703c-2.439-0.279-4.416-1.986-5.088-4.254l-0.011-0.042zM21.779 25c0.587 1.003 1.659 1.667 2.886 1.667 0 0 0.001 0 0.001 0h-0c0 0 0.001 0 0.001 0 1.84 0 3.332-1.492 3.332-3.332 0-0 0-0.001 0-0.001v0-4c0-1.841-1.492-3.333-3.333-3.333s-3.333 1.492-3.333 3.333v0 4c0 0.607 0.162 1.177 0.446 1.667z"></path>
</svg>
