<!-- Generated by IcoMoon.io -->
<svg version="1.1" xmlns="http://www.w3.org/2000/svg" width="32" height="32" viewBox="0 0 32 32">
<title>book-letter</title>
<path d="M16.667 8c-0.407 0-0.773 0.247-0.926 0.624l-4.333 10.667c-0.208 0.512 0.038 1.095 0.55 1.303s1.095-0.038 1.303-0.55l1.101-2.71h4.612l1.101 2.71c0.208 0.512 0.791 0.758 1.303 0.55s0.758-0.791 0.55-1.303l-4.333-10.667c-0.153-0.377-0.52-0.624-0.927-0.624zM15.173 15.333l1.493-3.676 1.494 3.676h-2.987z"></path>
<path d="M5.333 6c0-1.841 1.492-3.333 3.333-3.333h15.333c1.841 0 3.333 1.492 3.333 3.333v19c0 0.552-0.448 1-1 1h-19c0 0.736 0.597 1.333 1.333 1.333h17.667c0.552 0 1 0.448 1 1s-0.448 1-1 1h-17.667c-1.841 0-3.333-1.492-3.333-3.333v-20zM7.333 24h18v-18c0-0.736-0.597-1.333-1.333-1.333h-15.333c-0.736 0-1.333 0.597-1.333 1.333v18z"></path>
</svg>
