<!-- Generated by IcoMoon.io -->
<svg version="1.1" xmlns="http://www.w3.org/2000/svg" width="32" height="32" viewBox="0 0 32 32">
<title>book-theta-regular</title>
<path d="M16.667 22c2.947 0 5.333-3.283 5.333-7.333s-2.387-7.333-5.333-7.333-5.333 3.283-5.333 7.333 2.387 7.333 5.333 7.333zM18.82 18.676c-0.692 0.952-1.479 1.324-2.153 1.324s-1.461-0.373-2.153-1.324c-0.496-0.683-0.888-1.601-1.069-2.676h6.445c-0.181 1.075-0.573 1.993-1.069 2.676zM18.82 10.657c0.596 0.82 1.041 1.981 1.153 3.343h-6.613c0.112-1.361 0.557-2.523 1.153-3.343 0.692-0.951 1.479-1.324 2.153-1.324s1.461 0.373 2.153 1.324zM8.667 2.667c-1.841 0-3.333 1.492-3.333 3.333v0 20c0 1.841 1.492 3.333 3.333 3.333v0h17.667c0.552 0 1-0.448 1-1s-0.448-1-1-1v0h-17.667c-0.736 0-1.333-0.597-1.333-1.333v0h19c0.552 0 1-0.448 1-1v0-19c0-1.841-1.492-3.333-3.333-3.333v0h-15.333zM25.333 24h-18v-18c0-0.736 0.597-1.333 1.333-1.333v0h15.333c0.736 0 1.333 0.597 1.333 1.333v0 18z"></path>
</svg>
