<!-- Generated by IcoMoon.io -->
<svg version="1.1" xmlns="http://www.w3.org/2000/svg" width="32" height="32" viewBox="0 0 32 32">
<title>book-open-globe</title>
<path d="M4.667 7.667c0-0.184 0.149-0.333 0.333-0.333v0h8.333c0.92 0 1.667 0.747 1.667 1.667v11.945c0.402-1.375 1.092-2.56 2.004-3.533l-0.004 0.005v-8.417c0-0.92 0.747-1.667 1.667-1.667h8.333c0.184 0 0.333 0.149 0.333 0.333v0 7.976c0.765 0.404 1.422 0.882 2.003 1.44l-0.003-0.003v-9.413c0-1.289-1.045-2.333-2.333-2.333v0h-8.333c-1.051 0-1.999 0.441-2.667 1.151-0.668-0.709-1.614-1.151-2.663-1.151-0.001 0-0.003 0-0.004 0h-8.333c-1.289 0-2.333 1.045-2.333 2.333v0 16.667c0 1.288 1.045 2.333 2.333 2.333h8.333c0.66 0 1.28-0.173 1.813-0.48-0.235-0.651-0.397-1.405-0.456-2.189l-0.002-0.029c-0.306 0.424-0.798 0.697-1.354 0.697-0.001 0-0.001 0-0.002 0h-8.333c-0.184 0-0.333-0.149-0.333-0.333v0-16.667z"></path>
<path d="M21.343 22.667c0.053-1.887 0.331-3.559 0.737-4.78 0.228-0.684 0.485-1.191 0.739-1.512 0.26-0.329 0.439-0.375 0.515-0.375s0.256 0.045 0.515 0.375c0.253 0.321 0.511 0.827 0.739 1.512 0.407 1.221 0.684 2.893 0.737 4.78h-3.981zM20.815 17.467c0.144-0.431 0.307-0.829 0.491-1.183-2.874 0.848-4.988 3.335-5.272 6.353l-0.002 0.029h3.979c0.053-2 0.347-3.821 0.805-5.2zM25.852 17.467c-0.152-0.463-0.318-0.854-0.512-1.228l0.021 0.045c2.875 0.848 4.989 3.334 5.274 6.353l0.002 0.029h-3.98c-0.053-2-0.347-3.821-0.805-5.2zM26.657 24h3.98c-0.287 3.048-2.401 5.535-5.224 6.37l-0.052 0.013c0.184-0.353 0.347-0.752 0.491-1.181 0.46-1.38 0.752-3.2 0.805-5.201zM23.848 30.292c-0.259 0.329-0.439 0.375-0.515 0.375s-0.255-0.045-0.515-0.375c-0.253-0.321-0.511-0.827-0.739-1.513-0.407-1.22-0.684-2.893-0.737-4.779h3.981c-0.053 1.887-0.331 3.559-0.737 4.779-0.228 0.685-0.485 1.192-0.739 1.513zM16.031 24c0.287 3.048 2.4 5.535 5.223 6.37l0.052 0.013c-0.172-0.328-0.338-0.719-0.473-1.124l-0.017-0.058c-0.461-1.38-0.753-3.2-0.807-5.201h-3.979z"></path>
</svg>
