<!-- Generated by IcoMoon.io -->
<svg version="1.1" xmlns="http://www.w3.org/2000/svg" width="32" height="32" viewBox="0 0 32 32">
<title>bookmark-off</title>
<path d="M4.374 2.96c-0.391-0.391-1.024-0.391-1.414-0s-0.391 1.024-0 1.414l3.717 3.717c-0.004 0.080-0.007 0.16-0.007 0.241v19.995c0 0.815 0.923 1.288 1.584 0.812l7.748-5.575 7.748 5.575c0.662 0.476 1.584 0.003 1.584-0.812v-1.577l2.291 2.291c0.391 0.391 1.024 0.391 1.414 0s0.391-1.024 0-1.414l-24.666-24.667zM23.335 24.749v1.626l-6.748-4.855c-0.349-0.251-0.819-0.251-1.168 0l-6.748 4.855v-16.291l14.665 14.665z"></path>
<path d="M23.335 8.332v10.76l2 2v-12.76c0-2.393-1.94-4.333-4.333-4.333h-9.998c-0.793 0-1.537 0.213-2.176 0.585l1.511 1.511c0.211-0.063 0.434-0.096 0.666-0.096h9.998c1.289 0 2.333 1.045 2.333 2.333z"></path>
</svg>
