<!-- Generated by IcoMoon.io -->
<svg version="1.1" xmlns="http://www.w3.org/2000/svg" width="32" height="32" viewBox="0 0 32 32">
<title>book-contacts</title>
<path d="M20.667 16.333c0-0.552-0.448-1-1-1h-6.667c-0.552 0-1 0.448-1 1v0.666c0 1.334 1.844 2.334 4.333 2.334s4.333-1 4.333-2.334v-0.666zM18.667 11.661c0-1.289-1.044-2.327-2.333-2.327s-2.333 1.038-2.333 2.327c0 1.289 1.044 2.334 2.333 2.334s2.333-1.045 2.333-2.334zM5.333 6c0-1.841 1.492-3.333 3.333-3.333h15.333c1.841 0 3.333 1.492 3.333 3.333v19c0 0.552-0.448 1-1 1h-19c0 0.736 0.597 1.333 1.333 1.333h17.667c0.552 0 1 0.448 1 1s-0.448 1-1 1h-17.667c-1.841 0-3.333-1.492-3.333-3.333v-20zM7.333 6v18h18v-18c0-0.736-0.597-1.333-1.333-1.333h-15.333c-0.736 0-1.333 0.597-1.333 1.333z"></path>
</svg>
