<!-- Generated by IcoMoon.io -->
<svg version="1.1" xmlns="http://www.w3.org/2000/svg" width="32" height="32" viewBox="0 0 32 32">
<title>book-contacts</title>
<path d="M21 16.5c0-0.828-0.672-1.5-1.5-1.5v0h-7c-0.828 0-1.5 0.672-1.5 1.5v0 0.5c0 1.971 1.86 4 5 4s5-2.029 5-4v-0.5zM18.75 11.25c0-1.519-1.231-2.75-2.75-2.75s-2.75 1.231-2.75 2.75v0c0 1.519 1.231 2.75 2.75 2.75s2.75-1.231 2.75-2.75v0zM25 26h-17.915c0.212 0.588 0.765 1 1.414 1 0 0 0.001 0 0.001 0h17.5c0.552 0 1 0.448 1 1s-0.448 1-1 1v0h-17.5c-1.933 0-3.5-1.567-3.5-3.5v0-19c0-1.933 1.567-3.5 3.5-3.5v0h15c1.933 0 3.5 1.567 3.5 3.5v0 17.5c0 1.105-0.895 2-2 2v0zM7 6.5v17.5h18v-17.5c0-0.828-0.672-1.5-1.5-1.5v0h-15c-0.828 0-1.5 0.672-1.5 1.5v0z"></path>
</svg>
