<!-- Generated by IcoMoon.io -->
<svg version="1.1" xmlns="http://www.w3.org/2000/svg" width="32" height="32" viewBox="0 0 32 32">
<title>book-number-regular</title>
<path d="M14.699 10.093l-0.297 1.213h-1.428l-0.136 0.009c-0.491 0.069-0.864 0.486-0.864 0.991v0l0.009 0.136c0.069 0.491 0.486 0.864 0.991 0.864h0.937l-0.517 2.115-1.061 0.001-0.136 0.009c-0.491 0.069-0.864 0.486-0.864 0.991v0l0.009 0.136c0.069 0.491 0.486 0.864 0.991 0.864h0.572l-0.164 0.675-0.024 0.133c-0.004 0.031-0.005 0.068-0.005 0.105 0 0.468 0.322 0.861 0.756 0.97l0.007 0.001 0.133 0.024c0.031 0.003 0.068 0.005 0.105 0.005 0.468 0 0.861-0.322 0.97-0.756l0.001-0.007 0.28-1.152h2.052l-0.157 0.691-0.021 0.133c-0.003 0.027-0.004 0.059-0.004 0.090 0 0.473 0.329 0.87 0.771 0.974l0.007 0.001 0.133 0.021c0.027 0.003 0.059 0.004 0.090 0.004 0.473 0 0.87-0.329 0.974-0.771l0.001-0.007 0.259-1.137 1.253 0.001 0.136-0.009c0.491-0.069 0.865-0.486 0.865-0.991v0l-0.009-0.136c-0.069-0.491-0.486-0.864-0.991-0.864h-0.796l0.484-2.116h0.96l0.136-0.009c0.491-0.069 0.864-0.486 0.864-0.991v0l-0.009-0.135c-0.069-0.491-0.486-0.865-0.991-0.865h-0.501l0.173-0.752 0.021-0.133c0.003-0.027 0.004-0.058 0.004-0.089 0-0.473-0.329-0.87-0.771-0.974l-0.007-0.001-0.133-0.021c-0.027-0.003-0.058-0.004-0.089-0.004-0.473 0-0.87 0.329-0.974 0.771l-0.001 0.007-0.276 1.197h-1.957l0.181-0.737 0.024-0.133c0.004-0.033 0.006-0.071 0.006-0.109 0-0.552-0.448-1-1-1-0.47 0-0.864 0.324-0.971 0.761l-0.001 0.007zM15.971 13.307h1.987l-0.483 2.115h-2.021l0.517-2.115zM8.667 2.667c-1.841 0-3.333 1.492-3.333 3.333v0 20c0 1.841 1.492 3.333 3.333 3.333v0h17.667c0.552 0 1-0.448 1-1s-0.448-1-1-1v0h-17.667c-0.736 0-1.333-0.597-1.333-1.333v0h19c0.552 0 1-0.448 1-1v0-19c0-1.841-1.492-3.333-3.333-3.333v0h-15.333zM25.333 24h-18v-18c0-0.736 0.597-1.333 1.333-1.333v0h15.333c0.736 0 1.333 0.597 1.333 1.333v0 18z"></path>
</svg>
