<!-- Generated by IcoMoon.io -->
<svg version="1.1" xmlns="http://www.w3.org/2000/svg" width="32" height="32" viewBox="0 0 32 32">
<title>bookmark-search</title>
<path d="M25.476 12.224c-0.981 0.698-2.181 1.109-3.477 1.109-3.314 0-6-2.686-6-6s2.686-6 6-6c3.314 0 6 2.686 6 6 0 1.296-0.411 2.496-1.109 3.477l3.483 3.483c0.391 0.391 0.391 1.024 0 1.414s-1.024 0.391-1.414 0l-3.483-3.483zM25.999 7.333c0-2.209-1.791-4-4-4s-4 1.791-4 4 1.791 4 4 4c2.209 0 4-1.791 4-4zM25.334 13.968v14.359c0 0.815-0.922 1.288-1.584 0.812l-7.748-5.575-7.748 5.575c-0.662 0.476-1.584 0.003-1.584-0.812v-19.994c0-2.393 1.94-4.333 4.333-4.333h4.464c-0.317 0.621-0.549 1.293-0.679 2h-3.785c-1.289 0-2.333 1.045-2.333 2.333v18.043l6.748-4.855c0.349-0.251 0.819-0.251 1.168 0l6.748 4.855v-11.83c0.682-0.125 1.331-0.345 1.933-0.645l0.067 0.067z"></path>
</svg>
