<!-- Generated by IcoMoon.io -->
<svg version="1.1" xmlns="http://www.w3.org/2000/svg" width="32" height="32" viewBox="0 0 32 32">
<title>bookmark-off-regular</title>
<path d="M4.373 2.96c-0.183-0.196-0.443-0.318-0.732-0.318-0.552 0-1 0.448-1 1 0 0.289 0.122 0.549 0.318 0.731l0.001 0.001 3.717 3.717c-0.004 0.072-0.007 0.156-0.007 0.241v19.995c0 0 0 0 0 0 0 0.552 0.448 1 1 1 0.219 0 0.422-0.071 0.587-0.19l-0.003 0.002 7.745-5.575 7.749 5.573c0.162 0.118 0.365 0.188 0.584 0.188 0.551 0 0.999-0.446 1-0.997v-1.577l2.291 2.291c0.18 0.174 0.425 0.281 0.695 0.281 0.552 0 1-0.448 1-1 0-0.27-0.107-0.515-0.281-0.695l-24.665-24.668zM23.335 24.749v1.627l-6.748-4.856c-0.162-0.118-0.365-0.188-0.584-0.188s-0.422 0.071-0.587 0.19l0.003-0.002-6.748 4.856v-16.292l14.663 14.665zM23.335 8.332v10.76l2 2v-12.759c0-2.393-1.94-4.333-4.333-4.333h-9.997c-0.002 0-0.005 0-0.007 0-0.8 0-1.548 0.218-2.19 0.598l0.020-0.011 1.511 1.507c0.198-0.061 0.426-0.096 0.662-0.096 0.002 0 0.003 0 0.004 0h9.997c1.289 0 2.333 1.045 2.333 2.333z"></path>
</svg>
