<!-- Generated by IcoMoon.io -->
<svg version="1.1" xmlns="http://www.w3.org/2000/svg" width="32" height="32" viewBox="0 0 32 32">
<title>book-star-regular</title>
<path d="M14.056 11.477l1.467-2.973c0.151-0.301 0.457-0.504 0.811-0.504s0.66 0.203 0.808 0.499l0.002 0.005 1.467 2.973 3.281 0.476c0.741 0.107 1.037 1.019 0.501 1.543l-2.373 2.313 0.56 3.267c0.009 0.047 0.013 0.1 0.013 0.155 0 0.499-0.405 0.904-0.904 0.904-0.154 0-0.299-0.039-0.426-0.107l0.005 0.002-2.935-1.543-2.933 1.543c-0.122 0.066-0.268 0.105-0.423 0.105-0.499 0-0.904-0.405-0.904-0.904 0-0.054 0.005-0.108 0.014-0.16l-0.001 0.005 0.56-3.267-2.373-2.315c-0.169-0.164-0.274-0.394-0.274-0.648 0-0.454 0.334-0.829 0.77-0.894l0.005-0.001 3.28-0.476zM15.467 12.704c-0.132 0.262-0.38 0.449-0.675 0.493l-0.005 0.001-1.939 0.283 1.403 1.367c0.168 0.165 0.273 0.394 0.273 0.648 0 0.054-0.005 0.106-0.014 0.157l0.001-0.005-0.332 1.931 1.733-0.912c0.122-0.066 0.267-0.104 0.421-0.104s0.299 0.039 0.426 0.107l-0.005-0.002 1.733 0.912-0.332-1.931c-0.008-0.046-0.013-0.099-0.013-0.153 0-0.254 0.105-0.483 0.273-0.647l0-0 1.403-1.367-1.937-0.283c-0.3-0.045-0.548-0.231-0.678-0.488l-0.002-0.005-0.868-1.757-0.867 1.756zM8.667 2.667c-1.841 0-3.333 1.492-3.333 3.333v0 20c0 1.841 1.492 3.333 3.333 3.333v0h17.667c0.552 0 1-0.448 1-1s-0.448-1-1-1v0h-17.667c-0.736 0-1.333-0.597-1.333-1.333v0h19c0.552 0 1-0.448 1-1v0-19c0-1.841-1.492-3.333-3.333-3.333v0h-15.333zM25.333 24h-18v-18c0-0.736 0.597-1.333 1.333-1.333v0h15.333c0.736 0 1.333 0.597 1.333 1.333v0 18z"></path>
</svg>
