<!-- Generated by IcoMoon.io -->
<svg version="1.1" xmlns="http://www.w3.org/2000/svg" width="32" height="32" viewBox="0 0 32 32">
<title>book-coins</title>
<path d="M13.596 9.952c0.831-0.396 1.916-0.619 3.071-0.619s2.241 0.223 3.071 0.619c0.767 0.367 1.596 1.035 1.596 2.048s-0.828 1.68-1.596 2.048c-0.829 0.396-1.916 0.619-3.071 0.619s-2.241-0.223-3.071-0.619c-0.767-0.367-1.596-1.035-1.596-2.048s0.829-1.68 1.596-2.048zM14.316 11.456c-0.62 0.296-0.649 0.544-0.649 0.544s0.029 0.248 0.649 0.544c0.559 0.267 1.388 0.456 2.351 0.456s1.792-0.188 2.351-0.456c0.62-0.296 0.649-0.544 0.649-0.544s-0.029-0.248-0.649-0.544c-0.559-0.267-1.388-0.456-2.351-0.456s-1.792 0.188-2.351 0.456zM16.667 16c1.88 0 3.56-0.577 4.66-1.48 0.004 0.049 0.007 0.097 0.007 0.147 0 1.473-2.089 2.667-4.667 2.667s-4.667-1.193-4.667-2.667c0-0.049 0.003-0.097 0.007-0.147 1.1 0.903 2.78 1.48 4.66 1.48zM16.667 18.667c1.88 0 3.56-0.577 4.66-1.48 0.004 0.049 0.007 0.097 0.007 0.147 0 1.473-2.089 2.667-4.667 2.667s-4.667-1.193-4.667-2.667c0-0.049 0.003-0.097 0.007-0.147 1.1 0.903 2.78 1.48 4.66 1.48zM8.667 2.667c-1.841 0-3.333 1.492-3.333 3.333v0 20c0 1.841 1.492 3.333 3.333 3.333v0h17.667c0.552 0 1-0.448 1-1s-0.448-1-1-1v0h-17.667c-0.736 0-1.333-0.597-1.333-1.333v0h19c0.552 0 1-0.448 1-1v0-19c0-1.841-1.492-3.333-3.333-3.333v0h-15.333zM25.333 24h-18v-18c0-0.736 0.597-1.333 1.333-1.333v0h15.333c0.736 0 1.333 0.597 1.333 1.333v0 18z"></path>
</svg>
