<!-- Generated by IcoMoon.io -->
<svg version="1.1" xmlns="http://www.w3.org/2000/svg" width="32" height="32" viewBox="0 0 32 32">
<title>book-information</title>
<path d="M17.667 9.333c0 0.736-0.597 1.333-1.333 1.333s-1.333-0.597-1.333-1.333v0c0-0.736 0.597-1.333 1.333-1.333s1.333 0.597 1.333 1.333v0zM15.333 13v6.667c0 0.552 0.448 1 1 1s1-0.448 1-1v0-6.667c0-0.552-0.448-1-1-1s-1 0.448-1 1v0zM5.333 6c0-1.841 1.492-3.333 3.333-3.333v0h15.333c1.841 0 3.333 1.492 3.333 3.333v0 19c0 0.552-0.448 1-1 1v0h-19c0 0.736 0.597 1.333 1.333 1.333v0h17.667c0.552 0 1 0.448 1 1s-0.448 1-1 1v0h-17.667c-1.841 0-3.333-1.492-3.333-3.333v0-20zM25.333 24v-18c0-0.736-0.597-1.333-1.333-1.333v0h-15.333c-0.736 0-1.333 0.597-1.333 1.333v0 18h18z"></path>
</svg>
