<!-- Generated by IcoMoon.io -->
<svg version="1.1" xmlns="http://www.w3.org/2000/svg" width="32" height="32" viewBox="0 0 32 32">
<title>book-open</title>
<path d="M16 25.517c-0.669 0.708-1.616 1.15-2.667 1.15h-8.333c-1.289 0-2.333-1.045-2.333-2.333v-16.667c0-1.289 1.045-2.333 2.333-2.333h8.333c1.051 0 1.998 0.442 2.667 1.15 0.669-0.708 1.616-1.15 2.667-1.15h8.333c1.289 0 2.333 1.045 2.333 2.333v16.667c0 1.289-1.045 2.333-2.333 2.333h-8.333c-1.051 0-1.998-0.442-2.667-1.15zM4.667 7.667v16.667c0 0.184 0.149 0.333 0.333 0.333h8.333c0.921 0 1.667-0.746 1.667-1.667v-14c0-0.92-0.746-1.667-1.667-1.667h-8.333c-0.184 0-0.333 0.149-0.333 0.333zM17 23c0 0.921 0.746 1.667 1.667 1.667h8.333c0.184 0 0.333-0.149 0.333-0.333v-16.667c0-0.184-0.149-0.333-0.333-0.333h-8.333c-0.921 0-1.667 0.746-1.667 1.667v14z"></path>
</svg>
