<!-- Generated by IcoMoon.io -->
<svg version="1.1" xmlns="http://www.w3.org/2000/svg" width="32" height="32" viewBox="0 0 32 32">
<title>book-open-regular</title>
<path d="M13.333 5.333c1.068 0 2.025 0.479 2.667 1.233 0.645-0.757 1.598-1.233 2.663-1.233 0.001 0 0.002 0 0.003 0h8.833c1.013 0 1.833 0.821 1.833 1.833v0 17.667c0 1.013-0.821 1.833-1.833 1.833v0h-8.833c-0.001 0-0.002 0-0.003 0-1.065 0-2.019-0.477-2.659-1.228l-0.004-0.005c-0.645 0.757-1.598 1.233-2.663 1.233-0.001 0-0.002 0-0.004 0h-8.833c-1.013 0-1.833-0.821-1.833-1.833v0-17.667c0-1.013 0.821-1.833 1.833-1.833v0h8.833zM15.167 23.167v-14.333c0-1.013-0.821-1.833-1.833-1.833v0h-8.833c-0.092 0-0.167 0.075-0.167 0.167v0 17.667c0 0.092 0.075 0.167 0.167 0.167h8.833c1.013 0 1.833-0.821 1.833-1.833v0zM16.833 8.833v14.333c0 1.013 0.821 1.833 1.833 1.833v0h8.833c0.092 0 0.167-0.075 0.167-0.167v0-17.667c0-0.092-0.075-0.167-0.167-0.167v0h-8.833c-1.013 0-1.833 0.821-1.833 1.833v0z"></path>
</svg>
