<!-- Generated by IcoMoon.io -->
<svg version="1.1" xmlns="http://www.w3.org/2000/svg" width="32" height="32" viewBox="0 0 32 32">
<title>book-open-globe</title>
<path d="M4.667 7.667c0-0.184 0.149-0.333 0.333-0.333h8.333c0.921 0 1.667 0.746 1.667 1.667v11.945c0.382-1.336 1.077-2.54 2-3.528v-8.417c0-0.92 0.746-1.667 1.667-1.667h8.333c0.184 0 0.333 0.149 0.333 0.333v7.976c0.735 0.383 1.408 0.868 2 1.437v-9.413c0-1.289-1.045-2.333-2.333-2.333h-8.333c-1.051 0-1.998 0.442-2.667 1.15-0.669-0.708-1.616-1.15-2.667-1.15h-8.333c-1.289 0-2.333 1.045-2.333 2.333v16.667c0 1.289 1.045 2.333 2.333 2.333h8.333c0.66 0 1.279-0.174 1.814-0.479-0.245-0.703-0.402-1.447-0.458-2.218-0.302 0.422-0.797 0.698-1.356 0.698h-8.333c-0.184 0-0.333-0.149-0.333-0.333v-16.667zM21.343 22.667c0.053-1.886 0.33-3.558 0.737-4.779 0.228-0.685 0.485-1.191 0.739-1.513 0.259-0.329 0.438-0.375 0.514-0.375s0.255 0.046 0.514 0.375c0.253 0.321 0.511 0.828 0.739 1.513 0.407 1.221 0.684 2.893 0.737 4.779h-3.981zM20.815 17.466c0.143-0.429 0.306-0.828 0.49-1.182-2.858 0.821-5.001 3.332-5.276 6.383h3.979c0.053-2 0.346-3.821 0.806-5.201zM25.851 17.466c-0.143-0.429-0.306-0.828-0.49-1.182 2.858 0.821 5.001 3.332 5.276 6.383h-3.979c-0.054-2-0.346-3.821-0.806-5.201zM26.658 24h3.979c-0.275 3.050-2.418 5.562-5.276 6.383 0.184-0.354 0.347-0.752 0.49-1.182 0.46-1.38 0.753-3.201 0.806-5.201zM23.848 30.292c-0.259 0.329-0.438 0.375-0.514 0.375s-0.255-0.046-0.514-0.375c-0.253-0.321-0.511-0.828-0.739-1.513-0.407-1.221-0.684-2.893-0.737-4.779h3.981c-0.053 1.886-0.33 3.558-0.737 4.779-0.228 0.685-0.486 1.191-0.739 1.513zM16.030 24c0.275 3.050 2.418 5.562 5.276 6.383-0.184-0.354-0.347-0.752-0.49-1.182-0.46-1.38-0.753-3.201-0.806-5.201h-3.979z"></path>
</svg>
