<!-- Generated by IcoMoon.io -->
<svg version="1.1" xmlns="http://www.w3.org/2000/svg" width="32" height="32" viewBox="0 0 32 32">
<title>book-globe</title>
<path d="M16.053 8.023c-3.299 0.242-5.883 2.978-5.883 6.317 0 3.498 2.836 6.333 6.333 6.333s6.333-2.836 6.333-6.333c0-3.498-2.836-6.333-6.333-6.333-0.001 0-0.002 0-0.003 0h-0.013c-0.045-0.004-0.098-0.006-0.152-0.006-0.1 0-0.198 0.008-0.293 0.024l0.010-0.001zM13.891 10.469c-0.301 0.903-0.491 2.008-0.543 3.197h-1.467c0.2-1.338 0.943-2.471 1.993-3.187l0.016-0.010zM13.392 15.667c0.077 0.936 0.256 1.802 0.528 2.626l-0.023-0.079c-0.889-0.603-1.55-1.483-1.865-2.514l-0.009-0.033h1.368zM18.68 18.467l0.004-0.011c0.293-0.783 0.497-1.741 0.591-2.789h1.701c-0.372 1.221-1.195 2.209-2.271 2.788l-0.025 0.012zM17.265 15.667c-0.087 0.824-0.249 1.539-0.453 2.087-0.157 0.417-0.32 0.685-0.448 0.831-0.011 0.012-0.021 0.023-0.031 0.034l0-0c-0.010-0.010-0.020-0.021-0.030-0.032l-0.001-0.001c-0.129-0.147-0.291-0.413-0.447-0.831-0.205-0.547-0.368-1.263-0.455-2.087h1.864zM17.317 13.667h-1.968c0.056-1.104 0.247-2.063 0.507-2.753 0.156-0.417 0.317-0.685 0.447-0.831 0.011-0.012 0.021-0.023 0.031-0.034l-0 0c0.010 0.010 0.020 0.021 0.030 0.032l0.001 0.001c0.129 0.147 0.291 0.413 0.447 0.831 0.26 0.691 0.451 1.649 0.507 2.753zM19.319 13.667c-0.057-1.304-0.28-2.507-0.633-3.451 1.292 0.695 2.207 1.947 2.43 3.425l0.003 0.026h-1.8zM16.409 9.987l-0.005 0.003 0.005-0.004zM16.259 9.987l0.004 0.003c-0.002-0.002-0.003-0.003-0.005-0.004l-0-0 0.001 0.001zM8.667 2.667c-1.841 0-3.333 1.492-3.333 3.333v0 20c0 1.841 1.492 3.333 3.333 3.333v0h17.667c0.552 0 1-0.448 1-1s-0.448-1-1-1v0h-17.667c-0.736 0-1.333-0.597-1.333-1.333v0h19c0.552 0 1-0.448 1-1v0-19c0-1.841-1.492-3.333-3.333-3.333v0h-15.333zM25.333 6v18h-18v-18c0-0.736 0.597-1.333 1.333-1.333v0h15.333c0.736 0 1.333 0.597 1.333 1.333v0zM16.404 18.677c0.002 0.001 0.004 0.002 0.005 0.004v0z"></path>
</svg>
