<!-- Generated by IcoMoon.io -->
<svg version="1.1" xmlns="http://www.w3.org/2000/svg" width="32" height="32" viewBox="0 0 32 32">
<title>bookmark-multiple-regular</title>
<path d="M9.779 4.333c0.587-1.003 1.659-1.667 2.886-1.667 0 0 0.001 0 0.001 0h6.5c3.774 0 6.834 3.060 6.834 6.833v13.167c0 0 0 0.001 0 0.001 0 1.227-0.663 2.299-1.651 2.877l-0.016 0.009v-16.054c0-2.853-2.313-5.167-5.167-5.167v0h-9.388zM9.333 6c-1.841 0-3.333 1.492-3.333 3.333v0 19.167c0 0.46 0.373 0.833 0.833 0.833 0.172 0 0.332-0.052 0.465-0.142l-0.003 0.002 7.038-4.692 7.038 4.692c0.13 0.088 0.29 0.14 0.462 0.14 0.46 0 0.833-0.373 0.833-0.833v0-19.167c0-1.841-1.492-3.333-3.333-3.333v0h-10zM7.667 9.333c0-0.92 0.746-1.667 1.667-1.667v0h10c0.92 0 1.667 0.746 1.667 1.667v0 17.609l-6.205-4.136c-0.13-0.088-0.29-0.14-0.462-0.14s-0.332 0.052-0.465 0.142l0.003-0.002-6.205 4.136v-17.609z"></path>
</svg>
