<!-- Generated by IcoMoon.io -->
<svg version="1.1" xmlns="http://www.w3.org/2000/svg" width="32" height="32" viewBox="0 0 32 32">
<title>book-database</title>
<path d="M22 12v5.333c0 1.188-0.88 2.037-1.795 2.531-0.957 0.515-2.209 0.803-3.539 0.803s-2.581-0.288-3.539-0.803c-0.915-0.493-1.795-1.344-1.795-2.531v-5.333c0-1.188 0.88-2.037 1.795-2.531 0.957-0.515 2.209-0.803 3.539-0.803s2.581 0.288 3.539 0.803c0.915 0.493 1.795 1.344 1.795 2.531zM14.076 11.231c-0.652 0.351-0.743 0.669-0.743 0.769s0.091 0.419 0.743 0.769c0.613 0.329 1.527 0.564 2.591 0.564s1.979-0.235 2.591-0.564c0.652-0.351 0.743-0.669 0.743-0.769s-0.091-0.419-0.743-0.769c-0.615-0.329-1.527-0.564-2.591-0.564s-1.979 0.235-2.591 0.564zM20 14.635c-0.927 0.449-2.097 0.699-3.333 0.699s-2.407-0.249-3.333-0.699v2.699c0 0.1 0.091 0.417 0.743 0.769 0.613 0.329 1.527 0.564 2.591 0.564s1.979-0.235 2.591-0.564c0.652-0.352 0.743-0.669 0.743-0.769v-2.699zM5.333 6c0-1.841 1.492-3.333 3.333-3.333v0h15.333c1.841 0 3.333 1.492 3.333 3.333v0 19c0 0.552-0.448 1-1 1v0h-19c0 0.736 0.597 1.333 1.333 1.333v0h17.667c0.552 0 1 0.448 1 1s-0.448 1-1 1v0h-17.667c-1.841 0-3.333-1.492-3.333-3.333v0-20zM7.333 24h18v-18c0-0.736-0.597-1.333-1.333-1.333v0h-15.333c-0.736 0-1.333 0.597-1.333 1.333v0 18z"></path>
</svg>
