<!-- Generated by IcoMoon.io -->
<svg version="1.1" xmlns="http://www.w3.org/2000/svg" width="32" height="32" viewBox="0 0 32 32">
<title>book-compass</title>
<path d="M17.333 7.667c0-0.552-0.448-1-1-1s-1 0.448-1 1v0 2.139c-1.551 0.451-2.665 1.86-2.665 3.528 0 1.040 0.433 1.979 1.128 2.646l0.001 0.001-1.725 4.315c-0.037 0.1-0.058 0.215-0.058 0.336 0 0.552 0.448 1 1 1 0.405 0 0.754-0.241 0.911-0.588l0.003-0.006 1.647-4.116c0.228 0.050 0.49 0.079 0.759 0.079s0.531-0.029 0.783-0.083l-0.024 0.004 1.647 4.116c0.16 0.353 0.509 0.594 0.914 0.594 0.552 0 1-0.448 1-1 0-0.12-0.021-0.236-0.060-0.343l0.002 0.007-1.725-4.315c0.697-0.669 1.129-1.608 1.129-2.648 0-1.669-1.114-3.077-2.64-3.522l-0.026-0.006v-2.139zM14.667 13.333c0-0.92 0.746-1.667 1.667-1.667s1.667 0.746 1.667 1.667v0c0 0.92-0.746 1.667-1.667 1.667s-1.667-0.746-1.667-1.667v0zM8.667 2.667c-1.841 0-3.333 1.492-3.333 3.333v0 20c0 1.841 1.492 3.333 3.333 3.333v0h17.667c0.552 0 1-0.448 1-1s-0.448-1-1-1v0h-17.667c-0.736 0-1.333-0.597-1.333-1.333v0h19c0.552 0 1-0.448 1-1v0-19c0-1.841-1.492-3.333-3.333-3.333v0h-15.333zM25.333 24h-18v-18c0-0.736 0.597-1.333 1.333-1.333v0h15.333c0.736 0 1.333 0.597 1.333 1.333v0 18z"></path>
</svg>
