<!-- Generated by IcoMoon.io -->
<svg version="1.1" xmlns="http://www.w3.org/2000/svg" width="32" height="32" viewBox="0 0 32 32">
<title>book-open-microphone</title>
<path d="M16 25.517c-0.669 0.708-1.616 1.15-2.667 1.15h-8.333c-1.289 0-2.333-1.045-2.333-2.333v-16.667c0-1.289 1.045-2.333 2.333-2.333h8.333c1.051 0 1.998 0.442 2.667 1.15 0.669-0.708 1.616-1.15 2.667-1.15h8.333c1.289 0 2.333 1.045 2.333 2.333v11.667c0-1-0.338-1.981-0.927-2.78-0.294-0.399-0.655-0.757-1.073-1.051v-7.836c0-0.184-0.149-0.333-0.333-0.333h-8.333c-0.921 0-1.667 0.746-1.667 1.667v14c0 0.401 0.142 0.769 0.378 1.057 0.042 0.34 0.113 0.672 0.21 0.995 0.172 0.569 0.425 1.106 0.744 1.6-0.916-0.083-1.735-0.503-2.332-1.135zM4.667 7.667v16.667c0 0.184 0.149 0.333 0.333 0.333h8.333c0.921 0 1.667-0.746 1.667-1.667v-14c0-0.92-0.746-1.667-1.667-1.667h-8.333c-0.184 0-0.333 0.149-0.333 0.333zM27.35 26.641c1.199-0.699 1.983-1.878 1.983-3.307 0-0.368 0.299-0.667 0.667-0.667s0.667 0.299 0.667 0.667c0 2.667-2.333 4.965-5.333 5.297v1.37c0 0.368-0.299 0.667-0.667 0.667s-0.667-0.299-0.667-0.667v-1.37c-1.598-0.177-3.008-0.912-3.975-1.963-0.42-0.457-0.757-0.973-0.991-1.53-0.064-0.154-0.121-0.311-0.169-0.47-0.129-0.428-0.198-0.875-0.198-1.333 0-0.368 0.299-0.667 0.667-0.667s0.667 0.299 0.667 0.667c0 0.475 0.087 0.922 0.246 1.333 0.164 0.422 0.405 0.807 0.708 1.144 0.301 0.335 0.664 0.623 1.074 0.856 0.751 0.426 1.659 0.667 2.638 0.667 0.999 0 1.924-0.25 2.683-0.693zM24.667 26c-1.149 0-2.078-0.549-2.661-1.333-0.431-0.581-0.673-1.29-0.673-2v-3.333c0-1.672 1.333-3.333 3.333-3.333 1.153 0 2.085 0.556 2.667 1.345 0.428 0.58 0.667 1.285 0.667 1.988v3.333c0 1.661-1.333 3.333-3.333 3.333z"></path>
</svg>
