<!-- Generated by IcoMoon.io -->
<svg version="1.1" xmlns="http://www.w3.org/2000/svg" width="32" height="32" viewBox="0 0 32 32">
<title>border-bottom-thick</title>
<path d="M18.667 5c0 0.552-0.448 1-1 1h-3.333c-0.552 0-1-0.448-1-1s0.448-1 1-1h3.333c0.552 0 1 0.448 1 1z"></path>
<path d="M6 14.333c0-0.552-0.448-1-1-1s-1 0.448-1 1v3.333c0 0.552 0.448 1 1 1s1-0.448 1-1v-3.333z"></path>
<path d="M26 14.333c0-0.552 0.448-1 1-1s1 0.448 1 1v3.333c0 0.552-0.448 1-1 1s-1-0.448-1-1v-3.333z"></path>
<path d="M8.333 4c0.552 0 1 0.448 1 1s-0.448 1-1 1h-0.667c-0.92 0-1.667 0.746-1.667 1.667v0.667c0 0.552-0.448 1-1 1s-1-0.448-1-1v-0.667c0-2.025 1.642-3.667 3.667-3.667h0.667z"></path>
<path d="M22.667 5c0-0.552 0.448-1 1-1h0.667c2.025 0 3.667 1.642 3.667 3.667v0.667c0 0.552-0.448 1-1 1s-1-0.448-1-1v-0.667c0-0.92-0.746-1.667-1.667-1.667h-0.667c-0.552 0-1-0.448-1-1z"></path>
<path d="M4 24c0-0.736 0.597-1.333 1.333-1.333s1.333 0.597 1.333 1.333c0 0.736 0.597 1.333 1.333 1.333h16c0.736 0 1.333-0.597 1.333-1.333s0.597-1.333 1.333-1.333c0.736 0 1.333 0.597 1.333 1.333 0 2.209-1.791 4-4 4h-16c-2.209 0-4-1.791-4-4z"></path>
</svg>
