<!-- Generated by IcoMoon.io -->
<svg version="1.1" xmlns="http://www.w3.org/2000/svg" width="32" height="32" viewBox="0 0 32 32">
<title>border-top-bottom-double-regular</title>
<path d="M4 8.333c0 0.552 0.448 1 1 1s1-0.448 1-1v0-0.667c0-0.92 0.747-1.667 1.667-1.667h16.667c0.92 0 1.667 0.747 1.667 1.667v0.667c0 0.552 0.448 1 1 1s1-0.448 1-1v0-0.667c0-2.025-1.642-3.667-3.667-3.667v0h-16.667c-2.025 0-3.667 1.642-3.667 3.667v0 0.667zM5 13.333c0.552 0 1 0.448 1 1v0 3.333c0 0.552-0.448 1-1 1s-1-0.448-1-1v0-3.333c0-0.552 0.448-1 1-1v0zM27 13.333c-0.552 0-1 0.448-1 1v0 3.333c0 0.552 0.448 1 1 1s1-0.448 1-1v0-3.333c0-0.552-0.448-1-1-1v0zM4 27c0 0.552 0.448 1 1 1h22c0.552 0 1-0.448 1-1s-0.448-1-1-1v0h-22c-0.552 0-1 0.448-1 1v0zM5 24.667c-0.552 0-1-0.448-1-1s0.448-1 1-1v0h22c0.552 0 1 0.448 1 1s-0.448 1-1 1v0h-22z"></path>
</svg>
