<!-- Generated by IcoMoon.io -->
<svg version="1.1" xmlns="http://www.w3.org/2000/svg" width="32" height="32" viewBox="0 0 32 32">
<title>border-bottom</title>
<path d="M8.333 4c0.552 0 1 0.448 1 1s-0.448 1-1 1v0h-0.667c-0.92 0-1.667 0.747-1.667 1.667v0.667c0 0.552-0.448 1-1 1s-1-0.448-1-1v0-0.667c0-2.025 1.642-3.667 3.667-3.667v0h0.667zM23.667 4c-0.552 0-1 0.448-1 1s0.448 1 1 1v0h0.667c0.92 0 1.667 0.747 1.667 1.667v0.667c0 0.552 0.448 1 1 1s1-0.448 1-1v0-0.667c0-2.025-1.642-3.667-3.667-3.667v0h-0.667zM5 13.333c0.552 0 1 0.448 1 1v0 3.333c0 0.552-0.448 1-1 1s-1-0.448-1-1v0-3.333c0-0.552 0.448-1 1-1v0zM26 14.333c0-0.552 0.448-1 1-1s1 0.448 1 1v0 3.333c0 0.552-0.448 1-1 1s-1-0.448-1-1v0-3.333zM18.667 5c0 0.552-0.448 1-1 1v0h-3.333c-0.552 0-1-0.448-1-1s0.448-1 1-1v0h3.333c0.552 0 1 0.448 1 1v0zM4 23.667c0-0.552 0.448-1 1-1s1 0.448 1 1v0 0.667c0 0.92 0.747 1.667 1.667 1.667h16.667c0.92 0 1.667-0.747 1.667-1.667v-0.667c0-0.552 0.448-1 1-1s1 0.448 1 1v0 0.667c0 2.025-1.642 3.667-3.667 3.667v0h-16.667c-2.025 0-3.667-1.642-3.667-3.667v0-0.667z"></path>
</svg>
