<!-- Generated by IcoMoon.io -->
<svg version="1.1" xmlns="http://www.w3.org/2000/svg" width="32" height="32" viewBox="0 0 32 32">
<title>border-bottom-double</title>
<path d="M17.667 6c0.552 0 1-0.448 1-1s-0.448-1-1-1h-3.333c-0.552 0-1 0.448-1 1s0.448 1 1 1h3.333z"></path>
<path d="M5 13.333c0.552 0 1 0.448 1 1v3.333c0 0.552-0.448 1-1 1s-1-0.448-1-1v-3.333c0-0.552 0.448-1 1-1z"></path>
<path d="M27 13.333c-0.552 0-1 0.448-1 1v3.333c0 0.552 0.448 1 1 1s1-0.448 1-1v-3.333c0-0.552-0.448-1-1-1z"></path>
<path d="M5 28c-0.552 0-1-0.448-1-1s0.448-1 1-1h22c0.552 0 1 0.448 1 1s-0.448 1-1 1h-22z"></path>
<path d="M4 23.667c0 0.552 0.448 1 1 1h22c0.552 0 1-0.448 1-1s-0.448-1-1-1h-22c-0.552 0-1 0.448-1 1z"></path>
<path d="M9.333 5c0-0.552-0.448-1-1-1h-0.667c-2.025 0-3.667 1.642-3.667 3.667v0.667c0 0.552 0.448 1 1 1s1-0.448 1-1v-0.667c0-0.92 0.746-1.667 1.667-1.667h0.667c0.552 0 1-0.448 1-1z"></path>
<path d="M23.667 4c-0.552 0-1 0.448-1 1s0.448 1 1 1h0.667c0.921 0 1.667 0.746 1.667 1.667v0.667c0 0.552 0.448 1 1 1s1-0.448 1-1v-0.667c0-2.025-1.642-3.667-3.667-3.667h-0.667z"></path>
</svg>
