<!-- Generated by IcoMoon.io -->
<svg version="1.1" xmlns="http://www.w3.org/2000/svg" width="32" height="32" viewBox="0 0 32 32">
<title>border-top</title>
<path d="M4 8.333c0 0.552 0.448 1 1 1s1-0.448 1-1v-0.667c0-0.92 0.746-1.667 1.667-1.667h16.667c0.921 0 1.667 0.746 1.667 1.667v0.667c0 0.552 0.448 1 1 1s1-0.448 1-1v-0.667c0-2.025-1.642-3.667-3.667-3.667h-16.667c-2.025 0-3.667 1.642-3.667 3.667v0.667z"></path>
<path d="M6 14.333c0-0.552-0.448-1-1-1s-1 0.448-1 1v3.333c0 0.552 0.448 1 1 1s1-0.448 1-1v-3.333z"></path>
<path d="M26 14.333c0-0.552 0.448-1 1-1s1 0.448 1 1v3.333c0 0.552-0.448 1-1 1s-1-0.448-1-1v-3.333z"></path>
<path d="M18.667 27c0 0.552-0.448 1-1 1h-3.333c-0.552 0-1-0.448-1-1s0.448-1 1-1h3.333c0.552 0 1 0.448 1 1z"></path>
<path d="M8.333 28c0.552 0 1-0.448 1-1s-0.448-1-1-1h-0.667c-0.92 0-1.667-0.746-1.667-1.667v-0.667c0-0.552-0.448-1-1-1s-1 0.448-1 1v0.667c0 2.025 1.642 3.667 3.667 3.667h0.667z"></path>
<path d="M22.667 27c0 0.552 0.448 1 1 1h0.667c2.025 0 3.667-1.642 3.667-3.667v-0.667c0-0.552-0.448-1-1-1s-1 0.448-1 1v0.667c0 0.921-0.746 1.667-1.667 1.667h-0.667c-0.552 0-1 0.448-1 1z"></path>
</svg>
