<!-- Generated by IcoMoon.io -->
<svg version="1.1" xmlns="http://www.w3.org/2000/svg" width="32" height="32" viewBox="0 0 32 32">
<title>border-all</title>
<path d="M4 7.667c0-2.025 1.642-3.667 3.667-3.667v0h16.667c2.025 0 3.667 1.642 3.667 3.667v0 16.667c0 2.025-1.642 3.667-3.667 3.667v0h-16.667c-2.025 0-3.667-1.642-3.667-3.667v0-16.667zM17 26h7.333c0.92 0 1.667-0.747 1.667-1.667v-7.333h-9v9zM15 17h-9v7.333c0 0.92 0.747 1.667 1.667 1.667h7.333v-9zM17 15h9v-7.333c0-0.92-0.747-1.667-1.667-1.667h-7.333v9zM15 6h-7.333c-0.92 0-1.667 0.747-1.667 1.667v7.333h9v-9z"></path>
</svg>
