<!-- Generated by IcoMoon.io -->
<svg version="1.1" xmlns="http://www.w3.org/2000/svg" width="32" height="32" viewBox="0 0 32 32">
<title>border-left-right</title>
<path d="M22.667 5c0-0.552 0.448-1 1-1v0h0.667c2.025 0 3.667 1.642 3.667 3.667v0 16.667c0 2.025-1.642 3.667-3.667 3.667v0h-0.667c-0.552 0-1-0.448-1-1s0.448-1 1-1v0h0.667c0.92 0 1.667-0.747 1.667-1.667v-16.667c0-0.92-0.747-1.667-1.667-1.667h-0.667c-0.552 0-1-0.448-1-1v0zM17.667 6c0.552 0 1-0.448 1-1s-0.448-1-1-1v0h-3.333c-0.552 0-1 0.448-1 1s0.448 1 1 1v0h3.333zM17.667 26c0.552 0 1 0.448 1 1s-0.448 1-1 1v0h-3.333c-0.552 0-1-0.448-1-1s0.448-1 1-1v0h3.333zM8.333 4c0.552 0 1 0.448 1 1s-0.448 1-1 1v0h-0.667c-0.92 0-1.667 0.747-1.667 1.667v16.667c0 0.92 0.747 1.667 1.667 1.667h0.667c0.552 0 1 0.448 1 1s-0.448 1-1 1v0h-0.667c-2.025 0-3.667-1.642-3.667-3.667v0-16.667c0-2.025 1.642-3.667 3.667-3.667v0h0.667z"></path>
</svg>
