<!-- Generated by IcoMoon.io -->
<svg version="1.1" xmlns="http://www.w3.org/2000/svg" width="32" height="32" viewBox="0 0 32 32">
<title>border-top-bottom-thick</title>
<path d="M4 8.333c0 0.552 0.448 1 1 1s1-0.448 1-1v0-0.667c0-0.92 0.747-1.667 1.667-1.667h16.667c0.92 0 1.667 0.747 1.667 1.667v0.667c0 0.552 0.448 1 1 1s1-0.448 1-1v0-0.667c0-2.025-1.642-3.667-3.667-3.667v0h-16.667c-2.025 0-3.667 1.642-3.667 3.667v0 0.667zM6 14.333c0-0.552-0.448-1-1-1s-1 0.448-1 1v0 3.333c0 0.552 0.448 1 1 1s1-0.448 1-1v0-3.333zM26 14.333c0-0.552 0.448-1 1-1s1 0.448 1 1v0 3.333c0 0.552-0.448 1-1 1s-1-0.448-1-1v0-3.333zM5.333 22.667c-0.736 0-1.333 0.597-1.333 1.333v0c0 2.209 1.791 4 4 4v0h16c2.209 0 4-1.791 4-4v0c0-0.736-0.597-1.333-1.333-1.333s-1.333 0.597-1.333 1.333v0c0 0.736-0.597 1.333-1.333 1.333v0h-16c-0.736 0-1.333-0.597-1.333-1.333v0c0-0.736-0.597-1.333-1.333-1.333v0z"></path>
</svg>
