<!-- Generated by IcoMoon.io -->
<svg version="1.1" xmlns="http://www.w3.org/2000/svg" width="32" height="32" viewBox="0 0 32 32">
<title>bot-add</title>
<path d="M23.333 16c4.050 0 7.333 3.283 7.333 7.333s-3.283 7.333-7.333 7.333v0c-4.050 0-7.333-3.283-7.333-7.333s3.283-7.333 7.333-7.333v0zM16.031 18.665c-0.375 0.575-0.695 1.237-0.928 1.939l-0.018 0.061h-9.413c-0.552 0-1 0.448-1 1v0 1.211c0 0.873 0.381 1.704 1.044 2.275 1.677 1.443 4.205 2.183 7.617 2.183 0.8 0 1.549-0.040 2.251-0.121 0.333 0.667 0.751 1.284 1.24 1.84-1.071 0.187-2.235 0.28-3.491 0.28-3.853 0-6.837-0.875-8.92-2.667-1.068-0.922-1.741-2.278-1.741-3.791v-1.211c0.002-1.656 1.344-2.997 3-2.997 0 0 0 0 0 0h10.359zM23.333 18.665l-0.12 0.011c-0.273 0.051-0.485 0.263-0.535 0.532l-0.001 0.004-0.011 0.12v3.333h-3.336l-0.12 0.012c-0.273 0.051-0.485 0.263-0.535 0.532l-0.001 0.004-0.011 0.12 0.011 0.12c0.052 0.272 0.263 0.484 0.532 0.534l0.004 0.001 0.12 0.012 3.337-0.001v3.339l0.011 0.12c0.051 0.273 0.264 0.485 0.533 0.535l0.004 0.001 0.12 0.011 0.12-0.011c0.272-0.052 0.484-0.263 0.534-0.532l0.001-0.004 0.012-0.12-0.003-3.339h3.339l0.12-0.011c0.273-0.051 0.485-0.263 0.535-0.532l0.001-0.004 0.011-0.12-0.011-0.12c-0.052-0.272-0.263-0.484-0.532-0.534l-0.004-0.001-0.12-0.011-3.339-0.003v-3.333l-0.011-0.12c-0.051-0.273-0.263-0.485-0.532-0.535l-0.004-0.001-0.12-0.011zM13.333 2.667c0 0 0.001 0 0.001 0 0.504 0 0.921 0.373 0.99 0.859l0.001 0.005 0.009 0.136-0.001 0.999h4.667c1.657 0 3 1.343 3 3v0 6.007c0 0.401-0.079 0.785-0.221 1.135-1.539 0.285-2.892 0.943-4.004 1.878l0.013-0.011h-10.12c-1.657 0-3-1.343-3-3v0-6.007c0-1.656 1.342-2.999 2.999-3l4.665-0.001v-0.999c0-0.458 0.308-0.844 0.728-0.962l0.007-0.002 0.131-0.027 0.136-0.009zM19 6.667h-11.333c-0.552 0-1 0.448-1 1v0 6.005c0 0.552 0.448 1 1 1h11.333c0.552 0 1-0.448 1-1v0-6.005c0-0.552-0.448-1-1-1v0zM10.333 8.667c0.020-0.001 0.043-0.001 0.067-0.001 0.92 0 1.667 0.746 1.667 1.667s-0.746 1.667-1.667 1.667c-0.023 0-0.047-0-0.070-0.001l0.003 0c-0.891-0.037-1.6-0.768-1.6-1.665s0.709-1.629 1.597-1.665l0.003-0zM16.323 8.667c0.020-0.001 0.043-0.001 0.067-0.001 0.92 0 1.667 0.746 1.667 1.667s-0.746 1.667-1.667 1.667c-0.023 0-0.047-0-0.070-0.001l0.003 0c-0.891-0.037-1.6-0.768-1.6-1.665s0.709-1.629 1.597-1.665l0.003-0z"></path>
</svg>
