<!-- Generated by IcoMoon.io -->
<svg version="1.1" xmlns="http://www.w3.org/2000/svg" width="32" height="32" viewBox="0 0 32 32">
<title>bot-add</title>
<path d="M23.333 16.001c4.050 0 7.333 3.283 7.333 7.333s-3.283 7.333-7.333 7.333c-4.050 0-7.333-3.283-7.333-7.333s3.283-7.333 7.333-7.333zM16.029 18.666c-0.396 0.618-0.715 1.289-0.945 2l-9.413 0c-0.552 0-1 0.448-1 1v1.21c0 0.874 0.381 1.705 1.044 2.275 1.677 1.442 4.205 2.184 7.618 2.184 0.798 0 1.549-0.041 2.251-0.121 0.332 0.667 0.75 1.285 1.239 1.841-1.070 0.188-2.234 0.281-3.489 0.281-3.853 0-6.838-0.875-8.922-2.667-1.105-0.95-1.74-2.334-1.74-3.791v-1.21c0-1.657 1.343-3 3-3l10.358-0.001zM23.333 18.666l-0.12 0.011c-0.272 0.049-0.487 0.264-0.536 0.536l-0.011 0.12-0.001 3.333-3.336 0.001-0.12 0.011c-0.272 0.049-0.487 0.264-0.536 0.536l-0.011 0.12 0.011 0.12c0.049 0.272 0.264 0.487 0.536 0.536l0.12 0.011 3.337-0.001 0.001 3.339 0.011 0.12c0.049 0.272 0.264 0.487 0.536 0.536l0.12 0.011 0.12-0.011c0.272-0.049 0.487-0.264 0.536-0.536l0.011-0.12-0.001-3.339 3.339 0.001 0.12-0.011c0.272-0.049 0.487-0.264 0.536-0.536l0.011-0.12-0.011-0.12c-0.049-0.272-0.264-0.487-0.536-0.536l-0.12-0.011-3.34-0.001 0.001-3.333-0.011-0.12c-0.049-0.272-0.264-0.487-0.536-0.536l-0.12-0.011zM13.334 2.668c0.506 0 0.925 0.376 0.991 0.864l0.009 0.136-0.001 0.999 4.667 0.001c1.657 0 3 1.343 3 3v6.006c0 0.401-0.079 0.785-0.222 1.135-1.5 0.27-2.866 0.928-3.99 1.865l-10.121-0c-1.657 0-3-1.343-3-3v-6.006c0-1.657 1.343-3 3-3l4.666-0.001 0.001-0.999c0-0.46 0.311-0.848 0.734-0.964l0.13-0.027 0.136-0.009zM19 6.667h-11.333c-0.552 0-1 0.448-1 1v6.006c0 0.552 0.448 1 1 1h11.333c0.552 0 1-0.448 1-1v-6.006c0-0.552-0.448-1-1-1zM10.332 8.667c0.92 0 1.666 0.746 1.666 1.666s-0.746 1.666-1.666 1.666c-0.92 0-1.666-0.746-1.666-1.666s0.746-1.666 1.666-1.666zM16.323 8.667c0.92 0 1.666 0.746 1.666 1.666s-0.746 1.666-1.666 1.666c-0.92 0-1.666-0.746-1.666-1.666s0.746-1.666 1.666-1.666z"></path>
</svg>
