<!-- Generated by IcoMoon.io -->
<svg version="1.1" xmlns="http://www.w3.org/2000/svg" width="32" height="32" viewBox="0 0 32 32">
<title>bot</title>
<path d="M23.671 18.667c1.657 0 3 1.343 3 3v1.207c0 1.458-0.637 2.844-1.743 3.794-2.087 1.792-5.074 2.668-8.928 2.668s-6.838-0.875-8.922-2.667c-1.105-0.95-1.74-2.334-1.74-3.791v-1.21c0-1.657 1.343-3 3-3h15.333zM23.671 20.667h-15.333c-0.552 0-1 0.448-1 1v1.21c0 0.874 0.381 1.705 1.044 2.275 1.677 1.442 4.205 2.184 7.618 2.184 3.413 0 5.944-0.742 7.625-2.185 0.664-0.57 1.046-1.401 1.046-2.276v-1.207c0-0.552-0.448-1-1-1zM15.865 2.677l0.136-0.009c0.506 0 0.925 0.376 0.991 0.864l0.009 0.136-0.001 0.999 4.667 0.001c1.657 0 3 1.343 3 3v6.006c0 1.657-1.343 3-3 3h-11.333c-1.657 0-3-1.343-3-3v-6.006c0-1.657 1.343-3 3-3l4.666-0.001 0.001-0.999c0-0.506 0.376-0.925 0.864-0.991v0zM21.667 6.667h-11.333c-0.552 0-1 0.448-1 1v6.006c0 0.552 0.448 1 1 1h11.333c0.552 0 1-0.448 1-1v-6.006c0-0.552-0.448-1-1-1zM12.999 8.667c0.92 0 1.666 0.746 1.666 1.666s-0.746 1.666-1.666 1.666c-0.92 0-1.666-0.746-1.666-1.666s0.746-1.666 1.666-1.666zM18.989 8.667c0.92 0 1.666 0.746 1.666 1.666s-0.746 1.666-1.666 1.666c-0.92 0-1.666-0.746-1.666-1.666s0.746-1.666 1.666-1.666z"></path>
</svg>
