<!-- Generated by IcoMoon.io -->
<svg version="1.1" xmlns="http://www.w3.org/2000/svg" width="32" height="32" viewBox="0 0 32 32">
<title>bot</title>
<path d="M23.671 18.667c1.657 0 3 1.343 3 3v0 1.205c0 0 0 0.001 0 0.001 0 1.514-0.673 2.871-1.736 3.788l-0.006 0.005c-2.087 1.792-5.075 2.667-8.928 2.667s-6.837-0.875-8.92-2.667c-1.068-0.922-1.741-2.278-1.741-3.791v-1.211c0.001-1.656 1.344-2.999 3-2.999h15.333zM23.671 20.667h-15.333c-0.552 0-1 0.448-1 1v0 1.209c0 0.873 0.383 1.704 1.045 2.275 1.677 1.443 4.205 2.183 7.617 2.183 3.413 0 5.944-0.743 7.627-2.187 0.641-0.553 1.044-1.367 1.044-2.275 0-0 0-0.001 0-0.001v0-1.207c0-0.552-0.448-1-1-1v0zM15.867 2.675l0.133-0.008c0.504 0 0.921 0.373 0.99 0.859l0.001 0.005 0.009 0.136-0.001 0.999h4.667c1.657 0 3 1.343 3 3v0 6.007c0 1.657-1.343 3-3 3v0h-11.333c-1.657 0-3-1.343-3-3v0-6.005c0-1.657 1.343-3 3-3 0 0 0.001 0 0.001 0l4.667-0.001v-0.999c0-0.505 0.374-0.922 0.86-0.99l0.005-0.001 0.135-0.009-0.136 0.009zM21.667 6.667h-11.333c-0.552 0-1 0.448-1 1v0 6.005c0 0.552 0.448 1 1 1h11.333c0.552 0 1-0.448 1-1v0-6.005c0-0.552-0.448-1-1-1v0zM13 8.667c0.020-0.001 0.043-0.001 0.067-0.001 0.92 0 1.667 0.746 1.667 1.667s-0.746 1.667-1.667 1.667c-0.023 0-0.047-0-0.070-0.001l0.003 0c-0.891-0.037-1.6-0.768-1.6-1.665s0.709-1.629 1.597-1.665l0.003-0zM18.989 8.667c0.020-0.001 0.043-0.001 0.067-0.001 0.92 0 1.667 0.746 1.667 1.667s-0.746 1.667-1.667 1.667c-0.023 0-0.047-0-0.070-0.001l0.003 0c-0.891-0.037-1.6-0.768-1.6-1.665s0.709-1.629 1.597-1.665l0.003-0z"></path>
</svg>
