<!-- Generated by IcoMoon.io -->
<svg version="1.1" xmlns="http://www.w3.org/2000/svg" width="32" height="32" viewBox="0 0 32 32">
<title>bowl-salad-regular</title>
<path d="M16 2.667c-0 0-0.001 0-0.001 0-3.106 0-5.76 1.93-6.831 4.656l-0.017 0.050c-0.432-0.133-0.997-0.27-1.573-0.378l-0.107-0.017c-1.036-0.197-2.229-0.309-3.447-0.309-0.029 0-0.058 0-0.087 0h0.004l-0.229 0.005-0.064 0.003c-0.519 0.021-0.935 0.429-0.97 0.942l-0 0.003-0.001 0.027-0.003 0.065c-0.003 0.125-0.006 0.272-0.006 0.42 0 0.22 0.004 0.439 0.013 0.656l-0.001-0.031c0.027 0.684 0.101 1.636 0.297 2.712 0.179 0.98 0.464 2.087 0.92 3.196h-0.231c-0.552 0-1 0.448-1 1v0 0.333c0 7.364 5.969 13.333 13.333 13.333s13.333-5.969 13.333-13.333v-0.333c0-0.552-0.448-1-1-1v0h-0.337c0.001-0.050 0.002-0.108 0.002-0.166 0-3.017-2.055-5.555-4.842-6.289l-0.045-0.010c-0.832-3.206-3.7-5.535-7.111-5.535-0 0-0 0-0.001 0h0zM11.031 8.053c0.8-2 2.721-3.388 4.967-3.388 2.234 0 4.147 1.373 4.942 3.321l0.013 0.036c-2.384 0.206-4.384 1.671-5.346 3.72l-0.017 0.040c-0.378-0.555-0.78-1.041-1.223-1.486l0 0c-0.999-0.999-2.16-1.72-3.336-2.244zM26 14.5c0 0.056-0.001 0.112-0.004 0.167h-8.972l-0.024-0.067v-0.1c0-2.485 2.015-4.5 4.5-4.5s4.5 2.015 4.5 4.5v0zM12.952 11.712c0.857 0.856 1.479 1.887 1.927 2.955h-2.8l-2.372-2.373c-0.183-0.196-0.443-0.318-0.732-0.318-0.552 0-1 0.448-1 1 0 0.289 0.122 0.549 0.318 0.731l0.001 0.001 0.96 0.96h-3.16c-0.587-1.168-0.939-2.417-1.147-3.556-0.136-0.708-0.231-1.544-0.266-2.396l-0.001-0.034v-0.003h0.001c0.613 0.023 1.468 0.091 2.429 0.267 1.947 0.356 4.213 1.133 5.844 2.767zM6.384 22h19.232c-2.034 3.223-5.576 5.333-9.61 5.333-0.002 0-0.004 0-0.006 0h0c-0.002 0-0.004 0-0.006 0-4.035 0-7.577-2.11-9.583-5.287l-0.027-0.047zM4.685 16.667h22.628c-0.072 1.216-0.325 2.352-0.733 3.41l0.026-0.077h-21.213c-0.382-0.982-0.635-2.117-0.705-3.302l-0.001-0.031zM3.624 6.677v0z"></path>
</svg>
