<!-- Generated by IcoMoon.io -->
<svg version="1.1" xmlns="http://www.w3.org/2000/svg" width="32" height="32" viewBox="0 0 32 32">
<title>bowl-chopsticks</title>
<path d="M12.157 2.807c0.475-0.282 1.089-0.125 1.37 0.35l5.24 8.843h9.546c0.563 0 1.020 0.457 1.020 1.020v2.98c0 4.785-2.52 8.981-6.306 11.333h3.973c0.552 0 1 0.448 1 1s-0.448 1-1 1h-22c-0.552 0-1-0.448-1-1s0.448-1 1-1h3.973c-3.786-2.352-6.306-6.548-6.306-11.333v-2.98c0-0.563 0.457-1.020 1.020-1.020h7.423l-4.636-7.823c-0.282-0.475-0.125-1.089 0.351-1.37s1.089-0.125 1.37 0.35l5.24 8.843h3.009l-4.636-7.823c-0.282-0.475-0.125-1.089 0.351-1.37zM4.667 14v2c0 0.451 0.026 0.896 0.078 1.333h22.511c0.051-0.437 0.078-0.882 0.078-1.333v-2h-22.667zM5.165 19.333c1.423 4.633 5.736 8 10.835 8s9.412-3.367 10.835-8h-21.67z"></path>
</svg>
