<!-- Generated by IcoMoon.io -->
<svg version="1.1" xmlns="http://www.w3.org/2000/svg" width="32" height="32" viewBox="0 0 32 32">
<title>box-search-regular</title>
<path d="M14.121 3.351c0.556-0.232 1.202-0.366 1.879-0.366s1.323 0.135 1.912 0.379l-0.033-0.012 9.997 4.053c0.862 0.356 1.457 1.19 1.457 2.163 0 0 0 0 0 0v0 12.433c0-0.003 0-0.007 0-0.011 0-1.947-0.762-3.716-2.003-5.026l0.003 0.003v-6.603l-10.333 3.989v2.283c-0.908 0.847-1.598 1.916-1.986 3.12l-0.014 0.052v-5.456l-10.333-4.019v12.104c0 0.139 0.085 0.257 0.206 0.307l0.002 0.001 9.999 4.053c0.032 0.013 0.064 0.027 0.096 0.037l0.283 0.115c0.223 0.093 0.482 0.147 0.753 0.147 0.224 0 0.44-0.037 0.641-0.105l-0.014 0.004c0.525 0.565 1.139 1.047 1.819 1.423l-0.573 0.232c-0.556 0.232-1.201 0.366-1.878 0.366s-1.322-0.134-1.911-0.378l0.033 0.012-9.997-4.053c-0.862-0.356-1.457-1.19-1.457-2.163 0 0 0 0 0 0v0-12.868c0 0 0 0 0 0 0-0.973 0.595-1.807 1.442-2.157l0.016-0.006 9.997-4.053zM17.127 5.204c-0.333-0.139-0.721-0.22-1.127-0.22s-0.793 0.081-1.147 0.227l0.020-0.007-2.553 1.036 10.036 3.903 3.559-1.373-8.789-3.564zM19.588 11.211l-9.968-3.877-3.5 1.419 9.881 3.843 3.587-1.384zM29.333 22.084v0zM26.891 25.477c0.694-0.966 1.11-2.173 1.11-3.477 0-3.314-2.686-6-6-6s-6 2.686-6 6c0 3.314 2.686 6 6 6 1.304 0 2.511-0.416 3.495-1.122l-0.018 0.012 3.483 3.484c0.183 0.196 0.443 0.318 0.732 0.318 0.552 0 1-0.448 1-1 0-0.289-0.122-0.549-0.318-0.731l-0.001-0.001-3.483-3.484zM26 22.001c0 2.209-1.791 4-4 4s-4-1.791-4-4v0c0-2.209 1.791-4 4-4s4 1.791 4 4v0z"></path>
</svg>
