<!-- Generated by IcoMoon.io -->
<svg version="1.1" xmlns="http://www.w3.org/2000/svg" width="32" height="32" viewBox="0 0 32 32">
<title>box-edit</title>
<path d="M17.879 3.349c-1.205-0.488-2.552-0.488-3.757 0l-9.998 4.053c-0.881 0.357-1.457 1.212-1.457 2.162v12.87c0 0.95 0.576 1.805 1.457 2.162l9.998 4.053c0.187 0.076 0.378 0.14 0.571 0.192 0.014-0.099 0.033-0.199 0.058-0.3l0.61-2.441c0.216-0.864 0.663-1.653 1.293-2.283l0.347-0.347v-9.12l10.333-3.99v4.313c0.678-0.044 1.364 0.068 2 0.338v-5.449c0-0.95-0.576-1.805-1.457-2.162l-9.998-4.053zM14.873 5.203c0.723-0.293 1.531-0.293 2.254 0l8.79 3.563-3.559 1.374-10.037-3.903 2.552-1.034zM9.62 7.333l9.969 3.877-3.587 1.385-9.882-3.843 3.5-1.419zM4.667 10.332l10.334 4.019v12.495c-0.043-0.015-0.085-0.031-0.127-0.048l-9.998-4.053c-0.126-0.051-0.208-0.173-0.208-0.309v-12.103zM25.467 16.893l-7.87 7.87c-0.459 0.459-0.784 1.034-0.942 1.663l-0.61 2.441c-0.265 1.061 0.696 2.023 1.758 1.758l2.441-0.61c0.629-0.157 1.204-0.483 1.663-0.942l7.87-7.87c1.19-1.19 1.19-3.12 0-4.31s-3.12-1.19-4.31 0z"></path>
</svg>
