<!-- Generated by IcoMoon.io -->
<svg version="1.1" xmlns="http://www.w3.org/2000/svg" width="32" height="32" viewBox="0 0 32 32">
<title>box-edit-regular</title>
<path d="M17.879 3.351c-0.556-0.232-1.202-0.366-1.879-0.366s-1.323 0.135-1.912 0.379l0.033-0.012-9.997 4.053c-0.862 0.356-1.457 1.19-1.457 2.163 0 0 0 0 0 0v0 12.871c0.001 0.972 0.596 1.806 1.442 2.156l0.016 0.006 9.997 4.053c0.187 0.076 0.379 0.14 0.571 0.193 0.013-0.1 0.033-0.2 0.059-0.301l0.611-2.44c0.216-0.864 0.663-1.653 1.293-2.283l0.347-0.347v-9.12l10.332-3.991v4.313c0.087-0.006 0.188-0.010 0.289-0.010 0.618 0 1.206 0.128 1.739 0.358l-0.029-0.011v-5.448c0 0 0 0 0 0 0-0.973-0.595-1.807-1.442-2.157l-0.015-0.006-9.997-4.053zM14.873 5.204c0.333-0.139 0.721-0.22 1.127-0.22s0.793 0.081 1.147 0.227l-0.020-0.007 8.791 3.564-3.56 1.373-10.036-3.901 2.552-1.035zM9.62 7.333l9.969 3.877-3.587 1.385-9.883-3.843 3.5-1.42zM4.667 10.333l10.333 4.019v12.495c-0.062-0.021-0.104-0.038-0.145-0.055l0.019 0.007-9.999-4.053c-0.123-0.051-0.208-0.17-0.208-0.309 0-0 0-0 0-0v0-12.103zM25.467 16.893l-7.871 7.871c-0.446 0.446-0.774 1.008-0.936 1.638l-0.005 0.025-0.611 2.441c-0.027 0.106-0.043 0.227-0.043 0.352 0 0.8 0.649 1.449 1.449 1.449 0.125 0 0.247-0.016 0.363-0.046l-0.010 0.002 2.44-0.609c0.655-0.167 1.218-0.496 1.664-0.943l7.869-7.869c0.532-0.548 0.86-1.297 0.86-2.122 0-1.683-1.365-3.048-3.048-3.048-0.825 0-1.573 0.328-2.122 0.86l0.001-0.001z"></path>
</svg>
