<!-- Generated by IcoMoon.io -->
<svg version="1.1" xmlns="http://www.w3.org/2000/svg" width="32" height="32" viewBox="0 0 32 32">
<title>box-dismiss</title>
<path d="M14.121 3.349c1.205-0.488 2.552-0.488 3.757 0l9.998 4.053c0.881 0.357 1.457 1.212 1.457 2.162v7.514c-0.592-0.569-1.265-1.054-2-1.437v-5.28l-10.333 3.99v3.064c-0.923 0.987-1.618 2.191-2 3.526v-6.593l-10.334-4.019v12.104c0 0.136 0.082 0.258 0.208 0.309l9.998 4.053c0.042 0.017 0.085 0.033 0.127 0.048v-1.122c0.346 1.208 0.948 2.308 1.743 3.238-0.879 0.132-1.785 0.028-2.621-0.311l-9.998-4.053c-0.881-0.357-1.457-1.212-1.457-2.162v-12.87c0-0.95 0.576-1.805 1.457-2.162l9.998-4.053zM17.127 5.203c-0.723-0.293-1.531-0.293-2.254 0l-2.552 1.034 10.036 3.903 3.559-1.374-8.789-3.563zM19.588 11.209l-9.969-3.877-3.499 1.419 9.881 3.843 3.586-1.385zM30.667 23.333c0 4.050-3.283 7.333-7.333 7.333s-7.333-3.283-7.333-7.333c0-4.050 3.283-7.333 7.333-7.333s7.333 3.283 7.333 7.333zM21.138 20.195c-0.26-0.26-0.683-0.26-0.943 0s-0.26 0.683 0 0.943l2.195 2.195-2.195 2.195c-0.26 0.26-0.26 0.683 0 0.943s0.683 0.26 0.943 0l2.195-2.195 2.195 2.195c0.26 0.26 0.683 0.26 0.943 0s0.26-0.683 0-0.943l-2.195-2.195 2.195-2.195c0.26-0.26 0.26-0.683 0-0.943s-0.683-0.26-0.943 0l-2.195 2.195-2.195-2.195z"></path>
</svg>
