<!-- Generated by IcoMoon.io -->
<svg version="1.1" xmlns="http://www.w3.org/2000/svg" width="32" height="32" viewBox="0 0 32 32">
<title>box-dismiss</title>
<path d="M14.121 3.351c0.556-0.232 1.202-0.366 1.879-0.366s1.323 0.135 1.912 0.379l-0.033-0.012 9.997 4.053c0.862 0.356 1.457 1.19 1.457 2.163 0 0 0 0 0 0v0 7.513c-0.578-0.555-1.235-1.033-1.953-1.413l-0.047-0.023v-5.28l-10.333 3.989v3.064c-0.908 0.968-1.598 2.152-1.985 3.465l-0.015 0.061v-6.592l-10.333-4.019v12.104c0 0.139 0.085 0.257 0.206 0.307l0.002 0.001 9.999 4.053c0.041 0.017 0.084 0.033 0.127 0.048v-1.121c0.347 1.208 0.948 2.307 1.743 3.237-0.223 0.035-0.481 0.056-0.743 0.056-0.677 0-1.323-0.135-1.911-0.378l0.033 0.012-9.997-4.053c-0.862-0.356-1.457-1.19-1.457-2.163 0 0 0 0 0 0v0-12.868c0 0 0 0 0 0 0-0.973 0.595-1.807 1.442-2.157l0.016-0.006 9.997-4.053zM17.127 5.204c-0.333-0.139-0.721-0.22-1.127-0.22s-0.793 0.081-1.147 0.227l0.020-0.007-2.553 1.036 10.036 3.903 3.559-1.373-8.789-3.564zM19.588 11.211l-9.968-3.877-3.5 1.419 9.881 3.843 3.587-1.384zM30.667 23.333c0 4.050-3.283 7.333-7.333 7.333s-7.333-3.283-7.333-7.333v0c0-4.050 3.283-7.333 7.333-7.333s7.333 3.283 7.333 7.333v0zM21.139 20.195c-0.121-0.121-0.288-0.196-0.472-0.196-0.368 0-0.667 0.299-0.667 0.667 0 0.184 0.075 0.351 0.195 0.471v0l2.196 2.196-2.196 2.195c-0.121 0.121-0.195 0.288-0.195 0.472 0 0.369 0.299 0.668 0.668 0.668 0.184 0 0.351-0.075 0.472-0.195l2.195-2.196 2.195 2.196c0.121 0.121 0.288 0.195 0.472 0.195 0.369 0 0.668-0.299 0.668-0.668 0-0.184-0.075-0.351-0.195-0.472l-2.196-2.195 2.196-2.196c0.12-0.121 0.195-0.287 0.195-0.471 0-0.368-0.299-0.667-0.667-0.667-0.184 0-0.351 0.075-0.472 0.196l-2.195 2.197-2.195-2.196z"></path>
</svg>
