<!-- Generated by IcoMoon.io -->
<svg version="1.1" xmlns="http://www.w3.org/2000/svg" width="32" height="32" viewBox="0 0 32 32">
<title>box-multiple</title>
<path d="M21.040 4.983c-0.309-0.118-0.667-0.186-1.040-0.186s-0.731 0.068-1.061 0.193l0.021-0.007-5.743 2.124c-0.128 0.048-0.217 0.17-0.217 0.312v3.724c-0.301-0.051-0.647-0.079-1-0.079s-0.699 0.029-1.037 0.084l0.037-0.005v-3.725c0-0.998 0.627-1.849 1.508-2.183l0.016-0.005 5.743-2.123c0.515-0.196 1.111-0.31 1.733-0.31s1.218 0.114 1.768 0.321l-0.034-0.011 5.743 2.123c0.897 0.339 1.524 1.19 1.524 2.188v14.227c0 0 0 0.001 0 0.001 0 0.998-0.627 1.85-1.508 2.183l-0.016 0.005-5.357 1.979c0.14-0.389 0.215-0.805 0.215-1.236v-0.975l4.449-1.644c0.128-0.049 0.217-0.17 0.217-0.313 0-0 0-0.001 0-0.001v0-14.227c-0-0.142-0.090-0.264-0.215-0.311l-0.002-0.001-5.743-2.123zM15.693 10.223c-0.395-0.14-0.674-0.51-0.674-0.945 0-0.552 0.448-1 1-1 0.117 0 0.229 0.020 0.334 0.057l-0.007-0.002 3.544 1.227c0.032 0.012 0.070 0.018 0.109 0.018s0.076-0.007 0.111-0.019l-0.002 0.001 3.533-1.227c0.098-0.035 0.21-0.055 0.328-0.055 0.553 0 1.001 0.448 1.001 1.001 0 0.435-0.278 0.805-0.666 0.943l-0.007 0.002-3.533 1.225c-0.227 0.081-0.49 0.128-0.763 0.128s-0.536-0.047-0.78-0.133l0.016 0.005-3.545-1.225zM7.693 19.556c-0.395-0.14-0.674-0.51-0.674-0.945 0-0.552 0.448-1 1-1 0.117 0 0.229 0.020 0.334 0.057l-0.007-0.002 3.653 1.264 3.643-1.263c0.105-0.041 0.227-0.065 0.355-0.065 0.552 0 1 0.448 1 1 0 0.446-0.292 0.823-0.695 0.952l-0.007 0.002-3.296 1.143v3.6c0 0.552-0.448 1-1 1s-1-0.448-1-1v0-3.6l-3.307-1.143zM13.733 12.707c-0.515-0.196-1.111-0.31-1.733-0.31s-1.218 0.114-1.768 0.321l0.034-0.011-5.743 2.123c-0.897 0.339-1.524 1.19-1.524 2.188v7.56c0 0 0 0.001 0 0.001 0 0.998 0.627 1.85 1.508 2.183l0.016 0.005 5.743 2.121c1.119 0.413 2.348 0.413 3.467 0l5.743-2.123c0.897-0.339 1.524-1.19 1.524-2.188 0-0 0-0.001 0-0.001v0-7.56c-0-0.998-0.627-1.849-1.508-2.183l-0.016-0.005-5.743-2.123zM10.96 14.583c0.309-0.118 0.667-0.186 1.040-0.186s0.731 0.068 1.061 0.193l-0.021-0.007 5.743 2.123c0.128 0.048 0.217 0.17 0.217 0.312v7.56c0 0 0 0.001 0 0.001 0 0.142-0.089 0.264-0.215 0.312l-0.002 0.001-5.743 2.121c-0.309 0.118-0.667 0.186-1.040 0.186s-0.731-0.068-1.061-0.193l0.021 0.007-5.743-2.123c-0.128-0.049-0.217-0.17-0.217-0.313 0-0 0-0.001 0-0.001v0-7.56c0-0.142 0.090-0.264 0.215-0.311l0.002-0.001 5.743-2.123z"></path>
</svg>
