<!-- Generated by IcoMoon.io -->
<svg version="1.1" xmlns="http://www.w3.org/2000/svg" width="32" height="32" viewBox="0 0 32 32">
<title>box-multiple-search</title>
<path d="M18.96 4.983c0.309-0.118 0.667-0.186 1.040-0.186s0.731 0.068 1.061 0.193l-0.021-0.007 5.743 2.123c0.128 0.048 0.217 0.17 0.217 0.312v9.217c0.908 0.847 1.598 1.916 1.986 3.12l0.014 0.052v-12.389c-0-0.998-0.627-1.849-1.508-2.183l-0.016-0.005-5.743-2.123c-0.515-0.196-1.111-0.31-1.733-0.31s-1.218 0.114-1.768 0.321l0.034-0.011-5.743 2.123c-0.897 0.339-1.524 1.19-1.524 2.188v3.724c0.301-0.051 0.647-0.079 1-0.079s0.699 0.029 1.037 0.084l-0.037-0.005v-3.724c0-0.142 0.089-0.264 0.215-0.311l0.002-0.001 5.743-2.123zM19.827 14.992c-0.099-0.058-0.214-0.113-0.335-0.159l-0.016-0.005-5.743-2.123c-0.515-0.196-1.111-0.31-1.733-0.31s-1.218 0.114-1.768 0.321l0.034-0.011-5.743 2.123c-0.897 0.339-1.524 1.19-1.524 2.188v7.56c0 0 0 0.001 0 0.001 0 0.998 0.627 1.85 1.508 2.183l0.016 0.005 5.743 2.123c1.119 0.413 2.348 0.413 3.467 0l3.519-1.301c-0.543-0.464-1.011-0.993-1.396-1.581l-0.017-0.028-2.799 1.035c-0.309 0.118-0.667 0.186-1.040 0.186s-0.731-0.068-1.061-0.193l0.021 0.007-5.743-2.123c-0.128-0.049-0.217-0.17-0.217-0.313 0-0 0-0.001 0-0.001v0-7.56c0-0.142 0.090-0.264 0.215-0.311l0.002-0.001 5.743-2.123c0.309-0.118 0.667-0.186 1.040-0.186s0.731 0.068 1.061 0.193l-0.021-0.007 4.44 1.641c0.667-0.527 1.447-0.947 2.295-1.216l0.052-0.014zM16.116 17.621c-0.043-0.007-0.093-0.011-0.144-0.011-0.118 0-0.231 0.020-0.336 0.058l0.007-0.002-3.643 1.263-3.653-1.264c-0.097-0.035-0.21-0.055-0.327-0.055-0.552 0-1 0.448-1 1 0 0.435 0.278 0.806 0.667 0.943l0.007 0.002 3.307 1.143v3.6c0 0.552 0.448 1 1 1s1-0.448 1-1v0-3.6l1.933-0.671c0.245-0.88 0.651-1.693 1.183-2.407zM15.073 8.951c-0.035 0.097-0.055 0.21-0.055 0.327 0 0.435 0.278 0.806 0.667 0.943l0.007 0.002 3.545 1.225c0.493 0.171 1.032 0.171 1.525 0l3.533-1.225c0.38-0.147 0.645-0.51 0.645-0.935 0-0.552-0.448-1-1-1-0.107 0-0.209 0.017-0.305 0.048l0.007-0.002-3.533 1.224c-0.033 0.012-0.070 0.018-0.109 0.018s-0.077-0.007-0.112-0.019l0.002 0.001-3.545-1.225c-0.097-0.035-0.21-0.055-0.327-0.055-0.435 0-0.806 0.278-0.943 0.667l-0.002 0.007zM26.891 25.475c0.694-0.966 1.11-2.173 1.11-3.477 0-3.314-2.686-6-6-6s-6 2.686-6 6c0 3.314 2.686 6 6 6 1.304 0 2.511-0.416 3.495-1.122l-0.018 0.012 3.483 3.484c0.178 0.166 0.418 0.268 0.682 0.268 0.552 0 1-0.448 1-1 0-0.264-0.102-0.504-0.269-0.682l0.001 0.001-3.483-3.484zM26 22c0 2.209-1.791 4-4 4s-4-1.791-4-4v0c0-2.209 1.791-4 4-4s4 1.791 4 4v0z"></path>
</svg>
