<!-- Generated by IcoMoon.io -->
<svg version="1.1" xmlns="http://www.w3.org/2000/svg" width="32" height="32" viewBox="0 0 32 32">
<title>box-toolbox-regular</title>
<path d="M17.879 3.351c-0.556-0.232-1.202-0.366-1.879-0.366s-1.323 0.135-1.912 0.379l0.033-0.012-9.997 4.053c-0.862 0.356-1.457 1.19-1.457 2.163 0 0 0 0 0 0v0 12.871c0.001 0.972 0.596 1.806 1.442 2.156l0.016 0.006 9.997 4.053c0.18 0.073 0.364 0.136 0.549 0.187-0.003-0.050-0.004-0.108-0.004-0.166 0-0.002 0-0.003 0-0.005v0-1.953l-9.792-3.968c-0.123-0.051-0.208-0.17-0.208-0.309 0-0 0-0 0-0v0-12.104l10.333 4.019v6.193c0.406-0.821 1.115-1.44 1.976-1.719l0.024-0.007v-4.467l10.333-3.989v5.037c1.192 0.618 1.994 1.84 2 3.25v0.001-9.085c0 0 0 0 0 0 0-0.973-0.595-1.807-1.442-2.157l-0.015-0.006-9.997-4.053zM14.873 5.204c0.333-0.139 0.721-0.22 1.127-0.22s0.793 0.081 1.147 0.227l-0.020-0.007 8.791 3.564-3.56 1.373-10.036-3.901 2.552-1.035zM9.62 7.333l9.969 3.877-3.587 1.385-9.883-3.843 3.5-1.42zM18.667 20.001h-0.667c-1.105 0-2 0.895-2 2v0 2h3.333v-0.333c0-0.552 0.448-1 1-1s1 0.448 1 1v0 0.333h4v-0.333c0-0.552 0.448-1 1-1s1 0.448 1 1v0 0.333h3.333v-2c0-1.105-0.895-2-2-2v0h-0.667v-1.333c0-1.289-1.045-2.333-2.333-2.333v0h-4.667c-1.289 0-2.333 1.045-2.333 2.333v0 1.333zM20.667 18.668c0-0.184 0.149-0.333 0.333-0.333v0h4.667c0.184 0 0.333 0.149 0.333 0.333v0 1.333h-5.333v-1.333zM16 28.668v-2.667h3.333v1c0 0.552 0.448 1 1 1s1-0.448 1-1v0-1h4v1c0 0.552 0.448 1 1 1s1-0.448 1-1v0-1h3.333v2.667c0 1.105-0.895 2-2 2v0h-10.667c-1.105 0-2-0.895-2-2v0z"></path>
</svg>
