<!-- Generated by IcoMoon.io -->
<svg version="1.1" xmlns="http://www.w3.org/2000/svg" width="32" height="32" viewBox="0 0 32 32">
<title>box-multiple-arrow-right</title>
<path d="M21.040 4.983c-0.309-0.118-0.667-0.186-1.040-0.186s-0.731 0.068-1.061 0.193l0.021-0.007-5.743 2.124c-0.128 0.048-0.217 0.17-0.217 0.312v3.724c-0.301-0.051-0.647-0.079-1-0.079s-0.699 0.029-1.037 0.084l0.037-0.005v-3.725c0-0.998 0.627-1.849 1.508-2.183l0.016-0.005 5.743-2.123c0.515-0.196 1.111-0.31 1.733-0.31s1.218 0.114 1.768 0.321l-0.034-0.011 5.743 2.123c0.897 0.339 1.524 1.19 1.524 2.188v9.357c-0.578-0.502-1.236-0.936-1.948-1.275l-0.052-0.023v-8.060c-0-0.142-0.090-0.264-0.215-0.311l-0.002-0.001-5.743-2.123zM19.476 14.828c0.267 0.099 0.509 0.244 0.717 0.424-0.809 0.319-1.509 0.72-2.139 1.206l0.020-0.015-5.035-1.861c-0.309-0.118-0.667-0.186-1.040-0.186s-0.731 0.068-1.061 0.193l0.021-0.007-5.743 2.123c-0.128 0.048-0.217 0.17-0.217 0.312v7.56c0 0 0 0.001 0 0.001 0 0.142 0.089 0.264 0.215 0.312l0.002 0.001 5.743 2.123c0.309 0.118 0.667 0.186 1.040 0.186s0.731-0.068 1.061-0.193l-0.021 0.007 2.121-0.785c0.227 0.64 0.527 1.244 0.888 1.804l-2.316 0.857c-0.515 0.196-1.111 0.31-1.733 0.31s-1.218-0.114-1.768-0.321l0.034 0.011-5.743-2.123c-0.897-0.339-1.524-1.19-1.524-2.188 0-0 0-0.001 0-0.001v0-7.56c0-0.998 0.627-1.849 1.508-2.183l0.016-0.005 5.743-2.123c0.515-0.196 1.111-0.31 1.733-0.31s1.218 0.114 1.768 0.321l-0.034-0.011 5.743 2.123zM15.643 17.667c0.098-0.035 0.211-0.055 0.328-0.055 0.248 0 0.476 0.091 0.651 0.241l-0.001-0.001c-0.48 0.584-0.894 1.249-1.213 1.966l-0.022 0.055-2.387 0.827v3.6c0 0.552-0.448 1-1 1s-1-0.448-1-1v0-3.6l-3.307-1.143c-0.395-0.14-0.674-0.51-0.674-0.945 0-0.552 0.448-1 1-1 0.117 0 0.229 0.020 0.334 0.057l-0.007-0.002 3.653 1.264 3.644-1.263zM15.692 10.223c-0.395-0.14-0.674-0.51-0.674-0.945 0-0.552 0.448-1 1-1 0.117 0 0.229 0.020 0.334 0.057l-0.007-0.002 3.545 1.227c0.032 0.012 0.070 0.018 0.109 0.018s0.076-0.007 0.111-0.019l-0.002 0.001 3.533-1.227c0.098-0.035 0.21-0.055 0.328-0.055 0.553 0 1.001 0.448 1.001 1.001 0 0.435-0.278 0.805-0.666 0.943l-0.007 0.002-3.533 1.225c-0.227 0.081-0.49 0.128-0.763 0.128s-0.536-0.047-0.78-0.133l0.016 0.005-3.545-1.225zM30.667 23.333c0 4.050-3.283 7.333-7.333 7.333s-7.333-3.283-7.333-7.333v0c0-4.050 3.283-7.333 7.333-7.333s7.333 3.283 7.333 7.333v0zM19.333 22.667c-0.368 0-0.667 0.298-0.667 0.667s0.298 0.667 0.667 0.667v0h6.391l-2.196 2.195c-0.121 0.121-0.195 0.288-0.195 0.472 0 0.369 0.299 0.668 0.668 0.668 0.184 0 0.351-0.075 0.472-0.195l3.333-3.333c0.121-0.121 0.196-0.288 0.196-0.472s-0.075-0.351-0.196-0.472v0l-3.333-3.333c-0.121-0.121-0.288-0.195-0.472-0.195-0.369 0-0.668 0.299-0.668 0.668 0 0.184 0.075 0.351 0.195 0.472l2.196 2.195h-6.391z"></path>
</svg>
