<!-- Generated by IcoMoon.io -->
<svg version="1.1" xmlns="http://www.w3.org/2000/svg" width="32" height="32" viewBox="0 0 32 32">
<title>box</title>
<path d="M14.121 3.351c0.556-0.232 1.202-0.366 1.879-0.366s1.323 0.135 1.912 0.379l-0.033-0.012 9.997 4.053c0.862 0.356 1.457 1.19 1.457 2.163 0 0 0 0 0 0v0 12.871c-0.001 0.972-0.596 1.806-1.442 2.156l-0.015 0.006-9.997 4.053c-0.556 0.232-1.202 0.366-1.879 0.366s-1.323-0.135-1.912-0.379l0.033 0.012-9.997-4.053c-0.862-0.356-1.457-1.19-1.457-2.163 0 0 0 0 0 0v0-12.868c0 0 0 0 0 0 0-0.973 0.595-1.807 1.442-2.157l0.016-0.006 9.997-4.053zM17.127 5.204c-0.333-0.139-0.721-0.22-1.127-0.22s-0.793 0.081-1.147 0.227l0.020-0.007-2.553 1.036 10.036 3.903 3.559-1.373-8.789-3.564zM19.588 11.211l-9.968-3.877-3.5 1.419 9.881 3.843 3.587-1.384zM4.667 22.437c0 0.139 0.085 0.257 0.206 0.307l0.002 0.001 9.999 4.053c0.041 0.017 0.084 0.033 0.127 0.048v-12.495l-10.333-4.019v12.104zM17.127 26.799l9.999-4.053c0.123-0.051 0.208-0.17 0.208-0.309 0-0 0-0 0-0v0-12.071l-10.333 3.989v12.493c0.063-0.022 0.105-0.038 0.146-0.055l-0.019 0.007z"></path>
</svg>
