<!-- Generated by IcoMoon.io -->
<svg version="1.1" xmlns="http://www.w3.org/2000/svg" width="32" height="32" viewBox="0 0 32 32">
<title>braces-variable</title>
<path d="M4.667 7.667c0-2.025 1.642-3.667 3.667-3.667v0c0.552 0 1 0.448 1 1s-0.448 1-1 1v0c-0.92 0-1.667 0.747-1.667 1.667v5.745c0 0.992-0.4 1.916-1.069 2.588 0.669 0.672 1.069 1.596 1.069 2.588v5.745c0 0.92 0.747 1.667 1.667 1.667 0.552 0 1 0.448 1 1s-0.448 1-1 1v0c-2.025 0-3.667-1.642-3.667-3.667v0-5.745c-0.001-0.732-0.472-1.353-1.128-1.577l-0.012-0.003-0.176-0.060c-0.4-0.137-0.682-0.51-0.682-0.948s0.282-0.811 0.675-0.946l0.007-0.002 0.176-0.060c0.68-0.227 1.14-0.863 1.14-1.58v-5.745zM27.333 7.667c0-2.025-1.642-3.667-3.667-3.667v0c-0.552 0-1 0.448-1 1s0.448 1 1 1v0c0.92 0 1.667 0.747 1.667 1.667v5.745c0 0.992 0.4 1.916 1.069 2.588-0.661 0.663-1.069 1.578-1.069 2.588 0 0 0 0 0 0v-0 5.745c0 0.92-0.747 1.667-1.667 1.667-0.552 0-1 0.448-1 1s0.448 1 1 1v0c2.025 0 3.667-1.642 3.667-3.667v0-5.745c0-0.717 0.459-1.353 1.14-1.58l0.176-0.060c0.4-0.137 0.682-0.51 0.682-0.948s-0.282-0.811-0.675-0.946l-0.007-0.002-0.176-0.060c-0.668-0.227-1.139-0.848-1.14-1.58v-5.745zM12.123 9.387c-0.184-0.249-0.477-0.409-0.806-0.409-0.552 0-1 0.448-1 1 0 0.242 0.086 0.464 0.229 0.637l-0.001-0.002 4.189 5.387-4.189 5.387c-0.121 0.163-0.194 0.369-0.194 0.591 0 0.552 0.448 1 1 1 0.31 0 0.587-0.141 0.771-0.363l0.001-0.002 3.877-4.983 3.877 4.985c0.185 0.236 0.469 0.386 0.789 0.386 0.552 0 1-0.448 1-1 0-0.232-0.079-0.446-0.212-0.616l0.002 0.002-4.189-5.388 4.189-5.387c0.121-0.163 0.194-0.369 0.194-0.591 0-0.552-0.448-1-1-1-0.31 0-0.587 0.141-0.771 0.363l-0.001 0.002-3.877 4.984-3.877-4.984z"></path>
</svg>
