<!-- Generated by IcoMoon.io -->
<svg version="1.1" xmlns="http://www.w3.org/2000/svg" width="32" height="32" viewBox="0 0 32 32">
<title>braces-regular</title>
<path d="M9.5 4.003c-1.749 0-3.167 1.418-3.167 3.167v0 5.483c0 0.582-0.013 1.018-0.207 1.413-0.172 0.351-0.555 0.787-1.575 1.153-0.324 0.119-0.552 0.425-0.552 0.784s0.228 0.667 0.548 0.783l0.006 0.002c1.013 0.36 1.38 0.787 1.557 1.192 0.209 0.484 0.223 1.084 0.223 2.004v4.852c0 1.749 1.418 3.167 3.167 3.167v0h0.333c0.46 0 0.833-0.373 0.833-0.833s-0.373-0.833-0.833-0.833v0h-0.333c-0.828 0-1.5-0.672-1.5-1.5v0-4.935c0-0.81 0.001-1.75-0.36-2.584-0.234-0.53-0.584-0.971-1.020-1.306l-0.008-0.006c0.461-0.351 0.79-0.755 1.011-1.205 0.378-0.769 0.378-1.565 0.377-2.1v-5.531c0-0.828 0.672-1.5 1.5-1.5v0h0.333c0.46 0 0.833-0.373 0.833-0.833s-0.373-0.833-0.833-0.833v0h-0.333zM22.5 4.003c1.749 0 3.167 1.418 3.167 3.167v0 5.483c0 0.582 0.013 1.018 0.207 1.413 0.172 0.351 0.555 0.787 1.575 1.153 0.324 0.119 0.552 0.425 0.552 0.784s-0.228 0.667-0.548 0.783l-0.006 0.002c-1.013 0.36-1.38 0.787-1.557 1.192-0.209 0.484-0.223 1.084-0.223 2.004v4.852c0 1.749-1.418 3.167-3.167 3.167v0h-0.333c-0.46 0-0.833-0.373-0.833-0.833s0.373-0.833 0.833-0.833v0h0.333c0.828 0 1.5-0.672 1.5-1.5v0-4.935c0-0.81-0.001-1.75 0.36-2.584 0.234-0.53 0.584-0.971 1.020-1.306l0.008-0.006c-0.461-0.351-0.79-0.755-1.011-1.205-0.378-0.769-0.378-1.565-0.377-2.1v-5.531c0-0.828-0.672-1.5-1.5-1.5v0h-0.333c-0.46 0-0.833-0.373-0.833-0.833s0.373-0.833 0.833-0.833v0h0.333z"></path>
</svg>
