<!-- Generated by IcoMoon.io -->
<svg version="1.1" xmlns="http://www.w3.org/2000/svg" width="32" height="32" viewBox="0 0 32 32">
<title>brain-circuit</title>
<path d="M9.536 4.015c1.109-0.863 2.559-1.341 4.001-1.341 0.862 0 1.56 0.296 2.089 0.767 0.143 0.127 0.27 0.264 0.383 0.406 0.113-0.142 0.24-0.279 0.383-0.406 0.529-0.47 1.227-0.766 2.089-0.766 1.442 0 2.892 0.478 4.001 1.341 0.863 0.672 1.539 1.597 1.804 2.717 0.56 0.093 1.058 0.378 1.461 0.756 0.641 0.602 1.097 1.471 1.384 2.365 0.291 0.908 0.437 1.929 0.393 2.908-0.023 0.502-0.096 1.013-0.237 1.502 0.029 0.013 0.059 0.026 0.088 0.039 0.494 0.233 0.893 0.597 1.193 1.081 0.567 0.913 0.766 2.228 0.766 3.904 0 1.926-0.736 3.234-1.683 4.046-0.549 0.471-1.156 0.763-1.693 0.919-0.186 0.923-0.651 1.964-1.359 2.849-0.964 1.206-2.462 2.225-4.476 2.225-1.614 0-2.884-0.892-3.7-1.748-0.149-0.157-0.287-0.316-0.414-0.474-0.127 0.159-0.265 0.318-0.414 0.474-0.816 0.856-2.086 1.748-3.7 1.748-2.014 0-3.512-1.019-4.476-2.225-0.708-0.885-1.173-1.926-1.359-2.849-0.537-0.156-1.143-0.448-1.693-0.919-0.947-0.812-1.683-2.12-1.683-4.046 0-1.676 0.199-2.991 0.766-3.904 0.3-0.484 0.699-0.848 1.193-1.081 0.029-0.014 0.058-0.027 0.088-0.039-0.141-0.489-0.214-1.001-0.237-1.502-0.044-0.98 0.102-2 0.393-2.908 0.287-0.894 0.743-1.763 1.384-2.365 0.403-0.378 0.9-0.663 1.461-0.756 0.265-1.12 0.941-2.046 1.804-2.717zM10.764 5.594c-0.728 0.566-1.154 1.321-1.154 2.19 0 0.322-0.155 0.623-0.415 0.811s-0.596 0.239-0.901 0.137c-0.183-0.061-0.376-0.046-0.654 0.215-0.308 0.289-0.622 0.814-0.848 1.518-0.222 0.691-0.333 1.474-0.3 2.207 0.033 0.742 0.21 1.357 0.488 1.774 0.046 0.070 0.083 0.144 0.111 0.221h1.443c2.006 0 3.648 1.554 3.79 3.523 0.983 0.393 1.677 1.354 1.677 2.477 0 1.473-1.194 2.667-2.667 2.667s-2.667-1.194-2.667-2.667c0-1.112 0.68-2.064 1.647-2.465-0.128-0.869-0.877-1.535-1.781-1.535h-3.467c-0.011 0-0.022-0-0.034-0.001-0.199 0.464-0.349 1.266-0.349 2.622 0 1.361 0.495 2.108 0.985 2.528 0.538 0.461 1.128 0.581 1.299 0.581 0.552 0 1 0.448 1 1 0 0.559 0.309 1.577 1.013 2.457 0.678 0.849 1.644 1.473 2.914 1.473 0.849 0 1.632-0.477 2.253-1.128 0.302-0.317 0.537-0.646 0.691-0.914 0.077-0.134 0.127-0.24 0.155-0.31l0.007-0.018v-3.274c-0-0.006-0-0.011-0-0.017s0-0.011 0-0.017v-9.316h-1.194c-0.396 0.977-1.354 1.667-2.473 1.667-1.473 0-2.667-1.194-2.667-2.667s1.194-2.667 2.667-2.667c1.119 0 2.077 0.689 2.473 1.667h1.194v-3.369l-0-0.015c-0-0.015-0.001-0.041-0.003-0.076-0.004-0.070-0.011-0.175-0.027-0.302-0.032-0.26-0.096-0.589-0.213-0.903-0.119-0.319-0.275-0.569-0.46-0.734-0.164-0.146-0.39-0.261-0.759-0.261-1.021 0-2.034 0.344-2.773 0.919zM17.017 22.667v2.291l0.007 0.018c0.028 0.070 0.077 0.177 0.155 0.31 0.154 0.267 0.389 0.597 0.691 0.914 0.621 0.651 1.403 1.128 2.253 1.128 1.27 0 2.235-0.625 2.914-1.473 0.704-0.88 1.013-1.899 1.013-2.457 0-0.552 0.448-1 1-1 0.171 0 0.761-0.119 1.299-0.581 0.49-0.42 0.985-1.167 0.985-2.528 0-1.611-0.211-2.44-0.465-2.849-0.11-0.178-0.225-0.269-0.347-0.327-0.135-0.064-0.337-0.112-0.651-0.112-0.369 0-0.707-0.203-0.882-0.528s-0.155-0.719 0.049-1.026c0.278-0.417 0.454-1.032 0.488-1.774 0.033-0.733-0.078-1.516-0.3-2.207-0.226-0.704-0.54-1.229-0.848-1.518-0.278-0.261-0.471-0.276-0.654-0.215-0.305 0.102-0.64 0.051-0.901-0.137s-0.415-0.49-0.415-0.811c0-0.869-0.426-1.623-1.154-2.19-0.739-0.575-1.751-0.919-2.773-0.919-0.37 0-0.595 0.115-0.759 0.261-0.185 0.164-0.34 0.415-0.46 0.734-0.118 0.314-0.181 0.643-0.213 0.903-0.016 0.127-0.024 0.232-0.027 0.302-0.002 0.035-0.003 0.061-0.003 0.076l-0 0.015v13.702h0.849c0.994 0 1.8-0.806 1.8-1.8v-2.394c-0.977-0.396-1.667-1.354-1.667-2.473 0-1.473 1.194-2.667 2.667-2.667s2.667 1.194 2.667 2.667c0 1.119-0.689 2.077-1.667 2.473v2.394c0 2.099-1.701 3.8-3.8 3.8h-0.849zM11.333 10.667c-0.368 0-0.667 0.298-0.667 0.667s0.298 0.667 0.667 0.667c0.368 0 0.667-0.298 0.667-0.667s-0.298-0.667-0.667-0.667zM10.667 20.667c0 0.368 0.298 0.667 0.667 0.667s0.667-0.299 0.667-0.667c0-0.368-0.298-0.667-0.667-0.667s-0.667 0.299-0.667 0.667zM20 14c0 0.368 0.299 0.667 0.667 0.667s0.667-0.299 0.667-0.667c0-0.368-0.299-0.667-0.667-0.667s-0.667 0.299-0.667 0.667z"></path>
</svg>
