<!-- Generated by IcoMoon.io -->
<svg version="1.1" xmlns="http://www.w3.org/2000/svg" width="32" height="32" viewBox="0 0 32 32">
<title>branch-request</title>
<path d="M8.8 12.734c2.285-0.397 4-2.364 4-4.733 0-2.651-2.149-4.8-4.8-4.8s-4.8 2.149-4.8 4.8c0 2.368 1.715 4.336 3.971 4.729l0.029 0.004v6.531c-2.285 0.397-4 2.364-4 4.733 0 2.651 2.149 4.8 4.8 4.8s4.8-2.149 4.8-4.8c0-2.368-1.715-4.336-3.971-4.729l-0.029-0.004v-6.53zM8 11.2c-1.767 0-3.2-1.433-3.2-3.2s1.433-3.2 3.2-3.2v0c1.767 0 3.2 1.433 3.2 3.2s-1.433 3.2-3.2 3.2v0zM11.2 24c0 1.767-1.433 3.2-3.2 3.2s-3.2-1.433-3.2-3.2v0c0-1.767 1.433-3.2 3.2-3.2s3.2 1.433 3.2 3.2v0zM17.834 10.966c0.145 0.145 0.345 0.235 0.566 0.235 0.442 0 0.801-0.359 0.801-0.801 0-0.221-0.090-0.421-0.235-0.566v0l-1.835-1.834h2.869c2.209 0 4 1.791 4 4v0 7.2c-2.648 0.004-4.793 2.152-4.793 4.8 0 2.651 2.149 4.8 4.8 4.8s4.8-2.149 4.8-4.8c0-2.080-1.323-3.851-3.174-4.517l-0.033-0.011v-7.472c0-3.093-2.507-5.6-5.6-5.6v0h-2.869l1.835-1.834c0.145-0.145 0.235-0.345 0.235-0.566 0-0.442-0.359-0.801-0.801-0.801-0.221 0-0.421 0.090-0.566 0.235v0l-3.2 3.2c-0.145 0.145-0.235 0.345-0.235 0.566s0.090 0.422 0.235 0.566l3.2 3.2zM27.2 24c0 1.767-1.433 3.2-3.2 3.2s-3.2-1.433-3.2-3.2v0c0-1.767 1.433-3.2 3.2-3.2s3.2 1.433 3.2 3.2v0z"></path>
</svg>
