<!-- Generated by IcoMoon.io -->
<svg version="1.1" xmlns="http://www.w3.org/2000/svg" width="32" height="32" viewBox="0 0 32 32">
<title>branch-fork</title>
<path d="M14.667 7.333c0 2.351-1.738 4.296-4 4.619v3.381h8.333c1.657 0 3-1.343 3-3v-0.527c-1.928-0.574-3.333-2.359-3.333-4.473 0-2.577 2.089-4.667 4.667-4.667s4.667 2.089 4.667 4.667c0 2.351-1.739 4.296-4 4.619v0.381c0 2.761-2.239 5-5 5h-8.333v2.714c2.262 0.324 4 2.269 4 4.619 0 2.577-2.089 4.667-4.667 4.667s-4.667-2.089-4.667-4.667c0-2.114 1.406-3.9 3.333-4.473v-8.386c-1.928-0.574-3.333-2.359-3.333-4.473 0-2.577 2.089-4.667 4.667-4.667s4.667 2.089 4.667 4.667zM10 10c1.473 0 2.667-1.194 2.667-2.667s-1.194-2.667-2.667-2.667c-1.473 0-2.667 1.194-2.667 2.667s1.194 2.667 2.667 2.667zM23.333 10c1.473 0 2.667-1.194 2.667-2.667s-1.194-2.667-2.667-2.667c-1.473 0-2.667 1.194-2.667 2.667s1.194 2.667 2.667 2.667zM12.667 24.667c0-1.473-1.194-2.667-2.667-2.667s-2.667 1.194-2.667 2.667c0 1.473 1.194 2.667 2.667 2.667s2.667-1.194 2.667-2.667z"></path>
</svg>
