<!-- Generated by IcoMoon.io -->
<svg version="1.1" xmlns="http://www.w3.org/2000/svg" width="32" height="32" viewBox="0 0 32 32">
<title>branch-compare</title>
<path d="M12 7.333c0 2.351-1.738 4.296-4 4.619v8.047c0 2.209 1.791 4 4 4h3.586l-1.293-1.293c-0.391-0.391-0.391-1.024 0-1.414s1.024-0.391 1.414 0l3 3c0.391 0.391 0.391 1.024 0 1.414l-3 3c-0.391 0.391-1.024 0.391-1.414 0s-0.391-1.024 0-1.414l1.293-1.293h-3.586c-3.314 0-6-2.686-6-6v-8.167l0-0.026c-1.928-0.574-3.334-2.359-3.334-4.474 0-2.577 2.089-4.667 4.667-4.667s4.667 2.089 4.667 4.667zM10 7.333c0-1.473-1.194-2.667-2.667-2.667s-2.667 1.194-2.667 2.667c0 1.473 1.194 2.667 2.667 2.667s2.667-1.194 2.667-2.667zM29.333 24.667c0 2.577-2.089 4.667-4.667 4.667s-4.667-2.089-4.667-4.667c0-2.351 1.739-4.296 4-4.619v-8.047c0-2.209-1.791-4-4-4h-2.586l1.293 1.293c0.391 0.391 0.391 1.024 0 1.414s-1.024 0.391-1.414 0l-3-3c-0.391-0.391-0.391-1.024 0-1.414l3-3c0.391-0.391 1.024-0.391 1.414 0s0.391 1.024 0 1.414l-1.293 1.293h2.586c3.314 0 6 2.686 6 6v8.167l-0 0.027c1.928 0.574 3.334 2.359 3.334 4.473zM27.333 24.667c0-1.473-1.194-2.667-2.667-2.667s-2.667 1.194-2.667 2.667c0 1.473 1.194 2.667 2.667 2.667s2.667-1.194 2.667-2.667z"></path>
</svg>
