<!-- Generated by IcoMoon.io -->
<svg version="1.1" xmlns="http://www.w3.org/2000/svg" width="32" height="32" viewBox="0 0 32 32">
<title>branch-fork-regular</title>
<path d="M9 10c-1.657 0-3-1.343-3-3s1.343-3 3-3v0c1.657 0 3 1.343 3 3s-1.343 3-3 3v0zM10 11.9c2.292-0.487 3.987-2.495 3.987-4.898 0-2.757-2.231-4.994-4.987-5.002h-0.001c-0.002 0-0.003 0-0.005 0-2.761 0-5 2.239-5 5 0 2.409 1.704 4.42 3.973 4.894l0.032 0.006v8.2c-2.292 0.487-3.987 2.495-3.987 4.898 0 2.757 2.231 4.994 4.987 5.002h0.001c0.002 0 0.003 0 0.005 0 2.761 0 5-2.239 5-5 0-2.409-1.704-4.421-3.973-4.894l-0.033-0.006v-2.1h9c2.761 0 5-2.239 5-5v0-1.1c2.292-0.487 3.987-2.495 3.987-4.898 0-2.757-2.231-4.994-4.987-5.002h-0.001c-0.002 0-0.003 0-0.005 0-2.761 0-5 2.239-5 5 0 2.409 1.704 4.42 3.973 4.894l0.032 0.006v1.1c0 1.657-1.343 3-3 3v0h-9v-4.1zM23 10c-1.657 0-3-1.343-3-3s1.343-3 3-3v0c1.657 0 3 1.343 3 3s-1.343 3-3 3v0zM12 25c0 1.657-1.343 3-3 3s-3-1.343-3-3v0c0-1.657 1.343-3 3-3s3 1.343 3 3v0z"></path>
</svg>
