<!-- Generated by IcoMoon.io -->
<svg version="1.1" xmlns="http://www.w3.org/2000/svg" width="32" height="32" viewBox="0 0 32 32">
<title>branch-fork-link</title>
<path d="M8 11.953c2.275-0.338 4-2.277 4-4.619 0-2.577-2.089-4.667-4.667-4.667s-4.667 2.089-4.667 4.667c0 2.102 1.39 3.879 3.3 4.463l0.033 0.009v8.387c-1.938 0.598-3.322 2.372-3.322 4.471 0 2.574 2.083 4.661 4.654 4.669h0.001c0.003 0 0.005 0 0.008 0 2.577 0 4.667-2.089 4.667-4.667 0-2.345-1.73-4.286-3.983-4.617l-0.025-0.003v-2.713h8.333c2.761 0 5-2.239 5-5v0-0.38c2.275-0.338 4-2.277 4-4.619 0-2.577-2.089-4.667-4.667-4.667s-4.667 2.089-4.667 4.667c0 2.102 1.39 3.879 3.3 4.463l0.033 0.009v0.527c0 1.657-1.343 3-3 3v0h-8.333v-3.38zM10 7.333c0 1.473-1.194 2.667-2.667 2.667s-2.667-1.194-2.667-2.667v0c0-1.473 1.194-2.667 2.667-2.667s2.667 1.194 2.667 2.667v0zM23.333 7.333c0 1.473-1.194 2.667-2.667 2.667s-2.667-1.194-2.667-2.667v0c0-1.473 1.194-2.667 2.667-2.667s2.667 1.194 2.667 2.667v0zM7.333 22c1.473 0 2.667 1.194 2.667 2.667s-1.194 2.667-2.667 2.667v0c-1.473 0-2.667-1.194-2.667-2.667s1.194-2.667 2.667-2.667v0zM30.667 25c0-2.761-2.239-5-5-5v0l-0.136 0.009c-0.491 0.069-0.864 0.486-0.864 0.991 0 0.552 0.448 1 1 1h0l0.205 0.007c1.569 0.108 2.8 1.407 2.8 2.993 0 1.657-1.343 3-3 3-0.002 0-0.004 0-0.006 0h0l-0.004 0.007-0.136 0.009c-0.491 0.069-0.864 0.486-0.864 0.991 0 0.552 0.448 1 1 1 0.003 0 0.006 0 0.008-0h-0v-0.007l0.267-0.007c2.642-0.148 4.729-2.326 4.729-4.993 0-0 0-0 0-0.001v0zM22 21c0-0.552-0.448-1-1-1v0l-0.267 0.007c-2.648 0.141-4.742 2.323-4.742 4.993 0 2.761 2.239 5 5 5 0.003 0 0.006 0 0.009 0h-0l0.136-0.009c0.491-0.069 0.864-0.486 0.864-0.991 0-0.552-0.448-1-1-1h-0l-0.205-0.007c-1.569-0.108-2.8-1.407-2.8-2.993 0-1.657 1.343-3 3-3 0.002 0 0.004 0 0.006 0h-0l0.136-0.009c0.491-0.069 0.864-0.486 0.864-0.991v0zM26.667 25c0-0.552-0.448-1-1-1v0h-4.667l-0.136 0.009c-0.491 0.069-0.864 0.486-0.864 0.991 0 0.552 0.448 1 1 1h4.667l0.136-0.009c0.491-0.069 0.864-0.486 0.864-0.991v0z"></path>
</svg>
