<!-- Generated by IcoMoon.io -->
<svg version="1.1" xmlns="http://www.w3.org/2000/svg" width="32" height="32" viewBox="0 0 32 32">
<title>branch-fork-hint</title>
<path d="M8.667 2.667c-2.577 0-4.667 2.089-4.667 4.667 0 2.114 1.406 3.9 3.333 4.473v7.193c0 0.552 0.448 1 1 1s1-0.448 1-1v-1.667h8.333c2.761 0 5-2.239 5-5v-0.381c2.261-0.323 4-2.268 4-4.619 0-2.577-2.089-4.667-4.667-4.667s-4.667 2.089-4.667 4.667c0 2.114 1.406 3.9 3.333 4.473v0.527c0 1.657-1.343 3-3 3h-8.333v-3.381c2.262-0.323 4-2.268 4-4.619 0-2.577-2.089-4.667-4.667-4.667zM6 7.333c0-1.473 1.194-2.667 2.667-2.667s2.667 1.194 2.667 2.667c0 1.473-1.194 2.667-2.667 2.667s-2.667-1.194-2.667-2.667zM22 4.667c1.473 0 2.667 1.194 2.667 2.667s-1.194 2.667-2.667 2.667c-1.473 0-2.667-1.194-2.667-2.667s1.194-2.667 2.667-2.667zM7.122 22.513c0.449-0.321 0.553-0.946 0.232-1.395s-0.946-0.553-1.395-0.232c-0.207 0.148-0.403 0.314-0.588 0.499-0.474 0.474-0.826 1.027-1.054 1.618-0.199 0.515 0.058 1.094 0.574 1.293s1.094-0.058 1.293-0.574c0.129-0.335 0.329-0.65 0.602-0.923 0.107-0.107 0.219-0.202 0.337-0.286zM11.375 20.886c-0.449-0.321-1.074-0.217-1.395 0.232s-0.217 1.074 0.232 1.395c0.118 0.084 0.23 0.179 0.337 0.286 0.273 0.273 0.473 0.588 0.602 0.923 0.199 0.515 0.777 0.772 1.293 0.574s0.772-0.777 0.574-1.293c-0.228-0.591-0.58-1.144-1.054-1.618-0.185-0.185-0.381-0.351-0.588-0.499zM6.369 26.025c-0.279-0.476-0.892-0.636-1.369-0.357s-0.636 0.892-0.357 1.369c0.197 0.336 0.44 0.652 0.727 0.939 0.371 0.371 0.79 0.667 1.239 0.888 0.496 0.244 1.095 0.039 1.339-0.456s0.040-1.095-0.456-1.339c-0.254-0.125-0.494-0.294-0.707-0.507-0.165-0.165-0.304-0.346-0.416-0.537zM12.689 27.037c0.279-0.476 0.12-1.089-0.357-1.369s-1.089-0.12-1.369 0.357c-0.112 0.191-0.25 0.371-0.416 0.537-0.214 0.214-0.453 0.382-0.707 0.507-0.496 0.244-0.7 0.843-0.456 1.339s0.843 0.7 1.339 0.456c0.449-0.221 0.868-0.517 1.239-0.888 0.287-0.287 0.529-0.603 0.727-0.939z"></path>
</svg>
