<!-- Generated by IcoMoon.io -->
<svg version="1.1" xmlns="http://www.w3.org/2000/svg" width="32" height="32" viewBox="0 0 32 32">
<title>branch-fork-hint-regular</title>
<path d="M8.667 2.667c-0.001 0-0.003 0-0.004 0-2.577 0-4.667 2.089-4.667 4.667 0 2.103 1.392 3.882 3.304 4.465l0.033 0.009v7.193c0 0.552 0.448 1 1 1s1-0.448 1-1v0-1.667h8.333c2.761 0 5-2.239 5-5v0-0.38c2.275-0.338 4-2.277 4-4.619 0-2.577-2.089-4.667-4.667-4.667s-4.667 2.089-4.667 4.667c0 2.102 1.39 3.879 3.3 4.463l0.033 0.009v0.527c0 1.657-1.343 3-3 3v0h-8.333v-3.38c2.279-0.334 4.008-2.275 4.008-4.62 0-2.577-2.089-4.667-4.667-4.667-0.003 0-0.006 0-0.009 0h0zM6 7.333c0-1.473 1.194-2.667 2.667-2.667s2.667 1.194 2.667 2.667v0c0 1.473-1.194 2.667-2.667 2.667s-2.667-1.194-2.667-2.667v0zM22 4.667c1.473 0 2.667 1.194 2.667 2.667s-1.194 2.667-2.667 2.667v0c-1.473 0-2.667-1.194-2.667-2.667s1.194-2.667 2.667-2.667v0zM7.121 22.512c0.244-0.184 0.4-0.474 0.4-0.8 0-0.552-0.448-1-1-1-0.21 0-0.405 0.065-0.566 0.175l0.003-0.002c-0.732 0.53-1.298 1.249-1.63 2.086l-0.011 0.032c-0.042 0.107-0.067 0.231-0.067 0.36 0 0.552 0.448 1 1 1 0.423 0 0.785-0.263 0.931-0.634l0.002-0.007c0.194-0.498 0.517-0.909 0.929-1.205l0.008-0.005zM11.375 20.885c-0.158-0.108-0.352-0.173-0.562-0.173-0.552 0-1 0.448-1 1 0 0.326 0.156 0.615 0.397 0.798l0.002 0.002c0.419 0.302 0.742 0.713 0.932 1.191l0.006 0.018c0.148 0.378 0.51 0.641 0.933 0.641 0.552 0 1-0.448 1-1 0-0.129-0.024-0.253-0.069-0.366l0.002 0.007c-0.341-0.87-0.908-1.59-1.629-2.108l-0.014-0.009zM6.369 26.027c-0.177-0.298-0.497-0.494-0.863-0.494-0.552 0-1 0.448-1 1 0 0.187 0.051 0.361 0.14 0.511l-0.003-0.005c0.468 0.788 1.137 1.413 1.938 1.814l0.027 0.012c0.128 0.064 0.278 0.101 0.438 0.101 0.552 0 1-0.448 1-1 0-0.39-0.223-0.728-0.549-0.893l-0.006-0.003c-0.473-0.236-0.856-0.593-1.116-1.032l-0.007-0.012zM12.689 27.039c0.086-0.145 0.137-0.319 0.137-0.506 0-0.552-0.448-1-1-1-0.366 0-0.686 0.196-0.86 0.489l-0.003 0.005c-0.267 0.45-0.65 0.808-1.107 1.037l-0.015 0.007c-0.332 0.167-0.555 0.505-0.555 0.895 0 0.552 0.448 1 1 1 0.159 0 0.31-0.037 0.443-0.103l-0.006 0.003c0.828-0.413 1.498-1.038 1.954-1.805l0.012-0.021z"></path>
</svg>
