<!-- Generated by IcoMoon.io -->
<svg version="1.1" xmlns="http://www.w3.org/2000/svg" width="32" height="32" viewBox="0 0 32 32">
<title>branch-compare</title>
<path d="M12 7.333c0 0 0 0.001 0 0.001 0 2.342-1.725 4.281-3.974 4.616l-0.026 0.003v8.047c0 2.209 1.791 4 4 4v0h3.587l-1.293-1.293c-0.196-0.183-0.318-0.443-0.318-0.732 0-0.552 0.448-1 1-1 0.289 0 0.549 0.122 0.731 0.318l0.001 0.001 3 3c0.181 0.181 0.292 0.431 0.292 0.707s-0.112 0.526-0.292 0.707v0l-3 3c-0.183 0.196-0.443 0.318-0.732 0.318-0.552 0-1-0.448-1-1 0-0.289 0.122-0.549 0.318-0.731l0.001-0.001 1.293-1.293h-3.587c-3.314 0-6-2.686-6-6v0-8.193c-1.938-0.598-3.322-2.372-3.322-4.471 0-2.574 2.083-4.661 4.654-4.669h0.001c2.577 0 4.667 2.089 4.667 4.667v0zM10 7.333c0-1.473-1.194-2.667-2.667-2.667s-2.667 1.194-2.667 2.667v0c0 1.473 1.194 2.667 2.667 2.667s2.667-1.194 2.667-2.667v0zM29.333 24.667c-0.001 2.577-2.090 4.665-4.667 4.665s-4.667-2.089-4.667-4.667c0-2.342 1.725-4.281 3.974-4.616l0.026-0.003v-8.047c0-2.209-1.791-4-4-4v0h-2.587l1.293 1.293c0.166 0.178 0.268 0.418 0.268 0.682 0 0.552-0.448 1-1 1-0.264 0-0.504-0.102-0.682-0.269l0.001 0.001-3-3c-0.181-0.181-0.292-0.431-0.292-0.707s0.112-0.526 0.292-0.707v0l3-3c0.183-0.196 0.443-0.318 0.732-0.318 0.552 0 1 0.448 1 1 0 0.289-0.122 0.549-0.318 0.731l-0.001 0.001-1.293 1.293h2.587c3.314 0 6 2.686 6 6v0 8.193c1.928 0.573 3.333 2.36 3.333 4.473zM27.333 24.667c0-1.473-1.194-2.667-2.667-2.667s-2.667 1.194-2.667 2.667v0c0 1.473 1.194 2.667 2.667 2.667s2.667-1.194 2.667-2.667v0z"></path>
</svg>
