<!-- Generated by IcoMoon.io -->
<svg version="1.1" xmlns="http://www.w3.org/2000/svg" width="32" height="32" viewBox="0 0 32 32">
<title>briefcase-medical</title>
<path d="M17 15c0-0.552-0.448-1-1-1s-1 0.448-1 1v0 2h-2c-0.552 0-1 0.448-1 1s0.448 1 1 1v0h2v2c0 0.552 0.448 1 1 1s1-0.448 1-1v0-2h2c0.552 0 1-0.448 1-1s-0.448-1-1-1v0h-2v-2zM12 4h8c0.552 0 1 0.448 1 1v0 4h3c2.209 0 4 1.791 4 4v0 10c0 2.209-1.791 4-4 4v0h-16c-2.209 0-4-1.791-4-4v0-10c0-2.209 1.791-4 4-4v0h3v-4c0-0.552 0.448-1 1-1v0zM19 9v-3h-6v3h6zM8 11c-1.105 0-2 0.895-2 2v0 10c0 1.105 0.895 2 2 2v0h16c1.105 0 2-0.895 2-2v0-10c0-1.105-0.895-2-2-2v0h-16z"></path>
</svg>
