<!-- Generated by IcoMoon.io -->
<svg version="1.1" xmlns="http://www.w3.org/2000/svg" width="32" height="32" viewBox="0 0 32 32">
<title>briefcase</title>
<path d="M11.667 4h8.667c0.506 0 0.925 0.376 0.991 0.864l0.009 0.136v4.333h2.333c2.393 0 4.333 1.94 4.333 4.333v8.667c0 2.393-1.94 4.333-4.333 4.333h-15.333c-2.393 0-4.333-1.94-4.333-4.333v-8.667c0-2.393 1.94-4.333 4.333-4.333h2.333v-4.333c0-0.506 0.376-0.925 0.864-0.991l0.136-0.009zM23.667 11.333h-15.333c-1.289 0-2.333 1.045-2.333 2.333v8.667c0 1.289 1.045 2.333 2.333 2.333h15.333c1.289 0 2.333-1.045 2.333-2.333v-8.667c0-1.289-1.045-2.333-2.333-2.333zM19.333 6h-6.667v3.333h6.667v-3.333z"></path>
</svg>
