<!-- Generated by IcoMoon.io -->
<svg version="1.1" xmlns="http://www.w3.org/2000/svg" width="32" height="32" viewBox="0 0 32 32">
<title>briefcase-off</title>
<path d="M4.374 2.96c-0.391-0.391-1.024-0.391-1.414 0s-0.391 1.024 0 1.414l4.977 4.977c-2.207 0.2-3.937 2.056-3.937 4.315v8.667c0 2.393 1.94 4.333 4.333 4.333h15.334c0.477 0 0.936-0.077 1.366-0.22l2.593 2.593c0.391 0.391 1.024 0.391 1.414 0s0.391-1.024 0-1.414l-24.667-24.667zM23.252 24.667h-14.919c-1.289 0-2.333-1.045-2.333-2.333v-8.667c0-1.289 1.045-2.333 2.333-2.333h1.586l13.333 13.333zM26 13.667v8.091l1.819 1.819c0.118-0.394 0.181-0.811 0.181-1.243v-8.667c0-2.393-1.94-4.333-4.333-4.333h-2.333v-4.333l-0.009-0.136c-0.066-0.488-0.485-0.864-0.991-0.864h-8.667l-0.136 0.009c-0.488 0.066-0.864 0.485-0.864 0.991v1.424l2 2v-2.424h6.667v3.333h-5.757l2 2h8.091c1.289 0 2.333 1.045 2.333 2.333z"></path>
</svg>
