<!-- Generated by IcoMoon.io -->
<svg version="1.1" xmlns="http://www.w3.org/2000/svg" width="32" height="32" viewBox="0 0 32 32">
<title>brightness-low</title>
<path d="M16 4.667c0.552 0 1 0.448 1 1v1.333c0 0.552-0.448 1-1 1s-1-0.448-1-1v-1.333c0-0.552 0.448-1 1-1zM16 22.667c3.682 0 6.667-2.985 6.667-6.667s-2.985-6.667-6.667-6.667c-3.682 0-6.667 2.985-6.667 6.667s2.985 6.667 6.667 6.667zM16 20.667c-2.577 0-4.667-2.089-4.667-4.667s2.089-4.667 4.667-4.667c2.577 0 4.667 2.089 4.667 4.667s-2.089 4.667-4.667 4.667zM26.333 17c0.552 0 1-0.448 1-1s-0.448-1-1-1h-1.333c-0.552 0-1 0.448-1 1s0.448 1 1 1h1.333zM16 24c0.552 0 1 0.448 1 1v1.333c0 0.552-0.448 1-1 1s-1-0.448-1-1v-1.333c0-0.552 0.448-1 1-1zM7 17c0.552 0 1-0.448 1-1s-0.448-1-1-1h-1.333c-0.552 0-1 0.448-1 1s0.448 1 1 1h1.333zM8.293 8.293c0.391-0.391 1.024-0.391 1.414 0l0.667 0.667c0.391 0.391 0.391 1.024 0 1.414s-1.024 0.391-1.414 0l-0.667-0.667c-0.391-0.391-0.391-1.024 0-1.414zM9.707 23.707c-0.391 0.391-1.024 0.391-1.414 0s-0.391-1.024 0-1.414l0.667-0.667c0.391-0.391 1.024-0.391 1.414 0s0.391 1.024 0 1.414l-0.667 0.667zM23.707 8.293c-0.391-0.391-1.024-0.391-1.414 0l-0.667 0.667c-0.391 0.391-0.391 1.024 0 1.414s1.024 0.391 1.414 0l0.667-0.667c0.391-0.391 0.391-1.024 0-1.414zM22.293 23.707c0.391 0.391 1.024 0.391 1.414 0s0.391-1.024 0-1.414l-0.667-0.667c-0.391-0.391-1.024-0.391-1.414 0s-0.391 1.024 0 1.414l0.667 0.667z"></path>
</svg>
