<!-- Generated by IcoMoon.io -->
<svg version="1.1" xmlns="http://www.w3.org/2000/svg" width="32" height="32" viewBox="0 0 32 32">
<title>brightness-low</title>
<path d="M16 4.667c0.46 0 0.833 0.373 0.833 0.833v1.667c0 0.46-0.373 0.833-0.833 0.833s-0.833-0.373-0.833-0.833v0-1.667c0-0.46 0.373-0.833 0.833-0.833zM16.031 22.681c3.673 0 6.65-2.977 6.65-6.651s-2.977-6.65-6.65-6.65c-3.673 0-6.65 2.977-6.65 6.65s2.977 6.651 6.65 6.651zM16.031 21.015c-2.752 0-4.984-2.231-4.984-4.984s2.231-4.984 4.984-4.984v0c2.752 0 4.983 2.231 4.983 4.983s-2.231 4.983-4.983 4.983v0zM26.5 16.833c0.46 0 0.833-0.373 0.833-0.833s-0.373-0.833-0.833-0.833v0h-1.667c-0.46 0-0.833 0.373-0.833 0.833s0.373 0.833 0.833 0.833v0h1.667zM16 24c0.46 0 0.833 0.373 0.833 0.833v1.667c0 0.46-0.373 0.833-0.833 0.833s-0.833-0.373-0.833-0.833v0-1.667c0-0.46 0.373-0.833 0.833-0.833zM7.167 16.833c0.46 0 0.833-0.373 0.833-0.833s-0.373-0.833-0.833-0.833v0h-1.667c-0.46 0-0.833 0.373-0.833 0.833s0.373 0.833 0.833 0.833v0h1.667zM8.245 8.244c0.151-0.151 0.359-0.244 0.589-0.244s0.438 0.093 0.589 0.244l1 1c0.157 0.152 0.255 0.364 0.255 0.6 0 0.46-0.373 0.833-0.833 0.833-0.235 0-0.447-0.097-0.599-0.254l-1-1c-0.151-0.151-0.244-0.359-0.244-0.589s0.093-0.439 0.244-0.589v0zM9.423 23.756c-0.15 0.145-0.354 0.234-0.579 0.234-0.46 0-0.833-0.373-0.833-0.833 0-0.225 0.089-0.429 0.234-0.579l1-1c0.15-0.145 0.354-0.234 0.579-0.234 0.46 0 0.833 0.373 0.833 0.833 0 0.225-0.089 0.429-0.234 0.579l-1 1zM23.756 8.244c-0.151-0.151-0.359-0.244-0.589-0.244s-0.438 0.093-0.589 0.244l-1 1c-0.157 0.152-0.255 0.364-0.255 0.6 0 0.46 0.373 0.833 0.833 0.833 0.235 0 0.448-0.097 0.599-0.254l1-1c0.151-0.151 0.244-0.359 0.244-0.589s-0.093-0.439-0.244-0.589v0zM22.578 23.756c0.15 0.145 0.354 0.234 0.579 0.234 0.46 0 0.833-0.373 0.833-0.833 0-0.225-0.089-0.429-0.234-0.579l-1-1c-0.15-0.145-0.354-0.234-0.579-0.234-0.46 0-0.833 0.373-0.833 0.833 0 0.225 0.089 0.429 0.234 0.579l1 1z"></path>
</svg>
