<!-- Generated by IcoMoon.io -->
<svg version="1.1" xmlns="http://www.w3.org/2000/svg" width="32" height="32" viewBox="0 0 32 32">
<title>brightness-high</title>
<path d="M16 2.667c0.46 0 0.833 0.373 0.833 0.833v1.667c0 0.46-0.373 0.833-0.833 0.833s-0.833-0.373-0.833-0.833v0-1.667c0-0.46 0.373-0.833 0.833-0.833zM16.031 22.68c3.673 0 6.65-2.977 6.65-6.65s-2.977-6.65-6.65-6.65c-3.673 0-6.65 2.977-6.65 6.651s2.977 6.65 6.65 6.65zM16.031 21.013c-2.752 0-4.983-2.231-4.983-4.983s2.231-4.983 4.983-4.983v0c2.752 0 4.983 2.231 4.983 4.983s-2.231 4.983-4.983 4.983v0zM28.5 16.833c0.46 0 0.833-0.373 0.833-0.833s-0.373-0.833-0.833-0.833v0h-1.667c-0.46 0-0.833 0.373-0.833 0.833s0.373 0.833 0.833 0.833v0h1.667zM16 26c0.46 0 0.833 0.373 0.833 0.833v1.667c0 0.46-0.373 0.833-0.833 0.833s-0.833-0.373-0.833-0.833v0-1.667c0-0.46 0.373-0.833 0.833-0.833zM5.167 16.833c0.46 0 0.833-0.373 0.833-0.833s-0.373-0.833-0.833-0.833v0h-1.667c-0.46 0-0.833 0.373-0.833 0.833s0.373 0.833 0.833 0.833v0h1.667zM6.245 6.243c0.151-0.151 0.359-0.244 0.589-0.244s0.438 0.093 0.589 0.244l1.667 1.667c0.161 0.152 0.262 0.368 0.262 0.606 0 0.46-0.373 0.833-0.833 0.833-0.239 0-0.454-0.1-0.606-0.261l-0-0-1.667-1.667c-0.151-0.151-0.244-0.359-0.244-0.589s0.093-0.438 0.244-0.589v0zM7.423 25.755c-0.15 0.145-0.354 0.234-0.579 0.234-0.46 0-0.833-0.373-0.833-0.833 0-0.225 0.089-0.429 0.234-0.579l1.666-1.666c0.152-0.157 0.364-0.254 0.599-0.254 0.46 0 0.833 0.373 0.833 0.833 0 0.235-0.098 0.448-0.254 0.599l-0 0-1.667 1.667zM25.756 6.243c-0.151-0.151-0.359-0.244-0.589-0.244s-0.438 0.093-0.589 0.244l-1.667 1.667c-0.161 0.152-0.262 0.368-0.262 0.606 0 0.46 0.373 0.833 0.833 0.833 0.239 0 0.454-0.1 0.606-0.261l0-0 1.667-1.667c0.151-0.151 0.244-0.359 0.244-0.589s-0.093-0.438-0.244-0.589v0zM24.578 25.755c0.15 0.145 0.354 0.234 0.579 0.234 0.46 0 0.833-0.373 0.833-0.833 0-0.225-0.089-0.429-0.234-0.579l-1.666-1.666c-0.152-0.157-0.364-0.254-0.599-0.254-0.46 0-0.833 0.373-0.833 0.833 0 0.235 0.098 0.448 0.254 0.599l0 0 1.667 1.667z"></path>
</svg>
