<!-- Generated by IcoMoon.io -->
<svg version="1.1" xmlns="http://www.w3.org/2000/svg" width="32" height="32" viewBox="0 0 32 32">
<title>broad-activity-feed-regular</title>
<path d="M12.34 18.673c1.288 0 2.333 1.044 2.333 2.333v4.664c0 1.289-1.045 2.333-2.333 2.333v0h-7.34c-1.289 0-2.333-1.045-2.333-2.333v0-4.664c0-1.289 1.045-2.333 2.333-2.333h7.34zM27 18.673c1.288 0 2.333 1.044 2.333 2.333v4.664c0 1.289-1.045 2.333-2.333 2.333v0h-7.34c-1.289 0-2.333-1.045-2.333-2.333v0-4.664c0-1.289 1.045-2.333 2.333-2.333h7.34zM12.34 20.673h-7.34c-0.184 0-0.333 0.149-0.333 0.333v0 4.664c0 0.185 0.149 0.333 0.333 0.333h7.34c0.184 0 0.333-0.149 0.333-0.333v0-4.664c0-0.184-0.149-0.333-0.333-0.333v0zM27 20.673h-7.34c-0.184 0-0.333 0.149-0.333 0.333v0 4.664c0 0.185 0.149 0.333 0.333 0.333h7.34c0.184 0 0.333-0.149 0.333-0.333v0-4.664c0-0.184-0.149-0.333-0.333-0.333v0zM27 4c1.288 0 2.333 1.045 2.333 2.333v7.333c0 1.289-1.045 2.333-2.333 2.333v0h-22c-1.289 0-2.333-1.045-2.333-2.333v0-7.333c0-1.221 0.938-2.223 2.133-2.325l0.009-0.001 0.192-0.008h22zM27 6l-22.076 0.009c-0.148 0.036-0.257 0.167-0.257 0.324v7.333c0 0.184 0.149 0.333 0.333 0.333h22c0.184 0 0.333-0.149 0.333-0.333v0-7.333c0-0.184-0.149-0.333-0.333-0.333v0z"></path>
</svg>
