<!-- Generated by IcoMoon.io -->
<svg version="1.1" xmlns="http://www.w3.org/2000/svg" width="32" height="32" viewBox="0 0 32 32">
<title>broom</title>
<path d="M29.463 3.749c0.168-0.157 0.273-0.38 0.273-0.627 0-0.473-0.384-0.857-0.857-0.857-0.247 0-0.47 0.105-0.627 0.272l-0 0.001-9.437 9.435c-1.307-1.051-2.987-1.687-4.815-1.687-2.129 0-4.056 0.862-5.452 2.256l0-0-0.792 0.777-5.059 3.093c-0.248 0.153-0.411 0.423-0.411 0.732 0 0.236 0.096 0.451 0.251 0.606v0l11.714 11.714c0.155 0.155 0.37 0.252 0.607 0.252 0.308 0 0.578-0.163 0.729-0.407l0.002-0.004 3.093-5.059 0.777-0.793c1.394-1.396 2.256-3.323 2.256-5.452 0-1.828-0.636-3.508-1.698-4.83l0.012 0.015 9.435-9.437zM4.519 17.306l3.638-2.223 8.76 8.76-2.223 3.638-10.175-10.175zM18.242 22.243l-0.248 0.251-8.491-8.489 0.254-0.248c1.088-1.1 2.598-1.782 4.267-1.782 3.314 0 6 2.686 6 6 0 1.669-0.681 3.178-1.781 4.266l-0.001 0.001z"></path>
</svg>
