<!-- Generated by IcoMoon.io -->
<svg version="1.1" xmlns="http://www.w3.org/2000/svg" width="32" height="32" viewBox="0 0 32 32">
<title>bug-arrow-counterclockwise-regular</title>
<path d="M27.2 5.6c0-0.442-0.358-0.8-0.8-0.8s-0.8 0.358-0.8 0.8v0 3.2c0 1.325-1.075 2.4-2.4 2.4v0h-0.8c0-0.001 0-0.001 0-0.002 0-2.262-1.565-4.159-3.671-4.667l-0.033-0.007c0.33-0.515 0.506-1.114 0.504-1.725v-0.8c0-0.442-0.358-0.8-0.8-0.8s-0.8 0.358-0.8 0.8v0 0.8c0 0.884-0.716 1.6-1.6 1.6s-1.6-0.716-1.6-1.6v0-0.8c0-0.442-0.358-0.8-0.8-0.8s-0.8 0.358-0.8 0.8v0 0.8c0 0 0 0.001 0 0.001 0 0.64 0.188 1.236 0.512 1.736l-0.008-0.013c-2.139 0.514-3.704 2.411-3.704 4.673 0 0.001 0 0.001 0 0.002v-0h-0.8c-1.325 0-2.4-1.075-2.4-2.4v0-3.2c0-0.442-0.358-0.8-0.8-0.8s-0.8 0.358-0.8 0.8v0 3.2c0 2.209 1.791 4 4 4v0h0.8v2.4h-5.6c-0.442 0-0.8 0.358-0.8 0.8s0.358 0.8 0.8 0.8v0h5.6v2.4h-0.8c-2.209 0-4 1.791-4 4v0 3.2c0 0.442 0.358 0.8 0.8 0.8s0.8-0.358 0.8-0.8v0-3.2c0-1.325 1.075-2.4 2.4-2.4v0h0.8c0.007 3.292 2.507 5.998 5.712 6.331l0.027 0.002c-0.255-0.495-0.478-1.073-0.637-1.677l-0.014-0.061c-2.026-0.584-3.483-2.419-3.488-4.595v-9.601c0-1.767 1.433-3.2 3.2-3.2v0h3.2c1.767 0 3.2 1.433 3.2 3.2v0 3.541c0.461-0.137 1.004-0.243 1.563-0.298l0.037-0.003v-1.64h0.8c2.209 0 4-1.791 4-4v0-3.2zM23.2 16c-3.976 0-7.2 3.224-7.2 7.2s3.224 7.2 7.2 7.2v0c3.976 0 7.2-3.224 7.2-7.2s-3.224-7.2-7.2-7.2v0zM23.2 27.6c-0.001 0-0.003 0-0.005 0-1.3 0-2.468-0.565-3.271-1.463l-0.004-0.004c-0.126-0.141-0.203-0.328-0.203-0.533 0-0.442 0.358-0.799 0.799-0.799 0.236 0 0.449 0.103 0.595 0.266l0.001 0.001c0.515 0.574 1.259 0.934 2.088 0.934 1.546 0 2.8-1.254 2.8-2.8s-1.254-2.8-2.8-2.8c-0.532 0-1.029 0.148-1.452 0.406l0.012-0.007h0.64c0.442 0 0.8 0.358 0.8 0.8s-0.358 0.8-0.8 0.8v0h-2.4c-0.008 0-0.017 0-0.027 0-0.442 0-0.8-0.358-0.8-0.8 0-0.073 0.010-0.144 0.028-0.211l-0.001 0.006v-2.195c0-0.442 0.358-0.8 0.8-0.8s0.8 0.358 0.8 0.8v0 0.31c0.676-0.445 1.506-0.71 2.397-0.71 2.43 0 4.4 1.97 4.4 4.4s-1.968 4.398-4.397 4.4h-0z"></path>
</svg>
