<!-- Generated by IcoMoon.io -->
<svg version="1.1" xmlns="http://www.w3.org/2000/svg" width="32" height="32" viewBox="0 0 32 32">
<title>building-retail</title>
<path d="M9 10.667c-0.552 0-1 0.448-1 1v4.667c0 0.552 0.448 1 1 1h14c0.552 0 1-0.448 1-1v-4.667c0-0.552-0.448-1-1-1h-14zM10 15.333v-2.667h12v2.667h-12z"></path>
<path d="M18.333 18.667c-0.552 0-1 0.448-1 1v3.333c0 0.552 0.448 1 1 1h4.667c0.552 0 1-0.448 1-1v-3.333c0-0.552-0.448-1-1-1h-4.667zM19.333 22v-1.333h2.667v1.333h-2.667z"></path>
<path d="M5.333 4c-1.473 0-2.667 1.194-2.667 2.667 0 0.987 0.536 1.849 1.333 2.31v18.023c0 0.552 0.448 1 1 1h22c0.552 0 1-0.448 1-1v-18.023c0.797-0.461 1.333-1.323 1.333-2.31 0-1.473-1.194-2.667-2.667-2.667h-21.333zM26 9.333v16.667h-10.667v-6.333c0-0.552-0.448-1-1-1h-5.333c-0.552 0-1 0.448-1 1v6.333h-2v-16.667h20zM4.667 6.667c0-0.368 0.298-0.667 0.667-0.667h21.333c0.368 0 0.667 0.298 0.667 0.667s-0.299 0.667-0.667 0.667h-21.333c-0.368 0-0.667-0.298-0.667-0.667zM13.333 26h-3.333v-5.333h3.333v5.333z"></path>
</svg>
