<!-- Generated by IcoMoon.io -->
<svg version="1.1" xmlns="http://www.w3.org/2000/svg" width="32" height="32" viewBox="0 0 32 32">
<title>building-bank</title>
<path d="M16 9.334c0.736 0 1.333-0.597 1.333-1.333s-0.597-1.333-1.333-1.333v0c-0.736 0-1.333 0.597-1.333 1.333s0.597 1.333 1.333 1.333v0zM16.897 2.965c-0.247-0.186-0.559-0.298-0.897-0.298s-0.65 0.112-0.901 0.301l0.004-0.003-10.629 7.935c-0.9 0.671-0.425 2.101 0.697 2.101h0.829v8.003c-1.192 0.575-2 1.774-2 3.162 0 0 0 0 0 0v-0 2.333c0 0.46 0.373 0.833 0.833 0.833h22.333c0.46 0 0.833-0.373 0.833-0.833v-2.333c0-0 0-0 0-0 0-1.388-0.808-2.587-1.979-3.153l-0.021-0.009v-8.004h0.829c1.123 0 1.597-1.43 0.698-2.101l-10.63-7.934zM24.333 20.667h-3v-7.667h3v7.667zM19.667 20.667h-2.833v-7.667h2.833v7.667zM15.167 20.667h-2.833v-7.667h2.833v7.667zM10.667 20.667h-3v-7.667h3v7.667zM6.676 11.334l9.324-6.96 9.323 6.96h-18.647zM5.667 24.167c0-1.013 0.821-1.833 1.833-1.833v0h17c1.013 0 1.833 0.821 1.833 1.833v0 1.5h-20.667v-1.5z"></path>
</svg>
