<!-- Generated by IcoMoon.io -->
<svg version="1.1" xmlns="http://www.w3.org/2000/svg" width="32" height="32" viewBox="0 0 32 32">
<title>building-bank-link-regular</title>
<path d="M16 9.335c0.736 0 1.333-0.597 1.333-1.333s-0.597-1.333-1.333-1.333v0c-0.736 0-1.333 0.597-1.333 1.333s0.597 1.333 1.333 1.333v0zM16.897 2.965c-0.247-0.186-0.559-0.298-0.897-0.298s-0.65 0.112-0.901 0.301l0.004-0.003-10.629 7.935c-0.9 0.671-0.425 2.101 0.697 2.101h0.829v8.003c-1.192 0.575-2 1.774-2 3.162 0 0 0 0 0 0v-0 2.333c0 0.46 0.373 0.833 0.833 0.833h10.415c-0.245-0.483-0.427-1.044-0.516-1.636l-0.004-0.031h-9.061v-1.5c0-1.013 0.821-1.833 1.833-1.833v0h7.748c0.387-0.771 0.922-1.415 1.572-1.916l0.013-0.009v-7.408h2.833v6.344c0.1-0.007 0.216-0.011 0.333-0.011h1.333v-6.333h3v6.333h1.667v-6.333h0.829c1.123 0 1.597-1.43 0.698-2.101l-10.63-7.934zM15.167 20.667h-2.833v-7.667h2.833v7.667zM10.667 20.667h-3v-7.667h3v7.667zM6.676 11.333l9.324-6.959 9.323 6.96h-18.647zM20.167 20.667c-0.016-0-0.034-0-0.053-0-2.301 0-4.167 1.865-4.167 4.167s1.865 4.167 4.167 4.167c0.019 0 0.037-0 0.055-0l-0.003 0h1c0.46 0 0.833-0.373 0.833-0.833s-0.373-0.833-0.833-0.833v0h-1c-1.381 0-2.5-1.119-2.5-2.5s1.119-2.5 2.5-2.5v0h1c0.46 0 0.833-0.373 0.833-0.833s-0.373-0.833-0.833-0.833v0h-1zM26.5 20.667c0.016-0 0.034-0 0.053-0 2.301 0 4.167 1.865 4.167 4.167s-1.865 4.167-4.167 4.167c-0.019 0-0.037-0-0.055-0l0.003 0h-1c-0.46 0-0.833-0.373-0.833-0.833s0.373-0.833 0.833-0.833v0h1c1.381 0 2.5-1.119 2.5-2.5s-1.119-2.5-2.5-2.5v0h-1c-0.46 0-0.833-0.373-0.833-0.833s0.373-0.833 0.833-0.833v0h1zM19.333 24.833c0-0.461 0.373-0.833 0.833-0.833h6.333c0.46 0 0.833 0.373 0.833 0.833s-0.373 0.833-0.833 0.833v0h-6.333c-0.46 0-0.833-0.373-0.833-0.833z"></path>
</svg>
