<!-- Generated by IcoMoon.io -->
<svg version="1.1" xmlns="http://www.w3.org/2000/svg" width="32" height="32" viewBox="0 0 32 32">
<title>building-bank-toolbox</title>
<path d="M17.333 8.346c0 0.736-0.597 1.332-1.333 1.332s-1.333-0.597-1.333-1.332c0-0.736 0.597-1.332 1.333-1.332s1.333 0.597 1.333 1.332zM17.375 3.115c-0.819-0.598-1.931-0.598-2.751 0l-9.896 7.217c-1.303 0.95-0.63 3.011 0.982 3.011h0.289v7.728c-1.187 0.607-2 1.841-2 3.265v1.999c0 0.552 0.448 0.999 1 0.999h9.667v-1.999h-8.667v-0.999c0-0.92 0.746-1.666 1.667-1.666h7v-0.67c0-0.472 0.098-0.922 0.275-1.329h-2.275v-7.329h2.333v7.203c0.398-0.818 1.12-1.45 2-1.726v-5.477h2.333v2.057c0.5-0.256 1.067-0.4 1.667-0.4h0.333v-1.658h2.667v1.658h1.667c0.112 0 0.224 0.005 0.333 0.015v-1.673h0.289c1.613 0 2.285-2.061 0.982-3.011l-9.896-7.217zM15.803 4.729c0.117-0.085 0.276-0.085 0.393 0l9.070 6.614h-18.533l9.070-6.614zM8 20.671v-7.329h2.667v7.329h-2.667zM18.667 20h-0.667c-1.105 0-2 0.895-2 2v2h3.333v-0.333c0-0.552 0.448-1 1-1s1 0.448 1 1v0.333h4v-0.333c0-0.552 0.448-1 1-1s1 0.448 1 1v0.333h3.333v-2c0-1.105-0.895-2-2-2h-0.667v-1.333c0-1.289-1.045-2.333-2.333-2.333h-4.667c-1.289 0-2.333 1.045-2.333 2.333v1.333zM20.667 18.667c0-0.184 0.149-0.333 0.333-0.333h4.667c0.184 0 0.333 0.149 0.333 0.333v1.333h-5.333v-1.333zM18 30.667c-1.105 0-2-0.895-2-2v-2.667h3.333v1c0 0.552 0.448 1 1 1s1-0.448 1-1v-1h4v1c0 0.552 0.448 1 1 1s1-0.448 1-1v-1h3.333v2.667c0 1.105-0.895 2-2 2h-10.667z"></path>
</svg>
