<!-- Generated by IcoMoon.io -->
<svg version="1.1" xmlns="http://www.w3.org/2000/svg" width="32" height="32" viewBox="0 0 32 32">
<title>building-lighthouse</title>
<path d="M14.003 3.306c0.114-0.066 0.251-0.105 0.397-0.105s0.283 0.039 0.401 0.107l-0.004-0.002 5.090 2.909c0.548 0.319 0.911 0.903 0.911 1.573 0 0.925-0.693 1.689-1.589 1.799l-0.009 0.001v3.51c0.997 0.471 1.703 1.415 1.831 2.534l0.001 0.015 1.264 11.376c0.006 0.053 0.010 0.115 0.010 0.178 0 0.884-0.716 1.6-1.6 1.6-0 0-0 0-0 0h-12.61c-0 0-0 0-0 0-0.884 0-1.6-0.716-1.6-1.6 0-0.062 0.004-0.123 0.010-0.183l-0.001 0.007 1.264-11.376c0.128-1.135 0.833-2.080 1.811-2.544l0.019-0.008v-3.509c-0.905-0.111-1.599-0.874-1.599-1.8 0-0.669 0.363-1.254 0.902-1.568l0.009-0.005 5.091-2.909zM14.4 4.922l-4.693 2.682c-0.064 0.038-0.106 0.106-0.106 0.184 0 0.117 0.095 0.212 0.211 0.213h9.174c0.117-0.001 0.212-0.096 0.212-0.213 0-0.078-0.042-0.146-0.105-0.183l-0.001-0.001-4.693-2.682zM17.864 14.4h-6.928c-0.816 0.007-1.486 0.624-1.577 1.417l-0.001 0.007-0.342 3.077 10.459-2.789-0.032-0.288c-0.091-0.801-0.762-1.418-1.579-1.424h-0.001zM17.6 12.8v-3.2h-6.4v3.2h6.4zM8.467 23.848l11.525-3.074-0.339-3.054-10.826 2.888-0.36 3.24zM8.277 25.554l-0.182 1.646h12.611l-0.534-4.818-11.894 3.171zM23.2 11.2h3.2c0.442 0 0.8-0.358 0.8-0.8s-0.358-0.8-0.8-0.8v0h-3.2c-0.442 0-0.8 0.358-0.8 0.8s0.358 0.8 0.8 0.8v0zM25.366 5.034c0.145 0.145 0.235 0.345 0.235 0.566s-0.090 0.422-0.235 0.566l-1.6 1.6c-0.145 0.145-0.345 0.234-0.566 0.234-0.442 0-0.8-0.358-0.8-0.8 0-0.221 0.090-0.421 0.235-0.566v0l1.6-1.6c0.145-0.145 0.345-0.234 0.566-0.234s0.421 0.090 0.566 0.234v0zM25.366 14.634c0.145 0.145 0.235 0.345 0.235 0.566 0 0.442-0.358 0.8-0.8 0.8-0.221 0-0.421-0.089-0.566-0.234v0l-1.6-1.6c-0.145-0.145-0.235-0.345-0.235-0.566 0-0.442 0.358-0.8 0.8-0.8 0.221 0 0.421 0.089 0.566 0.234v0l1.6 1.6z"></path>
</svg>
