<!-- Generated by IcoMoon.io -->
<svg version="1.1" xmlns="http://www.w3.org/2000/svg" width="32" height="32" viewBox="0 0 32 32">
<title>building</title>
<path d="M11.333 7.333c-0.736 0-1.333 0.597-1.333 1.333s0.597 1.333 1.333 1.333c0.736 0 1.333-0.597 1.333-1.333s-0.597-1.333-1.333-1.333z"></path>
<path d="M10 18c0-0.736 0.597-1.333 1.333-1.333s1.333 0.597 1.333 1.333c0 0.736-0.597 1.333-1.333 1.333s-1.333-0.597-1.333-1.333z"></path>
<path d="M11.333 12c-0.736 0-1.333 0.597-1.333 1.333s0.597 1.333 1.333 1.333c0.736 0 1.333-0.597 1.333-1.333s-0.597-1.333-1.333-1.333z"></path>
<path d="M14.667 8.667c0-0.736 0.597-1.333 1.333-1.333s1.333 0.597 1.333 1.333c0 0.736-0.597 1.333-1.333 1.333s-1.333-0.597-1.333-1.333z"></path>
<path d="M16 16.667c-0.736 0-1.333 0.597-1.333 1.333s0.597 1.333 1.333 1.333c0.736 0 1.333-0.597 1.333-1.333s-0.597-1.333-1.333-1.333z"></path>
<path d="M19.333 18c0-0.736 0.597-1.333 1.333-1.333s1.333 0.597 1.333 1.333c0 0.736-0.597 1.333-1.333 1.333s-1.333-0.597-1.333-1.333z"></path>
<path d="M16 12c-0.736 0-1.333 0.597-1.333 1.333s0.597 1.333 1.333 1.333c0.736 0 1.333-0.597 1.333-1.333s-0.597-1.333-1.333-1.333z"></path>
<path d="M8.333 2.667c-1.657 0-3 1.343-3 3v22c0 0.552 0.448 1 1 1h19.337c0.552 0 1-0.448 1-1v-12.001c0-1.657-1.343-3-3-3h-1.67v-6.999c0-1.657-1.343-3-3-3h-10.667zM7.333 5.667c0-0.552 0.448-1 1-1h10.667c0.552 0 1 0.448 1 1v7.999c0 0.552 0.448 1 1 1h2.67c0.552 0 1 0.448 1 1v11.001h-2.67v-3.667c0-0.552-0.448-1-1-1h-10c-0.552 0-1 0.448-1 1v3.667h-2.667v-21zM20 24v2.667h-3v-2.667h3zM15 24v2.667h-3v-2.667h3z"></path>
</svg>
