<!-- Generated by IcoMoon.io -->
<svg version="1.1" xmlns="http://www.w3.org/2000/svg" width="32" height="32" viewBox="0 0 32 32">
<title>building-people-regular</title>
<path d="M10 8.667c0-0.736 0.597-1.333 1.333-1.333s1.333 0.597 1.333 1.333v0c0 0.736-0.597 1.333-1.333 1.333s-1.333-0.597-1.333-1.333v0zM11.333 16.667c-0.736 0-1.333 0.597-1.333 1.333s0.597 1.333 1.333 1.333v0c0.736 0 1.333-0.597 1.333-1.333s-0.597-1.333-1.333-1.333v0zM10 13.333c0-0.736 0.597-1.333 1.333-1.333s1.333 0.597 1.333 1.333v0c0 0.736-0.597 1.333-1.333 1.333s-1.333-0.597-1.333-1.333v0zM16 7.333c-0.736 0-1.333 0.597-1.333 1.333s0.597 1.333 1.333 1.333v0c0.736 0 1.333-0.597 1.333-1.333s-0.597-1.333-1.333-1.333v0zM14.667 13.333c0-0.736 0.597-1.333 1.333-1.333s1.333 0.597 1.333 1.333v0c0 0.736-0.597 1.333-1.333 1.333s-1.333-0.597-1.333-1.333v0zM5.333 5.667c0-1.657 1.343-3 3-3v0h10.667c1.657 0 3 1.343 3 3v0 7h1.671c1.657 0 3 1.343 3 3v0 1.804c-0.587 0.164-1.113 0.472-1.54 0.881-0.122-0.377-0.278-0.705-0.47-1.007l0.010 0.017v-1.697c0-0.552-0.448-1-1-1v0h-2.671c-0.552 0-1-0.448-1-1v0-7.999c0-0.552-0.448-1-1-1v0h-10.667c-0.552 0-1 0.448-1 1v0 21h7.336c0.019 0.672 0.155 1.355 0.429 2h-8.765c-0.552 0-1-0.448-1-1v0-22zM24 19.667c0 1.657-1.343 3-3 3s-3-1.343-3-3v0c0-1.657 1.343-3 3-3s3 1.343 3 3v0zM26 26.5c0 2.075-1.428 4.167-5 4.167s-5-2.084-5-4.167c0-1.38 0.96-2.5 2.143-2.5h5.715c1.183 0 2.143 1.12 2.143 2.5zM27.667 23.333c1.289 0 2.333-1.045 2.333-2.333s-1.045-2.333-2.333-2.333v0c-1.289 0-2.333 1.045-2.333 2.333s1.045 2.333 2.333 2.333v0zM27.331 26.5c0 0.012 0 0.025 0 0.039 0 1.032-0.289 1.996-0.79 2.817l0.014-0.024 0.117 0.001c2.857 0 4-1.464 4-2.917 0-0.005 0-0.010 0-0.016 0-0.951-0.765-1.723-1.714-1.733h-2.054c0.277 0.565 0.427 1.2 0.427 1.833z"></path>
</svg>
