<!-- Generated by IcoMoon.io -->
<svg version="1.1" xmlns="http://www.w3.org/2000/svg" width="32" height="32" viewBox="0 0 32 32">
<title>building-desktop</title>
<path d="M5 4.667c-0.184 0-0.333 0.149-0.333 0.333v0 16.667c0 0.184 0.149 0.333 0.333 0.333h6.333v0.333c0 0.565 0.096 1.132 0.284 1.667h-6.617c-1.289 0-2.333-1.045-2.333-2.333v0-16.667c0-1.288 1.045-2.333 2.333-2.333h7.333c1.288 0 2.333 1.045 2.333 2.333v4c0 0.184 0.149 0.333 0.333 0.333h1.333c1.288 0 2.333 1.045 2.333 2.333v0.333h-2v-0.333c0-0.184-0.149-0.333-0.333-0.333v0h-1.333c-1.289 0-2.333-1.045-2.333-2.333v0-4c0-0.184-0.149-0.333-0.333-0.333v0h-7.333zM8 7.667c0 0.552-0.448 1-1 1s-1-0.448-1-1v0c0-0.552 0.448-1 1-1s1 0.448 1 1v0zM7 12.667c0.552 0 1-0.448 1-1s-0.448-1-1-1v0c-0.552 0-1 0.448-1 1s0.448 1 1 1v0zM8 15.667c0 0.552-0.448 1-1 1s-1-0.448-1-1v0c0-0.552 0.448-1 1-1s1 0.448 1 1v0zM10.333 8.667c0.552 0 1-0.448 1-1s-0.448-1-1-1v0c-0.552 0-1 0.448-1 1s0.448 1 1 1v0zM11.333 11.667c0 0.552-0.448 1-1 1s-1-0.448-1-1v0c0-0.552 0.448-1 1-1s1 0.448 1 1v0zM10.333 16.667c0.552 0 1-0.448 1-1s-0.448-1-1-1v0c-0.552 0-1 0.448-1 1s0.448 1 1 1v0zM12.667 17c0-2.025 1.642-3.667 3.667-3.667v0h9.333c2.025 0 3.667 1.642 3.667 3.667v0 5.333c0 2.025-1.642 3.667-3.667 3.667v0h-1.667v1.333h1.667c0.552 0 1 0.448 1 1s-0.448 1-1 1v0h-9.333c-0.552 0-1-0.448-1-1s0.448-1 1-1v0h1.667v-1.333h-1.667c-2.025 0-3.667-1.642-3.667-3.667v0-5.333zM20 26v1.333h2v-1.333h-2zM16.333 15.333c-0.92 0-1.667 0.747-1.667 1.667v5.333c0 0.92 0.747 1.667 1.667 1.667h9.333c0.92 0 1.667-0.747 1.667-1.667v-5.333c0-0.92-0.747-1.667-1.667-1.667h-9.333z"></path>
</svg>
