<!-- Generated by IcoMoon.io -->
<svg version="1.1" xmlns="http://www.w3.org/2000/svg" width="32" height="32" viewBox="0 0 32 32">
<title>building-government</title>
<path d="M21 14c0-0.552-0.448-1-1-1s-1 0.448-1 1v0 3c0 0.552 0.448 1 1 1s1-0.448 1-1v0-3zM16 13c0.552 0 1 0.448 1 1v0 3c0 0.552-0.448 1-1 1s-1-0.448-1-1v0-3c0-0.552 0.448-1 1-1v0zM13 14c0-0.552-0.448-1-1-1s-1 0.448-1 1v0 3c0 0.552 0.448 1 1 1s1-0.448 1-1v0-3zM8 20c0.552 0 1 0.448 1 1v0 3c0 0.552-0.448 1-1 1s-1-0.448-1-1v0-3c0-0.552 0.448-1 1-1v0zM25 21c0-0.552-0.448-1-1-1s-1 0.448-1 1v0 3c0 0.552 0.448 1 1 1s1-0.448 1-1v0-3zM16 2h4.667c0.368 0 0.667 0.298 0.667 0.667v2.666c0 0.368-0.299 0.667-0.667 0.667v0h-3.667v1.055c4.5 0.497 8 4.312 8 8.945h2c1.657 0 3 1.343 3 3v0 9c0 0.552-0.448 1-1 1v0h-26c-0.552 0-1-0.448-1-1v0-9c0-1.657 1.343-3 3-3v0h2c0-4.633 3.5-8.448 8-8.945v-4.055c0-0.552 0.448-1 1-1v0zM16 9c-3.866 0-7 3.134-7 7v0 1c0 0.552-0.448 1-1 1v0h-3c-0.552 0-1 0.448-1 1v0 8h8.5v-3c0-0.552 0.448-1 1-1v0h5c0.552 0 1 0.448 1 1v0 3h8.5v-8c0-0.552-0.448-1-1-1v0h-3c-0.552 0-1-0.448-1-1v0-1c0-3.866-3.134-7-7-7v0zM17.5 25h-3v2h3v-2z"></path>
</svg>
