<!-- Generated by IcoMoon.io -->
<svg version="1.1" xmlns="http://www.w3.org/2000/svg" width="32" height="32" viewBox="0 0 32 32">
<title>building-retail-toolbox</title>
<path d="M9 10.667c-0.552 0-1 0.448-1 1v4.667c0 0.552 0.448 1 1 1h8.583c0.346-0.886 1.027-1.605 1.887-2h-9.47v-2.667h12v2.333h2v-3.333c0-0.552-0.448-1-1-1h-14zM15.333 19.667v0.333c-0.419 0.557-0.667 1.25-0.667 2v6h-9.667c-0.552 0-1-0.448-1-1v-18.023c-0.797-0.461-1.333-1.323-1.333-2.31 0-1.473 1.194-2.667 2.667-2.667h21.333c1.473 0 2.667 1.194 2.667 2.667 0 0.987-0.536 1.849-1.333 2.31v6.862c-0.554-0.457-1.244-0.755-2-0.823v-5.682h-20v16.667h2v-6.333c0-0.552 0.448-1 1-1h5.333c0.552 0 1 0.448 1 1zM4.667 6.667c0 0.368 0.298 0.667 0.667 0.667h21.333c0.368 0 0.667-0.298 0.667-0.667s-0.299-0.667-0.667-0.667h-21.333c-0.368 0-0.667 0.298-0.667 0.667zM13.333 26v-5.333h-3.333v5.333h3.333zM18.667 20h-0.667c-1.105 0-2 0.895-2 2v2h3.333v-0.333c0-0.552 0.448-1 1-1s1 0.448 1 1v0.333h4v-0.333c0-0.552 0.448-1 1-1s1 0.448 1 1v0.333h3.333v-2c0-1.105-0.895-2-2-2h-0.667v-1.333c0-1.289-1.045-2.333-2.333-2.333h-4.667c-1.289 0-2.333 1.045-2.333 2.333v1.333zM20.667 18.667c0-0.184 0.149-0.333 0.333-0.333h4.667c0.184 0 0.333 0.149 0.333 0.333v1.333h-5.333v-1.333zM16 28.667v-2.667h3.333v1c0 0.552 0.448 1 1 1s1-0.448 1-1v-1h4v1c0 0.552 0.448 1 1 1s1-0.448 1-1v-1h3.333v2.667c0 1.105-0.895 2-2 2h-10.667c-1.105 0-2-0.895-2-2z"></path>
</svg>
