<!-- Generated by IcoMoon.io -->
<svg version="1.1" xmlns="http://www.w3.org/2000/svg" width="32" height="32" viewBox="0 0 32 32">
<title>building-shop</title>
<path d="M24 2.667c0.232 0 0.455 0.080 0.632 0.225l0.101 0.095 4.363 4.704 0.041 0.052c0.136 0.181 0.197 0.386 0.197 0.587l-0.002 2.559c0 1.326-0.505 2.533-1.333 3.441l-0.001 14.003c0 0.506-0.376 0.925-0.864 0.991l-0.136 0.009h-21.997c-0.506 0-0.925-0.376-0.991-0.864l-0.009-0.136-0.001-14.003c-0.764-0.838-1.253-1.932-1.324-3.138l-0.009-0.304-0-2.501c-0.011-0.183 0.029-0.371 0.128-0.544l0.087-0.127 0.052-0.061 4.332-4.669c0.158-0.17 0.368-0.279 0.595-0.31l0.138-0.010h16zM20.109 13.923l-0.016 0.024c-0.932 1.246-2.419 2.053-4.095 2.053-1.685 0-3.18-0.816-4.111-2.074-0.93 1.258-2.425 2.074-4.11 2.074-0.625 0-1.225-0.112-1.779-0.318l0.002 11.651h1.998l0-8.997c0-0.506 0.376-0.925 0.864-0.991l0.136-0.009h5.995c0.506 0 0.925 0.376 0.991 0.864l0.009 0.136-0 8.997h10.003l0-11.65c-0.553 0.205-1.151 0.317-1.776 0.317-1.686 0-3.182-0.817-4.113-2.076zM13.993 19.335h-3.993v7.997h3.993v-7.997zM23.006 17.335c0.506 0 0.925 0.376 0.991 0.864l0.009 0.136v4.669c0 0.506-0.376 0.925-0.864 0.991l-0.136 0.009h-4.669c-0.506 0-0.925-0.376-0.991-0.864l-0.009-0.136v-4.669c0-0.506 0.376-0.925 0.864-0.991l0.136-0.009h4.669zM22.005 19.335h-2.668v2.669h2.668v-2.669zM10.888 9.336h-6.22l0 1.553 0.008 0.228 0.038 0.308 0.044 0.208 0.066 0.229 0.072 0.197 0.054 0.125c0.042 0.091 0.087 0.179 0.137 0.264l0.137 0.215 0.072 0.1 0.172 0.208 0.189 0.192 0.128 0.113 0.056 0.046c0.419 0.334 0.927 0.562 1.482 0.643l0.241 0.026 0.213 0.007c1.646 0 2.994-1.279 3.103-2.897l0.007-0.213-0-1.553zM19.108 9.336h-6.22l0 1.553c0 1.575 1.17 2.876 2.688 3.082l0.209 0.021 0.213 0.007c1.646 0 2.993-1.279 3.103-2.897l0.007-0.213-0.001-1.553zM27.331 9.336h-6.22l0.001 1.553c0 1.575 1.17 2.876 2.688 3.082l0.209 0.021 0.213 0.007c0.752 0 1.442-0.267 1.98-0.712l0.12-0.104 0.154-0.152 0.195-0.226c0.072-0.092 0.139-0.188 0.201-0.288l0.138-0.249 0.084-0.184 0.078-0.207 0.040-0.127 0.051-0.203 0.038-0.21 0.024-0.222 0.008-0.227-0.001-1.553zM12.082 4.665h-3.646l-2.477 2.671h5.302l0.821-2.671zM17.825 4.665h-3.651l-0.821 2.671h5.293l-0.821-2.671zM23.563 4.665h-3.646l0.821 2.671h5.302l-2.477-2.671z"></path>
</svg>
