<!-- Generated by IcoMoon.io -->
<svg version="1.1" xmlns="http://www.w3.org/2000/svg" width="32" height="32" viewBox="0 0 32 32">
<title>building-bank-link</title>
<path d="M17.333 8.333c0 0.736-0.597 1.333-1.333 1.333s-1.333-0.597-1.333-1.333c0-0.736 0.597-1.333 1.333-1.333s1.333 0.597 1.333 1.333zM17.375 3.099c-0.819-0.598-1.931-0.598-2.751 0l-9.896 7.221c-1.303 0.951-0.63 3.013 0.982 3.013h0.289v7.733c-1.187 0.607-2 1.842-2 3.267v2c0 0.552 0.448 1 1 1h9.888c-0.145-0.531-0.222-1.090-0.222-1.667 0-0.112 0.003-0.223 0.009-0.333h-8.675v-1c0-0.921 0.746-1.667 1.667-1.667h7.754c0.42-0.779 0.998-1.46 1.691-2h-0.112v-7.333h2.333v6.222c0.531-0.145 1.090-0.222 1.667-0.222h0.333v-6h2.667v6h1.667c0.112 0 0.223 0.003 0.333 0.009v-6.009h0.289c1.613 0 2.285-2.062 0.983-3.013l-9.896-7.221zM15.803 4.715c0.117-0.085 0.276-0.085 0.393 0l9.070 6.619h-18.533l9.070-6.619zM15 13.333v7.333h-2.333v-7.333h2.333zM8 20.667v-7.333h2.667v7.333h-2.667zM30.667 25.667c0-2.761-2.239-5-5-5l-0.136 0.009c-0.488 0.066-0.864 0.485-0.864 0.991 0 0.552 0.448 1 1 1l0.205 0.007c1.561 0.106 2.795 1.405 2.795 2.993 0 1.657-1.343 3-3 3l-0.005 0.006-0.136 0.010c-0.488 0.069-0.862 0.489-0.86 0.995 0.003 0.552 0.452 0.998 1.005 0.995v-0.006l0.265-0.007c2.634-0.138 4.73-2.321 4.73-4.993zM22 21.667c0-0.552-0.448-1-1-1l-0.265 0.007c-2.638 0.138-4.735 2.321-4.735 4.993 0 2.761 2.239 5 5 5l0.136-0.009c0.488-0.066 0.864-0.485 0.864-0.991 0-0.552-0.448-1-1-1l-0.205-0.007c-1.561-0.106-2.795-1.405-2.795-2.993 0-1.657 1.343-3 3-3l0.136-0.009c0.488-0.066 0.864-0.485 0.864-0.991zM26.667 25.667c0-0.552-0.448-1-1-1h-4.667l-0.136 0.009c-0.488 0.066-0.864 0.485-0.864 0.991 0 0.552 0.448 1 1 1h4.667l0.136-0.009c0.488-0.066 0.864-0.485 0.864-0.991z"></path>
</svg>
