<!-- Generated by IcoMoon.io -->
<svg version="1.1" xmlns="http://www.w3.org/2000/svg" width="32" height="32" viewBox="0 0 32 32">
<title>building-retail-shield</title>
<path d="M15.333 26h1.289c0.3 0.749 0.689 1.413 1.131 2h-12.753c-0.552 0-1-0.448-1-1v0-18.024c-0.803-0.47-1.333-1.328-1.333-2.309 0-1.473 1.194-2.667 2.667-2.667h21.333c1.473 0 2.667 1.194 2.667 2.667 0 0.982-0.531 1.84-1.321 2.303l-0.013 0.007v6.453c-0.764-0.329-1.422-0.711-2.026-1.161l0.026 0.019v-4.953h-20v16.667h2v-6.333c0-0.552 0.448-1 1-1v0h5.333c0.552 0 1 0.448 1 1v0 6.333zM4.667 6.667c0 0.368 0.298 0.667 0.667 0.667v0h21.333c0.368 0 0.667-0.298 0.667-0.667s-0.298-0.667-0.667-0.667v0h-21.333c-0.368 0-0.667 0.298-0.667 0.667v0zM10 20.667v5.333h3.333v-5.333h-3.333zM9 10.667c-0.552 0-1 0.448-1 1v0 4.667c0 0.552 0.448 1 1 1h7.112c0.279-0.746 0.952-1.283 1.76-1.358l0.008-0.001c0.866-0.090 1.659-0.317 2.386-0.66l-0.045 0.019h-10.221v-2.667h12v1.62c0.241-0.177 0.449-0.345 0.62-0.491 0.393-0.337 0.887-0.507 1.38-0.507v-1.623c0-0.552-0.448-1-1-1v0h-14zM24.513 14.808c0.908 0.78 2.945 2.265 5.488 2.495 0.367 0.033 0.667 0.329 0.667 0.697v4.667c0 5.631-5.459 7.621-6.497 7.949-0.051 0.017-0.109 0.026-0.17 0.026s-0.119-0.010-0.174-0.028l0.004 0.001c-1.039-0.328-6.497-2.32-6.497-7.949v-4.667c0-0.368 0.3-0.664 0.667-0.697 2.541-0.229 4.579-1.716 5.488-2.493 0.138-0.116 0.317-0.186 0.513-0.186s0.375 0.070 0.515 0.187l-0.001-0.001z"></path>
</svg>
