<!-- Generated by IcoMoon.io -->
<svg version="1.1" xmlns="http://www.w3.org/2000/svg" width="32" height="32" viewBox="0 0 32 32">
<title>building-skyscraper</title>
<path d="M16 14.667c0 0.736-0.597 1.333-1.333 1.333s-1.333-0.597-1.333-1.333v0c0-0.736 0.597-1.333 1.333-1.333s1.333 0.597 1.333 1.333v0zM14.667 20c0.736 0 1.333-0.597 1.333-1.333s-0.597-1.333-1.333-1.333v0c-0.736 0-1.333 0.597-1.333 1.333s0.597 1.333 1.333 1.333v0zM12 14.667c0 0.736-0.597 1.333-1.333 1.333s-1.333-0.597-1.333-1.333v0c0-0.736 0.597-1.333 1.333-1.333s1.333 0.597 1.333 1.333v0zM10.667 20c0.736 0 1.333-0.597 1.333-1.333s-0.597-1.333-1.333-1.333v0c-0.736 0-1.333 0.597-1.333 1.333s0.597 1.333 1.333 1.333v0zM24 20c0 0.736-0.597 1.333-1.333 1.333s-1.333-0.597-1.333-1.333v0c0-0.736 0.597-1.333 1.333-1.333s1.333 0.597 1.333 1.333v0zM22.667 25.333c0.736 0 1.333-0.597 1.333-1.333s-0.597-1.333-1.333-1.333v0c-0.736 0-1.333 0.597-1.333 1.333s0.597 1.333 1.333 1.333v0zM11 2.669c-0.552 0-1 0.448-1 1v0 2.997h-1.667c-0.552 0-1 0.448-1 1v0 2.733c-1.197 0.62-2 1.849-2 3.266 0 0 0 0 0 0.001v-0 14c0 0.553 0.448 1 1 1h20c0.552 0 1-0.448 1-1v0-6.667c0 0 0 0 0 0 0-4.122-3.252-7.484-7.331-7.659l-0.016-0.001c-0.119-1.284-0.883-2.366-1.962-2.928l-0.020-0.010v-2.736c0-0.552-0.448-1-1-1v0h-1.671v-2.997c0-0.552-0.448-1-1-1v0h-3.333zM16.004 10h-6.671v-1.333h6.671v1.333zM18 26.667h-2v-3.667c0-0.552-0.448-1-1-1v0h-4.667c-0.552 0-1 0.448-1 1v0 3.667h-2v-13c0-0.92 0.747-1.667 1.667-1.667h7.333c0.92 0 1.667 0.747 1.667 1.667v13zM11.333 26.667v-2.667h2.667v2.667h-2.667zM20 26.667v-11.323c2.973 0.172 5.333 2.639 5.333 5.656v5.667h-5.333zM13.333 6.667h-1.333v-1.997h1.333v1.997z"></path>
</svg>
