<!-- Generated by IcoMoon.io -->
<svg version="1.1" xmlns="http://www.w3.org/2000/svg" width="32" height="32" viewBox="0 0 32 32">
<title>building-townhouse</title>
<path d="M8.71 3.472c0.346-0.293 0.797-0.472 1.29-0.472s0.944 0.178 1.293 0.474l-0.003-0.002 4.71 3.981 0.064-0.056 4.645-3.925c0.346-0.294 0.798-0.472 1.291-0.472s0.945 0.179 1.294 0.475l-0.003-0.002 4.645 3.925c0.653 0.554 1.064 1.375 1.064 2.292 0 0 0 0.001 0 0.001v-0 16.31c0 1.657-1.343 3-3 3v0h-20c-1.657 0-3-1.343-3-3v0-16.311c0-0 0-0 0-0 0-0.917 0.411-1.738 1.060-2.288l0.004-0.004 4.645-3.925zM15 27v-4h-3v4h3zM15 21v-11.311c-0-0.306-0.137-0.579-0.354-0.763l-0.001-0.001-4.645-3.925-4.645 3.925c-0.218 0.185-0.355 0.458-0.355 0.764 0 0 0 0.001 0 0.001v-0 16.31c0 0.552 0.448 1 1 1v0h4v-5c0-0.552 0.448-1 1-1v0h4zM17 27h3v-4h-3v4zM17 21h4c0.552 0 1 0.448 1 1v0 5h4c0.552 0 1-0.448 1-1v0-16.311c-0-0.306-0.137-0.579-0.354-0.763l-0.001-0.001-4.645-3.925-4.645 3.925c-0.218 0.185-0.355 0.458-0.355 0.764 0 0 0 0.001 0 0.001v-0 11.31zM11.25 12c0 0.69-0.56 1.25-1.25 1.25s-1.25-0.56-1.25-1.25v0c0-0.69 0.56-1.25 1.25-1.25s1.25 0.56 1.25 1.25v0zM22 13.25c-0.69 0-1.25-0.56-1.25-1.25s0.56-1.25 1.25-1.25v0c0.69 0 1.25 0.56 1.25 1.25s-0.56 1.25-1.25 1.25v0zM11.25 17c0 0.69-0.56 1.25-1.25 1.25s-1.25-0.56-1.25-1.25v0c0-0.69 0.56-1.25 1.25-1.25s1.25 0.56 1.25 1.25v0zM22 18.25c-0.69 0-1.25-0.56-1.25-1.25s0.56-1.25 1.25-1.25v0c0.69 0 1.25 0.56 1.25 1.25s-0.56 1.25-1.25 1.25v0z"></path>
</svg>
