<!-- Generated by IcoMoon.io -->
<svg version="1.1" xmlns="http://www.w3.org/2000/svg" width="32" height="32" viewBox="0 0 32 32">
<title>calculator</title>
<path d="M9.333 9.333c0-1.473 1.194-2.667 2.667-2.667v0h8c1.473 0 2.667 1.194 2.667 2.667v0 1.333c0 1.473-1.194 2.667-2.667 2.667v0h-8c-1.473 0-2.667-1.194-2.667-2.667v0-1.333zM12 8.667c-0.368 0-0.667 0.298-0.667 0.667v0 1.333c0 0.368 0.298 0.667 0.667 0.667v0h8c0.368 0 0.667-0.298 0.667-0.667v0-1.333c0-0.368-0.298-0.667-0.667-0.667v0h-8zM11 19.333c0.92 0 1.667-0.746 1.667-1.667s-0.746-1.667-1.667-1.667v0c-0.92 0-1.667 0.746-1.667 1.667s0.746 1.667 1.667 1.667v0zM12.667 23c0 0.92-0.746 1.667-1.667 1.667s-1.667-0.746-1.667-1.667v0c0-0.92 0.746-1.667 1.667-1.667s1.667 0.746 1.667 1.667v0zM21 19.333c0.92 0 1.667-0.746 1.667-1.667s-0.746-1.667-1.667-1.667v0c-0.92 0-1.667 0.746-1.667 1.667s0.746 1.667 1.667 1.667v0zM22.667 23c0 0.92-0.746 1.667-1.667 1.667s-1.667-0.746-1.667-1.667v0c0-0.92 0.746-1.667 1.667-1.667s1.667 0.746 1.667 1.667v0zM16 19.333c0.92 0 1.667-0.746 1.667-1.667s-0.746-1.667-1.667-1.667v0c-0.92 0-1.667 0.746-1.667 1.667s0.746 1.667 1.667 1.667v0zM17.667 23c0 0.92-0.746 1.667-1.667 1.667s-1.667-0.746-1.667-1.667v0c0-0.92 0.746-1.667 1.667-1.667s1.667 0.746 1.667 1.667v0zM9.667 2.667c-2.393 0-4.333 1.94-4.333 4.333v0 18c0 2.393 1.94 4.333 4.333 4.333v0h12.667c2.393 0 4.333-1.94 4.333-4.333v0-18c0-2.393-1.94-4.333-4.333-4.333v0h-12.667zM7.333 7c0-1.288 1.045-2.333 2.333-2.333h12.667c1.288 0 2.333 1.045 2.333 2.333v18c0 1.289-1.045 2.333-2.333 2.333v0h-12.667c-1.289 0-2.333-1.045-2.333-2.333v0-18z"></path>
</svg>
