<!-- Generated by IcoMoon.io -->
<svg version="1.1" xmlns="http://www.w3.org/2000/svg" width="32" height="32" viewBox="0 0 32 32">
<title>calculator-arrow-clockwise</title>
<path d="M9.333 9.333c0-1.473 1.194-2.667 2.667-2.667v0h8c1.473 0 2.667 1.194 2.667 2.667v0 1.333c0 1.473-1.194 2.667-2.667 2.667v0h-8c-1.473 0-2.667-1.194-2.667-2.667v0-1.333zM12 8.667c-0.368 0-0.667 0.298-0.667 0.667v0 1.333c0 0.368 0.298 0.667 0.667 0.667v0h8c0.368 0 0.667-0.298 0.667-0.667v0-1.333c0-0.368-0.298-0.667-0.667-0.667v0h-8zM11 19.333c0.92 0 1.667-0.746 1.667-1.667s-0.746-1.667-1.667-1.667v0c-0.92 0-1.667 0.746-1.667 1.667s0.746 1.667 1.667 1.667v0zM12.667 23c0 0.92-0.746 1.667-1.667 1.667s-1.667-0.746-1.667-1.667v0c0-0.92 0.746-1.667 1.667-1.667s1.667 0.746 1.667 1.667v0zM9.667 29.333h6.468c-0.593-0.581-1.108-1.238-1.529-1.956l-0.024-0.044h-4.915c-1.289 0-2.333-1.045-2.333-2.333v0-18c0-1.288 1.045-2.333 2.333-2.333h12.667c1.288 0 2.333 1.045 2.333 2.333v6.548c0.587 0.129 1.152 0.312 1.691 0.544 0.094-0.148 0.196-0.276 0.31-0.392l-0 0v-6.7c0-2.393-1.94-4.333-4.333-4.333v0h-12.667c-2.393 0-4.333 1.94-4.333 4.333v0 18c0 2.393 1.94 4.333 4.333 4.333v0zM28.333 20c0.552 0 1-0.448 1-1v0-3.667c0-0.552-0.448-1-1-1s-1 0.448-1 1v0 0.835c-1.294-0.939-2.915-1.502-4.667-1.502-4.418 0-8 3.582-8 8s3.582 8 8 8c4.418 0 8-3.581 8-7.999v-0c0-0.552-0.448-1-1-1s-1 0.448-1 1v0c0 0 0 0 0 0 0 3.314-2.686 6-6 6s-6-2.686-6-6c0-3.314 2.686-6 6-6 1.424 0 2.732 0.496 3.761 1.325l-0.012-0.009 0.011 0.008c0.003 0.002 0.007 0.005 0.012 0.008l0.002 0.001h-1.773c-0.552 0-1 0.448-1 1s0.448 1 1 1v0h3.667z"></path>
</svg>
