<!-- Generated by IcoMoon.io -->
<svg version="1.1" xmlns="http://www.w3.org/2000/svg" width="32" height="32" viewBox="0 0 32 32">
<title>calendar-mention-regular</title>
<path d="M23.2 4.8c2.209 0 4 1.791 4 4v0 7.866c-0.457-0.206-0.992-0.38-1.548-0.497l-0.052-0.009v-4.96h-19.2v12c0 1.325 1.075 2.4 2.4 2.4v0h7.36c0.112 0.557 0.283 1.093 0.506 1.6h-7.866c-2.209 0-4-1.791-4-4v0-14.4c0-2.209 1.791-4 4-4v0h14.4zM23.2 6.4h-14.4c-1.325 0-2.4 1.075-2.4 2.4v0 0.8h19.2v-0.8c0-1.325-1.075-2.4-2.4-2.4v0zM24.003 19.2c-2.652 0-4.802 2.15-4.802 4.802s2.15 4.802 4.802 4.802v0c0.736 0 1.424-0.168 2.053-0.469 0.101-0.049 0.219-0.078 0.344-0.078 0.442 0 0.8 0.358 0.8 0.8 0 0.317-0.184 0.591-0.451 0.72l-0.005 0.002c-0.832 0.397-1.755 0.624-2.741 0.624-3.535 0-6.402-2.866-6.402-6.402s2.866-6.402 6.402-6.402c3.533 0 6.398 2.862 6.402 6.395v0.8c-0.001 1.326-1.077 2.401-2.403 2.401-0.732 0-1.387-0.327-1.828-0.843l-0.003-0.003c-0.569 0.526-1.332 0.849-2.171 0.849-1.767 0-3.2-1.433-3.2-3.2s1.433-3.2 3.2-3.2c0.702 0 1.35 0.226 1.878 0.609l-0.009-0.006c0.141-0.125 0.327-0.202 0.531-0.202 0.442 0 0.8 0.358 0.8 0.8 0 0 0 0 0 0v0 2.795c0 0.443 0.359 0.802 0.802 0.802s0.802-0.359 0.802-0.802v0-0.794c0-0 0-0.001 0-0.002 0-2.652-2.15-4.802-4.802-4.802-0.001 0-0.001 0-0.002 0h0zM22.4 24c0 0.884 0.716 1.6 1.6 1.6s1.6-0.716 1.6-1.6v0c0-0.884-0.716-1.6-1.6-1.6s-1.6 0.716-1.6 1.6v0z"></path>
</svg>
