<!-- Generated by IcoMoon.io -->
<svg version="1.1" xmlns="http://www.w3.org/2000/svg" width="32" height="32" viewBox="0 0 32 32">
<title>calendar-month</title>
<path d="M12 12.5c0 0.828-0.672 1.5-1.5 1.5s-1.5-0.672-1.5-1.5v0c0-0.828 0.672-1.5 1.5-1.5s1.5 0.672 1.5 1.5v0zM10.5 20c0.828 0 1.5-0.672 1.5-1.5s-0.672-1.5-1.5-1.5v0c-0.828 0-1.5 0.672-1.5 1.5s0.672 1.5 1.5 1.5v0zM16 20c0.828 0 1.5-0.672 1.5-1.5s-0.672-1.5-1.5-1.5v0c-0.828 0-1.5 0.672-1.5 1.5s0.672 1.5 1.5 1.5v0zM16 14c0.828 0 1.5-0.672 1.5-1.5s-0.672-1.5-1.5-1.5v0c-0.828 0-1.5 0.672-1.5 1.5s0.672 1.5 1.5 1.5v0zM21.5 14c0.828 0 1.5-0.672 1.5-1.5s-0.672-1.5-1.5-1.5v0c-0.828 0-1.5 0.672-1.5 1.5s0.672 1.5 1.5 1.5v0zM7.5 3c-2.485 0-4.5 2.015-4.5 4.5v0 17c0 2.485 2.015 4.5 4.5 4.5v0h17c2.485 0 4.5-2.015 4.5-4.5v0-17c0-2.485-2.015-4.5-4.5-4.5v0h-17zM5 7.5c0-1.381 1.119-2.5 2.5-2.5v0h17c1.381 0 2.5 1.119 2.5 2.5v0 17c0 1.381-1.119 2.5-2.5 2.5v0h-17c-1.381 0-2.5-1.119-2.5-2.5v0-17z"></path>
</svg>
