<!-- Generated by IcoMoon.io -->
<svg version="1.1" xmlns="http://www.w3.org/2000/svg" width="32" height="32" viewBox="0 0 32 32">
<title>calendar-week-numbers-regular</title>
<path d="M23.667 4c2.393 0 4.333 1.94 4.333 4.333v0 15.333c0 2.393-1.94 4.333-4.333 4.333v0h-15.333c-2.393 0-4.333-1.94-4.333-4.333v0-15.333c0-2.393 1.94-4.333 4.333-4.333v0h15.333zM23.667 6h-15.333c-1.289 0-2.333 1.045-2.333 2.333v0 15.333c0 1.288 1.045 2.333 2.333 2.333h15.333c1.289 0 2.333-1.045 2.333-2.333v0-15.333c0-1.289-1.045-2.333-2.333-2.333v0zM10.333 9.333c0.504 0 0.921 0.373 0.99 0.859l0.001 0.005 0.009 0.136v1.333c-0 0.552-0.448 1-1 1-0.504 0-0.921-0.373-0.99-0.858l-0.001-0.005-0.009-0.136v-1.333c0-0.552 0.448-1 1-1v0zM11.324 20.197c-0.069-0.491-0.486-0.864-0.991-0.864-0.552 0-1 0.448-1 1v1.333l0.009 0.136c0.069 0.491 0.486 0.864 0.991 0.864 0.552 0 1-0.448 1-1v-1.333l-0.009-0.136zM11.333 15.095c-0.069-0.491-0.486-0.864-0.991-0.864-0.552 0-1 0.448-1 1v0l-0.009 1.529 0.009 0.136c0.069 0.491 0.486 0.864 0.991 0.864 0.552 0 1-0.448 1-1v-0l0.009-1.531-0.009-0.136z"></path>
</svg>
