<!-- Generated by IcoMoon.io -->
<svg version="1.1" xmlns="http://www.w3.org/2000/svg" width="32" height="32" viewBox="0 0 32 32">
<title>calendar-reply</title>
<path d="M23.667 4c2.393 0 4.333 1.94 4.333 4.333v7.696c-0.618-0.395-1.289-0.715-2-0.944v-3.751h-20v12.333c0 1.289 1.045 2.333 2.333 2.333h6.751c0.23 0.711 0.549 1.382 0.944 2h-7.696c-2.393 0-4.333-1.94-4.333-4.333v-15.333c0-2.393 1.94-4.333 4.333-4.333h15.333zM23.667 6h-15.333c-1.289 0-2.333 1.045-2.333 2.333v1h20v-1c0-1.289-1.045-2.333-2.333-2.333z"></path>
<path d="M30.667 23.333c0 4.050-3.283 7.333-7.333 7.333s-7.333-3.283-7.333-7.333c0-4.050 3.283-7.333 7.333-7.333s7.333 3.283 7.333 7.333zM21.805 20.471c0.26-0.26 0.26-0.683 0-0.943s-0.683-0.26-0.943 0l-2 2c-0.26 0.26-0.26 0.683 0 0.943l2 2c0.26 0.26 0.683 0.26 0.943 0s0.26-0.683 0-0.943l-0.862-0.862h2.724c1.657 0 3 1.343 3 3v0.333c0 0.368 0.299 0.667 0.667 0.667s0.667-0.299 0.667-0.667v-0.333c0-2.393-1.94-4.333-4.333-4.333h-2.724l0.862-0.862z"></path>
</svg>
