<!-- Generated by IcoMoon.io -->
<svg version="1.1" xmlns="http://www.w3.org/2000/svg" width="32" height="32" viewBox="0 0 32 32">
<title>calendar-chat</title>
<path d="M23.667 4c2.393 0 4.333 1.94 4.333 4.333v7.694c-0.618-0.395-1.289-0.714-2-0.944v-3.751h-20v12.333c0 1.289 1.045 2.333 2.333 2.333h6.751c0.113 0.35 0.247 0.69 0.402 1.018l-0.299 0.982h-6.854c-2.393 0-4.333-1.94-4.333-4.333v-15.333c0-2.393 1.94-4.333 4.333-4.333h15.333zM23.667 6h-15.333c-1.289 0-2.333 1.045-2.333 2.333v1h20v-1c0-1.289-1.045-2.333-2.333-2.333zM26 16.499c0.731 0.285 1.405 0.684 2 1.175 1.63 1.345 2.67 3.382 2.67 5.661 0 4.051-3.284 7.335-7.335 7.335-1.29 0-2.503-0.333-3.556-0.918l-2.916 0.887c-0.51 0.155-0.987-0.322-0.832-0.832l0.888-2.915c-0.585-1.053-0.919-2.266-0.919-3.557 0-3.973 3.159-7.208 7.101-7.331 0.066-0.002 0.132-0.003 0.199-0.003 0.012-0 0.023-0 0.035-0 0.94 0 1.839 0.177 2.665 0.499zM26.002 22.668c0.368 0 0.667-0.299 0.667-0.667s-0.299-0.667-0.667-0.667h-5.334c-0.368 0-0.667 0.299-0.667 0.667s0.299 0.667 0.667 0.667h5.334zM20.668 25.335h2.667c0.368 0 0.667-0.299 0.667-0.667s-0.299-0.667-0.667-0.667h-2.667c-0.368 0-0.667 0.299-0.667 0.667s0.299 0.667 0.667 0.667zM20.037 15.316c0.92-0.379 1.92-0.604 2.968-0.643-0.304-0.408-0.79-0.673-1.338-0.673-0.8 0-1.469 0.564-1.63 1.316zM14.753 22.106c0.138-0.971 0.436-1.89 0.868-2.73-0.738 0.171-1.288 0.833-1.288 1.623 0 0.425 0.159 0.812 0.42 1.106zM10.333 19.333c0.92 0 1.667 0.746 1.667 1.667s-0.746 1.667-1.667 1.667c-0.92 0-1.667-0.746-1.667-1.667s0.746-1.667 1.667-1.667zM10.333 14c0.92 0 1.667 0.746 1.667 1.667s-0.746 1.667-1.667 1.667c-0.92 0-1.667-0.746-1.667-1.667s0.746-1.667 1.667-1.667zM16 14c0.921 0 1.667 0.746 1.667 1.667s-0.746 1.667-1.667 1.667c-0.921 0-1.667-0.746-1.667-1.667s0.746-1.667 1.667-1.667z"></path>
</svg>
