<!-- Generated by IcoMoon.io -->
<svg version="1.1" xmlns="http://www.w3.org/2000/svg" width="32" height="32" viewBox="0 0 32 32">
<title>calendar-checkmark</title>
<path d="M23.667 4c2.393 0 4.333 1.94 4.333 4.333v7.696c-0.618-0.395-1.289-0.715-2-0.944v-3.751h-20v12.333c0 1.289 1.045 2.333 2.333 2.333h6.751c0.23 0.711 0.549 1.382 0.944 2h-7.696c-2.393 0-4.333-1.94-4.333-4.333v-15.333c0-2.393 1.94-4.333 4.333-4.333h15.333zM23.667 6h-15.333c-1.289 0-2.333 1.045-2.333 2.333v1h20v-1c0-1.289-1.045-2.333-2.333-2.333z"></path>
<path d="M30.667 23.333c0 4.050-3.283 7.333-7.333 7.333s-7.333-3.283-7.333-7.333c0-4.050 3.283-7.333 7.333-7.333s7.333 3.283 7.333 7.333zM27.805 20.195c-0.26-0.26-0.683-0.26-0.943 0l-4.862 4.862-2.195-2.195c-0.26-0.26-0.683-0.26-0.943 0s-0.26 0.683 0 0.943l2.667 2.667c0.26 0.26 0.683 0.26 0.943 0l5.333-5.333c0.26-0.26 0.26-0.683 0-0.943z"></path>
</svg>
