<!-- Generated by IcoMoon.io -->
<svg version="1.1" xmlns="http://www.w3.org/2000/svg" width="32" height="32" viewBox="0 0 32 32">
<title>calendar-person</title>
<path d="M23.667 4c2.393 0 4.333 1.94 4.333 4.333v6.333c-0.516-0.686-1.204-1.235-2-1.583v-1.749h-20v12.333c0 1.289 1.045 2.333 2.333 2.333h7.706c0.082 0.697 0.29 1.371 0.611 2h-8.317c-2.393 0-4.333-1.94-4.333-4.333v-15.333c0-2.393 1.94-4.333 4.333-4.333h15.333zM23.667 6h-15.333c-1.289 0-2.333 1.045-2.333 2.333v1h20v-1c0-1.289-1.045-2.333-2.333-2.333z"></path>
<path d="M30.667 24.667c0-1.105-0.895-2-2-2h-9.333c-1.105 0-2 0.895-2 2v0.667c0 2.629 2.479 5.333 6.667 5.333s6.667-2.705 6.667-5.333v-0.667z"></path>
<path d="M27.667 17.667c0-2.025-1.642-3.667-3.667-3.667s-3.667 1.642-3.667 3.667c0 2.025 1.642 3.667 3.667 3.667s3.667-1.642 3.667-3.667z"></path>
</svg>
