<!-- Generated by IcoMoon.io -->
<svg version="1.1" xmlns="http://www.w3.org/2000/svg" width="32" height="32" viewBox="0 0 32 32">
<title>calendar-assistant-regular</title>
<path d="M23.667 4c2.393 0 4.333 1.94 4.333 4.333v0 7.696c-0.575-0.375-1.237-0.695-1.939-0.928l-0.061-0.018v-3.751h-20v12.333c0 1.288 1.045 2.333 2.333 2.333h6.751c0.231 0.712 0.549 1.383 0.945 2h-7.696c-2.393 0-4.333-1.94-4.333-4.333v0-15.333c0-2.393 1.94-4.333 4.333-4.333v0h15.333zM23.667 6h-15.333c-1.289 0-2.333 1.045-2.333 2.333v0 1h20v-1c0-1.289-1.045-2.333-2.333-2.333v0zM23.333 30.667c4.050 0 7.333-3.283 7.333-7.333s-3.283-7.333-7.333-7.333v0c-4.050 0-7.333 3.283-7.333 7.333s3.283 7.333 7.333 7.333v0zM22.795 18.667h1.911c0.368 0 0.667 0.298 0.667 0.667 0 0.084-0.016 0.165-0.044 0.239l0.002-0.005-0.663 1.765h0.845c0.346 0 0.626 0.281 0.626 0.627 0 0.127-0.038 0.245-0.103 0.344l0.001-0.002-3.5 5.384c-0.125 0.191-0.338 0.315-0.58 0.315-0.381 0-0.691-0.309-0.691-0.691 0-0.078 0.013-0.154 0.037-0.224l-0.001 0.005 1.031-3.091h-1.037c-0 0-0.001 0-0.001 0-0.368 0-0.667-0.298-0.667-0.667 0-0.084 0.016-0.165 0.044-0.239l-0.002 0.005 1.5-4c0.098-0.255 0.34-0.432 0.624-0.432v0z"></path>
</svg>
