<!-- Generated by IcoMoon.io -->
<svg version="1.1" xmlns="http://www.w3.org/2000/svg" width="32" height="32" viewBox="0 0 32 32">
<title>calendar-person</title>
<path d="M28 8.333c0-2.393-1.94-4.333-4.333-4.333v0h-15.333c-2.393 0-4.333 1.94-4.333 4.333v0 15.333c0 2.393 1.94 4.333 4.333 4.333v0h9.229c-0.145-0.447-0.229-0.961-0.229-1.494 0-0.002 0-0.004 0-0.006v0-0.137c0-0.123 0.007-0.243 0.017-0.363h-9.017c-1.289 0-2.333-1.045-2.333-2.333v0-12.333h20v3.527c0.788 0.24 1.461 0.656 1.999 1.206l0.001 0.001v-7.733zM8.333 6h15.333c1.288 0 2.333 1.045 2.333 2.333v1h-20v-1c0-1.288 1.045-2.333 2.333-2.333zM28 19.333c0 1.841-1.492 3.333-3.333 3.333s-3.333-1.492-3.333-3.333v0c0-1.841 1.492-3.333 3.333-3.333s3.333 1.492 3.333 3.333v0zM30.667 26.5c0 2.075-1.715 4.167-6 4.167s-6-2.084-6-4.167v-0.137c0-1.307 1.059-2.363 2.364-2.363h7.272c1.307 0 2.364 1.057 2.364 2.363v0.137z"></path>
</svg>
