<!-- Generated by IcoMoon.io -->
<svg version="1.1" xmlns="http://www.w3.org/2000/svg" width="32" height="32" viewBox="0 0 32 32">
<title>calendar-data-bar</title>
<path d="M24.857 3.429c2.051 0 3.714 1.663 3.714 3.714v0 11.2c-0.171-0.036-0.368-0.057-0.57-0.057-0.414 0-0.807 0.087-1.162 0.245l0.018-0.007v-7.663h-21.714v13.997c0 1.104 0.896 2 2 2h8.857v1.714h-8.857c-2.051 0-3.714-1.663-3.714-3.714v0-17.714c0-2.051 1.663-3.714 3.714-3.714v0h17.714zM24.857 5.143h-17.714c-1.105 0-2 0.895-2 2v0 2.003h21.714v-2.003c0-1.105-0.895-2-2-2v0zM23.429 16c-0.947 0-1.714 0.767-1.714 1.714v0 11.429c0 0.947 0.767 1.714 1.714 1.714s1.714-0.767 1.714-1.714v0-11.429c0-0.947-0.767-1.714-1.714-1.714v0zM18.857 22.857c-0.947 0-1.714 0.767-1.714 1.714v0 4.571c0 0.947 0.767 1.714 1.714 1.714s1.714-0.767 1.714-1.714v0-4.571c0-0.947-0.767-1.714-1.714-1.714v0zM26.286 21.143c0-0.947 0.767-1.714 1.714-1.714s1.714 0.767 1.714 1.714v0 8c0 0.947-0.767 1.714-1.714 1.714s-1.714-0.767-1.714-1.714v0-8z"></path>
</svg>
