<!-- Generated by IcoMoon.io -->
<svg version="1.1" xmlns="http://www.w3.org/2000/svg" width="32" height="32" viewBox="0 0 32 32">
<title>calendar-phone</title>
<path d="M23.2 4.8c2.209 0 4 1.791 4 4v0 4.080c-0.24-0.051-0.515-0.080-0.798-0.080-0.001 0-0.001 0-0.002 0h-0.8v-1.6h-19.2v12c0 1.325 1.075 2.4 2.4 2.4v0h8.8v0.8c0 0.274 0.027 0.541 0.080 0.8h-8.88c-2.209 0-4-1.791-4-4v0-14.4c0-2.209 1.791-4 4-4v0h14.4zM23.2 6.4h-14.4c-1.325 0-2.4 1.075-2.4 2.4v0 0.8h19.2v-0.8c0-1.325-1.075-2.4-2.4-2.4v0zM22 14.4c-1.546 0-2.8 1.254-2.8 2.8v0 8.8c0 1.546 1.254 2.8 2.8 2.8h4c1.546 0 2.8-1.254 2.8-2.8v0-8.8c0-1.546-1.254-2.8-2.8-2.8v0h-4zM22.4 24.8c0-0.442 0.358-0.8 0.8-0.8v0h1.6c0.442 0 0.8 0.358 0.8 0.8s-0.358 0.8-0.8 0.8v0h-1.6c-0.442 0-0.8-0.358-0.8-0.8v0z"></path>
</svg>
