<!-- Generated by IcoMoon.io -->
<svg version="1.1" xmlns="http://www.w3.org/2000/svg" width="32" height="32" viewBox="0 0 32 32">
<title>calendar-week-start</title>
<path d="M7.143 28.571c-2.051 0-3.714-1.663-3.714-3.714v0-17.714c0-2.051 1.663-3.714 3.714-3.714v0h17.714c2.051 0 3.714 1.663 3.714 3.714v0 17.714c0 2.051-1.663 3.714-3.714 3.714v0h-17.714zM7.143 26.857h17.714c1.105 0 2-0.895 2-2v0-17.714c0-1.105-0.895-2-2-2v0h-17.714c-1.105 0-2 0.895-2 2v0 17.714c0 1.104 0.896 2 2 2zM10 22.571c-0.432-0-0.79-0.32-0.849-0.736l-0.001-0.005-0.008-0.117v-11.429c0-0.473 0.384-0.857 0.857-0.857 0.432 0 0.79 0.32 0.849 0.736l0.001 0.005 0.008 0.117v11.429c0 0.473-0.384 0.857-0.857 0.857v0z"></path>
</svg>
