<!-- Generated by IcoMoon.io -->
<svg version="1.1" xmlns="http://www.w3.org/2000/svg" width="32" height="32" viewBox="0 0 32 32">
<title>calendar-today</title>
<path d="M28.571 7.143c0-2.051-1.663-3.714-3.714-3.714v0h-17.714c-2.051 0-3.714 1.663-3.714 3.714v0 17.714c0 2.051 1.663 3.714 3.714 3.714v0h6.855l0.002-0.857v-0.857h-6.857c-1.105 0-2-0.895-2-2v0-13.997h21.714v13.997c0 1.105-0.895 2-2 2v0h-6.857v1.714h6.857c2.051 0 3.714-1.663 3.714-3.714v0-17.714zM7.143 5.143h17.714c1.104 0 2 0.896 2 2v2.003h-21.714v-2.003c0-1.104 0.896-2 2-2zM17.429 15.143c0 0.789-0.64 1.429-1.429 1.429s-1.429-0.64-1.429-1.429v0c0-0.789 0.64-1.429 1.429-1.429s1.429 0.64 1.429 1.429v0zM18.002 23.211c0.154 0.148 0.364 0.24 0.595 0.24 0.473 0 0.857-0.384 0.857-0.857 0-0.266-0.122-0.504-0.312-0.662l-0.001-0.001-2.571-2.286c-0.151-0.134-0.35-0.216-0.569-0.216s-0.419 0.082-0.57 0.217l-2.571 2.285c-0.192 0.158-0.314 0.396-0.314 0.663 0 0.473 0.384 0.857 0.857 0.857 0.231 0 0.441-0.091 0.595-0.24l-0 0 1.145-1.017v6.663c0 0.473 0.384 0.857 0.857 0.857s0.857-0.384 0.857-0.857v0-6.663l1.145 1.017z"></path>
</svg>
