<!-- Generated by IcoMoon.io -->
<svg version="1.1" xmlns="http://www.w3.org/2000/svg" width="32" height="32" viewBox="0 0 32 32">
<title>calendar-arrow-right</title>
<path d="M28 8c0-2.209-1.791-4-4-4v0h-16c-2.209 0-4 1.791-4 4v0 16c0 2.209 1.791 4 4 4v0h8.029c-0.375-0.575-0.695-1.237-0.928-1.939l-0.018-0.061h-7.084c-1.105 0-2-0.895-2-2v0-12.667h20v3.751c0.763 0.25 1.425 0.571 2.034 0.966l-0.034-0.020v-8.029zM8 6h16c1.105 0 2 0.895 2 2v0 1.333h-20v-1.333c0-1.105 0.895-2 2-2v0zM30.667 23.333c0-4.050-3.283-7.333-7.333-7.333s-7.333 3.283-7.333 7.333v0c0 4.050 3.283 7.333 7.333 7.333s7.333-3.283 7.333-7.333v0zM23.528 20.472c-0.121-0.121-0.195-0.288-0.195-0.472 0-0.369 0.299-0.668 0.668-0.668 0.184 0 0.351 0.075 0.472 0.195l3.333 3.333c0.121 0.121 0.196 0.288 0.196 0.472s-0.075 0.351-0.196 0.472v0l-3.333 3.333c-0.121 0.121-0.288 0.195-0.472 0.195-0.369 0-0.668-0.299-0.668-0.668 0-0.184 0.075-0.351 0.195-0.472l2.196-2.195h-6.391c-0.368 0-0.667-0.298-0.667-0.667s0.298-0.667 0.667-0.667v0h6.391l-2.196-2.195z"></path>
</svg>
