<!-- Generated by IcoMoon.io -->
<svg version="1.1" xmlns="http://www.w3.org/2000/svg" width="32" height="32" viewBox="0 0 32 32">
<title>calendar-cancel-regular</title>
<path d="M23.333 16c4.050 0 7.333 3.283 7.333 7.333s-3.283 7.333-7.333 7.333v0c-4.050 0-7.333-3.283-7.333-7.333s3.283-7.333 7.333-7.333v0zM20.032 20.032c-0.121 0.121-0.195 0.287-0.195 0.471s0.075 0.351 0.195 0.471l2.359 2.36-2.356 2.355c-0.121 0.121-0.196 0.288-0.196 0.472 0 0.368 0.299 0.667 0.667 0.667 0.184 0 0.351-0.075 0.471-0.195v0l2.356-2.356 2.36 2.359c0.121 0.126 0.291 0.204 0.48 0.204 0.368 0 0.667-0.298 0.667-0.667 0-0.188-0.078-0.358-0.203-0.479l-2.359-2.36 2.361-2.36c0.116-0.12 0.187-0.283 0.187-0.463 0-0.368-0.298-0.667-0.667-0.667-0.18 0-0.343 0.071-0.463 0.187l-2.361 2.36-2.36-2.36c-0.121-0.121-0.287-0.195-0.471-0.195s-0.351 0.075-0.471 0.195v0zM23.667 4c2.393 0 4.333 1.94 4.333 4.333v0l0.001 7.697c-0.575-0.375-1.237-0.696-1.939-0.929l-0.061-0.018-0.001-3.751h-20v12.333c0 1.288 1.045 2.333 2.333 2.333h6.752c0.229 0.712 0.549 1.384 0.945 2.001l-7.697-0.001c-2.393 0-4.333-1.94-4.333-4.333v0-15.333c0-2.393 1.94-4.333 4.333-4.333v0h15.333zM23.667 6h-15.333c-1.289 0-2.333 1.045-2.333 2.333v0 1h20v-1c0-1.289-1.045-2.333-2.333-2.333v0z"></path>
</svg>
