<!-- Generated by IcoMoon.io -->
<svg version="1.1" xmlns="http://www.w3.org/2000/svg" width="32" height="32" viewBox="0 0 32 32">
<title>calendar-clock</title>
<path d="M28 8.333c0-2.393-1.94-4.333-4.333-4.333v0h-15.333c-2.393 0-4.333 1.94-4.333 4.333v0 15.333c0 2.393 1.94 4.333 4.333 4.333v0h7.696c-0.375-0.575-0.695-1.237-0.928-1.939l-0.018-0.061h-6.751c-1.289 0-2.333-1.045-2.333-2.333v0-12.333h20v3.751c0.763 0.25 1.425 0.571 2.034 0.966l-0.034-0.020v-7.696zM8.333 6h15.333c1.288 0 2.333 1.045 2.333 2.333v1h-20v-1c0-1.288 1.045-2.333 2.333-2.333zM30.667 23.333c0-4.050-3.283-7.333-7.333-7.333s-7.333 3.283-7.333 7.333v0c0 4.050 3.283 7.333 7.333 7.333s7.333-3.283 7.333-7.333v0zM23.333 23.333h2.667c0.368 0 0.667 0.298 0.667 0.667s-0.298 0.667-0.667 0.667v0h-3.333c-0 0-0 0-0 0-0.364 0-0.66-0.292-0.667-0.654v-4.014c0-0.368 0.298-0.667 0.667-0.667s0.667 0.298 0.667 0.667v0 3.335z"></path>
</svg>
