<!-- Generated by IcoMoon.io -->
<svg version="1.1" xmlns="http://www.w3.org/2000/svg" width="32" height="32" viewBox="0 0 32 32">
<title>calendar-assistant</title>
<path d="M23.667 4c2.393 0 4.333 1.94 4.333 4.333v7.696c-0.618-0.395-1.289-0.715-2-0.944v-3.751h-20v12.333c0 1.289 1.045 2.333 2.333 2.333h6.751c0.23 0.711 0.549 1.382 0.944 2h-7.696c-2.393 0-4.333-1.94-4.333-4.333v-15.333c0-2.393 1.94-4.333 4.333-4.333h15.333zM23.667 6h-15.333c-1.289 0-2.333 1.045-2.333 2.333v1h20v-1c0-1.289-1.045-2.333-2.333-2.333z"></path>
<path d="M23.333 30.667c4.050 0 7.333-3.283 7.333-7.333s-3.283-7.333-7.333-7.333c-4.050 0-7.333 3.283-7.333 7.333s3.283 7.333 7.333 7.333zM22.795 18.667h1.909c0.465 0 0.788 0.465 0.624 0.901l-0.662 1.766h0.846c0.497 0 0.796 0.551 0.525 0.968l-3.5 5.385c-0.127 0.196-0.345 0.314-0.579 0.314-0.471 0-0.804-0.462-0.655-0.909l1.030-3.091h-1.038c-0.465 0-0.788-0.465-0.624-0.901l1.5-4c0.098-0.26 0.346-0.433 0.624-0.433z"></path>
</svg>
