<!-- Generated by IcoMoon.io -->
<svg version="1.1" xmlns="http://www.w3.org/2000/svg" width="32" height="32" viewBox="0 0 32 32">
<title>calendar-mail</title>
<path d="M3.2 7.2c0-2.209 1.791-4 4-4v0h11.2c2.209 0 4 1.791 4 4v0 5.6h-1.6v-3.2h-16v8.8c0 1.325 1.075 2.4 2.4 2.4v0h0.8v1.6h-0.8c-2.209 0-4-1.791-4-4v0-11.2zM20.8 7.2c0-1.325-1.075-2.4-2.4-2.4v0h-11.2c-1.325 0-2.4 1.075-2.4 2.4v0 0.8h16v-0.8zM12.8 14.4c-1.767 0-3.2 1.433-3.2 3.2v0 8c0 1.767 1.433 3.2 3.2 3.2v0h12.8c1.767 0 3.2-1.433 3.2-3.2v0-8c0-1.767-1.433-3.2-3.2-3.2v0h-12.8zM11.2 17.6c0-0.884 0.716-1.6 1.6-1.6v0h12.8c0.884 0 1.6 0.716 1.6 1.6v0 0.035l-8 4.704-8-4.704v-0.035zM11.2 19.491l7.392 4.346c0.174 0.104 0.384 0.165 0.608 0.165s0.434-0.061 0.613-0.168l-0.006 0.003 7.392-4.346v6.109c0 0.884-0.716 1.6-1.6 1.6v0h-12.8c-0.884 0-1.6-0.716-1.6-1.6v0-6.109z"></path>
</svg>
