<!-- Generated by IcoMoon.io -->
<svg version="1.1" xmlns="http://www.w3.org/2000/svg" width="32" height="32" viewBox="0 0 32 32">
<title>calendar-add</title>
<path d="M23.333 16c4.050 0 7.333 3.283 7.333 7.333s-3.283 7.333-7.333 7.333c-4.050 0-7.333-3.283-7.333-7.333s3.283-7.333 7.333-7.333zM23.667 4c2.393 0 4.333 1.94 4.333 4.333l0.002 7.697c-0.618-0.396-1.289-0.715-2.001-0.945l-0.001-3.751h-20v12.333c0 1.289 1.045 2.333 2.333 2.333l6.751 0.001c0.23 0.712 0.549 1.383 0.945 2.001l-7.697-0.002c-2.393 0-4.333-1.94-4.333-4.333v-15.333c0-2.393 1.94-4.333 4.333-4.333h15.333zM23.333 18.667l-0.12 0.011c-0.272 0.049-0.487 0.264-0.536 0.536l-0.011 0.12v3.333h-3.333l-0.12 0.011c-0.272 0.049-0.487 0.264-0.536 0.536l-0.011 0.12 0.011 0.12c0.049 0.272 0.264 0.487 0.536 0.536l0.12 0.011h3.333v3.333l0.011 0.12c0.049 0.272 0.264 0.487 0.536 0.536l0.12 0.011 0.12-0.011c0.272-0.049 0.487-0.264 0.536-0.536l0.011-0.12v-3.333h3.333l0.12-0.011c0.272-0.049 0.487-0.264 0.536-0.536l0.011-0.12-0.011-0.12c-0.049-0.272-0.264-0.487-0.536-0.536l-0.12-0.011h-3.333v-3.333l-0.011-0.12c-0.049-0.272-0.264-0.487-0.536-0.536l-0.12-0.011zM23.667 6h-15.333c-1.289 0-2.333 1.045-2.333 2.333v1h20v-1c0-1.289-1.045-2.333-2.333-2.333z"></path>
</svg>
