<!-- Generated by IcoMoon.io -->
<svg version="1.1" xmlns="http://www.w3.org/2000/svg" width="32" height="32" viewBox="0 0 32 32">
<title>calendar-toolbox</title>
<path d="M28 8.333c0-2.393-1.94-4.333-4.333-4.333h-15.333c-2.393 0-4.333 1.94-4.333 4.333v15.333c0 2.393 1.94 4.333 4.333 4.333h6.333v-2h-6.333c-1.289 0-2.333-1.045-2.333-2.333v-12.333h20v3.682c0.756 0.068 1.446 0.366 2 0.823v-7.505zM8.333 6h15.333c1.289 0 2.333 1.045 2.333 2.333v1h-20v-1c0-1.289 1.045-2.333 2.333-2.333zM21 15h2.195c-0.257-0.589-0.845-1-1.528-1-0.726 0-1.344 0.465-1.572 1.113 0.29-0.074 0.593-0.113 0.906-0.113zM12 21c0-0.921-0.746-1.667-1.667-1.667s-1.667 0.746-1.667 1.667c0 0.921 0.746 1.667 1.667 1.667s1.667-0.746 1.667-1.667zM12 15.667c0-0.921-0.746-1.667-1.667-1.667s-1.667 0.746-1.667 1.667c0 0.921 0.746 1.667 1.667 1.667s1.667-0.746 1.667-1.667zM17.667 15.667c0-0.921-0.746-1.667-1.667-1.667s-1.667 0.746-1.667 1.667c0 0.921 0.746 1.667 1.667 1.667s1.667-0.746 1.667-1.667zM18.667 20h-0.667c-1.105 0-2 0.895-2 2v2h3.333v-0.333c0-0.552 0.448-1 1-1s1 0.448 1 1v0.333h4v-0.333c0-0.552 0.448-1 1-1s1 0.448 1 1v0.333h3.333v-2c0-1.105-0.895-2-2-2h-0.667v-1.333c0-1.289-1.045-2.333-2.333-2.333h-4.667c-1.289 0-2.333 1.045-2.333 2.333v1.333zM20.667 18.667c0-0.184 0.149-0.333 0.333-0.333h4.667c0.184 0 0.333 0.149 0.333 0.333v1.333h-5.333v-1.333zM16 28.667v-2.667h3.333v1c0 0.552 0.448 1 1 1s1-0.448 1-1v-1h4v1c0 0.552 0.448 1 1 1s1-0.448 1-1v-1h3.333v2.667c0 1.105-0.895 2-2 2h-10.667c-1.105 0-2-0.895-2-2z"></path>
</svg>
