<!-- Generated by IcoMoon.io -->
<svg version="1.1" xmlns="http://www.w3.org/2000/svg" width="32" height="32" viewBox="0 0 32 32">
<title>calendar-multiple</title>
<path d="M26.658 6.676l0.006 0.162 0.002 0.162v14.8c0 2.688-2.179 4.867-4.867 4.867h-14.8c-0.109 0-0.217-0.003-0.324-0.009 0.768 1.207 2.119 2.009 3.657 2.009h11.467c3.792 0 6.867-3.074 6.867-6.867v-11.467c0-1.538-0.801-2.889-2.009-3.658zM7 2.667c-2.393 0-4.333 1.94-4.333 4.333v14c0 2.393 1.94 4.333 4.333 4.333h14c2.393 0 4.333-1.94 4.333-4.333v-14c0-2.393-1.94-4.333-4.333-4.333h-14zM4.667 10h18.667v11c0 1.289-1.045 2.333-2.333 2.333h-14c-1.289 0-2.333-1.045-2.333-2.333v-11zM7 4.667h14c1.289 0 2.333 1.045 2.333 2.333v1h-18.667v-1c0-1.289 1.045-2.333 2.333-2.333z"></path>
</svg>
