<!-- Generated by IcoMoon.io -->
<svg version="1.1" xmlns="http://www.w3.org/2000/svg" width="32" height="32" viewBox="0 0 32 32">
<title>calendar-agenda-regular</title>
<path d="M28.571 24.857c0 2.051-1.663 3.714-3.714 3.714v0h-17.714c-2.051 0-3.714-1.663-3.714-3.714v0-17.714c0-2.051 1.663-3.714 3.714-3.714v0h17.714c2.051 0 3.714 1.663 3.714 3.714v0 17.714zM26.857 24.857v-17.714c0-1.105-0.895-2-2-2v0h-17.714c-1.105 0-2 0.895-2 2v0 17.714c0 1.104 0.896 2 2 2h17.714c1.105 0 2-0.895 2-2v0zM22.571 16c-0 0.432-0.32 0.79-0.736 0.849l-0.005 0.001-0.117 0.008h-11.429c-0.473-0-0.857-0.384-0.857-0.857 0-0.432 0.32-0.79 0.736-0.849l0.005-0.001 0.117-0.008h11.429c0.473 0 0.857 0.384 0.857 0.857v0zM22.571 22c-0 0.432-0.32 0.79-0.736 0.849l-0.005 0.001-0.117 0.008h-11.429c-0.473-0-0.857-0.384-0.857-0.857 0-0.432 0.32-0.79 0.736-0.849l0.005-0.001 0.117-0.008h11.429c0.473 0 0.857 0.384 0.857 0.857v0zM22.571 10c-0 0.432-0.32 0.79-0.736 0.849l-0.005 0.001-0.117 0.008h-11.429c-0.473-0-0.857-0.384-0.857-0.857 0-0.432 0.32-0.79 0.736-0.849l0.005-0.001 0.117-0.008h11.429c0.473 0 0.857 0.384 0.857 0.857v0z"></path>
</svg>
