<!-- Generated by IcoMoon.io -->
<svg version="1.1" xmlns="http://www.w3.org/2000/svg" width="32" height="32" viewBox="0 0 32 32">
<title>calendar-sync</title>
<path d="M23.667 4c2.393 0 4.333 1.94 4.333 4.333v0 7.696c-0.575-0.375-1.237-0.695-1.939-0.928l-0.061-0.018v-3.751h-20v12.333c0 1.288 1.045 2.333 2.333 2.333h6.751c0.231 0.712 0.549 1.383 0.945 2h-7.696c-2.393 0-4.333-1.94-4.333-4.333v0-15.333c0-2.393 1.94-4.333 4.333-4.333v0h15.333zM23.667 6h-15.333c-1.289 0-2.333 1.045-2.333 2.333v0 1h20v-1c0-1.289-1.045-2.333-2.333-2.333v0zM16 23.333c0 4.050 3.283 7.333 7.333 7.333s7.333-3.283 7.333-7.333v0c0-4.050-3.283-7.333-7.333-7.333s-7.333 3.283-7.333 7.333v0zM27.333 18.667c0.368 0 0.667 0.298 0.667 0.667v0 2.667c0 0.368-0.298 0.667-0.667 0.667v0h-2.667c-0.368 0-0.667-0.298-0.667-0.667s0.298-0.667 0.667-0.667v0h1.333c-0.614-0.813-1.578-1.333-2.664-1.333-0.001 0-0.002 0-0.003 0h0c-1.111 0-2.096 0.543-2.703 1.381-0.123 0.161-0.315 0.264-0.531 0.264-0.368 0-0.667-0.298-0.667-0.667 0-0.142 0.044-0.273 0.119-0.381l-0.001 0.002c0.857-1.177 2.23-1.933 3.78-1.933 0.001 0 0.002 0 0.003 0h-0c1.307 0 2.487 0.537 3.333 1.4v-0.733c0-0.368 0.298-0.667 0.667-0.667v0zM20 26.6v0.733c0 0.368-0.298 0.667-0.667 0.667s-0.667-0.298-0.667-0.667v0-2.667c0-0.368 0.298-0.667 0.667-0.667v0h2.667c0.368 0 0.667 0.298 0.667 0.667s-0.298 0.667-0.667 0.667v0h-1.333c0.608 0.811 1.577 1.333 2.667 1.333 1.021 0 1.936-0.459 2.548-1.184 0.123-0.14 0.302-0.228 0.502-0.228 0.368 0 0.667 0.298 0.667 0.667 0 0.16-0.057 0.308-0.151 0.423l0.001-0.001c-0.86 1.016-2.136 1.657-3.562 1.657-0.002 0-0.003 0-0.005 0h0c-0.002 0-0.004 0-0.006 0-1.303 0-2.482-0.536-3.326-1.399l-0.001-0.001z"></path>
</svg>
