<!-- Generated by IcoMoon.io -->
<svg version="1.1" xmlns="http://www.w3.org/2000/svg" width="32" height="32" viewBox="0 0 32 32">
<title>calendar-pattern</title>
<path d="M8.8 4.8h14.4c2.209 0 4 1.791 4 4v0 14.4c0 2.209-1.791 4-4 4v0h-14.4c-2.209 0-4-1.791-4-4v0-14.4c0-2.209 1.791-4 4-4v0zM6.4 8.8v2.4h19.2v-2.4c0-1.325-1.075-2.4-2.4-2.4v0h-14.4c-1.325 0-2.4 1.075-2.4 2.4v0zM23.531 12.8l-6.4 6.4h4.138l4.331-4.331v-2.069h-2.069zM21.269 12.8h-4.138l-6.4 6.4h4.138l6.4-6.4zM8.469 19.2l6.4-6.4h-4.138l-4.331 4.331v2.069h2.069zM6.4 14.869l2.069-2.069h-2.069v2.069zM23.531 19.2h2.069v-2.069l-2.069 2.069z"></path>
</svg>
