<!-- Generated by IcoMoon.io -->
<svg version="1.1" xmlns="http://www.w3.org/2000/svg" width="32" height="32" viewBox="0 0 32 32">
<title>calendar-info</title>
<path d="M23.2 4.8c2.209 0 4 1.791 4 4v0 6.56c-0.454-0.238-0.985-0.453-1.538-0.613l-0.062-0.015v-3.531h-19.2v12c0 1.325 1.075 2.4 2.4 2.4v0h5.931c0.158 0.558 0.368 1.093 0.629 1.6h-6.56c-2.209 0-4-1.791-4-4v0-14.4c0-2.209 1.791-4 4-4v0h14.4zM23.2 6.4h-14.4c-1.325 0-2.4 1.075-2.4 2.4v0 0.8h19.2v-0.8c0-1.325-1.075-2.4-2.4-2.4v0zM22.2 20c0-0.552 0.448-1 1-1s1 0.448 1 1v0c0 0.552-0.448 1-1 1s-1-0.448-1-1v0zM24 26.4c0 0.442-0.358 0.8-0.8 0.8s-0.8-0.358-0.8-0.8v0-3.2c0-0.442 0.358-0.8 0.8-0.8s0.8 0.358 0.8 0.8v0 3.2zM16 23.2c0-3.976 3.224-7.2 7.2-7.2s7.2 3.224 7.2 7.2v0c0 3.976-3.224 7.2-7.2 7.2s-7.2-3.224-7.2-7.2v0zM17.6 23.2c0 3.093 2.507 5.6 5.6 5.6s5.6-2.507 5.6-5.6v0c0-3.093-2.507-5.6-5.6-5.6s-5.6 2.507-5.6 5.6v0z"></path>
</svg>
