<!-- Generated by IcoMoon.io -->
<svg version="1.1" xmlns="http://www.w3.org/2000/svg" width="32" height="32" viewBox="0 0 32 32">
<title>calendar-add-regular</title>
<path d="M28.571 7.143c0-2.051-1.663-3.714-3.714-3.714v0h-17.714c-2.051 0-3.714 1.663-3.714 3.714v0 17.714c0 2.051 1.663 3.714 3.714 3.714v0h9.429c-0.377-0.496-0.712-1.060-0.979-1.66l-0.022-0.054h-8.427c-1.105 0-2-0.895-2-2v0-13.997h21.714v4.71c0.654 0.289 1.218 0.624 1.736 1.016l-0.021-0.016v-9.427zM7.143 5.143h17.714c1.104 0 2 0.896 2 2v2.003h-21.714v-2.003c0-1.104 0.896-2 2-2zM30.857 23.429c0 4.103-3.326 7.429-7.429 7.429s-7.429-3.326-7.429-7.429v0c0-4.103 3.326-7.429 7.429-7.429s7.429 3.326 7.429 7.429v0zM24 18.857c0-0.316-0.256-0.571-0.571-0.571s-0.571 0.256-0.571 0.571v0 4h-4c-0.316 0-0.571 0.256-0.571 0.571s0.256 0.571 0.571 0.571v0h4v4c0 0.316 0.256 0.571 0.571 0.571s0.571-0.256 0.571-0.571v0-4h4c0.316 0 0.571-0.256 0.571-0.571s-0.256-0.571-0.571-0.571v0h-4v-4z"></path>
</svg>
