<!-- Generated by IcoMoon.io -->
<svg version="1.1" xmlns="http://www.w3.org/2000/svg" width="32" height="32" viewBox="0 0 32 32">
<title>calendar-today</title>
<path d="M28 8.333c0-2.393-1.94-4.333-4.333-4.333h-15.333c-2.393 0-4.333 1.94-4.333 4.333v15.333c0 2.393 1.94 4.333 4.333 4.333h5.333c0 0 0-0.642 0-1v-1h-5.333c-1.289 0-2.333-1.045-2.333-2.333v-12.333h20v12.333c0 1.289-1.045 2.333-2.333 2.333h-5.333v1c0 0.358 0 1 0 1h5.333c2.393 0 4.333-1.94 4.333-4.333v-15.333zM8.333 6h15.333c1.289 0 2.333 1.045 2.333 2.333v1h-20v-1c0-1.289 1.045-2.333 2.333-2.333z"></path>
<path d="M17.667 15.667c0 0.921-0.746 1.667-1.667 1.667s-1.667-0.746-1.667-1.667c0-0.921 0.746-1.667 1.667-1.667s1.667 0.746 1.667 1.667z"></path>
<path d="M18.336 24.414c0.413 0.367 1.045 0.33 1.412-0.083s0.33-1.045-0.083-1.412l-3-2.667c-0.379-0.337-0.95-0.337-1.329 0l-3 2.667c-0.413 0.367-0.45 0.999-0.083 1.412s0.999 0.45 1.412 0.083l1.336-1.187v5.107c0 0.552 0.448 1 1 1s1-0.448 1-1v-5.107l1.336 1.187z"></path>
</svg>
