<!-- Generated by IcoMoon.io -->
<svg version="1.1" xmlns="http://www.w3.org/2000/svg" width="32" height="32" viewBox="0 0 32 32">
<title>calendar-edit</title>
<path d="M27.998 8.333c0-2.393-1.94-4.333-4.333-4.333h-15.332c-2.393 0-4.333 1.94-4.333 4.333v15.332c0 2.393 1.94 4.333 4.333 4.333h6.553l0.474-1.897c0.009-0.034 0.017-0.068 0.027-0.103h-7.054c-1.289 0-2.333-1.045-2.333-2.333v-12.332h19.998v3.643c0.639-0.254 1.325-0.352 2-0.294v-6.349zM8.333 6h15.332c1.289 0 2.333 1.045 2.333 2.333v1h-19.998v-1c0-1.289 1.045-2.333 2.333-2.333zM25.465 16.891l-7.869 7.869c-0.459 0.459-0.784 1.034-0.942 1.663l-0.61 2.441c-0.265 1.061 0.696 2.023 1.757 1.758l2.441-0.61c0.629-0.157 1.204-0.483 1.663-0.942l7.869-7.869c1.19-1.19 1.19-3.12 0-4.31s-3.119-1.19-4.31 0z"></path>
</svg>
