<!-- Generated by IcoMoon.io -->
<svg version="1.1" xmlns="http://www.w3.org/2000/svg" width="32" height="32" viewBox="0 0 32 32">
<title>calendar-reply</title>
<path d="M24.857 3.429c2.051 0 3.714 1.663 3.714 3.714v0 9.429c-0.496-0.377-1.060-0.712-1.66-0.979l-0.054-0.022v-4.71h-21.714v13.997c0 1.104 0.896 2 2 2h8.427c0.267 0.611 0.605 1.186 1 1.714h-9.427c-2.051 0-3.714-1.663-3.714-3.714v0-17.714c0-2.051 1.663-3.714 3.714-3.714v0h17.714zM24.857 5.143h-17.714c-1.105 0-2 0.895-2 2v0 2.003h21.714v-2.003c0-1.105-0.895-2-2-2v0zM30.857 23.429c0 4.103-3.326 7.429-7.429 7.429s-7.429-3.326-7.429-7.429v0c0-4.103 3.326-7.429 7.429-7.429s7.429 3.326 7.429 7.429v0zM21.547 20.405c0.104-0.104 0.168-0.247 0.168-0.405 0-0.316-0.256-0.572-0.572-0.572-0.158 0-0.301 0.064-0.405 0.168l-2.286 2.286c-0.104 0.103-0.168 0.247-0.168 0.405s0.064 0.301 0.168 0.405v0l2.286 2.286c0.104 0.104 0.247 0.168 0.405 0.168 0.316 0 0.572-0.256 0.572-0.572 0-0.158-0.064-0.301-0.168-0.405l-1.311-1.31h2.906c1.736 0 3.143 1.407 3.143 3.143v0 0.286c0 0.316 0.256 0.571 0.571 0.571s0.571-0.256 0.571-0.571v0-0.286c0-2.367-1.919-4.286-4.286-4.286v0h-2.906l1.311-1.31z"></path>
</svg>
