<!-- Generated by IcoMoon.io -->
<svg version="1.1" xmlns="http://www.w3.org/2000/svg" width="32" height="32" viewBox="0 0 32 32">
<title>calendar-month</title>
<path d="M23.667 4c2.393 0 4.333 1.94 4.333 4.333v15.333c0 2.393-1.94 4.333-4.333 4.333h-15.333c-2.393 0-4.333-1.94-4.333-4.333v-15.333c0-2.393 1.94-4.333 4.333-4.333h15.333zM23.667 6h-15.333c-1.289 0-2.333 1.045-2.333 2.333v15.333c0 1.289 1.045 2.333 2.333 2.333h15.333c1.289 0 2.333-1.045 2.333-2.333v-15.333c0-1.289-1.045-2.333-2.333-2.333zM10.333 18c0.92 0 1.667 0.746 1.667 1.667s-0.746 1.667-1.667 1.667c-0.92 0-1.667-0.746-1.667-1.667s0.746-1.667 1.667-1.667zM16 18c0.921 0 1.667 0.746 1.667 1.667s-0.746 1.667-1.667 1.667c-0.921 0-1.667-0.746-1.667-1.667s0.746-1.667 1.667-1.667zM10.333 11.333c0.92 0 1.667 0.746 1.667 1.667s-0.746 1.667-1.667 1.667-1.667-0.746-1.667-1.667c0-0.92 0.746-1.667 1.667-1.667zM16 11.333c0.921 0 1.667 0.746 1.667 1.667s-0.746 1.667-1.667 1.667-1.667-0.746-1.667-1.667c0-0.92 0.746-1.667 1.667-1.667zM21.667 11.333c0.921 0 1.667 0.746 1.667 1.667s-0.746 1.667-1.667 1.667-1.667-0.746-1.667-1.667c0-0.92 0.746-1.667 1.667-1.667z"></path>
</svg>
