<!-- Generated by IcoMoon.io -->
<svg version="1.1" xmlns="http://www.w3.org/2000/svg" width="32" height="32" viewBox="0 0 32 32">
<title>calendar-clock</title>
<path d="M28 8.333c0-2.393-1.94-4.333-4.333-4.333h-15.333c-2.393 0-4.333 1.94-4.333 4.333v15.333c0 2.393 1.94 4.333 4.333 4.333h7.696c-0.395-0.618-0.715-1.289-0.944-2h-6.751c-1.289 0-2.333-1.045-2.333-2.333v-12.333h20v3.751c0.711 0.23 1.382 0.549 2 0.944v-7.696zM8.333 6h15.333c1.289 0 2.333 1.045 2.333 2.333v1h-20v-1c0-1.289 1.045-2.333 2.333-2.333z"></path>
<path d="M30.667 23.333c0-4.050-3.283-7.333-7.333-7.333s-7.333 3.283-7.333 7.333c0 4.050 3.283 7.333 7.333 7.333s7.333-3.283 7.333-7.333zM23.333 23.333h2.667c0.368 0 0.667 0.299 0.667 0.667s-0.299 0.667-0.667 0.667h-3.333c-0.364 0-0.66-0.292-0.667-0.655l-0-0.012v-4c0-0.368 0.299-0.667 0.667-0.667s0.667 0.299 0.667 0.667v3.333z"></path>
</svg>
