<!-- Generated by IcoMoon.io -->
<svg version="1.1" xmlns="http://www.w3.org/2000/svg" width="32" height="32" viewBox="0 0 32 32">
<title>call-missed</title>
<path d="M26.406 5.737c3.147 1.543 3.599 5.327 1.947 8.098-0.585 0.967-1.631 1.604-2.826 1.604-0.12 0-0.238-0.006-0.354-0.019l0.014 0.001-2.287-0.237c-1.454-0.155-2.632-1.181-3.011-2.539l-0.006-0.025-0.553-2.039c-0.141-0.517-0.445-0.82-0.767-0.895-1.461-0.343-3.673-0.337-5.127 0.002-0.323 0.075-0.626 0.377-0.767 0.893l-0.553 2.039c-0.385 1.383-1.562 2.409-3.001 2.563l-0.015 0.001-2.287 0.237c-0.102 0.011-0.22 0.018-0.34 0.018-1.195 0-2.241-0.637-2.817-1.59l-0.008-0.015c-1.653-2.771-1.2-6.555 1.947-8.098 3.026-1.516 6.594-2.403 10.369-2.403 0.013 0 0.026 0 0.039 0h-0.002c4.361 0 7.897 1.173 10.406 2.403zM26.921 12.981c1.302-2.183 0.783-4.751-1.249-5.747-2.812-1.409-6.128-2.233-9.635-2.233-0.013 0-0.026 0-0.039 0h0.002c-0.011-0-0.025-0-0.038-0-3.508 0-6.823 0.825-9.762 2.291l0.127-0.057c-2.031 0.997-2.551 3.565-1.249 5.747 0.288 0.478 0.805 0.793 1.395 0.793 0.059 0 0.117-0.003 0.174-0.009l-0.007 0.001 2.287-0.237c0.762-0.081 1.379-0.618 1.578-1.33l0.003-0.013 0.553-2.039c0.244-0.898 0.891-1.821 1.996-2.080 1.699-0.397 4.172-0.405 5.887-0.001 1.105 0.26 1.751 1.184 1.994 2.081l0.553 2.039c0.201 0.725 0.818 1.262 1.572 1.343l0.008 0.001 2.287 0.237c0.050 0.006 0.109 0.009 0.168 0.009 0.59 0 1.106-0.314 1.39-0.785l0.004-0.007zM16.667 19.5c0-0.46-0.373-0.833-0.833-0.833s-0.833 0.373-0.833 0.833v0 3.667c0 0.46 0.373 0.833 0.833 0.833h2.333c0.46 0 0.833-0.373 0.833-0.833s-0.373-0.833-0.833-0.833v0h-1.5v-2.833zM16 29.333c4.050 0 7.333-3.283 7.333-7.333s-3.283-7.333-7.333-7.333-7.333 3.283-7.333 7.333 3.283 7.333 7.333 7.333zM16 27.667c-3.13 0-5.667-2.537-5.667-5.667s2.537-5.667 5.667-5.667v0c3.13 0 5.667 2.537 5.667 5.667s-2.537 5.667-5.667 5.667v0z"></path>
</svg>
