<!-- Generated by IcoMoon.io -->
<svg version="1.1" xmlns="http://www.w3.org/2000/svg" width="32" height="32" viewBox="0 0 32 32">
<title>call-prohibited</title>
<path d="M16.019 3.328c5.257 0 9.167 1.122 11.701 3.426 1.273 1.157 1.857 2.882 1.561 4.564l-0.057 0.28-0.256 1.089c-0.421 1.793-2.107 2.995-3.94 2.809l-2.339-0.237c-1.562-0.159-2.849-1.294-3.203-2.823l-0.519-2.248c-0.020-0.087-0.075-0.163-0.151-0.209-0.429-0.262-1.378-0.426-2.797-0.426-1.953 0-2.87 0.306-2.922 0.524l-0.545 2.36c-0.353 1.529-1.64 2.664-3.201 2.823l-2.328 0.237c-1.827 0.186-3.511-1.009-3.938-2.796l-0.26-1.090c-0.424-1.776 0.153-3.642 1.506-4.868 2.534-2.296 6.44-3.414 11.688-3.414zM16.019 5.328c-4.797 0-8.235 0.985-10.345 2.896-0.812 0.736-1.158 1.855-0.904 2.921l0.26 1.090c0.194 0.812 0.959 1.355 1.79 1.271l2.328-0.237c0.71-0.072 1.295-0.588 1.455-1.283l0.546-2.367c0.359-1.507 2.040-2.067 4.87-2.067 1.757 0 3.020 0.218 3.841 0.72 0.535 0.327 0.915 0.855 1.056 1.466l0.519 2.248c0.16 0.695 0.746 1.211 1.456 1.283l2.339 0.237c0.833 0.085 1.599-0.462 1.791-1.277l0.256-1.089 0.044-0.228c0.153-0.99-0.198-1.998-0.947-2.678-2.109-1.917-5.551-2.905-10.355-2.905z"></path>
<path d="M16 29.334c-4.050 0-7.333-3.283-7.333-7.333s3.283-7.333 7.333-7.333c4.050 0 7.333 3.283 7.333 7.333s-3.283 7.333-7.333 7.333zM16 27.334c2.945 0 5.333-2.388 5.333-5.333 0-1.111-0.34-2.143-0.921-2.997l-7.409 7.409c0.854 0.581 1.886 0.921 2.998 0.921zM11.588 24.998l7.41-7.409c-0.854-0.582-1.886-0.922-2.998-0.922-2.946 0-5.333 2.388-5.333 5.333 0 1.111 0.34 2.143 0.922 2.998z"></path>
</svg>
