<!-- Generated by IcoMoon.io -->
<svg version="1.1" xmlns="http://www.w3.org/2000/svg" width="32" height="32" viewBox="0 0 32 32">
<title>call-checkmark-regular</title>
<path d="M8.297 2.756l-1.556 0.468c-1.671 0.515-2.948 1.838-3.389 3.501l-0.008 0.035c-0.955 3.696 0.080 8.103 3.035 13.217 2.949 5.108 6.24 8.207 9.913 9.232 0.403 0.117 0.865 0.184 1.344 0.184 1.333 0 2.545-0.522 3.441-1.373l-0.002 0.002 1.181-1.119c0.706-0.67 1.146-1.615 1.146-2.662 0-0.805-0.26-1.55-0.7-2.155l0.007 0.011-1.708-2.367c-0.674-0.926-1.754-1.522-2.974-1.522-0.383 0-0.752 0.059-1.099 0.167l0.026-0.007-2.68 0.82c-0.076 0.021-0.253-0.040-0.576-0.327-0.464-0.411-1.008-1.141-1.609-2.183-0.827-1.432-1.187-2.464-1.127-2.993 0.009-0.082 0.048-0.154 0.104-0.207l0-0 1.992-1.857c0.719-0.671 1.167-1.624 1.167-2.682 0-0.545-0.119-1.062-0.332-1.527l0.009 0.023-1.203-2.673c-0.588-1.286-1.864-2.163-3.344-2.163-0.378 0-0.742 0.057-1.085 0.163l0.026-0.007zM5.28 7.261c0.27-1.019 1.037-1.813 2.019-2.116l0.021-0.006 1.555-0.469c0.144-0.045 0.31-0.071 0.481-0.071 0.673 0 1.252 0.399 1.516 0.973l0.004 0.010 1.203 2.675c0.092 0.201 0.146 0.435 0.146 0.682 0 0.481-0.204 0.915-0.53 1.219l-0.001 0.001-1.991 1.857c-0.408 0.38-0.667 0.893-0.728 1.448-0.12 1.069 0.359 2.44 1.383 4.215 1.52 2.633 2.936 3.888 4.496 3.424l2.687-0.823c0.146-0.046 0.314-0.073 0.488-0.073 0.554 0 1.045 0.271 1.348 0.687l0.003 0.005 1.707 2.367c0.197 0.27 0.316 0.609 0.316 0.976 0 0.476-0.2 0.906-0.52 1.21l-0.001 0.001-1.183 1.119c-0.536 0.509-1.263 0.821-2.062 0.821-0.287 0-0.565-0.040-0.828-0.116l0.021 0.005c-3.089-0.861-6.008-3.609-8.72-8.305-2.713-4.703-3.632-8.608-2.829-11.716zM29.040 4.373c0.166-0.178 0.268-0.418 0.268-0.682 0-0.552-0.448-1-1-1-0.264 0-0.504 0.102-0.682 0.269l0.001-0.001-7.627 7.627-2.493-2.493c-0.183-0.196-0.443-0.318-0.732-0.318-0.552 0-1 0.448-1 1 0 0.289 0.122 0.549 0.318 0.731l0.001 0.001 3.2 3.2c0.181 0.181 0.431 0.292 0.707 0.292s0.526-0.112 0.707-0.292v0l8.333-8.333z"></path>
</svg>
