<!-- Generated by IcoMoon.io -->
<svg version="1.1" xmlns="http://www.w3.org/2000/svg" width="32" height="32" viewBox="0 0 32 32">
<title>call-end</title>
<path d="M29.205 17.603l-0.256 1.089c-0.421 1.793-2.107 2.995-3.939 2.809l-2.34-0.237c-1.562-0.159-2.849-1.294-3.203-2.823l-0.519-2.248c-0.020-0.087-0.075-0.163-0.151-0.209-0.429-0.262-1.378-0.426-2.797-0.426-1.048 0-1.848 0.088-2.381 0.251-0.187 0.057-0.318 0.113-0.401 0.154l-0.121 0.065-0.019 0.053-0.545 2.36c-0.353 1.529-1.64 2.664-3.201 2.823l-2.328 0.237c-1.827 0.186-3.511-1.009-3.938-2.795l-0.26-1.090c-0.424-1.776 0.153-3.642 1.506-4.868 2.534-2.296 6.44-3.414 11.688-3.414 5.257 0 9.167 1.122 11.701 3.426 1.269 1.154 1.853 2.872 1.564 4.548l-0.060 0.295zM27.302 16.917c0.153-0.99-0.198-1.998-0.947-2.678-2.109-1.917-5.551-2.905-10.355-2.905-4.797 0-8.235 0.985-10.345 2.897-0.812 0.735-1.158 1.855-0.904 2.921l0.26 1.090c0.194 0.812 0.959 1.355 1.79 1.271l2.328-0.237c0.71-0.072 1.295-0.588 1.455-1.283l0.563-2.427 0.057-0.181c0.501-1.331 2.121-1.826 4.796-1.826 1.757 0 3.020 0.218 3.841 0.72 0.535 0.327 0.915 0.855 1.056 1.466l0.519 2.248c0.161 0.695 0.746 1.211 1.456 1.283l2.339 0.237c0.833 0.085 1.599-0.462 1.791-1.277l0.256-1.089 0.044-0.228z"></path>
</svg>
