<!-- Generated by IcoMoon.io -->
<svg version="1.1" xmlns="http://www.w3.org/2000/svg" width="32" height="32" viewBox="0 0 32 32">
<title>call-add-regular</title>
<path d="M12.7 4.763l1.203 2.675c0.204 0.442 0.322 0.959 0.322 1.503 0 1.058-0.448 2.011-1.164 2.68l-0.002 0.002-1.992 1.857c-0.056 0.053-0.095 0.125-0.104 0.205l-0 0.002c-0.059 0.529 0.3 1.56 1.127 2.993 0.601 1.041 1.147 1.773 1.609 2.183 0.323 0.287 0.5 0.348 0.576 0.327l2.68-0.82c0.321-0.102 0.691-0.161 1.074-0.161 1.219 0 2.299 0.595 2.966 1.51l0.007 0.011 1.707 2.368c0.433 0.595 0.693 1.339 0.693 2.145 0 1.047-0.439 1.992-1.143 2.66l-0.002 0.002-1.181 1.12c-0.894 0.848-2.105 1.37-3.438 1.37-0.479 0-0.942-0.067-1.38-0.193l0.035 0.009c-3.672-1.025-6.964-4.124-9.913-9.232-2.953-5.115-3.989-9.52-3.035-13.217 0.449-1.698 1.726-3.021 3.362-3.527l0.035-0.009 1.556-0.468c0.317-0.099 0.681-0.156 1.059-0.156 1.48 0 2.756 0.877 3.335 2.14l0.009 0.023zM8.875 4.669l-1.556 0.471c-1.002 0.309-1.769 1.102-2.034 2.099l-0.005 0.021c-0.803 3.109 0.116 7.015 2.831 11.717 2.711 4.696 5.629 7.443 8.72 8.307 0.241 0.070 0.518 0.11 0.805 0.11 0.8 0 1.527-0.313 2.064-0.823l-0.001 0.001 1.183-1.12c0.321-0.304 0.52-0.734 0.52-1.21 0-0.366-0.118-0.705-0.319-0.98l0.003 0.005-1.707-2.367c-0.306-0.421-0.797-0.692-1.352-0.692-0.174 0-0.342 0.027-0.5 0.076l0.012-0.003-2.687 0.823c-1.56 0.464-2.976-0.791-4.496-3.424-1.024-1.773-1.501-3.147-1.383-4.215 0.063-0.555 0.32-1.067 0.728-1.448l1.992-1.857c0.327-0.305 0.53-0.738 0.53-1.219 0-0.248-0.054-0.482-0.151-0.694l0.004 0.010-1.203-2.675c-0.268-0.584-0.847-0.983-1.52-0.983-0.171 0-0.336 0.026-0.492 0.074l0.012-0.003zM22.864 2.672l0.136-0.009c0.505 0 0.922 0.374 0.99 0.86l0.001 0.005 0.009 0.135v4.339l4.336 0.001c0.504 0 0.921 0.373 0.99 0.859l0.001 0.005 0.009 0.136c-0 0.504-0.373 0.921-0.859 0.99l-0.005 0.001-0.136 0.009h-4.336v4.331c0 0 0 0.001 0 0.001 0 0.504-0.373 0.921-0.859 0.99l-0.005 0.001-0.136 0.008c-0.504-0-0.921-0.373-0.99-0.859l-0.001-0.005-0.009-0.136v-4.332l-4.336 0.001c-0.504-0-0.921-0.373-0.99-0.859l-0.001-0.005-0.009-0.136c0-0.505 0.374-0.922 0.86-0.99l0.005-0.001 0.135-0.009h4.336v-4.341c0-0.504 0.373-0.921 0.859-0.99l0.005-0.001z"></path>
</svg>
