<!-- Generated by IcoMoon.io -->
<svg version="1.1" xmlns="http://www.w3.org/2000/svg" width="32" height="32" viewBox="0 0 32 32">
<title>call-pause</title>
<path d="M20.667 3.667c0-0.552-0.448-1-1-1s-1 0.448-1 1v0 10c0 0.552 0.448 1 1 1s1-0.448 1-1v0-10zM26 3.667c0-0.552-0.448-1-1-1s-1 0.448-1 1v0 10c0 0.552 0.448 1 1 1s1-0.448 1-1v0-10zM13.904 7.505l-1.203-2.675c-0.588-1.286-1.864-2.164-3.345-2.164-0.377 0-0.741 0.057-1.084 0.163l0.026-0.007-1.556 0.469-0.275 0.092c-1.538 0.574-2.698 1.84-3.115 3.409l-0.008 0.035c-0.956 3.696 0.080 8.101 3.033 13.217 2.949 5.107 6.241 8.207 9.915 9.232 0.402 0.117 0.865 0.184 1.343 0.184 1.333 0 2.545-0.522 3.441-1.372l-0.002 0.002 1.183-1.119c0.706-0.67 1.145-1.615 1.145-2.662 0-0.806-0.26-1.551-0.701-2.156l0.007 0.011-1.708-2.367c-0.674-0.926-1.754-1.52-2.973-1.52-0.383 0-0.752 0.059-1.098 0.167l0.026-0.007-2.68 0.819c-0.076 0.023-0.253-0.040-0.577-0.325-0.463-0.411-1.007-1.141-1.608-2.183-0.827-1.433-1.187-2.464-1.127-2.993 0.009-0.082 0.047-0.154 0.102-0.207l0-0 1.993-1.859c0.718-0.671 1.166-1.624 1.166-2.682 0-0.544-0.119-1.061-0.331-1.525l0.009 0.023zM7.32 5.207l1.556-0.468c0.144-0.045 0.309-0.071 0.48-0.071 0.673 0 1.252 0.399 1.516 0.972l0.004 0.010 1.203 2.675c0.093 0.201 0.146 0.436 0.146 0.683 0 0.48-0.203 0.913-0.528 1.217l-1.994 1.86c-0.407 0.38-0.665 0.893-0.727 1.447-0.12 1.069 0.357 2.441 1.383 4.216 1.52 2.633 2.935 3.888 4.495 3.423l2.687-0.821c0.146-0.046 0.314-0.073 0.488-0.073 0.554 0 1.045 0.271 1.348 0.687l0.003 0.005 1.707 2.367c0.197 0.27 0.316 0.609 0.316 0.976 0 0.476-0.2 0.906-0.52 1.21l-0.001 0.001-1.181 1.119c-0.536 0.509-1.263 0.821-2.062 0.821-0.287 0-0.565-0.040-0.828-0.116l0.021 0.005c-3.089-0.863-6.008-3.609-8.72-8.307-2.715-4.701-3.633-8.607-2.829-11.715 0.25-0.946 0.926-1.696 1.805-2.042l0.020-0.007 0.212-0.073z"></path>
</svg>
