<!-- Generated by IcoMoon.io -->
<svg version="1.1" xmlns="http://www.w3.org/2000/svg" width="32" height="32" viewBox="0 0 32 32">
<title>call-pause</title>
<path d="M20.667 3.667c0-0.552-0.448-1-1-1s-1 0.448-1 1v10c0 0.552 0.448 1 1 1s1-0.448 1-1v-10zM26.001 3.667c0-0.552-0.448-1-1-1s-1 0.448-1 1v10c0 0.552 0.448 1 1 1s1-0.448 1-1v-10zM13.903 7.505l-1.202-2.674c-0.755-1.68-2.639-2.539-4.402-2.007l-1.556 0.469-0.275 0.092c-1.538 0.563-2.71 1.847-3.123 3.444-0.955 3.696 0.081 8.102 3.034 13.217 2.949 5.108 6.242 8.207 9.914 9.232 1.692 0.472 3.507 0.022 4.782-1.186l1.182-1.119c1.334-1.263 1.527-3.318 0.452-4.808l-1.708-2.367c-0.918-1.273-2.545-1.82-4.045-1.361l-2.681 0.819c-0.076 0.023-0.253-0.039-0.576-0.326-0.463-0.411-1.008-1.141-1.609-2.183-0.827-1.432-1.186-2.464-1.127-2.993 0.009-0.079 0.046-0.152 0.104-0.207l1.992-1.858c1.148-1.071 1.487-2.753 0.844-4.185zM7.32 5.207l1.556-0.469c0.802-0.242 1.658 0.149 2.001 0.912l1.202 2.674c0.293 0.651 0.138 1.416-0.383 1.902l-1.992 1.858c-0.408 0.38-0.666 0.894-0.728 1.447-0.119 1.069 0.358 2.441 1.382 4.215 1.52 2.633 2.936 3.888 4.495 3.423l2.687-0.822c0.682-0.209 1.421 0.040 1.839 0.619l1.708 2.367c0.489 0.677 0.401 1.611-0.206 2.185l-1.182 1.119c-0.765 0.725-1.854 0.995-2.869 0.711-3.089-0.862-6.008-3.609-8.719-8.306-2.715-4.702-3.633-8.608-2.83-11.716 0.244-0.942 0.927-1.703 1.827-2.049l0.211-0.072z"></path>
</svg>
