<!-- Generated by IcoMoon.io -->
<svg version="1.1" xmlns="http://www.w3.org/2000/svg" width="32" height="32" viewBox="0 0 32 32">
<title>call-checkmark</title>
<path d="M8.299 2.755l-1.556 0.469c-1.673 0.504-2.961 1.845-3.398 3.536-0.955 3.696 0.081 8.102 3.034 13.217 2.949 5.108 6.242 8.207 9.914 9.232 1.692 0.472 3.507 0.022 4.782-1.186l1.182-1.119c1.334-1.263 1.527-3.318 0.452-4.808l-1.708-2.367c-0.918-1.273-2.545-1.82-4.045-1.361l-2.681 0.819c-0.076 0.023-0.253-0.039-0.576-0.326-0.463-0.411-1.008-1.141-1.609-2.183-0.827-1.432-1.186-2.464-1.127-2.993 0.009-0.079 0.046-0.152 0.104-0.207l1.992-1.858c1.148-1.071 1.487-2.753 0.844-4.185l-1.202-2.674c-0.755-1.68-2.639-2.539-4.402-2.007zM5.281 7.261c0.262-1.015 1.035-1.819 2.039-2.122l1.556-0.469c0.802-0.242 1.658 0.149 2.001 0.912l1.202 2.674c0.293 0.651 0.138 1.416-0.383 1.902l-1.992 1.858c-0.408 0.38-0.666 0.894-0.728 1.447-0.119 1.069 0.358 2.441 1.382 4.215 1.52 2.633 2.936 3.888 4.495 3.423l2.687-0.822c0.682-0.209 1.421 0.040 1.839 0.619l1.708 2.367c0.489 0.677 0.401 1.611-0.206 2.185l-1.182 1.119c-0.765 0.725-1.854 0.995-2.869 0.711-3.089-0.862-6.008-3.609-8.719-8.306-2.715-4.702-3.633-8.608-2.83-11.716zM29.041 4.374c0.391-0.391 0.391-1.024 0-1.414s-1.024-0.391-1.414 0l-7.626 7.626-2.493-2.493c-0.391-0.391-1.024-0.391-1.414 0s-0.391 1.024 0 1.414l3.2 3.2c0.188 0.188 0.442 0.293 0.707 0.293s0.52-0.105 0.707-0.293l8.333-8.333z"></path>
</svg>
