<!-- Generated by IcoMoon.io -->
<svg version="1.1" xmlns="http://www.w3.org/2000/svg" width="32" height="32" viewBox="0 0 32 32">
<title>call-transfer</title>
<path d="M10.456 3.386c-1.664-0.422-3.408-0.243-4.774 0.522-1.392 0.778-2.368 2.157-2.416 4.002-0.074 2.883 0.594 6.752 3.243 11.293 2.616 4.485 5.504 7.173 7.901 8.77 1.514 1.010 3.186 1.037 4.614 0.379 1.408-0.648 2.55-1.942 3.144-3.547 0.116-0.303 0.183-0.654 0.183-1.021 0-0.528-0.139-1.023-0.382-1.451l0.008 0.015-1.526-2.723c-0.698-1.23-1.999-2.046-3.49-2.046-0.513 0-1.004 0.097-1.455 0.273l0.027-0.009-1.066 0.408c-0.517 0.197-0.992 0.106-1.261-0.16-0.904-0.888-1.55-2.093-1.843-3.392-0.093-0.41 0.096-0.893 0.547-1.234l0.962-0.726c0.97-0.738 1.591-1.893 1.591-3.193 0-0.732-0.197-1.418-0.54-2.009l0.010 0.019-1.555-2.712c-0.416-0.716-1.094-1.242-1.899-1.451l-0.021-0.005zM4.866 7.952c0.032-1.238 0.659-2.123 1.597-2.648 0.963-0.539 2.278-0.704 3.6-0.368 0.392 0.099 0.725 0.352 0.926 0.702l1.554 2.712c0.2 0.343 0.318 0.755 0.318 1.194 0 0.78-0.372 1.472-0.947 1.911l-0.006 0.004-0.962 0.726c-0.832 0.627-1.408 1.702-1.146 2.862 0.355 1.571 1.141 3.061 2.283 4.182 0.835 0.819 2.026 0.867 2.954 0.512l1.066-0.408c0.255-0.1 0.549-0.159 0.858-0.159 0.895 0 1.675 0.49 2.088 1.216l0.006 0.012 1.525 2.725c0.192 0.342 0.224 0.752 0.088 1.12-0.464 1.256-1.336 2.198-2.312 2.648-0.955 0.44-2.035 0.427-3.058-0.256-2.194-1.462-4.912-3.97-7.408-8.245-2.498-4.288-3.090-7.862-3.022-10.443zM19.2 13.6c0 0.442-0.358 0.8-0.8 0.8s-0.8-0.358-0.8-0.8v0c0-0.442 0.358-0.8 0.8-0.8s0.8 0.358 0.8 0.8v0zM20.8 12c0 0.442-0.358 0.8-0.8 0.8s-0.8-0.358-0.8-0.8v0c0-0.442 0.358-0.8 0.8-0.8s0.8 0.358 0.8 0.8v0zM22.4 10.4c0 0.442-0.358 0.8-0.8 0.8s-0.8-0.358-0.8-0.8v0c0-0.442 0.358-0.8 0.8-0.8s0.8 0.358 0.8 0.8v0zM28 12.8c-0.442 0-0.8-0.358-0.8-0.8v0-6.072l-3.434 3.435c-0.145 0.145-0.345 0.235-0.566 0.235-0.442 0-0.8-0.358-0.8-0.8 0-0.221 0.089-0.421 0.234-0.566v0l3.435-3.435h-6.069c-0.442 0-0.8-0.358-0.8-0.8s0.358-0.8 0.8-0.8v0h8c0.442 0 0.8 0.358 0.8 0.8v0 8c0 0.442-0.358 0.8-0.8 0.8v0z"></path>
</svg>
