<!-- Generated by IcoMoon.io -->
<svg version="1.1" xmlns="http://www.w3.org/2000/svg" width="32" height="32" viewBox="0 0 32 32">
<title>call-regular</title>
<path d="M11.691 2.922c1.374-0.188 2.529 0.653 3.075 1.745l1.345 2.689c0.746 1.492 0.317 3.243-0.813 4.344-0.668 0.65-1.339 1.393-1.729 2.048-0.017 0.031-0.028 0.068-0.028 0.107 0 0.016 0.002 0.032 0.005 0.048l-0-0.001c0.36 1.951 1.682 3.878 2.861 5.26 0.083 0.092 0.202 0.149 0.335 0.149 0.053 0 0.103-0.009 0.15-0.026l-0.003 0.001 2.65-0.828c0.312-0.101 0.671-0.159 1.044-0.159 1.192 0 2.244 0.596 2.876 1.505l0.008 0.012 1.918 2.789c0.52 0.757 0.783 1.784 0.385 2.771-0.356 0.882-1.045 2.154-2.297 3-1.3 0.877-3.081 1.211-5.411 0.412-2.603-0.893-5.063-3.133-7.102-5.998-2.051-2.883-3.74-6.483-4.764-10.238-0.967-3.545-0.383-5.932 0.991-7.469 1.326-1.483 3.226-1.986 4.503-2.161zM13.275 5.413c-0.305-0.609-0.848-0.909-1.358-0.839-1.134 0.156-2.554 0.578-3.487 1.621-0.884 0.989-1.496 2.73-0.627 5.919 0.977 3.579 2.585 6.999 4.515 9.71 1.942 2.729 4.149 4.655 6.285 5.388 1.903 0.653 3.127 0.33 3.937-0.217 0.857-0.579 1.385-1.5 1.685-2.243 0.137-0.34 0.078-0.78-0.213-1.203l-1.918-2.789c-0.335-0.483-0.886-0.795-1.511-0.795-0.195 0-0.383 0.030-0.56 0.087l0.013-0.004-2.65 0.828c-0.792 0.247-1.684 0.027-2.247-0.633-1.227-1.438-2.791-3.643-3.233-6.040-0.021-0.105-0.033-0.225-0.033-0.349 0-0.354 0.097-0.684 0.267-0.967l-0.005 0.009c0.505-0.849 1.305-1.715 1.998-2.39 0.677-0.659 0.869-1.639 0.486-2.405l-1.345-2.688z"></path>
</svg>
