<!-- Generated by IcoMoon.io -->
<svg version="1.1" xmlns="http://www.w3.org/2000/svg" width="32" height="32" viewBox="0 0 32 32">
<title>call-end</title>
<path d="M26.24 13.122c1.362 0.651 1.997 2.23 1.617 3.874l-0.495 2.145c-0.151 0.639-0.717 1.108-1.392 1.108-0.083 0-0.165-0.007-0.244-0.021l0.008 0.001-3.597-0.599c-0.346-0.059-0.618-0.319-0.695-0.654l-0.001-0.006-0.891-4.015c-0.068-0.296-0.282-0.53-0.56-0.624l-0.006-0.002h-0.001l-0.002-0.001-0.006-0.002-0.019-0.007c-0.288-0.094-0.681-0.198-1.081-0.285l-0.091-0.017c-0.834-0.187-1.794-0.297-2.779-0.304l-0.005-0c-1.078 0-2.069 0.153-2.784 0.304-0.491 0.103-0.884 0.208-1.271 0.328l0.098-0.026-0.019 0.007-0.006 0.002h-0.003v0.001c-0.284 0.097-0.498 0.331-0.565 0.621l-0.001 0.006-0.891 4.015c-0.078 0.341-0.351 0.601-0.692 0.659l-0.005 0.001-3.597 0.599c-0.070 0.012-0.152 0.019-0.234 0.019-0.675 0-1.241-0.468-1.39-1.098l-0.002-0.010-0.49-2.122c-0.382-1.654 0.263-3.242 1.638-3.891 2.233-1.056 5.751-2.256 10.217-2.271 4.481-0.015 8.008 1.199 10.238 2.265zM18.987 15.826l0.782 3.517c0.233 1.021 1.050 1.801 2.073 1.976l0.015 0.002 3.597 0.6c0.155 0.027 0.334 0.043 0.516 0.043 1.485 0 2.729-1.030 3.058-2.414l0.004-0.021 0.496-2.146c0.519-2.248-0.309-4.735-2.549-5.806-2.405-1.151-6.185-2.449-10.983-2.433-4.773 0.016-8.539 1.298-10.944 2.434-2.257 1.067-3.097 3.566-2.576 5.827l0.491 2.123c0.333 1.406 1.577 2.436 3.062 2.436 0.182 0 0.36-0.015 0.534-0.045l-0.019 0.003 3.598-0.6c1.038-0.178 1.854-0.958 2.084-1.961l0.003-0.017 0.782-3.517c0.893-0.239 1.921-0.384 2.98-0.398l0.009-0c0.922 0 1.79 0.133 2.431 0.267 0.215 0.046 0.403 0.091 0.557 0.13z"></path>
</svg>
