<!-- Generated by IcoMoon.io -->
<svg version="1.1" xmlns="http://www.w3.org/2000/svg" width="32" height="32" viewBox="0 0 32 32">
<title>call-inbound</title>
<path d="M12.7 4.763l1.202 2.674c0.644 1.432 0.304 3.114-0.844 4.185l-1.992 1.858c-0.058 0.054-0.095 0.128-0.104 0.207-0.059 0.529 0.3 1.561 1.127 2.993 0.601 1.042 1.146 1.772 1.609 2.183 0.323 0.286 0.501 0.348 0.576 0.326l2.68-0.819c1.501-0.459 3.127 0.088 4.045 1.361l1.708 2.367c1.075 1.49 0.882 3.545-0.452 4.808l-1.182 1.119c-1.275 1.208-3.091 1.658-4.782 1.186-3.672-1.025-6.965-4.124-9.914-9.232-2.953-5.115-3.99-9.521-3.034-13.217 0.413-1.597 1.585-2.882 3.123-3.444l0.275-0.092 1.556-0.469c1.763-0.532 3.647 0.327 4.402 2.007zM8.875 4.67l-1.556 0.469-0.211 0.072c-0.9 0.346-1.584 1.107-1.827 2.049-0.804 3.109 0.115 7.014 2.83 11.716 2.711 4.696 5.63 7.443 8.719 8.305 1.015 0.283 2.104 0.013 2.869-0.711l1.182-1.119c0.606-0.574 0.694-1.508 0.206-2.185l-1.708-2.367c-0.417-0.578-1.157-0.827-1.839-0.619l-2.687 0.821c-1.56 0.465-2.975-0.79-4.495-3.423-1.024-1.774-1.502-3.146-1.382-4.215 0.062-0.554 0.32-1.067 0.728-1.448l1.992-1.858c0.522-0.487 0.676-1.252 0.383-1.902l-1.202-2.674c-0.343-0.764-1.2-1.154-2.001-0.912zM27 14.665l-8.738-0.001-0.132-0.018-0.136-0.038-0.064-0.027c-0.111-0.047-0.215-0.117-0.305-0.207-0.058-0.058-0.107-0.121-0.148-0.187l-0.065-0.128-0.033-0.088-0.031-0.127-0.015-0.14-0.001-8.71c0-0.552 0.448-1 1-1 0.506 0 0.925 0.376 0.991 0.864l0.009 0.136-0.001 6.259 8.294-8.298c0.355-0.355 0.911-0.388 1.302-0.097l0.112 0.097c0.355 0.355 0.387 0.91 0.097 1.302l-0.097 0.112-8.293 8.296 6.254 0.001c0.506 0 0.925 0.376 0.991 0.864l0.009 0.136c0 0.506-0.376 0.925-0.864 0.991l-0.136 0.009z"></path>
</svg>
