<!-- Generated by IcoMoon.io -->
<svg version="1.1" xmlns="http://www.w3.org/2000/svg" width="32" height="32" viewBox="0 0 32 32">
<title>camera-dome-regular</title>
<path d="M2.667 4.833c0-1.197 0.97-2.167 2.167-2.167v0h22.333c1.197 0 2.167 0.97 2.167 2.167v0 1.667c0 0.896-0.544 1.665-1.319 1.995l-0.014 0.005v8.833c0 6.627-5.373 12-12 12s-12-5.373-12-12v-8.833c-0.79-0.335-1.333-1.104-1.333-2v0-1.667zM5.667 8.667v8.667c0 5.707 4.627 10.333 10.333 10.333s10.333-4.627 10.333-10.333v-8.667h-20.667zM27.667 6.5v-1.667c0-0.276-0.224-0.5-0.5-0.5v0h-22.333c-0.276 0-0.5 0.224-0.5 0.5v0 1.667c0 0.276 0.224 0.5 0.5 0.5h22.333c0.276 0 0.5-0.224 0.5-0.5v0zM10.333 18c0-3.13 2.537-5.667 5.667-5.667s5.667 2.537 5.667 5.667v0c0 3.13-2.537 5.667-5.667 5.667s-5.667-2.537-5.667-5.667v0zM16 10.667c-4.050 0-7.333 3.283-7.333 7.333s3.283 7.333 7.333 7.333 7.333-3.283 7.333-7.333-3.283-7.333-7.333-7.333zM12 18c0-2.209 1.791-4 4-4s4 1.791 4 4v0c0 2.209-1.791 4-4 4s-4-1.791-4-4v0z"></path>
</svg>
