<!-- Generated by IcoMoon.io -->
<svg version="1.1" xmlns="http://www.w3.org/2000/svg" width="32" height="32" viewBox="0 0 32 32">
<title>camera-sparkles</title>
<path d="M21.139 8.195c0.404 0.406 0.717 0.903 0.905 1.459l0.008 0.027 0.597 1.836c0.101 0.286 0.369 0.487 0.684 0.487s0.583-0.201 0.682-0.482l0.002-0.005 0.597-1.836c0.386-1.134 1.263-2.010 2.371-2.387l0.027-0.008 1.837-0.597c0.283-0.103 0.482-0.37 0.482-0.683s-0.199-0.58-0.477-0.682l-0.005-0.002-0.037-0.009-1.837-0.597c-1.134-0.385-2.011-1.261-2.389-2.368l-0.008-0.027-0.596-1.836c-0.102-0.285-0.37-0.486-0.685-0.486s-0.583 0.201-0.683 0.481l-0.002 0.005-0.612 1.881c-0.386 1.106-1.241 1.961-2.319 2.341l-0.026 0.008-1.837 0.597c-0.283 0.103-0.482 0.37-0.482 0.683s0.199 0.58 0.477 0.682l0.005 0.002 1.837 0.597c0.56 0.187 1.067 0.501 1.484 0.919zM30.689 13.287l1.021 0.331 0.020 0.005c0.158 0.057 0.27 0.206 0.27 0.381 0 0.087-0.028 0.168-0.074 0.234l0.001-0.001c-0.048 0.067-0.115 0.118-0.193 0.146l-0.003 0.001-1.020 0.331c-0.631 0.214-1.118 0.7-1.329 1.316l-0.004 0.015-0.331 1.020c-0.057 0.158-0.205 0.269-0.38 0.269s-0.323-0.111-0.379-0.267l-0.001-0.003-0.332-1.019c-0.213-0.632-0.7-1.122-1.317-1.332l-0.015-0.004-1.020-0.332c-0.158-0.057-0.27-0.206-0.27-0.381 0-0.087 0.028-0.168 0.074-0.234l-0.001 0.001c0.048-0.067 0.115-0.118 0.193-0.146l0.003-0.001 1.020-0.331c0.623-0.219 1.102-0.705 1.308-1.317l0.004-0.015 0.332-1.019c0.057-0.158 0.205-0.269 0.38-0.269s0.323 0.111 0.379 0.267l0.001 0.003 0.332 1.019c0.213 0.631 0.7 1.118 1.316 1.328l0.015 0.004zM13.496 5.337h2.612c0.208-0.601 0.669-1.068 1.252-1.278l0.014-0.005 1.921-0.627c-0.219-0.057-0.47-0.090-0.729-0.091h-5.071c-1.076 0-2.019 0.567-2.549 1.418l-0.007 0.013-1.167 1.899h-2.773c-2.393 0-4.333 1.94-4.333 4.333v0 12.667c0 2.393 1.94 4.333 4.333 4.333v0h18c2.393 0 4.333-1.94 4.333-4.333v0-5.136c-0.541 0.219-1.187 0.157-1.669-0.183-0.125-0.089-0.234-0.19-0.328-0.303l-0.002-0.003v5.624c0 1.289-1.045 2.333-2.333 2.333v0h-18c-1.289 0-2.333-1.045-2.333-2.333v0-12.667c0-1.288 1.045-2.333 2.333-2.333h3.333c0 0 0.001 0 0.001 0 0.359 0 0.674-0.189 0.85-0.473l0.002-0.004 1.457-2.375 0.087-0.12c0.184-0.219 0.459-0.357 0.765-0.357h0zM22 16.667c0-3.314-2.686-6-6-6s-6 2.686-6 6v0c0 3.314 2.686 6 6 6s6-2.686 6-6v0zM12 16.667c0-2.209 1.791-4 4-4s4 1.791 4 4v0c0 2.209-1.791 4-4 4s-4-1.791-4-4v0z"></path>
</svg>
