<!-- Generated by IcoMoon.io -->
<svg version="1.1" xmlns="http://www.w3.org/2000/svg" width="32" height="32" viewBox="0 0 32 32">
<title>camera-switch</title>
<path d="M28.333 10c0.504 0 0.921 0.373 0.99 0.859l0.001 0.005 0.009 0.136v11.333c0 0 0 0 0 0 0 2.307-1.803 4.193-4.076 4.326l-0.012 0.001-0.245 0.007h-16.919l0.96 0.96c0.181 0.181 0.292 0.431 0.292 0.706 0 0.224-0.074 0.431-0.198 0.598l0.002-0.003-0.097 0.112c-0.181 0.181-0.431 0.293-0.707 0.293-0.224 0-0.43-0.073-0.597-0.198l0.003 0.002-0.112-0.097-2.667-2.667-0.085-0.096c0 0.001-0.003-0.004-0.006-0.008l-0.003-0.005 0.093 0.109c-0.18-0.181-0.291-0.431-0.291-0.707 0-0.176 0.045-0.341 0.125-0.485l-0.003 0.005c0.049-0.087 0.105-0.161 0.171-0.227l2.667-2.667c0.181-0.179 0.43-0.29 0.704-0.29 0.552 0 1 0.448 1 1 0 0.223-0.073 0.428-0.196 0.594l0.002-0.003-0.097 0.112-0.96 0.96h16.92c1.221-0 2.224-0.939 2.325-2.134l0.001-0.009 0.008-0.191v-11.333c0-0.552 0.448-1 1-1v0zM24.261 2.863l0.112 0.097 2.667 2.667c0.033 0.033 0.064 0.068 0.093 0.106l0.002 0.002-0.093-0.108c0.18 0.181 0.291 0.431 0.291 0.707 0 0.273-0.109 0.521-0.286 0.701l0-0-0.007 0.005-2.667 2.667c-0.181 0.179-0.43 0.29-0.704 0.29-0.552 0-1-0.448-1-1 0-0.223 0.073-0.428 0.196-0.594l-0.002 0.003 0.097-0.112 0.957-0.96h-16.917c-1.221 0-2.223 0.938-2.325 2.133l-0.001 0.009-0.008 0.192v11.333c-0 0.552-0.448 1-1 1-0.504 0-0.921-0.373-0.99-0.858l-0.001-0.005-0.009-0.136v-11.333c0-0 0-0 0-0 0-2.307 1.803-4.193 4.076-4.326l0.012-0.001 0.245-0.007h16.919l-0.96-0.96c-0.181-0.181-0.292-0.431-0.292-0.706 0-0.224 0.074-0.431 0.198-0.598l-0.002 0.003 0.097-0.112c0.181-0.181 0.431-0.293 0.707-0.293 0.224 0 0.43 0.073 0.597 0.198l-0.003-0.002zM16 10.667c2.946 0 5.333 2.388 5.333 5.333s-2.388 5.333-5.333 5.333v0c-2.946 0-5.333-2.388-5.333-5.333s2.388-5.333 5.333-5.333v0zM16 12.667c-1.841 0-3.333 1.492-3.333 3.333s1.492 3.333 3.333 3.333v0c1.841 0 3.333-1.492 3.333-3.333s-1.492-3.333-3.333-3.333v0z"></path>
</svg>
