<!-- Generated by IcoMoon.io -->
<svg version="1.1" xmlns="http://www.w3.org/2000/svg" width="32" height="32" viewBox="0 0 32 32">
<title>camera-off-regular</title>
<path d="M4.373 2.96c-0.183-0.196-0.443-0.318-0.732-0.318-0.552 0-1 0.448-1 1 0 0.289 0.122 0.549 0.318 0.731l0.001 0.001 2.553 2.555c-1.675 0.625-2.847 2.211-2.847 4.071 0 0 0 0.001 0 0.001v-0 12.667c0 2.393 1.94 4.333 4.333 4.333v0h18c0.001 0 0.003 0 0.004 0 0.487 0 0.955-0.081 1.391-0.229l-0.030 0.009 1.26 1.26c0.18 0.174 0.425 0.281 0.695 0.281 0.552 0 1-0.448 1-1 0-0.27-0.107-0.515-0.281-0.695l-24.666-24.666zM24.587 26h-17.587c-1.289 0-2.333-1.045-2.333-2.333v0-12.667c0-1.288 1.045-2.333 2.333-2.333h0.253l4.147 4.147c-0.874 1.035-1.406 2.385-1.406 3.859 0 3.314 2.686 6 6 6 1.474 0 2.823-0.531 3.868-1.413l-0.009 0.007 4.732 4.733zM12.824 14.237l5.607 5.607c-0.666 0.515-1.513 0.825-2.433 0.825-2.209 0-4-1.791-4-4 0-0.92 0.31-1.767 0.832-2.442l-0.007 0.009zM14.995 10.751l2.053 2.055c1.373 0.382 2.432 1.441 2.808 2.785l0.007 0.028 2.053 2.055c0.054-0.303 0.085-0.652 0.085-1.008 0-3.314-2.686-6-6-6-0.356 0-0.705 0.031-1.044 0.091l0.036-0.005zM27.335 11v12.091l1.819 1.82c0.119-0.395 0.181-0.812 0.181-1.244v-12.667c0-2.393-1.94-4.333-4.333-4.333-0 0-0.001 0-0.001 0h-2.76l-1.087-1.849c-0.531-0.892-1.49-1.48-2.586-1.48-0 0-0 0-0 0h-5.071c-1.076 0-2.019 0.567-2.549 1.418l-0.007 0.013-0.733 1.195 1.453 1.455 0.984-1.603 0.087-0.12c0.184-0.219 0.459-0.357 0.765-0.357h5.071c0.365 0 0.684 0.196 0.859 0.489l0.003 0.005 1.376 2.343c0.177 0.297 0.497 0.493 0.862 0.493 0 0 0 0 0.001 0h3.333c1.288 0 2.333 1.045 2.333 2.333z"></path>
</svg>
