<!-- Generated by IcoMoon.io -->
<svg version="1.1" xmlns="http://www.w3.org/2000/svg" width="32" height="32" viewBox="0 0 32 32">
<title>camera</title>
<path d="M18.566 3.337c1.064 0 2.048 0.563 2.587 1.481l1.086 1.849h2.761c2.393 0 4.333 1.94 4.333 4.333v12.667c0 2.393-1.94 4.333-4.333 4.333h-18c-2.393 0-4.333-1.94-4.333-4.333v-12.667c0-2.393 1.94-4.333 4.333-4.333h2.774l1.166-1.899c0.546-0.889 1.514-1.43 2.557-1.43h5.070zM18.566 5.337h-5.070c-0.298 0-0.578 0.133-0.766 0.357l-0.086 0.12-1.459 2.376c-0.182 0.296-0.505 0.477-0.852 0.477h-3.333c-1.289 0-2.333 1.045-2.333 2.333v12.667c0 1.289 1.045 2.333 2.333 2.333h18c1.289 0 2.333-1.045 2.333-2.333v-12.667c0-1.289-1.045-2.333-2.333-2.333h-3.333c-0.355 0-0.683-0.188-0.862-0.493l-1.376-2.342c-0.18-0.306-0.508-0.494-0.862-0.494zM16 10.666c3.314 0 6 2.686 6 6s-2.686 6-6 6c-3.314 0-6-2.686-6-6s2.686-6 6-6zM16 12.666c-2.209 0-4 1.791-4 4s1.791 4 4 4 4-1.791 4-4c0-2.209-1.791-4-4-4z"></path>
</svg>
