<!-- Generated by IcoMoon.io -->
<svg version="1.1" xmlns="http://www.w3.org/2000/svg" width="32" height="32" viewBox="0 0 32 32">
<title>camera-edit-regular</title>
<path d="M10.853 4.522c0.404-0.79 1.212-1.322 2.144-1.322h6.022c0.935 0 1.745 0.534 2.141 1.314l0.006 0.014 0.936 1.872h2.704c2.209 0 4 1.791 4 4v0 3.512c-0.449-0.39-0.982-0.696-1.568-0.887l-0.032-0.009v-2.616c0-1.325-1.075-2.4-2.4-2.4v0h-3.2c-0.311-0.001-0.579-0.178-0.712-0.437l-0.002-0.005-1.157-2.315c-0.134-0.265-0.404-0.443-0.716-0.443-0 0-0.001 0-0.001 0h-6.022c-0 0-0.001 0-0.001 0-0.311 0-0.58 0.177-0.712 0.436l-0.002 0.005-1.165 2.318c-0.135 0.263-0.403 0.44-0.714 0.44h-3.197c-1.325 0-2.4 1.075-2.4 2.4v0 12.802c0 1.325 1.075 2.4 2.4 2.4v0h5.946l-0.261 1.045c-0.042 0.162-0.073 0.351-0.086 0.546l-0.001 0.009h-5.6c-2.209 0-4-1.791-4-4v0-12.8c0-2.209 1.791-4 4-4v0h2.704l0.944-1.878zM22.219 14.49c-0.713-2.816-3.225-4.866-6.216-4.866-3.527 0-6.388 2.852-6.403 6.375v0.001c0 3.024 2.096 5.557 4.915 6.227 0.107-0.129 0.213-0.244 0.323-0.355l1.072-1.072c-2.612-0.051-4.71-2.18-4.71-4.799 0-2.651 2.149-4.8 4.8-4.8 2.619 0 4.748 2.098 4.799 4.705l0 0.005 1.421-1.421zM23.694 15.277l-7.728 7.728c-0.437 0.438-0.759 0.99-0.918 1.608l-0.005 0.024-0.6 2.397c-0.027 0.103-0.042 0.221-0.042 0.343 0 0.786 0.638 1.424 1.424 1.424 0.122 0 0.241-0.015 0.354-0.044l-0.010 0.002 2.397-0.598c0.642-0.164 1.195-0.487 1.632-0.925l7.728-7.728c0.531-0.54 0.86-1.281 0.86-2.099 0-1.652-1.34-2.992-2.992-2.992-0.818 0-1.56 0.328-2.1 0.861l0-0z"></path>
</svg>
