<!-- Generated by IcoMoon.io -->
<svg version="1.1" xmlns="http://www.w3.org/2000/svg" width="32" height="32" viewBox="0 0 32 32">
<title>cast</title>
<path d="M2.667 8.333c0-1.657 1.343-3 3-3h20.667c1.657 0 3 1.343 3 3v15.333c0 1.657-1.343 3-3 3h-20.667c-1.657 0-3-1.343-3-3v-15.333zM5.667 7.333c-0.552 0-1 0.448-1 1v15.333c0 0.552 0.448 1 1 1h20.667c0.552 0 1-0.448 1-1v-15.333c0-0.552-0.448-1-1-1h-20.667z"></path>
<path d="M9.328 21.327c0 0.735-0.596 1.331-1.331 1.331s-1.331-0.596-1.331-1.331c0-0.735 0.596-1.331 1.331-1.331s1.331 0.596 1.331 1.331z"></path>
<path d="M6.661 17.001c0-0.552 0.448-1 1-1 3.127 0 5.663 2.535 5.663 5.663 0 0.552-0.448 1-1 1s-1-0.448-1-1c0-2.023-1.64-3.663-3.663-3.663-0.552 0-1-0.448-1-1z"></path>
<path d="M6.661 12.992c0-0.552 0.448-1 1-1 5.342 0 9.672 4.33 9.672 9.672 0 0.552-0.448 1-1 1s-1-0.448-1-1c0-4.237-3.435-7.672-7.672-7.672-0.552 0-1-0.448-1-1z"></path>
</svg>
