<!-- Generated by IcoMoon.io -->
<svg version="1.1" xmlns="http://www.w3.org/2000/svg" width="32" height="32" viewBox="0 0 32 32">
<title>catch-up</title>
<path d="M12.371 10.877c0.051-0.123 0.17-0.207 0.309-0.207 0.138 0 0.256 0.083 0.307 0.202l0.001 0.002 4.315 10.355c0.765 1.836 3.329 1.935 4.233 0.164l2.133-4.181c0.169-0.326 0.504-0.545 0.891-0.545 0 0 0 0 0 0h0.859c0.306 1.16 1.346 2.001 2.582 2.001 1.473 0 2.667-1.194 2.667-2.667s-1.194-2.667-2.667-2.667c-0.981 0-1.839 0.53-2.302 1.32l-0.007 0.013h-1.133c0 0 0 0 0 0-1.159 0-2.165 0.657-2.664 1.619l-0.008 0.017-2.133 4.181c-0.057 0.108-0.168 0.181-0.296 0.181-0.138 0-0.256-0.084-0.307-0.203l-0.001-0.002-4.316-10.353c-0.8-1.921-3.525-1.912-4.313 0.015l-1.603 3.925c-0.153 0.368-0.51 0.621-0.926 0.621-0 0-0.001 0-0.001 0h-1.68c-0.47-0.802-1.327-1.332-2.309-1.332-1.473 0-2.667 1.194-2.667 2.667s1.194 2.667 2.667 2.667c1.236 0 2.276-0.841 2.578-1.982l0.004-0.019h1.407c1.248-0 2.318-0.762 2.77-1.847l0.007-0.020 1.604-3.923z"></path>
</svg>
