<!-- Generated by IcoMoon.io -->
<svg version="1.1" xmlns="http://www.w3.org/2000/svg" width="32" height="32" viewBox="0 0 32 32">
<title>cellular-data-3-regular</title>
<path d="M5 22.667c0.504 0 0.921 0.373 0.99 0.859l0.001 0.005 0.009 0.136v2c-0 0.552-0.448 1-1 1-0.504 0-0.921-0.373-0.99-0.858l-0.001-0.005-0.009-0.136v-2c0-0.552 0.448-1 1-1v0zM15.667 14.667c0.504 0 0.921 0.373 0.99 0.859l0.001 0.005 0.009 0.136v10c-0 0.552-0.448 1-1 1-0.504 0-0.921-0.373-0.99-0.858l-0.001-0.005-0.009-0.136v-10c0-0.552 0.448-1 1-1v0zM10.333 18.667c0.504 0 0.921 0.373 0.99 0.859l0.001 0.005 0.009 0.136v5.999c-0 0.552-0.448 1-1 1-0.504 0-0.921-0.373-0.99-0.858l-0.001-0.005-0.009-0.137v-5.997c0-0.552 0.448-1 1-1v0z"></path>
</svg>
