<!-- Generated by IcoMoon.io -->
<svg version="1.1" xmlns="http://www.w3.org/2000/svg" width="32" height="32" viewBox="0 0 32 32">
<title>cellular-data-cellular-off</title>
<path d="M4.374 2.96c-0.391-0.391-1.024-0.391-1.414-0s-0.391 1.024-0 1.414l11.707 11.707v9.586l0.009 0.136c0.066 0.488 0.485 0.864 0.991 0.864 0.552 0 1-0.448 1-1v-7.585l3.333 3.333v4.252l0.009 0.136c0.066 0.488 0.485 0.864 0.991 0.864 0.552 0 1-0.448 1-1v-2.252l5.626 5.626c0.391 0.391 1.024 0.391 1.414 0s0.391-1.024 0-1.414l-24.666-24.667z"></path>
<path d="M25.333 21.091l2 2v-15.435l-0.011-0.136c-0.071-0.487-0.493-0.859-0.999-0.854-0.552 0.005-0.996 0.457-0.99 1.009v13.415z"></path>
<path d="M20 15.758l2 2v-6.091l-0.009-0.136c-0.066-0.488-0.485-0.864-0.991-0.864-0.552 0-1 0.448-1 1v4.091z"></path>
<path d="M5 22.667c0.506 0 0.925 0.376 0.991 0.864l0.009 0.136v2c0 0.552-0.448 1-1 1-0.506 0-0.925-0.376-0.991-0.864l-0.009-0.136v-2c0-0.552 0.448-1 1-1z"></path>
<path d="M10.333 18.667c0.506 0 0.925 0.376 0.991 0.864l0.009 0.136v5.998c0 0.552-0.448 1-1 1-0.506 0-0.925-0.376-0.991-0.864l-0.009-0.136v-5.998c0-0.552 0.448-1 1-1z"></path>
</svg>
