<!-- Generated by IcoMoon.io -->
<svg version="1.1" xmlns="http://www.w3.org/2000/svg" width="32" height="32" viewBox="0 0 32 32">
<title>cellular-4g</title>
<path d="M17.195 4.825l0.001 0.001c0.28 0.476 0.121 1.089-0.355 1.369-0.465 0.273-1.059 0.128-1.348-0.321-0.004-0.005-0.010-0.013-0.021-0.023-0.032-0.034-0.098-0.095-0.205-0.154-0.196-0.109-0.624-0.268-1.42-0.122-0.544 0.1-0.825 0.445-0.999 0.889-0.088 0.226-0.135 0.453-0.159 0.628-0.012 0.086-0.017 0.154-0.020 0.198-0.001 0.022-0.002 0.037-0.002 0.045l-0 0.004v1.662c0 0.736 0.597 1.333 1.333 1.333h0.333c0.621 0 1.143-0.425 1.291-1h-0.625c-0.552 0-1-0.448-1-1s0.448-1 1-1l1.667-0c0.552 0 1 0.448 1 1v0.667c0 1.841-1.492 3.333-3.333 3.333h-0.333c-1.841 0-3.333-1.492-3.333-3.333v-1.67l0-0.005 0-0.012 0.001-0.034c0.001-0.027 0.002-0.064 0.005-0.107 0.005-0.088 0.015-0.208 0.035-0.35 0.039-0.282 0.117-0.672 0.278-1.085 0.327-0.836 1.045-1.861 2.501-2.129 1.217-0.223 2.122-0.011 2.756 0.343 0.308 0.172 0.532 0.367 0.685 0.529 0.077 0.081 0.136 0.155 0.179 0.214 0.022 0.030 0.040 0.056 0.055 0.079 0.007 0.011 0.014 0.021 0.019 0.030l0.008 0.013 0.003 0.006 0.002 0.003 0.001 0.001zM6.304 4.082c0.795-0.966 2.363-0.403 2.363 0.848v3.738h0.333c0.552 0 1 0.448 1 1s-0.448 1-1 1h-0.333v0.667c0 0.552-0.448 1-1 1s-1-0.448-1-1v-0.667h-2.395c-1.352 0-2.095-1.573-1.235-2.617l3.268-3.968zM6.667 8.667v-1.879l-1.548 1.879h1.548zM15.667 16c0.506 0 0.925 0.376 0.991 0.864l0.009 0.136v10c0 0.552-0.448 1-1 1-0.506 0-0.925-0.376-0.991-0.864l-0.009-0.136v-10c0-0.552 0.448-1 1-1zM21 12c0.506 0 0.925 0.376 0.991 0.864l0.009 0.136v14c0 0.552-0.448 1-1 1-0.506 0-0.925-0.376-0.991-0.864l-0.009-0.136v-14c0-0.552 0.448-1 1-1zM5 24c0.506 0 0.925 0.376 0.991 0.864l0.009 0.136v2c0 0.552-0.448 1-1 1-0.506 0-0.925-0.376-0.991-0.864l-0.009-0.136v-2c0-0.552 0.448-1 1-1zM26.324 8c0.506-0.005 0.928 0.367 0.999 0.854l0.011 0.136v18.001c0.005 0.552-0.438 1.003-0.99 1.009-0.506 0.005-0.928-0.367-0.999-0.854l-0.011-0.136v-18.001c-0.005-0.552 0.438-1.003 0.99-1.009zM10.333 20c0.506 0 0.925 0.376 0.991 0.864l0.009 0.136v5.998c0 0.552-0.448 1-1 1-0.506 0-0.925-0.376-0.991-0.864l-0.009-0.136v-5.998c0-0.552 0.448-1 1-1z"></path>
</svg>
