<!-- Generated by IcoMoon.io -->
<svg version="1.1" xmlns="http://www.w3.org/2000/svg" width="32" height="32" viewBox="0 0 32 32">
<title>cellular-data-cellular-unavailable</title>
<path d="M5 24.005c0.506 0 0.925 0.376 0.991 0.864l0.009 0.136v2c0 0.552-0.448 1-1 1-0.506 0-0.925-0.376-0.991-0.864l-0.009-0.136v-2c0-0.552 0.448-1 1-1zM15.667 16.005c0.506 0 0.925 0.376 0.991 0.864l0.009 0.136v10c0 0.552-0.448 1-1 1-0.506 0-0.925-0.376-0.991-0.864l-0.009-0.136v-10c0-0.552 0.448-1 1-1zM21 12.005c0.506 0 0.925 0.376 0.991 0.864l0.009 0.136v14c0 0.552-0.448 1-1 1-0.506 0-0.925-0.376-0.991-0.864l-0.009-0.136v-14c0-0.552 0.448-1 1-1zM26.333 26.005c0.552 0 1 0.448 1 1s-0.448 1-1 1c-0.552 0-1-0.448-1-1s0.448-1 1-1zM10.333 20c0.506 0 0.925 0.376 0.991 0.864l0.009 0.136v5.998c0 0.552-0.448 1-1 1-0.506 0-0.925-0.376-0.991-0.864l-0.009-0.136v-5.998c0-0.552 0.448-1 1-1zM26.312 8.005c0.5-0.005 0.918 0.367 0.988 0.855l0.010 0.136 0.023 14.514c0.005 0.552-0.433 1.004-0.979 1.010-0.5 0.005-0.918-0.367-0.988-0.855l-0.010-0.136-0.023-14.514c-0.005-0.552 0.433-1.004 0.979-1.010z"></path>
</svg>
