<!-- Generated by IcoMoon.io -->
<svg version="1.1" xmlns="http://www.w3.org/2000/svg" width="32" height="32" viewBox="0 0 32 32">
<title>cellular-5g</title>
<path d="M17.195 4.825c0.093 0.149 0.149 0.33 0.149 0.525 0 0.552-0.448 1-1 1-0.358 0-0.672-0.188-0.849-0.471l-0.002-0.004c-0.064-0.070-0.138-0.129-0.221-0.175l-0.004-0.002c-0.196-0.111-0.623-0.269-1.42-0.123-0.544 0.1-0.825 0.445-0.999 0.889-0.101 0.256-0.166 0.553-0.181 0.863l-0 0.006v1.667c0 0.736 0.597 1.333 1.333 1.333v0h0.333c0 0 0.001 0 0.001 0 0.618 0 1.138-0.42 1.289-0.991l0.002-0.009h-0.625c-0.552 0-1-0.448-1-1s0.448-1 1-1v0h1.667c0.552 0 1 0.448 1 1v0 0.667c0 1.841-1.492 3.333-3.333 3.333v0h-0.333c-1.841 0-3.333-1.492-3.333-3.333v0-1.721l0.005-0.107c0.033-0.525 0.145-1.014 0.325-1.469l-0.011 0.033c0.327-0.836 1.045-1.861 2.501-2.129 1.216-0.223 2.121-0.011 2.756 0.344 0.307 0.172 0.532 0.367 0.685 0.529 0.091 0.096 0.174 0.202 0.248 0.314l0.005 0.009 0.008 0.013 0.004 0.008 0.001 0.001zM4.34 4.556c0.058-0.502 0.48-0.889 0.993-0.889h3.333c0.552 0 1 0.448 1 1s-0.448 1-1 1v0h-2.439l-0.085 0.776 0.021-0.004c0.158-0.030 0.339-0.047 0.524-0.047 1.641 0 2.971 1.33 2.971 2.971 0 1.638-1.326 2.966-2.963 2.971h-0.294c-1.036-0.001-1.949-0.526-2.488-1.325l-0.007-0.011-0.073-0.109c-0.102-0.154-0.162-0.343-0.162-0.546 0-0.552 0.448-1 1-1 0.342 0 0.643 0.171 0.824 0.433l0.002 0.003 0.073 0.109c0.182 0.27 0.486 0.445 0.832 0.445h0.292c0.534-0.003 0.965-0.436 0.965-0.971 0-0.536-0.435-0.971-0.971-0.971-0.059 0-0.117 0.005-0.174 0.016l0.006-0.001-1.344 0.244c-0.054 0.010-0.116 0.016-0.179 0.016-0.552 0-1-0.448-1-1 0-0.039 0.002-0.077 0.006-0.114l-0 0.005 0.333-3zM15.667 16c0.504 0 0.921 0.373 0.99 0.859l0.001 0.005 0.009 0.136v10c-0 0.552-0.448 1-1 1-0.504 0-0.921-0.373-0.99-0.858l-0.001-0.005-0.009-0.136v-10c0-0.552 0.448-1 1-1v0zM21 12c0.504 0 0.921 0.373 0.99 0.859l0.001 0.005 0.009 0.136v14c-0 0.552-0.448 1-1 1-0.504 0-0.921-0.373-0.99-0.858l-0.001-0.005-0.009-0.136v-14c0-0.552 0.448-1 1-1v0zM5 24c0.504 0 0.921 0.373 0.99 0.859l0.001 0.005 0.009 0.136v2c-0 0.552-0.448 1-1 1-0.504 0-0.921-0.373-0.99-0.858l-0.001-0.005-0.009-0.136v-2c0-0.552 0.448-1 1-1v0zM26.324 8c0.003-0 0.007-0 0.011-0 0.501 0 0.915 0.368 0.988 0.848l0.001 0.006 0.009 0.136v18.001c0 0.003 0 0.006 0 0.009 0 0.552-0.448 1-1 1-0.501 0-0.916-0.368-0.989-0.849l-0.001-0.006-0.011-0.135v-18.001c-0-0.003-0-0.006-0-0.009 0-0.549 0.442-0.995 0.99-1h0zM10.333 20c0.504 0 0.921 0.373 0.99 0.859l0.001 0.005 0.009 0.136v5.999c-0 0.552-0.448 1-1 1-0.504 0-0.921-0.373-0.99-0.858l-0.001-0.005-0.009-0.137v-5.997c0-0.552 0.448-1 1-1v0z"></path>
</svg>
