<!-- Generated by IcoMoon.io -->
<svg version="1.1" xmlns="http://www.w3.org/2000/svg" width="32" height="32" viewBox="0 0 32 32">
<title>cellular-data-1</title>
<path d="M5 22.667c0.506 0 0.925 0.376 0.991 0.864l0.009 0.136v2c0 0.552-0.448 1-1 1-0.506 0-0.925-0.376-0.991-0.864l-0.009-0.136v-2c0-0.552 0.448-1 1-1zM15.667 14.667c0.506 0 0.925 0.376 0.991 0.864l0.009 0.136v10c0 0.552-0.448 1-1 1-0.506 0-0.925-0.376-0.991-0.864l-0.009-0.136v-10c0-0.552 0.448-1 1-1zM21 10.667c0.506 0 0.925 0.376 0.991 0.864l0.009 0.136v14c0 0.552-0.448 1-1 1-0.506 0-0.925-0.376-0.991-0.864l-0.009-0.136v-14c0-0.552 0.448-1 1-1zM26.324 6.667c0.506-0.005 0.928 0.367 0.999 0.854l0.011 0.136v18.001c0.005 0.552-0.438 1.003-0.99 1.009-0.506 0.005-0.928-0.367-0.999-0.854l-0.011-0.136v-18.001c-0.005-0.552 0.438-1.003 0.99-1.009zM10.333 18.667c0.506 0 0.925 0.376 0.991 0.864l0.009 0.136v5.998c0 0.552-0.448 1-1 1-0.506 0-0.925-0.376-0.991-0.864l-0.009-0.136v-5.998c0-0.552 0.448-1 1-1z"></path>
</svg>
