<!-- Generated by IcoMoon.io -->
<svg version="1.1" xmlns="http://www.w3.org/2000/svg" width="32" height="32" viewBox="0 0 32 32">
<title>cellular-off</title>
<path d="M4.373 2.96c-0.183-0.196-0.443-0.318-0.732-0.318-0.552 0-1 0.448-1 1 0 0.289 0.122 0.549 0.318 0.731l0.001 0.001 11.707 11.707v9.587l0.009 0.136c0.069 0.491 0.486 0.864 0.991 0.864 0.552 0 1-0.448 1-1v-7.587l3.333 3.333v4.253l0.009 0.136c0.069 0.491 0.486 0.864 0.991 0.864 0.552 0 1-0.448 1-1v-2.253l5.627 5.627c0.178 0.166 0.418 0.268 0.682 0.268 0.552 0 1-0.448 1-1 0-0.264-0.102-0.504-0.269-0.682l0.001 0.001-24.667-24.667zM25.333 21.091l2 2v-15.435l-0.011-0.135c-0.073-0.486-0.488-0.855-0.989-0.855-0.552 0-1 0.448-1 1 0 0.003 0 0.007 0 0.010v-0 13.415zM20 15.757l2 2v-6.091l-0.009-0.136c-0.069-0.491-0.486-0.864-0.991-0.864-0.552 0-1 0.448-1 1v4.091zM5 22.667c0.504 0 0.921 0.373 0.99 0.859l0.001 0.005 0.009 0.136v2c-0 0.552-0.448 1-1 1-0.504 0-0.921-0.373-0.99-0.858l-0.001-0.005-0.009-0.136v-2c0-0.552 0.448-1 1-1v0zM10.333 18.667c0.504 0 0.921 0.373 0.99 0.859l0.001 0.005 0.009 0.136v5.999c-0 0.552-0.448 1-1 1-0.504 0-0.921-0.373-0.99-0.858l-0.001-0.005-0.009-0.137v-5.997c0-0.552 0.448-1 1-1v0z"></path>
</svg>
