<!-- Generated by IcoMoon.io -->
<svg version="1.1" xmlns="http://www.w3.org/2000/svg" width="32" height="32" viewBox="0 0 32 32">
<title>cellular-warning</title>
<path d="M5 24.003c0.505 0 0.922 0.374 0.99 0.86l0.001 0.005 0.009 0.136v2c-0 0.552-0.448 1-1 1-0.504 0-0.921-0.373-0.99-0.858l-0.001-0.005-0.009-0.136v-2c0-0.552 0.448-1 1-1v0zM15.667 16.003c0 0 0 0 0 0 0.504 0 0.921 0.373 0.99 0.857l0.001 0.005 0.009 0.136v6.88l-1.644 3.293c-0.067 0.133-0.124 0.271-0.173 0.407-0.089-0.124-0.15-0.274-0.173-0.436l-0.001-0.005-0.009-0.136v-10.003c0-0.552 0.448-1 1-1v0zM20.351 16.508c0.377-0.757 0.972-1.281 1.649-1.573v-1.933l-0.009-0.136c-0.069-0.491-0.486-0.864-0.991-0.864-0.552 0-0.999 0.447-1 0.998v4.208l0.351-0.701zM26.317 16.508l1.008 2.019-0.015-9.536-0.011-0.136c-0.070-0.486-0.484-0.855-0.984-0.855-0.001 0-0.002 0-0.003 0h0c-0.543 0.008-0.98 0.45-0.98 0.995 0 0.006 0 0.011 0 0.017v-0.001l0.011 6.317c0.391 0.295 0.727 0.688 0.973 1.18zM10.333 19.997c0.504 0 0.921 0.373 0.99 0.859l0.001 0.005 0.009 0.136v6c-0 0.552-0.448 1-1 1-0.504 0-0.921-0.373-0.99-0.858l-0.001-0.005-0.009-0.136v-6c0-0.552 0.448-1 1-1v0zM21.543 17.104l-5.329 10.667c-0.133 0.261-0.211 0.569-0.211 0.895 0 1.105 0.896 2.001 2.001 2.001 0 0 0 0 0 0h10.659c0 0 0 0 0 0 1.105 0 2.001-0.896 2.001-2.001 0-0.326-0.078-0.634-0.216-0.906l0.005 0.011-5.329-10.667c-0.737-1.476-2.844-1.476-3.581 0zM24 20.659v4.003c0 0.368-0.298 0.667-0.667 0.667s-0.667-0.298-0.667-0.667v0-4.003c0-0.368 0.298-0.667 0.667-0.667s0.667 0.298 0.667 0.667v0zM23.333 27.997c-0.368 0-0.667-0.298-0.667-0.667s0.298-0.667 0.667-0.667v0c0.368 0 0.667 0.298 0.667 0.667s-0.298 0.667-0.667 0.667v0z"></path>
</svg>
