<!-- Generated by IcoMoon.io -->
<svg version="1.1" xmlns="http://www.w3.org/2000/svg" width="32" height="32" viewBox="0 0 32 32">
<title>cellular-4g</title>
<path d="M17.195 4.825c0.093 0.149 0.149 0.33 0.149 0.525 0 0.552-0.448 1-1 1-0.358 0-0.672-0.188-0.849-0.471l-0.002-0.004c-0.064-0.070-0.138-0.129-0.221-0.175l-0.004-0.002c-0.196-0.111-0.624-0.269-1.42-0.123-0.544 0.1-0.827 0.445-1 0.889-0.101 0.256-0.165 0.553-0.18 0.863l-0 0.006v1.667c0 0.736 0.597 1.333 1.333 1.333v0h0.333c0.618-0 1.137-0.42 1.289-0.991l0.002-0.009h-0.624c-0.552 0-1-0.448-1-1s0.448-1 1-1v0h1.667c0.552 0 1 0.448 1 1v0 0.667c0 1.841-1.492 3.333-3.333 3.333v0h-0.333c-1.841 0-3.333-1.492-3.333-3.333v0-1.721l0.005-0.107c0.033-0.525 0.145-1.014 0.325-1.469l-0.011 0.033c0.327-0.836 1.044-1.861 2.5-2.129 1.217-0.223 2.123-0.011 2.757 0.344 0.307 0.172 0.532 0.367 0.684 0.529 0.091 0.096 0.174 0.202 0.248 0.314l0.005 0.009 0.008 0.013 0.004 0.005 0.001 0.003v0.001zM6.304 4.081c0.795-0.965 2.363-0.403 2.363 0.848v3.737h0.333c0.552 0 1 0.448 1 1s-0.448 1-1 1v0h-0.333v0.667c0 0.552-0.448 1-1 1s-1-0.448-1-1v0-0.667h-2.396c-1.352 0-2.093-1.573-1.235-2.617l3.267-3.968zM6.667 8.667v-1.88l-1.548 1.88h1.547zM15.667 16c0.504 0 0.921 0.373 0.99 0.859l0.001 0.005 0.009 0.136v10c-0 0.552-0.448 1-1 1-0.504 0-0.921-0.373-0.99-0.858l-0.001-0.005-0.009-0.136v-10c0-0.552 0.448-1 1-1v0zM21 12c0.504 0 0.921 0.373 0.99 0.859l0.001 0.005 0.009 0.136v14c-0 0.552-0.448 1-1 1-0.504 0-0.921-0.373-0.99-0.858l-0.001-0.005-0.009-0.136v-14c0-0.552 0.448-1 1-1v0zM5 24c0.504 0 0.921 0.373 0.99 0.859l0.001 0.005 0.009 0.136v2c-0 0.552-0.448 1-1 1-0.504 0-0.921-0.373-0.99-0.858l-0.001-0.005-0.009-0.136v-2c0-0.552 0.448-1 1-1v0zM26.323 8c0.003-0 0.007-0 0.011-0 0.501 0 0.915 0.368 0.988 0.848l0.001 0.006 0.011 0.136v18.001c0 0.003 0 0.006 0 0.009 0 0.552-0.448 1-1 1-0.501 0-0.916-0.368-0.989-0.849l-0.001-0.006-0.011-0.135v-18.001c-0-0.003-0-0.006-0-0.009 0-0.549 0.442-0.994 0.989-1h0.001zM10.333 20c0.504 0 0.921 0.373 0.99 0.859l0.001 0.005 0.009 0.136v5.999c-0 0.552-0.448 1-1 1-0.504 0-0.921-0.373-0.99-0.858l-0.001-0.005-0.009-0.137v-5.997c0-0.552 0.448-1 1-1v0z"></path>
</svg>
