<!-- Generated by IcoMoon.io -->
<svg version="1.1" xmlns="http://www.w3.org/2000/svg" width="32" height="32" viewBox="0 0 32 32">
<title>center-vertical</title>
<path d="M28 5c0 0.552-0.448 1-1 1h-22c-0.552 0-1-0.448-1-1s0.448-1 1-1h22c0.552 0 1 0.448 1 1zM28 27c0 0.552-0.448 1-1 1h-22c-0.552 0-1-0.448-1-1s0.448-1 1-1h22c0.552 0 1 0.448 1 1zM9.667 10.667c-1.657 0-3 1.343-3 3v4.667c0 1.657 1.343 3 3 3h12.667c1.657 0 3-1.343 3-3v-4.667c0-1.657-1.343-3-3-3h-12.667zM8.667 13.667c0-0.552 0.448-1 1-1h12.667c0.552 0 1 0.448 1 1v4.667c0 0.552-0.448 1-1 1h-12.667c-0.552 0-1-0.448-1-1v-4.667z"></path>
</svg>
