<!-- Generated by IcoMoon.io -->
<svg version="1.1" xmlns="http://www.w3.org/2000/svg" width="32" height="32" viewBox="0 0 32 32">
<title>channel-subtract-regular</title>
<path d="M4.126 7.147c0.472-1.822 2.102-3.146 4.041-3.147h15.667c2.301 0 4.167 1.865 4.167 4.167v0 7.863c-0.52-0.333-1.079-0.613-1.667-0.829v-7.033c0-1.381-1.119-2.5-2.5-2.5v0h-15.667c-0 0-0.001 0-0.001 0-1.012 0-1.884 0.602-2.277 1.467l-0.006 0.016c-0.262-0.095-0.564-0.149-0.879-0.149-0.001 0-0.002 0-0.003 0h0c-0.307 0-0.6 0.051-0.874 0.147zM15.199 26.333c0.217 0.588 0.497 1.147 0.83 1.667h-7.863c-2.301 0-4.167-1.865-4.167-4.167v0-11.693c0.296 0.123 0.64 0.194 1.001 0.194 0.237 0 0.466-0.031 0.685-0.088l-0.019 0.004v11.583c0 1.381 1.119 2.5 2.5 2.5v0h7.033zM15.826 19c0.369-0.632 0.784-1.178 1.256-1.67l-0.003 0.003h-5.579c-0.46 0-0.833 0.373-0.833 0.833s0.373 0.833 0.833 0.833v0h4.327zM4 8.333c-0.405 0.304-0.667 0.788-0.667 1.333 0 0.001 0 0.002 0 0.003 0 0.919 0.745 1.664 1.664 1.664 0.001 0 0.002 0 0.003 0h-0c0.92 0 1.667-0.746 1.667-1.667s-0.746-1.667-1.667-1.667c-0.377 0-0.725 0.125-1.004 0.336l0.004-0.003zM11.5 12.667c-0.46 0-0.833 0.373-0.833 0.833s0.373 0.833 0.833 0.833v0h9c0.46 0 0.833-0.373 0.833-0.833s-0.373-0.833-0.833-0.833v0h-9zM30.667 23.333c0 4.050-3.283 7.333-7.333 7.333s-7.333-3.283-7.333-7.333 3.283-7.333 7.333-7.333 7.333 3.283 7.333 7.333zM28.667 23.333c0-0.368-0.298-0.667-0.667-0.667v0h-9.333c-0.368 0-0.667 0.298-0.667 0.667s0.298 0.667 0.667 0.667v0h9.333c0.368 0 0.667-0.298 0.667-0.667v0z"></path>
</svg>
