<!-- Generated by IcoMoon.io -->
<svg version="1.1" xmlns="http://www.w3.org/2000/svg" width="32" height="32" viewBox="0 0 32 32">
<title>channel</title>
<path d="M4.126 7.147c0.472-1.822 2.102-3.146 4.041-3.147h15.667c2.301 0 4.167 1.865 4.167 4.167v0 15.667c0 2.301-1.865 4.167-4.167 4.167v0h-15.667c-2.301 0-4.167-1.865-4.167-4.167v0-11.693c0.296 0.123 0.64 0.194 1.001 0.194 0.237 0 0.466-0.031 0.685-0.088l-0.019 0.004v11.583c0 1.381 1.119 2.5 2.5 2.5v0h15.667c1.381 0 2.5-1.119 2.5-2.5v0-15.667c0-1.381-1.119-2.5-2.5-2.5v0h-15.667c-0 0-0.001 0-0.001 0-1.012 0-1.884 0.602-2.277 1.467l-0.006 0.016c-0.262-0.095-0.564-0.149-0.879-0.149-0.001 0-0.002 0-0.003 0h0c-0.307 0-0.6 0.051-0.874 0.147zM4 8.333c-0.405 0.304-0.667 0.788-0.667 1.333 0 0.001 0 0.002 0 0.003 0 0.919 0.745 1.664 1.664 1.664 0.001 0 0.002 0 0.003 0h-0c0.92 0 1.667-0.746 1.667-1.667s-0.746-1.667-1.667-1.667c-0.377 0-0.725 0.125-1.004 0.336l0.004-0.003zM11.5 12.667c-0.46 0-0.833 0.373-0.833 0.833s0.373 0.833 0.833 0.833v0h9c0.46 0 0.833-0.373 0.833-0.833s-0.373-0.833-0.833-0.833v0h-9zM10.667 18.167c0-0.46 0.373-0.833 0.833-0.833h6.333c0.46 0 0.833 0.373 0.833 0.833s-0.373 0.833-0.833 0.833v0h-6.333c-0.46 0-0.833-0.373-0.833-0.833z"></path>
</svg>
