<!-- Generated by IcoMoon.io -->
<svg version="1.1" xmlns="http://www.w3.org/2000/svg" width="32" height="32" viewBox="0 0 32 32">
<title>channel-dismiss</title>
<path d="M23.333 16c4.050 0 7.333 3.283 7.333 7.333s-3.283 7.333-7.333 7.333c-4.050 0-7.333-3.283-7.333-7.333s3.283-7.333 7.333-7.333zM6 12.496l-0 11.171c0 1.224 0.943 2.228 2.142 2.326l0.191 0.008 6.751 0.001c0.23 0.712 0.55 1.383 0.945 2.001l-7.697-0.002c-2.311 0-4.199-1.809-4.326-4.087l-0.007-0.246-0-11.171c0.313 0.111 0.65 0.171 1 0.171s0.687-0.060 1-0.171zM20.124 19.955l-0.092 0.077-0.077 0.092c-0.157 0.227-0.157 0.531 0 0.758l0.077 0.092 2.359 2.359-2.356 2.356-0.077 0.092c-0.157 0.227-0.157 0.531 0 0.758l0.077 0.092 0.092 0.077c0.227 0.157 0.531 0.157 0.758 0l0.092-0.077 2.356-2.356 2.359 2.359 0.092 0.077c0.227 0.157 0.531 0.157 0.758 0l0.092-0.077 0.077-0.092c0.157-0.227 0.157-0.531 0-0.758l-0.077-0.092-2.359-2.359 2.363-2.359 0.077-0.092c0.157-0.227 0.157-0.531 0-0.758l-0.077-0.092-0.092-0.077c-0.227-0.157-0.531-0.157-0.758 0l-0.092 0.077-2.362 2.359-2.359-2.359-0.092-0.077c-0.195-0.135-0.446-0.154-0.657-0.058l-0.102 0.058zM17.075 17.338c-0.568 0.592-1.052 1.265-1.434 2l-3.977 0c-0.552 0-1-0.448-1-1 0-0.506 0.376-0.925 0.864-0.991l0.136-0.009 5.412 0zM23.667 4c2.311 0 4.199 1.809 4.327 4.087l0.007 0.246 0.001 7.696c-0.618-0.396-1.289-0.715-2-0.945l-0.001-6.751c0-1.224-0.943-2.228-2.142-2.326l-0.191-0.008h-15.333c-0.8 0-1.506 0.403-1.927 1.017-0.419-0.223-0.898-0.35-1.407-0.35-0.242 0-0.477 0.029-0.702 0.082 0.604-1.537 2.062-2.646 3.789-2.742l0.246-0.007h15.333zM20.336 12.662c0.552 0 1 0.448 1 1 0 0.506-0.376 0.925-0.864 0.991l-0.136 0.009h-8.673c-0.552 0-1-0.448-1-1 0-0.506 0.376-0.925 0.864-0.991l0.136-0.009h8.673zM5 8c0.921 0 1.667 0.746 1.667 1.667s-0.746 1.667-1.667 1.667c-0.921 0-1.667-0.746-1.667-1.667s0.746-1.667 1.667-1.667z"></path>
</svg>
