<!-- Generated by IcoMoon.io -->
<svg version="1.1" xmlns="http://www.w3.org/2000/svg" width="32" height="32" viewBox="0 0 32 32">
<title>channel-arrow-left</title>
<path d="M23.333 16c4.050 0 7.333 3.283 7.333 7.333s-3.283 7.333-7.333 7.333c-4.050 0-7.333-3.283-7.333-7.333s3.283-7.333 7.333-7.333zM6 12.496l-0 11.171c0 1.224 0.943 2.228 2.142 2.326l0.191 0.008 6.751 0.001c0.23 0.712 0.55 1.383 0.945 2.001l-7.697-0.002c-2.311 0-4.199-1.809-4.326-4.087l-0.007-0.246-0-11.171c0.313 0.111 0.65 0.171 1 0.171s0.687-0.060 1-0.171zM22.292 19.451l-0.092 0.077-3.354 3.355-0.054 0.067-0.059 0.102-0.030 0.078-0.025 0.114-0.003 0.147 0.020 0.114 0.039 0.107 0.045 0.082 0.068 0.088 3.354 3.355c0.26 0.26 0.682 0.26 0.943 0 0.231-0.231 0.257-0.591 0.077-0.851l-0.077-0.092-2.195-2.195h6.385c0.327 0 0.599-0.236 0.656-0.547l0.011-0.12c0-0.327-0.236-0.599-0.547-0.656l-0.12-0.011h-6.385l2.195-2.195c0.231-0.231 0.257-0.591 0.077-0.851l-0.077-0.092c-0.231-0.231-0.591-0.257-0.851-0.077zM17.075 17.338c-0.568 0.592-1.052 1.265-1.434 2l-3.977 0c-0.552 0-1-0.448-1-1 0-0.506 0.376-0.925 0.864-0.991l0.136-0.009 5.412 0zM23.667 4c2.311 0 4.199 1.809 4.327 4.087l0.007 0.246 0.001 7.696c-0.618-0.396-1.289-0.715-2-0.945l-0.001-6.751c0-1.224-0.943-2.228-2.142-2.326l-0.191-0.008h-15.333c-0.8 0-1.506 0.403-1.927 1.017-0.419-0.223-0.898-0.35-1.407-0.35-0.242 0-0.477 0.029-0.702 0.082 0.604-1.537 2.062-2.646 3.789-2.742l0.246-0.007h15.333zM20.336 12.662c0.552 0 1 0.448 1 1 0 0.506-0.376 0.925-0.864 0.991l-0.136 0.009h-8.673c-0.552 0-1-0.448-1-1 0-0.506 0.376-0.925 0.864-0.991l0.136-0.009h8.673zM5 8c0.921 0 1.667 0.746 1.667 1.667s-0.746 1.667-1.667 1.667c-0.921 0-1.667-0.746-1.667-1.667s0.746-1.667 1.667-1.667z"></path>
</svg>
