<!-- Generated by IcoMoon.io -->
<svg version="1.1" xmlns="http://www.w3.org/2000/svg" width="32" height="32" viewBox="0 0 32 32">
<title>channel-subtract</title>
<path d="M27.993 8.087c-0.128-2.279-2.016-4.087-4.327-4.087l-15.579 0.007c-1.727 0.097-3.185 1.205-3.789 2.742 0.225-0.054 0.46-0.082 0.702-0.082 0.509 0 0.988 0.127 1.407 0.35 0.42-0.614 1.126-1.017 1.927-1.017l15.525 0.008c1.199 0.097 2.142 1.101 2.142 2.326v6.751c0.711 0.23 1.382 0.549 2 0.945v-7.696l-0.007-0.246zM16.029 28c-0.395-0.618-0.715-1.289-0.944-2h-6.751l-0.191-0.008c-1.199-0.097-2.142-1.101-2.142-2.326l0-11.171c-0.313 0.111-0.65 0.171-1 0.171s-0.688-0.060-1-0.171l0 11.171 0.007 0.246c0.127 2.279 2.016 4.087 4.326 4.087h7.696zM15.641 19.337c0.382-0.735 0.867-1.408 1.435-2h-5.412l-0.136 0.009c-0.488 0.066-0.864 0.485-0.864 0.991 0 0.552 0.448 1 1 1h3.977zM21.336 13.662c0-0.552-0.448-1-1-1h-8.673l-0.136 0.009c-0.488 0.066-0.864 0.485-0.864 0.991 0 0.552 0.448 1 1 1h8.673l0.136-0.009c0.488-0.066 0.864-0.485 0.864-0.991zM6.667 9.667c0-0.921-0.746-1.667-1.667-1.667s-1.667 0.746-1.667 1.667c0 0.921 0.746 1.667 1.667 1.667s1.667-0.746 1.667-1.667zM23.333 16c4.050 0 7.333 3.283 7.333 7.333s-3.283 7.333-7.333 7.333c-4.050 0-7.333-3.283-7.333-7.333s3.283-7.333 7.333-7.333zM27.329 24c0.368 0 0.666-0.298 0.666-0.667s-0.298-0.667-0.666-0.667h-8.001c-0.368 0-0.666 0.299-0.666 0.667s0.298 0.667 0.666 0.667h8.001z"></path>
</svg>
