<!-- Generated by IcoMoon.io -->
<svg version="1.1" xmlns="http://www.w3.org/2000/svg" width="32" height="32" viewBox="0 0 32 32">
<title>channel-add</title>
<path d="M23.667 4c2.311 0 4.199 1.809 4.327 4.087l0.007 0.246v7.696c-0.618-0.395-1.289-0.715-2-0.945v-6.751c0-1.224-0.943-2.228-2.142-2.326l-0.191-0.008h-15.333c-0.8 0-1.506 0.403-1.927 1.017-0.419-0.223-0.898-0.35-1.407-0.35-0.242 0-0.477 0.029-0.702 0.082 0.604-1.537 2.062-2.646 3.789-2.742l0.246-0.007h15.333z"></path>
<path d="M15.085 26c0.23 0.711 0.549 1.382 0.944 2h-7.696c-2.311 0-4.199-1.809-4.326-4.087l-0.007-0.246-0-11.171c0.313 0.111 0.65 0.171 1 0.171s0.687-0.060 1-0.171l-0 11.171c0 1.224 0.943 2.228 2.142 2.326l0.191 0.008h6.751z"></path>
<path d="M15.641 19.337c0.382-0.735 0.867-1.408 1.435-2h-5.412l-0.136 0.009c-0.488 0.066-0.864 0.485-0.864 0.991 0 0.552 0.448 1 1 1h3.977z"></path>
<path d="M20.336 12.662c0.552 0 1 0.448 1 1 0 0.506-0.376 0.925-0.864 0.991l-0.136 0.009h-8.673c-0.552 0-1-0.448-1-1 0-0.506 0.376-0.925 0.864-0.991l0.136-0.009h8.673z"></path>
<path d="M5 8c0.921 0 1.667 0.746 1.667 1.667s-0.746 1.667-1.667 1.667c-0.921 0-1.667-0.746-1.667-1.667s0.746-1.667 1.667-1.667z"></path>
<path d="M30.667 23.333c0-4.050-3.283-7.333-7.333-7.333s-7.333 3.283-7.333 7.333c0 4.050 3.283 7.333 7.333 7.333s7.333-3.283 7.333-7.333zM24.001 24l0.001 3.338c0 0.368-0.298 0.667-0.667 0.667s-0.667-0.298-0.667-0.667l-0.001-3.338h-3.34c-0.368 0-0.666-0.298-0.666-0.667s0.298-0.667 0.666-0.667h3.34l-0.001-3.334c0-0.368 0.299-0.667 0.667-0.667s0.667 0.298 0.667 0.667l0.001 3.334h3.328c0.368 0 0.666 0.299 0.666 0.667s-0.298 0.667-0.666 0.667h-3.328z"></path>
</svg>
