<!-- Generated by IcoMoon.io -->
<svg version="1.1" xmlns="http://www.w3.org/2000/svg" width="32" height="32" viewBox="0 0 32 32">
<title>channel-share-regular</title>
<path d="M8.317 4h8.033c2.384 0 4.317 1.933 4.317 4.317v0 0.183c0 0.46-0.373 0.833-0.833 0.833s-0.833-0.373-0.833-0.833v0-0.183c0-1.464-1.186-2.65-2.65-2.65v0h-8.033c-1.464 0-2.65 1.186-2.65 2.65v0 8.033c0 1.464 1.186 2.65 2.65 2.65h7.744c0.331-1.713 1.819-2.989 3.605-2.989 2.022 0 3.661 1.635 3.668 3.655v0.001c0 0.001 0 0.002 0 0.004 0 2.025-1.642 3.667-3.667 3.667-1.67 0-3.080-1.117-3.522-2.644l-0.006-0.026h-7.821c-2.384 0-4.317-1.933-4.317-4.317v0-8.033c0-2.384 1.933-4.317 4.317-4.317v0zM17.667 19.667c0 1.105 0.895 2 2 2s2-0.895 2-2v0c0-1.105-0.895-2-2-2s-2 0.895-2 2v0zM11.333 23.833v-0.333c0-0.46 0.373-0.833 0.833-0.833s0.833 0.373 0.833 0.833v0 0.333c0 1.381 1.119 2.5 2.5 2.5v0h8.333c1.381 0 2.5-1.119 2.5-2.5v0-8.333c0-1.381-1.119-2.5-2.5-2.5v0h-7.893c-0.33 1.715-1.818 2.993-3.605 2.993-2.023 0-3.663-1.637-3.668-3.659v-0c0-0.001 0-0.002 0-0.004 0-2.025 1.642-3.667 3.667-3.667 1.67 0 3.080 1.117 3.522 2.644l0.006 0.026h7.971c2.301 0 4.167 1.865 4.167 4.167v0 8.333c0 2.301-1.865 4.167-4.167 4.167v0h-8.333c-2.301 0-4.167-1.865-4.167-4.167v0zM12.333 10.333c-1.105 0-2 0.895-2 2s0.895 2 2 2v0c1.105 0 2-0.895 2-2s-0.895-2-2-2v0z"></path>
</svg>
