<!-- Generated by IcoMoon.io -->
<svg version="1.1" xmlns="http://www.w3.org/2000/svg" width="32" height="32" viewBox="0 0 32 32">
<title>chart-person</title>
<path d="M16.667 3.667c0-0.552-0.448-1-1-1s-1 0.448-1 1v0.333h-7.667c-2.393 0-4.333 1.94-4.333 4.333v12.667c0 2.393 1.94 4.333 4.333 4.333h3.198l-1.967 2.36c-0.354 0.424-0.296 1.055 0.128 1.408s1.055 0.296 1.408-0.128l3.034-3.64h3.237c-0.026-0.22-0.039-0.443-0.039-0.667v-0.667c0-0.228 0.023-0.451 0.067-0.667h-9.067c-1.289 0-2.333-1.045-2.333-2.333v-12.667c0-1.289 1.045-2.333 2.333-2.333h18c1.289 0 2.333 1.045 2.333 2.333v4.94c1.023 0.915 1.667 2.246 1.667 3.727 0 0.112-0.004 0.223-0.011 0.333h0.344v-9c0-2.393-1.94-4.333-4.333-4.333h-8.333v-0.333zM27.652 17.333c0.010-0.11 0.015-0.221 0.015-0.333 0-0.546-0.119-1.064-0.333-1.53-0.58-1.261-1.854-2.137-3.333-2.137-2.025 0-3.667 1.642-3.667 3.667s1.642 3.667 3.667 3.667c1.913 0 3.483-1.465 3.652-3.333zM28.667 22c0.185 0 0.363 0.025 0.533 0.072 0.846 0.233 1.467 1.008 1.467 1.928v0.667c0 2.629-2.479 5.333-6.667 5.333-3.833 0-6.235-2.267-6.614-4.667-0.035-0.222-0.053-0.444-0.053-0.667v-0.667c0-0.234 0.040-0.458 0.114-0.667 0.275-0.777 1.015-1.333 1.886-1.333h9.333zM8 10.333c0-0.552 0.448-1 1-1h5.333c0.552 0 1 0.448 1 1s-0.448 1-1 1h-5.333c-0.552 0-1-0.448-1-1zM9 13.333c-0.552 0-1 0.448-1 1s0.448 1 1 1h8.667c0.552 0 1-0.448 1-1s-0.448-1-1-1h-8.667zM8 18.333c0-0.552 0.448-1 1-1h7.333c0.552 0 1 0.448 1 1s-0.448 1-1 1h-7.333c-0.552 0-1-0.448-1-1z"></path>
</svg>
