<!-- Generated by IcoMoon.io -->
<svg version="1.1" xmlns="http://www.w3.org/2000/svg" width="32" height="32" viewBox="0 0 32 32">
<title>chart-person</title>
<path d="M16.667 3.5c0-0.46-0.373-0.833-0.833-0.833s-0.833 0.373-0.833 0.833v0 0.5h-8.833c-1.933 0-3.5 1.567-3.5 3.5v0 13.667c0 1.933 1.567 3.5 3.5 3.5h4.405l-3.017 3.268c-0.144 0.15-0.233 0.353-0.233 0.578 0 0.46 0.373 0.833 0.833 0.833 0.248 0 0.47-0.108 0.623-0.28l0.001-0.001 4-4.333c0.018-0.020 0.036-0.041 0.053-0.063l0.002-0.002h4.777c0.326-0.733 0.885-1.313 1.582-1.658l0.020-0.009h-13.045c-1.013 0-1.833-0.821-1.833-1.833v0-13.667c0-1.013 0.821-1.833 1.833-1.833v0h19.667c1.013 0 1.833 0.821 1.833 1.833v0 8.259c1.022 0.86 1.667 2.14 1.667 3.57 0 0.002 0 0.003 0 0.005v-11.834c0-1.933-1.567-3.5-3.5-3.5h-9.167v-0.5zM8.167 9c-0.46 0-0.833 0.373-0.833 0.833s0.373 0.833 0.833 0.833v0h6.333c0.46 0 0.833-0.373 0.833-0.833s-0.373-0.833-0.833-0.833v0h-6.333zM7.333 14.5c0-0.46 0.373-0.833 0.833-0.833h9.667c0.46 0 0.833 0.373 0.833 0.833s-0.373 0.833-0.833 0.833v0h-9.667c-0.46 0-0.833-0.373-0.833-0.833zM7.333 19.167c0-0.46 0.373-0.833 0.833-0.833h7.667c0.46 0 0.833 0.373 0.833 0.833s-0.373 0.833-0.833 0.833v0h-7.667c-0.46 0-0.833-0.373-0.833-0.833zM28 19.333c0 1.841-1.492 3.333-3.333 3.333s-3.333-1.492-3.333-3.333v0c0-1.841 1.492-3.333 3.333-3.333s3.333 1.492 3.333 3.333v0zM30.667 26.333c0 2.333-2.1 4.333-6 4.333s-6-2-6-4.333v-0.335c0-1.104 0.895-1.999 1.999-1.999 0 0 0.001 0 0.001 0h8c1.105 0 2 0.893 2 1.999v0.335z"></path>
</svg>
