<!-- Generated by IcoMoon.io -->
<svg version="1.1" xmlns="http://www.w3.org/2000/svg" width="32" height="32" viewBox="0 0 32 32">
<title>chat-multiple-regular</title>
<path d="M12.749 4c-0.001 0-0.002 0-0.003 0-5.523 0-10 4.477-10 10 0 1.536 0.346 2.991 0.965 4.291l-0.026-0.061-0.965 3.789c-0.033 0.124-0.052 0.265-0.052 0.412 0 0.92 0.746 1.667 1.667 1.667 0.139 0 0.273-0.017 0.402-0.049l-0.011 0.002c1-0.24 2.537-0.609 3.907-0.936 1.208 0.558 2.621 0.884 4.111 0.884 5.523 0 10-4.477 10-10 0-5.521-4.474-9.997-9.995-10h-0zM4.749 14c0.001-4.417 3.583-7.998 8-7.998s8 3.582 8 8-3.582 8-8 8c-1.297 0-2.522-0.309-3.606-0.857l0.046 0.021-0.325-0.161-0.352 0.084c-1.231 0.293-2.653 0.633-3.717 0.889l0.92-3.611 0.093-0.368-0.173-0.337c-0.558-1.060-0.885-2.316-0.885-3.649 0-0.005 0-0.010 0-0.015v0.001zM19.416 28c-0.004 0-0.009 0-0.014 0-2.624 0-5.012-1.014-6.792-2.672l0.006 0.006h0.133c0.957 0 1.887-0.119 2.773-0.343 1.153 0.643 2.48 1.009 3.893 1.009 1.28 0 2.488-0.3 3.56-0.833l0.324-0.161 0.352 0.084c1.229 0.293 2.621 0.593 3.653 0.813-0.233-1.001-0.552-2.341-0.856-3.535l-0.093-0.368 0.173-0.337c0.559-1.061 0.887-2.318 0.887-3.651 0-0.004 0-0.008 0-0.012v0.001c0-0.001 0-0.003 0-0.004 0-2.805-1.445-5.273-3.632-6.7l-0.031-0.019c-0.26-1.036-0.625-1.944-1.096-2.786l0.029 0.057c3.951 1.397 6.731 5.101 6.731 9.453 0 1.536-0.346 2.991-0.965 4.291l0.026-0.061c0.337 1.344 0.679 2.8 0.895 3.737 0.028 0.113 0.043 0.243 0.043 0.377 0 0.916-0.743 1.659-1.659 1.659-0.121 0-0.238-0.013-0.352-0.037l0.011 0.002c-2.474-0.489-3.783-0.785-5.086-1.095l1.202 0.241c-1.206 0.558-2.617 0.884-4.104 0.884-0.005 0-0.009 0-0.014 0h0.001z"></path>
</svg>
