<!-- Generated by IcoMoon.io -->
<svg version="1.1" xmlns="http://www.w3.org/2000/svg" width="32" height="32" viewBox="0 0 32 32">
<title>chat-video-regular</title>
<path d="M16 10.667c1.473 0 2.667 1.194 2.667 2.667v0 5.333c0 1.473-1.194 2.667-2.667 2.667v0h-4c-1.473 0-2.667-1.194-2.667-2.667v0-5.333c0-1.473 1.194-2.667 2.667-2.667v0h4zM20 17.549v-3.099l2.312-2.189c0.179-0.17 0.421-0.274 0.688-0.274 0.552 0 1 0.448 1 1 0 0 0 0.001 0 0.001v-0 6.024c0 0 0 0.001 0 0.001 0 0.552-0.448 1-1 1-0.267 0-0.509-0.104-0.688-0.275l0 0-2.312-2.189zM29.333 16c0-7.364-5.969-13.333-13.333-13.333s-13.333 5.969-13.333 13.333c0 0.005 0 0.011 0 0.017 0 2.23 0.55 4.333 1.522 6.178l-0.035-0.073-1.424 5.097c-0.039 0.134-0.061 0.289-0.061 0.448 0 0.92 0.746 1.667 1.667 1.667 0.159 0 0.314-0.022 0.46-0.064l-0.012 0.003 5.101-1.423c1.771 0.934 3.87 1.483 6.098 1.483 0.006 0 0.013 0 0.019 0h-0.001c7.364 0 13.333-5.969 13.333-13.333zM4.667 16c0.002-6.258 5.075-11.33 11.333-11.33 6.259 0 11.333 5.074 11.333 11.333s-5.074 11.333-11.333 11.333c-2.023 0-3.923-0.53-5.567-1.459l0.056 0.029-0.36-0.2-5.315 1.481 1.484-5.312-0.201-0.36c-0.9-1.583-1.431-3.478-1.431-5.497 0-0.007 0-0.013 0-0.020v0.001z"></path>
</svg>
