<!-- Generated by IcoMoon.io -->
<svg version="1.1" xmlns="http://www.w3.org/2000/svg" width="32" height="32" viewBox="0 0 32 32">
<title>chat-settings</title>
<path d="M29.333 16c0-7.364-5.969-13.333-13.333-13.333s-13.333 5.969-13.333 13.333c0 0.005 0 0.011 0 0.017 0 2.23 0.55 4.333 1.522 6.178l-0.035-0.073-1.424 5.097c-0.039 0.134-0.061 0.289-0.061 0.448 0 0.92 0.746 1.667 1.667 1.667 0.159 0 0.314-0.022 0.46-0.064l-0.012 0.003 5.101-1.423c1.772 0.936 3.873 1.485 6.102 1.485 0.372 0 0.74-0.015 1.104-0.045l-0.048 0.003c-0.54-0.568-1.006-1.215-1.379-1.918l-0.023-0.047c-1.9-0.058-3.666-0.578-5.207-1.45l0.056 0.029-0.36-0.2-5.315 1.481 1.484-5.312-0.201-0.36c-0.9-1.583-1.431-3.478-1.431-5.497 0-0.007 0-0.013 0-0.020v0.001c0-0.004 0-0.008 0-0.013 0-6.259 5.074-11.333 11.333-11.333 6.137 0 11.135 4.878 11.328 10.968l0 0.018c0.72 0.375 1.381 0.848 1.965 1.4 0.027-0.343 0.040-0.689 0.040-1.040zM17.116 21.963c1.172-0.297 2.026-1.343 2.026-2.589 0-0.263-0.038-0.518-0.109-0.758l0.005 0.019-0.264-0.916c0.564-0.494 1.218-0.903 1.931-1.199l0.047-0.017 0.665 0.699c0.487 0.512 1.173 0.83 1.933 0.83s1.445-0.318 1.931-0.828l0.001-0.001 0.657-0.691c0.76 0.316 1.415 0.73 1.986 1.235l-0.008-0.007-0.248 0.841c-0.069 0.226-0.109 0.485-0.109 0.754 0 1.251 0.862 2.301 2.024 2.589l0.018 0.004 0.719 0.173c0.063 0.37 0.1 0.796 0.1 1.23 0 0.417-0.033 0.826-0.098 1.224l0.006-0.044-0.779 0.192c-1.172 0.298-2.025 1.343-2.025 2.588 0 0.264 0.038 0.518 0.109 0.759l-0.005-0.019 0.263 0.915c-0.585 0.511-1.252 0.924-1.977 1.217l-0.664-0.7c-0.487-0.512-1.173-0.83-1.933-0.83s-1.447 0.318-1.932 0.829l-0.001 0.001-0.657 0.692c-0.76-0.317-1.415-0.731-1.986-1.236l0.008 0.007 0.249-0.841c0.069-0.226 0.109-0.485 0.109-0.754 0-1.251-0.862-2.301-2.024-2.589l-0.018-0.004-0.72-0.173c-0.064-0.37-0.1-0.796-0.1-1.23 0-0.417 0.033-0.826 0.098-1.224l-0.006 0.044 0.779-0.192zM25.267 23.333c0-1.104-0.867-2-1.933-2s-1.933 0.896-1.933 2 0.867 2 1.933 2c1.067 0 1.933-0.896 1.933-2z"></path>
</svg>
