<!-- Generated by IcoMoon.io -->
<svg version="1.1" xmlns="http://www.w3.org/2000/svg" width="32" height="32" viewBox="0 0 32 32">
<title>chat-arrow-back-regular</title>
<path d="M16 3.2c0 0 0 0 0 0 7.069 0 12.8 5.731 12.8 12.8 0 0.143-0.002 0.285-0.007 0.427l0.001-0.021c-0.47-0.39-0.999-0.741-1.564-1.033l-0.049-0.023c-0.354-5.899-5.224-10.549-11.181-10.549-6.186 0-11.2 5.014-11.2 11.2 0 2.012 0.531 3.901 1.46 5.533l-0.029-0.055c0.064 0.113 0.102 0.247 0.102 0.391 0 0.016-0 0.032-0.001 0.048l0-0.002-0.022 0.15-1.21 4.834 4.838-1.206c0.058-0.015 0.124-0.023 0.192-0.023 0.038 0 0.076 0.003 0.113 0.008l-0.004-0 0.146 0.034 0.139 0.062c1.472 0.827 3.115 1.312 4.827 1.408 0.293 0.578 0.648 1.118 1.056 1.613-0.126 0.004-0.273 0.007-0.422 0.007-2.103 0-4.088-0.509-5.837-1.412l0.071 0.033-0.194-0.102-5.832 1.456c-0.059 0.015-0.126 0.024-0.195 0.024-0.417 0-0.76-0.319-0.797-0.727l-0-0.003v-0.131l0.022-0.133 1.456-5.83-0.101-0.192c-0.697-1.342-1.17-2.909-1.324-4.569l-0.004-0.050-0.040-0.611-0.011-0.554c0-7.069 5.731-12.8 12.8-12.8v0zM23.2 30.4c3.976 0 7.2-3.224 7.2-7.2s-3.224-7.2-7.2-7.2v0c-3.976 0-7.2 3.224-7.2 7.2s3.224 7.2 7.2 7.2v0zM21.766 20.166l-1.435 1.434h2.469c2.43 0 4.4 1.97 4.4 4.4v0 0.4c0 0.442-0.358 0.8-0.8 0.8s-0.8-0.358-0.8-0.8v0-0.4c0-1.546-1.254-2.8-2.8-2.8v0h-2.469l1.435 1.434c0.145 0.145 0.235 0.345 0.235 0.566 0 0.442-0.359 0.801-0.801 0.801-0.221 0-0.421-0.090-0.566-0.235l-2.803-2.805c-0.143-0.144-0.232-0.343-0.232-0.562 0-0.221 0.090-0.421 0.235-0.566l2.8-2.8c0.145-0.145 0.345-0.235 0.566-0.235 0.442 0 0.801 0.359 0.801 0.801 0 0.221-0.090 0.421-0.235 0.566v0z"></path>
</svg>
