<!-- Generated by IcoMoon.io -->
<svg version="1.1" xmlns="http://www.w3.org/2000/svg" width="32" height="32" viewBox="0 0 32 32">
<title>chat-mail</title>
<path d="M9.6 9.6c0-0.442 0.358-0.8 0.8-0.8v0h4.8c0.442 0 0.8 0.358 0.8 0.8s-0.358 0.8-0.8 0.8v0h-4.8c-0.442 0-0.8-0.358-0.8-0.8v0zM10.4 12c-0.442 0-0.8 0.358-0.8 0.8s0.358 0.8 0.8 0.8v0h3.2c0.442 0 0.8-0.358 0.8-0.8s-0.358-0.8-0.8-0.8v0h-3.2zM12.8 1.6c-0.001 0-0.002 0-0.003 0-5.302 0-9.6 4.298-9.6 9.6 0 1.685 0.434 3.268 1.196 4.644l-0.025-0.049-1.136 3.984c-0.020 0.066-0.031 0.142-0.031 0.22 0 0.442 0.358 0.8 0.8 0.8 0.090 0 0.176-0.015 0.257-0.042l-0.006 0.002 3.741-1.246c1.378 0.81 3.035 1.288 4.803 1.288 5.302 0 9.6-4.298 9.6-9.6 0-5.301-4.296-9.598-9.597-9.6h-0zM4.8 11.2c0.001-4.418 3.582-7.999 8-7.999s8 3.582 8 8-3.582 8-8 8c-1.588 0-3.068-0.463-4.312-1.26l0.032 0.019c-0.121-0.078-0.269-0.124-0.428-0.124-0.091 0-0.178 0.015-0.259 0.043l0.006-0.002-2.653 0.885 0.816-2.85c0.019-0.065 0.030-0.14 0.030-0.218 0-0.152-0.042-0.293-0.115-0.414l0.002 0.004c-0.703-1.163-1.118-2.567-1.118-4.068 0-0.005 0-0.011 0-0.016v0.001zM19.642 23.915l-3.843-1.92c0.704-0.197 1.381-0.459 2.021-0.781l2.181 1.091 7.2-3.6v-1.106c0-0.884-0.716-1.6-1.6-1.6v0h-2.678c0.245-0.512 0.45-1.048 0.614-1.6h2.064c1.767 0 3.2 1.433 3.2 3.2v0 8c0 1.767-1.433 3.2-3.2 3.2v0h-11.2c-1.767 0-3.2-1.433-3.2-3.2v0-3.312c0.523 0.074 1.056 0.112 1.6 0.112v3.2c0 0.884 0.716 1.6 1.6 1.6v0h11.2c0.884 0 1.6-0.716 1.6-1.6v0-5.106l-6.842 3.421c-0.104 0.053-0.228 0.085-0.358 0.085s-0.254-0.031-0.363-0.087l0.005 0.002z"></path>
</svg>
