<!-- Generated by IcoMoon.io -->
<svg version="1.1" xmlns="http://www.w3.org/2000/svg" width="32" height="32" viewBox="0 0 32 32">
<title>chat-multiple</title>
<path d="M12.749 4c-5.523 0-10 4.477-10 10 0 1.511 0.336 2.945 0.937 4.231-0.339 1.331-0.717 2.814-0.966 3.788-0.311 1.218 0.786 2.325 2.005 2.032 1-0.24 2.538-0.609 3.908-0.936 1.256 0.568 2.651 0.884 4.116 0.884 5.523 0 10-4.477 10-10s-4.477-10-10-10zM4.749 14c0-4.418 3.582-8 8-8s8 3.582 8 8c0 4.418-3.582 8-8 8-1.281 0-2.489-0.3-3.56-0.833l-0.325-0.162-0.353 0.084c-1.23 0.293-2.652 0.634-3.717 0.889 0.265-1.039 0.616-2.415 0.92-3.611l0.094-0.368-0.174-0.337c-0.566-1.096-0.885-2.341-0.885-3.662zM19.415 28c-2.626 0-5.015-1.012-6.8-2.667 0.044 0.001 0.089 0.001 0.133 0.001 0.957 0 1.887-0.119 2.775-0.342 1.152 0.643 2.479 1.009 3.892 1.009 1.281 0 2.489-0.3 3.56-0.834l0.325-0.162 0.353 0.084c1.229 0.293 2.62 0.594 3.652 0.813-0.233-1.001-0.552-2.34-0.855-3.534l-0.094-0.368 0.174-0.337c0.566-1.096 0.885-2.341 0.885-3.662 0-2.82-1.459-5.299-3.663-6.723-0.238-0.964-0.599-1.88-1.066-2.729 3.916 1.355 6.729 5.075 6.729 9.453 0 1.511-0.336 2.946-0.937 4.232 0.337 1.344 0.679 2.8 0.896 3.738 0.273 1.18-0.767 2.248-1.957 1.999-0.97-0.203-2.493-0.528-3.885-0.853-1.257 0.568-2.651 0.885-4.117 0.885z"></path>
</svg>
