<!-- Generated by IcoMoon.io -->
<svg version="1.1" xmlns="http://www.w3.org/2000/svg" width="32" height="32" viewBox="0 0 32 32">
<title>chat-video</title>
<path d="M16 10.667c1.473 0 2.667 1.194 2.667 2.667v5.333c0 1.473-1.194 2.667-2.667 2.667h-4c-1.473 0-2.667-1.194-2.667-2.667v-5.333c0-1.473 1.194-2.667 2.667-2.667h4zM20 17.549v-3.098l2.313-2.189c0.637-0.603 1.687-0.152 1.687 0.726v6.024c0 0.878-1.050 1.33-1.687 0.726l-2.313-2.189zM29.333 16c0-7.364-5.97-13.333-13.333-13.333s-13.333 5.97-13.333 13.333c0 2.16 0.515 4.248 1.486 6.123l-1.424 5.097c-0.082 0.293-0.082 0.603-0 0.897 0.248 0.887 1.167 1.405 2.054 1.157l5.101-1.423c1.873 0.969 3.958 1.483 6.116 1.483 7.364 0 13.333-5.97 13.333-13.333zM4.667 16c0-6.259 5.074-11.333 11.333-11.333s11.333 5.074 11.333 11.333c0 6.259-5.074 11.333-11.333 11.333-1.957 0-3.84-0.496-5.511-1.427l-0.359-0.2-5.315 1.483 1.484-5.312-0.201-0.36c-0.934-1.672-1.431-3.557-1.431-5.517z"></path>
</svg>
