<!-- Generated by IcoMoon.io -->
<svg version="1.1" xmlns="http://www.w3.org/2000/svg" width="32" height="32" viewBox="0 0 32 32">
<title>chat-empty</title>
<path d="M11.024 3.634c11.525-4.613 22.897 7.624 16.705 18.771-2.813 5.063-9.801 9.14-17.939 5.284l-5.657 1.616c-0.877 0.251-1.689-0.557-1.442-1.435 0.337-1.204 1.137-4.043 1.605-5.581-3.508-6.259-1.143-15.505 6.727-18.655zM26.272 21.595c5.39-9.703-4.482-20.475-14.629-16.413-6.985 2.794-9.017 11.127-5.73 16.571l0.194 0.321-0.112 0.358c-0.355 1.135-1.025 3.489-1.457 5.022l5.409-1.545 0.289 0.143c7.338 3.637 13.548 0.018 16.035-4.458z"></path>
</svg>
