<!-- Generated by IcoMoon.io -->
<svg version="1.1" xmlns="http://www.w3.org/2000/svg" width="32" height="32" viewBox="0 0 32 32">
<title>chat-help</title>
<path d="M16 2.667c7.364 0 13.333 5.969 13.333 13.333s-5.969 13.333-13.333 13.333c-0.005 0-0.012 0-0.018 0-2.227 0-4.327-0.548-6.17-1.518l0.073 0.035-5.101 1.423c-0.134 0.039-0.289 0.061-0.448 0.061-0.92 0-1.667-0.746-1.667-1.667 0-0.159 0.022-0.314 0.064-0.46l-0.003 0.012 1.424-5.097c-0.937-1.773-1.487-3.875-1.487-6.105 0-0.006 0-0.012 0-0.018v0.001c0-7.364 5.969-13.333 13.333-13.333zM16 4.667c-6.259 0-11.333 5.074-11.333 11.333v0c0 1.96 0.497 3.844 1.431 5.516l0.2 0.36-1.483 5.312 5.316-1.483 0.36 0.2c1.587 0.898 3.485 1.428 5.507 1.428 6.259 0 11.333-5.074 11.333-11.333s-5.073-11.332-11.331-11.333h-0zM16 20.667c0.736 0 1.333 0.597 1.333 1.333s-0.597 1.333-1.333 1.333v0c-0.736 0-1.333-0.597-1.333-1.333s0.597-1.333 1.333-1.333v0zM16 9c2.025 0 3.667 1.642 3.667 3.667v0c0 1.347-0.396 2.099-1.401 3.145l-0.225 0.228c-0.829 0.829-1.040 1.181-1.040 1.96 0 0.552-0.448 1-1 1s-1-0.448-1-1v0c0-1.347 0.396-2.099 1.401-3.145l0.225-0.228c0.829-0.829 1.040-1.181 1.040-1.96-0.003-0.918-0.748-1.661-1.667-1.661-0.858 0-1.565 0.649-1.657 1.483l-0.001 0.007-0.009 0.171c0 0.552-0.448 1-1 1s-1-0.448-1-1v0c0-2.025 1.642-3.667 3.667-3.667v0z"></path>
</svg>
