<!-- Generated by IcoMoon.io -->
<svg version="1.1" xmlns="http://www.w3.org/2000/svg" width="32" height="32" viewBox="0 0 32 32">
<title>chat</title>
<path d="M16 2.667c7.364 0 13.333 5.97 13.333 13.333s-5.97 13.333-13.333 13.333c-2.158 0-4.243-0.514-6.116-1.483l-5.101 1.423c-0.887 0.248-1.806-0.27-2.054-1.157-0.082-0.293-0.082-0.604 0-0.897l1.424-5.097c-0.971-1.875-1.486-3.963-1.486-6.123 0-7.364 5.97-13.333 13.333-13.333zM16 4.667c-6.259 0-11.333 5.074-11.333 11.333 0 1.959 0.497 3.845 1.431 5.517l0.201 0.36-1.484 5.312 5.315-1.483 0.359 0.2c1.671 0.931 3.553 1.427 5.511 1.427 6.259 0 11.333-5.074 11.333-11.333s-5.074-11.333-11.333-11.333zM11.667 17.333h5.998c0.552 0 1 0.448 1 1 0 0.506-0.376 0.925-0.864 0.991l-0.136 0.009h-5.998c-0.552 0-1-0.448-1-1 0-0.506 0.376-0.925 0.864-0.991l0.136-0.009zM11.667 12.667h8.673c0.552 0 1 0.448 1 1 0 0.506-0.376 0.925-0.864 0.991l-0.136 0.009h-8.673c-0.552 0-1-0.448-1-1 0-0.506 0.376-0.925 0.864-0.991l0.136-0.009z"></path>
</svg>
