<!-- Generated by IcoMoon.io -->
<svg version="1.1" xmlns="http://www.w3.org/2000/svg" width="32" height="32" viewBox="0 0 32 32">
<title>chat-bubbles-question</title>
<path d="M4 13.5c0-4.694 3.806-8.5 8.5-8.5s8.5 3.806 8.5 8.5c0 4.694-3.806 8.5-8.5 8.5v0c-0.004 0-0.009 0-0.014 0-1.428 0-2.773-0.354-3.953-0.978l0.046 0.022c-0.134-0.072-0.294-0.114-0.463-0.114-0.092 0-0.18 0.012-0.265 0.035l0.007-0.002-3.852 1.033 1.031-3.851c0.022-0.078 0.034-0.167 0.034-0.259 0-0.169-0.042-0.328-0.116-0.467l0.003 0.005c-0.604-1.135-0.958-2.481-0.958-3.91 0-0.005 0-0.010 0-0.015v0.001zM12.5 3c-5.799 0-10.5 4.701-10.5 10.5 0 1.606 0.361 3.13 1.008 4.494l-0.934 3.485c-0.399 1.487 0.962 2.848 2.45 2.45l3.486-0.935c1.31 0.635 2.85 1.006 4.477 1.006 0.005 0 0.009 0 0.014 0h-0.001c5.799 0 10.5-4.701 10.5-10.5s-4.701-10.5-10.5-10.5zM19.5 29c-3.124 0-5.93-1.364-7.853-3.53 0.256 0.019 0.555 0.030 0.856 0.030 0.689 0 1.365-0.058 2.023-0.168l-0.071 0.010c1.388 1.036 3.137 1.658 5.031 1.658 0.005 0 0.010 0 0.015 0h-0.001c1.416 0 2.75-0.346 3.922-0.956 0.134-0.072 0.294-0.114 0.463-0.114 0.091 0 0.18 0.012 0.264 0.035l-0.007-0.002 3.852 1.033-1.031-3.851c-0.022-0.078-0.034-0.167-0.034-0.26 0-0.169 0.042-0.328 0.116-0.468l-0.003 0.005c0.604-1.135 0.958-2.481 0.958-3.91 0-0.005 0-0.010 0-0.014v0.001c0-0.002 0-0.005 0-0.007 0-2.884-1.438-5.432-3.636-6.967l-0.028-0.018c-0.172-1.015-0.446-1.922-0.817-2.777l0.030 0.077c3.821 1.628 6.451 5.352 6.451 9.69 0 0.001 0 0.001 0 0.002v-0c0 1.606-0.361 3.13-1.008 4.493l0.934 3.486c0.399 1.487-0.962 2.848-2.45 2.45l-3.486-0.935c-1.311 0.635-2.85 1.006-4.477 1.006-0.005 0-0.009 0-0.014 0h0.001zM13.75 18.75c0 0.69-0.56 1.25-1.25 1.25s-1.25-0.56-1.25-1.25v0c0-0.69 0.56-1.25 1.25-1.25s1.25 0.56 1.25 1.25v0zM11 10.013v0zM11 10.017v0zM11 10.014v0.003-0.014c0.003-0.022 0.008-0.060 0.018-0.112 0.022-0.104 0.064-0.236 0.143-0.361 0.116-0.187 0.409-0.53 1.339-0.53s1.223 0.343 1.34 0.53c0.084 0.135 0.141 0.296 0.16 0.468l0 0.005v0.010c-0.005 0.481-0.297 0.824-1.001 1.626-0.638 0.725-1.499 1.75-1.499 3.361 0 0.552 0.448 1 1 1s1-0.448 1-1v0c0-0.812 0.389-1.345 1.001-2.041l0.141-0.159c0.55-0.614 1.358-1.517 1.358-2.8v-0.026c-0.001-0.054-0.004-0.106-0.010-0.157l0.001 0.008c-0.049-0.507-0.212-0.968-0.464-1.368l0.008 0.013c-0.508-0.813-1.465-1.47-3.035-1.47s-2.527 0.657-3.036 1.47c-0.269 0.428-0.438 0.944-0.464 1.497l-0 0.007v0.026c-0 0.003-0 0.005-0 0.008 0 0.552 0.448 1 1 1 0.549 0 0.995-0.443 1-0.991v-0 0.002-0.005zM11 10.013v0zM14 10v0.020z"></path>
</svg>
