<!-- Generated by IcoMoon.io -->
<svg version="1.1" xmlns="http://www.w3.org/2000/svg" width="32" height="32" viewBox="0 0 32 32">
<title>chat-off</title>
<path d="M4.374 2.96c-0.391-0.391-1.024-0.391-1.414-0s-0.391 1.024-0 1.414l2.932 2.932c-2.010 2.334-3.224 5.373-3.224 8.695 0 2.16 0.515 4.248 1.486 6.123l-1.424 5.097c-0.082 0.293-0.082 0.603-0 0.897 0.248 0.887 1.167 1.405 2.054 1.157l5.101-1.423c1.873 0.969 3.958 1.483 6.116 1.483 3.322 0 6.36-1.215 8.694-3.224l2.931 2.932c0.391 0.391 1.024 0.391 1.414 0s0.391-1.024 0-1.414l-24.666-24.667zM23.275 24.69c-1.969 1.65-4.506 2.643-7.275 2.643-1.957 0-3.84-0.496-5.511-1.427l-0.359-0.2-5.315 1.483 1.484-5.312-0.201-0.36c-0.934-1.672-1.431-3.557-1.431-5.517 0-2.77 0.993-5.307 2.643-7.276l4.006 4.006c-0.379 0.142-0.649 0.508-0.649 0.937 0 0.552 0.448 1 1 1h1.586l2.667 2.667h-4.252l-0.136 0.009c-0.488 0.066-0.864 0.485-0.864 0.991 0 0.552 0.448 1 1 1h5.998l0.136-0.009c0.031-0.004 0.062-0.010 0.093-0.017l5.383 5.383z"></path>
<path d="M20.339 12.667h-3.43l2 2h1.43l0.136-0.009c0.488-0.066 0.864-0.485 0.864-0.991 0-0.552-0.448-1-1-1z"></path>
<path d="M27.333 16c0 2.040-0.539 3.955-1.483 5.608l1.458 1.458c1.283-2.049 2.025-4.471 2.025-7.067 0-7.364-5.97-13.333-13.333-13.333-2.595 0-5.018 0.742-7.066 2.024l1.458 1.458c1.654-0.944 3.568-1.483 5.608-1.483 6.259 0 11.333 5.074 11.333 11.333z"></path>
</svg>
