<!-- Generated by IcoMoon.io -->
<svg version="1.1" xmlns="http://www.w3.org/2000/svg" width="32" height="32" viewBox="0 0 32 32">
<title>checkmark-starburst</title>
<path d="M13.114 2.712c0.15 0.051 0.297 0.112 0.439 0.182l1.71 0.842c0.464 0.229 1.008 0.229 1.472 0l1.71-0.842c1.817-0.894 4.015-0.147 4.909 1.67l0.098 0.216 0.084 0.222 0.614 1.805c0.167 0.49 0.551 0.875 1.041 1.041l1.805 0.614c1.917 0.652 2.943 2.735 2.291 4.652-0.051 0.15-0.112 0.297-0.182 0.439l-0.842 1.71c-0.229 0.464-0.229 1.008 0 1.472l0.842 1.71c0.895 1.817 0.147 4.015-1.67 4.909-0.142 0.070-0.289 0.131-0.439 0.182l-1.805 0.614c-0.49 0.167-0.874 0.551-1.041 1.041l-0.614 1.805c-0.652 1.917-2.735 2.943-4.652 2.291-0.15-0.051-0.297-0.112-0.439-0.182l-1.71-0.842c-0.464-0.229-1.008-0.229-1.472 0l-1.71 0.842c-1.817 0.895-4.015 0.147-4.909-1.67-0.070-0.142-0.131-0.289-0.182-0.439l-0.614-1.805c-0.167-0.49-0.551-0.874-1.041-1.041l-1.805-0.614c-1.917-0.652-2.943-2.735-2.29-4.652 0.051-0.15 0.112-0.297 0.182-0.439l0.842-1.71c0.229-0.464 0.229-1.008 0-1.472l-0.842-1.71c-0.894-1.817-0.147-4.015 1.67-4.909 0.142-0.070 0.289-0.131 0.439-0.182l1.805-0.614c0.49-0.167 0.875-0.551 1.041-1.041l0.614-1.805c0.652-1.917 2.735-2.943 4.652-2.29zM10.356 5.647l-0.614 1.805c-0.367 1.078-1.213 1.924-2.29 2.29l-1.805 0.614c-0.068 0.023-0.135 0.051-0.199 0.083-0.826 0.407-1.166 1.406-0.759 2.231l0.842 1.71c0.503 1.021 0.503 2.218 0 3.239l-0.842 1.71c-0.032 0.065-0.059 0.131-0.083 0.199-0.296 0.871 0.17 1.818 1.041 2.115l1.805 0.614c1.078 0.367 1.924 1.213 2.29 2.291l0.614 1.805c0.023 0.068 0.051 0.135 0.083 0.199 0.407 0.826 1.406 1.166 2.231 0.759l1.71-0.842c1.021-0.503 2.218-0.503 3.239 0l1.71 0.842c0.065 0.032 0.131 0.059 0.199 0.083 0.871 0.296 1.818-0.17 2.115-1.041l0.614-1.805c0.367-1.078 1.213-1.924 2.291-2.291l1.805-0.614c0.068-0.023 0.135-0.051 0.199-0.083 0.826-0.407 1.166-1.406 0.759-2.231l-0.842-1.71c-0.503-1.021-0.503-2.218 0-3.239l0.842-1.71c0.032-0.065 0.059-0.131 0.083-0.199 0.296-0.871-0.17-1.818-1.041-2.115l-1.805-0.614c-1.078-0.367-1.924-1.213-2.291-2.29l-0.614-1.805-0.038-0.101-0.045-0.098-0.083-0.149c-0.448-0.716-1.374-0.991-2.149-0.61l-1.71 0.842c-1.021 0.503-2.218 0.503-3.239 0l-1.71-0.842c-0.065-0.032-0.131-0.059-0.199-0.083-0.871-0.296-1.818 0.17-2.115 1.041zM13.4 19.185l7.226-7.226c0.391-0.391 1.024-0.391 1.414 0 0.355 0.355 0.387 0.911 0.097 1.302l-0.097 0.112-8 8c-0.381 0.381-0.987 0.387-1.375 0.037l-0.1-0.104-3.333-4c-0.354-0.424-0.296-1.055 0.128-1.408 0.386-0.321 0.942-0.303 1.305 0.021l0.103 0.107 2.632 3.159z"></path>
</svg>
