<!-- Generated by IcoMoon.io -->
<svg version="1.1" xmlns="http://www.w3.org/2000/svg" width="32" height="32" viewBox="0 0 32 32">
<title>checkbox-indeterminate</title>
<path d="M9 8c-0.552 0-1 0.448-1 1v14c0 0.552 0.448 1 1 1h14c0.552 0 1-0.448 1-1v-14c0-0.552-0.448-1-1-1h-14zM24.333 4h-16.667c-2.025 0-3.667 1.642-3.667 3.667v16.667c0 2.025 1.642 3.667 3.667 3.667h16.667c2.025 0 3.667-1.642 3.667-3.667v-16.667c0-2.025-1.642-3.667-3.667-3.667zM6 7.667c0-0.92 0.746-1.667 1.667-1.667h16.667c0.921 0 1.667 0.746 1.667 1.667v16.667c0 0.921-0.746 1.667-1.667 1.667h-16.667c-0.92 0-1.667-0.746-1.667-1.667v-16.667z"></path>
</svg>
