<!-- Generated by IcoMoon.io -->
<svg version="1.1" xmlns="http://www.w3.org/2000/svg" width="32" height="32" viewBox="0 0 32 32">
<title>checkmark-lock</title>
<path d="M16 2.667c7.364 0 13.333 5.969 13.333 13.333 0 0.569-0.036 1.129-0.104 1.68-0.269-1.209-0.977-2.219-1.944-2.876l-0.016-0.010c-0.64-5.709-5.44-10.107-11.268-10.107-6.253 0-11.323 5.063-11.335 11.313v0.001c0 0 0 0.001 0 0.001 0 6.259 5.074 11.333 11.333 11.333 0.47 0 0.933-0.029 1.388-0.084l-0.055 0.005v1.411c0 0.203 0.019 0.403 0.053 0.596-0.414 0.045-0.893 0.071-1.379 0.071-0.003 0-0.005 0-0.008 0h0c-7.364 0-13.333-5.969-13.333-13.333s5.969-13.333 13.333-13.333zM27.316 16.643c-0.615-0.8-1.573-1.31-2.649-1.31-1.841 0-3.333 1.492-3.333 3.333 0 0 0 0.001 0 0.001v-0 1.333h-0.667c-1.105 0-2 0.895-2 2v0 6.667c0 1.105 0.895 2 2 2v0h8c1.105 0 2-0.895 2-2v0-6.667c0-1.105-0.895-2-2-2v0h-0.667v-1.333c0-0.002 0-0.004 0-0.006 0-0.763-0.257-1.466-0.69-2.026l0.006 0.008zM24.143 26.56c-0.48-0.209-0.809-0.679-0.809-1.227 0-0.737 0.597-1.334 1.334-1.334 0.19 0 0.37 0.040 0.533 0.111l-0.009-0.003c0.48 0.209 0.809 0.679 0.809 1.227 0 0.737-0.597 1.334-1.334 1.334-0.19 0-0.37-0.040-0.533-0.111l0.009 0.003zM23.333 18.667c0-0.736 0.597-1.333 1.333-1.333s1.333 0.597 1.333 1.333v0 1.333h-2.667v-1.333zM14.333 17.92l5.96-5.96c0.181-0.179 0.43-0.29 0.704-0.29 0.552 0 1 0.448 1 1 0 0.223-0.073 0.428-0.196 0.594l0.002-0.003-0.097 0.112-6.667 6.667c-0.181 0.181-0.431 0.293-0.707 0.293-0.224 0-0.43-0.073-0.597-0.198l0.003 0.002-0.112-0.097-3.333-3.333c-0.179-0.181-0.29-0.43-0.29-0.704 0-0.552 0.448-1 1-1 0.223 0 0.428 0.073 0.594 0.196l-0.003-0.002 0.112 0.097 2.627 2.627z"></path>
</svg>
