<!-- Generated by IcoMoon.io -->
<svg version="1.1" xmlns="http://www.w3.org/2000/svg" width="32" height="32" viewBox="0 0 32 32">
<title>checkmark-regular</title>
<path d="M26.759 8.581c0.149 0.15 0.241 0.357 0.241 0.586 0 0.232-0.095 0.442-0.247 0.593l-0 0-14.833 14.667c-0.15 0.149-0.357 0.241-0.586 0.241-0.226 0-0.431-0.090-0.581-0.236l0 0-6.167-6c-0.159-0.152-0.259-0.366-0.259-0.603 0-0.46 0.373-0.833 0.833-0.833 0.229 0 0.437 0.092 0.587 0.242l-0-0 5.581 5.431 14.252-14.092c0.15-0.149 0.358-0.241 0.586-0.241 0.232 0 0.442 0.095 0.593 0.247l0 0z"></path>
</svg>
