<!-- Generated by IcoMoon.io -->
<svg version="1.1" xmlns="http://www.w3.org/2000/svg" width="32" height="32" viewBox="0 0 32 32">
<title>checkbox-1</title>
<path d="M8.333 4c-2.393 0-4.333 1.94-4.333 4.333v0 15.333c0 2.393 1.94 4.333 4.333 4.333v0h15.333c0.859 0 1.66-0.251 2.333-0.68v-2.211c-0.197 0.096-0.426 0.167-0.666 0.201l-0.012 0.001c-0.422 0.425-1.006 0.688-1.652 0.688-0.001 0-0.002 0-0.003 0h-15.333c-1.289 0-2.333-1.045-2.333-2.333v0-15.333c0-1.288 1.045-2.333 2.333-2.333h15.333c1.288 0 2.333 1.045 2.333 2.333v10.879l0.876-0.701c0.31-0.25 0.693-0.423 1.111-0.485l0.013-0.002v-9.691c0-2.393-1.94-4.333-4.333-4.333v0h-15.333zM23.040 12.373c0.196-0.183 0.318-0.443 0.318-0.732 0-0.552-0.448-1-1-1-0.289 0-0.549 0.122-0.731 0.318l-0.001 0.001-8.297 8.288-2.956-2.955c-0.178-0.166-0.418-0.268-0.682-0.268-0.552 0-1 0.448-1 1 0 0.264 0.102 0.504 0.269 0.682l-0.001-0.001 3.66 3.661c0.181 0.181 0.431 0.292 0.707 0.292s0.526-0.112 0.707-0.292l9.005-8.993zM28 19.392c-0.111 0.040-0.208 0.095-0.293 0.163l0.002-0.002-3.333 2.667c-0.235 0.185-0.385 0.469-0.385 0.789 0 0.552 0.448 1 1 1 0.241 0 0.462-0.085 0.635-0.227l-0.002 0.001 1.709-1.369v5.919c0 0.552 0.448 1 1 1s1-0.448 1-1v0-8c-0-0.552-0.448-1-1-1-0.119 0-0.234 0.021-0.34 0.059l0.007-0.002z"></path>
</svg>
