<!-- Generated by IcoMoon.io -->
<svg version="1.1" xmlns="http://www.w3.org/2000/svg" width="32" height="32" viewBox="0 0 32 32">
<title>checkmark-starburst</title>
<path d="M13.115 2.712c0.149 0.051 0.296 0.112 0.439 0.181l1.711 0.843c0.215 0.108 0.468 0.171 0.736 0.171s0.521-0.063 0.746-0.176l-0.010 0.004 1.711-0.843c0.472-0.237 1.029-0.377 1.618-0.377 1.435 0 2.678 0.825 3.28 2.026l0.010 0.021 0.099 0.216 0.084 0.223 0.613 1.804c0.167 0.491 0.552 0.875 1.041 1.041l1.805 0.613c1.458 0.507 2.486 1.869 2.486 3.471 0 0.59-0.139 1.148-0.387 1.642l0.010-0.021-0.841 1.711c-0.108 0.215-0.171 0.468-0.171 0.736s0.063 0.521 0.176 0.746l-0.004-0.010 0.841 1.711c0.238 0.473 0.377 1.030 0.377 1.62 0 1.602-1.027 2.964-2.459 3.463l-0.026 0.008-1.805 0.613c-0.491 0.171-0.87 0.55-1.036 1.030l-0.004 0.012-0.615 1.805c-0.507 1.458-1.869 2.485-3.471 2.485-0.59 0-1.147-0.139-1.641-0.387l0.021 0.010-1.711-0.841c-0.215-0.108-0.468-0.171-0.736-0.171s-0.521 0.063-0.746 0.176l0.010-0.004-1.711 0.841c-0.473 0.238-1.030 0.377-1.62 0.377-1.602 0-2.964-1.027-3.463-2.459l-0.008-0.026-0.613-1.805c-0.171-0.491-0.551-0.87-1.031-1.036l-0.012-0.004-1.804-0.615c-1.458-0.507-2.486-1.869-2.486-3.471 0-0.59 0.139-1.147 0.386-1.64l-0.010 0.021 0.843-1.711c0.108-0.215 0.171-0.468 0.171-0.736s-0.063-0.521-0.176-0.746l0.004 0.010-0.843-1.711c-0.238-0.472-0.377-1.030-0.377-1.619 0-1.602 1.028-2.965 2.461-3.464l0.026-0.008 1.804-0.613c0.491-0.171 0.871-0.551 1.038-1.031l0.004-0.012 0.613-1.804c0.507-1.458 1.869-2.486 3.471-2.486 0.423 0 0.829 0.072 1.208 0.204l-0.026-0.008zM10.355 5.645l-0.613 1.805c-0.375 1.080-1.21 1.916-2.265 2.283l-0.026 0.008-1.804 0.613c-0.663 0.231-1.13 0.85-1.13 1.579 0 0.268 0.063 0.521 0.175 0.746l-0.004-0.010 0.843 1.711c0.238 0.473 0.377 1.030 0.377 1.62s-0.139 1.147-0.387 1.641l0.010-0.021-0.843 1.709c-0.108 0.215-0.172 0.468-0.172 0.737 0 0.728 0.467 1.348 1.119 1.574l0.012 0.004 1.804 0.613c1.080 0.375 1.916 1.21 2.283 2.265l0.008 0.026 0.613 1.805c0.229 0.663 0.848 1.131 1.576 1.131 0.269 0 0.523-0.064 0.748-0.177l-0.010 0.004 1.711-0.843c0.473-0.238 1.030-0.377 1.62-0.377s1.147 0.139 1.641 0.387l-0.021-0.010 1.709 0.843c0.215 0.108 0.468 0.172 0.737 0.172 0.728 0 1.348-0.467 1.574-1.119l0.004-0.012 0.613-1.805c0.375-1.080 1.21-1.916 2.265-2.283l0.026-0.008 1.805-0.613c0.663-0.23 1.13-0.85 1.13-1.578 0-0.268-0.063-0.522-0.176-0.746l0.004 0.010-0.843-1.711c-0.238-0.472-0.377-1.030-0.377-1.619s0.139-1.147 0.387-1.64l-0.010 0.021 0.843-1.711c0.108-0.215 0.172-0.468 0.172-0.737 0-0.728-0.467-1.348-1.119-1.574l-0.012-0.004-1.805-0.613c-1.080-0.375-1.916-1.21-2.283-2.265l-0.008-0.026-0.613-1.804-0.039-0.101-0.044-0.099-0.083-0.148c-0.3-0.473-0.82-0.782-1.413-0.782-0.268 0-0.522 0.063-0.746 0.176l0.010-0.004-1.711 0.843c-0.472 0.238-1.030 0.377-1.619 0.377s-1.147-0.139-1.64-0.387l0.021 0.010-1.711-0.843c-0.215-0.108-0.468-0.171-0.736-0.171-0.728 0-1.347 0.467-1.574 1.118l-0.004 0.012zM13.4 19.187l7.227-7.227c0.181-0.182 0.431-0.294 0.708-0.294 0.552 0 1 0.448 1 1 0 0.225-0.074 0.432-0.199 0.599l0.002-0.003-0.097 0.112-8 8c-0.181 0.181-0.431 0.293-0.707 0.293-0.257 0-0.491-0.097-0.669-0.256l0.001 0.001-0.1-0.104-3.333-4c-0.144-0.172-0.231-0.395-0.231-0.639 0-0.552 0.448-1 1-1 0.255 0 0.489 0.096 0.665 0.253l-0.001-0.001 0.103 0.107 2.632 3.159z"></path>
</svg>
