<!-- Generated by IcoMoon.io -->
<svg version="1.1" xmlns="http://www.w3.org/2000/svg" width="32" height="32" viewBox="0 0 32 32">
<title>checkbox-warning-regular</title>
<path d="M8.333 4c-2.393 0-4.333 1.94-4.333 4.333v0 15.333c0 2.393 1.94 4.333 4.333 4.333v0h6.405c0.066-0.312 0.166-0.589 0.297-0.846l-0.009 0.019 0.587-1.173h-7.28c-1.289 0-2.333-1.045-2.333-2.333v0-15.333c0-1.288 1.045-2.333 2.333-2.333h15.333c1.288 0 2.333 1.045 2.333 2.333v7.656c0.12 0.16 0.227 0.333 0.32 0.521l1.68 3.363v-11.54c0-2.393-1.94-4.333-4.333-4.333v0h-15.333zM23.040 12.373c0.196-0.183 0.318-0.443 0.318-0.732 0-0.552-0.448-1-1-1-0.289 0-0.549 0.122-0.731 0.318l-0.001 0.001-8.297 8.288-2.956-2.955c-0.178-0.166-0.418-0.268-0.682-0.268-0.552 0-1 0.448-1 1 0 0.264 0.102 0.504 0.269 0.682l-0.001-0.001 3.66 3.661c0.181 0.181 0.431 0.292 0.707 0.292s0.526-0.112 0.707-0.292l9.005-8.993zM21.548 17.107l-5.328 10.664c-0.134 0.261-0.212 0.569-0.212 0.896 0 1.105 0.895 2 2 2 0.001 0 0.002 0 0.003 0h10.656c0.001 0 0.002 0 0.003 0 1.105 0 2-0.895 2-2 0-0.327-0.078-0.635-0.217-0.907l0.005 0.011-5.329-10.664c-0.737-1.476-2.843-1.476-3.581 0zM24.007 20.661v4.001c0 0.369-0.299 0.667-0.667 0.667s-0.667-0.299-0.667-0.667v0-4.001c0-0.368 0.298-0.667 0.667-0.667s0.667 0.298 0.667 0.667v0zM23.34 27.999c-0.368 0-0.667-0.298-0.667-0.667s0.298-0.667 0.667-0.667v0c0.368 0 0.667 0.298 0.667 0.667s-0.298 0.667-0.667 0.667v0z"></path>
</svg>
