<!-- Generated by IcoMoon.io -->
<svg version="1.1" xmlns="http://www.w3.org/2000/svg" width="32" height="32" viewBox="0 0 32 32">
<title>checkbox-1</title>
<path d="M23 2.667c2.025 0 3.667 1.642 3.667 3.667v11.691c-0.404 0.058-0.793 0.222-1.124 0.487l-0.876 0.701v-12.879c0-0.92-0.746-1.667-1.667-1.667h-16.667c-0.92 0-1.667 0.746-1.667 1.667v16.667c0 0.921 0.746 1.667 1.667 1.667h15.7c0.702 0.69 1.76 0.857 2.633 0.442v1.158c-0.5 0.256-1.067 0.4-1.667 0.4h-16.667c-2.025 0-3.667-1.642-3.667-3.667v-16.667c0-2.025 1.642-3.667 3.667-3.667h16.667zM26.375 19.552c0.089-0.071 0.188-0.125 0.291-0.162 0.247-0.087 0.523-0.076 0.767 0.041 0.347 0.167 0.567 0.517 0.567 0.901v8c0 0.552-0.448 1-1 1s-1-0.448-1-1v-5.919l-1.709 1.367c-0.431 0.345-1.061 0.275-1.405-0.156s-0.275-1.061 0.156-1.405l3.333-2.667c0 0 0 0 0 0zM12 17.919l8.626-8.626c0.391-0.391 1.024-0.391 1.414 0 0.355 0.355 0.387 0.911 0.097 1.302l-0.097 0.112-9.333 9.333c-0.355 0.355-0.911 0.387-1.302 0.097l-0.112-0.097-4-4c-0.391-0.391-0.391-1.024 0-1.414 0.355-0.355 0.911-0.387 1.302-0.097l0.112 0.097 3.293 3.293z"></path>
</svg>
