<!-- Generated by IcoMoon.io -->
<svg version="1.1" xmlns="http://www.w3.org/2000/svg" width="32" height="32" viewBox="0 0 32 32">
<title>checkbox-warning</title>
<path d="M23 2.667c2.025 0 3.667 1.642 3.667 3.667v10.871l-0.346-0.693c-0.379-0.759-0.975-1.283-1.654-1.574v-8.604c0-0.92-0.746-1.667-1.667-1.667h-16.667c-0.92 0-1.667 0.746-1.667 1.667v16.667c0 0.921 0.746 1.667 1.667 1.667h9.946l-0.999 2h-8.947c-2.025 0-3.667-1.642-3.667-3.667v-16.667c0-2.025 1.642-3.667 3.667-3.667h16.667zM12 17.919l8.626-8.626c0.391-0.391 1.024-0.391 1.414 0 0.355 0.355 0.387 0.911 0.097 1.302l-0.097 0.112-9.333 9.333c-0.355 0.355-0.911 0.387-1.302 0.097l-0.112-0.097-4-4c-0.391-0.391-0.391-1.024 0-1.414 0.355-0.355 0.911-0.387 1.302-0.097l0.112 0.097 3.293 3.293zM21.548 17.107l-5.329 10.664c-0.665 1.33 0.303 2.895 1.791 2.895h10.658c1.488 0 2.455-1.565 1.791-2.895l-5.329-10.664c-0.737-1.476-2.844-1.476-3.581 0zM24.006 20.661v4.002c0 0.368-0.299 0.667-0.667 0.667s-0.667-0.299-0.667-0.667v-4.002c0-0.368 0.299-0.667 0.667-0.667s0.667 0.299 0.667 0.667zM23.339 27.998c-0.368 0-0.667-0.299-0.667-0.667s0.299-0.667 0.667-0.667c0.369 0 0.667 0.299 0.667 0.667s-0.299 0.667-0.667 0.667z"></path>
</svg>
