<!-- Generated by IcoMoon.io -->
<svg version="1.1" xmlns="http://www.w3.org/2000/svg" width="32" height="32" viewBox="0 0 32 32">
<title>checkmark-square</title>
<path d="M21.707 13.040c0.166-0.178 0.268-0.418 0.268-0.682 0-0.552-0.448-1-1-1-0.264 0-0.504 0.102-0.682 0.269l0.001-0.001-5.96 5.96-1.965-1.965c-0.178-0.166-0.418-0.268-0.682-0.268-0.552 0-1 0.448-1 1 0 0.264 0.102 0.504 0.269 0.682l-0.001-0.001 2.672 2.672c0.181 0.181 0.431 0.292 0.707 0.292s0.526-0.112 0.707-0.292v0l6.667-6.667zM8.333 4c-2.393 0-4.333 1.94-4.333 4.333v0 15.333c0 2.393 1.94 4.333 4.333 4.333v0h15.333c2.393 0 4.333-1.94 4.333-4.333v0-15.333c0-2.393-1.94-4.333-4.333-4.333v0h-15.333zM6 8.333c0-1.288 1.045-2.333 2.333-2.333h15.333c1.288 0 2.333 1.045 2.333 2.333v15.333c0 1.289-1.045 2.333-2.333 2.333v0h-15.333c-1.289 0-2.333-1.045-2.333-2.333v0-15.333z"></path>
</svg>
