<!-- Generated by IcoMoon.io -->
<svg version="1.1" xmlns="http://www.w3.org/2000/svg" width="32" height="32" viewBox="0 0 32 32">
<title>checkbox-2</title>
<path d="M23 2.667c2.025 0 3.667 1.642 3.667 3.667v11.714c-0.666-0.095-1.35-0.043-2 0.136v-11.85c0-0.92-0.746-1.667-1.667-1.667h-16.667c-0.92 0-1.667 0.746-1.667 1.667v16.667c0 0.921 0.746 1.667 1.667 1.667h16.667c0.040 0 0.080-0.001 0.119-0.004-0.48 0.519-0.93 1.175-1.198 2.004h-15.588c-2.025 0-3.667-1.642-3.667-3.667v-16.667c0-2.025 1.642-3.667 3.667-3.667h16.667zM12 17.919l8.626-8.626c0.391-0.391 1.024-0.391 1.414 0 0.355 0.355 0.387 0.911 0.097 1.302l-0.097 0.112-9.333 9.333c-0.355 0.355-0.911 0.387-1.302 0.097l-0.112-0.097-4-4c-0.391-0.391-0.391-1.024 0-1.414 0.355-0.355 0.911-0.387 1.302-0.097l0.112 0.097 3.293 3.293zM24.744 21.879c0.369-0.411 1.015-0.62 1.513-0.522 0.225 0.044 0.389 0.144 0.503 0.287s0.24 0.411 0.24 0.902c0 0.734-0.469 1.109-1.586 1.916-0.987 0.714-2.414 1.761-2.414 3.871 0 0.552 0.448 1 1 1h4c0.552 0 1-0.448 1-1s-0.448-1-1-1h-2.743c0.261-0.442 0.714-0.805 1.329-1.25 0.056-0.040 0.114-0.082 0.175-0.125 0.896-0.639 2.239-1.597 2.239-3.412 0-0.845-0.224-1.579-0.673-2.145s-1.060-0.884-1.685-1.007c-1.202-0.236-2.555 0.223-3.387 1.148-0.369 0.411-0.335 1.043 0.075 1.412s1.043 0.335 1.412-0.075z"></path>
</svg>
