<!-- Generated by IcoMoon.io -->
<svg version="1.1" xmlns="http://www.w3.org/2000/svg" width="32" height="32" viewBox="0 0 32 32">
<title>check</title>
<path d="M29.040 7.707c0.391-0.391 0.391-1.024 0-1.414s-1.024-0.391-1.414 0l-10 10c-0.391 0.391-0.391 1.024 0 1.414s1.024 0.391 1.414 0l10-10zM29.262 9.371c0.047 0.225 0.071 0.457 0.071 0.696v9.2c0 1.878-1.522 3.4-3.4 3.4h-19.867c-1.878 0-3.4-1.522-3.4-3.4v-9.2c0-1.878 1.522-3.4 3.4-3.4h19.3l-2 2h-17.3c-0.773 0-1.4 0.627-1.4 1.4v9.2c0 0.773 0.627 1.4 1.4 1.4h19.867c0.773 0 1.4-0.627 1.4-1.4v-7.967l1.929-1.929zM6 12.333c0-0.552 0.448-1 1-1h2.667c0.552 0 1 0.448 1 1s-0.448 1-1 1h-2.667c-0.552 0-1-0.448-1-1zM6 17c0-0.552 0.448-1 1-1h6.667c0.552 0 1 0.448 1 1s-0.448 1-1 1h-6.667c-0.552 0-1-0.448-1-1z"></path>
</svg>
