<!-- Generated by IcoMoon.io -->
<svg version="1.1" xmlns="http://www.w3.org/2000/svg" width="32" height="32" viewBox="0 0 32 32">
<title>checkmark-note</title>
<path d="M2.669 14.602c0.141-0.125 0.327-0.202 0.531-0.202 0.238 0 0.451 0.104 0.598 0.268l0.001 0.001 5.835 6.566 16.202-16.202c0.145-0.145 0.345-0.234 0.566-0.234 0.442 0 0.8 0.358 0.8 0.8 0 0.221-0.090 0.421-0.235 0.566v0l-16.8 16.8c-0.145 0.145-0.345 0.234-0.566 0.234-0.238 0-0.452-0.104-0.598-0.269l-0.001-0.001-6.4-7.2c-0.125-0.141-0.202-0.327-0.202-0.531 0-0.238 0.104-0.451 0.268-0.598l0.001-0.001zM17.6 20.8c0-1.767 1.433-3.2 3.2-3.2v0h8c1.767 0 3.2 1.433 3.2 3.2v0 6.4c0 1.767-1.433 3.2-3.2 3.2v0h-8c-1.767 0-3.2-1.433-3.2-3.2v0-6.4zM28 25.6h-6.4c-0.442 0-0.8 0.358-0.8 0.8s0.358 0.8 0.8 0.8v0h6.4c0.442 0 0.8-0.358 0.8-0.8s-0.358-0.8-0.8-0.8v0zM21.6 20.8c-0.442 0-0.8 0.358-0.8 0.8s0.358 0.8 0.8 0.8v0h6.4c0.442 0 0.8-0.358 0.8-0.8s-0.358-0.8-0.8-0.8v0h-6.4z"></path>
</svg>
