<!-- Generated by IcoMoon.io -->
<svg version="1.1" xmlns="http://www.w3.org/2000/svg" width="32" height="32" viewBox="0 0 32 32">
<title>checkbox-person-regular</title>
<path d="M8.333 4c-2.393 0-4.333 1.94-4.333 4.333v0 15.333c0 2.393 1.94 4.333 4.333 4.333v0h9.229c-0.145-0.447-0.229-0.961-0.229-1.494 0-0.002 0-0.004 0-0.006v0-0.137c0-0.123 0.007-0.243 0.017-0.363h-9.017c-1.289 0-2.333-1.045-2.333-2.333v0-15.333c0-1.288 1.045-2.333 2.333-2.333h15.333c1.288 0 2.333 1.045 2.333 2.333v6.527c0.788 0.24 1.461 0.656 1.999 1.206l0.001 0.001v-7.733c0-2.393-1.94-4.333-4.333-4.333v0h-15.333zM23.040 12.373c0.196-0.183 0.318-0.443 0.318-0.732 0-0.552-0.448-1-1-1-0.289 0-0.549 0.122-0.731 0.318l-0.001 0.001-8.297 8.288-2.956-2.955c-0.178-0.166-0.418-0.268-0.682-0.268-0.552 0-1 0.448-1 1 0 0.264 0.102 0.504 0.269 0.682l-0.001-0.001 3.66 3.661c0.181 0.181 0.431 0.292 0.707 0.292s0.526-0.112 0.707-0.292l9.005-8.993zM28 19.333c0 1.841-1.492 3.333-3.333 3.333s-3.333-1.492-3.333-3.333v0c0-1.841 1.492-3.333 3.333-3.333s3.333 1.492 3.333 3.333v0zM30.667 26.5c0 2.075-1.715 4.167-6 4.167s-6-2.084-6-4.167v-0.137c0-1.307 1.059-2.363 2.364-2.363h7.272c1.307 0 2.364 1.057 2.364 2.363v0.137z"></path>
</svg>
