<!-- Generated by IcoMoon.io -->
<svg version="1.1" xmlns="http://www.w3.org/2000/svg" width="32" height="32" viewBox="0 0 32 32">
<title>checkmark-circle</title>
<path d="M16 2.667c7.364 0 13.333 5.969 13.333 13.333s-5.969 13.333-13.333 13.333-13.333-5.969-13.333-13.333 5.969-13.333 13.333-13.333zM16 4.333c-6.443 0-11.667 5.223-11.667 11.667s5.223 11.667 11.667 11.667 11.667-5.223 11.667-11.667-5.223-11.667-11.667-11.667zM21.756 11.744c0.151 0.151 0.244 0.359 0.244 0.589s-0.093 0.439-0.244 0.589l-7.333 7.333c-0.151 0.151-0.359 0.244-0.589 0.244s-0.439-0.093-0.589-0.244l-3-3c-0.151-0.151-0.244-0.359-0.244-0.589 0-0.46 0.373-0.833 0.833-0.833 0.23 0 0.438 0.093 0.589 0.244v0l2.411 2.411 6.744-6.744c0.151-0.151 0.359-0.244 0.589-0.244s0.439 0.093 0.589 0.244v0z"></path>
</svg>
