<!-- Generated by IcoMoon.io -->
<svg version="1.1" xmlns="http://www.w3.org/2000/svg" width="32" height="32" viewBox="0 0 32 32">
<title>checkmark-underline-circle-regular</title>
<path d="M16 27.2c-6.186 0-11.2-5.014-11.2-11.2s5.014-11.2 11.2-11.2v0c6.186 0 11.2 5.014 11.2 11.2s-5.014 11.2-11.2 11.2v0zM16 28.8c7.069 0 12.8-5.731 12.8-12.8s-5.731-12.8-12.8-12.8v0c-7.069 0-12.8 5.731-12.8 12.8s5.731 12.8 12.8 12.8v0zM22.166 9.834c0.145 0.145 0.235 0.345 0.235 0.566s-0.090 0.422-0.235 0.566l-6.4 6.4c-0.145 0.145-0.345 0.235-0.566 0.235s-0.422-0.090-0.566-0.235l-3.2-3.2c-0.145-0.145-0.235-0.345-0.235-0.566 0-0.442 0.359-0.801 0.801-0.801 0.221 0 0.421 0.090 0.566 0.235v0l2.634 2.635 5.834-5.835c0.145-0.145 0.345-0.235 0.566-0.235s0.422 0.090 0.566 0.235l0 0zM11.2 21.6c0 0.442 0.358 0.8 0.8 0.8v0h7.997c0.442 0 0.8-0.358 0.8-0.8s-0.358-0.8-0.8-0.8v0h-7.997c-0.442 0-0.8 0.358-0.8 0.8v0z"></path>
</svg>
