<!-- Generated by IcoMoon.io -->
<svg version="1.1" xmlns="http://www.w3.org/2000/svg" width="32" height="32" viewBox="0 0 32 32">
<title>checkmark-lock</title>
<path d="M16 2.667c7.364 0 13.333 5.97 13.333 13.333 0 0.569-0.036 1.129-0.105 1.679-0.258-1.197-0.976-2.224-1.959-2.886-0.603-5.692-5.418-10.126-11.27-10.126-6.259 0-11.333 5.074-11.333 11.333s5.074 11.333 11.333 11.333c0.451 0 0.896-0.026 1.333-0.078v1.411c0 0.203 0.018 0.402 0.053 0.595-0.456 0.047-0.918 0.071-1.386 0.071-7.364 0-13.333-5.97-13.333-13.333s5.97-13.333 13.333-13.333zM27.315 16.643c-0.609-0.796-1.569-1.309-2.649-1.309-1.841 0-3.333 1.492-3.333 3.333v1.333h-0.667c-1.105 0-2 0.895-2 2v6.667c0 0.134 0.013 0.265 0.038 0.392 0.182 0.917 0.991 1.608 1.962 1.608h8c1.105 0 2-0.895 2-2v-6.667c0-1.086-0.865-1.97-1.944-1.999-0.019-0.001-0.037-0.001-0.056-0.001h-0.667v-1.333c0-0.761-0.255-1.463-0.685-2.024zM24.142 26.559c-0.475-0.204-0.809-0.676-0.809-1.226 0-0.736 0.597-1.333 1.333-1.333 0.585 0 1.082 0.376 1.261 0.9 0.047 0.136 0.072 0.281 0.072 0.433 0 0.736-0.597 1.333-1.333 1.333-0.186 0-0.364-0.038-0.525-0.107zM23.333 18.667c0-0.736 0.597-1.333 1.333-1.333s1.333 0.597 1.333 1.333v1.333h-2.667v-1.333zM14.333 17.919l5.96-5.96c0.391-0.391 1.024-0.391 1.414 0 0.355 0.355 0.387 0.911 0.097 1.302l-0.097 0.112-6.667 6.667c-0.355 0.355-0.911 0.387-1.302 0.097l-0.112-0.097-3.333-3.333c-0.391-0.391-0.391-1.024 0-1.414 0.355-0.355 0.911-0.387 1.302-0.097l0.112 0.097 2.626 2.626z"></path>
</svg>
