<!-- Generated by IcoMoon.io -->
<svg version="1.1" xmlns="http://www.w3.org/2000/svg" width="32" height="32" viewBox="0 0 32 32">
<title>chevron-circle-down</title>
<path d="M4.333 16c0-6.443 5.223-11.667 11.667-11.667s11.667 5.223 11.667 11.667-5.223 11.667-11.667 11.667-11.667-5.223-11.667-11.667zM16 2.667c-7.364 0-13.333 5.969-13.333 13.333s5.969 13.333 13.333 13.333 13.333-5.969 13.333-13.333-5.969-13.333-13.333-13.333zM10.256 13.577c-0.151-0.151-0.359-0.244-0.589-0.244-0.46 0-0.833 0.373-0.833 0.833 0 0.23 0.093 0.438 0.244 0.589v0l6.333 6.333c0.151 0.151 0.359 0.244 0.589 0.244s0.439-0.093 0.589-0.244l6.333-6.333c0.151-0.151 0.244-0.359 0.244-0.589 0-0.46-0.373-0.833-0.833-0.833-0.23 0-0.439 0.093-0.589 0.244v0l-5.744 5.744-5.744-5.744z"></path>
</svg>
