<!-- Generated by IcoMoon.io -->
<svg version="1.1" xmlns="http://www.w3.org/2000/svg" width="32" height="32" viewBox="0 0 32 32">
<title>chevron-circle-down</title>
<path d="M16 2.667c7.364 0 13.333 5.97 13.333 13.333s-5.97 13.333-13.333 13.333c-7.364 0-13.333-5.97-13.333-13.333s5.97-13.333 13.333-13.333zM16 4.667c-6.259 0-11.333 5.074-11.333 11.333s5.074 11.333 11.333 11.333c6.259 0 11.333-5.074 11.333-11.333s-5.074-11.333-11.333-11.333zM9.96 13.293c0.391-0.391 1.024-0.391 1.414 0l4.626 4.626 4.626-4.626c0.391-0.391 1.024-0.391 1.414 0s0.391 1.024 0 1.414l-5.333 5.333c-0.391 0.391-1.024 0.391-1.414 0l-5.333-5.333c-0.391-0.391-0.391-1.024 0-1.414z"></path>
</svg>
