<!-- Generated by IcoMoon.io -->
<svg version="1.1" xmlns="http://www.w3.org/2000/svg" width="32" height="32" viewBox="0 0 32 32">
<title>chevron-up-down</title>
<path d="M16.721 2.974c-0.189-0.196-0.449-0.307-0.721-0.307s-0.532 0.111-0.721 0.307l-8.333 8.667c-0.383 0.398-0.37 1.031 0.028 1.414s1.031 0.37 1.414-0.028l7.613-7.917 7.613 7.917c0.383 0.398 1.016 0.411 1.414 0.028s0.411-1.016 0.028-1.414l-8.333-8.667zM16.721 29.026c-0.189 0.196-0.449 0.307-0.721 0.307s-0.532-0.111-0.721-0.307l-8.333-8.667c-0.383-0.398-0.37-1.031 0.028-1.414s1.031-0.37 1.414 0.028l7.613 7.917 7.613-7.917c0.383-0.398 1.016-0.411 1.414-0.028s0.411 1.016 0.028 1.414l-8.333 8.667z"></path>
</svg>
