<!-- Generated by IcoMoon.io -->
<svg version="1.1" xmlns="http://www.w3.org/2000/svg" width="32" height="32" viewBox="0 0 32 32">
<title>chevron-double-right-regular</title>
<path d="M13.834 6.635c0.145-0.145 0.345-0.235 0.566-0.235s0.42 0.089 0.565 0.233l8.774 8.744c0.16 0.159 0.259 0.38 0.259 0.623s-0.099 0.464-0.259 0.623l-8.774 8.744c-0.144 0.139-0.339 0.224-0.555 0.224-0.442 0-0.8-0.358-0.8-0.8 0-0.216 0.086-0.413 0.226-0.557l-0 0 8.264-8.235-8.264-8.234c-0.145-0.145-0.235-0.345-0.235-0.566s0.089-0.42 0.233-0.565l-0 0zM7.434 6.635c0.145-0.145 0.345-0.235 0.566-0.235s0.42 0.089 0.565 0.233l8.774 8.744c0.16 0.159 0.259 0.38 0.259 0.623s-0.099 0.464-0.259 0.623l-8.774 8.744c-0.144 0.139-0.339 0.224-0.555 0.224-0.442 0-0.8-0.358-0.8-0.8 0-0.216 0.086-0.413 0.226-0.557l-0 0 8.264-8.235-8.264-8.234c-0.145-0.145-0.235-0.345-0.235-0.566s0.089-0.42 0.233-0.565l-0 0z"></path>
</svg>
