<!-- Generated by IcoMoon.io -->
<svg version="1.1" xmlns="http://www.w3.org/2000/svg" width="32" height="32" viewBox="0 0 32 32">
<title>chevron-up-down-regular</title>
<path d="M16.72 2.973c-0.182-0.189-0.437-0.306-0.72-0.306s-0.538 0.117-0.72 0.306l-0 0-8.333 8.667c-0.186 0.182-0.301 0.435-0.301 0.715 0 0.552 0.448 1 1 1 0.293 0 0.557-0.126 0.74-0.327l0.001-0.001 7.613-7.917 7.613 7.917c0.184 0.202 0.447 0.328 0.741 0.328 0.552 0 1-0.448 1-1 0-0.28-0.115-0.533-0.3-0.715l-0-0-8.333-8.667zM16.72 29.027c-0.182 0.189-0.437 0.306-0.72 0.306s-0.538-0.117-0.72-0.306l-0-0-8.333-8.667c-0.186-0.182-0.301-0.435-0.301-0.715 0-0.552 0.448-1 1-1 0.293 0 0.557 0.126 0.74 0.327l0.001 0.001 7.613 7.917 7.613-7.917c0.184-0.202 0.447-0.328 0.741-0.328 0.552 0 1 0.448 1 1 0 0.28-0.115 0.533-0.3 0.715l-0 0-8.333 8.667z"></path>
</svg>
