<!-- Generated by IcoMoon.io -->
<svg version="1.1" xmlns="http://www.w3.org/2000/svg" width="32" height="32" viewBox="0 0 32 32">
<title>chevron-circle-right</title>
<path d="M2.667 16c0-7.364 5.97-13.333 13.333-13.333s13.333 5.97 13.333 13.333c0 7.364-5.97 13.333-13.333 13.333s-13.333-5.97-13.333-13.333zM4.667 16c0 6.259 5.074 11.333 11.333 11.333s11.333-5.074 11.333-11.333c0-6.259-5.074-11.333-11.333-11.333s-11.333 5.074-11.333 11.333zM13.293 22.040c-0.391-0.391-0.391-1.024 0-1.414l4.626-4.626-4.626-4.626c-0.391-0.391-0.391-1.024 0-1.414s1.024-0.391 1.414 0l5.333 5.333c0.391 0.391 0.391 1.024 0 1.414l-5.333 5.333c-0.391 0.391-1.024 0.391-1.414 0z"></path>
</svg>
