<!-- Generated by IcoMoon.io -->
<svg version="1.1" xmlns="http://www.w3.org/2000/svg" width="32" height="32" viewBox="0 0 32 32">
<title>circle-off</title>
<path d="M6.4 7.533l-2.965-2.966c-0.145-0.145-0.235-0.345-0.235-0.566 0-0.442 0.359-0.801 0.801-0.801 0.221 0 0.421 0.090 0.566 0.235l24 24c0.145 0.145 0.235 0.345 0.235 0.566 0 0.442-0.359 0.801-0.801 0.801-0.221 0-0.421-0.090-0.566-0.235l-2.966-2.968c-2.247 1.994-5.221 3.212-8.48 3.212-7.069 0-12.8-5.731-12.8-12.8 0-3.259 1.218-6.233 3.223-8.493l-0.012 0.013zM23.336 24.464l-15.802-15.798c-1.698 1.953-2.733 4.521-2.733 7.331 0 6.186 5.014 11.2 11.2 11.2 2.81 0 5.378-1.035 7.345-2.744l-0.014 0.012zM27.2 16c0 2.224-0.648 4.298-1.766 6.040l1.155 1.154c1.387-2.016 2.216-4.51 2.216-7.198 0-7.069-5.731-12.8-12.8-12.8-2.688 0-5.182 0.828-7.241 2.244l0.043-0.028 1.154 1.155c1.708-1.109 3.797-1.768 6.040-1.768 6.186 0 11.2 5.014 11.2 11.2 0 0.001 0 0.001 0 0.002v-0z"></path>
</svg>
