<!-- Generated by IcoMoon.io -->
<svg version="1.1" xmlns="http://www.w3.org/2000/svg" width="32" height="32" viewBox="0 0 32 32">
<title>circle-image-regular</title>
<path d="M12 5.143c-0.004 0-0.008 0-0.012 0-3.787 0-6.857 3.070-6.857 6.857 0 3.59 2.759 6.536 6.273 6.833l0.025 0.002v1.719c-4.481-0.309-7.999-4.020-7.999-8.552 0-4.734 3.838-8.571 8.571-8.571 4.533 0 8.243 3.518 8.551 7.972l0.001 0.027h-1.72c-0.304-3.533-3.247-6.286-6.833-6.286v0zM16.286 12.571c-2.051 0-3.714 1.663-3.714 3.714v0 8.571c0 2.051 1.663 3.714 3.714 3.714v0h8.571c2.051 0 3.714-1.663 3.714-3.714v0-8.571c0-2.051-1.663-3.714-3.714-3.714v0h-8.571zM14.286 16.286c0-1.104 0.896-2 2-2h8.571c1.104 0 2 0.896 2 2v8.571c0 0.235-0.041 0.462-0.115 0.672l-4.15-4.149c-0.517-0.517-1.231-0.837-2.021-0.837s-1.503 0.32-2.021 0.837l-4.149 4.149c-0.074-0.2-0.117-0.431-0.117-0.672v0-8.571zM15.614 26.742l4.149-4.15c0.207-0.207 0.493-0.335 0.809-0.335s0.602 0.128 0.809 0.335v0l4.15 4.149c-0.2 0.074-0.431 0.117-0.672 0.117h-8.571c-0.235 0-0.462-0.041-0.672-0.115zM25.143 17.714c0 0.947-0.767 1.714-1.714 1.714s-1.714-0.767-1.714-1.714v0c0-0.947 0.767-1.714 1.714-1.714s1.714 0.767 1.714 1.714v0z"></path>
</svg>
