<!-- Generated by IcoMoon.io -->
<svg version="1.1" xmlns="http://www.w3.org/2000/svg" width="32" height="32" viewBox="0 0 32 32">
<title>circle-multiple-subtract-checkmark-regular</title>
<path d="M11.2 3.2c3.9 0.001 7.147 2.79 7.858 6.483l0.008 0.050c0.523-0.080 1.058-0.126 1.602-0.133-0.806-4.557-4.736-7.974-9.464-7.974-5.294 0-9.587 4.283-9.603 9.573v0.002c0.001 4.737 3.431 8.672 7.943 9.459l0.057 0.008c0.007-0.571 0.055-1.124 0.141-1.665l-0.009 0.065c-3.735-0.725-6.517-3.97-6.517-7.864 0-4.413 3.572-7.992 7.983-8.003h0.001zM7.2 9.6c-0.442 0-0.8 0.358-0.8 0.8s0.358 0.8 0.8 0.8v0h8c0.442 0 0.8-0.358 0.8-0.8s-0.358-0.8-0.8-0.8v0h-8zM25.366 18.966c0.145-0.145 0.235-0.345 0.235-0.566 0-0.442-0.359-0.801-0.801-0.801-0.221 0-0.421 0.090-0.566 0.235v0l-4.234 4.235-1.834-1.835c-0.145-0.145-0.345-0.235-0.566-0.235-0.442 0-0.801 0.359-0.801 0.801 0 0.221 0.090 0.421 0.235 0.566v0l2.4 2.4c0.145 0.145 0.345 0.235 0.566 0.235s0.422-0.090 0.566-0.235l4.8-4.8zM20.8 30.4c5.302 0 9.6-4.298 9.6-9.6s-4.298-9.6-9.6-9.6v0c-5.302 0-9.6 4.298-9.6 9.6s4.298 9.6 9.6 9.6v0zM20.8 28.8c-4.418 0-8-3.582-8-8s3.582-8 8-8v0c4.418 0 8 3.582 8 8s-3.582 8-8 8v0z"></path>
</svg>
