<!-- Generated by IcoMoon.io -->
<svg version="1.1" xmlns="http://www.w3.org/2000/svg" width="32" height="32" viewBox="0 0 32 32">
<title>class-regular</title>
<path d="M23 2.667c2.025 0 3.667 1.642 3.667 3.667v0 19.333c0 2.025-1.642 3.667-3.667 3.667v0h-14c-2.025 0-3.667-1.642-3.667-3.667 0-0 0-0.001 0-0.001v0-19.332c0-1.68 1.128-3.093 2.667-3.529v2.196c-0.405 0.304-0.667 0.787-0.667 1.333v19.331c0 0.92 0.747 1.667 1.667 1.667h14c0.92 0 1.667-0.747 1.667-1.667v-19.331c0-0.92-0.747-1.667-1.667-1.667h-3v-2h3zM18.667 2.667v10.852c0 0.996-1.067 1.369-1.72 1.019l-0.109-0.069-2.835-1.713-2.771 1.668c-0.667 0.48-1.773 0.187-1.889-0.744l-0.009-0.159v-10.853h9.333zM16.667 4.667h-5.333v7.364l2.097-1.265c0.167-0.091 0.366-0.144 0.578-0.144 0.186 0 0.362 0.041 0.521 0.115l-0.008-0.003 2.147 1.299v-7.365z"></path>
</svg>
