<!-- Generated by IcoMoon.io -->
<svg version="1.1" xmlns="http://www.w3.org/2000/svg" width="32" height="32" viewBox="0 0 32 32">
<title>classification</title>
<path d="M12.024 8.003l-1.988 2.003-4.369 0.001c-0.552 0-1 0.448-1 1v0 15.328c0 0.552 0.448 1 1 1h15.333c0.552 0 1-0.448 1-1v0l-0.003-4.372 2.003-1.988v6.36c-0.001 1.656-1.344 2.999-3 2.999h-15.333c-1.657 0-3-1.343-3-3v0-15.327c0-1.657 1.343-3 3-3v0l6.357-0.004zM6.96 16.293l2.665-2.663c0.181-0.181 0.431-0.293 0.707-0.293 0.224 0 0.43 0.073 0.597 0.198l-0.003-0.002 0.112 0.097 7.335 7.329c0.181 0.181 0.294 0.431 0.294 0.708 0 0.224-0.074 0.431-0.198 0.598l0.002-0.003-0.097 0.112-2.667 2.667c-0.181 0.181-0.431 0.293-0.707 0.293-0.224 0-0.43-0.073-0.597-0.198l0.003 0.002-0.112-0.097-7.333-7.333c-0.181-0.181-0.294-0.431-0.294-0.708 0-0.224 0.074-0.431 0.198-0.598l-0.002 0.003 0.097-0.112h-0.001zM10.332 15.752l-1.251 1.249 5.919 5.92 1.253-1.253-5.921-5.916zM28.372 3.625c0.621 0.622 1.006 1.481 1.006 2.43 0 1.229-0.644 2.307-1.614 2.916l-0.014 0.008-0.196 0.113-1.557 0.824 0.688 0.687c0.784 0.784 1.269 1.867 1.269 3.064 0 1.104-0.413 2.112-1.093 2.877l0.004-0.004-0.18 0.192-1.644 1.643c-0.181 0.181-0.431 0.293-0.707 0.293-0.224 0-0.43-0.073-0.597-0.198l0.003 0.002-0.112-0.097-0.627-0.627-1.96 1.96c-0.181 0.181-0.431 0.293-0.707 0.293-0.224 0-0.43-0.073-0.597-0.198l0.003 0.002-0.112-0.097-7.333-7.333c-0.181-0.181-0.294-0.431-0.294-0.708 0-0.224 0.074-0.431 0.198-0.598l-0.002 0.003 0.097-0.112 1.959-1.96-0.627-0.625c-0.181-0.181-0.293-0.431-0.293-0.707 0-0.224 0.074-0.431 0.199-0.598l-0.002 0.003 0.097-0.112 1.641-1.64c0.785-0.783 1.868-1.267 3.064-1.267 1.104 0 2.111 0.412 2.877 1.091l-0.005-0.004 0.192 0.18 0.685 0.685 0.824-1.556c0.12-0.227 0.265-0.44 0.432-0.633l0.173-0.188c0.622-0.623 1.482-1.009 2.433-1.009 0.949 0 1.808 0.385 2.43 1.006v0zM15.665 10.419l-1.251 1.249 5.919 5.92 1.253-1.253-5.921-5.916zM16.848 6.584l-0.167 0.151-0.933 0.933 8.585 8.587 0.936-0.937c0.423-0.422 0.684-1.006 0.684-1.65 0-0.633-0.252-1.206-0.661-1.626l0 0.001-5.309-5.307c-0.423-0.422-1.007-0.683-1.651-0.683-0.566 0-1.084 0.201-1.489 0.535l0.004-0.003zM24.927 5.041c-0.067 0.067-0.128 0.141-0.181 0.221l-0.072 0.123-1.111 2.097 0.955 0.956 2.1-1.113c0.455-0.247 0.758-0.721 0.758-1.266 0-0.793-0.643-1.436-1.436-1.436-0.395 0-0.753 0.16-1.013 0.418l0-0z"></path>
</svg>
