<!-- Generated by IcoMoon.io -->
<svg version="1.1" xmlns="http://www.w3.org/2000/svg" width="32" height="32" viewBox="0 0 32 32">
<title>classification</title>
<path d="M12.024 8.001l-1.989 2.003-4.369 0.001c-0.552 0-1 0.448-1 1v15.327c0 0.552 0.448 1 1 1h15.333c0.552 0 1-0.448 1-1l-0.003-4.371 2.003-1.989v6.36c0 1.657-1.343 3-3 3h-15.333c-1.657 0-3-1.343-3-3v-15.327c0-1.657 1.343-3 3-3l6.358-0.004zM6.96 16.292l2.665-2.663c0.355-0.355 0.91-0.387 1.302-0.097l0.112 0.097 7.335 7.33c0.355 0.355 0.388 0.911 0.097 1.302l-0.097 0.112-2.667 2.667c-0.355 0.355-0.911 0.387-1.302 0.097l-0.112-0.097-7.333-7.333c-0.355-0.355-0.387-0.911-0.097-1.302l0.097-0.112zM10.332 15.75l-1.251 1.25 5.919 5.919 1.252-1.252-5.92-5.916zM28.373 3.624c0.242 0.242 0.447 0.519 0.608 0.822 0.853 1.61 0.298 3.591-1.231 4.533l-0.196 0.112-1.557 0.824 0.688 0.687c1.63 1.63 1.69 4.235 0.181 5.936l-0.181 0.192-1.643 1.643c-0.355 0.355-0.911 0.387-1.302 0.097l-0.112-0.097-0.626-0.626-1.96 1.959c-0.355 0.355-0.911 0.387-1.302 0.097l-0.112-0.097-7.333-7.333c-0.355-0.355-0.387-0.911-0.097-1.302l0.097-0.112 1.959-1.959-0.626-0.626c-0.355-0.355-0.387-0.911-0.097-1.302l0.097-0.112 1.642-1.641c1.631-1.626 4.233-1.687 5.936-0.18l0.192 0.181 0.685 0.685 0.824-1.556c0.12-0.227 0.265-0.439 0.432-0.634l0.174-0.188c1.342-1.343 3.518-1.344 4.861-0.002zM15.665 10.417l-1.251 1.25 5.919 5.919 1.252-1.252-5.92-5.916zM16.848 6.582l-0.167 0.151-0.934 0.933 8.586 8.586 0.936-0.936c0.904-0.903 0.911-2.363 0.023-3.276l-5.309-5.306c-0.859-0.857-2.218-0.907-3.136-0.152zM24.926 5.040c-0.067 0.067-0.128 0.141-0.181 0.221l-0.073 0.123-1.11 2.098 0.955 0.955 2.099-1.112c0.701-0.371 0.968-1.241 0.597-1.942-0.067-0.127-0.153-0.242-0.254-0.344-0.562-0.561-1.472-0.561-2.033 0.001z"></path>
</svg>
