<!-- Generated by IcoMoon.io -->
<svg version="1.1" xmlns="http://www.w3.org/2000/svg" width="32" height="32" viewBox="0 0 32 32">
<title>clear-formatting</title>
<path d="M23.333 16c4.050 0 7.333 3.283 7.333 7.333s-3.283 7.333-7.333 7.333c-4.050 0-7.333-3.283-7.333-7.333s3.283-7.333 7.333-7.333zM15.085 26.001c0.23 0.712 0.549 1.383 0.945 2.001l-12.363-0.002c-0.552 0-1-0.448-1-1 0-0.506 0.376-0.925 0.864-0.991l0.136-0.009 11.418 0.001zM20.124 19.955l-0.092 0.077-0.077 0.092c-0.157 0.227-0.157 0.531 0 0.758l0.077 0.092 2.359 2.359-2.356 2.356-0.077 0.092c-0.157 0.227-0.157 0.531 0 0.758l0.077 0.092 0.092 0.077c0.227 0.157 0.531 0.157 0.758 0l0.092-0.077 2.356-2.356 2.359 2.359 0.092 0.077c0.227 0.157 0.531 0.157 0.758 0l0.092-0.077 0.077-0.092c0.157-0.227 0.157-0.531 0-0.758l-0.077-0.092-2.359-2.359 2.363-2.359 0.077-0.092c0.157-0.227 0.157-0.531 0-0.758l-0.077-0.092-0.092-0.077c-0.227-0.157-0.531-0.157-0.758 0l-0.092 0.077-2.362 2.359-2.359-2.359-0.092-0.077c-0.195-0.135-0.446-0.154-0.657-0.058l-0.102 0.058zM21 4.667c0.573 0 1.019 0.477 1 1.032l-0.013 0.129-0.327 2c-0.089 0.545-0.603 0.915-1.148 0.826-0.5-0.082-0.852-0.521-0.838-1.013l0.013-0.135 0.137-0.839h-5.147l-2.675 15.333h0.999c0.506 0 0.925 0.376 0.991 0.864l0.009 0.136c0 0.506-0.376 0.925-0.864 0.991l-0.136 0.009h-4c-0.552 0-1-0.448-1-1 0-0.506 0.376-0.925 0.864-0.991l0.136-0.009h0.972l2.675-15.333h-5.467l-0.195 1.165c-0.091 0.545-0.606 0.913-1.151 0.822-0.499-0.083-0.85-0.523-0.835-1.016l0.013-0.135 0.334-2c0.072-0.434 0.418-0.763 0.842-0.825l0.144-0.010h14.667z"></path>
</svg>
