<!-- Generated by IcoMoon.io -->
<svg version="1.1" xmlns="http://www.w3.org/2000/svg" width="32" height="32" viewBox="0 0 32 32">
<title>clear-formatting</title>
<path d="M23.333 16c4.050 0 7.333 3.283 7.333 7.333s-3.283 7.333-7.333 7.333v0c-4.050 0-7.333-3.283-7.333-7.333s3.283-7.333 7.333-7.333v0zM15.085 26c0.229 0.712 0.549 1.384 0.945 2.001l-12.364-0.001c-0.552-0-1-0.448-1-1 0-0.504 0.373-0.921 0.858-0.99l0.005-0.001 0.136-0.009h11.419zM20.124 19.955l-0.093 0.077-0.076 0.093c-0.074 0.106-0.118 0.237-0.118 0.379s0.044 0.273 0.119 0.381l-0.001-0.002 0.077 0.093 2.36 2.359-2.357 2.355-0.076 0.093c-0.074 0.106-0.118 0.237-0.118 0.379s0.044 0.273 0.119 0.381l-0.001-0.002 0.076 0.093 0.093 0.076c0.106 0.074 0.237 0.118 0.379 0.118s0.273-0.044 0.381-0.119l-0.002 0.001 0.093-0.076 2.355-2.356 2.36 2.359 0.092 0.077c0.106 0.074 0.237 0.118 0.379 0.118s0.273-0.044 0.381-0.119l-0.002 0.001 0.093-0.077 0.076-0.093c0.074-0.106 0.118-0.237 0.118-0.379s-0.044-0.273-0.119-0.381l0.001 0.002-0.076-0.093-2.36-2.357 2.363-2.36 0.077-0.092c0.074-0.106 0.118-0.237 0.118-0.379s-0.044-0.273-0.12-0.381l0.001 0.002-0.077-0.092-0.092-0.077c-0.106-0.074-0.237-0.118-0.379-0.118s-0.273 0.044-0.381 0.12l0.002-0.001-0.092 0.077-2.363 2.36-2.36-2.36-0.091-0.077c-0.106-0.074-0.237-0.118-0.379-0.118-0.101 0-0.197 0.022-0.282 0.063l0.004-0.002-0.101 0.057zM21 4.667c0 0 0 0 0 0 0.552 0 1 0.448 1 1 0 0.011-0 0.022-0.001 0.034l0-0.002-0.013 0.129-0.327 2c-0.080 0.479-0.491 0.839-0.987 0.839-0.552 0-1-0.448-1-1 0-0.009 0-0.018 0-0.027l-0 0.001 0.013-0.136 0.136-0.839h-5.147l-2.675 15.333h0.999c0.504 0 0.921 0.373 0.99 0.859l0.001 0.005 0.009 0.136c-0 0.504-0.373 0.921-0.859 0.99l-0.005 0.001-0.136 0.009h-4c-0.552-0-1-0.448-1-1 0-0.504 0.373-0.921 0.858-0.99l0.005-0.001 0.136-0.009h0.972l2.675-15.333h-5.467l-0.195 1.165c-0.079 0.48-0.491 0.841-0.987 0.841-0.552 0-1-0.448-1-1 0-0.013 0-0.025 0.001-0.038l-0 0.002 0.013-0.136 0.335-2c0.074-0.428 0.412-0.76 0.837-0.823l0.005-0.001 0.144-0.011h14.667z"></path>
</svg>
