<!-- Generated by IcoMoon.io -->
<svg version="1.1" xmlns="http://www.w3.org/2000/svg" width="32" height="32" viewBox="0 0 32 32">
<title>clipboard-search</title>
<path d="M21.315 5.333c-0.166-1.5-1.438-2.666-2.982-2.666h-4.667c-1.544 0-2.815 1.166-2.982 2.666l-2.352 0.001c-1.657 0-3 1.343-3 3v5.133c0.621-0.317 1.293-0.549 2-0.679v-4.454c0-0.552 0.448-1 1-1l2.839 0c0.538 0.804 1.455 1.333 2.495 1.333h4.667c1.040 0 1.957-0.529 2.495-1.333l2.839-0c0.552 0 1 0.448 1 1v18c0 0.552-0.448 1-1 1h-5.225c0.299 0.631 0.299 1.369 0 2h5.225c1.657 0 3-1.343 3-3v-18c0-1.657-1.343-3-3-3l-2.352-0.001zM21.326 5.461l0.007 0.205c0-0.069-0.002-0.138-0.007-0.205zM13.667 4.667h4.667c0.552 0 1 0.448 1 1s-0.448 1-1 1h-4.667c-0.552 0-1-0.448-1-1s0.448-1 1-1zM13.267 23.853c0.874-1.042 1.4-2.386 1.4-3.853 0-3.314-2.686-6-6-6s-6 2.686-6 6c0 3.314 2.686 6 6 6 1.123 0 2.174-0.309 3.073-0.846l3.886 3.886c0.391 0.391 1.024 0.391 1.414 0s0.391-1.024 0-1.414l-3.774-3.774zM8.667 24c-2.209 0-4-1.791-4-4s1.791-4 4-4c2.209 0 4 1.791 4 4s-1.791 4-4 4z"></path>
</svg>
