<!-- Generated by IcoMoon.io -->
<svg version="1.1" xmlns="http://www.w3.org/2000/svg" width="32" height="32" viewBox="0 0 32 32">
<title>clipboard-settings-regular</title>
<path d="M18.333 2.667c1.539 0 2.808 1.159 2.98 2.653l0.001 0.014h2.352c1.657 0 3 1.343 3 3v0 6.997c-0.577-0.249-1.25-0.445-1.951-0.556l-0.049-0.006v-6.435c0-0.552-0.448-1-1-1v0h-2.839c-0.539 0.804-1.455 1.333-2.495 1.333h-4.667c-1.040 0-1.956-0.529-2.495-1.333h-2.839c-0.552 0-1 0.448-1 1v0 18c0 0.552 0.448 1 1 1h7.309c0.404 0.765 0.882 1.422 1.44 2.003l-0.003-0.003h-8.747c-1.657 0-3-1.343-3-3v0-18c0-1.657 1.343-3 3-3v0h2.352c0.173-1.507 1.442-2.667 2.981-2.667h4.667zM21.32 5.376c-0.003-0.025-0.005-0.040-0.007-0.055l0.001 0.012 0.004 0.043zM21.327 5.461l0.007 0.205c0-0.075-0.003-0.148-0.008-0.221v0.016zM18.333 4.667h-4.667c-0.552 0-1 0.448-1 1s0.448 1 1 1v0h4.667c0.552 0 1-0.448 1-1s-0.448-1-1-1v0zM19.037 18.635c0.066 0.221 0.105 0.476 0.105 0.739 0 1.245-0.854 2.291-2.007 2.585l-0.018 0.004-0.779 0.192c-0.058 0.355-0.092 0.763-0.092 1.18 0 0.434 0.036 0.86 0.106 1.274l-0.006-0.045 0.72 0.173c1.181 0.291 2.042 1.341 2.042 2.593 0 0.269-0.040 0.528-0.114 0.773l0.005-0.019-0.249 0.843c0.587 0.515 1.253 0.932 1.979 1.229l0.659-0.693c0.487-0.511 1.172-0.829 1.932-0.829s1.446 0.318 1.932 0.829l0.001 0.001 0.664 0.7c0.76-0.313 1.413-0.723 1.985-1.224l-0.008 0.007-0.264-0.915c-0.066-0.221-0.105-0.476-0.105-0.739 0-1.245 0.854-2.291 2.007-2.585l0.018-0.004 0.779-0.192c0.058-0.355 0.092-0.764 0.092-1.18 0-0.434-0.036-0.86-0.106-1.275l0.006 0.045-0.72-0.173c-1.181-0.291-2.042-1.341-2.042-2.593 0-0.269 0.040-0.528 0.114-0.773l-0.005 0.019 0.249-0.84c-0.564-0.499-1.218-0.913-1.932-1.212l-0.046-0.017-0.657 0.691c-0.487 0.512-1.173 0.83-1.933 0.83s-1.447-0.318-1.932-0.829l-0.001-0.001-0.664-0.7c-0.725 0.293-1.392 0.707-1.977 1.216l0.264 0.916zM23.333 25.333c-1.067 0-1.933-0.896-1.933-2s0.867-2 1.933-2c1.067 0 1.933 0.896 1.933 2s-0.867 2-1.933 2z"></path>
</svg>
