<!-- Generated by IcoMoon.io -->
<svg version="1.1" xmlns="http://www.w3.org/2000/svg" width="32" height="32" viewBox="0 0 32 32">
<title>clipboard-heart-regular</title>
<path d="M26.667 8.333v6.643c-0.2-0.024-0.431-0.037-0.666-0.037-0.473 0-0.933 0.055-1.375 0.158l0.041-0.008v-6.756c0-0.552-0.448-1-1-1v0h-2.839c-0.539 0.804-1.455 1.333-2.495 1.333h-4.667c-1.040 0-1.956-0.529-2.495-1.333h-2.839c-0.552 0-1 0.448-1 1v0 18c0 0.552 0.448 1 1 1h9.053l2 2h-11.053c-1.657 0-3-1.343-3-3v0-18c0-1.657 1.343-3 3-3v0h2.352c0.173-1.507 1.442-2.667 2.981-2.667h4.667c1.539 0 2.808 1.159 2.98 2.653l0.001 0.014h2.352c1.657 0 3 1.343 3 3v0zM21.327 5.461l0.007 0.205c0-0.069-0.003-0.137-0.007-0.205zM13.667 4.667c-0.552 0-1 0.448-1 1s0.448 1 1 1v0h4.667c0.552 0 1-0.448 1-1s-0.448-1-1-1v0h-4.667zM21.979 30.040c0.18 0.182 0.43 0.294 0.707 0.294s0.526-0.112 0.707-0.294l5.879-5.877c0.848-0.838 1.372-2.001 1.372-3.287 0-2.553-2.070-4.623-4.623-4.623-1.286 0-2.449 0.525-3.287 1.372l-0.048 0.048-0.048-0.048c-0.841-0.866-2.017-1.404-3.318-1.404-2.553 0-4.623 2.070-4.623 4.623 0 1.302 0.538 2.478 1.404 3.318l0.001 0.001 5.877 5.877z"></path>
</svg>
