<!-- Generated by IcoMoon.io -->
<svg version="1.1" xmlns="http://www.w3.org/2000/svg" width="32" height="32" viewBox="0 0 32 32">
<title>clipboard-text-rtl-regular</title>
<path d="M10.667 12c-0.552 0-1 0.448-1 1s0.448 1 1 1v0h10.667c0.552 0 1-0.448 1-1s-0.448-1-1-1v0h-10.667zM15 18.333c0-0.552 0.448-1 1-1v0h5.333c0.552 0 1 0.448 1 1s-0.448 1-1 1v0h-5.333c-0.552 0-1-0.448-1-1v0zM13.333 22.667c-0.552 0-1 0.448-1 1s0.448 1 1 1v0h8c0.552 0 1-0.448 1-1s-0.448-1-1-1v0h-8z"></path>
<path d="M21.315 5.333c-0.173-1.507-1.442-2.667-2.981-2.667h-4.667c-1.539 0-2.808 1.159-2.98 2.653l-0.001 0.014h-2.352c-1.657 0-3 1.343-3 3v0 18c0 1.657 1.343 3 3 3v0h15.333c1.657 0 3-1.343 3-3v0-18c0-1.657-1.343-3-3-3v0h-2.352zM21.327 5.461l0.007 0.205c0-0.069-0.003-0.137-0.007-0.205zM13.667 8.667h4.667c1.040 0 1.956-0.529 2.495-1.333h2.839c0.552 0 1 0.448 1 1v0 18c0 0.552-0.448 1-1 1v0h-15.333c-0.552 0-1-0.448-1-1v0-18c0-0.552 0.448-1 1-1v0h2.839c0.539 0.804 1.455 1.333 2.495 1.333zM13.667 4.667h4.667c0.552 0 1 0.448 1 1s-0.448 1-1 1v0h-4.667c-0.552 0-1-0.448-1-1s0.448-1 1-1v0z"></path>
</svg>
