<!-- Generated by IcoMoon.io -->
<svg version="1.1" xmlns="http://www.w3.org/2000/svg" width="32" height="32" viewBox="0 0 32 32">
<title>clipboard-more</title>
<path d="M21.315 5.333c-0.173-1.507-1.442-2.667-2.981-2.667h-4.667c-1.539 0-2.808 1.159-2.98 2.653l-0.001 0.014h-2.352c-1.657 0-3 1.343-3 3v0 18c0 1.657 1.343 3 3 3v0h3c-0.416-0.548-0.667-1.243-0.667-1.995 0-0.002 0-0.003 0-0.005v0h-2.333c-0.552 0-1-0.448-1-1v0-18c0-0.552 0.448-1 1-1v0h2.839c0.539 0.804 1.455 1.333 2.495 1.333h4.667c1.040 0 1.956-0.529 2.495-1.333h2.839c0.552 0 1 0.448 1 1v0 17c0.482-0.639 1.177-1.095 1.978-1.263l0.022-0.004v-15.733c0-1.657-1.343-3-3-3v0h-2.352zM21.327 5.461l0.007 0.205c0-0.069-0.003-0.137-0.007-0.205zM13.667 4.667h4.667c0.552 0 1 0.448 1 1s-0.448 1-1 1v0h-4.667c-0.552 0-1-0.448-1-1s0.448-1 1-1v0zM16 27.333c0 1.105-0.895 2-2 2s-2-0.895-2-2v0c0-1.105 0.895-2 2-2s2 0.895 2 2v0zM20.667 29.333c1.105 0 2-0.895 2-2s-0.895-2-2-2v0c-1.105 0-2 0.895-2 2s0.895 2 2 2v0zM27.333 29.333c1.105 0 2-0.895 2-2s-0.895-2-2-2v0c-1.105 0-2 0.895-2 2s0.895 2 2 2v0z"></path>
</svg>
