<!-- Generated by IcoMoon.io -->
<svg version="1.1" xmlns="http://www.w3.org/2000/svg" width="32" height="32" viewBox="0 0 32 32">
<title>clipboard-link</title>
<path d="M21.315 5.333c-0.173-1.507-1.442-2.667-2.981-2.667h-4.667c-1.539 0-2.808 1.159-2.98 2.653l-0.001 0.014h-2.352c-1.657 0-3 1.343-3 3v0 18c0 1.657 1.343 3 3 3v0h6.333c-0.434-0.571-0.784-1.235-1.015-1.953l-0.013-0.047h-5.305c-0.552 0-1-0.448-1-1v0-18c0-0.552 0.448-1 1-1v0h2.839c0.539 0.804 1.455 1.333 2.495 1.333h4.667c1.037 0 1.952-0.527 2.491-1.328h2.512v-0.005h0.331c0.552 0 1 0.448 1 1v0 10.333h2v-10.333c0-1.657-1.343-3-3-3v0h-2.352zM13.667 4.667h4.667c0.552 0 1 0.448 1 1s-0.448 1-1 1v0h-4.667c-0.552 0-1-0.448-1-1s0.448-1 1-1v0zM25.333 20c0 0 0 0 0 0 2.946 0 5.333 2.388 5.333 5.333 0 2.852-2.238 5.181-5.054 5.326l-0.013 0.001-0.267 0.007c-0.552-0-1-0.448-1-1 0-0.504 0.373-0.921 0.858-0.99l0.005-0.001 0.136-0.009c0.002 0 0.005 0 0.008 0 1.841 0 3.333-1.492 3.333-3.333 0-1.767-1.375-3.213-3.113-3.326l-0.010-0.001-0.219-0.007c-0.552-0-1-0.448-1-1 0-0.504 0.373-0.921 0.858-0.99l0.005-0.001 0.136-0.009zM20 20c0.552 0 1 0.448 1 1 0 0.504-0.373 0.921-0.858 0.99l-0.005 0.001-0.136 0.009c-0.002 0-0.005 0-0.008 0-1.841 0-3.333 1.492-3.333 3.333 0 1.767 1.375 3.213 3.113 3.326l0.010 0.001 0.219 0.007c0.552 0 1 0.448 1 1 0 0.504-0.373 0.921-0.858 0.99l-0.005 0.001-0.136 0.009c-0 0-0 0-0 0-2.946 0-5.333-2.388-5.333-5.333 0-2.852 2.238-5.181 5.054-5.326l0.013-0.001 0.267-0.007zM20.333 24.333h4.667c0.552 0 1 0.448 1 1 0 0.504-0.373 0.921-0.858 0.99l-0.005 0.001-0.136 0.009h-4.667c-0.552-0-1-0.448-1-1 0-0.504 0.373-0.921 0.858-0.99l0.005-0.001 0.136-0.009z"></path>
</svg>
