<!-- Generated by IcoMoon.io -->
<svg version="1.1" xmlns="http://www.w3.org/2000/svg" width="32" height="32" viewBox="0 0 32 32">
<title>clipboard-paste-regular</title>
<path d="M17.004 2.667c1.544 0 2.815 1.167 2.979 2.667h2.351c0 0 0 0 0 0 1.585 0 2.882 1.229 2.992 2.785l0.001 0.010 0.007 0.205c-0.001 0.503-0.373 0.92-0.857 0.989l-0.005 0.001-0.139 0.011c-0.503-0.001-0.92-0.373-0.989-0.857l-0.001-0.005-0.009-0.137c-0-0.504-0.373-0.921-0.859-0.99l-0.005-0.001-0.136-0.009h-2.843c-0.545 0.803-1.454 1.324-2.484 1.324-0.001 0-0.002 0-0.003 0h-4.675c-0.001 0-0.002 0-0.004 0-1.030 0-1.938-0.52-2.476-1.312l-0.007-0.010-2.843-0.001c-0.504 0-0.921 0.373-0.99 0.859l-0.001 0.005-0.009 0.136v18.007c0 0.507 0.376 0.924 0.864 0.991l0.136 0.009h4c0 0 0 0 0 0 0.504 0 0.921 0.373 0.99 0.857l0.001 0.005 0.009 0.136c0 0.552-0.448 1-1 1v0h-4c-0 0-0 0-0 0-1.584 0-2.881-1.228-2.992-2.784l-0.001-0.010-0.007-0.205v-18.007c0-0 0-0 0-0 0-1.585 1.229-2.882 2.785-2.992l0.010-0.001 0.205-0.007h2.351c0.171-1.507 1.439-2.667 2.978-2.667 0 0 0.001 0 0.001 0h4.675zM25 10.667c0 0 0 0 0 0 1.585 0 2.882 1.229 2.992 2.785l0.001 0.010 0.007 0.205v12.667c0 0 0 0 0 0 0 1.585-1.229 2.882-2.785 2.992l-0.010 0.001-0.205 0.007h-8.667c-0 0-0 0-0 0-1.585 0-2.882-1.229-2.992-2.785l-0.001-0.010-0.007-0.205v-12.667c0-0 0-0 0-0 0-1.585 1.229-2.882 2.785-2.992l0.010-0.001 0.205-0.007h8.667zM25 12.667h-8.667c-0.504 0-0.921 0.373-0.99 0.859l-0.001 0.005-0.009 0.136v12.667c0 0.507 0.376 0.925 0.864 0.991l0.136 0.009h8.667c0.504-0 0.921-0.373 0.99-0.859l0.001-0.005 0.009-0.136v-12.667c-0-0.504-0.373-0.921-0.859-0.99l-0.005-0.001-0.136-0.009zM17.004 4.667h-4.675c-0.534 0.020-0.96 0.458-0.96 0.995s0.425 0.975 0.958 0.995l0.002 0h4.675c0.011 0 0.024 0.001 0.036 0.001 0.55 0 0.996-0.446 0.996-0.996s-0.446-0.996-0.996-0.996c-0.013 0-0.026 0-0.038 0.001l0.002-0z"></path>
</svg>
