<!-- Generated by IcoMoon.io -->
<svg version="1.1" xmlns="http://www.w3.org/2000/svg" width="32" height="32" viewBox="0 0 32 32">
<title>clipboard-clock</title>
<path d="M16.833 17.327v-2.167c0-0.46-0.373-0.833-0.833-0.833s-0.833 0.373-0.833 0.833v0 3c0 0 0 0 0 0 0 0.46 0.373 0.833 0.833 0.833 0.030 0 0.059-0.002 0.088-0.005l-0.004 0c0.027 0.003 0.053 0.004 0.083 0.004h1.667c0.46 0 0.833-0.373 0.833-0.833s-0.373-0.833-0.833-0.833v0h-1zM9.667 17.333c0-3.498 2.836-6.333 6.333-6.333s6.333 2.836 6.333 6.333v0c0 3.498-2.836 6.333-6.333 6.333s-6.333-2.836-6.333-6.333v0zM16 12.667c-2.577 0-4.667 2.089-4.667 4.667s2.089 4.667 4.667 4.667v0c2.577 0 4.667-2.089 4.667-4.667s-2.089-4.667-4.667-4.667v0zM21.325 5.445c-0.119-1.559-1.413-2.779-2.992-2.779-0 0-0 0-0 0h-4.667c-1.539 0-2.808 1.159-2.98 2.653l-0.001 0.014h-2.352c-1.657 0-3 1.343-3 3v0 18c0 1.657 1.343 3 3 3v0h15.333c1.657 0 3-1.343 3-3v0-18c0-1.657-1.343-3-3-3v0h-2.352l0.011 0.112zM21.325 5.461l0.008 0.205c0-0.069-0.003-0.137-0.007-0.205zM13.667 8.667h4.667c1.040 0 1.956-0.529 2.495-1.333h2.839c0.552 0 1 0.448 1 1v0 18c0 0.552-0.448 1-1 1v0h-15.333c-0.552 0-1-0.448-1-1v0-18c0-0.552 0.448-1 1-1v0h2.839c0.539 0.804 1.455 1.333 2.495 1.333zM13.667 4.667h4.667c0.552 0 1 0.448 1 1s-0.448 1-1 1v0h-4.667c-0.552 0-1-0.448-1-1s0.448-1 1-1v0z"></path>
</svg>
