<!-- Generated by IcoMoon.io -->
<svg version="1.1" xmlns="http://www.w3.org/2000/svg" width="32" height="32" viewBox="0 0 32 32">
<title>clipboard-pulse-regular</title>
<path d="M18.333 2.667c1.539 0 2.808 1.159 2.98 2.653l0.001 0.014h2.352c1.657 0 3 1.343 3 3v0 9h-2v-9c0-0.552-0.448-1-1-1v0h-2.839c-0.539 0.804-1.455 1.333-2.495 1.333h-4.667c-1.040 0-1.956-0.529-2.495-1.333h-2.839c-0.552 0-1 0.448-1 1v0 9h-2v-9c0-1.657 1.343-3 3-3v0h2.352c0.173-1.507 1.442-2.667 2.981-2.667h4.667zM21.327 5.461l0.007 0.205c0-0.069-0.003-0.137-0.007-0.205zM18.333 4.667h-4.667c-0.552 0-1 0.448-1 1s0.448 1 1 1v0h4.667c0.552 0 1-0.448 1-1s-0.448-1-1-1v0zM24.667 22h2v4.333c0 1.657-1.343 3-3 3v0h-15.333c-1.657 0-3-1.343-3-3v0-4.333h2v4.333c0 0.552 0.448 1 1 1h15.333c0.552 0 1-0.448 1-1v0-4.333zM14.627 11.384c-0.126-0.418-0.508-0.717-0.959-0.717-0.389 0-0.726 0.222-0.892 0.547l-0.003 0.006-3.727 7.447h-5.38c-0.552 0-1 0.448-1 1s0.448 1 1 1v0h6c0.389-0.001 0.726-0.223 0.891-0.548l0.003-0.006 2.864-5.727 2.617 8.896c0.126 0.418 0.508 0.717 0.959 0.717 0.389 0 0.726-0.222 0.892-0.547l0.003-0.006 2.519-5.037 1.063 1.772c0.178 0.293 0.495 0.485 0.857 0.485h6c0.552 0 1-0.448 1-1s-0.448-1-1-1v0h-5.433l-1.709-2.848c-0.178-0.293-0.495-0.486-0.858-0.486-0.389 0-0.726 0.222-0.892 0.547l-0.003 0.006-2.196 4.395-2.617-8.896z"></path>
</svg>
