<!-- Generated by IcoMoon.io -->
<svg version="1.1" xmlns="http://www.w3.org/2000/svg" width="32" height="32" viewBox="0 0 32 32">
<title>clipboard-task-list-ltr</title>
<path d="M16.667 13.667c0-0.552 0.448-1 1-1v0h4.667c0.552 0 1 0.448 1 1s-0.448 1-1 1v0h-4.667c-0.552 0-1-0.448-1-1v0zM17.667 20c-0.552 0-1 0.448-1 1s0.448 1 1 1v0h4.667c0.552 0 1-0.448 1-1s-0.448-1-1-1v0h-4.667zM14.373 13.040c0.196-0.183 0.318-0.443 0.318-0.732 0-0.552-0.448-1-1-1-0.289 0-0.549 0.122-0.731 0.318l-0.001 0.001-1.96 1.96-0.627-0.627c-0.178-0.166-0.418-0.268-0.682-0.268-0.552 0-1 0.448-1 1 0 0.264 0.102 0.504 0.269 0.682l-0.001-0.001 1.333 1.333c0.181 0.181 0.431 0.292 0.707 0.292s0.526-0.112 0.707-0.292v0l2.667-2.667zM14.373 18.96c0.181 0.181 0.292 0.431 0.292 0.707s-0.112 0.526-0.292 0.707v0l-2.667 2.667c-0.181 0.181-0.431 0.292-0.707 0.292s-0.526-0.112-0.707-0.292v0l-1.333-1.333c-0.196-0.183-0.318-0.443-0.318-0.732 0-0.552 0.448-1 1-1 0.289 0 0.549 0.122 0.731 0.318l0.001 0.001 0.627 0.627 1.96-1.96c0.181-0.181 0.431-0.292 0.707-0.292s0.526 0.112 0.707 0.292v0zM21.325 5.445c-0.119-1.559-1.413-2.779-2.992-2.779-0 0-0 0-0 0h-4.667c-1.539 0-2.808 1.159-2.98 2.653l-0.001 0.014h-2.352c-1.657 0-3 1.343-3 3v0 18c0 1.657 1.343 3 3 3v0h15.333c1.657 0 3-1.343 3-3v0-18c0-1.657-1.343-3-3-3v0h-2.352l0.011 0.112zM21.325 5.461l0.008 0.205c0-0.069-0.003-0.137-0.007-0.205zM13.667 8.667h4.667c1.040 0 1.956-0.529 2.495-1.333h2.839c0.552 0 1 0.448 1 1v0 18c0 0.552-0.448 1-1 1v0h-15.333c-0.552 0-1-0.448-1-1v0-18c0-0.552 0.448-1 1-1v0h2.839c0.539 0.804 1.455 1.333 2.495 1.333zM13.667 4.667h4.667c0.552 0 1 0.448 1 1s-0.448 1-1 1v0h-4.667c-0.552 0-1-0.448-1-1s0.448-1 1-1v0z"></path>
</svg>
