<!-- Generated by IcoMoon.io -->
<svg version="1.1" xmlns="http://www.w3.org/2000/svg" width="32" height="32" viewBox="0 0 32 32">
<title>clipboard-letter</title>
<path d="M18.333 2.667c1.545 0 2.816 1.167 2.982 2.668l-0-0.002 2.352 0.001c1.657 0 3 1.343 3 3v11.029l-2-4.437v-6.592c0-0.552-0.448-1-1-1l-2.839 0c-0.538 0.804-1.455 1.333-2.495 1.333h-4.667c-1.040 0-1.956-0.529-2.495-1.333l-2.839-0c-0.552 0-1 0.448-1 1v18c0 0.552 0.448 1 1 1h6.734l-0.231 0.513c-0.22 0.489-0.227 1.019-0.062 1.487h-6.442c-1.657 0-3-1.343-3-3v-18c0-1.657 1.343-3 3-3l2.352-0.001c0.166-1.5 1.438-2.666 2.982-2.666h4.667zM21.326 5.461l0.007 0.205c0-0.069-0.002-0.138-0.007-0.205zM18.333 4.667h-4.667c-0.552 0-1 0.448-1 1s0.448 1 1 1h4.667c0.552 0 1-0.448 1-1s-0.448-1-1-1z"></path>
<path d="M23.264 15.059c-0.108-0.239-0.346-0.393-0.608-0.393s-0.5 0.154-0.608 0.393l-3.592 7.987c-0.004 0.009-0.008 0.018-0.012 0.027l-2.392 5.319c-0.151 0.336-0.001 0.731 0.335 0.881s0.73 0.001 0.881-0.335l2.222-4.94h6.342l2.227 4.941c0.151 0.336 0.546 0.485 0.882 0.334s0.485-0.546 0.334-0.882l-2.398-5.319c-0.004-0.009-0.008-0.018-0.012-0.027l-3.6-7.987zM25.231 22.667h-5.141l2.567-5.709 2.574 5.709z"></path>
</svg>
