<!-- Generated by IcoMoon.io -->
<svg version="1.1" xmlns="http://www.w3.org/2000/svg" width="32" height="32" viewBox="0 0 32 32">
<title>clipboard-search-regular</title>
<path d="M21.315 5.333c-0.173-1.507-1.442-2.667-2.981-2.667h-4.667c-1.539 0-2.808 1.159-2.98 2.653l-0.001 0.014h-2.352c-1.657 0-3 1.343-3 3v0 5.133c0.578-0.303 1.248-0.539 1.955-0.673l0.045-0.007v-4.453c0-0.552 0.448-1 1-1v0h2.839c0.539 0.804 1.455 1.333 2.495 1.333h4.667c1.040 0 1.956-0.529 2.495-1.333h2.839c0.552 0 1 0.448 1 1v0 18c0 0.552-0.448 1-1 1v0h-5.224c0.142 0.293 0.224 0.637 0.224 1s-0.083 0.707-0.231 1.014l0.006-0.014h5.224c1.657 0 3-1.343 3-3v0-18c0-1.657-1.343-3-3-3v0h-2.352zM21.327 5.461l0.007 0.205c0-0.069-0.003-0.137-0.007-0.205zM13.667 4.667h4.667c0.552 0 1 0.448 1 1s-0.448 1-1 1v0h-4.667c-0.552 0-1-0.448-1-1s0.448-1 1-1v0zM13.267 23.853c0.87-1.034 1.399-2.381 1.399-3.851 0-3.314-2.686-6-6-6s-6 2.686-6 6c0 3.314 2.686 6 6 6 1.135 0 2.196-0.315 3.101-0.862l-0.027 0.015 3.887 3.885c0.183 0.196 0.443 0.318 0.732 0.318 0.552 0 1-0.448 1-1 0-0.289-0.122-0.549-0.318-0.731l-0.001-0.001-3.773-3.773zM8.667 24c-2.209 0-4-1.791-4-4s1.791-4 4-4v0c2.209 0 4 1.791 4 4s-1.791 4-4 4v0z"></path>
</svg>
