<!-- Generated by IcoMoon.io -->
<svg version="1.1" xmlns="http://www.w3.org/2000/svg" width="32" height="32" viewBox="0 0 32 32">
<title>clipboard-pulse</title>
<path d="M18.333 2.667c1.545 0 2.817 1.167 2.982 2.668-0-0.001-0-0.001-0-0.002l2.352 0.001c1.657 0 3 1.343 3 3v9h-2v-9c0-0.552-0.448-1-1-1l-2.839 0c-0.538 0.804-1.455 1.333-2.495 1.333h-4.667c-1.040 0-1.956-0.529-2.495-1.333l-2.839-0c-0.552 0-1 0.448-1 1v9h-2v-9c0-1.657 1.343-3 3-3l2.352-0.001c0.166-1.5 1.438-2.666 2.982-2.666h4.667zM21.326 5.461l0.007 0.205c0-0.069-0.002-0.138-0.007-0.205zM18.333 4.667h-4.667c-0.552 0-1 0.448-1 1s0.448 1 1 1h4.667c0.552 0 1-0.448 1-1s-0.448-1-1-1zM24.667 22h2v4.333c0 1.657-1.343 3-3 3h-15.333c-1.657 0-3-1.343-3-3v-4.333h2v4.333c0 0.552 0.448 1 1 1h15.333c0.552 0 1-0.448 1-1v-4.333zM14.626 11.384c-0.116-0.394-0.461-0.677-0.871-0.714s-0.799 0.181-0.983 0.549l-3.724 7.447h-5.382c-0.552 0-1 0.448-1 1s0.448 1 1 1h6c0.379 0 0.725-0.214 0.894-0.553l2.863-5.727 2.616 8.895c0.116 0.394 0.461 0.677 0.871 0.714s0.799-0.181 0.983-0.549l2.519-5.037 1.063 1.771c0.181 0.301 0.506 0.485 0.857 0.485h6c0.552 0 1-0.448 1-1s-0.448-1-1-1h-5.434l-1.709-2.848c-0.188-0.313-0.531-0.499-0.896-0.485s-0.693 0.226-0.856 0.552l-2.197 4.393-2.616-8.895z"></path>
</svg>
