<!-- Generated by IcoMoon.io -->
<svg version="1.1" xmlns="http://www.w3.org/2000/svg" width="32" height="32" viewBox="0 0 32 32">
<title>clipboard-day-regular</title>
<path d="M10.667 13c0-0.552 0.448-1 1-1v0h8.667c0.552 0 1 0.448 1 1s-0.448 1-1 1v0h-8.667c-0.552 0-1-0.448-1-1v0zM13 16c-1.289 0-2.333 1.045-2.333 2.333v0 3.333c0 1.288 1.045 2.333 2.333 2.333h6c1.289 0 2.333-1.045 2.333-2.333v0-3.333c0-1.289-1.045-2.333-2.333-2.333v0h-6zM12.667 18.333c0-0.184 0.149-0.333 0.333-0.333v0h6c0.184 0 0.333 0.149 0.333 0.333v0 3.333c0 0.184-0.149 0.333-0.333 0.333v0h-6c-0.184 0-0.333-0.149-0.333-0.333v0-3.333zM18.333 2.667c1.54 0 2.809 1.161 2.98 2.656l0.001 0.014v-0.003h2.352c1.657 0 3 1.343 3 3v0 18c0 1.657-1.343 3-3 3v0h-15.333c-1.657 0-3-1.343-3-3v0-18c0-1.657 1.343-3 3-3v0h2.352c0.173-1.507 1.442-2.667 2.981-2.667h4.667zM21.327 5.461l0.007 0.205c0-0.069-0.003-0.137-0.007-0.205zM18.333 8.667h-4.667c-1.040 0-1.956-0.529-2.495-1.333h-2.839c-0.552 0-1 0.448-1 1v0 18c0 0.552 0.448 1 1 1h15.333c0.552 0 1-0.448 1-1v0-18c0-0.552-0.448-1-1-1v0h-2.839c-0.539 0.804-1.455 1.333-2.495 1.333zM18.333 4.667h-4.667c-0.552 0-1 0.448-1 1s0.448 1 1 1v0h4.667c0.552 0 1-0.448 1-1s-0.448-1-1-1v0z"></path>
</svg>
