<!-- Generated by IcoMoon.io -->
<svg version="1.1" xmlns="http://www.w3.org/2000/svg" width="32" height="32" viewBox="0 0 32 32">
<title>clipboard-text-edit-regular</title>
<path d="M19 2c1.306 0 2.418 0.835 2.83 2h1.67c1.933 0 3.5 1.567 3.5 3.5v0 6.542c-0.763 0.111-1.441 0.404-2.011 0.835l0.011-0.008v-7.369c0-0.828-0.672-1.5-1.5-1.5v0h-1.67c-0.425 1.175-1.531 2-2.829 2-0 0-0.001 0-0.001 0h-6c-0 0-0.001 0-0.001 0-1.299 0-2.405-0.825-2.823-1.979l-0.007-0.021h-1.67c-0.828 0-1.5 0.672-1.5 1.5v0 19c0 0.828 0.672 1.5 1.5 1.5v0h5.804l-0.226 0.871c-0.052 0.19-0.082 0.408-0.082 0.633 0 0.175 0.018 0.347 0.053 0.512l-0.003-0.016h-5.546c-1.933 0-3.5-1.567-3.5-3.5v0-19c0-1.933 1.567-3.5 3.5-3.5v0h1.67c0.425-1.175 1.531-2 2.829-2 0 0 0.001 0 0.001 0h6zM13 4c-0.552 0-1 0.448-1 1s0.448 1 1 1v0h6c0.552 0 1-0.448 1-1s-0.448-1-1-1v0h-6zM17.86 22l-1.918 1.934c-0.021 0.021-0.042 0.043-0.062 0.064l-0.002 0.002h-4.878c-0.552 0-1-0.448-1-1s0.448-1 1-1v0h6.86zM10 13c0-0.552 0.448-1 1-1v0h10c0.552 0 1 0.448 1 1s-0.448 1-1 1v0h-10c-0.552 0-1-0.448-1-1v0zM11 17c-0.552 0-1 0.448-1 1s0.448 1 1 1v0h5c0.552 0 1-0.448 1-1s-0.448-1-1-1v0h-5zM29.652 20.425l-8.613 8.543c-0.352 0.349-0.79 0.598-1.27 0.721l-3.020 0.778c-0.075 0.020-0.161 0.032-0.25 0.032-0.552 0-1-0.448-1-1 0-0.090 0.012-0.176 0.034-0.259l-0.002 0.007 0.79-3.051c0.118-0.456 0.355-0.872 0.687-1.206l8.57-8.64c0.521-0.521 1.242-0.844 2.037-0.844 1.591 0 2.881 1.29 2.881 2.881 0 0.796-0.323 1.516-0.844 2.038v0z"></path>
</svg>
