<!-- Generated by IcoMoon.io -->
<svg version="1.1" xmlns="http://www.w3.org/2000/svg" width="32" height="32" viewBox="0 0 32 32">
<title>clipboard-month-regular</title>
<path d="M11 16.667c0.92 0 1.667-0.746 1.667-1.667s-0.746-1.667-1.667-1.667v0c-0.92 0-1.667 0.746-1.667 1.667s0.746 1.667 1.667 1.667v0zM11 22c0.92 0 1.667-0.746 1.667-1.667s-0.746-1.667-1.667-1.667v0c-0.92 0-1.667 0.746-1.667 1.667s0.746 1.667 1.667 1.667v0zM23.333 15c0 0.92-0.746 1.667-1.667 1.667s-1.667-0.746-1.667-1.667v0c0-0.92 0.746-1.667 1.667-1.667s1.667 0.746 1.667 1.667v0zM16.333 16.667c0.92 0 1.667-0.746 1.667-1.667s-0.746-1.667-1.667-1.667v0c-0.92 0-1.667 0.746-1.667 1.667s0.746 1.667 1.667 1.667v0zM18 20.333c0 0.92-0.746 1.667-1.667 1.667s-1.667-0.746-1.667-1.667v0c0-0.92 0.746-1.667 1.667-1.667s1.667 0.746 1.667 1.667v0zM21.325 5.445c-0.119-1.559-1.413-2.779-2.992-2.779-0 0-0 0-0 0h-4.667c-1.539 0-2.808 1.159-2.98 2.653l-0.001 0.014h-2.352c-1.657 0-3 1.343-3 3v0 18c0 1.657 1.343 3 3 3v0h15.333c1.657 0 3-1.343 3-3v0-18c0-1.657-1.343-3-3-3v0h-2.352l0.011 0.112zM21.325 5.461l0.008 0.205c0-0.069-0.003-0.137-0.007-0.205zM13.667 8.667h4.667c1.040 0 1.956-0.529 2.495-1.333h2.839c0.552 0 1 0.448 1 1v0 18c0 0.552-0.448 1-1 1v0h-15.333c-0.552 0-1-0.448-1-1v0-18c0-0.552 0.448-1 1-1v0h2.839c0.539 0.804 1.455 1.333 2.495 1.333zM13.667 4.667h4.667c0.552 0 1 0.448 1 1s-0.448 1-1 1v0h-4.667c-0.552 0-1-0.448-1-1s0.448-1 1-1v0z"></path>
</svg>
