<!-- Generated by IcoMoon.io -->
<svg version="1.1" xmlns="http://www.w3.org/2000/svg" width="32" height="32" viewBox="0 0 32 32">
<title>clipboard-task-list-ltr</title>
<path d="M16.667 13.667c0-0.552 0.448-1 1-1h4.667c0.552 0 1 0.448 1 1s-0.448 1-1 1h-4.667c-0.552 0-1-0.448-1-1zM17.667 20c-0.552 0-1 0.448-1 1s0.448 1 1 1h4.666c0.552 0 1-0.448 1-1s-0.448-1-1-1h-4.666zM14.374 13.040c0.391-0.391 0.391-1.024 0-1.414s-1.024-0.391-1.414 0l-1.96 1.96-0.626-0.626c-0.391-0.391-1.024-0.391-1.414 0s-0.391 1.024 0 1.414l1.333 1.333c0.391 0.391 1.024 0.391 1.414 0l2.667-2.667zM14.374 18.96c0.391 0.391 0.391 1.024 0 1.414l-2.667 2.667c-0.391 0.391-1.024 0.391-1.414 0l-1.333-1.333c-0.391-0.391-0.391-1.024 0-1.414s1.024-0.391 1.414 0l0.626 0.626 1.96-1.959c0.391-0.391 1.024-0.391 1.414 0zM21.325 5.446c-0.113-1.554-1.409-2.779-2.992-2.779h-4.667c-1.544 0-2.815 1.166-2.982 2.666l-2.352 0.001c-1.657 0-3 1.343-3 3v18c0 1.657 1.343 3 3 3h15.333c1.657 0 3-1.343 3-3v-18c0-1.657-1.343-3-3-3l-2.352-0.001c0.004 0.038 0.008 0.075 0.010 0.113zM21.326 5.461l0.007 0.205c0-0.069-0.002-0.138-0.007-0.205zM13.667 8.667h4.667c1.040 0 1.957-0.529 2.495-1.333l2.839-0c0.552 0 1 0.448 1 1v18c0 0.552-0.448 1-1 1h-15.333c-0.552 0-1-0.448-1-1v-18c0-0.552 0.448-1 1-1l2.839 0c0.538 0.804 1.455 1.333 2.495 1.333zM13.667 4.667h4.667c0.552 0 1 0.448 1 1s-0.448 1-1 1h-4.667c-0.552 0-1-0.448-1-1s0.448-1 1-1z"></path>
</svg>
