<!-- Generated by IcoMoon.io -->
<svg version="1.1" xmlns="http://www.w3.org/2000/svg" width="32" height="32" viewBox="0 0 32 32">
<title>clipboard-code</title>
<path d="M18.333 2.667c1.545 0 2.817 1.168 2.982 2.669-0-0.001-0-0.002-0-0.004l2.352 0.001c1.657 0 3 1.343 3 3v9.948c-0.022-0.989-0.676-1.892-1.675-2.186-0.108-0.032-0.217-0.055-0.325-0.071v-7.69c0-0.552-0.448-1-1-1l-2.839 0c-0.538 0.804-1.455 1.333-2.495 1.333h-4.667c-1.040 0-1.956-0.529-2.495-1.333l-2.839-0c-0.552 0-1 0.448-1 1v18c0 0.552 0.448 1 1 1h7.174l1.082 1.217c0.457 0.514 1.091 0.779 1.729 0.783h-9.985c-1.657 0-3-1.343-3-3v-18c0-1.657 1.343-3 3-3l2.352-0.001c0.166-1.5 1.438-2.666 2.982-2.666h4.667zM21.326 5.461l0.007 0.205c0-0.069-0.002-0.138-0.007-0.205zM18.333 4.667h-4.667c-0.552 0-1 0.448-1 1s0.448 1 1 1h4.667c0.552 0 1-0.448 1-1s-0.448-1-1-1z"></path>
<path d="M25.333 18.333c0 0.093-0.013 0.188-0.041 0.282l-3.333 11.333c-0.156 0.53-0.712 0.833-1.242 0.677s-0.833-0.712-0.677-1.242l3.333-11.333c0.156-0.53 0.712-0.833 1.242-0.677 0.063 0.019 0.124 0.043 0.18 0.072 0.145 0.076 0.267 0.184 0.357 0.314 0.116 0.166 0.181 0.366 0.181 0.573z"></path>
<path d="M14.919 24.664c-0.337-0.379-0.337-0.95 0-1.329l2.667-3c0.367-0.413 0.999-0.45 1.412-0.083s0.45 0.999 0.083 1.412l-2.076 2.336 2.076 2.336c0.367 0.413 0.33 1.045-0.083 1.412-0.191 0.169-0.428 0.253-0.664 0.253-0.276 0-0.55-0.113-0.747-0.336l-2.667-3z"></path>
<path d="M26.336 27.747c-0.413-0.367-0.45-0.999-0.083-1.412l2.076-2.336-2.076-2.336c-0.367-0.413-0.33-1.045 0.083-1.412s1.045-0.33 1.412 0.083l2.667 3c0.337 0.379 0.337 0.95 0 1.329l-2.667 3c-0.367 0.413-0.999 0.45-1.412 0.083z"></path>
</svg>
