<!-- Generated by IcoMoon.io -->
<svg version="1.1" xmlns="http://www.w3.org/2000/svg" width="32" height="32" viewBox="0 0 32 32">
<title>clipboard-image</title>
<path d="M18.338 2.667c1.543 0 2.814 1.167 2.978 2.666l2.351 0.001c1.588 0 2.887 1.234 2.993 2.795l0.007 0.205v1.997c0 0.552-0.448 1-1 1-0.506 0-0.925-0.376-0.991-0.864l-0.009-0.136v-1.997c0-0.506-0.376-0.925-0.864-0.991l-0.136-0.009-2.842-0c-0.538 0.799-1.451 1.325-2.487 1.325h-4.675c-1.036 0-1.949-0.526-2.487-1.325l-2.842 0c-0.506 0-0.925 0.376-0.991 0.864l-0.009 0.136v18.006c0 0.506 0.376 0.925 0.864 0.991l0.136 0.009h2.006c0.552 0 1 0.448 1 1 0 0.506-0.376 0.925-0.864 0.991l-0.136 0.009h-2.006c-1.588 0-2.888-1.234-2.993-2.795l-0.007-0.205v-18.006c0-1.588 1.234-2.888 2.795-2.993l0.205-0.007 2.351-0.001c0.164-1.499 1.435-2.666 2.978-2.666h4.675zM25 13.333c2.393 0 4.333 1.94 4.333 4.333v7.333c0 2.393-1.94 4.333-4.333 4.333h-7.333c-2.393 0-4.333-1.94-4.333-4.333v-7.333c0-2.393 1.94-4.333 4.333-4.333h7.333zM25.782 27.199l-3.742-3.744c-0.355-0.355-0.911-0.387-1.302-0.097l-0.112 0.097-3.743 3.744c0.245 0.087 0.509 0.135 0.783 0.135h7.333c0.274 0 0.538-0.047 0.782-0.134v0zM25 15.333h-7.333c-1.289 0-2.333 1.045-2.333 2.333v7.333c0 0.275 0.047 0.539 0.135 0.783l3.744-3.743c1.116-1.116 2.892-1.169 4.071-0.159l0.172 0.159 3.744 3.743c0.087-0.245 0.135-0.509 0.135-0.783v-7.333c0-1.289-1.045-2.333-2.333-2.333zM24 17.336c0.736 0 1.333 0.597 1.333 1.333s-0.597 1.333-1.333 1.333c-0.736 0-1.333-0.597-1.333-1.333s0.597-1.333 1.333-1.333zM18.338 4.667h-4.675c-0.55 0-0.996 0.446-0.996 0.996s0.446 0.996 0.996 0.996h4.675c0.55 0 0.996-0.446 0.996-0.996s-0.446-0.996-0.996-0.996z"></path>
</svg>
