<!-- Generated by IcoMoon.io -->
<svg version="1.1" xmlns="http://www.w3.org/2000/svg" width="32" height="32" viewBox="0 0 32 32">
<title>clipboard-link</title>
<path d="M21.315 5.333c-0.166-1.5-1.438-2.666-2.982-2.666h-4.667c-1.544 0-2.815 1.166-2.982 2.666l-2.352 0.001c-1.657 0-3 1.343-3 3v18c0 1.657 1.343 3 3 3h6.333c-0.448-0.597-0.799-1.271-1.028-2h-5.305c-0.552 0-1-0.448-1-1v-18c0-0.552 0.448-1 1-1l2.839 0c0.538 0.804 1.455 1.333 2.495 1.333h4.667c1.038 0 1.953-0.527 2.491-1.328h2.512v-0.005l0.33-0c0.552 0 1 0.448 1 1v10.333h2v-10.333c0-1.657-1.343-3-3-3l-2.352-0.001zM13.667 4.667h4.667c0.552 0 1 0.448 1 1s-0.448 1-1 1h-4.667c-0.552 0-1-0.448-1-1s0.448-1 1-1z"></path>
<path d="M25.333 20c2.945 0 5.333 2.388 5.333 5.333 0 2.856-2.245 5.188-5.067 5.327l-0.266 0.007c-0.552 0-1-0.448-1-1 0-0.506 0.376-0.925 0.864-0.991l0.136-0.009c1.841 0 3.333-1.492 3.333-3.333 0-1.767-1.375-3.213-3.114-3.326l-0.219-0.007c-0.552 0-1-0.448-1-1 0-0.506 0.376-0.925 0.864-0.991l0.136-0.009z"></path>
<path d="M20 20c0.552 0 1 0.448 1 1 0 0.506-0.376 0.925-0.864 0.991l-0.136 0.009c-1.841 0-3.333 1.492-3.333 3.333 0 1.767 1.375 3.213 3.114 3.326l0.219 0.007c0.552 0 1 0.448 1 1 0 0.506-0.376 0.925-0.864 0.991l-0.136 0.009c-2.945 0-5.333-2.388-5.333-5.333 0-2.856 2.245-5.188 5.067-5.327l0.266-0.007z"></path>
<path d="M20.333 24.333h4.667c0.552 0 1 0.448 1 1 0 0.506-0.376 0.925-0.864 0.991l-0.136 0.009h-4.667c-0.552 0-1-0.448-1-1 0-0.506 0.376-0.925 0.864-0.991l0.136-0.009z"></path>
</svg>
