<!-- Generated by IcoMoon.io -->
<svg version="1.1" xmlns="http://www.w3.org/2000/svg" width="32" height="32" viewBox="0 0 32 32">
<title>clipboard-task-add</title>
<path d="M18.648 5.333c-0.166-1.5-1.438-2.666-2.982-2.666h-4.667c-1.544 0-2.815 1.166-2.982 2.666l-2.352 0.001c-1.657 0-3 1.343-3 3v18c0 1.657 1.343 3 3 3h11.413c-0.569-0.592-1.054-1.265-1.437-2h-9.976c-0.552 0-1-0.448-1-1v-18c0-0.552 0.448-1 1-1l2.839 0c0.538 0.804 1.455 1.333 2.495 1.333h4.667c1.040 0 1.956-0.529 2.495-1.333l2.839-0c0.552 0 1 0.448 1 1v6.435c0.435-0.067 0.88-0.102 1.333-0.102 0.224 0 0.447 0.009 0.667 0.025v-6.359c0-1.657-1.343-3-3-3l-2.352-0.001zM18.66 5.461l0.007 0.205c0-0.069-0.002-0.138-0.007-0.205zM11 4.667h4.667c0.552 0 1 0.448 1 1s-0.448 1-1 1h-4.667c-0.552 0-1-0.448-1-1s0.448-1 1-1zM15.942 18.805c0.715-1.165 1.698-2.148 2.863-2.863l1.235-1.235c0.391-0.391 0.391-1.024 0-1.414s-1.024-0.391-1.414 0l-6.626 6.626-2.626-2.626c-0.391-0.391-1.024-0.391-1.414 0s-0.391 1.024 0 1.414l3.333 3.333c0.391 0.391 1.024 0.391 1.414 0l3.235-3.235zM30.667 23.333c0-4.050-3.283-7.333-7.333-7.333s-7.333 3.283-7.333 7.333c0 4.050 3.283 7.333 7.333 7.333s7.333-3.283 7.333-7.333zM24.001 24l0.001 3.338c0 0.368-0.298 0.667-0.667 0.667s-0.667-0.298-0.667-0.667l-0.001-3.338h-3.34c-0.368 0-0.666-0.298-0.666-0.667s0.298-0.667 0.666-0.667h3.34l-0.001-3.334c0-0.368 0.299-0.667 0.667-0.667s0.667 0.298 0.667 0.667l0.001 3.334h3.328c0.368 0 0.666 0.299 0.666 0.667s-0.298 0.667-0.666 0.667h-3.328z"></path>
</svg>
