<!-- Generated by IcoMoon.io -->
<svg version="1.1" xmlns="http://www.w3.org/2000/svg" width="32" height="32" viewBox="0 0 32 32">
<title>clipboard-more</title>
<path d="M18.333 2.667c1.544 0 2.815 1.166 2.982 2.666l2.352 0.001c1.657 0 3 1.343 3 3v16.333c-0.252 0.19-0.477 0.414-0.667 0.667-0.344-0.458-0.803-0.824-1.333-1.056v-15.944c0-0.552-0.448-1-1-1l-2.839 0c-0.538 0.804-1.455 1.333-2.495 1.333h-4.667c-1.040 0-1.956-0.529-2.495-1.333l-2.839-0c-0.552 0-1 0.448-1 1v18c0 0.552 0.448 1 1 1h6.333c0 0.75 0.248 1.443 0.666 2h-7c-1.657 0-3-1.343-3-3v-18c0-1.657 1.343-3 3-3l2.352-0.001c0.166-1.5 1.438-2.666 2.982-2.666h4.667zM21.326 5.461l0.007 0.205c0-0.069-0.002-0.138-0.007-0.205zM18.333 4.667h-4.667c-0.552 0-1 0.448-1 1s0.448 1 1 1h4.667c0.552 0 1-0.448 1-1s-0.448-1-1-1z"></path>
<path d="M23.333 29.333c-1.105 0-2-0.895-2-2s0.895-2 2-2c0.512 0 0.979 0.193 1.333 0.509 0.409 0.366 0.667 0.898 0.667 1.491 0 1.105-0.895 2-2 2z"></path>
<path d="M18 29.333c-1.105 0-2-0.895-2-2s0.895-2 2-2c1.105 0 2 0.895 2 2s-0.895 2-2 2z"></path>
<path d="M28.667 29.333c1.105 0 2-0.895 2-2s-0.895-2-2-2c-1.105 0-2 0.895-2 2s0.895 2 2 2z"></path>
</svg>
