<!-- Generated by IcoMoon.io -->
<svg version="1.1" xmlns="http://www.w3.org/2000/svg" width="32" height="32" viewBox="0 0 32 32">
<title>clipboard-letter-regular</title>
<path d="M18.333 2.667c1.539 0 2.808 1.159 2.98 2.653l0.001 0.014h2.352c1.657 0 3 1.343 3 3v0 11.029l-2-4.437v-6.592c0-0.552-0.448-1-1-1v0h-2.839c-0.539 0.804-1.455 1.333-2.495 1.333h-4.667c-1.040 0-1.956-0.529-2.495-1.333h-2.839c-0.552 0-1 0.448-1 1v0 18c0 0.552 0.448 1 1 1h6.733l-0.231 0.513c-0.111 0.241-0.176 0.523-0.176 0.82 0 0.239 0.042 0.468 0.119 0.681l-0.004-0.014h-6.441c-1.657 0-3-1.343-3-3v0-18c0-1.657 1.343-3 3-3v0h2.352c0.173-1.507 1.442-2.667 2.981-2.667h4.667zM21.327 5.461l0.007 0.205c0-0.069-0.003-0.137-0.007-0.205zM18.333 4.667h-4.667c-0.552 0-1 0.448-1 1s0.448 1 1 1v0h4.667c0.552 0 1-0.448 1-1s-0.448-1-1-1v0zM23.264 15.059c-0.107-0.234-0.339-0.393-0.608-0.393s-0.501 0.159-0.606 0.389l-0.002 0.004-3.591 7.988c-0.003 0.005-0.007 0.014-0.012 0.023l-0.002 0.004-2.391 5.32c-0.039 0.082-0.062 0.179-0.062 0.281 0 0.368 0.298 0.667 0.667 0.667 0.272 0 0.506-0.163 0.61-0.397l0.002-0.004 2.22-4.94h6.341l2.227 4.941c0.107 0.233 0.339 0.392 0.608 0.392 0.368 0 0.667-0.299 0.667-0.667 0-0.1-0.022-0.194-0.061-0.279l0.002 0.004-2.399-5.32c-0.006-0.013-0.010-0.022-0.014-0.031l0.002 0.004-3.6-7.987zM25.231 22.667h-5.141l2.568-5.709 2.573 5.709z"></path>
</svg>
