<!-- Generated by IcoMoon.io -->
<svg version="1.1" xmlns="http://www.w3.org/2000/svg" width="32" height="32" viewBox="0 0 32 32">
<title>clipboard-paste</title>
<path d="M17.004 2.667c1.543 0 2.814 1.167 2.978 2.667l2.351-0.001c1.588 0 2.887 1.234 2.993 2.795l0.007 0.205c0 0.506-0.376 0.923-0.863 0.99l-0.138 0.009c-0.506 0-0.923-0.376-0.99-0.863l-0.009-0.136c0-0.506-0.376-0.925-0.864-0.991l-0.136-0.009-2.843 0.001c-0.538 0.798-1.451 1.323-2.486 1.323h-4.676c-1.035 0-1.948-0.525-2.486-1.323l-2.843-0.001c-0.506 0-0.925 0.376-0.991 0.864l-0.009 0.136v18.006c0 0.506 0.376 0.925 0.864 0.991l0.136 0.009 4-0.001c0.506 0 0.925 0.376 0.991 0.864l0.009 0.136c0 0.552-0.448 1-1 1l-4 0.001c-1.588 0-2.888-1.234-2.993-2.795l-0.007-0.205v-18.006c0-1.588 1.234-2.888 2.795-2.993l0.205-0.007 2.351 0.001c0.164-1.5 1.434-2.667 2.978-2.667h4.676zM25 10.667c1.588 0 2.887 1.234 2.993 2.795l0.007 0.205v12.667c0 1.588-1.234 2.887-2.795 2.993l-0.205 0.007h-8.667c-1.588 0-2.887-1.234-2.993-2.795l-0.007-0.205v-12.667c0-1.588 1.234-2.888 2.795-2.993l0.205-0.007h8.667zM25 12.667h-8.667c-0.506 0-0.925 0.376-0.991 0.864l-0.009 0.136v12.667c0 0.506 0.376 0.925 0.864 0.991l0.136 0.009h8.667c0.506 0 0.925-0.376 0.991-0.864l0.009-0.136v-12.667c0-0.506-0.376-0.925-0.864-0.991l-0.136-0.009zM17.004 4.667h-4.676c-0.55 0-0.996 0.446-0.996 0.996s0.446 0.996 0.996 0.996h4.676c0.55 0 0.996-0.446 0.996-0.996s-0.446-0.996-0.996-0.996z"></path>
</svg>
