<!-- Generated by IcoMoon.io -->
<svg version="1.1" xmlns="http://www.w3.org/2000/svg" width="32" height="32" viewBox="0 0 32 32">
<title>clipboard</title>
<path d="M18.333 2.667c1.588 0 2.887 1.234 2.993 2.795l0.007 0.205c0-0.113-0.006-0.224-0.018-0.334l2.352 0.001c1.657 0 3 1.343 3 3v18c0 1.657-1.343 3-3 3h-15.333c-1.657 0-3-1.343-3-3v-18c0-1.657 1.343-3 3-3l2.352-0.001c-0.009 0.078-0.014 0.156-0.017 0.236l-0.002 0.098c0-1.657 1.343-3 3-3h4.667zM18.333 8.667h-4.667c-1.059 0-1.989-0.548-2.523-1.377l0.029 0.044-2.839-0c-0.552 0-1 0.448-1 1v18c0 0.552 0.448 1 1 1h15.333c0.552 0 1-0.448 1-1v-18c0-0.552-0.448-1-1-1l-2.839 0 0.029-0.044c-0.534 0.828-1.465 1.377-2.523 1.377zM18.333 4.667h-4.667c-0.552 0-1 0.448-1 1s0.448 1 1 1h4.667c0.552 0 1-0.448 1-1s-0.448-1-1-1z"></path>
</svg>
