<!-- Generated by IcoMoon.io -->
<svg version="1.1" xmlns="http://www.w3.org/2000/svg" width="32" height="32" viewBox="0 0 32 32">
<title>clipboard-heart</title>
<path d="M26.667 8.333v6.642c-0.667-0.074-1.344-0.036-2 0.114v-6.756c0-0.552-0.448-1-1-1l-2.839 0c-0.538 0.804-1.455 1.333-2.495 1.333h-4.667c-1.040 0-1.956-0.529-2.495-1.333l-2.839-0c-0.552 0-1 0.448-1 1v18c0 0.552 0.448 1 1 1h9.053l2 2h-11.053c-1.657 0-3-1.343-3-3v-18c0-1.657 1.343-3 3-3l2.352-0.001c0.166-1.5 1.438-2.666 2.982-2.666h4.667c1.544 0 2.815 1.166 2.982 2.666l2.352 0.001c1.657 0 3 1.343 3 3zM21.326 5.461l0.007 0.205c0-0.069-0.002-0.138-0.007-0.205zM13.667 4.667c-0.552 0-1 0.448-1 1s0.448 1 1 1h4.667c0.552 0 1-0.448 1-1s-0.448-1-1-1h-4.667zM21.979 30.040c0.195 0.195 0.451 0.293 0.707 0.293s0.512-0.098 0.707-0.293l5.878-5.878c1.805-1.805 1.805-4.732 0-6.537s-4.732-1.805-6.537 0l-0.048 0.048-0.048-0.048c-1.805-1.805-4.732-1.805-6.537 0s-1.805 4.732 0 6.537l5.878 5.878z"></path>
</svg>
