<!-- Generated by IcoMoon.io -->
<svg version="1.1" xmlns="http://www.w3.org/2000/svg" width="32" height="32" viewBox="0 0 32 32">
<title>clock-alarm</title>
<path d="M16 10.333c0-0.552-0.448-1-1-1s-1 0.448-1 1v6.667c0 0.552 0.448 1 1 1h4.667c0.552 0 1-0.448 1-1s-0.448-1-1-1h-3.667v-5.667z"></path>
<path d="M4.635 12.138c-1.2-0.977-1.968-2.467-1.968-4.138 0-2.946 2.388-5.333 5.333-5.333 1.671 0 3.161 0.768 4.138 1.968 1.212-0.412 2.511-0.635 3.862-0.635s2.65 0.223 3.862 0.635c0.977-1.2 2.467-1.968 4.138-1.968 2.945 0 5.333 2.388 5.333 5.333 0 1.671-0.769 3.161-1.969 4.138 0.412 1.212 0.635 2.511 0.635 3.862 0 2.954-1.067 5.658-2.837 7.749l2.544 2.544c0.391 0.391 0.391 1.024 0 1.414s-1.024 0.391-1.414 0l-2.544-2.544c-2.091 1.77-4.795 2.837-7.749 2.837s-5.658-1.067-7.749-2.837l-2.544 2.544c-0.391 0.391-1.024 0.391-1.414 0s-0.391-1.024 0-1.414l2.544-2.544c-1.77-2.091-2.837-4.795-2.837-7.749 0-1.351 0.223-2.65 0.635-3.862zM4.667 8c0 0.841 0.311 1.61 0.827 2.198 1.094-1.976 2.728-3.611 4.704-4.704-0.587-0.515-1.356-0.827-2.198-0.827-1.841 0-3.333 1.492-3.333 3.333zM26.507 10.198c0.515-0.587 0.827-1.356 0.827-2.198 0-1.841-1.492-3.333-3.333-3.333-0.841 0-1.611 0.311-2.198 0.827 1.976 1.094 3.611 2.728 4.704 4.704zM6 16c0 5.523 4.477 10 10 10s10-4.477 10-10c0-5.523-4.477-10-10-10s-10 4.477-10 10z"></path>
</svg>
