<!-- Generated by IcoMoon.io -->
<svg version="1.1" xmlns="http://www.w3.org/2000/svg" width="32" height="32" viewBox="0 0 32 32">
<title>clock-dismiss</title>
<path d="M8.667 16c4.050 0 7.333 3.283 7.333 7.333s-3.283 7.333-7.333 7.333c-4.050 0-7.333-3.283-7.333-7.333s3.283-7.333 7.333-7.333zM17.333 1.333c7.364 0 13.333 5.971 13.333 13.333s-5.969 13.333-13.333 13.333c-0.446 0-0.888-0.022-1.323-0.065 0.419-0.666 0.749-1.392 0.975-2.162l0.348 0.004c6.127 0 11.111-4.984 11.111-11.111s-4.984-11.111-11.111-11.111c-6.127 0-11.111 4.984-11.111 11.111l0.005 0.349c-0.772 0.225-1.498 0.555-2.163 0.973-0.043-0.434-0.065-0.875-0.065-1.321 0-7.363 5.969-13.333 13.333-13.333zM4.954 19.451l-0.092 0.077-0.077 0.092c-0.157 0.227-0.157 0.531 0 0.758l0.077 0.092 2.862 2.862-2.862 2.862-0.077 0.092c-0.157 0.227-0.157 0.531 0 0.758l0.077 0.092 0.092 0.077c0.227 0.157 0.531 0.157 0.758 0l0.092-0.077 2.862-2.862 2.862 2.862 0.092 0.077c0.227 0.157 0.531 0.157 0.758 0l0.092-0.077 0.077-0.092c0.158-0.227 0.158-0.531 0-0.758l-0.077-0.092-2.862-2.862 2.862-2.862 0.077-0.092c0.158-0.227 0.158-0.531 0-0.758l-0.077-0.092-0.092-0.077c-0.227-0.157-0.531-0.157-0.758 0l-0.092 0.077-2.862 2.862-2.862-2.862-0.092-0.077c-0.195-0.135-0.446-0.154-0.657-0.058l-0.102 0.058zM16.333 6.667c0.506 0 0.925 0.376 0.991 0.864l0.009 0.136v7h4.333c0.552 0 1 0.448 1 1 0 0.506-0.376 0.925-0.864 0.991l-0.136 0.009h-5.333c-0.506 0-0.925-0.376-0.991-0.864l-0.009-0.136v-8c0-0.552 0.448-1 1-1z"></path>
</svg>
