<!-- Generated by IcoMoon.io -->
<svg version="1.1" xmlns="http://www.w3.org/2000/svg" width="32" height="32" viewBox="0 0 32 32">
<title>clock-regular</title>
<path d="M16 3.333c6.995 0 12.667 5.671 12.667 12.667s-5.671 12.667-12.667 12.667-12.667-5.671-12.667-12.667 5.671-12.667 12.667-12.667zM16 5c-6.075 0-11 4.925-11 11s4.925 11 11 11 11-4.925 11-11-4.925-11-11-11zM15.167 8c0.431 0 0.787 0.328 0.829 0.748l0.004 0.085v7.167h4.5c0.001 0 0.003 0 0.004 0 0.46 0 0.833 0.373 0.833 0.833 0 0.432-0.328 0.787-0.748 0.829l-0.003 0-0.085 0.004h-5.333c-0 0-0 0-0 0-0.43 0-0.784-0.326-0.829-0.744l-0-0.004-0.004-0.085v-8c0-0.46 0.373-0.833 0.833-0.833z"></path>
</svg>
