<!-- Generated by IcoMoon.io -->
<svg version="1.1" xmlns="http://www.w3.org/2000/svg" width="32" height="32" viewBox="0 0 32 32">
<title>clock</title>
<path d="M16 2.667c7.364 0 13.333 5.971 13.333 13.333s-5.969 13.333-13.333 13.333c-7.364 0-13.333-5.971-13.333-13.333s5.969-13.333 13.333-13.333zM16 4.889c-6.127 0-11.111 4.984-11.111 11.111s4.984 11.111 11.111 11.111c6.127 0 11.111-4.984 11.111-11.111s-4.984-11.111-11.111-11.111zM15 8c0.506 0 0.925 0.376 0.991 0.864l0.009 0.136v7h4.333c0.552 0 1 0.448 1 1 0 0.506-0.376 0.925-0.864 0.991l-0.136 0.009h-5.333c-0.506 0-0.925-0.376-0.991-0.864l-0.009-0.136v-8c0-0.552 0.448-1 1-1z"></path>
</svg>
