<!-- Generated by IcoMoon.io -->
<svg version="1.1" xmlns="http://www.w3.org/2000/svg" width="32" height="32" viewBox="0 0 32 32">
<title>clock-pause</title>
<path d="M29.333 16c0-7.363-5.969-13.333-13.333-13.333s-13.333 5.971-13.333 13.333c0 0.351 0.013 0.697 0.040 1.040 0.628-0.596 1.351-1.102 2.141-1.491l0.051-0.023c0.249-5.908 5.133-10.637 11.101-10.637 6.127 0 11.111 4.984 11.111 11.111 0 5.968-4.729 10.852-10.637 11.101-0.412 0.841-0.918 1.564-1.518 2.196l0.004-0.004c0.344 0.027 0.691 0.040 1.041 0.040 7.364 0 13.333-5.971 13.333-13.333zM8.667 30.667c4.050 0 7.333-3.283 7.333-7.333s-3.283-7.333-7.333-7.333v0c-4.050 0-7.333 3.283-7.333 7.333s3.283 7.333 7.333 7.333v0zM6.667 20v6.667c0 0.368-0.298 0.667-0.667 0.667s-0.667-0.298-0.667-0.667v0-6.667c0-0.368 0.298-0.667 0.667-0.667s0.667 0.298 0.667 0.667v0zM12 20v6.667c0 0.368-0.298 0.667-0.667 0.667s-0.667-0.298-0.667-0.667v0-6.667c0-0.368 0.298-0.667 0.667-0.667s0.667 0.298 0.667 0.667v0zM15.667 8c0.504 0 0.921 0.373 0.99 0.859l0.001 0.005 0.009 0.136v7h4.333c0.552 0 1 0.448 1 1 0 0.504-0.373 0.921-0.858 0.99l-0.005 0.001-0.136 0.009h-5.333c-0.504-0-0.921-0.373-0.99-0.859l-0.001-0.005-0.009-0.136v-8c0-0.552 0.448-1 1-1v0z"></path>
</svg>
