<!-- Generated by IcoMoon.io -->
<svg version="1.1" xmlns="http://www.w3.org/2000/svg" width="32" height="32" viewBox="0 0 32 32">
<title>clock-arrow-download</title>
<path d="M29.333 16c0-7.363-5.969-13.333-13.333-13.333s-13.333 5.971-13.333 13.333c0 0.35 0.014 0.698 0.040 1.041 0.645-0.611 1.384-1.124 2.193-1.515 0.249-5.908 5.133-10.637 11.101-10.637 6.127 0 11.111 4.984 11.111 11.111 0 5.968-4.729 10.852-10.637 11.101-0.391 0.809-0.904 1.548-1.515 2.193 0.344 0.027 0.691 0.040 1.041 0.040 7.364 0 13.333-5.971 13.333-13.333zM8 16.030c-3.738 0.337-6.667 3.478-6.667 7.303 0 4.050 3.283 7.333 7.333 7.333s7.333-3.283 7.333-7.333c0-3.825-2.929-6.967-6.667-7.303v7.694l2.195-2.195c0.26-0.26 0.682-0.26 0.943 0s0.26 0.683 0 0.943l-3.333 3.333c-0.26 0.26-0.682 0.26-0.943 0l-3.333-3.333c-0.26-0.26-0.26-0.683 0-0.943s0.682-0.26 0.943 0l2.195 2.195v-7.694zM5.333 26.667h6.667c0.368 0 0.667 0.299 0.667 0.667s-0.298 0.667-0.667 0.667h-6.667c-0.368 0-0.667-0.299-0.667-0.667s0.298-0.667 0.667-0.667zM16.657 8.864c-0.066-0.488-0.485-0.864-0.991-0.864-0.552 0-1 0.448-1 1v8l0.009 0.136c0.066 0.488 0.485 0.864 0.991 0.864h5.333l0.136-0.009c0.488-0.066 0.864-0.485 0.864-0.991 0-0.552-0.448-1-1-1h-4.333v-7l-0.009-0.136z"></path>
</svg>
