<!-- Generated by IcoMoon.io -->
<svg version="1.1" xmlns="http://www.w3.org/2000/svg" width="32" height="32" viewBox="0 0 32 32">
<title>clock-toolbox</title>
<path d="M29.333 16c0-7.363-5.969-13.333-13.333-13.333s-13.333 5.971-13.333 13.333c0 0.595 0.040 1.18 0.115 1.755 0.296-1.123 1.081-2.018 2.107-2.46l0.024-0.009c0.369-5.795 5.201-10.396 11.088-10.396 6.127 0 11.111 4.984 11.111 11.111 0 5.676-4.277 10.371-9.777 11.031v1.636c0 0.207-0.019 0.409-0.055 0.607 6.764-0.644 12.055-6.341 12.055-13.273zM16.657 8.864c-0.069-0.491-0.486-0.864-0.991-0.864-0.552 0-1 0.448-1 1v8l0.009 0.136c0.069 0.491 0.486 0.864 0.991 0.864h5.333l0.136-0.009c0.491-0.069 0.864-0.486 0.864-0.991 0-0.552-0.448-1-1-1h-4.333v-7l-0.009-0.136zM4 20h-0.667c-1.105 0-2 0.895-2 2v0 2h3.333v-0.333c0-0.552 0.448-1 1-1s1 0.448 1 1v0 0.333h4v-0.333c0-0.552 0.448-1 1-1s1 0.448 1 1v0 0.333h3.333v-2c0-1.105-0.895-2-2-2v0h-0.667v-1.333c0-1.289-1.045-2.333-2.333-2.333v0h-4.667c-1.289 0-2.333 1.045-2.333 2.333v0 1.333zM6 18.667c0-0.184 0.149-0.333 0.333-0.333v0h4.667c0.184 0 0.333 0.149 0.333 0.333v0 1.333h-5.333v-1.333zM1.333 28.667v-2.667h3.333v1c0 0.552 0.448 1 1 1s1-0.448 1-1v0-1h4v1c0 0.552 0.448 1 1 1s1-0.448 1-1v0-1h3.333v2.667c0 1.105-0.895 2-2 2v0h-10.667c-1.105 0-2-0.895-2-2v0z"></path>
</svg>
