<!-- Generated by IcoMoon.io -->
<svg version="1.1" xmlns="http://www.w3.org/2000/svg" width="32" height="32" viewBox="0 0 32 32">
<title>closed-caption-regular</title>
<path d="M9.349 11.322c1.539-1.1 4.060-0.907 5.191 0.903 0.080 0.125 0.127 0.278 0.127 0.442 0 0.46-0.373 0.834-0.834 0.834-0.297 0-0.557-0.155-0.705-0.388l-0.002-0.003c-0.536-0.858-1.914-1.070-2.809-0.431-0.559 0.399-1.317 1.241-1.317 3.322 0 2.105 0.722 2.927 1.293 3.305 0.421 0.279 1.015 0.413 1.592 0.353s1.028-0.304 1.27-0.642c0.153-0.206 0.396-0.338 0.67-0.338 0.46 0 0.833 0.373 0.833 0.833 0 0.177-0.055 0.341-0.149 0.476l0.002-0.003c-0.591 0.828-1.539 1.234-2.451 1.331-0.913 0.097-1.904-0.102-2.687-0.62-1.119-0.74-2.041-2.135-2.041-4.695 0-2.587 0.993-3.947 2.016-4.678zM24.54 12.225c-1.131-1.809-3.652-2.002-5.191-0.903-1.022 0.731-2.015 2.091-2.015 4.678 0 2.561 0.922 3.955 2.040 4.695 0.783 0.518 1.773 0.717 2.687 0.62s1.86-0.503 2.451-1.331c0.097-0.135 0.155-0.303 0.155-0.485 0-0.46-0.373-0.833-0.833-0.833-0.278 0-0.525 0.137-0.676 0.346l-0.002 0.002c-0.242 0.339-0.692 0.581-1.27 0.643s-1.171-0.073-1.592-0.353c-0.571-0.377-1.293-1.199-1.293-3.305 0-2.080 0.759-2.923 1.318-3.322 0.895-0.639 2.273-0.427 2.809 0.431 0.15 0.237 0.41 0.392 0.707 0.392 0.46 0 0.834-0.373 0.834-0.834 0-0.164-0.047-0.317-0.129-0.445l0.002 0.003zM2.667 9.667c0-2.393 1.94-4.333 4.333-4.333v0h18c2.393 0 4.333 1.94 4.333 4.333v0 12.667c0 2.393-1.94 4.333-4.333 4.333v0h-18c-2.393 0-4.333-1.94-4.333-4.333v0-12.667zM7 7c-1.473 0-2.667 1.194-2.667 2.667v0 12.667c0 1.473 1.194 2.667 2.667 2.667v0h18c1.473 0 2.667-1.194 2.667-2.667v0-12.667c0-1.473-1.194-2.667-2.667-2.667v0h-18z"></path>
</svg>
