<!-- Generated by IcoMoon.io -->
<svg version="1.1" xmlns="http://www.w3.org/2000/svg" width="32" height="32" viewBox="0 0 32 32">
<title>closed-caption</title>
<path d="M25 5.333c2.393 0 4.333 1.94 4.333 4.333v12.673c0 2.393-1.94 4.333-4.333 4.333h-18c-2.393 0-4.333-1.94-4.333-4.333v-12.673c0-2.311 1.809-4.199 4.087-4.326l0.246-0.007h18zM25 7.333l-18.191 0.008c-1.199 0.097-2.142 1.101-2.142 2.326v12.673c0 1.289 1.045 2.333 2.333 2.333h18c1.289 0 2.333-1.045 2.333-2.333v-12.673c0-1.289-1.045-2.333-2.333-2.333zM7.333 16c0-4.194 3.618-6.367 6.829-4.535 0.48 0.274 0.647 0.884 0.373 1.364s-0.884 0.647-1.364 0.373c-1.864-1.063-3.838 0.123-3.838 2.798 0 2.673 1.979 3.862 3.839 2.804 0.48-0.273 1.091-0.105 1.364 0.375s0.105 1.091-0.375 1.364c-3.207 1.824-6.828-0.351-6.828-4.542zM17.333 16c0-4.194 3.618-6.367 6.829-4.535 0.48 0.274 0.647 0.884 0.373 1.364s-0.884 0.647-1.364 0.373c-1.864-1.063-3.838 0.123-3.838 2.798 0 2.673 1.979 3.862 3.839 2.804 0.48-0.273 1.091-0.105 1.364 0.375s0.105 1.091-0.375 1.364c-3.207 1.824-6.828-0.351-6.828-4.542z"></path>
</svg>
