<!-- Generated by IcoMoon.io -->
<svg version="1.1" xmlns="http://www.w3.org/2000/svg" width="32" height="32" viewBox="0 0 32 32">
<title>closed-caption-off</title>
<path d="M4.374 2.96c-0.391-0.391-1.024-0.391-1.414 0s-0.391 1.024-0 1.414l1.667 1.667c-1.18 0.774-1.96 2.109-1.96 3.626v12.673c0 2.393 1.94 4.333 4.333 4.333h18c0.084 0 0.168-0.002 0.251-0.007l2.375 2.375c0.391 0.391 1.024 0.391 1.414 0s0.391-1.024 0-1.414l-24.666-24.667zM23.258 24.673h-16.258c-1.289 0-2.333-1.045-2.333-2.333v-12.673c0-0.969 0.591-1.801 1.433-2.153l3.77 3.77c-1.479 0.773-2.536 2.449-2.536 4.716 0 4.191 3.621 6.366 6.828 4.542 0.48-0.273 0.648-0.884 0.375-1.364s-0.884-0.648-1.364-0.375c-1.86 1.058-3.839-0.131-3.839-2.804 0-1.826 0.92-2.959 2.097-3.155l11.828 11.828zM27.239 22.997c0.061-0.209 0.094-0.429 0.094-0.658v-12.673c0-1.289-1.045-2.333-2.333-2.333h-13.424l-2-2h15.424c2.393 0 4.333 1.94 4.333 4.333v12.673c0 0.791-0.212 1.532-0.582 2.17l-1.512-1.512zM19.404 15.162l-1.597-1.596c1.084-2.517 3.844-3.533 6.355-2.101 0.48 0.274 0.647 0.884 0.373 1.364s-0.884 0.647-1.364 0.373c-1.656-0.944-3.399-0.114-3.767 1.96z"></path>
</svg>
