<!-- Generated by IcoMoon.io -->
<svg version="1.1" xmlns="http://www.w3.org/2000/svg" width="32" height="32" viewBox="0 0 32 32">
<title>cloud-swap</title>
<path d="M8.116 12c0.632-3.61 3.784-6.333 7.551-6.333s6.919 2.724 7.551 6.333h0.115c2.945 0 5.333 2.388 5.333 5.333 0 0.422-0.049 0.832-0.141 1.225l-1.875-1.875c-0.019-0.019-0.039-0.038-0.058-0.056-0.324-1.502-1.66-2.627-3.258-2.627h-1.008c-0.533 0-0.973-0.418-0.999-0.951-0.148-3.008-2.636-5.383-5.66-5.383s-5.512 2.375-5.66 5.383c-0.026 0.533-0.466 0.951-0.999 0.951h-1.008c-1.841 0-3.333 1.492-3.333 3.333s1.492 3.333 3.333 3.333h4.224c-0.299 0.631-0.299 1.369 0 2h-4.224c-2.946 0-5.333-2.388-5.333-5.333s2.388-5.333 5.333-5.333h0.116zM18.374 19.040c0.391-0.391 0.391-1.024 0-1.414s-1.024-0.391-1.414 0l-3.333 3.333c-0.391 0.391-0.391 1.024 0 1.414l3.333 3.333c0.391 0.391 1.024 0.391 1.414 0s0.391-1.024 0-1.414l-1.626-1.626h9.171l-1.626 1.626c-0.391 0.391-0.391 1.024 0 1.414s1.024 0.391 1.414 0l3.333-3.333c0.391-0.391 0.391-1.024 0-1.414l-3.333-3.333c-0.391-0.391-1.024-0.391-1.414 0s-0.391 1.024 0 1.414l1.626 1.626h-9.171l1.626-1.626z"></path>
</svg>
