<!-- Generated by IcoMoon.io -->
<svg version="1.1" xmlns="http://www.w3.org/2000/svg" width="32" height="32" viewBox="0 0 32 32">
<title>cloud-swap</title>
<path d="M8.116 12c0.662-3.619 3.79-6.325 7.551-6.325s6.889 2.707 7.544 6.278l0.007 0.047h0.116c0 0 0.001 0 0.001 0 2.946 0 5.333 2.388 5.333 5.333 0 0.435-0.052 0.857-0.15 1.262l0.007-0.036-1.876-1.875c-0.019-0.020-0.038-0.038-0.057-0.057l-0.001-0.001c-0.337-1.513-1.667-2.627-3.258-2.627-0 0-0.001 0-0.001 0h-1.008c-0 0-0.001 0-0.001 0-0.535 0-0.972-0.42-0.999-0.948l-0-0.002c-0.158-3.003-2.631-5.378-5.659-5.378s-5.502 2.375-5.659 5.364l-0.001 0.014c-0.027 0.531-0.464 0.951-0.999 0.951h-1.008c-1.841 0-3.333 1.492-3.333 3.333s1.492 3.333 3.333 3.333v0h4.224c-0.142 0.293-0.224 0.637-0.224 1s0.083 0.707 0.231 1.014l-0.006-0.014h-4.224c-2.946 0-5.333-2.388-5.333-5.333s2.388-5.333 5.333-5.333v0h0.116zM18.373 19.040c0.196-0.183 0.318-0.443 0.318-0.732 0-0.552-0.448-1-1-1-0.289 0-0.549 0.122-0.731 0.318l-0.001 0.001-3.333 3.333c-0.181 0.181-0.292 0.431-0.292 0.707s0.112 0.526 0.292 0.707v0l3.333 3.333c0.183 0.196 0.443 0.318 0.732 0.318 0.552 0 1-0.448 1-1 0-0.289-0.122-0.549-0.318-0.731l-0.001-0.001-1.627-1.627h9.173l-1.627 1.627c-0.196 0.183-0.318 0.443-0.318 0.732 0 0.552 0.448 1 1 1 0.289 0 0.549-0.122 0.731-0.318l0.001-0.001 3.333-3.333c0.181-0.181 0.292-0.431 0.292-0.707s-0.112-0.526-0.292-0.707v0l-3.333-3.333c-0.183-0.196-0.443-0.318-0.732-0.318-0.552 0-1 0.448-1 1 0 0.289 0.122 0.549 0.318 0.731l0.001 0.001 1.627 1.627h-9.173l1.627-1.627z"></path>
</svg>
