<!-- Generated by IcoMoon.io -->
<svg version="1.1" xmlns="http://www.w3.org/2000/svg" width="32" height="32" viewBox="0 0 32 32">
<title>cloud-words</title>
<path d="M13 12c-0.552 0-1 0.448-1 1s0.448 1 1 1h5.333c0.552 0 1-0.448 1-1s-0.448-1-1-1h-5.333zM6.667 18.333c0-0.552 0.448-1 1-1h5.333c0.552 0 1 0.448 1 1s-0.448 1-1 1h-5.333c-0.552 0-1-0.448-1-1zM18.333 17.333c-0.552 0-1 0.448-1 1s0.448 1 1 1h5.333c0.552 0 1-0.448 1-1s-0.448-1-1-1h-5.333zM15.667 6.667c-3.767 0-6.919 2.724-7.551 6.333h-0.116c-2.946 0-5.333 2.388-5.333 5.333s2.388 5.333 5.333 5.333h15.333c2.945 0 5.333-2.388 5.333-5.333s-2.388-5.333-5.333-5.333h-0.115c-0.633-3.61-3.784-6.333-7.551-6.333zM10.007 14.049c0.148-3.008 2.636-5.383 5.66-5.383s5.512 2.375 5.66 5.383c0.026 0.533 0.466 0.951 0.999 0.951h1.008c1.841 0 3.333 1.492 3.333 3.333s-1.492 3.333-3.333 3.333h-15.333c-1.841 0-3.333-1.492-3.333-3.333s1.492-3.333 3.333-3.333h1.008c0.533 0 0.973-0.418 0.999-0.951z"></path>
</svg>
