<!-- Generated by IcoMoon.io -->
<svg version="1.1" xmlns="http://www.w3.org/2000/svg" width="32" height="32" viewBox="0 0 32 32">
<title>cloud-off</title>
<path d="M4.374 2.96c-0.391-0.391-1.024-0.391-1.414-0s-0.391 1.024-0 1.414l6.088 6.088c-0.451 0.77-0.772 1.626-0.932 2.538h-0.116c-2.946 0-5.333 2.388-5.333 5.333s2.388 5.333 5.333 5.333h14.252l5.374 5.374c0.391 0.391 1.024 0.391 1.414 0s0.391-1.024 0-1.414l-24.666-24.667zM20.252 21.667h-12.252c-1.841 0-3.333-1.492-3.333-3.333s1.492-3.333 3.333-3.333h1.008c0.533 0 0.973-0.418 0.999-0.951 0.037-0.751 0.22-1.462 0.52-2.107l9.725 9.725zM26.667 18.333c0 1.114-0.546 2.1-1.386 2.706l1.426 1.426c1.197-0.978 1.96-2.465 1.96-4.131 0-2.945-2.388-5.333-5.333-5.333h-0.115c-0.633-3.61-3.784-6.333-7.551-6.333-1.368 0-2.654 0.359-3.769 0.989l1.489 1.489c0.698-0.307 1.47-0.478 2.28-0.478 3.024 0 5.512 2.375 5.66 5.383 0.026 0.533 0.466 0.951 0.999 0.951h1.008c1.841 0 3.333 1.492 3.333 3.333z"></path>
</svg>
