<!-- Generated by IcoMoon.io -->
<svg version="1.1" xmlns="http://www.w3.org/2000/svg" width="32" height="32" viewBox="0 0 32 32">
<title>cloud-off</title>
<path d="M22.488 23.667l5.423 5.423c0.151 0.151 0.359 0.244 0.589 0.244 0.46 0 0.833-0.373 0.833-0.833 0-0.23-0.093-0.439-0.244-0.589v0l-25-25c-0.151-0.151-0.359-0.244-0.589-0.244-0.46 0-0.833 0.373-0.833 0.833 0 0.23 0.093 0.438 0.244 0.589l6.563 6.563c-0.409 0.778-0.686 1.688-0.776 2.653l-0.002 0.029h-0.197c-2.853 0-5.167 2.313-5.167 5.167s2.313 5.167 5.167 5.167v0h13.988zM20.821 22h-12.321c-1.933 0-3.5-1.567-3.5-3.5s1.567-3.5 3.5-3.5v0h1c0.46 0 0.833-0.373 0.833-0.833v-0.167c0-0.738 0.141-1.443 0.398-2.090l10.090 10.090zM27 18.5c0 0 0 0.001 0 0.001 0 1.336-0.748 2.497-1.849 3.087l-0.019 0.009 1.215 1.215c1.406-0.938 2.32-2.518 2.32-4.312 0-2.853-2.313-5.167-5.167-5.167-0 0-0.001 0-0.001 0h-0.197c-0.337-3.738-3.478-6.667-7.303-6.667-1.633 0-3.142 0.533-4.361 1.437l1.195 1.195c0.888-0.605 1.985-0.966 3.165-0.966 3.13 0 5.667 2.537 5.667 5.667 0 0 0 0.001 0 0.001v-0 0.167c0 0.46 0.373 0.833 0.833 0.833h1c1.933 0 3.5 1.567 3.5 3.5z"></path>
</svg>
