<!-- Generated by IcoMoon.io -->
<svg version="1.1" xmlns="http://www.w3.org/2000/svg" width="32" height="32" viewBox="0 0 32 32">
<title>cloud-sync-regular</title>
<path d="M8.697 10.667c0.337-3.738 3.478-6.667 7.303-6.667s6.967 2.929 7.303 6.667h0.197c0 0 0 0 0 0 2.853 0 5.167 2.313 5.167 5.167 0 0.207-0.012 0.412-0.036 0.613l0.002-0.024c-0.517-0.612-1.104-1.142-1.753-1.586l-0.030-0.019c-0.45-1.449-1.779-2.483-3.35-2.483h-1c-0.46 0-0.833-0.373-0.833-0.833v-0.167c0-3.13-2.537-5.667-5.667-5.667s-5.667 2.537-5.667 5.667v0 0.167c0 0.46-0.373 0.833-0.833 0.833h-1c-1.933 0-3.5 1.567-3.5 3.5s1.567 3.5 3.5 3.5v0h5.251c-0.173 0.535-0.295 1.092-0.361 1.667h-4.891c-2.853 0-5.167-2.313-5.167-5.167s2.313-5.167 5.167-5.167v0h0.197zM14.667 22c0 4.050 3.283 7.333 7.333 7.333s7.333-3.283 7.333-7.333-3.283-7.333-7.333-7.333-7.333 3.283-7.333 7.333zM20.431 17.271c0.467-0.172 1.006-0.271 1.569-0.271 1.305 0 2.486 0.536 3.333 1.4l0.001 0.001v-0.401c0-0.368 0.298-0.667 0.667-0.667s0.667 0.298 0.667 0.667v0 2c0 0.368-0.298 0.667-0.667 0.667v0h-2c-0.368 0-0.667-0.298-0.667-0.667s0.298-0.667 0.667-0.667v0h0.38c-0.605-0.617-1.448-1-2.38-1-0.921 0-1.754 0.373-2.357 0.976v0c-0.121 0.121-0.287 0.195-0.471 0.195-0.368 0-0.667-0.299-0.667-0.667 0-0.184 0.075-0.351 0.195-0.472v0c0.476-0.476 1.054-0.85 1.699-1.085l0.032-0.010zM23.569 26.729c-0.467 0.172-1.006 0.271-1.569 0.271-1.305 0-2.486-0.536-3.333-1.4l-0.001-0.001v0.401c0 0.368-0.298 0.667-0.667 0.667s-0.667-0.298-0.667-0.667v0-2c0-0.368 0.298-0.667 0.667-0.667v0h2c0.368 0 0.667 0.298 0.667 0.667s-0.298 0.667-0.667 0.667v0h-0.38c0.605 0.618 1.448 1.001 2.38 1.001 0.402 0 0.787-0.071 1.143-0.201l-0.023 0.007c0.484-0.176 0.897-0.443 1.237-0.783l0-0c0.121-0.121 0.287-0.195 0.471-0.195 0.368 0 0.667 0.299 0.667 0.667 0 0.184-0.075 0.351-0.195 0.472v0c-0.476 0.476-1.054 0.85-1.699 1.085l-0.032 0.010z"></path>
</svg>
