<!-- Generated by IcoMoon.io -->
<svg version="1.1" xmlns="http://www.w3.org/2000/svg" width="32" height="32" viewBox="0 0 32 32">
<title>cloud-link</title>
<path d="M23.435 13.194c-0.371-3.717-2.928-6.794-7.435-6.794s-7.061 3.053-7.435 6.794l-0.402 0.008c-2.766 0.154-4.963 2.512-4.963 5.395 0 2.984 2.352 5.403 5.251 5.403h6.488c-0.227-0.464-0.396-1.003-0.48-1.57l-0.004-0.030h-6.005c-2.006 0-3.651-1.693-3.651-3.803 0-2.112 1.645-3.803 3.651-3.803h0.114c0 0 0 0 0 0 0.827 0 1.508-0.628 1.591-1.433l0.001-0.007c0.325-3.25 2.461-5.354 5.843-5.354 3.373 0 5.52 2.12 5.843 5.354 0.084 0.812 0.765 1.44 1.592 1.44 0 0 0 0 0 0h0.114c1.050 0 2 0.464 2.667 1.206h0.184c0.675 0 1.322 0.12 1.92 0.338-0.832-1.856-2.656-3.144-4.771-3.144h-0.114zM20 17.6c-2.209 0-4 1.791-4 4s1.791 4 4 4v0h0.8c0.442 0 0.8-0.358 0.8-0.8s-0.358-0.8-0.8-0.8v0h-0.8c-1.325 0-2.4-1.075-2.4-2.4s1.075-2.4 2.4-2.4v0h0.8c0.442 0 0.8-0.358 0.8-0.8s-0.358-0.8-0.8-0.8v0h-0.8zM25.6 17.6c-0.442 0-0.8 0.358-0.8 0.8s0.358 0.8 0.8 0.8v0h0.8c1.325 0 2.4 1.075 2.4 2.4s-1.075 2.4-2.4 2.4v0h-0.8c-0.442 0-0.8 0.358-0.8 0.8s0.358 0.8 0.8 0.8v0h0.8c2.209 0 4-1.791 4-4s-1.791-4-4-4v0h-0.8zM20 20.8c-0.442 0-0.8 0.358-0.8 0.8s0.358 0.8 0.8 0.8v0h6.4c0.442 0 0.8-0.358 0.8-0.8s-0.358-0.8-0.8-0.8v0h-6.4z"></path>
</svg>
