<!-- Generated by IcoMoon.io -->
<svg version="1.1" xmlns="http://www.w3.org/2000/svg" width="32" height="32" viewBox="0 0 32 32">
<title>cloud</title>
<path d="M8.116 13c0.632-3.61 3.784-6.333 7.551-6.333s6.919 2.724 7.551 6.333h0.115c2.945 0 5.333 2.388 5.333 5.333s-2.388 5.333-5.333 5.333h-15.333c-2.946 0-5.333-2.388-5.333-5.333s2.388-5.333 5.333-5.333h0.116zM15.667 8.667c-3.024 0-5.512 2.375-5.66 5.383-0.026 0.533-0.466 0.951-0.999 0.951h-1.008c-1.841 0-3.333 1.492-3.333 3.333s1.492 3.333 3.333 3.333h15.333c1.841 0 3.333-1.492 3.333-3.333s-1.492-3.333-3.333-3.333h-1.008c-0.533 0-0.973-0.418-0.999-0.951-0.148-3.008-2.636-5.383-5.66-5.383z"></path>
</svg>
