<!-- Generated by IcoMoon.io -->
<svg version="1.1" xmlns="http://www.w3.org/2000/svg" width="32" height="32" viewBox="0 0 32 32">
<title>cloud-arrow-up-regular</title>
<path d="M8.697 10.667c0.337-3.738 3.478-6.667 7.303-6.667s6.967 2.929 7.303 6.667h0.197c0 0 0 0 0 0 2.853 0 5.167 2.313 5.167 5.167 0 0.207-0.012 0.412-0.036 0.613l0.002-0.024c-0.517-0.612-1.104-1.142-1.753-1.586l-0.030-0.019c-0.45-1.449-1.779-2.483-3.35-2.483h-1c-0.46 0-0.833-0.373-0.833-0.833v-0.167c0-3.13-2.537-5.667-5.667-5.667s-5.667 2.537-5.667 5.667v0 0.167c0 0.46-0.373 0.833-0.833 0.833h-1c-1.933 0-3.5 1.567-3.5 3.5s1.567 3.5 3.5 3.5v0h5.251c-0.173 0.535-0.295 1.092-0.361 1.667h-4.891c-2.853 0-5.167-2.313-5.167-5.167s2.313-5.167 5.167-5.167v0h0.197zM29.333 22c0-4.050-3.283-7.333-7.333-7.333s-7.333 3.283-7.333 7.333 3.283 7.333 7.333 7.333 7.333-3.283 7.333-7.333zM22 16.667c0.184 0 0.351 0.075 0.471 0.195l3.333 3.333c0.116 0.12 0.187 0.283 0.187 0.463 0 0.368-0.298 0.667-0.667 0.667-0.18 0-0.343-0.071-0.463-0.187l-2.195-2.195v7.724c0 0.368-0.298 0.667-0.667 0.667s-0.667-0.298-0.667-0.667v0-7.724l-2.195 2.195c-0.12 0.116-0.283 0.187-0.463 0.187-0.368 0-0.667-0.298-0.667-0.667 0-0.18 0.071-0.343 0.187-0.463l3.333-3.333c0.121-0.121 0.287-0.195 0.471-0.195v0z"></path>
</svg>
