<!-- Generated by IcoMoon.io -->
<svg version="1.1" xmlns="http://www.w3.org/2000/svg" width="32" height="32" viewBox="0 0 32 32">
<title>cloud-flow</title>
<path d="M15.667 3c-3.767 0-6.919 2.724-7.551 6.333h-0.116c-2.946 0-5.333 2.388-5.333 5.333s2.388 5.333 5.333 5.333h9.54l0.189-0.566c0.181-0.543 0.469-1.028 0.837-1.434h-10.566c-1.841 0-3.333-1.492-3.333-3.333s1.492-3.333 3.333-3.333l1.008 0c0.533 0 0.973-0.418 0.999-0.951 0.148-3.008 2.636-5.383 5.66-5.383s5.512 2.375 5.66 5.383c0.026 0.533 0.466 0.951 0.999 0.951l1.008-0c1.367 0 2.542 0.823 3.056 2h1.943c0.056 0 0.112 0.002 0.167 0.006-0.59-2.303-2.68-4.006-5.167-4.006h-0.115c-0.633-3.61-3.784-6.333-7.551-6.333zM22 15.667c0-0.552 0.448-1 1-1h5.333c0.552 0 1 0.448 1 1v5.333c0 0.552-0.448 1-1 1h-5.333c-0.552 0-1-0.448-1-1v-1h-0.431c-0.307 0-0.58 0.197-0.678 0.488l-1.219 3.656c-0.369 1.108-1.407 1.856-2.575 1.856h-1.098v2.333c0 0.552-0.448 1-1 1h-5.333c-0.552 0-1-0.448-1-1v-5.333c0-0.552 0.448-1 1-1h5.333c0.552 0 1 0.448 1 1v1h1.098c0.307 0 0.58-0.197 0.678-0.488l1.219-3.656c0.369-1.108 1.407-1.856 2.575-1.856h0.431v-2.333zM24 19.024v0.976h3.333v-3.333h-3.333v2.309c0 0.008 0 0.016 0 0.024s-0 0.016-0 0.024zM10.667 24v3.333h3.333v-3.333h-3.333z"></path>
</svg>
