<!-- Generated by IcoMoon.io -->
<svg version="1.1" xmlns="http://www.w3.org/2000/svg" width="32" height="32" viewBox="0 0 32 32">
<title>cloud-regular</title>
<path d="M8.697 13.333c0.337-3.738 3.478-6.667 7.303-6.667s6.967 2.929 7.303 6.667h0.197c2.853 0 5.167 2.313 5.167 5.167s-2.313 5.167-5.167 5.167v0h-15c-2.853 0-5.167-2.313-5.167-5.167s2.313-5.167 5.167-5.167v0h0.197zM16 8.333c-3.13 0-5.667 2.537-5.667 5.667v0 0.167c0 0.46-0.373 0.833-0.833 0.833h-1c-1.933 0-3.5 1.567-3.5 3.5s1.567 3.5 3.5 3.5v0h15c1.933 0 3.5-1.567 3.5-3.5s-1.567-3.5-3.5-3.5v0h-1c-0.46 0-0.833-0.373-0.833-0.833v-0.167c0-3.13-2.537-5.667-5.667-5.667v0z"></path>
</svg>
