<!-- Generated by IcoMoon.io -->
<svg version="1.1" xmlns="http://www.w3.org/2000/svg" width="32" height="32" viewBox="0 0 32 32">
<title>cloud-error-regular</title>
<path d="M16 4c-3.825 0-6.967 2.929-7.303 6.667h-0.197c-2.853 0-5.167 2.313-5.167 5.167s2.313 5.167 5.167 5.167v0h4.891c0.073-0.623 0.199-1.187 0.378-1.728l-0.017 0.061h-5.251c-1.933 0-3.5-1.567-3.5-3.5s1.567-3.5 3.5-3.5v0h1c0.46 0 0.833-0.373 0.833-0.833v-0.167c0-3.13 2.537-5.667 5.667-5.667s5.667 2.537 5.667 5.667v0 0.167c0 0.46 0.373 0.833 0.833 0.833h1c1.571 0 2.9 1.034 3.343 2.459l0.007 0.025c0.667 0.451 1.267 0.992 1.783 1.605 0.021-0.177 0.034-0.381 0.034-0.589 0-2.853-2.313-5.167-5.167-5.167-0 0-0 0-0 0h-0.197c-0.337-3.738-3.478-6.667-7.303-6.667zM29.333 22c0 4.050-3.283 7.333-7.333 7.333s-7.333-3.283-7.333-7.333 3.283-7.333 7.333-7.333 7.333 3.283 7.333 7.333zM22.667 18c0-0.368-0.298-0.667-0.667-0.667s-0.667 0.298-0.667 0.667v0 5.333c0 0.368 0.298 0.667 0.667 0.667s0.667-0.298 0.667-0.667v0-5.333zM22 26.833c0.46 0 0.833-0.373 0.833-0.833s-0.373-0.833-0.833-0.833v0c-0.46 0-0.833 0.373-0.833 0.833s0.373 0.833 0.833 0.833v0z"></path>
</svg>
