<!-- Generated by IcoMoon.io -->
<svg version="1.1" xmlns="http://www.w3.org/2000/svg" width="32" height="32" viewBox="0 0 32 32">
<title>cloud-checkmark</title>
<path d="M8.116 10.333c0.632-3.61 3.784-6.333 7.551-6.333s6.919 2.724 7.551 6.333h0.115c2.945 0 5.333 2.388 5.333 5.333 0 0.249-0.017 0.495-0.050 0.735-0.605-0.715-1.325-1.33-2.13-1.818-0.45-1.309-1.692-2.25-3.153-2.25l-1.008 0c-0.533 0-0.973-0.418-0.999-0.951-0.148-3.008-2.636-5.383-5.66-5.383s-5.512 2.375-5.66 5.383c-0.026 0.533-0.466 0.951-0.999 0.951l-1.008-0c-1.841 0-3.333 1.492-3.333 3.333s1.492 3.333 3.333 3.333h5.867c-0.234 0.635-0.396 1.305-0.476 2h-5.39c-2.946 0-5.333-2.388-5.333-5.333s2.388-5.333 5.333-5.333h0.116zM29.333 22c0 4.050-3.283 7.333-7.333 7.333s-7.333-3.283-7.333-7.333c0-4.050 3.283-7.333 7.333-7.333s7.333 3.283 7.333 7.333zM26.471 18.862c-0.26-0.26-0.683-0.26-0.943 0l-4.862 4.862-2.195-2.195c-0.26-0.26-0.683-0.26-0.943 0s-0.26 0.683 0 0.943l2.667 2.667c0.26 0.26 0.683 0.26 0.943 0l5.333-5.333c0.26-0.26 0.26-0.683 0-0.943z"></path>
</svg>
