<!-- Generated by IcoMoon.io -->
<svg version="1.1" xmlns="http://www.w3.org/2000/svg" width="32" height="32" viewBox="0 0 32 32">
<title>code</title>
<path d="M10.754 25.258l8.667-19.333c0.226-0.504 0.818-0.729 1.322-0.503 0.462 0.207 0.69 0.722 0.551 1.194l-0.047 0.128-8.667 19.333c-0.226 0.504-0.818 0.729-1.322 0.503-0.462-0.207-0.69-0.722-0.551-1.194l0.047-0.128zM2.96 15.293l5.667-5.667c0.391-0.391 1.024-0.391 1.414 0 0.355 0.355 0.387 0.911 0.097 1.302l-0.097 0.112-4.96 4.96 4.96 4.96c0.391 0.39 0.391 1.024 0 1.414-0.355 0.355-0.911 0.387-1.302 0.097l-0.112-0.097-5.667-5.667c-0.355-0.355-0.387-0.911-0.097-1.302l0.097-0.112zM21.96 9.626c0.355-0.355 0.911-0.387 1.302-0.097l0.112 0.097 5.667 5.667c0.355 0.355 0.387 0.911 0.097 1.302l-0.097 0.112-5.667 5.667c-0.391 0.391-1.024 0.391-1.414 0-0.355-0.355-0.387-0.911-0.097-1.302l0.097-0.112 4.959-4.96-4.959-4.96c-0.391-0.391-0.391-1.024 0-1.414z"></path>
</svg>
