<!-- Generated by IcoMoon.io -->
<svg version="1.1" xmlns="http://www.w3.org/2000/svg" width="32" height="32" viewBox="0 0 32 32">
<title>code-block</title>
<path d="M4 8.167c0-2.301 1.865-4.167 4.167-4.167v0h15.667c2.301 0 4.167 1.865 4.167 4.167v0 15.667c0 2.301-1.865 4.167-4.167 4.167v0h-15.667c-2.301 0-4.167-1.865-4.167-4.167v0-15.667zM8.167 5.667c-1.381 0-2.5 1.119-2.5 2.5v0 15.667c0 1.381 1.119 2.5 2.5 2.5v0h15.667c1.381 0 2.5-1.119 2.5-2.5v0-15.667c0-1.381-1.119-2.5-2.5-2.5v0h-15.667zM13.923 10.244c0.151 0.151 0.244 0.359 0.244 0.589s-0.093 0.439-0.244 0.589l-4.577 4.577 4.577 4.577c0.151 0.151 0.244 0.359 0.244 0.589 0 0.46-0.373 0.833-0.833 0.833-0.23 0-0.438-0.093-0.589-0.244v0l-5.167-5.167c-0.151-0.151-0.244-0.359-0.244-0.589s0.093-0.439 0.244-0.589l5.167-5.167c0.151-0.151 0.359-0.244 0.589-0.244s0.439 0.093 0.589 0.244v0zM19.256 10.244c-0.151-0.151-0.359-0.244-0.589-0.244-0.46 0-0.833 0.373-0.833 0.833 0 0.23 0.093 0.438 0.244 0.589v0l4.577 4.577-4.577 4.577c-0.151 0.151-0.244 0.359-0.244 0.589 0 0.46 0.373 0.833 0.833 0.833 0.23 0 0.439-0.093 0.589-0.244v0l5.167-5.167c0.151-0.151 0.244-0.359 0.244-0.589s-0.093-0.439-0.244-0.589l-5.167-5.167z"></path>
</svg>
