<!-- Generated by IcoMoon.io -->
<svg version="1.1" xmlns="http://www.w3.org/2000/svg" width="32" height="32" viewBox="0 0 32 32">
<title>collections-regular</title>
<path d="M14.755 10.672l0.245-0.007h10c0 0 0 0 0 0 2.306 0 4.192 1.802 4.326 4.075l0.001 0.012 0.007 0.247v10c0 0 0 0 0 0 0 2.307-1.803 4.193-4.076 4.326l-0.012 0.001-0.245 0.007h-10c-0 0-0 0-0 0-2.307 0-4.193-1.803-4.326-4.076l-0.001-0.012-0.007-0.244v-10c0-0 0-0 0-0 0-2.307 1.803-4.193 4.076-4.326l0.012-0.001zM25 12.665h-10c-1.221 0-2.223 0.938-2.325 2.133l-0.001 0.009-0.008 0.192v10c0 1.221 0.939 2.224 2.134 2.325l0.009 0.001 0.191 0.008h10c1.221-0 2.224-0.939 2.325-2.134l0.001-0.009 0.008-0.191v-10c0-1.289-1.045-2.333-2.333-2.333v0zM20 14.667c0.552 0 1 0.448 1 1v0 3.331h3.333c0.552 0 1 0.448 1 1s-0.448 1-1 1v0h-3.333v3.336c0 0.552-0.448 1-1 1s-1-0.448-1-1v0-3.336h-3.333c-0.552 0-1-0.448-1-1s0.448-1 1-1v0h3.333v-3.331c0-0.552 0.448-1 1-1v0zM20.776 5.644l0.069 0.236 0.924 3.451h-2.071l-0.784-2.933c-0.275-1.004-1.18-1.73-2.254-1.73-0.215 0-0.423 0.029-0.621 0.084l0.016-0.004-9.659 2.589c-1.004 0.276-1.729 1.18-1.729 2.254 0 0.144 0.013 0.284 0.038 0.421l-0.002-0.014 0.043 0.197 2.589 9.659c0.252 0.921 1.032 1.606 1.987 1.715l0.011 0.001v2.008c-1.803-0.111-3.3-1.308-3.851-2.94l-0.009-0.031-0.069-0.235-2.588-9.66c-0.094-0.337-0.148-0.723-0.148-1.123 0-1.907 1.232-3.527 2.944-4.106l0.031-0.009 0.237-0.069 9.659-2.588c0.337-0.094 0.723-0.148 1.123-0.148 1.907 0 3.527 1.232 4.106 2.944l0.009 0.031z"></path>
</svg>
