<!-- Generated by IcoMoon.io -->
<svg version="1.1" xmlns="http://www.w3.org/2000/svg" width="32" height="32" viewBox="0 0 32 32">
<title>color-line-accent-regular</title>
<path d="M5.339 20.841c0.095 1.395 1.25 2.491 2.661 2.491 0.274 0 0.538-0.041 0.786-0.118l-0.019 0.005 5.724-1.717c0.596-0.182 1.111-0.469 1.552-0.841l-0.006 0.005h9.964c0.736 0 1.333 0.597 1.333 1.333v0 4c0 0.736-0.597 1.333-1.333 1.333v0h-20c-0.736 0-1.333-0.597-1.333-1.333v0-4c0-0 0-0.001 0-0.001 0-0.493 0.268-0.924 0.666-1.154l0.006-0.003z"></path>
</svg>
