<!-- Generated by IcoMoon.io -->
<svg version="1.1" xmlns="http://www.w3.org/2000/svg" width="32" height="32" viewBox="0 0 32 32">
<title>color-line</title>
<path d="M5.841 18.67c-1.767 0.083-3.175 1.542-3.175 3.33v4c0 1.841 1.492 3.333 3.333 3.333h20c1.841 0 3.333-1.492 3.333-3.333v-4c0-1.841-1.492-3.333-3.333-3.333h-7.939l-1.755 1.752c-0.087 0.087-0.177 0.169-0.27 0.248h9.964c0.736 0 1.333 0.597 1.333 1.333v4c0 0.736-0.597 1.333-1.333 1.333h-20c-0.736 0-1.333-0.597-1.333-1.333v-4c0-0.496 0.271-0.929 0.672-1.158-0.022-0.334 0.019-0.671 0.123-0.993l0.38-1.179z"></path>
<path d="M24.864 3.925c1.675 1.676 1.674 4.393-0.002 6.068l-9.498 9.482c-0.351 0.35-0.783 0.608-1.257 0.75l-5.724 1.718c-0.705 0.212-1.449-0.188-1.66-0.894-0.078-0.259-0.075-0.535 0.008-0.792l1.815-5.637c0.146-0.454 0.399-0.867 0.736-1.204l9.51-9.495c1.678-1.675 4.395-1.673 6.071 0.003zM20.206 5.337l-9.51 9.495c-0.113 0.112-0.197 0.25-0.245 0.401l-1.426 4.43 4.509-1.353c0.158-0.047 0.302-0.133 0.419-0.25l9.496-9.48c0.896-0.895 0.896-2.346 0.002-3.241-0.895-0.896-2.347-0.897-3.244-0.002z"></path>
</svg>
