<!-- Generated by IcoMoon.io -->
<svg version="1.1" xmlns="http://www.w3.org/2000/svg" width="32" height="32" viewBox="0 0 32 32">
<title>color</title>
<path d="M5.118 7.81c3.921-5.221 12.040-6.74 17.819-3.147 5.706 3.548 7.805 10.369 5.468 16.77-2.207 6.043-8.022 8.438-12.213 5.398-1.57-1.139-2.179-2.566-2.473-4.885l-0.141-1.317-0.061-0.53c-0.164-1.245-0.415-1.803-0.939-2.096-0.714-0.398-1.19-0.407-2.127-0.044l-0.468 0.194-0.238 0.104c-1.352 0.587-2.251 0.793-3.388 0.555l-0.267-0.063-0.218-0.062c-3.719-1.152-4.269-6.196-0.754-10.877zM6.431 16.765l0.164 0.049 0.179 0.041c0.585 0.116 1.086 0.019 1.916-0.323l0.803-0.343c1.603-0.657 2.647-0.721 4.061 0.066 1.223 0.682 1.7 1.73 1.944 3.546l0.071 0.612 0.072 0.709 0.063 0.563c0.229 1.815 0.647 2.787 1.664 3.525 3.034 2.201 7.379 0.411 9.16-4.465 2.022-5.536 0.232-11.353-4.645-14.385-4.899-3.046-11.865-1.742-15.163 2.649-2.766 3.683-2.427 7.039-0.287 7.754zM21.397 14.106c-0.238-0.889 0.289-1.803 1.178-2.041s1.803 0.289 2.041 1.179-0.289 1.803-1.179 2.041c-0.889 0.238-1.803-0.289-2.041-1.179zM22.056 18.758c-0.238-0.889 0.289-1.803 1.179-2.041s1.803 0.289 2.041 1.179c0.238 0.889-0.289 1.803-1.179 2.041s-1.803-0.289-2.041-1.179zM18.759 10.103c-0.238-0.889 0.289-1.803 1.178-2.041s1.803 0.289 2.041 1.178c0.238 0.889-0.289 1.803-1.179 2.041s-1.803-0.289-2.041-1.178zM18.721 22.101c-0.238-0.889 0.289-1.803 1.179-2.041s1.803 0.289 2.041 1.179c0.238 0.889-0.289 1.803-1.179 2.041s-1.803-0.289-2.041-1.179zM14.058 8.807c-0.238-0.889 0.289-1.803 1.179-2.041s1.803 0.289 2.041 1.178c0.238 0.889-0.289 1.803-1.179 2.041s-1.803-0.289-2.041-1.178z"></path>
</svg>
