<!-- Generated by IcoMoon.io -->
<svg version="1.1" xmlns="http://www.w3.org/2000/svg" width="32" height="32" viewBox="0 0 32 32">
<title>color-background-regular</title>
<path d="M15.123 17.325c-0.251 0.545-0.456 1.184-0.456 1.841 0 0.98 0.383 1.901 1.033 2.552 0.581 0.586 1.386 0.948 2.276 0.948 0.008 0 0.017-0 0.025-0h-0.001c1.961 0 3.333-1.645 3.333-3.5 0-0.657-0.205-1.296-0.456-1.841-0.276-0.579-0.575-1.075-0.917-1.538l0.018 0.026c-0.316-0.44-0.631-0.817-0.865-1.083l-0.409-0.44c-0.181-0.179-0.43-0.29-0.705-0.29-0.276 0-0.526 0.112-0.707 0.293l-0.007 0.007c-0.077 0.083-0.285 0.301-0.4 0.431-0.233 0.265-0.548 0.64-0.865 1.083-0.323 0.437-0.622 0.933-0.873 1.456l-0.024 0.056zM18.353 16.979c0.269 0.375 0.523 0.781 0.707 1.181 0.187 0.407 0.273 0.747 0.273 1.007 0 0.921-0.641 1.5-1.333 1.5-0.333 0-0.656-0.133-0.9-0.377-0.261-0.26-0.433-0.645-0.433-1.123 0-0.259 0.087-0.6 0.273-1.007 0.183-0.4 0.437-0.807 0.707-1.18 0.119-0.167 0.24-0.324 0.353-0.467 0.115 0.143 0.235 0.299 0.353 0.467zM9 1.333c-0.552 0-1 0.448-1 1v0 2.341c-0.045 0.039-0.085 0.077-0.124 0.116l-5.657 5.657c-0.482 0.483-0.781 1.149-0.781 1.885s0.298 1.403 0.781 1.885l4.713 4.715c0.483 0.483 1.149 0.781 1.886 0.781s1.403-0.299 1.886-0.781l5.656-5.657c0.482-0.483 0.781-1.149 0.781-1.885s-0.298-1.403-0.781-1.885l-4.712-4.715c-0.427-0.429-1-0.712-1.638-0.77l-0.010-0.001v-1.687c0-0.552-0.448-1-1-1v0zM8 7.495v0.839c0 0.552 0.448 1 1 1s1-0.448 1-1v0-2.28c0.091 0.036 0.168 0.087 0.232 0.152l4.715 4.713c0.107 0.108 0.178 0.252 0.192 0.412l0 0.002h-10.977l3.839-3.839zM8.347 17.519l-4.171-4.171h9.285l-4.172 4.171c-0.121 0.121-0.287 0.195-0.471 0.195s-0.351-0.075-0.471-0.195v0zM2.667 23.333v-6.784l2 2v4.784c0 0.736 0.597 1.333 1.333 1.333v0h20c0.736 0 1.333-0.597 1.333-1.333v0-14.667c0-0.736-0.597-1.333-1.333-1.333v0h-9.921l-2-2h11.921c1.841 0 3.333 1.492 3.333 3.333v0 14.667c0 1.841-1.492 3.333-3.333 3.333v0h-20c-1.841 0-3.333-1.492-3.333-3.333v0z"></path>
</svg>
