<!-- Generated by IcoMoon.io -->
<svg version="1.1" xmlns="http://www.w3.org/2000/svg" width="32" height="32" viewBox="0 0 32 32">
<title>color-background-accent</title>
<path d="M4 23.333v-5.451l1.984 1.984c0.724 0.724 1.724 1.172 2.829 1.172s2.105-0.448 2.829-1.172l1.827-1.827c-0.083 0.353-0.135 0.733-0.135 1.127 0 2.476 1.859 4.833 4.667 4.833s4.667-2.357 4.667-4.833c0-0.924-0.285-1.76-0.577-2.397-0.315-0.664-0.657-1.232-1.047-1.763l0.021 0.030c-0.323-0.446-0.635-0.833-0.964-1.204l0.014 0.016-0.011-0.013-0.433-0.467-0.019-0.017c-0.363-0.365-0.846-0.609-1.385-0.67l-0.011-0.001c0.137-0.387 0.217-0.834 0.217-1.299 0-1.105-0.448-2.106-1.173-2.829l-1.884-1.885h10.587c1.105 0 2 0.895 2 2v0 14.667c0 1.105-0.895 2-2 2v0h-20c-1.105 0-2-0.895-2-2v0z"></path>
</svg>
