<!-- Generated by IcoMoon.io -->
<svg version="1.1" xmlns="http://www.w3.org/2000/svg" width="32" height="32" viewBox="0 0 32 32">
<title>color-background-accent</title>
<path d="M17.303 8.562c0.779 0.779 1.169 1.799 1.172 2.82 0.43 0.089 0.841 0.301 1.175 0.635l0.017 0.017 0.434 0.468 0.011 0.012c0.255 0.289 0.6 0.701 0.949 1.187 0.345 0.481 0.726 1.077 1.027 1.734 0.292 0.637 0.577 1.474 0.577 2.398 0 2.475-1.859 4.833-4.667 4.833-2.677 0-4.492-2.144-4.655-4.489l-1.698 1.698c-1.562 1.562-4.095 1.562-5.657 0l-1.99-1.99v5.447c0 1.105 0.895 2 2 2h20c1.105 0 2-0.895 2-2v-14.667c0-1.105-0.895-2-2-2h-10.592l1.895 1.895z"></path>
</svg>
