<!-- Generated by IcoMoon.io -->
<svg version="1.1" xmlns="http://www.w3.org/2000/svg" width="32" height="32" viewBox="0 0 32 32">
<title>color-background</title>
<path d="M2.666 16.552v6.781c0 1.841 1.492 3.333 3.333 3.333h20c1.841 0 3.333-1.492 3.333-3.333v-14.667c0-1.841-1.492-3.333-3.333-3.333h-11.925l2 2h9.925c0.736 0 1.333 0.597 1.333 1.333v14.667c0 0.736-0.597 1.333-1.333 1.333h-20c-0.736 0-1.333-0.597-1.333-1.333v-4.781l-2-2z"></path>
<path d="M8 2.333c0-0.552 0.448-1 1-1s1 0.448 1 1v1.687c0.601 0.054 1.187 0.31 1.647 0.77l4.714 4.714c1.041 1.041 1.041 2.73 0 3.771l-5.657 5.657c-1.041 1.041-2.73 1.041-3.771 0l-4.714-4.714c-1.041-1.041-1.041-2.73 0-3.771l5.657-5.657c0.040-0.040 0.082-0.079 0.124-0.117v-2.341zM8 8.333v-0.838l-3.853 3.853h10.993c-0.010-0.156-0.075-0.309-0.194-0.429l-4.714-4.714c-0.068-0.068-0.148-0.119-0.233-0.151v2.28c0 0.552-0.448 1-1 1s-1-0.448-1-1zM4.176 13.348l4.171 4.171c0.26 0.26 0.682 0.26 0.943 0l4.171-4.171h-9.285z"></path>
<path d="M14.666 17.833c0-0.658 0.205-1.296 0.456-1.842 0.254-0.554 0.584-1.074 0.899-1.512 0.317-0.441 0.631-0.817 0.865-1.082 0.114-0.129 0.322-0.348 0.399-0.43l0.007-0.008c0.391-0.391 1.024-0.391 1.414 0l0.407 0.438c0.234 0.265 0.549 0.641 0.865 1.082 0.315 0.438 0.644 0.959 0.899 1.512 0.25 0.545 0.456 1.184 0.456 1.842 0 1.854-1.372 3.5-3.333 3.5s-3.333-1.646-3.333-3.5zM17.645 15.646c-0.269 0.374-0.522 0.781-0.706 1.18-0.187 0.408-0.273 0.748-0.273 1.007 0 0.922 0.641 1.5 1.333 1.5s1.333-0.578 1.333-1.5c0-0.259-0.086-0.6-0.273-1.007-0.183-0.399-0.437-0.806-0.706-1.18-0.12-0.167-0.24-0.324-0.354-0.467-0.115 0.143-0.235 0.3-0.354 0.467z"></path>
</svg>
