<!-- Generated by IcoMoon.io -->
<svg version="1.1" xmlns="http://www.w3.org/2000/svg" width="32" height="32" viewBox="0 0 32 32">
<title>color-fill-accent-regular</title>
<path d="M18.871 20.286c-0.009 0.086-0.014 0.185-0.014 0.286v0c0 0.001 0 0.003 0 0.005 0 2.209 1.791 4 4 4 2.034 0 3.714-1.519 3.967-3.484l0.002-0.020c0.547 0.521 0.888 1.257 0.888 2.071v1.714c0 1.578-1.279 2.857-2.857 2.857v0h-17.714c-1.578 0-2.857-1.279-2.857-2.857v0-1.714c0-1.578 1.279-2.857 2.857-2.857v0h1.155l1.259 1.259c0.776 0.775 1.847 1.255 3.030 1.255s2.255-0.48 3.030-1.255v0l1.258-1.259h1.994z"></path>
</svg>
