<!-- Generated by IcoMoon.io -->
<svg version="1.1" xmlns="http://www.w3.org/2000/svg" width="32" height="32" viewBox="0 0 32 32">
<title>color-line</title>
<path d="M5.84 18.671c-1.771 0.088-3.173 1.545-3.173 3.329v0 4c0 1.841 1.492 3.333 3.333 3.333v0h20c1.841 0 3.333-1.492 3.333-3.333v0-4c0-1.841-1.492-3.333-3.333-3.333v0h-7.939l-1.755 1.752c-0.085 0.084-0.173 0.165-0.264 0.243l-0.006 0.005h9.964c0.736 0 1.333 0.597 1.333 1.333v0 4c0 0.736-0.597 1.333-1.333 1.333v0h-20c-0.736 0-1.333-0.597-1.333-1.333v0-4c0-0 0-0.001 0-0.001 0-0.493 0.268-0.924 0.666-1.154l0.006-0.003c-0.004-0.052-0.006-0.113-0.006-0.175 0-0.292 0.047-0.573 0.134-0.836l-0.005 0.019 0.38-1.179zM24.865 3.925c0.776 0.776 1.255 1.848 1.255 3.033 0 1.186-0.481 2.259-1.258 3.035l-9.497 9.481c-0.341 0.34-0.763 0.599-1.235 0.745l-0.021 0.006-5.725 1.719c-0.115 0.036-0.246 0.056-0.383 0.056-0.736 0-1.333-0.597-1.333-1.333 0-0.146 0.024-0.287 0.067-0.419l-0.003 0.009 1.816-5.637c0.147-0.453 0.397-0.867 0.736-1.203l9.509-9.496c0.777-0.776 1.849-1.256 3.034-1.256 1.187 0 2.261 0.481 3.038 1.26l0 0zM20.207 5.337l-9.511 9.495c-0.11 0.109-0.194 0.244-0.243 0.394l-0.002 0.007-1.427 4.429 4.509-1.353c0.165-0.050 0.306-0.136 0.42-0.249l-0 0 9.495-9.48c0.415-0.415 0.672-0.988 0.672-1.621 0-1.266-1.026-2.292-2.292-2.292-0.633 0-1.205 0.256-1.62 0.671v0z"></path>
</svg>
