<!-- Generated by IcoMoon.io -->
<svg version="1.1" xmlns="http://www.w3.org/2000/svg" width="32" height="32" viewBox="0 0 32 32">
<title>column-triple</title>
<path d="M8.317 4c1.289 0 2.333 1.045 2.333 2.333v19.333c0 1.289-1.045 2.333-2.333 2.333v0h-3.333c-1.289 0-2.333-1.045-2.333-2.333v0-19.333c0.001-1.221 0.939-2.222 2.134-2.323l0.009-0.001 0.191-0.009h3.333zM27.019 4c1.289 0 2.333 1.045 2.333 2.333v19.333c0 1.289-1.045 2.333-2.333 2.333v0h-3.333c-1.289 0-2.333-1.045-2.333-2.333v0-19.333c0-1.288 1.045-2.333 2.333-2.333h3.333zM17.651 4c1.289 0 2.333 1.045 2.333 2.333v19.333c0 1.289-1.045 2.333-2.333 2.333v0h-3.333c-1.289 0-2.333-1.045-2.333-2.333v0-19.333c0-1.288 1.045-2.333 2.333-2.333h3.333zM8.317 6h-3.333l-0.076 0.009c-0.149 0.036-0.257 0.167-0.257 0.325 0 0 0 0.001 0 0.001v-0 19.333c0 0.184 0.149 0.333 0.333 0.333h3.333c0.184 0 0.333-0.149 0.333-0.333v0-19.335c0-0.184-0.149-0.333-0.333-0.333v0zM27.019 6h-3.333c-0.184 0-0.333 0.149-0.333 0.333v0 19.333c0 0.185 0.149 0.333 0.333 0.333h3.333c0.184 0 0.333-0.149 0.333-0.333v0-19.333c0-0.184-0.149-0.333-0.333-0.333v0zM17.651 6h-3.333c-0.184 0-0.333 0.149-0.333 0.333v0 19.333c0 0.184 0.149 0.333 0.333 0.333h3.333c0.184 0 0.333-0.149 0.333-0.333v0-19.333c0-0.184-0.149-0.333-0.333-0.333v0z"></path>
</svg>
