<!-- Generated by IcoMoon.io -->
<svg version="1.1" xmlns="http://www.w3.org/2000/svg" width="32" height="32" viewBox="0 0 32 32">
<title>column-triple-edit</title>
<path d="M8.316 4.001c1.289 0 2.333 1.045 2.333 2.333v19.333c0 1.289-1.045 2.333-2.333 2.333h-3.333c-1.289 0-2.333-1.045-2.333-2.333v-19.333c0-1.224 0.943-2.228 2.142-2.326l0.191-0.008h3.333zM8.316 6.001h-3.333l-0.076 0.009c-0.147 0.035-0.257 0.167-0.257 0.325v19.333c0 0.184 0.149 0.333 0.333 0.333h3.333c0.184 0 0.333-0.149 0.333-0.333v-19.333c0-0.184-0.149-0.333-0.333-0.333zM27.018 4.001c1.289 0 2.333 1.045 2.333 2.333v8.687c-0.635-0.273-1.321-0.388-2-0.346v-8.341c0-0.184-0.149-0.333-0.333-0.333h-3.333c-0.184 0-0.333 0.149-0.333 0.333v10.788l-2 2v-12.788c0-1.289 1.045-2.333 2.333-2.333h3.333zM27.351 25.514l2-2v2.154c0 1.289-1.045 2.333-2.333 2.333h-2.154l2-2h0.154c0.184 0 0.333-0.149 0.333-0.333v-0.154zM19.983 6.333v14.157l-2 2v-16.157c0-0.184-0.149-0.333-0.333-0.333h-3.333c-0.184 0-0.333 0.149-0.333 0.333v19.333c0 0.184 0.149 0.333 0.333 0.333h1.072c-0.009 0.034-0.018 0.068-0.027 0.102l-0.474 1.898h-0.571c-1.289 0-2.333-1.045-2.333-2.333v-19.333c0-1.289 1.045-2.333 2.333-2.333h3.333c1.289 0 2.333 1.045 2.333 2.333zM25.467 16.893l-7.87 7.87c-0.459 0.459-0.784 1.034-0.942 1.663l-0.61 2.441c-0.265 1.061 0.696 2.023 1.758 1.758l2.441-0.61c0.63-0.157 1.205-0.483 1.663-0.942l7.87-7.87c1.19-1.19 1.19-3.12 0-4.31s-3.12-1.19-4.31 0z"></path>
</svg>
