<!-- Generated by IcoMoon.io -->
<svg version="1.1" xmlns="http://www.w3.org/2000/svg" width="32" height="32" viewBox="0 0 32 32">
<title>column-double-compare-regular</title>
<path d="M11.2 4.8h-6.4c-1.767 0-3.2 1.433-3.2 3.2v0 16c0 1.767 1.433 3.2 3.2 3.2v0h6.4c1.767 0 3.2-1.433 3.2-3.2v0-16c0-1.767-1.433-3.2-3.2-3.2v0zM4.8 6.4h6.4c0.884 0 1.6 0.716 1.6 1.6v0 1.6h-9.6v-1.6c0-0.884 0.716-1.6 1.6-1.6v0zM11.2 25.6h-6.4c-0.884 0-1.6-0.716-1.6-1.6v0-12.8h9.6v12.8c0 0.884-0.716 1.6-1.6 1.6v0zM27.2 4.8h-6.4c-1.767 0-3.2 1.433-3.2 3.2v0 16c0 1.767 1.433 3.2 3.2 3.2v0h6.4c1.767 0 3.2-1.433 3.2-3.2v0-16c0-1.767-1.433-3.2-3.2-3.2v0zM20.8 6.4h6.4c0.884 0 1.6 0.716 1.6 1.6v0 8h-9.6v-8c0-0.884 0.716-1.6 1.6-1.6v0zM27.2 25.6h-6.4c-0.884 0-1.6-0.716-1.6-1.6v0-3.2h9.6v3.2c0 0.884-0.716 1.6-1.6 1.6v0z"></path>
</svg>
