<!-- Generated by IcoMoon.io -->
<svg version="1.1" xmlns="http://www.w3.org/2000/svg" width="32" height="32" viewBox="0 0 32 32">
<title>column-arrow-right</title>
<path d="M6.4 4.8h1.6c0.884 0 1.6 0.716 1.6 1.6v0 6.4h1.6v-6.4c0-1.767-1.433-3.2-3.2-3.2v0h-1.6c-1.767 0-3.2 1.433-3.2 3.2v0 17.6c0 1.767 1.433 3.2 3.2 3.2v0h1.6c1.767 0 3.2-1.433 3.2-3.2v0-6.4h-1.6v6.4c0 0.884-0.716 1.6-1.6 1.6v0h-1.6c-0.884 0-1.6-0.716-1.6-1.6v0-17.6c0-0.884 0.716-1.6 1.6-1.6v0zM24 3.2c-1.767 0-3.2 1.433-3.2 3.2v0 17.6c0 1.767 1.433 3.2 3.2 3.2v0h1.6c1.767 0 3.2-1.433 3.2-3.2v0-17.6c0-1.767-1.433-3.2-3.2-3.2v0h-1.6zM25.6 4.8c0.884 0 1.6 0.716 1.6 1.6v0 17.6c0 0.884-0.716 1.6-1.6 1.6v0h-1.6c-0.884 0-1.6-0.716-1.6-1.6v0-17.6c0-0.884 0.716-1.6 1.6-1.6v0h1.6zM14.634 11.434c0.145-0.145 0.345-0.235 0.566-0.235s0.422 0.090 0.566 0.235l3.2 3.2c0.145 0.145 0.235 0.345 0.235 0.566s-0.090 0.422-0.235 0.566l-3.2 3.2c-0.145 0.145-0.345 0.235-0.566 0.235-0.442 0-0.801-0.359-0.801-0.801 0-0.221 0.090-0.421 0.235-0.566v0l1.835-1.834h-7.669c-0.442 0-0.8-0.358-0.8-0.8s0.358-0.8 0.8-0.8v0h7.669l-1.835-1.834c-0.145-0.145-0.235-0.345-0.235-0.566s0.090-0.422 0.235-0.566l0-0z"></path>
</svg>
