<!-- Generated by IcoMoon.io -->
<svg version="1.1" xmlns="http://www.w3.org/2000/svg" width="32" height="32" viewBox="0 0 32 32">
<title>comment-multiple</title>
<path d="M6.5 7.112v-0.112c0-2.209 1.791-4 4-4v0h12c3.59 0 6.5 2.91 6.5 6.5v0 7.5c0 2.209-1.791 4-4 4v0 0.5c0 2.485-2.015 4.5-4.5 4.5v0h-5.64l-4.403 3.65c-0.977 0.812-2.457 0.117-2.457-1.153v-2.497h-1c-2.209 0-4-1.791-4-4v0-10.5c0.001-2.131 1.481-3.915 3.47-4.382l0.030-0.006zM8.5 7h12c2.485 0 4.5 2.015 4.5 4.5v0 7.5c1.105 0 2-0.895 2-2v0-7.5c0-2.485-2.015-4.5-4.5-4.5v0h-12c-1.105 0-2 0.895-2 2v0zM7.5 9c-1.381 0-2.5 1.119-2.5 2.5v0 10.5c0 1.105 0.895 2 2 2v0h2c0.552 0 1 0.448 1 1v0 2.432l3.862-3.202c0.172-0.143 0.395-0.23 0.638-0.23h6c1.381 0 2.5-1.119 2.5-2.5v0-10c0-1.381-1.119-2.5-2.5-2.5v0h-13z"></path>
</svg>
