<!-- Generated by IcoMoon.io -->
<svg version="1.1" xmlns="http://www.w3.org/2000/svg" width="32" height="32" viewBox="0 0 32 32">
<title>comment-mention</title>
<path d="M24 2.665c-2.946 0-5.334 2.388-5.334 5.334s2.388 5.334 5.334 5.334c1.102 0 2.117-0.322 2.962-0.888 0.306-0.205 0.72-0.123 0.925 0.183s0.123 0.72-0.183 0.925c-1.065 0.713-2.338 1.113-3.704 1.113-3.682 0-6.667-2.985-6.667-6.667s2.985-6.667 6.667-6.667c3.682 0 6.667 2.985 6.667 6.667l-0 0.013v0.987c0 1.289-1.045 2.333-2.333 2.333-0.803 0-1.511-0.405-1.931-1.023-0.606 0.63-1.459 1.023-2.403 1.023-1.841 0-3.333-1.492-3.333-3.333s1.492-3.333 3.333-3.333c0.75 0 1.443 0.248 2 0.666 0-0.368 0.299-0.666 0.667-0.666s0.667 0.298 0.667 0.667v3.667c0 0.552 0.448 1 1 1s1-0.448 1-1v-1.007l0-0.011c-0.010-2.937-2.394-5.316-5.334-5.316zM22.001 7.999c0 1.105 0.895 2 2 2s2-0.895 2-2c0-1.105-0.895-2-2-2s-2 0.895-2 2z"></path>
<path d="M29.333 19.666v-5.704c-0.594 0.531-1.267 0.975-2 1.312v4.392c0 1.289-1.045 2.333-2.333 2.333h-8.315l-6.685 5.001-0.001-5.001h-2.998c-1.289 0-2.333-1.045-2.333-2.333v-11.333c0-1.289 1.045-2.333 2.333-2.333h9.252c0.183-0.71 0.46-1.381 0.818-2h-10.070c-2.393 0-4.333 1.94-4.333 4.333v11.333c0 2.393 1.94 4.333 4.333 4.333h0.999l0.001 3.667c0 0.36 0.116 0.71 0.332 0.998 0.551 0.737 1.596 0.888 2.333 0.337l6.685-5.001h7.65c2.393 0 4.333-1.94 4.333-4.333z"></path>
</svg>
