<!-- Generated by IcoMoon.io -->
<svg version="1.1" xmlns="http://www.w3.org/2000/svg" width="32" height="32" viewBox="0 0 32 32">
<title>comment-checkmark</title>
<path d="M16.030 3.998c-0.396 0.618-0.715 1.289-0.945 2.001l-8.085 0.001c-1.289 0-2.333 1.045-2.333 2.333v11.333c0 1.289 1.045 2.333 2.333 2.333h2.998l0.001 5.001 6.685-5.001h8.315c1.289 0 2.333-1.045 2.333-2.333l0.001-3.31c0.735-0.383 1.407-0.868 2-1.437l-0.001 4.747c0 2.393-1.94 4.333-4.333 4.333h-7.65l-6.685 5.001c-0.737 0.551-1.782 0.401-2.333-0.336-0.216-0.288-0.332-0.638-0.332-0.998l-0.001-3.667h-0.999c-2.393 0-4.333-1.94-4.333-4.333v-11.333c0-2.393 1.94-4.333 4.333-4.333l9.030-0.002zM23.333 1.333c4.050 0 7.333 3.283 7.333 7.333s-3.283 7.333-7.333 7.333c-4.050 0-7.333-3.283-7.333-7.333s3.283-7.333 7.333-7.333zM26.862 5.529l-5.457 5.456-1.539-2.052c-0.221-0.295-0.639-0.354-0.933-0.133s-0.354 0.639-0.133 0.933l2 2.667c0.243 0.325 0.718 0.358 1.005 0.071l6-6c0.26-0.26 0.26-0.682 0-0.943s-0.683-0.26-0.943 0z"></path>
</svg>
