<!-- Generated by IcoMoon.io -->
<svg version="1.1" xmlns="http://www.w3.org/2000/svg" width="32" height="32" viewBox="0 0 32 32">
<title>comment-multiple-link</title>
<path d="M6.678 6.678c0.165-2.243 2.037-4.012 4.322-4.012h12c3.498 0 6.333 2.836 6.333 6.333v8c0 0.473-0.076 0.929-0.216 1.355-0.561-0.365-1.182-0.643-1.846-0.817 0.041-0.173 0.062-0.353 0.062-0.538v-8c0-2.393-1.94-4.333-4.333-4.333h-12c-1.175 0-2.148 0.869-2.31 2h12.31c2.393 0 4.333 1.94 4.333 4.333v6.333h-2v-6.333c0-1.289-1.045-2.333-2.333-2.333h-14c-1.289 0-2.333 1.045-2.333 2.333v10c0 1.289 1.045 2.333 2.333 2.333h1.667v3.667l4.889-3.667h1.12c-0.006 0.11-0.009 0.221-0.009 0.333 0 0.577 0.077 1.136 0.222 1.667h-0.666l-4.889 3.667c-1.099 0.824-2.667 0.040-2.667-1.333v-2.346c-2.237-0.17-4-2.040-4-4.321v-10c0-2.285 1.769-4.157 4.012-4.322zM30.667 23.667c0-2.761-2.239-5-5-5l-0.136 0.009c-0.488 0.066-0.864 0.485-0.864 0.991 0 0.552 0.448 1 1 1l0.205 0.007c1.561 0.106 2.795 1.405 2.795 2.993 0 1.657-1.343 3-3 3l-0.005 0.006-0.136 0.010c-0.488 0.069-0.862 0.489-0.86 0.995 0.003 0.552 0.452 0.998 1.005 0.995v-0.006l0.265-0.007c2.634-0.138 4.73-2.321 4.73-4.993zM22 19.667c0-0.552-0.448-1-1-1l-0.266 0.007c-2.638 0.138-4.734 2.321-4.734 4.993 0 2.761 2.239 5 5 5l0.136-0.009c0.488-0.066 0.864-0.485 0.864-0.991 0-0.552-0.448-1-1-1l-0.205-0.007c-1.561-0.106-2.795-1.405-2.795-2.993 0-1.657 1.343-3 3-3l0.136-0.009c0.488-0.066 0.864-0.485 0.864-0.991zM26.667 23.667c0-0.552-0.448-1-1-1h-4.667l-0.136 0.009c-0.488 0.066-0.864 0.485-0.864 0.991 0 0.552 0.448 1 1 1h4.667l0.136-0.009c0.488-0.066 0.864-0.485 0.864-0.991z"></path>
</svg>
