<!-- Generated by IcoMoon.io -->
<svg version="1.1" xmlns="http://www.w3.org/2000/svg" width="32" height="32" viewBox="0 0 32 32">
<title>comment-off-regular</title>
<path d="M22.821 24l5.089 5.089c0.151 0.151 0.359 0.244 0.589 0.244 0.46 0 0.833-0.373 0.833-0.833 0-0.23-0.093-0.439-0.244-0.589v0l-25-25c-0.151-0.151-0.359-0.244-0.589-0.244-0.46 0-0.833 0.373-0.833 0.833 0 0.23 0.093 0.438 0.244 0.589l1.25 1.25c-0.921 0.88-1.494 2.117-1.494 3.489 0 0.002 0 0.004 0 0.006v-0 10.333c0 2.669 2.164 4.833 4.833 4.833v0h0.5v3.88c0 1.216 1.371 1.927 2.365 1.225l7.234-5.105h5.223zM21.155 22.333h-4.086l-7.402 5.225v-5.225h-2.167c-1.749 0-3.167-1.418-3.167-3.167v0-10.333c0-0.913 0.387-1.737 1.007-2.315l15.814 15.815zM7.535 4l1.667 1.667h15.298c1.749 0 3.167 1.418 3.167 3.167v0 10.333c0 0 0 0 0 0 0 1.334-0.825 2.476-1.993 2.943l-0.021 0.008 1.247 1.247c1.465-0.848 2.434-2.408 2.434-4.195 0-0.001 0-0.002 0-0.003v0-10.333c0-2.669-2.164-4.833-4.833-4.833v0h-16.965z"></path>
</svg>
