<!-- Generated by IcoMoon.io -->
<svg version="1.1" xmlns="http://www.w3.org/2000/svg" width="32" height="32" viewBox="0 0 32 32">
<title>comment-lightning</title>
<path d="M30.667 8.667c0 4.050-3.283 7.333-7.333 7.333s-7.333-3.283-7.333-7.333c0-4.050 3.283-7.333 7.333-7.333s7.333 3.283 7.333 7.333zM24.705 4h-1.909c-0.278 0-0.527 0.172-0.624 0.433l-1.5 4c-0.163 0.436 0.159 0.901 0.624 0.901h1.038l-1.030 3.091c-0.149 0.447 0.184 0.909 0.655 0.909 0.234 0 0.452-0.118 0.579-0.314l3.5-5.385c0.271-0.417-0.028-0.968-0.525-0.968h-0.846l0.662-1.766c0.163-0.436-0.159-0.901-0.624-0.901zM27.333 19.667v-3.31c0.735-0.383 1.408-0.868 2-1.437v4.746c0 2.393-1.94 4.333-4.333 4.333h-7.65l-6.685 5.001c-0.737 0.551-1.782 0.401-2.333-0.336-0.216-0.288-0.332-0.638-0.332-0.998l-0.001-3.667h-0.999c-2.393 0-4.333-1.94-4.333-4.333v-11.334c0-2.393 1.94-4.333 4.333-4.333h9.029c-0.395 0.618-0.715 1.289-0.944 2h-8.085c-1.289 0-2.333 1.045-2.333 2.333v11.334c0 1.289 1.045 2.333 2.333 2.333h2.998l0.001 5.001 6.685-5.001h8.315c1.289 0 2.333-1.045 2.333-2.333z"></path>
</svg>
