<!-- Generated by IcoMoon.io -->
<svg version="1.1" xmlns="http://www.w3.org/2000/svg" width="32" height="32" viewBox="0 0 32 32">
<title>comment-multiple</title>
<path d="M6.678 6.678c0.165-2.243 2.037-4.012 4.322-4.012h12c3.498 0 6.333 2.836 6.333 6.333v8c0 2.285-1.769 4.157-4.012 4.322-0.165 2.243-2.037 4.012-4.322 4.012h-6.778l-4.889 3.667c-1.099 0.824-2.667 0.040-2.667-1.333v-2.346c-2.237-0.17-4-2.040-4-4.321v-10c0-2.285 1.769-4.157 4.012-4.322zM8.69 6.667h12.31c2.393 0 4.333 1.94 4.333 4.333v8.31c1.131-0.162 2-1.134 2-2.31v-8c0-2.393-1.94-4.333-4.333-4.333h-12c-1.175 0-2.148 0.869-2.31 2zM7 23.333h1.667v3.667l4.889-3.667h7.444c1.289 0 2.333-1.045 2.333-2.333v-10c0-1.289-1.045-2.333-2.333-2.333h-14c-1.289 0-2.333 1.045-2.333 2.333v10c0 1.289 1.045 2.333 2.333 2.333z"></path>
</svg>
