<!-- Generated by IcoMoon.io -->
<svg version="1.1" xmlns="http://www.w3.org/2000/svg" width="32" height="32" viewBox="0 0 32 32">
<title>comment-off</title>
<path d="M4.374 2.96c-0.391-0.391-1.024-0.391-1.414-0s-0.391 1.024-0 1.414l0.936 0.936c-0.761 0.781-1.229 1.847-1.229 3.023v11.333c0 2.393 1.94 4.333 4.333 4.333h0.999l0.001 3.667c0 0.36 0.116 0.71 0.332 0.998 0.551 0.737 1.596 0.888 2.333 0.336l6.685-5.001h5.235l5.040 5.041c0.391 0.391 1.024 0.391 1.414 0s0.391-1.024 0-1.414l-24.666-24.667zM20.585 22h-3.901l-6.685 5.001-0.001-5.001h-2.998c-1.289 0-2.333-1.045-2.333-2.333v-11.333c0-0.624 0.245-1.19 0.643-1.609l15.275 15.276z"></path>
<path d="M27.333 19.667c0 0.926-0.539 1.726-1.321 2.103l1.458 1.458c1.126-0.783 1.863-2.086 1.863-3.561v-11.333c0-2.393-1.94-4.333-4.333-4.333h-16.757l2 2h14.757c1.289 0 2.333 1.045 2.333 2.333v11.333z"></path>
</svg>
