<!-- Generated by IcoMoon.io -->
<svg version="1.1" xmlns="http://www.w3.org/2000/svg" width="32" height="32" viewBox="0 0 32 32">
<title>communication-person</title>
<path d="M16 6c-6.259 0-11.333 5.074-11.333 11.333 0 3.126 1.265 5.955 3.312 8.007 0.39 0.391 0.39 1.024-0.001 1.414s-1.024 0.39-1.414-0.001c-2.407-2.411-3.897-5.742-3.897-9.42 0-7.364 5.97-13.333 13.333-13.333s13.333 5.97 13.333 13.333c0 1.642-0.297 3.214-0.84 4.667h-1.093c0.081-0.075 0.16-0.154 0.236-0.234 0.845-0.894 1.364-2.104 1.364-3.432s-0.52-2.539-1.365-3.433c-0.219-0.232-0.461-0.444-0.722-0.631-1.337-4.771-5.717-8.269-10.914-8.269zM19 18.333c0-0.57 0.096-1.12 0.273-1.633-0.295-1.539-1.649-2.701-3.273-2.701-1.841 0-3.333 1.492-3.333 3.333s1.492 3.333 3.333 3.333c1.334 0 2.485-0.784 3.018-1.916-0.011-0.138-0.017-0.277-0.017-0.418zM14.667 17.333c0-0.736 0.597-1.333 1.333-1.333s1.333 0.597 1.333 1.333c0 0.736-0.597 1.333-1.333 1.333s-1.333-0.597-1.333-1.333zM21.709 13.889c0.601-0.311 1.273-0.503 1.986-0.546-1.444-2.778-4.348-4.676-7.695-4.676-4.786 0-8.667 3.88-8.667 8.667 0 2.394 0.972 4.564 2.541 6.131 0.391 0.39 1.024 0.39 1.414-0.001s0.39-1.024-0.001-1.414c-1.209-1.208-1.955-2.874-1.955-4.716 0-3.682 2.985-6.667 6.667-6.667 2.421 0 4.541 1.291 5.709 3.222zM26.667 15.816c-0.524-0.555-1.219-0.946-2.001-1.089-0.216-0.040-0.438-0.060-0.665-0.060-1.425 0-2.66 0.813-3.267 2-0.256 0.5-0.4 1.067-0.4 1.667 0 0.112 0.005 0.224 0.015 0.333 0.168 1.869 1.739 3.333 3.652 3.333 0.227 0 0.45-0.021 0.666-0.060 0.782-0.143 1.477-0.535 2.001-1.089 0.62-0.657 1-1.542 1-2.517s-0.381-1.861-1.001-2.518zM19.334 23.333l-0.019 0c-0.052 0-0.103 0.003-0.153 0.007-1.024 0.088-1.828 0.946-1.828 1.993v0.667c0 0.679 0.166 1.364 0.484 2.005 0.373 0.752 0.954 1.444 1.723 2.001 1.115 0.807 2.623 1.327 4.461 1.327 4.188 0 6.668-2.705 6.668-5.333v-0.667c0-1.105-0.896-2-2-2h-9.335z"></path>
</svg>
