<!-- Generated by IcoMoon.io -->
<svg version="1.1" xmlns="http://www.w3.org/2000/svg" width="32" height="32" viewBox="0 0 32 32">
<title>comment-edit</title>
<path d="M2.667 19.667c0 2.393 1.94 4.333 4.333 4.333v0h1v3.667c0.001 0.92 0.747 1.666 1.667 1.666 0.377 0 0.724-0.125 1.003-0.335l-0.004 0.003 2.833-2.12 0.528-2.111c0.095-0.381 0.236-0.747 0.416-1.093l-4.443 3.327-0.001-5.003h-2.999c-1.289 0-2.333-1.045-2.333-2.333v0-11.333c0-1.288 1.045-2.333 2.333-2.333h18c1.288 0 2.333 1.045 2.333 2.333v5.127c0.784 0.196 1.461 0.582 2.001 1.108l-0.001-0.001v-6.233c0-2.393-1.94-4.333-4.333-4.333v0h-18c-2.393 0-4.333 1.94-4.333 4.333v0 11.333zM24.131 15.56l-7.869 7.869c-0.446 0.446-0.775 1.008-0.937 1.638l-0.005 0.025-0.611 2.441c-0.027 0.106-0.043 0.227-0.043 0.352 0 0.8 0.649 1.449 1.449 1.449 0.125 0 0.247-0.016 0.363-0.046l-0.010 0.002 2.44-0.609c0.655-0.167 1.218-0.496 1.664-0.943l7.869-7.869c0.551-0.551 0.892-1.313 0.892-2.155 0-1.683-1.364-3.047-3.047-3.047-0.841 0-1.603 0.341-2.155 0.893v0z"></path>
</svg>
