<!-- Generated by IcoMoon.io -->
<svg version="1.1" xmlns="http://www.w3.org/2000/svg" width="32" height="32" viewBox="0 0 32 32">
<title>comment-note-regular</title>
<path d="M16 4c0-1.473 1.194-2.667 2.667-2.667v0h9.333c1.473 0 2.667 1.194 2.667 2.667v0 8c0 1.473-1.194 2.667-2.667 2.667v0h-9.333c-1.473 0-2.667-1.194-2.667-2.667v0-8zM19.333 5.333c-0.368 0-0.667 0.298-0.667 0.667s0.298 0.667 0.667 0.667v0h8c0.368 0 0.667-0.298 0.667-0.667s-0.298-0.667-0.667-0.667v0h-8zM19.333 9.333c-0.368 0-0.667 0.298-0.667 0.667s0.298 0.667 0.667 0.667v0h8c0.368 0 0.667-0.298 0.667-0.667s-0.298-0.667-0.667-0.667v0h-8z"></path>
<path d="M7 4h7.667v2h-7.667c-1.289 0-2.333 1.045-2.333 2.333v0 11.333c0 1.288 1.045 2.333 2.333 2.333h2.999v5l6.687-5h8.315c1.289 0 2.333-1.045 2.333-2.333v0-3.667h0.667c0.467 0 0.916-0.080 1.333-0.227v3.893c0 2.393-1.94 4.333-4.333 4.333v0h-7.651l-6.683 5c-0.275 0.207-0.622 0.332-0.999 0.332-0.92 0-1.666-0.746-1.667-1.666v-3.667h-1c-0 0-0.001 0-0.001 0-2.393 0-4.333-1.94-4.333-4.333v0-11.333c0-2.393 1.94-4.333 4.333-4.333v0z"></path>
</svg>
