<!-- Generated by IcoMoon.io -->
<svg version="1.1" xmlns="http://www.w3.org/2000/svg" width="32" height="32" viewBox="0 0 32 32">
<title>comment-edit</title>
<path d="M2.667 19.667c0 2.393 1.94 4.333 4.333 4.333h0.999l0.001 3.667c0 0.36 0.116 0.71 0.332 0.998 0.551 0.737 1.596 0.888 2.333 0.336l2.834-2.12 0.528-2.112c0.095-0.381 0.235-0.747 0.416-1.092l-4.443 3.324-0.001-5.001h-2.998c-1.289 0-2.333-1.045-2.333-2.333v-11.333c0-1.289 1.045-2.333 2.333-2.333h18c1.289 0 2.333 1.045 2.333 2.333v5.126c0.73 0.179 1.423 0.548 2 1.107v-6.233c0-2.393-1.94-4.333-4.333-4.333h-18c-2.393 0-4.333 1.94-4.333 4.333v11.333z"></path>
<path d="M24.131 15.559l-7.87 7.87c-0.459 0.459-0.784 1.034-0.942 1.663l-0.61 2.441c-0.265 1.061 0.696 2.023 1.758 1.758l2.441-0.61c0.63-0.157 1.205-0.483 1.663-0.942l7.87-7.87c1.19-1.19 1.19-3.12 0-4.31s-3.12-1.19-4.31 0z"></path>
</svg>
