<!-- Generated by IcoMoon.io -->
<svg version="1.1" xmlns="http://www.w3.org/2000/svg" width="32" height="32" viewBox="0 0 32 32">
<title>comment-regular</title>
<path d="M7.5 5.667c-1.749 0-3.167 1.418-3.167 3.167v0 10.333c0 1.749 1.418 3.167 3.167 3.167v0h2.167v5.225l7.402-5.225h7.431c1.749 0 3.167-1.418 3.167-3.167v0-10.333c0-1.749-1.418-3.167-3.167-3.167v0h-17zM2.667 8.833c0-2.669 2.164-4.833 4.833-4.833v0h17c2.669 0 4.833 2.164 4.833 4.833v0 10.333c0 2.669-2.164 4.833-4.833 4.833v0h-6.902l-7.233 5.105c-0.993 0.701-2.365-0.009-2.365-1.225v-3.88h-0.5c-2.669 0-4.833-2.164-4.833-4.833v0-10.333z"></path>
</svg>
