<!-- Generated by IcoMoon.io -->
<svg version="1.1" xmlns="http://www.w3.org/2000/svg" width="32" height="32" viewBox="0 0 32 32">
<title>comment-multiple-checkmark-regular</title>
<path d="M8.571 6.583c0-1.42 1.151-2.571 2.571-2.571v0h12c2.683 0 4.857 2.175 4.857 4.857v0 7.309c0.629 0.401 1.173 0.852 1.656 1.362l0.004 0.004c0.037-0.223 0.055-0.453 0.055-0.686v-7.989c0-3.629-2.942-6.571-6.571-6.571v0h-12c-2.367 0-4.286 1.919-4.286 4.286v0 0.286h-0.286c-2.367 0-4.286 1.919-4.286 4.286v0 10.274c0 2.367 1.919 4.286 4.286 4.286v0h0.286v2.56c0 1.183 1.354 1.854 2.295 1.137l4.851-3.697h1.162c-0.145-0.501-0.248-1.086-0.289-1.688l-0.001-0.026h-1.161c-0.196 0-0.377 0.066-0.521 0.177l0.002-0.002-4.624 3.522v-2.841c0-0.473-0.384-0.857-0.857-0.857v0h-1.143c-1.42 0-2.571-1.151-2.571-2.571v0-10.274c0-1.42 1.151-2.571 2.571-2.571v0h14.286c1.42 0 2.571 1.151 2.571 2.571v0 3.703c0.587 0 1.16 0.059 1.714 0.171v-3.874c0-2.367-1.919-4.286-4.286-4.286v0h-12.286v-0.286zM30.857 23.429c0-4.103-3.326-7.429-7.429-7.429s-7.429 3.326-7.429 7.429v0c0 4.103 3.326 7.429 7.429 7.429s7.429-3.326 7.429-7.429v0zM27.833 20.167c0.104 0.103 0.168 0.247 0.168 0.405s-0.064 0.301-0.168 0.405v0l-5.714 5.714c-0.103 0.104-0.247 0.168-0.405 0.168s-0.301-0.064-0.405-0.168v0l-2.286-2.286c-0.104-0.104-0.168-0.247-0.168-0.405 0-0.316 0.256-0.572 0.572-0.572 0.158 0 0.301 0.064 0.405 0.168l1.881 1.882 5.31-5.311c0.103-0.104 0.247-0.168 0.405-0.168s0.301 0.064 0.405 0.168v0z"></path>
</svg>
