<!-- Generated by IcoMoon.io -->
<svg version="1.1" xmlns="http://www.w3.org/2000/svg" width="32" height="32" viewBox="0 0 32 32">
<title>comment-multiple-checkmark</title>
<path d="M6.678 6.678c0.165-2.243 2.037-4.012 4.322-4.012h12c3.498 0 6.333 2.836 6.333 6.333v8c0 0.026-0 0.053-0.001 0.079-0.592-0.568-1.265-1.053-1.999-1.436v-6.643c0-2.393-1.94-4.333-4.333-4.333h-12c-1.175 0-2.148 0.869-2.31 2h12.31c2.393 0 4.333 1.94 4.333 4.333v3.899c-0.642-0.152-1.312-0.232-2-0.232v-3.667c0-1.289-1.045-2.333-2.333-2.333h-14c-1.289 0-2.333 1.045-2.333 2.333v10c0 1.289 1.045 2.333 2.333 2.333h1.667v3.667l4.889-3.667h1.111c0 0.688 0.080 1.358 0.232 2h-0.676l-4.889 3.667c-1.099 0.824-2.667 0.040-2.667-1.333v-2.346c-2.237-0.17-4-2.040-4-4.321v-10c0-2.285 1.769-4.157 4.012-4.322zM30.667 23.333c0-4.050-3.283-7.333-7.333-7.333s-7.333 3.283-7.333 7.333c0 4.050 3.283 7.333 7.333 7.333s7.333-3.283 7.333-7.333zM27.805 20.195c0.26 0.26 0.26 0.683 0 0.943l-5.333 5.333c-0.26 0.26-0.683 0.26-0.943 0l-2.667-2.667c-0.26-0.26-0.26-0.683 0-0.943s0.683-0.26 0.943 0l2.195 2.195 4.862-4.862c0.26-0.26 0.683-0.26 0.943 0z"></path>
</svg>
