<!-- Generated by IcoMoon.io -->
<svg version="1.1" xmlns="http://www.w3.org/2000/svg" width="32" height="32" viewBox="0 0 32 32">
<title>communication-person</title>
<path d="M4.667 17.333c0-0.003 0-0.007 0-0.011 0-6.259 5.074-11.333 11.333-11.333 5.578 0 10.214 4.029 11.158 9.336l0.010 0.068c1.105 0.71 1.883 1.846 2.103 3.171l0.004 0.027c0.040-0.415 0.059-0.835 0.059-1.259 0-7.364-5.969-13.333-13.333-13.333s-13.333 5.969-13.333 13.333c0 0.005 0 0.010 0 0.016 0 3.673 1.489 6.998 3.897 9.404l0 0c0.18 0.174 0.425 0.281 0.695 0.281 0.552 0 1-0.448 1-1 0-0.27-0.107-0.515-0.281-0.695l0 0c-2.046-2.044-3.312-4.87-3.312-7.99 0-0.006 0-0.011 0-0.017v0.001zM24.253 14.685c-1.156-3.518-4.412-6.014-8.251-6.014-4.786 0-8.667 3.88-8.667 8.667 0 2.393 0.97 4.559 2.537 6.127l-0-0c0.181 0.181 0.431 0.293 0.707 0.293 0.553 0 1.001-0.448 1.001-1.001 0-0.277-0.112-0.527-0.293-0.708v0c-1.206-1.206-1.953-2.873-1.953-4.714 0-3.682 2.985-6.667 6.667-6.667 2.949 0 5.45 1.914 6.33 4.568l0.014 0.047c0.549-0.322 1.198-0.536 1.891-0.599l0.018-0.001zM12.667 17.333c0-1.841 1.492-3.333 3.333-3.333s3.333 1.492 3.333 3.333v0c0 1.841-1.492 3.333-3.333 3.333s-3.333-1.492-3.333-3.333v0zM16 16c-0.736 0-1.333 0.597-1.333 1.333s0.597 1.333 1.333 1.333v0c0.736 0 1.333-0.597 1.333-1.333s-0.597-1.333-1.333-1.333v0zM28 19.333c0 1.841-1.492 3.333-3.333 3.333s-3.333-1.492-3.333-3.333v0c0-1.841 1.492-3.333 3.333-3.333s3.333 1.492 3.333 3.333v0zM30.667 26.5c0 2.075-1.715 4.167-6 4.167s-6-2.084-6-4.167v-0.137c0-1.307 1.059-2.363 2.364-2.363h7.272c1.307 0 2.364 1.057 2.364 2.363v0.137z"></path>
</svg>
