<!-- Generated by IcoMoon.io -->
<svg version="1.1" xmlns="http://www.w3.org/2000/svg" width="32" height="32" viewBox="0 0 32 32">
<title>comment-note</title>
<path d="M16 4c0-1.473 1.194-2.667 2.667-2.667h9.333c1.473 0 2.667 1.194 2.667 2.667v8c0 1.473-1.194 2.667-2.667 2.667h-9.333c-1.473 0-2.667-1.194-2.667-2.667v-8zM19.333 5.333c-0.368 0-0.667 0.298-0.667 0.667s0.299 0.667 0.667 0.667h8c0.368 0 0.667-0.298 0.667-0.667s-0.299-0.667-0.667-0.667h-8zM19.333 9.333c-0.368 0-0.667 0.298-0.667 0.667s0.299 0.667 0.667 0.667h8c0.368 0 0.667-0.298 0.667-0.667s-0.299-0.667-0.667-0.667h-8zM7 4h7.667v2h-7.667c-1.289 0-2.333 1.045-2.333 2.333v11.333c0 1.289 1.045 2.333 2.333 2.333h2.998l0.001 5.001 6.685-5.001h8.315c1.289 0 2.333-1.045 2.333-2.333v-3.667h0.667c0.467 0 0.916-0.080 1.333-0.228v3.894c0 2.393-1.94 4.333-4.333 4.333h-7.65l-6.685 5.001c-0.737 0.551-1.782 0.401-2.333-0.336-0.216-0.288-0.332-0.638-0.332-0.998l-0.001-3.667h-0.999c-2.393 0-4.333-1.94-4.333-4.333v-11.333c0-2.393 1.94-4.333 4.333-4.333z"></path>
</svg>
