<!-- Generated by IcoMoon.io -->
<svg version="1.1" xmlns="http://www.w3.org/2000/svg" width="32" height="32" viewBox="0 0 32 32">
<title>communication-regular</title>
<path d="M16 6c-0 0-0 0-0 0-6.259 0-11.333 5.074-11.333 11.333 0 3.126 1.266 5.956 3.312 8.007l-0-0c0.174 0.18 0.28 0.424 0.28 0.694 0 0.552-0.448 1-1 1-0.27 0-0.515-0.107-0.695-0.281l0 0c-2.408-2.406-3.897-5.731-3.897-9.404 0-0.006 0-0.011 0-0.017v0.001c0-7.364 5.969-13.333 13.333-13.333s13.333 5.969 13.333 13.333c0 0.005 0 0.010 0 0.016 0 3.673-1.489 6.998-3.897 9.404l-0 0c-0.18 0.174-0.425 0.281-0.695 0.281-0.552 0-1-0.448-1-1 0-0.27 0.107-0.515 0.281-0.695l-0 0c2.047-2.050 3.312-4.881 3.312-8.007 0-6.259-5.074-11.333-11.333-11.333-0 0-0 0-0 0h0zM16 10.667c-3.682 0-6.667 2.985-6.667 6.667 0 1.842 0.747 3.509 1.955 4.716l0 0c0.174 0.18 0.281 0.425 0.281 0.695 0 0.552-0.448 1-1 1-0.27 0-0.515-0.107-0.695-0.281l0 0c-1.57-1.569-2.541-3.736-2.541-6.131 0-4.786 3.88-8.667 8.667-8.667s8.667 3.88 8.667 8.667c0 2.395-0.971 4.563-2.541 6.131l-0 0c-0.178 0.166-0.418 0.268-0.682 0.268-0.552 0-1-0.448-1-1 0-0.264 0.102-0.504 0.269-0.682l-0.001 0.001c1.208-1.207 1.956-2.875 1.956-4.717 0-3.682-2.985-6.667-6.667-6.667-0 0-0.001 0-0.001 0h0zM16 14c-1.841 0-3.333 1.492-3.333 3.333s1.492 3.333 3.333 3.333v0c1.841 0 3.333-1.492 3.333-3.333s-1.492-3.333-3.333-3.333v0zM14.667 17.333c0-0.736 0.597-1.333 1.333-1.333s1.333 0.597 1.333 1.333v0c0 0.736-0.597 1.333-1.333 1.333s-1.333-0.597-1.333-1.333v0z"></path>
</svg>
