<!-- Generated by IcoMoon.io -->
<svg version="1.1" xmlns="http://www.w3.org/2000/svg" width="32" height="32" viewBox="0 0 32 32">
<title>comment-multiple-link-regular</title>
<path d="M6.5 7.112v-0.112c0-2.209 1.791-4 4-4v0h12c3.59 0 6.5 2.91 6.5 6.5v0 7.5c0 0.576-0.122 1.125-0.341 1.62-0.567-0.288-1.226-0.492-1.922-0.576l-0.029-0.003c0.183-0.295 0.292-0.654 0.292-1.038 0-0.001 0-0.002 0-0.003v0-7.5c0-2.485-2.015-4.5-4.5-4.5v0h-12c-1.105 0-2 0.895-2 2v0h12c2.485 0 4.5 2.015 4.5 4.5v0 6.5h-2v-6.5c0-1.381-1.119-2.5-2.5-2.5v0h-13c-1.381 0-2.5 1.119-2.5 2.5v0 10.5c0 1.105 0.895 2 2 2v0h2c0.552 0 1 0.448 1 1v0 2.432l3.862-3.202c0.041-0.034 0.087-0.067 0.135-0.095l0.005-0.003c0.016 0.776 0.18 1.516 0.465 2.193l-4.010 3.325c-0.977 0.809-2.457 0.115-2.457-1.155v-2.496h-1c-2.209 0-4-1.791-4-4v0-10.5c0.001-2.131 1.481-3.915 3.47-4.382l0.030-0.006zM21.5 20.5c0-0.552-0.448-1-1-1v0h-0.5c-2.485 0-4.5 2.015-4.5 4.5s2.015 4.5 4.5 4.5v0h0.5c0.552 0 1-0.448 1-1s-0.448-1-1-1v0h-0.5c-1.381 0-2.5-1.119-2.5-2.5s1.119-2.5 2.5-2.5v0h0.5c0.552 0 1-0.448 1-1v0zM25.5 19.5c-0.552 0-1 0.448-1 1s0.448 1 1 1v0h0.5c1.381 0 2.5 1.119 2.5 2.5s-1.119 2.5-2.5 2.5v0h-0.5c-0.552 0-1 0.448-1 1s0.448 1 1 1v0h0.5c2.485 0 4.5-2.015 4.5-4.5s-2.015-4.5-4.5-4.5v0h-0.5zM20.5 23c-0.552 0-1 0.448-1 1s0.448 1 1 1v0h5c0.552 0 1-0.448 1-1s-0.448-1-1-1v0h-5z"></path>
</svg>
