<!-- Generated by IcoMoon.io -->
<svg version="1.1" xmlns="http://www.w3.org/2000/svg" width="32" height="32" viewBox="0 0 32 32">
<title>component-2-double-tap-swipe-up</title>
<path d="M16 21.356c0.506 0 0.925-0.376 0.991-0.864l0.009-0.136v-14.273l2.96 2.958c0.355 0.355 0.911 0.387 1.302 0.097l0.112-0.097c0.355-0.355 0.387-0.911 0.097-1.302l-0.097-0.112-4.667-4.667c-0.355-0.355-0.911-0.387-1.302-0.097l-0.112 0.097-4.667 4.667c-0.391 0.391-0.391 1.024 0 1.414 0.355 0.355 0.911 0.387 1.302 0.097l0.112-0.097 2.96-2.958v14.273c0 0.552 0.448 1 1 1zM16 29.356c5.155 0 9.333-4.179 9.333-9.333 0-4.349-2.974-8.002-6.999-9.039l-0 2.085c2.906 0.975 4.999 3.72 4.999 6.954 0 4.050-3.283 7.333-7.333 7.333s-7.333-3.283-7.333-7.333c0-3.234 2.094-5.98 5-6.954l-0-2.085c-4.026 1.036-7 4.69-7 9.039 0 5.155 4.179 9.333 9.333 9.333zM16 26.022c3.314 0 6-2.686 6-6 0-2.485-1.511-4.618-3.665-5.529l-0.001 2.28c1.009 0.726 1.666 1.911 1.666 3.249 0 2.209-1.791 4-4 4s-4-1.791-4-4c0-1.339 0.658-2.524 1.668-3.25l-0.001-2.279c-2.155 0.91-3.667 3.043-3.667 5.529 0 3.314 2.686 6 6 6z"></path>
</svg>
