<!-- Generated by IcoMoon.io -->
<svg version="1.1" xmlns="http://www.w3.org/2000/svg" width="32" height="32" viewBox="0 0 32 32">
<title>compass-northwest</title>
<path d="M11.61 9.445c-1.359-0.542-2.707 0.806-2.165 2.165l2.14 5.371c0.623 1.563 1.842 2.814 3.389 3.477l5.767 2.472c1.383 0.593 2.781-0.806 2.189-2.189l-2.472-5.767c-0.663-1.547-1.914-2.766-3.477-3.389l-5.371-2.14zM13.443 16.241l-1.853-4.651 4.651 1.853c1.069 0.426 1.925 1.26 2.379 2.318l2.143 5.001-5.001-2.143c-1.058-0.453-1.892-1.309-2.318-2.379z"></path>
<path d="M16 2.667c-7.364 0-13.333 5.97-13.333 13.333s5.97 13.333 13.333 13.333c7.364 0 13.333-5.97 13.333-13.333s-5.97-13.333-13.333-13.333zM5.667 14.667h-0.922c0.609-5.194 4.729-9.314 9.922-9.922v0.922c0 0.552 0.448 1 1 1s1-0.448 1-1v-0.981c5.504 0.319 9.955 4.567 10.589 9.981h-0.922c-0.552 0-1 0.448-1 1s0.448 1 1 1h0.981c-0.332 5.728-4.919 10.315-10.647 10.647v-0.981c0-0.552-0.448-1-1-1s-1 0.448-1 1v0.922c-5.414-0.635-9.661-5.085-9.981-10.589h0.981c0.552 0 1-0.448 1-1s-0.448-1-1-1z"></path>
</svg>
