<!-- Generated by IcoMoon.io -->
<svg version="1.1" xmlns="http://www.w3.org/2000/svg" width="32" height="32" viewBox="0 0 32 32">
<title>compose</title>
<path d="M29.463 3.749c0.168-0.157 0.273-0.38 0.273-0.627 0-0.473-0.384-0.857-0.857-0.857-0.247 0-0.47 0.105-0.627 0.272l-0 0.001-15.143 15.143-0.533 1.749 1.744-0.537 15.143-15.143zM7.143 3.429c-2.051 0-3.714 1.663-3.714 3.714v0 17.714c0 2.051 1.663 3.714 3.714 3.714v0h17.714c2.051 0 3.714-1.663 3.714-3.714v0-12.053c0-0.473-0.384-0.857-0.857-0.857s-0.857 0.384-0.857 0.857v0 12.053c0 1.105-0.895 2-2 2v0h-17.714c-1.105 0-2-0.895-2-2v0-17.714c0-1.104 0.896-2 2-2h12.051c0.473 0 0.857-0.384 0.857-0.857s-0.384-0.857-0.857-0.857v0h-12.051z"></path>
</svg>
