<!-- Generated by IcoMoon.io -->
<svg version="1.1" xmlns="http://www.w3.org/2000/svg" width="32" height="32" viewBox="0 0 32 32">
<title>compass-northwest-regular</title>
<path d="M11.083 9.238c-1.154-0.443-2.289 0.691-1.846 1.846l2.194 5.709c0.682 1.742 2.034 3.095 3.731 3.762l0.045 0.015 5.709 2.193c1.154 0.443 2.289-0.691 1.846-1.846l-2.194-5.709c-0.682-1.742-2.034-3.095-3.731-3.762l-0.045-0.015-5.709-2.193zM13.031 16.177l-1.962-5.109 5.109 1.962c1.288 0.504 2.288 1.504 2.781 2.759l0.011 0.033 1.962 5.109-5.109-1.962c-1.288-0.504-2.288-1.504-2.781-2.759l-0.011-0.033zM16 2.286c-7.574 0-13.714 6.141-13.714 13.714s6.141 13.714 13.714 13.714 13.714-6.141 13.714-13.714-6.141-13.714-13.714-13.714zM14.857 4.054v0.803c0 0.473 0.384 0.857 0.857 0.857s0.857-0.384 0.857-0.857v0-0.843c5.981 0.28 10.817 4.939 11.375 10.843h-0.803c-0.473 0-0.857 0.384-0.857 0.857s0.384 0.857 0.857 0.857v0h0.843c-0.289 6.173-5.242 11.126-11.415 11.415v-0.843c0-0.473-0.384-0.857-0.857-0.857s-0.857 0.384-0.857 0.857v0 0.803c-5.904-0.558-10.563-5.394-10.843-11.375h0.843c0.473 0 0.857-0.384 0.857-0.857s-0.384-0.857-0.857-0.857v0h-0.803c0.539-5.714 5.088-10.263 10.803-10.803z"></path>
</svg>
