<!-- Generated by IcoMoon.io -->
<svg version="1.1" xmlns="http://www.w3.org/2000/svg" width="32" height="32" viewBox="0 0 32 32">
<title>conference-room</title>
<path d="M15.002 5.184l9.667 2c0.387 0.080 0.665 0.421 0.665 0.816v16c-0 0.401-0.283 0.735-0.659 0.815l-0.005 0.001-9.667 2c-0.051 0.011-0.109 0.017-0.169 0.017-0.46 0-0.833-0.372-0.833-0.832v-20.001c0-0 0-0 0-0.001 0-0.46 0.373-0.833 0.833-0.833 0.060 0 0.118 0.006 0.174 0.018l-0.005-0.001zM12 6.667v1.667h-3.667v15.333h3.667v1.667h-4.5c-0.43-0-0.784-0.326-0.828-0.744l-0-0.004-0.005-0.085v-17c0-0.432 0.328-0.787 0.748-0.829l0.085-0.005h4.5zM15.667 7.024v17.953l8-1.655v-14.643l-8-1.655zM17.667 15c0.552 0 1 0.448 1 1s-0.448 1-1 1v0c-0.552 0-1-0.448-1-1s0.448-1 1-1v0z"></path>
</svg>
