<!-- Generated by IcoMoon.io -->
<svg version="1.1" xmlns="http://www.w3.org/2000/svg" width="32" height="32" viewBox="0 0 32 32">
<title>connected-regular</title>
<path d="M9.406 10.538c-0.621 0.415-1.384 0.663-2.206 0.663-2.209 0-4-1.791-4-4s1.791-4 4-4c2.209 0 4 1.791 4 4 0 0.821-0.248 1.585-0.672 2.22l0.009-0.015 3.254 3.256c0.619-0.415 1.38-0.662 2.2-0.662 0.002 0 0.005 0 0.007 0h-0c0.816 0 1.573 0.243 2.206 0.662l3.256-3.256c-0.416-0.621-0.663-1.384-0.663-2.206 0-2.209 1.791-4 4-4s4 1.791 4 4c0 2.209-1.791 4-4 4-0.821 0-1.585-0.248-2.22-0.672l0.015 0.009-3.254 3.254c0.419 0.634 0.662 1.392 0.662 2.206 0 0.816-0.243 1.573-0.662 2.206l3.256 3.256c0.621-0.416 1.384-0.663 2.206-0.663 2.209 0 4 1.791 4 4s-1.791 4-4 4c-2.209 0-4-1.791-4-4 0-0.821 0.248-1.585 0.672-2.22l-0.009 0.015-3.256-3.256c-0.619 0.415-1.38 0.662-2.2 0.662-0.002 0-0.005 0-0.007 0h0c-0.816 0-1.573-0.243-2.206-0.662l-3.256 3.256c0.415 0.621 0.663 1.384 0.663 2.206 0 2.209-1.791 4-4 4s-4-1.791-4-4c0-2.209 1.791-4 4-4 0.821 0 1.585 0.248 2.22 0.672l-0.015-0.009 3.256-3.256c-0.415-0.619-0.662-1.38-0.662-2.199 0-0.002 0-0.004 0-0.006v0c0-0.816 0.243-1.573 0.662-2.206l-3.254-3.256zM9.6 7.2c0-1.325-1.075-2.4-2.4-2.4s-2.4 1.075-2.4 2.4v0c0 1.325 1.075 2.4 2.4 2.4s2.4-1.075 2.4-2.4v0zM27.2 7.2c0-1.325-1.075-2.4-2.4-2.4s-2.4 1.075-2.4 2.4v0c0 1.325 1.075 2.4 2.4 2.4s2.4-1.075 2.4-2.4v0zM7.2 27.2c1.325 0 2.4-1.075 2.4-2.4s-1.075-2.4-2.4-2.4v0c-1.325 0-2.4 1.075-2.4 2.4s1.075 2.4 2.4 2.4v0zM27.2 24.8c0-1.325-1.075-2.4-2.4-2.4s-2.4 1.075-2.4 2.4v0c0 1.325 1.075 2.4 2.4 2.4s2.4-1.075 2.4-2.4v0zM18.4 16c0-1.325-1.075-2.4-2.4-2.4s-2.4 1.075-2.4 2.4v0c0 1.325 1.075 2.4 2.4 2.4s2.4-1.075 2.4-2.4v0z"></path>
</svg>
