<!-- Generated by IcoMoon.io -->
<svg version="1.1" xmlns="http://www.w3.org/2000/svg" width="32" height="32" viewBox="0 0 32 32">
<title>connector</title>
<path d="M11 5.333c0.506 0 0.925 0.376 0.991 0.864l0.009 0.136v3.698l2.499 3.753c0.082 0.123 0.135 0.262 0.157 0.407l0.011 0.147v5.995c0 0.506-0.376 0.925-0.864 0.991l-0.136 0.009h-1.672l0.001 4.338c0 0.552-0.448 1-1 1-0.506 0-0.925-0.376-0.991-0.864l-0.009-0.136-0.001-4.338-2.66-0.001 0.001 4.343c0 0.552-0.448 1-1 1-0.506 0-0.925-0.376-0.991-0.864l-0.009-0.136-0.001-4.343-1.665 0.001c-0.506 0-0.925-0.376-0.991-0.864l-0.009-0.136v-5.995c0-0.148 0.033-0.293 0.095-0.426l0.072-0.128 2.499-3.753v-3.698c0-0.552 0.448-1 1-1 0.506 0 0.925 0.376 0.991 0.864l0.009 0.136v4c0 0.148-0.033 0.293-0.095 0.426l-0.072 0.128-2.499 3.754v4.692h7.997v-4.692l-2.499-3.754c-0.082-0.123-0.135-0.262-0.157-0.407l-0.011-0.147v-4c0-0.552 0.448-1 1-1zM20.339 5.335h5.994c0.506 0 0.925 0.376 0.991 0.864l0.009 0.136-0.001 4.331h1.001c0.506 0 0.925 0.376 0.991 0.864l0.009 0.136v5.995c0 0.148-0.033 0.293-0.095 0.426l-0.072 0.128-2.499 3.753v3.698c0 0.552-0.448 1-1 1-0.506 0-0.925-0.376-0.991-0.864l-0.009-0.136v-4c0-0.148 0.033-0.293 0.095-0.426l0.072-0.128 2.499-3.754v-4.692h-7.997v4.692l2.499 3.754c0.082 0.123 0.135 0.262 0.157 0.407l0.011 0.147v4c0 0.552-0.448 1-1 1-0.506 0-0.925-0.376-0.991-0.864l-0.009-0.136v-3.698l-2.499-3.753c-0.082-0.123-0.135-0.262-0.157-0.407l-0.011-0.147v-5.995c0-0.506 0.376-0.925 0.864-0.991l0.136-0.009h1.003l0-4.331c0-0.506 0.376-0.925 0.864-0.991l0.136-0.009zM25.333 7.335h-3.994l-0 3.331h3.993l0.001-3.331z"></path>
</svg>
