<!-- Generated by IcoMoon.io -->
<svg version="1.1" xmlns="http://www.w3.org/2000/svg" width="32" height="32" viewBox="0 0 32 32">
<title>contact-card-group-regular</title>
<path d="M12 13.333c0 1.105-0.895 2-2 2s-2-0.895-2-2v0c0-1.105 0.895-2 2-2s2 0.895 2 2v0zM15 15.333c0.92 0 1.667-0.746 1.667-1.667s-0.746-1.667-1.667-1.667v0c-0.92 0-1.667 0.746-1.667 1.667s0.746 1.667 1.667 1.667v0zM19.333 14.167c0-0.46 0.373-0.833 0.833-0.833h4.333c0.46 0 0.833 0.373 0.833 0.833s-0.373 0.833-0.833 0.833v0h-4.333c-0.46 0-0.833-0.373-0.833-0.833zM20.167 17c-0.46 0-0.833 0.373-0.833 0.833s0.373 0.833 0.833 0.833v0h4.333c0.46 0 0.833-0.373 0.833-0.833s-0.373-0.833-0.833-0.833v0h-4.333zM6.667 17.667c0-0.552 0.448-1 1-1v0h4.667c0.552 0 1 0.448 1 1v0 1s0 2.333-3.333 2.333-3.333-2.333-3.333-2.333v-1zM14.578 19.34c-0.061 0.253-0.139 0.473-0.235 0.683l0.009-0.023h0.981c1.105 0 2-0.895 2-2v0-0.333c0-0.552-0.448-1-1-1v0h-1.891c0.144 0.303 0.225 0.642 0.225 1v1.037c-0.001 0.072-0.006 0.14-0.014 0.208l0.001-0.010c-0.018 0.167-0.044 0.316-0.080 0.461l0.005-0.023zM2.667 9.5c0-2.301 1.865-4.167 4.167-4.167v0h18.333c2.301 0 4.167 1.865 4.167 4.167v0 13c0 2.301-1.865 4.167-4.167 4.167v0h-18.333c-2.301 0-4.167-1.865-4.167-4.167v0-13zM6.833 7c-1.381 0-2.5 1.119-2.5 2.5v0 13c0 1.381 1.119 2.5 2.5 2.5v0h18.333c1.381 0 2.5-1.119 2.5-2.5v0-13c0-1.381-1.119-2.5-2.5-2.5v0h-18.333z"></path>
</svg>
