<!-- Generated by IcoMoon.io -->
<svg version="1.1" xmlns="http://www.w3.org/2000/svg" width="32" height="32" viewBox="0 0 32 32">
<title>contact-card</title>
<path d="M26.333 5.333c1.657 0 3 1.343 3 3v15.339c0 1.657-1.343 3-3 3h-20.667c-1.657 0-3-1.343-3-3v-15.339c0-1.657 1.343-3 3-3h20.667zM26.333 7.333h-20.667c-0.552 0-1 0.448-1 1v15.339c0 0.552 0.448 1 1 1h20.667c0.552 0 1-0.448 1-1v-15.339c0-0.552-0.448-1-1-1zM13 16.667c0.552 0 1 0.448 1 1v0.657l-0.011 0.145c-0.217 1.484-1.459 2.199-3.323 2.199s-3.106-0.716-3.323-2.201l-0.011-0.144v-0.656c0-0.552 0.448-1 1-1h4.667zM17.67 17.328h5.997c0.552 0 1 0.448 1 1 0 0.506-0.376 0.925-0.864 0.991l-0.136 0.009h-5.997c-0.552 0-1-0.448-1-1 0-0.506 0.376-0.925 0.864-0.991l0.136-0.009zM10.667 11.336c1.105 0 2 0.895 2 2s-0.895 2-2 2-2-0.895-2-2c0-1.105 0.895-2 2-2zM17.67 12.667h5.997c0.552 0 1 0.448 1 1 0 0.506-0.376 0.925-0.864 0.991l-0.136 0.009h-5.997c-0.552 0-1-0.448-1-1 0-0.506 0.376-0.925 0.864-0.991l0.136-0.009z"></path>
</svg>
