<!-- Generated by IcoMoon.io -->
<svg version="1.1" xmlns="http://www.w3.org/2000/svg" width="32" height="32" viewBox="0 0 32 32">
<title>contact-card-ribbon-regular</title>
<path d="M12.667 13.333c0 1.105-0.895 2-2 2s-2-0.895-2-2v0c0-1.105 0.895-2 2-2s2 0.895 2 2v0zM7.333 17.667c0-0.552 0.448-1 1-1v0h4.667c0.552 0 1 0.448 1 1v0 0.333s0 2.667-3.333 2.667-3.333-2.667-3.333-2.667v-0.333zM16.667 13.5c0-0.46 0.373-0.833 0.833-0.833h6.333c0 0 0 0 0 0 0.46 0 0.833 0.373 0.833 0.833 0 0.252-0.112 0.478-0.288 0.63l-0.001 0.001c-0.296 0.062-0.545 0.131-0.788 0.215l0.044-0.013h-6.134c-0.46 0-0.833-0.373-0.833-0.833zM27.667 8.167v6.155c0.6 0.2 1.161 0.487 1.667 0.847v-7.002c0-1.565-1.269-2.833-2.833-2.833v0h-21c-1.565 0-2.833 1.269-2.833 2.833v0 15.667c0 1.565 1.269 2.833 2.833 2.833v0h15.167v-1.667h-15.167c-0.644 0-1.167-0.522-1.167-1.167v0-15.667c0-0.644 0.523-1.167 1.167-1.167h21c0.645 0 1.167 0.523 1.167 1.167zM17.5 17.333h2.587c-0.265 0.481-0.476 1.037-0.606 1.625l-0.008 0.042h-1.974c-0.46 0-0.833-0.373-0.833-0.833s0.373-0.833 0.833-0.833v0zM21.667 17.333c-0.624 0.823-1 1.864-1 2.994 0 0.002 0 0.005 0 0.007v-0c0 0 0 0 0 0 0 2.115 1.313 3.923 3.167 4.655l0.034 0.012c0.532 0.211 1.148 0.333 1.793 0.333 0.002 0 0.004 0 0.006 0h-0c0.002 0 0.004 0 0.006 0 1.445 0 2.747-0.615 3.657-1.597l0.003-0.003c0.826-0.887 1.333-2.080 1.333-3.392 0-0.003 0-0.005 0-0.008v0c0-1.313-0.506-2.507-1.333-3.4-0.913-0.985-2.214-1.6-3.659-1.6-0.003 0-0.006 0-0.009 0h0c-0.001 0-0.003 0-0.004 0-1.629 0-3.076 0.78-3.987 1.987l-0.009 0.013zM25.705 26.667c1.361-0.007 2.619-0.444 3.647-1.182l-0.019 0.013v4.473c0 0 0 0 0 0.001 0 0.383-0.31 0.693-0.693 0.693-0.153 0-0.295-0.050-0.41-0.134l0.002 0.001-2.565-1.866-2.565 1.867c-0.113 0.083-0.255 0.133-0.408 0.133-0.383 0-0.693-0.31-0.693-0.693 0-0 0-0.001 0-0.001v0-4.473c1.009 0.725 2.267 1.161 3.626 1.168h0.040l0.039-0.001z"></path>
</svg>
