<!-- Generated by IcoMoon.io -->
<svg version="1.1" xmlns="http://www.w3.org/2000/svg" width="32" height="32" viewBox="0 0 32 32">
<title>contact-card</title>
<path d="M12.667 13.333c0 1.105-0.895 2-2 2s-2-0.895-2-2v0c0-1.105 0.895-2 2-2s2 0.895 2 2v0zM7.333 17.667c0-0.552 0.448-1 1-1v0h4.667c0.552 0 1 0.448 1 1v0 0.333s0 2.667-3.333 2.667-3.333-2.667-3.333-2.667v-0.333zM16.667 13.5c0-0.46 0.373-0.833 0.833-0.833h6.333c0.46 0 0.833 0.373 0.833 0.833s-0.373 0.833-0.833 0.833v0h-6.333c-0.46 0-0.833-0.373-0.833-0.833zM17.5 17.333c-0.46 0-0.833 0.373-0.833 0.833s0.373 0.833 0.833 0.833v0h6.333c0.46 0 0.833-0.373 0.833-0.833s-0.373-0.833-0.833-0.833v0h-6.333zM2.667 8.167c0-1.565 1.269-2.833 2.833-2.833v0h21c1.565 0 2.833 1.269 2.833 2.833v0 15.667c0 1.565-1.269 2.833-2.833 2.833v0h-21c-1.565 0-2.833-1.269-2.833-2.833v0-15.667zM5.5 7c-0.644 0-1.167 0.522-1.167 1.167v0 15.667c0 0.645 0.523 1.167 1.167 1.167h21c0.644 0 1.167-0.522 1.167-1.167v0-15.667c0-0.644-0.522-1.167-1.167-1.167v0h-21z"></path>
</svg>
