<!-- Generated by IcoMoon.io -->
<svg version="1.1" xmlns="http://www.w3.org/2000/svg" width="32" height="32" viewBox="0 0 32 32">
<title>content-settings</title>
<path d="M9 4c-2.761 0-5 2.239-5 5v0 14.004c0 2.761 2.239 5 5 5v0h5.003c-0.44-0.579-0.831-1.236-1.144-1.937l-0.025-0.063h-3.834c-1.657 0-3-1.343-3-3v0-13.004h20.004v2.834c0.764 0.338 1.421 0.729 2.025 1.187l-0.025-0.018v-5.003c0-2.761-2.239-5-5-5v0h-14.004zM25.828 8h-19.658c0.425-1.175 1.531-2 2.829-2 0 0 0.001 0 0.001 0h14c1.305 0 2.417 0.835 2.828 2zM16.003 13.997v-1c0-0.552-0.448-1-1-1v0h-5.994c-0.552 0-1 0.448-1 1v0 10.003c0 0.552 0.448 1 1 1v0h3.19c-0.13-0.647-0.199-1.316-0.199-2h-1.992v-8.002h3.995v1.997c0.578-0.763 1.236-1.421 1.975-1.98l0.025-0.018zM16.676 28.57l0.046-0.156c0.104-0.339 0.164-0.729 0.164-1.132 0-1.875-1.29-3.449-3.031-3.882l-0.028-0.006c-0.050-0.346-0.078-0.746-0.078-1.152 0-0.564 0.055-1.115 0.159-1.648l-0.009 0.054c1.757-0.448 3.035-2.015 3.035-3.882 0-0.394-0.057-0.774-0.163-1.133l0.007 0.028c0.67-0.58 1.444-1.062 2.287-1.414l0.056-0.021c0.73 0.765 1.757 1.241 2.896 1.241 1.14 0 2.169-0.477 2.897-1.242l0.002-0.002 0.111-0.118c0.881 0.333 1.641 0.781 2.309 1.336l-0.013-0.011-0.046 0.155c-0.104 0.339-0.164 0.729-0.164 1.132 0 1.875 1.29 3.449 3.031 3.882l0.028 0.006c0.123 0.9 0.103 1.828-0.071 2.747-1.757 0.447-3.036 2.015-3.036 3.882 0 0.394 0.057 0.774 0.163 1.133l-0.007-0.028c-0.669 0.58-1.444 1.063-2.287 1.414l-0.056 0.021c-0.73-0.765-1.757-1.241-2.896-1.241-1.14 0-2.169 0.477-2.897 1.242l-0.002 0.002-0.111 0.117c-0.881-0.333-1.641-0.781-2.309-1.336l0.013 0.011zM20.846 23.999c1.067 0.616 2.448 0.22 3.085-0.884s0.29-2.497-0.778-3.113c-1.066-0.616-2.448-0.22-3.085 0.883-0.637 1.104-0.289 2.498 0.778 3.114z"></path>
</svg>
