<!-- Generated by IcoMoon.io -->
<svg version="1.1" xmlns="http://www.w3.org/2000/svg" width="32" height="32" viewBox="0 0 32 32">
<title>convert-range</title>
<path d="M8.333 4c-1.657 0-3 1.343-3 3v0 3.333c0 1.657 1.343 3 3 3v0h12.667c1.657 0 3-1.343 3-3v0-3.333c0-1.657-1.343-3-3-3v0h-12.667zM7.333 7c0-0.552 0.448-1 1-1v0h12.667c0.552 0 1 0.448 1 1v0 3.333c0 0.552-0.448 1-1 1v0h-12.667c-0.552 0-1-0.448-1-1v0-3.333zM11.6 21.333c-0.516 0-0.933 0.448-0.933 1s0.417 1 0.933 1h6.133c0.516 0 0.933-0.448 0.933-1s-0.417-1-0.933-1h-6.133zM23.137 21.927l-0.097 0.112c-0.181 0.181-0.431 0.293-0.707 0.293-0.224 0-0.43-0.073-0.597-0.198l0.003 0.002-0.112-0.097-2.667-2.667c-0.181-0.181-0.293-0.431-0.293-0.707 0-0.224 0.073-0.43 0.198-0.597l-0.002 0.003 0.097-0.112 2.667-2.667c0.181-0.179 0.43-0.29 0.704-0.29 0.552 0 1 0.448 1 1 0 0.223-0.073 0.428-0.196 0.594l0.002-0.003-0.097 0.112-0.959 0.961h2c0.86-0 1.568-0.652 1.657-1.489l0.001-0.007 0.009-0.171v-3c0-0.552 0.448-1 1-1 0.504 0 0.921 0.373 0.99 0.858l0.001 0.005 0.009 0.136v3c0 0 0 0 0 0 0 1.947-1.517 3.539-3.433 3.659l-0.011 0.001-0.223 0.007h-1.999l0.957 0.959c0.181 0.181 0.293 0.431 0.293 0.707 0 0.224-0.073 0.43-0.198 0.597l0.002-0.003zM24 25.667v-2.701l-0.017 0.016c-0.54 0.541-1.28 0.76-1.983 0.66v2.025c0 0.552-0.448 1-1 1v0h-12.667c-0.552 0-1-0.448-1-1v0-6.667c0-0.552 0.448-1 1-1v0h9.096c0.077-0.256 0.197-0.501 0.363-0.724l0.029-0.040 0.16-0.187 1.051-1.049h-10.699c-1.657 0-3 1.343-3 3v0 6.667c0 1.657 1.343 3 3 3v0h12.667c1.657 0 3-1.343 3-3v0z"></path>
</svg>
