<!-- Generated by IcoMoon.io -->
<svg version="1.1" xmlns="http://www.w3.org/2000/svg" width="32" height="32" viewBox="0 0 32 32">
<title>convert-range</title>
<path d="M8.333 4c-1.657 0-3 1.343-3 3v3.333c0 1.657 1.343 3 3 3h12.667c1.657 0 3-1.343 3-3v-3.333c0-1.657-1.343-3-3-3h-12.667zM7.333 7c0-0.552 0.448-1 1-1h12.667c0.552 0 1 0.448 1 1v3.333c0 0.552-0.448 1-1 1h-12.667c-0.552 0-1-0.448-1-1v-3.333z"></path>
<path d="M11.6 21.333c-0.515 0-0.933 0.448-0.933 1s0.418 1 0.933 1h6.133c0.515 0 0.933-0.448 0.933-1s-0.418-1-0.933-1h-6.133z"></path>
<path d="M23.137 21.927l-0.097 0.112c-0.355 0.355-0.911 0.387-1.302 0.097l-0.112-0.097-2.667-2.667c-0.355-0.355-0.387-0.911-0.097-1.302l0.097-0.112 2.667-2.667c0.391-0.391 1.024-0.391 1.414 0 0.355 0.355 0.387 0.911 0.097 1.302l-0.097 0.112-0.959 0.961 1.999-0.001c0.863 0 1.573-0.656 1.658-1.496l0.009-0.17v-3c0-0.552 0.448-1 1-1 0.506 0 0.925 0.376 0.991 0.864l0.009 0.136v3c0 1.95-1.522 3.545-3.443 3.66l-0.223 0.007-1.998 0.001 0.957 0.958c0.355 0.355 0.387 0.911 0.097 1.302z"></path>
<path d="M24 25.667v-2.701l-0.017 0.017c-0.541 0.541-1.281 0.761-1.983 0.659v2.025c0 0.552-0.448 1-1 1h-12.667c-0.552 0-1-0.448-1-1v-6.667c0-0.552 0.448-1 1-1h9.097c0.076-0.256 0.197-0.501 0.362-0.724l0.029-0.039 0.161-0.186 1.050-1.050h-10.699c-1.657 0-3 1.343-3 3v6.667c0 1.657 1.343 3 3 3h12.667c1.657 0 3-1.343 3-3z"></path>
</svg>
