<!-- Generated by IcoMoon.io -->
<svg version="1.1" xmlns="http://www.w3.org/2000/svg" width="32" height="32" viewBox="0 0 32 32">
<title>cookies</title>
<path d="M16 2.667c0.952 0 1.892 0.1 2.808 0.296 0.774 0.166 1.057 1.123 0.498 1.684-0.62 0.622-0.973 1.458-0.973 2.353 0 1.561 1.082 2.903 2.581 3.248 0.493 0.114 0.824 0.578 0.77 1.082-0.012 0.108-0.018 0.221-0.018 0.337 0 1.841 1.492 3.333 3.333 3.333 0.969 0 1.868-0.414 2.498-1.126 0.572-0.647 1.64-0.313 1.742 0.545 0.062 0.521 0.093 1.050 0.093 1.582 0 7.364-5.97 13.333-13.333 13.333s-13.333-5.97-13.333-13.333c0-7.364 5.97-13.333 13.333-13.333zM16 4.667c-6.259 0-11.333 5.074-11.333 11.333s5.074 11.333 11.333 11.333c5.916 0 10.773-4.532 11.288-10.314l0.025-0.341 0.009-0.21-0.258 0.117c-0.441 0.185-0.908 0.311-1.391 0.372l-0.365 0.033-0.308 0.009c-2.675 0-4.89-1.969-5.274-4.537l-0.033-0.268-0.019-0.249-0.193-0.080c-1.712-0.769-2.92-2.405-3.118-4.312l-0.022-0.288-0.007-0.266c0-0.596 0.098-1.176 0.285-1.723l0.122-0.324 0.113-0.253-0.368-0.023-0.485-0.010zM20 21.333c0.736 0 1.333 0.597 1.333 1.333s-0.597 1.333-1.333 1.333c-0.736 0-1.333-0.597-1.333-1.333s0.597-1.333 1.333-1.333zM10.667 20c0.736 0 1.333 0.597 1.333 1.333s-0.597 1.333-1.333 1.333c-0.736 0-1.333-0.597-1.333-1.333s0.597-1.333 1.333-1.333zM16 14.667c0.736 0 1.333 0.597 1.333 1.333s-0.597 1.333-1.333 1.333c-0.736 0-1.333-0.597-1.333-1.333s0.597-1.333 1.333-1.333zM9.333 10.667c0.736 0 1.333 0.597 1.333 1.333s-0.597 1.333-1.333 1.333c-0.736 0-1.333-0.597-1.333-1.333s0.597-1.333 1.333-1.333z"></path>
</svg>
