<!-- Generated by IcoMoon.io -->
<svg version="1.1" xmlns="http://www.w3.org/2000/svg" width="32" height="32" viewBox="0 0 32 32">
<title>cookies-regular</title>
<path d="M16 2.667c0.952 0 1.892 0.1 2.808 0.296 0.455 0.1 0.791 0.5 0.791 0.978 0 0.276-0.112 0.525-0.292 0.706l0-0c-0.601 0.603-0.972 1.435-0.972 2.353 0 1.574 1.091 2.893 2.557 3.244l0.023 0.005c0.447 0.106 0.775 0.502 0.775 0.974 0 0.038-0.002 0.075-0.006 0.111l0-0.005c-0.011 0.101-0.017 0.217-0.017 0.336 0 1.841 1.492 3.333 3.333 3.333 0.992 0 1.883-0.434 2.494-1.122l0.003-0.003c0.184-0.208 0.452-0.338 0.75-0.338 0.511 0 0.933 0.384 0.993 0.879l0 0.005c0.063 0.52 0.093 1.049 0.093 1.581 0 7.364-5.969 13.333-13.333 13.333s-13.333-5.969-13.333-13.333 5.969-13.333 13.333-13.333zM16 4.667c-6.259 0-11.333 5.074-11.333 11.333s5.074 11.333 11.333 11.333c5.9 0 10.747-4.509 11.284-10.268l0.003-0.045 0.025-0.343 0.009-0.209-0.259 0.117c-0.44 0.185-0.907 0.311-1.391 0.373l-0.365 0.032-0.308 0.009c-0 0-0 0-0 0-2.664 0-4.873-1.953-5.271-4.506l-0.004-0.030-0.033-0.268-0.019-0.249-0.193-0.080c-1.704-0.781-2.91-2.385-3.115-4.288l-0.002-0.024-0.023-0.288-0.007-0.267c0-0.596 0.099-1.176 0.285-1.723l0.121-0.324 0.113-0.253-0.368-0.023-0.485-0.011zM20 21.333c0.736 0 1.333 0.597 1.333 1.333s-0.597 1.333-1.333 1.333v0c-0.736 0-1.333-0.597-1.333-1.333s0.597-1.333 1.333-1.333v0zM10.667 20c0.736 0 1.333 0.597 1.333 1.333s-0.597 1.333-1.333 1.333v0c-0.736 0-1.333-0.597-1.333-1.333s0.597-1.333 1.333-1.333v0zM16 14.667c0.736 0 1.333 0.597 1.333 1.333s-0.597 1.333-1.333 1.333v0c-0.736 0-1.333-0.597-1.333-1.333s0.597-1.333 1.333-1.333v0zM9.333 10.667c0.736 0 1.333 0.597 1.333 1.333s-0.597 1.333-1.333 1.333v0c-0.736 0-1.333-0.597-1.333-1.333s0.597-1.333 1.333-1.333v0z"></path>
</svg>
