<!-- Generated by IcoMoon.io -->
<svg version="1.1" xmlns="http://www.w3.org/2000/svg" width="32" height="32" viewBox="0 0 32 32">
<title>copy-select</title>
<path d="M12.8 4.8c-0.884 0-1.6 0.716-1.6 1.6v0 0.8c0 0.442-0.358 0.8-0.8 0.8s-0.8-0.358-0.8-0.8v0-0.8c0-1.767 1.433-3.2 3.2-3.2v0h0.8c0.442 0 0.8 0.358 0.8 0.8s-0.358 0.8-0.8 0.8v0h-0.8zM11.2 19.2c0 0.884 0.716 1.6 1.6 1.6v0h0.8c0.442 0 0.8 0.358 0.8 0.8s-0.358 0.8-0.8 0.8v0h-0.8c-1.767 0-3.2-1.433-3.2-3.2v0-0.8c0-0.442 0.358-0.8 0.8-0.8s0.8 0.358 0.8 0.8v0 0.8zM11.2 10.4c0-0.442-0.358-0.8-0.8-0.8s-0.8 0.358-0.8 0.8v0 4.8c0 0.442 0.358 0.8 0.8 0.8s0.8-0.358 0.8-0.8v0-4.8zM25.6 4.8c0.884 0 1.6 0.716 1.6 1.6v0 0.8c0 0.442 0.358 0.8 0.8 0.8s0.8-0.358 0.8-0.8v0-0.8c0-1.767-1.433-3.2-3.2-3.2v0h-0.8c-0.442 0-0.8 0.358-0.8 0.8s0.358 0.8 0.8 0.8v0h0.8zM25.6 20.8c0.884 0 1.6-0.716 1.6-1.6v0-0.8c0-0.442 0.358-0.8 0.8-0.8s0.8 0.358 0.8 0.8v0 0.8c0 1.767-1.433 3.2-3.2 3.2v0h-0.8c-0.442 0-0.8-0.358-0.8-0.8s0.358-0.8 0.8-0.8v0h0.8zM28 9.6c-0.442 0-0.8 0.358-0.8 0.8v0 4.8c0 0.442 0.358 0.8 0.8 0.8s0.8-0.358 0.8-0.8v0-4.8c0-0.442-0.358-0.8-0.8-0.8v0zM16.8 3.2c-0.442 0-0.8 0.358-0.8 0.8s0.358 0.8 0.8 0.8v0h4.8c0.442 0 0.8-0.358 0.8-0.8s-0.358-0.8-0.8-0.8v0h-4.8zM16 21.6c0-0.442 0.358-0.8 0.8-0.8v0h4.8c0.442 0 0.8 0.358 0.8 0.8s-0.358 0.8-0.8 0.8v0h-4.8c-0.442 0-0.8-0.358-0.8-0.8v0zM6.4 9.6h1.6v1.6h-1.6c-0.884 0-1.6 0.716-1.6 1.6v0 10.4c0 2.209 1.791 4 4 4v0h10.4c0.884 0 1.6-0.716 1.6-1.6v0-1.6h1.6v1.6c0 1.767-1.433 3.2-3.2 3.2v0h-10.4c-3.093 0-5.6-2.507-5.6-5.6v0-10.4c0-1.767 1.433-3.2 3.2-3.2v0z"></path>
</svg>
