<!-- Generated by IcoMoon.io -->
<svg version="1.1" xmlns="http://www.w3.org/2000/svg" width="32" height="32" viewBox="0 0 32 32">
<title>copy-add</title>
<path d="M4.667 9l0.004-2.831c-1.167 0.411-2.004 1.523-2.004 2.831v14.006c0 3.498 2.836 6.333 6.333 6.333h6.751c-0.569-0.592-1.055-1.265-1.439-2l-5.313-0c-2.393 0-4.333-1.94-4.333-4.333v-14.006z"></path>
<path d="M24 14.899v-9.232c0-1.657-1.343-3-3-3h-12c-1.657 0-3 1.343-3 3v17.333c0 1.657 1.343 3 3 3h4.751c-0.206-0.638-0.34-1.307-0.393-2h-4.359c-0.552 0-1-0.448-1-1v-17.333c0-0.552 0.448-1 1-1h12c0.552 0 1 0.448 1 1v9c0.688 0 1.358 0.080 2 0.232z"></path>
<path d="M22 16c4.050 0 7.333 3.283 7.333 7.333s-3.283 7.333-7.333 7.333c-4.050 0-7.333-3.283-7.333-7.333s3.283-7.333 7.333-7.333zM22.668 27.338l-0.001-3.338h3.328c0.368 0 0.666-0.298 0.666-0.667s-0.298-0.667-0.666-0.667h-3.328l-0.001-3.334c0-0.368-0.299-0.667-0.667-0.667s-0.667 0.298-0.667 0.667l0.001 3.334h-3.34c-0.368 0-0.666 0.299-0.666 0.667s0.298 0.667 0.666 0.667h3.34l0.001 3.338c0 0.368 0.299 0.667 0.667 0.667s0.667-0.298 0.667-0.667z"></path>
</svg>
