<!-- Generated by IcoMoon.io -->
<svg version="1.1" xmlns="http://www.w3.org/2000/svg" width="32" height="32" viewBox="0 0 32 32">
<title>couch</title>
<path d="M7.667 8h16.667c1.224 0 2.228 0.943 2.326 2.142l0.008 0.191 0.001 2.805c1.462 0.414 2.552 1.711 2.657 3.279l0.008 0.25v5c0 1.224-0.943 2.228-2.142 2.326l-0.191 0.008h-22c-1.224 0-2.228-0.943-2.326-2.142l-0.008-0.191v-5c0-1.679 1.128-3.094 2.667-3.529l-0.001-2.805c0-1.224 0.943-2.228 2.142-2.326l0.191-0.008zM25.667 15c-0.863 0-1.573 0.656-1.658 1.496l-0.009 0.17v0.333c0 0.506-0.376 0.925-0.864 0.991l-0.136 0.009h-14c-0.506 0-0.925-0.376-0.991-0.864l-0.009-0.136v-0.333c0-0.921-0.746-1.667-1.667-1.667-0.863 0-1.573 0.656-1.658 1.496l-0.009 0.17v5c0 0.158 0.11 0.29 0.257 0.325l0.076 0.009h22c0.158 0 0.29-0.11 0.325-0.257l0.009-0.076v-5c0-0.921-0.746-1.667-1.667-1.667zM24.333 10h-16.667c-0.158 0-0.29 0.11-0.325 0.257l-0.009 0.076 0.001 2.805c1.252 0.354 2.231 1.357 2.553 2.622l0.053 0.24h12.121l0.048-0.22c0.317-1.275 1.3-2.286 2.559-2.642l-0-2.805c0-0.158-0.11-0.29-0.257-0.325l-0.076-0.009z"></path>
</svg>
