<!-- Generated by IcoMoon.io -->
<svg version="1.1" xmlns="http://www.w3.org/2000/svg" width="32" height="32" viewBox="0 0 32 32">
<title>credit-card-toolbox-regular</title>
<path d="M7 6.667c-2.393 0-4.333 1.94-4.333 4.333v0 10c0 2.393 1.94 4.333 4.333 4.333v0h7.667v-2h-7.667c-1.289 0-2.333-1.045-2.333-2.333v0-6.333h24.667v-3.667c0-2.393-1.94-4.333-4.333-4.333v0h-18zM27.333 11v1.667h-22.667v-1.667c0-1.288 1.045-2.333 2.333-2.333h18c1.288 0 2.333 1.045 2.333 2.333zM18 19.667h0.667v-1.333c0-1.288 1.045-2.333 2.333-2.333h4.667c1.288 0 2.333 1.045 2.333 2.333v1.333h0.667c1.105 0 2 0.895 2 2v0 2.333h-4v-0.667c0-0.368-0.298-0.667-0.667-0.667s-0.667 0.298-0.667 0.667v0 0.667h-4v-0.667c0-0.368-0.298-0.667-0.667-0.667s-0.667 0.298-0.667 0.667v0 0.667h-4v-2.333c0-1.105 0.895-2 2-2v0zM21 18c-0.184 0-0.333 0.149-0.333 0.333v0 1.333h5.333v-1.333c0-0.184-0.149-0.333-0.333-0.333v0h-4.667zM25.333 26v-0.667h-4v0.667c0 0.368-0.298 0.667-0.667 0.667s-0.667-0.298-0.667-0.667v0-0.667h-4v3.333c0 1.105 0.895 2 2 2v0h10.667c1.105 0 2-0.895 2-2v0-3.333h-4v0.667c0 0.368-0.298 0.667-0.667 0.667s-0.667-0.298-0.667-0.667v0z"></path>
</svg>
