<!-- Generated by IcoMoon.io -->
<svg version="1.1" xmlns="http://www.w3.org/2000/svg" width="32" height="32" viewBox="0 0 32 32">
<title>credit-card-person</title>
<path d="M2.667 9.667c0-2.393 1.94-4.333 4.333-4.333h18c2.393 0 4.333 1.94 4.333 4.333v3.667h-0.344c-0.089-1.346-0.71-2.547-1.656-3.393v-0.273c0-1.289-1.045-2.333-2.333-2.333h-18c-1.289 0-2.333 1.045-2.333 2.333v0.333h15.934c-0.587 0.545-1.044 1.229-1.316 2h-14.618v7.667c0 1.289 1.045 2.333 2.333 2.333h9.039c0.082 0.697 0.29 1.371 0.611 2h-9.65c-2.393 0-4.333-1.94-4.333-4.333v-10zM30.667 20.667c0-1.105-0.895-2-2-2h-9.333c-1.105 0-2 0.895-2 2v0.667c0 2.629 2.479 5.333 6.667 5.333s6.667-2.705 6.667-5.333v-0.667zM27.667 13.667c0-2.025-1.642-3.667-3.667-3.667s-3.667 1.642-3.667 3.667c0 2.025 1.642 3.667 3.667 3.667s3.667-1.642 3.667-3.667z"></path>
</svg>
