<!-- Generated by IcoMoon.io -->
<svg version="1.1" xmlns="http://www.w3.org/2000/svg" width="32" height="32" viewBox="0 0 32 32">
<title>crop</title>
<path d="M28.333 22.667c0.552 0 1 0.448 1 1 0 0.506-0.376 0.925-0.864 0.991l-0.136 0.009h-3.667v3.667c0 0.552-0.448 1-1 1-0.506 0-0.925-0.376-0.991-0.864l-0.009-0.136v-3.667h-11c-2.311 0-4.199-1.809-4.326-4.087l-0.007-0.246-0.001-11h-3.665c-0.552 0-1-0.448-1-1 0-0.506 0.376-0.925 0.864-0.991l0.136-0.009h3.665l0.001-3.667c0-0.552 0.448-1 1-1 0.506 0 0.925 0.376 0.991 0.864l0.009 0.136-0.001 3.667h0.001v2h-0.001l0.001 11c0 1.224 0.943 2.228 2.142 2.326l0.191 0.008h16.667zM10.667 7.333h9.667c2.311 0 4.199 1.809 4.327 4.087l0.007 0.246v9.667h-2v-9.667c0-1.224-0.943-2.228-2.142-2.326l-0.191-0.008h-9.667v-2z"></path>
</svg>
