<!-- Generated by IcoMoon.io -->
<svg version="1.1" xmlns="http://www.w3.org/2000/svg" width="32" height="32" viewBox="0 0 32 32">
<title>crop-interim-off</title>
<path d="M4.373 2.96c-0.183-0.196-0.443-0.318-0.732-0.318-0.552 0-1 0.448-1 1 0 0.289 0.122 0.549 0.318 0.731l0.001 0.001 1.419 1.42c-0.239 0.448-0.38 0.981-0.38 1.546 0 1.38 0.838 2.563 2.033 3.070l0.022 0.008-1.089 7.080c-1.346 0.449-2.3 1.698-2.3 3.17 0 1.842 1.493 3.335 3.335 3.335 1.087 0 2.053-0.52 2.662-1.326l0.006-0.008h9.341c0.613 0.814 1.578 1.335 2.665 1.335 0.563 0 1.093-0.14 1.557-0.386l-0.018 0.009 2.413 2.413c-1.107 0.813-2.473 1.295-3.951 1.295-0.003 0-0.006 0-0.009 0-1.504 0-2.89-0.499-4.004-1.341l0.017 0.012 0.991-0.003 0.135-0.008c0.502-0.059 0.887-0.481 0.887-0.994 0-0.552-0.448-1-1-1-0.008 0-0.016 0-0.024 0l0.001-0h-3.34l-0.136 0.009c-0.491 0.069-0.864 0.486-0.864 0.991v0 3.332l0.009 0.136c0.069 0.491 0.486 0.864 0.991 0.864v0l0.136-0.009c0.491-0.069 0.864-0.486 0.864-0.991v0-0.844c1.454 1.15 3.315 1.845 5.338 1.845 0.002 0 0.004 0 0.007 0h-0c0.004 0 0.009 0 0.013 0 2.035 0 3.906-0.704 5.381-1.883l-0.017 0.013 1.576 1.577c0.181 0.181 0.431 0.293 0.707 0.293 0.552 0 1-0.448 1-1 0-0.276-0.112-0.526-0.293-0.707l-24.667-24.667zM17.715 19.129c-0.24 0.46-0.375 0.983-0.375 1.537h-8.007l-0.009-0.247c-0.106-1.385-1.044-2.526-2.311-2.931l-0.024-0.006 1.060-6.888c0.293-0.064 0.571-0.167 0.829-0.301l8.836 8.836zM6 19.333c0.001 0 0.001 0 0.002 0 0.073 0 0.144 0.006 0.214 0.017l-0.008-0.001 0.119 0.024 0.164 0.053 0.144 0.067c0.374 0.206 0.636 0.576 0.689 1.011l0.001 0.006 0.009 0.156-0.009 0.156c-0.081 0.666-0.643 1.177-1.324 1.177v0l-0.156-0.009c-0.665-0.081-1.176-0.643-1.176-1.324s0.51-1.243 1.169-1.323l0.006-0.001 0.156-0.009zM9.576 5.333l2 2h4.405l0.008 0.232c0.106 1.498 1.185 2.715 2.605 3.029l0.022 0.004 0.687 4.463 2.396 2.396-1.084-7.048c1.204-0.52 2.032-1.698 2.032-3.069 0-1.841-1.492-3.333-3.333-3.333-1.084 0-2.046 0.517-2.655 1.318l-0.006 0.008h-7.076zM18.352 8.261c-0.229-0.239-0.371-0.564-0.371-0.923 0-0.681 0.511-1.243 1.171-1.324l0.006-0.001 0.156-0.009c0.002 0 0.004 0 0.006 0 0.069 0 0.137 0.005 0.204 0.016l-0.007-0.001 0.111 0.023 0.195 0.067 0.14 0.072v-0.008c0.412 0.232 0.686 0.667 0.686 1.166 0 0.317-0.111 0.608-0.295 0.837l0.002-0.003-0.103 0.112-0.145 0.124-0.125 0.084-0.116 0.059-0.167 0.063-0.227 0.048-0.159 0.009-0.164-0.011-0.104-0.016-0.123-0.032-0.144-0.053-0.121-0.061-0.115-0.072-0.16-0.133-0.032-0.032zM27.004 22.761l1.539 1.54c0.504-1.066 0.798-2.315 0.798-3.633 0-4.238-3.040-7.765-7.059-8.52l-0.054-0.008 0.329 2.131c2.788 0.841 4.784 3.386 4.784 6.397 0 0.749-0.123 1.469-0.351 2.14l0.014-0.047z"></path>
</svg>
