<!-- Generated by IcoMoon.io -->
<svg version="1.1" xmlns="http://www.w3.org/2000/svg" width="32" height="32" viewBox="0 0 32 32">
<title>crop</title>
<path d="M9.333 3.5c0-0.46-0.373-0.833-0.833-0.833s-0.833 0.373-0.833 0.833v0 4.167h-4.167c-0.46 0-0.833 0.373-0.833 0.833s0.373 0.833 0.833 0.833v0h4.167v10.833c0 2.301 1.865 4.167 4.167 4.167v0h10.833v4.167c0 0.46 0.373 0.833 0.833 0.833s0.833-0.373 0.833-0.833v0-4.167h4.167c0.46 0 0.833-0.373 0.833-0.833s-0.373-0.833-0.833-0.833v0h-16.667c-1.381 0-2.5-1.119-2.5-2.5v0-16.667zM22.667 11.833v9.5h1.667v-9.5c0-2.301-1.865-4.167-4.167-4.167v0h-9.5v1.667h9.5c1.381 0 2.5 1.119 2.5 2.5v0z"></path>
</svg>
