<!-- Generated by IcoMoon.io -->
<svg version="1.1" xmlns="http://www.w3.org/2000/svg" width="32" height="32" viewBox="0 0 32 32">
<title>crop-interim</title>
<path d="M22.229 12.139c4.044 0.733 7.111 4.272 7.111 8.527 0 4.786-3.88 8.667-8.667 8.667-1.978 0-3.846-0.667-5.345-1.843l0 0.843c0 0.506-0.376 0.925-0.864 0.991l-0.136 0.009c-0.506 0-0.925-0.376-0.991-0.864l-0.009-0.136v-3.331c0-0.506 0.376-0.925 0.864-0.991l0.136-0.009h3.339c0.552 0 1 0.448 1 1 0 0.506-0.376 0.925-0.864 0.991l-0.136 0.009-0.991 0.002c1.133 0.85 2.524 1.329 3.996 1.329 3.682 0 6.667-2.985 6.667-6.667 0-3.027-2.018-5.583-4.782-6.397l-0.329-2.131zM19.315 4.005c1.841 0 3.333 1.492 3.333 3.333 0 1.38-0.838 2.564-2.034 3.071l1.091 7.087c1.336 0.435 2.301 1.69 2.301 3.17 0 1.841-1.492 3.333-3.333 3.333-1.090 0-2.058-0.523-2.666-1.332h-9.341c-0.608 0.809-1.576 1.332-2.666 1.332-1.841 0-3.333-1.492-3.333-3.333 0-1.479 0.963-2.732 2.296-3.169l1.090-7.081c-1.205-0.502-2.053-1.691-2.053-3.078 0-1.841 1.492-3.333 3.333-3.333 1.088 0 2.055 0.521 2.663 1.328h6.656c0.608-0.807 1.575-1.328 2.663-1.328zM6 19.333l-0.155 0.009c-0.663 0.077-1.178 0.641-1.178 1.324s0.515 1.247 1.178 1.324l0.155 0.009c0.684 0 1.247-0.515 1.324-1.178l0.009-0.155-0.009-0.155c-0.051-0.44-0.317-0.815-0.689-1.017l-0.145-0.067-0.164-0.053-0.119-0.024c-0.068-0.011-0.137-0.016-0.208-0.016zM20.257 19.399l-0.068 0.025-0.088 0.039-0.124 0.066c-0.383 0.234-0.638 0.656-0.638 1.138 0 0.684 0.515 1.247 1.178 1.324l0.155 0.009c0.736 0 1.333-0.597 1.333-1.333 0-0.684-0.515-1.247-1.178-1.324l-0.156-0.009c-0.076 0-0.151 0.006-0.223 0.019l-0.192 0.047zM15.981 7.333h-5.315c0 1.601-1.121 2.934-2.618 3.262l-1.060 6.887c1.283 0.398 2.234 1.549 2.335 2.937l0.009 0.247h8.006c0-1.494 0.983-2.758 2.337-3.182l-1.059-6.886c-1.434-0.306-2.527-1.534-2.628-3.033l-0.008-0.232zM18.352 8.261l0.032 0.032 0.16 0.134 0.115 0.072 0.121 0.062 0.144 0.053 0.123 0.031 0.105 0.017 0.164 0.010 0.159-0.009 0.227-0.047 0.166-0.063 0.116-0.060 0.125-0.083 0.145-0.124 0.102-0.113c0.183-0.228 0.293-0.518 0.293-0.834 0-0.501-0.276-0.938-0.685-1.165l-0.001 0.008-0.139-0.072-0.195-0.067-0.111-0.022c-0.066-0.010-0.133-0.015-0.202-0.015l-0.155 0.009c-0.663 0.077-1.178 0.641-1.178 1.324 0 0.358 0.141 0.683 0.371 0.922zM6 7.339c0 0.316 0.11 0.606 0.293 0.834l0.089 0.1c0.077 0.078 0.162 0.147 0.256 0.204l0.145 0.077 0.135 0.052 0.108 0.030 0.134 0.025 0.174 0.011c0.075 0 0.149-0.006 0.221-0.018l0.102-0.021 0.146-0.045 0.072-0.030 0.201-0.112 0.113-0.087 0.072-0.063 0.117-0.129 0.081-0.113c0.105-0.165 0.175-0.355 0.199-0.559l0.009-0.16-0.009-0.155-0.026-0.147-0.024-0.089c-0.154-0.496-0.589-0.868-1.119-0.93l-0.155-0.009c-0.075 0-0.149 0.006-0.221 0.018l-0.108 0.022-0.12 0.037-0.076 0.029-0.129 0.065c-0.405 0.229-0.679 0.663-0.679 1.162z"></path>
</svg>
