<!-- Generated by IcoMoon.io -->
<svg version="1.1" xmlns="http://www.w3.org/2000/svg" width="32" height="32" viewBox="0 0 32 32">
<title>crop-interim-off</title>
<path d="M4.374 2.96c-0.391-0.391-1.024-0.391-1.414-0s-0.391 1.024-0 1.414l1.42 1.42c-0.242 0.462-0.379 0.988-0.379 1.545 0 1.387 0.847 2.576 2.053 3.078l-1.091 7.081c-1.333 0.436-2.296 1.69-2.296 3.169 0 1.841 1.492 3.333 3.333 3.333 1.090 0 2.058-0.523 2.666-1.332h9.341c0.608 0.809 1.576 1.332 2.666 1.332 0.555 0 1.078-0.135 1.538-0.375l2.413 2.413c-1.106 0.814-2.472 1.296-3.95 1.296-1.472 0-2.863-0.479-3.996-1.329l0.991-0.002 0.136-0.009c0.488-0.066 0.864-0.485 0.864-0.991 0-0.552-0.448-1-1-1h-3.339l-0.136 0.009c-0.488 0.066-0.864 0.485-0.864 0.991v3.331l0.009 0.136c0.066 0.488 0.485 0.864 0.991 0.864l0.136-0.009c0.488-0.066 0.864-0.485 0.864-0.991l-0-0.843c1.499 1.176 3.367 1.843 5.345 1.843 2.031 0 3.899-0.699 5.377-1.869l1.576 1.576c0.391 0.391 1.024 0.391 1.414 0s0.391-1.024 0-1.414l-24.666-24.667zM17.715 19.129c-0.24 0.46-0.375 0.983-0.375 1.538h-8.006l-0.009-0.247c-0.102-1.387-1.053-2.539-2.335-2.937l1.060-6.887c0.293-0.064 0.571-0.167 0.83-0.302l8.836 8.836zM6 19.333c0.071 0 0.14 0.005 0.208 0.016l0.119 0.024 0.164 0.053 0.145 0.068c0.373 0.202 0.638 0.577 0.689 1.017l0.009 0.155-0.009 0.155c-0.077 0.663-0.641 1.178-1.324 1.178l-0.155-0.009c-0.663-0.077-1.178-0.641-1.178-1.324s0.515-1.247 1.178-1.324l0.155-0.009z"></path>
<path d="M9.576 5.333l2 2h4.406l0.008 0.232c0.101 1.5 1.194 2.728 2.628 3.033l0.686 4.462 2.396 2.396-1.085-7.048c1.195-0.507 2.034-1.691 2.034-3.071 0-1.841-1.492-3.333-3.333-3.333-1.088 0-2.054 0.521-2.663 1.328l-7.076 0zM18.352 8.261c-0.23-0.239-0.371-0.564-0.371-0.922 0-0.684 0.515-1.247 1.178-1.324l0.155-0.009c0.069 0 0.136 0.005 0.202 0.015l0.111 0.022 0.195 0.067 0.139 0.072 0.001-0.008c0.409 0.228 0.685 0.664 0.685 1.165 0 0.316-0.11 0.606-0.293 0.834l-0.102 0.113-0.145 0.124-0.125 0.083-0.116 0.060-0.166 0.063-0.227 0.047-0.159 0.009-0.164-0.010-0.105-0.017-0.123-0.031-0.144-0.053-0.121-0.062-0.115-0.072-0.16-0.134-0.032-0.032z"></path>
<path d="M27.004 22.761l1.539 1.539c0.511-1.105 0.796-2.336 0.796-3.634 0-4.255-3.067-7.794-7.111-8.527l0.329 2.131c2.764 0.813 4.782 3.369 4.782 6.397 0 0.732-0.118 1.436-0.336 2.095z"></path>
</svg>
