<!-- Generated by IcoMoon.io -->
<svg version="1.1" xmlns="http://www.w3.org/2000/svg" width="32" height="32" viewBox="0 0 32 32">
<title>crop-interim-regular</title>
<path d="M22.228 12.139c4.064 0.77 7.096 4.294 7.096 8.525 0 4.781-3.871 8.659-8.65 8.669h-0.001c-0.003 0-0.007 0-0.012 0-2.022 0-3.881-0.694-5.353-1.858l0.018 0.014 0.001 0.844c-0 0.504-0.373 0.921-0.859 0.99l-0.005 0.001-0.136 0.009c-0.504-0-0.921-0.373-0.99-0.859l-0.001-0.005-0.009-0.136v-3.332c0-0.504 0.373-0.921 0.859-0.99l0.005-0.001 0.136-0.009h3.34c0.552 0.001 0.998 0.448 0.998 1 0 0.504-0.373 0.921-0.858 0.99l-0.005 0.001-0.135 0.009-0.991 0.003c1.099 0.828 2.487 1.327 3.991 1.327 3.682 0 6.667-2.985 6.667-6.667 0-3.009-1.993-5.552-4.731-6.381l-0.047-0.012-0.329-2.132zM19.315 4.005c0.001 0 0.002 0 0.003 0 1.841 0 3.333 1.492 3.333 3.333 0 1.373-0.83 2.551-2.015 3.062l-0.022 0.008 1.091 7.087c1.349 0.448 2.304 1.698 2.304 3.171 0 1.842-1.493 3.335-3.335 3.335-1.087 0-2.053-0.52-2.662-1.326l-0.006-0.008h-9.34c-0.615 0.812-1.579 1.331-2.665 1.331-1.841 0-3.333-1.492-3.333-3.333 0-1.47 0.951-2.717 2.271-3.16l0.024-0.007 1.092-7.081c-1.216-0.515-2.054-1.699-2.054-3.078 0-1.841 1.492-3.333 3.333-3.333 1.084 0 2.048 0.518 2.656 1.319l0.006 0.008h6.656c0.614-0.81 1.576-1.328 2.66-1.328 0.001 0 0.002 0 0.003 0h-0zM6 19.333l-0.156 0.009c-0.665 0.081-1.176 0.643-1.176 1.324s0.51 1.243 1.169 1.323l0.006 0.001 0.156 0.009c0.681-0 1.243-0.511 1.323-1.171l0.001-0.006 0.009-0.156-0.009-0.156c-0.054-0.441-0.315-0.811-0.682-1.013l-0.007-0.003-0.144-0.068-0.164-0.053-0.12-0.024c-0.062-0.010-0.134-0.016-0.207-0.016h-0zM20.257 19.399l-0.068 0.025-0.088 0.039-0.124 0.067c-0.385 0.238-0.637 0.658-0.637 1.137 0 0.681 0.511 1.243 1.171 1.324l0.006 0.001 0.156 0.009c0.735-0.002 1.331-0.598 1.331-1.333 0-0.681-0.51-1.243-1.169-1.323l-0.006-0.001-0.156-0.009c-0.075 0-0.149 0.007-0.223 0.019l-0.192 0.047zM15.981 7.332h-5.315c0 1.601-1.12 2.937-2.617 3.264l-1.060 6.888c1.291 0.411 2.228 1.552 2.334 2.926l0.001 0.011 0.009 0.245h8.007c0-0 0-0 0-0.001 0-1.485 0.971-2.743 2.312-3.174l0.024-0.007-1.059-6.887c-1.442-0.318-2.522-1.535-2.627-3.023l-0.001-0.011-0.008-0.232zM18.352 8.261l0.032 0.032 0.16 0.133 0.115 0.072 0.12 0.061 0.145 0.053 0.123 0.032 0.104 0.016 0.164 0.011 0.16-0.009 0.227-0.048 0.165-0.063 0.116-0.060 0.125-0.083 0.147-0.124 0.1-0.113c0.183-0.226 0.294-0.518 0.294-0.835 0-0.499-0.274-0.933-0.679-1.162l-0.007-0.003v0.009l-0.14-0.072-0.195-0.067-0.111-0.023c-0.059-0.009-0.127-0.015-0.196-0.015-0.002 0-0.004 0-0.007 0h0l-0.156 0.009c-0.666 0.081-1.177 0.643-1.177 1.324 0 0.358 0.141 0.683 0.371 0.923l-0-0zM6 7.339c0 0.001 0 0.002 0 0.004 0 0.315 0.111 0.605 0.295 0.832l-0.002-0.002 0.088 0.1c0.077 0.079 0.163 0.147 0.256 0.204l0.145 0.077 0.133 0.053 0.109 0.029 0.133 0.024 0.175 0.012c0.076 0 0.149-0.007 0.221-0.019l0.103-0.021 0.145-0.045 0.072-0.029 0.201-0.112 0.113-0.087 0.072-0.063 0.117-0.129 0.080-0.113c0.104-0.16 0.175-0.349 0.199-0.554l0.001-0.006 0.008-0.16-0.009-0.153-0.027-0.147-0.024-0.089c-0.158-0.498-0.588-0.865-1.111-0.929l-0.006-0.001-0.156-0.009c-0.076 0-0.149 0.007-0.221 0.019l-0.108 0.021-0.12 0.037-0.076 0.029-0.129 0.065c-0.408 0.233-0.678 0.665-0.679 1.16v0z"></path>
</svg>
