<!-- Generated by IcoMoon.io -->
<svg version="1.1" xmlns="http://www.w3.org/2000/svg" width="32" height="32" viewBox="0 0 32 32">
<title>crown</title>
<path d="M18.4 20c0 1.325-1.075 2.4-2.4 2.4s-2.4-1.075-2.4-2.4v0c0-1.325 1.075-2.4 2.4-2.4s2.4 1.075 2.4 2.4v0zM13.979 8.496l-3.405 4.378c-0.148 0.189-0.376 0.309-0.632 0.309-0.131 0-0.254-0.031-0.363-0.087l0.005 0.002-3.4-1.701c0.137-0.293 0.217-0.636 0.217-0.997 0-1.325-1.075-2.4-2.4-2.4s-2.4 1.075-2.4 2.4c0 1.151 0.811 2.113 1.892 2.346l0.016 0.003 2.707 12.864c0.198 0.913 0.999 1.587 1.957 1.587 0.001 0 0.002 0 0.003 0h15.651c0 0 0.001 0 0.001 0 0.958 0 1.759-0.674 1.955-1.574l0.002-0.013 2.707-12.864c1.097-0.236 1.908-1.198 1.908-2.349 0-1.325-1.075-2.4-2.4-2.4s-2.4 1.075-2.4 2.4c0 0.361 0.080 0.704 0.223 1.012l-0.006-0.015-3.402 1.701c-0.105 0.054-0.228 0.085-0.359 0.085-0.256 0-0.484-0.12-0.63-0.307l-0.001-0.002-3.405-4.378c0.238-0.366 0.379-0.814 0.379-1.295 0-1.325-1.075-2.4-2.4-2.4s-2.4 1.075-2.4 2.4c0 0.481 0.141 0.929 0.385 1.304l-0.006-0.009zM16 8.501l4.163 5.354c0.443 0.566 1.127 0.926 1.894 0.926 0.392 0 0.761-0.094 1.088-0.26l-0.014 0.006 3.744-1.872-2.656 12.627c-0.040 0.182-0.2 0.317-0.391 0.317-0 0-0.001 0-0.001 0h-15.653c-0 0-0.001 0-0.001 0-0.191 0-0.351-0.134-0.391-0.314l-0-0.003-2.658-12.626 3.744 1.872c0.313 0.16 0.683 0.254 1.074 0.254 0.767 0 1.451-0.36 1.89-0.921l0.004-0.005 4.163-5.354z"></path>
</svg>
