<!-- Generated by IcoMoon.io -->
<svg version="1.1" xmlns="http://www.w3.org/2000/svg" width="32" height="32" viewBox="0 0 32 32">
<title>cube-tree</title>
<path d="M13.051 7.351c0.136-0.401 0.509-0.685 0.949-0.685 0.114 0 0.223 0.019 0.325 0.054l-0.007-0.002 1.683 0.563 1.684-0.56c0.091-0.030 0.195-0.047 0.303-0.047 0.552 0 1 0.448 1 1 0 0.435-0.277 0.804-0.664 0.942l-0.007 0.002-1.316 0.439v1.279c0 0.552-0.448 1-1 1s-1-0.448-1-1v0-1.28l-1.316-0.437c-0.401-0.136-0.685-0.509-0.685-0.949 0-0.114 0.019-0.223 0.054-0.325l-0.002 0.007zM16.317 2.717c-0.095-0.033-0.203-0.051-0.317-0.051s-0.222 0.019-0.324 0.054l0.007-0.002-5 1.667c-0.401 0.136-0.684 0.51-0.684 0.949 0 0 0 0 0 0.001v-0 6.667c0 0.431 0.276 0.813 0.684 0.949l4.316 1.439v2.945h-2.333c-1.657 0-3 1.343-3 3v0 1.127c-1.74 0.46-3.001 2.020-3.001 3.874 0 2.21 1.791 4.001 4.001 4.001s4.001-1.791 4.001-4.001c0-1.855-1.262-3.414-2.973-3.868l-0.028-0.006v-1.127c0-0.552 0.448-1 1-1v0h6.667c0.552 0 1 0.448 1 1v0 1.127c-1.735 0.463-2.992 2.021-2.992 3.872 0 2.207 1.786 3.996 3.992 4.001h0c0 0 0.001 0 0.001 0 2.209 0 4-1.791 4-4 0-1.854-1.262-3.414-2.973-3.867l-0.028-0.006v-1.127c0-1.657-1.343-3-3-3v0h-2.333v-2.947l4.316-1.437c0.401-0.136 0.684-0.51 0.684-0.949 0-0 0-0 0-0.001v0-6.667c0-0 0-0 0-0.001 0-0.439-0.283-0.812-0.677-0.947l-0.007-0.002-5-1.667zM12 11.28v-5.225l4-1.333 4 1.333v5.224l-4 1.333-4-1.333zM10.667 23.333c1.105 0 2 0.895 2 2s-0.895 2-2 2v0c-1.105 0-2-0.895-2-2s0.895-2 2-2v0zM19.333 25.333c0-1.105 0.895-2 2-2s2 0.895 2 2v0c0 1.105-0.895 2-2 2s-2-0.895-2-2v0z"></path>
</svg>
