<!-- Generated by IcoMoon.io -->
<svg version="1.1" xmlns="http://www.w3.org/2000/svg" width="32" height="32" viewBox="0 0 32 32">
<title>cube-rotate-regular</title>
<path d="M14.323 5.656c0.492-0.233 1.068-0.368 1.677-0.368s1.185 0.136 1.701 0.379l-0.024-0.010 7.459 3.442c0.276 0.13 0.464 0.406 0.464 0.726 0 0 0 0 0 0v-0 2.976h1.6v-2.976c0-0 0-0 0-0 0-0.96-0.564-1.789-1.379-2.173l-0.015-0.006-7.459-3.442c-0.688-0.326-1.496-0.516-2.347-0.516s-1.659 0.19-2.381 0.53l0.034-0.014-7.459 3.442c-0.83 0.39-1.394 1.218-1.394 2.179 0 0 0 0 0 0v-0 2.976h1.6v-2.976c0-0 0-0 0-0 0-0.32 0.188-0.596 0.459-0.724l0.005-0.002 7.459-3.442zM5.44 17.6c0.356 0.294 0.752 0.576 1.167 0.83l0.045 0.026c2.315 1.416 5.616 2.344 9.347 2.344s7.032-0.928 9.349-2.344c0.085-0.051 0.17-0.106 0.253-0.158 0.366-0.236 0.679-0.466 0.978-0.712l-0.018 0.014c0.232-0.192 0.445-0.387 0.64-0.584 0.328-0.331 0.603-0.672 0.829-1.016h-2.43c-0.442 0-0.8-0.358-0.8-0.8s0.358-0.8 0.8-0.8v0h4c0.442 0 0.8 0.358 0.8 0.8v0 4c0 0.442-0.358 0.8-0.8 0.8s-0.8-0.358-0.8-0.8v0-1.568c-0.478 0.556-1.002 1.048-1.575 1.479l-0.025 0.018c-0.464 0.354-0.987 0.695-1.535 0.996l-0.065 0.033c-2.547 1.392-5.912 2.24-9.6 2.24s-7.053-0.846-9.6-2.24c-0.613-0.333-1.136-0.673-1.631-1.050l0.031 0.022c-0.598-0.449-1.122-0.94-1.589-1.481l-0.011-0.013v1.563c0 0.442-0.358 0.8-0.8 0.8s-0.8-0.358-0.8-0.8v0-4c0-0.442 0.358-0.8 0.8-0.8v0h4c0.442 0 0.8 0.358 0.8 0.8s-0.358 0.8-0.8 0.8v0h-2.432c0.227 0.346 0.504 0.686 0.832 1.018 0.195 0.198 0.406 0.392 0.638 0.582zM6.4 21.96v0.218c0 0 0 0 0 0 0 0.32 0.188 0.596 0.459 0.724l0.005 0.002 7.459 3.442c0.492 0.233 1.068 0.368 1.677 0.368s1.185-0.136 1.701-0.379l-0.024 0.010 7.459-3.442c0.276-0.13 0.464-0.406 0.464-0.726 0-0 0-0 0-0v0-0.219c0.636-0.306 1.16-0.6 1.665-0.922l-0.065 0.039v1.102c0 0 0 0 0 0 0 0.96-0.564 1.789-1.379 2.173l-0.015 0.006-7.459 3.442c-0.688 0.326-1.496 0.516-2.347 0.516s-1.659-0.19-2.381-0.53l0.034 0.014-7.459-3.442c-0.83-0.39-1.394-1.218-1.394-2.179 0-0.001 0-0.001 0-0.002v0-1.101c0.504 0.318 1.038 0.613 1.6 0.883zM9.664 10.886c0.125-0.288 0.407-0.486 0.736-0.486 0.114 0 0.223 0.024 0.321 0.067l-0.005-0.002 5.285 2.266 5.285-2.266c0.093-0.041 0.201-0.065 0.315-0.065 0.442 0 0.801 0.358 0.801 0.801 0 0.328-0.198 0.61-0.48 0.734l-0.005 0.002-5.115 2.19v3.472c0 0.442-0.358 0.8-0.8 0.8s-0.8-0.358-0.8-0.8v0-3.472l-5.115-2.192c-0.288-0.125-0.486-0.407-0.486-0.736 0-0.114 0.024-0.223 0.067-0.321l-0.002 0.005z"></path>
</svg>
