<!-- Generated by IcoMoon.io -->
<svg version="1.1" xmlns="http://www.w3.org/2000/svg" width="32" height="32" viewBox="0 0 32 32">
<title>cube-arrow-curve-down-regular</title>
<path d="M1.605 8.792c0.002-3.972 3.223-7.192 7.195-7.192 0.002 0 0.003 0 0.005 0h-0c3.976 0 7.2 3.219 7.2 7.192-0.002 3.972-3.223 7.192-7.195 7.192-0.002 0-0.003 0-0.005 0h0c-0.001 0-0.003 0-0.005 0-3.973 0-7.193-3.22-7.195-7.192v-0zM11.838 10.224l-1.434 1.434v-2.466c-0.001-2.428-1.969-4.395-4.397-4.395-0.001 0-0.002 0-0.003 0h-0.4c-0.011-0-0.023-0.001-0.036-0.001-0.442 0-0.8 0.358-0.8 0.8s0.358 0.8 0.8 0.8c0.013 0 0.025-0 0.038-0.001l-0.002 0h0.4c1.546 0 2.8 1.251 2.8 2.797v2.464l-1.435-1.432c-0.144-0.139-0.34-0.225-0.556-0.225-0.442 0-0.8 0.358-0.8 0.8 0 0.216 0.086 0.412 0.225 0.556l-0-0 2.805 2.8c0.144 0.143 0.343 0.231 0.562 0.231 0.221 0 0.42-0.089 0.565-0.234v0l2.8-2.797c0.145-0.145 0.235-0.345 0.235-0.566 0-0.441-0.358-0.799-0.799-0.799-0.221 0-0.42 0.089-0.565 0.234v0zM3.2 15.573c0.491 0.405 1.027 0.758 1.6 1.051v5.469c0 0.335 0.205 0.621 0.497 0.74l0.005 0.002 9.213 3.68c0.954 0.382 2.016 0.382 2.971 0l9.211-3.68c0.296-0.121 0.501-0.406 0.502-0.739v-12.224c-0-0.335-0.206-0.621-0.497-0.74l-0.005-0.002-9.213-3.68c-0.174-0.072-0.382-0.138-0.597-0.187l-0.027-0.005c-0.287-0.645-0.616-1.201-0.999-1.713l0.016 0.023c0.747-0.016 1.496 0.117 2.202 0.398l9.211 3.68c0.912 0.365 1.509 1.246 1.509 2.226v12.221c0 0.979-0.597 1.861-1.509 2.224l-9.211 3.683c-0.616 0.253-1.331 0.4-2.080 0.4s-1.464-0.147-2.117-0.414l0.037 0.014-9.211-3.68c-0.891-0.363-1.509-1.222-1.509-2.226v-6.522zM16.858 12.331c-0.43 0.962-0.987 1.786-1.661 2.498l0.004-0.004v6.752c0 0.442 0.358 0.8 0.8 0.8s0.8-0.358 0.8-0.8v0-7.472l6.725-2.986c0.298-0.121 0.504-0.408 0.504-0.743 0-0.442-0.358-0.8-0.8-0.8-0.129 0-0.251 0.030-0.359 0.085l0.005-0.002-6.018 2.672z"></path>
</svg>
