<!-- Generated by IcoMoon.io -->
<svg version="1.1" xmlns="http://www.w3.org/2000/svg" width="32" height="32" viewBox="0 0 32 32">
<title>cube-quick</title>
<path d="M21.397 9.773c-0.074-0.037-0.161-0.059-0.254-0.059s-0.18 0.022-0.257 0.061l0.003-0.002-5.143 2.542c-0.19 0.096-0.318 0.289-0.318 0.512 0 0 0 0.001 0 0.001v-0 6.345c0 0 0 0.001 0 0.001 0 0.223 0.128 0.416 0.314 0.511l0.003 0.002 5.143 2.542c0.074 0.037 0.161 0.059 0.254 0.059s0.18-0.022 0.257-0.061l-0.003 0.002 5.143-2.542c0.19-0.096 0.318-0.289 0.318-0.512 0-0 0-0.001 0-0.001v0-6.345c0-0 0-0.001 0-0.001 0-0.223-0.128-0.416-0.314-0.511l-0.003-0.002-5.143-2.542zM20.13 8.235c0.295-0.149 0.644-0.237 1.013-0.237s0.717 0.087 1.026 0.243l-0.013-0.006 5.143 2.543c0.76 0.382 1.273 1.156 1.273 2.049v0 6.345c-0 0.894-0.513 1.667-1.26 2.043l-0.013 0.006-5.143 2.543c-0.295 0.149-0.644 0.237-1.013 0.237s-0.717-0.087-1.026-0.242l0.013 0.006-5.143-2.543c-0.76-0.382-1.273-1.156-1.273-2.049v0-6.345c0-0.894 0.513-1.667 1.26-2.043l0.013-0.006 5.143-2.543zM4.571 10.571c0-0.473 0.384-0.857 0.857-0.857v0h5.714c0.473 0 0.857 0.384 0.857 0.857s-0.384 0.857-0.857 0.857v0h-5.714c-0.473 0-0.857-0.384-0.857-0.857v0zM2.286 15.714c0-0.473 0.384-0.857 0.857-0.857v0h5.714c0.473 0 0.857 0.384 0.857 0.857s-0.384 0.857-0.857 0.857v0h-5.714c-0.473 0-0.857-0.384-0.857-0.857v0zM5.429 20c-0.473 0-0.857 0.384-0.857 0.857s0.384 0.857 0.857 0.857v0h5.714c0.473 0 0.857-0.384 0.857-0.857s-0.384-0.857-0.857-0.857v0h-5.714zM18.411 13.248c-0.119-0.066-0.261-0.105-0.411-0.105-0.473 0-0.857 0.384-0.857 0.857 0 0.323 0.178 0.603 0.441 0.75l0.004 0.002 2.697 1.471v3.491c0 0.473 0.384 0.857 0.857 0.857s0.857-0.384 0.857-0.857v0-3.491l2.697-1.471c0.268-0.149 0.446-0.429 0.446-0.752 0-0.473-0.384-0.857-0.857-0.857-0.151 0-0.293 0.039-0.416 0.107l0.004-0.002-2.731 1.49-2.731-1.49z"></path>
</svg>
