<!-- Generated by IcoMoon.io -->
<svg version="1.1" xmlns="http://www.w3.org/2000/svg" width="32" height="32" viewBox="0 0 32 32">
<title>cube-add</title>
<path d="M14.515 26.544c0.203 0.083 0.413 0.147 0.624 0.192 0.266 0.603 0.595 1.171 0.982 1.693-0.036 0.001-0.078 0.001-0.12 0.001-0.75 0-1.465-0.147-2.118-0.415l0.037 0.014-9.211-3.683c-0.892-0.364-1.509-1.224-1.509-2.228 0-0 0-0 0-0v0-12.234c0.001-1.004 0.617-1.864 1.493-2.221l0.016-0.006 9.211-3.685c0.616-0.253 1.331-0.401 2.080-0.401s1.464 0.147 2.117 0.414l-0.037-0.014 9.211 3.685c0.912 0.363 1.509 1.246 1.509 2.227v6.528c-0.467-0.388-0.991-0.737-1.551-1.028l-0.049-0.023v-5.477c-0-0.335-0.206-0.621-0.497-0.74l-0.005-0.002-9.213-3.685c-0.44-0.181-0.95-0.286-1.485-0.286s-1.045 0.105-1.512 0.295l0.027-0.010-9.213 3.685c-0.297 0.121-0.502 0.408-0.502 0.742v0 12.234c0 0 0 0.001 0 0.001 0 0.335 0.205 0.621 0.497 0.741l0.005 0.002 9.213 3.683zM9.125 9.669c-0.096-0.044-0.207-0.069-0.325-0.069-0.442 0-0.8 0.358-0.8 0.8 0 0.324 0.193 0.604 0.47 0.729l0.005 0.002 6.725 2.989v5.41c0.425-0.911 0.961-1.693 1.604-2.372l-0.004 0.004v-3.040l6.725-2.99c0.282-0.128 0.475-0.407 0.475-0.731 0-0.442-0.358-0.8-0.8-0.8-0.118 0-0.229 0.025-0.33 0.071l0.005-0.002-6.875 3.056-6.875-3.056zM27.2 29.187c-1.124 0.76-2.509 1.213-4 1.213-3.977 0-7.2-3.224-7.2-7.2 0-2.486 1.259-4.677 3.175-5.971l0.026-0.016c1.124-0.76 2.509-1.213 4-1.213 3.977 0 7.2 3.224 7.2 7.2 0 2.486-1.259 4.677-3.175 5.971l-0.026 0.016zM23.766 19.434c-0.145-0.145-0.345-0.235-0.566-0.235-0.442 0-0.8 0.358-0.8 0.8 0 0 0 0.001 0 0.002v-0 2.4h-2.4c-0.442 0-0.8 0.358-0.8 0.8s0.358 0.8 0.8 0.8v0h2.4v2.4c0 0.442 0.358 0.8 0.8 0.8s0.8-0.358 0.8-0.8v0-2.4h2.4c0.442 0 0.8-0.358 0.8-0.8s-0.358-0.8-0.8-0.8v0h-2.4v-2.4c0-0 0-0.001 0-0.001 0-0.221-0.089-0.42-0.234-0.565l0 0z"></path>
</svg>
