<!-- Generated by IcoMoon.io -->
<svg version="1.1" xmlns="http://www.w3.org/2000/svg" width="32" height="32" viewBox="0 0 32 32">
<title>cube-link</title>
<path d="M8.069 10.074c0.128-0.282 0.407-0.475 0.731-0.475 0.118 0 0.229 0.025 0.33 0.071l-0.005-0.002 6.875 3.056 6.875-3.056c0.096-0.044 0.207-0.069 0.325-0.069 0.442 0 0.8 0.358 0.8 0.8 0 0.324-0.193 0.604-0.47 0.729l-0.005 0.002-6.725 2.989v7.482c0 0.442-0.358 0.8-0.8 0.8s-0.8-0.358-0.8-0.8v0-7.482l-6.725-2.989c-0.282-0.128-0.475-0.407-0.475-0.731 0-0.118 0.025-0.229 0.071-0.33l-0.002 0.005zM13.92 3.97c0.616-0.253 1.331-0.401 2.080-0.401s1.464 0.147 2.117 0.414l-0.037-0.014 9.211 3.685c0.912 0.363 1.509 1.246 1.509 2.227v9.374c-0.24-0.036-0.518-0.057-0.8-0.058h-0.8v-9.317c-0-0.335-0.206-0.621-0.497-0.74l-0.005-0.002-9.213-3.683c-0.44-0.181-0.95-0.286-1.485-0.286s-1.045 0.105-1.512 0.295l0.027-0.010-9.213 3.683c-0.297 0.121-0.502 0.408-0.502 0.742v0 12.234c0 0 0 0.001 0 0.001 0 0.335 0.205 0.621 0.497 0.741l0.005 0.002 9.213 3.685c0.439 0.18 0.948 0.285 1.482 0.285 0.132 0 0.262-0.006 0.39-0.019l-0.016 0.001c0.208 0.539 0.498 1.040 0.853 1.483-0.368 0.086-0.79 0.135-1.223 0.135-0.749 0-1.465-0.147-2.118-0.414l0.037 0.014-9.211-3.685c-0.892-0.364-1.509-1.224-1.509-2.228 0-0 0-0 0-0v0-12.234c0.001-1.004 0.617-1.864 1.493-2.221l0.016-0.006 9.211-3.686zM21.6 20.798c-2.209 0-4 1.791-4 4s1.791 4 4 4h0.8c0.442 0 0.8-0.358 0.8-0.8s-0.358-0.8-0.8-0.8v0h-0.8c-1.325 0-2.4-1.075-2.4-2.4s1.075-2.4 2.4-2.4v0h0.8c0.442 0 0.8-0.358 0.8-0.8s-0.358-0.8-0.8-0.8v0h-0.8zM27.2 20.798c-0.442 0-0.8 0.358-0.8 0.8s0.358 0.8 0.8 0.8v0h0.8c1.325 0 2.4 1.075 2.4 2.4s-1.075 2.4-2.4 2.4h-0.8c-0.442 0-0.8 0.358-0.8 0.8s0.358 0.8 0.8 0.8v0h0.8c2.209 0 4-1.791 4-4s-1.791-4-4-4v0h-0.8zM21.6 23.998c-0.442 0-0.8 0.358-0.8 0.8s0.358 0.8 0.8 0.8v0h6.4c0.442 0 0.8-0.358 0.8-0.8s-0.358-0.8-0.8-0.8v0h-6.4z"></path>
</svg>
