<!-- Generated by IcoMoon.io -->
<svg version="1.1" xmlns="http://www.w3.org/2000/svg" width="32" height="32" viewBox="0 0 32 32">
<title>currency-dollar-euro</title>
<path d="M8.336 2.669c-0.552 0-1 0.448-1 1v0.418c-2.654 0.471-4.669 2.79-4.669 5.579v0.722c0 2.422 1.381 4.631 3.558 5.693l1.112 0.542v9.211c-1.54-0.434-2.669-1.849-2.669-3.529v-1.308c0-0.552-0.448-1-1-1s-1 0.448-1 1v1.308c0 2.791 2.017 5.108 4.669 5.579v0.446c0 0.552 0.448 1 1 1s1-0.448 1-1v-0.447c2.653-0.474 4.664-2.792 4.664-5.578v-0.699c0-2.422-1.381-4.631-3.558-5.693l-1.106-0.539v-9.235c1.538 0.436 2.664 1.85 2.664 3.528v1.335c0 0.552 0.448 1 1 1s1-0.448 1-1v-1.335c0-2.787-2.013-5.105-4.664-5.578v-0.418c0-0.552-0.448-1-1-1zM4.667 9.666c0-1.679 1.129-3.095 2.669-3.529v8.261l-0.235-0.115c-1.489-0.726-2.434-2.238-2.434-3.895v-0.722zM9.336 25.832v-8.234l0.23 0.112c1.489 0.726 2.434 2.238 2.434 3.895v0.699c0 1.677-1.126 3.092-2.664 3.528z"></path>
<path d="M19.333 15.999c0-0.225 0.005-0.447 0.015-0.668l2.316 0.001c0.552 0 1-0.447 1.001-0.999s-0.447-1-0.999-1.001l-2.089-0.001c0.329-1.763 0.974-3.32 1.823-4.539 1.259-1.807 2.902-2.794 4.601-2.794 0.622 0 1.297 0.182 1.783 0.502 0.461 0.304 1.081 0.176 1.385-0.285s0.176-1.081-0.285-1.385c-0.858-0.565-1.929-0.832-2.884-0.832-2.535 0-4.726 1.475-6.242 3.65-1.086 1.559-1.86 3.515-2.212 5.681l-1.879-0.001c-0.552-0-1 0.447-1.001 0.999s0.447 1 0.999 1.001l1.68 0.001c-0.009 0.222-0.013 0.445-0.013 0.669s0.004 0.446 0.013 0.667l-1.679-0c-0.552 0-1 0.448-1 1s0.448 1 1 1l1.879 0c0.352 2.167 1.125 4.124 2.212 5.683 1.516 2.175 3.707 3.65 6.242 3.65 0.927 0 2.023-0.224 2.91-0.841 0.453-0.315 0.565-0.939 0.25-1.392s-0.939-0.565-1.392-0.25c-0.457 0.318-1.117 0.482-1.767 0.482-1.699 0-3.342-0.987-4.601-2.794-0.849-1.219-1.494-2.776-1.823-4.54h2.089c0.552 0 1-0.448 1-1s-0.448-1-1-1h-2.317c-0.010-0.22-0.015-0.443-0.015-0.667z"></path>
</svg>
