<!-- Generated by IcoMoon.io -->
<svg version="1.1" xmlns="http://www.w3.org/2000/svg" width="32" height="32" viewBox="0 0 32 32">
<title>currency-dollar-rupee</title>
<path d="M9.336 3.669c0-0.552-0.448-1-1-1s-1 0.448-1 1v0.418c-2.654 0.471-4.669 2.79-4.669 5.579v0.722c0 2.422 1.381 4.631 3.558 5.693l1.112 0.542v9.211c-1.54-0.434-2.669-1.849-2.669-3.529v-1.308c0-0.552-0.448-1-1-1s-1 0.448-1 1v1.308c0 2.791 2.017 5.108 4.669 5.579v0.446c0 0.552 0.448 1 1 1s1-0.448 1-1v-0.447c2.653-0.474 4.664-2.792 4.664-5.578v-0.699c0-2.422-1.381-4.631-3.558-5.693l-1.106-0.539v-9.235c1.538 0.436 2.664 1.85 2.664 3.528v1.335c0 0.552 0.448 1 1 1s1-0.448 1-1v-1.335c0-2.787-2.013-5.105-4.664-5.578v-0.418zM7.336 6.137v8.261l-0.235-0.115c-1.489-0.726-2.434-2.238-2.434-3.895v-0.722c0-1.679 1.129-3.095 2.669-3.529zM9.336 17.598l0.23 0.112c1.489 0.726 2.434 2.238 2.434 3.895v0.699c0 1.677-1.126 3.092-2.664 3.528v-8.234z"></path>
<path d="M17 3.999c-0.552 0-1 0.448-1 1 0 0.518 0.393 0.944 0.898 0.995 0.034 0.003 0.068 0.005 0.102 0.005h3c1.425 0 2.66 0.813 3.267 2h-6.267c-0.552 0-1 0.448-1 1s0.448 1 1 1h6.652c-0.168 1.869-1.739 3.333-3.652 3.333h-3c-0.375 0-0.718 0.209-0.889 0.542s-0.142 0.734 0.075 1.039l10 14c0.321 0.449 0.946 0.554 1.395 0.233s0.554-0.946 0.233-1.395l-8.871-12.419h1.057c3.018 0 5.485-2.359 5.657-5.333h2.676c0.552 0 1-0.448 1-1s-0.448-1-1-1h-2.916c-0.228-0.743-0.606-1.422-1.097-2h4.013c0.552 0 1-0.448 1-1s-0.448-1-1-1h-11.333z"></path>
</svg>
