<!-- Generated by IcoMoon.io -->
<svg version="1.1" xmlns="http://www.w3.org/2000/svg" width="32" height="32" viewBox="0 0 32 32">
<title>currency-dollar-euro</title>
<path d="M8.336 2.669c-0.552 0-1 0.448-1 1v0 0.417c-2.672 0.491-4.669 2.802-4.669 5.579 0 0 0 0 0 0.001v-0 0.723c0 0 0 0.001 0 0.001 0 2.487 1.434 4.64 3.52 5.676l0.037 0.017 1.112 0.541v9.211c-1.553-0.45-2.669-1.859-2.669-3.529 0-0 0-0.001 0-0.001v0-1.307c0-0.552-0.448-1-1-1s-1 0.448-1 1v0 1.307c0 2.777 1.998 5.088 4.635 5.573l0.035 0.005v0.447c0 0.552 0.448 1 1 1s1-0.448 1-1v0-0.447c2.669-0.493 4.664-2.803 4.664-5.578 0-0 0-0 0-0v0-0.699c0-0 0-0.001 0-0.001 0-2.487-1.434-4.64-3.52-5.676l-0.037-0.017-1.107-0.539v-9.235c1.55 0.452 2.664 1.86 2.664 3.528 0 0 0 0 0 0v0 1.333c0 0.552 0.448 1 1 1s1-0.448 1-1v0-1.333c0-2.788-2.013-5.107-4.664-5.579v-0.419c0-0.552-0.448-1-1-1v0zM4.667 9.667c0-1.68 1.129-3.096 2.669-3.531v8.261l-0.235-0.115c-1.453-0.72-2.434-2.192-2.435-3.893v-0.723zM9.336 25.832v-8.233l0.229 0.112c1.453 0.72 2.434 2.192 2.435 3.893v0.7c0 0 0 0 0 0 0 1.668-1.114 3.076-2.638 3.521l-0.026 0.006zM19.333 16c0-0.225 0.005-0.448 0.015-0.668h2.316c0 0 0 0 0.001 0 0.552 0 1-0.448 1-1s-0.447-1-0.999-1h-2.089c0.329-1.764 0.973-3.32 1.823-4.539 1.26-1.807 2.903-2.793 4.601-2.793 0.623 0 1.297 0.181 1.783 0.501 0.155 0.104 0.346 0.165 0.551 0.165 0.553 0 1-0.448 1-1 0-0.348-0.177-0.654-0.446-0.833l-0.004-0.002c-0.859-0.564-1.929-0.831-2.884-0.831-2.535 0-4.725 1.475-6.241 3.649-1.087 1.559-1.86 3.516-2.213 5.68h-1.877c-0 0-0 0-0.001 0-0.552 0-1 0.448-1 1s0.447 1 0.999 1h1.68c-0.008 0.199-0.013 0.434-0.013 0.669s0.005 0.469 0.014 0.702l-0.001-0.033h-1.68c-0.552 0-1 0.448-1 1s0.448 1 1 1v0h1.88c0.352 2.165 1.125 4.124 2.212 5.683 1.516 2.173 3.707 3.651 6.241 3.651 0.927 0 2.023-0.225 2.909-0.84 0.261-0.183 0.429-0.483 0.429-0.821 0-0.552-0.448-1-1-1-0.214 0-0.411 0.067-0.574 0.181l0.003-0.002c-0.457 0.317-1.117 0.481-1.768 0.481-1.699 0-3.341-0.987-4.6-2.793-0.851-1.219-1.495-2.776-1.824-4.539h2.089c0.552 0 1-0.448 1-1s-0.448-1-1-1v0h-2.319c-0.009-0.197-0.015-0.428-0.015-0.661 0-0.002 0-0.004 0-0.006v0z"></path>
</svg>
