<!-- Generated by IcoMoon.io -->
<svg version="1.1" xmlns="http://www.w3.org/2000/svg" width="32" height="32" viewBox="0 0 32 32">
<title>cut-regular</title>
<path d="M16.187 12.455v0.003l-6.36-9.353c-0.182-0.268-0.486-0.442-0.83-0.442-0.552 0-1 0.448-1 1 0 0.212 0.066 0.409 0.178 0.57l-0.002-0.003 6.84 10.060-3.193 4.991c-0.721-0.388-1.578-0.616-2.488-0.616-2.946 0-5.333 2.388-5.333 5.333s2.388 5.333 5.333 5.333c2.946 0 5.333-2.388 5.333-5.333 0-1.324-0.482-2.535-1.281-3.467l0.006 0.007 2.847-4.449 2.753 4.048c-1.020 0.973-1.654 2.343-1.654 3.861 0 2.946 2.388 5.333 5.333 5.333s5.333-2.388 5.333-5.333c0-2.946-2.388-5.333-5.333-5.333-0.72 0-1.407 0.143-2.033 0.401l0.035-0.013-3.263-4.796 0.003-0.003-1.224-1.797zM6 24.001c0-1.841 1.492-3.333 3.333-3.333s3.333 1.492 3.333 3.333v0c0 1.841-1.492 3.333-3.333 3.333s-3.333-1.492-3.333-3.333v0zM19.333 24.001c0-1.841 1.492-3.333 3.333-3.333s3.333 1.492 3.333 3.333v0c0 1.841-1.492 3.333-3.333 3.333s-3.333-1.492-3.333-3.333v0zM18.584 12.421l5.257-8.216c0.109-0.158 0.174-0.353 0.174-0.564 0-0.552-0.448-1-1-1-0.363 0-0.68 0.193-0.855 0.482l-0.003 0.004-4.797 7.496 1.224 1.797z"></path>
</svg>
