<!-- Generated by IcoMoon.io -->
<svg version="1.1" xmlns="http://www.w3.org/2000/svg" width="32" height="32" viewBox="0 0 32 32">
<title>cut</title>
<path d="M16.188 12.455l-0.001 0.002-6.36-9.353c-0.311-0.457-0.933-0.575-1.389-0.265s-0.575 0.933-0.265 1.389l6.841 10.060-3.194 4.991c-0.742-0.392-1.588-0.614-2.486-0.614-2.946 0-5.333 2.388-5.333 5.333s2.388 5.333 5.333 5.333 5.333-2.388 5.333-5.333c0-1.322-0.481-2.531-1.277-3.463l2.847-4.449 2.753 4.048c-1.021 0.971-1.657 2.343-1.657 3.864 0 2.946 2.388 5.333 5.333 5.333s5.333-2.388 5.333-5.333c0-2.945-2.388-5.333-5.333-5.333-0.705 0-1.379 0.137-1.995 0.386l-3.262-4.797 0.002-0.003-1.224-1.798zM6 24c0-1.841 1.492-3.333 3.333-3.333s3.333 1.492 3.333 3.333c0 1.841-1.492 3.333-3.333 3.333s-3.333-1.492-3.333-3.333zM19.333 24c0-1.841 1.492-3.333 3.333-3.333s3.333 1.492 3.333 3.333c0 1.841-1.492 3.333-3.333 3.333s-3.333-1.492-3.333-3.333z"></path>
<path d="M18.584 12.421l5.258-8.216c0.298-0.465 0.162-1.084-0.303-1.381s-1.084-0.162-1.381 0.303l-4.797 7.496 1.224 1.798z"></path>
</svg>
