<!-- Generated by IcoMoon.io -->
<svg version="1.1" xmlns="http://www.w3.org/2000/svg" width="32" height="32" viewBox="0 0 32 32">
<title>data-bar-vertical-regular</title>
<path d="M5 7c0-1.657 1.343-3 3-3s3 1.343 3 3v0 18c0 1.657-1.343 3-3 3s-3-1.343-3-3v0-18zM8 6c-0.552 0-1 0.448-1 1v0 18c0 0.552 0.448 1 1 1s1-0.448 1-1v0-18c0-0.552-0.448-1-1-1v0zM13 13c0-1.657 1.343-3 3-3s3 1.343 3 3v0 12c0 1.657-1.343 3-3 3s-3-1.343-3-3v0-12zM16 12c-0.552 0-1 0.448-1 1v0 12c0 0.552 0.448 1 1 1s1-0.448 1-1v0-12c0-0.552-0.448-1-1-1v0zM24 16c-1.657 0-3 1.343-3 3v0 6c0 1.657 1.343 3 3 3s3-1.343 3-3v0-6c0-1.657-1.343-3-3-3v0zM23 19c0-0.552 0.448-1 1-1s1 0.448 1 1v0 6c0 0.552-0.448 1-1 1s-1-0.448-1-1v0-6z"></path>
</svg>
