<!-- Generated by IcoMoon.io -->
<svg version="1.1" xmlns="http://www.w3.org/2000/svg" width="32" height="32" viewBox="0 0 32 32">
<title>data-histogram</title>
<path d="M11.333 6.997c0-1.655 1.343-2.997 3-2.997h3.333c1.657 0 3 1.342 3 2.997v2.357h4.333c1.657 0 3 1.342 3 2.997v14.65c0 0.552-0.448 0.999-1 0.999h-22c-0.552 0-1-0.447-1-0.999v-10.655c0-1.655 1.343-2.997 3-2.997h4.333v-6.353zM13.333 26.002h5.333v-19.006c0-0.552-0.448-0.999-1-0.999h-3.333c-0.552 0-1 0.447-1 0.999v19.006zM11.333 15.347h-4.333c-0.552 0-1 0.447-1 0.999v9.656h5.333v-10.655zM20.667 26.002h5.333v-13.652c0-0.552-0.448-0.999-1-0.999h-4.333v14.65z"></path>
</svg>
