<!-- Generated by IcoMoon.io -->
<svg version="1.1" xmlns="http://www.w3.org/2000/svg" width="32" height="32" viewBox="0 0 32 32">
<title>data-bar-vertical-star</title>
<path d="M27 7c0-1.657-1.343-3-3-3s-3 1.343-3 3v0 7.223c0.599-0.142 1.288-0.223 1.995-0.223 0.002 0 0.004 0 0.006 0h-0v-7c0-0.552 0.448-1 1-1s1 0.448 1 1v0 7.223c0.701 0.16 1.372 0.4 2 0.712v-7.935zM19 13v1.935c-0.728 0.362-1.4 0.82-2 1.357v-3.292c0-0.552-0.448-1-1-1s-1 0.448-1 1v0 5.873c-0.64 1.236-1 2.64-1 4.127 0 1.831 0.547 3.535 1.486 4.956-1.421-0.254-2.486-1.48-2.486-2.956 0-0 0-0 0-0v0-12c0-1.657 1.343-3 3-3s3 1.343 3 3v0zM11 19c0-1.657-1.343-3-3-3s-3 1.343-3 3v0 6c0 1.657 1.343 3 3 3s3-1.343 3-3v0-6zM8 18c0.552 0 1 0.448 1 1v0 6c0 0.552-0.448 1-1 1s-1-0.448-1-1v0-6c0-0.552 0.448-1 1-1v0zM30.5 23c0 4.142-3.358 7.5-7.5 7.5s-7.5-3.358-7.5-7.5v0c0-4.142 3.358-7.5 7.5-7.5s7.5 3.358 7.5 7.5v0zM22.288 18.138l-0.94 2.828h-2.994c-0.731 0-1.030 0.938-0.434 1.361l2.406 1.707-0.929 2.792c-0.228 0.687 0.555 1.267 1.146 0.848l2.457-1.743 2.457 1.743c0.591 0.42 1.374-0.16 1.146-0.848l-0.93-2.792 2.407-1.707c0.597-0.423 0.297-1.361-0.434-1.361h-2.994l-0.94-2.828c-0.228-0.684-1.196-0.684-1.424 0z"></path>
</svg>
