<!-- Generated by IcoMoon.io -->
<svg version="1.1" xmlns="http://www.w3.org/2000/svg" width="32" height="32" viewBox="0 0 32 32">
<title>database-multiple</title>
<path d="M12.646 2.843c-1.646 0.749-3.046 1.946-3.046 3.557v4.822c0.239-0.014 0.519-0.022 0.8-0.022s0.561 0.008 0.838 0.024l-0.038-0.002v-2.106c0.434 0.323 0.928 0.605 1.446 0.84 1.718 0.781 4.037 1.243 6.554 1.243s4.835-0.462 6.554-1.243c0.553-0.249 1.028-0.53 1.468-0.855l-0.021 0.015v13.283c0 0.598-0.57 1.4-2.109 2.101-1.466 0.666-3.549 1.099-5.891 1.099v0.8c0 0.277-0.029 0.544-0.082 0.8h0.082c2.517 0 4.835-0.462 6.554-1.243 1.646-0.749 3.046-1.946 3.046-3.557v-16c0-1.611-1.4-2.808-3.046-3.557-1.718-0.781-4.037-1.243-6.554-1.243s-4.835 0.462-6.554 1.243zM13.309 8.501c-1.539-0.701-2.109-1.504-2.109-2.101 0-0.598 0.57-1.4 2.109-2.101 1.466-0.666 3.549-1.099 5.891-1.099s4.426 0.432 5.891 1.099c1.539 0.701 2.109 1.504 2.109 2.101 0 0.598-0.57 1.4-2.109 2.101-1.466 0.666-3.549 1.099-5.891 1.099s-4.426-0.432-5.891-1.099zM11.2 12.824c0.485 0.030 0.955 0.086 1.408 0.168 0.64 0.114 1.243 0.277 1.792 0.48 1.93 0.72 3.2 1.941 3.2 3.328 0 2.208-3.224 4-7.2 4s-7.2-1.792-7.2-4c0-2.059 2.8-3.755 6.4-3.976 0.239-0.016 0.519-0.025 0.8-0.025s0.561 0.009 0.838 0.026l-0.038-0.002zM17.482 27.128c-0.616 1.861-3.552 3.27-7.082 3.27-3.976 0.002-7.2-1.79-7.2-3.998v-6.312c0.408 0.368 0.864 0.68 1.331 0.941 1.584 0.88 3.661 1.373 5.869 1.373s4.286-0.494 5.869-1.373c0.469-0.261 0.925-0.576 1.333-0.944v5.451l-0.002 0.864c0 0.25-0.040 0.493-0.118 0.728z"></path>
</svg>
