<!-- Generated by IcoMoon.io -->
<svg version="1.1" xmlns="http://www.w3.org/2000/svg" width="32" height="32" viewBox="0 0 32 32">
<title>data-usage</title>
<path d="M24.333 3.996c2.025 0 3.667 1.642 3.667 3.667v16.667c0 2.025-1.642 3.667-3.667 3.667h-16.667c-2.025 0-3.667-1.642-3.667-3.667v-16.667c0-2.025 1.642-3.667 3.667-3.667h16.667zM24.333 5.996h-16.667c-0.92 0-1.667 0.746-1.667 1.667v16.667c0 0.92 0.746 1.667 1.667 1.667h16.667c0.921 0 1.667-0.746 1.667-1.667v-16.667c0-0.92-0.746-1.667-1.667-1.667zM10.333 12.001c0.506 0 0.925 0.375 0.991 0.861l0.009 0.135v8.675c0 0.55-0.448 0.996-1 0.996-0.506 0-0.925-0.375-0.991-0.861l-0.009-0.135v-8.675c0-0.55 0.448-0.996 1-0.996zM21.667 9.334c0.506 0 0.925 0.366 0.991 0.841l0.009 0.132v11.388c0 0.537-0.448 0.973-1 0.973-0.506 0-0.925-0.366-0.991-0.841l-0.009-0.132v-11.388c0-0.537 0.448-0.973 1-0.973zM15.967 15.996c0.494-0.005 0.906 0.355 0.976 0.828l0.010 0.131 0.047 4.73c0.005 0.535-0.428 0.973-0.967 0.978-0.494 0.005-0.906-0.355-0.976-0.828l-0.010-0.131-0.047-4.73c-0.005-0.535 0.428-0.973 0.967-0.978z"></path>
</svg>
