<!-- Generated by IcoMoon.io -->
<svg version="1.1" xmlns="http://www.w3.org/2000/svg" width="32" height="32" viewBox="0 0 32 32">
<title>data-pie</title>
<path d="M13.667 5.667c0.552 0 1 0.448 1 1v10.667h10.667c0.506 0 0.925 0.376 0.991 0.864l0.009 0.136c0 6.627-5.373 11.333-12 11.333s-12-5.373-12-12c0-6.627 4.706-12 11.333-12zM12.667 7.716l-0.279 0.032c-4.919 0.628-8.055 4.829-8.055 9.919 0 5.523 4.477 10 10 10 5.090 0 9.291-3.136 9.919-8.055l0.030-0.279h-10.616c-0.506 0-0.925-0.376-0.991-0.864l-0.009-0.136v-10.617zM17.667 2.333c6.627 0 12 5.373 12 12 0 0.552-0.448 1-1 1h-11c-0.552 0-1-0.448-1-1v-11c0-0.552 0.448-1 1-1zM18.667 4.383v8.951h8.949l-0.030-0.279c-0.574-4.5-4.14-8.066-8.641-8.64l-0.279-0.032z"></path>
</svg>
