<!-- Generated by IcoMoon.io -->
<svg version="1.1" xmlns="http://www.w3.org/2000/svg" width="32" height="32" viewBox="0 0 32 32">
<title>data-usage-regular</title>
<path d="M24.333 3.995c2.025 0 3.667 1.642 3.667 3.667v0 16.667c0 2.025-1.642 3.667-3.667 3.667v0h-16.667c-2.025 0-3.667-1.642-3.667-3.667v-16.667c0-2.025 1.642-3.667 3.667-3.667v0h16.667zM24.333 5.995h-16.667c-0.92 0-1.667 0.747-1.667 1.667v16.667c0 0.92 0.747 1.667 1.667 1.667h16.667c0.92 0 1.667-0.747 1.667-1.667v-16.667c0-0.92-0.747-1.667-1.667-1.667zM10.333 12c0.507 0 0.924 0.375 0.991 0.861l0.009 0.135v8.676c-0.002 0.55-0.447 0.995-0.997 0.995-0.001 0-0.002 0-0.003 0h0c-0.001 0-0.001 0-0.002 0-0.503 0-0.919-0.371-0.988-0.855l-0.001-0.005-0.009-0.136v-8.676c0-0.549 0.448-0.995 1-0.995zM21.667 9.333c0.507 0 0.925 0.367 0.991 0.84l0.009 0.133v11.388c-0.007 0.539-0.446 0.973-0.987 0.973-0.005 0-0.009-0-0.014-0h0.001c-0.003 0-0.007 0-0.010 0-0.495 0-0.905-0.362-0.98-0.836l-0.001-0.006-0.009-0.132v-11.389c0.007-0.539 0.446-0.973 0.987-0.973 0.005 0 0.009 0 0.014 0h-0.001zM15.967 15.996c0.004-0 0.009-0 0.014-0 0.486 0 0.889 0.356 0.962 0.821l0.001 0.006 0.011 0.133 0.047 4.729c0 0.001 0 0.003 0 0.004 0 0.535-0.432 0.97-0.966 0.973h-0c-0.004 0-0.008 0-0.013 0-0.486 0-0.889-0.356-0.963-0.821l-0.001-0.006-0.011-0.132-0.047-4.729c0-0.002 0-0.003 0-0.005 0-0.535 0.432-0.97 0.966-0.973h0z"></path>
</svg>
