<!-- Generated by IcoMoon.io -->
<svg version="1.1" xmlns="http://www.w3.org/2000/svg" width="32" height="32" viewBox="0 0 32 32">
<title>data-usage-edit-regular</title>
<path d="M26.667 6.328c0-2.025-1.642-3.667-3.667-3.667v0h-16.667c-2.025 0-3.667 1.642-3.667 3.667v0 16.667c0 2.025 1.642 3.667 3.667 3.667v0h8.888l0.14-0.56c0.128-0.512 0.337-0.997 0.617-1.44h-9.645c-0.92 0-1.667-0.747-1.667-1.667v-16.667c0-0.92 0.747-1.667 1.667-1.667h16.667c0.92 0 1.667 0.747 1.667 1.667v9.484c0.583-0.533 1.275-0.88 2-1.041v-8.443zM21.333 19.139v-10.165l-0.009-0.133c-0.076-0.479-0.486-0.84-0.98-0.84-0.004 0-0.007 0-0.011 0h0.001c-0.004-0-0.009-0-0.013-0-0.54 0-0.979 0.434-0.987 0.973v11.389l0.009 0.132c0.023 0.167 0.089 0.32 0.189 0.449l1.801-1.803zM9.991 11.525c-0.072-0.488-0.488-0.859-0.99-0.859-0 0-0.001 0-0.001 0h0c-0.001 0-0.002 0-0.003 0-0.55 0-0.997 0.446-0.997 0.996v8.676l0.009 0.135c0.067 0.487 0.484 0.86 0.991 0.86 0.552 0 1-0.445 1-0.995v-8.677l-0.009-0.135zM15.609 15.489c-0.074-0.471-0.476-0.827-0.962-0.827-0.005 0-0.010 0-0.014 0h0.001c-0.535 0.004-0.967 0.438-0.967 0.973 0 0.001 0 0.003 0 0.004v-0l0.047 4.729 0.011 0.132c0.074 0.471 0.477 0.827 0.963 0.827 0.004 0 0.009-0 0.013-0h-0.001c0.535-0.004 0.967-0.438 0.967-0.973 0-0.001 0-0.003 0-0.004v0l-0.047-4.731-0.011-0.131zM25.467 16.892l-7.871 7.869c-0.446 0.446-0.774 1.009-0.936 1.639l-0.005 0.025-0.611 2.44c-0.028 0.106-0.044 0.228-0.044 0.353 0 0.8 0.649 1.449 1.449 1.449 0.125 0 0.247-0.016 0.363-0.046l-0.010 0.002 2.44-0.611c0.655-0.167 1.218-0.496 1.664-0.941l7.869-7.871c0.514-0.544 0.83-1.281 0.83-2.091 0-1.683-1.365-3.048-3.048-3.048-0.81 0-1.547 0.316-2.093 0.832l0.001-0.001z"></path>
</svg>
