<!-- Generated by IcoMoon.io -->
<svg version="1.1" xmlns="http://www.w3.org/2000/svg" width="32" height="32" viewBox="0 0 32 32">
<title>data-bar-vertical-add</title>
<path d="M19.338 6.336c0-2.026-1.643-3.669-3.669-3.669s-3.669 1.643-3.669 3.669v19.331c0 2.026 1.643 3.669 3.669 3.669 0.427 0 0.838-0.073 1.22-0.208-0.486-0.54-0.905-1.142-1.245-1.793-0.91-0.013-1.644-0.755-1.644-1.669v-19.331c0-0.922 0.747-1.669 1.669-1.669s1.669 0.747 1.669 1.669v10.739c0.593-0.568 1.265-1.052 2-1.434v-9.305z"></path>
<path d="M28.672 16.506v-3.504c0-2.026-1.643-3.669-3.669-3.669s-3.669 1.643-3.669 3.669v1.897c0.642-0.152 1.312-0.232 2-0.232v-1.665c0-0.922 0.747-1.669 1.669-1.669s1.669 0.747 1.669 1.669v2.331c0.721 0.301 1.393 0.697 2 1.173z"></path>
<path d="M6.336 16c2.026 0 3.669 1.643 3.669 3.669v5.998c0 2.026-1.643 3.669-3.669 3.669s-3.669-1.643-3.669-3.669v-5.998c0-2.026 1.643-3.669 3.669-3.669zM6.336 18c-0.922 0-1.669 0.747-1.669 1.669v5.998c0 0.922 0.747 1.669 1.669 1.669s1.669-0.747 1.669-1.669v-5.998c0-0.922-0.747-1.669-1.669-1.669z"></path>
<path d="M30.667 23.334c0-4.050-3.283-7.333-7.333-7.333s-7.333 3.283-7.333 7.333c0 4.050 3.283 7.333 7.333 7.333s7.333-3.283 7.333-7.333zM24.001 24.001l0.001 3.338c0 0.368-0.298 0.667-0.667 0.667s-0.667-0.299-0.667-0.667l-0.001-3.338h-3.339c-0.368 0-0.667-0.299-0.667-0.667s0.299-0.667 0.667-0.667h3.339l-0.001-3.334c0-0.368 0.299-0.667 0.667-0.667s0.667 0.298 0.667 0.667l0.001 3.334h3.337c0.368 0 0.667 0.298 0.667 0.667s-0.298 0.667-0.667 0.667h-3.337z"></path>
</svg>
