<!-- Generated by IcoMoon.io -->
<svg version="1.1" xmlns="http://www.w3.org/2000/svg" width="32" height="32" viewBox="0 0 32 32">
<title>data-usage-toolbox</title>
<path d="M23 2.662c2.025 0 3.667 1.642 3.667 3.667v8.809c-0.318-0.090-0.653-0.138-1-0.138h-1v-8.671c0-0.92-0.746-1.667-1.667-1.667h-16.667c-0.92 0-1.667 0.746-1.667 1.667v16.667c0 0.921 0.746 1.667 1.667 1.667h8.333v2h-8.333c-2.025 0-3.667-1.642-3.667-3.667v-16.667c0-2.025 1.642-3.667 3.667-3.667h16.667zM21.333 8.973v6.027h-0.333c-0.6 0-1.167 0.144-1.667 0.4v-6.427c0-0.537 0.448-0.973 1-0.973 0.506 0 0.925 0.366 0.991 0.841l0.009 0.132zM15.619 15.621l0.040 4.005c-0.461 0.455-0.79 1.043-0.925 1.701-0.011 0.001-0.023 0.001-0.035 0.001-0.494 0.005-0.906-0.356-0.976-0.828l-0.010-0.131-0.047-4.73c-0.005-0.535 0.428-0.973 0.967-0.978 0.494-0.005 0.906 0.356 0.976 0.828l0.010 0.131zM9 10.667c0.506 0 0.925 0.375 0.991 0.861l0.009 0.135v8.675c0 0.55-0.448 0.996-1 0.996-0.506 0-0.925-0.375-0.991-0.861l-0.009-0.135v-8.675c0-0.55 0.448-0.996 1-0.996zM18.667 20h-0.667c-1.105 0-2 0.895-2 2v2h3.333v-0.333c0-0.552 0.448-1 1-1s1 0.448 1 1v0.333h4v-0.333c0-0.552 0.448-1 1-1s1 0.448 1 1v0.333h3.333v-2c0-1.105-0.895-2-2-2h-0.667v-1.333c0-1.289-1.045-2.333-2.333-2.333h-4.667c-1.289 0-2.333 1.045-2.333 2.333v1.333zM20.667 18.667c0-0.184 0.149-0.333 0.333-0.333h4.667c0.184 0 0.333 0.149 0.333 0.333v1.333h-5.333v-1.333zM16 28.667v-2.667h3.333v1c0 0.552 0.448 1 1 1s1-0.448 1-1v-1h4v1c0 0.552 0.448 1 1 1s1-0.448 1-1v-1h3.333v2.667c0 1.105-0.895 2-2 2h-10.667c-1.105 0-2-0.895-2-2z"></path>
</svg>
