<!-- Generated by IcoMoon.io -->
<svg version="1.1" xmlns="http://www.w3.org/2000/svg" width="32" height="32" viewBox="0 0 32 32">
<title>data-usage-toolbox-regular</title>
<path d="M23 2.661c2.025 0 3.667 1.642 3.667 3.667v0 8.809c-0.299-0.088-0.643-0.139-0.999-0.139-0 0-0 0-0.001 0h-1v-8.671c0-0.92-0.747-1.667-1.667-1.667h-16.667c-0.92 0-1.667 0.747-1.667 1.667v16.667c0 0.92 0.747 1.667 1.667 1.667h8.333v2h-8.333c-2.025 0-3.667-1.642-3.667-3.667v-16.667c0-2.025 1.642-3.667 3.667-3.667v0h16.667zM21.333 8.973v6.027h-0.333c-0.6 0-1.167 0.144-1.667 0.4v-6.427c0.007-0.539 0.446-0.973 0.987-0.973 0.005 0 0.009 0 0.014 0h-0.001c0.507 0 0.925 0.367 0.991 0.84l0.009 0.133zM15.62 15.621l0.040 4.005c-0.457 0.45-0.784 1.030-0.921 1.681l-0.004 0.022h-0.035c-0.004 0-0.008 0-0.013 0-0.486 0-0.889-0.356-0.963-0.821l-0.001-0.006-0.011-0.132-0.047-4.729c0-0.002 0-0.003 0-0.005 0-0.535 0.432-0.97 0.966-0.973h0c0.004-0 0.009-0 0.014-0 0.486 0 0.889 0.356 0.962 0.821l0.001 0.005 0.011 0.133zM9 10.667c0.507 0 0.924 0.375 0.991 0.861l0.009 0.135v8.676c-0.002 0.55-0.447 0.995-0.997 0.995-0.001 0-0.002 0-0.003 0h0c-0.001 0-0.001 0-0.002 0-0.503 0-0.919-0.371-0.988-0.855l-0.001-0.005-0.009-0.136v-8.676c0-0.549 0.448-0.995 1-0.995zM18.667 20h-0.667c-1.105 0-2 0.895-2 2v0 2h3.333v-0.333c0-0.552 0.448-1 1-1s1 0.448 1 1v0 0.333h4v-0.333c0-0.552 0.448-1 1-1s1 0.448 1 1v0 0.333h3.333v-2c0-1.105-0.895-2-2-2v0h-0.667v-1.333c0-1.289-1.045-2.333-2.333-2.333v0h-4.667c-1.289 0-2.333 1.045-2.333 2.333v0 1.333zM20.667 18.667c0-0.184 0.149-0.333 0.333-0.333v0h4.667c0.184 0 0.333 0.149 0.333 0.333v0 1.333h-5.333v-1.333zM16 28.667v-2.667h3.333v1c0 0.552 0.448 1 1 1s1-0.448 1-1v0-1h4v1c0 0.552 0.448 1 1 1s1-0.448 1-1v0-1h3.333v2.667c0 1.105-0.895 2-2 2v0h-10.667c-1.105 0-2-0.895-2-2v0z"></path>
</svg>
