<!-- Generated by IcoMoon.io -->
<svg version="1.1" xmlns="http://www.w3.org/2000/svg" width="32" height="32" viewBox="0 0 32 32">
<title>data-bar-vertical</title>
<path d="M7.665 4c1.656 0 2.999 1.343 2.999 2.999v18.002c0 1.656-1.343 2.999-2.999 2.999s-2.999-1.343-2.999-2.999v-18.002c0-1.656 1.343-2.999 2.999-2.999zM16.332 9.333c1.656 0 2.999 1.343 2.999 2.999v12.669c0 1.656-1.343 2.999-2.999 2.999s-2.999-1.343-2.999-2.999v-12.669c0-1.656 1.343-2.999 2.999-2.999zM24.999 14.667c1.656 0 2.999 1.343 2.999 2.999v7.336c0 1.656-1.343 2.999-2.999 2.999s-2.999-1.343-2.999-2.999v-7.336c0-1.656 1.343-2.999 2.999-2.999zM7.665 6c-0.552 0-0.999 0.447-0.999 0.999v18.002c0 0.552 0.447 0.999 0.999 0.999s0.999-0.447 0.999-0.999v-18.002c0-0.552-0.447-0.999-0.999-0.999zM16.332 11.333c-0.552 0-0.999 0.447-0.999 0.999v12.669c0 0.552 0.447 0.999 0.999 0.999s0.999-0.447 0.999-0.999v-12.669c0-0.552-0.447-0.999-0.999-0.999zM24.999 16.667c-0.552 0-0.999 0.447-0.999 0.999v7.336c0 0.552 0.447 0.999 0.999 0.999s0.999-0.447 0.999-0.999v-7.336c0-0.552-0.447-0.999-0.999-0.999z"></path>
</svg>
