<!-- Generated by IcoMoon.io -->
<svg version="1.1" xmlns="http://www.w3.org/2000/svg" width="32" height="32" viewBox="0 0 32 32">
<title>database-arrow-right</title>
<path d="M27 7c0-2.761-4.925-5-11-5s-11 2.239-11 5v18c0 2.761 4.925 5 11 5 0.42 0 0.834-0.010 1.242-0.032-0.59-0.571-1.1-1.218-1.517-1.928l-0.023-0.042c-2.694-0.035-5.036-0.548-6.653-1.283-1.856-0.845-2.049-1.6-2.049-1.715v-15.124c1.99 1.284 5.28 2.124 9 2.124s7.010-0.84 9-2.124v4.748c0.753 0.129 1.424 0.331 2.058 0.604l-0.058-0.022v-8.206zM25 7c0 0.114-0.193 0.871-2.050 1.715-1.674 0.762-4.13 1.285-6.95 1.285s-5.275-0.523-6.95-1.285c-1.858-0.845-2.050-1.6-2.050-1.715 0-0.114 0.193-0.871 2.050-1.715 1.674-0.762 4.13-1.285 6.95-1.285s5.275 0.523 6.95 1.285c1.858 0.845 2.050 1.6 2.050 1.715zM31 23.5c0-4.142-3.358-7.5-7.5-7.5s-7.5 3.358-7.5 7.5v0c0 4.142 3.358 7.5 7.5 7.5s7.5-3.358 7.5-7.5v0zM18.75 22.5h7.69l-2.72-2.72c-0.147-0.137-0.239-0.332-0.239-0.549 0-0.414 0.336-0.75 0.75-0.75 0.216 0 0.411 0.092 0.548 0.238l0 0 4 4c0.136 0.136 0.219 0.323 0.219 0.53s-0.084 0.394-0.219 0.53v0l-4 4c-0.137 0.147-0.332 0.239-0.549 0.239-0.414 0-0.75-0.336-0.75-0.75 0-0.216 0.092-0.411 0.238-0.548l0-0 2.72-2.72h-7.69c-0.414 0-0.75-0.336-0.75-0.75s0.336-0.75 0.75-0.75v0z"></path>
</svg>
