<!-- Generated by IcoMoon.io -->
<svg version="1.1" xmlns="http://www.w3.org/2000/svg" width="32" height="32" viewBox="0 0 32 32">
<title>data-pie-regular</title>
<path d="M13.667 5.667c0.552 0 1 0.448 1 1v0 10.667h10.667c0.504 0 0.921 0.373 0.99 0.859l0.001 0.005 0.009 0.136c0 6.627-5.373 11.333-12 11.333s-12-5.373-12-12v0c0-6.627 4.707-12 11.333-12zM12.667 7.716l-0.279 0.032c-4.92 0.627-8.055 4.829-8.055 9.919 0 5.523 4.477 10 10 10v0c5.089 0 9.291-3.136 9.92-8.055l0.029-0.279h-10.616c-0.504-0-0.921-0.373-0.99-0.859l-0.001-0.005-0.009-0.136v-10.617zM17.667 2.333c6.627 0 12 5.373 12 12v0c0 0.552-0.448 1-1 1v0h-11c-0.552 0-1-0.448-1-1v0-11c0-0.552 0.448-1 1-1v0zM18.667 4.383v8.951h8.949l-0.031-0.279c-0.6-4.51-4.13-8.040-8.589-8.634l-0.051-0.006-0.279-0.032z"></path>
</svg>
