<!-- Generated by IcoMoon.io -->
<svg version="1.1" xmlns="http://www.w3.org/2000/svg" width="32" height="32" viewBox="0 0 32 32">
<title>data-line</title>
<path d="M25.333 6c-1.105 0-2 0.895-2 2s0.895 2 2 2c1.105 0 2-0.895 2-2s-0.895-2-2-2zM21.333 8c0-2.209 1.791-4 4-4s4 1.791 4 4c0 2.209-1.791 4-4 4-0.216 0-0.427-0.017-0.634-0.050l-2.717 4.478c0.432 0.639 0.685 1.409 0.685 2.239 0 2.209-1.791 4-4 4-1.204 0-2.283-0.532-3.017-1.373l-4.989 2.494c0.004 0.070 0.006 0.141 0.006 0.213 0 2.209-1.791 4-4 4s-4-1.791-4-4c0-2.209 1.791-4 4-4 1.422 0 2.67 0.742 3.379 1.859l4.709-2.354c-0.058-0.27-0.088-0.551-0.088-0.838 0-2.209 1.791-4 4-4 0.643 0 1.251 0.152 1.789 0.421l2.397-3.95c-0.925-0.733-1.519-1.866-1.519-3.138zM18.667 16.667c-1.105 0-2 0.895-2 2s0.895 2 2 2c1.105 0 2-0.895 2-2s-0.895-2-2-2zM6.667 22c-1.105 0-2 0.895-2 2s0.895 2 2 2c1.105 0 2-0.895 2-2s-0.895-2-2-2z"></path>
</svg>
