<!-- Generated by IcoMoon.io -->
<svg version="1.1" xmlns="http://www.w3.org/2000/svg" width="32" height="32" viewBox="0 0 32 32">
<title>database-window</title>
<path d="M6.4 8c0-1.611 1.4-2.808 3.046-3.557 1.718-0.781 4.037-1.243 6.554-1.243s4.835 0.462 6.554 1.243c1.646 0.749 3.046 1.946 3.046 3.557v6.4h-1.6v-3.683c-0.419 0.31-0.894 0.591-1.397 0.82l-0.049 0.020c-1.718 0.781-4.037 1.243-6.554 1.243s-4.835-0.462-6.554-1.243c-0.553-0.249-1.028-0.53-1.468-0.855l0.021 0.015v13.283c0 0.598 0.57 1.4 2.109 2.101 1.123 0.51 2.606 0.883 4.291 1.030v0.869c0 0.254 0.024 0.502 0.069 0.742-1.918-0.147-3.659-0.566-5.022-1.186-1.646-0.749-3.046-1.946-3.046-3.557v-16zM8 8c0 0.598 0.57 1.4 2.109 2.101 1.466 0.666 3.549 1.099 5.891 1.099s4.426-0.432 5.891-1.099c1.539-0.701 2.109-1.504 2.109-2.101 0-0.598-0.57-1.4-2.109-2.101-1.466-0.666-3.549-1.099-5.891-1.099s-4.426 0.432-5.891 1.099c-1.539 0.701-2.109 1.504-2.109 2.101zM16 18.4c0-1.325 1.075-2.4 2.4-2.4v0h9.6c1.325 0 2.4 1.075 2.4 2.4v0 0.8h-14.4v-0.8zM16 20.8h14.4v7.2c0 1.325-1.075 2.4-2.4 2.4v0h-9.6c-1.325 0-2.4-1.075-2.4-2.4v0-7.2z"></path>
</svg>
