<!-- Generated by IcoMoon.io -->
<svg version="1.1" xmlns="http://www.w3.org/2000/svg" width="32" height="32" viewBox="0 0 32 32">
<title>database-warning-regular</title>
<path d="M6.4 8c0-1.611 1.4-2.808 3.040-3.557 1.846-0.788 3.993-1.246 6.247-1.246 0.11 0 0.22 0.001 0.329 0.003l-0.016-0c0.093-0.002 0.203-0.003 0.313-0.003 2.254 0 4.402 0.458 6.354 1.286l-0.107-0.040c1.64 0.749 3.040 1.946 3.040 3.557v4.896c-0.238-0.062-0.512-0.098-0.794-0.098-0.286 0-0.564 0.037-0.829 0.106l0.023-0.005v-2.179c-0.448 0.33-0.931 0.611-1.44 0.84-1.844 0.786-3.989 1.243-6.24 1.243-0.112 0-0.225-0.001-0.337-0.003l0.017 0c-0.093 0.002-0.203 0.003-0.313 0.003-2.254 0-4.402-0.458-6.354-1.286l0.107 0.040c-0.55-0.249-1.023-0.528-1.461-0.852l0.021 0.015v13.28c0 0.598 0.57 1.4 2.109 2.101 1.652 0.697 3.573 1.102 5.589 1.102 0.106 0 0.212-0.001 0.318-0.003l-0.016 0h0.006c0 0.57 0.157 1.122 0.435 1.603-0.147 0-0.294 0-0.442-0.003-0.093 0.002-0.203 0.003-0.313 0.003-2.254 0-4.402-0.458-6.354-1.286l0.107 0.040c-1.64-0.749-3.040-1.946-3.040-3.557v-16zM8 8c0 0.598 0.57 1.4 2.109 2.101 1.652 0.697 3.573 1.102 5.589 1.102 0.106 0 0.212-0.001 0.318-0.003l-0.016 0c0.090 0.002 0.196 0.003 0.302 0.003 2.016 0 3.937-0.405 5.686-1.138l-0.097 0.036c1.539-0.701 2.109-1.504 2.109-2.101 0-0.598-0.57-1.4-2.109-2.101-1.652-0.697-3.573-1.102-5.589-1.102-0.106 0-0.212 0.001-0.318 0.003l0.016-0c-0.090-0.002-0.196-0.003-0.302-0.003-2.016 0-3.937 0.405-5.686 1.138l0.097-0.036c-1.539 0.701-2.109 1.502-2.109 2.101zM23.365 15.286l-5.594 11.197c-0.107 0.209-0.17 0.455-0.17 0.717 0 0.884 0.716 1.6 1.6 1.6 0.001 0 0.001 0 0.002 0h11.194c0 0 0.001 0 0.002 0 0.884 0 1.6-0.716 1.6-1.6 0-0.261-0.063-0.508-0.174-0.726l0.004 0.009-5.6-11.198c-0.268-0.53-0.808-0.886-1.432-0.886s-1.164 0.357-1.428 0.877l-0.004 0.009zM25.597 18.392v4.803c0 0.442-0.358 0.8-0.8 0.8s-0.8-0.358-0.8-0.8v0-4.803c0-0.442 0.358-0.8 0.8-0.8s0.8 0.358 0.8 0.8v0zM24.797 27.198c-0.442 0-0.8-0.358-0.8-0.8s0.358-0.8 0.8-0.8v0c0.442 0 0.8 0.358 0.8 0.8s-0.358 0.8-0.8 0.8v0z"></path>
</svg>
