<!-- Generated by IcoMoon.io -->
<svg version="1.1" xmlns="http://www.w3.org/2000/svg" width="32" height="32" viewBox="0 0 32 32">
<title>data-funnel</title>
<path d="M29.336 6.336c0 2.026-1.643 3.669-3.669 3.669h-19.331c-2.026 0-3.669-1.643-3.669-3.669s1.643-3.669 3.669-3.669h19.331c2.027 0 3.669 1.643 3.669 3.669zM26.669 15.669c0 2.026-1.643 3.669-3.669 3.669h-13.998c-2.026 0-3.669-1.643-3.669-3.669s1.643-3.669 3.669-3.669h13.998c2.027 0 3.669 1.643 3.669 3.669zM22.669 25.003c0 2.026-1.643 3.669-3.669 3.669h-5.998c-2.026 0-3.669-1.643-3.669-3.669s1.643-3.669 3.669-3.669h5.998c2.027 0 3.669 1.643 3.669 3.669zM27.336 6.336c0-0.922-0.747-1.669-1.669-1.669h-19.331c-0.922 0-1.669 0.747-1.669 1.669s0.747 1.669 1.669 1.669h19.331c0.922 0 1.669-0.747 1.669-1.669zM24.669 15.669c0-0.922-0.747-1.669-1.669-1.669h-13.998c-0.922 0-1.669 0.747-1.669 1.669s0.747 1.669 1.669 1.669h13.998c0.922 0 1.669-0.747 1.669-1.669zM20.669 25.003c0-0.922-0.747-1.669-1.669-1.669h-5.998c-0.922 0-1.669 0.747-1.669 1.669s0.747 1.669 1.669 1.669h5.998c0.922 0 1.669-0.747 1.669-1.669z"></path>
</svg>
