<!-- Generated by IcoMoon.io -->
<svg version="1.1" xmlns="http://www.w3.org/2000/svg" width="32" height="32" viewBox="0 0 32 32">
<title>data-area</title>
<path d="M4 5c0-0.552 0.448-1 1-1s1 0.448 1 1v0 8.344l4.867-2.563c0.135-0.072 0.295-0.115 0.465-0.115 0.187 0 0.363 0.052 0.513 0.141l-0.005-0.003 5.093 2.995 7.467-5.6c0.165-0.125 0.374-0.2 0.6-0.2 0.552 0 1 0.448 1 1v0 17h1c0.552 0 1 0.448 1 1s-0.448 1-1 1v0h-22c-0.552 0-1-0.448-1-1v0-11.981c-0-0.005-0-0.012-0-0.018s0-0.013 0-0.019v0.001-9.983zM6 15.604v10.396h18v-15l-6.4 4.8c-0.165 0.125-0.373 0.2-0.599 0.2-0.187 0-0.362-0.051-0.512-0.141l0.005 0.003-5.187-3.051-5.307 2.793z"></path>
</svg>
