<!-- Generated by IcoMoon.io -->
<svg version="1.1" xmlns="http://www.w3.org/2000/svg" width="32" height="32" viewBox="0 0 32 32">
<title>data-bar-horizontal-regular</title>
<path d="M28 24.335c0-1.656-1.343-2.999-2.999-2.999-0 0-0.001 0-0.001 0h-18c-1.656 0-2.999 1.343-2.999 2.999s1.343 2.999 2.999 2.999v0h18c0 0 0.001 0 0.001 0 1.656 0 2.999-1.343 2.999-2.999v0zM22.667 15.668c0-1.656-1.343-2.999-2.999-2.999-0 0-0.001 0-0.001 0h-12.667c-0.027-0.001-0.058-0.001-0.089-0.001-1.657 0-3 1.343-3 3s1.343 3 3 3c0.031 0 0.063-0 0.094-0.001l-0.005 0h12.667c0 0 0.001 0 0.001 0 1.656 0 2.999-1.343 2.999-2.999v0zM17.333 7.001c0-1.657-1.343-3-3-3v0l-7.333 0.001c-1.618 0.050-2.911 1.373-2.911 2.999s1.293 2.949 2.906 2.999l0.005 0h7.333c1.656 0 2.999-1.342 3-2.999v-0zM26 24.335c0 0.552-0.448 1-1 1v0h-18c-0.536-0.020-0.963-0.46-0.963-0.999s0.427-0.979 0.962-0.999l0.002-0h18c0.553 0 1 0.447 1 0.999zM20.667 15.668c0 0.552-0.448 1-1 1v0h-12.667c-0.536-0.020-0.963-0.46-0.963-0.999s0.427-0.979 0.962-0.999l0.002-0h12.667c0.553 0 1 0.447 1 0.999zM15.333 7.001c0 0.552-0.448 1-1 1v0h-7.333c-0.552 0-1-0.448-1-1s0.448-1 1-1v0h7.333c0.552 0 1 0.448 1 1v0z"></path>
</svg>
