<!-- Generated by IcoMoon.io -->
<svg version="1.1" xmlns="http://www.w3.org/2000/svg" width="32" height="32" viewBox="0 0 32 32">
<title>data-area</title>
<path d="M4 5c0-0.552 0.448-1 1-1s1 0.448 1 1v8.344l4.868-2.562c0.306-0.161 0.674-0.153 0.973 0.023l5.093 2.996 7.467-5.6c0.303-0.227 0.709-0.264 1.047-0.094s0.553 0.516 0.553 0.894v17h1c0.552 0 1 0.448 1 1s-0.448 1-1 1h-22c-0.552 0-1-0.448-1-1v-11.981c-0-0.012-0-0.024 0-0.036v-9.983zM6 15.604v10.396h18v-15l-6.4 4.8c-0.323 0.242-0.759 0.267-1.107 0.062l-5.187-3.051-5.306 2.793z"></path>
</svg>
