<!-- Generated by IcoMoon.io -->
<svg version="1.1" xmlns="http://www.w3.org/2000/svg" width="32" height="32" viewBox="0 0 32 32">
<title>database-link-regular</title>
<path d="M5.333 8c0-0.92 0.42-1.724 1.032-2.373 0.607-0.643 1.439-1.177 2.391-1.603 1.905-0.855 4.467-1.357 7.244-1.357s5.339 0.503 7.244 1.357c0.952 0.427 1.784 0.96 2.391 1.603 0.612 0.649 1.032 1.453 1.032 2.373v12.079c-0.3-0.050-0.646-0.079-0.998-0.079-0.001 0-0.001 0-0.002 0h-1v-8.811c-0.427 0.293-0.907 0.556-1.423 0.787-1.905 0.855-4.467 1.357-7.244 1.357s-5.339-0.503-7.244-1.357c-0.547-0.244-1.014-0.506-1.454-0.807l0.031 0.020v12.811c0 0.276 0.12 0.613 0.487 1 0.372 0.395 0.956 0.795 1.753 1.152 1.327 0.595 3.123 1.017 5.165 1.143 0.111 0.725 0.344 1.409 0.679 2.031-2.552-0.064-4.891-0.555-6.661-1.348-0.952-0.427-1.784-0.96-2.391-1.604-0.612-0.649-1.032-1.453-1.032-2.373v-16zM7.333 8c0 0.276 0.12 0.613 0.487 1 0.372 0.395 0.956 0.795 1.753 1.152 1.593 0.713 3.865 1.181 6.427 1.181s4.833-0.467 6.427-1.181c0.797-0.357 1.381-0.757 1.753-1.152 0.367-0.387 0.487-0.724 0.487-1s-0.12-0.613-0.487-1c-0.372-0.395-0.956-0.795-1.753-1.152-1.593-0.713-3.867-1.181-6.427-1.181-2.561 0-4.833 0.467-6.427 1.181-0.797 0.357-1.381 0.757-1.753 1.152-0.367 0.387-0.487 0.724-0.487 1zM30.667 26.333c0-2.761-2.239-5-5-5v0l-0.136 0.009c-0.491 0.069-0.864 0.486-0.864 0.991 0 0.552 0.448 1 1 1h0l0.205 0.007c1.569 0.108 2.8 1.407 2.8 2.993 0 1.657-1.343 3-3 3-0.002 0-0.004 0-0.006 0h0l-0.004 0.007-0.136 0.009c-0.491 0.069-0.864 0.486-0.864 0.991 0 0.552 0.448 1 1 1 0.003 0 0.006 0 0.008-0h-0v-0.007l0.267-0.007c2.642-0.148 4.729-2.326 4.729-4.993 0-0 0-0 0-0.001v0zM22 22.333c0-0.552-0.448-1-1-1v0l-0.267 0.007c-2.648 0.141-4.742 2.323-4.742 4.993 0 2.761 2.239 5 5 5 0.003 0 0.006 0 0.009 0h-0l0.136-0.009c0.491-0.069 0.864-0.486 0.864-0.991 0-0.552-0.448-1-1-1h-0l-0.205-0.007c-1.569-0.108-2.8-1.407-2.8-2.993 0-1.657 1.343-3 3-3 0.002 0 0.004 0 0.006 0h-0l0.136-0.009c0.491-0.069 0.864-0.486 0.864-0.991v0zM26.667 26.333c0-0.552-0.448-1-1-1v0h-4.667l-0.136 0.009c-0.491 0.069-0.864 0.486-0.864 0.991 0 0.552 0.448 1 1 1h4.667l0.136-0.009c0.491-0.069 0.864-0.486 0.864-0.991v0z"></path>
</svg>
