<!-- Generated by IcoMoon.io -->
<svg version="1.1" xmlns="http://www.w3.org/2000/svg" width="32" height="32" viewBox="0 0 32 32">
<title>database-search</title>
<path d="M5.333 8c0-0.92 0.42-1.724 1.032-2.373 0.607-0.643 1.439-1.177 2.391-1.603 1.905-0.855 4.467-1.357 7.244-1.357s5.339 0.503 7.244 1.357c0.952 0.427 1.784 0.96 2.391 1.603 0.612 0.649 1.032 1.453 1.032 2.373v8.343c-0.572-0.476-1.234-0.872-1.951-1.159l-0.049-0.017v-3.977c-0.427 0.293-0.907 0.556-1.423 0.787-1.905 0.855-4.467 1.357-7.244 1.357s-5.339-0.503-7.244-1.357c-0.547-0.244-1.014-0.506-1.454-0.807l0.031 0.020v12.811c0 0.276 0.12 0.613 0.487 1 0.372 0.395 0.956 0.795 1.753 1.152 1.593 0.713 3.865 1.181 6.427 1.181 0.32 0 0.635-0.008 0.944-0.021 0.788 0.753 1.748 1.333 2.815 1.675l0.052 0.014c-1.187 0.216-2.475 0.332-3.811 0.332-2.777 0-5.339-0.503-7.244-1.356-0.952-0.427-1.784-0.96-2.391-1.604-0.612-0.649-1.032-1.453-1.032-2.373v-16zM7.333 8c0 0.276 0.12 0.613 0.487 1 0.372 0.395 0.956 0.795 1.753 1.152 1.593 0.713 3.865 1.181 6.427 1.181s4.833-0.467 6.427-1.181c0.797-0.357 1.381-0.757 1.753-1.152 0.367-0.387 0.487-0.724 0.487-1s-0.12-0.613-0.487-1c-0.372-0.395-0.956-0.795-1.753-1.152-1.593-0.713-3.867-1.181-6.427-1.181-2.561 0-4.833 0.467-6.427 1.181-0.797 0.357-1.381 0.757-1.753 1.152-0.367 0.387-0.487 0.724-0.487 1zM22 28c0.003 0 0.006 0 0.009 0 1.301 0 2.504-0.416 3.485-1.122l-0.018 0.012 3.484 3.483c0.183 0.196 0.443 0.318 0.732 0.318 0.552 0 1-0.448 1-1 0-0.289-0.122-0.549-0.318-0.731l-0.001-0.001-3.483-3.484c0.694-0.966 1.109-2.172 1.109-3.476 0-3.314-2.686-6-6-6s-6 2.686-6 6c0 3.314 2.686 6 6 6v0zM22 26c-2.209 0-4-1.791-4-4s1.791-4 4-4v0c2.209 0 4 1.791 4 4s-1.791 4-4 4v0z"></path>
</svg>
