<!-- Generated by IcoMoon.io -->
<svg version="1.1" xmlns="http://www.w3.org/2000/svg" width="32" height="32" viewBox="0 0 32 32">
<title>data-waterfall-regular</title>
<path d="M2.667 5c0-0.552 0.448-1 1-1v0h8.667c1.657 0 3 1.343 3 3v0 7.667h8.333c1.657 0 3 1.343 3 3v0 8.333h1.667c0.552 0 1 0.448 1 1s-0.448 1-1 1v0h-8.667c-1.657 0-3-1.343-3-3v0-8.333h-8.333c-1.657 0-3-1.343-3-3v0-7.667h-1.667c-0.552 0-1-0.448-1-1v0zM24.667 26v-8.333c0-0.552-0.448-1-1-1v0h-5v8.333c0 0.552 0.448 1 1 1h5zM13.333 7c0-0.552-0.448-1-1-1v0h-5v7.667c0 0.552 0.448 1 1 1h5v-7.667z"></path>
</svg>
