<!-- Generated by IcoMoon.io -->
<svg version="1.1" xmlns="http://www.w3.org/2000/svg" width="32" height="32" viewBox="0 0 32 32">
<title>data-histogram</title>
<path d="M11.333 6.973c0-1.657 1.343-3 3-3v0h3.333c1.657 0 3 1.343 3 3v0 2.36h4.333c1.657 0 3 1.343 3 3v0 14.667c0 0.552-0.448 1-1 1v0h-22c-0.552 0-1-0.448-1-1v0-10.667c0-1.657 1.343-3 3-3v0h4.333v-6.36zM13.333 26h5.333v-19.027c0-0.552-0.448-1-1-1v0h-3.333c-0.552 0-1 0.448-1 1v0 19.027zM11.333 15.333h-4.333c-0.552 0-1 0.448-1 1v0 9.667h5.333v-10.667zM20.667 26h5.333v-13.667c0-0.552-0.448-1-1-1v0h-4.333v14.667z"></path>
</svg>
