<!-- Generated by IcoMoon.io -->
<svg version="1.1" xmlns="http://www.w3.org/2000/svg" width="32" height="32" viewBox="0 0 32 32">
<title>data-trending-regular</title>
<path d="M5.667 4.833c0-0.46-0.373-0.833-0.833-0.833s-0.833 0.373-0.833 0.833v0 19c0 2.301 1.865 4.167 4.167 4.167v0h19c0.46 0 0.833-0.373 0.833-0.833s-0.373-0.833-0.833-0.833v0h-19c-1.381 0-2.5-1.119-2.5-2.5v0-19zM18.667 8.833c0-0.46 0.373-0.833 0.833-0.833h6.667c0.46 0 0.833 0.373 0.833 0.833v6.667c0 0.46-0.373 0.833-0.833 0.833s-0.833-0.373-0.833-0.833v0-4.655l-6.744 6.744c-0.151 0.151-0.359 0.244-0.589 0.244-0.216 0-0.414-0.082-0.562-0.218l0.001 0.001-3.079-2.798-4.938 4.938c-0.151 0.151-0.359 0.244-0.589 0.244-0.46 0-0.833-0.373-0.833-0.833 0-0.23 0.093-0.439 0.244-0.589v0l5.5-5.5c0.151-0.151 0.359-0.244 0.589-0.244 0.216 0 0.414 0.082 0.562 0.218l-0.001-0.001 3.079 2.798 6.182-6.182h-4.655c-0.46 0-0.833-0.373-0.833-0.833z"></path>
</svg>
