<!-- Generated by IcoMoon.io -->
<svg version="1.1" xmlns="http://www.w3.org/2000/svg" width="32" height="32" viewBox="0 0 32 32">
<title>database-link</title>
<path d="M5.333 8c0-0.921 0.42-1.724 1.032-2.373 0.607-0.643 1.438-1.177 2.39-1.604 1.905-0.854 4.468-1.357 7.244-1.357s5.339 0.503 7.244 1.357c0.952 0.427 1.783 0.96 2.39 1.604 0.612 0.649 1.032 1.452 1.032 2.373v12.079c-0.326-0.052-0.66-0.079-1-0.079h-1v-8.81c-0.428 0.294-0.907 0.556-1.422 0.787-1.905 0.854-4.468 1.357-7.244 1.357s-5.339-0.503-7.244-1.357c-0.515-0.231-0.994-0.493-1.422-0.787v12.81c0 0.276 0.121 0.612 0.487 1 0.371 0.394 0.956 0.794 1.753 1.151 1.326 0.595 3.123 1.018 5.165 1.143 0.11 0.725 0.344 1.409 0.678 2.031-2.551-0.065-4.89-0.555-6.661-1.349-0.952-0.427-1.783-0.96-2.39-1.604-0.612-0.649-1.032-1.452-1.032-2.373v-16zM7.333 8c0 0.276 0.121 0.612 0.487 1 0.371 0.394 0.956 0.794 1.753 1.151 1.593 0.714 3.864 1.182 6.426 1.182s4.833-0.467 6.426-1.182c0.798-0.358 1.382-0.758 1.753-1.151 0.366-0.388 0.487-0.725 0.487-1s-0.121-0.612-0.487-1c-0.371-0.394-0.956-0.794-1.753-1.151-1.593-0.714-3.864-1.182-6.426-1.182s-4.833 0.468-6.426 1.182c-0.798 0.358-1.382 0.758-1.753 1.151-0.366 0.388-0.487 0.725-0.487 1zM30.667 26.333c0-2.761-2.239-5-5-5l-0.136 0.009c-0.488 0.066-0.864 0.485-0.864 0.991 0 0.552 0.448 1 1 1l0.205 0.007c1.561 0.106 2.795 1.405 2.795 2.993 0 1.657-1.343 3-3 3l-0.005 0.006-0.136 0.010c-0.488 0.069-0.862 0.489-0.86 0.995 0.003 0.552 0.452 0.998 1.005 0.995v-0.006l0.265-0.007c2.634-0.138 4.73-2.321 4.73-4.993zM22 22.333c0-0.552-0.448-1-1-1l-0.266 0.007c-2.638 0.138-4.734 2.321-4.734 4.993 0 2.761 2.239 5 5 5l0.136-0.009c0.488-0.066 0.864-0.485 0.864-0.991 0-0.552-0.448-1-1-1l-0.205-0.007c-1.561-0.106-2.795-1.405-2.795-2.993 0-1.657 1.343-3 3-3l0.136-0.009c0.488-0.066 0.864-0.485 0.864-0.991zM26.667 26.333c0-0.552-0.448-1-1-1h-4.667l-0.136 0.009c-0.488 0.066-0.864 0.485-0.864 0.991 0 0.552 0.448 1 1 1h4.667l0.136-0.009c0.488-0.066 0.864-0.485 0.864-0.991z"></path>
</svg>
