<!-- Generated by IcoMoon.io -->
<svg version="1.1" xmlns="http://www.w3.org/2000/svg" width="32" height="32" viewBox="0 0 32 32">
<title>database-switch-regular</title>
<path d="M13.502 28.098c-0.298-0.315-0.51-0.714-0.596-1.158l-0.002-0.015c-1.050-0.178-1.989-0.464-2.872-0.854l0.077 0.030c-1.539-0.701-2.109-1.502-2.109-2.101v-13.28c0.448 0.33 0.931 0.611 1.44 0.84 2.077 0.862 4.31 1.285 6.56 1.24 0.093 0.002 0.203 0.003 0.313 0.003 2.254 0 4.402-0.458 6.354-1.286l-0.107 0.040c0.509-0.227 0.992-0.507 1.44-0.837v10.229c0.238-0.092 0.513-0.146 0.8-0.146s0.562 0.053 0.816 0.151l-0.015-0.005v-12.949c0-1.611-1.4-2.808-3.040-3.557-1.846-0.788-3.993-1.246-6.247-1.246-0.11 0-0.22 0.001-0.329 0.003l0.016-0c-0.093-0.002-0.203-0.003-0.313-0.003-2.254 0-4.402 0.458-6.354 1.286l0.107-0.040c-1.64 0.749-3.040 1.946-3.040 3.557v16c0 1.611 1.4 2.808 3.040 3.557 1.367 0.602 2.953 1.013 4.617 1.15l0.054 0.004-0.608-0.613zM10.109 5.899c1.652-0.697 3.573-1.102 5.589-1.102 0.106 0 0.212 0.001 0.318 0.003l-0.016-0c0.090-0.002 0.196-0.003 0.302-0.003 2.016 0 3.937 0.405 5.686 1.138l-0.097-0.036c1.539 0.701 2.109 1.502 2.109 2.101s-0.57 1.4-2.109 2.101c-1.652 0.697-3.573 1.102-5.589 1.102-0.106 0-0.212-0.001-0.318-0.003l0.016 0c-0.090 0.002-0.196 0.003-0.302 0.003-2.016 0-3.937-0.405-5.686-1.138l0.097 0.036c-1.539-0.701-2.109-1.502-2.109-2.101s0.57-1.4 2.109-2.101zM18.966 30.166c-0.145 0.145-0.345 0.235-0.566 0.235s-0.422-0.090-0.566-0.235l-3.2-3.2c-0.145-0.145-0.235-0.345-0.235-0.566s0.090-0.422 0.235-0.566l3.2-3.2c0.145-0.145 0.345-0.235 0.566-0.235 0.442 0 0.801 0.359 0.801 0.801 0 0.221-0.090 0.421-0.235 0.566v0l-1.835 1.834h8.938l-1.835-1.834c-0.145-0.145-0.235-0.345-0.235-0.566 0-0.442 0.359-0.801 0.801-0.801 0.221 0 0.421 0.090 0.566 0.235v0l3.2 3.2c0.146 0.145 0.236 0.345 0.236 0.566s-0.090 0.422-0.236 0.566l-3.2 3.2c-0.145 0.145-0.345 0.235-0.566 0.235-0.442 0-0.801-0.359-0.801-0.801 0-0.221 0.090-0.421 0.235-0.566l1.835-1.834h-8.938l1.835 1.834c0.146 0.145 0.236 0.345 0.236 0.566s-0.090 0.422-0.236 0.566l-0 0z"></path>
</svg>
