<!-- Generated by IcoMoon.io -->
<svg version="1.1" xmlns="http://www.w3.org/2000/svg" width="32" height="32" viewBox="0 0 32 32">
<title>database</title>
<path d="M5.333 8c0-0.921 0.42-1.724 1.032-2.373 0.607-0.643 1.438-1.177 2.39-1.604 1.905-0.854 4.468-1.357 7.244-1.357s5.339 0.503 7.244 1.357c0.952 0.427 1.783 0.96 2.39 1.604 0.612 0.649 1.032 1.452 1.032 2.373v16c0 0.921-0.42 1.725-1.032 2.373-0.607 0.643-1.438 1.177-2.39 1.604-1.905 0.854-4.468 1.357-7.244 1.357s-5.339-0.503-7.244-1.357c-0.952-0.427-1.783-0.96-2.39-1.604-0.612-0.649-1.032-1.452-1.032-2.373v-16zM7.333 8c0 0.276 0.121 0.612 0.487 1 0.371 0.394 0.956 0.794 1.753 1.151 1.593 0.714 3.864 1.182 6.426 1.182s4.833-0.467 6.426-1.182c0.798-0.358 1.382-0.758 1.753-1.151 0.366-0.388 0.487-0.725 0.487-1s-0.121-0.612-0.487-1c-0.371-0.394-0.956-0.794-1.753-1.151-1.593-0.714-3.864-1.182-6.426-1.182s-4.833 0.468-6.426 1.182c-0.798 0.358-1.382 0.758-1.753 1.151-0.366 0.388-0.487 0.725-0.487 1zM24.667 11.19c-0.428 0.294-0.907 0.556-1.422 0.787-1.905 0.854-4.468 1.357-7.244 1.357s-5.339-0.503-7.244-1.357c-0.515-0.231-0.994-0.493-1.422-0.787v12.81c0 0.276 0.121 0.612 0.487 1 0.371 0.394 0.956 0.794 1.753 1.151 1.593 0.714 3.864 1.182 6.426 1.182s4.833-0.467 6.426-1.182c0.798-0.358 1.382-0.757 1.753-1.151 0.366-0.388 0.487-0.725 0.487-1v-12.81z"></path>
</svg>
