<!-- Generated by IcoMoon.io -->
<svg version="1.1" xmlns="http://www.w3.org/2000/svg" width="32" height="32" viewBox="0 0 32 32">
<title>data-sunburst</title>
<path d="M20.659 5.667c-0.386-0.17-0.652-0.547-0.659-0.986v-0.001c0-0.693 0.676-1.189 1.315-0.912 3.107 1.379 5.539 3.811 6.883 6.833l0.034 0.085c0.277 0.637-0.217 1.315-0.912 1.315-0.44-0.007-0.815-0.273-0.983-0.652l-0.003-0.007c-1.163-2.529-3.147-4.514-5.605-5.648l-0.071-0.029zM12 4.68c0-0.693-0.676-1.189-1.315-0.912-3.107 1.379-5.539 3.811-6.883 6.833l-0.034 0.085c-0.277 0.637 0.217 1.315 0.912 1.315 0.44-0.007 0.815-0.273 0.983-0.652l0.003-0.007c1.163-2.529 3.147-4.514 5.605-5.648l0.071-0.029c0.385-0.17 0.651-0.545 0.659-0.983v-0.001zM20.659 26.336c-0.385 0.17-0.651 0.545-0.659 0.983v0.001c0 0.696 0.676 1.191 1.315 0.913 3.107-1.379 5.539-3.811 6.883-6.833l0.034-0.085c0.277-0.637-0.217-1.313-0.912-1.313-0.439 0.007-0.815 0.272-0.983 0.65l-0.003 0.007c-1.163 2.529-3.147 4.514-5.605 5.648l-0.071 0.029zM4.68 20c0.429 0 0.809 0.267 0.985 0.657 1.163 2.529 3.147 4.514 5.605 5.648l0.071 0.029c0.385 0.17 0.651 0.545 0.659 0.983v0.001c0 0.696-0.676 1.191-1.315 0.913-3.107-1.379-5.539-3.811-6.883-6.833l-0.034-0.085c-0.277-0.637 0.217-1.313 0.912-1.313zM16 8.667c-0.257 0-0.512 0.013-0.763 0.039-0.034 0.004-0.073 0.006-0.113 0.006-0.552 0-1-0.448-1-1 0-0.52 0.396-0.947 0.903-0.995l0.004-0c0.29-0.032 0.627-0.050 0.967-0.050 4.419 0 8.122 3.071 9.089 7.195l0.012 0.063c0.016 0.066 0.025 0.143 0.025 0.221 0 0.552-0.448 1-1 1-0.474 0-0.871-0.33-0.974-0.772l-0.001-0.007c-0.772-3.288-3.68-5.699-7.151-5.699v0zM12.161 8.533c0.108 0.157 0.172 0.352 0.172 0.561 0 0.343-0.173 0.646-0.436 0.826l-0.003 0.002c-1.959 1.335-3.228 3.555-3.228 6.072 0 0.002 0 0.004 0 0.005v-0c0 1.523 0.463 2.933 1.256 4.107 0.118 0.162 0.188 0.365 0.188 0.584 0 0.552-0.448 1-1 1-0.353 0-0.664-0.183-0.842-0.46l-0.002-0.004c-1.002-1.461-1.6-3.267-1.6-5.213 0-0.005 0-0.009 0-0.014v0.001c0-0.001 0-0.003 0-0.005 0-3.203 1.615-6.029 4.075-7.708l0.032-0.021c0.157-0.108 0.351-0.172 0.56-0.172 0.343 0 0.645 0.172 0.825 0.435l0.002 0.003zM24.308 17.207c0.533 0.143 0.848 0.692 0.705 1.225-1.109 4.008-4.724 6.902-9.014 6.902-1.584 0-3.076-0.394-4.383-1.090l0.050 0.024c-0.329-0.168-0.55-0.505-0.55-0.893 0-0.552 0.448-1 1-1 0.176 0 0.341 0.045 0.484 0.125l-0.005-0.003c0.987 0.527 2.159 0.837 3.402 0.837 3.371 0 6.211-2.273 7.071-5.37l0.012-0.052c0.118-0.43 0.506-0.741 0.966-0.741 0.093 0 0.183 0.013 0.268 0.036l-0.007-0.002zM16 10.667c-2.946 0-5.333 2.388-5.333 5.333s2.388 5.333 5.333 5.333v0c2.946 0 5.333-2.388 5.333-5.333s-2.388-5.333-5.333-5.333v0zM12.667 16c0-1.841 1.492-3.333 3.333-3.333s3.333 1.492 3.333 3.333v0c0 1.841-1.492 3.333-3.333 3.333s-3.333-1.492-3.333-3.333v0z"></path>
</svg>
