<!-- Generated by IcoMoon.io -->
<svg version="1.1" xmlns="http://www.w3.org/2000/svg" width="32" height="32" viewBox="0 0 32 32">
<title>database-lightning-regular</title>
<path d="M6.4 8c0-1.611 1.4-2.808 3.040-3.557 1.846-0.788 3.993-1.246 6.247-1.246 0.11 0 0.22 0.001 0.329 0.003l-0.016-0c0.093-0.002 0.203-0.003 0.313-0.003 2.254 0 4.402 0.458 6.354 1.286l-0.107-0.040c1.64 0.749 3.040 1.946 3.040 3.557v6.4h-1.6v-3.68c-0.448 0.33-0.931 0.611-1.44 0.84-1.844 0.786-3.989 1.243-6.24 1.243-0.112 0-0.225-0.001-0.337-0.003l0.017 0c-0.093 0.002-0.203 0.003-0.313 0.003-2.254 0-4.402-0.458-6.354-1.286l0.107 0.040c-0.55-0.249-1.023-0.528-1.461-0.852l0.021 0.015v13.28c0 0.598 0.57 1.4 2.109 2.101 1.652 0.697 3.573 1.102 5.589 1.102 0.106 0 0.212-0.001 0.318-0.003l-0.016 0c0.797 0.016 1.592-0.032 2.378-0.144 0.244 0.091 0.525 0.144 0.819 0.144 0.002 0 0.005 0 0.007 0h0.75l-0.315 1.259c-1.194 0.25-2.413 0.365-3.638 0.341-0.093 0.002-0.203 0.003-0.313 0.003-2.254 0-4.402-0.458-6.354-1.286l0.107 0.040c-1.64-0.749-3.040-1.946-3.040-3.557v-16zM8 8c0 0.598 0.57 1.4 2.109 2.101 1.652 0.697 3.573 1.102 5.589 1.102 0.106 0 0.212-0.001 0.318-0.003l-0.016 0c0.090 0.002 0.196 0.003 0.302 0.003 2.016 0 3.937-0.405 5.686-1.138l-0.097 0.036c1.539-0.701 2.109-1.504 2.109-2.101 0-0.598-0.57-1.4-2.109-2.101-1.652-0.697-3.573-1.102-5.589-1.102-0.106 0-0.212 0.001-0.318 0.003l0.016-0c-0.090-0.002-0.196-0.003-0.302-0.003-2.016 0-3.937 0.405-5.686 1.138l0.097-0.036c-1.539 0.701-2.109 1.502-2.109 2.101zM20.979 25.6c0.442 0 0.8 0.358 0.8 0.8 0 0.069-0.009 0.135-0.025 0.199l0.001-0.006-0.694 2.781c-0.194 0.773 0.739 1.323 1.322 0.779l7.795-7.277c0.235-0.22 0.381-0.531 0.381-0.877 0-0.662-0.536-1.199-1.198-1.2h-0.646c-0.442-0-0.799-0.358-0.799-0.8 0-0.090 0.015-0.177 0.043-0.258l-0.002 0.006 0.898-2.694c0.026-0.075 0.041-0.162 0.041-0.253 0-0.441-0.357-0.799-0.798-0.8h-5.557c-0 0-0 0-0.001 0-0.331 0-0.615 0.201-0.737 0.488l-0.002 0.005-3.333 8c-0.039 0.091-0.061 0.196-0.061 0.307 0 0.441 0.358 0.799 0.799 0.8h1.776z"></path>
</svg>
