<!-- Generated by IcoMoon.io -->
<svg version="1.1" xmlns="http://www.w3.org/2000/svg" width="32" height="32" viewBox="0 0 32 32">
<title>decimal-arrow-left</title>
<path d="M13.333 5.333c-2.209 0-4 1.791-4 4v5.333c0 2.209 1.791 4 4 4s4-1.791 4-4v-5.333c0-2.209-1.791-4-4-4zM15.333 14.667c0 1.105-0.895 2-2 2s-2-0.895-2-2v-5.333c0-1.105 0.895-2 2-2s2 0.895 2 2v5.333z"></path>
<path d="M6.667 16.667c0 1.105-0.895 2-2 2s-2-0.895-2-2c0-1.105 0.895-2 2-2s2 0.895 2 2z"></path>
<path d="M26 9.333v5.333c0 0.139-0.014 0.274-0.041 0.405 0.652 0.207 1.27 0.489 1.845 0.836 0.127-0.391 0.196-0.807 0.196-1.241v-5.333c0-2.209-1.791-4-4-4s-4 1.791-4 4v5.333c0 0.219 0.018 0.434 0.051 0.643 0.618-0.253 1.271-0.437 1.951-0.541-0.002-0.034-0.003-0.068-0.003-0.102v-5.333c0-1.105 0.895-2 2-2s2 0.895 2 2z"></path>
<path d="M30.667 23.333c0 4.050-3.283 7.333-7.333 7.333s-7.333-3.283-7.333-7.333c0-4.050 3.283-7.333 7.333-7.333s7.333 3.283 7.333 7.333zM27.333 24c0.368 0 0.667-0.299 0.667-0.667s-0.299-0.667-0.667-0.667h-6.391l2.195-2.195c0.26-0.26 0.26-0.683 0-0.943s-0.683-0.26-0.943 0l-3.333 3.333c-0.26 0.26-0.26 0.683 0 0.943l3.333 3.333c0.26 0.26 0.683 0.26 0.943 0s0.26-0.683 0-0.943l-2.195-2.195h6.391z"></path>
</svg>
