<!-- Generated by IcoMoon.io -->
<svg version="1.1" xmlns="http://www.w3.org/2000/svg" width="32" height="32" viewBox="0 0 32 32">
<title>decimal-arrow-right</title>
<path d="M13.333 5.333c-2.209 0-4 1.791-4 4v0 5.333c0 2.209 1.791 4 4 4s4-1.791 4-4v0-5.333c0-2.209-1.791-4-4-4v0zM15.333 14.667c0 1.105-0.895 2-2 2s-2-0.895-2-2v0-5.333c0-1.105 0.895-2 2-2s2 0.895 2 2v0 5.333zM6.667 16.667c0 1.105-0.895 2-2 2s-2-0.895-2-2v0c0-1.105 0.895-2 2-2s2 0.895 2 2v0zM26 9.333v5.333c0 0.139-0.013 0.275-0.040 0.405 0.651 0.207 1.269 0.488 1.844 0.835 0.127-0.391 0.196-0.807 0.196-1.24v-5.333c0-2.209-1.791-4-4-4s-4 1.791-4 4v0 5.333c0 0.219 0.017 0.433 0.052 0.643 0.617-0.253 1.271-0.436 1.951-0.541-0.002-0.030-0.003-0.066-0.003-0.101v-5.333c0-1.105 0.895-2 2-2s2 0.895 2 2v0zM30.667 23.333c0 4.050-3.283 7.333-7.333 7.333s-7.333-3.283-7.333-7.333v0c0-4.050 3.283-7.333 7.333-7.333s7.333 3.283 7.333 7.333v0zM19.333 22.667c-0.368 0-0.667 0.298-0.667 0.667s0.298 0.667 0.667 0.667v0h6.391l-2.196 2.195c-0.121 0.121-0.195 0.288-0.195 0.472 0 0.369 0.299 0.668 0.668 0.668 0.184 0 0.351-0.075 0.472-0.195l3.333-3.333c0.121-0.121 0.196-0.288 0.196-0.472s-0.075-0.351-0.196-0.472v0l-3.333-3.333c-0.121-0.121-0.288-0.195-0.472-0.195-0.369 0-0.668 0.299-0.668 0.668 0 0.184 0.075 0.351 0.195 0.472l2.196 2.195h-6.391z"></path>
</svg>
