<!-- Generated by IcoMoon.io -->
<svg version="1.1" xmlns="http://www.w3.org/2000/svg" width="32" height="32" viewBox="0 0 32 32">
<title>delete</title>
<path d="M16 2.333c2.311 0 4.199 1.809 4.327 4.087l0.007 0.246h7c0.552 0 1 0.448 1 1 0 0.506-0.376 0.925-0.864 0.991l-0.136 0.009h-1.061l-1.707 17.359c-0.177 1.799-1.634 3.188-3.415 3.3l-0.234 0.007h-9.832c-1.807 0-3.332-1.314-3.619-3.075l-0.030-0.232-1.708-17.359h-1.060c-0.506 0-0.925-0.376-0.991-0.864l-0.009-0.136c0-0.506 0.376-0.925 0.864-0.991l0.136-0.009h7c0-2.393 1.94-4.333 4.333-4.333zM24.263 8.667h-16.527l1.689 17.163c0.078 0.796 0.709 1.416 1.489 1.495l0.169 0.009h9.832c0.8 0 1.478-0.567 1.634-1.336l0.025-0.168 1.688-17.163zM18.333 12.333c0.506 0 0.925 0.376 0.991 0.864l0.009 0.136v9.333c0 0.552-0.448 1-1 1-0.506 0-0.925-0.376-0.991-0.864l-0.009-0.136v-9.333c0-0.552 0.448-1 1-1zM13.667 12.333c0.506 0 0.925 0.376 0.991 0.864l0.009 0.136v9.333c0 0.552-0.448 1-1 1-0.506 0-0.925-0.376-0.991-0.864l-0.009-0.136v-9.333c0-0.552 0.448-1 1-1zM16 4.333c-1.224 0-2.228 0.943-2.326 2.142l-0.008 0.191h4.667c0-1.289-1.045-2.333-2.333-2.333z"></path>
</svg>
