<!-- Generated by IcoMoon.io -->
<svg version="1.1" xmlns="http://www.w3.org/2000/svg" width="32" height="32" viewBox="0 0 32 32">
<title>delete-off</title>
<path d="M5.253 6.667l-2.293-2.293c-0.196-0.183-0.318-0.443-0.318-0.732 0-0.552 0.448-1 1-1 0.289 0 0.549 0.122 0.731 0.318l0.001 0.001 24.667 24.667c0.166 0.178 0.268 0.418 0.268 0.682 0 0.552-0.448 1-1 1-0.264 0-0.504-0.102-0.682-0.269l0.001 0.001-2.92-2.92c-0.74 1.895-2.552 3.213-4.671 3.213-0.001 0-0.002 0-0.003 0h-8.068c-0 0-0 0-0.001 0-2.592 0-4.723-1.972-4.975-4.498l-0.002-0.021-1.561-16.148h-1.76c-0.552 0-1-0.448-1-1s0.448-1 1-1v0h1.587zM23.037 24.453l-3.037-3.040v1.587c0 0.552-0.448 1-1 1s-1-0.448-1-1v0-3.587l-4-4v7.587c0 0.552-0.448 1-1 1s-1-0.448-1-1v0-9.587l-4.547-4.544 1.525 15.755c0.152 1.528 1.431 2.711 2.986 2.711 0 0 0 0 0.001 0h8.069c0 0 0 0 0.001 0 1.555 0 2.834-1.183 2.985-2.698l0.001-0.013 0.016-0.171zM18 13.757l2 2v-2.757c0-0.552-0.448-1-1-1s-1 0.448-1 1v0 0.759zM24.565 8.667l-1.028 10.628 1.831 1.832 1.207-12.46h1.759c0.552 0 1-0.448 1-1s-0.448-1-1-1v0h-7.667c0-2.577-2.089-4.667-4.667-4.667s-4.667 2.089-4.667 4.667v0h-0.424l2 2h11.656zM18.667 6.667h-5.333c0-1.473 1.194-2.667 2.667-2.667s2.667 1.194 2.667 2.667v0z"></path>
</svg>
