<!-- Generated by IcoMoon.io -->
<svg version="1.1" xmlns="http://www.w3.org/2000/svg" width="32" height="32" viewBox="0 0 32 32">
<title>delete-lines-regular</title>
<path d="M18.4 6.4c0-1.325-1.075-2.4-2.4-2.4s-2.4 1.075-2.4 2.4v0h4.8zM12 6.4c0-2.209 1.791-4 4-4s4 1.791 4 4v0h8c0.442 0 0.8 0.358 0.8 0.8s-0.358 0.8-0.8 0.8v0h-1.686l-1.293 11.2h-1.613l1.293-11.2h-17.403l1.888 16.368c0.191 1.602 1.541 2.832 3.179 2.832 0 0 0 0 0 0h3.771c-0.087 0.238-0.138 0.513-0.138 0.8s0.050 0.562 0.143 0.817l-0.005-0.017h-3.771c-2.457-0-4.483-1.846-4.766-4.227l-0.002-0.023-1.91-16.55h-1.686c-0.442 0-0.8-0.358-0.8-0.8s0.358-0.8 0.8-0.8v0h8zM18.4 20.8c-0.442 0-0.8 0.358-0.8 0.8s0.358 0.8 0.8 0.8v0h9.6c0.442 0 0.8-0.358 0.8-0.8s-0.358-0.8-0.8-0.8v0h-9.6zM18.4 24c-0.442 0-0.8 0.358-0.8 0.8s0.358 0.8 0.8 0.8v0h9.6c0.442 0 0.8-0.358 0.8-0.8s-0.358-0.8-0.8-0.8v0h-9.6zM18.4 27.2c-0.442 0-0.8 0.358-0.8 0.8s0.358 0.8 0.8 0.8v0h9.6c0.442 0 0.8-0.358 0.8-0.8s-0.358-0.8-0.8-0.8v0h-9.6z"></path>
</svg>
