<!-- Generated by IcoMoon.io -->
<svg version="1.1" xmlns="http://www.w3.org/2000/svg" width="32" height="32" viewBox="0 0 32 32">
<title>delete-off</title>
<path d="M5.252 6.667l-2.293-2.293c-0.391-0.391-0.39-1.024 0-1.414s1.024-0.391 1.414 0l24.666 24.667c0.391 0.391 0.391 1.024 0 1.414s-1.024 0.391-1.414 0l-3.057-3.057-0.004 0.042c-0.177 1.799-1.634 3.188-3.415 3.3l-0.234 0.007h-9.832c-1.807 0-3.332-1.314-3.619-3.075l-0.030-0.232-1.708-17.359h-1.060c-0.506 0-0.925-0.376-0.991-0.864l-0.009-0.136c0-0.506 0.376-0.925 0.864-0.991l0.136-0.009h0.586zM22.74 24.154l-3.406-3.406v1.919c0 0.552-0.448 1-1 1-0.506 0-0.925-0.376-0.991-0.864l-0.009-0.136v-3.919l-2.667-2.667v6.586c0 0.552-0.448 1-1 1-0.506 0-0.925-0.376-0.991-0.864l-0.009-0.136v-8.586l-4.878-4.878 1.636 16.627c0.078 0.796 0.709 1.416 1.489 1.495l0.169 0.009h9.832c0.8 0 1.478-0.567 1.634-1.336l0.025-0.168 0.165-1.676z"></path>
<path d="M17.357 13.115l1.976 1.976v-1.758l-0.009-0.136c-0.066-0.488-0.485-0.864-0.991-0.864-0.477 0-0.876 0.334-0.976 0.781z"></path>
<path d="M24.263 8.667l-1.017 10.337 1.83 1.83 1.196-12.167h1.061l0.136-0.009c0.488-0.066 0.864-0.485 0.864-0.991 0-0.552-0.448-1-1-1h-7l-0.007-0.246c-0.128-2.279-2.016-4.087-4.327-4.087-2.393 0-4.333 1.94-4.333 4.333h-0.757l2 2h11.353zM16 4.333c1.289 0 2.333 1.045 2.333 2.333h-4.667l0.008-0.191c0.097-1.199 1.101-2.142 2.326-2.142z"></path>
</svg>
