<!-- Generated by IcoMoon.io -->
<svg version="1.1" xmlns="http://www.w3.org/2000/svg" width="32" height="32" viewBox="0 0 32 32">
<title>delete-arrow-back</title>
<path d="M18.4 6.4c0-1.325-1.075-2.4-2.4-2.4s-2.4 1.075-2.4 2.4v0h4.8zM12 6.4c0-2.209 1.791-4 4-4s4 1.791 4 4v0h8c0.442 0 0.8 0.358 0.8 0.8s-0.358 0.8-0.8 0.8v0h-1.686l-0.776 6.714c-0.456-0.131-0.993-0.231-1.544-0.279l-0.033-0.002 0.744-6.432h-17.406l1.888 16.368c0.191 1.602 1.541 2.832 3.179 2.832 0 0 0 0 0 0h2.995c0.293 0.573 0.646 1.109 1.051 1.6h-4.046c-2.457-0-4.483-1.846-4.766-4.227l-0.002-0.023-1.91-16.55h-1.686c-0.442 0-0.8-0.358-0.8-0.8s0.358-0.8 0.8-0.8v0h8zM23.2 30.4c3.976 0 7.2-3.224 7.2-7.2s-3.224-7.2-7.2-7.2v0c-3.976 0-7.2 3.224-7.2 7.2s3.224 7.2 7.2 7.2v0zM21.766 20.166l-1.435 1.434h2.469c2.43 0 4.4 1.97 4.4 4.4v0 0.4c0 0.442-0.358 0.8-0.8 0.8s-0.8-0.358-0.8-0.8v0-0.4c0-1.546-1.254-2.8-2.8-2.8v0h-2.469l1.435 1.434c0.145 0.145 0.235 0.345 0.235 0.566 0 0.442-0.359 0.801-0.801 0.801-0.221 0-0.421-0.090-0.566-0.235l-2.803-2.805c-0.143-0.144-0.232-0.343-0.232-0.562 0-0.221 0.090-0.421 0.235-0.566l2.8-2.8c0.145-0.145 0.345-0.235 0.566-0.235 0.442 0 0.801 0.359 0.801 0.801 0 0.221-0.090 0.421-0.235 0.566v0z"></path>
</svg>
