<!-- Generated by IcoMoon.io -->
<svg version="1.1" xmlns="http://www.w3.org/2000/svg" width="32" height="32" viewBox="0 0 32 32">
<title>delete-regular</title>
<path d="M13.333 7v0.333h5.333v-0.333c0-1.473-1.194-2.667-2.667-2.667s-2.667 1.194-2.667 2.667v0zM11.667 7.333v-0.333c0-2.393 1.94-4.333 4.333-4.333s4.333 1.94 4.333 4.333v0 0.333h7.5c0.46 0 0.833 0.373 0.833 0.833s-0.373 0.833-0.833 0.833v0h-1.945l-1.333 15.904c-0.215 2.49-2.289 4.429-4.816 4.429-0 0-0 0-0 0h-7.477c-2.527-0-4.601-1.94-4.815-4.411l-0.001-0.018-1.333-15.904h-1.945c-0.46 0-0.833-0.373-0.833-0.833s0.373-0.833 0.833-0.833v0h7.5zM9.106 24.765c0.141 1.631 1.5 2.902 3.155 2.902h7.477c0 0 0 0 0 0 1.656 0 3.015-1.271 3.155-2.89l0.001-0.012 1.321-15.765h-16.432l1.322 15.765zM14.333 13.5c0-0.46-0.373-0.833-0.833-0.833s-0.833 0.373-0.833 0.833v0 9.667c0 0.46 0.373 0.833 0.833 0.833s0.833-0.373 0.833-0.833v0-9.667zM18.5 12.667c0.46 0 0.833 0.373 0.833 0.833v9.667c0 0.46-0.373 0.833-0.833 0.833s-0.833-0.373-0.833-0.833v0-9.667c0-0.46 0.373-0.833 0.833-0.833z"></path>
</svg>
