<!-- Generated by IcoMoon.io -->
<svg version="1.1" xmlns="http://www.w3.org/2000/svg" width="32" height="32" viewBox="0 0 32 32">
<title>delete-dismiss</title>
<path d="M22 16c4.050 0 7.333 3.283 7.333 7.333s-3.283 7.333-7.333 7.333c-4.050 0-7.333-3.283-7.333-7.333s3.283-7.333 7.333-7.333zM16 2.333c2.311 0 4.199 1.809 4.327 4.087l0.007 0.246h7c0.552 0 1 0.448 1 1 0 0.506-0.376 0.925-0.864 0.991l-0.136 0.009h-1.061l-0.667 6.783c-0.614-0.281-1.266-0.493-1.947-0.624l0.604-6.159h-16.527l1.689 17.163c0.078 0.796 0.709 1.416 1.489 1.495l0.169 0.009 3.226 0c0.383 0.735 0.868 1.407 1.436 2h-4.662c-1.807 0-3.332-1.314-3.619-3.075l-0.030-0.232-1.708-17.359h-1.060c-0.506 0-0.925-0.376-0.991-0.864l-0.009-0.136c0-0.506 0.376-0.925 0.864-0.991l0.136-0.009h7c0-2.393 1.94-4.333 4.333-4.333zM18.288 19.451l-0.092 0.077-0.077 0.092c-0.157 0.227-0.157 0.531 0 0.758l0.077 0.092 2.862 2.862-2.862 2.862-0.077 0.092c-0.157 0.227-0.157 0.531 0 0.758l0.077 0.092 0.092 0.077c0.227 0.157 0.531 0.157 0.758 0l0.092-0.077 2.862-2.862 2.862 2.862 0.092 0.077c0.227 0.157 0.531 0.157 0.758 0l0.092-0.077 0.077-0.092c0.157-0.227 0.157-0.531 0-0.758l-0.077-0.092-2.862-2.862 2.862-2.862 0.077-0.092c0.157-0.227 0.157-0.531 0-0.758l-0.077-0.092-0.092-0.077c-0.227-0.157-0.531-0.157-0.758 0l-0.092 0.077-2.862 2.862-2.862-2.862-0.092-0.077c-0.195-0.135-0.446-0.154-0.657-0.058l-0.102 0.058zM16 4.333c-1.224 0-2.228 0.943-2.326 2.142l-0.008 0.191h4.667c0-1.289-1.045-2.333-2.333-2.333z"></path>
</svg>
