<!-- Generated by IcoMoon.io -->
<svg version="1.1" xmlns="http://www.w3.org/2000/svg" width="32" height="32" viewBox="0 0 32 32">
<title>dentist</title>
<path d="M21 8c-0.552 0-1 0.448-1 1s0.448 1 1 1c0.953 0 1.667 0.714 1.667 1.667 0 0.552 0.448 1 1 1s1-0.448 1-1c0-2.057-1.61-3.667-3.667-3.667z"></path>
<path d="M10.333 4c-1.475 0-3.194 0.737-4.527 1.849-1.342 1.12-2.473 2.775-2.473 4.748v0.024c-0 0.953-0 3.072 1.618 4.993 0.171 0.203 0.275 0.332 0.35 0.461 0.423 0.736 0.695 1.554 0.699 2.263 0.014 2.533 0.47 4.701 1.28 6.276 0.801 1.557 2.067 2.719 3.72 2.719 0.489 0 0.957-0.115 1.362-0.389 0.401-0.272 0.658-0.646 0.827-1.025 0.314-0.707 0.391-1.615 0.441-2.435 0.013-0.207 0.024-0.415 0.035-0.624 0.086-1.603 0.176-3.273 0.901-4.753 0.245-0.499 0.683-0.773 1.102-0.773h0.667c0.409 0 0.836 0.261 1.084 0.738 0.524 1.382 0.683 2.916 0.836 4.394 0.037 0.359 0.074 0.715 0.115 1.064 0.1 0.839 0.238 1.721 0.558 2.403 0.167 0.357 0.409 0.717 0.773 0.987 0.379 0.281 0.823 0.415 1.301 0.415 1.481 0 2.735-1.202 3.557-2.694 0.86-1.563 1.429-3.732 1.443-6.3 0.004-0.791 0.343-1.71 0.836-2.491 1.828-2.176 1.831-4.213 1.831-5.251 0-1.973-1.131-3.628-2.473-4.748-1.333-1.113-3.052-1.849-4.527-1.849-1.158 0-2.069 0.184-2.81 0.494-0.746 0.312-1.269 0.73-1.673 1.124-0.176 0.172-0.333 0.343-0.463 0.485l-0.040 0.044c-0.146 0.159-0.25 0.269-0.347 0.356-0.165 0.147-0.239 0.164-0.334 0.164s-0.169-0.017-0.334-0.164c-0.097-0.087-0.201-0.197-0.347-0.356l-0.040-0.044c-0.13-0.141-0.287-0.313-0.463-0.485-0.403-0.394-0.926-0.812-1.672-1.124-0.741-0.31-1.652-0.494-2.81-0.494zM5.333 10.597c0-1.179 0.687-2.322 1.755-3.213 1.076-0.898 2.357-1.385 3.245-1.385 0.944 0 1.584 0.149 2.038 0.339 0.45 0.188 0.767 0.436 1.047 0.709 0.134 0.131 0.254 0.262 0.388 0.408l0.039 0.042c0.141 0.153 0.308 0.335 0.492 0.498 0.397 0.353 0.924 0.669 1.663 0.669s1.266-0.316 1.663-0.669c0.184-0.163 0.351-0.345 0.492-0.498l0.039-0.042c0.134-0.146 0.254-0.277 0.388-0.408 0.279-0.273 0.597-0.521 1.047-0.709 0.454-0.19 1.095-0.339 2.038-0.339 0.888 0 2.169 0.486 3.245 1.385 1.068 0.891 1.755 2.034 1.755 3.213v0.006c0 0.905 0 2.361-1.398 4.001-0.029 0.034-0.055 0.069-0.079 0.106-0.64 0.991-1.182 2.305-1.189 3.617-0.013 2.295-0.523 4.125-1.195 5.347-0.712 1.292-1.444 1.659-1.805 1.659-0.084 0-0.105-0.017-0.109-0.021-0.017-0.013-0.077-0.066-0.153-0.228-0.166-0.355-0.281-0.935-0.383-1.792-0.034-0.285-0.065-0.595-0.099-0.923-0.153-1.503-0.345-3.393-0.99-5.063-0.010-0.027-0.022-0.054-0.035-0.080-0.518-1.057-1.583-1.893-2.898-1.893h-0.667c-1.315 0-2.38 0.836-2.898 1.893-0.919 1.876-1.025 3.982-1.104 5.548-0.010 0.206-0.020 0.403-0.032 0.588-0.053 0.872-0.128 1.419-0.272 1.744-0.061 0.137-0.109 0.173-0.122 0.182-0.010 0.006-0.065 0.044-0.238 0.044-0.588 0-1.31-0.407-1.941-1.634-0.623-1.21-1.046-3.042-1.059-5.371-0.006-1.162-0.432-2.321-0.964-3.248-0.173-0.301-0.389-0.557-0.543-0.74l-0.012-0.014c-1.133-1.345-1.147-2.825-1.147-3.728z"></path>
</svg>
