<!-- Generated by IcoMoon.io -->
<svg version="1.1" xmlns="http://www.w3.org/2000/svg" width="32" height="32" viewBox="0 0 32 32">
<title>dentist-regular</title>
<path d="M21.107 8.163c-0.46 0-0.833 0.373-0.833 0.833s0.373 0.833 0.833 0.833v0c0.847 0 1.825 0.822 1.93 1.969 0.040 0.427 0.396 0.758 0.83 0.758 0.46 0 0.833-0.373 0.833-0.833 0-0.027-0.001-0.053-0.004-0.079l0 0.003c-0.176-1.92-1.798-3.484-3.591-3.484zM14.18 5.485c-1.552-1.443-3.421-1.653-5.054-1.295-1.605 0.351-3.047 1.257-3.912 2.173-1.067 1.129-2.069 2.575-2.153 4.665v0.005c-0.036 1.029 0.098 2.548 0.917 3.677l0.092 0.128c0.823 1.14 1.31 1.815 1.551 2.491l0.002 0.005c0.276 0.756 0.283 1.509 0.293 2.577l0.003 0.287c0.015 1.48 0.437 3.856 1.569 5.591 0.547 0.839 1.297 1.582 2.3 1.955l0.039 0.015 0.040 0.010c0.798 0.211 1.553 0.167 2.165-0.285 0.571-0.422 0.848-1.081 1.009-1.695 0.163-0.627 0.242-1.362 0.304-2.089 0.018-0.213 0.035-0.425 0.051-0.638 0.043-0.54 0.085-1.081 0.151-1.628 0.055-0.476 0.121-0.88 0.205-1.277l-0.016 0.091c0.233-1.115 0.501-1.761 0.759-2.145 0.228-0.34 0.458-0.489 0.713-0.581 0.757-0.191 1.236-0.093 1.561 0.092 0.349 0.198 0.653 0.568 0.905 1.143 0.518 1.184 0.665 2.857 0.789 4.367v0.002c0.127 1.503 0.443 2.874 1.035 3.757 0.305 0.455 0.736 0.859 1.325 1.001 0.601 0.145 1.191-0.025 1.714-0.36l0.001-0.001c1.913-1.23 3.018-3.858 3.32-7.207 0.127-1.419 0.293-2.17 0.553-2.829 0.211-0.533 0.485-1.015 0.902-1.748l0.001-0.001c0.127-0.225 0.269-0.473 0.427-0.754 0.429-0.763 1.121-2.139 1.198-3.745 0.080-1.665-0.506-3.501-2.482-5.086-1.887-1.529-3.64-2.085-5.205-2.001-1.552 0.083-2.795 0.787-3.682 1.552l-0.021 0.018-0.019 0.019c-0.871 0.855-1.281 1.017-1.555 1.005-0.307-0.013-0.791-0.252-1.77-1.237l-0.011-0.012-0.013-0.011zM6.425 7.508c0.648-0.686 1.796-1.414 3.057-1.69 1.228-0.269 2.493-0.1 3.552 0.877 0.944 0.949 1.843 1.671 2.867 1.715 1.054 0.047 1.927-0.631 2.775-1.46 0.697-0.595 1.593-1.077 2.664-1.135 1.067-0.057 2.428 0.304 4.068 1.633l0.004 0.003c1.549 1.241 1.916 2.559 1.861 3.707-0.057 1.207-0.589 2.303-0.986 3.007l-0.001 0.003c-0.133 0.24-0.261 0.465-0.383 0.677-0.435 0.763-0.784 1.377-1.042 2.029-0.345 0.872-0.53 1.804-0.665 3.293-0.285 3.172-1.3 5.144-2.56 5.953-0.267 0.171-0.391 0.151-0.423 0.143-0.045-0.011-0.166-0.062-0.331-0.309-0.349-0.52-0.638-1.538-0.759-2.969v-0.001l-0.005-0.063c-0.116-1.424-0.275-3.367-0.917-4.835-0.334-0.763-0.835-1.485-1.609-1.925-0.793-0.449-1.747-0.531-2.837-0.247l-0.029 0.008-0.029 0.010c-0.593 0.202-1.136 0.568-1.587 1.238-0.429 0.638-0.753 1.522-1.007 2.733-0.076 0.344-0.151 0.796-0.205 1.255l-0.007 0.074c-0.069 0.584-0.116 1.177-0.16 1.729-0.015 0.205-0.031 0.404-0.047 0.594-0.062 0.729-0.132 1.335-0.256 1.809-0.128 0.489-0.277 0.695-0.387 0.775-0.067 0.049-0.237 0.142-0.709 0.025-0.553-0.217-1.037-0.659-1.448-1.289-0.902-1.382-1.285-3.412-1.298-4.697v-0.001l-0.003-0.322c-0.007-1.009-0.015-2.052-0.393-3.091-0.325-0.907-0.949-1.77-1.686-2.789l-0.177-0.245c-0.487-0.67-0.633-1.722-0.602-2.639 0.063-1.521 0.771-2.602 1.7-3.585zM15.208 17.521l-0.031 0.008 0.059-0.017c-0.021 0.007-0.030 0.010-0.039 0.013l0.012-0.004z"></path>
</svg>
