<!-- Generated by IcoMoon.io -->
<svg version="1.1" xmlns="http://www.w3.org/2000/svg" width="32" height="32" viewBox="0 0 32 32">
<title>design-ideas-regular</title>
<path d="M7.433 2.765c0.338 0.165 0.567 0.507 0.567 0.901 0 0 0 0 0 0v0c0 1.107 0.416 1.744 0.937 2.52l0.039 0.056c0.443 0.659 1.024 1.521 1.024 2.757 0 1.261-0.636 2.373-1.605 3.033 0.255 0.213 0.48 0.476 0.675 0.791 0.635 1.027 0.931 2.596 0.931 4.849 0 2.283-0.307 5.024-0.807 7.213-0.248 1.088-0.556 2.092-0.923 2.845-0.184 0.394-0.412 0.732-0.683 1.030l0.003-0.003c-0.275 0.281-0.697 0.581-1.257 0.581s-0.983-0.3-1.256-0.581c-0.269-0.294-0.497-0.633-0.67-1.002l-0.010-0.024c-0.368-0.755-0.676-1.757-0.924-2.847-0.496-2.161-0.789-4.648-0.807-7.201l-0-0.013c0-2.253 0.296-3.821 0.931-4.848 0.187-0.305 0.411-0.566 0.67-0.787l0.005-0.004c-0.974-0.668-1.605-1.776-1.605-3.030 0-0.001 0-0.002 0-0.003v0c0-0.491 0-1.335 0.511-2.424 0.5-1.067 1.451-2.292 3.197-3.691 0.17-0.136 0.387-0.219 0.625-0.219 0.158 0 0.307 0.037 0.44 0.102l-0.006-0.003zM4.667 8.999v0.001c0 0.92 0.746 1.667 1.667 1.667s1.667-0.746 1.667-1.667v0c0-0.585-0.247-0.991-0.723-1.699l-0.016-0.024c-0.305-0.453-0.667-0.991-0.923-1.68-0.724 0.736-1.124 1.347-1.349 1.827-0.323 0.688-0.323 1.177-0.323 1.573zM5.299 13.875c-0.331 0.536-0.632 1.635-0.632 3.799 0 2.135 0.291 4.727 0.756 6.768 0.235 1.027 0.501 1.86 0.772 2.415 0.049 0.103 0.096 0.188 0.139 0.26 0.043-0.072 0.089-0.157 0.139-0.26 0.271-0.555 0.537-1.389 0.772-2.415 0.467-2.040 0.756-4.632 0.756-6.768 0-2.164-0.301-3.263-0.632-3.799-0.101-0.181-0.249-0.325-0.428-0.42l-0.006-0.003c-0.16-0.072-0.347-0.113-0.544-0.113-0.020 0-0.041 0-0.061 0.001l0.003-0c-0.267 0-0.457 0.041-0.601 0.112-0.184 0.097-0.332 0.242-0.431 0.417l-0.003 0.005zM13.333 19.891c-0.766-0.131-1.452-0.352-2.091-0.655l0.048 0.021c0.026-0.474 0.041-1.029 0.041-1.587 0-0.24-0.003-0.48-0.008-0.719l0.001 0.036c0.601 0.404 1.28 0.701 2.009 0.867v-3.852c0-1.105 0.895-2 2-2v0h5.333c-0-3.314-2.686-6-6-6-1.377 0-2.647 0.464-3.659 1.245l0.014-0.010c-0.267-0.737-0.647-1.301-0.911-1.693l-0.053-0.080c1.283-0.914 2.882-1.461 4.609-1.461 4.418 0 8 3.582 8 8v0h4.667c1.105 0 2 0.895 2 2v0 12c0 1.105-0.895 2-2 2v0h-12c-1.105 0-2-0.895-2-2v0-6.111zM15.333 19.975v6.027h12v-12h-4.92c-0.864 3.261-3.653 5.677-7.050 5.971l-0.030 0.002zM20.325 14.001h-4.992v3.964c2.319-0.267 4.218-1.822 4.979-3.922l0.013-0.042z"></path>
</svg>
