<!-- Generated by IcoMoon.io -->
<svg version="1.1" xmlns="http://www.w3.org/2000/svg" width="32" height="32" viewBox="0 0 32 32">
<title>desktop-mac</title>
<path d="M4 8c0-2.209 1.791-4 4-4v0h16c2.209 0 4 1.791 4 4v0 12c0 2.209-1.791 4-4 4v0h-4v1c0 0.552 0.448 1 1 1v0h1c0.552 0 1 0.448 1 1s-0.448 1-1 1v0h-12c-0.552 0-1-0.448-1-1s0.448-1 1-1v0h1c0.552 0 1-0.448 1-1v0-1h-4c-2.209 0-4-1.791-4-4v0-12zM18.17 26c-0.11-0.313-0.17-0.65-0.17-1v-1h-4v1c0 0.35-0.060 0.687-0.17 1h4.34zM24 22c1.105 0 2-0.895 2-2v0h-20c0 1.105 0.895 2 2 2v0h16zM26 8c0-1.105-0.895-2-2-2v0h-16c-1.105 0-2 0.895-2 2v0 10h20v-10z"></path>
</svg>
