<!-- Generated by IcoMoon.io -->
<svg version="1.1" xmlns="http://www.w3.org/2000/svg" width="32" height="32" viewBox="0 0 32 32">
<title>desktop-flow</title>
<path d="M22.225 4l-16.763 0.007c-1.561 0.106-2.795 1.405-2.795 2.993v14.003l0.007 0.205c0.106 1.561 1.405 2.795 2.993 2.795l5.665-0v3.331l-2.332 0.001-0.136 0.009c-0.488 0.066-0.864 0.485-0.864 0.991 0 0.552 0.448 1 1 1l14.136-0.009c0.488-0.066 0.864-0.485 0.864-0.991 0-0.552-0.448-1-1-1l-2.335-0.001v-3.331l5.666 0 0.205-0.007c1.561-0.106 2.795-1.405 2.795-2.993v-8.336h-2v8.336l-0.009 0.136c-0.066 0.488-0.485 0.864-0.991 0.864l-20.801-0.009c-0.488-0.066-0.864-0.485-0.864-0.991v-14.003l0.009-0.136c0.066-0.488 0.485-0.864 0.991-0.864h16.333v-0.999c0-0.358 0.081-0.697 0.225-1.001zM13.331 24.003h5.333l0.001 3.331h-5.333l-0.001-3.331zM23.333 5c0-0.552 0.448-1 1-1h5.333c0.552 0 1 0.448 1 1v5.333c0 0.552-0.448 1-1 1h-5.333c-0.552 0-1-0.448-1-1v-1h-0.431c-0.307 0-0.58 0.197-0.678 0.488l-1.219 3.656c-0.369 1.108-1.407 1.856-2.575 1.856h-1.098v2.333c0 0.552-0.448 1-1 1h-5.333c-0.552 0-1-0.448-1-1v-5.333c0-0.552 0.448-1 1-1h5.333c0.552 0 1 0.448 1 1v1h1.098c0.307 0 0.58-0.197 0.678-0.488l1.219-3.656c0.369-1.108 1.407-1.856 2.575-1.856h0.431v-2.333zM25.333 8.357v0.976h3.333v-3.333h-3.333v2.309c0 0.008 0 0.016 0 0.024s-0 0.016-0 0.024zM12 13.333v3.333h3.333v-3.333h-3.333z"></path>
</svg>
