<!-- Generated by IcoMoon.io -->
<svg version="1.1" xmlns="http://www.w3.org/2000/svg" width="32" height="32" viewBox="0 0 32 32">
<title>desktop-flow</title>
<path d="M22.224 4l-16.763 0.007c-1.566 0.111-2.795 1.408-2.795 2.993 0 0 0 0 0 0v-0 14.003l0.007 0.205c0.111 1.566 1.408 2.795 2.993 2.795 0 0 0 0 0 0h5.665v3.331h-2.332l-0.136 0.009c-0.491 0.069-0.864 0.486-0.864 0.991 0 0.552 0.448 1 1 1l14.136-0.008c0.495-0.065 0.874-0.484 0.874-0.992 0-0.552-0.448-1-1-1-0.004 0-0.007 0-0.011 0h-2.334v-3.331h5.667l0.205-0.007c1.566-0.111 2.795-1.408 2.795-2.993 0-0 0-0 0-0v0-8.336h-2v8.336l-0.009 0.136c-0.069 0.491-0.486 0.864-0.991 0.864l-20.801-0.009c-0.491-0.069-0.864-0.486-0.864-0.991v0-14.003l0.009-0.136c0.069-0.491 0.486-0.864 0.991-0.864h16.333v-1c0-0.357 0.080-0.697 0.224-1zM13.331 24.003h5.333l0.001 3.331h-5.333l-0.001-3.331zM23.333 5c0-0.552 0.448-1 1-1v0h5.333c0.552 0 1 0.448 1 1v0 5.333c0 0.552-0.448 1-1 1v0h-5.333c-0.552 0-1-0.448-1-1v0-1h-0.431c-0.313 0-0.58 0.202-0.676 0.483l-0.002 0.005-1.219 3.656c-0.371 1.088-1.383 1.856-2.575 1.856-0 0-0 0-0.001 0h-1.097v2.333c0 0.552-0.448 1-1 1v0h-5.333c-0.552 0-1-0.448-1-1v0-5.333c0-0.552 0.448-1 1-1v0h5.333c0.552 0 1 0.448 1 1v0 1h1.097c0.307 0 0.581-0.197 0.677-0.488l1.219-3.656c0.371-1.088 1.383-1.856 2.575-1.856 0 0 0 0 0.001 0h0.431v-2.333zM25.333 8.357v0.976h3.333v-3.333h-3.333v2.309c0 0.007 0 0.016 0 0.024s-0 0.017-0 0.025l0-0.001zM12 13.333v3.333h3.333v-3.333h-3.333z"></path>
</svg>
