<!-- Generated by IcoMoon.io -->
<svg version="1.1" xmlns="http://www.w3.org/2000/svg" width="32" height="32" viewBox="0 0 32 32">
<title>desktop-pulse-regular</title>
<path d="M5.5 3.333c-1.565 0-2.833 1.269-2.833 2.833v0 6.032c0.047-0.003 0.102-0.005 0.157-0.005 0.003 0 0.007 0 0.010 0h1.499v-6.027c0-0.644 0.523-1.167 1.167-1.167h21c0.645 0 1.167 0.523 1.167 1.167v6.027h1.5c0.056 0 0.111 0.001 0.167 0.005v-6.032c0-1.565-1.269-2.833-2.833-2.833v0h-21zM2.667 21.833v-4.646c0.055 0.004 0.111 0.006 0.167 0.006h1.5v4.64c0 0.645 0.523 1.167 1.167 1.167h21c0.644 0 1.167-0.522 1.167-1.167v0-4.64h1.5c0.056 0 0.111-0.002 0.167-0.006v4.646c0 1.565-1.269 2.833-2.833 2.833v0h-5.833v2.333h1.833c0.46 0 0.833 0.373 0.833 0.833s-0.373 0.833-0.833 0.833v0h-13c-0.46 0-0.833-0.373-0.833-0.833s0.373-0.833 0.833-0.833v0h1.833v-2.333h-5.833c-1.565 0-2.833-1.269-2.833-2.833v0zM19 24.667h-6v2.333h6v-2.333zM12.627 7.245c-0.111-0.338-0.424-0.578-0.793-0.578-0.36 0-0.666 0.228-0.783 0.547l-0.002 0.006-2.42 6.78h-5.129c-0.46 0-0.833 0.373-0.833 0.833s0.373 0.833 0.833 0.833v0h5.716c0.352 0 0.667-0.221 0.785-0.553l1.79-5.015 3.416 10.655c0.111 0.339 0.424 0.579 0.794 0.579 0.332 0 0.619-0.194 0.753-0.476l0.002-0.005 3.873-8.3 1.099 2.605c0.131 0.309 0.433 0.509 0.768 0.509h6.005c0.46 0 0.833-0.373 0.833-0.833s-0.373-0.833-0.833-0.833v0h-5.452l-1.613-3.824c-0.13-0.302-0.425-0.51-0.768-0.51-0.332 0-0.619 0.195-0.753 0.476l-0.002 0.005-3.767 8.073-3.518-10.975z"></path>
</svg>
