<!-- Generated by IcoMoon.io -->
<svg version="1.1" xmlns="http://www.w3.org/2000/svg" width="32" height="32" viewBox="0 0 32 32">
<title>desktop-sync-regular</title>
<path d="M16 8.667c0 4.050 3.283 7.333 7.333 7.333s7.333-3.283 7.333-7.333v0c0-4.050-3.283-7.333-7.333-7.333s-7.333 3.283-7.333 7.333v0zM27.333 4c0.368 0 0.667 0.298 0.667 0.667v0 2.667c0 0.368-0.298 0.667-0.667 0.667v0h-2.667c-0.368 0-0.667-0.298-0.667-0.667s0.298-0.667 0.667-0.667v0h1.333c-0.614-0.813-1.578-1.333-2.664-1.333-0.001 0-0.002 0-0.003 0h0c-1.111 0-2.096 0.543-2.703 1.381-0.123 0.161-0.315 0.264-0.531 0.264-0.368 0-0.667-0.298-0.667-0.667 0-0.142 0.044-0.273 0.119-0.381l-0.001 0.002c0.857-1.177 2.23-1.933 3.78-1.933 0.001 0 0.002 0 0.003 0h-0c1.307 0 2.487 0.537 3.333 1.4v-0.733c0-0.368 0.298-0.667 0.667-0.667v0zM20 11.933v0.733c0 0.368-0.298 0.667-0.667 0.667s-0.667-0.298-0.667-0.667v0-2.667c0-0.368 0.298-0.667 0.667-0.667v0h2.667c0.368 0 0.667 0.298 0.667 0.667s-0.298 0.667-0.667 0.667v0h-1.333c0.608 0.811 1.577 1.333 2.667 1.333 1.021 0 1.936-0.459 2.548-1.184 0.123-0.15 0.309-0.245 0.517-0.245 0.368 0 0.667 0.298 0.667 0.667 0 0.168-0.062 0.322-0.165 0.439l0.001-0.001c-0.86 1.016-2.136 1.657-3.562 1.657-0.002 0-0.003 0-0.005 0h0c-0.002 0-0.004 0-0.006 0-1.303 0-2.482-0.536-3.326-1.399l-0.001-0.001zM27.332 21.003v-4.645c0.765-0.403 1.422-0.881 2.003-1.439l-0.003 0.003v6.080c0 0 0 0.001 0 0.002 0 1.585-1.229 2.882-2.785 2.992l-0.010 0.001-0.205 0.007h-5.667v3.331h2.335c0.552 0 1 0.448 1 1 0 0.504-0.373 0.921-0.858 0.99l-0.005 0.001-0.136 0.009h-14c-0.552-0-1-0.448-1-1 0-0.504 0.373-0.921 0.858-0.99l0.005-0.001 0.136-0.009h2.332v-3.331h-5.665c-0 0-0 0-0 0-1.585 0-2.882-1.229-2.992-2.785l-0.001-0.010-0.007-0.205v-14.003c0-0 0-0 0-0 0-1.585 1.229-2.882 2.785-2.992l0.010-0.001 0.205-0.007h10.363c-0.374 0.575-0.694 1.237-0.927 1.939l-0.017 0.061h-9.419c-0.504 0-0.921 0.373-0.99 0.859l-0.001 0.005-0.009 0.136v14.003c0 0.507 0.376 0.924 0.864 0.991l0.136 0.009h20.665c0.504-0 0.921-0.373 0.99-0.859l0.001-0.005 0.009-0.136zM18.664 24.003h-5.333l0.001 3.331h5.333l-0.001-3.331z"></path>
</svg>
