<!-- Generated by IcoMoon.io -->
<svg version="1.1" xmlns="http://www.w3.org/2000/svg" width="32" height="32" viewBox="0 0 32 32">
<title>desktop-edit</title>
<path d="M25.467 2.227l-7.871 7.869c-0.446 0.446-0.774 1.008-0.936 1.638l-0.005 0.025-0.611 2.441c-0.027 0.106-0.043 0.227-0.043 0.352 0 0.8 0.649 1.449 1.449 1.449 0.125 0 0.247-0.016 0.363-0.046l-0.010 0.002 2.44-0.609c0.655-0.167 1.218-0.496 1.664-0.943l7.869-7.869c0.532-0.548 0.86-1.297 0.86-2.122 0-1.683-1.365-3.048-3.048-3.048-0.825 0-1.573 0.328-2.122 0.86l0.001-0.001zM5.667 4h16.14l-2 2h-14.14c-0.504 0-0.921 0.373-0.99 0.859l-0.001 0.005-0.009 0.136v14.003c0 0.507 0.376 0.924 0.864 0.991l0.136 0.009h20.665c0.504-0 0.921-0.373 0.99-0.859l0.001-0.005 0.009-0.136v-10.136l2-2v12.136c0 0 0 0 0 0 0 1.585-1.229 2.882-2.785 2.992l-0.010 0.001-0.205 0.007h-5.667v3.331h2.335c0.552 0 1 0.448 1 1 0 0.504-0.373 0.921-0.858 0.99l-0.005 0.001-0.136 0.009h-14c-0.552-0-1-0.448-1-1 0-0.504 0.373-0.921 0.858-0.99l0.005-0.001 0.136-0.009h2.332v-3.331h-5.665c-0 0-0 0-0 0-1.585 0-2.882-1.229-2.992-2.785l-0.001-0.010-0.007-0.205v-14.003c0-0 0-0 0-0 0-1.585 1.229-2.882 2.785-2.992l0.010-0.001 0.205-0.007zM18.664 24.003h-5.333l0.001 3.331h5.333l-0.001-3.331z"></path>
</svg>
