<!-- Generated by IcoMoon.io -->
<svg version="1.1" xmlns="http://www.w3.org/2000/svg" width="32" height="32" viewBox="0 0 32 32">
<title>developer-board-lightning-toolbox</title>
<path d="M12 3.2c0.442 0 0.8 0.358 0.8 0.8v0 2.4h2.4v-2.4c0-0.442 0.358-0.8 0.8-0.8s0.8 0.358 0.8 0.8v0 2.4h2.4v-2.4c0-0.442 0.358-0.8 0.8-0.8s0.8 0.358 0.8 0.8v0 2.4h0.8c2.209 0 4 1.791 4 4v0 0.8h2.4c0.442 0 0.8 0.358 0.8 0.8s-0.358 0.8-0.8 0.8v0h-2.4v1.68c-0.24-0.051-0.515-0.080-0.798-0.080-0.001 0-0.001 0-0.002 0h-0.8v-4c0-1.325-1.075-2.4-2.4-2.4v0h-11.2c-1.325 0-2.4 1.075-2.4 2.4v0 11.2c0 1.325 1.075 2.4 2.4 2.4v0h4v1.6h-1.6v2.4c0 0.442-0.358 0.8-0.8 0.8s-0.8-0.358-0.8-0.8v0-2.4h-0.8c-2.209 0-4-1.791-4-4v0-0.8h-2.4c-0.442 0-0.8-0.358-0.8-0.8s0.358-0.8 0.8-0.8v0h2.4v-2.4h-2.4c-0.442 0-0.8-0.358-0.8-0.8s0.358-0.8 0.8-0.8v0h2.4v-2.4h-2.4c-0.442 0-0.8-0.358-0.8-0.8s0.358-0.8 0.8-0.8v0h2.4v-0.8c0-2.209 1.791-4 4-4v0h0.8v-2.4c0-0.442 0.358-0.8 0.8-0.8v0zM17.667 17.667c0.24-1.296 1.104-2.371 2.267-2.906-0.104-0.216-0.32-0.362-0.571-0.362-0.001 0-0.002 0-0.003 0h-2.448l0.667-2.336c0.198-0.698-0.696-1.173-1.162-0.616l-4.269 5.101c-0.093 0.11-0.15 0.254-0.15 0.411 0 0.353 0.287 0.64 0.64 0.64 0 0 0.001 0 0.001 0h2.491l-0.693 2.333c-0.020 0.060-0.031 0.128-0.031 0.199 0 0.152 0.052 0.291 0.14 0.402l-0.001-0.001c0.417-1.467 1.611-2.576 3.098-2.862l0.025-0.004zM19.2 19.2v-0.8c0-1.325 1.075-2.4 2.4-2.4v0h3.2c1.325 0 2.4 1.075 2.4 2.4v0 0.8h0.8c1.325 0 2.4 1.075 2.4 2.4v0 2.4h-3.2v-0.8c0-0.442-0.358-0.8-0.8-0.8s-0.8 0.358-0.8 0.8v0 0.8h-4.8v-0.8c0-0.442-0.358-0.8-0.8-0.8s-0.8 0.358-0.8 0.8v0 0.8h-3.2v-2.4c0-1.325 1.075-2.4 2.4-2.4v0h0.8zM20.8 18.4v0.8h4.8v-0.8c0-0.442-0.358-0.8-0.8-0.8v0h-3.2c-0.442 0-0.8 0.358-0.8 0.8v0zM27.2 26.4v-0.8h3.2v2.4c0 1.325-1.075 2.4-2.4 2.4v0h-9.6c-1.325 0-2.4-1.075-2.4-2.4v0-2.4h3.2v0.8c0 0.442 0.358 0.8 0.8 0.8s0.8-0.358 0.8-0.8v0-0.8h4.8v0.8c0 0.442 0.358 0.8 0.8 0.8s0.8-0.358 0.8-0.8v0z"></path>
</svg>
