<!-- Generated by IcoMoon.io -->
<svg version="1.1" xmlns="http://www.w3.org/2000/svg" width="32" height="32" viewBox="0 0 32 32">
<title>developer-board</title>
<path d="M20.333 2.667c0.504 0 0.921 0.373 0.99 0.859l0.001 0.005 0.009 0.136v3.1c1.965 0.413 3.487 1.935 3.894 3.867l0.006 0.033h3.1c0.552 0 1 0.448 1 1 0 0.504-0.373 0.921-0.858 0.99l-0.005 0.001-0.136 0.009h-3v2.333h3c0.504 0 0.921 0.373 0.99 0.859l0.001 0.005 0.009 0.136c-0 0.504-0.373 0.921-0.859 0.99l-0.005 0.001-0.136 0.009h-3v2.333h3c0.504 0 0.921 0.373 0.99 0.859l0.001 0.005 0.009 0.136c-0 0.504-0.373 0.921-0.859 0.99l-0.005 0.001-0.136 0.009h-3.1c-0.412 1.966-1.934 3.489-3.867 3.896l-0.033 0.006v3.1c-0 0.552-0.448 1-1 1-0.504 0-0.921-0.373-0.99-0.858l-0.001-0.005-0.009-0.136v-3.001h-2.335l0.001 3.001c-0 0.504-0.373 0.921-0.859 0.99l-0.005 0.001-0.136 0.008c-0.504-0-0.921-0.373-0.99-0.859l-0.001-0.005-0.009-0.136-0.001-3.001h-2.332v3.001c-0 0.504-0.373 0.921-0.859 0.99l-0.005 0.001-0.136 0.009c-0.504-0-0.921-0.373-0.99-0.859l-0.001-0.005-0.009-0.136v-3.1c-1.965-0.413-3.487-1.935-3.894-3.867l-0.006-0.033h-3.1c-0.552-0-1-0.448-1-1 0-0.504 0.373-0.921 0.858-0.99l0.005-0.001 0.136-0.009 3-0.001v-2.333l-3 0.001c-0.504-0-0.921-0.373-0.99-0.859l-0.001-0.005-0.009-0.136c0-0.504 0.373-0.921 0.859-0.99l0.005-0.001 0.136-0.009 3-0.001v-2.333l-3 0.001c-0.504-0-0.921-0.373-0.99-0.859l-0.001-0.005-0.009-0.136c0-0.504 0.373-0.921 0.859-0.99l0.005-0.001 0.136-0.009 3.1-0.001c0.413-1.965 1.935-3.486 3.867-3.893l0.033-0.006v-3.1c0-0.552 0.448-1 1-1 0.504 0 0.921 0.373 0.99 0.858l0.001 0.005 0.009 0.136v2.999h2.332l0.001-2.999c0-0.504 0.373-0.921 0.859-0.99l0.005-0.001 0.136-0.009c0.504 0 0.921 0.373 0.99 0.859l0.001 0.005 0.009 0.136-0.001 2.999h2.335v-2.999c0-0 0-0 0-0 0-0.457 0.307-0.843 0.726-0.962l0.007-0.002 0.131-0.027 0.136-0.009zM20.333 8.667h-8.667c-1.657 0-3 1.343-3 3v0 8.667c0 1.657 1.343 3 3 3v0h8.667c1.657 0 3-1.343 3-3v0-8.667c0-1.657-1.343-3-3-3v0zM16.007 12.007c2.209 0 4 1.791 4 4s-1.791 4-4 4v0c-2.209 0-4-1.791-4-4s1.791-4 4-4v0zM16.007 14.007c-1.105 0-2 0.895-2 2s0.895 2 2 2v0c1.105 0 2-0.895 2-2s-0.895-2-2-2v0z"></path>
</svg>
