<!-- Generated by IcoMoon.io -->
<svg version="1.1" xmlns="http://www.w3.org/2000/svg" width="32" height="32" viewBox="0 0 32 32">
<title>device-meeting-room-remote</title>
<path d="M5.459 7.128c0.442-1.835 2.083-3.128 3.971-3.128h13.144c1.887 0 3.529 1.293 3.971 3.128l2.656 11.031c0.717 2.977-1.54 5.841-4.603 5.841h-10.595v-2h10.595c1.769 0 3.072-1.654 2.658-3.373l-2.656-11.031c-0.225-0.936-1.063-1.596-2.026-1.596h-13.144c-0.963 0-1.8 0.66-2.026 1.596l-0.9 3.738h-1.503c-0.192 0-0.38 0.015-0.564 0.043l1.023-4.249zM13.987 27.333h9.016c0.552 0 1-0.448 1-1s-0.448-1-1-1h-9.001v1.667c0 0.112-0.005 0.224-0.015 0.333zM7.667 19.333c0.921 0 1.667-0.746 1.667-1.667s-0.746-1.667-1.667-1.667c-0.921 0-1.667 0.746-1.667 1.667s0.746 1.667 1.667 1.667zM2.667 15c0-1.289 1.045-2.333 2.334-2.333h5.334c1.289 0 2.334 1.045 2.334 2.333v12c0 1.289-1.045 2.333-2.334 2.333h-5.334c-1.289 0-2.334-1.045-2.334-2.333v-12zM5 14.667c-0.184 0-0.333 0.149-0.333 0.333v12c0 0.184 0.149 0.333 0.333 0.333h5.334c0.184 0 0.333-0.149 0.333-0.333v-12c0-0.184-0.149-0.333-0.333-0.333h-5.334z"></path>
</svg>
