<!-- Generated by IcoMoon.io -->
<svg version="1.1" xmlns="http://www.w3.org/2000/svg" width="32" height="32" viewBox="0 0 32 32">
<title>device-eq</title>
<path d="M16 4c0.506 0 0.925 0.376 0.991 0.864l0.009 0.136v22c0 0.552-0.448 1-1 1-0.506 0-0.925-0.376-0.991-0.864l-0.009-0.136v-22c0-0.552 0.448-1 1-1zM11.007 8c0.506 0 0.925 0.376 0.991 0.864l0.009 0.136v14c0 0.552-0.448 1-1 1-0.506 0-0.925-0.376-0.991-0.864l-0.009-0.136v-14c0-0.552 0.448-1 1-1zM20.994 8c0.506 0 0.925 0.376 0.991 0.864l0.009 0.136v14c0 0.552-0.448 1-1 1-0.506 0-0.925-0.376-0.991-0.864l-0.009-0.136v-14c0-0.552 0.448-1 1-1zM6.335 12c0.506 0 0.925 0.376 0.991 0.864l0.009 0.136v6c0 0.552-0.448 1-1 1-0.506 0-0.925-0.376-0.991-0.864l-0.009-0.136v-6c0-0.552 0.448-1 1-1zM25.67 12c0.506 0 0.925 0.376 0.991 0.864l0.009 0.136v5.998c0 0.552-0.448 1-1 1-0.506 0-0.925-0.376-0.991-0.864l-0.009-0.136v-5.998c0-0.552 0.448-1 1-1z"></path>
</svg>
