<!-- Generated by IcoMoon.io -->
<svg version="1.1" xmlns="http://www.w3.org/2000/svg" width="32" height="32" viewBox="0 0 32 32">
<title>diagram</title>
<path d="M2.667 7c0-2.393 1.94-4.333 4.333-4.333v0h14c2.393 0 4.333 1.94 4.333 4.333v0 8.044c-0.473-0.238-1.030-0.377-1.62-0.377-0 0-0 0-0 0h-0.38v-7.667c0-1.289-1.045-2.333-2.333-2.333v0h-14c-1.289 0-2.333 1.045-2.333 2.333v0 15.333c0 1.288 1.045 2.333 2.333 2.333h4.493l-1.684 2h-2.809c-2.393 0-4.333-1.94-4.333-4.333v0-15.333zM9 8c-0.552 0-1 0.448-1 1s0.448 1 1 1v0h10c0.552 0 1-0.448 1-1s-0.448-1-1-1v0h-10zM9.427 16.579c0.163-0.344 0.507-0.579 0.907-0.579h13.38c0.714 0 1.353 0.322 1.781 0.827l0.003 0.003 4.933 5.859c0.146 0.173 0.235 0.398 0.235 0.644s-0.089 0.471-0.236 0.645l0.001-0.001-4.933 5.859c-0.431 0.509-1.070 0.83-1.784 0.831h-13.38c-0 0-0 0-0 0-0.552 0-1-0.448-1-1 0-0.246 0.089-0.471 0.236-0.645l-0.001 0.001 4.792-5.689-4.792-5.689c-0.146-0.173-0.235-0.398-0.235-0.644 0-0.153 0.035-0.299 0.096-0.429l-0.003 0.006zM12.483 18l3.949 4.689c0.146 0.173 0.235 0.398 0.235 0.644s-0.089 0.471-0.236 0.645l0.001-0.001-3.949 4.689h11.231c0.102-0 0.193-0.046 0.254-0.118l0-0 4.392-5.215-4.392-5.215c-0.061-0.073-0.153-0.119-0.255-0.119h-11.231zM9 12c-0.552 0-1 0.448-1 1s0.448 1 1 1v0h6c0.552 0 1-0.448 1-1s-0.448-1-1-1v0h-6z"></path>
</svg>
