<!-- Generated by IcoMoon.io -->
<svg version="1.1" xmlns="http://www.w3.org/2000/svg" width="32" height="32" viewBox="0 0 32 32">
<title>diagram</title>
<path d="M2.667 7c0-2.393 1.94-4.333 4.333-4.333h14c2.393 0 4.333 1.94 4.333 4.333v8.044c-0.498-0.245-1.052-0.377-1.62-0.377h-0.38v-7.667c0-1.289-1.045-2.333-2.333-2.333h-14c-1.289 0-2.333 1.045-2.333 2.333v15.333c0 1.289 1.045 2.333 2.333 2.333h4.493l-1.684 2h-2.809c-2.393 0-4.333-1.94-4.333-4.333v-15.333zM9 8c-0.552 0-1 0.448-1 1s0.448 1 1 1h10c0.552 0 1-0.448 1-1s-0.448-1-1-1h-10zM9.427 16.578c0.164-0.353 0.518-0.578 0.907-0.578h13.38c0.688 0 1.341 0.304 1.785 0.83l4.934 5.859c0.313 0.372 0.313 0.916 0 1.288l-4.934 5.859c-0.443 0.527-1.097 0.83-1.785 0.83h-13.38c-0.389 0-0.743-0.225-0.907-0.578s-0.109-0.769 0.142-1.066l4.791-5.689-4.791-5.689c-0.251-0.297-0.306-0.713-0.142-1.066zM12.483 18l3.949 4.689c0.313 0.372 0.313 0.916 0 1.288l-3.949 4.689h11.23c0.098 0 0.192-0.043 0.255-0.119l4.391-5.215-4.391-5.215c-0.063-0.075-0.157-0.119-0.255-0.119h-11.23zM9 12c-0.552 0-1 0.448-1 1s0.448 1 1 1h6c0.552 0 1-0.448 1-1s-0.448-1-1-1h-6z"></path>
</svg>
