<!-- Generated by IcoMoon.io -->
<svg version="1.1" xmlns="http://www.w3.org/2000/svg" width="32" height="32" viewBox="0 0 32 32">
<title>dialpad-off</title>
<path d="M4.374 2.96c-0.391-0.391-1.024-0.391-1.414-0s-0.391 1.024-0 1.414l6.002 6.002c-0.739 0.171-1.29 0.833-1.29 1.624 0 0.92 0.746 1.667 1.667 1.667 0.791 0 1.453-0.551 1.624-1.29l4.665 4.665c-0.741 0.169-1.294 0.832-1.294 1.625 0 0.921 0.746 1.667 1.667 1.667 0.792 0 1.456-0.553 1.625-1.294l10.001 10.001c0.391 0.391 1.024 0.391 1.414 0s0.391-1.024 0-1.414l-24.666-24.667z"></path>
<path d="M24.328 18.667c0 0.397-0.139 0.762-0.371 1.048l-2.344-2.344c0.286-0.232 0.651-0.371 1.048-0.371 0.92 0 1.667 0.746 1.667 1.667z"></path>
<path d="M17.667 12c0 0.398-0.14 0.764-0.373 1.051l-2.345-2.345c0.287-0.233 0.653-0.373 1.051-0.373 0.92 0 1.667 0.746 1.667 1.667z"></path>
<path d="M11.005 5.333c0 0.4-0.141 0.767-0.376 1.054l-2.345-2.345c0.287-0.235 0.654-0.375 1.054-0.375 0.92 0 1.667 0.746 1.667 1.667z"></path>
<path d="M16 23.667c0.92 0 1.667 0.746 1.667 1.667s-0.746 1.667-1.667 1.667c-0.921 0-1.667-0.746-1.667-1.667s0.746-1.667 1.667-1.667z"></path>
<path d="M9.339 17c0.92 0 1.667 0.746 1.667 1.667s-0.746 1.667-1.667 1.667-1.667-0.746-1.667-1.667c0-0.92 0.746-1.667 1.667-1.667z"></path>
<path d="M22.661 10.333c0.92 0 1.667 0.746 1.667 1.667s-0.746 1.667-1.667 1.667c-0.921 0-1.667-0.746-1.667-1.667s0.746-1.667 1.667-1.667z"></path>
<path d="M16 3.667c0.92 0 1.667 0.746 1.667 1.667s-0.746 1.667-1.667 1.667c-0.921 0-1.667-0.746-1.667-1.667s0.746-1.667 1.667-1.667z"></path>
<path d="M22.661 3.667c0.92 0 1.667 0.746 1.667 1.667s-0.746 1.667-1.667 1.667c-0.921 0-1.667-0.746-1.667-1.667s0.746-1.667 1.667-1.667z"></path>
</svg>
