<!-- Generated by IcoMoon.io -->
<svg version="1.1" xmlns="http://www.w3.org/2000/svg" width="32" height="32" viewBox="0 0 32 32">
<title>dialpad</title>
<path d="M16 23.667c0.921 0 1.667 0.746 1.667 1.667s-0.746 1.667-1.667 1.667c-0.92 0-1.667-0.746-1.667-1.667s0.746-1.667 1.667-1.667zM16 17c0.921 0 1.667 0.746 1.667 1.667s-0.746 1.667-1.667 1.667c-0.92 0-1.667-0.746-1.667-1.667s0.746-1.667 1.667-1.667zM22.661 17c0.92 0 1.667 0.746 1.667 1.667s-0.746 1.667-1.667 1.667c-0.921 0-1.667-0.746-1.667-1.667s0.746-1.667 1.667-1.667zM9.339 17c0.92 0 1.667 0.746 1.667 1.667s-0.746 1.667-1.667 1.667c-0.92 0-1.667-0.746-1.667-1.667s0.746-1.667 1.667-1.667zM16 10.333c0.921 0 1.667 0.746 1.667 1.667s-0.746 1.667-1.667 1.667c-0.92 0-1.667-0.746-1.667-1.667s0.746-1.667 1.667-1.667zM22.661 10.333c0.92 0 1.667 0.746 1.667 1.667s-0.746 1.667-1.667 1.667c-0.921 0-1.667-0.746-1.667-1.667s0.746-1.667 1.667-1.667zM9.339 10.333c0.92 0 1.667 0.746 1.667 1.667s-0.746 1.667-1.667 1.667c-0.92 0-1.667-0.746-1.667-1.667s0.746-1.667 1.667-1.667zM16 3.667c0.921 0 1.667 0.746 1.667 1.667s-0.746 1.667-1.667 1.667c-0.92 0-1.667-0.746-1.667-1.667s0.746-1.667 1.667-1.667zM22.661 3.667c0.92 0 1.667 0.746 1.667 1.667s-0.746 1.667-1.667 1.667c-0.921 0-1.667-0.746-1.667-1.667s0.746-1.667 1.667-1.667zM9.339 3.667c0.92 0 1.667 0.746 1.667 1.667s-0.746 1.667-1.667 1.667c-0.92 0-1.667-0.746-1.667-1.667s0.746-1.667 1.667-1.667z"></path>
</svg>
