<!-- Generated by IcoMoon.io -->
<svg version="1.1" xmlns="http://www.w3.org/2000/svg" width="32" height="32" viewBox="0 0 32 32">
<title>diamond</title>
<path d="M3.35 17.65c-0.422-0.422-0.683-1.006-0.683-1.65s0.261-1.228 0.683-1.65l11-11c0.422-0.422 1.006-0.683 1.65-0.683s1.228 0.261 1.65 0.683l11 11c0.422 0.422 0.683 1.006 0.683 1.65s-0.261 1.228-0.683 1.65l-11 11c-0.422 0.422-1.006 0.683-1.65 0.683s-1.228-0.261-1.65-0.683l-11-11zM4.529 15.529c-0.121 0.121-0.195 0.287-0.195 0.471s0.075 0.351 0.195 0.471l11 11c0.121 0.121 0.287 0.195 0.471 0.195s0.351-0.075 0.471-0.195l11-11c0.121-0.121 0.195-0.287 0.195-0.471s-0.075-0.351-0.195-0.471l-11-11c-0.121-0.121-0.287-0.195-0.471-0.195s-0.351 0.075-0.471 0.195l-11 11z"></path>
</svg>
