<!-- Generated by IcoMoon.io -->
<svg version="1.1" xmlns="http://www.w3.org/2000/svg" width="32" height="32" viewBox="0 0 32 32">
<title>directions-regular</title>
<path d="M19.064 3.98l8.957 8.957c0.784 0.784 1.269 1.867 1.269 3.064s-0.485 2.28-1.269 3.064l-8.957 8.956c-0.784 0.784-1.867 1.269-3.064 1.269s-2.28-0.485-3.064-1.269l-8.956-8.955c-0.784-0.784-1.269-1.867-1.269-3.064s0.485-2.28 1.269-3.064l8.956-8.957c0.784-0.784 1.867-1.269 3.064-1.269s2.28 0.485 3.064 1.269v0zM14.351 5.393l-8.957 8.957c-0.422 0.422-0.684 1.006-0.684 1.65s0.261 1.228 0.684 1.65l8.957 8.957c0.422 0.422 1.006 0.683 1.65 0.683s1.228-0.261 1.65-0.683l8.956-8.957c0.422-0.422 0.683-1.006 0.683-1.65s-0.261-1.228-0.683-1.65l-8.956-8.956c-0.422-0.422-1.006-0.684-1.65-0.684s-1.228 0.261-1.65 0.684v0zM16.611 9.74l0.097-0.112c0.181-0.181 0.431-0.293 0.707-0.293 0.224 0 0.43 0.073 0.597 0.198l-0.003-0.002 0.112 0.097 2.667 2.667c0.181 0.181 0.294 0.431 0.294 0.708 0 0.224-0.074 0.431-0.198 0.598l0.002-0.003-0.097 0.112-2.667 2.667c-0.181 0.182-0.431 0.294-0.708 0.294-0.552 0-1-0.448-1-1 0-0.225 0.074-0.432 0.199-0.599l-0.002 0.003 0.097-0.112 0.959-0.96h-2c-0.86 0-1.568 0.652-1.657 1.489l-0.001 0.007-0.009 0.171v4.332c-0.001 0.552-0.448 0.998-1 0.998-0.504 0-0.921-0.373-0.99-0.858l-0.001-0.005-0.009-0.133v-4.333c0-0 0-0 0-0 0-1.947 1.517-3.539 3.433-3.659l0.011-0.001 0.223-0.008h1.999l-0.957-0.96c-0.181-0.181-0.293-0.431-0.293-0.707 0-0.224 0.073-0.43 0.198-0.597l-0.002 0.003z"></path>
</svg>
