<!-- Generated by IcoMoon.io -->
<svg version="1.1" xmlns="http://www.w3.org/2000/svg" width="32" height="32" viewBox="0 0 32 32">
<title>directions</title>
<path d="M19.064 3.979l8.957 8.957c1.692 1.692 1.692 4.436 0 6.128l-8.957 8.957c-1.692 1.692-4.436 1.692-6.128 0l-8.957-8.957c-1.692-1.692-1.692-4.436 0-6.128l8.957-8.957c1.692-1.692 4.436-1.692 6.128 0zM14.35 5.393l-8.957 8.957c-0.911 0.911-0.911 2.389 0 3.3l8.957 8.957c0.911 0.911 2.389 0.911 3.3 0l8.957-8.957c0.911-0.911 0.911-2.389 0-3.3l-8.957-8.957c-0.911-0.911-2.389-0.911-3.3 0zM16.61 9.739l0.097-0.112c0.355-0.355 0.911-0.387 1.302-0.097l0.112 0.097 2.667 2.667c0.355 0.355 0.387 0.911 0.097 1.302l-0.097 0.112-2.667 2.667c-0.391 0.391-1.024 0.391-1.414 0-0.355-0.355-0.387-0.911-0.097-1.302l0.097-0.112 0.959-0.961-1.999 0.001c-0.863 0-1.573 0.656-1.658 1.496l-0.009 0.17v4.333c0 0.552-0.448 1-1 1-0.506 0-0.925-0.376-0.991-0.864l-0.009-0.136v-4.333c0-1.95 1.522-3.544 3.443-3.66l0.223-0.007 1.998-0.001-0.958-0.958c-0.355-0.355-0.387-0.911-0.097-1.302v0z"></path>
</svg>
