<!-- Generated by IcoMoon.io -->
<svg version="1.1" xmlns="http://www.w3.org/2000/svg" width="32" height="32" viewBox="0 0 32 32">
<title>dismiss-regular</title>
<path d="M5.589 4.411c-0.151-0.151-0.359-0.244-0.589-0.244-0.46 0-0.833 0.373-0.833 0.833 0 0.23 0.093 0.439 0.244 0.589l10.411 10.411-10.411 10.411c-0.151 0.151-0.244 0.359-0.244 0.589 0 0.46 0.373 0.833 0.833 0.833 0.23 0 0.439-0.093 0.589-0.244v0l10.411-10.411 10.41 10.41c0.151 0.151 0.359 0.244 0.589 0.244 0.46 0 0.833-0.373 0.833-0.833 0-0.23-0.093-0.439-0.244-0.589v0l-10.41-10.41 10.41-10.411c0.161-0.152 0.262-0.368 0.262-0.606 0-0.46-0.373-0.833-0.833-0.833-0.239 0-0.454 0.1-0.606 0.261l-0 0-10.411 10.41-10.411-10.411z"></path>
</svg>
