<!-- Generated by IcoMoon.io -->
<svg version="1.1" xmlns="http://www.w3.org/2000/svg" width="32" height="32" viewBox="0 0 32 32">
<title>dismiss-circle</title>
<path d="M16 2.667c7.364 0 13.333 5.97 13.333 13.333s-5.97 13.333-13.333 13.333c-7.364 0-13.333-5.97-13.333-13.333s5.97-13.333 13.333-13.333zM16 4.667c-6.259 0-11.333 5.074-11.333 11.333s5.074 11.333 11.333 11.333c6.259 0 11.333-5.074 11.333-11.333s-5.074-11.333-11.333-11.333zM20.595 11.196l0.112 0.097c0.355 0.355 0.387 0.911 0.097 1.302l-0.097 0.112-3.292 3.293 3.292 3.293c0.355 0.355 0.387 0.911 0.097 1.302l-0.097 0.112c-0.355 0.355-0.911 0.387-1.302 0.097l-0.112-0.097-3.293-3.292-3.293 3.292c-0.355 0.355-0.911 0.387-1.302 0.097l-0.112-0.097c-0.355-0.355-0.387-0.911-0.097-1.302l0.097-0.112 3.292-3.293-3.292-3.293c-0.355-0.355-0.387-0.911-0.097-1.302l0.097-0.112c0.355-0.355 0.911-0.387 1.302-0.097l0.112 0.097 3.293 3.292 3.293-3.292c0.355-0.355 0.911-0.387 1.302-0.097z"></path>
</svg>
