<!-- Generated by IcoMoon.io -->
<svg version="1.1" xmlns="http://www.w3.org/2000/svg" width="32" height="32" viewBox="0 0 32 32">
<title>dismiss-circle</title>
<path d="M16 2.667c7.364 0 13.333 5.969 13.333 13.333s-5.969 13.333-13.333 13.333-13.333-5.969-13.333-13.333 5.969-13.333 13.333-13.333zM16 4.333c-6.443 0-11.667 5.223-11.667 11.667s5.223 11.667 11.667 11.667 11.667-5.223 11.667-11.667-5.223-11.667-11.667-11.667zM11.855 10.683l0.068 0.061 4.077 4.078 4.077-4.078c0.151-0.151 0.359-0.244 0.589-0.244 0.198 0 0.38 0.069 0.523 0.185l-0.002-0.001 0.068 0.061c0.151 0.151 0.244 0.359 0.244 0.589 0 0.198-0.069 0.38-0.185 0.523l0.001-0.002-0.061 0.068-4.078 4.077 4.078 4.077c0.151 0.151 0.244 0.359 0.244 0.589 0 0.198-0.069 0.38-0.185 0.523l0.001-0.002-0.061 0.068c-0.151 0.151-0.359 0.244-0.589 0.244-0.198 0-0.38-0.069-0.523-0.185l0.002 0.001-0.068-0.061-4.077-4.078-4.077 4.078c-0.151 0.151-0.359 0.244-0.589 0.244-0.198 0-0.38-0.069-0.523-0.185l0.002 0.001-0.068-0.061c-0.151-0.151-0.244-0.359-0.244-0.589 0-0.198 0.069-0.38 0.185-0.523l-0.001 0.002 0.061-0.068 4.078-4.077-4.078-4.077c-0.151-0.151-0.244-0.359-0.244-0.589 0-0.198 0.069-0.38 0.185-0.523l-0.001 0.002 0.061-0.068c0.151-0.151 0.359-0.244 0.589-0.244 0.198 0 0.38 0.069 0.523 0.185l-0.002-0.001z"></path>
</svg>
