<!-- Generated by IcoMoon.io -->
<svg version="1.1" xmlns="http://www.w3.org/2000/svg" width="32" height="32" viewBox="0 0 32 32">
<title>dismiss-square</title>
<path d="M10.96 10.96c0.391-0.391 1.024-0.391 1.414 0l3.626 3.626 3.626-3.626c0.391-0.391 1.024-0.391 1.414 0s0.391 1.024 0 1.414l-3.626 3.626 3.626 3.626c0.391 0.391 0.391 1.024 0 1.414s-1.024 0.391-1.414 0l-3.626-3.626-3.626 3.626c-0.391 0.391-1.024 0.391-1.414 0s-0.391-1.024 0-1.414l3.626-3.626-3.626-3.626c-0.391-0.391-0.391-1.024 0-1.414zM8.333 4c-2.393 0-4.333 1.94-4.333 4.333v15.333c0 2.393 1.94 4.333 4.333 4.333h15.333c2.393 0 4.333-1.94 4.333-4.333v-15.333c0-2.393-1.94-4.333-4.333-4.333h-15.333zM6 8.333c0-1.289 1.045-2.333 2.333-2.333h15.333c1.289 0 2.333 1.045 2.333 2.333v15.333c0 1.289-1.045 2.333-2.333 2.333h-15.333c-1.289 0-2.333-1.045-2.333-2.333v-15.333z"></path>
</svg>
