<!-- Generated by IcoMoon.io -->
<svg version="1.1" xmlns="http://www.w3.org/2000/svg" width="32" height="32" viewBox="0 0 32 32">
<title>dismiss-square-multiple</title>
<path d="M4.8 8.8c0-2.209 1.791-4 4-4v0h11.2c2.209 0 4 1.791 4 4v0 11.2c0 2.209-1.791 4-4 4v0h-11.2c-2.209 0-4-1.791-4-4v0-11.2zM8.8 6.4c-1.325 0-2.4 1.075-2.4 2.4v0 11.2c0 1.325 1.075 2.4 2.4 2.4v0h11.2c1.325 0 2.4-1.075 2.4-2.4v0-11.2c0-1.325-1.075-2.4-2.4-2.4v0h-11.2zM12 27.2c-0.001 0-0.002 0-0.003 0-1.303 0-2.461-0.624-3.189-1.59l-0.007-0.010h11.2c3.093 0 5.6-2.507 5.6-5.6v0-11.2c0.971 0.73 1.6 1.891 1.6 3.2v8c0 3.976-3.224 7.2-7.2 7.2v0h-8zM10.966 9.834c-0.145-0.145-0.345-0.235-0.566-0.235-0.442 0-0.801 0.359-0.801 0.801 0 0.221 0.090 0.421 0.235 0.566v0l3.435 3.434-3.435 3.434c-0.145 0.145-0.235 0.345-0.235 0.566 0 0.442 0.359 0.801 0.801 0.801 0.221 0 0.421-0.090 0.566-0.235v0l3.434-3.435 3.434 3.435c0.145 0.145 0.345 0.235 0.566 0.235 0.442 0 0.801-0.359 0.801-0.801 0-0.221-0.090-0.421-0.235-0.566v0l-3.435-3.434 3.435-3.434c0.145-0.145 0.235-0.345 0.235-0.566 0-0.442-0.359-0.801-0.801-0.801-0.221 0-0.421 0.090-0.566 0.235v0l-3.434 3.435-3.434-3.435z"></path>
</svg>
