<!-- Generated by IcoMoon.io -->
<svg version="1.1" xmlns="http://www.w3.org/2000/svg" width="32" height="32" viewBox="0 0 32 32">
<title>diversity</title>
<path d="M7.184 19.696c-0.315 0.229-0.593 0.506-0.821 0.821l5.12 5.12c0.315-0.229 0.593-0.506 0.821-0.821l-5.12-5.12zM12.971 23.126c0.018-0.138 0.029-0.298 0.029-0.46 0-2.025-1.642-3.667-3.667-3.667-0.162 0-0.322 0.011-0.479 0.031l0.018-0.002 4.098 4.098zM9.793 26.305l-4.097-4.097c-0.018 0.138-0.029 0.298-0.029 0.46 0 2.025 1.642 3.667 3.667 3.667 0.162 0 0.322-0.011 0.479-0.031l-0.018 0.002zM9.783 5.961l3.163 6.288c0.034 0.066 0.054 0.145 0.054 0.228 0 0.278-0.224 0.503-0.501 0.505h-6.324c-0.277-0.003-0.5-0.228-0.5-0.505 0-0.083 0.020-0.162 0.056-0.231l-0.001 0.003 3.163-6.288c0.083-0.165 0.252-0.276 0.446-0.276s0.363 0.111 0.445 0.274l0.001 0.003zM25.801 20.524c0.347 0.186 0.532 0.519 0.532 0.849v2.588c0 0.33-0.185 0.663-0.532 0.849l-2.597 1.39c-0.333 0.179-0.743 0.179-1.076 0l-2.597-1.39c-0.347-0.186-0.532-0.519-0.532-0.849v-2.587c0-0.33 0.185-0.663 0.532-0.849l2.597-1.39c0.156-0.084 0.341-0.134 0.538-0.134s0.382 0.049 0.544 0.137l-0.006-0.003 2.597 1.39zM11.269 5.197c-0.803-1.597-3.063-1.597-3.866 0l-3.162 6.289c-0.733 1.455 0.315 3.18 1.932 3.18h6.325c1.617 0 2.665-1.725 1.933-3.181l-3.163-6.288zM20.667 4c-1.841 0-3.333 1.492-3.333 3.333v0 4c0 1.841 1.492 3.333 3.333 3.333v0h4c1.841 0 3.333-1.492 3.333-3.333v0-4c0-1.841-1.492-3.333-3.333-3.333v0h-4zM14.667 22.667c0 2.946-2.388 5.333-5.333 5.333s-5.333-2.388-5.333-5.333v0c0-2.946 2.388-5.333 5.333-5.333s5.333 2.388 5.333 5.333v0zM23.992 17.665c-0.384-0.209-0.84-0.331-1.325-0.331s-0.942 0.123-1.34 0.339l0.015-0.007-2.596 1.39c-0.871 0.467-1.412 1.354-1.412 2.318v2.588c0 0.964 0.541 1.851 1.412 2.318l2.596 1.39c0.384 0.209 0.84 0.331 1.325 0.331s0.942-0.123 1.34-0.339l-0.015 0.007 2.596-1.39c0.871-0.467 1.412-1.354 1.412-2.318v-2.587c0-0.964-0.541-1.851-1.412-2.318l-2.596-1.39z"></path>
</svg>
