<!-- Generated by IcoMoon.io -->
<svg version="1.1" xmlns="http://www.w3.org/2000/svg" width="32" height="32" viewBox="0 0 32 32">
<title>diversity</title>
<path d="M17.333 8c0-2.209 1.791-4 4-4h2.667c2.209 0 4 1.791 4 4v2.667c0 2.209-1.791 4-4 4h-2.667c-2.209 0-4-1.791-4-4v-2.667zM7.4 5.198c0.803-1.597 3.063-1.597 3.866 0l3.163 6.288c0.733 1.457-0.315 3.181-1.933 3.181h-6.325c-1.618 0-2.665-1.724-1.933-3.181l3.163-6.288zM9.249 6.021c-0.011 0.007-0.035 0.022-0.062 0.076l-3.162 6.288c-0.023 0.045-0.026 0.077-0.024 0.101 0.002 0.030 0.011 0.064 0.032 0.098s0.045 0.055 0.063 0.066c0.014 0.008 0.034 0.017 0.075 0.017h6.325c0.041 0 0.061-0.009 0.075-0.017 0.019-0.011 0.043-0.032 0.063-0.066s0.030-0.069 0.032-0.098c0.001-0.024-0.002-0.056-0.024-0.101l-3.162-6.288c-0.027-0.054-0.051-0.069-0.062-0.076-0.018-0.011-0.047-0.021-0.084-0.021s-0.066 0.010-0.084 0.021zM14.667 22.667c0 2.945-2.388 5.333-5.333 5.333s-5.333-2.388-5.333-5.333c0-2.945 2.388-5.333 5.333-5.333s5.333 2.388 5.333 5.333zM12.667 22.667c0-1.841-1.492-3.333-3.333-3.333-0.556 0-1.081 0.136-1.542 0.377l4.498 4.498c0.241-0.461 0.377-0.986 0.377-1.542zM9.333 26c0.556 0 1.081-0.136 1.542-0.377l-4.498-4.498c-0.241 0.461-0.377 0.986-0.377 1.542 0 1.841 1.492 3.333 3.333 3.333zM22.027 17.488c0.4-0.207 0.88-0.207 1.28 0l3.965 2.048c0.448 0.231 0.728 0.686 0.728 1.18v3.901c0 0.495-0.28 0.949-0.728 1.18l-3.965 2.048c-0.4 0.207-0.88 0.207-1.28 0l-3.965-2.048c-0.448-0.231-0.728-0.686-0.728-1.18v-3.901c0-0.495 0.28-0.949 0.728-1.18l3.965-2.048zM19.333 21.13v3.073l3.333 1.721 3.333-1.721v-3.073l-3.333-1.721-3.333 1.721z"></path>
</svg>
