<!-- Generated by IcoMoon.io -->
<svg version="1.1" xmlns="http://www.w3.org/2000/svg" width="32" height="32" viewBox="0 0 32 32">
<title>dock</title>
<path d="M6.391 13.329h6.265c0.552 0 1 0.448 1 1 0 0.506-0.376 0.925-0.864 0.991l-0.136 0.009h-6.265c-0.896 0-1.604 0.599-1.689 1.335l-0.009 0.149-0.027 6.369c0 0.748 0.652 1.394 1.521 1.472l0.176 0.008h19.272c0.895 0 1.604-0.599 1.689-1.335l0.009-0.149 0.027-6.369c0-0.748-0.652-1.394-1.521-1.472l-0.176-0.008h-6.26c-0.552 0-1-0.448-1-1 0-0.506 0.376-0.925 0.864-0.991l0.136-0.009h6.26c1.946 0 3.568 1.422 3.69 3.261l0.007 0.223-0.027 6.369c0 1.867-1.547 3.361-3.465 3.473l-0.232 0.007h-19.272c-1.946 0-3.568-1.422-3.69-3.261l-0.007-0.223 0.027-6.369c0-1.867 1.547-3.361 3.465-3.473l0.232-0.007zM16.595 4.196l0.112 0.097 5.233 5.233c0.391 0.391 0.391 1.024 0 1.414-0.355 0.355-0.911 0.387-1.302 0.097l-0.112-0.097-3.542-3.546 0.002 12.944c0 0.552-0.448 1-1 1s-1-0.448-1-1l0.002-12.913-3.514 3.515c-0.355 0.355-0.911 0.387-1.302 0.097l-0.112-0.097c-0.355-0.355-0.387-0.911-0.097-1.302l0.097-0.112 5.233-5.233c0.355-0.355 0.911-0.387 1.302-0.097z"></path>
</svg>
