<!-- Generated by IcoMoon.io -->
<svg version="1.1" xmlns="http://www.w3.org/2000/svg" width="32" height="32" viewBox="0 0 32 32">
<title>dock-row</title>
<path d="M27 15.991c1.289 0 2.333 1.045 2.333 2.333v3.333c0 1.289-1.045 2.333-2.333 2.333h-3.333c-1.289 0-2.333-1.045-2.333-2.333v-3.333c0-1.289 1.045-2.333 2.333-2.333h3.333zM8.333 15.991c1.289 0 2.333 1.045 2.333 2.333v3.333c0 1.289-1.045 2.333-2.333 2.333h-3.333c-1.289 0-2.333-1.045-2.333-2.333v-3.333c0-1.289 1.045-2.333 2.333-2.333h3.333zM17.667 15.991c1.289 0 2.333 1.045 2.333 2.333v3.333c0 1.289-1.045 2.333-2.333 2.333h-3.333c-1.289 0-2.333-1.045-2.333-2.333v-3.333c0-1.289 1.045-2.333 2.333-2.333h3.333zM27 17.991h-3.333c-0.184 0-0.333 0.149-0.333 0.333v3.333c0 0.184 0.149 0.333 0.333 0.333h3.333c0.184 0 0.333-0.149 0.333-0.333v-3.333c0-0.184-0.149-0.333-0.333-0.333zM8.333 17.991h-3.333c-0.184 0-0.333 0.149-0.333 0.333v3.333c0 0.184 0.149 0.333 0.333 0.333h3.333c0.184 0 0.333-0.149 0.333-0.333v-3.333c0-0.184-0.149-0.333-0.333-0.333zM17.667 17.991h-3.333c-0.184 0-0.333 0.149-0.333 0.333v3.333c0 0.184 0.149 0.333 0.333 0.333h3.333c0.184 0 0.333-0.149 0.333-0.333v-3.333c0-0.184-0.149-0.333-0.333-0.333zM17.667 6.658c1.289 0 2.333 1.045 2.333 2.333v3.333c0 1.289-1.045 2.333-2.333 2.333h-3.333c-1.289 0-2.333-1.045-2.333-2.333v-3.333c0-1.289 1.045-2.333 2.333-2.333h3.333zM27 6.658c1.289 0 2.333 1.045 2.333 2.333v3.333c0 1.289-1.045 2.333-2.333 2.333h-3.333c-1.289 0-2.333-1.045-2.333-2.333v-3.333c0-1.289 1.045-2.333 2.333-2.333h3.333zM8.333 6.658c1.289 0 2.333 1.045 2.333 2.333v3.333c0 1.289-1.045 2.333-2.333 2.333h-3.333c-1.289 0-2.333-1.045-2.333-2.333v-3.333c0-1.224 0.943-2.228 2.142-2.326l0.191-0.008h3.333zM17.667 8.658h-3.333c-0.184 0-0.333 0.149-0.333 0.333v3.333c0 0.184 0.149 0.333 0.333 0.333h3.333c0.184 0 0.333-0.149 0.333-0.333v-3.333c0-0.184-0.149-0.333-0.333-0.333zM27 8.658h-3.333c-0.184 0-0.333 0.149-0.333 0.333v3.333c0 0.184 0.149 0.333 0.333 0.333h3.333c0.184 0 0.333-0.149 0.333-0.333v-3.333c0-0.184-0.149-0.333-0.333-0.333zM8.333 8.658h-3.333l-0.076 0.009c-0.147 0.035-0.257 0.167-0.257 0.325v3.333c0 0.184 0.149 0.333 0.333 0.333h3.333c0.184 0 0.333-0.149 0.333-0.333v-3.333c0-0.184-0.149-0.333-0.333-0.333z"></path>
</svg>
