<!-- Generated by IcoMoon.io -->
<svg version="1.1" xmlns="http://www.w3.org/2000/svg" width="32" height="32" viewBox="0 0 32 32">
<title>dock-row-regular</title>
<path d="M27 15.989c1.288 0 2.333 1.045 2.333 2.333v3.333c0 1.289-1.045 2.333-2.333 2.333v0h-3.333c-1.289 0-2.333-1.045-2.333-2.333v0-3.333c0-1.288 1.045-2.333 2.333-2.333h3.333zM8.333 15.989c1.288 0 2.333 1.045 2.333 2.333v3.333c0 1.289-1.045 2.333-2.333 2.333v0h-3.333c-1.289 0-2.333-1.045-2.333-2.333v0-3.333c0-1.288 1.045-2.333 2.333-2.333h3.333zM17.667 15.989c1.288 0 2.333 1.045 2.333 2.333v3.333c0 1.289-1.045 2.333-2.333 2.333v0h-3.333c-1.289 0-2.333-1.045-2.333-2.333v0-3.333c0-1.288 1.045-2.333 2.333-2.333h3.333zM27 17.989h-3.333c-0.184 0-0.333 0.149-0.333 0.333v0 3.333c0 0.184 0.149 0.333 0.333 0.333h3.333c0.184 0 0.333-0.149 0.333-0.333v0-3.333c0-0.184-0.149-0.333-0.333-0.333v0zM8.333 17.989h-3.333c-0.184 0-0.333 0.149-0.333 0.333v0 3.333c0 0.184 0.149 0.333 0.333 0.333h3.333c0.184 0 0.333-0.149 0.333-0.333v0-3.333c0-0.184-0.149-0.333-0.333-0.333v0zM17.667 17.989h-3.333c-0.184 0-0.333 0.149-0.333 0.333v0 3.333c0 0.184 0.149 0.333 0.333 0.333h3.333c0.184 0 0.333-0.149 0.333-0.333v0-3.333c0-0.184-0.149-0.333-0.333-0.333v0zM17.667 6.656c1.288 0 2.333 1.045 2.333 2.333v3.333c0 1.289-1.045 2.333-2.333 2.333v0h-3.333c-1.289 0-2.333-1.045-2.333-2.333v0-3.333c0-1.288 1.045-2.333 2.333-2.333h3.333zM27 6.656c1.288 0 2.333 1.045 2.333 2.333v3.333c0 1.289-1.045 2.333-2.333 2.333v0h-3.333c-1.289 0-2.333-1.045-2.333-2.333v0-3.333c0-1.288 1.045-2.333 2.333-2.333h3.333zM8.333 6.656c1.288 0 2.333 1.045 2.333 2.333v3.333c0 1.289-1.045 2.333-2.333 2.333v0h-3.333c-1.289 0-2.333-1.045-2.333-2.333v0-3.333c0-1.221 0.938-2.223 2.133-2.325l0.009-0.001 0.192-0.008h3.333zM17.667 8.656h-3.333c-0.184 0-0.333 0.149-0.333 0.333v0 3.333c0 0.184 0.149 0.333 0.333 0.333h3.333c0.184 0 0.333-0.149 0.333-0.333v0-3.333c0-0.184-0.149-0.333-0.333-0.333v0zM27 8.656h-3.333c-0.184 0-0.333 0.149-0.333 0.333v0 3.333c0 0.184 0.149 0.333 0.333 0.333h3.333c0.184 0 0.333-0.149 0.333-0.333v0-3.333c0-0.184-0.149-0.333-0.333-0.333v0zM8.333 8.656h-3.333l-0.076 0.009c-0.148 0.036-0.257 0.167-0.257 0.324v3.333c0 0.184 0.149 0.333 0.333 0.333h3.333c0.184 0 0.333-0.149 0.333-0.333v0-3.333c0-0.184-0.149-0.333-0.333-0.333v0z"></path>
</svg>
