<!-- Generated by IcoMoon.io -->
<svg version="1.1" xmlns="http://www.w3.org/2000/svg" width="32" height="32" viewBox="0 0 32 32">
<title>dock-regular</title>
<path d="M6.392 13.329h6.264c0.552 0 1 0.448 1 1 0 0.504-0.373 0.921-0.858 0.99l-0.005 0.001-0.136 0.009h-6.264c-0.896 0-1.604 0.6-1.689 1.335l-0.008 0.149-0.028 6.368c0 0.748 0.653 1.395 1.52 1.472l0.177 0.008h19.272c0.896 0 1.604-0.6 1.689-1.335l0.008-0.149 0.027-6.368c0-0.748-0.651-1.395-1.52-1.472l-0.176-0.008h-6.26c-0.552-0-1-0.448-1-1 0-0.504 0.373-0.921 0.858-0.99l0.005-0.001 0.136-0.009h6.26c1.947 0 3.568 1.421 3.689 3.261l0.008 0.223-0.028 6.368c0 1.867-1.547 3.36-3.465 3.473l-0.232 0.007h-19.272c-1.947 0-3.568-1.423-3.689-3.261l-0.008-0.223 0.027-6.368c0-1.867 1.547-3.361 3.467-3.473l0.232-0.007zM16.595 4.196l0.112 0.097 5.233 5.233c0.179 0.181 0.29 0.43 0.29 0.704 0 0.552-0.448 1-1 1-0.223 0-0.428-0.073-0.594-0.196l0.003 0.002-0.112-0.097-3.543-3.547 0.003 12.945c0 0.552-0.448 1-1 1s-1-0.448-1-1v0-12.913l-3.512 3.515c-0.181 0.181-0.431 0.293-0.707 0.293-0.224 0-0.43-0.073-0.597-0.198l0.003 0.002-0.112-0.097c-0.181-0.181-0.293-0.431-0.293-0.707 0-0.224 0.073-0.43 0.198-0.597l-0.002 0.003 0.097-0.112 5.232-5.233c0.181-0.181 0.431-0.293 0.707-0.293 0.224 0 0.43 0.073 0.597 0.198l-0.003-0.002z"></path>
</svg>
