<!-- Generated by IcoMoon.io -->
<svg version="1.1" xmlns="http://www.w3.org/2000/svg" width="32" height="32" viewBox="0 0 32 32">
<title>doctor-regular</title>
<path d="M12.333 5.667v5.833c0 0.46-0.373 0.833-0.833 0.833h-5.833v7.333h5.833c0.46 0 0.833 0.373 0.833 0.833v5.833h7.333v-5.833c0-0.46 0.373-0.833 0.833-0.833h5.833v-7.333h-5.833c-0.46 0-0.833-0.373-0.833-0.833v-5.833h-7.333zM10.667 5.5c0-0.828 0.672-1.5 1.5-1.5v0h7.667c0.828 0 1.5 0.672 1.5 1.5v0 5.167h5.167c0.828 0 1.5 0.672 1.5 1.5v0 7.667c0 0.828-0.672 1.5-1.5 1.5v0h-5.167v5.167c0 0.828-0.672 1.5-1.5 1.5v0h-7.667c-0.828 0-1.5-0.672-1.5-1.5v0-5.167h-5.167c-0.828 0-1.5-0.672-1.5-1.5v0-7.667c0-0.828 0.672-1.5 1.5-1.5v0h5.167v-5.167z"></path>
</svg>
