<!-- Generated by IcoMoon.io -->
<svg version="1.1" xmlns="http://www.w3.org/2000/svg" width="32" height="32" viewBox="0 0 32 32">
<title>document-multiple-sync-regular</title>
<path d="M6.4 6.4c0-1.767 1.433-3.2 3.2-3.2v0h5.738c0.662 0.001 1.262 0.27 1.696 0.704l6.264 6.262c0.434 0.434 0.702 1.034 0.702 1.696v10.538c0 1.767-1.433 3.2-3.2 3.2v0h-3.531c0.137-0.462 0.241-1.006 0.293-1.565l0.003-0.035h3.235c0.884 0 1.6-0.716 1.6-1.6v0-9.6h-5.6c-1.325 0-2.4-1.075-2.4-2.4v0-5.6h-4.8c-0.884 0-1.6 0.716-1.6 1.6v0 8.035c-0.594 0.055-1.138 0.159-1.662 0.311l0.062-0.015v-8.331zM16 5.131v5.269c0 0.442 0.358 0.8 0.8 0.8v0h5.269l-6.069-6.069zM16.64 27.2c-0.314 0.609-0.663 1.133-1.063 1.614l0.012-0.015h5.309c3.481-0.001 6.302-2.823 6.302-6.304v0-8.096c0-0.884-0.716-1.6-1.6-1.6v0 9.6c0 2.651-2.149 4.8-4.8 4.8v0h-4.16zM1.6 23.2c0 3.976 3.224 7.2 7.2 7.2s7.2-3.224 7.2-7.2v0c0-3.976-3.224-7.2-7.2-7.2s-7.2 3.224-7.2 7.2v0zM12 18.4c0.442 0 0.8 0.358 0.8 0.8v0 2.4c0 0.442-0.358 0.8-0.8 0.8v0h-2.4c-0.442 0-0.8-0.358-0.8-0.8s0.358-0.8 0.8-0.8v0h0.749c-0.43-0.243-0.943-0.391-1.49-0.4l-0.003-0c-0.017-0-0.037-0-0.056-0-0.884 0-1.684 0.358-2.264 0.938l-0 0c-0.142 0.131-0.332 0.211-0.541 0.211-0.442 0-0.8-0.358-0.8-0.8 0-0.209 0.080-0.4 0.212-0.543l-0 0.001c0.869-0.869 2.069-1.406 3.394-1.406 0.883 0 1.711 0.239 2.422 0.655l-0.023-0.012v-0.243c0-0.442 0.358-0.8 0.8-0.8v0zM10.598 27.251c-0.532 0.221-1.15 0.349-1.798 0.349-0.884 0-1.712-0.239-2.423-0.656l0.023 0.012v0.243c0 0.442-0.358 0.8-0.8 0.8s-0.8-0.358-0.8-0.8v0-2.4c0-0.442 0.358-0.8 0.8-0.8v0h2.4c0.442 0 0.8 0.358 0.8 0.8s-0.358 0.8-0.8 0.8v0h-0.749c0.43 0.243 0.943 0.391 1.49 0.4l0.003 0c0.017 0 0.037 0 0.056 0 0.884 0 1.684-0.358 2.264-0.938l0-0c0.142-0.131 0.332-0.211 0.541-0.211 0.442 0 0.8 0.358 0.8 0.8 0 0.209-0.081 0.4-0.212 0.543l0.001-0.001c-0.444 0.444-0.974 0.801-1.563 1.044l-0.032 0.012z"></path>
</svg>
