<!-- Generated by IcoMoon.io -->
<svg version="1.1" xmlns="http://www.w3.org/2000/svg" width="32" height="32" viewBox="0 0 32 32">
<title>document-javascript</title>
<path d="M24 27.333h-9.379c-0.116 0.76-0.45 1.449-0.936 2h10.315c1.472 0 2.667-1.195 2.667-2.667v-13.563c0-0.707-0.281-1.385-0.781-1.885l-7.772-7.771c-0.020-0.020-0.043-0.037-0.065-0.054-0.017-0.013-0.033-0.025-0.048-0.039-0.095-0.085-0.188-0.169-0.292-0.24-0.034-0.023-0.071-0.041-0.107-0.059-0.021-0.010-0.043-0.021-0.063-0.032-0.022-0.013-0.044-0.025-0.067-0.038-0.072-0.042-0.145-0.084-0.221-0.116-0.263-0.109-0.545-0.164-0.832-0.184-0.026-0.002-0.052-0.005-0.078-0.009-0.036-0.005-0.072-0.010-0.11-0.010h-8.229c-1.472 0-2.667 1.195-2.667 2.667v13.357c0.109-0.016 0.22-0.024 0.333-0.024 0.653 0 1.243 0.268 1.667 0.7v-14.034c0-0.367 0.299-0.667 0.667-0.667h8v6c0 1.472 1.195 2.667 2.667 2.667h6v13.333c0 0.367-0.299 0.667-0.667 0.667zM23.171 11.333h-4.504c-0.368 0-0.667-0.3-0.667-0.667v-4.505l5.171 5.172zM5.667 20c0.552 0 1 0.448 1 1v5.667c0 1.473-1.194 2.667-2.667 2.667s-2.667-1.194-2.667-2.667v-0.333c0-0.552 0.448-1 1-1s1 0.448 1 1v0.333c0 0.368 0.298 0.667 0.667 0.667s0.667-0.299 0.667-0.667v-5.667c0-0.552 0.448-1 1-1zM10.6 20c-1.436 0-2.6 1.164-2.6 2.6v0.312c0 0.82 0.43 1.579 1.133 2.001l2.039 1.223c0.1 0.060 0.162 0.169 0.162 0.286v0.312c0 0.331-0.269 0.6-0.6 0.6h-0.133c-0.331 0-0.6-0.269-0.6-0.6v-0.067c0-0.552-0.448-1-1-1s-1 0.448-1 1v0.067c0 1.436 1.164 2.6 2.6 2.6h0.133c1.436 0 2.6-1.164 2.6-2.6v-0.312c0-0.82-0.43-1.579-1.133-2.001l-2.039-1.223c-0.1-0.060-0.162-0.169-0.162-0.286v-0.312c0-0.331 0.269-0.6 0.6-0.6h0.133c0.331 0 0.6 0.269 0.6 0.6v0.067c0 0.552 0.448 1 1 1s1-0.448 1-1v-0.067c0-1.436-1.164-2.6-2.6-2.6h-0.133z"></path>
</svg>
