<!-- Generated by IcoMoon.io -->
<svg version="1.1" xmlns="http://www.w3.org/2000/svg" width="32" height="32" viewBox="0 0 32 32">
<title>document-pill-regular</title>
<path d="M7.333 5.667c0-0.552 0.448-1 1-1v0h7.667v6c0 1.473 1.194 2.667 2.667 2.667v0h6v1.907c0.639-0.267 1.32-0.401 2-0.401v-1.953c0-0.619-0.245-1.212-0.684-1.649l-7.885-7.885c-0.422-0.422-1.005-0.684-1.649-0.684h-8.115c-1.657 0-3 1.343-3 3v0 20.667c0 1.657 1.343 3 3 3v0h7.245c-0.352-0.574-0.598-1.25-0.694-1.974l-0.003-0.026h-6.548c-0.552 0-1-0.448-1-1v0-20.667zM23.253 11.333h-4.587c-0.368 0-0.667-0.298-0.667-0.667v0-4.587l5.253 5.253zM29.373 17.293c-0.693-0.693-1.65-1.121-2.707-1.121s-2.014 0.428-2.707 1.121l-6.667 6.667c-0.709 0.695-1.149 1.663-1.149 2.734 0 2.114 1.714 3.828 3.828 3.828 1.071 0 2.039-0.44 2.733-1.148l0.001-0.001 6.667-6.667c0.693-0.693 1.121-1.65 1.121-2.707s-0.428-2.014-1.121-2.707v0zM25.373 18.707c0.331-0.331 0.788-0.536 1.293-0.536 1.010 0 1.829 0.819 1.829 1.829 0 0.505-0.205 0.962-0.536 1.293l-2.627 2.627-2.587-2.587 2.627-2.627zM22.707 25.293c0.181 0.181 0.292 0.431 0.292 0.707s-0.112 0.526-0.292 0.707v0l-1.333 1.333c-0.183 0.196-0.443 0.318-0.732 0.318-0.552 0-1-0.448-1-1 0-0.289 0.122-0.549 0.318-0.731l0.001-0.001 1.333-1.333c0.181-0.181 0.431-0.292 0.707-0.292s0.526 0.112 0.707 0.292v0z"></path>
</svg>
