<!-- Generated by IcoMoon.io -->
<svg version="1.1" xmlns="http://www.w3.org/2000/svg" width="32" height="32" viewBox="0 0 32 32">
<title>document-table</title>
<path d="M11.667 15.333h8.667c1.289 0 2.333 1.045 2.333 2.333v5.333c0 1.289-1.045 2.333-2.333 2.333h-8.667c-1.289 0-2.333-1.045-2.333-2.333v-5.333c0-1.289 1.045-2.333 2.333-2.333zM11.333 17.667v1.667h2v-2h-1.667c-0.184 0-0.333 0.149-0.333 0.333zM11.333 21.333v1.667c0 0.184 0.149 0.333 0.333 0.333h1.667v-2h-2zM15.333 21.333v2h5c0.184 0 0.333-0.149 0.333-0.333v-1.667h-5.333zM20.667 19.333v-1.667c0-0.184-0.149-0.333-0.333-0.333h-5v2h5.333zM18.113 3.448c-0.020-0.020-0.043-0.037-0.065-0.054-0.017-0.013-0.033-0.025-0.048-0.039-0.095-0.085-0.188-0.169-0.292-0.24-0.034-0.023-0.071-0.041-0.107-0.059-0.021-0.010-0.043-0.021-0.063-0.032-0.022-0.013-0.044-0.025-0.067-0.038-0.072-0.042-0.145-0.084-0.221-0.116-0.263-0.109-0.545-0.164-0.832-0.184-0.026-0.002-0.052-0.005-0.078-0.009-0.036-0.005-0.072-0.010-0.11-0.010h-8.229c-1.472 0-2.667 1.195-2.667 2.667v21.333c0 1.472 1.195 2.667 2.667 2.667h16c1.472 0 2.667-1.195 2.667-2.667v-13.563c0-0.707-0.281-1.385-0.781-1.885l-7.772-7.771zM24 27.333h-16c-0.368 0-0.667-0.3-0.667-0.667v-21.333c0-0.367 0.299-0.667 0.667-0.667h8v6c0 1.472 1.195 2.667 2.667 2.667h6v13.333c0 0.367-0.299 0.667-0.667 0.667zM23.171 11.333h-4.504c-0.368 0-0.667-0.3-0.667-0.667v-4.505l5.171 5.172z"></path>
</svg>
