<!-- Generated by IcoMoon.io -->
<svg version="1.1" xmlns="http://www.w3.org/2000/svg" width="32" height="32" viewBox="0 0 32 32">
<title>document-table-truck-regular</title>
<path d="M24 27.333h-6.684c-0.086 0.796-0.456 1.493-1.006 1.998l-0.002 0.002h7.692c1.473 0 2.667-1.194 2.667-2.667v0-13.563c-0-0.736-0.299-1.403-0.781-1.885l-7.772-7.771c-0.020-0.018-0.041-0.036-0.063-0.052l-0.002-0.001c-0.018-0.014-0.034-0.027-0.049-0.041l0.001 0.001c-0.088-0.083-0.184-0.162-0.284-0.234l-0.008-0.006c-0.030-0.020-0.065-0.039-0.101-0.056l-0.005-0.002-0.064-0.032-0.067-0.039c-0.072-0.041-0.145-0.084-0.221-0.116-0.245-0.101-0.528-0.167-0.825-0.184l-0.007-0c-0.030-0.002-0.057-0.005-0.083-0.010l0.005 0.001c-0.032-0.005-0.070-0.009-0.109-0.009h-8.23c-1.473 0-2.667 1.194-2.667 2.667v0 9.333h2v-9.333c0-0.368 0.298-0.667 0.667-0.667v0h8v6c0 1.473 1.194 2.667 2.667 2.667v0h6v13.333c0 0.368-0.298 0.667-0.667 0.667v0zM23.171 11.333h-4.504c-0.368 0-0.667-0.298-0.667-0.667v0-4.505l5.171 5.172zM17.333 23.333v2h3c1.289 0 2.333-1.045 2.333-2.333v0-5.333c0-1.289-1.045-2.333-2.333-2.333v0h-8.093c0.621 0.453 1.085 1.107 1.297 1.865 0.738 0.181 1.358 0.6 1.79 1.171l0.006 0.008v-1.044h5c0.184 0 0.333 0.149 0.333 0.333v0 1.667h-4.799l1 2h3.799v1.667c0 0.184-0.149 0.333-0.333 0.333v0h-3zM3.472 16c-1.181 0-2.139 0.957-2.139 2.139v8.556c0 0.867 0.516 1.613 1.259 1.949 0.209 1.157 1.207 2.023 2.409 2.023 1.133 0 2.086-0.771 2.364-1.816l0.004-0.017h1.376c0.283 1.061 1.235 1.83 2.367 1.83s2.084-0.769 2.363-1.813l0.004-0.017h0.689c1.013 0 1.833-0.821 1.833-1.833v-3.989c0-0.284-0.067-0.565-0.193-0.82l-1.367-2.733c-0.308-0.606-0.926-1.013-1.64-1.013-0 0-0 0-0 0h-0.467v-0.305c0-1.181-0.957-2.139-2.139-2.139h-6.723zM12.333 22.111v-2.444h0.467c0.232 0 0.443 0.131 0.547 0.337l1.053 2.107h-2.067zM3.777 28.223c0-0.675 0.547-1.223 1.223-1.223s1.223 0.547 1.223 1.223v0c0 0.675-0.547 1.223-1.223 1.223s-1.223-0.547-1.223-1.223v0zM11.111 29.444c-0.012 0-0.026 0.001-0.040 0.001-0.675 0-1.223-0.547-1.223-1.223s0.547-1.223 1.223-1.223c0.014 0 0.028 0 0.042 0.001l-0.002-0c0.658 0.022 1.182 0.561 1.182 1.222s-0.525 1.2-1.18 1.222l-0.002 0z"></path>
</svg>
