<!-- Generated by IcoMoon.io -->
<svg version="1.1" xmlns="http://www.w3.org/2000/svg" width="32" height="32" viewBox="0 0 32 32">
<title>document-link</title>
<path d="M24.667 26.667c0 0.367-0.299 0.667-0.667 0.667h-5.639c-0.229 0.729-0.579 1.403-1.028 2h6.666c1.472 0 2.667-1.195 2.667-2.667v-13.563c0-0.707-0.281-1.385-0.781-1.885l-7.772-7.771c-0.020-0.020-0.043-0.037-0.065-0.054-0.017-0.013-0.033-0.025-0.048-0.039-0.095-0.085-0.188-0.169-0.292-0.24-0.034-0.023-0.071-0.041-0.107-0.059-0.021-0.010-0.043-0.021-0.063-0.032-0.022-0.013-0.044-0.025-0.067-0.038-0.072-0.042-0.145-0.084-0.221-0.116-0.263-0.109-0.545-0.164-0.832-0.184-0.026-0.002-0.052-0.005-0.078-0.009-0.036-0.005-0.072-0.010-0.11-0.010h-8.229c-1.472 0-2.667 1.195-2.667 2.667v13.333h2v-13.333c0-0.367 0.299-0.667 0.667-0.667h8v6c0 1.472 1.195 2.667 2.667 2.667h6v13.333zM18 6.161l5.171 5.172h-4.504c-0.368 0-0.667-0.3-0.667-0.667v-4.505zM7.667 21c0-0.552-0.448-1-1-1l-0.266 0.007c-2.822 0.139-5.067 2.471-5.067 5.327 0 2.945 2.388 5.333 5.333 5.333l0.136-0.009c0.488-0.066 0.864-0.485 0.864-0.991 0-0.552-0.448-1-1-1l-0.219-0.007c-1.739-0.113-3.114-1.559-3.114-3.326 0-1.841 1.492-3.333 3.333-3.333l0.136-0.009c0.488-0.066 0.864-0.485 0.864-0.991zM17.333 25.333c0-2.945-2.388-5.333-5.333-5.333l-0.136 0.009c-0.488 0.066-0.864 0.485-0.864 0.991 0 0.552 0.448 1 1 1l0.219 0.007c1.739 0.113 3.114 1.559 3.114 3.326 0 1.841-1.492 3.333-3.333 3.333l-0.136 0.009c-0.488 0.066-0.864 0.485-0.864 0.991 0 0.552 0.448 1 1 1l0.266-0.007c2.822-0.139 5.067-2.471 5.067-5.327zM11.667 24.333h-4.667l-0.136 0.009c-0.488 0.066-0.864 0.485-0.864 0.991 0 0.552 0.448 1 1 1h4.667l0.136-0.009c0.488-0.066 0.864-0.485 0.864-0.991 0-0.552-0.448-1-1-1z"></path>
</svg>
