<!-- Generated by IcoMoon.io -->
<svg version="1.1" xmlns="http://www.w3.org/2000/svg" width="32" height="32" viewBox="0 0 32 32">
<title>document-lock</title>
<path d="M8.167 2.667c-1.565 0-2.833 1.269-2.833 2.833v0 10.567c0.459-0.468 1.015-0.84 1.635-1.083l0.032-0.011v-9.473c0-0.644 0.523-1.167 1.167-1.167h7.833v5.833c0 1.381 1.119 2.5 2.5 2.5v0h6.5v13.833c0 0.644-0.522 1.167-1.167 1.167v0h-7.833v1c0 0.229-0.023 0.451-0.067 0.667h7.9c1.565 0 2.833-1.269 2.833-2.833v0-14.224c-0-0.414-0.168-0.789-0.439-1.060l-8.109-8.111c-0.271-0.271-0.646-0.439-1.060-0.439-0 0-0 0-0.001 0h-8.891zM23.655 11h-5.155c-0.46 0-0.833-0.373-0.833-0.833v-5.155l5.988 5.988zM5.333 20h-0.667c-1.105 0-2 0.895-2 2v0 6.667c0 1.105 0.895 2 2 2v0h8c1.105 0 2-0.895 2-2v0-6.667c0-1.105-0.895-2-2-2v0h-0.667v-0.667c0-1.841-1.492-3.333-3.333-3.333s-3.333 1.492-3.333 3.333v0 0.667zM7 19.333c0-0.92 0.746-1.667 1.667-1.667s1.667 0.746 1.667 1.667v0 0.667h-3.333v-0.667zM10.667 25.333c0 1.105-0.895 2-2 2s-2-0.895-2-2v0c0-1.105 0.895-2 2-2s2 0.895 2 2v0z"></path>
</svg>
