<!-- Generated by IcoMoon.io -->
<svg version="1.1" xmlns="http://www.w3.org/2000/svg" width="32" height="32" viewBox="0 0 32 32">
<title>document-text-clock</title>
<path d="M14.921 17.333c-0.818-0.852-1.808-1.538-2.915-2h8.327c0.552 0 1 0.448 1 1s-0.448 1-1 1h-5.413zM16.174 19c0.36 0.622 0.645 1.293 0.842 2h3.318c0.552 0 1-0.448 1-1s-0.448-1-1-1h-4.159zM17.333 23.333c0 0.453-0.035 0.899-0.102 1.333h3.102c0.552 0 1-0.448 1-1s-0.448-1-1-1h-3.025c0.017 0.22 0.025 0.442 0.025 0.667zM7.333 5.333c0-0.367 0.299-0.667 0.667-0.667h8v6c0 1.472 1.195 2.667 2.667 2.667h6v13.333c0 0.367-0.299 0.667-0.667 0.667h-7.643c-0.383 0.735-0.868 1.408-1.437 2h9.079c1.472 0 2.667-1.195 2.667-2.667v-13.563c0-0.707-0.281-1.385-0.781-1.885l-7.772-7.771c-0.020-0.020-0.043-0.037-0.065-0.054-0.017-0.013-0.033-0.025-0.048-0.039-0.095-0.085-0.188-0.169-0.292-0.24-0.034-0.023-0.071-0.041-0.107-0.059-0.021-0.010-0.043-0.021-0.063-0.032-0.022-0.013-0.044-0.025-0.067-0.038-0.072-0.042-0.145-0.084-0.221-0.116-0.263-0.109-0.545-0.164-0.832-0.184-0.026-0.002-0.052-0.005-0.078-0.009-0.036-0.005-0.072-0.010-0.11-0.010h-8.229c-1.472 0-2.667 1.195-2.667 2.667v9.998c0.632-0.264 1.302-0.455 2-0.562v-9.435zM23.171 11.333h-4.504c-0.368 0-0.667-0.3-0.667-0.667v-4.505l5.171 5.172zM16 23.333c0-4.050-3.283-7.333-7.333-7.333s-7.333 3.283-7.333 7.333c0 4.050 3.283 7.333 7.333 7.333s7.333-3.283 7.333-7.333zM8.667 23.333h2.667c0.368 0 0.667 0.298 0.667 0.667s-0.298 0.667-0.667 0.667h-3.333c-0.368 0-0.667-0.299-0.667-0.667v-4c0-0.368 0.298-0.667 0.667-0.667s0.667 0.299 0.667 0.667v3.334z"></path>
</svg>
