<!-- Generated by IcoMoon.io -->
<svg version="1.1" xmlns="http://www.w3.org/2000/svg" width="32" height="32" viewBox="0 0 32 32">
<title>document-margins</title>
<path d="M10.333 20.667c-0.552 0-1-0.448-1-1v-7.333c0-0.552 0.448-1 1-1s1 0.448 1 1v7.333c0 0.552-0.448 1-1 1z"></path>
<path d="M21.667 20.667c-0.552 0-1-0.448-1-1v-7.333c0-0.552 0.448-1 1-1s1 0.448 1 1v7.333c0 0.552-0.448 1-1 1z"></path>
<path d="M5.333 6v20c0 1.841 1.492 3.333 3.333 3.333h14.667c1.841 0 3.333-1.492 3.333-3.333v-20c0-1.841-1.492-3.333-3.333-3.333h-14.667c-1.841 0-3.333 1.492-3.333 3.333zM22.667 4.667h0.667c0.736 0 1.333 0.597 1.333 1.333v20c0 0.736-0.597 1.333-1.333 1.333h-0.667v-3.667c0-0.552-0.448-1-1-1s-1 0.448-1 1v3.667h-9.333v-3.667c0-0.552-0.448-1-1-1s-1 0.448-1 1v3.667h-0.667c-0.736 0-1.333-0.597-1.333-1.333v-20c0-0.736 0.597-1.333 1.333-1.333h0.667v3.667c0 0.552 0.448 1 1 1s1-0.448 1-1v-3.667h9.333v3.667c0 0.552 0.448 1 1 1s1-0.448 1-1v-3.667z"></path>
</svg>
