<!-- Generated by IcoMoon.io -->
<svg version="1.1" xmlns="http://www.w3.org/2000/svg" width="32" height="32" viewBox="0 0 32 32">
<title>document-text-toolbox-regular</title>
<path d="M14.417 17.333c-0.356-0.892-1.024-1.596-1.865-1.991l-0.023-0.009h7.804c0.552 0 1 0.448 1 1s-0.448 1-1 1v0h-5.916zM15.455 19c0.819 0.397 1.449 1.12 1.727 2h3.152c0.552 0 1-0.448 1-1s-0.448-1-1-1v0h-4.879zM20.333 22.667h-3v2h3c0.552 0 1-0.448 1-1s-0.448-1-1-1v0zM7.333 5.333v9.667h-1c-0.347 0-0.683 0.048-1 0.139v-9.805c0-1.473 1.194-2.667 2.667-2.667v0h8.229c0.037 0 0.073 0.005 0.109 0.009 0.022 0.004 0.049 0.007 0.076 0.009l0.003 0c0.287 0.020 0.569 0.075 0.832 0.184 0.076 0.032 0.149 0.075 0.221 0.116l0.067 0.039 0.063 0.032c0.042 0.019 0.078 0.039 0.111 0.061l-0.003-0.002c0.104 0.071 0.197 0.155 0.292 0.24 0.014 0.013 0.030 0.026 0.046 0.039l0.002 0.001c0.024 0.017 0.046 0.035 0.066 0.054l-0-0 7.772 7.771c0.483 0.482 0.781 1.149 0.781 1.885v13.563c0 1.473-1.194 2.667-2.667 2.667v0h-6.733c0.044-0.216 0.067-0.439 0.067-0.667v-1.333h6.667c0.368 0 0.667-0.298 0.667-0.667v0-13.333h-6c-1.473 0-2.667-1.194-2.667-2.667v0-6h-8c-0.368 0-0.667 0.298-0.667 0.667v0zM23.171 11.333l-5.171-5.172v4.505c0 0.368 0.298 0.667 0.667 0.667v0h4.504zM4 20h-0.667c-1.105 0-2 0.895-2 2v0 2h3.333v-0.333c0-0.552 0.448-1 1-1s1 0.448 1 1v0 0.333h4v-0.333c0-0.552 0.448-1 1-1s1 0.448 1 1v0 0.333h3.333v-2c0-1.105-0.895-2-2-2v0h-0.667v-1.333c0-1.289-1.045-2.333-2.333-2.333v0h-4.667c-1.289 0-2.333 1.045-2.333 2.333v0 1.333zM6 18.667c0-0.184 0.149-0.333 0.333-0.333v0h4.667c0.184 0 0.333 0.149 0.333 0.333v0 1.333h-5.333v-1.333zM1.333 28.667v-2.667h3.333v1c0 0.552 0.448 1 1 1s1-0.448 1-1v0-1h4v1c0 0.552 0.448 1 1 1s1-0.448 1-1v0-1h3.333v2.667c0 1.105-0.895 2-2 2v0h-10.667c-1.105 0-2-0.895-2-2v0z"></path>
</svg>
