<!-- Generated by IcoMoon.io -->
<svg version="1.1" xmlns="http://www.w3.org/2000/svg" width="32" height="32" viewBox="0 0 32 32">
<title>document-sync</title>
<path d="M8 2c-1.657 0-3 1.343-3 3v0 10.204c0.574-0.339 1.238-0.629 1.937-0.836l0.063-0.016v-9.352c0-0.552 0.448-1 1-1v0h9v5c0 1.657 1.343 3 3 3v0h5v15c0 0.552-0.448 1-1 1v0h-7.015c-0.519 0.768-1.123 1.427-1.811 1.987l-0.017 0.013h8.843c1.657 0 3-1.343 3-3v0-16.172c-0-0.828-0.336-1.577-0.879-2.12l-5.828-5.83c-0.543-0.542-1.293-0.878-2.121-0.878-0 0-0 0-0 0h-10.172zM24.586 10h-4.586c-0.552 0-1-0.448-1-1v0-4.586l5.586 5.586zM17 23c0-4.142-3.358-7.5-7.5-7.5s-7.5 3.358-7.5 7.5v0c0 4.142 3.358 7.5 7.5 7.5s7.5-3.358 7.5-7.5v0zM14.25 23h-3c-0.414 0-0.75-0.336-0.75-0.75s0.336-0.75 0.75-0.75v0h0.849c-0.528-0.903-1.493-1.501-2.598-1.501-0.68 0-1.307 0.226-1.81 0.607l0.007-0.005c-0.23 0.172-0.534 0.231-0.79 0.104-0.493-0.247-0.635-0.89-0.204-1.232 0.76-0.607 1.735-0.974 2.796-0.974 1.732 0 3.235 0.978 3.987 2.412l0.012 0.025v-1.186c0-0.414 0.336-0.75 0.75-0.75s0.75 0.336 0.75 0.75v0 2.5c0 0.414-0.336 0.75-0.75 0.75v0zM12.076 25.576c0.335 0.335 0.338 0.886-0.054 1.151-0.707 0.484-1.581 0.773-2.522 0.773-1.732 0-3.235-0.978-3.988-2.413l-0.012-0.025v1.187c0 0.414-0.336 0.75-0.75 0.75s-0.75-0.336-0.75-0.75v0-2.5c0-0.414 0.336-0.75 0.75-0.75v0h3c0.414 0 0.75 0.336 0.75 0.75s-0.336 0.75-0.75 0.75v0h-0.849c0.528 0.903 1.493 1.501 2.598 1.501 0.603 0 1.164-0.178 1.634-0.484l-0.012 0.007c0.3-0.192 0.704-0.2 0.955 0.052z"></path>
</svg>
