<!-- Generated by IcoMoon.io -->
<svg version="1.1" xmlns="http://www.w3.org/2000/svg" width="32" height="32" viewBox="0 0 32 32">
<title>document-add-regular</title>
<path d="M7 5.5c0-0.644 0.523-1.167 1.167-1.167h7.833v5.833c0 1.381 1.119 2.5 2.5 2.5v0h6.5v13.833c0 0.644-0.522 1.167-1.167 1.167v0h-7.66c-0.369 0.632-0.784 1.178-1.256 1.67l0.003-0.003h8.913c1.565 0 2.833-1.269 2.833-2.833v0-14.224c-0-0.414-0.168-0.789-0.439-1.060l-8.109-8.111c-0.271-0.271-0.646-0.439-1.060-0.439-0 0-0 0-0.001 0h-8.891c-1.565 0-2.833 1.269-2.833 2.833v0 9.831c0.475-0.205 1.033-0.379 1.612-0.495l0.055-0.009v-9.327zM23.655 11h-5.155c-0.46 0-0.833-0.373-0.833-0.833v-5.155l5.988 5.988zM16 23.333c0 4.050-3.283 7.333-7.333 7.333s-7.333-3.283-7.333-7.333 3.283-7.333 7.333-7.333 7.333 3.283 7.333 7.333zM9.333 18.667c0-0.368-0.298-0.667-0.667-0.667s-0.667 0.298-0.667 0.667v0 4h-4c-0.368 0-0.667 0.298-0.667 0.667s0.298 0.667 0.667 0.667v0h4v4c0 0.368 0.298 0.667 0.667 0.667s0.667-0.298 0.667-0.667v0-4h4c0.368 0 0.667-0.298 0.667-0.667s-0.298-0.667-0.667-0.667v0h-4v-4z"></path>
</svg>
