<!-- Generated by IcoMoon.io -->
<svg version="1.1" xmlns="http://www.w3.org/2000/svg" width="32" height="32" viewBox="0 0 32 32">
<title>document-table-checkmark-regular</title>
<path d="M24 27.333h-7.643c-0.404 0.765-0.882 1.422-1.44 2.003l0.003-0.003h9.080c1.473 0 2.667-1.194 2.667-2.667v0-13.563c-0-0.736-0.299-1.403-0.781-1.885l-7.772-7.771c-0.020-0.018-0.041-0.036-0.063-0.052l-0.002-0.001c-0.018-0.014-0.034-0.027-0.049-0.041l0.001 0.001c-0.088-0.083-0.184-0.162-0.284-0.234l-0.008-0.006c-0.030-0.020-0.065-0.039-0.101-0.056l-0.005-0.002-0.064-0.032-0.067-0.039c-0.072-0.041-0.145-0.084-0.221-0.116-0.245-0.101-0.528-0.167-0.825-0.184l-0.007-0c-0.030-0.002-0.057-0.005-0.083-0.010l0.005 0.001c-0.032-0.005-0.070-0.009-0.109-0.009h-8.23c-1.473 0-2.667 1.194-2.667 2.667v0 9.997c0.577-0.249 1.25-0.445 1.951-0.556l0.049-0.006v-9.435c0-0.368 0.298-0.667 0.667-0.667v0h8v6c0 1.473 1.194 2.667 2.667 2.667v0h6v13.333c0 0.368-0.298 0.667-0.667 0.667v0zM23.171 11.333h-4.504c-0.368 0-0.667-0.298-0.667-0.667v0-4.505l5.171 5.172zM17.333 23.333c0 0.002 0 0.003 0 0.005 0 0.708-0.085 1.396-0.244 2.054l0.012-0.059h3.232c1.289 0 2.333-1.045 2.333-2.333v0-5.333c0-1.289-1.045-2.333-2.333-2.333v0h-8.328c1.328 0.565 2.443 1.402 3.317 2.448l0.011 0.014v-0.461h5c0.184 0 0.333 0.149 0.333 0.333v0 1.667h-4.309c0.325 0.627 0.577 1.296 0.744 2h3.565v1.667c0 0.184-0.149 0.333-0.333 0.333v0h-3zM16 23.333c0 4.050-3.283 7.333-7.333 7.333s-7.333-3.283-7.333-7.333v0c0-4.050 3.283-7.333 7.333-7.333s7.333 3.283 7.333 7.333v0zM13.139 20.195c-0.121-0.121-0.288-0.196-0.472-0.196s-0.351 0.075-0.472 0.196v0l-4.861 4.863-2.195-2.196c-0.121-0.121-0.288-0.195-0.472-0.195-0.369 0-0.667 0.299-0.667 0.668 0 0.184 0.075 0.351 0.196 0.472l2.667 2.667c0.121 0.121 0.288 0.196 0.472 0.196s0.351-0.075 0.472-0.196v0l5.333-5.333c0.121-0.121 0.196-0.288 0.196-0.472s-0.075-0.351-0.196-0.472v0z"></path>
</svg>
