<!-- Generated by IcoMoon.io -->
<svg version="1.1" xmlns="http://www.w3.org/2000/svg" width="32" height="32" viewBox="0 0 32 32">
<title>document-page-bottom-left</title>
<path d="M23.659 2.661c1.588 0 2.887 1.234 2.993 2.795l0.007 0.205v20.664c0 1.588-1.234 2.887-2.795 2.993l-0.205 0.007h-15.333c-1.588 0-2.888-1.234-2.993-2.795l-0.007-0.205v-20.664c0-1.588 1.234-2.888 2.795-2.993l0.205-0.007h15.333zM23.659 4.661h-15.333c-0.506 0-0.925 0.376-0.991 0.864l-0.009 0.136v20.664c0 0.506 0.376 0.925 0.864 0.991l0.136 0.009h15.333c0.506 0 0.925-0.376 0.991-0.864l0.009-0.136v-20.664c0-0.506-0.376-0.925-0.864-0.991l-0.136-0.009z"></path>
<path d="M14.692 26.536c-0.545-0.086-0.918-0.599-0.831-1.144l0.14-0.881h-1.975l-0.189 1.194c-0.086 0.545-0.599 0.918-1.144 0.831s-0.918-0.599-0.831-1.144l0.14-0.881h-1c-0.552 0-1-0.448-1-1s0.448-1 1-1h1.317l0.317-2h-0.967c-0.552 0-1-0.448-1-1s0.448-1 1-1h1.283l0.266-1.679c0.086-0.546 0.599-0.918 1.144-0.831s0.918 0.599 0.831 1.144l-0.216 1.366h1.975l0.266-1.679c0.086-0.546 0.599-0.918 1.144-0.831s0.918 0.599 0.831 1.144l-0.216 1.366h0.692c0.552 0 1 0.448 1 1s-0.448 1-1 1h-1.008l-0.317 2h0.658c0.552 0 1 0.448 1 1s-0.448 1-1 1h-0.975l-0.189 1.194c-0.086 0.545-0.599 0.918-1.144 0.831zM12.658 20.511l-0.317 2h1.975l0.317-2h-1.975z"></path>
</svg>
