<!-- Generated by IcoMoon.io -->
<svg version="1.1" xmlns="http://www.w3.org/2000/svg" width="32" height="32" viewBox="0 0 32 32">
<title>document-header</title>
<path d="M11.34 6.673c-1.105 0-2 0.896-2 2s0.895 2 2 2h9.333c1.105 0 2-0.896 2-2s-0.895-2-2-2h-9.333zM26.66 5.462c-0.106-1.561-1.405-2.795-2.993-2.795l-15.539 0.007c-1.561 0.106-2.795 1.405-2.795 2.993v20.666l0.007 0.205c0.106 1.561 1.405 2.795 2.993 2.795l15.539-0.007c1.561-0.106 2.795-1.405 2.795-2.993v-20.666l-0.007-0.205zM8.333 4.667l15.469 0.009c0.488 0.066 0.864 0.485 0.864 0.991v20.666l-0.009 0.136c-0.066 0.488-0.485 0.864-0.991 0.864l-15.469-0.009c-0.488-0.066-0.864-0.485-0.864-0.991v-20.666l0.009-0.136c0.066-0.488 0.485-0.864 0.991-0.864z"></path>
</svg>
