<!-- Generated by IcoMoon.io -->
<svg version="1.1" xmlns="http://www.w3.org/2000/svg" width="32" height="32" viewBox="0 0 32 32">
<title>document-text-regular</title>
<path d="M11.667 15.333c-0.552 0-1 0.448-1 1s0.448 1 1 1v0h8.667c0.552 0 1-0.448 1-1s-0.448-1-1-1v0h-8.667zM11.667 19c-0.552 0-1 0.448-1 1s0.448 1 1 1v0h8.667c0.552 0 1-0.448 1-1s-0.448-1-1-1v0h-8.667zM11.667 22.667c-0.552 0-1 0.448-1 1s0.448 1 1 1v0h8.667c0.552 0 1-0.448 1-1s-0.448-1-1-1v0h-8.667zM18.113 3.448l7.772 7.771c0.483 0.482 0.781 1.149 0.781 1.885v13.563c0 1.473-1.194 2.667-2.667 2.667v0h-16c-1.473 0-2.667-1.194-2.667-2.667v0-21.333c0-1.473 1.194-2.667 2.667-2.667v0h8.229c0.037 0 0.073 0.005 0.109 0.009 0.022 0.004 0.049 0.007 0.076 0.009l0.003 0c0.287 0.020 0.569 0.075 0.832 0.184 0.076 0.032 0.149 0.075 0.221 0.116l0.067 0.039 0.063 0.032c0.042 0.019 0.078 0.039 0.111 0.061l-0.003-0.002c0.104 0.071 0.197 0.155 0.292 0.24 0.014 0.013 0.030 0.026 0.046 0.039l0.002 0.001c0.024 0.017 0.046 0.035 0.066 0.054l-0-0zM24 27.333c0.368 0 0.667-0.298 0.667-0.667v0-13.333h-6c-1.473 0-2.667-1.194-2.667-2.667v0-6h-8c-0.368 0-0.667 0.298-0.667 0.667v0 21.333c0 0.368 0.298 0.667 0.667 0.667v0h16zM23.171 11.333l-5.171-5.172v4.505c0 0.368 0.298 0.667 0.667 0.667v0h4.504z"></path>
</svg>
