<!-- Generated by IcoMoon.io -->
<svg version="1.1" xmlns="http://www.w3.org/2000/svg" width="32" height="32" viewBox="0 0 32 32">
<title>document-one-page</title>
<path d="M23.667 2.668c1.588 0 2.887 1.234 2.993 2.795l0.007 0.205v20.664c0 1.588-1.234 2.888-2.795 2.993l-0.205 0.007h-15.333c-1.588 0-2.888-1.233-2.993-2.795l-0.007-0.205v-20.664c0-1.588 1.234-2.888 2.795-2.993l0.205-0.007h15.333zM23.667 4.668h-15.333c-0.506 0-0.925 0.376-0.991 0.864l-0.009 0.136v20.664c0 0.506 0.376 0.925 0.864 0.991l0.136 0.009h15.333c0.506 0 0.925-0.376 0.991-0.864l0.009-0.136v-20.664c0-0.506-0.376-0.925-0.864-0.991l-0.136-0.009z"></path>
<path d="M9.333 21c0-0.552 0.448-1 1-1h11.333c0.552 0 1 0.448 1 1s-0.448 1-1 1h-11.333c-0.552 0-1-0.448-1-1z"></path>
<path d="M9.333 10.333c0-0.552 0.448-1 1-1h11.333c0.552 0 1 0.448 1 1s-0.448 1-1 1h-11.333c-0.552 0-1-0.448-1-1z"></path>
<path d="M9.333 15.667c0-0.552 0.448-1 1-1h11.333c0.552 0 1 0.448 1 1s-0.448 1-1 1h-11.333c-0.552 0-1-0.448-1-1z"></path>
</svg>
