<!-- Generated by IcoMoon.io -->
<svg version="1.1" xmlns="http://www.w3.org/2000/svg" width="32" height="32" viewBox="0 0 32 32">
<title>document-table-cube-regular</title>
<path d="M22.667 17.667c0-1.289-1.045-2.333-2.333-2.333v0h-8.667c-0.557 0-1.069 0.196-1.471 0.521l2.957 1.479h0.18v0.091l0.797 0.399c0.485 0.243 0.893 0.593 1.203 1.016v-1.505h5c0.184 0 0.333 0.149 0.333 0.333v0 1.667h-5.035c0.221 0.449 0.341 0.951 0.341 1.471v0.529h4.693v1.667c0 0.184-0.149 0.333-0.333 0.333v0h-4.36v2h4.36c1.289 0 2.333-1.045 2.333-2.333v0-5.333zM15.82 27.333h8.18c0.368 0 0.667-0.298 0.667-0.667v0-13.333h-6c-1.473 0-2.667-1.194-2.667-2.667v0-6h-8c-0.368 0-0.667 0.298-0.667 0.667v0 9.867c-0.321 0.064-0.605 0.164-0.87 0.298l0.019-0.009-1.149 0.575v-10.731c0-1.473 1.194-2.667 2.667-2.667v0h8.229c0.037 0 0.073 0.005 0.109 0.009 0.022 0.004 0.049 0.007 0.076 0.009l0.003 0c0.287 0.020 0.569 0.075 0.832 0.184 0.076 0.032 0.149 0.075 0.221 0.116l0.067 0.039 0.063 0.032c0.042 0.019 0.078 0.039 0.111 0.061l-0.003-0.002c0.104 0.071 0.197 0.155 0.292 0.24 0.014 0.013 0.030 0.026 0.046 0.039l0.002 0.001c0.024 0.017 0.046 0.035 0.066 0.054l-0-0 7.772 7.771c0.483 0.482 0.781 1.149 0.781 1.885v13.563c0 1.473-1.194 2.667-2.667 2.667v0h-9.909l0.040-0.020c0.803-0.408 1.409-1.108 1.683-1.956l0.007-0.024zM18.667 11.333h4.504l-5.171-5.172v4.505c0 0.368 0.298 0.667 0.667 0.667v0zM1.307 26.331v-5.528c0.001-0.778 0.446-1.453 1.095-1.783l0.011-0.005 4.667-2.333c0.26-0.133 0.568-0.211 0.894-0.211s0.634 0.078 0.905 0.216l-0.011-0.005 4.667 2.333c0.661 0.335 1.106 1.010 1.107 1.788v5.528c-0 0.779-0.445 1.454-1.095 1.784l-0.011 0.005-4.667 2.333c-0.26 0.133-0.568 0.211-0.894 0.211s-0.634-0.078-0.905-0.216l0.011 0.005-4.667-2.333c-0.661-0.335-1.107-1.010-1.107-1.789v0zM3.377 20.936c-0.044 0.087-0.070 0.189-0.070 0.297 0 0.259 0.148 0.484 0.365 0.595l0.004 0.002 3.631 1.817v3.92c0 0.368 0.298 0.667 0.667 0.667s0.667-0.298 0.667-0.667v0-3.92l3.632-1.816c0.22-0.112 0.369-0.337 0.369-0.597 0-0.368-0.299-0.667-0.667-0.667-0.109 0-0.211 0.026-0.302 0.072l0.004-0.002-3.703 1.851-3.701-1.851c-0.087-0.044-0.189-0.070-0.297-0.070-0.26 0-0.484 0.148-0.595 0.365l-0.002 0.004z"></path>
</svg>
