<!-- Generated by IcoMoon.io -->
<svg version="1.1" xmlns="http://www.w3.org/2000/svg" width="32" height="32" viewBox="0 0 32 32">
<title>document-endnote</title>
<path d="M7.333 5.667c0-0.552 0.448-1 1-1h7.667v6c0 1.473 1.194 2.667 2.667 2.667h6v13c0 0.552-0.448 1-1 1h-6.333v2h6.333c1.657 0 3-1.343 3-3v-13.448c0-0.619-0.246-1.212-0.683-1.65l-7.886-7.886c-0.438-0.438-1.031-0.683-1.65-0.683h-8.114c-1.657 0-3 1.343-3 3v10.333h2v-10.333zM18 10.667v-4.586l5.252 5.252h-4.586c-0.368 0-0.667-0.298-0.667-0.667z"></path>
<path d="M6 18.333c0 0.552-0.448 1-1 1h-1.667v9.333h1.667c0.552 0 1 0.448 1 1s-0.448 1-1 1h-1.667c-1.105 0-2-0.895-2-2v-9.333c0-1.105 0.895-2 2-2h1.667c0.552 0 1 0.448 1 1z"></path>
<path d="M12.333 19.333c-0.552 0-1-0.448-1-1s0.448-1 1-1h1.667c1.105 0 2 0.895 2 2v9.333c0 1.105-0.895 2-2 2h-1.667c-0.552 0-1-0.448-1-1s0.448-1 1-1h1.667v-9.333h-1.667z"></path>
<path d="M8.667 22.333c0.552 0 1 0.448 1 1v4.667c0 0.552-0.448 1-1 1s-1-0.448-1-1v-4.667c0-0.552 0.448-1 1-1z"></path>
<path d="M8.667 21.333c0.552 0 1-0.448 1-1s-0.448-1-1-1c-0.552 0-1 0.448-1 1s0.448 1 1 1z"></path>
</svg>
