<!-- Generated by IcoMoon.io -->
<svg version="1.1" xmlns="http://www.w3.org/2000/svg" width="32" height="32" viewBox="0 0 32 32">
<title>document-edit</title>
<path d="M8.333 4.667c-0.552 0-1 0.448-1 1v20.667c0 0.552 0.448 1 1 1h5.039c-0.143 0.731 0.011 1.431 0.362 2h-5.401c-1.657 0-3-1.343-3-3v-20.667c0-1.657 1.343-3 3-3h8.114c0.619 0 1.212 0.246 1.65 0.683l7.886 7.886c0.438 0.438 0.683 1.031 0.683 1.65v0.448h-0.174c-0.147-0.007-0.295-0.007-0.443 0h-7.384c-1.473 0-2.667-1.194-2.667-2.667v-6h-7.667zM18 6.081v4.586c0 0.368 0.299 0.667 0.667 0.667h4.586l-5.252-5.252z"></path>
<path d="M26.284 14.667h0.003c0.779 0 1.559 0.298 2.153 0.893 1.19 1.19 1.19 3.12 0 4.31l-7.87 7.87c-0.459 0.459-1.034 0.784-1.663 0.942l-2.441 0.61c-1.061 0.265-2.023-0.696-1.758-1.758l0.61-2.441c0.157-0.63 0.483-1.205 0.942-1.663l7.87-7.87c0.595-0.595 1.374-0.892 2.154-0.893z"></path>
</svg>
