<!-- Generated by IcoMoon.io -->
<svg version="1.1" xmlns="http://www.w3.org/2000/svg" width="32" height="32" viewBox="0 0 32 32">
<title>document-landscape-split-regular</title>
<path d="M9.333 6.333c0-0.552 0.448-1 1-1v0h0.667c0.552 0 1 0.448 1 1s-0.448 1-1 1v0h-0.667c-0.552 0-1-0.448-1-1v0zM3.667 12.667c0.552 0 1 0.448 1 1v0 4.667c0 0.552-0.448 1-1 1s-1-0.448-1-1v0-4.667c0-0.552 0.448-1 1-1v0zM10.333 24.667c-0.552 0-1 0.448-1 1s0.448 1 1 1v0h0.667c0.552 0 1-0.448 1-1s-0.448-1-1-1v0h-0.667zM2.667 8c0-1.473 1.194-2.667 2.667-2.667v0h1c0.552 0 1 0.448 1 1s-0.448 1-1 1v0h-1c-0.368 0-0.667 0.298-0.667 0.667v0 1.667c0 0.552-0.448 1-1 1s-1-0.448-1-1v0-1.667zM5.333 26.667c-1.473 0-2.667-1.194-2.667-2.667v0-1.667c0-0.552 0.448-1 1-1s1 0.448 1 1v0 1.667c0 0.368 0.298 0.667 0.667 0.667v0h1c0.552 0 1 0.448 1 1s-0.448 1-1 1v0h-1zM14 7c0-0.92 0.747-1.667 1.667-1.667h3.448c0.619 0 1.212 0.245 1.649 0.684l7.885 7.885c0.439 0.437 0.684 1.031 0.684 1.649v8.448c0 1.473-1.194 2.667-2.667 2.667v0h-11c-0.92 0-1.667-0.747-1.667-1.667v-18zM16 7.333v17.333h10.667c0.368 0 0.667-0.298 0.667-0.667v0-8h-6c-1.473 0-2.667-1.194-2.667-2.667v0-6h-2.667zM20.667 8.747v4.587c0 0.368 0.298 0.667 0.667 0.667v0h4.587l-5.253-5.253z"></path>
</svg>
