<!-- Generated by IcoMoon.io -->
<svg version="1.1" xmlns="http://www.w3.org/2000/svg" width="32" height="32" viewBox="0 0 32 32">
<title>document-table-arrow-right-regular</title>
<path d="M24 27.333c0.368 0 0.667-0.298 0.667-0.667v0-13.333h-6c-1.473 0-2.667-1.194-2.667-2.667v0-6h-8c-0.368 0-0.667 0.298-0.667 0.667v0 9.435c-0.75 0.118-1.423 0.314-2.056 0.584l0.056-0.021v-9.997c0-1.473 1.194-2.667 2.667-2.667v0h8.229c0.037 0 0.073 0.005 0.109 0.009 0.022 0.004 0.049 0.007 0.076 0.009l0.003 0c0.287 0.020 0.569 0.075 0.832 0.184 0.076 0.032 0.149 0.075 0.221 0.116l0.067 0.039 0.063 0.032c0.042 0.019 0.078 0.039 0.111 0.061l-0.003-0.002c0.104 0.071 0.197 0.155 0.292 0.24 0.014 0.013 0.030 0.026 0.046 0.039l0.002 0.001c0.024 0.017 0.046 0.035 0.066 0.054l-0-0 7.772 7.771c0.483 0.482 0.781 1.149 0.781 1.885v13.563c0 1.473-1.194 2.667-2.667 2.667v0h-9.080c0.555-0.578 1.034-1.235 1.415-1.953l0.023-0.047h7.643zM23.171 11.333l-5.171-5.172v4.505c0 0.368 0.298 0.667 0.667 0.667v0h4.504zM17.333 23.333c0 0.002 0 0.003 0 0.005 0 0.708-0.085 1.396-0.244 2.054l0.012-0.059h3.232c1.289 0 2.333-1.045 2.333-2.333v0-5.333c0-1.289-1.045-2.333-2.333-2.333v0h-8.328c1.328 0.565 2.443 1.402 3.317 2.448l0.011 0.014v-0.461h5c0.184 0 0.333 0.149 0.333 0.333v0 1.667h-4.309c0.325 0.627 0.577 1.296 0.744 2h3.565v1.667c0 0.184-0.149 0.333-0.333 0.333v0h-3zM16 23.333c0 4.050-3.283 7.333-7.333 7.333s-7.333-3.283-7.333-7.333v0c0-4.050 3.283-7.333 7.333-7.333s7.333 3.283 7.333 7.333v0zM4.667 22.667c-0.368 0-0.667 0.298-0.667 0.667s0.298 0.667 0.667 0.667v0h6.391l-2.196 2.195c-0.121 0.121-0.195 0.288-0.195 0.472 0 0.369 0.299 0.668 0.668 0.668 0.184 0 0.351-0.075 0.472-0.195l3.333-3.333c0.121-0.121 0.196-0.288 0.196-0.472s-0.075-0.351-0.196-0.472v0l-3.333-3.333c-0.121-0.121-0.288-0.195-0.472-0.195-0.369 0-0.668 0.299-0.668 0.668 0 0.184 0.075 0.351 0.196 0.472v0l2.196 2.195h-6.391z"></path>
</svg>
