<!-- Generated by IcoMoon.io -->
<svg version="1.1" xmlns="http://www.w3.org/2000/svg" width="32" height="32" viewBox="0 0 32 32">
<title>document-heart-pulse</title>
<path d="M7.333 5.667c0-0.552 0.448-1 1-1h7.667v6c0 1.473 1.194 2.667 2.667 2.667h6v13c0 0.552-0.448 1-1 1h-8.693l-2 2h10.693c1.657 0 3-1.343 3-3v-13.448c0-0.619-0.246-1.212-0.683-1.65l-7.886-7.886c-0.438-0.438-1.031-0.683-1.65-0.683h-8.114c-1.657 0-3 1.343-3 3v9.267c0.665-0.088 1.341-0.068 2 0.061v-9.328zM23.252 11.333h-4.586c-0.368 0-0.667-0.298-0.667-0.667v-4.586l5.252 5.252zM4.163 19.035c1.096-1.096 2.873-1.096 3.968 0l0.537 0.537c0.391 0.391 1.024 0.391 1.414 0l0.489-0.489c1.096-1.096 2.873-1.096 3.968 0 0.616 0.616 0.885 1.446 0.809 2.25h2.005c0.073-1.317-0.394-2.658-1.4-3.664-1.805-1.805-4.689-1.874-6.576-0.207-1.886-1.716-4.808-1.663-6.63 0.159-1.018 1.018-1.484 2.38-1.397 3.712h2.007c-0.092-0.819 0.176-1.67 0.804-2.298zM7.159 26h-2.828l4.338 4.338c0.208 0.208 0.486 0.305 0.758 0.292 0.239-0.012 0.474-0.109 0.656-0.292l4.338-4.338h-2.829l-2.217 2.217-2.217-2.217zM7.499 20.445c-0.198-0.297-0.538-0.465-0.894-0.443s-0.673 0.232-0.832 0.551l-1.057 2.114h-2.382c-0.552 0-1 0.448-1 1s0.448 1 1 1h3c0.379 0 0.725-0.214 0.894-0.553l0.563-1.125 1.711 2.566c0.172 0.258 0.454 0.421 0.763 0.443s0.611-0.102 0.817-0.333l1.949-2.193 0.917 0.95c0.194 0.201 0.463 0.312 0.742 0.305l2.667-0.061c0.552-0.013 0.99-0.47 0.977-1.022s-0.47-0.99-1.022-0.977l-2.229 0.051-1.362-1.412c-0.193-0.201-0.462-0.311-0.74-0.305s-0.542 0.127-0.727 0.335l-1.806 2.032-1.948-2.922z"></path>
</svg>
