<!-- Generated by IcoMoon.io -->
<svg version="1.1" xmlns="http://www.w3.org/2000/svg" width="32" height="32" viewBox="0 0 32 32">
<title>document-bullet-list-off-regular</title>
<path d="M9.333 16.333c0-0.552 0.448-1 1-1s1 0.448 1 1v0c0 0.552-0.448 1-1 1s-1-0.448-1-1v0zM10.333 19.333c-0.552 0-1 0.448-1 1s0.448 1 1 1v0c0.552 0 1-0.448 1-1s-0.448-1-1-1v0zM9.333 24.333c0-0.552 0.448-1 1-1s1 0.448 1 1v0c0 0.552-0.448 1-1 1s-1-0.448-1-1v0zM5.333 6.747l-2.373-2.373c-0.196-0.183-0.318-0.443-0.318-0.732 0-0.552 0.448-1 1-1 0.289 0 0.549 0.122 0.731 0.318l0.001 0.001 24.667 24.667c0.166 0.178 0.268 0.418 0.268 0.682 0 0.552-0.448 1-1 1-0.264 0-0.504-0.102-0.682-0.269l0.001 0.001-1.221-1.22c-0.441 0.903-1.352 1.513-2.405 1.513-0 0-0 0-0 0h-16c-1.473 0-2.667-1.194-2.667-2.667v0-19.92zM24.667 26.081l-2.045-2.045c0.029 0.089 0.045 0.191 0.045 0.297 0 0.552-0.448 1-1 1h-7.333c-0.552 0-1-0.448-1-1s0.448-1 1-1v0h7.333c0.104 0 0.203 0.016 0.297 0.045l-2.045-2.045h-5.585c-0.552 0-1-0.448-1-1s0.448-1 1-1v0h3.587l-2-2h-1.587c-0.001 0-0.001 0-0.002 0-0.552 0-1-0.448-1-1 0-0.427 0.268-0.792 0.645-0.935l0.007-0.002-6.649-6.648v17.919c0 0.368 0.298 0.667 0.667 0.667v0h16c0.368 0 0.667-0.298 0.667-0.667v0-0.585zM16 10.667c0 0.656 0.237 1.256 0.631 1.72l0.315 0.316c0.465 0.393 1.067 0.631 1.721 0.631h6v7.091l2 2v-9.32c-0-0.736-0.299-1.403-0.781-1.885l-7.772-7.771c-0.020-0.018-0.041-0.036-0.063-0.052l-0.002-0.001c-0.018-0.014-0.034-0.027-0.049-0.041l0.001 0.001c-0.088-0.083-0.184-0.162-0.284-0.234l-0.008-0.006c-0.030-0.020-0.065-0.039-0.101-0.056l-0.005-0.002-0.064-0.032-0.067-0.039c-0.072-0.041-0.145-0.084-0.221-0.116-0.245-0.101-0.528-0.167-0.825-0.184l-0.007-0c-0.030-0.002-0.057-0.005-0.083-0.010l0.005 0.001c-0.032-0.005-0.070-0.009-0.109-0.009h-8.23c-0.325 0-0.637 0.059-0.925 0.165l1.835 1.835h7.091v6zM18 6.161l5.171 5.172h-4.504c-0.368 0-0.667-0.298-0.667-0.667v0-4.505zM21.667 15.333h-2.091l2 2h0.091c0.552 0 1-0.448 1-1s-0.448-1-1-1v0z"></path>
</svg>
