<!-- Generated by IcoMoon.io -->
<svg version="1.1" xmlns="http://www.w3.org/2000/svg" width="32" height="32" viewBox="0 0 32 32">
<title>document</title>
<path d="M8.167 2.667c-1.565 0-2.833 1.269-2.833 2.833v0 21c0 1.565 1.269 2.833 2.833 2.833v0h15.667c1.565 0 2.833-1.269 2.833-2.833v0-14.224c-0-0.414-0.168-0.789-0.439-1.060l-8.109-8.111c-0.271-0.271-0.646-0.439-1.060-0.439-0 0-0 0-0.001 0h-8.891zM7 5.5c0-0.644 0.523-1.167 1.167-1.167h7.833v5.833c0 1.381 1.119 2.5 2.5 2.5v0h6.5v13.833c0 0.644-0.522 1.167-1.167 1.167v0h-15.667c-0.644 0-1.167-0.522-1.167-1.167v0-21zM23.655 11h-5.155c-0.46 0-0.833-0.373-0.833-0.833v-5.155l5.988 5.988z"></path>
</svg>
