<!-- Generated by IcoMoon.io -->
<svg version="1.1" xmlns="http://www.w3.org/2000/svg" width="32" height="32" viewBox="0 0 32 32">
<title>document-queue-regular</title>
<path d="M11.667 6.667c-0.552 0-1 0.448-1 1s0.448 1 1 1v0h2c0.552 0 1-0.448 1-1s-0.448-1-1-1v0h-2zM10.667 11.667c0-0.552 0.448-1 1-1v0h2c0.552 0 1 0.448 1 1s-0.448 1-1 1v0h-2c-0.552 0-1-0.448-1-1v0zM11.667 14.667c-0.552 0-1 0.448-1 1s0.448 1 1 1v0h2c0.552 0 1-0.448 1-1s-0.448-1-1-1v0h-2zM6.667 5.333c0-1.473 1.194-2.667 2.667-2.667v0h8.309c0.736 0 1.403 0.299 1.885 0.781l5.024 5.024c0.483 0.482 0.781 1.149 0.781 1.885v12.309c0 1.473-1.194 2.667-2.667 2.667v0h-13.333c-1.473 0-2.667-1.194-2.667-2.667v0-17.333zM9.333 4.667c-0.368 0-0.667 0.298-0.667 0.667v0 17.333c0 0.368 0.298 0.667 0.667 0.667v0h13.333c0.368 0 0.667-0.298 0.667-0.667v0-11.333h-4.333c-1.289 0-2.333-1.045-2.333-2.333v0-4.333h-7.333zM18.667 5.413v3.587c0 0.184 0.149 0.333 0.333 0.333h3.587l-3.92-3.92zM4.667 21c0-0.552-0.448-1-1-1s-1 0.448-1 1v0 2.333c0 3.314 2.686 6 6 6v0h14.667c3.314 0 6-2.686 6-6v0-2.333c0-0.552-0.448-1-1-1s-1 0.448-1 1v0 2.333c0 2.209-1.791 4-4 4v0h-14.667c-2.209 0-4-1.791-4-4v0-2.333z"></path>
</svg>
