<!-- Generated by IcoMoon.io -->
<svg version="1.1" xmlns="http://www.w3.org/2000/svg" width="32" height="32" viewBox="0 0 32 32">
<title>document-sync</title>
<path d="M24.667 26.667c0 0.367-0.299 0.667-0.667 0.667h-7.643c-0.383 0.735-0.868 1.408-1.437 2h9.079c1.472 0 2.667-1.195 2.667-2.667v-13.563c0-0.707-0.281-1.385-0.781-1.885l-7.772-7.771c-0.020-0.020-0.043-0.037-0.065-0.054-0.017-0.013-0.033-0.025-0.048-0.039-0.095-0.085-0.188-0.169-0.292-0.24-0.034-0.023-0.071-0.041-0.107-0.059-0.021-0.010-0.043-0.021-0.063-0.032-0.022-0.013-0.044-0.025-0.067-0.038-0.072-0.042-0.145-0.084-0.221-0.116-0.263-0.109-0.545-0.164-0.832-0.184-0.026-0.002-0.052-0.005-0.078-0.009-0.036-0.005-0.072-0.010-0.11-0.010h-8.229c-1.472 0-2.667 1.195-2.667 2.667v9.998c0.632-0.264 1.302-0.455 2-0.562v-9.435c0-0.367 0.299-0.667 0.667-0.667h8v6c0 1.472 1.195 2.667 2.667 2.667h6v13.333zM18 6.161l5.171 5.172h-4.504c-0.368 0-0.667-0.3-0.667-0.667v-4.505zM1.333 23.333c0 4.050 3.283 7.333 7.333 7.333s7.333-3.283 7.333-7.333c0-4.050-3.283-7.333-7.333-7.333s-7.333 3.283-7.333 7.333zM12.667 18.667c0.368 0 0.667 0.299 0.667 0.667v2.667c0 0.368-0.298 0.667-0.667 0.667h-2.667c-0.368 0-0.667-0.299-0.667-0.667s0.298-0.667 0.667-0.667h1.334c-0.609-0.811-1.577-1.333-2.667-1.333-1.111 0-2.096 0.543-2.702 1.381-0.216 0.298-0.633 0.365-0.931 0.149s-0.365-0.633-0.149-0.931c0.847-1.17 2.225-1.933 3.782-1.933 1.306 0 2.487 0.537 3.333 1.401v-0.734c0-0.368 0.298-0.667 0.667-0.667zM5.333 26.599v0.734c0 0.368-0.298 0.667-0.667 0.667s-0.667-0.299-0.667-0.667v-2.667c0-0.368 0.298-0.667 0.667-0.667h2.667c0.368 0 0.667 0.299 0.667 0.667s-0.298 0.667-0.667 0.667h-1.334c0.609 0.811 1.577 1.333 2.667 1.333 1.022 0 1.936-0.459 2.548-1.184 0.238-0.281 0.658-0.317 0.939-0.079s0.317 0.658 0.079 0.939c-0.855 1.013-2.136 1.657-3.567 1.657-1.306 0-2.487-0.537-3.333-1.401z"></path>
</svg>
