<!-- Generated by IcoMoon.io -->
<svg version="1.1" xmlns="http://www.w3.org/2000/svg" width="32" height="32" viewBox="0 0 32 32">
<title>document-multiple</title>
<path d="M5.333 5.667c0-1.657 1.343-3 3-3h5.842c0.796 0 1.559 0.316 2.121 0.879l6.159 6.158c0.563 0.563 0.879 1.326 0.879 2.121v11.175c0 1.657-1.343 3-3 3h-12c-1.657 0-3-1.343-3-3v-17.333zM8.333 4.667c-0.552 0-1 0.448-1 1v17.333c0 0.552 0.448 1 1 1h12c0.552 0 1-0.448 1-1v-11.003h-4.328c-1.657 0-3-1.343-3-3v-4.33h-5.672zM16.005 6.083v2.914c0 0.552 0.448 1 1 1h2.914l-3.914-3.914zM8.839 27.333c0.412 1.165 1.523 2 2.829 2h8.667c3.498 0 6.333-2.835 6.333-6.333v-7.841c0-0.796-0.316-1.559-0.879-2.121l-1.121-1.121v11.084c0 2.393-1.94 4.333-4.333 4.333h-11.496z"></path>
</svg>
