<!-- Generated by IcoMoon.io -->
<svg version="1.1" xmlns="http://www.w3.org/2000/svg" width="32" height="32" viewBox="0 0 32 32">
<title>document-pdf</title>
<path d="M9 16c-0.552 0-1 0.448-1 1v0 5c0 0.552 0.448 1 1 1s1-0.448 1-1v0-1h0.5c1.381 0 2.5-1.119 2.5-2.5s-1.119-2.5-2.5-2.5v0h-1.5zM10.5 19h-0.5v-1h0.5c0.276 0 0.5 0.224 0.5 0.5s-0.224 0.5-0.5 0.5v0zM14 17c0-0.552 0.448-1 1-1v0h0.5c1.933 0 3.5 1.567 3.5 3.5s-1.567 3.5-3.5 3.5v0h-0.5c-0.552 0-1-0.448-1-1v0-5zM16 20.915c0.589-0.212 1.002-0.765 1.002-1.415s-0.413-1.203-0.992-1.412l-0.010-0.003v2.83zM20 22v-5c0-0.552 0.448-1 1-1v0h3c0.552 0 1 0.448 1 1s-0.448 1-1 1v0h-2v1h2c0.552 0 1 0.448 1 1s-0.448 1-1 1v0h-2v1c0 0.552-0.448 1-1 1s-1-0.448-1-1v0zM6 5v8h-1c-1.105 0-2 0.895-2 2v0 9c0 1.105 0.895 2 2 2v0h1v1c0 1.657 1.343 3 3 3v0h14c1.657 0 3-1.343 3-3v0-1h1c1.105 0 2-0.895 2-2v0-9c0-1.105-0.895-2-2-2v0h-1v-3.172c-0-0.828-0.336-1.577-0.879-2.12l-4.828-4.83c-0.543-0.542-1.293-0.878-2.121-0.878-0 0-0 0-0 0h-9.172c-1.657 0-3 1.343-3 3v0zM9 4h7v5c0 1.657 1.343 3 3 3v0h5v1h-16v-8c0-0.552 0.448-1 1-1v0zM8 27v-1h16v1c0 0.552-0.448 1-1 1v0h-14c-0.552 0-1-0.448-1-1v0zM24 9.828v0.172h-5c-0.552 0-1-0.448-1-1v0-5h0.172c0.276 0 0.526 0.112 0.707 0.293l4.828 4.828c0.181 0.181 0.293 0.431 0.293 0.707v0zM5 15h22v9h-22v-9z"></path>
</svg>
