<!-- Generated by IcoMoon.io -->
<svg version="1.1" xmlns="http://www.w3.org/2000/svg" width="32" height="32" viewBox="0 0 32 32">
<title>document-dismiss</title>
<path d="M8.667 16c4.050 0 7.333 3.283 7.333 7.333s-3.283 7.333-7.333 7.333v0c-4.050 0-7.333-3.283-7.333-7.333s3.283-7.333 7.333-7.333v0zM16.172 2.667c0.828 0 1.577 0.336 2.12 0.879l7.493 7.496c0.561 0.563 0.877 1.325 0.877 2.12v13.172c0 1.657-1.343 3-3 3v0h-8.743c0.568-0.591 1.053-1.264 1.436-1.999l7.307-0.001c0.552 0 1-0.448 1-1v0l-0.001-12.996h-5.661c-0 0-0 0-0 0-1.584 0-2.881-1.228-2.992-2.784l-0.001-0.010-0.007-0.205-0.001-5.672h-7.665c-0.552 0-1 0.448-1 1v0 9.103c-0.75 0.118-1.423 0.314-2.056 0.584l0.056-0.021v-9.665c0-1.657 1.343-3 3-3v0h7.839zM5.457 19.955l-0.093 0.077-0.076 0.093c-0.074 0.106-0.118 0.237-0.118 0.379s0.044 0.273 0.119 0.381l-0.001-0.002 0.077 0.093 2.36 2.359-2.357 2.355-0.076 0.093c-0.074 0.106-0.118 0.237-0.118 0.379s0.044 0.273 0.119 0.381l-0.001-0.002 0.076 0.093 0.093 0.076c0.106 0.074 0.237 0.118 0.379 0.118s0.273-0.044 0.381-0.119l-0.002 0.001 0.093-0.076 2.355-2.356 2.36 2.359 0.092 0.077c0.106 0.074 0.237 0.118 0.379 0.118s0.273-0.044 0.381-0.119l-0.002 0.001 0.093-0.077 0.076-0.093c0.074-0.106 0.118-0.237 0.118-0.379s-0.044-0.273-0.119-0.381l0.001 0.002-0.077-0.093-2.359-2.357 2.363-2.36 0.077-0.092c0.074-0.106 0.118-0.237 0.118-0.379s-0.044-0.273-0.12-0.381l0.001 0.002-0.077-0.092-0.092-0.077c-0.106-0.074-0.237-0.118-0.379-0.118s-0.273 0.044-0.382 0.12l0.002-0.001-0.092 0.077-2.363 2.36-2.36-2.36-0.091-0.077c-0.106-0.074-0.237-0.118-0.379-0.118s-0.273 0.044-0.381 0.12l0.002-0.001zM18 6.080l0.001 4.26c0 0.507 0.376 0.924 0.864 0.991l0.136 0.009 4.255-0.001-5.256-5.259z"></path>
</svg>
