<!-- Generated by IcoMoon.io -->
<svg version="1.1" xmlns="http://www.w3.org/2000/svg" width="32" height="32" viewBox="0 0 32 32">
<title>document-edit-regular</title>
<path d="M8.333 4.667c-0.552 0-1 0.448-1 1v0 20.667c0 0.552 0.448 1 1 1h5.040c-0.034 0.163-0.054 0.351-0.054 0.544 0 0.539 0.154 1.042 0.421 1.468l-0.007-0.012h-5.4c-1.657 0-3-1.343-3-3v0-20.667c0-1.657 1.343-3 3-3v0h8.115c0.619 0 1.212 0.245 1.649 0.684l7.885 7.885c0.439 0.437 0.684 1.031 0.684 1.649v0.448h-0.173c-0.066-0.004-0.143-0.006-0.221-0.006s-0.155 0.002-0.232 0.006l0.011-0h-7.384c-1.473 0-2.667-1.194-2.667-2.667v0-6h-7.667zM18 6.080v4.587c0 0.368 0.298 0.667 0.667 0.667v0h4.587l-5.253-5.253zM26.284 14.667h0.003c1.682 0.001 3.045 1.366 3.045 3.048 0 0.841-0.341 1.603-0.892 2.155l-7.869 7.869c-0.446 0.446-1.008 0.775-1.638 0.937l-0.025 0.005-2.441 0.609c-0.105 0.027-0.226 0.043-0.351 0.043-0.8 0-1.449-0.649-1.449-1.449 0-0.125 0.016-0.246 0.045-0.361l-0.002 0.010 0.609-2.44c0.157-0.631 0.483-1.205 0.943-1.664l7.869-7.869c0.55-0.552 1.311-0.893 2.151-0.893 0.001 0 0.001 0 0.002 0h-0z"></path>
</svg>
