<!-- Generated by IcoMoon.io -->
<svg version="1.1" xmlns="http://www.w3.org/2000/svg" width="32" height="32" viewBox="0 0 32 32">
<title>document</title>
<path d="M24.667 26.667c0 0.367-0.299 0.667-0.667 0.667h-16c-0.368 0-0.667-0.3-0.667-0.667v-21.333c0-0.367 0.299-0.667 0.667-0.667h8v6c0 1.472 1.195 2.667 2.667 2.667h6v13.333zM18 6.161l5.171 5.172h-4.504c-0.368 0-0.667-0.3-0.667-0.667v-4.505zM25.885 11.219l-7.772-7.771c-0.035-0.035-0.077-0.061-0.113-0.093-0.095-0.085-0.188-0.169-0.292-0.24-0.053-0.036-0.115-0.060-0.171-0.091-0.095-0.053-0.188-0.112-0.288-0.155-0.263-0.109-0.545-0.164-0.832-0.184-0.063-0.004-0.124-0.019-0.188-0.019h-8.229c-1.472 0-2.667 1.195-2.667 2.667v21.333c0 1.472 1.195 2.667 2.667 2.667h16c1.472 0 2.667-1.195 2.667-2.667v-13.563c0-0.707-0.281-1.385-0.781-1.885z"></path>
</svg>
