<!-- Generated by IcoMoon.io -->
<svg version="1.1" xmlns="http://www.w3.org/2000/svg" width="32" height="32" viewBox="0 0 32 32">
<title>document-toolbox</title>
<path d="M7.333 5.667c0-0.552 0.448-1 1-1h7.667v6c0 1.473 1.194 2.667 2.667 2.667h6v13c0 0.552-0.448 1-1 1h-6.333v2h6.333c1.657 0 3-1.343 3-3v-13.448c0-0.619-0.246-1.212-0.683-1.65l-7.886-7.886c-0.438-0.438-1.031-0.683-1.65-0.683h-8.114c-1.657 0-3 1.343-3 3v10.69c0.392-0.227 0.848-0.357 1.333-0.357h0.667v-10.333zM23.252 11.333h-4.586c-0.368 0-0.667-0.298-0.667-0.667v-4.586l5.252 5.252z"></path>
<path d="M5.333 21.333v-2c0-1.105 0.895-2 2-2h2.667c1.105 0 2 0.895 2 2v2h2c1.105 0 2 0.895 2 2v2h-4v-0.667c0-0.368-0.298-0.667-0.667-0.667s-0.667 0.299-0.667 0.667v0.667h-4v-0.667c0-0.368-0.298-0.667-0.667-0.667s-0.667 0.299-0.667 0.667v0.667h-4v-2c0-1.105 0.895-2 2-2h2zM6.667 19.333v2h4v-2c0-0.368-0.298-0.667-0.667-0.667h-2.667c-0.368 0-0.667 0.299-0.667 0.667z"></path>
<path d="M12 26.667h4v2c0 1.105-0.895 2-2 2h-10.667c-1.105 0-2-0.895-2-2v-2h4v0.667c0 0.368 0.298 0.667 0.667 0.667s0.667-0.299 0.667-0.667v-0.667h4v0.667c0 0.368 0.298 0.667 0.667 0.667s0.667-0.299 0.667-0.667v-0.667z"></path>
</svg>
