<!-- Generated by IcoMoon.io -->
<svg version="1.1" xmlns="http://www.w3.org/2000/svg" width="32" height="32" viewBox="0 0 32 32">
<title>document-multiple-prohibited</title>
<path d="M7.337 6.169l-0.004 2.831v5.769c-0.698 0.108-1.368 0.299-2 0.562v-6.331c0-1.308 0.837-2.42 2.004-2.831zM23.662 26.006h-6.749c0.207-0.637 0.341-1.307 0.394-2h6.355c0.552 0 1-0.448 1-1l-0.001-11.002-4.329 0.001c-1.588 0-2.887-1.234-2.993-2.795l-0.007-0.205-0.001-4.339h-5.663c-0.552 0-1 0.448-1 1v9.233c-0.642-0.152-1.312-0.232-2-0.233v-9c0-1.657 1.343-3 3-3h5.835c0.796 0 1.559 0.316 2.122 0.879l6.158 6.161c0.562 0.563 0.878 1.325 0.878 2.121v11.178c0 1.657-1.343 3-3 3zM19.333 6.081l0.001 2.924c0 0.506 0.376 0.925 0.864 0.991l0.136 0.009 2.921-0.001-3.921-3.923zM14.915 29.339c0.569-0.592 1.055-1.265 1.439-2l6.801 0c-0.412 1.165-1.523 2-2.829 2h-5.411zM16 23.333c0 4.050-3.283 7.333-7.333 7.333s-7.333-3.283-7.333-7.333c0-4.050 3.283-7.333 7.333-7.333s7.333 3.283 7.333 7.333zM3.333 23.333c0 1.111 0.34 2.143 0.921 2.998l7.409-7.409c-0.854-0.581-1.886-0.921-2.998-0.921-2.946 0-5.333 2.388-5.333 5.333zM8.667 28.667c2.946 0 5.333-2.388 5.333-5.333 0-1.111-0.34-2.143-0.921-2.998l-7.409 7.409c0.854 0.581 1.886 0.921 2.998 0.921z"></path>
</svg>
