<!-- Generated by IcoMoon.io -->
<svg version="1.1" xmlns="http://www.w3.org/2000/svg" width="32" height="32" viewBox="0 0 32 32">
<title>document-footer-dismiss</title>
<path d="M30.667 8.667c0 4.050-3.283 7.333-7.333 7.333s-7.333-3.283-7.333-7.333c0-4.050 3.283-7.333 7.333-7.333s7.333 3.283 7.333 7.333zM21.138 5.529c-0.26-0.26-0.683-0.26-0.943 0s-0.26 0.682 0 0.943l2.195 2.195-2.195 2.195c-0.26 0.26-0.26 0.682 0 0.943s0.683 0.26 0.943 0l2.195-2.195 2.195 2.195c0.26 0.26 0.683 0.26 0.943 0s0.26-0.682 0-0.943l-2.195-2.195 2.195-2.195c0.26-0.26 0.26-0.682 0-0.943s-0.683-0.26-0.943 0l-2.195 2.195-2.195-2.195zM24.66 26.325v-9.093c0.698-0.107 1.368-0.297 2-0.561v9.653c0 1.588-1.234 2.887-2.795 2.993l-0.205 0.007h-15.333c-1.588 0-2.888-1.234-2.993-2.795l-0.007-0.205v-20.664c0-1.588 1.234-2.888 2.795-2.993l0.205-0.007h8.758c-0.569 0.592-1.055 1.265-1.439 2h-7.319c-0.506 0-0.925 0.376-0.991 0.864l-0.009 0.136v20.664c0 0.506 0.376 0.925 0.864 0.991l0.136 0.009h15.333c0.506 0 0.925-0.376 0.991-0.864l0.009-0.136zM11.334 21.333c-1.105 0-2 0.895-2 2s0.895 2 2 2h9.333c1.105 0 2-0.895 2-2s-0.895-2-2-2h-9.333z"></path>
</svg>
