<!-- Generated by IcoMoon.io -->
<svg version="1.1" xmlns="http://www.w3.org/2000/svg" width="32" height="32" viewBox="0 0 32 32">
<title>document-landscape-data</title>
<path d="M13.333 12c0-1.473 1.194-2.667 2.667-2.667s2.667 1.194 2.667 2.667v8c0 1.473-1.194 2.667-2.667 2.667s-2.667-1.194-2.667-2.667v-8zM16 11.333c-0.368 0-0.667 0.298-0.667 0.667v8c0 0.368 0.299 0.667 0.667 0.667s0.667-0.299 0.667-0.667v-8c0-0.368-0.299-0.667-0.667-0.667z"></path>
<path d="M6.667 18.667c0-1.473 1.194-2.667 2.667-2.667s2.667 1.194 2.667 2.667v1.333c0 1.473-1.194 2.667-2.667 2.667s-2.667-1.194-2.667-2.667v-1.333zM10 18.667c0-0.368-0.298-0.667-0.667-0.667s-0.667 0.299-0.667 0.667v1.333c0 0.368 0.298 0.667 0.667 0.667s0.667-0.299 0.667-0.667v-1.333z"></path>
<path d="M22.667 13.333c-1.473 0-2.667 1.194-2.667 2.667v4c0 1.473 1.194 2.667 2.667 2.667s2.667-1.194 2.667-2.667v-4c0-1.473-1.194-2.667-2.667-2.667zM23.333 16v4c0 0.368-0.299 0.667-0.667 0.667s-0.667-0.299-0.667-0.667v-4c0-0.368 0.299-0.667 0.667-0.667s0.667 0.299 0.667 0.667z"></path>
<path d="M2.667 9c0-2.025 1.642-3.667 3.667-3.667h19.333c2.025 0 3.667 1.642 3.667 3.667v14c0 2.025-1.642 3.667-3.667 3.667h-19.333c-2.025 0-3.667-1.642-3.667-3.667v-14zM6.333 7.333c-0.92 0-1.667 0.746-1.667 1.667v14c0 0.921 0.746 1.667 1.667 1.667h19.333c0.921 0 1.667-0.746 1.667-1.667v-14c0-0.92-0.746-1.667-1.667-1.667h-19.333z"></path>
</svg>
