<!-- Generated by IcoMoon.io -->
<svg version="1.1" xmlns="http://www.w3.org/2000/svg" width="32" height="32" viewBox="0 0 32 32">
<title>document-settings-regular</title>
<path d="M9.6 3.2c-1.767 0-3.2 1.433-3.2 3.2v0 6.731c0.462-0.137 1.006-0.241 1.565-0.293l0.035-0.003v-6.435c0-0.884 0.716-1.6 1.6-1.6v0h6.4v5.6c0 1.325 1.075 2.4 2.4 2.4v0h5.6v12.8c0 0.884-0.716 1.6-1.6 1.6v0h-6.811c-0.504 0.607-1.072 1.134-1.701 1.582l-0.027 0.018h8.539c1.767 0 3.2-1.433 3.2-3.2v0-13.738c-0.001-0.662-0.27-1.262-0.704-1.696l-6.262-6.264c-0.434-0.434-1.034-0.702-1.696-0.702h-7.338zM23.669 11.2h-5.269c-0.442 0-0.8-0.358-0.8-0.8v0-5.269l6.069 6.069zM4.904 16.707c0.076 0.259 0.119 0.557 0.119 0.865 0 1.486-1.012 2.735-2.385 3.095l-0.022 0.005-0.739 0.189c-0.023 0.222-0.036 0.479-0.036 0.739 0 0.312 0.019 0.62 0.056 0.923l-0.004-0.036 0.56 0.133c1.423 0.345 2.464 1.608 2.464 3.114 0 0.327-0.049 0.642-0.14 0.939l0.006-0.023-0.203 0.675c0.413 0.326 0.859 0.605 1.336 0.829l0.52-0.55c0.585-0.618 1.411-1.003 2.326-1.003 0.917 0 1.745 0.386 2.328 1.005l0.001 0.002 0.539 0.573c0.467-0.216 0.909-0.483 1.315-0.797l-0.25-0.89c-0.076-0.26-0.119-0.558-0.119-0.866 0-1.486 1.012-2.735 2.385-3.095l0.022-0.005 0.736-0.187c0.023-0.222 0.036-0.479 0.036-0.74 0-0.313-0.019-0.621-0.056-0.924l0.004 0.036-0.557-0.131c-1.423-0.345-2.464-1.608-2.464-3.114 0-0.327 0.049-0.643 0.14-0.94l-0.006 0.023 0.202-0.675c-0.388-0.309-0.827-0.586-1.295-0.811l-0.041-0.018-0.52 0.55c-0.585 0.619-1.411 1.004-2.327 1.004s-1.744-0.386-2.327-1.004l-0.001-0.002-0.539-0.573c-0.501 0.234-0.932 0.499-1.329 0.807l0.016-0.012 0.25 0.891zM8.798 23.2c-0.884 0-1.6-0.716-1.6-1.6s0.716-1.6 1.6-1.6v0c0.884 0 1.6 0.716 1.6 1.6s-0.716 1.6-1.6 1.6v0z"></path>
</svg>
