<!-- Generated by IcoMoon.io -->
<svg version="1.1" xmlns="http://www.w3.org/2000/svg" width="32" height="32" viewBox="0 0 32 32">
<title>document-queue-add-regular</title>
<path d="M9.333 2.667c-1.473 0-2.667 1.194-2.667 2.667v0 17.333c0 1.473 1.194 2.667 2.667 2.667v0h5.565c-0.147-0.599-0.232-1.287-0.232-1.995 0-0.002 0-0.004 0-0.005v0h-5.333c-0.368 0-0.667-0.298-0.667-0.667v0-17.333c0-0.368 0.298-0.667 0.667-0.667v0h7.333v4.333c0 1.288 1.045 2.333 2.333 2.333h4.333v3.333c0.688 0 1.357 0.080 2 0.232v-4.541c-0-0.736-0.299-1.403-0.781-1.885l-5.024-5.024c-0.482-0.483-1.149-0.781-1.885-0.781h-8.309zM18.667 9v-3.587l3.92 3.92h-3.587c-0.184 0-0.333-0.149-0.333-0.333v0zM8.667 27.333h6.976c0.404 0.765 0.882 1.422 1.44 2.003l-0.003-0.003h-8.413c-3.314 0-6-2.686-6-6v0-2.333c0-0.552 0.448-1 1-1s1 0.448 1 1v0 2.333c0 2.209 1.791 4 4 4v0zM10.667 7.667c0-0.552 0.448-1 1-1v0h2c0.552 0 1 0.448 1 1s-0.448 1-1 1v0h-2c-0.552 0-1-0.448-1-1v0zM11.667 10.667c-0.552 0-1 0.448-1 1s0.448 1 1 1v0h2c0.552 0 1-0.448 1-1s-0.448-1-1-1v0h-2zM11.667 14.667c-0.552 0-1 0.448-1 1s0.448 1 1 1v0h2c0.552 0 1-0.448 1-1s-0.448-1-1-1v0h-2zM30.667 23.333c0-4.050-3.283-7.333-7.333-7.333s-7.333 3.283-7.333 7.333v0c0 4.050 3.283 7.333 7.333 7.333s7.333-3.283 7.333-7.333v0zM24 24l0.001 3.337c0 0.368-0.298 0.667-0.667 0.667s-0.667-0.298-0.667-0.667v0-3.337h-3.34c-0.368 0-0.667-0.298-0.667-0.667s0.298-0.667 0.667-0.667v0h3.339v-3.333c0-0.368 0.298-0.667 0.667-0.667s0.667 0.298 0.667 0.667v0 3.333h3.329c0.368 0 0.667 0.298 0.667 0.667s-0.298 0.667-0.667 0.667v0h-3.329z"></path>
</svg>
