<!-- Generated by IcoMoon.io -->
<svg version="1.1" xmlns="http://www.w3.org/2000/svg" width="32" height="32" viewBox="0 0 32 32">
<title>document-page-break</title>
<path d="M3.333 16c0-0.552 0.448-1 1-1h2c0.552 0 1 0.448 1 1s-0.448 1-1 1h-2c-0.552 0-1-0.448-1-1z"></path>
<path d="M8.667 16c0-0.552 0.448-1 1-1h2c0.552 0 1 0.448 1 1s-0.448 1-1 1h-2c-0.552 0-1-0.448-1-1z"></path>
<path d="M14 16c0-0.552 0.448-1 1-1h2c0.552 0 1 0.448 1 1s-0.448 1-1 1h-2c-0.552 0-1-0.448-1-1z"></path>
<path d="M19.333 16c0-0.552 0.448-1 1-1h2c0.552 0 1 0.448 1 1s-0.448 1-1 1h-2c-0.552 0-1-0.448-1-1z"></path>
<path d="M24.667 16c0-0.552 0.448-1 1-1h2c0.552 0 1 0.448 1 1s-0.448 1-1 1h-2c-0.552 0-1-0.448-1-1z"></path>
<path d="M6.333 2.667c-0.552 0-1 0.448-1 1v5.667c0 1.472 1.195 2.667 2.667 2.667h16c1.472 0 2.667-1.195 2.667-2.667v-5.667c0-0.552-0.448-1-1-1s-1 0.448-1 1v5.667c0 0.367-0.299 0.667-0.667 0.667h-16c-0.368 0-0.667-0.3-0.667-0.667v-5.667c0-0.552-0.448-1-1-1z"></path>
<path d="M25.667 29.333c0.552 0 1-0.448 1-1v-5.667c0-1.472-1.195-2.667-2.667-2.667h-16c-1.472 0-2.667 1.195-2.667 2.667v5.667c0 0.552 0.448 1 1 1s1-0.448 1-1v-5.667c0-0.367 0.299-0.667 0.667-0.667h16c0.368 0 0.667 0.3 0.667 0.667v5.667c0 0.552 0.448 1 1 1z"></path>
</svg>
