<!-- Generated by IcoMoon.io -->
<svg version="1.1" xmlns="http://www.w3.org/2000/svg" width="32" height="32" viewBox="0 0 32 32">
<title>document-text-link</title>
<path d="M24 27.333c0.368 0 0.667-0.298 0.667-0.667v0-13.333h-6c-1.473 0-2.667-1.194-2.667-2.667v0-6h-8c-0.368 0-0.667 0.298-0.667 0.667v0 13.333h-1c-0.34 0-0.675 0.027-1 0.079v-13.412c0-1.473 1.194-2.667 2.667-2.667v0h8.229c0.037 0 0.073 0.005 0.109 0.009 0.027 0.004 0.053 0.008 0.079 0.009 0.287 0.020 0.569 0.075 0.832 0.184 0.076 0.032 0.149 0.075 0.221 0.116l0.067 0.039 0.063 0.032c0.042 0.019 0.078 0.039 0.111 0.061l-0.003-0.002c0.104 0.071 0.197 0.155 0.292 0.24 0.014 0.013 0.030 0.026 0.046 0.039l0.002 0.001c0.024 0.017 0.046 0.035 0.066 0.054l-0-0 7.772 7.771c0.483 0.482 0.781 1.149 0.781 1.885v13.563c0 1.473-1.194 2.667-2.667 2.667v0h-8.381c0.541-0.576 0.975-1.253 1.271-2h7.111zM23.171 11.333l-5.171-5.172v4.505c0 0.368 0.298 0.667 0.667 0.667v0h4.504zM13.033 19c1.139 0.387 2.133 1.087 2.877 2h4.423c0.552 0 1-0.448 1-1s-0.448-1-1-1v0h-7.3zM16.889 22.667c0.248 0.624 0.4 1.297 0.435 2h3.009c0.552 0 1-0.448 1-1s-0.448-1-1-1v0h-3.444zM11.667 15.333c-0.552 0-1 0.448-1 1s0.448 1 1 1v0h8.667c0.552 0 1-0.448 1-1s-0.448-1-1-1v0h-8.667zM16 25c0-2.761-2.239-5-5-5v0l-0.136 0.009c-0.491 0.069-0.864 0.486-0.864 0.991 0 0.552 0.448 1 1 1h0l0.205 0.007c1.569 0.108 2.8 1.407 2.8 2.993 0 1.657-1.343 3-3 3-0.002 0-0.004 0-0.006 0h0l-0.004 0.007-0.136 0.009c-0.491 0.069-0.864 0.486-0.864 0.991 0 0.552 0.448 1 1 1 0.003 0 0.006 0 0.008-0h-0v-0.007l0.267-0.007c2.642-0.148 4.729-2.326 4.729-4.993 0-0 0-0 0-0.001v0zM7.333 21c0-0.552-0.448-1-1-1v0l-0.267 0.007c-2.648 0.141-4.742 2.323-4.742 4.993 0 2.761 2.239 5 5 5 0.003 0 0.006 0 0.009 0h-0l0.136-0.009c0.491-0.069 0.864-0.486 0.864-0.991 0-0.552-0.448-1-1-1h-0l-0.205-0.007c-1.569-0.108-2.8-1.407-2.8-2.993 0-1.657 1.343-3 3-3 0.002 0 0.004 0 0.006 0h-0l0.136-0.009c0.491-0.069 0.864-0.486 0.864-0.991v0zM12 25c0-0.552-0.448-1-1-1v0h-4.667l-0.136 0.009c-0.491 0.069-0.864 0.486-0.864 0.991 0 0.552 0.448 1 1 1h4.667l0.136-0.009c0.491-0.069 0.864-0.486 0.864-0.991v0z"></path>
</svg>
