<!-- Generated by IcoMoon.io -->
<svg version="1.1" xmlns="http://www.w3.org/2000/svg" width="32" height="32" viewBox="0 0 32 32">
<title>document-header-arrow-down</title>
<path d="M11.34 6.672c-1.105 0-2 0.895-2 2s0.895 2 2 2v0h9.333c1.105 0 2-0.895 2-2s-0.895-2-2-2v0h-9.333zM26.66 5.461c-0.111-1.566-1.408-2.795-2.993-2.795-0 0-0 0-0 0l-15.539 0.007c-1.566 0.111-2.795 1.408-2.795 2.993 0 0 0 0 0 0v-0 20.667l0.007 0.205c0.111 1.566 1.408 2.795 2.993 2.795 0 0 0 0 0 0h8.747c-0.555-0.578-1.034-1.235-1.415-1.953l-0.023-0.047h-7.309l-0.136-0.009c-0.491-0.069-0.864-0.486-0.864-0.991v0-20.667l0.009-0.136c0.069-0.491 0.486-0.864 0.991-0.864l15.469 0.009c0.491 0.069 0.864 0.486 0.864 0.991v0 9.101c0.697 0.108 1.368 0.299 2 0.563v-9.664l-0.007-0.205zM30.667 23.333c0 4.050-3.283 7.333-7.333 7.333s-7.333-3.283-7.333-7.333v0c0-4.050 3.283-7.333 7.333-7.333s7.333 3.283 7.333 7.333v0zM24 19.333c0-0.368-0.298-0.667-0.667-0.667s-0.667 0.298-0.667 0.667v0 6.391l-2.195-2.196c-0.121-0.121-0.288-0.195-0.472-0.195-0.369 0-0.668 0.299-0.668 0.668 0 0.184 0.075 0.351 0.195 0.472l3.333 3.333c0.121 0.121 0.288 0.196 0.472 0.196s0.351-0.075 0.472-0.196v0l3.333-3.333c0.121-0.121 0.195-0.288 0.195-0.472 0-0.369-0.299-0.668-0.668-0.668-0.184 0-0.351 0.075-0.472 0.195l-2.195 2.196v-6.391z"></path>
</svg>
