<!-- Generated by IcoMoon.io -->
<svg version="1.1" xmlns="http://www.w3.org/2000/svg" width="32" height="32" viewBox="0 0 32 32">
<title>document-mention-regular</title>
<path d="M8.167 2.667c-1.565 0-2.833 1.269-2.833 2.833v0 10.955c0.481-0.176 1.044-0.314 1.627-0.389l0.040-0.004v-10.562c0-0.644 0.523-1.167 1.167-1.167h7.833v5.833c0 1.381 1.119 2.5 2.5 2.5v0h6.5v13.833c0 0.644-0.522 1.167-1.167 1.167v0h-8.852c-0.734 0.82-1.796 1.334-2.977 1.334-0.040 0-0.080-0.001-0.12-0.002l0.006 0c0.039 0.111 0.067 0.223 0.086 0.335h11.857c1.565 0 2.833-1.269 2.833-2.833v0-14.224c-0-0.414-0.168-0.789-0.439-1.060l-8.109-8.111c-0.271-0.271-0.646-0.439-1.060-0.439-0 0-0 0-0.001 0h-8.891zM23.655 11h-5.155c-0.46 0-0.833-0.373-0.833-0.833v-5.155l5.988 5.988zM14.664 23.813c-0.099-3.595-3.044-6.48-6.664-6.48-3.682 0-6.667 2.985-6.667 6.667s2.985 6.667 6.667 6.667c0.767 0 1.516-0.129 2.225-0.38 0.261-0.094 0.444-0.34 0.444-0.629 0-0.368-0.299-0.667-0.667-0.667-0.080 0-0.156 0.014-0.227 0.040l0.005-0.001c-0.53 0.194-1.142 0.306-1.779 0.306-2.946 0-5.333-2.388-5.333-5.333s2.388-5.333 5.333-5.333c2.945 0 5.332 2.387 5.333 5.332v0l0.001 0.983-0.004 0.116c-0.051 0.695-0.627 1.239-1.33 1.239-0.736 0-1.333-0.597-1.333-1.333 0-0.002 0-0.004 0-0.006v0-3.667l-0.005-0.078c-0.042-0.331-0.322-0.585-0.662-0.585-0.33 0-0.604 0.239-0.657 0.554l-0.001 0.004c-0.461-0.35-1.044-0.561-1.676-0.562h-0c-1.677 0-3 1.5-3 3.311s1.323 3.311 3 3.311c0.802 0 1.523-0.343 2.057-0.899 0.476 0.772 1.317 1.278 2.277 1.278 1.467 0 2.658-1.185 2.667-2.65v-1.018l-0.003-0.187zM7.667 22l0.1 0.003c0.849 0.061 1.555 0.893 1.567 1.949l-0.003 0.147c-0.053 1.051-0.796 1.855-1.663 1.855-0.9 0-1.667-0.868-1.667-1.977s0.767-1.978 1.667-1.978z"></path>
</svg>
