<!-- Generated by IcoMoon.io -->
<svg version="1.1" xmlns="http://www.w3.org/2000/svg" width="32" height="32" viewBox="0 0 32 32">
<title>document-pill</title>
<path d="M7.333 5.667c0-0.552 0.448-1 1-1h7.667v6c0 1.473 1.194 2.667 2.667 2.667h6v1.907c0.638-0.268 1.319-0.402 2-0.402v-1.953c0-0.619-0.246-1.212-0.683-1.65l-7.886-7.886c-0.438-0.438-1.031-0.683-1.65-0.683h-8.114c-1.657 0-3 1.343-3 3v20.667c0 1.657 1.343 3 3 3h7.245c-0.375-0.62-0.607-1.303-0.698-2h-6.548c-0.552 0-1-0.448-1-1v-20.667zM23.252 11.333h-4.586c-0.368 0-0.667-0.298-0.667-0.667v-4.586l5.252 5.252zM29.374 17.293c-1.495-1.495-3.919-1.495-5.414 0l-6.667 6.667c-1.495 1.495-1.495 3.919 0 5.414s3.919 1.495 5.414 0l6.667-6.667c1.495-1.495 1.495-3.919 0-5.414zM25.374 18.707c0.714-0.714 1.872-0.714 2.586 0s0.714 1.872 0 2.586l-2.626 2.626-2.586-2.586 2.626-2.626zM22.707 25.293c0.391 0.391 0.391 1.024 0 1.414l-1.333 1.333c-0.391 0.391-1.024 0.391-1.414 0s-0.391-1.024 0-1.414l1.333-1.333c0.391-0.391 1.024-0.391 1.414 0z"></path>
</svg>
