<!-- Generated by IcoMoon.io -->
<svg version="1.1" xmlns="http://www.w3.org/2000/svg" width="32" height="32" viewBox="0 0 32 32">
<title>document-heart-pulse-regular</title>
<path d="M7.333 5.667c0-0.552 0.448-1 1-1v0h7.667v6c0 1.473 1.194 2.667 2.667 2.667v0h6v13c0 0.552-0.448 1-1 1v0h-8.693l-2 2h10.693c1.657 0 3-1.343 3-3v0-13.448c0-0.619-0.245-1.212-0.684-1.649l-7.885-7.885c-0.422-0.422-1.005-0.684-1.649-0.684h-8.115c-1.657 0-3 1.343-3 3v0 9.267c0.244-0.034 0.527-0.054 0.813-0.054 0.42 0 0.83 0.042 1.226 0.122l-0.040-0.007v-9.328zM23.253 11.333h-4.587c-0.368 0-0.667-0.298-0.667-0.667v0-4.587l5.253 5.253zM4.161 19.035c0.508-0.508 1.21-0.822 1.985-0.822s1.477 0.314 1.985 0.822l0.537 0.537c0.181 0.181 0.431 0.292 0.707 0.292s0.526-0.112 0.707-0.292v0l0.489-0.489c0.508-0.509 1.21-0.824 1.986-0.824 1.55 0 2.807 1.257 2.807 2.807 0 0.094-0.005 0.187-0.014 0.279l0.001-0.012h2.005c0.005-0.079 0.007-0.172 0.007-0.266 0-2.655-2.152-4.807-4.807-4.807-1.221 0-2.335 0.455-3.183 1.205l0.005-0.004c-0.85-0.773-1.985-1.247-3.23-1.247-2.655 0-4.807 2.152-4.807 4.807 0 0.11 0.004 0.219 0.011 0.327l-0.001-0.015h2.007c-0.011-0.095-0.018-0.205-0.018-0.317 0-0.774 0.314-1.475 0.822-1.982l0-0zM7.16 26h-2.829l4.336 4.339c0.181 0.182 0.431 0.294 0.707 0.294s0.527-0.112 0.707-0.294l4.339-4.339h-2.827l-2.217 2.217-2.217-2.217zM7.5 20.445c-0.182-0.27-0.487-0.446-0.832-0.446-0.389 0-0.726 0.222-0.892 0.547l-0.003 0.006-1.059 2.115h-2.381c-0.552 0-1 0.448-1 1s0.448 1 1 1v0h3c0.389-0.001 0.726-0.223 0.891-0.548l0.003-0.006 0.564-1.125 1.711 2.567c0.182 0.27 0.487 0.445 0.832 0.445 0.297 0 0.564-0.13 0.747-0.335l0.001-0.001 1.949-2.193 0.916 0.951c0.182 0.189 0.438 0.307 0.721 0.307 0.008 0 0.015-0 0.023-0l-0.001 0 2.667-0.061c0.543-0.013 0.978-0.456 0.978-1 0-0.552-0.448-1-1-1-0.008 0-0.016 0-0.024 0l0.001-0-2.228 0.051-1.363-1.411c-0.182-0.188-0.437-0.305-0.719-0.305-0.297 0-0.564 0.129-0.747 0.335l-0.001 0.001-1.807 2.032-1.948-2.923z"></path>
</svg>
