<!-- Generated by IcoMoon.io -->
<svg version="1.1" xmlns="http://www.w3.org/2000/svg" width="32" height="32" viewBox="0 0 32 32">
<title>document-percent-regular</title>
<path d="M24.667 26.667c0 0.368-0.298 0.667-0.667 0.667v0h-6.667c0 0.716-0.16 1.393-0.449 2h7.116c1.473 0 2.667-1.194 2.667-2.667v0-13.563c-0-0.736-0.299-1.403-0.781-1.885l-7.772-7.771c-0.020-0.018-0.041-0.036-0.063-0.052l-0.002-0.001c-0.018-0.014-0.034-0.027-0.049-0.041l0.001 0.001c-0.088-0.083-0.184-0.162-0.284-0.234l-0.008-0.006c-0.030-0.020-0.065-0.039-0.101-0.056l-0.005-0.002-0.064-0.032-0.067-0.039c-0.072-0.041-0.145-0.084-0.221-0.116-0.245-0.101-0.528-0.167-0.825-0.184l-0.007-0c-0.030-0.002-0.057-0.005-0.083-0.010l0.005 0.001c-0.032-0.005-0.070-0.009-0.109-0.009h-8.23c-1.473 0-2.667 1.194-2.667 2.667v0 9.38c0.758 0.111 1.435 0.39 2.015 0.799l-0.015-0.010v-10.169c0-0.368 0.298-0.667 0.667-0.667v0h8v6c0 1.473 1.194 2.667 2.667 2.667v0h6v13.333zM18 6.161l5.171 5.172h-4.504c-0.368 0-0.667-0.298-0.667-0.667v0-4.505zM8 19.333c0 1.841-1.492 3.333-3.333 3.333s-3.333-1.492-3.333-3.333v0c0-1.841 1.492-3.333 3.333-3.333s3.333 1.492 3.333 3.333v0zM6 19.333c0-0.736-0.597-1.333-1.333-1.333s-1.333 0.597-1.333 1.333v0c0 0.736 0.597 1.333 1.333 1.333s1.333-0.597 1.333-1.333v0zM16 27.333c0 1.841-1.492 3.333-3.333 3.333s-3.333-1.492-3.333-3.333v0c0-1.841 1.492-3.333 3.333-3.333s3.333 1.492 3.333 3.333v0zM14 27.333c0-0.736-0.597-1.333-1.333-1.333s-1.333 0.597-1.333 1.333v0c0 0.736 0.597 1.333 1.333 1.333s1.333-0.597 1.333-1.333v0zM14.373 17.627c0.181 0.181 0.292 0.431 0.292 0.707s-0.112 0.526-0.292 0.707v0l-10 10c-0.178 0.166-0.418 0.268-0.682 0.268-0.552 0-1-0.448-1-1 0-0.264 0.102-0.504 0.269-0.682l-0.001 0.001 10-10c0.181-0.181 0.431-0.292 0.707-0.292s0.526 0.112 0.707 0.292v0z"></path>
</svg>
