<!-- Generated by IcoMoon.io -->
<svg version="1.1" xmlns="http://www.w3.org/2000/svg" width="32" height="32" viewBox="0 0 32 32">
<title>document-page-bottom-left</title>
<path d="M23.66 2.661c0 0 0 0 0 0 1.585 0 2.882 1.229 2.992 2.785l0.001 0.010 0.007 0.205v20.664c0 0 0 0 0 0 0 1.585-1.229 2.882-2.785 2.992l-0.010 0.001-0.205 0.007h-15.333c-0 0-0 0-0 0-1.585 0-2.882-1.229-2.992-2.785l-0.001-0.010-0.007-0.205v-20.664c0-0 0-0 0-0 0-1.585 1.229-2.882 2.785-2.992l0.010-0.001 0.205-0.007h15.333zM23.66 4.661h-15.333c-0.504 0-0.921 0.373-0.99 0.859l-0.001 0.005-0.009 0.136v20.664c0 0.507 0.376 0.925 0.864 0.991l0.136 0.009h15.333c0.504-0 0.921-0.373 0.99-0.859l0.001-0.005 0.009-0.136v-20.664c-0-0.504-0.373-0.921-0.859-0.99l-0.005-0.001-0.136-0.009zM14.692 26.536c-0.481-0.079-0.843-0.491-0.843-0.988 0-0.055 0.004-0.109 0.013-0.162l-0.001 0.006 0.139-0.881h-1.973l-0.189 1.193c-0.090 0.467-0.496 0.815-0.983 0.815-0.552 0-1-0.448-1-1 0-0.045 0.003-0.089 0.009-0.133l-0.001 0.005 0.139-0.881h-1c-0.552 0-1-0.448-1-1s0.448-1 1-1v0h1.317l0.316-2h-0.968c-0.552 0-1-0.448-1-1s0.448-1 1-1v0h1.284l0.267-1.68c0.059-0.501 0.481-0.887 0.994-0.887 0.552 0 1 0.448 1 1 0 0.071-0.007 0.14-0.021 0.207l0.001-0.006-0.215 1.367h1.973l0.267-1.68c0.078-0.481 0.491-0.844 0.988-0.844 0.552 0 1 0.448 1 1 0 0.055-0.005 0.11-0.013 0.162l0.001-0.006-0.216 1.367h0.691c0.552 0 1 0.448 1 1s-0.448 1-1 1v0h-1.008l-0.316 2h0.657c0.552 0 1 0.448 1 1s-0.448 1-1 1v0h-0.973l-0.191 1.193c-0.078 0.481-0.491 0.844-0.988 0.844-0.055 0-0.109-0.004-0.162-0.013l0.006 0.001zM12.659 20.509l-0.316 2h1.973l0.317-2h-1.973z"></path>
</svg>
