<!-- Generated by IcoMoon.io -->
<svg version="1.1" xmlns="http://www.w3.org/2000/svg" width="32" height="32" viewBox="0 0 32 32">
<title>document-copy-regular</title>
<path d="M7.667 6.917v15.583c0 2.485 2.015 4.5 4.5 4.5v0h10.249c-0.456 0.991-1.44 1.667-2.582 1.667-0 0-0 0-0 0h-7.667c-3.406 0-6.167-2.761-6.167-6.167v0-13c0-0 0-0 0-0.001 0-1.142 0.676-2.126 1.649-2.575l0.018-0.007zM17.171 3.333c0 0 0 0 0 0 0.782 0 1.491 0.317 2.004 0.83l5.995 5.995c0.513 0.513 0.83 1.221 0.83 2.004 0 0 0 0 0 0v-0 10.338c0 1.565-1.269 2.833-2.833 2.833v0h-11c-1.565 0-2.833-1.269-2.833-2.833v0-16.333c0-1.565 1.269-2.833 2.833-2.833v0h5.005zM16.667 5h-4.5c-0.644 0-1.167 0.522-1.167 1.167v0 16.333c0 0.645 0.523 1.167 1.167 1.167h11c0.644 0 1.167-0.522 1.167-1.167v0-9.833h-4.833c-1.517 0-2.755-1.191-2.83-2.689l-0-0.007-0.003-0.137v-4.833zM23.655 11l-5.321-5.321v4.155c0 0.611 0.469 1.112 1.067 1.162l0.004 0 0.095 0.004h4.155z"></path>
</svg>
