<!-- Generated by IcoMoon.io -->
<svg version="1.1" xmlns="http://www.w3.org/2000/svg" width="32" height="32" viewBox="0 0 32 32">
<title>document-multiple-prohibited-regular</title>
<path d="M7.337 6.169l-0.004 2.831v5.768c-0.75 0.118-1.423 0.314-2.056 0.584l0.056-0.021v-6.331c0-1.307 0.836-2.42 2.004-2.831zM23.663 26.005h-6.749c0.207-0.637 0.341-1.307 0.395-2h6.355c0.552 0 1-0.448 1-1v0-11.001h-4.329c-0 0-0 0-0 0-1.584 0-2.881-1.228-2.992-2.784l-0.001-0.010-0.007-0.205v-4.339h-5.665c-0.552 0-1 0.448-1 1v0 9.233c-0.601-0.148-1.29-0.233-2-0.233h-0v-9c0-1.657 1.343-3 3-3 0 0 0.001 0 0.001 0h5.835c0.796 0 1.56 0.316 2.123 0.88l6.157 6.16c0.563 0.563 0.879 1.327 0.879 2.121v11.177c0 1.657-1.343 3-3 3v0zM19.332 6.081l0.001 2.924c0 0.507 0.376 0.924 0.864 0.991l0.136 0.009 2.92-0.001-3.92-3.923zM14.915 29.339c0.557-0.578 1.036-1.235 1.417-1.953l0.023-0.047h6.8c-0.425 1.175-1.531 2-2.829 2h-5.411zM16 23.333c0 4.050-3.283 7.333-7.333 7.333s-7.333-3.283-7.333-7.333v0c0-4.050 3.283-7.333 7.333-7.333s7.333 3.283 7.333 7.333v0zM3.333 23.333c0 1.112 0.34 2.144 0.921 2.997l7.409-7.409c-0.84-0.577-1.878-0.922-2.997-0.922-2.946 0-5.333 2.388-5.333 5.333 0 0 0 0 0 0.001v-0zM8.667 28.667c0 0 0 0 0.001 0 2.946 0 5.333-2.388 5.333-5.333 0-1.119-0.345-2.158-0.934-3.015l0.012 0.018-7.409 7.409c0.837 0.577 1.872 0.921 2.988 0.921 0.003 0 0.006 0 0.010 0h-0.001z"></path>
</svg>
