<!-- Generated by IcoMoon.io -->
<svg version="1.1" xmlns="http://www.w3.org/2000/svg" width="32" height="32" viewBox="0 0 32 32">
<title>document-heart-regular</title>
<path d="M24 27.333c0.368 0 0.667-0.298 0.667-0.667v0-13.333h-6c-1.473 0-2.667-1.194-2.667-2.667v0-6h-8c-0.368 0-0.667 0.298-0.667 0.667v0 9.747c-0.389-0.090-0.836-0.142-1.295-0.142-0.249 0-0.494 0.015-0.734 0.045l0.029-0.003v-9.647c0-1.473 1.194-2.667 2.667-2.667v0h8.229c0.037 0 0.073 0.005 0.109 0.009 0.027 0.004 0.053 0.008 0.080 0.009 0.285 0.020 0.568 0.075 0.831 0.184 0.077 0.032 0.149 0.075 0.221 0.116l0.067 0.039 0.064 0.032c0.042 0.019 0.076 0.039 0.11 0.061l-0.003-0.002c0.104 0.071 0.197 0.155 0.293 0.24 0.013 0.013 0.031 0.027 0.048 0.040 0.024 0.017 0.045 0.035 0.064 0.054l7.773 7.77c0.482 0.482 0.78 1.149 0.78 1.885 0 0 0 0.001 0 0.001v-0 13.563c0 1.473-1.194 2.667-2.667 2.667v0h-11.347l2-2h9.347zM23.171 11.333l-5.171-5.172v4.505c0 0.368 0.298 0.667 0.667 0.667v0h4.504zM8.645 30.040c0.181 0.182 0.431 0.295 0.707 0.295s0.527-0.113 0.707-0.295l5.877-5.877c0.867-0.841 1.405-2.017 1.405-3.319 0-2.553-2.070-4.623-4.623-4.623-1.301 0-2.477 0.538-3.317 1.403l-0.001 0.001-0.048 0.048-0.048-0.048c-0.838-0.848-2.001-1.372-3.287-1.372-2.553 0-4.623 2.070-4.623 4.623 0 1.286 0.525 2.449 1.372 3.287l5.878 5.878z"></path>
</svg>
