<!-- Generated by IcoMoon.io -->
<svg version="1.1" xmlns="http://www.w3.org/2000/svg" width="32" height="32" viewBox="0 0 32 32">
<title>document-split-hint-off</title>
<path d="M4.374 2.96c-0.391-0.391-1.024-0.391-1.414 0s-0.391 1.024 0 1.414l2.374 2.374v8.252c0 0.552 0.448 1 1 1s1-0.448 1-1v-6.252l17.334 17.334v0.585c0 0.368-0.299 0.667-0.667 0.667h-1.667c-0.552 0-1 0.448-1 1s0.448 1 1 1h1.667c1.060 0 1.975-0.618 2.405-1.514l1.221 1.221c0.39 0.391 1.024 0.391 1.414 0s0.391-1.024 0-1.414l-2.649-2.649c-0.011-0.012-0.023-0.024-0.035-0.035l-21.983-21.983zM16 10.667c0 0.657 0.238 1.259 0.633 1.724l0.309 0.309c0.465 0.395 1.067 0.633 1.724 0.633h6v1.667c0 0.552 0.448 1 1 1s1-0.448 1-1v-2c0-0.057-0.005-0.112-0.014-0.166-0.062-0.608-0.332-1.179-0.768-1.615l-7.772-7.771c-0.020-0.020-0.043-0.037-0.065-0.054-0.017-0.013-0.033-0.025-0.048-0.039-0.095-0.085-0.188-0.169-0.292-0.24-0.034-0.023-0.071-0.041-0.107-0.059-0.021-0.010-0.043-0.021-0.063-0.032-0.022-0.013-0.044-0.025-0.067-0.038-0.072-0.042-0.145-0.084-0.221-0.116-0.263-0.109-0.545-0.164-0.832-0.184-0.026-0.002-0.052-0.005-0.078-0.009-0.036-0.005-0.072-0.010-0.11-0.010h-8.229c-0.325 0-0.637 0.058-0.926 0.165l1.835 1.835h7.091v6zM18 6.161l5.171 5.172h-4.504c-0.368 0-0.667-0.3-0.667-0.667v-4.505zM24.667 20.425l1.815 1.815c0.117-0.163 0.185-0.364 0.185-0.58v-3.327c0-0.552-0.448-1-1-1s-1 0.448-1 1v2.092zM6.333 17.333c0.552 0 1 0.448 1 1v3.327c0 0.552-0.448 1-1 1s-1-0.448-1-1v-3.327c0-0.552 0.448-1 1-1zM13.667 27.333c-0.552 0-1 0.448-1 1s0.448 1 1 1h4.667c0.552 0 1-0.448 1-1s-0.448-1-1-1h-4.667zM6.333 24.667c0.552 0 1 0.448 1 1v1c0 0.368 0.298 0.667 0.667 0.667h1.667c0.552 0 1 0.448 1 1s-0.448 1-1 1h-1.667c-1.473 0-2.667-1.194-2.667-2.667v-1c0-0.552 0.448-1 1-1z"></path>
</svg>
