<!-- Generated by IcoMoon.io -->
<svg version="1.1" xmlns="http://www.w3.org/2000/svg" width="32" height="32" viewBox="0 0 32 32">
<title>document-table-search-regular</title>
<path d="M20.16 15.36c1.236 0 2.24 1.004 2.24 2.24v5.12c0 1.237-1.003 2.24-2.24 2.24v0h-6.112l-0.064-0.064c0.471-0.943 0.736-2.010 0.736-3.136 0-1.507-0.474-2.903-1.28-4.049v-0.431h-0.329c-0.588-0.709-1.299-1.293-2.103-1.726l-0.038-0.018c0.268-0.113 0.561-0.175 0.869-0.175h8.32zM15.36 21.12v1.92h4.8c0.177 0 0.32-0.143 0.32-0.32v0-1.6h-5.12zM20.48 19.2v-1.6c0-0.177-0.143-0.32-0.32-0.32v0h-4.8v1.92h5.12zM23.68 26.88h-7.712l0.655 0.657c0.356 0.355 0.567 0.801 0.634 1.263h6.423c1.414 0 2.56-1.146 2.56-2.56v0-13.020c-0-0.707-0.287-1.347-0.75-1.81l-7.461-7.46c-0.019-0.018-0.039-0.034-0.061-0.050l-0.002-0.001c-0.017-0.013-0.032-0.026-0.047-0.039l0.001 0.001c-0.085-0.080-0.176-0.156-0.272-0.225l-0.008-0.005c-0.029-0.019-0.062-0.038-0.097-0.054l-0.005-0.002-0.061-0.031-0.064-0.037c-0.069-0.040-0.14-0.081-0.212-0.111-0.235-0.097-0.507-0.16-0.792-0.176l-0.007-0c-0.029-0.002-0.054-0.005-0.080-0.010l0.004 0.001c-0.031-0.005-0.067-0.008-0.104-0.009h-7.901c-1.414 0-2.56 1.146-2.56 2.56v0 9.225c0.573-0.168 1.232-0.265 1.913-0.265 0.002 0 0.005 0 0.007 0h-0v-8.96c0-0.353 0.287-0.64 0.64-0.64v0h7.68v5.76c0 1.414 1.146 2.56 2.56 2.56v0h5.76v12.8c0 0.353-0.287 0.64-0.64 0.64v0zM22.884 11.52h-4.324c-0.353 0-0.64-0.287-0.64-0.64v0-4.325l4.964 4.965zM7.68 27.52c0.002 0 0.005 0 0.008 0 1.249 0 2.404-0.399 3.346-1.077l-0.017 0.012 3.345 3.343c0.176 0.188 0.425 0.306 0.702 0.306 0.53 0 0.96-0.43 0.96-0.96 0-0.277-0.117-0.527-0.305-0.702l-0.001-0-3.343-3.345c0.666-0.927 1.065-2.086 1.065-3.337 0-3.181-2.579-5.76-5.76-5.76s-5.76 2.579-5.76 5.76c0 3.181 2.579 5.76 5.76 5.76v0zM7.68 25.6c-2.121 0-3.84-1.719-3.84-3.84s1.719-3.84 3.84-3.84v0c2.121 0 3.84 1.719 3.84 3.84s-1.719 3.84-3.84 3.84v0z"></path>
</svg>
