<!-- Generated by IcoMoon.io -->
<svg version="1.1" xmlns="http://www.w3.org/2000/svg" width="32" height="32" viewBox="0 0 32 32">
<title>document-question-mark</title>
<path d="M24.667 26.667c0 0.367-0.299 0.667-0.667 0.667h-7.643c-0.383 0.735-0.868 1.408-1.437 2h9.079c1.472 0 2.667-1.195 2.667-2.667v-13.563c0-0.707-0.281-1.385-0.781-1.885l-7.772-7.771c-0.020-0.020-0.043-0.037-0.065-0.054-0.017-0.013-0.033-0.025-0.048-0.039-0.095-0.085-0.188-0.169-0.292-0.24-0.034-0.023-0.071-0.041-0.107-0.059-0.021-0.010-0.043-0.021-0.063-0.032-0.022-0.013-0.044-0.025-0.067-0.038-0.072-0.042-0.145-0.084-0.221-0.116-0.263-0.109-0.545-0.164-0.832-0.184-0.026-0.002-0.052-0.005-0.078-0.009-0.036-0.005-0.072-0.010-0.11-0.010h-8.229c-1.472 0-2.667 1.195-2.667 2.667v9.998c0.632-0.264 1.302-0.455 2-0.562v-9.435c0-0.367 0.299-0.667 0.667-0.667h8v6c0 1.472 1.195 2.667 2.667 2.667h6v13.333zM18 6.161l5.171 5.172h-4.504c-0.368 0-0.667-0.3-0.667-0.667v-4.505zM1.333 23.333c0 4.050 3.283 7.333 7.333 7.333s7.333-3.283 7.333-7.333c0-4.050-3.283-7.333-7.333-7.333s-7.333 3.283-7.333 7.333zM7.667 27.667c0-0.552 0.448-1 1-1s1 0.448 1 1c0 0.552-0.448 1-1 1s-1-0.448-1-1zM6 21.333c0-1.473 1.194-2.667 2.667-2.667s2.667 1.194 2.667 2.667c0 0.974-0.282 1.52-1.005 2.277l-0.352 0.359-0.155 0.167c-0.378 0.424-0.488 0.703-0.488 1.197 0 0.368-0.298 0.667-0.667 0.667s-0.667-0.299-0.667-0.667c0-0.974 0.282-1.52 1.005-2.277l0.352-0.359 0.155-0.167c0.378-0.424 0.488-0.703 0.488-1.197 0-0.736-0.597-1.333-1.333-1.333s-1.333 0.597-1.333 1.333c0 0.368-0.298 0.667-0.667 0.667s-0.667-0.299-0.667-0.667z"></path>
</svg>
