<!-- Generated by IcoMoon.io -->
<svg version="1.1" xmlns="http://www.w3.org/2000/svg" width="32" height="32" viewBox="0 0 32 32">
<title>document-landscape</title>
<path d="M5.333 7.333c-0.367 0-0.667 0.299-0.667 0.667v16c0 0.368 0.3 0.667 0.667 0.667h21.333c0.367 0 0.667-0.299 0.667-0.667v-8h-6c-1.472 0-2.667-1.195-2.667-2.667v-6h-13.333zM25.839 14l-5.172-5.171v4.504c0 0.368 0.3 0.667 0.667 0.667h4.505zM20.781 6.115l7.771 7.772c0.035 0.035 0.061 0.077 0.093 0.113 0.085 0.095 0.169 0.188 0.24 0.292 0.036 0.053 0.060 0.115 0.091 0.171 0.053 0.095 0.112 0.188 0.155 0.288 0.109 0.263 0.164 0.545 0.184 0.832 0.004 0.063 0.019 0.124 0.019 0.188v8.229c0 1.472-1.195 2.667-2.667 2.667h-21.333c-1.472 0-2.667-1.195-2.667-2.667v-16c0-1.472 1.195-2.667 2.667-2.667h13.563c0.707 0 1.385 0.281 1.885 0.781z"></path>
</svg>
