<!-- Generated by IcoMoon.io -->
<svg version="1.1" xmlns="http://www.w3.org/2000/svg" width="32" height="32" viewBox="0 0 32 32">
<title>document-one-page-regular</title>
<path d="M23.667 2.667c0 0 0 0 0 0 1.585 0 2.882 1.229 2.992 2.785l0.001 0.010 0.007 0.205v20.664c0 0 0 0 0 0 0 1.585-1.229 2.882-2.785 2.992l-0.010 0.001-0.205 0.007h-15.333c-0 0-0 0-0 0-1.585 0-2.882-1.229-2.992-2.785l-0.001-0.010-0.007-0.205v-20.664c0-0 0-0 0-0 0-1.585 1.229-2.882 2.785-2.992l0.010-0.001 0.205-0.007h15.333zM23.667 4.667h-15.333c-0.504 0-0.921 0.373-0.99 0.859l-0.001 0.005-0.009 0.136v20.664c0 0.507 0.376 0.925 0.864 0.991l0.136 0.009h15.333c0.504-0 0.921-0.373 0.99-0.859l0.001-0.005 0.009-0.136v-20.664c-0-0.504-0.373-0.921-0.859-0.99l-0.005-0.001-0.136-0.009zM9.333 20.999c0-0.552 0.448-1 1-1v0h11.333c0.552 0 1 0.448 1 1s-0.448 1-1 1v0h-11.333c-0.552 0-1-0.448-1-1v0zM9.333 10.332c0-0.552 0.448-1 1-1v0h11.333c0.552 0 1 0.448 1 1s-0.448 1-1 1v0h-11.333c-0.552 0-1-0.448-1-1v0zM9.333 15.665c0-0.552 0.448-1 1-1v0h11.333c0.552 0 1 0.448 1 1s-0.448 1-1 1v0h-11.333c-0.552 0-1-0.448-1-1v0z"></path>
</svg>
