<!-- Generated by IcoMoon.io -->
<svg version="1.1" xmlns="http://www.w3.org/2000/svg" width="32" height="32" viewBox="0 0 32 32">
<title>document-data</title>
<path d="M13 22c0-0.552-0.448-1-1-1s-1 0.448-1 1v0 3c0 0.552 0.448 1 1 1s1-0.448 1-1v0-3zM16 15c0.552 0 1 0.448 1 1v0 9c0 0.552-0.448 1-1 1s-1-0.448-1-1v0-9c0-0.552 0.448-1 1-1v0zM21 19c0-0.552-0.448-1-1-1s-1 0.448-1 1v0 6c0 0.552 0.448 1 1 1s1-0.448 1-1v0-6zM5 5c0-1.657 1.343-3 3-3v0h10.172c0.828 0 1.577 0.336 2.12 0.879l5.83 5.828c0.543 0.543 0.878 1.293 0.878 2.121 0 0 0 0 0 0v-0 16.172c0 1.657-1.343 3-3 3v0h-16c-1.657 0-3-1.343-3-3v0-22zM8 4c-0.552 0-1 0.448-1 1v0 22c0 0.552 0.448 1 1 1v0h16c0.552 0 1-0.448 1-1v0-15h-5c-1.657 0-3-1.343-3-3v0-5h-9zM20 10h4.586l-5.586-5.586v4.586c0 0.552 0.448 1 1 1v0z"></path>
</svg>
