<!-- Generated by IcoMoon.io -->
<svg version="1.1" xmlns="http://www.w3.org/2000/svg" width="32" height="32" viewBox="0 0 32 32">
<title>document-header-dismiss</title>
<path d="M23.661 2.667c1.584 0.001 2.881 1.229 2.991 2.785l0.001 0.010 0.008 0.205v9.664c-0.578-0.248-1.25-0.443-1.951-0.554l-0.049-0.006v-9.104c-0-0.504-0.373-0.921-0.859-0.99l-0.005-0.001-0.136-0.009h-15.328c-0.504 0-0.921 0.373-0.99 0.859l-0.001 0.005-0.009 0.136v20.66c0 0.507 0.376 0.924 0.864 0.991l0.135 0.008h7.311c0.381 0.735 0.867 1.408 1.433 2h-8.745c-1.583-0.001-2.879-1.228-2.99-2.782l-0.001-0.010-0.007-0.207v-20.66c0-0 0-0 0-0 0-1.584 1.228-2.881 2.784-2.992l0.010-0.001 0.207-0.007h15.329zM11.339 6.672c-1.082 0.029-1.948 0.913-1.948 1.999s0.866 1.97 1.946 1.999l0.003 0h9.331c1.105 0 2-0.895 2-2s-0.895-2-2-2v0h-9.331zM30.667 23.333c0 4.050-3.283 7.333-7.333 7.333s-7.333-3.283-7.333-7.333v0c0-4.050 3.283-7.333 7.333-7.333s7.333 3.283 7.333 7.333v0zM21.139 20.195c-0.121-0.121-0.288-0.195-0.472-0.195-0.369 0-0.668 0.299-0.668 0.668 0 0.184 0.075 0.351 0.195 0.472v0l2.196 2.195-2.196 2.195c-0.121 0.121-0.195 0.288-0.195 0.472 0 0.369 0.299 0.668 0.668 0.668 0.184 0 0.351-0.075 0.472-0.195l2.195-2.196 2.195 2.196c0.121 0.121 0.288 0.195 0.472 0.195 0.369 0 0.668-0.299 0.668-0.668 0-0.184-0.075-0.351-0.195-0.472l-2.196-2.195 2.196-2.195c0.121-0.121 0.195-0.288 0.195-0.472 0-0.369-0.299-0.668-0.668-0.668-0.184 0-0.351 0.075-0.472 0.195l-2.195 2.196-2.195-2.196z"></path>
</svg>
