<!-- Generated by IcoMoon.io -->
<svg version="1.1" xmlns="http://www.w3.org/2000/svg" width="32" height="32" viewBox="0 0 32 32">
<title>document-header-dismiss</title>
<path d="M23.662 2.667c1.587 0 2.887 1.233 2.992 2.794l0.007 0.205v9.665c-0.632-0.263-1.302-0.453-1.999-0.56v-9.105c0-0.506-0.376-0.924-0.864-0.991l-0.136-0.009h-15.329c-0.506 0-0.924 0.376-0.991 0.864l-0.009 0.136v20.66c0 0.506 0.376 0.924 0.864 0.991l0.136 0.009h7.31c0.382 0.734 0.865 1.407 1.433 2h-8.743c-1.587 0-2.887-1.233-2.992-2.794l-0.007-0.205v-20.66c0-1.588 1.233-2.887 2.794-2.993l0.205-0.007h15.329zM11.339 6.671c-1.104 0-1.999 0.895-1.999 2s0.895 2 1.999 2h9.331c1.104 0 1.999-0.895 1.999-2s-0.895-2-1.999-2h-9.331zM30.667 23.333c0 4.050-3.283 7.333-7.333 7.333s-7.333-3.283-7.333-7.333c0-4.050 3.283-7.333 7.333-7.333s7.333 3.283 7.333 7.333zM21.138 20.195c-0.26-0.26-0.683-0.26-0.943 0s-0.26 0.683 0 0.943l2.195 2.195-2.195 2.195c-0.26 0.26-0.26 0.683 0 0.943s0.683 0.26 0.943 0l2.195-2.195 2.195 2.195c0.26 0.26 0.683 0.26 0.943 0s0.26-0.683 0-0.943l-2.195-2.195 2.195-2.195c0.26-0.26 0.26-0.683 0-0.943s-0.683-0.26-0.943 0l-2.195 2.195-2.195-2.195z"></path>
</svg>
