<!-- Generated by IcoMoon.io -->
<svg version="1.1" xmlns="http://www.w3.org/2000/svg" width="32" height="32" viewBox="0 0 32 32">
<title>document-javascript-regular</title>
<path d="M24 27.333h-9.379c-0.122 0.776-0.456 1.458-0.94 2.004l0.004-0.004h10.315c1.473 0 2.667-1.194 2.667-2.667v0-13.563c-0-0.736-0.299-1.403-0.781-1.885l-7.772-7.771c-0.020-0.018-0.041-0.036-0.063-0.052l-0.002-0.001c-0.018-0.014-0.034-0.027-0.049-0.041l0.001 0.001c-0.088-0.083-0.184-0.162-0.284-0.234l-0.008-0.006c-0.030-0.020-0.065-0.039-0.101-0.056l-0.005-0.002-0.064-0.032-0.067-0.039c-0.072-0.041-0.145-0.084-0.221-0.116-0.245-0.101-0.528-0.167-0.825-0.184l-0.007-0c-0.030-0.002-0.057-0.005-0.083-0.010l0.005 0.001c-0.032-0.005-0.070-0.009-0.109-0.009h-8.23c-1.473 0-2.667 1.194-2.667 2.667v0 13.357c0.101-0.015 0.217-0.024 0.335-0.024 0.652 0 1.242 0.269 1.665 0.701l0 0v-14.035c0-0.368 0.298-0.667 0.667-0.667v0h8v6c0 1.473 1.194 2.667 2.667 2.667v0h6v13.333c0 0.368-0.298 0.667-0.667 0.667v0zM23.171 11.333h-4.504c-0.368 0-0.667-0.298-0.667-0.667v0-4.505l5.171 5.172zM5.667 20c0.552 0 1 0.448 1 1v0 5.667c0 1.473-1.194 2.667-2.667 2.667s-2.667-1.194-2.667-2.667v0-0.333c0-0.552 0.448-1 1-1s1 0.448 1 1v0 0.333c0 0.368 0.298 0.667 0.667 0.667s0.667-0.298 0.667-0.667v0-5.667c0-0.552 0.448-1 1-1v0zM10.6 20c-1.436 0-2.6 1.164-2.6 2.6v0 0.312c0 0.819 0.431 1.579 1.133 2l2.039 1.224c0.097 0.059 0.161 0.165 0.161 0.285v0 0.312c0 0.331-0.269 0.6-0.6 0.6v0h-0.133c-0.331 0-0.6-0.269-0.6-0.6v0-0.067c0-0.552-0.448-1-1-1s-1 0.448-1 1v0 0.067c0 1.436 1.164 2.6 2.6 2.6v0h0.133c1.436 0 2.6-1.164 2.6-2.6v0-0.312c-0-0.845-0.45-1.585-1.123-1.994l-0.010-0.006-2.039-1.224c-0.097-0.059-0.161-0.165-0.161-0.285v0-0.312c0-0.331 0.269-0.6 0.6-0.6v0h0.133c0.331 0 0.6 0.269 0.6 0.6v0 0.067c0 0.552 0.448 1 1 1s1-0.448 1-1v0-0.067c0-1.436-1.164-2.6-2.6-2.6v0h-0.133z"></path>
</svg>
