<!-- Generated by IcoMoon.io -->
<svg version="1.1" xmlns="http://www.w3.org/2000/svg" width="32" height="32" viewBox="0 0 32 32">
<title>document-css</title>
<path d="M24 27.333c0.368 0 0.667-0.3 0.667-0.667v-13.333h-6c-1.472 0-2.667-1.195-2.667-2.667v-6h-8c-0.368 0-0.667 0.3-0.667 0.667v14.17c-0.583-0.407-1.264-0.684-2-0.789v-13.381c0-1.472 1.195-2.667 2.667-2.667h8.229c0.037 0 0.073 0.005 0.11 0.010 0.026 0.004 0.052 0.007 0.078 0.009 0.287 0.020 0.569 0.075 0.832 0.184 0.077 0.033 0.149 0.075 0.221 0.116 0.022 0.013 0.044 0.026 0.067 0.038 0.021 0.011 0.042 0.022 0.063 0.032 0.037 0.018 0.074 0.036 0.107 0.059 0.104 0.071 0.197 0.155 0.292 0.24 0.015 0.014 0.032 0.026 0.048 0.039 0.022 0.017 0.045 0.034 0.065 0.054l7.772 7.771c0.5 0.5 0.781 1.179 0.781 1.885v13.563c0 1.472-1.195 2.667-2.667 2.667h-2.315c0.486-0.551 0.82-1.24 0.936-2h1.379zM23.171 11.333l-5.171-5.172v4.505c0 0.367 0.299 0.667 0.667 0.667h4.504zM16.070 27.333c0.271 1.147 1.301 2 2.53 2h0.133c1.229 0 2.26-0.853 2.53-2 0.045-0.193 0.070-0.393 0.070-0.6v-0.312c0-0.82-0.43-1.579-1.133-2.001l-2.039-1.223c-0.1-0.060-0.162-0.169-0.162-0.286v-0.312c0-0.331 0.269-0.6 0.6-0.6h0.133c0.331 0 0.6 0.269 0.6 0.6v0.067c0 0.552 0.448 1 1 1s1-0.448 1-1v-0.067c0-1.436-1.164-2.6-2.6-2.6h-0.133c-1.436 0-2.6 1.164-2.6 2.6v0.312c0 0.82 0.43 1.579 1.133 2.001l2.039 1.223c0.1 0.060 0.162 0.169 0.162 0.286v0.312c0 0.331-0.269 0.6-0.6 0.6h-0.133c-0.331 0-0.6-0.269-0.6-0.6v-0.067c0-0.552-0.448-1-1-1s-1 0.448-1 1v0.067c0 0.207 0.024 0.407 0.070 0.6zM7.933 29.333c0.022-0.022 0.045-0.044 0.067-0.067v0.067c-0.022 0-0.044-0-0.067-0.001zM9.662 28c-0.115-0.207-0.203-0.43-0.259-0.667-0.046-0.193-0.070-0.393-0.070-0.6v-0.067c0-0.552 0.448-1 1-1s1 0.448 1 1v0.067c0 0.331 0.269 0.6 0.6 0.6h0.133c0.331 0 0.6-0.269 0.6-0.6v-0.312c0-0.117-0.061-0.226-0.162-0.286l-2.039-1.223c-0.703-0.422-1.133-1.181-1.133-2.001v-0.312c0-1.436 1.164-2.6 2.6-2.6h0.133c1.436 0 2.6 1.164 2.6 2.6v0.067c0 0.552-0.448 1-1 1s-1-0.448-1-1v-0.067c0-0.331-0.269-0.6-0.6-0.6h-0.133c-0.331 0-0.6 0.269-0.6 0.6v0.312c0 0.117 0.061 0.226 0.162 0.286l2.039 1.223c0.703 0.422 1.133 1.181 1.133 2.001v0.312c0 0.207-0.024 0.407-0.070 0.6-0.056 0.236-0.144 0.46-0.259 0.667-0.445 0.795-1.295 1.333-2.271 1.333h-0.133c-0.976 0-1.826-0.538-2.271-1.333zM7.744 27.282c0.165-0.395 0.256-0.828 0.256-1.282 0-0.435-0.278-0.806-0.667-0.943-0.104-0.037-0.216-0.057-0.333-0.057-0.37 0-0.694 0.201-0.867 0.501-0.085 0.147-0.133 0.317-0.133 0.499 0 0.477-0.25 0.895-0.626 1.131-0.205 0.128-0.447 0.203-0.707 0.203-0.736 0-1.333-0.597-1.333-1.333v-2.667c0-0.736 0.597-1.333 1.333-1.333 0.243 0 0.471 0.065 0.667 0.178 0.399 0.231 0.667 0.661 0.667 1.155 0 0.182 0.049 0.353 0.133 0.499 0.173 0.299 0.496 0.501 0.867 0.501 0.117 0 0.229-0.020 0.333-0.057 0.388-0.137 0.667-0.508 0.667-0.943 0-0.751-0.248-1.443-0.667-2-0.481-0.64-1.187-1.101-2-1.266-0.215-0.044-0.438-0.067-0.667-0.067-1.841 0-3.333 1.492-3.333 3.333v2.667c0 1.841 1.492 3.333 3.333 3.333 0.65 0 1.256-0.186 1.769-0.507 0.581-0.365 1.042-0.903 1.309-1.543z"></path>
</svg>
