<!-- Generated by IcoMoon.io -->
<svg version="1.1" xmlns="http://www.w3.org/2000/svg" width="32" height="32" viewBox="0 0 32 32">
<title>document-copy</title>
<path d="M7.337 6.169l-0.004 2.831v14.006c0 2.393 1.94 4.333 4.333 4.333l11.488 0c-0.412 1.165-1.523 2-2.829 2h-8.659c-3.498 0-6.333-2.835-6.333-6.333v-14.006c0-1.308 0.837-2.42 2.004-2.831zM17.505 2.667c0.796 0 1.559 0.316 2.122 0.879l6.158 6.161c0.562 0.563 0.878 1.325 0.878 2.121v11.178c0 1.657-1.343 3-3 3h-11.993c-1.657 0-3-1.343-3-3v-17.339c0-1.657 1.343-3 3-3h5.835zM17.333 4.667h-5.663c-0.552 0-1 0.448-1 1v17.339c0 0.552 0.448 1 1 1h11.993c0.552 0 1-0.448 1-1l-0.001-11.002-4.329 0.001c-1.588 0-2.887-1.234-2.993-2.795l-0.007-0.205-0.001-4.339zM19.333 6.081l0.001 2.924c0 0.506 0.376 0.925 0.864 0.991l0.136 0.009 2.921-0.001-3.921-3.923z"></path>
</svg>
