<!-- Generated by IcoMoon.io -->
<svg version="1.1" xmlns="http://www.w3.org/2000/svg" width="32" height="32" viewBox="0 0 32 32">
<title>document-bullet-list-multiple</title>
<path d="M10.333 15.333c-0.552 0-1 0.448-1 1s0.448 1 1 1v0c0.552 0 1-0.448 1-1s-0.448-1-1-1v0zM9.333 20.333c0-0.552 0.448-1 1-1s1 0.448 1 1v0c0 0.552-0.448 1-1 1s-1-0.448-1-1v0zM13.333 16.333c0-0.552 0.448-1 1-1v0h4.072c0.552 0 1 0.448 1 1s-0.448 1-1 1v0h-4.072c-0.552 0-1-0.448-1-1v0zM14.333 19.333c-0.552 0-1 0.448-1 1s0.448 1 1 1v0h4.072c0.552 0 1-0.448 1-1s-0.448-1-1-1v0h-4.072zM8.333 2.667c-1.657 0-3 1.343-3 3v0 17.333c0 1.657 1.343 3 3 3v0h12c1.657 0 3-1.343 3-3v0-11.175c0 0 0-0 0-0 0-0.828-0.336-1.578-0.879-2.121l-6.159-6.159c-0.543-0.543-1.292-0.878-2.12-0.879h-5.843zM7.333 5.667c0-0.552 0.448-1 1-1v0h5.672v4.331c0 1.657 1.343 3 3 3v0h4.328v11.003c0 0.552-0.448 1-1 1v0h-12c-0.552 0-1-0.448-1-1v0-17.333zM16.005 8.997v-2.915l3.913 3.915h-2.913c-0.552 0-1-0.448-1-1v0zM11.667 29.333c-0 0-0.001 0-0.001 0-1.298 0-2.404-0.825-2.822-1.979l-0.007-0.021h11.496c2.393 0 4.333-1.94 4.333-4.333v0-11.084l1.12 1.12c0.564 0.564 0.88 1.327 0.88 2.123v7.841c0 3.498-2.836 6.333-6.333 6.333v0h-8.667z"></path>
</svg>
