<!-- Generated by IcoMoon.io -->
<svg version="1.1" xmlns="http://www.w3.org/2000/svg" width="32" height="32" viewBox="0 0 32 32">
<title>document-toolbox</title>
<path d="M7.333 5.667c0-0.552 0.448-1 1-1v0h7.667v6c0 1.473 1.194 2.667 2.667 2.667v0h6v13c0 0.552-0.448 1-1 1v0h-6.333v2h6.333c1.657 0 3-1.343 3-3v0-13.448c0-0.619-0.245-1.212-0.684-1.649l-7.885-7.885c-0.422-0.422-1.005-0.684-1.649-0.684h-8.115c-1.657 0-3 1.343-3 3v0 10.691c0.392-0.227 0.848-0.357 1.333-0.357h0.667v-10.333zM23.253 11.333h-4.587c-0.368 0-0.667-0.298-0.667-0.667v0-4.587l5.253 5.253zM5.333 21.333v-2c0-1.105 0.895-2 2-2v0h2.667c1.105 0 2 0.895 2 2v0 2h2c1.105 0 2 0.895 2 2v0 2h-4v-0.667c0-0.368-0.298-0.667-0.667-0.667s-0.667 0.298-0.667 0.667v0 0.667h-4v-0.667c0-0.368-0.298-0.667-0.667-0.667s-0.667 0.298-0.667 0.667v0 0.667h-4v-2c0-1.105 0.895-2 2-2v0h2zM6.667 19.333v2h4v-2c0-0.368-0.298-0.667-0.667-0.667v0h-2.667c-0.368 0-0.667 0.298-0.667 0.667v0zM12 26.667h4v2c0 1.105-0.895 2-2 2v0h-10.667c-1.105 0-2-0.895-2-2v0-2h4v0.667c0 0.368 0.298 0.667 0.667 0.667s0.667-0.298 0.667-0.667v0-0.667h4v0.667c0 0.368 0.298 0.667 0.667 0.667s0.667-0.298 0.667-0.667v0-0.667z"></path>
</svg>
