<!-- Generated by IcoMoon.io -->
<svg version="1.1" xmlns="http://www.w3.org/2000/svg" width="32" height="32" viewBox="0 0 32 32">
<title>document-briefcase-regular</title>
<path d="M24.667 26.667c0 0.368-0.298 0.667-0.667 0.667v0h-6.667v1.333c0 0.228-0.023 0.451-0.067 0.667h6.733c1.473 0 2.667-1.194 2.667-2.667v0-13.563c-0-0.736-0.299-1.403-0.781-1.885l-7.772-7.771c-0.020-0.018-0.041-0.036-0.063-0.052l-0.002-0.001c-0.018-0.014-0.034-0.027-0.049-0.041l0.001 0.001c-0.088-0.083-0.184-0.162-0.284-0.234l-0.008-0.006c-0.030-0.020-0.065-0.039-0.101-0.056l-0.005-0.002-0.064-0.032-0.067-0.039c-0.072-0.041-0.145-0.084-0.221-0.116-0.245-0.101-0.528-0.167-0.825-0.184l-0.007-0c-0.030-0.002-0.057-0.005-0.083-0.010l0.005 0.001c-0.032-0.005-0.070-0.009-0.109-0.009h-8.23c-1.473 0-2.667 1.194-2.667 2.667v0 9.472c0.317-0.091 0.653-0.139 1-0.139h1v-9.333c0-0.368 0.298-0.667 0.667-0.667v0h8v6c0 1.473 1.194 2.667 2.667 2.667v0h6v13.333zM18 6.161l5.171 5.172h-4.504c-0.368 0-0.667-0.298-0.667-0.667v0-4.505zM4 20.001h-0.667c-1.104 0-1.999 0.895-2 1.999v6.667c0 1.105 0.895 2 2 2v0h10.667c1.105 0 2-0.895 2-2v0-6.667c0-1.105-0.895-2-2-2v0h-0.667v-1.667c0-1.289-1.045-2.333-2.333-2.333v0h-4.667c-1.289 0-2.333 1.045-2.333 2.333v0 1.667zM6 18.333c0-0.184 0.149-0.333 0.333-0.333v0h4.667c0.184 0 0.333 0.149 0.333 0.333v0 1.667h-5.333v-1.667z"></path>
</svg>
