<!-- Generated by IcoMoon.io -->
<svg version="1.1" xmlns="http://www.w3.org/2000/svg" width="32" height="32" viewBox="0 0 32 32">
<title>document-queue-multiple</title>
<path d="M23.137 8.208c0.032 0.032 0.060 0.067 0.085 0.104l0.002 0.002 2.109 2.109v-1.744c-0-0.738-0.3-1.405-0.784-1.888l-0-0-2.283-2.277c-1.145-1.142-2.726-1.848-4.471-1.848-0 0-0 0-0.001 0h-8.461c-1.473 0-2.667 1.194-2.667 2.667v0 0.169c0.741-0.523 1.663-0.836 2.659-0.836 0.003 0 0.006 0 0.008 0h8.461c1.147 0 2.247 0.455 3.059 1.265l2.284 2.276zM3.667 20c0.552 0 1 0.448 1 1v0 2.333c0 2.209 1.791 4 4 4v0h14.667c2.209 0 4-1.791 4-4v0-2.333c0-0.552 0.448-1 1-1s1 0.448 1 1v0 2.333c0 3.314-2.686 6-6 6v0h-14.667c-3.314 0-6-2.686-6-6v0-2.333c0-0.552 0.448-1 1-1v0zM11.667 10.667c-0.552 0-1 0.448-1 1s0.448 1 1 1v0h2c0.552 0 1-0.448 1-1s-0.448-1-1-1v0h-2zM10.667 15.667c0-0.552 0.448-1 1-1v0h2c0.552 0 1 0.448 1 1s-0.448 1-1 1v0h-2c-0.552 0-1-0.448-1-1v0zM11.667 18.667c-0.552 0-1 0.448-1 1s0.448 1 1 1v0h2c0.552 0 1-0.448 1-1s-0.448-1-1-1v0h-2zM9.333 6.667c-1.473 0-2.667 1.194-2.667 2.667v0 13.333c0 1.473 1.194 2.667 2.667 2.667v0h13.333c1.473 0 2.667-1.194 2.667-2.667v0-8.309c-0-0.736-0.299-1.403-0.781-1.885l-5.024-5.024c-0.482-0.483-1.149-0.781-1.885-0.781h-8.309zM8.667 9.333c0-0.368 0.298-0.667 0.667-0.667v0h7.333v4.333c0 1.288 1.045 2.333 2.333 2.333h4.333v7.333c0 0.368-0.298 0.667-0.667 0.667v0h-13.333c-0.368 0-0.667-0.298-0.667-0.667v0-13.333zM18.667 13v-3.587l3.92 3.92h-3.587c-0.184 0-0.333-0.149-0.333-0.333v0z"></path>
</svg>
