<!-- Generated by IcoMoon.io -->
<svg version="1.1" xmlns="http://www.w3.org/2000/svg" width="32" height="32" viewBox="0 0 32 32">
<title>document-ribbon</title>
<path d="M8.167 2.667c-1.565 0-2.833 1.269-2.833 2.833v0 8.944c0.486-0.199 1.050-0.344 1.639-0.407l0.028-0.002v-8.535c0-0.644 0.523-1.167 1.167-1.167h7.833v5.833c0 1.381 1.119 2.5 2.5 2.5v0h6.5v13.833c0 0.644-0.522 1.167-1.167 1.167v0h-11.167v1.667h11.167c1.565 0 2.833-1.269 2.833-2.833v0-14.224c-0-0.414-0.168-0.789-0.439-1.060l-8.109-8.111c-0.271-0.271-0.646-0.439-1.060-0.439-0 0-0 0-0.001 0h-8.891zM23.655 11h-5.155c-0.46 0-0.833-0.373-0.833-0.833v-5.155l5.988 5.988zM7 15.377c-2.46 0.34-4.333 2.429-4.333 4.955 0 0 0 0 0 0.001v-0c0 2.761 2.239 5 5 5v0c2.759-0.003 4.995-2.24 4.995-5 0-2.761-2.239-5-5-5-0.233 0-0.463 0.016-0.688 0.047l0.026-0.003zM5.101 30.533c-0.113 0.083-0.255 0.133-0.408 0.133-0.383 0-0.693-0.31-0.693-0.693 0-0 0-0.001 0-0.001v0-4.473c1.015 0.73 2.283 1.168 3.653 1.168 0.005 0 0.010 0 0.015-0h-0.001c1.367 0 2.632-0.433 3.667-1.169v4.473c0 0 0 0 0 0.001 0 0.383-0.31 0.693-0.693 0.693-0.153 0-0.295-0.050-0.41-0.134l0.002 0.001-2.565-1.865-2.565 1.867z"></path>
</svg>
