<!-- Generated by IcoMoon.io -->
<svg version="1.1" xmlns="http://www.w3.org/2000/svg" width="32" height="32" viewBox="0 0 32 32">
<title>document-bullet-list-off</title>
<path d="M9.333 16.333c0-0.552 0.448-1 1-1s1 0.448 1 1c0 0.552-0.448 1-1 1s-1-0.448-1-1zM10.333 19.333c-0.552 0-1 0.448-1 1s0.448 1 1 1c0.552 0 1-0.448 1-1s-0.448-1-1-1zM9.333 24.333c0-0.552 0.448-1 1-1s1 0.448 1 1c0 0.552-0.448 1-1 1s-1-0.448-1-1zM5.333 6.748l-2.374-2.374c-0.391-0.391-0.39-1.024 0-1.414s1.024-0.39 1.414 0l24.666 24.667c0.391 0.391 0.391 1.024 0 1.414s-1.024 0.391-1.414 0l-1.221-1.221c-0.43 0.895-1.346 1.514-2.405 1.514h-16c-1.472 0-2.667-1.195-2.667-2.667v-19.919zM24.667 26.081l-2.045-2.045c0.029 0.094 0.045 0.193 0.045 0.297 0 0.552-0.448 1-1 1h-7.333c-0.552 0-1-0.448-1-1s0.448-1 1-1h7.333c0.103 0 0.203 0.016 0.297 0.045l-2.045-2.045h-5.585c-0.552 0-1-0.448-1-1s0.448-1 1-1h3.585l-2-2h-1.585c-0.552 0-1-0.448-1-1 0-0.429 0.27-0.795 0.649-0.937l-6.649-6.649v17.919c0 0.367 0.299 0.667 0.667 0.667h16c0.368 0 0.667-0.3 0.667-0.667v-0.585zM16 10.667c0 0.656 0.237 1.256 0.63 1.721l0.315 0.315c0.465 0.393 1.065 0.63 1.721 0.63h6v7.091l2 2v-9.32c0-0.707-0.281-1.385-0.781-1.885l-7.772-7.771c-0.020-0.020-0.043-0.037-0.065-0.054-0.017-0.013-0.033-0.025-0.048-0.039-0.095-0.085-0.188-0.169-0.292-0.24-0.034-0.023-0.071-0.041-0.107-0.059-0.021-0.010-0.043-0.021-0.063-0.032-0.022-0.013-0.044-0.025-0.067-0.038-0.072-0.042-0.145-0.084-0.221-0.116-0.263-0.109-0.545-0.164-0.832-0.184-0.026-0.002-0.052-0.005-0.078-0.009-0.036-0.005-0.072-0.010-0.11-0.010h-8.229c-0.325 0-0.637 0.058-0.925 0.165l1.835 1.835h7.091v6zM18 6.161l5.171 5.172h-4.504c-0.368 0-0.667-0.3-0.667-0.667v-4.505zM21.667 15.333h-2.091l2 2h0.091c0.552 0 1-0.448 1-1s-0.448-1-1-1z"></path>
</svg>
