<!-- Generated by IcoMoon.io -->
<svg version="1.1" xmlns="http://www.w3.org/2000/svg" width="32" height="32" viewBox="0 0 32 32">
<title>document-person-regular</title>
<path d="M9.6 3.2c-1.767 0-3.2 1.433-3.2 3.2v0 8.066c0.24-0.042 0.517-0.067 0.8-0.067s0.559 0.024 0.829 0.071l-0.029-0.004v-8.066c0-0.884 0.716-1.6 1.6-1.6v0h6.4v5.6c0 1.325 1.075 2.4 2.4 2.4v0h5.6v12.8c0 0.884-0.716 1.6-1.6 1.6v0h-8.061c-0.094 0.599-0.279 1.137-0.541 1.627l0.013-0.027h8.589c1.767 0 3.2-1.433 3.2-3.2v0-13.738c-0.001-0.662-0.27-1.262-0.704-1.696l-6.262-6.264c-0.434-0.434-1.034-0.702-1.696-0.702h-7.338zM23.669 11.2h-5.269c-0.442 0-0.8-0.358-0.8-0.8v0-5.269l6.069 6.069zM10.4 19.2c0 1.767-1.433 3.2-3.2 3.2s-3.2-1.433-3.2-3.2v0c0-1.767 1.433-3.2 3.2-3.2s3.2 1.433 3.2 3.2v0zM12.8 26.4c0 1.992-1.6 4-5.6 4s-5.6-2-5.6-4c0-1.325 1.075-2.4 2.4-2.4v0h6.4c1.325 0 2.4 1.075 2.4 2.4v0z"></path>
</svg>
