<!-- Generated by IcoMoon.io -->
<svg version="1.1" xmlns="http://www.w3.org/2000/svg" width="32" height="32" viewBox="0 0 32 32">
<title>document-split-hint-off</title>
<path d="M4.373 2.96c-0.178-0.166-0.418-0.268-0.682-0.268-0.552 0-1 0.448-1 1 0 0.264 0.102 0.504 0.269 0.682l-0.001-0.001 2.373 2.373v8.253c0 0.552 0.448 1 1 1s1-0.448 1-1v0-6.253l17.333 17.333v0.587c0 0.368-0.298 0.667-0.667 0.667v0h-1.667c-0.552 0-1 0.448-1 1s0.448 1 1 1v0h1.667c0 0 0.001 0 0.001 0 1.053 0 1.964-0.611 2.397-1.498l0.007-0.016 1.221 1.22c0.178 0.166 0.418 0.268 0.682 0.268 0.552 0 1-0.448 1-1 0-0.264-0.102-0.504-0.269-0.682l0.001 0.001-2.648-2.649c-0.012-0.012-0.023-0.023-0.035-0.034l-0.001-0.001-21.983-21.983zM16 10.667c0 0.657 0.239 1.259 0.633 1.724l0.309 0.309c0.465 0.395 1.067 0.633 1.724 0.633h6v1.667c0 0.552 0.448 1 1 1s1-0.448 1-1v0-2c-0.029-0.698-0.322-1.323-0.781-1.781l-7.772-7.771c-0.020-0.020-0.043-0.037-0.065-0.053l-0.048-0.040c-0.088-0.083-0.184-0.162-0.284-0.234l-0.008-0.006c-0.030-0.020-0.065-0.039-0.101-0.056l-0.005-0.002-0.064-0.032-0.067-0.039c-0.072-0.041-0.144-0.084-0.221-0.116-0.245-0.101-0.528-0.167-0.825-0.184l-0.007-0c-0.027-0.001-0.053-0.005-0.079-0.009-0.032-0.005-0.070-0.009-0.109-0.009h-8.23c-0.325 0-0.637 0.059-0.925 0.165l1.835 1.835h7.091v6zM18 6.161l5.171 5.172h-4.504c-0.368 0-0.667-0.298-0.667-0.667v0-4.505zM24.667 20.425l1.815 1.813c0.116-0.161 0.186-0.361 0.187-0.579v-3.327c0-0.552-0.448-1-1-1s-1 0.448-1 1v0 2.092zM6.333 17.332c0.552 0 1 0.448 1 1v0 3.328c0 0.552-0.448 1-1 1s-1-0.448-1-1v0-3.327c0-0.552 0.448-1 1-1v0zM13.667 27.332c-0.552 0-1 0.448-1 1s0.448 1 1 1v0h4.667c0.552 0 1-0.448 1-1s-0.448-1-1-1v0h-4.667zM6.333 24.665c0.552 0 1 0.448 1 1v0 1.001c0 0.368 0.298 0.667 0.667 0.667v0h1.667c0.552 0 1 0.448 1 1s-0.448 1-1 1v0h-1.667c-1.473 0-2.667-1.194-2.667-2.667v0-1c0-0.552 0.448-1 1-1v0z"></path>
</svg>
