<!-- Generated by IcoMoon.io -->
<svg version="1.1" xmlns="http://www.w3.org/2000/svg" width="32" height="32" viewBox="0 0 32 32">
<title>document-dismiss</title>
<path d="M8.667 16c4.050 0 7.333 3.283 7.333 7.333s-3.283 7.333-7.333 7.333c-4.050 0-7.333-3.283-7.333-7.333s3.283-7.333 7.333-7.333zM16.172 2.667c0.795 0 1.558 0.316 2.121 0.878l3.749 3.747 3.743 3.749c0.562 0.562 0.877 1.325 0.877 2.12v13.172c0 1.657-1.343 3-3 3l-8.743 0.001c0.569-0.592 1.054-1.265 1.437-2l7.306-0.001c0.552 0 1-0.448 1-1l-0.001-12.996-5.661 0.001c-1.588 0-2.887-1.234-2.993-2.795l-0.007-0.205-0.001-5.672h-7.665c-0.552 0-1 0.448-1 1l-0.001 9.102c-0.698 0.108-1.368 0.299-2 0.563l0.001-9.665c0-1.657 1.343-3 3-3h7.839zM5.457 19.955l-0.092 0.077-0.077 0.092c-0.157 0.227-0.157 0.531 0 0.758l0.077 0.092 2.359 2.359-2.356 2.356-0.077 0.092c-0.157 0.227-0.157 0.531 0 0.758l0.077 0.092 0.092 0.077c0.227 0.157 0.531 0.157 0.758 0l0.092-0.077 2.356-2.356 2.359 2.359 0.092 0.077c0.227 0.157 0.531 0.157 0.758 0l0.092-0.077 0.077-0.092c0.158-0.227 0.158-0.531 0-0.758l-0.077-0.092-2.359-2.359 2.363-2.359 0.077-0.092c0.158-0.227 0.158-0.531 0-0.758l-0.077-0.092-0.092-0.077c-0.227-0.157-0.531-0.157-0.758 0l-0.092 0.077-2.362 2.359-2.359-2.359-0.092-0.077c-0.227-0.157-0.531-0.157-0.758 0zM17.999 6.079l0.001 4.26c0 0.506 0.376 0.925 0.864 0.991l0.136 0.009 4.255-0.001-5.256-5.259z"></path>
</svg>
