<!-- Generated by IcoMoon.io -->
<svg version="1.1" xmlns="http://www.w3.org/2000/svg" width="32" height="32" viewBox="0 0 32 32">
<title>document-split-hint</title>
<path d="M26.667 15c0 0.552-0.448 1-1 1s-1-0.448-1-1v0-1.667h-6c-1.473 0-2.667-1.194-2.667-2.667v0-6h-8c-0.368 0-0.667 0.298-0.667 0.667v0 9.667c0 0.552-0.448 1-1 1s-1-0.448-1-1v0-9.667c0-1.473 1.194-2.667 2.667-2.667v0h8.229c0.037 0 0.073 0.005 0.109 0.009 0.027 0.004 0.053 0.008 0.079 0.009 0.287 0.020 0.569 0.075 0.832 0.184 0.076 0.032 0.149 0.075 0.221 0.116l0.067 0.039 0.063 0.032c0.042 0.019 0.078 0.039 0.111 0.061l-0.003-0.002c0.104 0.071 0.197 0.155 0.292 0.24l0.048 0.040c0.024 0.017 0.046 0.035 0.066 0.054l-0-0 7.772 7.771c0.459 0.458 0.752 1.083 0.781 1.776l0 0.005v2zM18 6.161v4.505c0 0.368 0.298 0.667 0.667 0.667v0h4.504l-5.171-5.172zM6.333 17.333c0.552 0 1 0.448 1 1v0 3.327c0 0.552-0.448 1-1 1s-1-0.448-1-1v0-3.327c0-0.552 0.448-1 1-1v0zM26.667 18.333c0-0.552-0.448-1-1-1s-1 0.448-1 1v0 3.327c0 0.552 0.448 1 1 1s1-0.448 1-1v0-3.327zM12.667 28.333c0-0.552 0.448-1 1-1v0h4.667c0.552 0 1 0.448 1 1s-0.448 1-1 1v0h-4.667c-0.552 0-1-0.448-1-1v0zM7.333 25.667c0-0.552-0.448-1-1-1s-1 0.448-1 1v0 1c0 1.473 1.194 2.667 2.667 2.667v0h1.667c0.552 0 1-0.448 1-1s-0.448-1-1-1v0h-1.667c-0.368 0-0.667-0.298-0.667-0.667v0-1zM25.667 24.667c-0.552 0-1 0.448-1 1v0 1c0 0.368-0.298 0.667-0.667 0.667v0h-1.667c-0.552 0-1 0.448-1 1s0.448 1 1 1v0h1.667c1.473 0 2.667-1.194 2.667-2.667v0-1c0-0.552-0.448-1-1-1v0z"></path>
</svg>
