<!-- Generated by IcoMoon.io -->
<svg version="1.1" xmlns="http://www.w3.org/2000/svg" width="32" height="32" viewBox="0 0 32 32">
<title>document-footer</title>
<path d="M11.333 21.333c-1.105 0-2 0.895-2 2s0.895 2 2 2v0h9.333c1.105 0 2-0.895 2-2s-0.895-2-2-2v0h-9.333zM26.653 5.456c-0.111-1.566-1.408-2.795-2.993-2.795-0 0-0 0-0 0l-15.539 0.007c-1.566 0.111-2.795 1.408-2.795 2.993 0 0 0 0 0 0v-0 20.664l0.007 0.205c0.111 1.566 1.408 2.795 2.993 2.795 0 0 0 0 0 0l15.539-0.007c1.566-0.111 2.795-1.408 2.795-2.993 0-0 0-0 0-0v0-20.664l-0.007-0.205zM8.327 4.661l15.469 0.009c0.491 0.069 0.864 0.486 0.864 0.991v0 20.664l-0.009 0.136c-0.069 0.491-0.486 0.864-0.991 0.864l-15.469-0.009c-0.491-0.069-0.864-0.486-0.864-0.991v0-20.664l0.009-0.136c0.069-0.491 0.486-0.864 0.991-0.864v0z"></path>
</svg>
