<!-- Generated by IcoMoon.io -->
<svg version="1.1" xmlns="http://www.w3.org/2000/svg" width="32" height="32" viewBox="0 0 32 32">
<title>door-tag</title>
<path d="M13 23.333c-0.552 0-1 0.448-1 1s0.448 1 1 1h6c0.552 0 1-0.448 1-1s-0.448-1-1-1h-6z"></path>
<path d="M14.399 9.468c0.37-0.492 0.949-0.802 1.601-0.802 1.105 0 2 0.895 2 2s-0.895 2-2 2h-5.333c-1.473 0-2.667 1.194-2.667 2.667v11.333c0 1.473 1.194 2.667 2.667 2.667h10.667c1.473 0 2.667-1.194 2.667-2.667v-16c0-4.418-3.582-8-8-8-2.619 0-4.944 1.262-6.398 3.197-0.995 1.325-0.728 3.205 0.596 4.2s3.205 0.728 4.201-0.596zM16 6.667c-1.304 0-2.467 0.624-3.2 1.6-0.332 0.442-0.959 0.531-1.4 0.199s-0.531-0.959-0.199-1.4c1.094-1.455 2.837-2.399 4.8-2.399 3.314 0 6 2.686 6 6v16c0 0.368-0.299 0.667-0.667 0.667h-10.667c-0.368 0-0.667-0.299-0.667-0.667v-11.333c0-0.368 0.298-0.667 0.667-0.667h5.333c2.209 0 4-1.791 4-4s-1.791-4-4-4z"></path>
</svg>
