<!-- Generated by IcoMoon.io -->
<svg version="1.1" xmlns="http://www.w3.org/2000/svg" width="32" height="32" viewBox="0 0 32 32">
<title>door-tag-regular</title>
<path d="M13 23.333c-0.552 0-1 0.448-1 1s0.448 1 1 1v0h6c0.552 0 1-0.448 1-1s-0.448-1-1-1v0h-6zM14.399 9.468c0.369-0.489 0.948-0.801 1.601-0.801 1.105 0 2 0.895 2 2s-0.895 2-2 2h-5.333c-1.473 0-2.667 1.194-2.667 2.667v0 11.333c0 1.473 1.194 2.667 2.667 2.667v0h10.667c1.473 0 2.667-1.194 2.667-2.667v0-16c0-0 0-0.001 0-0.001 0-4.418-3.582-8-8-8-2.607 0-4.924 1.247-6.384 3.178l-0.015 0.020c-0.375 0.496-0.601 1.122-0.601 1.802 0 1.657 1.343 3.001 3.001 3.001 0.978 0 1.846-0.467 2.394-1.191l0.005-0.008zM16 6.667c-1.304 0-2.467 0.624-3.2 1.6-0.184 0.244-0.474 0.4-0.8 0.4-0.552 0-1-0.448-1-1 0-0.226 0.075-0.435 0.202-0.603l-0.002 0.003c1.106-1.464 2.844-2.4 4.8-2.4 3.314 0 6 2.686 6 6v0 16c0 0.368-0.298 0.667-0.667 0.667v0h-10.667c-0.368 0-0.667-0.298-0.667-0.667v0-11.333c0-0.368 0.298-0.667 0.667-0.667v0h5.333c2.209 0 4-1.791 4-4s-1.791-4-4-4v0z"></path>
</svg>
