<!-- Generated by IcoMoon.io -->
<svg version="1.1" xmlns="http://www.w3.org/2000/svg" width="32" height="32" viewBox="0 0 32 32">
<title>door-arrow-left</title>
<path d="M8.333 2.667c-1.657 0-3 1.343-3 3v20.667c0 1.657 1.343 3 3 3h8.746c-0.569-0.592-1.054-1.265-1.437-2h-7.31c-0.552 0-1-0.448-1-1v-20.667c0-0.552 0.448-1 1-1h15.333c0.552 0 1 0.448 1 1v9.102c0.698 0.108 1.368 0.299 2 0.562v-9.664c0-1.657-1.343-3-3-3h-15.333zM23.333 30.667c4.050 0 7.333-3.283 7.333-7.333s-3.283-7.333-7.333-7.333c-4.050 0-7.333 3.283-7.333 7.333s3.283 7.333 7.333 7.333zM28 23.333c0 0.368-0.299 0.667-0.667 0.667h-6.391l2.195 2.195c0.26 0.26 0.26 0.683 0 0.943s-0.683 0.26-0.943 0l-3.333-3.333c-0.26-0.26-0.26-0.683 0-0.943l3.333-3.333c0.26-0.26 0.683-0.26 0.943 0s0.26 0.683 0 0.943l-2.195 2.195h6.391c0.368 0 0.667 0.299 0.667 0.667zM11.333 17.667c1.105 0 2-0.895 2-2s-0.895-2-2-2c-1.105 0-2 0.895-2 2s0.895 2 2 2z"></path>
</svg>
