<!-- Generated by IcoMoon.io -->
<svg version="1.1" xmlns="http://www.w3.org/2000/svg" width="32" height="32" viewBox="0 0 32 32">
<title>door-arrow-left-regular</title>
<path d="M8.333 2.667c-1.657 0-3 1.343-3 3v0 20.667c0 1.657 1.343 3 3 3v0h8.747c-0.555-0.578-1.034-1.235-1.415-1.953l-0.023-0.047h-7.309c-0.552 0-1-0.448-1-1v0-20.667c0-0.552 0.448-1 1-1v0h15.333c0.552 0 1 0.448 1 1v0 9.101c0.75 0.118 1.423 0.314 2.056 0.584l-0.056-0.021v-9.664c0-1.657-1.343-3-3-3v0h-15.333zM23.333 30.667c4.050 0 7.333-3.283 7.333-7.333s-3.283-7.333-7.333-7.333v0c-4.050 0-7.333 3.283-7.333 7.333s3.283 7.333 7.333 7.333v0zM28 23.333c0 0.368-0.298 0.667-0.667 0.667v0h-6.391l2.196 2.195c0.121 0.121 0.195 0.288 0.195 0.472 0 0.369-0.299 0.668-0.668 0.668-0.184 0-0.351-0.075-0.472-0.195l-3.333-3.333c-0.121-0.121-0.196-0.288-0.196-0.472s0.075-0.351 0.196-0.472v0l3.333-3.333c0.121-0.121 0.288-0.195 0.472-0.195 0.369 0 0.668 0.299 0.668 0.668 0 0.184-0.075 0.351-0.195 0.472l-2.196 2.195h6.391c0.368 0 0.667 0.298 0.667 0.667v0zM11.333 17.667c1.105 0 2-0.895 2-2s-0.895-2-2-2v0c-1.105 0-2 0.895-2 2s0.895 2 2 2v0z"></path>
</svg>
