<!-- Generated by IcoMoon.io -->
<svg version="1.1" xmlns="http://www.w3.org/2000/svg" width="32" height="32" viewBox="0 0 32 32">
<title>door-arrow-right-regular</title>
<path d="M5.714 5.714c0-1.894 1.535-3.429 3.429-3.429v0h13.714c1.894 0 3.429 1.535 3.429 3.429v0 9.631c-0.493-0.181-1.072-0.325-1.67-0.406l-0.044-0.005v-9.219c0-0.947-0.767-1.714-1.714-1.714v0h-13.714c-0.947 0-1.714 0.768-1.714 1.714v0 20.571c0 0.947 0.767 1.714 1.714 1.714v0h7.034c0.415 0.651 0.885 1.213 1.419 1.709l0.005 0.005h-8.458c-1.894 0-3.429-1.535-3.429-3.429v0-20.571zM10.857 17.143c0.947 0 1.714-0.767 1.714-1.714s-0.768-1.714-1.714-1.714v0c-0.947 0-1.714 0.768-1.714 1.714s0.768 1.714 1.714 1.714v0zM30.857 23.429c0 4.103-3.326 7.429-7.429 7.429s-7.429-3.326-7.429-7.429v0c0-4.103 3.326-7.429 7.429-7.429s7.429 3.326 7.429 7.429v0zM18.857 22.857c-0.316 0-0.571 0.256-0.571 0.571s0.256 0.571 0.571 0.571v0h7.763l-2.454 2.453c-0.104 0.104-0.168 0.247-0.168 0.405 0 0.316 0.256 0.572 0.572 0.572 0.158 0 0.301-0.064 0.405-0.168l3.429-3.429c0.103-0.103 0.166-0.244 0.167-0.401v-0.007c-0.001-0.156-0.064-0.298-0.167-0.4l-3.429-3.429c-0.104-0.104-0.247-0.168-0.405-0.168-0.316 0-0.572 0.256-0.572 0.572 0 0.158 0.064 0.301 0.167 0.404v0l2.454 2.453h-7.763z"></path>
</svg>
