<!-- Generated by IcoMoon.io -->
<svg version="1.1" xmlns="http://www.w3.org/2000/svg" width="32" height="32" viewBox="0 0 32 32">
<title>double-swipe-up</title>
<path d="M9 24c0.506 0 0.925-0.376 0.991-0.864l0.009-0.136v-16.919l2.96 2.959c0.355 0.355 0.911 0.387 1.302 0.097l0.112-0.097c0.355-0.355 0.387-0.911 0.097-1.302l-0.097-0.112-4.667-4.667c-0.355-0.355-0.911-0.387-1.302-0.097l-0.112 0.097-4.667 4.667c-0.391 0.391-0.391 1.024 0 1.414 0.355 0.355 0.911 0.387 1.302 0.097l0.112-0.097 2.96-2.959v16.919c0 0.552 0.448 1 1 1zM22.997 24c0.506 0 0.925-0.376 0.991-0.864l0.009-0.136v-16.919l2.96 2.959c0.355 0.355 0.911 0.387 1.302 0.097l0.112-0.097c0.355-0.355 0.387-0.911 0.097-1.302l-0.097-0.112-4.667-4.667c-0.355-0.355-0.911-0.387-1.302-0.097l-0.112 0.097-4.667 4.667c-0.391 0.391-0.391 1.024 0 1.414 0.355 0.355 0.911 0.387 1.302 0.097l0.112-0.097 2.96-2.959v16.919c0 0.552 0.448 1 1 1zM9 29.333c3.498 0 6.333-2.835 6.333-6.333 0-2.673-1.656-4.96-3.998-5.889l0.001 2.238c1.202 0.77 1.998 2.118 1.998 3.651 0 2.393-1.94 4.333-4.333 4.333s-4.333-1.94-4.333-4.333c0-1.534 0.797-2.882 1.999-3.652l0-2.238c-2.343 0.929-4 3.216-4 5.89 0 3.498 2.836 6.333 6.333 6.333zM22.997 29.333c3.498 0 6.333-2.835 6.333-6.333 0-2.673-1.656-4.96-3.998-5.889l0 2.238c1.202 0.77 1.998 2.118 1.998 3.651 0 2.393-1.94 4.333-4.333 4.333s-4.333-1.94-4.333-4.333c0-1.534 0.797-2.882 1.999-3.652l0.001-2.238c-2.343 0.929-4 3.216-4 5.89 0 3.498 2.835 6.333 6.333 6.333z"></path>
</svg>
