<!-- Generated by IcoMoon.io -->
<svg version="1.1" xmlns="http://www.w3.org/2000/svg" width="32" height="32" viewBox="0 0 32 32">
<title>double-tap-swipe-up-regular</title>
<path d="M16.707 2.96c-0.181-0.181-0.431-0.292-0.707-0.292s-0.526 0.112-0.707 0.292v0l-4.667 4.667c-0.166 0.178-0.268 0.418-0.268 0.682 0 0.552 0.448 1 1 1 0.264 0 0.504-0.102 0.682-0.269l-0.001 0.001 2.96-2.96v14.253c0 0.552 0.448 1 1 1s1-0.448 1-1v0-14.253l2.96 2.96c0.183 0.196 0.443 0.318 0.732 0.318 0.552 0 1-0.448 1-1 0-0.289-0.122-0.549-0.318-0.731l-0.001-0.001-4.667-4.667zM6.667 20c0-4.326 2.942-7.965 6.935-9.025l0.065-0.015v2.085c-2.931 1.005-5 3.737-5 6.952 0 4.050 3.283 7.333 7.333 7.333s7.333-3.283 7.333-7.333c0-3.215-2.069-5.947-4.948-6.937l-0.052-0.015v-2.085c4.058 1.073 7 4.712 7 9.037 0 5.155-4.179 9.333-9.333 9.333-5.154 0-9.332-4.177-9.333-9.33v-0zM10 20c0-0 0-0 0-0.001 0-2.471 1.494-4.594 3.628-5.514l0.039-0.015v2.28c-1.014 0.735-1.667 1.916-1.667 3.249 0 2.209 1.791 4 4 4s4-1.791 4-4c0-1.333-0.652-2.514-1.655-3.241l-0.012-0.008v-2.28c2.174 0.934 3.669 3.057 3.669 5.53 0 3.314-2.687 6.001-6.001 6.001s-6.001-2.687-6.001-6.001c0-0 0-0 0-0v0z"></path>
</svg>
