<!-- Generated by IcoMoon.io -->
<svg version="1.1" xmlns="http://www.w3.org/2000/svg" width="32" height="32" viewBox="0 0 32 32">
<title>double-swipe-down-regular</title>
<path d="M9 8c0.504 0 0.921 0.373 0.99 0.859l0.001 0.005 0.009 0.136v16.919l2.96-2.96c0.181-0.181 0.431-0.292 0.706-0.292 0.224 0 0.431 0.074 0.598 0.198l-0.003-0.002 0.112 0.097c0.181 0.181 0.293 0.431 0.293 0.707 0 0.224-0.073 0.43-0.198 0.597l0.002-0.003-0.097 0.112-4.667 4.667c-0.181 0.181-0.431 0.293-0.707 0.293-0.224 0-0.43-0.073-0.597-0.198l0.003 0.002-0.112-0.097-4.667-4.667c-0.179-0.181-0.29-0.43-0.29-0.704 0-0.552 0.448-1 1-1 0.223 0 0.428 0.073 0.594 0.196l-0.003-0.002 0.112 0.097 2.96 2.959v-16.919c0-0.552 0.448-1 1-1v0zM22.997 8c0.504 0 0.921 0.373 0.99 0.859l0.001 0.005 0.009 0.136v16.919l2.96-2.96c0.181-0.181 0.431-0.292 0.706-0.292 0.224 0 0.431 0.074 0.598 0.198l-0.003-0.002 0.112 0.097c0.181 0.181 0.293 0.431 0.293 0.707 0 0.224-0.073 0.43-0.198 0.597l0.002-0.003-0.097 0.112-4.667 4.667c-0.181 0.181-0.431 0.293-0.707 0.293-0.224 0-0.43-0.073-0.597-0.198l0.003 0.002-0.113-0.097-4.667-4.667c-0.182-0.181-0.294-0.431-0.294-0.708 0-0.552 0.448-1 1-1 0.225 0 0.432 0.074 0.599 0.199l-0.003-0.002 0.112 0.097 2.96 2.959v-16.919c0-0.552 0.448-1 1-1v0zM9 2.667c0.002 0 0.003 0 0.005 0 3.498 0 6.333 2.836 6.333 6.333 0 2.659-1.639 4.935-3.961 5.874l-0.043 0.015v-2.239c1.21-0.782 1.999-2.124 1.999-3.651 0-2.393-1.94-4.333-4.333-4.333s-4.333 1.94-4.333 4.333c0 1.526 0.789 2.868 1.982 3.64l0.017 0.010v2.24c-2.361-0.957-3.996-3.231-3.996-5.888 0-3.497 2.834-6.333 6.33-6.336h0zM22.997 2.667c0.001 0 0.002 0 0.004 0 3.498 0 6.333 2.836 6.333 6.333 0 2.659-1.639 4.935-3.961 5.874l-0.043 0.015 0.003-2.239c1.209-0.782 1.999-2.124 1.999-3.651 0-2.393-1.94-4.333-4.333-4.333s-4.333 1.94-4.333 4.333c0 1.526 0.789 2.868 1.982 3.64l0.017 0.010v2.24c-2.361-0.957-3.996-3.231-3.996-5.888 0-3.497 2.833-6.332 6.329-6.336h0z"></path>
</svg>
