<!-- Generated by IcoMoon.io -->
<svg version="1.1" xmlns="http://www.w3.org/2000/svg" width="32" height="32" viewBox="0 0 32 32">
<title>drafts-regular</title>
<path d="M27.837 3.768l0.204 0.192 0.193 0.204c0.748 0.839 1.205 1.951 1.205 3.169 0 1.318-0.534 2.511-1.398 3.375l-15.957 15.957c-0.359 0.359-0.809 0.628-1.312 0.768l-0.021 0.005-6.82 1.86c-0.079 0.022-0.169 0.035-0.262 0.035-0.552 0-1-0.448-1-1 0-0.094 0.013-0.184 0.037-0.27l-0.002 0.007 1.859-6.821c0.146-0.524 0.414-0.973 0.773-1.332l15.957-15.957c0.864-0.863 2.056-1.397 3.374-1.397 1.219 0 2.331 0.457 3.175 1.209l-0.005-0.004zM20.001 8.080l-13.251 13.251c-0.12 0.12-0.209 0.269-0.256 0.437l-0.002 0.007-1.4 5.133 5.133-1.4c0.174-0.049 0.323-0.139 0.443-0.259l13.251-13.249-3.919-3.92zM8.701 14.667l-2 2h-3.035c-0.552 0-1-0.448-1-1s0.448-1 1-1v0h5.033zM14.035 9.333l-2 2h-8.368c-0.552 0-1-0.448-1-1s0.448-1 1-1v0h10.367zM22.708 5.373l-1.293 1.293 3.919 3.92 1.293-1.293c0.502-0.502 0.812-1.195 0.812-1.96 0-1.531-1.241-2.771-2.771-2.771-0.765 0-1.458 0.31-1.959 0.811v0zM19.368 4l-2 2h-13.701c-0.552 0-1-0.448-1-1s0.448-1 1-1v0h15.7z"></path>
</svg>
