<!-- Generated by IcoMoon.io -->
<svg version="1.1" xmlns="http://www.w3.org/2000/svg" width="32" height="32" viewBox="0 0 32 32">
<title>draw-text</title>
<path d="M13.332 7.62l-3.687 10.38h7.373l-3.687-10.38zM18.099 21.043l-0.371-1.043h-8.793l-1.659 4.672c-0.142 0.391-0.51 0.666-0.943 0.666-0.552 0-1-0.448-1-1 0-0.12 0.021-0.235 0.060-0.342l-0.002 0.007 6.824-19.213c0.373-1.053 1.861-1.053 2.235 0l5.216 14.687-1.567 1.567zM6.648 27.165c-0.7 0.156-1.549-0.164-2.175-0.507-0.279-0.151-0.649 0.096-0.517 0.384 0.323 0.705 0.975 1.511 2.28 1.673 1.307 0.161 2.355-0.463 3.4-1.087 0.777-0.464 1.553-0.928 2.435-1.065 0.113-0.017 0.192 0.117 0.14 0.221-0.323 0.645-0.475 1.827 0.291 2.424 1.131 0.883 4.316 0.389 5.104 0.117 0.065-0.007 0.131-0.019 0.197-0.036l2.44-0.609c0.655-0.167 1.218-0.496 1.664-0.943l7.871-7.869c0.531-0.548 0.859-1.296 0.859-2.121 0-1.683-1.365-3.048-3.048-3.048-0.825 0-1.574 0.328-2.123 0.861l0.001-0.001-7.869 7.869c-0.446 0.446-0.775 1.008-0.937 1.638l-0.005 0.025-0.571 2.283c-0.472 0.227-0.947 0.269-1.509 0.14-0.168-0.040-0.24-0.233-0.169-0.391 0.573-1.283-0.253-2.368-1.373-2.817-1.273-0.513-2.968 0.687-4.389 1.691-0.789 0.56-1.493 1.057-1.995 1.168z"></path>
</svg>
