<!-- Generated by IcoMoon.io -->
<svg version="1.1" xmlns="http://www.w3.org/2000/svg" width="32" height="32" viewBox="0 0 32 32">
<title>drawer-dismiss-regular</title>
<path d="M29.333 8.667c0 4.050-3.283 7.333-7.333 7.333s-7.333-3.283-7.333-7.333v0c0-4.050 3.283-7.333 7.333-7.333s7.333 3.283 7.333 7.333v0zM19.805 5.528c-0.121-0.121-0.288-0.196-0.472-0.196-0.369 0-0.668 0.299-0.668 0.668 0 0.184 0.075 0.351 0.195 0.472v0l2.196 2.195-2.196 2.195c-0.121 0.121-0.195 0.288-0.195 0.472 0 0.369 0.299 0.668 0.668 0.668 0.184 0 0.351-0.075 0.472-0.195v0l2.195-2.196 2.195 2.196c0.121 0.121 0.288 0.195 0.472 0.195 0.369 0 0.668-0.299 0.668-0.668 0-0.184-0.075-0.351-0.195-0.472l-2.196-2.195 2.196-2.195c0.121-0.121 0.195-0.288 0.195-0.472 0-0.369-0.299-0.668-0.668-0.668-0.184 0-0.351 0.075-0.472 0.196l-2.195 2.196-2.195-2.196zM28 14.92c-0.578 0.555-1.235 1.034-1.953 1.415l-0.047 0.023v2.309h-6.077c-0.51 0-0.923 0.413-0.923 0.923v0 0.077c0 1.657-1.343 3-3 3s-3-1.343-3-3v0-0.077c0-0.51-0.413-0.923-0.923-0.923v0h-6.077v-6h8.309c-0.307-0.575-0.562-1.241-0.732-1.941l-0.012-0.059h-7.565v-1c0-1.288 1.045-2.333 2.333-2.333h5.101c0.118-0.75 0.314-1.423 0.584-2.056l-0.021 0.056h-5.664c-2.393 0-4.333 1.94-4.333 4.333v0 15.333c0 2.393 1.94 4.333 4.333 4.333v0h15.333c2.393 0 4.333-1.94 4.333-4.333v0-10.080zM26 20.667v4.333c0 1.289-1.045 2.333-2.333 2.333v0h-15.333c-1.289 0-2.333-1.045-2.333-2.333v0-4.333h5.1c0.482 2.298 2.492 4 4.9 4s4.418-1.701 4.894-3.967l0.006-0.033h5.1z"></path>
</svg>
