<!-- Generated by IcoMoon.io -->
<svg version="1.1" xmlns="http://www.w3.org/2000/svg" width="32" height="32" viewBox="0 0 32 32">
<title>drawer-download</title>
<path d="M14.667 8.667c0-3.825 2.929-6.967 6.667-7.303v7.694l-2.195-2.195c-0.26-0.26-0.683-0.26-0.943 0s-0.26 0.682 0 0.943l3.333 3.333c0.26 0.26 0.683 0.26 0.943 0l3.333-3.333c0.26-0.26 0.26-0.682 0-0.943s-0.683-0.26-0.943 0l-2.195 2.195v-7.694c3.738 0.337 6.667 3.478 6.667 7.303 0 4.050-3.283 7.333-7.333 7.333s-7.333-3.283-7.333-7.333zM26 12.667c0-0.368-0.299-0.667-0.667-0.667h-6.667c-0.368 0-0.667 0.298-0.667 0.667s0.299 0.667 0.667 0.667h6.667c0.368 0 0.667-0.298 0.667-0.667zM28 14.921c-0.592 0.569-1.265 1.054-2 1.437v2.31h-6.077c-0.51 0-0.923 0.413-0.923 0.923v0.077c0 1.657-1.343 3-3 3s-3-1.343-3-3v-0.077c0-0.51-0.413-0.923-0.923-0.923h-6.077v-6h8.31c-0.326-0.626-0.578-1.296-0.744-2h-7.565v-1c0-1.289 1.045-2.333 2.333-2.333h5.102c0.108-0.698 0.299-1.368 0.562-2h-5.664c-2.393 0-4.333 1.94-4.333 4.333v15.333c0 2.393 1.94 4.333 4.333 4.333h15.333c2.393 0 4.333-1.94 4.333-4.333v-10.079zM26 20.667v4.333c0 1.289-1.045 2.333-2.333 2.333h-15.333c-1.289 0-2.333-1.045-2.333-2.333v-4.333h5.1c0.463 2.282 2.481 4 4.9 4s4.437-1.718 4.9-4h5.1z"></path>
</svg>
