<!-- Generated by IcoMoon.io -->
<svg version="1.1" xmlns="http://www.w3.org/2000/svg" width="32" height="32" viewBox="0 0 32 32">
<title>drink-beer-regular</title>
<path d="M11.333 13.333c0-0.552-0.448-1-1-1s-1 0.448-1 1v0 9.333c0 0.552 0.448 1 1 1s1-0.448 1-1v0-9.333zM15.333 13.333c0-0.552-0.448-1-1-1s-1 0.448-1 1v0 9.333c0 0.552 0.448 1 1 1s1-0.448 1-1v0-9.333zM19.333 13.333c0-0.552-0.448-1-1-1s-1 0.448-1 1v0 9.333c0 0.552 0.448 1 1 1s1-0.448 1-1v0-9.333zM5.333 7c0-2.393 1.94-4.333 4.333-4.333v0h9.333c2.393 0 4.333 1.94 4.333 4.333v0 1h1.667c2.393 0 4.333 1.94 4.333 4.333v0 7.333c0 2.393-1.94 4.333-4.333 4.333v0h-1.667v2.333c0 1.657-1.343 3-3 3v0h-12c-1.657 0-3-1.343-3-3v0-19.333zM21.333 10h-14v16.333c0 0.552 0.448 1 1 1h12c0.552 0 1-0.448 1-1v0-16.333zM23.333 22h1.667c1.289 0 2.333-1.045 2.333-2.333v0-7.333c0-1.289-1.045-2.333-2.333-2.333v0h-1.667v12zM21.333 7c0-1.289-1.045-2.333-2.333-2.333v0h-9.333c-1.289 0-2.333 1.045-2.333 2.333v0 1h14v-1z"></path>
</svg>
