<!-- Generated by IcoMoon.io -->
<svg version="1.1" xmlns="http://www.w3.org/2000/svg" width="32" height="32" viewBox="0 0 32 32">
<title>drink-bottle-off</title>
<path d="M9.432 10.847l-7.14-7.14c-0.181-0.181-0.293-0.431-0.293-0.707 0-0.552 0.448-1 1-1 0.276 0 0.526 0.112 0.708 0.293l26 26c0.174 0.18 0.281 0.425 0.281 0.695 0 0.552-0.448 1-1 1-0.27 0-0.515-0.107-0.695-0.281l-3.312-3.312c-0.208 2.032-1.911 3.604-3.98 3.604-0.949 0-1.821-0.331-2.507-0.883l0.008 0.006c-0.676 0.547-1.547 0.878-2.495 0.878-0.002 0-0.004 0-0.006 0h0c-0.001 0-0.003 0-0.005 0-0.948 0-1.819-0.331-2.503-0.884l0.008 0.006c-0.678 0.547-1.55 0.878-2.5 0.878-2.209 0-4-1.791-4-3.999v-9c0-0.004 0-0.009 0-0.014 0-2.378 0.925-4.539 2.435-6.144l-0.004 0.005zM22.586 24h-13.586v2c0 0 0 0.001 0 0.001 0 1.105 0.895 2 2 2 0.694 0 1.305-0.353 1.663-0.889l0.005-0.007c0.182-0.27 0.487-0.446 0.832-0.446s0.651 0.176 0.83 0.442l0.002 0.004c0.36 0.542 0.973 0.895 1.667 0.895 0.695 0 1.308-0.353 1.668-0.895 0.182-0.27 0.487-0.446 0.832-0.446s0.651 0.176 0.83 0.442l0.002 0.004c0.363 0.543 0.974 0.895 1.667 0.895 1.105 0 2-0.895 2-2v0-1.586l-0.414-0.414zM20.586 22l-9-9h-1.331c-0.786 1.112-1.257 2.496-1.257 3.991 0 0.055 0.001 0.109 0.002 0.164l-0-0.008v4.854h11.585zM23 17.2v2.262l2 2v-4.462c0-0.002 0-0.004 0-0.006 0-2.983-1.453-5.627-3.69-7.262l-0.025-0.018c-1.029-1.018-1.708-1.857-1.907-2.872 0.955-0.366 1.621-1.276 1.621-2.341 0-1.381-1.119-2.5-2.499-2.501h-5c-0 0-0.001 0-0.001 0-1.381 0-2.5 1.119-2.5 2.5 0 1.036 0.63 1.925 1.528 2.304l0.016 0.006c-0.1 0.54-0.334 1.026-0.682 1.514l1.43 1.43c0.566-0.734 1.024-1.565 1.214-2.553h2.905c0.305 1.597 1.312 2.777 2.332 3.799h-5.204l2 2h5.208c0.785 1.112 1.255 2.496 1.255 3.989 0 0.042-0 0.084-0.001 0.125l0-0.006v0.020c-0 0.009-0.001 0.018-0.001 0.029s0 0.020 0.001 0.030l-0-0.001v0.015zM13 4.5c0-0.276 0.224-0.5 0.5-0.5v0h5c0.276 0 0.5 0.224 0.5 0.5s-0.224 0.5-0.5 0.5v0h-5c-0.276 0-0.5-0.224-0.5-0.5v0z"></path>
</svg>
