<!-- Generated by IcoMoon.io -->
<svg version="1.1" xmlns="http://www.w3.org/2000/svg" width="32" height="32" viewBox="0 0 32 32">
<title>drink-bottle</title>
<path d="M13.5 2c-0.001 0-0.002 0-0.003 0-1.381 0-2.5 1.119-2.5 2.5 0 1.036 0.63 1.925 1.528 2.304l0.016 0.006c-0.21 1.138-1.020 2.042-2.235 3.218-0.433 0.356-0.819 0.736-1.169 1.147l-0.011 0.013c-1.325 1.553-2.131 3.585-2.131 5.804 0 0.073 0.001 0.146 0.003 0.219l-0-0.011v8.8c0 2.209 1.791 4 4 4 0.95 0 1.822-0.331 2.508-0.884l-0.008 0.006c0.676 0.547 1.547 0.878 2.495 0.878 0.002 0 0.004 0 0.005 0h-0c0.946 0 1.816-0.33 2.5-0.878 0.678 0.547 1.55 0.878 2.5 0.878 2.209 0 4-1.791 4-3.999v-9.001c0-0.002 0-0.003 0-0.005 0-2.983-1.453-5.627-3.69-7.262l-0.025-0.018c-1.029-1.018-1.708-1.857-1.908-2.872 0.957-0.365 1.625-1.275 1.625-2.342 0-1.38-1.119-2.5-2.499-2.5h-5zM13 4.5c0-0.276 0.224-0.5 0.5-0.5v0h5c0.276 0 0.5 0.224 0.5 0.5s-0.224 0.5-0.5 0.5v0h-5c-0.276 0-0.5-0.224-0.5-0.5v0zM19.74 11h-7.57c1.025-1.025 2.027-2.209 2.331-3.8h2.905c0.306 1.598 1.313 2.778 2.333 3.8zM10.252 13h11.492c0.785 1.112 1.255 2.495 1.255 3.988 0 0.055-0.001 0.111-0.002 0.166l0-0.008 0.001 0.054v4.8h-14v-4.8c-0-0.014-0-0.030-0-0.047s0-0.033 0.001-0.049l-0 0.002v-0.107c0-1.488 0.463-2.866 1.254-4zM8.998 24h14v2c-0 1.105-0.895 2-2 2-0.693 0-1.304-0.352-1.662-0.888l-0.005-0.007c-0.182-0.271-0.487-0.447-0.833-0.447s-0.651 0.176-0.831 0.443l-0.002 0.004c-0.36 0.541-0.972 0.895-1.667 0.895-0 0-0.001 0-0.002 0-0.692 0-1.303-0.352-1.661-0.888l-0.005-0.007c-0.182-0.271-0.487-0.447-0.833-0.447s-0.651 0.176-0.831 0.443l-0.002 0.004c-0.363 0.543-0.974 0.895-1.667 0.895-1.105 0-2-0.895-2-2v0-2z"></path>
</svg>
