<!-- Generated by IcoMoon.io -->
<svg version="1.1" xmlns="http://www.w3.org/2000/svg" width="32" height="32" viewBox="0 0 32 32">
<title>drink-margarita</title>
<path d="M26.498 4.653c0.545-0.091 0.913-0.606 0.822-1.151s-0.606-0.913-1.151-0.822l-8 1.333c-0.41 0.068-0.735 0.383-0.816 0.79l-0.373 1.863h-9.313c-0.552 0-1 0.448-1 1v5.333c0 2.281 1.763 4.151 4 4.321v0.679c0 2.604 1.866 4.772 4.333 5.24v4.094h-3.333c-0.552 0-1 0.448-1 1s0.448 1 1 1h8.667c0.552 0 1-0.448 1-1s-0.448-1-1-1h-3.333v-4.094c2.467-0.468 4.333-2.636 4.333-5.24v-0.679c2.237-0.17 4-2.040 4-4.321v-5.333c0-0.552-0.448-1-1-1h-5.314l0.159-0.794 7.319-1.22zM23.333 10.667h-5.114l0.4-2h4.714v2zM17.82 12.667h5.514v0.333c0 1.289-1.045 2.333-2.333 2.333h-0.667c-0.552 0-1 0.448-1 1v1.667c0 1.841-1.492 3.333-3.333 3.333s-3.333-1.492-3.333-3.333v-1.667c0-0.552-0.448-1-1-1h-0.667c-1.289 0-2.333-1.045-2.333-2.333v-0.333h7.113l-1.094 5.471c-0.108 0.542 0.243 1.068 0.784 1.177s1.068-0.243 1.177-0.785l1.173-5.863zM16.18 10.667h-7.513v-2h7.913l-0.4 2z"></path>
</svg>
