<!-- Generated by IcoMoon.io -->
<svg version="1.1" xmlns="http://www.w3.org/2000/svg" width="32" height="32" viewBox="0 0 32 32">
<title>drink-coffee</title>
<path d="M5.255 6.667c-1.429 0-2.588 1.159-2.588 2.588v6.745c0 5.891 4.776 10.667 10.667 10.667 5.349 0 9.778-3.937 10.548-9.070h0.984c2.466 0 4.465-1.999 4.465-4.465s-1.999-4.465-4.465-4.465h-0.932c-0.266-1.146-1.294-2-2.521-2h-16.157zM4.667 9.255c0-0.325 0.263-0.588 0.588-0.588h16.157c0.325 0 0.588 0.263 0.588 0.588v6.745c0 4.787-3.88 8.667-8.667 8.667s-8.667-3.88-8.667-8.667v-6.745zM24 10.667h0.865c1.361 0 2.465 1.104 2.465 2.465s-1.103 2.465-2.465 2.465h-0.865v-4.93z"></path>
</svg>
