<!-- Generated by IcoMoon.io -->
<svg version="1.1" xmlns="http://www.w3.org/2000/svg" width="32" height="32" viewBox="0 0 32 32">
<title>drink-wine</title>
<path d="M21.239 13.005c0.104-0.542-0.252-1.066-0.795-1.17s-1.066 0.252-1.17 0.795c-0.061 0.321-0.169 0.626-0.316 0.908-0.182 0.35-0.425 0.664-0.715 0.927-0.281 0.256-0.605 0.464-0.96 0.612-0.191 0.080-0.391 0.142-0.599 0.186-0.541 0.113-0.887 0.643-0.775 1.183s0.643 0.887 1.183 0.775c0.333-0.069 0.654-0.17 0.961-0.298 0.569-0.238 1.087-0.571 1.535-0.979 0.462-0.421 0.85-0.922 1.142-1.482 0.235-0.451 0.408-0.941 0.507-1.457z"></path>
<path d="M8 3.667c0-0.552 0.448-1 1-1h14c0.552 0 1 0.448 1 1v8.667c0 4.264-3.202 7.78-7.333 8.274v6.738l3.663-0.012c0.552-0.002 1.001 0.445 1.003 0.997s-0.445 1.001-0.997 1.003l-4.674 0.015-4-0.015c-0.552-0.002-0.998-0.451-0.996-1.004s0.451-0.998 1.004-0.996l2.996 0.011v-6.742c-3.762-0.49-6.667-3.707-6.667-7.602v-9.333zM10 4.667v3.667h12v-3.667h-12zM10 13c0 3.13 2.537 5.667 5.667 5.667 3.498 0 6.333-2.835 6.333-6.333v-2h-12v2.667z"></path>
</svg>
