<!-- Generated by IcoMoon.io -->
<svg version="1.1" xmlns="http://www.w3.org/2000/svg" width="32" height="32" viewBox="0 0 32 32">
<title>drink-wine</title>
<path d="M21.239 13.005c0.009-0.049 0.013-0.106 0.013-0.164 0-0.552-0.448-1-1-1-0.478 0-0.877 0.335-0.976 0.782l-0.001 0.007c-0.143 0.733-0.511 1.363-1.028 1.832l-0.003 0.002c-0.424 0.387-0.952 0.667-1.537 0.793l-0.022 0.004c-0.458 0.098-0.796 0.499-0.796 0.979 0 0.553 0.448 1 1 1 0.072 0 0.143-0.008 0.211-0.022l-0.007 0.001c0.972-0.207 1.818-0.656 2.5-1.281l-0.004 0.004c0.829-0.757 1.416-1.766 1.642-2.905l0.006-0.034zM8 3.667c0-0.552 0.448-1 1-1v0h14c0.552 0 1 0.448 1 1v0 8.667c0 0 0 0 0 0 0 4.25-3.181 7.757-7.293 8.27l-0.041 0.004v6.737l3.664-0.012c0.001 0 0.002 0 0.003 0 0.552 0 1 0.448 1 1s-0.446 0.998-0.997 1l-4.673 0.015-4-0.015c-0.551-0.002-0.996-0.449-0.996-1 0-0.552 0.448-1 1-1 0.001 0 0.003 0 0.004 0l2.996 0.011v-6.741c-3.782-0.512-6.667-3.721-6.667-7.602 0-0 0-0 0-0v0-9.333zM10 4.667v3.667h12v-3.667h-12zM10 13c0 3.13 2.537 5.667 5.667 5.667v0c3.498 0 6.333-2.836 6.333-6.333v0-2h-12v2.667z"></path>
</svg>
