<!-- Generated by IcoMoon.io -->
<svg version="1.1" xmlns="http://www.w3.org/2000/svg" width="32" height="32" viewBox="0 0 32 32">
<title>drink-to-go</title>
<path d="M20.96 2.96c0.391-0.391 1.024-0.391 1.414 0s0.391 1.024 0 1.414l-1.628 1.626h2.921c0.423 0 0.8 0.266 0.942 0.664l1.667 4.667c0.233 0.651-0.25 1.336-0.942 1.336h-1.393l-2.117 13.399c-0.279 1.954-1.945 3.268-3.96 3.268h-3.728c-2.014 0-3.681-1.314-3.958-3.253l-2.119-13.414h-1.392c-0.692 0-1.174-0.685-0.942-1.336l1.667-4.667c0.142-0.398 0.519-0.664 0.942-0.664h9.584l3.042-3.040zM21.915 12.667h-11.832l2.073 13.116c0.132 0.927 0.923 1.551 1.98 1.551h3.728c1.057 0 1.847-0.624 1.982-1.565l2.069-13.102zM22.962 8h-13.924l-0.952 2.667h15.829l-0.952-2.667z"></path>
</svg>
