<!-- Generated by IcoMoon.io -->
<svg version="1.1" xmlns="http://www.w3.org/2000/svg" width="32" height="32" viewBox="0 0 32 32">
<title>drink-beer</title>
<path d="M11.333 13.333c0-0.552-0.448-1-1-1s-1 0.448-1 1v9.333c0 0.552 0.448 1 1 1s1-0.448 1-1v-9.333z"></path>
<path d="M15.333 13.333c0-0.552-0.448-1-1-1s-1 0.448-1 1v9.333c0 0.552 0.448 1 1 1s1-0.448 1-1v-9.333z"></path>
<path d="M19.333 13.333c0-0.552-0.448-1-1-1s-1 0.448-1 1v9.333c0 0.552 0.448 1 1 1s1-0.448 1-1v-9.333z"></path>
<path d="M5.333 7c0-2.393 1.94-4.333 4.333-4.333h9.333c2.393 0 4.333 1.94 4.333 4.333v1h1.667c2.393 0 4.333 1.94 4.333 4.333v7.333c0 2.393-1.94 4.333-4.333 4.333h-1.667v2.333c0 1.657-1.343 3-3 3h-12c-1.657 0-3-1.343-3-3v-19.333zM21.333 10h-14v16.333c0 0.552 0.448 1 1 1h12c0.552 0 1-0.448 1-1v-16.333zM23.333 22h1.667c1.289 0 2.333-1.045 2.333-2.333v-7.333c0-1.289-1.045-2.333-2.333-2.333h-1.667v12zM21.333 7c0-1.289-1.045-2.333-2.333-2.333h-9.333c-1.289 0-2.333 1.045-2.333 2.333v1h14v-1z"></path>
</svg>
