<!-- Generated by IcoMoon.io -->
<svg version="1.1" xmlns="http://www.w3.org/2000/svg" width="32" height="32" viewBox="0 0 32 32">
<title>drive-train</title>
<path d="M7.333 4c-1.841 0-3.333 1.492-3.333 3.333v4c0 1.841 1.492 3.333 3.333 3.333s3.333-1.492 3.333-3.333v-0.667h3.023c0.296 0.511 0.757 0.916 1.31 1.139v8.388c-0.553 0.224-1.014 0.628-1.31 1.139h-3.023v-0.667c0-1.841-1.492-3.333-3.333-3.333s-3.333 1.492-3.333 3.333v4c0 1.841 1.492 3.333 3.333 3.333s3.333-1.492 3.333-3.333v-1.333h2.751c0.296 1.15 1.34 2 2.583 2s2.287-0.85 2.583-2h2.751v1.333c0 1.841 1.492 3.333 3.333 3.333s3.333-1.492 3.333-3.333v-4c0-1.841-1.492-3.333-3.333-3.333s-3.333 1.492-3.333 3.333v0.667h-3.023c-0.296-0.511-0.757-0.916-1.31-1.139v-8.388c0.553-0.224 1.014-0.628 1.31-1.139h3.023v0.667c0 1.841 1.492 3.333 3.333 3.333s3.333-1.492 3.333-3.333v-4c0-1.841-1.492-3.333-3.333-3.333s-3.333 1.492-3.333 3.333v1.333h-2.751c-0.296-1.15-1.34-2-2.583-2s-2.287 0.85-2.583 2h-2.751v-1.333c0-1.841-1.492-3.333-3.333-3.333zM6 7.333c0-0.736 0.597-1.333 1.333-1.333s1.333 0.597 1.333 1.333v4c0 0.736-0.597 1.333-1.333 1.333s-1.333-0.597-1.333-1.333v-4zM7.333 19.333c0.736 0 1.333 0.597 1.333 1.333v4c0 0.736-0.597 1.333-1.333 1.333s-1.333-0.597-1.333-1.333v-4c0-0.736 0.597-1.333 1.333-1.333zM23.333 7.333c0-0.736 0.597-1.333 1.333-1.333s1.333 0.597 1.333 1.333v4c0 0.736-0.597 1.333-1.333 1.333s-1.333-0.597-1.333-1.333v-4zM24.667 19.333c0.736 0 1.333 0.597 1.333 1.333v4c0 0.736-0.597 1.333-1.333 1.333s-1.333-0.597-1.333-1.333v-4c0-0.736 0.597-1.333 1.333-1.333z"></path>
</svg>
