<!-- Generated by IcoMoon.io -->
<svg version="1.1" xmlns="http://www.w3.org/2000/svg" width="32" height="32" viewBox="0 0 32 32">
<title>drive-train-regular</title>
<path d="M7.333 4c-1.841 0-3.333 1.492-3.333 3.333v0 4c0 1.841 1.492 3.333 3.333 3.333s3.333-1.492 3.333-3.333v0-0.667h3.024c0.295 0.512 0.756 0.916 1.309 1.14v8.387c-0.553 0.224-1.013 0.628-1.309 1.14h-3.024v-0.667c0-1.841-1.492-3.333-3.333-3.333s-3.333 1.492-3.333 3.333v0 4c0 1.841 1.492 3.333 3.333 3.333s3.333-1.492 3.333-3.333v0-1.333h2.751c0.306 1.161 1.346 2.003 2.583 2.003s2.277-0.842 2.579-1.984l0.004-0.019h2.751v1.333c0 1.841 1.492 3.333 3.333 3.333s3.333-1.492 3.333-3.333v0-4c0-1.841-1.492-3.333-3.333-3.333s-3.333 1.492-3.333 3.333v0 0.667h-3.024c-0.3-0.513-0.751-0.909-1.292-1.133l-0.018-0.007v-8.387c0.553-0.224 1.013-0.628 1.309-1.14h3.024v0.667c0 1.841 1.492 3.333 3.333 3.333s3.333-1.492 3.333-3.333v0-4c0-1.841-1.492-3.333-3.333-3.333s-3.333 1.492-3.333 3.333v0 1.333h-2.751c-0.306-1.161-1.346-2.003-2.583-2.003s-2.277 0.842-2.579 1.984l-0.004 0.019h-2.751v-1.333c0-1.841-1.492-3.333-3.333-3.333v0zM6 7.333c0-0.736 0.597-1.333 1.333-1.333s1.333 0.597 1.333 1.333v0 4c0 0.736-0.597 1.333-1.333 1.333s-1.333-0.597-1.333-1.333v0-4zM7.333 19.333c0.736 0 1.333 0.597 1.333 1.333v0 4c0 0.736-0.597 1.333-1.333 1.333s-1.333-0.597-1.333-1.333v0-4c0-0.736 0.597-1.333 1.333-1.333v0zM23.333 7.333c0-0.736 0.597-1.333 1.333-1.333s1.333 0.597 1.333 1.333v0 4c0 0.736-0.597 1.333-1.333 1.333s-1.333-0.597-1.333-1.333v0-4zM24.667 19.333c0.736 0 1.333 0.597 1.333 1.333v0 4c0 0.736-0.597 1.333-1.333 1.333s-1.333-0.597-1.333-1.333v0-4c0-0.736 0.597-1.333 1.333-1.333v0z"></path>
</svg>
