<!-- Generated by IcoMoon.io -->
<svg version="1.1" xmlns="http://www.w3.org/2000/svg" width="32" height="32" viewBox="0 0 32 32">
<title>drop</title>
<path d="M15.293 2.96c0.391-0.391 1.024-0.391 1.414 0 0.537 0.537 2.664 2.837 4.665 5.816 1.973 2.938 3.961 6.737 3.961 10.224 0 3.365-0.995 5.972-2.726 7.741-1.729 1.768-4.088 2.592-6.607 2.592s-4.878-0.825-6.607-2.592c-1.731-1.769-2.726-4.376-2.726-7.741 0-3.487 1.989-7.286 3.961-10.224 2-2.979 4.127-5.279 4.665-5.816zM12.289 9.891c-1.944 2.895-3.622 6.263-3.622 9.109 0 2.969 0.87 5.028 2.156 6.342 1.287 1.316 3.095 1.991 5.178 1.991s3.891-0.675 5.178-1.991c1.285-1.314 2.156-3.374 2.156-6.342 0-2.847-1.678-6.214-3.622-9.109-1.388-2.067-2.84-3.791-3.711-4.76-0.871 0.97-2.324 2.694-3.711 4.76z"></path>
</svg>
