<!-- Generated by IcoMoon.io -->
<svg version="1.1" xmlns="http://www.w3.org/2000/svg" width="32" height="32" viewBox="0 0 32 32">
<title>drop</title>
<path d="M16 2.667c0.221 0 0.433 0.088 0.589 0.244l0.157 0.155c0.757 0.75 2.833 2.807 4.782 5.485 2.085 2.865 4.139 6.589 4.139 10.282 0 3.584-1.066 6.238-2.875 7.993-1.802 1.75-4.239 2.507-6.792 2.507s-4.99-0.757-6.792-2.507c-1.808-1.755-2.875-4.409-2.875-7.993 0-3.69 2.009-7.371 4.075-10.219 1.927-2.654 3.997-4.707 4.823-5.527l0.179-0.177c0.151-0.151 0.359-0.244 0.589-0.244 0 0 0 0 0 0v0zM11.758 9.593c-2.017 2.779-3.758 6.097-3.758 9.24 0 3.249 0.958 5.429 2.369 6.798 1.418 1.375 3.398 2.035 5.631 2.035s4.213-0.66 5.631-2.035c1.411-1.369 2.369-3.549 2.369-6.798 0-3.14-1.78-6.5-3.82-9.301-1.579-2.17-3.247-3.917-4.18-4.856-0.965 0.97-2.656 2.732-4.242 4.918z"></path>
</svg>
