<!-- Generated by IcoMoon.io -->
<svg version="1.1" xmlns="http://www.w3.org/2000/svg" width="32" height="32" viewBox="0 0 32 32">
<title>dual-screen-vibrate</title>
<path d="M22.333 7.995c0 0 0.001 0 0.001 0 1.222 0 2.224 0.939 2.325 2.134l0.001 0.009 0.008 0.191v12.672c-0 1.221-0.939 2.224-2.134 2.325l-0.009 0.001-0.191 0.008h-12.669c-1.221-0-2.224-0.939-2.325-2.134l-0.001-0.009-0.008-0.191v-12.672c0-1.221 0.939-2.224 2.134-2.325l0.009-0.001 0.191-0.008h12.669zM15.333 9.995h-5.667c-0 0-0.001 0-0.001 0-0.157 0-0.289 0.109-0.324 0.255l-0 0.002-0.009 0.076v12.672c0 0.157 0.109 0.288 0.255 0.324l0.002 0 0.076 0.009h5.668v-13.34zM22.333 9.995h-5.667v13.339h5.667c0 0 0.001 0 0.001 0 0.157 0 0.288-0.108 0.324-0.254l0-0.002 0.009-0.076v-12.673c-0-0.157-0.109-0.288-0.255-0.324l-0.002-0-0.076-0.009zM20.333 20.008c0.003-0 0.007-0 0.010-0 0.552 0 1 0.448 1 1 0 0.508-0.379 0.927-0.869 0.991l-0.005 0.001-0.136 0.008h-1.333c-0.552-0-1-0.448-1-1 0-0.504 0.373-0.921 0.858-0.99l0.005-0.001 0.136-0.008h1.333zM13 20.008c0.002-0 0.005-0 0.007-0 0.552 0 1 0.448 1 1 0 0.508-0.379 0.927-0.869 0.991l-0.005 0.001-0.136 0.008h-1.331c-0.552-0-1-0.448-1-1 0-0.504 0.373-0.921 0.858-0.99l0.005-0.001 0.136-0.008h1.333zM28.155 10.717l0.080 0.121 0.060 0.123 0.776 1.941c0.166 0.403 0.262 0.871 0.262 1.362 0 0.74-0.219 1.429-0.596 2.005l0.009-0.014-0.145 0.209-0.201 0.268c-0.209 0.275-0.334 0.623-0.334 1.001 0 0.155 0.021 0.305 0.061 0.448l-0.003-0.012 0.061 0.183 0.777 1.941c0.048 0.113 0.075 0.243 0.075 0.381 0 0.552-0.448 1-1 1-0.374 0-0.7-0.205-0.871-0.509l-0.003-0.005-0.059-0.124-0.777-1.941c-0.166-0.403-0.262-0.871-0.262-1.362 0-0.74 0.219-1.429 0.596-2.005l-0.009 0.014 0.147-0.209 0.201-0.268c0.208-0.275 0.333-0.623 0.333-1 0-0.156-0.021-0.306-0.061-0.449l0.003 0.012-0.060-0.181-0.777-1.943c-0.046-0.11-0.072-0.239-0.072-0.373 0-0.552 0.448-1 1-1 0.32 0 0.605 0.15 0.788 0.384l0.002 0.002zM4.756 10.717l0.080 0.121 0.060 0.123 0.777 1.941c0.166 0.403 0.262 0.871 0.262 1.362 0 0.74-0.219 1.429-0.596 2.005l0.009-0.014-0.147 0.209-0.201 0.268c-0.208 0.275-0.333 0.623-0.333 1 0 0.156 0.021 0.306 0.061 0.449l-0.003-0.012 0.060 0.181 0.777 1.943c0.046 0.111 0.073 0.24 0.073 0.376 0 0.552-0.448 1-1 1-0.372 0-0.697-0.204-0.869-0.505l-0.003-0.005-0.059-0.123-0.776-1.941c-0.166-0.403-0.262-0.871-0.262-1.362 0-0.74 0.219-1.429 0.596-2.005l-0.009 0.014 0.145-0.209 0.201-0.268c0.209-0.275 0.334-0.623 0.334-1.001 0-0.155-0.021-0.305-0.061-0.448l0.003 0.012-0.061-0.183-0.777-1.941c-0.046-0.11-0.072-0.239-0.072-0.373 0-0.552 0.448-1 1-1 0.32 0 0.605 0.15 0.788 0.384l0.002 0.002z"></path>
</svg>
