<!-- Generated by IcoMoon.io -->
<svg version="1.1" xmlns="http://www.w3.org/2000/svg" width="32" height="32" viewBox="0 0 32 32">
<title>dual-screen-dismiss-regular</title>
<path d="M13.333 8.667c0 0.453 0.035 0.9 0.103 1.336h-8.436c-0.184 0-0.333 0.149-0.333 0.333v0 16.659c0 0.184 0.149 0.333 0.333 0.333h9.997l-0.001-13.556c0.564 0.765 1.224 1.417 1.974 1.954l0.026 0.018v11.587h9.997c0.184 0 0.333-0.149 0.333-0.333v0-11.493c0.787-0.618 1.451-1.348 1.98-2.173l0.021-0.035v13.704c0 1.289-1.045 2.333-2.333 2.333v0l-21.995-0.004c-1.289 0-2.333-1.045-2.333-2.333 0-0 0-0.001 0-0.001v0-16.66c0-1.288 1.045-2.333 2.333-2.333h8.359c-0.016 0.196-0.025 0.424-0.025 0.654 0 0.004 0 0.008 0 0.012v-0.001zM21.652 23.333c0.552 0.001 0.998 0.448 0.998 1 0 0.504-0.373 0.921-0.858 0.99l-0.005 0.001-0.133 0.009h-2c-0.552-0-1-0.448-1-1 0-0.504 0.373-0.921 0.858-0.99l0.005-0.001 0.136-0.009h2zM12.324 23.333c0.552 0 1 0.448 1 1 0 0.504-0.373 0.921-0.858 0.99l-0.005 0.001-0.136 0.009h-2.004c-0.552-0-1-0.448-1-1 0-0.504 0.373-0.921 0.858-0.99l0.005-0.001 0.136-0.009h2.003zM22 1.333c4.050 0 7.333 3.283 7.333 7.333s-3.283 7.333-7.333 7.333v0c-4.050 0-7.333-3.283-7.333-7.333s3.283-7.333 7.333-7.333v0zM19.549 5.288c-0.106-0.074-0.237-0.118-0.379-0.118s-0.273 0.044-0.381 0.12l0.002-0.001-0.093 0.077-0.076 0.093c-0.074 0.106-0.118 0.237-0.118 0.379s0.044 0.273 0.119 0.381l-0.001-0.002 0.077 0.093 2.36 2.359-2.357 2.355-0.076 0.093c-0.074 0.106-0.118 0.237-0.118 0.379s0.044 0.273 0.119 0.381l-0.001-0.002 0.076 0.093 0.093 0.076c0.106 0.074 0.237 0.118 0.379 0.118s0.273-0.044 0.381-0.119l-0.002 0.001 0.093-0.076 2.355-2.356 2.36 2.359 0.092 0.077c0.106 0.074 0.237 0.118 0.379 0.118s0.273-0.044 0.381-0.119l-0.002 0.001 0.093-0.077 0.076-0.093c0.074-0.106 0.118-0.237 0.118-0.379s-0.044-0.273-0.119-0.381l0.001 0.002-0.076-0.093-2.36-2.357 2.363-2.36 0.077-0.092c0.074-0.106 0.118-0.237 0.118-0.379s-0.044-0.273-0.12-0.381l0.001 0.002-0.077-0.092-0.092-0.077c-0.106-0.074-0.237-0.118-0.379-0.118s-0.273 0.044-0.381 0.12l0.002-0.001-0.092 0.077-2.363 2.36-2.36-2.36-0.091-0.077z"></path>
</svg>
