<!-- Generated by IcoMoon.io -->
<svg version="1.1" xmlns="http://www.w3.org/2000/svg" width="32" height="32" viewBox="0 0 32 32">
<title>dual-screen-header-regular</title>
<path d="M16.997 5.336l-0.001 0.003h9.997c1.289 0 2.333 1.045 2.333 2.333v16.661c0 1.289-1.045 2.333-2.333 2.333v0l-21.993-0.003c-1.289 0-2.333-1.045-2.333-2.333 0-0 0-0.001 0-0.001v0-16.66c0-1.289 1.045-2.333 2.333-2.333h11.997zM27.327 9.333h-10.331v15.333h9.997c0.184 0 0.333-0.149 0.333-0.333v0-15zM14.996 9.333h-10.329v14.996c0 0.184 0.149 0.333 0.333 0.333h9.997l-0.001-15.329z"></path>
</svg>
