<!-- Generated by IcoMoon.io -->
<svg version="1.1" xmlns="http://www.w3.org/2000/svg" width="32" height="32" viewBox="0 0 32 32">
<title>dual-screen-lock</title>
<path d="M22.667 6.667v-1.333c0-1.841 1.492-3.333 3.333-3.333s3.333 1.492 3.333 3.333v1.333h0.667c1.105 0 2 0.895 2 2v6.667c0 1.105-0.895 2-2 2h-8c-1.105 0-2-0.895-2-2v-6.667c0-0.232 0.040-0.455 0.112-0.663 0.273-0.779 1.015-1.337 1.888-1.337h0.667zM24.667 5.333v1.333h2.667v-1.333c0-0.736-0.597-1.333-1.333-1.333s-1.333 0.597-1.333 1.333zM27.327 11.872c-0.064-0.676-0.634-1.205-1.327-1.205-0.736 0-1.333 0.597-1.333 1.333s0.597 1.333 1.333 1.333c0.692 0 1.261-0.527 1.327-1.201 0 0 0 0 0 0 0.004-0.043 0.007-0.088 0.007-0.132 0-0.043-0.002-0.086-0.006-0.128zM10.322 23.333h2.002c0.552 0 1 0.448 1 1 0 0.506-0.376 0.925-0.864 0.991l-0.136 0.009h-2.002c-0.552 0-1-0.448-1-1 0-0.506 0.376-0.925 0.864-0.991l0.136-0.009zM16.996 8.004l1.737 0c-0.043 0.214-0.066 0.436-0.066 0.663v1.338h-1.67v17.327h9.997c0.184 0 0.333-0.149 0.333-0.333v-8.331h2v8.331c0 1.289-1.045 2.333-2.333 2.333l-21.993-0.003c-1.289 0-2.333-1.045-2.333-2.333v-16.66c0-1.289 1.045-2.333 2.333-2.333l11.996 0.003zM14.997 10.001h-9.997c-0.184 0-0.333 0.149-0.333 0.333v16.66c0 0.184 0.149 0.333 0.333 0.333h9.997v-17.327zM19.652 23.333h2c0.552 0 1 0.448 1 1 0 0.506-0.376 0.925-0.864 0.991l-0.136 0.009h-2c-0.552 0-1-0.448-1-1 0-0.506 0.376-0.925 0.864-0.991l0.136-0.009z"></path>
</svg>
