<!-- Generated by IcoMoon.io -->
<svg version="1.1" xmlns="http://www.w3.org/2000/svg" width="32" height="32" viewBox="0 0 32 32">
<title>dual-screen-add</title>
<path d="M13.359 8.003c-0.016 0.198-0.025 0.428-0.025 0.661 0 0.473 0.037 0.937 0.109 1.39l-0.007-0.050h-8.436c-0.184 0-0.333 0.149-0.333 0.333v0 16.659c0 0.184 0.149 0.333 0.333 0.333h9.997l-0.001-13.556c0.555 0.76 1.232 1.427 2 1.972v11.587h9.997c0.184 0 0.333-0.149 0.333-0.333v0-11.493c0.787-0.618 1.451-1.348 1.98-2.173l0.021-0.035v13.704c0 1.289-1.045 2.333-2.333 2.333v0l-21.995-0.004c-1.289 0-2.333-1.045-2.333-2.333 0-0 0-0.001 0-0.001v0-16.66c0-1.288 1.045-2.333 2.333-2.333h8.359zM21.652 23.333c0.552 0.001 0.998 0.448 0.998 1 0 0.504-0.373 0.921-0.858 0.99l-0.005 0.001-0.133 0.009h-2c-0.552-0-1-0.448-1-1 0-0.504 0.373-0.921 0.858-0.99l0.005-0.001 0.136-0.009h2zM12.324 23.333c0.552 0 1 0.448 1 1 0 0.504-0.373 0.921-0.858 0.99l-0.005 0.001-0.136 0.009h-2.004c-0.552-0-1-0.448-1-1 0-0.504 0.373-0.921 0.858-0.99l0.005-0.001 0.136-0.009h2.003zM22 1.333c4.050 0 7.333 3.283 7.333 7.333s-3.283 7.333-7.333 7.333v0c-4.050 0-7.333-3.283-7.333-7.333s3.283-7.333 7.333-7.333v0zM22 4l-0.12 0.009c-0.273 0.051-0.485 0.263-0.535 0.532l-0.001 0.004-0.011 0.121v3.333h-3.336l-0.12 0.011c-0.273 0.051-0.485 0.263-0.535 0.532l-0.001 0.004-0.011 0.12 0.011 0.12c0.051 0.273 0.263 0.485 0.532 0.535l0.004 0.001 0.12 0.011h3.336v3.337l0.011 0.12c0.051 0.273 0.263 0.485 0.532 0.535l0.004 0.001 0.12 0.012 0.12-0.012c0.273-0.051 0.485-0.263 0.535-0.532l0.001-0.004 0.011-0.12v-3.337h3.34l0.12-0.011c0.273-0.051 0.485-0.263 0.535-0.532l0.001-0.004 0.011-0.12-0.011-0.12c-0.051-0.273-0.264-0.485-0.533-0.535l-0.004-0.001-0.12-0.011h-3.339v-3.333l-0.011-0.12c-0.059-0.313-0.33-0.547-0.656-0.547-0 0-0 0-0 0v0z"></path>
</svg>
