<!-- Generated by IcoMoon.io -->
<svg version="1.1" xmlns="http://www.w3.org/2000/svg" width="32" height="32" viewBox="0 0 32 32">
<title>dual-screen-arrow-right</title>
<path d="M13.358 8.002c-0.017 0.219-0.025 0.441-0.025 0.665 0 0.454 0.035 0.9 0.102 1.336l-8.436-0.001c-0.184 0-0.333 0.149-0.333 0.333v16.66c0 0.184 0.149 0.333 0.333 0.333h9.997l-0.001-13.557c0.555 0.761 1.232 1.428 2.001 1.972l0 11.588h9.997c0.184 0 0.333-0.149 0.333-0.333l0.001-11.496c0.787-0.614 1.465-1.361 2-2.207l-0.001 13.702c0 1.289-1.045 2.333-2.333 2.333l-21.993-0.003c-1.289 0-2.333-1.045-2.333-2.333v-16.66c0-1.289 1.045-2.333 2.333-2.333l8.358 0zM21.652 23.333c0.552 0 1 0.448 1 1 0 0.506-0.376 0.925-0.864 0.991l-0.136 0.009h-2c-0.552 0-1-0.448-1-1 0-0.506 0.376-0.925 0.864-0.991l0.136-0.009h2zM12.324 23.333c0.552 0 1 0.448 1 1 0 0.506-0.376 0.925-0.864 0.991l-0.136 0.009h-2.002c-0.552 0-1-0.448-1-1 0-0.506 0.376-0.925 0.864-0.991l0.136-0.009h2.002zM22 1.333c4.050 0 7.333 3.283 7.333 7.333s-3.283 7.333-7.333 7.333c-4.050 0-7.333-3.283-7.333-7.333s3.283-7.333 7.333-7.333zM22.389 4.727l-0.102 0.058-0.092 0.077-0.077 0.092c-0.157 0.227-0.157 0.531 0 0.758l0.077 0.092 2.194 2.194-6.397 0.001-0.12 0.011c-0.272 0.049-0.487 0.264-0.536 0.536l-0.011 0.12 0.011 0.12c0.049 0.272 0.264 0.487 0.536 0.536l0.12 0.011 6.4-0.001-2.196 2.197-0.077 0.092c-0.18 0.26-0.154 0.619 0.077 0.85s0.591 0.257 0.851 0.077l0.092-0.077 3.373-3.376 0.049-0.067 0.056-0.107 0.035-0.11 0.013-0.085v-0.118l-0.013-0.085-0.035-0.11-0.056-0.107-0.050-0.067-3.373-3.376-0.092-0.077c-0.195-0.135-0.446-0.154-0.657-0.058z"></path>
</svg>
