<!-- Generated by IcoMoon.io -->
<svg version="1.1" xmlns="http://www.w3.org/2000/svg" width="32" height="32" viewBox="0 0 32 32">
<title>dual-screen-span</title>
<path d="M11.080 13.664c0.367-0.413 0.33-1.045-0.083-1.412s-1.045-0.33-1.412 0.083l-2.667 3c-0.337 0.379-0.337 0.95 0 1.329l2.667 3c0.367 0.413 0.999 0.45 1.412 0.083s0.45-0.999 0.083-1.412l-1.187-1.336h12.213l-1.187 1.336c-0.367 0.413-0.33 1.045 0.083 1.412s1.045 0.33 1.412-0.083l2.681-3.016c0.14-0.165 0.228-0.375 0.238-0.606 0.001-0.027 0.001-0.054 0-0.081-0.009-0.241-0.104-0.461-0.255-0.629l-2.664-2.997c-0.367-0.413-0.999-0.45-1.412-0.083s-0.45 0.999-0.083 1.412l1.187 1.336h-12.213l1.187-1.336z"></path>
<path d="M17.006 5.335l-0.001 0.003 9.998 0.001c1.289 0 2.333 1.045 2.333 2.333v16.66c0 1.289-1.045 2.333-2.333 2.333l-21.994-0.003c-1.289 0-2.333-1.045-2.333-2.333v-16.66c0-1.289 1.045-2.333 2.333-2.333h11.997zM27.003 7.338h-9.997v6.662h-2v-6.665h-9.997c-0.184 0-0.333 0.149-0.333 0.333v16.66c0 0.184 0.149 0.333 0.333 0.333h9.997v-6.662h2v6.665h9.997c0.184 0 0.333-0.149 0.333-0.333v-16.66c0-0.184-0.149-0.333-0.333-0.333z"></path>
</svg>
