<!-- Generated by IcoMoon.io -->
<svg version="1.1" xmlns="http://www.w3.org/2000/svg" width="32" height="32" viewBox="0 0 32 32">
<title>dual-screen-speaker</title>
<path d="M29.525 4.403c-0.437-0.729-0.887-1.228-1.217-1.504-0.169-0.135-0.386-0.217-0.622-0.217-0.552 0-1 0.448-1 1 0 0.3 0.132 0.568 0.34 0.752l0.001 0.001c0.168 0.141 0.469 0.476 0.781 0.996 0.536 0.893 0.857 1.967 0.857 3.236s-0.321 2.344-0.857 3.236c-0.312 0.52-0.613 0.855-0.783 0.996-0.21 0.184-0.342 0.453-0.342 0.753 0 0.552 0.448 1 1 1 0.236 0 0.453-0.082 0.624-0.218l-0.002 0.002c0.332-0.276 0.78-0.773 1.219-1.504 0.715-1.191 1.141-2.616 1.141-4.264s-0.428-3.073-1.143-4.264z"></path>
<path d="M26.5 5.861c-0.25-0.385-0.548-0.714-0.891-0.988l-0.008-0.006c-0.165-0.125-0.374-0.2-0.6-0.2-0.552 0-1 0.448-1 1 0 0.326 0.156 0.616 0.398 0.798l0.003 0.002c0.081 0.061 0.253 0.233 0.435 0.505 0.311 0.467 0.497 1.027 0.497 1.695 0 0.667-0.187 1.227-0.497 1.695-0.123 0.194-0.267 0.36-0.432 0.503l-0.003 0.002-0.112 0.097c-0.177 0.18-0.286 0.428-0.286 0.7 0 0.552 0.448 1 1 1 0.225 0 0.432-0.074 0.599-0.199l-0.003 0.002c0.251-0.188 0.579-0.517 0.899-0.995 0.523-0.776 0.835-1.731 0.835-2.76 0-0.016-0-0.032-0-0.048l0 0.002c0-1.083-0.312-2.023-0.833-2.805zM22.667 5c-0-0.552-0.448-1-1-1-0.299 0-0.568 0.131-0.751 0.34l-0.001 0.001-2.035 2.325h-1.88c-0.552 0-1 0.448-1 1v0 2c0 0.552 0.448 1 1 1h1.88l2.035 2.325c0.184 0.209 0.453 0.341 0.752 0.341 0.552 0 1-0.447 1-0.999v-7.333z"></path>
<path d="M15.935 5.335h-10.924c-1.289 0-2.333 1.045-2.333 2.333v0 16.66c0 1.289 1.044 2.333 2.333 2.333l21.993 0.004c1.289 0 2.333-1.045 2.333-2.333v0-9.027c-0.060 0.053-0.119 0.107-0.176 0.153-0.528 0.44-1.193 0.608-1.824 0.519v8.353c0 0.184-0.149 0.333-0.333 0.333v0h-9.997v-12.664h-1.007c-0 0-0.001 0-0.001 0-0.394 0-0.747-0.171-0.991-0.443l-0.001-0.001v13.107h-9.996c-0.184 0-0.333-0.149-0.333-0.333v0-16.663c0-0.184 0.149-0.333 0.333-0.333v0h9.656v-0.667c0-0 0-0.001 0-0.002 0-0.713 0.56-1.295 1.263-1.332l0.003-0z"></path>
<path d="M21.663 20.667h-2l-0.136 0.009c-0.491 0.069-0.864 0.486-0.864 0.991 0 0.552 0.447 0.999 0.998 1h2l0.136-0.009c0.491-0.069 0.864-0.486 0.864-0.991 0-0.552-0.447-0.999-0.998-1h-0zM10.332 20.667h2.003c0.552 0.001 0.998 0.448 0.998 1 0 0.504-0.373 0.921-0.858 0.99l-0.005 0.001-0.135 0.009h-2.003c-0.552-0-1-0.448-1-1 0-0.504 0.373-0.921 0.858-0.99l0.005-0.001 0.136-0.009z"></path>
</svg>
