<!-- Generated by IcoMoon.io -->
<svg version="1.1" xmlns="http://www.w3.org/2000/svg" width="32" height="32" viewBox="0 0 32 32">
<title>dual-screen-update-regular</title>
<path d="M16.997 5.336l-0.001 0.003h9.997c1.289 0 2.333 1.045 2.333 2.333v16.661c0 1.289-1.045 2.333-2.333 2.333v0l-21.993-0.003c-1.289 0-2.333-1.045-2.333-2.333 0-0 0-0.001 0-0.001v0-16.66c0-1.289 1.045-2.333 2.333-2.333h11.997zM26.993 7.339h-9.996v17.328h9.996c0.184 0 0.333-0.149 0.333-0.333v0-16.66c0-0.184-0.149-0.333-0.333-0.333v0zM14.997 7.336h-9.997c-0.184 0-0.333 0.149-0.333 0.333v0 16.66c0 0.184 0.149 0.333 0.333 0.333h9.997v-17.327zM22 9.333c0.507 0 0.927 0.375 0.993 0.863l0.009 0.135v8.931l1.285-1.28c0.182-0.181 0.433-0.292 0.709-0.292 0.225 0 0.432 0.074 0.6 0.198l-0.003-0.002 0.112 0.096c0.181 0.18 0.293 0.43 0.293 0.705 0 0.224-0.074 0.431-0.199 0.597l0.002-0.003-0.096 0.112-2.997 2.983-0.051 0.047-0.084 0.067-0.089 0.053-0.080 0.040-0.136 0.049-0.083 0.019-0.124 0.016h-0.125l-0.123-0.016-0.128-0.032-0.149-0.063-0.103-0.061-0.144-0.119-2.997-2.983c-0.182-0.18-0.294-0.43-0.294-0.706s0.112-0.526 0.294-0.706l0-0c0.182-0.181 0.433-0.292 0.709-0.292 0.225 0 0.432 0.074 0.6 0.198l-0.003-0.002 0.112 0.096 1.284 1.28v-8.931c0.001-0.458 0.31-0.843 0.73-0.961l0.007-0.002 0.131-0.027 0.136-0.008z"></path>
</svg>
