<!-- Generated by IcoMoon.io -->
<svg version="1.1" xmlns="http://www.w3.org/2000/svg" width="32" height="32" viewBox="0 0 32 32">
<title>dual-screen-vertical-scroll</title>
<path d="M16.997 5.335l-0.001 0.003 9.997 0.001c1.289 0 2.333 1.045 2.333 2.333v16.66c0 1.289-1.045 2.333-2.333 2.333l-21.993-0.003c-1.289 0-2.333-1.045-2.333-2.333v-16.66c0-1.289 1.045-2.333 2.333-2.333h11.997zM26.993 7.338h-9.997v17.327h9.997c0.184 0 0.333-0.149 0.333-0.333v-16.66c0-0.184-0.149-0.333-0.333-0.333zM14.997 7.335h-9.997c-0.184 0-0.333 0.149-0.333 0.333v16.66c0 0.184 0.149 0.333 0.333 0.333h9.997v-17.327zM19.603 17.868l0.111 0.098 2.29 2.333 2.286-2.333c0.387-0.394 1.020-0.401 1.414-0.014 0.359 0.351 0.396 0.907 0.11 1.301l-0.096 0.113-3 3.061c-0.356 0.364-0.921 0.397-1.315 0.1l-0.113-0.099-3.004-3.061c-0.387-0.394-0.381-1.027 0.013-1.414 0.358-0.352 0.914-0.379 1.303-0.085zM22.718 9.633l3 3.061c0.387 0.394 0.38 1.028-0.014 1.414s-1.028 0.38-1.414-0.014l-2.286-2.333-2.29 2.333c-0.387 0.394-1.020 0.4-1.414 0.013s-0.4-1.020-0.013-1.414l3.004-3.061c0.392-0.4 1.036-0.399 1.428 0z"></path>
</svg>
