<!-- Generated by IcoMoon.io -->
<svg version="1.1" xmlns="http://www.w3.org/2000/svg" width="32" height="32" viewBox="0 0 32 32">
<title>dual-screen-status-bar-regular</title>
<path d="M16.997 5.336l-0.001 0.003h9.997c1.289 0 2.333 1.045 2.333 2.333v16.661c0 1.289-1.045 2.333-2.333 2.333v0l-21.993-0.003c-1.289 0-2.333-1.045-2.333-2.333 0-0 0-0.001 0-0.001v0-16.66c0-1.289 1.045-2.333 2.333-2.333h11.997zM26.993 7.339h-9.996v17.328h9.996c0.184 0 0.333-0.149 0.333-0.333v0-16.66c0-0.184-0.149-0.333-0.333-0.333v0zM14.997 7.336h-9.997c-0.184 0-0.333 0.149-0.333 0.333v0 16.66c0 0.184 0.149 0.333 0.333 0.333h9.997v-17.327zM25 8.668c0.552 0 1 0.448 1 1s-0.448 1-1 1v0h-6.003c-0.552 0-1-0.448-1-1s0.448-1 1-1v0h6.003z"></path>
</svg>
