<!-- Generated by IcoMoon.io -->
<svg version="1.1" xmlns="http://www.w3.org/2000/svg" width="32" height="32" viewBox="0 0 32 32">
<title>dual-screen-mirror</title>
<path d="M22.894 12.552c-0.169-0.339-0.516-0.553-0.894-0.553s-0.725 0.214-0.895 0.553l-3 6c-0.155 0.31-0.138 0.678 0.044 0.973s0.504 0.474 0.851 0.474h6c0.347 0 0.668-0.179 0.851-0.474s0.199-0.663 0.044-0.973l-3-6zM20.618 18l1.382-2.764 1.382 2.764h-2.764z"></path>
<path d="M10 12c0.379 0 0.725 0.214 0.894 0.553l3 6c0.155 0.31 0.138 0.678-0.044 0.973s-0.504 0.474-0.851 0.474h-6c-0.347 0-0.668-0.179-0.851-0.474s-0.199-0.663-0.044-0.973l3-6c0.169-0.339 0.516-0.553 0.894-0.553zM10 15.236l-1.382 2.764h2.764l-1.382-2.764z"></path>
<path d="M17.006 5.335l-0.001 0.003 9.998 0.001c1.289 0 2.333 1.045 2.333 2.333v16.66c0 1.289-1.045 2.333-2.333 2.333l-21.994-0.003c-1.289 0-2.333-1.045-2.333-2.333v-16.66c0-1.289 1.045-2.333 2.333-2.333h11.997zM27.003 7.338h-9.997v17.327h9.997c0.184 0 0.333-0.149 0.333-0.333v-16.66c0-0.184-0.149-0.333-0.333-0.333zM15.006 7.335h-9.997c-0.184 0-0.333 0.149-0.333 0.333v16.66c0 0.184 0.149 0.333 0.333 0.333h9.997v-17.327z"></path>
</svg>
