<!-- Generated by IcoMoon.io -->
<svg version="1.1" xmlns="http://www.w3.org/2000/svg" width="32" height="32" viewBox="0 0 32 32">
<title>dual-screen-arrow-up</title>
<path d="M29.333 8.667c0 4.050-3.283 7.333-7.333 7.333s-7.333-3.283-7.333-7.333c0-4.050 3.283-7.333 7.333-7.333s7.333 3.283 7.333 7.333zM21.333 6.276v6.391c0 0.368 0.299 0.667 0.667 0.667s0.667-0.298 0.667-0.667v-6.391l2.195 2.195c0.26 0.26 0.683 0.26 0.943 0s0.26-0.682 0-0.943l-3.333-3.333c-0.26-0.26-0.683-0.26-0.943 0l-3.333 3.333c-0.26 0.26-0.26 0.682 0 0.943s0.683 0.26 0.943 0l2.195-2.195zM13.333 8.667c0-0.224 0.009-0.445 0.025-0.665l-8.358-0c-1.289 0-2.333 1.045-2.333 2.333v16.66c0 1.289 1.045 2.333 2.333 2.333l21.993 0.003c1.289 0 2.333-1.045 2.333-2.333l0.001-13.702c-0.536 0.846-1.213 1.593-2 2.207l-0.001 11.496c0 0.184-0.149 0.333-0.333 0.333h-9.997l-0-11.588c-0.769-0.545-1.445-1.211-2.001-1.972l0.001 13.557h-9.997c-0.184 0-0.333-0.149-0.333-0.333v-16.66c0-0.184 0.149-0.333 0.333-0.333l8.436 0.001c-0.067-0.435-0.102-0.882-0.102-1.336zM22.652 24.333c0-0.552-0.448-1-1-1h-2l-0.136 0.009c-0.488 0.066-0.864 0.485-0.864 0.991 0 0.552 0.448 1 1 1h2l0.136-0.009c0.488-0.066 0.864-0.485 0.864-0.991zM13.324 24.333c0-0.552-0.448-1-1-1h-2.002l-0.136 0.009c-0.488 0.066-0.864 0.485-0.864 0.991 0 0.552 0.448 1 1 1h2.002l0.136-0.009c0.488-0.066 0.864-0.485 0.864-0.991z"></path>
</svg>
