<!-- Generated by IcoMoon.io -->
<svg version="1.1" xmlns="http://www.w3.org/2000/svg" width="32" height="32" viewBox="0 0 32 32">
<title>dual-screen-mirror-regular</title>
<path d="M22.896 12.553c-0.168-0.331-0.505-0.553-0.895-0.553s-0.727 0.223-0.892 0.548l-0.003 0.006-3 6c-0.067 0.131-0.106 0.285-0.106 0.448 0 0.552 0.447 1 0.999 1h6c0.001 0 0.001 0 0.002 0 0.552 0 1-0.448 1-1 0-0.163-0.039-0.317-0.109-0.454l0.003 0.006-3-6zM20.619 18.001l1.383-2.764 1.381 2.764h-2.764zM10.001 12c0.389 0 0.725 0.222 0.891 0.546l0.003 0.006 3 6c0.067 0.131 0.106 0.285 0.106 0.448 0 0.552-0.447 1-0.999 1h-6c-0 0-0 0-0.001 0-0.552 0-1-0.448-1-1 0-0.163 0.039-0.317 0.109-0.454l-0.003 0.006 3-6c0.168-0.33 0.505-0.552 0.893-0.552h0zM10.001 15.236l-1.383 2.764h2.764l-1.381-2.764zM17.007 5.335v0.003h9.997c1.288 0 2.333 1.045 2.333 2.333v16.663c0 1.289-1.045 2.333-2.333 2.333v0l-21.993-0.003c-1.289 0-2.333-1.045-2.333-2.333v0-16.661c0-1.289 1.044-2.333 2.333-2.333h11.996zM27.004 7.337h-9.997v17.329h9.997c0.184 0 0.333-0.149 0.333-0.333v0-16.66c0-0.184-0.149-0.333-0.333-0.333v0zM15.007 7.335h-9.996c-0.184 0-0.333 0.149-0.333 0.333v0 16.66c0 0.184 0.149 0.333 0.333 0.333h9.996v-17.325z"></path>
</svg>
