<!-- Generated by IcoMoon.io -->
<svg version="1.1" xmlns="http://www.w3.org/2000/svg" width="32" height="32" viewBox="0 0 32 32">
<title>dual-screen-desktop</title>
<path d="M16.333 13.333c1.224 0 2.228 0.943 2.326 2.142l0.008 0.191v11.334c0 1.224-0.943 2.228-2.142 2.326l-0.191 0.008h-11.333c-1.224 0-2.228-0.943-2.326-2.142l-0.008-0.191v-11.334c0-1.224 0.943-2.228 2.142-2.326l0.191-0.008h11.333zM10 15.332l-5 0.001c-0.158 0-0.29 0.11-0.325 0.257l-0.009 0.076v11.334c0 0.158 0.11 0.29 0.257 0.325l0.076 0.009 5-0.001v-12zM16.333 15.333l-5-0.001v12l5 0.001c0.158 0 0.29-0.11 0.325-0.257l0.009-0.076v-11.334c0-0.158-0.11-0.29-0.257-0.325l-0.076-0.009zM14.167 24c0.552 0 1 0.448 1 1 0 0.506-0.376 0.925-0.864 0.991l-0.136 0.009h-0.667c-0.552 0-1-0.448-1-1 0-0.506 0.376-0.925 0.864-0.991l0.136-0.009h0.667zM7.833 24c0.552 0 1 0.448 1 1 0 0.506-0.376 0.925-0.864 0.991l-0.136 0.009h-0.667c-0.552 0-1-0.448-1-1 0-0.506 0.376-0.925 0.864-0.991l0.136-0.009h0.667zM26.333 2.667c1.588 0 2.887 1.234 2.993 2.795l0.007 0.205v12c0 1.588-1.234 2.887-2.795 2.993l-0.205 0.007h-3.661v2.667h1.661c0.552 0 1 0.448 1 1 0 0.506-0.376 0.925-0.864 0.991l-0.136 0.009h-4.333v-2h0.672v-2.667h-0.672v-2h6.333c0.506 0 0.925-0.376 0.991-0.864l0.009-0.136v-12c0-0.552-0.448-1-1-1h-18c-0.506 0-0.925 0.376-0.991 0.864l-0.009 0.136v6.333h-2v-6.333c0-1.588 1.234-2.888 2.795-2.993l0.205-0.007h18z"></path>
</svg>
