<!-- Generated by IcoMoon.io -->
<svg version="1.1" xmlns="http://www.w3.org/2000/svg" width="32" height="32" viewBox="0 0 32 32">
<title>dual-screen-arrow-up-regular</title>
<path d="M29.333 8.667c0 4.050-3.283 7.333-7.333 7.333s-7.333-3.283-7.333-7.333v0c0-4.050 3.283-7.333 7.333-7.333s7.333 3.283 7.333 7.333v0zM21.333 6.276v6.391c0 0.368 0.298 0.667 0.667 0.667s0.667-0.298 0.667-0.667v0-6.391l2.195 2.196c0.121 0.121 0.288 0.196 0.472 0.196 0.369 0 0.668-0.299 0.668-0.668 0-0.184-0.075-0.351-0.195-0.472l-3.333-3.333c-0.121-0.121-0.288-0.196-0.472-0.196s-0.351 0.075-0.472 0.196v0l-3.333 3.333c-0.121 0.121-0.195 0.288-0.195 0.472 0 0.369 0.299 0.668 0.668 0.668 0.184 0 0.351-0.075 0.472-0.195v0l2.195-2.196zM13.333 8.667c0-0.224 0.008-0.445 0.025-0.664h-8.359c-1.288 0-2.333 1.044-2.333 2.332v16.659c0 1.289 1.045 2.333 2.333 2.333l21.993 0.007c1.289 0 2.333-1.045 2.333-2.333v0l0.001-13.703c-0.55 0.859-1.213 1.589-1.981 2.192l-0.019 0.014v11.496c0 0.184-0.149 0.333-0.333 0.333v0h-9.997v-11.588c-0.776-0.554-1.438-1.207-1.984-1.949l-0.017-0.024v13.557h-9.996c-0.184 0-0.333-0.149-0.333-0.333v0-16.661c0-0.184 0.149-0.333 0.333-0.333v0h8.436c-0.065-0.401-0.103-0.864-0.103-1.335v-0zM22.652 24.333c0-0.552-0.448-1-1-1v0h-2l-0.136 0.009c-0.491 0.069-0.864 0.486-0.864 0.991 0 0.552 0.448 1 1 1h2l0.135-0.009c0.491-0.069 0.865-0.486 0.865-0.991v0zM13.324 24.333c0-0.552-0.448-1-1-1v0h-2.004l-0.136 0.009c-0.491 0.069-0.864 0.486-0.864 0.991 0 0.552 0.448 1 1 1 0 0 0.001 0 0.001 0h2.003l0.136-0.009c0.491-0.069 0.864-0.486 0.864-0.991v0z"></path>
</svg>
