<!-- Generated by IcoMoon.io -->
<svg version="1.1" xmlns="http://www.w3.org/2000/svg" width="32" height="32" viewBox="0 0 32 32">
<title>dual-screen-settings-regular</title>
<path d="M17.707 3.968c0.066 0.221 0.105 0.476 0.105 0.739 0 1.245-0.854 2.291-2.007 2.585l-0.018 0.004-0.779 0.193c-0.058 0.355-0.092 0.763-0.092 1.18 0 0.434 0.036 0.86 0.106 1.274l-0.006-0.045 0.72 0.173c1.181 0.291 2.042 1.341 2.042 2.593 0 0.269-0.040 0.528-0.114 0.773l0.005-0.019-0.248 0.841c0.585 0.515 1.253 0.933 1.979 1.229l0.657-0.692c0.487-0.512 1.173-0.83 1.933-0.83s1.447 0.318 1.932 0.829l0.001 0.001 0.665 0.7c0.76-0.313 1.413-0.722 1.986-1.223l-0.008 0.007-0.264-0.915c-0.067-0.222-0.105-0.477-0.105-0.741 0-1.245 0.854-2.291 2.008-2.585l0.018-0.004 0.779-0.192c0.058-0.355 0.092-0.763 0.092-1.18 0-0.434-0.036-0.86-0.106-1.274l0.006 0.045-0.72-0.173c-1.181-0.291-2.042-1.341-2.042-2.593 0-0.269 0.040-0.528 0.114-0.773l-0.005 0.019 0.249-0.841c-0.564-0.499-1.219-0.913-1.934-1.212l-0.046-0.017-0.657 0.691c-0.487 0.512-1.173 0.83-1.933 0.83s-1.447-0.318-1.932-0.829l-0.001-0.001-0.665-0.7c-0.76 0.313-1.413 0.723-1.985 1.224l0.008-0.007 0.264 0.915zM22.004 10.667c-1.067 0-1.933-0.895-1.933-2 0-1.104 0.867-2 1.933-2s1.933 0.896 1.933 2c0 1.105-0.867 2-1.933 2zM13.336 8.667c0-0.223 0.008-0.445 0.024-0.664h-8.36c-1.288 0-2.333 1.044-2.333 2.332v16.66c0 1.288 1.045 2.333 2.333 2.333l21.999 0.003c1.289 0 2.333-1.045 2.333-2.333v0l0.001-13.701c-0.55 0.859-1.213 1.589-1.981 2.192l-0.019 0.014-0.001 11.496c0 0.184-0.149 0.333-0.333 0.333v0h-10v-11.587c-0.776-0.555-1.437-1.207-1.983-1.949l-0.017-0.024v13.557h-9.999c-0.184 0-0.333-0.149-0.333-0.333v0-16.663c0-0.184 0.149-0.333 0.333-0.333v0l8.437 0.001c-0.065-0.398-0.101-0.858-0.101-1.326 0-0.004 0-0.007 0-0.011v0.001zM22.656 24.333c0-0.552-0.448-1-1-1v0h-2l-0.137 0.009c-0.491 0.069-0.864 0.486-0.864 0.991 0 0.552 0.448 1 1 1 0 0 0.001 0 0.001 0h2l0.136-0.009c0.491-0.069 0.865-0.486 0.865-0.991v0zM13.327 24.333c0-0.552-0.448-1-1-1v0h-2.005l-0.135 0.009c-0.491 0.069-0.864 0.486-0.864 0.991 0 0.552 0.448 1 1 1h2.003l0.136-0.009c0.491-0.069 0.865-0.486 0.865-0.991v0z"></path>
</svg>
