<!-- Generated by IcoMoon.io -->
<svg version="1.1" xmlns="http://www.w3.org/2000/svg" width="32" height="32" viewBox="0 0 32 32">
<title>dual-screen-update</title>
<path d="M16.997 5.335l-0.001 0.003 9.997 0.001c1.289 0 2.333 1.045 2.333 2.333v16.66c0 1.289-1.045 2.333-2.333 2.333l-21.993-0.003c-1.289 0-2.333-1.045-2.333-2.333v-16.66c0-1.289 1.045-2.333 2.333-2.333h11.997zM26.993 7.338h-9.997v17.327h9.997c0.184 0 0.333-0.149 0.333-0.333v-16.66c0-0.184-0.149-0.333-0.333-0.333zM14.997 7.335h-9.997c-0.184 0-0.333 0.149-0.333 0.333v16.66c0 0.184 0.149 0.333 0.333 0.333h9.997v-17.327zM22 9.333c0.508 0 0.927 0.375 0.994 0.863l0.009 0.135-0.001 8.93 1.286-1.279c0.356-0.354 0.913-0.387 1.306-0.097l0.112 0.097c0.356 0.354 0.388 0.909 0.097 1.299l-0.097 0.112-2.997 2.983-0.051 0.047-0.084 0.065-0.089 0.055-0.081 0.040-0.135 0.048-0.084 0.019-0.124 0.015h-0.125l-0.123-0.015-0.129-0.033-0.149-0.063-0.103-0.061-0.143-0.118-2.997-2.983c-0.392-0.39-0.392-1.022 0-1.411 0.356-0.354 0.913-0.387 1.306-0.097l0.113 0.097 1.284 1.279 0.001-8.93c0-0.459 0.312-0.846 0.736-0.962l0.13-0.027 0.136-0.009z"></path>
</svg>
