<!-- Generated by IcoMoon.io -->
<svg version="1.1" xmlns="http://www.w3.org/2000/svg" width="32" height="32" viewBox="0 0 32 32">
<title>dual-screen-vertical-scroll-regular</title>
<path d="M16.997 5.336l-0.001 0.003h9.997c1.289 0 2.333 1.045 2.333 2.333v16.661c0 1.289-1.045 2.333-2.333 2.333v0l-21.993-0.003c-1.289 0-2.333-1.045-2.333-2.333 0-0 0-0.001 0-0.001v0-16.66c0-1.289 1.045-2.333 2.333-2.333h11.997zM26.993 7.339h-9.996v17.328h9.996c0.184 0 0.333-0.149 0.333-0.333v0-16.66c0-0.184-0.149-0.333-0.333-0.333v0zM14.997 7.336h-9.997c-0.184 0-0.333 0.149-0.333 0.333v0 16.66c0 0.184 0.149 0.333 0.333 0.333h9.997v-17.327zM19.603 17.869l0.111 0.097 2.291 2.333 2.285-2.333c0.182-0.188 0.436-0.304 0.718-0.304 0.552 0 1 0.448 1 1 0 0.223-0.073 0.429-0.196 0.595l0.002-0.003-0.095 0.113-3 3.061c-0.182 0.185-0.434 0.3-0.714 0.3-0.227 0-0.436-0.076-0.604-0.203l0.002 0.002-0.112-0.099-3.004-3.061c-0.177-0.18-0.286-0.427-0.286-0.7 0-0.552 0.448-1 1-1 0.227 0 0.437 0.076 0.605 0.203l-0.002-0.002zM22.719 9.635l3 3.061c0.177 0.18 0.286 0.427 0.286 0.7 0 0.553-0.448 1-1 1-0.28 0-0.533-0.115-0.715-0.3l-0-0-2.285-2.333-2.291 2.333c-0.183 0.2-0.446 0.324-0.737 0.324-0.552 0-1-0.448-1-1 0-0.285 0.119-0.542 0.31-0.724l0-0 3.004-3.063c0.182-0.185 0.434-0.299 0.713-0.299s0.532 0.114 0.713 0.299l0 0z"></path>
</svg>
