<!-- Generated by IcoMoon.io -->
<svg version="1.1" xmlns="http://www.w3.org/2000/svg" width="32" height="32" viewBox="0 0 32 32">
<title>dual-screen-tablet-regular</title>
<path d="M16.333 12c1.221 0 2.223 0.938 2.325 2.133l0.001 0.009 0.008 0.192v11.333c-0 1.221-0.939 2.224-2.134 2.325l-0.009 0.001-0.191 0.008h-11.333c-1.221-0-2.224-0.939-2.325-2.134l-0.001-0.009-0.008-0.191v-11.333c0-1.221 0.938-2.223 2.133-2.325l0.009-0.001 0.192-0.008h11.333zM10 13.999h-5c-0.157 0-0.289 0.11-0.324 0.256l-0 0.002-0.009 0.076v11.333c0 0.157 0.109 0.288 0.255 0.324l0.002 0 0.076 0.009h5v-12.001zM16.333 13.999h-5v12.001h5c0.157-0 0.288-0.109 0.324-0.255l0-0.002 0.009-0.076v-11.333c0-0 0-0.001 0-0.001 0-0.157-0.109-0.289-0.255-0.324l-0.002-0-0.076-0.008zM14.167 22.667c0.552 0 1 0.448 1 1 0 0.504-0.373 0.921-0.858 0.99l-0.005 0.001-0.136 0.009h-0.667c-0.552-0-1-0.448-1-1 0-0.504 0.373-0.921 0.858-0.99l0.005-0.001 0.136-0.009h0.667zM7.833 22.667c0.552 0 1 0.448 1 1 0 0.504-0.373 0.921-0.858 0.99l-0.005 0.001-0.136 0.009h-0.667c-0.552-0-1-0.448-1-1 0-0.504 0.373-0.921 0.858-0.99l0.005-0.001 0.136-0.009h0.667zM26.333 4c0 0 0 0 0 0 1.585 0 2.882 1.229 2.992 2.785l0.001 0.010 0.007 0.205v11.333c0 0 0 0 0 0 0 1.585-1.229 2.882-2.785 2.992l-0.010 0.001-0.205 0.007h-6.333v-2h6.333c0.504-0 0.921-0.373 0.99-0.859l0.001-0.005 0.009-0.136v-11.333c0-0.552-0.448-1-1-1v0h-15.333c-0.504 0-0.921 0.373-0.99 0.859l-0.001 0.005-0.009 0.136v3.667h-2v-3.667c0-0 0-0 0-0 0-1.585 1.229-2.882 2.785-2.992l0.010-0.001 0.205-0.007h15.333zM21.667 16c0.552 0 1 0.448 1 1s-0.448 1-1 1v0h-1.667v-2h1.667z"></path>
</svg>
