<!-- Generated by IcoMoon.io -->
<svg version="1.1" xmlns="http://www.w3.org/2000/svg" width="32" height="32" viewBox="0 0 32 32">
<title>dumbbell</title>
<path d="M23.885 11.509c0.155-0.155 0.251-0.369 0.251-0.606s-0.096-0.451-0.251-0.606v0l-2.183-2.183c-0.153-0.143-0.358-0.23-0.584-0.23-0.473 0-0.857 0.384-0.857 0.857 0 0.226 0.087 0.432 0.23 0.585l-0-0.001 2.182 2.183c0.155 0.155 0.369 0.251 0.606 0.251s0.451-0.096 0.606-0.251v0zM12.247 21.934c0.168 0.157 0.273 0.38 0.273 0.627 0 0.473-0.384 0.857-0.857 0.857-0.247 0-0.47-0.105-0.627-0.272l-0-0-2.183-2.182c-0.143-0.153-0.23-0.358-0.23-0.584 0-0.473 0.384-0.857 0.857-0.857 0.226 0 0.432 0.087 0.585 0.23l-0.001-0 2.183 2.182zM28.293 3.737c-0.455-0.455-1.083-0.736-1.777-0.736s-1.322 0.281-1.777 0.736l-1.026 1.026-0.419-0.419c-0.573-0.574-1.366-0.929-2.242-0.929-1.068 0-2.012 0.528-2.586 1.338l-0.007 0.010c-0.261-0.066-0.561-0.104-0.87-0.104-1.026 0-1.954 0.416-2.626 1.089l-0 0-0.257 0.256c-0.672 0.672-1.088 1.601-1.088 2.627s0.416 1.955 1.088 2.627l1.257 1.256-3.45 3.449-1.255-1.254c-0.672-0.672-1.601-1.088-2.626-1.088s-1.954 0.416-2.626 1.088l-0.257 0.257c-0.672 0.672-1.088 1.6-1.088 2.625 0 0.31 0.038 0.61 0.109 0.898l-0.005-0.026c-0.819 0.581-1.348 1.525-1.348 2.593 0 0.876 0.355 1.668 0.929 2.241l0 0 0.418 0.417-1.055 1.056c-0.455 0.455-0.736 1.083-0.736 1.777 0 1.388 1.125 2.513 2.513 2.513 0.694 0 1.322-0.281 1.777-0.736v0l1.055-1.056 0.419 0.419c0.573 0.573 1.366 0.928 2.241 0.928 1.067 0 2.012-0.528 2.586-1.337l0.007-0.010c0.262 0.066 0.562 0.104 0.871 0.104 1.026 0 1.954-0.416 2.626-1.089l0-0 0.256-0.257c0.672-0.672 1.088-1.601 1.088-2.626s-0.416-1.954-1.088-2.626l-1.256-1.257 3.449-3.449 1.257 1.257c0.672 0.672 1.601 1.088 2.626 1.088s1.954-0.416 2.626-1.088v0l0.256-0.257c0.673-0.672 1.089-1.6 1.089-2.626 0-0.309-0.038-0.61-0.109-0.897l0.005 0.026c0.819-0.581 1.348-1.525 1.348-2.593 0-0.876-0.355-1.668-0.929-2.242l-0.418-0.418 1.025-1.025c0.455-0.455 0.736-1.083 0.736-1.777s-0.281-1.322-0.736-1.777v0zM14.853 18.305l-1.129-1.129 3.449-3.449 1.13 1.129-3.45 3.449zM7.104 26.055l-1.056 1.056c-0.144 0.142-0.342 0.23-0.56 0.23-0.441 0-0.799-0.358-0.799-0.799 0-0.218 0.087-0.416 0.229-0.56l1.056-1.056 1.129 1.129zM26.053 7.106l-1.129-1.13 1.025-1.025c0.144-0.142 0.342-0.23 0.56-0.23 0.441 0 0.799 0.358 0.799 0.799 0 0.218-0.087 0.416-0.229 0.56l-1.026 1.026zM20.023 5.557c0.263-0.263 0.627-0.426 1.029-0.426s0.765 0.163 1.029 0.426l4.392 4.393c0.263 0.263 0.425 0.627 0.425 1.028 0 0.63-0.401 1.167-0.961 1.369l-0.010 0.003c-0.337 0.12-0.575 0.437-0.575 0.809 0 0.14 0.034 0.273 0.094 0.39l-0.002-0.005c0.134 0.261 0.212 0.57 0.212 0.897 0 0.552-0.224 1.052-0.586 1.414l-0.257 0.257c-0.362 0.362-0.862 0.586-1.414 0.586s-1.052-0.224-1.414-0.586l-6.065-6.066c-0.362-0.362-0.586-0.862-0.586-1.414s0.224-1.052 0.586-1.414l0.257-0.257c0.362-0.362 0.862-0.586 1.415-0.586 0.327 0 0.635 0.078 0.908 0.217l-0.011-0.005c0.112 0.058 0.245 0.091 0.385 0.091 0.372 0 0.689-0.237 0.807-0.569l0.002-0.006c0.069-0.198 0.183-0.385 0.343-0.546zM10.045 15.92l6.066 6.066c0.362 0.362 0.586 0.862 0.586 1.414s-0.224 1.052-0.586 1.414v0l-0.257 0.256c-0.362 0.362-0.862 0.587-1.415 0.587-0.327 0-0.635-0.078-0.907-0.217l0.011 0.005c-0.112-0.058-0.245-0.091-0.385-0.091-0.372 0-0.688 0.237-0.807 0.568l-0.002 0.006c-0.205 0.571-0.741 0.972-1.372 0.972-0.402 0-0.765-0.163-1.028-0.426v0l-4.394-4.392c-0.263-0.263-0.426-0.627-0.426-1.029 0-0.631 0.401-1.167 0.962-1.369l0.010-0.003c0.337-0.121 0.573-0.437 0.573-0.809 0-0.14-0.034-0.272-0.093-0.389l0.002 0.005c-0.134-0.261-0.212-0.57-0.212-0.896 0-0.553 0.224-1.053 0.587-1.416v0l0.257-0.256c0.362-0.362 0.862-0.586 1.414-0.586s1.052 0.224 1.414 0.586v0z"></path>
</svg>
