<!-- Generated by IcoMoon.io -->
<svg version="1.1" xmlns="http://www.w3.org/2000/svg" width="32" height="32" viewBox="0 0 32 32">
<title>earth-regular</title>
<path d="M15.473 4.345c0.162-0.008 0.353-0.013 0.544-0.013 2.316 0 4.474 0.678 6.285 1.846l-0.046-0.028c-1.333 2.045-2.933 3.643-3.757 4.404-0.648 0.597-0.647 1.589-0.095 2.207 1.13 1.249 1.821 2.913 1.821 4.738 0 0.056-0.001 0.111-0.002 0.167l0-0.008c-0.017 0.57 0.412 0.877 0.633 0.981 0.228 0.107 0.688 0.219 1.103-0.079 0.623-0.445 1.263-0.241 1.428-0.040 0.047 0.057 0.113 0.169 0.015 0.434-0.113 0.304-0.443 0.783-1.237 1.378-0.743 0.557-1.225 1.191-1.418 1.893-0.195 0.711-0.065 1.379 0.204 1.94 0.317 0.66 0.846 1.215 1.381 1.633-1.782 1.17-3.967 1.867-6.314 1.867-0.007 0-0.013 0-0.020-0h0.001c-3.179 0-6.060-1.271-8.165-3.333 0-0.024-0.001-0.048-0.003-0.073-0.163-1.873-0.027-2.955 0.205-3.579 0.208-0.56 0.489-0.749 0.787-0.855 0.179-0.065 0.383-0.105 0.637-0.139l0.242-0.030c0.187-0.023 0.401-0.049 0.583-0.080 0.593-0.105 1.365-0.345 1.795-1.204 0.365-0.729 0.338-1.502 0.24-2.145-0.049-0.327-0.123-0.65-0.191-0.943l-0.027-0.117c-0.060-0.257-0.115-0.487-0.156-0.712-0.099-0.536-0.085-0.851 0.008-1.055 0.069-0.153 0.255-0.403 0.943-0.6 1.555-0.444 2.655-1.1 3.331-1.965 0.691-0.885 0.86-1.889 0.747-2.851-0.112-0.939-0.493-1.858-0.925-2.661-0.183-0.34-0.38-0.669-0.578-0.979zM13.623 4.576c0.328 0.473 0.668 0.993 0.96 1.537 0.386 0.717 0.661 1.424 0.737 2.068 0.073 0.622-0.039 1.16-0.405 1.629-0.381 0.489-1.115 1-2.475 1.389-0.979 0.28-1.668 0.769-2.005 1.517-0.313 0.697-0.237 1.447-0.127 2.042 0.049 0.267 0.113 0.541 0.172 0.793l0.027 0.112c0.068 0.293 0.127 0.559 0.167 0.815 0.079 0.52 0.052 0.879-0.083 1.149-0.071 0.141-0.173 0.233-0.592 0.307-0.143 0.025-0.273 0.041-0.425 0.059-0.1 0.012-0.209 0.025-0.338 0.043-0.364 0.044-0.693 0.122-1.008 0.231l0.033-0.010c-0.744 0.268-1.4 0.809-1.785 1.843-0.206 0.552-0.331 1.237-0.369 2.085-1.112-1.749-1.773-3.881-1.773-6.167 0-0.007 0-0.013 0-0.020v0.001c0-5.629 3.987-10.327 9.289-11.424zM23.725 24.743c-0.501-0.314-1.028-0.793-1.271-1.299-0.135-0.282-0.167-0.535-0.1-0.776 0.069-0.248 0.271-0.596 0.811-1.002 0.928-0.695 1.533-1.411 1.8-2.134 0.281-0.761 0.17-1.507-0.289-2.067-0.65-0.793-1.792-1.014-2.815-0.693-0.169-1.957-0.959-3.703-2.169-5.068l0.008 0.009c0.88-0.82 2.506-2.458 3.896-4.569 2.498 2.148 4.070 5.311 4.070 8.842 0 0.004 0 0.009 0 0.013v-0.001c0 0.004 0 0.008 0 0.012 0 3.471-1.52 6.588-3.93 8.72l-0.012 0.011zM16 2.667c-7.364 0-13.333 5.969-13.333 13.333s5.969 13.333 13.333 13.333 13.333-5.969 13.333-13.333-5.969-13.333-13.333-13.333z"></path>
</svg>
