<!-- Generated by IcoMoon.io -->
<svg version="1.1" xmlns="http://www.w3.org/2000/svg" width="32" height="32" viewBox="0 0 32 32">
<title>edit-settings-regular</title>
<path d="M27.936 4.064c-0.863-0.863-2.056-1.397-3.373-1.397s-2.51 0.534-3.373 1.397l-15.936 15.936c-0.526 0.526-0.911 1.193-1.094 1.94l-0.006 0.028-1.46 6.136c-0.017 0.070-0.027 0.149-0.027 0.231 0 0.552 0.448 1 1 1 0.083 0 0.163-0.010 0.239-0.029l-0.007 0.001 6.135-1.461c0.775-0.188 1.443-0.574 1.969-1.1l1.535-1.535c-0.13-0.564-0.205-1.211-0.205-1.876 0-0.276 0.013-0.549 0.038-0.819l-0.003 0.035-2.78 2.781c-0.28 0.28-0.632 0.477-1.017 0.569l-4.555 1.085 1.084-4.555c0.092-0.387 0.289-0.739 0.569-1.019l13.331-13.335 3.92 3.92-2.701 2.701c0.233-0.022 0.505-0.035 0.779-0.035 0.666 0 1.315 0.074 1.938 0.215l-0.059-0.011 4.059-4.059c0.863-0.863 1.397-2.056 1.397-3.373s-0.534-2.51-1.397-3.373v0zM22.603 5.477c0.502-0.502 1.195-0.812 1.96-0.812 1.531 0 2.772 1.241 2.772 2.772 0 0.765-0.31 1.458-0.812 1.96v0l-1.189 1.188-3.92-3.919 1.189-1.188zM17.703 18.635c0.066 0.221 0.105 0.476 0.105 0.739 0 1.245-0.854 2.291-2.007 2.585l-0.018 0.004-0.779 0.193c-0.058 0.355-0.092 0.763-0.092 1.18 0 0.434 0.036 0.86 0.106 1.274l-0.006-0.045 0.72 0.173c1.181 0.291 2.042 1.341 2.042 2.593 0 0.269-0.040 0.528-0.114 0.773l0.005-0.019-0.249 0.841c0.587 0.515 1.253 0.933 1.98 1.229l0.657-0.692c0.487-0.511 1.173-0.829 1.933-0.829s1.446 0.318 1.932 0.828l0.001 0.001 0.665 0.701c0.759-0.313 1.412-0.723 1.984-1.224l-0.008 0.007-0.264-0.915c-0.066-0.221-0.105-0.476-0.105-0.739 0-1.246 0.854-2.292 2.009-2.585l0.018-0.004 0.777-0.193c0.058-0.355 0.092-0.763 0.092-1.18 0-0.434-0.036-0.86-0.106-1.274l0.006 0.045-0.72-0.173c-1.18-0.292-2.041-1.342-2.041-2.592 0-0.269 0.040-0.529 0.114-0.773l-0.005 0.019 0.248-0.841c-0.564-0.499-1.218-0.913-1.932-1.212l-0.046-0.017-0.657 0.691c-0.487 0.512-1.173 0.83-1.933 0.83s-1.447-0.318-1.932-0.829l-0.001-0.001-0.664-0.7c-0.725 0.293-1.392 0.707-1.977 1.217l0.264 0.915zM22 25.333c-1.067 0-1.933-0.895-1.933-2 0-1.104 0.867-2 1.933-2s1.933 0.896 1.933 2c0 1.105-0.867 2-1.933 2z"></path>
</svg>
