<!-- Generated by IcoMoon.io -->
<svg version="1.1" xmlns="http://www.w3.org/2000/svg" width="32" height="32" viewBox="0 0 32 32">
<title>edit-arrow-back-regular</title>
<path d="M27.488 4.683c-0.869-0.913-2.093-1.481-3.45-1.481-1.314 0-2.505 0.533-3.366 1.394l-15 15c-0.508 0.509-0.877 1.158-1.043 1.884l-0.005 0.026-1.405 6.32c-0.012 0.052-0.019 0.113-0.019 0.174 0 0.442 0.358 0.8 0.8 0.8 0.062 0 0.122-0.007 0.18-0.020l-0.005 0.001 6.282-1.397c0.778-0.177 1.448-0.558 1.974-1.085l0.701-0.701c-0.169-0.572-0.283-1.236-0.319-1.921l-0.001-0.022-1.512 1.512c-0.317 0.317-0.721 0.548-1.174 0.651l-0.016 0.003-5.056 1.123 1.133-5.093c0.094-0.427 0.309-0.818 0.619-1.126l12.794-12.794 4.469 4.467-2.010 2.010c0.669 0.035 1.32 0.144 1.942 0.32l3.403-3.403c0.861-0.861 1.393-2.051 1.393-3.365 0-1.272-0.499-2.428-1.312-3.282l0.002 0.002zM21.803 5.728c0.57-0.562 1.354-0.91 2.218-0.91 1.745 0 3.16 1.415 3.16 3.16 0 0.865-0.347 1.648-0.91 2.219l0-0-1.074 1.074-4.469-4.467 1.074-1.075zM21.6 30.4c3.976 0 7.2-3.224 7.2-7.2s-3.224-7.2-7.2-7.2v0c-3.976 0-7.2 3.224-7.2 7.2s3.224 7.2 7.2 7.2v0zM20.166 20.166l-1.435 1.434h2.469c2.43 0 4.4 1.97 4.4 4.4v0 0.4c0 0.442-0.358 0.8-0.8 0.8s-0.8-0.358-0.8-0.8v0-0.4c0-1.546-1.254-2.8-2.8-2.8v0h-2.469l1.435 1.434c0.145 0.145 0.235 0.345 0.235 0.566 0 0.442-0.359 0.801-0.801 0.801-0.221 0-0.421-0.090-0.566-0.235l-2.803-2.805c-0.143-0.144-0.232-0.343-0.232-0.562 0-0.221 0.090-0.421 0.235-0.566l2.8-2.8c0.145-0.145 0.345-0.235 0.566-0.235 0.442 0 0.801 0.359 0.801 0.801 0 0.221-0.090 0.421-0.235 0.566v0z"></path>
</svg>
