<!-- Generated by IcoMoon.io -->
<svg version="1.1" xmlns="http://www.w3.org/2000/svg" width="32" height="32" viewBox="0 0 32 32">
<title>edit-off</title>
<path d="M11.919 13.334l-8.96-8.96c-0.391-0.391-0.391-1.024 0-1.414s1.024-0.39 1.414 0l24.666 24.667c0.391 0.391 0.391 1.024 0 1.414s-1.024 0.391-1.414 0l-8.959-8.96-6.584 6.584c-0.369 0.369-0.828 0.636-1.332 0.773l-6.821 1.86c-0.747 0.204-1.431-0.481-1.228-1.228l1.86-6.821c0.137-0.504 0.404-0.963 0.773-1.332l6.584-6.584zM17.252 18.667l-3.919-3.919-6.584 6.584c-0.123 0.123-0.212 0.276-0.258 0.444l-1.4 5.133 5.133-1.4c0.168-0.046 0.321-0.135 0.444-0.258l6.584-6.584z"></path>
<path d="M23.919 12l-3.839 3.84 1.415 1.415 6.546-6.546c1.863-1.863 1.863-4.884 0-6.748s-4.884-1.863-6.747 0l-6.546 6.546 1.414 1.414 3.839-3.839 3.919 3.919zM22.707 5.374c1.082-1.082 2.837-1.082 3.919 0s1.082 2.837 0 3.919l-1.294 1.293-3.919-3.92 1.293-1.292z"></path>
</svg>
