<!-- Generated by IcoMoon.io -->
<svg version="1.1" xmlns="http://www.w3.org/2000/svg" width="32" height="32" viewBox="0 0 32 32">
<title>edit-prohibited-regular</title>
<path d="M27.983 4.017c-0.833-0.833-1.984-1.349-3.256-1.349s-2.423 0.515-3.256 1.349l-16.112 16.115c-0.494 0.493-0.859 1.115-1.042 1.811l-0.006 0.028-1.618 6.323c-0.017 0.062-0.026 0.133-0.026 0.207 0 0.46 0.373 0.833 0.833 0.833 0.073 0 0.144-0.009 0.212-0.027l-0.006 0.001 6.325-1.617c0.724-0.189 1.346-0.554 1.84-1.048l1.626-1.627c-0.104-0.505-0.163-1.085-0.163-1.68 0-0.186 0.006-0.371 0.017-0.554l-0.001 0.025-2.657 2.657c-0.288 0.288-0.651 0.502-1.058 0.608l-0.016 0.004-4.962 1.269 1.269-4.961c0.104-0.407 0.315-0.777 0.611-1.073l13.463-13.465 4.155 4.155-2.682 2.683c0.157-0.010 0.341-0.016 0.526-0.016 0.595 0 1.177 0.059 1.739 0.172l-0.056-0.009 4.301-4.301c0.833-0.833 1.349-1.984 1.349-3.256s-0.515-2.423-1.349-3.256v0zM22.649 5.195c0.532-0.532 1.266-0.861 2.078-0.861 1.623 0 2.938 1.315 2.938 2.938 0 0.811-0.329 1.546-0.86 2.077l-1.471 1.471-4.155-4.155 1.471-1.471zM22 30.667c4.050 0 7.333-3.283 7.333-7.333s-3.283-7.333-7.333-7.333-7.333 3.283-7.333 7.333 3.283 7.333 7.333 7.333zM22 29c-0.003 0-0.006 0-0.010 0-1.268 0-2.438-0.418-3.379-1.124l0.015 0.011 7.928-7.929c0.696 0.931 1.115 2.104 1.115 3.375 0 3.13-2.537 5.667-5.667 5.667-0.001 0-0.001 0-0.002 0h0zM25.375 18.78l-7.928 7.929c-0.696-0.93-1.114-2.103-1.114-3.374 0-3.13 2.537-5.667 5.667-5.667 1.271 0 2.444 0.418 3.389 1.124l-0.015-0.011z"></path>
</svg>
