<!-- Generated by IcoMoon.io -->
<svg version="1.1" xmlns="http://www.w3.org/2000/svg" width="32" height="32" viewBox="0 0 32 32">
<title>edit-off</title>
<path d="M18.667 19.845l9.244 9.244c0.151 0.151 0.359 0.244 0.589 0.244 0.46 0 0.833-0.373 0.833-0.833 0-0.23-0.093-0.439-0.244-0.589v0l-25-25c-0.151-0.151-0.359-0.244-0.589-0.244-0.46 0-0.833 0.373-0.833 0.833 0 0.23 0.093 0.438 0.244 0.589l9.245 9.244-6.797 6.798c-0.494 0.493-0.859 1.115-1.042 1.811l-0.006 0.028-1.618 6.323c-0.017 0.062-0.026 0.133-0.026 0.207 0 0.46 0.373 0.833 0.833 0.833 0.073 0 0.144-0.009 0.212-0.027l-0.006 0.001 6.325-1.617c0.724-0.189 1.346-0.554 1.84-1.048l6.797-6.797zM17.489 18.667l-6.797 6.797c-0.288 0.288-0.651 0.502-1.058 0.608l-0.016 0.004-4.962 1.269 1.269-4.961c0.104-0.407 0.315-0.777 0.611-1.073l6.797-6.798 4.155 4.155zM24.155 12l-4.31 4.31 1.179 1.179 6.959-6.96c0.814-0.83 1.317-1.968 1.317-3.224 0-2.543-2.062-4.605-4.605-4.605-1.256 0-2.394 0.503-3.225 1.318l-6.958 6.959 1.179 1.178 4.309-4.31 4.155 4.155zM22.649 5.195c0.532-0.532 1.266-0.861 2.078-0.861 1.623 0 2.938 1.316 2.938 2.938 0 0.811-0.329 1.546-0.86 2.077l-1.471 1.471-4.155-4.155 1.471-1.471z"></path>
</svg>
