<!-- Generated by IcoMoon.io -->
<svg version="1.1" xmlns="http://www.w3.org/2000/svg" width="32" height="32" viewBox="0 0 32 32">
<title>edit</title>
<path d="M28.040 3.96c1.863 1.863 1.863 4.884 0 6.748l-15.958 15.958c-0.369 0.369-0.828 0.636-1.332 0.773l-6.821 1.86c-0.747 0.204-1.431-0.481-1.228-1.228l1.86-6.821c0.137-0.504 0.404-0.963 0.773-1.332l15.958-15.958c1.863-1.863 4.884-1.863 6.747 0zM20 8.081l-13.251 13.251c-0.123 0.123-0.212 0.276-0.258 0.444l-1.4 5.133 5.133-1.4c0.168-0.046 0.321-0.135 0.444-0.258l13.25-13.251-3.919-3.919zM22.707 5.374l-1.293 1.292 3.919 3.92 1.294-1.293c1.082-1.082 1.082-2.837 0-3.919s-2.837-1.082-3.919 0z"></path>
</svg>
