<!-- Generated by IcoMoon.io -->
<svg version="1.1" xmlns="http://www.w3.org/2000/svg" width="32" height="32" viewBox="0 0 32 32">
<title>edit-settings</title>
<path d="M28.042 3.959c1.863 1.863 1.863 4.884 0 6.748l-3.989 3.989c-0.237-0.019-0.476-0.029-0.718-0.029-0.842 0-1.656 0.12-2.426 0.344l3.011-3.012-3.919-3.919-13.251 13.251c-0.123 0.123-0.212 0.276-0.258 0.444l-1.4 5.133 5.133-1.4c0.168-0.046 0.321-0.135 0.444-0.258l4.342-4.343c-0.224 0.77-0.344 1.584-0.344 2.426 0 0.242 0.010 0.481 0.029 0.718l-2.614 2.613c-0.369 0.369-0.828 0.636-1.332 0.773l-6.821 1.86c-0.747 0.204-1.431-0.481-1.228-1.228l1.86-6.821c0.137-0.504 0.404-0.963 0.773-1.332l15.958-15.958c1.863-1.863 4.884-1.863 6.748 0zM22.708 5.374l-1.294 1.292 3.919 3.92 1.294-1.293c1.082-1.082 1.082-2.837 0-3.919s-2.837-1.082-3.919 0zM19.039 18.634c0.42 1.454-0.453 2.965-1.922 3.328l-0.779 0.193c-0.060 0.384-0.091 0.777-0.091 1.178 0 0.42 0.034 0.831 0.099 1.231l0.719 0.173c1.483 0.357 2.365 1.884 1.933 3.347l-0.248 0.842c0.585 0.514 1.253 0.932 1.979 1.229l0.658-0.692c1.051-1.106 2.814-1.105 3.865 0.001l0.665 0.7c0.725-0.294 1.391-0.707 1.977-1.217l-0.264-0.915c-0.42-1.454 0.453-2.965 1.922-3.328l0.778-0.193c0.060-0.384 0.091-0.777 0.091-1.178 0-0.42-0.034-0.831-0.1-1.231l-0.719-0.173c-1.483-0.357-2.365-1.884-1.933-3.347l0.248-0.841c-0.586-0.514-1.253-0.932-1.979-1.229l-0.657 0.691c-1.051 1.106-2.815 1.105-3.865-0.001l-0.665-0.7c-0.725 0.294-1.391 0.707-1.977 1.217l0.264 0.915zM23.335 25.333c-1.067 0-1.933-0.895-1.933-2s0.865-2 1.933-2c1.067 0 1.933 0.895 1.933 2s-0.865 2-1.933 2z"></path>
</svg>
