<!-- Generated by IcoMoon.io -->
<svg version="1.1" xmlns="http://www.w3.org/2000/svg" width="32" height="32" viewBox="0 0 32 32">
<title>elevator</title>
<path d="M6.833 5.333c-2.301 0-4.167 1.865-4.167 4.167v0 13c0 2.301 1.865 4.167 4.167 4.167v0h18.333c2.301 0 4.167-1.865 4.167-4.167v0-13c0-2.301-1.865-4.167-4.167-4.167v0h-18.333zM15.167 7v18h-8.333c-1.381 0-2.5-1.119-2.5-2.5v0-13c0-1.381 1.119-2.5 2.5-2.5v0h8.333zM16.833 25v-18h8.333c1.381 0 2.5 1.119 2.5 2.5v0 13c0 1.381-1.119 2.5-2.5 2.5v0h-8.333zM25.589 17.589l-2.833 2.833c-0.151 0.151-0.359 0.244-0.589 0.244s-0.439-0.093-0.589-0.244l-2.833-2.833c-0.151-0.151-0.244-0.359-0.244-0.589 0-0.46 0.373-0.833 0.833-0.833 0.23 0 0.439 0.093 0.589 0.244v0l1.411 1.411v-5.655c0-0.46 0.373-0.833 0.833-0.833s0.833 0.373 0.833 0.833v0 5.655l1.411-1.411c0.151-0.151 0.359-0.244 0.589-0.244 0.46 0 0.833 0.373 0.833 0.833 0 0.23-0.093 0.439-0.244 0.589v0zM9.244 11.577c0.151-0.151 0.359-0.244 0.589-0.244s0.439 0.093 0.589 0.244l2.833 2.833c0.151 0.151 0.244 0.359 0.244 0.589 0 0.46-0.373 0.833-0.833 0.833-0.23 0-0.438-0.093-0.589-0.244v0l-1.411-1.411v5.655c0 0.46-0.373 0.833-0.833 0.833s-0.833-0.373-0.833-0.833v0-5.655l-1.411 1.411c-0.151 0.151-0.359 0.244-0.589 0.244-0.46 0-0.833-0.373-0.833-0.833 0-0.23 0.093-0.438 0.244-0.589v0l2.833-2.833z"></path>
</svg>
