<!-- Generated by IcoMoon.io -->
<svg version="1.1" xmlns="http://www.w3.org/2000/svg" width="32" height="32" viewBox="0 0 32 32">
<title>emoji-add</title>
<path d="M23.333 16c0.029-0 0.064-0.001 0.099-0.001 4.050 0 7.333 3.283 7.333 7.333s-3.283 7.333-7.333 7.333c-0.035 0-0.069-0-0.104-0.001l0.005 0c-4.050 0-7.333-3.283-7.333-7.333s3.283-7.333 7.333-7.333v0zM16 2.663c7.365 0 13.336 5.971 13.336 13.336 0 0.351-0.013 0.699-0.040 1.043-0.569-0.541-1.215-1.007-1.92-1.38l-0.047-0.023c-0.2-6.103-5.196-10.974-11.329-10.974-6.26 0-11.335 5.075-11.335 11.335 0 6.134 4.873 11.13 10.959 11.329l0.018 0c0.373 0.72 0.847 1.381 1.4 1.965-0.343 0.027-0.691 0.040-1.043 0.040-7.365 0-13.336-5.971-13.336-13.335s5.971-13.335 13.336-13.335zM23.333 18.663l-0.12 0.011c-0.273 0.051-0.485 0.263-0.535 0.532l-0.001 0.004-0.011 0.12v3.333l-3.336 0.004-0.12 0.011c-0.273 0.051-0.485 0.263-0.535 0.532l-0.001 0.004-0.011 0.12 0.011 0.12c0.051 0.273 0.263 0.485 0.532 0.535l0.004 0.001 0.12 0.011h3.336v3.339l0.011 0.12c0.052 0.272 0.263 0.484 0.532 0.534l0.004 0.001 0.12 0.012 0.12-0.012c0.273-0.051 0.485-0.263 0.535-0.532l0.001-0.004 0.011-0.12v-3.339l3.339 0.001 0.12-0.011c0.273-0.051 0.485-0.263 0.535-0.532l0.001-0.004 0.011-0.12-0.011-0.12c-0.051-0.273-0.263-0.485-0.532-0.535l-0.004-0.001-0.12-0.011h-3.339v-3.333l-0.011-0.12c-0.051-0.273-0.263-0.486-0.532-0.537l-0.004-0.001-0.12-0.011zM11.283 19.709c0.861 1.090 2.075 1.867 3.468 2.161l0.039 0.007c-0.079 0.437-0.124 0.94-0.124 1.453 0 0.197 0.007 0.393 0.020 0.587l-0.001-0.026c-2.030-0.344-3.764-1.414-4.961-2.927l-0.013-0.017c-0.134-0.168-0.214-0.384-0.214-0.619 0-0.552 0.448-1 1-1 0.318 0 0.601 0.148 0.784 0.38l0.002 0.002zM12 11.667c0.014-0 0.031-0.001 0.047-0.001 0.92 0 1.667 0.746 1.667 1.667s-0.746 1.667-1.667 1.667c-0.017 0-0.033-0-0.050-0.001l0.002 0c-0.9-0.026-1.62-0.762-1.62-1.666s0.72-1.64 1.617-1.666l0.002-0zM20 11.667c0.014-0 0.031-0.001 0.047-0.001 0.92 0 1.667 0.746 1.667 1.667s-0.746 1.667-1.667 1.667c-0.017 0-0.033-0-0.050-0.001l0.002 0c-0.9-0.026-1.62-0.762-1.62-1.666s0.72-1.64 1.617-1.666l0.002-0z"></path>
</svg>
