<!-- Generated by IcoMoon.io -->
<svg version="1.1" xmlns="http://www.w3.org/2000/svg" width="32" height="32" viewBox="0 0 32 32">
<title>emoji-multiple</title>
<path d="M11.333 2.667c4.071 0 7.486 2.807 8.416 6.591-0.687 0.013-1.359 0.091-2.009 0.228-0.801-2.783-3.367-4.819-6.407-4.819-3.682 0-6.667 2.985-6.667 6.667 0 3.041 2.036 5.606 4.819 6.407-0.137 0.65-0.215 1.322-0.229 2.009-3.784-0.93-6.59-4.346-6.59-8.416 0-4.786 3.88-8.667 8.667-8.667zM11.546 13.342c0.475-0.602 1.012-1.153 1.603-1.641-0.576-0.243-1.195-0.368-1.82-0.368-0.673 0.001-1.339 0.147-1.95 0.429s-1.155 0.693-1.592 1.205c-0.359 0.42-0.31 1.051 0.11 1.41s1.051 0.31 1.41-0.11c0.25-0.293 0.56-0.527 0.91-0.689s0.73-0.245 1.114-0.245c0.072-0 0.144 0.003 0.215 0.009zM10 8.667c0 0.736-0.597 1.333-1.333 1.333s-1.333-0.597-1.333-1.333c0-0.736 0.597-1.333 1.333-1.333s1.333 0.597 1.333 1.333zM15.333 8.667c0 0.736-0.597 1.333-1.333 1.333s-1.333-0.597-1.333-1.333c0-0.736 0.597-1.333 1.333-1.333s1.333 0.597 1.333 1.333zM16.667 19.333c0.736 0 1.333-0.597 1.333-1.333s-0.597-1.333-1.333-1.333c-0.736 0-1.333 0.597-1.333 1.333s0.597 1.333 1.333 1.333zM23.943 22.056c0.42 0.359 0.469 0.99 0.11 1.41-0.5 0.585-1.121 1.055-1.82 1.377s-1.459 0.49-2.229 0.49c-0.77 0.001-1.53-0.165-2.23-0.486s-1.321-0.79-1.822-1.374c-0.36-0.419-0.311-1.050 0.108-1.41s1.050-0.312 1.41 0.107c0.313 0.365 0.702 0.658 1.139 0.859s0.913 0.304 1.393 0.304c0.481-0 0.956-0.105 1.393-0.306s0.825-0.495 1.137-0.861c0.359-0.42 0.99-0.469 1.41-0.11zM23.333 19.333c0.736 0 1.333-0.597 1.333-1.333s-0.597-1.333-1.333-1.333c-0.736 0-1.333 0.597-1.333 1.333s0.597 1.333 1.333 1.333zM20 29.333c5.155 0 9.333-4.179 9.333-9.333s-4.179-9.333-9.333-9.333c-5.155 0-9.333 4.179-9.333 9.333s4.179 9.333 9.333 9.333zM20 27.333c-4.050 0-7.333-3.283-7.333-7.333s3.283-7.333 7.333-7.333c4.050 0 7.333 3.283 7.333 7.333s-3.283 7.333-7.333 7.333z"></path>
</svg>
