<!-- Generated by IcoMoon.io -->
<svg version="1.1" xmlns="http://www.w3.org/2000/svg" width="32" height="32" viewBox="0 0 32 32">
<title>emoji-laugh</title>
<path d="M8.999 16c-0.281 0-0.549 0.118-0.739 0.326s-0.283 0.485-0.257 0.765c0.374 4.098 3.4 7.576 7.997 7.576s7.623-3.478 7.997-7.576c0.025-0.28-0.068-0.557-0.257-0.765s-0.457-0.326-0.739-0.326h-14.002zM16 22.667c-3.010 0-5.162-1.973-5.823-4.667h11.647c-0.662 2.694-2.814 4.667-5.824 4.667z"></path>
<path d="M20.333 11.667c-0.545 0-0.947 0.383-1.011 0.813-0.081 0.546-0.589 0.924-1.136 0.843s-0.924-0.589-0.843-1.136c0.215-1.454 1.497-2.52 2.989-2.52s2.774 1.066 2.989 2.52c0.081 0.546-0.296 1.055-0.843 1.136s-1.055-0.296-1.136-0.843c-0.064-0.43-0.466-0.813-1.011-0.813z"></path>
<path d="M10.656 12.48c0.064-0.43 0.466-0.813 1.011-0.813s0.947 0.383 1.011 0.813c0.081 0.546 0.589 0.924 1.136 0.843s0.924-0.589 0.843-1.136c-0.215-1.454-1.497-2.52-2.989-2.52s-2.774 1.066-2.989 2.52c-0.081 0.546 0.296 1.055 0.843 1.136s1.055-0.296 1.136-0.843z"></path>
<path d="M16 2.667c-7.364 0-13.333 5.97-13.333 13.333s5.97 13.333 13.333 13.333c7.364 0 13.333-5.97 13.333-13.333s-5.97-13.333-13.333-13.333zM4.667 16c0-6.259 5.074-11.333 11.333-11.333s11.333 5.074 11.333 11.333c0 6.259-5.074 11.333-11.333 11.333s-11.333-5.074-11.333-11.333z"></path>
</svg>
