<!-- Generated by IcoMoon.io -->
<svg version="1.1" xmlns="http://www.w3.org/2000/svg" width="32" height="32" viewBox="0 0 32 32">
<title>emoji-sad-slight</title>
<path d="M13.667 13.333c0-0.014 0.001-0.031 0.001-0.047 0-0.92-0.746-1.667-1.667-1.667s-1.667 0.746-1.667 1.667c0 0.017 0 0.033 0.001 0.050l-0-0.002c0.026 0.9 0.762 1.62 1.666 1.62s1.64-0.72 1.666-1.617l0-0.002zM21.667 13.333c0-0.014 0.001-0.031 0.001-0.047 0-0.92-0.746-1.667-1.667-1.667s-1.667 0.746-1.667 1.667c0 0.017 0 0.033 0.001 0.050l-0-0.002c0.026 0.9 0.762 1.62 1.666 1.62s1.64-0.72 1.666-1.617l0-0.002zM21 18.667c-1.133 0-2.343 0.284-3.388 0.692-1.036 0.403-2.019 0.965-2.653 1.6-0.188 0.182-0.305 0.437-0.305 0.719 0 0.552 0.448 1 1 1 0.282 0 0.538-0.117 0.719-0.305l0-0c0.367-0.365 1.071-0.803 1.964-1.149 0.88-0.343 1.839-0.557 2.663-0.557h0.8c0.552 0 1-0.448 1-1s-0.448-1-1-1v0h-0.8zM29.336 16c0-7.365-5.971-13.336-13.336-13.336s-13.333 5.971-13.333 13.336c-0.001 7.364 5.968 13.333 13.333 13.333s13.336-5.971 13.336-13.335zM4.665 16c-0-0.037-0.001-0.080-0.001-0.123 0-6.261 5.075-11.336 11.336-11.336s11.336 5.075 11.336 11.336c0 0.043-0 0.086-0.001 0.129l0-0.007c-0.069 6.208-5.118 11.213-11.335 11.213s-11.266-5.005-11.335-11.206l-0-0.007z"></path>
</svg>
