<!-- Generated by IcoMoon.io -->
<svg version="1.1" xmlns="http://www.w3.org/2000/svg" width="32" height="32" viewBox="0 0 32 32">
<title>emoji-sparkle</title>
<path d="M21.451 8.55c-0.096-0.125-0.201-0.243-0.313-0.355-0.416-0.418-0.924-0.732-1.484-0.918l-1.837-0.597c-0.142-0.050-0.264-0.142-0.351-0.265s-0.133-0.269-0.133-0.419 0.047-0.296 0.133-0.419c0.087-0.122 0.209-0.215 0.351-0.265l0.948-0.308-0.005-0.001 0.894-0.291c0.325-0.111 0.633-0.266 0.915-0.459 0.196-0.135 0.379-0.289 0.547-0.459 0.398-0.404 0.7-0.893 0.884-1.429l0.015-0.045 0.597-1.836c0.050-0.141 0.143-0.264 0.265-0.351s0.269-0.133 0.419-0.133c0.15 0 0.297 0.047 0.419 0.133s0.215 0.209 0.265 0.351l0.597 1.836c0.186 0.558 0.499 1.065 0.915 1.481s0.924 0.729 1.482 0.914l1.837 0.597 0.037 0.009c0.142 0.050 0.264 0.142 0.351 0.265s0.133 0.269 0.133 0.419-0.047 0.296-0.133 0.419c-0.087 0.122-0.209 0.215-0.351 0.265l-1.837 0.597c-0.233 0.077-0.457 0.177-0.669 0.297 0.002 0.002 0.003 0.004 0.005 0.006-0.299 0.168-0.574 0.377-0.818 0.621-0.238 0.238-0.443 0.506-0.609 0.797l-0.003-0.004c-0.123 0.215-0.224 0.442-0.303 0.679l-0.597 1.836c-0.005 0.015-0.011 0.030-0.018 0.045-0.053 0.122-0.138 0.228-0.247 0.306-0.123 0.087-0.269 0.133-0.419 0.133s-0.297-0.047-0.419-0.133c-0.123-0.087-0.215-0.209-0.265-0.351l-0.597-1.836c-0.135-0.409-0.339-0.792-0.601-1.131zM31.711 13.618l-1.021-0.331c-0.31-0.103-0.592-0.277-0.823-0.508s-0.405-0.513-0.508-0.823l-0.332-1.020c-0.028-0.079-0.079-0.147-0.147-0.195s-0.149-0.074-0.233-0.074-0.165 0.026-0.233 0.074c-0.068 0.048-0.119 0.116-0.147 0.195l-0.332 1.020c-0.101 0.308-0.272 0.588-0.5 0.819-0.137 0.139-0.293 0.258-0.462 0.354l-0.003-0.001-0.002 0.001 0.001 0.002c-0.11 0.062-0.226 0.114-0.346 0.155l-1.021 0.331c-0.079 0.028-0.147 0.079-0.195 0.147s-0.074 0.149-0.074 0.233 0.026 0.165 0.074 0.233c0.048 0.068 0.116 0.119 0.195 0.147l1.021 0.331c0.311 0.104 0.593 0.278 0.824 0.51 0.105 0.105 0.199 0.222 0.279 0.346 0.095 0.148 0.171 0.308 0.227 0.476l0.332 1.020c0.009 0.026 0.021 0.052 0.035 0.075 0.029 0.048 0.067 0.090 0.114 0.123 0.068 0.048 0.149 0.074 0.233 0.074s0.165-0.026 0.233-0.074c0.068-0.048 0.12-0.116 0.147-0.195l0.332-1.020c0.103-0.31 0.277-0.592 0.508-0.823s0.513-0.405 0.823-0.508l1.021-0.331c0.079-0.028 0.147-0.079 0.195-0.147s0.074-0.149 0.074-0.233-0.026-0.165-0.074-0.233c-0.048-0.068-0.116-0.119-0.195-0.147l-0.020-0.005zM27.662 18.349c-0.192-0.137-0.354-0.31-0.476-0.509-0.88 5.385-5.553 9.494-11.187 9.494-6.26 0-11.335-5.075-11.335-11.335s5.075-11.335 11.335-11.335c0.161 0 0.322 0.003 0.481 0.010 0.244-0.29 0.563-0.509 0.924-0.63l1.815-0.589c0.186-0.064 0.364-0.151 0.528-0.257-1.189-0.348-2.447-0.534-3.748-0.534-7.365 0-13.335 5.97-13.335 13.335s5.97 13.335 13.335 13.335c6.468 0 11.86-4.605 13.078-10.715-0.222 0.054-0.452 0.064-0.679 0.029-0.265-0.041-0.518-0.144-0.737-0.3zM15.999 22.002c-1.864 0-3.585-0.854-4.718-2.291-0.342-0.434-0.971-0.508-1.404-0.167s-0.508 0.971-0.167 1.404c1.507 1.913 3.805 3.053 6.289 3.053 2.48 0 4.775-1.137 6.283-3.046 0.342-0.433 0.268-1.062-0.165-1.405s-1.062-0.269-1.405 0.165c-1.132 1.434-2.852 2.285-4.713 2.285zM13.666 13.333c0-0.92-0.746-1.666-1.666-1.666s-1.666 0.746-1.666 1.666c0 0.92 0.746 1.666 1.666 1.666s1.666-0.746 1.666-1.666zM21.666 13.333c0-0.92-0.746-1.666-1.666-1.666s-1.666 0.746-1.666 1.666 0.746 1.666 1.666 1.666c0.92 0 1.666-0.746 1.666-1.666z"></path>
</svg>
