<!-- Generated by IcoMoon.io -->
<svg version="1.1" xmlns="http://www.w3.org/2000/svg" width="32" height="32" viewBox="0 0 32 32">
<title>emoji-meh-regular</title>
<path d="M12 11.668c0.014-0 0.031-0.001 0.047-0.001 0.92 0 1.667 0.746 1.667 1.667s-0.746 1.667-1.667 1.667c-0.017 0-0.033-0-0.050-0.001l0.002 0c-0.92 0-1.667-0.746-1.667-1.667s0.746-1.667 1.667-1.667v0zM20 11.668c0.014-0 0.031-0.001 0.047-0.001 0.92 0 1.667 0.746 1.667 1.667s-0.746 1.667-1.667 1.667c-0.017 0-0.033-0-0.050-0.001l0.002 0c-0.9-0.026-1.62-0.762-1.62-1.666s0.72-1.64 1.617-1.666l0.002-0zM11 20c-0.552 0-1 0.448-1 1s0.448 1 1 1v0h10c0.552 0 1-0.448 1-1s-0.448-1-1-1v0h-10zM2.667 16c0-7.364 5.969-13.333 13.333-13.333s13.333 5.969 13.333 13.333-5.969 13.333-13.333 13.333-13.333-5.969-13.333-13.333zM16 4.667c-6.259 0-11.333 5.074-11.333 11.333s5.074 11.333 11.333 11.333v0c6.259 0 11.333-5.074 11.333-11.333s-5.074-11.333-11.333-11.333v0z"></path>
</svg>
