<!-- Generated by IcoMoon.io -->
<svg version="1.1" xmlns="http://www.w3.org/2000/svg" width="32" height="32" viewBox="0 0 32 32">
<title>emoji-angry</title>
<path d="M16 2.672c7.364 0 13.333 5.969 13.333 13.333s-5.969 13.333-13.333 13.333-13.333-5.969-13.333-13.333 5.969-13.333 13.333-13.333zM16 4.672c-6.259 0-11.333 5.074-11.333 11.333s5.074 11.333 11.333 11.333v0c6.259 0 11.333-5.074 11.333-11.333s-5.074-11.333-11.333-11.333v0zM16 17.996c2.175 0 4.213 0.873 5.708 2.395 0.183 0.181 0.297 0.433 0.297 0.711 0 0.552-0.448 1-1 1-0.285 0-0.541-0.119-0.723-0.31l-0-0c-1.086-1.109-2.599-1.796-4.273-1.796-0.003 0-0.006 0-0.009 0h0.001c-0.003 0-0.007 0-0.010 0-1.677 0-3.192 0.69-4.278 1.802l-0.001 0.001c-0.183 0.2-0.446 0.325-0.738 0.325-0.552 0-1-0.448-1-1 0-0.284 0.119-0.541 0.309-0.723l0-0c1.45-1.484 3.472-2.404 5.709-2.404 0.003 0 0.006 0 0.009 0h-0zM9.552 9.041c0.185-0.23 0.466-0.376 0.781-0.376 0.185 0 0.359 0.050 0.508 0.138l-0.005-0.003 0.123 0.084 3.333 2.667c0.229 0.185 0.374 0.465 0.374 0.78 0 0.552-0.448 1-1 1-0 0-0.001 0-0.001 0h0c0 0.001 0 0.001 0 0.002 0 0.92-0.746 1.667-1.667 1.667s-1.667-0.746-1.667-1.667c0-0.699 0.43-1.297 1.040-1.545l0.011-0.004-1.676-1.339c-0.229-0.185-0.375-0.466-0.375-0.781 0-0.237 0.083-0.455 0.221-0.627l-0.002 0.002zM17.711 11.552l3.331-2.667c0.17-0.139 0.39-0.223 0.63-0.223 0.552 0 1 0.448 1 1 0 0.264-0.103 0.505-0.27 0.684l0-0.001-0.109 0.101-1.675 1.339c0.621 0.252 1.051 0.85 1.051 1.549 0 0.92-0.746 1.667-1.667 1.667-0.861 0-1.57-0.653-1.658-1.491l-0.001-0.007-0.009-0.173c-0.551-0.001-0.998-0.449-0.998-1 0-0.262 0.1-0.5 0.265-0.678l-0.001 0.001 0.109-0.1z"></path>
</svg>
