<!-- Generated by IcoMoon.io -->
<svg version="1.1" xmlns="http://www.w3.org/2000/svg" width="32" height="32" viewBox="0 0 32 32">
<title>emoji-surprise</title>
<path d="M16 2.673c7.364 0 13.333 5.97 13.333 13.333s-5.97 13.333-13.333 13.333c-7.364 0-13.333-5.97-13.333-13.333s5.97-13.333 13.333-13.333zM16 4.673c-6.259 0-11.333 5.074-11.333 11.333s5.074 11.333 11.333 11.333 11.333-5.074 11.333-11.333c0-6.259-5.074-11.333-11.333-11.333zM16 17.334c1.657 0 3 1.343 3 3s-1.343 3-3 3-3-1.343-3-3c0-1.657 1.343-3 3-3zM12.001 11.669c0.92 0 1.666 0.746 1.666 1.666s-0.746 1.666-1.666 1.666-1.666-0.746-1.666-1.666c0-0.92 0.746-1.666 1.666-1.666zM20.001 11.669c0.92 0 1.666 0.746 1.666 1.666s-0.746 1.666-1.666 1.666c-0.92 0-1.666-0.746-1.666-1.666s0.746-1.666 1.666-1.666z"></path>
</svg>
