<!-- Generated by IcoMoon.io -->
<svg version="1.1" xmlns="http://www.w3.org/2000/svg" width="32" height="32" viewBox="0 0 32 32">
<title>emoji-hand</title>
<path d="M12.313 2.429c0.211-0.062 0.441-0.096 0.687-0.096 1.461 0 2.327 1.201 2.327 2.333v4.897c0.389-0.135 0.841-0.23 1.344-0.23 1.864 0 3.329 1.375 3.329 3.333 0 0.323-0.156 0.625-0.418 0.813l-2.29 1.639-1.273 1.11c-0.852 0.743-1.617 1.579-2.28 2.493l-0.798 1.099c-0.69 0.95-1.793 1.513-2.967 1.513h-2.185c-1.241 0-2.432-0.631-3.073-1.748-0.403-0.702-0.901-1.624-1.302-2.536-0.381-0.868-0.747-1.884-0.747-2.715v-8c0-1.139 0.878-2.333 2.333-2.333 0.147 0 0.287 0.012 0.422 0.035 0.256-0.909 1.057-1.702 2.245-1.702 0.243 0 0.473 0.034 0.686 0.097 0.385-0.629 1.070-1.097 1.981-1.097s1.595 0.467 1.98 1.096zM10.092 3.427c-0.057 0.062-0.092 0.152-0.092 0.237v0.887c0.001 0.044 0.001 0.089 0 0.133v4.982c0 0.552-0.448 1-1 1s-1-0.448-1-1v-5.069c-0.005-0.049-0.028-0.111-0.078-0.164s-0.128-0.1-0.255-0.1c-0.127 0-0.196 0.044-0.241 0.093-0.057 0.062-0.092 0.152-0.092 0.24v5.667c0 0.552-0.448 1-1 1s-1-0.448-1-1v-4.001c0-0.087-0.035-0.177-0.093-0.24-0.046-0.050-0.115-0.094-0.241-0.094s-0.195 0.044-0.241 0.094c-0.057 0.062-0.093 0.153-0.093 0.24v8c0 0.373 0.198 1.047 0.578 1.911 0.36 0.82 0.82 1.672 1.206 2.345 0.262 0.456 0.766 0.744 1.339 0.744h2.185c0.534 0 1.035-0.256 1.349-0.687l0.798-1.099c0.752-1.036 1.619-1.984 2.585-2.826l1.309-1.141c0.024-0.021 0.049-0.041 0.075-0.059l1.845-1.32c-0.166-0.544-0.635-0.866-1.263-0.866-0.849 0-1.453 0.533-1.656 0.713-0.016 0.014-0.029 0.026-0.040 0.035-0.297 0.252-0.714 0.309-1.067 0.146s-0.58-0.518-0.58-0.908v-6.653c0-0.090-0.036-0.181-0.092-0.242-0.044-0.048-0.111-0.091-0.236-0.091-0.127 0-0.196 0.044-0.241 0.093-0.056 0.061-0.092 0.151-0.092 0.24v5c0 0.552-0.448 1-1 1s-1-0.448-1-1v-6.002c0-0.085-0.035-0.175-0.092-0.237-0.046-0.050-0.115-0.094-0.241-0.094s-0.195 0.044-0.241 0.094z"></path>
<path d="M17.333 20c0.736 0 1.333-0.597 1.333-1.333s-0.597-1.333-1.333-1.333c-0.736 0-1.333 0.597-1.333 1.333s0.597 1.333 1.333 1.333z"></path>
<path d="M22.667 20c0.736 0 1.333-0.597 1.333-1.333s-0.597-1.333-1.333-1.333c-0.736 0-1.333 0.597-1.333 1.333s0.597 1.333 1.333 1.333z"></path>
<path d="M20 29.333c-4.268 0-7.868-2.865-8.979-6.777 0.669-0.143 1.299-0.422 1.853-0.816 0.781 3.21 3.675 5.594 7.126 5.594 4.050 0 7.333-3.283 7.333-7.333 0-3.596-2.588-6.587-6.003-7.213 0.002-0.040 0.003-0.080 0.003-0.12 0-0.711-0.143-1.369-0.4-1.954 4.716 0.468 8.4 4.448 8.4 9.287 0 5.155-4.179 9.333-9.333 9.333z"></path>
<path d="M17.597 22.31c-0.383-0.398-1.016-0.41-1.414-0.027s-0.41 1.016-0.027 1.414c0.969 1.007 2.334 1.636 3.844 1.636s2.875-0.629 3.844-1.636c0.383-0.398 0.371-1.031-0.027-1.414s-1.031-0.371-1.414 0.027c-0.608 0.632-1.459 1.023-2.403 1.023s-1.795-0.391-2.403-1.023z"></path>
</svg>
