<!-- Generated by IcoMoon.io -->
<svg version="1.1" xmlns="http://www.w3.org/2000/svg" width="32" height="32" viewBox="0 0 32 32">
<title>emoji-multiple</title>
<path d="M11.333 2.667c4.050 0.001 7.45 2.777 8.403 6.531l0.013 0.060c-0.687 0.013-1.36 0.091-2.008 0.228-0.829-2.805-3.382-4.817-6.405-4.817-3.682 0-6.667 2.985-6.667 6.667 0 3.023 2.012 5.576 4.77 6.393l0.047 0.012c-0.132 0.598-0.215 1.29-0.229 1.998l-0 0.011c-3.817-0.962-6.597-4.364-6.597-8.416 0-4.786 3.88-8.667 8.667-8.667 0.002 0 0.005 0 0.007 0h-0zM11.547 13.341c0.473-0.601 1.012-1.152 1.603-1.64-0.536-0.232-1.16-0.368-1.816-0.368-1.417 0-2.686 0.631-3.542 1.628l-0.005 0.006c-0.16 0.177-0.258 0.412-0.258 0.67 0 0.552 0.448 1 1 1 0.313 0 0.593-0.144 0.777-0.37l0.001-0.002c0.492-0.573 1.217-0.934 2.027-0.934 0.075 0 0.149 0.003 0.223 0.009l-0.010-0.001zM10 8.667c0 0.736-0.597 1.333-1.333 1.333s-1.333-0.597-1.333-1.333v0c0-0.736 0.597-1.333 1.333-1.333s1.333 0.597 1.333 1.333v0zM15.333 8.667c0 0.736-0.597 1.333-1.333 1.333s-1.333-0.597-1.333-1.333v0c0-0.736 0.597-1.333 1.333-1.333s1.333 0.597 1.333 1.333v0zM16.667 19.333c0.736 0 1.333-0.597 1.333-1.333s-0.597-1.333-1.333-1.333v0c-0.736 0-1.333 0.597-1.333 1.333s0.597 1.333 1.333 1.333v0zM23.944 22.056c0.215 0.184 0.35 0.456 0.35 0.76 0 0.249-0.091 0.477-0.242 0.652l0.001-0.001c-0.984 1.145-2.434 1.867-4.053 1.867-1.616 0-3.063-0.718-4.041-1.853l-0.006-0.007c-0.145-0.172-0.232-0.396-0.232-0.641 0-0.552 0.448-1 1-1 0.298 0 0.566 0.13 0.749 0.337l0.001 0.001c0.615 0.714 1.52 1.163 2.53 1.163 1.012 0 1.918-0.451 2.529-1.163l0.004-0.004c0.185-0.215 0.457-0.351 0.761-0.351 0.249 0 0.476 0.091 0.651 0.241l-0.001-0.001zM23.333 19.333c0.736 0 1.333-0.597 1.333-1.333s-0.597-1.333-1.333-1.333v0c-0.736 0-1.333 0.597-1.333 1.333s0.597 1.333 1.333 1.333v0zM20 29.333c5.155 0 9.333-4.179 9.333-9.333s-4.179-9.333-9.333-9.333v0c-5.155 0-9.333 4.179-9.333 9.333s4.179 9.333 9.333 9.333v0zM20 27.333c-4.050 0-7.333-3.283-7.333-7.333s3.283-7.333 7.333-7.333v0c4.050 0 7.333 3.283 7.333 7.333s-3.283 7.333-7.333 7.333v0z"></path>
</svg>
