<!-- Generated by IcoMoon.io -->
<svg version="1.1" xmlns="http://www.w3.org/2000/svg" width="32" height="32" viewBox="0 0 32 32">
<title>emoji-sparkle</title>
<path d="M21.593 7.739c0.383 0.384 0.679 0.854 0.856 1.379l0.007 0.025 0.564 1.733c0.096 0.269 0.349 0.458 0.646 0.458s0.55-0.189 0.645-0.453l0.002-0.005 0.564-1.733c0.364-1.072 1.193-1.9 2.239-2.255l0.025-0.007 1.735-0.563c0.268-0.097 0.456-0.35 0.456-0.646s-0.188-0.548-0.451-0.644l-0.005-0.002-0.035-0.009-1.735-0.563c-1.072-0.364-1.9-1.191-2.257-2.237l-0.007-0.025-0.564-1.733c-0.096-0.269-0.349-0.459-0.646-0.459s-0.55 0.189-0.645 0.454l-0.002 0.005-0.563 1.733-0.015 0.043c-0.365 1.044-1.171 1.853-2.19 2.212l-0.025 0.008-1.735 0.563c-0.268 0.097-0.456 0.35-0.456 0.646s0.188 0.548 0.451 0.644l0.005 0.002 1.735 0.563c0.55 0.186 1.019 0.483 1.402 0.867l0 0zM30.821 12.357l0.919 0.299 0.019 0.005c0.142 0.052 0.241 0.185 0.241 0.342s-0.099 0.29-0.239 0.341l-0.003 0.001-0.919 0.299c-0.567 0.193-1.006 0.63-1.195 1.184l-0.004 0.013-0.299 0.918c-0.004 0.011-0.008 0.020-0.012 0.029l0.001-0.002v0.006c-0.058 0.128-0.184 0.216-0.331 0.216-0.157 0-0.291-0.1-0.341-0.239l-0.001-0.003-0.299-0.918c-0.158-0.467-0.479-0.843-0.895-1.068l-0.010-0.005-0.002-0.010c-0.082-0.045-0.178-0.087-0.279-0.121l-0.013-0.004-0.919-0.299c-0.142-0.052-0.241-0.185-0.241-0.342s0.099-0.29 0.239-0.341l0.003-0.001 0.919-0.299c0.56-0.197 0.991-0.634 1.176-1.184l0.004-0.013 0.299-0.918c0.051-0.143 0.185-0.243 0.342-0.243s0.291 0.1 0.342 0.24l0.001 0.003 0.299 0.918c0.192 0.567 0.631 1.005 1.185 1.193l0.013 0.004zM17.121 4.387c-0.336-0.034-0.726-0.053-1.121-0.053-0 0-0 0-0 0v0c-6.443 0-11.667 5.223-11.667 11.667s5.223 11.667 11.667 11.667c6.221 0 11.305-4.869 11.648-11.005 0.313 0.411 0.802 0.673 1.353 0.673 0.095 0 0.188-0.008 0.278-0.023l-0.010 0.001c-0.66 6.746-6.349 12.019-13.269 12.019-7.364 0-13.333-5.969-13.333-13.333s5.969-13.333 13.333-13.333c1.299 0 2.553 0.185 3.74 0.531l-1.695 0.551c-0.372 0.127-0.685 0.348-0.921 0.635l-0.003 0.003zM13.333 13c0 0.92-0.746 1.667-1.667 1.667s-1.667-0.746-1.667-1.667v0c0-0.92 0.746-1.667 1.667-1.667s1.667 0.746 1.667 1.667v0zM20.333 14.667c0.92 0 1.667-0.746 1.667-1.667s-0.746-1.667-1.667-1.667v0c-0.92 0-1.667 0.746-1.667 1.667s0.746 1.667 1.667 1.667v0zM12.301 23.121c1.046 0.554 2.286 0.88 3.602 0.88 0.034 0 0.068-0 0.102-0.001l-0.005 0c0.029 0 0.063 0.001 0.097 0.001 2.666 0 5.021-1.336 6.43-3.375l0.017-0.026c0.077-0.124 0.123-0.274 0.123-0.436 0-0.46-0.373-0.833-0.833-0.833-0.299 0-0.561 0.157-0.708 0.394l-0.002 0.004c-1.126 1.584-2.954 2.606-5.021 2.606-0.036 0-0.072-0-0.108-0.001l0.005 0c-0.030 0.001-0.065 0.001-0.101 0.001-2.068 0-3.897-1.021-5.011-2.587l-0.013-0.019c-0.149-0.24-0.411-0.397-0.71-0.397-0.46 0-0.833 0.373-0.833 0.833 0 0.161 0.046 0.312 0.125 0.439l-0.002-0.004c0.731 1.058 1.687 1.911 2.803 2.5l0.043 0.020z"></path>
</svg>
