<!-- Generated by IcoMoon.io -->
<svg version="1.1" xmlns="http://www.w3.org/2000/svg" width="32" height="32" viewBox="0 0 32 32">
<title>emoji-sad-slight</title>
<path d="M13.666 13.334c0-0.92-0.746-1.666-1.666-1.666s-1.666 0.746-1.666 1.666c0 0.92 0.746 1.666 1.666 1.666s1.666-0.746 1.666-1.666zM21.666 13.334c0-0.92-0.746-1.666-1.666-1.666s-1.666 0.746-1.666 1.666c0 0.92 0.746 1.666 1.666 1.666s1.666-0.746 1.666-1.666zM20.999 18.667c-1.134 0-2.342 0.286-3.389 0.693-1.035 0.403-2.018 0.966-2.652 1.6-0.391 0.391-0.391 1.024 0 1.414s1.024 0.391 1.414 0c0.366-0.366 1.071-0.803 1.963-1.15 0.881-0.343 1.839-0.557 2.663-0.557h0.8c0.552 0 1-0.448 1-1s-0.448-1-1-1h-0.8zM29.335 16.001c0-7.365-5.97-13.335-13.335-13.335s-13.335 5.97-13.335 13.335c0 7.365 5.97 13.335 13.335 13.335s13.335-5.971 13.335-13.335zM4.664 16.001c0-6.26 5.075-11.335 11.335-11.335s11.335 5.075 11.335 11.335c0 6.26-5.075 11.335-11.335 11.335s-11.335-5.075-11.335-11.335z"></path>
</svg>
