<!-- Generated by IcoMoon.io -->
<svg version="1.1" xmlns="http://www.w3.org/2000/svg" width="32" height="32" viewBox="0 0 32 32">
<title>emoji-sad-regular</title>
<path d="M16 2.664c7.365 0 13.336 5.971 13.336 13.336 0 7.364-5.972 13.333-13.336 13.333-7.365 0.001-13.336-5.969-13.336-13.333 0-7.365 5.971-13.336 13.336-13.336zM16 4.664c-0.037-0-0.080-0.001-0.123-0.001-6.261 0-11.336 5.075-11.336 11.336s5.075 11.336 11.336 11.336c0.043 0 0.086-0 0.129-0.001l-0.007 0c6.208-0.069 11.213-5.118 11.213-11.335s-5.005-11.266-11.206-11.335l-0.007-0zM16 17.997c2.175 0 4.213 0.872 5.708 2.393 0.191 0.183 0.31 0.439 0.31 0.724 0 0.552-0.448 1-1 1-0.291 0-0.554-0.125-0.736-0.324l-0.001-0.001c-1.086-1.107-2.598-1.793-4.27-1.793-0.004 0-0.008 0-0.012 0h0.001c-0.003 0-0.007 0-0.010 0-1.677 0-3.192 0.69-4.278 1.802l-0.001 0.001c-0.182 0.191-0.439 0.31-0.724 0.31-0.552 0-1-0.448-1-1 0-0.278 0.113-0.529 0.296-0.71l0-0c1.45-1.483 3.471-2.403 5.707-2.403 0.004 0 0.007 0 0.011 0h-0.001zM12 11.667c0.014-0 0.031-0.001 0.047-0.001 0.92 0 1.667 0.746 1.667 1.667s-0.746 1.667-1.667 1.667c-0.017 0-0.033-0-0.050-0.001l0.002 0c-0.9-0.026-1.62-0.762-1.62-1.666s0.72-1.64 1.617-1.666l0.002-0zM20 11.667c0.014-0 0.031-0.001 0.047-0.001 0.92 0 1.667 0.746 1.667 1.667s-0.746 1.667-1.667 1.667c-0.017 0-0.033-0-0.050-0.001l0.002 0c-0.9-0.026-1.62-0.762-1.62-1.666s0.72-1.64 1.617-1.666l0.002-0z"></path>
</svg>
