<!-- Generated by IcoMoon.io -->
<svg version="1.1" xmlns="http://www.w3.org/2000/svg" width="32" height="32" viewBox="0 0 32 32">
<title>emoji-laugh</title>
<path d="M9 16c-0 0-0.001 0-0.001 0-0.552 0-1 0.448-1 1 0 0.032 0.002 0.064 0.004 0.095l-0-0.004c0.373 4.099 3.4 7.576 7.997 7.576s7.623-3.477 7.997-7.576c0.003-0.027 0.004-0.059 0.004-0.091 0-0.552-0.448-1-1-1-0 0-0.001 0-0.002 0h-14.001zM16 22.667c-3.009 0-5.161-1.973-5.824-4.667h11.648c-0.661 2.693-2.813 4.667-5.824 4.667zM20.333 11.667c-0.544 0-0.947 0.383-1.011 0.813-0.074 0.486-0.489 0.853-0.989 0.853-0.552 0-1-0.448-1-1 0-0.052 0.004-0.103 0.012-0.152l-0.001 0.006c0.216-1.453 1.497-2.52 2.989-2.52s2.773 1.067 2.989 2.52c0.007 0.044 0.011 0.095 0.011 0.147 0 0.552-0.448 1-1 1-0.501 0-0.915-0.368-0.989-0.848l-0.001-0.006c-0.064-0.431-0.467-0.813-1.011-0.813zM10.656 12.48c0.064-0.431 0.467-0.813 1.011-0.813 0.545 0 0.947 0.383 1.011 0.813 0.074 0.486 0.489 0.853 0.989 0.853 0.552 0 1-0.448 1-1 0-0.052-0.004-0.103-0.011-0.152l0.001 0.006c-0.215-1.453-1.497-2.52-2.989-2.52s-2.773 1.067-2.989 2.52c-0.007 0.044-0.011 0.095-0.011 0.147 0 0.552 0.448 1 1 1 0.501 0 0.915-0.368 0.989-0.848l0.001-0.006zM16 2.667c-7.364 0-13.333 5.969-13.333 13.333s5.969 13.333 13.333 13.333 13.333-5.969 13.333-13.333-5.969-13.333-13.333-13.333zM4.667 16c0-6.259 5.074-11.333 11.333-11.333s11.333 5.074 11.333 11.333v0c0 6.259-5.074 11.333-11.333 11.333s-11.333-5.074-11.333-11.333v0z"></path>
</svg>
