<!-- Generated by IcoMoon.io -->
<svg version="1.1" xmlns="http://www.w3.org/2000/svg" width="32" height="32" viewBox="0 0 32 32">
<title>equal-off</title>
<path d="M4.373 2.96c-0.183-0.196-0.443-0.318-0.732-0.318-0.552 0-1 0.448-1 1 0 0.289 0.122 0.549 0.318 0.731l0.001 0.001 6.293 6.293h-4.253c-0.552 0-1 0.448-1 1s0.448 1 1 1v0h6.253l6.667 6.667h-12.92c-0.552 0-1 0.448-1 1s0.448 1 1 1v0h14.92l7.707 7.707c0.178 0.166 0.418 0.268 0.682 0.268 0.552 0 1-0.448 1-1 0-0.264-0.102-0.504-0.269-0.682l0.001 0.001-24.667-24.667zM27 19.333h-3.424l2 2h1.424c0.552 0 1-0.448 1-1s-0.448-1-1-1v0zM14.909 10.667l2 2h10.091c0.552 0 1-0.448 1-1s-0.448-1-1-1v0h-12.091z"></path>
</svg>
