<!-- Generated by IcoMoon.io -->
<svg version="1.1" xmlns="http://www.w3.org/2000/svg" width="32" height="32" viewBox="0 0 32 32">
<title>equal-circle-regular</title>
<path d="M21.677 14c0.552 0 1-0.448 1-1s-0.448-1-1-1v0h-11.317c-0.552 0-1 0.448-1 1s0.448 1 1 1v0h11.317zM21.677 20c0.552 0 1-0.448 1-1s-0.448-1-1-1v0h-11.317c-0.552 0-1 0.448-1 1s0.448 1 1 1v0h11.317zM29.333 16c0-7.364-5.969-13.333-13.333-13.333s-13.333 5.969-13.333 13.333 5.969 13.333 13.333 13.333 13.333-5.969 13.333-13.333zM16 4.667c6.259 0 11.333 5.074 11.333 11.333s-5.074 11.333-11.333 11.333v0c-6.259 0-11.333-5.074-11.333-11.333s5.074-11.333 11.333-11.333v0z"></path>
</svg>
