<!-- Generated by IcoMoon.io -->
<svg version="1.1" xmlns="http://www.w3.org/2000/svg" width="32" height="32" viewBox="0 0 32 32">
<title>equal-off</title>
<path d="M4.374 2.96c-0.391-0.391-1.024-0.391-1.414-0s-0.391 1.024-0 1.414l6.293 6.293h-4.252c-0.552 0-1 0.448-1 1s0.448 1 1 1h6.252l6.667 6.667h-12.919c-0.552 0-1 0.448-1 1s0.448 1 1 1h14.919l7.707 7.707c0.391 0.391 1.024 0.391 1.414 0s0.391-1.024 0-1.414l-24.666-24.667zM27 19.333h-3.424l2 2h1.424c0.552 0 1-0.448 1-1s-0.448-1-1-1zM14.909 10.667l2 2h10.091c0.552 0 1-0.448 1-1s-0.448-1-1-1h-12.091z"></path>
</svg>
