<!-- Generated by IcoMoon.io -->
<svg version="1.1" xmlns="http://www.w3.org/2000/svg" width="32" height="32" viewBox="0 0 32 32">
<title>eraser-small</title>
<path d="M21.121 3.548c-0.545-0.555-1.303-0.899-2.142-0.899-0.823 0-1.57 0.332-2.112 0.869l-12.798 12.677c-0.549 0.544-0.889 1.298-0.889 2.131 0 0.838 0.344 1.596 0.898 2.14l0 0 6.8 6.677c0.541 0.531 1.283 0.859 2.101 0.859 0.834 0 1.588-0.34 2.132-0.889l0-0 2.38-2.404c-0.102-0.414-0.16-0.889-0.16-1.377 0-0.532 0.069-1.047 0.198-1.538l-0.009 0.042-0.467 0.471-8.117-8.117 9.339-9.251c0.181-0.179 0.429-0.29 0.704-0.29 0.279 0 0.532 0.114 0.713 0.299l6.547 6.679c0.176 0.18 0.285 0.427 0.285 0.699 0 0.274-0.11 0.523-0.289 0.703l0-0-4.46 4.507c0.466-0.13 1.002-0.205 1.555-0.205 0.467 0 0.921 0.053 1.357 0.154l-0.040-0.008 3.011-3.040c0.537-0.542 0.868-1.288 0.868-2.111 0-0.819-0.328-1.56-0.859-2.102l0 0-6.547-6.677zM7.516 15.596l8.133 8.133-1.959 1.977c-0.181 0.183-0.433 0.296-0.711 0.296-0.273 0-0.52-0.109-0.7-0.286l0 0-6.8-6.677c-0.185-0.182-0.299-0.434-0.299-0.713 0-0.278 0.113-0.529 0.296-0.711l0-0 2.040-2.020zM23.471 18.668c2.518 0.076 4.529 2.136 4.529 4.665 0 2.577-2.089 4.667-4.667 4.667-2.572 0-4.658-2.081-4.667-4.65v-0.016c0-0.001 0-0.001 0-0.002 0-2.577 2.089-4.667 4.667-4.667 0.048 0 0.096 0.001 0.144 0.002l-0.007-0z"></path>
</svg>
