<!-- Generated by IcoMoon.io -->
<svg version="1.1" xmlns="http://www.w3.org/2000/svg" width="32" height="32" viewBox="0 0 32 32">
<title>eraser-segment</title>
<path d="M21.122 3.548c-1.164-1.187-3.072-1.201-4.254-0.031l-12.798 12.678c-1.189 1.177-1.184 3.1 0.009 4.272l6.799 6.677c0.623 0.611 1.444 0.896 2.252 0.856h8.355c0.425 1.352 1.688 2.333 3.181 2.333 1.841 0 3.333-1.492 3.333-3.333s-1.492-3.333-3.333-3.333c-1.493 0-2.756 0.981-3.181 2.333h-5.271l11.443-11.563c1.153-1.165 1.157-3.040 0.010-4.21l-6.547-6.678zM13 25.999v0.004c-0.259 0.005-0.521-0.090-0.72-0.286l-6.799-6.677c-0.398-0.391-0.399-1.031-0.003-1.424l2.038-2.019 8.132 8.132-1.957 1.978c-0.174 0.175-0.396 0.273-0.624 0.293h-0.067zM18.276 4.938c0.394-0.39 1.030-0.385 1.418 0.010l6.547 6.678c0.383 0.39 0.381 1.015-0.003 1.403l-9.182 9.278-8.118-8.118 9.339-9.251z"></path>
</svg>
