<!-- Generated by IcoMoon.io -->
<svg version="1.1" xmlns="http://www.w3.org/2000/svg" width="32" height="32" viewBox="0 0 32 32">
<title>eraser-medium</title>
<path d="M16.868 3.518c1.181-1.17 3.089-1.156 4.254 0.031l6.547 6.678c1.148 1.171 1.143 3.045-0.010 4.21l-0.916 0.926c-0.694-0.297-1.434-0.506-2.207-0.613l1.701-1.719c0.384-0.388 0.386-1.013 0.003-1.403l-6.547-6.678c-0.388-0.396-1.024-0.4-1.418-0.010l-9.338 9.251 6.231 6.231c-0.264 0.74-0.43 1.527-0.483 2.345l-7.169-7.169-2.039 2.019c-0.396 0.393-0.395 1.033 0.003 1.424l6.799 6.677c0.393 0.386 1.024 0.381 1.411-0.010l1.071-1.083c0.115 0.771 0.332 1.509 0.636 2.2l-0.286 0.289c-1.162 1.174-3.055 1.188-4.234 0.030l-6.799-6.677c-1.194-1.172-1.198-3.094-0.009-4.272l12.798-12.678zM23.333 30.667c4.050 0 7.333-3.283 7.333-7.333s-3.283-7.333-7.333-7.333c-4.050 0-7.333 3.283-7.333 7.333s3.283 7.333 7.333 7.333z"></path>
</svg>
