<!-- Generated by IcoMoon.io -->
<svg version="1.1" xmlns="http://www.w3.org/2000/svg" width="32" height="32" viewBox="0 0 32 32">
<title>eraser-segment-regular</title>
<path d="M21.121 3.548c-0.545-0.555-1.303-0.899-2.142-0.899-0.823 0-1.57 0.332-2.112 0.869l0-0-12.797 12.677c-0.549 0.544-0.889 1.298-0.889 2.131 0 0.838 0.344 1.596 0.898 2.14l0 0 6.799 6.677c0.54 0.532 1.281 0.86 2.099 0.86 0.054 0 0.108-0.001 0.162-0.004l-0.007 0h8.353c0.439 1.365 1.697 2.335 3.181 2.335 1.842 0 3.335-1.493 3.335-3.335s-1.493-3.335-3.335-3.335c-1.485 0-2.743 0.97-3.175 2.311l-0.007 0.024h-5.271l11.444-11.564c0.536-0.542 0.867-1.287 0.867-2.11 0-0.818-0.328-1.56-0.859-2.101l0 0-6.547-6.677zM13 26v0.003c-0.006 0-0.014 0-0.021 0-0.272 0-0.519-0.109-0.699-0.286l0 0-6.8-6.677c-0.185-0.182-0.299-0.434-0.299-0.713 0-0.278 0.113-0.529 0.296-0.711l2.040-2.019 8.131 8.132-1.957 1.977c-0.161 0.164-0.378 0.272-0.62 0.293l-0.004 0h-0.067zM18.276 4.939c0.181-0.179 0.429-0.29 0.704-0.29 0.279 0 0.532 0.114 0.713 0.299l6.547 6.679c0.177 0.18 0.286 0.427 0.286 0.7 0 0.274-0.11 0.522-0.289 0.703l0-0-9.184 9.277-8.117-8.117 9.339-9.251z"></path>
</svg>
