<!-- Generated by IcoMoon.io -->
<svg version="1.1" xmlns="http://www.w3.org/2000/svg" width="32" height="32" viewBox="0 0 32 32">
<title>eraser-regular</title>
<path d="M21.16 3.559l6.625 6.624c0.543 0.543 0.879 1.293 0.879 2.121s-0.336 1.578-0.879 2.121l-11.576 11.573 8.131 0.001c0.504 0 0.921 0.373 0.99 0.859l0.001 0.005 0.009 0.136c-0 0.505-0.374 0.922-0.86 0.99l-0.005 0.001-0.135 0.009-11.213 0.001c-0.051 0.003-0.11 0.005-0.169 0.005-0.827 0-1.576-0.336-2.117-0.878l-6.624-6.625c-0.543-0.543-0.879-1.293-0.879-2.121s0.336-1.578 0.879-2.121l12.701-12.701c0.543-0.543 1.293-0.879 2.121-0.879s1.578 0.336 2.121 0.879v0zM7.612 15.691l-1.983 1.984c-0.181 0.181-0.292 0.431-0.292 0.707s0.112 0.526 0.292 0.707v0l6.625 6.625c0.195 0.195 0.451 0.293 0.707 0.293l0.040-0.007 0.051 0.003c0.243-0.022 0.457-0.129 0.617-0.289l1.981-1.983-8.040-8.040zM18.332 4.972l-9.307 9.304 8.040 8.040 9.305-9.304c0.181-0.181 0.293-0.431 0.293-0.707s-0.112-0.526-0.293-0.707l-6.625-6.625c-0.181-0.181-0.431-0.292-0.707-0.292s-0.526 0.112-0.707 0.292v0z"></path>
</svg>
