<!-- Generated by IcoMoon.io -->
<svg version="1.1" xmlns="http://www.w3.org/2000/svg" width="32" height="32" viewBox="0 0 32 32">
<title>error-circle</title>
<path d="M16 2.667c7.364 0 13.333 5.971 13.333 13.333s-5.969 13.333-13.333 13.333-13.333-5.971-13.333-13.333 5.969-13.333 13.333-13.333zM16 4.889c-6.127 0-11.111 4.984-11.111 11.111s4.984 11.111 11.111 11.111c6.127 0 11.111-4.984 11.111-11.111s-4.984-11.111-11.111-11.111zM15.999 19.336c0.736 0 1.332 0.596 1.332 1.332s-0.596 1.332-1.332 1.332v0c-0.736 0-1.332-0.596-1.332-1.332s0.596-1.332 1.332-1.332v0zM15.992 9.333c0 0 0.001 0 0.001 0 0.504 0 0.921 0.373 0.99 0.859l0.001 0.005 0.009 0.135 0.005 6.003c0 0 0 0.001 0 0.001 0 0.552-0.448 1-1 1-0.504 0-0.921-0.373-0.99-0.858l-0.001-0.005-0.009-0.136-0.005-6.001c0-0 0-0.001 0-0.001 0-0.552 0.448-1 1-1v0z"></path>
</svg>
