<!-- Generated by IcoMoon.io -->
<svg version="1.1" xmlns="http://www.w3.org/2000/svg" width="32" height="32" viewBox="0 0 32 32">
<title>error-circle</title>
<path d="M16 2.667c7.364 0 13.333 5.971 13.333 13.333s-5.969 13.333-13.333 13.333c-7.364 0-13.333-5.971-13.333-13.333s5.969-13.333 13.333-13.333zM16 4.889c-6.127 0-11.111 4.984-11.111 11.111s4.984 11.111 11.111 11.111c6.127 0 11.111-4.984 11.111-11.111s-4.984-11.111-11.111-11.111zM15.998 19.336c0.735 0 1.331 0.596 1.331 1.332s-0.596 1.332-1.331 1.332c-0.735 0-1.332-0.596-1.332-1.332s0.596-1.332 1.332-1.332zM15.993 9.333c0.506-0 0.925 0.375 0.991 0.864l0.009 0.136 0.005 6.002c0 0.552-0.447 1-0.999 1.001-0.506 0-0.925-0.375-0.992-0.863l-0.009-0.136-0.005-6.002c-0.001-0.552 0.447-1 0.999-1.001z"></path>
</svg>
