<!-- Generated by IcoMoon.io -->
<svg version="1.1" xmlns="http://www.w3.org/2000/svg" width="32" height="32" viewBox="0 0 32 32">
<title>error-circle-settings</title>
<path d="M28.8 16c-0.001-7.069-5.731-12.799-12.8-12.799s-12.8 5.731-12.8 12.8 5.731 12.8 12.8 12.8c0.332 0 0.66-0.013 0.986-0.037l-0.043 0.003c-0.231-0.445-0.44-0.966-0.598-1.509l-0.015-0.062c-0.099 0.003-0.215 0.005-0.331 0.005-6.186 0-11.2-5.014-11.2-11.2s5.014-11.2 11.2-11.2c6.186 0 11.2 5.014 11.2 11.2 0 0.116-0.002 0.232-0.005 0.348l0-0.017c0.549 0.154 1.074 0.358 1.573 0.611 0.022-0.312 0.034-0.626 0.034-0.942zM17.053 20.624c-0.208-0.375-0.601-0.624-1.053-0.624-0.663 0-1.2 0.537-1.2 1.2s0.537 1.2 1.2 1.2c0.123 0 0.242-0.019 0.354-0.053l-0.009 0.002c0.176-0.605 0.413-1.182 0.707-1.726zM16.787 10.256c-0.070-0.376-0.396-0.657-0.787-0.657-0.442 0-0.8 0.358-0.8 0.8 0 0.001 0 0.001 0 0.002v-0 7.2l0.013 0.144c0.070 0.376 0.396 0.657 0.787 0.657 0.442 0 0.8-0.358 0.8-0.8 0-0.001 0-0.001 0-0.002v0-7.2l-0.013-0.144zM18.616 23.872c1.395-0.366 2.407-1.615 2.407-3.1 0-0.308-0.043-0.605-0.125-0.887l0.006 0.023-0.248-0.891c0.406-0.312 0.846-0.579 1.314-0.795l0.541 0.573c0.585 0.62 1.412 1.005 2.329 1.005s1.742-0.385 2.326-1.002l0.001-0.002 0.518-0.549c0.477 0.224 0.925 0.502 1.336 0.829l-0.202 0.675c-0.085 0.274-0.134 0.59-0.134 0.916 0 1.506 1.040 2.769 2.442 3.11l0.022 0.005 0.558 0.131c0.033 0.266 0.053 0.574 0.053 0.887 0 0.261-0.013 0.518-0.039 0.772l0.003-0.032-0.736 0.189c-1.395 0.365-2.409 1.614-2.409 3.101 0 0.308 0.043 0.605 0.124 0.887l-0.006-0.023 0.25 0.89c-0.406 0.314-0.848 0.581-1.315 0.797l-0.539-0.573c-0.585-0.62-1.412-1.006-2.329-1.006-0.916 0-1.742 0.385-2.325 1.001l-0.001 0.002-0.52 0.552c-0.509-0.243-0.948-0.519-1.35-0.84l0.014 0.011 0.203-0.677c0.085-0.274 0.134-0.59 0.134-0.916 0-1.506-1.040-2.769-2.442-3.11l-0.022-0.005-0.56-0.133c-0.033-0.266-0.052-0.574-0.052-0.887 0-0.26 0.013-0.517 0.039-0.771l-0.003 0.032 0.738-0.189zM26.4 24.8c0-0.884-0.716-1.6-1.6-1.6s-1.6 0.716-1.6 1.6v0c0 0.884 0.716 1.6 1.6 1.6s1.6-0.716 1.6-1.6v0z"></path>
</svg>
