<!-- Generated by IcoMoon.io -->
<svg version="1.1" xmlns="http://www.w3.org/2000/svg" width="32" height="32" viewBox="0 0 32 32">
<title>expand-up-right-regular</title>
<path d="M5.667 8.167c0-1.381 1.119-2.5 2.5-2.5v0h5.257c0.46 0 0.833-0.373 0.833-0.833s-0.373-0.833-0.833-0.833v0h-5.257c-2.301 0-4.167 1.865-4.167 4.167v0 15.667c0 2.301 1.865 4.167 4.167 4.167v0h15.667c2.301 0 4.167-1.865 4.167-4.167v0-5.257c0-0.46-0.373-0.833-0.833-0.833s-0.833 0.373-0.833 0.833v0 5.257c0 1.381-1.119 2.5-2.5 2.5v0h-7.833v-6.833c0-1.933-1.567-3.5-3.5-3.5h-6.833v-7.833zM5.667 17.667h6.833c1.013 0 1.833 0.821 1.833 1.833v0 6.833h-6.167c-1.381 0-2.5-1.119-2.5-2.5v0-6.167zM18 4.833c0-0.46 0.373-0.833 0.833-0.833h8.333c0.46 0 0.833 0.373 0.833 0.833v8.333c0 0.46-0.373 0.833-0.833 0.833s-0.833-0.373-0.833-0.833v0-6.321l-6.911 6.911c-0.151 0.151-0.359 0.244-0.589 0.244-0.46 0-0.833-0.373-0.833-0.833 0-0.23 0.093-0.438 0.244-0.589v0l6.911-6.911h-6.321c-0.46 0-0.833-0.373-0.833-0.833z"></path>
</svg>
