<!-- Generated by IcoMoon.io -->
<svg version="1.1" xmlns="http://www.w3.org/2000/svg" width="32" height="32" viewBox="0 0 32 32">
<title>expand-up-left</title>
<path d="M14.667 5c0-0.552-0.448-1-1-1h-8.667c-0.552 0-1 0.448-1 1v8.667c0 0.552 0.448 1 1 1s1-0.448 1-1v-6.252l6.96 6.96c0.391 0.39 1.024 0.39 1.414-0s0.391-1.024 0-1.414l-6.96-6.96h6.253c0.552 0 1-0.448 1-1zM26.001 8.333c0-1.289-1.045-2.333-2.333-2.333h-5.333c-0.552 0-1-0.448-1-1s0.448-1 1-1h5.333c2.393 0 4.333 1.94 4.333 4.333v15.333c0 2.393-1.94 4.333-4.333 4.333h-15.333c-2.393 0-4.333-1.94-4.333-4.333v-5.333c0-0.552 0.448-1 1-1s1 0.448 1 1v5.333c0 1.289 1.045 2.333 2.333 2.333h7.667v-6.333c0-2.025 1.642-3.667 3.667-3.667h6.333v-7.667zM26.001 18h-6.333c-0.921 0-1.667 0.746-1.667 1.667v6.333h5.667c1.289 0 2.333-1.045 2.333-2.333v-5.667z"></path>
</svg>
