<!-- Generated by IcoMoon.io -->
<svg version="1.1" xmlns="http://www.w3.org/2000/svg" width="32" height="32" viewBox="0 0 32 32">
<title>extended-dock-regular</title>
<path d="M8.333 14.663c1.288 0 2.333 1.045 2.333 2.333v3.333c0 1.289-1.045 2.333-2.333 2.333v0h-3.333c-1.289 0-2.333-1.045-2.333-2.333v0-3.333c0-1.288 1.045-2.333 2.333-2.333h3.333zM17.667 14.663c1.288 0 2.333 1.045 2.333 2.333v3.333c0 1.289-1.045 2.333-2.333 2.333v0h-3.333c-1.289 0-2.333-1.045-2.333-2.333v0-3.333c0-1.288 1.045-2.333 2.333-2.333h3.333zM27 14.663c1.288 0 2.333 1.045 2.333 2.333v3.333c0 1.289-1.045 2.333-2.333 2.333v0h-3.333c-1.289 0-2.333-1.045-2.333-2.333v0-3.333c0-1.288 1.045-2.333 2.333-2.333h3.333zM8.333 16.663h-3.333c-0.184 0-0.333 0.149-0.333 0.333v0 3.333c0 0.185 0.149 0.333 0.333 0.333h3.333c0.184 0 0.333-0.149 0.333-0.333v0-3.333c0-0.184-0.149-0.333-0.333-0.333v0zM17.667 16.663h-3.333c-0.184 0-0.333 0.149-0.333 0.333v0 3.333c0 0.185 0.149 0.333 0.333 0.333h3.333c0.184 0 0.333-0.149 0.333-0.333v0-3.333c0-0.184-0.149-0.333-0.333-0.333v0zM27 16.663h-3.333c-0.184 0-0.333 0.149-0.333 0.333v0 3.333c0 0.185 0.149 0.333 0.333 0.333h3.333c0.184 0 0.333-0.149 0.333-0.333v0-3.333c0-0.184-0.149-0.333-0.333-0.333v0zM10.627 10.293l4.667-4.667c0.181-0.181 0.431-0.293 0.707-0.293 0.219 0 0.422 0.070 0.586 0.19l-0.003-0.002 0.113 0.095 4.803 4.667c0.186 0.182 0.302 0.436 0.302 0.716 0 0.552-0.448 1-1 1-0.218 0-0.421-0.070-0.585-0.189l0.003 0.002-0.113-0.095-4.096-3.98-3.971 3.969c-0.181 0.179-0.43 0.29-0.704 0.29-0.552 0-1-0.448-1-1 0-0.223 0.073-0.428 0.196-0.594l-0.002 0.003 0.097-0.112z"></path>
</svg>
