<!-- Generated by IcoMoon.io -->
<svg version="1.1" xmlns="http://www.w3.org/2000/svg" width="32" height="32" viewBox="0 0 32 32">
<title>eye-tracking-off-regular</title>
<path d="M4.373 2.96c-0.183-0.196-0.443-0.318-0.732-0.318-0.552 0-1 0.448-1 1 0 0.289 0.122 0.549 0.318 0.731l0.001 0.001 0.169 0.169c-0.297 0.529-0.467 1.14-0.467 1.791v4.669l0.009 0.136c0.069 0.491 0.486 0.864 0.991 0.864 0.552 0 1-0.448 1-1v-4.669l0.009-0.171 0.008-0.068 4.9 4.9c-1.088 0.813-1.987 1.811-2.668 2.955l-0.026 0.046c-0.157 0.263-0.317 0.576-0.457 0.9l-0.021 0.054-0.008 0.020c-0.003 0.007-0.216 1 0.581 1.299 0.104 0.040 0.225 0.063 0.351 0.063 0.425 0 0.787-0.265 0.932-0.638l0.002-0.007 0.001-0.003 0.011-0.027 0.059-0.133c0.057-0.12 0.147-0.301 0.275-0.521 0.616-1.037 1.42-1.897 2.373-2.558l0.027-0.018 1.992 1.992c-1.027 0.862-1.674 2.146-1.674 3.581 0 2.577 2.089 4.667 4.667 4.667 1.435 0 2.719-0.648 3.575-1.667l0.006-0.007 6.325 6.325c-0.072 0.011-0.155 0.017-0.24 0.017h-4.667l-0.137 0.009c-0.491 0.069-0.864 0.486-0.864 0.991 0 0.552 0.448 1 1 1h4.667l0.224-0.007c0.581-0.035 1.116-0.202 1.586-0.469l-0.018 0.009 0.171 0.171c0.18 0.174 0.425 0.281 0.695 0.281 0.552 0 1-0.448 1-1 0-0.27-0.107-0.515-0.281-0.695l-24.666-24.666zM18.156 19.571c-0.491 0.668-1.273 1.097-2.156 1.097-1.473 0-2.667-1.194-2.667-2.667 0-0.883 0.429-1.665 1.090-2.151l0.007-0.005 3.725 3.725zM15.267 11.024l-1.771-1.771c0.74-0.161 1.589-0.253 2.46-0.253 0.015 0 0.031 0 0.046 0h-0.002c3.635 0 6.047 1.467 7.54 2.96 0.595 0.594 1.116 1.262 1.548 1.989l0.026 0.046c0.146 0.244 0.298 0.537 0.432 0.84l0.021 0.054 0.024 0.061 0.011 0.027v0.003l0.001 0.003c0.040 0.104 0.063 0.225 0.063 0.35 0 0.426-0.267 0.79-0.642 0.934l-0.007 0.002c-0.103 0.038-0.221 0.061-0.345 0.061-0.426 0-0.791-0.264-0.94-0.638l-0.002-0.007-0.011-0.027s-0.031-0.073-0.059-0.133c-0.1-0.214-0.192-0.385-0.291-0.551l0.016 0.029c-0.367-0.619-0.784-1.155-1.26-1.631v0c-1.173-1.173-3.093-2.373-6.127-2.373-0.002 0-0.005 0-0.008 0-0.255 0-0.508 0.009-0.759 0.026l0.034-0.002zM29.329 25.087l-2-2v-2.087c0-0.552 0.448-1 1-1 0.504 0 0.921 0.373 0.99 0.858l0.001 0.005 0.009 0.136v4.087zM8.909 4.667l-2-2h4.087c0.552 0 1 0.448 1 1 0 0.504-0.373 0.921-0.858 0.99l-0.005 0.001-0.136 0.009h-2.087zM3.663 20c0.504 0 0.921 0.373 0.99 0.859l0.001 0.005 0.009 0.136v4.669l0.009 0.171c0.083 0.786 0.701 1.404 1.479 1.487l0.007 0.001 0.171 0.008h4.667l0.136 0.009c0.491 0.069 0.864 0.486 0.864 0.991s-0.373 0.921-0.858 0.99l-0.005 0.001-0.136 0.009h-4.667l-0.223-0.007c-1.846-0.115-3.316-1.581-3.437-3.416l-0.001-0.011-0.007-0.233v-4.669l0.009-0.136c0.069-0.491 0.486-0.864 0.991-0.864v0zM25.663 2.667l0.224 0.007c1.846 0.116 3.315 1.582 3.435 3.416l0.001 0.011 0.007 0.233v4.669l-0.009 0.136c-0.069 0.491-0.486 0.864-0.991 0.864s-0.921-0.373-0.99-0.858l-0.001-0.005-0.009-0.136v-4.669l-0.008-0.171c-0.083-0.786-0.702-1.405-1.481-1.487l-0.007-0.001-0.171-0.008h-4.667l-0.136-0.009c-0.491-0.069-0.864-0.486-0.864-0.991s0.373-0.921 0.858-0.99l0.005-0.001 0.136-0.009h4.667z"></path>
</svg>
