<!-- Generated by IcoMoon.io -->
<svg version="1.1" xmlns="http://www.w3.org/2000/svg" width="32" height="32" viewBox="0 0 32 32">
<title>eye-tracking-regular</title>
<path d="M10.996 2.667c0.552 0 1 0.448 1 1 0 0.504-0.373 0.921-0.858 0.99l-0.005 0.001-0.136 0.009h-4.667c-0.86 0-1.568 0.652-1.657 1.489l-0.001 0.007-0.009 0.171v4.669c-0 0.552-0.448 1-1 1-0.504 0-0.921-0.373-0.99-0.858l-0.001-0.005-0.009-0.136v-4.669c0-0 0-0 0-0 0-1.947 1.517-3.539 3.433-3.659l0.011-0.001 0.223-0.007h4.667zM4.653 20.864c-0.069-0.491-0.486-0.864-0.991-0.864s-0.921 0.373-0.99 0.858l-0.001 0.005-0.009 0.136v4.669l0.007 0.233c0.121 1.845 1.591 3.311 3.427 3.426l0.011 0.001 0.223 0.007h4.667l0.136-0.008c0.493-0.067 0.869-0.485 0.869-0.991s-0.376-0.924-0.863-0.991l-0.005-0.001-0.136-0.009h-4.667l-0.171-0.008c-0.786-0.084-1.404-0.702-1.486-1.481l-0.001-0.007-0.009-0.171v-4.669l-0.009-0.136zM29.32 20.864c-0.069-0.491-0.486-0.864-0.991-0.864-0.552 0-1 0.448-1 1v4.669l-0.008 0.171c-0.089 0.844-0.798 1.496-1.658 1.496-0 0-0.001 0-0.001 0h-4.667l-0.136 0.009c-0.491 0.069-0.864 0.486-0.864 0.991 0 0.552 0.448 1 1 1h4.667l0.224-0.007c1.926-0.122 3.443-1.714 3.443-3.66 0-0 0-0 0-0v0-4.669l-0.009-0.136zM25.887 2.673l-0.224-0.007h-4.667l-0.136 0.009c-0.491 0.069-0.864 0.486-0.864 0.991s0.373 0.921 0.858 0.99l0.005 0.001 0.136 0.009h4.667l0.171 0.008c0.786 0.083 1.405 0.702 1.487 1.481l0.001 0.007 0.008 0.171v4.669l0.009 0.136c0.069 0.491 0.486 0.864 0.991 0.864s0.921-0.373 0.99-0.858l0.001-0.005 0.009-0.136v-4.669l-0.007-0.232c-0.12-1.845-1.59-3.312-3.425-3.427l-0.011-0.001zM8.269 15.685l0.011-0.027 0.059-0.133c0.057-0.12 0.147-0.301 0.275-0.521 0.259-0.443 0.667-1.036 1.26-1.631 1.173-1.173 3.093-2.373 6.127-2.373 3.032 0 4.953 1.2 6.127 2.373 0.593 0.595 1.001 1.188 1.26 1.631 0.107 0.177 0.218 0.392 0.317 0.613l0.016 0.040 0.011 0.028c0.2 0.507 0.772 0.777 1.287 0.584 0.383-0.146 0.65-0.51 0.65-0.937 0-0.126-0.023-0.246-0.066-0.357l0.002 0.007-0.003-0.005-0.011-0.027c-0.046-0.118-0.085-0.206-0.127-0.292l0.011 0.025c-0.132-0.282-0.252-0.508-0.381-0.727l0.021 0.039c-0.458-0.774-0.979-1.442-1.573-2.036l-0-0c-1.496-1.493-3.908-2.96-7.541-2.96-3.635 0-6.047 1.467-7.54 2.96-0.595 0.594-1.116 1.262-1.548 1.989l-0.026 0.046c-0.157 0.263-0.317 0.576-0.457 0.9l-0.021 0.054-0.008 0.020c-0.003 0.007-0.216 1 0.581 1.299 0.104 0.040 0.225 0.063 0.351 0.063 0.425 0 0.787-0.265 0.932-0.638l0.002-0.007 0.001-0.003zM16 13.333c-2.577 0-4.667 2.089-4.667 4.667s2.089 4.667 4.667 4.667v0c2.577 0 4.667-2.089 4.667-4.667s-2.089-4.667-4.667-4.667v0zM13.333 18c0-1.473 1.194-2.667 2.667-2.667s2.667 1.194 2.667 2.667v0c0 1.473-1.194 2.667-2.667 2.667s-2.667-1.194-2.667-2.667v0z"></path>
</svg>
