<!-- Generated by IcoMoon.io -->
<svg version="1.1" xmlns="http://www.w3.org/2000/svg" width="32" height="32" viewBox="0 0 32 32">
<title>eye-lines-regular</title>
<path d="M3.318 13.667h9.030c-0.31 0.476-0.531 1.038-0.627 1.642l-0.003 0.025h-8.952c0.022-0.092 0.047-0.187 0.073-0.281 0.105-0.38 0.263-0.853 0.479-1.385zM2.765 16.667h8.952c0.093 0.607 0.313 1.171 0.631 1.667h-9.030c-0.156-0.363-0.32-0.823-0.457-1.294l-0.023-0.091c-0.012-0.032-0.037-0.126-0.060-0.221l-0.013-0.060zM15.999 4.667c-2.611 0-4.761 0.664-6.512 1.667h6.515c4.485 0.001 7.385 2.211 9.193 4.567 0.75 0.973 1.399 2.084 1.897 3.274l0.036 0.098c0.198 0.487 0.337 0.907 0.426 1.225 0.043 0.138 0.082 0.308 0.11 0.481l0.003 0.021-0.001 0.003c-0.030 0.194-0.069 0.362-0.119 0.526l0.007-0.027c-0.142 0.497-0.287 0.904-0.454 1.299l0.028-0.074c-0.535 1.288-1.184 2.399-1.959 3.408l0.026-0.035c-1.807 2.355-4.707 4.565-9.192 4.566h-6.515c1.641 0.94 3.633 1.582 6.027 1.659 0.16 0.005 0.321 0.008 0.485 0.008h0.003c5.127-0.001 8.476-2.562 10.515-5.218 0.835-1.084 1.558-2.322 2.113-3.648l0.040-0.109c0.222-0.543 0.383-1.025 0.49-1.411 0.098-0.355 0.173-0.705 0.173-0.948s-0.075-0.593-0.173-0.948c-0.163-0.571-0.329-1.040-0.522-1.495l0.032 0.085c-0.595-1.434-1.318-2.672-2.182-3.796l0.029 0.039c-2.038-2.656-5.386-5.217-10.514-5.218h-0.003zM7.587 7.667h8.415v1.667h-10.076c0.513-0.607 1.057-1.152 1.642-1.65l0.020-0.016zM4.92 10.667h11.080v-0.667c3.314 0 6 2.686 6 6s-2.686 6-6 6v0-0.667h-11.081c-0.32-0.466-0.647-1.011-0.943-1.576l-0.043-0.091h9.757c0.653 0.418 1.449 0.667 2.304 0.667 0.002 0 0.004 0 0.006 0h0.001c2.393 0 4.333-1.94 4.333-4.333s-1.94-4.333-4.333-4.333v0h-0.001c-0.002 0-0.004 0-0.006 0-0.854 0-1.651 0.248-2.321 0.677l0.017-0.010h-9.756c0.275-0.535 0.603-1.098 0.987-1.667zM5.927 22.667h10.075v1.667h-8.415c-0.604-0.515-1.147-1.060-1.643-1.646l-0.017-0.021zM15.999 7.667v1.667z"></path>
</svg>
