<!-- Generated by IcoMoon.io -->
<svg version="1.1" xmlns="http://www.w3.org/2000/svg" width="32" height="32" viewBox="0 0 32 32">
<title>eye-regular</title>
<path d="M27.707 17.42c0.111 0.339 0.425 0.579 0.794 0.579 0.090 0 0.177-0.014 0.258-0.041l-0.006 0.002c0.433-0.14 0.68-0.607 0.54-1.047l-0.001-0.002c-0.059-0.178-3.399-10.245-13.293-10.245-9.893 0-13.233 10.067-13.291 10.245l-0.001 0.002c-0.14 0.44 0.1 0.907 0.54 1.047s0.907-0.1 1.047-0.54c0.12-0.373 3.007-9.087 11.707-9.087s11.587 8.713 11.707 9.087zM11.667 18c0-2.393 1.94-4.333 4.333-4.333s4.333 1.94 4.333 4.333v0c0 2.393-1.94 4.333-4.333 4.333s-4.333-1.94-4.333-4.333v0zM16 12c-3.314 0-6 2.686-6 6s2.686 6 6 6v0c3.314 0 6-2.686 6-6s-2.686-6-6-6v0z"></path>
</svg>
