<!-- Generated by IcoMoon.io -->
<svg version="1.1" xmlns="http://www.w3.org/2000/svg" width="32" height="32" viewBox="0 0 32 32">
<title>eyedropper-off</title>
<path d="M11.92 13.333l-6.373 6.373c-0.543 0.543-0.879 1.293-0.879 2.121 0 0 0 0 0 0v0 0.917l-1.707 3.129c-1.115 2.044 1.121 4.28 3.165 3.165l3.129-1.707h0.917c0.828-0 1.577-0.336 2.12-0.879l6.373-6.373 8.96 8.96c0.18 0.174 0.424 0.28 0.694 0.28 0.552 0 1-0.448 1-1 0-0.27-0.107-0.515-0.281-0.695l0 0-24.667-24.667c-0.183-0.196-0.443-0.318-0.732-0.318-0.552 0-1 0.448-1 1 0 0.289 0.122 0.549 0.318 0.731l0.001 0.001 8.96 8.96zM17.253 18.667l-6.373 6.373c-0.181 0.181-0.431 0.293-0.707 0.293h-1.173c-0.176 0-0.34 0.046-0.484 0.125l0.005-0.003-3.353 1.829c-0.047 0.029-0.103 0.046-0.164 0.046-0.017 0-0.034-0.001-0.050-0.004l0.002 0c-0.073-0.015-0.136-0.050-0.184-0.1l-0-0c-0.050-0.048-0.085-0.111-0.1-0.182l-0-0.002c-0.002-0.014-0.003-0.030-0.003-0.047 0-0.061 0.018-0.119 0.048-0.167l-0.001 0.001 1.831-3.352c0.076-0.137 0.12-0.301 0.12-0.475 0-0.002 0-0.004 0-0.005v0-1.172c0-0.276 0.112-0.526 0.293-0.707v0l6.373-6.373 3.919 3.92zM24.651 17.431c-0.422 0.423-1.006 0.684-1.65 0.684-0.277 0-0.543-0.048-0.79-0.137l0.016 0.005-8.208-8.209c-0.084-0.23-0.132-0.496-0.132-0.774 0-0.645 0.261-1.228 0.684-1.65v0l0.78-0.781c0.422-0.422 1.006-0.684 1.65-0.684s1.228 0.261 1.65 0.684v0l0.017 0.016 2.627-2.627c0.863-0.863 2.056-1.397 3.373-1.397 2.635 0 4.771 2.136 4.771 4.771 0 1.318-0.534 2.511-1.398 3.374l-2.627 2.628 0.017 0.017c0.422 0.422 0.683 1.006 0.683 1.65s-0.261 1.228-0.683 1.65v0l-0.781 0.78z"></path>
</svg>
