<!-- Generated by IcoMoon.io -->
<svg version="1.1" xmlns="http://www.w3.org/2000/svg" width="32" height="32" viewBox="0 0 32 32">
<title>eyedropper</title>
<path d="M28.040 3.96c-1.863-1.863-4.884-1.863-6.747 0l-2.626 2.626-0.017-0.017c-0.911-0.911-2.389-0.911-3.3 0l-0.781 0.781c-0.911 0.911-0.911 2.389 0 3.3l0.017 0.017-9.040 9.040c-0.563 0.563-0.879 1.326-0.879 2.121v0.917l-1.707 3.13c-1.115 2.044 1.122 4.281 3.166 3.166l3.13-1.707h0.917c0.796 0 1.559-0.316 2.121-0.879l9.040-9.040 0.017 0.017c0.911 0.911 2.389 0.911 3.3 0l0.781-0.781c0.911-0.911 0.911-2.389 0-3.3l-0.017-0.017 2.626-2.626c1.863-1.863 1.863-4.884 0-6.748zM22.707 5.374c1.082-1.082 2.837-1.082 3.919 0s1.082 2.837 0 3.919l-3.333 3.333c-0.391 0.391-0.391 1.024 0 1.414l0.724 0.724c0.13 0.13 0.13 0.341 0 0.471l-0.781 0.781c-0.13 0.13-0.341 0.13-0.471 0l-6.781-6.781c-0.13-0.13-0.13-0.341 0-0.471l0.781-0.781c0.13-0.13 0.341-0.13 0.471 0l0.724 0.724c0.39 0.391 1.024 0.391 1.414 0l3.333-3.333zM19.919 16l-9.040 9.040c-0.188 0.188-0.442 0.293-0.707 0.293h-1.172c-0.167 0-0.332 0.042-0.479 0.122l-3.354 1.829c-0.092 0.050-0.161 0.053-0.212 0.043-0.060-0.011-0.126-0.043-0.184-0.1s-0.090-0.124-0.1-0.184c-0.009-0.051-0.007-0.12 0.043-0.212l1.829-3.354c0.080-0.147 0.122-0.311 0.122-0.479v-1.172c0-0.265 0.105-0.52 0.293-0.707l9.040-9.040 3.919 3.919z"></path>
</svg>
