<!-- Generated by IcoMoon.io -->
<svg version="1.1" xmlns="http://www.w3.org/2000/svg" width="32" height="32" viewBox="0 0 32 32">
<title>eyedropper-regular</title>
<path d="M28.040 3.96c-0.863-0.863-2.056-1.397-3.373-1.397s-2.51 0.534-3.373 1.397l-2.627 2.627-0.017-0.017c-0.422-0.422-1.006-0.683-1.65-0.683s-1.228 0.261-1.65 0.684v0l-0.78 0.781c-0.422 0.422-0.684 1.006-0.684 1.65s0.261 1.228 0.684 1.65l0.016 0.016-9.040 9.040c-0.543 0.543-0.879 1.293-0.879 2.121 0 0 0 0.001 0 0.001v-0 0.916l-1.707 3.129c-1.115 2.044 1.121 4.28 3.165 3.167l3.129-1.707h0.917c0.828-0.001 1.578-0.337 2.12-0.88l9.041-9.040 0.016 0.016c0.422 0.422 1.006 0.683 1.65 0.683s1.228-0.261 1.65-0.683v0l0.781-0.78c0.422-0.422 0.683-1.006 0.683-1.65s-0.261-1.228-0.683-1.65v0l-0.016-0.017 2.627-2.627c0.863-0.863 1.397-2.056 1.397-3.373s-0.534-2.51-1.397-3.373v0zM22.707 5.373c0.5-0.49 1.185-0.792 1.94-0.792 1.531 0 2.772 1.241 2.772 2.772 0 0.756-0.302 1.441-0.793 1.941l-3.333 3.333c-0.181 0.181-0.292 0.431-0.292 0.707s0.112 0.526 0.292 0.707v0l0.724 0.724c0.061 0.060 0.098 0.144 0.098 0.236s-0.037 0.176-0.098 0.236v0l-0.781 0.781c-0.060 0.061-0.144 0.098-0.236 0.098s-0.176-0.037-0.236-0.098v0l-6.781-6.781c-0.060-0.060-0.097-0.143-0.097-0.235s0.037-0.175 0.097-0.235v0l0.781-0.781c0.060-0.061 0.144-0.098 0.236-0.098s0.176 0.037 0.236 0.098v0l0.724 0.724c0.181 0.181 0.431 0.292 0.707 0.292s0.526-0.112 0.707-0.292v0l3.333-3.333zM19.92 16l-9.040 9.040c-0.181 0.181-0.431 0.293-0.708 0.293-0 0-0 0-0 0h-1.172c-0.176 0-0.34 0.046-0.484 0.125l0.005-0.003-3.353 1.829c-0.047 0.029-0.103 0.046-0.164 0.046-0.017 0-0.034-0.001-0.050-0.004l0.002 0c-0.073-0.015-0.136-0.050-0.184-0.1l-0-0c-0.050-0.048-0.085-0.111-0.1-0.182l-0-0.002c-0.002-0.014-0.003-0.029-0.003-0.045 0-0.061 0.018-0.118 0.048-0.166l-0.001 0.001 1.829-3.353c0.076-0.138 0.121-0.302 0.121-0.477 0-0.001 0-0.002 0-0.003v0-1.171c0-0.276 0.112-0.526 0.293-0.707v0l9.040-9.043 3.92 3.92z"></path>
</svg>
