<!-- Generated by IcoMoon.io -->
<svg version="1.1" xmlns="http://www.w3.org/2000/svg" width="32" height="32" viewBox="0 0 32 32">
<title>fast-acceleration</title>
<path d="M18 5.333c6.259 0 11.333 5.074 11.333 11.333s-5.074 11.333-11.333 11.333c-2.388 0-4.603-0.738-6.43-1.999l-9.235-0.001c-0.552 0-1-0.448-1-1 0-0.506 0.376-0.925 0.864-0.991l0.136-0.009 7.024 0.001c-0.522-0.614-0.979-1.285-1.362-2.001l-3.002-0c-0.552 0-1-0.448-1-1 0-0.506 0.376-0.925 0.864-0.991l0.136-0.009 2.169 0.001c-0.324-1.054-0.499-2.174-0.499-3.335 0-2.797 1.013-5.357 2.692-7.333l-5.692 0c-0.552 0-1-0.448-1-1 0-0.506 0.376-0.925 0.864-0.991l0.136-0.009h7.902c1.827-1.261 4.043-2 6.431-2zM18 7.333c-5.155 0-9.333 4.179-9.333 9.333s4.179 9.333 9.333 9.333c5.155 0 9.333-4.179 9.333-9.333s-4.179-9.333-9.333-9.333zM18.004 9.336c4.051 0 7.335 3.284 7.335 7.335s-3.284 7.335-7.335 7.335c-4.051 0-7.335-3.284-7.335-7.335s3.284-7.335 7.335-7.335zM19.539 19.621c-0.46 0.24-0.984 0.376-1.539 0.376-0.549 0-1.068-0.133-1.525-0.369l-1.461 1.461c0.853 0.578 1.882 0.916 2.99 0.916 1.112 0 2.144-0.34 2.998-0.921l-1.463-1.463zM12.669 16.671c0 1.115 0.342 2.15 0.927 3.006l1.457-1.455c-0.246-0.465-0.385-0.994-0.385-1.557 0-0.556 0.136-1.080 0.377-1.541l-1.454-1.452c-0.582 0.855-0.921 1.887-0.921 2.998zM22.424 13.681l-1.46 1.46c0.235 0.457 0.369 0.975 0.369 1.525 0 0.556-0.136 1.080-0.377 1.541l1.463 1.463c0.581-0.854 0.921-1.887 0.921-2.998 0-1.108-0.338-2.137-0.916-2.99zM18 15.333c-0.736 0-1.332 0.596-1.332 1.332s0.596 1.332 1.332 1.332c0.736 0 1.332-0.596 1.332-1.332s-0.596-1.332-1.332-1.332zM18.004 11.336c-1.112 0-2.145 0.34-2.999 0.922l1.453 1.453c0.461-0.241 0.986-0.377 1.542-0.377 0.562 0 1.091 0.139 1.555 0.384l1.455-1.455c-0.856-0.585-1.891-0.927-3.006-0.927z"></path>
</svg>
