<!-- Generated by IcoMoon.io -->
<svg version="1.1" xmlns="http://www.w3.org/2000/svg" width="32" height="32" viewBox="0 0 32 32">
<title>fast-forward</title>
<path d="M14.857 12.225v-5.218c0-1.554 1.794-2.421 3.013-1.455l11.013 8.733c0.507 0.405 0.83 1.023 0.83 1.717s-0.322 1.312-0.825 1.713l-0.004 0.003-11.014 8.731c-1.217 0.966-3.010 0.098-3.010-1.455v-5.221l-8.418 6.674c-1.217 0.966-3.010 0.098-3.010-1.455v-17.987c0-1.554 1.794-2.421 3.010-1.455l8.418 6.674zM14.857 17.586v-3.173l-9.482-7.52c-0.020-0.017-0.045-0.029-0.073-0.032l-0.001-0c-0.003-0-0.007-0-0.012-0-0.024 0-0.047 0.006-0.067 0.016l0.001-0c-0.025 0.012-0.045 0.029-0.060 0.051l-0 0c-0.012 0.020-0.020 0.044-0.020 0.069 0 0.003 0 0.006 0 0.009l-0-0v17.987c0 0.039 0.009 0.062 0.019 0.078 0.013 0.018 0.033 0.037 0.061 0.050 0.020 0.010 0.043 0.016 0.068 0.016 0.003 0 0.007-0 0.010-0l-0 0c0.028-0.003 0.053-0.015 0.073-0.032l-0 0 9.483-7.519zM16.805 6.895c-0.020-0.018-0.046-0.029-0.074-0.032l-0.001-0c-0.003-0-0.007-0-0.012-0-0.024 0-0.047 0.006-0.067 0.016l0.001-0c-0.025 0.012-0.045 0.029-0.060 0.051l-0 0c-0.012 0.020-0.020 0.044-0.020 0.070 0 0.003 0 0.006 0 0.008l-0-0v17.987c0 0.039 0.010 0.062 0.021 0.077 0.011 0.019 0.032 0.038 0.059 0.051 0.020 0.010 0.043 0.016 0.068 0.016 0.003 0 0.006-0 0.010-0l-0 0c0.029-0.003 0.054-0.015 0.074-0.032l-0 0 11.013-8.731c0.11-0.088 0.18-0.222 0.18-0.373s-0.070-0.285-0.179-0.372l-0.001-0.001-11.013-8.734z"></path>
</svg>
