<!-- Generated by IcoMoon.io -->
<svg version="1.1" xmlns="http://www.w3.org/2000/svg" width="32" height="32" viewBox="0 0 32 32">
<title>filmstrip</title>
<path d="M26.333 5.333c1.657 0 3 1.343 3 3v0 15.333c0 1.657-1.343 3-3 3v0h-20.667c-1.657 0-3-1.343-3-3v0-15.333c0-1.657 1.343-3 3-3v0h20.667zM27.333 8.333c0-0.552-0.448-1-1-1v0h-2.333v2.667h3.333v-1.667zM27.333 12h-3.333v3.333h3.333v-3.333zM27.333 17.333h-3.333v2.667h3.333v-2.667zM27.333 22h-3.333v2.667h2.333c0.552 0 1-0.448 1-1v0-1.667zM22 24.667v-17.333h-12v17.333h12zM5.667 7.333c-0.552 0-1 0.448-1 1v0 1.667h3.333v-2.667h-2.333zM8 24.667v-2.667h-3.333v1.667c0 0.552 0.448 1 1 1h2.333zM8 17.333h-3.333v2.667h3.333v-2.667zM8 15.333v-3.333h-3.333v3.333h3.333z"></path>
</svg>
