<!-- Generated by IcoMoon.io -->
<svg version="1.1" xmlns="http://www.w3.org/2000/svg" width="32" height="32" viewBox="0 0 32 32">
<title>filter-dismiss-regular</title>
<path d="M30.667 10c0 4.050-3.283 7.333-7.333 7.333s-7.333-3.283-7.333-7.333v0c0-4.050 3.283-7.333 7.333-7.333s7.333 3.283 7.333 7.333v0zM21.139 6.861c-0.121-0.121-0.288-0.196-0.472-0.196-0.369 0-0.668 0.299-0.668 0.667 0 0.184 0.075 0.351 0.195 0.472v0l2.196 2.195-2.196 2.195c-0.121 0.121-0.195 0.288-0.195 0.472 0 0.369 0.299 0.668 0.668 0.668 0.184 0 0.351-0.075 0.472-0.196v0l2.195-2.196 2.195 2.196c0.121 0.121 0.288 0.195 0.472 0.195 0.369 0 0.668-0.299 0.668-0.668 0-0.184-0.075-0.351-0.195-0.472l-2.196-2.195 2.196-2.195c0.121-0.121 0.195-0.288 0.195-0.472 0-0.369-0.299-0.668-0.668-0.668-0.184 0-0.351 0.075-0.472 0.196l-2.195 2.196-2.195-2.196zM17.795 16.667c-0.684-0.571-1.268-1.231-1.745-1.966l-0.021-0.034h-6.029c-0.552 0-1 0.448-1 1s0.448 1 1 1v0h7.795zM14.667 10c0-0.688 0.080-1.357 0.232-2h-8.899c-0.552 0-1 0.448-1 1s0.448 1 1 1v0h8.667zM18 21.333c0.552 0 1 0.448 1 1s-0.448 1-1 1v0h-4c-0.552 0-1-0.448-1-1s0.448-1 1-1v0h4z"></path>
</svg>
