<!-- Generated by IcoMoon.io -->
<svg version="1.1" xmlns="http://www.w3.org/2000/svg" width="32" height="32" viewBox="0 0 32 32">
<title>filter-sync-regular</title>
<path d="M16 10c0 4.050 3.283 7.333 7.333 7.333s7.333-3.283 7.333-7.333v0c0-4.050-3.283-7.333-7.333-7.333s-7.333 3.283-7.333 7.333v0zM27.333 5.333c0.368 0 0.667 0.298 0.667 0.667v0 2.667c0 0.368-0.298 0.667-0.667 0.667v0h-2.667c-0.368 0-0.667-0.298-0.667-0.667s0.298-0.667 0.667-0.667v0h1.333c-0.614-0.813-1.578-1.333-2.664-1.333-0.001 0-0.002 0-0.003 0h0c-1.111 0-2.096 0.543-2.703 1.381-0.123 0.161-0.315 0.264-0.531 0.264-0.368 0-0.667-0.298-0.667-0.667 0-0.142 0.044-0.273 0.119-0.381l-0.001 0.002c0.857-1.177 2.23-1.933 3.78-1.933 0.001 0 0.002 0 0.003 0h-0c1.307 0 2.487 0.537 3.333 1.4v-0.733c0-0.368 0.298-0.667 0.667-0.667v0zM20 13.267v0.733c0 0.368-0.298 0.667-0.667 0.667s-0.667-0.298-0.667-0.667v0-2.667c0-0.368 0.298-0.667 0.667-0.667v0h2.667c0.368 0 0.667 0.298 0.667 0.667s-0.298 0.667-0.667 0.667v0h-1.333c0.608 0.811 1.577 1.333 2.667 1.333 1.021 0 1.936-0.459 2.548-1.184 0.123-0.15 0.309-0.245 0.517-0.245 0.368 0 0.667 0.298 0.667 0.667 0 0.168-0.062 0.322-0.165 0.439l0.001-0.001c-0.86 1.016-2.136 1.657-3.562 1.657-0.002 0-0.003 0-0.005 0h0c-0.002 0-0.004 0-0.006 0-1.303 0-2.482-0.536-3.326-1.399l-0.001-0.001zM10 16.667h7.795c-0.684-0.571-1.268-1.231-1.745-1.966l-0.021-0.034h-6.029c-0.552 0-1 0.448-1 1s0.448 1 1 1v0zM14.667 10c0-0.688 0.080-1.357 0.232-2h-8.899c-0.552 0-1 0.448-1 1s0.448 1 1 1v0h8.667zM18 21.333c0.552 0 1 0.448 1 1s-0.448 1-1 1v0h-4c-0.552 0-1-0.448-1-1s0.448-1 1-1v0h4z"></path>
</svg>
