<!-- Generated by IcoMoon.io -->
<svg version="1.1" xmlns="http://www.w3.org/2000/svg" width="32" height="32" viewBox="0 0 32 32">
<title>filter-add</title>
<path d="M27.2 14.787c-1.124 0.76-2.509 1.213-4 1.213-3.977 0-7.2-3.224-7.2-7.2 0-2.486 1.259-4.677 3.175-5.971l0.026-0.016c1.124-0.76 2.509-1.213 4-1.213 3.977 0 7.2 3.224 7.2 7.2 0 2.486-1.259 4.677-3.175 5.971l-0.026 0.016zM23.766 5.034c-0.145-0.145-0.345-0.235-0.566-0.235-0.442 0-0.8 0.358-0.8 0.8 0 0 0 0.001 0 0.002v-0 2.4h-2.4c-0.442 0-0.8 0.358-0.8 0.8s0.358 0.8 0.8 0.8v0h2.4v2.4c0 0.442 0.358 0.8 0.8 0.8s0.8-0.358 0.8-0.8v0-2.4h2.4c0.442 0 0.8-0.358 0.8-0.8s-0.358-0.8-0.8-0.8v0h-2.4v-2.4c0-0 0-0.001 0-0.001 0-0.221-0.089-0.42-0.234-0.565l0 0zM14.435 8h-8.835l-0.144 0.013c-0.376 0.070-0.657 0.396-0.657 0.787 0 0.442 0.358 0.8 0.8 0.8 0.001 0 0.001 0 0.002 0h8.835c-0.023-0.24-0.036-0.518-0.036-0.8s0.013-0.56 0.039-0.835l-0.003 0.035zM16.411 14.4h-7.611l-0.144 0.013c-0.376 0.070-0.657 0.396-0.657 0.787 0 0.442 0.358 0.8 0.8 0.8 0.001 0 0.001 0 0.002 0h9.339c-0.656-0.466-1.224-0.993-1.716-1.585l-0.012-0.015zM11.856 20.813l0.144-0.013h8c0 0 0.001 0 0.001 0 0.442 0 0.8 0.358 0.8 0.8 0 0.391-0.281 0.717-0.653 0.786l-0.005 0.001-0.144 0.013h-8c-0 0-0.001 0-0.001 0-0.442 0-0.8-0.358-0.8-0.8 0-0.391 0.281-0.717 0.653-0.786l0.005-0.001z"></path>
</svg>
