<!-- Generated by IcoMoon.io -->
<svg version="1.1" xmlns="http://www.w3.org/2000/svg" width="32" height="32" viewBox="0 0 32 32">
<title>filter-regular</title>
<path d="M19.714 21.714c0.473 0 0.857 0.384 0.857 0.857s-0.384 0.857-0.857 0.857v0h-7.429c-0.473 0-0.857-0.384-0.857-0.857s0.384-0.857 0.857-0.857v0h7.429zM24.286 14.857c0.473 0 0.857 0.384 0.857 0.857s-0.384 0.857-0.857 0.857v0h-16.571c-0.473 0-0.857-0.384-0.857-0.857s0.384-0.857 0.857-0.857v0h16.571zM27.714 8c0.473 0 0.857 0.384 0.857 0.857s-0.384 0.857-0.857 0.857v0h-23.429c-0.473 0-0.857-0.384-0.857-0.857s0.384-0.857 0.857-0.857v0h23.429z"></path>
</svg>
