<!-- Generated by IcoMoon.io -->
<svg version="1.1" xmlns="http://www.w3.org/2000/svg" width="32" height="32" viewBox="0 0 32 32">
<title>fingerprint</title>
<path d="M19.811 16.21c0.746 0.765 1.169 1.691 1.475 2.971l0.133 0.608 0.239 1.262c0.119 0.593 0.211 0.922 0.339 1.21 0.401 0.898 1.107 1.819 2.127 2.755 0.407 0.373 0.435 1.006 0.061 1.413s-1.006 0.435-1.413 0.061c-1.21-1.109-2.080-2.245-2.602-3.414-0.199-0.445-0.319-0.867-0.462-1.573l-0.281-1.467-0.017-0.080c-0.241-1.132-0.539-1.845-1.030-2.349-0.95-0.973-3.142-0.716-3.729 0.212-0.749 1.184-0.94 3.195-0.345 5.221 0.459 1.565 1.069 3.106 1.83 4.622 0.248 0.494 0.048 1.095-0.445 1.342s-1.095 0.048-1.342-0.445c-0.814-1.622-1.468-3.274-1.961-4.956-0.749-2.55-0.501-5.153 0.574-6.853 1.271-2.009 4.989-2.446 6.85-0.54zM16.656 19.297c0.552-0.018 1.014 0.414 1.033 0.966 0.069 2.063 0.74 4.057 1.925 5.739l0.262 0.355 0.4 0.52c0.337 0.438 0.255 1.066-0.183 1.402-0.398 0.306-0.953 0.267-1.304-0.072l-0.099-0.111-0.4-0.52c-1.604-2.084-2.514-4.619-2.601-7.248-0.018-0.552 0.414-1.014 0.966-1.033zM11.711 12.521c2.816-2.085 6.499-1.972 8.977-0.379 1.24 0.797 2.179 1.726 2.803 2.791 0.279 0.477 0.119 1.089-0.357 1.369s-1.089 0.119-1.368-0.357c-0.456-0.777-1.171-1.485-2.159-2.12-1.817-1.168-4.602-1.253-6.705 0.304-2.185 1.618-3.105 4.388-2.831 7.309 0.153 1.636 0.646 3.29 1.484 4.965 0.247 0.494 0.047 1.095-0.447 1.342s-1.095 0.047-1.342-0.447c-0.945-1.891-1.509-3.783-1.687-5.673-0.334-3.559 0.814-7.017 3.632-9.103zM23.95 18.255c0.551-0.028 1.022 0.396 1.050 0.947 0.041 0.804 0.24 1.462 0.589 1.991 0.293 0.444 0.553 0.701 0.751 0.8l0.081 0.033c0.529 0.16 0.828 0.718 0.668 1.247s-0.718 0.828-1.247 0.668c-0.729-0.22-1.355-0.784-1.924-1.646-0.554-0.841-0.857-1.843-0.916-2.988-0.028-0.552 0.396-1.022 0.947-1.050zM14.014 8.136c0.227 0.504 0.002 1.096-0.501 1.322-2.454 1.104-4.259 2.678-5.445 4.732-1.484 2.57-1.885 5.575-1.552 8.107 0.072 0.548-0.314 1.050-0.861 1.122s-1.050-0.314-1.122-0.861c-0.385-2.934 0.073-6.371 1.803-9.367 1.402-2.428 3.531-4.283 6.356-5.555 0.504-0.227 1.096-0.002 1.322 0.501zM17.139 7.087c2.44 0.050 4.869 1.171 7.278 3.315 2.431 2.163 3.895 5.102 4.392 8.774 0.074 0.547-0.309 1.051-0.857 1.125s-1.051-0.309-1.125-0.857c-0.435-3.215-1.682-5.716-3.74-7.548-2.079-1.85-4.073-2.77-5.99-2.81-0.552-0.011-0.991-0.468-0.979-1.020s0.468-0.991 1.020-0.979zM7.977 7.106c0.367 0.412 0.331 1.045-0.082 1.412-0.357 0.318-0.733 0.698-1.124 1.14-0.368 0.415-0.746 0.954-1.128 1.617-0.276 0.478-0.888 0.642-1.366 0.366s-0.642-0.888-0.366-1.366c0.446-0.772 0.899-1.42 1.364-1.944 0.442-0.498 0.871-0.933 1.29-1.306 0.412-0.367 1.045-0.331 1.412 0.082zM16.758 3.151c2.923 0.137 5.372 0.936 7.373 2.481 0.437 0.338 0.518 0.966 0.18 1.403s-0.965 0.518-1.403 0.18c-1.66-1.282-3.714-1.948-6.244-2.066-2.538-0.119-4.616 0.379-6.286 1.305-0.512 0.284-1.086 0.142-1.375-0.329s-0.159-1.088 0.329-1.375c2.048-1.204 4.51-1.736 7.427-1.599z"></path>
</svg>
