<!-- Generated by IcoMoon.io -->
<svg version="1.1" xmlns="http://www.w3.org/2000/svg" width="32" height="32" viewBox="0 0 32 32">
<title>fire</title>
<path d="M16.717 5.725c0.431-0.324 0.859-0.573 1.24-0.749 0.117 2.836 1.503 4.968 2.839 6.853l0.363 0.509c1.444 2.024 2.681 3.759 2.816 6.053 0.156 2.643-0.503 4.876-1.781 6.432-1.26 1.536-3.207 2.509-5.86 2.509-2.748 0-4.813-0.705-6.256-1.888-1.435-1.177-2.351-2.908-2.657-5.163-0.301-2.217 0.235-3.793 0.815-4.804 0.115-0.199 0.231-0.376 0.344-0.533l0.42 0.797c0.503 0.941 1.479 1.571 2.603 1.571 0.458 0 0.892-0.105 1.279-0.292l-0.018 0.008c1.741-0.827 2.112-2.951 1.56-4.44-0.387-1.043-0.593-2.316-0.147-3.592 0.503-1.429 1.455-2.527 2.441-3.272zM8.208 12.432h-0.003l-0.005 0.005-0.013 0.011c-0.063 0.048-0.118 0.093-0.17 0.141l0.002-0.002c-0.143 0.126-0.275 0.253-0.4 0.385l-0.003 0.003c-0.32 0.337-0.731 0.839-1.116 1.509-0.776 1.353-1.428 3.371-1.061 6.068 0.361 2.663 1.48 4.888 3.371 6.44 1.885 1.547 4.437 2.341 7.524 2.341 3.183 0 5.724-1.193 7.405-3.24 1.667-2.028 2.411-4.795 2.233-7.819-0.171-2.901-1.751-5.103-3.147-7.047l-0.399-0.556c-1.523-2.149-2.724-4.129-2.432-6.9 0.004-0.032 0.006-0.068 0.006-0.105 0-0.552-0.448-1-1-1-0 0-0 0-0 0v0c-0.509 0-1.093 0.157-1.656 0.395-0.699 0.303-1.301 0.66-1.851 1.082l0.021-0.015c-1.233 0.931-2.467 2.333-3.124 4.208-0.656 1.869-0.323 3.651 0.157 4.948 0.316 0.852-0.027 1.693-0.543 1.939-0.118 0.057-0.256 0.090-0.403 0.090-0.36 0-0.673-0.202-0.831-0.499l-0.002-0.005-1.075-2.041c-0.171-0.321-0.503-0.535-0.885-0.535-0.226 0-0.434 0.075-0.601 0.201l0.003-0.002z"></path>
</svg>
