<!-- Generated by IcoMoon.io -->
<svg version="1.1" xmlns="http://www.w3.org/2000/svg" width="32" height="32" viewBox="0 0 32 32">
<title>fixed-width</title>
<path d="M6 6.25c0-0.506-0.448-0.917-1-0.917s-1 0.41-1 0.917v5.5c0 0.506 0.448 0.917 1 0.917s1-0.41 1-0.917v-1.75h9v1.75c0 0.506 0.448 0.917 1 0.917s1-0.41 1-0.917v-1.75h9v1.75c0 0.506 0.448 0.917 1 0.917s1-0.41 1-0.917v-5.5c0-0.506-0.448-0.917-1-0.917s-1 0.41-1 0.917v1.75h-9v-1.75c0-0.506-0.448-0.917-1-0.917s-1 0.41-1 0.917v1.75h-9v-1.75z"></path>
<path d="M7.667 14.667c-2.025 0-3.667 1.642-3.667 3.667v5.333c0 2.025 1.642 3.667 3.667 3.667h16.667c2.025 0 3.667-1.642 3.667-3.667v-5.333c0-2.025-1.642-3.667-3.667-3.667h-16.667zM15 16.667v8.667h-7.333c-0.92 0-1.667-0.746-1.667-1.667v-5.333c0-0.921 0.746-1.667 1.667-1.667h7.333zM17 25.333v-8.667h7.333c0.921 0 1.667 0.746 1.667 1.667v5.333c0 0.921-0.746 1.667-1.667 1.667h-7.333z"></path>
</svg>
