<!-- Generated by IcoMoon.io -->
<svg version="1.1" xmlns="http://www.w3.org/2000/svg" width="32" height="32" viewBox="0 0 32 32">
<title>fixed-width-regular</title>
<path d="M6 6.251c0-0.507-0.448-0.917-1-0.917s-1 0.411-1 0.917v5.5c0 0.507 0.448 0.916 1 0.916s1-0.411 1-0.917v-1.749h9v1.751c0 0.507 0.448 0.916 1 0.916s1-0.411 1-0.917v-1.749h9v1.751c0 0.507 0.448 0.916 1 0.916s1-0.411 1-0.917v-5.497c0-0.507-0.448-0.917-1-0.917s-1 0.411-1 0.917v1.748h-9v-1.751c0-0.507-0.448-0.916-1-0.916s-1 0.411-1 0.917v1.749h-9v-1.751zM7.667 14.667c-2.025 0-3.667 1.642-3.667 3.667v0 5.333c0 2.025 1.642 3.667 3.667 3.667v0h16.667c2.025 0 3.667-1.642 3.667-3.667v0-5.333c0-2.025-1.642-3.667-3.667-3.667v0h-16.667zM15 16.667v8.667h-7.333c-0.92 0-1.667-0.747-1.667-1.667v-5.333c0-0.92 0.747-1.667 1.667-1.667h7.333zM17 25.333v-8.667h7.333c0.92 0 1.667 0.747 1.667 1.667v5.333c0 0.92-0.747 1.667-1.667 1.667h-7.333z"></path>
</svg>
