<!-- Generated by IcoMoon.io -->
<svg version="1.1" xmlns="http://www.w3.org/2000/svg" width="32" height="32" viewBox="0 0 32 32">
<title>flag</title>
<path d="M8.333 7h14.735l-2.793 4.922c-0.068 0.118-0.109 0.26-0.109 0.411s0.040 0.293 0.111 0.415l-0.002-0.004 2.793 4.922h-14.735v-10.667zM8.333 19.333h16.167c0.46-0 0.833-0.373 0.833-0.833 0-0.151-0.040-0.293-0.111-0.415l0.002 0.004-3.267-5.755 3.267-5.755c0.068-0.118 0.109-0.26 0.109-0.411 0-0.46-0.373-0.833-0.833-0.833h-17c-0.46 0-0.833 0.373-0.833 0.833v19.667c0 0.46 0.373 0.833 0.833 0.833s0.833-0.373 0.833-0.833v0-6.5z"></path>
</svg>
