<!-- Generated by IcoMoon.io -->
<svg version="1.1" xmlns="http://www.w3.org/2000/svg" width="32" height="32" viewBox="0 0 32 32">
<title>flash</title>
<path d="M9.607 3.259c0.227-0.575 0.777-0.974 1.421-0.974h9.733c1.058 0 1.794 1.054 1.43 2.048l-2.392 6.523h5.529c1.346 0 2.031 1.618 1.094 2.585l-15.239 15.704c-1.303 1.343-3.55 0.134-3.146-1.694l1.896-8.595h-3.169c-0 0-0 0-0.001 0-1.21 0-2.191-0.981-2.191-2.191 0-0.285 0.054-0.557 0.153-0.807l-0.005 0.015 4.888-12.614zM11.158 4l-4.84 12.495c-0.020 0.051-0.032 0.11-0.032 0.171 0 0.263 0.213 0.477 0.476 0.477h4.238c0.473 0 0.857 0.384 0.857 0.857 0 0.066-0.007 0.13-0.021 0.191l0.001-0.006-2.127 9.638c-0.011 0.054-0.002 0.079 0.005 0.091 0.015 0.028 0.038 0.050 0.065 0.065l0.001 0c0.023 0.013 0.050 0.021 0.079 0.021 0.004 0 0.008-0 0.013-0l-0.001 0c0.015-0.002 0.041-0.008 0.080-0.047l14.923-15.382h-6.304c-0.473-0-0.857-0.384-0.857-0.857 0-0.106 0.019-0.207 0.054-0.301l-0.002 0.006 2.72-7.419h-9.329z"></path>
</svg>
