<!-- Generated by IcoMoon.io -->
<svg version="1.1" xmlns="http://www.w3.org/2000/svg" width="32" height="32" viewBox="0 0 32 32">
<title>flash-off</title>
<path d="M7.919 9.333l-4.96-4.96c-0.188-0.182-0.305-0.437-0.305-0.719 0-0.552 0.448-1 1-1 0.282 0 0.538 0.117 0.719 0.305l24.667 24.667c0.166 0.178 0.268 0.418 0.268 0.682 0 0.552-0.448 1-1 1-0.264 0-0.504-0.102-0.682-0.269l0.001 0.001-8.379-8.377-7.801 8.052c-1.405 1.451-3.829 0.141-3.388-1.829l1.693-7.557-2.093-0.008c-1.284-0.006-2.323-1.048-2.323-2.333 0-0.281 0.050-0.55 0.14-0.799l-0.005 0.016 2.448-6.871zM17.833 19.248l-8.349-8.349-2.129 5.976c-0.012 0.033-0.019 0.072-0.019 0.112 0 0.183 0.148 0.332 0.331 0.333l3.336 0.013c0.551 0.002 0.996 0.449 0.996 1 0 0.078-0.009 0.153-0.025 0.225l0.001-0.007-1.964 8.771 7.823-8.075zM24.211 12.667l-3.593 3.708 1.413 1.415 4.164-4.296c1.024-1.057 0.275-2.827-1.197-2.827h-5.277l1.936-5.807c0.054-0.157 0.085-0.338 0.085-0.527 0-0.92-0.746-1.667-1.667-1.667-0 0-0.001 0-0.001 0h-8.604c-0.705 0-1.333 0.444-1.571 1.107l-0.493 1.389 1.564 1.565 0.733-2.061h7.908l-2.227 6.684c-0.032 0.094-0.051 0.203-0.051 0.316 0 0.552 0.447 0.999 0.998 1h5.88z"></path>
</svg>
