<!-- Generated by IcoMoon.io -->
<svg version="1.1" xmlns="http://www.w3.org/2000/svg" width="32" height="32" viewBox="0 0 32 32">
<title>flash-play</title>
<path d="M9.907 4.432c0.208-0.73 0.875-1.232 1.634-1.232h8.4c1.158 0 1.978 1.136 1.611 2.237l-0.005 0.013-2.016 5.75h4.101c1.514 0 2.251 1.83 1.226 2.898l-0.005 0.006-0.379 0.387c-0.382-0.058-0.823-0.092-1.272-0.092-0.326 0-0.648 0.018-0.966 0.052l0.039-0.003 1.43-1.459c0.014-0.013 0.024-0.031 0.027-0.051l0-0.001c0-0.004 0.001-0.009 0.001-0.014 0-0.020-0.004-0.040-0.012-0.057l0 0.001c-0.009-0.022-0.022-0.040-0.040-0.054l-0-0c-0.008-0.006-0.021-0.013-0.050-0.013h-5.232c-0.441-0.001-0.799-0.359-0.799-0.8 0-0.095 0.017-0.187 0.047-0.271l-0.002 0.006 2.389-6.806c0.003-0.009 0.004-0.019 0.004-0.029 0-0.055-0.044-0.099-0.099-0.099-0 0-0.001 0-0.001 0h-8.398c-0 0-0 0-0.001 0-0.045 0-0.083 0.030-0.095 0.071l-0 0.001-3.6 12.598c-0.016 0.064 0.030 0.128 0.096 0.128h3.053c0.442 0 0.799 0.358 0.799 0.8 0 0.068-0.009 0.134-0.025 0.198l0.001-0.006-2.12 8.48c-0.003 0.011-0.005 0.024-0.005 0.037 0 0.004 0 0.007 0 0.011l-0-0c0 0.006 0.002 0.013 0.005 0.018 0.006 0.013 0.021 0.032 0.048 0.048 0.029 0.016 0.053 0.016 0.067 0.016 0.006-0.001 0.011-0.003 0.016-0.007l-0 0c0.015-0.008 0.028-0.017 0.038-0.029l0-0 0.005-0.006 4.608-4.702c-0.020 0.223-0.031 0.482-0.031 0.744 0 0.513 0.043 1.016 0.126 1.505l-0.007-0.053-3.55 3.624c-1.206 1.251-3.294 0.096-2.872-1.594l1.872-7.486h-2.029c-0.938-0-1.699-0.761-1.699-1.699 0-0.166 0.024-0.327 0.069-0.479l-0.003 0.012 3.6-12.597zM30.4 23.2c0 3.976-3.224 7.2-7.2 7.2s-7.2-3.224-7.2-7.2v0c0-3.976 3.224-7.2 7.2-7.2s7.2 3.224 7.2 7.2v0zM26.741 22.501l-4.752-2.64c-0.112-0.063-0.246-0.101-0.389-0.101-0.442 0-0.8 0.358-0.8 0.8 0 0 0 0 0 0v0 5.28c0 0 0 0 0 0 0 0.442 0.358 0.8 0.8 0.8 0.143 0 0.277-0.037 0.393-0.103l-0.004 0.002 4.752-2.64c0.247-0.139 0.411-0.4 0.411-0.699s-0.164-0.56-0.407-0.697l-0.004-0.002z"></path>
</svg>
