<!-- Generated by IcoMoon.io -->
<svg version="1.1" xmlns="http://www.w3.org/2000/svg" width="32" height="32" viewBox="0 0 32 32">
<title>flash-checkmark</title>
<path d="M9.608 3.259c0.227-0.575 0.777-0.974 1.421-0.974h9.733c1.058 0 1.794 1.054 1.43 2.048l-2.392 6.523h5.529c1.346 0 2.031 1.618 1.094 2.585l-1.499 1.545c-0.449-0.083-0.966-0.13-1.493-0.13-0.284 0-0.564 0.014-0.84 0.040l0.035-0.003 2.254-2.323h-6.306c-0 0-0.001 0-0.001 0-0.473 0-0.857-0.384-0.857-0.857 0-0.106 0.019-0.207 0.054-0.301l-0.002 0.006 2.72-7.419h-9.326l-4.84 12.495c-0.020 0.051-0.032 0.11-0.032 0.171 0 0.263 0.213 0.477 0.476 0.477h4.238c0.473 0 0.857 0.384 0.857 0.857 0 0.066-0.007 0.13-0.021 0.191l0.001-0.006-2.127 9.638c-0.011 0.054-0.002 0.079 0.005 0.091 0.015 0.028 0.038 0.050 0.065 0.065l0.001 0c0.037 0.019 0.070 0.023 0.091 0.021 0.015-0.002 0.041-0.008 0.080-0.047l4.92-5.072c-0.011 0.163-0.017 0.354-0.017 0.546 0 0.62 0.065 1.224 0.188 1.807l-0.010-0.057-3.851 3.969c-1.303 1.343-3.55 0.134-3.146-1.694l1.897-8.595h-3.171c-0 0-0 0-0.001 0-1.21 0-2.191-0.981-2.191-2.191 0-0.285 0.054-0.557 0.153-0.807l-0.005 0.015 4.888-12.614zM30.857 23.429c0 4.103-3.326 7.429-7.429 7.429s-7.429-3.326-7.429-7.429v0c0-4.103 3.326-7.429 7.429-7.429s7.429 3.326 7.429 7.429v0zM27.833 20.167c-0.103-0.104-0.247-0.168-0.405-0.168s-0.301 0.064-0.405 0.168v0l-5.31 5.311-1.881-1.882c-0.104-0.104-0.247-0.168-0.405-0.168-0.316 0-0.572 0.256-0.572 0.572 0 0.158 0.064 0.301 0.168 0.405l2.286 2.286c0.103 0.104 0.247 0.168 0.405 0.168s0.301-0.064 0.405-0.168v0l5.714-5.714c0.104-0.103 0.168-0.247 0.168-0.405s-0.064-0.301-0.168-0.405v0z"></path>
</svg>
