<!-- Generated by IcoMoon.io -->
<svg version="1.1" xmlns="http://www.w3.org/2000/svg" width="32" height="32" viewBox="0 0 32 32">
<title>flashlight</title>
<path d="M23.333 2.667c0-0.552-0.448-1-1-1s-1 0.448-1 1v1.333c0 0.552 0.448 1 1 1s1-0.448 1-1v-1.333zM28.707 3.293c-0.39-0.391-1.024-0.391-1.414 0l-2.667 2.667c-0.391 0.391-0.391 1.024 0 1.414s1.024 0.391 1.414 0l2.667-2.667c0.391-0.391 0.391-1.024 0-1.414zM10.707 22.707l2-2c0.391-0.391 0.391-1.024 0-1.414s-1.024-0.391-1.414 0l-2 2c-0.391 0.391-0.391 1.024 0 1.414s1.024 0.391 1.414 0zM11 8v6.252l-6.96 6.96c-1.172 1.172-1.172 3.071 0 4.243l2.505 2.505c1.172 1.172 3.071 1.171 4.243 0l6.96-6.96h6.252c0.265 0 0.52-0.105 0.707-0.293l2.586-2.586c1.172-1.172 1.172-3.071 0-4.243l-9.172-9.172c-1.172-1.172-3.071-1.172-4.243 0l-2.586 2.586c-0.188 0.188-0.293 0.442-0.293 0.707zM15.293 6.121c0.391-0.391 1.024-0.391 1.414 0l9.172 9.172c0.391 0.391 0.391 1.024 0 1.414l-1.879 1.879-10.586-10.586 1.879-1.879zM13 10.414l8.586 8.586h-3.838l-4.748-4.748v-3.838zM12 16.081l3.919 3.919-6.545 6.545c-0.391 0.391-1.024 0.391-1.414 0l-2.505-2.505c-0.391-0.391-0.391-1.024 0-1.414l6.545-6.545zM28 10.667h1.333c0.552 0 1-0.448 1-1s-0.448-1-1-1h-1.333c-0.552 0-1 0.448-1 1s0.448 1 1 1z"></path>
</svg>
