<!-- Generated by IcoMoon.io -->
<svg version="1.1" xmlns="http://www.w3.org/2000/svg" width="32" height="32" viewBox="0 0 32 32">
<title>flash-flow-regular</title>
<path d="M9.901 3.773c0.237-0.651 0.85-1.107 1.57-1.107 0 0 0.001 0 0.001 0h8.604c0 0 0 0 0 0 0.92 0 1.667 0.746 1.667 1.667 0 0.188-0.031 0.37-0.089 0.538l0.003-0.012-1.936 5.807h5.28c1.471 0 2.22 1.769 1.196 2.827l-4.244 4.38c-0.154-0.567-0.3-1.014-0.466-1.452l0.036 0.109c-0.101-0.292-0.213-0.539-0.342-0.775l0.013 0.026 3.019-3.115h-5.88c-0.551-0.001-0.998-0.448-0.998-1 0-0.113 0.019-0.222 0.053-0.323l-0.002 0.007 2.227-6.684h-7.907l-4.349 12.208c-0.012 0.033-0.019 0.072-0.019 0.112 0 0.183 0.148 0.332 0.331 0.333l1.28 0.005c0.467 1.297 1.414 2.324 2.622 2.884l0.031 0.013-1.589 7.1 7.555-7.797c0.095 0.269 0.294 1.033 0.48 1.802l0.097 0.476-6.696 6.911c-1.405 1.451-3.829 0.141-3.388-1.829l1.693-7.557-2.093-0.008c-1.284-0.006-2.323-1.048-2.323-2.333 0-0.281 0.050-0.55 0.14-0.799l-0.005 0.016 4.428-12.429zM17.083 17c-0.549 1.377-1.871 2.333-3.416 2.333-2.026 0-3.668-1.642-3.668-3.668s1.642-3.668 3.668-3.668c1.791 0 3.282 1.283 3.604 2.98l0.004 0.023h0.393c0.501 0 1.048 0.127 1.54 0.477 0.487 0.348 0.844 0.863 1.067 1.512 0.251 0.643 0.595 1.945 0.864 3.019-0.014-0.181 0.146 0.467 0.301 1.117l0.163 0.812 0.028 0.12c0.109 0.309 0.24 0.443 0.327 0.504 0.093 0.067 0.213 0.105 0.377 0.105h1.015c0.177-1.876 1.744-3.333 3.651-3.333 2.025 0 3.667 1.642 3.667 3.667s-1.642 3.667-3.667 3.667c-1.417 0-2.646-0.804-3.256-1.98l-0.010-0.020h-1.4c-0.501 0-1.048-0.127-1.54-0.477-0.493-0.353-0.853-0.877-1.075-1.54-0.009-0.024-0.018-0.055-0.025-0.087l-0.001-0.007-0.011-0.043-0.027-0.124c-0.316-1.443-0.474-2.081-0.637-2.716l0.179 0.819c-0.283-1.133-0.6-2.308-0.791-2.787-0.005-0.012-0.012-0.030-0.018-0.049l-0.002-0.007c-0.113-0.337-0.252-0.48-0.341-0.544-0.098-0.066-0.218-0.106-0.348-0.106-0.010 0-0.020 0-0.030 0.001l0.001-0h-0.584zM15.333 15.667c0-0.92-0.746-1.667-1.667-1.667s-1.667 0.746-1.667 1.667v0c0 0.92 0.746 1.667 1.667 1.667s1.667-0.746 1.667-1.667v0zM27 24.667c0.92 0 1.667-0.746 1.667-1.667s-0.746-1.667-1.667-1.667v0c-0.92 0-1.667 0.746-1.667 1.667s0.746 1.667 1.667 1.667v0z"></path>
</svg>
