<!-- Generated by IcoMoon.io -->
<svg version="1.1" xmlns="http://www.w3.org/2000/svg" width="32" height="32" viewBox="0 0 32 32">
<title>flash-auto</title>
<path d="M17.001 2.667c0.637 0 1.099 0.583 0.983 1.187l-0.034 0.13-2.228 6.684h5.946c0.832 0 1.28 0.943 0.813 1.583l-0.092 0.11-15.994 16.667c-0.679 0.707-1.834 0.116-1.716-0.807l0.024-0.128 2.356-9.424h-3.392c-0.62 0-1.079-0.554-0.989-1.147l0.028-0.127 4-14c0.109-0.382 0.431-0.658 0.815-0.715l0.147-0.011h9.333zM24.192 15.159l0.067 0.14 4.999 12.661c0.203 0.514-0.049 1.095-0.563 1.297-0.471 0.186-0.998-0.010-1.239-0.44l-0.058-0.123-1.331-3.367h-5.48l-1.328 3.367c-0.186 0.471-0.689 0.722-1.168 0.604l-0.13-0.041c-0.471-0.186-0.722-0.689-0.604-1.168l0.041-0.13 4.999-12.661c0.313-0.794 1.39-0.841 1.793-0.14zM15.613 4.667h-7.192l-3.429 12h3.347c0.607 0 1.063 0.533 0.993 1.117l-0.023 0.126-1.755 7.019 11.766-12.261h-4.988c-0.637 0-1.099-0.582-0.983-1.187l0.034-0.13 2.228-6.684zM23.328 18.388l-1.951 4.94h3.901l-1.951-4.94z"></path>
</svg>
