<!-- Generated by IcoMoon.io -->
<svg version="1.1" xmlns="http://www.w3.org/2000/svg" width="32" height="32" viewBox="0 0 32 32">
<title>flash-settings</title>
<path d="M9.899 3.773c0.237-0.651 0.85-1.107 1.57-1.107 0 0 0.001 0 0.001 0h8.604c0 0 0 0 0 0 0.92 0 1.667 0.746 1.667 1.667 0 0.188-0.031 0.37-0.089 0.538l0.003-0.012-1.935 5.807h5.277c1.472 0 2.221 1.769 1.197 2.827l-1.277 1.317c-0.476-0.092-1.023-0.145-1.582-0.145-0.4 0-0.794 0.027-1.179 0.079l0.045-0.005 2.009-2.073h-5.88c-0.551-0.001-0.998-0.448-0.998-1 0-0.113 0.019-0.222 0.053-0.323l-0.002 0.007 2.227-6.684h-7.907l-4.349 12.208c-0.012 0.033-0.019 0.072-0.019 0.112 0 0.183 0.148 0.332 0.331 0.333l3.336 0.013c0.551 0.002 0.996 0.449 0.996 1 0 0.078-0.009 0.153-0.025 0.225l0.001-0.007-1.964 8.771 4.699-4.849c-0.027 0.258-0.042 0.557-0.042 0.86 0 0.657 0.072 1.297 0.209 1.912l-0.011-0.058-3.419 3.528c-1.405 1.451-3.829 0.141-3.388-1.829l1.693-7.557-2.093-0.008c-1.284-0.006-2.323-1.048-2.323-2.333 0-0.281 0.050-0.55 0.14-0.799l-0.005 0.016 4.428-12.429zM19.036 18.635c0.066 0.221 0.105 0.476 0.105 0.739 0 1.245-0.854 2.291-2.007 2.585l-0.018 0.004-0.779 0.193c-0.058 0.355-0.092 0.763-0.092 1.18 0 0.434 0.036 0.86 0.106 1.274l-0.006-0.045 0.72 0.173c1.181 0.291 2.042 1.341 2.042 2.593 0 0.269-0.040 0.528-0.114 0.773l0.005-0.019-0.249 0.841c0.587 0.515 1.253 0.933 1.98 1.229l0.657-0.692c0.487-0.511 1.173-0.829 1.933-0.829s1.446 0.318 1.932 0.828l0.001 0.001 0.665 0.701c0.759-0.313 1.412-0.723 1.984-1.224l-0.008 0.007-0.264-0.915c-0.066-0.221-0.105-0.476-0.105-0.739 0-1.246 0.854-2.292 2.009-2.585l0.018-0.004 0.777-0.193c0.058-0.355 0.092-0.763 0.092-1.18 0-0.434-0.036-0.86-0.106-1.274l0.006 0.045-0.72-0.173c-1.18-0.292-2.041-1.342-2.041-2.592 0-0.269 0.040-0.529 0.114-0.773l-0.005 0.019 0.248-0.841c-0.564-0.499-1.218-0.913-1.932-1.212l-0.046-0.017-0.657 0.691c-0.487 0.512-1.173 0.83-1.933 0.83s-1.447-0.318-1.932-0.829l-0.001-0.001-0.664-0.7c-0.725 0.293-1.392 0.707-1.977 1.217l0.264 0.915zM23.333 25.333c-1.067 0-1.933-0.895-1.933-2 0-1.104 0.867-2 1.933-2s1.933 0.896 1.933 2c0 1.105-0.867 2-1.933 2z"></path>
</svg>
