<!-- Generated by IcoMoon.io -->
<svg version="1.1" xmlns="http://www.w3.org/2000/svg" width="32" height="32" viewBox="0 0 32 32">
<title>flashlight-off-regular</title>
<path d="M12.707 19.293c0.181 0.181 0.292 0.431 0.292 0.707s-0.112 0.526-0.292 0.707v0l-2 2c-0.178 0.166-0.418 0.268-0.682 0.268-0.552 0-1-0.448-1-1 0-0.264 0.102-0.504 0.269-0.682l-0.001 0.001 2-2c0.181-0.181 0.431-0.292 0.707-0.292s0.526 0.112 0.707 0.292v0zM4.373 2.96c-0.183-0.196-0.443-0.318-0.732-0.318-0.552 0-1 0.448-1 1 0 0.289 0.122 0.549 0.318 0.731l0.001 0.001 8.040 8.040v1.84l-6.96 6.959c-0.543 0.543-0.879 1.293-0.879 2.121s0.336 1.578 0.879 2.121l2.507 2.505c0.543 0.543 1.293 0.879 2.121 0.879s1.578-0.336 2.121-0.879l6.96-6.96h1.837l8.040 8.040c0.18 0.174 0.425 0.281 0.695 0.281 0.552 0 1-0.448 1-1 0-0.27-0.107-0.515-0.281-0.695l-24.668-24.666zM12 16.080l3.92 3.92-6.547 6.545c-0.181 0.181-0.431 0.292-0.707 0.292s-0.526-0.112-0.707-0.292l-2.507-2.505c-0.181-0.181-0.292-0.431-0.292-0.707s0.112-0.526 0.292-0.707v0l6.547-6.547zM23.792 18.793l2.087-2.087c0.181-0.181 0.292-0.431 0.292-0.707s-0.112-0.526-0.292-0.707v0l-9.172-9.173c-0.181-0.181-0.431-0.292-0.707-0.292s-0.526 0.112-0.707 0.292l-2.088 2.087-1.413-1.413 2.085-2.087c0.543-0.543 1.293-0.879 2.121-0.879s1.578 0.336 2.121 0.879l9.171 9.172c0.543 0.543 0.879 1.293 0.879 2.121s-0.336 1.578-0.879 2.121l-2.085 2.087-1.413-1.415z"></path>
</svg>
