<!-- Generated by IcoMoon.io -->
<svg version="1.1" xmlns="http://www.w3.org/2000/svg" width="32" height="32" viewBox="0 0 32 32">
<title>flashlight-off</title>
<path d="M12.707 19.293c0.391 0.391 0.391 1.024 0 1.414l-2 2c-0.391 0.391-1.024 0.391-1.414 0s-0.391-1.024 0-1.414l2-2c0.391-0.391 1.024-0.391 1.414 0zM4.374 2.96c-0.391-0.391-1.024-0.391-1.414-0s-0.391 1.024-0 1.414l8.040 8.040v1.838l-6.96 6.96c-1.172 1.172-1.172 3.071 0 4.243l2.505 2.505c1.172 1.171 3.071 1.171 4.243 0l6.96-6.96h1.838l8.040 8.041c0.391 0.391 1.024 0.391 1.414 0s0.391-1.024 0-1.414l-24.666-24.667zM12 16.081l3.919 3.919-6.545 6.545c-0.391 0.391-1.024 0.391-1.414 0l-2.505-2.505c-0.391-0.391-0.391-1.024 0-1.414l6.545-6.545zM23.792 18.793l2.086-2.086c0.391-0.391 0.391-1.024 0-1.414l-9.172-9.172c-0.391-0.391-1.024-0.391-1.414 0l-2.086 2.086-1.414-1.414 2.086-2.086c1.172-1.172 3.071-1.172 4.243 0l9.171 9.172c1.172 1.172 1.172 3.071 0 4.243l-2.086 2.086-1.414-1.414z"></path>
</svg>
