<!-- Generated by IcoMoon.io -->
<svg version="1.1" xmlns="http://www.w3.org/2000/svg" width="32" height="32" viewBox="0 0 32 32">
<title>flash-on</title>
<path d="M11.059 18.667l-2.356 9.424c-0.249 0.995 0.982 1.675 1.692 0.935l15.994-16.667c0.61-0.636 0.159-1.692-0.721-1.692h-5.946l2.228-6.684c0.216-0.648-0.266-1.316-0.949-1.316h-9.333c-0.446 0-0.839 0.296-0.962 0.725l-4 14c-0.183 0.639 0.297 1.275 0.962 1.275h3.392zM17.385 11.35c-0.216 0.648 0.266 1.316 0.949 1.316h4.988l-11.766 12.261 1.755-7.019c0.158-0.631-0.32-1.243-0.97-1.243h-3.347l3.429-12h7.192l-2.228 6.684z"></path>
</svg>
