<!-- Generated by IcoMoon.io -->
<svg version="1.1" xmlns="http://www.w3.org/2000/svg" width="32" height="32" viewBox="0 0 32 32">
<title>flip-vertical-regular</title>
<path d="M26.282 2.798c0.24 0.153 0.385 0.418 0.385 0.702v10.333c0 0.46-0.373 0.833-0.833 0.833h-22.333c-0.46-0-0.833-0.373-0.833-0.833 0-0.333 0.195-0.62 0.478-0.754l0.005-0.002 22.333-10.333c0.103-0.049 0.223-0.077 0.351-0.077 0.166 0 0.321 0.049 0.451 0.133l-0.003-0.002zM7.285 13h17.715v-8.196l-17.715 8.196zM26.667 28.667c0 0 0 0 0 0 0 0.368-0.298 0.667-0.667 0.667-0.103 0-0.201-0.023-0.288-0.065l0.004 0.002-22.667-10.667c-0.228-0.109-0.383-0.338-0.383-0.603 0-0.368 0.298-0.667 0.667-0.667 0 0 0 0 0 0h22.667c0.368 0 0.667 0.298 0.667 0.667v0 10.667z"></path>
</svg>
