<!-- Generated by IcoMoon.io -->
<svg version="1.1" xmlns="http://www.w3.org/2000/svg" width="32" height="32" viewBox="0 0 32 32">
<title>flip-horizontal</title>
<path d="M29.174 26.208c-0.184 0.286-0.501 0.459-0.841 0.459h-10c-0.552 0-1-0.448-1-1v-22c0-0.471 0.328-0.878 0.788-0.977s0.927 0.135 1.122 0.564l10 22c0.141 0.31 0.114 0.669-0.070 0.955zM19.333 8.283v16.383h7.447l-7.447-16.383zM3.333 26.667c-0.228 0-0.441-0.117-0.563-0.309s-0.138-0.435-0.040-0.641l10.667-22.667c0.133-0.282 0.444-0.435 0.749-0.367s0.521 0.338 0.521 0.651v22.667c0 0.368-0.299 0.667-0.667 0.667h-10.667z"></path>
</svg>
