<!-- Generated by IcoMoon.io -->
<svg version="1.1" xmlns="http://www.w3.org/2000/svg" width="32" height="32" viewBox="0 0 32 32">
<title>flip-horizontal</title>
<path d="M29.202 26.282c-0.15 0.233-0.408 0.385-0.702 0.385h-10.333c-0.46 0-0.833-0.373-0.833-0.833v-22.333c0-0.46 0.373-0.833 0.833-0.833 0.333 0 0.62 0.195 0.754 0.478l0.002 0.005 10.333 22.333c0.049 0.103 0.077 0.223 0.077 0.351 0 0.166-0.049 0.321-0.133 0.451l0.002-0.003zM19 7.285v17.715h8.196l-8.196-17.715zM3.333 26.667c-0.368-0-0.667-0.299-0.667-0.667 0-0.103 0.023-0.2 0.065-0.287l-0.002 0.004 10.667-22.667c0.109-0.228 0.338-0.383 0.603-0.383 0.368 0 0.666 0.298 0.667 0.666v0 22.667c0 0.368-0.298 0.667-0.667 0.667v0h-10.667z"></path>
</svg>
