<!-- Generated by IcoMoon.io -->
<svg version="1.1" xmlns="http://www.w3.org/2000/svg" width="32" height="32" viewBox="0 0 32 32">
<title>flow-regular</title>
<path d="M24 8c-1.767 0-3.2 1.433-3.2 3.2s1.433 3.2 3.2 3.2v0c1.767 0 3.2-1.433 3.2-3.2s-1.433-3.2-3.2-3.2v0zM19.264 10.408c0.392-2.29 2.362-4.012 4.735-4.012 2.651 0 4.8 2.149 4.8 4.8s-2.149 4.8-4.8 4.8c-2.362 0-4.326-1.707-4.726-3.954l-0.004-0.029c-1.081 0.113-1.942 0.929-2.123 1.978l-0.002 0.014-0.709 4.253c-0.313 1.826-1.828 3.216-3.689 3.334l-0.012 0.001c-0.394 2.288-2.363 4.007-4.734 4.007-2.651 0-4.8-2.149-4.8-4.8s2.149-4.8 4.8-4.8c2.364 0 4.329 1.709 4.727 3.959l0.004 0.029c1.081-0.113 1.942-0.929 2.123-1.978l0.002-0.014 0.709-4.253c0.313-1.826 1.828-3.216 3.689-3.334l0.012-0.001zM8 17.6c-1.767 0-3.2 1.433-3.2 3.2s1.433 3.2 3.2 3.2v0c1.767 0 3.2-1.433 3.2-3.2s-1.433-3.2-3.2-3.2v0z"></path>
</svg>
