<!-- Generated by IcoMoon.io -->
<svg version="1.1" xmlns="http://www.w3.org/2000/svg" width="32" height="32" viewBox="0 0 32 32">
<title>flowchart</title>
<path d="M6.996 3.994c-1.657 0-3 1.343-3 3v3.343c0 1.657 1.343 3 3 3h0.67v4.942c-0.062 0.047-0.122 0.099-0.179 0.155l-3.723 3.722c-0.651 0.651-0.651 1.706-0 2.357l3.723 3.723c0.651 0.651 1.706 0.651 2.357-0l3.721-3.723c0.057-0.057 0.108-0.116 0.155-0.179h4.952v0.672c0 1.657 1.343 3 3 3h3.325c1.657 0 3-1.343 3-3v-3.339c0-1.657-1.343-3-3-3h-3.325c-1.657 0-3 1.343-3 3v0.667h-4.953c-0.047-0.062-0.098-0.122-0.155-0.178l-3.721-3.722c-0.057-0.057-0.116-0.108-0.178-0.155v-4.942h0.673c1.657 0 3-1.343 3-3v-3.343c0-1.657-1.343-3-3-3h-3.343zM5.996 6.994c0-0.552 0.448-1 1-1h3.343c0.552 0 1 0.448 1 1v3.343c0 0.552-0.448 1-1 1h-3.343c-0.552 0-1-0.448-1-1v-3.343zM5.414 23.334l3.251-3.25 3.25 3.25-3.25 3.251-3.251-3.251zM21.673 20.666h3.325c0.552 0 1 0.448 1 1v3.339c0 0.552-0.448 1-1 1h-3.325c-0.552 0-1-0.448-1-1v-3.339c0-0.552 0.448-1 1-1z"></path>
</svg>
