<!-- Generated by IcoMoon.io -->
<svg version="1.1" xmlns="http://www.w3.org/2000/svg" width="32" height="32" viewBox="0 0 32 32">
<title>flowchart</title>
<path d="M6.997 3.995c-1.657 0-3 1.343-3 3v0 3.343c0 1.657 1.343 3 3 3v0h0.669v4.943c-0.066 0.050-0.124 0.1-0.179 0.155l-3.723 3.721c-0.302 0.302-0.488 0.718-0.488 1.179s0.187 0.877 0.488 1.179l3.723 3.723c0.302 0.302 0.718 0.488 1.179 0.488s0.877-0.187 1.179-0.488l3.72-3.723c0.057-0.057 0.109-0.116 0.156-0.179h4.952v0.672c0 1.657 1.343 3 3 3v0h3.325c1.657 0 3-1.343 3-3v0-3.34c0-1.657-1.343-3-3-3v0h-3.325c-1.657 0-3 1.343-3 3v0 0.668h-4.953c-0.050-0.066-0.1-0.124-0.155-0.179l-3.72-3.72c-0.055-0.055-0.113-0.106-0.175-0.153l-0.004-0.003v-4.943h0.673c1.657 0 3-1.343 3-3v0-3.343c0-1.657-1.343-3-3-3v0h-3.343zM5.997 6.995c0-0.552 0.448-1 1-1v0h3.343c0.552 0 1 0.448 1 1v0 3.343c0 0.552-0.448 1-1 1v0h-3.343c-0.552 0-1-0.448-1-1v0-3.343zM5.413 23.335l3.253-3.251 3.249 3.251-3.249 3.252-3.253-3.253zM21.672 20.668h3.325c0.552 0 1 0.448 1 1v0 3.339c0 0.552-0.448 1-1 1v0h-3.325c-0.552 0-1-0.448-1-1v0-3.34c0-0.552 0.448-1 1-1v0z"></path>
</svg>
