<!-- Generated by IcoMoon.io -->
<svg version="1.1" xmlns="http://www.w3.org/2000/svg" width="32" height="32" viewBox="0 0 32 32">
<title>fluent</title>
<path d="M16.548 3.344l0.062-0.008 0.116 0 0.141 0.028 0.098 0.040 8 4c0.491 0.246 0.491 0.947 0 1.193l-6.807 3.404 6.807 3.404c0.493 0.246 0.491 0.951-0.003 1.194l-7.676 3.783 0.048 7.615c0.003 0.516-0.557 0.84-1.003 0.58l-8-4.667c-0.205-0.119-0.331-0.339-0.331-0.576l0.002-15.393 0.025-0.129 0.029-0.078 0.016-0.034c0.023-0.045 0.050-0.086 0.080-0.124l0.088-0.089 0.095-0.066 8.099-4.047 0.113-0.031zM9.333 17.081v5.869l6.659 3.885-0.041-6.418-6.619-3.336zM10.156 16.004l5.843 2.943-0.008-5.841-5.835 2.899zM17.323 13.073l0.009 5.797 5.835-2.875-5.845-2.922zM9.333 14.923l5.832-2.896-5.832-2.944v5.84zM15.999 5.080l-5.845 2.923 5.837 2.945 0.008-5.868zM17.323 10.925l5.853-2.925-5.844-2.923-0.009 5.848z"></path>
</svg>
