<!-- Generated by IcoMoon.io -->
<svg version="1.1" xmlns="http://www.w3.org/2000/svg" width="32" height="32" viewBox="0 0 32 32">
<title>fluid</title>
<path d="M14.667 6.667h7.66c1.657 0 3 1.343 3 3v5h-2v-5c0-0.552-0.448-1-1-1h-7.66v-2zM8.667 14.667v7.66c0 0.552 0.448 1 1 1h5v2h-5c-1.657 0-3-1.343-3-3v-7.66h2z"></path>
<path d="M2.667 5.667c0-1.657 1.343-3 3-3h4.667c1.657 0 3 1.343 3 3v4.667c0 1.657-1.343 3-3 3h-4.667c-1.657 0-3-1.343-3-3v-4.667zM5.667 4.667c-0.552 0-1 0.448-1 1v4.667c0 0.552 0.448 1 1 1h4.667c0.552 0 1-0.448 1-1v-4.667c0-0.552-0.448-1-1-1h-4.667z"></path>
<path d="M16 19c0-1.657 1.343-3 3-3h7.333c1.657 0 3 1.343 3 3v7.333c0 1.657-1.343 3-3 3h-7.333c-1.657 0-3-1.343-3-3v-7.333zM19 18c-0.552 0-1 0.448-1 1v7.333c0 0.552 0.448 1 1 1h7.333c0.552 0 1-0.448 1-1v-7.333c0-0.552-0.448-1-1-1h-7.333z"></path>
</svg>
