<!-- Generated by IcoMoon.io -->
<svg version="1.1" xmlns="http://www.w3.org/2000/svg" width="32" height="32" viewBox="0 0 32 32">
<title>folder-link-regular</title>
<path d="M11.373 6c0.555 0 1.093 0.185 1.53 0.523l0.117 0.096 1.724 1.509c0.127 0.111 0.283 0.18 0.449 0.2l0.1 0.006h11.541c0 0 0 0 0 0 1.334 0 2.424 1.045 2.496 2.36l0 0.006 0.003 0.133v9.029c-0.459-0.535-1.012-0.975-1.636-1.295l-0.030-0.014v-7.719c-0-0.43-0.326-0.784-0.744-0.828l-0.004-0-0.085-0.005-11.602-0.001-1.418 1.744c-0.431 0.527-1.066 0.874-1.783 0.918l-0.007 0-0.15 0.005-7.54-0.001v10.834c0 0.431 0.328 0.787 0.748 0.829l0.085 0.005h8.227c0.087 0.592 0.267 1.153 0.521 1.667h-8.748c-0 0-0 0-0 0-1.334 0-2.424-1.045-2.496-2.36l-0-0.006-0.003-0.133v-15c0-0 0-0 0-0 0-1.334 1.045-2.424 2.36-2.496l0.006-0 0.133-0.003h6.207zM11.373 7.667h-6.207c-0 0-0 0-0 0-0.43 0-0.784 0.326-0.829 0.744l-0 0.004-0.004 0.085v2.499l7.54 0.001c0.22 0 0.429-0.087 0.584-0.239l0.063-0.069 1.090-1.342-1.687-1.477c-0.121-0.106-0.275-0.178-0.445-0.2l-0.004-0-0.1-0.006zM18.833 19.333c-2.301 0-4.167 1.865-4.167 4.167s1.865 4.167 4.167 4.167v0h1c0.46 0 0.833-0.373 0.833-0.833s-0.373-0.833-0.833-0.833v0h-1c-1.381 0-2.5-1.119-2.5-2.5s1.119-2.5 2.5-2.5v0h1c0.46 0 0.833-0.373 0.833-0.833s-0.373-0.833-0.833-0.833v0h-1zM25.167 19.333c2.301 0 4.167 1.865 4.167 4.167s-1.865 4.167-4.167 4.167v0h-1c-0.46 0-0.833-0.373-0.833-0.833s0.373-0.833 0.833-0.833v0h1c1.381 0 2.5-1.119 2.5-2.5s-1.119-2.5-2.5-2.5v0h-1c-0.46 0-0.833-0.373-0.833-0.833s0.373-0.833 0.833-0.833v0h1zM18 23.5c0-0.46 0.373-0.833 0.833-0.833h6.333c0.46 0 0.833 0.373 0.833 0.833s-0.373 0.833-0.833 0.833v0h-6.333c-0.46 0-0.833-0.373-0.833-0.833z"></path>
</svg>
