<!-- Generated by IcoMoon.io -->
<svg version="1.1" xmlns="http://www.w3.org/2000/svg" width="32" height="32" viewBox="0 0 32 32">
<title>folder-sync-regular</title>
<path d="M10.943 5.333c0.613 0 1.211 0.188 1.712 0.536l0.208 0.16 3.167 2.637h10.304c0 0 0.001 0 0.001 0 1.51 0 2.76 1.116 2.969 2.568l0.002 0.016 0.021 0.211 0.007 0.205v4.080c-0.578-0.556-1.235-1.034-1.953-1.415l-0.047-0.023v-2.643c-0-0.504-0.373-0.921-0.859-0.99l-0.005-0.001-0.136-0.009h-10.305l-3.165 2.639c-0.451 0.377-1.021 0.626-1.647 0.682l-0.012 0.001-0.261 0.012-6.276-0.001v9.668c0 0.507 0.376 0.925 0.864 0.991l0.136 0.009h9.417c0.231 0.712 0.549 1.383 0.945 2h-10.363c-0 0-0 0-0 0-1.585 0-2.882-1.229-2.992-2.785l-0.001-0.010-0.007-0.205v-15.333c0-0 0-0 0-0 0-1.585 1.229-2.882 2.785-2.992l0.010-0.001 0.205-0.007h5.276zM10.943 7.333h-5.276c-0.504 0-0.921 0.373-0.99 0.859l-0.001 0.005-0.009 0.136v3.665l6.276 0.001c0.195-0 0.377-0.056 0.531-0.153l-0.004 0.002 0.113-0.080 2.521-2.104-2.52-2.1c-0.138-0.115-0.309-0.195-0.497-0.222l-0.005-0.001-0.139-0.009zM16 22c0 4.050 3.283 7.333 7.333 7.333s7.333-3.283 7.333-7.333v0c0-4.050-3.283-7.333-7.333-7.333s-7.333 3.283-7.333 7.333v0zM27.333 17.333c0.368 0 0.667 0.298 0.667 0.667v0 2.667c0 0.368-0.298 0.667-0.667 0.667v0h-2.667c-0.368 0-0.667-0.298-0.667-0.667s0.298-0.667 0.667-0.667v0h1.333c-0.614-0.813-1.578-1.333-2.664-1.333-0.001 0-0.002 0-0.003 0h0c-1.111 0-2.096 0.543-2.703 1.381-0.123 0.161-0.315 0.264-0.531 0.264-0.368 0-0.667-0.298-0.667-0.667 0-0.142 0.044-0.273 0.119-0.381l-0.001 0.002c0.857-1.177 2.23-1.933 3.78-1.933 0.001 0 0.002 0 0.003 0h-0c1.307 0 2.487 0.537 3.333 1.4v-0.733c0-0.368 0.298-0.667 0.667-0.667v0zM20 25.267v0.733c0 0.368-0.298 0.667-0.667 0.667s-0.667-0.298-0.667-0.667v0-2.667c0-0.368 0.298-0.667 0.667-0.667v0h2.667c0.368 0 0.667 0.298 0.667 0.667s-0.298 0.667-0.667 0.667v0h-1.333c0.608 0.811 1.577 1.333 2.667 1.333 1.021 0 1.936-0.459 2.548-1.184 0.123-0.14 0.302-0.228 0.502-0.228 0.368 0 0.667 0.298 0.667 0.667 0 0.16-0.057 0.308-0.151 0.423l0.001-0.001c-0.86 1.016-2.136 1.657-3.562 1.657-0.002 0-0.003 0-0.005 0h0c-0.002 0-0.004 0-0.006 0-1.303 0-2.482-0.536-3.326-1.399l-0.001-0.001z"></path>
</svg>
