<!-- Generated by IcoMoon.io -->
<svg version="1.1" xmlns="http://www.w3.org/2000/svg" width="32" height="32" viewBox="0 0 32 32">
<title>folder-zip</title>
<path d="M12.655 5.87c-0.501-0.348-1.098-0.536-1.712-0.536h-5.276l-0.205 0.007c-1.561 0.106-2.795 1.405-2.795 2.993v15.333l0.007 0.205c0.106 1.561 1.405 2.795 2.993 2.795l20.872-0.007c1.561-0.106 2.795-1.405 2.795-2.993v-12l-0.007-0.205-0.022-0.211c-0.203-1.46-1.456-2.584-2.971-2.584h-10.304l-3.166-2.638-0.209-0.159zM17.996 10.667v2.993c0 0.552 0.448 1 1 1h1v1.337h-0.333c-0.552 0-1 0.448-1 1s0.448 1 1 1h0.333v2h-0.333c-0.552 0-1 0.448-1 1s0.448 1 1 1h0.333v2.67l-14.465-0.009c-0.488-0.066-0.864-0.485-0.864-0.991v-9.668l6.276 0.001 0.262-0.011c0.608-0.053 1.187-0.291 1.659-0.684l3.165-2.638h1.968zM21.996 24.001h0.333c0.552 0 1-0.448 1-1s-0.448-1-1-1h-0.333v-2h0.333c0.552 0 1-0.448 1-1s-0.448-1-1-1h-0.333v-3.34h1c0.552 0 1-0.448 1-1v-2.993h2.338l0.136 0.009c0.488 0.066 0.864 0.485 0.864 0.991v12l-0.009 0.136c-0.066 0.488-0.485 0.864-0.991 0.864h-4.338v-0.666zM21.996 10.667v1.993h-2v-1.994h2zM5.667 7.333h5.276l0.139 0.010c0.184 0.026 0.357 0.102 0.501 0.222l2.521 2.1-2.521 2.103-0.113 0.082c-0.157 0.098-0.34 0.15-0.527 0.15l-6.276-0.001v-3.665l0.009-0.136c0.066-0.488 0.485-0.864 0.991-0.864z"></path>
</svg>
