<!-- Generated by IcoMoon.io -->
<svg version="1.1" xmlns="http://www.w3.org/2000/svg" width="32" height="32" viewBox="0 0 32 32">
<title>folder-mail</title>
<path d="M13.131 5.031c-0.409-0.287-0.917-0.459-1.465-0.459l-6.985 0.006c-1.342 0.095-2.395 1.207-2.395 2.565 0 0 0 0 0 0v0 17.714l0.006 0.176c0.095 1.342 1.207 2.395 2.565 2.395 0 0 0 0 0 0h10v-1.714l-10.117-0.008c-0.421-0.059-0.741-0.417-0.741-0.849v0-12.858l7.665 0.001 0.224-0.010c0.546-0.049 1.035-0.262 1.426-0.588l-0.004 0.003 2.713-2.262 11.235 0.008c0.421 0.059 0.741 0.417 0.741 0.849v0 7.143c0.614 0 1.194 0.137 1.714 0.385v-7.528l-0.006-0.176-0.019-0.181c-0.181-1.258-1.252-2.215-2.546-2.215h-11.118l-2.714-2.262-0.178-0.136zM4.857 6.286h6.808l0.119 0.008c0.166 0.024 0.312 0.092 0.431 0.192l2.16 1.799-2.16 1.802-0.098 0.070c-0.128 0.081-0.284 0.129-0.451 0.129l-7.665-0.001v-3.142l0.008-0.117c0.059-0.421 0.417-0.741 0.849-0.741v0zM16 21.143c0-1.578 1.279-2.857 2.857-2.857v0h9.143c1.578 0 2.857 1.279 2.857 2.857v0 0.218l-7.429 3.714-7.429-3.714v-0.218zM23.685 26.225l7.173-3.585v5.36c0 1.578-1.279 2.857-2.857 2.857v0h-9.143c-1.578 0-2.857-1.279-2.857-2.857v0-5.361l7.173 3.586c0.075 0.038 0.163 0.061 0.256 0.061s0.181-0.022 0.259-0.062l-0.003 0.002z"></path>
</svg>
