<!-- Generated by IcoMoon.io -->
<svg version="1.1" xmlns="http://www.w3.org/2000/svg" width="32" height="32" viewBox="0 0 32 32">
<title>folder-sync</title>
<path d="M10.943 5.333c0.614 0 1.211 0.188 1.712 0.536l0.209 0.159 3.166 2.638h10.304c1.516 0 2.769 1.124 2.971 2.584l0.022 0.211 0.007 0.205v4.079c-0.592-0.569-1.265-1.054-2-1.437v-2.643c0-0.506-0.376-0.925-0.864-0.991l-0.136-0.009h-10.305l-3.165 2.638c-0.472 0.393-1.051 0.631-1.659 0.684l-0.262 0.011-6.276-0.001v9.668c0 0.506 0.376 0.925 0.864 0.991l0.136 0.009h9.418c0.23 0.711 0.549 1.382 0.944 2h-10.362c-1.588 0-2.888-1.234-2.993-2.795l-0.007-0.205v-15.333c0-1.588 1.234-2.888 2.795-2.993l0.205-0.007h5.276zM10.943 7.333h-5.276c-0.506 0-0.925 0.376-0.991 0.864l-0.009 0.136v3.665l6.276 0.001c0.187 0 0.37-0.053 0.527-0.15l0.113-0.082 2.521-2.103-2.521-2.1c-0.144-0.12-0.318-0.196-0.501-0.222l-0.139-0.010zM16 22c0 4.050 3.283 7.333 7.333 7.333s7.333-3.283 7.333-7.333c0-4.050-3.283-7.333-7.333-7.333s-7.333 3.283-7.333 7.333zM27.333 17.333c0.368 0 0.667 0.299 0.667 0.667v2.667c0 0.368-0.299 0.667-0.667 0.667h-2.667c-0.368 0-0.667-0.299-0.667-0.667s0.299-0.667 0.667-0.667h1.334c-0.609-0.811-1.577-1.333-2.667-1.333-1.111 0-2.096 0.543-2.702 1.381-0.216 0.298-0.633 0.365-0.931 0.149s-0.365-0.633-0.149-0.931c0.847-1.17 2.225-1.933 3.782-1.933 1.306 0 2.487 0.537 3.333 1.401v-0.734c0-0.368 0.299-0.667 0.667-0.667zM20 25.266v0.734c0 0.368-0.299 0.667-0.667 0.667s-0.667-0.299-0.667-0.667v-2.667c0-0.368 0.299-0.667 0.667-0.667h2.667c0.368 0 0.667 0.299 0.667 0.667s-0.299 0.667-0.667 0.667h-1.334c0.609 0.811 1.577 1.333 2.667 1.333 1.022 0 1.936-0.459 2.548-1.184 0.237-0.281 0.658-0.317 0.939-0.079s0.317 0.658 0.079 0.939c-0.855 1.013-2.136 1.657-3.567 1.657-1.306 0-2.487-0.537-3.333-1.401z"></path>
</svg>
