<!-- Generated by IcoMoon.io -->
<svg version="1.1" xmlns="http://www.w3.org/2000/svg" width="32" height="32" viewBox="0 0 32 32">
<title>folder-swap</title>
<path d="M10.943 5.333c0.614 0 1.211 0.188 1.712 0.536l0.209 0.159 3.166 2.638h10.304c1.516 0 2.769 1.124 2.971 2.584l0.022 0.211 0.007 0.205v11.037l-2-1.999v-9.038c0-0.506-0.376-0.925-0.864-0.991l-0.136-0.009h-10.305l-3.165 2.638c-0.472 0.393-1.051 0.631-1.659 0.684l-0.262 0.011-6.276-0.001v9.668c0 0.506 0.376 0.925 0.864 0.991l0.136 0.009h6.359c-0.017 0.113-0.025 0.228-0.025 0.343 0 0.619 0.246 1.213 0.685 1.651l0.006 0.006h-7.024c-1.588 0-2.888-1.234-2.993-2.795l-0.007-0.205v-15.333c0-1.588 1.234-2.888 2.795-2.993l0.205-0.007h5.276zM10.943 7.333h-5.276c-0.506 0-0.925 0.376-0.991 0.864l-0.009 0.136v3.665l6.276 0.001c0.187 0 0.37-0.053 0.527-0.15l0.113-0.082 2.521-2.103-2.521-2.1c-0.144-0.12-0.318-0.196-0.501-0.222l-0.139-0.010z"></path>
<path d="M18.374 22.386c0.391-0.39 0.391-1.024 0-1.414s-1.024-0.391-1.414-0l-3.333 3.331c-0.188 0.188-0.293 0.442-0.293 0.708s0.106 0.52 0.293 0.707l3.333 3.328c0.391 0.39 1.024 0.39 1.414-0.001s0.39-1.024-0.001-1.414l-1.632-1.629h9.177l-1.625 1.621c-0.391 0.39-0.392 1.023-0.001 1.414s1.023 0.392 1.414 0.001l3.333-3.327c0.188-0.188 0.293-0.442 0.294-0.707s-0.105-0.52-0.293-0.708l-3.333-3.331c-0.391-0.39-1.024-0.39-1.414 0s-0.39 1.024 0 1.414l1.623 1.621h-9.158l1.616-1.615z"></path>
</svg>
