<!-- Generated by IcoMoon.io -->
<svg version="1.1" xmlns="http://www.w3.org/2000/svg" width="32" height="32" viewBox="0 0 32 32">
<title>folder-link</title>
<path d="M24.333 19.333c2.761 0 5 2.239 5 5 0 2.672-2.097 4.855-4.73 4.993l-0.265 0.007-1.333 0.006c-0.552 0.003-1.002-0.443-1.005-0.995-0.002-0.506 0.372-0.926 0.86-0.995l0.136-0.010 1.338-0.006c1.657 0 3-1.343 3-3 0-1.588-1.234-2.887-2.795-2.993l-0.205-0.007h-1.333c-0.552 0-1-0.448-1-1 0-0.506 0.376-0.925 0.864-0.991l0.136-0.009h1.333zM18.333 19.333c0.552 0 1 0.448 1 1 0 0.506-0.376 0.925-0.864 0.991l-0.136 0.009h-1.333c-1.657 0-3 1.343-3 3 0 1.588 1.234 2.887 2.795 2.993l0.205 0.007h1.333c0.552 0 1 0.448 1 1 0 0.506-0.376 0.925-0.864 0.991l-0.136 0.009h-1.333c-2.761 0-5-2.239-5-5 0-2.672 2.097-4.855 4.734-4.993l0.266-0.007h1.333zM10.943 5.333c0.614 0 1.211 0.188 1.712 0.536l0.209 0.159 3.166 2.638h10.304c1.516 0 2.769 1.124 2.971 2.584l0.022 0.211 0.007 0.205 0.001 8.78c-0.54-0.694-1.221-1.272-2-1.692l-0.001-7.088c0-0.506-0.376-0.925-0.864-0.991l-0.136-0.009h-10.305l-3.165 2.638c-0.472 0.393-1.051 0.631-1.659 0.684l-0.262 0.011-6.276-0.001v9.668c0 0.506 0.376 0.925 0.864 0.991l0.136 0.009 5.009 0.001c0.037 0.703 0.188 1.376 0.436 2.001l-5.444-0.002c-1.588 0-2.888-1.234-2.993-2.795l-0.007-0.205v-15.333c0-1.588 1.234-2.888 2.795-2.993l0.205-0.007h5.276zM24.333 23.333c0.552 0 1 0.448 1 1 0 0.506-0.376 0.925-0.864 0.991l-0.136 0.009h-7.333c-0.552 0-1-0.448-1-1 0-0.506 0.376-0.925 0.864-0.991l0.136-0.009h7.333zM10.943 7.333h-5.276c-0.506 0-0.925 0.376-0.991 0.864l-0.009 0.136v3.665l6.276 0.001c0.187 0 0.37-0.053 0.527-0.15l0.113-0.082 2.521-2.103-2.521-2.1c-0.144-0.12-0.318-0.196-0.501-0.222l-0.139-0.010z"></path>
</svg>
