<!-- Generated by IcoMoon.io -->
<svg version="1.1" xmlns="http://www.w3.org/2000/svg" width="32" height="32" viewBox="0 0 32 32">
<title>folder-people-regular</title>
<path d="M10.943 5.333c0.613 0 1.211 0.188 1.712 0.536l0.208 0.16 3.167 2.637h10.304c0 0 0.001 0 0.001 0 1.51 0 2.76 1.116 2.969 2.568l0.002 0.016 0.021 0.211 0.007 0.205v6.067c-0.483-0.253-1.056-0.401-1.663-0.401-0.119 0-0.236 0.006-0.352 0.017l0.015-0.001v-5.681c-0-0.504-0.373-0.921-0.859-0.99l-0.005-0.001-0.136-0.009h-10.305l-3.165 2.639c-0.451 0.377-1.021 0.626-1.647 0.682l-0.012 0.001-0.261 0.012-6.276-0.001v9.668c0 0.507 0.376 0.925 0.864 0.991l0.136 0.009h9.443c-0.279 0.534-0.443 1.166-0.443 1.836 0 0.058 0.001 0.115 0.004 0.172l-0-0.008h-9.003c-0 0-0 0-0 0-1.585 0-2.882-1.229-2.992-2.785l-0.001-0.010-0.007-0.205v-15.333c0-0 0-0 0-0 0-1.585 1.229-2.882 2.785-2.992l0.010-0.001 0.205-0.007h5.276zM10.943 7.333h-5.276c-0.504 0-0.921 0.373-0.99 0.859l-0.001 0.005-0.009 0.136v3.665l6.276 0.001c0.195-0 0.377-0.056 0.531-0.153l-0.004 0.002 0.113-0.080 2.521-2.104-2.52-2.1c-0.138-0.115-0.309-0.195-0.497-0.222l-0.005-0.001-0.139-0.009zM21 22.667c1.657 0 3-1.343 3-3s-1.343-3-3-3v0c-1.657 0-3 1.343-3 3s1.343 3 3 3v0zM21 30.667c3.572 0 5-2.092 5-4.167 0-1.38-0.96-2.5-2.143-2.5h-5.715c-1.183 0-2.143 1.12-2.143 2.5 0 2.083 1.428 4.167 5 4.167zM30 21c0 1.289-1.045 2.333-2.333 2.333s-2.333-1.045-2.333-2.333v0c0-1.289 1.045-2.333 2.333-2.333s2.333 1.045 2.333 2.333v0zM26.555 29.333c0.539-0.88 0.776-1.873 0.776-2.833-0.001-0.668-0.159-1.298-0.438-1.858l0.011 0.024h2.053c0.947 0 1.715 0.784 1.715 1.751 0 1.453-1.143 2.916-4 2.916h-0.117z"></path>
</svg>
