<!-- Generated by IcoMoon.io -->
<svg version="1.1" xmlns="http://www.w3.org/2000/svg" width="32" height="32" viewBox="0 0 32 32">
<title>folder-arrow-right</title>
<path d="M11.373 6c0.555 0 1.093 0.185 1.53 0.523l0.117 0.096 1.724 1.509c0.127 0.111 0.283 0.18 0.449 0.2l0.1 0.006h11.541c0 0 0 0 0 0 1.334 0 2.424 1.045 2.496 2.36l0 0.006 0.003 0.133v5.204c-0.485-0.436-1.032-0.818-1.623-1.128l-0.044-0.021v-4.055c-0-0.43-0.326-0.784-0.744-0.828l-0.004-0-0.085-0.005-11.602-0.001-1.418 1.744c-0.431 0.527-1.066 0.874-1.783 0.918l-0.007 0-0.15 0.005-7.54-0.001v10.834c0 0.431 0.328 0.787 0.748 0.829l0.085 0.005h11.179c0.179 0.587 0.423 1.146 0.725 1.667l-11.904-0.001c-0 0-0 0-0 0-1.334 0-2.424-1.045-2.496-2.36l-0-0.006-0.003-0.133v-15c0-0 0-0 0-0 0-1.334 1.045-2.424 2.36-2.496l0.006-0 0.133-0.003h6.207zM11.373 7.667h-6.207c-0 0-0 0-0 0-0.43 0-0.784 0.326-0.829 0.744l-0 0.004-0.004 0.085v2.499l7.54 0.001c0.22 0 0.429-0.087 0.584-0.239l0.063-0.069 1.090-1.342-1.687-1.477c-0.121-0.106-0.275-0.178-0.445-0.2l-0.004-0-0.1-0.006zM24 15.333c3.682 0 6.667 2.985 6.667 6.667s-2.985 6.667-6.667 6.667-6.667-2.985-6.667-6.667 2.985-6.667 6.667-6.667zM24 18.423l-0.075 0.051-0.063 0.055-0.055 0.063c-0.087 0.112-0.14 0.254-0.14 0.409s0.053 0.297 0.141 0.41l-0.001-0.001 0.055 0.063 1.861 1.862-5.135 0.005c-0.306 0.037-0.547 0.278-0.584 0.581l-0 0.003-0.005 0.078 0.005 0.078c0.037 0.306 0.278 0.547 0.581 0.584l0.003 0 0.078 0.005h5.057l-1.861 1.862-0.055 0.063c-0.087 0.112-0.14 0.254-0.14 0.408 0 0.368 0.298 0.667 0.667 0.667 0.155 0 0.297-0.053 0.41-0.141l-0.001 0.001 0.063-0.055 3.033-3.036 0.049-0.063 0.030-0.050 0.021-0.040 0.029-0.075 0.015-0.052 0.013-0.078 0.005-0.078-0.002-0.051-0.011-0.083-0.020-0.073-0.014-0.040-0.036-0.075-0.030-0.050-0.029-0.039-0.025-0.031-0.028-0.029-3-3-0.063-0.055c-0.112-0.087-0.254-0.14-0.409-0.14-0.123 0-0.238 0.033-0.337 0.091l0.003-0.002z"></path>
</svg>
