<!-- Generated by IcoMoon.io -->
<svg version="1.1" xmlns="http://www.w3.org/2000/svg" width="32" height="32" viewBox="0 0 32 32">
<title>folder-regular</title>
<path d="M11.373 6c0.555 0 1.093 0.185 1.53 0.523l0.117 0.096 1.724 1.509c0.127 0.111 0.283 0.18 0.449 0.2l0.1 0.006h11.541c0 0 0 0 0 0 1.334 0 2.424 1.045 2.496 2.36l0 0.006 0.003 0.133v12.667c0 0 0 0 0 0 0 1.334-1.045 2.424-2.36 2.496l-0.006 0-0.133 0.003h-21.667c-0 0-0 0-0 0-1.334 0-2.424-1.045-2.496-2.36l-0-0.006-0.003-0.133v-15c0-0 0-0 0-0 0-1.334 1.045-2.424 2.36-2.496l0.006-0 0.133-0.003h6.207zM15.231 9.999l-1.418 1.744c-0.431 0.527-1.066 0.874-1.783 0.918l-0.007 0-0.15 0.005-7.54-0.001v10.834c0 0.431 0.328 0.787 0.748 0.829l0.085 0.005h21.667c0.43-0 0.784-0.326 0.828-0.744l0-0.004 0.005-0.085v-12.667c-0-0.43-0.326-0.784-0.744-0.828l-0.004-0-0.085-0.005-11.602-0.001zM11.374 7.667h-6.207c-0 0-0 0-0 0-0.43 0-0.784 0.326-0.829 0.744l-0 0.004-0.004 0.085v2.499l7.54 0.001c0.22 0 0.429-0.087 0.584-0.239l0.063-0.069 1.090-1.342-1.687-1.477c-0.121-0.106-0.275-0.178-0.445-0.2l-0.004-0-0.1-0.006z"></path>
</svg>
