<!-- Generated by IcoMoon.io -->
<svg version="1.1" xmlns="http://www.w3.org/2000/svg" width="32" height="32" viewBox="0 0 32 32">
<title>folder-open-vertical</title>
<path d="M6.4 5.6c0-1.325 1.075-2.4 2.4-2.4v0h14.4c1.325 0 2.4 1.075 2.4 2.4v0 6.203c0 0.197-0.024 0.392-0.072 0.582l-1.528 6.11v4.704c0 1.325-1.075 2.4-2.4 2.4v0h-2.4v1.187c0 0 0 0.001 0 0.001 0 1.325-1.075 2.4-2.4 2.4-0.311 0-0.608-0.059-0.88-0.167l0.016 0.006-6.976-2.691c-1.51-0.594-2.56-2.040-2.56-3.731v-17.005zM11.498 4.8l5.142 1.984c1.51 0.594 2.56 2.040 2.56 3.731v13.485h2.4c0.442 0 0.8-0.358 0.8-0.8v0-4.8c0-0.064 0.008-0.131 0.024-0.194l1.552-6.208c0.015-0.058 0.024-0.125 0.024-0.194 0-0.001 0-0.002 0-0.002v0-6.202c0-0.442-0.358-0.8-0.8-0.8v0h-11.702zM8 6.333v16.272c0 0 0 0.001 0 0.001 0 1.015 0.63 1.882 1.52 2.233l0.016 0.006 6.976 2.69c0.085 0.034 0.184 0.054 0.288 0.054 0.442 0 0.8-0.358 0.8-0.799v-16.274c0-0 0-0.001 0-0.001 0-1.015-0.63-1.882-1.52-2.233l-0.016-0.006-6.976-2.691c-0.085-0.034-0.184-0.054-0.288-0.054-0.442 0-0.8 0.358-0.8 0.8 0 0 0 0.001 0 0.001v-0z"></path>
</svg>
