<!-- Generated by IcoMoon.io -->
<svg version="1.1" xmlns="http://www.w3.org/2000/svg" width="32" height="32" viewBox="0 0 32 32">
<title>folder-arrow-left-regular</title>
<path d="M4 10c0-2.209 1.791-4 4-4v0h3.5c0.237 0 0.456 0.083 0.627 0.221l-0.002-0.002 2.225 1.78h9.65c2.209 0 4 1.791 4 4v0 3.515c-0.576-0.391-1.236-0.73-1.938-0.983l-0.062-0.020v-2.512c0-1.105-0.895-2-2-2v0h-8.813l-3.014 2.74c-0.177 0.161-0.413 0.26-0.673 0.26-0 0-0 0-0 0h-5.5v9c0 1.105 0.895 2 2 2v0h6.055c0.077 0.694 0.232 1.363 0.457 2h-6.512c-2.209 0-4-1.791-4-4v0-12zM6 10v1h5.113l1.773-1.611-1.737-1.389h-3.149c-1.105 0-2 0.895-2 2v0zM15.5 23c0 4.142 3.358 7.5 7.5 7.5s7.5-3.358 7.5-7.5v0c0-4.142-3.358-7.5-7.5-7.5s-7.5 3.358-7.5 7.5v0zM27.75 24h-7.69l2.72 2.72c0.147 0.137 0.239 0.332 0.239 0.549 0 0.414-0.336 0.75-0.75 0.75-0.216 0-0.411-0.092-0.548-0.238l-0-0-4-4c-0.136-0.136-0.219-0.323-0.219-0.53s0.084-0.394 0.219-0.53v0l4-4c0.137-0.147 0.332-0.239 0.549-0.239 0.414 0 0.75 0.336 0.75 0.75 0 0.216-0.092 0.411-0.238 0.548l-0 0-2.72 2.72h7.69c0.414 0 0.75 0.336 0.75 0.75s-0.336 0.75-0.75 0.75v0z"></path>
</svg>
