<!-- Generated by IcoMoon.io -->
<svg version="1.1" xmlns="http://www.w3.org/2000/svg" width="32" height="32" viewBox="0 0 32 32">
<title>folder-zip</title>
<path d="M12.653 5.869c-0.477-0.335-1.070-0.536-1.709-0.536h-5.277l-0.205 0.007c-1.566 0.111-2.795 1.408-2.795 2.993 0 0 0 0 0 0v-0 15.333l0.007 0.205c0.111 1.566 1.408 2.795 2.993 2.795 0 0 0 0 0 0l20.872-0.007c1.566-0.111 2.795-1.408 2.795-2.993 0-0 0-0 0-0v0-12l-0.007-0.205-0.023-0.211c-0.211-1.468-1.461-2.584-2.971-2.584h-10.304l-3.167-2.639-0.208-0.159zM17.997 10.667v2.993c0 0.552 0.447 1 1 1h1v1.337h-0.333c-0.552 0-1 0.448-1 1s0.448 1 1 1v0h0.333v2h-0.333c-0.552 0-1 0.448-1 1s0.448 1 1 1v0h0.333v2.669l-14.467-0.009c-0.491-0.069-0.864-0.486-0.864-0.991v0-9.668l6.276 0.001 0.261-0.012c0.637-0.057 1.208-0.305 1.663-0.687l-0.005 0.004 3.165-2.639h1.968zM21.997 24h0.333c0.552 0 1-0.448 1-1s-0.448-1-1-1v0h-0.333v-2h0.333c0.552 0 1-0.448 1-1s-0.448-1-1-1v0h-0.333v-3.34h1c0.552 0 1-0.448 1-1v0-2.993h2.337l0.136 0.009c0.491 0.069 0.864 0.486 0.864 0.991v0 12l-0.009 0.136c-0.069 0.491-0.486 0.864-0.991 0.864h-4.337v-0.667zM21.997 10.667v1.993h-2v-1.993h2zM5.667 7.333h5.276l0.139 0.009c0.193 0.028 0.364 0.107 0.503 0.224l-0.002-0.001 2.521 2.1-2.52 2.103-0.115 0.081c-0.15 0.094-0.332 0.15-0.527 0.151l-6.276-0.001v-3.665l0.009-0.136c0.069-0.491 0.486-0.864 0.991-0.864v0z"></path>
</svg>
