<!-- Generated by IcoMoon.io -->
<svg version="1.1" xmlns="http://www.w3.org/2000/svg" width="32" height="32" viewBox="0 0 32 32">
<title>folder-person</title>
<path d="M12.691 5.136c-0.35-0.211-0.772-0.336-1.224-0.336h-4.267l-0.262 0.008c-2.093 0.142-3.738 1.875-3.738 3.991 0 0 0 0 0 0.001v-0 14.4l0.008 0.262c0.142 2.093 1.875 3.738 3.991 3.738 0 0 0 0 0.001 0h10.461c-0.039-0.24-0.061-0.516-0.061-0.798 0-0.001 0-0.002 0-0.002v0c0-0.274 0.027-0.541 0.080-0.8h-10.48l-0.23-0.011c-1.223-0.121-2.17-1.145-2.17-2.389v0-11.202l6.514 0.002 0.245-0.013c0.592-0.062 1.111-0.331 1.493-0.732l0.001-0.001 2.334-2.454h9.413l0.232 0.011c1.222 0.122 2.168 1.145 2.168 2.389 0 0 0 0 0 0v0 3.842c0.642 0.373 1.19 0.888 1.6 1.504v-5.346l-0.008-0.262-0.026-0.259c-0.267-1.973-1.941-3.478-3.966-3.478-0 0-0 0-0.001 0h-9.333l-2.56-1.92-0.216-0.144zM7.2 6.4h4.267l0.128 0.010c0.134 0.022 0.253 0.076 0.354 0.152l-0.002-0.001 1.963 1.474-2.016 2.118-0.098 0.086c-0.132 0.101-0.3 0.162-0.482 0.162-0 0-0.001 0-0.001 0l-6.514-0.002v-1.598l0.011-0.23c0.121-1.223 1.144-2.17 2.389-2.17v0zM28 19.2c0 1.767-1.433 3.2-3.2 3.2s-3.2-1.433-3.2-3.2v0c0-1.767 1.433-3.2 3.2-3.2s3.2 1.433 3.2 3.2v0zM30.4 26.4c0 1.992-1.6 4-5.6 4s-5.6-2-5.6-4c0-1.325 1.075-2.4 2.4-2.4v0h6.4c1.325 0 2.4 1.075 2.4 2.4v0z"></path>
</svg>
