<!-- Generated by IcoMoon.io -->
<svg version="1.1" xmlns="http://www.w3.org/2000/svg" width="32" height="32" viewBox="0 0 32 32">
<title>folder-open</title>
<path d="M26.667 12.669v-1.003c0-1.657-1.343-3-3-3h-7.634l-3.175-2.64c-0.539-0.448-1.217-0.693-1.918-0.693h-5.274c-1.656 0-2.999 1.343-3 2.999l-0.005 15.333c-0.001 1.657 1.343 3.001 3 3.001h0.035c0.005 0 0.011 0 0.016 0h18.913c1.071 0 2.004-0.729 2.264-1.767l2.333-9.331c0.368-1.473-0.746-2.899-2.264-2.899h-0.292zM5.667 7.333h5.274c0.234 0 0.46 0.082 0.639 0.231l3.453 2.871c0.18 0.149 0.406 0.231 0.639 0.231h7.995c0.552 0 1 0.448 1 1v1.003h-16.102c-1.377 0-2.577 0.937-2.91 2.273l-0.992 3.97 0.004-10.579c0-0.552 0.448-1 1-1zM7.596 15.427c0.111-0.445 0.511-0.757 0.97-0.757h18.394c0.217 0 0.376 0.204 0.323 0.414l-2.333 9.331c-0.037 0.148-0.17 0.252-0.323 0.252h-18.913c-0.217 0-0.376-0.204-0.323-0.414l2.206-8.826z"></path>
</svg>
