<!-- Generated by IcoMoon.io -->
<svg version="1.1" xmlns="http://www.w3.org/2000/svg" width="32" height="32" viewBox="0 0 32 32">
<title>folder-swap-regular</title>
<path d="M10.943 5.333c0.613 0 1.211 0.188 1.712 0.536l0.208 0.16 3.167 2.637h10.304c0 0 0.001 0 0.001 0 1.51 0 2.76 1.116 2.969 2.568l0.002 0.016 0.021 0.211 0.007 0.205v11.037l-2-2v-9.037c-0-0.504-0.373-0.921-0.859-0.99l-0.005-0.001-0.136-0.009h-10.305l-3.165 2.639c-0.451 0.377-1.021 0.626-1.647 0.682l-0.012 0.001-0.261 0.012-6.276-0.001v9.668c0 0.507 0.376 0.925 0.864 0.991l0.136 0.009h6.359c-0.016 0.103-0.025 0.221-0.025 0.342 0 0.645 0.262 1.229 0.685 1.651l0 0 0.005 0.007h-7.024c-0 0-0 0-0 0-1.585 0-2.882-1.229-2.992-2.785l-0.001-0.010-0.007-0.205v-15.333c0-0 0-0 0-0 0-1.585 1.229-2.882 2.785-2.992l0.010-0.001 0.205-0.007h5.276zM10.943 7.333h-5.276c-0.504 0-0.921 0.373-0.99 0.859l-0.001 0.005-0.009 0.136v3.665l6.276 0.001c0.195-0 0.377-0.056 0.531-0.153l-0.004 0.002 0.113-0.080 2.521-2.104-2.52-2.1c-0.138-0.115-0.309-0.195-0.497-0.222l-0.005-0.001-0.139-0.009zM18.373 22.387c0.181-0.181 0.294-0.431 0.294-0.708 0-0.552-0.448-1-1-1-0.276 0-0.526 0.112-0.707 0.292v0l-3.333 3.332c-0.181 0.181-0.292 0.431-0.292 0.707s0.112 0.526 0.292 0.707v0l3.333 3.329c0.182 0.188 0.437 0.305 0.719 0.305 0.552 0 1-0.448 1-1 0-0.282-0.117-0.538-0.305-0.719l-1.632-1.631h9.177l-1.625 1.621c-0.189 0.182-0.306 0.437-0.306 0.72 0 0.552 0.448 1 1 1 0.282 0 0.537-0.117 0.719-0.305l0-0 3.333-3.327c0.181-0.181 0.293-0.431 0.293-0.707s-0.112-0.526-0.293-0.707l-3.333-3.332c-0.181-0.181-0.431-0.292-0.707-0.292-0.552 0-1 0.448-1 1 0 0.277 0.112 0.527 0.294 0.708v0l1.623 1.621h-9.159l1.616-1.616z"></path>
</svg>
