<!-- Generated by IcoMoon.io -->
<svg version="1.1" xmlns="http://www.w3.org/2000/svg" width="32" height="32" viewBox="0 0 32 32">
<title>font-space-tracking-out</title>
<path d="M25.928 21.529l0.112 0.097 3 3c0.355 0.355 0.387 0.911 0.097 1.302l-0.097 0.112-3 3c-0.391 0.391-1.024 0.391-1.414 0-0.355-0.355-0.387-0.911-0.097-1.302l0.097-0.112 1.292-1.294h-19.837l1.293 1.294 0.097 0.112c0.29 0.391 0.258 0.947-0.097 1.302s-0.911 0.387-1.302 0.097l-0.112-0.097-3-3-0.097-0.112c-0.258-0.348-0.261-0.826-0.010-1.177l0.106-0.125 3-3 0.112-0.097c0.348-0.258 0.826-0.261 1.177-0.009l0.125 0.106 0.097 0.112c0.258 0.348 0.261 0.826 0.010 1.177l-0.106 0.125-1.293 1.292h19.837l-1.292-1.292c-0.355-0.355-0.387-0.911-0.097-1.302l0.097-0.112c0.355-0.355 0.911-0.387 1.302-0.097zM10.448 3.038l0.083 0.123 0.067 0.141 6 15.333c0.201 0.514-0.053 1.094-0.567 1.296-0.471 0.185-0.998-0.013-1.238-0.444l-0.058-0.123-1.647-4.209h-6.844l-1.646 4.209c-0.184 0.471-0.687 0.724-1.166 0.608l-0.13-0.041c-0.471-0.184-0.724-0.687-0.608-1.166l0.041-0.13 6-15.333c0.293-0.748 1.261-0.836 1.712-0.264zM27.46 3.179c0.239-0.43 0.766-0.628 1.238-0.444s0.724 0.687 0.608 1.166l-0.041 0.13-6 15.333-0.067 0.141c-0.377 0.66-1.351 0.66-1.728 0l-0.067-0.141-6-15.333-0.041-0.13c-0.105-0.431 0.090-0.881 0.473-1.101l0.135-0.065 0.13-0.041c0.431-0.105 0.881 0.090 1.101 0.473l0.065 0.135 5.069 12.954 5.069-12.954 0.058-0.123zM9.667 6.411l-2.64 6.745h5.279l-2.639-6.745z"></path>
</svg>
