<!-- Generated by IcoMoon.io -->
<svg version="1.1" xmlns="http://www.w3.org/2000/svg" width="32" height="32" viewBox="0 0 32 32">
<title>font-decrease-regular</title>
<path d="M21.673 2.927c-0.177-0.162-0.414-0.26-0.673-0.26-0.553 0-1 0.448-1 1 0 0.293 0.126 0.556 0.326 0.739l0.001 0.001 3.667 3.333c0.177 0.162 0.414 0.261 0.673 0.261s0.496-0.099 0.674-0.261l-0.001 0.001 3.667-3.333c0.201-0.184 0.327-0.447 0.327-0.74 0-0.553-0.448-1-1-1-0.26 0-0.496 0.099-0.674 0.261l0.001-0.001-2.993 2.721-2.993-2.72zM16 5.333c0.42 0 0.779 0.259 0.927 0.625l0.002 0.007 7.667 19.333c0.038 0.101 0.060 0.218 0.060 0.34 0 0.552-0.448 1-1 1-0.409 0-0.761-0.246-0.916-0.597l-0.003-0.006-2.393-6.035h-8.688l-2.393 6.035c-0.146 0.383-0.51 0.65-0.937 0.65-0.552 0-1-0.448-1-1 0-0.14 0.029-0.273 0.081-0.394l-0.003 0.006 7.667-19.333c0.151-0.373 0.51-0.631 0.929-0.631 0 0 0 0 0 0v0zM16 9.047l-3.551 8.953h7.101l-3.551-8.953z"></path>
</svg>
