<!-- Generated by IcoMoon.io -->
<svg version="1.1" xmlns="http://www.w3.org/2000/svg" width="32" height="32" viewBox="0 0 32 32">
<title>font-space-tracking-out</title>
<path d="M23.074 18.907c-0.134 0.309-0.437 0.521-0.789 0.521s-0.654-0.212-0.786-0.516l-0.002-0.006-6.571-15.429c-0.043-0.099-0.069-0.215-0.069-0.336 0-0.473 0.384-0.857 0.857-0.857 0.352 0 0.654 0.212 0.786 0.516l0.002 0.006 5.783 13.577 5.783-13.577c0.134-0.309 0.437-0.521 0.789-0.521 0.473 0 0.857 0.384 0.857 0.857 0 0.121-0.025 0.237-0.071 0.342l0.002-0.006-6.571 15.429zM9.71 2.286c0.343 0 0.654 0.206 0.789 0.521l4.341 10.19c0.034 0.057 0.063 0.123 0.083 0.193l0.002 0.006 2.146 5.040c0.043 0.099 0.069 0.215 0.069 0.336 0 0.473-0.384 0.857-0.857 0.857-0.352 0-0.654-0.212-0.786-0.516l-0.002-0.006-1.968-4.622h-7.629l-1.969 4.622c-0.134 0.309-0.437 0.521-0.789 0.521-0.473 0-0.857-0.384-0.857-0.857 0-0.121 0.025-0.237 0.071-0.342l-0.002 0.006 2.183-5.125c0.007-0.018 0.012-0.029 0.017-0.041l-0.002 0.005 4.374-10.269c0.134-0.309 0.437-0.521 0.789-0.521 0 0 0 0 0 0v0zM6.626 12.571h6.168l-3.085-7.241-3.083 7.241zM25.109 21.966c0.155-0.155 0.369-0.251 0.606-0.251s0.451 0.096 0.606 0.251v0l3.141 3.143c0.155 0.155 0.251 0.369 0.251 0.606s-0.096 0.451-0.251 0.606l-3.139 3.143c-0.156 0.162-0.375 0.262-0.617 0.262-0.473 0-0.857-0.384-0.857-0.857 0-0.242 0.1-0.46 0.261-0.616l0-0 1.678-1.68h-21.57l1.678 1.68c0.149 0.154 0.24 0.364 0.24 0.595 0 0.473-0.384 0.857-0.857 0.857-0.232 0-0.442-0.092-0.596-0.241l-3.14-3.143c-0.155-0.155-0.251-0.369-0.251-0.606s0.096-0.451 0.251-0.606l3.141-3.143c0.156-0.162 0.375-0.262 0.617-0.262 0.473 0 0.857 0.384 0.857 0.857 0 0.242-0.1 0.46-0.261 0.616l-0 0-1.678 1.68h21.57l-1.678-1.68c-0.155-0.155-0.251-0.369-0.251-0.606s0.096-0.451 0.251-0.606v0z"></path>
</svg>
