<!-- Generated by IcoMoon.io -->
<svg version="1.1" xmlns="http://www.w3.org/2000/svg" width="32" height="32" viewBox="0 0 32 32">
<title>food-apple-regular</title>
<path d="M11.196 14.98c0.462-0.095 0.804-0.498 0.804-0.981 0-0.552-0.448-1-1-1-0.069 0-0.137 0.007-0.202 0.021l0.006-0.001c-1.204 0.24-2.113 1.083-2.597 2.212-0.48 1.117-0.551 2.515-0.176 4.011 0.104 0.45 0.501 0.78 0.976 0.78 0.552 0 1-0.448 1-1 0-0.094-0.013-0.185-0.037-0.271l0.002 0.007c-0.293-1.171-0.197-2.107 0.073-2.739 0.267-0.621 0.691-0.947 1.152-1.040zM7.295 4.559c-0.008 0.124-0.012 0.269-0.012 0.414 0 1.848 0.725 3.526 1.907 4.766l-0.003-0.003c-2.576 0.756-4.494 2.922-4.876 5.585l-0.004 0.037c-0.085 0.58-0.134 1.249-0.134 1.93 0 2.632 0.729 5.093 1.996 7.194l-0.035-0.063 0.467 0.787c0.020 0.033 0.039 0.060 0.059 0.086l-0.002-0.002 1.888 2.541c0.851 1.137 2.193 1.864 3.706 1.864 1.306 0 2.486-0.543 3.326-1.415l0.001-0.001c0.106-0.11 0.255-0.179 0.42-0.179s0.314 0.069 0.42 0.179l0 0c0.841 0.874 2.021 1.416 3.327 1.416 1.513 0 2.856-0.728 3.698-1.852l0.009-0.012 1.888-2.543c0.018-0.024 0.036-0.051 0.053-0.080l0.003-0.004 0.468-0.787c1.234-2.039 1.964-4.502 1.964-7.136 0-0.679-0.048-1.346-0.142-1.998l0.009 0.075c-0.48-3.343-3.324-5.883-6.761-5.883-0.491 0-0.969 0.052-1.43 0.15l0.045-0.008-2.539 0.525c0.040-1.040 0.203-2.16 0.521-3.117 0.387-1.157 0.923-1.853 1.52-2.101 0.364-0.155 0.615-0.51 0.615-0.923 0-0.553-0.448-1-1-1-0.139 0-0.272 0.028-0.392 0.080l0.007-0.002c-1.403 0.585-2.2 1.973-2.647 3.315l-0.061 0.189c-0.346-0.66-0.765-1.227-1.257-1.72l0 0c-1.25-1.252-2.979-2.026-4.887-2.026-0.147 0-0.294 0.005-0.439 0.014l0.020-0.001c-0.923 0.055-1.658 0.788-1.714 1.706l-0 0.005zM9.285 4.835c0.042-0.001 0.092-0.002 0.142-0.002 1.357 0 2.586 0.551 3.474 1.442l0 0c0.891 0.888 1.442 2.117 1.442 3.474 0 0.050-0.001 0.099-0.002 0.149l0-0.007c-0.040 0.001-0.087 0.002-0.134 0.002-0.208 0-0.413-0.013-0.614-0.038l0.024 0.002-0.823-0.171c-0.813-0.247-1.509-0.674-2.069-1.236l-0-0c-0.891-0.888-1.442-2.117-1.442-3.474 0-0.050 0.001-0.099 0.002-0.149l-0 0.007zM12.044 11.573l0.269 0.056c0.32 0.091 0.645 0.159 0.973 0.203l1.293 0.267c0.427 0.093 0.917 0.146 1.42 0.146s0.993-0.053 1.466-0.154l-0.046 0.008 2.536-0.525c0.294-0.064 0.633-0.1 0.98-0.1 2.431 0 4.442 1.797 4.777 4.135l0.003 0.026c0.073 0.495 0.114 1.066 0.114 1.647 0 2.257-0.626 4.368-1.713 6.168l0.030-0.054-0.441 0.743-1.857 2.501c-0.482 0.644-1.243 1.057-2.1 1.057-0.741 0-1.409-0.308-1.885-0.802l-0.001-0.001c-0.47-0.489-1.13-0.793-1.861-0.793s-1.391 0.304-1.861 0.792l-0.001 0.001c-0.477 0.496-1.146 0.803-1.886 0.803-0.857 0-1.618-0.413-2.096-1.050l-0.005-0.007-1.857-2.501-0.441-0.743c-1.057-1.747-1.682-3.857-1.682-6.113 0-0.581 0.042-1.153 0.122-1.713l-0.008 0.064c0.339-2.364 2.35-4.16 4.78-4.16 0.346 0 0.684 0.036 1.010 0.106l-0.032-0.006z"></path>
</svg>
