<!-- Generated by IcoMoon.io -->
<svg version="1.1" xmlns="http://www.w3.org/2000/svg" width="32" height="32" viewBox="0 0 32 32">
<title>food-toast</title>
<path d="M11 12c-0.552 0-1 0.448-1 1v0 6c0 0.552 0.448 1 1 1h6c0.552 0 1-0.448 1-1v0-6c0-0.552-0.448-1-1-1v0h-6zM12 18v-4h4v4h-4zM2.667 10.333c0-3.498 2.836-6.333 6.333-6.333v0h14c3.498 0 6.333 2.836 6.333 6.333 0 1.653-0.633 3.158-1.67 4.286l0.004-0.005v10.385c0 1.657-1.343 3-3 3v0h-17.333c-1.657 0-3-1.343-3-3v0-10.385c-1.033-1.121-1.667-2.623-1.667-4.274 0-0.003 0-0.005 0-0.008v0zM9 6c-2.393 0-4.333 1.94-4.333 4.333 0 1.238 0.519 2.355 1.352 3.145l0.002 0.002c0.192 0.183 0.312 0.44 0.312 0.726 0 0 0 0.001 0 0.001v-0 10.793c0 0.552 0.448 1 1 1h13.333c0.552 0 1-0.448 1-1v0-10.256c0-0.342 0.172-0.644 0.434-0.824l0.003-0.002c1.152-0.791 1.898-2.1 1.898-3.584 0-2.393-1.94-4.333-4.333-4.333-0.001 0-0.001 0-0.002 0h-10.667zM26 10.333c0 0.002 0 0.004 0 0.005 0 1.974-0.905 3.737-2.322 4.896l-0.011 0.009v9.756c0 0.351-0.060 0.687-0.171 1h1.171c0.552 0 1-0.448 1-1v0-10.793c0-0 0-0.001 0-0.001 0-0.286 0.12-0.543 0.312-0.725l0-0c0.834-0.792 1.353-1.909 1.353-3.147 0-1.842-1.149-3.416-2.769-4.043l-0.030-0.010c0.912 1.086 1.467 2.5 1.467 4.043 0 0.004 0 0.007 0 0.011v-0.001z"></path>
</svg>
