<!-- Generated by IcoMoon.io -->
<svg version="1.1" xmlns="http://www.w3.org/2000/svg" width="32" height="32" viewBox="0 0 32 32">
<title>food-grains</title>
<path d="M15.186 3.049c-2.699 2.347-3.752 5.819-3.159 9.044-2.030-1.168-4.267-1.521-6.838-1.306-0.702 0.058-1.23 0.677-1.166 1.387 0.209 2.3 1.269 4.583 2.747 6.367-0.55-0.005-1.106 0.028-1.664 0.103-0.654 0.087-1.137 0.67-1.085 1.339 0.406 5.277 4.806 9.351 10.098 9.351l3.762-0c5.292 0 9.692-4.074 10.098-9.351 0.051-0.669-0.431-1.252-1.085-1.339-0.552-0.074-1.101-0.107-1.645-0.103 1.477-1.784 2.537-4.067 2.746-6.367 0.065-0.71-0.464-1.329-1.166-1.387-2.571-0.214-4.821 0.139-6.857 1.308 0.594-3.225-0.459-6.698-3.158-9.045-0.467-0.406-1.161-0.406-1.628 0zM15.999 15.635c-2.844-2.951-2.844-7.652 0-10.603 2.844 2.951 2.844 7.652 0 10.603zM15.999 23.112c-1.449-1.844-3.42-3.232-5.645-3.971-0.042-0.041-0.088-0.079-0.137-0.113-1.96-1.335-3.626-3.793-4.098-6.294 2.492-0.083 4.449 0.516 6.234 2.028 1.367 1.158 1.973 2.571 2.423 3.62 0.116 0.271 0.222 0.519 0.329 0.731 0.169 0.339 0.516 0.553 0.894 0.553s0.725-0.214 0.894-0.553c0.106-0.212 0.212-0.459 0.329-0.731 0.45-1.050 1.057-2.463 2.423-3.62 1.784-1.511 3.756-2.111 6.253-2.028-0.472 2.501-2.137 4.96-4.098 6.294-0.046 0.031-0.088 0.065-0.127 0.102-2.237 0.737-4.219 2.129-5.674 3.981zM16.858 25.386c1.856-3.107 5.336-5.041 9.038-4.83-0.649 3.876-4.015 6.777-8.015 6.777l-3.762 0c-4 0-7.366-2.901-8.015-6.777 3.702-0.21 7.181 1.722 9.037 4.83 0.18 0.302 0.507 0.487 0.858 0.487s0.678-0.185 0.859-0.487z"></path>
</svg>
