<!-- Generated by IcoMoon.io -->
<svg version="1.1" xmlns="http://www.w3.org/2000/svg" width="32" height="32" viewBox="0 0 32 32">
<title>food-egg</title>
<path d="M15.333 16.333c0-0.552 0.448-1 1-1s1-0.448 1-1c0-0.552-0.448-1-1-1-1.657 0-3 1.343-3 3 0 0.552 0.448 1 1 1s1-0.448 1-1z"></path>
<path d="M9.333 16.667c0-4.050 3.283-7.333 7.333-7.333s7.333 3.283 7.333 7.333-3.283 7.333-7.333 7.333c-4.050 0-7.333-3.283-7.333-7.333zM16.667 11.333c-2.945 0-5.333 2.388-5.333 5.333s2.388 5.333 5.333 5.333 5.333-2.388 5.333-5.333c0-2.946-2.388-5.333-5.333-5.333z"></path>
<path d="M8.286 8.658c1.964-3.558 5.557-5.991 9.714-5.991 6.347 0 11.333 5.629 11.333 12.367 0 0.755-0.062 1.495-0.181 2.214-0.076 0.458-0.060 0.946 0.031 1.443 0.098 0.533 0.15 1.083 0.15 1.643 0 4.971-4.029 9-9 9-1.423 0-2.772-0.331-3.971-0.921-1.033-0.509-2.263-0.684-3.422-0.508-0.416 0.063-0.842 0.096-1.273 0.096-5.044 0-9-4.405-9-9.667 0-3.428 1.665-6.466 4.212-8.187 0.596-0.403 1.087-0.908 1.407-1.488zM18 4.667c-3.335 0-6.303 1.952-7.963 4.958-0.499 0.905-1.229 1.632-2.038 2.178-1.982 1.34-3.332 3.748-3.332 6.53 0 4.311 3.208 7.667 7 7.667 0.331 0 0.655-0.025 0.972-0.073 1.542-0.235 3.188-0.007 4.607 0.691 0.93 0.458 1.977 0.716 3.088 0.716 3.866 0 7-3.134 7-7 0-0.438-0.040-0.866-0.117-1.28-0.126-0.683-0.158-1.407-0.038-2.133 0.101-0.611 0.154-1.242 0.154-1.887 0-5.817-4.266-10.367-9.333-10.367z"></path>
</svg>
