<!-- Generated by IcoMoon.io -->
<svg version="1.1" xmlns="http://www.w3.org/2000/svg" width="32" height="32" viewBox="0 0 32 32">
<title>food-apple</title>
<path d="M11.198 14.981c0.542-0.108 0.893-0.635 0.784-1.177s-0.635-0.893-1.177-0.784c-1.205 0.241-2.114 1.082-2.598 2.212-0.479 1.118-0.55 2.515-0.176 4.011 0.134 0.536 0.677 0.862 1.213 0.728s0.862-0.677 0.728-1.213c-0.292-1.17-0.197-2.106 0.074-2.739 0.266-0.621 0.69-0.946 1.152-1.038zM7.297 4.56c-0.109 1.848 0.52 3.735 1.89 5.177-2.503 0.72-4.494 2.85-4.881 5.621-0.438 3.141 0.208 6.337 1.83 9.061l0.468 0.786c0.017 0.029 0.036 0.057 0.056 0.085l1.888 2.542c1.702 2.292 5.055 2.505 7.034 0.447 0.229-0.238 0.61-0.238 0.839 0 1.979 2.058 5.332 1.844 7.034-0.447l1.888-2.542c0.020-0.027 0.039-0.055 0.056-0.085l0.468-0.786c1.623-2.725 2.268-5.921 1.83-9.061-0.545-3.908-4.281-6.542-8.145-5.741l-2.54 0.526c0.040-1.040 0.203-2.161 0.522-3.118 0.386-1.157 0.923-1.853 1.519-2.101 0.51-0.212 0.751-0.798 0.539-1.308s-0.798-0.751-1.308-0.538c-1.404 0.585-2.2 1.972-2.647 3.315-0.021 0.063-0.041 0.126-0.061 0.189-0.32-0.619-0.739-1.2-1.258-1.719-1.457-1.457-3.403-2.128-5.307-2.016-0.924 0.055-1.659 0.789-1.713 1.714zM9.286 4.836c1.306-0.036 2.621 0.445 3.616 1.44s1.476 2.309 1.44 3.616c-0.242 0.007-0.484-0.004-0.724-0.033l-0.823-0.17c-0.758-0.226-1.471-0.638-2.070-1.236-0.995-0.995-1.476-2.309-1.44-3.615zM12.045 11.575l0.27 0.056c0.32 0.091 0.645 0.158 0.973 0.202l1.293 0.268c0.937 0.194 1.904 0.194 2.84 0l2.536-0.525c2.732-0.566 5.373 1.296 5.759 4.059 0.375 2.69-0.178 5.428-1.568 7.762l-0.442 0.742-1.858 2.501c-0.965 1.299-2.865 1.42-3.986 0.253-1.016-1.057-2.707-1.057-3.723 0-1.121 1.166-3.022 1.045-3.986-0.253l-1.858-2.501-0.442-0.742c-1.39-2.334-1.943-5.072-1.568-7.762 0.385-2.763 3.027-4.625 5.759-4.059z"></path>
</svg>
