<!-- Generated by IcoMoon.io -->
<svg version="1.1" xmlns="http://www.w3.org/2000/svg" width="32" height="32" viewBox="0 0 32 32">
<title>food</title>
<path d="M24.333 4.333c0.506 0 0.925 0.376 0.991 0.864l0.009 0.136v21.333c0 0.552-0.448 1-1 1-0.506 0-0.925-0.376-0.991-0.864l-0.009-0.136v-6.667h-3c-0.506 0-0.925-0.376-0.991-0.864l-0.009-0.136v-9.667c0-2.761 2.239-5 5-5zM16.333 4.333c0.506 0 0.925 0.376 0.991 0.864l0.009 0.136v5.333c0 2.603-1.865 4.771-4.333 5.24l-0.001 10.76c0 0.552-0.448 1-1 1-0.506 0-0.925-0.376-0.991-0.864l-0.009-0.136 0.001-10.76c-2.38-0.451-4.2-2.483-4.327-4.963l-0.007-0.277v-5.333c0-0.552 0.448-1 1-1 0.506 0 0.925 0.376 0.991 0.864l0.009 0.136v5.333c0 1.493 0.981 2.756 2.334 3.181l-0.001-8.514c0-0.552 0.448-1 1-1 0.506 0 0.925 0.376 0.991 0.864l0.009 0.136 0.001 8.514c1.277-0.401 2.222-1.55 2.324-2.934l0.009-0.246v-5.333c0-0.552 0.448-1 1-1zM23.333 18v-11.496c-1.097 0.388-1.901 1.395-1.991 2.601l-0.009 0.228v8.667h2z"></path>
</svg>
