<!-- Generated by IcoMoon.io -->
<svg version="1.1" xmlns="http://www.w3.org/2000/svg" width="32" height="32" viewBox="0 0 32 32">
<title>food-grains-regular</title>
<path d="M15.187 3.049c-2.040 1.776-3.323 4.378-3.323 7.28 0 0.624 0.059 1.234 0.172 1.824l-0.010-0.060c-2.028-1.168-4.267-1.52-6.836-1.307-0.659 0.056-1.172 0.605-1.172 1.273 0 0.040 0.002 0.080 0.005 0.119l-0-0.005c0.209 2.301 1.269 4.584 2.747 6.368-0.033-0-0.073-0.001-0.112-0.001-0.547 0-1.086 0.038-1.613 0.11l0.061-0.007c-0.618 0.084-1.089 0.608-1.089 1.243 0 0.034 0.001 0.067 0.004 0.101l-0-0.004c0.416 5.249 4.778 9.35 10.097 9.351h3.763c5.32-0 9.681-4.102 10.095-9.315l0.002-0.035c0.002-0.028 0.004-0.062 0.004-0.095 0-0.634-0.471-1.159-1.082-1.243l-0.007-0.001c-0.466-0.066-1.004-0.103-1.551-0.103-0.033 0-0.065 0-0.098 0l0.005-0c1.476-1.785 2.536-4.067 2.747-6.368 0.003-0.034 0.005-0.074 0.005-0.114 0-0.668-0.513-1.217-1.167-1.273l-0.005-0c-2.571-0.213-4.821 0.139-6.857 1.307 0.104-0.531 0.163-1.142 0.163-1.766 0-2.9-1.281-5.502-3.309-7.268l-0.012-0.010c-0.217-0.189-0.502-0.305-0.814-0.305s-0.597 0.115-0.815 0.306l0.001-0.001zM16 15.636c-1.32-1.373-2.134-3.243-2.134-5.302s0.813-3.929 2.136-5.304l-0.002 0.003c1.32 1.373 2.132 3.242 2.132 5.301s-0.813 3.928-2.135 5.304l0.002-0.003zM16 23.112c-1.437-1.815-3.354-3.192-5.559-3.946l-0.085-0.025c-0.042-0.041-0.087-0.078-0.135-0.111l-0.003-0.002c-1.96-1.333-3.625-3.792-4.097-6.293 2.493-0.083 4.449 0.516 6.233 2.028 1.367 1.159 1.973 2.571 2.424 3.62 0.116 0.272 0.223 0.52 0.328 0.731 0.168 0.331 0.505 0.553 0.895 0.553s0.727-0.223 0.892-0.548l0.003-0.006c0.082-0.159 0.192-0.399 0.295-0.643l0.033-0.087c0.451-1.049 1.057-2.463 2.424-3.62 1.784-1.511 3.756-2.111 6.253-2.028-0.473 2.501-2.139 4.96-4.099 6.293-0.047 0.033-0.089 0.066-0.127 0.103l0-0c-2.303 0.776-4.231 2.158-5.656 3.956l-0.019 0.025zM16.859 25.387c1.856-3.107 5.336-5.040 9.037-4.831-0.67 3.871-4.003 6.777-8.015 6.777h-3.763c-4 0-7.365-2.901-8.013-6.776 3.7-0.211 7.18 1.721 9.036 4.829 0.178 0.294 0.496 0.487 0.859 0.487s0.681-0.194 0.856-0.483l0.003-0.004z"></path>
</svg>
