<!-- Generated by IcoMoon.io -->
<svg version="1.1" xmlns="http://www.w3.org/2000/svg" width="32" height="32" viewBox="0 0 32 32">
<title>food-pizza</title>
<path d="M12.16 14.072c0.707 0 1.28-0.573 1.28-1.28s-0.573-1.28-1.28-1.28v0c-0.707 0-1.28 0.573-1.28 1.28s0.573 1.28 1.28 1.28v0zM18.56 16.63c0 0.707-0.573 1.28-1.28 1.28s-1.28-0.573-1.28-1.28v0c0-0.707 0.573-1.28 1.28-1.28s1.28 0.573 1.28 1.28v0zM12.16 21.747c0.707 0 1.28-0.573 1.28-1.28s-0.573-1.28-1.28-1.28v0c-0.707 0-1.28 0.573-1.28 1.28s0.573 1.28 1.28 1.28v0zM7.040 5.97c0-1.915 1.574-3.589 3.61-3.388 6.874 0.7 12.885 3.923 17.184 8.714l0.022 0.025c1.37 1.527 0.943 3.794-0.613 4.922-2.025 1.468-5.043 3.657-6.762 4.906-0.003 0.559-0.003 0.923-0.001 1.396v0.805c0 0 0 0.001 0 0.001 0 1.237-1.003 2.24-2.24 2.24-0.138 0-0.274-0.013-0.405-0.037l0.014 0.002c-0.261 1.057-1.193 1.955-2.488 1.955-0.896 0-1.615-0.429-2.060-1.043l-1.696 1.224c-1.905 1.376-4.57 0.015-4.568-2.336l0.005-19.386zM10.46 4.493c-0.78-0.077-1.503 0.567-1.503 1.48v0.666c6.725 0.282 12.686 3.517 16.621 8.44l0.536-0.389c0.74-0.538 0.835-1.501 0.31-2.086-4.008-4.469-9.585-7.46-15.858-8.101l-0.105-0.009zM8.954 25.357c0 0.785 0.888 1.239 1.523 0.781l2.724-1.965c0.155-0.113 0.35-0.181 0.561-0.181 0.53 0 0.96 0.43 0.96 0.96 0 0.001 0 0.001 0 0.002v-0c0 0.346 0.268 0.64 0.636 0.64 0.002 0 0.004 0 0.006 0 0.351 0 0.636-0.285 0.636-0.636 0-0.001 0-0.003 0-0.004v0-1.606c0-0.53 0.43-0.96 0.96-0.96s0.96 0.43 0.96 0.96v0c0 0.18 0.142 0.321 0.317 0.321 0.177 0 0.32-0.143 0.32-0.32v0-0.796c-0.001-0.602-0.003-1.034 0.006-1.906 0.003-0.315 0.156-0.593 0.392-0.766l0.003-0.002c1.155-0.84 3.195-2.319 5.064-3.674-3.602-4.455-8.968-7.36-15.020-7.645l-0.046-0.002v16.799z"></path>
</svg>
