<!-- Generated by IcoMoon.io -->
<svg version="1.1" xmlns="http://www.w3.org/2000/svg" width="32" height="32" viewBox="0 0 32 32">
<title>food-carrot-regular</title>
<path d="M23.333 3.667c0-0.552-0.448-1-1-1s-1 0.448-1 1v0 5.352c-2.701-1.808-6.488-1.173-8.389 1.621l-9.804 14.408c-0.741 1.091-0.6 2.547 0.34 3.477 0.505 0.497 1.198 0.804 1.963 0.804 0.596 0 1.148-0.186 1.602-0.503l-0.009 0.006 14.387-9.959c1.564-1.085 2.576-2.872 2.576-4.895 0-1.235-0.377-2.382-1.023-3.333l0.013 0.021h5.343c0.552 0 1-0.448 1-1s-0.448-1-1-1v0h-3.587l4.293-4.293c0.166-0.178 0.268-0.418 0.268-0.682 0-0.552-0.448-1-1-1-0.264 0-0.504 0.102-0.682 0.269l0.001-0.001-4.292 4.292v-3.585zM14.613 11.751c1.416-2.081 4.4-2.368 6.195-0.593 0.729 0.719 1.181 1.717 1.181 2.821 0 1.35-0.676 2.543-1.707 3.257l-0.013 0.009-14.384 9.96c-0.123 0.086-0.275 0.137-0.439 0.137-0.211 0-0.403-0.085-0.542-0.222l0 0c-0.139-0.136-0.224-0.326-0.224-0.536 0-0.158 0.049-0.305 0.133-0.427l-0.002 0.003 9.804-14.408z"></path>
</svg>
