<!-- Generated by IcoMoon.io -->
<svg version="1.1" xmlns="http://www.w3.org/2000/svg" width="32" height="32" viewBox="0 0 32 32">
<title>food-cake-regular</title>
<path d="M16 1.333c-1.267 0-2.113 0.909-2.583 1.709-0.481 0.825-0.751 1.832-0.751 2.624 0 0.659 0.084 1.565 0.576 2.328 0.547 0.845 1.475 1.339 2.757 1.339s2.211-0.493 2.757-1.339c0.493-0.763 0.576-1.669 0.576-2.328 0-0.792-0.269-1.8-0.751-2.624-0.468-0.8-1.316-1.709-2.583-1.709zM14.667 5.667c0-0.413 0.161-1.073 0.477-1.613 0.331-0.565 0.649-0.72 0.856-0.72s0.525 0.155 0.856 0.72c0.316 0.54 0.477 1.2 0.477 1.613 0 0.547-0.083 0.973-0.257 1.243-0.12 0.187-0.36 0.424-1.076 0.424-0.717 0-0.956-0.237-1.076-0.424-0.173-0.269-0.257-0.696-0.257-1.243zM27.333 13.667v11h1c0.552 0 1 0.448 1 1s-0.448 1-1 1v0h-24.667c-0.552 0-1-0.448-1-1s0.448-1 1-1v0h1v-11c0-1.657 1.343-3 3-3v0h16.667c1.657 0 3 1.343 3 3v0zM6.667 13.667v2.788l3.263 2.107c0.255 0.167 0.568 0.266 0.904 0.266s0.649-0.099 0.91-0.27l-0.006 0.004 2.329-1.504c0.561-0.367 1.249-0.585 1.987-0.585 0.694 0 1.343 0.193 1.896 0.528l-0.016-0.009 2.679 1.599c0.244 0.148 0.539 0.236 0.855 0.236 0.359 0 0.691-0.113 0.963-0.306l-0.005 0.003 2.909-2.043v-2.813c0-0.552-0.448-1-1-1v0h-16.667c-0.552 0-1 0.448-1 1v0zM23.573 20.16c-0.587 0.416-1.317 0.665-2.106 0.665-0.694 0-1.343-0.193-1.897-0.528l0.016 0.009-2.677-1.6c-0.244-0.148-0.539-0.236-0.855-0.236-0.336 0-0.649 0.099-0.91 0.27l0.006-0.004-2.329 1.504c-0.562 0.367-1.249 0.586-1.988 0.586s-1.426-0.218-2.002-0.594l0.014 0.009-2.179-1.407v5.832h18.667v-5.743l-1.76 1.235z"></path>
</svg>
