<!-- Generated by IcoMoon.io -->
<svg version="1.1" xmlns="http://www.w3.org/2000/svg" width="32" height="32" viewBox="0 0 32 32">
<title>food-pizza</title>
<path d="M12 14.654c0.736 0 1.333-0.597 1.333-1.333s-0.597-1.333-1.333-1.333c-0.736 0-1.333 0.597-1.333 1.333s0.597 1.333 1.333 1.333zM18.667 17.318c0 0.736-0.597 1.333-1.333 1.333s-1.333-0.597-1.333-1.333c0-0.736 0.597-1.333 1.333-1.333s1.333 0.597 1.333 1.333zM12 22.648c0.736 0 1.333-0.597 1.333-1.333s-0.597-1.333-1.333-1.333-1.333 0.597-1.333 1.333c0 0.736 0.597 1.333 1.333 1.333zM6.666 6.214c0-1.995 1.642-3.74 3.761-3.53 7.102 0.701 13.416 4.077 17.922 9.103 1.426 1.591 0.983 3.952-0.638 5.127-2.11 1.53-5.253 3.808-7.044 5.11-0.004 0.583-0.003 0.962-0.002 1.455v0.001c0 0.239 0.001 0.506 0.001 0.836 0 1.262-1.017 2.334-2.333 2.334-0.14 0-0.277-0.012-0.409-0.035-0.272 1.102-1.243 2.037-2.591 2.037-0.934 0-1.683-0.447-2.145-1.087-0.575 0.415-1.183 0.853-1.767 1.275-1.985 1.433-4.759 0.015-4.758-2.434l0.004-20.193zM10.23 4.674c-0.811-0.080-1.564 0.591-1.565 1.54l-0 0.694c7.005 0.294 13.214 3.664 17.312 8.791l0.559-0.405c0.771-0.559 0.869-1.564 0.323-2.173-4.185-4.667-10.043-7.798-16.63-8.448zM8.661 26.408c-0 0.816 0.925 1.29 1.588 0.812 0.964-0.696 1.992-1.437 2.837-2.045 0.305-0.219 0.706-0.249 1.040-0.078s0.544 0.515 0.544 0.89c0 0.36 0.278 0.667 0.663 0.667 0.389 0 0.668-0.311 0.668-0.667v-1.669c0-0.552 0.448-1 1-1s1 0.448 1 1c0 0.188 0.149 0.334 0.332 0.334 0.184 0 0.333-0.149 0.333-0.334 0-0.325-0-0.589-0.001-0.828-0.001-0.626-0.002-1.078 0.006-1.986 0.003-0.317 0.156-0.613 0.412-0.8 1.203-0.875 3.327-2.416 5.274-3.828-3.735-4.631-9.354-7.674-15.692-7.965l-0.004 17.497z"></path>
</svg>
