<!-- Generated by IcoMoon.io -->
<svg version="1.1" xmlns="http://www.w3.org/2000/svg" width="32" height="32" viewBox="0 0 32 32">
<title>food-egg</title>
<path d="M15.333 16.333c0-0.552 0.448-1 1-1v0c0.552 0 1-0.448 1-1s-0.448-1-1-1v0c-1.657 0-3 1.343-3 3v0c0 0.552 0.448 1 1 1s1-0.448 1-1v0zM9.333 16.667c0-4.050 3.283-7.333 7.333-7.333s7.333 3.283 7.333 7.333v0c0 4.050-3.283 7.333-7.333 7.333s-7.333-3.283-7.333-7.333v0zM16.667 11.333c-2.946 0-5.333 2.388-5.333 5.333s2.388 5.333 5.333 5.333v0c2.946 0 5.333-2.388 5.333-5.333s-2.388-5.333-5.333-5.333v0zM8.287 8.659c1.964-3.559 5.557-5.992 9.713-5.992 6.347 0 11.333 5.628 11.333 12.367 0 0.755-0.063 1.495-0.181 2.213-0.076 0.459-0.060 0.947 0.032 1.444 0.097 0.495 0.152 1.064 0.152 1.646 0 4.971-4.029 9-9 9-1.447 0-2.814-0.341-4.025-0.948l0.052 0.024c-0.741-0.363-1.613-0.576-2.534-0.576-0.314 0-0.622 0.025-0.922 0.072l0.033-0.004c-0.382 0.061-0.822 0.096-1.27 0.096-0.001 0-0.002 0-0.004 0h0c-5.044 0-9-4.405-9-9.667 0-3.428 1.664-6.467 4.213-8.187 0.595-0.404 1.085-0.908 1.407-1.488zM18 4.667c-3.335 0-6.303 1.952-7.963 4.959-0.5 0.904-1.229 1.631-2.040 2.177-1.98 1.34-3.331 3.749-3.331 6.531 0 4.311 3.208 7.667 7 7.667 0.331 0 0.655-0.025 0.973-0.073 0.357-0.058 0.769-0.090 1.189-0.090 1.243 0 2.418 0.288 3.463 0.802l-0.046-0.021c0.901 0.453 1.964 0.718 3.089 0.718 3.866 0 7-3.134 7-7 0-0.453-0.043-0.897-0.125-1.326l0.007 0.044c-0.071-0.353-0.112-0.758-0.112-1.173 0-0.339 0.027-0.671 0.080-0.996l-0.005 0.036c0.101-0.611 0.155-1.241 0.155-1.887 0-5.817-4.267-10.367-9.333-10.367z"></path>
</svg>
