<!-- Generated by IcoMoon.io -->
<svg version="1.1" xmlns="http://www.w3.org/2000/svg" width="32" height="32" viewBox="0 0 32 32">
<title>food-fish</title>
<path d="M12.687 15.632c0-1.507 0.123-3.203 0.515-4.783 0.393-1.585 1.037-2.98 2.023-3.965 1.093-1.093 2.632-1.707 4.333-1.997 1.693-0.292 3.467-0.249 4.923-0.107 1.461 0.133 2.616 1.287 2.748 2.736l0.001 0.012c0.141 1.457 0.184 3.228-0.107 4.924-0.293 1.7-0.907 3.239-2 4.332-0.985 0.987-2.381 1.632-3.968 2.025-1.58 0.392-3.277 0.516-4.784 0.516-1.333 0-2.427 1.081-2.433 2.419-0.011 2.26-0.293 4.88-1.248 6.892-0.051-0.047-0.087-0.109-0.101-0.179l-0-0.002c-0.348-1.469-0.701-2.655-1.109-3.816l0.081 0.266c-0.227-0.655-0.456-1.193-0.714-1.713l0.038 0.085c-0.237-0.475-0.523-0.944-0.868-1.289-0.347-0.347-0.816-0.632-1.291-0.869-0.435-0.22-0.973-0.448-1.527-0.644l-0.102-0.032c-0.895-0.327-2.083-0.681-3.293-0.977l-0.26-0.054c-0.072-0.014-0.133-0.050-0.18-0.1l-0-0c2.013-0.956 4.64-1.236 6.903-1.245 1.338-0.008 2.421-1.094 2.421-2.433v-0zM13.809 5.471c-1.335 1.335-2.107 3.113-2.549 4.897-0.444 1.792-0.575 3.663-0.573 5.267-0.002 0.236-0.193 0.428-0.429 0.431h-0c-2.361 0.009-5.355 0.293-7.776 1.449-0.909 0.435-1.289 1.331-1.101 2.18 0.177 0.795 0.82 1.447 1.689 1.659 1.060 0.259 2.289 0.593 3.359 0.973 0.535 0.189 1.013 0.384 1.403 0.579 0.403 0.201 0.649 0.373 0.771 0.495 0.121 0.123 0.293 0.368 0.495 0.771 0.195 0.389 0.389 0.867 0.579 1.4 0.379 1.069 0.712 2.297 0.971 3.357 0.212 0.869 0.864 1.512 1.66 1.689 0.849 0.189 1.745-0.191 2.18-1.1 1.156-2.419 1.44-5.405 1.453-7.764 0-0.232 0.196-0.428 0.431-0.428 1.603 0 3.475-0.131 5.267-0.575 1.787-0.444 3.565-1.216 4.901-2.552 1.493-1.493 2.224-3.48 2.556-5.408 0.333-1.936 0.279-3.901 0.127-5.457-0.23-2.412-2.134-4.316-4.527-4.542l-0.020-0.002c-1.555-0.153-3.52-0.207-5.456 0.125-1.929 0.332-3.915 1.063-5.408 2.556zM21.336 6.667c0.736 0 1.333 0.597 1.333 1.333s-0.597 1.333-1.333 1.333v0c-0.736 0-1.333-0.597-1.333-1.333s0.597-1.333 1.333-1.333v0z"></path>
</svg>
