<!-- Generated by IcoMoon.io -->
<svg version="1.1" xmlns="http://www.w3.org/2000/svg" width="32" height="32" viewBox="0 0 32 32">
<title>food-toast</title>
<path d="M11 12c-0.552 0-1 0.448-1 1v6c0 0.552 0.448 1 1 1h6c0.552 0 1-0.448 1-1v-6c0-0.552-0.448-1-1-1h-6zM12 18v-4h4v4h-4z"></path>
<path d="M2.667 10.333c0-3.498 2.836-6.333 6.333-6.333h14c3.498 0 6.333 2.836 6.333 6.333 0 1.651-0.633 3.155-1.667 4.282v10.385c0 1.657-1.343 3-3 3h-17.333c-1.657 0-3-1.343-3-3v-10.385c-1.034-1.127-1.667-2.631-1.667-4.282zM9 6c-2.393 0-4.333 1.94-4.333 4.333 0 1.239 0.519 2.356 1.354 3.147 0.199 0.189 0.312 0.451 0.312 0.726v10.794c0 0.552 0.448 1 1 1h13.333c0.552 0 1-0.448 1-1v-10.256c0-0.331 0.163-0.64 0.437-0.826 1.147-0.782 1.897-2.095 1.897-3.584 0-2.393-1.94-4.333-4.333-4.333h-10.667zM26 10.333c0 1.982-0.911 3.75-2.333 4.911v9.756c0 0.351-0.060 0.687-0.171 1h1.171c0.552 0 1-0.448 1-1v-10.794c0-0.275 0.113-0.537 0.312-0.726 0.835-0.791 1.354-1.908 1.354-3.147 0-1.854-1.164-3.436-2.801-4.055 0.917 1.099 1.468 2.512 1.468 4.055z"></path>
</svg>
