<!-- Generated by IcoMoon.io -->
<svg version="1.1" xmlns="http://www.w3.org/2000/svg" width="32" height="32" viewBox="0 0 32 32">
<title>food-cake</title>
<path d="M16 1.333c-1.266 0-2.114 0.909-2.582 1.71-0.482 0.825-0.751 1.831-0.751 2.623 0 0.659 0.084 1.565 0.577 2.328 0.546 0.846 1.474 1.339 2.757 1.339s2.211-0.493 2.757-1.339c0.493-0.763 0.577-1.669 0.577-2.328 0-0.793-0.269-1.799-0.751-2.623-0.468-0.801-1.316-1.71-2.582-1.71zM14.667 5.667c0-0.412 0.161-1.073 0.478-1.614 0.33-0.565 0.649-0.72 0.856-0.72s0.525 0.155 0.856 0.72c0.316 0.541 0.478 1.201 0.478 1.614 0 0.546-0.083 0.974-0.257 1.243-0.121 0.186-0.36 0.424-1.077 0.424s-0.956-0.238-1.077-0.424c-0.174-0.269-0.257-0.697-0.257-1.243z"></path>
<path d="M27.333 13.667v11h1c0.552 0 1 0.448 1 1s-0.448 1-1 1h-24.667c-0.552 0-1-0.448-1-1s0.448-1 1-1h1v-11c0-1.657 1.343-3 3-3h16.667c1.657 0 3 1.343 3 3zM6.667 13.667v2.788l3.263 2.105c0.55 0.355 1.257 0.355 1.807 0l2.33-1.503c1.172-0.756 2.67-0.782 3.867-0.067l2.678 1.599c0.564 0.337 1.274 0.311 1.812-0.067l2.91-2.042v-2.813c0-0.552-0.448-1-1-1h-16.667c-0.552 0-1 0.448-1 1zM23.573 20.159c-1.183 0.831-2.744 0.888-3.986 0.147l-2.678-1.599c-0.544-0.325-1.225-0.313-1.758 0.031l-2.33 1.503c-1.21 0.781-2.765 0.781-3.976 0l-2.179-1.406v5.831h18.667v-5.743l-1.761 1.236z"></path>
</svg>
