<!-- Generated by IcoMoon.io -->
<svg version="1.1" xmlns="http://www.w3.org/2000/svg" width="32" height="32" viewBox="0 0 32 32">
<title>form-new</title>
<path d="M7.667 4c-2.025 0-3.667 1.642-3.667 3.667v16.667c0 2.025 1.642 3.667 3.667 3.667h8.362c-0.395-0.618-0.715-1.289-0.944-2h-7.418c-0.92 0-1.667-0.746-1.667-1.667v-16.667c0-0.92 0.746-1.667 1.667-1.667h16.667c0.921 0 1.667 0.746 1.667 1.667v7.418c0.711 0.23 1.382 0.549 2 0.944v-8.362c0-2.025-1.642-3.667-3.667-3.667h-16.667z"></path>
<path d="M23.942 14.688c0.041-0.11 0.064-0.228 0.064-0.352 0-0.552-0.448-1-1-1h-6.673c-0.552 0-1 0.448-1 1s0.448 1 1 1h3.655c1.029-0.431 2.159-0.669 3.345-0.669 0.205 0 0.408 0.007 0.609 0.021z"></path>
<path d="M11 11.336c-1.657 0-3 1.343-3 3s1.343 3 3 3 3-1.343 3-3c0-1.657-1.343-3-3-3zM10 14.336c0-0.552 0.448-1 1-1s1 0.448 1 1c0 0.552-0.448 1-1 1s-1-0.448-1-1z"></path>
<path d="M8 21.667c0-1.657 1.343-3 3-3s3 1.343 3 3c0 1.657-1.343 3-3 3s-3-1.343-3-3zM11 20.667c-0.552 0-1 0.448-1 1s0.448 1 1 1c0.552 0 1-0.448 1-1s-0.448-1-1-1z"></path>
<path d="M23.006 10l-13.999 0c-0.552 0-1-0.448-1-1s0.448-1 1-1l13.999-0c0.552 0 1 0.448 1 1s-0.448 1-1 1z"></path>
<path d="M30.667 23.333c0-4.050-3.283-7.333-7.333-7.333s-7.333 3.283-7.333 7.333c0 4.050 3.283 7.333 7.333 7.333s7.333-3.283 7.333-7.333zM24.001 27.338c0 0.368-0.298 0.667-0.667 0.667s-0.667-0.298-0.667-0.667l-0.001-3.338h-3.339c-0.368 0-0.667-0.298-0.667-0.667s0.299-0.667 0.667-0.667h3.339l-0.001-3.334c0-0.368 0.299-0.667 0.667-0.667s0.667 0.298 0.667 0.667l0.001 3.334h3.337c0.368 0 0.667 0.299 0.667 0.667s-0.298 0.667-0.667 0.667h-3.337l0.001 3.338z"></path>
</svg>
