<!-- Generated by IcoMoon.io -->
<svg version="1.1" xmlns="http://www.w3.org/2000/svg" width="32" height="32" viewBox="0 0 32 32">
<title>form-new-regular</title>
<path d="M8.167 4c-2.301 0-4.167 1.865-4.167 4.167v0 15.667c0 2.301 1.865 4.167 4.167 4.167v0h7.863c-0.333-0.52-0.613-1.079-0.829-1.667h-7.033c-1.381 0-2.5-1.119-2.5-2.5v0-15.667c0-1.381 1.119-2.5 2.5-2.5v0h15.667c1.381 0 2.5 1.119 2.5 2.5v0 7.033c0.588 0.217 1.147 0.496 1.667 0.829v-7.863c0-2.301-1.865-4.167-4.167-4.167v0h-15.667zM23.333 14.667c0.217 0 0.432 0.008 0.645 0.023 0.014-0.057 0.022-0.123 0.022-0.19 0-0.46-0.373-0.833-0.833-0.833h-7c-0.46 0-0.833 0.373-0.833 0.833s0.373 0.833 0.833 0.833v0h3.827c0.983-0.422 2.127-0.667 3.328-0.667 0.004 0 0.008 0 0.012 0h-0.001zM8 8.833c0-0.46 0.373-0.833 0.833-0.833h14.333c0.46 0 0.833 0.373 0.833 0.833s-0.373 0.833-0.833 0.833v0h-14.333c-0.46 0-0.833-0.373-0.833-0.833zM14 14.333c0 1.657-1.343 3-3 3s-3-1.343-3-3v0c0-1.657 1.343-3 3-3s3 1.343 3 3v0zM12.333 14.333c0-0.736-0.597-1.333-1.333-1.333s-1.333 0.597-1.333 1.333v0c0 0.736 0.597 1.333 1.333 1.333s1.333-0.597 1.333-1.333v0zM11 24.667c1.657 0 3-1.343 3-3s-1.343-3-3-3v0c-1.657 0-3 1.343-3 3s1.343 3 3 3v0zM11 23c-0.736 0-1.333-0.597-1.333-1.333s0.597-1.333 1.333-1.333v0c0.736 0 1.333 0.597 1.333 1.333s-0.597 1.333-1.333 1.333v0zM30.667 23.333c0 4.050-3.283 7.333-7.333 7.333s-7.333-3.283-7.333-7.333 3.283-7.333 7.333-7.333 7.333 3.283 7.333 7.333zM24 18.667c0-0.368-0.298-0.667-0.667-0.667s-0.667 0.298-0.667 0.667v0 4h-4c-0.368 0-0.667 0.298-0.667 0.667s0.298 0.667 0.667 0.667v0h4v4c0 0.368 0.298 0.667 0.667 0.667s0.667-0.298 0.667-0.667v0-4h4c0.368 0 0.667-0.298 0.667-0.667s-0.298-0.667-0.667-0.667v0h-4v-4z"></path>
</svg>
