<!-- Generated by IcoMoon.io -->
<svg version="1.1" xmlns="http://www.w3.org/2000/svg" width="32" height="32" viewBox="0 0 32 32">
<title>form-multiple-regular</title>
<path d="M12.667 17c0 1.657-1.343 3-3 3s-3-1.343-3-3v0c0-1.657 1.343-3 3-3s3 1.343 3 3v0zM11 17c0-0.736-0.597-1.333-1.333-1.333s-1.333 0.597-1.333 1.333v0c0 0.736 0.597 1.333 1.333 1.333s1.333-0.597 1.333-1.333v0zM6.667 10.167c0-0.46 0.373-0.833 0.833-0.833h13.667c0.46 0 0.833 0.373 0.833 0.833s-0.373 0.833-0.833 0.833v0h-13.667c-0.46 0-0.833-0.373-0.833-0.833zM14.833 16.333c-0.46 0-0.833 0.373-0.833 0.833s0.373 0.833 0.833 0.833v0h6.333c0.46 0 0.833-0.373 0.833-0.833s-0.373-0.833-0.833-0.833v0h-6.333z"></path>
<path d="M7.167 3.333c-2.117 0-3.833 1.716-3.833 3.833v0 14.333c0 2.117 1.716 3.833 3.833 3.833v0h14.333c2.117 0 3.833-1.716 3.833-3.833v0-14.333c0-2.117-1.716-3.833-3.833-3.833v0h-14.333zM5 7.167c0-1.197 0.97-2.167 2.167-2.167v0h14.333c1.197 0 2.167 0.97 2.167 2.167v0 14.333c0 0.304-0.063 0.593-0.176 0.857-0.339 0.777-1.101 1.31-1.987 1.31-0.001 0-0.003 0-0.004 0h-14.333c-0.001 0-0.003 0-0.005 0-0.894 0-1.66-0.542-1.989-1.316l-0.005-0.014c-0.106-0.246-0.167-0.533-0.167-0.834 0-0.001 0-0.002 0-0.003v0-14.333z"></path>
<path d="M10.167 28.333c-0.001 0-0.002 0-0.003 0-1.308 0-2.463-0.656-3.154-1.657l-0.008-0.013c0.055 0.002 0.109 0.003 0.165 0.003h14.333c2.853 0 5.167-2.313 5.167-5.167v0-14.333c0-0.055-0.001-0.11-0.003-0.165 1.014 0.699 1.669 1.854 1.669 3.162 0 0.001 0 0.002 0 0.003v-0 11.333c0 3.773-3.060 6.833-6.833 6.833h-11.333z"></path>
</svg>
