<!-- Generated by IcoMoon.io -->
<svg version="1.1" xmlns="http://www.w3.org/2000/svg" width="32" height="32" viewBox="0 0 32 32">
<title>form-regular</title>
<path d="M14 14.333c0 1.657-1.343 3-3 3s-3-1.343-3-3v0c0-1.657 1.343-3 3-3s3 1.343 3 3v0zM12.333 14.333c0-0.736-0.597-1.333-1.333-1.333s-1.333 0.597-1.333 1.333v0c0 0.736 0.597 1.333 1.333 1.333s1.333-0.597 1.333-1.333v0zM11 24.667c1.657 0 3-1.343 3-3s-1.343-3-3-3v0c-1.657 0-3 1.343-3 3s1.343 3 3 3v0zM11 23c-0.736 0-1.333-0.597-1.333-1.333s0.597-1.333 1.333-1.333v0c0.736 0 1.333 0.597 1.333 1.333s-0.597 1.333-1.333 1.333v0zM8.833 8c-0.46 0-0.833 0.373-0.833 0.833s0.373 0.833 0.833 0.833v0h14.333c0.46 0 0.833-0.373 0.833-0.833s-0.373-0.833-0.833-0.833v0h-14.333zM15.333 14.5c0-0.46 0.373-0.833 0.833-0.833h7c0.46 0 0.833 0.373 0.833 0.833s-0.373 0.833-0.833 0.833v0h-7c-0.46 0-0.833-0.373-0.833-0.833zM16.167 20.667c-0.46 0-0.833 0.373-0.833 0.833s0.373 0.833 0.833 0.833v0h7c0.46 0 0.833-0.373 0.833-0.833s-0.373-0.833-0.833-0.833v0h-7zM8.167 4c-2.301 0-4.167 1.865-4.167 4.167v0 15.667c0 2.301 1.865 4.167 4.167 4.167v0h15.667c2.301 0 4.167-1.865 4.167-4.167v0-15.667c0-2.301-1.865-4.167-4.167-4.167v0h-15.667zM5.667 8.167c0-1.381 1.119-2.5 2.5-2.5v0h15.667c1.381 0 2.5 1.119 2.5 2.5v0 15.667c0 1.381-1.119 2.5-2.5 2.5v0h-15.667c-1.381 0-2.5-1.119-2.5-2.5v0-15.667z"></path>
</svg>
