<!-- Generated by IcoMoon.io -->
<svg version="1.1" xmlns="http://www.w3.org/2000/svg" width="32" height="32" viewBox="0 0 32 32">
<title>fps-240-regular</title>
<path d="M3.503 7.987c0.049 0.009 0.106 0.013 0.163 0.013 0.488 0 0.895-0.35 0.982-0.813l0.001-0.006 0.004-0.013c0.061-0.203 0.158-0.378 0.283-0.529l-0.002 0.002c0.221-0.268 0.687-0.641 1.732-0.641 1.105 0 2 0.895 2 2v0c0 0.824-0.268 1.357-0.675 1.8-0.445 0.487-1.052 0.867-1.819 1.348l-0.040 0.025c-0.733 0.461-1.616 1.019-2.293 1.816-0.712 0.84-1.175 1.912-1.175 3.345 0 0.552 0.448 1 1 1h6c0.552 0 1-0.448 1-1s-0.448-1-1-1v0h-4.869c0.123-0.427 0.325-0.76 0.571-1.051 0.448-0.528 1.067-0.936 1.832-1.416l0.128-0.080c0.689-0.432 1.507-0.944 2.14-1.635 0.719-0.785 1.2-1.791 1.2-3.153 0-2.209-1.791-4-4-4v0c-1.621 0-2.656 0.627-3.268 1.36-0.305 0.365-0.539 0.8-0.674 1.277l-0.006 0.025c-0.009 0.033-0.021 0.083-0.031 0.133l-0.002 0.015-0.003 0.015-0.001 0.007v0.003c-0.009 0.050-0.014 0.108-0.014 0.167 0 0.494 0.358 0.905 0.829 0.986l0.006 0.001zM21.333 7.995c0-2.205 1.787-3.992 3.992-3.992v0h0.016c2.205 0 3.992 1.787 3.992 3.992v0 5.347c0 2.205-1.787 3.992-3.992 3.992v0h-0.016c-2.205 0-3.992-1.787-3.992-3.992v0-5.347zM25.325 6.003c-1.1 0-1.992 0.892-1.992 1.992v5.347c0 1.1 0.892 1.992 1.992 1.992h0.016c1.1 0 1.992-0.892 1.992-1.992v-5.347c0-1.1-0.893-1.992-1.992-1.992h-0.016zM6.333 20c-0.552 0-1 0.448-1 1v0 7.308c0 0.552 0.448 1 1 1s1-0.448 1-1v0-2.304h2.333c0.552 0 1-0.448 1-1s-0.448-1-1-1v0h-2.333v-2.004h3c0.552 0 1-0.448 1-1s-0.448-1-1-1v0h-4zM12.667 21c0-0.552 0.448-1 1-1v0h2c1.657 0 3 1.343 3 3s-1.343 3-3 3v0h-1v2.333c0 0.552-0.448 1-1 1s-1-0.448-1-1v0-7.333zM14.667 24h1c0.552 0 1-0.448 1-1s-0.448-1-1-1v0h-1v2zM23.167 20c-1.565 0-2.833 1.269-2.833 2.833s1.269 2.833 2.833 2.833v0h0.667c0.46 0 0.833 0.373 0.833 0.833s-0.373 0.833-0.833 0.833v0h-0.833c-0.368 0-0.667-0.298-0.667-0.667v0c0-0.552-0.448-1-1-1s-1 0.448-1 1v0c0 1.473 1.194 2.667 2.667 2.667v0h0.833c1.565 0 2.833-1.269 2.833-2.833s-1.269-2.833-2.833-2.833v0h-0.667c-0.46 0-0.833-0.373-0.833-0.833s0.373-0.833 0.833-0.833v0h0.833c0.368 0 0.667 0.298 0.667 0.667v0c0 0.552 0.448 1 1 1s1-0.448 1-1v0c0-1.473-1.194-2.667-2.667-2.667v0h-0.833zM18.993 4c0.552 0 1 0.448 1 1v0 11.333c0 0.552-0.448 1-1 1s-1-0.448-1-1v0-4.333h-4.993c-0.552 0-1-0.448-1-1v0-6c0-0.552 0.448-1 1-1s1 0.448 1 1v0 5h3.996v-5c0-0.552 0.448-1 1-1v0z"></path>
</svg>
