<!-- Generated by IcoMoon.io -->
<svg version="1.1" xmlns="http://www.w3.org/2000/svg" width="32" height="32" viewBox="0 0 32 32">
<title>fps-30</title>
<path d="M20 4c-2.209 0-4 1.791-4 4v0 5.333c0 2.209 1.791 4 4 4s4-1.791 4-4v0-5.333c0-2.209-1.791-4-4-4v0zM20 15.667c-1.289 0-2.333-1.045-2.333-2.333v0-5.333c0-1.289 1.045-2.333 2.333-2.333s2.333 1.045 2.333 2.333v0 5.333c0 1.289-1.045 2.333-2.333 2.333v0zM6.167 20c-0.46 0-0.833 0.373-0.833 0.833v7.693c0 0.46 0.373 0.833 0.833 0.833s0.833-0.373 0.833-0.833v0-2.86h2.833c0.46 0 0.833-0.373 0.833-0.833s-0.373-0.833-0.833-0.833v0h-2.833v-2.333h3.504c0.46 0 0.833-0.373 0.833-0.833s-0.373-0.833-0.833-0.833v0h-4.337zM13.833 20c-0.46 0-0.833 0.373-0.833 0.833v7.693c0 0.46 0.373 0.833 0.833 0.833s0.833-0.373 0.833-0.833v0-2.86h1.5c1.565 0 2.833-1.269 2.833-2.833s-1.269-2.833-2.833-2.833v0h-2.333zM16.167 24h-1.5v-2.333h1.5c0.644 0 1.167 0.522 1.167 1.167s-0.522 1.167-1.167 1.167v0zM22 22.771c0-0.61 0.494-1.104 1.104-1.104h1.063c0.46 0 0.833 0.373 0.833 0.833s0.373 0.833 0.833 0.833 0.833-0.373 0.833-0.833v0c0-1.381-1.119-2.5-2.5-2.5v0h-1.063c-0.013-0-0.028-0-0.043-0-1.53 0-2.771 1.24-2.771 2.771s1.24 2.771 2.771 2.771c0.015 0 0.030-0 0.045-0l-0.002 0h0.833c0.576 0.015 1.037 0.485 1.037 1.063s-0.461 1.048-1.035 1.063l-0.001 0h-1.104c-0.46 0-0.833-0.373-0.833-0.833s-0.373-0.833-0.833-0.833-0.833 0.373-0.833 0.833v0c0 1.381 1.119 2.5 2.5 2.5v0h1.104c1.508 0 2.73-1.222 2.73-2.73s-1.222-2.73-2.73-2.73v0h-0.833c-0.61 0-1.104-0.494-1.104-1.103v-0zM13 7.75c0 1.051-0.941 2.083-2.333 2.083-0.46 0-0.833 0.373-0.833 0.833s0.373 0.833 0.833 0.833v0c1.391 0 2.333 1.033 2.333 2.083s-0.941 2.083-2.333 2.083c-1.112 0-1.96-0.665-2.236-1.629-0.109-0.377-0.417-0.704-0.811-0.704-0.532 0-0.99 0.419-0.884 0.94 0.361 1.773 2.080 3.060 3.931 3.060 2.209 0 4-1.679 4-3.75 0-1.178-0.579-2.229-1.485-2.917 0.905-0.687 1.485-1.739 1.485-2.917 0-2.071-1.791-3.75-4-3.75-1.851 0-3.569 1.287-3.931 3.060-0.106 0.521 0.352 0.94 0.884 0.94 0.394 0 0.701-0.326 0.811-0.704 0.276-0.964 1.124-1.629 2.236-1.629 1.392 0 2.333 1.033 2.333 2.083z"></path>
</svg>
