<!-- Generated by IcoMoon.io -->
<svg version="1.1" xmlns="http://www.w3.org/2000/svg" width="32" height="32" viewBox="0 0 32 32">
<title>fps-960-regular</title>
<path d="M15.667 20c1.651 0.008 2.987 1.348 2.987 3 0 1.58-1.221 2.875-2.771 2.991l-0.010 0.001-0.205 0.007h-1v2.333c-0 0.504-0.373 0.921-0.859 0.99l-0.005 0.001-0.136 0.011c-0.504-0-0.921-0.373-0.99-0.859l-0.001-0.005-0.009-0.136v-7.333c0-0.504 0.373-0.921 0.859-0.99l0.005-0.001 0.136-0.009h2zM24 20c1.473 0 2.667 1.194 2.667 2.667v0c-0.001 0.552-0.448 0.998-1 0.998-0.504 0-0.921-0.373-0.99-0.858l-0.001-0.005-0.009-0.136c0-0 0-0 0-0 0-0.326-0.234-0.597-0.543-0.655l-0.004-0.001-0.12-0.009h-0.833c-0.459 0.001-0.832 0.374-0.832 0.833 0 0.416 0.305 0.761 0.704 0.823l0.005 0.001 0.123 0.009h0.667c0.003 0 0.006 0 0.009 0 1.565 0 2.833 1.269 2.833 2.833 0 1.497-1.16 2.722-2.63 2.826l-0.009 0-0.203 0.007h-0.833c-1.473 0-2.667-1.194-2.667-2.667v0c0-0.552 0.448-1 1-1 0.504 0 0.921 0.373 0.99 0.858l0.001 0.005 0.009 0.136c0 0 0 0 0 0 0 0.326 0.234 0.597 0.543 0.655l0.004 0.001 0.12 0.011h0.833c0.459-0.001 0.832-0.374 0.832-0.833 0-0.416-0.305-0.761-0.704-0.823l-0.005-0.001-0.123-0.009h-0.667c-1.561-0.006-2.823-1.272-2.823-2.833 0-1.49 1.15-2.711 2.611-2.825l0.010-0.001 0.203-0.008h0.833zM10.333 20c0.548 0.005 0.991 0.451 0.991 1 0 0.501-0.368 0.916-0.849 0.989l-0.006 0.001-0.136 0.009h-3v2.001l2.333 0.001c0.552 0 1 0.448 1 1 0 0.504-0.373 0.921-0.858 0.99l-0.005 0.001-0.136 0.009h-2.333v2.304c0 0 0 0.001 0 0.001 0 0.504-0.373 0.921-0.859 0.99l-0.005 0.001-0.136 0.008c-0.504-0-0.921-0.373-0.99-0.859l-0.001-0.005-0.009-0.135v-7.307c0-0 0-0.001 0-0.001 0-0.504 0.373-0.921 0.859-0.99l0.005-0.001 0.136-0.009h4zM15.667 22h-1v2h1c0.003 0 0.007 0 0.010 0 0.552 0 1-0.448 1-1 0-0.508-0.379-0.927-0.869-0.991l-0.005-0.001-0.136-0.009zM16 4c0 0 0.001 0 0.002 0 2.126 0 3.865 1.659 3.992 3.753l0.001 0.011 0.008 0.235v0.229c0 0.003 0 0.007 0 0.010 0 0.552-0.448 1-1 1-0.508 0-0.927-0.379-0.991-0.869l-0.001-0.005-0.008-0.136v-0.228l-0.009-0.193c-0.095-1.024-0.951-1.82-1.992-1.82s-1.898 0.797-1.992 1.815l-0.001 0.008-0.009 0.193v1.864c0.573-0.336 1.263-0.535 1.998-0.535 2.209 0 4 1.791 4 4s-1.791 4-4 4c-2.126 0-3.865-1.659-3.992-3.752l-0.001-0.011-0.005-0.237v-5.328c0-2.21 1.791-4.001 4-4.003h0zM6.667 4c0 0 0.001 0 0.002 0 2.127 0 3.866 1.659 3.993 3.754l0.001 0.011 0.005 0.236v5.329c0 0.009 0 0.021 0 0.032 0 2.209-1.791 4-4 4-2.137 0-3.883-1.676-3.994-3.786l-0-0.010-0.008-0.236v-0.227c-0-0.002-0-0.005-0-0.007 0-0.552 0.448-1 1-1 0.508 0 0.927 0.379 0.992 0.869l0.001 0.005 0.008 0.133v0.227c-0 0.010-0 0.022-0 0.034 0 1.105 0.895 2 2 2 1.048 0 1.908-0.807 1.993-1.833l0-0.007 0.009-0.193v-1.864c-0.573 0.335-1.261 0.533-1.996 0.533-2.209 0-4-1.791-4-4 0-2.208 1.788-3.997 3.995-4h0zM25.341 4c0 0 0 0 0 0 2.123 0 3.859 1.657 3.985 3.749l0.001 0.011 0.007 0.233v5.347c0 0 0 0.001 0 0.002 0 2.122-1.656 3.858-3.746 3.985l-0.011 0.001-0.235 0.005-0.251-0.007c-2.020-0.123-3.628-1.731-3.75-3.739l-0.001-0.011-0.007-0.235v-5.347c0-0 0-0 0-0 0-2.122 1.656-3.858 3.746-3.986l0.011-0.001 0.251-0.005zM16 11.332c-0 0-0.001 0-0.001 0-1.037 0-1.89 0.79-1.99 1.801l-0.001 0.008-0.008 0.192c0.056 1.061 0.93 1.899 2 1.899s1.944-0.839 2-1.894l0-0.005c0-1.105-0.895-2-2-2v0zM25.341 6.003h-0.016c-1.035 0-1.887 0.789-1.983 1.8l-0.009 0.192v5.347c0 1.036 0.791 1.887 1.8 1.983l0.192 0.009 0.208-0.009c0.948-0.095 1.696-0.842 1.79-1.782l0.001-0.008 0.009-0.192v-5.347c0-1.1-0.892-1.992-1.992-1.992zM6.667 6c-1.104 0.001-1.999 0.896-1.999 2s0.895 2 2 2c1.037 0 1.889-0.788 1.99-1.798l0.001-0.008 0.008-0.192c-0.001-1.105-0.896-2-2-2.001h-0z"></path>
</svg>
