<!-- Generated by IcoMoon.io -->
<svg version="1.1" xmlns="http://www.w3.org/2000/svg" width="32" height="32" viewBox="0 0 32 32">
<title>fps-60</title>
<path d="M15.667 20c1.657 0 3 1.343 3 3 0 1.588-1.234 2.887-2.795 2.993l-0.205 0.007h-1v2.333c0 0.506-0.376 0.925-0.864 0.991l-0.136 0.009c-0.506 0-0.925-0.376-0.991-0.864l-0.009-0.136v-7.333c0-0.506 0.376-0.925 0.864-0.991l0.136-0.009h2zM24 20c1.473 0 2.667 1.194 2.667 2.667 0 0.552-0.448 1-1 1-0.506 0-0.925-0.376-0.991-0.864l-0.009-0.136c0-0.327-0.236-0.599-0.547-0.656l-0.12-0.011h-0.833c-0.46 0-0.833 0.373-0.833 0.833 0 0.418 0.308 0.765 0.71 0.824l0.123 0.009h0.667c1.565 0 2.833 1.269 2.833 2.833 0 1.497-1.161 2.722-2.631 2.826l-0.202 0.007h-0.833c-1.473 0-2.667-1.194-2.667-2.667 0-0.552 0.448-1 1-1 0.506 0 0.925 0.376 0.991 0.864l0.009 0.136c0 0.327 0.236 0.599 0.547 0.656l0.12 0.011h0.833c0.46 0 0.833-0.373 0.833-0.833 0-0.418-0.308-0.765-0.71-0.824l-0.123-0.009h-0.667c-1.565 0-2.833-1.269-2.833-2.833 0-1.497 1.161-2.723 2.631-2.826l0.202-0.007h0.833zM10.333 20c0.552 0 1 0.448 1 1 0 0.506-0.376 0.925-0.864 0.991l-0.136 0.009-3-0.001v2.004l2.333 0.001c0.552 0 1 0.448 1 1 0 0.506-0.376 0.925-0.864 0.991l-0.136 0.009-2.333-0.001v2.305c0 0.506-0.376 0.925-0.864 0.991l-0.136 0.009c-0.506 0-0.925-0.376-0.991-0.864l-0.009-0.136v-7.308c0-0.506 0.376-0.925 0.864-0.991l0.136-0.009h4zM15.667 22h-1v2h1c0.552 0 1-0.448 1-1 0-0.506-0.376-0.925-0.864-0.991l-0.136-0.009zM10.667 4.001c2.13-0.001 3.872 1.664 3.995 3.764l0.007 0.235v0.23c0 0.552-0.448 1-1 1-0.506 0-0.925-0.376-0.991-0.864l-0.009-0.136v-0.228l-0.009-0.193c-0.097-1.014-0.952-1.807-1.991-1.807s-1.895 0.794-1.992 1.809l-0.009 0.193-0 1.864c0.588-0.34 1.272-0.535 2-0.535 2.21 0 4.001 1.791 4.001 4.001s-1.791 4.001-4.001 4.001c-2.131 0-3.873-1.666-3.994-3.766l-0.007-0.235 0.001-5.33c0-2.21 1.791-4.001 4.001-4.002zM20.008 4.002c2.126 0 3.864 1.662 3.986 3.758l0.007 0.235v5.346c0 2.126-1.662 3.864-3.758 3.986l-0.235 0.007-0.25-0.007c-2.018-0.117-3.634-1.733-3.751-3.751l-0.007-0.235v-5.346c0-2.126 1.662-3.864 3.758-3.986l0.25-0.007zM10.667 11.333c-1.040 0-1.895 0.794-1.992 1.808l-0.008 0.193c0.006 1.112 0.899 2.001 2 2.001 1.105 0 2.001-0.896 2.001-2.001s-0.896-2.001-2.001-2.001zM20.008 6.002h-0.015c-1.036 0-1.887 0.79-1.983 1.801l-0.009 0.192v5.346c0 1.036 0.79 1.887 1.801 1.983l0.192 0.009 0.207-0.009c0.947-0.090 1.701-0.844 1.791-1.791l0.009-0.192v-5.346c0-1.1-0.892-1.992-1.992-1.992z"></path>
</svg>
