<!-- Generated by IcoMoon.io -->
<svg version="1.1" xmlns="http://www.w3.org/2000/svg" width="32" height="32" viewBox="0 0 32 32">
<title>fps-120</title>
<path d="M7.995 5c-0.001-0.551-0.448-0.998-1-0.998-0.334 0-0.63 0.164-0.811 0.415l-0.002 0.003-0.003 0.003-0.013 0.016c-0.096 0.135-0.177 0.242-0.26 0.347l0.013-0.018c-0.172 0.221-0.419 0.528-0.713 0.863-0.607 0.689-1.356 1.427-2.053 1.845-0.288 0.179-0.477 0.494-0.477 0.852 0 0.552 0.448 1 1 1 0.187 0 0.361-0.051 0.511-0.14l-0.005 0.003c0.652-0.391 1.279-0.939 1.813-1.476v8.619c0 0.552 0.448 1 1 1s1-0.448 1-1v0-11.333zM12.651 7.181c-0.085 0.473-0.494 0.827-0.985 0.827-0.553 0-1-0.448-1-1 0-0.061 0.005-0.121 0.016-0.179l-0.001 0.006v-0.001l0.001-0.003v-0.007l0.004-0.013c0.011-0.062 0.023-0.113 0.036-0.162l-0.003 0.013c0.141-0.501 0.375-0.937 0.684-1.307l-0.005 0.006c0.612-0.733 1.647-1.36 3.268-1.36 2.209 0 4 1.791 4 4v0c0 1.363-0.481 2.368-1.2 3.152-0.633 0.691-1.451 1.203-2.14 1.635l-0.128 0.080c-0.765 0.48-1.384 0.888-1.832 1.416-0.245 0.289-0.447 0.625-0.569 1.051h4.869c0.552 0 1 0.448 1 1s-0.448 1-1 1v0h-6c-0.552 0-1-0.448-1-1v0c0-1.433 0.463-2.504 1.175-3.345 0.677-0.797 1.56-1.355 2.293-1.816l0.039-0.024c0.767-0.48 1.373-0.861 1.819-1.347 0.407-0.444 0.675-0.977 0.675-1.801 0-1.105-0.895-2-2-2v0c-1.045 0-1.511 0.373-1.732 0.64-0.123 0.149-0.219 0.325-0.277 0.517l-0.003 0.011-0.004 0.013zM23.992 4.003c-2.205 0-3.992 1.787-3.992 3.992v0 5.347c0 2.205 1.787 3.992 3.992 3.992v0h0.016c2.205 0 3.992-1.787 3.992-3.992v0-5.347c0-2.205-1.787-3.992-3.992-3.992v0h-0.016zM22 7.995c0-1.1 0.892-1.992 1.992-1.992h0.016c1.1 0 1.992 0.892 1.992 1.992v5.347c0 1.1-0.892 1.992-1.992 1.992h-0.016c-1.1 0-1.992-0.892-1.992-1.992v0-5.347zM5.333 21c0-0.552 0.448-1 1-1v0h4c0.552 0 1 0.448 1 1s-0.448 1-1 1v0h-3v2.004h2.333c0.552 0 1 0.448 1 1s-0.448 1-1 1v0h-2.333v2.304c0 0.552-0.448 1-1 1s-1-0.448-1-1v0-7.308zM13.667 20c-0.552 0-1 0.448-1 1v0 7.333c0 0.552 0.448 1 1 1s1-0.448 1-1v0-2.333h1c1.657 0 3-1.343 3-3s-1.343-3-3-3v0h-2zM15.667 24h-1v-2h1c0.552 0 1 0.448 1 1s-0.448 1-1 1v0zM20.333 22.833c0-1.565 1.268-2.833 2.833-2.833h0.833c1.473 0 2.667 1.194 2.667 2.667v0c0 0.552-0.448 1-1 1s-1-0.448-1-1v0c0-0.368-0.298-0.667-0.667-0.667v0h-0.833c-0.46 0-0.833 0.373-0.833 0.833s0.373 0.833 0.833 0.833v0h0.667c1.565 0 2.833 1.269 2.833 2.833s-1.269 2.833-2.833 2.833v0h-0.833c-1.473 0-2.667-1.194-2.667-2.667v0c0-0.552 0.448-1 1-1s1 0.448 1 1v0c0 0.368 0.298 0.667 0.667 0.667v0h0.833c0.46 0 0.833-0.373 0.833-0.833s-0.373-0.833-0.833-0.833v0h-0.667c-1.565 0-2.833-1.269-2.833-2.833v0z"></path>
</svg>
