<!-- Generated by IcoMoon.io -->
<svg version="1.1" xmlns="http://www.w3.org/2000/svg" width="32" height="32" viewBox="0 0 32 32">
<title>fps-60-regular</title>
<path d="M16 8c0-2.209 1.791-4 4-4s4 1.791 4 4v0 5.333c0 2.209-1.791 4-4 4s-4-1.791-4-4v0-5.333zM22.333 8c0-1.289-1.045-2.333-2.333-2.333s-2.333 1.045-2.333 2.333v0 5.333c0 1.289 1.045 2.333 2.333 2.333s2.333-1.045 2.333-2.333v0-5.333zM6.678 13.639c0.164 2.074 1.887 3.695 3.988 3.695 2.209 0 4-1.791 4-4s-1.791-4-4-4c-0.876 0-1.686 0.281-2.345 0.759l0.012-0.008v-2.084c0-1.289 1.045-2.333 2.333-2.333s2.333 1.045 2.333 2.333v0c0 0.46 0.373 0.833 0.833 0.833s0.833-0.373 0.833-0.833v0c0-2.209-1.791-4-4-4s-4 1.791-4 4v0 5.5c0 0.047 0.004 0.093 0.011 0.139zM10.667 15.667c-1.289 0-2.333-1.045-2.333-2.333s1.045-2.333 2.333-2.333v0c1.289 0 2.333 1.045 2.333 2.333s-1.045 2.333-2.333 2.333v0zM6.167 20c-0.46 0-0.833 0.373-0.833 0.833v7.693c0 0.46 0.373 0.833 0.833 0.833s0.833-0.373 0.833-0.833v0-2.86h2.833c0.46 0 0.833-0.373 0.833-0.833s-0.373-0.833-0.833-0.833v0h-2.833v-2.333h3.504c0.46 0 0.833-0.373 0.833-0.833s-0.373-0.833-0.833-0.833v0h-4.337zM13.833 20c-0.46 0-0.833 0.373-0.833 0.833v7.693c0 0.46 0.373 0.833 0.833 0.833s0.833-0.373 0.833-0.833v0-2.86h1.5c1.565 0 2.833-1.269 2.833-2.833s-1.269-2.833-2.833-2.833v0h-2.333zM16.167 24h-1.5v-2.333h1.5c0.644 0 1.167 0.522 1.167 1.167s-0.522 1.167-1.167 1.167v0zM22 22.771c0-0.61 0.494-1.104 1.104-1.104h1.063c0.46 0 0.833 0.373 0.833 0.833s0.373 0.833 0.833 0.833 0.833-0.373 0.833-0.833v0c0-1.381-1.119-2.5-2.5-2.5v0h-1.063c-0.013-0-0.028-0-0.043-0-1.53 0-2.771 1.24-2.771 2.771s1.24 2.771 2.771 2.771c0.015 0 0.030-0 0.045-0l-0.002 0h0.833c0.576 0.015 1.037 0.485 1.037 1.063s-0.461 1.048-1.035 1.063l-0.001 0h-1.104c-0.46 0-0.833-0.373-0.833-0.833s-0.373-0.833-0.833-0.833-0.833 0.373-0.833 0.833v0c0 1.381 1.119 2.5 2.5 2.5v0h1.104c1.508 0 2.73-1.222 2.73-2.73s-1.222-2.73-2.73-2.73v0h-0.833c-0.61 0-1.104-0.494-1.104-1.103v-0z"></path>
</svg>
