<!-- Generated by IcoMoon.io -->
<svg version="1.1" xmlns="http://www.w3.org/2000/svg" width="32" height="32" viewBox="0 0 32 32">
<title>full-screen-maximize</title>
<path d="M6 7.667c0-0.92 0.746-1.667 1.667-1.667h2.667c0.552 0 1-0.448 1-1s-0.448-1-1-1h-2.667c-2.025 0-3.667 1.642-3.667 3.667v2.667c0 0.552 0.448 1 1 1s1-0.448 1-1v-2.667z"></path>
<path d="M6 24.333c0 0.921 0.746 1.667 1.667 1.667h2.667c0.552 0 1 0.448 1 1s-0.448 1-1 1h-2.667c-2.025 0-3.667-1.642-3.667-3.667v-2.667c0-0.552 0.448-1 1-1s1 0.448 1 1v2.667z"></path>
<path d="M24.333 6c0.921 0 1.667 0.746 1.667 1.667v2.667c0 0.552 0.448 1 1 1s1-0.448 1-1v-2.667c0-2.025-1.642-3.667-3.667-3.667h-2.667c-0.552 0-1 0.448-1 1s0.448 1 1 1h2.667z"></path>
<path d="M26 24.333c0 0.921-0.746 1.667-1.667 1.667h-2.667c-0.552 0-1 0.448-1 1s0.448 1 1 1h2.667c2.025 0 3.667-1.642 3.667-3.667v-2.667c0-0.552-0.448-1-1-1s-1 0.448-1 1v2.667z"></path>
</svg>
