<!-- Generated by IcoMoon.io -->
<svg version="1.1" xmlns="http://www.w3.org/2000/svg" width="32" height="32" viewBox="0 0 32 32">
<title>full-screen-maximize-regular</title>
<path d="M6 7.667c0-0.92 0.747-1.667 1.667-1.667h2.667c0.552 0 1-0.448 1-1s-0.448-1-1-1v0h-2.667c-2.025 0-3.667 1.642-3.667 3.667v0 2.667c0 0.552 0.448 1 1 1s1-0.448 1-1v0-2.667zM6 24.333c0 0.92 0.747 1.667 1.667 1.667h2.667c0.552 0 1 0.448 1 1s-0.448 1-1 1v0h-2.667c-2.025 0-3.667-1.642-3.667-3.667v0-2.667c0-0.552 0.448-1 1-1s1 0.448 1 1v0 2.667zM24.333 6c0.92 0 1.667 0.747 1.667 1.667v2.667c0 0.552 0.448 1 1 1s1-0.448 1-1v0-2.667c0-2.025-1.642-3.667-3.667-3.667v0h-2.667c-0.552 0-1 0.448-1 1s0.448 1 1 1v0h2.667zM26 24.333c0 0.92-0.747 1.667-1.667 1.667h-2.667c-0.552 0-1 0.448-1 1s0.448 1 1 1v0h2.667c2.025 0 3.667-1.642 3.667-3.667v0-2.667c0-0.552-0.448-1-1-1s-1 0.448-1 1v0 2.667z"></path>
</svg>
