<!-- Generated by IcoMoon.io -->
<svg version="1.1" xmlns="http://www.w3.org/2000/svg" width="32" height="32" viewBox="0 0 32 32">
<title>full-screen-minimize-regular</title>
<path d="M11.333 5c0-0.552-0.448-1-1-1s-1 0.448-1 1v0 3.333c0 0.552-0.448 1-1 1v0h-3.333c-0.552 0-1 0.448-1 1s0.448 1 1 1v0h3.333c1.657 0 3-1.343 3-3v0-3.333zM11.333 27c0 0.552-0.448 1-1 1s-1-0.448-1-1v0-3.333c0-0.552-0.448-1-1-1v0h-3.333c-0.552 0-1-0.448-1-1s0.448-1 1-1v0h3.333c1.657 0 3 1.343 3 3v0 3.333zM21.667 4c-0.552 0-1 0.448-1 1v0 3.333c0 1.657 1.343 3 3 3v0h3.333c0.552 0 1-0.448 1-1s-0.448-1-1-1v0h-3.333c-0.552 0-1-0.448-1-1v0-3.333c0-0.552-0.448-1-1-1v0zM20.667 27c0 0.552 0.448 1 1 1s1-0.448 1-1v0-3.333c0-0.552 0.448-1 1-1v0h3.333c0.552 0 1-0.448 1-1s-0.448-1-1-1v0h-3.333c-1.657 0-3 1.343-3 3v0 3.333z"></path>
</svg>
