<!-- Generated by IcoMoon.io -->
<svg version="1.1" xmlns="http://www.w3.org/2000/svg" width="32" height="32" viewBox="0 0 32 32">
<title>games</title>
<path d="M10.833 12c0.46 0 0.833 0.373 0.833 0.833v2.5h2.167c0.46 0 0.833 0.373 0.833 0.833s-0.373 0.833-0.833 0.833v0h-2.167v2.167c0 0.46-0.373 0.833-0.833 0.833s-0.833-0.373-0.833-0.833v0-2.167h-2.5c-0.46 0-0.833-0.373-0.833-0.833s0.373-0.833 0.833-0.833v0h2.5v-2.5c0-0.46 0.373-0.833 0.833-0.833zM21.333 18.333c0 0.92-0.746 1.667-1.667 1.667s-1.667-0.746-1.667-1.667v0c0-0.92 0.746-1.667 1.667-1.667s1.667 0.746 1.667 1.667v0zM22.333 15.333c0.92 0 1.667-0.746 1.667-1.667s-0.746-1.667-1.667-1.667v0c-0.92 0-1.667 0.746-1.667 1.667s0.746 1.667 1.667 1.667v0zM2.667 16c0-5.155 4.179-9.333 9.333-9.333h8c5.155 0 9.333 4.179 9.333 9.333s-4.179 9.333-9.333 9.333h-8c-5.155 0-9.333-4.179-9.333-9.333zM12 8.333c-4.234 0-7.667 3.433-7.667 7.667s3.433 7.667 7.667 7.667h8c4.234 0 7.667-3.433 7.667-7.667s-3.433-7.667-7.667-7.667h-8z"></path>
</svg>
