<!-- Generated by IcoMoon.io -->
<svg version="1.1" xmlns="http://www.w3.org/2000/svg" width="32" height="32" viewBox="0 0 32 32">
<title>games</title>
<path d="M19.997 6.667c5.155 0 9.333 4.179 9.333 9.333 0 5.047-4.006 9.159-9.013 9.328l-0.321 0.005h-7.994c-5.155 0-9.333-4.179-9.333-9.333 0-5.047 4.006-9.159 9.012-9.328l0.321-0.005h7.994zM19.997 8.667h-7.994c-4.050 0-7.333 3.283-7.333 7.333 0 3.951 3.125 7.173 7.038 7.327l0.295 0.006h7.994c4.050 0 7.333-3.283 7.333-7.333 0-3.951-3.125-7.173-7.038-7.328l-0.295-0.006zM10.667 12c0.552 0 1 0.448 1 1l-0.001 1.997 2.001 0.001c0.552 0 1 0.448 1 1s-0.448 1-1 1l-2.001-0.001 0.001 2.003c0 0.552-0.448 1-1 1s-1-0.448-1-1l-0.001-2.003-1.999 0.001c-0.552 0-1-0.448-1-1s0.448-1 1-1l1.999-0.001 0.001-1.997c0-0.552 0.448-1 1-1zM19.667 16.667c0.92 0 1.667 0.746 1.667 1.667s-0.746 1.667-1.667 1.667c-0.921 0-1.667-0.746-1.667-1.667s0.746-1.667 1.667-1.667zM22.333 12c0.92 0 1.667 0.746 1.667 1.667s-0.746 1.667-1.667 1.667c-0.921 0-1.667-0.746-1.667-1.667s0.746-1.667 1.667-1.667z"></path>
</svg>
