<!-- Generated by IcoMoon.io -->
<svg version="1.1" xmlns="http://www.w3.org/2000/svg" width="32" height="32" viewBox="0 0 32 32">
<title>gas-regular</title>
<path d="M10.96 13.627c0.181-0.181 0.431-0.292 0.707-0.292s0.526 0.112 0.707 0.292v0l3.627 3.627 3.627-3.627c0.183-0.196 0.443-0.318 0.732-0.318 0.552 0 1 0.448 1 1 0 0.289-0.122 0.549-0.318 0.731l-0.001 0.001-3.627 3.627 0.627 0.625 3.001 3.001c0.188 0.182 0.305 0.437 0.305 0.719 0 0.552-0.448 1-1 1-0.282 0-0.538-0.117-0.719-0.305l-0-0-0.333-0.332-3.293-3.293-3.627 3.627c-0.18 0.174-0.425 0.28-0.694 0.28-0.552 0-1-0.448-1-1 0-0.27 0.107-0.515 0.281-0.695l-0 0 3.627-3.627-3.627-3.627c-0.181-0.181-0.292-0.431-0.292-0.707s0.112-0.526 0.292-0.707v0zM18.333 2.667c-0 0-0 0-0.001 0-0.33 0-0.622 0.159-0.804 0.405l-0.002 0.003-3.611 4.925h-1.916v-0.333c0-2.393-1.94-4.333-4.333-4.333v0h-1.333c-0.552 0-1 0.448-1 1s0.448 1 1 1v0h1.333c1.288 0 2.333 1.045 2.333 2.333v0.333h-1c-2.025 0-3.667 1.642-3.667 3.667v0 14c0 2.025 1.642 3.667 3.667 3.667v0h14c2.025 0 3.667-1.642 3.667-3.667v0-14c0-1.144-0.524-2.167-1.347-2.84 0.009-0.047 0.013-0.1 0.013-0.155 0-0.002 0-0.004-0-0.005v0-5c0-0.552-0.448-1-1-1v0h-6zM23.333 8.015c-0.099-0.009-0.214-0.015-0.33-0.015-0.001 0-0.003 0-0.004 0h-6.604l2.444-3.333h4.493v3.348zM9 10h14c0.92 0 1.667 0.747 1.667 1.667v14c0 0.92-0.747 1.667-1.667 1.667h-14c-0.92 0-1.667-0.747-1.667-1.667v-14c0-0.92 0.747-1.667 1.667-1.667z"></path>
</svg>
