<!-- Generated by IcoMoon.io -->
<svg version="1.1" xmlns="http://www.w3.org/2000/svg" width="32" height="32" viewBox="0 0 32 32">
<title>gas</title>
<path d="M10.96 13.626c0.391-0.391 1.024-0.391 1.414 0l3.626 3.626 3.626-3.626c0.391-0.391 1.024-0.391 1.414 0s0.391 1.024 0 1.414l-3.626 3.626 0.625 0.625c-0-0 0 0 0 0l2.667 2.668c0.001 0 0.001 0.001 0.001 0.001l0.332 0.332c0.391 0.391 0.391 1.024 0 1.414s-1.024 0.391-1.414 0l-0.332-0.332c-0-0-0.001-0.001-0.001-0.001l-2.667-2.667c0 0-0-0 0 0l-0.626-0.626-3.626 3.626c-0.391 0.391-1.024 0.391-1.414 0s-0.391-1.024 0-1.414l3.626-3.626-3.626-3.626c-0.391-0.391-0.391-1.024 0-1.414zM18.333 2.667c-0.319 0-0.618 0.152-0.807 0.409l-3.611 4.925h-1.916v-0.333c0-2.393-1.94-4.333-4.333-4.333h-1.333c-0.552 0-1 0.448-1 1s0.448 1 1 1h1.333c1.289 0 2.333 1.045 2.333 2.333v0.333h-1c-2.025 0-3.667 1.642-3.667 3.667v14c0 2.025 1.642 3.667 3.667 3.667h14c2.025 0 3.667-1.642 3.667-3.667v-14c0-1.145-0.524-2.167-1.346-2.839 0.008-0.052 0.013-0.106 0.013-0.161v-5c0-0.552-0.448-1-1-1h-6zM23.333 8.015c-0.11-0.010-0.221-0.015-0.333-0.015h-6.604l2.444-3.333h4.493v3.348zM9 10h14c0.921 0 1.667 0.746 1.667 1.667v14c0 0.921-0.746 1.667-1.667 1.667h-14c-0.92 0-1.667-0.746-1.667-1.667v-14c0-0.92 0.746-1.667 1.667-1.667z"></path>
</svg>
