<!-- Generated by IcoMoon.io -->
<svg version="1.1" xmlns="http://www.w3.org/2000/svg" width="32" height="32" viewBox="0 0 32 32">
<title>gather</title>
<path d="M9.6 24v-16c0-1.767-1.433-3.2-3.2-3.2v0h-2.4c-0.442 0-0.8 0.358-0.8 0.8s0.358 0.8 0.8 0.8v0h2.4c0.884 0 1.6 0.716 1.6 1.6v0 3.2h-4c-0.442 0-0.8 0.358-0.8 0.8s0.358 0.8 0.8 0.8v0h4v6.4h-4c-0.442 0-0.8 0.358-0.8 0.8s0.358 0.8 0.8 0.8v0h4v3.2c0 0.884-0.716 1.6-1.6 1.6v0h-2.4c-0.442 0-0.8 0.358-0.8 0.8s0.358 0.8 0.8 0.8v0h2.4c1.767 0 3.2-1.433 3.2-3.2v0zM28.566 17.366c-0.145 0.144-0.344 0.234-0.565 0.234-0 0-0.001 0-0.002 0h-4v3.2c0 0.884 0.716 1.6 1.6 1.6v0h2.4c0.442 0 0.8 0.358 0.8 0.8s-0.358 0.8-0.8 0.8v0h-2.4c-1.767 0-3.2-1.433-3.2-3.2v0-8c0-1.767 1.433-3.2 3.2-3.2v0h2.4c0.442 0 0.8 0.358 0.8 0.8s-0.358 0.8-0.8 0.8v0h-2.4c-0.884 0-1.6 0.716-1.6 1.6v0 3.2h4c0 0 0.001 0 0.001 0 0.442 0 0.8 0.358 0.8 0.8 0 0.221-0.090 0.422-0.235 0.566h-0zM15.998 18.4c0-0.221 0.090-0.422 0.235-0.566l0-0 1.035-1.034h-4.469c-0.442 0-0.8-0.358-0.8-0.8s0.358-0.8 0.8-0.8v0h4.469l-1.035-1.034c-0.145-0.145-0.235-0.345-0.235-0.566 0-0.442 0.359-0.801 0.801-0.801 0.221 0 0.421 0.090 0.566 0.235v0l2.4 2.4c0.145 0.145 0.235 0.345 0.235 0.566s-0.090 0.422-0.235 0.566l-2.4 2.4c-0.145 0.146-0.346 0.237-0.568 0.237-0.442 0-0.8-0.358-0.8-0.8 0-0.001 0-0.002 0-0.003v0z"></path>
</svg>
