<!-- Generated by IcoMoon.io -->
<svg version="1.1" xmlns="http://www.w3.org/2000/svg" width="32" height="32" viewBox="0 0 32 32">
<title>gauge-regular</title>
<path d="M22.962 21.869c0.147 0.089 0.324 0.142 0.514 0.142 0.344 0 0.648-0.174 0.828-0.439l0.002-0.003c1.061-1.564 1.693-3.494 1.693-5.571 0-1.879-0.518-3.637-1.419-5.14l0.025 0.045c-0.177-0.295-0.496-0.49-0.86-0.49-0.552 0-1 0.448-1 1 0 0.188 0.052 0.365 0.143 0.515l-0.003-0.005c0.7 1.165 1.114 2.571 1.114 4.073 0 1.661-0.506 3.204-1.372 4.483l0.018-0.028c-0.107 0.157-0.17 0.35-0.17 0.558 0 0.363 0.193 0.68 0.482 0.855l0.004 0.003zM8.538 22.032c-0 0-0.001 0-0.002 0-0.343 0-0.646-0.173-0.826-0.437l-0.002-0.003c-1.072-1.569-1.711-3.507-1.711-5.594 0-5.523 4.477-10 10-10 0.69 0 1.365 0.070 2.016 0.203l-0.064-0.011c0.47 0.088 0.82 0.495 0.82 0.984 0 0.552-0.448 1-1 1-0.073 0-0.145-0.008-0.214-0.023l0.007 0.001c-0.467-0.097-1.003-0.152-1.553-0.152-4.42 0-8.003 3.581-8.008 8v0c0 0.005 0 0.010 0 0.015 0 1.664 0.511 3.208 1.384 4.485l-0.018-0.027c0.107 0.157 0.171 0.35 0.171 0.559 0 0.552-0.447 0.999-0.999 1h-0zM21.518 7.876c-0.005-0-0.011-0-0.017-0-0.193 0-0.371 0.067-0.511 0.178l0.002-0.001-1.056 0.842c-0.638 0.507-1.494 1.192-2.368 1.9s-1.77 1.437-2.485 2.037c-0.357 0.3-0.673 0.568-0.92 0.786-0.202 0.173-0.386 0.349-0.559 0.534l-0.004 0.004c-0.363 0.426-0.584 0.983-0.584 1.592 0 1.36 1.103 2.463 2.463 2.463 0.744 0 1.411-0.33 1.863-0.852l0.003-0.003c0.147-0.185 0.293-0.394 0.427-0.611l0.016-0.029c0.176-0.278 0.393-0.632 0.632-1.032 0.48-0.8 1.061-1.798 1.623-2.773s1.108-1.927 1.508-2.636l0.484-0.853 0.182-0.322c0.067-0.116 0.107-0.256 0.107-0.404 0-0.448-0.359-0.812-0.806-0.82h-0.001zM16 2c-7.732 0-14 6.268-14 14s6.268 14 14 14 14-6.268 14-14-6.268-14-14-14zM4 16c0-6.627 5.373-12 12-12s12 5.373 12 12-5.373 12-12 12-12-5.373-12-12z"></path>
</svg>
