<!-- Generated by IcoMoon.io -->
<svg version="1.1" xmlns="http://www.w3.org/2000/svg" width="32" height="32" viewBox="0 0 32 32">
<title>gavel-regular</title>
<path d="M18.778 3.628c-0.641-0.911-1.687-1.499-2.871-1.499-0.966 0-1.841 0.392-2.475 1.025l-4.125 4.126c-0.633 0.633-1.025 1.508-1.025 2.474 0 1.268 0.674 2.379 1.684 2.993l0.015 0.009 2.955 1.773-9.947 9.766c-0.612 0.607-0.991 1.448-0.991 2.377 0 1.848 1.498 3.346 3.346 3.346 0.919 0 1.751-0.37 2.355-0.969l9.852-9.852 1.744 2.907c0.623 1.025 1.733 1.699 3.001 1.699 0.929 0 1.774-0.362 2.401-0.953l-0.002 0.002 4.086-3.846c0.679-0.64 1.101-1.545 1.101-2.549 0-1.135-0.54-2.144-1.378-2.783l-0.008-0.006-5.64-4.273c-0.084-0.064-0.156-0.138-0.215-0.222l-0.002-0.003-3.862-5.541zM14.846 4.568c0.271-0.271 0.646-0.439 1.060-0.439 0.507 0 0.956 0.252 1.227 0.637l0.003 0.005 0.69 0.989-5.857 5.856-0.96-0.576c-0.439-0.267-0.728-0.743-0.728-1.286 0-0.414 0.168-0.79 0.44-1.061v0l4.124-4.125zM13.738 12.676l5.25-5.25 2.011 2.886c0.183 0.261 0.398 0.484 0.643 0.671l0.007 0.005 2.531 1.918-5.044 5.043-1.52-2.535c-0.258-0.425-0.605-0.771-1.017-1.021l-0.013-0.008-2.848-1.709zM20.197 19.717l5.592-5.592 1.5 1.136c0.363 0.277 0.594 0.709 0.594 1.196 0 0.43-0.181 0.818-0.471 1.092l-0.001 0.001-4.086 3.845c-0.268 0.253-0.63 0.408-1.028 0.408-0.543 0-1.019-0.289-1.282-0.721l-0.004-0.007-0.814-1.357zM16.491 17.428l-10.205 10.206c-0.243 0.241-0.578 0.39-0.947 0.39-0.744 0-1.346-0.603-1.346-1.346 0-0.374 0.152-0.712 0.399-0.956l0-0 10.318-10.13 0.848 0.51c0.14 0.084 0.259 0.201 0.343 0.342l0.591 0.985zM19 26c-0.552 0-1 0.448-1 1s0.448 1 1 1v0h-2c-0.552 0-1 0.448-1 1s0.448 1 1 1v0h11.333c0.552 0 1-0.448 1-1s-0.448-1-1-1v0h-2.333c0.552 0 1-0.448 1-1s-0.448-1-1-1v0h-7z"></path>
</svg>
