<!-- Generated by IcoMoon.io -->
<svg version="1.1" xmlns="http://www.w3.org/2000/svg" width="32" height="32" viewBox="0 0 32 32">
<title>gesture</title>
<path d="M5 23.333c0.552 0 1 0.448 1 1s-0.448 1-1 1v0c-0.552 0-1-0.448-1-1s0.448-1 1-1v0zM8.999 5.34h14.007c0.552 0.001 0.998 0.448 0.998 1 0 0.504-0.373 0.921-0.858 0.99l-0.005 0.001-0.136 0.009h-8.669l13.031 5.060c0.377 0.149 0.639 0.51 0.639 0.932 0 0.337-0.167 0.635-0.422 0.816l-0.003 0.002-0.127 0.076-19.319 9.677c-0.132 0.069-0.288 0.109-0.454 0.109-0.552 0-1-0.448-1-1 0-0.344 0.173-0.647 0.438-0.827l0.003-0.002 0.117-0.068 17.301-8.667-15.903-6.177c-0.987-0.384-0.767-1.801 0.223-1.924l0.139-0.008zM26.333 5.333c0.552 0 1 0.448 1 1s-0.448 1-1 1v0c-0.552 0-1-0.448-1-1s0.448-1 1-1v0z"></path>
</svg>
