<!-- Generated by IcoMoon.io -->
<svg version="1.1" xmlns="http://www.w3.org/2000/svg" width="32" height="32" viewBox="0 0 32 32">
<title>gesture</title>
<path d="M5 23.333c0.552 0 1 0.448 1 1s-0.448 1-1 1c-0.552 0-1-0.448-1-1s0.448-1 1-1zM8.998 5.34h14.007c0.552 0 1 0.448 1 1 0 0.506-0.376 0.925-0.864 0.991l-0.136 0.009h-8.67l13.031 5.062c0.761 0.296 0.852 1.308 0.214 1.75l-0.128 0.076-19.317 9.676c-0.494 0.247-1.095 0.048-1.342-0.446-0.227-0.453-0.078-0.995 0.329-1.273l0.117-0.069 17.301-8.667-15.904-6.177c-0.987-0.383-0.767-1.801 0.222-1.924l0.14-0.008zM26.333 5.333c0.552 0 1 0.448 1 1s-0.448 1-1 1c-0.552 0-1-0.448-1-1s0.448-1 1-1z"></path>
</svg>
