<!-- Generated by IcoMoon.io -->
<svg version="1.1" xmlns="http://www.w3.org/2000/svg" width="32" height="32" viewBox="0 0 32 32">
<title>gif</title>
<path d="M25 4.668c2.393 0 4.333 1.94 4.333 4.333v14.003c0 2.393-1.94 4.333-4.333 4.333h-18c-2.393 0-4.333-1.94-4.333-4.333v-14.004c0-2.393 1.94-4.333 4.333-4.333h18zM25 6.668h-18c-1.289 0-2.333 1.045-2.333 2.333v14.003c0 1.289 1.045 2.333 2.333 2.333h18c1.289 0 2.333-1.045 2.333-2.333v-14.004c0-1.289-1.045-2.333-2.333-2.333zM10.686 11.83c0.796 0 1.359 0.108 2.003 0.418 0.415 0.199 0.59 0.697 0.39 1.112s-0.697 0.59-1.112 0.391c-0.4-0.192-0.72-0.254-1.281-0.254-1.156 0-2.005 1.062-2.005 2.496 0 1.436 0.85 2.501 2.005 2.501 0.572 0 1.055-0.24 1.307-0.668l0.008-0.020v-0.979l-0.501 0.001c-0.418 0-0.765-0.308-0.824-0.71l-0.009-0.123c0-0.418 0.308-0.765 0.71-0.824l0.123-0.009h1.335c0.418 0 0.765 0.308 0.824 0.71l0.009 0.123-0.002 2.064-0.009 0.074-0.028 0.12-0.027 0.073c-0.502 1.187-1.655 1.835-2.917 1.835-2.168 0-3.671-1.884-3.671-4.168s1.503-4.163 3.671-4.163zM16.839 11.992c0.418 0 0.765 0.308 0.824 0.71l0.009 0.123v6.35c0 0.46-0.373 0.833-0.833 0.833-0.418 0-0.765-0.308-0.824-0.71l-0.009-0.123v-6.349c0-0.46 0.373-0.833 0.833-0.833zM20.833 11.992l2.663 0.009c0.46 0.002 0.832 0.376 0.83 0.836-0.001 0.418-0.311 0.764-0.713 0.822l-0.123 0.009-1.828-0.007v2.339l1.497 0.001c0.418 0 0.765 0.308 0.824 0.71l0.009 0.123c0 0.418-0.308 0.765-0.71 0.824l-0.123 0.009-1.497-0.001 0.001 1.487c0 0.418-0.308 0.765-0.71 0.824l-0.123 0.009c-0.418 0-0.765-0.308-0.824-0.71l-0.009-0.123v-6.331c0.001-0.418 0.311-0.764 0.713-0.822l0.123-0.009z"></path>
</svg>
