<!-- Generated by IcoMoon.io -->
<svg version="1.1" xmlns="http://www.w3.org/2000/svg" width="32" height="32" viewBox="0 0 32 32">
<title>gif</title>
<path d="M25 4.668c2.393 0 4.333 1.94 4.333 4.333v14.004c0 2.393-1.94 4.333-4.333 4.333v0h-18c-2.393 0-4.333-1.94-4.333-4.333v0-14.005c0-2.393 1.94-4.333 4.333-4.333v0h18zM25 6.668h-18c-1.289 0-2.333 1.045-2.333 2.333v0 14.004c0 1.288 1.045 2.333 2.333 2.333h18c1.289 0 2.333-1.045 2.333-2.333v0-14.005c0-1.289-1.045-2.333-2.333-2.333v0zM10.687 11.829c0.795 0 1.359 0.109 2.003 0.419 0.282 0.138 0.473 0.422 0.473 0.751 0 0.46-0.373 0.833-0.833 0.833-0.131 0-0.255-0.030-0.366-0.084l0.005 0.002c-0.4-0.192-0.72-0.253-1.281-0.253-1.156 0-2.005 1.061-2.005 2.496 0 1.436 0.851 2.501 2.005 2.501 0.571 0 1.055-0.24 1.307-0.668l0.007-0.020v-0.979h-0.501c-0.416-0-0.762-0.306-0.823-0.705l-0.001-0.005-0.008-0.123c0-0.419 0.308-0.765 0.711-0.825l0.123-0.008h1.336c0.419 0 0.764 0.307 0.824 0.709l0.009 0.124-0.003 2.063-0.008 0.075-0.028 0.12-0.027 0.073c-0.503 1.187-1.655 1.835-2.917 1.835-2.168 0-3.672-1.884-3.672-4.168s1.503-4.164 3.672-4.164zM16.839 11.992c0.419 0 0.765 0.309 0.824 0.711l0.009 0.123v6.351c-0.001 0.459-0.374 0.832-0.833 0.832-0.416 0-0.761-0.305-0.823-0.704l-0.001-0.005-0.009-0.123v-6.351c0-0.46 0.373-0.833 0.833-0.833zM20.833 11.992l2.663 0.009c0.001 0 0.001 0 0.002 0 0.46 0 0.833 0.373 0.833 0.833 0 0.42-0.31 0.767-0.714 0.825l-0.004 0.001-0.123 0.008-1.828-0.007v2.339h1.497c0.419 0 0.765 0.309 0.824 0.712l0.009 0.123c-0 0.417-0.306 0.762-0.706 0.823l-0.005 0.001-0.123 0.009-1.497-0.001v1.487c0 0 0 0.001 0 0.001 0 0.416-0.306 0.762-0.705 0.823l-0.005 0.001-0.123 0.008c-0 0-0.001 0-0.001 0-0.416 0-0.762-0.306-0.823-0.705l-0.001-0.005-0.008-0.124v-6.331c0.002-0.416 0.308-0.76 0.707-0.821l0.005-0.001 0.124-0.009z"></path>
</svg>
