<!-- Generated by IcoMoon.io -->
<svg version="1.1" xmlns="http://www.w3.org/2000/svg" width="32" height="32" viewBox="0 0 32 32">
<title>gift-card-multiple-regular</title>
<path d="M6.667 5.333c-2.209 0-4 1.791-4 4v0 10c0 2.209 1.791 4 4 4v0h15.333c2.209 0 4-1.791 4-4v0-10c0-2.209-1.791-4-4-4v0h-15.333zM4.667 9.333c0-1.105 0.895-2 2-2v0h4v1.611c-0.393-0.176-0.852-0.279-1.335-0.279-1.841 0-3.333 1.492-3.333 3.333 0 0.483 0.103 0.942 0.287 1.356l-0.008-0.021h-1.611v-4zM12.667 8.944v-1.611h9.333c1.105 0 2 0.895 2 2v0 4h-6.944c0.176-0.393 0.279-0.852 0.279-1.335 0-1.841-1.492-3.333-3.333-3.333-0.483 0-0.942 0.103-1.356 0.287l0.021-0.008zM14.080 15.333h9.92v4c0 1.105-0.895 2-2 2v0h-9.333v-4.587l2.293 2.293c0.183 0.196 0.443 0.318 0.732 0.318 0.552 0 1-0.448 1-1 0-0.289-0.122-0.549-0.318-0.731l-0.001-0.001-2.293-2.293zM10.667 16.747v4.587h-4c-1.105 0-2-0.895-2-2v0-4h4.587l-2.293 2.293c-0.196 0.183-0.318 0.443-0.318 0.732 0 0.552 0.448 1 1 1 0.289 0 0.549-0.122 0.731-0.318l0.001-0.001 2.293-2.293zM15.333 12c0 0.736-0.597 1.333-1.333 1.333v0h-1.333v-1.333c0-0.736 0.597-1.333 1.333-1.333s1.333 0.597 1.333 1.333v0zM9.333 10.667c0 0 0 0 0 0 0.735 0 1.33 0.594 1.333 1.328v1.339h-1.333c-0.736 0-1.333-0.597-1.333-1.333s0.597-1.333 1.333-1.333v0zM10 26.667c-0 0-0.001 0-0.001 0-1.473 0-2.76-0.796-3.454-1.981l-0.010-0.019h15.465c2.946 0 5.333-2.388 5.333-5.333v0-10.132c1.204 0.704 2 1.991 2 3.463 0 0.001 0 0.001 0 0.002v-0 6.667c0 4.050-3.283 7.333-7.333 7.333v0h-12z"></path>
</svg>
