<!-- Generated by IcoMoon.io -->
<svg version="1.1" xmlns="http://www.w3.org/2000/svg" width="32" height="32" viewBox="0 0 32 32">
<title>gift-card-money-regular</title>
<path d="M2.667 6.667c0-2.209 1.791-4 4-4v0h18.667c2.209 0 4 1.791 4 4v0 12.067c-0.2-0.042-0.43-0.067-0.665-0.067-0.001 0-0.001 0-0.002 0h-1.333v-6h-13.253l2.293 2.293c0.196 0.183 0.318 0.443 0.318 0.732 0 0.552-0.448 1-1 1-0.289 0-0.549-0.122-0.731-0.318l-0.001-0.001-2.293-2.293v6.587h2.277c-0.175 0.391-0.277 0.848-0.277 1.329 0 0.002 0 0.003 0 0.005v-0 0.667h-8c-2.209 0-4-1.791-4-4v0-12zM6.667 4.667c-1.105 0-2 0.895-2 2v0 4h1.611c-0.176-0.393-0.279-0.852-0.279-1.335 0-1.841 1.492-3.333 3.333-3.333 0.483 0 0.942 0.103 1.356 0.287l-0.021-0.008v-1.611h-4zM12.667 4.667v1.611c0.393-0.176 0.852-0.279 1.335-0.279 1.841 0 3.333 1.492 3.333 3.333 0 0.483-0.103 0.942-0.287 1.356l0.008-0.021h10.277v-4c0-1.105-0.895-2-2-2v0h-12.667zM10.667 20.667v-6.587l-2.293 2.293c-0.178 0.166-0.418 0.268-0.682 0.268-0.552 0-1-0.448-1-1 0-0.264 0.102-0.504 0.269-0.682l-0.001 0.001 2.293-2.293h-4.587v6c0 1.105 0.895 2 2 2v0h4zM14 10.667c0.736 0 1.333-0.597 1.333-1.333s-0.597-1.333-1.333-1.333c-0.736 0-1.333 0.597-1.333 1.333v0 1.333h1.333zM10.667 9.328c-0.003-0.734-0.599-1.328-1.333-1.328-0.736 0-1.333 0.597-1.333 1.333s0.597 1.333 1.333 1.333h1.333v-1.339zM16 22c0-1.105 0.895-2 2-2v0h10.667c1.105 0 2 0.895 2 2v0 5.333c0 1.105-0.895 2-2 2v0h-10.667c-1.105 0-2-0.895-2-2v0-5.333zM29.333 22.667c-0.736 0-1.333-0.597-1.333-1.333v0h-1.333c0 1.473 1.194 2.667 2.667 2.667v0-1.333zM29.333 25.333c-1.473 0-2.667 1.194-2.667 2.667v0h1.333c0-0.736 0.597-1.333 1.333-1.333v0-1.333zM18.667 21.333c0 0.736-0.597 1.333-1.333 1.333v0 1.333c1.473 0 2.667-1.194 2.667-2.667v0h-1.333zM20 28c0-1.473-1.194-2.667-2.667-2.667v0 1.333c0.736 0 1.333 0.597 1.333 1.333v0h1.333zM25.667 24.667c0-1.289-1.045-2.333-2.333-2.333s-2.333 1.045-2.333 2.333v0c0 1.289 1.045 2.333 2.333 2.333s2.333-1.045 2.333-2.333v0z"></path>
</svg>
