<!-- Generated by IcoMoon.io -->
<svg version="1.1" xmlns="http://www.w3.org/2000/svg" width="32" height="32" viewBox="0 0 32 32">
<title>gift-regular</title>
<path d="M19.333 2.667c0 0 0 0 0.001 0 2.393 0 4.333 1.94 4.333 4.333 0 0.866-0.254 1.673-0.692 2.35l0.010-0.017h3.348c0.92 0 1.667 0.747 1.667 1.667v4.667c0 0 0 0 0 0 0 0.802-0.567 1.472-1.322 1.631l-0.011 0.002v7.7c0 0 0 0 0 0 0 2.307-1.803 4.193-4.076 4.326l-0.012 0.001-0.245 0.007h-12.667c-0 0-0 0-0 0-2.307 0-4.193-1.803-4.326-4.076l-0.001-0.012-0.007-0.245v-7.7c-0.76-0.155-1.333-0.827-1.333-1.633v-4.667c0-0.92 0.747-1.667 1.667-1.667h3.348c-0.432-0.663-0.69-1.474-0.69-2.345 0-2.393 1.94-4.333 4.333-4.333 1.342 0 2.542 0.61 3.337 1.569l0.006 0.007c0.798-0.958 1.992-1.564 3.327-1.564 0.002 0 0.004 0 0.006 0h-0zM15 17.332h-7.667v7.668c0 1.221 0.938 2.223 2.133 2.325l0.009 0.001 0.192 0.008h5.333v-10.001zM24.667 17.332h-7.667v10.001h5.333c1.221-0 2.224-0.939 2.325-2.134l0.001-0.009 0.008-0.191v-7.668zM15 11.333h-9v4l9-0.001v-3.999zM26 15.333v-4h-9v3.999l9 0.001zM19.333 4.667c-1.289 0-2.333 1.045-2.333 2.333v0 2.332h2.365l0.16-0.007c1.203-0.103 2.14-1.105 2.14-2.325 0-1.288-1.044-2.333-2.332-2.333h-0zM12.667 4.667c-1.288 0.001-2.332 1.045-2.332 2.333 0 1.221 0.937 2.222 2.132 2.325l0.009 0.001 0.16 0.007h2.365v-2.332l-0.008-0.192c-0.102-1.203-1.104-2.141-2.325-2.141v0z"></path>
</svg>
