<!-- Generated by IcoMoon.io -->
<svg version="1.1" xmlns="http://www.w3.org/2000/svg" width="32" height="32" viewBox="0 0 32 32">
<title>gift-card-add</title>
<path d="M2.667 6.667c0-2.209 1.791-4 4-4h18.667c2.209 0 4 1.791 4 4v10.413c-0.592-0.569-1.265-1.054-2-1.437v-2.976h-13.252l2.293 2.293c0.391 0.391 0.391 1.024 0 1.414s-1.024 0.391-1.414 0l-2.293-2.293v6.586h2.418c-0.206 0.638-0.34 1.307-0.393 2h-8.025c-2.209 0-4-1.791-4-4v-12zM6.667 4.667c-1.105 0-2 0.895-2 2v4h1.611c-0.178-0.408-0.277-0.859-0.277-1.333 0-1.841 1.492-3.333 3.333-3.333 0.474 0 0.925 0.099 1.333 0.277v-1.611h-4zM12.667 4.667v1.611c0.408-0.178 0.859-0.277 1.333-0.277 1.841 0 3.333 1.492 3.333 3.333 0 0.474-0.099 0.925-0.277 1.333h10.277v-4c0-1.105-0.895-2-2-2h-12.667zM10.667 20.667v-6.586l-2.293 2.293c-0.391 0.391-1.024 0.391-1.414 0s-0.391-1.024 0-1.414l2.293-2.293h-4.586v6c0 1.105 0.895 2 2 2h4zM14 10.667c0.736 0 1.333-0.597 1.333-1.333s-0.597-1.333-1.333-1.333c-0.736 0-1.333 0.597-1.333 1.333v1.333h1.333zM10.667 9.328c-0.003-0.734-0.599-1.328-1.333-1.328-0.736 0-1.333 0.597-1.333 1.333s0.597 1.333 1.333 1.333h1.333v-1.339zM30.667 23.333c0-4.050-3.283-7.333-7.333-7.333s-7.333 3.283-7.333 7.333c0 4.050 3.283 7.333 7.333 7.333s7.333-3.283 7.333-7.333zM24.001 24l0.001 3.338c0 0.368-0.298 0.667-0.667 0.667s-0.667-0.298-0.667-0.667l-0.001-3.338h-3.34c-0.368 0-0.666-0.298-0.666-0.667s0.298-0.667 0.666-0.667h3.34l-0.001-3.334c0-0.368 0.299-0.667 0.667-0.667s0.667 0.298 0.667 0.667l0.001 3.334h3.328c0.368 0 0.666 0.299 0.666 0.667s-0.298 0.667-0.666 0.667h-3.328z"></path>
</svg>
