<!-- Generated by IcoMoon.io -->
<svg version="1.1" xmlns="http://www.w3.org/2000/svg" width="32" height="32" viewBox="0 0 32 32">
<title>gift</title>
<path d="M19.333 2.667c2.393 0 4.333 1.94 4.333 4.333 0 0.859-0.25 1.66-0.682 2.334l3.348-0.001c0.921 0 1.667 0.746 1.667 1.667v4.667c0 0.806-0.572 1.478-1.332 1.633l-0.001 7.7c0 2.311-1.809 4.199-4.087 4.327l-0.246 0.007h-12.667c-2.311 0-4.199-1.809-4.326-4.087l-0.007-0.246 0-7.7c-0.761-0.154-1.333-0.827-1.333-1.633v-4.667c0-0.92 0.746-1.667 1.667-1.667l3.348 0.001c-0.431-0.674-0.682-1.475-0.682-2.334 0-2.393 1.94-4.333 4.333-4.333 1.341 0 2.539 0.609 3.334 1.565 0.793-0.956 1.992-1.565 3.333-1.565zM15 17.332h-7.667v7.668c0 1.224 0.943 2.228 2.142 2.326l0.191 0.008h5.333v-10.001zM24.667 17.332h-7.667v10.001h5.333c1.224 0 2.228-0.943 2.326-2.142l0.008-0.191v-7.668zM15 11.333h-9v4l9-0.001v-3.999zM26 15.333v-4h-9v3.999l9 0.001zM19.333 4.667c-1.289 0-2.333 1.045-2.333 2.333v2.332h2.365l0.159-0.006c1.199-0.097 2.142-1.101 2.142-2.326 0-1.289-1.045-2.333-2.333-2.333zM12.667 4.667c-1.289 0-2.333 1.045-2.333 2.333 0 1.224 0.943 2.228 2.142 2.326l0.159 0.006h2.365v-2.332l-0.008-0.191c-0.097-1.199-1.101-2.142-2.326-2.142z"></path>
</svg>
