<!-- Generated by IcoMoon.io -->
<svg version="1.1" xmlns="http://www.w3.org/2000/svg" width="32" height="32" viewBox="0 0 32 32">
<title>glance-horizontal</title>
<path d="M17.333 6.337c0-1.289-1.045-2.333-2.333-2.333v0h-8.667c-1.289 0-2.333 1.045-2.333 2.333v0 6c0 1.288 1.045 2.333 2.333 2.333h8.667c1.289 0 2.333-1.045 2.333-2.333v0-6zM11.984 19.647c0-1.289-1.045-2.333-2.333-2.333v0h-3.317c-1.289 0-2.333 1.045-2.333 2.333v0 6.019c0 1.288 1.045 2.333 2.333 2.333h3.317c1.289 0 2.333-1.045 2.333-2.333v0-6.019zM15.333 6.337v6c0 0.184-0.149 0.333-0.333 0.333v0h-8.667c-0.184 0-0.333-0.149-0.333-0.333v0-6c0-0.184 0.149-0.333 0.333-0.333v0h8.667c0.184 0 0.333 0.149 0.333 0.333v0zM9.984 19.647v6.019c0 0.184-0.149 0.333-0.333 0.333v0h-3.317c-0.184 0-0.333-0.149-0.333-0.333v0-6.019c0-0.184 0.149-0.333 0.333-0.333v0h3.317c0.184 0 0.333 0.149 0.333 0.333v0zM28.003 19.665c0-1.289-1.045-2.333-2.333-2.333v0h-8.667c-0 0-0.001 0-0.001 0-1.221 0-2.223 0.938-2.325 2.133l-0.001 0.009-0.007 0.192v6c0 1.288 1.044 2.333 2.333 2.333h8.667c1.289 0 2.333-1.045 2.333-2.333v0-6zM26.003 19.665v6c0 0.184-0.149 0.333-0.333 0.333v0h-8.667c-0.184 0-0.333-0.149-0.333-0.333v0-6l0.008-0.076c0.036-0.149 0.167-0.257 0.325-0.257 0 0 0.001 0 0.001 0h8.667c0.184 0 0.333 0.149 0.333 0.333v0zM28.003 6.337c0-1.289-1.045-2.333-2.333-2.333v0h-3.333c-1.289 0-2.333 1.045-2.333 2.333v0 6c0 1.288 1.044 2.333 2.333 2.333h3.333c1.289 0 2.333-1.045 2.333-2.333v0-6zM26.003 12.337c0 0.184-0.149 0.333-0.333 0.333v0h-3.333c-0.184 0-0.333-0.149-0.333-0.333v0-6c0-0.184 0.149-0.333 0.333-0.333v0h3.333c0.184 0 0.333 0.149 0.333 0.333v0 6z"></path>
</svg>
