<!-- Generated by IcoMoon.io -->
<svg version="1.1" xmlns="http://www.w3.org/2000/svg" width="32" height="32" viewBox="0 0 32 32">
<title>glance-default</title>
<path d="M16 25.333c0 2.209 1.791 4 4 4v0h5.333c2.209 0 4-1.791 4-4v0-8c0-2.209-1.791-4-4-4v0h-5.333c-2.209 0-4 1.791-4 4v0 8zM20 26.667c-0.736 0-1.333-0.597-1.333-1.333v0-8c0-0.736 0.597-1.333 1.333-1.333v0h5.333c0.736 0 1.333 0.597 1.333 1.333v0 8c0 0.736-0.597 1.333-1.333 1.333v0h-5.333zM2.667 14.667c0 2.209 1.791 4 4 4v0h2.667c2.209 0 4-1.791 4-4v0-8c0-2.209-1.791-4-4-4v0h-2.667c-2.209 0-4 1.791-4 4v0 8zM6.667 16c-0.736 0-1.333-0.597-1.333-1.333v0-8c0-0.736 0.597-1.333 1.333-1.333v0h2.667c0.736 0 1.333 0.597 1.333 1.333v0 8c0 0.736-0.597 1.333-1.333 1.333v0h-2.667zM20 10.667c-2.209 0-4-1.791-4-4s1.791-4 4-4v0h5.333c2.209 0 4 1.791 4 4s-1.791 4-4 4v0h-5.333zM18.667 6.667c0 0.736 0.597 1.333 1.333 1.333v0h5.333c0.736 0 1.333-0.597 1.333-1.333s-0.597-1.333-1.333-1.333v0h-5.333c-0.736 0-1.333 0.597-1.333 1.333v0zM2.667 25.333c0 2.209 1.791 4 4 4v0h2.667c2.209 0 4-1.791 4-4s-1.791-4-4-4v0h-2.667c-2.209 0-4 1.791-4 4v0zM6.667 26.667c-0.736 0-1.333-0.597-1.333-1.333s0.597-1.333 1.333-1.333v0h2.667c0.736 0 1.333 0.597 1.333 1.333s-0.597 1.333-1.333 1.333v0h-2.667z"></path>
</svg>
