<!-- Generated by IcoMoon.io -->
<svg version="1.1" xmlns="http://www.w3.org/2000/svg" width="32" height="32" viewBox="0 0 32 32">
<title>glance</title>
<path d="M25.667 14.669c1.289 0 2.333 1.045 2.333 2.333v8.667c0 1.289-1.045 2.333-2.333 2.333h-6c-1.289 0-2.333-1.045-2.333-2.333v-8.667c0-1.289 1.045-2.333 2.333-2.333h6zM12.358 20.019c1.289 0 2.333 1.045 2.333 2.333v3.317c0 1.289-1.045 2.333-2.333 2.333h-6.019c-1.289 0-2.333-1.045-2.333-2.333v-3.317c0-1.289 1.045-2.333 2.333-2.333h6.019zM25.667 16.669h-6c-0.184 0-0.333 0.149-0.333 0.333v8.667c0 0.184 0.149 0.333 0.333 0.333h6c0.184 0 0.333-0.149 0.333-0.333v-8.667c0-0.184-0.149-0.333-0.333-0.333zM12.358 22.019h-6.019c-0.184 0-0.333 0.149-0.333 0.333v3.317c0 0.184 0.149 0.333 0.333 0.333h6.019c0.184 0 0.333-0.149 0.333-0.333v-3.317c0-0.184-0.149-0.333-0.333-0.333zM12.338 4c1.289 0 2.333 1.045 2.333 2.333v8.667c0 1.224-0.943 2.228-2.142 2.326l-0.191 0.008h-6c-1.289 0-2.333-1.045-2.333-2.333v-8.667c0-1.289 1.045-2.333 2.333-2.333h6zM12.338 6h-6c-0.184 0-0.333 0.149-0.333 0.333v8.667c0 0.184 0.149 0.333 0.333 0.333h6l0.076-0.009c0.147-0.035 0.257-0.167 0.257-0.325v-8.667c0-0.184-0.149-0.333-0.333-0.333zM25.667 4c1.289 0 2.333 1.045 2.333 2.333v3.333c0 1.289-1.045 2.333-2.333 2.333h-6c-1.289 0-2.333-1.045-2.333-2.333v-3.333c0-1.289 1.045-2.333 2.333-2.333h6zM19.667 6c-0.184 0-0.333 0.149-0.333 0.333v3.333c0 0.184 0.149 0.333 0.333 0.333h6c0.184 0 0.333-0.149 0.333-0.333v-3.333c0-0.184-0.149-0.333-0.333-0.333h-6z"></path>
</svg>
