<!-- Generated by IcoMoon.io -->
<svg version="1.1" xmlns="http://www.w3.org/2000/svg" width="32" height="32" viewBox="0 0 32 32">
<title>glasses-regular</title>
<path d="M10.545 6.667h1.787c0.552 0 1 0.448 1 1 0 0.504-0.373 0.921-0.858 0.99l-0.005 0.001-0.135 0.009h-1.787c-0 0-0 0-0 0-0.242 0-0.464 0.086-0.637 0.229l0.002-0.001-0.1 0.095-2.765 3.009 4.621 0.001c1.541 0 2.811 1.163 2.981 2.659l0.001 0.014h2.703c0.171-1.51 1.441-2.673 2.982-2.673 0 0 0 0 0.001 0l4.636-0.001-2.777-3.010c-0.153-0.165-0.359-0.279-0.592-0.312l-0.005-0.001-0.139-0.009h-1.795c-0.552-0.001-0.999-0.448-0.999-1 0-0.504 0.373-0.921 0.858-0.99l0.005-0.001 0.136-0.009h1.794c0.783 0 1.496 0.3 2.030 0.791l-0.002-0.002 0.177 0.176 4.856 5.263c0.067 0.073 0.121 0.153 0.163 0.237 0.408 0.513 0.652 1.161 0.652 1.867v4.662c0 2.393-1.94 4.333-4.333 4.333v0h-3.332c-2.393 0-4.333-1.94-4.333-4.333v0l-0.001-2.989h-2.668l0.001 2.989c0 2.393-1.94 4.333-4.333 4.333v0h-3.332c-2.393 0-4.333-1.94-4.333-4.333v0-4.661c0-0.749 0.275-1.433 0.728-1.959l0.051-0.073 0.058-0.070 4.833-5.26c0.495-0.537 1.18-0.893 1.947-0.959l0.011-0.001 0.251-0.010zM11.665 14h-5.999c-0.552 0-1 0.448-1 1v0 4.661c0 1.289 1.045 2.333 2.333 2.333v0h3.332c1.289 0 2.333-1.045 2.333-2.333v0-4.661c0-0.552-0.448-1-1-1v0zM26.332 14h-5.999c-0.552 0-1 0.448-1 1v0 4.661c0 1.289 1.045 2.333 2.333 2.333v0h3.332c1.289 0 2.333-1.045 2.333-2.333v0-4.661c0-0.552-0.448-1-1-1v0z"></path>
</svg>
