<!-- Generated by IcoMoon.io -->
<svg version="1.1" xmlns="http://www.w3.org/2000/svg" width="32" height="32" viewBox="0 0 32 32">
<title>glasses-off</title>
<path d="M4.374 2.96c-0.391-0.391-1.024-0.391-1.414-0s-0.391 1.024-0 1.414l4.365 4.365-3.82 4.158-0.058 0.070-0.050 0.074c-0.454 0.526-0.728 1.21-0.728 1.959v4.662c0 2.393 1.94 4.333 4.333 4.333h3.332c2.393 0 4.333-1.94 4.333-4.333l-0.001-2.989h0.594l2.075 2.075 0 0.914c0 2.393 1.94 4.333 4.333 4.333h0.913l5.046 5.046c0.391 0.391 1.024 0.391 1.414 0s0.391-1.024 0-1.414l-24.666-24.667zM10.585 11.999l-3.541-0.001 1.695-1.845 1.845 1.845zM5.667 13.999h5.998c0.552 0 1 0.448 1 1v4.662c0 1.289-1.045 2.333-2.333 2.333h-3.332c-1.289 0-2.333-1.045-2.333-2.333v-4.662c0-0.552 0.448-1 1-1z"></path>
<path d="M17.737 13.495l1.596 1.596v-0.091c0-0.552 0.448-1 1-1h5.998c0.552 0 1 0.448 1 1v4.662c0 0.927-0.541 1.728-1.324 2.104l1.458 1.458c1.127-0.782 1.866-2.086 1.866-3.563v-4.662c0-0.706-0.244-1.355-0.652-1.867-0.041-0.084-0.096-0.164-0.163-0.237l-4.856-5.263-0.177-0.177c-0.551-0.505-1.274-0.789-2.028-0.789h-1.794l-0.136 0.009c-0.488 0.066-0.864 0.485-0.864 0.991 0 0.552 0.448 1 1 1h1.794l0.138 0.010c0.228 0.032 0.439 0.141 0.597 0.312l2.778 3.010-4.636 0.001c-1.109 0-2.077 0.601-2.596 1.495z"></path>
</svg>
