<!-- Generated by IcoMoon.io -->
<svg version="1.1" xmlns="http://www.w3.org/2000/svg" width="32" height="32" viewBox="0 0 32 32">
<title>glasses-off-regular</title>
<path d="M27.911 29.089l-5.095-5.095h-1.149c-2.393 0-4.333-1.94-4.333-4.333v0-1.15l-1.84-1.839h-0.829l0.001 2.989c0 2.393-1.94 4.333-4.333 4.333v0h-3.332c-2.393 0-4.333-1.94-4.333-4.333v0-4.661c0-0.749 0.275-1.433 0.728-1.959l0.051-0.073 0.058-0.070 3.933-4.281-4.526-4.527c-0.157-0.152-0.254-0.364-0.254-0.599 0-0.46 0.373-0.833 0.833-0.833 0.235 0 0.448 0.098 0.599 0.254l0 0 25 25c0.151 0.151 0.244 0.359 0.244 0.589 0 0.46-0.373 0.833-0.833 0.833-0.23 0-0.439-0.093-0.589-0.244v0zM8.853 10.031l-1.809 1.968h3.777l-1.969-1.968zM5.667 14c-0.552 0-1 0.448-1 1v0 4.662c0 1.289 1.045 2.333 2.333 2.333v0h3.332c1.289 0 2.333-1.045 2.333-2.333v0-4.662c0-0.552-0.448-1-1-1v0h-5.999zM17.512 13.977l1.821 1.821v-0.799c0-0.552 0.448-1 1-1v0h5.999c0.552 0 1 0.448 1 1v0 4.662c-0 1.118-0.786 2.052-1.836 2.281l-0.015 0.003 1.547 1.547c1.381-0.743 2.305-2.178 2.305-3.829 0-0 0-0.001 0-0.001v0-4.661c0-0.001 0-0.002 0-0.003 0-0.707-0.246-1.357-0.657-1.869l0.005 0.006c-0.045-0.091-0.099-0.169-0.163-0.238l0.001 0.001-4.856-5.263-0.177-0.176c-0.532-0.49-1.245-0.79-2.028-0.79h-1.795l-0.135 0.009c-0.491 0.069-0.864 0.486-0.864 0.991 0 0.552 0.448 1 1 1h1.794l0.138 0.009c0.238 0.034 0.444 0.148 0.596 0.312l0.001 0.001 2.778 3.010-4.636 0.001c-0 0-0 0-0 0-1.29 0-2.39 0.814-2.814 1.957l-0.007 0.021zM12.202 8.667l-1.982-1.982c0.013-0.002 0.038-0.004 0.064-0.007l0.011-0.001 0.251-0.011h1.787c0.552 0 1 0.448 1 1 0 0.504-0.373 0.921-0.858 0.99l-0.005 0.001-0.135 0.009h-0.131z"></path>
</svg>
