<!-- Generated by IcoMoon.io -->
<svg version="1.1" xmlns="http://www.w3.org/2000/svg" width="32" height="32" viewBox="0 0 32 32">
<title>globe-surface</title>
<path d="M27.333 14c0-6.259-5.074-11.333-11.333-11.333s-11.333 5.074-11.333 11.333c0 2.797 1.013 5.357 2.692 7.333 0.024 0.028 0.048 0.056 0.072 0.083 0.62 0.716 1.329 1.353 2.108 1.895 1.833 1.274 4.060 2.021 6.461 2.021s4.629-0.747 6.461-2.021c0.033-0.023 0.066-0.046 0.099-0.070 0.771-0.548 1.47-1.19 2.081-1.909 1.679-1.977 2.692-4.537 2.692-7.333zM17.962 21.162c-0.888 1.887-1.719 2.171-1.962 2.171s-1.074-0.285-1.962-2.171c-0.409-0.87-0.754-1.942-0.995-3.162h5.914c-0.241 1.22-0.586 2.293-0.995 3.162zM12.667 14c0-0.69 0.031-1.358 0.090-2h6.486c0.059 0.642 0.090 1.31 0.090 2s-0.031 1.358-0.090 2h-6.486c-0.059-0.642-0.090-1.31-0.090-2zM19.427 22.684c0.695-1.239 1.239-2.848 1.564-4.684h3.444c-1.011 2.129-2.804 3.814-5.008 4.684zM21.251 16c0.054-0.649 0.083-1.318 0.083-2s-0.028-1.351-0.083-2h3.868c0.141 0.644 0.215 1.313 0.215 2s-0.074 1.356-0.215 2h-3.868zM6.881 16c-0.141-0.644-0.215-1.313-0.215-2s0.074-1.356 0.215-2h3.868c-0.054 0.649-0.083 1.318-0.083 2s0.028 1.351 0.083 2h-3.868zM11.008 18c0.326 1.836 0.87 3.445 1.565 4.684-2.204-0.87-3.997-2.555-5.008-4.684h3.443zM18.957 10h-5.914c0.241-1.22 0.586-2.292 0.995-3.162 0.888-1.886 1.719-2.171 1.962-2.171s1.074 0.285 1.962 2.171c0.409 0.87 0.754 1.942 0.995 3.162zM24.435 10h-3.444c-0.326-1.836-0.87-3.445-1.564-4.684 2.204 0.87 3.997 2.556 5.008 4.684zM11.008 10h-3.444c1.011-2.128 2.804-3.814 5.008-4.684-0.695 1.239-1.239 2.848-1.564 4.684zM5.333 21.333h0.337c0.517 0.727 1.11 1.398 1.766 2h-1.343l-1.111 4h22.035l-1.111-4h-1.343c0.656-0.602 1.248-1.273 1.766-2h0.337c0.449 0 0.843 0.3 0.963 0.732l1.667 6c0.084 0.301 0.022 0.624-0.167 0.873s-0.484 0.395-0.796 0.395h-24.667c-0.313 0-0.607-0.146-0.796-0.395s-0.251-0.572-0.167-0.873l1.667-6c0.12-0.433 0.514-0.732 0.964-0.732z"></path>
</svg>
