<!-- Generated by IcoMoon.io -->
<svg version="1.1" xmlns="http://www.w3.org/2000/svg" width="32" height="32" viewBox="0 0 32 32">
<title>globe-shield-regular</title>
<path d="M16 2.665c7.316 0 13.256 5.892 13.335 13.189-0.77-0.175-1.449-0.435-2.077-0.776l0.043 0.021c-0.052-0.657-0.151-1.26-0.296-1.846l0.016 0.078h-2.588c-0.13-0.028-0.279-0.044-0.433-0.044s-0.303 0.016-0.447 0.046l0.014-0.002h-1.024c0.016 0.164 0.029 0.328 0.043 0.493-0.564 0.481-1.197 0.912-1.874 1.271l-0.057 0.027c-0.021-0.613-0.064-1.211-0.125-1.791h-9.059c-0.089 0.797-0.14 1.721-0.14 2.657 0 1.416 0.116 2.805 0.34 4.157l-0.020-0.147h4.349v2h-3.919c0.869 3.219 2.381 5.336 3.92 5.336 0.367 0 0.733-0.121 1.091-0.351 0.452 0.795 0.982 1.479 1.594 2.078l0.002 0.002c-0.868 0.177-1.767 0.271-2.688 0.271-7.365 0-13.333-5.971-13.333-13.335-0.001-7.365 5.968-13.336 13.333-13.336zM10.011 22.001h-3.629c1.293 2.045 3.164 3.622 5.382 4.519l0.076 0.027c-0.696-1.093-1.271-2.461-1.693-4.020l-0.136-0.527zM9.459 13.333h-4.477l-0.007 0.023c-0.197 0.791-0.309 1.699-0.309 2.634 0 0.004 0 0.008 0 0.012v-0.001c0 0.005 0 0.010 0 0.015 0 1.432 0.266 2.801 0.752 4.062l-0.026-0.077h4.231c-0.183-1.184-0.288-2.549-0.288-3.938 0-0.022 0-0.044 0-0.066v0.003c0-0.912 0.043-1.805 0.127-2.668zM11.84 5.453l-0.031 0.011c-2.746 1.117-4.909 3.191-6.113 5.799l-0.029 0.070h4.064c0.419-2.336 1.147-4.371 2.111-5.88zM16 4.665l-0.156 0.007c-1.684 0.155-3.315 2.824-4.071 6.661h8.456c-0.755-3.827-2.377-6.492-4.060-6.66l-0.169-0.007zM20.16 5.452l0.141 0.233c0.893 1.483 1.569 3.429 1.967 5.649h4.064c-1.18-2.562-3.206-4.567-5.713-5.691l-0.072-0.029-0.387-0.161zM30 17.303c-2.544-0.229-4.58-1.715-5.488-2.493-0.138-0.116-0.317-0.186-0.513-0.186s-0.375 0.070-0.515 0.187l0.001-0.001c-0.908 0.777-2.945 2.264-5.487 2.493-0.368 0.027-0.657 0.327-0.667 0.696l-0 0.001v4.667c0 5.631 5.459 7.621 6.497 7.949 0.051 0.017 0.109 0.026 0.17 0.026s0.119-0.010 0.174-0.028l-0.004 0.001c1.040-0.328 6.497-2.32 6.497-7.949v-4.667c-0.010-0.371-0.299-0.671-0.664-0.697l-0.002-0z"></path>
</svg>
