<!-- Generated by IcoMoon.io -->
<svg version="1.1" xmlns="http://www.w3.org/2000/svg" width="32" height="32" viewBox="0 0 32 32">
<title>globe-add</title>
<path d="M23.333 16c4.050 0 7.333 3.283 7.333 7.333s-3.283 7.333-7.333 7.333c-4.050 0-7.333-3.283-7.333-7.333s3.283-7.333 7.333-7.333zM16.002 2.667c7.365 0 13.335 5.97 13.335 13.335 0 0.351-0.014 0.699-0.040 1.043-0.585-0.555-1.247-1.029-1.968-1.404l0.005 0.236-0.010-0.424c-0.035-0.727-0.138-1.436-0.303-2.12l-0.019 0.001-4.458-0c0.043 0.446 0.075 0.9 0.097 1.361-0.688 0.053-1.354 0.188-1.988 0.394-0.019-0.601-0.061-1.186-0.122-1.754h-9.059c-0.091 0.854-0.139 1.747-0.139 2.667 0 1.413 0.115 2.76 0.32 4l3.677-0c-0.263 0.632-0.454 1.302-0.562 2l-2.685 0c0.798 2.954 2.136 4.98 3.54 5.293 0.378 0.734 0.858 1.408 1.421 2.002-0.344 0.027-0.692 0.041-1.043 0.041-7.365 0-13.335-5.97-13.335-13.335s5.97-13.335 13.335-13.335zM23.333 18.666l-0.12 0.011c-0.272 0.049-0.487 0.264-0.536 0.536l-0.011 0.12-0.001 3.333-3.336 0.001-0.12 0.011c-0.272 0.049-0.487 0.264-0.536 0.536l-0.011 0.12 0.011 0.12c0.049 0.272 0.264 0.487 0.536 0.536l0.12 0.011 3.337-0.001 0.001 3.339 0.011 0.12c0.049 0.272 0.264 0.487 0.536 0.536l0.12 0.011 0.12-0.011c0.272-0.049 0.487-0.264 0.536-0.536l0.011-0.12-0.001-3.339 3.339 0.001 0.12-0.011c0.272-0.049 0.487-0.264 0.536-0.536l0.011-0.12-0.011-0.12c-0.049-0.272-0.264-0.487-0.536-0.536l-0.12-0.011-3.34-0.001 0.001-3.333-0.011-0.12c-0.049-0.272-0.264-0.487-0.536-0.536l-0.12-0.011zM10.013 22.002l-3.63-0c1.278 2.044 3.189 3.652 5.459 4.547-0.774-1.215-1.397-2.769-1.829-4.547zM4.983 13.335l-0.006 0.023c-0.203 0.849-0.31 1.734-0.31 2.645 0 1.408 0.257 2.756 0.726 4l4.231-0.001c-0.19-1.265-0.29-2.61-0.29-4 0-0.912 0.043-1.804 0.127-2.668l-4.458 0c-0.006 0-0.013 0-0.019-0zM11.843 5.454l-0.031 0.012c-2.73 1.086-4.938 3.203-6.144 5.869l4.064 0.001c0.418-2.337 1.147-4.372 2.11-5.881zM16.002 4.667l-0.154 0.007c-1.687 0.154-3.317 2.824-4.074 6.661h8.457c-0.78-3.954-2.487-6.668-4.228-6.668zM20.162 5.454l0.142 0.232c0.892 1.483 1.57 3.43 1.967 5.649l4.064-0.001c-1.211-2.676-3.43-4.798-6.173-5.881z"></path>
</svg>
