<!-- Generated by IcoMoon.io -->
<svg version="1.1" xmlns="http://www.w3.org/2000/svg" width="32" height="32" viewBox="0 0 32 32">
<title>globe-shield</title>
<path d="M15.999 2.665c7.316 0 13.256 5.892 13.335 13.189-0.745-0.161-1.433-0.439-2.035-0.754-0.047-0.604-0.142-1.195-0.281-1.768l-2.588 0.001c-0.285-0.058-0.58-0.058-0.865 0l-1.025 0c0.016 0.163 0.030 0.327 0.043 0.492-0.434 0.368-1.102 0.87-1.931 1.299-0.021-0.613-0.063-1.211-0.125-1.79h-9.058c-0.091 0.854-0.139 1.747-0.139 2.667 0 1.413 0.115 2.76 0.32 4h4.349l0 2h-3.919c0.869 3.219 2.381 5.336 3.919 5.336 0.368 0 0.735-0.121 1.092-0.35 0.451 0.808 1.005 1.497 1.596 2.079-0.868 0.178-1.767 0.271-2.688 0.271-7.365 0-13.335-5.971-13.335-13.335s5.97-13.335 13.335-13.335zM10.011 22.001l-3.63-0c1.278 2.044 3.189 3.651 5.459 4.547-0.696-1.093-1.271-2.461-1.694-4.021l-0.135-0.527zM9.457 13.333h-4.477l-0.006 0.023c-0.203 0.848-0.31 1.734-0.31 2.645 0 1.408 0.257 2.756 0.726 4l4.231-0c-0.19-1.265-0.29-2.61-0.29-4 0-0.912 0.043-1.804 0.127-2.668zM11.841 5.453l-0.031 0.012c-2.73 1.086-4.938 3.203-6.144 5.869l4.064 0c0.418-2.337 1.147-4.372 2.11-5.881zM15.999 4.665l-0.154 0.007c-1.687 0.154-3.317 2.824-4.074 6.661h8.457c-0.755-3.827-2.378-6.492-4.060-6.66l-0.168-0.008zM20.159 5.453l0.142 0.232c0.892 1.483 1.57 3.43 1.967 5.649l4.064-0c-1.153-2.549-3.221-4.595-5.785-5.719l-0.388-0.162zM30 17.303c-2.543-0.23-4.579-1.716-5.487-2.495-0.289-0.248-0.737-0.248-1.027-0-0.908 0.779-2.945 2.265-5.487 2.495-0.367 0.033-0.666 0.329-0.666 0.697l0 4.667c0 5.63 5.458 7.621 6.497 7.949 0.111 0.035 0.228 0.035 0.339 0 1.039-0.328 6.496-2.319 6.496-7.949l0-4.667c0-0.368-0.299-0.664-0.666-0.697z"></path>
</svg>
