<!-- Generated by IcoMoon.io -->
<svg version="1.1" xmlns="http://www.w3.org/2000/svg" width="32" height="32" viewBox="0 0 32 32">
<title>globe-prohibited-regular</title>
<path d="M16.406 28.794c-0.121 0.004-0.263 0.006-0.406 0.006-7.069 0-12.8-5.731-12.8-12.8s5.731-12.8 12.8-12.8c7.069 0 12.8 5.731 12.8 12.8 0 0.143-0.002 0.285-0.007 0.427l0.001-0.021c-0.47-0.39-0.999-0.741-1.564-1.033l-0.049-0.023c-0.071-1.222-0.328-2.364-0.743-3.426l0.026 0.076h-4.373c0.125 0.784 0.214 1.6 0.264 2.44-0.591 0.057-1.13 0.164-1.649 0.316l0.062-0.016c-0.050-1.013-0.156-1.955-0.318-2.879l0.020 0.138h-8.941c-0.21 1.187-0.33 2.553-0.33 3.947 0 0.019 0 0.037 0 0.056v-0.003c0 1.413 0.117 2.76 0.33 4h3.47c-0.184 0.454-0.341 0.99-0.446 1.546l-0.009 0.054h-2.675c0.245 0.944 0.547 1.802 0.896 2.547 0.768 1.645 1.666 2.582 2.523 2.914 0.304 0.624 0.68 1.203 1.117 1.733zM19.235 7.853c-0.984-2.109-2.184-3.053-3.235-3.053s-2.251 0.944-3.235 3.053c-0.338 0.717-0.644 1.565-0.87 2.445l-0.022 0.103h8.259c-0.25-0.982-0.557-1.83-0.934-2.638l0.038 0.091zM10.222 10.4c0.282-1.189 0.651-2.275 1.093-3.224 0.298-0.638 0.642-1.237 1.027-1.765-2.588 0.915-4.687 2.672-6.016 4.936l-0.029 0.053h3.926zM9.6 16c0-1.392 0.107-2.739 0.309-4h-4.373c-0.466 1.184-0.736 2.554-0.736 3.988 0 0.004 0 0.008 0 0.012v-0.001c0 1.408 0.261 2.758 0.736 4h4.373c-0.197-1.19-0.309-2.562-0.309-3.961 0-0.014 0-0.028 0-0.042v0.002zM11.315 24.824c-0.431-0.916-0.807-1.992-1.070-3.11l-0.023-0.114h-3.925c1.358 2.317 3.457 4.074 5.966 4.965l0.079 0.024c-0.371-0.51-0.714-1.089-1-1.7l-0.027-0.065zM25.702 10.4c-1.357-2.317-3.457-4.074-5.966-4.965l-0.079-0.024c0.386 0.528 0.73 1.126 1.027 1.765 0.442 0.949 0.811 2.035 1.093 3.224h3.925zM16 23.2c0 3.976 3.224 7.2 7.2 7.2s7.2-3.224 7.2-7.2v0c0-3.976-3.224-7.2-7.2-7.2s-7.2 3.224-7.2 7.2v0zM19.846 27.685l7.84-7.84c0.699 0.924 1.12 2.093 1.12 3.36 0 3.093-2.507 5.6-5.6 5.6-1.267 0-2.436-0.421-3.374-1.13l0.014 0.010zM18.715 26.554c-0.699-0.924-1.12-2.093-1.12-3.36 0-3.093 2.507-5.6 5.6-5.6 1.267 0 2.436 0.421 3.374 1.13l-0.014-0.010-7.84 7.84z"></path>
</svg>
