<!-- Generated by IcoMoon.io -->
<svg version="1.1" xmlns="http://www.w3.org/2000/svg" width="32" height="32" viewBox="0 0 32 32">
<title>globe-search-regular</title>
<path d="M4.588 13.273c-1.19 1.189-1.927 2.832-1.927 4.647 0 3.627 2.941 6.568 6.568 6.568 1.369 0 2.64-0.419 3.692-1.135l-0.023 0.015 5.675 5.676c0.187 0.191 0.448 0.31 0.737 0.31 0.569 0 1.031-0.461 1.031-1.031 0-0.235-0.079-0.451-0.211-0.625l0.002 0.003-0.1-0.116-5.623-5.624c0.866-1.102 1.389-2.51 1.389-4.040 0-3.628-2.941-6.569-6.569-6.569-1.813 0-3.454 0.734-4.643 1.921l0-0zM16.035 2.664c-6.341 0-11.648 4.425-13.001 10.356 0.786-0.991 1.785-1.779 2.931-2.3l0.049-0.020c1.282-2.384 3.318-4.222 5.785-5.219l0.076-0.027-0.143 0.232c-0.717 1.191-1.295 2.681-1.7 4.373 0.665 0.067 1.321 0.219 1.953 0.453 0.843-3.504 2.431-5.847 4.049-5.847l0.153 0.007c1.688 0.155 3.317 2.824 4.075 6.661h-6.663c0.813 0.545 1.499 1.209 2.051 1.975l0.016 0.024 4.899 0.001c0.089 0.797 0.14 1.721 0.14 2.656 0 1.416-0.116 2.805-0.34 4.157l0.020-0.147h-3.528c-0.12 0.44-0.256 0.813-0.419 1.172l0.020-0.049-0.172 0.363-0.163 0.305 0.211 0.209h3.62c-0.271 0.999-0.6 1.891-0.976 2.647l1.475 1.476c0.656-1.144 1.188-2.544 1.571-4.12l3.631-0.003c-1.202 1.902-2.897 3.394-4.908 4.317l-0.071 0.029 0.3 0.297 0.167 0.187c0.293 0.395 0.46 0.833 0.504 1.271 4.598-2.171 7.723-6.769 7.723-12.097 0-0.002 0-0.003 0-0.004v0c0-7.365-5.971-13.336-13.335-13.336zM12.419 14.731c0.824 0.817 1.333 1.949 1.333 3.2 0 2.489-2.018 4.507-4.507 4.507-1.251 0-2.383-0.51-3.2-1.333l-0-0c-0.808-0.814-1.307-1.935-1.307-3.173 0-2.489 2.018-4.507 4.507-4.507 1.238 0 2.359 0.499 3.174 1.307l-0-0zM22.576 13.333l4.477-0.001 0.011 0.040c0.2 0.844 0.307 1.723 0.307 2.627 0 0.003 0 0.007 0 0.011 0 1.433-0.267 2.804-0.753 4.066l0.026-0.077-4.232 0.003c0.191-1.267 0.291-2.611 0.291-4.001 0-0.912-0.043-1.804-0.127-2.667zM20.193 5.452l0.031 0.011c2.746 1.117 4.91 3.192 6.115 5.8l0.029 0.070h-4.065c-0.417-2.337-1.147-4.371-2.109-5.88z"></path>
</svg>
