<!-- Generated by IcoMoon.io -->
<svg version="1.1" xmlns="http://www.w3.org/2000/svg" width="32" height="32" viewBox="0 0 32 32">
<title>globe-location</title>
<path d="M16 2.665c7.365 0 13.335 5.97 13.335 13.335 0 0.522-0.030 1.037-0.088 1.543-0.554-0.567-1.199-1.045-1.912-1.41 0-0.044 0.001-0.089 0.001-0.133 0-0.919-0.109-1.813-0.316-2.669l-4.477 0.001c0.067 0.69 0.108 1.399 0.121 2.122-0.706 0.13-1.376 0.361-1.995 0.677l0-0.131c0-0.921-0.049-1.814-0.139-2.667h-9.058c-0.091 0.854-0.139 1.747-0.139 2.667 0 1.413 0.115 2.76 0.32 4h5.515c-0.246 0.629-0.407 1.3-0.47 1.999h-4.615c0.869 3.219 2.381 5.336 3.919 5.336 0.607 0 1.209-0.329 1.769-0.925 0.481 0.821 1.11 1.629 1.865 2.424-1.155 0.327-2.375 0.501-3.634 0.501-7.365 0-13.335-5.97-13.335-13.335s5.97-13.335 13.335-13.335zM10.011 22.001l-3.63-0c1.278 2.044 3.189 3.652 5.459 4.548-0.696-1.093-1.271-2.461-1.694-4.021l-0.135-0.527zM9.458 13.333h-4.477l-0.006 0.023c-0.203 0.849-0.31 1.734-0.31 2.645 0 1.408 0.257 2.756 0.726 4l4.231-0.001c-0.19-1.265-0.29-2.61-0.29-4 0-0.912 0.043-1.804 0.127-2.668zM11.842 5.453l-0.031 0.012c-2.73 1.086-4.938 3.203-6.144 5.869l4.064 0c0.418-2.337 1.147-4.372 2.11-5.881zM16 4.665l-0.154 0.007c-1.687 0.154-3.317 2.824-4.074 6.661h8.457c-0.755-3.827-2.378-6.492-4.060-6.66l-0.168-0.008zM20.16 5.453l0.142 0.232c0.892 1.483 1.57 3.43 1.967 5.649l4.064-0c-1.153-2.549-3.221-4.595-5.785-5.719l-0.388-0.162z"></path>
<path d="M30 22.667c0-3.314-2.686-6-6-6s-6 2.686-6 6c0 2.483 1.893 5.086 5.6 7.867 0.237 0.178 0.563 0.178 0.8 0 3.707-2.78 5.6-5.383 5.6-7.867zM22 22.667c0-1.105 0.895-2 2-2s2 0.895 2 2c0 1.105-0.895 2-2 2s-2-0.895-2-2z"></path>
</svg>
