<!-- Generated by IcoMoon.io -->
<svg version="1.1" xmlns="http://www.w3.org/2000/svg" width="32" height="32" viewBox="0 0 32 32">
<title>globe-person</title>
<path d="M16 2.665c7.365 0 13.335 5.97 13.335 13.335 0 0.885-0.086 1.75-0.251 2.586-0.327-0.881-0.955-1.616-1.76-2.079 0.007-0.168 0.011-0.337 0.011-0.507 0-0.919-0.109-1.813-0.316-2.669l-4.477 0.001c0.083 0.863 0.127 1.756 0.127 2.668 0 0.34-0.006 0.676-0.018 1.010-0.809 0.732-1.318 1.79-1.318 2.967 0 0.791 0.229 1.527 0.625 2.148-0.044 0.177-0.090 0.351-0.138 0.524-1.204 0.064-2.238 0.767-2.771 1.775 0.331-0.707 0.625-1.522 0.869-2.425h-7.837c0.869 3.219 2.381 5.336 3.919 5.336 1.062 0 2.11-1.009 2.944-2.692-0.179 0.409-0.278 0.86-0.278 1.334 0 1.089 0.264 2.075 0.741 2.919-1.088 0.287-2.23 0.439-3.408 0.439-7.365 0-13.335-5.97-13.335-13.335s5.97-13.335 13.335-13.335zM10.011 22.001l-3.63-0c1.278 2.044 3.189 3.652 5.459 4.548-0.696-1.093-1.271-2.461-1.694-4.021l-0.135-0.527zM9.458 13.333h-4.477l-0.006 0.023c-0.203 0.849-0.31 1.734-0.31 2.645 0 1.408 0.257 2.756 0.726 4l4.231-0.001c-0.19-1.265-0.29-2.61-0.29-4 0-0.912 0.043-1.804 0.127-2.668zM11.471 13.333c-0.091 0.854-0.139 1.747-0.139 2.667 0 1.413 0.115 2.76 0.32 4h8.698c0.205-1.24 0.32-2.587 0.32-4 0-0.921-0.049-1.814-0.139-2.667h-9.058zM11.842 5.453l-0.031 0.012c-2.73 1.086-4.938 3.203-6.144 5.869l4.064 0c0.418-2.337 1.147-4.372 2.11-5.881zM16 4.665l-0.154 0.007c-1.687 0.154-3.317 2.824-4.074 6.661h8.457c-0.755-3.827-2.378-6.492-4.060-6.66l-0.168-0.008zM20.16 5.453l0.142 0.232c0.892 1.483 1.57 3.43 1.967 5.649l4.064-0c-1.153-2.549-3.221-4.595-5.785-5.719l-0.388-0.162zM28.667 23.978c1.105 0 2 0.895 2 2 0 1.488-0.612 2.68-1.616 3.487-0.988 0.793-2.313 1.18-3.717 1.18s-2.729-0.387-3.717-1.18c-0.352-0.283-0.656-0.612-0.902-0.986-0.456-0.692-0.715-1.534-0.715-2.501 0-0.88 0.569-1.627 1.358-1.895 0.201-0.068 0.417-0.105 0.642-0.105h6.667zM28 19.978c0 1.473-1.194 2.667-2.667 2.667-0.049 0-0.097-0.001-0.145-0.004-0.607-0.033-1.16-0.268-1.592-0.64-0.564-0.485-0.922-1.2-0.929-2-0-0.007-0-0.015-0-0.023 0-1.473 1.194-2.667 2.667-2.667 0.704 0 1.344 0.273 1.821 0.719 0.52 0.487 0.846 1.179 0.846 1.948z"></path>
</svg>
