<!-- Generated by IcoMoon.io -->
<svg version="1.1" xmlns="http://www.w3.org/2000/svg" width="32" height="32" viewBox="0 0 32 32">
<title>globe-person-regular</title>
<path d="M29.335 16c0-7.363-5.971-13.333-13.335-13.333-7.365 0-13.336 5.971-13.336 13.336 0 7.364 5.971 13.335 13.336 13.335 0.717 0 1.423-0.057 2.111-0.167-0.436-0.671-0.715-1.48-0.767-2.35l-0.001-0.014c-0.435 0.345-0.888 0.531-1.343 0.531-1.539 0-3.049-2.117-3.92-5.336h8.756c-0.398-0.565-0.677-1.242-0.785-1.975l-0.003-0.025h-8.397c-0.204-1.205-0.32-2.594-0.32-4.010 0-0.936 0.051-1.86 0.15-2.769l-0.010 0.113h9.057c0.090 0.799 0.141 1.726 0.141 2.665 0 0.336-0.007 0.671-0.020 1.004l0.002-0.048c0.478-0.795 1.161-1.423 1.976-1.821l0.028-0.012c-0.021-0.668-0.061-1.289-0.122-1.903l0.009 0.114 4.477-0.001c0.161 0.637 0.27 1.378 0.304 2.139l0.001 0.024c0.888 0.621 1.542 1.523 1.837 2.575l0.008 0.033c0.109-0.685 0.165-1.387 0.165-2.103zM6.38 22h3.631l0.135 0.528c0.423 1.56 0.997 2.927 1.693 4.020-2.295-0.925-4.166-2.502-5.431-4.5l-0.028-0.047zM4.98 13.333h4.477c-0.081 0.795-0.127 1.717-0.127 2.651 0 0.006 0 0.011 0 0.017v-0.001c-0 0.016-0 0.035-0 0.053 0 1.393 0.106 2.761 0.309 4.096l-0.019-0.15h-4.231c-0.46-1.184-0.727-2.555-0.727-3.989 0-0.004 0-0.008 0-0.012v0.001c0-0.909 0.107-1.796 0.311-2.644l0.005-0.023zM11.811 5.464l0.031-0.011c-0.964 1.509-1.695 3.544-2.111 5.88h-4.064c1.205-2.667 3.413-4.783 6.144-5.869zM15.845 4.672l0.155-0.005 0.168 0.008c1.681 0.168 3.305 2.833 4.060 6.66h-8.457c0.757-3.837 2.387-6.507 4.075-6.661zM20.301 5.685l-0.141-0.232 0.387 0.161c2.579 1.153 4.606 3.157 5.757 5.649l0.029 0.070h-4.067c-0.396-2.22-1.073-4.167-1.967-5.649zM28 19.333c0 1.841-1.492 3.333-3.333 3.333s-3.333-1.492-3.333-3.333v0c0-1.841 1.492-3.333 3.333-3.333s3.333 1.492 3.333 3.333v0zM30.667 26.5c0 2.075-1.715 4.167-6 4.167s-6-2.084-6-4.167v-0.137c0-1.307 1.059-2.363 2.364-2.363h7.272c1.307 0 2.364 1.057 2.364 2.363v0.137z"></path>
</svg>
