<!-- Generated by IcoMoon.io -->
<svg version="1.1" xmlns="http://www.w3.org/2000/svg" width="32" height="32" viewBox="0 0 32 32">
<title>globe-clock-regular</title>
<path d="M29.337 16.003c0-7.365-5.971-13.336-13.335-13.336-7.365 0-13.336 5.971-13.336 13.336 0 7.364 5.971 13.335 13.336 13.335 0.351 0 0.699-0.013 1.041-0.040-0.549-0.578-1.022-1.237-1.397-1.955l-0.023-0.048c-1.404-0.313-2.743-2.339-3.54-5.293h2.684c0.118-0.75 0.314-1.423 0.584-2.056l-0.021 0.056h-3.677c-0.204-1.205-0.32-2.594-0.32-4.010 0-0.936 0.051-1.86 0.15-2.769l-0.010 0.113h9.057c0.061 0.568 0.103 1.153 0.123 1.755 0.581-0.196 1.257-0.337 1.956-0.393l0.030-0.002c-0.024-0.535-0.059-1.005-0.105-1.473l0.009 0.113h4.477c0.165 0.684 0.268 1.392 0.303 2.12l0.011 0.423-0.005-0.236c0.752 0.396 1.399 0.863 1.972 1.407l-0.004-0.003c0.027-0.344 0.040-0.693 0.040-1.043zM6.383 22.003h3.631c0.432 1.779 1.055 3.333 1.829 4.547-2.295-0.924-4.167-2.501-5.432-4.5l-0.028-0.047zM4.977 13.357l0.005-0.023h4.477c-0.081 0.795-0.127 1.717-0.127 2.65 0 0.005 0 0.010 0 0.016v-0.001c-0 0.016-0 0.035-0 0.053 0 1.393 0.106 2.761 0.309 4.096l-0.019-0.15h-4.231c-0.46-1.184-0.727-2.555-0.727-3.989 0-0.004 0-0.008 0-0.012v0.001c0-0.909 0.107-1.795 0.311-2.644zM11.813 5.467l0.031-0.011c-0.964 1.508-1.693 3.543-2.111 5.877h-4.064c1.205-2.667 3.413-4.783 6.144-5.869zM15.848 4.675l0.155-0.007c1.741 0 3.448 2.713 4.227 6.668h-8.456c0.757-3.837 2.387-6.507 4.075-6.661zM20.304 5.688l-0.141-0.232c2.76 1.113 4.935 3.192 6.144 5.81l0.029 0.070h-4.065c-0.396-2.219-1.073-4.165-1.967-5.648zM30.667 23.333c0-4.050-3.283-7.333-7.333-7.333s-7.333 3.283-7.333 7.333v0c0 4.050 3.283 7.333 7.333 7.333s7.333-3.283 7.333-7.333v0zM23.333 23.333h2.667c0.368 0 0.667 0.298 0.667 0.667s-0.298 0.667-0.667 0.667v0h-3.333c-0 0-0 0-0 0-0.364 0-0.66-0.292-0.667-0.654v-4.014c0-0.368 0.298-0.667 0.667-0.667s0.667 0.298 0.667 0.667v0 3.335z"></path>
</svg>
