<!-- Generated by IcoMoon.io -->
<svg version="1.1" xmlns="http://www.w3.org/2000/svg" width="32" height="32" viewBox="0 0 32 32">
<title>globe-location-regular</title>
<path d="M16 2.664c7.365 0 13.336 5.971 13.336 13.336 0 0.521-0.031 1.036-0.089 1.543-0.545-0.558-1.175-1.029-1.871-1.391l-0.041-0.019v-0.132c0-0.919-0.108-1.812-0.315-2.667h-4.477c0.067 0.691 0.107 1.4 0.12 2.121-0.75 0.141-1.418 0.376-2.035 0.696l0.040-0.019v-0.132c0-0.921-0.048-1.813-0.139-2.668h-9.059c-0.089 0.797-0.14 1.721-0.14 2.657 0 1.416 0.116 2.805 0.34 4.157l-0.020-0.147h5.516c-0.236 0.585-0.402 1.264-0.467 1.971l-0.002 0.029h-4.617c0.869 3.22 2.381 5.336 3.92 5.336 0.605 0 1.208-0.329 1.768-0.925 0.481 0.821 1.109 1.629 1.865 2.424-1.156 0.327-2.375 0.501-3.635 0.501-7.364 0-13.332-5.971-13.332-13.335-0.001-7.365 5.968-13.336 13.333-13.336zM10.011 22h-3.629c1.293 2.045 3.164 3.622 5.382 4.519l0.076 0.027c-0.696-1.093-1.271-2.461-1.693-4.020l-0.136-0.527zM9.459 13.332h-4.477l-0.007 0.023c-0.196 0.789-0.308 1.695-0.308 2.628 0 0.006 0 0.012 0 0.018v-0.001c0 0.005 0 0.010 0 0.015 0 1.432 0.266 2.801 0.752 4.062l-0.026-0.077h4.231c-0.184-1.186-0.289-2.555-0.289-3.947 0-0.019 0-0.037 0-0.056v0.003c0-0.912 0.043-1.805 0.127-2.668zM11.841 5.452l-0.031 0.011c-2.746 1.117-4.91 3.192-6.115 5.8l-0.029 0.070h4.064c0.419-2.336 1.147-4.371 2.111-5.88zM16.001 4.664l-0.156 0.007c-1.685 0.156-3.316 2.824-4.072 6.663h8.456c-0.755-3.827-2.377-6.492-4.060-6.66l-0.169-0.009zM20.161 5.451l0.141 0.233c0.893 1.483 1.569 3.429 1.967 5.649h4.064c-1.18-2.562-3.206-4.567-5.713-5.691l-0.072-0.029-0.387-0.161zM30 22.667c0-3.314-2.686-6-6-6s-6 2.686-6 6v0c0 2.484 1.892 5.087 5.6 7.867 0.11 0.083 0.249 0.133 0.4 0.133s0.29-0.050 0.402-0.135l-0.002 0.001c3.707-2.78 5.6-5.383 5.6-7.867zM22 22.667c-0-0.015-0.001-0.033-0.001-0.052 0-1.105 0.895-2 2-2s2 0.895 2 2c0 0.018-0 0.036-0.001 0.054l0-0.003c0 1.105-0.895 2-2 2s-2-0.895-2-2v0z"></path>
</svg>
