<!-- Generated by IcoMoon.io -->
<svg version="1.1" xmlns="http://www.w3.org/2000/svg" width="32" height="32" viewBox="0 0 32 32">
<title>globe-surface-regular</title>
<path d="M27.333 14c0-6.259-5.074-11.333-11.333-11.333s-11.333 5.074-11.333 11.333v0c0 6.259 5.074 11.333 11.333 11.333s11.333-5.074 11.333-11.333v0zM17.961 21.163c-0.888 1.887-1.719 2.171-1.961 2.171s-1.073-0.284-1.961-2.171c-0.409-0.871-0.755-1.943-0.996-3.163h5.915c-0.241 1.22-0.587 2.293-0.996 3.163zM12.667 14c0-0.689 0.032-1.359 0.091-2h6.485c0.058 0.599 0.092 1.296 0.092 2s-0.033 1.401-0.098 2.088l0.007-0.088h-6.485c-0.058-0.597-0.091-1.29-0.091-1.991 0-0.003 0-0.007 0-0.010v0.001zM19.427 22.684c0.695-1.24 1.24-2.848 1.565-4.684h3.443c-1.033 2.137-2.79 3.789-4.945 4.662l-0.063 0.022zM21.251 16c0.053-0.599 0.084-1.296 0.084-2s-0.030-1.401-0.090-2.090l0.006 0.090h3.867c0.137 0.601 0.216 1.291 0.216 2s-0.079 1.399-0.228 2.063l0.012-0.063h-3.867zM6.88 16c-0.137-0.601-0.216-1.291-0.216-2s0.079-1.399 0.228-2.063l-0.012 0.063h3.868c-0.053 0.599-0.084 1.296-0.084 2s0.030 1.401 0.090 2.090l-0.006-0.090h-3.867zM11.007 18c0.327 1.836 0.871 3.445 1.565 4.684-2.218-0.895-3.974-2.547-4.982-4.628l-0.024-0.056h3.443zM18.956 10h-5.913c0.241-1.22 0.587-2.293 0.996-3.163 0.888-1.887 1.719-2.171 1.961-2.171s1.073 0.284 1.961 2.171c0.409 0.871 0.755 1.943 0.996 3.163zM24.433 10h-3.443c-0.327-1.836-0.871-3.445-1.565-4.684 2.219 0.895 3.976 2.547 4.985 4.628l0.024 0.056zM11.007 10h-3.441c1.033-2.137 2.79-3.789 4.945-4.662l0.063-0.022c-0.695 1.24-1.24 2.848-1.565 4.684zM5.333 21.333h0.337c0.535 0.747 1.115 1.402 1.756 1.992l0.009 0.008h-1.343l-1.111 4h22.035l-1.111-4h-1.343c0.65-0.598 1.23-1.253 1.739-1.962l0.026-0.038h0.337c0 0 0 0 0 0 0.457 0 0.843 0.307 0.962 0.726l0.002 0.007 1.667 6c0.023 0.080 0.036 0.172 0.036 0.267 0 0.552-0.448 1-1 1-0 0-0 0-0 0h-24.667c-0 0-0 0-0 0-0.552 0-1-0.448-1-1 0-0.095 0.013-0.187 0.038-0.274l-0.002 0.007 1.667-6c0.121-0.426 0.506-0.733 0.964-0.733 0 0 0 0 0 0v0z"></path>
</svg>
