<!-- Generated by IcoMoon.io -->
<svg version="1.1" xmlns="http://www.w3.org/2000/svg" width="32" height="32" viewBox="0 0 32 32">
<title>globe-clock</title>
<path d="M29.337 16.002c0-7.365-5.97-13.335-13.335-13.335s-13.335 5.97-13.335 13.335c0 7.365 5.97 13.335 13.335 13.335 0.351 0 0.699-0.014 1.043-0.041-0.563-0.594-1.043-1.267-1.421-2.002-1.404-0.313-2.742-2.339-3.54-5.293l2.685-0c0.108-0.697 0.298-1.367 0.562-2l-3.677 0c-0.205-1.24-0.32-2.587-0.32-4 0-0.921 0.049-1.814 0.139-2.667h9.058c0.060 0.568 0.102 1.153 0.122 1.754 0.634-0.206 1.299-0.341 1.988-0.394-0.021-0.46-0.054-0.914-0.097-1.361l4.477-0.001c0.165 0.685 0.268 1.393 0.303 2.12l0.010 0.424-0.005-0.236c0.721 0.375 1.383 0.849 1.968 1.404 0.027-0.344 0.040-0.692 0.040-1.043zM6.383 22.002l3.63 0c0.432 1.778 1.055 3.333 1.829 4.547-2.27-0.896-4.181-2.503-5.459-4.547zM4.977 13.357l0.006-0.023 0.019 0 4.458-0c-0.083 0.863-0.127 1.755-0.127 2.668 0 1.39 0.101 2.734 0.29 4l-4.231 0.001c-0.469-1.244-0.726-2.592-0.726-4 0-0.911 0.107-1.796 0.31-2.645zM11.813 5.466l0.031-0.012c-0.963 1.51-1.693 3.544-2.11 5.881l-4.064-0.001c1.206-2.666 3.414-4.783 6.144-5.869zM15.848 4.674l0.154-0.007c1.741 0 3.448 2.714 4.228 6.668h-8.457c0.757-3.838 2.387-6.507 4.074-6.661zM20.305 5.686l-0.142-0.232c2.743 1.083 4.963 3.205 6.173 5.881l-4.064 0.001c-0.397-2.219-1.074-4.166-1.967-5.649z"></path>
<path d="M30.667 23.333c0-4.050-3.283-7.333-7.333-7.333s-7.333 3.283-7.333 7.333c0 4.050 3.283 7.333 7.333 7.333s7.333-3.283 7.333-7.333zM23.333 23.333h2.667c0.368 0 0.667 0.299 0.667 0.667s-0.299 0.667-0.667 0.667h-3.333c-0.364 0-0.66-0.292-0.667-0.655l-0-0.012v-4c0-0.368 0.299-0.667 0.667-0.667s0.667 0.299 0.667 0.667v3.333z"></path>
</svg>
