<!-- Generated by IcoMoon.io -->
<svg version="1.1" xmlns="http://www.w3.org/2000/svg" width="32" height="32" viewBox="0 0 32 32">
<title>globe-video-regular</title>
<path d="M2 16c0-7.364 5.969-13.333 13.333-13.333 7.091 0 12.888 5.535 13.309 12.519-0.53 0.060-1.009 0.236-1.425 0.503l0.013-0.008c-0.078-0.082-0.157-0.159-0.239-0.233l-0.004-0.003c-0.054-1.13-0.26-2.192-0.599-3.194l0.024 0.082h-4.667c0.092 0.648 0.16 1.316 0.203 2h-1.671c-0.051-0.768-0.129-1.455-0.235-2.133l0.017 0.133h-9.453c-0.174 1.090-0.273 2.348-0.273 3.628 0 0.014 0 0.027 0 0.041v-0.002c0 1.413 0.117 2.758 0.327 4h2.34v1.667h-1.987c0.291 1.135 0.665 2.152 1.097 3.016 0.291 0.583 0.591 1.065 0.89 1.459v1.237c0 0.648 0.143 1.263 0.398 1.816-6.447-0.937-11.398-6.487-11.398-13.194zM15.333 4.333c-0.869 0-2.105 0.748-3.223 2.984-0.474 0.948-0.877 2.080-1.179 3.349h8.805c-0.302-1.27-0.705-2.401-1.179-3.349-1.118-2.236-2.353-2.984-3.223-2.984zM19.059 4.941c1.043 1.409 1.877 3.393 2.387 5.726h4.267c-1.404-2.685-3.741-4.721-6.571-5.701l-0.082-0.025zM11.608 27.059c-0.993-1.341-1.797-3.205-2.311-5.393h-4.165c1.423 2.521 3.682 4.429 6.393 5.368l0.082 0.025zM8.972 20c-0.194-1.191-0.305-2.564-0.305-3.962 0-0.013 0-0.026 0-0.040v0.002c0-1.271 0.089-2.502 0.255-3.667h-4.667c-0.373 1.091-0.588 2.348-0.588 3.655 0 0.004 0 0.008 0 0.012v-0.001c0 1.405 0.249 2.753 0.704 4h4.601zM9.221 10.667c0.509-2.333 1.343-4.317 2.387-5.726-2.912 1.005-5.249 3.041-6.623 5.662l-0.031 0.064h4.267zM16.675 29.267c-0.787-0.281-1.341-1.020-1.341-1.889v-8.711c0-1.105 0.895-2 2-2v0h6.755c1.105 0 2 0.895 2 2v0 0.533l2.367-1.533c0.038-0.025 0.077-0.047 0.115-0.065 0.647-0.311 1.429 0.156 1.429 0.904v8.987c0 0.793-0.879 1.271-1.544 0.84l-2.367-1.534v0.578c0 1.105-0.895 2-2 2v0h-6.756c-0.231 0-0.453-0.039-0.659-0.111z"></path>
</svg>
