<!-- Generated by IcoMoon.io -->
<svg version="1.1" xmlns="http://www.w3.org/2000/svg" width="32" height="32" viewBox="0 0 32 32">
<title>globe</title>
<path d="M16 30c7.732 0 14-6.268 14-14s-6.268-14-14-14-14 6.268-14 14 6.268 14 14 14zM16 4c1.032 0 2.283 0.948 3.335 3.227 0.373 0.81 0.698 1.743 0.96 2.773h-8.59c0.262-1.030 0.587-1.964 0.96-2.773 1.052-2.279 2.303-3.227 3.335-3.227zM10.85 6.389c-0.49 1.060-0.896 2.278-1.201 3.611h-4.044c1.394-2.38 3.514-4.205 6.052-5.194l0.082-0.028c-0.305 0.457-0.602 0.985-0.859 1.536l-0.031 0.074zM9.278 12c-0.177 1.189-0.278 2.561-0.278 3.957 0 0.015 0 0.030 0 0.045v-0.002c0 1.386 0.097 2.73 0.279 4h-4.596c-0.433-1.187-0.683-2.558-0.683-3.987 0-0.004 0-0.009 0-0.013v0.001c0-1.402 0.24-2.749 0.683-4h4.596zM9.648 22c0.305 1.333 0.711 2.551 1.2 3.611 0.263 0.57 0.56 1.112 0.89 1.61-2.619-1.017-4.739-2.842-6.102-5.164l-0.031-0.057h4.045zM11.705 22h8.588c-0.267 1.069-0.595 1.992-1.001 2.873l0.041-0.1c-1.049 2.279-2.3 3.227-3.333 3.227s-2.283-0.948-3.335-3.227c-0.365-0.781-0.693-1.704-0.936-2.662l-0.024-0.111zM20.698 20h-9.398c-0.191-1.187-0.3-2.555-0.3-3.948 0-0.018 0-0.036 0-0.055v0.003c0-1.407 0.107-2.752 0.3-4h9.4c0.193 1.248 0.3 2.593 0.3 4s-0.107 2.752-0.3 4zM22.35 22h4.044c-1.394 2.379-3.514 4.204-6.052 5.193l-0.082 0.028c0.33-0.498 0.627-1.040 0.89-1.61 0.489-1.060 0.895-2.278 1.2-3.611zM27.316 20h-4.596c0.182-1.27 0.279-2.614 0.279-4s-0.097-2.73-0.279-4h4.596c0.433 1.188 0.684 2.56 0.684 3.99 0 0.004 0 0.007 0 0.010v-0.001c0 1.402-0.24 2.749-0.683 4zM20.261 4.778c2.62 1.017 4.74 2.842 6.103 5.165l0.031 0.057h-4.045c-0.305-1.333-0.711-2.551-1.2-3.611-0.288-0.625-0.585-1.153-0.918-1.655l0.028 0.045z"></path>
</svg>
