<!-- Generated by IcoMoon.io -->
<svg version="1.1" xmlns="http://www.w3.org/2000/svg" width="32" height="32" viewBox="0 0 32 32">
<title>globe</title>
<path d="M16 2.665c7.365 0 13.335 5.97 13.335 13.335s-5.97 13.335-13.335 13.335c-7.365 0-13.335-5.97-13.335-13.335s5.97-13.335 13.335-13.335zM19.919 22h-7.837c0.869 3.219 2.381 5.336 3.919 5.336s3.049-2.117 3.919-5.336zM10.011 22.001l-3.63-0c1.278 2.044 3.189 3.652 5.459 4.548-0.696-1.093-1.271-2.461-1.694-4.021l-0.135-0.527zM25.619 22.001l-3.63 0c-0.432 1.778-1.055 3.333-1.83 4.547 2.129-0.84 3.942-2.305 5.213-4.169l0.247-0.378zM9.458 13.333h-4.477l-0.006 0.023c-0.203 0.849-0.31 1.734-0.31 2.645 0 1.408 0.257 2.756 0.726 4l4.231-0.001c-0.19-1.265-0.29-2.61-0.29-4 0-0.912 0.043-1.804 0.127-2.668zM20.529 13.333h-9.058c-0.091 0.854-0.139 1.747-0.139 2.667 0 1.413 0.115 2.76 0.32 4h8.698c0.205-1.24 0.32-2.587 0.32-4 0-0.921-0.049-1.814-0.139-2.667zM27.019 13.332l-4.477 0.001c0.083 0.863 0.127 1.756 0.127 2.668 0 1.39-0.101 2.734-0.29 4l4.231 0.001c0.469-1.244 0.726-2.592 0.726-4 0-0.919-0.109-1.813-0.316-2.669zM11.841 5.453l-0.031 0.012c-2.73 1.086-4.938 3.203-6.144 5.869l4.064 0c0.418-2.337 1.147-4.372 2.11-5.881zM16 4.665l-0.154 0.007c-1.687 0.154-3.317 2.824-4.074 6.661h8.457c-0.755-3.827-2.378-6.492-4.060-6.66l-0.168-0.008zM20.16 5.453l0.142 0.232c0.892 1.483 1.57 3.43 1.967 5.649l4.064-0c-1.153-2.549-3.221-4.595-5.785-5.719l-0.388-0.162z"></path>
</svg>
