<!-- Generated by IcoMoon.io -->
<svg version="1.1" xmlns="http://www.w3.org/2000/svg" width="32" height="32" viewBox="0 0 32 32">
<title>grid-dots-regular</title>
<path d="M16 24c1.262 0 2.286 1.023 2.286 2.286s-1.023 2.286-2.286 2.286v0c-1.262 0-2.286-1.023-2.286-2.286s1.023-2.286 2.286-2.286v0zM26.286 24c1.262 0 2.286 1.023 2.286 2.286s-1.023 2.286-2.286 2.286v0c-1.262 0-2.286-1.023-2.286-2.286s1.023-2.286 2.286-2.286v0zM5.714 24c1.262 0 2.286 1.023 2.286 2.286s-1.023 2.286-2.286 2.286v0c-1.262 0-2.286-1.023-2.286-2.286s1.023-2.286 2.286-2.286v0zM16 13.714c1.262 0 2.286 1.023 2.286 2.286s-1.023 2.286-2.286 2.286v0c-1.262 0-2.286-1.023-2.286-2.286s1.023-2.286 2.286-2.286v0zM26.286 13.714c1.262 0 2.286 1.023 2.286 2.286s-1.023 2.286-2.286 2.286v0c-1.262 0-2.286-1.023-2.286-2.286s1.023-2.286 2.286-2.286v0zM5.714 13.714c1.262 0 2.286 1.023 2.286 2.286s-1.023 2.286-2.286 2.286v0c-1.262 0-2.286-1.023-2.286-2.286s1.023-2.286 2.286-2.286v0zM16 3.429c1.262 0 2.286 1.023 2.286 2.286s-1.023 2.286-2.286 2.286v0c-1.262 0-2.286-1.023-2.286-2.286s1.023-2.286 2.286-2.286v0zM26.286 3.429c1.262 0 2.286 1.023 2.286 2.286s-1.023 2.286-2.286 2.286v0c-1.262 0-2.286-1.023-2.286-2.286s1.023-2.286 2.286-2.286v0zM5.714 3.429c1.262 0 2.286 1.023 2.286 2.286s-1.023 2.286-2.286 2.286v0c-1.262 0-2.286-1.023-2.286-2.286s1.023-2.286 2.286-2.286v0z"></path>
</svg>
