<!-- Generated by IcoMoon.io -->
<svg version="1.1" xmlns="http://www.w3.org/2000/svg" width="32" height="32" viewBox="0 0 32 32">
<title>grid-circles</title>
<path d="M14.857 9.143c0-3.156-2.558-5.714-5.714-5.714s-5.714 2.558-5.714 5.714v0c0 3.156 2.558 5.714 5.714 5.714s5.714-2.558 5.714-5.714v0zM12.714 9.143c0 1.972-1.599 3.571-3.571 3.571s-3.571-1.599-3.571-3.571v0c0-1.972 1.599-3.571 3.571-3.571s3.571 1.599 3.571 3.571v0zM28.571 9.143c0-3.156-2.558-5.714-5.714-5.714s-5.714 2.558-5.714 5.714v0c0 3.156 2.558 5.714 5.714 5.714s5.714-2.558 5.714-5.714v0zM26.429 9.143c0 1.972-1.599 3.571-3.571 3.571s-3.571-1.599-3.571-3.571v0c0-1.972 1.599-3.571 3.571-3.571s3.571 1.599 3.571 3.571v0zM9.143 28.571c-3.156 0-5.714-2.558-5.714-5.714s2.558-5.714 5.714-5.714v0c3.156 0 5.714 2.558 5.714 5.714s-2.558 5.714-5.714 5.714v0zM9.143 26.429c1.972 0 3.571-1.599 3.571-3.571s-1.599-3.571-3.571-3.571v0c-1.972 0-3.571 1.599-3.571 3.571s1.599 3.571 3.571 3.571v0zM28.571 22.857c0-3.156-2.558-5.714-5.714-5.714s-5.714 2.558-5.714 5.714v0c0 3.156 2.558 5.714 5.714 5.714s5.714-2.558 5.714-5.714v0zM26.429 22.857c0 1.972-1.599 3.571-3.571 3.571s-3.571-1.599-3.571-3.571v0c0-1.972 1.599-3.571 3.571-3.571s3.571 1.599 3.571 3.571v0z"></path>
</svg>
