<!-- Generated by IcoMoon.io -->
<svg version="1.1" xmlns="http://www.w3.org/2000/svg" width="32" height="32" viewBox="0 0 32 32">
<title>grid</title>
<path d="M12.286 17.143c1.42 0 2.571 1.151 2.571 2.571v0 6.286c0 1.42-1.151 2.571-2.571 2.571v0h-6.286c-1.42 0-2.571-1.151-2.571-2.571v0-6.286c0-1.42 1.151-2.571 2.571-2.571v0h6.286zM26 17.143c1.42 0 2.571 1.151 2.571 2.571v0 6.286c0 1.42-1.151 2.571-2.571 2.571v0h-6.286c-1.42 0-2.571-1.151-2.571-2.571v0-6.286c0-1.42 1.151-2.571 2.571-2.571v0h6.286zM12.286 18.857h-6.286c-0.473 0-0.857 0.384-0.857 0.857v0 6.286c0 0.473 0.384 0.857 0.857 0.857h6.286c0.473 0 0.857-0.384 0.857-0.857v0-6.286c0-0.473-0.384-0.857-0.857-0.857v0zM26 18.857h-6.286c-0.473 0-0.857 0.384-0.857 0.857v0 6.286c0 0.473 0.384 0.857 0.857 0.857h6.286c0.473 0 0.857-0.384 0.857-0.857v0-6.286c0-0.473-0.384-0.857-0.857-0.857v0zM12.286 3.429c1.42 0 2.571 1.151 2.571 2.571v0 6.286c0 1.42-1.151 2.571-2.571 2.571v0h-6.286c-1.42 0-2.571-1.151-2.571-2.571v0-6.286c0-1.42 1.151-2.571 2.571-2.571v0h6.286zM26 3.429c1.42 0 2.571 1.151 2.571 2.571v0 6.286c0 1.42-1.151 2.571-2.571 2.571v0h-6.286c-1.42 0-2.571-1.151-2.571-2.571v0-6.286c0-1.42 1.151-2.571 2.571-2.571v0h6.286zM12.286 5.143h-6.286c-0.473 0-0.857 0.384-0.857 0.857v0 6.286c0 0.473 0.384 0.857 0.857 0.857h6.286c0.473 0 0.857-0.384 0.857-0.857v0-6.286c0-0.473-0.384-0.857-0.857-0.857v0zM26 5.143h-6.286c-0.473 0-0.857 0.384-0.857 0.857v0 6.286c0 0.473 0.384 0.857 0.857 0.857h6.286c0.473 0 0.857-0.384 0.857-0.857v0-6.286c0-0.473-0.384-0.857-0.857-0.857v0z"></path>
</svg>
