<!-- Generated by IcoMoon.io -->
<svg version="1.1" xmlns="http://www.w3.org/2000/svg" width="32" height="32" viewBox="0 0 32 32">
<title>grid</title>
<path d="M11.667 17.333c1.657 0 3 1.343 3 3v4.667c0 1.657-1.343 3-3 3h-4.667c-1.657 0-3-1.343-3-3v-4.667c0-1.657 1.343-3 3-3h4.667zM25 17.333c1.657 0 3 1.343 3 3v4.667c0 1.657-1.343 3-3 3h-4.667c-1.657 0-3-1.343-3-3v-4.667c0-1.657 1.343-3 3-3h4.667zM11.667 19.333h-4.667c-0.552 0-1 0.448-1 1v4.667c0 0.552 0.448 1 1 1h4.667c0.552 0 1-0.448 1-1v-4.667c0-0.552-0.448-1-1-1zM25 19.333h-4.667c-0.552 0-1 0.448-1 1v4.667c0 0.552 0.448 1 1 1h4.667c0.552 0 1-0.448 1-1v-4.667c0-0.552-0.448-1-1-1zM11.667 4c1.657 0 3 1.343 3 3v4.667c0 1.657-1.343 3-3 3h-4.667c-1.657 0-3-1.343-3-3v-4.667c0-1.657 1.343-3 3-3h4.667zM25 4c1.657 0 3 1.343 3 3v4.667c0 1.657-1.343 3-3 3h-4.667c-1.657 0-3-1.343-3-3v-4.667c0-1.657 1.343-3 3-3h4.667zM11.667 6h-4.667c-0.552 0-1 0.448-1 1v4.667c0 0.552 0.448 1 1 1h4.667c0.552 0 1-0.448 1-1v-4.667c0-0.552-0.448-1-1-1zM25 6h-4.667c-0.552 0-1 0.448-1 1v4.667c0 0.552 0.448 1 1 1h4.667c0.552 0 1-0.448 1-1v-4.667c0-0.552-0.448-1-1-1z"></path>
</svg>
