<!-- Generated by IcoMoon.io -->
<svg version="1.1" xmlns="http://www.w3.org/2000/svg" width="32" height="32" viewBox="0 0 32 32">
<title>grid-kanban</title>
<path d="M3.2 4.8c0-0.884 0.716-1.6 1.6-1.6v0h8c0.884 0 1.6 0.716 1.6 1.6v0 3.2c0 0.884-0.716 1.6-1.6 1.6v0h-8c-0.884 0-1.6-0.716-1.6-1.6v0-3.2zM12.8 4.8h-8v3.2h8v-3.2zM3.2 14.4c0-0.884 0.716-1.6 1.6-1.6v0h8c0.884 0 1.6 0.716 1.6 1.6v0 3.2c0 0.884-0.716 1.6-1.6 1.6v0h-8c-0.884 0-1.6-0.716-1.6-1.6v0-3.2zM12.8 14.4h-8v3.2h8v-3.2zM4.8 22.4c-0.884 0-1.6 0.716-1.6 1.6v0 3.2c0 0.884 0.716 1.6 1.6 1.6v0h8c0.884 0 1.6-0.716 1.6-1.6v0-3.2c0-0.884-0.716-1.6-1.6-1.6v0h-8zM4.8 24h8v3.2h-8v-3.2zM17.6 4.8c0-0.884 0.716-1.6 1.6-1.6v0h8c0.884 0 1.6 0.716 1.6 1.6v0 3.2c0 0.884-0.716 1.6-1.6 1.6v0h-8c-0.884 0-1.6-0.716-1.6-1.6v0-3.2zM27.2 4.8h-8v3.2h8v-3.2zM19.2 12.8c-0.884 0-1.6 0.716-1.6 1.6v0 3.2c0 0.884 0.716 1.6 1.6 1.6v0h8c0.884 0 1.6-0.716 1.6-1.6v0-3.2c0-0.884-0.716-1.6-1.6-1.6v0h-8zM19.2 14.4h8v3.2h-8v-3.2z"></path>
</svg>
