<!-- Generated by IcoMoon.io -->
<svg version="1.1" xmlns="http://www.w3.org/2000/svg" width="32" height="32" viewBox="0 0 32 32">
<title>group-dismiss</title>
<path d="M9.333 6.667c0 1.473-1.194 2.667-2.667 2.667s-2.667-1.194-2.667-2.667v0c0-1.473 1.194-2.667 2.667-2.667s2.667 1.194 2.667 2.667v0zM28 6.667c0 1.473-1.194 2.667-2.667 2.667s-2.667-1.194-2.667-2.667v0c0-1.473 1.194-2.667 2.667-2.667s2.667 1.194 2.667 2.667v0zM9.333 25.333c0 1.473-1.194 2.667-2.667 2.667s-2.667-1.194-2.667-2.667v0c0-1.473 1.194-2.667 2.667-2.667s2.667 1.194 2.667 2.667v0zM10.667 6.667c0 0.227-0.019 0.449-0.055 0.667h6.055c0.736 0 1.333 0.597 1.333 1.333v0 3.333h-2.667c-1.841 0-3.333 1.492-3.333 3.333v0 2.667h-3.333c-0.736 0-1.333-0.597-1.333-1.333v0-6.055c-0.199 0.035-0.429 0.055-0.663 0.055-0.479 0-0.939-0.084-1.365-0.237l0.028 0.009v6.228c0 1.841 1.492 3.333 3.333 3.333v0h3.333v3.333c0 1.84 1.491 3.332 3.331 3.333h0c-0.266-0.618-0.469-1.337-0.576-2.088l-0.005-0.046c-0.447-0.221-0.749-0.675-0.749-1.199 0-0 0-0.001 0-0.001v0-8c0-0.736 0.597-1.333 1.333-1.333v0h8c0 0 0.001 0 0.001 0 0.524 0 0.977 0.302 1.195 0.742l0.003 0.008c0.745 0.103 1.46 0.301 2.133 0.581-0.002-1.84-1.493-3.331-3.333-3.331h-3.333v-3.333c0-1.841-1.492-3.333-3.333-3.333v0h-6.227c0.147 0.417 0.227 0.867 0.227 1.333zM30.667 23.333c0 4.050-3.283 7.333-7.333 7.333s-7.333-3.283-7.333-7.333v0c0-4.050 3.283-7.333 7.333-7.333s7.333 3.283 7.333 7.333v0zM23.333 22.391l-2.195-2.196c-0.121-0.121-0.288-0.195-0.472-0.195-0.369 0-0.668 0.299-0.668 0.668 0 0.184 0.075 0.351 0.195 0.472v0l2.196 2.195-2.196 2.195c-0.121 0.121-0.195 0.288-0.195 0.472 0 0.369 0.299 0.668 0.668 0.668 0.184 0 0.351-0.075 0.472-0.195l2.195-2.196 2.195 2.196c0.121 0.121 0.288 0.195 0.472 0.195 0.369 0 0.668-0.299 0.668-0.668 0-0.184-0.075-0.351-0.195-0.472l-2.196-2.195 2.196-2.195c0.121-0.121 0.195-0.288 0.195-0.472 0-0.369-0.299-0.668-0.668-0.668-0.184 0-0.351 0.075-0.472 0.195l-2.195 2.196z"></path>
</svg>
