<!-- Generated by IcoMoon.io -->
<svg version="1.1" xmlns="http://www.w3.org/2000/svg" width="32" height="32" viewBox="0 0 32 32">
<title>group-dismiss</title>
<path d="M9.333 6.667c0 1.473-1.194 2.667-2.667 2.667s-2.667-1.194-2.667-2.667c0-1.473 1.194-2.667 2.667-2.667s2.667 1.194 2.667 2.667zM28 6.667c0 1.473-1.194 2.667-2.667 2.667s-2.667-1.194-2.667-2.667c0-1.473 1.194-2.667 2.667-2.667s2.667 1.194 2.667 2.667zM9.333 25.333c0 1.473-1.194 2.667-2.667 2.667s-2.667-1.194-2.667-2.667c0-1.473 1.194-2.667 2.667-2.667s2.667 1.194 2.667 2.667zM10.667 6.667c0 0.227-0.019 0.45-0.055 0.667h6.055c0.736 0 1.333 0.597 1.333 1.333v3.333h-2.667c-1.841 0-3.333 1.492-3.333 3.333v2.667h-3.333c-0.736 0-1.333-0.597-1.333-1.333v-6.055c-0.217 0.036-0.44 0.055-0.667 0.055-0.468 0-0.916-0.080-1.333-0.228v6.228c0 1.841 1.492 3.333 3.333 3.333h3.333v3.333c0 1.84 1.491 3.332 3.331 3.333-0.281-0.673-0.479-1.389-0.582-2.135-0.443-0.217-0.749-0.672-0.749-1.199v-8c0-0.736 0.597-1.333 1.333-1.333h8c0.527 0 0.982 0.305 1.199 0.749 0.746 0.103 1.462 0.301 2.135 0.582-0.001-1.84-1.493-3.331-3.333-3.331h-3.333v-3.333c0-1.841-1.492-3.333-3.333-3.333h-6.228c0.147 0.417 0.228 0.866 0.228 1.333zM30.667 23.333c0 4.050-3.283 7.333-7.333 7.333s-7.333-3.283-7.333-7.333c0-4.050 3.283-7.333 7.333-7.333s7.333 3.283 7.333 7.333zM23.333 22.391l-2.195-2.195c-0.26-0.26-0.683-0.26-0.943 0s-0.26 0.683 0 0.943l2.195 2.195-2.195 2.195c-0.26 0.26-0.26 0.683 0 0.943s0.683 0.26 0.943 0l2.195-2.195 2.195 2.195c0.26 0.26 0.683 0.26 0.943 0s0.26-0.683 0-0.943l-2.195-2.195 2.195-2.195c0.26-0.26 0.26-0.683 0-0.943s-0.683-0.26-0.943 0l-2.195 2.195z"></path>
</svg>
