<!-- Generated by IcoMoon.io -->
<svg version="1.1" xmlns="http://www.w3.org/2000/svg" width="32" height="32" viewBox="0 0 32 32">
<title>group-list-regular</title>
<path d="M3.671 15.995l3.333 0.015c0 0 0 0 0 0 0.552 0 1 0.448 1 1 0 0.508-0.378 0.927-0.869 0.991l-0.005 0.001-0.136 0.008-2.328-0.012v7.335l2.333 0.001c0.504 0.001 0.92 0.374 0.989 0.859l0.001 0.005 0.011 0.136c-0 0.504-0.373 0.921-0.859 0.99l-0.005 0.001-0.136 0.009h-3.333c-0.504-0.001-0.92-0.374-0.989-0.859l-0.001-0.005-0.011-0.136v-9.339c0-0 0-0 0-0.001 0-0.506 0.375-0.924 0.863-0.991l0.005-0.001 0.136-0.008zM28.327 23.333c0.552 0 1 0.448 1 1 0 0.504-0.373 0.921-0.858 0.99l-0.005 0.001-0.136 0.009h-17.996c-0.552-0.001-0.998-0.448-0.998-1 0-0.504 0.373-0.921 0.858-0.99l0.005-0.001 0.135-0.009h17.996zM28.327 18c0.552 0 1 0.448 1 1 0 0.504-0.373 0.921-0.858 0.99l-0.005 0.001-0.136 0.009h-17.996c-0.552-0.001-0.998-0.448-0.998-1 0-0.504 0.373-0.921 0.858-0.99l0.005-0.001 0.135-0.009h17.996zM3.671 3.333l3.333 0.015c0 0 0 0 0 0 0.552 0 1 0.448 1 1 0 0.508-0.378 0.927-0.869 0.991l-0.005 0.001-0.136 0.008-2.328-0.011v7.323h2.333c0.504 0.001 0.92 0.374 0.989 0.859l0.001 0.005 0.009 0.136c-0 0.504-0.373 0.921-0.859 0.99l-0.005 0.001-0.136 0.009h-3.333c-0.504-0.001-0.92-0.374-0.989-0.859l-0.001-0.005-0.009-0.136v-9.327c0-0 0-0 0-0.001 0-0.506 0.375-0.924 0.863-0.991l0.005-0.001 0.136-0.008zM28.327 10.672c0.552 0 1 0.448 1 1 0 0.504-0.373 0.921-0.858 0.99l-0.005 0.001-0.136 0.009h-17.996c-0.552-0.001-0.998-0.448-0.998-1 0-0.504 0.373-0.921 0.858-0.99l0.005-0.001 0.135-0.009h17.996zM28.333 5.339c0.552 0 1 0.448 1 1 0 0.504-0.373 0.921-0.858 0.99l-0.005 0.001-0.136 0.009h-17.995c-0.552-0-1-0.448-1-1 0-0.504 0.373-0.921 0.858-0.99l0.005-0.001 0.136-0.009h17.995z"></path>
</svg>
