<!-- Generated by IcoMoon.io -->
<svg version="1.1" xmlns="http://www.w3.org/2000/svg" width="32" height="32" viewBox="0 0 32 32">
<title>group</title>
<path d="M6.667 9.333c1.473 0 2.667-1.194 2.667-2.667s-1.194-2.667-2.667-2.667c-1.473 0-2.667 1.194-2.667 2.667s1.194 2.667 2.667 2.667z"></path>
<path d="M25.333 9.333c1.473 0 2.667-1.194 2.667-2.667s-1.194-2.667-2.667-2.667c-1.473 0-2.667 1.194-2.667 2.667s1.194 2.667 2.667 2.667z"></path>
<path d="M28 25.333c0 1.473-1.194 2.667-2.667 2.667s-2.667-1.194-2.667-2.667c0-1.473 1.194-2.667 2.667-2.667s2.667 1.194 2.667 2.667z"></path>
<path d="M6.667 28c1.473 0 2.667-1.194 2.667-2.667s-1.194-2.667-2.667-2.667c-1.473 0-2.667 1.194-2.667 2.667s1.194 2.667 2.667 2.667z"></path>
<path d="M10.611 7.333c0.036-0.217 0.055-0.44 0.055-0.667 0-0.468-0.080-0.916-0.228-1.333h6.228c1.841 0 3.333 1.492 3.333 3.333v3.333h3.333c1.841 0 3.333 1.492 3.333 3.333v6.228c-0.417-0.147-0.866-0.228-1.333-0.228-0.227 0-0.45 0.019-0.667 0.055v-6.055c0-0.736-0.597-1.333-1.333-1.333h-3.333v2.667c0 1.841-1.492 3.333-3.333 3.333h-2.667v3.333c0 0.736 0.597 1.333 1.333 1.333h6.055c-0.036 0.217-0.055 0.439-0.055 0.667 0 0.467 0.080 0.916 0.228 1.333h-6.228c-1.841 0-3.333-1.492-3.333-3.333v-3.333h-3.333c-1.841 0-3.333-1.492-3.333-3.333v-6.228c0.417 0.147 0.866 0.228 1.333 0.228 0.227 0 0.45-0.019 0.667-0.055v6.055c0 0.736 0.597 1.333 1.333 1.333h3.333v-2.667c0-1.841 1.492-3.333 3.333-3.333h2.667v-3.333c0-0.736-0.597-1.333-1.333-1.333h-6.055zM16.667 18c0.736 0 1.333-0.597 1.333-1.333v-2.667h-2.667c-0.736 0-1.333 0.597-1.333 1.333v2.667h2.667z"></path>
</svg>
