<!-- Generated by IcoMoon.io -->
<svg version="1.1" xmlns="http://www.w3.org/2000/svg" width="32" height="32" viewBox="0 0 32 32">
<title>group</title>
<path d="M6.667 9.333c1.473 0 2.667-1.194 2.667-2.667s-1.194-2.667-2.667-2.667v0c-1.473 0-2.667 1.194-2.667 2.667s1.194 2.667 2.667 2.667v0zM25.333 9.333c1.473 0 2.667-1.194 2.667-2.667s-1.194-2.667-2.667-2.667v0c-1.473 0-2.667 1.194-2.667 2.667s1.194 2.667 2.667 2.667v0zM28 25.333c0 1.473-1.194 2.667-2.667 2.667s-2.667-1.194-2.667-2.667v0c0-1.473 1.194-2.667 2.667-2.667s2.667 1.194 2.667 2.667v0zM6.667 28c1.473 0 2.667-1.194 2.667-2.667s-1.194-2.667-2.667-2.667v0c-1.473 0-2.667 1.194-2.667 2.667s1.194 2.667 2.667 2.667v0zM10.612 7.333c0.035-0.199 0.055-0.429 0.055-0.663 0-0.479-0.084-0.939-0.237-1.365l0.009 0.028h6.228c1.841 0 3.333 1.492 3.333 3.333v0 3.333h3.333c1.841 0 3.333 1.492 3.333 3.333v0 6.227c-0.396-0.145-0.854-0.228-1.331-0.228-0.236 0-0.468 0.020-0.692 0.060l0.024-0.003v-6.055c0-0.736-0.597-1.333-1.333-1.333v0h-3.333v2.667c0 1.841-1.492 3.333-3.333 3.333v0h-2.667v3.333c0 0.736 0.597 1.333 1.333 1.333v0h6.055c-0.035 0.2-0.055 0.429-0.055 0.664 0 0.479 0.084 0.938 0.237 1.364l-0.009-0.028h-6.228c-1.841 0-3.333-1.492-3.333-3.333v0-3.333h-3.333c-1.841 0-3.333-1.492-3.333-3.333v0-6.227c0.396 0.145 0.854 0.228 1.331 0.228 0.236 0 0.468-0.021 0.693-0.060l-0.024 0.003v6.055c0 0.736 0.597 1.333 1.333 1.333v0h3.333v-2.667c0-1.841 1.492-3.333 3.333-3.333v0h2.667v-3.333c0-0.736-0.597-1.333-1.333-1.333v0h-6.055zM16.667 18c0.736 0 1.333-0.597 1.333-1.333v0-2.667h-2.667c-0.736 0-1.333 0.597-1.333 1.333v0 2.667h2.667z"></path>
</svg>
