<!-- Generated by IcoMoon.io -->
<svg version="1.1" xmlns="http://www.w3.org/2000/svg" width="32" height="32" viewBox="0 0 32 32">
<title>guardian</title>
<path d="M14 6.667c0 2.209-1.791 4-4 4s-4-1.791-4-4c0-2.209 1.791-4 4-4s4 1.791 4 4zM12 6.667c0-1.105-0.895-2-2-2s-2 0.895-2 2c0 1.105 0.895 2 2 2s2-0.895 2-2zM25.333 10c0 1.841-1.492 3.333-3.333 3.333s-3.333-1.492-3.333-3.333c0-1.841 1.492-3.333 3.333-3.333s3.333 1.492 3.333 3.333zM23.333 10c0-0.736-0.597-1.333-1.333-1.333s-1.333 0.597-1.333 1.333c0 0.736 0.597 1.333 1.333 1.333s1.333-0.597 1.333-1.333zM17.862 14.333c-0.435-1.539-1.85-2.667-3.529-2.667h-8c-2.025 0-3.667 1.642-3.667 3.667v4c0 1.473 1.194 2.667 2.667 2.667 0.23 0 0.454-0.029 0.667-0.084v4.751c0 1.473 1.194 2.667 2.667 2.667 0.631 0 1.21-0.219 1.667-0.585 0.457 0.366 1.036 0.585 1.667 0.585 1.473 0 2.667-1.194 2.667-2.667v-4.751c0.213 0.055 0.437 0.084 0.667 0.084 1.243 0 2.287-0.85 2.583-2h0.084v6.667c0 1.473 1.194 2.667 2.667 2.667 0.631 0 1.21-0.219 1.667-0.585 0.457 0.366 1.036 0.585 1.667 0.585 1.473 0 2.667-1.194 2.667-2.667v-3.751c0.213 0.055 0.437 0.084 0.667 0.084 1.473 0 2.667-1.194 2.667-2.667v-2.333c0-2.025-1.642-3.667-3.667-3.667h-8.471zM14.667 19.333v-3.333c0-0.552-0.448-1-1-1s-1 0.448-1 1v10.667c0 0.368-0.298 0.667-0.667 0.667s-0.667-0.299-0.667-0.667v-4.667c0-0.552-0.448-1-1-1s-1 0.448-1 1v4.667c0 0.368-0.298 0.667-0.667 0.667s-0.667-0.299-0.667-0.667v-10.667c0-0.552-0.448-1-1-1s-1 0.448-1 1v3.333c0 0.368-0.298 0.667-0.667 0.667s-0.667-0.299-0.667-0.667v-4c0-0.921 0.746-1.667 1.667-1.667h8c0.921 0 1.667 0.746 1.667 1.667v4c0 0.368-0.299 0.667-0.667 0.667s-0.667-0.299-0.667-0.667zM18 16.333h8.333c0.921 0 1.667 0.746 1.667 1.667v2.333c0 0.368-0.299 0.667-0.667 0.667s-0.667-0.299-0.667-0.667v-1.667c0-0.552-0.448-1-1-1s-1 0.448-1 1v8c0 0.368-0.299 0.667-0.667 0.667s-0.667-0.299-0.667-0.667v-3.333c0-0.552-0.448-1-1-1s-1 0.448-1 1v3.333c0 0.368-0.299 0.667-0.667 0.667s-0.667-0.299-0.667-0.667v-7.667c0-0.552-0.448-1-1-1h-1v-1.667z"></path>
</svg>
