<!-- Generated by IcoMoon.io -->
<svg version="1.1" xmlns="http://www.w3.org/2000/svg" width="32" height="32" viewBox="0 0 32 32">
<title>guardian-regular</title>
<path d="M10.333 11.333c2.025 0 3.667-1.642 3.667-3.667s-1.642-3.667-3.667-3.667v0c-2.025 0-3.667 1.642-3.667 3.667s1.642 3.667 3.667 3.667v0zM10.333 9.667c-1.105 0-2-0.895-2-2s0.895-2 2-2v0c1.105 0 2 0.895 2 2s-0.895 2-2 2v0zM10.333 28.065c-0.422 0.367-0.976 0.591-1.583 0.591-1.335 0-2.417-1.082-2.417-2.417 0-0 0-0 0-0v0-4.669c-0.2 0.062-0.429 0.097-0.667 0.097-1.289 0-2.333-1.045-2.333-2.333 0-0 0-0 0-0.001v0-2.167c0-2.485 2.015-4.5 4.5-4.5v0h5c0.001 0 0.002 0 0.003 0 1.555 0 2.925 0.789 3.732 1.989l0.010 0.016c0.026-0.003 0.057-0.005 0.088-0.005h8.815c1.759 0 3.185 1.426 3.185 3.185v0 2.419c0 0 0 0 0 0.001 0 1.289-1.045 2.333-2.333 2.333-0.238 0-0.467-0.036-0.683-0.102l0.017 0.004v3.825c0 0 0 0 0 0 0 1.289-1.045 2.333-2.333 2.333-0.573 0-1.097-0.206-1.503-0.549l0.003 0.003c-0.403 0.34-0.927 0.546-1.5 0.546-1.289 0-2.333-1.045-2.333-2.333 0 0 0-0 0-0v0-6.667h-0.69c-0.169 1.138-1.139 2.001-2.31 2.001-0.238 0-0.467-0.036-0.683-0.102l0.017 0.004v4.669c0 0 0 0 0 0 0 1.335-1.082 2.417-2.417 2.417-0.607 0-1.162-0.224-1.586-0.593l0.003 0.002zM5 17.167v2.167c0 0.368 0.298 0.667 0.667 0.667s0.667-0.298 0.667-0.667v0-2.5c0-0.46 0.373-0.833 0.833-0.833s0.833 0.373 0.833 0.833v0 9.405c0 0.414 0.336 0.75 0.75 0.75s0.75-0.336 0.75-0.75v0-4.072c0-0.46 0.373-0.833 0.833-0.833s0.833 0.373 0.833 0.833v0 4.072c0 0.414 0.336 0.75 0.75 0.75s0.75-0.336 0.75-0.75v0-9.405c0-0.46 0.373-0.833 0.833-0.833s0.833 0.373 0.833 0.833v0 2.5c0 0.368 0.298 0.667 0.667 0.667s0.667-0.298 0.667-0.667v0-2.167c0-1.565-1.269-2.833-2.833-2.833v0h-5c-1.565 0-2.833 1.269-2.833 2.833v0zM17.256 16.333c0.051 0.27 0.077 0.549 0.077 0.833v0.833h1.471c0.476 0 0.862 0.386 0.862 0.862v7.471c0 0.368 0.298 0.667 0.667 0.667s0.667-0.298 0.667-0.667v0-3.369c0-0.46 0.373-0.833 0.833-0.833s0.833 0.373 0.833 0.833v0 3.369c0 0.368 0.298 0.667 0.667 0.667s0.667-0.298 0.667-0.667v0-7.627c0-0.46 0.373-0.833 0.833-0.833s0.833 0.373 0.833 0.833v0 1.565c0 0.368 0.298 0.667 0.667 0.667s0.667-0.298 0.667-0.667v0-2.42c-0-0.838-0.68-1.518-1.519-1.518 0 0 0 0 0 0h-8.225zM25.333 10c0 1.841-1.492 3.333-3.333 3.333s-3.333-1.492-3.333-3.333v0c0-1.841 1.492-3.333 3.333-3.333s3.333 1.492 3.333 3.333v0zM23.667 10c0-0.92-0.746-1.667-1.667-1.667s-1.667 0.746-1.667 1.667v0c0 0.92 0.746 1.667 1.667 1.667s1.667-0.746 1.667-1.667v0z"></path>
</svg>
