<!-- Generated by IcoMoon.io -->
<svg version="1.1" xmlns="http://www.w3.org/2000/svg" width="32" height="32" viewBox="0 0 32 32">
<title>guest-add</title>
<path d="M17.004 2.667c1.544 0 2.815 1.167 2.979 2.667h2.351c0 0 0 0 0 0 1.585 0 2.882 1.229 2.992 2.785l0.001 0.010 0.007 0.205v6.565c-0.599-0.147-1.287-0.232-1.995-0.232-0.002 0-0.004 0-0.005 0h0v-6.333c-0-0.504-0.373-0.921-0.859-0.99l-0.005-0.001-0.136-0.009h-2.843c-0.545 0.803-1.454 1.324-2.484 1.324-0.001 0-0.002 0-0.003 0h-4.675c-1.036 0-1.948-0.524-2.487-1.323l-2.843-0.001c-0.504 0-0.921 0.373-0.99 0.859l-0.001 0.005-0.009 0.136v18.007c0 0.507 0.376 0.924 0.864 0.991l0.136 0.009h8.647c0.404 0.765 0.883 1.422 1.441 2.003l-0.003-0.003h-10.085c-0 0-0 0-0 0-1.585 0-2.882-1.229-2.992-2.785l-0.001-0.010-0.007-0.205v-18.007c0-0 0-0 0-0 0-1.585 1.229-2.882 2.785-2.992l0.010-0.001 0.205-0.007h2.351c0.171-1.507 1.439-2.667 2.978-2.667 0 0 0.001 0 0.001 0h4.675zM17.004 4.667h-4.675c-0.534 0.020-0.96 0.458-0.96 0.995s0.425 0.975 0.958 0.995l0.002 0h4.675c0.011 0 0.024 0.001 0.036 0.001 0.55 0 0.996-0.446 0.996-0.996s-0.446-0.996-0.996-0.996c-0.013 0-0.026 0-0.038 0.001l0.002-0zM11 18.66h5.033c-0.375 0.575-0.696 1.237-0.929 1.939l-0.018 0.061h-3.753v0.331c0 1.103 0.927 1.675 3.333 1.675h0.025c-0.016 0.2-0.025 0.433-0.025 0.669 0 0.47 0.037 0.931 0.108 1.381l-0.006-0.050h-0.101c-3.371 0-5.333-1.212-5.333-3.675v-0.664c0-0.92 0.747-1.667 1.667-1.667zM14.667 10.66c1.841 0 3.333 1.492 3.333 3.333s-1.492 3.333-3.333 3.333v0c-1.841 0-3.333-1.492-3.333-3.333s1.492-3.333 3.333-3.333v0zM14.667 12.66c-0.736 0-1.333 0.597-1.333 1.333s0.597 1.333 1.333 1.333v0c0.736 0 1.333-0.597 1.333-1.333s-0.597-1.333-1.333-1.333v0zM30.667 23.333c0-4.050-3.283-7.333-7.333-7.333s-7.333 3.283-7.333 7.333v0c0 4.050 3.283 7.333 7.333 7.333s7.333-3.283 7.333-7.333v0zM24 24l0.001 3.337c0 0.368-0.298 0.667-0.667 0.667s-0.667-0.298-0.667-0.667v0-3.337h-3.34c-0.368 0-0.667-0.298-0.667-0.667s0.298-0.667 0.667-0.667v0h3.339v-3.333c0-0.368 0.298-0.667 0.667-0.667s0.667 0.298 0.667 0.667v0 3.333h3.337c0.368 0 0.667 0.298 0.667 0.667s-0.298 0.667-0.667 0.667v0h-3.336z"></path>
</svg>
