<!-- Generated by IcoMoon.io -->
<svg version="1.1" xmlns="http://www.w3.org/2000/svg" width="32" height="32" viewBox="0 0 32 32">
<title>guest</title>
<path d="M18.338 2.667c1.543 0 2.814 1.167 2.978 2.667l2.351-0.001c1.588 0 2.887 1.234 2.993 2.795l0.007 0.205v18.006c0 1.588-1.234 2.887-2.795 2.993l-0.205 0.007h-15.333c-1.588 0-2.888-1.234-2.993-2.795l-0.007-0.205v-18.006c0-1.588 1.234-2.888 2.795-2.993l0.205-0.007 2.351 0.001c0.163-1.5 1.434-2.667 2.978-2.667h4.675zM18.338 8.658h-4.675c-1.035 0-1.948-0.525-2.486-1.323l-2.843-0.001c-0.506 0-0.925 0.376-0.991 0.864l-0.009 0.136v18.006c0 0.506 0.376 0.925 0.864 0.991l0.136 0.009h15.333c0.506 0 0.925-0.376 0.991-0.864l0.009-0.136v-18.006c0-0.506-0.376-0.925-0.864-0.991l-0.136-0.009-2.843 0.001c-0.538 0.798-1.451 1.323-2.486 1.323zM19.667 18.661c0.921 0 1.667 0.746 1.667 1.667v0.666c0 2.462-1.963 3.673-5.333 3.673s-5.333-1.212-5.333-3.675v-0.663c0-0.92 0.746-1.667 1.667-1.667h7.333zM19.333 20.661h-6.667v0.33c0 1.103 0.926 1.675 3.333 1.675s3.333-0.571 3.333-1.673v-0.332zM16 10.661c1.841 0 3.333 1.492 3.333 3.333s-1.492 3.333-3.333 3.333c-1.841 0-3.333-1.492-3.333-3.333s1.492-3.333 3.333-3.333zM16 12.661c-0.736 0-1.333 0.597-1.333 1.333s0.597 1.333 1.333 1.333 1.333-0.597 1.333-1.333c0-0.736-0.597-1.333-1.333-1.333zM18.338 4.667h-4.675c-0.55 0-0.996 0.446-0.996 0.996s0.446 0.996 0.996 0.996h4.675c0.55 0 0.996-0.446 0.996-0.996s-0.446-0.996-0.996-0.996z"></path>
</svg>
