<!-- Generated by IcoMoon.io -->
<svg version="1.1" xmlns="http://www.w3.org/2000/svg" width="32" height="32" viewBox="0 0 32 32">
<title>guitar</title>
<path d="M15.512 18.78c-0.651 0.651-1.706 0.651-2.357 0s-0.651-1.706 0-2.357c0.651-0.651 1.706-0.651 2.357 0s0.651 1.706 0 2.357zM24.195 3.621c0.911-0.911 2.389-0.911 3.3 0l0.943 0.943c0.911 0.911 0.911 2.389 0 3.3l-6.801 6.801c1.212 1.785 0.622 4.319-1.401 5.331l-1.11 0.555c-0.327 0.164-0.504 0.526-0.433 0.885l0.019 0.096c0.474 2.37-0.455 4.802-2.389 6.253-3.199 2.399-7.676 2.081-10.504-0.747l-0.798-0.798c-2.828-2.828-3.146-7.305-0.747-10.504 1.45-1.934 3.882-2.863 6.253-2.389l0.096 0.019c0.359 0.072 0.721-0.105 0.884-0.433l0.555-1.11c1.012-2.023 3.546-2.613 5.331-1.401l6.801-6.801zM26.080 5.036c-0.13-0.13-0.341-0.13-0.471 0l-1.58 1.58 1.414 1.414 1.58-1.58c0.13-0.13 0.13-0.341 0-0.471l-0.943-0.943zM24.029 9.444l-1.414-1.414-4.468 4.468c-0.391 0.391-1.024 0.391-1.414 0l-0.212-0.212c-0.804-0.804-2.161-0.584-2.669 0.433l-0.555 1.11c-0.567 1.134-1.823 1.748-3.066 1.499l-0.096-0.019c-1.615-0.323-3.272 0.31-4.261 1.628-1.802 2.403-1.563 5.766 0.561 7.89l0.798 0.798c2.124 2.124 5.487 2.363 7.89 0.561 1.318-0.988 1.951-2.645 1.628-4.261l-0.019-0.096c-0.249-1.243 0.365-2.499 1.499-3.066l1.11-0.555c1.017-0.509 1.237-1.865 0.433-2.669l-0.212-0.212c-0.391-0.391-0.391-1.024 0-1.414l4.468-4.468z"></path>
</svg>
