<!-- Generated by IcoMoon.io -->
<svg version="1.1" xmlns="http://www.w3.org/2000/svg" width="32" height="32" viewBox="0 0 32 32">
<title>hand-wave</title>
<path d="M24.845 3.096c0.183-0.261 0.482-0.429 0.821-0.429 0.214 0 0.411 0.067 0.574 0.181l-0.003-0.002c1.077 0.747 1.971 2.059 2.531 3.503 0.565 1.459 0.84 3.179 0.551 4.824-0.085 0.474-0.494 0.828-0.985 0.828-0.552 0-1-0.448-1-1 0-0.061 0.005-0.12 0.016-0.178l-0.001 0.006c0.213-1.217 0.017-2.565-0.445-3.757-0.467-1.208-1.159-2.133-1.807-2.583-0.261-0.183-0.43-0.482-0.43-0.821 0-0.214 0.067-0.411 0.181-0.574l-0.002 0.003zM12.784 3.829c-0.501-0.703-1.313-1.157-2.231-1.157-1.485 0-2.693 1.185-2.73 2.661l-0 0.003c-0.006-0-0.014-0-0.022-0-1.484 0-2.687 1.203-2.687 2.687 0 0.302 0.050 0.593 0.142 0.864l-0.006-0.019 2.613 7.895c-0.148-0.012-0.32-0.019-0.494-0.019-0.674 0-1.325 0.105-1.935 0.298l0.045-0.012c-0.94 0.303-1.735 0.835-2.347 1.533l-0.005 0.006c-0.295 0.331-0.475 0.769-0.475 1.249 0 0.231 0.042 0.453 0.118 0.657l-0.004-0.013c0.204 0.577 0.659 1.040 1.215 1.293 1.887 0.856 5.699 2.824 9.003 5.983 1.367 1.307 3.361 1.964 5.284 1.388l3.449-1.032c1.329-0.397 2.319-1.516 2.52-2.891l0.002-0.019c0.192-1.401 0.427-3.523 0.427-5.517 0-2.352-0.608-4.944-1.333-7.213-0.726-2.234-1.46-4.065-2.296-5.839l0.129 0.305c-0.446-0.941-1.388-1.58-2.479-1.58-0.197 0-0.39 0.021-0.575 0.061l0.018-0.003c-0.387 0.077-0.735 0.228-1.037 0.435l-0.207-0.648c-0.354-1.086-1.357-1.857-2.541-1.857-0.587 0-1.129 0.189-1.569 0.51l0.008-0.005zM11.243 5.167l0.539 1.567c0.013 0.044 0.027 0.088 0.043 0.133l2.231 6.461c0.139 0.395 0.51 0.674 0.945 0.674 0.23 0 0.443-0.078 0.612-0.209l-0.002 0.002 0.021-0.017c0.226-0.185 0.369-0.464 0.369-0.776 0-0.117-0.020-0.229-0.057-0.334l0.002 0.007-2.249-6.528c-0.013-0.049-0.020-0.105-0.020-0.163 0-0.368 0.298-0.667 0.667-0.667 0.3 0 0.554 0.198 0.638 0.471l0.001 0.005 0.965 3.023c0.016 0.067 0.035 0.133 0.056 0.201l1.16 3.604 0.217 0.684c0.133 0.407 0.51 0.696 0.953 0.696 0.553 0 1.001-0.448 1.001-1.001 0-0.109-0.017-0.214-0.050-0.312l0.002 0.007-0.22-0.683-1.187-3.715c-0.008-0.042-0.012-0.091-0.012-0.141 0-0.393 0.279-0.721 0.65-0.797l0.005-0.001c0.049-0.012 0.105-0.018 0.163-0.018 0.291 0 0.542 0.168 0.661 0.413l0.002 0.004c0.547 1.185 1.383 3.128 2.079 5.307 0.7 2.191 1.24 4.555 1.24 6.604 0 1.861-0.221 3.88-0.409 5.247-0.080 0.587-0.508 1.084-1.115 1.265l-3.451 1.032c-1.125 0.337-2.395-0.027-3.327-0.917-3.533-3.38-7.575-5.459-9.559-6.36-0.052-0.023-0.095-0.056-0.13-0.097l-0-0c0.309-0.339 0.763-0.693 1.412-0.901 0.68-0.217 1.644-0.297 2.992 0.052 0.075 0.020 0.162 0.032 0.251 0.032 0.552 0 1-0.448 1-1 0-0.113-0.019-0.221-0.053-0.322l0.002 0.007-3.132-9.464c-0.022-0.064-0.035-0.139-0.035-0.216 0-0.38 0.308-0.687 0.687-0.687 0.302 0 0.559 0.195 0.651 0.467l0.001 0.005 1.917 5.795 0.344 1.047c0.136 0.402 0.51 0.686 0.951 0.686 0.553 0 1.002-0.449 1.002-1.002 0-0.113-0.019-0.222-0.053-0.323l0.002 0.007-0.345-1.041-2.413-7.347c-0.024-0.070-0.038-0.15-0.038-0.233 0-0.403 0.327-0.73 0.73-0.73 0.32 0 0.592 0.206 0.69 0.492l0.002 0.005zM24.399 5.653c-0.182-0.185-0.434-0.299-0.713-0.299-0.552 0-1 0.448-1 1 0 0.253 0.094 0.484 0.249 0.66l-0.001-0.001c0.557 0.597 1.065 1.32 1.065 2.652 0 0.552 0.448 1 1 1s1-0.448 1-1v0c0-2.001-0.831-3.187-1.601-4.015z"></path>
</svg>
