<!-- Generated by IcoMoon.io -->
<svg version="1.1" xmlns="http://www.w3.org/2000/svg" width="32" height="32" viewBox="0 0 32 32">
<title>hand-left-chat-regular</title>
<path d="M16 4.869v9.133c0 0.473-0.384 0.857-0.857 0.857s-0.857-0.384-0.857-0.857v0-7.415c0-0.457-0.37-0.869-0.857-0.872-0.439-0.002-0.857 0.415-0.857 0.91v10.234c0 0 0 0 0 0 0 0.473-0.384 0.857-0.857 0.857-0.218 0-0.417-0.081-0.568-0.215l0.001 0.001-0.213-0.19c-0.274-0.245-0.455-0.408-0.719-0.56-0.304-0.175-0.75-0.349-1.574-0.474-0.758-0.117-1.538-0.015-2.090 0.286-0.4 0.216-0.693 0.535-0.797 1.021l2.45 1.715c0.050 0.035 0.094 0.074 0.133 0.116l2.898 3.091c0.949 1.010 1.76 2.165 2.394 3.425l0.038 0.084 0.431 0.871c0.27 0.538 0.761 0.932 1.351 1.065l0.013 0.003-0.482 1.648c-1.069-0.276-1.935-0.99-2.41-1.933l-0.010-0.021-0.431-0.873c-0.593-1.185-1.308-2.204-2.152-3.102l0.006 0.007-2.837-3.025-2.784-1.95c-0.222-0.157-0.366-0.413-0.366-0.702v-0c0-1.417 0.73-2.402 1.735-2.947 0.959-0.519 2.137-0.631 3.168-0.472 0.84 0.129 1.454 0.317 1.954 0.568v-8.527c0-1.339 1.090-2.633 2.581-2.624 0.339 0.002 0.654 0.066 0.939 0.181 0.291-1.099 1.277-1.895 2.448-1.895 0.011 0 0.021 0 0.032 0l-0.002-0c1.257 0 2.185 0.848 2.477 1.895 0.28-0.114 0.604-0.181 0.945-0.181 0.004 0 0.009 0 0.013 0h-0.001c1.554 0 2.568 1.307 2.568 2.624v0.376c0.263-0.091 0.551-0.143 0.857-0.143 1.531 0 2.571 1.261 2.571 2.594v5.893c-0.493-0.181-1.072-0.325-1.67-0.406l-0.044-0.005v-5.481c0-0.485-0.366-0.88-0.857-0.88s-0.857 0.391-0.857 0.88v5.12c0 0.111-0.021 0.216-0.059 0.313l0.002-0.006c-0.541 0.040-1.040 0.123-1.523 0.247l0.059-0.013c-0.12-0.146-0.193-0.335-0.193-0.541 0-0 0-0.001 0-0.001v0-7.947c0-0.51-0.379-0.91-0.854-0.91-0.481 0-0.861 0.4-0.861 0.91v7.377c0 0.473-0.384 0.857-0.857 0.857s-0.857-0.384-0.857-0.857v0-9.119c0-0.488-0.366-0.881-0.859-0.882-0.503 0-0.855 0.379-0.855 0.869zM23.429 30.857c4.102-0.001 7.427-3.326 7.427-7.429s-3.326-7.429-7.429-7.429-7.429 3.326-7.429 7.429c0 1.32 0.344 2.559 0.947 3.633l-0.019-0.037-0.907 3.101c-0.015 0.048-0.023 0.103-0.023 0.16 0 0.316 0.256 0.571 0.571 0.571 0.057 0 0.112-0.008 0.164-0.024l-0.004 0.001 3.104-0.903c1.033 0.583 2.269 0.927 3.585 0.927 0.005 0 0.009 0 0.014 0h-0.001zM20 22.286c0-0.316 0.256-0.571 0.571-0.571v0h5.714c0.316 0 0.571 0.256 0.571 0.571s-0.256 0.571-0.571 0.571v0h-5.714c-0.316 0-0.571-0.256-0.571-0.571v0zM20.571 25.143c-0.316 0-0.571-0.256-0.571-0.571s0.256-0.571 0.571-0.571v0h2.857c0.316 0 0.571 0.256 0.571 0.571s-0.256 0.571-0.571 0.571v0h-2.857z"></path>
</svg>
