<!-- Generated by IcoMoon.io -->
<svg version="1.1" xmlns="http://www.w3.org/2000/svg" width="32" height="32" viewBox="0 0 32 32">
<title>handshake</title>
<path d="M16.321 3.952c-0.313 0-0.592 0.143-0.775 0.368l-0.076 0.058c-2.859-0.867-6.094-0.177-8.355 2.070-2.011 1.999-2.783 4.762-2.315 7.348l-0.020 0.020-1.276 1.268c-1.11 1.103-1.11 2.89 0 3.993 0.652 0.648 1.542 0.915 2.39 0.802 0.125 0.462 0.37 0.898 0.734 1.26 0.496 0.493 1.129 0.765 1.777 0.818 0.053 0.644 0.327 1.273 0.823 1.766 0.519 0.515 1.188 0.79 1.867 0.823 0.034 0.675 0.31 1.339 0.829 1.854 1.014 1.007 2.603 1.094 3.716 0.261l0.515 0.512c1.115 1.108 2.923 1.108 4.038 0 0.494-0.491 0.769-1.116 0.825-1.757 0.644-0.055 1.273-0.327 1.765-0.817 0.494-0.491 0.768-1.117 0.823-1.759 0.635-0.059 1.255-0.331 1.741-0.815 0.382-0.379 0.632-0.839 0.751-1.325 0.836 0.099 1.707-0.17 2.348-0.807 1.11-1.103 1.11-2.89 0-3.993l-1.111-1.104 0.228-0.889c0.496-1.932 0.247-3.979-0.699-5.737-1.397-2.595-4.116-4.212-7.071-4.212h-2.142c-0.091-0.004-0.183-0.007-0.275-0.007h-1.055zM20.22 10.545l6.808 6.765c0.326 0.324 0.326 0.85 0 1.174s-0.855 0.324-1.181 0l-2.167-2.153c-0.392-0.389-1.027-0.389-1.419 0l-0.022 0.022c-0.392 0.389-0.392 1.020 0 1.41l1.689 1.678c0.326 0.324 0.326 0.85 0 1.175-0.298 0.296-0.765 0.322-1.092 0.078-0.401-0.3-0.963-0.259-1.316 0.095s-0.388 0.913-0.083 1.309c0.251 0.325 0.226 0.794-0.073 1.092-0.302 0.3-0.779 0.323-1.107 0.067-0.398-0.312-0.968-0.279-1.328 0.076s-0.396 0.921-0.085 1.319c0.258 0.33 0.234 0.809-0.072 1.113-0.332 0.329-0.869 0.329-1.201 0l-0.496-0.493 0.14-0.139c1.11-1.103 1.11-2.89 0-3.993-0.519-0.515-1.188-0.79-1.867-0.823-0.034-0.674-0.31-1.339-0.829-1.854-0.496-0.493-1.129-0.765-1.777-0.818-0.053-0.644-0.327-1.273-0.823-1.766-0.652-0.648-1.542-0.915-2.39-0.802-0.125-0.462-0.37-0.898-0.735-1.26-0.575-0.571-1.335-0.847-2.089-0.826-0.196-1.83 0.412-3.729 1.824-5.132 1.312-1.304 3.056-1.918 4.775-1.842l-1.997 1.513c-1.365 1.034-1.628 2.977-0.587 4.337 1.039 1.357 2.983 1.62 4.345 0.588l2.518-1.908h2.632zM12.519 9.122l4.184-3.17h0.672c0.066 0 0.131 0.002 0.196 0.005 0.018 0.001 0.036 0.001 0.053 0.001h2.168c2.224 0 4.264 1.217 5.31 3.16 0.66 1.226 0.867 2.638 0.592 3.994l-4.283-4.262c-0.188-0.195-0.448-0.305-0.719-0.305h-3.442c-0.218 0-0.43 0.071-0.604 0.203l-2.786 2.111c-0.485 0.367-1.179 0.273-1.549-0.21-0.367-0.48-0.275-1.163 0.207-1.527zM8.047 19.729c-0.224-0.223-0.294-0.54-0.211-0.822 0.038-0.129 0.108-0.25 0.211-0.352l1.276-1.268c0.326-0.324 0.855-0.324 1.181 0 0.322 0.32 0.326 0.838 0.011 1.162l-0.011 0.011-1.287 1.279c-0.1 0.096-0.218 0.162-0.343 0.198-0.284 0.083-0.603 0.013-0.827-0.209zM7.392 15.237c0.101 0.104 0.169 0.228 0.204 0.359 0.075 0.277 0.003 0.585-0.216 0.802l-1.276 1.268c-0.326 0.324-0.855 0.324-1.181 0s-0.326-0.85 0-1.174l1.276-1.268c0.326-0.324 0.855-0.324 1.181 0l0.012 0.012zM14.523 24.99c-0.102 0.102-0.225 0.172-0.355 0.21-0.283 0.083-0.603 0.013-0.826-0.21s-0.294-0.539-0.211-0.821c0.038-0.129 0.108-0.251 0.211-0.353l1.276-1.268c0.326-0.324 0.855-0.324 1.181 0s0.326 0.849 0 1.174l-1.276 1.268zM11.827 22.312c-0.102 0.102-0.224 0.171-0.354 0.209-0.284 0.083-0.603 0.013-0.827-0.209s-0.294-0.54-0.211-0.822c0.037-0.124 0.103-0.241 0.2-0.341l0.011-0.011 1.287-1.279c0.327-0.313 0.847-0.309 1.17 0.011 0.326 0.324 0.326 0.85 0 1.174l-1.276 1.268z"></path>
</svg>
