<!-- Generated by IcoMoon.io -->
<svg version="1.1" xmlns="http://www.w3.org/2000/svg" width="32" height="32" viewBox="0 0 32 32">
<title>hand-right-off</title>
<path d="M6.4 9.6c0-0.578 0.205-1.109 0.544-1.523l-3.509-3.51c-0.145-0.145-0.235-0.345-0.235-0.566 0-0.442 0.359-0.801 0.801-0.801 0.221 0 0.421 0.090 0.566 0.235l24 24c0.145 0.145 0.235 0.345 0.235 0.566 0 0.442-0.359 0.801-0.801 0.801-0.221 0-0.421-0.090-0.566-0.235l-5.709-5.71-0.341 0.355c-1.117 1.163-1.941 2.502-2.741 3.888-0.608 1.043-1.721 1.733-2.996 1.733-0 0-0.001 0-0.001 0h-4.074c-0.48 0-0.952-0.117-1.378-0.338-0.852-0.45-1.512-1.166-1.878-2.037l-0.010-0.027-0.936-2.275c-0.615-1.455-0.973-3.147-0.973-4.923 0-0 0-0 0-0.001v0-9.632zM20.594 21.725l-9.394-9.392v2.867c0 0.442-0.358 0.8-0.8 0.8s-0.8-0.358-0.8-0.8v0-4.469l-1.507-1.507c-0.058 0.108-0.093 0.237-0.093 0.373 0 0.001 0 0.002 0 0.003v-0 9.632c0 1.48 0.29 2.946 0.853 4.315l0.936 2.272c0.222 0.541 0.629 0.986 1.146 1.256 0.198 0.102 0.418 0.157 0.64 0.157h4.074c0 0 0 0 0 0 0.685 0 1.283-0.371 1.604-0.922l0.005-0.009c0.864-1.498 1.766-2.941 2.973-4.197l0.363-0.379zM16 5.6v7.006l1.454 1.454c0.091-0.128 0.146-0.287 0.146-0.459 0-0.001 0-0.001 0-0.002v0-6.4c0-0.442 0.358-0.8 0.8-0.8s0.8 0.358 0.8 0.8v0 8.606l1.478 1.478c0.318-0.317 0.638-0.618 1.046-0.821 1.115-0.558 3.557-0.92 3.851 0.797-0.282 0.219-0.57 0.435-0.859 0.653-0.709 0.515-1.325 1.013-1.915 1.54l0.024-0.021 1.131 1.13c0.6-0.552 1.264-1.045 1.925-1.536 0.32-0.237 0.64-0.472 0.947-0.714 0.227-0.178 0.371-0.452 0.371-0.76 0-0 0-0 0-0v0c0-1.206-0.858-2.52-1.947-2.864-1.456-0.49-2.874-0.341-4.243 0.344-0.092 0.046-0.161 0.083-0.228 0.122l0.019-0.010v-7.944c0-0 0-0.001 0-0.001 0-1.325-1.075-2.4-2.4-2.4-0.319 0-0.623 0.062-0.901 0.175l0.016-0.006c-0.287-1.027-1.215-1.768-2.315-1.768s-2.028 0.741-2.311 1.751l-0.004 0.017c-0.262-0.107-0.566-0.169-0.885-0.169-1.024 0-1.897 0.641-2.242 1.543l-0.006 0.016 1.448 1.448v-0.606c0-0.442 0.358-0.8 0.8-0.8s0.8 0.358 0.8 0.8v0 2.206l1.6 1.6v-5.406c0-0.442 0.358-0.8 0.8-0.8s0.8 0.358 0.8 0.8v0z"></path>
</svg>
