<!-- Generated by IcoMoon.io -->
<svg version="1.1" xmlns="http://www.w3.org/2000/svg" width="32" height="32" viewBox="0 0 32 32">
<title>hand-left</title>
<path d="M16.003 5.332v8.336c0 0.552-0.448 1-1 1s-1-0.448-1-1v-6.701c0-0.319-0.272-0.634-0.664-0.637-0.35-0.002-0.672 0.326-0.672 0.672v9.998c0 0.41-0.251 0.779-0.632 0.93-0.38 0.15-0.814 0.054-1.095-0.243l-0.001-0.001-0.003-0.004c-0.005-0.006-0.015-0.016-0.030-0.030-0.029-0.028-0.074-0.072-0.136-0.128-0.123-0.111-0.306-0.265-0.535-0.427-0.469-0.332-1.079-0.661-1.737-0.776-0.716-0.126-1.396-0.049-1.848 0.184-0.278 0.144-0.496 0.353-0.594 0.704l2.211 1.662c0.037 0.028 0.073 0.059 0.106 0.092l2.9 2.897c1.246 1.245 2.283 2.682 3.070 4.257 0.372 0.745 1.134 1.215 1.966 1.215h3.637c0.762 0 1.425-0.364 1.768-0.951 0.981-1.68 2.285-4.383 2.285-6.711v-10.336c0-0.358-0.287-0.667-0.668-0.667-0.385 0-0.671 0.308-0.671 0.667v4.666c0 0.552-0.448 1-1 1s-1-0.448-1-1v-6.998c0-0.371-0.286-0.672-0.661-0.672-0.383 0-0.667 0.301-0.667 0.672v6.665c0 0.552-0.448 1-1 1s-1-0.448-1-1v-8.336c0-0.364-0.283-0.666-0.665-0.666-0.387-0-0.666 0.297-0.666 0.666zM13.351 4.331c0.282 0.002 0.55 0.045 0.799 0.124l-0.799-0.124zM14.15 4.455c0.35-1.011 1.293-1.79 2.52-1.789 1.221 0.001 2.163 0.781 2.514 1.788 0.253-0.080 0.527-0.123 0.816-0.123 1.478 0 2.529 1.141 2.649 2.424 0.215-0.056 0.444-0.085 0.682-0.085 1.559 0 2.668 1.279 2.668 2.666v10.336c0 2.907-1.562 6.014-2.558 7.72-0.742 1.271-2.106 1.942-3.495 1.942h-3.637c-1.591 0-3.044-0.899-3.755-2.321-0.691-1.383-1.601-2.644-2.695-3.737l-2.851-2.847-2.611-1.962c-0.251-0.189-0.399-0.485-0.399-0.799 0-1.415 0.708-2.409 1.732-2.938 0.954-0.493 2.11-0.553 3.111-0.377 0.692 0.121 1.311 0.378 1.824 0.66v-8.009c0-1.414 1.184-2.681 2.685-2.671z"></path>
</svg>
