<!-- Generated by IcoMoon.io -->
<svg version="1.1" xmlns="http://www.w3.org/2000/svg" width="32" height="32" viewBox="0 0 32 32">
<title>hand-right</title>
<path d="M16 4.869v9.131c0 0.473 0.384 0.857 0.857 0.857s0.857-0.384 0.857-0.857v0-7.414c0-0.457 0.371-0.869 0.858-0.872 0.438-0.002 0.857 0.415 0.857 0.909v10.234c0 0.473 0.384 0.857 0.857 0.857 0.217 0 0.416-0.081 0.567-0.214l-0.001 0.001 0.213-0.19c0.274-0.246 0.455-0.408 0.719-0.56 0.304-0.176 0.751-0.349 1.574-0.475 0.759-0.117 1.538-0.014 2.090 0.286 0.4 0.217 0.693 0.536 0.797 1.022l-2.45 1.714c-0.050 0.035-0.094 0.074-0.133 0.116l-2.898 3.091c-0.949 1.010-1.76 2.165-2.394 3.425l-0.038 0.084-0.431 0.871c-0.334 0.665-1.011 1.113-1.792 1.113h-4.419c-0.642 0-1.206-0.299-1.515-0.793-0.62-0.965-1.215-2.082-1.719-3.248l-0.059-0.154c-0.563-1.358-0.967-2.792-0.967-4.087v-10.263c0-0.485 0.366-0.88 0.857-0.88s0.857 0.392 0.857 0.88v5.12c0 0.473 0.384 0.857 0.857 0.857s0.857-0.384 0.857-0.857v0-7.949c0-0.509 0.379-0.909 0.854-0.909 0.481 0 0.861 0.4 0.861 0.909v7.377c0 0.473 0.384 0.857 0.857 0.857s0.857-0.384 0.857-0.857v0-9.118c0-0.488 0.366-0.882 0.859-0.882 0.503 0 0.855 0.379 0.855 0.869zM18.562 4c-0.338 0.001-0.661 0.067-0.957 0.187l0.017-0.006zM17.623 4.181c-0.283-1.056-1.214-1.896-2.479-1.895-1.257 0-2.185 0.848-2.477 1.895-0.28-0.114-0.604-0.181-0.944-0.181-0.004 0-0.008 0-0.013 0h0.001c-1.554 0-2.568 1.307-2.568 2.623v0.377c-0.253-0.091-0.546-0.143-0.85-0.143-0.002 0-0.005 0-0.007 0h0c-1.531 0-2.571 1.259-2.571 2.594v10.263c0 1.616 0.494 3.289 1.097 4.744 0.605 1.418 1.243 2.619 1.97 3.758l-0.061-0.103c0.654 1.042 1.797 1.598 2.969 1.598h4.419c1.452-0 2.709-0.833 3.319-2.047l0.010-0.021 0.431-0.871c0.56-1.131 1.282-2.174 2.145-3.095l2.837-3.025 2.784-1.95c0.229-0.16 0.366-0.423 0.366-0.702 0-1.416-0.73-2.401-1.735-2.946-0.958-0.519-2.137-0.631-3.167-0.472-0.841 0.129-1.454 0.315-1.954 0.568v-8.526c0-1.341-1.091-2.633-2.583-2.624z"></path>
</svg>
