<!-- Generated by IcoMoon.io -->
<svg version="1.1" xmlns="http://www.w3.org/2000/svg" width="32" height="32" viewBox="0 0 32 32">
<title>hand-open-heart</title>
<path d="M23.468 4.345l0.532 0.655 0.532-0.656c0.673-0.822 1.687-1.342 2.823-1.342 2.011 0 3.641 1.63 3.641 3.641 0 0.974-0.383 1.859-1.006 2.512l-5.319 5.562c-0.169 0.177-0.408 0.287-0.671 0.287s-0.502-0.11-0.671-0.287l-0-0-5.319-5.568c-0.622-0.652-1.005-1.536-1.005-2.51 0-2.009 1.629-3.638 3.638-3.638 1.137 0 2.151 0.521 2.818 1.338l0.005 0.006zM15.419 5.035l-0.208-0.211c-0.502-0.511-1.2-0.827-1.972-0.827-1.080 0-2.016 0.62-2.471 1.524l-0.007 0.016c-0.367-0.192-0.801-0.304-1.261-0.304-1.094 0-2.040 0.634-2.49 1.556l-0.007 0.016c-0.329-0.16-0.716-0.253-1.124-0.253-1.447 0-2.62 1.173-2.62 2.62 0 0.694 0.27 1.325 0.71 1.794l-0.001-0.001 0.434 0.462c-0.84 0.469-1.398 1.352-1.398 2.365 0 0.709 0.273 1.354 0.72 1.835l-0.002-0.002 5.159 5.561c-1.167 0.264-2.676 0.9-3.608 2.43-0.448 0.736-0.306 1.534 0.113 2.088 0.394 0.522 1.033 0.85 1.713 0.88 3.153 0.136 6.964 1.288 10.188 2.839 2.265 1.090 5.175 0.673 6.784-1.455l1.92-2.54c0.631-0.828 1.012-1.877 1.012-3.015 0-0.517-0.078-1.015-0.224-1.484l0.009 0.035-1.317-4.352c-0.424 0.242-0.931 0.384-1.472 0.384-0.182 0-0.36-0.016-0.534-0.047l0.018 0.003 0.007 0.021 1.383 4.57c0.082 0.26 0.129 0.559 0.129 0.869 0 0.683-0.228 1.313-0.613 1.817l0.005-0.007-1.92 2.54c-0.944 1.248-2.77 1.604-4.32 0.859-3.385-1.628-7.466-2.884-10.97-3.035-0.050-0.002-0.096-0.015-0.138-0.037l0.002 0.001c0.548-0.817 1.425-1.224 2.286-1.416 0.398-0.091 0.855-0.143 1.324-0.143 0.055 0 0.111 0.001 0.166 0.002l-0.008-0c0.033 0 0.066 0.002 0.098 0.004h0.002c0.025 0.002 0.053 0.003 0.082 0.003 0.552 0 1-0.448 1-1 0-0.263-0.101-0.502-0.267-0.68l0.001 0.001-6.543-7.056c-0.116-0.124-0.187-0.291-0.187-0.475 0-0.385 0.312-0.697 0.697-0.697 0.133 0 0.257 0.037 0.363 0.102l-0.003-0.002 4.211 4.493c0.183 0.196 0.443 0.318 0.732 0.318 0.553 0 1.001-0.448 1.001-1.001 0-0.264-0.102-0.505-0.27-0.684l0.001 0.001-4.058-4.365c-0.088-0.095-0.182-0.183-0.281-0.263l-0.005-0.004-1.963-2.092c-0.098-0.109-0.158-0.254-0.158-0.413 0-0.342 0.278-0.62 0.62-0.62 0.166 0 0.317 0.065 0.428 0.171l-0-0 5.976 5.975c0.181 0.181 0.431 0.293 0.707 0.293 0.552 0 1-0.448 1-1 0-0.276-0.112-0.526-0.293-0.707l-4.75-4.75c-0.15-0.141-0.244-0.34-0.244-0.561 0-0.424 0.344-0.768 0.768-0.768 0.221 0 0.42 0.093 0.56 0.243l0 0 1.084 1.084c0.051 0.060 0.105 0.12 0.162 0.177l5.004 4.989c0.18 0.174 0.425 0.281 0.695 0.281 0.552 0 1-0.448 1-1 0-0.27-0.107-0.515-0.281-0.695l-5.086-5.087c-0.087-0.122-0.139-0.275-0.139-0.44 0-0.422 0.342-0.764 0.764-0.764 0.211 0 0.402 0.086 0.54 0.224v0l1.59 1.618c-0.101-0.396-0.159-0.85-0.159-1.318 0-0.53 0.074-1.043 0.214-1.529l-0.010 0.039zM16.196 21.98c1.142-0.228 2.088-0.211 2.881 0.037 0.778 0.243 1.485 0.731 2.125 1.582 0.183 0.257 0.481 0.423 0.816 0.423 0.552 0 1-0.448 1-1 0-0.236-0.082-0.453-0.219-0.625l0.002 0.002c-0.862-1.148-1.905-1.91-3.127-2.291-1.207-0.377-2.512-0.36-3.87-0.090-0.462 0.095-0.804 0.498-0.804 0.981 0 0.552 0.448 1 1 1 0.069 0 0.137-0.007 0.202-0.020l-0.006 0.001z"></path>
</svg>
