<!-- Generated by IcoMoon.io -->
<svg version="1.1" xmlns="http://www.w3.org/2000/svg" width="32" height="32" viewBox="0 0 32 32">
<title>hand-draw</title>
<path d="M14.597 3.422c1.899-0.021 4.383-0.048 6.471 0.181 1.163 0.127 2.126 0.326 2.775 0.609 0.677 0.295 0.729 0.541 0.729 0.646 0 0.157-0.057 0.344-0.469 0.573-0.439 0.245-1.139 0.441-2.101 0.579-1.907 0.274-4.48 0.277-7.145 0.277h-0.051c-2.605 0-5.295 0-7.338 0.295-1.022 0.147-1.973 0.379-2.689 0.777-0.746 0.416-1.35 1.087-1.35 2.071 0 0.753 0.387 1.33 0.865 1.735 0.465 0.394 1.062 0.669 1.648 0.864 1.179 0.393 2.56 0.544 3.486 0.544h0.858v-1.714h-0.857c-0.789 0-1.978-0.134-2.943-0.456-0.485-0.161-0.853-0.351-1.083-0.546-0.218-0.185-0.259-0.321-0.259-0.426 0-0.157 0.057-0.343 0.469-0.571 0.439-0.245 1.141-0.441 2.101-0.579 1.907-0.275 4.48-0.278 7.145-0.278h0.051c2.605 0 5.296 0 7.338-0.294 1.022-0.149 1.973-0.379 2.69-0.778 0.745-0.415 1.349-1.085 1.349-2.071 0-1.162-0.894-1.84-1.758-2.217-0.891-0.389-2.063-0.61-3.274-0.743-2.199-0.24-4.789-0.21-6.673-0.19l-0.589 0.007c-0.47 0.005-0.849 0.387-0.849 0.857 0 0.473 0.384 0.857 0.857 0.857 0.003 0 0.006 0 0.008-0h-0l0.589-0.007zM15.714 9.143c-1.736 0-3.143 1.407-3.143 3.143v0 6.099c-1.458-0.538-2.722-0.547-3.768-0.15-1.326 0.503-2.126 1.59-2.474 2.637-0.028 0.081-0.044 0.174-0.044 0.271 0 0.32 0.175 0.599 0.435 0.746l0.004 0.002 5.206 2.915c1.138 0.645 2.058 1.557 2.694 2.654l0.018 0.034 0.403 0.706c0.552 0.953 1.567 1.584 2.729 1.584 0.172 0 0.34-0.014 0.504-0.040l-0.018 0.002 3.178-0.497c1.29-0.207 2.307-1.176 2.584-2.423l0.004-0.021 1.176-5.454c0.061-0.272 0.096-0.584 0.096-0.904 0-2.16-1.598-3.947-3.677-4.243l-0.023-0.003-2.742-0.378v-3.538c0-0 0-0.001 0-0.001 0-1.736-1.407-3.143-3.143-3.143v0zM14.286 12.286c0-0.789 0.64-1.429 1.429-1.429s1.429 0.64 1.429 1.429v0 4.286c0 0 0 0 0 0 0 0.432 0.319 0.789 0.735 0.849l0.005 0.001 3.482 0.481c1.26 0.179 2.219 1.251 2.219 2.547 0 0.192-0.021 0.379-0.061 0.559l0.003-0.017-1.176 5.455c-0.127 0.576-0.589 1.017-1.168 1.11l-0.008 0.001-3.178 0.497c-0.067 0.011-0.143 0.017-0.221 0.017-0.528 0-0.99-0.287-1.237-0.713l-0.004-0.007-0.403-0.706c-0.811-1.402-1.951-2.533-3.319-3.311l-0.044-0.023-4.511-2.526c0.266-0.41 0.651-0.757 1.154-0.947 0.734-0.279 1.897-0.291 3.611 0.632 0.117 0.064 0.257 0.102 0.406 0.102 0.473 0 0.857-0.383 0.857-0.856v-7.429z"></path>
</svg>
