<!-- Generated by IcoMoon.io -->
<svg version="1.1" xmlns="http://www.w3.org/2000/svg" width="32" height="32" viewBox="0 0 32 32">
<title>hat-graduation</title>
<path d="M13.212 4.933c1.699-1.089 3.877-1.089 5.577 0l10.751 6.892c0.285 0.183 0.459 0.498 0.46 0.838s-0.169 0.656-0.453 0.841l-4.214 2.753v7.41c0 0.216-0.070 0.427-0.2 0.6l-0.001 0.002-0.002 0.002-0.004 0.005-0.011 0.014c-0.006 0.007-0.013 0.016-0.021 0.026-0.004 0.005-0.008 0.011-0.013 0.016-0.028 0.034-0.066 0.080-0.114 0.136-0.097 0.111-0.238 0.263-0.423 0.44-0.37 0.355-0.921 0.818-1.666 1.276-1.497 0.921-3.76 1.815-6.878 1.815s-5.381-0.894-6.878-1.815c-0.745-0.459-1.296-0.921-1.666-1.276-0.185-0.178-0.326-0.329-0.423-0.44-0.057-0.065-0.113-0.131-0.165-0.2-0.002-0.003-0.001-0.002-0.001-0.002-0.13-0.173-0.2-0.384-0.2-0.6v-7.41l-2.667-1.742v7.152c0 0.552-0.448 1-1 1s-1-0.448-1-1v-9c0-0.361 0.191-0.677 0.477-0.853l10.735-6.881zM18.826 20.508c-1.717 1.122-3.935 1.122-5.652 0l-4.507-2.945v5.728c0.049 0.051 0.107 0.11 0.174 0.175 0.281 0.27 0.72 0.641 1.329 1.015 1.211 0.745 3.115 1.518 5.83 1.518s4.619-0.773 5.83-1.518c0.609-0.375 1.048-0.746 1.329-1.015 0.067-0.065 0.125-0.123 0.174-0.175v-5.728l-4.507 2.945zM17.709 6.617c-1.041-0.668-2.376-0.668-3.418 0l-9.451 6.058 9.427 6.159c1.052 0.688 2.412 0.688 3.464 0l9.427-6.159-9.451-6.058z"></path>
</svg>
