<!-- Generated by IcoMoon.io -->
<svg version="1.1" xmlns="http://www.w3.org/2000/svg" width="32" height="32" viewBox="0 0 32 32">
<title>headphones</title>
<path d="M16 4.333c-6.443 0-11.667 5.223-11.667 11.667v2.667h6.167c0.46 0 0.833 0.373 0.833 0.833v9c0 0.46-0.373 0.833-0.833 0.833h-4c-2.117 0-3.833-1.716-3.833-3.833v0-9.5c0-7.364 5.969-13.333 13.333-13.333s13.333 5.969 13.333 13.333v9.5c0 2.117-1.716 3.833-3.833 3.833v0h-4c-0.46 0-0.833-0.373-0.833-0.833v-9c0-0.46 0.373-0.833 0.833-0.833h6.167v-2.667c0-6.443-5.223-11.667-11.667-11.667zM27.667 20.333h-5.333v7.333h3.167c1.197 0 2.167-0.97 2.167-2.167v0-5.167zM4.333 20.333v5.167c0 1.197 0.97 2.167 2.167 2.167v0h3.167v-7.333h-5.333z"></path>
</svg>
