<!-- Generated by IcoMoon.io -->
<svg version="1.1" xmlns="http://www.w3.org/2000/svg" width="32" height="32" viewBox="0 0 32 32">
<title>headset-vr</title>
<path d="M17.333 12c0 0.736-0.597 1.333-1.333 1.333s-1.333-0.597-1.333-1.333v0c0-0.736 0.597-1.333 1.333-1.333s1.333 0.597 1.333 1.333v0zM9 15.333c-0.552 0-1 0.448-1 1s0.448 1 1 1v0h3.333c0.552 0 1-0.448 1-1s-0.448-1-1-1v0h-3.333zM18.667 16.333c0-0.552 0.448-1 1-1v0h3.333c0.552 0 1 0.448 1 1s-0.448 1-1 1v0h-3.333c-0.552 0-1-0.448-1-1v0zM13 4c-0.552 0-1 0.448-1 1v0 1.667h-4c-2.946 0-5.333 2.388-5.333 5.333v0h-0.333c-0.552 0-1 0.448-1 1v0 4.667c0 0.552 0.448 1 1 1h0.333v3.333c0 2.946 2.388 5.333 5.333 5.333v0h2.060c0.001 0 0.001 0 0.002 0 1.071 0 2.068-0.316 2.904-0.859l-0.021 0.013 2.875-1.848c0.051-0.033 0.113-0.053 0.18-0.053s0.129 0.020 0.181 0.054l-0.001-0.001 2.875 1.848c0.815 0.531 1.812 0.847 2.883 0.847 0 0 0 0 0.001 0h2.061c2.946 0 5.333-2.388 5.333-5.333v0-3.333h0.333c0.552 0 1-0.448 1-1v0-4.667c0-0.552-0.448-1-1-1v0h-0.333c0-2.946-2.388-5.333-5.333-5.333v0h-4v-1.667c0-0.552-0.448-1-1-1v0h-6zM8 8.667h16c1.841 0 3.333 1.492 3.333 3.333v0 10c0 1.841-1.492 3.333-3.333 3.333v0h-2.061c-0.669-0-1.292-0.198-1.814-0.537l0.013 0.008-2.876-1.848c-0.357-0.232-0.793-0.37-1.261-0.37s-0.905 0.138-1.27 0.376l0.009-0.006-2.876 1.848c-0.509 0.332-1.133 0.529-1.802 0.529-0 0-0 0-0 0h-2.060c-1.841 0-3.333-1.492-3.333-3.333v0-10c0-1.841 1.492-3.333 3.333-3.333v0z"></path>
</svg>
