<!-- Generated by IcoMoon.io -->
<svg version="1.1" xmlns="http://www.w3.org/2000/svg" width="32" height="32" viewBox="0 0 32 32">
<title>headphones-sound-wave</title>
<path d="M4.667 16c0-6.259 5.074-11.333 11.333-11.333s11.333 5.074 11.333 11.333v2.667h-3c-0.552 0-1 0.448-1 1v8.667c0 0.552 0.448 1 1 1h1c2.209 0 4-1.791 4-4v-9.333c0-7.364-5.97-13.333-13.333-13.333s-13.333 5.97-13.333 13.333v9.333c0 2.209 1.791 4 4 4h1c0.552 0 1-0.448 1-1v-8.667c0-0.552-0.448-1-1-1h-3v-2.667zM27.333 20.667v4.667c0 1.105-0.895 2-2 2v-6.667h2zM4.667 25.333v-4.667h2v6.667c-1.105 0-2-0.895-2-2zM17 15.667c0-0.552-0.448-1-1-1s-1 0.448-1 1v14c0 0.552 0.448 1 1 1s1-0.448 1-1v-14zM11.667 18.666c0.552 0 1 0.448 1 1v6c0 0.552-0.448 1-1 1s-1-0.448-1-1v-6c0-0.552 0.448-1 1-1zM21.333 19.667c0-0.552-0.448-1-1-1s-1 0.448-1 1v6c0 0.552 0.448 1 1 1s1-0.448 1-1v-6z"></path>
</svg>
