<!-- Generated by IcoMoon.io -->
<svg version="1.1" xmlns="http://www.w3.org/2000/svg" width="32" height="32" viewBox="0 0 32 32">
<title>headset-add</title>
<path d="M30.667 8.667c0-4.050-3.283-7.333-7.333-7.333s-7.333 3.283-7.333 7.333v0c0 4.050 3.283 7.333 7.333 7.333s7.333-3.283 7.333-7.333v0zM24 9.333l0.001 3.339c0 0.368-0.298 0.667-0.667 0.667s-0.667-0.298-0.667-0.667v0-3.339h-3.34c-0.368 0-0.667-0.298-0.667-0.667s0.298-0.667 0.667-0.667v0h3.339v-3.333c0-0.368 0.298-0.667 0.667-0.667s0.667 0.298 0.667 0.667v0 3.333h3.329c0.368 0 0.667 0.298 0.667 0.667s-0.298 0.667-0.667 0.667v0h-3.329zM23.333 17.333c0.002 0 0.003 0 0.005 0 0.708 0 1.396-0.085 2.054-0.244l-0.059 0.012v2.899c-0 1.402-1.083 2.551-2.458 2.658l-0.009 0.001-0.2 0.008h-2.667c-0.681-0-1.243-0.511-1.323-1.171l-0.001-0.006-0.009-0.156v-5.363c0.617 0.396 1.289 0.715 2 0.945v3.751h2c0 0 0 0 0 0 0.326 0 0.597-0.234 0.655-0.543l0.001-0.004 0.011-0.12v-2.667zM16.029 4c-0.407 0.635-0.733 1.325-0.964 2.059-3.628 0.48-6.399 3.554-6.399 7.275v0 1.333h3.333c0.736 0 1.333 0.597 1.333 1.333v0 5.333c0 0.736-0.597 1.333-1.333 1.333v0h-3.333v0.333c0 0 0 0 0 0 0 1.585 1.229 2.882 2.785 2.992l0.010 0.001 0.205 0.007h1.504c0.424-1.176 1.531-2.001 2.83-2.001 1.658 0 3.001 1.344 3.001 3.001s-1.344 3.001-3.001 3.001c-1.299 0-2.405-0.825-2.823-1.98l-0.007-0.021h-1.504c-0 0-0 0-0 0-2.668 0-4.847-2.089-4.992-4.72l-0.001-0.013-0.007-0.267v-9.667c0-5.155 4.179-9.333 9.333-9.333v0h0.029zM16 26c-0.552 0-1 0.448-1 1s0.448 1 1 1v0c0.552 0 1-0.448 1-1s-0.448-1-1-1v0zM11.333 16.667h-2.667v4h2.667v-4z"></path>
</svg>
