<!-- Generated by IcoMoon.io -->
<svg version="1.1" xmlns="http://www.w3.org/2000/svg" width="32" height="32" viewBox="0 0 32 32">
<title>heart-broken</title>
<path d="M15.999 7.671l1.093-1.096c1.284-1.225 3.027-1.978 4.946-1.978 3.962 0 7.173 3.212 7.173 7.173 0 1.914-0.75 3.653-1.972 4.94l0.003-0.003-10.536 10.529c-0.181 0.181-0.431 0.292-0.707 0.292s-0.526-0.112-0.707-0.292v0l-10.528-10.529c-1.297-1.297-2.099-3.088-2.099-5.067 0-3.958 3.209-7.167 7.167-7.167 1.979 0 3.771 0.802 5.068 2.099l1.097 1.097zM16 25.115l9.824-9.819c0.935-0.935 1.514-2.227 1.514-3.655 0-1.426-0.578-2.717-1.511-3.652l0 0c-0.936-0.937-2.231-1.517-3.66-1.517-1.297 0-2.483 0.478-3.392 1.267l0.006-0.005-0.013 0.013-1.344 1.332-0.696 0.701c-0.036 0.038-0.074 0.072-0.115 0.104l-0.002 0.002-1.648 1.633 3.728 3.561c0.191 0.182 0.309 0.439 0.309 0.723 0 0.276-0.112 0.527-0.293 0.708v0l-3.333 3.333c-0.178 0.166-0.418 0.268-0.682 0.268-0.552 0-1-0.448-1-1 0-0.264 0.102-0.504 0.269-0.682l-0.001 0.001 2.609-2.611-3.731-3.564c-0.191-0.182-0.309-0.439-0.309-0.723 0-0.278 0.113-0.529 0.296-0.71l0-0 1.756-1.741-1.095-1.093c-0.937-0.947-2.236-1.533-3.673-1.533-2.853 0-5.167 2.313-5.167 5.167 0 1.436 0.586 2.736 1.532 3.672l9.82 9.82z"></path>
</svg>
