<!-- Generated by IcoMoon.io -->
<svg version="1.1" xmlns="http://www.w3.org/2000/svg" width="32" height="32" viewBox="0 0 32 32">
<title>heart</title>
<path d="M17.093 7.439l-1.094 1.097-1.098-1.098c-2.799-2.799-7.336-2.799-10.135 0s-2.799 7.336 0 10.135l10.527 10.527c0.391 0.391 1.024 0.391 1.414 0l10.535-10.529c2.793-2.808 2.797-7.333-0.002-10.132-2.804-2.804-7.344-2.804-10.148 0zM25.825 16.161l-9.824 9.818-9.82-9.82c-2.018-2.018-2.018-5.289 0-7.307s5.289-2.018 7.307 0l1.81 1.81c0.397 0.397 1.043 0.389 1.431-0.017l1.78-1.792c2.023-2.023 5.296-2.023 7.319 0 2.018 2.018 2.015 5.28-0.002 7.308z"></path>
</svg>
