<!-- Generated by IcoMoon.io -->
<svg version="1.1" xmlns="http://www.w3.org/2000/svg" width="32" height="32" viewBox="0 0 32 32">
<title>heart-pulse</title>
<path d="M17.093 7.439l-1.094 1.097-1.098-1.098c-2.799-2.799-7.336-2.799-10.135 0-1.956 1.956-2.545 4.761-1.767 7.228h2.14c-0.878-1.908-0.531-4.242 1.041-5.814 2.018-2.018 5.289-2.018 7.307 0l1.81 1.81c0.397 0.397 1.043 0.389 1.431-0.017l1.78-1.792c2.023-2.023 5.296-2.023 7.319 0 1.573 1.573 1.918 3.902 1.038 5.813h2.14c0.779-2.468 0.193-5.27-1.764-7.227-2.804-2.804-7.344-2.804-10.148 0z"></path>
<path d="M15.293 28.1l-8.767-8.767h2.617c0.068 0 0.136-0.003 0.202-0.009l6.655 6.655 6.65-6.646h2.829l-8.773 8.767c-0.391 0.391-1.024 0.391-1.414 0z"></path>
<path d="M12.561 11.219c-0.171-0.342-0.523-0.557-0.905-0.553s-0.729 0.226-0.893 0.572l-2.253 4.761h-4.843c-0.552 0-1 0.448-1 1s0.448 1 1 1h5.476c0.387 0 0.739-0.223 0.904-0.572l1.645-3.475 3.414 6.828c0.156 0.313 0.465 0.521 0.814 0.55s0.687-0.128 0.891-0.411l3.598-4.981 1.506 1.721c0.19 0.217 0.464 0.341 0.753 0.341h5.667c0.552 0 1-0.448 1-1s-0.448-1-1-1h-5.213l-2.035-2.325c-0.201-0.229-0.495-0.355-0.799-0.34s-0.586 0.166-0.764 0.413l-3.367 4.661-3.595-7.19z"></path>
</svg>
