<!-- Generated by IcoMoon.io -->
<svg version="1.1" xmlns="http://www.w3.org/2000/svg" width="32" height="32" viewBox="0 0 32 32">
<title>heart-circle</title>
<path d="M15.595 22.475l-5.475-6.389c-0.503-0.573-0.81-1.33-0.81-2.158 0-1.812 1.469-3.28 3.28-3.28 0.9 0 1.715 0.362 2.307 0.949l-0-0 1.103 1.071 1.103-1.071c0.591-0.577 1.4-0.933 2.292-0.933 1.812 0 3.281 1.469 3.281 3.281 0 0.821-0.301 1.571-0.8 2.147l0.003-0.004-5.475 6.387c-0.098 0.115-0.243 0.187-0.405 0.187s-0.307-0.072-0.405-0.186l-0.001-0.001zM29.333 16c0 7.364-5.969 13.333-13.333 13.333s-13.333-5.969-13.333-13.333 5.969-13.333 13.333-13.333 13.333 5.969 13.333 13.333zM27.333 16c0-6.259-5.074-11.333-11.333-11.333s-11.333 5.074-11.333 11.333v0c0 6.259 5.074 11.333 11.333 11.333s11.333-5.074 11.333-11.333v0z"></path>
</svg>
