<!-- Generated by IcoMoon.io -->
<svg version="1.1" xmlns="http://www.w3.org/2000/svg" width="32" height="32" viewBox="0 0 32 32">
<title>highlight-link</title>
<path d="M5.6 3.2c0.442 0 0.8 0.358 0.8 0.8v0 6.4c0 0.442 0.358 0.8 0.8 0.8v0h17.6c0.442 0 0.8-0.358 0.8-0.8v0-6.4c0-0.442 0.358-0.8 0.8-0.8s0.8 0.358 0.8 0.8v0 6.4c0 0 0 0.001 0 0.001 0 1.039-0.66 1.923-1.583 2.257l-0.017 0.005v1.736c0 1.767-1.433 3.2-3.2 3.2v0 1.6h-1.6v-1.6h-9.6v9.106l3.208-1.603c0.030 0.566 0.144 1.112 0.331 1.622l-3.981 1.99c-0.104 0.053-0.228 0.085-0.358 0.085-0.442 0-0.8-0.358-0.8-0.8v0-10.4c-1.767 0-3.2-1.433-3.2-3.2v0-1.736c-0.94-0.339-1.6-1.224-1.6-2.263 0-0 0-0.001 0-0.001v0-6.4c0-0.442 0.358-0.8 0.8-0.8v0zM8 12.8v1.6c0 0.884 0.716 1.6 1.6 1.6v0h12.8c0.884 0 1.6-0.716 1.6-1.6v0-1.6h-16zM20 20.8c-2.209 0-4 1.791-4 4s1.791 4 4 4v0h0.8c0.442 0 0.8-0.358 0.8-0.8s-0.358-0.8-0.8-0.8v0h-0.8c-1.325 0-2.4-1.075-2.4-2.4s1.075-2.4 2.4-2.4v0h0.8c0.442 0 0.8-0.358 0.8-0.8s-0.358-0.8-0.8-0.8v0h-0.8zM25.6 20.8c-0.442 0-0.8 0.358-0.8 0.8s0.358 0.8 0.8 0.8v0h0.8c1.325 0 2.4 1.075 2.4 2.4s-1.075 2.4-2.4 2.4v0h-0.8c-0.442 0-0.8 0.358-0.8 0.8s0.358 0.8 0.8 0.8v0h0.8c2.209 0 4-1.791 4-4s-1.791-4-4-4v0h-0.8zM19.2 24.8c0-0.442 0.358-0.8 0.8-0.8v0h6.4c0.442 0 0.8 0.358 0.8 0.8s-0.358 0.8-0.8 0.8v0h-6.4c-0.442 0-0.8-0.358-0.8-0.8v0z"></path>
</svg>
