<!-- Generated by IcoMoon.io -->
<svg version="1.1" xmlns="http://www.w3.org/2000/svg" width="32" height="32" viewBox="0 0 32 32">
<title>history-regular</title>
<path d="M5.667 16c0 5.707 4.627 10.333 10.333 10.333s10.333-4.627 10.333-10.333c0-5.707-4.627-10.333-10.333-10.333-0.004 0-0.008 0-0.012 0-2.999 0-5.699 1.281-7.583 3.326l-0.007 0.007h2.768c0.46 0 0.833 0.373 0.833 0.833s-0.373 0.833-0.833 0.833v0h-4.333c-0.46 0-0.833-0.373-0.833-0.833v-4.333c0-0.46 0.373-0.833 0.833-0.833s0.833 0.373 0.833 0.833v0 1.865c2.149-2.082 5.083-3.365 8.317-3.365 0.006 0 0.011 0 0.017 0h-0.001c6.627 0 12 5.373 12 12s-5.373 12-12 12-12-5.373-12-12c0-0.417 0.021-0.829 0.063-1.236 0.045-0.443 0.429-0.764 0.875-0.764 0.478 0 0.835 0.437 0.786 0.913-0.036 0.326-0.057 0.704-0.057 1.087 0 0 0 0 0 0v0zM16.667 10.167c0-0.46-0.373-0.833-0.833-0.833s-0.833 0.373-0.833 0.833v0 7c0 0.46 0.373 0.833 0.833 0.833h3.333c0.46 0 0.833-0.373 0.833-0.833s-0.373-0.833-0.833-0.833v0h-2.5v-6.167z"></path>
</svg>
