<!-- Generated by IcoMoon.io -->
<svg version="1.1" xmlns="http://www.w3.org/2000/svg" width="32" height="32" viewBox="0 0 32 32">
<title>history</title>
<path d="M16 4c6.627 0 12 5.373 12 12s-5.373 12-12 12c-2.279 0-4.467-0.638-6.359-1.822-0.771-0.482-1.484-1.051-2.127-1.694s-1.213-1.359-1.696-2.131c-1.182-1.891-1.819-4.077-1.819-6.354 0-0.366 0.016-0.729 0.049-1.090 0.050-0.55 0.536-0.956 1.086-0.906s0.956 0.536 0.906 1.086c-0.027 0.301-0.041 0.605-0.041 0.911 0 1.9 0.53 3.719 1.514 5.294 0.402 0.643 0.877 1.24 1.414 1.777s1.131 1.010 1.774 1.412c1.576 0.986 3.396 1.517 5.298 1.517 5.523 0 10-4.477 10-10s-4.477-10-10-10c-3.196 0-6.134 1.51-8.003 4.003l3.675 0c0.552 0 1 0.448 1 1 0 0.506-0.376 0.925-0.864 0.991l-0.136 0.009h-6.006c-0.506 0-0.925-0.376-0.991-0.864l-0.009-0.136v-6c0-0.552 0.448-1 1-1 0.506 0 0.925 0.376 0.991 0.864l0.009 0.136-0.001 3.455c2.249-2.783 5.65-4.458 9.335-4.458zM15 9.333c0.506 0 0.925 0.376 0.991 0.864l0.009 0.136v5.667h3c0.552 0 1 0.448 1 1 0 0.506-0.376 0.925-0.864 0.991l-0.136 0.009h-4c-0.506 0-0.925-0.376-0.991-0.864l-0.009-0.136v-6.667c0-0.552 0.448-1 1-1z"></path>
</svg>
