<!-- Generated by IcoMoon.io -->
<svg version="1.1" xmlns="http://www.w3.org/2000/svg" width="32" height="32" viewBox="0 0 32 32">
<title>home</title>
<path d="M14.066 3.376c1.117-0.942 2.751-0.942 3.868 0l9 7.589c0.676 0.57 1.066 1.409 1.066 2.293v13.070c0 1.289-1.045 2.333-2.333 2.333h-4.667c-1.289 0-2.333-1.045-2.333-2.333v-7.333c0-0.184-0.149-0.333-0.333-0.333h-4.667c-0.184 0-0.333 0.149-0.333 0.333v7.333c0 1.289-1.045 2.333-2.333 2.333h-4.667c-1.289 0-2.333-1.045-2.333-2.333v-13.070c0-0.884 0.39-1.723 1.066-2.293l9-7.589zM16.645 4.905c-0.372-0.314-0.917-0.314-1.289 0l-9 7.589c-0.225 0.19-0.355 0.47-0.355 0.764v13.070c0 0.184 0.149 0.333 0.333 0.333h4.667c0.184 0 0.333-0.149 0.333-0.333v-7.333c0-1.289 1.045-2.333 2.333-2.333h4.667c1.289 0 2.333 1.045 2.333 2.333v7.333c0 0.184 0.149 0.333 0.333 0.333h4.667c0.184 0 0.333-0.149 0.333-0.333v-13.070c0-0.295-0.13-0.574-0.355-0.764l-9-7.589z"></path>
</svg>
