<!-- Generated by IcoMoon.io -->
<svg version="1.1" xmlns="http://www.w3.org/2000/svg" width="32" height="32" viewBox="0 0 32 32">
<title>home-add</title>
<path d="M30.667 8.667c0-4.050-3.283-7.333-7.333-7.333s-7.333 3.283-7.333 7.333c0 4.050 3.283 7.333 7.333 7.333s7.333-3.283 7.333-7.333zM24.001 9.333l0.001 3.338c0 0.368-0.298 0.667-0.667 0.667s-0.667-0.298-0.667-0.667l-0.001-3.338h-3.339c-0.368 0-0.667-0.298-0.667-0.667s0.299-0.667 0.667-0.667h3.339l-0.001-3.334c0-0.368 0.299-0.667 0.667-0.667s0.667 0.298 0.667 0.667l0.001 3.334h3.337c0.368 0 0.667 0.298 0.667 0.667s-0.298 0.667-0.667 0.667h-3.337z"></path>
<path d="M26 26.329v-9.414c0.711-0.23 1.382-0.549 2-0.944v10.358c0 1.289-1.045 2.333-2.333 2.333h-4.667c-1.289 0-2.333-1.045-2.333-2.333v-7.333c0-0.184-0.149-0.333-0.333-0.333h-4.667c-0.184 0-0.333 0.149-0.333 0.333v7.333c0 1.289-1.045 2.333-2.333 2.333h-4.667c-1.289 0-2.333-1.045-2.333-2.333v-13.070c0-0.884 0.39-1.723 1.066-2.293l9-7.589c0.816-0.688 1.906-0.873 2.871-0.557-0.529 0.578-0.981 1.229-1.338 1.935-0.086 0.038-0.168 0.088-0.243 0.151l-9 7.589c-0.225 0.19-0.355 0.47-0.355 0.764v13.070c0 0.184 0.149 0.333 0.333 0.333h4.667c0.184 0 0.333-0.149 0.333-0.333v-7.333c0-1.289 1.045-2.333 2.333-2.333h4.667c1.289 0 2.333 1.045 2.333 2.333v7.333c0 0.184 0.149 0.333 0.333 0.333h4.667c0.184 0 0.333-0.149 0.333-0.333z"></path>
</svg>
