<!-- Generated by IcoMoon.io -->
<svg version="1.1" xmlns="http://www.w3.org/2000/svg" width="32" height="32" viewBox="0 0 32 32">
<title>home-more-regular</title>
<path d="M15.19 4.3c0.217-0.185 0.5-0.298 0.81-0.298s0.593 0.113 0.812 0.299l-0.002-0.001 9.75 8.288c0.279 0.238 0.44 0.586 0.44 0.953v12.214c0 0.688-0.557 1.245-1.245 1.245h-19.51c-0.688 0-1.245-0.557-1.245-1.245v0-12.214c0-0.367 0.161-0.715 0.44-0.953l9.75-8.287zM18.105 2.777c-0.563-0.481-1.3-0.774-2.105-0.774s-1.542 0.293-2.11 0.778l0.005-0.004-9.75 8.287c-0.702 0.6-1.145 1.486-1.145 2.476v0 12.215c0 1.792 1.453 3.245 3.245 3.245v0h19.51c1.792 0 3.245-1.453 3.245-3.245v0-12.214c0-0 0-0.001 0-0.001 0-0.99-0.442-1.876-1.14-2.472l-0.005-0.004-9.75-8.287zM12 16.5c0 0.828-0.672 1.5-1.5 1.5s-1.5-0.672-1.5-1.5v0c0-0.828 0.672-1.5 1.5-1.5s1.5 0.672 1.5 1.5v0zM10.5 23c0.828 0 1.5-0.672 1.5-1.5s-0.672-1.5-1.5-1.5v0c-0.828 0-1.5 0.672-1.5 1.5s0.672 1.5 1.5 1.5v0zM16 23c0.828 0 1.5-0.672 1.5-1.5s-0.672-1.5-1.5-1.5v0c-0.828 0-1.5 0.672-1.5 1.5s0.672 1.5 1.5 1.5v0zM16 18c0.828 0 1.5-0.672 1.5-1.5s-0.672-1.5-1.5-1.5v0c-0.828 0-1.5 0.672-1.5 1.5s0.672 1.5 1.5 1.5v0zM21.5 18c0.828 0 1.5-0.672 1.5-1.5s-0.672-1.5-1.5-1.5v0c-0.828 0-1.5 0.672-1.5 1.5s0.672 1.5 1.5 1.5v0zM21.5 23c0.828 0 1.5-0.672 1.5-1.5s-0.672-1.5-1.5-1.5v0c-0.828 0-1.5 0.672-1.5 1.5s0.672 1.5 1.5 1.5v0z"></path>
</svg>
