<!-- Generated by IcoMoon.io -->
<svg version="1.1" xmlns="http://www.w3.org/2000/svg" width="32" height="32" viewBox="0 0 32 32">
<title>home-checkmark-regular</title>
<path d="M14.049 3.379c0.519-0.441 1.197-0.709 1.937-0.709 0.739 0 1.415 0.267 1.938 0.71l-0.004-0.004 9.013 7.597c0.676 0.569 1.067 1.409 1.067 2.293v13.065c0 1.289-1.045 2.333-2.333 2.333v0h-19.333c-1.288 0-2.333-1.044-2.333-2.332v-13.067c0-0.883 0.389-1.72 1.063-2.291l8.987-7.597zM16.631 4.905c-0.173-0.147-0.399-0.236-0.645-0.236s-0.472 0.089-0.647 0.237l0.001-0.001-8.987 7.597c-0.217 0.185-0.353 0.458-0.353 0.763 0 0 0 0.001 0 0.001v-0 13.067c0 0.184 0.149 0.333 0.333 0.333h19.333c0.184 0 0.333-0.149 0.333-0.333v0-13.067c-0-0.306-0.138-0.58-0.355-0.763l-0.001-0.001-9.013-7.6zM21.044 14.288c0.181 0.181 0.292 0.431 0.292 0.707s-0.112 0.526-0.292 0.707v0l-6.004 6.005c-0.181 0.181-0.431 0.292-0.707 0.292s-0.526-0.112-0.707-0.292v0l-2.667-2.667c-0.166-0.178-0.268-0.418-0.268-0.682 0-0.552 0.448-1 1-1 0.264 0 0.504 0.102 0.682 0.269l-0.001-0.001 1.96 1.96 5.297-5.299c0.181-0.181 0.431-0.292 0.707-0.292s0.526 0.112 0.707 0.292v0z"></path>
</svg>
