<!-- Generated by IcoMoon.io -->
<svg version="1.1" xmlns="http://www.w3.org/2000/svg" width="32" height="32" viewBox="0 0 32 32">
<title>home-add-regular</title>
<path d="M14.067 3.376c0.518-0.439 1.195-0.706 1.933-0.706s1.415 0.267 1.938 0.71l-0.004-0.004 9 7.589c0.676 0.571 1.067 1.409 1.067 2.293v2.771c-0.575-0.375-1.237-0.695-1.939-0.928l-0.061-0.018v-1.825c-0-0.306-0.138-0.58-0.355-0.763l-0.001-0.001-9-7.589c-0.173-0.146-0.398-0.235-0.644-0.235s-0.471 0.089-0.645 0.236l0.001-0.001-9 7.588c-0.218 0.184-0.356 0.458-0.356 0.764v13.071c0 0.184 0.149 0.333 0.333 0.333h8.996c0.3 0.72 0.695 1.392 1.169 2h-10.165c-1.288 0-2.333-1.044-2.333-2.332v-13.071c0-0.884 0.391-1.723 1.067-2.293l9-7.589zM30.667 23.333c0-4.050-3.283-7.333-7.333-7.333s-7.333 3.283-7.333 7.333v0c0 4.050 3.283 7.333 7.333 7.333s7.333-3.283 7.333-7.333v0zM24 24l0.001 3.337c0 0.368-0.298 0.667-0.667 0.667s-0.667-0.298-0.667-0.667v0-3.337h-3.34c-0.368 0-0.667-0.298-0.667-0.667s0.298-0.667 0.667-0.667v0h3.339v-3.333c0-0.368 0.298-0.667 0.667-0.667s0.667 0.298 0.667 0.667v0 3.333h3.329c0.368 0 0.667 0.298 0.667 0.667s-0.298 0.667-0.667 0.667v0h-3.329z"></path>
</svg>
