<!-- Generated by IcoMoon.io -->
<svg version="1.1" xmlns="http://www.w3.org/2000/svg" width="32" height="32" viewBox="0 0 32 32">
<title>home-person</title>
<path d="M14.066 3.376c1.117-0.942 2.751-0.942 3.868 0l9 7.589c0.676 0.57 1.066 1.409 1.066 2.293v3.759c-0.551-0.493-1.239-0.836-2-0.963v-2.796c0-0.295-0.13-0.574-0.355-0.764l-9-7.589c-0.372-0.314-0.917-0.314-1.289 0l-9 7.589c-0.225 0.19-0.355 0.47-0.355 0.764v13.070c0 0.184 0.149 0.333 0.333 0.333h4.667c0.184 0 0.333-0.149 0.333-0.333v-7.333c0-1.289 1.045-2.333 2.333-2.333h4.667c1.289 0 2.333 1.045 2.333 2.333v3.841c-1.165 0.412-2 1.523-2 2.829v-6.671c0-0.184-0.149-0.333-0.333-0.333h-4.667c-0.184 0-0.333 0.149-0.333 0.333v7.333c0 1.289-1.045 2.333-2.333 2.333h-4.667c-1.289 0-2.333-1.045-2.333-2.333v-13.070c0-0.884 0.39-1.723 1.066-2.293l9-7.589zM25.333 17.333c-1.473 0-2.667 1.194-2.667 2.667s1.194 2.667 2.667 2.667c1.473 0 2.667-1.194 2.667-2.667s-1.194-2.667-2.667-2.667zM20 25.667c0-0.921 0.746-1.667 1.667-1.667h7.333c0.921 0 1.667 0.746 1.667 1.667 0 0.039 0 0.078 0.001 0.117 0.001 0.095 0.002 0.19-0.003 0.285-0.002 0.035-0.005 0.083-0.011 0.141-0.012 0.116-0.034 0.275-0.078 0.463-0.087 0.375-0.262 0.875-0.613 1.377-0.728 1.040-2.115 1.951-4.629 1.951s-3.902-0.911-4.629-1.951c-0.351-0.502-0.526-1.002-0.613-1.377-0.044-0.188-0.066-0.347-0.078-0.463-0.006-0.058-0.009-0.106-0.011-0.141-0.002-0.175-0.002-0.274-0.002-0.398v-0.004z"></path>
</svg>
