<!-- Generated by IcoMoon.io -->
<svg version="1.1" xmlns="http://www.w3.org/2000/svg" width="32" height="32" viewBox="0 0 32 32">
<title>home-split-regular</title>
<path d="M15.473 5.188c0.142-0.117 0.326-0.188 0.527-0.188s0.384 0.071 0.528 0.189l-0.001-0.001 8.833 7.217c0.194 0.158 0.307 0.395 0.307 0.645v13.115c0 0.46-0.373 0.833-0.833 0.833h-17.667c-0.46 0-0.833-0.373-0.833-0.833v-13.115c0-0.251 0.113-0.487 0.307-0.645l8.833-7.217zM17.581 3.897c-0.427-0.351-0.979-0.564-1.581-0.564s-1.154 0.213-1.586 0.567l0.004-0.003-8.833 7.217c-0.563 0.462-0.919 1.157-0.919 1.936v13.115c0 1.381 1.119 2.5 2.5 2.5v0h17.667c1.381 0 2.5-1.119 2.5-2.5v0-13.115c0-0 0-0 0-0 0-0.778-0.356-1.474-0.914-1.932l-0.004-0.003-8.833-7.217zM16.833 8.833c0-0.46-0.373-0.833-0.833-0.833s-0.833 0.373-0.833 0.833v0 1.667c0 0.46 0.373 0.833 0.833 0.833s0.833-0.373 0.833-0.833v0-1.667zM16.833 15.5c0-0.46-0.373-0.833-0.833-0.833s-0.833 0.373-0.833 0.833v0 1.667c0 0.46 0.373 0.833 0.833 0.833s0.833-0.373 0.833-0.833v0-1.667zM16 21.333c0.46 0 0.833 0.373 0.833 0.833v1.667c0 0.46-0.373 0.833-0.833 0.833s-0.833-0.373-0.833-0.833v0-1.667c0-0.46 0.373-0.833 0.833-0.833z"></path>
</svg>
