<!-- Generated by IcoMoon.io -->
<svg version="1.1" xmlns="http://www.w3.org/2000/svg" width="32" height="32" viewBox="0 0 32 32">
<title>home-database</title>
<path d="M16.81 4.3c-0.217-0.185-0.5-0.298-0.81-0.298s-0.593 0.113-0.812 0.299l0.002-0.001-9.75 8.288c-0.27 0.231-0.44 0.572-0.44 0.952 0 0 0 0.001 0 0.001v-0 12.959c0 0.276 0.224 0.5 0.5 0.5v0h9.5v0.5c0 0.567 0.167 1.070 0.422 1.5h-9.922c-1.381 0-2.5-1.119-2.5-2.5v0-12.96c0-0.99 0.443-1.876 1.141-2.472l0.005-0.004 9.75-8.287c0.563-0.481 1.3-0.774 2.105-0.774s1.542 0.293 2.11 0.778l-0.005-0.004 9.75 8.287c0.702 0.6 1.145 1.486 1.145 2.476v0 1.443c-0.6-0.254-1.274-0.463-2-0.622v-0.82c0-0 0-0.001 0-0.001 0-0.381-0.17-0.721-0.438-0.951l-0.002-0.001-9.75-8.287zM17.437 29c-0.596-0.441-0.937-0.954-0.937-1.5v-6.327c0.436 0.33 0.936 0.603 1.46 0.827 1.494 0.64 3.454 1 5.54 1 1.234 0 2.424-0.126 3.5-0.361 0.726-0.16 1.4-0.368 2-0.622l0.040-0.017c0.558-0.235 1.038-0.512 1.479-0.84l-0.019 0.013v6.327c0 1.657-3.134 3-7 3-2.591 0-4.853-0.603-6.064-1.5zM29 20.356c-0.55 0.298-1.228 0.551-2 0.743-1.030 0.255-2.225 0.401-3.5 0.401-3.866 0-7-1.343-7-3s3.134-3 7-3c1.275 0 2.47 0.146 3.5 0.401 0.772 0.192 1.45 0.445 2 0.743 0.94 0.51 1.5 1.155 1.5 1.856 0 0.7-0.56 1.345-1.5 1.856z"></path>
</svg>
