<!-- Generated by IcoMoon.io -->
<svg version="1.1" xmlns="http://www.w3.org/2000/svg" width="32" height="32" viewBox="0 0 32 32">
<title>hourglass-three-quarter-regular</title>
<path d="M10.56 10.667c-0.514-0.352-0.938-0.797-1.256-1.315l-0.011-0.019h13.413c-0.329 0.536-0.752 0.981-1.252 1.324l-0.015 0.010-2.773 1.973c-0.56 0.371-1.027 0.867-1.36 1.452-0.329 0.545-0.523 1.204-0.523 1.908s0.195 1.363 0.533 1.925l-0.009-0.017c0.333 0.584 0.8 1.081 1.36 1.452l2.773 1.973c1.138 0.78 1.879 2.069 1.893 3.531l0 0.002v0.8c0 0.184-0.149 0.333-0.333 0.333v0h-14c-0.184 0-0.333-0.149-0.333-0.333v0-0.8c0.014-1.464 0.755-2.753 1.879-3.524l0.015-0.010 2.773-1.973c0.56-0.371 1.027-0.867 1.36-1.452 0.329-0.545 0.523-1.204 0.523-1.908s-0.194-1.363-0.533-1.925l0.009 0.017c-0.341-0.59-0.799-1.077-1.344-1.442l-0.016-0.010-2.773-1.973zM9 2.667c-2.025 0-3.667 1.642-3.667 3.667v0 0.56c0 2.777 1.477 5.209 3.689 6.554l0.034 0.019 2.413 1.448c0.293 0.178 0.485 0.495 0.485 0.857 0 0.342-0.172 0.644-0.434 0.824l-0.003 0.002-2.828 1.924c-2.037 1.399-3.356 3.715-3.356 6.34v0 0.804c0 2.025 1.642 3.667 3.667 3.667v0h14c2.025 0 3.667-1.642 3.667-3.667v0-0.805c-0-2.624-1.319-4.94-3.33-6.322l-0.026-0.017-2.828-1.924c-0.265-0.183-0.437-0.485-0.437-0.827 0-0.362 0.193-0.679 0.481-0.855l0.004-0.002 2.413-1.448c2.245-1.364 3.722-3.796 3.723-6.573v-0.56c0-2.025-1.642-3.667-3.667-3.667v0h-14zM7.333 6.333c0-0.92 0.747-1.667 1.667-1.667h14c0.92 0 1.667 0.747 1.667 1.667v0.56c-0.001 2.052-1.092 3.849-2.726 4.843l-0.025 0.014-2.413 1.449c-1.88 1.127-1.956 3.821-0.144 5.053l2.827 1.923c1.506 1.034 2.481 2.746 2.481 4.685v0.805c0 0.92-0.747 1.667-1.667 1.667h-14c-0.92 0-1.667-0.747-1.667-1.667v-0.805c0-1.94 0.975-3.651 2.461-4.673l0.019-0.012 2.828-1.923c1.812-1.232 1.736-3.927-0.143-5.053l-2.413-1.449c-1.659-1.008-2.751-2.805-2.752-4.857v-0.56z"></path>
</svg>
