<!-- Generated by IcoMoon.io -->
<svg version="1.1" xmlns="http://www.w3.org/2000/svg" width="32" height="32" viewBox="0 0 32 32">
<title>hourglass-half</title>
<path d="M23 26h-14c-0.184 0-0.333-0.149-0.333-0.333v0-0.8c0.014-1.464 0.755-2.753 1.879-3.524l0.015-0.010 2.773-1.973c1.107-0.74 1.845-1.956 1.92-3.349l0-0.011h1.493c0.075 1.404 0.813 2.62 1.904 3.35l0.016 0.010 2.773 1.973c1.138 0.78 1.879 2.069 1.893 3.531l0 0.002v0.8c0 0.184-0.149 0.333-0.333 0.333v0zM9 2.667c-2.025 0-3.667 1.642-3.667 3.667v0 0.56c0 2.777 1.477 5.209 3.689 6.554l0.034 0.019 2.413 1.448c0.293 0.178 0.485 0.495 0.485 0.857 0 0.342-0.172 0.644-0.434 0.824l-0.003 0.002-2.828 1.924c-2.037 1.399-3.356 3.715-3.356 6.34v0 0.804c0 2.025 1.642 3.667 3.667 3.667v0h14c2.025 0 3.667-1.642 3.667-3.667v0-0.805c-0-2.624-1.319-4.94-3.33-6.322l-0.026-0.017-2.828-1.924c-0.265-0.183-0.437-0.485-0.437-0.827 0-0.362 0.193-0.679 0.481-0.855l0.004-0.002 2.413-1.448c2.245-1.364 3.722-3.796 3.723-6.573v-0.56c0-2.025-1.642-3.667-3.667-3.667v0h-14zM7.333 6.333c0-0.92 0.747-1.667 1.667-1.667h14c0.92 0 1.667 0.747 1.667 1.667v0.56c-0.001 2.052-1.092 3.849-2.726 4.843l-0.025 0.014-2.413 1.449c-1.88 1.127-1.956 3.821-0.144 5.053l2.827 1.923c1.506 1.034 2.481 2.746 2.481 4.685v0.805c0 0.92-0.747 1.667-1.667 1.667h-14c-0.92 0-1.667-0.747-1.667-1.667v-0.805c0-1.94 0.975-3.651 2.461-4.673l0.019-0.012 2.828-1.923c1.812-1.232 1.736-3.927-0.143-5.053l-2.413-1.449c-1.659-1.008-2.751-2.805-2.752-4.857v-0.56z"></path>
</svg>
