<!-- Generated by IcoMoon.io -->
<svg version="1.1" xmlns="http://www.w3.org/2000/svg" width="32" height="32" viewBox="0 0 32 32">
<title>ic-fluent-add-square</title>
<path d="M16 9.333c0.552 0 1 0.448 1 1v4.667h4.667c0.552 0 1 0.448 1 1s-0.448 1-1 1h-4.667v4.667c0 0.552-0.448 1-1 1s-1-0.448-1-1v-4.667h-4.667c-0.552 0-1-0.448-1-1s0.448-1 1-1h4.667v-4.667c0-0.552 0.448-1 1-1z"></path>
<path d="M4 8.333c0-2.393 1.94-4.333 4.333-4.333h15.333c2.393 0 4.333 1.94 4.333 4.333v15.333c0 2.393-1.94 4.333-4.333 4.333h-15.333c-2.393 0-4.333-1.94-4.333-4.333v-15.333zM8.333 6c-1.289 0-2.333 1.045-2.333 2.333v15.333c0 1.289 1.045 2.333 2.333 2.333h15.333c1.289 0 2.333-1.045 2.333-2.333v-15.333c0-1.289-1.045-2.333-2.333-2.333h-15.333z"></path>
</svg>
