<!-- Generated by IcoMoon.io -->
<svg version="1.1" xmlns="http://www.w3.org/2000/svg" width="32" height="32" viewBox="0 0 32 32">
<title>ic-fluent-text-strikethrough</title>
<path d="M6.333 16h19.334c0.552 0 1 0.448 1 1 0 0.506-0.376 0.925-0.864 0.991l-0.136 0.009-3.966-0c1.172 1.084 1.781 2.391 1.781 3.913 0 3.767-4.309 6.186-9.006 5.641-2.979-0.346-5.078-1.541-6.18-3.603-0.26-0.487-0.076-1.093 0.411-1.353s1.093-0.076 1.353 0.411c0.76 1.423 2.27 2.282 4.647 2.558 3.657 0.425 6.775-1.326 6.775-3.654 0-1.563-1.074-2.836-3.421-3.848l-0.155-0.065-11.575 0c-0.506 0-0.925-0.376-0.991-0.864l-0.009-0.136c0-0.506 0.376-0.925 0.864-0.991l0.136-0.009zM8.348 10.831c0.203-3.775 3.762-5.958 8.431-5.416 2.918 0.339 5.152 1.404 6.644 3.212 0.352 0.426 0.291 1.056-0.135 1.408s-1.056 0.291-1.408-0.135c-1.136-1.377-2.895-2.215-5.332-2.499-3.623-0.421-6.2 1.073-6.2 3.429 0 1.029 0.312 1.797 1.106 2.642l0.171 0.177c0.126 0.127 0.262 0.26 0.334 0.319l0.041 0.029h-2.559l-0.033-0.052c-0.191-0.275-1.142-1.594-1.060-3.114z"></path>
</svg>
