<!-- Generated by IcoMoon.io -->
<svg version="1.1" xmlns="http://www.w3.org/2000/svg" width="32" height="32" viewBox="0 0 32 32">
<title>ic-fluent-airplane</title>
<path d="M12.626 12.858l-0.934-7.833-0.002-0.098c0-1.185 0.96-2.145 2.145-2.145 1.070 0 2.061 0.56 2.638 1.513l0.115 0.214 3.927 8.119 5.276-0.154c1.912-0.056 3.507 1.448 3.563 3.374l0.001 0.087c0 1.912-1.55 3.463-3.492 3.462l-5.286-0.155-3.989 8.251c-0.511 1.056-1.58 1.727-2.753 1.727-1.185 0-2.145-0.96-2.145-2.175l0.009-0.157 0.943-7.878-2.843-0.083-0.359 0.981c-0.374 1.023-1.347 1.704-2.437 1.704-1.168 0-2.115-0.947-2.115-2.115l0-1.013-0.207-0.043c-1.187-0.248-2.037-1.294-2.037-2.506s0.851-2.258 2.038-2.505l0.206-0.043-0-1.014c0-1.069 0.798-1.966 1.913-2.104l0.202-0.011c0.993 0 1.897 0.567 2.353 1.503l0.084 0.2 0.36 0.981 2.827-0.083zM13.835 4.781c-0.080 0-0.145 0.065-0.146 0.115l1.182 9.896-6.454 0.189-0.837-2.287-0.043-0.105c-0.099-0.203-0.306-0.333-0.472-0.335l-0.078 0.003c-0.055 0.007-0.099 0.056-0.099 0.113l0.001 2.641-1.799 0.375c-0.259 0.054-0.445 0.282-0.445 0.547s0.186 0.494 0.445 0.548l1.799 0.375-0.001 2.64c0 0.063 0.051 0.115 0.115 0.115 0.25 0 0.473-0.156 0.558-0.39l0.854-2.335 6.472 0.189-1.196 9.962-0.002 0.039c0 0.080 0.065 0.145 0.145 0.145 0.406 0 0.776-0.232 0.952-0.597l4.553-9.418 6.551 0.192c0.808 0 1.463-0.655 1.463-1.448l-0.001-0.058c-0.024-0.807-0.697-1.443-1.505-1.419l-6.571 0.192-4.469-9.243-0.070-0.131c-0.191-0.315-0.534-0.509-0.904-0.509z"></path>
</svg>
