<!-- Generated by IcoMoon.io -->
<svg version="1.1" xmlns="http://www.w3.org/2000/svg" width="32" height="32" viewBox="0 0 32 32">
<title>ic-fluent-arrow-export-up-24</title>
<path d="M16.374 2.96c-0.391-0.391-1.024-0.391-1.414 0l-6.667 6.667c-0.391 0.391-0.391 1.024 0 1.414s1.024 0.391 1.414 0l4.96-4.96v18.252c0 0.552 0.448 1 1 1s1-0.448 1-1v-18.252l4.96 4.96c0.391 0.391 1.024 0.391 1.414 0s0.391-1.024 0-1.414l-6.667-6.667zM7 27.333c-0.552 0-1 0.448-1 1s0.448 1 1 1h17.333c0.552 0 1-0.448 1-1s-0.448-1-1-1h-17.333z"></path>
</svg>
