<!-- Generated by IcoMoon.io -->
<svg version="1.1" xmlns="http://www.w3.org/2000/svg" width="32" height="32" viewBox="0 0 32 32">
<title>ic_fluent_arrow_repeat_all</title>
<path d="M19.48 3.293l-0.103-0.089c-0.166-0.127-0.376-0.204-0.604-0.204-0.276 0-0.526 0.112-0.706 0.293l-0 0-0.091 0.104c-0.127 0.166-0.203 0.377-0.203 0.606 0 0.277 0.112 0.528 0.293 0.71l-0-0 2.628 2.636-9.672 0.005c-4.643 0.164-8.356 3.992-8.356 8.693 0 2.253 0.853 4.307 2.256 5.853l0.096 0.092c0.174 0.149 0.402 0.24 0.651 0.24 0.553 0 1.001-0.448 1.001-1.001 0-0.233-0.080-0.448-0.214-0.619l0.002 0.002-0.267-0.308c-0.949-1.145-1.525-2.629-1.525-4.248 0-0.005 0-0.009 0-0.014v0.001c0-3.695 2.985-6.691 6.667-6.691h9.175l-2.443 2.453-0.089 0.104c-0.127 0.166-0.203 0.377-0.203 0.606 0 0.277 0.112 0.528 0.293 0.71l-0-0c0.181 0.181 0.431 0.294 0.707 0.294s0.526-0.112 0.707-0.294l0-0 4.243-4.257 0.089-0.104c0.127-0.167 0.203-0.378 0.203-0.607 0-0.277-0.112-0.528-0.293-0.71l0 0-4.243-4.259zM26.973 10.095c-0.172-0.143-0.395-0.229-0.638-0.229-0.553 0-1.001 0.448-1.001 1.001 0 0.248 0.090 0.476 0.24 0.651l-0.001-0.001c1.091 1.185 1.76 2.774 1.76 4.518 0 0.004 0 0.009 0 0.013v-0.001c0 3.696-2.985 6.692-6.667 6.692h-9.256l2.54-2.548 0.099-0.115c0.122-0.164 0.195-0.371 0.195-0.595 0-0.229-0.077-0.441-0.206-0.61l0.002 0.002-0.089-0.103-0.112-0.097c-0.164-0.123-0.371-0.197-0.595-0.197-0.229 0-0.439 0.077-0.608 0.206l0.002-0.002-0.101 0.089-4.243 4.259-0.097 0.113c-0.122 0.165-0.195 0.372-0.195 0.596 0 0.229 0.076 0.44 0.205 0.609l-0.002-0.002 0.089 0.103 4.243 4.259 0.112 0.096c0.391 0.293 0.947 0.26 1.301-0.097 0.181-0.182 0.293-0.433 0.293-0.71 0-0.229-0.076-0.439-0.204-0.608l0.002 0.003-0.091-0.103-2.532-2.541 9.559-0.005c4.643-0.164 8.356-3.993 8.356-8.693 0-0.004 0-0.009 0-0.014 0-2.255-0.86-4.309-2.269-5.853l0.006 0.007-0.097-0.092z"></path>
</svg>
