<!-- Generated by IcoMoon.io -->
<svg version="1.1" xmlns="http://www.w3.org/2000/svg" width="32" height="32" viewBox="0 0 32 32">
<title>icons</title>
<path d="M17.333 4.667c-2.577 0-4.666 2.089-4.666 4.667 0 1.154 0.419 2.211 1.113 3.025l-0.005-0.007c0.148 0.173 0.238 0.4 0.238 0.648 0 0.552-0.448 1-1 1h-8.013c-0.184 0-0.333 0.149-0.333 0.333v0 1.333c0 3.867 3.133 7 7 7h4.291c0.2 0.147 0.425 0.261 0.672 0.34-0.336 0.476-0.658 1.020-0.938 1.588l-0.032 0.072h-3.993c-4.971 0-9-4.029-9-9v0-1.333c0-1.288 1.045-2.333 2.333-2.333h6.221c-0.352-0.785-0.556-1.702-0.556-2.667 0-3.683 2.986-6.668 6.668-6.668 2.718 0 5.057 1.626 6.095 3.959l0.017 0.042h2.221c1.288 0 2.333 1.045 2.333 2.333 0 2.025-1.642 3.667-3.667 3.667v0h-1.227c-0.18 0.313-0.387 0.611-0.615 0.889 0.209 0.183 0.407 0.379 0.589 0.587-0.235 0.025-0.475 0.053-0.72 0.087-0.663 0.088-1.259 0.231-1.83 0.428l0.066-0.020c-0.025-0.016-0.069-0.042-0.113-0.067l-0.020-0.011c-0.305-0.175-0.508-0.499-0.508-0.871 0-0.309 0.14-0.585 0.36-0.768l0.002-0.001c0.693-0.579 1.212-1.345 1.481-2.22l0.009-0.033h2.527c0.92 0 1.667-0.747 1.667-1.667 0-0.184-0.149-0.333-0.333-0.333v0h-3.713c-0.338-2.275-2.277-4-4.619-4-0 0-0.001 0-0.001 0h0zM22.535 15.551c3.735-0.493 6.052-0.080 7.417 0.303 0.425 0.121 0.731 0.507 0.731 0.963 0 0.347-0.177 0.652-0.445 0.832l-0.004 0.002c-0.076 0.051-0.2 0.173-0.347 0.453-0.147 0.277-0.284 0.64-0.427 1.1-0.117 0.379-0.227 0.787-0.348 1.233l-0.076 0.283c-0.149 0.547-0.312 1.133-0.509 1.715-0.389 1.149-0.939 2.376-1.863 3.317-0.96 0.977-2.26 1.587-4 1.587-1.771 0-3.008-0.719-3.8-1.545-0.537 0.987-0.817 1.916-0.86 2.601-0.042 0.517-0.472 0.922-0.997 0.922-0.552 0-1-0.448-1-1 0-0.015 0-0.030 0.001-0.045l-0 0.002c0.093-1.52 0.887-3.432 2.216-5.125 1.345-1.712 3.307-3.289 5.841-4.053 0.083-0.025 0.177-0.039 0.276-0.039 0.552 0 1 0.448 1 1 0 0.445-0.29 0.821-0.691 0.951l-0.007 0.002c-1.931 0.583-3.48 1.749-4.603 3.077 0.413 0.589 1.229 1.252 2.625 1.252 1.215 0 1.997-0.403 2.571-0.987 0.609-0.621 1.040-1.507 1.396-2.56 0.176-0.519 0.327-1.055 0.473-1.596l0.073-0.268c0.12-0.447 0.241-0.899 0.371-1.316 0.12-0.388 0.256-0.777 0.419-1.137-1.191-0.173-2.867-0.245-5.172 0.059-2.664 0.353-4.165 2.297-4.5 3.513-0.126 0.418-0.508 0.718-0.959 0.718-0.552 0-1-0.448-1-1 0-0.088 0.011-0.174 0.033-0.256l-0.002 0.007c0.528-1.923 2.637-4.497 6.165-4.965z"></path>
</svg>
