<!-- Generated by IcoMoon.io -->
<svg version="1.1" xmlns="http://www.w3.org/2000/svg" width="32" height="32" viewBox="0 0 32 32">
<title>icons</title>
<path d="M17.333 4.667c-2.577 0-4.667 2.089-4.667 4.667 0 1.152 0.416 2.205 1.108 3.019 0.252 0.297 0.309 0.714 0.145 1.067s-0.518 0.58-0.908 0.58h-8.013c-0.184 0-0.333 0.149-0.333 0.333v1.333c0 3.866 3.134 7 7 7h4.291c0.199 0.145 0.425 0.261 0.672 0.339-0.377 0.544-0.701 1.101-0.97 1.661h-3.993c-4.971 0-9-4.029-9-9v-1.333c0-1.289 1.045-2.333 2.333-2.333h6.222c-0.357-0.817-0.555-1.719-0.555-2.667 0-3.682 2.985-6.667 6.667-6.667 2.734 0 5.083 1.645 6.112 4h2.221c1.289 0 2.333 1.045 2.333 2.333 0 2.025-1.642 3.667-3.667 3.667h-1.225c-0.181 0.314-0.388 0.611-0.616 0.89 0.209 0.182 0.406 0.378 0.59 0.586-0.235 0.025-0.475 0.054-0.721 0.087-0.625 0.083-1.213 0.222-1.763 0.408-0.043-0.027-0.087-0.053-0.132-0.078-0.286-0.162-0.474-0.454-0.503-0.781s0.104-0.648 0.356-0.858c0.699-0.582 1.224-1.362 1.489-2.254h2.526c0.921 0 1.667-0.746 1.667-1.667 0-0.184-0.149-0.333-0.333-0.333h-3.714c-0.324-2.262-2.269-4-4.619-4z"></path>
<path d="M22.535 15.551c3.735-0.495 6.051-0.081 7.417 0.303 0.376 0.106 0.657 0.421 0.717 0.808s-0.109 0.773-0.435 0.989c-0.076 0.051-0.199 0.173-0.347 0.454-0.146 0.277-0.284 0.641-0.426 1.1-0.117 0.379-0.228 0.788-0.348 1.234l-0.076 0.282c-0.148 0.546-0.312 1.133-0.509 1.715-0.389 1.15-0.939 2.376-1.862 3.317-0.959 0.978-2.26 1.586-3.999 1.586-1.772 0-3.010-0.718-3.8-1.544-0.538 0.986-0.819 1.916-0.861 2.601-0.034 0.551-0.508 0.971-1.059 0.937s-0.971-0.508-0.937-1.059c0.093-1.519 0.886-3.432 2.216-5.125 1.345-1.713 3.308-3.29 5.841-4.053 0.529-0.159 1.087 0.14 1.246 0.669s-0.14 1.087-0.669 1.246c-1.93 0.581-3.48 1.749-4.603 3.076 0.415 0.589 1.23 1.252 2.626 1.252 1.215 0 1.998-0.403 2.571-0.987 0.609-0.62 1.039-1.507 1.396-2.558 0.176-0.519 0.326-1.056 0.473-1.597l0.073-0.268c0.121-0.446 0.243-0.898 0.372-1.316 0.12-0.388 0.256-0.777 0.419-1.137-1.191-0.174-2.867-0.246-5.172 0.059-2.665 0.353-4.166 2.297-4.5 3.513-0.146 0.533-0.697 0.846-1.229 0.699s-0.845-0.697-0.699-1.229c0.529-1.923 2.638-4.498 6.166-4.965z"></path>
</svg>
