<!-- Generated by IcoMoon.io -->
<svg version="1.1" xmlns="http://www.w3.org/2000/svg" width="32" height="32" viewBox="0 0 32 32">
<title>image-multiple-off-regular</title>
<path d="M4.566 3.434c-0.145-0.145-0.345-0.235-0.566-0.235-0.442 0-0.801 0.359-0.801 0.801 0 0.221 0.090 0.421 0.235 0.566v0l2.254 2.253c-0.555 0.769-0.888 1.731-0.888 2.771 0 0.003 0 0.007 0 0.010v-0.001 9.6c0 2.651 2.149 4.8 4.8 4.8v0h9.6c0.003 0 0.006 0 0.010 0 1.040 0 2.002-0.333 2.785-0.898l-0.014 0.010 1.373 1.373c-0.92 0.696-2.084 1.115-3.345 1.115-0.003 0-0.006 0-0.009 0h-10.777c0.88 0.982 2.157 1.6 3.578 1.6h7.2c0.003 0 0.007 0 0.011 0 1.703 0 3.267-0.594 4.497-1.585l-0.014 0.011 2.939 2.941c0.145 0.145 0.345 0.235 0.566 0.235 0.442 0 0.801-0.359 0.801-0.801 0-0.221-0.090-0.421-0.235-0.566l-24-24zM13.571 14.704c-0.564 0.154-1.048 0.442-1.434 0.829l-5.296 5.294c-0.277-0.463-0.442-1.021-0.442-1.618 0-0.003 0-0.007 0-0.010v0-9.6c0-0.592 0.162-1.149 0.443-1.626l6.728 6.728zM22.4 9.6v9.406l1.437 1.437c0.107-0.397 0.163-0.813 0.163-1.243v-9.6c0-2.651-2.149-4.8-4.8-4.8v0h-9.6c-0.43 0-0.848 0.056-1.243 0.163l1.435 1.437h9.408c1.767 0 3.2 1.433 3.2 3.2v0zM25.275 21.882l1.222 1.222c0.443-0.905 0.702-1.97 0.702-3.095 0-0.003 0-0.006 0-0.009v0-7.2c0-1.421-0.618-2.699-1.6-3.578v10.778c-0.002 0.675-0.121 1.322-0.337 1.921l0.013-0.040zM18.4 12c0.884 0 1.6-0.716 1.6-1.6s-0.716-1.6-1.6-1.6v0c-0.884 0-1.6 0.716-1.6 1.6s0.716 1.6 1.6 1.6v0zM15.531 16.662l5.294 5.296c-0.463 0.277-1.021 0.442-1.618 0.442-0.003 0-0.005 0-0.008 0h-9.6c-0.592 0-1.149-0.162-1.626-0.443l5.294-5.294c0.29-0.289 0.689-0.468 1.131-0.468s0.842 0.179 1.131 0.468v0z"></path>
</svg>
