<!-- Generated by IcoMoon.io -->
<svg version="1.1" xmlns="http://www.w3.org/2000/svg" width="32" height="32" viewBox="0 0 32 32">
<title>image-add</title>
<path d="M25 5.333c2.393 0 4.333 1.94 4.333 4.333v0 15.333c0 2.393-1.94 4.333-4.333 4.333v0h-15.333c-2.393 0-4.333-1.94-4.333-4.333v0-8.331c0.632 0.264 1.303 0.453 2 0.563v7.768c0 0.277 0.048 0.544 0.137 0.792l7.764-7.601c0.541-0.529 1.281-0.856 2.099-0.856 0.736 0 1.41 0.265 1.933 0.705l-0.005-0.004 0.171 0.155 7.763 7.603c0.089-0.248 0.139-0.515 0.139-0.793v-15.333c0-1.289-1.045-2.333-2.333-2.333v0h-7.768c-0.118-0.75-0.314-1.423-0.584-2.056l0.021 0.056h8.331zM16.745 19.525l-0.112 0.093-7.743 7.583c0.243 0.085 0.504 0.132 0.776 0.132h15.333c0.271 0 0.532-0.047 0.773-0.132l-7.74-7.581c-0.18-0.177-0.427-0.286-0.7-0.286-0.221 0-0.425 0.072-0.591 0.193l0.003-0.002zM21.669 10c1.658 0 3.003 1.344 3.003 3.003s-1.344 3.003-3.003 3.003v0c-1.658 0-3.003-1.344-3.003-3.003s1.344-3.003 3.003-3.003v0zM8.667 1.333c4.050 0 7.333 3.283 7.333 7.333s-3.283 7.333-7.333 7.333v0c-4.050 0-7.333-3.283-7.333-7.333s3.283-7.333 7.333-7.333v0zM21.669 12c-0.554 0-1.003 0.449-1.003 1.003s0.449 1.003 1.003 1.003v0c0.554 0 1.003-0.449 1.003-1.003s-0.449-1.003-1.003-1.003v0zM8.667 4l-0.12 0.009c-0.273 0.051-0.485 0.263-0.535 0.532l-0.001 0.004-0.011 0.121v3.333h-3.336l-0.12 0.011c-0.273 0.051-0.485 0.263-0.535 0.532l-0.001 0.004-0.011 0.12 0.011 0.12c0.051 0.273 0.263 0.485 0.532 0.535l0.004 0.001 0.12 0.011h3.336v3.337l0.011 0.12c0.051 0.273 0.263 0.485 0.532 0.535l0.004 0.001 0.12 0.012 0.12-0.012c0.273-0.051 0.485-0.263 0.535-0.532l0.001-0.004 0.011-0.12v-3.337h3.34l0.12-0.011c0.273-0.051 0.485-0.263 0.535-0.532l0.001-0.004 0.011-0.12-0.011-0.12c-0.051-0.273-0.264-0.485-0.533-0.535l-0.004-0.001-0.12-0.011h-3.339v-3.333l-0.011-0.12c-0.051-0.274-0.263-0.486-0.532-0.537l-0.004-0.001-0.12-0.009z"></path>
</svg>
