<!-- Generated by IcoMoon.io -->
<svg version="1.1" xmlns="http://www.w3.org/2000/svg" width="32" height="32" viewBox="0 0 32 32">
<title>image-off</title>
<path d="M4.374 2.96c-0.391-0.391-1.024-0.391-1.414-0s-0.391 1.024-0 1.414l1.685 1.685c-0.409 0.661-0.644 1.44-0.644 2.275v15.333c0 2.393 1.94 4.333 4.333 4.333h15.333c0.834 0 1.613-0.236 2.275-0.644l1.685 1.685c0.391 0.391 1.024 0.391 1.414 0s0.391-1.024 0-1.414l-24.666-24.667zM16.091 17.505l8.274 8.275c0.025 0.030 0.051 0.059 0.075 0.089-0.242 0.085-0.503 0.131-0.774 0.131h-15.333c-0.272 0-0.533-0.047-0.775-0.132l8.533-8.363zM14.825 16.24c-0.335 0.142-0.649 0.348-0.924 0.618l-7.763 7.601c-0.089-0.247-0.138-0.514-0.138-0.792v-15.333c0-0.275 0.048-0.539 0.135-0.784l8.69 8.69z"></path>
<path d="M26 21.758v-13.424c0-1.289-1.045-2.333-2.333-2.333h-13.424l-1.999-1.999c0.030-0.001 0.060-0.001 0.090-0.001h15.333c2.393 0 4.333 1.94 4.333 4.333v15.333c0 0.030-0 0.060-0.001 0.090l-1.999-1.999z"></path>
<path d="M20.336 8.667c1.658 0 3.003 1.344 3.003 3.003s-1.344 3.003-3.003 3.003c-1.658 0-3.003-1.344-3.003-3.003s1.344-3.003 3.003-3.003zM20.336 10.667c-0.554 0-1.003 0.449-1.003 1.003s0.449 1.003 1.003 1.003c0.554 0 1.003-0.449 1.003-1.003s-0.449-1.003-1.003-1.003z"></path>
</svg>
