<!-- Generated by IcoMoon.io -->
<svg version="1.1" xmlns="http://www.w3.org/2000/svg" width="32" height="32" viewBox="0 0 32 32">
<title>image-reflection-regular</title>
<path d="M21.667 10.333c0 0.92-0.746 1.667-1.667 1.667s-1.667-0.746-1.667-1.667v0c0-0.92 0.746-1.667 1.667-1.667s1.667 0.746 1.667 1.667v0zM22.556 22.656c-0.067 0.007-0.144 0.011-0.223 0.011h-1.333c-0.552 0-1 0.448-1 1s0.448 1 1 1v0h1.333c1.288 0 2.333 1.045 2.333 2.333v1c0 0.552 0.448 1 1 1s1-0.448 1-1v0-1c0-0.001 0-0.003 0-0.004 0-1.336-0.606-2.53-1.557-3.324l-0.007-0.006c0.958-0.799 1.564-1.993 1.564-3.329 0-0.001 0-0.003 0-0.004v0-12c0-2.393-1.94-4.333-4.333-4.333v0h-12.667c-2.393 0-4.333 1.94-4.333 4.333v0 12c0 1.34 0.608 2.539 1.564 3.333-0.958 0.799-1.564 1.993-1.564 3.329 0 0.002 0 0.003 0 0.005v-0 1c0 0.552 0.448 1 1 1s1-0.448 1-1v0-1c0-1.288 1.045-2.333 2.333-2.333h1.333c0.552 0 1-0.448 1-1s-0.448-1-1-1v0h-1.333c-0.076 0-0.151-0.004-0.224-0.011l5.859-5.712c0.18-0.176 0.426-0.284 0.698-0.284s0.518 0.108 0.698 0.284l-0-0 5.859 5.712zM9.667 6h12.667c1.288 0 2.333 1.045 2.333 2.333v12c0 0.456-0.131 0.88-0.356 1.24l-6.217-6.061c-0.54-0.526-1.279-0.851-2.093-0.851s-1.553 0.325-2.094 0.852l0.001-0.001-6.217 6.060c-0.223-0.35-0.356-0.778-0.356-1.236 0-0.001 0-0.002 0-0.003v0-12c0-1.288 1.045-2.333 2.333-2.333zM15 22.667c-0.552 0-1 0.448-1 1s0.448 1 1 1v0h2c0.552 0 1-0.448 1-1s-0.448-1-1-1v0h-2z"></path>
</svg>
