<!-- Generated by IcoMoon.io -->
<svg version="1.1" xmlns="http://www.w3.org/2000/svg" width="32" height="32" viewBox="0 0 32 32">
<title>image-copy</title>
<path d="M6.009 8.010c-1.207 0.767-2.009 2.118-2.009 3.656v8.667c0 3.866 3.134 7 7 7h8.667c1.538 0 2.89-0.802 3.659-2.010l-0.163 0.008-0.162 0.002h-12c-2.761 0-5-2.239-5-5v-12c0-0.108 0.003-0.216 0.009-0.323zM11.667 4c-2.393 0-4.333 1.94-4.333 4.333v11.333c0 2.393 1.94 4.333 4.333 4.333h11.333c2.393 0 4.333-1.94 4.333-4.333v-11.333c0-2.393-1.94-4.333-4.333-4.333h-11.333zM17.908 16.183l0.123 0.102 5.742 5.584c-0.242 0.085-0.502 0.131-0.773 0.131h-11.333c-0.271 0-0.531-0.046-0.773-0.131l5.743-5.584c0.349-0.34 0.885-0.374 1.271-0.102zM11.667 6h11.333c1.289 0 2.333 1.045 2.333 2.333v11.333c0 0.278-0.049 0.545-0.138 0.793l-5.77-5.609c-1.106-1.075-2.835-1.129-4.003-0.161l-0.18 0.161-5.77 5.61c-0.090-0.248-0.139-0.515-0.139-0.794v-11.333c0-1.289 1.045-2.333 2.333-2.333zM13.999 9.002c-0.92 0-1.666 0.746-1.666 1.666s0.746 1.666 1.666 1.666c0.92 0 1.666-0.746 1.666-1.666s-0.746-1.666-1.666-1.666z"></path>
</svg>
