<!-- Generated by IcoMoon.io -->
<svg version="1.1" xmlns="http://www.w3.org/2000/svg" width="32" height="32" viewBox="0 0 32 32">
<title>image-edit</title>
<path d="M27.997 8.333c0-2.393-1.94-4.333-4.333-4.333v0h-15.331c-2.393 0-4.333 1.94-4.333 4.333v0 15.332c0 2.393 1.94 4.333 4.333 4.333v0h6.552l0.475-1.899 0.027-0.101h-7.053c-0.272 0-0.533-0.047-0.776-0.133l7.743-7.58 0.111-0.093c0.163-0.12 0.367-0.192 0.589-0.192 0.272 0 0.519 0.109 0.699 0.285l-0-0 2.772 2.715 1.413-1.413-2.787-2.731-0.171-0.155c-0.517-0.436-1.192-0.702-1.928-0.702-0.817 0-1.558 0.327-2.099 0.857l0.001-0-7.763 7.6c-0.087-0.234-0.137-0.505-0.137-0.788 0-0.001 0-0.002 0-0.003v0-15.333c0-1.288 1.044-2.333 2.333-2.333h15.332c1.288 0 2.333 1.045 2.333 2.333v6.644c0.637-0.253 1.324-0.352 2-0.293v-6.349zM23.337 11.669c0-1.658-1.344-3.003-3.003-3.003s-3.003 1.344-3.003 3.003v0c0 1.658 1.344 3.003 3.003 3.003s3.003-1.344 3.003-3.003v0zM19.332 11.669c0-0.554 0.449-1.003 1.003-1.003s1.003 0.449 1.003 1.003v0c0 0.554-0.449 1.003-1.003 1.003s-1.003-0.449-1.003-1.003v0zM25.465 16.892l-7.869 7.868c-0.446 0.446-0.775 1.009-0.937 1.639l-0.005 0.025-0.609 2.44c-0.267 1.063 0.696 2.024 1.757 1.759l2.44-0.611c0.655-0.167 1.218-0.496 1.664-0.941l7.868-7.871c0.531-0.548 0.859-1.296 0.859-2.121 0-1.683-1.365-3.048-3.048-3.048-0.825 0-1.574 0.328-2.123 0.861l0.001-0.001z"></path>
</svg>
