<!-- Generated by IcoMoon.io -->
<svg version="1.1" xmlns="http://www.w3.org/2000/svg" width="32" height="32" viewBox="0 0 32 32">
<title>image-globe</title>
<path d="M6.676 8c0.053-1.886 0.33-3.558 0.737-4.779 0.228-0.685 0.486-1.191 0.739-1.513 0.259-0.329 0.438-0.375 0.514-0.375s0.255 0.046 0.514 0.375c0.253 0.321 0.51 0.828 0.739 1.513 0.407 1.221 0.684 2.893 0.737 4.779h-3.981zM6.149 2.799c0.143-0.43 0.306-0.828 0.49-1.182-2.858 0.821-5.001 3.332-5.276 6.383h3.979c0.054-2 0.346-3.821 0.806-5.201zM11.185 2.799c-0.143-0.43-0.306-0.828-0.49-1.182 2.858 0.821 5.001 3.332 5.276 6.383h-3.979c-0.054-2-0.346-3.821-0.806-5.201zM11.991 9.333h3.979c-0.275 3.050-2.418 5.562-5.276 6.383 0.184-0.354 0.347-0.752 0.49-1.182 0.46-1.38 0.753-3.201 0.806-5.201zM9.181 15.625c-0.259 0.329-0.438 0.375-0.514 0.375s-0.255-0.046-0.514-0.375c-0.253-0.321-0.51-0.828-0.739-1.513-0.407-1.221-0.684-2.893-0.737-4.779h3.981c-0.053 1.886-0.33 3.558-0.737 4.779-0.228 0.685-0.486 1.191-0.739 1.513zM1.363 9.333c0.275 3.050 2.418 5.562 5.276 6.383-0.184-0.354-0.347-0.752-0.49-1.182-0.46-1.38-0.753-3.201-0.806-5.201h-3.979zM23.667 6h-6.751c-0.23-0.711-0.549-1.382-0.944-2h7.696c2.393 0 4.333 1.94 4.333 4.333v15.333c0 2.393-1.94 4.333-4.333 4.333h-15.333c-2.393 0-4.333-1.94-4.333-4.333v-7.696c0.618 0.395 1.289 0.715 2 0.944v6.751c0 0.278 0.049 0.544 0.138 0.792l7.763-7.601c1.111-1.088 2.856-1.139 4.027-0.155l0.171 0.155 7.763 7.602c0.089-0.248 0.138-0.515 0.138-0.793v-15.333c0-1.289-1.045-2.333-2.333-2.333zM24.441 25.869l-7.741-7.582c-0.353-0.346-0.899-0.378-1.288-0.094l-0.111 0.094-7.742 7.582c0.243 0.085 0.504 0.132 0.775 0.132h15.333c0.271 0 0.532-0.046 0.774-0.131zM20.336 8.667c1.658 0 3.003 1.344 3.003 3.003s-1.344 3.003-3.003 3.003c-1.658 0-3.003-1.344-3.003-3.003s1.344-3.003 3.003-3.003zM20.336 10.667c-0.554 0-1.003 0.449-1.003 1.003s0.449 1.003 1.003 1.003c0.554 0 1.003-0.449 1.003-1.003s-0.449-1.003-1.003-1.003z"></path>
</svg>
