<!-- Generated by IcoMoon.io -->
<svg version="1.1" xmlns="http://www.w3.org/2000/svg" width="32" height="32" viewBox="0 0 32 32">
<title>image-shadow</title>
<path d="M18.662 8.998c0 0.919-0.745 1.664-1.664 1.664s-1.664-0.745-1.664-1.664 0.745-1.664 1.664-1.664c0.919 0 1.664 0.745 1.664 1.664zM2.667 7c0-2.393 1.94-4.333 4.333-4.333h12c2.393 0 4.333 1.94 4.333 4.333v12c0 2.393-1.94 4.333-4.333 4.333h-12c-2.393 0-4.333-1.94-4.333-4.333v-12zM7 4.667c-1.289 0-2.333 1.045-2.333 2.333v12c0 0.308 0.060 0.602 0.168 0.871l6.115-5.721c1.153-1.079 2.946-1.079 4.099 0l6.116 5.721c0.109-0.269 0.168-0.563 0.168-0.872v-12c0-1.289-1.045-2.333-2.333-2.333h-12zM19.689 21.23l-6.007-5.619c-0.384-0.36-0.982-0.36-1.366 0l-6.006 5.619c0.218 0.067 0.45 0.104 0.69 0.104h12c0.24 0 0.471-0.036 0.689-0.103zM8.665 25v-0.333h10.668c0.107 0 0.213-0.003 0.318-0.009 2.798-0.164 5.017-2.485 5.017-5.324v-10.667h0.331c2.393 0 4.333 1.94 4.333 4.333v9.333c0 3.866-3.134 7-7 7h-9.333c-2.393 0-4.333-1.94-4.333-4.333z"></path>
</svg>
