<!-- Generated by IcoMoon.io -->
<svg version="1.1" xmlns="http://www.w3.org/2000/svg" width="32" height="32" viewBox="0 0 32 32">
<title>image-globe</title>
<path d="M6.676 8c0.053-1.887 0.331-3.559 0.737-4.78 0.228-0.684 0.485-1.191 0.739-1.512 0.261-0.329 0.439-0.375 0.515-0.375s0.255 0.045 0.515 0.375c0.253 0.321 0.511 0.827 0.739 1.512 0.407 1.221 0.684 2.893 0.737 4.78h-3.981zM6.148 2.8c0.144-0.431 0.307-0.829 0.491-1.183-2.875 0.848-4.989 3.334-5.274 6.353l-0.002 0.029h3.98c0.053-2 0.347-3.82 0.805-5.2zM11.185 2.8c-0.152-0.463-0.318-0.854-0.512-1.228l0.021 0.045c2.875 0.848 4.989 3.334 5.274 6.353l0.002 0.029h-3.98c-0.053-2-0.347-3.82-0.805-5.2zM11.991 9.333h3.98c-0.287 3.048-2.401 5.535-5.224 6.37l-0.052 0.013c0.173-0.328 0.339-0.719 0.474-1.124l0.017-0.058c0.46-1.381 0.752-3.2 0.805-5.201zM9.181 15.625c-0.26 0.329-0.439 0.375-0.515 0.375s-0.255-0.045-0.515-0.375c-0.253-0.321-0.511-0.827-0.739-1.512-0.407-1.221-0.684-2.893-0.737-4.78h3.981c-0.053 1.887-0.331 3.559-0.737 4.78-0.228 0.684-0.485 1.191-0.739 1.512zM1.363 9.333c0.288 3.048 2.401 5.535 5.224 6.37l0.052 0.013c-0.173-0.328-0.339-0.719-0.474-1.124l-0.017-0.058c-0.46-1.381-0.752-3.201-0.805-5.201h-3.98z"></path>
<path d="M23.667 6h-6.751c-0.25-0.763-0.571-1.425-0.966-2.034l0.020 0.034h7.696c2.393 0 4.333 1.94 4.333 4.333v0 15.333c0 2.393-1.94 4.333-4.333 4.333v0h-15.333c-2.393 0-4.333-1.94-4.333-4.333v0-7.696c0.617 0.396 1.289 0.715 2 0.945v6.751c0 0.277 0.048 0.544 0.137 0.792l7.764-7.601c0.541-0.529 1.281-0.856 2.099-0.856 0.736 0 1.411 0.265 1.933 0.705l-0.005-0.004 0.171 0.155 7.763 7.603c0.089-0.248 0.139-0.515 0.139-0.793v-15.333c0-1.289-1.045-2.333-2.333-2.333v0zM24.44 25.868l-7.74-7.581c-0.18-0.177-0.427-0.286-0.7-0.286-0.221 0-0.425 0.072-0.591 0.193l0.003-0.002-0.112 0.093-7.743 7.583c0.243 0.085 0.504 0.132 0.776 0.132h15.333c0.271 0 0.532-0.047 0.773-0.132z"></path>
<path d="M20.336 8.667c1.658 0 3.003 1.344 3.003 3.003s-1.344 3.003-3.003 3.003v0c-1.658 0-3.003-1.344-3.003-3.003s1.344-3.003 3.003-3.003v0zM20.336 10.667c-0.554 0-1.003 0.449-1.003 1.003s0.449 1.003 1.003 1.003v0c0.554 0 1.003-0.449 1.003-1.003s-0.449-1.003-1.003-1.003v0z"></path>
</svg>
