<!-- Generated by IcoMoon.io -->
<svg version="1.1" xmlns="http://www.w3.org/2000/svg" width="32" height="32" viewBox="0 0 32 32">
<title>image-search</title>
<path d="M28 8.333c0-2.393-1.94-4.333-4.333-4.333v0h-15.333c-2.393 0-4.333 1.94-4.333 4.333v0 6.009c0.572-0.476 1.234-0.872 1.951-1.159l0.049-0.017v-4.833c0-1.288 1.045-2.333 2.333-2.333h15.333c1.288 0 2.333 1.045 2.333 2.333v15.333c0 0.279-0.049 0.545-0.139 0.793l-7.763-7.603-0.171-0.155c-0.518-0.436-1.192-0.701-1.928-0.701-0.382 0-0.747 0.071-1.083 0.201l0.021-0.007c0.345 0.567 0.615 1.185 0.797 1.84 0.079-0.023 0.171-0.036 0.265-0.036 0.273 0 0.52 0.109 0.701 0.287l7.74 7.58c-0.23 0.084-0.496 0.132-0.773 0.132-0.001 0-0.001 0-0.002 0h-6.367l0.683 0.684c0.371 0.369 0.591 0.835 0.66 1.316h5.024c0 0 0.001 0 0.001 0 2.393 0 4.333-1.939 4.333-4.332v-15.333zM23.339 11.669c0-1.658-1.344-3.003-3.003-3.003s-3.003 1.344-3.003 3.003v0c0 1.658 1.344 3.003 3.003 3.003s3.003-1.344 3.003-3.003v0zM19.333 11.669c0-0.554 0.449-1.003 1.003-1.003s1.003 0.449 1.003 1.003v0c0 0.554-0.449 1.003-1.003 1.003s-1.003-0.449-1.003-1.003v0zM13.267 23.853c0.87-1.034 1.399-2.381 1.399-3.851 0-3.314-2.686-6-6-6s-6 2.686-6 6c0 3.314 2.686 6 6 6 1.135 0 2.196-0.315 3.101-0.862l-0.027 0.015 3.887 3.887c0.183 0.196 0.443 0.318 0.732 0.318 0.552 0 1-0.448 1-1 0-0.289-0.122-0.549-0.318-0.731l-0.001-0.001-3.773-3.773zM8.667 24c-2.209 0-4-1.791-4-4s1.791-4 4-4v0c2.209 0 4 1.791 4 4s-1.791 4-4 4v0z"></path>
</svg>
