<!-- Generated by IcoMoon.io -->
<svg version="1.1" xmlns="http://www.w3.org/2000/svg" width="32" height="32" viewBox="0 0 32 32">
<title>image-search</title>
<path d="M28 8.333c0-2.393-1.94-4.333-4.333-4.333h-15.333c-2.393 0-4.333 1.94-4.333 4.333v6.010c0.595-0.491 1.269-0.891 2-1.176v-4.833c0-1.289 1.045-2.333 2.333-2.333h15.333c1.289 0 2.333 1.045 2.333 2.333v15.333c0 0.278-0.049 0.545-0.138 0.793l-7.763-7.602-0.171-0.155c-0.849-0.713-1.999-0.882-2.991-0.507 0.345 0.568 0.616 1.186 0.797 1.842 0.332-0.091 0.702-0.008 0.965 0.25l7.741 7.582c-0.242 0.085-0.503 0.131-0.774 0.131h-6.367l0.683 0.683c0.371 0.371 0.591 0.835 0.66 1.317h5.024c2.393 0 4.333-1.94 4.333-4.333v-15.333z"></path>
<path d="M23.339 11.669c0-1.658-1.344-3.003-3.003-3.003s-3.003 1.344-3.003 3.003c0 1.658 1.344 3.003 3.003 3.003s3.003-1.344 3.003-3.003zM19.333 11.669c0-0.554 0.449-1.003 1.003-1.003s1.003 0.449 1.003 1.003c0 0.554-0.449 1.003-1.003 1.003s-1.003-0.449-1.003-1.003z"></path>
<path d="M13.267 23.853c0.874-1.042 1.4-2.386 1.4-3.853 0-3.314-2.686-6-6-6s-6 2.686-6 6c0 3.314 2.686 6 6 6 1.123 0 2.174-0.309 3.073-0.846l3.886 3.886c0.391 0.391 1.024 0.391 1.414 0s0.391-1.024 0-1.414l-3.774-3.774zM8.667 24c-2.209 0-4-1.791-4-4s1.791-4 4-4c2.209 0 4 1.791 4 4s-1.791 4-4 4z"></path>
</svg>
