<!-- Generated by IcoMoon.io -->
<svg version="1.1" xmlns="http://www.w3.org/2000/svg" width="32" height="32" viewBox="0 0 32 32">
<title>image-off-regular</title>
<path d="M4.373 2.96c-0.183-0.196-0.443-0.318-0.732-0.318-0.552 0-1 0.448-1 1 0 0.289 0.122 0.549 0.318 0.731l0.001 0.001 1.684 1.685c-0.404 0.645-0.644 1.428-0.644 2.267 0 0.003 0 0.005 0 0.008v-0 15.333c0 2.393 1.94 4.333 4.333 4.333v0h15.333c0.835 0 1.613-0.236 2.275-0.644l1.684 1.685c0.181 0.181 0.431 0.293 0.707 0.293 0.552 0 1-0.448 1-1 0-0.276-0.112-0.526-0.293-0.707l-24.667-24.667zM16.091 17.505l8.275 8.275 0.075 0.088c-0.23 0.084-0.496 0.132-0.773 0.132-0 0-0 0-0.001 0h-15.333c-0.272 0-0.533-0.047-0.776-0.132l8.533-8.363zM14.824 16.239c-0.358 0.155-0.664 0.364-0.923 0.619l0-0-7.764 7.6c-0.087-0.235-0.137-0.505-0.137-0.788 0-0.001 0-0.002 0-0.003v0-15.333c0-0.275 0.048-0.539 0.135-0.784l8.691 8.691zM26 21.759v-13.425c0-1.289-1.045-2.333-2.333-2.333v0h-13.424l-2-2h15.424c2.393 0 4.333 1.94 4.333 4.333v0 15.424l-2-2zM20.336 8.667c1.658 0 3.003 1.344 3.003 3.003s-1.344 3.003-3.003 3.003v0c-1.658 0-3.003-1.344-3.003-3.003s1.344-3.003 3.003-3.003v0zM20.336 10.667c-0.554 0-1.003 0.449-1.003 1.003s0.449 1.003 1.003 1.003v0c0.554 0 1.003-0.449 1.003-1.003s-0.449-1.003-1.003-1.003v0z"></path>
</svg>
