<!-- Generated by IcoMoon.io -->
<svg version="1.1" xmlns="http://www.w3.org/2000/svg" width="32" height="32" viewBox="0 0 32 32">
<title>image-shadow-regular</title>
<path d="M18.661 8.997c0 0.919-0.745 1.664-1.664 1.664s-1.664-0.745-1.664-1.664v0c0-0.919 0.745-1.664 1.664-1.664s1.664 0.745 1.664 1.664v0zM2.667 7c0-2.393 1.94-4.333 4.333-4.333v0h12c2.393 0 4.333 1.94 4.333 4.333v0 12c0 2.393-1.94 4.333-4.333 4.333v0h-12c-2.393 0-4.333-1.94-4.333-4.333v0-12zM7 4.667c-1.289 0-2.333 1.045-2.333 2.333v0 12c0 0.308 0.060 0.601 0.168 0.871l6.116-5.72c0.535-0.501 1.256-0.809 2.049-0.809s1.515 0.308 2.051 0.811l-0.002-0.002 6.116 5.72c0.108-0.268 0.168-0.563 0.168-0.871v-12c0-1.289-1.045-2.333-2.333-2.333v0h-12zM19.689 21.229l-6.007-5.619c-0.178-0.167-0.419-0.27-0.683-0.27s-0.505 0.103-0.684 0.27l0.001-0.001-6.005 5.619c0.217 0.067 0.449 0.104 0.689 0.104h12c0.24 0 0.472-0.036 0.689-0.104zM8.665 25v-0.333h10.668c2.946 0 5.333-2.388 5.333-5.333v0-10.667h0.332c2.393 0 4.333 1.94 4.333 4.333v0 9.333c0 3.867-3.133 7-7 7h-9.333c-2.393 0-4.333-1.94-4.333-4.333v0z"></path>
</svg>
