<!-- Generated by IcoMoon.io -->
<svg version="1.1" xmlns="http://www.w3.org/2000/svg" width="32" height="32" viewBox="0 0 32 32">
<title>image-multiple</title>
<path d="M18.331 11.995c0.919 0 1.664-0.745 1.664-1.664s-0.745-1.664-1.664-1.664c-0.919 0-1.664 0.745-1.664 1.664s0.745 1.664 1.664 1.664z"></path>
<path d="M8.333 4c-2.393 0-4.333 1.94-4.333 4.333v12c0 2.393 1.94 4.333 4.333 4.333h12c2.393 0 4.333-1.94 4.333-4.333v-12c0-2.393-1.94-4.333-4.333-4.333h-12zM6 8.333c0-1.289 1.045-2.333 2.333-2.333h12c1.289 0 2.333 1.045 2.333 2.333v12c0 0.308-0.060 0.602-0.168 0.872l-6.116-5.721c-1.153-1.079-2.946-1.079-4.099 0l-6.115 5.721c-0.108-0.269-0.168-0.563-0.168-0.871v-12zM15.016 16.944l6.007 5.619c-0.218 0.067-0.449 0.103-0.689 0.103h-12c-0.24 0-0.472-0.036-0.69-0.104l6.006-5.619c0.385-0.36 0.982-0.36 1.366 0z"></path>
<path d="M11.667 28c-1.534 0-2.882-0.797-3.652-2l12.986 0c2.761 0 5-2.239 5-5v-12.986c1.203 0.77 2 2.118 2 3.652v9.333c0 3.866-3.134 7-7 7h-9.333z"></path>
</svg>
