<!-- Generated by IcoMoon.io -->
<svg version="1.1" xmlns="http://www.w3.org/2000/svg" width="32" height="32" viewBox="0 0 32 32">
<title>image</title>
<path d="M4 8.167c0-2.301 1.865-4.167 4.167-4.167v0h15.667c2.301 0 4.167 1.865 4.167 4.167v0 15.667c0 2.301-1.865 4.167-4.167 4.167v0h-15.667c-2.301 0-4.167-1.865-4.167-4.167v0-15.667zM8.167 5.667c-1.381 0-2.5 1.119-2.5 2.5v0 15.667c0 0.397 0.093 0.773 0.257 1.107l8.32-8.211c0.451-0.446 1.072-0.721 1.756-0.721s1.305 0.275 1.756 0.72l-0-0 8.323 8.207c0.161-0.32 0.255-0.698 0.255-1.097 0-0.002 0-0.003 0-0.005v0-15.667c0-1.381-1.119-2.5-2.5-2.5v0h-15.667zM24.887 26.101l-8.301-8.187c-0.15-0.148-0.357-0.24-0.585-0.24s-0.435 0.092-0.586 0.241l-8.299 8.189c0.307 0.145 0.666 0.23 1.045 0.23 0.001 0 0.003 0 0.004 0h15.666c0.377 0 0.733-0.083 1.054-0.233zM20.333 13c-0.736 0-1.333-0.597-1.333-1.333s0.597-1.333 1.333-1.333v0c0.736 0 1.333 0.597 1.333 1.333s-0.597 1.333-1.333 1.333v0zM20.333 14.667c1.657 0 3-1.343 3-3s-1.343-3-3-3v0c-1.657 0-3 1.343-3 3s1.343 3 3 3v0z"></path>
</svg>
