<!-- Generated by IcoMoon.io -->
<svg version="1.1" xmlns="http://www.w3.org/2000/svg" width="32" height="32" viewBox="0 0 32 32">
<title>image-alt-text</title>
<path d="M1.333 4c0-1.473 1.194-2.667 2.667-2.667v0h9.333c1.473 0 2.667 1.194 2.667 2.667v0 8c0 1.473-1.194 2.667-2.667 2.667v0h-9.333c-1.473 0-2.667-1.194-2.667-2.667v0-8zM4.667 5.333c-0.368 0-0.667 0.298-0.667 0.667s0.298 0.667 0.667 0.667v0h8c0.368 0 0.667-0.298 0.667-0.667s-0.298-0.667-0.667-0.667v0h-8zM4.667 9.333c-0.368 0-0.667 0.298-0.667 0.667s0.298 0.667 0.667 0.667v0h8c0.368 0 0.667-0.298 0.667-0.667s-0.298-0.667-0.667-0.667v0h-8zM5.333 16h2v9c0 0.277 0.048 0.544 0.137 0.792l7.764-7.601c0.541-0.529 1.281-0.856 2.099-0.856 0.736 0 1.41 0.265 1.933 0.705l-0.005-0.004 0.171 0.155 7.763 7.603c0.089-0.248 0.139-0.515 0.139-0.793v-15.333c0-1.289-1.045-2.333-2.333-2.333v0h-7.667v-2h7.667c2.393 0 4.333 1.94 4.333 4.333v0 15.333c0 2.393-1.94 4.333-4.333 4.333v0h-15.333c-2.393 0-4.333-1.94-4.333-4.333v0-9zM25.773 27.201l-7.74-7.581c-0.18-0.177-0.427-0.286-0.7-0.286-0.221 0-0.425 0.072-0.591 0.193l0.003-0.002-0.112 0.093-7.743 7.583c0.243 0.085 0.504 0.132 0.776 0.132h15.333c0.271 0 0.532-0.047 0.773-0.132zM21.671 10c1.658 0 3.003 1.344 3.003 3.003s-1.344 3.003-3.003 3.003v0c-1.658 0-3.003-1.344-3.003-3.003s1.344-3.003 3.003-3.003v0zM21.671 12c-0.554 0-1.003 0.449-1.003 1.003s0.449 1.003 1.003 1.003v0c0.554 0 1.003-0.449 1.003-1.003s-0.449-1.003-1.003-1.003v0z"></path>
</svg>
