<!-- Generated by IcoMoon.io -->
<svg version="1.1" xmlns="http://www.w3.org/2000/svg" width="32" height="32" viewBox="0 0 32 32">
<title>image-prohibited</title>
<path d="M8.667 16c4.050 0 7.333-3.283 7.333-7.333s-3.283-7.333-7.333-7.333c-4.050 0-7.333 3.283-7.333 7.333s3.283 7.333 7.333 7.333zM8.667 14c-1.111 0-2.143-0.34-2.998-0.921l7.409-7.409c0.582 0.854 0.921 1.886 0.921 2.998 0 2.946-2.388 5.333-5.333 5.333zM4.255 11.664c-0.582-0.854-0.922-1.886-0.922-2.998 0-2.946 2.388-5.333 5.333-5.333 1.111 0 2.143 0.34 2.998 0.922l-7.409 7.409zM6 16.915c-0.711-0.23-1.382-0.549-2-0.944v7.696c0 2.393 1.94 4.333 4.333 4.333h15.333c2.393 0 4.333-1.94 4.333-4.333v-15.333c0-2.393-1.94-4.333-4.333-4.333h-7.696c0.395 0.618 0.715 1.289 0.944 2h6.751c1.289 0 2.333 1.045 2.333 2.333v15.333c0 0.278-0.049 0.545-0.138 0.793l-7.763-7.602-0.171-0.155c-1.171-0.984-2.916-0.932-4.027 0.155l-7.763 7.601c-0.089-0.247-0.138-0.514-0.138-0.792v-6.751zM16.7 18.286l7.741 7.582c-0.242 0.085-0.503 0.131-0.774 0.131h-15.333c-0.272 0-0.533-0.047-0.775-0.132l7.742-7.582 0.111-0.094c0.388-0.283 0.934-0.252 1.288 0.094zM23.339 11.669c0-1.658-1.344-3.003-3.003-3.003s-3.003 1.344-3.003 3.003c0 1.658 1.344 3.003 3.003 3.003s3.003-1.344 3.003-3.003zM19.333 11.669c0-0.554 0.449-1.003 1.003-1.003s1.003 0.449 1.003 1.003c0 0.554-0.449 1.003-1.003 1.003s-1.003-0.449-1.003-1.003z"></path>
</svg>
