<!-- Generated by IcoMoon.io -->
<svg version="1.1" xmlns="http://www.w3.org/2000/svg" width="32" height="32" viewBox="0 0 32 32">
<title>image-arrow-counterclockwise</title>
<path d="M16 8.667c0-4.050-3.283-7.333-7.333-7.333s-7.333 3.283-7.333 7.333c0 4.050 3.283 7.333 7.333 7.333s7.333-3.283 7.333-7.333zM5.333 4.667v0.735c0.847-0.865 2.028-1.402 3.334-1.402 2.577 0 4.667 2.089 4.667 4.667s-2.089 4.667-4.667 4.667c-1.44 0-2.727-0.652-3.583-1.677-0.351-0.42-0.003-0.99 0.544-0.99 0.234 0 0.451 0.114 0.612 0.285 0.608 0.646 1.471 1.049 2.427 1.049 1.841 0 3.333-1.492 3.333-3.333s-1.492-3.333-3.333-3.333c-1.091 0-2.059 0.524-2.667 1.333h1.333c0.368 0 0.667 0.298 0.667 0.667s-0.298 0.667-0.667 0.667h-2.667c-0.368 0-0.667-0.298-0.667-0.667v-2.667c0-0.368 0.298-0.667 0.667-0.667s0.667 0.298 0.667 0.667z"></path>
<path d="M25 7.333h-7.769c-0.108-0.698-0.299-1.368-0.562-2h8.331c2.393 0 4.333 1.94 4.333 4.333v15.333c0 2.393-1.94 4.333-4.333 4.333h-15.333c-2.393 0-4.333-1.94-4.333-4.333v-8.331c0.632 0.264 1.302 0.455 2 0.562v7.769c0 0.278 0.049 0.544 0.138 0.792l7.763-7.601c1.111-1.088 2.856-1.139 4.027-0.155l0.171 0.155 7.763 7.602c0.089-0.248 0.138-0.515 0.138-0.793v-15.333c0-1.289-1.045-2.333-2.333-2.333zM25.774 27.202l-7.741-7.582c-0.353-0.346-0.899-0.378-1.288-0.094l-0.111 0.094-7.742 7.582c0.243 0.085 0.504 0.132 0.775 0.132h15.333c0.271 0 0.532-0.046 0.774-0.131z"></path>
<path d="M21.669 10c1.658 0 3.003 1.344 3.003 3.003s-1.344 3.003-3.003 3.003-3.003-1.344-3.003-3.003c0-1.658 1.344-3.003 3.003-3.003zM21.669 12c-0.554 0-1.003 0.449-1.003 1.003s0.449 1.003 1.003 1.003c0.554 0 1.003-0.449 1.003-1.003s-0.449-1.003-1.003-1.003z"></path>
</svg>
