<!-- Generated by IcoMoon.io -->
<svg version="1.1" xmlns="http://www.w3.org/2000/svg" width="32" height="32" viewBox="0 0 32 32">
<title>image-reflection</title>
<path d="M21.667 10.333c0 0.92-0.746 1.667-1.667 1.667s-1.667-0.746-1.667-1.667c0-0.92 0.746-1.667 1.667-1.667s1.667 0.746 1.667 1.667zM22.557 22.656c-0.073 0.007-0.148 0.011-0.223 0.011h-1.333c-0.552 0-1 0.448-1 1s0.448 1 1 1h1.333c1.289 0 2.333 1.045 2.333 2.333v1c0 0.552 0.448 1 1 1s1-0.448 1-1v-1c0-1.34-0.609-2.538-1.564-3.333 0.956-0.795 1.564-1.993 1.564-3.333v-12c0-2.393-1.94-4.333-4.333-4.333h-12.667c-2.393 0-4.333 1.94-4.333 4.333v12c0 1.34 0.609 2.538 1.564 3.333-0.956 0.795-1.564 1.993-1.564 3.333v1c0 0.552 0.448 1 1 1s1-0.448 1-1v-1c0-1.289 1.045-2.333 2.333-2.333h1.333c0.552 0 1-0.448 1-1s-0.448-1-1-1h-1.333c-0.076 0-0.151-0.004-0.224-0.011l5.859-5.712c0.388-0.379 1.008-0.379 1.396 0l5.859 5.712zM9.667 6h12.667c1.289 0 2.333 1.045 2.333 2.333v12c0 0.455-0.131 0.881-0.356 1.24l-6.217-6.061c-1.165-1.136-3.023-1.136-4.189-0l-6.216 6.060c-0.225-0.359-0.356-0.784-0.356-1.239v-12c0-1.289 1.045-2.333 2.333-2.333zM15 22.667c-0.552 0-1 0.448-1 1s0.448 1 1 1h2c0.552 0 1-0.448 1-1s-0.448-1-1-1h-2z"></path>
</svg>
