<!-- Generated by IcoMoon.io -->
<svg version="1.1" xmlns="http://www.w3.org/2000/svg" width="32" height="32" viewBox="0 0 32 32">
<title>image-add</title>
<path d="M25 5.333c2.393 0 4.333 1.94 4.333 4.333v15.333c0 2.393-1.94 4.333-4.333 4.333h-15.333c-2.393 0-4.333-1.94-4.333-4.333v-8.331c0.632 0.264 1.303 0.455 2 0.562l-0 7.769c0 0.278 0.049 0.544 0.138 0.792l7.763-7.601c1.111-1.088 2.856-1.139 4.027-0.155l0.171 0.155 7.763 7.602c0.089-0.248 0.138-0.515 0.138-0.793v-15.333c0-1.289-1.045-2.333-2.333-2.333l-7.769 0c-0.108-0.698-0.299-1.368-0.562-2h8.331zM16.745 19.525l-0.111 0.094-7.742 7.582c0.243 0.085 0.504 0.132 0.775 0.132h15.333c0.271 0 0.532-0.046 0.774-0.131l-7.741-7.582c-0.353-0.346-0.899-0.378-1.288-0.094zM21.669 10c1.658 0 3.003 1.344 3.003 3.003s-1.344 3.003-3.003 3.003-3.003-1.344-3.003-3.003c0-1.658 1.344-3.003 3.003-3.003zM8.667 1.333c4.050 0 7.333 3.283 7.333 7.333s-3.283 7.333-7.333 7.333c-4.050 0-7.333-3.283-7.333-7.333s3.283-7.333 7.333-7.333zM21.669 12c-0.554 0-1.003 0.449-1.003 1.003s0.449 1.003 1.003 1.003c0.554 0 1.003-0.449 1.003-1.003s-0.449-1.003-1.003-1.003zM8.667 3.999l-0.12 0.011c-0.272 0.049-0.487 0.264-0.536 0.536l-0.011 0.12-0 3.333-3.336 0.001-0.12 0.011c-0.272 0.049-0.487 0.264-0.536 0.536l-0.011 0.12 0.011 0.12c0.049 0.272 0.264 0.487 0.536 0.536l0.12 0.011 3.337-0.001 0.001 3.339 0.011 0.12c0.049 0.272 0.264 0.487 0.536 0.536l0.12 0.011 0.12-0.011c0.272-0.049 0.487-0.264 0.536-0.536l0.011-0.12-0.001-3.339 3.339 0.001 0.12-0.011c0.272-0.049 0.487-0.264 0.536-0.536l0.011-0.12-0.011-0.12c-0.049-0.272-0.264-0.487-0.536-0.536l-0.12-0.011-3.34-0.001 0-3.333-0.011-0.12c-0.049-0.272-0.264-0.487-0.536-0.536l-0.12-0.011z"></path>
</svg>
