<!-- Generated by IcoMoon.io -->
<svg version="1.1" xmlns="http://www.w3.org/2000/svg" width="32" height="32" viewBox="0 0 32 32">
<title>image-alt-text</title>
<path d="M1.333 4c0-1.473 1.194-2.667 2.667-2.667h9.333c1.473 0 2.667 1.194 2.667 2.667v8c0 1.473-1.194 2.667-2.667 2.667h-9.333c-1.473 0-2.667-1.194-2.667-2.667v-8zM4.667 5.333c-0.368 0-0.667 0.298-0.667 0.667s0.298 0.667 0.667 0.667h8c0.368 0 0.667-0.298 0.667-0.667s-0.298-0.667-0.667-0.667h-8zM4.667 9.333c-0.368 0-0.667 0.298-0.667 0.667s0.298 0.667 0.667 0.667h8c0.368 0 0.667-0.298 0.667-0.667s-0.298-0.667-0.667-0.667h-8z"></path>
<path d="M5.333 16h2v9c0 0.278 0.049 0.544 0.138 0.792l7.763-7.601c1.111-1.088 2.856-1.139 4.027-0.155l0.171 0.155 7.763 7.602c0.089-0.248 0.138-0.515 0.138-0.793v-15.333c0-1.289-1.045-2.333-2.333-2.333h-7.667v-2h7.667c2.393 0 4.333 1.94 4.333 4.333v15.333c0 2.393-1.94 4.333-4.333 4.333h-15.333c-2.393 0-4.333-1.94-4.333-4.333v-9zM25.774 27.202l-7.741-7.582c-0.353-0.346-0.899-0.378-1.288-0.094l-0.111 0.094-7.742 7.582c0.243 0.085 0.504 0.132 0.775 0.132h15.333c0.271 0 0.532-0.046 0.774-0.131z"></path>
<path d="M21.669 10c1.658 0 3.003 1.344 3.003 3.003s-1.344 3.003-3.003 3.003-3.003-1.344-3.003-3.003c0-1.658 1.344-3.003 3.003-3.003zM21.669 12c-0.554 0-1.003 0.449-1.003 1.003s0.449 1.003 1.003 1.003c0.554 0 1.003-0.449 1.003-1.003s-0.449-1.003-1.003-1.003z"></path>
</svg>
