<!-- Generated by IcoMoon.io -->
<svg version="1.1" xmlns="http://www.w3.org/2000/svg" width="32" height="32" viewBox="0 0 32 32">
<title>image-copy</title>
<path d="M5.151 6.866c-1.042 0.668-1.722 1.82-1.722 3.131 0 0.001 0 0.002 0 0.003v-0 12c0 3.314 2.686 6 6 6h12c0.001 0 0.001 0 0.002 0 1.312 0 2.465-0.681 3.125-1.709l0.009-0.015-0.139 0.007-0.139 0.002h-14.857c-2.367 0-4.286-1.919-4.286-4.286v0-14.857c0-0.093 0.002-0.185 0.008-0.277zM10 3.429c-2.051 0-3.714 1.663-3.714 3.714v0 14.286c0 2.051 1.663 3.714 3.714 3.714v0h14.286c2.051 0 3.714-1.663 3.714-3.714v0-14.286c0-2.051-1.663-3.714-3.714-3.714v0h-14.286zM9.335 23.315l7.208-7.061c0.154-0.151 0.366-0.244 0.599-0.244 0.19 0 0.365 0.062 0.507 0.166l-0.002-0.002 0.096 0.080 7.207 7.061c-0.197 0.072-0.425 0.113-0.663 0.113-0 0-0.001 0-0.001 0h-14.286c-0.233 0-0.457-0.040-0.665-0.113zM10 5.143h14.286c1.104 0 2 0.896 2 2v14.286c0 0.238-0.041 0.466-0.118 0.678l-7.225-7.075c-0.463-0.454-1.099-0.735-1.799-0.735-0.631 0-1.208 0.227-1.656 0.604l0.004-0.003-0.149 0.134-7.225 7.077c-0.075-0.201-0.118-0.433-0.118-0.675 0-0.001 0-0.002 0-0.004v0-14.286c0-1.104 0.896-2 2-2zM13.143 8.858c-0.012-0-0.026-0.001-0.040-0.001-0.789 0-1.429 0.64-1.429 1.429s0.64 1.429 1.429 1.429c0.014 0 0.028-0 0.042-0.001l-0.002 0c0.771-0.023 1.388-0.653 1.388-1.428s-0.617-1.405-1.386-1.428l-0.002-0z"></path>
</svg>
