<!-- Generated by IcoMoon.io -->
<svg version="1.1" xmlns="http://www.w3.org/2000/svg" width="32" height="32" viewBox="0 0 32 32">
<title>image-multiple-regular</title>
<path d="M7.167 3.333c-2.117 0-3.833 1.716-3.833 3.833v0 14.333c0 2.117 1.716 3.833 3.833 3.833v0h14.333c2.117 0 3.833-1.716 3.833-3.833v0-14.333c0-2.117-1.716-3.833-3.833-3.833v0h-14.333zM5 7.167c0-1.197 0.97-2.167 2.167-2.167v0h14.333c1.197 0 2.167 0.97 2.167 2.167v0 14.333c0 0.304-0.063 0.593-0.176 0.857l-8.014-7.155c-0.381-0.342-0.888-0.551-1.443-0.551-0.583 0-1.113 0.23-1.502 0.605l0.001-0.001-7.365 7.081c-0.105-0.246-0.167-0.532-0.167-0.832 0-0.002 0-0.003 0-0.005v0-14.333zM6.353 23.509l7.333-7.051c0.090-0.087 0.212-0.14 0.347-0.14 0.128 0 0.245 0.048 0.333 0.127l-0-0 7.923 7.075c-0.233 0.094-0.503 0.148-0.786 0.148-0.001 0-0.002 0-0.003 0h-14.333c-0.288 0-0.562-0.056-0.813-0.158zM10.167 28.333c-0.001 0-0.002 0-0.003 0-1.308 0-2.463-0.656-3.154-1.657l-0.008-0.013c0.055 0.002 0.109 0.003 0.165 0.003h14.333c2.853 0 5.167-2.313 5.167-5.167v-14.333c0-0.055-0.001-0.11-0.003-0.165 1.014 0.699 1.669 1.854 1.669 3.162 0 0.001 0 0.002 0 0.003v-0 11.333c0 3.773-3.060 6.833-6.833 6.833h-11.333zM20 10.667c0 0.736-0.597 1.333-1.333 1.333s-1.333-0.597-1.333-1.333v0c0-0.736 0.597-1.333 1.333-1.333s1.333 0.597 1.333 1.333v0z"></path>
</svg>
