<!-- Generated by IcoMoon.io -->
<svg version="1.1" xmlns="http://www.w3.org/2000/svg" width="32" height="32" viewBox="0 0 32 32">
<title>image-arrow-forward</title>
<path d="M1.333 8.667c0 4.050 3.283 7.333 7.333 7.333s7.333-3.283 7.333-7.333c0-4.050-3.283-7.333-7.333-7.333s-7.333 3.283-7.333 7.333zM10.195 5.805c-0.26-0.26-0.26-0.682 0-0.943s0.682-0.26 0.943 0l2 2c0.26 0.26 0.26 0.682 0 0.943l-2 2c-0.26 0.26-0.682 0.26-0.943 0s-0.26-0.682 0-0.943l0.862-0.862h-2.724c-1.657 0-3 1.343-3 3v0.333c0 0.368-0.298 0.667-0.667 0.667s-0.667-0.298-0.667-0.667v-0.333c0-2.393 1.94-4.333 4.333-4.333h2.724l-0.862-0.862zM4 15.971c0.618 0.395 1.289 0.715 2 0.944v6.751c0 0.278 0.049 0.544 0.138 0.792l7.763-7.601c1.111-1.088 2.856-1.139 4.027-0.155l0.171 0.155 7.763 7.602c0.089-0.248 0.138-0.515 0.138-0.793v-15.333c0-1.289-1.045-2.333-2.333-2.333h-6.751c-0.23-0.711-0.549-1.382-0.944-2h7.696c2.393 0 4.333 1.94 4.333 4.333v15.333c0 2.393-1.94 4.333-4.333 4.333h-15.333c-2.393 0-4.333-1.94-4.333-4.333v-7.696zM24.441 25.869l-7.741-7.582c-0.353-0.346-0.899-0.378-1.288-0.094l-0.111 0.094-7.742 7.582c0.243 0.085 0.504 0.132 0.775 0.132h15.333c0.271 0 0.532-0.046 0.774-0.131zM20.336 8.667c1.658 0 3.003 1.344 3.003 3.003s-1.344 3.003-3.003 3.003c-1.658 0-3.003-1.344-3.003-3.003s1.344-3.003 3.003-3.003zM20.336 10.667c-0.554 0-1.003 0.449-1.003 1.003s0.449 1.003 1.003 1.003c0.554 0 1.003-0.449 1.003-1.003s-0.449-1.003-1.003-1.003z"></path>
</svg>
