<!-- Generated by IcoMoon.io -->
<svg version="1.1" xmlns="http://www.w3.org/2000/svg" width="32" height="32" viewBox="0 0 32 32">
<title>immersive-reader-regular</title>
<path d="M13.143 4.571c1.149 0 2.176 0.521 2.857 1.341 0.685-0.822 1.708-1.341 2.853-1.341 0.001 0 0.003 0 0.004 0h8.857c1.104 0 2 0.896 2 2v11.166c-0.045-0.041-0.093-0.084-0.142-0.125l-0.006-0.005c-0.344-0.289-0.791-0.464-1.279-0.464-0.101 0-0.2 0.008-0.297 0.022l0.011-0.001v-10.592c0-0.158-0.128-0.286-0.286-0.286v0h-8.857c-1.105 0-2 0.895-2 2v0 11.143c-0.728 0-1.365 0.389-1.714 0.969v-12.112c0-1.105-0.895-2-2-2v0h-8.857c-0.158 0-0.286 0.128-0.286 0.286v0 18.857c0 0.158 0.128 0.286 0.286 0.286h8.857c0.728 0 1.365-0.389 1.714-0.969v0.683c0 0.491 0.177 0.942 0.471 1.289-0.603 0.444-1.36 0.711-2.18 0.711-0.002 0-0.004 0-0.006 0h-8.857c-1.105 0-2-0.895-2-2v0-18.857c0-1.104 0.896-2 2-2h8.857zM24 27.4l0.029 0.029h-0.029v-0.029zM22.302 18.341c0.327 0.126 0.555 0.437 0.555 0.802v0 8.571c-0 0.473-0.384 0.857-0.857 0.857-0.256 0-0.487-0.113-0.644-0.291l-0.001-0.001-1.744-1.993h-2.754c-0.473 0-0.857-0.384-0.857-0.857v0-4c0-0.473 0.384-0.857 0.857-0.857v0h2.754l1.744-1.993c0.158-0.18 0.388-0.292 0.645-0.292 0.108 0 0.212 0.020 0.307 0.057l-0.006-0.002zM29.879 19.774c-0.376-0.625-0.761-1.053-1.045-1.289-0.15-0.132-0.348-0.212-0.564-0.212-0.473 0-0.857 0.384-0.857 0.857 0 0.271 0.126 0.513 0.323 0.67l0.002 0.001c0.145 0.121 0.402 0.408 0.671 0.854 0.458 0.766 0.735 1.686 0.735 2.774s-0.277 2.009-0.735 2.774c-0.269 0.446-0.526 0.733-0.671 0.854-0.198 0.158-0.324 0.4-0.324 0.671 0 0.473 0.384 0.857 0.857 0.857 0.217 0 0.414-0.080 0.565-0.213l-0.001 0.001c0.283-0.237 0.669-0.663 1.043-1.289 0.613-1.021 0.979-2.242 0.979-3.655s-0.366-2.634-0.979-3.655zM26.713 21.025c-0.214-0.331-0.469-0.613-0.763-0.848l-0.007-0.005c-0.141-0.107-0.32-0.171-0.514-0.171-0.473 0-0.857 0.384-0.857 0.857 0 0.279 0.134 0.528 0.341 0.684l0.002 0.002c0.071 0.053 0.217 0.2 0.373 0.433 0.267 0.4 0.427 0.88 0.427 1.453 0 0.571-0.16 1.051-0.427 1.453-0.105 0.166-0.229 0.309-0.37 0.431l-0.002 0.002-0.096 0.083c-0.154 0.155-0.248 0.368-0.248 0.604 0 0.473 0.384 0.857 0.857 0.857 0.195 0 0.374-0.065 0.518-0.174l-0.002 0.002c0.216-0.161 0.497-0.443 0.77-0.853 0.448-0.665 0.716-1.484 0.716-2.365 0-0.014-0-0.027-0-0.041v0.002c0-0.928-0.269-1.734-0.715-2.405z"></path>
</svg>
