<!-- Generated by IcoMoon.io -->
<svg version="1.1" xmlns="http://www.w3.org/2000/svg" width="32" height="32" viewBox="0 0 32 32">
<title>immersive-reader</title>
<path d="M14.845 26h-1.754c-0.030 0.001-0.061 0-0.092 0h-8c-1.289 0-2.333-1.045-2.333-2.333v-17.333c0-1.289 1.045-2.333 2.333-2.333h8c1.051 0 1.998 0.442 2.667 1.15 0.669-0.708 1.616-1.15 2.667-1.15h8c1.289 0 2.333 1.045 2.333 2.333v9.891c-0.637-0.303-1.374-0.296-2 0v-9.891c0-0.184-0.149-0.333-0.333-0.333h-8c-0.921 0-1.667 0.746-1.667 1.667v12.333h-0.667c-0.736 0-1.333 0.597-1.333 1.333v-13.666c0-0.92-0.746-1.667-1.667-1.667h-8c-0.184 0-0.333 0.149-0.333 0.333v17.333c0 0.184 0.149 0.333 0.333 0.333h8c0.031 0 0.061-0.001 0.092-0.003v0.003h1.575v1.333c0 0.243 0.065 0.471 0.178 0.667z"></path>
<path d="M28.307 17.565c0.331 0.276 0.78 0.775 1.217 1.504 0.715 1.191 1.142 2.617 1.142 4.265s-0.428 3.073-1.142 4.265c-0.438 0.729-0.887 1.228-1.217 1.504-0.424 0.354-1.055 0.296-1.408-0.128s-0.296-1.055 0.128-1.408c0.169-0.141 0.47-0.475 0.783-0.996 0.535-0.892 0.857-1.966 0.857-3.235s-0.322-2.343-0.857-3.235c-0.312-0.521-0.613-0.855-0.783-0.996-0.424-0.354-0.482-0.984-0.128-1.408s0.984-0.482 1.408-0.128z"></path>
<path d="M25.6 19.533c0.251 0.189 0.58 0.517 0.899 0.995 0.521 0.782 0.835 1.722 0.835 2.805s-0.313 2.023-0.835 2.805c-0.319 0.478-0.647 0.807-0.899 0.995-0.442 0.331-1.069 0.242-1.4-0.2-0.301-0.402-0.255-0.956 0.088-1.303l0.112-0.097c0.082-0.061 0.253-0.233 0.435-0.505 0.312-0.468 0.499-1.028 0.499-1.695s-0.187-1.227-0.499-1.695c-0.181-0.272-0.353-0.443-0.435-0.505-0.442-0.331-0.531-0.958-0.2-1.4s0.958-0.531 1.4-0.2z"></path>
<path d="M22.018 18.731c0.39 0.147 0.648 0.519 0.648 0.936v7.333c0 0.417-0.258 0.79-0.648 0.936s-0.83 0.036-1.104-0.278l-2.035-2.325h-1.88c-0.552 0-1-0.448-1-1v-2c0-0.552 0.448-1 1-1h1.88l2.035-2.325c0.274-0.314 0.714-0.424 1.104-0.278z"></path>
</svg>
