<!-- Generated by IcoMoon.io -->
<svg version="1.1" xmlns="http://www.w3.org/2000/svg" width="32" height="32" viewBox="0 0 32 32">
<title>incognito-regular</title>
<path d="M11.172 6c-0.653 0-1.247 0.383-1.517 0.977l-1.411 3.103c-0.161 0.349-0.508 0.587-0.911 0.587-0.552 0-1-0.448-1-1 0-0.15 0.033-0.292 0.092-0.42l-0.003 0.006 1.411-3.104c0.591-1.278 1.863-2.149 3.338-2.149 0.001 0 0.001 0 0.002 0h9.657c1.475 0 2.746 0.871 3.328 2.127l0.009 0.023 1.411 3.101c0.057 0.122 0.090 0.264 0.090 0.414 0 0.552-0.448 1-1 1-0.402 0-0.749-0.238-0.908-0.58l-0.003-0.006-1.411-3.101c-0.269-0.581-0.846-0.977-1.516-0.977h-9.659zM8.667 18c-2.209 0-4 1.791-4 4s1.791 4 4 4v0c2.209 0 4-1.791 4-4s-1.791-4-4-4v0zM2.667 22c0-0.003 0-0.007 0-0.010 0-3.314 2.686-6 6-6 3.083 0 5.622 2.325 5.961 5.316l0.003 0.027h2.74c0.348-3.013 2.885-5.331 5.963-5.331 3.314 0 6 2.686 6 6s-2.686 6-6 6c-2.842 0-5.222-1.976-5.843-4.629l-0.008-0.041h-2.964c-0.635 2.686-3.012 4.655-5.849 4.655-3.31 0-5.994-2.679-6.003-5.987v-0.001zM23.333 18c-2.209 0-4 1.791-4 4s1.791 4 4 4v0c2.209 0 4-1.791 4-4s-1.791-4-4-4v0zM3.912 14.631c6.84-1.729 17.337-1.729 24.176 0 0.078 0.022 0.167 0.034 0.259 0.034 0.552 0 1-0.448 1-1 0-0.47-0.324-0.865-0.762-0.971l-0.007-0.001c-7.16-1.812-17.996-1.812-25.157 0-0.444 0.108-0.769 0.503-0.769 0.973 0 0.552 0.448 1 1 1 0.092 0 0.181-0.012 0.266-0.036l-0.007 0.002z"></path>
</svg>
