<!-- Generated by IcoMoon.io -->
<svg version="1.1" xmlns="http://www.w3.org/2000/svg" width="32" height="32" viewBox="0 0 32 32">
<title>incognito</title>
<path d="M23.333 16c3.314 0 6 2.686 6 6s-2.686 6-6 6c-2.854 0-5.243-1.993-5.851-4.664h-2.965c-0.607 2.671-2.996 4.664-5.851 4.664-3.314 0-6-2.686-6-6s2.686-6 6-6c3.088 0 5.632 2.334 5.963 5.334h2.74c0.331-3 2.875-5.334 5.963-5.334zM8.667 18c-2.209 0-4 1.791-4 4s1.791 4 4 4c2.209 0 4-1.791 4-4s-1.791-4-4-4zM23.333 18c-2.209 0-4 1.791-4 4s1.791 4 4 4c2.209 0 4-1.791 4-4s-1.791-4-4-4zM16 12.333c4.519 0 8.707 0.453 12.562 1.36 0.538 0.127 0.871 0.665 0.744 1.203s-0.665 0.871-1.202 0.744c-3.7-0.871-7.735-1.307-12.104-1.307s-8.404 0.436-12.104 1.307c-0.538 0.126-1.076-0.207-1.202-0.744s0.207-1.076 0.744-1.203c3.856-0.907 8.043-1.36 12.562-1.36zM20.934 4.333c1.364 0 2.607 0.756 3.239 1.949l0.111 0.229 1.963 4.416c0.224 0.505-0.003 1.096-0.508 1.32-0.463 0.206-0.998 0.032-1.257-0.387l-0.063-0.12-1.963-4.416c-0.243-0.547-0.759-0.917-1.345-0.98l-0.178-0.009h-9.867c-0.599 0-1.146 0.321-1.442 0.831l-0.081 0.159-1.963 4.416c-0.224 0.505-0.815 0.732-1.32 0.508-0.463-0.206-0.692-0.719-0.554-1.192l0.047-0.128 1.963-4.416c0.554-1.246 1.75-2.075 3.096-2.169l0.254-0.009h9.867z"></path>
</svg>
