<!-- Generated by IcoMoon.io -->
<svg version="1.1" xmlns="http://www.w3.org/2000/svg" width="32" height="32" viewBox="0 0 32 32">
<title>info</title>
<path d="M16 2.665c7.365 0 13.335 5.97 13.335 13.335s-5.97 13.335-13.335 13.335c-7.365 0-13.335-5.97-13.335-13.335s5.97-13.335 13.335-13.335zM16 4.665c-6.26 0-11.335 5.075-11.335 11.335s5.075 11.335 11.335 11.335c6.26 0 11.335-5.075 11.335-11.335s-5.075-11.335-11.335-11.335zM15.995 13.999c0.506-0 0.925 0.376 0.991 0.864l0.009 0.136 0.005 7.335c0 0.552-0.447 1-0.999 1.001-0.506 0-0.925-0.376-0.991-0.864l-0.009-0.136-0.005-7.335c-0-0.552 0.447-1 0.999-1.001zM16.001 9.336c0.735 0 1.332 0.596 1.332 1.332s-0.596 1.332-1.332 1.332c-0.735 0-1.332-0.596-1.332-1.332s0.596-1.332 1.332-1.332z"></path>
</svg>
