<!-- Generated by IcoMoon.io -->
<svg version="1.1" xmlns="http://www.w3.org/2000/svg" width="32" height="32" viewBox="0 0 32 32">
<title>inking-tool</title>
<path d="M4.018 2.951c0-0.552-0.448-1-1-1s-1 0.448-1 1v0 4c0 1.657 1.343 3 3 3v0h0.461l6.554 12.952c0.234 0.455 0.624 0.802 1.097 0.976l0.014 0.004v0.006c-0.075 0.582-0.122 1.261-0.128 1.951l-0 0.008c0 0.86 0.193 1.822 0.624 2.606 0.429 0.78 1.196 1.535 2.344 1.549h0.032c1.148-0.014 1.915-0.768 2.344-1.549 0.431-0.784 0.624-1.746 0.624-2.606-0.006-0.7-0.052-1.382-0.137-2.053l0.009 0.086c0.484-0.178 0.871-0.524 1.099-0.966l0.005-0.011 6.56-12.954h0.498c1.657 0 3-1.343 3-3v0-4c0-0.552-0.448-1-1-1s-1 0.448-1 1v0 4c0 0.552-0.448 1-1 1v0h-22c-0.552 0-1-0.448-1-1v0-4zM16.855 24l0.015 0.125c0.066 0.555 0.114 1.19 0.114 1.723 0 0.6-0.14 1.214-0.377 1.643-0.226 0.412-0.442 0.506-0.607 0.512-0.165-0.006-0.381-0.1-0.607-0.512-0.236-0.429-0.377-1.044-0.377-1.643 0-0.533 0.048-1.168 0.114-1.723l0.015-0.125h1.71zM24.28 9.95l-6.104 12.050h-4.358l-6.097-12.050h16.558z"></path>
</svg>
