<!-- Generated by IcoMoon.io -->
<svg version="1.1" xmlns="http://www.w3.org/2000/svg" width="32" height="32" viewBox="0 0 32 32">
<title>inking-tool</title>
<path d="M26.999 2.664c0.506 0 0.925 0.376 0.991 0.864l0.009 0.136v4.667c0 1.224-0.943 2.228-2.142 2.326l-0.191 0.008h-0.351l-5.298 11.95c-0.279 0.63-0.817 1.093-1.456 1.287 0.184 1.108 0.156 2.15-0.092 3.119-0.083 0.323-0.191 0.635-0.326 0.935-0.242 0.541-0.681 0.969-1.228 1.199-1.189 0.498-2.556-0.061-3.054-1.25-0.118-0.282-0.216-0.578-0.295-0.887-0.259-1.023-0.289-2.074-0.094-3.144-0.536-0.18-0.994-0.554-1.278-1.057l-0.095-0.187-5.414-11.966h-0.352c-1.224 0-2.228-0.943-2.326-2.142l-0.008-0.191v-4.667c0-0.552 0.448-1 1-1 0.506 0 0.925 0.376 0.991 0.864l0.009 0.136v4.667c0 0.158 0.11 0.29 0.257 0.325l0.076 0.009h19.331c0.158 0 0.29-0.11 0.325-0.257l0.009-0.076v-4.667c0-0.552 0.448-1 1-1zM16.544 24h-1.055l-0.050 0.247c-0.142 0.787-0.119 1.544 0.068 2.28 0.054 0.214 0.121 0.415 0.2 0.604 0.071 0.17 0.267 0.25 0.436 0.179 0.078-0.033 0.141-0.094 0.175-0.171 0.088-0.196 0.159-0.4 0.213-0.614 0.175-0.683 0.197-1.44 0.059-2.277l-0.047-0.248zM23.127 10.664h-14.244l5.040 11.141c0.043 0.095 0.128 0.164 0.227 0.187l0.077 0.009h3.658c0.105 0 0.203-0.050 0.265-0.131l0.039-0.067 4.938-11.139z"></path>
</svg>
