<!-- Generated by IcoMoon.io -->
<svg version="1.1" xmlns="http://www.w3.org/2000/svg" width="32" height="32" viewBox="0 0 32 32">
<title>inprivate-account</title>
<path d="M24 18.286c1.493 0 2.763 0.954 3.234 2.286h-11.234v-0.571h-8c0 0-0 0-0 0-0.888 0-1.619 0.676-1.706 1.541l-0.001 0.007-0.008 0.166v0.817c0 3.056 3.873 5.469 9.714 5.469v-0.571h8.538c-2.046 1.421-5.040 2.286-8.538 2.286-6.617 0-11.429-2.934-11.429-7.183v-0.817c0-1.894 1.535-3.429 3.429-3.429v0h16zM27.429 21.714v0.817c0 0.305-0.026 0.605-0.080 0.897h-11.349v-1.714h11.429zM27.005 24.571h-11.005v1.714h9.867c0.488-0.527 0.872-1.102 1.137-1.714zM22.805 8.286c0.034 0.257 0.053 0.555 0.053 0.857s-0.019 0.6-0.057 0.892l0.004-0.035h-6.805v-1.714h6.805zM22.561 7.143c-0.202-0.653-0.473-1.221-0.813-1.74l0.016 0.026h-5.765v1.714h6.56zM16 2.286c1.889 0 3.6 0.765 4.84 2h-4.84v-0.286c-2.84 0-5.143 2.303-5.143 5.143s2.303 5.143 5.143 5.143v0-0.286h4.84c-1.24 1.236-2.951 2-4.84 2-3.787 0-6.857-3.070-6.857-6.857s3.070-6.857 6.857-6.857c0 0 0 0 0 0h-0zM21.765 12.857h-5.765v-1.714h6.56c-0.185 0.613-0.455 1.189-0.795 1.714z"></path>
</svg>
