<!-- Generated by IcoMoon.io -->
<svg version="1.1" xmlns="http://www.w3.org/2000/svg" width="32" height="32" viewBox="0 0 32 32">
<title>inprivate-account</title>
<path d="M23.672 18.667c1.611 0 2.925 1.27 2.995 2.863l-0.001 0.137h-10.667l-0.001-1.001-7.663 0.001c-0.551 0-0.998 0.447-0.998 0.999v0.77c0 0.714 0.255 1.405 0.719 1.948 1.671 1.957 4.292 2.951 7.943 2.951v-1.001l8.856 0.001c-2.081 2.008-5.053 3-8.856 3-4.194 0-7.376-1.207-9.464-3.653-0.773-0.905-1.198-2.057-1.198-3.247v-0.77c0-1.656 1.342-2.999 2.998-2.999h15.336zM25.96 25.002l-9.96-0.002v-2l10.638 0c-0.081 0.709-0.313 1.391-0.678 2.001zM16 2.667c2.181 0 4.117 1.047 5.334 2.666l-5.334 0v-0.667c-2.577 0-4.667 2.089-4.667 4.667s2.089 4.667 4.667 4.667v-0.667l5.333 0.002c-1.216 1.618-3.152 2.665-5.333 2.665-3.682 0-6.667-2.985-6.667-6.667s2.985-6.667 6.667-6.667zM22.634 10.001c-0.070 0.705-0.25 1.377-0.522 2l-6.112-0.001v-2l6.634 0.001zM22.112 6.667c0.272 0.623 0.452 1.295 0.521 2l-6.634-0v-2l6.112 0.001z"></path>
</svg>
