<!-- Generated by IcoMoon.io -->
<svg version="1.1" xmlns="http://www.w3.org/2000/svg" width="32" height="32" viewBox="0 0 32 32">
<title>ios-chevron-right</title>
<path d="M20.234 9.366c-0.145-0.145-0.235-0.345-0.235-0.566 0-0.442 0.359-0.801 0.801-0.801 0.221 0 0.421 0.090 0.566 0.235v0l7.2 7.2c0.145 0.145 0.235 0.345 0.235 0.566s-0.090 0.422-0.235 0.566l-7.2 7.2c-0.145 0.145-0.345 0.235-0.566 0.235-0.442 0-0.801-0.359-0.801-0.801 0-0.221 0.090-0.421 0.235-0.566v0l6.635-6.634-6.635-6.634z"></path>
</svg>
