<!-- Generated by IcoMoon.io -->
<svg version="1.1" xmlns="http://www.w3.org/2000/svg" width="32" height="32" viewBox="0 0 32 32">
<title>iot</title>
<path d="M25.333 5.989c0 1.841-1.492 3.333-3.333 3.333-0.234 0-0.462-0.024-0.683-0.070l-1.706 2.823c1.059 0.975 1.722 2.372 1.722 3.925 0 0.026-0 0.052-0.001 0.078l1.729 0.348c0.562-1.047 1.667-1.759 2.939-1.759 1.841 0 3.333 1.492 3.333 3.333s-1.492 3.333-3.333 3.333c-1.709 0-3.117-1.286-3.311-2.943l-1.759-0.354c-0.46 1.112-1.284 2.034-2.325 2.618l0.66 2.016c0.022-0 0.045-0.001 0.067-0.001 1.841 0 3.333 1.492 3.333 3.333s-1.492 3.333-3.333 3.333c-1.841 0-3.333-1.492-3.333-3.333 0-1.107 0.54-2.088 1.371-2.694l-0.662-2.022c-0.232 0.031-0.468 0.047-0.708 0.047-1.761 0-3.323-0.854-4.294-2.17l-2.393 1.13c0.014 0.123 0.021 0.247 0.021 0.373 0 1.841-1.492 3.333-3.333 3.333s-3.333-1.492-3.333-3.333c0-1.841 1.492-3.333 3.333-3.333 0.997 0 1.892 0.438 2.502 1.131l2.339-1.105c-0.114-0.434-0.175-0.89-0.175-1.36 0-1.29 0.458-2.473 1.22-3.396l-1.322-1.506c-0.381 0.152-0.796 0.235-1.232 0.235-1.841 0-3.333-1.492-3.333-3.333s1.492-3.333 3.333-3.333c1.841 0 3.333 1.492 3.333 3.333 0 0.678-0.202 1.308-0.55 1.835l1.31 1.492c0.763-0.421 1.64-0.66 2.573-0.66 0.674 0 1.319 0.125 1.912 0.353l1.66-2.747c-0.562-0.597-0.906-1.4-0.906-2.284 0-1.841 1.492-3.333 3.333-3.333s3.333 1.492 3.333 3.333zM23.333 5.989c0-0.736-0.597-1.333-1.333-1.333s-1.333 0.597-1.333 1.333c0 0.736 0.597 1.333 1.333 1.333s1.333-0.597 1.333-1.333zM9.333 9.333c0.736 0 1.333-0.597 1.333-1.333s-0.597-1.333-1.333-1.333c-0.736 0-1.333 0.597-1.333 1.333s0.597 1.333 1.333 1.333zM16 19.333c1.841 0 3.333-1.492 3.333-3.333s-1.492-3.333-3.333-3.333c-1.841 0-3.333 1.492-3.333 3.333s1.492 3.333 3.333 3.333zM7.333 20.667c0-0.736-0.597-1.333-1.333-1.333s-1.333 0.597-1.333 1.333c0 0.736 0.597 1.333 1.333 1.333s1.333-0.597 1.333-1.333zM20.667 26.003c0-0.736-0.597-1.333-1.333-1.333s-1.333 0.597-1.333 1.333c0 0.736 0.597 1.333 1.333 1.333s1.333-0.597 1.333-1.333zM26 19.333c0.736 0 1.333-0.597 1.333-1.333s-0.597-1.333-1.333-1.333c-0.736 0-1.333 0.597-1.333 1.333s0.597 1.333 1.333 1.333z"></path>
</svg>
