<!-- Generated by IcoMoon.io -->
<svg version="1.1" xmlns="http://www.w3.org/2000/svg" width="32" height="32" viewBox="0 0 32 32">
<title>javascript-regular</title>
<path d="M18.667 15c0-1.288 1.045-2.333 2.333-2.333h2c0.552 0 1 0.448 1 1s-0.448 1-1 1v0h-2c-0.184 0-0.333 0.149-0.333 0.333v0 2c0 0.184 0.149 0.333 0.333 0.333h0.667c1.288 0 2.333 1.045 2.333 2.333v2c0 1.289-1.045 2.333-2.333 2.333v0h-2c-0.552 0-1-0.448-1-1s0.448-1 1-1v0h2c0.184 0 0.333-0.149 0.333-0.333v0-2c0-0.184-0.149-0.333-0.333-0.333v0h-0.667c-1.289 0-2.333-1.045-2.333-2.333v0-2zM17 13.667c0-0.552-0.448-1-1-1s-1 0.448-1 1v0 8c0 0.184-0.149 0.333-0.333 0.333v0h-1.667c-0.552 0-1 0.448-1 1s0.448 1 1 1v0h1.667c1.289 0 2.333-1.045 2.333-2.333v0-8zM4 8.333v15.333c0 2.393 1.94 4.333 4.333 4.333v0h15.333c2.393 0 4.333-1.94 4.333-4.333v0-15.333c0-2.393-1.94-4.333-4.333-4.333v0h-15.333c-2.393 0-4.333 1.94-4.333 4.333v0zM8.333 6h15.333c1.288 0 2.333 1.045 2.333 2.333v15.333c0 1.289-1.045 2.333-2.333 2.333v0h-15.333c-1.289 0-2.333-1.045-2.333-2.333v0-15.333c0-1.288 1.045-2.333 2.333-2.333z"></path>
</svg>
