<!-- Generated by IcoMoon.io -->
<svg version="1.1" xmlns="http://www.w3.org/2000/svg" width="32" height="32" viewBox="0 0 32 32">
<title>key-reset-regular</title>
<path d="M22.667 11c0.92 0 1.667-0.746 1.667-1.667s-0.746-1.667-1.667-1.667v0c-0.92 0-1.667 0.746-1.667 1.667s0.746 1.667 1.667 1.667v0zM11.933 11.467c0.003-4.822 3.911-8.73 8.733-8.733h0c4.795 0 8.733 3.759 8.733 8.6 0 0.004 0 0.008 0 0.013 0 1.927-0.628 3.707-1.69 5.147l0.017-0.024c-0.493-0.405-1.052-0.76-1.652-1.043l-0.049-0.021c0.857-1.114 1.373-2.529 1.373-4.065 0-0.003 0-0.005 0-0.008v0c0-3.692-2.996-6.6-6.733-6.6-3.718 0.003-6.73 3.016-6.733 6.733v0c0 0.349 0.045 0.719 0.117 1.127 0.024 0.126 0.038 0.272 0.038 0.42 0 0.65-0.262 1.238-0.686 1.665l-8.315 8.313c-0.301 0.302-0.488 0.718-0.488 1.178 0 0 0 0 0 0v-0 2.896c0 0.184 0.149 0.333 0.333 0.333h3.333c0.184 0 0.333-0.149 0.333-0.333v0-2c0-0.92 0.747-1.667 1.667-1.667h2.333v-2.333c0-0.867 0.663-1.58 1.509-1.66l1.436 1.437c-0.196 0.158-0.363 0.341-0.499 0.547l-0.005 0.009h-0.44v2.333c0 0.92-0.747 1.667-1.667 1.667h-2.333v1.667c0 1.289-1.045 2.333-2.333 2.333v0h-3.333c-1.289 0-2.333-1.045-2.333-2.333v0-2.896c0-0.973 0.385-1.905 1.073-2.592l8.313-8.315c0.062-0.066 0.101-0.155 0.101-0.252 0-0.026-0.003-0.051-0.008-0.075l0 0.002c-0.087-0.439-0.14-0.947-0.147-1.466l-0-0.006zM18.373 15.040c0.196-0.183 0.318-0.443 0.318-0.732 0-0.552-0.448-1-1-1-0.289 0-0.549 0.122-0.731 0.318l-0.001 0.001-2.667 2.667c-0.181 0.181-0.292 0.431-0.292 0.707s0.112 0.526 0.292 0.707v0l2.667 2.667c0.183 0.196 0.443 0.318 0.732 0.318 0.552 0 1-0.448 1-1 0-0.289-0.122-0.549-0.318-0.731l-0.001-0.001-0.96-0.96h5.253c2.577 0 4.667 2.089 4.667 4.667s-2.089 4.667-4.667 4.667c-2.577 0-4.667-2.089-4.667-4.667v0c0-0.552-0.448-1-1-1s-1 0.448-1 1v0c0 3.682 2.985 6.667 6.667 6.667s6.667-2.985 6.667-6.667c0-3.682-2.985-6.667-6.667-6.667v0h-5.253l0.96-0.96z"></path>
</svg>
