<!-- Generated by IcoMoon.io -->
<svg version="1.1" xmlns="http://www.w3.org/2000/svg" width="32" height="32" viewBox="0 0 32 32">
<title>key-multiple-regular</title>
<path d="M16.512 3.221c-0.154-0.013-0.333-0.021-0.513-0.021-3.535 0-6.4 2.865-6.4 6.4 0 0.644 0.095 1.267 0.272 1.853l-0.012-0.045-6.379 6.378c-0.174 0.174-0.281 0.413-0.282 0.678v4.576c0 0.53 0.43 0.96 0.96 0.96h4.48c0.53 0 0.96-0.43 0.96-0.96v0-2.24h3.040c0.53 0 0.96-0.43 0.96-0.96v0-2.709l1.176-1.176c-0.326-0.396-0.627-0.839-0.887-1.308l-0.023-0.045-1.584 1.586c-0.174 0.174-0.281 0.413-0.282 0.678v2.334h-3.038c-0.53 0-0.96 0.43-0.96 0.96v0 2.24h-3.2v-3.669l6.912-6.912-0.189-0.485c-0.205-0.514-0.324-1.11-0.324-1.734 0-2.174 1.444-4.010 3.426-4.602l0.034-0.009c0.528-0.677 1.152-1.274 1.851-1.77zM21.6 10c0.663 0 1.2-0.537 1.2-1.2s-0.537-1.2-1.2-1.2v0c-0.663 0-1.2 0.537-1.2 1.2s0.537 1.2 1.2 1.2v0zM14.4 10.4c0-3.976 3.224-7.199 7.2-7.199s7.2 3.224 7.2 7.2c0 2.485-1.259 4.677-3.174 5.97l-0.026 0.016v3.28l1.253 1.254c0.173 0.174 0.281 0.413 0.281 0.678s-0.107 0.505-0.281 0.678v0l-1.722 1.722 1.709 1.707c0.174 0.174 0.281 0.414 0.281 0.679 0 0.303-0.14 0.573-0.359 0.749l-0.002 0.001-3.76 3.008c-0.163 0.131-0.372 0.211-0.6 0.211s-0.437-0.079-0.602-0.212l0.002 0.001-3.84-3.072c-0.22-0.177-0.36-0.447-0.36-0.749v-9.936c-1.941-1.309-3.2-3.499-3.2-5.983 0-0.001 0-0.003 0-0.004v0zM21.6 4.8c-0.001 0-0.002 0-0.003 0-3.093 0-5.6 2.507-5.6 5.6 0 2.063 1.115 3.865 2.776 4.837l0.026 0.014c0.241 0.141 0.4 0.398 0.4 0.693v0 10.072l3.2 2.56 2.802-2.242-1.654-1.656c-0.173-0.174-0.281-0.413-0.281-0.678s0.107-0.505 0.281-0.678v0l1.722-1.722-0.987-0.987c-0.174-0.174-0.281-0.413-0.282-0.678v-3.99c0-0.295 0.159-0.552 0.396-0.691l0.004-0.002c1.687-0.986 2.803-2.788 2.803-4.851 0-3.093-2.507-5.6-5.6-5.6-0.001 0-0.002 0-0.003 0h0z"></path>
</svg>
