<!-- Generated by IcoMoon.io -->
<svg version="1.1" xmlns="http://www.w3.org/2000/svg" width="32" height="32" viewBox="0 0 32 32">
<title>key</title>
<path d="M22 12c1.105 0 2-0.895 2-2s-0.895-2-2-2v0c-1.105 0-2 0.895-2 2s0.895 2 2 2v0z"></path>
<path d="M15 24v-1h2c0.552 0 1-0.448 1-1v0-2h2c4.417-0.001 7.998-3.582 7.998-8s-3.582-8-8-8-8 3.582-8 8c0 0.806 0.119 1.584 0.341 2.318l-0.015-0.057-7.738 7.739c-0.362 0.362-0.586 0.862-0.586 1.414v2.586c0 1.105 0.895 2 2 2v0h4c1.105 0 2-0.895 2-2v0-1h2c0.552 0 1-0.448 1-1v0zM14 12c0-3.314 2.686-6 6-6s6 2.686 6 6c0 3.314-2.686 6-6 6v0h-3c-0.552 0-1 0.448-1 1v0 2h-2c-0.552 0-1 0.448-1 1v0 1h-2c-0.552 0-1 0.448-1 1v0 2h-4v-2.586l8.178-8.178c0.181-0.181 0.293-0.431 0.293-0.707 0-0.13-0.025-0.254-0.070-0.368l0.002 0.007c-0.255-0.64-0.403-1.382-0.403-2.158 0-0.003 0-0.007 0-0.010v0.001z"></path>
</svg>
