<!-- Generated by IcoMoon.io -->
<svg version="1.1" xmlns="http://www.w3.org/2000/svg" width="32" height="32" viewBox="0 0 32 32">
<title>key</title>
<path d="M24.332 9.333c0 0.92-0.746 1.667-1.667 1.667s-1.667-0.746-1.667-1.667 0.746-1.667 1.667-1.667c0.92 0 1.667 0.746 1.667 1.667z"></path>
<path d="M20.666 2.733c-4.819 0-8.733 3.914-8.733 8.733 0 0.516 0.067 1.014 0.147 1.472 0.024 0.135-0.020 0.253-0.092 0.325l-8.314 8.314c-0.688 0.688-1.074 1.62-1.074 2.593v2.895c0 1.289 1.045 2.333 2.333 2.333h3.333c1.289 0 2.333-1.045 2.333-2.333v-1.667h2.333c0.921 0 1.667-0.746 1.667-1.667v-2.333h2.333c0.9 0 1.633-0.713 1.666-1.605 0.662 0.17 1.361 0.272 2.068 0.272 4.819 0 8.733-3.914 8.733-8.733 0-4.842-3.937-8.6-8.733-8.6zM13.932 11.466c0-3.714 3.019-6.733 6.733-6.733 3.737 0 6.733 2.908 6.733 6.6 0 3.714-3.019 6.733-6.733 6.733-0.906 0-1.838-0.228-2.673-0.586-0.309-0.132-0.664-0.101-0.944 0.084s-0.45 0.499-0.45 0.835v1h-2.333c-0.92 0-1.667 0.746-1.667 1.667v2.333h-2.333c-0.92 0-1.667 0.746-1.667 1.667v2c0 0.184-0.149 0.333-0.333 0.333h-3.333c-0.184 0-0.333-0.149-0.333-0.333v-2.895c0-0.442 0.176-0.866 0.488-1.179l8.314-8.314c0.558-0.558 0.778-1.342 0.648-2.085-0.072-0.408-0.117-0.777-0.117-1.126z"></path>
</svg>
