<!-- Generated by IcoMoon.io -->
<svg version="1.1" xmlns="http://www.w3.org/2000/svg" width="32" height="32" viewBox="0 0 32 32">
<title>keyboard-123-regular</title>
<path d="M6.887 5.56c0.13 0.067 0.285 0.106 0.448 0.106 0.381 0 0.713-0.213 0.881-0.527l0.003-0.005 0.003-0.005c0.091-0.133 0.197-0.248 0.317-0.344l0.003-0.002c0.253-0.203 0.701-0.448 1.459-0.448 0.656 0 1.040 0.316 1.189 0.613 0.137 0.276 0.137 0.645-0.229 1.013-0.26 0.259-0.595 0.484-1.021 0.731 0.005 0.003-0.121 0.075-0.248 0.147l-0.138 0.072c-0.32 0.18-0.683 0.383-1.004 0.593-1.009 0.659-1.992 1.615-2.207 3.376-0.005 0.036-0.007 0.079-0.007 0.121 0 0.552 0.447 1 0.999 1h5c0.552 0 1-0.448 1-1s-0.448-1-1-1v0h-3.603c0.227-0.324 0.536-0.579 0.911-0.824 0.265-0.173 0.523-0.316 0.809-0.477 0.153-0.085 0.316-0.176 0.492-0.277 0.465-0.271 0.984-0.6 1.431-1.048 0.967-0.965 1.133-2.263 0.604-3.32-0.517-1.036-1.633-1.72-2.977-1.72-1.243 0-2.127 0.421-2.707 0.885-0.306 0.246-0.566 0.534-0.774 0.858l-0.008 0.014c-0.010 0.016-0.025 0.042-0.040 0.069l-0.006 0.011-0.016 0.027-0.005 0.013-0.003 0.004v0.003l-0.003 0.003c-0.066 0.13-0.105 0.284-0.105 0.447 0 0.389 0.223 0.727 0.548 0.892l0.006 0.003zM19.167 5.979c-0.18 0.168-0.533 0.355-1.167 0.355-0.552 0-1 0.448-1 1s0.448 1 1 1v0c0.632 0 0.987 0.187 1.167 0.355s0.253 0.377 0.24 0.587c-0.020 0.351-0.376 1.059-1.74 1.059-0.62 0-1.013-0.183-1.237-0.332-0.105-0.071-0.196-0.151-0.276-0.241l-0.001-0.002c-0.183-0.259-0.481-0.425-0.818-0.425-0.207 0-0.399 0.063-0.558 0.17l0.004-0.002c-0.779 0.5-0.277 1.387-0.277 1.387l0.001 0.001 0.001 0.003 0.003 0.004 0.007 0.011 0.017 0.024 0.048 0.064c0.213 0.258 0.457 0.48 0.729 0.663l0.012 0.008c0.525 0.351 1.3 0.668 2.347 0.668 2.163 0 3.64-1.292 3.737-2.941 0.003-0.049 0.005-0.105 0.005-0.162 0-0.738-0.293-1.407-0.77-1.897l0.001 0.001c0.548-0.569 0.808-1.315 0.764-2.059-0.099-1.649-1.575-2.941-3.737-2.941-1.047 0-1.821 0.317-2.347 0.668-0.284 0.191-0.528 0.413-0.737 0.665l-0.005 0.006c-0.013 0.016-0.029 0.037-0.044 0.058l-0.004 0.006-0.017 0.024-0.007 0.011-0.003 0.004-0.001 0.003-0.001 0.001c-0.109 0.158-0.175 0.354-0.175 0.565 0 0.552 0.448 1 1 1 0.341 0 0.643-0.171 0.823-0.432l0.002-0.003c0.081-0.092 0.172-0.172 0.272-0.239l0.005-0.003c0.225-0.149 0.617-0.332 1.237-0.332 1.364 0 1.72 0.708 1.741 1.059 0.001 0.013 0.001 0.029 0.001 0.044 0 0.215-0.093 0.409-0.242 0.542l-0.001 0.001zM16.165 9.779l-0.009-0.015v0.003l0.005 0.005 0.001 0.003 0.003 0.003zM16.165 4.889l-0.009 0.013v-0.003l0.005-0.005 0.001-0.003 0.003-0.003zM4.66 3.532l0.009 0.133v7.329c0 0.003 0 0.007 0 0.010 0 0.552-0.448 1-1 1-0.508 0-0.927-0.379-0.992-0.869l-0.001-0.005-0.008-0.136v-5.939l-0.684 0.231c-0.095 0.033-0.204 0.052-0.317 0.052-0.39 0-0.729-0.224-0.893-0.55l-0.003-0.006-0.053-0.127c-0.033-0.095-0.052-0.204-0.052-0.317 0-0.39 0.224-0.729 0.55-0.893l0.006-0.003 0.127-0.053 2.001-0.671c0.095-0.033 0.204-0.052 0.318-0.052 0.505 0 0.922 0.374 0.99 0.86l0.001 0.005zM22.703 8.667h3.624c0.552 0 1 0.448 1 1v0 12.673c0 0.552-0.448 1-1 1v0h-20.66c-0.552 0-1-0.448-1-1v0-9.268c-0.309 0.163-0.676 0.258-1.064 0.258-0.339 0-0.66-0.072-0.95-0.203l0.015 0.006v9.207c0 1.657 1.343 3 3 3v0h20.66c1.657 0 3-1.343 3-3v0-12.673c0-1.657-1.343-3-3-3h-3.776c-0.083 0.258-0.178 0.479-0.291 0.688l0.011-0.022c0.223 0.42 0.368 0.871 0.432 1.333zM23 19.333l-14.136 0.009c-0.491 0.069-0.864 0.486-0.864 0.991 0 0.552 0.448 1 1 1l14.136-0.009c0.491-0.069 0.864-0.486 0.864-0.991 0-0.552-0.448-1-1-1h-0zM23.333 16c0-0.736-0.597-1.333-1.333-1.333s-1.333 0.597-1.333 1.333v0c0 0.736 0.597 1.333 1.333 1.333s1.333-0.597 1.333-1.333v0zM15.34 16c0-0.736-0.597-1.333-1.333-1.333s-1.333 0.597-1.333 1.333v0c0 0.736 0.597 1.333 1.333 1.333s1.333-0.597 1.333-1.333v0zM11.34 16c0-0.736-0.597-1.333-1.333-1.333s-1.333 0.597-1.333 1.333v0c0 0.736 0.597 1.333 1.333 1.333s1.333-0.597 1.333-1.333v0zM19.34 16c0-0.736-0.597-1.333-1.333-1.333s-1.333 0.597-1.333 1.333v0c0 0.736 0.597 1.333 1.333 1.333s1.333-0.597 1.333-1.333v0zM25.327 12c0-0.736-0.597-1.333-1.333-1.333s-1.333 0.597-1.333 1.333v0c0 0.736 0.597 1.333 1.333 1.333s1.333-0.597 1.333-1.333v0z"></path>
</svg>
