<!-- Generated by IcoMoon.io -->
<svg version="1.1" xmlns="http://www.w3.org/2000/svg" width="32" height="32" viewBox="0 0 32 32">
<title>keyboard-tab-regular</title>
<path d="M24.040 15.293l-8.667-8.667c-0.181-0.179-0.43-0.29-0.704-0.29-0.552 0-1 0.448-1 1 0 0.223 0.073 0.428 0.196 0.594l-0.002-0.003 0.097 0.112 6.96 6.96h-15.92c-0.504 0-0.921 0.373-0.99 0.859l-0.001 0.005-0.009 0.136c0 0.507 0.376 0.925 0.864 0.991l0.136 0.009h15.92l-6.96 6.96c-0.181 0.181-0.293 0.431-0.293 0.707 0 0.224 0.073 0.43 0.198 0.597l-0.002-0.003 0.097 0.112c0.181 0.181 0.431 0.293 0.707 0.293 0.224 0 0.43-0.073 0.597-0.198l-0.003 0.002 0.112-0.097 8.667-8.667c0.181-0.181 0.293-0.431 0.293-0.707 0-0.224-0.073-0.43-0.198-0.597l0.002 0.003-0.097-0.112zM28 24.667v-17.333c0-0.552-0.448-1-1-1s-1 0.448-1 1v0 17.333c0 0.552 0.448 1 1 1s1-0.448 1-1v0z"></path>
</svg>
