<!-- Generated by IcoMoon.io -->
<svg version="1.1" xmlns="http://www.w3.org/2000/svg" width="32" height="32" viewBox="0 0 32 32">
<title>keyboard-shift</title>
<path d="M14.506 3.29c-0.108 0.090-0.208 0.19-0.299 0.299l-10.487 12.584c-0.825 0.99-0.691 2.461 0.299 3.286l0.186 0.14c0.385 0.26 0.84 0.401 1.308 0.401h3.819l0.001 7c0 1.289 1.045 2.333 2.333 2.333l8.858-0.008c1.199-0.097 2.142-1.101 2.142-2.326l-0.001-7h3.821c1.289 0 2.333-1.045 2.333-2.333 0-0.546-0.191-1.074-0.541-1.494l-10.487-12.584c-0.779-0.935-2.135-1.106-3.117-0.427l-0.169 0.129zM16.256 4.869l10.487 12.584c0.050 0.060 0.077 0.135 0.077 0.213 0 0.184-0.149 0.333-0.333 0.333h-4.82c-0.552 0-1 0.448-1 1v8c0 0.184-0.149 0.333-0.333 0.333h-8.667c-0.184 0-0.333-0.149-0.333-0.333v-8c0-0.552-0.448-1-1-1h-4.82c-0.078 0-0.153-0.027-0.213-0.077-0.141-0.118-0.161-0.328-0.043-0.469l10.487-12.584c0.013-0.015 0.027-0.030 0.043-0.043 0.141-0.118 0.352-0.099 0.469 0.043z"></path>
</svg>
