<!-- Generated by IcoMoon.io -->
<svg version="1.1" xmlns="http://www.w3.org/2000/svg" width="32" height="32" viewBox="0 0 32 32">
<title>keyboard-shift</title>
<path d="M14.237 3.471c0.43-0.494 1.060-0.804 1.763-0.804s1.332 0.31 1.76 0.802l0.002 0.003 10.993 12.672c1.311 1.511 0.237 3.863-1.763 3.863h-4.327v6.996c-0.001 1.288-1.045 2.332-2.333 2.332h-8.667c-1.289 0-2.333-1.045-2.333-2.333v0-6.996h-4.328c-2 0-3.073-2.352-1.761-3.863l10.993-12.672zM16.251 4.781c-0.061-0.070-0.151-0.114-0.251-0.114s-0.19 0.044-0.251 0.114l-0 0-10.993 12.672c-0.051 0.058-0.082 0.135-0.082 0.219 0 0.184 0.149 0.333 0.332 0.333h5.328c0.552 0 1 0.448 1 1v0 7.996c0 0.184 0.149 0.333 0.333 0.333h8.667c0.184 0 0.333-0.149 0.333-0.333v0-7.996c0-0.552 0.448-1 1-1v0h5.327c0 0 0 0 0 0 0.184 0 0.333-0.149 0.333-0.333 0-0.084-0.031-0.16-0.082-0.219l0 0-10.993-12.672z"></path>
</svg>
