<!-- Generated by IcoMoon.io -->
<svg version="1.1" xmlns="http://www.w3.org/2000/svg" width="32" height="32" viewBox="0 0 32 32">
<title>keyboard-shift-uppercase</title>
<path d="M17.763 3.471c-0.43-0.494-1.060-0.804-1.763-0.804s-1.332 0.31-1.76 0.802l-0.002 0.003-10.993 12.672c-1.312 1.511-0.239 3.863 1.761 3.863h4.328v2.995c0 1.288 1.045 2.333 2.333 2.333h8.667c1.289 0 2.333-1.045 2.333-2.333v0-2.995h4.327c2 0 3.073-2.352 1.763-3.863l-10.993-12.672zM15.748 4.781c0.061-0.071 0.152-0.115 0.252-0.115s0.191 0.044 0.252 0.115l0 0 10.993 12.672c0.051 0.058 0.082 0.135 0.082 0.219 0 0.184-0.149 0.333-0.333 0.333-0 0-0 0-0 0h-5.327c-0.552 0-1 0.448-1 1v0 3.995c0 0.184-0.149 0.333-0.333 0.333v0h-8.667c-0.184 0-0.333-0.149-0.333-0.333v0-3.995c0-0.552-0.448-1-1-1v0h-5.328c-0.184-0.001-0.332-0.15-0.332-0.333 0-0.084 0.031-0.16 0.082-0.219l-0 0 10.993-12.672zM10.333 27.333c-0.552 0-1 0.448-1 1s0.448 1 1 1v0h11.333c0.552 0 1-0.448 1-1s-0.448-1-1-1v0h-11.333z"></path>
</svg>
