<!-- Generated by IcoMoon.io -->
<svg version="1.1" xmlns="http://www.w3.org/2000/svg" width="32" height="32" viewBox="0 0 32 32">
<title>keyboard-dock</title>
<path d="M23.003 16l-14.135 0.009c-0.491 0.069-0.864 0.486-0.864 0.991 0 0.552 0.447 0.999 0.998 1l14.136-0.009c0.491-0.069 0.864-0.486 0.864-0.991 0-0.552-0.448-1-1-1h-0zM23.336 12.667c0-0.736-0.597-1.333-1.333-1.333s-1.333 0.597-1.333 1.333v0c0 0.736 0.597 1.333 1.333 1.333s1.333-0.597 1.333-1.333v0zM15.343 12.667c0-0.736-0.597-1.333-1.333-1.333s-1.333 0.597-1.333 1.333v0c0 0.736 0.597 1.333 1.333 1.333s1.333-0.597 1.333-1.333v0zM11.343 12.667c0-0.736-0.597-1.333-1.333-1.333s-1.333 0.597-1.333 1.333v0c0 0.736 0.597 1.333 1.333 1.333s1.333-0.597 1.333-1.333v0zM19.343 12.667c0-0.736-0.597-1.333-1.333-1.333s-1.333 0.597-1.333 1.333v0c0 0.736 0.597 1.333 1.333 1.333s1.333-0.597 1.333-1.333v0zM9.336 8.667c0-0.736-0.597-1.333-1.333-1.333s-1.333 0.597-1.333 1.333v0c0 0.736 0.597 1.333 1.333 1.333s1.333-0.597 1.333-1.333v0zM13.329 8.667c0-0.736-0.597-1.333-1.333-1.333s-1.333 0.597-1.333 1.333v0c0 0.736 0.597 1.333 1.333 1.333s1.333-0.597 1.333-1.333v0zM17.329 8.667c0-0.736-0.597-1.333-1.333-1.333s-1.333 0.597-1.333 1.333v0c0 0.736 0.597 1.333 1.333 1.333s1.333-0.597 1.333-1.333v0zM21.329 8.667c0-0.736-0.597-1.333-1.333-1.333s-1.333 0.597-1.333 1.333v0c0 0.736 0.597 1.333 1.333 1.333s1.333-0.597 1.333-1.333v0zM25.329 8.667c0-0.736-0.597-1.333-1.333-1.333s-1.333 0.597-1.333 1.333v0c0 0.736 0.597 1.333 1.333 1.333s1.333-0.597 1.333-1.333v0zM29.329 6.333c0-1.657-1.343-3-3-3v0h-20.659c-1.657 0-3 1.343-3 3v0 12.673c0 1.657 1.343 3 3 3v0h9.331v1.993h0.003v1.92l-1.12-1.123-0.113-0.096c-0.163-0.121-0.369-0.194-0.591-0.194-0.552 0-1 0.448-1 1 0 0.275 0.111 0.524 0.29 0.704l2.828 2.828 0.112 0.097c0.146 0.109 0.326 0.179 0.522 0.193l0.003 0h0.14l0.137-0.019c0.197-0.043 0.367-0.139 0.5-0.272l2.828-2.828 0.097-0.112c0.123-0.164 0.196-0.371 0.196-0.595 0-0.276-0.112-0.527-0.294-0.708v0l-0.112-0.096c-0.164-0.123-0.371-0.197-0.596-0.197-0.276 0-0.526 0.112-0.707 0.293v0l-1.12 1.121v-3.912h9.327c1.657 0 3-1.343 3-3v0-12.673zM17 20.007v-0.007h-2v0.007h-9.331c-0.552 0-1-0.448-1-1v0-12.673c0-0.552 0.448-1 1-1v0h20.661c0.552 0 1 0.448 1 1v0 12.673c0 0.552-0.448 1-1 1v0h-9.331z"></path>
</svg>
