<!-- Generated by IcoMoon.io -->
<svg version="1.1" xmlns="http://www.w3.org/2000/svg" width="32" height="32" viewBox="0 0 32 32">
<title>keyboard-layout-resize-regular</title>
<path d="M17.667 14c0 0 0 0 0 0 1.585 0 2.882 1.229 2.992 2.785l0.001 0.010 0.007 0.205v9.333c0 0 0 0 0 0 0 1.585-1.229 2.882-2.785 2.992l-0.010 0.001-0.205 0.007h-12c-0 0-0 0-0 0-1.585 0-2.882-1.229-2.992-2.785l-0.001-0.010-0.007-0.205v-9.333c0-0 0-0 0-0 0-1.585 1.229-2.882 2.785-2.992l0.010-0.001 0.205-0.007h12zM28.333 14c0.504 0 0.921 0.373 0.99 0.859l0.001 0.005 0.009 0.136v11.333c0 0 0 0 0 0 0 1.585-1.229 2.882-2.785 2.992l-0.010 0.001-0.205 0.007h-2.667c-0.552-0-1-0.448-1-1 0-0.504 0.373-0.921 0.858-0.99l0.005-0.001 0.136-0.009h2.667c0.504-0 0.921-0.373 0.99-0.859l0.001-0.005 0.009-0.136v-11.333c0-0.552 0.448-1 1-1v0zM17.667 16h-12c-0.504 0-0.921 0.373-0.99 0.859l-0.001 0.005-0.009 0.136v9.333c0 0.507 0.376 0.925 0.864 0.991l0.136 0.009h12c0.504-0 0.921-0.373 0.99-0.859l0.001-0.005 0.009-0.136v-9.333c0-0.552-0.448-1-1-1v0zM14.333 23.333c0.552 0 1 0.448 1 1v0c0 0.507-0.453 1-1 1h-5.333c-0.552 0-1-0.448-1-1v0c0-0.507 0.453-1 1-1h5.333zM8 18c0.736 0 1.333 0.597 1.333 1.333s-0.597 1.333-1.333 1.333v0c-0.736 0-1.333-0.597-1.333-1.333s0.597-1.333 1.333-1.333v0zM15.333 18c0.736 0 1.333 0.597 1.333 1.333s-0.597 1.333-1.333 1.333v0c-0.736 0-1.333-0.597-1.333-1.333s0.597-1.333 1.333-1.333v0zM11.667 18c0.736 0 1.333 0.597 1.333 1.333s-0.597 1.333-1.333 1.333v0c-0.736 0-1.333-0.597-1.333-1.333s0.597-1.333 1.333-1.333v0zM28.333 2.667c0 0 0 0 0 0 0.158 0 0.308 0.036 0.441 0.101l-0.006-0.003 0.057 0.031c0.042 0.024 0.078 0.048 0.112 0.074l-0.002-0.002 0.107 0.092 0.068 0.076 0.013 0.019 0.047 0.064c0.078 0.118 0.133 0.257 0.154 0.408l0.001 0.005 0.009 0.135v6.667c-0 0.552-0.448 1-1 1-0.504 0-0.921-0.373-0.99-0.858l-0.001-0.005-0.009-0.136v-4.253l-5.96 5.96c-0.181 0.179-0.43 0.29-0.704 0.29-0.552 0-1-0.448-1-1 0-0.223 0.073-0.428 0.196-0.594l-0.002 0.003 0.097-0.112 5.957-5.96h-4.251c-0.504-0-0.921-0.373-0.99-0.859l-0.001-0.005-0.009-0.136c0-0.504 0.373-0.921 0.859-0.99l0.005-0.001 0.136-0.009h6.667zM17 2.667c0.552 0 1 0.448 1 1 0 0.504-0.373 0.921-0.858 0.99l-0.005 0.001-0.136 0.009h-11.333c-0.504 0-0.921 0.373-0.99 0.859l-0.001 0.005-0.009 0.136v5.333c-0 0.552-0.448 1-1 1-0.504 0-0.921-0.373-0.99-0.858l-0.001-0.005-0.009-0.136v-5.333c0-0 0-0 0-0 0-1.585 1.229-2.882 2.785-2.992l0.010-0.001 0.205-0.007h11.333z"></path>
</svg>
