<!-- Generated by IcoMoon.io -->
<svg version="1.1" xmlns="http://www.w3.org/2000/svg" width="32" height="32" viewBox="0 0 32 32">
<title>keyboard-tab</title>
<path d="M24.040 15.293l-8.667-8.667c-0.391-0.391-1.024-0.391-1.414 0-0.355 0.355-0.387 0.911-0.097 1.302l0.097 0.112 6.96 6.96h-15.92c-0.506 0-0.925 0.376-0.991 0.864l-0.009 0.136c0 0.506 0.376 0.925 0.864 0.991l0.136 0.009h15.92l-6.96 6.96c-0.355 0.355-0.387 0.911-0.097 1.302l0.097 0.112c0.355 0.355 0.911 0.387 1.302 0.097l0.112-0.097 8.667-8.667c0.355-0.355 0.387-0.911 0.097-1.302l-0.097-0.112zM28 24.667v-17.333c0-0.552-0.448-1-1-1s-1 0.448-1 1v17.333c0 0.552 0.448 1 1 1s1-0.448 1-1z"></path>
</svg>
