<!-- Generated by IcoMoon.io -->
<svg version="1.1" xmlns="http://www.w3.org/2000/svg" width="32" height="32" viewBox="0 0 32 32">
<title>keyboard-layout-split</title>
<path d="M26.327 6.667c1.657 0 3 1.343 3 3v0 12.673c0 1.657-1.343 3-3 3v0h-20.66c-1.657 0-3-1.343-3-3v-12.673c0-1.657 1.343-3 3-3v0h20.66zM26.327 8.667h-20.66c-0.552 0-1 0.448-1 1v0 12.673c0 0.552 0.448 1 1 1h20.66c0.552 0 1-0.448 1-1v0-12.673c0-0.552-0.448-1-1-1v0zM8.667 21.333h4.667c0.552 0 1-0.448 1-1s-0.448-1-1-1v0h-4.667c-0.552 0-1 0.448-1 1s0.448 1 1 1v0zM18.667 21.333h4.667c0.552 0 1-0.448 1-1s-0.448-1-1-1v0h-4.667c-0.552 0-1 0.448-1 1s0.448 1 1 1v0zM23.333 14.667c0.736 0 1.333 0.597 1.333 1.333s-0.597 1.333-1.333 1.333v0c-0.736 0-1.333-0.597-1.333-1.333s0.597-1.333 1.333-1.333v0zM12.673 14.667c0.736 0 1.333 0.597 1.333 1.333s-0.597 1.333-1.333 1.333v0c-0.736 0-1.333-0.597-1.333-1.333s0.597-1.333 1.333-1.333v0zM8.673 14.667c0.736 0 1.333 0.597 1.333 1.333s-0.597 1.333-1.333 1.333v0c-0.736 0-1.333-0.597-1.333-1.333s0.597-1.333 1.333-1.333v0zM19.34 14.667c0.736 0 1.333 0.597 1.333 1.333s-0.597 1.333-1.333 1.333v0c-0.736 0-1.333-0.597-1.333-1.333s0.597-1.333 1.333-1.333v0zM8 10.667c0.736 0 1.333 0.597 1.333 1.333s-0.597 1.333-1.333 1.333v0c-0.736 0-1.333-0.597-1.333-1.333s0.597-1.333 1.333-1.333v0zM11.993 10.667c0.736 0 1.333 0.597 1.333 1.333s-0.597 1.333-1.333 1.333v0c-0.736 0-1.333-0.597-1.333-1.333s0.597-1.333 1.333-1.333v0zM19.993 10.667c0.736 0 1.333 0.597 1.333 1.333s-0.597 1.333-1.333 1.333v0c-0.736 0-1.333-0.597-1.333-1.333s0.597-1.333 1.333-1.333v0zM23.993 10.667c0.736 0 1.333 0.597 1.333 1.333s-0.597 1.333-1.333 1.333v0c-0.736 0-1.333-0.597-1.333-1.333s0.597-1.333 1.333-1.333v0z"></path>
</svg>
