<!-- Generated by IcoMoon.io -->
<svg version="1.1" xmlns="http://www.w3.org/2000/svg" width="32" height="32" viewBox="0 0 32 32">
<title>keyboard-dock</title>
<path d="M23.003 16l-14.136 0.009c-0.488 0.066-0.864 0.485-0.864 0.991 0 0.552 0.448 1 1 1l14.136-0.009c0.488-0.066 0.864-0.485 0.864-0.991 0-0.552-0.448-1-1-1z"></path>
<path d="M23.336 12.667c0-0.736-0.597-1.333-1.333-1.333s-1.333 0.597-1.333 1.333c0 0.736 0.597 1.333 1.333 1.333s1.333-0.597 1.333-1.333z"></path>
<path d="M15.343 12.667c0-0.736-0.597-1.333-1.333-1.333s-1.333 0.597-1.333 1.333c0 0.736 0.597 1.333 1.333 1.333s1.333-0.597 1.333-1.333z"></path>
<path d="M11.343 12.667c0-0.736-0.597-1.333-1.333-1.333s-1.333 0.597-1.333 1.333c0 0.736 0.597 1.333 1.333 1.333s1.333-0.597 1.333-1.333z"></path>
<path d="M19.343 12.667c0-0.736-0.597-1.333-1.333-1.333s-1.333 0.597-1.333 1.333c0 0.736 0.597 1.333 1.333 1.333s1.333-0.597 1.333-1.333z"></path>
<path d="M9.336 8.667c0-0.736-0.597-1.333-1.333-1.333s-1.333 0.597-1.333 1.333c0 0.736 0.597 1.333 1.333 1.333s1.333-0.597 1.333-1.333z"></path>
<path d="M13.33 8.667c0-0.736-0.597-1.333-1.333-1.333s-1.333 0.597-1.333 1.333c0 0.736 0.597 1.333 1.333 1.333s1.333-0.597 1.333-1.333z"></path>
<path d="M17.33 8.667c0-0.736-0.597-1.333-1.333-1.333s-1.333 0.597-1.333 1.333 0.597 1.333 1.333 1.333c0.736 0 1.333-0.597 1.333-1.333z"></path>
<path d="M21.33 8.667c0-0.736-0.597-1.333-1.333-1.333s-1.333 0.597-1.333 1.333 0.597 1.333 1.333 1.333c0.736 0 1.333-0.597 1.333-1.333z"></path>
<path d="M25.33 8.667c0-0.736-0.597-1.333-1.333-1.333s-1.333 0.597-1.333 1.333 0.597 1.333 1.333 1.333c0.736 0 1.333-0.597 1.333-1.333z"></path>
<path d="M29.33 6.333c0-1.657-1.343-3-3-3h-20.66c-1.657 0-3 1.343-3 3v12.673c0 1.657 1.343 3 3 3h9.33v1.994h0.003l0 1.919-1.122-1.121-0.112-0.097c-0.391-0.29-0.947-0.258-1.302 0.097-0.391 0.39-0.391 1.024 0 1.414l2.828 2.828 0.112 0.097c0.157 0.116 0.339 0.181 0.525 0.194h0.139l0.138-0.019c0.183-0.039 0.357-0.129 0.499-0.271l2.829-2.828 0.097-0.112c0.29-0.391 0.258-0.947-0.097-1.302l-0.112-0.097c-0.392-0.29-0.947-0.258-1.302 0.097l-1.121 1.121-0-3.913h9.327c1.657 0 3-1.343 3-3v-12.673zM17 20.006v-0.006h-2v0.006h-9.33c-0.552 0-1-0.448-1-1v-12.673c0-0.552 0.448-1 1-1h20.66c0.552 0 1 0.448 1 1v12.673c0 0.552-0.448 1-1 1h-9.33z"></path>
</svg>
