<!-- Generated by IcoMoon.io -->
<svg version="1.1" xmlns="http://www.w3.org/2000/svg" width="32" height="32" viewBox="0 0 32 32">
<title>keyboard-layout-resize</title>
<path d="M17.667 14c1.588 0 2.887 1.234 2.993 2.795l0.007 0.205v9.333c0 1.588-1.234 2.887-2.795 2.993l-0.205 0.007h-12c-1.588 0-2.888-1.234-2.993-2.795l-0.007-0.205v-9.333c0-1.588 1.234-2.887 2.795-2.993l0.205-0.007h12zM28.333 14c0.506 0 0.925 0.376 0.991 0.864l0.009 0.136v11.333c0 1.588-1.234 2.887-2.795 2.993l-0.205 0.007h-2.667c-0.552 0-1-0.448-1-1 0-0.506 0.376-0.925 0.864-0.991l0.136-0.009h2.667c0.506 0 0.925-0.376 0.991-0.864l0.009-0.136v-11.333c0-0.552 0.448-1 1-1zM17.667 16h-12c-0.506 0-0.925 0.376-0.991 0.864l-0.009 0.136v9.333c0 0.506 0.376 0.925 0.864 0.991l0.136 0.009h12c0.506 0 0.925-0.376 0.991-0.864l0.009-0.136v-9.333c0-0.552-0.448-1-1-1zM14.333 23.333c0.552 0 1 0.448 1 1 0 0.506-0.453 1-1 1h-5.333c-0.552 0-1-0.448-1-1 0-0.506 0.453-1 1-1h5.333zM8 18c0.736 0 1.333 0.597 1.333 1.333s-0.597 1.333-1.333 1.333c-0.736 0-1.333-0.597-1.333-1.333s0.597-1.333 1.333-1.333zM15.333 18c0.736 0 1.333 0.597 1.333 1.333s-0.597 1.333-1.333 1.333c-0.736 0-1.333-0.597-1.333-1.333s0.597-1.333 1.333-1.333zM11.667 18c0.736 0 1.333 0.597 1.333 1.333s-0.597 1.333-1.333 1.333c-0.736 0-1.333-0.597-1.333-1.333s0.597-1.333 1.333-1.333zM28.333 2.667c0.062 0 0.124 0.006 0.183 0.017 0.014 0.003 0.030 0.006 0.046 0.010 0.031 0.007 0.061 0.016 0.091 0.026 0.013 0.004 0.027 0.009 0.041 0.015 0.026 0.010 0.050 0.021 0.074 0.032l0.058 0.030c0.023 0.013 0.046 0.027 0.068 0.043 0.014 0.009 0.028 0.019 0.041 0.030l0.105 0.092 0.002 0.002 0.068 0.075 0.013 0.018 0.047 0.064c0.018 0.027 0.034 0.055 0.049 0.084 0.007 0.012 0.012 0.024 0.018 0.036 0.015 0.032 0.029 0.067 0.042 0.102 0.004 0.013 0.008 0.024 0.012 0.036 0.015 0.049 0.027 0.102 0.034 0.155l0.009 0.136v6.667c0 0.552-0.448 1-1 1-0.506 0-0.925-0.376-0.991-0.864l-0.009-0.136v-4.253l-5.96 5.96c-0.391 0.391-1.024 0.391-1.414 0-0.355-0.355-0.387-0.911-0.097-1.302l0.097-0.112 5.958-5.96h-4.251c-0.506 0-0.925-0.376-0.991-0.864l-0.009-0.136c0-0.506 0.376-0.925 0.864-0.991l0.136-0.009h6.667zM17 2.667c0.552 0 1 0.448 1 1 0 0.506-0.376 0.925-0.864 0.991l-0.136 0.009h-11.333c-0.506 0-0.925 0.376-0.991 0.864l-0.009 0.136v5.333c0 0.552-0.448 1-1 1-0.506 0-0.925-0.376-0.991-0.864l-0.009-0.136v-5.333c0-1.588 1.234-2.888 2.795-2.993l0.205-0.007h11.333z"></path>
</svg>
