<!-- Generated by IcoMoon.io -->
<svg version="1.1" xmlns="http://www.w3.org/2000/svg" width="32" height="32" viewBox="0 0 32 32">
<title>keyboard</title>
<path d="M26.327 6.667c1.657 0 3 1.343 3 3v12.673c0 1.657-1.343 3-3 3h-20.661c-1.657 0-3-1.343-3-3v-12.673c0-1.657 1.343-3 3-3h20.661zM26.327 8.667h-20.661c-0.552 0-1 0.448-1 1v12.673c0 0.552 0.448 1 1 1h20.661c0.552 0 1-0.448 1-1v-12.673c0-0.552-0.448-1-1-1zM9 19.333h14c0.552 0 1 0.448 1 1 0 0.506-0.376 0.925-0.864 0.991l-0.136 0.009h-14c-0.552 0-1-0.448-1-1 0-0.506 0.376-0.925 0.864-0.991l0.136-0.009zM22 14.667c0.736 0 1.333 0.597 1.333 1.333s-0.597 1.333-1.333 1.333c-0.736 0-1.333-0.597-1.333-1.333s0.597-1.333 1.333-1.333zM14.007 14.667c0.736 0 1.333 0.597 1.333 1.333s-0.597 1.333-1.333 1.333c-0.736 0-1.333-0.597-1.333-1.333s0.597-1.333 1.333-1.333zM10.007 14.667c0.736 0 1.333 0.597 1.333 1.333s-0.597 1.333-1.333 1.333c-0.736 0-1.333-0.597-1.333-1.333s0.597-1.333 1.333-1.333zM18.007 14.667c0.736 0 1.333 0.597 1.333 1.333s-0.597 1.333-1.333 1.333c-0.736 0-1.333-0.597-1.333-1.333s0.597-1.333 1.333-1.333zM8 10.667c0.736 0 1.333 0.597 1.333 1.333s-0.597 1.333-1.333 1.333c-0.736 0-1.333-0.597-1.333-1.333s0.597-1.333 1.333-1.333zM11.993 10.667c0.736 0 1.333 0.597 1.333 1.333s-0.597 1.333-1.333 1.333c-0.736 0-1.333-0.597-1.333-1.333s0.597-1.333 1.333-1.333zM15.993 10.667c0.736 0 1.333 0.597 1.333 1.333s-0.597 1.333-1.333 1.333c-0.736 0-1.333-0.597-1.333-1.333s0.597-1.333 1.333-1.333zM19.993 10.667c0.736 0 1.333 0.597 1.333 1.333s-0.597 1.333-1.333 1.333c-0.736 0-1.333-0.597-1.333-1.333s0.597-1.333 1.333-1.333zM23.993 10.667c0.736 0 1.333 0.597 1.333 1.333s-0.597 1.333-1.333 1.333c-0.736 0-1.333-0.597-1.333-1.333s0.597-1.333 1.333-1.333z"></path>
</svg>
