<!-- Generated by IcoMoon.io -->
<svg version="1.1" xmlns="http://www.w3.org/2000/svg" width="32" height="32" viewBox="0 0 32 32">
<title>laptop-dismiss</title>
<path d="M17.565 9.6h6.435c0.884 0 1.6 0.716 1.6 1.6v0 8c0 0.884-0.716 1.6-1.6 1.6v0h-16c-0.884 0-1.6-0.716-1.6-1.6v0-1.931c-0.615-0.176-1.146-0.39-1.648-0.652l0.048 0.023v2.56c0 1.767 1.433 3.2 3.2 3.2v0h16c1.767 0 3.2-1.433 3.2-3.2v0-8c0-1.767-1.433-3.2-3.2-3.2v0h-6.435c0.023 0.24 0.036 0.518 0.036 0.8s-0.013 0.56-0.039 0.835l0.003-0.035zM4 24c-0.442 0-0.8 0.358-0.8 0.8s0.358 0.8 0.8 0.8v0h24c0.442 0 0.8-0.358 0.8-0.8s-0.358-0.8-0.8-0.8v0h-24zM8.8 16c3.976 0 7.2-3.224 7.2-7.2s-3.224-7.2-7.2-7.2v0c-3.976 0-7.2 3.224-7.2 7.2s3.224 7.2 7.2 7.2v0zM11.766 5.834c0.145 0.145 0.235 0.345 0.235 0.566s-0.090 0.422-0.235 0.566l-1.835 1.834 1.835 1.834c0.145 0.145 0.235 0.345 0.235 0.566 0 0.442-0.359 0.801-0.801 0.801-0.221 0-0.421-0.090-0.566-0.235v0l-1.834-1.835-1.834 1.835c-0.145 0.145-0.345 0.235-0.566 0.235-0.442 0-0.801-0.359-0.801-0.801 0-0.221 0.090-0.421 0.235-0.566v0l1.835-1.834-1.835-1.834c-0.145-0.145-0.235-0.345-0.235-0.566 0-0.442 0.359-0.801 0.801-0.801 0.221 0 0.421 0.090 0.566 0.235v0l1.834 1.835 1.834-1.835c0.145-0.145 0.345-0.235 0.566-0.235s0.422 0.090 0.566 0.235l0 0z"></path>
</svg>
