<!-- Generated by IcoMoon.io -->
<svg version="1.1" xmlns="http://www.w3.org/2000/svg" width="32" height="32" viewBox="0 0 32 32">
<title>laptop-regular</title>
<path d="M7.143 6.857c-1.42 0-2.571 1.151-2.571 2.571v0 10.286c0 1.42 1.151 2.571 2.571 2.571v0h17.714c1.42 0 2.571-1.151 2.571-2.571v0-10.286c0-1.42-1.151-2.571-2.571-2.571v0h-17.714zM6.286 9.429c0-0.473 0.384-0.857 0.857-0.857v0h17.714c0.473 0 0.857 0.384 0.857 0.857v0 10.286c0 0.473-0.384 0.857-0.857 0.857v0h-17.714c-0.473 0-0.857-0.384-0.857-0.857v0-10.286zM3.143 23.429c-0.473 0-0.857 0.384-0.857 0.857s0.384 0.857 0.857 0.857v0h25.714c0.473 0 0.857-0.384 0.857-0.857s-0.384-0.857-0.857-0.857v0h-25.714z"></path>
</svg>
