<!-- Generated by IcoMoon.io -->
<svg version="1.1" xmlns="http://www.w3.org/2000/svg" width="32" height="32" viewBox="0 0 32 32">
<title>laptop</title>
<path d="M3.667 21.999h24.665c0.552 0 1 0.448 1 1 0 0.506-0.376 0.925-0.864 0.991l-0.136 0.009h-24.665c-0.552 0-1-0.448-1-1 0-0.506 0.376-0.925 0.864-0.991l0.136-0.009zM24.333 6.667c1.289 0 2.333 1.045 2.333 2.333v10c0 1.289-1.045 2.333-2.333 2.333h-16.667c-1.289 0-2.333-1.045-2.333-2.333v-10c0-1.289 1.045-2.333 2.333-2.333h16.667zM24.333 8.667h-16.667c-0.184 0-0.333 0.149-0.333 0.333v10c0 0.184 0.149 0.333 0.333 0.333h16.667c0.184 0 0.333-0.149 0.333-0.333v-10c0-0.184-0.149-0.333-0.333-0.333z"></path>
</svg>
