<!-- Generated by IcoMoon.io -->
<svg version="1.1" xmlns="http://www.w3.org/2000/svg" width="32" height="32" viewBox="0 0 32 32">
<title>laser-tool</title>
<path d="M6.4 4c0-0.442-0.358-0.8-0.8-0.8s-0.8 0.358-0.8 0.8v0 4c0 1.178 0.637 2.208 1.585 2.763l0.015 0.008v1.229c0 1.325 1.075 2.4 2.4 2.4v0h6.4v5.6c0 0.442 0.358 0.8 0.8 0.8s0.8-0.358 0.8-0.8v0-5.6h6.4c1.325 0 2.4-1.075 2.4-2.4v0-1.229c0.963-0.564 1.6-1.593 1.6-2.771v0-4c0-0.442-0.358-0.8-0.8-0.8s-0.8 0.358-0.8 0.8v0 4c0 0.884-0.716 1.6-1.6 1.6v0h-16c-0.884 0-1.6-0.716-1.6-1.6v0-4zM8 11.2h16v0.8c0 0.442-0.358 0.8-0.8 0.8v0h-14.4c-0.442 0-0.8-0.358-0.8-0.8v0-0.8zM8.8 22.4c-0.442 0-0.8 0.358-0.8 0.8s0.358 0.8 0.8 0.8v0h2.4c0.442 0 0.8-0.358 0.8-0.8s-0.358-0.8-0.8-0.8v0h-2.4zM20 23.2c0-0.442 0.358-0.8 0.8-0.8v0h2.4c0.442 0 0.8 0.358 0.8 0.8s-0.358 0.8-0.8 0.8v0h-2.4c-0.442 0-0.8-0.358-0.8-0.8v0zM16 24c0.442 0 0.8-0.358 0.8-0.8s-0.358-0.8-0.8-0.8v0c-0.442 0-0.8 0.358-0.8 0.8s0.358 0.8 0.8 0.8v0zM16 25.6c0.442 0 0.8 0.358 0.8 0.8v0 3.2c0 0.442-0.358 0.8-0.8 0.8s-0.8-0.358-0.8-0.8v0-3.2c0-0.442 0.358-0.8 0.8-0.8v0zM14.166 25.366c0.145-0.145 0.235-0.345 0.235-0.566 0-0.442-0.359-0.801-0.801-0.801-0.221 0-0.421 0.090-0.566 0.235v0l-2.4 2.4c-0.145 0.145-0.235 0.345-0.235 0.566 0 0.442 0.359 0.801 0.801 0.801 0.221 0 0.421-0.090 0.566-0.235l2.4-2.4zM17.834 24.234c-0.145 0.145-0.235 0.345-0.235 0.566s0.090 0.422 0.235 0.566l2.4 2.4c0.145 0.145 0.345 0.235 0.566 0.235 0.442 0 0.801-0.359 0.801-0.801 0-0.221-0.090-0.421-0.235-0.566l-2.4-2.4c-0.145-0.145-0.345-0.235-0.566-0.235s-0.422 0.090-0.566 0.235l-0 0z"></path>
</svg>
