<!-- Generated by IcoMoon.io -->
<svg version="1.1" xmlns="http://www.w3.org/2000/svg" width="32" height="32" viewBox="0 0 32 32">
<title>launcher-settings</title>
<path d="M16.016 3c0.979 0.011 1.953 0.124 2.909 0.337 0.417 0.093 0.729 0.441 0.776 0.865l0.227 2.036c0.103 0.935 0.892 1.643 1.833 1.644 0.253 0 0.503-0.052 0.737-0.156l1.868-0.82c0.388-0.171 0.842-0.078 1.132 0.232 1.35 1.441 2.355 3.17 2.94 5.056 0.126 0.407-0.019 0.849-0.362 1.101l-1.655 1.22c-0.472 0.347-0.751 0.898-0.751 1.484s0.279 1.137 0.752 1.485l1.657 1.221c0.343 0.253 0.488 0.695 0.362 1.101-0.585 1.886-1.589 3.614-2.938 5.056-0.29 0.31-0.743 0.403-1.132 0.233l-1.875-0.821c-0.536-0.235-1.153-0.2-1.659 0.093s-0.844 0.81-0.909 1.392l-0.225 2.036c-0.046 0.42-0.352 0.765-0.762 0.863-1.931 0.459-3.943 0.459-5.875 0-0.411-0.098-0.716-0.443-0.762-0.863l-0.225-2.033c-0.066-0.581-0.404-1.096-0.911-1.388s-1.122-0.326-1.656-0.093l-1.875 0.822c-0.388 0.17-0.842 0.077-1.132-0.233-1.35-1.443-2.354-3.174-2.938-5.061-0.126-0.407 0.020-0.848 0.362-1.101l1.658-1.221c0.472-0.347 0.751-0.898 0.751-1.484s-0.279-1.137-0.752-1.484l-1.657-1.219c-0.343-0.253-0.489-0.695-0.362-1.102 0.585-1.886 1.59-3.615 2.94-5.056 0.29-0.31 0.744-0.403 1.132-0.232l1.867 0.82c0.537 0.236 1.155 0.2 1.664-0.097 0.507-0.294 0.845-0.811 0.91-1.393l0.227-2.034c0.047-0.425 0.36-0.773 0.777-0.865 0.956-0.213 1.932-0.326 2.935-0.337zM16.016 5c-0.605 0.007-1.209 0.059-1.806 0.156l-0.145 1.303c-0.136 1.213-0.838 2.289-1.891 2.9-1.059 0.619-2.351 0.693-3.474 0.2l-1.198-0.526c-0.763 0.926-1.37 1.969-1.797 3.090l1.064 0.783c0.985 0.724 1.567 1.873 1.567 3.096s-0.582 2.372-1.566 3.095l-1.065 0.785c0.427 1.122 1.034 2.168 1.797 3.095l1.207-0.529c1.117-0.488 2.4-0.417 3.457 0.192s1.761 1.683 1.899 2.898l0.145 1.312c1.186 0.202 2.398 0.202 3.584 0l0.145-1.312c0.134-1.214 0.838-2.292 1.896-2.903s2.343-0.683 3.462-0.193l1.206 0.528c0.762-0.926 1.369-1.97 1.797-3.090l-1.064-0.784c-0.985-0.724-1.567-1.873-1.567-3.095s0.582-2.372 1.566-3.095l1.062-0.783c-0.427-1.121-1.035-2.164-1.797-3.090l-1.195 0.525c-0.487 0.216-1.014 0.326-1.546 0.326-1.96-0.002-3.604-1.477-3.818-3.424l-0.145-1.303c-0.594-0.097-1.191-0.149-1.778-0.156zM18.1 10.667c0.093 0 0.181 0.032 0.252 0.089l0.064 0.065 3.704 4.77c0.16 0.206 0.183 0.483 0.069 0.709l-0.069 0.108-3.704 4.77c-0.057 0.073-0.137 0.124-0.225 0.144l-0.091 0.011h-3.606c-0.090 0-0.177-0.030-0.248-0.086-0.149-0.117-0.192-0.319-0.115-0.483l0.049-0.079 3.697-4.685-4.141-5.333h4.363zM12.901 11.739l2.253 2.935-1.042 1.327 0.852 1.085c0.114 0.146 0.114 0.351-0.002 0.496l-1.782 2.24c-0.138 0.173-0.389 0.201-0.562 0.064l-0.066-0.066-2.669-3.407c-0.189-0.241-0.189-0.581 0-0.822l3.017-3.85z"></path>
</svg>
