<!-- Generated by IcoMoon.io -->
<svg version="1.1" xmlns="http://www.w3.org/2000/svg" width="32" height="32" viewBox="0 0 32 32">
<title>layer-regular</title>
<path d="M26.701 16.256c-0.202 0.32-0.459 0.586-0.76 0.791l-0.009 0.006-8.067 5.445c-0.523 0.357-1.169 0.571-1.865 0.571s-1.342-0.213-1.877-0.578l0.011 0.007-8.067-5.445c-0.713-0.486-1.175-1.294-1.175-2.211 0-0.301 0.050-0.591 0.142-0.861l-0.006 0.019 9.121 6.080c0.519 0.351 1.16 0.559 1.848 0.559 0.601 0 1.165-0.159 1.652-0.437l-0.016 0.009 0.213-0.131 9.121-6.080c0.087 0.252 0.137 0.542 0.137 0.844 0 0.523-0.151 1.011-0.412 1.423l0.006-0.011zM26.969 18.333c0.087 0.252 0.138 0.543 0.138 0.846 0 0.915-0.462 1.723-1.166 2.202l-0.009 0.006-8.067 5.445c-0.523 0.357-1.169 0.571-1.865 0.571s-1.342-0.213-1.877-0.578l0.011 0.007-8.067-5.445c-0.713-0.486-1.175-1.294-1.175-2.211 0-0.301 0.050-0.591 0.142-0.861l-0.006 0.019 9.121 6.080c0.519 0.351 1.16 0.559 1.848 0.559 0.601 0 1.165-0.159 1.652-0.437l-0.016 0.009 0.213-0.131 9.121-6.080zM17.849 4.567l8.487 5.657c0.36 0.243 0.594 0.649 0.594 1.109s-0.234 0.867-0.589 1.106l-0.005 0.003-8.487 5.659c-0.52 0.351-1.16 0.56-1.849 0.56s-1.33-0.209-1.861-0.568l0.012 0.008-8.487-5.659c-0.36-0.243-0.594-0.649-0.594-1.109s0.234-0.867 0.589-1.106l0.005-0.003 8.487-5.657c0.52-0.351 1.16-0.56 1.849-0.56s1.33 0.209 1.861 0.568l-0.012-0.008zM15.413 6.141l-0.155 0.089-7.652 5.103 7.653 5.104c0.208 0.14 0.464 0.224 0.739 0.224 0.213 0 0.415-0.050 0.594-0.139l-0.008 0.003 0.155-0.088 7.652-5.104-7.653-5.103c-0.208-0.14-0.464-0.224-0.74-0.224-0.213 0-0.414 0.050-0.592 0.138l0.008-0.003z"></path>
</svg>
