<!-- Generated by IcoMoon.io -->
<svg version="1.1" xmlns="http://www.w3.org/2000/svg" width="32" height="32" viewBox="0 0 32 32">
<title>layer</title>
<path d="M26.701 16.256c-0.198 0.317-0.46 0.588-0.769 0.797l-8.067 5.445c-1.127 0.761-2.603 0.761-3.73 0l-8.066-5.445c-1.015-0.685-1.408-1.946-1.039-3.053l9.121 6.079c1.050 0.7 2.397 0.744 3.484 0.131l0.214-0.131 9.121-6.080c0.242 0.728 0.17 1.555-0.269 2.257zM26.969 18.333c0.242 0.728 0.17 1.555-0.269 2.257-0.198 0.317-0.46 0.588-0.769 0.797l-8.067 5.445c-1.127 0.761-2.603 0.761-3.73 0l-8.066-5.445c-1.015-0.685-1.408-1.946-1.039-3.053l9.121 6.079c1.050 0.7 2.397 0.744 3.484 0.131l0.214-0.131 9.121-6.080zM17.849 4.566l8.487 5.658c0.613 0.408 0.778 1.236 0.37 1.849-0.098 0.146-0.223 0.272-0.37 0.37l-8.487 5.658c-1.12 0.746-2.578 0.746-3.698 0l-8.487-5.658c-0.613-0.408-0.778-1.236-0.37-1.849 0.098-0.146 0.223-0.272 0.37-0.37l8.487-5.658c1.12-0.746 2.578-0.746 3.698 0zM15.414 6.142l-0.154 0.088-7.654 5.103 7.654 5.103c0.398 0.265 0.903 0.295 1.325 0.088l0.154-0.088 7.652-5.103-7.652-5.103c-0.398-0.265-0.903-0.295-1.325-0.088z"></path>
</svg>
