<!-- Generated by IcoMoon.io -->
<svg version="1.1" xmlns="http://www.w3.org/2000/svg" width="32" height="32" viewBox="0 0 32 32">
<title>layer-diagonal-person</title>
<path d="M15.704 4.858c0.087-0.036 0.188-0.056 0.294-0.056 0.442 0 0.8 0.358 0.8 0.8 0 0 0 0 0 0v0 0.482l1.597-0.63c-0.080-1.26-1.122-2.252-2.395-2.252-0.319 0-0.623 0.062-0.901 0.175l0.016-0.006-9.389 3.718c-1.492 0.603-2.526 2.040-2.526 3.719 0 0 0 0.001 0 0.001v-0 9.187c0 0 0 0.001 0 0.001 0 1.325 1.075 2.4 2.4 2.4 0.287 0 0.562-0.050 0.817-0.143l-0.017 0.005v-1.72l-0.506 0.2c-0.087 0.036-0.188 0.056-0.294 0.056-0.442 0-0.8-0.358-0.8-0.8 0-0 0-0 0-0v0-9.187c0-0 0-0 0-0 0-1.007 0.621-1.87 1.501-2.226l0.016-0.006 9.387-3.718zM20.504 8.058c0.087-0.036 0.188-0.056 0.294-0.056 0.442 0 0.8 0.358 0.8 0.8 0 0 0 0 0 0v0 0.798l1.6-0.634v-0.166c-0.001-1.325-1.075-2.399-2.4-2.399-0.318 0-0.622 0.062-0.899 0.174l0.016-0.006-9.893 3.92c-1.195 0.482-2.022 1.632-2.022 2.975 0 0 0 0 0 0.001v-0 9.731c0 1.325 1.075 2.399 2.4 2.399 0.319 0 0.623-0.062 0.901-0.175l-0.016 0.006 1.515-0.6v-1.723l-2.106 0.835c-0.087 0.036-0.188 0.056-0.294 0.056-0.441 0-0.799-0.357-0.8-0.798v-9.733c0-0 0-0 0-0 0-0.672 0.414-1.247 1-1.484l0.011-0.004 9.893-3.917zM27.2 12c-0.001-0.441-0.359-0.799-0.8-0.799-0.106 0-0.207 0.021-0.3 0.058l0.005-0.002-9.6 3.802c-0.299 0.121-0.506 0.408-0.506 0.744 0 0 0 0 0 0v0 10.597c0 0 0 0 0 0 0 0.442 0.358 0.8 0.8 0.8 0.106 0 0.207-0.021 0.3-0.058l-0.005 0.002 0.533-0.211c0.054 0.531 0.189 1.056 0.411 1.558l-0.355 0.141c-0.262 0.107-0.565 0.168-0.883 0.168-1.325 0-2.4-1.075-2.4-2.4 0-0 0-0 0-0v0-10.597c0-0 0-0 0-0 0-1.007 0.621-1.87 1.501-2.226l0.016-0.006 9.6-3.802c0.262-0.107 0.565-0.168 0.883-0.168 1.325 0 2.399 1.074 2.4 2.399v4.546c-0.415-0.619-0.951-1.124-1.577-1.492l-0.023-0.012v-3.040zM28 19.2c0 1.767-1.433 3.2-3.2 3.2s-3.2-1.433-3.2-3.2v0c0-1.767 1.433-3.2 3.2-3.2s3.2 1.433 3.2 3.2v0zM30.4 26.4c0 1.992-1.6 4-5.6 4s-5.6-2-5.6-4c0-1.325 1.075-2.4 2.4-2.4v0h6.4c1.325 0 2.4 1.075 2.4 2.4v0z"></path>
</svg>
