<!-- Generated by IcoMoon.io -->
<svg version="1.1" xmlns="http://www.w3.org/2000/svg" width="32" height="32" viewBox="0 0 32 32">
<title>leaf-two</title>
<path d="M2.67 6.273v5.727c0 4.418 3.582 8 8 8 0.131 0 0.261-0.003 0.39-0.009 0.35 1.178 0.927 2.259 1.679 3.192l-3.107 3.105c-0.391 0.39-0.391 1.024-0 1.414s1.024 0.391 1.414 0l3.107-3.106c1.601 1.291 3.637 2.063 5.853 2.063 5.154 0 9.332-4.178 9.332-9.332v-6.998c0-1.289-1.045-2.333-2.333-2.333h-6.998c-0.778 0-1.534 0.095-2.256 0.275-1.341-2.54-4.008-4.271-7.080-4.271h-5.727c-1.255 0-2.273 1.018-2.273 2.273zM15.578 23.172l5.462-5.459c0.391-0.39 0.391-1.024 0-1.414s-1.023-0.391-1.414-0l-5.463 5.46c-0.935-1.231-1.489-2.766-1.489-4.43 0-4.049 3.282-7.332 7.332-7.332h6.998c0.184 0 0.333 0.149 0.333 0.333v6.998c0 4.049-3.283 7.332-7.332 7.332-1.664 0-3.198-0.554-4.428-1.488zM10.67 6c2.209 0 4.139 1.194 5.18 2.971-1.465 0.73-2.711 1.833-3.613 3.186l-2.53-2.53c-0.391-0.391-1.024-0.391-1.414 0s-0.391 1.024 0 1.414l2.983 2.983c-0.389 1.027-0.602 2.141-0.602 3.304 0 0.226 0.008 0.45 0.024 0.672h-0.028c-3.314 0-6-2.686-6-6v-5.727c0-0.151 0.122-0.273 0.273-0.273h5.727z"></path>
</svg>
