<!-- Generated by IcoMoon.io -->
<svg version="1.1" xmlns="http://www.w3.org/2000/svg" width="32" height="32" viewBox="0 0 32 32">
<title>leaf-two-regular</title>
<path d="M11 4c3.355 0 6.247 1.983 7.568 4.84 0.571-0.113 1.161-0.173 1.765-0.173h6.167c1.565 0 2.833 1.269 2.833 2.833v0 6.167c0 4.971-4.029 9-9 9-0.004 0-0.009 0-0.014 0-2.187 0-4.191-0.783-5.747-2.085l0.014 0.012-3.163 3.163c-0.151 0.151-0.359 0.244-0.589 0.244-0.46 0-0.833-0.373-0.833-0.833 0-0.23 0.093-0.439 0.244-0.589v0l3.163-3.163c-0.662-0.791-1.197-1.717-1.556-2.725l-0.020-0.063c-0.273 0.027-0.551 0.041-0.831 0.041-4.603 0-8.333-3.731-8.333-8.333v-5.5c0-1.565 1.269-2.833 2.833-2.833v0h5.5zM15.771 23.408c1.236 0.992 2.824 1.592 4.551 1.592 0.004 0 0.008 0 0.012 0h-0.001c4.050 0 7.333-3.283 7.333-7.333v-6.167c0-0.644-0.522-1.167-1.167-1.167v0h-6.167c-4.050 0-7.333 3.283-7.333 7.333 0 1.725 0.595 3.311 1.592 4.563l5.988-5.988c0.151-0.151 0.359-0.244 0.589-0.244 0.46 0 0.833 0.373 0.833 0.833 0 0.23-0.093 0.439-0.244 0.589v0l-5.988 5.988zM11 19c0.144 0 0.287-0.005 0.429-0.013-0.061-0.396-0.096-0.852-0.096-1.317 0-0.001 0-0.002 0-0.003v0c0-1.137 0.211-2.226 0.596-3.228l-4.352-4.352c-0.151-0.151-0.244-0.359-0.244-0.589 0-0.46 0.373-0.833 0.833-0.833 0.23 0 0.438 0.093 0.589 0.244v0l3.961 3.961c1.011-1.584 2.459-2.81 4.174-3.523l0.060-0.022c-1.124-2.187-3.365-3.657-5.949-3.657-0.001 0-0.001 0-0.002 0h-5.5c-0.644 0-1.167 0.522-1.167 1.167v0 5.5c0 3.682 2.985 6.667 6.667 6.667z"></path>
</svg>
