<!-- Generated by IcoMoon.io -->
<svg version="1.1" xmlns="http://www.w3.org/2000/svg" width="32" height="32" viewBox="0 0 32 32">
<title>leaf-one</title>
<path d="M17.95 3.807c-0.499-0.499-1.189-0.808-1.95-0.808s-1.451 0.309-1.95 0.808l-5.121 5.121c-3.905 3.906-3.905 10.237 0 14.142 1.577 1.582 3.682 2.636 6.029 2.877l0.042 0.003v3.050c0 0.552 0.448 1 1 1s1-0.448 1-1v0-3.050c2.389-0.244 4.494-1.298 6.071-2.88l0-0c3.905-3.905 3.905-10.236 0-14.142l-5.121-5.12zM17 23.937v-8.937c0-0.552-0.448-1-1-1s-1 0.448-1 1v0 8.937c-3.967-0.514-7.001-3.871-7.001-7.937 0-2.21 0.896-4.21 2.344-5.658l5.121-5.12c0.137-0.137 0.327-0.222 0.536-0.222s0.399 0.085 0.536 0.222l5.12 5.12c1.449 1.448 2.345 3.449 2.345 5.659 0 4.066-3.033 7.424-6.961 7.933l-0.040 0.004z"></path>
</svg>
