<!-- Generated by IcoMoon.io -->
<svg version="1.1" xmlns="http://www.w3.org/2000/svg" width="32" height="32" viewBox="0 0 32 32">
<title>leaf-three</title>
<path d="M25.333 10c0 0.693-0.096 1.364-0.276 2h2.161c1.168 0 2.115 0.947 2.115 2.115v6.551c0 4.787-3.88 8.667-8.667 8.667-2.033 0-3.902-0.7-5.38-1.872l-1.579 1.579c-0.39 0.391-1.024 0.391-1.414 0s-0.391-1.024 0-1.414l1.579-1.579c-0.526-0.664-0.957-1.406-1.273-2.207-0.517 0.105-1.052 0.16-1.599 0.16-4.418 0-8-3.582-8-8v-5.982c0-1.115 0.904-2.018 2.018-2.018h5.924c0.871-3.078 3.701-5.333 7.057-5.333h5.412c1.061 0 1.921 0.86 1.921 1.921v5.412zM12.963 8.243c2.259 0.57 4.137 2.101 5.171 4.133 0.801-0.244 1.652-0.376 2.533-0.376h2.279c0.25-0.618 0.388-1.293 0.388-2v-5.333h-5.333c-2.33 0-4.311 1.494-5.037 3.576zM16.713 26.035c1.106 0.816 2.474 1.299 3.954 1.299 3.682 0 6.667-2.985 6.667-6.667v-6.551c0-0.064-0.052-0.115-0.115-0.115h-6.551c-3.682 0-6.667 2.985-6.667 6.667 0 1.48 0.482 2.848 1.299 3.954l5.661-5.661c0.391-0.391 1.024-0.391 1.414 0s0.391 1.024 0 1.414l-5.661 5.661zM12 20.667c0-0.79 0.106-1.555 0.304-2.282l-3.678-3.678c-0.391-0.391-0.391-1.024 0-1.414s1.024-0.391 1.414 0l3.090 3.090c0.755-1.326 1.85-2.433 3.167-3.203-1.009-1.892-3.003-3.18-5.297-3.18h-5.982c-0.004 0-0.007 0.001-0.007 0.001s-0.004 0.002-0.006 0.004c-0.002 0.002-0.004 0.006-0.004 0.006s-0.001 0.002-0.001 0.007v5.982c0 3.314 2.686 6 6 6 0.371 0 0.735-0.034 1.087-0.098-0.058-0.403-0.087-0.816-0.087-1.235z"></path>
</svg>
