<!-- Generated by IcoMoon.io -->
<svg version="1.1" xmlns="http://www.w3.org/2000/svg" width="32" height="32" viewBox="0 0 32 32">
<title>learning-app</title>
<path d="M7.333 2.667c-1.841 0-3.333 1.492-3.333 3.333v0 20c0 1.841 1.492 3.333 3.333 3.333v0h9.747c-0.555-0.578-1.034-1.235-1.415-1.953l-0.023-0.047h-8.309c-0.736 0-1.333-0.597-1.333-1.333v0h9.084c-0.196-0.586-0.335-1.266-0.39-1.97l-0.002-0.030h-8.692v-18c0-0.736 0.597-1.333 1.333-1.333v0h15.333c0.736 0 1.333 0.597 1.333 1.333v0 8.692c0.693 0.053 1.363 0.187 2 0.392v-9.084c0-1.841-1.492-3.333-3.333-3.333v0h-15.333zM30.667 23.333c0-4.050-3.283-7.333-7.333-7.333s-7.333 3.283-7.333 7.333v0c0 4.050 3.283 7.333 7.333 7.333s7.333-3.283 7.333-7.333v0zM22.552 20.129l3.741 2.453c0.226 0.147 0.373 0.398 0.373 0.683 0 0.003-0 0.007-0 0.011v-0.001c0 0 0 0.001 0 0.001 0 0.145-0.035 0.282-0.098 0.403l0.002-0.005c-0.061 0.124-0.151 0.226-0.261 0.3l-0.003 0.002-3.743 2.553c-0.061 0.041-0.13 0.076-0.205 0.101l-0.006 0.002c-0.067 0.022-0.144 0.035-0.223 0.035-0.11 0-0.214-0.024-0.308-0.067l0.005 0.002c-0.099-0.047-0.184-0.108-0.257-0.18l0 0c-0.070-0.076-0.128-0.164-0.171-0.261l-0.002-0.006c-0.040-0.093-0.063-0.201-0.063-0.314 0-0.001 0-0.002 0-0.002v0-5.011c0-0.001 0-0.002 0-0.004 0-0.335 0.198-0.623 0.484-0.754l0.005-0.002c0.091-0.044 0.199-0.070 0.312-0.070 0.156 0 0.3 0.048 0.419 0.131l-0.002-0.002zM8 8c0-0.736 0.597-1.333 1.333-1.333v0h10.667c0.736 0 1.333 0.597 1.333 1.333v0 2.667c0 0.736-0.597 1.333-1.333 1.333v0h-10.667c-0.736 0-1.333-0.597-1.333-1.333v0-2.667zM10 10h9.333v-1.333h-9.333v1.333z"></path>
</svg>
