<!-- Generated by IcoMoon.io -->
<svg version="1.1" xmlns="http://www.w3.org/2000/svg" width="32" height="32" viewBox="0 0 32 32">
<title>library</title>
<path d="M5.333 4h1.333c1.405 0 2.557 1.089 2.659 2.468l0.007 0.199v18.667c0 1.405-1.089 2.557-2.468 2.659l-0.199 0.007h-1.333c-1.405 0-2.558-1.089-2.659-2.468l-0.007-0.199v-18.667c0-1.405 1.089-2.558 2.468-2.659l0.199-0.007zM13.333 4h1.333c1.405 0 2.557 1.089 2.659 2.468l0.007 0.199v18.667c0 1.405-1.089 2.557-2.468 2.659l-0.199 0.007h-1.333c-1.405 0-2.558-1.089-2.659-2.468l-0.007-0.199v-18.667c0-1.405 1.089-2.558 2.468-2.659l0.199-0.007zM22.632 6.667c1.119 0 2.144 0.707 2.52 1.794l0.063 0.208 4.020 15.661c0.35 1.361-0.418 2.748-1.729 3.189l-0.191 0.056-1.292 0.332c-0.221 0.056-0.445 0.084-0.664 0.084-1.118 0-2.144-0.709-2.519-1.796l-0.063-0.208-4.021-15.66c-0.349-1.362 0.418-2.748 1.73-3.189l0.191-0.056 1.291-0.332c0.221-0.057 0.445-0.084 0.664-0.084zM6.667 6h-1.333c-0.327 0-0.599 0.237-0.656 0.547l-0.011 0.119v18.667c0 0.326 0.236 0.599 0.547 0.656l0.12 0.011h1.333c0.327 0 0.599-0.237 0.656-0.547l0.011-0.119v-18.667c0-0.326-0.236-0.599-0.547-0.656l-0.12-0.011zM14.667 6h-1.333c-0.327 0-0.599 0.237-0.656 0.547l-0.011 0.119v18.667c0 0.326 0.236 0.599 0.547 0.656l0.12 0.011h1.333c0.327 0 0.599-0.237 0.656-0.547l0.011-0.119v-18.667c0-0.326-0.236-0.599-0.547-0.656l-0.12-0.011zM22.634 8.667l-0.085 0.005-0.083 0.016-1.291 0.331c-0.233 0.060-0.356 0.217-0.409 0.308-0.042 0.070-0.101 0.202-0.093 0.372l0.021 0.134 4.021 15.659c0.088 0.344 0.396 0.501 0.644 0.501l0.083-0.005 0.083-0.016 1.292-0.332c0.318-0.081 0.523-0.378 0.499-0.692l-0.019-0.118-4.020-15.661c-0.089-0.343-0.396-0.5-0.644-0.5z"></path>
</svg>
