<!-- Generated by IcoMoon.io -->
<svg version="1.1" xmlns="http://www.w3.org/2000/svg" width="32" height="32" viewBox="0 0 32 32">
<title>lightbulb-circle</title>
<path d="M16 2.667c7.364 0 13.333 5.97 13.333 13.333s-5.97 13.333-13.333 13.333c-7.364 0-13.333-5.97-13.333-13.333s5.97-13.333 13.333-13.333zM16 4.667c-6.259 0-11.333 5.074-11.333 11.333s5.074 11.333 11.333 11.333c6.259 0 11.333-5.074 11.333-11.333s-5.074-11.333-11.333-11.333zM16 6.936c3.682 0 6.667 2.985 6.667 6.667 0 2.049-0.931 3.946-2.52 5.22l0.043-0.037-1.019 4.49c-0.205 0.89-0.913 1.567-1.839 1.747l-0.202 0.031-0.208 0.010h-1.842c-0.979 0-1.848-0.617-2.192-1.589l-0.057-0.203-1.021-4.488-0.206-0.172c-1.243-1.091-2.048-2.614-2.23-4.307l-0.028-0.341-0.010-0.362c0-3.682 2.985-6.667 6.667-6.667zM17.56 21.333h-3.123l0.327 1.437 0.025 0.090c0.043 0.122 0.159 0.204 0.29 0.204l1.785 0.002 0.093-0.004c0.128-0.015 0.235-0.109 0.263-0.233l0.34-1.495zM16 8.936c-2.577 0-4.667 2.089-4.667 4.638l0.008 0.304c0.082 1.419 0.804 2.705 1.945 3.521 0.199 0.142 0.339 0.353 0.393 0.591l0.305 1.346 0.054-0.003 3.975 0.003 0.306-1.344c0.042-0.184 0.134-0.351 0.266-0.483l0.106-0.092 0.226-0.171c1.099-0.881 1.749-2.207 1.749-3.643 0-2.577-2.089-4.667-4.667-4.667z"></path>
</svg>
