<!-- Generated by IcoMoon.io -->
<svg version="1.1" xmlns="http://www.w3.org/2000/svg" width="32" height="32" viewBox="0 0 32 32">
<title>lightbulb-circle</title>
<path d="M16 2.667c7.364 0 13.333 5.969 13.333 13.333s-5.969 13.333-13.333 13.333-13.333-5.969-13.333-13.333 5.969-13.333 13.333-13.333zM16 4.667c-6.259 0-11.333 5.074-11.333 11.333s5.074 11.333 11.333 11.333v0c6.259 0 11.333-5.074 11.333-11.333s-5.074-11.333-11.333-11.333v0zM16 6.936c3.682 0 6.667 2.985 6.667 6.667 0 2.108-0.979 3.988-2.507 5.21l-0.013 0.010 0.043-0.037-1.020 4.489c-0.215 0.895-0.929 1.579-1.826 1.746l-0.014 0.002-0.2 0.031-0.208 0.011h-1.843c-0.979 0-1.848-0.617-2.192-1.589l-0.057-0.203-1.021-4.488-0.207-0.172c-1.221-1.076-2.042-2.581-2.227-4.277l-0.003-0.030-0.028-0.341-0.011-0.361c0-3.682 2.985-6.667 6.667-6.667v0zM17.56 21.333h-3.123l0.327 1.437 0.025 0.089c0.043 0.12 0.156 0.204 0.289 0.204 0 0 0 0 0 0l1.879-0.001c0.129-0.015 0.232-0.109 0.262-0.231l0-0.002 0.34-1.496zM16 8.936c-2.577 0-4.667 2.089-4.667 4.637l0.008 0.304c0.087 1.454 0.829 2.718 1.931 3.512l0.014 0.009c0.195 0.141 0.335 0.347 0.391 0.585l0.001 0.007 0.305 1.345 0.053-0.003 3.976 0.003 0.307-1.344c0.044-0.19 0.137-0.355 0.265-0.484l-0 0 0.107-0.092 0.225-0.171c1.071-0.862 1.75-2.173 1.75-3.643 0-2.577-2.089-4.667-4.667-4.667-0 0-0 0-0 0h0z"></path>
</svg>
