<!-- Generated by IcoMoon.io -->
<svg version="1.1" xmlns="http://www.w3.org/2000/svg" width="32" height="32" viewBox="0 0 32 32">
<title>lightbulb</title>
<path d="M16 2.668c5.339 0 9.667 4.328 9.667 9.667 0 2.795-1.201 5.36-3.551 7.656-0.103 0.1-0.182 0.221-0.233 0.354l-0.042 0.136-1.508 6.527c-0.297 1.285-1.394 2.216-2.692 2.316l-0.231 0.009h-2.818c-1.319 0-2.474-0.86-2.863-2.102l-0.061-0.223-1.506-6.526c-0.043-0.187-0.139-0.357-0.276-0.491-2.239-2.187-3.436-4.617-3.545-7.258l-0.008-0.398 0.005-0.319c0.168-5.191 4.429-9.348 9.662-9.348zM18.82 24.665h-5.641l0.438 1.892c0.094 0.408 0.431 0.71 0.837 0.766l0.138 0.009h2.818c0.419 0 0.788-0.26 0.934-0.643l0.040-0.132 0.436-1.893zM16 4.668c-4.136 0-7.507 3.275-7.661 7.373l-0.006 0.294 0.009 0.369c0.102 2.084 1.067 4.025 2.941 5.856 0.352 0.344 0.613 0.768 0.762 1.235l0.065 0.237 0.607 2.634h6.564l0.611-2.635c0.111-0.479 0.337-0.923 0.658-1.292l0.168-0.178c1.873-1.83 2.838-3.771 2.94-5.856l0.009-0.369-0.006-0.294c-0.155-4.098-3.525-7.373-7.661-7.373z"></path>
</svg>
