<!-- Generated by IcoMoon.io -->
<svg version="1.1" xmlns="http://www.w3.org/2000/svg" width="32" height="32" viewBox="0 0 32 32">
<title>lightbulb-filament</title>
<path d="M16 4.333c-4.418 0-8 3.582-8 8 0 2.339 1.003 4.442 2.603 5.906 0.478 0.437 0.892 1.015 1.072 1.718l0.778 3.043h2.713v-8.667c0-0.46 0.373-0.833 0.833-0.833s0.833 0.373 0.833 0.833v0 8.667h2.714l0.78-3.045c0.18-0.703 0.593-1.28 1.071-1.717 1.601-1.464 2.602-3.562 2.602-5.894 0-0.004 0-0.007 0-0.011v0.001c0-4.418-3.582-8-8-8zM13.359 26.538c0.171 0.654 0.757 1.129 1.453 1.129 0 0 0 0 0 0h2.377c0 0 0 0 0 0 0.696 0 1.282-0.474 1.451-1.118l0.002-0.010 0.478-1.872h-6.24l0.479 1.871zM6.333 12.333c0-5.339 4.328-9.667 9.667-9.667s9.667 4.328 9.667 9.667c0 2.825-1.213 5.368-3.143 7.134-0.3 0.275-0.5 0.583-0.582 0.901l-1.685 6.584c-0.362 1.38-1.598 2.381-3.068 2.381-0 0-0 0-0 0h-2.377c-1.47-0-2.706-1.002-3.062-2.36l-0.005-0.022-1.683-6.581c-0.081-0.318-0.282-0.627-0.582-0.901-1.936-1.77-3.145-4.306-3.145-7.125 0-0.004 0-0.008 0-0.011v0.001zM16.833 8.167c0-0.46-0.373-0.833-0.833-0.833s-0.833 0.373-0.833 0.833v0 2.333c0 0.46 0.373 0.833 0.833 0.833s0.833-0.373 0.833-0.833v0-2.333zM21.755 10.244c0.151 0.151 0.244 0.359 0.244 0.589s-0.093 0.438-0.244 0.589l-1.665 1.665c-0.151 0.151-0.359 0.244-0.59 0.244-0.46 0-0.834-0.373-0.834-0.834 0-0.23 0.093-0.438 0.244-0.589v0l1.665-1.664c0.151-0.151 0.359-0.244 0.589-0.244s0.439 0.093 0.589 0.244v0zM13.088 11.908c0.151 0.151 0.244 0.359 0.244 0.589 0 0.46-0.373 0.833-0.833 0.833-0.23 0-0.438-0.093-0.589-0.244v0l-1.665-1.665c-0.157-0.152-0.254-0.364-0.254-0.599 0-0.46 0.373-0.833 0.833-0.833 0.235 0 0.448 0.098 0.599 0.254l0 0 1.665 1.664z"></path>
</svg>
