<!-- Generated by IcoMoon.io -->
<svg version="1.1" xmlns="http://www.w3.org/2000/svg" width="32" height="32" viewBox="0 0 32 32">
<title>line-horizontal-5-error</title>
<path d="M4 4.8c-0.442 0-0.8 0.358-0.8 0.8s0.358 0.8 0.8 0.8v0h24c0.442 0 0.8-0.358 0.8-0.8s-0.358-0.8-0.8-0.8v0h-24zM4 14.4c-0.442 0-0.8 0.358-0.8 0.8s0.358 0.8 0.8 0.8v0h12.411c0.504-0.607 1.072-1.134 1.701-1.582l0.027-0.018h-14.139zM4 19.2h10.731c-0.137 0.462-0.241 1.006-0.293 1.565l-0.003 0.035h-10.435c-0.442 0-0.8-0.358-0.8-0.8s0.358-0.8 0.8-0.8v0zM4 24h10.731c0.158 0.558 0.368 1.093 0.629 1.6h-11.36c-0.442 0-0.8-0.358-0.8-0.8s0.358-0.8 0.8-0.8v0zM4 9.6c-0.442 0-0.8 0.358-0.8 0.8s0.358 0.8 0.8 0.8v0h24c0.442 0 0.8-0.358 0.8-0.8s-0.358-0.8-0.8-0.8v0h-24zM30.4 21.6c0 3.976-3.224 7.2-7.2 7.2s-7.2-3.224-7.2-7.2v0c0-3.976 3.224-7.2 7.2-7.2s7.2 3.224 7.2 7.2v0zM23.2 17.6c-0.442 0-0.8 0.358-0.8 0.8v0 3.2c0 0.442 0.358 0.8 0.8 0.8s0.8-0.358 0.8-0.8v0-3.2c0-0.442-0.358-0.8-0.8-0.8v0zM23.2 25.8c0.552 0 1-0.448 1-1s-0.448-1-1-1v0c-0.552 0-1 0.448-1 1s0.448 1 1 1v0z"></path>
</svg>
