<!-- Generated by IcoMoon.io -->
<svg version="1.1" xmlns="http://www.w3.org/2000/svg" width="32" height="32" viewBox="0 0 32 32">
<title>line-dashes</title>
<path d="M29.087 4.091c0.157-0.152 0.255-0.364 0.255-0.6 0-0.46-0.373-0.833-0.833-0.833-0.235 0-0.448 0.097-0.599 0.254l-1.666 1.665c-0.151 0.151-0.244 0.359-0.244 0.589 0 0.46 0.373 0.833 0.833 0.833 0.23 0 0.439-0.093 0.589-0.244v0l1.665-1.665zM23.756 8.245c0.151 0.151 0.244 0.359 0.244 0.589s-0.093 0.438-0.244 0.589l-2.333 2.333c-0.151 0.151-0.359 0.244-0.589 0.244-0.46 0-0.833-0.373-0.833-0.833 0-0.23 0.093-0.438 0.244-0.589v0l2.333-2.333c0.151-0.151 0.359-0.244 0.589-0.244s0.439 0.093 0.589 0.244v0zM17.756 15.423c0.151-0.151 0.244-0.359 0.244-0.589 0-0.46-0.373-0.833-0.833-0.833-0.23 0-0.439 0.093-0.589 0.244v0l-2.333 2.333c-0.151 0.151-0.244 0.359-0.244 0.589 0 0.46 0.373 0.833 0.833 0.833 0.23 0 0.438-0.093 0.589-0.244v0l2.333-2.333zM11.756 20.244c0.151 0.151 0.244 0.359 0.244 0.589s-0.093 0.439-0.244 0.589l-2.333 2.333c-0.151 0.151-0.359 0.244-0.589 0.244-0.46 0-0.833-0.373-0.833-0.833 0-0.23 0.093-0.439 0.244-0.589v0l2.333-2.333c0.151-0.151 0.359-0.244 0.589-0.244s0.439 0.093 0.589 0.244v0zM5.756 26.244c0.151 0.151 0.244 0.359 0.244 0.589s-0.093 0.439-0.244 0.589l-1.665 1.665c-0.15 0.145-0.354 0.234-0.579 0.234-0.46 0-0.833-0.373-0.833-0.833 0-0.225 0.089-0.429 0.234-0.579l-0 0 1.665-1.665c0.151-0.151 0.359-0.244 0.589-0.244s0.439 0.093 0.589 0.244v0z"></path>
</svg>
