<!-- Generated by IcoMoon.io -->
<svg version="1.1" xmlns="http://www.w3.org/2000/svg" width="32" height="32" viewBox="0 0 32 32">
<title>line-horizontal-5</title>
<path d="M3.2 5.6c0-0.442 0.358-0.8 0.8-0.8v0h24c0.442 0 0.8 0.358 0.8 0.8s-0.358 0.8-0.8 0.8v0h-24c-0.442 0-0.8-0.358-0.8-0.8v0zM3.2 15.2c0-0.442 0.358-0.8 0.8-0.8v0h24c0.442 0 0.8 0.358 0.8 0.8s-0.358 0.8-0.8 0.8v0h-24c-0.442 0-0.8-0.358-0.8-0.8v0zM4 9.6c-0.442 0-0.8 0.358-0.8 0.8s0.358 0.8 0.8 0.8v0h24c0.442 0 0.8-0.358 0.8-0.8s-0.358-0.8-0.8-0.8v0h-24zM3.2 20c0-0.442 0.358-0.8 0.8-0.8v0h24c0.442 0 0.8 0.358 0.8 0.8s-0.358 0.8-0.8 0.8v0h-24c-0.442 0-0.8-0.358-0.8-0.8v0zM4 24c-0.442 0-0.8 0.358-0.8 0.8s0.358 0.8 0.8 0.8v0h24c0.442 0 0.8-0.358 0.8-0.8s-0.358-0.8-0.8-0.8v0h-24z"></path>
</svg>
