<!-- Generated by IcoMoon.io -->
<svg version="1.1" xmlns="http://www.w3.org/2000/svg" width="32" height="32" viewBox="0 0 32 32">
<title>link-square-regular</title>
<path d="M8.333 4c-2.393 0-4.333 1.94-4.333 4.333v0 8c0 2.393 1.94 4.333 4.333 4.333v0h1.667v-2h-1.667c-1.289 0-2.333-1.045-2.333-2.333v0-8c0-1.288 1.045-2.333 2.333-2.333h8c1.288 0 2.333 1.045 2.333 2.333v8c0 1.289-1.045 2.333-2.333 2.333v0h-1.667v2h1.667c2.393 0 4.333-1.94 4.333-4.333v0-8c0-2.393-1.94-4.333-4.333-4.333v0h-8zM13.333 15.667c0-1.288 1.045-2.333 2.333-2.333h1.664v-2h-1.664c-2.393 0-4.333 1.94-4.333 4.333v0 8c0 2.393 1.94 4.333 4.333 4.333v0h8c2.393 0 4.333-1.94 4.333-4.333v0-8c0-2.393-1.94-4.333-4.333-4.333v0h-1.667v2h1.667c1.288 0 2.333 1.045 2.333 2.333v8c0 1.289-1.045 2.333-2.333 2.333v0h-8c-1.289 0-2.333-1.045-2.333-2.333v0-8z"></path>
</svg>
