<!-- Generated by IcoMoon.io -->
<svg version="1.1" xmlns="http://www.w3.org/2000/svg" width="32" height="32" viewBox="0 0 32 32">
<title>link</title>
<path d="M22.667 9.333c3.682 0 6.667 2.985 6.667 6.667 0 3.62-2.885 6.565-6.48 6.664l-0.187 0.003h-3.833c-0.001 0-0.003 0-0.004 0-0.46 0-0.833-0.373-0.833-0.833 0-0.432 0.328-0.787 0.748-0.829l0.003-0 0.085-0.004h3.833c2.761-0.001 4.999-2.239 4.999-5 0-2.704-2.146-4.907-4.828-4.997l-0.008-0-0.162-0.003h-3.833c-0.459-0.002-0.831-0.374-0.831-0.833 0-0.429 0.325-0.783 0.742-0.828l0.004-0 0.085-0.005h3.833zM13.167 9.333c0.001 0 0.002 0 0.004 0 0.46 0 0.833 0.373 0.833 0.833 0 0.432-0.328 0.787-0.748 0.829l-0.004 0-0.085 0.004h-3.833c-2.761 0.001-4.999 2.239-4.999 5 0 2.704 2.146 4.907 4.828 4.997l0.008 0 0.162 0.003h3.833c0.459 0.002 0.831 0.374 0.831 0.833 0 0.429-0.325 0.783-0.742 0.828l-0.004 0-0.085 0.005h-3.833c-3.682 0-6.667-2.985-6.667-6.667 0-3.62 2.885-6.565 6.48-6.664l0.187-0.003h3.833zM8.667 15.167h14.667c0.001 0 0.003 0 0.004 0 0.46 0 0.833 0.373 0.833 0.833 0 0.432-0.328 0.787-0.748 0.829l-0.003 0-0.085 0.004h-14.667c-0.001 0-0.002 0-0.004 0-0.46 0-0.833-0.373-0.833-0.833 0-0.432 0.328-0.787 0.748-0.829l0.004-0 0.085-0.004z"></path>
</svg>
