<!-- Generated by IcoMoon.io -->
<svg version="1.1" xmlns="http://www.w3.org/2000/svg" width="32" height="32" viewBox="0 0 32 32">
<title>link-dismiss</title>
<path d="M12.333 6.667c0.552 0 1 0.448 1 1 0 0.502-0.37 0.918-0.852 0.989l-0.148 0.011h-3c-2.577 0-4.667 2.089-4.667 4.667 0 2.485 1.943 4.517 4.392 4.659l0.274 0.008h3c0.552 0 1 0.448 1 1 0 0.502-0.37 0.918-0.852 0.989l-0.148 0.011h-3c-3.682 0-6.667-2.985-6.667-6.667 0-3.57 2.807-6.485 6.334-6.659l0.333-0.008h3zM22.667 6.667c3.682 0 6.667 2.985 6.667 6.667 0 1.117-0.275 2.171-0.761 3.096-0.53-0.403-1.109-0.747-1.725-1.020 0.311-0.625 0.486-1.33 0.486-2.075 0-2.485-1.943-4.517-4.392-4.659l-0.274-0.008h-3c-0.552 0-1-0.448-1-1 0-0.502 0.37-0.918 0.852-0.989l0.148-0.011h3zM9.333 12.333h13.333c0.552 0 1 0.448 1 1 0 0.506-0.376 0.925-0.864 0.991l-0.136 0.009h-13.333c-0.552 0-1-0.448-1-1 0-0.506 0.376-0.925 0.864-0.991l0.136-0.009zM30.667 23.333c0 4.050-3.283 7.333-7.333 7.333s-7.333-3.283-7.333-7.333c0-4.050 3.283-7.333 7.333-7.333s7.333 3.283 7.333 7.333zM21.138 20.195c-0.26-0.26-0.683-0.26-0.943 0s-0.26 0.683 0 0.943l2.195 2.195-2.195 2.195c-0.26 0.26-0.26 0.683 0 0.943s0.683 0.26 0.943 0l2.195-2.195 2.195 2.195c0.26 0.26 0.683 0.26 0.943 0s0.26-0.683 0-0.943l-2.195-2.195 2.195-2.195c0.26-0.26 0.26-0.683 0-0.943s-0.683-0.26-0.943 0l-2.195 2.195-2.195-2.195z"></path>
</svg>
