<!-- Generated by IcoMoon.io -->
<svg version="1.1" xmlns="http://www.w3.org/2000/svg" width="32" height="32" viewBox="0 0 32 32">
<title>link-edit-regular</title>
<path d="M13.333 7.667c0-0.552-0.448-1-1-1v0h-3l-0.333 0.008c-3.539 0.179-6.34 3.092-6.34 6.659 0 3.682 2.985 6.667 6.667 6.667 0.002 0 0.005 0 0.007 0h3l0.147-0.011c0.486-0.074 0.854-0.488 0.854-0.989 0-0.552-0.448-1-1-1-0 0-0.001 0-0.001 0h-3l-0.275-0.008c-2.457-0.148-4.394-2.177-4.394-4.659 0-2.577 2.089-4.667 4.667-4.667 0.001 0 0.001 0 0.002 0h3l0.147-0.011c0.486-0.074 0.853-0.489 0.853-0.989 0-0 0-0 0-0v0zM29.329 13.333c0-3.682-2.985-6.667-6.667-6.667v0h-3l-0.147 0.011c-0.486 0.074-0.854 0.488-0.854 0.989 0 0.552 0.448 1 1 1 0 0 0.001 0 0.001 0h3l0.275 0.008c2.457 0.149 4.392 2.178 4.392 4.659 0 0.044-0.001 0.088-0.002 0.132l0-0.006c0.691 0.168 1.347 0.507 1.904 1.013 0.062-0.342 0.097-0.736 0.097-1.138 0-0.001 0-0.001 0-0.002v0zM22.663 12.333l-13.465 0.008c-0.495 0.065-0.874 0.484-0.874 0.992 0 0.552 0.448 1 1 1 0.004 0 0.007-0 0.011-0l13.466-0.008c0.495-0.065 0.874-0.484 0.874-0.992 0-0.552-0.448-1-1-1-0.003 0-0.005 0-0.008 0h0zM24.129 15.559l-7.868 7.869c-0.446 0.446-0.775 1.008-0.937 1.638l-0.005 0.025-0.609 2.44c-0.267 1.063 0.696 2.024 1.757 1.759l2.44-0.611c0.655-0.167 1.218-0.496 1.664-0.941l7.869-7.871c0.551-0.551 0.892-1.313 0.892-2.155 0-1.683-1.364-3.048-3.048-3.048-0.842 0-1.604 0.341-2.155 0.893v0z"></path>
</svg>
