<!-- Generated by IcoMoon.io -->
<svg version="1.1" xmlns="http://www.w3.org/2000/svg" width="32" height="32" viewBox="0 0 32 32">
<title>link-edit</title>
<path d="M13.332 7.667c0-0.552-0.448-1-1-1h-3l-0.333 0.008c-3.527 0.173-6.333 3.088-6.333 6.658 0 3.681 2.985 6.666 6.666 6.666h3l0.148-0.011c0.482-0.071 0.852-0.487 0.852-0.989 0-0.552-0.448-1-1-1h-3l-0.274-0.008c-2.45-0.142-4.392-2.173-4.392-4.658 0-2.577 2.089-4.666 4.666-4.666h3l0.148-0.011c0.482-0.071 0.852-0.487 0.852-0.989zM29.331 13.333c0-3.682-2.984-6.666-6.666-6.666h-3l-0.148 0.011c-0.482 0.071-0.852 0.487-0.852 0.989 0 0.552 0.448 1 1 1h3l0.274 0.008c2.449 0.142 4.392 2.173 4.392 4.658 0 0.042-0.001 0.084-0.002 0.126 0.69 0.169 1.347 0.507 1.904 1.015 0.064-0.37 0.097-0.751 0.097-1.14zM22.665 12.333l-13.468 0.009c-0.488 0.066-0.864 0.485-0.864 0.991 0 0.552 0.448 1 1 1l13.468-0.009c0.488-0.066 0.864-0.485 0.864-0.991 0-0.552-0.448-1-1-1zM24.131 15.558l-7.869 7.869c-0.459 0.459-0.784 1.034-0.942 1.663l-0.61 2.441c-0.265 1.061 0.696 2.023 1.757 1.758l2.441-0.61c0.629-0.157 1.204-0.483 1.663-0.942l7.869-7.869c1.19-1.19 1.19-3.119 0-4.309s-3.119-1.19-4.31 0z"></path>
</svg>
