<!-- Generated by IcoMoon.io -->
<svg version="1.1" xmlns="http://www.w3.org/2000/svg" width="32" height="32" viewBox="0 0 32 32">
<title>link</title>
<path d="M12.333 9.333c0.552 0 1 0.448 1 1 0 0.502-0.37 0.918-0.852 0.989l-0.148 0.011h-3c-2.577 0-4.667 2.089-4.667 4.667 0 2.485 1.943 4.517 4.392 4.659l0.274 0.008h3c0.552 0 1 0.448 1 1 0 0.502-0.37 0.918-0.852 0.989l-0.148 0.011h-3c-3.682 0-6.667-2.985-6.667-6.667 0-3.57 2.807-6.485 6.334-6.659l0.333-0.008h3zM22.667 9.333c3.682 0 6.667 2.985 6.667 6.667 0 3.57-2.807 6.485-6.334 6.659l-0.333 0.008h-3c-0.552 0-1-0.448-1-1 0-0.502 0.37-0.918 0.852-0.989l0.148-0.011h3c2.577 0 4.667-2.089 4.667-4.667 0-2.485-1.943-4.517-4.392-4.659l-0.274-0.008h-3c-0.552 0-1-0.448-1-1 0-0.502 0.37-0.918 0.852-0.989l0.148-0.011h3zM9.333 15h13.333c0.552 0 1 0.448 1 1 0 0.506-0.376 0.925-0.864 0.991l-0.136 0.009h-13.333c-0.552 0-1-0.448-1-1 0-0.506 0.376-0.925 0.864-0.991l0.136-0.009z"></path>
</svg>
