<!-- Generated by IcoMoon.io -->
<svg version="1.1" xmlns="http://www.w3.org/2000/svg" width="32" height="32" viewBox="0 0 32 32">
<title>list</title>
<path d="M18.571 24c0.473 0 0.857 0.384 0.857 0.857s-0.384 0.857-0.857 0.857v0h-14.286c-0.473 0-0.857-0.384-0.857-0.857s0.384-0.857 0.857-0.857v0h14.286zM27.712 15.426c0.473 0 0.857 0.384 0.857 0.857s-0.384 0.857-0.857 0.857v0h-23.429c-0.473 0-0.857-0.384-0.857-0.857s0.384-0.857 0.857-0.857v0h23.429zM23.143 6.857c0.473 0 0.857 0.384 0.857 0.857s-0.384 0.857-0.857 0.857v0h-18.857c-0.473 0-0.857-0.384-0.857-0.857s0.384-0.857 0.857-0.857v0h18.857z"></path>
</svg>
