<!-- Generated by IcoMoon.io -->
<svg version="1.1" xmlns="http://www.w3.org/2000/svg" width="32" height="32" viewBox="0 0 32 32">
<title>live-off-regular</title>
<path d="M4.373 2.96c-0.183-0.196-0.443-0.318-0.732-0.318-0.552 0-1 0.448-1 1 0 0.289 0.122 0.549 0.318 0.731l0.001 0.001 2.931 2.933c-4.515 5.239-4.288 13.153 0.68 18.123 0.181 0.181 0.431 0.294 0.708 0.294 0.552 0 1-0.448 1-1 0-0.276-0.112-0.526-0.292-0.707v0c-2.052-2.051-3.321-4.885-3.321-8.015 0-2.777 0.999-5.322 2.658-7.293l-0.014 0.017 2.371 2.369c-1.048 1.34-1.68 3.049-1.68 4.906 0 2.209 0.895 4.209 2.343 5.657l-0-0c0.181 0.181 0.431 0.293 0.707 0.293 0.552 0 1-0.448 1-1 0-0.276-0.112-0.526-0.293-0.707v0c-1.086-1.086-1.758-2.586-1.758-4.243 0-1.304 0.416-2.51 1.122-3.495l-0.012 0.018 2.959 2.96c-0.042 0.154-0.067 0.331-0.067 0.513 0 1.105 0.894 2.001 1.999 2.004h0c0.179 0 0.352-0.024 0.517-0.067l11.108 11.107c0.18 0.174 0.425 0.281 0.695 0.281 0.552 0 1-0.448 1-1 0-0.27-0.107-0.515-0.281-0.695l-24.666-24.666zM25.853 21.609l1.457 1.459c3.224-5.148 2.596-12.019-1.88-16.496-0.181-0.181-0.431-0.294-0.708-0.294-0.552 0-1 0.448-1 1 0 0.276 0.112 0.526 0.292 0.707v0c2.052 2.052 3.321 4.886 3.321 8.017 0 2.062-0.55 3.996-1.512 5.662l0.029-0.055zM21.797 17.553l1.571 1.571c0.401-0.921 0.634-1.995 0.634-3.123 0-2.21-0.896-4.21-2.344-5.659v0c-0.181-0.181-0.431-0.293-0.707-0.293-0.552 0-1 0.448-1 1 0 0.276 0.112 0.526 0.293 0.707v0c1.086 1.085 1.758 2.586 1.758 4.243 0 0.553-0.075 1.088-0.215 1.597l0.010-0.042z"></path>
</svg>
