<!-- Generated by IcoMoon.io -->
<svg version="1.1" xmlns="http://www.w3.org/2000/svg" width="32" height="32" viewBox="0 0 32 32">
<title>live-off</title>
<path d="M4.374 2.96c-0.391-0.391-1.024-0.391-1.414-0s-0.391 1.024-0 1.414l2.931 2.931c-4.515 5.238-4.288 13.154 0.681 18.123 0.391 0.391 1.024 0.391 1.414 0s0.391-1.024 0-1.414c-4.188-4.188-4.413-10.837-0.676-15.29l2.37 2.37c-2.442 3.138-2.221 7.678 0.663 10.563 0.391 0.391 1.024 0.391 1.414 0s0.391-1.024 0-1.414c-2.102-2.102-2.318-5.376-0.649-7.719l2.959 2.959c-0.044 0.165-0.068 0.339-0.068 0.518 0 1.105 0.895 2 2 2 0.179 0 0.353-0.023 0.518-0.068l11.108 11.108c0.391 0.391 1.024 0.391 1.414 0s0.391-1.024 0-1.414l-24.666-24.667z"></path>
<path d="M25.851 21.609l1.458 1.458c3.223-5.148 2.596-12.018-1.881-16.496-0.391-0.391-1.024-0.391-1.414 0s-0.391 1.024 0 1.414c3.692 3.692 4.304 9.296 1.837 13.623z"></path>
<path d="M21.796 17.554l1.571 1.571c1.234-2.912 0.664-6.407-1.71-8.781-0.391-0.391-1.024-0.391-1.414 0s-0.391 1.024 0 1.414c1.57 1.57 2.088 3.795 1.554 5.797z"></path>
</svg>
