<!-- Generated by IcoMoon.io -->
<svg version="1.1" xmlns="http://www.w3.org/2000/svg" width="32" height="32" viewBox="0 0 32 32">
<title>live</title>
<path d="M7.986 6.572c0.391 0.391 0.391 1.024 0 1.414-4.426 4.426-4.426 11.602 0 16.028 0.391 0.391 0.391 1.024 0 1.414s-1.024 0.391-1.414 0c-5.207-5.207-5.207-13.649 0-18.856 0.391-0.391 1.024-0.391 1.414 0zM25.428 6.572c5.207 5.207 5.207 13.649 0 18.856-0.391 0.391-1.024 0.391-1.414 0s-0.391-1.024 0-1.414c4.426-4.426 4.426-11.602 0-16.028-0.391-0.391-0.391-1.024 0-1.414s1.024-0.391 1.414 0zM11.757 10.343c0.391 0.391 0.391 1.024 0 1.414-2.343 2.343-2.343 6.142 0 8.485 0.391 0.391 0.391 1.024 0 1.414s-1.024 0.391-1.414 0c-3.124-3.124-3.124-8.19 0-11.314 0.391-0.391 1.024-0.391 1.414 0zM21.657 10.343c3.124 3.124 3.124 8.19 0 11.314-0.391 0.391-1.024 0.391-1.414 0s-0.391-1.024 0-1.414c2.343-2.343 2.343-6.142 0-8.485-0.391-0.391-0.391-1.024 0-1.414s1.024-0.391 1.414 0zM16 14c1.105 0 2 0.895 2 2s-0.895 2-2 2c-1.105 0-2-0.895-2-2s0.895-2 2-2z"></path>
</svg>
