<!-- Generated by IcoMoon.io -->
<svg version="1.1" xmlns="http://www.w3.org/2000/svg" width="32" height="32" viewBox="0 0 32 32">
<title>live</title>
<path d="M7.987 6.572c0.181 0.181 0.292 0.431 0.292 0.707s-0.112 0.526-0.292 0.707v0c-2.051 2.051-3.32 4.884-3.32 8.014s1.269 5.963 3.32 8.014v0c0.173 0.18 0.28 0.424 0.28 0.694 0 0.552-0.448 1-1 1-0.27 0-0.515-0.107-0.695-0.281l0 0c-5.207-5.207-5.207-13.648 0-18.855 0.181-0.181 0.431-0.292 0.707-0.292s0.526 0.112 0.707 0.292v0zM25.428 6.572c5.207 5.207 5.207 13.648 0 18.856-0.178 0.166-0.418 0.268-0.682 0.268-0.552 0-1-0.448-1-1 0-0.264 0.102-0.504 0.269-0.682l-0.001 0.001c2.051-2.051 3.32-4.885 3.32-8.015s-1.269-5.964-3.32-8.015v0c-0.196-0.183-0.318-0.443-0.318-0.732 0-0.552 0.448-1 1-1 0.289 0 0.549 0.122 0.731 0.318l0.001 0.001zM11.757 10.343c0.181 0.181 0.292 0.431 0.292 0.707s-0.112 0.526-0.292 0.707v0c-1.086 1.086-1.758 2.586-1.758 4.243s0.672 3.157 1.758 4.243l0 0c0.166 0.178 0.268 0.418 0.268 0.682 0 0.552-0.448 1-1 1-0.264 0-0.504-0.102-0.682-0.269l0.001 0.001c-1.448-1.448-2.343-3.448-2.343-5.657s0.895-4.209 2.343-5.657v0c0.181-0.181 0.431-0.292 0.707-0.292s0.526 0.112 0.707 0.292v0zM21.657 10.343c1.448 1.448 2.343 3.448 2.343 5.657s-0.895 4.209-2.343 5.657v0c-0.182 0.189-0.437 0.306-0.72 0.306-0.552 0-1-0.448-1-1 0-0.282 0.117-0.537 0.305-0.719l0-0c1.086-1.086 1.757-2.586 1.757-4.243s-0.672-3.157-1.757-4.243v0c-0.166-0.178-0.268-0.418-0.268-0.682 0-0.552 0.448-1 1-1 0.264 0 0.504 0.102 0.682 0.269l-0.001-0.001zM16 14c1.105 0 2 0.895 2 2s-0.895 2-2 2v0c-1.105 0-2-0.895-2-2s0.895-2 2-2v0z"></path>
</svg>
