<!-- Generated by IcoMoon.io -->
<svg version="1.1" xmlns="http://www.w3.org/2000/svg" width="32" height="32" viewBox="0 0 32 32">
<title>local-language</title>
<path d="M14.571 2.286c-0.473 0-0.857 0.384-0.857 0.857s0.384 0.857 0.857 0.857v0h6.571v3.206c0 2-2 3.651-4.286 3.651-0.473 0-0.857 0.384-0.857 0.857s0.384 0.857 0.857 0.857v0c2.93 0 6-2.142 6-5.366v-4.063c0-0.473-0.384-0.857-0.857-0.857v0h-7.429zM12.221 8.529c-0.132-0.313-0.437-0.529-0.792-0.529s-0.66 0.216-0.79 0.524l-0.002 0.006-8.286 20c-0.041 0.097-0.065 0.21-0.065 0.328 0 0.473 0.384 0.857 0.857 0.857 0.355 0 0.66-0.216 0.79-0.524l0.002-0.006 2.385-5.759h10.219l2.387 5.76c0.132 0.313 0.437 0.529 0.792 0.529 0.474 0 0.857-0.384 0.857-0.857 0-0.119-0.024-0.232-0.068-0.334l0.002 0.006-2.519-6.075c-0.021-0.154-0.081-0.291-0.168-0.405l0.002 0.002-5.605-13.521zM15.83 21.712h-8.8l4.4-10.616 4.4 10.616zM25.429 2.286c0.473 0 0.857 0.384 0.857 0.857v0 6.571h2.57c0.473 0 0.857 0.384 0.857 0.857s-0.384 0.857-0.857 0.857v0h-2.569v10.571c0 0.473-0.384 0.857-0.857 0.857s-0.857-0.384-0.857-0.857v0-11.371c-0.001-0.017-0.002-0.037-0.002-0.057s0.001-0.040 0.002-0.060l-0 0.003v-7.371c0-0.473 0.384-0.857 0.857-0.857v0z"></path>
</svg>
