<!-- Generated by IcoMoon.io -->
<svg version="1.1" xmlns="http://www.w3.org/2000/svg" width="32" height="32" viewBox="0 0 32 32">
<title>location</title>
<path d="M16.003 10.333c-2.209 0-4 1.791-4 4s1.791 4 4 4v0c2.209 0 4-1.791 4-4s-1.791-4-4-4v0zM13.67 14.333c0-1.289 1.045-2.333 2.333-2.333s2.333 1.045 2.333 2.333v0c0 1.289-1.045 2.333-2.333 2.333s-2.333-1.045-2.333-2.333v0zM24.667 21.333l-6.725 7.14c-0.487 0.517-1.177 0.838-1.941 0.838s-1.454-0.322-1.94-0.837l-0.001-0.001-6.725-7.14h0.025l-0.011-0.013-0.014-0.017c-1.658-1.951-2.667-4.5-2.667-7.284 0-0.007 0-0.014 0-0.020v0.001c0-6.259 5.074-11.333 11.333-11.333s11.333 5.074 11.333 11.333c0 0.006 0 0.013 0 0.019 0 2.784-1.008 5.333-2.68 7.3l0.013-0.016-0.014 0.017-0.011 0.013h0.025zM23.371 20.254c1.427-1.668 2.295-3.851 2.295-6.237 0-0.006 0-0.012-0-0.018v0.001c0-5.339-4.328-9.667-9.667-9.667s-9.667 4.328-9.667 9.667c0 2.387 0.863 4.568 2.295 6.254l0.205 0.242 6.438 6.834c0.183 0.194 0.441 0.314 0.728 0.314s0.545-0.121 0.728-0.314l0-0 6.438-6.834 0.205-0.242z"></path>
</svg>
