<!-- Generated by IcoMoon.io -->
<svg version="1.1" xmlns="http://www.w3.org/2000/svg" width="32" height="32" viewBox="0 0 32 32">
<title>location</title>
<path d="M7.791 6.091c4.534-4.534 11.885-4.534 16.419 0s4.534 11.885 0 16.419l-1.583 1.565c-1.166 1.145-2.68 2.617-4.541 4.416-1.163 1.125-3.008 1.124-4.171-0l-4.655-4.528c-0.585-0.574-1.075-1.059-1.469-1.453-4.534-4.534-4.534-11.885 0-16.419zM22.795 7.505c-3.753-3.753-9.837-3.753-13.59 0s-3.753 9.837 0 13.59l1.983 1.957c1.092 1.069 2.464 2.402 4.117 4.001 0.388 0.375 1.003 0.375 1.39 0l4.527-4.402c0.625-0.614 1.15-1.132 1.573-1.556 3.753-3.753 3.753-9.837 0-13.59zM16 10.665c2.21 0 4.002 1.792 4.002 4.002s-1.792 4.002-4.002 4.002c-2.21 0-4.002-1.792-4.002-4.002s1.792-4.002 4.002-4.002zM16 12.665c-1.106 0-2.002 0.896-2.002 2.002s0.896 2.002 2.002 2.002c1.106 0 2.002-0.896 2.002-2.002s-0.896-2.002-2.002-2.002z"></path>
</svg>
