<!-- Generated by IcoMoon.io -->
<svg version="1.1" xmlns="http://www.w3.org/2000/svg" width="32" height="32" viewBox="0 0 32 32">
<title>location-dismiss</title>
<path d="M7.791 6.080c2.1-2.097 5-3.393 8.202-3.393 6.412 0 11.609 5.198 11.609 11.609 0 3.067-1.189 5.856-3.132 7.932l0.006-0.006-0.267 0.276c-1.22 1.22-3.26 3.213-6.124 5.981-0.539 0.522-1.275 0.843-2.085 0.843s-1.546-0.322-2.086-0.844l0.001 0.001-5.133-4.999c-0.379-0.373-0.709-0.701-0.991-0.983-2.101-2.101-3.401-5.003-3.401-8.209s1.3-6.108 3.401-8.209v0zM22.795 7.493c-1.743-1.767-4.164-2.861-6.841-2.861-5.307 0-9.609 4.302-9.609 9.609 0 2.677 1.094 5.098 2.86 6.84l0.001 0.001 2.261 2.229c1.044 1.020 2.323 2.264 3.839 3.729 0.18 0.174 0.425 0.281 0.695 0.281s0.516-0.107 0.696-0.282l-0 0 3.965-3.853c0.877-0.859 1.589-1.56 2.133-2.105 1.739-1.739 2.814-4.141 2.814-6.795s-1.075-5.056-2.814-6.795v0zM19.928 10.151l0.112 0.097c0.181 0.181 0.293 0.431 0.293 0.707 0 0.224-0.073 0.43-0.198 0.597l0.002-0.003-0.097 0.112-2.625 2.627 2.627 2.627c0.181 0.181 0.292 0.431 0.292 0.706 0 0.224-0.074 0.431-0.198 0.598l0.002-0.003-0.097 0.112c-0.181 0.181-0.431 0.293-0.707 0.293-0.224 0-0.43-0.073-0.597-0.198l0.003 0.002-0.112-0.097-2.627-2.625-2.627 2.627c-0.181 0.181-0.431 0.292-0.706 0.292-0.224 0-0.431-0.074-0.598-0.198l0.003 0.002-0.112-0.097c-0.181-0.181-0.293-0.431-0.293-0.707 0-0.224 0.073-0.43 0.198-0.597l-0.002 0.003 0.097-0.112 2.625-2.627-2.627-2.627c-0.181-0.181-0.292-0.431-0.292-0.706 0-0.224 0.074-0.431 0.198-0.598l-0.002 0.003 0.097-0.112c0.181-0.181 0.431-0.293 0.707-0.293 0.224 0 0.43 0.073 0.597 0.198l-0.003-0.002 0.112 0.097 2.627 2.627 2.627-2.627c0.181-0.181 0.431-0.293 0.707-0.293 0.224 0 0.43 0.073 0.597 0.198l-0.003-0.002z"></path>
</svg>
