<!-- Generated by IcoMoon.io -->
<svg version="1.1" xmlns="http://www.w3.org/2000/svg" width="32" height="32" viewBox="0 0 32 32">
<title>location-dismiss</title>
<path d="M7.791 6.079c4.534-4.534 11.885-4.534 16.419 0 4.443 4.443 4.532 11.592 0.267 16.143l-0.267 0.275c-1.22 1.22-3.261 3.213-6.124 5.981-1.163 1.124-3.008 1.124-4.171-0l-5.133-4.998c-0.379-0.374-0.709-0.701-0.991-0.983-4.534-4.534-4.534-11.885 0-16.419zM22.795 7.493c-3.753-3.753-9.837-3.753-13.59 0s-3.753 9.837 0 13.59l2.262 2.229c1.044 1.020 2.323 2.263 3.839 3.728 0.388 0.375 1.003 0.375 1.39 0l3.966-3.853c0.878-0.859 1.589-1.561 2.134-2.105 3.753-3.753 3.753-9.837 0-13.59zM19.928 10.151l0.112 0.097c0.355 0.355 0.387 0.911 0.097 1.302l-0.097 0.112-2.626 2.626 2.626 2.626c0.355 0.355 0.387 0.911 0.097 1.302l-0.097 0.112c-0.355 0.355-0.911 0.387-1.302 0.097l-0.112-0.097-2.626-2.626-2.626 2.626c-0.355 0.355-0.911 0.387-1.302 0.097l-0.112-0.097c-0.355-0.355-0.387-0.911-0.097-1.302l0.097-0.112 2.626-2.626-2.626-2.626c-0.355-0.355-0.387-0.911-0.097-1.302l0.097-0.112c0.355-0.355 0.911-0.387 1.302-0.097l0.112 0.097 2.626 2.626 2.626-2.626c0.355-0.355 0.911-0.387 1.302-0.097z"></path>
</svg>
