<!-- Generated by IcoMoon.io -->
<svg version="1.1" xmlns="http://www.w3.org/2000/svg" width="32" height="32" viewBox="0 0 32 32">
<title>location-off</title>
<path d="M4.374 2.96c-0.391-0.391-1.024-0.391-1.414-0s-0.391 1.024-0 1.414l3.422 3.422c-3.062 4.517-2.592 10.713 1.41 14.714 0.394 0.394 0.884 0.879 1.469 1.453l4.655 4.528c1.163 1.125 3.008 1.125 4.171 0 1.861-1.799 3.375-3.271 4.541-4.416l0.017-0.017 4.982 4.982c0.391 0.391 1.024 0.391 1.414 0s0.391-1.024 0-1.414l-24.666-24.667zM21.229 22.644c-0.003 0.002-0.005 0.005-0.008 0.007l-4.527 4.402c-0.388 0.375-1.003 0.375-1.39-0-1.653-1.599-3.025-2.933-4.117-4.001l-1.983-1.957c-3.217-3.217-3.676-8.148-1.378-11.854l4.324 4.324c-0.1 0.35-0.153 0.719-0.153 1.101 0 2.21 1.792 4.002 4.002 4.002 0.382 0 0.752-0.054 1.101-0.153l4.128 4.128z"></path>
<path d="M15.027 10.784l4.856 4.856c0.078-0.311 0.119-0.637 0.119-0.973 0-2.21-1.792-4.002-4.002-4.002-0.336 0-0.662 0.041-0.973 0.119z"></path>
<path d="M22.795 7.505c3.318 3.318 3.703 8.46 1.153 12.2l1.435 1.435c3.319-4.541 2.928-10.948-1.173-15.049s-10.508-4.493-15.049-1.174l1.435 1.435c3.74-2.55 8.882-2.166 12.2 1.153z"></path>
</svg>
