<!-- Generated by IcoMoon.io -->
<svg version="1.1" xmlns="http://www.w3.org/2000/svg" width="32" height="32" viewBox="0 0 32 32">
<title>location-live</title>
<path d="M13.065 2.701c-0.020-0.001-0.043-0.002-0.066-0.002-0.552 0-1 0.448-1 1 0 0.529 0.411 0.962 0.931 0.998l0.003 0c6.989 0.46 12.579 6.051 13.036 13.040 0.035 0.524 0.469 0.935 0.998 0.935 0.552 0 1-0.448 1-1 0-0.023-0.001-0.046-0.002-0.068l0 0.003c-0.524-7.993-6.911-14.38-14.9-14.905zM11.329 20.829c0.828 0 1.5-0.672 1.5-1.5s-0.672-1.5-1.5-1.5v0c-0.828 0-1.5 0.672-1.5 1.5s0.672 1.5 1.5 1.5v0zM10.636 29.029l-0.52-0.515c-1.563-1.554-2.853-2.837-4.142-4.121l0.183 0.183c-1.326-1.326-2.146-3.158-2.146-5.181 0-4.047 3.281-7.328 7.328-7.328s7.328 3.281 7.328 7.328c0 2.023-0.82 3.855-2.146 5.181v0c-0.592 0.592-1.712 1.707-2.683 2.671l-1.795 1.783c-0.181 0.18-0.43 0.29-0.705 0.29s-0.524-0.111-0.705-0.291l0 0zM7.571 15.627c-0.964 0.964-1.56 2.296-1.56 3.767s0.596 2.803 1.56 3.767v0c0.643 0.643 1.76 1.755 2.719 2.707l1.049 1.043 1.088-1.083c0.972-0.965 2.089-2.076 2.68-2.667 0.964-0.964 1.56-2.296 1.56-3.767 0-2.943-2.386-5.328-5.328-5.328-1.472 0-2.804 0.597-3.768 1.561v0zM13.091 7.337c-0.027-0.003-0.058-0.004-0.090-0.004-0.552 0-1 0.448-1 1 0 0.521 0.398 0.948 0.906 0.996l0.004 0c4.472 0.422 8.001 3.95 8.422 8.384l0.003 0.038c0.048 0.512 0.475 0.91 0.996 0.91 0.552 0 1-0.448 1-1 0-0.032-0.001-0.063-0.004-0.094l0 0.004c-0.514-5.434-4.804-9.722-10.193-10.23l-0.045-0.003z"></path>
</svg>
