<!-- Generated by IcoMoon.io -->
<svg version="1.1" xmlns="http://www.w3.org/2000/svg" width="32" height="32" viewBox="0 0 32 32">
<title>location-add-right-regular</title>
<path d="M23.92 6.482c2.027 2.028 3.281 4.829 3.281 7.923s-1.254 5.895-3.281 7.923l0-0-1.805 1.782-3.898 3.792c-0.573 0.556-1.356 0.898-2.219 0.898-0.763 0-1.463-0.268-2.011-0.714l0.006 0.005-0.211-0.189-3.269-3.176-2.432-2.398c-2.027-2.028-3.281-4.829-3.281-7.923s1.254-5.895 3.281-7.923l-0 0c2.026-2.027 4.826-3.281 7.919-3.281s5.893 1.254 7.919 3.281l0 0zM22.792 7.61c-1.738-1.739-4.139-2.814-6.792-2.814s-5.054 1.075-6.792 2.814l-0 0c-1.738 1.739-2.813 4.142-2.813 6.795 0 2.51 0.962 4.796 2.538 6.508l-0.006-0.007 0.282 0.294 0.914 0.907 4.77 4.648 0.149 0.128c0.264 0.201 0.598 0.321 0.96 0.321s0.696-0.121 0.964-0.324l-0.004 0.003 0.149-0.128 3.568-3.469 2.115-2.086 0.282-0.293c1.569-1.705 2.532-3.991 2.532-6.501 0-2.653-1.075-5.056-2.813-6.795l0 0zM16.234 10.166c-0.145-0.145-0.235-0.345-0.235-0.566 0-0.442 0.359-0.801 0.801-0.801 0.221 0 0.421 0.090 0.566 0.235v0l4 4c0.145 0.145 0.235 0.345 0.235 0.566s-0.090 0.422-0.235 0.566l-4 4c-0.145 0.145-0.345 0.235-0.566 0.235-0.442 0-0.801-0.359-0.801-0.801 0-0.221 0.090-0.421 0.235-0.566v0l2.635-2.634h-7.669c-0.442 0-0.8-0.358-0.8-0.8s0.358-0.8 0.8-0.8v0h7.669l-2.635-2.634z"></path>
</svg>
