<!-- Generated by IcoMoon.io -->
<svg version="1.1" xmlns="http://www.w3.org/2000/svg" width="32" height="32" viewBox="0 0 32 32">
<title>local-language-zi</title>
<path d="M23 1.333c0.552 0 1 0.448 1 1v1.667h6c0.552 0 1 0.448 1 1v2c0 0.552-0.448 1-1 1s-1-0.448-1-1v-1h-12.667v1c0 0.552-0.448 1-1 1s-1-0.448-1-1v-2c0-0.552 0.448-1 1-1h6.667v-1.667c0-0.552 0.448-1 1-1zM18.333 8c-0.552 0-1 0.448-1 1s0.448 1 1 1h5.905l-1.878 1.565c-0.228 0.19-0.36 0.471-0.36 0.768v0.333h-6.333c-0.552 0-1 0.448-1 1s0.448 1 1 1h6.333v3.645c0 0.67-0.646 1.15-1.287 0.958l-0.759-0.228c-0.529-0.159-1.086 0.141-1.245 0.671s0.141 1.086 0.671 1.245l0.759 0.228c1.925 0.577 3.862-0.864 3.862-2.873v-3.645h5.667c0.552 0 1-0.448 1-1s-0.448-1-1-1h-5.505l3.478-2.898c0.323-0.27 0.443-0.713 0.3-1.109s-0.519-0.66-0.94-0.66h-8.667zM11.185 8.636l-0.065-0.139c-0.389-0.696-1.432-0.663-1.753 0.117l-7.952 19.333-0.043 0.129c-0.125 0.476 0.11 0.985 0.568 1.18 0.499 0.214 1.074-0.026 1.284-0.535l2.062-5.013 0.125 0.008 9.449-0 1.911 4.983 0.057 0.123c0.235 0.431 0.751 0.629 1.214 0.444 0.505-0.201 0.754-0.781 0.556-1.295l-7.413-19.333zM6.198 21.715l4.216-10.052 3.931 10.052h-8.147z"></path>
</svg>
