<!-- Generated by IcoMoon.io -->
<svg version="1.1" xmlns="http://www.w3.org/2000/svg" width="32" height="32" viewBox="0 0 32 32">
<title>location-add-regular</title>
<path d="M10.667 14.333c0-0.552 0.448-1 1-1v0h3.333v-3c0-0.552 0.448-1 1-1s1 0.448 1 1v0 3h3.333c0.552 0 1 0.448 1 1s-0.448 1-1 1v0h-3.333v3c0 0.552-0.448 1-1 1s-1-0.448-1-1v0-3h-3.333c-0.552 0-1-0.448-1-1v0zM7.791 6.091c2.101-2.101 5.003-3.4 8.209-3.4 6.412 0 11.61 5.198 11.61 11.61 0 3.206-1.299 6.108-3.4 8.209v0l-1.583 1.565c-1.167 1.144-2.68 2.616-4.541 4.416-0.539 0.522-1.275 0.843-2.085 0.843s-1.546-0.322-2.086-0.844l0.001 0.001-4.653-4.528c-0.587-0.575-1.076-1.059-1.471-1.453-2.101-2.101-3.401-5.003-3.401-8.209s1.3-6.108 3.401-8.209v0zM22.796 7.504c-1.739-1.739-4.142-2.815-6.795-2.815-5.308 0-9.611 4.303-9.611 9.611 0 2.654 1.076 5.057 2.815 6.796v0l1.981 1.957c1.092 1.068 2.464 2.401 4.117 4 0.18 0.174 0.425 0.281 0.695 0.281s0.516-0.107 0.696-0.282l-0 0 4.527-4.4c0.625-0.615 1.149-1.133 1.573-1.557 1.739-1.739 2.814-4.141 2.814-6.795s-1.075-5.056-2.814-6.795v0z"></path>
</svg>
