<!-- Generated by IcoMoon.io -->
<svg version="1.1" xmlns="http://www.w3.org/2000/svg" width="32" height="32" viewBox="0 0 32 32">
<title>lock-multiple</title>
<path d="M14.333 18.333c0.921 0 1.667-0.746 1.667-1.667s-0.746-1.667-1.667-1.667c-0.921 0-1.667 0.746-1.667 1.667s0.746 1.667 1.667 1.667z"></path>
<path d="M9.667 7.333c0-2.577 2.089-4.667 4.667-4.667s4.667 2.089 4.667 4.667v1.333h1.333c1.657 0 3 1.343 3 3v10c0 1.657-1.343 3-3 3h-12c-1.657 0-3-1.343-3-3v-10c0-1.657 1.343-3 3-3h1.333v-1.333zM17 7.333c0-1.473-1.194-2.667-2.667-2.667s-2.667 1.194-2.667 2.667v1.333h5.333v-1.333zM7.333 11.667v10c0 0.552 0.448 1 1 1h12c0.552 0 1-0.448 1-1v-10c0-0.552-0.448-1-1-1h-12c-0.552 0-1 0.448-1 1z"></path>
<path d="M13 28c-1.306 0-2.417-0.835-2.829-2h10.829c2.025 0 3.667-1.642 3.667-3.667v-8.829c1.165 0.412 2 1.523 2 2.829v6c0 3.13-2.537 5.667-5.667 5.667h-8z"></path>
</svg>
