<!-- Generated by IcoMoon.io -->
<svg version="1.1" xmlns="http://www.w3.org/2000/svg" width="32" height="32" viewBox="0 0 32 32">
<title>lock-closed</title>
<path d="M16 2.667c2.945 0 5.333 2.388 5.333 5.333v2.667h2.333c1.657 0 3 1.343 3 3v12.667c0 1.657-1.343 3-3 3h-15.333c-1.657 0-3-1.343-3-3v-12.667c0-1.657 1.343-3 3-3h2.333v-2.667c0-2.946 2.388-5.333 5.333-5.333zM23.667 12.667h-15.333c-0.552 0-1 0.448-1 1v12.667c0 0.552 0.448 1 1 1h15.333c0.552 0 1-0.448 1-1v-12.667c0-0.552-0.448-1-1-1zM16 18c1.105 0 2 0.895 2 2s-0.895 2-2 2c-1.105 0-2-0.895-2-2s0.895-2 2-2zM16 4.667c-1.841 0-3.333 1.492-3.333 3.333v2.667h6.667v-2.667c0-1.841-1.492-3.333-3.333-3.333z"></path>
</svg>
