<!-- Generated by IcoMoon.io -->
<svg version="1.1" xmlns="http://www.w3.org/2000/svg" width="32" height="32" viewBox="0 0 32 32">
<title>lock-open</title>
<path d="M16 2.672c2.5 0 4.446 1.608 5.237 4.004 0.173 0.524-0.111 1.090-0.636 1.263s-1.090-0.111-1.263-0.636c-0.535-1.621-1.757-2.631-3.338-2.631-1.876 0-3.227 1.277-3.328 3.402l-0.006 0.259-0 2.332 11.001 0.001c1.588 0 2.887 1.234 2.993 2.795l0.007 0.205v12.662c0 1.588-1.234 2.888-2.795 2.993l-0.205 0.007h-15.333c-1.588 0-2.888-1.233-2.993-2.795l-0.007-0.205v-12.662c0-1.588 1.234-2.887 2.795-2.993l0.205-0.007 2.332-0.001 0-2.332c0-3.385 2.279-5.661 5.334-5.661zM23.667 12.666h-15.333c-0.506 0-0.925 0.376-0.991 0.864l-0.009 0.136v12.662c0 0.506 0.376 0.925 0.864 0.991l0.136 0.009h15.333c0.506 0 0.925-0.376 0.991-0.864l0.009-0.136v-12.662c0-0.506-0.376-0.925-0.864-0.991l-0.136-0.009zM16 17.999c1.104 0 1.998 0.895 1.998 1.998s-0.895 1.998-1.998 1.998-1.998-0.895-1.998-1.998c0-1.104 0.895-1.998 1.998-1.998z"></path>
</svg>
