<!-- Generated by IcoMoon.io -->
<svg version="1.1" xmlns="http://www.w3.org/2000/svg" width="32" height="32" viewBox="0 0 32 32">
<title>lock-open</title>
<path d="M15.186 2.291l0.242-0.006c2.722 0 4.949 2.114 5.131 4.79l0.001 0.016c0 0.008 0 0.017 0 0.027 0 0.473-0.384 0.857-0.857 0.857-0.444 0-0.809-0.337-0.853-0.769l-0-0.004c-0.119-1.797-1.605-3.209-3.422-3.209-1.825 0-3.317 1.426-3.423 3.225l-0 0.009-0.006 0.201v3.427l10.571 0.001c1.42 0 2.571 1.151 2.571 2.571v0 13.717c0 1.42-1.151 2.571-2.571 2.571v0h-14.286c-1.42 0-2.571-1.151-2.571-2.571v0-13.717c0-1.42 1.151-2.571 2.571-2.571v0l2-0.001v-3.427c0-2.755 2.166-5.004 4.889-5.137l0.012-0zM22.573 12.571h-14.288c-0.473 0-0.857 0.384-0.857 0.857v0 13.717c0 0.473 0.383 0.857 0.857 0.857h14.287c0.473 0 0.857-0.384 0.857-0.857v0-13.717c0-0.473-0.384-0.857-0.857-0.857v0zM15.43 18.571c0.947 0 1.714 0.767 1.714 1.714s-0.767 1.714-1.714 1.714v0c-0.947 0-1.714-0.767-1.714-1.714s0.768-1.714 1.714-1.714v0z"></path>
</svg>
