<!-- Generated by IcoMoon.io -->
<svg version="1.1" xmlns="http://www.w3.org/2000/svg" width="32" height="32" viewBox="0 0 32 32">
<title>lock-shield-regular</title>
<path d="M8 8.333v2.333h-2.167c-1.749 0-3.167 1.418-3.167 3.167v0 12.333c0 1.749 1.418 3.167 3.167 3.167v0h15c0.127 0 0.251-0.007 0.373-0.022-0.321-0.237-0.601-0.466-0.869-0.708l0.010 0.009c-0.33-0.297-0.633-0.606-0.915-0.933l-0.011-0.013h-13.589c-0.828 0-1.5-0.672-1.5-1.5v0-12.333c0-0.828 0.672-1.5 1.5-1.5v0h15c0.828 0 1.5 0.672 1.5 1.5v0 1.689c0.127-0.111 0.237-0.211 0.346-0.313l0.022-0.020 0.005-0.005c0.329-0.32 0.779-0.517 1.275-0.517 0.007 0 0.014 0 0.020 0h-0.001v-0.833c0-1.749-1.418-3.167-3.167-3.167v0h-2.167v-2.333c0-2.946-2.388-5.333-5.333-5.333s-5.333 2.388-5.333 5.333v0zM13.333 4.667c2.025 0 3.667 1.642 3.667 3.667v0 2.333h-7.333v-2.333c0-2.025 1.642-3.667 3.667-3.667v0zM15.333 20c0 1.105-0.895 2-2 2s-2-0.895-2-2v0c0-1.105 0.895-2 2-2s2 0.895 2 2v0zM18.667 18.507v3.827c0 4.322 4.209 6.532 5.148 6.971 0.054 0.026 0.117 0.042 0.184 0.042s0.13-0.015 0.187-0.043l-0.003 0.001c0.939-0.436 5.15-2.631 5.15-6.829v-3.969c-0.003-0.28-0.227-0.507-0.506-0.514h-0.001c-0.641-0.022-1.751-0.103-2.494-0.393-0.691-0.269-1.489-0.98-1.95-1.43-0.099-0.095-0.234-0.154-0.383-0.154s-0.284 0.059-0.383 0.154l0-0c-0.461 0.45-1.26 1.16-1.95 1.43-0.742 0.29-1.852 0.371-2.493 0.393-0.279 0.007-0.503 0.234-0.507 0.514v0z"></path>
</svg>
