<!-- Generated by IcoMoon.io -->
<svg version="1.1" xmlns="http://www.w3.org/2000/svg" width="32" height="32" viewBox="0 0 32 32">
<title>lock-closed-regular</title>
<path d="M18 20c0 1.105-0.895 2-2 2s-2-0.895-2-2v0c0-1.105 0.895-2 2-2s2 0.895 2 2v0zM10 10v-2c0-3.314 2.686-6 6-6s6 2.686 6 6v0 2h1.5c1.933 0 3.5 1.567 3.5 3.5v0 13c0 1.933-1.567 3.5-3.5 3.5v0h-15c-1.933 0-3.5-1.567-3.5-3.5v0-13c0-1.933 1.567-3.5 3.5-3.5v0h1.5zM12 8v2h8v-2c0-2.209-1.791-4-4-4s-4 1.791-4 4v0zM8.5 12c-0.828 0-1.5 0.672-1.5 1.5v0 13c0 0.828 0.672 1.5 1.5 1.5v0h15c0.828 0 1.5-0.672 1.5-1.5v0-13c0-0.828-0.672-1.5-1.5-1.5v0h-15z"></path>
</svg>
