<!-- Generated by IcoMoon.io -->
<svg version="1.1" xmlns="http://www.w3.org/2000/svg" width="32" height="32" viewBox="0 0 32 32">
<title>lottery</title>
<path d="M18.864 6.293c-0.591-0.982-1.652-1.629-2.864-1.629s-2.273 0.647-2.856 1.614l-0.008 0.015c-0.541-0.3-1.168-0.549-1.828-0.716l-0.055-0.012c0.903-1.736 2.689-2.902 4.747-2.902s3.843 1.165 4.733 2.872l0.014 0.029c-0.715 0.179-1.341 0.428-1.924 0.749l0.041-0.021zM12.512 9.916c0.638-0.229 1.386-0.407 2.159-0.502l0.051-0.005c-1.227-1.668-3.181-2.738-5.386-2.738-3.682 0-6.667 2.985-6.667 6.667 0 2.205 1.070 4.16 2.72 5.373l0.018 0.013c0.1-0.825 0.278-1.573 0.531-2.286l-0.023 0.074c-0.78-0.832-1.259-1.954-1.259-3.188 0-2.577 2.089-4.667 4.667-4.667 1.234 0 2.356 0.479 3.191 1.261l-0.003-0.002zM26.592 18.723c1.668-1.227 2.738-3.181 2.738-5.386 0-3.682-2.985-6.667-6.667-6.667-2.205 0-4.16 1.070-5.373 2.72l-0.013 0.018c0.825 0.1 1.572 0.279 2.285 0.531l-0.074-0.023c0.832-0.78 1.954-1.259 3.188-1.259 2.577 0 4.667 2.089 4.667 4.667 0 1.234-0.479 2.356-1.261 3.191l0.002-0.003c0.244 0.707 0.416 1.447 0.507 2.211zM12.667 17.667c0-0.552 0.448-1 1-1v0h5.667c0.552 0 0.999 0.448 0.999 1 0 0.299-0.131 0.567-0.338 0.75l-0.001 0.001v0.001l-0.017 0.015-0.071 0.067c-0.437 0.427-0.841 0.883-1.211 1.367l-0.022 0.030c-0.743 0.975-1.584 2.36-2.040 4.032-0.119 0.429-0.506 0.738-0.965 0.738-0.553 0-1-0.448-1-1 0-0.093 0.013-0.184 0.037-0.27l-0.002 0.007c0.544-1.995 1.536-3.609 2.377-4.717l0.015-0.020h-3.427c-0.552 0-1-0.448-1-1v0zM16 29.333c5.155 0 9.333-4.179 9.333-9.333s-4.179-9.333-9.333-9.333v0c-5.155 0-9.333 4.179-9.333 9.333s4.179 9.333 9.333 9.333v0zM16 27.333c-4.050 0-7.333-3.283-7.333-7.333s3.283-7.333 7.333-7.333v0c4.050 0 7.333 3.283 7.333 7.333s-3.283 7.333-7.333 7.333v0z"></path>
</svg>
