<!-- Generated by IcoMoon.io -->
<svg version="1.1" xmlns="http://www.w3.org/2000/svg" width="32" height="32" viewBox="0 0 32 32">
<title>luggage</title>
<path d="M10 13c0-0.552 0.448-1 1-1h10c0.552 0 1 0.448 1 1s-0.448 1-1 1h-10c-0.552 0-1-0.448-1-1zM11.667 2c-0.552 0-1 0.448-1 1s0.448 1 1 1h0.333v1.333h-2.333c-2.393 0-4.333 1.94-4.333 4.333v13.333c0 2.301 1.794 4.184 4.060 4.325-0.039 0.107-0.060 0.222-0.060 0.342v0.667c0 0.552 0.448 1 1 1s1-0.448 1-1v-0.667c0-0.117-0.020-0.229-0.057-0.333h9.447c-0.037 0.104-0.057 0.216-0.057 0.333v0.667c0 0.552 0.448 1 1 1s1-0.448 1-1v-0.667c0-0.12-0.021-0.235-0.060-0.342 2.266-0.141 4.060-2.023 4.060-4.325v-13.333c0-2.393-1.94-4.333-4.333-4.333h-2.333v-1.333h0.333c0.552 0 1-0.448 1-1s-0.448-1-1-1h-8.667zM18 4v1.333h-4v-1.333h4zM9.667 7.333h12.667c1.289 0 2.333 1.045 2.333 2.333v13.333c0 1.289-1.045 2.333-2.333 2.333h-12.667c-1.289 0-2.333-1.045-2.333-2.333v-13.333c0-1.289 1.045-2.333 2.333-2.333z"></path>
</svg>
