<!-- Generated by IcoMoon.io -->
<svg version="1.1" xmlns="http://www.w3.org/2000/svg" width="32" height="32" viewBox="0 0 32 32">
<title>mail-arrow-down-regular</title>
<path d="M27.2 23.2v-6.56c0.609-0.314 1.133-0.663 1.614-1.063l-0.015 0.012v7.611c0 2.209-1.791 4-4 4v0h-17.6c-2.209 0-4-1.791-4-4v0-12.8c0-2.209 1.791-4 4-4v0h7.531c-0.137 0.462-0.241 1.006-0.293 1.565l-0.003 0.035h-7.235c-1.325 0-2.4 1.075-2.4 2.4v0 0.483l11.2 6.589 2.306-1.357c0.52 0.347 1.078 0.642 1.669 0.875l-3.568 2.099c-0.116 0.069-0.256 0.11-0.405 0.11-0.099 0-0.194-0.018-0.282-0.051l0.005 0.002-0.131-0.061-10.794-6.349v10.459c0 1.325 1.075 2.4 2.4 2.4v0h17.6c1.325 0 2.4-1.075 2.4-2.4v0zM23.2 16c-3.976 0-7.2-3.224-7.2-7.2s3.224-7.2 7.2-7.2v0c3.976 0 7.2 3.224 7.2 7.2s-3.224 7.2-7.2 7.2v0zM19.434 9.366l3.205 3.203c0.143 0.142 0.34 0.229 0.557 0.23h0.010c0.219-0.001 0.417-0.090 0.56-0.234l3.2-3.2c0.145-0.145 0.235-0.345 0.235-0.566 0-0.442-0.358-0.8-0.8-0.8-0.221 0-0.421 0.089-0.566 0.234v0l-1.834 1.835v-4.469c0-0.442-0.358-0.8-0.8-0.8s-0.8 0.358-0.8 0.8v0 4.469l-1.834-1.835c-0.145-0.145-0.345-0.235-0.566-0.235-0.442 0-0.801 0.359-0.801 0.801 0 0.221 0.090 0.421 0.235 0.566v0z"></path>
</svg>
