<!-- Generated by IcoMoon.io -->
<svg version="1.1" xmlns="http://www.w3.org/2000/svg" width="32" height="32" viewBox="0 0 32 32">
<title>mail-edit</title>
<path d="M25 4l-18.246 0.007c-2.279 0.127-4.087 2.016-4.087 4.326v12.667l0.007 0.246c0.127 2.279 2.016 4.087 4.326 4.087h8.623c0.245-0.563 0.594-1.076 1.031-1.514l0.486-0.486-10.331-0.008c-1.199-0.097-2.142-1.101-2.142-2.326v-9.835l10.868 5.72 0.128 0.056c0.262 0.094 0.553 0.075 0.803-0.056l10.868-5.721v3.512c0.678-0.044 1.364 0.068 2 0.338v-6.68l-0.007-0.246c-0.128-2.279-2.016-4.087-4.327-4.087zM7 6l18.191 0.008c1.199 0.097 2.142 1.101 2.142 2.326v0.571l-11.333 5.966-11.333-5.965v-0.572l0.008-0.191c0.097-1.199 1.101-2.142 2.326-2.142zM25.467 16.893l-7.87 7.87c-0.459 0.459-0.784 1.034-0.942 1.663l-0.61 2.441c-0.265 1.061 0.696 2.023 1.758 1.758l2.441-0.61c0.629-0.157 1.204-0.483 1.663-0.942l7.87-7.87c1.19-1.19 1.19-3.12 0-4.31s-3.12-1.19-4.31 0z"></path>
</svg>
