<!-- Generated by IcoMoon.io -->
<svg version="1.1" xmlns="http://www.w3.org/2000/svg" width="32" height="32" viewBox="0 0 32 32">
<title>mail-inbox-all</title>
<path d="M8.333 4h15.333c0 0 0 0 0 0 2.307 0 4.193 1.803 4.326 4.076l0.001 0.012 0.007 0.245v15.333c0 0 0 0 0 0 0 2.307-1.803 4.193-4.076 4.326l-0.012 0.001-0.245 0.007h-15.333c-0 0-0 0-0 0-2.307 0-4.193-1.803-4.326-4.076l-0.001-0.012-0.007-0.245v-15.333c0-0 0-0 0-0 0-2.307 1.803-4.193 4.076-4.326l0.012-0.001 0.245-0.007zM11.1 19.333h-5.1v4.333c0 1.221 0.938 2.223 2.133 2.325l0.009 0.001 0.192 0.008h15.333c1.221-0 2.224-0.939 2.325-2.134l0.001-0.009 0.008-0.191v-4.333h-5.1c-0.464 2.21-2.338 3.866-4.62 3.993l-0.013 0.001-0.267 0.007c-2.317-0-4.267-1.576-4.835-3.714l-0.008-0.035-0.057-0.251zM23.667 6h-15.333c-1.221 0-2.223 0.938-2.325 2.133l-0.001 0.009-0.008 0.192v9h6c0.504 0 0.921 0.373 0.99 0.859l0.001 0.005 0.009 0.136c0 0.002 0 0.004 0 0.006 0 1.657 1.343 3 3 3 1.587 0 2.885-1.232 2.993-2.791l0-0.009 0.007-0.205c0-0.504 0.373-0.921 0.859-0.99l0.005-0.001 0.136-0.009h6v-9c-0-1.221-0.939-2.224-2.134-2.325l-0.009-0.001-0.191-0.008zM9 12.667h14c0.552 0 1 0.448 1 1 0 0.504-0.373 0.921-0.858 0.99l-0.005 0.001-0.136 0.009h-14c-0.552-0-1-0.448-1-1 0-0.504 0.373-0.921 0.858-0.99l0.005-0.001 0.136-0.009zM9 8.667h14c0.552 0 1 0.448 1 1 0 0.504-0.373 0.921-0.858 0.99l-0.005 0.001-0.136 0.009h-14c-0.552-0-1-0.448-1-1 0-0.504 0.373-0.921 0.858-0.99l0.005-0.001 0.136-0.009z"></path>
</svg>
