<!-- Generated by IcoMoon.io -->
<svg version="1.1" xmlns="http://www.w3.org/2000/svg" width="32" height="32" viewBox="0 0 32 32">
<title>mail-prohibited</title>
<path d="M23.429 16c4.103 0 7.429-3.326 7.429-7.429s-3.326-7.429-7.429-7.429v0c-4.103 0-7.429 3.326-7.429 7.429s3.326 7.429 7.429 7.429v0zM23.429 14.286c-0.002 0-0.005 0-0.008 0-1.273 0-2.448-0.418-3.395-1.124l0.015 0.011 7.99-7.99c0.695 0.935 1.113 2.113 1.113 3.389 0 3.156-2.558 5.714-5.714 5.714v0zM26.817 3.97l-7.99 7.99c-0.696-0.936-1.115-2.115-1.115-3.391 0-3.156 2.558-5.714 5.714-5.714 1.276 0 2.455 0.418 3.406 1.125l-0.015-0.011zM26.857 16.43v6.142l-0.007 0.163c-0.087 1.032-0.946 1.836-1.993 1.837l-17.879-0.007c-1.031-0.088-1.835-0.947-1.835-1.993v0-10.109l10.462 5.44 0.127 0.054c0.217 0.072 0.457 0.054 0.664-0.054l3.2-1.663c-0.626-0.317-1.166-0.675-1.659-1.088l0.014 0.011-1.95 1.014-10.857-5.647v-1.102l0.007-0.165c0.088-1.031 0.947-1.835 1.993-1.835h7.79c0.087-0.643 0.231-1.221 0.43-1.774l-0.019 0.059-8.411 0.006c-1.959 0.114-3.504 1.731-3.504 3.708 0 0 0 0 0 0v-0 13.143l0.006 0.21c0.115 1.959 1.731 3.504 3.708 3.504 0 0 0 0 0 0l17.925-0.006c1.959-0.114 3.504-1.731 3.504-3.708 0-0 0-0 0-0v0-7.143c-0.496 0.377-1.060 0.712-1.66 0.979l-0.054 0.022z"></path>
</svg>
