<!-- Generated by IcoMoon.io -->
<svg version="1.1" xmlns="http://www.w3.org/2000/svg" width="32" height="32" viewBox="0 0 32 32">
<title>mail</title>
<path d="M25.167 6c1.933 0 3.5 1.567 3.5 3.5v13c0 1.933-1.567 3.5-3.5 3.5h-18.333c-1.933 0-3.5-1.567-3.5-3.5v0-13c0-1.933 1.567-3.5 3.5-3.5h18.333zM27 12.234l-10.599 5.829c-0.116 0.065-0.254 0.103-0.402 0.103-0.114 0-0.223-0.023-0.322-0.064l0.005 0.002-0.085-0.040-10.599-5.831v10.267c0 1.013 0.821 1.833 1.833 1.833v0h18.333c1.013 0 1.833-0.821 1.833-1.833v0-10.266zM25.167 7.667h-18.333c-1.013 0-1.833 0.821-1.833 1.833v0 0.833l11 6.049 11-6.050v-0.832c0-1.013-0.821-1.833-1.833-1.833v0z"></path>
</svg>
