<!-- Generated by IcoMoon.io -->
<svg version="1.1" xmlns="http://www.w3.org/2000/svg" width="32" height="32" viewBox="0 0 32 32">
<title>mail-copy-regular</title>
<path d="M4 10.015c-1.21 0.781-2 2.123-2 3.649 0 0.001 0 0.002 0 0.003v-0 8c0 3.867 3.133 7 7 7h12c1.533 0 2.881-0.797 3.652-2h-15.652c-2.761 0-5-2.239-5-5v0-11.652zM25 5.333h-15.333c-0 0-0 0-0 0-2.307 0-4.193 1.803-4.326 4.076l-0.001 0.012-0.007 0.245v11.333c0 0 0 0 0 0 0 2.307 1.803 4.193 4.076 4.326l0.012 0.001 0.245 0.007h15.333c0 0 0 0 0 0 2.307 0 4.193-1.803 4.326-4.076l0.001-0.012 0.007-0.245v-11.333c0-0 0-0 0-0 0-2.307-1.803-4.193-4.076-4.326l-0.012-0.001-0.245-0.007zM7.333 11.865l9.533 5.020c0.135 0.072 0.295 0.115 0.466 0.115 0.121 0 0.238-0.022 0.345-0.061l-0.007 0.002 0.128-0.056 9.535-5.019v9.133c-0 1.221-0.939 2.224-2.134 2.325l-0.009 0.001-0.191 0.008h-15.333c-1.221-0-2.224-0.939-2.325-2.134l-0.001-0.009-0.008-0.191v-9.135zM9.667 7.333h15.333c1.221 0 2.223 0.938 2.325 2.133l0.001 0.009 0.005 0.133-9.997 5.261-10-5.263c0.034-1.263 1.065-2.273 2.333-2.273 0 0 0.001 0 0.001 0h-0z"></path>
</svg>
