<!-- Generated by IcoMoon.io -->
<svg version="1.1" xmlns="http://www.w3.org/2000/svg" width="32" height="32" viewBox="0 0 32 32">
<title>mail-list-regular</title>
<path d="M17.238 7.181c-0.060-0.182-0.095-0.392-0.095-0.61 0-0.311 0.071-0.606 0.198-0.868l-0.005 0.012-10.402 0.006c-1.959 0.114-3.504 1.731-3.504 3.708 0 0 0 0 0 0v-0 13.143l0.006 0.21c0.115 1.959 1.731 3.504 3.708 3.504 0 0 0 0 0 0l17.925-0.006c1.959-0.114 3.504-1.731 3.504-3.708 0-0 0-0 0-0v0-10.571h-4.541l-8.031 4.177-10.857-5.647v-1.102l0.007-0.165c0.088-1.031 0.947-1.835 1.993-1.835h10.193c-0.033-0.067-0.066-0.149-0.094-0.234l-0.004-0.014zM16.395 17.903l10.462-5.44v10.109l-0.007 0.163c-0.087 1.032-0.946 1.836-1.993 1.837l-17.879-0.007c-1.031-0.088-1.835-0.947-1.835-1.993v0-10.109l10.462 5.44 0.127 0.054c0.217 0.072 0.457 0.054 0.664-0.054zM18.286 3.143c0-0.473 0.384-0.857 0.857-0.857v0h9.714c0.473 0 0.857 0.384 0.857 0.857s-0.384 0.857-0.857 0.857v0h-9.714c-0.473 0-0.857-0.384-0.857-0.857v0zM19.143 5.714c-0.473 0-0.857 0.384-0.857 0.857s0.384 0.857 0.857 0.857v0h9.714c0.473 0 0.857-0.384 0.857-0.857s-0.384-0.857-0.857-0.857v0h-9.714zM18.286 10c0-0.473 0.384-0.857 0.857-0.857v0h9.714c0.473 0 0.857 0.384 0.857 0.857s-0.384 0.857-0.857 0.857v0h-9.714c-0.473 0-0.857-0.384-0.857-0.857v0z"></path>
</svg>
