<!-- Generated by IcoMoon.io -->
<svg version="1.1" xmlns="http://www.w3.org/2000/svg" width="32" height="32" viewBox="0 0 32 32">
<title>mail-read-regular</title>
<path d="M16.419 4.113l9.841 5.729c1.047 0.618 1.739 1.74 1.739 3.025v0 10.3c0 1.565-1.269 2.833-2.833 2.833v0h-18.333c-1.565 0-2.833-1.269-2.833-2.833v0-10.3c0-1.284 0.692-2.407 1.723-3.016l0.016-0.009 9.841-5.729c0.12-0.071 0.265-0.113 0.419-0.113s0.299 0.042 0.423 0.115l-0.004-0.002zM26.333 13.488l-9.916 5.733c-0.12 0.070-0.264 0.112-0.417 0.112-0.119 0-0.232-0.025-0.335-0.070l0.005 0.002-0.088-0.044-9.916-5.733v9.678c0 0.645 0.523 1.167 1.167 1.167h18.333c0.644 0 1.167-0.522 1.167-1.167v0-9.679zM16 5.797l-9.422 5.485c-0.218 0.128-0.401 0.292-0.546 0.486l-0.003 0.005 9.971 5.765 9.971-5.765c-0.149-0.198-0.331-0.363-0.541-0.486l-0.009-0.005-9.422-5.485z"></path>
</svg>
