<!-- Generated by IcoMoon.io -->
<svg version="1.1" xmlns="http://www.w3.org/2000/svg" width="32" height="32" viewBox="0 0 32 32">
<title>mail-unread</title>
<path d="M21.333 8.667h-14.333c-1.224 0-2.228 0.943-2.326 2.142l-0.005 0.133 9.997 5.262 8.039-4.232c0.844 0.841 2.009 1.362 3.295 1.362 0.227 0 0.45-0.016 0.668-0.047l-0.001 9.047c0 2.311-1.809 4.199-4.087 4.327l-0.246 0.007h-15.333c-2.311 0-4.199-1.809-4.326-4.087l-0.007-0.246v-11.333c0-2.311 1.809-4.199 4.087-4.326l0.246-0.007h14.782c-0.288 0.606-0.449 1.284-0.449 2zM24.667 13.199l-9.534 5.020c-0.25 0.131-0.542 0.15-0.803 0.056l-0.128-0.056-9.534-5.018v9.133c0 1.224 0.943 2.228 2.142 2.326l0.191 0.008h15.333c1.224 0 2.228-0.943 2.326-2.142l0.008-0.191v-9.135zM26 5.333c1.841 0 3.333 1.492 3.333 3.333s-1.492 3.333-3.333 3.333c-1.841 0-3.333-1.492-3.333-3.333s1.492-3.333 3.333-3.333z"></path>
</svg>
