<!-- Generated by IcoMoon.io -->
<svg version="1.1" xmlns="http://www.w3.org/2000/svg" width="32" height="32" viewBox="0 0 32 32">
<title>mail-read-multiple</title>
<path d="M14.004 3.132c0.142-0.083 0.314-0.132 0.496-0.132s0.354 0.049 0.501 0.134l-0.005-0.003 9.492 5.424c0.91 0.527 1.512 1.495 1.512 2.604v8.34c0 2.485-2.015 4.5-4.5 4.5v0h-14c-2.485 0-4.5-2.015-4.5-4.5v0-8.34c0-1.109 0.603-2.077 1.498-2.596l0.014-0.008 9.492-5.424zM6.016 10l8.484 4.848 8.484-4.848-8.484-4.848-8.484 4.848zM24 11.723l-9.004 5.145c-0.142 0.083-0.314 0.132-0.496 0.132s-0.354-0.049-0.501-0.134l0.005 0.003-9.004-5.145v7.777c0 1.381 1.119 2.5 2.5 2.5v0h14c1.381 0 2.5-1.119 2.5-2.5v0-7.777zM11.002 27.5c-0.001 0-0.002 0-0.003 0-1.555 0-2.925-0.789-3.733-1.989l-0.010-0.016c0.081 0.003 0.163 0.005 0.245 0.005h15c2.761 0 5-2.239 5-5v0-10.224l0.489 0.28c0.91 0.527 1.512 1.496 1.512 2.605 0 0 0 0 0 0v0 7.34c0 3.866-3.134 7-7 7v0h-11.5z"></path>
</svg>
