<!-- Generated by IcoMoon.io -->
<svg version="1.1" xmlns="http://www.w3.org/2000/svg" width="32" height="32" viewBox="0 0 32 32">
<title>mail-inbox</title>
<path d="M8.333 4h15.333c2.311 0 4.199 1.809 4.327 4.087l0.007 0.246v15.333c0 2.311-1.809 4.199-4.087 4.327l-0.246 0.007h-15.333c-2.311 0-4.199-1.809-4.326-4.087l-0.007-0.246v-15.333c0-2.311 1.809-4.199 4.087-4.326l0.246-0.007zM6 19.333v4.333c0 1.224 0.943 2.228 2.142 2.326l0.191 0.008h15.333c1.224 0 2.228-0.943 2.326-2.142l0.008-0.191v-4.333h-5.1c-0.446 2.198-2.334 3.872-4.633 3.993l-0.267 0.007c-2.329 0-4.287-1.593-4.842-3.749l-0.058-0.251h-5.1zM23.667 6h-15.333c-1.224 0-2.228 0.943-2.326 2.142l-0.008 0.191v9h6c0.506 0 0.925 0.376 0.991 0.864l0.009 0.136c0 1.657 1.343 3 3 3 1.588 0 2.887-1.234 2.993-2.795l0.007-0.205c0-0.506 0.376-0.925 0.864-0.991l0.136-0.009h6v-9c0-1.224-0.943-2.228-2.142-2.326l-0.191-0.008z"></path>
</svg>
