<!-- Generated by IcoMoon.io -->
<svg version="1.1" xmlns="http://www.w3.org/2000/svg" width="32" height="32" viewBox="0 0 32 32">
<title>mail-read</title>
<path d="M4.133 10.892l11.355-6.752c0.27-0.161 0.597-0.183 0.883-0.069l0.139 0.069 11.355 6.752c0.845 0.502 1.385 1.383 1.458 2.353l0.008 0.225v10.196c0 2.311-1.809 4.199-4.087 4.327l-0.246 0.007h-18c-2.311 0-4.199-1.809-4.326-4.087l-0.007-0.246v-10.196c0-0.982 0.481-1.897 1.277-2.456l0.189-0.122zM27.333 14.547l-10.871 5.673c-0.241 0.126-0.522 0.147-0.776 0.063l-0.149-0.063-10.871-5.673v9.12c0 1.224 0.943 2.228 2.142 2.326l0.191 0.008h18c1.224 0 2.228-0.943 2.326-2.142l0.008-0.191v-9.12zM16 6.163l-10.789 6.414 10.789 5.628 10.787-5.629-10.787-6.413z"></path>
</svg>
