<!-- Generated by IcoMoon.io -->
<svg version="1.1" xmlns="http://www.w3.org/2000/svg" width="32" height="32" viewBox="0 0 32 32">
<title>mail-link</title>
<path d="M30.667 9c0-2.761-2.239-5-5-5l-0.136 0.009c-0.488 0.066-0.864 0.485-0.864 0.991 0 0.552 0.448 1 1 1l0.205 0.007c1.561 0.106 2.795 1.405 2.795 2.993 0 1.657-1.343 3-3 3l-0.005 0.006-0.136 0.010c-0.488 0.068-0.862 0.489-0.86 0.995 0.003 0.552 0.452 0.998 1.005 0.995v-0.006l0.265-0.007c2.634-0.138 4.73-2.321 4.73-4.993zM22 5c0-0.552-0.448-1-1-1l-0.266 0.007c-2.638 0.138-4.734 2.321-4.734 4.993 0 2.761 2.239 5 5 5l0.136-0.009c0.488-0.066 0.864-0.485 0.864-0.991 0-0.552-0.448-1-1-1l-0.205-0.007c-1.561-0.106-2.795-1.405-2.795-2.993 0-1.657 1.343-3 3-3l0.136-0.009c0.488-0.066 0.864-0.485 0.864-0.991zM26.667 9c0-0.552-0.448-1-1-1h-4.667l-0.136 0.009c-0.488 0.066-0.864 0.485-0.864 0.991 0 0.552 0.448 1 1 1h4.667l0.136-0.009c0.488-0.066 0.864-0.485 0.864-0.991zM7 5.333h8.835c-0.425 0.598-0.749 1.273-0.947 2h-7.888c-1.224 0-2.228 0.943-2.326 2.142l-0.008 0.191v0.572l11.333 5.965 2.57-1.353c0.748 0.311 1.569 0.483 2.43 0.483h0.946l-5.48 2.885c-0.25 0.131-0.542 0.15-0.803 0.056l-0.128-0.056-10.868-5.72v9.835c0 1.224 0.943 2.228 2.142 2.326l0.191 0.008h18c1.224 0 2.228-0.943 2.326-2.142l0.008-0.191v-7.222c0.727-0.198 1.402-0.522 2-0.947v8.169c0 2.311-1.809 4.199-4.087 4.327l-0.246 0.007h-18c-2.311 0-4.199-1.809-4.326-4.087l-0.007-0.246v-12.667c0-2.311 1.809-4.199 4.087-4.326l0.246-0.007z"></path>
</svg>
