<!-- Generated by IcoMoon.io -->
<svg version="1.1" xmlns="http://www.w3.org/2000/svg" width="32" height="32" viewBox="0 0 32 32">
<title>mail-edit-regular</title>
<path d="M25 4l-18.245 0.007c-2.285 0.134-4.088 2.019-4.088 4.326 0 0 0 0 0 0v-0 12.667l0.007 0.245c0.134 2.285 2.019 4.088 4.326 4.088 0 0 0 0 0 0h8.623c0.245-0.563 0.593-1.076 1.031-1.513l0.487-0.487-10.332-0.008c-1.203-0.102-2.141-1.104-2.141-2.325v0-9.835l10.867 5.72 0.129 0.056c0.1 0.037 0.217 0.059 0.338 0.059 0.17 0 0.33-0.042 0.47-0.117l-0.005 0.003 10.868-5.721v3.512c0.087-0.006 0.188-0.010 0.289-0.010 0.618 0 1.206 0.128 1.739 0.358l-0.029-0.011v-6.68l-0.007-0.245c-0.134-2.285-2.019-4.088-4.326-4.088-0 0-0 0-0 0h0zM7 6l18.191 0.008c1.204 0.102 2.143 1.104 2.143 2.325v0 0.571l-11.333 5.965-11.333-5.963v-0.573l0.008-0.192c0.102-1.203 1.104-2.141 2.325-2.141v0zM25.467 16.893l-7.871 7.869c-0.446 0.446-0.774 1.008-0.936 1.638l-0.005 0.025-0.611 2.441c-0.027 0.106-0.043 0.227-0.043 0.352 0 0.8 0.649 1.449 1.449 1.449 0.125 0 0.247-0.016 0.363-0.046l-0.010 0.002 2.44-0.609c0.655-0.167 1.218-0.496 1.664-0.943l7.869-7.869c0.522-0.546 0.843-1.288 0.843-2.104 0-1.683-1.365-3.048-3.048-3.048-0.817 0-1.558 0.321-2.105 0.844l0.001-0.001z"></path>
</svg>
