<!-- Generated by IcoMoon.io -->
<svg version="1.1" xmlns="http://www.w3.org/2000/svg" width="32" height="32" viewBox="0 0 32 32">
<title>mail-inbox-dismiss-regular</title>
<path d="M29.714 8.571c0 4.103-3.326 7.429-7.429 7.429s-7.429-3.326-7.429-7.429v0c0-4.103 3.326-7.429 7.429-7.429s7.429 3.326 7.429 7.429v0zM19.262 4.738c-0.104-0.104-0.247-0.168-0.405-0.168-0.316 0-0.572 0.256-0.572 0.572 0 0.158 0.064 0.301 0.168 0.405l3.025 3.024-3.025 3.024c-0.104 0.104-0.168 0.247-0.168 0.405 0 0.316 0.256 0.572 0.572 0.572 0.158 0 0.301-0.064 0.405-0.168l3.024-3.025 3.024 3.025c0.104 0.104 0.247 0.168 0.405 0.168 0.316 0 0.572-0.256 0.572-0.572 0-0.158-0.064-0.301-0.168-0.405l-3.025-3.024 3.025-3.024c0.104-0.104 0.168-0.247 0.168-0.405 0-0.316-0.256-0.572-0.572-0.572-0.158 0-0.301 0.064-0.405 0.168l-3.024 3.025-3.024-3.025zM28.571 26v-11.6c-0.501 0.538-1.064 1.008-1.68 1.402l-0.035 0.021v2.463h-6.857l-0.117 0.008c-0.421 0.059-0.741 0.417-0.741 0.849v0c0 1.736-1.407 3.143-3.143 3.143s-3.143-1.407-3.143-3.143v0l-0.008-0.117c-0.059-0.421-0.417-0.741-0.849-0.741h-6.857v-10c0-1.104 0.896-2 2-2h6.88c0.183-0.656 0.415-1.225 0.702-1.76l-0.022 0.045h-7.56c-2.051 0-3.714 1.663-3.714 3.714v0 17.714c0 2.051 1.663 3.714 3.714 3.714v0h17.714c2.051 0 3.714-1.663 3.714-3.714v0zM5.143 26v-6h6.075l0.048 0.233c0.514 2.174 2.438 3.766 4.734 3.767h0l0.246-0.006c2.276-0.119 4.129-1.787 4.531-3.964l0.005-0.030h6.075v6c0 1.105-0.895 2-2 2v0h-17.714c-1.105 0-2-0.895-2-2v0z"></path>
</svg>
