<!-- Generated by IcoMoon.io -->
<svg version="1.1" xmlns="http://www.w3.org/2000/svg" width="32" height="32" viewBox="0 0 32 32">
<title>mail-attach-regular</title>
<path d="M18.032 17.045l-1.641 0.853c-0.115 0.061-0.251 0.097-0.395 0.097-0.096 0-0.188-0.016-0.274-0.045l0.006 0.002-0.127-0.054-10.458-5.438v10.105c0 1.048 0.807 1.909 1.835 1.992l0.163 0.007h17.709c1.047-0 1.905-0.804 1.993-1.828l0-0.007 0.007-0.163v-8.878l1.714-1.717v10.594c-0.001 1.977-1.546 3.592-3.494 3.706l-0.010 0-0.21 0.006h-17.707c-1.976-0-3.592-1.544-3.707-3.492l-0-0.010-0.007-0.21v-13.138c0-0 0-0 0-0 0-1.977 1.545-3.593 3.493-3.707l0.010-0 0.21-0.006h12.882l-1.714 1.714h-11.167c0 0 0 0-0 0-1.046 0-1.905 0.803-1.993 1.827l-0 0.007-0.006 0.165v1.101l10.854 5.646 1.243-0.648c0.135 0.549 0.398 1.071 0.792 1.52zM25.090 4.686c0.426-0.408 1.004-0.658 1.641-0.658 1.312 0 2.375 1.063 2.375 2.375 0 0.637-0.251 1.216-0.659 1.642l0.001-0.001-7.146 7.158c-0.137 0.13-0.323 0.21-0.528 0.21-0.424 0-0.768-0.344-0.768-0.768 0-0.205 0.080-0.391 0.211-0.528l-0 0 5.81-5.797c0.162-0.156 0.262-0.375 0.262-0.617 0-0.473-0.384-0.857-0.857-0.857-0.242 0-0.46 0.1-0.616 0.261l-0 0-5.809 5.797c-0.478 0.453-0.776 1.093-0.776 1.803 0 1.371 1.111 2.482 2.482 2.482 0.71 0 1.35-0.298 1.802-0.775l0.001-0.001 7.145-7.157c0.767-0.744 1.244-1.785 1.244-2.936 0-2.258-1.83-4.088-4.088-4.088-1.152 0-2.192 0.476-2.935 1.243l-0.001 0.001-6.489 6.488c-0.168 0.157-0.273 0.38-0.273 0.627 0 0.473 0.384 0.857 0.857 0.857 0.247 0 0.47-0.105 0.627-0.272l0-0.001 6.488-6.488z"></path>
</svg>
