<!-- Generated by IcoMoon.io -->
<svg version="1.1" xmlns="http://www.w3.org/2000/svg" width="32" height="32" viewBox="0 0 32 32">
<title>mail-inbox-arrow-right</title>
<path d="M13.998 5.332c-0.264 0.632-0.455 1.302-0.563 2l-5.102 0.001c-1.224 0-2.228 0.943-2.326 2.142l-0.008 0.191v8.999l6 0.001c0.506 0 0.925 0.376 0.991 0.864l0.009 0.136c0 1.657 1.343 3 3 3 1.588 0 2.887-1.234 2.993-2.795l0.007-0.205c0-0.506 0.376-0.925 0.864-0.991l0.136-0.009 6-0.001 0.001-2.309c0.735-0.383 1.407-0.868 2-1.437l-0.001 10.081c0 2.311-1.809 4.199-4.087 4.327l-0.246 0.007h-15.333c-2.311 0-4.199-1.809-4.326-4.087l-0.007-0.246v-15.333c0-2.311 1.809-4.199 4.087-4.326l0.246-0.007 5.665-0.001zM26 20.665l-5.1 0.001c-0.446 2.198-2.334 3.872-4.633 3.993l-0.267 0.007c-2.419 0-4.437-1.718-4.9-4l-5.1-0.001v4.335c0 1.224 0.943 2.228 2.142 2.326l0.191 0.008h15.333c1.224 0 2.228-0.943 2.326-2.142l0.008-0.191v-4.335zM22 1.333c4.050 0 7.333 3.283 7.333 7.333s-3.283 7.333-7.333 7.333c-4.050 0-7.333-3.283-7.333-7.333s3.283-7.333 7.333-7.333zM22.288 4.785l-0.092 0.077-0.077 0.092c-0.157 0.227-0.157 0.531 0 0.758l0.077 0.092 2.194 2.195h-7.056l-0.12 0.011c-0.272 0.049-0.487 0.264-0.536 0.536l-0.011 0.12 0.011 0.12c0.049 0.272 0.264 0.487 0.536 0.536l0.12 0.011h7.056l-2.194 2.195-0.077 0.092c-0.18 0.26-0.154 0.619 0.077 0.85s0.591 0.257 0.851 0.077l0.092-0.077 3.389-3.397 0.044-0.063 0.045-0.090 0.028-0.084 0.019-0.109 0.003-0.062-0.004-0.071-0.018-0.1-0.040-0.111-0.056-0.098-0.061-0.075-3.349-3.35-0.092-0.077c-0.227-0.157-0.531-0.157-0.758 0z"></path>
</svg>
