<!-- Generated by IcoMoon.io -->
<svg version="1.1" xmlns="http://www.w3.org/2000/svg" width="32" height="32" viewBox="0 0 32 32">
<title>mail-all-read-regular</title>
<path d="M15.255 3.070c-0.115-0.062-0.252-0.098-0.398-0.098s-0.282 0.036-0.402 0.1l0.005-0.002-9.661 5.065c-0.821 0.437-1.37 1.287-1.37 2.265v0 9.886c0 2.051 1.663 3.714 3.714 3.714v0h15.429c2.051 0 3.714-1.663 3.714-3.714v0-9.886c0-0.951-0.528-1.824-1.37-2.265l-9.661-5.065zM5.594 9.653l9.263-4.857 9.263 4.857c0.133 0.071 0.242 0.173 0.32 0.296l0.002 0.003-9.585 5.078-9.585-5.078c0.080-0.127 0.189-0.228 0.318-0.297l0.005-0.002zM15.258 16.758l9.313-4.934v8.462c0 1.105-0.895 2-2 2v0h-15.429c-1.105 0-2-0.895-2-2v0-8.462l9.313 4.934c0.116 0.063 0.254 0.1 0.401 0.1s0.285-0.037 0.406-0.102l-0.005 0.002zM6.87 25.143c0.67 1.037 1.82 1.714 3.128 1.714 0.001 0 0.002 0 0.004 0h13.143c3.314 0 6-2.686 6-6v-8.571c0-0 0-0.001 0-0.002 0-1.309-0.677-2.459-1.7-3.121l-0.015-0.009v11.703c0 2.367-1.919 4.286-4.286 4.286-0 0-0.001 0-0.001 0h-16.274z"></path>
</svg>
