<!-- Generated by IcoMoon.io -->
<svg version="1.1" xmlns="http://www.w3.org/2000/svg" width="32" height="32" viewBox="0 0 32 32">
<title>mail-warning</title>
<path d="M21.548 2.44l-5.329 10.664c-0.134 0.261-0.212 0.569-0.212 0.896 0 1.105 0.895 2 2 2 0.001 0 0.002 0 0.003 0h10.659c0.001 0 0.002 0 0.003 0 1.105 0 2-0.895 2-2 0-0.327-0.078-0.635-0.217-0.907l0.005 0.011-5.329-10.664c-0.737-1.476-2.844-1.476-3.581 0zM24.005 5.995v4.001c0 0.368-0.298 0.667-0.667 0.667s-0.667-0.298-0.667-0.667v0-4.001c0-0.368 0.298-0.667 0.667-0.667s0.667 0.298 0.667 0.667v0zM23.339 13.332c-0.369 0-0.667-0.299-0.667-0.667s0.299-0.667 0.667-0.667v0c0.368 0 0.667 0.298 0.667 0.667s-0.298 0.667-0.667 0.667v0zM7 5.333h11.613l-1 2h-10.613c-1.221 0-2.223 0.938-2.325 2.133l-0.001 0.009-0.008 0.192v0.572l10.524 5.539c0.594 0.94 1.628 1.556 2.805 1.556 0.005 0 0.010 0 0.016-0h0.135l-1.68 0.885c-0.135 0.072-0.295 0.115-0.466 0.115-0.121 0-0.238-0.022-0.345-0.061l0.007 0.002-0.128-0.056-10.868-5.72v9.835c0 1.221 0.938 2.223 2.133 2.325l0.009 0.001 0.192 0.008h18c1.221-0 2.224-0.939 2.325-2.134l0.001-0.009 0.008-0.191v-5h1.333c0.229 0 0.453-0.023 0.667-0.065v5.065c0 0 0 0 0 0 0 2.307-1.803 4.193-4.076 4.326l-0.012 0.001-0.245 0.007h-18c-0 0-0 0-0 0-2.307 0-4.193-1.803-4.326-4.076l-0.001-0.012-0.007-0.245v-12.667c0-0 0-0 0-0 0-2.307 1.803-4.193 4.076-4.326l0.012-0.001 0.245-0.007z"></path>
</svg>
