<!-- Generated by IcoMoon.io -->
<svg version="1.1" xmlns="http://www.w3.org/2000/svg" width="32" height="32" viewBox="0 0 32 32">
<title>mail-open-person</title>
<path d="M16 4.825v0.005l-10.789 6.413 10.789 5.632 10.975-5.633-10.975-6.416zM15.776 18.975c-0.095-0.023-0.179-0.055-0.257-0.096l0.006 0.003-10.859-5.668v9.12c0 1.221 0.938 2.223 2.133 2.325l0.009 0.001 0.192 0.008h10.744c-0.259 0.491-0.411 1.072-0.411 1.689 0 0.002 0 0.005 0 0.007v-0 0.137c0 0.056 0 0.111 0.003 0.167h-10.336c-0 0-0 0-0 0-2.307 0-4.193-1.803-4.326-4.076l-0.001-0.012-0.007-0.245v-10.196c0-0.983 0.48-1.897 1.277-2.456l0.189-0.121 11.339-6.741c0.15-0.095 0.332-0.151 0.528-0.151 0.186 0 0.361 0.051 0.51 0.14l-0.005-0.003 12.004 7.019c0.498 0.294 0.827 0.829 0.827 1.439 0 0.643-0.364 1.201-0.897 1.479l-0.009 0.004-3.747 1.92h-0.016c-1.568 0-2.956 0.773-3.803 1.96l-4.408 2.263c-0.133 0.070-0.29 0.111-0.456 0.111-0.079 0-0.156-0.009-0.23-0.027l0.007 0.001zM28 19.333c0 1.841-1.492 3.333-3.333 3.333s-3.333-1.492-3.333-3.333v0c0-1.841 1.492-3.333 3.333-3.333s3.333 1.492 3.333 3.333v0zM30.667 26.5c0 2.075-1.715 4.167-6 4.167s-6-2.084-6-4.167v-0.137c0-1.307 1.059-2.363 2.364-2.363h7.272c1.307 0 2.364 1.057 2.364 2.363v0.137z"></path>
</svg>
