<!-- Generated by IcoMoon.io -->
<svg version="1.1" xmlns="http://www.w3.org/2000/svg" width="32" height="32" viewBox="0 0 32 32">
<title>mail-multiple</title>
<path d="M28.001 10.015c1.202 0.77 1.999 2.118 1.999 3.652v8c0 3.866-3.134 7-7 7h-12c-1.534 0-2.882-0.797-3.652-1.999l15.652-0.001c2.761 0 5-2.239 5-5l0.001-11.652zM7 5.333h15.333c2.311 0 4.199 1.809 4.327 4.087l0.007 0.246v11.333c0 2.311-1.809 4.199-4.087 4.327l-0.246 0.007h-15.333c-2.311 0-4.199-1.809-4.326-4.087l-0.007-0.246v-11.333c0-2.311 1.809-4.199 4.087-4.326l0.246-0.007zM24.667 11.865l-9.534 5.020c-0.25 0.131-0.542 0.15-0.803 0.056l-0.128-0.056-9.534-5.018v9.133c0 1.224 0.943 2.228 2.142 2.326l0.191 0.008h15.333c1.224 0 2.228-0.943 2.326-2.142l0.008-0.191v-9.135zM22.333 7.333h-15.333c-1.224 0-2.228 0.943-2.326 2.142l-0.005 0.133 9.997 5.262 9.999-5.264c-0.032-1.261-1.064-2.273-2.333-2.273z"></path>
</svg>
