<!-- Generated by IcoMoon.io -->
<svg version="1.1" xmlns="http://www.w3.org/2000/svg" width="32" height="32" viewBox="0 0 32 32">
<title>mail-template-regular</title>
<path d="M2.667 7c0-2.393 1.94-4.333 4.333-4.333v0h14c2.393 0 4.333 1.94 4.333 4.333v0 6.343c-0.098-0.006-0.212-0.009-0.328-0.009-0.002 0-0.004 0-0.006 0h-1.666v-6.333c0-1.289-1.045-2.333-2.333-2.333v0h-14c-1.289 0-2.333 1.045-2.333 2.333v0 15.333c0 1.288 1.045 2.333 2.333 2.333h1v0.333c0 0.58 0.087 1.14 0.249 1.667h-1.249c-2.393 0-4.333-1.94-4.333-4.333v0-15.333zM9 6.667c-0.552 0-1 0.448-1 1s0.448 1 1 1v0h10c0.552 0 1-0.448 1-1s-0.448-1-1-1v0h-10zM10.667 11c0-0.552 0.448-1 1-1v0h7.333c0.552 0 1 0.448 1 1s-0.448 1-1 1v0h-7.333c-0.552 0-1-0.448-1-1v0zM9.333 19c0-2.393 1.94-4.333 4.333-4.333v0h11.333c2.393 0 4.333 1.94 4.333 4.333v0 6c0 2.393-1.94 4.333-4.333 4.333v0h-11.333c-2.393 0-4.333-1.94-4.333-4.333v0-6zM13.667 16.667c-0.672 0-1.279 0.284-1.704 0.74l7.371 4.737 7.371-4.737c-0.426-0.456-1.031-0.74-1.702-0.74-0.001 0-0.002 0-0.002 0h-11.333zM11.333 25c0 1.288 1.045 2.333 2.333 2.333h11.333c1.289 0 2.333-1.045 2.333-2.333v0-5.621l-7.459 4.796c-0.153 0.1-0.34 0.159-0.541 0.159s-0.388-0.059-0.545-0.162l0.004 0.002-7.459-4.796v5.621z"></path>
</svg>
