<!-- Generated by IcoMoon.io -->
<svg version="1.1" xmlns="http://www.w3.org/2000/svg" width="32" height="32" viewBox="0 0 32 32">
<title>mail-clock-regular</title>
<path d="M23.333 1.333c4.050 0 7.333 3.283 7.333 7.333s-3.283 7.333-7.333 7.333v0c-4.050 0-7.333-3.283-7.333-7.333s3.283-7.333 7.333-7.333v0zM26 8.667h-2.667v-3.333c0-0.368-0.298-0.667-0.667-0.667s-0.667 0.298-0.667 0.667v0 4c0 0.368 0.298 0.667 0.667 0.667v0h3.333c0.368 0 0.667-0.298 0.667-0.667s-0.298-0.667-0.667-0.667v0zM27.333 22.333v-5.976c0.765-0.404 1.422-0.882 2.003-1.44l-0.003 0.003v7.413c0 0 0 0 0 0 0 2.307-1.803 4.193-4.076 4.326l-0.012 0.001-0.245 0.007h-18c-0 0-0 0-0 0-2.307 0-4.193-1.803-4.326-4.076l-0.001-0.012-0.007-0.245v-12.667c0-0 0-0 0-0 0-2.307 1.803-4.193 4.076-4.326l0.012-0.001 0.245-0.007h8.331c-0.249 0.577-0.445 1.25-0.556 1.951l-0.006 0.049h-7.768c-1.221 0-2.223 0.938-2.325 2.133l-0.001 0.009-0.008 0.192v0.572l11.333 5.964 1.74-0.916c0.585 0.495 1.236 0.913 1.939 1.24l-3.213 1.692c-0.135 0.072-0.295 0.115-0.465 0.115-0.121 0-0.237-0.022-0.345-0.061l0.007 0.002-0.128-0.056-10.868-5.72v9.835c0 1.221 0.938 2.223 2.133 2.325l0.009 0.001 0.192 0.008h18c1.221-0 2.224-0.939 2.325-2.134l0.001-0.009 0.008-0.191z"></path>
</svg>
