<!-- Generated by IcoMoon.io -->
<svg version="1.1" xmlns="http://www.w3.org/2000/svg" width="32" height="32" viewBox="0 0 32 32">
<title>mail-multiple-regular</title>
<path d="M7.143 5.714h15.429c0 0 0 0 0 0 1.977 0 3.594 1.545 3.708 3.494l0 0.010 0.006 0.21v10.857c0 0 0 0 0 0 0 1.977-1.545 3.594-3.494 3.708l-0.010 0-0.21 0.006h-15.429c-0 0-0 0-0 0-1.977 0-3.594-1.545-3.708-3.494l-0-0.010-0.006-0.21v-10.857c0-0 0-0 0-0 0-1.977 1.545-3.594 3.494-3.708l0.010-0 0.21-0.006zM24.571 11.855l-9.314 4.903c-0.116 0.063-0.254 0.099-0.4 0.099-0.104 0-0.203-0.018-0.295-0.052l0.006 0.002-0.11-0.048-9.315-4.903v8.43c0 1.047 0.804 1.905 1.828 1.993l0.007 0 0.165 0.007h15.429c1.047-0 1.906-0.805 1.993-1.829l0-0.007 0.007-0.163v-8.431zM22.571 7.429h-15.429c-1.047 0-1.905 0.804-1.993 1.828l-0 0.007-0.007 0.165v0.49l9.714 5.112 9.714-5.113v-0.489c-0-1.047-0.805-1.906-1.829-1.993l-0.007-0-0.163-0.007zM6.871 25.143c0.67 1.037 1.82 1.714 3.128 1.714 0.001 0 0.002 0 0.002 0h13.143c3.314 0 6-2.686 6-6v-8.571c0-0 0-0.001 0-0.002 0-1.309-0.677-2.459-1.7-3.121l-0.015-0.009v11.703c0 2.367-1.919 4.286-4.286 4.286-0 0-0.001 0-0.001 0h-16.274z"></path>
</svg>
