<!-- Generated by IcoMoon.io -->
<svg version="1.1" xmlns="http://www.w3.org/2000/svg" width="32" height="32" viewBox="0 0 32 32">
<title>mail-inbox</title>
<path d="M24.857 3.429c2.051 0 3.714 1.663 3.714 3.714v0 17.714c0 2.051-1.663 3.714-3.714 3.714v0h-17.714c-2.051 0-3.714-1.663-3.714-3.714v0-17.714c0-2.051 1.663-3.714 3.714-3.714v0h17.714zM5.143 24.857c0 1.104 0.896 2 2 2h17.714c1.105 0 2-0.895 2-2v0-6h-6.075c-0.407 2.207-2.26 3.875-4.524 3.994l-0.012 0-0.246 0.006c-2.296-0.001-4.219-1.593-4.727-3.734l-0.007-0.033-0.048-0.233h-6.075v6zM24.857 5.143h-17.714c-1.105 0-2 0.895-2 2v0 10h6.857c0.432 0 0.79 0.32 0.849 0.736l0.001 0.005 0.008 0.117c0 1.736 1.407 3.143 3.143 3.143s3.143-1.407 3.143-3.143v0c0-0.432 0.32-0.79 0.736-0.849l0.005-0.001 0.117-0.008h6.857v-10c0-1.105-0.895-2-2-2v0z"></path>
</svg>
