<!-- Generated by IcoMoon.io -->
<svg version="1.1" xmlns="http://www.w3.org/2000/svg" width="32" height="32" viewBox="0 0 32 32">
<title>mail-unread</title>
<path d="M20.449 7.333c-0.237 0.486-0.394 1.053-0.437 1.652l-0.001 0.015h-12.511c-1.013 0-1.833 0.821-1.833 1.833v0 0.395l9.667 5.8 6.564-3.938c0.526 0.393 1.154 0.68 1.837 0.818l0.030 0.005-8.002 4.802c-0.122 0.074-0.27 0.118-0.428 0.118-0.123 0-0.239-0.026-0.344-0.074l0.005 0.002-0.091-0.047-9.238-5.543v8.662c0 0.645 0.522 1.167 1.167 1.167h17c0.644 0 1.167-0.522 1.167-1.167v0-7.845c0.613-0.044 1.18-0.201 1.694-0.45l-0.028 0.012v8.283c0 1.565-1.269 2.833-2.833 2.833v0h-17c-1.565 0-2.833-1.269-2.833-2.833v0l-0.001-10.076c-0.001-0.018-0.002-0.039-0.002-0.061 0-0.018 0.001-0.036 0.002-0.053l-0 0.002 0.001-0.813c0-1.933 1.567-3.5 3.5-3.5h12.949zM24.667 6c1.841 0 3.333 1.492 3.333 3.333s-1.492 3.333-3.333 3.333v0c-1.841 0-3.333-1.492-3.333-3.333s1.492-3.333 3.333-3.333v0z"></path>
</svg>
