<!-- Generated by IcoMoon.io -->
<svg version="1.1" xmlns="http://www.w3.org/2000/svg" width="32" height="32" viewBox="0 0 32 32">
<title>mail-arrow-up</title>
<path d="M30.667 8.667c0 4.050-3.283 7.333-7.333 7.333s-7.333-3.283-7.333-7.333c0-4.050 3.283-7.333 7.333-7.333s7.333 3.283 7.333 7.333zM22.667 6.276v6.391c0 0.368 0.299 0.667 0.667 0.667s0.667-0.298 0.667-0.667v-6.391l2.195 2.195c0.26 0.26 0.683 0.26 0.943 0s0.26-0.682 0-0.943l-3.333-3.333c-0.26-0.26-0.683-0.26-0.943 0l-3.333 3.333c-0.26 0.26-0.26 0.682 0 0.943s0.683 0.26 0.943 0l2.195-2.195zM27.333 22.333v-5.976c0.735-0.383 1.408-0.868 2-1.437v7.413c0 2.311-1.809 4.199-4.087 4.327l-0.246 0.007h-18c-2.311 0-4.199-1.809-4.326-4.087l-0.007-0.246v-12.667c0-2.311 1.809-4.199 4.087-4.326l0.246-0.007h8.331c-0.264 0.632-0.455 1.302-0.562 2h-7.769c-1.224 0-2.228 0.943-2.326 2.142l-0.008 0.191v0.572l11.333 5.965 1.74-0.916c0.585 0.495 1.236 0.913 1.938 1.24l-3.213 1.691c-0.25 0.131-0.542 0.15-0.803 0.056l-0.128-0.056-10.868-5.72v9.835c0 1.224 0.943 2.228 2.142 2.326l0.191 0.008h18c1.224 0 2.228-0.943 2.326-2.142l0.008-0.191z"></path>
</svg>
