<!-- Generated by IcoMoon.io -->
<svg version="1.1" xmlns="http://www.w3.org/2000/svg" width="32" height="32" viewBox="0 0 32 32">
<title>mail-dismiss-regular</title>
<path d="M30.857 8.571c0 4.103-3.326 7.429-7.429 7.429s-7.429-3.326-7.429-7.429v0c0-4.103 3.326-7.429 7.429-7.429s7.429 3.326 7.429 7.429v0zM20.405 4.738c-0.104-0.104-0.247-0.168-0.405-0.168-0.316 0-0.572 0.256-0.572 0.572 0 0.158 0.064 0.301 0.168 0.405l3.025 3.024-3.025 3.024c-0.104 0.104-0.168 0.247-0.168 0.405 0 0.316 0.256 0.572 0.572 0.572 0.158 0 0.301-0.064 0.405-0.168l3.024-3.025 3.024 3.025c0.104 0.104 0.247 0.168 0.405 0.168 0.316 0 0.572-0.256 0.572-0.572 0-0.158-0.064-0.301-0.168-0.405l-3.025-3.024 3.025-3.024c0.104-0.104 0.168-0.247 0.168-0.405 0-0.316-0.256-0.572-0.572-0.572-0.158 0-0.301 0.064-0.405 0.168l-3.024 3.025-3.024-3.025zM26.857 22.571v-6.142c0.654-0.289 1.218-0.624 1.736-1.017l-0.021 0.015v7.142c0 0 0 0 0 0 0 1.977-1.545 3.594-3.494 3.708l-0.010 0-0.21 0.007h-17.714c-0 0-0 0-0 0-1.977 0-3.594-1.545-3.708-3.494l-0-0.010-0.006-0.21v-13.143c0-0 0-0 0-0 0-1.977 1.545-3.594 3.494-3.708l0.010-0 0.21-0.006h8.202c-0.181 0.493-0.325 1.072-0.406 1.67l-0.005 0.044h-7.791c-1.047 0-1.905 0.804-1.993 1.828l-0 0.007-0.007 0.165v1.102l10.857 5.646 1.95-1.013c0.503 0.418 1.054 0.781 1.646 1.077l-3.2 1.663c-0.115 0.061-0.251 0.097-0.395 0.097-0.096 0-0.188-0.016-0.274-0.045l0.006 0.002-0.128-0.054-10.462-5.44v10.109c0 1.047 0.804 1.905 1.828 1.993l0.007 0 0.165 0.007h17.714c1.047-0 1.906-0.805 1.993-1.829l0-0.007 0.007-0.163z"></path>
</svg>
