<!-- Generated by IcoMoon.io -->
<svg version="1.1" xmlns="http://www.w3.org/2000/svg" width="32" height="32" viewBox="0 0 32 32">
<title>mail</title>
<path d="M7 5.333h18c2.311 0 4.199 1.809 4.327 4.087l0.007 0.246v12.667c0 2.311-1.809 4.199-4.087 4.327l-0.246 0.007h-18c-2.311 0-4.199-1.809-4.326-4.087l-0.007-0.246v-12.667c0-2.311 1.809-4.199 4.087-4.326l0.246-0.007zM27.333 12.497l-10.868 5.721c-0.25 0.131-0.542 0.15-0.803 0.056l-0.128-0.056-10.868-5.72v9.835c0 1.224 0.943 2.228 2.142 2.326l0.191 0.008h18c1.224 0 2.228-0.943 2.326-2.142l0.008-0.191v-9.836zM25 7.333h-18c-1.224 0-2.228 0.943-2.326 2.142l-0.008 0.191v0.572l11.333 5.965 11.333-5.966v-0.571c0-1.224-0.943-2.228-2.142-2.326l-0.191-0.008z"></path>
</svg>
