<!-- Generated by IcoMoon.io -->
<svg version="1.1" xmlns="http://www.w3.org/2000/svg" width="32" height="32" viewBox="0 0 32 32">
<title>mail-off-regular</title>
<path d="M4.373 2.96c-0.183-0.196-0.443-0.318-0.732-0.318-0.552 0-1 0.448-1 1 0 0.289 0.122 0.549 0.318 0.731l0.001 0.001 1.667 1.667c-1.187 0.785-1.96 2.114-1.96 3.623 0 0.001 0 0.002 0 0.003v-0 12.667l0.007 0.245c0.134 2.285 2.019 4.088 4.326 4.088 0 0 0 0 0 0l18.245-0.007 2.38 2.38c0.18 0.174 0.425 0.281 0.695 0.281 0.552 0 1-0.448 1-1 0-0.27-0.107-0.515-0.281-0.695l-24.666-24.666zM23.253 24.667l-16.445-0.008c-1.203-0.102-2.141-1.104-2.141-2.325v0-9.835l10.867 5.72 0.129 0.056c0.1 0.037 0.217 0.059 0.338 0.059 0.17 0 0.33-0.042 0.47-0.117l-0.005 0.003 0.221-0.117 6.567 6.565zM13.444 14.857l-8.777-4.617v-0.573l0.008-0.192c0.076-0.885 0.634-1.623 1.409-1.954l0.015-0.006 7.344 7.343zM27.333 10.237l-8.421 4.433 1.48 1.48 6.941-3.653v9.836l-0.008 0.191c-0.014 0.174-0.045 0.335-0.092 0.488l0.004-0.016 1.512 1.511c0.367-0.622 0.584-1.37 0.584-2.168 0-0.002 0-0.004 0-0.005v0-12.667l-0.007-0.245c-0.134-2.285-2.019-4.088-4.326-4.088-0 0-0 0-0 0h-15.424l2 2 13.615 0.008c1.204 0.102 2.143 1.104 2.143 2.325v0 0.571z"></path>
</svg>
