<!-- Generated by IcoMoon.io -->
<svg version="1.1" xmlns="http://www.w3.org/2000/svg" width="32" height="32" viewBox="0 0 32 32">
<title>map-drive-regular</title>
<path d="M23.997 10.669c0.738 0 1.336-0.598 1.336-1.336s-0.598-1.336-1.336-1.336v0c-0.738 0-1.336 0.598-1.336 1.336s0.598 1.336 1.336 1.336v0zM5.667 4c-1.657 0-3 1.343-3 3v0 6.667c0 0.552 0.448 1 1 1h11.333v2.668h-1.333c-0.552 0-1 0.448-1 1v0 3.005h-2.331c-0.552 0-1 0.448-1 1v0 0.993h-5.669c-0.552 0-1 0.448-1 1s0.448 1 1 1v0h5.668v1.671c0 0.553 0.448 1 1 1h11.331c0.552 0 1-0.448 1-1v0-1.671h5.668c0.552 0 1-0.448 1-1s-0.448-1-1-1v0h-5.667v-0.993c0-0.552-0.448-1-1-1v0h-2.333v-3.007c0-0.552-0.448-1-1-1v0h-1.333v-2.667h11.333c0.552 0 1-0.448 1-1v0-6.667c0-1.657-1.343-3-3-3v0h-20.667zM4.667 7c0-0.552 0.448-1 1-1v0h20.667c0.552 0 1 0.448 1 1v0 5.667h-22.667v-5.667zM14.667 19.335h2.667v3.005c0 0.552 0.447 1 1 1h2.333v2.664h-9.333v-2.664h2.333c0.552 0 1-0.448 1-1v0-3.007z"></path>
</svg>
