<!-- Generated by IcoMoon.io -->
<svg version="1.1" xmlns="http://www.w3.org/2000/svg" width="32" height="32" viewBox="0 0 32 32">
<title>map-drive</title>
<path d="M23.997 10.67c0.738 0 1.336-0.598 1.336-1.336s-0.598-1.336-1.336-1.336c-0.738 0-1.336 0.598-1.336 1.336s0.598 1.336 1.336 1.336z"></path>
<path d="M5.667 4c-1.657 0-3 1.343-3 3v6.667c0 0.552 0.448 1 1 1h11.333v2.668h-1.333c-0.552 0-1 0.448-1 1v3.005h-2.333c-0.552 0-1 0.448-1 1v0.994h-5.668c-0.552 0-1 0.448-1 1s0.448 1 1 1h5.668v1.671c0 0.552 0.448 1 1 1h11.331c0.552 0 1-0.448 1-1v-1.671h5.668c0.552 0 1-0.448 1-1s-0.448-1-1-1h-5.668v-0.994c0-0.552-0.448-1-1-1h-2.333v-3.005c0-0.552-0.448-1-1-1h-1.333v-2.668h11.333c0.552 0 1-0.448 1-1v-6.667c0-1.657-1.343-3-3-3h-20.667zM4.667 7c0-0.552 0.448-1 1-1h20.667c0.552 0 1 0.448 1 1v5.667h-22.667v-5.667zM14.667 19.335h2.665v3.005c0 0.552 0.448 1 1 1h2.333v2.665h-9.331v-2.665h2.333c0.552 0 1-0.448 1-1v-3.005z"></path>
</svg>
