<!-- Generated by IcoMoon.io -->
<svg version="1.1" xmlns="http://www.w3.org/2000/svg" width="32" height="32" viewBox="0 0 32 32">
<title>map</title>
<path d="M12.271 5.333l0.063-0.003 0.061 0.001c0.034 0.002 0.065 0.005 0.096 0.010l-0.005-0.001 0.021 0.005c0.113 0.019 0.227 0.059 0.333 0.123l0.071 0.045 6.76 4.753 6.756-4.748c0.16-0.114 0.36-0.182 0.575-0.182 0.504 0 0.92 0.372 0.99 0.856l0.001 0.005 0.009 0.139v14.176c-0 0.288-0.122 0.548-0.317 0.73l-0.001 0.001-0.107 0.088-7.333 5.155c-0.16 0.115-0.359 0.184-0.575 0.184-0.196 0-0.379-0.057-0.533-0.155l0.004 0.002-6.807-4.789-6.76 4.753c-0.16 0.114-0.36 0.182-0.575 0.182-0.504 0-0.92-0.372-0.99-0.856l-0.001-0.005-0.009-0.139v-14.176c0-0.288 0.122-0.548 0.317-0.73l0.001-0.001 0.107-0.088 7.333-5.155c0.077-0.055 0.165-0.1 0.259-0.133l0.007-0.002 0.164-0.037 0.084-0.011zM26.001 8.263l-5.333 3.749v11.732l5.333-3.749v-11.733zM11.333 8.257l-5.333 3.749v11.733l5.333-3.751v-11.732zM13.336 8.257v11.733l5.333 3.748v-11.732l-5.333-3.749z"></path>
</svg>
