<!-- Generated by IcoMoon.io -->
<svg version="1.1" xmlns="http://www.w3.org/2000/svg" width="32" height="32" viewBox="0 0 32 32">
<title>map</title>
<path d="M12.271 5.332l0.063-0.002 0.061 0.002c0.030 0.002 0.060 0.005 0.090 0.009l0.021 0.005c0.114 0.018 0.227 0.059 0.335 0.123l0.069 0.045 6.76 4.754 6.756-4.749c0.624-0.438 1.469-0.044 1.566 0.679l0.009 0.139v14.177c0 0.279-0.116 0.543-0.317 0.731l-0.107 0.087-7.333 5.155c-0.356 0.25-0.784 0.229-1.104 0.031l-6.806-4.788-6.76 4.753c-0.624 0.438-1.469 0.044-1.566-0.679l-0.009-0.139v-14.177c0-0.279 0.116-0.543 0.318-0.731l0.107-0.087 7.333-5.155c0.085-0.060 0.175-0.104 0.266-0.135l0.163-0.037 0.085-0.010zM26.001 8.262l-5.333 3.749v11.732l5.333-3.749v-11.732zM11.332 8.258l-5.333 3.749v11.732l5.333-3.749v-11.732zM13.335 8.258v11.732l5.333 3.749v-11.732l-5.333-3.749z"></path>
</svg>
