<!-- Generated by IcoMoon.io -->
<svg version="1.1" xmlns="http://www.w3.org/2000/svg" width="32" height="32" viewBox="0 0 32 32">
<title>markdown-regular</title>
<path d="M25.6 7.2c0-0.442-0.358-0.8-0.8-0.8s-0.8 0.358-0.8 0.8v0 14.069l-1.834-1.835c-0.145-0.145-0.345-0.235-0.566-0.235-0.442 0-0.801 0.359-0.801 0.801 0 0.221 0.090 0.421 0.235 0.566v0l3.2 3.2c0.145 0.145 0.345 0.235 0.566 0.235s0.422-0.090 0.566-0.235l3.2-3.2c0.145-0.145 0.235-0.345 0.235-0.566 0-0.442-0.359-0.801-0.801-0.801-0.221 0-0.421 0.090-0.566 0.235l-1.834 1.835v-14.069zM3.712 6.453c0.085-0.034 0.184-0.053 0.287-0.053 0.236 0 0.449 0.103 0.595 0.265l0.001 0.001 6.605 7.339 6.605-7.339c0.147-0.163 0.359-0.265 0.595-0.265 0.442 0 0.8 0.358 0.8 0.8v0 16c0 0.442-0.358 0.8-0.8 0.8s-0.8-0.358-0.8-0.8v0-13.915l-5.805 6.451c-0.147 0.163-0.359 0.265-0.595 0.265s-0.448-0.102-0.595-0.265l-0.001-0.001-5.805-6.451v13.915c0 0.442-0.358 0.8-0.8 0.8s-0.8-0.358-0.8-0.8v0-16c0-0 0-0.001 0-0.001 0-0.338 0.21-0.627 0.507-0.744l0.005-0.002z"></path>
</svg>
