<!-- Generated by IcoMoon.io -->
<svg version="1.1" xmlns="http://www.w3.org/2000/svg" width="32" height="32" viewBox="0 0 32 32">
<title>match-app-layout</title>
<path d="M12.376 10.667c1.289 0 2.333 1.045 2.333 2.333v6c0 1.289-1.045 2.333-2.333 2.333h-7.376c-1.289 0-2.333-1.045-2.333-2.333v-6c0-1.224 0.943-2.228 2.142-2.326l0.191-0.008h7.376zM27 10.667c1.289 0 2.333 1.045 2.333 2.333v6c0 1.289-1.045 2.333-2.333 2.333h-7.376c-1.289 0-2.333-1.045-2.333-2.333v-6c0-1.289 1.045-2.333 2.333-2.333h7.376zM12.376 12.667h-7.376l-0.076 0.009c-0.147 0.035-0.257 0.167-0.257 0.325v6c0 0.184 0.149 0.333 0.333 0.333h7.376c0.184 0 0.333-0.149 0.333-0.333v-6c0-0.184-0.149-0.333-0.333-0.333zM27 12.667h-7.376c-0.184 0-0.333 0.149-0.333 0.333v6c0 0.184 0.149 0.333 0.333 0.333h7.376c0.184 0 0.333-0.149 0.333-0.333v-6c0-0.184-0.149-0.333-0.333-0.333z"></path>
</svg>
