<!-- Generated by IcoMoon.io -->
<svg version="1.1" xmlns="http://www.w3.org/2000/svg" width="32" height="32" viewBox="0 0 32 32">
<title>math-format-professional</title>
<path d="M20.883 6.44c-0.174-0.308-0.5-0.513-0.873-0.513-0.218 0-0.42 0.070-0.584 0.188l0.003-0.002-0.513 0.368c-0.161 0.116-0.363 0.186-0.581 0.186-0.552 0-1-0.448-1-1 0-0.334 0.164-0.63 0.416-0.812l0.003-0.002 0.513-0.367c0.484-0.349 1.090-0.559 1.744-0.559 1.12 0 2.097 0.614 2.612 1.524l0.008 0.015 0.892 1.599 2.772-2.772c0.183-0.196 0.443-0.318 0.732-0.318 0.552 0 1 0.448 1 1 0 0.289-0.122 0.549-0.318 0.731l-0.001 0.001-3.173 3.173 1.18 2.116c0.174 0.308 0.5 0.513 0.873 0.513 0.24 0 0.46-0.084 0.632-0.225l-0.002 0.001 0.485-0.395c0.17-0.139 0.39-0.223 0.63-0.223 0.552 0 1 0.448 1 1 0 0.313-0.143 0.592-0.368 0.775l-0.002 0.001-0.485 0.393c-0.511 0.418-1.172 0.671-1.891 0.671-1.12 0-2.096-0.614-2.612-1.523l-0.008-0.015-0.903-1.62-2.691 2.689c-0.182 0.188-0.437 0.305-0.719 0.305-0.552 0-1-0.448-1-1 0-0.282 0.117-0.537 0.305-0.719l3.091-3.092-1.168-2.093zM11.131 18.524c-1.936 0.377-4.124 0.461-6.235 0.475-0.457 1.665-0.317 2.877 0.088 3.716 0.455 0.937 1.324 1.579 2.497 1.871 2.397 0.599 5.823-0.351 8.1-2.949 0.184-0.209 0.453-0.341 0.752-0.341 0.552 0 1 0.448 1 1 0 0.253-0.094 0.484-0.249 0.66l0.001-0.001c-2.723 3.107-6.895 4.368-10.088 3.571-1.624-0.404-3.048-1.361-3.813-2.939-0.759-1.567-0.781-3.571 0.031-5.913 1.097-3.169 2.761-5.136 4.424-6.355 1.175-0.868 2.574-1.507 4.092-1.819l0.068-0.012c2.073-0.425 3.876 0.167 4.867 1.468 1.007 1.32 0.988 3.129-0.125 4.651-1.232 1.683-3.264 2.497-5.409 2.917zM12.2 11.447c-1.288 0.262-2.425 0.78-3.402 1.501l0.023-0.017c-1.099 0.805-2.263 2.061-3.181 4.059 1.816-0.028 3.569-0.129 5.107-0.429 1.971-0.384 3.392-1.061 4.18-2.135 0.651-0.891 0.557-1.721 0.149-2.257-0.421-0.553-1.368-1.029-2.876-0.72z"></path>
</svg>
