<!-- Generated by IcoMoon.io -->
<svg version="1.1" xmlns="http://www.w3.org/2000/svg" width="32" height="32" viewBox="0 0 32 32">
<title>math-formula</title>
<path d="M17.085 4.401c-1.587-1.256-3.934-0.228-4.085 1.791l-0.21 2.804h4.21c0.552 0 1 0.448 1 1s-0.448 1-1 1v0h-4.362l-1.152 15.314c-0.288 3.831-4.918 5.583-7.67 2.902l-0.514-0.5c-0.187-0.182-0.302-0.436-0.302-0.716 0-0.552 0.448-1 1-1 0.272 0 0.518 0.108 0.698 0.284l-0-0 0.513 0.5c1.536 1.497 4.12 0.52 4.281-1.62l1.14-15.163h-2.632c-0.552 0-1-0.448-1-1s0.448-1 1-1v0h2.783l0.222-2.954c0.272-3.618 4.477-5.46 7.322-3.209l0.794 0.629c0.232 0.185 0.379 0.467 0.379 0.784 0 0.552-0.448 1-1 1-0.236 0-0.452-0.081-0.623-0.218l0.002 0.002-0.794-0.629zM16.205 16.271c0.195-0.171 0.452-0.276 0.734-0.276 0.449 0 0.837 0.266 1.013 0.649l0.003 0.007 1.863 4.113-5.525 5.525c-0.174 0.18-0.281 0.425-0.281 0.695 0 0.552 0.448 1 1 1 0.27 0 0.515-0.107 0.695-0.281l4.992-4.992 1.574 3.476c0.905 1.998 3.535 2.46 5.067 0.892l0.375-0.385c0.189-0.182 0.306-0.437 0.306-0.72 0-0.552-0.448-1-1-1-0.291 0-0.552 0.124-0.735 0.322l-0.001 0.001-0.376 0.384c-0.203 0.208-0.485 0.336-0.798 0.336-0.449 0-0.836-0.266-1.013-0.648l-0.003-0.007-1.885-4.162 5.497-5.497c0.174-0.18 0.281-0.425 0.281-0.695 0-0.552-0.448-1-1-1-0.27 0-0.515 0.107-0.695 0.281l-4.964 4.964-1.552-3.427c-0.501-1.089-1.583-1.831-2.838-1.831-0.786 0-1.504 0.291-2.053 0.772l0.004-0.003-0.548 0.479c-0.208 0.184-0.338 0.452-0.338 0.75 0 0.552 0.448 1 1 1 0.251 0 0.48-0.092 0.655-0.245l-0.001 0.001 0.548-0.478z"></path>
</svg>
