<!-- Generated by IcoMoon.io -->
<svg version="1.1" xmlns="http://www.w3.org/2000/svg" width="32" height="32" viewBox="0 0 32 32">
<title>math-format-linear-regular</title>
<path d="M14.651 5.573c-0.174-0.15-0.402-0.241-0.651-0.241s-0.477 0.091-0.652 0.242l0.001-0.001-2.333 2c-0.215 0.185-0.35 0.457-0.35 0.76 0 0.553 0.448 1 1 1 0.249 0 0.477-0.091 0.652-0.242l-0.001 0.001 1.683-1.444 1.683 1.441c0.17 0.137 0.388 0.22 0.626 0.22 0.552 0 1-0.448 1-1 0-0.292-0.125-0.554-0.324-0.737l-0.001-0.001-2.333-2zM18.080 12.724c0.174-0.15 0.402-0.241 0.651-0.241 0.382 0 0.714 0.214 0.882 0.529l0.003 0.005 1.593 3.027-4.916 4.916c-0.196 0.183-0.318 0.443-0.318 0.732 0 0.552 0.448 1 1 1 0.289 0 0.549-0.122 0.731-0.318l0.001-0.001 4.477-4.476 1.763 3.349c0.513 0.96 1.509 1.603 2.655 1.603 0.748 0 1.432-0.274 1.957-0.726l-0.004 0.003 0.429-0.368c0.229-0.185 0.374-0.465 0.374-0.78 0-0.552-0.448-1-1-1-0.261 0-0.498 0.1-0.676 0.263l0.001-0.001-0.429 0.368c-0.174 0.15-0.402 0.241-0.651 0.241-0.382 0-0.714-0.214-0.882-0.529l-0.003-0.005-2.053-3.9 4.043-4.043c0.166-0.178 0.268-0.418 0.268-0.682 0-0.552-0.448-1-1-1-0.264 0-0.504 0.102-0.682 0.269l0.001-0.001-3.604 3.603-1.303-2.476c-0.513-0.96-1.509-1.603-2.655-1.603-0.748 0-1.432 0.274-1.957 0.726l0.004-0.003-0.429 0.368c-0.229 0.185-0.374 0.465-0.374 0.78 0 0.552 0.448 1 1 1 0.261 0 0.498-0.1 0.676-0.263l-0.001 0.001 0.429-0.368zM4.781 17.96c1.235-0.017 2.523-0.085 3.68-0.336 1.4-0.301 2.783-0.904 3.623-2.175 0.752-1.136 0.775-2.495 0.076-3.509-0.711-1.032-2.013-1.496-3.467-1.167-1.065 0.244-1.996 0.713-2.778 1.356l0.012-0.009c-1.1 0.893-2.171 2.309-2.871 4.545-0.52 1.659-0.516 3.107-0.009 4.265 0.516 1.177 1.493 1.916 2.624 2.227 2.2 0.608 4.969-0.365 6.739-2.6 0.123-0.164 0.197-0.371 0.197-0.596 0-0.552-0.448-1-1-1-0.306 0-0.58 0.138-0.764 0.354l-0.001 0.001c-1.359 1.715-3.34 2.272-4.639 1.913-0.62-0.172-1.077-0.54-1.324-1.103-0.208-0.476-0.303-1.183-0.097-2.169zM10.513 13.073c0.185 0.271 0.256 0.739-0.097 1.272-0.423 0.639-1.2 1.069-2.376 1.324-0.772 0.167-1.643 0.241-2.564 0.273 0.524-1.103 1.143-1.808 1.711-2.269 0.543-0.447 1.199-0.778 1.918-0.943l0.032-0.006c0.788-0.179 1.204 0.099 1.377 0.349z"></path>
</svg>
