<!-- Generated by IcoMoon.io -->
<svg version="1.1" xmlns="http://www.w3.org/2000/svg" width="32" height="32" viewBox="0 0 32 32">
<title>math-formula</title>
<path d="M16.642 5.103c-1.483-1.099-3.594-0.122-3.717 1.72l-0.212 3.177h3.62c0.552 0 1 0.448 1 1s-0.448 1-1 1h-3.753l-0.801 12.008c-0.239 3.58-4.477 5.336-7.177 2.973l-0.261-0.228c-0.416-0.364-0.458-0.995-0.094-1.411s0.995-0.458 1.411-0.094l0.261 0.228c1.454 1.272 3.736 0.327 3.865-1.601l0.792-11.875h-2.909c-0.552 0-1-0.448-1-1s0.448-1 1-1h3.042l0.221-3.31c0.228-3.42 4.149-5.234 6.903-3.194l0.496 0.367c0.444 0.329 0.537 0.955 0.208 1.399s-0.955 0.537-1.399 0.208l-0.496-0.367z"></path>
<path d="M18.283 17.017c-0.299-0.568-1.048-0.711-1.536-0.293l-0.43 0.368c-0.419 0.359-1.051 0.311-1.41-0.108s-0.311-1.051 0.108-1.41l0.43-0.368c1.462-1.253 3.71-0.824 4.607 0.881l1.303 2.477 3.603-3.603c0.391-0.391 1.024-0.391 1.414 0s0.391 1.024 0 1.414l-4.042 4.042 2.052 3.899c0.299 0.568 1.048 0.711 1.536 0.293l0.43-0.368c0.419-0.359 1.051-0.311 1.41 0.109s0.311 1.051-0.109 1.41l-0.43 0.368c-1.462 1.253-3.71 0.824-4.607-0.881l-1.763-3.35-4.477 4.477c-0.39 0.391-1.024 0.391-1.414 0s-0.391-1.024 0-1.414l4.916-4.916-1.593-3.026z"></path>
</svg>
