<!-- Generated by IcoMoon.io -->
<svg version="1.1" xmlns="http://www.w3.org/2000/svg" width="32" height="32" viewBox="0 0 32 32">
<title>meet-now-regular</title>
<path d="M9.255 5.885l0.018-0.010c0.017-0.009 0.043-0.025 0.081-0.044 0.075-0.040 0.19-0.099 0.343-0.171 0.307-0.144 0.767-0.34 1.358-0.537 1.469-0.501 3.161-0.791 4.921-0.791 0.008 0 0.017 0 0.025 0h-0.001c2.060 0 3.762 0.396 4.945 0.791 0.591 0.197 1.051 0.393 1.358 0.537 0.189 0.088 0.328 0.16 0.464 0.235l-0.040-0.021 0.017 0.009h0.001l0.001 0.001h0.001c0.121 0.072 0.266 0.114 0.421 0.114 0.304 0 0.57-0.163 0.716-0.407l0.002-0.004c0.070-0.12 0.112-0.265 0.112-0.419 0-0.305-0.162-0.572-0.406-0.72l-0.004-0.002-0.001-0.001-0.003-0.002-0.010-0.005c-0.029-0.018-0.077-0.044-0.126-0.070l-0.021-0.010c-0.084-0.048-0.221-0.117-0.359-0.183l-0.057-0.025c-0.406-0.197-0.915-0.403-1.437-0.58l-0.101-0.030c-1.626-0.555-3.499-0.876-5.447-0.876-0.009 0-0.017 0-0.026 0h0.001c-2.273 0-4.155 0.437-5.472 0.876-0.659 0.22-1.179 0.44-1.538 0.609-0.246 0.114-0.43 0.21-0.611 0.311l0.048-0.025-0.010 0.007-0.003 0.001-0.001 0.001s0.12-0.067-0.001 0c-0.248 0.148-0.411 0.414-0.411 0.719 0 0.46 0.373 0.834 0.834 0.834 0.156 0 0.301-0.043 0.426-0.117l-0.004 0.002zM8.373 8.333h9.253c0 0 0 0 0.001 0 1.679 0 3.039 1.361 3.039 3.039v1.011l3.745-2.181c1-0.582 2.255 0.139 2.255 1.296v9.001c0 1.157-1.255 1.878-2.255 1.296l-3.745-2.18v1.011c0 1.679-1.361 3.039-3.039 3.039h-9.254c-0 0-0 0-0.001 0-1.679 0-3.039-1.361-3.039-3.039v-9.254c0-1.679 1.361-3.039 3.039-3.039v0zM20.667 14.313v3.375l4.333 2.523v-8.421l-4.333 2.524zM7 11.373v9.254c0 0.758 0.615 1.372 1.373 1.373h9.254c0.758 0 1.373-0.615 1.373-1.373v0-9.253c0-0 0-0 0-0.001 0-0.758-0.614-1.372-1.372-1.373h-9.254c-0.758 0-1.373 0.615-1.373 1.373v0zM9.255 26.115c-0.121-0.072-0.267-0.115-0.422-0.115-0.46 0-0.834 0.373-0.834 0.834 0 0.305 0.163 0.571 0.407 0.717l0.004 0.002c0.193 0.105 0.001 0 0.001 0l0.001 0.001 0.003 0.002 0.010 0.005 0.033 0.019 0.113 0.062c0.098 0.051 0.238 0.123 0.417 0.207 0.36 0.169 0.879 0.389 1.538 0.609 1.626 0.555 3.499 0.876 5.447 0.876 0.009 0 0.017 0 0.026-0h-0.001c2.273 0 4.155-0.437 5.472-0.876 0.623-0.206 1.132-0.412 1.625-0.646l-0.087 0.037c0.235-0.109 0.409-0.199 0.579-0.294l-0.049 0.025 0.033-0.019 0.009-0.005 0.003-0.002 0.001-0.001h0.001c0.248-0.148 0.412-0.414 0.412-0.719 0-0.46-0.373-0.834-0.834-0.834-0.156 0-0.301 0.043-0.426 0.117l0.004-0.002v0.001h-0.001v0.001l-0.017 0.009c-0.096 0.055-0.235 0.127-0.377 0.194l-0.047 0.020c-0.307 0.144-0.767 0.34-1.358 0.537-1.469 0.501-3.161 0.791-4.921 0.791-0.008 0-0.017 0-0.025-0h0.001c-2.060 0-3.762-0.396-4.945-0.791-0.55-0.182-0.999-0.364-1.435-0.569l0.077 0.033c-0.189-0.088-0.328-0.16-0.464-0.235l0.040 0.020-0.018-0.010z"></path>
</svg>
