<!-- Generated by IcoMoon.io -->
<svg version="1.1" xmlns="http://www.w3.org/2000/svg" width="32" height="32" viewBox="0 0 32 32">
<title>megaphone-circle</title>
<path d="M4.667 16c0-6.259 5.074-11.333 11.333-11.333s11.333 5.074 11.333 11.333v0c0 6.259-5.074 11.333-11.333 11.333s-11.333-5.074-11.333-11.333v0zM16 2.667c-7.364 0-13.333 5.969-13.333 13.333s5.969 13.333 13.333 13.333 13.333-5.969 13.333-13.333-5.969-13.333-13.333-13.333zM19.52 9.476c0.241-0.092 0.519-0.145 0.809-0.145 1.288 0 2.333 1.044 2.333 2.333v8.667c0 0 0 0.001 0 0.001 0 1.289-1.045 2.333-2.333 2.333-0.291 0-0.569-0.053-0.825-0.15l0.016 0.005-2.083-0.771c-0.519 1.326-1.786 2.248-3.269 2.248-1.932 0-3.499-1.565-3.501-3.497v-1.255l-1.148-0.425c-0.897-0.339-1.524-1.19-1.524-2.188v-1.267c0-0.001 0-0.001 0-0.002 0-0.999 0.627-1.851 1.509-2.184l0.016-0.005 10.001-3.7zM12.667 19.984v0.516c0.001 0.828 0.672 1.499 1.5 1.499 0.628 0 1.166-0.386 1.39-0.934l0.004-0.010-2.893-1.071zM20.663 11.664c-0.001-0.184-0.15-0.332-0.333-0.332-0.041 0-0.081 0.007-0.117 0.021l0.002-0.001-10.003 3.7c-0.128 0.048-0.217 0.17-0.217 0.312v1.267c0 0 0 0.001 0 0.001 0 0.142 0.089 0.264 0.215 0.312l0.002 0.001 10.003 3.7c0.034 0.013 0.073 0.020 0.115 0.020 0.184 0 0.333-0.149 0.333-0.333 0-0 0-0 0-0v0-8.667z"></path>
</svg>
