<!-- Generated by IcoMoon.io -->
<svg version="1.1" xmlns="http://www.w3.org/2000/svg" width="32" height="32" viewBox="0 0 32 32">
<title>megaphone-loud</title>
<path d="M20.039 4.751c-0.028 0.088-0.044 0.188-0.044 0.293 0 0.552 0.448 1 1 1 0.46 0 0.848-0.311 0.964-0.734l0.002-0.007 0.827-2.884c0.028-0.088 0.044-0.188 0.044-0.293 0-0.552-0.448-1-1-1-0.46 0-0.848 0.311-0.964 0.734l-0.002 0.007-0.827 2.884zM28.707 3.293c0.181 0.181 0.293 0.431 0.293 0.707s-0.112 0.526-0.293 0.707l-3 3c-0.182 0.188-0.437 0.305-0.719 0.305-0.552 0-1-0.448-1-1 0-0.282 0.117-0.537 0.305-0.719l3-3c0.181-0.181 0.431-0.293 0.707-0.293s0.526 0.112 0.707 0.293v0zM26 11.002c0-0.552 0.448-1 1-1v0h3c0.552 0 1 0.448 1 1s-0.448 1-1 1v0h-3c-0.552 0-1-0.448-1-1v0zM11.956 5.659c0.503-0.991 1.516-1.659 2.684-1.659 0.829 0 1.579 0.336 2.121 0.879l10.36 10.36c0.543 0.543 0.879 1.293 0.879 2.121 0 1.168-0.667 2.18-1.642 2.676l-0.017 0.008-4.749 2.374c0.263 0.62 0.415 1.34 0.415 2.096 0 3.038-2.462 5.5-5.5 5.5-2.001 0-3.752-1.068-4.714-2.666l-0.014-0.025-2.717 1.36c-0.39 0.199-0.851 0.316-1.34 0.316-0.829 0-1.579-0.336-2.122-0.88l-1.72-1.72c-0.543-0.543-0.879-1.293-0.879-2.121 0-0.489 0.117-0.951 0.325-1.359l-0.008 0.017 8.64-17.28zM13.576 26.426c0.635 0.957 1.708 1.579 2.926 1.579 1.933 0 3.5-1.567 3.5-3.5 0-0.426-0.076-0.835-0.216-1.213l0.008 0.024-6.217 3.109zM15.346 6.293c-0.181-0.18-0.43-0.292-0.706-0.292-0.389 0-0.726 0.222-0.891 0.546l-0.003 0.006-8.64 17.28c-0.067 0.13-0.106 0.284-0.106 0.447 0 0.276 0.112 0.526 0.293 0.707v0l1.72 1.72c0.181 0.181 0.431 0.293 0.707 0.293 0.163 0 0.317-0.039 0.454-0.109l-0.006 0.003 17.279-8.64c0.33-0.168 0.552-0.505 0.552-0.894 0-0.276-0.111-0.525-0.292-0.706l-10.36-10.36z"></path>
</svg>
