<!-- Generated by IcoMoon.io -->
<svg version="1.1" xmlns="http://www.w3.org/2000/svg" width="32" height="32" viewBox="0 0 32 32">
<title>megaphone-off</title>
<path d="M3.749 2.537c-0.157-0.168-0.38-0.273-0.627-0.273-0.473 0-0.857 0.384-0.857 0.857 0 0.247 0.105 0.47 0.272 0.627l0.001 0 6.167 6.168-4.080 1.088c-1.354 0.37-2.334 1.589-2.334 3.037 0 0 0 0.001 0 0.001v-0 3.915c0 0 0 0.001 0 0.001 0 1.448 0.979 2.667 2.312 3.032l0.022 0.005 3.376 0.901v0.39c0 0 0 0.001 0 0.001 0 2.84 2.303 5.143 5.143 5.143 2.034 0 3.792-1.181 4.627-2.894l0.013-0.030 7.513 2.003 2.954 2.954c0.154 0.149 0.364 0.241 0.596 0.241 0.473 0 0.857-0.384 0.857-0.857 0-0.231-0.092-0.441-0.241-0.595l-25.714-25.714zM22.877 24.089l-17.811-4.752c-0.615-0.168-1.060-0.722-1.061-1.379v-3.918c0-0.647 0.435-1.213 1.061-1.379l5.040-1.344 12.771 12.771zM16.082 24.051c-0.61 1.004-1.698 1.665-2.94 1.665-1.87 0-3.391-1.498-3.428-3.36l-0-0.003 6.368 1.698zM12.533 8.896l1.4 1.4 12.273-3.272c0.11-0.030 0.236-0.048 0.366-0.048 0.788 0 1.428 0.639 1.429 1.427v15.193c0 0.226-0.051 0.438-0.143 0.625l1.242 1.243c0.384-0.512 0.615-1.158 0.615-1.859 0-0.003 0-0.007-0-0.010v0.001-15.193c-0-1.736-1.407-3.143-3.143-3.143-0.288 0-0.567 0.039-0.832 0.111l0.022-0.005-13.229 3.529z"></path>
</svg>
