<!-- Generated by IcoMoon.io -->
<svg version="1.1" xmlns="http://www.w3.org/2000/svg" width="32" height="32" viewBox="0 0 32 32">
<title>megaphone-loud</title>
<path d="M22.949 2.983c0.175-0.524-0.108-1.090-0.632-1.265s-1.090 0.108-1.265 0.632l-1 2.999c-0.175 0.524 0.108 1.090 0.632 1.265s1.090-0.108 1.265-0.632l1-2.999zM29.040 2.96c0.391 0.391 0.391 1.024 0 1.414l-3.333 3.333c-0.391 0.391-1.024 0.391-1.414 0s-0.391-1.024 0-1.414l3.333-3.333c0.391-0.391 1.024-0.391 1.414 0zM12.102 5.758c0.946-1.964 3.571-2.364 5.059-0.77l9.342 10.008c1.455 1.558 0.939 4.086-1.011 4.95l-4.56 2.020c0.259 0.627 0.402 1.314 0.402 2.034 0 2.945-2.388 5.333-5.333 5.333-2.127 0-3.964-1.246-4.82-3.047l-1.89 0.837c-0.884 0.391-1.916 0.215-2.619-0.448l-1.918-1.809c-0.761-0.718-0.97-1.846-0.516-2.788l7.864-16.321zM13.011 25.475c0.544 1.101 1.679 1.858 2.99 1.858 1.841 0 3.333-1.492 3.333-3.333 0-0.432-0.082-0.845-0.232-1.223l-6.092 2.699zM15.699 6.353c-0.528-0.566-1.459-0.424-1.795 0.273l-7.864 16.321c-0.076 0.157-0.041 0.345 0.086 0.465l1.918 1.809c0.117 0.111 0.289 0.14 0.437 0.075l16.201-7.178c0.692-0.306 0.875-1.203 0.359-1.756l-9.342-10.008zM25.333 10.999c0-0.552 0.448-1 1-1h2.667c0.552 0 1 0.448 1 1s-0.448 1-1 1h-2.667c-0.552 0-1-0.448-1-1z"></path>
</svg>
