<!-- Generated by IcoMoon.io -->
<svg version="1.1" xmlns="http://www.w3.org/2000/svg" width="32" height="32" viewBox="0 0 32 32">
<title>megaphone-regular</title>
<path d="M29.715 8.403c-0-1.736-1.407-3.143-3.143-3.143-0.288 0-0.567 0.039-0.832 0.111l0.022-0.005-21.138 5.638c-1.354 0.37-2.334 1.589-2.334 3.037v3.917c0 1.448 0.979 2.667 2.312 3.031l0.022 0.005 3.376 0.901v0.391c0 0 0 0.001 0 0.001 0 2.84 2.303 5.143 5.143 5.143 2.034 0 3.792-1.181 4.627-2.894l0.013-0.030 7.979 2.128c0.243 0.067 0.522 0.106 0.81 0.106 1.736 0 3.143-1.407 3.143-3.143v0-15.194zM26.205 7.023c0.11-0.030 0.236-0.048 0.367-0.048 0.789 0 1.429 0.64 1.429 1.428v0 15.193c-0.001 0.789-0.64 1.428-1.429 1.428-0.131 0-0.258-0.018-0.378-0.051l0.010 0.002-21.138-5.638c-0.616-0.168-1.061-0.722-1.061-1.38 0-0 0-0 0-0v0-3.917c0-0.647 0.435-1.214 1.061-1.379l21.141-5.64zM16.082 24.051c-0.61 1.004-1.698 1.665-2.94 1.665-1.87 0-3.391-1.498-3.428-3.36l-0-0.003 6.368 1.698z"></path>
</svg>
