<!-- Generated by IcoMoon.io -->
<svg version="1.1" xmlns="http://www.w3.org/2000/svg" width="32" height="32" viewBox="0 0 32 32">
<title>mention</title>
<path d="M29.333 16v2.333c0 2.761-2.239 5-5 5-2.006 0-3.735-1.181-4.532-2.885-1.091 1.359-2.681 2.218-4.468 2.218-3.344 0-6-3.011-6-6.667s2.656-6.667 6-6.667c1.545 0 2.944 0.643 4.001 1.696l-0.001-0.696c0-0.552 0.448-1 1-1 0.506 0 0.925 0.376 0.991 0.864l0.009 0.136v8c0 1.657 1.343 3 3 3 1.588 0 2.887-1.234 2.993-2.795l0.007-0.205v-2.333c0-6.259-5.074-11.333-11.333-11.333s-11.333 5.074-11.333 11.333c0 6.259 5.074 11.333 11.333 11.333 1.377 0 2.719-0.245 3.98-0.718 0.517-0.194 1.093 0.068 1.287 0.585s-0.068 1.094-0.585 1.288c-1.485 0.557-3.065 0.846-4.683 0.846-7.364 0-13.333-5.97-13.333-13.333s5.97-13.333 13.333-13.333c7.239 0 13.131 5.769 13.328 12.96l0.005 0.373zM15.333 11.333c-2.179 0-4 2.063-4 4.667s1.821 4.667 4 4.667c2.179 0 4-2.063 4-4.667s-1.821-4.667-4-4.667z"></path>
</svg>
