<!-- Generated by IcoMoon.io -->
<svg version="1.1" xmlns="http://www.w3.org/2000/svg" width="32" height="32" viewBox="0 0 32 32">
<title>mention-brackets</title>
<path d="M7.2 4.8c-1.325 0-2.4 1.075-2.4 2.4v0 17.6c0 1.325 1.075 2.4 2.4 2.4v0h3.2c0.442 0 0.8 0.358 0.8 0.8s-0.358 0.8-0.8 0.8v0h-3.2c-2.209 0-4-1.791-4-4v0-17.6c0-2.209 1.791-4 4-4v0h3.2c0.442 0 0.8 0.358 0.8 0.8s-0.358 0.8-0.8 0.8v0h-3.2zM24.8 27.2c1.325 0 2.4-1.075 2.4-2.4v0-17.6c0-1.325-1.075-2.4-2.4-2.4v0h-3.2c-0.442 0-0.8-0.358-0.8-0.8s0.358-0.8 0.8-0.8v0h3.2c2.209 0 4 1.791 4 4v0 17.6c0 2.209-1.791 4-4 4v0h-3.2c-0.442 0-0.8-0.358-0.8-0.8s0.358-0.8 0.8-0.8v0h3.2zM18.4 16c0-1.325-1.075-2.4-2.4-2.4s-2.4 1.075-2.4 2.4v0c0 1.325 1.075 2.4 2.4 2.4s2.4-1.075 2.4-2.4v0zM16 12c0.901 0 1.731 0.298 2.4 0.8 0-0.442 0.358-0.8 0.8-0.8s0.8 0.358 0.8 0.8v0 4.4c0 0.663 0.537 1.2 1.2 1.2s1.2-0.537 1.2-1.2v0-1.2c-0-3.535-2.865-6.4-6.4-6.4s-6.4 2.865-6.4 6.4c0 3.4 2.651 6.181 5.999 6.388l0.018 0.001-0.005 0.011 0.040-0.010c0.115 0.006 0.23 0.010 0.347 0.010 0.72 0 1.483-0.134 2.176-0.365 0.48-0.157 1.024 0.176 1.024 0.678 0 0.006 0 0.012 0 0.019 0 0.378-0.238 0.701-0.572 0.827l-0.006 0.002c-0.781 0.28-1.683 0.442-2.622 0.442-4.418 0-8-3.582-8-8s3.582-8 8-8c4.417 0 7.998 3.58 8 7.996v1.199c0 0 0 0 0 0 0 1.546-1.254 2.8-2.8 2.8-0.959 0-1.806-0.483-2.311-1.218l-0.006-0.010c-0.729 0.758-1.752 1.229-2.885 1.229-2.209 0-4-1.791-4-4s1.791-4 4-4c0 0 0.001 0 0.001 0h-0z"></path>
</svg>
