<!-- Generated by IcoMoon.io -->
<svg version="1.1" xmlns="http://www.w3.org/2000/svg" width="32" height="32" viewBox="0 0 32 32">
<title>mention-regular</title>
<path d="M29.333 16v2.333c0 0.001 0 0.002 0 0.003 0 2.761-2.239 5-5 5-1.995 0-3.717-1.168-4.519-2.858l-0.013-0.030c-1.091 1.36-2.681 2.219-4.468 2.219-3.344 0-6-3.011-6-6.667s2.656-6.667 6-6.667c1.545 0 2.944 0.643 4.001 1.696l-0.001-0.696c0-0.552 0.448-1 1-1 0.504 0 0.921 0.373 0.99 0.858l0.001 0.005 0.009 0.136v8c0 0.002 0 0.004 0 0.006 0 1.657 1.343 3 3 3 1.587 0 2.885-1.232 2.993-2.791l0-0.009 0.007-0.205v-2.333c-0.002-6.258-5.075-11.33-11.333-11.33-6.259 0-11.333 5.074-11.333 11.333s5.074 11.333 11.333 11.333c1.43 0 2.798-0.265 4.058-0.748l-0.078 0.026c0.104-0.040 0.225-0.064 0.351-0.064 0.552 0 1 0.448 1 1 0 0.426-0.267 0.79-0.642 0.934l-0.007 0.002c-1.386 0.535-2.991 0.845-4.667 0.845-0.005 0-0.011 0-0.016 0h0.001c-7.364 0-13.333-5.969-13.333-13.333s5.969-13.333 13.333-13.333c7.24 0 13.131 5.769 13.328 12.96l0.005 0.373zM15.333 11.333c-2.18 0-4 2.064-4 4.667s1.82 4.667 4 4.667c2.179 0 4-2.064 4-4.667s-1.821-4.667-4-4.667z"></path>
</svg>
