<!-- Generated by IcoMoon.io -->
<svg version="1.1" xmlns="http://www.w3.org/2000/svg" width="32" height="32" viewBox="0 0 32 32">
<title>merge-regular</title>
<path d="M4 9c0-0.552 0.448-1 1-1v0h4.343c0.001 0 0.001 0 0.002 0 1.38 0 2.63 0.559 3.535 1.464l3.933 3.933c0.784 0.784 1.867 1.269 3.064 1.269h6.040l-4.957-4.96c-0.196-0.183-0.318-0.443-0.318-0.732 0-0.552 0.448-1 1-1 0.289 0 0.549 0.122 0.731 0.318l0.001 0.001 6.664 6.667c0.181 0.181 0.292 0.431 0.292 0.707s-0.112 0.526-0.292 0.707l-6.664 6.667c-0.183 0.196-0.443 0.318-0.732 0.318-0.552 0-1-0.448-1-1 0-0.289 0.122-0.549 0.318-0.731l0.001-0.001 4.957-4.96h-5.96c-0 0-0 0-0 0-1.236 0-2.351 0.517-3.14 1.348l-0.002 0.002-3.573 3.76c-0.913 0.96-2.199 1.557-3.625 1.557h-4.616c-0.552 0-1-0.448-1-1s0.448-1 1-1v0h4.616c0 0 0 0 0 0 0.855 0 1.627-0.358 2.173-0.932l3.575-3.764c0.344-0.36 0.725-0.677 1.137-0.945-0.416-0.264-0.778-0.554-1.104-0.88l-3.933-3.933c-0.543-0.543-1.292-0.878-2.12-0.879h-4.344c-0.552 0-1-0.448-1-1v0z"></path>
</svg>
