<!-- Generated by IcoMoon.io -->
<svg version="1.1" xmlns="http://www.w3.org/2000/svg" width="32" height="32" viewBox="0 0 32 32">
<title>mic-settings</title>
<path d="M14.667 23.333c0 1.461 0.362 2.838 1 4.046l-0 0.954c0 0.552-0.448 1-1 1-0.506 0-0.925-0.376-0.991-0.864l-0.009-0.136v-3.024c-4.556-0.334-8.17-4.058-8.328-8.661l-0.005-0.315v-0.667c0-0.552 0.448-1 1-1 0.506 0 0.925 0.376 0.991 0.864l0.009 0.136v0.667c0 3.769 2.979 6.843 6.711 6.994l0.289 0.006h0.333zM20 8v7.331c-0.738 0.308-1.425 0.715-2.043 1.204 0.028-0.174 0.043-0.353 0.043-0.535v-8c0-1.841-1.492-3.333-3.333-3.333s-3.333 1.492-3.333 3.333v8c0 1.841 1.492 3.333 3.333 3.333 0.374 0 0.734-0.062 1.070-0.176-0.371 0.674-0.655 1.403-0.837 2.171-0.077 0.003-0.155 0.005-0.233 0.005-2.946 0-5.333-2.388-5.333-5.333v-8c0-2.946 2.388-5.333 5.333-5.333s5.333 2.388 5.333 5.333zM19.038 18.634c0.42 1.454-0.453 2.965-1.922 3.328l-0.779 0.193c-0.060 0.384-0.091 0.777-0.091 1.178 0 0.42 0.034 0.831 0.099 1.231l0.719 0.173c1.483 0.357 2.365 1.884 1.933 3.347l-0.248 0.842c0.585 0.514 1.253 0.932 1.979 1.229l0.658-0.692c1.051-1.106 2.815-1.105 3.865 0.001l0.665 0.7c0.725-0.294 1.391-0.707 1.977-1.217l-0.264-0.915c-0.42-1.454 0.453-2.965 1.922-3.328l0.778-0.193c0.060-0.384 0.091-0.777 0.091-1.178 0-0.42-0.034-0.831-0.099-1.231l-0.719-0.173c-1.483-0.357-2.365-1.884-1.933-3.347l0.248-0.841c-0.585-0.514-1.253-0.932-1.979-1.229l-0.657 0.691c-1.051 1.106-2.814 1.105-3.865-0.001l-0.665-0.7c-0.725 0.294-1.391 0.707-1.977 1.217l0.264 0.915zM23.333 25.333c-1.067 0-1.933-0.895-1.933-2s0.865-2 1.933-2c1.068 0 1.933 0.895 1.933 2s-0.865 2-1.933 2z"></path>
</svg>
