<!-- Generated by IcoMoon.io -->
<svg version="1.1" xmlns="http://www.w3.org/2000/svg" width="32" height="32" viewBox="0 0 32 32">
<title>microscope</title>
<path d="M10.667 3.667c0-0.552 0.448-1 1-1v0h2c0.552 0 1 0.448 1 1v0 0.333h1.667c0.552 0 1 0.448 1 1v0 2.38c0.011 0 0.023 0 0.033 0.003 5.614 0.545 9.966 5.24 9.966 10.951 0 3.706-1.832 6.983-4.64 8.976l-0.034 0.023h4.341c0.552 0 1 0.448 1 1s-0.448 1-1 1v0h-22c-0.552 0-1-0.448-1-1s0.448-1 1-1v0h11.369c4.954-0.021 8.962-4.043 8.962-9 0-4.618-3.478-8.423-7.957-8.94l-0.042-0.004v6.944c0 0.552-0.448 1-1 1v0h-1v1.333c0 1.473-1.194 2.667-2.667 2.667s-2.667-1.194-2.667-2.667v0-1.333h-1c-0.552 0-1-0.448-1-1v0-11.333c0-0.552 0.448-1 1-1v0h1.667v-0.333zM12 17.333v1.333c0 0.368 0.298 0.667 0.667 0.667s0.667-0.298 0.667-0.667v0-1.333h-1.333zM10 15.333h5.333v-9.333h-5.333v9.333zM7.667 23.333c-0.552 0-1 0.448-1 1s0.448 1 1 1v0h10c0.552 0 1-0.448 1-1s-0.448-1-1-1v0h-10z"></path>
</svg>
