<!-- Generated by IcoMoon.io -->
<svg version="1.1" xmlns="http://www.w3.org/2000/svg" width="32" height="32" viewBox="0 0 32 32">
<title>midi</title>
<path d="M28.333 5.336c0.506 0 0.925 0.376 0.991 0.864l0.009 0.136v19.333c0 0.506-0.376 0.925-0.864 0.991l-0.136 0.009h-24.667c-0.506 0-0.925-0.376-0.991-0.864l-0.009-0.136v-19.333c0-0.506 0.376-0.925 0.864-0.991l0.136-0.009h24.667zM8 16.668h-3.333v8.001h22.667v-8.001h-3.333v4.999c0 0.552-0.448 1-1 1-0.506 0-0.925-0.376-0.991-0.864l-0.009-0.136v-4.999h-2.667v4.999c0 0.552-0.448 1-1 1-0.506 0-0.925-0.376-0.991-0.864l-0.009-0.136v-4.999h-2.667v4.999c0 0.552-0.448 1-1 1-0.506 0-0.925-0.376-0.991-0.864l-0.009-0.136v-4.999h-2.667v4.999c0 0.552-0.448 1-1 1-0.506 0-0.925-0.376-0.991-0.864l-0.009-0.136v-4.999zM27.333 7.336h-22.667v7.332h22.667v-7.332zM12.333 10.002c0.552 0 1 0.448 1 1s-0.448 1-1 1c-0.552 0-1-0.448-1-1s0.448-1 1-1zM23 10.001c0.552 0 1 0.448 1 1 0 0.506-0.376 0.925-0.864 0.991l-0.136 0.009h-3.333c-0.552 0-1-0.448-1-1 0-0.506 0.376-0.925 0.864-0.991l0.136-0.009h3.333zM8.333 10c0.552 0 1 0.448 1 1s-0.448 1-1 1c-0.552 0-1-0.448-1-1s0.448-1 1-1z"></path>
</svg>
