<!-- Generated by IcoMoon.io -->
<svg version="1.1" xmlns="http://www.w3.org/2000/svg" width="32" height="32" viewBox="0 0 32 32">
<title>mobile-optimized-regular</title>
<path d="M25.667 24.667h2.667c0.552 0 1 0.448 1 1 0 0.504-0.373 0.921-0.858 0.99l-0.005 0.001-0.136 0.009h-1.667v1.667c-0 0.552-0.448 1-1 1-0.504 0-0.921-0.373-0.99-0.858l-0.001-0.005-0.009-0.136v-2.667c0-0.504 0.373-0.921 0.859-0.99l0.005-0.001 0.136-0.009zM3.667 24.667h2.667c0.504 0 0.921 0.373 0.99 0.859l0.001 0.005 0.009 0.136v2.667c-0 0.552-0.448 1-1 1-0.504 0-0.921-0.373-0.99-0.858l-0.001-0.005-0.009-0.136v-1.667h-1.667c-0.552-0-1-0.448-1-1 0-0.504 0.373-0.921 0.858-0.99l0.005-0.001 0.136-0.009zM22.333 7.337c0.552 0 1 0.448 1 1v0 15.329c0 0.552-0.448 1-1 1v0h-12.664c-0.552 0-1-0.448-1-1v0-15.329c0-0.552 0.448-1 1-1v0h12.667zM21.333 9.337h-10.664v13.329h10.667v-13.329zM13 16.685h3.336c0.552 0 1 0.448 1 1 0 0.504-0.373 0.921-0.858 0.99l-0.005 0.001-0.136 0.009h-3.336c-0.552-0-1-0.448-1-1 0-0.504 0.373-0.921 0.858-0.99l0.005-0.001 0.136-0.009zM13 12.667h6.003c0.552 0 1 0.448 1 1 0 0.504-0.373 0.921-0.858 0.99l-0.005 0.001-0.136 0.009h-6.003c-0.552-0-1-0.448-1-1 0-0.504 0.373-0.921 0.858-0.99l0.005-0.001 0.136-0.009zM6.333 2.667c0.504 0 0.921 0.373 0.99 0.859l0.001 0.005 0.009 0.136v2.667c-0 0.504-0.373 0.921-0.859 0.99l-0.005 0.001-0.136 0.009h-2.667c-0.552-0-1-0.448-1-1 0-0.504 0.373-0.921 0.858-0.99l0.005-0.001 0.136-0.009h1.667v-1.667c0-0.552 0.448-1 1-1v0zM25.667 2.667c0.504 0 0.921 0.373 0.99 0.859l0.001 0.005 0.009 0.136v1.667h1.667c0.552 0 1 0.448 1 1 0 0.504-0.373 0.921-0.858 0.99l-0.005 0.001-0.136 0.009h-2.667c-0.504-0-0.921-0.373-0.99-0.859l-0.001-0.005-0.009-0.136v-2.667c0-0.552 0.448-1 1-1v0z"></path>
</svg>
