<!-- Generated by IcoMoon.io -->
<svg version="1.1" xmlns="http://www.w3.org/2000/svg" width="32" height="32" viewBox="0 0 32 32">
<title>money-hand-regular</title>
<path d="M8.333 2.667c-1.657 0-3 1.343-3 3v0 20.667c0 1.657 1.343 3 3 3v0h10c0 0 0 0 0 0 1.647 0 2.984-1.327 3-2.971v-2.028c0-0.552-0.448-1-1-1v0c-0.605 0-0.987-0.164-1.249-0.376-0.277-0.223-0.507-0.567-0.68-1.052-0.364-1.007-0.404-2.333-0.404-3.573-0-0.264-0.102-0.504-0.27-0.683l-0.218-0.235c-0.073-0.082-0.147-0.157-0.224-0.229l-0.002-0.002c-0.099-0.093-0.4-0.38-1.579-1.557-0.624-0.625-0.971-1.153-1.084-1.557-0.025-0.076-0.040-0.163-0.040-0.253 0-0.064 0.007-0.126 0.021-0.186l-0.001 0.006c0.053-0.171 0.147-0.317 0.271-0.43l0.001-0.001c0.113-0.125 0.258-0.219 0.423-0.27l0.007-0.002c0.053-0.012 0.114-0.019 0.177-0.019 0.091 0 0.179 0.015 0.261 0.043l-0.006-0.002c0.404 0.113 0.932 0.461 1.557 1.087 0.72 0.72 1.403 1.395 2.015 2 1.013 1.003 1.832 1.813 2.293 2.307 0.183 0.196 0.443 0.318 0.732 0.318 0.553 0 1-0.448 1-1 0-0.264-0.102-0.504-0.269-0.683l0.001 0.001c-0.581-0.606-1.146-1.177-1.72-1.739l-0.013-0.013v-4.485l3.789 3.789c0.563 0.563 0.879 1.325 0.879 2.12v11.677c0 0.552 0.448 1 1 1s1-0.448 1-1v0-11.676c0-0 0-0.001 0-0.001 0-1.38-0.559-2.63-1.464-3.535l-5.203-5.203v-2.253c-0.001-1.656-1.344-2.999-3-2.999h-10zM16.523 22.587c0.128 0.357 0.295 0.712 0.511 1.043-1.014 0.496-1.7 1.52-1.7 2.704 0 0 0 0 0 0v-0 1h-4v-1c0-1.657-1.343-3-3-3v0h-1v-14.667h1c1.657 0 3-1.343 3-3v0-1h4v1c0 1.657 1.343 3 3 3v0h1v4.584l-0.627-0.624c-0.707-0.708-1.531-1.344-2.427-1.597-0.239-0.073-0.513-0.116-0.797-0.116-0.24 0-0.472 0.030-0.694 0.086l0.019-0.004c-0.321 0.085-0.602 0.215-0.854 0.386l0.010-0.006c-0.189-0.027-0.408-0.043-0.631-0.043-2.577 0-4.667 2.089-4.667 4.667s2.089 4.667 4.667 4.667c1.011 0 1.947-0.322 2.712-0.868l-0.014 0.010c0.051 0.912 0.175 1.903 0.492 2.779zM10.667 16c0-0 0-0.001 0-0.001 0-1.214 0.811-2.239 1.921-2.561l0.019-0.005c-0.015 0.112-0.024 0.241-0.024 0.372 0 0.287 0.042 0.564 0.12 0.825l-0.005-0.020c0.253 0.897 0.887 1.721 1.596 2.431l0.887 0.883c-0.478 0.46-1.129 0.743-1.847 0.743-1.473 0-2.667-1.194-2.667-2.667 0-0 0-0 0-0v0zM7.333 5.667c0-0.552 0.448-1 1-1v0h1v1c0 0.552-0.448 1-1 1v0h-1v-1zM17.333 4.667h1c0.552 0 1 0.448 1 1v0 1h-1c-0.552 0-1-0.448-1-1v0-1zM19.333 25.333v1c0 0.552-0.448 1-1 1v0h-1v-1c0-0.552 0.448-1 1-1v0h1zM9.333 27.333h-1c-0.552 0-1-0.448-1-1v0-1h1c0.552 0 1 0.448 1 1v0 1z"></path>
</svg>
