<!-- Generated by IcoMoon.io -->
<svg version="1.1" xmlns="http://www.w3.org/2000/svg" width="32" height="32" viewBox="0 0 32 32">
<title>money-dismiss</title>
<path d="M14 10.667c-2.209 0-4 1.791-4 4s1.791 4 4 4c2.209 0 4-1.791 4-4s-1.791-4-4-4zM12 14.667c0-1.105 0.895-2 2-2s2 0.895 2 2-0.895 2-2 2c-1.105 0-2-0.895-2-2zM2.667 9.667c0-1.657 1.343-3 3-3h16.667c1.657 0 3 1.343 3 3v5.232c-0.642-0.152-1.312-0.232-2-0.232v-2h-1c-1.657 0-3-1.343-3-3v-1h-10.667v1c0 1.657-1.343 3-3 3h-1v4h1c1.657 0 3 1.343 3 3v1h6.418c-0.206 0.638-0.34 1.307-0.393 2h-9.025c-1.657 0-3-1.343-3-3v-10zM5.667 8.667c-0.552 0-1 0.448-1 1v1h1c0.552 0 1-0.448 1-1v-1h-1zM23.333 10.667v-1c0-0.552-0.448-1-1-1h-1v1c0 0.552 0.448 1 1 1h1zM4.667 19.667c0 0.552 0.448 1 1 1h1v-1c0-0.552-0.448-1-1-1h-1v1zM5.869 24.667h8.9c0.108 0.698 0.299 1.368 0.562 2h-5.998c-1.481 0-2.773-0.804-3.465-2zM27.333 15.643c0.735 0.383 1.408 0.868 2 1.437v-3.746c0-1.481-0.804-2.773-2-3.465v5.774zM30.667 23.333c0 4.050-3.283 7.333-7.333 7.333s-7.333-3.283-7.333-7.333c0-4.050 3.283-7.333 7.333-7.333s7.333 3.283 7.333 7.333zM21.138 20.195c-0.26-0.26-0.683-0.26-0.943 0s-0.26 0.683 0 0.943l2.195 2.195-2.195 2.195c-0.26 0.26-0.26 0.683 0 0.943s0.683 0.26 0.943 0l2.195-2.195 2.195 2.195c0.26 0.26 0.683 0.26 0.943 0s0.26-0.683 0-0.943l-2.195-2.195 2.195-2.195c0.26-0.26 0.26-0.683 0-0.943s-0.683-0.26-0.943 0l-2.195 2.195-2.195-2.195z"></path>
</svg>
