<!-- Generated by IcoMoon.io -->
<svg version="1.1" xmlns="http://www.w3.org/2000/svg" width="32" height="32" viewBox="0 0 32 32">
<title>money-off</title>
<path d="M4.374 2.96c-0.391-0.391-1.024-0.391-1.414 0s-0.391 1.024 0 1.414l2.318 2.318c-1.473 0.191-2.611 1.45-2.611 2.975v10c0 1.657 1.343 3 3 3h15.586l1.993 1.993c-0.081 0.005-0.163 0.007-0.246 0.007h-17.131c0.692 1.196 1.984 2 3.465 2h13.667c0.679 0 1.334-0.107 1.947-0.305l2.679 2.679c0.391 0.391 1.024 0.391 1.414 0s0.391-1.024 0-1.414l-24.667-24.667zM19.252 20.667h-10.586v-1c0-1.657-1.343-3-3-3h-1v-4h1c1.525 0 2.784-1.138 2.975-2.611l2.181 2.181c-0.516 0.674-0.822 1.516-0.822 2.43 0 2.209 1.791 4 4 4 0.914 0 1.756-0.307 2.43-0.822l2.822 2.822zM12.262 13.676l2.728 2.728c-0.292 0.167-0.63 0.262-0.99 0.262-1.105 0-2-0.895-2-2 0-0.36 0.095-0.698 0.262-0.99zM4.667 9.667c0-0.552 0.448-1 1-1h1v1c0 0.552-0.448 1-1 1h-1v-1zM5.667 20.667c-0.552 0-1-0.448-1-1v-1h1c0.552 0 1 0.448 1 1v1h-1zM22.333 16.667c-0.42 0-0.82 0.086-1.183 0.242l1.758 1.758h0.426v0.426l1.758 1.758c0.156-0.363 0.242-0.763 0.242-1.183v-10c0-1.657-1.343-3-3-3h-11.426l2 2h6.426v1c0 1.657 1.343 3 3 3h1v4h-1zM23.333 9.667v1h-1c-0.552 0-1-0.448-1-1v-1h1c0.552 0 1 0.448 1 1zM26.749 22.508l1.447 1.447c0.717-1.026 1.137-2.275 1.137-3.622v-7c0-1.481-0.804-2.773-2-3.465v10.465c0 0.793-0.213 1.535-0.584 2.175z"></path>
</svg>
