<!-- Generated by IcoMoon.io -->
<svg version="1.1" xmlns="http://www.w3.org/2000/svg" width="32" height="32" viewBox="0 0 32 32">
<title>money-off-regular</title>
<path d="M4.373 2.96c-0.178-0.166-0.418-0.268-0.682-0.268-0.552 0-1 0.448-1 1 0 0.264 0.102 0.504 0.269 0.682l-0.001-0.001 2.317 2.32c-1.48 0.199-2.61 1.454-2.611 2.973v10c0 1.657 1.343 3 3 3v0h15.587l1.992 1.993c-0.073 0.004-0.158 0.006-0.245 0.007h-17.133c0.704 1.204 1.991 2 3.463 2 0.001 0 0.001 0 0.002 0h13.667c0.68 0 1.333-0.107 1.947-0.305l2.68 2.68c0.182 0.188 0.437 0.305 0.719 0.305 0.552 0 1-0.448 1-1 0-0.282-0.117-0.538-0.305-0.719l-24.667-24.667zM19.253 20.667h-10.587v-1c0-1.657-1.343-3-3-3v0h-1v-4h1c0 0 0 0 0 0 1.52 0 2.775-1.13 2.973-2.595l0.002-0.015 2.181 2.181c-0.515 0.666-0.825 1.513-0.825 2.433 0 2.209 1.791 4 4 4 0.92 0 1.767-0.31 2.442-0.832l-0.009 0.007 2.821 2.821zM12.263 13.676l2.728 2.728c-0.285 0.165-0.626 0.262-0.991 0.262-1.105 0-2-0.895-2-2 0-0.364 0.097-0.706 0.268-1l-0.005 0.010zM4.667 9.667c0-0.552 0.448-1 1-1v0h1v1c0 0.552-0.448 1-1 1v0h-1v-1zM5.667 20.667c-0.552 0-1-0.448-1-1v0-1h1c0.552 0 1 0.448 1 1v0 1h-1zM22.333 16.667c-0.001 0-0.002 0-0.003 0-0.426 0-0.832 0.089-1.198 0.25l0.019-0.008 1.756 1.757h0.425v0.427l1.757 1.756c0.153-0.348 0.243-0.753 0.243-1.179 0-0.001 0-0.002 0-0.004v0-10c0-1.656-1.342-2.999-2.999-3h-11.427l2 2h6.427v1c0 1.657 1.343 3 3 3v0h1v4h-1zM23.333 9.667v1h-1c-0.552 0-1-0.448-1-1v0-1h1c0.552 0 1 0.448 1 1v0zM26.749 22.508l1.447 1.447c0.717-1.027 1.137-2.275 1.137-3.621v-7c0-0 0-0.001 0-0.001 0-1.473-0.796-2.76-1.981-3.454l-0.019-0.010v10.465c0 0.002 0 0.004 0 0.006 0 0.799-0.217 1.547-0.595 2.189l0.011-0.020z"></path>
</svg>
