<!-- Generated by IcoMoon.io -->
<svg version="1.1" xmlns="http://www.w3.org/2000/svg" width="32" height="32" viewBox="0 0 32 32">
<title>money-hand</title>
<path d="M8.333 2.667c-1.657 0-3 1.343-3 3v20.667c0 1.657 1.343 3 3 3h10.001c1.647 0 2.985-1.328 3-2.972l0-0.028v-2c0-0.552-0.448-1-1-1-0.605 0-0.986-0.163-1.249-0.374-0.277-0.223-0.506-0.567-0.681-1.052-0.363-1.007-0.403-2.334-0.403-3.573 0-0.253-0.096-0.497-0.269-0.682-0.102-0.109-0.17-0.183-0.219-0.236-0.121-0.13-0.126-0.136-0.227-0.232-0.099-0.093-0.399-0.38-1.577-1.557-0.625-0.624-0.971-1.153-1.084-1.556-0.052-0.185-0.049-0.323-0.021-0.434s0.098-0.255 0.273-0.43c0.175-0.175 0.32-0.244 0.429-0.272s0.248-0.031 0.432 0.021c0.403 0.114 0.931 0.461 1.556 1.086 0.719 0.72 1.403 1.396 2.016 2.002 1.013 1.001 1.831 1.811 2.294 2.307 0.377 0.404 1.010 0.425 1.413 0.049s0.426-1.010 0.049-1.413c-0.379-0.407-0.989-1.017-1.732-1.753l-0-4.485 3.789 3.789c0.563 0.563 0.879 1.326 0.879 2.121v11.677c0 0.552 0.448 1 1 1s1-0.448 1-1v-11.677c0-1.326-0.527-2.598-1.465-3.535l-5.203-5.203-0-2.252c0-1.657-1.343-3-3-3h-10zM16.523 22.586c0.129 0.357 0.296 0.712 0.512 1.043-1.006 0.484-1.7 1.513-1.7 2.705v1h-4v-1c0-1.657-1.343-3-3-3h-1.001v-14.667h1.001c1.657 0 3-1.343 3-3v-1h4v1c0 1.657 1.343 3 3 3h0.999l0 4.585c-0.206-0.205-0.415-0.413-0.625-0.624-0.708-0.709-1.531-1.344-2.428-1.597-0.466-0.131-0.966-0.163-1.471-0.034-0.301 0.077-0.583 0.206-0.843 0.38-0.207-0.028-0.417-0.042-0.631-0.042-2.577 0-4.667 2.089-4.667 4.667s2.089 4.667 4.667 4.667c1.005 0 1.937-0.318 2.698-0.859 0.049 0.912 0.174 1.903 0.49 2.778zM10.667 16c0-1.221 0.821-2.25 1.94-2.567-0.056 0.405-0.015 0.802 0.090 1.177 0.252 0.898 0.887 1.722 1.596 2.43 0.376 0.375 0.664 0.662 0.887 0.883-0.479 0.46-1.13 0.743-1.847 0.743-1.473 0-2.667-1.194-2.667-2.667zM7.333 5.667c0-0.552 0.448-1 1-1h1.001v1c0 0.552-0.448 1-1 1h-1.001v-1zM17.334 4.667h0.999c0.552 0 1 0.448 1 1l0 1h-0.999c-0.552 0-1-0.448-1-1v-1zM19.334 25.334v1c0 0.552-0.448 1-1 1h-1v-1c0-0.552 0.448-1 1-1h1zM9.334 27.333h-1.001c-0.552 0-1-0.448-1-1v-1h1.001c0.552 0 1 0.448 1 1v1z"></path>
</svg>
