<!-- Generated by IcoMoon.io -->
<svg version="1.1" xmlns="http://www.w3.org/2000/svg" width="32" height="32" viewBox="0 0 32 32">
<title>money-dismiss</title>
<path d="M14 10.667c-2.209 0-4 1.791-4 4s1.791 4 4 4v0c2.209 0 4-1.791 4-4s-1.791-4-4-4v0zM12 14.667c0-1.105 0.895-2 2-2s2 0.895 2 2v0c0 1.105-0.895 2-2 2s-2-0.895-2-2v0zM2.667 9.667c0-1.657 1.343-3 3-3v0h16.667c1.657 0 3 1.343 3 3v0 5.232c-0.599-0.147-1.287-0.232-1.995-0.232-0.002 0-0.004 0-0.005 0h0v-2h-1c-1.657 0-3-1.343-3-3v0-1h-10.667v1c0 1.657-1.343 3-3 3v0h-1v4h1c1.657 0 3 1.343 3 3v0 1h6.417c-0.205 0.637-0.34 1.307-0.392 2h-9.025c-1.657 0-3-1.343-3-3v0-10zM5.667 8.667c-0.552 0-1 0.448-1 1v0 1h1c0.552 0 1-0.448 1-1v0-1h-1zM23.333 10.667v-1c0-0.552-0.448-1-1-1v0h-1v1c0 0.552 0.448 1 1 1h1zM4.667 19.667c0 0.552 0.448 1 1 1h1v-1c0-0.552-0.448-1-1-1v0h-1v1zM5.868 24.667h8.9c0.108 0.697 0.299 1.368 0.563 2h-5.997c-1.48 0-2.773-0.804-3.465-2zM27.333 15.643c0.765 0.403 1.422 0.882 2.003 1.44l-0.003-0.003v-3.747c0-1.48-0.804-2.773-2-3.465v5.775zM30.667 23.333c0 4.050-3.283 7.333-7.333 7.333s-7.333-3.283-7.333-7.333v0c0-4.050 3.283-7.333 7.333-7.333s7.333 3.283 7.333 7.333v0zM21.139 20.195c-0.121-0.121-0.288-0.195-0.472-0.195-0.369 0-0.668 0.299-0.668 0.668 0 0.184 0.075 0.351 0.195 0.472v0l2.196 2.195-2.196 2.195c-0.121 0.121-0.195 0.288-0.195 0.472 0 0.369 0.299 0.668 0.668 0.668 0.184 0 0.351-0.075 0.472-0.195l2.195-2.196 2.195 2.196c0.121 0.121 0.288 0.195 0.472 0.195 0.369 0 0.668-0.299 0.668-0.668 0-0.184-0.075-0.351-0.195-0.472l-2.196-2.195 2.196-2.195c0.121-0.121 0.195-0.288 0.195-0.472 0-0.369-0.299-0.668-0.668-0.668-0.184 0-0.351 0.075-0.472 0.195l-2.195 2.196-2.195-2.196z"></path>
</svg>
