<!-- Generated by IcoMoon.io -->
<svg version="1.1" xmlns="http://www.w3.org/2000/svg" width="32" height="32" viewBox="0 0 32 32">
<title>money-calculator</title>
<path d="M14 9.333c-2.209 0-4 1.791-4 4s1.791 4 4 4c2.209 0 4-1.791 4-4s-1.791-4-4-4zM12 13.333c0-1.105 0.895-2 2-2s2 0.895 2 2c0 1.105-0.895 2-2 2s-2-0.895-2-2zM2.667 8.333c0-1.657 1.343-3 3-3h16.667c1.657 0 3 1.343 3 3v6.333h-2v-3.333h-1c-1.657 0-3-1.343-3-3v-1h-10.667v1c0 1.657-1.343 3-3 3h-1v4h1c1.657 0 3 1.343 3 3v1h10v2h-13c-1.657 0-3-1.343-3-3v-10zM5.667 7.333c-0.552 0-1 0.448-1 1v1h1c0.552 0 1-0.448 1-1v-1h-1zM23.333 9.333v-1c0-0.552-0.448-1-1-1h-1v1c0 0.552 0.448 1 1 1h1zM4.667 18.333c0 0.552 0.448 1 1 1h1v-1c0-0.552-0.448-1-1-1h-1v1zM5.869 23.333h12.798v2h-9.333c-1.481 0-2.773-0.804-3.465-2zM29.333 14.667v-2.667c0-1.481-0.804-2.773-2-3.465v6.131h2zM22 16c-1.105 0-2 0.895-2 2v10.667c0 1.105 0.895 2 2 2h6.666c1.105 0 2-0.895 2-2v-10.667c0-1.105-0.895-2-2-2h-6.666zM22.667 22h1.333c0.368 0 0.667 0.299 0.667 0.667s-0.299 0.667-0.667 0.667h-1.333c-0.368 0-0.667-0.299-0.667-0.667s0.299-0.667 0.667-0.667zM26.667 22h1.333c0.368 0 0.667 0.299 0.667 0.667s-0.299 0.667-0.667 0.667h-1.333c-0.368 0-0.667-0.299-0.667-0.667s0.299-0.667 0.667-0.667zM22.667 24.667h1.333c0.368 0 0.667 0.299 0.667 0.667s-0.299 0.667-0.667 0.667h-1.333c-0.368 0-0.667-0.299-0.667-0.667s0.299-0.667 0.667-0.667zM26.667 24.667h1.333c0.368 0 0.667 0.299 0.667 0.667s-0.299 0.667-0.667 0.667h-1.333c-0.368 0-0.667-0.299-0.667-0.667s0.299-0.667 0.667-0.667zM22.667 27.333h1.333c0.368 0 0.667 0.299 0.667 0.667s-0.299 0.667-0.667 0.667h-1.333c-0.368 0-0.667-0.299-0.667-0.667s0.299-0.667 0.667-0.667zM26.667 27.333h1.333c0.368 0 0.667 0.299 0.667 0.667s-0.299 0.667-0.667 0.667h-1.333c-0.368 0-0.667-0.299-0.667-0.667s0.299-0.667 0.667-0.667zM22 18.667c0-0.368 0.299-0.667 0.667-0.667h5.333c0.368 0 0.667 0.299 0.667 0.667v1.333c0 0.368-0.299 0.667-0.667 0.667h-5.333c-0.368 0-0.667-0.299-0.667-0.667v-1.333z"></path>
</svg>
