<!-- Generated by IcoMoon.io -->
<svg version="1.1" xmlns="http://www.w3.org/2000/svg" width="32" height="32" viewBox="0 0 32 32">
<title>more-vertical</title>
<path d="M16 10.333c-1.289 0-2.333-1.045-2.333-2.333s1.045-2.333 2.333-2.333c1.289 0 2.333 1.045 2.333 2.333s-1.045 2.333-2.333 2.333z"></path>
<path d="M16 18.333c-1.289 0-2.333-1.045-2.333-2.333s1.045-2.333 2.333-2.333c1.289 0 2.333 1.045 2.333 2.333s-1.045 2.333-2.333 2.333z"></path>
<path d="M13.667 24c0 1.289 1.045 2.333 2.333 2.333s2.333-1.045 2.333-2.333c0-1.289-1.045-2.333-2.333-2.333s-2.333 1.045-2.333 2.333z"></path>
</svg>
