<!-- Generated by IcoMoon.io -->
<svg version="1.1" xmlns="http://www.w3.org/2000/svg" width="32" height="32" viewBox="0 0 32 32">
<title>more-vertical</title>
<path d="M16.001 10.5c-1.197 0-2.167-0.97-2.167-2.167s0.97-2.167 2.167-2.167v0c1.197 0 2.167 0.97 2.167 2.167s-0.97 2.167-2.167 2.167v0zM16.001 18.167c-1.197 0-2.167-0.97-2.167-2.167s0.97-2.167 2.167-2.167v0c1.197 0 2.167 0.97 2.167 2.167s-0.97 2.167-2.167 2.167v0zM13.835 23.667c0 1.197 0.97 2.167 2.167 2.167s2.167-0.97 2.167-2.167v0c0-1.197-0.97-2.167-2.167-2.167s-2.167 0.97-2.167 2.167v0z"></path>
</svg>
