<!-- Generated by IcoMoon.io -->
<svg version="1.1" xmlns="http://www.w3.org/2000/svg" width="32" height="32" viewBox="0 0 32 32">
<title>movies-and-tv</title>
<path d="M26.305 5.223l0.068 0.213 0.735 2.563c0.139 0.487-0.107 0.993-0.558 1.191l-0.128 0.046-14.303 4.1 14.879 0.001c0.506 0 0.925 0.376 0.991 0.864l0.009 0.136v11.331c0 1.95-1.522 3.545-3.443 3.66l-0.223 0.007h-16.665c-1.95 0-3.545-1.522-3.66-3.443l-0.007-0.223-0-11.189-0.696-2.428c-0.538-1.874 0.486-3.827 2.301-4.467l0.213-0.068 16.020-4.594c1.875-0.538 3.827 0.486 4.467 2.301zM25.997 15.336h-19.997v10.332c0 0.805 0.571 1.477 1.331 1.633l0.165 0.025 0.17 0.009h16.665c0.863 0 1.573-0.656 1.658-1.496l0.009-0.17-0.001-10.332zM8.364 8.866l-1.994 0.572c-0.83 0.238-1.331 1.064-1.181 1.895l0.039 0.166 0.459 1.601 0.393-0.113 2.284-4.121zM14.705 7.047l-3.623 1.039-2.284 4.121 3.623-1.039 2.285-4.121zM21.048 5.229l-3.623 1.039-2.285 4.121 3.622-1.039 2.286-4.122zM23.511 4.917l-2.028 3.653 3.425-0.982-0.458-1.601c-0.143-0.498-0.498-0.878-0.939-1.070z"></path>
</svg>
