<!-- Generated by IcoMoon.io -->
<svg version="1.1" xmlns="http://www.w3.org/2000/svg" width="32" height="32" viewBox="0 0 32 32">
<title>movies-and-tv-regular</title>
<path d="M26.305 5.223l0.067 0.213 0.736 2.563c0.025 0.083 0.039 0.178 0.039 0.276 0 0.406-0.242 0.756-0.59 0.912l-0.006 0.003-0.128 0.047-14.303 4.1h14.88c0.505 0.001 0.921 0.375 0.989 0.861l0.001 0.005 0.009 0.133v11.332c0 0 0 0 0 0 0 1.946-1.516 3.538-3.432 3.659l-0.011 0.001-0.224 0.007h-16.665c-0 0-0 0-0 0-1.946 0-3.538-1.516-3.659-3.432l-0.001-0.011-0.007-0.225v-11.189l-0.696-2.428c-0.090-0.303-0.142-0.65-0.142-1.010 0-1.586 1.008-2.938 2.418-3.448l0.026-0.008 0.213-0.069 16.019-4.593c0.303-0.090 0.65-0.142 1.010-0.142 1.586 0 2.938 1.008 3.448 2.418l0.008 0.026zM25.999 15.336h-19.999v10.332c0 0.805 0.572 1.477 1.331 1.632l0.165 0.027 0.171 0.008h16.667c0.86-0 1.568-0.652 1.657-1.489l0.001-0.007 0.008-0.171v-10.332zM8.363 8.865l-1.995 0.573c-0.703 0.206-1.207 0.845-1.207 1.602 0 0.103 0.009 0.204 0.027 0.302l-0.002-0.010 0.040 0.167 0.459 1.601 0.393-0.113 2.284-4.12zM14.704 7.048l-3.623 1.039-2.285 4.12 3.624-1.037 2.284-4.121zM21.048 5.228l-3.624 1.040-2.284 4.12 3.621-1.037 2.287-4.123zM23.511 4.917l-2.028 3.653 3.425-0.983-0.459-1.6c-0.141-0.484-0.483-0.87-0.928-1.066l-0.011-0.004z"></path>
</svg>
