<!-- Generated by IcoMoon.io -->
<svg version="1.1" xmlns="http://www.w3.org/2000/svg" width="32" height="32" viewBox="0 0 32 32">
<title>mprohibited-regular</title>
<path d="M14.667 2.667c-2.946 0-5.333 2.388-5.333 5.333v0 8c0 2.945 2.388 5.333 5.333 5.333 0.082 0 0.164-0.002 0.245-0.006l-0.012 0c0.161-0.672 0.376-1.259 0.649-1.813l-0.022 0.050c-0.258 0.065-0.555 0.102-0.86 0.102-2.025 0-3.667-1.642-3.667-3.667 0-0 0-0.001 0-0.001v0-8c0-2.025 1.642-3.667 3.667-3.667s3.667 1.642 3.667 3.667v0 8c0 0.087-0.003 0.174-0.009 0.26 0.484-0.348 1.035-0.659 1.619-0.908l0.057-0.021v-7.331c0-2.946-2.388-5.333-5.333-5.333v0zM14.668 23.5c0.021 1.123 0.256 2.193 0.665 3.173v1.827c0 0.46-0.373 0.833-0.833 0.833s-0.833-0.373-0.833-0.833v0-3.387c-4.685-0.498-8.333-4.463-8.333-9.28 0-0.46 0.373-0.833 0.833-0.833s0.833 0.373 0.833 0.833v0c0 4.234 3.433 7.667 7.667 7.667h0.001zM23.333 30.667c-4.050 0-7.333-3.283-7.333-7.333s3.283-7.333 7.333-7.333 7.333 3.283 7.333 7.333-3.283 7.333-7.333 7.333zM23.333 29.333c0 0 0 0 0.001 0 3.314 0 6-2.686 6-6 0-1.422-0.495-2.729-1.322-3.757l0.009 0.012-8.433 8.433c1.013 0.817 2.317 1.312 3.736 1.312 0.003 0 0.007 0 0.010 0h-0.001zM18.645 27.079l8.433-8.433c-1.017-0.819-2.325-1.315-3.748-1.315-3.314 0-6 2.686-6 6 0 1.423 0.496 2.731 1.324 3.759l-0.009-0.012z"></path>
</svg>
