<!-- Generated by IcoMoon.io -->
<svg version="1.1" xmlns="http://www.w3.org/2000/svg" width="32" height="32" viewBox="0 0 32 32">
<title>multiplier-5x</title>
<path d="M9.336 10.267c0.035-0.525 0.471-0.933 0.998-0.933h6c0.552 0 1 0.448 1 1s-0.448 1-1 1h-5.064l-0.189 2.836 1.714-0.245c2.748-0.393 5.206 1.74 5.206 4.515 0 2.519-2.042 4.561-4.561 4.561h-0.473c-1.42 0-2.775-0.6-3.729-1.652l-0.311-0.343c-0.371-0.409-0.34-1.042 0.069-1.413s1.042-0.34 1.413 0.069l0.311 0.343c0.575 0.634 1.391 0.996 2.248 0.996h0.473c1.414 0 2.561-1.147 2.561-2.561 0-1.558-1.38-2.756-2.923-2.535l-2.936 0.419c-0.299 0.043-0.6-0.052-0.821-0.257s-0.338-0.499-0.318-0.8l0.333-5zM18.96 16.293c0.391-0.391 1.024-0.391 1.414 0l1.626 1.626 1.626-1.626c0.391-0.391 1.024-0.391 1.414 0s0.391 1.024 0 1.414l-1.626 1.626 1.626 1.626c0.391 0.391 0.391 1.024 0 1.414s-1.024 0.391-1.414 0l-1.626-1.626-1.626 1.626c-0.391 0.391-1.024 0.391-1.414 0s-0.391-1.024 0-1.414l1.626-1.626-1.626-1.626c-0.391-0.391-0.391-1.024 0-1.414zM6.333 22.667c0.552 0 1-0.448 1-1s-0.448-1-1-1c-0.552 0-1 0.448-1 1s0.448 1 1 1z"></path>
</svg>
