<!-- Generated by IcoMoon.io -->
<svg version="1.1" xmlns="http://www.w3.org/2000/svg" width="32" height="32" viewBox="0 0 32 32">
<title>multiplier-2x</title>
<path d="M8.215 13.66c0.544 0.065 1.038-0.32 1.11-0.862 0.001-0.004 0.002-0.014 0.005-0.029 0.007-0.033 0.020-0.088 0.043-0.158 0.046-0.143 0.128-0.332 0.265-0.518 0.242-0.329 0.733-0.759 1.851-0.759 1.035 0 1.714 0.319 2.096 0.744 0.372 0.414 0.602 1.082 0.429 2.087-0.097 0.567-0.377 0.9-0.85 1.196-0.399 0.249-0.843 0.422-1.391 0.636-0.223 0.087-0.463 0.181-0.724 0.289-0.826 0.342-1.785 0.81-2.521 1.67-0.761 0.888-1.194 2.084-1.194 3.712 0 0.265 0.105 0.52 0.293 0.707s0.442 0.293 0.707 0.293h6.667c0.552 0 1-0.448 1-1s-0.448-1-1-1h-5.584c0.12-0.657 0.359-1.093 0.63-1.411 0.416-0.486 1.006-0.807 1.768-1.123 0.162-0.067 0.341-0.137 0.529-0.21 0.606-0.236 1.309-0.51 1.88-0.867 0.835-0.522 1.546-1.297 1.762-2.554 0.251-1.461-0.041-2.794-0.914-3.763-0.862-0.958-2.151-1.406-3.583-1.406-1.759 0-2.846 0.737-3.462 1.574-0.293 0.398-0.46 0.792-0.556 1.086-0.048 0.148-0.079 0.275-0.099 0.37-0.010 0.048-0.017 0.088-0.022 0.119-0.003 0.016-0.004 0.029-0.006 0.040l-0.002 0.015-0.001 0.006-0 0.003c-0 0.004-0.062 0.518-0 0.002-0.065 0.548 0.326 1.046 0.875 1.111zM19.041 16.293c-0.391-0.391-1.024-0.391-1.414 0s-0.391 1.024 0 1.414l1.626 1.626-1.626 1.626c-0.391 0.391-0.391 1.024 0 1.414s1.024 0.391 1.414 0l1.626-1.626 1.626 1.626c0.391 0.391 1.024 0.391 1.414 0s0.391-1.024 0-1.414l-1.626-1.626 1.626-1.626c0.39-0.391 0.39-1.024-0-1.414s-1.024-0.391-1.414 0l-1.626 1.626-1.626-1.626z"></path>
</svg>
