<!-- Generated by IcoMoon.io -->
<svg version="1.1" xmlns="http://www.w3.org/2000/svg" width="32" height="32" viewBox="0 0 32 32">
<title>multiplier-1x-regular</title>
<path d="M13 10.167c0-0 0-0 0-0 0-0.46-0.373-0.833-0.833-0.833-0.302 0-0.566 0.161-0.713 0.401l-0.002 0.004-0.001 0.003-0.010 0.017c-0.097 0.155-0.171 0.267-0.247 0.377l0.022-0.034c-0.159 0.231-0.388 0.549-0.67 0.889-0.583 0.703-1.317 1.415-2.057 1.752-0.286 0.136-0.481 0.423-0.481 0.755 0 0.46 0.373 0.833 0.833 0.833 0.122 0 0.238-0.026 0.342-0.073l-0.005 0.002c0.833-0.379 1.573-1.023 2.155-1.643v9.218c0 0.46 0.373 0.833 0.833 0.833s0.833-0.373 0.833-0.833v0-11.667zM17.423 16.244c-0.151-0.151-0.359-0.244-0.589-0.244-0.46 0-0.833 0.373-0.833 0.833 0 0.23 0.093 0.439 0.244 0.589v0l1.911 1.911-1.911 1.911c-0.151 0.151-0.244 0.359-0.244 0.589 0 0.46 0.373 0.833 0.833 0.833 0.23 0 0.439-0.093 0.589-0.244v0l1.911-1.911 1.911 1.911c0.151 0.151 0.359 0.244 0.589 0.244 0.46 0 0.833-0.373 0.833-0.833 0-0.23-0.093-0.439-0.244-0.589v0l-1.911-1.911 1.911-1.911c0.151-0.151 0.244-0.359 0.244-0.589 0-0.46-0.373-0.833-0.833-0.833-0.23 0-0.439 0.093-0.589 0.244v0l-1.911 1.911-1.911-1.911z"></path>
</svg>
