<!-- Generated by IcoMoon.io -->
<svg version="1.1" xmlns="http://www.w3.org/2000/svg" width="32" height="32" viewBox="0 0 32 32">
<title>multiplier-1-8x</title>
<path d="M20.333 12.583c0 1.009-0.461 1.877-1.175 2.485 1.198 0.753 2.008 2.022 2.008 3.515 0 2.419-2.127 4.25-4.583 4.25s-4.583-1.831-4.583-4.25c0-1.493 0.811-2.762 2.009-3.515-0.713-0.609-1.175-1.477-1.175-2.485 0-1.979 1.777-3.417 3.75-3.417s3.75 1.437 3.75 3.417zM16.583 10.833c-1.248 0-2.083 0.876-2.083 1.75s0.835 1.75 2.083 1.75c1.249 0 2.083-0.876 2.083-1.75s-0.835-1.75-2.083-1.75zM13.667 18.583c0 1.355 1.231 2.583 2.917 2.583s2.917-1.228 2.917-2.583-1.231-2.583-2.917-2.583c-1.685 0-2.917 1.228-2.917 2.583zM24.089 16.244c-0.151-0.151-0.359-0.244-0.589-0.244-0.46 0-0.833 0.373-0.833 0.833 0 0.23 0.093 0.439 0.244 0.589v0l1.911 1.911-1.911 1.911c-0.151 0.151-0.244 0.359-0.244 0.589 0 0.46 0.373 0.833 0.833 0.833 0.23 0 0.439-0.093 0.589-0.244v0l1.911-1.911 1.911 1.911c0.151 0.151 0.359 0.244 0.589 0.244 0.46 0 0.833-0.373 0.833-0.833 0-0.23-0.093-0.439-0.244-0.589v0l-1.911-1.911 1.911-1.911c0.151-0.151 0.244-0.359 0.244-0.589 0-0.46-0.373-0.833-0.833-0.833-0.23 0-0.439 0.093-0.589 0.244v0l-1.911 1.911-1.911-1.911zM11 21.833c0 0.46-0.373 0.833-0.833 0.833s-0.833-0.373-0.833-0.833v0c0-0.46 0.373-0.833 0.833-0.833s0.833 0.373 0.833 0.833v0zM7.667 10.167c-0.001-0.46-0.373-0.832-0.833-0.832-0.301 0-0.566 0.16-0.712 0.4l-0.002 0.004-0.002 0.003-0.010 0.017c-0.096 0.154-0.17 0.266-0.247 0.376l0.022-0.033c-0.159 0.231-0.388 0.549-0.67 0.889-0.583 0.703-1.317 1.415-2.057 1.752-0.291 0.134-0.488 0.423-0.488 0.759 0 0.46 0.373 0.833 0.833 0.833 0.125 0 0.244-0.028 0.35-0.077l-0.005 0.002c0.833-0.379 1.573-1.023 2.155-1.643v9.218c0 0.46 0.373 0.833 0.833 0.833s0.833-0.373 0.833-0.833v0-11.667z"></path>
</svg>
