<!-- Generated by IcoMoon.io -->
<svg version="1.1" xmlns="http://www.w3.org/2000/svg" width="32" height="32" viewBox="0 0 32 32">
<title>multiplier-1-2x</title>
<path d="M7.27 9.371c0.432 0.121 0.73 0.515 0.73 0.963v11.333c0 0.552-0.448 1-1 1s-1-0.448-1-1v-8.556c-0.51 0.492-1.12 0.995-1.819 1.414-0.474 0.284-1.088 0.131-1.372-0.343s-0.131-1.088 0.343-1.372c0.901-0.54 1.653-1.286 2.19-1.919 0.265-0.313 0.471-0.589 0.608-0.785 0.069-0.098 0.12-0.175 0.153-0.225 0.016-0.025 0.028-0.044 0.036-0.055l0.007-0.011 0.001-0.001c0.233-0.383 0.692-0.563 1.123-0.442zM13.891 13.661c0.545 0.060 1.035-0.33 1.101-0.872 0.001-0.004 0.002-0.013 0.005-0.028 0.006-0.032 0.019-0.088 0.041-0.158 0.045-0.143 0.124-0.331 0.258-0.515 0.236-0.325 0.719-0.754 1.837-0.754 1.032 0 1.6 0.314 1.899 0.694 0.31 0.393 0.499 1.071 0.316 2.137-0.101 0.586-0.377 0.92-0.817 1.208-0.374 0.245-0.786 0.415-1.301 0.627-0.214 0.088-0.445 0.183-0.699 0.294-0.789 0.345-1.706 0.818-2.407 1.683-0.72 0.889-1.124 2.077-1.124 3.691 0 0.265 0.105 0.52 0.293 0.707s0.442 0.293 0.707 0.293h6.333c0.552 0 1-0.448 1-1s-0.448-1-1-1h-5.256c0.114-0.669 0.343-1.113 0.601-1.432 0.389-0.48 0.938-0.797 1.654-1.11 0.152-0.066 0.321-0.136 0.499-0.209 0.574-0.236 1.25-0.513 1.797-0.872 0.807-0.529 1.478-1.305 1.691-2.542 0.241-1.4 0.064-2.723-0.716-3.713-0.791-1.004-2.034-1.456-3.47-1.456-1.76 0-2.844 0.737-3.455 1.579-0.29 0.399-0.454 0.794-0.547 1.089-0.047 0.149-0.077 0.276-0.096 0.371-0.009 0.048-0.016 0.088-0.021 0.119-0.002 0.016-0.004 0.029-0.006 0.040l-0.002 0.015-0.001 0.006-0 0.003c-0 0.004-0.058 0.533-0 0.002-0.060 0.549 0.336 1.043 0.885 1.103zM24.374 16.293c-0.391-0.391-1.024-0.391-1.414 0s-0.391 1.024 0 1.414l1.626 1.626-1.626 1.626c-0.391 0.391-0.391 1.024 0 1.414s1.024 0.391 1.414 0l1.626-1.626 1.626 1.626c0.391 0.391 1.024 0.391 1.414 0s0.391-1.024 0-1.414l-1.626-1.626 1.626-1.626c0.391-0.391 0.391-1.024 0-1.414s-1.024-0.391-1.414 0l-1.626 1.626-1.626-1.626zM11.333 21.667c0 0.552-0.448 1-1 1s-1-0.448-1-1c0-0.552 0.448-1 1-1s1 0.448 1 1z"></path>
</svg>
