<!-- Generated by IcoMoon.io -->
<svg version="1.1" xmlns="http://www.w3.org/2000/svg" width="32" height="32" viewBox="0 0 32 32">
<title>multiplier-5x-regular</title>
<path d="M10.171 10.084c0.043-0.423 0.398-0.751 0.829-0.751 0 0 0 0 0 0h5.833c0.46 0 0.833 0.373 0.833 0.833s-0.373 0.833-0.833 0.833v0h-5.079l-0.321 3.217 1.937-0.231c2.641-0.315 4.964 1.748 4.964 4.408 0 2.452-1.988 4.439-4.439 4.439v0h-0.323c-1.395-0-2.649-0.6-3.52-1.555l-0.003-0.004-0.498-0.547c-0.134-0.147-0.217-0.344-0.217-0.561 0-0.46 0.373-0.833 0.833-0.833 0.244 0 0.464 0.105 0.616 0.272l0.001 0.001 0.497 0.547c0.568 0.624 1.384 1.013 2.29 1.013 0 0 0 0 0 0h0.323c1.531-0.001 2.772-1.242 2.772-2.773s-1.241-2.773-2.773-2.773c-0.115 0-0.229 0.007-0.34 0.021l0.013-0.001-2.967 0.353c-0.030 0.004-0.064 0.006-0.099 0.006-0.46 0-0.833-0.373-0.833-0.833 0-0.029 0.002-0.058 0.004-0.086l-0 0.004 0.5-5zM19.577 16.244c0.151-0.151 0.359-0.244 0.589-0.244s0.439 0.093 0.589 0.244l1.911 1.911 1.911-1.911c0.151-0.151 0.359-0.244 0.589-0.244 0.46 0 0.833 0.373 0.833 0.833 0 0.23-0.093 0.439-0.244 0.589v0l-1.911 1.911 1.911 1.911c0.151 0.151 0.244 0.359 0.244 0.589 0 0.46-0.373 0.833-0.833 0.833-0.23 0-0.439-0.093-0.589-0.244v0l-1.911-1.911-1.911 1.911c-0.151 0.151-0.359 0.244-0.589 0.244-0.46 0-0.833-0.373-0.833-0.833 0-0.23 0.093-0.439 0.244-0.589v0l1.911-1.911-1.911-1.911c-0.151-0.151-0.244-0.359-0.244-0.589s0.093-0.439 0.244-0.589v0zM6.833 22.667c0.46 0 0.833-0.373 0.833-0.833s-0.373-0.833-0.833-0.833v0c-0.46 0-0.833 0.373-0.833 0.833s0.373 0.833 0.833 0.833v0z"></path>
</svg>
