<!-- Generated by IcoMoon.io -->
<svg version="1.1" xmlns="http://www.w3.org/2000/svg" width="32" height="32" viewBox="0 0 32 32">
<title>multiplier-1-2x</title>
<path d="M7.667 10.167c-0.001-0.46-0.373-0.832-0.833-0.832-0.301 0-0.566 0.16-0.712 0.4l-0.002 0.004-0.002 0.003-0.010 0.017c-0.097 0.155-0.171 0.266-0.247 0.377l0.022-0.034c-0.159 0.231-0.388 0.549-0.67 0.889-0.583 0.703-1.317 1.415-2.057 1.752-0.291 0.134-0.488 0.423-0.488 0.759 0 0.46 0.373 0.833 0.833 0.833 0.125 0 0.244-0.028 0.35-0.077l-0.005 0.002c0.833-0.379 1.573-1.023 2.155-1.643v9.218c0 0.46 0.373 0.833 0.833 0.833s0.833-0.373 0.833-0.833v0-11.667zM13.354 13.32c0.044 0.008 0.095 0.013 0.147 0.013 0.405 0 0.743-0.29 0.818-0.673l0.001-0.005v-0.002l0.009-0.037c0.086-0.292 0.221-0.545 0.397-0.764l-0.003 0.004c0.316-0.393 0.913-0.855 2.111-0.855 1.063 0 1.733 0.348 2.111 0.828 0.387 0.491 0.589 1.271 0.401 2.364-0.11 0.643-0.432 1.026-0.939 1.351-0.413 0.265-0.877 0.454-1.431 0.679-0.221 0.090-0.457 0.186-0.709 0.295-0.821 0.353-1.747 0.825-2.453 1.669-0.725 0.867-1.147 2.035-1.147 3.648 0 0.46 0.373 0.833 0.833 0.833v0h6.667c0.46 0 0.833-0.373 0.833-0.833s-0.373-0.833-0.833-0.833v0h-5.781c0.109-0.816 0.381-1.355 0.707-1.745 0.445-0.532 1.067-0.877 1.833-1.207 0.17-0.073 0.355-0.149 0.547-0.227 0.602-0.244 1.281-0.519 1.835-0.875 0.803-0.516 1.473-1.265 1.68-2.471 0.242-1.407 0.028-2.71-0.735-3.678-0.771-0.978-1.983-1.463-3.42-1.463-1.719 0-2.788 0.704-3.41 1.478-0.237 0.294-0.436 0.632-0.581 0.997l-0.009 0.026c-0.055 0.137-0.106 0.303-0.145 0.474l-0.004 0.023-0.002 0.013-0.001 0.005v0.003s0.093-0.525-0.001 0.001c-0.008 0.044-0.013 0.095-0.013 0.146 0 0.409 0.294 0.748 0.682 0.82l0.005 0.001zM24.089 16.244c-0.151-0.151-0.359-0.244-0.589-0.244-0.46 0-0.833 0.373-0.833 0.833 0 0.23 0.093 0.439 0.244 0.589v0l1.911 1.911-1.911 1.911c-0.151 0.151-0.244 0.359-0.244 0.589 0 0.46 0.373 0.833 0.833 0.833 0.23 0 0.439-0.093 0.589-0.244v0l1.911-1.911 1.911 1.911c0.151 0.151 0.359 0.244 0.589 0.244 0.46 0 0.833-0.373 0.833-0.833 0-0.23-0.093-0.439-0.244-0.589v0l-1.911-1.911 1.911-1.911c0.151-0.151 0.244-0.359 0.244-0.589 0-0.46-0.373-0.833-0.833-0.833-0.23 0-0.439 0.093-0.589 0.244v0l-1.911 1.911-1.911-1.911zM11 21.833c0 0.46-0.373 0.833-0.833 0.833s-0.833-0.373-0.833-0.833v0c0-0.46 0.373-0.833 0.833-0.833s0.833 0.373 0.833 0.833v0z"></path>
</svg>
