<!-- Generated by IcoMoon.io -->
<svg version="1.1" xmlns="http://www.w3.org/2000/svg" width="32" height="32" viewBox="0 0 32 32">
<title>multiselect</title>
<path d="M9.040 6.374c0.391-0.391 0.391-1.024 0-1.414s-1.024-0.391-1.414 0l-2.626 2.626-0.626-0.626c-0.391-0.391-1.024-0.391-1.414 0s-0.391 1.024 0 1.414l1.333 1.333c0.391 0.391 1.024 0.391 1.414 0l3.333-3.333zM13 24.009h15.333c0.552 0 1 0.448 1 1 0 0.506-0.376 0.925-0.864 0.991l-0.136 0.009h-15.333c-0.552 0-1-0.448-1-1 0-0.506 0.376-0.925 0.864-0.991l0.136-0.009zM13 15.333h15.333c0.552 0 1 0.448 1 1 0 0.506-0.376 0.925-0.864 0.991l-0.136 0.009h-15.333c-0.552 0-1-0.448-1-1 0-0.506 0.376-0.925 0.864-0.991l0.136-0.009zM13 6.667h15.333c0.552 0 1 0.448 1 1 0 0.506-0.376 0.925-0.864 0.991l-0.136 0.009h-15.333c-0.552 0-1-0.448-1-1 0-0.506 0.376-0.925 0.864-0.991l0.136-0.009zM9.040 22.293c0.391 0.391 0.391 1.024 0 1.414l-3.333 3.333c-0.391 0.391-1.024 0.391-1.414 0l-1.333-1.333c-0.391-0.391-0.391-1.024 0-1.414s1.024-0.391 1.414 0l0.626 0.626 2.626-2.626c0.391-0.391 1.024-0.391 1.414 0z"></path>
</svg>
