<!-- Generated by IcoMoon.io -->
<svg version="1.1" xmlns="http://www.w3.org/2000/svg" width="32" height="32" viewBox="0 0 32 32">
<title>music-note-2</title>
<path d="M26.264 2.864c0.254 0.189 0.403 0.486 0.403 0.802v18c0 0.036-0.002 0.071-0.005 0.105 0.004 0.075 0.005 0.152 0.005 0.228 0 2.577-2.089 4.667-4.667 4.667s-4.667-2.089-4.667-4.667c0-2.577 2.089-4.667 4.667-4.667 0.991 0 1.911 0.309 2.667 0.836v-7.826l-11.333 3.4v10.589c0 0.035-0.002 0.071-0.005 0.105 0.004 0.076 0.005 0.152 0.005 0.228 0 2.577-2.089 4.667-4.667 4.667s-4.667-2.089-4.667-4.667c0-2.577 2.089-4.667 4.667-4.667 0.992 0 1.911 0.309 2.667 0.836v-13.17c0-0.442 0.29-0.831 0.713-0.958l13.333-4c0.303-0.091 0.631-0.033 0.884 0.156zM13.333 11.656l11.333-3.4v-3.245l-11.333 3.4v3.245zM8.667 22c-1.473 0-2.667 1.194-2.667 2.667s1.194 2.667 2.667 2.667c1.473 0 2.667-1.194 2.667-2.667s-1.194-2.667-2.667-2.667zM19.333 22c0 1.473 1.194 2.667 2.667 2.667s2.667-1.194 2.667-2.667c0-1.473-1.194-2.667-2.667-2.667s-2.667 1.194-2.667 2.667z"></path>
</svg>
