<!-- Generated by IcoMoon.io -->
<svg version="1.1" xmlns="http://www.w3.org/2000/svg" width="32" height="32" viewBox="0 0 32 32">
<title>music-note-off-1</title>
<path d="M16 17.413l11.627 11.627c0.178 0.166 0.418 0.268 0.682 0.268 0.552 0 1-0.448 1-1 0-0.264-0.102-0.504-0.269-0.682l0.001 0.001-24.667-24.667c-0.183-0.196-0.443-0.318-0.732-0.318-0.552 0-1 0.448-1 1 0 0.289 0.122 0.549 0.318 0.731l0.001 0.001 11.040 11.040v4.423c-0.904-0.729-2.067-1.17-3.333-1.17-2.946 0-5.333 2.388-5.333 5.333s2.388 5.333 5.333 5.333c2.74 0 4.997-2.066 5.299-4.726l0.002-0.024c0.020-0.075 0.032-0.161 0.032-0.249v-6.92zM14 24c0 1.841-1.492 3.333-3.333 3.333s-3.333-1.492-3.333-3.333v0c0-1.841 1.492-3.333 3.333-3.333s3.333 1.492 3.333 3.333v0zM25.316 15.269l-9.285-3.481-2.031-2.031v-6.091c0-0.552 0.448-1 1-1 0.126 0 0.246 0.023 0.358 0.066l-0.007-0.002 8.504 3.188c1.657 0.634 2.812 2.211 2.812 4.058 0 0 0 0.001 0 0.001v-0 4.356c-0 0.552-0.448 0.999-1 0.999-0.126 0-0.247-0.023-0.358-0.066l0.007 0.002zM24.667 12.891v-2.913c0-0.001 0-0.001 0-0.002 0-0.995-0.622-1.844-1.499-2.18l-0.016-0.005-7.152-2.679v4.528l8.667 3.251z"></path>
</svg>
