<!-- Generated by IcoMoon.io -->
<svg version="1.1" xmlns="http://www.w3.org/2000/svg" width="32" height="32" viewBox="0 0 32 32">
<title>music-note-2-play</title>
<path d="M23.523 3.562c0.143-0.046 0.307-0.073 0.477-0.073 0.883 0 1.599 0.716 1.6 1.599v9.643c-0.462-0.136-1.006-0.24-1.566-0.292l-0.034-0.003v-4.549l-11.2 3.501v11.411c0 2.209-1.791 4-4 4s-4-1.791-4-4c0-2.209 1.791-4 4-4 0.905 0 1.74 0.301 2.41 0.807l-0.010-0.007v-13.011c0-0 0-0 0-0.001 0-0.713 0.467-1.318 1.112-1.524l0.011-0.003 11.2-3.499zM12.8 11.712l11.2-3.499v-3.125l-11.2 3.501v3.123zM8.8 22.4c-1.325 0-2.4 1.075-2.4 2.4s1.075 2.4 2.4 2.4v0c1.325 0 2.4-1.075 2.4-2.4s-1.075-2.4-2.4-2.4v0zM30.4 23.2c0 3.976-3.224 7.2-7.2 7.2s-7.2-3.224-7.2-7.2v0c0-3.976 3.224-7.2 7.2-7.2s7.2 3.224 7.2 7.2v0zM26.776 22.502l-4.79-2.64c-0.111-0.062-0.244-0.099-0.386-0.099-0.442 0-0.8 0.358-0.8 0.8v0 5.28c0 0.442 0.358 0.8 0.8 0.8 0.141 0 0.274-0.037 0.39-0.101l-0.004 0.002 4.79-2.64c0.249-0.139 0.414-0.401 0.414-0.701s-0.165-0.562-0.41-0.699l-0.004-0.002z"></path>
</svg>
