<!-- Generated by IcoMoon.io -->
<svg version="1.1" xmlns="http://www.w3.org/2000/svg" width="32" height="32" viewBox="0 0 32 32">
<title>musnote-off-2-regular</title>
<path d="M11.333 12.747v8.089c-0.744-0.524-1.669-0.837-2.666-0.837-2.577 0-4.667 2.089-4.667 4.667s2.089 4.667 4.667 4.667c2.577 0 4.667-2.089 4.667-4.667 0-0.080-0.002-0.159-0.006-0.238l0 0.011c0.003-0.031 0.005-0.067 0.005-0.104 0-0.001 0-0.001 0-0.002v0-9.587l4.736 4.737c-0.462 0.712-0.737 1.582-0.737 2.517 0 2.577 2.089 4.667 4.667 4.667 0.935 0 1.805-0.275 2.535-0.748l-0.018 0.011 3.109 3.109c0.18 0.174 0.425 0.281 0.695 0.281 0.552 0 1-0.448 1-1 0-0.27-0.107-0.515-0.281-0.695l-24.666-24.666c-0.183-0.196-0.443-0.318-0.732-0.318-0.552 0-1 0.448-1 1 0 0.289 0.122 0.549 0.318 0.731l0.001 0.001 8.373 8.373zM23.040 24.456c-0.308 0.134-0.666 0.212-1.043 0.212-1.473 0-2.667-1.194-2.667-2.667 0-0.377 0.078-0.735 0.219-1.060l-0.007 0.017 3.499 3.497zM8.667 22c1.473 0 2.667 1.194 2.667 2.667s-1.194 2.667-2.667 2.667v0c-1.473 0-2.667-1.194-2.667-2.667s1.194-2.667 2.667-2.667v0zM22 17.333c-0.137 0-0.273 0.005-0.407 0.017l5.056 5.056c0.011-0.122 0.018-0.263 0.018-0.406 0-0.080-0.002-0.16-0.006-0.239l0 0.011c0.003-0.031 0.005-0.067 0.005-0.104 0-0 0-0.001 0-0.001v0-18c-0-0.552-0.448-0.999-1-0.999-0.102 0-0.201 0.015-0.294 0.044l0.007-0.002-13.333 4c-0.262 0.080-0.474 0.258-0.597 0.489l-0.003 0.005 1.887 1.887v-0.68l11.333-3.4v3.245l-9.36 2.808 1.605 1.607 7.755-2.327v7.827c-0.742-0.524-1.665-0.837-2.66-0.837-0.002 0-0.004 0-0.006 0h0z"></path>
</svg>
