<!-- Generated by IcoMoon.io -->
<svg version="1.1" xmlns="http://www.w3.org/2000/svg" width="32" height="32" viewBox="0 0 32 32">
<title>musnote-2-regular</title>
<path d="M26.264 2.864c0.246 0.184 0.403 0.475 0.403 0.802 0 0 0 0 0 0.001v-0 18c0 0 0 0.001 0 0.001 0 0.037-0.002 0.073-0.006 0.109l0-0.004c0.004 0.068 0.006 0.147 0.006 0.227 0 2.577-2.089 4.667-4.667 4.667s-4.667-2.089-4.667-4.667c0-2.577 2.089-4.667 4.667-4.667 0.998 0 1.923 0.313 2.681 0.847l-0.015-0.010v-7.825l-11.333 3.4v10.589c0 0.001 0 0.001 0 0.002 0 0.036-0.002 0.073-0.006 0.108l0-0.004c0.004 0.068 0.006 0.147 0.006 0.227 0 2.577-2.089 4.667-4.667 4.667s-4.667-2.089-4.667-4.667c0-2.577 2.089-4.667 4.667-4.667 0.998 0 1.923 0.313 2.681 0.847l-0.015-0.010v-13.169c0-0.449 0.297-0.83 0.705-0.955l0.007-0.002 13.333-4c0.086-0.027 0.186-0.043 0.289-0.043 0.225 0 0.432 0.074 0.599 0.199l-0.003-0.002zM13.333 11.656l11.333-3.4v-3.245l-11.333 3.4v3.245zM8.667 22c-1.473 0-2.667 1.194-2.667 2.667s1.194 2.667 2.667 2.667v0c1.473 0 2.667-1.194 2.667-2.667s-1.194-2.667-2.667-2.667v0zM19.333 22c0 1.473 1.194 2.667 2.667 2.667s2.667-1.194 2.667-2.667v0c0-1.473-1.194-2.667-2.667-2.667s-2.667 1.194-2.667 2.667v0z"></path>
</svg>
