<!-- Generated by IcoMoon.io -->
<svg version="1.1" xmlns="http://www.w3.org/2000/svg" width="32" height="32" viewBox="0 0 32 32">
<title>my-location</title>
<path d="M16 2.667c0.504 0 0.921 0.373 0.99 0.859l0.001 0.005 0.009 0.136v2.384c4.734 0.489 8.462 4.218 8.947 8.909l0.004 0.043 0.049-0.003h2.333c0.552 0 1 0.448 1 1 0 0.504-0.373 0.921-0.858 0.99l-0.005 0.001-0.136 0.009-2.384-0.001c-0.489 4.734-4.218 8.463-8.909 8.948l-0.043 0.004 0.003 0.049v2.333c-0 0.552-0.448 1-1 1-0.504 0-0.921-0.373-0.99-0.858l-0.001-0.005-0.009-0.136 0.001-2.384c-4.734-0.489-8.463-4.218-8.948-8.909l-0.004-0.043-0.049 0.003h-2.333c-0.552-0-1-0.448-1-1 0-0.504 0.373-0.921 0.858-0.99l0.005-0.001 0.136-0.009h2.384c0.489-4.734 4.218-8.462 8.909-8.947l0.043-0.004-0.003-0.049v-2.333c0-0.552 0.448-1 1-1v0zM16 8c-4.418 0-8 3.582-8 8s3.582 8 8 8v0c4.418 0 8-3.582 8-8s-3.582-8-8-8v0zM16 10.667c2.946 0 5.333 2.388 5.333 5.333s-2.388 5.333-5.333 5.333v0c-2.946 0-5.333-2.388-5.333-5.333s2.388-5.333 5.333-5.333v0z"></path>
</svg>
