<!-- Generated by IcoMoon.io -->
<svg version="1.1" xmlns="http://www.w3.org/2000/svg" width="32" height="32" viewBox="0 0 32 32">
<title>navigation-unread</title>
<path d="M25.667 11.333c2.025 0 3.667-1.642 3.667-3.667s-1.642-3.667-3.667-3.667v0c-2.025 0-3.667 1.642-3.667 3.667s1.642 3.667 3.667 3.667v0zM20.768 8.671c-0.065-0.303-0.102-0.65-0.102-1.007 0-0.352 0.036-0.695 0.105-1.026l-0.006 0.033-17.232 0.009c-0.491 0.069-0.864 0.486-0.864 0.991 0 0.552 0.448 1 1 1h17.099zM28.337 24l-24.803 0.009c-0.491 0.069-0.864 0.486-0.864 0.991 0 0.552 0.448 1 1 1l24.803-0.009c0.491-0.069 0.864-0.486 0.864-0.991 0-0.552-0.448-1-1-1h-0zM3.671 15.337h24.667c0.552 0 1 0.448 1 1 0 0.504-0.373 0.921-0.858 0.99l-0.005 0.001-0.136 0.009h-24.667c-0.552-0-1-0.448-1-1 0-0.504 0.373-0.921 0.858-0.99l0.005-0.001 0.136-0.009z"></path>
</svg>
