<!-- Generated by IcoMoon.io -->
<svg version="1.1" xmlns="http://www.w3.org/2000/svg" width="32" height="32" viewBox="0 0 32 32">
<title>new-regular</title>
<path d="M24.333 5.333c0.552 0 1 0.448 1 1v0 11.333c0 0.552-0.448 1-1 1s-1-0.448-1-1v0-11.333c0-0.552 0.448-1 1-1v0zM5.333 24.333c0-0.552 0.448-1 1-1v0h11.333c0.552 0 1 0.448 1 1s-0.448 1-1 1v0h-11.333c-0.552 0-1-0.448-1-1v0zM11.040 9.627c-0.178-0.166-0.418-0.268-0.682-0.268-0.552 0-1 0.448-1 1 0 0.264 0.102 0.504 0.269 0.682l-0.001-0.001 8.667 8.667c0.183 0.196 0.443 0.318 0.732 0.318 0.552 0 1-0.448 1-1 0-0.289-0.122-0.549-0.318-0.731l-0.001-0.001-8.667-8.667z"></path>
</svg>
