<!-- Generated by IcoMoon.io -->
<svg version="1.1" xmlns="http://www.w3.org/2000/svg" width="32" height="32" viewBox="0 0 32 32">
<title>new</title>
<path d="M24.333 5.333c0.552 0 1 0.448 1 1v11.333c0 0.552-0.448 1-1 1s-1-0.448-1-1v-11.333c0-0.552 0.448-1 1-1z"></path>
<path d="M5.333 24.333c0-0.552 0.448-1 1-1h11.333c0.552 0 1 0.448 1 1s-0.448 1-1 1h-11.333c-0.552 0-1-0.448-1-1z"></path>
<path d="M11.040 9.626c-0.391-0.391-1.024-0.391-1.414 0s-0.391 1.024 0 1.414l8.667 8.667c0.391 0.391 1.024 0.391 1.414 0s0.391-1.024 0-1.414l-8.667-8.667z"></path>
</svg>
