<!-- Generated by IcoMoon.io -->
<svg version="1.1" xmlns="http://www.w3.org/2000/svg" width="32" height="32" viewBox="0 0 32 32">
<title>news-regular</title>
<path d="M26 27.429h-20c-0 0-0 0-0 0-1.977 0-3.594-1.545-3.708-3.494l-0-0.010-0.006-0.21v-16.571c0-0 0-0 0-0 0-1.358 1.053-2.47 2.387-2.565l0.008-0 0.176-0.006h17.714c0 0 0 0 0 0 1.358 0 2.471 1.053 2.565 2.387l0 0.008 0.006 0.176v0.857h2c0 0 0 0 0 0 1.358 0 2.471 1.053 2.565 2.387l0 0.008 0.006 0.176v13.143c0 0 0 0 0 0 0 1.977-1.545 3.594-3.494 3.708l-0.010 0-0.21 0.006zM6 25.714h20c1.047-0 1.906-0.805 1.993-1.829l0-0.007 0.007-0.163v-13.143c-0-0.432-0.32-0.79-0.736-0.849l-0.005-0.001-0.117-0.008h-2v12.286c-0 0.432-0.32 0.79-0.736 0.849l-0.005 0.001-0.117 0.008c-0.432-0-0.79-0.32-0.849-0.736l-0.001-0.005-0.008-0.117v-14.857c-0-0.432-0.32-0.79-0.736-0.849l-0.005-0.001-0.117-0.008h-17.714c-0.432 0-0.79 0.32-0.849 0.736l-0.001 0.005-0.008 0.117v16.571c0 1.047 0.804 1.905 1.828 1.993l0.007 0 0.165 0.007zM11.71 14.862c0.789 0 1.429 0.64 1.429 1.429v3.995c0 0.789-0.64 1.429-1.429 1.429h-3.995c-0.789 0-1.429-0.64-1.429-1.429v-3.995c0-0.789 0.64-1.429 1.429-1.429h3.995zM16.286 20h3.995c0.473 0 0.857 0.384 0.857 0.857 0 0.432-0.32 0.79-0.736 0.849l-0.005 0.001-0.117 0.008h-3.995c-0.473-0-0.857-0.384-0.857-0.857 0-0.432 0.32-0.79 0.736-0.849l0.005-0.001 0.117-0.008zM11.425 16.576h-3.425v3.424h3.425v-3.424zM16.286 14.862h3.995c0.473 0 0.857 0.384 0.857 0.857 0 0.432-0.32 0.79-0.736 0.849l-0.005 0.001-0.117 0.008h-3.995c-0.003 0-0.006 0-0.009 0-0.473 0-0.857-0.384-0.857-0.857 0-0.435 0.325-0.795 0.745-0.85l0.004-0 0.117-0.007zM7.138 9.711h13.143c0.473 0 0.857 0.384 0.857 0.857 0 0.432-0.32 0.79-0.736 0.849l-0.005 0.001-0.117 0.008h-13.143c-0.473-0.001-0.856-0.384-0.856-0.857 0-0.432 0.32-0.79 0.736-0.849l0.005-0.001 0.115-0.008z"></path>
</svg>
