<!-- Generated by IcoMoon.io -->
<svg version="1.1" xmlns="http://www.w3.org/2000/svg" width="32" height="32" viewBox="0 0 32 32">
<title>news</title>
<path d="M25 26.667h-18c-2.311 0-4.199-1.809-4.326-4.087l-0.007-0.246v-14c0-1.588 1.234-2.888 2.795-2.993l0.205-0.007h16.667c1.588 0 2.887 1.234 2.993 2.795l0.007 0.205v1h1c1.588 0 2.887 1.234 2.993 2.795l0.007 0.205v10c0 2.311-1.809 4.199-4.087 4.327l-0.246 0.007zM7 24.667h18c1.224 0 2.228-0.943 2.326-2.142l0.008-0.191v-10c0-0.506-0.376-0.925-0.864-0.991l-0.136-0.009h-1v10.333c0 0.506-0.376 0.925-0.864 0.991l-0.136 0.009c-0.506 0-0.925-0.376-0.991-0.864l-0.009-0.136v-13.333c0-0.506-0.376-0.925-0.864-0.991l-0.136-0.009h-16.667c-0.506 0-0.925 0.376-0.991 0.864l-0.009 0.136v14c0 1.224 0.943 2.228 2.142 2.326l0.191 0.008zM16.328 19.333h4.008c0.552 0 1 0.448 1 1 0 0.506-0.376 0.925-0.864 0.991l-0.136 0.009h-4.008c-0.552 0-1-0.448-1-1 0-0.506 0.376-0.925 0.864-0.991l0.136-0.009zM12.324 14.673c0.552 0 1 0.448 1 1v4.661c0 0.552-0.448 1-1 1h-4.661c-0.552 0-1-0.448-1-1v-4.661c0-0.552 0.448-1 1-1h4.661zM11.324 16.673h-2.661v2.661h2.661v-2.661zM16.328 14.673h4.008c0.552 0 1 0.448 1 1 0 0.506-0.376 0.925-0.864 0.991l-0.136 0.009h-4.008c-0.552 0-1-0.448-1-1 0-0.506 0.376-0.925 0.864-0.991l0.136-0.009zM7.664 10.003h12.673c0.552 0 1 0.448 1 1 0 0.506-0.376 0.925-0.864 0.991l-0.136 0.009h-12.673c-0.552 0-1-0.448-1-1 0-0.506 0.376-0.925 0.864-0.991l0.136-0.009z"></path>
</svg>
