<!-- Generated by IcoMoon.io -->
<svg version="1.1" xmlns="http://www.w3.org/2000/svg" width="32" height="32" viewBox="0 0 32 32">
<title>notepad</title>
<path d="M7.672 29.339c-1.657-0-3-1.343-3-3l-0.002-18.673c-0-1.657 1.343-3 3-3l0.996-0.001 0.001-0.999c0-0.506 0.376-0.925 0.864-0.991l0.136-0.009c0.506 0 0.925 0.376 0.991 0.864l0.009 0.136-0.001 0.999h4.003l0.001-0.999c0-0.506 0.376-0.925 0.864-0.991l0.136-0.009c0.506 0 0.925 0.376 0.991 0.864l0.009 0.136-0.001 0.999h3.997l0.001-0.999c0-0.506 0.376-0.925 0.864-0.991l0.136-0.009c0.506 0 0.925 0.376 0.991 0.864l0.009 0.136-0.001 0.999 0.999 0.001c1.657 0.001 2.999 1.343 3 3l0.002 14.667c0 0.079-0.009 0.158-0.028 0.234l-0.039 0.125-0.060 0.128-0.027 0.043c-0.038 0.064-0.085 0.124-0.139 0.178l-6.006 6.006c-0.035 0.035-0.073 0.068-0.113 0.097l0.113-0.097c-0.043 0.043-0.090 0.082-0.139 0.116l-0.117 0.069-0.156 0.063-0.151 0.034-0.072 0.008-0.073 0.003h-11.989zM23.665 6.667h-16.009c-0.546 0.007-0.986 0.452-0.986 1l0.002 18.673c0 0.552 0.448 1 1 1l10.987-0.001 0.001-3.005c0-1.588 1.234-2.887 2.795-2.993l0.205-0.007h3.005l-0.001-13.666c-0-0.552-0.448-1-1-1zM23.251 23.333h-1.591c-0.506 0-0.925 0.376-0.991 0.864l-0.009 0.136-0.001 1.592 2.592-2.592zM9.667 21.333h5.331c0.552 0 1 0.448 1 1 0 0.506-0.376 0.925-0.864 0.991l-0.136 0.009h-5.331c-0.552 0-1-0.448-1-1 0-0.506 0.376-0.925 0.864-0.991l0.136-0.009zM9.667 16h11.998c0.552 0 1 0.448 1 1 0 0.506-0.376 0.925-0.864 0.991l-0.136 0.009h-11.998c-0.552 0-1-0.448-1-1 0-0.506 0.376-0.925 0.864-0.991l0.136-0.009zM9.667 10.667h11.998c0.552 0 1 0.448 1 1 0 0.506-0.376 0.925-0.864 0.991l-0.136 0.009h-11.998c-0.552 0-1-0.448-1-1 0-0.506 0.376-0.925 0.864-0.991l0.136-0.009z"></path>
</svg>
