<!-- Generated by IcoMoon.io -->
<svg version="1.1" xmlns="http://www.w3.org/2000/svg" width="32" height="32" viewBox="0 0 32 32">
<title>note-regular</title>
<path d="M8.167 4c-2.301 0-4.167 1.865-4.167 4.167v0 15.667c0 2.301 1.865 4.167 4.167 4.167v0h9.119c0 0 0 0 0.001 0 1.15 0 2.192-0.466 2.946-1.22l6.547-6.548c0.754-0.754 1.221-1.796 1.221-2.947 0-0 0-0 0-0v0-9.119c0-2.301-1.865-4.167-4.167-4.167v0h-15.667zM5.667 8.167c0-1.381 1.119-2.5 2.5-2.5v0h15.667c1.381 0 2.5 1.119 2.5 2.5v0 9.167h-4.833c-2.301 0-4.167 1.865-4.167 4.167v0 4.833h-9.167c-1.381 0-2.5-1.119-2.5-2.5v0-15.667zM19 25.653v-4.153c0-1.381 1.119-2.5 2.5-2.5v0h4.153c-0.018 0.019-0.035 0.036-0.052 0.053l-6.547 6.548c-0.017 0.017-0.035 0.034-0.053 0.051l-0.001 0.001z"></path>
</svg>
