<!-- Generated by IcoMoon.io -->
<svg version="1.1" xmlns="http://www.w3.org/2000/svg" width="32" height="32" viewBox="0 0 32 32">
<title>note-pin</title>
<path d="M4.8 14.429v7.971l0.008 0.282c0.153 2.527 2.24 4.518 4.792 4.518 0 0 0 0 0 0h7.006l0.282-0.013c0.779-0.071 1.467-0.411 1.981-0.925l7.394-7.394 0.192-0.208c0.464-0.551 0.745-1.269 0.746-2.053v-7.008l-0.008-0.282c-0.153-2.527-2.24-4.518-4.792-4.518-0 0-0 0-0 0h-7.259c0.406 0.48 0.666 1.030 0.784 1.6h6.475l0.24 0.008c1.661 0.129 2.96 1.508 2.96 3.191 0 0 0 0.001 0 0.001v-0 6.4h-4.8l-0.282 0.008c-2.527 0.153-4.518 2.24-4.518 4.792 0 0 0 0 0 0v0 4.8h-6.4l-0.24-0.008c-1.661-0.129-2.96-1.508-2.96-3.191 0-0 0-0.001 0-0.001v0-6.704c-0.384-0.156-0.711-0.376-0.984-0.651l-0.616-0.616zM20.8 17.6l4.453 0.002c-0.038 0.048-0.080 0.093-0.122 0.136l-7.394 7.394-0.138 0.118v-4.45l0.008-0.24c0.129-1.661 1.508-2.96 3.191-2.96 0 0 0.001 0 0.001 0h-0zM13.661 5.419l-3.083-3.083c-0.434-0.434-1.034-0.703-1.697-0.703-0.943 0-1.759 0.544-2.151 1.335l-0.006 0.014-1.283 2.634c-0.188 0.38-0.511 0.669-0.906 0.808l-0.011 0.003-1.763 0.608c-0.633 0.223-1.078 0.816-1.078 1.512 0 0.442 0.18 0.843 0.47 1.132l1.517 1.517-2.069 2.067v1.131h1.131l2.069-2.066 1.515 1.515c0.29 0.29 0.69 0.47 1.132 0.47 0.697 0 1.289-0.445 1.509-1.066l0.003-0.011 0.608-1.763c0.143-0.405 0.432-0.727 0.802-0.911l0.009-0.004 2.635-1.285c0.805-0.399 1.349-1.215 1.349-2.158 0-0.663-0.268-1.262-0.703-1.697v0z"></path>
</svg>
