<!-- Generated by IcoMoon.io -->
<svg version="1.1" xmlns="http://www.w3.org/2000/svg" width="32" height="32" viewBox="0 0 32 32">
<title>notebook</title>
<path d="M22.332 2.667c1.657 0 3 1.343 3 3v20.667c0 1.657-1.343 3-3 3h-13.998c-1.657 0-3-1.343-3-3v-20.667c0-1.657 1.343-3 3-3h13.998zM22.332 4.667h-13.998c-0.552 0-1 0.448-1 1v20.667c0 0.552 0.448 1 1 1h13.998c0.552 0 1-0.448 1-1v-20.667c0-0.552-0.448-1-1-1zM26.667 20.003h1c0.506 0 0.925 0.376 0.991 0.864l0.009 0.136v1.997c0 0.506-0.376 0.925-0.864 0.991l-0.136 0.009h-1v-3.997zM26.667 14.669h1c0.506 0 0.925 0.376 0.991 0.864l0.009 0.136v1.997c0 0.506-0.376 0.925-0.864 0.991l-0.136 0.009h-1v-3.997zM26.667 9.336h1c0.506 0 0.925 0.376 0.991 0.864l0.009 0.136v1.997c0 0.506-0.376 0.925-0.864 0.991l-0.136 0.009h-1v-3.997zM20.332 6.667c0.552 0 1 0.448 1 1v3.331c0 0.552-0.448 1-1 1h-9.998c-0.552 0-1-0.448-1-1v-3.331c0-0.552 0.448-1 1-1h9.998zM19.332 8.667h-7.998v1.331h7.998v-1.331z"></path>
</svg>
