<!-- Generated by IcoMoon.io -->
<svg version="1.1" xmlns="http://www.w3.org/2000/svg" width="32" height="32" viewBox="0 0 32 32">
<title>notepad-person</title>
<path d="M7.671 29.34c-1.657 0-3-1.343-3-3v0l-0.001-18.673c0-1.657 1.343-3 3-3v0l0.996-0.001v-0.999c0-0.505 0.374-0.922 0.86-0.99l0.005-0.001 0.136-0.009c0.504 0 0.921 0.373 0.99 0.859l0.001 0.005 0.009 0.136-0.001 0.999h4.001v-0.999c0-0.505 0.374-0.922 0.86-0.99l0.005-0.001 0.135-0.009c0 0 0.001 0 0.001 0 0.504 0 0.921 0.373 0.99 0.859l0.001 0.005 0.009 0.136-0.001 0.999h3.997v-0.999c0-0.505 0.374-0.922 0.86-0.99l0.005-0.001 0.137-0.009c0.504 0 0.921 0.373 0.99 0.859l0.001 0.005 0.009 0.136-0.001 0.999h1c1.657 0 3 1.343 3 3v0 7.449c-0.583-0.283-1.267-0.448-1.991-0.448-0.003 0-0.006 0-0.008 0h-0.001v-7c0 0 0 0 0 0 0-0.552-0.448-1-1-1-0 0-0.001 0-0.001 0h-16.008c-0.547 0.008-0.987 0.452-0.987 1 0 0 0 0 0 0v0l0.001 18.672c0 0.553 0.448 1 1 1h9.733c0.117 0.701 0.387 1.384 0.82 2h-10.553zM9.667 21.333h5.331c0.552 0 1 0.448 1 1 0 0.504-0.373 0.921-0.858 0.99l-0.005 0.001-0.136 0.009h-5.331c-0.552-0-1-0.448-1-1 0-0.504 0.373-0.921 0.858-0.99l0.005-0.001 0.136-0.009zM9.667 10.667h11.997c0.552 0 1 0.448 1 1 0 0.504-0.373 0.921-0.858 0.99l-0.005 0.001-0.136 0.009h-11.997c-0.552-0-1-0.448-1-1 0-0.504 0.373-0.921 0.858-0.99l0.005-0.001 0.136-0.009zM24.667 22.667c1.841 0 3.333-1.492 3.333-3.333s-1.492-3.333-3.333-3.333v0c-1.841 0-3.333 1.492-3.333 3.333s1.492 3.333 3.333 3.333v0zM24.667 30.667c4.285 0 6-2.092 6-4.167v-0.137c0-1.305-1.059-2.363-2.364-2.363h-7.272c-1.307 0-2.364 1.057-2.364 2.363v0.137c0 2.083 1.715 4.167 6 4.167zM9.667 16c-0.552 0-1 0.448-1 1s0.448 1 1 1v0h8c0.552 0 1-0.448 1-1s-0.448-1-1-1v0h-8z"></path>
</svg>
