<!-- Generated by IcoMoon.io -->
<svg version="1.1" xmlns="http://www.w3.org/2000/svg" width="32" height="32" viewBox="0 0 32 32">
<title>notebook-arrow-curve-down-regular</title>
<path d="M1.6 8.8c0-3.976 3.224-7.2 7.2-7.2 0.001 0 0.002 0 0.003 0h-0c3.975 0.002 7.197 3.225 7.197 7.2 0 3.976-3.224 7.2-7.2 7.2s-7.2-3.224-7.2-7.2c0 0 0 0 0 0v0zM11.838 10.234l-1.435 1.435v-2.469c0-2.43-1.97-4.4-4.4-4.4-0.001 0-0.001 0-0.002 0h-0.4c-0.442 0-0.8 0.358-0.8 0.8s0.358 0.8 0.8 0.8v0h0.4c1.547 0 2.8 1.254 2.8 2.8v2.469l-1.434-1.435c-0.145-0.145-0.345-0.234-0.566-0.234-0.442 0-0.8 0.358-0.8 0.8 0 0.221 0.090 0.421 0.235 0.566v0l2.803 2.803c0.144 0.144 0.343 0.232 0.563 0.232 0.221 0 0.422-0.090 0.566-0.236l2.8-2.8c0.145-0.145 0.235-0.345 0.235-0.566 0-0.442-0.358-0.8-0.8-0.8-0.221 0-0.421 0.089-0.566 0.234v0zM4.792 16.64c0.507 0.259 1.042 0.47 1.6 0.629v8.331c0 0.884 0.716 1.6 1.6 1.6v0h12.805c0.884 0 1.6-0.716 1.6-1.6v0-19.2c0-0.884-0.716-1.6-1.6-1.6v0h-4.155c-0.315-0.609-0.664-1.133-1.064-1.614l0.012 0.014h5.208c0.001 0 0.002 0 0.003 0 1.767 0 3.2 1.433 3.2 3.2v0 19.2c0 1.767-1.433 3.2-3.2 3.2v0h-12.808c-0 0-0.001 0-0.002 0-1.767 0-3.2-1.433-3.2-3.2 0 0 0 0 0 0v0-8.962zM25.6 9.6h0.8c0.442 0 0.8 0.358 0.8 0.8v0 2.4c0 0.442-0.358 0.8-0.8 0.8v0h-0.8v-4zM26.4 15.2h-0.8v4h0.8c0.442 0 0.8-0.358 0.8-0.8v0-2.4c0-0.442-0.358-0.8-0.8-0.8v0zM25.6 20.8h0.8c0.442 0 0.8 0.358 0.8 0.8v0 2.4c0 0.442-0.358 0.8-0.8 0.8v0h-0.8v-4z"></path>
</svg>
