<!-- Generated by IcoMoon.io -->
<svg version="1.1" xmlns="http://www.w3.org/2000/svg" width="32" height="32" viewBox="0 0 32 32">
<title>notebook-lightning</title>
<path d="M8.667 16c4.050 0 7.333 3.283 7.333 7.333s-3.283 7.333-7.333 7.333v0c-4.050 0-7.333-3.283-7.333-7.333s3.283-7.333 7.333-7.333v0zM22.332 2.667c1.657 0 3 1.343 3 3v0 20.667c0 1.657-1.343 3-3 3v0h-7.413c0.569-0.591 1.055-1.264 1.437-1.999l5.976-0.001c0.552 0 1-0.448 1-1v0-20.667c0-0.552-0.448-1-1-1v0h-13.999c-0.552 0-1 0.448-1 1v0 9.101c-0.75 0.118-1.423 0.314-2.056 0.584l0.056-0.021v-9.664c0-1.657 1.343-3 3-3v0h13.999zM10.005 18.669h-1.997c-0.292 0-0.541 0.188-0.631 0.45l-0.001 0.005-1.341 3.997c-0.022 0.063-0.035 0.136-0.035 0.212 0 0.368 0.298 0.667 0.667 0.667h1.069l-1.036 3.12c-0.248 0.748 0.781 1.232 1.199 0.563l3.329-5.329c0.064-0.1 0.101-0.222 0.101-0.353 0-0.368-0.298-0.667-0.667-0.667 0 0 0 0 0 0h-0.593l0.571-1.795c0.020-0.061 0.032-0.13 0.032-0.203 0-0.368-0.298-0.666-0.666-0.667h-0zM27.667 20.003c0.504 0 0.921 0.373 0.99 0.859l0.001 0.005 0.009 0.136v1.997c-0 0.504-0.373 0.921-0.859 0.99l-0.005 0.001-0.136 0.009h-1v-3.997h1zM27.667 14.669c0.504 0 0.921 0.373 0.99 0.859l0.001 0.005 0.009 0.136v1.997c-0 0.504-0.373 0.921-0.859 0.99l-0.005 0.001-0.136 0.009h-1v-3.997h1zM27.667 9.336c0.504 0 0.921 0.373 0.99 0.859l0.001 0.005 0.009 0.136v1.997c-0 0.504-0.373 0.921-0.859 0.99l-0.005 0.001-0.136 0.009h-1v-3.997h1zM20.332 6.667c0.552 0 1 0.448 1 1v0 3.331c0 0.552-0.448 1-1 1v0h-9.999c-0.552 0-1-0.448-1-1v0-3.331c0-0.552 0.448-1 1-1v0h9.999zM19.332 8.667h-7.999v1.331h7.999v-1.331z"></path>
</svg>
