<!-- Generated by IcoMoon.io -->
<svg version="1.1" xmlns="http://www.w3.org/2000/svg" width="32" height="32" viewBox="0 0 32 32">
<title>notebook-sync</title>
<path d="M22.332 2.667c1.657 0 3 1.343 3 3v20.667c0 1.657-1.343 3-3 3h-7.411c0.569-0.592 1.054-1.265 1.437-2h5.975c0.552 0 1-0.448 1-1v-20.667c0-0.552-0.448-1-1-1h-13.998c-0.552 0-1 0.448-1 1v9.102c-0.698 0.108-1.368 0.299-2 0.562v-9.664c0-1.657 1.343-3 3-3h13.998zM26.667 20.003h1c0.506 0 0.925 0.376 0.991 0.864l0.009 0.136v1.997c0 0.506-0.376 0.925-0.864 0.991l-0.136 0.009h-1v-3.997zM26.667 14.669h1c0.506 0 0.925 0.376 0.991 0.864l0.009 0.136v1.997c0 0.506-0.376 0.925-0.864 0.991l-0.136 0.009h-1v-3.997zM26.667 9.336h1c0.506 0 0.925 0.376 0.991 0.864l0.009 0.136v1.997c0 0.506-0.376 0.925-0.864 0.991l-0.136 0.009h-1v-3.997zM20.332 6.667c0.552 0 1 0.448 1 1v3.331c0 0.552-0.448 1-1 1h-9.998c-0.552 0-1-0.448-1-1v-3.331c0-0.552 0.448-1 1-1h9.998zM19.332 8.667h-7.998v1.331h7.998v-1.331zM1.333 23.333c0 4.050 3.283 7.333 7.333 7.333s7.333-3.283 7.333-7.333c0-4.050-3.283-7.333-7.333-7.333s-7.333 3.283-7.333 7.333zM12.667 18.667c0.368 0 0.667 0.299 0.667 0.667v2.667c0 0.368-0.298 0.667-0.667 0.667h-2.667c-0.368 0-0.667-0.299-0.667-0.667s0.298-0.667 0.667-0.667h1.334c-0.609-0.811-1.577-1.333-2.667-1.333-1.111 0-2.096 0.543-2.702 1.381-0.216 0.298-0.633 0.365-0.931 0.149s-0.365-0.633-0.149-0.931c0.847-1.17 2.225-1.933 3.782-1.933 1.306 0 2.487 0.537 3.333 1.401v-0.734c0-0.368 0.298-0.667 0.667-0.667zM5.333 26.599v0.734c0 0.368-0.298 0.667-0.667 0.667s-0.667-0.299-0.667-0.667v-2.667c0-0.368 0.298-0.667 0.667-0.667h2.667c0.368 0 0.667 0.299 0.667 0.667s-0.298 0.667-0.667 0.667h-1.334c0.609 0.811 1.577 1.333 2.667 1.333 1.022 0 1.936-0.459 2.548-1.184 0.238-0.281 0.658-0.317 0.939-0.079s0.317 0.658 0.079 0.939c-0.855 1.013-2.136 1.657-3.567 1.657-1.306 0-2.487-0.537-3.333-1.401z"></path>
</svg>
