<!-- Generated by IcoMoon.io -->
<svg version="1.1" xmlns="http://www.w3.org/2000/svg" width="32" height="32" viewBox="0 0 32 32">
<title>notebook-section-regular</title>
<path d="M20.864 2.676l0.136-0.009c0.504 0 0.921 0.373 0.99 0.859l0.001 0.005 0.009 0.136v24.667c-0 0.552-0.448 1-1 1-0.504 0-0.921-0.373-0.99-0.858l-0.001-0.005-0.009-0.136v-1.672h-7.667c-1.657 0-3-1.343-3-3v0-15.328c0-1.657 1.343-3 3-3v0l7.667-0.001v-1.665c0-0.504 0.373-0.921 0.859-0.99l0.005-0.001zM20 7.333h-7.667c-0.552 0-1 0.448-1 1v0 15.328c0 0.553 0.448 1 1 1h7.667v-17.328z"></path>
</svg>
