<!-- Generated by IcoMoon.io -->
<svg version="1.1" xmlns="http://www.w3.org/2000/svg" width="32" height="32" viewBox="0 0 32 32">
<title>notepad-regular</title>
<path d="M11 12c0-0.552 0.448-1 1-1v0h8c0.552 0 1 0.448 1 1s-0.448 1-1 1v0h-8c-0.552 0-1-0.448-1-1v0zM12 16c-0.552 0-1 0.448-1 1s0.448 1 1 1v0h8c0.552 0 1-0.448 1-1s-0.448-1-1-1v0h-8zM11 22c0-0.552 0.448-1 1-1v0h3c0.552 0 1 0.448 1 1s-0.448 1-1 1v0h-3c-0.552 0-1-0.448-1-1v0zM12 4c0-0.552-0.448-1-1-1s-1 0.448-1 1v0 1h-1c-1.657 0-3 1.343-3 3v0 18c0 1.657 1.343 3 3 3v0h9.222c0 0 0 0 0 0 0.782 0 1.495-0.299 2.029-0.79l-0.002 0.002 4.778-4.38c0.599-0.55 0.973-1.337 0.973-2.212 0-0 0-0 0-0v0-13.62c0-1.657-1.343-3-3-3v0h-1v-1c0-0.552-0.448-1-1-1s-1 0.448-1 1v0 1h-3v-1c0-0.552-0.448-1-1-1s-1 0.448-1 1v0 1h-3v-1zM9 7h14c0.552 0 1 0.448 1 1v0 13h-4c-1.381 0-2.5 1.119-2.5 2.5v0 3.5h-8.5c-0.552 0-1-0.448-1-1v0-18c0-0.552 0.448-1 1-1v0zM19.5 26.185v-2.685c0-0.276 0.224-0.5 0.5-0.5v0h2.975l-3.475 3.185z"></path>
</svg>
