<!-- Generated by IcoMoon.io -->
<svg version="1.1" xmlns="http://www.w3.org/2000/svg" width="32" height="32" viewBox="0 0 32 32">
<title>notepad-edit-regular</title>
<path d="M11.2 12c0-0.442 0.358-0.8 0.8-0.8v0h8c0.442 0 0.8 0.358 0.8 0.8s-0.358 0.8-0.8 0.8v0h-8c-0.442 0-0.8-0.358-0.8-0.8v0zM12 16c-0.442 0-0.8 0.358-0.8 0.8s0.358 0.8 0.8 0.8v0h8c0.442 0 0.8-0.358 0.8-0.8s-0.358-0.8-0.8-0.8v0h-8zM11.2 21.6c0-0.442 0.358-0.8 0.8-0.8v0h3.2c0.442 0 0.8 0.358 0.8 0.8s-0.358 0.8-0.8 0.8v0h-3.2c-0.442 0-0.8-0.358-0.8-0.8v0zM9.6 4c0-0.442 0.358-0.8 0.8-0.8s0.8 0.358 0.8 0.8v0 0.8h4v-0.8c0-0.442 0.358-0.8 0.8-0.8s0.8 0.358 0.8 0.8v0 0.8h4v-0.8c0-0.442 0.358-0.8 0.8-0.8s0.8 0.358 0.8 0.8v0 0.8h0.8c1.325 0 2.4 1.075 2.4 2.4v0 7.571c-0.522 0.224-1.011 0.547-1.437 0.974l-0.163 0.163v-8.709c0-0.442-0.358-0.8-0.8-0.8v0h-14.4c-0.442 0-0.8 0.358-0.8 0.8v0 19.2c0 0.442 0.358 0.8 0.8 0.8v0h5.952l-0.261 1.045c-0.042 0.162-0.073 0.351-0.086 0.546l-0.001 0.009h-5.605c-1.325 0-2.4-1.075-2.4-2.4v0-19.2c0-1.325 1.075-2.4 2.4-2.4v0h0.8v-0.8zM25.296 16.877l-7.728 7.728c-0.438 0.437-0.76 0.99-0.919 1.608l-0.005 0.024-0.6 2.397c-0.027 0.103-0.042 0.221-0.042 0.343 0 0.786 0.638 1.424 1.424 1.424 0.122 0 0.241-0.015 0.354-0.044l-0.010 0.002 2.397-0.598c0.642-0.164 1.195-0.487 1.632-0.925l7.728-7.728c0.531-0.54 0.86-1.281 0.86-2.099 0-1.652-1.34-2.992-2.992-2.992-0.818 0-1.56 0.328-2.1 0.861l0-0z"></path>
</svg>
