<!-- Generated by IcoMoon.io -->
<svg version="1.1" xmlns="http://www.w3.org/2000/svg" width="32" height="32" viewBox="0 0 32 32">
<title>note-add</title>
<path d="M16 8.667c0-4.050-3.283-7.333-7.333-7.333s-7.333 3.283-7.333 7.333c0 4.050 3.283 7.333 7.333 7.333s7.333-3.283 7.333-7.333zM9.334 9.333l0.001 3.338c0 0.368-0.298 0.667-0.667 0.667s-0.667-0.298-0.667-0.667l-0.001-3.338h-3.339c-0.368 0-0.667-0.298-0.667-0.667s0.298-0.667 0.667-0.667h3.339l-0.001-3.334c0-0.368 0.298-0.667 0.667-0.667s0.667 0.298 0.667 0.667l0.001 3.334h3.337c0.368 0 0.667 0.298 0.667 0.667s-0.298 0.667-0.667 0.667h-3.336z"></path>
<path d="M23.667 6h-6.751c-0.23-0.711-0.549-1.382-0.944-2h7.696c2.393 0 4.333 1.94 4.333 4.333v9.172c0 0.796-0.316 1.559-0.879 2.121l-7.495 7.495c-0.563 0.563-1.326 0.879-2.121 0.879h-9.172c-2.393 0-4.333-1.94-4.333-4.333v-7.696c0.618 0.395 1.289 0.715 2 0.944v6.751c0 1.289 1.045 2.333 2.333 2.333h9v-4.333c0-2.311 1.809-4.199 4.087-4.327l0.246-0.007h4.333v-9c0-1.289-1.045-2.333-2.333-2.333zM24.585 19.333h-2.919c-1.224 0-2.228 0.943-2.326 2.142l-0.008 0.191v2.919l5.252-5.252z"></path>
</svg>
