<!-- Generated by IcoMoon.io -->
<svg version="1.1" xmlns="http://www.w3.org/2000/svg" width="32" height="32" viewBox="0 0 32 32">
<title>notebook-eye-regular</title>
<path d="M8.8 8c-0.442 0-0.8 0.358-0.8 0.8v0 3.2c0 0.442 0.358 0.8 0.8 0.8v0h11.2c0.442 0 0.8-0.358 0.8-0.8v0-3.2c0-0.442-0.358-0.8-0.8-0.8v0h-11.2zM9.6 11.2v-1.6h9.6v1.6h-9.6zM4.8 6.4c0-1.767 1.433-3.2 3.2-3.2v0h12.8c1.767 0 3.2 1.433 3.2 3.2v0 19.2c0 1.767-1.433 3.2-3.2 3.2v0h-4.992c0.407-0.459 0.771-0.974 1.075-1.526l0.022-0.044 0.016-0.030h3.878c0.884 0 1.6-0.716 1.6-1.6v0-19.2c0-0.884-0.716-1.6-1.6-1.6v0h-12.8c-0.884 0-1.6 0.716-1.6 1.6v0 11.515c-0.617 0.168-1.149 0.371-1.654 0.619l0.054-0.024v-12.11zM25.6 9.6h0.8c0.442 0 0.8 0.358 0.8 0.8v0 2.4c0 0.442-0.358 0.8-0.8 0.8v0h-0.8v-4zM26.4 15.2h-0.8v4h0.8c0.442 0 0.8-0.358 0.8-0.8v0-2.4c0-0.442-0.358-0.8-0.8-0.8v0zM25.6 20.8h0.8c0.442 0 0.8 0.358 0.8 0.8v0 2.4c0 0.442-0.358 0.8-0.8 0.8v0h-0.8v-4zM1.6 24.8c0-1.891 2.778-5.6 7.2-5.6 4.418 0 7.2 3.68 7.2 5.6 0 1.891-2.782 5.6-7.2 5.6s-7.2-3.68-7.2-5.6zM6.578 28.126c0.625 0.422 1.394 0.674 2.223 0.674 2.21 0 4.002-1.792 4.002-4.002 0-1.381-0.7-2.599-1.764-3.318l-0.014-0.009c-0.625-0.423-1.395-0.675-2.224-0.675-2.211 0-4.003 1.792-4.003 4.003 0 1.382 0.7 2.6 1.765 3.319l0.014 0.009zM10.795 26.133c0.272-0.384 0.434-0.861 0.434-1.377 0-1.325-1.075-2.4-2.4-2.4-0.847 0-1.592 0.439-2.019 1.102l-0.006 0.009c-0.235 0.365-0.375 0.81-0.375 1.289 0 1.325 1.075 2.4 2.4 2.4 0.81 0 1.526-0.401 1.961-1.016l0.005-0.008z"></path>
</svg>
