<!-- Generated by IcoMoon.io -->
<svg version="1.1" xmlns="http://www.w3.org/2000/svg" width="32" height="32" viewBox="0 0 32 32">
<title>notebook-question-mark</title>
<path d="M8.667 16c4.050 0 7.333 3.283 7.333 7.333s-3.283 7.333-7.333 7.333c-4.050 0-7.333-3.283-7.333-7.333s3.283-7.333 7.333-7.333zM22.332 2.667c1.657 0 3 1.343 3 3v20.667c0 1.657-1.343 3-3 3l-7.412 0.001c0.569-0.592 1.054-1.265 1.437-2l5.975-0.001c0.552 0 1-0.448 1-1v-20.667c0-0.552-0.448-1-1-1h-13.998c-0.552 0-1 0.448-1 1l0 9.102c-0.698 0.108-1.368 0.299-2 0.562v-9.664c0-1.657 1.343-3 3-3h13.998zM8.667 26.507c-0.46 0-0.833 0.373-0.833 0.833s0.373 0.833 0.833 0.833c0.46 0 0.833-0.373 0.833-0.833s-0.373-0.833-0.833-0.833zM8.667 18.671c-1.397 0-2.486 1.090-2.471 2.606 0.004 0.368 0.305 0.664 0.673 0.66s0.664-0.305 0.66-0.673c-0.007-0.772 0.48-1.26 1.138-1.26 0.63 0 1.138 0.523 1.138 1.266 0 0.299-0.1 0.521-0.424 0.903l-0.132 0.151-0.354 0.387c-0.646 0.722-0.895 1.19-0.895 1.956 0 0.368 0.298 0.667 0.667 0.667s0.667-0.299 0.667-0.667c0-0.31 0.102-0.537 0.432-0.926l0.135-0.154 0.354-0.387c0.637-0.712 0.884-1.176 0.884-1.93 0-1.472-1.096-2.599-2.471-2.599zM27.667 20.003c0.506 0 0.925 0.376 0.991 0.864l0.009 0.136v1.997c0 0.506-0.376 0.925-0.864 0.991l-0.136 0.009h-1v-3.997h1zM27.667 14.669c0.506 0 0.925 0.376 0.991 0.864l0.009 0.136v1.997c0 0.506-0.376 0.925-0.864 0.991l-0.136 0.009h-1v-3.997h1zM27.667 9.336c0.506 0 0.925 0.376 0.991 0.864l0.009 0.136v1.997c0 0.506-0.376 0.925-0.864 0.991l-0.136 0.009h-1v-3.997h1zM20.332 6.667c0.552 0 1 0.448 1 1v3.331c0 0.552-0.448 1-1 1h-9.998c-0.552 0-1-0.448-1-1v-3.331c0-0.552 0.448-1 1-1h9.998zM19.332 8.667h-7.998v1.331h7.998v-1.331z"></path>
</svg>
