<!-- Generated by IcoMoon.io -->
<svg version="1.1" xmlns="http://www.w3.org/2000/svg" width="32" height="32" viewBox="0 0 32 32">
<title>notebook-section-arrow-right-regular</title>
<path d="M20.864 2.676l0.136-0.009c0.504 0 0.921 0.373 0.99 0.859l0.001 0.005 0.009 0.136v11.103c-0.75 0.117-1.422 0.313-2.056 0.583l0.056-0.021v-7.997h-7.667c-0.552 0-1 0.448-1 1v0 15.328c0 0.553 0.448 1 1 1h2.435c0.107 0.699 0.297 1.368 0.56 2h-2.995c-1.657 0-3-1.343-3-3v-15.328c0-1.657 1.343-3 3-3v0l7.667-0.001v-1.665c0-0.504 0.373-0.921 0.859-0.99l0.005-0.001z"></path>
<path d="M30.667 23.333c0 4.050-3.283 7.333-7.333 7.333s-7.333-3.283-7.333-7.333v0c0-4.050 3.283-7.333 7.333-7.333s7.333 3.283 7.333 7.333v0zM19.333 22.667c-0.368 0-0.667 0.298-0.667 0.667s0.298 0.667 0.667 0.667v0h6.391l-2.196 2.196c-0.12 0.121-0.195 0.287-0.195 0.471 0 0.368 0.299 0.667 0.667 0.667 0.184 0 0.351-0.075 0.472-0.196v0l3.333-3.333c0.121-0.121 0.195-0.287 0.195-0.471s-0.075-0.351-0.195-0.471l-3.333-3.333c-0.121-0.121-0.288-0.196-0.472-0.196-0.368 0-0.667 0.299-0.667 0.667 0 0.184 0.075 0.351 0.195 0.471v0l2.196 2.195h-6.391z"></path>
</svg>
