<!-- Generated by IcoMoon.io -->
<svg version="1.1" xmlns="http://www.w3.org/2000/svg" width="32" height="32" viewBox="0 0 32 32">
<title>notebook-sync-regular</title>
<path d="M22.332 2.667c1.657 0 3 1.343 3 3v0 20.667c0 1.657-1.343 3-3 3v0h-7.412c0.555-0.578 1.034-1.235 1.415-1.953l0.023-0.047h5.973c0.552 0 1-0.448 1-1v0-20.667c0-0.552-0.448-1-1-1v0h-13.997c-0.552 0-1 0.448-1 1v0 9.101c-0.75 0.118-1.423 0.314-2.056 0.584l0.056-0.021v-9.664c0-1.657 1.343-3 3-3v0h13.999zM26.667 20.003h1c0.504 0 0.921 0.373 0.99 0.859l0.001 0.005 0.009 0.136v1.997c-0 0.504-0.373 0.921-0.859 0.99l-0.005 0.001-0.136 0.009h-1v-3.997zM26.667 14.669h1c0.504 0 0.921 0.373 0.99 0.859l0.001 0.005 0.009 0.136v1.997c-0 0.504-0.373 0.921-0.859 0.99l-0.005 0.001-0.136 0.009h-1v-3.997zM26.667 9.336h1c0.504 0 0.921 0.373 0.99 0.859l0.001 0.005 0.009 0.136v1.997c-0 0.504-0.373 0.921-0.859 0.99l-0.005 0.001-0.136 0.009h-1v-3.997zM20.332 6.667c0.552 0 1 0.448 1 1v0 3.331c0 0.552-0.448 1-1 1v0h-9.999c-0.552 0-1-0.448-1-1v0-3.331c0-0.552 0.448-1 1-1v0h9.999zM19.332 8.667h-7.999v1.331h7.999v-1.331zM1.333 23.333c0 4.050 3.283 7.333 7.333 7.333s7.333-3.283 7.333-7.333v0c0-4.050-3.283-7.333-7.333-7.333s-7.333 3.283-7.333 7.333v0zM12.667 18.667c0.368 0 0.667 0.298 0.667 0.667v0 2.667c0 0.368-0.298 0.667-0.667 0.667v0h-2.667c-0.368 0-0.667-0.298-0.667-0.667s0.298-0.667 0.667-0.667v0h1.333c-0.614-0.813-1.578-1.333-2.664-1.333-0.001 0-0.002 0-0.003 0h0c-1.111 0-2.096 0.543-2.703 1.381-0.122 0.175-0.322 0.288-0.549 0.288-0.368 0-0.667-0.298-0.667-0.667 0-0.152 0.051-0.292 0.137-0.404l-0.001 0.002c0.857-1.177 2.23-1.933 3.78-1.933 0.001 0 0.002 0 0.003 0h-0c1.307 0 2.487 0.537 3.333 1.4v-0.733c0-0.368 0.298-0.667 0.667-0.667v0zM5.333 26.6v0.733c0 0.368-0.298 0.667-0.667 0.667s-0.667-0.298-0.667-0.667v0-2.667c0-0.368 0.298-0.667 0.667-0.667v0h2.667c0.368 0 0.667 0.298 0.667 0.667s-0.298 0.667-0.667 0.667v0h-1.333c0.608 0.811 1.577 1.333 2.667 1.333 1.021 0 1.936-0.459 2.548-1.184 0.123-0.14 0.302-0.228 0.502-0.228 0.368 0 0.667 0.298 0.667 0.667 0 0.16-0.057 0.308-0.151 0.423l0.001-0.001c-0.86 1.016-2.136 1.657-3.562 1.657-0.002 0-0.003 0-0.005 0h0c-0.002 0-0.004 0-0.006 0-1.303 0-2.482-0.536-3.326-1.399l-0.001-0.001z"></path>
</svg>
