<!-- Generated by IcoMoon.io -->
<svg version="1.1" xmlns="http://www.w3.org/2000/svg" width="32" height="32" viewBox="0 0 32 32">
<title>note</title>
<path d="M23.667 4c2.393 0 4.333 1.94 4.333 4.333v9.172c0 0.796-0.316 1.559-0.879 2.121l-7.495 7.495c-0.563 0.563-1.326 0.879-2.121 0.879h-9.172c-2.393 0-4.333-1.94-4.333-4.333v-15.333c0-2.393 1.94-4.333 4.333-4.333h15.333zM23.667 6h-15.333c-1.289 0-2.333 1.045-2.333 2.333v15.333c0 1.289 1.045 2.333 2.333 2.333h9v-4.333c0-2.311 1.809-4.199 4.087-4.327l0.246-0.007h4.333v-9c0-1.289-1.045-2.333-2.333-2.333zM24.585 19.333h-2.919c-1.224 0-2.228 0.943-2.326 2.142l-0.008 0.191v2.919l5.252-5.252z"></path>
</svg>
