<!-- Generated by IcoMoon.io -->
<svg version="1.1" xmlns="http://www.w3.org/2000/svg" width="32" height="32" viewBox="0 0 32 32">
<title>number-symbol-dismiss</title>
<path d="M14.649 3.853c0.103-0.543-0.254-1.066-0.797-1.168s-1.066 0.254-1.168 0.797l-1.359 7.183-6.326 0.003c-0.552 0-1 0.448-1 1s0.448 1 1 1l5.946-0.003-1.261 6.666-6.020 0.003c-0.552 0-1 0.448-1 1.001s0.448 1 1 0.999l5.64-0.003-1.29 6.821c-0.103 0.543 0.254 1.066 0.797 1.168s1.066-0.254 1.168-0.797l1.361-7.193 3.557-0.002c0.167-0.704 0.419-1.375 0.746-2l-3.924 0.002 1.261-6.666 7.299-0.003-0.525 2.777c0.678-0.307 1.402-0.53 2.159-0.655l0.402-2.123 6.017-0.003c0.552-0 1-0.448 1-1s-0.448-1-1.001-1l-5.638 0.003 1.287-6.806c0.103-0.543-0.254-1.066-0.797-1.168s-1.066 0.254-1.168 0.797l-1.358 7.179-7.299 0.003 1.288-6.811z"></path>
<path d="M30.667 23.333c0 4.050-3.283 7.333-7.333 7.333s-7.333-3.283-7.333-7.333c0-4.050 3.283-7.333 7.333-7.333s7.333 3.283 7.333 7.333zM21.138 20.195c-0.26-0.26-0.683-0.26-0.943 0s-0.26 0.682 0 0.943l2.195 2.195-2.195 2.195c-0.26 0.26-0.26 0.682 0 0.943s0.683 0.26 0.943 0l2.195-2.195 2.195 2.195c0.26 0.26 0.683 0.26 0.943 0s0.26-0.683 0-0.943l-2.195-2.195 2.195-2.195c0.26-0.26 0.26-0.683 0-0.943s-0.683-0.26-0.943 0l-2.195 2.195-2.195-2.195z"></path>
</svg>
