<!-- Generated by IcoMoon.io -->
<svg version="1.1" xmlns="http://www.w3.org/2000/svg" width="32" height="32" viewBox="0 0 32 32">
<title>number-symbol-dismiss</title>
<path d="M14.649 3.853c0.011-0.056 0.018-0.121 0.018-0.187 0-0.552-0.448-1-1-1-0.486 0-0.892 0.347-0.982 0.807l-0.001 0.006-1.359 7.185-6.325 0.001c-0.552 0-1 0.448-1 1s0.448 1 1 1v0l5.947-0.003-1.261 6.667-6.019 0.003c-0.552 0-1 0.448-1 1s0.448 1 1 1v0l5.64-0.003-1.289 6.821c-0.012 0.057-0.018 0.122-0.018 0.189 0 0.552 0.448 1 1 1 0.488 0 0.895-0.35 0.982-0.813l0.001-0.006 1.36-7.193h3.557c0.167-0.705 0.419-1.376 0.747-2.001l-3.925 0.001 1.261-6.667 7.299-0.003-0.525 2.777c0.625-0.291 1.35-0.519 2.109-0.648l0.051-0.007 0.4-2.124 6.017-0.003c0.552 0 1-0.448 1-1s-0.448-1-1-1v0l-5.639 0.003 1.288-6.805c0.011-0.056 0.018-0.121 0.018-0.187 0-0.552-0.448-1-1-1-0.486 0-0.892 0.347-0.982 0.807l-0.001 0.006-1.357 7.18-7.299 0.003 1.288-6.809zM30.667 23.333c0 4.050-3.283 7.333-7.333 7.333s-7.333-3.283-7.333-7.333v0c0-4.050 3.283-7.333 7.333-7.333s7.333 3.283 7.333 7.333v0zM21.139 20.196c-0.121-0.121-0.288-0.196-0.472-0.196-0.368 0-0.667 0.299-0.667 0.667 0 0.184 0.075 0.351 0.195 0.471v0l2.196 2.195-2.196 2.196c-0.12 0.121-0.195 0.287-0.195 0.471 0 0.368 0.299 0.667 0.667 0.667 0.184 0 0.351-0.075 0.472-0.196l2.195-2.196 2.195 2.196c0.121 0.121 0.288 0.196 0.472 0.196 0.368 0 0.667-0.299 0.667-0.667 0-0.184-0.075-0.351-0.195-0.471v0l-2.196-2.196 2.196-2.195c0.12-0.121 0.195-0.287 0.195-0.471 0-0.368-0.299-0.667-0.667-0.667-0.184 0-0.351 0.075-0.472 0.196v0l-2.195 2.195-2.195-2.195z"></path>
</svg>
