<!-- Generated by IcoMoon.io -->
<svg version="1.1" xmlns="http://www.w3.org/2000/svg" width="32" height="32" viewBox="0 0 32 32">
<title>number-circle-4</title>
<path d="M4.333 16c0-6.443 5.223-11.667 11.667-11.667s11.667 5.223 11.667 11.667-5.223 11.667-11.667 11.667-11.667-5.223-11.667-11.667zM16 2.667c-7.364 0-13.333 5.969-13.333 13.333s5.969 13.333 13.333 13.333 13.333-5.969 13.333-13.333-5.969-13.333-13.333-13.333zM18.333 9.72c0-1.091-1.416-1.516-2.017-0.607l-6.139 9.283c-0.454 0.687 0.039 1.603 0.862 1.603h5.628v1.833c0 0.46 0.373 0.833 0.833 0.833s0.833-0.373 0.833-0.833v0-1.833h1.5c0.46 0 0.833-0.373 0.833-0.833s-0.373-0.833-0.833-0.833v0h-1.5v-8.613zM16.667 11.604v6.729h-4.45l4.45-6.729z"></path>
</svg>
