<!-- Generated by IcoMoon.io -->
<svg version="1.1" xmlns="http://www.w3.org/2000/svg" width="32" height="32" viewBox="0 0 32 32">
<title>number-symbol-square-regular</title>
<path d="M14.531 10.020c0.461 0.095 0.803 0.498 0.803 0.98 0 0.069-0.007 0.137-0.020 0.202l0.001-0.006-0.293 1.471h3.293l0.373-1.863c0.108-0.445 0.502-0.77 0.973-0.77 0.552 0 1 0.448 1 1 0 0.057-0.005 0.113-0.014 0.168l0.001-0.006-0.293 1.471h1.312c0.552 0 1 0.448 1 1s-0.448 1-1 1v0h-1.713l-0.533 2.667h1.58c0.552 0 1 0.448 1 1s-0.448 1-1 1v0h-1.98l-0.373 1.864c-0.106 0.447-0.502 0.774-0.974 0.774-0.552 0-1-0.448-1-1 0-0.059 0.005-0.117 0.015-0.173l-0.001 0.006 0.293-1.471h-3.293l-0.373 1.864c-0.106 0.447-0.502 0.774-0.974 0.774-0.552 0-1-0.448-1-1 0-0.059 0.005-0.117 0.015-0.173l-0.001 0.006 0.293-1.471h-1.313c-0.552 0-1-0.448-1-1s0.448-1 1-1v0h1.715l0.533-2.667h-1.581c-0.552 0-1-0.448-1-1s0.448-1 1-1v0h1.981l0.373-1.863c0.095-0.461 0.498-0.803 0.98-0.803 0.069 0 0.137 0.007 0.202 0.020l-0.006-0.001zM14.087 17.333h3.293l0.533-2.667h-3.293l-0.533 2.667zM4 8.333c0-2.393 1.94-4.333 4.333-4.333v0h15.333c2.393 0 4.333 1.94 4.333 4.333v0 15.333c0 2.393-1.94 4.333-4.333 4.333v0h-15.333c-2.393 0-4.333-1.94-4.333-4.333v0-15.333zM8.333 6c-1.289 0-2.333 1.045-2.333 2.333v0 15.333c0 1.288 1.045 2.333 2.333 2.333h15.333c1.289 0 2.333-1.045 2.333-2.333v0-15.333c0-1.289-1.045-2.333-2.333-2.333v0h-15.333z"></path>
</svg>
