<!-- Generated by IcoMoon.io -->
<svg version="1.1" xmlns="http://www.w3.org/2000/svg" width="32" height="32" viewBox="0 0 32 32">
<title>open</title>
<path d="M8.167 5.667c-1.381 0-2.5 1.119-2.5 2.5v0 15.667c0 1.381 1.119 2.5 2.5 2.5v0h15.667c1.381 0 2.5-1.119 2.5-2.5v0-5.667c0-0.46 0.373-0.833 0.833-0.833s0.833 0.373 0.833 0.833v0 5.667c0 2.301-1.865 4.167-4.167 4.167v0h-15.667c-2.301 0-4.167-1.865-4.167-4.167v0-15.667c0-2.301 1.865-4.167 4.167-4.167v0h5.667c0.46 0 0.833 0.373 0.833 0.833s-0.373 0.833-0.833 0.833v0h-5.667zM18 4.833c0-0.46 0.373-0.833 0.833-0.833h8.333c0.46 0 0.833 0.373 0.833 0.833v8.333c0 0.46-0.373 0.833-0.833 0.833s-0.833-0.373-0.833-0.833v0-6.321l-6.911 6.911c-0.151 0.151-0.359 0.244-0.589 0.244-0.46 0-0.833-0.373-0.833-0.833 0-0.23 0.093-0.438 0.244-0.589v0l6.911-6.911h-6.321c-0.46 0-0.833-0.373-0.833-0.833z"></path>
</svg>
