<!-- Generated by IcoMoon.io -->
<svg version="1.1" xmlns="http://www.w3.org/2000/svg" width="32" height="32" viewBox="0 0 32 32">
<title>open-off</title>
<path d="M26.131 27.31c-0.644 0.432-1.437 0.69-2.291 0.69-0.003 0-0.005 0-0.008 0h-15.666c-2.301 0-4.167-1.865-4.167-4.167v0-15.667c0-0.002 0-0.005 0-0.008 0-0.853 0.258-1.646 0.699-2.305l-0.009 0.015-1.779-1.78c-0.157-0.152-0.254-0.364-0.254-0.599 0-0.46 0.373-0.833 0.833-0.833 0.235 0 0.448 0.098 0.599 0.254l0 0 25 25c0.151 0.151 0.244 0.359 0.244 0.589 0 0.46-0.373 0.833-0.833 0.833-0.23 0-0.439-0.093-0.589-0.244v0l-1.78-1.78zM24.911 26.090l-19.001-19.001c-0.154 0.314-0.243 0.683-0.243 1.074 0 0.002 0 0.003 0 0.004v-0 15.667c0 1.381 1.119 2.5 2.5 2.5v0h15.667c0.386 0 0.751-0.087 1.078-0.243zM27.958 24.423l-1.625-1.625v-4.631c0-0.46 0.373-0.833 0.833-0.833s0.833 0.373 0.833 0.833v0 5.667c0 0.2-0.014 0.397-0.041 0.59zM7.577 4.041l1.625 1.625h4.631c0.46 0 0.833-0.373 0.833-0.833s-0.373-0.833-0.833-0.833v0h-5.667c-0.2 0-0.397 0.014-0.59 0.041zM18 4.833c0-0.46 0.373-0.833 0.833-0.833h8.333c0.46 0 0.833 0.373 0.833 0.833v8.333c0 0.46-0.373 0.833-0.833 0.833s-0.833-0.373-0.833-0.833v0-6.321l-6.911 6.911c-0.151 0.151-0.359 0.244-0.589 0.244-0.46 0-0.833-0.373-0.833-0.833 0-0.23 0.093-0.438 0.244-0.589v0l6.911-6.911h-6.321c-0.46 0-0.833-0.373-0.833-0.833z"></path>
</svg>
