<!-- Generated by IcoMoon.io -->
<svg version="1.1" xmlns="http://www.w3.org/2000/svg" width="32" height="32" viewBox="0 0 32 32">
<title>open-folder</title>
<path d="M8.996 4l14.008 0.002c2.672 0.001 4.854 2.097 4.993 4.735l0.007 0.266v5.99c0 0.552-0.448 1-1 1-0.506 0-0.925-0.376-0.991-0.864l-0.009-0.136v-5.99c-0-1.588-1.234-2.888-2.795-2.994l-0.205-0.007-14.009-0.002c-1.57-0.001-2.859 1.205-2.989 2.742l-0.010 0.212 0.003 14.048c0.001 1.588 1.234 2.887 2.795 2.994l0.205 0.007h5.995c0.552 0 1 0.448 1 1 0 0.506-0.376 0.925-0.864 0.991l-0.136 0.009h-5.995c-2.672-0.001-4.854-2.097-4.993-4.734l-0.007-0.266-0.002-13.999 0.006-0.271c0.134-2.55 2.179-4.594 4.728-4.726l0.265-0.007zM13.001 11.999h8.672c0.552 0 1 0.448 1 1 0 0.506-0.376 0.925-0.864 0.991l-0.136 0.009-6.26-0.001 9.632 9.627c0.355 0.355 0.387 0.91 0.097 1.302l-0.097 0.112c-0.355 0.355-0.911 0.388-1.302 0.097l-0.112-0.097-9.632-9.627 0.001 6.255c0 0.506-0.376 0.925-0.864 0.991l-0.136 0.009c-0.506 0-0.925-0.376-0.991-0.864l-0.009-0.136 0-8.689c-0.001-0.034 0.001-0.068 0.005-0.101l0.029-0.145 0.046-0.128 0.007-0.015c0.047-0.108 0.115-0.209 0.203-0.297l0.059-0.054 0.109-0.081 0.079-0.046 0.127-0.055 0.089-0.027 0.083-0.017 0.124-0.012 8.711-0.001h-8.672z"></path>
</svg>
