<!-- Generated by IcoMoon.io -->
<svg version="1.1" xmlns="http://www.w3.org/2000/svg" width="32" height="32" viewBox="0 0 32 32">
<title>open-off</title>
<path d="M4.374 2.96l24.666 24.667c0.391 0.391 0.391 1.024 0 1.414s-1.024 0.391-1.414 0l-1.685-1.685c-0.661 0.409-1.44 0.644-2.275 0.644h-15.333c-2.393 0-4.333-1.94-4.333-4.333v-15.333c0-0.834 0.236-1.614 0.644-2.275l-1.685-1.685c-0.391-0.391-0.39-1.024 0-1.414s1.024-0.39 1.414 0zM24.45 25.865l-18.315-18.316c-0.087 0.245-0.135 0.509-0.135 0.784v15.333c0 1.289 1.045 2.333 2.333 2.333h15.333c0.275 0 0.539-0.048 0.784-0.135zM17.446 13.204l1.35 1.35c0.088-0.046 0.17-0.106 0.244-0.18l6.96-6.96v6.252c0 0.552 0.448 1 1 1s1-0.448 1-1v-8.667c0-0.552-0.448-1-1-1h-8.667c-0.552 0-1 0.448-1 1s0.448 1 1 1h6.253l-6.96 6.96c-0.074 0.074-0.134 0.156-0.18 0.244zM27.999 23.756l-1.999-1.999v-3.424c0-0.552 0.448-1 1-1s1 0.448 1 1v5.333c0 0.030-0 0.060-0.001 0.090zM8.244 4.001l1.999 1.999h3.424c0.552 0 1-0.448 1-1s-0.448-1-1-1h-5.333c-0.030 0-0.060 0-0.090 0.001z"></path>
</svg>
