<!-- Generated by IcoMoon.io -->
<svg version="1.1" xmlns="http://www.w3.org/2000/svg" width="32" height="32" viewBox="0 0 32 32">
<title>open-folder-regular</title>
<path d="M27.167 16c0.46 0 0.833-0.373 0.833-0.833v-6.333c0-2.669-2.164-4.833-4.833-4.833v0h-14.333c-2.669 0-4.833 2.164-4.833 4.833v0 14.333c0 2.669 2.164 4.833 4.833 4.833v0h6.333c0.46 0 0.833-0.373 0.833-0.833s-0.373-0.833-0.833-0.833v0h-6.333c-1.749 0-3.167-1.418-3.167-3.167v0-14.333c0-1.749 1.418-3.167 3.167-3.167v0h14.333c1.749 0 3.167 1.418 3.167 3.167v0 6.333c0 0.46 0.373 0.833 0.833 0.833zM12.833 12c-0.46 0-0.833 0.373-0.833 0.833v9c0 0.46 0.373 0.833 0.833 0.833s0.833-0.373 0.833-0.833v0-6.988l10.244 10.244c0.151 0.151 0.359 0.244 0.589 0.244 0.46 0 0.833-0.373 0.833-0.833 0-0.23-0.093-0.439-0.244-0.589v0l-10.244-10.244h6.988c0.46 0 0.833-0.373 0.833-0.833s-0.373-0.833-0.833-0.833v0h-9z"></path>
</svg>
