<!-- Generated by IcoMoon.io -->
<svg version="1.1" xmlns="http://www.w3.org/2000/svg" width="32" height="32" viewBox="0 0 32 32">
<title>organization</title>
<path d="M15.666 2.663c-2.763 0-5.003 2.24-5.003 5.003 0 2.421 1.719 4.44 4.003 4.903v2.763h-4.333c-1.657 0-3 1.343-3 3v1.101c-2.282 0.465-4 2.483-4 4.903 0 2.763 2.24 5.003 5.003 5.003s5.003-2.24 5.003-5.003c0-2.422-1.721-4.442-4.006-4.904v-1.099c0-0.552 0.448-1 1-1h10.667c0.552 0 1 0.448 1 1v1.101c-2.282 0.465-4 2.483-4 4.903 0 2.763 2.24 5.003 5.003 5.003s5.003-2.24 5.003-5.003c0-2.422-1.721-4.442-4.006-4.904v-1.099c0-1.657-1.343-3-3-3h-4.333v-2.764c2.284-0.463 4.003-2.482 4.003-4.903 0-2.763-2.24-5.003-5.003-5.003zM12.663 7.666c0-1.659 1.344-3.003 3.003-3.003s3.003 1.345 3.003 3.003c0 1.659-1.345 3.003-3.003 3.003s-3.003-1.345-3.003-3.003zM5.333 24.336c0-1.659 1.345-3.003 3.003-3.003s3.003 1.345 3.003 3.003c0 1.659-1.345 3.003-3.003 3.003s-3.003-1.345-3.003-3.003zM23.003 21.333c1.659 0 3.003 1.345 3.003 3.003s-1.345 3.003-3.003 3.003c-1.659 0-3.003-1.345-3.003-3.003s1.345-3.003 3.003-3.003z"></path>
</svg>
