<!-- Generated by IcoMoon.io -->
<svg version="1.1" xmlns="http://www.w3.org/2000/svg" width="32" height="32" viewBox="0 0 32 32">
<title>organization-horizontal</title>
<path d="M3.2 16c-0 0.006-0 0.012-0 0.019 0 2.651 2.149 4.8 4.8 4.8 2.375 0 4.347-1.725 4.732-3.991l0.004-0.028h2.464v4.8c0 1.325 1.075 2.4 2.4 2.4v0h1.667c0.397 2.286 2.365 4.002 4.735 4.002 2.652 0 4.802-2.15 4.802-4.802s-2.15-4.802-4.802-4.802c-2.369 0-4.338 1.716-4.73 3.973l-0.004 0.029h-1.667c-0.442 0-0.8-0.358-0.8-0.8v0-11.2c0-0.442 0.358-0.8 0.8-0.8v0h1.667c0.397 2.286 2.365 4.002 4.735 4.002 2.652 0 4.802-2.15 4.802-4.802s-2.15-4.802-4.802-4.802c-2.369 0-4.338 1.716-4.73 3.973l-0.004 0.029h-1.667c-1.325 0-2.4 1.075-2.4 2.4v0 4.8h-2.464c-0.397-2.285-2.365-4.001-4.734-4.001-2.652 0-4.801 2.149-4.802 4.801v0zM8 19.2c-1.767 0-3.2-1.433-3.2-3.2s1.433-3.2 3.2-3.2v0c1.767 0 3.2 1.433 3.2 3.2s-1.433 3.2-3.2 3.2v0zM24 26.4c-1.768 0-3.201-1.433-3.201-3.201s1.433-3.201 3.201-3.201v0c1.768 0 3.201 1.433 3.201 3.201s-1.433 3.201-3.201 3.201v0zM20.8 8.8c0-1.768 1.433-3.201 3.201-3.201s3.201 1.433 3.201 3.201v0c0 1.768-1.433 3.201-3.201 3.201s-3.201-1.433-3.201-3.201v0z"></path>
</svg>
