<!-- Generated by IcoMoon.io -->
<svg version="1.1" xmlns="http://www.w3.org/2000/svg" width="32" height="32" viewBox="0 0 32 32">
<title>organization</title>
<path d="M15.999 2.667c-0.001 0-0.002 0-0.004 0-2.762 0-5.001 2.239-5.001 5.001 0 2.469 1.789 4.52 4.141 4.927l0.030 0.004v2.735h-4.999c-1.381 0-2.5 1.119-2.5 2.5v0 1.568c-2.38 0.413-4.167 2.463-4.167 4.931 0 2.762 2.239 5.001 5.001 5.001s5.001-2.239 5.001-5.001c0-2.467-1.787-4.517-4.137-4.926l-0.030-0.004v-1.568c0-0.46 0.373-0.833 0.833-0.833h11.665c0.46 0 0.833 0.373 0.833 0.833v1.568c-2.38 0.413-4.167 2.463-4.167 4.931 0 2.762 2.239 5.001 5.001 5.001s5.001-2.239 5.001-5.001c0-2.467-1.787-4.517-4.137-4.926l-0.030-0.004v-1.568c0-1.381-1.119-2.5-2.5-2.5v0h-4.999v-2.735c2.382-0.412 4.171-2.463 4.171-4.931 0-2.762-2.239-5.001-5.001-5.001-0.001 0-0.003 0-0.004 0h0zM12.665 7.667c-0-0.014-0-0.031-0-0.047 0-1.841 1.493-3.334 3.334-3.334s3.334 1.493 3.334 3.334c0 0.017-0 0.033-0 0.050l0-0.003c0 1.841-1.493 3.334-3.334 3.334s-3.334-1.493-3.334-3.334v0zM5.167 24.333c0-1.841 1.493-3.334 3.334-3.334s3.334 1.493 3.334 3.334v0c0 1.841-1.493 3.334-3.334 3.334s-3.334-1.493-3.334-3.334v0zM23.5 20.999c1.841 0 3.334 1.493 3.334 3.334s-1.493 3.334-3.334 3.334v0c-1.841 0-3.334-1.493-3.334-3.334s1.493-3.334 3.334-3.334v0z"></path>
</svg>
