<!-- Generated by IcoMoon.io -->
<svg version="1.1" xmlns="http://www.w3.org/2000/svg" width="32" height="32" viewBox="0 0 32 32">
<title>orientation</title>
<path d="M9 5.333c-0.552 0-1 0.448-1 1s0.448 1 1 1v0h2c0.552 0 1-0.448 1-1s-0.448-1-1-1v0h-2zM4.667 11.667c0-0.552-0.448-1-1-1s-1 0.448-1 1v0 2c0 0.552 0.448 1 1 1s1-0.448 1-1v0-2zM5.2 14.667c-1.399 0-2.533 1.134-2.533 2.533v0 6.933c0 1.4 1.133 2.533 2.533 2.533h13.6c1.399 0 2.533-1.134 2.533-2.533v0-6.933c0-1.399-1.134-2.533-2.533-2.533h-2.467c0.552 0 1-0.448 1-1v0-2c0-0.552-0.448-1-1-1s-1 0.448-1 1v0 2c0 0.552 0.448 1 1 1h-11.133zM4.667 17.2c0-0.293 0.24-0.533 0.533-0.533h13.6c0.293 0 0.533 0.24 0.533 0.533v6.933c0 0.295-0.239 0.533-0.533 0.533h-13.6c-0.295 0-0.533-0.239-0.533-0.533v0-6.933zM5 7.333c-0.184 0-0.333 0.149-0.333 0.333v0 0.667c0 0.552-0.448 1-1 1s-1-0.448-1-1v0-0.667c0-1.288 1.045-2.333 2.333-2.333h0.667c0.552 0 1 0.448 1 1s-0.448 1-1 1v0h-0.667zM15.333 7.667c0-0.184-0.149-0.333-0.333-0.333v0h-0.667c-0.552 0-1-0.448-1-1s0.448-1 1-1v0h0.667c1.288 0 2.333 1.045 2.333 2.333v0.667c0 0.552-0.448 1-1 1s-1-0.448-1-1v0-0.667zM22.667 21.435c0 0.645 0.559 1.16 1.184 0.996 3.178-0.851 5.481-3.705 5.481-7.097 0-3.571-2.552-6.547-5.932-7.202l-0.046-0.007 0.405-0.473c0.163-0.177 0.262-0.415 0.262-0.675 0-0.552-0.448-1-1-1-0.314 0-0.595 0.145-0.778 0.372l-0.002 0.002-2 2.333c-0.15 0.174-0.241 0.402-0.241 0.651s0.091 0.477 0.242 0.652l-0.001-0.001 2 2.333c0.185 0.229 0.465 0.374 0.78 0.374 0.552 0 1-0.448 1-1 0-0.261-0.1-0.498-0.263-0.676l0.001 0.001-0.796-0.929c2.502 0.473 4.37 2.642 4.37 5.247 0 2.426-1.619 4.474-3.836 5.121l-0.038 0.009c-0.444 0.127-0.792 0.508-0.792 0.971z"></path>
</svg>
