<!-- Generated by IcoMoon.io -->
<svg version="1.1" xmlns="http://www.w3.org/2000/svg" width="32" height="32" viewBox="0 0 32 32">
<title>padding-right</title>
<path d="M3.667 6c0.552 0 1 0.448 1 1v0 17.333c0 0.552-0.448 1-1 1s-1-0.448-1-1v0-17.333c0-0.552 0.448-1 1-1v0zM28.333 6c0.552 0 1 0.448 1 1v0 1.156c0 0.552-0.448 1-1 1s-1-0.448-1-1v0-1.156c0-0.552 0.448-1 1-1v0zM28.333 10.623c0.552 0 1 0.448 1 1v0 2.311c0 0.552-0.448 1-1 1s-1-0.448-1-1v0-2.311c0-0.552 0.448-1 1-1v0zM28.333 16.4c0.552 0 1 0.448 1 1v0 2.311c0 0.552-0.448 1-1 1s-1-0.448-1-1v0-2.311c0-0.552 0.448-1 1-1v0zM28.333 22.177c0.552 0 1 0.448 1 1v0 1.156c0 0.552-0.448 1-1 1s-1-0.448-1-1v0-1.156c0-0.552 0.448-1 1-1v0zM25.040 16.373c0.181-0.181 0.292-0.431 0.292-0.707s-0.112-0.526-0.292-0.707v0l-6.667-6.667c-0.183-0.196-0.443-0.318-0.732-0.318-0.552 0-1 0.448-1 1 0 0.289 0.122 0.549 0.318 0.731l0.001 0.001 4.96 4.96h-14.253c-0.552 0-1 0.448-1 1s0.448 1 1 1v0h14.253l-4.96 4.96c-0.196 0.183-0.318 0.443-0.318 0.732 0 0.552 0.448 1 1 1 0.289 0 0.549-0.122 0.731-0.318l0.001-0.001 6.667-6.667z"></path>
</svg>
