<!-- Generated by IcoMoon.io -->
<svg version="1.1" xmlns="http://www.w3.org/2000/svg" width="32" height="32" viewBox="0 0 32 32">
<title>padding-right</title>
<path d="M3.667 6c0.552 0 1 0.448 1 1v17.333c0 0.552-0.448 1-1 1s-1-0.448-1-1v-17.333c0-0.552 0.448-1 1-1zM28.333 6c0.552 0 1 0.448 1 1v1.156c0 0.552-0.448 1-1 1s-1-0.448-1-1v-1.156c0-0.552 0.448-1 1-1zM28.333 10.622c0.552 0 1 0.448 1 1v2.311c0 0.552-0.448 1-1 1s-1-0.448-1-1v-2.311c0-0.552 0.448-1 1-1zM28.333 16.4c0.552 0 1 0.448 1 1v2.311c0 0.552-0.448 1-1 1s-1-0.448-1-1v-2.311c0-0.552 0.448-1 1-1zM28.333 22.178c0.552 0 1 0.448 1 1v1.156c0 0.552-0.448 1-1 1s-1-0.448-1-1v-1.156c0-0.552 0.448-1 1-1zM25.040 16.374c0.391-0.391 0.391-1.024 0-1.414l-6.667-6.667c-0.391-0.391-1.024-0.391-1.414 0s-0.391 1.024 0 1.414l4.959 4.96h-14.252c-0.552 0-1 0.448-1 1s0.448 1 1 1h14.252l-4.959 4.96c-0.391 0.391-0.391 1.024 0 1.414s1.024 0.391 1.414 0l6.667-6.667z"></path>
</svg>
