<!-- Generated by IcoMoon.io -->
<svg version="1.1" xmlns="http://www.w3.org/2000/svg" width="32" height="32" viewBox="0 0 32 32">
<title>padding-down-regular</title>
<path d="M6 3.667c0 0.552 0.448 1 1 1h17.333c0.552 0 1-0.448 1-1s-0.448-1-1-1v0h-17.333c-0.552 0-1 0.448-1 1v0zM6 28.333c0 0.552 0.448 1 1 1h1.156c0.552 0 1-0.448 1-1s-0.448-1-1-1v0h-1.156c-0.552 0-1 0.448-1 1v0zM10.623 28.333c0 0.552 0.447 1 1 1h2.311c0.552 0 1-0.448 1-1s-0.448-1-1-1v0h-2.311c-0.552 0-1 0.448-1 1v0zM16.4 28.333c0 0.552 0.448 1 1 1h2.311c0.552 0 1-0.448 1-1s-0.448-1-1-1v0h-2.311c-0.552 0-1 0.448-1 1v0zM22.177 28.333c0 0.552 0.448 1 1 1h1.156c0.552 0 1-0.448 1-1s-0.448-1-1-1v0h-1.156c-0.552 0-1 0.448-1 1v0zM16.373 25.040c-0.181 0.181-0.431 0.292-0.707 0.292s-0.526-0.112-0.707-0.292v0l-6.667-6.667c-0.196-0.183-0.318-0.443-0.318-0.732 0-0.552 0.448-1 1-1 0.289 0 0.549 0.122 0.731 0.318l0.001 0.001 4.96 4.96v-14.253c0-0.552 0.448-1 1-1s1 0.448 1 1v0 14.253l4.96-4.96c0.183-0.196 0.443-0.318 0.732-0.318 0.552 0 1 0.448 1 1 0 0.289-0.122 0.549-0.318 0.731l-0.001 0.001-6.667 6.667z"></path>
</svg>
