<!-- Generated by IcoMoon.io -->
<svg version="1.1" xmlns="http://www.w3.org/2000/svg" width="32" height="32" viewBox="0 0 32 32">
<title>padding-left</title>
<path d="M3.667 6c-0.552 0-1 0.448-1 1v1.156c0 0.552 0.448 1 1 1s1-0.448 1-1v-1.156c0-0.552-0.448-1-1-1zM3.667 10.622c-0.552 0-1 0.448-1 1v2.311c0 0.552 0.448 1 1 1s1-0.448 1-1v-2.311c0-0.552-0.448-1-1-1zM3.667 16.4c-0.552 0-1 0.448-1 1v2.311c0 0.552 0.448 1 1 1s1-0.448 1-1v-2.311c0-0.552-0.448-1-1-1zM3.667 22.178c-0.552 0-1 0.448-1 1v1.156c0 0.552 0.448 1 1 1s1-0.448 1-1v-1.156c0-0.552-0.448-1-1-1zM28.333 6c-0.552 0-1 0.448-1 1v17.333c0 0.552 0.448 1 1 1s1-0.448 1-1v-17.333c0-0.552-0.448-1-1-1zM6.96 16.374c-0.391-0.391-0.391-1.024 0-1.414l6.667-6.667c0.391-0.391 1.024-0.391 1.414 0s0.391 1.024 0 1.414l-4.96 4.96h14.252c0.552 0 1 0.448 1 1s-0.448 1-1 1h-14.252l4.96 4.96c0.391 0.391 0.391 1.024 0 1.414s-1.024 0.391-1.414 0l-6.667-6.667z"></path>
</svg>
