<!-- Generated by IcoMoon.io -->
<svg version="1.1" xmlns="http://www.w3.org/2000/svg" width="32" height="32" viewBox="0 0 32 32">
<title>padding-top</title>
<path d="M6 3.667c0-0.552 0.448-1 1-1h1.156c0.552 0 1 0.448 1 1s-0.448 1-1 1h-1.156c-0.552 0-1-0.448-1-1zM10.622 3.667c0-0.552 0.448-1 1-1h2.311c0.552 0 1 0.448 1 1s-0.448 1-1 1h-2.311c-0.552 0-1-0.448-1-1zM16.4 3.667c0-0.552 0.448-1 1-1h2.311c0.552 0 1 0.448 1 1s-0.448 1-1 1h-2.311c-0.552 0-1-0.448-1-1zM22.178 3.667c0-0.552 0.448-1 1-1h1.156c0.552 0 1 0.448 1 1s-0.448 1-1 1h-1.156c-0.552 0-1-0.448-1-1zM6 28.333c0-0.552 0.448-1 1-1h17.333c0.552 0 1 0.448 1 1s-0.448 1-1 1h-17.333c-0.552 0-1-0.448-1-1zM16.374 6.96c-0.391-0.391-1.024-0.391-1.414 0l-6.667 6.667c-0.391 0.391-0.391 1.024 0 1.414s1.024 0.391 1.414 0l4.96-4.96v14.252c0 0.552 0.448 1 1 1s1-0.448 1-1v-14.252l4.96 4.96c0.391 0.391 1.024 0.391 1.414 0s0.391-1.024 0-1.414l-6.667-6.667z"></path>
</svg>
