<!-- Generated by IcoMoon.io -->
<svg version="1.1" xmlns="http://www.w3.org/2000/svg" width="32" height="32" viewBox="0 0 32 32">
<title>paint-bucket</title>
<path d="M16 3c0-0.552-0.448-1-1-1s-1 0.448-1 1v0 1.667c-0.439 0.157-0.814 0.398-1.121 0.707l-9.172 9.173c-0.543 0.543-0.879 1.293-0.879 2.121s0.336 1.578 0.879 2.121l6.507 6.504c0.543 0.543 1.293 0.879 2.121 0.879s1.578-0.336 2.121-0.879l9.172-9.172c0.543-0.543 0.879-1.293 0.879-2.121s-0.336-1.578-0.879-2.121l-6.508-6.505c-0.307-0.308-0.682-0.549-1.099-0.7l-0.021-0.007v-1.667zM5.121 15.96l8.879-8.88v1.92c0 0.552 0.448 1 1 1s1-0.448 1-1v0-1.92l6.212 6.213c0.181 0.181 0.292 0.431 0.292 0.707s-0.112 0.526-0.292 0.707v0l-1.293 1.293h-15.836l0.039-0.040zM5.748 18h13.171l-5.879 5.879c-0.181 0.181-0.431 0.292-0.707 0.292s-0.526-0.112-0.707-0.292v0l-5.88-5.879zM26.028 18.136c-0.2-0.37-0.585-0.616-1.028-0.616s-0.828 0.247-1.025 0.61l-0.003 0.006-2.677 5.021c-1.495 2.797 0.535 6.176 3.705 6.176s5.197-3.379 3.707-6.176l-2.679-5.021zM23.059 24.097l1.941-3.64 1.941 3.64c0.163 0.3 0.259 0.656 0.259 1.035 0 1.215-0.985 2.2-2.2 2.2s-2.2-0.985-2.2-2.2c0-0.379 0.096-0.735 0.264-1.047l-0.006 0.012z"></path>
</svg>
