<!-- Generated by IcoMoon.io -->
<svg version="1.1" xmlns="http://www.w3.org/2000/svg" width="32" height="32" viewBox="0 0 32 32">
<title>paint-brush-arrow-up</title>
<path d="M16 2.667c-1.841 0-3.333 1.492-3.333 3.333v4h-3.184c-1.565 0-2.769 1.324-2.719 2.842 0.056 1.723 0.059 4.474-0.29 7.311-0.352 2.863-1.049 5.686-2.313 7.638-0.199 0.307-0.214 0.699-0.039 1.021s0.512 0.522 0.878 0.522h17.066v-2h-7.227l0.47-2.116c0.12-0.539-0.22-1.073-0.759-1.193s-1.073 0.22-1.193 0.759l-0.567 2.55h-1.749c0.034-0.089 0.070-0.182 0.106-0.279 0.307-0.832 0.663-1.987 0.843-3.246 0.078-0.547-0.302-1.053-0.849-1.131s-1.053 0.302-1.131 0.849c-0.153 1.074-0.463 2.086-0.74 2.837-0.138 0.373-0.265 0.677-0.357 0.884l-0.039 0.087h-2.195c0.963-2.099 1.49-4.593 1.778-6.937 0.129-1.049 0.212-2.085 0.263-3.063h14.612v1.559c0.31-0.147 0.651-0.225 1-0.225s0.69 0.078 1 0.225v-5.892c0-1.657-1.343-3-3-3h-3v-4c0-1.841-1.492-3.333-3.333-3.333zM23.333 15.333h-14.547c0.013-0.982-0.001-1.854-0.024-2.557-0.014-0.435 0.332-0.776 0.72-0.776h4.184c0.552 0 1-0.448 1-1v-5c0-0.736 0.597-1.333 1.333-1.333s1.333 0.597 1.333 1.333v5c0 0.552 0.448 1 1 1h4c0.552 0 1 0.448 1 1v2.333z"></path>
<path d="M20.293 25.040c0.391 0.391 1.024 0.391 1.414 0l1.693-1.693v6.319c0 0.552 0.448 1 1 1s1-0.448 1-1v-6.186l1.56 1.56c0.39 0.391 1.024 0.391 1.414 0s0.391-1.024 0-1.414l-3.333-3.333c-0.187-0.188-0.442-0.293-0.707-0.293s-0.52 0.105-0.707 0.293l-3.333 3.333c-0.391 0.391-0.391 1.024 0 1.414z"></path>
</svg>
