<!-- Generated by IcoMoon.io -->
<svg version="1.1" xmlns="http://www.w3.org/2000/svg" width="32" height="32" viewBox="0 0 32 32">
<title>pair-regular</title>
<path d="M24.892 28h-9.785c-0.383 0.795-1.183 1.333-2.108 1.333-1.289 0-2.333-1.045-2.333-2.333 0-0.928 0.542-1.73 1.328-2.106l0.014-0.006v-4.895h-4.895c-0.356 0.741-1.070 1.26-1.911 1.333l-0.009 0.001-0.192 0.007c-0.001 0-0.002 0-0.002 0-1.289 0-2.333-1.045-2.333-2.333 0-0.926 0.54-1.726 1.322-2.103l0.014-0.006v-9.783c-0.794-0.384-1.332-1.183-1.332-2.108 0-1.289 1.045-2.333 2.333-2.333 0.925 0 1.724 0.538 2.102 1.319l0.006 0.014h9.783c0.384-0.793 1.183-1.33 2.107-1.33 1.289 0 2.333 1.045 2.333 2.333 0 0.927-0.54 1.727-1.323 2.104l-0.014 0.006-0.001 4.893h4.895c0.356-0.741 1.070-1.258 1.911-1.33l0.009-0.001 0.192-0.009c1.288 0 2.333 1.045 2.333 2.333 0 0.924-0.537 1.723-1.316 2.101l-0.014 0.006v9.787c0.794 0.384 1.331 1.183 1.331 2.107 0 1.289-1.045 2.333-2.333 2.333-0.925 0-1.725-0.539-2.102-1.32l-0.006-0.014h-0.001zM24.895 14.007l-4.901-0.001v2.88c0.733 0.348 1.257 1.068 1.325 1.917l0.008 0.191c-0 1.288-1.045 2.333-2.333 2.333-0.925 0-1.725-0.538-2.102-1.319l-0.006-0.014h-2.877v4.903c0.483 0.231 0.872 0.621 1.101 1.104h9.781c0.231-0.485 0.625-0.88 1.111-1.109v-9.781c-0.419-0.202-0.759-0.51-0.993-0.891l-0.006-0.010-0.108-0.201zM17.993 14.005h-2.888c-0.229 0.48-0.617 0.869-1.096 1.099l-0.001 2.889h2.876c0.236-0.488 0.621-0.873 1.095-1.103l0.014-0.006v-2.879zM16.891 6h-9.78c-0.236 0.488-0.621 0.873-1.095 1.103l-0.014 0.006v9.783c0.483 0.229 0.873 0.62 1.104 1.101h4.903v-2.88c-0.742-0.355-1.262-1.070-1.333-1.913l-0.001-0.009-0.008-0.192c0-0.001 0-0.002 0-0.003 0-1.289 1.045-2.333 2.333-2.333 0.928 0 1.73 0.542 2.106 1.327l0.006 0.014h2.881v-4.9c-0.417-0.203-0.756-0.513-0.989-0.894l-0.006-0.010-0.107-0.201z"></path>
</svg>
