<!-- Generated by IcoMoon.io -->
<svg version="1.1" xmlns="http://www.w3.org/2000/svg" width="32" height="32" viewBox="0 0 32 32">
<title>panel-right-contract</title>
<path d="M12.257 12.332c0.369-0.41 1.002-0.444 1.412-0.074l3.333 2.999c0.211 0.19 0.331 0.46 0.331 0.743s-0.12 0.554-0.331 0.743l-3.333 2.999c-0.41 0.369-1.043 0.336-1.412-0.074s-0.336-1.043 0.074-1.412l1.396-1.256h-4.727c-0.552 0-1-0.448-1-1s0.448-1 1-1h4.727l-1.396-1.256c-0.411-0.369-0.444-1.002-0.074-1.412zM29.333 23.001c0 2.025-1.642 3.666-3.667 3.666h-19.333c-2.025 0-3.667-1.641-3.667-3.666v-14.002c0-2.025 1.642-3.666 3.667-3.666h19.333c2.025 0 3.667 1.641 3.667 3.666v14.002zM25.667 24.667c0.921 0 1.667-0.746 1.667-1.666v-14.002c0-0.92-0.746-1.666-1.667-1.666h-4.339v17.334h4.339zM19.328 24.667v-17.334h-12.994c-0.92 0-1.667 0.746-1.667 1.666v14.002c0 0.92 0.746 1.666 1.667 1.666h12.994z"></path>
</svg>
