<!-- Generated by IcoMoon.io -->
<svg version="1.1" xmlns="http://www.w3.org/2000/svg" width="32" height="32" viewBox="0 0 32 32">
<title>panel-right-add</title>
<path d="M28.8 9.6c0-2.651-2.149-4.8-4.8-4.8v0h-16c-2.651 0-4.8 2.149-4.8 4.8v0 11.2c0 2.651 2.149 4.8 4.8 4.8v0h6.731c-0.137-0.462-0.241-1.006-0.293-1.565l-0.003-0.035h-6.435c-1.767 0-3.2-1.433-3.2-3.2v0-11.2c0-1.767 1.433-3.2 3.2-3.2v0h10.4v9.424c0.459-0.305 0.986-0.581 1.541-0.803l0.059-0.021v-8.6h4c1.767 0 3.2 1.433 3.2 3.2v0 5.76c0.573 0.293 1.109 0.646 1.6 1.051v-6.811zM30.4 23.2c0 3.976-3.224 7.2-7.2 7.2s-7.2-3.224-7.2-7.2v0c0-3.976 3.224-7.2 7.2-7.2s7.2 3.224 7.2 7.2v0zM24 20c0-0.442-0.358-0.8-0.8-0.8s-0.8 0.358-0.8 0.8v0 2.4h-2.4c-0.442 0-0.8 0.358-0.8 0.8s0.358 0.8 0.8 0.8v0h2.4v2.4c0 0.442 0.358 0.8 0.8 0.8s0.8-0.358 0.8-0.8v0-2.4h2.4c0.442 0 0.8-0.358 0.8-0.8s-0.358-0.8-0.8-0.8v0h-2.4v-2.4z"></path>
</svg>
