<!-- Generated by IcoMoon.io -->
<svg version="1.1" xmlns="http://www.w3.org/2000/svg" width="32" height="32" viewBox="0 0 32 32">
<title>panel-left-key</title>
<path d="M2.667 9.667c0-2.393 1.94-4.333 4.333-4.333v0h18c2.393 0 4.333 1.94 4.333 4.333v0 6.011c-0.6-0.401-1.275-0.697-2-0.861v-5.149c0-1.289-1.045-2.333-2.333-2.333v0h-12.333v17.333h4.115l-1.431 1.431c-0.164 0.163-0.303 0.351-0.413 0.557l-0.006 0.013h-7.932c-2.393 0-4.333-1.94-4.333-4.333v0-12.667zM10.667 7.333h-3.667c-1.289 0-2.333 1.045-2.333 2.333v0 12.667c0 1.288 1.045 2.333 2.333 2.333h3.667v-17.333zM30.667 20.667c0 2.577-2.089 4.667-4.667 4.667v0h-2v1.333c0 0.368-0.298 0.667-0.667 0.667v0h-1.333v1.333c0 0.368-0.298 0.667-0.667 0.667v0h-1.333v0.667c0 0.368-0.298 0.667-0.667 0.667v0h-2.333c-0.552 0-1-0.448-1-1v0-1.92c0-0.276 0.112-0.526 0.293-0.707v0l5-5c0.058-0.058 0.124-0.11 0.195-0.152l0.005-0.003c-0.102-0.363-0.16-0.781-0.16-1.211 0-2.577 2.089-4.667 4.667-4.667 2.575 0 4.663 2.085 4.667 4.659v0zM26.667 21.333c0.736 0 1.333-0.597 1.333-1.333s-0.597-1.333-1.333-1.333v0c-0.736 0-1.333 0.597-1.333 1.333s0.597 1.333 1.333 1.333v0z"></path>
</svg>
