<!-- Generated by IcoMoon.io -->
<svg version="1.1" xmlns="http://www.w3.org/2000/svg" width="32" height="32" viewBox="0 0 32 32">
<title>panel-left-add-regular</title>
<path d="M6.833 4.667c-2.301 0-4.167 1.865-4.167 4.167v0 14.333c0 2.301 1.865 4.167 4.167 4.167v0h8.809c-0.254-0.475-0.478-1.028-0.643-1.606l-0.015-0.061h-2.818v-19.333h13c1.381 0 2.5 1.119 2.5 2.5v0 6.993c0.632 0.369 1.178 0.784 1.67 1.256l-0.003-0.003v-8.247c0-2.301-1.865-4.167-4.167-4.167v0h-18.333zM4.333 8.833c0-1.381 1.119-2.5 2.5-2.5v0h3.667v19.333h-3.667c-1.381 0-2.5-1.119-2.5-2.5v0-14.333zM30.667 23.333c0 4.050-3.283 7.333-7.333 7.333s-7.333-3.283-7.333-7.333 3.283-7.333 7.333-7.333 7.333 3.283 7.333 7.333zM24 18.667c0-0.368-0.298-0.667-0.667-0.667s-0.667 0.298-0.667 0.667v0 4h-4c-0.368 0-0.667 0.298-0.667 0.667s0.298 0.667 0.667 0.667v0h4v4c0 0.368 0.298 0.667 0.667 0.667s0.667-0.298 0.667-0.667v0-4h4c0.368 0 0.667-0.298 0.667-0.667s-0.298-0.667-0.667-0.667v0h-4v-4z"></path>
</svg>
