<!-- Generated by IcoMoon.io -->
<svg version="1.1" xmlns="http://www.w3.org/2000/svg" width="32" height="32" viewBox="0 0 32 32">
<title>panel-right</title>
<path d="M25.167 4.667c2.301 0 4.167 1.865 4.167 4.167v0 14.333c0 2.301-1.865 4.167-4.167 4.167v0h-18.333c-2.301 0-4.167-1.865-4.167-4.167v0-14.333c0-2.301 1.865-4.167 4.167-4.167v0h18.333zM27.667 8.833c0-1.381-1.119-2.5-2.5-2.5v0h-3.667v19.333h3.667c1.381 0 2.5-1.119 2.5-2.5v0-14.333zM19.833 25.667v-19.333h-13c-1.381 0-2.5 1.119-2.5 2.5v0 14.333c0 1.381 1.119 2.5 2.5 2.5v0h13z"></path>
</svg>
