<!-- Generated by IcoMoon.io -->
<svg version="1.1" xmlns="http://www.w3.org/2000/svg" width="32" height="32" viewBox="0 0 32 32">
<title>panel-bottom-contract</title>
<path d="M16.8 17.878l1.398-1.597c0.146-0.154 0.352-0.25 0.581-0.25 0.442 0 0.8 0.358 0.8 0.8 0 0.191-0.067 0.367-0.179 0.504l0.001-0.001-2.8 3.2c-0.147 0.168-0.362 0.273-0.602 0.273s-0.454-0.105-0.601-0.272l-0.001-0.001-2.8-3.2c-0.136-0.143-0.219-0.337-0.219-0.55 0-0.442 0.358-0.8 0.8-0.8 0.251 0 0.474 0.115 0.621 0.296l0.001 0.001 1.398 1.597v-5.886c0-0.442 0.358-0.8 0.8-0.8s0.8 0.358 0.8 0.8v0 5.888zM6.4 6.4c-1.767 0-3.2 1.433-3.2 3.2v0 12.8c0 1.767 1.433 3.2 3.2 3.2v0h19.2c1.767 0 3.2-1.433 3.2-3.2v0-12.8c0-1.767-1.433-3.2-3.2-3.2v0h-19.2zM4.8 9.6c0-0.884 0.716-1.6 1.6-1.6v0h19.2c0.884 0 1.6 0.716 1.6 1.6v0 8h-6.134c-0.108 0.304-0.264 0.567-0.462 0.791l0.002-0.003-0.71 0.811h7.304v3.2c0 0.884-0.716 1.6-1.6 1.6v0h-19.2c-0.884 0-1.6-0.716-1.6-1.6v0-3.2h7.304l-0.71-0.811c-0.195-0.222-0.351-0.484-0.454-0.772l-0.005-0.017h-6.134v-8z"></path>
</svg>
