<!-- Generated by IcoMoon.io -->
<svg version="1.1" xmlns="http://www.w3.org/2000/svg" width="32" height="32" viewBox="0 0 32 32">
<title>password</title>
<path d="M15.707 13.627c-0.178-0.166-0.418-0.268-0.682-0.268-0.552 0-1 0.448-1 1 0 0.264 0.102 0.504 0.269 0.682l-0.001-0.001 0.96 0.96-0.96 0.96c-0.196 0.183-0.318 0.443-0.318 0.732 0 0.552 0.448 1 1 1 0.289 0 0.549-0.122 0.731-0.318l0.001-0.001 0.96-0.96 0.96 0.96c0.181 0.181 0.431 0.292 0.707 0.292 0.552 0 1-0.448 1-1 0-0.277-0.112-0.527-0.294-0.708l-0.959-0.957 0.96-0.96c0.188-0.182 0.305-0.437 0.305-0.719 0-0.552-0.448-1-1-1-0.282 0-0.538 0.117-0.719 0.305l-0.96 0.96-0.96-0.96zM6.96 13.627c0.181-0.181 0.431-0.292 0.707-0.292s0.526 0.112 0.707 0.292v0l0.96 0.96 0.96-0.96c0.183-0.196 0.443-0.318 0.732-0.318 0.552 0 1 0.448 1 1 0 0.289-0.122 0.549-0.318 0.731l-0.001 0.001-0.959 0.96 0.96 0.957c0.181 0.181 0.293 0.431 0.293 0.708 0 0.553-0.448 1.001-1.001 1.001-0.276 0-0.526-0.112-0.707-0.293v0l-0.96-0.96-0.96 0.96c-0.178 0.166-0.418 0.268-0.682 0.268-0.552 0-1-0.448-1-1 0-0.264 0.102-0.504 0.269-0.682l-0.001 0.001 0.96-0.96-0.96-0.96c-0.181-0.181-0.292-0.431-0.292-0.707s0.112-0.526 0.292-0.707v0zM22 18c-0.552 0-1 0.448-1 1s0.448 1 1 1v0h2.333c0.552 0 1-0.448 1-1s-0.448-1-1-1v0h-2.333zM7 6.667c-2.393 0-4.333 1.94-4.333 4.333v0 10c0 2.393 1.94 4.333 4.333 4.333v0h18c2.393 0 4.333-1.94 4.333-4.333v0-10c0-2.393-1.94-4.333-4.333-4.333v0h-18zM4.667 11c0-1.289 1.044-2.333 2.333-2.333h18c1.289 0 2.333 1.044 2.333 2.333v10c0 1.289-1.045 2.333-2.333 2.333v0h-18c-1.289 0-2.333-1.045-2.333-2.333v0-10z"></path>
</svg>
