<!-- Generated by IcoMoon.io -->
<svg version="1.1" xmlns="http://www.w3.org/2000/svg" width="32" height="32" viewBox="0 0 32 32">
<title>password</title>
<path d="M15.707 13.626c-0.391-0.39-1.024-0.39-1.414 0s-0.39 1.024 0 1.414l0.96 0.959-0.96 0.96c-0.391 0.391-0.391 1.024 0 1.414s1.024 0.391 1.414 0l0.96-0.96 0.959 0.959c0.391 0.39 1.024 0.39 1.414-0s0.39-1.024-0-1.414l-0.959-0.958 0.959-0.959c0.391-0.391 0.391-1.024 0-1.414s-1.024-0.391-1.414 0l-0.959 0.959-0.96-0.96z"></path>
<path d="M6.959 13.626c0.39-0.391 1.024-0.391 1.414-0l0.96 0.96 0.959-0.959c0.391-0.391 1.024-0.391 1.414 0s0.391 1.024 0 1.414l-0.959 0.959 0.959 0.958c0.391 0.39 0.391 1.024 0 1.414s-1.024 0.391-1.414 0l-0.959-0.959-0.96 0.96c-0.391 0.391-1.024 0.391-1.414 0s-0.391-1.024 0-1.414l0.96-0.96-0.96-0.959c-0.391-0.391-0.391-1.024-0-1.414z"></path>
<path d="M22 18c-0.552 0-1 0.448-1 1s0.448 1 1 1h2.333c0.552 0 1-0.448 1-1s-0.448-1-1-1h-2.333z"></path>
<path d="M6.999 6.667c-2.394 0-4.332 1.94-4.332 4.333v10c0 2.393 1.94 4.333 4.333 4.333h18c2.393 0 4.333-1.94 4.333-4.333v-10c0-2.393-1.939-4.333-4.332-4.333h-18.002zM4.667 11c0-1.289 1.044-2.333 2.332-2.333h18.002c1.288 0 2.332 1.044 2.332 2.333v10c0 1.289-1.045 2.333-2.333 2.333h-18c-1.289 0-2.333-1.045-2.333-2.333v-10z"></path>
</svg>
