<!-- Generated by IcoMoon.io -->
<svg version="1.1" xmlns="http://www.w3.org/2000/svg" width="32" height="32" viewBox="0 0 32 32">
<title>patch</title>
<path d="M16 17c0.552 0 1-0.448 1-1s-0.448-1-1-1c-0.552 0-1 0.448-1 1s0.448 1 1 1zM13.667 16c0 0.552-0.448 1-1 1s-1-0.448-1-1c0-0.552 0.448-1 1-1s1 0.448 1 1zM19.333 17c0.552 0 1-0.448 1-1s-0.448-1-1-1c-0.552 0-1 0.448-1 1s0.448 1 1 1zM17 19.333c0 0.552-0.448 1-1 1s-1-0.448-1-1c0-0.552 0.448-1 1-1s1 0.448 1 1zM16 13.667c0.552 0 1-0.448 1-1s-0.448-1-1-1c-0.552 0-1 0.448-1 1s0.448 1 1 1zM4.317 24.397c-1.692-1.692-1.692-4.436 0-6.128l13.953-13.953c1.692-1.692 4.436-1.692 6.128 0l3.286 3.286c1.692 1.692 1.692 4.436 0 6.128l-13.953 13.953c-1.692 1.692-4.436 1.692-6.128 0l-3.286-3.286zM5.731 19.683c-0.911 0.911-0.911 2.389 0 3.3l3.286 3.286c0.911 0.911 2.389 0.911 3.3 0l2.269-2.269-6.586-6.586-2.269 2.269zM22.586 16l-6.586-6.586-6.586 6.586 6.586 6.586 6.586-6.586zM24 14.586l2.269-2.269c0.911-0.911 0.911-2.389 0-3.3l-3.286-3.286c-0.911-0.911-2.389-0.911-3.3 0l-2.269 2.269 6.586 6.586zM13.643 7.057l-1.327-1.326c-0.911-0.911-2.389-0.911-3.3 0l-3.286 3.286c-0.911 0.911-0.911 2.389 0 3.3l1.327 1.326-1.414 1.414-1.327-1.327c-1.692-1.692-1.692-4.436 0-6.128l3.286-3.286c1.692-1.692 4.436-1.692 6.128 0l1.326 1.326-1.414 1.414zM16.943 26.357l1.326 1.326c1.692 1.692 4.436 1.692 6.128 0l3.286-3.286c1.692-1.692 1.692-4.436 0-6.128l-1.326-1.326-1.414 1.414 1.326 1.326c0.911 0.911 0.911 2.389 0 3.3l-3.286 3.286c-0.911 0.911-2.389 0.911-3.3 0l-1.326-1.326-1.414 1.414z"></path>
</svg>
