<!-- Generated by IcoMoon.io -->
<svg version="1.1" xmlns="http://www.w3.org/2000/svg" width="32" height="32" viewBox="0 0 32 32">
<title>patient-regular</title>
<path d="M16 14c2.209 0 4-1.791 4-4s-1.791-4-4-4v0c-2.209 0-4 1.791-4 4s1.791 4 4 4v0zM16 12c-1.105 0-2-0.895-2-2s0.895-2 2-2v0c1.105 0 2 0.895 2 2s-0.895 2-2 2v0zM10 24c-0.552 0-1 0.448-1 1s0.448 1 1 1v0h12c0.552 0 1-0.448 1-1s-0.448-1-1-1v0h-12zM5 5.5c0-1.933 1.567-3.5 3.5-3.5v0h15c1.933 0 3.5 1.567 3.5 3.5v0 21c0 1.933-1.567 3.5-3.5 3.5v0h-15c-1.933 0-3.5-1.567-3.5-3.5v0-21zM8.5 4c-0.828 0-1.5 0.672-1.5 1.5v0 14.5h3v-3c0-1.105 0.895-2 2-2v0h8c1.105 0 2 0.895 2 2v0 3h3v-14.5c0-0.828-0.672-1.5-1.5-1.5v0h-15zM7 26.5c0 0.828 0.672 1.5 1.5 1.5v0h15c0.828 0 1.5-0.672 1.5-1.5v0-4.5h-18v4.5zM20 17h-8v3h8v-3z"></path>
</svg>
