<!-- Generated by IcoMoon.io -->
<svg version="1.1" xmlns="http://www.w3.org/2000/svg" width="32" height="32" viewBox="0 0 32 32">
<title>pause</title>
<path d="M7.661 4c-1.289 0-2.333 1.045-2.333 2.333v19.333c0 1.289 1.045 2.333 2.333 2.333h4.667c1.289 0 2.333-1.045 2.333-2.333v-19.333c0-1.289-1.045-2.333-2.333-2.333h-4.667zM7.328 6.333c0-0.184 0.149-0.333 0.333-0.333h4.667c0.184 0 0.333 0.149 0.333 0.333v19.333c0 0.184-0.149 0.333-0.333 0.333h-4.667c-0.184 0-0.333-0.149-0.333-0.333v-19.333z"></path>
<path d="M19.661 4c-1.289 0-2.333 1.045-2.333 2.333v19.333c0 1.289 1.045 2.333 2.333 2.333h4.667c1.289 0 2.333-1.045 2.333-2.333v-19.333c0-1.289-1.045-2.333-2.333-2.333h-4.667zM19.328 6.333c0-0.184 0.149-0.333 0.333-0.333h4.667c0.184 0 0.333 0.149 0.333 0.333v19.333c0 0.184-0.149 0.333-0.333 0.333h-4.667c-0.184 0-0.333-0.149-0.333-0.333v-19.333z"></path>
</svg>
