<!-- Generated by IcoMoon.io -->
<svg version="1.1" xmlns="http://www.w3.org/2000/svg" width="32" height="32" viewBox="0 0 32 32">
<title>pause</title>
<path d="M7.833 4c-1.381 0-2.5 1.119-2.5 2.5v0 19c0 1.381 1.119 2.5 2.5 2.5v0h4.333c1.381 0 2.5-1.119 2.5-2.5v0-19c0-1.381-1.119-2.5-2.5-2.5v0h-4.333zM7 6.5c0-0.46 0.373-0.833 0.833-0.833h4.333c0.46 0 0.833 0.373 0.833 0.833v19c0 0.46-0.373 0.833-0.833 0.833h-4.333c-0.46 0-0.833-0.373-0.833-0.833v-19zM19.833 4c-1.381 0-2.5 1.119-2.5 2.5v0 19c0 1.381 1.119 2.5 2.5 2.5v0h4.333c1.381 0 2.5-1.119 2.5-2.5v0-19c0-1.381-1.119-2.5-2.5-2.5v0h-4.333zM19 6.5c0-0.46 0.373-0.833 0.833-0.833h4.333c0.46 0 0.833 0.373 0.833 0.833v19c0 0.46-0.373 0.833-0.833 0.833h-4.333c-0.46 0-0.833-0.373-0.833-0.833v-19z"></path>
</svg>
