<!-- Generated by IcoMoon.io -->
<svg version="1.1" xmlns="http://www.w3.org/2000/svg" width="32" height="32" viewBox="0 0 32 32">
<title>pause-off-regular</title>
<path d="M4.8 5.931l-1.366-1.365c-0.145-0.145-0.235-0.345-0.235-0.566 0-0.442 0.359-0.801 0.801-0.801 0.221 0 0.421 0.090 0.566 0.235v0l24 24c0.145 0.145 0.235 0.345 0.235 0.566 0 0.442-0.359 0.801-0.801 0.801-0.221 0-0.421-0.090-0.566-0.235v0l-0.718-0.72c-0.442 0.582-1.134 0.954-1.914 0.954-0.001 0-0.001 0-0.002 0h-3.2c-1.325 0-2.4-1.075-2.4-2.4v0-6.069l-6.4-6.4v12.469c0 1.325-1.075 2.4-2.4 2.4v0h-3.2c-1.325 0-2.4-1.075-2.4-2.4v0-20.469zM11.2 12.331l-4.8-4.8v18.869c0 0.442 0.358 0.8 0.8 0.8v0h3.2c0.442 0 0.8-0.358 0.8-0.8v0-14.069zM20.8 21.931v4.469c0 0.442 0.358 0.8 0.8 0.8v0h3.2c0.341-0 0.632-0.214 0.747-0.515l0.002-0.006-4.749-4.749zM11.2 5.6v2.206l1.6 1.6v-3.806c0-1.325-1.075-2.4-2.4-2.4v0h-3.2c-0.187 0-0.368 0.021-0.544 0.062l1.538 1.538h2.206c0.442 0 0.8 0.358 0.8 0.8v0zM19.2 15.806l1.6 1.6v-11.806c0-0.442 0.358-0.8 0.8-0.8v0h3.2c0.442 0 0.8 0.358 0.8 0.8v0 16.606l1.6 1.6v-18.206c0-1.325-1.075-2.4-2.4-2.4v0h-3.2c-1.325 0-2.4 1.075-2.4 2.4v0 10.206z"></path>
</svg>
