<!-- Generated by IcoMoon.io -->
<svg version="1.1" xmlns="http://www.w3.org/2000/svg" width="32" height="32" viewBox="0 0 32 32">
<title>payment-regular</title>
<path d="M2.667 10.167c0-2.301 1.865-4.167 4.167-4.167v0h18.333c2.301 0 4.167 1.865 4.167 4.167v0 11.667c0 2.301-1.865 4.167-4.167 4.167v0h-18.333c-2.301 0-4.167-1.865-4.167-4.167v0-11.667zM6.833 7.667c-1.381 0-2.5 1.119-2.5 2.5v0 2.167h23.333v-2.167c0-1.381-1.119-2.5-2.5-2.5v0h-18.333zM4.333 21.833c0 1.381 1.119 2.5 2.5 2.5v0h18.333c1.381 0 2.5-1.119 2.5-2.5v0-7.833h-23.333v7.833zM20.833 19.667c-0.46 0-0.833 0.373-0.833 0.833s0.373 0.833 0.833 0.833v0h3.667c0.46 0 0.833-0.373 0.833-0.833s-0.373-0.833-0.833-0.833v0h-3.667z"></path>
</svg>
