<!-- Generated by IcoMoon.io -->
<svg version="1.1" xmlns="http://www.w3.org/2000/svg" width="32" height="32" viewBox="0 0 32 32">
<title>pen-prohibited-regular</title>
<path d="M21.471 4.017c0.836-0.853 2-1.381 3.288-1.381 2.543 0 4.605 2.062 4.605 4.605 0 1.287-0.528 2.451-1.38 3.287l-4.301 4.302c-0.505-0.104-1.086-0.163-1.68-0.163-0.186 0-0.372 0.006-0.555 0.017l0.025-0.001 5.332-5.333c0.532-0.532 0.86-1.266 0.86-2.077 0-1.623-1.315-2.938-2.938-2.938-0.811 0-1.546 0.329-2.078 0.861l-16.113 16.115c-0.296 0.296-0.507 0.667-0.611 1.073l-1.269 4.961 4.962-1.269c0.423-0.11 0.786-0.324 1.074-0.612l2.657-2.657c-0.010 0.157-0.016 0.341-0.016 0.526 0 0.596 0.059 1.177 0.173 1.739l-0.009-0.056-1.626 1.626c-0.494 0.494-1.116 0.859-1.812 1.042l-0.028 0.006-6.324 1.617c-0.062 0.017-0.133 0.026-0.207 0.026-0.46 0-0.833-0.373-0.833-0.833 0-0.073 0.009-0.144 0.027-0.212l-0.001 0.006 1.618-6.324c0.189-0.724 0.554-1.345 1.048-1.839l16.112-16.114zM22 30.667c4.050 0 7.333-3.283 7.333-7.333s-3.283-7.333-7.333-7.333-7.333 3.283-7.333 7.333 3.283 7.333 7.333 7.333zM22 29c-0.003 0-0.006 0-0.010 0-1.268 0-2.438-0.418-3.379-1.124l0.015 0.011 7.928-7.929c0.696 0.931 1.115 2.104 1.115 3.375 0 3.13-2.537 5.667-5.667 5.667-0.001 0-0.001 0-0.002 0h0zM25.375 18.78l-7.928 7.929c-0.696-0.93-1.114-2.103-1.114-3.374 0-3.13 2.537-5.667 5.667-5.667 1.271 0 2.444 0.418 3.389 1.124l-0.015-0.011z"></path>
</svg>
