<!-- Generated by IcoMoon.io -->
<svg version="1.1" xmlns="http://www.w3.org/2000/svg" width="32" height="32" viewBox="0 0 32 32">
<title>pentagon</title>
<path d="M14.335 2.875c0.461-0.339 1.040-0.542 1.667-0.542s1.205 0.203 1.675 0.548l-0.008-0.006 10.5 7.637c0.711 0.521 1.167 1.353 1.167 2.292 0 0.313-0.051 0.614-0.144 0.895l0.006-0.020-4.012 12.36c-0.38 1.146-1.443 1.959-2.695 1.959h-12.978c-1.252-0-2.314-0.812-2.689-1.939l-0.006-0.020-4.012-12.36c-0.088-0.261-0.139-0.563-0.139-0.875 0-0.938 0.456-1.77 1.159-2.286l0.008-0.006 10.501-7.637zM16.687 4.223c-0.19-0.139-0.428-0.223-0.686-0.223s-0.496 0.084-0.69 0.226l0.003-0.002-10.501 7.637c-0.293 0.215-0.48 0.557-0.48 0.943 0 0.129 0.021 0.252 0.059 0.368l-0.002-0.008 4.011 12.36c0.157 0.472 0.594 0.807 1.11 0.807 0 0 0 0 0 0h12.978c0.515-0 0.953-0.335 1.107-0.798l0.002-0.008 4.012-12.36c0.036-0.107 0.057-0.231 0.057-0.36 0-0.386-0.188-0.729-0.477-0.941l-0.003-0.002-10.501-7.637z"></path>
</svg>
