<!-- Generated by IcoMoon.io -->
<svg version="1.1" xmlns="http://www.w3.org/2000/svg" width="32" height="32" viewBox="0 0 32 32">
<title>people-team-toolbox-regular</title>
<path d="M19.672 13.333c0 0 0.001 0 0.001 0 1.051 0 1.94 0.695 2.232 1.65l0.004 0.017h-0.909c-0.547 0-1.064 0.12-1.529 0.333h-7.135c-0.184 0-0.333 0.149-0.333 0.333v0 6.332c0 1.741 1.112 3.223 2.664 3.773v2.079c-2.691-0.632-4.664-3.011-4.664-5.852v-6.332c0-1.288 1.044-2.333 2.333-2.333h7.336zM25.667 15c0 0 0 0 0 0 2.019 0 3.658 1.633 3.667 3.65v0.001-2.984c0-1.289-1.045-2.333-2.333-2.333v0h-4.5c0.389 0.471 0.663 1.040 0.779 1.667h2.388zM5 13.333h4.508c-0.453 0.544-0.753 1.232-0.823 1.986l-0.001 0.014h-3.684c-0.184 0-0.333 0.149-0.333 0.333v0 4.332c0 0 0 0 0 0.001 0 1.842 1.493 3.335 3.335 3.335 0.275 0 0.542-0.033 0.798-0.096l-0.023 0.005c0.113 0.672 0.32 1.313 0.604 1.909-0.414 0.115-0.888 0.181-1.379 0.181-2.946 0-5.335-2.388-5.335-5.335v0-4.332c0-1.288 1.045-2.333 2.333-2.333zM16 4c2.209 0 4 1.791 4 4s-1.791 4-4 4v0c-2.209 0-4-1.791-4-4s1.791-4 4-4v0zM16 6c-1.105 0-2 0.895-2 2s0.895 2 2 2v0c1.105 0 2-0.895 2-2s-0.895-2-2-2v0zM24.667 5.333c1.841 0 3.333 1.492 3.333 3.333s-1.492 3.333-3.333 3.333v0c-1.841 0-3.333-1.492-3.333-3.333s1.492-3.333 3.333-3.333v0zM24.667 7.333c-0.736 0-1.333 0.597-1.333 1.333s0.597 1.333 1.333 1.333v0c0.736 0 1.333-0.597 1.333-1.333s-0.597-1.333-1.333-1.333v0zM7.333 5.333c1.841 0 3.333 1.492 3.333 3.333s-1.492 3.333-3.333 3.333v0c-1.841 0-3.333-1.492-3.333-3.333s1.492-3.333 3.333-3.333v0zM7.333 7.333c-0.736 0-1.333 0.597-1.333 1.333s0.597 1.333 1.333 1.333v0c0.736 0 1.333-0.597 1.333-1.333s-0.597-1.333-1.333-1.333v0zM18.667 20h-0.667c-1.105 0-2 0.895-2 2v0 2h3.333v-0.333c0-0.552 0.448-1 1-1s1 0.448 1 1v0 0.333h4v-0.333c0-0.552 0.448-1 1-1s1 0.448 1 1v0 0.333h3.333v-2c0-1.105-0.895-2-2-2v0h-0.667v-1.333c0-1.289-1.045-2.333-2.333-2.333v0h-4.667c-1.289 0-2.333 1.045-2.333 2.333v0 1.333zM20.667 18.667c0-0.184 0.149-0.333 0.333-0.333v0h4.667c0.184 0 0.333 0.149 0.333 0.333v0 1.333h-5.333v-1.333zM16 28.667v-2.667h3.333v1c0 0.552 0.448 1 1 1s1-0.448 1-1v0-1h4v1c0 0.552 0.448 1 1 1s1-0.448 1-1v0-1h3.333v2.667c0 1.105-0.895 2-2 2v0h-10.667c-1.105 0-2-0.895-2-2v0z"></path>
</svg>
