<!-- Generated by IcoMoon.io -->
<svg version="1.1" xmlns="http://www.w3.org/2000/svg" width="32" height="32" viewBox="0 0 32 32">
<title>people-search</title>
<path d="M15.879 18.665l10.459 0.002c1.657 0 3 1.343 3 3v1.207c0 1.458-0.637 2.844-1.743 3.794-2.087 1.792-5.074 2.668-8.928 2.668l-0.239-0.001c0.312-0.627 0.323-1.366 0.035-2.002l0.204 0.003c3.413 0 5.944-0.742 7.625-2.185 0.664-0.57 1.046-1.401 1.046-2.276v-1.207c0-0.552-0.448-1-1-1h-10.367c0.020-0.22 0.030-0.443 0.030-0.667 0-0.456-0.042-0.902-0.121-1.335zM8.667 14c3.314 0 6 2.686 6 6 0 1.458-0.52 2.795-1.385 3.835l3.762 3.752c0.391 0.39 0.392 1.023 0.002 1.414-0.355 0.355-0.91 0.388-1.302 0.098l-0.112-0.097-3.871-3.861c-0.903 0.545-1.962 0.858-3.094 0.858-3.314 0-6-2.686-6-6s2.686-6 6-6zM8.667 16c-2.209 0-4 1.791-4 4s1.791 4 4 4 4-1.791 4-4c0-2.209-1.791-4-4-4zM18.667 2.673c3.682 0 6.667 2.985 6.667 6.667s-2.985 6.667-6.667 6.667c-3.682 0-6.667-2.985-6.667-6.667s2.985-6.667 6.667-6.667zM18.667 4.673c-2.577 0-4.667 2.089-4.667 4.667s2.089 4.667 4.667 4.667c2.577 0 4.667-2.089 4.667-4.667s-2.089-4.667-4.667-4.667z"></path>
</svg>
