<!-- Generated by IcoMoon.io -->
<svg version="1.1" xmlns="http://www.w3.org/2000/svg" width="32" height="32" viewBox="0 0 32 32">
<title>people-team</title>
<path d="M19.672 13.333c1.289 0 2.333 1.045 2.333 2.333v6.332c0 3.314-2.687 6.001-6.001 6.001s-6.001-2.687-6.001-6.001v-6.332c0-1.289 1.045-2.333 2.333-2.333h7.336zM19.672 15.333h-7.336c-0.184 0-0.333 0.149-0.333 0.333v6.332c0 2.21 1.791 4.001 4.001 4.001s4.001-1.791 4.001-4.001v-6.332c0-0.184-0.149-0.333-0.333-0.333zM5 13.333l4.508-0.001c-0.458 0.554-0.756 1.245-0.824 2.002l-3.684-0c-0.184 0-0.333 0.149-0.333 0.333v4.332c0 1.842 1.493 3.335 3.335 3.335 0.267 0 0.526-0.031 0.775-0.090 0.113 0.672 0.319 1.313 0.604 1.909-0.439 0.119-0.901 0.181-1.378 0.181-2.946 0-5.335-2.389-5.335-5.335v-4.332c0-1.289 1.045-2.333 2.333-2.333zM22.5 13.332l4.5 0.001c1.289 0 2.333 1.045 2.333 2.333v4.333c0 2.945-2.388 5.333-5.333 5.333-0.475 0-0.936-0.062-1.375-0.179 0.287-0.598 0.493-1.238 0.608-1.91 0.246 0.059 0.503 0.089 0.767 0.089 1.841 0 3.333-1.492 3.333-3.333v-4.333c0-0.184-0.149-0.333-0.333-0.333l-3.676 0c-0.068-0.757-0.366-1.448-0.824-2.002zM16 4c2.209 0 4 1.791 4 4s-1.791 4-4 4c-2.209 0-4-1.791-4-4s1.791-4 4-4zM24.667 5.333c1.841 0 3.333 1.492 3.333 3.333s-1.492 3.333-3.333 3.333c-1.841 0-3.333-1.492-3.333-3.333s1.492-3.333 3.333-3.333zM7.333 5.333c1.841 0 3.333 1.492 3.333 3.333s-1.492 3.333-3.333 3.333c-1.841 0-3.333-1.492-3.333-3.333s1.492-3.333 3.333-3.333zM16 6c-1.105 0-2 0.895-2 2s0.895 2 2 2c1.105 0 2-0.895 2-2s-0.895-2-2-2zM24.667 7.333c-0.736 0-1.333 0.597-1.333 1.333s0.597 1.333 1.333 1.333c0.736 0 1.333-0.597 1.333-1.333s-0.597-1.333-1.333-1.333zM7.333 7.333c-0.736 0-1.333 0.597-1.333 1.333s0.597 1.333 1.333 1.333c0.736 0 1.333-0.597 1.333-1.333s-0.597-1.333-1.333-1.333z"></path>
</svg>
