<!-- Generated by IcoMoon.io -->
<svg version="1.1" xmlns="http://www.w3.org/2000/svg" width="32" height="32" viewBox="0 0 32 32">
<title>people-edit-regular</title>
<path d="M7.2 9.2c0-1.988 1.612-3.6 3.6-3.6s3.6 1.612 3.6 3.6v0c0 1.988-1.612 3.6-3.6 3.6s-3.6-1.612-3.6-3.6v0zM10.8 4c-2.872 0-5.2 2.328-5.2 5.2s2.328 5.2 5.2 5.2v0c2.872 0 5.2-2.328 5.2-5.2s-2.328-5.2-5.2-5.2v0zM16 16c0 0 0.001 0 0.001 0 1.736 0 3.149 1.382 3.199 3.106l0 0.005-2.266 2.264c0.339-0.549 0.572-1.199 0.654-1.894l0.002-0.022c0.005-0.061 0.008-0.106 0.008-0.133l0.002-0.027v-0.098c0-0.884-0.716-1.6-1.6-1.6v0h-10.4c-0.884 0-1.6 0.716-1.6 1.6v0 0.125l0.011 0.133c0.094 0.808 0.378 1.534 0.807 2.153l-0.010-0.016c0.779 1.126 2.413 2.405 5.992 2.405 2.496 0 4.046-0.622 5.019-1.381-0.334 0.496-0.581 1.045-0.726 1.629l-0.17 0.68c-1.091 0.416-2.446 0.672-4.123 0.672-4.021 0-6.187-1.472-7.309-3.094-0.567-0.816-0.95-1.799-1.069-2.862l-0.003-0.029c-0.009-0.078-0.015-0.175-0.019-0.273l-0-0.007v-0.134c0-1.767 1.433-3.2 3.2-3.2v0h10.4zM27.2 10.4c0 2.209-1.791 4-4 4s-4-1.791-4-4v0c0-2.209 1.791-4 4-4s4 1.791 4 4v0zM20.8 10.4c0 1.325 1.075 2.4 2.4 2.4s2.4-1.075 2.4-2.4v0c0-1.325-1.075-2.4-2.4-2.4s-2.4 1.075-2.4 2.4v0zM25.296 15.277l-7.728 7.728c-0.438 0.437-0.76 0.99-0.919 1.608l-0.005 0.024-0.6 2.397c-0.027 0.103-0.042 0.221-0.042 0.343 0 0.786 0.638 1.424 1.424 1.424 0.122 0 0.241-0.015 0.354-0.044l-0.010 0.002 2.397-0.598c0.642-0.164 1.195-0.487 1.632-0.925l7.728-7.728c0.531-0.54 0.86-1.281 0.86-2.099 0-1.652-1.34-2.992-2.992-2.992-0.818 0-1.56 0.328-2.1 0.861l0-0z"></path>
</svg>
