<!-- Generated by IcoMoon.io -->
<svg version="1.1" xmlns="http://www.w3.org/2000/svg" width="32" height="32" viewBox="0 0 32 32">
<title>people-team-delete</title>
<path d="M23.333 16c4.050 0 7.333 3.283 7.333 7.333s-3.283 7.333-7.333 7.333c-4.050 0-7.333-3.283-7.333-7.333s3.283-7.333 7.333-7.333zM19.005 13.333c1.113 0 2.084 0.606 2.602 1.506-0.711 0.143-1.39 0.374-2.025 0.679-0.162-0.117-0.361-0.185-0.577-0.185h-6.003c-0.552 0-1 0.448-1 1v5.665c0 1.881 1.298 3.459 3.048 3.887 0.23 0.754 0.563 1.465 0.98 2.116l-0.026-0.002c-3.314 0-6.001-2.687-6.001-6.001v-5.665c0-1.657 1.343-3 3-3h6.003zM20.124 19.955l-0.092 0.077-0.077 0.092c-0.157 0.227-0.157 0.531 0 0.758l0.077 0.092 2.359 2.359-2.356 2.356-0.077 0.092c-0.157 0.227-0.157 0.531 0 0.758l0.077 0.092 0.092 0.077c0.227 0.157 0.531 0.157 0.758 0l0.092-0.077 2.356-2.356 2.359 2.359 0.092 0.077c0.227 0.157 0.531 0.157 0.758 0l0.092-0.077 0.077-0.092c0.157-0.227 0.157-0.531 0-0.758l-0.077-0.092-2.359-2.359 2.363-2.359 0.077-0.092c0.157-0.227 0.157-0.531 0-0.758l-0.077-0.092-0.092-0.077c-0.227-0.157-0.531-0.157-0.758 0l-0.092 0.077-2.362 2.359-2.359-2.359-0.092-0.077c-0.195-0.135-0.446-0.154-0.657-0.058l-0.102 0.058zM9.875 13.334c-0.526 0.548-0.91 1.235-1.090 2l-3.118-0c-0.552 0-1 0.448-1 1v3.665c0 1.842 1.493 3.335 3.335 3.335 0.267 0 0.526-0.031 0.775-0.090 0.113 0.672 0.319 1.313 0.604 1.909-0.439 0.119-0.901 0.181-1.378 0.181-2.946 0-5.335-2.389-5.335-5.335v-3.665c0-1.588 1.234-2.887 2.795-2.993l0.205-0.007 4.209 0zM26.333 13.333c1.657 0 3 1.343 3 3l0.001 0.747c-1.557-1.495-3.672-2.414-6.001-2.414l-0.327 0.006c-0.205-0.501-0.504-0.954-0.874-1.339l4.201-0zM24.667 5.333c1.841 0 3.333 1.492 3.333 3.333s-1.492 3.333-3.333 3.333c-1.841 0-3.333-1.492-3.333-3.333s1.492-3.333 3.333-3.333zM16 4c2.209 0 4 1.791 4 4s-1.791 4-4 4c-2.209 0-4-1.791-4-4s1.791-4 4-4zM7.333 5.333c1.841 0 3.333 1.492 3.333 3.333s-1.492 3.333-3.333 3.333c-1.841 0-3.333-1.492-3.333-3.333s1.492-3.333 3.333-3.333zM24.667 7.333c-0.736 0-1.333 0.597-1.333 1.333s0.597 1.333 1.333 1.333c0.736 0 1.333-0.597 1.333-1.333s-0.597-1.333-1.333-1.333zM16 6c-1.105 0-2 0.895-2 2s0.895 2 2 2c1.105 0 2-0.895 2-2s-0.895-2-2-2zM7.333 7.333c-0.736 0-1.333 0.597-1.333 1.333s0.597 1.333 1.333 1.333c0.736 0 1.333-0.597 1.333-1.333s-0.597-1.333-1.333-1.333z"></path>
</svg>
