<!-- Generated by IcoMoon.io -->
<svg version="1.1" xmlns="http://www.w3.org/2000/svg" width="32" height="32" viewBox="0 0 32 32">
<title>people</title>
<path d="M5.333 18.665l12 0.001c1.405 0 2.557 1.087 2.659 2.468l0.007 0.199v2c-0.001 4.667-4.955 6-8.667 6-3.63 0-8.447-1.275-8.659-5.694l-0.007-0.306v-2.001c0-1.405 1.089-2.557 2.468-2.659l0.199-0.007zM20.293 18.667h6.373c1.405 0 2.557 1.089 2.659 2.468l0.007 0.199v1.333c-0.001 4.083-3.811 5.333-6.667 5.333-0.907 0-1.908-0.128-2.853-0.429 0.448-0.515 0.809-1.103 1.069-1.769 0.724 0.167 1.404 0.199 1.784 0.199l0.355-0.008c1.314-0.057 4.115-0.485 4.302-3.052l0.010-0.273v-1.333c0-0.327-0.237-0.599-0.547-0.656l-0.119-0.011h-5.401c-0.112-0.669-0.391-1.276-0.793-1.787l-0.179-0.213zM5.333 20.665l-0.134 0.013c-0.166 0.034-0.279 0.124-0.338 0.181-0.058 0.059-0.148 0.171-0.181 0.337l-0.013 0.135v2.001c0 1.345 0.6 2.296 1.889 2.989 1.102 0.593 2.67 0.952 4.354 1.004l0.423 0.007 0.423-0.007c1.684-0.052 3.251-0.411 4.354-1.004 1.207-0.65 1.811-1.526 1.882-2.743l0.007-0.248v-1.999c0-0.327-0.237-0.599-0.547-0.656l-0.119-0.011-12-0.001zM11.333 4c3.313 0 6 2.687 6 6s-2.687 6-6 6c-3.313 0-6-2.687-6-6s2.687-6 6-6zM23.333 6.667c2.577 0 4.667 2.089 4.667 4.667s-2.089 4.667-4.667 4.667c-2.577 0-4.667-2.089-4.667-4.667s2.089-4.667 4.667-4.667zM11.333 6c-2.205 0-4 1.795-4 4s1.795 4 4 4c2.205 0 4-1.795 4-4s-1.795-4-4-4zM23.333 8.667c-1.471 0-2.667 1.196-2.667 2.667s1.196 2.667 2.667 2.667c1.471 0 2.667-1.196 2.667-2.667s-1.196-2.667-2.667-2.667z"></path>
</svg>
