<!-- Generated by IcoMoon.io -->
<svg version="1.1" xmlns="http://www.w3.org/2000/svg" width="32" height="32" viewBox="0 0 32 32">
<title>people-audience</title>
<path d="M19.672 13.333c1.288 0 2.333 1.045 2.333 2.333v4.333h-0.005v0.333c0 0.552-0.448 1-1 1s-1-0.448-1-1v0-3h0.005v-1.667c0-0.184-0.149-0.333-0.333-0.333v0h-7.336c-0.184 0-0.333 0.149-0.333 0.333v0 4.333h-0.003v0.333c0 0.552-0.448 1-1 1s-1-0.448-1-1v0-3h0.003v-1.667c0-1.288 1.044-2.333 2.333-2.333h7.336zM27.333 15.667v4.667c0 0.552 0.448 1 1 1s1-0.448 1-1v0-4.667c0-1.289-1.045-2.333-2.333-2.333v0h-4.5c0.457 0.553 0.756 1.243 0.824 2h3.676c0.184 0 0.333 0.149 0.333 0.333v0zM2.667 20.333c0 0.552 0.448 1 1 1s1-0.448 1-1v0-4.667c0-0.184 0.149-0.333 0.333-0.333v0h3.684c0.071-0.768 0.371-1.456 0.829-2.006l-0.005 0.006h-4.508c-1.289 0-2.333 1.045-2.333 2.333v0 4.667zM16 4c2.209 0 4 1.791 4 4s-1.791 4-4 4v0c-2.209 0-4-1.791-4-4s1.791-4 4-4v0zM16 6c-1.105 0-2 0.895-2 2s0.895 2 2 2v0c1.105 0 2-0.895 2-2s-0.895-2-2-2v0zM24.667 5.333c1.841 0 3.333 1.492 3.333 3.333s-1.492 3.333-3.333 3.333v0c-1.841 0-3.333-1.492-3.333-3.333s1.492-3.333 3.333-3.333v0zM24.667 7.333c-0.736 0-1.333 0.597-1.333 1.333s0.597 1.333 1.333 1.333v0c0.736 0 1.333-0.597 1.333-1.333s-0.597-1.333-1.333-1.333v0zM7.333 5.333c1.841 0 3.333 1.492 3.333 3.333s-1.492 3.333-3.333 3.333v0c-1.841 0-3.333-1.492-3.333-3.333s1.492-3.333 3.333-3.333v0zM7.333 7.333c-0.736 0-1.333 0.597-1.333 1.333s0.597 1.333 1.333 1.333v0c0.736 0 1.333-0.597 1.333-1.333s-0.597-1.333-1.333-1.333v0zM3.667 22.667c-0.552 0-1 0.448-1 1v0 0.667c0 2.761 2.239 5 5 5v0h16.667c2.761 0 5-2.239 5-5v0-0.667c0-0.552-0.448-1-1-1v0h-24.667zM7.667 27.333c-1.539-0-2.808-1.16-2.98-2.653l-0.001-0.014h22.629c-0.173 1.507-1.442 2.667-2.981 2.667h-16.667z"></path>
</svg>
