<!-- Generated by IcoMoon.io -->
<svg version="1.1" xmlns="http://www.w3.org/2000/svg" width="32" height="32" viewBox="0 0 32 32">
<title>people-team-delete</title>
<path d="M16 3c-2.209 0-4 1.791-4 4s1.791 4 4 4v0c2.209 0 4-1.791 4-4s-1.791-4-4-4v0zM14 7c0-1.105 0.895-2 2-2s2 0.895 2 2v0c0 1.105-0.895 2-2 2s-2-0.895-2-2v0zM25.5 4c-1.933 0-3.5 1.567-3.5 3.5s1.567 3.5 3.5 3.5v0c1.933 0 3.5-1.567 3.5-3.5s-1.567-3.5-3.5-3.5v0zM24 7.5c0-0.828 0.672-1.5 1.5-1.5s1.5 0.672 1.5 1.5v0c0 0.828-0.672 1.5-1.5 1.5s-1.5-0.672-1.5-1.5v0zM3 7.5c0-1.933 1.567-3.5 3.5-3.5s3.5 1.567 3.5 3.5v0c0 1.933-1.567 3.5-3.5 3.5s-3.5-1.567-3.5-3.5v0zM6.5 6c-0.828 0-1.5 0.672-1.5 1.5s0.672 1.5 1.5 1.5v0c0.828 0 1.5-0.672 1.5-1.5s-0.672-1.5-1.5-1.5v0zM7 25c0.61 0 1.177-0.182 1.651-0.495 0.138 0.678 0.368 1.323 0.676 1.922-0.675 0.362-1.476 0.575-2.327 0.575-2.761 0-5-2.239-5-5 0-0.001 0-0.001 0-0.002v0-6.5c0-1.381 1.119-2.5 2.5-2.5v0h4.877c-0.445 0.551-0.748 1.233-0.844 1.98l-0.002 0.020h-4.031c-0.276 0-0.5 0.224-0.5 0.5v0 6.5c0 1.657 1.343 3 3 3v0zM23.21 14.002c2.741 0.063 5.171 1.345 6.777 3.323l0.013 0.017v-1.842c0-1.381-1.119-2.5-2.5-2.5v0h-4.877c0.241 0.302 0.44 0.639 0.587 1.002zM19.5 13c0.867 0 1.63 0.441 2.080 1.111-1.013 0.164-1.923 0.474-2.756 0.912l0.049-0.023h-6.373c-0.276 0-0.5 0.224-0.5 0.5v0 7.5c0 1.801 1.19 3.324 2.827 3.827l0.028 0.007c0.372 0.79 0.856 1.516 1.43 2.16-0.085 0.004-0.185 0.007-0.285 0.007-3.314 0-6-2.686-6-6 0-0 0-0.001 0-0.001v0-7.501c0-1.381 1.119-2.5 2.5-2.5 0 0 0.001 0 0.001 0h7zM23 15.5c4.142 0 7.5 3.358 7.5 7.5s-3.358 7.5-7.5 7.5v0c-4.142 0-7.5-3.358-7.5-7.5s3.358-7.5 7.5-7.5v0zM25.72 19.22l-2.72 2.72-2.72-2.72c-0.137-0.147-0.332-0.239-0.549-0.239-0.414 0-0.75 0.336-0.75 0.75 0 0.216 0.092 0.411 0.238 0.548l0 0 2.72 2.72-2.72 2.72c-0.147 0.137-0.239 0.332-0.239 0.549 0 0.414 0.336 0.75 0.75 0.75 0.216 0 0.411-0.092 0.548-0.238l0-0 2.72-2.72 2.72 2.72c0.137 0.147 0.332 0.239 0.549 0.239 0.414 0 0.75-0.336 0.75-0.75 0-0.216-0.092-0.411-0.238-0.548l-0-0-2.72-2.72 2.72-2.72c0.147-0.137 0.239-0.332 0.239-0.549 0-0.414-0.336-0.75-0.75-0.75-0.216 0-0.411 0.092-0.548 0.238l-0 0z"></path>
</svg>
