<!-- Generated by IcoMoon.io -->
<svg version="1.1" xmlns="http://www.w3.org/2000/svg" width="32" height="32" viewBox="0 0 32 32">
<title>people-swap</title>
<path d="M19.916 20.667c-0.296-1.15-1.341-2-2.583-2l-12.199 0.006c-1.379 0.102-2.468 1.254-2.468 2.659v2.001l0.007 0.306c0.212 4.419 5.030 5.694 8.659 5.694 1.14 0 2.398-0.126 3.593-0.435l-0.909-0.909c-0.238-0.237-0.419-0.521-0.535-0.829-0.55 0.092-1.131 0.148-1.726 0.167l-0.423 0.007-0.423-0.007c-1.684-0.052-3.253-0.411-4.354-1.004-1.289-0.693-1.889-1.644-1.889-2.989v-2.001l0.013-0.135c0.034-0.166 0.124-0.279 0.181-0.337 0.059-0.058 0.172-0.148 0.338-0.181l0.134-0.013 14.583 0.001z"></path>
<path d="M19.707 28.964c0.391 0.391 0.391 1.024 0 1.414s-1.024 0.391-1.414 0l-3.333-3.332c-0.059-0.059-0.109-0.124-0.151-0.193-0.092-0.154-0.142-0.331-0.142-0.514-0-0.265 0.105-0.52 0.293-0.707l3.333-3.335c0.39-0.391 1.024-0.391 1.414-0s0.391 1.024 0 1.414l-1.626 1.626h9.17l-1.625-1.627c-0.39-0.391-0.39-1.024 0-1.414s1.024-0.39 1.414 0l3.333 3.335c0.187 0.188 0.293 0.442 0.293 0.707s-0.106 0.52-0.293 0.707l-3.333 3.331c-0.391 0.39-1.024 0.39-1.414-0.001s-0.39-1.024 0-1.414l1.627-1.626h-9.173l1.627 1.626z"></path>
<path d="M29.333 22.667l-0 0.039-1.35-1.351c-0.275-0.275-0.601-0.467-0.947-0.576-0.074-0.050-0.159-0.085-0.25-0.101l-0.119-0.011h-5.401c-0.112-0.669-0.391-1.276-0.793-1.787l-0.179-0.213h6.373c1.405 0 2.557 1.089 2.659 2.468l0.007 0.199v1.333z"></path>
<path d="M17.333 10c0-3.313-2.687-6-6-6s-6 2.687-6 6c0 3.313 2.687 6 6 6s6-2.687 6-6zM7.333 10c0-2.205 1.795-4 4-4s4 1.795 4 4c0 2.205-1.795 4-4 4s-4-1.795-4-4z"></path>
<path d="M28 11.333c0-2.577-2.089-4.667-4.667-4.667s-4.667 2.089-4.667 4.667c0 2.577 2.089 4.667 4.667 4.667s4.667-2.089 4.667-4.667zM20.667 11.333c0-1.471 1.196-2.667 2.667-2.667s2.667 1.196 2.667 2.667c0 1.471-1.196 2.667-2.667 2.667s-2.667-1.196-2.667-2.667z"></path>
</svg>
