<!-- Generated by IcoMoon.io -->
<svg version="1.1" xmlns="http://www.w3.org/2000/svg" width="32" height="32" viewBox="0 0 32 32">
<title>people-lock-regular</title>
<path d="M10.667 6c-1.841 0-3.333 1.492-3.333 3.333s1.492 3.333 3.333 3.333v0c1.841 0 3.333-1.492 3.333-3.333s-1.492-3.333-3.333-3.333v0zM5.333 9.333c0-2.946 2.388-5.333 5.333-5.333s5.333 2.388 5.333 5.333v0c0 2.946-2.388 5.333-5.333 5.333s-5.333-2.388-5.333-5.333v0zM22.667 8.667c-1.105 0-2 0.895-2 2s0.895 2 2 2v0c1.105 0 2-0.895 2-2s-0.895-2-2-2v0zM18.667 10.667c0.001-2.208 1.792-3.998 4-3.998s4 1.791 4 4c0 1.502-0.828 2.81-2.052 3.494l-0.020 0.010c-0.379-0.111-0.814-0.174-1.263-0.174-0.721 0-1.404 0.164-2.014 0.456l0.028-0.012c-1.573-0.563-2.678-2.040-2.679-3.776v-0zM18.269 18.84c-0.527-0.907-1.495-1.507-2.602-1.507-0 0-0.001 0-0.001 0h-10c-1.657 0-3 1.343-3 3v0 0.371c0.002 0.1 0.008 0.196 0.020 0.291l-0.001-0.013c0.119 1.044 0.49 1.983 1.050 2.779l-0.013-0.019c1.091 1.557 3.173 2.925 6.944 2.925 2.404 0 4.121-0.556 5.333-1.363v-2.751l-0.027 0.040c-0.66 0.94-2.079 2.073-5.307 2.073-3.229 0-4.648-1.133-5.307-2.073-0.358-0.511-0.603-1.127-0.682-1.793l-0.002-0.019c-0.003-0.026-0.007-0.063-0.009-0.099l-0-0.006v-0.343c0-0.552 0.448-1 1-1v0h10c0.453 0 0.835 0.301 0.958 0.713l0.002 0.007c0.404-0.56 0.976-0.989 1.643-1.213zM19.333 20h0.667v-1.333c0-1.841 1.492-3.333 3.333-3.333s3.333 1.492 3.333 3.333v0 1.333h0.667c1.105 0 2 0.895 2 2v0 6.667c0 1.105-0.895 2-2 2v0h-8c-1.105 0-2-0.895-2-2v0-6.667c0-1.105 0.895-2 2-2v0zM22 18.667v1.333h2.667v-1.333c0-0.736-0.597-1.333-1.333-1.333s-1.333 0.597-1.333 1.333v0zM24.667 25.333c0-0.736-0.597-1.333-1.333-1.333s-1.333 0.597-1.333 1.333v0c0 0.736 0.597 1.333 1.333 1.333s1.333-0.597 1.333-1.333v0z"></path>
</svg>
