<!-- Generated by IcoMoon.io -->
<svg version="1.1" xmlns="http://www.w3.org/2000/svg" width="32" height="32" viewBox="0 0 32 32">
<title>people-community-add</title>
<path d="M23.33 15.994c4.050 0 7.333 3.283 7.333 7.333s-3.283 7.333-7.333 7.333c-4.050 0-7.333-3.283-7.333-7.333s3.283-7.333 7.333-7.333zM23.33 18.66l-0.12 0.011c-0.272 0.049-0.487 0.264-0.536 0.536l-0.011 0.12-0.001 3.333-3.336 0.001-0.12 0.011c-0.272 0.049-0.487 0.264-0.536 0.536l-0.011 0.12 0.011 0.12c0.049 0.272 0.264 0.487 0.536 0.536l0.12 0.011 3.337-0.001 0.001 3.339 0.011 0.12c0.049 0.272 0.264 0.487 0.536 0.536l0.12 0.011 0.12-0.011c0.272-0.049 0.487-0.264 0.536-0.536l0.011-0.12-0.001-3.339 3.339 0.001 0.12-0.011c0.272-0.049 0.487-0.264 0.536-0.536l0.011-0.12-0.011-0.12c-0.049-0.272-0.264-0.487-0.536-0.536l-0.12-0.011-3.34-0.001 0.001-3.333-0.011-0.12c-0.049-0.272-0.264-0.487-0.536-0.536l-0.12-0.011zM16.026 18.661c-0.396 0.618-0.715 1.289-0.945 2.001l-2.751-0.001c-0.184 0-0.333 0.149-0.333 0.333v1.333c0 1.303 0.816 2.060 2.759 2.279 0.107 0.715 0.3 1.401 0.569 2.048-3.405-0.183-5.328-1.629-5.328-4.326v-1.333c0-1.289 1.045-2.333 2.333-2.333l3.696-0zM10.831 11.994c-0.11 0.426-0.168 0.873-0.168 1.333 0 0.225 0.014 0.448 0.041 0.666l-5.708 0.001c-0.184 0-0.333 0.149-0.333 0.333v1.333c0 1.568 1.182 2.345 4.089 2.345 0.616 0 1.151-0.034 1.61-0.103-0.754 0.477-1.319 1.223-1.564 2.102l-0.046 0.001c-3.879 0-6.089-1.453-6.089-4.345v-1.333c0-1.224 0.943-2.228 2.142-2.326l0.191-0.008 5.835 0zM15.997 9.327c2.209 0 4 1.791 4 4s-1.791 4-4 4c-2.209 0-4-1.791-4-4s1.791-4 4-4zM26.997 11.994c1.289 0 2.333 1.045 2.333 2.333l-0.001 1.283c0.026 0.492-0.014 0.943-0.117 1.352-0.564-0.521-1.195-0.967-1.881-1.325l-0.001-1.31c0-0.184-0.149-0.333-0.333-0.333l-5.708-0.001c0.027-0.218 0.041-0.44 0.041-0.666 0-0.46-0.058-0.907-0.168-1.333l5.835-0zM15.997 11.327c-1.105 0-2 0.895-2 2s0.895 2 2 2c1.105 0 2-0.895 2-2s-0.895-2-2-2zM8.663 2.661c2.209 0 4 1.791 4 4s-1.791 4-4 4c-2.209 0-4-1.791-4-4s1.791-4 4-4zM23.33 2.661c2.209 0 4 1.791 4 4s-1.791 4-4 4c-2.209 0-4-1.791-4-4s1.791-4 4-4zM8.663 4.661c-1.105 0-2 0.895-2 2s0.895 2 2 2c1.105 0 2-0.895 2-2s-0.895-2-2-2zM23.33 4.661c-1.105 0-2 0.895-2 2s0.895 2 2 2c1.105 0 2-0.895 2-2s-0.895-2-2-2z"></path>
</svg>
