<!-- Generated by IcoMoon.io -->
<svg version="1.1" xmlns="http://www.w3.org/2000/svg" width="32" height="32" viewBox="0 0 32 32">
<title>people-call-regular</title>
<path d="M10.8 5.6c-1.988 0-3.6 1.612-3.6 3.6s1.612 3.6 3.6 3.6v0c1.988 0 3.6-1.612 3.6-3.6s-1.612-3.6-3.6-3.6v0zM5.6 9.2c0-2.872 2.328-5.2 5.2-5.2s5.2 2.328 5.2 5.2v0c0 2.872-2.328 5.2-5.2 5.2s-5.2-2.328-5.2-5.2v0zM5.6 16c-1.767 0-3.2 1.433-3.2 3.2v0 0.134c0.002 0.101 0.009 0.198 0.021 0.293l-0.001-0.013c0.122 1.091 0.506 2.074 1.086 2.91l-0.014-0.021c1.122 1.624 3.288 3.096 7.309 3.096s6.187-1.472 7.309-3.094c0.567-0.816 0.95-1.799 1.069-2.862l0.003-0.029c0.009-0.078 0.016-0.175 0.019-0.273l0-0.007v-0.134c0-1.767-1.433-3.2-3.2-3.2v0h-10.4zM4 19.298v-0.098c0-0.884 0.716-1.6 1.6-1.6v0h10.4c0.884 0 1.6 0.716 1.6 1.6v0 0.125l-0.011 0.133c-0.093 0.808-0.378 1.534-0.807 2.153l0.010-0.016c-0.779 1.126-2.413 2.405-5.992 2.405s-5.213-1.278-5.992-2.405c-0.419-0.603-0.703-1.33-0.795-2.116l-0.002-0.022c-0.004-0.035-0.007-0.081-0.009-0.127l-0-0.006-0.002-0.027zM23.2 8c-1.325 0-2.4 1.075-2.4 2.4s1.075 2.4 2.4 2.4v0c1.325 0 2.4-1.075 2.4-2.4s-1.075-2.4-2.4-2.4v0zM19.2 10.4c0-2.209 1.791-4 4-4s4 1.791 4 4v0c0 2.209-1.791 4-4 4s-4-1.791-4-4v0zM25.174 16.518l-0.64 1.504-0.059 0.168c-0.19 0.616-0.022 1.301 0.442 1.741l1.408 1.336-0.048 0.342c-0.142 0.76-0.406 1.437-0.774 2.045l0.015-0.027c-0.441 0.763-1.004 1.404-1.671 1.917l-0.015 0.011-1.691-0.563-0.16-0.045c-0.091-0.020-0.196-0.031-0.304-0.031-0.528 0-0.992 0.269-1.264 0.678l-0.003 0.006-0.915 1.344-0.090 0.149c-0.129 0.236-0.205 0.518-0.205 0.817 0 0.468 0.186 0.892 0.487 1.203l0.608 0.608 0.157 0.144c0.592 0.498 1.378 0.664 2.11 0.435 1.886-0.589 3.619-2.336 5.202-5.24 1.584-2.909 2.144-5.376 1.678-7.405-0.186-0.842-0.791-1.509-1.58-1.78l-0.017-0.005-0.8-0.256-0.15-0.038c-0.704-0.147-1.421 0.237-1.72 0.944z"></path>
</svg>
