<!-- Generated by IcoMoon.io -->
<svg version="1.1" xmlns="http://www.w3.org/2000/svg" width="32" height="32" viewBox="0 0 32 32">
<title>people-lock</title>
<path d="M17.333 18.667c0.332 0 0.649 0.061 0.942 0.171-0.896 0.3-1.623 0.97-1.998 1.829l-10.944-0.001-0.134 0.013c-0.166 0.034-0.279 0.124-0.338 0.181-0.058 0.059-0.148 0.171-0.181 0.337l-0.013 0.135v2.001c0 1.345 0.6 2.296 1.889 2.989 1.102 0.593 2.67 0.952 4.354 1.004l0.423 0.007 0.423-0.007c1.628-0.050 3.148-0.387 4.243-0.946v2.18c-1.489 0.558-3.178 0.773-4.667 0.773-3.63 0-8.447-1.275-8.659-5.694l-0.007-0.306v-2.001c0-1.405 1.089-2.557 2.468-2.659l0.199-0.007 12 0.001zM17.733 20.8c0.365-0.486 0.946-0.8 1.6-0.8h0.667v-1.333c0-1.272 0.712-2.377 1.759-2.939 0.469-0.252 1.005-0.394 1.574-0.394s1.105 0.143 1.574 0.394c0.42 0.226 0.787 0.539 1.075 0.915 0.429 0.561 0.685 1.263 0.685 2.024v1.333h0.667c0.003 0 0.007 0 0.011 0 0.015 0 0.030 0 0.045 0.001 1.079 0.030 1.944 0.913 1.944 1.999v6.667c0 1.105-0.895 2-2 2h-8c-0.97 0-1.779-0.691-1.962-1.608-0.025-0.127-0.038-0.258-0.038-0.392v-6.667c0-0.45 0.149-0.865 0.4-1.2zM22.169 25.984c0.143 0.256 0.368 0.459 0.639 0.576 0.161 0.069 0.338 0.107 0.525 0.107 0.584 0 1.080-0.376 1.261-0.898 0.047-0.136 0.073-0.283 0.073-0.435s-0.025-0.297-0.072-0.433c-0.18-0.524-0.677-0.9-1.261-0.9-0.736 0-1.333 0.597-1.333 1.333 0 0.236 0.061 0.458 0.169 0.651zM22 18.667v1.333h2.667v-1.333c0-0.736-0.597-1.333-1.333-1.333s-1.333 0.597-1.333 1.333zM28 11.333c0 1.487-0.696 2.812-1.78 3.667-0.794-0.625-1.797-1-2.887-1 1.471 0 2.667-1.196 2.667-2.667s-1.196-2.667-2.667-2.667c-1.471 0-2.667 1.196-2.667 2.667s1.196 2.667 2.667 2.667c-1.090 0-2.093 0.374-2.887 1-1.084-0.855-1.78-2.179-1.78-3.667 0-2.577 2.089-4.667 4.667-4.667s4.667 2.089 4.667 4.667zM11.333 4c3.313 0 6 2.687 6 6s-2.687 6-6 6c-3.313 0-6-2.687-6-6s2.687-6 6-6zM11.333 6c-2.205 0-4 1.795-4 4s1.795 4 4 4c2.205 0 4-1.795 4-4s-1.795-4-4-4z"></path>
</svg>
