<!-- Generated by IcoMoon.io -->
<svg version="1.1" xmlns="http://www.w3.org/2000/svg" width="32" height="32" viewBox="0 0 32 32">
<title>people-community-add-regular</title>
<path d="M16.571 18.286c-0.377 0.496-0.712 1.060-0.979 1.66l-0.022 0.054h-3.285c-0.473 0-0.857 0.384-0.857 0.857v0 1.623c0.274 1.176 1.379 1.88 3.499 2.057 0.078 0.602 0.218 1.186 0.415 1.743-3.214-0.149-5.166-1.304-5.611-3.541l-0.017-0.168v-1.714c0-1.42 1.151-2.571 2.571-2.571v0h4.286zM29.271 17.157c-0.414-0.386-0.872-0.736-1.363-1.038l-0.037-0.021c0.059-0.141 0.103-0.29 0.129-0.448v-1.649c0-0.473-0.384-0.857-0.857-0.857v0h-6c0-0.601-0.103-1.179-0.293-1.715l6.293 0.001c1.42 0 2.571 1.151 2.571 2.571v0 1.717l-0.009 0.123c-0.068 0.492-0.221 0.936-0.444 1.336l0.010-0.019zM11.15 11.427l-6.293 0.001c-1.42 0-2.571 1.151-2.571 2.571v0 1.714l0.016 0.168c0.48 2.401 2.697 3.557 6.346 3.557l0.206-0.002c0.335-0.795 0.914-1.432 1.64-1.834l0.019-0.010c-0.535 0.087-1.154 0.131-1.865 0.131-2.875 0-4.328-0.729-4.648-2.102v-1.623c0-0.473 0.384-0.857 0.857-0.857v0h6l0.008-0.298c0.029-0.495 0.127-0.97 0.286-1.417zM20 13.143c0-2.209-1.791-4-4-4s-4 1.791-4 4v0c0 2.209 1.791 4 4 4s4-1.791 4-4v0zM13.714 13.143c0-1.262 1.023-2.286 2.286-2.286s2.286 1.023 2.286 2.286v0c0 1.262-1.023 2.286-2.286 2.286s-2.286-1.023-2.286-2.286v0zM27.429 6.286c0-2.209-1.791-4-4-4s-4 1.791-4 4v0c0 2.209 1.791 4 4 4s4-1.791 4-4v0zM21.143 6.286c0-1.262 1.023-2.286 2.286-2.286s2.286 1.023 2.286 2.286v0c0 1.262-1.023 2.286-2.286 2.286s-2.286-1.023-2.286-2.286v0zM12.571 6.286c0-2.209-1.791-4-4-4s-4 1.791-4 4v0c0 2.209 1.791 4 4 4s4-1.791 4-4v0zM6.286 6.286c0-1.262 1.023-2.286 2.286-2.286s2.286 1.023 2.286 2.286v0c0 1.262-1.023 2.286-2.286 2.286s-2.286-1.023-2.286-2.286v0zM23.429 30.857c4.103 0 7.429-3.326 7.429-7.429s-3.326-7.429-7.429-7.429v0c-4.103 0-7.429 3.326-7.429 7.429s3.326 7.429 7.429 7.429v0zM23.429 18.286c0.316 0 0.571 0.256 0.571 0.571v0 4h4c0.316 0 0.571 0.256 0.571 0.571s-0.256 0.571-0.571 0.571v0h-4v4c0 0.316-0.256 0.571-0.571 0.571s-0.571-0.256-0.571-0.571v0-4h-4c-0.316 0-0.571-0.256-0.571-0.571s0.256-0.571 0.571-0.571v0h4v-4c0-0.316 0.256-0.571 0.571-0.571v0z"></path>
</svg>
