<!-- Generated by IcoMoon.io -->
<svg version="1.1" xmlns="http://www.w3.org/2000/svg" width="32" height="32" viewBox="0 0 32 32">
<title>people-add</title>
<path d="M23.333 16c4.050 0 7.333 3.283 7.333 7.333s-3.283 7.333-7.333 7.333c-4.050 0-7.333-3.283-7.333-7.333s3.283-7.333 7.333-7.333zM5.333 17.332l11.746 0.002c-0.568 0.592-1.053 1.265-1.436 2l-10.31-0.001-0.134 0.013c-0.166 0.034-0.279 0.124-0.338 0.181-0.058 0.059-0.148 0.171-0.181 0.337l-0.013 0.135v2.001c0 1.345 0.6 2.296 1.889 2.989 1.102 0.593 2.67 0.952 4.354 1.004l0.423 0.007 0.423-0.007c1.152-0.035 2.249-0.215 3.18-0.514 0.165 0.657 0.408 1.284 0.715 1.871-1.4 0.467-2.945 0.649-4.319 0.649-3.63 0-8.447-1.275-8.659-5.694l-0.007-0.306v-2.001c0-1.472 1.195-2.667 2.667-2.667zM23.333 18.669l-0.12 0.011c-0.272 0.049-0.487 0.264-0.536 0.536l-0.011 0.12v3.331l-3.333 0.001-0.12 0.011c-0.272 0.049-0.487 0.264-0.536 0.536l-0.011 0.12 0.011 0.12c0.049 0.272 0.264 0.487 0.536 0.536l0.12 0.011 3.333-0.001v3.334l0.011 0.12c0.049 0.272 0.264 0.487 0.536 0.536l0.12 0.011 0.12-0.011c0.272-0.049 0.487-0.264 0.536-0.536l0.011-0.12v-3.334l3.333 0.001 0.12-0.011c0.272-0.049 0.487-0.264 0.536-0.536l0.011-0.12-0.011-0.12c-0.049-0.272-0.264-0.487-0.536-0.536l-0.12-0.011-3.333-0.001v-3.331l-0.011-0.12c-0.049-0.272-0.264-0.487-0.536-0.536l-0.12-0.011zM11.333 2.667c3.313 0 6 2.687 6 6s-2.687 6-6 6c-3.313 0-6-2.687-6-6s2.687-6 6-6zM23.333 5.333c2.577 0 4.667 2.089 4.667 4.667s-2.089 4.667-4.667 4.667c-2.577 0-4.667-2.089-4.667-4.667s2.089-4.667 4.667-4.667zM11.333 4.667c-2.205 0-4 1.795-4 4s1.795 4 4 4c2.205 0 4-1.795 4-4s-1.795-4-4-4zM23.333 7.333c-1.471 0-2.667 1.196-2.667 2.667s1.196 2.667 2.667 2.667c1.471 0 2.667-1.196 2.667-2.667s-1.196-2.667-2.667-2.667z"></path>
</svg>
