<!-- Generated by IcoMoon.io -->
<svg version="1.1" xmlns="http://www.w3.org/2000/svg" width="32" height="32" viewBox="0 0 32 32">
<title>people-list</title>
<path d="M5.714 10.857c0-2.84 2.303-5.143 5.143-5.143s5.143 2.303 5.143 5.143v0c0 2.84-2.303 5.143-5.143 5.143s-5.143-2.303-5.143-5.143v0zM10.857 7.429c-1.894 0-3.429 1.535-3.429 3.429s1.535 3.429 3.429 3.429v0c1.894 0 3.429-1.535 3.429-3.429s-1.535-3.429-3.429-3.429v0zM18.857 12c0-2.209 1.791-4 4-4s4 1.791 4 4v0c0 2.209-1.791 4-4 4s-4-1.791-4-4v0zM22.857 9.714c-1.262 0-2.286 1.023-2.286 2.286s1.023 2.286 2.286 2.286v0c1.262 0 2.286-1.023 2.286-2.286s-1.023-2.286-2.286-2.286v0zM2.286 20.857c0-1.42 1.151-2.571 2.571-2.571v0h12c0.27 0 0.53 0.041 0.775 0.119-0.304 0.348-0.49 0.806-0.49 1.308 0 0.122 0.011 0.242 0.032 0.359l-0.002-0.012c-0.093-0.038-0.2-0.059-0.313-0.059-0.001 0-0.002 0-0.002 0h-12c-0.473 0-0.857 0.384-0.857 0.857v0 0.586l0.010 0.114c0.011 0.107 0.034 0.269 0.085 0.466 0.099 0.397 0.298 0.929 0.697 1.462 0.77 1.025 2.417 2.229 6.065 2.229s5.295-1.203 6.064-2.229c0.082-0.11 0.155-0.218 0.222-0.327 0.006 0.695 0.366 1.304 0.906 1.658-0.082 0.095-0.159 0.181-0.239 0.264l0.002-0.002c-0.056 0.050-0.109 0.103-0.159 0.159-1.273 1.225-3.379 2.191-6.795 2.191-4.066 0-6.277-1.368-7.435-2.914-0.445-0.588-0.787-1.281-0.981-2.034l-0.009-0.040c-0.069-0.265-0.12-0.576-0.142-0.895l-0.001-0.016c-0.001-0.015-0.002-0.037-0.003-0.060l-0-0.005v-0.607zM19.143 18.857c-0.473 0-0.857 0.384-0.857 0.857s0.384 0.857 0.857 0.857v0h9.714c0.473 0 0.857-0.384 0.857-0.857s-0.384-0.857-0.857-0.857v0h-9.714zM19.143 22.286c-0.473 0-0.857 0.384-0.857 0.857s0.384 0.857 0.857 0.857v0h9.714c0.473 0 0.857-0.384 0.857-0.857s-0.384-0.857-0.857-0.857v0h-9.714zM19.143 25.714c-0.473 0-0.857 0.384-0.857 0.857s0.384 0.857 0.857 0.857v0h9.714c0.473 0 0.857-0.384 0.857-0.857s-0.384-0.857-0.857-0.857v0h-9.714z"></path>
</svg>
