<!-- Generated by IcoMoon.io -->
<svg version="1.1" xmlns="http://www.w3.org/2000/svg" width="32" height="32" viewBox="0 0 32 32">
<title>people-search</title>
<path d="M15.88 18.665l10.457 0.001c1.657 0 3 1.343 3 3v0 1.207c-0 1.514-0.673 2.871-1.736 3.788l-0.006 0.005c-2.088 1.793-5.075 2.669-8.928 2.669h-0.239c0.312-0.628 0.323-1.367 0.035-2.003l0.204 0.003c3.413 0 5.944-0.741 7.625-2.185 0.642-0.553 1.045-1.367 1.045-2.276 0-0 0-0 0-0v0-1.207c0-0.552-0.448-1-1-1v0h-10.368c0.019-0.202 0.031-0.436 0.031-0.673 0-0.47-0.044-0.929-0.127-1.375l0.007 0.046zM8.667 14c3.314 0 6 2.686 6 6 0 1.463-0.524 2.804-1.394 3.846l0.008-0.009 3.764 3.752c0.18 0.181 0.291 0.43 0.291 0.706 0 0.552-0.448 1-1 1-0.223 0-0.428-0.073-0.594-0.196l0.003 0.002-0.113-0.096-3.871-3.861c-0.882 0.538-1.949 0.857-3.091 0.857-3.314 0-6-2.686-6-6s2.685-5.999 5.997-6h0zM8.667 16c-2.209 0-4 1.791-4 4s1.791 4 4 4v0c2.209 0 4-1.791 4-4s-1.791-4-4-4v0zM18.667 2.673c3.682 0 6.667 2.985 6.667 6.667s-2.985 6.667-6.667 6.667v0c-3.682 0-6.667-2.985-6.667-6.667s2.985-6.667 6.667-6.667v0zM18.667 4.673c-2.577 0-4.667 2.089-4.667 4.667s2.089 4.667 4.667 4.667v0c2.577 0 4.667-2.089 4.667-4.667s-2.089-4.667-4.667-4.667v0z"></path>
</svg>
