<!-- Generated by IcoMoon.io -->
<svg version="1.1" xmlns="http://www.w3.org/2000/svg" width="32" height="32" viewBox="0 0 32 32">
<title>people-toolbox-regular</title>
<path d="M10.8 5.6c-1.988 0-3.6 1.612-3.6 3.6s1.612 3.6 3.6 3.6v0c1.988 0 3.6-1.612 3.6-3.6s-1.612-3.6-3.6-3.6v0zM5.6 9.2c0-2.872 2.328-5.2 5.2-5.2s5.2 2.328 5.2 5.2v0c0 2.872-2.328 5.2-5.2 5.2s-5.2-2.328-5.2-5.2v0zM23.2 14.4c-2.209 0-4-1.791-4-4s1.791-4 4-4v0c2.209 0 4 1.791 4 4s-1.791 4-4 4v0zM17.984 16.688c-0.538-0.429-1.227-0.688-1.977-0.688-0.003 0-0.005 0-0.008 0h-10.4c-1.767 0-3.2 1.433-3.2 3.2v0 0.134c0.002 0.101 0.009 0.198 0.021 0.293l-0.001-0.013c0.122 1.091 0.506 2.074 1.086 2.91l-0.014-0.021c1.122 1.624 3.288 3.096 7.309 3.096 1.419 0 2.608-0.184 3.6-0.491v-1.694c-0.902 0.354-2.075 0.586-3.6 0.586-3.579 0-5.213-1.278-5.992-2.405-0.419-0.603-0.703-1.33-0.795-2.116l-0.002-0.022c-0.004-0.035-0.007-0.081-0.009-0.127l-0-0.006-0.002-0.027v-0.098c0-0.884 0.716-1.6 1.6-1.6v0h10.4c0.339 0 0.654 0.106 0.912 0.285 0.24-0.096 0.494-0.17 0.755-0.218 0.064-0.344 0.171-0.672 0.317-0.978zM23.2 8c-1.325 0-2.4 1.075-2.4 2.4s1.075 2.4 2.4 2.4v0c1.325 0 2.4-1.075 2.4-2.4s-1.075-2.4-2.4-2.4v0zM19.2 19.2v-0.8c0-1.325 1.075-2.4 2.4-2.4v0h3.2c1.325 0 2.4 1.075 2.4 2.4v0 0.8h0.8c1.325 0 2.4 1.075 2.4 2.4v0 2.4h-3.2v-0.8c0-0.442-0.358-0.8-0.8-0.8s-0.8 0.358-0.8 0.8v0 0.8h-4.8v-0.8c0-0.442-0.358-0.8-0.8-0.8s-0.8 0.358-0.8 0.8v0 0.8h-3.2v-2.4c0-1.325 1.075-2.4 2.4-2.4v0h0.8zM20.8 18.4v0.8h4.8v-0.8c0-0.442-0.358-0.8-0.8-0.8v0h-3.2c-0.442 0-0.8 0.358-0.8 0.8v0zM27.2 25.6h3.2v2.4c0 1.325-1.075 2.4-2.4 2.4v0h-9.6c-1.325 0-2.4-1.075-2.4-2.4v0-2.4h3.2v0.8c0 0.442 0.358 0.8 0.8 0.8s0.8-0.358 0.8-0.8v0-0.8h4.8v0.8c0 0.442 0.358 0.8 0.8 0.8s0.8-0.358 0.8-0.8v0-0.8z"></path>
</svg>
