<!-- Generated by IcoMoon.io -->
<svg version="1.1" xmlns="http://www.w3.org/2000/svg" width="32" height="32" viewBox="0 0 32 32">
<title>people-sync-regular</title>
<path d="M10.857 4.571c-2.84 0-5.143 2.303-5.143 5.143s2.303 5.143 5.143 5.143v0c2.84 0 5.143-2.303 5.143-5.143s-2.303-5.143-5.143-5.143v0zM7.429 9.714c0-1.894 1.535-3.429 3.429-3.429s3.429 1.535 3.429 3.429v0c0 1.894-1.535 3.429-3.429 3.429s-3.429-1.535-3.429-3.429v0zM22.857 6.857c-2.209 0-4 1.791-4 4s1.791 4 4 4v0c2.209 0 4-1.791 4-4s-1.791-4-4-4v0zM20.571 10.857c0-1.262 1.023-2.286 2.286-2.286s2.286 1.023 2.286 2.286v0c0 1.262-1.023 2.286-2.286 2.286s-2.286-1.023-2.286-2.286v0zM4.857 17.143c-1.42 0-2.571 1.151-2.571 2.571v0 0.607c0.002 0.099 0.009 0.195 0.021 0.289l-0.001-0.013c0.019 0.175 0.056 0.415 0.126 0.699 0.204 0.793 0.546 1.487 1.002 2.089l-0.011-0.015c1.159 1.546 3.369 2.914 7.435 2.914 1.75 0 3.157-0.254 4.282-0.665-0.14-0.51-0.236-1.103-0.269-1.713l-0.001-0.021c-0.955 0.406-2.251 0.686-4.013 0.686-3.648 0-5.295-1.203-6.064-2.229-0.314-0.414-0.554-0.903-0.691-1.433l-0.006-0.028c-0.044-0.168-0.078-0.366-0.094-0.568l-0.001-0.012-0.001-0.021v-0.566c0-0.473 0.384-0.857 0.857-0.857v0h11.32c0.393-0.617 0.834-1.151 1.332-1.627l0.003-0.003c-0.196-0.054-0.422-0.085-0.655-0.085-0 0-0 0-0 0h-12zM16 23.429c0 4.103 3.326 7.429 7.429 7.429s7.429-3.326 7.429-7.429v0c0-4.103-3.326-7.429-7.429-7.429s-7.429 3.326-7.429 7.429v0zM22.113 18.766c0.394-0.123 0.847-0.194 1.316-0.194 1.712 0 3.204 0.941 3.987 2.334l0.012 0.023v-0.929c0-0.316 0.256-0.571 0.571-0.571s0.571 0.256 0.571 0.571v0 2.286c0 0.316-0.256 0.571-0.571 0.571v0h-2.286c-0.316 0-0.571-0.256-0.571-0.571s0.256-0.571 0.571-0.571v0h0.831c-0.554-1.191-1.74-2.001-3.116-2.001-0.947 0-1.805 0.384-2.425 1.006l-0 0c-0.103 0.099-0.243 0.16-0.397 0.16-0.316 0-0.571-0.256-0.571-0.571 0-0.154 0.061-0.294 0.161-0.397l-0 0c0.52-0.52 1.164-0.915 1.884-1.138l0.032-0.009zM24.744 28.091c-0.394 0.123-0.847 0.194-1.316 0.194-1.712 0-3.204-0.941-3.987-2.334l-0.012-0.023v0.93c0 0.316-0.256 0.571-0.571 0.571s-0.571-0.256-0.571-0.571v0-2.286c0-0.316 0.256-0.571 0.571-0.571v0h2.286c0.316 0 0.571 0.256 0.571 0.571s-0.256 0.571-0.571 0.571v0h-0.831c0.554 1.191 1.74 2.001 3.116 2.001 0.947 0 1.805-0.384 2.425-1.006l0-0c0.103-0.099 0.243-0.16 0.397-0.16 0.316 0 0.571 0.256 0.571 0.571 0 0.154-0.061 0.294-0.161 0.397l0-0c-0.52 0.52-1.164 0.915-1.884 1.138l-0.032 0.009z"></path>
</svg>
