<!-- Generated by IcoMoon.io -->
<svg version="1.1" xmlns="http://www.w3.org/2000/svg" width="32" height="32" viewBox="0 0 32 32">
<title>people-money</title>
<path d="M17.333 16.668c1.405 0 2.557 1.087 2.659 2.468l0.007 0.199v0.665h-2v-0.665c0-0.327-0.237-0.599-0.547-0.656l-0.119-0.011-12-0.001-0.134 0.013c-0.166 0.034-0.279 0.124-0.338 0.181-0.058 0.059-0.148 0.171-0.181 0.337l-0.013 0.135v2.667c0 1.345 0.6 2.296 1.889 2.989 1.102 0.593 2.67 0.952 4.354 1.004l0.423 0.007 0.423-0.007c1.042-0.032 2.040-0.182 2.91-0.432v2.067c-1.116 0.263-2.275 0.371-3.333 0.371-3.63 0-8.447-1.275-8.659-5.694l-0.007-0.306v-2.667c0-1.405 1.089-2.557 2.468-2.659l0.199-0.007 12 0.001zM28.667 20c0.228 0 0.451 0.023 0.667 0.067v-0.732l-0.007-0.199c-0.102-1.379-1.254-2.468-2.659-2.468h-6.373l0.179 0.213c0.401 0.511 0.681 1.118 0.793 1.787h5.401l0.119 0.011c0.31 0.056 0.547 0.329 0.547 0.656v0.665h1.333zM11.333 2.667c3.313 0 6 2.687 6 6s-2.687 6-6 6c-3.313 0-6-2.687-6-6s2.687-6 6-6zM11.333 4.667c-2.205 0-4 1.795-4 4s1.795 4 4 4c2.205 0 4-1.795 4-4s-1.795-4-4-4zM23.333 5.333c2.577 0 4.667 2.089 4.667 4.667s-2.089 4.667-4.667 4.667c-2.577 0-4.667-2.089-4.667-4.667s2.089-4.667 4.667-4.667zM23.333 7.333c-1.471 0-2.667 1.196-2.667 2.667s1.196 2.667 2.667 2.667c1.471 0 2.667-1.196 2.667-2.667s-1.196-2.667-2.667-2.667zM16 23.333c0-1.105 0.895-2 2-2h10.667c1.105 0 2 0.895 2 2v5.333c0 1.105-0.895 2-2 2h-10.667c-1.105 0-2-0.895-2-2v-5.333zM29.333 24c-0.736 0-1.333-0.597-1.333-1.333h-1.333c0 1.473 1.194 2.667 2.667 2.667v-1.333zM29.333 26.667c-1.473 0-2.667 1.194-2.667 2.667h1.333c0-0.736 0.597-1.333 1.333-1.333v-1.333zM18.667 22.667c0 0.736-0.597 1.333-1.333 1.333v1.333c1.473 0 2.667-1.194 2.667-2.667h-1.333zM20 29.333c0-1.473-1.194-2.667-2.667-2.667v1.333c0.736 0 1.333 0.597 1.333 1.333h1.333zM25.667 26c0-1.289-1.045-2.333-2.333-2.333s-2.333 1.045-2.333 2.333c0 1.289 1.045 2.333 2.333 2.333s2.333-1.045 2.333-2.333z"></path>
</svg>
