<!-- Generated by IcoMoon.io -->
<svg version="1.1" xmlns="http://www.w3.org/2000/svg" width="32" height="32" viewBox="0 0 32 32">
<title>people-audience</title>
<path d="M19.672 13.333c1.289 0 2.333 1.045 2.333 2.333v4.333h-0.005v0.333c0 0.552-0.448 1-1 1s-1-0.448-1-1v-3h0.005v-1.667c0-0.184-0.149-0.333-0.333-0.333h-7.336c-0.184 0-0.333 0.149-0.333 0.333v4.333h-0.003v0.333c0 0.552-0.448 1-1 1s-1-0.448-1-1v-3h0.003v-1.667c0-1.289 1.045-2.333 2.333-2.333h7.336z"></path>
<path d="M27.333 15.667v4.667c0 0.552 0.448 1 1 1s1-0.448 1-1v-4.667c0-1.289-1.045-2.333-2.333-2.333l-4.5-0.001c0.458 0.554 0.756 1.245 0.824 2.002l3.676-0c0.184 0 0.333 0.149 0.333 0.333z"></path>
<path d="M2.667 20.333c0 0.552 0.448 1 1 1s1-0.448 1-1v-4.667c0-0.184 0.149-0.333 0.333-0.333l3.684 0c0.068-0.757 0.366-1.448 0.824-2.002l-4.508 0.001c-1.289 0-2.333 1.045-2.333 2.333v4.667z"></path>
<path d="M16 4c2.209 0 4 1.791 4 4s-1.791 4-4 4c-2.209 0-4-1.791-4-4s1.791-4 4-4zM16 6c-1.105 0-2 0.895-2 2s0.895 2 2 2c1.105 0 2-0.895 2-2s-0.895-2-2-2z"></path>
<path d="M24.667 5.333c1.841 0 3.333 1.492 3.333 3.333s-1.492 3.333-3.333 3.333c-1.841 0-3.333-1.492-3.333-3.333s1.492-3.333 3.333-3.333zM24.667 7.333c-0.736 0-1.333 0.597-1.333 1.333s0.597 1.333 1.333 1.333c0.736 0 1.333-0.597 1.333-1.333s-0.597-1.333-1.333-1.333z"></path>
<path d="M7.333 5.333c1.841 0 3.333 1.492 3.333 3.333s-1.492 3.333-3.333 3.333c-1.841 0-3.333-1.492-3.333-3.333s1.492-3.333 3.333-3.333zM7.333 7.333c-0.736 0-1.333 0.597-1.333 1.333s0.597 1.333 1.333 1.333c0.736 0 1.333-0.597 1.333-1.333s-0.597-1.333-1.333-1.333z"></path>
<path d="M3.667 22.667c-0.552 0-1 0.448-1 1v0.667c0 2.761 2.239 5 5 5h16.667c2.761 0 5-2.239 5-5v-0.667c0-0.552-0.448-1-1-1h-24.667zM7.667 27.333c-1.544 0-2.816-1.167-2.982-2.667h22.63c-0.166 1.5-1.438 2.667-2.982 2.667h-16.667z"></path>
</svg>
