<!-- Generated by IcoMoon.io -->
<svg version="1.1" xmlns="http://www.w3.org/2000/svg" width="32" height="32" viewBox="0 0 32 32">
<title>people-settings</title>
<path d="M17.079 17.334l-11.746-0.002c-1.472 0-2.667 1.195-2.667 2.667v2.001l0.007 0.306c0.212 4.419 5.030 5.694 8.659 5.694 1.374 0 2.918-0.183 4.319-0.649-0.308-0.587-0.55-1.214-0.715-1.871-0.931 0.299-2.028 0.479-3.18 0.514l-0.423 0.007-0.423-0.007c-1.684-0.052-3.253-0.411-4.354-1.004-1.289-0.693-1.889-1.644-1.889-2.989v-2.001l0.013-0.135c0.034-0.166 0.124-0.279 0.181-0.337 0.059-0.058 0.172-0.148 0.338-0.181l0.134-0.013 10.31 0.001c0.383-0.735 0.868-1.407 1.436-2zM17.333 8.667c0-3.313-2.687-6-6-6s-6 2.687-6 6c0 3.313 2.687 6 6 6s6-2.687 6-6zM7.333 8.667c0-2.205 1.795-4 4-4s4 1.795 4 4c0 2.205-1.795 4-4 4s-4-1.795-4-4zM28 10c0-2.577-2.089-4.667-4.667-4.667s-4.667 2.089-4.667 4.667c0 2.577 2.089 4.667 4.667 4.667s4.667-2.089 4.667-4.667zM20.667 10c0-1.471 1.196-2.667 2.667-2.667s2.667 1.196 2.667 2.667c0 1.471-1.196 2.667-2.667 2.667s-2.667-1.196-2.667-2.667zM21.417 17.202l-0.665-0.7c-0.725 0.294-1.391 0.707-1.977 1.217l0.264 0.915c0.42 1.454-0.453 2.965-1.922 3.328l-0.779 0.193c-0.060 0.384-0.091 0.777-0.091 1.178 0 0.42 0.034 0.831 0.099 1.231l0.719 0.173c1.483 0.357 2.365 1.884 1.933 3.347l-0.248 0.842c0.585 0.514 1.253 0.932 1.979 1.229l0.658-0.692c1.051-1.106 2.814-1.105 3.865 0.001l0.665 0.7c0.725-0.294 1.391-0.707 1.977-1.217l-0.264-0.915c-0.42-1.454 0.453-2.965 1.922-3.328l0.778-0.193c0.060-0.384 0.091-0.777 0.091-1.178 0-0.42-0.034-0.831-0.1-1.231l-0.719-0.173c-1.483-0.357-2.365-1.884-1.933-3.347l0.248-0.841c-0.586-0.514-1.253-0.932-1.979-1.229l-0.657 0.691c-1.051 1.106-2.815 1.105-3.865-0.001zM21.402 23.333c0-1.105 0.865-2 1.933-2s1.933 0.895 1.933 2c0 1.105-0.865 2-1.933 2s-1.933-0.895-1.933-2z"></path>
</svg>
