<!-- Generated by IcoMoon.io -->
<svg version="1.1" xmlns="http://www.w3.org/2000/svg" width="32" height="32" viewBox="0 0 32 32">
<title>people-error</title>
<path d="M7.333 9.333c0-1.841 1.492-3.333 3.333-3.333s3.333 1.492 3.333 3.333v0c0 1.841-1.492 3.333-3.333 3.333s-3.333-1.492-3.333-3.333v0zM10.667 4c-2.946 0-5.333 2.388-5.333 5.333s2.388 5.333 5.333 5.333v0c2.946 0 5.333-2.388 5.333-5.333s-2.388-5.333-5.333-5.333v0zM20.667 10.667c0-1.105 0.895-2 2-2s2 0.895 2 2v0c0 1.105-0.895 2-2 2s-2-0.895-2-2v0zM22.667 6.667c-2.209 0-4 1.791-4 4s1.791 4 4 4v0c2.209 0 4-1.791 4-4s-1.791-4-4-4v0zM5.667 17.333c-1.657 0-3 1.343-3 3v0 0.371c0.002 0.1 0.008 0.196 0.020 0.291l-0.001-0.013c0.119 1.044 0.49 1.983 1.050 2.779l-0.013-0.019c1.091 1.557 3.173 2.925 6.944 2.925 1.825 0 3.255-0.32 4.368-0.827-0.191-0.61-0.319-1.316-0.356-2.046l-0.001-0.021c-0.86 0.507-2.127 0.893-4.011 0.893-3.229 0-4.648-1.133-5.307-2.073-0.358-0.511-0.603-1.127-0.682-1.793l-0.002-0.019c-0.003-0.026-0.007-0.063-0.009-0.099l-0-0.006v-0.343c0-0.552 0.448-1 1-1v0h9.976c0.332-0.636 0.74-1.225 1.212-1.756-0.349-0.154-0.756-0.244-1.183-0.244-0.002 0-0.003 0-0.005 0h-10zM30.667 23.333c0 4.050-3.283 7.333-7.333 7.333s-7.333-3.283-7.333-7.333v0c0-4.050 3.283-7.333 7.333-7.333s7.333 3.283 7.333 7.333v0zM23.333 18.667c-0.368 0-0.667 0.298-0.667 0.667v0 5.333c0 0.368 0.298 0.667 0.667 0.667s0.667-0.298 0.667-0.667v0-5.333c0-0.368-0.298-0.667-0.667-0.667v0zM23.333 28.167c0.46 0 0.833-0.373 0.833-0.833s-0.373-0.833-0.833-0.833v0c-0.46 0-0.833 0.373-0.833 0.833s0.373 0.833 0.833 0.833v0z"></path>
</svg>
