<!-- Generated by IcoMoon.io -->
<svg version="1.1" xmlns="http://www.w3.org/2000/svg" width="32" height="32" viewBox="0 0 32 32">
<title>people-team-regular</title>
<path d="M16 5c-1.105 0-2 0.895-2 2s0.895 2 2 2v0c1.105 0 2-0.895 2-2s-0.895-2-2-2v0zM12 7c0-2.209 1.791-4 4-4s4 1.791 4 4v0c0 2.209-1.791 4-4 4s-4-1.791-4-4v0zM25.5 6c-0.828 0-1.5 0.672-1.5 1.5s0.672 1.5 1.5 1.5v0c0.828 0 1.5-0.672 1.5-1.5s-0.672-1.5-1.5-1.5v0zM22 7.5c0-1.933 1.567-3.5 3.5-3.5s3.5 1.567 3.5 3.5v0c0 1.933-1.567 3.5-3.5 3.5s-3.5-1.567-3.5-3.5v0zM5 7.5c0-0.828 0.672-1.5 1.5-1.5s1.5 0.672 1.5 1.5v0c0 0.828-0.672 1.5-1.5 1.5s-1.5-0.672-1.5-1.5v0zM6.5 4c-1.933 0-3.5 1.567-3.5 3.5s1.567 3.5 3.5 3.5v0c1.933 0 3.5-1.567 3.5-3.5s-1.567-3.5-3.5-3.5v0zM8.651 24.505c-0.465 0.31-1.036 0.495-1.651 0.495-1.657 0-3-1.343-3-3 0-0 0-0 0-0v0-6.5c0-0.276 0.224-0.5 0.5-0.5v0h4.031c0.098-0.767 0.401-1.449 0.852-2.008l-0.006 0.008h-4.877c-1.381 0-2.5 1.119-2.5 2.5v0 6.5c0 0 0 0.001 0 0.002 0 2.761 2.239 5 5 5 0.851 0 1.652-0.213 2.354-0.588l-0.027 0.013c-0.292-0.554-0.526-1.197-0.668-1.874l-0.008-0.048zM22.673 26.427c0.675 0.362 1.476 0.575 2.327 0.575 2.761 0 5-2.239 5-5 0-0.001 0-0.001 0-0.002v0-6.5c0-1.381-1.119-2.5-2.5-2.5v0h-4.877c0.445 0.551 0.747 1.233 0.844 1.98l0.002 0.020h4.031c0.276 0 0.5 0.224 0.5 0.5v0 6.5c0 0 0 0 0 0 0 1.657-1.343 3-3 3-0.615 0-1.186-0.185-1.662-0.502l0.011 0.007c-0.15 0.725-0.384 1.368-0.696 1.963l0.020-0.041zM12.5 13c-1.381 0-2.5 1.119-2.5 2.5v0 7.5c0 3.314 2.686 6 6 6s6-2.686 6-6v0-7.5c0-1.381-1.119-2.5-2.5-2.5v0h-7zM12 15.5c0-0.276 0.224-0.5 0.5-0.5v0h7c0.276 0 0.5 0.224 0.5 0.5v0 7.5c0 2.209-1.791 4-4 4s-4-1.791-4-4v0-7.5z"></path>
</svg>
