<!-- Generated by IcoMoon.io -->
<svg version="1.1" xmlns="http://www.w3.org/2000/svg" width="32" height="32" viewBox="0 0 32 32">
<title>people-settings-regular</title>
<path d="M10.857 4.571c-2.84 0-5.143 2.303-5.143 5.143s2.303 5.143 5.143 5.143v0c2.84 0 5.143-2.303 5.143-5.143s-2.303-5.143-5.143-5.143v0zM7.429 9.714c0-1.894 1.535-3.429 3.429-3.429s3.429 1.535 3.429 3.429v0c0 1.894-1.535 3.429-3.429 3.429s-3.429-1.535-3.429-3.429v0zM22.857 6.857c-2.209 0-4 1.791-4 4s1.791 4 4 4v0c2.209 0 4-1.791 4-4s-1.791-4-4-4v0zM20.571 10.857c0-1.262 1.023-2.286 2.286-2.286s2.286 1.023 2.286 2.286v0c0 1.262-1.023 2.286-2.286 2.286s-2.286-1.023-2.286-2.286v0zM4.857 17.143c-1.42 0-2.571 1.151-2.571 2.571v0 0.607c0.002 0.099 0.009 0.195 0.021 0.289l-0.001-0.013c0.019 0.175 0.056 0.415 0.126 0.699 0.204 0.793 0.546 1.487 1.002 2.089l-0.011-0.015c1.159 1.546 3.369 2.914 7.435 2.914 1.75 0 3.157-0.254 4.282-0.665-0.14-0.51-0.236-1.103-0.269-1.713l-0.001-0.021c-0.955 0.406-2.251 0.686-4.013 0.686-3.648 0-5.295-1.203-6.064-2.229-0.314-0.414-0.554-0.903-0.691-1.433l-0.006-0.028c-0.044-0.168-0.078-0.366-0.094-0.568l-0.001-0.012-0.001-0.021v-0.566c0-0.473 0.384-0.857 0.857-0.857v0h11.32c0.393-0.617 0.834-1.151 1.332-1.627l0.003-0.003c-0.196-0.054-0.422-0.085-0.655-0.085-0 0-0 0-0 0h-12zM19.195 19.083c0.057 0.19 0.090 0.409 0.090 0.635 0 1.067-0.732 1.964-1.721 2.215l-0.016 0.003-1.17 0.289c-0.059 0.361-0.093 0.777-0.093 1.201 0 0.444 0.037 0.88 0.109 1.304l-0.006-0.046 1.115 0.269c1.012 0.25 1.75 1.15 1.75 2.222 0 0.23-0.034 0.453-0.098 0.663l0.004-0.016-0.37 1.255c0.592 0.526 1.269 0.954 2.003 1.257l0.963-1.013c0.417-0.438 1.005-0.711 1.657-0.711s1.239 0.273 1.656 0.71l0.001 0.001 0.971 1.023c0.769-0.321 1.431-0.74 2.009-1.252l-0.007 0.006-0.383-1.326c-0.057-0.19-0.089-0.407-0.089-0.633 0-1.067 0.731-1.964 1.72-2.215l0.016-0.003 1.173-0.29c0.059-0.361 0.093-0.777 0.093-1.201 0-0.444-0.037-0.88-0.109-1.304l0.006 0.046-1.117-0.269c-1.012-0.25-1.75-1.15-1.75-2.222 0-0.23 0.034-0.453 0.098-0.663l-0.004 0.016 0.37-1.257c-0.571-0.51-1.233-0.933-1.957-1.24l-0.047-0.017-0.963 1.015c-0.417 0.439-1.005 0.711-1.657 0.711s-1.24-0.273-1.656-0.71l-0.001-0.001-0.97-1.023c-0.77 0.32-1.432 0.74-2.010 1.252l0.007-0.006 0.383 1.326zM23.429 25.143c-0.947 0-1.714-0.767-1.714-1.714s0.767-1.714 1.714-1.714v0c0.947 0 1.714 0.767 1.714 1.714s-0.767 1.714-1.714 1.714v0z"></path>
</svg>
