<!-- Generated by IcoMoon.io -->
<svg version="1.1" xmlns="http://www.w3.org/2000/svg" width="32" height="32" viewBox="0 0 32 32">
<title>person-lock</title>
<path d="M18.667 18.667h-12.996c-0 0-0.001 0-0.001 0-1.656 0-2.999 1.343-2.999 2.999 0 0 0 0.001 0 0.001v-0 0.769c0 1.189 0.427 2.341 1.2 3.247 2.087 2.445 5.268 3.653 9.463 3.653 0.953 0 1.853-0.063 2.701-0.188-0.022-0.144-0.035-0.311-0.035-0.48v-1.539c-0.819 0.137-1.707 0.205-2.667 0.205-3.651 0-6.272-0.993-7.943-2.951-0.447-0.52-0.72-1.202-0.72-1.948v-0.771c0-0.551 0.448-0.999 1-0.999h10.607c0.438-0.985 1.311-1.707 2.368-1.93l0.022-0.004v-0.067zM13.333 2.673c3.682 0 6.667 2.985 6.667 6.667s-2.985 6.667-6.667 6.667v0c-3.682 0-6.667-2.985-6.667-6.667s2.985-6.667 6.667-6.667v0zM13.333 4.673c-2.577 0-4.667 2.089-4.667 4.667s2.089 4.667 4.667 4.667v0c2.577 0 4.667-2.089 4.667-4.667s-2.089-4.667-4.667-4.667v0zM20 20h-0.667c-1.105 0-2 0.895-2 2v0 6.667c0 1.105 0.895 2 2 2v0h8c1.105 0 2-0.895 2-2v0-6.667c0-1.105-0.895-2-2-2v0h-0.667v-1.333c0-1.841-1.492-3.333-3.333-3.333s-3.333 1.492-3.333 3.333v0 1.333zM22 18.667c0-0.736 0.597-1.333 1.333-1.333s1.333 0.597 1.333 1.333v0 1.333h-2.667v-1.333zM24.667 25.333c0 0.736-0.597 1.333-1.333 1.333s-1.333-0.597-1.333-1.333v0c0-0.736 0.597-1.333 1.333-1.333s1.333 0.597 1.333 1.333v0z"></path>
</svg>
