<!-- Generated by IcoMoon.io -->
<svg version="1.1" xmlns="http://www.w3.org/2000/svg" width="32" height="32" viewBox="0 0 32 32">
<title>person-accounts</title>
<path d="M13.5 18.66c-0.457 0.554-0.755 1.244-0.824 2.001l-7.012-0c-0.551 0-0.998 0.447-0.998 0.999v0.77c0 0.714 0.255 1.405 0.719 1.948 1.57 1.838 3.978 2.827 7.292 2.94 0.066 0.76 0.364 1.454 0.824 2.010l-0.172 0.001c-4.194 0-7.376-1.207-9.464-3.653-0.773-0.905-1.198-2.057-1.198-3.247v-0.77c0-1.587 1.233-2.886 2.793-2.992l0.205-0.007 7.835-0zM19.662 15.327h4c0.863 0 1.573 0.656 1.658 1.496l0.009 0.17-0.001 1.666 1.667 0.001c1.289 0 2.333 1.045 2.333 2.333v6c0 1.289-1.045 2.333-2.333 2.333h-10.667c-1.289 0-2.333-1.045-2.333-2.333v-6c0-1.289 1.045-2.333 2.333-2.333l1.666-0.001 0.001-1.666c0-0.863 0.656-1.573 1.496-1.658l0.17-0.009zM26.995 20.661h-10.667c-0.184 0-0.333 0.149-0.333 0.333v6c0 0.184 0.149 0.333 0.333 0.333h10.667c0.184 0 0.333-0.149 0.333-0.333v-6c0-0.184-0.149-0.333-0.333-0.333zM23.329 17.327h-3.333l-0.001 1.333h3.333l0.001-1.333zM13.329 2.667c3.682 0 6.667 2.985 6.667 6.667s-2.985 6.667-6.667 6.667c-3.682 0-6.667-2.985-6.667-6.667s2.985-6.667 6.667-6.667zM13.329 4.667c-2.577 0-4.667 2.089-4.667 4.667s2.089 4.667 4.667 4.667c2.577 0 4.667-2.089 4.667-4.667s-2.089-4.667-4.667-4.667z"></path>
</svg>
