<!-- Generated by IcoMoon.io -->
<svg version="1.1" xmlns="http://www.w3.org/2000/svg" width="32" height="32" viewBox="0 0 32 32">
<title>person-voice</title>
<path d="M19.672 20c1.656 0 2.998 1.343 2.998 2.999v0.767c0 1.192-0.426 2.345-1.201 3.251-2.093 2.445-5.275 3.651-9.469 3.651s-7.376-1.207-9.464-3.653c-0.773-0.905-1.198-2.057-1.198-3.247v-0.77c0-1.656 1.342-2.999 2.998-2.999h15.336zM19.672 22h-15.336c-0.551 0-0.998 0.447-0.998 0.999v0.77c0 0.714 0.255 1.405 0.719 1.948 1.671 1.957 4.292 2.951 7.943 2.951s6.275-0.994 7.95-2.952c0.465-0.543 0.721-1.235 0.721-1.951v-0.767c0-0.551-0.447-0.999-0.998-0.999zM25.405 1.872c0.48-0.274 1.090-0.107 1.364 0.372 1.454 2.545 2.23 5.429 2.23 8.423 0 3.005-0.781 5.898-2.245 8.449-0.275 0.479-0.886 0.645-1.365 0.37s-0.645-0.886-0.37-1.365c1.291-2.25 1.98-4.8 1.98-7.453 0-2.644-0.684-5.186-1.967-7.431-0.274-0.479-0.107-1.090 0.372-1.364zM12 4.006c3.682 0 6.667 2.985 6.667 6.667s-2.985 6.667-6.667 6.667c-3.682 0-6.667-2.985-6.667-6.667s2.985-6.667 6.667-6.667zM20.785 4.533c0.48-0.273 1.091-0.105 1.364 0.375 0.99 1.741 1.518 3.713 1.518 5.759 0 2.051-0.531 4.027-1.525 5.771-0.273 0.48-0.884 0.647-1.364 0.373s-0.647-0.884-0.373-1.364c0.823-1.444 1.263-3.079 1.263-4.78 0-1.697-0.437-3.329-1.257-4.771-0.273-0.48-0.105-1.091 0.375-1.364zM12 6.006c-2.577 0-4.667 2.089-4.667 4.667s2.089 4.667 4.667 4.667c2.577 0 4.667-2.089 4.667-4.667s-2.089-4.667-4.667-4.667z"></path>
</svg>
