<!-- Generated by IcoMoon.io -->
<svg version="1.1" xmlns="http://www.w3.org/2000/svg" width="32" height="32" viewBox="0 0 32 32">
<title>person-mail</title>
<path d="M14.667 20.667c0-0.75 0.248-1.443 0.666-2h-8.33c-1.656 0-2.998 1.342-2.998 2.999v0.77c0 1.19 0.425 2.342 1.198 3.247 2.088 2.446 5.27 3.653 9.464 3.653h0.067c-0.044-0.216-0.067-0.439-0.067-0.668v-1.332c-3.651 0-6.272-0.994-7.943-2.951-0.464-0.543-0.719-1.234-0.719-1.948v-0.77c0-0.551 0.447-0.999 0.998-0.999h7.663z"></path>
<path d="M14.667 2.673c3.682 0 6.667 2.985 6.667 6.667s-2.985 6.667-6.667 6.667c-3.682 0-6.667-2.985-6.667-6.667s2.985-6.667 6.667-6.667zM14.667 4.673c-2.577 0-4.667 2.089-4.667 4.667s2.089 4.667 4.667 4.667c2.577 0 4.667-2.089 4.667-4.667s-2.089-4.667-4.667-4.667z"></path>
<path d="M23.346 25.236l-7.321-4.271c0.179-1.299 1.294-2.299 2.641-2.299h9.333c1.46 0 2.645 1.173 2.666 2.628l-7.32 3.942z"></path>
<path d="M23.649 26.587l7.017-3.779v5.191c0 1.473-1.194 2.667-2.667 2.667h-9.333c-1.473 0-2.667-1.194-2.667-2.667v-5.506l6.997 4.082c0.201 0.117 0.447 0.121 0.652 0.011z"></path>
</svg>
