<!-- Generated by IcoMoon.io -->
<svg version="1.1" xmlns="http://www.w3.org/2000/svg" width="32" height="32" viewBox="0 0 32 32">
<title>person-clock</title>
<path d="M15.085 20.667c0.23-0.711 0.549-1.382 0.945-2h-10.359c-1.656 0-2.998 1.342-2.998 2.999v0.77c0 1.19 0.425 2.342 1.198 3.247 2.088 2.446 5.27 3.653 9.464 3.653 1.241 0 2.394-0.106 3.456-0.318-0.479-0.551-0.889-1.163-1.218-1.823-0.698 0.094-1.444 0.141-2.238 0.141-3.651 0-6.272-0.994-7.943-2.951-0.464-0.543-0.719-1.234-0.719-1.948v-0.77c0-0.551 0.447-0.999 0.998-0.999h9.414z"></path>
<path d="M13.334 2.673c3.682 0 6.667 2.985 6.667 6.667s-2.985 6.667-6.667 6.667c-3.682 0-6.667-2.985-6.667-6.667s2.985-6.667 6.667-6.667zM13.334 4.673c-2.577 0-4.667 2.089-4.667 4.667s2.089 4.667 4.667 4.667c2.577 0 4.667-2.089 4.667-4.667s-2.089-4.667-4.667-4.667z"></path>
<path d="M23.333 16c4.050 0 7.333 3.283 7.333 7.333s-3.283 7.333-7.333 7.333-7.333-3.283-7.333-7.333c0-4.050 3.283-7.333 7.333-7.333zM26 23.334h-2.667v-3.333c0-0.368-0.299-0.667-0.667-0.667s-0.667 0.298-0.667 0.667v4c0 0.368 0.299 0.667 0.667 0.667h3.333c0.368 0 0.667-0.299 0.667-0.667s-0.299-0.667-0.667-0.667z"></path>
</svg>
