<!-- Generated by IcoMoon.io -->
<svg version="1.1" xmlns="http://www.w3.org/2000/svg" width="32" height="32" viewBox="0 0 32 32">
<title>person-circle</title>
<path d="M22.667 18c0-1.105-0.895-2-2-2h-9.333c-1.105 0-2 0.895-2 2v0.667c0 2.629 2.479 5.333 6.667 5.333s6.667-2.705 6.667-5.333v-0.667zM19.667 11c0-2.025-1.642-3.667-3.667-3.667s-3.667 1.642-3.667 3.667c0 2.025 1.642 3.667 3.667 3.667s3.667-1.642 3.667-3.667zM29.333 16c0 7.364-5.97 13.333-13.333 13.333s-13.333-5.97-13.333-13.333c0-7.364 5.97-13.333 13.333-13.333s13.333 5.97 13.333 13.333zM27.333 16c0-6.259-5.074-11.333-11.333-11.333s-11.333 5.074-11.333 11.333c0 6.259 5.074 11.333 11.333 11.333s11.333-5.074 11.333-11.333z"></path>
</svg>
