<!-- Generated by IcoMoon.io -->
<svg version="1.1" xmlns="http://www.w3.org/2000/svg" width="32" height="32" viewBox="0 0 32 32">
<title>person-arrow-left</title>
<path d="M23.333 16c4.050 0 7.333 3.283 7.333 7.333s-3.283 7.333-7.333 7.333c-4.050 0-7.333-3.283-7.333-7.333s3.283-7.333 7.333-7.333zM16.030 18.665c-0.396 0.618-0.715 1.289-0.945 2l-9.413 0c-0.552 0-1 0.448-1 1v1.21c0 0.874 0.381 1.705 1.044 2.275 1.677 1.442 4.205 2.184 7.618 2.184 0.799 0 1.549-0.041 2.251-0.121 0.332 0.667 0.75 1.285 1.239 1.841-1.070 0.188-2.233 0.281-3.489 0.281-3.853 0-6.838-0.875-8.922-2.667-1.105-0.95-1.74-2.334-1.74-3.791v-1.21c0-1.657 1.343-3 3-3l10.358-0.001zM22.292 19.451l-0.092 0.077-3.354 3.355-0.054 0.068-0.046 0.077-0.043 0.104-0.015 0.058-0.015 0.115 0.005 0.117 0.025 0.114 0.043 0.104 0.033 0.057 0.068 0.088 3.354 3.355c0.26 0.26 0.682 0.26 0.943 0 0.231-0.231 0.257-0.591 0.077-0.85l-0.077-0.092-2.195-2.195h6.385c0.327 0 0.599-0.236 0.656-0.547l0.011-0.12c0-0.327-0.236-0.599-0.547-0.656l-0.12-0.011h-6.385l2.195-2.195c0.231-0.231 0.257-0.591 0.077-0.85l-0.077-0.092c-0.231-0.231-0.591-0.257-0.851-0.077zM13.333 2.673c3.682 0 6.667 2.985 6.667 6.667s-2.985 6.667-6.667 6.667c-3.682 0-6.667-2.985-6.667-6.667s2.985-6.667 6.667-6.667zM13.333 4.673c-2.577 0-4.667 2.089-4.667 4.667s2.089 4.667 4.667 4.667c2.577 0 4.667-2.089 4.667-4.667s-2.089-4.667-4.667-4.667z"></path>
</svg>
