<!-- Generated by IcoMoon.io -->
<svg version="1.1" xmlns="http://www.w3.org/2000/svg" width="32" height="32" viewBox="0 0 32 32">
<title>person-subtract-regular</title>
<path d="M16 3.2c-3.535 0-6.4 2.865-6.4 6.4s2.865 6.4 6.4 6.4v0c3.535 0 6.4-2.865 6.4-6.4s-2.865-6.4-6.4-6.4v0zM11.2 9.6c0-2.651 2.149-4.8 4.8-4.8s4.8 2.149 4.8 4.8v0c0 2.651-2.149 4.8-4.8 4.8s-4.8-2.149-4.8-4.8v0zM8.014 17.6c-0.004-0-0.008-0-0.013-0-1.768 0-3.201 1.433-3.202 3.2v0c0 2.706 1.333 4.746 3.416 6.075 2.051 1.307 4.816 1.925 7.784 1.925 0.136 0 0.272 0 0.408-0.005-0.389-0.469-0.74-0.995-1.031-1.557l-0.023-0.049c-2.507-0.083-4.699-0.656-6.277-1.664-1.68-1.072-2.677-2.629-2.677-4.725 0-0.885 0.717-1.6 1.614-1.6h7.344c0.294-0.573 0.648-1.109 1.053-1.6h-8.395zM30.4 23.2c0 3.976-3.224 7.2-7.2 7.2s-7.2-3.224-7.2-7.2v0c0-3.976 3.224-7.2 7.2-7.2s7.2 3.224 7.2 7.2v0zM19.2 23.2c0 0.442 0.358 0.8 0.8 0.8v0h6.4c0.442 0 0.8-0.358 0.8-0.8s-0.358-0.8-0.8-0.8v0h-6.4c-0.442 0-0.8 0.358-0.8 0.8v0z"></path>
</svg>
