<!-- Generated by IcoMoon.io -->
<svg version="1.1" xmlns="http://www.w3.org/2000/svg" width="32" height="32" viewBox="0 0 32 32">
<title>person-link</title>
<path d="M16 2.667c-3.682 0-6.667 2.985-6.667 6.667s2.985 6.667 6.667 6.667 6.667-2.985 6.667-6.667-2.985-6.667-6.667-6.667zM11 9.333c0-2.761 2.239-5 5-5s5 2.239 5 5v0c0 2.761-2.239 5-5 5s-5-2.239-5-5v0zM8.167 18.667c-1.565 0-2.833 1.268-2.833 2.833v0.501c0 2.503 1.295 4.378 3.28 5.587 1.819 1.107 4.22 1.667 6.81 1.739-0.29-0.489-0.513-1.058-0.638-1.662l-0.006-0.036c-2.11-0.139-3.947-0.641-5.299-1.464-1.573-0.958-2.48-2.333-2.48-4.163v-0.501c0-0.644 0.523-1.166 1.167-1.166h15.667c0 0 0 0 0.001 0 0.463 0 0.862 0.269 1.051 0.66l0.003 0.007h1.735c-0.246-1.335-1.401-2.333-2.789-2.333-0 0-0 0-0 0h-15.667zM16 26.5c0-2.301 1.865-4.167 4.167-4.167v0h1c0.46 0 0.833 0.373 0.833 0.833s-0.373 0.833-0.833 0.833v0h-1c-1.381 0-2.5 1.119-2.5 2.5s1.119 2.5 2.5 2.5v0h1c0.46 0 0.833 0.373 0.833 0.833s-0.373 0.833-0.833 0.833v0h-1c-2.301 0-4.167-1.865-4.167-4.167v0zM30.667 26.5c0-2.301-1.865-4.167-4.167-4.167v0h-1c-0.46 0-0.833 0.373-0.833 0.833s0.373 0.833 0.833 0.833v0h1c1.381 0 2.5 1.119 2.5 2.5s-1.119 2.5-2.5 2.5v0h-1c-0.46 0-0.833 0.373-0.833 0.833s0.373 0.833 0.833 0.833v0h1c2.301 0 4.167-1.865 4.167-4.167v0zM19.333 26.5c0-0.46 0.373-0.833 0.833-0.833h6.333c0.46 0 0.833 0.373 0.833 0.833s-0.373 0.833-0.833 0.833v0h-6.333c-0.46 0-0.833-0.373-0.833-0.833z"></path>
</svg>
