<!-- Generated by IcoMoon.io -->
<svg version="1.1" xmlns="http://www.w3.org/2000/svg" width="32" height="32" viewBox="0 0 32 32">
<title>person-heart</title>
<path d="M13.48 20.667c0.070-0.739 0.264-1.417 0.562-2.036l-0.015 0.036h-8.355c-0 0-0.001 0-0.001 0-1.656 0-2.998 1.342-2.999 2.997v0.771c0 1.189 0.427 2.341 1.2 3.247 2.084 2.445 5.265 3.652 9.461 3.652 1.884 0 3.564-0.244 5.032-0.733l-1.62-1.62c-1.017 0.235-2.153 0.352-3.412 0.352-3.651 0-6.272-0.993-7.943-2.951-0.447-0.52-0.72-1.202-0.72-1.948v-0.771c0-0.552 0.448-0.999 1-0.999h7.808zM13.333 2.671c3.682 0 6.667 2.985 6.667 6.667s-2.985 6.667-6.667 6.667v0c-3.682 0-6.667-2.985-6.667-6.667s2.985-6.667 6.667-6.667v0zM13.333 4.671c-2.577 0-4.667 2.089-4.667 4.667s2.089 4.667 4.667 4.667v0c2.577 0 4.667-2.089 4.667-4.667s-2.089-4.667-4.667-4.667v0zM22.725 30.66c-0 0-0 0-0.001 0-0.276 0-0.526-0.112-0.706-0.293l-5.879-5.877c-0.826-0.835-1.335-1.983-1.335-3.25 0-2.553 2.070-4.623 4.623-4.623 1.267 0 2.416 0.51 3.251 1.336l0.048 0.048 0.048-0.048c0.835-0.826 1.983-1.335 3.25-1.335 2.553 0 4.623 2.070 4.623 4.623 0 1.267-0.51 2.416-1.336 3.251l-5.878 5.877c-0.18 0.181-0.43 0.293-0.706 0.293-0 0-0.001 0-0.001 0h0z"></path>
</svg>
