<!-- Generated by IcoMoon.io -->
<svg version="1.1" xmlns="http://www.w3.org/2000/svg" width="32" height="32" viewBox="0 0 32 32">
<title>person-swap</title>
<path d="M21.001 18.663c1.307 0 2.419 0.837 2.83 2.004h-2.741c-0.029-0.003-0.059-0.004-0.089-0.004h-15.336c-0.551 0-0.998 0.447-0.998 0.999v0.77c0 0.714 0.255 1.405 0.719 1.948 1.671 1.957 4.292 2.951 7.943 2.951 0.075 0 0.149-0 0.223-0.001 0.114 0.245 0.271 0.47 0.466 0.664l1.246 1.244c-0.619 0.062-1.264 0.093-1.935 0.093-4.194 0-7.376-1.207-9.464-3.653-0.773-0.905-1.198-2.057-1.198-3.247v-0.77c0-1.656 1.342-2.999 2.998-2.999h15.336z"></path>
<path d="M13.329 2.669c3.682 0 6.667 2.985 6.667 6.667s-2.985 6.667-6.667 6.667c-3.682 0-6.667-2.985-6.667-6.667s2.985-6.667 6.667-6.667zM13.329 4.669c-2.577 0-4.667 2.089-4.667 4.667s2.089 4.667 4.667 4.667c2.577 0 4.667-2.089 4.667-4.667s-2.089-4.667-4.667-4.667z"></path>
<path d="M19.707 23.711c0.39-0.391 0.39-1.024-0-1.414s-1.024-0.39-1.414 0l-3.333 3.335c-0.187 0.188-0.293 0.442-0.293 0.707s0.105 0.519 0.293 0.707l3.333 3.332c0.391 0.39 1.024 0.39 1.414-0s0.39-1.024-0-1.414l-1.627-1.626h9.173l-1.627 1.626c-0.391 0.39-0.391 1.024-0 1.414s1.023 0.391 1.414 0l3.333-3.331c0.188-0.187 0.293-0.442 0.293-0.707s-0.105-0.52-0.293-0.707l-3.333-3.335c-0.39-0.391-1.024-0.391-1.414-0.001s-0.391 1.024-0 1.414l1.625 1.626h-9.17l1.626-1.626z"></path>
</svg>
