<!-- Generated by IcoMoon.io -->
<svg version="1.1" xmlns="http://www.w3.org/2000/svg" width="32" height="32" viewBox="0 0 32 32">
<title>person-arrow-right</title>
<path d="M15.084 20.667c0.25-0.763 0.571-1.425 0.966-2.034l-0.020 0.034h-10.36c-1.656 0-2.999 1.343-2.999 2.999 0 0 0 0.001 0 0.001v-0 0.769c0 1.189 0.425 2.341 1.199 3.247 2.088 2.445 5.269 3.653 9.464 3.653 1.241 0 2.395-0.107 3.456-0.32-0.462-0.529-0.867-1.127-1.195-1.772l-0.023-0.049c-0.699 0.093-1.444 0.14-2.24 0.14-3.649 0-6.271-0.993-7.943-2.951-0.447-0.521-0.719-1.203-0.719-1.948v0-0.771c0-0.551 0.448-0.999 1-0.999h9.413zM13.333 2.673c3.682 0 6.667 2.985 6.667 6.667s-2.985 6.667-6.667 6.667v0c-3.682 0-6.667-2.985-6.667-6.667s2.985-6.667 6.667-6.667v0zM13.333 4.673c-2.577 0-4.667 2.089-4.667 4.667s2.089 4.667 4.667 4.667v0c2.577 0 4.667-2.089 4.667-4.667s-2.089-4.667-4.667-4.667v0zM30.667 23.333c0 4.050-3.283 7.333-7.333 7.333s-7.333-3.283-7.333-7.333v0c0-4.050 3.283-7.333 7.333-7.333s7.333 3.283 7.333 7.333v0zM24.471 19.529c-0.12-0.116-0.283-0.187-0.463-0.187-0.368 0-0.667 0.298-0.667 0.667 0 0.18 0.071 0.343 0.187 0.463l2.196 2.194h-5.724c-0.368 0-0.667 0.298-0.667 0.667s0.298 0.667 0.667 0.667v0h5.724l-2.196 2.196c-0.116 0.12-0.187 0.283-0.187 0.463 0 0.368 0.298 0.667 0.667 0.667 0.18 0 0.343-0.071 0.463-0.187l3.333-3.333c0.119-0.118 0.193-0.28 0.196-0.459v-0.013c0-0 0-0.001 0-0.001 0-0.186-0.077-0.354-0.2-0.475l-3.329-3.328z"></path>
</svg>
