<!-- Generated by IcoMoon.io -->
<svg version="1.1" xmlns="http://www.w3.org/2000/svg" width="32" height="32" viewBox="0 0 32 32">
<title>person-running</title>
<path d="M21.6 9.6c-1.325 0-2.4-1.075-2.4-2.4s1.075-2.4 2.4-2.4v0c1.325 0 2.4 1.075 2.4 2.4s-1.075 2.4-2.4 2.4v0zM23.722 10.592c1.135-0.719 1.878-1.968 1.878-3.391 0-2.209-1.791-4-4-4s-3.999 1.79-4 3.999v0h-4.8c-2.209 0-4 1.791-4 4v0 2.8c0 1.101 0.635 2.053 1.558 2.51l-1.090 1.090h-4.869c-1.546 0-2.8 1.254-2.8 2.8s1.254 2.8 2.8 2.8v0h4.698c1.019 0 2.010-0.331 2.824-0.941l1.603-1.203 2.475 2.475v2.469c0 1.546 1.254 2.8 2.8 2.8s2.8-1.254 2.8-2.8v0-5.2c0-0 0-0.001 0-0.001 0-0.221-0.089-0.42-0.234-0.565l-2.635-2.634 1.269-1.269 0.155 0.155c0.714 0.714 1.68 1.114 2.688 1.114h4.757c1.546 0 2.8-1.254 2.8-2.8s-1.254-2.8-2.8-2.8v0h-2.469l-1.408-1.408zM22.045 11.176l2.189 2.19c0.145 0.144 0.344 0.234 0.565 0.234 0 0 0.001 0 0.002 0h2.8c0.663 0 1.2 0.537 1.2 1.2s-0.537 1.2-1.2 1.2v0h-4.757c-0.584 0-1.144-0.232-1.557-0.645l-0.72-0.72c-0.145-0.145-0.345-0.235-0.566-0.235s-0.422 0.090-0.566 0.235l-2.4 2.4c-0.145 0.145-0.234 0.345-0.234 0.566s0.090 0.421 0.234 0.566l2.966 2.965v4.869c0 0.663-0.537 1.2-1.2 1.2s-1.2-0.537-1.2-1.2v0-2.8c0-0 0-0.001 0-0.001 0-0.221-0.089-0.42-0.234-0.565l-3.2-3.2c-0.145-0.145-0.345-0.234-0.566-0.234-0.181 0-0.349 0.060-0.483 0.162l0.002-0.001-2.158 1.619c-0.513 0.388-1.161 0.621-1.863 0.621-0 0-0 0-0.001 0h-4.698c-0.663 0-1.2-0.537-1.2-1.2s0.537-1.2 1.2-1.2v0h5.2c0 0 0.001 0 0.001 0 0.221 0 0.42-0.089 0.565-0.234l2.302-2.304c1.131-0.377 1.931-1.426 1.931-2.662 0-0 0-0 0-0.001v0-1.2h1.6c0.442 0 0.8-0.358 0.8-0.8s-0.358-0.8-0.8-0.8v0h-2.4c-0.442 0-0.8 0.358-0.8 0.8v0 2c0 0.663-0.537 1.2-1.2 1.2s-1.2-0.537-1.2-1.2v0-2.8c0-1.325 1.075-2.4 2.4-2.4v0h5.133c0.633 1.425 2.036 2.401 3.666 2.401 0.157 0 0.312-0.009 0.464-0.027l-0.019 0.002z"></path>
</svg>
