<!-- Generated by IcoMoon.io -->
<svg version="1.1" xmlns="http://www.w3.org/2000/svg" width="32" height="32" viewBox="0 0 32 32">
<title>person-available</title>
<path d="M23.333 16c4.050 0 7.333 3.283 7.333 7.333s-3.283 7.333-7.333 7.333c-4.050 0-7.333-3.283-7.333-7.333s3.283-7.333 7.333-7.333zM19.805 22.862c-0.26-0.26-0.683-0.26-0.943 0s-0.26 0.683 0 0.943l2.667 2.667c0.26 0.26 0.682 0.26 0.943 0l5.333-5.333c0.26-0.26 0.26-0.682 0-0.943s-0.683-0.26-0.943 0l-4.862 4.862-2.195-2.195zM16.030 18.665c-0.396 0.618-0.715 1.289-0.945 2l-9.415 0c-0.551 0-0.998 0.447-0.998 0.999v0.77c0 0.714 0.255 1.405 0.719 1.948 1.671 1.957 4.292 2.951 7.943 2.951 0.795 0 1.542-0.047 2.24-0.141 0.327 0.66 0.737 1.271 1.215 1.822-1.061 0.214-2.214 0.319-3.456 0.319-4.194 0-7.376-1.207-9.464-3.653-0.773-0.905-1.198-2.057-1.198-3.247v-0.77c0-1.656 1.342-2.999 2.998-2.999l10.36-0.001zM13.333 2.673c3.682 0 6.667 2.985 6.667 6.667s-2.985 6.667-6.667 6.667c-3.682 0-6.667-2.985-6.667-6.667s2.985-6.667 6.667-6.667zM13.333 4.673c-2.577 0-4.667 2.089-4.667 4.667s2.089 4.667 4.667 4.667c2.577 0 4.667-2.089 4.667-4.667s-2.089-4.667-4.667-4.667z"></path>
</svg>
