<!-- Generated by IcoMoon.io -->
<svg version="1.1" xmlns="http://www.w3.org/2000/svg" width="32" height="32" viewBox="0 0 32 32">
<title>person-5-regular</title>
<path d="M23 9c0 3.866-3.134 7-7 7s-7-3.134-7-7v0c0-3.866 3.134-7 7-7s7 3.134 7 7v0zM21 9c0-2.761-2.239-5-5-5s-5 2.239-5 5v0c0 2.761 2.239 5 5 5s5-2.239 5-5v0zM6 21.5c0-0.828 0.672-1.5 1.5-1.5v0h12.048l0.19-2h-12.238c-1.933 0-3.5 1.567-3.5 3.5v0 0.5c0 2.394 1.523 4.418 3.685 5.794 2.174 1.383 5.117 2.206 8.315 2.206 1.142 0 2.251-0.105 3.305-0.303-0.192-0.346-0.305-0.759-0.305-1.198 0-0.288 0.049-0.566 0.138-0.823l-0.005 0.018c-0.982 0.198-2.033 0.307-3.133 0.307-2.877 0-5.434-0.744-7.241-1.894-1.82-1.156-2.759-2.633-2.759-4.106v-0.5zM22.25 17c-0.519 0-0.945 0.395-0.995 0.901l-0 0.004-0.5 5.25c-0.003 0.029-0.005 0.062-0.005 0.095 0 0.552 0.448 1 1 1 0.047 0 0.094-0.003 0.14-0.010l-0.005 0.001 3.16-0.429c0.106-0.015 0.228-0.024 0.353-0.024 1.439 0 2.606 1.167 2.606 2.606s-1.167 2.606-2.606 2.606c-0.001 0-0.002 0-0.003 0h-0.617c-0 0-0 0-0 0-0.842 0-1.608-0.323-2.182-0.851l0.002 0.002-0.422-0.388c-0.177-0.163-0.415-0.263-0.676-0.263-0.552 0-1 0.448-1 1 0 0.291 0.125 0.554 0.323 0.736l0.001 0.001 0.422 0.388c0.926 0.852 2.168 1.375 3.531 1.375 0 0 0 0 0.001 0h0.616c0 0 0.001 0 0.002 0 2.544 0 4.606-2.062 4.606-4.606s-2.062-4.606-4.606-4.606c-0.219 0-0.434 0.015-0.645 0.045l0.024-0.003-1.91 0.26 0.294-3.090h5.341c0.552 0 1-0.448 1-1s-0.448-1-1-1v0h-6.25z"></path>
</svg>
