<!-- Generated by IcoMoon.io -->
<svg version="1.1" xmlns="http://www.w3.org/2000/svg" width="32" height="32" viewBox="0 0 32 32">
<title>person-edit-regular</title>
<path d="M19.807 20.667l2-2h-13.469c-0 0-0.001 0-0.001 0-1.656 0-2.999 1.343-2.999 2.999 0 0 0 0.001 0 0.001v-0 0.769c0 1.189 0.427 2.341 1.2 3.247 1.86 2.179 4.589 3.375 8.129 3.609-0.005-0.244 0.021-0.493 0.085-0.748l0.307-1.232c-3.164-0.16-5.477-1.144-7.001-2.928-0.447-0.52-0.72-1.202-0.72-1.948v-0.771c0.001-0.552 0.448-0.999 1-0.999 0 0 0 0 0 0h11.469zM16 2.673c3.682 0 6.667 2.985 6.667 6.667s-2.985 6.667-6.667 6.667v0c-3.682 0-6.667-2.985-6.667-6.667s2.985-6.667 6.667-6.667v0zM16 4.673c-2.577 0-4.667 2.089-4.667 4.667s2.089 4.667 4.667 4.667v0c2.577 0 4.667-2.089 4.667-4.667s-2.089-4.667-4.667-4.667v0zM25.467 16.893l-7.871 7.869c-0.446 0.446-0.774 1.008-0.936 1.638l-0.005 0.025-0.611 2.441c-0.027 0.106-0.043 0.227-0.043 0.352 0 0.8 0.649 1.449 1.449 1.449 0.125 0 0.247-0.016 0.363-0.046l-0.010 0.002 2.44-0.609c0.655-0.167 1.218-0.496 1.664-0.943l7.869-7.869c0.522-0.546 0.843-1.288 0.843-2.104 0-1.683-1.365-3.048-3.048-3.048-0.817 0-1.558 0.321-2.105 0.844l0.001-0.001z"></path>
</svg>
