<!-- Generated by IcoMoon.io -->
<svg version="1.1" xmlns="http://www.w3.org/2000/svg" width="32" height="32" viewBox="0 0 32 32">
<title>person-question-mark</title>
<path d="M23.333 16c4.050 0 7.333 3.283 7.333 7.333s-3.283 7.333-7.333 7.333v0c-4.050 0-7.333-3.283-7.333-7.333s3.283-7.333 7.333-7.333v0zM23.333 26.335c-0.46 0-0.833 0.373-0.833 0.833s0.373 0.833 0.833 0.833v0c0.46 0 0.833-0.373 0.833-0.833s-0.373-0.833-0.833-0.833v0zM23.333 18.499c-1.396 0-2.485 1.091-2.471 2.607 0.004 0.365 0.301 0.66 0.667 0.66 0.368 0 0.667-0.299 0.667-0.667 0-0.002 0-0.005-0-0.007v0c-0.008-0.772 0.48-1.26 1.137-1.26 0.631 0 1.139 0.523 1.139 1.267 0 0.256-0.073 0.456-0.299 0.748l-0.125 0.155-0.133 0.151-0.352 0.387-0.183 0.211c-0.511 0.608-0.713 1.056-0.713 1.747 0 0.368 0.298 0.667 0.667 0.667s0.667-0.298 0.667-0.667v0c0-0.271 0.079-0.48 0.32-0.787l0.112-0.14 0.135-0.153 0.355-0.387 0.18-0.208c0.504-0.6 0.704-1.044 0.704-1.723 0-1.472-1.096-2.6-2.472-2.6zM16.031 18.667c-0.375 0.575-0.695 1.237-0.928 1.939l-0.018 0.061h-9.415c-0 0-0.001 0-0.001 0-0.552 0-0.999 0.447-0.999 0.999 0 0 0 0.001 0 0.001v-0 0.769c0 0.713 0.256 1.404 0.72 1.947 1.671 1.959 4.293 2.952 7.943 2.952 0.796 0 1.543-0.047 2.24-0.141 0.328 0.66 0.737 1.272 1.216 1.823-1.060 0.213-2.213 0.32-3.456 0.32-4.195 0-7.376-1.208-9.464-3.653-0.744-0.868-1.197-2.004-1.197-3.247 0-0 0-0 0-0v0-0.771c0-1.656 1.343-2.999 2.999-2.999v0h10.36zM13.333 2.673c3.682 0 6.667 2.985 6.667 6.667s-2.985 6.667-6.667 6.667v0c-3.682 0-6.667-2.985-6.667-6.667s2.985-6.667 6.667-6.667v0zM13.333 4.673c-2.577 0-4.667 2.089-4.667 4.667s2.089 4.667 4.667 4.667v0c2.577 0 4.667-2.089 4.667-4.667s-2.089-4.667-4.667-4.667v0z"></path>
</svg>
