<!-- Generated by IcoMoon.io -->
<svg version="1.1" xmlns="http://www.w3.org/2000/svg" width="32" height="32" viewBox="0 0 32 32">
<title>person-lock</title>
<path d="M18.667 18.667h-12.996c-1.656 0-2.998 1.343-2.998 2.999v0.77c0 1.19 0.425 2.342 1.198 3.247 2.088 2.446 5.27 3.653 9.464 3.653 0.953 0 1.853-0.062 2.701-0.187-0.023-0.157-0.034-0.318-0.034-0.481v-1.537c-0.819 0.137-1.707 0.205-2.666 0.205-3.651 0-6.272-0.994-7.943-2.951-0.464-0.543-0.719-1.234-0.719-1.948v-0.77c0-0.551 0.447-0.999 0.998-0.999h10.607c0.429-0.981 1.315-1.715 2.389-1.933v-0.067zM13.334 2.673c3.682 0 6.667 2.985 6.667 6.667s-2.985 6.667-6.667 6.667c-3.682 0-6.667-2.985-6.667-6.667s2.985-6.667 6.667-6.667zM13.334 4.673c-2.577 0-4.667 2.089-4.667 4.667s2.089 4.667 4.667 4.667c2.577 0 4.667-2.089 4.667-4.667s-2.089-4.667-4.667-4.667zM20 20h-0.667c-1.105 0-2 0.895-2 2v6.667c0 1.105 0.895 2 2 2h8c1.105 0 2-0.895 2-2v-6.667c0-1.105-0.895-2-2-2h-0.667v-1.333c0-1.841-1.492-3.333-3.333-3.333s-3.333 1.492-3.333 3.333v1.333zM22 18.667c0-0.736 0.597-1.333 1.333-1.333s1.333 0.597 1.333 1.333v1.333h-2.667v-1.333zM24.667 25.333c0 0.736-0.597 1.333-1.333 1.333s-1.333-0.597-1.333-1.333c0-0.736 0.597-1.333 1.333-1.333s1.333 0.597 1.333 1.333z"></path>
</svg>
