<!-- Generated by IcoMoon.io -->
<svg version="1.1" xmlns="http://www.w3.org/2000/svg" width="32" height="32" viewBox="0 0 32 32">
<title>person-lightbulb-regular</title>
<path d="M17.367 20.667c0.075-0.739 0.259-1.416 0.538-2.042l-0.017 0.042h-9.552c-1.656 0-2.999 1.343-2.999 2.999 0 0 0 0.001 0 0.001v-0 0.769c0 1.189 0.425 2.341 1.199 3.247 2.088 2.445 5.269 3.653 9.464 3.653 1.567 0 2.992-0.169 4.272-0.507l-0.392-1.965c-1.133 0.313-2.427 0.471-3.88 0.471-3.651 0-6.272-0.993-7.944-2.951-0.447-0.521-0.719-1.203-0.719-1.948v0-0.771c0.001-0.552 0.448-0.999 1-0.999 0 0 0 0 0 0h9.029zM22.667 9.34c0-3.682-2.985-6.667-6.667-6.667s-6.667 2.985-6.667 6.667v0c0 3.682 2.985 6.667 6.667 6.667s6.667-2.985 6.667-6.667v0zM11.333 9.34c0-2.577 2.089-4.667 4.667-4.667s4.667 2.089 4.667 4.667v0c0 2.577-2.089 4.667-4.667 4.667s-4.667-2.089-4.667-4.667v0zM29.333 21.333c0 0 0 0.001 0 0.001 0 1.833-0.924 3.449-2.332 4.409l-0.018 0.012-0.183 0.911h-5.6l-0.183-0.911c-1.426-0.972-2.351-2.589-2.351-4.421 0-2.946 2.388-5.333 5.333-5.333s5.333 2.387 5.333 5.332v0zM21.467 28l0.212 1.059c0.189 0.923 0.995 1.607 1.96 1.608h0.721c0 0 0 0 0 0 0.966 0 1.772-0.685 1.959-1.595l0.002-0.013 0.212-1.059h-5.067z"></path>
</svg>
