<!-- Generated by IcoMoon.io -->
<svg version="1.1" xmlns="http://www.w3.org/2000/svg" width="32" height="32" viewBox="0 0 32 32">
<title>person-key</title>
<path d="M16 3.2c-3.535 0-6.4 2.865-6.4 6.4s2.865 6.4 6.4 6.4v0c3.535 0 6.4-2.865 6.4-6.4s-2.865-6.4-6.4-6.4v0zM11.2 9.6c0-2.651 2.149-4.8 4.8-4.8s4.8 2.149 4.8 4.8v0c0 2.651-2.149 4.8-4.8 4.8s-4.8-2.149-4.8-4.8v0zM8.014 17.6c-0.004-0-0.008-0-0.013-0-1.768 0-3.201 1.433-3.202 3.2v0c0 2.706 1.333 4.746 3.416 6.075 1.677 1.069 3.832 1.677 6.184 1.861v-1.605c-2.109-0.182-3.949-0.731-5.323-1.608-1.68-1.070-2.677-2.627-2.677-4.723 0-0.885 0.717-1.6 1.614-1.6h11.37c0.085-0.336 0.202-0.667 0.347-0.989 0.096-0.21 0.202-0.414 0.318-0.611h-12.035zM16.238 30.163c0.14 0.146 0.337 0.237 0.555 0.237 0.002 0 0.005 0 0.007-0h3.2c0.16-0 0.311-0.042 0.441-0.114l-0.005 0.002c0.106-0.065 0.189-0.159 0.237-0.271l0.001-0.004c0.048-0.11 0.082-0.237 0.099-0.369l0.001-0.007c0.016-0.133 0.026-0.27 0.026-0.411v-0.426c0.384-0.008 0.683-0.021 0.901-0.037 0.187-0.003 0.357-0.074 0.487-0.189l-0.001 0.001c0.113-0.126 0.184-0.292 0.187-0.474v-0.001c0.016-0.208 0.026-0.507 0.026-0.899h0.8c0.176 0 0.317-0.037 0.426-0.112 0.104-0.071 0.188-0.163 0.248-0.271l0.002-0.004c0.058-0.109 0.098-0.236 0.112-0.372l0-0.004c0.016-0.141 0.026-0.288 0.026-0.437-0.008-0.108-0.013-0.235-0.013-0.363v-0.313c0.275 0.101 0.554 0.171 0.837 0.213 0.285 0.042 0.571 0.062 0.864 0.062 1.309-0.003 2.489-0.553 3.323-1.435l0.002-0.002c0.432-0.451 0.77-0.963 1.011-1.538 0.242-0.576 0.363-1.184 0.363-1.826 0-0.667-0.125-1.291-0.374-1.875-0.254-0.592-0.6-1.098-1.026-1.525l0 0c-0.427-0.425-0.932-0.77-1.494-1.012l-0.031-0.012c-0.544-0.238-1.178-0.376-1.844-0.376-0.011 0-0.022 0-0.033 0h0.002c-0.65 0.016-1.264 0.141-1.837 0.374-0.593 0.243-1.1 0.581-1.527 1.001l0.001-0.001c-0.442 0.434-0.79 0.934-1.050 1.501-0.245 0.527-0.387 1.143-0.387 1.793 0 0.011 0 0.022 0 0.032v-0.002c0 0.392 0.046 0.805 0.138 1.238l-4.701 4.699c-0.146 0.14-0.237 0.337-0.237 0.555 0 0.003 0 0.006 0 0.009v-0 2.4c0 0.216 0.080 0.405 0.237 0.563zM27.65 18.75c0.216 0.21 0.351 0.504 0.351 0.83 0 0.007-0 0.014-0 0.021v-0.001c0 0.006 0 0.013 0 0.020 0 0.325-0.134 0.619-0.35 0.829l-0 0c-0.21 0.216-0.504 0.351-0.83 0.351-0.007 0-0.014-0-0.021-0h0.001c-0.006 0-0.013 0-0.020 0-0.325 0-0.619-0.134-0.829-0.35l-0-0c-0.216-0.21-0.351-0.504-0.351-0.83 0-0.007 0-0.014 0-0.021v0.001c0-0.333 0.117-0.616 0.35-0.85 0.21-0.216 0.504-0.351 0.83-0.351 0.007 0 0.014 0 0.021 0h-0.001c0.333 0 0.616 0.117 0.85 0.35z"></path>
</svg>
