<!-- Generated by IcoMoon.io -->
<svg version="1.1" xmlns="http://www.w3.org/2000/svg" width="32" height="32" viewBox="0 0 32 32">
<title>person-tag-regular</title>
<path d="M6 9.333c0-3.682 2.985-6.667 6.667-6.667s6.667 2.985 6.667 6.667-2.985 6.667-6.667 6.667-6.667-2.985-6.667-6.667zM12.667 4.333c-2.761 0-5 2.239-5 5s2.239 5 5 5v0c2.761 0 5-2.239 5-5s-2.239-5-5-5v0zM2 21.499c0-1.565 1.269-2.833 2.833-2.833h9.833v1.667h-9.833c-0.644 0-1.166 0.522-1.167 1.166v0.501c0 1.829 0.907 3.205 2.48 4.163 1.607 0.978 3.899 1.503 6.52 1.503 1.59 0 3.059-0.193 4.327-0.564l1.319 1.319c-1.66 0.617-3.604 0.912-5.646 0.912-2.809 0-5.433-0.558-7.387-1.747-1.985-1.209-3.28-3.083-3.28-5.587v-0.501zM16 18.671v4.445c0 0.709 0.281 1.388 0.783 1.889l4.879 4.88c0.483 0.483 1.151 0.782 1.889 0.782s1.405-0.299 1.889-0.782l4.445-4.445c0.483-0.483 0.782-1.151 0.782-1.889s-0.299-1.405-0.782-1.889l-4.88-4.88c-0.483-0.483-1.151-0.782-1.889-0.782-0 0-0 0-0 0h-4.445c-1.475 0-2.671 1.196-2.671 2.671v0zM19.667 20.667c-0.552 0-1-0.448-1-1s0.448-1 1-1v0c0.552 0 1 0.448 1 1s-0.448 1-1 1v0z"></path>
</svg>
