<!-- Generated by IcoMoon.io -->
<svg version="1.1" xmlns="http://www.w3.org/2000/svg" width="32" height="32" viewBox="0 0 32 32">
<title>person-walking-regular</title>
<path d="M17.333 4.667c-1.105 0-2 0.895-2 2s0.895 2 2 2v0c1.105 0 2-0.895 2-2s-0.895-2-2-2v0zM13.333 6.667c0 0 0-0 0-0 0-2.209 1.791-4 4-4s4 1.791 4 4c0 1.005-0.371 1.924-0.983 2.626l0.004-0.005 0.007 0.004c0.253 0.147 0.48 0.347 0.68 0.573 0.12 0.133 0.24 0.293 0.333 0.44l1.292 2.039c0.080 0.107 0.145 0.2 0.212 0.307l0.227 0.36 2.571 1.292c0.991 0.507 1.657 1.521 1.657 2.691 0 0.485-0.115 0.944-0.319 1.35l0.008-0.017c-0.502 0.994-1.514 1.663-2.683 1.663-0.489 0-0.95-0.117-1.358-0.325l0.017 0.008-3.291-1.64c-0.213-0.107-0.413-0.227-0.6-0.387 0 0-0.080-0.080-0.133-0.12 0 0.173 0.067 0.36 0.173 0.52l1.12 1.64c0.44 0.653 0.707 1.385 0.772 2.171l0.307 4.251c0.005 0.067 0.009 0.146 0.009 0.225 0 1.576-1.223 2.866-2.771 2.973l-0.009 0.001c-0.069 0.006-0.15 0.009-0.231 0.009-1.574 0-2.863-1.224-2.965-2.772l-0-0.009-0.267-3.704-1.385-1.68-2.571 6.317c-0.48 1.16-1.6 1.865-2.772 1.865l-0.053-0.013c-0.373 0-0.76-0.067-1.133-0.227-1.101-0.458-1.861-1.525-1.861-2.77 0-0.409 0.082-0.799 0.231-1.154l-0.007 0.020 2.397-5.889c-1.486-0.192-2.622-1.449-2.622-2.971 0-0.383 0.072-0.75 0.203-1.086l-0.007 0.020 1.227-3.2s0.027-0.067 0.040-0.093l0.693-1.811c0.333-0.88 1.067-1.547 1.972-1.813l2.997-0.88c0.040-0.013 0.080-0.023 0.12-0.032 0.040-0.011 0.080-0.020 0.12-0.033 0.027 0 0.053 0 0.093-0.013 0.2-0.040 0.4-0.057 0.595-0.053-0.035-0.199-0.055-0.427-0.055-0.661 0-0.002 0-0.004 0-0.006v0zM13.621 9.371c-0.081-0.023-0.173-0.037-0.269-0.037-0.099 0-0.195 0.014-0.285 0.041l0.007-0.002-3.067 0.887c-0.304 0.090-0.543 0.311-0.655 0.597l-0.002 0.007-1.951 5.113c-0.039 0.103-0.062 0.222-0.062 0.347 0 0.552 0.448 1 1 1 0.402 0 0.749-0.237 0.908-0.58l0.003-0.006 1.635-3.688c0.129-0.298 0.42-0.503 0.76-0.503 0.456 0 0.825 0.37 0.825 0.825 0 0.116-0.024 0.227-0.067 0.327l0.002-0.005-1.149 2.84-3.845 9.421c-0.044 0.109-0.069 0.234-0.069 0.366 0 0.552 0.448 1 1 1 0.412 0 0.766-0.249 0.919-0.605l0.002-0.006 2.935-7.191c0.258-0.493 0.765-0.823 1.35-0.823 0.471 0 0.892 0.215 1.171 0.551l0.002 0.003 2.24 2.723c0.043 0.051 0.070 0.116 0.076 0.187l0 0.001 0.303 4.243c0.047 0.513 0.475 0.911 0.996 0.911 0.552 0 1-0.448 1-1 0-0.018-0-0.037-0.002-0.055l0 0.003-0.303-4.243c-0.032-0.442-0.183-0.843-0.42-1.179l0.005 0.007-0.008-0.012-0.009-0.013-1.12-1.637c-0.327-0.474-0.523-1.060-0.523-1.692 0-0.383 0.072-0.75 0.203-1.087l-0.007 0.020 0.327-0.857 0.353-0.713c0.159-0.312 0.478-0.523 0.846-0.523 0.282 0 0.535 0.123 0.709 0.319l0.001 0.001 0.771 1.216c0.098 0.153 0.233 0.275 0.392 0.356l0.006 0.003 3.333 1.667c0.132 0.069 0.288 0.109 0.454 0.109 0.552 0 1-0.448 1-1 0-0.392-0.226-0.732-0.555-0.896l-0.006-0.003-3.080-1.54-0.527-0.845c-0.057-0.091-0.109-0.166-0.165-0.239l0.005 0.007-1.376-2.171c-0.132-0.205-0.332-0.357-0.568-0.425l-0.007-0.002-5.443-1.52z"></path>
</svg>
