<!-- Generated by IcoMoon.io -->
<svg version="1.1" xmlns="http://www.w3.org/2000/svg" width="32" height="32" viewBox="0 0 32 32">
<title>person-clock-regular</title>
<path d="M15.084 20.667c0.25-0.763 0.571-1.425 0.966-2.034l-0.020 0.034h-10.36c-1.656 0.001-2.997 1.343-2.997 2.999 0 0 0 0.001 0 0.001v-0 0.769c0 1.189 0.424 2.341 1.197 3.247 2.088 2.445 5.269 3.653 9.464 3.653 1.241 0 2.395-0.107 3.457-0.32-0.463-0.529-0.868-1.127-1.196-1.772l-0.023-0.049c-0.653 0.089-1.407 0.14-2.173 0.14-0.023 0-0.046-0-0.069-0h0.004c-3.651 0-6.272-0.993-7.943-2.951-0.447-0.52-0.72-1.202-0.72-1.948v-0.771c0.001-0.552 0.448-0.999 1-0.999 0 0 0 0 0 0h9.413zM13.333 2.673c3.682 0 6.667 2.985 6.667 6.667s-2.985 6.667-6.667 6.667v0c-3.682 0-6.667-2.985-6.667-6.667s2.985-6.667 6.667-6.667v0zM13.333 4.673c-2.577 0-4.667 2.089-4.667 4.667s2.089 4.667 4.667 4.667v0c2.577 0 4.667-2.089 4.667-4.667s-2.089-4.667-4.667-4.667v0zM23.333 16c4.050 0 7.333 3.283 7.333 7.333s-3.283 7.333-7.333 7.333v0c-4.050 0-7.333-3.283-7.333-7.333s3.283-7.333 7.333-7.333v0zM26 23.333h-2.667v-3.333c0-0.368-0.298-0.667-0.667-0.667s-0.667 0.298-0.667 0.667v0 4c0 0.368 0.298 0.667 0.667 0.667v0h3.333c0.368 0 0.667-0.298 0.667-0.667s-0.298-0.667-0.667-0.667v0z"></path>
</svg>
