<!-- Generated by IcoMoon.io -->
<svg version="1.1" xmlns="http://www.w3.org/2000/svg" width="32" height="32" viewBox="0 0 32 32">
<title>person-delete</title>
<path d="M23.333 16c4.050 0 7.333 3.283 7.333 7.333s-3.283 7.333-7.333 7.333v0c-4.050 0-7.333-3.283-7.333-7.333s3.283-7.333 7.333-7.333v0zM16.029 18.667c-0.375 0.575-0.695 1.237-0.928 1.939l-0.018 0.061h-9.413c-0.552 0-1 0.448-1 1v0 1.209c0 0.875 0.381 1.707 1.045 2.276 1.677 1.441 4.204 2.181 7.617 2.181 0.799 0 1.548-0.040 2.251-0.12 0.332 0.667 0.751 1.284 1.239 1.84-1.069 0.187-2.233 0.28-3.489 0.28-3.853 0-6.837-0.875-8.921-2.667-1.069-0.922-1.741-2.279-1.741-3.792v-1.209c0.001-1.656 1.344-2.999 3-2.999h10.36zM20.123 19.955l-0.091 0.077-0.077 0.093c-0.074 0.106-0.118 0.237-0.118 0.379s0.044 0.273 0.119 0.381l-0.001-0.002 0.077 0.093 2.36 2.359-2.357 2.356-0.077 0.092c-0.074 0.106-0.118 0.237-0.118 0.379s0.044 0.273 0.12 0.381l-0.001-0.002 0.077 0.092 0.093 0.077c0.106 0.074 0.237 0.118 0.379 0.118s0.273-0.044 0.381-0.119l-0.002 0.001 0.093-0.077 2.355-2.356 2.36 2.36 0.092 0.076c0.106 0.074 0.237 0.118 0.379 0.118s0.273-0.044 0.381-0.119l-0.002 0.001 0.093-0.077 0.076-0.093c0.074-0.106 0.118-0.237 0.118-0.379s-0.044-0.273-0.119-0.381l0.001 0.002-0.077-0.092-2.359-2.36 2.363-2.357 0.077-0.093c0.074-0.106 0.118-0.237 0.118-0.379s-0.044-0.273-0.119-0.381l0.001 0.002-0.077-0.093-0.093-0.076c-0.106-0.074-0.237-0.118-0.379-0.118s-0.273 0.044-0.381 0.119l0.002-0.001-0.092 0.076-2.363 2.36-2.36-2.36-0.092-0.076c-0.106-0.074-0.238-0.119-0.38-0.119-0.1 0-0.195 0.022-0.28 0.062l0.004-0.002-0.101 0.057zM13.333 2.673c3.682 0 6.667 2.985 6.667 6.667s-2.985 6.667-6.667 6.667v0c-3.682 0-6.667-2.985-6.667-6.667s2.985-6.667 6.667-6.667v0zM13.333 4.673c-2.577 0-4.667 2.089-4.667 4.667s2.089 4.667 4.667 4.667v0c2.577 0 4.667-2.089 4.667-4.667s-2.089-4.667-4.667-4.667v0z"></path>
</svg>
