<!-- Generated by IcoMoon.io -->
<svg version="1.1" xmlns="http://www.w3.org/2000/svg" width="32" height="32" viewBox="0 0 32 32">
<title>person-swap</title>
<path d="M21 18.663c1.308 0 2.42 0.837 2.831 2.004h-2.741c-0.026-0.003-0.057-0.004-0.088-0.004h-15.336c0 0 0 0 0 0-0.552 0-0.999 0.447-0.999 0.999 0 0 0 0.001 0 0.001v-0 0.769c0 0.713 0.255 1.405 0.719 1.947 1.671 1.959 4.293 2.952 7.943 2.952h0.224c0.115 0.244 0.271 0.469 0.467 0.664l1.245 1.244c-0.571 0.059-1.234 0.093-1.904 0.093-0.011 0-0.022 0-0.034-0h0.002c-4.193 0-7.375-1.208-9.464-3.653-0.744-0.868-1.197-2.004-1.197-3.247 0-0 0-0 0-0v0-0.771c0-1.656 1.343-2.999 2.999-2.999h15.335zM13.329 2.669c3.682 0 6.667 2.985 6.667 6.667s-2.985 6.667-6.667 6.667v0c-3.682 0-6.667-2.985-6.667-6.667s2.985-6.667 6.667-6.667v0zM13.329 4.669c-2.577 0-4.667 2.089-4.667 4.667s2.089 4.667 4.667 4.667v0c2.577 0 4.667-2.089 4.667-4.667s-2.089-4.667-4.667-4.667v0zM19.708 23.711c0.166-0.178 0.268-0.418 0.268-0.682 0-0.552-0.448-1-1-1-0.264 0-0.504 0.102-0.682 0.269l0.001-0.001-3.333 3.335c-0.181 0.181-0.292 0.431-0.292 0.707s0.112 0.526 0.292 0.707v0l3.333 3.333c0.18 0.174 0.424 0.28 0.694 0.28 0.552 0 1-0.448 1-1 0-0.27-0.107-0.515-0.281-0.695l0 0-1.627-1.627h9.173l-1.627 1.627c-0.166 0.178-0.268 0.418-0.268 0.682 0 0.552 0.448 1 1 1 0.264 0 0.504-0.102 0.682-0.269l-0.001 0.001 3.333-3.331c0.181-0.181 0.292-0.431 0.292-0.707s-0.112-0.526-0.292-0.707l-3.333-3.336c-0.183-0.196-0.443-0.318-0.732-0.318-0.552 0-1 0.448-1 1 0 0.289 0.122 0.549 0.318 0.731l0.001 0.001 1.624 1.627h-9.169l1.627-1.627z"></path>
</svg>
