<!-- Generated by IcoMoon.io -->
<svg version="1.1" xmlns="http://www.w3.org/2000/svg" width="32" height="32" viewBox="0 0 32 32">
<title>person-voice</title>
<path d="M19.673 20c1.656 0.001 2.997 1.343 2.997 2.999v0 0.767c0 1.193-0.427 2.347-1.2 3.252-2.095 2.444-5.277 3.649-9.471 3.649s-7.376-1.207-9.464-3.653c-0.744-0.867-1.197-2.003-1.197-3.245v-0.771c0.001-1.656 1.343-2.997 2.999-2.997h15.336zM19.673 22h-15.337c-0 0-0.001 0-0.001 0-0.552 0-0.999 0.447-0.999 0.999v0 0.771c0 0.713 0.256 1.404 0.72 1.947 1.671 1.957 4.293 2.952 7.943 2.952 3.652 0 6.275-0.995 7.951-2.952 0.448-0.521 0.72-1.204 0.72-1.95 0-0 0-0.001 0-0.001v0-0.767c0 0 0 0 0 0 0-0.551-0.446-0.998-0.997-0.999h-0zM25.407 1.872c0.142-0.083 0.313-0.132 0.496-0.132 0.37 0 0.692 0.201 0.866 0.499l0.003 0.005c1.402 2.412 2.229 5.307 2.229 8.396 0 0.009 0 0.019-0 0.028v-0.001c0 3.005-0.781 5.899-2.244 8.448-0.173 0.312-0.501 0.52-0.877 0.52-0.552 0-1-0.448-1-1 0-0.19 0.053-0.368 0.145-0.519l-0.003 0.004c1.244-2.132 1.979-4.693 1.979-7.426 0-0.009 0-0.019-0-0.028v0.001c0-2.644-0.684-5.187-1.967-7.431-0.083-0.142-0.131-0.313-0.131-0.495 0-0.37 0.201-0.693 0.5-0.866l0.005-0.003zM12 4.005c3.682 0 6.667 2.985 6.667 6.667s-2.985 6.667-6.667 6.667v0c-3.682 0-6.667-2.985-6.667-6.667s2.985-6.667 6.667-6.667v0zM20.785 4.533c0.142-0.083 0.313-0.131 0.495-0.131 0.37 0 0.693 0.201 0.866 0.5l0.003 0.005c0.954 1.65 1.517 3.629 1.517 5.74 0 0.007 0 0.014-0 0.021v-0.001c0 2.051-0.531 4.027-1.524 5.771-0.176 0.304-0.499 0.505-0.869 0.505-0.553 0-1.001-0.448-1.001-1.001 0-0.182 0.049-0.353 0.134-0.5l-0.003 0.005c0.794-1.369 1.263-3.011 1.263-4.764 0-0.006 0-0.011 0-0.017v0.001c0-0.006 0-0.012 0-0.019 0-1.748-0.466-3.386-1.281-4.798l0.025 0.046c-0.082-0.142-0.131-0.313-0.131-0.494 0-0.37 0.201-0.693 0.499-0.866l0.005-0.003zM12 6.007c-2.577 0-4.667 2.089-4.667 4.667s2.089 4.667 4.667 4.667v0c2.577 0 4.667-2.089 4.667-4.667s-2.089-4.667-4.667-4.667v0z"></path>
</svg>
