<!-- Generated by IcoMoon.io -->
<svg version="1.1" xmlns="http://www.w3.org/2000/svg" width="32" height="32" viewBox="0 0 32 32">
<title>person-support-regular</title>
<path d="M26.667 21.661c0-1.656-1.343-2.999-2.999-2.999-0 0-0.001 0-0.001 0h-15.333c-0 0-0.001 0-0.001 0-1.656 0-2.999 1.343-2.999 2.999 0 0 0 0.001 0 0.001v-0 0.769c0 1.191 0.425 2.341 1.197 3.247 2.089 2.445 5.271 3.653 9.464 3.653 4.195 0 7.377-1.207 9.469-3.652 0.747-0.869 1.202-2.007 1.203-3.252v-0.767zM8.332 20.663h15.335c0.551 0 0.997 0.447 0.997 1v0.767c0 0 0 0.001 0 0.001 0 0.746-0.272 1.429-0.723 1.954l0.003-0.004c-1.676 1.957-4.299 2.951-7.951 2.951-3.651 0-6.272-0.993-7.943-2.951-0.447-0.521-0.719-1.203-0.719-1.948v0-0.771c0.001-0.551 0.447-0.998 0.999-0.999h0zM22.663 9.336c0-0 0-0.001 0-0.001 0-3.682-2.985-6.667-6.667-6.667-2.193 0-4.139 1.059-5.354 2.694l-0.013 0.018c-0.089-0.029-0.192-0.046-0.299-0.047h-3.331c-0.552 0-1 0.448-1 1v0 7.331c0 0.001 0 0.002 0 0.003 0 2.025 1.642 3.667 3.667 3.667h0.333v-0.005h0.013c0.001 0 0.001 0 0.002 0 0.735 0 1.331-0.596 1.331-1.331s-0.596-1.331-1.331-1.331c-0.425 0-0.804 0.2-1.048 0.51l-0.002 0.003c-0.575-0.271-0.965-0.846-0.965-1.512 0-0.001 0-0.002 0-0.003v0-0.332h0.997c0.507 0 0.977-0.163 1.36-0.437 1.2 1.881 3.276 3.11 5.639 3.11 3.682 0 6.667-2.985 6.667-6.667 0-0.001 0-0.002 0-0.004v0zM9.329 9.195c-0.001 0.042-0.001 0.092-0.001 0.141s0.001 0.099 0.002 0.149l-0-0.007v1.521c0 0.184-0.149 0.333-0.333 0.333v0h-0.996v-3.997h1.331v1.86zM11.329 9.455v-0.237c0.066-2.526 2.13-4.548 4.665-4.548 2.577 0 4.667 2.089 4.667 4.667s-2.089 4.667-4.667 4.667c-2.536 0-4.599-2.022-4.665-4.542l-0-0.006z"></path>
</svg>
