<!-- Generated by IcoMoon.io -->
<svg version="1.1" xmlns="http://www.w3.org/2000/svg" width="32" height="32" viewBox="0 0 32 32">
<title>person-call</title>
<path d="M7.005 18.666l14.651 0.002c0.139 0.229 0.308 0.441 0.508 0.63l0.958 0.909c-0.055 0.212-0.126 0.424-0.213 0.637-0.163-0.113-0.359-0.179-0.571-0.179h-15.333c-0.552 0-1 0.448-1 1v1.21c0 0.874 0.381 1.705 1.044 2.275 1.677 1.442 4.205 2.184 7.618 2.184 0.389 0 0.766-0.010 1.132-0.029 0.109 0.595 0.393 1.161 0.842 1.612l0.303 0.304c-0.722 0.075-1.481 0.113-2.278 0.113-3.853 0-6.838-0.875-8.922-2.667-1.105-0.95-1.74-2.334-1.74-3.791v-1.21c0-1.657 1.343-3 3-3zM22.681 16.326l0.671-1.583c0.315-0.742 1.069-1.146 1.808-0.992l0.158 0.042 0.84 0.269c0.833 0.266 1.471 0.98 1.677 1.876 0.49 2.13-0.098 4.724-1.763 7.781-1.663 3.052-3.485 4.888-5.466 5.506-0.769 0.24-1.596 0.066-2.218-0.456l-0.164-0.151-0.638-0.641c-0.553-0.555-0.667-1.434-0.296-2.121l0.094-0.155 0.962-1.413c0.379-0.556 1.026-0.819 1.65-0.686l0.169 0.046 1.776 0.592c0.709-0.536 1.3-1.211 1.773-2.025 0.405-0.697 0.671-1.404 0.796-2.121l0.051-0.359-1.479-1.403c-0.487-0.462-0.664-1.182-0.465-1.83l0.064-0.175zM14.667 2.673c3.682 0 6.667 2.985 6.667 6.667s-2.985 6.667-6.667 6.667c-3.682 0-6.667-2.985-6.667-6.667s2.985-6.667 6.667-6.667zM14.667 4.673c-2.577 0-4.667 2.089-4.667 4.667s2.089 4.667 4.667 4.667c2.577 0 4.667-2.089 4.667-4.667s-2.089-4.667-4.667-4.667z"></path>
</svg>
