<!-- Generated by IcoMoon.io -->
<svg version="1.1" xmlns="http://www.w3.org/2000/svg" width="32" height="32" viewBox="0 0 32 32">
<title>person-pill</title>
<path d="M14.877 27.3c0.087 0.707 0.32 1.4 0.7 2.029-3.987-0.080-7.024-1.285-9.040-3.648-0.745-0.867-1.199-2.004-1.2-3.247v-0.771c0.001-1.656 1.343-2.997 2.999-2.997 0.001 0 0.002 0 0.003 0h12.364l-2 2h-10.365c-0 0-0.001 0-0.001 0-0.552 0-0.999 0.447-0.999 0.999 0 0 0 0.001 0 0.001v-0 0.769c0 0.713 0.256 1.404 0.72 1.947 1.493 1.751 3.749 2.732 6.82 2.92zM16 2.672c3.682 0 6.667 2.985 6.667 6.667s-2.985 6.667-6.667 6.667v0c-3.682 0-6.667-2.985-6.667-6.667s2.985-6.667 6.667-6.667v0zM16 4.672c-2.577 0-4.667 2.089-4.667 4.667s2.089 4.667 4.667 4.667v0c2.577 0 4.667-2.089 4.667-4.667s-2.089-4.667-4.667-4.667v0zM29.373 17.292c-0.693-0.693-1.65-1.121-2.707-1.121s-2.014 0.428-2.707 1.121l-6.667 6.667c-0.693 0.693-1.122 1.65-1.122 2.707 0 2.114 1.714 3.828 3.828 3.828 1.057 0 2.014-0.428 2.707-1.121l6.667-6.667c0.693-0.693 1.121-1.65 1.121-2.707s-0.428-2.014-1.121-2.707v0zM25.373 18.707c0.331-0.331 0.788-0.536 1.293-0.536 1.010 0 1.829 0.819 1.829 1.829 0 0.505-0.205 0.962-0.536 1.293l-2.627 2.627-2.587-2.587 2.627-2.627zM22.707 25.293c0.181 0.181 0.292 0.431 0.292 0.707s-0.112 0.526-0.292 0.707v0l-1.333 1.333c-0.178 0.166-0.418 0.268-0.682 0.268-0.552 0-1-0.448-1-1 0-0.264 0.102-0.504 0.269-0.682l-0.001 0.001 1.333-1.333c0.181-0.181 0.431-0.292 0.707-0.292s0.526 0.112 0.707 0.292v0z"></path>
</svg>
