<!-- Generated by IcoMoon.io -->
<svg version="1.1" xmlns="http://www.w3.org/2000/svg" width="32" height="32" viewBox="0 0 32 32">
<title>person-board</title>
<path d="M20.333 16.333c0-1.289-1.045-2.333-2.333-2.333h-8c-1.289 0-2.333 1.045-2.333 2.333v0.667c0 1.439 0.687 2.207 1.835 2.934 1.132 0.717 2.702 1.066 4.499 1.066 2.118 0 3.7-0.345 4.759-1.073 1.084-0.745 1.574-1.525 1.574-2.927v-0.667zM9.667 16.333c0-0.184 0.149-0.333 0.333-0.333h8c0.184 0 0.333 0.149 0.333 0.333v0.667c0 0.355-0.046 0.438-0.136 0.6-0.023 0.041-0.048 0.087-0.076 0.143-0.138 0.276-0.352 0.503-0.67 0.687-0.657 0.38-1.745 0.57-3.45 0.57-1.358 0-2.462-0.186-3.214-0.577-0.372-0.193-0.648-0.431-0.833-0.713-0.043-0.065-0.081-0.116-0.115-0.161-0.111-0.146-0.172-0.226-0.172-0.549v-0.667z"></path>
<path d="M17.333 10c0 1.841-1.492 3.333-3.333 3.333s-3.333-1.492-3.333-3.333c0-1.841 1.492-3.333 3.333-3.333s3.333 1.492 3.333 3.333zM15.333 10c0-0.736-0.597-1.333-1.333-1.333s-1.333 0.597-1.333 1.333c0 0.736 0.597 1.333 1.333 1.333s1.333-0.597 1.333-1.333z"></path>
<path d="M4 8.333c0-2.393 1.94-4.333 4.333-4.333h11.333c2.393 0 4.333 1.94 4.333 4.333v11.333c0 2.393-1.94 4.333-4.333 4.333h-11.333c-2.393 0-4.333-1.94-4.333-4.333v-11.333zM8.333 6c-1.289 0-2.333 1.045-2.333 2.333v11.333c0 1.289 1.045 2.333 2.333 2.333h11.333c1.289 0 2.333-1.045 2.333-2.333v-11.333c0-1.289-1.045-2.333-2.333-2.333h-11.333z"></path>
<path d="M11.667 27.333c-1.534 0-2.882-0.797-3.652-2h12.319c2.761 0 5-2.239 5-5v-12.319c1.203 0.77 2 2.118 2 3.652v8.667c0 3.866-3.134 7-7 7h-8.667z"></path>
</svg>
