<!-- Generated by IcoMoon.io -->
<svg version="1.1" xmlns="http://www.w3.org/2000/svg" width="32" height="32" viewBox="0 0 32 32">
<title>person-info</title>
<path d="M14.4 3.2c-3.535 0-6.4 2.865-6.4 6.4s2.865 6.4 6.4 6.4v0c3.535 0 6.4-2.865 6.4-6.4s-2.865-6.4-6.4-6.4v0zM9.6 9.6c0-2.651 2.149-4.8 4.8-4.8s4.8 2.149 4.8 4.8v0c0 2.651-2.149 4.8-4.8 4.8s-4.8-2.149-4.8-4.8v0zM6.414 17.6c-0.004-0-0.008-0-0.013-0-1.768 0-3.201 1.433-3.202 3.2v0c0 2.706 1.333 4.746 3.416 6.075 2.051 1.307 4.816 1.925 7.784 1.925 0.656 0 1.306-0.030 1.936-0.091-0.362-0.447-0.69-0.949-0.966-1.484l-0.023-0.049c-0.31 0.016-0.627 0.024-0.947 0.024-2.776 0-5.211-0.582-6.923-1.675-1.68-1.072-2.677-2.629-2.677-4.725 0-0.885 0.717-1.6 1.614-1.6h8.944c0.294-0.573 0.648-1.109 1.053-1.6h-9.995zM22.2 20c0-0.552 0.448-1 1-1s1 0.448 1 1v0c0 0.552-0.448 1-1 1s-1-0.448-1-1v0zM24 26.4c0 0.442-0.358 0.8-0.8 0.8s-0.8-0.358-0.8-0.8v0-3.2c0-0.442 0.358-0.8 0.8-0.8s0.8 0.358 0.8 0.8v0 3.2zM16 23.2c0-3.976 3.224-7.2 7.2-7.2s7.2 3.224 7.2 7.2v0c0 3.976-3.224 7.2-7.2 7.2s-7.2-3.224-7.2-7.2v0zM17.6 23.2c0 3.093 2.507 5.6 5.6 5.6s5.6-2.507 5.6-5.6v0c0-3.093-2.507-5.6-5.6-5.6s-5.6 2.507-5.6 5.6v0z"></path>
</svg>
