<!-- Generated by IcoMoon.io -->
<svg version="1.1" xmlns="http://www.w3.org/2000/svg" width="32" height="32" viewBox="0 0 32 32">
<title>person-money</title>
<path d="M23.673 18.667c1.040 0 1.955 0.529 2.493 1.333h-8.167c-0.751 0-1.443 0.248-2 0.667h-7.663c-0 0-0.001 0-0.001 0-0.552 0-0.999 0.447-0.999 0.999 0 0 0 0.001 0 0.001v-0 0.769c0 0.713 0.256 1.404 0.72 1.947 1.46 1.711 3.645 2.688 6.609 2.907v1.377c0 0.215 0.020 0.427 0.060 0.629-3.569-0.225-6.32-1.421-8.191-3.613-0.744-0.868-1.197-2.004-1.197-3.247 0-0 0-0 0-0v0-0.771c0-1.656 1.343-2.999 2.999-2.999v0h15.336zM16 2.673c3.682 0 6.667 2.985 6.667 6.667s-2.985 6.667-6.667 6.667v0c-3.682 0-6.667-2.985-6.667-6.667s2.985-6.667 6.667-6.667v0zM16 4.673c-2.577 0-4.667 2.089-4.667 4.667s2.089 4.667 4.667 4.667v0c2.577 0 4.667-2.089 4.667-4.667s-2.089-4.667-4.667-4.667v0zM16 23.333c0-1.105 0.895-2 2-2v0h10.667c1.105 0 2 0.895 2 2v0 5.333c0 1.105-0.895 2-2 2v0h-10.667c-1.105 0-2-0.895-2-2v0-5.333zM29.333 24c-0.736 0-1.333-0.597-1.333-1.333v0h-1.333c0 1.473 1.194 2.667 2.667 2.667v0-1.333zM29.333 26.667c-1.473 0-2.667 1.194-2.667 2.667v0h1.333c0-0.736 0.597-1.333 1.333-1.333v0-1.333zM18.667 22.667c0 0.736-0.597 1.333-1.333 1.333v0 1.333c1.473 0 2.667-1.194 2.667-2.667v0h-1.333zM20 29.333c0-1.473-1.194-2.667-2.667-2.667v0 1.333c0.736 0 1.333 0.597 1.333 1.333v0h1.333zM25.667 26c0-1.289-1.045-2.333-2.333-2.333s-2.333 1.045-2.333 2.333v0c0 1.289 1.045 2.333 2.333 2.333s2.333-1.045 2.333-2.333v0z"></path>
</svg>
