<!-- Generated by IcoMoon.io -->
<svg version="1.1" xmlns="http://www.w3.org/2000/svg" width="32" height="32" viewBox="0 0 32 32">
<title>person-support</title>
<path d="M26.666 21.661c0-1.656-1.342-2.999-2.999-2.999h-15.336c-1.656 0-2.998 1.343-2.998 2.999v0.77c0 1.19 0.425 2.342 1.198 3.247 2.088 2.446 5.27 3.653 9.464 3.653s7.377-1.207 9.469-3.651c0.775-0.906 1.201-2.059 1.201-3.251v-0.767zM8.332 20.663h15.336c0.551 0 0.999 0.447 0.999 0.999v0.767c0 0.715-0.256 1.407-0.721 1.951-1.675 1.957-4.299 2.952-7.95 2.952s-6.272-0.994-7.943-2.951c-0.464-0.543-0.719-1.234-0.719-1.948v-0.77c0-0.551 0.447-0.999 0.999-0.999z"></path>
<path d="M22.662 9.336c0-3.682-2.985-6.667-6.667-6.667-2.201 0-4.152 1.066-5.366 2.71-0.094-0.029-0.195-0.045-0.299-0.045h-3.33c-0.552 0-1 0.448-1 1v7.332c0 2.025 1.642 3.667 3.667 3.667h0.333v-0.006c0.005 0 0.009 0 0.014 0 0.735 0 1.33-0.595 1.33-1.33s-0.595-1.33-1.33-1.33c-0.426 0-0.805 0.2-1.048 0.511-0.57-0.265-0.965-0.842-0.965-1.512v-0.334h0.997c0.508 0 0.977-0.162 1.36-0.437 1.181 1.868 3.265 3.108 5.638 3.108 3.682 0 6.667-2.985 6.667-6.667zM9.33 9.195c-0.001 0.047-0.001 0.094-0.001 0.141s0.001 0.094 0.001 0.141v1.521c0 0.184-0.149 0.333-0.333 0.333h-0.997v-3.998h1.33v1.86zM11.33 9.454v-0.236c0.063-2.523 2.127-4.548 4.665-4.548 2.577 0 4.667 2.089 4.667 4.667s-2.089 4.667-4.667 4.667c-2.538 0-4.603-2.026-4.665-4.549z"></path>
</svg>
