<!-- Generated by IcoMoon.io -->
<svg version="1.1" xmlns="http://www.w3.org/2000/svg" width="32" height="32" viewBox="0 0 32 32">
<title>person-feedback</title>
<path d="M14.333 18.667c1.657 0 3 1.343 3 3v2.003l-0.011 0.145c-0.414 2.835-2.961 4.198-7.234 4.198-4.258 0-6.845-1.348-7.403-4.15l-0.019-0.195v-2c0-1.657 1.343-3 3-3h8.667zM14.333 20.667h-8.667c-0.552 0-1 0.448-1 1v1.894c0.373 1.601 2.067 2.451 5.422 2.451s4.973-0.842 5.244-2.421v-1.924c0-0.552-0.448-1-1-1zM10 8c2.577 0 4.667 2.089 4.667 4.667s-2.089 4.667-4.667 4.667c-2.577 0-4.667-2.089-4.667-4.667s2.089-4.667 4.667-4.667zM26.333 2.667c1.657 0 3 1.343 3 3v4.667c0 1.657-1.343 3-3 3h-1.94l-2.889 2.855c-0.655 0.647-1.71 0.641-2.357-0.014-0.308-0.312-0.481-0.733-0.481-1.171l-0.001-1.689c-1.5-0.166-2.666-1.438-2.666-2.982v-4.667c0-1.657 1.343-3 3-3h7.333zM10 10c-1.473 0-2.667 1.194-2.667 2.667s1.194 2.667 2.667 2.667 2.667-1.194 2.667-2.667c0-1.473-1.194-2.667-2.667-2.667zM26.333 4.667h-7.333c-0.552 0-1 0.448-1 1v4.667c0 0.552 0.448 1 1 1h1.665l0.001 2.872 2.906-2.872h2.761c0.552 0 1-0.448 1-1v-4.667c0-0.552-0.448-1-1-1z"></path>
</svg>
