<!-- Generated by IcoMoon.io -->
<svg version="1.1" xmlns="http://www.w3.org/2000/svg" width="32" height="32" viewBox="0 0 32 32">
<title>person-6</title>
<path d="M16 16c3.866 0 7-3.134 7-7s-3.134-7-7-7v0c-3.866 0-7 3.134-7 7s3.134 7 7 7v0zM16 14c-2.761 0-5-2.239-5-5s2.239-5 5-5v0c2.761 0 5 2.239 5 5s-2.239 5-5 5v0zM7.5 20c-0.828 0-1.5 0.672-1.5 1.5v0 0.5c0 1.473 0.94 2.949 2.759 4.106 1.807 1.15 4.364 1.894 7.24 1.894 0.956 0 1.875-0.082 2.744-0.233 0.19 0.674 0.486 1.303 0.869 1.87-1.076 0.231-2.313 0.363-3.581 0.363-0.011 0-0.022 0-0.033-0h0.002c-3.198 0-6.14-0.823-8.315-2.206-2.162-1.377-3.685-3.4-3.685-5.794v-0.5c0-1.933 1.567-3.5 3.5-3.5v0h11.83c-0.324 0.577-0.573 1.248-0.709 1.958l-0.007 0.042h-11.114zM25.243 18c-1.791 0-3.243 1.452-3.243 3.243v0 0.757c0.825-0.624 1.869-1 3-1 2.761 0 5 2.239 5 5s-2.239 5-5 5c-2.761 0-5-2.239-5-5 0 0 0 0 0 0v0-4.757c0-2.895 2.348-5.242 5.243-5.242 1.448 0 2.758 0.587 3.707 1.535l0.257 0.257c0.174 0.18 0.281 0.425 0.281 0.695 0 0.552-0.448 1-1 1-0.27 0-0.515-0.107-0.695-0.281l0 0-0.258-0.257c-0.587-0.587-1.397-0.95-2.292-0.95h-0zM25 29c1.657 0 3-1.343 3-3s-1.343-3-3-3v0c-1.657 0-3 1.343-3 3s1.343 3 3 3v0z"></path>
</svg>
