<!-- Generated by IcoMoon.io -->
<svg version="1.1" xmlns="http://www.w3.org/2000/svg" width="32" height="32" viewBox="0 0 32 32">
<title>person-edit</title>
<path d="M19.807 20.667l2-2h-13.47c-1.656 0-2.998 1.342-2.998 2.999v0.77c0 1.19 0.425 2.342 1.198 3.247 1.861 2.179 4.59 3.375 8.13 3.61-0.005-0.244 0.021-0.495 0.085-0.748l0.308-1.232c-3.165-0.16-5.478-1.144-7.002-2.928-0.464-0.543-0.719-1.234-0.719-1.948v-0.77c0-0.551 0.447-0.999 0.999-0.999h11.47zM16.001 2.673c3.682 0 6.667 2.985 6.667 6.667s-2.985 6.667-6.667 6.667c-3.682 0-6.667-2.985-6.667-6.667s2.985-6.667 6.667-6.667zM16.001 4.673c-2.577 0-4.667 2.089-4.667 4.667s2.089 4.667 4.667 4.667c2.577 0 4.667-2.089 4.667-4.667s-2.089-4.667-4.667-4.667zM25.467 16.893l-7.87 7.87c-0.459 0.459-0.784 1.034-0.942 1.663l-0.61 2.441c-0.265 1.061 0.696 2.023 1.758 1.758l2.441-0.61c0.629-0.157 1.204-0.483 1.663-0.942l7.87-7.87c1.19-1.19 1.19-3.12 0-4.31s-3.12-1.19-4.31 0z"></path>
</svg>
