<!-- Generated by IcoMoon.io -->
<svg version="1.1" xmlns="http://www.w3.org/2000/svg" width="32" height="32" viewBox="0 0 32 32">
<title>person-feedback-regular</title>
<path d="M14.333 18.667c1.657 0 3 1.343 3 3v0 2.003l-0.011 0.144c-0.413 2.836-2.96 4.199-7.233 4.199-4.257 0-6.845-1.347-7.404-4.149l-0.019-0.196v-2c0-1.657 1.343-3 3-3v0h8.667zM14.333 20.667h-8.667c-0.552 0-1 0.448-1 1v0 1.893c0.373 1.6 2.067 2.452 5.423 2.452 3.355 0 4.973-0.841 5.244-2.421v-1.924c0-0.552-0.448-1-1-1v0zM10 8c2.577 0 4.667 2.089 4.667 4.667s-2.089 4.667-4.667 4.667v0c-2.577 0-4.667-2.089-4.667-4.667s2.089-4.667 4.667-4.667v0zM26.333 2.667c1.657 0 3 1.343 3 3v0 4.667c0 1.657-1.343 3-3 3v0h-1.94l-2.888 2.855c-0.301 0.298-0.715 0.482-1.172 0.482-0.92 0-1.666-0.746-1.667-1.666v-1.689c-1.507-0.173-2.667-1.442-2.667-2.981v0-4.667c0-1.657 1.343-3 3-3v0h7.333zM10 10c-1.473 0-2.667 1.194-2.667 2.667s1.194 2.667 2.667 2.667v0c1.473 0 2.667-1.194 2.667-2.667s-1.194-2.667-2.667-2.667v0zM26.333 4.667h-7.333c-0.552 0-1 0.448-1 1v0 4.667c0 0.552 0.448 1 1 1h1.665v2.872l2.908-2.872h2.761c0.552 0 1-0.448 1-1v0-4.667c0-0.552-0.448-1-1-1v0z"></path>
</svg>
