<!-- Generated by IcoMoon.io -->
<svg version="1.1" xmlns="http://www.w3.org/2000/svg" width="32" height="32" viewBox="0 0 32 32">
<title>person-arrow-back</title>
<path d="M14.667 2.667c3.682 0 6.667 2.985 6.667 6.667s-2.985 6.667-6.667 6.667-6.667-2.985-6.667-6.667 2.985-6.667 6.667-6.667zM9.667 9.333c0 2.761 2.239 5 5 5s5-2.239 5-5v0c0-2.761-2.239-5-5-5s-5 2.239-5 5v0zM6.833 18.667c-1.565 0-2.833 1.268-2.833 2.833v0.501c0 2.503 1.295 4.378 3.28 5.587 1.953 1.189 4.577 1.747 7.387 1.747 0.781 0 1.548-0.043 2.29-0.131-0.426-0.461-0.806-0.975-1.128-1.528l-0.022-0.042c-0.372 0.023-0.753 0.034-1.14 0.034-2.621 0-4.913-0.525-6.52-1.503-1.573-0.958-2.48-2.333-2.48-4.163v-0.501c0-0.644 0.523-1.166 1.167-1.166h8.367c0.217-0.588 0.496-1.147 0.829-1.667h-9.196zM30.667 23.333c0 4.050-3.283 7.333-7.333 7.333s-7.333-3.283-7.333-7.333 3.283-7.333 7.333-7.333 7.333 3.283 7.333 7.333zM21.138 21.138c0.116-0.12 0.187-0.283 0.187-0.463 0-0.368-0.298-0.667-0.667-0.667-0.18 0-0.343 0.071-0.463 0.187l-2 2c-0.121 0.121-0.195 0.287-0.195 0.471s0.075 0.351 0.195 0.471l2 2c0.12 0.116 0.283 0.187 0.463 0.187 0.368 0 0.667-0.298 0.667-0.667 0-0.18-0.071-0.343-0.187-0.463l-0.862-0.862h3.724c1.473 0 2.667 1.194 2.667 2.667v0c0 0.368 0.298 0.667 0.667 0.667s0.667-0.298 0.667-0.667v0c0-2.209-1.791-4-4-4v0h-3.724l0.862-0.862z"></path>
</svg>
