<!-- Generated by IcoMoon.io -->
<svg version="1.1" xmlns="http://www.w3.org/2000/svg" width="32" height="32" viewBox="0 0 32 32">
<title>person-accounts</title>
<path d="M17.333 18.733v-0.067h-11.663c-0 0-0.001 0-0.001 0-1.656 0-2.999 1.343-2.999 2.999v0 0.771c0 1.189 0.427 2.341 1.2 3.247 2.087 2.445 5.268 3.653 9.463 3.653 0.477 0 0.941-0.017 1.391-0.048-0.036-0.186-0.057-0.399-0.057-0.617 0-0.002 0-0.003 0-0.005v0-1.38c-0.428 0.032-0.872 0.048-1.333 0.048-3.651 0-6.272-0.995-7.943-2.951-0.447-0.521-0.72-1.203-0.72-1.949v-0.769c0-0.552 0.448-1 1-1h9.273c0.438-0.984 1.311-1.706 2.368-1.928l0.022-0.004zM13.333 2.673c3.682 0 6.667 2.985 6.667 6.667s-2.985 6.667-6.667 6.667v0c-3.682 0-6.667-2.985-6.667-6.667s2.985-6.667 6.667-6.667v0zM13.333 4.673c-2.577 0-4.667 2.089-4.667 4.667s2.089 4.667 4.667 4.667v0c2.577 0 4.667-2.089 4.667-4.667s-2.089-4.667-4.667-4.667v0zM18.667 20h-0.667c-1.105 0-2 0.895-2 2v0 6.667c0 1.105 0.895 2 2 2v0h10.667c1.105 0 2-0.895 2-2v0-6.667c0-1.105-0.895-2-2-2v0h-0.667v-1.667c0-1.289-1.045-2.333-2.333-2.333v0h-4.667c-1.289 0-2.333 1.045-2.333 2.333v0 1.667zM20.667 18.333c0-0.184 0.149-0.333 0.333-0.333v0h4.667c0.184 0 0.333 0.149 0.333 0.333v0 1.667h-5.333v-1.667z"></path>
</svg>
