<!-- Generated by IcoMoon.io -->
<svg version="1.1" xmlns="http://www.w3.org/2000/svg" width="32" height="32" viewBox="0 0 32 32">
<title>person-pill</title>
<path d="M14.877 27.301c0.087 0.707 0.32 1.4 0.7 2.029-3.986-0.079-7.023-1.286-9.041-3.648-0.773-0.905-1.198-2.057-1.198-3.247v-0.77c0-1.656 1.342-2.999 2.998-2.999h12.364l-2 2h-10.364c-0.551 0-0.998 0.447-0.998 0.999v0.77c0 0.714 0.255 1.405 0.719 1.948 1.495 1.75 3.749 2.73 6.82 2.918zM16 2.673c3.682 0 6.667 2.985 6.667 6.667s-2.985 6.667-6.667 6.667c-3.682 0-6.667-2.985-6.667-6.667s2.985-6.667 6.667-6.667zM16 4.673c-2.577 0-4.667 2.089-4.667 4.667s2.089 4.667 4.667 4.667c2.577 0 4.667-2.089 4.667-4.667s-2.089-4.667-4.667-4.667zM29.374 17.293c-1.495-1.495-3.919-1.495-5.414 0l-6.667 6.667c-1.495 1.495-1.495 3.919 0 5.414s3.919 1.495 5.414 0l6.667-6.667c1.495-1.495 1.495-3.919 0-5.414zM25.374 18.707c0.714-0.714 1.872-0.714 2.586 0s0.714 1.872 0 2.586l-2.626 2.626-2.586-2.586 2.626-2.626zM22.707 25.293c0.391 0.391 0.391 1.024 0 1.414l-1.333 1.333c-0.391 0.391-1.024 0.391-1.414 0s-0.391-1.024 0-1.414l1.333-1.333c0.391-0.391 1.024-0.391 1.414 0z"></path>
</svg>
