<!-- Generated by IcoMoon.io -->
<svg version="1.1" xmlns="http://www.w3.org/2000/svg" width="32" height="32" viewBox="0 0 32 32">
<title>phone-update-checkmark-regular</title>
<path d="M11 29.333h6.080c-0.555-0.578-1.034-1.235-1.415-1.953l-0.023-0.047h-4.643c-0.552 0-1-0.448-1-1v0-20.667c0-0.552 0.448-1 1-1v0h10c0.552 0 1 0.448 1 1v0 9.101c0.4-0.065 0.86-0.102 1.33-0.102 0.236 0 0.47 0.009 0.701 0.028l-0.031-0.002v-9.025c0-1.657-1.343-3-3-3v0h-10c-1.657 0-3 1.343-3 3v0 20.667c0 1.657 1.343 3 3 3v0zM15 20.945c0.402-1.375 1.092-2.559 2.004-3.533l-0.004 0.005v-4.74l1.281 1.281c0.181 0.181 0.431 0.294 0.708 0.294 0.224 0 0.431-0.074 0.598-0.198l-0.003 0.002 0.112-0.097c0.181-0.181 0.293-0.431 0.293-0.707 0-0.224-0.073-0.43-0.198-0.597l0.002 0.003-0.097-0.112-3.040-3.037-0.083-0.065-0.089-0.055-0.080-0.040-0.135-0.048-0.084-0.020-0.123-0.015h-0.125l-0.121 0.015-0.129 0.033-0.149 0.063-0.101 0.061-0.143 0.119-2.989 2.989c-0.179 0.181-0.29 0.43-0.29 0.704 0 0.552 0.448 1 1 1 0.223 0 0.428-0.073 0.594-0.196l-0.003 0.002 0.113-0.097 1.28-1.28v8.267zM30.667 23.333c0 4.050-3.283 7.333-7.333 7.333s-7.333-3.283-7.333-7.333v0c0-4.050 3.283-7.333 7.333-7.333s7.333 3.283 7.333 7.333v0zM27.805 20.195c-0.121-0.121-0.288-0.196-0.472-0.196s-0.351 0.075-0.472 0.196v0l-4.861 4.863-2.195-2.196c-0.121-0.121-0.288-0.195-0.472-0.195-0.369 0-0.668 0.299-0.668 0.668 0 0.184 0.075 0.351 0.195 0.472l2.667 2.667c0.121 0.121 0.288 0.196 0.472 0.196s0.351-0.075 0.472-0.196v0l5.333-5.333c0.121-0.121 0.196-0.288 0.196-0.472s-0.075-0.351-0.196-0.472v0z"></path>
</svg>
