<!-- Generated by IcoMoon.io -->
<svg version="1.1" xmlns="http://www.w3.org/2000/svg" width="32" height="32" viewBox="0 0 32 32">
<title>phone-screen-time-regular</title>
<path d="M23.333 16c4.050 0 7.333 3.283 7.333 7.333s-3.283 7.333-7.333 7.333v0c-4.050 0-7.333-3.283-7.333-7.333s3.283-7.333 7.333-7.333v0zM18.333 2.667c1.657 0 3 1.343 3 3v0 9.232c-0.759 0.182-1.425 0.437-2.047 0.767l0.047-0.023v-9.976c0-0.552-0.448-1-1-1v0h-10c-0.552 0-1 0.448-1 1v0 20.667c0 0.552 0.448 1 1 1l7.311 0.001c0.403 0.765 0.881 1.422 1.439 2.003l-0.003-0.003-8.747-0.001c-1.657 0-3-1.343-3-3v0-20.667c0-1.657 1.343-3 3-3v0h10zM11.665 23.339l3.001-0.007c0 0.689 0.080 1.36 0.232 2l-3.231 0.007c-0 0-0.001 0-0.001 0-0.552 0-1-0.448-1-1s0.447-0.999 0.999-1h0zM22 18.667c-0.368 0-0.667 0.298-0.667 0.667v0 5.333c0 0.368 0.298 0.667 0.667 0.667v0h4.003c0.368 0 0.667-0.298 0.667-0.667s-0.298-0.667-0.667-0.667v0h-3.336v-4.667c0-0.368-0.298-0.667-0.667-0.667v0z"></path>
</svg>
