<!-- Generated by IcoMoon.io -->
<svg version="1.1" xmlns="http://www.w3.org/2000/svg" width="32" height="32" viewBox="0 0 32 32">
<title>phone-tablet-regular</title>
<path d="M11.007 9.333c1.289 0 2.333 1.044 2.333 2.333v12.667c0 1.289-1.045 2.333-2.333 2.333v0h-6.005c-1.289 0-2.333-1.045-2.333-2.333v0-12.667c0-1.289 1.044-2.333 2.333-2.333h6.005zM11.007 11.333h-6.005c-0.184 0-0.333 0.149-0.333 0.333v0 12.667c0 0.184 0.149 0.333 0.333 0.333h6.005c0.184 0 0.333-0.149 0.333-0.333v0-12.667c0-0.184-0.149-0.333-0.333-0.333v0zM8.337 21.333c0.552 0 1 0.448 1 1 0 0.504-0.373 0.921-0.858 0.99l-0.005 0.001-0.136 0.009h-0.667c-0.552-0-1-0.448-1-1 0-0.504 0.373-0.921 0.858-0.99l0.005-0.001 0.136-0.009h0.667zM26.333 5.333c0 0 0 0 0 0 1.585 0 2.882 1.229 2.992 2.785l0.001 0.010 0.007 0.205v11.333c0 0 0 0 0 0 0 1.585-1.229 2.882-2.785 2.992l-0.010 0.001-0.205 0.007h-11.667v-2h11.667c0 0 0.001 0 0.001 0 0.504 0 0.921-0.373 0.99-0.859l0.001-0.005 0.008-0.136v-11.333c-0-0.504-0.373-0.921-0.859-0.99l-0.005-0.001-0.136-0.009h-15.333c-0.433 0-0.801 0.275-0.94 0.66l-0.002 0.007h-2.039c0.165-1.433 1.318-2.55 2.753-2.658l0.010-0.001 0.219-0.008h15.333zM20.333 17.333c0.552 0 1 0.448 1 1s-0.448 1-1 1v0h-3.333c-0.552 0-1-0.448-1-1s0.448-1 1-1v0h3.333z"></path>
</svg>
