<!-- Generated by IcoMoon.io -->
<svg version="1.1" xmlns="http://www.w3.org/2000/svg" width="32" height="32" viewBox="0 0 32 32">
<title>phone-arrow-right</title>
<path d="M18.333 2.667c1.657 0 3 1.343 3 3v0 7.692c-0.692 0.053-1.361 0.187-2 0.392v-8.084c0-0.552-0.448-1-1-1v0h-10c-0.552 0-1 0.448-1 1v0 20.667c0 0.552 0.448 1 1 1h6.836c0.619 0.787 1.35 1.452 2.177 1.98l0.035 0.021-9.048-0.001c-1.657 0-3-1.343-3-3v0-20.667c0-1.657 1.343-3 3-3v0h10zM22 14.667c4.050 0 7.333 3.283 7.333 7.333s-3.283 7.333-7.333 7.333v0c-4.050 0-7.333-3.283-7.333-7.333s3.283-7.333 7.333-7.333v0zM22.288 18.119l-0.093 0.076-0.076 0.093c-0.074 0.106-0.118 0.237-0.118 0.379s0.044 0.273 0.119 0.381l-0.001-0.002 0.076 0.093 2.195 2.193-6.397 0.001-0.12 0.011c-0.273 0.051-0.485 0.263-0.535 0.532l-0.001 0.004-0.011 0.12 0.011 0.12c0.051 0.273 0.263 0.485 0.532 0.535l0.004 0.001 0.12 0.011 6.4-0.001-2.197 2.196-0.076 0.093c-0.073 0.105-0.116 0.236-0.116 0.376 0 0.368 0.298 0.667 0.667 0.667 0.141 0 0.271-0.044 0.379-0.118l-0.002 0.001 0.093-0.076 3.373-3.377 0.048-0.067 0.056-0.107 0.035-0.111 0.013-0.085v-0.117l-0.013-0.085-0.035-0.111-0.055-0.107-0.051-0.067-3.373-3.377-0.092-0.076c-0.106-0.074-0.238-0.119-0.38-0.119-0.1 0-0.195 0.022-0.28 0.062l0.004-0.002-0.101 0.059zM13.435 23.336c0.109 0.697 0.3 1.367 0.563 1.999l-2.329 0.004c-0 0-0.001 0-0.001 0-0.552 0-1-0.448-1-1s0.447-0.999 0.999-1l1.771-0.003z"></path>
</svg>
