<!-- Generated by IcoMoon.io -->
<svg version="1.1" xmlns="http://www.w3.org/2000/svg" width="32" height="32" viewBox="0 0 32 32">
<title>phone-vibrate</title>
<path d="M21 2.667c1.657 0 3 1.343 3 3v20.667c0 1.657-1.343 3-3 3h-10c-1.657 0-3-1.343-3-3v-20.667c0-1.657 1.343-3 3-3h10zM21 4.667h-10c-0.552 0-1 0.448-1 1v20.667c0 0.552 0.448 1 1 1h10c0.552 0 1-0.448 1-1v-20.667c0-0.552-0.448-1-1-1zM17.665 23.333c0.552-0.001 1.001 0.446 1.001 0.999s-0.446 1.001-0.998 1.001l-3.333 0.005c-0.552 0.001-1.001-0.446-1.002-0.999s0.446-1.001 0.999-1.001l3.333-0.005zM27.536 10.839l0.059 0.123 0.777 1.942c0.443 1.109 0.318 2.359-0.325 3.353l-0.146 0.209-0.202 0.269c-0.31 0.414-0.409 0.944-0.275 1.437l0.061 0.183 0.777 1.942c0.205 0.513-0.044 1.095-0.557 1.3-0.47 0.188-0.998-0.006-1.241-0.435l-0.059-0.123-0.777-1.942c-0.443-1.109-0.318-2.359 0.325-3.353l0.146-0.209 0.202-0.269c0.31-0.414 0.409-0.944 0.275-1.437l-0.061-0.183-0.777-1.942c-0.205-0.513 0.044-1.095 0.557-1.3 0.423-0.169 0.893-0.029 1.16 0.313l0.081 0.121zM5.536 10.839l0.059 0.123 0.777 1.942c0.444 1.109 0.318 2.359-0.325 3.353l-0.146 0.209-0.202 0.269c-0.31 0.414-0.409 0.944-0.275 1.437l0.061 0.183 0.777 1.942c0.205 0.513-0.044 1.095-0.557 1.3-0.47 0.188-0.998-0.006-1.241-0.435l-0.059-0.123-0.777-1.942c-0.444-1.109-0.318-2.359 0.325-3.353l0.146-0.209 0.202-0.269c0.31-0.414 0.409-0.944 0.275-1.437l-0.061-0.183-0.777-1.942c-0.205-0.513 0.044-1.095 0.557-1.3 0.423-0.169 0.893-0.029 1.16 0.313l0.081 0.121z"></path>
</svg>
