<!-- Generated by IcoMoon.io -->
<svg version="1.1" xmlns="http://www.w3.org/2000/svg" width="32" height="32" viewBox="0 0 32 32">
<title>phone-checkmark-regular</title>
<path d="M28.8 8.8c0 3.976-3.224 7.2-7.2 7.2s-7.2-3.224-7.2-7.2v0c0-3.976 3.224-7.2 7.2-7.2s7.2 3.224 7.2 7.2v0zM25.366 5.834c-0.145-0.145-0.345-0.235-0.566-0.235s-0.422 0.090-0.566 0.235l-4.234 4.235-1.034-1.035c-0.145-0.145-0.345-0.235-0.566-0.235-0.442 0-0.801 0.359-0.801 0.801 0 0.221 0.090 0.421 0.235 0.566v0l1.6 1.6c0.145 0.145 0.345 0.235 0.566 0.235s0.422-0.090 0.566-0.235l4.8-4.8c0.145-0.145 0.235-0.345 0.235-0.566s-0.090-0.422-0.235-0.566l-0-0zM14.811 3.2h-4.411c-1.325 0-2.4 1.075-2.4 2.4v0 20.8c0 1.325 1.075 2.4 2.4 2.4v0h11.2c1.325 0 2.4-1.075 2.4-2.4v0-9.131c-0.462 0.137-1.006 0.241-1.565 0.293l-0.035 0.003v8.835c0 0.442-0.358 0.8-0.8 0.8v0h-11.2c-0.442 0-0.8-0.358-0.8-0.8v0-20.8c0-0.442 0.358-0.8 0.8-0.8v0h3.36c0.293-0.573 0.646-1.109 1.051-1.6zM12.8 23.2c0-0.442 0.358-0.8 0.8-0.8v0h4.8c0.442 0 0.8 0.358 0.8 0.8s-0.358 0.8-0.8 0.8v0h-4.8c-0.442 0-0.8-0.358-0.8-0.8v0z"></path>
</svg>
