<!-- Generated by IcoMoon.io -->
<svg version="1.1" xmlns="http://www.w3.org/2000/svg" width="32" height="32" viewBox="0 0 32 32">
<title>phone-screen-time</title>
<path d="M23.333 16c4.050 0 7.333 3.283 7.333 7.333s-3.283 7.333-7.333 7.333c-4.050 0-7.333-3.283-7.333-7.333s3.283-7.333 7.333-7.333zM18.333 2.667c1.657 0 3 1.343 3 3l0 9.232c-0.704 0.166-1.375 0.418-2 0.745l0-9.976c0-0.552-0.448-1-1-1h-10c-0.552 0-1 0.448-1 1v20.667c0 0.552 0.448 1 1 1l7.31 0.001c0.383 0.735 0.868 1.407 1.437 2l-8.747-0.001c-1.657 0-3-1.343-3-3v-20.667c0-1.657 1.343-3 3-3h10zM11.665 23.338l3.002-0.006c0 0.69 0.080 1.359 0.232 2.001l-3.23 0.005c-0.552 0.001-1.001-0.446-1.002-0.999s0.446-1.001 0.998-1.001zM22 18.667c-0.368 0-0.667 0.299-0.667 0.667v5.333c0 0.368 0.299 0.667 0.667 0.667h4.002c0.368 0 0.667-0.299 0.667-0.667s-0.299-0.667-0.667-0.667h-3.335v-4.667c0-0.368-0.299-0.667-0.667-0.667z"></path>
</svg>
