<!-- Generated by IcoMoon.io -->
<svg version="1.1" xmlns="http://www.w3.org/2000/svg" width="32" height="32" viewBox="0 0 32 32">
<title>phone-update</title>
<path d="M21 2.667c1.657 0 3 1.343 3 3v0 20.667c0 1.657-1.343 3-3 3v0h-10c-1.657 0-3-1.343-3-3v0-20.667c0-1.657 1.343-3 3-3v0h10zM21 4.667h-10c-0.552 0-1 0.448-1 1v0 20.667c0 0.552 0.448 1 1 1h10c0.552 0 1-0.448 1-1v0-20.667c0-0.552-0.448-1-1-1v0zM16 9.373c0.505 0 0.923 0.375 0.99 0.861l0.001 0.005 0.009 0.133v8.949l1.281-1.281c0.181-0.181 0.431-0.294 0.708-0.294 0.224 0 0.431 0.074 0.598 0.198l-0.003-0.002 0.112 0.097c0.181 0.181 0.293 0.431 0.293 0.707 0 0.224-0.073 0.43-0.198 0.597l0.002-0.003-0.097 0.113-3.040 3.036-0.083 0.065-0.089 0.055-0.080 0.040-0.135 0.048-0.084 0.020-0.123 0.015h-0.125l-0.121-0.015-0.129-0.033-0.149-0.063-0.101-0.061-0.143-0.119-2.989-2.988c-0.182-0.181-0.295-0.432-0.295-0.709 0-0.552 0.448-1 1-1 0.225 0 0.432 0.074 0.599 0.199l-0.003-0.002 0.113 0.097 1.28 1.28 0.001-8.947c0-0 0-0 0-0 0-0.457 0.307-0.843 0.726-0.962l0.007-0.002 0.131-0.027 0.136-0.011z"></path>
</svg>
