<!-- Generated by IcoMoon.io -->
<svg version="1.1" xmlns="http://www.w3.org/2000/svg" width="32" height="32" viewBox="0 0 32 32">
<title>phone-link-setup</title>
<path d="M23.333 16c0.391 0 0.774 0.033 1.148 0.096l0.231 0.955c0.345 1.432 1.786 2.312 3.218 1.967l0.13-0.035 0.801-0.239c0.483 0.623 0.871 1.329 1.138 2.094l-0.596 0.574c-1.005 0.967-1.087 2.533-0.225 3.598l0.189 0.209 0.633 0.61c-0.267 0.765-0.654 1.47-1.137 2.093l-0.802-0.237c-1.412-0.417-2.896 0.389-3.313 1.802l-0.035 0.13-0.231 0.955c-0.374 0.063-0.757 0.096-1.148 0.096s-0.775-0.033-1.149-0.096l-0.23-0.955c-0.345-1.432-1.786-2.312-3.218-1.967l-0.13 0.035-0.802 0.237c-0.483-0.622-0.87-1.328-1.137-2.093l0.596-0.574c1.005-0.967 1.087-2.533 0.225-3.598l-0.189-0.209-0.633-0.61c0.267-0.765 0.654-1.47 1.137-2.093l0.802 0.237c1.412 0.417 2.896-0.389 3.313-1.802l0.035-0.13 0.23-0.955c0.374-0.063 0.758-0.096 1.149-0.096zM18.333 2.667c1.657 0 3 1.343 3 3l0 9.232c-0.704 0.166-1.375 0.418-2 0.745l0-9.976c0-0.552-0.448-1-1-1h-10c-0.552 0-1 0.448-1 1v20.667c0 0.552 0.448 1 1 1l7.31 0.001c0.383 0.735 0.868 1.407 1.437 2l-8.747-0.001c-1.657 0-3-1.343-3-3v-20.667c0-1.657 1.343-3 3-3h10zM11.665 23.338l3.002-0.006c0 0.69 0.080 1.359 0.232 2.001l-3.23 0.005c-0.552 0.001-1.001-0.446-1.002-0.999s0.446-1.001 0.998-1.001zM23.333 21.333c-1.067 0-1.933 0.895-1.933 2s0.865 2 1.933 2c1.067 0 1.933-0.895 1.933-2s-0.865-2-1.933-2z"></path>
</svg>
