<!-- Generated by IcoMoon.io -->
<svg version="1.1" xmlns="http://www.w3.org/2000/svg" width="32" height="32" viewBox="0 0 32 32">
<title>phone-span-in</title>
<path d="M10 2.286c-1.736 0-3.143 1.407-3.143 3.143v0 5.862c0.514-0.344 1.123-0.483 1.714-0.417v-5.445c0-0.789 0.64-1.429 1.429-1.429h12c0.789 0 1.429 0.64 1.429 1.429v5.445c0.086-0.010 0.185-0.016 0.286-0.016 0.532 0 1.027 0.162 1.437 0.439l-0.009-0.006v-5.862c0-1.736-1.407-3.143-3.143-3.143v0h-12zM28.571 16.857c0-0.473-0.384-0.857-0.857-0.857v0h-5.36l1.966-1.966c0.168-0.157 0.273-0.38 0.273-0.627 0-0.473-0.384-0.857-0.857-0.857-0.247 0-0.47 0.105-0.627 0.272l-0 0.001-3.429 3.429c-0.155 0.155-0.251 0.369-0.251 0.606s0.096 0.451 0.251 0.606v0l3.429 3.429c0.157 0.168 0.38 0.273 0.627 0.273 0.473 0 0.857-0.384 0.857-0.857 0-0.247-0.105-0.47-0.272-0.627l-0-0-1.966-1.966h5.36c0.473 0 0.857-0.384 0.857-0.857v0zM25.143 22.424c-0.514 0.344-1.123 0.483-1.714 0.417v3.73c0 0.789-0.64 1.429-1.429 1.429h-12c-0.789 0-1.429-0.64-1.429-1.429v-3.73c-0.086 0.010-0.185 0.016-0.286 0.016-0.532 0-1.027-0.162-1.437-0.439l0.009 0.006v4.147c0 1.736 1.407 3.143 3.143 3.143v0h12c1.736 0 3.143-1.407 3.143-3.143v0-4.149zM8.571 12.621c-0.085-0.031-0.182-0.049-0.284-0.049-0.473 0-0.857 0.384-0.857 0.857 0 0.236 0.096 0.45 0.25 0.605l1.966 1.966h-5.36c-0.473 0-0.857 0.384-0.857 0.857s0.384 0.857 0.857 0.857v0h5.36l-1.966 1.966c-0.168 0.157-0.273 0.38-0.273 0.627 0 0.473 0.384 0.857 0.857 0.857 0.247 0 0.47-0.105 0.627-0.272l0-0 3.429-3.429c0.155-0.155 0.251-0.369 0.251-0.606s-0.096-0.451-0.251-0.606v0l-3.429-3.429c-0.088-0.088-0.195-0.157-0.314-0.2l-0.006-0.002z"></path>
</svg>
