<!-- Generated by IcoMoon.io -->
<svg version="1.1" xmlns="http://www.w3.org/2000/svg" width="32" height="32" viewBox="0 0 32 32">
<title>phone-eraser</title>
<path d="M23.325 2.304c0.434-0.434 1.034-0.702 1.696-0.702s1.262 0.268 1.696 0.702l2.982 2.976c0.435 0.434 0.704 1.035 0.704 1.698s-0.269 1.263-0.703 1.698l-8.221 8.221c-0.434 0.435-1.035 0.703-1.698 0.703s-1.263-0.269-1.698-0.703v0l-2.979-2.978c-0.435-0.434-0.704-1.035-0.704-1.698s0.269-1.263 0.703-1.698l8.222-8.221zM16.235 11.656c-0.145 0.145-0.234 0.345-0.234 0.566s0.090 0.421 0.234 0.566l2.978 2.979c0.145 0.145 0.345 0.235 0.566 0.235s0.422-0.090 0.566-0.235l2.064-2.064-4.112-4.112-2.064 2.064zM20.051 3.314c-0.253-0.072-0.545-0.114-0.846-0.114-0.002 0-0.004 0-0.006 0h-9.6c-1.767 0-3.2 1.433-3.2 3.2v0 19.2c0 1.767 1.433 3.2 3.2 3.2v0h9.6c1.767 0 3.2-1.433 3.2-3.2v0-7.376c-0.475 0.411-1.024 0.693-1.6 0.845v6.531c0 0.884-0.716 1.6-1.6 1.6v0h-9.6c-0.884 0-1.6-0.716-1.6-1.6v0-19.2c0-0.884 0.716-1.6 1.6-1.6v0h8.965l1.486-1.486zM12 23.2c0-0.442 0.358-0.8 0.8-0.8v0h3.2c0.442 0 0.8 0.358 0.8 0.8s-0.358 0.8-0.8 0.8v0h-3.2c-0.442 0-0.8-0.358-0.8-0.8v0z"></path>
</svg>
