<!-- Generated by IcoMoon.io -->
<svg version="1.1" xmlns="http://www.w3.org/2000/svg" width="32" height="32" viewBox="0 0 32 32">
<title>phone-desktop-regular</title>
<path d="M11.139 11.429c1.358 0 2.47 1.053 2.564 2.387l0 0.008 0.007 0.176v13.143c0 0 0 0 0 0 0 1.359-1.054 2.471-2.388 2.565l-0.008 0-0.175 0.006h-6.282c-0 0-0 0-0 0-1.358 0-2.47-1.053-2.565-2.387l-0-0.008-0.006-0.176v-13.143c0-0 0-0 0-0 0-1.358 1.053-2.47 2.387-2.565l0.008-0 0.176-0.006h6.282zM11.139 13.143h-6.282c-0.432 0-0.79 0.32-0.849 0.736l-0.001 0.005-0.008 0.117v13.143c0 0.434 0.322 0.793 0.741 0.849l0.117 0.008h6.282c0.432-0 0.79-0.32 0.849-0.736l0.001-0.005 0.008-0.117v-13.143c-0-0.433-0.321-0.79-0.737-0.849l-0.005-0.001-0.115-0.008zM8.857 24.571c0.473 0 0.857 0.384 0.857 0.857 0 0.432-0.32 0.79-0.736 0.849l-0.005 0.001-0.117 0.008h-1.715c-0.473-0-0.857-0.384-0.857-0.857 0-0.432 0.32-0.79 0.736-0.849l0.005-0.001 0.117-0.008h1.715zM27.146 2.286c1.358 0 2.47 1.053 2.564 2.387l0 0.008 0.007 0.176v12.857c0 0 0 0 0 0 0 1.358-1.053 2.471-2.387 2.565l-0.008 0-0.176 0.006h-5.434v3.143h1.431c0.473 0 0.857 0.384 0.857 0.857 0 0.432-0.32 0.79-0.736 0.849l-0.005 0.001-0.117 0.008h-8.286v-1.714h5.141v-3.143h-5.141v-1.714h12.289c0.432-0 0.79-0.32 0.849-0.736l0.001-0.005 0.008-0.117v-12.857c-0-0.433-0.321-0.79-0.737-0.849l-0.005-0.001-0.115-0.008h-18.861c-0.432 0-0.79 0.32-0.849 0.736l-0.001 0.005-0.008 0.117v5.429h-1.714v-5.429c0-0 0-0 0-0 0-1.358 1.053-2.47 2.387-2.565l0.008-0 0.176-0.006h18.861z"></path>
</svg>
