<!-- Generated by IcoMoon.io -->
<svg version="1.1" xmlns="http://www.w3.org/2000/svg" width="32" height="32" viewBox="0 0 32 32">
<title>phone-update-checkmark</title>
<path d="M11 29.333h6.079c-0.569-0.592-1.054-1.265-1.437-2h-4.643c-0.552 0-1-0.448-1-1v-20.667c0-0.552 0.448-1 1-1h10c0.552 0 1 0.448 1 1v9.102c0.435-0.067 0.88-0.102 1.333-0.102 0.224 0 0.447 0.009 0.667 0.025v-9.025c0-1.657-1.343-3-3-3h-10c-1.657 0-3 1.343-3 3v20.667c0 1.657 1.343 3 3 3zM15 20.945c0.382-1.336 1.077-2.539 2-3.527l-0.001-4.74 1.283 1.281c0.355 0.355 0.911 0.387 1.302 0.097l0.112-0.097c0.355-0.355 0.387-0.911 0.097-1.302l-0.097-0.112-2.989-2.989-0.051-0.048-0.083-0.065-0.089-0.055-0.081-0.040-0.134-0.048-0.083-0.019-0.123-0.015h-0.125l-0.122 0.015-0.129 0.033-0.149 0.063-0.102 0.062-0.143 0.118-2.989 2.989c-0.391 0.391-0.391 1.024 0 1.414 0.355 0.355 0.911 0.387 1.302 0.097l0.112-0.097 1.281-1.281 0.001 8.267zM30.667 23.333c0 4.050-3.283 7.333-7.333 7.333s-7.333-3.283-7.333-7.333c0-4.050 3.283-7.333 7.333-7.333s7.333 3.283 7.333 7.333zM27.805 20.195c-0.26-0.26-0.683-0.26-0.943 0l-4.862 4.862-2.195-2.195c-0.26-0.26-0.683-0.26-0.943 0s-0.26 0.683 0 0.943l2.667 2.667c0.26 0.26 0.683 0.26 0.943 0l5.333-5.333c0.26-0.26 0.26-0.683 0-0.943z"></path>
</svg>
