<!-- Generated by IcoMoon.io -->
<svg version="1.1" xmlns="http://www.w3.org/2000/svg" width="32" height="32" viewBox="0 0 32 32">
<title>phone-vibrate</title>
<path d="M21 2.667c1.657 0 3 1.343 3 3v0 20.667c0 1.657-1.343 3-3 3v0h-10c-1.657 0-3-1.343-3-3v0-20.667c0-1.657 1.343-3 3-3v0h10zM21 4.667h-10c-0.552 0-1 0.448-1 1v0 20.667c0 0.552 0.448 1 1 1h10c0.552 0 1-0.448 1-1v0-20.667c0-0.552-0.448-1-1-1v0zM17.665 23.333c0 0 0.001 0 0.001 0 0.552 0 1 0.448 1 1s-0.447 0.999-0.999 1l-3.333 0.005c-0 0-0.001 0-0.001 0-0.552 0-1-0.448-1-1s0.447-0.999 0.999-1l3.333-0.005zM27.536 10.84l0.059 0.121 0.777 1.943c0.166 0.403 0.262 0.871 0.262 1.361 0 0.74-0.219 1.429-0.596 2.005l0.009-0.014-0.147 0.209-0.2 0.269c-0.208 0.275-0.334 0.623-0.334 1.001 0 0.155 0.021 0.305 0.061 0.447l-0.003-0.012 0.061 0.183 0.776 1.943c0.044 0.109 0.070 0.235 0.070 0.368 0 0.552-0.448 1-1 1-0.369 0-0.692-0.2-0.865-0.498l-0.003-0.005-0.059-0.124-0.777-1.941c-0.166-0.403-0.262-0.871-0.262-1.361 0-0.74 0.219-1.429 0.596-2.005l-0.009 0.014 0.147-0.209 0.2-0.269c0.208-0.275 0.334-0.623 0.334-1.001 0-0.155-0.021-0.305-0.061-0.447l0.003 0.012-0.061-0.183-0.776-1.941c-0.046-0.11-0.072-0.239-0.072-0.373 0-0.552 0.448-1 1-1 0.32 0 0.605 0.15 0.788 0.384l0.002 0.002 0.080 0.12zM5.536 10.84l0.059 0.121 0.777 1.943c0.166 0.403 0.262 0.871 0.262 1.361 0 0.74-0.219 1.429-0.596 2.005l0.009-0.014-0.147 0.209-0.2 0.269c-0.208 0.275-0.334 0.623-0.334 1.001 0 0.155 0.021 0.305 0.061 0.447l-0.003-0.012 0.061 0.183 0.776 1.943c0.044 0.109 0.070 0.235 0.070 0.368 0 0.552-0.448 1-1 1-0.369 0-0.692-0.2-0.865-0.498l-0.003-0.005-0.059-0.124-0.777-1.941c-0.166-0.403-0.262-0.871-0.262-1.361 0-0.74 0.219-1.429 0.596-2.005l-0.009 0.014 0.147-0.209 0.2-0.269c0.208-0.275 0.334-0.623 0.334-1.001 0-0.155-0.021-0.305-0.061-0.447l0.003 0.012-0.061-0.183-0.776-1.941c-0.045-0.109-0.071-0.236-0.071-0.369 0-0.552 0.448-1 1-1 0.318 0 0.602 0.149 0.785 0.381l0.002 0.002 0.081 0.12z"></path>
</svg>
