<!-- Generated by IcoMoon.io -->
<svg version="1.1" xmlns="http://www.w3.org/2000/svg" width="32" height="32" viewBox="0 0 32 32">
<title>phone-lock-regular</title>
<path d="M18.333 2.667c1.657 0 3 1.343 3 3v0 8.783c-0.84 0.406-1.521 1.027-1.988 1.793l-0.012 0.021v-10.596c0-0.552-0.448-1-1-1v0h-10c-0.552 0-1 0.448-1 1v0 20.667c0 0.552 0.448 1 1 1h7.667v1.333c0 0.228 0.023 0.451 0.067 0.667h-7.733c-1.657 0-3-1.343-3-3v0-20.667c0-1.657 1.343-3 3-3v0h10zM20 18.667c0-0.002 0-0.003 0-0.005 0-1.838 1.49-3.328 3.328-3.328 0.002 0 0.004 0 0.006 0h-0c1.841 0 3.333 1.492 3.333 3.333v0 1.333h0.667c1.105 0 2 0.895 2 2v0 6.667c0 1.105-0.895 2-2 2v0h-8c-1.105 0-2-0.895-2-2v0-6.667c0-1.105 0.895-2 2-2v0h0.667v-1.333zM22 18.667v1.333h2.667v-1.333c0-0.736-0.597-1.333-1.333-1.333s-1.333 0.597-1.333 1.333v0zM24.667 25.333c0-0.736-0.597-1.333-1.333-1.333s-1.333 0.597-1.333 1.333v0c0 0.736 0.597 1.333 1.333 1.333s1.333-0.597 1.333-1.333v0zM16 24.332v0.001c0 0 0 0 0 0 0 0.552-0.447 0.999-0.999 1l-3.333 0.005c-0 0-0.001 0-0.001 0-0.552 0-1-0.448-1-1s0.447-0.999 0.999-1l3.333-0.005c0 0 0.001 0 0.001 0 0.552 0 0.999 0.447 1 0.999v0z"></path>
</svg>
