<!-- Generated by IcoMoon.io -->
<svg version="1.1" xmlns="http://www.w3.org/2000/svg" width="32" height="32" viewBox="0 0 32 32">
<title>phone-key-regular</title>
<path d="M21 2.667c1.657 0 3 1.343 3 3v0 9.341c-0.773 0.278-1.438 0.682-2.006 1.192l0.006-0.005v-10.528c0-0.552-0.448-1-1-1v0h-10c-0.552 0-1 0.448-1 1v0 20.667c0 0.552 0.448 1 1 1h3.704c-0.024 0.124-0.037 0.267-0.037 0.413v1.587h-3.667c-1.657 0-3-1.343-3-3v0-20.667c0-1.657 1.343-3 3-3v0h10zM17.665 23.333c0.133 0 0.26 0.027 0.376 0.073l-1.929 1.929-1.777 0.003c-0 0-0.001 0-0.001 0-0.552 0-1-0.448-1-1s0.447-0.999 0.999-1l3.333-0.005zM26 25.333c2.576-0.001 4.665-2.090 4.665-4.667s-2.089-4.667-4.667-4.667-4.667 2.089-4.667 4.667c0 0.433 0.059 0.853 0.17 1.251l-0.008-0.033c-0.076 0.045-0.142 0.096-0.2 0.155l-5 5c-0.181 0.181-0.293 0.431-0.293 0.707v1.92c0 0.552 0.448 1 1 1h2.333c0.368 0 0.667-0.298 0.667-0.667v0-0.667h1.333c0.368 0 0.667-0.298 0.667-0.667v0-1.333h1.333c0.368 0 0.667-0.298 0.667-0.667v0-1.333h2zM28 20c0 0.736-0.597 1.333-1.333 1.333s-1.333-0.597-1.333-1.333v0c0-0.736 0.597-1.333 1.333-1.333s1.333 0.597 1.333 1.333v0z"></path>
</svg>
