<!-- Generated by IcoMoon.io -->
<svg version="1.1" xmlns="http://www.w3.org/2000/svg" width="32" height="32" viewBox="0 0 32 32">
<title>phone-tablet</title>
<path d="M11.007 9.333c1.289 0 2.333 1.045 2.333 2.333v12.667c0 1.289-1.045 2.333-2.333 2.333h-6.006c-1.289 0-2.333-1.045-2.333-2.333v-12.667c0-1.289 1.045-2.333 2.333-2.333h6.006zM11.007 11.333h-6.006c-0.184 0-0.333 0.149-0.333 0.333v12.667c0 0.184 0.149 0.333 0.333 0.333h6.006c0.184 0 0.333-0.149 0.333-0.333v-12.667c0-0.184-0.149-0.333-0.333-0.333zM8.337 21.333c0.552 0 1 0.448 1 1 0 0.506-0.376 0.925-0.864 0.991l-0.136 0.009h-0.667c-0.552 0-1-0.448-1-1 0-0.506 0.376-0.925 0.864-0.991l0.136-0.009h0.667zM26.333 5.333c1.588 0 2.887 1.234 2.993 2.795l0.007 0.205v11.333c0 1.588-1.234 2.887-2.795 2.993l-0.205 0.007h-11.667v-2h11.667c0.506 0 0.925-0.376 0.991-0.864l0.009-0.136v-11.333c0-0.506-0.376-0.925-0.864-0.991l-0.136-0.009h-15.333c-0.435 0-0.806 0.278-0.943 0.666l-2.039 0.001c0.158-1.429 1.319-2.555 2.763-2.659l0.219-0.008h15.333zM20.333 17.333c0.552 0 1 0.448 1 1s-0.448 1-1 1h-3.333c-0.552 0-1-0.448-1-1s0.448-1 1-1h3.333z"></path>
</svg>
