<!-- Generated by IcoMoon.io -->
<svg version="1.1" xmlns="http://www.w3.org/2000/svg" width="32" height="32" viewBox="0 0 32 32">
<title>phone-update</title>
<path d="M21 2.667c1.657 0 3 1.343 3 3v20.667c0 1.657-1.343 3-3 3h-10c-1.657 0-3-1.343-3-3v-20.667c0-1.657 1.343-3 3-3h10zM21 4.667h-10c-0.552 0-1 0.448-1 1v20.667c0 0.552 0.448 1 1 1h10c0.552 0 1-0.448 1-1v-20.667c0-0.552-0.448-1-1-1zM16 9.375c0.506 0 0.925 0.376 0.991 0.864l0.009 0.136-0.001 8.948 1.283-1.281c0.355-0.355 0.911-0.387 1.302-0.097l0.112 0.097c0.355 0.355 0.387 0.911 0.097 1.302l-0.097 0.112-2.989 2.989-0.051 0.048-0.083 0.065-0.089 0.055-0.081 0.040-0.134 0.048-0.083 0.019-0.123 0.015h-0.125l-0.122-0.015-0.129-0.033-0.149-0.063-0.102-0.062-0.143-0.119-2.989-2.989c-0.391-0.391-0.391-1.024 0-1.414 0.355-0.355 0.911-0.387 1.302-0.097l0.112 0.097 1.281 1.281 0.001-8.948c0-0.46 0.311-0.848 0.734-0.964l0.13-0.027 0.136-0.009z"></path>
</svg>
