<!-- Generated by IcoMoon.io -->
<svg version="1.1" xmlns="http://www.w3.org/2000/svg" width="32" height="32" viewBox="0 0 32 32">
<title>phone-vertical-scroll</title>
<path d="M21 2.667c1.657 0 3 1.343 3 3v20.667c0 1.657-1.343 3-3 3h-10c-1.657 0-3-1.343-3-3v-20.667c0-1.657 1.343-3 3-3h10zM21 4.667h-10c-0.552 0-1 0.448-1 1v20.667c0 0.552 0.448 1 1 1h10c0.552 0 1-0.448 1-1v-20.667c0-0.552-0.448-1-1-1zM19.7 17.953c0.359 0.351 0.396 0.907 0.11 1.301l-0.096 0.113-3 3.061c-0.356 0.363-0.921 0.397-1.315 0.099l-0.113-0.099-3.004-3.061c-0.387-0.394-0.381-1.027 0.013-1.414 0.358-0.352 0.914-0.379 1.303-0.085l0.111 0.098 2.29 2.333 2.286-2.333c0.387-0.394 1.020-0.401 1.414-0.014zM16.714 9.633l3 3.061c0.387 0.394 0.38 1.028-0.014 1.414s-1.028 0.38-1.414-0.014l-2.286-2.333-2.29 2.333c-0.387 0.394-1.020 0.4-1.414 0.013s-0.4-1.020-0.013-1.414l3.004-3.061c0.392-0.4 1.036-0.399 1.428 0z"></path>
</svg>
