<!-- Generated by IcoMoon.io -->
<svg version="1.1" xmlns="http://www.w3.org/2000/svg" width="32" height="32" viewBox="0 0 32 32">
<title>phone-link-setup-regular</title>
<path d="M23.333 16c0.391 0 0.773 0.032 1.147 0.096l0.232 0.955c0.292 1.18 1.342 2.041 2.592 2.041 0.222 0 0.437-0.027 0.643-0.078l-0.018 0.004 0.131-0.035 0.801-0.239c0.484 0.623 0.871 1.329 1.139 2.093l-0.596 0.573c-0.506 0.486-0.82 1.168-0.82 1.923 0 0.637 0.224 1.223 0.597 1.681l-0.004-0.005 0.189 0.208 0.633 0.609c-0.267 0.765-0.653 1.471-1.137 2.093l-0.803-0.237c-0.226-0.069-0.487-0.109-0.756-0.109-1.203 0-2.22 0.797-2.552 1.892l-0.005 0.019-0.035 0.131-0.231 0.955c-0.345 0.061-0.743 0.096-1.149 0.096s-0.803-0.035-1.19-0.102l0.041 0.006-0.229-0.955c-0.292-1.18-1.342-2.041-2.592-2.041-0.222 0-0.437 0.027-0.643 0.078l0.018-0.004-0.131 0.035-0.803 0.237c-0.468-0.599-0.853-1.292-1.121-2.042l-0.016-0.052 0.596-0.573c0.505-0.486 0.818-1.167 0.818-1.922 0-0.637-0.223-1.221-0.596-1.68l0.004 0.005-0.189-0.209-0.633-0.609c0.267-0.765 0.653-1.471 1.137-2.093l0.803 0.237c0.226 0.069 0.487 0.109 0.756 0.109 1.203 0 2.22-0.797 2.552-1.892l0.005-0.019 0.035-0.131 0.229-0.955c0.373-0.063 0.759-0.096 1.149-0.096zM18.333 2.667c1.657 0 3 1.343 3 3v0 9.232c-0.759 0.182-1.425 0.437-2.047 0.767l0.047-0.023v-9.976c0-0.552-0.448-1-1-1v0h-10c-0.552 0-1 0.448-1 1v0 20.667c0 0.552 0.448 1 1 1l7.311 0.001c0.403 0.765 0.881 1.422 1.439 2.003l-0.003-0.003-8.747-0.001c-1.657 0-3-1.343-3-3v0-20.667c0-1.657 1.343-3 3-3v0h10zM11.665 23.339l3.001-0.007c0 0.689 0.080 1.36 0.232 2l-3.231 0.007c-0 0-0.001 0-0.001 0-0.552 0-1-0.448-1-1s0.447-0.999 0.999-1h0zM23.333 21.333c-1.067 0-1.933 0.896-1.933 2s0.867 2 1.933 2c1.067 0 1.933-0.896 1.933-2s-0.867-2-1.933-2z"></path>
</svg>
