<!-- Generated by IcoMoon.io -->
<svg version="1.1" xmlns="http://www.w3.org/2000/svg" width="32" height="32" viewBox="0 0 32 32">
<title>phone-chat</title>
<path d="M8 5.429c0-1.736 1.407-3.143 3.143-3.143v0h9.714c1.736 0 3.143 1.407 3.143 3.143v0 9.447c-0.17-0.012-0.368-0.018-0.568-0.018-0.404 0-0.802 0.027-1.192 0.081l0.045-0.005v-9.504c0-0.789-0.64-1.429-1.429-1.429h-9.714c-0.789 0-1.429 0.64-1.429 1.429v21.143c0 0.789 0.64 1.429 1.429 1.429h4.309l-0.503 1.714h-3.806c-1.736 0-3.143-1.407-3.143-3.143v0-21.143zM30.857 23.429c0 0 0 0 0 0.001 0 4.103-3.326 7.429-7.429 7.429-1.32 0-2.56-0.344-3.634-0.948l0.037 0.019-3.105 0.904c-0.048 0.015-0.103 0.023-0.16 0.023-0.316 0-0.571-0.256-0.571-0.571 0-0.057 0.008-0.112 0.024-0.164l-0.001 0.004 0.909-3.101c-0.583-1.036-0.926-2.273-0.926-3.591 0-4.103 3.326-7.429 7.429-7.429 4.101 0 7.426 3.323 7.429 7.424v0zM20.571 21.714c-0.316 0-0.571 0.256-0.571 0.571s0.256 0.571 0.571 0.571v0h5.714c0.316 0 0.571-0.256 0.571-0.571s-0.256-0.571-0.571-0.571v0h-5.714zM20 24.571c0 0.316 0.256 0.571 0.571 0.571v0h2.857c0.316 0 0.571-0.256 0.571-0.571s-0.256-0.571-0.571-0.571v0h-2.857c-0.316 0-0.571 0.256-0.571 0.571v0z"></path>
</svg>
