<!-- Generated by IcoMoon.io -->
<svg version="1.1" xmlns="http://www.w3.org/2000/svg" width="32" height="32" viewBox="0 0 32 32">
<title>phone-laptop</title>
<path d="M11.006 10.671c1.289 0 2.333 1.045 2.333 2.333v12.667c0 1.289-1.045 2.333-2.333 2.333h-6.006c-1.289 0-2.333-1.045-2.333-2.333v-12.667c0-1.289 1.045-2.333 2.333-2.333h6.006zM11.006 12.671h-6.006c-0.184 0-0.333 0.149-0.333 0.333v12.667c0 0.184 0.149 0.333 0.333 0.333h6.006c0.184 0 0.333-0.149 0.333-0.333v-12.667c0-0.184-0.149-0.333-0.333-0.333zM8.336 22.667c0.552 0 1 0.448 1 1 0 0.506-0.376 0.925-0.864 0.991l-0.136 0.009h-0.667c-0.552 0-1-0.448-1-1 0-0.506 0.376-0.925 0.864-0.991l0.136-0.009h0.667zM28.333 22c0.552 0 1 0.448 1 1 0 0.506-0.376 0.925-0.864 0.991l-0.136 0.009-13.666-0.001v-2l13.666 0.001zM24.333 6.667c1.289 0 2.333 1.045 2.333 2.333v10c0 1.289-1.045 2.333-2.333 2.333l-9.667-0v-2l9.667 0c0.184 0 0.333-0.149 0.333-0.333v-10c0-0.184-0.149-0.333-0.333-0.333h-16.667c-0.184 0-0.333 0.149-0.333 0.333l-0.001 0.332h-1.999v-0.332c0-1.289 1.045-2.333 2.333-2.333h16.667z"></path>
</svg>
