<!-- Generated by IcoMoon.io -->
<svg version="1.1" xmlns="http://www.w3.org/2000/svg" width="32" height="32" viewBox="0 0 32 32">
<title>phone-vertical-scroll</title>
<path d="M21 2.667c1.657 0 3 1.343 3 3v0 20.667c0 1.657-1.343 3-3 3v0h-10c-1.657 0-3-1.343-3-3v0-20.667c0-1.657 1.343-3 3-3v0h10zM21 4.667h-10c-0.552 0-1 0.448-1 1v0 20.667c0 0.552 0.448 1 1 1h10c0.552 0 1-0.448 1-1v0-20.667c0-0.552-0.448-1-1-1v0zM19.7 17.952c0.185 0.182 0.3 0.434 0.3 0.714 0 0.221-0.072 0.425-0.193 0.59l0.002-0.003-0.095 0.113-3 3.061c-0.182 0.185-0.434 0.3-0.714 0.3-0.227 0-0.436-0.076-0.604-0.203l0.002 0.002-0.112-0.099-3.004-3.061c-0.177-0.18-0.286-0.427-0.286-0.7 0-0.552 0.448-1 1-1 0.227 0 0.437 0.076 0.605 0.203l-0.002-0.002 0.111 0.099 2.291 2.333 2.285-2.333c0.182-0.185 0.434-0.3 0.714-0.3 0.273 0 0.52 0.109 0.701 0.287l-0-0zM16.713 9.633l3 3.061c0.191 0.182 0.31 0.439 0.31 0.724 0 0.552-0.448 1-1 1-0.291 0-0.554-0.125-0.736-0.324l-0.001-0.001-2.287-2.335-2.291 2.333c-0.179 0.171-0.422 0.276-0.69 0.276-0.552 0-1-0.448-1-1 0-0.261 0.1-0.498 0.264-0.676l-0.001 0.001 3.004-3.061c0.182-0.185 0.434-0.299 0.713-0.299s0.532 0.114 0.713 0.299l0 0z"></path>
</svg>
