<!-- Generated by IcoMoon.io -->
<svg version="1.1" xmlns="http://www.w3.org/2000/svg" width="32" height="32" viewBox="0 0 32 32">
<title>phone-arrow-right</title>
<path d="M18.333 2.667c1.657 0 3 1.343 3 3l0.001 7.692c-0.693 0.053-1.363 0.187-2 0.393l-0.001-8.084c0-0.552-0.448-1-1-1h-10c-0.552 0-1 0.448-1 1v20.667c0 0.552 0.448 1 1 1l6.836 0.001c0.616 0.787 1.364 1.465 2.212 2l-9.048-0.001c-1.657 0-3-1.343-3-3v-20.667c0-1.657 1.343-3 3-3h10zM22 14.667c4.050 0 7.333 3.283 7.333 7.333s-3.283 7.333-7.333 7.333c-4.050 0-7.333-3.283-7.333-7.333s3.283-7.333 7.333-7.333zM22.288 18.118l-0.092 0.077-0.077 0.092c-0.157 0.227-0.157 0.531 0 0.758l0.077 0.092 2.194 2.194-6.397 0.001-0.12 0.011c-0.272 0.049-0.487 0.264-0.536 0.536l-0.011 0.12 0.011 0.12c0.049 0.272 0.264 0.487 0.536 0.536l0.12 0.011 6.4-0.001-2.196 2.197-0.077 0.092c-0.18 0.26-0.154 0.619 0.077 0.851s0.591 0.257 0.851 0.077l0.092-0.077 3.373-3.377 0.049-0.067 0.056-0.107 0.035-0.11 0.013-0.085v-0.118l-0.013-0.085-0.035-0.11-0.056-0.107-0.050-0.067-3.373-3.377-0.092-0.077c-0.195-0.135-0.446-0.154-0.657-0.058l-0.102 0.058zM13.436 23.336c0.108 0.697 0.299 1.367 0.562 1.998l-2.33 0.004c-0.552 0.001-1.001-0.446-1.002-0.999s0.446-1.001 0.998-1.001l1.77-0.003z"></path>
</svg>
