<!-- Generated by IcoMoon.io -->
<svg version="1.1" xmlns="http://www.w3.org/2000/svg" width="32" height="32" viewBox="0 0 32 32">
<title>photo-filter-regular</title>
<path d="M12.667 2.667c0 0 0 0 0 0 4.487 0 8.284 2.954 9.553 7.024l0.019 0.071c4.139 1.287 7.091 5.082 7.091 9.568 0 5.523-4.477 10-10 10-4.485 0-8.28-2.952-9.548-7.019l-0.019-0.071c-4.146-1.282-7.106-5.082-7.106-9.572 0-5.523 4.477-10 10-10 0.003 0 0.007 0 0.010 0h-0.001zM22.648 12.051l0.013 0.293 0.005 0.323c0 0 0 0 0 0 0 5.523-4.477 10-10 10-0.217 0-0.432-0.007-0.645-0.020l0.029 0.001c1.292 2.786 4.064 4.683 7.28 4.683 4.418 0 8-3.582 8-8 0-3.216-1.898-5.989-4.635-7.26l-0.049-0.021zM12.667 4.667c-0.002 0-0.004 0-0.007 0-4.418 0-8 3.582-8 8 0 3.219 1.901 5.994 4.642 7.263l0.050 0.021-0.013-0.293-0.005-0.324c0-0 0-0 0-0 0-5.523 4.477-10 10-10 0.217 0 0.432 0.007 0.645 0.020l-0.029-0.001c-1.291-2.787-4.064-4.685-7.28-4.685-0.001 0-0.002 0-0.003 0h0z"></path>
</svg>
