<!-- Generated by IcoMoon.io -->
<svg version="1.1" xmlns="http://www.w3.org/2000/svg" width="32" height="32" viewBox="0 0 32 32">
<title>photo-filter</title>
<path d="M12.667 2.667c4.512 0 8.327 2.989 9.571 7.095 4.106 1.245 7.095 5.059 7.095 9.572 0 5.523-4.477 10-10 10-4.512 0-8.327-2.989-9.571-7.095-4.106-1.245-7.095-5.059-7.095-9.572 0-5.523 4.477-10 10-10zM22.648 12.050l0.014 0.293 0.005 0.324c0 5.523-4.477 10-10 10-0.207 0-0.412-0.006-0.616-0.019 1.259 2.764 4.046 4.685 7.282 4.685 4.418 0 8-3.582 8-8 0-3.236-1.921-6.023-4.686-7.283zM12.667 4.667c-4.418 0-8 3.582-8 8 0 3.236 1.921 6.023 4.686 7.283l-0.014-0.293-0.005-0.324c0-5.523 4.477-10 10-10 0.207 0 0.412 0.006 0.615 0.019-1.259-2.764-4.046-4.685-7.282-4.685z"></path>
</svg>
