<!-- Generated by IcoMoon.io -->
<svg version="1.1" xmlns="http://www.w3.org/2000/svg" width="32" height="32" viewBox="0 0 32 32">
<title>pi</title>
<path d="M3.333 9c0-2.025 1.642-3.667 3.667-3.667h20c0.552 0 1 0.448 1 1s-0.448 1-1 1h-4.333v15.27c0 1.614 1.599 2.74 3.118 2.197l0.212-0.076c0.52-0.186 1.092 0.085 1.278 0.605s-0.085 1.092-0.605 1.278l-0.212 0.076c-2.822 1.008-5.791-1.084-5.791-4.081v-15.27h-8.008c-0.006 0.319-0.016 0.745-0.034 1.259-0.042 1.196-0.126 2.87-0.295 4.787-0.335 3.816-1.010 8.664-2.385 12.616-0.181 0.522-0.751 0.797-1.273 0.616s-0.797-0.751-0.616-1.273c1.292-3.715 1.95-8.366 2.282-12.134 0.165-1.875 0.247-3.513 0.288-4.682 0.017-0.482 0.027-0.884 0.033-1.189h-3.658c-0.92 0-1.667 0.746-1.667 1.667v0.667c0 0.552-0.448 1-1 1s-1-0.448-1-1v-0.667z"></path>
</svg>
