<!-- Generated by IcoMoon.io -->
<svg version="1.1" xmlns="http://www.w3.org/2000/svg" width="32" height="32" viewBox="0 0 32 32">
<title>picture-in-picture-exit</title>
<path d="M13.333 14.667c1.473 0 2.667-1.194 2.667-2.667v-6.667c0-1.473-1.194-2.667-2.667-2.667h-9.333c-1.473 0-2.667 1.194-2.667 2.667v6.667c0 1.013 0.564 1.893 1.396 2.345 0.378 0.205 0.811 0.322 1.271 0.322h9.333zM25 8.667h-7.667v-2h7.667c2.393 0 4.333 1.94 4.333 4.333v12.667c0 2.393-1.94 4.333-4.333 4.333h-18c-2.393 0-4.333-1.94-4.333-4.333v-7.894c0.417 0.147 0.866 0.228 1.333 0.228h0.667v7.667c0 1.289 1.045 2.333 2.333 2.333h18c1.289 0 2.333-1.045 2.333-2.333v-12.667c0-1.289-1.045-2.333-2.333-2.333zM21.252 21.333h-2.252c-0.552 0-1 0.448-1 1s0.448 1 1 1h4.667c0.552 0 1-0.448 1-1v-4.667c0-0.552-0.448-1-1-1s-1 0.448-1 1v2.252l-3.626-3.626c-0.391-0.391-1.024-0.391-1.414 0s-0.391 1.024 0 1.414l3.626 3.626z"></path>
</svg>
