<!-- Generated by IcoMoon.io -->
<svg version="1.1" xmlns="http://www.w3.org/2000/svg" width="32" height="32" viewBox="0 0 32 32">
<title>picture-in-picture-enter</title>
<path d="M2.667 8.333c0-2.393 1.94-4.333 4.333-4.333h18c2.393 0 4.333 1.94 4.333 4.333v7.667h-2v-7.667c0-1.289-1.045-2.333-2.333-2.333h-18c-1.289 0-2.333 1.045-2.333 2.333v12.667c0 1.289 1.045 2.333 2.333 2.333h7.667v2h-7.667c-2.393 0-4.333-1.94-4.333-4.333v-12.667zM18.667 17.333c-1.473 0-2.667 1.194-2.667 2.667v6.667c0 1.473 1.194 2.667 2.667 2.667h9.333c1.473 0 2.667-1.194 2.667-2.667v-6.667c0-1.473-1.194-2.667-2.667-2.667h-9.333zM6.96 8.293c0.391-0.391 1.024-0.391 1.414 0l4.293 4.293v-2.252c0-0.552 0.448-1 1-1s1 0.448 1 1v4.667c0 0.552-0.448 1-1 1h-4.667c-0.552 0-1-0.448-1-1s0.448-1 1-1h2.252l-4.293-4.293c-0.391-0.391-0.391-1.024 0-1.414z"></path>
</svg>
