<!-- Generated by IcoMoon.io -->
<svg version="1.1" xmlns="http://www.w3.org/2000/svg" width="32" height="32" viewBox="0 0 32 32">
<title>picture-in-picture-regular</title>
<path d="M2.667 8.333c0-2.393 1.94-4.333 4.333-4.333v0h18c2.393 0 4.333 1.94 4.333 4.333v0 7.667h-2v-7.667c0-1.289-1.045-2.333-2.333-2.333v0h-18c-1.289 0-2.333 1.045-2.333 2.333v0 12.667c0 1.288 1.045 2.333 2.333 2.333h7.667v2h-7.667c-2.393 0-4.333-1.94-4.333-4.333v0-12.667zM18.667 17.333c-1.473 0-2.667 1.194-2.667 2.667v0 6.667c0 1.473 1.194 2.667 2.667 2.667v0h9.333c1.473 0 2.667-1.194 2.667-2.667v0-6.667c0-1.473-1.194-2.667-2.667-2.667v0h-9.333z"></path>
</svg>
