<!-- Generated by IcoMoon.io -->
<svg version="1.1" xmlns="http://www.w3.org/2000/svg" width="32" height="32" viewBox="0 0 32 32">
<title>picture-in-picture-exit</title>
<path d="M13.333 14.667c1.473 0 2.667-1.194 2.667-2.667v0-6.667c0-1.473-1.194-2.667-2.667-2.667v0h-9.333c-1.473 0-2.667 1.194-2.667 2.667v0 6.667c0 1.473 1.194 2.667 2.667 2.667v0h9.333zM25 8.667h-7.667v-2h7.667c2.393 0 4.333 1.94 4.333 4.333v0 12.667c0 2.393-1.94 4.333-4.333 4.333v0h-18c-2.393 0-4.333-1.94-4.333-4.333v0-7.893c0.417 0.147 0.867 0.227 1.333 0.227h0.667v7.667c0 1.288 1.045 2.333 2.333 2.333h18c1.289 0 2.333-1.045 2.333-2.333v0-12.667c0-1.289-1.045-2.333-2.333-2.333v0zM21.253 21.333h-2.253c-0.552 0-1 0.448-1 1s0.448 1 1 1v0h4.667c0.552 0 1-0.448 1-1v0-4.667c0-0.552-0.448-1-1-1s-1 0.448-1 1v0 2.253l-3.627-3.627c-0.183-0.196-0.443-0.318-0.732-0.318-0.552 0-1 0.448-1 1 0 0.289 0.122 0.549 0.318 0.731l0.001 0.001 3.627 3.627z"></path>
</svg>
