<!-- Generated by IcoMoon.io -->
<svg version="1.1" xmlns="http://www.w3.org/2000/svg" width="32" height="32" viewBox="0 0 32 32">
<title>pill</title>
<path d="M14.041 20.626c0.391 0.391 0.391 1.024 0 1.414l-2.667 2.667c-1.124 1.124-2.944 1.127-4.072 0.009-0.186-0.182-0.302-0.435-0.302-0.716 0-0.552 0.448-1 1-1 0.276 0 0.526 0.112 0.707 0.293 0.346 0.346 0.907 0.346 1.252 0l2.667-2.667c0.391-0.391 1.024-0.391 1.414 0zM17.737 4.7c2.641-2.641 6.922-2.641 9.562 0s2.641 6.922 0 9.562l-13.037 13.037c-2.641 2.641-6.922 2.641-9.562 0s-2.641-6.922 0-9.562l13.037-13.037zM25.886 6.115c-1.859-1.86-4.874-1.86-6.734 0l-5.811 5.811 6.734 6.734 5.811-5.811c1.86-1.86 1.86-4.874 0-6.734zM18.66 20.074l-6.734-6.734-5.811 5.811c-1.86 1.859-1.86 4.874 0 6.734s4.874 1.86 6.734 0l5.811-5.811z"></path>
</svg>
