<!-- Generated by IcoMoon.io -->
<svg version="1.1" xmlns="http://www.w3.org/2000/svg" width="32" height="32" viewBox="0 0 32 32">
<title>pin-off</title>
<path d="M11.139 12.318l-8.062-8.062c-0.151-0.151-0.244-0.359-0.244-0.589 0-0.46 0.373-0.833 0.833-0.833 0.23 0 0.439 0.093 0.589 0.244l24.667 24.667c0.151 0.151 0.244 0.359 0.244 0.589 0 0.46-0.373 0.833-0.833 0.833-0.23 0-0.439-0.093-0.589-0.244v0l-8.061-8.061-1.44 4.167c-0.442 1.28-2.071 1.655-3.029 0.698l-3.881-3.88-6.155 6.154h-1.179v-1.178l6.155-6.155-3.88-3.88c-0.958-0.957-0.583-2.587 0.697-3.029l4.167-1.44zM18.372 19.551l-5.923-5.922-4.933 1.704c-0.066 0.023-0.112 0.085-0.112 0.158 0 0.046 0.019 0.088 0.049 0.118l8.94 8.939c0.087 0.087 0.235 0.053 0.275-0.063l1.704-4.933zM26.732 14.369l-5.885 2.943 1.243 1.242 5.388-2.693c1.933-0.967 2.351-3.544 0.823-5.072l-7.089-7.089c-1.528-1.528-4.105-1.11-5.071 0.823l-2.693 5.387 1.242 1.243 2.942-5.885c0.252-0.496 0.758-0.83 1.342-0.83 0.414 0 0.789 0.168 1.061 0.44l7.088 7.089c0.271 0.271 0.439 0.646 0.439 1.061 0 0.584-0.333 1.089-0.82 1.337l-0.009 0.004z"></path>
</svg>
