<!-- Generated by IcoMoon.io -->
<svg version="1.1" xmlns="http://www.w3.org/2000/svg" width="32" height="32" viewBox="0 0 32 32">
<title>pin-off</title>
<path d="M4.374 2.96c-0.391-0.391-1.024-0.391-1.414 0s-0.391 1.024 0 1.414l7.873 7.873-4.419 1.526c-1.164 0.402-1.505 1.883-0.634 2.754l4.139 4.139-5.919 5.919-0 1.414h1.414l5.919-5.919 4.139 4.139c0.871 0.871 2.352 0.529 2.754-0.634l1.526-4.418 7.873 7.873c0.391 0.391 1.024 0.391 1.414 0s0.391-1.024 0-1.414l-24.667-24.667zM18.18 19.595l-1.67 4.834-8.939-8.939 4.835-1.67 5.775 5.775zM26.244 14.427l-5.050 2.525 1.491 1.491 4.453-2.227c2.239-1.119 2.723-4.103 0.953-5.872l-6.434-6.434c-1.77-1.77-4.753-1.286-5.872 0.953l-2.227 4.453 1.491 1.491 2.525-5.049c0.509-1.018 1.865-1.238 2.669-0.433l6.435 6.434c0.804 0.804 0.584 2.16-0.433 2.669z"></path>
</svg>
