<!-- Generated by IcoMoon.io -->
<svg version="1.1" xmlns="http://www.w3.org/2000/svg" width="32" height="32" viewBox="0 0 32 32">
<title>pin</title>
<path d="M21.657 3.909l6.434 6.434c1.77 1.77 1.286 4.753-0.953 5.872l-6.495 3.247c-0.234 0.117-0.413 0.321-0.498 0.568l-1.919 5.555c-0.402 1.164-1.883 1.505-2.754 0.634l-4.139-4.139-5.919 5.919h-1.414l0-1.414 5.919-5.919-4.139-4.139c-0.87-0.871-0.529-2.352 0.634-2.754l5.555-1.919c0.247-0.085 0.451-0.264 0.568-0.498l3.247-6.495c1.119-2.239 4.103-2.723 5.872-0.953zM26.677 11.758l-6.434-6.434c-0.804-0.804-2.161-0.584-2.669 0.433l-3.247 6.494c-0.351 0.702-0.962 1.238-1.704 1.494l-5.051 1.745 8.939 8.939 1.745-5.051c0.256-0.741 0.792-1.353 1.494-1.704l6.495-3.247c1.017-0.509 1.238-1.865 0.433-2.669z"></path>
</svg>
