<!-- Generated by IcoMoon.io -->
<svg version="1.1" xmlns="http://www.w3.org/2000/svg" width="32" height="32" viewBox="0 0 32 32">
<title>pin</title>
<path d="M28.3 10.789l-7.088-7.089c-1.529-1.528-4.105-1.11-5.072 0.823l-3.515 7.029c-0.098 0.194-0.265 0.342-0.467 0.414l-0.006 0.002-5.18 1.789c-1.28 0.442-1.655 2.072-0.697 3.029l3.88 3.88-6.155 6.155v1.178h1.179l6.155-6.155 3.88 3.88c0.958 0.958 2.587 0.583 3.029-0.697l1.79-5.18c0.073-0.208 0.221-0.375 0.41-0.471l0.005-0.002 7.030-3.515c1.933-0.967 2.351-3.543 0.823-5.071zM20.033 4.879l7.088 7.089c0.271 0.271 0.439 0.646 0.439 1.061 0 0.584-0.333 1.089-0.82 1.337l-0.009 0.004-7.030 3.515c-0.582 0.296-1.025 0.795-1.239 1.402l-0.005 0.017-1.789 5.18c-0.023 0.066-0.085 0.113-0.158 0.113-0.046 0-0.088-0.019-0.118-0.049v0l-8.939-8.939c-0.030-0.030-0.049-0.072-0.049-0.118 0-0.073 0.047-0.135 0.111-0.157l0.001-0 5.18-1.789c0.625-0.22 1.124-0.663 1.413-1.231l0.007-0.014 3.514-7.029c0.252-0.496 0.758-0.83 1.342-0.83 0.414 0 0.789 0.168 1.061 0.44v0z"></path>
</svg>
