<!-- Generated by IcoMoon.io -->
<svg version="1.1" xmlns="http://www.w3.org/2000/svg" width="32" height="32" viewBox="0 0 32 32">
<title>pipeline</title>
<path d="M2 9c0-1.657 1.343-3 3-3s3 1.343 3 3v0h16c0-1.657 1.343-3 3-3s3 1.343 3 3v0 14c0 1.657-1.343 3-3 3s-3-1.343-3-3v0h-16c0 1.657-1.343 3-3 3s-3-1.343-3-3v0-14zM6 9c0-0.552-0.448-1-1-1s-1 0.448-1 1v0 14c0 0.552 0.448 1 1 1s1-0.448 1-1v0-14zM8 21h16v-10h-16v10zM28 9c0-0.552-0.448-1-1-1s-1 0.448-1 1v0 14c0 0.552 0.448 1 1 1s1-0.448 1-1v0-14z"></path>
</svg>
