<!-- Generated by IcoMoon.io -->
<svg version="1.1" xmlns="http://www.w3.org/2000/svg" width="32" height="32" viewBox="0 0 32 32">
<title>pipeline-play</title>
<path d="M3.2 8.8c0-1.325 1.075-2.4 2.4-2.4s2.4 1.075 2.4 2.4v0 0.8h16v-0.8c0-1.325 1.075-2.4 2.4-2.4s2.4 1.075 2.4 2.4v0 7.611c-0.467-0.388-0.991-0.737-1.551-1.028l-0.049-0.023v-6.56c0-0.442-0.358-0.8-0.8-0.8s-0.8 0.358-0.8 0.8v0 5.931c-0.462-0.137-1.006-0.241-1.565-0.293l-0.035-0.003v-3.235h-16v9.6h6.731c-0.137 0.462-0.241 1.006-0.293 1.565l-0.003 0.035h-6.435v0.8c0 1.325-1.075 2.4-2.4 2.4s-2.4-1.075-2.4-2.4v0-14.4zM6.4 8.8c0-0.442-0.358-0.8-0.8-0.8s-0.8 0.358-0.8 0.8v0 14.4c0 0.442 0.358 0.8 0.8 0.8s0.8-0.358 0.8-0.8v0-14.4zM30.4 23.2c0 3.976-3.224 7.2-7.2 7.2s-7.2-3.224-7.2-7.2v0c0-3.976 3.224-7.2 7.2-7.2s7.2 3.224 7.2 7.2v0zM26.741 22.501l-4.752-2.64c-0.112-0.063-0.246-0.101-0.389-0.101-0.442 0-0.8 0.358-0.8 0.8 0 0 0 0 0 0v0 5.28c0 0 0 0 0 0 0 0.442 0.358 0.8 0.8 0.8 0.143 0 0.277-0.037 0.393-0.103l-0.004 0.002 4.752-2.64c0.247-0.139 0.411-0.4 0.411-0.699s-0.164-0.56-0.407-0.697l-0.004-0.002z"></path>
</svg>
