<!-- Generated by IcoMoon.io -->
<svg version="1.1" xmlns="http://www.w3.org/2000/svg" width="32" height="32" viewBox="0 0 32 32">
<title>pivot</title>
<path d="M6 8.333c0-1.288 1.045-2.333 2.333-2.333h14.667c1.288 0 2.333 1.045 2.333 2.333v6.172c0.298-0.109 0.642-0.172 1-0.172s0.702 0.063 1.021 0.178l-0.021-0.007v-6.172c0-2.393-1.94-4.333-4.333-4.333v0h-14.667c-2.393 0-4.333 1.94-4.333 4.333v0 14.667c0 2.393 1.94 4.333 4.333 4.333v0h6.172c-0.109-0.298-0.172-0.642-0.172-1s0.063-0.702 0.178-1.021l-0.007 0.021h-6.172c-1.289 0-2.333-1.045-2.333-2.333v0-14.667zM8 9.333c0-0.736 0.597-1.333 1.333-1.333v0h2.667c0.736 0 1.333 0.597 1.333 1.333v0 2.667c0 0.736-0.597 1.333-1.333 1.333v0h-2.667c-0.736 0-1.333-0.597-1.333-1.333v0-2.667zM15.333 9.333c0-0.736 0.597-1.333 1.333-1.333v0h5.333c0.736 0 1.333 0.597 1.333 1.333v0 2.667c0 0.736-0.597 1.333-1.333 1.333v0h-5.333c-0.736 0-1.333-0.597-1.333-1.333v0-2.667zM8 16.667c0-0.736 0.597-1.333 1.333-1.333v0h2.667c0.736 0 1.333 0.597 1.333 1.333v0 5.333c0 0.736-0.597 1.333-1.333 1.333v0h-2.667c-0.736 0-1.333-0.597-1.333-1.333v0-5.333zM27.040 16.627c-0.181-0.181-0.431-0.292-0.707-0.292s-0.526 0.112-0.707 0.292v0l-2 2c-0.196 0.183-0.318 0.443-0.318 0.732 0 0.552 0.448 1 1 1 0.289 0 0.549-0.122 0.731-0.318l0.001-0.001 0.293-0.293v3.253c0 1.289-1.045 2.333-2.333 2.333v0h-3.253l0.293-0.293c0.196-0.183 0.318-0.443 0.318-0.732 0-0.552-0.448-1-1-1-0.289 0-0.549 0.122-0.731 0.318l-0.001 0.001-2 2c-0.181 0.181-0.292 0.431-0.292 0.707s0.112 0.526 0.292 0.707v0l2 2c0.183 0.196 0.443 0.318 0.732 0.318 0.552 0 1-0.448 1-1 0-0.289-0.122-0.549-0.318-0.731l-0.001-0.001-0.293-0.293h3.253c2.393 0 4.333-1.94 4.333-4.333v0-3.253l0.293 0.293c0.183 0.196 0.443 0.318 0.732 0.318 0.552 0 1-0.448 1-1 0-0.289-0.122-0.549-0.318-0.731l-0.001-0.001-2-2z"></path>
</svg>
