<!-- Generated by IcoMoon.io -->
<svg version="1.1" xmlns="http://www.w3.org/2000/svg" width="32" height="32" viewBox="0 0 32 32">
<title>pivot</title>
<path d="M6 8.333c0-1.289 1.045-2.333 2.333-2.333h14.667c1.289 0 2.333 1.045 2.333 2.333v6.172c0.318-0.113 0.656-0.172 1-0.172s0.682 0.059 1 0.172v-6.172c0-2.393-1.94-4.333-4.333-4.333h-14.667c-2.393 0-4.333 1.94-4.333 4.333v14.667c0 2.393 1.94 4.333 4.333 4.333h6.172c-0.113-0.318-0.172-0.656-0.172-1s0.059-0.682 0.172-1h-6.172c-1.289 0-2.333-1.045-2.333-2.333v-14.667zM8 9.333c0-0.736 0.597-1.333 1.333-1.333h2.667c0.736 0 1.333 0.597 1.333 1.333v2.667c0 0.736-0.597 1.333-1.333 1.333h-2.667c-0.736 0-1.333-0.597-1.333-1.333v-2.667zM15.333 9.333c0-0.736 0.597-1.333 1.333-1.333h5.333c0.736 0 1.333 0.597 1.333 1.333v2.667c0 0.736-0.597 1.333-1.333 1.333h-5.333c-0.736 0-1.333-0.597-1.333-1.333v-2.667zM8 16.667c0-0.736 0.597-1.333 1.333-1.333h2.667c0.736 0 1.333 0.597 1.333 1.333v5.333c0 0.736-0.597 1.333-1.333 1.333h-2.667c-0.736 0-1.333-0.597-1.333-1.333v-5.333zM27.040 16.626c-0.187-0.188-0.442-0.293-0.707-0.293s-0.52 0.105-0.707 0.293l-2 2c-0.391 0.391-0.391 1.024 0 1.414s1.024 0.391 1.414 0l0.293-0.293v3.252c0 1.289-1.045 2.333-2.333 2.333h-3.252l0.293-0.293c0.391-0.391 0.391-1.024 0-1.414s-1.024-0.391-1.414 0l-2 2c-0.188 0.188-0.293 0.442-0.293 0.707s0.105 0.52 0.293 0.707l2 2c0.391 0.391 1.024 0.391 1.414 0s0.391-1.024 0-1.414l-0.293-0.293h3.253c2.393 0 4.333-1.94 4.333-4.333v-3.252l0.293 0.293c0.391 0.391 1.024 0.391 1.414 0s0.391-1.024 0-1.414l-2-2z"></path>
</svg>
