<!-- Generated by IcoMoon.io -->
<svg version="1.1" xmlns="http://www.w3.org/2000/svg" width="32" height="32" viewBox="0 0 32 32">
<title>playing-cards-regular</title>
<path d="M15.754 4.854c-0.124-0.034-0.266-0.054-0.413-0.054-0.737 0-1.357 0.497-1.544 1.174l-0.003 0.011-4.538 16.88c-0.035 0.124-0.055 0.267-0.055 0.415 0 0.735 0.497 1.355 1.173 1.541l0.011 0.003 8.667 2.322c0.124 0.034 0.266 0.054 0.413 0.054 0.737 0 1.357-0.497 1.544-1.174l0.003-0.011 4.539-16.878c0.035-0.124 0.055-0.267 0.055-0.415 0-0.736-0.497-1.355-1.173-1.541l-0.011-0.003-8.669-2.323zM12.248 5.571c0.38-1.376 1.62-2.37 3.093-2.37 0.295 0 0.58 0.040 0.851 0.114l-0.023-0.005 8.666 2.322c1.376 0.377 2.37 1.616 2.37 3.088 0 0.295-0.040 0.581-0.115 0.853l0.005-0.022-4.538 16.88c-0.38 1.376-1.62 2.37-3.093 2.37-0.295 0-0.58-0.040-0.851-0.114l0.023 0.005-8.666-2.323c-1.376-0.377-2.371-1.616-2.371-3.088 0-0.296 0.040-0.582 0.115-0.854l-0.005 0.022 4.538-16.877zM19.197 11.2c0.884 0 1.6-0.716 1.6-1.6s-0.716-1.6-1.6-1.6v0c-0.884 0-1.6 0.716-1.6 1.6s0.716 1.6 1.6 1.6v0zM17.197 22.4c0 0.884-0.716 1.6-1.6 1.6s-1.6-0.716-1.6-1.6v0c0-0.884 0.716-1.6 1.6-1.6s1.6 0.716 1.6 1.6v0zM11.446 3.2h-0.243c-0.001 0-0.002 0-0.003 0-0.658 0-1.269 0.199-1.777 0.54l0.011-0.007c-0.869 0.581-1.434 1.557-1.435 2.665v0l-0.008 8.837 1.608-5.97 0.002-2.866c0-0.739 0.501-1.363 1.184-1.547l0.125-0.47c0.123-0.45 0.307-0.843 0.545-1.197l-0.009 0.014zM6.461 4.888c-0.042 0.23-0.064 0.469-0.064 0.71v1.021c-0.48 0.282-0.797 0.796-0.797 1.384 0 0.147 0.020 0.289 0.057 0.424l-0.003-0.011 0.738 2.762-0.005 6.182-2.278-8.53c-0.069-0.248-0.108-0.532-0.108-0.826 0-1.474 0.996-2.716 2.351-3.089l0.022-0.005 0.086-0.022z"></path>
</svg>
