<!-- Generated by IcoMoon.io -->
<svg version="1.1" xmlns="http://www.w3.org/2000/svg" width="32" height="32" viewBox="0 0 32 32">
<title>play-circle</title>
<path d="M14.474 10.873c-1.111-0.615-2.474 0.188-2.474 1.458v7.338c0 1.27 1.363 2.073 2.474 1.458l7.677-4.252c0.318-0.176 0.515-0.511 0.515-0.875s-0.197-0.699-0.515-0.875l-7.677-4.252zM16 2.667c-7.364 0-13.333 5.97-13.333 13.333s5.97 13.333 13.333 13.333c7.364 0 13.333-5.97 13.333-13.333s-5.97-13.333-13.333-13.333zM4.667 16c0-6.259 5.074-11.333 11.333-11.333s11.333 5.074 11.333 11.333c0 6.259-5.074 11.333-11.333 11.333s-11.333-5.074-11.333-11.333z"></path>
</svg>
