<!-- Generated by IcoMoon.io -->
<svg version="1.1" xmlns="http://www.w3.org/2000/svg" width="32" height="32" viewBox="0 0 32 32">
<title>play-regular</title>
<path d="M11.167 5.608l16.278 8.47c0.699 0.369 1.166 1.091 1.166 1.922s-0.468 1.553-1.155 1.916l-0.012 0.006-16.278 8.47c-0.29 0.154-0.635 0.245-1 0.245-1.197 0-2.167-0.97-2.167-2.167v0-16.94c0-0 0-0 0-0.001 0-1.197 0.97-2.167 2.167-2.167 0.313 0 0.611 0.066 0.88 0.186l-0.014-0.005 0.134 0.065zM10.397 7.087l-0.073-0.031c-0.047-0.016-0.101-0.025-0.157-0.025-0.276 0-0.5 0.224-0.5 0.5 0 0 0 0 0 0v0 16.94c0 0 0 0.001 0 0.001 0 0.276 0.224 0.499 0.499 0.499 0.085 0 0.164-0.021 0.234-0.058l-0.003 0.001 16.278-8.47c0.161-0.085 0.269-0.252 0.269-0.443s-0.108-0.358-0.266-0.442l-0.003-0.001-16.278-8.47z"></path>
</svg>
