<!-- Generated by IcoMoon.io -->
<svg version="1.1" xmlns="http://www.w3.org/2000/svg" width="32" height="32" viewBox="0 0 32 32">
<title>plug-connected-checkmark-regular</title>
<path d="M28.566 4.566c0.145-0.145 0.235-0.345 0.235-0.566 0-0.442-0.359-0.801-0.801-0.801-0.221 0-0.421 0.090-0.566 0.235l-4.269 4.27c-1.083-0.849-2.464-1.361-3.966-1.361-1.783 0-3.397 0.723-4.566 1.891l-0.48 0.48c-0.432 0.431-0.699 1.028-0.699 1.686s0.267 1.255 0.699 1.686l3.944 3.942c0.448-0.32 0.928-0.597 1.432-0.829l-4.245-4.246c-0.141-0.142-0.229-0.338-0.229-0.554s0.087-0.412 0.229-0.554l0.48-0.48c0.879-0.88 2.094-1.424 3.436-1.424 2.683 0 4.858 2.175 4.858 4.858 0 0.581-0.102 1.137-0.289 1.653l0.011-0.034c0.547 0.035 1.083 0.122 1.6 0.253 0.175-0.559 0.276-1.203 0.276-1.87 0-1.502-0.512-2.884-1.372-3.981l0.011 0.014 4.27-4.269zM12.086 14.154l3.942 3.944c-0.32 0.448-0.597 0.928-0.829 1.432l-4.245-4.243c-0.142-0.142-0.338-0.23-0.554-0.23s-0.413 0.088-0.554 0.23l-0.48 0.48c-0.881 0.879-1.426 2.095-1.426 3.438 0 2.682 2.174 4.856 4.856 4.856 0.582 0 1.14-0.102 1.657-0.29l-0.034 0.011c0.035 0.549 0.122 1.083 0.253 1.6-0.559 0.175-1.203 0.276-1.87 0.276-1.502 0-2.884-0.512-3.981-1.372l0.014 0.011-4.269 4.27c-0.145 0.145-0.345 0.235-0.566 0.235-0.442 0-0.801-0.359-0.801-0.801 0-0.221 0.090-0.421 0.235-0.566l4.27-4.269c-0.848-1.082-1.36-2.464-1.36-3.965 0-1.783 0.723-3.398 1.892-4.566l0.48-0.48c0.431-0.431 1.027-0.698 1.686-0.698s1.254 0.267 1.686 0.698v0zM30.4 23.2c0 3.976-3.224 7.2-7.2 7.2s-7.2-3.224-7.2-7.2v0c0-3.976 3.224-7.2 7.2-7.2s7.2 3.224 7.2 7.2v0zM26.966 20.234c-0.145-0.145-0.345-0.235-0.566-0.235s-0.422 0.090-0.566 0.235l-4.234 4.235-1.034-1.035c-0.145-0.145-0.345-0.235-0.566-0.235-0.442 0-0.801 0.359-0.801 0.801 0 0.221 0.090 0.421 0.235 0.566v0l1.6 1.6c0.145 0.145 0.345 0.235 0.566 0.235s0.422-0.090 0.566-0.235l4.8-4.8c0.145-0.145 0.235-0.345 0.235-0.566s-0.090-0.422-0.235-0.566l-0-0z"></path>
</svg>
