<!-- Generated by IcoMoon.io -->
<svg version="1.1" xmlns="http://www.w3.org/2000/svg" width="32" height="32" viewBox="0 0 32 32">
<title>plug-disconnected</title>
<path d="M29.040 4.374c0.391-0.391 0.391-1.024 0-1.414s-1.024-0.391-1.414 0l-2.683 2.683c-2.213-1.572-5.301-1.366-7.284 0.617l-1.424 1.424c-0.911 0.911-0.911 2.389 0 3.3l4.781 4.781c0.911 0.911 2.389 0.911 3.3 0l1.424-1.424c1.983-1.983 2.189-5.071 0.617-7.284l2.683-2.683zM24.259 7.674l0.030 0.030 0.003 0.003 0.003 0.003 0.030 0.030c1.432 1.432 1.432 3.754 0 5.185l-1.424 1.424c-0.13 0.13-0.341 0.13-0.471 0l-4.781-4.781c-0.13-0.13-0.13-0.341 0-0.471l1.424-1.424c1.432-1.432 3.754-1.432 5.185 0z"></path>
<path d="M14.374 15.040c0.391-0.391 0.391-1.024 0-1.414s-1.024-0.391-1.414 0l-2.293 2.293-0.626-0.626c-0.391-0.391-1.024-0.391-1.414 0l-2.367 2.367c-1.983 1.983-2.189 5.071-0.617 7.284l-2.683 2.683c-0.391 0.391-0.391 1.024 0 1.414s1.024 0.391 1.414 0l2.683-2.683c2.213 1.572 5.301 1.366 7.284-0.617l2.367-2.367c0.391-0.391 0.391-1.024 0-1.414l-0.626-0.626 2.293-2.293c0.391-0.391 0.391-1.024 0-1.414s-1.024-0.391-1.414 0l-2.293 2.293-2.586-2.586 2.293-2.293zM9.955 18.036l0.004 0.004 0.005 0.005 4.622 4.622-1.66 1.66c-1.432 1.432-3.754 1.432-5.185 0l-0.067-0.067c-1.432-1.432-1.432-3.753 0-5.185l1.66-1.66 0.622 0.622z"></path>
</svg>
