<!-- Generated by IcoMoon.io -->
<svg version="1.1" xmlns="http://www.w3.org/2000/svg" width="32" height="32" viewBox="0 0 32 32">
<title>plug-connected-regular</title>
<path d="M25.987 7.427c1.049 1.34 1.682 3.050 1.682 4.907 0 3.028-1.683 5.663-4.164 7.021l-0.042 0.021c-0.865 0.468-1.907 0.18-2.603-0.515l-7.72-7.721c-0.696-0.696-0.984-1.737-0.517-2.603 1.379-2.524 4.014-4.207 7.043-4.207 1.858 0 3.568 0.633 4.925 1.696l-0.018-0.013 3.053-3.053c0.182-0.189 0.437-0.306 0.72-0.306 0.552 0 1 0.448 1 1 0 0.282-0.117 0.537-0.305 0.719l-0 0-3.053 3.053zM23.297 17.111c1.445-1.107 2.367-2.834 2.367-4.775 0-3.314-2.686-6-6-6-1.942 0-3.668 0.922-4.765 2.353l-0.011 0.014c-0.355 0.465-0.248 1.111 0.167 1.524l6.716 6.717c0.413 0.413 1.060 0.521 1.525 0.167zM4.373 29.040l3.053-3.053c1.34 1.049 3.050 1.682 4.907 1.682 3.028 0 5.663-1.683 7.021-4.164l0.021-0.042c0.468-0.865 0.18-1.907-0.516-2.603l-7.72-7.72c-0.696-0.696-1.737-0.984-2.603-0.517-2.524 1.379-4.207 4.014-4.207 7.043 0 1.858 0.633 3.568 1.696 4.925l-0.013-0.018-3.053 3.053c-0.189 0.182-0.306 0.437-0.306 0.72 0 0.552 0.448 1 1 1 0.282 0 0.537-0.117 0.719-0.305l0-0zM10.227 15.056l6.717 6.717c0.413 0.413 0.52 1.059 0.167 1.524-1.107 1.445-2.834 2.367-4.775 2.367-3.314 0-6-2.686-6-6 0-1.942 0.922-3.668 2.353-4.765l0.014-0.011c0.465-0.355 1.111-0.248 1.524 0.167z"></path>
</svg>
