<!-- Generated by IcoMoon.io -->
<svg version="1.1" xmlns="http://www.w3.org/2000/svg" width="32" height="32" viewBox="0 0 32 32">
<title>plug-connected-add-regular</title>
<path d="M28.742 3.693c-0.123-0.293-0.408-0.494-0.739-0.494-0.224 0-0.427 0.092-0.573 0.241l-4.32 4.32c-1.082-0.848-2.464-1.36-3.965-1.36-1.783 0-3.398 0.723-4.566 1.892v0l-0.978 0.976c-0.305 0.304-0.493 0.724-0.493 1.189s0.188 0.885 0.493 1.189l0 0 4.438 4.426c0.442-0.32 0.915-0.6 1.414-0.835l-4.224-4.224c-0.142-0.142-0.229-0.338-0.229-0.554s0.088-0.412 0.229-0.554l0.48-0.48c0.878-0.88 2.093-1.425 3.434-1.425 1.337 0 2.547 0.541 3.425 1.415l-0-0 0.010 0.016 0.010 0.011c0.87 0.878 1.408 2.086 1.408 3.42 0 0.557-0.094 1.092-0.266 1.59l0.010-0.034c0.552 0.034 1.091 0.118 1.611 0.25 0.165-0.543 0.26-1.167 0.26-1.813 0-1.502-0.514-2.884-1.375-3.98l0.011 0.014 4.32-4.32c0.145-0.145 0.236-0.345 0.236-0.567 0-0.111-0.022-0.216-0.063-0.312l0.002 0.005zM11.646 13.6l4.432 4.432c-0.301 0.409-0.581 0.873-0.817 1.362l-0.023 0.053-4.218-4.218c-0.142-0.141-0.338-0.229-0.554-0.229s-0.412 0.087-0.554 0.229l-0.48 0.48c-0.879 0.879-1.422 2.093-1.422 3.434 0 1.336 0.54 2.547 1.413 3.425l0.009 0.009 0.008 0.010c0.877 0.876 2.088 1.418 3.426 1.418 0.555 0 1.088-0.093 1.584-0.265l-0.034 0.010c0.032 0.544 0.117 1.078 0.245 1.592-0.541 0.164-1.163 0.258-1.806 0.258-1.5 0-2.881-0.512-3.977-1.371l0.014 0.011-4.32 4.32c-0.145 0.147-0.346 0.237-0.569 0.237-0.442 0-0.8-0.358-0.8-0.8 0-0.22 0.088-0.419 0.232-0.563l4.32-4.32c-0.85-1.082-1.364-2.464-1.364-3.966 0-1.784 0.724-3.398 1.895-4.566l0.48-0.48 0.504-0.502c0.304-0.304 0.724-0.492 1.188-0.492s0.884 0.188 1.188 0.492v0zM27.2 29.187c-1.124 0.76-2.509 1.213-4 1.213-3.977 0-7.2-3.224-7.2-7.2 0-2.486 1.259-4.677 3.175-5.971l0.026-0.016c1.124-0.76 2.509-1.213 4-1.213 3.977 0 7.2 3.224 7.2 7.2 0 2.486-1.259 4.677-3.175 5.971l-0.026 0.016zM23.766 19.434c-0.145-0.145-0.345-0.235-0.566-0.235-0.442 0-0.8 0.358-0.8 0.8 0 0 0 0.001 0 0.002v-0 2.4h-2.4c-0.442 0-0.8 0.358-0.8 0.8s0.358 0.8 0.8 0.8v0h2.4v2.4c0 0.442 0.358 0.8 0.8 0.8s0.8-0.358 0.8-0.8v0-2.4h2.4c0.442 0 0.8-0.358 0.8-0.8s-0.358-0.8-0.8-0.8v0h-2.4v-2.4c0-0 0-0.001 0-0.001 0-0.221-0.089-0.42-0.234-0.565l0 0z"></path>
</svg>
