<!-- Generated by IcoMoon.io -->
<svg version="1.1" xmlns="http://www.w3.org/2000/svg" width="32" height="32" viewBox="0 0 32 32">
<title>plug-disconnected</title>
<path d="M25.989 7.231c0.797 1.042 1.276 2.364 1.276 3.797 0 1.736-0.704 3.307-1.841 4.445v0l-2.224 2.222c-0.155 0.155-0.369 0.251-0.606 0.251s-0.451-0.096-0.606-0.251v0l-7.678-7.677c-0.155-0.155-0.251-0.369-0.251-0.606s0.096-0.451 0.251-0.606v0l2.223-2.223c1.138-1.138 2.709-1.842 4.446-1.842 1.433 0 2.754 0.48 3.812 1.287l-0.015-0.011 3.479-3.479c0.154-0.149 0.364-0.241 0.596-0.241 0.473 0 0.857 0.384 0.857 0.857 0 0.231-0.092 0.441-0.241 0.595l-3.479 3.48zM22.594 15.878l1.617-1.617c0.827-0.827 1.339-1.97 1.339-3.233 0-2.525-2.047-4.572-4.572-4.572-1.262 0-2.405 0.512-3.233 1.339v0l-1.616 1.617 6.465 6.464zM14.603 12.817c0.155 0.155 0.251 0.369 0.251 0.606s-0.096 0.451-0.251 0.606l-2.43 2.431 3.368 3.368 2.429-2.43c0.156-0.161 0.374-0.261 0.616-0.261 0.473 0 0.857 0.384 0.857 0.857 0 0.242-0.1 0.461-0.262 0.617l-2.428 2.43 0.945 0.944c0.155 0.155 0.251 0.369 0.251 0.606s-0.096 0.451-0.251 0.606v0l-2.222 2.223c-1.138 1.137-2.709 1.841-4.445 1.841-1.434 0-2.755-0.48-3.813-1.288l0.015 0.011-3.48 3.48c-0.153 0.143-0.358 0.23-0.584 0.23-0.473 0-0.857-0.384-0.857-0.857 0-0.226 0.087-0.432 0.231-0.585l-0 0 3.479-3.481c-0.796-1.042-1.276-2.363-1.276-3.797 0-1.736 0.704-3.308 1.842-4.446l2.222-2.222c0.155-0.155 0.369-0.251 0.606-0.251s0.451 0.096 0.606 0.251l0.941 0.939 2.431-2.43c0.155-0.155 0.369-0.251 0.606-0.251s0.451 0.096 0.606 0.251v0zM7.807 24.215c0.826 0.823 1.966 1.331 3.225 1.331 1.262 0 2.405-0.512 3.233-1.339l1.616-1.616-6.465-6.465-1.616 1.616c-0.827 0.827-1.338 1.97-1.338 3.232 0 1.259 0.509 2.399 1.332 3.225l-0-0 0.007 0.008 0.008 0.007z"></path>
</svg>
