<!-- Generated by IcoMoon.io -->
<svg version="1.1" xmlns="http://www.w3.org/2000/svg" width="32" height="32" viewBox="0 0 32 32">
<title>poll</title>
<path d="M15.669 2.667c2.027 0 3.669 1.643 3.669 3.669v0 19.331c0 2.027-1.643 3.669-3.669 3.669s-3.669-1.643-3.669-3.669v0-19.331c0-2.027 1.643-3.669 3.669-3.669v0zM25.003 9.333c2.027 0 3.669 1.643 3.669 3.669v0 12.664c0 2.027-1.643 3.669-3.669 3.669s-3.669-1.643-3.669-3.669v0-12.664c0-2.027 1.643-3.669 3.669-3.669v0zM6.336 16c2.027 0 3.669 1.643 3.669 3.669v0 5.997c0 2.027-1.643 3.669-3.669 3.669s-3.669-1.643-3.669-3.669v0-5.997c0-2.027 1.643-3.669 3.669-3.669v0zM15.669 4.667c-0.923 0-1.669 0.747-1.669 1.669v19.331c0 0.922 0.747 1.669 1.669 1.669s1.669-0.747 1.669-1.669v0-19.331c0-0.923-0.747-1.669-1.669-1.669zM25.003 11.333c-0.921 0-1.669 0.747-1.669 1.669v12.664c0 0.922 0.747 1.669 1.669 1.669s1.669-0.747 1.669-1.669v0-12.664c0-0.923-0.747-1.669-1.669-1.669zM6.336 18c-0.923 0-1.669 0.747-1.669 1.669v5.997c0 0.922 0.747 1.669 1.669 1.669s1.669-0.747 1.669-1.669v0-5.997c0-0.923-0.747-1.669-1.669-1.669z"></path>
</svg>
