<!-- Generated by IcoMoon.io -->
<svg version="1.1" xmlns="http://www.w3.org/2000/svg" width="32" height="32" viewBox="0 0 32 32">
<title>port-hdmi</title>
<path d="M28.552 15.219l-3.771-3.771c-0.5-0.5-1.178-0.781-1.886-0.781h-13.791c-0.707 0-1.386 0.281-1.886 0.781l-3.771 3.771c-0.248 0.248-0.444 0.542-0.578 0.865s-0.203 0.67-0.203 1.021v1.562c0 0.707 0.281 1.385 0.781 1.886s1.178 0.781 1.886 0.781h21.333c0.707 0 1.385-0.281 1.886-0.781s0.781-1.178 0.781-1.886v-1.562c0-0.35-0.069-0.697-0.203-1.021s-0.331-0.617-0.578-0.865zM27.333 18.667c-0 0.177-0.071 0.346-0.195 0.471s-0.294 0.195-0.471 0.195h-21.333c-0.177-0-0.346-0.071-0.471-0.195s-0.195-0.294-0.195-0.471v-1.562c-0-0.088 0.017-0.174 0.050-0.255s0.083-0.154 0.145-0.216l3.771-3.771c0.062-0.062 0.135-0.111 0.216-0.145s0.168-0.051 0.255-0.050h13.791c0.088-0 0.174 0.017 0.255 0.050s0.154 0.083 0.216 0.145l3.771 3.771c0.062 0.062 0.111 0.135 0.145 0.216s0.051 0.168 0.050 0.255v1.562zM21.667 15h-11.333c-0.265 0-0.52 0.105-0.707 0.293s-0.293 0.442-0.293 0.707 0.105 0.52 0.293 0.707c0.188 0.188 0.442 0.293 0.707 0.293h11.333c0.265 0 0.52-0.105 0.707-0.293s0.293-0.442 0.293-0.707-0.105-0.52-0.293-0.707c-0.187-0.188-0.442-0.293-0.707-0.293z"></path>
</svg>
