<!-- Generated by IcoMoon.io -->
<svg version="1.1" xmlns="http://www.w3.org/2000/svg" width="32" height="32" viewBox="0 0 32 32">
<title>port-micro-usb-regular</title>
<path d="M20.229 14c0 0 0.001 0 0.002 0 0.183 0 0.349 0.074 0.469 0.195v0l2.439 2.439c0.12 0.12 0.195 0.287 0.195 0.47 0 0 0 0 0 0v-0 0.229c0 0.368-0.298 0.667-0.667 0.667v0h-13.333c-0.368 0-0.667-0.298-0.667-0.667v0-0.229c0-0.001 0-0.001 0-0.002 0-0.183 0.074-0.349 0.195-0.469l2.439-2.439c0.12-0.12 0.286-0.195 0.469-0.195 0.001 0 0.001 0 0.002 0h8.459zM20.229 12h-8.459c-0.736 0-1.403 0.299-1.885 0.781l-2.437 2.437c-0.483 0.482-0.781 1.149-0.781 1.885v0.229c0 1.473 1.194 2.667 2.667 2.667v0h13.333c1.473 0 2.667-1.194 2.667-2.667v0-0.229c-0-0.736-0.299-1.403-0.781-1.885l-2.437-2.437c-0.482-0.483-1.149-0.781-1.885-0.781h-0z"></path>
</svg>
