<!-- Generated by IcoMoon.io -->
<svg version="1.1" xmlns="http://www.w3.org/2000/svg" width="32" height="32" viewBox="0 0 32 32">
<title>port-hdmi-regular</title>
<path d="M28.552 15.219l-3.771-3.771c-0.482-0.483-1.149-0.781-1.885-0.781h-13.792c-0.736 0-1.403 0.299-1.885 0.781l-3.771 3.771c-0.483 0.482-0.781 1.149-0.781 1.885v1.563c0 1.473 1.194 2.667 2.667 2.667v0h21.333c1.473 0 2.667-1.194 2.667-2.667v0-1.563c-0-0.736-0.299-1.403-0.781-1.885v0zM27.333 18.667c0 0.368-0.298 0.667-0.667 0.667v0h-21.333c-0.368 0-0.667-0.298-0.667-0.667v0-1.563c0-0.001 0-0.001 0-0.002 0-0.183 0.074-0.349 0.195-0.469l3.772-3.771c0.12-0.121 0.287-0.196 0.47-0.196 0 0 0 0 0 0h13.792c0 0 0.001 0 0.002 0 0.183 0 0.349 0.074 0.469 0.195v0l3.772 3.772c0.12 0.12 0.195 0.285 0.195 0.468 0 0.001 0 0.003 0 0.004v-0 1.561zM21.667 15h-11.333c-0.552 0-1 0.448-1 1s0.448 1 1 1v0h11.333c0.552 0 1-0.448 1-1s-0.448-1-1-1v0z"></path>
</svg>
