<!-- Generated by IcoMoon.io -->
<svg version="1.1" xmlns="http://www.w3.org/2000/svg" width="32" height="32" viewBox="0 0 32 32">
<title>port-usb-c</title>
<path d="M21.333 14c0.53 0 1.039 0.211 1.414 0.586s0.586 0.884 0.586 1.414c0 0.53-0.211 1.039-0.586 1.414s-0.884 0.586-1.414 0.586h-10.667c-0.53 0-1.039-0.211-1.414-0.586s-0.586-0.884-0.586-1.414c0-0.53 0.211-1.039 0.586-1.414s0.884-0.586 1.414-0.586h10.667zM21.333 12h-10.667c-1.061 0-2.078 0.421-2.828 1.172s-1.172 1.768-1.172 2.828c0 1.061 0.421 2.078 1.172 2.828s1.768 1.172 2.828 1.172h10.667c1.061 0 2.078-0.421 2.828-1.172s1.172-1.768 1.172-2.828c0-1.061-0.421-2.078-1.172-2.828s-1.768-1.172-2.828-1.172z"></path>
</svg>
