<!-- Generated by IcoMoon.io -->
<svg version="1.1" xmlns="http://www.w3.org/2000/svg" width="32" height="32" viewBox="0 0 32 32">
<title>position-to-back</title>
<path d="M18.667 22.333c0-2.025 1.642-3.667 3.667-3.667h4.667c2.025 0 3.667 1.642 3.667 3.667v4.667c0 2.025-1.642 3.667-3.667 3.667h-4.667c-2.025 0-3.667-1.642-3.667-3.667v-4.667zM22.333 20.667c-0.921 0-1.667 0.746-1.667 1.667v4.667c0 0.921 0.746 1.667 1.667 1.667h4.667c0.921 0 1.667-0.746 1.667-1.667v-4.667c0-0.921-0.746-1.667-1.667-1.667h-4.667z"></path>
<path d="M8 14.667v5c0 2.393 1.94 4.333 4.333 4.333h5v-1.667c0-0.112 0.004-0.223 0.011-0.333h-0.433l0.489-0.489c0.348-2.103 2.008-3.763 4.111-4.111l0.489-0.489v0.433c0.11-0.007 0.221-0.011 0.333-0.011h1.667v-5c0-2.393-1.94-4.333-4.333-4.333h-5v1.667c0 0.112-0.004 0.223-0.011 0.333h0.761l-0.904 0.904c-0.45 1.767-1.841 3.158-3.608 3.608l-0.904 0.904v-0.761c-0.11 0.007-0.221 0.011-0.333 0.011h-1.667zM18.245 10h1.422c0.32 0 0.625 0.064 0.902 0.181l-10.388 10.388c-0.117-0.278-0.181-0.583-0.181-0.902v-1.422l8.245-8.245zM12.333 22c-0.229 0-0.451-0.033-0.66-0.095l10.232-10.232c0.062 0.209 0.095 0.431 0.095 0.66v1.75l-7.917 7.917h-1.75z"></path>
<path d="M1.333 5c0-2.025 1.642-3.667 3.667-3.667h4.667c2.025 0 3.667 1.642 3.667 3.667v4.667c0 2.025-1.642 3.667-3.667 3.667h-4.667c-2.025 0-3.667-1.642-3.667-3.667v-4.667zM5 3.333c-0.92 0-1.667 0.746-1.667 1.667v4.667c0 0.92 0.746 1.667 1.667 1.667h4.667c0.92 0 1.667-0.746 1.667-1.667v-4.667c0-0.92-0.746-1.667-1.667-1.667h-4.667z"></path>
</svg>
