<!-- Generated by IcoMoon.io -->
<svg version="1.1" xmlns="http://www.w3.org/2000/svg" width="32" height="32" viewBox="0 0 32 32">
<title>position-backward-regular</title>
<path d="M8.667 22h-1.667c-2.393 0-4.333-1.94-4.333-4.333v0-10.667c0-2.393 1.94-4.333 4.333-4.333v0h10.667c2.393 0 4.333 1.94 4.333 4.333v0 1.667h-2.203l0.203-0.203v-1.464c0-0.308-0.060-0.603-0.169-0.873l-2.537 2.54h-2.828l3.895-3.896c-0.206-0.066-0.443-0.104-0.689-0.104-0.001 0-0.002 0-0.003 0h-1.708l-11.293 11.292v1.708c0 0.24 0.036 0.473 0.104 0.693l3.896-3.897v2.828l-2.54 2.54c0.271 0.108 0.565 0.168 0.873 0.168h1.464l0.203-0.203v2.204zM13.131 4.667h-2.505l-5.959 5.959v2.505l8.464-8.464zM7.797 4.667h-0.797c-1.289 0-2.333 1.045-2.333 2.333v0 0.797l3.131-3.131zM29.333 25c0 2.393-1.94 4.333-4.333 4.333v0h-10.667c-2.393 0-4.333-1.94-4.333-4.333v0-10.667c0-2.393 1.94-4.333 4.333-4.333v0h10.667c2.393 0 4.333 1.94 4.333 4.333v0 10.667zM25 27.333c1.289 0 2.333-1.045 2.333-2.333v0-10.667c0-1.289-1.045-2.333-2.333-2.333v0h-10.667c-1.289 0-2.333 1.045-2.333 2.333v0 10.667c0 1.288 1.045 2.333 2.333 2.333h10.667z"></path>
</svg>
