<!-- Generated by IcoMoon.io -->
<svg version="1.1" xmlns="http://www.w3.org/2000/svg" width="32" height="32" viewBox="0 0 32 32">
<title>position-forward</title>
<path d="M25 29.333c2.393 0 4.333-1.94 4.333-4.333v-10.667c0-2.393-1.94-4.333-4.333-4.333h-1.667v2h1.667c1.289 0 2.333 1.045 2.333 2.333v10.667c0 1.289-1.045 2.333-2.333 2.333h-10.667c-1.289 0-2.333-1.045-2.333-2.333v-1.667h-2v1.667c0 2.393 1.94 4.333 4.333 4.333h10.667z"></path>
<path d="M17.667 22c2.393 0 4.333-1.94 4.333-4.333v-10.667c0-2.393-1.94-4.333-4.333-4.333h-10.667c-2.393 0-4.333 1.94-4.333 4.333v10.667c0 2.393 1.94 4.333 4.333 4.333h10.667zM20 17.667c0 1.289-1.045 2.333-2.333 2.333h-1.041l3.374-3.374v1.041zM20 13.959l-6.041 6.041h-2.667l8.708-8.708v2.667zM8.464 20h-1.464c-0.309 0-0.603-0.060-0.873-0.169l13.704-13.704c0.109 0.27 0.169 0.564 0.169 0.873v1.464l-11.536 11.536zM4.771 18.359c-0.068-0.219-0.104-0.451-0.104-0.692v-1.708l11.292-11.292h1.708c0.241 0 0.473 0.037 0.692 0.104l-13.588 13.588zM4.667 13.13v-2.505l5.959-5.959h2.505l-8.464 8.464zM4.667 7.797v-0.797c0-1.289 1.045-2.333 2.333-2.333h0.797l-3.13 3.13z"></path>
</svg>
