<!-- Generated by IcoMoon.io -->
<svg version="1.1" xmlns="http://www.w3.org/2000/svg" width="32" height="32" viewBox="0 0 32 32">
<title>position-forward-regular</title>
<path d="M25 29.333c2.393 0 4.333-1.94 4.333-4.333v0-10.667c0-2.393-1.94-4.333-4.333-4.333v0h-1.667v2h1.667c1.288 0 2.333 1.045 2.333 2.333v10.667c0 1.289-1.045 2.333-2.333 2.333v0h-10.667c-1.289 0-2.333-1.045-2.333-2.333v0-1.667h-2v1.667c0 2.393 1.94 4.333 4.333 4.333v0h10.667zM17.667 22c2.393 0 4.333-1.94 4.333-4.333v0-10.667c0-2.393-1.94-4.333-4.333-4.333v0h-10.667c-2.393 0-4.333 1.94-4.333 4.333v0 10.667c0 2.393 1.94 4.333 4.333 4.333v0h10.667zM20 17.667c0 1.289-1.045 2.333-2.333 2.333v0h-1.040l3.373-3.373v1.040zM20 13.959l-6.041 6.041h-2.667l8.708-8.708v2.667zM8.464 20h-1.464c-0.308 0-0.603-0.060-0.873-0.169l13.704-13.704c0.109 0.271 0.169 0.565 0.169 0.873v1.464l-11.536 11.536zM4.771 18.36c-0.066-0.206-0.104-0.443-0.104-0.689 0-0.002 0-0.003 0-0.005v0-1.708l11.292-11.292h1.708c0.24 0 0.473 0.036 0.693 0.104l-13.591 13.589zM4.667 13.129v-2.504l5.959-5.959h2.505l-8.464 8.464zM4.667 7.796v-0.796c0-1.288 1.045-2.333 2.333-2.333h0.797l-3.131 3.131z"></path>
</svg>
