<!-- Generated by IcoMoon.io -->
<svg version="1.1" xmlns="http://www.w3.org/2000/svg" width="32" height="32" viewBox="0 0 32 32">
<title>position-to-front</title>
<path d="M1.333 5c0-2.025 1.642-3.667 3.667-3.667v0h4.667c2.025 0 3.667 1.642 3.667 3.667v0 1.667h-1c-0.341 0-0.676 0.031-1 0.088v-1.755c0-0.92-0.747-1.667-1.667-1.667h-4.667c-0.92 0-1.667 0.747-1.667 1.667v4.667c0 0.92 0.747 1.667 1.667 1.667h1.755c-0.056 0.3-0.088 0.645-0.088 0.998 0 0.001 0 0.002 0 0.002v-0 1h-1.667c-2.025 0-3.667-1.642-3.667-3.667v0-4.667zM18.667 25.333v1.667c0 2.025 1.642 3.667 3.667 3.667v0h4.667c2.025 0 3.667-1.642 3.667-3.667v0-4.667c0-2.025-1.642-3.667-3.667-3.667v0h-1.667v1c0 0.341-0.031 0.676-0.088 1h1.755c0.92 0 1.667 0.747 1.667 1.667v4.667c0 0.92-0.747 1.667-1.667 1.667h-4.667c-0.92 0-1.667-0.747-1.667-1.667v-1.755c-0.3 0.056-0.645 0.088-0.997 0.088-0.001 0-0.002 0-0.003 0h-1zM12.333 8c-2.393 0-4.333 1.94-4.333 4.333v0 7.333c0 2.393 1.94 4.333 4.333 4.333v0h7.333c2.393 0 4.333-1.94 4.333-4.333v0-7.333c0-2.393-1.94-4.333-4.333-4.333v0h-7.333zM15.417 10l-5.417 5.417v-2.507l2.912-2.911h2.505zM10 18.245l8.245-8.245h1.421c0.32 0 0.625 0.064 0.903 0.181l-10.388 10.387c-0.115-0.266-0.181-0.575-0.181-0.901 0-0 0-0.001 0-0.001v0-1.421zM11.673 21.905l10.232-10.232c0.061 0.209 0.095 0.431 0.095 0.66v1.751l-7.917 7.916h-1.749c-0.229 0-0.451-0.033-0.66-0.095zM19.583 22h-2.671l5.088-5.088v2.755l-0.044-0.044-2.375 2.375 0.003 0.003z"></path>
</svg>
