<!-- Generated by IcoMoon.io -->
<svg version="1.1" xmlns="http://www.w3.org/2000/svg" width="32" height="32" viewBox="0 0 32 32">
<title>power-regular</title>
<path d="M12.217 6.019c0.043 0.099 0.068 0.214 0.068 0.335 0 0.352-0.212 0.655-0.516 0.787l-0.006 0.002c-3.924 1.695-6.621 5.532-6.621 9.999 0 0 0 0.001 0 0.001v-0c0 5.996 4.861 10.857 10.857 10.857s10.857-4.861 10.857-10.857v0c0-0 0-0.001 0-0.001 0-4.467-2.696-8.303-6.55-9.972l-0.070-0.027c-0.296-0.139-0.498-0.435-0.498-0.778 0-0.473 0.384-0.857 0.857-0.857 0.112 0 0.218 0.021 0.316 0.060l-0.006-0.002c4.543 1.962 7.665 6.404 7.665 11.575 0 0.001 0 0.002 0 0.003v-0c0 6.943-5.629 12.571-12.571 12.571s-12.571-5.629-12.571-12.571c0-0.001 0-0.002 0-0.003 0-5.171 3.122-9.613 7.584-11.543l0.081-0.031c0.099-0.043 0.214-0.068 0.335-0.068 0.352 0 0.655 0.212 0.787 0.516l0.002 0.006zM16 2.286c0.473 0 0.857 0.384 0.857 0.857v0 10.857c0 0.473-0.384 0.857-0.857 0.857s-0.857-0.384-0.857-0.857v0-10.857c0-0.473 0.384-0.857 0.857-0.857v0z"></path>
</svg>
