<!-- Generated by IcoMoon.io -->
<svg version="1.1" xmlns="http://www.w3.org/2000/svg" width="32" height="32" viewBox="0 0 32 32">
<title>predictions</title>
<path d="M16 2.667c1.538 0 2.985 0.386 4.252 1.066-0.102 0.594-0.299 1.015-0.568 1.285-0.147 0.147-0.34 0.273-0.582 0.374-0.936-0.464-1.988-0.724-3.101-0.724-3.866 0-7 3.134-7 7 0 2.851 1.704 5.304 4.15 6.395 0.917 0.358 1.765 0.555 2.541 0.596l0.309 0.008c0.86 0 1.81-0.199 2.85-0.603 1.221-0.546 2.257-1.43 2.989-2.534 0.853 0.293 1.878 0.115 2.525-0.534-0.553 1.39-1.443 2.61-2.569 3.558l2.162 6.487c0.355 1.065-0.099 2.232-1.080 2.777-1.829 1.017-4.124 1.516-6.876 1.516s-5.047-0.499-6.876-1.516c-0.981-0.545-1.435-1.712-1.080-2.777l2.162-6.487c-1.96-1.651-3.206-4.123-3.206-6.887 0-4.971 4.029-9 9-9zM20.075 19.722l-0.48 0.197-0.024 0.011c-0.969 0.419-2.026 0.673-3.135 0.726-0.008-0.001-0.016-0.001-0.023-0.001-0.032 0.003-0.064 0.005-0.097 0.006l-0.316 0.005-0.261-0.005-0.174-0.007c-1.11-0.051-2.167-0.305-3.136-0.724l-0.024-0.011c-0.159-0.062-0.319-0.128-0.479-0.197l-1.984 5.951c-0.051 0.152 0.014 0.319 0.154 0.397 1.505 0.836 3.47 1.264 5.905 1.264s4.4-0.427 5.905-1.264c0.14-0.078 0.205-0.245 0.154-0.397l-1.984-5.951zM15.586 20.657l0.152 0.004 0.044 0.002 0.217 0.003c-0.139 0-0.277-0.003-0.414-0.009zM23.99 2.507l0.010 0.16c0 1.533 0.36 2.612 1.040 3.293 0.628 0.628 1.596 0.983 2.947 1.034l0.346 0.006c1.278 0 1.331 1.837 0.16 1.99l-0.16 0.010c-1.533 0-2.612 0.36-3.293 1.040-0.628 0.628-0.983 1.596-1.034 2.947l-0.006 0.346c0 1.333-2 1.333-2 0 0-1.533-0.36-2.612-1.040-3.293-0.628-0.628-1.596-0.983-2.947-1.034l-0.346-0.006c-1.278 0-1.331-1.837-0.16-1.99l0.16-0.010c1.533 0 2.612-0.36 3.293-1.040s1.040-1.76 1.040-3.293c0-1.278 1.837-1.331 1.99-0.16zM23 6.603l-0.192 0.272c-0.133 0.176-0.278 0.343-0.435 0.499-0.235 0.235-0.492 0.443-0.77 0.626 0.279 0.183 0.536 0.392 0.77 0.626s0.443 0.492 0.626 0.77c0.183-0.279 0.392-0.536 0.626-0.77s0.492-0.443 0.77-0.626c-0.279-0.183-0.536-0.392-0.77-0.626-0.156-0.156-0.301-0.323-0.435-0.499l-0.192-0.272z"></path>
</svg>
