<!-- Generated by IcoMoon.io -->
<svg version="1.1" xmlns="http://www.w3.org/2000/svg" width="32" height="32" viewBox="0 0 32 32">
<title>predictions</title>
<path d="M16 2.667c1.537 0 2.987 0.387 4.252 1.067-0.101 0.593-0.299 1.013-0.568 1.284-0.163 0.157-0.357 0.283-0.571 0.369l-0.012 0.004c-0.872-0.419-1.895-0.664-2.976-0.664-3.866 0-7 3.134-7 7 0 2.785 1.627 5.191 3.982 6.318l0.042 0.018c0.917 0.357 1.765 0.555 2.541 0.596l0.309 0.008c0.86 0 1.809-0.2 2.849-0.603 1.236-0.562 2.25-1.43 2.973-2.508l0.016-0.025c0.853 0.293 1.879 0.115 2.525-0.535-0.576 1.419-1.452 2.613-2.556 3.546l-0.013 0.011 2.161 6.487c0.076 0.22 0.12 0.474 0.12 0.738 0 0.872-0.479 1.633-1.188 2.033l-0.012 0.006c-1.828 1.017-4.124 1.516-6.876 1.516s-5.048-0.499-6.876-1.516c-0.721-0.406-1.2-1.167-1.2-2.039 0-0.264 0.044-0.518 0.125-0.754l-0.005 0.016 2.161-6.487c-1.966-1.662-3.206-4.129-3.206-6.887 0-4.971 4.029-9 9-9 0 0 0 0 0 0h-0zM20.076 19.721l-0.48 0.199-0.024 0.011c-0.921 0.409-1.991 0.671-3.116 0.725l-0.020 0.001h-0.023c-0.028 0.003-0.062 0.005-0.096 0.005l-0.318 0.005-0.261-0.005-0.173-0.007c-1.145-0.053-2.216-0.314-3.194-0.746l0.057 0.022-0.024-0.011c-0.257-0.099-0.416-0.166-0.572-0.235l0.092 0.037-1.983 5.951c-0.011 0.032-0.017 0.068-0.017 0.106 0 0.124 0.068 0.233 0.169 0.29l0.002 0.001c1.507 0.836 3.471 1.264 5.905 1.264s4.4-0.427 5.905-1.264c0.102-0.058 0.17-0.167 0.17-0.291 0-0.038-0.006-0.074-0.018-0.108l0.001 0.002-1.983-5.952zM15.587 20.657l0.152 0.004 0.044 0.003 0.217 0.003c-0.139 0-0.276-0.003-0.413-0.009zM23.989 2.507l0.011 0.16c0 1.533 0.36 2.613 1.040 3.293 0.628 0.627 1.597 0.983 2.947 1.033l0.347 0.007c1.277 0 1.331 1.837 0.16 1.989l-0.16 0.011c-1.533 0-2.613 0.36-3.293 1.040-0.627 0.629-0.983 1.597-1.033 2.947l-0.007 0.347c0 1.333-2 1.333-2 0 0-1.533-0.36-2.613-1.040-3.293-0.629-0.627-1.597-0.983-2.947-1.033l-0.347-0.007c-1.277 0-1.331-1.837-0.16-1.989l0.16-0.011c1.533 0 2.613-0.36 3.293-1.040s1.040-1.76 1.040-3.293c0-1.277 1.837-1.331 1.989-0.16zM23 6.604l-0.192 0.271c-0.336 0.442-0.735 0.815-1.187 1.114l-0.018 0.011c0.56 0.371 1.026 0.836 1.386 1.378l0.011 0.018c0.371-0.56 0.836-1.025 1.378-1.385l0.018-0.011c-0.469-0.311-0.867-0.684-1.195-1.114l-0.009-0.012-0.192-0.271z"></path>
</svg>
