<!-- Generated by IcoMoon.io -->
<svg version="1.1" xmlns="http://www.w3.org/2000/svg" width="32" height="32" viewBox="0 0 32 32">
<title>premium</title>
<path d="M23.999 4c0.321 0 0.62 0.154 0.807 0.409l0.073 0.115 4.351 8.038 0.051 0.124 0.016 0.053 0.027 0.136 0.008 0.125c0 0.092-0.012 0.181-0.036 0.266l-0.063 0.168-0.050 0.091c-0.029 0.047-0.063 0.093-0.101 0.136l0.080-0.103-0.033 0.046-12.333 14.007c-0.107 0.142-0.245 0.245-0.396 0.309l-0.131 0.044-0.103 0.023-0.166 0.013-0.134-0.009-0.157-0.034c-0.080-0.023-0.158-0.057-0.231-0.101l-0.012-0.010c-0.063-0.038-0.121-0.084-0.175-0.138l-12.42-14.105-0.053-0.078c-0.074-0.119-0.123-0.256-0.141-0.402l-0.008-0.124 0.004-0.088 0.018-0.118c0.008-0.040 0.019-0.078 0.031-0.116l0.030-0.078 0.037-0.076 4.332-8c0.153-0.282 0.43-0.472 0.743-0.515l0.136-0.009h16zM19.996 14h-7.999l4.001 10.249 3.997-10.249zM9.852 14h-3.973l7.135 8.099-3.161-8.099zM26.116 14h-3.972l-3.157 8.093 7.129-8.093zM11.961 6h-3.368l-3.251 6h4.699l1.92-6zM17.935 6h-3.873l-1.921 6h7.713l-1.919-6zM23.403 6h-3.368l1.92 6h4.696l-3.248-6z"></path>
</svg>
