<!-- Generated by IcoMoon.io -->
<svg version="1.1" xmlns="http://www.w3.org/2000/svg" width="32" height="32" viewBox="0 0 32 32">
<title>premium</title>
<path d="M7 4c-0.389 0-0.726 0.223-0.891 0.547l-0.003 0.006-4 8c-0.067 0.13-0.106 0.284-0.106 0.448 0 0.24 0.084 0.46 0.225 0.632l-0.001-0.002 13 16c0.185 0.226 0.464 0.369 0.776 0.369s0.591-0.143 0.775-0.367l0.001-0.002 13-16c0.139-0.171 0.224-0.391 0.224-0.63 0-0.163-0.039-0.317-0.108-0.453l0.003 0.006-4-8c-0.168-0.33-0.505-0.553-0.894-0.553h-18zM4.618 12l3-6h4.101l-1.5 6h-5.601zM5.101 14h5.164l3.227 10.328-8.391-10.328zM12.361 14h7.279l-3.64 11.647-3.64-11.647zM21.735 14h5.165l-8.391 10.328 3.226-10.328zM27.382 12h-5.601l-1.5-6h4.101l3 6zM19.719 12h-7.438l1.5-6h4.438l1.5 6z"></path>
</svg>
