<!-- Generated by IcoMoon.io -->
<svg version="1.1" xmlns="http://www.w3.org/2000/svg" width="32" height="32" viewBox="0 0 32 32">
<title>premium-person-regular</title>
<path d="M23.999 4c0 0 0 0 0.001 0 0.33 0 0.622 0.159 0.804 0.405l0.002 0.003 0.073 0.116 4.351 8.037 0.051 0.124 0.016 0.053 0.027 0.136 0.008 0.125c0 0 0 0.001 0 0.001 0 0.095-0.013 0.186-0.038 0.273l0.002-0.007-0.063 0.167-0.051 0.092c-0.019 0.030-0.037 0.056-0.055 0.080l0.002-0.003c-0.017 0.022-0.032 0.041-0.048 0.060l0.001-0.001 0.025-0.033-1.699 1.928c-0.546-0.402-1.201-0.69-1.912-0.817l-0.028-0.004 0.648-0.735h-3.967l-5.216 13.364c-0.15 0.375-0.51 0.636-0.931 0.636-0.001 0-0.001 0-0.002 0h-0.004c-0.044 0-0.087-0.003-0.129-0.009l-0 0.001-0.007-0.001c-0.053-0.008-0.099-0.019-0.144-0.033l0.007 0.002-0.013-0.003c-0.088-0.026-0.165-0.060-0.236-0.104l0.004 0.002-0.012-0.009c-0.066-0.041-0.123-0.087-0.173-0.138l-0-0-12.421-14.104-0.053-0.079c-0.072-0.115-0.122-0.251-0.141-0.396l-0.001-0.005-0.009-0.124 0.004-0.088 0.017-0.119c0.010-0.046 0.021-0.084 0.034-0.121l-0.002 0.007 0.029-0.079 0.037-0.076 4.333-8c0.151-0.275 0.42-0.469 0.737-0.514l0.005-0.001 0.136-0.009h16zM20.003 14h-8.005l4 10.249 0.003-0.004v0.005l4.003-10.251zM9.852 14h-3.973l7.135 8.099-3.161-8.099zM11.961 6h-3.368l-3.251 6h4.699l1.92-6zM17.935 6h-3.873l-1.921 6h7.713l-1.92-6zM23.401 6h-3.367l1.92 6h4.696l-3.248-6zM28 19.333c0 1.841-1.492 3.333-3.333 3.333s-3.333-1.492-3.333-3.333v0c0-1.841 1.492-3.333 3.333-3.333s3.333 1.492 3.333 3.333v0zM30.667 26.5c0 2.075-1.715 4.167-6 4.167s-6-2.084-6-4.167v-0.137c0-1.307 1.059-2.363 2.364-2.363h7.272c1.307 0 2.364 1.057 2.364 2.363v0.137z"></path>
</svg>
