<!-- Generated by IcoMoon.io -->
<svg version="1.1" xmlns="http://www.w3.org/2000/svg" width="32" height="32" viewBox="0 0 32 32">
<title>presence-blocked</title>
<path d="M32 16c0 8.836-7.164 16-16 16s-16-7.164-16-16 7.164-16 16-16 16 7.164 16 16zM28 16c0-0.006 0-0.012 0-0.019 0-2.601-0.831-5.008-2.243-6.97l0.024 0.036-16.733 16.735c1.932 1.388 4.345 2.219 6.952 2.219 6.627 0 12-5.373 12-12 0-0 0-0 0-0v0zM22.953 6.219c-1.932-1.388-4.345-2.22-6.953-2.22-6.627 0-12 5.373-12 12 0 2.607 0.832 5.021 2.244 6.989l-0.025-0.036 16.733-16.733z"></path>
</svg>
