<!-- Generated by IcoMoon.io -->
<svg version="1.1" xmlns="http://www.w3.org/2000/svg" width="32" height="32" viewBox="0 0 32 32">
<title>presenter</title>
<path d="M26.993 17.329c0.945 0 1.363 1.19 0.625 1.781l-6.291 5.037v2.192c0 1.657-1.343 3-3 3h-4.661c-1.657 0-3-1.343-3-3v-2.192l-6.293-5.037c-0.738-0.591-0.32-1.781 0.625-1.781h21.994zM24.144 19.329h-16.295l4.443 3.557c0.237 0.19 0.375 0.477 0.375 0.781v2.673c0 0.552 0.448 1 1 1h4.661c0.552 0 1-0.448 1-1v-2.673c0-0.304 0.138-0.591 0.375-0.781l4.442-3.557zM11.667 12h8.66c1.224 0 2.228 0.943 2.326 2.142l0.008 0.191v1.667h-2v-1.667c0-0.158-0.11-0.29-0.257-0.325l-0.076-0.009h-8.66c-0.158 0-0.29 0.11-0.325 0.257l-0.009 0.076v1.667h-2v-1.667c0-1.224 0.943-2.228 2.142-2.326l0.191-0.008zM16 2.667c2.209 0 4 1.791 4 4s-1.791 4-4 4c-2.209 0-4-1.791-4-4s1.791-4 4-4zM16 4.667c-1.105 0-2 0.895-2 2s0.895 2 2 2c1.105 0 2-0.895 2-2s-0.895-2-2-2z"></path>
</svg>
