<!-- Generated by IcoMoon.io -->
<svg version="1.1" xmlns="http://www.w3.org/2000/svg" width="32" height="32" viewBox="0 0 32 32">
<title>presence-oof</title>
<path d="M16.749 12.076c0.362-0.362 0.586-0.862 0.586-1.415 0-1.105-0.895-2-2-2-0.552 0-1.052 0.224-1.414 0.585l-5.339 5.34c-0.361 0.362-0.585 0.861-0.585 1.413s0.223 1.052 0.585 1.413l5.339 5.34c0.359 0.347 0.849 0.561 1.389 0.561 1.105 0 2-0.895 2-2 0-0.54-0.214-1.030-0.562-1.39l0.001 0.001-1.923-1.925h7.173c1.105 0 2-0.895 2-2s-0.895-2-2-2v0h-7.173l1.924-1.924zM16 0c-8.836 0-16 7.164-16 16s7.164 16 16 16 16-7.164 16-16-7.164-16-16-16zM4 16c0-6.627 5.373-12 12-12s12 5.373 12 12v0c0 6.627-5.373 12-12 12s-12-5.373-12-12v0z"></path>
</svg>
