<!-- Generated by IcoMoon.io -->
<svg version="1.1" xmlns="http://www.w3.org/2000/svg" width="32" height="32" viewBox="0 0 32 32">
<title>presence-oof-10</title>
<path d="M17.116 12.323c0.624-0.625 0.623-1.638-0.002-2.263s-1.638-0.623-2.263 0.002l-4.792 4.8c-0.624 0.625-0.624 1.636 0 2.261l4.792 4.8c0.624 0.625 1.637 0.626 2.263 0.002s0.626-1.637 0.002-2.263l-2.066-2.070h5.759c0.884 0 1.6-0.716 1.6-1.6s-0.716-1.6-1.6-1.6h-5.759l2.066-2.070z"></path>
<path d="M15.993 0c-8.832 0-15.993 7.16-15.993 15.993s7.16 15.993 15.993 15.993c8.832 0 15.993-7.16 15.993-15.993s-7.16-15.993-15.993-15.993zM3.2 15.993c0-7.065 5.727-12.793 12.793-12.793s12.793 5.727 12.793 12.793c0 7.065-5.727 12.793-12.793 12.793s-12.793-5.727-12.793-12.793z"></path>
</svg>
