<!-- Generated by IcoMoon.io -->
<svg version="1.1" xmlns="http://www.w3.org/2000/svg" width="32" height="32" viewBox="0 0 32 32">
<title>presence-offline-10</title>
<path d="M21.931 10.069c0.625 0.625 0.625 1.638 0 2.263l-3.669 3.669 3.669 3.669c0.625 0.625 0.625 1.638 0 2.263s-1.638 0.625-2.263 0l-3.669-3.669-3.669 3.669c-0.625 0.625-1.638 0.625-2.263 0s-0.625-1.638 0-2.263l3.669-3.669-3.669-3.669c-0.625-0.625-0.625-1.638 0-2.263s1.638-0.625 2.263 0l3.669 3.669 3.669-3.669c0.625-0.625 1.638-0.625 2.263 0z"></path>
<path d="M0 16c0-8.837 7.163-16 16-16s16 7.163 16 16c0 8.837-7.164 16-16 16s-16-7.164-16-16zM16 3.2c-7.069 0-12.8 5.731-12.8 12.8s5.731 12.8 12.8 12.8c7.069 0 12.8-5.731 12.8-12.8s-5.731-12.8-12.8-12.8z"></path>
</svg>
