<!-- Generated by IcoMoon.io -->
<svg version="1.1" xmlns="http://www.w3.org/2000/svg" width="32" height="32" viewBox="0 0 32 32">
<title>presenter</title>
<path d="M26.993 17.329c0.945 0 1.363 1.189 0.625 1.78l-6.291 5.037v2.192c0 1.657-1.343 3-3 3v0h-4.661c-1.657 0-3-1.343-3-3v0-2.192l-6.293-5.037c-0.737-0.591-0.32-1.78 0.627-1.78h21.993zM24.144 19.329h-16.295l4.443 3.556c0.229 0.185 0.375 0.465 0.375 0.78v2.673c0 0.552 0.448 1 1 1h4.661c0.552 0 1-0.448 1-1v0-2.672c0-0.315 0.145-0.595 0.373-0.779l0.002-0.002 4.441-3.556zM11.667 12h8.66c1.221 0 2.223 0.938 2.325 2.133l0.001 0.009 0.008 0.191v1.668h-2v-1.667c-0-0.157-0.108-0.288-0.254-0.324l-0.002-0-0.077-0.009h-8.66c-0.157 0-0.288 0.109-0.324 0.255l-0 0.002-0.009 0.076v1.667h-2v-1.667c0-1.221 0.939-2.224 2.134-2.325l0.009-0.001 0.191-0.008zM16 2.667c2.209 0 4 1.791 4 4s-1.791 4-4 4v0c-2.209 0-4-1.791-4-4s1.791-4 4-4v0zM16 4.667c-1.105 0-2 0.895-2 2s0.895 2 2 2v0c1.105 0 2-0.895 2-2s-0.895-2-2-2v0z"></path>
</svg>
