<!-- Generated by IcoMoon.io -->
<svg version="1.1" xmlns="http://www.w3.org/2000/svg" width="32" height="32" viewBox="0 0 32 32">
<title>previous</title>
<path d="M4 27c0 0.552 0.448 1 1 1s1-0.448 1-1v-22c0-0.552-0.448-1-1-1s-1 0.448-1 1v22z"></path>
<path d="M24.307 27.3c1.544 1.107 3.693 0.003 3.693-1.896v-18.964c0-1.845-2.040-2.96-3.593-1.964l-13.96 8.955c-1.388 0.89-1.44 2.9-0.1 3.86l13.96 10.009zM26 25.403c0 0.271-0.307 0.429-0.528 0.271l-13.96-10.009c-0.191-0.137-0.184-0.424 0.014-0.551l13.96-8.955c0.222-0.142 0.513 0.017 0.513 0.281v18.964z"></path>
</svg>
