<!-- Generated by IcoMoon.io -->
<svg version="1.1" xmlns="http://www.w3.org/2000/svg" width="32" height="32" viewBox="0 0 32 32">
<title>preview-link</title>
<path d="M6.032 8.333c0-0.552 0.448-1 1-1h17.941c0.552 0 1 0.448 1 1v4.667c0 0.552-0.448 1-1 1h-17.941c-0.552 0-1-0.448-1-1v-4.667zM8.032 9.333v2.667h15.941v-2.667h-15.941z"></path>
<path d="M18.973 15.972c-0.552 0-1 0.448-1 1v6c0 0.552 0.448 1 1 1h6c0.552 0 1-0.448 1-1v-6c0-0.552-0.448-1-1-1h-6zM19.973 21.972v-4h4v4h-4z"></path>
<path d="M6.032 17.667c0-0.552 0.448-1 1-1h7.968c0.552 0 1 0.448 1 1s-0.448 1-1 1h-7.968c-0.552 0-1-0.448-1-1z"></path>
<path d="M7.032 21.333c-0.552 0-1 0.448-1 1s0.448 1 1 1h7.968c0.552 0 1-0.448 1-1s-0.448-1-1-1h-7.968z"></path>
<path d="M2.667 7.667c0-2.025 1.642-3.667 3.667-3.667h19.333c2.025 0 3.667 1.642 3.667 3.667v16.667c0 2.025-1.642 3.667-3.667 3.667h-19.333c-2.025 0-3.667-1.642-3.667-3.667v-16.667zM6.333 6c-0.92 0-1.667 0.746-1.667 1.667v16.667c0 0.921 0.746 1.667 1.667 1.667h19.333c0.921 0 1.667-0.746 1.667-1.667v-16.667c0-0.92-0.746-1.667-1.667-1.667h-19.333z"></path>
</svg>
