<!-- Generated by IcoMoon.io -->
<svg version="1.1" xmlns="http://www.w3.org/2000/svg" width="32" height="32" viewBox="0 0 32 32">
<title>production-regular</title>
<path d="M8.333 4.667c-1.289 0-2.333 1.045-2.333 2.333v0 3.333c0 1.288 1.045 2.333 2.333 2.333h3.333c1.289 0 2.333-1.045 2.333-2.333v0-3.333c0-1.289-1.045-2.333-2.333-2.333v0h-3.333zM18 7c0-1.288 1.045-2.333 2.333-2.333h3.333c1.288 0 2.333 1.045 2.333 2.333v3.333c0 1.289-1.045 2.333-2.333 2.333v0h-3.333c-1.289 0-2.333-1.045-2.333-2.333v0-3.333zM20.333 6.667c-0.184 0-0.333 0.149-0.333 0.333v0 3.333c0 0.184 0.149 0.333 0.333 0.333h3.333c0.184 0 0.333-0.149 0.333-0.333v0-3.333c0-0.184-0.149-0.333-0.333-0.333v0h-3.333zM9.333 23.333c1.105 0 2-0.895 2-2s-0.895-2-2-2v0c-1.105 0-2 0.895-2 2s0.895 2 2 2v0zM18 21.333c0 1.105-0.895 2-2 2s-2-0.895-2-2v0c0-1.105 0.895-2 2-2s2 0.895 2 2v0zM22.667 23.333c1.105 0 2-0.895 2-2s-0.895-2-2-2v0c-1.105 0-2 0.895-2 2s0.895 2 2 2v0zM2.667 21.333c0-3.314 2.686-6 6-6v0h14.667c3.314 0 6 2.686 6 6s-2.686 6-6 6v0h-14.667c-3.314 0-6-2.686-6-6v0zM8.667 17.333c-2.209 0-4 1.791-4 4s1.791 4 4 4v0h14.667c2.209 0 4-1.791 4-4s-1.791-4-4-4v0h-14.667z"></path>
</svg>
