<!-- Generated by IcoMoon.io -->
<svg version="1.1" xmlns="http://www.w3.org/2000/svg" width="32" height="32" viewBox="0 0 32 32">
<title>prohibited-note</title>
<path d="M28.8 16c0 0.091 0 0.182-0.003 0.272-0.474-0.172-1.021-0.272-1.591-0.272-0.002 0-0.004 0-0.006 0h0c0-0.005 0-0.010 0-0.016 0-2.807-1.036-5.371-2.747-7.332l0.011 0.013-15.798 15.8c1.557 1.358 3.515 2.295 5.674 2.613l0.061 0.007v0.114c0 0.534 0.088 1.050 0.25 1.53-6.466-0.705-11.453-6.135-11.453-12.73 0-7.070 5.731-12.802 12.802-12.802s12.802 5.731 12.802 12.802c0 0 0 0.001 0 0.001v-0zM7.536 23.334l15.798-15.8c-1.953-1.698-4.521-2.733-7.331-2.733-6.186 0-11.2 5.014-11.2 11.2 0 2.81 1.035 5.378 2.744 7.345l-0.012-0.014zM19.2 17.6c-1.767 0-3.2 1.433-3.2 3.2v0 6.4c0 1.767 1.433 3.2 3.2 3.2v0h8c1.767 0 3.2-1.433 3.2-3.2v0-6.4c0-1.767-1.433-3.2-3.2-3.2v0h-8zM20 25.6h6.4c0.442 0 0.8 0.358 0.8 0.8s-0.358 0.8-0.8 0.8v0h-6.4c-0.442 0-0.8-0.358-0.8-0.8s0.358-0.8 0.8-0.8v0zM19.2 21.6c0-0.442 0.358-0.8 0.8-0.8v0h6.4c0.442 0 0.8 0.358 0.8 0.8s-0.358 0.8-0.8 0.8v0h-6.4c-0.442 0-0.8-0.358-0.8-0.8v0z"></path>
</svg>
