<!-- Generated by IcoMoon.io -->
<svg version="1.1" xmlns="http://www.w3.org/2000/svg" width="32" height="32" viewBox="0 0 32 32">
<title>prohibited</title>
<path d="M16 2.667c7.364 0 13.333 5.97 13.333 13.333s-5.97 13.333-13.333 13.333c-7.364 0-13.333-5.97-13.333-13.333s5.97-13.333 13.333-13.333zM24.69 8.724l-15.966 15.966c1.969 1.65 4.506 2.644 7.276 2.644 6.259 0 11.333-5.074 11.333-11.333 0-2.77-0.993-5.307-2.644-7.276zM16 4.667c-6.259 0-11.333 5.074-11.333 11.333 0 2.77 0.994 5.307 2.644 7.276l15.966-15.966c-1.969-1.65-4.506-2.644-7.276-2.644z"></path>
</svg>
