<!-- Generated by IcoMoon.io -->
<svg version="1.1" xmlns="http://www.w3.org/2000/svg" width="32" height="32" viewBox="0 0 32 32">
<title>prohibited</title>
<path d="M16 3.333c6.995 0 12.667 5.671 12.667 12.667s-5.671 12.667-12.667 12.667-12.667-5.671-12.667-12.667 5.671-12.667 12.667-12.667zM24.345 8.833l-15.512 15.512c1.907 1.65 4.411 2.655 7.15 2.655 0.006 0 0.012 0 0.017 0h-0.001c6.075 0 11-4.925 11-11 0-2.737-1-5.241-2.655-7.167zM16 5c-6.075 0-11 4.925-11 11 0 2.737 1 5.241 2.655 7.167l15.512-15.512c-1.907-1.65-4.411-2.655-7.15-2.655-0.006 0-0.012 0-0.017 0h0.001z"></path>
</svg>
