<!-- Generated by IcoMoon.io -->
<svg version="1.1" xmlns="http://www.w3.org/2000/svg" width="32" height="32" viewBox="0 0 32 32">
<title>prohibited-multiple</title>
<path d="M2.667 14.333c0-6.443 5.223-11.667 11.667-11.667s11.667 5.223 11.667 11.667v0c0 6.443-5.223 11.667-11.667 11.667s-11.667-5.223-11.667-11.667v0zM14.333 4.667c-0 0-0.001 0-0.001 0-5.339 0-9.667 4.328-9.667 9.667 0 2.317 0.815 4.444 2.175 6.109l-0.014-0.017 13.6-13.599c-1.643-1.345-3.764-2.16-6.076-2.16-0.006 0-0.012 0-0.018 0h0.001zM14.333 24c0 0 0.001 0 0.001 0 5.339 0 9.667-4.328 9.667-9.667 0-2.317-0.815-4.444-2.175-6.109l0.014 0.017-13.6 13.599c1.643 1.345 3.764 2.16 6.076 2.16 0.006 0 0.012 0 0.018-0h-0.001zM17.667 29.333c-0.005 0-0.011 0-0.017 0-2.815 0-5.396-1.001-7.406-2.666l0.019 0.016c1.217 0.412 2.62 0.65 4.077 0.65 0.629 0 1.248-0.044 1.854-0.13l-0.070 0.008c0.464 0.079 0.999 0.124 1.544 0.124 5.339 0 9.667-4.328 9.667-9.667 0-0.545-0.045-1.080-0.132-1.601l0.008 0.056c0.078-0.536 0.122-1.155 0.122-1.784 0-1.458-0.238-2.86-0.677-4.17l0.027 0.093c1.65 1.997 2.65 4.584 2.65 7.404 0 6.443-5.223 11.667-11.666 11.667v0z"></path>
</svg>
