<!-- Generated by IcoMoon.io -->
<svg version="1.1" xmlns="http://www.w3.org/2000/svg" width="32" height="32" viewBox="0 0 32 32">
<title>protocol-handler</title>
<path d="M18.31 23.643l-1.367-1.367 1.414-1.414 1.367 1.367c0.521 0.521 1.365 0.521 1.886 0l5.286-5.286c0.521-0.521 0.521-1.365 0-1.886l-5.286-5.286c-0.521-0.521-1.365-0.521-1.886 0l-1.367 1.367-1.414-1.414 1.367-1.367c1.302-1.302 3.412-1.302 4.714 0l5.286 5.286c1.302 1.302 1.302 3.412 0 4.714l-5.286 5.286c-1.302 1.302-3.412 1.302-4.714 0z"></path>
<path d="M8.976 8.357l-5.286 5.286c-1.302 1.302-1.302 3.412 0 4.714l5.286 5.286c1.302 1.302 3.412 1.302 4.714 0l5.286-5.286c1.302-1.302 1.302-3.412 0-4.714l-5.286-5.286c-1.302-1.302-3.412-1.302-4.714 0zM5.105 15.057l5.286-5.286c0.521-0.521 1.365-0.521 1.886 0l5.286 5.286c0.521 0.521 0.521 1.365 0 1.886l-5.286 5.286c-0.521 0.521-1.365 0.521-1.886 0l-5.286-5.286c-0.521-0.521-0.521-1.365 0-1.886z"></path>
</svg>
