<!-- Generated by IcoMoon.io -->
<svg version="1.1" xmlns="http://www.w3.org/2000/svg" width="32" height="32" viewBox="0 0 32 32">
<title>pulse</title>
<path d="M11.52 5c0.45 0.009 0.826 0.314 0.942 0.728l0.002 0.007 4.578 16.646 3.5-11.668c0.127-0.416 0.508-0.713 0.958-0.713 0.413 0 0.768 0.251 0.921 0.609l0.002 0.007 2.244 5.385h3.333c0.552 0 1 0.448 1 1s-0.448 1-1 1v0h-4c-0 0-0 0-0 0-0.413 0-0.768-0.251-0.92-0.608l-0.002-0.007-1.424-3.417-3.695 12.32c-0.128 0.415-0.508 0.712-0.958 0.712-0.458 0-0.844-0.308-0.963-0.728l-0.002-0.007-4.606-16.747-2.477 7.785c-0.133 0.408-0.509 0.697-0.953 0.697 0 0 0 0 0 0h-4c-0.552 0-1-0.448-1-1s0.448-1 1-1v0h3.269l3.278-10.303c0.132-0.408 0.509-0.697 0.953-0.697 0.007 0 0.014 0 0.021 0l-0.001-0z"></path>
</svg>
