<!-- Generated by IcoMoon.io -->
<svg version="1.1" xmlns="http://www.w3.org/2000/svg" width="32" height="32" viewBox="0 0 32 32">
<title>pulse-square</title>
<path d="M24.999 4c1.657 0 3 1.343 3 3v0 18.003c0 1.657-1.343 3-3 3v0h-17.999c-1.657 0-3-1.343-3-3v-18.003c0-1.657 1.343-3 3-3v0h17.999zM24.999 6h-17.999c-0.552 0-1 0.448-1 1v0 18.003c0 0.553 0.448 1 1 1h17.999c0.552 0 1-0.448 1-1v0-18.003c0-0.552-0.448-1-1-1v0zM11.007 15.333l2.076-4.733c0.158-0.356 0.509-0.599 0.916-0.599 0.365 0 0.684 0.195 0.859 0.487l0.003 0.005 0.067 0.137 3.175 7.928 1.337-2.671c0.147-0.289 0.423-0.495 0.749-0.542l0.005-0.001 0.14-0.011h2.667c0.003-0 0.007-0 0.010-0 0.552 0 1 0.448 1 1 0 0.508-0.379 0.927-0.869 0.991l-0.005 0.001-0.136 0.008h-2.049l-2.056 4.108c-0.168 0.331-0.505 0.554-0.895 0.554-0.366 0-0.687-0.197-0.861-0.491l-0.003-0.005-0.064-0.133-3.116-7.78-1.38 3.149c-0.139 0.311-0.423 0.534-0.764 0.586l-0.006 0.001-0.147 0.011h-2.66c-0.552-0-1-0.448-1-1 0-0.504 0.373-0.921 0.858-0.99l0.005-0.001 0.136-0.009h2.007z"></path>
</svg>
