<!-- Generated by IcoMoon.io -->
<svg version="1.1" xmlns="http://www.w3.org/2000/svg" width="32" height="32" viewBox="0 0 32 32">
<title>pulse</title>
<path d="M11.283 9.079l4.378 18.156c0.237 0.982 1.615 1.033 1.924 0.072l4.342-13.496 0.782 2.794c0.121 0.432 0.514 0.731 0.963 0.731h4.658c0.552 0 1-0.448 1-1s-0.448-1-1-1h-3.899l-1.473-5.268c-0.267-0.955-1.611-0.981-1.915-0.037l-4.271 13.276-4.471-18.541c-0.243-1.009-1.673-1.025-1.939-0.021l-2.803 10.591h-3.892c-0.552 0-1 0.448-1 1s0.448 1 1 1h4.662c0.454 0 0.851-0.305 0.967-0.744l1.988-7.512z"></path>
</svg>
