<!-- Generated by IcoMoon.io -->
<svg version="1.1" xmlns="http://www.w3.org/2000/svg" width="32" height="32" viewBox="0 0 32 32">
<title>pulse-square</title>
<path d="M24.998 3.999c1.657 0 3 1.343 3 3v18.003c0 1.657-1.343 3-3 3h-17.998c-1.657 0-3-1.343-3-3v-18.003c0-1.657 1.343-3 3-3h17.998zM24.998 5.999h-17.998c-0.552 0-1 0.448-1 1v18.003c0 0.552 0.448 1 1 1h17.998c0.552 0 1-0.448 1-1v-18.003c0-0.552-0.448-1-1-1zM11.007 15.333l2.076-4.735c0.335-0.764 1.381-0.793 1.778-0.107l0.066 0.137 3.175 7.929 1.338-2.671c0.148-0.296 0.432-0.497 0.754-0.543l0.14-0.010h2.667c0.552 0 1 0.448 1 1 0 0.506-0.376 0.925-0.864 0.991l-0.136 0.009h-2.049l-2.057 4.108c-0.363 0.726-1.373 0.727-1.758 0.057l-0.065-0.133-3.115-7.779-1.38 3.149c-0.139 0.318-0.432 0.538-0.769 0.588l-0.147 0.011h-2.66c-0.552 0-1-0.448-1-1 0-0.506 0.376-0.925 0.864-0.991l0.136-0.009h2.007z"></path>
</svg>
