<!-- Generated by IcoMoon.io -->
<svg version="1.1" xmlns="http://www.w3.org/2000/svg" width="32" height="32" viewBox="0 0 32 32">
<title>puzzle-cube-piece-regular</title>
<path d="M27.533 2.064c-0.29-0.289-0.689-0.468-1.131-0.468s-0.842 0.179-1.131 0.468l-2.406 2.405c-0.289 0.29-0.468 0.689-0.468 1.131s0.179 0.842 0.468 1.131l2.405 2.405c0.29 0.289 0.689 0.468 1.131 0.468s0.842-0.179 1.131-0.468l2.405-2.405c0.289-0.29 0.468-0.689 0.468-1.131s-0.179-0.842-0.468-1.131l-2.403-2.405zM23.997 5.6l2.405-2.405 2.405 2.405-2.406 2.405-2.403-2.405zM20.797 4.8h-11.997c-2.209 0-4 1.791-4 4v0 14.4c0 2.209 1.791 4 4 4v0h14.4c2.209 0 4-1.791 4-4v0-12h-6.403v-6.4zM8.57 25.589c-1.223-0.121-2.17-1.145-2.17-2.389v0-2.4h4.8v4.8h-2.4l-0.23-0.011zM12.8 20.8h6.4v4.8h-6.4v-4.8zM25.589 23.432c-0.122 1.222-1.145 2.168-2.389 2.168 0 0-0 0-0 0h-2.4v-4.8h4.8v2.4l-0.011 0.232zM12.8 12.8h6.4v6.4h-6.4v-6.4zM20.8 19.2v-6.4h4.8v6.4h-4.8zM12.8 6.4h6.4v4.8h-6.4v-4.8zM8.8 6.4h2.4v4.8h-4.8v-2.4l0.011-0.23c0.121-1.223 1.144-2.17 2.389-2.17v0zM6.4 19.2v-6.4h4.8v6.4h-4.8z"></path>
</svg>
