<!-- Generated by IcoMoon.io -->
<svg version="1.1" xmlns="http://www.w3.org/2000/svg" width="32" height="32" viewBox="0 0 32 32">
<title>puzzle-piece</title>
<path d="M17.333 2.672c2.13 0 3.872 1.665 3.992 3.759l0.007 0.234 3.001 0.001c1.156 0 2.116 0.841 2.301 1.945l0.024 0.197 0.008 0.191-0.001 5.001-2.663 0c-0.991 0-1.822 0.724-1.973 1.652l-0.020 0.176-0.006 0.172c0 0.991 0.724 1.822 1.652 1.973l0.176 0.020 0.172 0.006 2.663-0 0.001 5.002c0 1.224-0.943 2.228-2.142 2.326l-0.191 0.008-3.001-0.001-0.005 0.23c-0.112 1.941-1.609 3.511-3.517 3.737l-0.241 0.021-0.235 0.007c-2.13 0-3.871-1.665-3.993-3.761l-0.007-0.235-3 0.001c-1.156 0-2.116-0.841-2.301-1.944l-0.024-0.197-0.008-0.191-0.001-3.002-0.217-0.006c-1.941-0.113-3.511-1.609-3.737-3.518l-0.021-0.241-0.007-0.235c0-2.13 1.665-3.872 3.765-3.993l0.217-0.007 0.001-3.001c0-1.156 0.841-2.116 1.944-2.301l0.197-0.024 0.191-0.008 2.999-0.001 0.008-0.228c0.113-1.941 1.609-3.511 3.518-3.737l0.241-0.021 0.235-0.007zM17.333 4.672c-1.040 0-1.894 0.793-1.991 1.808l-0.009 0.193-0.002 1.992-4.998 0.001c-0.158 0-0.29 0.11-0.325 0.257l-0.009 0.077-0.001 5.001-1.982 0c-1.105 0-2 0.895-2 2 0 1.040 0.793 1.894 1.807 1.991l0.193 0.009 1.983-0 0.001 5.002c0 0.158 0.11 0.29 0.257 0.325l0.076 0.009 4.998-0.001 0.002 1.995c0 1.105 0.895 2 2 2 1.040 0 1.894-0.793 1.991-1.807l0.009-0.192-0.002-1.996 5.002 0.001c0.158 0 0.29-0.11 0.325-0.257l0.009-0.076-0.001-3.004-0.697 0.001-0.239-0.009c-2.015-0.136-3.605-1.757-3.72-3.788l-0.007-0.236 0.009-0.239c0.136-2.015 1.757-3.605 3.758-3.72l0.233-0.007 0.663-0 0.001-3.001c0-0.126-0.070-0.236-0.174-0.293l-0.083-0.032-0.077-0.009-5.002-0.001 0.002-1.993c0-1.105-0.895-2-2-2z"></path>
</svg>
