<!-- Generated by IcoMoon.io -->
<svg version="1.1" xmlns="http://www.w3.org/2000/svg" width="32" height="32" viewBox="0 0 32 32">
<title>puzzle-piece-shield-regular</title>
<path d="M8 23.203v-2.859c0.283 0.118 0.573 0.23 0.87 0.333 0.237 0.083 0.483 0.123 0.73 0.123v2.403c0 0.442 0.358 0.8 0.8 0.8v0l4.797-0.003 0.005 1.198c0 0 0 0.001 0 0.002 0 1.105 0.895 2 2 2s1.999-0.895 2-1.998v-0l-0.005-1.202h5.605c0.442 0 0.8-0.358 0.8-0.8v0l-0.002-3.602-1.234 0.003-0.262-0.011c-1.858-0.16-3.306-1.708-3.306-3.594 0-0.009 0-0.019 0-0.028v0.001l0.011-0.262c0.157-1.857 1.703-3.305 3.587-3.306h0l1.203-0.003v-3.595c0-0 0-0 0-0 0-0.391-0.28-0.716-0.651-0.786l-0.005-0.001-0.144-0.013-4.8-0.003v-1.2c0-0 0-0.001 0-0.001 0-1.105-0.895-2-2-2-0.35 0-0.679 0.090-0.965 0.248l0.010-0.005c-0.392-0.457-0.962-0.751-1.601-0.773l-0.004-0c0.596-0.604 1.403-0.998 2.302-1.060l0.011-0.001 0.245-0.008c1.822 0 3.328 1.354 3.568 3.112l0.008 0.090h3.226c1.244 0 2.267 0.947 2.388 2.16l0.001 0.010 0.011 0.232v5.195l-2.802 0.002c-1.043 0-1.91 0.803-1.992 1.803l-0.006 0.197c0 1.043 0.802 1.909 1.803 1.992l0.195 0.008 2.802-0.002v5.202c0 1.325-1.075 2.4-2.4 2.4v0h-4.024l-0.008 0.086c-0.237 1.683-1.61 2.982-3.308 3.103l-0.012 0.001-0.248 0.010c-0 0-0.001 0-0.001 0-1.816 0-3.317-1.344-3.564-3.091l-0.002-0.019-0.010-0.088h-3.222c-0.001 0-0.001 0-0.002 0-1.244 0-2.267-0.946-2.388-2.158l-0.001-0.010-0.010-0.23zM12.8 5.355c0.746 0.324 1.614 0.512 2.527 0.512 0.012 0 0.023-0 0.035-0h-0.002c0.309 0 0.568 0.227 0.627 0.531l0.013 0.134v4.002c0 4.291-2.101 7.21-6.198 8.632-0.060 0.021-0.129 0.034-0.202 0.034s-0.142-0.012-0.206-0.035l0.004 0.001c-1.146-0.389-2.14-0.92-3.028-1.586l0.028 0.020c-0.605-0.462-1.126-0.989-1.567-1.579l-0.015-0.021c-1.002-1.36-1.542-3.045-1.61-5.040l-0.006-0.426v-4c0-0.368 0.288-0.667 0.64-0.667 1.957 0 3.717-0.816 5.309-2.472 0.114-0.12 0.275-0.195 0.453-0.195s0.339 0.075 0.453 0.195l0 0c0.864 0.901 1.776 1.552 2.746 1.96z"></path>
</svg>
