<!-- Generated by IcoMoon.io -->
<svg version="1.1" xmlns="http://www.w3.org/2000/svg" width="32" height="32" viewBox="0 0 32 32">
<title>qr-code</title>
<path d="M10.667 8h-2.667v2.667h2.667v-2.667z"></path>
<path d="M4 7c0-1.657 1.343-3 3-3h4.667c1.657 0 3 1.343 3 3v4.667c0 1.657-1.343 3-3 3h-4.667c-1.657 0-3-1.343-3-3v-4.667zM7 6c-0.552 0-1 0.448-1 1v4.667c0 0.552 0.448 1 1 1h4.667c0.552 0 1-0.448 1-1v-4.667c0-0.552-0.448-1-1-1h-4.667z"></path>
<path d="M8 21.333h2.667v2.667h-2.667v-2.667z"></path>
<path d="M4 20.333c0-1.657 1.343-3 3-3h4.667c1.657 0 3 1.343 3 3v4.667c0 1.657-1.343 3-3 3h-4.667c-1.657 0-3-1.343-3-3v-4.667zM7 19.333c-0.552 0-1 0.448-1 1v4.667c0 0.552 0.448 1 1 1h4.667c0.552 0 1-0.448 1-1v-4.667c0-0.552-0.448-1-1-1h-4.667z"></path>
<path d="M24 8h-2.667v2.667h2.667v-2.667z"></path>
<path d="M20.333 4c-1.657 0-3 1.343-3 3v4.667c0 1.657 1.343 3 3 3h4.667c1.657 0 3-1.343 3-3v-4.667c0-1.657-1.343-3-3-3h-4.667zM19.333 7c0-0.552 0.448-1 1-1h4.667c0.552 0 1 0.448 1 1v4.667c0 0.552-0.448 1-1 1h-4.667c-0.552 0-1-0.448-1-1v-4.667z"></path>
<path d="M17.333 17.333h3.667v3.667h-3.667v-3.667z"></path>
<path d="M24.333 21h-3.333v3.333h-3.667v3.667h3.667v-3.667h3.333v3.667h3.667v-3.667h-3.667v-3.333z"></path>
<path d="M24.333 21v-3.667h3.667v3.667h-3.667z"></path>
</svg>
