<!-- Generated by IcoMoon.io -->
<svg version="1.1" xmlns="http://www.w3.org/2000/svg" width="32" height="32" viewBox="0 0 32 32">
<title>question-circle</title>
<path d="M16 2.667c7.364 0 13.333 5.971 13.333 13.333s-5.969 13.333-13.333 13.333c-7.364 0-13.333-5.971-13.333-13.333s5.969-13.333 13.333-13.333zM16 4.889c-6.127 0-11.111 4.984-11.111 11.111s4.984 11.111 11.111 11.111c6.127 0 11.111-4.984 11.111-11.111s-4.984-11.111-11.111-11.111zM16 20.667c0.736 0 1.333 0.597 1.333 1.333s-0.597 1.333-1.333 1.333c-0.736 0-1.333-0.597-1.333-1.333s0.597-1.333 1.333-1.333zM16 9c2.025 0 3.667 1.642 3.667 3.667 0 1.348-0.397 2.099-1.401 3.145l-0.225 0.229c-0.829 0.829-1.040 1.181-1.040 1.96 0 0.552-0.448 1-1 1s-1-0.448-1-1c0-1.348 0.397-2.099 1.401-3.145l0.225-0.229c0.829-0.829 1.040-1.181 1.040-1.96 0-0.92-0.746-1.667-1.667-1.667-0.863 0-1.573 0.656-1.658 1.496l-0.009 0.17c0 0.552-0.448 1-1 1s-1-0.448-1-1c0-2.025 1.642-3.667 3.667-3.667z"></path>
</svg>
