<!-- Generated by IcoMoon.io -->
<svg version="1.1" xmlns="http://www.w3.org/2000/svg" width="32" height="32" viewBox="0 0 32 32">
<title>question</title>
<path d="M16 3.667c-3.68 0-6.667 2.987-6.667 6.667 0 0.46 0.373 0.833 0.833 0.833s0.833-0.373 0.833-0.833v0c0-2.76 2.24-5 5-5s5 2.24 5 5c0 1.25-0.313 1.96-0.734 2.497-0.34 0.433-0.737 0.756-1.232 1.157-0.203 0.165-0.421 0.343-0.66 0.547-0.78 0.669-1.605 1.511-2.22 2.86-0.611 1.336-0.987 3.108-0.987 5.606v0.167c0 0.46 0.373 0.833 0.833 0.833s0.833-0.373 0.833-0.833v0-0.167c0-2.335 0.353-3.855 0.836-4.915 0.479-1.047 1.111-1.705 1.789-2.286 0.155-0.133 0.324-0.27 0.5-0.412 0.545-0.442 1.154-0.936 1.619-1.529 0.673-0.86 1.089-1.941 1.089-3.525 0-3.68-2.987-6.667-6.667-6.667zM16 28c0.552 0 1-0.448 1-1s-0.448-1-1-1v0c-0.552 0-1 0.448-1 1s0.448 1 1 1v0z"></path>
</svg>
