<!-- Generated by IcoMoon.io -->
<svg version="1.1" xmlns="http://www.w3.org/2000/svg" width="32" height="32" viewBox="0 0 32 32">
<title>quiz-new-regular</title>
<path d="M7.5 4c-1.933 0-3.5 1.567-3.5 3.5v0 17c0 1.933 1.567 3.5 3.5 3.5h8.846c-0.333-0.52-0.612-1.079-0.829-1.667h-8.017c-1.013 0-1.833-0.821-1.833-1.833v0-17c0-1.013 0.821-1.833 1.833-1.833v0h17c1.013 0 1.833 0.821 1.833 1.833v0 7.59c0.585 0.191 1.143 0.441 1.667 0.746v-8.336c0-1.933-1.567-3.5-3.5-3.5h-17zM16.347 18.664c-0.333 0.52-0.612 1.078-0.829 1.667h-8.018c-0.46 0-0.833-0.373-0.833-0.833s0.373-0.833 0.833-0.833v0h8.847zM21.999 7.499c0-0.46-0.373-0.833-0.833-0.833s-0.833 0.373-0.833 0.833v0 1.835h-1.832c-0.46 0-0.833 0.373-0.833 0.833s0.373 0.833 0.833 0.833v0h1.832v1.832c0 0.46 0.373 0.833 0.833 0.833s0.833-0.373 0.833-0.833v0-1.832h1.835c0.46 0 0.833-0.373 0.833-0.833s-0.373-0.833-0.833-0.833v0h-1.835v-1.835zM13.769 7.181c-0.129-0.305-0.425-0.515-0.77-0.515s-0.642 0.21-0.768 0.509l-0.002 0.005-3.165 7.671c-0.046 0.1-0.073 0.217-0.073 0.341 0 0.46 0.373 0.833 0.833 0.833 0.354 0 0.657-0.221 0.778-0.533l0.002-0.006 0.471-1.142h3.85l0.472 1.143c0.125 0.312 0.425 0.528 0.775 0.528 0.46 0 0.833-0.373 0.833-0.833 0-0.12-0.025-0.234-0.071-0.337l0.002 0.005-3.168-7.671zM14.236 12.679h-2.473l1.236-2.996 1.237 2.996zM6.667 23.5c0-0.46 0.373-0.833 0.833-0.833h5.339c0.46 0 0.833 0.373 0.833 0.833s-0.373 0.833-0.833 0.833v0h-5.339c-0.46 0-0.833-0.373-0.833-0.833zM30.983 23.333c0 4.050-3.283 7.333-7.333 7.333s-7.333-3.283-7.333-7.333 3.283-7.333 7.333-7.333 7.333 3.283 7.333 7.333zM24.317 18.667c0-0.368-0.298-0.667-0.667-0.667s-0.667 0.298-0.667 0.667v0 4h-4c-0.368 0-0.667 0.298-0.667 0.667s0.298 0.667 0.667 0.667v0h4v4c0 0.368 0.298 0.667 0.667 0.667s0.667-0.298 0.667-0.667v0-4h4c0.368 0 0.667-0.298 0.667-0.667s-0.298-0.667-0.667-0.667v0h-4v-4z"></path>
</svg>
