<!-- Generated by IcoMoon.io -->
<svg version="1.1" xmlns="http://www.w3.org/2000/svg" width="32" height="32" viewBox="0 0 32 32">
<title>quiz-new</title>
<path d="M4 7.667c0-2.025 1.642-3.667 3.667-3.667h16.667c2.025 0 3.667 1.642 3.667 3.667v8.362c-0.618-0.395-1.289-0.715-2-0.944v-7.418c0-0.92-0.746-1.667-1.667-1.667h-16.667c-0.92 0-1.667 0.746-1.667 1.667v16.667c0 0.921 0.746 1.667 1.667 1.667h7.418c0.23 0.711 0.549 1.382 0.944 2h-8.362c-2.025 0-3.667-1.642-3.667-3.667v-16.667z"></path>
<path d="M9 18h7.501c-0.474 0.607-0.87 1.279-1.171 2h-6.331c-0.552 0-1-0.448-1-1s0.448-1 1-1z"></path>
<path d="M13.667 24.667h-4.667c-0.552 0-1-0.448-1-1s0.448-1 1-1h4.667c0.552 0 1 0.448 1 1s-0.448 1-1 1z"></path>
<path d="M13.334 6.663c0.406 0 0.772 0.246 0.925 0.622l2.997 7.337c0.209 0.511-0.036 1.095-0.548 1.304s-1.095-0.036-1.304-0.548l-0.564-1.381h-3.017l-0.565 1.381c-0.209 0.511-0.793 0.756-1.304 0.547s-0.756-0.793-0.547-1.304l3-7.337c0.154-0.376 0.52-0.622 0.926-0.622zM12.642 11.997h1.382l-0.691-1.691-0.691 1.691z"></path>
<path d="M21 6.663c0.552 0 1 0.448 1 1v1.667h1.667c0.552 0 1 0.448 1 1s-0.448 1-1 1h-1.667v1.667c0 0.552-0.448 1-1 1s-1-0.448-1-1v-1.667h-1.667c-0.552 0-1-0.448-1-1s0.448-1 1-1h1.667v-1.667c0-0.552 0.448-1 1-1z"></path>
<path d="M30.667 23.333c0-4.050-3.283-7.333-7.333-7.333s-7.333 3.283-7.333 7.333c0 4.050 3.283 7.333 7.333 7.333s7.333-3.283 7.333-7.333zM24.001 24l0.001 3.338c0 0.368-0.298 0.667-0.667 0.667s-0.667-0.298-0.667-0.667l-0.001-3.338h-3.339c-0.368 0-0.667-0.298-0.667-0.667s0.299-0.667 0.667-0.667h3.339l-0.001-3.334c0-0.368 0.299-0.667 0.667-0.667s0.667 0.298 0.667 0.667l0.001 3.334h3.337c0.368 0 0.667 0.299 0.667 0.667s-0.298 0.667-0.667 0.667h-3.337z"></path>
</svg>
