<!-- Generated by IcoMoon.io -->
<svg version="1.1" xmlns="http://www.w3.org/2000/svg" width="32" height="32" viewBox="0 0 32 32">
<title>radar-rectangle-multiple-regular</title>
<path d="M23.195 5.411l-1.155 1.155c-1.707-1.107-3.794-1.764-6.035-1.764-6.188 0-11.205 5.017-11.205 11.205 0 0.562 0.041 1.114 0.121 1.654l-0.007-0.061h-1.614c-0.063-0.479-0.1-1.032-0.1-1.594 0-7.072 5.733-12.805 12.805-12.805 2.684 0 5.176 0.826 7.234 2.238l-0.044-0.028zM15.728 28.797c0.176-0.499 0.272-1.037 0.272-1.597 0.005 0 0.010 0 0.015 0 3.088 0 5.883-1.254 7.904-3.28l0-0c0.144-0.139 0.34-0.225 0.556-0.225 0.442 0 0.8 0.358 0.8 0.8 0 0.216-0.086 0.412-0.225 0.556l0-0c-2.311 2.316-5.506 3.749-9.036 3.749-0.101 0-0.202-0.001-0.303-0.004l0.015 0zM16 23.2v0.8c2.048 0 4.096-0.781 5.658-2.342 0.145-0.145 0.235-0.345 0.235-0.566 0-0.442-0.359-0.801-0.801-0.801-0.221 0-0.421 0.090-0.566 0.235v0c-1.155 1.159-2.754 1.877-4.52 1.877-0.050 0-0.1-0.001-0.15-0.002l0.007 0c0.090 0.251 0.138 0.52 0.138 0.802zM8.16 17.6h1.642c-0.129-0.48-0.203-1.031-0.203-1.599 0-3.535 2.866-6.402 6.402-6.402 0.903 0 1.762 0.187 2.54 0.524l-0.041-0.016 1.202-1.202c-1.073-0.571-2.347-0.906-3.699-0.906-4.42 0-8.003 3.583-8.003 8.003 0 0.565 0.059 1.117 0.17 1.649l-0.009-0.052zM25.366 6.634c0.145 0.145 0.235 0.345 0.235 0.566s-0.090 0.422-0.235 0.566l-7.821 7.818c0.035 0.125 0.055 0.268 0.055 0.416 0 0.885-0.717 1.602-1.602 1.602s-1.602-0.717-1.602-1.602c0-0.885 0.717-1.602 1.602-1.602 0.148 0 0.291 0.020 0.427 0.057l-0.011-0.003 7.819-7.821c0.145-0.145 0.345-0.235 0.566-0.235s0.422 0.090 0.566 0.235l0 0zM27.2 21.6c0 0.442-0.358 0.8-0.8 0.8s-0.8-0.358-0.8-0.8v0c0-0.442 0.358-0.8 0.8-0.8s0.8 0.358 0.8 0.8v0zM26.4 11.2c0.442 0 0.8-0.358 0.8-0.8s-0.358-0.8-0.8-0.8v0c-0.442 0-0.8 0.358-0.8 0.8s0.358 0.8 0.8 0.8v0zM28.8 18c0 0.442-0.358 0.8-0.8 0.8s-0.8-0.358-0.8-0.8v0c0-0.442 0.358-0.8 0.8-0.8s0.8 0.358 0.8 0.8v0zM28 14.8c0.442 0 0.8-0.358 0.8-0.8s-0.358-0.8-0.8-0.8v0c-0.442 0-0.8 0.358-0.8 0.8s0.358 0.8 0.8 0.8v0zM24 18c0 0.442-0.358 0.8-0.8 0.8s-0.8-0.358-0.8-0.8v0c0-0.442 0.358-0.8 0.8-0.8s0.8 0.358 0.8 0.8v0zM23.2 14.8c0.442 0 0.8-0.358 0.8-0.8s-0.358-0.8-0.8-0.8v0c-0.442 0-0.8 0.358-0.8 0.8s0.358 0.8 0.8 0.8v0zM2.4 19.2c-0.442 0-0.8 0.358-0.8 0.8v0 6.4c0 0.442 0.358 0.8 0.8 0.8v0h8c0.442 0 0.8-0.358 0.8-0.8v0-6.4c0-0.442-0.358-0.8-0.8-0.8v0h-8zM13.6 22.4c0.442 0 0.8 0.358 0.8 0.8v0 4c0 1.767-1.433 3.2-3.2 3.2v0h-5.6c-0.442 0-0.8-0.358-0.8-0.8s0.358-0.8 0.8-0.8v0h5.6c0.884 0 1.6-0.716 1.6-1.6v0-4c0-0.442 0.358-0.8 0.8-0.8v0z"></path>
</svg>
