<!-- Generated by IcoMoon.io -->
<svg version="1.1" xmlns="http://www.w3.org/2000/svg" width="32" height="32" viewBox="0 0 32 32">
<title>radar-regular</title>
<path d="M23.195 5.411l-1.155 1.155c-1.708-1.108-3.796-1.767-6.038-1.767-6.186 0-11.2 5.014-11.2 11.2s5.014 11.2 11.2 11.2c3.092 0 5.892-1.253 7.918-3.279l-0 0c0.144-0.139 0.34-0.225 0.556-0.225 0.442 0 0.8 0.358 0.8 0.8 0 0.216-0.086 0.412-0.225 0.556l0-0c-2.316 2.315-5.516 3.747-9.049 3.747-7.069 0-12.8-5.731-12.8-12.8s5.731-12.8 12.8-12.8c2.686 0 5.178 0.827 7.237 2.241l-0.043-0.028zM18.499 10.107l1.202-1.202c-1.071-0.568-2.342-0.902-3.691-0.902-4.42 0-8.003 3.583-8.003 8.003 0 2.206 0.892 4.203 2.336 5.651l-0-0c1.448 1.448 3.448 2.344 5.658 2.344s4.21-0.896 5.658-2.344l0-0c0.145-0.145 0.235-0.345 0.235-0.566 0-0.442-0.359-0.801-0.801-0.801-0.221 0-0.421 0.090-0.566 0.235v0c-1.158 1.158-2.758 1.874-4.525 1.874-3.535 0-6.4-2.865-6.4-6.4s2.865-6.4 6.4-6.4c0.903 0 1.762 0.187 2.541 0.524l-0.041-0.016zM25.366 6.635c0.145 0.145 0.234 0.345 0.234 0.566s-0.090 0.421-0.234 0.566l-7.821 7.818c0.035 0.125 0.055 0.268 0.055 0.416 0 0.885-0.717 1.602-1.602 1.602s-1.602-0.717-1.602-1.602c0-0.885 0.717-1.602 1.602-1.602 0.148 0 0.291 0.020 0.427 0.057l-0.011-0.003 7.819-7.821c0.145-0.145 0.345-0.235 0.566-0.235s0.422 0.090 0.566 0.235l0 0zM27.2 21.6c0 0.442-0.358 0.8-0.8 0.8s-0.8-0.358-0.8-0.8v0c0-0.442 0.358-0.8 0.8-0.8s0.8 0.358 0.8 0.8v0zM26.4 11.2c0.442 0 0.8-0.358 0.8-0.8s-0.358-0.8-0.8-0.8v0c-0.442 0-0.8 0.358-0.8 0.8s0.358 0.8 0.8 0.8v0zM28.8 18c0 0.442-0.358 0.8-0.8 0.8s-0.8-0.358-0.8-0.8v0c0-0.442 0.358-0.8 0.8-0.8s0.8 0.358 0.8 0.8v0zM28 14.8c0.442 0 0.8-0.358 0.8-0.8s-0.358-0.8-0.8-0.8v0c-0.442 0-0.8 0.358-0.8 0.8s0.358 0.8 0.8 0.8v0zM24 18c0 0.442-0.358 0.8-0.8 0.8s-0.8-0.358-0.8-0.8v0c0-0.442 0.358-0.8 0.8-0.8s0.8 0.358 0.8 0.8v0zM23.2 14.8c0.442 0 0.8-0.358 0.8-0.8s-0.358-0.8-0.8-0.8v0c-0.442 0-0.8 0.358-0.8 0.8s0.358 0.8 0.8 0.8v0z"></path>
</svg>
