<!-- Generated by IcoMoon.io -->
<svg version="1.1" xmlns="http://www.w3.org/2000/svg" width="32" height="32" viewBox="0 0 32 32">
<title>ratio-one-to-one</title>
<path d="M11.333 11.667c0-0.369-0.203-0.708-0.528-0.882s-0.72-0.155-1.027 0.050l-2 1.333c-0.46 0.306-0.584 0.927-0.277 1.387s0.927 0.584 1.387 0.277l0.445-0.297v6.798c0 0.552 0.448 1 1 1s1-0.448 1-1v-8.667zM23.333 11.667c0-0.369-0.203-0.708-0.528-0.882s-0.72-0.155-1.027 0.050l-2 1.333c-0.46 0.306-0.584 0.927-0.277 1.387s0.927 0.584 1.387 0.277l0.445-0.297v6.798c0 0.552 0.448 1 1 1s1-0.448 1-1v-8.667zM17.333 18.667c0 0.736-0.597 1.333-1.333 1.333s-1.333-0.597-1.333-1.333c0-0.736 0.597-1.333 1.333-1.333s1.333 0.597 1.333 1.333zM16 14.667c0.736 0 1.333-0.597 1.333-1.333s-0.597-1.333-1.333-1.333c-0.736 0-1.333 0.597-1.333 1.333s0.597 1.333 1.333 1.333zM7 5.333c-2.393 0-4.333 1.94-4.333 4.333v12.667c0 2.393 1.94 4.333 4.333 4.333h18c2.393 0 4.333-1.94 4.333-4.333v-12.667c0-2.393-1.94-4.333-4.333-4.333h-18zM4.667 9.667c0-1.289 1.045-2.333 2.333-2.333h18c1.289 0 2.333 1.045 2.333 2.333v12.667c0 1.289-1.045 2.333-2.333 2.333h-18c-1.289 0-2.333-1.045-2.333-2.333v-12.667z"></path>
</svg>
