<!-- Generated by IcoMoon.io -->
<svg version="1.1" xmlns="http://www.w3.org/2000/svg" width="32" height="32" viewBox="0 0 32 32">
<title>rating-mature-regular</title>
<path d="M11.768 11.027c-0.185-0.22-0.46-0.36-0.768-0.36-0.552 0-1 0.447-1 1v8.667c0 0.552 0.448 1 1 1s1-0.448 1-1v0-5.904l3.232 3.877c0.185 0.22 0.46 0.36 0.768 0.36s0.583-0.139 0.767-0.358l0.001-0.002 3.232-3.877v5.904c0 0.552 0.448 1 1 1s1-0.448 1-1v0-8.667c-0-0.552-0.448-1-1-1-0.308 0-0.583 0.139-0.767 0.358l-0.001 0.002-4.232 5.079-4.232-5.080zM8.333 4c-2.393 0-4.333 1.94-4.333 4.333v0 15.333c0 2.393 1.94 4.333 4.333 4.333v0h15.333c2.393 0 4.333-1.94 4.333-4.333v0-15.333c0-2.393-1.94-4.333-4.333-4.333v0h-15.333zM6 8.333c0-1.288 1.045-2.333 2.333-2.333h15.333c1.288 0 2.333 1.045 2.333 2.333v15.333c0 1.289-1.045 2.333-2.333 2.333v0h-15.333c-1.289 0-2.333-1.045-2.333-2.333v0-15.333z"></path>
</svg>
