<!-- Generated by IcoMoon.io -->
<svg version="1.1" xmlns="http://www.w3.org/2000/svg" width="32" height="32" viewBox="0 0 32 32">
<title>reading-mode-mobile</title>
<path d="M23.667 2.668c0 0 0 0 0 0 1.585 0 2.882 1.229 2.992 2.785l0.001 0.010 0.007 0.204v20.664c0 0 0 0 0 0 0 1.585-1.229 2.882-2.785 2.992l-0.010 0.001-0.205 0.007h-15.333c-0 0-0 0-0 0-1.585 0-2.882-1.229-2.992-2.785l-0.001-0.010-0.007-0.203v-20.665c0-0 0-0 0-0 0-1.585 1.229-2.882 2.785-2.992l0.010-0.001 0.205-0.007h15.333zM23.667 4.668h-15.333c-0.504 0-0.921 0.373-0.99 0.859l-0.001 0.005-0.009 0.136v20.664c0 0.507 0.376 0.925 0.864 0.991l0.136 0.009h15.333c0.504-0 0.921-0.373 0.99-0.859l0.001-0.005 0.009-0.136v-20.664c-0-0.504-0.373-0.921-0.859-0.99l-0.005-0.001-0.136-0.011zM16.331 17.329c0.003-0 0.007-0 0.010-0 0.552 0 1 0.448 1 1 0 0.508-0.379 0.927-0.869 0.991l-0.005 0.001-0.136 0.008h-5.997c-0.552-0-1-0.448-1-1 0-0.504 0.373-0.921 0.858-0.99l0.005-0.001 0.136-0.009h5.997zM21.667 13.333c0.552 0 1 0.448 1 1 0 0.504-0.373 0.921-0.858 0.99l-0.005 0.001-0.136 0.009h-11.333c-0.003 0-0.007 0-0.010 0-0.552 0-1-0.448-1-1 0-0.508 0.379-0.927 0.869-0.992l0.005-0.001 0.136-0.008h11.333zM21.667 9.335c0.552 0 1 0.448 1 1 0 0.504-0.373 0.921-0.858 0.99l-0.005 0.001-0.136 0.009h-11.333c-0.552-0-1-0.448-1-1 0-0.504 0.373-0.921 0.858-0.99l0.005-0.001 0.136-0.011h11.333z"></path>
</svg>
