<!-- Generated by IcoMoon.io -->
<svg version="1.1" xmlns="http://www.w3.org/2000/svg" width="32" height="32" viewBox="0 0 32 32">
<title>read-aloud-regular</title>
<path d="M20.080 3.352c0.14-0.295 0.435-0.495 0.777-0.495 0.132 0 0.256 0.030 0.368 0.083l-0.005-0.002c2.957 1.377 8.265 5.737 7.923 13.955-0.020 0.458-0.396 0.822-0.857 0.822-0.474 0-0.858-0.384-0.858-0.858 0-0.012 0-0.025 0.001-0.037l-0 0.002c0.305-7.325-4.399-11.15-6.934-12.33-0.295-0.14-0.495-0.435-0.495-0.777 0-0.132 0.030-0.256 0.083-0.368l-0.002 0.005zM13.088 5.126c-0.126-0.327-0.437-0.554-0.802-0.554s-0.676 0.227-0.8 0.548l-0.002 0.006-8 21.143c-0.038 0.094-0.061 0.203-0.061 0.317 0 0.473 0.384 0.857 0.857 0.857 0.37 0 0.685-0.234 0.805-0.562l0.002-0.006 2.385-6.303h9.626l2.385 6.303c0.13 0.319 0.437 0.54 0.796 0.54 0.473 0 0.857-0.384 0.857-0.857 0-0.104-0.018-0.203-0.052-0.295l0.002 0.006-8-21.143zM16.45 18.857h-8.329l4.165-11.006 4.165 11.006zM20.784 7.589c-0.142-0.107-0.32-0.172-0.514-0.172-0.473 0-0.857 0.384-0.857 0.857 0 0.293 0.147 0.552 0.372 0.707l0.003 0.002c1.92 1.371 3.641 3.066 3.641 6.16 0 0.473 0.384 0.857 0.857 0.857s0.857-0.384 0.857-0.857v0c0-3.928-2.279-6.069-4.359-7.554z"></path>
</svg>
