<!-- Generated by IcoMoon.io -->
<svg version="1.1" xmlns="http://www.w3.org/2000/svg" width="32" height="32" viewBox="0 0 32 32">
<title>read-aloud</title>
<path d="M21.149 2.789c-0.485-0.265-1.092-0.087-1.357 0.398s-0.087 1.092 0.398 1.357c2.471 1.35 4.287 3.047 5.469 5.095s1.744 4.469 1.677 7.284c-0.013 0.552 0.424 1.010 0.976 1.023s1.010-0.424 1.023-0.976c0.075-3.168-0.571-5.952-1.945-8.331s-3.461-4.33-6.242-5.85zM20.832 7.59c-0.485-0.264-1.092-0.086-1.357 0.399s-0.086 1.092 0.399 1.357c0.962 0.525 1.729 1.284 2.314 2.297s0.859 2.057 0.832 3.152c-0.013 0.552 0.423 1.011 0.975 1.024s1.011-0.423 1.024-0.975c0.036-1.468-0.334-2.875-1.099-4.201s-1.799-2.35-3.088-3.053zM12 5.332c0.41 0 0.778 0.25 0.93 0.631l7.667 19.335c0.204 0.513-0.048 1.095-0.561 1.298s-1.095-0.048-1.298-0.561l-2.393-6.036h-8.688l-2.393 6.036c-0.204 0.513-0.785 0.765-1.298 0.561s-0.765-0.785-0.561-1.298l7.667-19.335c0.151-0.381 0.52-0.631 0.93-0.631zM12 9.045l-3.551 8.954h7.101l-3.551-8.954z"></path>
</svg>
