<!-- Generated by IcoMoon.io -->
<svg version="1.1" xmlns="http://www.w3.org/2000/svg" width="32" height="32" viewBox="0 0 32 32">
<title>reading-list</title>
<path d="M4.003 8.583c0.001-1.249 1.013-2.26 2.262-2.26 0.782 0 1.471 0.397 1.877 1l0.005 0.008c0.156 0.231 0.417 0.381 0.713 0.381 0.474 0 0.857-0.384 0.857-0.857 0-0.177-0.054-0.342-0.146-0.479l0.002 0.003c-0.723-1.075-1.935-1.772-3.309-1.772-2.196 0-3.976 1.78-3.976 3.976 0 2.181 1.757 3.952 3.932 3.976l0.002 0c0.046 0.009 0.099 0.014 0.153 0.014h17.911c0.473 0 0.857-0.384 0.857-0.857s-0.384-0.857-0.857-0.857v0h-17.87c-0.046-0.009-0.099-0.014-0.153-0.014v0c-1.248-0.001-2.26-1.012-2.261-2.261v-0zM13.426 6.857c-0.473 0-0.857 0.384-0.857 0.857s0.384 0.857 0.857 0.857v0h15.429c0.473 0 0.857-0.384 0.857-0.857s-0.384-0.857-0.857-0.857v0h-15.429zM7.712 15.143c-0.473 0-0.857 0.384-0.857 0.857s0.384 0.857 0.857 0.857v0h21.143c0.473 0 0.857-0.384 0.857-0.857s-0.384-0.857-0.857-0.857v0h-21.143zM2.281 20.286c0-0.473 0.384-0.857 0.857-0.857v0h21.143c0.473 0 0.857 0.384 0.857 0.857s-0.384 0.857-0.857 0.857v0h-21.143c-0.473 0-0.857-0.384-0.857-0.857v0zM7.707 23.429c-0.473 0-0.857 0.384-0.857 0.857s0.384 0.857 0.857 0.857v0h21.143c0.473 0 0.857-0.384 0.857-0.857s-0.384-0.857-0.857-0.857v0h-21.143z"></path>
</svg>
