<!-- Generated by IcoMoon.io -->
<svg version="1.1" xmlns="http://www.w3.org/2000/svg" width="32" height="32" viewBox="0 0 32 32">
<title>reading-list-add-regular</title>
<path d="M4.005 8.583c0.001-1.249 1.013-2.26 2.262-2.26 0.782 0 1.471 0.397 1.877 1l0.005 0.008c0.156 0.231 0.417 0.381 0.713 0.381 0.474 0 0.857-0.384 0.857-0.857 0-0.177-0.054-0.342-0.146-0.479l0.002 0.003c-0.723-1.075-1.935-1.772-3.309-1.772-2.196 0-3.976 1.78-3.976 3.976 0 2.181 1.757 3.952 3.932 3.976l0.002 0c0.046 0.009 0.099 0.014 0.153 0.014 0 0 0.001 0 0.001 0h17.91c0.473 0 0.857-0.384 0.857-0.857s-0.384-0.857-0.857-0.857v0h-17.87c-0.046-0.009-0.098-0.014-0.152-0.014h-0c-1.249 0-2.261-1.012-2.262-2.261v-0zM13.429 6.857c-0.473 0-0.857 0.384-0.857 0.857s0.384 0.857 0.857 0.857v0h15.429c0.473 0 0.857-0.384 0.857-0.857s-0.384-0.857-0.857-0.857v0h-15.429zM7.714 15.143c-0.473 0-0.857 0.384-0.857 0.857s0.384 0.857 0.857 0.857v0h10.21c0.922-0.778 2.028-1.37 3.242-1.7l0.060-0.014h-13.512zM3.141 19.429h12.705c-0.286 0.541-0.514 1.114-0.68 1.714h-12.025c-0.473 0-0.857-0.384-0.857-0.857s0.384-0.857 0.857-0.857v0zM7.709 23.429h7.149c0 0.587 0.059 1.161 0.171 1.714h-7.32c-0.473 0-0.857-0.384-0.857-0.857s0.384-0.857 0.857-0.857v0zM30.857 23.429c0 4.103-3.326 7.429-7.429 7.429s-7.429-3.326-7.429-7.429v0c0-4.103 3.326-7.429 7.429-7.429s7.429 3.326 7.429 7.429v0zM24 18.857c0-0.316-0.256-0.571-0.571-0.571s-0.571 0.256-0.571 0.571v0 4h-4c-0.316 0-0.571 0.256-0.571 0.571s0.256 0.571 0.571 0.571v0h4v4c0 0.316 0.256 0.571 0.571 0.571s0.571-0.256 0.571-0.571v0-4h4c0.316 0 0.571-0.256 0.571-0.571s-0.256-0.571-0.571-0.571v0h-4v-4z"></path>
</svg>
