<!-- Generated by IcoMoon.io -->
<svg version="1.1" xmlns="http://www.w3.org/2000/svg" width="32" height="32" viewBox="0 0 32 32">
<title>reading-list</title>
<path d="M9.333 24h17.333c0.552 0 1 0.448 1 1 0 0.506-0.376 0.925-0.864 0.991l-0.136 0.009h-17.333c-0.552 0-1-0.448-1-1 0-0.506 0.376-0.925 0.864-0.991l0.136-0.009zM22.667 20c0.552 0 1 0.448 1 1 0 0.506-0.376 0.925-0.864 0.991l-0.136 0.009h-17.333c-0.552 0-1-0.448-1-1 0-0.506 0.376-0.925 0.864-0.991l0.136-0.009h17.333zM26.667 16c0.552 0 1 0.448 1 1 0 0.506-0.376 0.925-0.864 0.991l-0.136 0.009h-17.333c-0.552 0-1-0.448-1-1 0-0.506 0.376-0.925 0.864-0.991l0.136-0.009h17.333zM8 6.667c1.506 0 2.842 0.917 3.399 2.289 0.208 0.512-0.039 1.095-0.551 1.303-0.469 0.19-0.998-0.001-1.243-0.428l-0.059-0.122c-0.253-0.624-0.861-1.041-1.545-1.041-0.92 0-1.667 0.746-1.667 1.667s0.746 1.667 1.667 1.667h15.333c0.552 0 1 0.448 1 1 0 0.506-0.376 0.925-0.864 0.991l-0.136 0.009h-15.333c-2.025 0-3.667-1.642-3.667-3.667s1.642-3.667 3.667-3.667zM26.667 8c0.552 0 1 0.448 1 1 0 0.506-0.376 0.925-0.864 0.991l-0.136 0.009h-12c-0.552 0-1-0.448-1-1 0-0.506 0.376-0.925 0.864-0.991l0.136-0.009h12z"></path>
</svg>
