<!-- Generated by IcoMoon.io -->
<svg version="1.1" xmlns="http://www.w3.org/2000/svg" width="32" height="32" viewBox="0 0 32 32">
<title>real-estate</title>
<path d="M13.333 16.613c0-0.389 0.17-0.759 0.466-1.012l3.767-3.229c0.25-0.214 0.618-0.214 0.868 0l3.767 3.229c0.295 0.253 0.466 0.623 0.466 1.012v4.053c0 0.368-0.299 0.667-0.667 0.667h-2.333c-0.184 0-0.333-0.149-0.333-0.333v-1.667c0-0.368-0.299-0.667-0.667-0.667h-1.333c-0.368 0-0.667 0.299-0.667 0.667v1.667c0 0.184-0.149 0.333-0.333 0.333h-2.333c-0.368 0-0.667-0.298-0.667-0.667v-4.053z"></path>
<path d="M9.333 28.045v-3.712c0.836 0.628 1.874 1 3 1h11.333c2.761 0 5-2.239 5-5v-10.569c0.415-0.47 0.667-1.088 0.667-1.764 0-1.473-1.194-2.667-2.667-2.667h-17.69c-0.461-0.797-1.322-1.333-2.31-1.333-1.473 0-2.667 1.194-2.667 2.667v21.379c0 0.711 0.577 1.288 1.288 1.288h2.757c0.711 0 1.288-0.577 1.288-1.288zM6.667 6c0.321 0 0.592 0.228 0.653 0.532l0.163 0.801h19.184c0.368 0 0.667 0.298 0.667 0.667s-0.299 0.667-0.667 0.667h-19.333v18.667h-1.333v-20.667c0-0.368 0.298-0.667 0.667-0.667zM12.333 23.333c-1.657 0-3-1.343-3-3v-9.667h17.333v9.667c0 1.657-1.343 3-3 3h-11.333z"></path>
</svg>
