<!-- Generated by IcoMoon.io -->
<svg version="1.1" xmlns="http://www.w3.org/2000/svg" width="32" height="32" viewBox="0 0 32 32">
<title>receipt-play</title>
<path d="M6.667 5.667c0-1.657 1.343-3 3-3v0h11.333c1.657 0 3 1.343 3 3v0 10.333h4.667v4.333c0 2.393-1.94 4.333-4.333 4.333v0h-7.101c0.065-0.4 0.102-0.86 0.102-1.33 0-0.236-0.009-0.47-0.028-0.701l0.002 0.031h4.692v-17c0-0.552-0.448-1-1-1v0h-11.333c-0.552 0-1 0.448-1 1v0 9c-0.002 0-0.003 0-0.005 0-0.708 0-1.396 0.085-2.054 0.244l0.059-0.012v-9.232zM24 22.667h0.333c1.289 0 2.333-1.045 2.333-2.333v0-2.333h-2.667v4.667zM19 19.333h-2.643c-0.404-0.765-0.882-1.422-1.44-2.003l0.003 0.003h4.080c0.552 0 1 0.448 1 1s-0.448 1-1 1v0zM10.667 9c0-0.552 0.448-1 1-1v0h7.333c0.552 0 1 0.448 1 1s-0.448 1-1 1v0h-7.333c-0.552 0-1-0.448-1-1v0zM10.667 13.667c0-0.552 0.448-1 1-1v0h7.333c0.552 0 1 0.448 1 1s-0.448 1-1 1v0h-7.333c-0.552 0-1-0.448-1-1v0zM8.667 16c4.050 0 7.333 3.283 7.333 7.333s-3.283 7.333-7.333 7.333v0c-4.050 0-7.333-3.283-7.333-7.333s3.283-7.333 7.333-7.333v0zM6.667 19.947v6.773c0 0 0 0 0 0.001 0 0.368 0.298 0.667 0.667 0.667 0.143 0 0.276-0.045 0.385-0.122l-0.002 0.001 4.837-3.387c0.173-0.122 0.285-0.321 0.285-0.547s-0.112-0.425-0.283-0.545l-0.002-0.001-4.837-3.387c-0.107-0.076-0.239-0.121-0.383-0.121-0.368 0-0.667 0.298-0.667 0.667 0 0 0 0.001 0 0.001v-0z"></path>
</svg>
