<!-- Generated by IcoMoon.io -->
<svg version="1.1" xmlns="http://www.w3.org/2000/svg" width="32" height="32" viewBox="0 0 32 32">
<title>receipt-cube</title>
<path d="M9.667 2.667c-1.657 0-3 1.343-3 3v9.514c0.634-0.277 1.333-0.347 2-0.211v-9.303c0-0.552 0.448-1 1-1h11.333c0.552 0 1 0.448 1 1v17h-6v2h8.333c2.393 0 4.333-1.94 4.333-4.333v-4.333h-4.667v-10.333c0-1.657-1.343-3-3-3h-11.333zM24.333 22.667h-0.333v-4.667h2.667v2.333c0 1.289-1.045 2.333-2.333 2.333zM14.157 17.588c0.229 0.114 0.441 0.253 0.633 0.412h4.21c0.552 0 1-0.448 1-1s-0.448-1-1-1h-7.333c-0.166 0-0.323 0.041-0.461 0.112l2.951 1.476zM11.667 6.667c-0.552 0-1 0.448-1 1s0.448 1 1 1h7.333c0.552 0 1-0.448 1-1s-0.448-1-1-1h-7.333zM11.667 11.333c-0.552 0-1 0.448-1 1s0.448 1 1 1h7.333c0.552 0 1-0.448 1-1s-0.448-1-1-1h-7.333zM1.333 26.097v-5.528c0-0.758 0.428-1.45 1.106-1.789l4.667-2.333c0.563-0.281 1.226-0.281 1.789 0l4.667 2.333c0.678 0.339 1.106 1.031 1.106 1.789v5.528c0 0.757-0.428 1.45-1.106 1.789l-4.667 2.333c-0.563 0.281-1.226 0.281-1.789 0l-4.667-2.333c-0.678-0.339-1.106-1.031-1.106-1.789zM3.404 20.702c-0.165 0.329-0.031 0.73 0.298 0.894l3.631 1.816v3.921c0 0.368 0.298 0.667 0.667 0.667s0.667-0.298 0.667-0.667v-3.921l3.631-1.816c0.329-0.165 0.463-0.565 0.298-0.894s-0.565-0.463-0.894-0.298l-3.702 1.851-3.702-1.851c-0.329-0.165-0.73-0.031-0.894 0.298z"></path>
</svg>
