<!-- Generated by IcoMoon.io -->
<svg version="1.1" xmlns="http://www.w3.org/2000/svg" width="32" height="32" viewBox="0 0 32 32">
<title>receipt-cube</title>
<path d="M9.667 2.667c-1.657 0-3 1.343-3 3v0 9.515c0.393-0.176 0.852-0.279 1.335-0.279 0.235 0 0.465 0.024 0.687 0.071l-0.022-0.004v-9.303c0-0.552 0.448-1 1-1v0h11.333c0.552 0 1 0.448 1 1v0 17h-6v2h8.333c2.393 0 4.333-1.94 4.333-4.333v0-4.333h-4.667v-10.333c0-1.657-1.343-3-3-3v0h-11.333zM24.333 22.667h-0.333v-4.667h2.667v2.333c0 1.289-1.045 2.333-2.333 2.333v0zM14.157 17.588c0.229 0.115 0.44 0.253 0.633 0.412h4.209c0.552 0 1-0.448 1-1s-0.448-1-1-1v0h-7.333c-0.001 0-0.002 0-0.002 0-0.168 0-0.326 0.041-0.464 0.115l0.005-0.003 2.952 1.476zM11.667 6.667c-0.552 0-1 0.448-1 1s0.448 1 1 1v0h7.333c0.552 0 1-0.448 1-1s-0.448-1-1-1v0h-7.333zM11.667 11.333c-0.552 0-1 0.448-1 1s0.448 1 1 1v0h7.333c0.552 0 1-0.448 1-1s-0.448-1-1-1v0h-7.333zM1.333 26.097v-5.528c0.001-0.778 0.446-1.453 1.095-1.783l0.011-0.005 4.667-2.333c0.26-0.133 0.568-0.211 0.893-0.211s0.633 0.078 0.905 0.216l-0.011-0.005 4.667 2.333c0.661 0.335 1.106 1.010 1.107 1.788v5.528c-0 0.779-0.445 1.454-1.095 1.784l-0.011 0.005-4.667 2.333c-0.26 0.133-0.568 0.211-0.893 0.211s-0.633-0.078-0.905-0.216l0.011 0.005-4.667-2.333c-0.661-0.335-1.107-1.010-1.107-1.789v0zM3.404 20.701c-0.045 0.087-0.071 0.19-0.071 0.299 0 0.259 0.148 0.484 0.364 0.594l0.004 0.002 3.632 1.817v3.92c0 0.368 0.298 0.667 0.667 0.667s0.667-0.298 0.667-0.667v0-3.92l3.632-1.817c0.217-0.113 0.363-0.336 0.363-0.594 0-0.368-0.298-0.667-0.667-0.667-0.107 0-0.208 0.025-0.298 0.070l0.004-0.002-3.701 1.849-3.701-1.851c-0.087-0.045-0.19-0.071-0.299-0.071-0.259 0-0.484 0.148-0.594 0.364l-0.002 0.004z"></path>
</svg>
