<!-- Generated by IcoMoon.io -->
<svg version="1.1" xmlns="http://www.w3.org/2000/svg" width="32" height="32" viewBox="0 0 32 32">
<title>receipt-sparkles-regular</title>
<path d="M21.139 8.195c0.404 0.406 0.717 0.903 0.905 1.459l0.008 0.027 0.597 1.836c0.101 0.286 0.369 0.487 0.684 0.487s0.583-0.201 0.682-0.482l0.002-0.005 0.597-1.836c0.386-1.134 1.263-2.010 2.371-2.387l0.027-0.008 1.837-0.597c0.283-0.103 0.482-0.37 0.482-0.683s-0.199-0.58-0.477-0.682l-0.005-0.002-0.037-0.009-1.837-0.597c-1.134-0.385-2.011-1.261-2.389-2.368l-0.008-0.027-0.596-1.836c-0.102-0.285-0.37-0.486-0.685-0.486s-0.583 0.201-0.683 0.481l-0.002 0.005-0.612 1.881c-0.386 1.106-1.241 1.961-2.319 2.341l-0.026 0.008-1.837 0.597c-0.023 0.008-0.041 0.015-0.058 0.023l0.005-0.002h-0.012c-0.115 0.057-0.211 0.138-0.282 0.238l-0.002 0.002c-0.084 0.112-0.135 0.253-0.135 0.406 0 0.016 0.001 0.032 0.002 0.048l-0-0.002c0.002 0.147 0.051 0.282 0.133 0.391l-0.001-0.002c0.085 0.12 0.204 0.213 0.342 0.264l0.005 0.002 1.84 0.6c0.251 0.082 0.465 0.178 0.668 0.291l-0.019-0.010 0.005 0.005c0.317 0.178 0.59 0.386 0.831 0.627l0 0zM30.689 13.287l1.021 0.331 0.020 0.005c0.158 0.057 0.27 0.206 0.27 0.381 0 0.087-0.028 0.168-0.074 0.234l0.001-0.001c-0.048 0.067-0.115 0.118-0.193 0.146l-0.003 0.001-1.020 0.331c-0.631 0.214-1.118 0.7-1.329 1.316l-0.004 0.015-0.331 1.020c-0.057 0.158-0.205 0.269-0.38 0.269s-0.323-0.111-0.379-0.267l-0.001-0.003-0.332-1.019c-0.213-0.632-0.7-1.122-1.317-1.332l-0.015-0.004-1.020-0.332c-0.158-0.057-0.27-0.206-0.27-0.381 0-0.087 0.028-0.168 0.074-0.234l-0.001 0.001c0.048-0.067 0.115-0.118 0.193-0.146l0.003-0.001 1.020-0.331c0.623-0.219 1.102-0.705 1.308-1.317l0.004-0.015 0.332-1.019c0.057-0.158 0.205-0.269 0.38-0.269s0.323 0.111 0.379 0.267l0.001 0.003 0.332 1.019c0.213 0.631 0.7 1.118 1.316 1.328l0.015 0.004zM22.667 18.667v-5.413c-0.219-0.069-0.409-0.164-0.58-0.284l0.007 0.004c-0.349-0.254-0.613-0.604-0.756-1.012l-0.005-0.015-0.587-1.84c-0.030-0.089-0.057-0.158-0.087-0.226l0.007 0.017v15.436h-11c-1.289 0-2.333-1.045-2.333-2.333v0-14.667c0-0.552 0.448-1 1-1v0h8.128c-0.302-0.36-0.485-0.829-0.485-1.34 0-0.236 0.039-0.463 0.111-0.674l-0.004 0.015h-7.749c-1.657 0-3 1.343-3 3v0 14.667c0 2.393 1.94 4.333 4.333 4.333v0h13.333c2.393 0 4.333-1.94 4.333-4.333v0-3.667c0-0.368-0.298-0.667-0.667-0.667v0h-4zM23 25.333h-0.333v-4.667h2.667v2.333c0 1.289-1.045 2.333-2.333 2.333v0zM10.333 10.667c-0.552 0-1 0.448-1 1s0.448 1 1 1v0h7.333c0.552 0 1-0.448 1-1s-0.448-1-1-1v0h-7.333zM10.333 15.333c-0.552 0-1 0.448-1 1s0.448 1 1 1v0h7.333c0.552 0 1-0.448 1-1s-0.448-1-1-1v0h-7.333zM10.333 20c-0.552 0-1 0.448-1 1s0.448 1 1 1v0h3.333c0.552 0 1-0.448 1-1s-0.448-1-1-1v0h-3.333z"></path>
</svg>
