<!-- Generated by IcoMoon.io -->
<svg version="1.1" xmlns="http://www.w3.org/2000/svg" width="32" height="32" viewBox="0 0 32 32">
<title>receipt</title>
<path d="M5.333 8.333c0-1.657 1.343-3 3-3h11.333c1.657 0 3 1.343 3 3v10.333h4.667v4.333c0 2.393-1.94 4.333-4.333 4.333h-13.333c-2.393 0-4.333-1.94-4.333-4.333v-14.667zM22.667 20.667v4.667h0.333c1.289 0 2.333-1.045 2.333-2.333v-2.333h-2.667zM20.667 25.333v-17c0-0.552-0.448-1-1-1h-11.333c-0.552 0-1 0.448-1 1v14.667c0 1.289 1.045 2.333 2.333 2.333h11zM9.333 11.667c0-0.552 0.448-1 1-1h7.333c0.552 0 1 0.448 1 1s-0.448 1-1 1h-7.333c-0.552 0-1-0.448-1-1zM9.333 16.333c0-0.552 0.448-1 1-1h7.333c0.552 0 1 0.448 1 1s-0.448 1-1 1h-7.333c-0.552 0-1-0.448-1-1zM9.333 21c0-0.552 0.448-1 1-1h3.333c0.552 0 1 0.448 1 1s-0.448 1-1 1h-3.333c-0.552 0-1-0.448-1-1z"></path>
</svg>
