<!-- Generated by IcoMoon.io -->
<svg version="1.1" xmlns="http://www.w3.org/2000/svg" width="32" height="32" viewBox="0 0 32 32">
<title>record-regular</title>
<path d="M16 24.667c4.787 0 8.667-3.88 8.667-8.667s-3.88-8.667-8.667-8.667-8.667 3.88-8.667 8.667 3.88 8.667 8.667 8.667zM16 2.667c-7.364 0-13.333 5.969-13.333 13.333s5.969 13.333 13.333 13.333 13.333-5.969 13.333-13.333-5.969-13.333-13.333-13.333zM4.333 16c0-6.443 5.223-11.667 11.667-11.667s11.667 5.223 11.667 11.667-5.223 11.667-11.667 11.667-11.667-5.223-11.667-11.667z"></path>
</svg>
