<!-- Generated by IcoMoon.io -->
<svg version="1.1" xmlns="http://www.w3.org/2000/svg" width="32" height="32" viewBox="0 0 32 32">
<title>record-stop</title>
<path d="M16 4.667c-6.259 0-11.333 5.074-11.333 11.333s5.074 11.333 11.333 11.333c6.259 0 11.333-5.074 11.333-11.333s-5.074-11.333-11.333-11.333zM2.667 16c0-7.364 5.97-13.333 13.333-13.333s13.333 5.97 13.333 13.333c0 7.364-5.97 13.333-13.333 13.333s-13.333-5.97-13.333-13.333zM10.667 12.667c0-1.105 0.895-2 2-2h6.667c1.105 0 2 0.895 2 2v6.667c0 1.105-0.895 2-2 2h-6.667c-1.105 0-2-0.895-2-2v-6.667z"></path>
</svg>
