<!-- Generated by IcoMoon.io -->
<svg version="1.1" xmlns="http://www.w3.org/2000/svg" width="32" height="32" viewBox="0 0 32 32">
<title>record-stop-regular</title>
<path d="M11.333 10c-0.736 0-1.333 0.597-1.333 1.333v0 9.333c0 0.736 0.597 1.333 1.333 1.333v0h9.333c0.736 0 1.333-0.597 1.333-1.333v0-9.333c0-0.736-0.597-1.333-1.333-1.333v0h-9.333zM29.333 16c0 7.364-5.969 13.333-13.333 13.333s-13.333-5.969-13.333-13.333 5.969-13.333 13.333-13.333 13.333 5.969 13.333 13.333zM27.667 16c0-6.443-5.223-11.667-11.667-11.667s-11.667 5.223-11.667 11.667 5.223 11.667 11.667 11.667 11.667-5.223 11.667-11.667z"></path>
</svg>
