<!-- Generated by IcoMoon.io -->
<svg version="1.1" xmlns="http://www.w3.org/2000/svg" width="32" height="32" viewBox="0 0 32 32">
<title>rectangle-landscape-regular</title>
<path d="M2.667 9.5c0-2.301 1.865-4.167 4.167-4.167v0h18.333c2.301 0 4.167 1.865 4.167 4.167v0 13c0 2.301-1.865 4.167-4.167 4.167v0h-18.333c-2.301 0-4.167-1.865-4.167-4.167v0-13zM6.833 7c-1.381 0-2.5 1.119-2.5 2.5v0 13c0 1.381 1.119 2.5 2.5 2.5v0h18.333c1.381 0 2.5-1.119 2.5-2.5v0-13c0-1.381-1.119-2.5-2.5-2.5v0h-18.333z"></path>
</svg>
