<!-- Generated by IcoMoon.io -->
<svg version="1.1" xmlns="http://www.w3.org/2000/svg" width="32" height="32" viewBox="0 0 32 32">
<title>rectangle-landscape</title>
<path d="M2.667 9.667c0-2.393 1.94-4.333 4.333-4.333h18c2.393 0 4.333 1.94 4.333 4.333v12.667c0 2.393-1.94 4.333-4.333 4.333h-18c-2.393 0-4.333-1.94-4.333-4.333v-12.667zM7 7.333c-1.289 0-2.333 1.045-2.333 2.333v12.667c0 1.289 1.045 2.333 2.333 2.333h18c1.289 0 2.333-1.045 2.333-2.333v-12.667c0-1.289-1.045-2.333-2.333-2.333h-18z"></path>
</svg>
