<!-- Generated by IcoMoon.io -->
<svg version="1.1" xmlns="http://www.w3.org/2000/svg" width="32" height="32" viewBox="0 0 32 32">
<title>recycle-regular</title>
<path d="M18.183 5.277c-0.954-1.708-3.411-1.708-4.365 0l-2.896 5.184-1.791-0.895 2.94-5.264c1.718-3.075 6.141-3.074 7.858 0l2.739 4.904 0.362-1.448c0.12-0.427 0.506-0.736 0.964-0.736 0.552 0 1 0.448 1 1 0 0.078-0.009 0.154-0.026 0.226l0.001-0.007-1 4.001c-0.112 0.439-0.504 0.758-0.97 0.758-0.086 0-0.17-0.011-0.25-0.031l0.007 0.002-4-1c-0.439-0.113-0.757-0.504-0.757-0.97 0-0.553 0.448-1 1-1 0.086 0 0.17 0.011 0.25 0.031l-0.007-0.002 1.853 0.464-2.913-5.217zM23.588 14.956l1.79-0.896 4.047 7.245c1.675 3-0.493 6.694-3.929 6.694h-7.083l1.294 1.294c0.188 0.182 0.305 0.437 0.305 0.719 0 0.552-0.448 1-1 1-0.282 0-0.537-0.117-0.719-0.305l-3-2.999c-0.181-0.181-0.293-0.431-0.293-0.707s0.112-0.526 0.293-0.707l3-3.001c0.182-0.188 0.437-0.305 0.719-0.305 0.552 0 1 0.448 1 1 0 0.282-0.117 0.537-0.305 0.719l-1.292 1.292h7.081c1.909 0 3.113-2.052 2.183-3.719l-4.090-7.324zM13 25.999h-6.497c-1.91 0-3.114-2.053-2.183-3.719l3.869-6.926 0.895 2.047c0.161 0.35 0.508 0.588 0.911 0.588 0.552 0 1-0.448 1-1 0-0.141-0.029-0.275-0.082-0.397l0.002 0.006-1.75-4c-0.159-0.355-0.509-0.599-0.916-0.599-0.081 0-0.16 0.010-0.236 0.028l0.007-0.001-4.25 1c-0.459 0.097-0.799 0.498-0.799 0.98 0 0.552 0.448 1 1 1 0.091 0 0.18-0.012 0.264-0.035l-0.007 0.002 2.166-0.51-3.821 6.842c-1.676 3 0.493 6.694 3.929 6.694h6.497v-2z"></path>
</svg>
