<!-- Generated by IcoMoon.io -->
<svg version="1.1" xmlns="http://www.w3.org/2000/svg" width="32" height="32" viewBox="0 0 32 32">
<title>regular</title>
<path d="M16.909 3.333h-0.144l-0.084 0.011-0.14 0.038-8.124 4.059-0.117 0.082-0.105 0.105-0.005 0.006c-0.037 0.045-0.071 0.095-0.099 0.149l-0.002 0.005-0.021 0.045-0.036 0.098-0.030 0.158-0.003 15.408c0 0.297 0.157 0.571 0.413 0.72l8 4.667c0.12 0.071 0.265 0.114 0.42 0.114 0.46 0 0.833-0.373 0.833-0.833 0-0.002 0-0.003-0-0.005v0l-0.047-7.511 7.582-3.737c0.618-0.305 0.62-1.185 0.004-1.493l-6.509-3.255 6.509-3.255c0.614-0.307 0.614-1.183 0-1.491l-8.006-4.003-0.119-0.048-0.172-0.035zM9.667 17.516l6.286 3.169 0.038 6.023-6.324-3.689v-5.503zM15.998 18.84l-5.303-2.671 5.296-2.631 0.007 5.302zM22.959 16.159l-5.295 2.609-0.008-5.26 5.303 2.651zM9.667 14.819v-5.301l5.293 2.672-5.293 2.628zM15.991 10.841l-5.3-2.673 5.307-2.653-0.007 5.327zM17.657 10.82l0.008-5.309 5.305 2.653-5.313 2.655z"></path>
</svg>
