<!-- Generated by IcoMoon.io -->
<svg version="1.1" xmlns="http://www.w3.org/2000/svg" width="32" height="32" viewBox="0 0 32 32">
<title>remote-regular</title>
<path d="M27.434 23.766c0.145 0.145 0.345 0.235 0.566 0.235 0.442 0 0.801-0.359 0.801-0.801 0-0.221-0.090-0.421-0.235-0.566l-9.035-9.034 9.035-9.034c0.145-0.145 0.235-0.345 0.235-0.566 0-0.442-0.359-0.801-0.801-0.801-0.221 0-0.421 0.090-0.566 0.235l-9.6 9.6c-0.145 0.145-0.235 0.345-0.235 0.566s0.090 0.422 0.235 0.566l9.6 9.6zM4.566 8.234c-0.145-0.145-0.345-0.235-0.566-0.235-0.442 0-0.801 0.359-0.801 0.801 0 0.221 0.090 0.421 0.235 0.566v0l9.035 9.034-9.035 9.034c-0.145 0.145-0.235 0.345-0.235 0.566 0 0.442 0.359 0.801 0.801 0.801 0.221 0 0.421-0.090 0.566-0.235l9.6-9.6c0.145-0.145 0.235-0.345 0.235-0.566s-0.090-0.422-0.235-0.566l-9.6-9.6z"></path>
</svg>
