<!-- Generated by IcoMoon.io -->
<svg version="1.1" xmlns="http://www.w3.org/2000/svg" width="32" height="32" viewBox="0 0 32 32">
<title>rename</title>
<path d="M13 2.667h5.331c0.552 0 1 0.448 1 1 0 0.506-0.376 0.925-0.864 0.991l-0.136 0.009h-1.665v22.667h1.66c0.506 0 0.925 0.376 0.991 0.864l0.009 0.136c0 0.506-0.376 0.925-0.864 0.991l-0.136 0.009h-5.327c-0.552 0-1-0.448-1-1 0-0.506 0.376-0.925 0.864-0.991l0.136-0.009h1.667v-22.667h-1.667c-0.506 0-0.925-0.376-0.991-0.864l-0.009-0.136c0-0.506 0.376-0.925 0.864-0.991l0.136-0.009zM24.328 6.663c2.393 0.002 4.332 1.94 4.335 4.332l0.004 10.007c0.002 2.31-1.805 4.2-4.085 4.328l-0.249 0.006-6.326-0.001v-2h6.404c1.253-0.041 2.256-1.070 2.255-2.332l-0.004-10.007c-0.001-1.288-1.046-2.333-2.335-2.334h-6.32v-2h6.32zM13.333 6.663v2h-6.333c-1.289 0-2.333 1.045-2.333 2.333v10.006c0 1.289 1.045 2.333 2.333 2.333h6.327v2h-6.327c-2.393 0-4.333-1.94-4.333-4.333v-10.006c0-2.393 1.94-4.333 4.333-4.333h6.333z"></path>
</svg>
