<!-- Generated by IcoMoon.io -->
<svg version="1.1" xmlns="http://www.w3.org/2000/svg" width="32" height="32" viewBox="0 0 32 32">
<title>rename-regular</title>
<path d="M13.429 2.286c-0.473 0-0.857 0.384-0.857 0.857s0.384 0.857 0.857 0.857v0h1.714v24h-1.714c-0.473 0-0.857 0.384-0.857 0.857s0.384 0.857 0.857 0.857v0h5.143c0.473 0 0.857-0.384 0.857-0.857s-0.384-0.857-0.857-0.857v0h-1.714v-24h1.714c0.473 0 0.857-0.384 0.857-0.857s-0.384-0.857-0.857-0.857v0h-5.143zM7.143 6.88h6.857v1.714h-6.857c-1.105 0-2 0.895-2 2v0 10.857c0 1.104 0.896 2 2 2h6.857v1.714h-6.857c-2.051 0-3.714-1.663-3.714-3.714v0-10.857c0-2.051 1.663-3.714 3.714-3.714v0zM24.857 23.451h-6.857v1.714h6.857c2.051 0 3.714-1.663 3.714-3.714v0-10.857c0-2.051-1.663-3.714-3.714-3.714v0h-6.857v1.714h6.857c1.104 0 2 0.895 2 2v10.857c0 1.105-0.895 2-2 2v0z"></path>
</svg>
