<!-- Generated by IcoMoon.io -->
<svg version="1.1" xmlns="http://www.w3.org/2000/svg" width="32" height="32" viewBox="0 0 32 32">
<title>replay-regular</title>
<path d="M4.8 10.4v-4.8c0-0.442 0.358-0.8 0.8-0.8s0.8 0.358 0.8 0.8v0 1.931c2.15-2.433 5.19-4.036 8.607-4.293l0.043-0.003c0.289-0.023 0.626-0.037 0.966-0.037 1.095 0 2.158 0.138 3.172 0.398l-0.088-0.019c5.616 1.438 9.701 6.453 9.701 12.423 0 4.938-2.795 9.223-6.889 11.359l-0.071 0.034c-1.462 0.767-3.179 1.264-4.998 1.379l-0.037 0.002c-0.248 0.017-0.537 0.027-0.829 0.027-2.782 0-5.355-0.893-7.449-2.408l0.037 0.026c-2.806-2.014-4.746-5.083-5.24-8.614l-0.008-0.067c-0.076-0.527-0.12-1.135-0.12-1.753 0-0.286 0.009-0.57 0.028-0.851l-0.002 0.038c0.028-0.419 0.375-0.749 0.798-0.749 0.442 0 0.8 0.358 0.8 0.8 0 0.018-0.001 0.036-0.002 0.054l0-0.002c-0.012 0.197-0.019 0.426-0.019 0.658 0 0.024 0 0.048 0 0.072l-0-0.004c0 4.96 3.224 9.168 7.693 10.64 1.044 0.355 2.247 0.561 3.498 0.561 0.539 0 1.069-0.038 1.587-0.112l-0.060 0.007c1.388-0.193 2.643-0.612 3.78-1.223l-0.060 0.029c3.568-1.922 5.952-5.631 5.952-9.897 0-6.188-5.017-11.205-11.205-11.205-0.288 0-0.574 0.011-0.857 0.032l0.038-0.002c-1.128 0.088-2.174 0.327-3.155 0.698l0.078-0.026c-2.181 0.83-3.981 2.249-5.258 4.062l-0.024 0.036h2.792c0.442 0 0.8 0.358 0.8 0.8s-0.358 0.8-0.8 0.8v0h-4c-0.441-0.002-0.798-0.359-0.8-0.8v-0zM12 12.747c0-1.488 1.568-2.456 2.899-1.787l6.464 3.253c1.467 0.739 1.467 2.835 0 3.574l-6.464 3.251c-0.262 0.135-0.571 0.214-0.899 0.214-1.104 0-1.999-0.894-2-1.997v-6.507zM14.179 12.39c-0.052-0.027-0.114-0.042-0.179-0.042-0.221 0-0.4 0.179-0.4 0.399v6.506c0 0.221 0.179 0.399 0.4 0.399 0.065 0 0.127-0.016 0.181-0.043l-0.002 0.001 6.464-3.253c0.131-0.067 0.219-0.202 0.219-0.357s-0.088-0.289-0.217-0.356l-0.002-0.001-6.464-3.253z"></path>
</svg>
