<!-- Generated by IcoMoon.io -->
<svg version="1.1" xmlns="http://www.w3.org/2000/svg" width="32" height="32" viewBox="0 0 32 32">
<title>resize-small-regular</title>
<path d="M8.333 6c-1.289 0-2.333 1.045-2.333 2.333v0 2c0 0.552-0.448 1-1 1s-1-0.448-1-1v0-2c0-2.393 1.94-4.333 4.333-4.333v0h2c0.552 0 1 0.448 1 1s-0.448 1-1 1v0h-2zM10.6 13.667c0-1.657 1.343-3 3-3v0h4.667c1.657 0 3 1.343 3 3v0 4.667c0 1.657-1.343 3-3 3v0h-4.667c-1.657 0-3-1.343-3-3v0-4.667zM13.6 12.667c-0.552 0-1 0.448-1 1v0 4.667c0 0.552 0.448 1 1 1h4.667c0.552 0 1-0.448 1-1v0-4.667c0-0.552-0.448-1-1-1v0h-4.667zM23.667 6c1.288 0 2.333 1.045 2.333 2.333v2c0 0.552 0.448 1 1 1s1-0.448 1-1v0-2c0-2.393-1.94-4.333-4.333-4.333v0h-2c-0.552 0-1 0.448-1 1s0.448 1 1 1v0h2zM23.667 26c1.289 0 2.333-1.045 2.333-2.333v0-2c0-0.552 0.448-1 1-1s1 0.448 1 1v0 2c0 2.393-1.94 4.333-4.333 4.333v0h-2c-0.552 0-1-0.448-1-1s0.448-1 1-1v0h2zM8.333 26c-1.289 0-2.333-1.045-2.333-2.333v0-2c0-0.552-0.448-1-1-1s-1 0.448-1 1v0 2c0 2.393 1.94 4.333 4.333 4.333v0h2c0.552 0 1-0.448 1-1s-0.448-1-1-1v0h-2z"></path>
</svg>
