<!-- Generated by IcoMoon.io -->
<svg version="1.1" xmlns="http://www.w3.org/2000/svg" width="32" height="32" viewBox="0 0 32 32">
<title>resize-image-regular</title>
<path d="M14.667 3.667c0-0.552-0.448-1-1-1v0h-6.667c-2.393 0-4.333 1.94-4.333 4.333v0 6.667c0 0.552 0.448 1 1 1s1-0.448 1-1v0-6.667c0-1.288 1.045-2.333 2.333-2.333h6.667c0.552 0 1-0.448 1-1v0zM18.333 2.667c-0.552 0-1 0.448-1 1s0.448 1 1 1v0h6.667c1.288 0 2.333 1.045 2.333 2.333v6.667c0 0.552 0.448 1 1 1s1-0.448 1-1v0-6.667c0-2.393-1.94-4.333-4.333-4.333v0h-6.667zM18.333 29.333c-0.552 0-1-0.448-1-1s0.448-1 1-1v0h6.667c1.289 0 2.333-1.045 2.333-2.333v0-6.667c0-0.552 0.448-1 1-1s1 0.448 1 1v0 6.667c0 2.393-1.94 4.333-4.333 4.333v0h-6.667zM5.333 16c-2.209 0-4 1.791-4 4v0 6.667c0 0.741 0.201 1.436 0.553 2.032l4.66-4.659c0.543-0.543 1.293-0.879 2.121-0.879s1.578 0.336 2.121 0.879l4.659 4.659c0.352-0.596 0.553-1.291 0.553-2.032v-6.667c0-2.209-1.791-4-4-4v0h-6.668zM5.333 30.667c-0.002 0-0.005 0-0.008 0-0.747 0-1.445-0.206-2.043-0.563l0.018 0.010 4.659-4.66c0.181-0.181 0.431-0.292 0.707-0.292s0.526 0.112 0.707 0.292v0l4.659 4.659c-0.58 0.349-1.279 0.555-2.027 0.555-0.002 0-0.003 0-0.005 0h-6.666zM12 21.333c-0.736 0-1.333-0.597-1.333-1.333s0.597-1.333 1.333-1.333v0c0.736 0 1.333 0.597 1.333 1.333s-0.597 1.333-1.333 1.333v0z"></path>
</svg>
