<!-- Generated by IcoMoon.io -->
<svg version="1.1" xmlns="http://www.w3.org/2000/svg" width="32" height="32" viewBox="0 0 32 32">
<title>resize-video</title>
<path d="M28.333 17.333c0.504 0 0.921 0.373 0.99 0.859l0.001 0.005 0.009 0.136v6.667c0 0 0 0 0 0 0 2.307-1.803 4.193-4.076 4.326l-0.012 0.001-0.245 0.007h-6.224c0.715-0.513 1.297-1.2 1.687-1.999l4.537-0.001c1.221-0 2.224-0.939 2.325-2.134l0.001-0.009 0.008-0.191v-6.667c0-0.552 0.448-1 1-1v0zM15.667 12c2.393 0 4.333 1.94 4.333 4.333v0 8.667c0 2.393-1.94 4.333-4.333 4.333v0h-8.667c-2.393 0-4.333-1.94-4.333-4.333v0-8.667c0-2.393 1.94-4.333 4.333-4.333v0h8.667zM15.667 14h-8.667c-1.289 0-2.333 1.045-2.333 2.333v0 8.667c0 1.288 1.044 2.333 2.333 2.333h8.667c1.289 0 2.333-1.045 2.333-2.333v0-8.667c0-1.289-1.045-2.333-2.333-2.333v0zM8.080 17.471c0.115-0.209 0.334-0.348 0.586-0.348 0.075 0 0.147 0.012 0.214 0.035l-0.005-0.001 0.109 0.048 5.275 2.877c0.209 0.115 0.348 0.334 0.348 0.585 0 0.209-0.096 0.395-0.246 0.518l-0.001 0.001-0.1 0.067-5.275 2.877c-0.092 0.051-0.202 0.081-0.319 0.081-0.326 0-0.598-0.234-0.655-0.544l-0.001-0.004-0.009-0.119v-5.753c0-0 0-0.001 0-0.001 0-0.117 0.030-0.227 0.083-0.323l-0.002 0.003zM25 2.667c0 0 0 0 0 0 2.307 0 4.193 1.803 4.326 4.076l0.001 0.012 0.007 0.245v6.667c-0 0.552-0.448 1-1 1-0.504 0-0.921-0.373-0.99-0.858l-0.001-0.005-0.009-0.136v-6.667c-0-1.221-0.939-2.224-2.134-2.325l-0.009-0.001-0.191-0.008h-6.667c-0.552-0-1-0.448-1-1 0-0.504 0.373-0.921 0.858-0.99l0.005-0.001 0.136-0.009h6.667zM13.667 2.667c0.552 0 1 0.448 1 1 0 0.504-0.373 0.921-0.858 0.99l-0.005 0.001-0.136 0.009h-6.667c-1.221 0-2.223 0.938-2.325 2.133l-0.001 0.009-0.008 0.192v4.536c-0.8 0.389-1.487 0.973-2 1.688v-6.224c0-0 0-0 0-0 0-2.306 1.802-4.192 4.075-4.326l0.012-0.001 0.247-0.007h6.667z"></path>
</svg>
