<!-- Generated by IcoMoon.io -->
<svg version="1.1" xmlns="http://www.w3.org/2000/svg" width="32" height="32" viewBox="0 0 32 32">
<title>resize-table</title>
<path d="M7 2.667h6.667c0.552 0 1 0.448 1 1s-0.448 1-1 1h-6.667c-1.289 0-2.333 1.045-2.333 2.333v4.168c-0.776 0.351-1.458 0.871-2 1.514v-5.682c0-2.393 1.94-4.333 4.333-4.333z"></path>
<path d="M20.832 27.333c-0.351 0.775-0.871 1.458-1.514 2h5.682c2.393 0 4.333-1.94 4.333-4.333v-6.667c0-0.552-0.448-1-1-1s-1 0.448-1 1v6.667c0 1.289-1.045 2.333-2.333 2.333h-4.168z"></path>
<path d="M28.333 14.667c0.552 0 1-0.448 1-1v-6.667c0-2.393-1.94-4.333-4.333-4.333h-6.667c-0.552 0-1 0.448-1 1s0.448 1 1 1h6.667c1.289 0 2.333 1.045 2.333 2.333v6.667c0 0.552 0.448 1 1 1z"></path>
<path d="M7 12c-2.393 0-4.333 1.94-4.333 4.333v8.667c0 2.393 1.94 4.333 4.333 4.333h8.667c2.393 0 4.333-1.94 4.333-4.333v-8.667c0-2.393-1.94-4.333-4.333-4.333h-8.667zM4.667 16.333c0-1.289 1.045-2.333 2.333-2.333h1v3.333h-3.333v-1zM8 19.333v3.333h-3.333v-3.333h3.333zM10 22.667v-3.333h2.667v3.333h-2.667zM14.667 22.667v-3.333h3.333v3.333h-3.333zM10 24.667h2.667v2.667h-2.667v-2.667zM14.667 24.667h3.333v0.333c0 1.289-1.045 2.333-2.333 2.333h-1v-2.667zM14.667 14h1c1.289 0 2.333 1.045 2.333 2.333v1h-3.333v-3.333zM12.667 17.333h-2.667v-3.333h2.667v3.333zM8 24.667v2.667h-1c-1.289 0-2.333-1.045-2.333-2.333v-0.333h3.333z"></path>
</svg>
