<!-- Generated by IcoMoon.io -->
<svg version="1.1" xmlns="http://www.w3.org/2000/svg" width="32" height="32" viewBox="0 0 32 32">
<title>resize-table-regular</title>
<path d="M7 2.667h6.667c0.552 0 1 0.448 1 1s-0.448 1-1 1v0h-6.667c-1.289 0-2.333 1.045-2.333 2.333v0 4.168c-0.793 0.364-1.46 0.875-1.993 1.504l-0.007 0.008v-5.68c0-2.393 1.94-4.333 4.333-4.333v0zM20.832 27.333c-0.364 0.793-0.875 1.46-1.504 1.993l-0.008 0.007h5.681c2.393-0.001 4.332-1.941 4.332-4.333v0-6.667c0-0.552-0.448-1-1-1s-1 0.448-1 1v0 6.667c0 1.289-1.045 2.333-2.333 2.333v0h-4.168zM28.333 14.667c0.552 0 1-0.448 1-1v0-6.667c0-2.393-1.94-4.333-4.333-4.333v0h-6.667c-0.552 0-1 0.448-1 1s0.448 1 1 1v0h6.667c1.288 0 2.333 1.045 2.333 2.333v6.667c0 0.552 0.448 1 1 1zM7 12c-2.393 0-4.333 1.94-4.333 4.333v0 8.667c0 2.393 1.94 4.333 4.333 4.333v0h8.667c2.393 0 4.333-1.94 4.333-4.333v0-8.667c0-2.393-1.94-4.333-4.333-4.333v0h-8.667zM4.667 16.333c0-1.288 1.045-2.333 2.333-2.333h1v3.333h-3.333v-1zM8 19.333v3.333h-3.333v-3.333h3.333zM10 22.667v-3.333h2.667v3.333h-2.667zM14.667 22.667v-3.333h3.333v3.333h-3.333zM10 24.667h2.667v2.667h-2.667v-2.667zM14.667 24.667h3.333v0.333c0 1.289-1.045 2.333-2.333 2.333v0h-1v-2.667zM14.667 14h1c1.288 0 2.333 1.045 2.333 2.333v1h-3.333v-3.333zM12.667 17.333h-2.667v-3.333h2.667v3.333zM8 24.667v2.667h-1c-1.289 0-2.333-1.045-2.333-2.333v0-0.333h3.333z"></path>
</svg>
