<!-- Generated by IcoMoon.io -->
<svg version="1.1" xmlns="http://www.w3.org/2000/svg" width="32" height="32" viewBox="0 0 32 32">
<title>reward</title>
<path d="M27 2.666c1.289 0 2.333 1.045 2.333 2.333v4.057c0 1.366-0.759 2.618-1.969 3.25l-8.376 4.374c2.181 1.096 3.678 3.354 3.678 5.961 0 3.682-2.985 6.667-6.667 6.667s-6.667-2.985-6.667-6.667c0-2.607 1.497-4.865 3.678-5.961l-8.376-4.374c-1.21-0.632-1.969-1.885-1.969-3.25v-4.057c0-1.289 1.045-2.333 2.333-2.333h22zM16 17.975c-2.577 0-4.667 2.089-4.667 4.667s2.089 4.667 4.667 4.667c2.577 0 4.667-2.089 4.667-4.667s-2.089-4.667-4.667-4.667zM20.667 4.665h-9.333v8.883l4.512 2.357c0.097 0.051 0.212 0.051 0.309 0l4.512-2.359v-8.881zM9.333 4.665l-4.333 0.001c-0.184 0-0.333 0.149-0.333 0.333v4.057c0 0.621 0.345 1.19 0.895 1.477l3.772 1.968v-7.837zM27 4.666l-4.333-0.001v7.837l3.772-1.968c0.55-0.287 0.895-0.857 0.895-1.477v-4.057c0-0.184-0.149-0.333-0.333-0.333z"></path>
</svg>
