<!-- Generated by IcoMoon.io -->
<svg version="1.1" xmlns="http://www.w3.org/2000/svg" width="32" height="32" viewBox="0 0 32 32">
<title>reward</title>
<path d="M27 2.665c1.288 0 2.333 1.045 2.333 2.333v4.057c-0 1.404-0.79 2.624-1.949 3.24l-0.020 0.010-8.376 4.373c2.198 1.12 3.678 3.367 3.678 5.959 0 3.682-2.985 6.667-6.667 6.667s-6.667-2.985-6.667-6.667c0-2.592 1.48-4.839 3.64-5.942l0.038-0.017-8.373-4.372c-1.18-0.625-1.971-1.846-1.971-3.251v0-4.057c0-1.288 1.045-2.333 2.333-2.333h22zM16 17.973c-2.577 0-4.667 2.089-4.667 4.667s2.089 4.667 4.667 4.667v0c2.577 0 4.667-2.089 4.667-4.667s-2.089-4.667-4.667-4.667v0zM20.667 4.664h-9.333v8.883l4.512 2.357c0.045 0.024 0.098 0.038 0.155 0.038s0.11-0.014 0.156-0.039l-0.002 0.001 4.512-2.359v-8.881zM9.333 4.664l-4.333 0.001c-0.184 0-0.333 0.149-0.333 0.333v0 4.057c0 0.62 0.345 1.189 0.895 1.477l3.772 1.968v-7.837zM27 4.665l-4.333-0.001v7.837l3.772-1.968c0.536-0.284 0.895-0.839 0.895-1.477 0-0 0-0 0-0v0-4.057c0-0.184-0.149-0.333-0.333-0.333v0z"></path>
</svg>
