<!-- Generated by IcoMoon.io -->
<svg version="1.1" xmlns="http://www.w3.org/2000/svg" width="32" height="32" viewBox="0 0 32 32">
<title>rewind</title>
<path d="M16.668 7.338c0-1.705-1.997-2.628-3.296-1.523l-9.88 8.408c-1.095 0.932-1.095 2.622 0 3.554l9.88 8.408c1.299 1.105 3.296 0.182 3.296-1.523v-5.317l8.038 6.841c1.299 1.105 3.296 0.182 3.296-1.523v-17.324c0-1.705-1.997-2.628-3.296-1.523l-8.038 6.841v-5.319zM16.668 16.719v-1.435l9.335-7.944v17.324l-9.335-7.944zM4.788 15.746l9.88-8.408v17.324l-9.88-8.408c-0.156-0.133-0.156-0.375 0-0.508z"></path>
</svg>
