<!-- Generated by IcoMoon.io -->
<svg version="1.1" xmlns="http://www.w3.org/2000/svg" width="32" height="32" viewBox="0 0 32 32">
<title>rhombus</title>
<path d="M8.005 7.361c0.471-1.196 1.615-2.027 2.954-2.027 0 0 0 0 0 0h15.871c2.224 0 3.755 2.232 2.954 4.307l-5.789 15c-0.471 1.195-1.615 2.025-2.954 2.025-0 0-0 0-0 0h-15.872c-2.223 0-3.755-2.232-2.953-4.307l5.789-15zM10.959 7.001c-0 0-0 0-0.001 0-0.634 0-1.176 0.394-1.396 0.95l-0.004 0.010-5.789 14.999c-0.064 0.16-0.101 0.346-0.101 0.54 0 0.828 0.672 1.5 1.5 1.5 0 0 0 0 0.001 0h15.871c0 0 0 0 0.001 0 0.634 0 1.176-0.394 1.396-0.95l0.004-0.010 5.789-14.999c0.064-0.16 0.101-0.346 0.101-0.54 0-0.828-0.672-1.5-1.5-1.5-0 0-0 0-0.001 0h-15.87z"></path>
</svg>
