<!-- Generated by IcoMoon.io -->
<svg version="1.1" xmlns="http://www.w3.org/2000/svg" width="32" height="32" viewBox="0 0 32 32">
<title>ribbon-star</title>
<path d="M16.305 7.523l1.217 2.47 2.725 0.394c0.279 0.040 0.391 0.383 0.189 0.58l-1.971 1.921 0.465 2.714c0.048 0.278-0.244 0.49-0.494 0.358l-2.436-1.283-2.436 1.283c-0.25 0.131-0.541-0.081-0.494-0.359l0.468-2.714-1.973-1.92c-0.202-0.197-0.091-0.54 0.189-0.58l2.725-0.394 1.217-2.47c0.125-0.253 0.485-0.253 0.61 0z"></path>
<path d="M25.333 12c0-5.155-4.179-9.333-9.333-9.333s-9.333 4.179-9.333 9.333c0 2.543 1.017 4.848 2.666 6.531l0.002 9.803 0.009 0.139c0.097 0.723 0.943 1.117 1.567 0.678l5.089-3.584 5.091 3.584 0.119 0.073c0.647 0.337 1.456-0.128 1.456-0.89l0.002-9.803c1.649-1.683 2.666-3.988 2.666-6.531zM20.666 20.085l-0 6.322-4.091-2.88-0.134-0.080c-0.324-0.159-0.715-0.133-1.017 0.080l-4.088 2.879-0-6.321c1.373 0.794 2.966 1.248 4.666 1.248s3.293-0.454 4.666-1.248zM8.667 12c0-4.050 3.283-7.333 7.333-7.333s7.333 3.283 7.333 7.333c0 4.050-3.283 7.333-7.333 7.333s-7.333-3.283-7.333-7.333z"></path>
</svg>
