<!-- Generated by IcoMoon.io -->
<svg version="1.1" xmlns="http://www.w3.org/2000/svg" width="32" height="32" viewBox="0 0 32 32">
<title>ribbon-off-regular</title>
<path d="M6.758 8.173l-4.466-4.466c-0.181-0.181-0.293-0.431-0.293-0.707 0-0.552 0.448-1 1-1 0.276 0 0.526 0.112 0.708 0.293l26 26c0.188 0.182 0.305 0.437 0.305 0.719 0 0.552-0.448 1-1 1-0.282 0-0.537-0.117-0.719-0.305l-6.293-6.293v5.586c0 0 0 0.001 0 0.001 0 0.552-0.448 1-1 1-0.19 0-0.368-0.053-0.519-0.145l0.004 0.003-4.485-2.692-4.486 2.692c-0.147 0.089-0.324 0.142-0.514 0.142-0.552 0-1-0.448-1-1 0-0 0-0 0-0v0-9c-2.44-1.841-4-4.734-4-7.992 0-0.003 0-0.005 0-0.008v0c0-1.355 0.27-2.648 0.758-3.827zM19.827 21.241c-1.127 0.48-2.439 0.759-3.815 0.759-0.004 0-0.008 0-0.012 0h0.001c-0.004 0-0.009 0-0.014 0-1.442 0-2.812-0.306-4.050-0.857l0.063 0.025v6.066l3.485-2.092c0.147-0.090 0.325-0.143 0.515-0.143s0.368 0.053 0.519 0.145l-0.004-0.003 3.485 2.092v-5.82l-0.173-0.173zM18.261 19.676l-9.937-9.937c-0.208 0.678-0.327 1.457-0.327 2.264 0 4.418 3.582 8 8 8 0.807 0 1.586-0.119 2.321-0.342l-0.057 0.015zM24 12c0 0.003 0 0.007 0 0.010 0 2.322-0.992 4.412-2.574 5.87l-0.006 0.005 1.414 1.415c1.951-1.825 3.166-4.415 3.166-7.288 0-0.004 0-0.008 0-0.012v0.001c0-5.523-4.477-10-10-10-0.003 0-0.008 0-0.012 0-2.874 0-5.463 1.216-7.283 3.16l-0.005 0.006 1.415 1.415c1.467-1.589 3.56-2.581 5.885-2.581 4.418 0 8 3.582 8 8v0z"></path>
</svg>
