<!-- Generated by IcoMoon.io -->
<svg version="1.1" xmlns="http://www.w3.org/2000/svg" width="32" height="32" viewBox="0 0 32 32">
<title>ribbon-add-regular</title>
<path d="M30.667 8.667c0-4.050-3.283-7.333-7.333-7.333s-7.333 3.283-7.333 7.333v0c0 4.050 3.283 7.333 7.333 7.333s7.333-3.283 7.333-7.333v0zM24 9.333l0.001 3.337c0 0.368-0.298 0.667-0.667 0.667s-0.667-0.298-0.667-0.667v0-3.337h-3.34c-0.368 0-0.667-0.298-0.667-0.667s0.298-0.667 0.667-0.667v0h3.339v-3.333c0-0.368 0.298-0.667 0.667-0.667s0.667 0.298 0.667 0.667v0 3.333h3.329c0.368 0 0.667 0.298 0.667 0.667s-0.298 0.667-0.667 0.667v0h-3.329zM14.667 2.667c0.749 0 1.48 0.088 2.177 0.255-0.467 0.525-0.877 1.118-1.209 1.757l-0.023 0.048c-0.284-0.039-0.612-0.061-0.945-0.061-4.050 0-7.333 3.283-7.333 7.333s3.283 7.333 7.333 7.333c2.226 0 4.221-0.992 5.566-2.558l0.008-0.010c0.618 0.244 1.336 0.425 2.083 0.511l0.040 0.004c-0.307 0.447-0.652 0.865-1.029 1.251l-0.003 9.803c0 0 0 0 0 0.001 0 0.552-0.448 1-1 1-0.166 0-0.323-0.041-0.462-0.113l0.006 0.003-0.12-0.073-5.089-3.584-5.088 3.584c-0.16 0.114-0.36 0.183-0.576 0.183-0.503 0-0.92-0.372-0.99-0.856l-0.001-0.005-0.012-0.137-0.003-9.803c-1.648-1.682-2.665-3.987-2.665-6.531 0-5.155 4.179-9.333 9.333-9.333 0.001 0 0.001 0 0.001 0h-0zM19.333 26.405v-6.321c-1.334 0.785-2.938 1.248-4.651 1.248-0.005 0-0.011 0-0.016 0h0.001c-1.7 0-3.293-0.453-4.667-1.248v6.32l4.089-2.879c0.16-0.114 0.36-0.183 0.576-0.183 0.161 0 0.313 0.038 0.447 0.105l-0.006-0.003 0.133 0.080 4.093 2.88z"></path>
</svg>
