<!-- Generated by IcoMoon.io -->
<svg version="1.1" xmlns="http://www.w3.org/2000/svg" width="32" height="32" viewBox="0 0 32 32">
<title>ribbon-regular</title>
<path d="M16 2c-5.523 0-10 4.477-10 10 0 0.002 0 0.005 0 0.008 0 3.258 1.56 6.152 3.975 7.974l0.025 0.018v9c0 0 0 0 0 0 0 0.552 0.448 1 1 1 0.19 0 0.367-0.053 0.518-0.145l-0.004 0.003 4.486-2.692 4.485 2.692c0.147 0.090 0.325 0.143 0.515 0.143 0.552 0 1-0.448 1-1 0-0 0-0.001 0-0.001v0-9c2.44-1.841 4-4.734 4-7.992 0-0.003 0-0.005 0-0.008v0c0-5.523-4.477-10-10-10zM8 12c0-4.418 3.582-8 8-8s8 3.582 8 8v0c0 4.418-3.582 8-8 8s-8-3.582-8-8v0zM20 21.168v6.066l-3.485-2.092c-0.147-0.090-0.325-0.143-0.515-0.143s-0.368 0.053-0.519 0.145l0.004-0.003-3.485 2.092v-6.066c1.174 0.526 2.544 0.832 3.986 0.832 0.005 0 0.010 0 0.014 0h-0.001c0.004 0 0.009 0 0.014 0 1.442 0 2.812-0.306 4.050-0.857l-0.063 0.025z"></path>
</svg>
