<!-- Generated by IcoMoon.io -->
<svg version="1.1" xmlns="http://www.w3.org/2000/svg" width="32" height="32" viewBox="0 0 32 32">
<title>ribbon</title>
<path d="M16 2.667c5.155 0 9.333 4.179 9.333 9.333 0 2.543-1.017 4.848-2.666 6.531l-0.002 9.803c0 0.763-0.809 1.227-1.456 0.89l-0.119-0.073-5.091-3.584-5.089 3.584c-0.624 0.439-1.469 0.045-1.567-0.678l-0.009-0.139-0.002-9.803c-1.649-1.683-2.666-3.988-2.666-6.531 0-5.155 4.179-9.333 9.333-9.333zM20.666 26.407l0-6.322c-1.373 0.794-2.966 1.248-4.666 1.248s-3.293-0.454-4.666-1.248l0 6.321 4.088-2.879c0.302-0.213 0.693-0.239 1.017-0.080l0.134 0.080 4.091 2.88zM16 4.667c-4.050 0-7.333 3.283-7.333 7.333s3.283 7.333 7.333 7.333c4.050 0 7.333-3.283 7.333-7.333s-3.283-7.333-7.333-7.333z"></path>
</svg>
