<!-- Generated by IcoMoon.io -->
<svg version="1.1" xmlns="http://www.w3.org/2000/svg" width="32" height="32" viewBox="0 0 32 32">
<title>ribbon-star-regular</title>
<path d="M16.305 7.523l1.216 2.471 2.725 0.393c0.28 0.040 0.391 0.384 0.189 0.58l-1.972 1.92 0.467 2.715c0.003 0.017 0.005 0.037 0.005 0.058 0 0.188-0.152 0.34-0.34 0.34-0.058 0-0.112-0.014-0.16-0.040l0.002 0.001-2.437-1.283-2.436 1.283c-0.046 0.025-0.1 0.039-0.158 0.039-0.188 0-0.34-0.152-0.34-0.34 0-0.020 0.002-0.040 0.005-0.060l-0 0.002 0.467-2.713-1.973-1.92c-0.064-0.062-0.104-0.149-0.104-0.245 0-0.171 0.127-0.313 0.291-0.337l0.002-0 2.725-0.393 1.216-2.471c0.057-0.114 0.172-0.19 0.305-0.19s0.249 0.077 0.304 0.188l0.001 0.002zM25.333 12c0-0 0-0.001 0-0.001 0-5.155-4.179-9.333-9.333-9.333s-9.333 4.179-9.333 9.333c0 2.544 1.018 4.85 2.668 6.533l-0.002-0.002v9.803l0.011 0.14c0.071 0.489 0.487 0.86 0.99 0.86 0.216 0 0.416-0.069 0.58-0.185l-0.003 0.002 5.088-3.583 5.092 3.584 0.119 0.072c0.133 0.069 0.29 0.11 0.456 0.11 0.552 0 1-0.448 1-1 0-0 0-0 0-0.001v0l0.003-9.803c1.648-1.677 2.665-3.979 2.665-6.518 0-0.004 0-0.009 0-0.013v0.001zM20.667 20.085v6.321l-4.093-2.88-0.133-0.080c-0.129-0.065-0.281-0.103-0.441-0.103-0.216 0-0.416 0.068-0.579 0.185l0.003-0.002-4.088 2.88v-6.321c1.334 0.785 2.939 1.248 4.651 1.248 0.005 0 0.010 0 0.015 0h-0.001c1.7 0 3.293-0.453 4.667-1.248zM8.667 12c0-4.050 3.283-7.333 7.333-7.333s7.333 3.283 7.333 7.333v0c0 4.050-3.283 7.333-7.333 7.333s-7.333-3.283-7.333-7.333v0z"></path>
</svg>
