<!-- Generated by IcoMoon.io -->
<svg version="1.1" xmlns="http://www.w3.org/2000/svg" width="32" height="32" viewBox="0 0 32 32">
<title>road-cone</title>
<path d="M14.912 2.667c-0.768 0-1.414 0.519-1.607 1.226l-0.003 0.012-6.249 23.429h-3.387c-0.552 0-1 0.448-1 1s0.448 1 1 1v0h24.667c0.552 0 1-0.448 1-1s-0.448-1-1-1v0h-3.387l-6.249-23.429c-0.196-0.718-0.842-1.237-1.609-1.237h-2.176zM9.124 27.333l1.244-4.667h7.965c0.552 0 1-0.448 1-1s-0.448-1-1-1v0h-7.432l0.711-2.667h5.387c0.552 0 1-0.448 1-1s-0.448-1-1-1v0h-4.853l3.021-11.333h1.664l6.044 22.667h-13.752z"></path>
</svg>
