<!-- Generated by IcoMoon.io -->
<svg version="1.1" xmlns="http://www.w3.org/2000/svg" width="32" height="32" viewBox="0 0 32 32">
<title>road-cone</title>
<path d="M14.912 2.667c-0.755 0-1.416 0.508-1.61 1.237l-6.248 23.429h-3.387c-0.552 0-1 0.448-1 1s0.448 1 1 1h24.667c0.552 0 1-0.448 1-1s-0.448-1-1-1h-3.387l-6.248-23.429c-0.195-0.73-0.855-1.237-1.61-1.237h-2.176zM9.124 27.333l1.244-4.667h7.965c0.552 0 1-0.448 1-1s-0.448-1-1-1h-7.432l0.711-2.667h5.387c0.552 0 1-0.448 1-1s-0.448-1-1-1h-4.854l3.022-11.333h1.663l6.044 22.667h-13.752z"></path>
</svg>
