<!-- Generated by IcoMoon.io -->
<svg version="1.1" xmlns="http://www.w3.org/2000/svg" width="32" height="32" viewBox="0 0 32 32">
<title>rocket-regular</title>
<path d="M17.409 9.907c0.603-0.603 1.437-0.976 2.357-0.976 1.841 0 3.334 1.493 3.334 3.334 0 0.921-0.373 1.754-0.976 2.357v0c-0.602 0.597-1.431 0.966-2.347 0.966-1.841 0-3.333-1.492-3.333-3.333 0-0.915 0.369-1.744 0.966-2.347l-0 0zM20.709 11.321c-0.241-0.241-0.575-0.39-0.943-0.39-0.737 0-1.334 0.597-1.334 1.334 0 0.368 0.149 0.702 0.391 0.943v0c0.241 0.241 0.575 0.39 0.943 0.39 0.737 0 1.334-0.597 1.334-1.334 0-0.368-0.149-0.702-0.391-0.943v0zM28.679 5.763c-0.367-1.155-1.259-2.047-2.389-2.406l-0.026-0.007-0.884-0.275c-0.797-0.256-1.715-0.404-2.667-0.404-2.485 0-4.735 1.007-6.364 2.636l-1.328 1.328c-0.769-0.581-1.741-0.93-2.795-0.93-1.288 0-2.454 0.522-3.298 1.366l-1.655 1.656c-0.181 0.181-0.292 0.431-0.292 0.707s0.112 0.526 0.292 0.707l2.121 2.123-0.24 0.24c-0.422 0.422-0.683 1.005-0.683 1.649s0.261 1.227 0.683 1.649l0.661 0.661-1.861 1.061c-0.303 0.176-0.503 0.498-0.503 0.868 0 0.276 0.112 0.526 0.293 0.707l5.185 5.187c0.181 0.181 0.431 0.293 0.707 0.293 0.37 0 0.692-0.2 0.865-0.498l0.003-0.005 1.064-1.86 0.663 0.663c0.422 0.422 1.006 0.683 1.65 0.683s1.228-0.261 1.65-0.683l0.236-0.236 2.12 2.12c0.181 0.181 0.431 0.292 0.707 0.292s0.526-0.112 0.707-0.292v0l1.656-1.657c0.844-0.844 1.366-2.010 1.366-3.297 0-1.053-0.349-2.024-0.937-2.804l0.009 0.012 1.331-1.331c1.629-1.629 2.636-3.879 2.636-6.364 0-0.954-0.148-1.873-0.423-2.735l0.018 0.064-0.275-0.885zM25.671 5.259c0.524 0.163 0.935 0.573 1.097 1.097l0.276 0.887c0.2 0.621 0.315 1.335 0.315 2.076 0 1.933-0.784 3.684-2.051 4.95l-7.193 7.193c-0.060 0.060-0.143 0.097-0.235 0.097s-0.175-0.037-0.235-0.097v0l-7.076-7.075c-0.060-0.060-0.098-0.144-0.098-0.236s0.037-0.176 0.098-0.236v0l7.195-7.195c1.267-1.267 3.017-2.051 4.95-2.051 0.741 0 1.455 0.115 2.125 0.328l-0.050-0.014 0.883 0.273zM23.952 18.455c0.604 1.021 0.467 2.359-0.411 3.236l-0.949 0.949-1.413-1.413 2.773-2.773zM10.344 8.484c0.482-0.482 1.148-0.779 1.883-0.779 0.5 0 0.967 0.138 1.367 0.377l-0.012-0.007-2.773 2.773-1.413-1.413 0.949-0.951zM14.101 20.748l-0.685 1.197-3.333-3.333 1.197-0.684 2.821 2.821zM8.92 24.527c0.166-0.178 0.268-0.418 0.268-0.682 0-0.552-0.448-1-1-1-0.264 0-0.504 0.102-0.682 0.269l0.001-0.001-3.301 3.299c-0.181 0.181-0.293 0.431-0.293 0.707 0 0.552 0.448 1 1 1 0.276 0 0.526-0.112 0.707-0.293l3.3-3.3zM6.327 20.52c0.181 0.181 0.292 0.431 0.292 0.707s-0.112 0.526-0.292 0.707l-1.413 1.415c-0.18 0.174-0.425 0.281-0.695 0.281-0.552 0-1-0.448-1-1 0-0.27 0.107-0.515 0.281-0.695l1.413-1.414c0.181-0.181 0.431-0.293 0.707-0.293s0.526 0.112 0.707 0.293v0zM11.509 27.123c0.196-0.183 0.318-0.443 0.318-0.732 0-0.552-0.448-1-1-1-0.289 0-0.549 0.122-0.731 0.318l-0.001 0.001-1.412 1.411c-0.166 0.178-0.268 0.418-0.268 0.682 0 0.552 0.448 1 1 1 0.264 0 0.504-0.102 0.682-0.269l-0.001 0.001 1.413-1.411z"></path>
</svg>
