<!-- Generated by IcoMoon.io -->
<svg version="1.1" xmlns="http://www.w3.org/2000/svg" width="32" height="32" viewBox="0 0 32 32">
<title>rotate-left</title>
<path d="M20.020 6.667c0.111 0 0.222 0.002 0.333 0.006 0.008 0 0.015 0.001 0.023 0.001 1.547 0.060 2.98 0.486 4.175 1.176 2.084 1.203 3.449 3.211 3.449 5.483 0 2.277-1.37 4.288-3.461 5.49-1.29 0.742-2.854 1.176-4.539 1.176h-0.667c-0.426 0-0.789-0.266-0.934-0.641-0.043-0.111-0.066-0.232-0.066-0.359 0-0.552 0.448-1 1-1h0.667c1.284 0 2.475-0.314 3.451-0.849 1.542-0.845 2.549-2.24 2.549-3.818s-1.007-2.974-2.549-3.818c-0.9-0.493-1.981-0.798-3.151-0.843l-0.299-0.006h-9.252l2.294 2.294c0.389 0.391 0.389 1.023-0.001 1.413-0.355 0.355-0.911 0.387-1.302 0.097l-0.112-0.097-4-4c-0.008-0.008-0.016-0.016-0.024-0.024-0.351-0.376-0.359-0.956-0.022-1.341 0.015-0.017 0.030-0.033 0.046-0.049l4-4 0.112-0.097c0.392-0.29 0.947-0.258 1.302 0.097 0.39 0.39 0.391 1.022 0.001 1.413l-2.292 2.294h9.251c0.007 0 0.013 0 0.020 0zM27.185 26.756c0.319 0.184 0.427 0.592 0.243 0.911-0.119 0.206-0.339 0.333-0.577 0.333h-21.518c-0.736 0-1.333-0.597-1.333-1.333v-12.177c0-0.368 0.298-0.667 0.667-0.667 0.117 0 0.233 0.031 0.334 0.090l22.185 12.844zM21.887 26l-15.887-9.198v9.198h15.887z"></path>
</svg>
