<!-- Generated by IcoMoon.io -->
<svg version="1.1" xmlns="http://www.w3.org/2000/svg" width="32" height="32" viewBox="0 0 32 32">
<title>rotate-right</title>
<path d="M11.98 6.667c-0.111 0-0.222 0.002-0.333 0.006-0.008 0-0.015 0.001-0.023 0.001-1.547 0.060-2.98 0.486-4.176 1.176-2.084 1.203-3.449 3.211-3.449 5.483 0 2.277 1.37 4.288 3.461 5.49 1.29 0.742 2.854 1.176 4.539 1.176h0.667c0.426 0 0.789-0.266 0.934-0.641 0.043-0.111 0.066-0.232 0.066-0.359 0-0.552-0.448-1-1-1h-0.667c-1.284 0-2.475-0.314-3.451-0.849-1.542-0.845-2.549-2.24-2.549-3.818s1.007-2.974 2.549-3.818c0.9-0.493 1.981-0.798 3.151-0.843l0.299-0.006h9.252l-2.292 2.293c-0.001 0-0.001 0.001-0.001 0.001-0.389 0.391-0.389 1.023 0.001 1.413 0.355 0.355 0.911 0.387 1.302 0.097l0.112-0.097c0-0 0 0 0 0l4-4c0.008-0.008 0.016-0.016 0.024-0.024 0.351-0.376 0.359-0.956 0.023-1.341-0.015-0.017-0.030-0.033-0.046-0.049l-3.999-3.999c-0-0 0 0 0 0s-0.001-0.001-0.001-0.001l-0.112-0.097c-0.391-0.29-0.947-0.258-1.302 0.097-0.39 0.39-0.391 1.022-0.001 1.413 0 0 0.001 0.001 0.001 0.001l2.291 2.293h-9.251c-0.007 0-0.013 0-0.020 0zM4.815 26.756c-0.319 0.184-0.427 0.592-0.243 0.911 0.119 0.206 0.339 0.333 0.577 0.333h21.518c0.736 0 1.333-0.597 1.333-1.333v-12.177c0-0.368-0.299-0.667-0.667-0.667-0.117 0-0.233 0.031-0.334 0.090l-22.185 12.844zM10.113 26l15.887-9.198v9.198h-15.887z"></path>
</svg>
