<!-- Generated by IcoMoon.io -->
<svg version="1.1" xmlns="http://www.w3.org/2000/svg" width="32" height="32" viewBox="0 0 32 32">
<title>rotate-right</title>
<path d="M11.98 6.667c-0.112 0-0.223 0.003-0.333 0.007h-0.023c-1.543 0.052-2.975 0.483-4.22 1.201l0.044-0.023c-2.083 1.203-3.448 3.209-3.448 5.483 0 2.277 1.371 4.288 3.46 5.491 1.291 0.741 2.853 1.176 4.54 1.176h0.667c0.552 0 1-0.448 1-1s-0.448-1-1-1v0h-0.667c-0.018 0-0.039 0-0.060 0-1.241 0-2.409-0.314-3.429-0.867l0.038 0.019c-1.541-0.845-2.549-2.24-2.549-3.819s1.008-2.973 2.549-3.819c0.912-0.498 1.991-0.806 3.139-0.842l0.011-0 0.3-0.005h9.252l-2.293 2.293c-0.182 0.181-0.294 0.431-0.294 0.708 0 0.552 0.448 1 1 1 0.225 0 0.432-0.074 0.599-0.199l-0.003 0.002 0.112-0.097h0.001l4-4c0.181-0.181 0.292-0.431 0.292-0.707s-0.112-0.526-0.292-0.707v0l-4-4-0.113-0.097c-0.163-0.121-0.369-0.194-0.592-0.194-0.552 0-1 0.448-1 1 0 0.274 0.11 0.522 0.289 0.703l-0 0.001 2.293 2.293h-9.272zM4.813 26.756c-0.201 0.117-0.333 0.332-0.333 0.577 0 0.368 0.298 0.667 0.667 0.667h21.52c0.736 0 1.333-0.597 1.333-1.333v0-12.177c0-0.368-0.298-0.667-0.667-0.667-0.123 0-0.238 0.033-0.336 0.091l0.003-0.002-22.187 12.844zM10.112 26l15.888-9.197v9.197h-15.887z"></path>
</svg>
