<!-- Generated by IcoMoon.io -->
<svg version="1.1" xmlns="http://www.w3.org/2000/svg" width="32" height="32" viewBox="0 0 32 32">
<title>rotate-left-regular</title>
<path d="M20.020 6.667c0.112 0 0.223 0.003 0.333 0.007h0.023c1.543 0.052 2.974 0.483 4.218 1.201l-0.044-0.023c2.084 1.203 3.449 3.209 3.449 5.483 0 2.277-1.369 4.288-3.461 5.491-1.288 0.74-2.832 1.176-4.478 1.176-0.021 0-0.043-0-0.064-0l0.003 0h-0.667c-0.552 0-1-0.448-1-1s0.448-1 1-1v0h0.667c1.284 0 2.475-0.313 3.451-0.848 1.541-0.845 2.549-2.24 2.549-3.819s-1.008-2.973-2.549-3.819c-0.912-0.498-1.991-0.806-3.139-0.842l-0.011-0-0.3-0.005h-9.252l2.293 2.293c0.182 0.181 0.294 0.431 0.294 0.708 0 0.552-0.448 1-1 1-0.225 0-0.432-0.074-0.599-0.199l0.003 0.002-0.112-0.097h-0.001l-4-4c-0.181-0.181-0.292-0.431-0.292-0.707s0.112-0.526 0.292-0.707v0l4-4 0.113-0.097c0.163-0.121 0.369-0.194 0.592-0.194 0.552 0 1 0.448 1 1 0 0.274-0.11 0.522-0.289 0.703l0-0-2.292 2.295h9.271zM27.185 26.756c0.201 0.117 0.333 0.332 0.333 0.577 0 0.368-0.298 0.667-0.667 0.667h-21.519c-0.736 0-1.333-0.597-1.333-1.333v0-12.177c0-0.368 0.298-0.667 0.667-0.667 0.123 0 0.238 0.033 0.336 0.091l-0.003-0.002 22.185 12.844zM21.887 26l-15.887-9.197v9.197h15.887z"></path>
</svg>
