<!-- Generated by IcoMoon.io -->
<svg version="1.1" xmlns="http://www.w3.org/2000/svg" width="32" height="32" viewBox="0 0 32 32">
<title>row-triple</title>
<path d="M5.333 5.027c0-1.289 1.045-2.333 2.333-2.333h16.667c1.289 0 2.333 1.045 2.333 2.333v3.333c0 1.289-1.045 2.333-2.333 2.333h-16.667c-1.289 0-2.333-1.045-2.333-2.333v-3.333zM7.667 4.693c-0.184 0-0.333 0.149-0.333 0.333v3.333c0 0.184 0.149 0.333 0.333 0.333h16.667c0.184 0 0.333-0.149 0.333-0.333v-3.333c0-0.184-0.149-0.333-0.333-0.333h-16.667z"></path>
<path d="M5.333 14.36c0-1.289 1.045-2.333 2.333-2.333h16.667c1.289 0 2.333 1.045 2.333 2.333v3.333c0 1.289-1.045 2.333-2.333 2.333h-16.667c-1.289 0-2.333-1.045-2.333-2.333v-3.333zM7.667 14.027c-0.184 0-0.333 0.149-0.333 0.333v3.333c0 0.184 0.149 0.333 0.333 0.333h16.667c0.184 0 0.333-0.149 0.333-0.333v-3.333c0-0.184-0.149-0.333-0.333-0.333h-16.667z"></path>
<path d="M7.667 21.36c-1.289 0-2.333 1.045-2.333 2.333v3.333c0 1.289 1.045 2.333 2.333 2.333h16.667c1.289 0 2.333-1.045 2.333-2.333v-3.333c0-1.289-1.045-2.333-2.333-2.333h-16.667zM7.333 23.693c0-0.184 0.149-0.333 0.333-0.333h16.667c0.184 0 0.333 0.149 0.333 0.333v3.333c0 0.184-0.149 0.333-0.333 0.333h-16.667c-0.184 0-0.333-0.149-0.333-0.333v-3.333z"></path>
</svg>
