<!-- Generated by IcoMoon.io -->
<svg version="1.1" xmlns="http://www.w3.org/2000/svg" width="32" height="32" viewBox="0 0 32 32">
<title>rss-regular</title>
<path d="M9 10c-0.54 0-1-0.423-1-0.963v-0.073c0-0.524 0.407-0.961 0.931-0.964h0.069c8.284 0 15 6.716 15 15v0.069c-0.010 0.516-0.43 0.931-0.948 0.931-0.006 0-0.011-0-0.017-0h-0.072c-0.54 0-0.963-0.46-0.963-1 0-7.18-5.82-13-13-13v0z"></path>
<path d="M17.725 24c0.507 0 0.935-0.383 0.94-0.888l0.001-0.112c0-0 0-0 0-0.001 0-5.339-4.328-9.667-9.667-9.667-0.039 0-0.079 0-0.118 0.001l0.006-0c-0.505 0.007-0.888 0.436-0.888 0.941v0.12c0 0.532 0.468 0.939 1 0.939 4.234 0 7.667 3.432 7.667 7.667v0c0 0.532 0.407 1 0.939 1h0.12zM12 22c0 1.105-0.895 2-2 2s-2-0.895-2-2v0c0-1.105 0.895-2 2-2s2 0.895 2 2v0z"></path>
<path d="M8.333 4c-2.393 0-4.333 1.94-4.333 4.333v0 15.333c0 2.393 1.94 4.333 4.333 4.333v0h15.333c2.393 0 4.333-1.94 4.333-4.333v0-15.333c0-2.393-1.94-4.333-4.333-4.333v0h-15.333zM6 8.333c0-1.288 1.045-2.333 2.333-2.333h15.333c1.288 0 2.333 1.045 2.333 2.333v15.333c0 1.289-1.045 2.333-2.333 2.333v0h-15.333c-1.289 0-2.333-1.045-2.333-2.333v0-15.333z"></path>
</svg>
