<!-- Generated by IcoMoon.io -->
<svg version="1.1" xmlns="http://www.w3.org/2000/svg" width="32" height="32" viewBox="0 0 32 32">
<title>rss</title>
<path d="M9 10c-0.54 0-1-0.423-1-0.963v-0.073c0-0.524 0.407-0.962 0.931-0.964l0.069-0c8.284 0 15 6.716 15 15l-0 0.069c-0.002 0.524-0.44 0.931-0.964 0.931h-0.073c-0.54 0-0.963-0.46-0.963-1 0-7.18-5.82-13-13-13zM17.725 24c0.506 0 0.935-0.383 0.941-0.889 0-0.037 0.001-0.074 0.001-0.111 0-5.339-4.328-9.667-9.667-9.667-0.037 0-0.074 0-0.111 0.001-0.506 0.006-0.889 0.435-0.889 0.941v0.121c0 0.531 0.468 0.938 1 0.938 4.234 0 7.667 3.433 7.667 7.667 0 0.531 0.407 1 0.938 1h0.121zM12 22c0 1.105-0.895 2-2 2s-2-0.895-2-2c0-1.105 0.895-2 2-2s2 0.895 2 2zM8.333 4c-2.393 0-4.333 1.94-4.333 4.333v15.333c0 2.393 1.94 4.333 4.333 4.333h15.333c2.393 0 4.333-1.94 4.333-4.333v-15.333c0-2.393-1.94-4.333-4.333-4.333h-15.333zM6 8.333c0-1.289 1.045-2.333 2.333-2.333h15.333c1.289 0 2.333 1.045 2.333 2.333v15.333c0 1.289-1.045 2.333-2.333 2.333h-15.333c-1.289 0-2.333-1.045-2.333-2.333v-15.333z"></path>
</svg>
