<!-- Generated by IcoMoon.io -->
<svg version="1.1" xmlns="http://www.w3.org/2000/svg" width="32" height="32" viewBox="0 0 32 32">
<title>ruler</title>
<path d="M22.67 4.998c0-1.289-1.045-2.333-2.333-2.333h-8.67c-1.289 0-2.333 1.045-2.333 2.333v2.656l-0 0.010 0 0.010v3.982l-0 0.010 0 0.010v4.31l-0 0.010 0 0.010v4.316c-0 0.003-0 0.007-0 0.010s0 0.007 0 0.010v3.98l-0 0.010 0 0.010v2.659c0 1.289 1.045 2.333 2.333 2.333h8.67c1.289 0 2.333-1.045 2.333-2.333v-22.004zM11.333 21.333h5c0.552 0 1-0.448 1-1s-0.448-1-1-1h-5v-2.336h3.667c0.552 0 1-0.448 1-1s-0.448-1-1-1h-3.667v-2.331h5c0.552 0 1-0.448 1-1s-0.448-1-1-1h-5v-2.002h3.667c0.552 0 1-0.448 1-1s-0.448-1-1-1h-3.667v-1.667c0-0.184 0.149-0.333 0.333-0.333h8.67c0.184 0 0.333 0.149 0.333 0.333v22.004c0 0.184-0.149 0.333-0.333 0.333h-8.67c-0.184 0-0.333-0.149-0.333-0.333v-1.669h3.667c0.552 0 1-0.448 1-1s-0.448-1-1-1h-3.667v-2z"></path>
</svg>
