<!-- Generated by IcoMoon.io -->
<svg version="1.1" xmlns="http://www.w3.org/2000/svg" width="32" height="32" viewBox="0 0 32 32">
<title>ruler</title>
<path d="M12.167 2.667c-1.565 0-2.833 1.269-2.833 2.833v0 21c0 1.565 1.269 2.833 2.833 2.833v0h7.667c1.565 0 2.833-1.269 2.833-2.833v0-21c0-1.565-1.269-2.833-2.833-2.833v0h-7.667zM11 8.5h2.833c0.46 0 0.833-0.373 0.833-0.833s-0.373-0.833-0.833-0.833v0h-2.833v-1.333c0-0.644 0.523-1.167 1.167-1.167h7.667c0.644 0 1.167 0.523 1.167 1.167v21c0 0.644-0.522 1.167-1.167 1.167v0h-7.667c-0.644 0-1.167-0.522-1.167-1.167v0-1.333h2.833c0.46 0 0.833-0.373 0.833-0.833s-0.373-0.833-0.833-0.833v0h-2.833v-2.5h5.5c0.46 0 0.833-0.373 0.833-0.833s-0.373-0.833-0.833-0.833v0h-5.5v-2.5h2.833c0.46 0 0.833-0.373 0.833-0.833s-0.373-0.833-0.833-0.833v0h-2.833v-2.5h5.5c0.46 0 0.833-0.373 0.833-0.833s-0.373-0.833-0.833-0.833v0h-5.5v-2.5z"></path>
</svg>
