<!-- Generated by IcoMoon.io -->
<svg version="1.1" xmlns="http://www.w3.org/2000/svg" width="32" height="32" viewBox="0 0 32 32">
<title>run</title>
<path d="M14.188 3.396c0.174-0.030 0.353-0.013 0.518 0.049l9.645 3.62c0.383 0.144 0.639 0.507 0.647 0.916s-0.236 0.781-0.614 0.939l-1.145 0.477c-1.109 0.462-2.043 1.264-2.666 2.291l-0.722 1.189c0.113 0.735 0.463 1.666 0.959 2.627 0.514 0.996 1.136 1.928 1.666 2.571l3.176 1.589c1.241 0.621 2.025 1.889 2.025 3.277v3.728c0 0.551-0.447 0.997-0.997 0.997h-1.117c-4.697 0-10.027-1.567-14.452-3.933-4.383-2.343-8.122-5.601-9.321-9.152-0.089-0.264-0.064-0.552 0.069-0.797 0.454-0.832 0.941-1.607 1.449-2.326 0.232-0.328 0.64-0.766 0.982-1.127 0.086-0.091 0.169-0.178 0.247-0.26 0.269-0.283 0.489-0.514 0.616-0.667 0.008-0.010 0.017-0.020 0.026-0.030 0.445-0.491 1.067-1.119 1.802-1.782 0.95-0.856 2.107-1.787 3.333-2.559 1.213-0.764 2.558-1.415 3.873-1.639zM20.61 18.931c-0.539-0.712-1.099-1.594-1.573-2.511-0.505-0.978-0.953-2.075-1.135-3.096l-1.698-0.786 2.097 5.286c0.096 0.242 0.094 0.512-0.007 0.753l-0.896 2.142 1.618 0.598 1.593-2.386zM20.998 21.942c1.683 0.485 2.572 0.736 4.683 1.016v-0.016c0-0.632-0.357-1.21-0.923-1.493l-2.573-1.287-1.188 1.78zM25.682 24.969c-2.493-0.32-3.477-0.603-5.334-1.139-0.363-0.105-0.76-0.219-1.208-0.345-0.025-0.007-0.051-0.015-0.075-0.025l-3.332-1.231c-0.028-0.010-0.056-0.022-0.083-0.035-2.77-1.319-4.319-2.292-6.245-3.7-2.344-1.714-4.086-3.388-5.221-4.739-0.119 0.194-0.237 0.391-0.352 0.592 1.105 2.693 4.178 5.467 8.22 7.628 4.201 2.246 9.21 3.697 13.512 3.697h0.119v-0.703zM5.39 12.078c0.794 1.014 2.092 2.364 3.913 3.827l0.566-3.115-2.334-2.981c-0.34 0.332-0.633 0.636-0.865 0.892-0.174 0.206-0.453 0.499-0.723 0.783-0.071 0.074-0.141 0.148-0.208 0.219-0.126 0.133-0.243 0.259-0.349 0.374zM9.018 8.466l2.698 3.447c0.176 0.224 0.247 0.513 0.196 0.793l-0.826 4.543c1.384 0.988 2.623 1.758 4.478 2.685l0.733-1.752-2.869-7.231c-0.15-0.379-0.055-0.812 0.242-1.093s0.734-0.352 1.104-0.18l3.657 1.693 0.435-0.717c0.637-1.048 1.512-1.924 2.549-2.558l-7.145-2.682c-0.883 0.2-1.877 0.67-2.893 1.31-0.826 0.52-1.632 1.131-2.36 1.742z"></path>
</svg>
