<!-- Generated by IcoMoon.io -->
<svg version="1.1" xmlns="http://www.w3.org/2000/svg" width="32" height="32" viewBox="0 0 32 32">
<title>sanitize</title>
<path d="M10.586 5.576l-4.343 4.343c-0.781 0.781-0.781 2.047 0 2.828l5.231 5.231c-0.403 0.588-0.674 1.285-0.769 2.059l-5.876-5.876c-1.562-1.562-1.562-4.095 0-5.657l4.343-4.343c1.562-1.562 4.095-1.562 5.657 0l4.594 4.594c-0.1 0.078-0.195 0.16-0.285 0.247-0.045-0.002-0.091-0.002-0.137-0.002-0.663 0-1.245 0.157-1.74 0.422l-3.846-3.846c-0.781-0.781-2.047-0.781-2.828 0zM19.687 10.429c-0.211-0.062-0.441-0.096-0.687-0.096-1.461 0-2.327 1.201-2.327 2.333v4.897c-0.389-0.135-0.841-0.23-1.344-0.23-1.864 0-3.329 1.375-3.329 3.333 0 0.323 0.156 0.625 0.418 0.813l2.29 1.639 1.273 1.11c0.852 0.743 1.617 1.579 2.28 2.493l0.798 1.099c0.69 0.95 1.793 1.513 2.967 1.513h2.185c1.241 0 2.432-0.631 3.073-1.748 0.403-0.702 0.901-1.624 1.302-2.536 0.381-0.868 0.747-1.884 0.747-2.715v-8c0-1.139-0.877-2.333-2.333-2.333-0.147 0-0.287 0.012-0.422 0.035-0.256-0.909-1.057-1.702-2.245-1.702-0.243 0-0.473 0.034-0.686 0.097-0.385-0.629-1.070-1.097-1.981-1.097s-1.595 0.467-1.98 1.096zM21.908 11.427c0.058 0.062 0.092 0.152 0.092 0.237v0.887c-0.001 0.044-0.001 0.089 0 0.133v4.982c0 0.552 0.448 1 1 1s1-0.448 1-1v-5.069c0.005-0.049 0.028-0.111 0.078-0.164s0.128-0.1 0.255-0.1c0.127 0 0.196 0.044 0.241 0.093 0.057 0.062 0.092 0.152 0.092 0.24v5.667c0 0.552 0.448 1 1 1s1-0.448 1-1v-4.001c0-0.087 0.035-0.177 0.093-0.24 0.046-0.050 0.115-0.094 0.241-0.094s0.195 0.044 0.241 0.094c0.057 0.062 0.093 0.153 0.093 0.24v8c0 0.373-0.198 1.047-0.578 1.911-0.36 0.82-0.82 1.672-1.206 2.345-0.262 0.456-0.766 0.744-1.339 0.744h-2.185c-0.534 0-1.035-0.256-1.349-0.687l-0.798-1.099c-0.752-1.036-1.619-1.984-2.585-2.826l-1.309-1.141c-0.024-0.021-0.049-0.041-0.075-0.059l-1.845-1.32c0.166-0.544 0.635-0.866 1.263-0.866 0.849 0 1.453 0.533 1.656 0.713 0.016 0.014 0.029 0.026 0.040 0.035 0.297 0.253 0.714 0.309 1.067 0.146s0.58-0.518 0.58-0.908v-6.653c0-0.090 0.036-0.181 0.092-0.242 0.044-0.048 0.111-0.091 0.236-0.091 0.127 0 0.196 0.044 0.241 0.093 0.057 0.061 0.092 0.151 0.092 0.24v5c0 0.552 0.448 1 1 1s1-0.448 1-1v-6.002c0-0.085 0.035-0.175 0.092-0.237 0.046-0.050 0.115-0.094 0.241-0.094s0.195 0.044 0.241 0.094zM5.668 18.667c0.552 0 1 0.448 1 1v0.997h0.994c0.552 0 1 0.448 1 1s-0.448 1-1 1h-0.994l0 1.008c0 0.552-0.448 1-1 1s-1-0.448-1-1l-0-1.008h-1.002c-0.552 0-1-0.448-1-1s0.448-1 1-1h1.002v-0.997c0-0.552 0.448-1 1-1zM11.002 23.333c0.552 0 1 0.448 1 1v0.997h0.994c0.552 0 1 0.448 1 1s-0.448 1-1 1h-0.994l0 1.008c0 0.552-0.448 1-1 1s-1-0.448-1-1l-0-1.008h-1.002c-0.552 0-1-0.448-1-1s0.448-1 1-1h1.002v-0.997c0-0.552 0.448-1 1-1z"></path>
</svg>
