<!-- Generated by IcoMoon.io -->
<svg version="1.1" xmlns="http://www.w3.org/2000/svg" width="32" height="32" viewBox="0 0 32 32">
<title>sanitize-regular</title>
<path d="M10.587 5.576l-4.345 4.343c-0.362 0.362-0.586 0.862-0.586 1.414s0.224 1.052 0.586 1.414l5.232 5.232c-0.401 0.582-0.675 1.281-0.767 2.036l-0.002 0.022-5.877-5.876c-0.724-0.724-1.172-1.724-1.172-2.829s0.448-2.105 1.172-2.829l4.347-4.343c0.724-0.724 1.724-1.171 2.828-1.171s2.104 0.448 2.828 1.171l4.595 4.593c-0.1 0.077-0.196 0.16-0.285 0.247-0.051-0.003-0.11-0.004-0.17-0.004-0.624 0-1.212 0.157-1.726 0.434l0.019-0.010-3.849-3.845c-0.362-0.362-0.862-0.586-1.415-0.586s-1.053 0.224-1.415 0.586v0zM19.687 10.429c-0.203-0.061-0.436-0.096-0.677-0.096-0.004 0-0.007 0-0.011 0h0.001c-1.461 0-2.328 1.2-2.328 2.333v4.896c-0.4-0.145-0.862-0.229-1.344-0.229h-0c-1.864 0-3.328 1.375-3.328 3.333 0 0.323 0.156 0.625 0.417 0.813l2.291 1.639 1.272 1.109c0.848 0.742 1.597 1.559 2.251 2.451l0.029 0.042 0.8 1.099c0.674 0.921 1.751 1.513 2.967 1.513h2.184c1.241 0 2.432-0.632 3.073-1.749 0.403-0.701 0.901-1.623 1.303-2.536 0.381-0.867 0.747-1.884 0.747-2.716v-8c0-1.137-0.877-2.332-2.333-2.332-0.147 0-0.287 0.013-0.423 0.036-0.256-0.909-1.056-1.701-2.244-1.701-0.243 0-0.473 0.033-0.685 0.096-0.404-0.662-1.122-1.098-1.943-1.098-0.014 0-0.027 0-0.041 0l0.002-0c-0.012-0-0.025-0-0.039-0-0.819 0-1.537 0.435-1.936 1.086l-0.006 0.010zM21.908 11.427c0.056 0.063 0.091 0.146 0.092 0.237v0.887c-0.001 0.020-0.001 0.043-0.001 0.067s0 0.047 0.001 0.070l-0-0.003v4.981c0 0.552 0.448 1 1 1s1-0.448 1-1v0-5.068c0.008-0.064 0.036-0.121 0.077-0.164l-0 0c0.060-0.062 0.144-0.101 0.237-0.101 0.007 0 0.013 0 0.020 0.001l-0.001-0c0.127 0 0.196 0.044 0.24 0.093 0.057 0.061 0.093 0.152 0.093 0.24v5.667c0 0.552 0.448 1 1 1s1-0.448 1-1v0-4c0-0.088 0.035-0.177 0.093-0.24 0.045-0.051 0.115-0.093 0.24-0.093s0.195 0.043 0.24 0.093c0.059 0.063 0.093 0.152 0.093 0.24v8c0 0.373-0.199 1.047-0.577 1.911-0.36 0.82-0.82 1.672-1.207 2.344-0.27 0.45-0.756 0.746-1.31 0.746-0.010 0-0.020-0-0.030-0l0.002 0h-2.184c-0.533 0-1.035-0.256-1.348-0.688l-0.797-1.099c-0.774-1.059-1.624-1.986-2.566-2.81l-0.020-0.017-1.309-1.141c-0.022-0.019-0.046-0.038-0.072-0.057l-0.003-0.002-1.844-1.32c0.165-0.545 0.635-0.867 1.261-0.867 0.849 0 1.453 0.533 1.656 0.712l0.040 0.036c0.173 0.148 0.4 0.238 0.648 0.238 0.552 0 1-0.448 1-1 0-0 0-0.001 0-0.001v0-6.652c0-0.089 0.036-0.18 0.093-0.24 0.043-0.049 0.109-0.093 0.235-0.093 0.127 0 0.196 0.045 0.24 0.093 0.057 0.061 0.093 0.152 0.093 0.24v5c0 0.552 0.448 1 1 1s1-0.448 1-1v0-6.003c0.001-0.092 0.036-0.175 0.094-0.238l-0 0c0.045-0.051 0.115-0.093 0.24-0.093s0.195 0.043 0.24 0.093zM5.667 18.667c0.552 0 1 0.448 1 1v0 0.996h0.995c0.552 0 1 0.448 1 1s-0.448 1-1 1v0h-0.995v1.008c0 0.552-0.448 1-1 1s-1-0.448-1-1v0-1.008h-1c-0.552 0-1-0.448-1-1s0.448-1 1-1v0h1.001v-0.997c0-0.552 0.448-1 1-1v0zM11 23.333c0.552 0 1 0.448 1 1v0 0.996h0.995c0.552 0 1 0.448 1 1s-0.448 1-1 1v0h-0.995v1.008c0 0.552-0.448 1-1 1s-1-0.448-1-1v0-1.008h-1c-0.552 0-1-0.448-1-1s0.448-1 1-1v0h1.001v-0.996c0-0.552 0.448-1 1-1v0z"></path>
</svg>
