<!-- Generated by IcoMoon.io -->
<svg version="1.1" xmlns="http://www.w3.org/2000/svg" width="32" height="32" viewBox="0 0 32 32">
<title>save</title>
<path d="M4 7.667c0-2.025 1.642-3.667 3.667-3.667h13.286c1.149 0 2.251 0.457 3.064 1.269l2.714 2.714c0.813 0.813 1.269 1.915 1.269 3.064v13.286c0 2.025-1.642 3.667-3.667 3.667h-16.667c-2.025 0-3.667-1.642-3.667-3.667v-16.667zM7.667 6c-0.92 0-1.667 0.746-1.667 1.667v16.667c0 0.921 0.746 1.667 1.667 1.667h0.333v-7c0-1.657 1.343-3 3-3h10c1.657 0 3 1.343 3 3v7h0.333c0.921 0 1.667-0.746 1.667-1.667v-13.286c0-0.619-0.246-1.212-0.683-1.65l-2.714-2.714c-0.347-0.347-0.792-0.573-1.269-0.652v3.635c0 1.657-1.343 3-3 3h-6c-1.657 0-3-1.343-3-3v-3.667h-1.667zM22 26v-7c0-0.552-0.448-1-1-1h-10c-0.552 0-1 0.448-1 1v7h12zM11.333 6v3.667c0 0.552 0.448 1 1 1h6c0.552 0 1-0.448 1-1v-3.667h-8z"></path>
</svg>
