<!-- Generated by IcoMoon.io -->
<svg version="1.1" xmlns="http://www.w3.org/2000/svg" width="32" height="32" viewBox="0 0 32 32">
<title>save-multiple</title>
<path d="M7.667 24c-2.025 0-3.667-1.642-3.667-3.667v-12.667c0-2.025 1.642-3.667 3.667-3.667h9.286c1.149 0 2.251 0.457 3.064 1.269l2.714 2.714c0.813 0.813 1.269 1.915 1.269 3.064v9.286c0 2.025-1.642 3.667-3.667 3.667h-12.667zM6 7.667v12.667c0 0.921 0.746 1.667 1.667 1.667h0.333v-4.333c0-1.657 1.343-3 3-3h6c1.657 0 3 1.343 3 3v4.333h0.333c0.921 0 1.667-0.746 1.667-1.667v-9.286c0-0.619-0.246-1.212-0.683-1.65l-2.65-2.65v1.586c0 1.657-1.343 3-3 3h-3.333c-1.657 0-3-1.343-3-3v-2.333h-1.667c-0.92 0-1.667 0.746-1.667 1.667zM18 22v-4.333c0-0.552-0.448-1-1-1h-6c-0.552 0-1 0.448-1 1v4.333h8zM11.333 8.333c0 0.552 0.448 1 1 1h3.333c0.552 0 1-0.448 1-1v-2.333h-5.333v2.333zM14.333 28c-1.822 0-3.463-0.769-4.619-2h11.952c2.393 0 4.333-1.94 4.333-4.333v-10.414l0.731 0.731c0.813 0.813 1.269 1.915 1.269 3.064v6.619c0 3.498-2.836 6.333-6.333 6.333h-7.333z"></path>
</svg>
