<!-- Generated by IcoMoon.io -->
<svg version="1.1" xmlns="http://www.w3.org/2000/svg" width="32" height="32" viewBox="0 0 32 32">
<title>save-multiple</title>
<path d="M8 23.68c-1.944 0-3.52-1.576-3.52-3.52v0-12.16c0-1.944 1.576-3.52 3.52-3.52v0h8.914c0 0 0.001 0 0.001 0 1.149 0 2.189 0.466 2.942 1.219l2.605 2.605c0.781 0.781 1.219 1.839 1.219 2.943v8.914c0 1.944-1.576 3.52-3.52 3.52v0h-12.16zM6.4 8v12.16c0 0.883 0.717 1.6 1.6 1.6h0.32v-4.16c0-1.591 1.289-2.88 2.88-2.88v0h5.76c1.591 0 2.88 1.289 2.88 2.88v0 4.16h0.32c0.883 0 1.6-0.717 1.6-1.6v-8.914c0-0.595-0.236-1.165-0.657-1.585l-2.543-2.543v1.522c0 1.591-1.289 2.88-2.88 2.88v0h-3.2c-1.591 0-2.88-1.289-2.88-2.88v0-2.24h-1.6c-0.883 0-1.6 0.717-1.6 1.6zM17.92 21.76v-4.16c0-0.53-0.43-0.96-0.96-0.96v0h-5.76c-0.53 0-0.96 0.43-0.96 0.96v0 4.16h7.68zM11.52 8.64c0 0.53 0.43 0.96 0.96 0.96h3.2c0.53 0 0.96-0.43 0.96-0.96v0-2.24h-5.12v2.24zM14.4 27.52c-0.002 0-0.005 0-0.007 0-1.745 0-3.318-0.737-4.424-1.917l-0.003-0.003h11.474c2.297 0 4.16-1.863 4.16-4.16v0-9.997l0.701 0.701c0.781 0.78 1.219 1.838 1.219 2.941v6.354c0 3.358-2.722 6.080-6.080 6.080v0h-7.040z"></path>
</svg>
