<!-- Generated by IcoMoon.io -->
<svg version="1.1" xmlns="http://www.w3.org/2000/svg" width="32" height="32" viewBox="0 0 32 32">
<title>save-search-regular</title>
<path d="M4.8 8c0-1.767 1.433-3.2 3.2-3.2v0h13.406c0.884 0 1.683 0.358 2.262 0.938l2.594 2.594c0.579 0.579 0.937 1.379 0.938 2.262v13.406c0 1.767-1.433 3.2-3.2 3.2v0h-4.606l-1.6-1.6h4.606v-7.2c0-0.442-0.358-0.8-0.8-0.8v0h-5.211c-0.415-0.614-0.899-1.142-1.449-1.59l-0.013-0.010h6.674c1.325 0 2.4 1.075 2.4 2.4v0 7.2c0.884 0 1.6-0.716 1.6-1.6v0-13.406c-0-0.442-0.179-0.842-0.469-1.131l-2.594-2.594c-0.289-0.29-0.689-0.469-1.131-0.469h-0.606v4c0 1.325-1.075 2.4-2.4 2.4v0h-6.4c-1.325 0-2.4-1.075-2.4-2.4v0-4h-1.6c-0.884 0-1.6 0.716-1.6 1.6v0 7.611c-0.615 0.415-1.142 0.899-1.59 1.449l-0.010 0.013v-9.074zM11.2 6.4v4c0 0.442 0.358 0.8 0.8 0.8v0h6.4c0.442 0 0.8-0.358 0.8-0.8v0-4h-8zM16 21.6c0 1.258-0.416 2.419-1.115 3.354l4.080 4.080c0.145 0.145 0.235 0.345 0.235 0.566 0 0.442-0.358 0.8-0.8 0.8-0.221 0-0.421-0.089-0.566-0.234v0l-4.080-4.080c-0.923 0.696-2.089 1.115-3.354 1.115-3.093 0-5.6-2.507-5.6-5.6s2.507-5.6 5.6-5.6c3.092 0 5.599 2.506 5.6 5.598v0zM6.4 21.6c0 2.209 1.791 4 4 4s4-1.791 4-4v0c0-2.209-1.791-4-4-4s-4 1.791-4 4v0z"></path>
</svg>
