<!-- Generated by IcoMoon.io -->
<svg version="1.1" xmlns="http://www.w3.org/2000/svg" width="32" height="32" viewBox="0 0 32 32">
<title>save-copy</title>
<path d="M27.328 7.502c1.168 0.41 2.005 1.523 2.005 2.831v13.333c0 3.13-2.537 5.667-5.667 5.667h-13.333c-1.308 0-2.421-0.837-2.831-2.005l2.796 0.005 13.368 0.001c2.025 0 3.667-1.642 3.667-3.667v-13.333l-0.005-0.068 0-2.763zM22.996 2.667c1.657 0 3 1.343 3 3v17.329c0 1.657-1.343 3-3 3h-17.329c-1.657 0-3-1.343-3-3v-17.329c0-1.657 1.343-3 3-3h17.329zM22.996 4.667h-17.329c-0.552 0-1 0.448-1 1v17.329c0 0.552 0.448 1 1 1h17.329c0.552 0 1-0.448 1-1v-17.329c0-0.552-0.448-1-1-1zM14.333 9c0.552 0 1 0.448 1 1v3.333h3.333c0.552 0 1 0.448 1 1s-0.448 1-1 1h-3.333v3.333c0 0.552-0.448 1-1 1s-1-0.448-1-1v-3.333h-3.333c-0.552 0-1-0.448-1-1s0.448-1 1-1h3.333v-3.333c0-0.552 0.448-1 1-1z"></path>
</svg>
