<!-- Generated by IcoMoon.io -->
<svg version="1.1" xmlns="http://www.w3.org/2000/svg" width="32" height="32" viewBox="0 0 32 32">
<title>save-edit</title>
<path d="M7.667 4c-2.025 0-3.667 1.642-3.667 3.667v16.667c0 2.025 1.642 3.667 3.667 3.667h5.665c-0.010-0.257 0.017-0.522 0.084-0.79l0.303-1.21h-3.718v-7c0-0.552 0.448-1 1-1h8.804l1.914-1.914c-0.23-0.056-0.47-0.086-0.718-0.086h-10c-1.657 0-3 1.343-3 3v7h-0.333c-0.92 0-1.667-0.746-1.667-1.667v-16.667c0-0.92 0.746-1.667 1.667-1.667h1.667v3.667c0 1.657 1.343 3 3 3h6c1.657 0 3-1.343 3-3v-3.635c0.478 0.079 0.922 0.305 1.269 0.652l2.714 2.714c0.438 0.438 0.683 1.031 0.683 1.65v2.295c0.095-0.006 0.189-0.009 0.284-0.009h0.003c0.583 0 1.167 0.117 1.713 0.349v-2.635c0-1.149-0.457-2.251-1.269-3.064l-2.714-2.714c-0.813-0.813-1.915-1.269-3.064-1.269h-13.286zM11.333 9.667v-3.667h8v3.667c0 0.552-0.448 1-1 1h-6c-0.552 0-1-0.448-1-1z"></path>
<path d="M26.287 14.667h-0.003c-0.779 0-1.559 0.298-2.154 0.893l-7.87 7.87c-0.459 0.459-0.784 1.034-0.942 1.663l-0.61 2.441c-0.265 1.061 0.696 2.023 1.758 1.758l2.441-0.61c0.63-0.157 1.205-0.483 1.663-0.942l7.87-7.87c1.19-1.19 1.19-3.12 0-4.31-0.595-0.595-1.374-0.892-2.153-0.893z"></path>
</svg>
