<!-- Generated by IcoMoon.io -->
<svg version="1.1" xmlns="http://www.w3.org/2000/svg" width="32" height="32" viewBox="0 0 32 32">
<title>save-edit</title>
<path d="M7.667 4c-2.025 0-3.667 1.642-3.667 3.667v0 16.667c0 2.025 1.642 3.667 3.667 3.667v0h5.665c-0.001-0.031-0.002-0.068-0.002-0.105 0-0.243 0.031-0.48 0.089-0.705l-0.004 0.020 0.303-1.209h-3.717v-7c0-0.552 0.448-1 1-1v0h8.804l1.913-1.913c-0.215-0.055-0.463-0.087-0.717-0.087-0 0-0 0-0 0h-10c-1.657 0-3 1.343-3 3v0 7h-0.333c-0.92 0-1.667-0.747-1.667-1.667v-16.667c0-0.92 0.747-1.667 1.667-1.667h1.667v3.667c0 1.657 1.343 3 3 3v0h6c1.657 0 3-1.343 3-3v0-3.636c0.477 0.080 0.923 0.307 1.269 0.653l2.713 2.713c0.439 0.437 0.684 1.031 0.684 1.651v2.295c0.093-0.007 0.189-0.009 0.284-0.009h0.003c0.583 0 1.167 0.116 1.713 0.348v-2.632c0-0 0-0.001 0-0.001 0-1.197-0.485-2.28-1.269-3.064l-2.713-2.713c-0.784-0.785-1.868-1.271-3.065-1.271h-13.285zM11.333 9.667v-3.667h8v3.667c0 0.552-0.448 1-1 1v0h-6c-0.552 0-1-0.448-1-1v0zM26.287 14.667h-0.003c-0.78 0-1.56 0.297-2.153 0.893l-7.869 7.869c-0.446 0.446-0.775 1.008-0.937 1.638l-0.005 0.025-0.611 2.441c-0.027 0.106-0.043 0.227-0.043 0.352 0 0.8 0.649 1.449 1.449 1.449 0.125 0 0.247-0.016 0.363-0.046l-0.010 0.002 2.44-0.609c0.655-0.167 1.218-0.496 1.664-0.943l7.869-7.869c0.552-0.552 0.894-1.314 0.894-2.156 0-1.683-1.364-3.047-3.047-3.047-0 0-0 0-0.001 0h0z"></path>
</svg>
