<!-- Generated by IcoMoon.io -->
<svg version="1.1" xmlns="http://www.w3.org/2000/svg" width="32" height="32" viewBox="0 0 32 32">
<title>savings</title>
<path d="M13.441 5.452c0.707 0.488 1.382 0.809 1.939 0.88-0.303 0.603-0.515 1.25-0.626 1.919-0.898-0.197-1.75-0.67-2.449-1.153-0.346-0.239-0.673-0.493-0.972-0.743v2.978c0 0.408-0.248 0.776-0.627 0.928l-0.008 0.003c-0.008 0.003-0.022 0.009-0.042 0.018-0.039 0.017-0.1 0.044-0.178 0.081-0.157 0.074-0.383 0.187-0.648 0.338-0.536 0.306-1.206 0.755-1.789 1.339-0.605 0.605-0.977 1.417-1.188 2.047-0.27 0.809-0.958 1.555-1.936 1.718-0.144 0.024-0.249 0.149-0.249 0.295v2.337c0 0.221 0.159 0.409 0.377 0.445 0.832 0.139 1.487 0.682 1.856 1.341 0.335 0.6 0.931 1.526 1.808 2.402 0.681 0.681 1.474 1.118 2.113 1.385 0.316 0.132 0.587 0.22 0.774 0.273 0.093 0.027 0.165 0.045 0.211 0.055 0.023 0.005 0.039 0.009 0.048 0.011l0.006 0.001 0.001 0c0.469 0.092 0.807 0.503 0.807 0.981v1.667c0 0.184 0.149 0.333 0.333 0.333h1.667c0-1.105 0.895-2 2-2h2.667c1.105 0 2 0.895 2 2h1.667c0.184 0 0.333-0.149 0.333-0.333v-3c0-0.377 0.213-0.722 0.549-0.893l0.018-0.009c0.019-0.010 0.050-0.028 0.094-0.054 0.087-0.051 0.218-0.134 0.379-0.251 0.324-0.234 0.762-0.598 1.201-1.111 0.87-1.015 1.759-2.624 1.759-5.016 0-1.342-0.251-2.427-0.678-3.317 0.477-0.633 0.837-1.346 1.064-2.101 0.132 0.181 0.258 0.369 0.376 0.565 0.806 1.331 1.238 2.937 1.238 4.854 0 2.941-1.111 4.999-2.241 6.317-0.561 0.654-1.122 1.123-1.549 1.431-0.074 0.054-0.145 0.103-0.211 0.147v2.438c0 1.289-1.045 2.333-2.333 2.333h-1.667c-1.105 0-2-0.895-2-2h-2.667c0 1.105-0.895 2-2 2h-1.667c-1.289 0-2.333-1.045-2.333-2.333v-0.91c-0.184-0.062-0.393-0.139-0.619-0.234-0.795-0.333-1.835-0.896-2.755-1.816-1.045-1.045-1.746-2.136-2.139-2.841-0.116-0.208-0.29-0.319-0.439-0.344-1.182-0.197-2.048-1.22-2.048-2.418v-2.337c0-1.124 0.812-2.083 1.921-2.267 0.116-0.019 0.287-0.134 0.368-0.378 0.256-0.768 0.754-1.912 1.671-2.829 0.75-0.75 1.58-1.301 2.211-1.661 0.182-0.104 0.349-0.193 0.496-0.268v-3.802c0-1.251 1.508-1.764 2.32-0.955 0.441 0.439 1.080 1.024 1.788 1.512z"></path>
<path d="M17.427 11.797c-0.653-0.271-1.205-0.784-1.336-1.479-0.459-2.429 0.828-4.928 3.201-5.912 2.721-1.127 5.841 0.165 6.969 2.886 0.983 2.374 0.126 5.051-1.916 6.444-0.584 0.399-1.337 0.372-1.991 0.102l-4.927-2.041zM23.285 12.037c1.226-0.883 1.73-2.524 1.127-3.979-0.705-1.701-2.655-2.508-4.355-1.804-1.455 0.603-2.259 2.12-2.016 3.611 0.008 0.006 0.017 0.013 0.029 0.021 0.031 0.021 0.072 0.043 0.122 0.064l4.927 2.041c0.050 0.021 0.094 0.034 0.131 0.041 0.013 0.003 0.025 0.004 0.035 0.006z"></path>
<path d="M12 13.333c0 0.736-0.597 1.333-1.333 1.333s-1.333-0.597-1.333-1.333c0-0.736 0.597-1.333 1.333-1.333s1.333 0.597 1.333 1.333z"></path>
</svg>
