<!-- Generated by IcoMoon.io -->
<svg version="1.1" xmlns="http://www.w3.org/2000/svg" width="32" height="32" viewBox="0 0 32 32">
<title>savings-regular</title>
<path d="M13.441 5.452c0.707 0.488 1.383 0.809 1.939 0.88-0.287 0.556-0.505 1.201-0.621 1.88l-0.006 0.040c-0.896-0.199-1.748-0.672-2.448-1.155-0.37-0.257-0.687-0.501-0.992-0.759l0.020 0.016v2.979c-0 0.417-0.257 0.775-0.62 0.924l-0.007 0.002-0.008 0.004c-0.097 0.039-0.169 0.072-0.241 0.107l0.019-0.009c-0.156 0.073-0.383 0.187-0.648 0.339-0.681 0.387-1.268 0.831-1.791 1.34l0.002-0.002c-0.604 0.604-0.977 1.417-1.187 2.048-0.271 0.808-0.959 1.553-1.937 1.717-0.142 0.024-0.249 0.146-0.249 0.293v2.339c0 0.22 0.16 0.408 0.377 0.444 0.832 0.139 1.487 0.683 1.856 1.341 0.517 0.916 1.116 1.705 1.808 2.404l-0.001-0.001c0.592 0.577 1.293 1.045 2.070 1.369l0.044 0.016c0.285 0.123 0.629 0.239 0.983 0.328l0.049 0.010 0.007 0.003c0.464 0.093 0.808 0.497 0.808 0.981v0 1.667c0 0.184 0.149 0.333 0.333 0.333h1.667c0-1.105 0.895-2 2-2v0h2.667c1.105 0 2 0.895 2 2v0h1.667c0.184 0 0.333-0.149 0.333-0.333v0-3c0-0.377 0.213-0.723 0.549-0.893l0.017-0.009c0.184-0.105 0.338-0.206 0.487-0.314l-0.015 0.010c0.324-0.235 0.763-0.599 1.203-1.112 0.869-1.013 1.759-2.623 1.759-5.015 0-1.343-0.251-2.427-0.679-3.317 0.455-0.599 0.819-1.298 1.051-2.054l0.013-0.047c0.133 0.181 0.259 0.369 0.376 0.564 0.805 1.332 1.239 2.939 1.239 4.853 0 2.943-1.111 5-2.24 6.319-0.514 0.597-1.092 1.117-1.73 1.556l-0.030 0.020v2.439c0 0 0 0.001 0 0.001 0 1.289-1.045 2.333-2.333 2.333h-1.667c-1.105 0-2-0.895-2-2v0h-2.667c0 1.105-0.895 2-2 2v0h-1.667c-1.289 0-2.333-1.045-2.333-2.333v0-0.911c-0.274-0.092-0.478-0.171-0.68-0.256l0.061 0.023c-1.070-0.446-1.984-1.060-2.756-1.817l0.001 0.001c-0.818-0.825-1.528-1.758-2.106-2.776l-0.034-0.065c-0.088-0.172-0.245-0.299-0.434-0.343l-0.004-0.001c-1.169-0.2-2.048-1.206-2.048-2.417v0-2.337c0-1.124 0.813-2.083 1.92-2.267 0.116-0.020 0.288-0.136 0.369-0.379 0.256-0.769 0.753-1.912 1.671-2.829 0.643-0.631 1.369-1.182 2.159-1.634l0.052-0.027c0.181-0.104 0.349-0.193 0.496-0.267v-3.804c0-1.251 1.507-1.764 2.32-0.955 0.44 0.439 1.080 1.023 1.788 1.512zM17.427 11.797c-0.653-0.271-1.205-0.785-1.336-1.48-0.056-0.29-0.088-0.623-0.088-0.964 0-2.947 2.389-5.336 5.336-5.336 2.202 0 4.093 1.334 4.908 3.238l0.013 0.035c0.257 0.604 0.407 1.306 0.407 2.043 0 1.82-0.912 3.428-2.304 4.391l-0.018 0.012c-0.584 0.399-1.337 0.372-1.991 0.101l-4.928-2.040zM23.285 12.037c0.835-0.614 1.371-1.592 1.371-2.696 0-1.842-1.494-3.336-3.336-3.336-0.455 0-0.888 0.091-1.283 0.256l0.022-0.008c-1.219 0.515-2.059 1.7-2.059 3.082 0 0.187 0.015 0.37 0.045 0.548l-0.003-0.019 0.028 0.021c0.035 0.023 0.076 0.045 0.118 0.062l0.005 0.002 4.928 2.040c0.048 0.021 0.103 0.037 0.161 0.046l0.004 0.001zM12 13.333c0 0.736-0.597 1.333-1.333 1.333s-1.333-0.597-1.333-1.333v0c0-0.736 0.597-1.333 1.333-1.333s1.333 0.597 1.333 1.333v0z"></path>
</svg>
