<!-- Generated by IcoMoon.io -->
<svg version="1.1" xmlns="http://www.w3.org/2000/svg" width="32" height="32" viewBox="0 0 32 32">
<title>scale-fill</title>
<path d="M8 9c0-0.552 0.448-1 1-1v0h3.333c0.552 0 1 0.448 1 1s-0.448 1-1 1v0h-0.92l2.293 2.293c0.196 0.183 0.318 0.443 0.318 0.732 0 0.552-0.448 1-1 1-0.289 0-0.549-0.122-0.731-0.318l-0.001-0.001-2.293-2.293v0.921c0 0.552-0.448 1-1 1s-1-0.448-1-1v0-3.335zM23 24.001c0.552 0 1-0.448 1-1v0-3.335c0-0.552-0.448-1-1-1s-1 0.448-1 1v0 0.92l-2.293-2.293c-0.178-0.166-0.418-0.268-0.682-0.268-0.552 0-1 0.448-1 1 0 0.264 0.102 0.504 0.269 0.682l-0.001-0.001 2.293 2.295h-0.92c-0.552 0-1 0.448-1 1s0.448 1 1 1v0h3.333zM23.707 8.295c0.189 0.187 0.293 0.44 0.293 0.707v3.333c0 0.552-0.448 1-1 1s-1-0.448-1-1v0-0.92l-2.293 2.293c-0.182 0.188-0.437 0.305-0.719 0.305-0.552 0-1-0.448-1-1 0-0.282 0.117-0.537 0.305-0.719l2.294-2.294h-0.92c-0.552 0-1-0.448-1-1s0.448-1 1-1v0h3.333c0.276 0 0.526 0.112 0.707 0.293v0zM8 23c0 0.552 0.448 1 1 1v0h3.335c0.552 0 1-0.448 1-1s-0.448-1-1-1v0h-0.92l2.293-2.293c0.174-0.18 0.28-0.424 0.28-0.694 0-0.552-0.448-1-1-1-0.27 0-0.515 0.107-0.695 0.281l0-0-2.293 2.293v-0.92c0-0.552-0.448-1-1-1s-1 0.448-1 1v0 3.333zM4 7c0-1.657 1.343-3 3-3v0h18c1.657 0 3 1.343 3 3v0 18c0 1.657-1.343 3-3 3v0h-18c-1.657 0-3-1.343-3-3v0-18zM7 6c-0.552 0-1 0.448-1 1v0 18c0 0.552 0.448 1 1 1h18c0.552 0 1-0.448 1-1v0-18c0-0.552-0.448-1-1-1v0h-18z"></path>
</svg>
