<!-- Generated by IcoMoon.io -->
<svg version="1.1" xmlns="http://www.w3.org/2000/svg" width="32" height="32" viewBox="0 0 32 32">
<title>scan-object</title>
<path d="M7 4.667c-1.289 0-2.333 1.045-2.333 2.333v4c0 0.552-0.448 1-1 1s-1-0.448-1-1v-4c0-2.393 1.94-4.333 4.333-4.333h4c0.552 0 1 0.448 1 1s-0.448 1-1 1h-4zM25 4.667c1.289 0 2.333 1.045 2.333 2.333v4c0 0.552 0.448 1 1 1s1-0.448 1-1v-4c0-2.393-1.94-4.333-4.333-4.333h-4c-0.552 0-1 0.448-1 1s0.448 1 1 1h4zM4.667 25c0 1.289 1.045 2.333 2.333 2.333h4c0.552 0 1 0.448 1 1s-0.448 1-1 1h-4c-2.393 0-4.333-1.94-4.333-4.333v-4c0-0.552 0.448-1 1-1s1 0.448 1 1v4zM25 27.333c1.289 0 2.333-1.045 2.333-2.333v-4c0-0.552 0.448-1 1-1s1 0.448 1 1v4c0 2.393-1.94 4.333-4.333 4.333h-4c-0.552 0-1-0.448-1-1s0.448-1 1-1h4zM18.426 10.969c-1.198-1.647-3.654-1.647-4.852 0l-4.073 5.6c-1.442 1.983-0.026 4.765 2.426 4.765h8.145c2.452 0 3.868-2.782 2.426-4.765l-4.072-5.6zM15.191 12.146c0.399-0.549 1.218-0.549 1.617 0l4.072 5.6c0.481 0.661 0.009 1.588-0.809 1.588h-8.145c-0.817 0-1.289-0.927-0.809-1.588l4.073-5.6z"></path>
</svg>
