<!-- Generated by IcoMoon.io -->
<svg version="1.1" xmlns="http://www.w3.org/2000/svg" width="32" height="32" viewBox="0 0 32 32">
<title>scan-qr-code-regular</title>
<path d="M4 8.333c0-2.393 1.94-4.333 4.333-4.333v0h2.667c0.552 0 1 0.448 1 1s-0.448 1-1 1v0h-2.667c-1.289 0-2.333 1.045-2.333 2.333v0 2.667c0 0.552-0.448 1-1 1s-1-0.448-1-1v0-2.667zM20 5c0-0.552 0.448-1 1-1v0h2.667c2.393 0 4.333 1.94 4.333 4.333v0 2.667c0 0.552-0.448 1-1 1s-1-0.448-1-1v0-2.667c0-1.289-1.045-2.333-2.333-2.333v0h-2.667c-0.552 0-1-0.448-1-1v0zM5 20c0.552 0 1 0.448 1 1v0 2.667c0 1.288 1.045 2.333 2.333 2.333h2.667c0.552 0 1 0.448 1 1s-0.448 1-1 1v0h-2.667c-2.393 0-4.333-1.94-4.333-4.333v0-2.667c0-0.552 0.448-1 1-1v0zM27 20c0.552 0 1 0.448 1 1v0 2.667c0 2.393-1.94 4.333-4.333 4.333v0h-2.667c-0.552 0-1-0.448-1-1s0.448-1 1-1v0h2.667c1.289 0 2.333-1.045 2.333-2.333v0-2.667c0-0.552 0.448-1 1-1v0zM13.333 9.333h-4v4h4v5.333h-4v4h4v-4h5.333v4h4v-4h-4v-5.333h4v-4h-4v4h-5.333v-4z"></path>
</svg>
