<!-- Generated by IcoMoon.io -->
<svg version="1.1" xmlns="http://www.w3.org/2000/svg" width="32" height="32" viewBox="0 0 32 32">
<title>scan-table</title>
<path d="M3.663 20c0.506 0 0.925 0.376 0.991 0.864l0.009 0.136v4.67l0.009 0.17c0.080 0.784 0.703 1.408 1.488 1.488l0.17 0.009h4.667l0.136 0.009c0.488 0.066 0.864 0.485 0.864 0.991s-0.376 0.925-0.864 0.991l-0.136 0.009h-4.667l-0.223-0.007c-1.844-0.111-3.321-1.585-3.436-3.428l-0.007-0.232v-4.67l0.009-0.136c0.066-0.488 0.485-0.864 0.991-0.864zM28.329 20c0.506 0 0.925 0.376 0.991 0.864l0.009 0.136v4.67c0 1.95-1.522 3.545-3.443 3.66l-0.223 0.007h-4.667c-0.552 0-1-0.448-1-1 0-0.506 0.376-0.925 0.864-0.991l0.136-0.009h4.667c0.863 0 1.573-0.656 1.658-1.496l0.009-0.17v-4.67c0-0.552 0.448-1 1-1zM20.333 8c1.95 0 3.545 1.522 3.66 3.443l0.007 0.223v8.667c0 1.95-1.522 3.545-3.443 3.66l-0.223 0.007h-8.667c-1.95 0-3.545-1.522-3.66-3.443l-0.007-0.223v-8.667c0-1.95 1.522-3.545 3.443-3.66l0.223-0.007h8.667zM22 14.66h-12v5.673c0 0.863 0.656 1.573 1.496 1.658l0.17 0.009h8.667c0.863 0 1.573-0.656 1.658-1.496l0.009-0.17v-5.673zM20.333 10h-8.667c-0.863 0-1.573 0.656-1.658 1.496l-0.009 0.17v0.993h12v-0.993c0-0.863-0.656-1.573-1.496-1.658l-0.17-0.009zM10.996 2.667c0.552 0 1 0.448 1 1 0 0.506-0.376 0.925-0.864 0.991l-0.136 0.009h-4.667c-0.863 0-1.573 0.656-1.658 1.496l-0.009 0.17v4.67c0 0.552-0.448 1-1 1-0.506 0-0.925-0.376-0.991-0.864l-0.009-0.136v-4.67c0-1.95 1.522-3.545 3.443-3.66l0.223-0.007h4.667zM25.663 2.667l0.223 0.007c1.844 0.111 3.321 1.585 3.436 3.428l0.007 0.232v4.67l-0.009 0.136c-0.066 0.488-0.485 0.864-0.991 0.864s-0.925-0.376-0.991-0.864l-0.009-0.136v-4.67l-0.009-0.17c-0.080-0.784-0.703-1.408-1.488-1.488l-0.17-0.009h-4.667l-0.136-0.009c-0.488-0.066-0.864-0.485-0.864-0.991s0.376-0.925 0.864-0.991l0.136-0.009h4.667z"></path>
</svg>
