<!-- Generated by IcoMoon.io -->
<svg version="1.1" xmlns="http://www.w3.org/2000/svg" width="32" height="32" viewBox="0 0 32 32">
<title>scan-thumb-up</title>
<path d="M4.667 7c0-1.289 1.045-2.333 2.333-2.333h4c0.552 0 1-0.448 1-1s-0.448-1-1-1h-4c-2.393 0-4.333 1.94-4.333 4.333v4c0 0.552 0.448 1 1 1s1-0.448 1-1v-4zM27.333 7c0-1.289-1.045-2.333-2.333-2.333h-4c-0.552 0-1-0.448-1-1s0.448-1 1-1h4c2.393 0 4.333 1.94 4.333 4.333v4c0 0.552-0.448 1-1 1s-1-0.448-1-1v-4zM7 27.333c-1.289 0-2.333-1.045-2.333-2.333v-4c0-0.552-0.448-1-1-1s-1 0.448-1 1v4c0 2.393 1.94 4.333 4.333 4.333h4c0.552 0 1-0.448 1-1s-0.448-1-1-1h-4zM27.333 25c0 1.289-1.045 2.333-2.333 2.333h-4c-0.552 0-1 0.448-1 1s0.448 1 1 1h4c2.393 0 4.333-1.94 4.333-4.333v-4c0-0.552-0.448-1-1-1s-1 0.448-1 1v4zM17.958 7.079c-1.487-0.386-2.553 0.666-2.906 1.487-0.251 0.585-0.471 0.992-0.754 1.519l-0.001 0.002c-0.176 0.326-0.375 0.696-0.611 1.165-0.489 0.971-0.965 1.569-1.283 1.905-0.16 0.168-0.283 0.273-0.351 0.327-0.016 0.013-0.030 0.023-0.040 0.030l-2.056 1.133c-1.353 0.745-1.992 2.34-1.407 3.793l0.584 1.451c0.364 0.906 1.142 1.575 2.076 1.849l6.016 1.764c1.971 0.578 4.149-0.446 4.771-2.422l1.532-4.872c0.653-2.078-1.033-3.988-3.109-3.988h-0.259c0.109-0.514 0.194-1.090 0.183-1.619-0.011-0.554-0.069-1.286-0.4-1.955-0.38-0.769-1.052-1.328-1.985-1.57zM10.921 16.399l2.065-1.137c0.029-0.015 0.057-0.031 0.085-0.048l0.002-0.001 0.010-0.007 0.017-0.011 0.026-0.018c0.041-0.028 0.098-0.069 0.168-0.125 0.14-0.111 0.333-0.279 0.56-0.518 0.454-0.478 1.043-1.238 1.619-2.383 0.223-0.444 0.411-0.792 0.587-1.118l0.005-0.009c0.283-0.525 0.538-0.999 0.826-1.668 0.043-0.099 0.137-0.219 0.253-0.292 0.096-0.060 0.19-0.082 0.314-0.050 0.392 0.102 0.582 0.291 0.694 0.52 0.128 0.26 0.183 0.623 0.193 1.111 0.009 0.425-0.090 0.994-0.232 1.558-0.064 0.254-0.134 0.5-0.203 0.722-0.095 0.304-0.039 0.634 0.149 0.89s0.487 0.407 0.805 0.407h1.555c0.922 0 1.393 0.78 1.201 1.388l-1.532 4.872c-0.264 0.839-1.273 1.404-2.3 1.103l-6.016-1.764c-0.384-0.113-0.662-0.375-0.783-0.677l-0.584-1.451c-0.182-0.453-0.010-1.005 0.516-1.295z"></path>
</svg>
