<!-- Generated by IcoMoon.io -->
<svg version="1.1" xmlns="http://www.w3.org/2000/svg" width="32" height="32" viewBox="0 0 32 32">
<title>scan-thumb-up-off-regular</title>
<path d="M26.131 27.31l1.78 1.779c0.15 0.145 0.354 0.234 0.579 0.234 0.46 0 0.833-0.373 0.833-0.833 0-0.225-0.089-0.429-0.234-0.579l-25-25c-0.151-0.151-0.359-0.244-0.589-0.244-0.46 0-0.833 0.373-0.833 0.833 0 0.23 0.093 0.438 0.244 0.589l1.78 1.78c-0.433 0.644-0.691 1.438-0.691 2.291 0 0.002 0 0.004 0 0.006v-0 4.333c0 0.46 0.373 0.833 0.833 0.833s0.833-0.373 0.833-0.833v0-4.333c0-0.386 0.087-0.751 0.243-1.078l6.94 6.94-0.067 0.103c-0.357 0.548-0.869 0.968-1.474 1.203l-0.021 0.007-0.837 0.318c-0.758 0.292-1.285 1.015-1.285 1.86 0 0.134 0.013 0.265 0.039 0.392l-0.002-0.013 0.457 2.339c0.18 0.894 0.853 1.593 1.718 1.808l0.016 0.003 5.489 1.337c0.285 0.073 0.613 0.114 0.95 0.114 1.226 0 2.324-0.551 3.059-1.418l0.005-0.006 4.013 4.013c-0.314 0.154-0.684 0.244-1.075 0.244-0.001 0-0.002 0-0.002 0h-4.333c-0.46 0-0.833 0.373-0.833 0.833s0.373 0.833 0.833 0.833v0h4.333c0.002 0 0.005 0 0.008 0 0.853 0 1.646-0.258 2.305-0.699l-0.015 0.009zM19.711 20.89c-0.431 0.575-1.111 0.943-1.876 0.943-0.198 0-0.39-0.025-0.573-0.071l0.016 0.003-5.489-1.337c-0.25-0.061-0.441-0.258-0.492-0.507l-0.001-0.004-0.457-2.339c-0.004-0.018-0.006-0.039-0.006-0.060 0-0.138 0.087-0.256 0.209-0.302l0.002-0.001 0.837-0.318c0.891-0.345 1.628-0.921 2.16-1.655l0.010-0.014 5.66 5.66zM14.695 11.159l1.207 1.207 0.191-0.297c0.217-0.337 0.304-0.769 0.358-1.065 0.027-0.144 0.047-0.272 0.067-0.393 0.031-0.192 0.059-0.366 0.101-0.555 0.067-0.297 0.136-0.456 0.192-0.532 0.004-0.005 0.010-0.012 0.015-0.019l0.001-0.002c0.003-0.003 0.009-0.003 0.020-0.002h0.015c0.134 0 0.311 0.061 0.497 0.387 0.193 0.341 0.333 0.889 0.333 1.587 0 0.56-0.173 1.306-0.467 2.215l1.144 1.144h1.631c0.147 0.003 0.287 0.015 0.425 0.035l-0.018-0.002c0.033 0.004 0.050 0.007 0.055 0.009 0.528 0.133 0.81 0.61 0.673 1.14l-0.323 1.262 1.369 1.369 0.569-2.216c0.363-1.415-0.448-2.808-1.879-3.171-0.131-0.031-0.288-0.056-0.448-0.069l-0.012-0.001c-0.121-0.012-0.264-0.021-0.409-0.023l-0.003-0h-0.888c0.148-0.589 0.247-1.165 0.247-1.693 0-0.887-0.173-1.743-0.551-2.409-0.387-0.681-1.041-1.231-1.946-1.231-0.616 0-1.083 0.283-1.39 0.697-0.271 0.365-0.4 0.809-0.479 1.16-0.037 0.155-0.083 0.402-0.123 0.652l-0.010 0.077c-0.017 0.107-0.033 0.205-0.048 0.285-0.024 0.139-0.050 0.255-0.083 0.368l0.006-0.024c-0.019 0.063-0.033 0.097-0.040 0.111zM26.333 22.798l1.625 1.625c0.026-0.177 0.041-0.381 0.041-0.588 0-0.001 0-0.001 0-0.002v0-4.333c0-0.46-0.373-0.833-0.833-0.833s-0.833 0.373-0.833 0.833v0 3.298zM7.577 4.041l1.625 1.625h3.298c0.46 0 0.833-0.373 0.833-0.833s-0.373-0.833-0.833-0.833v0h-4.333c-0.2 0-0.397 0.014-0.59 0.041zM28 8.167c0-2.301-1.865-4.167-4.167-4.167v0h-4.333c-0.46 0-0.833 0.373-0.833 0.833s0.373 0.833 0.833 0.833v0h4.333c1.381 0 2.5 1.119 2.5 2.5v0 4.333c0 0.46 0.373 0.833 0.833 0.833s0.833-0.373 0.833-0.833v0-4.333zM8.167 28c-2.301 0-4.167-1.865-4.167-4.167v0-4.333c0-0.46 0.373-0.833 0.833-0.833s0.833 0.373 0.833 0.833v0 4.333c0 1.381 1.119 2.5 2.5 2.5v0h4.333c0.46 0 0.833 0.373 0.833 0.833s-0.373 0.833-0.833 0.833v0h-4.333z"></path>
</svg>
