<!-- Generated by IcoMoon.io -->
<svg version="1.1" xmlns="http://www.w3.org/2000/svg" width="32" height="32" viewBox="0 0 32 32">
<title>scan-type-off-regular</title>
<path d="M3.862 4.994c-0.415 0.619-0.662 1.38-0.662 2.2 0 0.002 0 0.005 0 0.007v-0 3.2c0 0.442 0.358 0.8 0.8 0.8s0.8-0.358 0.8-0.8v0-3.2c0-0.371 0.083-0.72 0.234-1.035l10.166 10.166v6.069h-0.8c-0.442 0-0.8 0.358-0.8 0.8s0.358 0.8 0.8 0.8v0h3.2c0.442 0 0.8-0.358 0.8-0.8s-0.358-0.8-0.8-0.8v0h-0.8v-4.469l8.826 8.826c-0.464 0.279-1.023 0.443-1.621 0.443-0.002 0-0.003 0-0.005 0h-2.4c-0.442 0-0.8 0.358-0.8 0.8s0.358 0.8 0.8 0.8v0h2.4c0.003 0 0.006 0 0.010 0 1.040 0 2.002-0.333 2.785-0.898l-0.014 0.010 0.653 0.654c0.145 0.145 0.345 0.235 0.566 0.235 0.442 0 0.801-0.359 0.801-0.801 0-0.221-0.090-0.421-0.235-0.566v0l-0.654-0.653-23.346-23.347c-0.145-0.145-0.345-0.235-0.566-0.235-0.442 0-0.801 0.359-0.801 0.801 0 0.221 0.090 0.421 0.235 0.566v0l0.429 0.427zM28.8 24c0 0.43-0.056 0.848-0.163 1.243l-1.437-1.437v-2.206c0-0.442 0.358-0.8 0.8-0.8s0.8 0.358 0.8 0.8v0 2.4zM16.8 9.6v3.806l-1.6-1.6v-2.206h-2.206l-1.6-1.6h10.206c0.442 0 0.8 0.358 0.8 0.8v0 1.6c0 0.442-0.358 0.8-0.8 0.8s-0.8-0.358-0.8-0.8v0-0.8h-4zM10.4 4.8h-2.206l-1.56-1.56c0.186-0.027 0.374-0.040 0.566-0.040h3.2c0.442 0 0.8 0.358 0.8 0.8s-0.358 0.8-0.8 0.8v0zM8 27.2c-1.767 0-3.2-1.433-3.2-3.2v0-2.4c0-0.442-0.358-0.8-0.8-0.8s-0.8 0.358-0.8 0.8v0 2.4c0 2.651 2.149 4.8 4.8 4.8v0h2.4c0.442 0 0.8-0.358 0.8-0.8s-0.358-0.8-0.8-0.8v0h-2.4zM27.2 7.2c0-1.325-1.075-2.4-2.4-2.4v0h-3.2c-0.442 0-0.8-0.358-0.8-0.8s0.358-0.8 0.8-0.8v0h3.2c2.209 0 4 1.791 4 4v0 3.2c0 0.442-0.358 0.8-0.8 0.8s-0.8-0.358-0.8-0.8v0-3.2z"></path>
</svg>
