<!-- Generated by IcoMoon.io -->
<svg version="1.1" xmlns="http://www.w3.org/2000/svg" width="32" height="32" viewBox="0 0 32 32">
<title>scan-text</title>
<path d="M7.714 3.429c-2.367 0-4.286 1.919-4.286 4.286v0 4c0 0.473 0.384 0.857 0.857 0.857s0.857-0.384 0.857-0.857v0-4c0-1.42 1.151-2.571 2.571-2.571v0h4c0.473 0 0.857-0.384 0.857-0.857s-0.384-0.857-0.857-0.857v0h-4zM20.286 3.429c-0.473 0-0.857 0.384-0.857 0.857s0.384 0.857 0.857 0.857v0h4c1.42 0 2.571 1.151 2.571 2.571v0 4c0 0.473 0.384 0.857 0.857 0.857s0.857-0.384 0.857-0.857v0-4c0-2.367-1.919-4.286-4.286-4.286v0h-4zM5.143 20.286c0-0.473-0.384-0.857-0.857-0.857s-0.857 0.384-0.857 0.857v0 4c0 2.367 1.919 4.286 4.286 4.286v0h4c0.473 0 0.857-0.384 0.857-0.857s-0.384-0.857-0.857-0.857v0h-4c-1.42 0-2.571-1.151-2.571-2.571v0-4zM28.571 20.286c0-0.473-0.384-0.857-0.857-0.857s-0.857 0.384-0.857 0.857v0 4c0 1.42-1.151 2.571-2.571 2.571v0h-4c-0.473 0-0.857 0.384-0.857 0.857s0.384 0.857 0.857 0.857v0h4c2.367 0 4.286-1.919 4.286-4.286v0-4zM10 9.143c-0.473 0-0.857 0.384-0.857 0.857s0.384 0.857 0.857 0.857v0h12c0.473 0 0.857-0.384 0.857-0.857s-0.384-0.857-0.857-0.857v0h-12zM9.143 15.714c0-0.473 0.384-0.857 0.857-0.857v0h12c0.473 0 0.857 0.384 0.857 0.857s-0.384 0.857-0.857 0.857v0h-12c-0.473 0-0.857-0.384-0.857-0.857v0zM10 20.571c-0.473 0-0.857 0.384-0.857 0.857s0.384 0.857 0.857 0.857v0h6.286c0.473 0 0.857-0.384 0.857-0.857s-0.384-0.857-0.857-0.857v0h-6.286z"></path>
</svg>
