<!-- Generated by IcoMoon.io -->
<svg version="1.1" xmlns="http://www.w3.org/2000/svg" width="32" height="32" viewBox="0 0 32 32">
<title>scan-type-checkmark</title>
<path d="M7 4.667c-1.289 0-2.333 1.045-2.333 2.333v0 4c0 0.552-0.448 1-1 1s-1-0.448-1-1v0-4c0-2.393 1.94-4.333 4.333-4.333v0h4c0.552 0 1 0.448 1 1s-0.448 1-1 1v0h-4zM7 27.333c-1.289 0-2.333-1.045-2.333-2.333v0-4c0-0.552-0.448-1-1-1s-1 0.448-1 1v0 4c0 2.393 1.94 4.333 4.333 4.333v0h4c0.552 0 1-0.448 1-1s-0.448-1-1-1v0h-4zM27.333 7c0-1.289-1.045-2.333-2.333-2.333v0h-4c-0.552 0-1-0.448-1-1s0.448-1 1-1v0h4c2.393 0 4.333 1.94 4.333 4.333v0 4c0 0.552-0.448 1-1 1s-1-0.448-1-1v0-4zM10.333 8c-0.552 0-1 0.448-1 1v0 1.667c0 0.552 0.448 1 1 1s1-0.448 1-1v0-0.667h3.667v10.945c0.402-1.375 1.092-2.56 2.004-3.533l-0.004 0.005v-7.417h3.667v0.667c0 0.552 0.448 1 1 1s1-0.448 1-1v0-1.667c0-0.552-0.448-1-1-1v0h-11.333zM13 22h1.768c-0.065 0.4-0.102 0.86-0.102 1.33 0 0.236 0.009 0.47 0.028 0.701l-0.002-0.031h-1.692c-0.552 0-1-0.448-1-1s0.448-1 1-1v0zM30.667 23.333c0 4.050-3.283 7.333-7.333 7.333s-7.333-3.283-7.333-7.333v0c0-4.050 3.283-7.333 7.333-7.333s7.333 3.283 7.333 7.333v0zM27.805 20.195c-0.121-0.121-0.288-0.196-0.472-0.196s-0.351 0.075-0.472 0.196v0l-4.861 4.863-2.195-2.196c-0.121-0.121-0.288-0.195-0.472-0.195-0.369 0-0.668 0.299-0.668 0.668 0 0.184 0.075 0.351 0.195 0.472l2.667 2.667c0.121 0.121 0.288 0.196 0.472 0.196s0.351-0.075 0.472-0.196v0l5.333-5.333c0.121-0.121 0.196-0.288 0.196-0.472s-0.075-0.351-0.196-0.472v0z"></path>
</svg>
