<!-- Generated by IcoMoon.io -->
<svg version="1.1" xmlns="http://www.w3.org/2000/svg" width="32" height="32" viewBox="0 0 32 32">
<title>scan-type</title>
<path d="M7 4.667c-1.289 0-2.333 1.045-2.333 2.333v0 4c0 0.552-0.448 1-1 1s-1-0.448-1-1v0-4c0-2.393 1.94-4.333 4.333-4.333v0h4c0.552 0 1 0.448 1 1s-0.448 1-1 1v0h-4zM7 27.333c-1.289 0-2.333-1.045-2.333-2.333v0-4c0-0.552-0.448-1-1-1s-1 0.448-1 1v0 4c0 2.393 1.94 4.333 4.333 4.333v0h4c0.552 0 1-0.448 1-1s-0.448-1-1-1v0h-4zM27.333 7c0-1.289-1.045-2.333-2.333-2.333v0h-4c-0.552 0-1-0.448-1-1s0.448-1 1-1v0h4c2.393 0 4.333 1.94 4.333 4.333v0 4c0 0.552-0.448 1-1 1s-1-0.448-1-1v0-4zM25 27.333c1.289 0 2.333-1.045 2.333-2.333v0-4c0-0.552 0.448-1 1-1s1 0.448 1 1v0 4c0 2.393-1.94 4.333-4.333 4.333v0h-4c-0.552 0-1-0.448-1-1s0.448-1 1-1v0h4zM10.333 8c-0.552 0-1 0.448-1 1v0 1.667c0 0.552 0.448 1 1 1s1-0.448 1-1v0-0.667h3.667v12h-2c-0.552 0-1 0.448-1 1s0.448 1 1 1v0h6c0.552 0 1-0.448 1-1s-0.448-1-1-1v0h-2v-12h3.667v0.667c0 0.552 0.448 1 1 1s1-0.448 1-1v0-1.667c0-0.552-0.448-1-1-1v0h-11.333z"></path>
</svg>
