<!-- Generated by IcoMoon.io -->
<svg version="1.1" xmlns="http://www.w3.org/2000/svg" width="32" height="32" viewBox="0 0 32 32">
<title>scan</title>
<path d="M16 2.667c7.364 0 13.333 5.97 13.333 13.333s-5.97 13.333-13.333 13.333c-7.364 0-13.333-5.97-13.333-13.333s5.97-13.333 13.333-13.333zM20.334 19.11l-0.052 0.096-0.085 0.122-6.342 7.803c0.695 0.133 1.412 0.203 2.145 0.203 2.895 0 5.536-1.085 7.539-2.871l-2.779-6.054c-0.124 0.245-0.267 0.48-0.426 0.701zM5.987 21.314c1.249 2.348 3.3 4.205 5.787 5.205l4.214-5.186-0.254-0.007-0.175-0.011-9.572-0.001zM26.84 12.683h-6.664c0.109 0.137 0.211 0.279 0.306 0.426 0.033 0.036 0.063 0.076 0.090 0.119l0.065 0.119 0.052 0.109c0.115 0.211 0.216 0.431 0.302 0.658l4.021 8.759c1.456-1.907 2.322-4.289 2.322-6.874 0-1.154-0.173-2.268-0.493-3.317zM4.667 16c0 1.153 0.172 2.266 0.492 3.315h6.662c-0.109-0.137-0.211-0.28-0.307-0.428l-0.18-0.296-4.819-8.797c-1.169 1.783-1.849 3.915-1.849 6.206zM13.36 13.965l-0.059 0.096c-0.029 0.046-0.062 0.088-0.096 0.127-0.341 0.521-0.538 1.144-0.538 1.812 0 1.726 1.311 3.145 2.992 3.316h0.683c1.681-0.171 2.992-1.59 2.992-3.316 0-1.735-1.326-3.161-3.020-3.319l-0.497 0.003-0.077-0.007c-0.968 0.075-1.82 0.563-2.379 1.288zM16 4.667c-3.188 0-6.069 1.317-8.129 3.436l3.203 5.85c0.169-0.406 0.387-0.787 0.646-1.135l5.205-8.113c-0.305-0.025-0.614-0.037-0.925-0.037zM15.459 10.694c0.178-0.018 0.358-0.027 0.541-0.027 0.137 0 0.272 0.005 0.407 0.015l9.605 0.002c-1.377-2.588-3.728-4.579-6.565-5.483l-0.39-0.117-3.598 5.61z"></path>
</svg>
