<!-- Generated by IcoMoon.io -->
<svg version="1.1" xmlns="http://www.w3.org/2000/svg" width="32" height="32" viewBox="0 0 32 32">
<title>scan-dash-regular</title>
<path d="M8.167 4c-2.301 0-4.167 1.865-4.167 4.167v0 3.667c0 0.46 0.373 0.833 0.833 0.833s0.833-0.373 0.833-0.833v0-3.667c0-1.381 1.119-2.5 2.5-2.5v0h3.667c0.46 0 0.833-0.373 0.833-0.833s-0.373-0.833-0.833-0.833v0h-3.667zM20.167 4c-0.46 0-0.833 0.373-0.833 0.833s0.373 0.833 0.833 0.833v0h3.667c1.381 0 2.5 1.119 2.5 2.5v0 3.667c0 0.46 0.373 0.833 0.833 0.833s0.833-0.373 0.833-0.833v0-3.667c0-2.301-1.865-4.167-4.167-4.167v0h-3.667zM5.667 20.167c0-0.46-0.373-0.833-0.833-0.833s-0.833 0.373-0.833 0.833v0 3.667c0 2.301 1.865 4.167 4.167 4.167v0h3.667c0.46 0 0.833-0.373 0.833-0.833s-0.373-0.833-0.833-0.833v0h-3.667c-1.381 0-2.5-1.119-2.5-2.5v0-3.667zM28 20.167c0-0.46-0.373-0.833-0.833-0.833s-0.833 0.373-0.833 0.833v0 3.667c0 1.381-1.119 2.5-2.5 2.5v0h-3.667c-0.46 0-0.833 0.373-0.833 0.833s0.373 0.833 0.833 0.833v0h3.667c2.301 0 4.167-1.865 4.167-4.167v0-3.667zM9.333 15.167c-0.46 0-0.833 0.373-0.833 0.833s0.373 0.833 0.833 0.833v0h13.333c0.46 0 0.833-0.373 0.833-0.833s-0.373-0.833-0.833-0.833v0h-13.333z"></path>
</svg>
