<!-- Generated by IcoMoon.io -->
<svg version="1.1" xmlns="http://www.w3.org/2000/svg" width="32" height="32" viewBox="0 0 32 32">
<title>scan-camera-regular</title>
<path d="M4 8.167c0-2.301 1.865-4.167 4.167-4.167v0h3.667c0.46 0 0.833 0.373 0.833 0.833s-0.373 0.833-0.833 0.833v0h-3.667c-1.381 0-2.5 1.119-2.5 2.5v0 3.667c0 0.46-0.373 0.833-0.833 0.833s-0.833-0.373-0.833-0.833v0-3.667zM19.333 4.833c0-0.46 0.373-0.833 0.833-0.833h3.667c2.301 0 4.167 1.865 4.167 4.167v0 3.667c0 0.46-0.373 0.833-0.833 0.833s-0.833-0.373-0.833-0.833v0-3.667c0-1.381-1.119-2.5-2.5-2.5v0h-3.667c-0.46 0-0.833-0.373-0.833-0.833zM4.833 19.333c0.46 0 0.833 0.373 0.833 0.833v3.667c0 1.381 1.119 2.5 2.5 2.5v0h3.667c0.46 0 0.833 0.373 0.833 0.833s-0.373 0.833-0.833 0.833v0h-3.667c-2.301 0-4.167-1.865-4.167-4.167v0-3.667c0-0.46 0.373-0.833 0.833-0.833zM27.167 19.333c0.46 0 0.833 0.373 0.833 0.833v3.667c0 2.301-1.865 4.167-4.167 4.167v0h-3.667c-0.46 0-0.833-0.373-0.833-0.833s0.373-0.833 0.833-0.833v0h3.667c1.381 0 2.5-1.119 2.5-2.5v0-3.667c0-0.46 0.373-0.833 0.833-0.833zM18 16.333c0-1.105-0.895-2-2-2s-2 0.895-2 2v0c0 1.105 0.895 2 2 2s2-0.895 2-2v0zM18.577 10.409c-0.265-0.446-0.745-0.74-1.293-0.74-0 0-0 0-0 0h-2.535c-0.538 0-1.010 0.283-1.274 0.709l-0.004 0.006-0.583 0.949h-1.387c-1.197 0-2.167 0.97-2.167 2.167v0 6.333c0 1.197 0.97 2.167 2.167 2.167v0h9c1.197 0 2.167-0.97 2.167-2.167v0-6.333c0-1.197-0.97-2.167-2.167-2.167v0h-1.38l-0.543-0.925zM13 16.333c0-1.657 1.343-3 3-3s3 1.343 3 3v0c0 1.657-1.343 3-3 3s-3-1.343-3-3v0z"></path>
</svg>
