<!-- Generated by IcoMoon.io -->
<svg version="1.1" xmlns="http://www.w3.org/2000/svg" width="32" height="32" viewBox="0 0 32 32">
<title>scratchpad</title>
<path d="M23.711 2.676c1.657 0 2.956 1.334 2.956 2.991v5.327c-0.426-0.784-1.092-1.493-2-2.129v-3.189c0-0.552-0.403-1-0.956-1h-15.368c-0.552 0-1 0.448-1 1l-0.009 20.667c0 0.552 0.457 0.993 1.009 0.991l1.808-0c1.004 0.003 2.026 0.009 3.173 0.007l1.853-0.009c0.215 0 0.341 0.003 0.547 0.003l2.026-0.004c0.722 0.353 1.43 0.52 1.584 0.577-0.027 0.645 0.050 1.12 0.231 1.425h-4.783l-2.12 0.009c-1.545 0.001-2.889-0.009-4.319-0.009-1.657 0-3.009-1.334-3.009-2.991l0.009-20.667c0-1.657 1.343-3 3-3h15.368zM28.333 17.334c0.506 0 0.925 0.376 0.991 0.864l0.009 0.136v1c0 3.895-2.905 6.999-6.666 7.471l-0.001 1.529c0 0.552-0.448 1-1 1-0.506 0-0.925-0.376-0.991-0.864l-0.009-0.136 0.001-1.529c-3.66-0.459-6.51-3.41-6.661-7.157l-0.006-0.314v-1c0-0.552 0.448-1 1-1 0.506 0 0.925 0.376 0.991 0.864l0.009 0.136v1c0 3.13 2.537 5.533 5.667 5.533 3.035 0 5.512-2.26 5.66-5.251l0.007-0.283v-1c0-0.552 0.448-1 1-1zM21.667 9.334c2.393 0 4.333 1.94 4.333 4.333v5.333c0 2.393-1.94 4.333-4.333 4.333s-4.333-1.94-4.333-4.333v-5.333c0-2.393 1.94-4.333 4.333-4.333zM21.667 11.334c-1.289 0-2.333 1.045-2.333 2.333v5.333c0 1.289 1.045 2.333 2.333 2.333s2.333-1.045 2.333-2.333v-5.333c0-1.289-1.045-2.333-2.333-2.333zM12.887 17.334c-0.049 0.048-0.1 0.159-0.154 0.333-0.043 0.139-0.066 0.338-0.068 0.596l-0 1.071h-1.665c-0.552 0-1-0.448-1-1 0-0.506 0.376-0.925 0.864-0.991l0.136-0.009h1.887zM11 13.334h5.005l-0.010 2h-4.995c-0.552 0-1-0.448-1-1 0-0.506 0.376-0.925 0.864-0.991l0.136-0.009zM18 9.334c-0.412 0.352-0.701 0.641-0.867 0.867-0.118 0.161-0.266 0.4-0.442 0.716l-0.225 0.417h-5.467c-0.552 0-1-0.448-1-1 0-0.506 0.376-0.925 0.864-0.991l0.136-0.009h7z"></path>
</svg>
