<!-- Generated by IcoMoon.io -->
<svg version="1.1" xmlns="http://www.w3.org/2000/svg" width="32" height="32" viewBox="0 0 32 32">
<title>screenshot</title>
<path d="M23 4c2.761 0 5 2.239 5 5v14c0 2.761-2.239 5-5 5h-14c-2.761 0-5-2.239-5-5v-14c0-2.761 2.239-5 5-5h14zM23 6h-14c-1.657 0-3 1.343-3 3v14c0 1.657 1.343 3 3 3h14c1.657 0 3-1.343 3-3v-14c0-1.657-1.343-3-3-3zM23 17.333c0.552 0 1 0.448 1 1v3c0 1.473-1.194 2.667-2.667 2.667h-3c-0.552 0-1-0.448-1-1s0.448-1 1-1h3c0.368 0 0.667-0.299 0.667-0.667v-3c0-0.552 0.448-1 1-1zM9 17.333c0.552 0 1 0.448 1 1v3c0 0.368 0.298 0.667 0.667 0.667h3c0.552 0 1 0.448 1 1s-0.448 1-1 1h-3c-1.473 0-2.667-1.194-2.667-2.667v-3c0-0.552 0.448-1 1-1zM10.667 8h3c0.552 0 1 0.448 1 1 0 0.506-0.376 0.925-0.864 0.991l-0.136 0.009h-3c-0.327 0-0.599 0.236-0.656 0.547l-0.011 0.12v3c0 0.552-0.448 1-1 1-0.506 0-0.925-0.376-0.991-0.864l-0.009-0.136v-3c0-1.406 1.088-2.558 2.468-2.659l0.199-0.007zM21.333 8c1.473 0 2.667 1.194 2.667 2.667v3c0 0.552-0.448 1-1 1s-1-0.448-1-1v-3c0-0.368-0.299-0.667-0.667-0.667h-3c-0.552 0-1-0.448-1-1s0.448-1 1-1h3z"></path>
</svg>
