<!-- Generated by IcoMoon.io -->
<svg version="1.1" xmlns="http://www.w3.org/2000/svg" width="32" height="32" viewBox="0 0 32 32">
<title>search-square</title>
<path d="M23.667 4c2.393 0 4.333 1.94 4.333 4.333v15.333c0 2.393-1.94 4.333-4.333 4.333h-15.333c-2.393 0-4.333-1.94-4.333-4.333v-15.333c0-2.393 1.94-4.333 4.333-4.333h15.333zM23.667 6h-15.333c-1.289 0-2.333 1.045-2.333 2.333v15.333c0 1.289 1.045 2.333 2.333 2.333h15.333c1.289 0 2.333-1.045 2.333-2.333v-15.333c0-1.289-1.045-2.333-2.333-2.333zM14.667 9.667c2.761 0 5 2.239 5 5 0 1.019-0.305 1.967-0.828 2.757l3.202 3.203c0.391 0.391 0.391 1.024 0 1.414-0.355 0.355-0.911 0.387-1.302 0.097l-0.112-0.097-3.203-3.202c-0.79 0.523-1.738 0.828-2.757 0.828-2.761 0-5-2.239-5-5s2.239-5 5-5zM14.667 11.667c-1.657 0-3 1.343-3 3s1.343 3 3 3c1.657 0 3-1.343 3-3s-1.343-3-3-3z"></path>
</svg>
