<!-- Generated by IcoMoon.io -->
<svg version="1.1" xmlns="http://www.w3.org/2000/svg" width="32" height="32" viewBox="0 0 32 32">
<title>search-settings</title>
<path d="M13.6 4.8c4.86 0 8.8 3.94 8.8 8.8 0 2.149-0.77 4.118-2.050 5.646l0.011-0.014 6.603 6.602c0.146 0.145 0.236 0.345 0.236 0.567 0 0.442-0.358 0.8-0.8 0.8-0.171 0-0.329-0.053-0.459-0.145l0.003 0.002-0.11-0.091-6.603-6.603c-0.544 0.454-1.146 0.843-1.792 1.157-0.117-0.597-0.274-1.121-0.477-1.622l0.021 0.058c2.288-1.237 3.815-3.617 3.815-6.355 0-3.976-3.224-7.2-7.2-7.2s-7.2 3.224-7.2 7.2c0 0.39 0.031 0.773 0.091 1.146l-0.005-0.041c-0.528 0.144-1.040 0.336-1.523 0.573-0.103-0.505-0.162-1.086-0.162-1.68 0-4.86 3.94-8.8 8.8-8.8 0.001 0 0.001 0 0.002 0h-0zM4.904 18.307c0.076 0.259 0.119 0.557 0.119 0.865 0 1.486-1.012 2.735-2.385 3.095l-0.022 0.005-0.739 0.189c-0.023 0.222-0.036 0.479-0.036 0.739 0 0.312 0.019 0.62 0.056 0.923l-0.004-0.036 0.56 0.133c1.423 0.345 2.464 1.608 2.464 3.114 0 0.327-0.049 0.642-0.14 0.939l0.006-0.023-0.203 0.675c0.413 0.326 0.859 0.605 1.336 0.829l0.52-0.55c0.585-0.618 1.411-1.003 2.326-1.003 0.917 0 1.745 0.386 2.328 1.005l0.001 0.002 0.539 0.573c0.467-0.216 0.909-0.483 1.315-0.797l-0.25-0.89c-0.076-0.26-0.119-0.558-0.119-0.866 0-1.486 1.012-2.735 2.385-3.095l0.022-0.005 0.736-0.187c0.023-0.222 0.036-0.479 0.036-0.74 0-0.313-0.019-0.621-0.056-0.924l0.004 0.036-0.557-0.131c-1.423-0.345-2.464-1.608-2.464-3.114 0-0.327 0.049-0.643 0.14-0.94l-0.006 0.023 0.202-0.674c-0.388-0.31-0.827-0.587-1.295-0.812l-0.041-0.018-0.52 0.55c-0.585 0.619-1.411 1.004-2.327 1.004s-1.744-0.386-2.327-1.004l-0.001-0.002-0.539-0.573c-0.501 0.234-0.932 0.499-1.329 0.807l0.016-0.012 0.25 0.891zM8.798 24.8c-0.884 0-1.6-0.716-1.6-1.6s0.716-1.6 1.6-1.6v0c0.884 0 1.6 0.716 1.6 1.6s-0.716 1.6-1.6 1.6v0z"></path>
</svg>
