<!-- Generated by IcoMoon.io -->
<svg version="1.1" xmlns="http://www.w3.org/2000/svg" width="32" height="32" viewBox="0 0 32 32">
<title>search-visual-regular</title>
<path d="M23.667 4c2.393 0 4.333 1.94 4.333 4.333v0 4c0 0.552-0.448 1-1 1s-1-0.448-1-1v0-4c0-1.289-1.045-2.333-2.333-2.333v0h-4c-0.552 0-1-0.448-1-1s0.448-1 1-1v0h4zM8.333 4c-2.393 0-4.333 1.94-4.333 4.333v0 4c0 0.552 0.448 1 1 1s1-0.448 1-1v0-4c0-1.288 1.045-2.333 2.333-2.333h4c0.552 0 1-0.448 1-1s-0.448-1-1-1v0h-4zM23.667 28c2.393 0 4.333-1.94 4.333-4.333v0-4c0-0.552-0.448-1-1-1s-1 0.448-1 1v0 4c0 1.289-1.045 2.333-2.333 2.333v0h-4c-0.552 0-1 0.448-1 1s0.448 1 1 1v0h4zM4 23.667c0 2.393 1.94 4.333 4.333 4.333v0h4c0.552 0 1-0.448 1-1s-0.448-1-1-1v0h-4c-1.289 0-2.333-1.045-2.333-2.333v0-4c0-0.552-0.448-1-1-1s-1 0.448-1 1v0 4zM16 20c2.209 0 4-1.791 4-4s-1.791-4-4-4v0c-2.209 0-4 1.791-4 4s1.791 4 4 4v0zM16 18c-1.105 0-2-0.895-2-2s0.895-2 2-2v0c1.105 0 2 0.895 2 2s-0.895 2-2 2v0zM10 11.333c0.736 0 1.333-0.597 1.333-1.333s-0.597-1.333-1.333-1.333v0c-0.736 0-1.333 0.597-1.333 1.333s0.597 1.333 1.333 1.333v0z"></path>
</svg>
