<!-- Generated by IcoMoon.io -->
<svg version="1.1" xmlns="http://www.w3.org/2000/svg" width="32" height="32" viewBox="0 0 32 32">
<title>search-info</title>
<path d="M13.333 12c0.552 0 1 0.448 1 1v4.667c0 0.552-0.448 1-1 1s-1-0.448-1-1v-4.667c0-0.552 0.448-1 1-1z"></path>
<path d="M13.333 10.667c0.736 0 1.333-0.597 1.333-1.333s-0.597-1.333-1.333-1.333c-0.736 0-1.333 0.597-1.333 1.333s0.597 1.333 1.333 1.333z"></path>
<path d="M13.333 3.667c5.339 0 9.667 4.328 9.667 9.667 0 2.309-0.81 4.429-2.161 6.092l6.534 6.535c0.391 0.391 0.391 1.024 0 1.414-0.355 0.355-0.911 0.387-1.302 0.097l-0.112-0.097-6.535-6.534c-1.663 1.351-3.783 2.161-6.092 2.161-5.339 0-9.667-4.328-9.667-9.667s4.328-9.667 9.667-9.667zM13.333 5.667c-4.234 0-7.667 3.432-7.667 7.667s3.432 7.667 7.667 7.667c4.234 0 7.667-3.433 7.667-7.667s-3.433-7.667-7.667-7.667z"></path>
</svg>
