<!-- Generated by IcoMoon.io -->
<svg version="1.1" xmlns="http://www.w3.org/2000/svg" width="32" height="32" viewBox="0 0 32 32">
<title>search-shield</title>
<path d="M13.6 4.8c0 0 0.001 0 0.002 0 4.86 0 8.8 3.94 8.8 8.8 0 2.149-0.77 4.118-2.050 5.646l0.011-0.014 6.603 6.602c0.146 0.145 0.236 0.345 0.236 0.567 0 0.442-0.358 0.8-0.8 0.8-0.171 0-0.329-0.053-0.459-0.145l0.003 0.002-0.112-0.091-6.602-6.603c-0.907 0.761-1.988 1.348-3.173 1.692l-0.062 0.015 0.003-0.336v-1.344c2.816-1.022 4.791-3.674 4.791-6.787 0-3.974-3.218-7.196-7.19-7.203h-0.001c-0 0-0.001 0-0.001 0-3.934 0-7.131 3.155-7.199 7.074l-0 0.006-0.005 0.006c-0.444 0.472-0.944 0.882-1.492 1.223l-0.031 0.018c-0.046-0.339-0.073-0.73-0.073-1.128 0-4.86 3.94-8.8 8.8-8.8 0 0 0 0 0.001 0h-0zM11.2 16.555c-0.611-0.263-1.137-0.576-1.617-0.946l0.017 0.013c-0.422-0.323-0.796-0.66-1.142-1.023l-0.004-0.004c-0.114-0.12-0.275-0.195-0.453-0.195s-0.339 0.075-0.453 0.195l-0 0c-1.592 1.658-3.352 2.472-5.309 2.472-0.352 0-0.64 0.298-0.64 0.666v4.002l0.006 0.426c0.043 1.275 0.278 2.422 0.704 3.44 0.55 1.299 1.402 2.379 2.47 3.186l0.019 0.014c0.838 0.64 1.84 1.163 3 1.566 0.131 0.045 0.272 0.045 0.403 0 4.096-1.424 6.197-4.341 6.197-8.632v-4l-0.013-0.136c-0.057-0.301-0.315-0.526-0.627-0.531h-0.001c-0.010 0-0.021 0-0.033 0-0.913 0-1.781-0.188-2.569-0.528l0.042 0.016z"></path>
</svg>
