<!-- Generated by IcoMoon.io -->
<svg version="1.1" xmlns="http://www.w3.org/2000/svg" width="32" height="32" viewBox="0 0 32 32">
<title>search-info</title>
<path d="M13.333 12c0.552 0 1 0.448 1 1v0 4.667c0 0.552-0.448 1-1 1s-1-0.448-1-1v0-4.667c0-0.552 0.448-1 1-1v0zM13.333 10.667c0.736 0 1.333-0.597 1.333-1.333s-0.597-1.333-1.333-1.333v0c-0.736 0-1.333 0.597-1.333 1.333s0.597 1.333 1.333 1.333v0zM13.333 3.667c0 0 0.001 0 0.001 0 5.339 0 9.667 4.328 9.667 9.667 0 2.317-0.815 4.444-2.175 6.109l0.014-0.017 6.533 6.533c0.182 0.181 0.295 0.432 0.295 0.709 0 0.552-0.448 1-1 1-0.225 0-0.432-0.074-0.599-0.199l0.003 0.002-0.112-0.097-6.535-6.533c-1.648 1.345-3.774 2.16-6.091 2.16-5.339 0-9.667-4.328-9.667-9.667s4.327-9.666 9.665-9.667h0zM13.333 5.667c-4.234 0-7.667 3.432-7.667 7.667s3.432 7.667 7.667 7.667v0c4.234 0 7.667-3.432 7.667-7.667s-3.432-7.667-7.667-7.667v0z"></path>
</svg>
