<!-- Generated by IcoMoon.io -->
<svg version="1.1" xmlns="http://www.w3.org/2000/svg" width="32" height="32" viewBox="0 0 32 32">
<title>search</title>
<path d="M13.333 4c-5.155 0-9.333 4.179-9.333 9.333s4.179 9.333 9.333 9.333c2.277 0 4.364-0.815 5.984-2.171l7.26 7.26c0.151 0.151 0.359 0.244 0.589 0.244 0.46 0 0.833-0.373 0.833-0.833 0-0.23-0.093-0.439-0.244-0.589v0l-7.26-7.26c1.35-1.603 2.171-3.691 2.171-5.97 0-0.005 0-0.010 0-0.014v0.001c0-5.155-4.179-9.333-9.333-9.333zM5.667 13.333c0-4.234 3.433-7.667 7.667-7.667s7.667 3.433 7.667 7.667-3.433 7.667-7.667 7.667-7.667-3.433-7.667-7.667z"></path>
</svg>
