<!-- Generated by IcoMoon.io -->
<svg version="1.1" xmlns="http://www.w3.org/2000/svg" width="32" height="32" viewBox="0 0 32 32">
<title>select-all-on</title>
<path d="M27.328 7.503c1.178 0.423 2.005 1.53 2.005 2.83 0 0 0 0 0 0v-0 13.333c0 3.13-2.537 5.667-5.667 5.667v0h-13.333c-0 0-0 0-0 0-1.3 0-2.408-0.827-2.824-1.984l-0.007-0.021 2.796 0.005h13.368c2.025 0 3.667-1.642 3.667-3.667v0-13.333l-0.005-0.068v-2.763zM22.995 2.667c1.657 0 3 1.343 3 3v0 17.329c0 1.657-1.343 3-3 3v0h-17.328c-1.657 0-3-1.343-3-3v0-17.329c0-1.657 1.343-3 3-3v0h17.329zM22.995 4.667h-17.328c-0.552 0-1 0.448-1 1v0 17.329c0 0.552 0.448 1 1 1h17.329c0.552 0 1-0.448 1-1v0-17.329c0-0.552-0.448-1-1-1v0zM12.775 15.144l5.185-5.184c0.181-0.179 0.43-0.29 0.704-0.29 0.552 0 1 0.448 1 1 0 0.223-0.073 0.428-0.196 0.594l0.002-0.003-0.097 0.112-6 6c-0.181 0.181-0.431 0.292-0.707 0.292-0.273 0-0.521-0.11-0.701-0.287l0 0-0.099-0.112-2-2.667c-0.126-0.165-0.201-0.375-0.201-0.602 0-0.552 0.448-1 1-1 0.275 0 0.523 0.111 0.704 0.29l-0-0 0.097 0.112 1.308 1.744 5.185-5.184-5.187 5.184z"></path>
</svg>
