<!-- Generated by IcoMoon.io -->
<svg version="1.1" xmlns="http://www.w3.org/2000/svg" width="32" height="32" viewBox="0 0 32 32">
<title>select-all-on</title>
<path d="M27.328 7.502c1.168 0.41 2.005 1.523 2.005 2.831v13.333c0 3.13-2.537 5.667-5.667 5.667h-13.333c-1.308 0-2.421-0.837-2.831-2.005l2.796 0.005 13.368 0.001c2.025 0 3.667-1.642 3.667-3.667v-13.333l-0.005-0.068 0-2.763zM22.996 2.667c1.657 0 3 1.343 3 3v17.329c0 1.657-1.343 3-3 3h-17.329c-1.657 0-3-1.343-3-3v-17.329c0-1.657 1.343-3 3-3h17.329zM22.996 4.667h-17.329c-0.552 0-1 0.448-1 1v17.329c0 0.552 0.448 1 1 1h17.329c0.552 0 1-0.448 1-1v-17.329c0-0.552-0.448-1-1-1zM12.775 15.144l5.185-5.185c0.391-0.391 1.024-0.391 1.414 0 0.355 0.355 0.387 0.911 0.097 1.302l-0.097 0.112-6 6c-0.394 0.395-1.025 0.385-1.409 0.005l-0.098-0.113-2-2.667c-0.331-0.442-0.242-1.069 0.2-1.4 0.402-0.301 0.956-0.255 1.303 0.088l0.097 0.112 1.308 1.744z"></path>
</svg>
