<!-- Generated by IcoMoon.io -->
<svg version="1.1" xmlns="http://www.w3.org/2000/svg" width="32" height="32" viewBox="0 0 32 32">
<title>select-object-skew-edit</title>
<path d="M25.176 8.878c0.426 0.288 0.939 0.455 1.491 0.455 0.095 0 0.19-0.005 0.283-0.015 1.34-0.141 2.384-1.275 2.384-2.652 0-1.473-1.194-2.667-2.667-2.667-1.119 0-2.077 0.689-2.473 1.667-0.011 0.027-0.022 0.055-0.032 0.083-0.105 0.286-0.162 0.595-0.162 0.917 0 0.354 0.069 0.691 0.194 1 0.177 0.437 0.466 0.816 0.832 1.102 0.049 0.038 0.098 0.074 0.15 0.109zM2.667 25.333c0 1.473 1.194 2.667 2.667 2.667 1.119 0 2.077-0.689 2.473-1.667 0.125-0.309 0.194-0.646 0.194-1 0-0.322-0.057-0.631-0.162-0.917-0.010-0.028-0.021-0.056-0.032-0.083-0.177-0.437-0.466-0.816-0.832-1.102-0.452-0.354-1.022-0.564-1.641-0.564-0.092 0-0.183 0.005-0.273 0.014-1.345 0.137-2.394 1.272-2.394 2.653zM9.176 8.878c0.426 0.288 0.939 0.455 1.491 0.455 0.095 0 0.19-0.005 0.283-0.015 0.996-0.105 1.828-0.758 2.19-1.652 0.011-0.027 0.022-0.055 0.032-0.083 0.105-0.286 0.162-0.595 0.162-0.917 0-0.354-0.069-0.691-0.194-1-0.396-0.977-1.354-1.667-2.473-1.667-1.473 0-2.667 1.194-2.667 2.667 0 0.854 0.402 1.614 1.026 2.103 0.049 0.038 0.098 0.074 0.15 0.109zM5.436 21.335l3.205-11.218c0.567 0.333 1.223 0.531 1.923 0.549l-3.205 11.218c-0.567-0.333-1.223-0.531-1.923-0.549zM22.793 7.667h-8.252c0.082-0.32 0.126-0.655 0.126-1s-0.044-0.68-0.126-1h8.252c-0.082 0.32-0.126 0.655-0.126 1s0.044 0.68 0.126 1zM15.361 26.102c0.161-0.643 0.449-1.244 0.846-1.769h-6.999c0.082 0.32 0.126 0.655 0.126 1s-0.044 0.68-0.126 1h6.096l0.058-0.231zM26.564 10.665l-1.349 4.72c-0.245 0.161-0.477 0.349-0.692 0.565l-2.169 2.169 2.286-8.002c0.567 0.333 1.223 0.531 1.923 0.549zM25.467 16.893l-7.87 7.87c-0.459 0.459-0.784 1.034-0.942 1.663l-0.61 2.441c-0.265 1.061 0.696 2.023 1.758 1.758l2.441-0.61c0.629-0.157 1.204-0.483 1.663-0.942l7.87-7.87c1.19-1.19 1.19-3.12 0-4.31s-3.12-1.19-4.31 0z"></path>
</svg>
