<!-- Generated by IcoMoon.io -->
<svg version="1.1" xmlns="http://www.w3.org/2000/svg" width="32" height="32" viewBox="0 0 32 32">
<title>select-object-skew-dismiss</title>
<path d="M25.176 8.878c0.426 0.288 0.939 0.455 1.491 0.455 0.095 0 0.19-0.005 0.283-0.015 1.34-0.141 2.384-1.275 2.384-2.652 0-1.473-1.194-2.667-2.667-2.667-1.119 0-2.077 0.689-2.473 1.667-0.011 0.027-0.022 0.055-0.032 0.083-0.105 0.286-0.162 0.595-0.162 0.917 0 0.354 0.069 0.691 0.194 1 0.177 0.437 0.466 0.816 0.832 1.103 0.049 0.038 0.098 0.074 0.15 0.109zM2.667 25.333c0 1.473 1.194 2.667 2.667 2.667 1.119 0 2.077-0.689 2.473-1.667 0.125-0.309 0.194-0.646 0.194-1 0-0.322-0.057-0.631-0.162-0.917-0.010-0.028-0.021-0.056-0.032-0.083-0.177-0.437-0.466-0.816-0.832-1.102-0.452-0.354-1.022-0.564-1.641-0.564-0.092 0-0.183 0.005-0.273 0.014-1.345 0.137-2.394 1.272-2.394 2.653zM9.176 8.878c0.426 0.288 0.939 0.455 1.491 0.455 0.095 0 0.19-0.005 0.283-0.015 0.996-0.105 1.828-0.758 2.19-1.652 0.011-0.027 0.022-0.055 0.032-0.083 0.105-0.286 0.162-0.595 0.162-0.917 0-0.354-0.069-0.691-0.194-1-0.396-0.977-1.354-1.667-2.473-1.667-1.473 0-2.667 1.194-2.667 2.667 0 0.854 0.402 1.614 1.026 2.103 0.049 0.038 0.098 0.074 0.15 0.109zM5.436 21.335l3.205-11.218c0.567 0.333 1.223 0.531 1.923 0.549l-3.205 11.218c-0.567-0.333-1.223-0.531-1.923-0.549zM22.793 7.667h-8.252c0.082-0.32 0.126-0.655 0.126-1s-0.044-0.68-0.126-1h8.252c-0.082 0.32-0.126 0.655-0.126 1s0.044 0.68 0.126 1zM15.2 26.333c-0.234-0.635-0.396-1.305-0.476-2h-5.516c0.082 0.32 0.126 0.655 0.126 1s-0.044 0.68-0.126 1h5.993zM26.564 10.665l-1.211 4.238c-0.646-0.154-1.32-0.236-2.012-0.237l1.3-4.55c0.567 0.333 1.223 0.531 1.923 0.549zM30.667 23.333c0 4.050-3.283 7.333-7.333 7.333s-7.333-3.283-7.333-7.333c0-4.050 3.283-7.333 7.333-7.333s7.333 3.283 7.333 7.333zM21.138 20.195c-0.26-0.26-0.683-0.26-0.943 0s-0.26 0.683 0 0.943l2.195 2.195-2.195 2.195c-0.26 0.26-0.26 0.683 0 0.943s0.683 0.26 0.943 0l2.195-2.195 2.195 2.195c0.26 0.26 0.683 0.26 0.943 0s0.26-0.683 0-0.943l-2.195-2.195 2.195-2.195c0.26-0.26 0.26-0.683 0-0.943s-0.683-0.26-0.943 0l-2.195 2.195-2.195-2.195z"></path>
</svg>
