<!-- Generated by IcoMoon.io -->
<svg version="1.1" xmlns="http://www.w3.org/2000/svg" width="32" height="32" viewBox="0 0 32 32">
<title>select-object</title>
<path d="M9.333 6.667c0 1.473-1.194 2.667-2.667 2.667s-2.667-1.194-2.667-2.667c0-1.473 1.194-2.667 2.667-2.667s2.667 1.194 2.667 2.667z"></path>
<path d="M10.667 6.333c0 0.552 0.448 1 1 1h8.667c0.552 0 1-0.448 1-1s-0.448-1-1-1h-8.667c-0.552 0-1 0.448-1 1z"></path>
<path d="M6.333 10.667c-0.552 0-1 0.448-1 1v8.667c0 0.552 0.448 1 1 1s1-0.448 1-1v-8.667c0-0.552-0.448-1-1-1z"></path>
<path d="M25.667 10.667c-0.552 0-1 0.448-1 1v8.667c0 0.552 0.448 1 1 1s1-0.448 1-1v-8.667c0-0.552-0.448-1-1-1z"></path>
<path d="M11.667 26.667c-0.552 0-1-0.448-1-1s0.448-1 1-1h8.667c0.552 0 1 0.448 1 1s-0.448 1-1 1h-8.667z"></path>
<path d="M6.667 28c1.473 0 2.667-1.194 2.667-2.667s-1.194-2.667-2.667-2.667c-1.473 0-2.667 1.194-2.667 2.667s1.194 2.667 2.667 2.667z"></path>
<path d="M28 6.667c0 1.473-1.194 2.667-2.667 2.667s-2.667-1.194-2.667-2.667c0-1.473 1.194-2.667 2.667-2.667s2.667 1.194 2.667 2.667z"></path>
<path d="M25.333 28c1.473 0 2.667-1.194 2.667-2.667s-1.194-2.667-2.667-2.667c-1.473 0-2.667 1.194-2.667 2.667s1.194 2.667 2.667 2.667z"></path>
</svg>
