<!-- Generated by IcoMoon.io -->
<svg version="1.1" xmlns="http://www.w3.org/2000/svg" width="32" height="32" viewBox="0 0 32 32">
<title>send-copy</title>
<path d="M26.333 15.333c0.504 0 0.921 0.373 0.99 0.859l0.001 0.005 0.009 0.136v6.667c-0 3.396-2.673 6.168-6.030 6.326l-0.014 0.001-0.289 0.007h-10c-1.307 0-2.417-0.835-2.829-2l13.075-0.007c2.199-0.129 3.951-1.881 4.079-4.068l0.001-0.012 0.008-0.247v-6.667c0-0.552 0.448-1 1-1v0zM23 12.667c0.504 0 0.921 0.373 0.99 0.859l0.001 0.005 0.009 0.136v9.333c0 0 0 0 0 0 0 1.585-1.229 2.882-2.785 2.992l-0.010 0.001-0.205 0.007h-13.333c-0 0-0 0-0 0-1.585 0-2.882-1.229-2.992-2.785l-0.001-0.010-0.007-0.205v-9.333c0-0.552 0.448-1 1-1 0.504 0 0.921 0.373 0.99 0.858l0.001 0.005 0.009 0.136v9.333c0 0.507 0.376 0.925 0.864 0.991l0.136 0.009h13.333c0.504-0 0.921-0.373 0.99-0.859l0.001-0.005 0.009-0.136v-9.333c0-0.552 0.448-1 1-1v0zM8.291 8.288l5.331-5.328c0.181-0.181 0.431-0.293 0.707-0.293 0.224 0 0.43 0.073 0.597 0.198l-0.003-0.002 0.112 0.096 5.339 5.329c0.182 0.181 0.295 0.432 0.295 0.709 0 0.552-0.448 1-1 1-0.225 0-0.432-0.074-0.599-0.199l0.003 0.002-0.112-0.097-3.627-3.619v12.923c-0 0.504-0.373 0.921-0.859 0.99l-0.005 0.001-0.136 0.009c-0.504-0-0.921-0.373-0.99-0.859l-0.001-0.005-0.009-0.136v-12.932l-3.628 3.628c-0.181 0.181-0.431 0.293-0.707 0.293-0.224 0-0.431-0.074-0.598-0.199l0.003 0.002-0.112-0.096c-0.181-0.181-0.293-0.431-0.293-0.707 0-0.224 0.074-0.431 0.199-0.598l-0.002 0.003 0.096-0.112z"></path>
</svg>
