<!-- Generated by IcoMoon.io -->
<svg version="1.1" xmlns="http://www.w3.org/2000/svg" width="32" height="32" viewBox="0 0 32 32">
<title>send</title>
<path d="M7.591 16l-4.526-11.638c-0.315-0.81 0.475-1.585 1.256-1.309l0.123 0.052 24 12c0.691 0.346 0.734 1.292 0.13 1.712l-0.13 0.077-24 12c-0.777 0.389-1.622-0.326-1.42-1.129l0.041-0.127 4.526-11.637zM5.869 6.054l3.479 8.945 8.837 0.001c0.506 0 0.925 0.376 0.991 0.864l0.009 0.136c0 0.506-0.376 0.925-0.864 0.991l-0.136 0.009-8.837-0.001-3.479 8.947 19.892-9.946-19.892-9.946z"></path>
</svg>
