<!-- Generated by IcoMoon.io -->
<svg version="1.1" xmlns="http://www.w3.org/2000/svg" width="32" height="32" viewBox="0 0 32 32">
<title>send-clock-regular</title>
<path d="M7.592 16l-4.527-11.64c-0.315-0.809 0.475-1.584 1.256-1.308l0.124 0.052 24 12c0.331 0.168 0.553 0.506 0.553 0.896 0 0.227-0.076 0.437-0.203 0.605l0.002-0.003c-1.473-1.207-3.376-1.938-5.45-1.938-0.087 0-0.173 0.001-0.259 0.004l0.013-0-17.232-8.615 3.48 8.947h8.836c0.46 0 0.847 0.31 0.964 0.733l0.002 0.007c-0.659 0.368-1.227 0.786-1.738 1.264l0.005-0.004h-8.069l-3.479 8.947 9.004-4.503c-0.132 0.567-0.207 1.219-0.207 1.888 0 0.157 0.004 0.312 0.012 0.467l-0.001-0.022-10.232 5.117c-0.777 0.388-1.623-0.327-1.42-1.131l0.040-0.127 4.527-11.637z"></path>
<path d="M30.667 23.333c0-4.050-3.283-7.333-7.333-7.333s-7.333 3.283-7.333 7.333v0c0 4.050 3.283 7.333 7.333 7.333s7.333-3.283 7.333-7.333v0zM23.333 23.333h2.667c0.368 0 0.667 0.298 0.667 0.667s-0.298 0.667-0.667 0.667v0h-3.333c-0.368 0-0.667-0.298-0.667-0.667v0-4c0-0.368 0.298-0.667 0.667-0.667s0.667 0.298 0.667 0.667v0 3.333z"></path>
</svg>
