<!-- Generated by IcoMoon.io -->
<svg version="1.1" xmlns="http://www.w3.org/2000/svg" width="32" height="32" viewBox="0 0 32 32">
<title>send-clock</title>
<path d="M7.591 16l-4.526-11.638c-0.315-0.81 0.475-1.585 1.256-1.309l0.123 0.052 24 12c0.591 0.295 0.708 1.030 0.352 1.5-1.491-1.212-3.392-1.939-5.463-1.939-0.078 0-0.155 0.001-0.232 0.003l-17.232-8.616 3.479 8.945 8.837 0.001c0.463 0 0.852 0.314 0.966 0.741-0.63 0.348-1.212 0.772-1.734 1.259l-8.069-0.001-3.479 8.947 9.004-4.502c-0.135 0.608-0.207 1.24-0.207 1.889 0 0.149 0.004 0.297 0.011 0.445l-10.233 5.116c-0.777 0.389-1.622-0.326-1.42-1.129l0.041-0.127 4.526-11.638zM30.667 23.333c0-4.050-3.283-7.333-7.333-7.333s-7.333 3.283-7.333 7.333c0 4.050 3.283 7.333 7.333 7.333s7.333-3.283 7.333-7.333zM23.333 23.333h2.667c0.368 0 0.667 0.298 0.667 0.667s-0.299 0.667-0.667 0.667h-3.333c-0.368 0-0.667-0.299-0.667-0.667v-4c0-0.368 0.299-0.667 0.667-0.667s0.667 0.299 0.667 0.667v3.334z"></path>
</svg>
