<!-- Generated by IcoMoon.io -->
<svg version="1.1" xmlns="http://www.w3.org/2000/svg" width="32" height="32" viewBox="0 0 32 32">
<title>send-copy</title>
<path d="M26.333 15.333c0.506 0 0.925 0.376 0.991 0.864l0.009 0.136v6.667c0 3.401-2.68 6.175-6.043 6.327l-0.29 0.007h-10c-1.306 0-2.417-0.835-2.829-2l13.075-0.007c2.197-0.123 3.958-1.883 4.081-4.081l0.007-0.246v-6.667c0-0.552 0.448-1 1-1zM23 12.667c0.506 0 0.925 0.376 0.991 0.864l0.009 0.136v9.333c0 1.588-1.234 2.887-2.795 2.993l-0.205 0.007h-13.333c-1.588 0-2.888-1.234-2.993-2.795l-0.007-0.205v-9.333c0-0.552 0.448-1 1-1 0.506 0 0.925 0.376 0.991 0.864l0.009 0.136v9.333c0 0.506 0.376 0.925 0.864 0.991l0.136 0.009h13.333c0.506 0 0.925-0.376 0.991-0.864l0.009-0.136v-9.333c0-0.552 0.448-1 1-1zM8.291 8.288l5.33-5.329c0.355-0.355 0.91-0.387 1.301-0.097l0.112 0.097 5.338 5.329c0.391 0.39 0.391 1.023 0.001 1.414-0.355 0.355-0.91 0.388-1.302 0.098l-0.112-0.097-3.626-3.619v12.923c0 0.506-0.376 0.925-0.864 0.991l-0.136 0.009c-0.506 0-0.925-0.376-0.991-0.864l-0.009-0.136v-12.932l-3.628 3.628c-0.355 0.355-0.911 0.387-1.302 0.097l-0.112-0.097c-0.355-0.355-0.387-0.911-0.097-1.302l0.097-0.112z"></path>
</svg>
