<!-- Generated by IcoMoon.io -->
<svg version="1.1" xmlns="http://www.w3.org/2000/svg" width="32" height="32" viewBox="0 0 32 32">
<title>serial-port</title>
<path d="M9.333 15.333c0.552 0 1-0.448 1-1s-0.448-1-1-1v0c-0.552 0-1 0.448-1 1s0.448 1 1 1v0zM13.667 14.333c0 0.552-0.448 1-1 1s-1-0.448-1-1v0c0-0.552 0.448-1 1-1s1 0.448 1 1v0zM11 18.667c0.552 0 1-0.448 1-1s-0.448-1-1-1v0c-0.552 0-1 0.448-1 1s0.448 1 1 1v0zM15.333 17.667c0 0.552-0.448 1-1 1s-1-0.448-1-1v0c0-0.552 0.448-1 1-1s1 0.448 1 1v0zM17.667 18.667c0.552 0 1-0.448 1-1s-0.448-1-1-1v0c-0.552 0-1 0.448-1 1s0.448 1 1 1v0zM22 17.667c0 0.552-0.448 1-1 1s-1-0.448-1-1v0c0-0.552 0.448-1 1-1s1 0.448 1 1v0zM16 15.333c0.552 0 1-0.448 1-1s-0.448-1-1-1v0c-0.552 0-1 0.448-1 1s0.448 1 1 1v0zM20.333 14.333c0 0.552-0.448 1-1 1s-1-0.448-1-1v0c0-0.552 0.448-1 1-1s1 0.448 1 1v0zM22.667 15.333c0.552 0 1-0.448 1-1s-0.448-1-1-1v0c-0.552 0-1 0.448-1 1s0.448 1 1 1v0zM6.543 9.332c-2.025 0-3.666 1.642-3.666 3.667 0 0.301 0.036 0.594 0.105 0.874l-0.005-0.025 1.428 6.001c0.397 1.628 1.843 2.817 3.567 2.817 0.001 0 0.002 0 0.003 0h16.051c0 0 0 0 0 0 1.723 0 3.168-1.188 3.561-2.79l0.005-0.025 1.432-6.003c0.063-0.255 0.1-0.548 0.1-0.849 0-2.025-1.641-3.666-3.666-3.667h-18.915zM4.921 13.385c-0.029-0.116-0.045-0.249-0.045-0.387 0-0.92 0.746-1.667 1.667-1.667 0 0 0 0 0 0h18.912c0 0 0 0 0 0 0.92 0 1.667 0.746 1.667 1.667 0 0.137-0.017 0.271-0.048 0.398l0.002-0.011-1.432 6.003c-0.181 0.74-0.838 1.28-1.621 1.28-0 0-0 0-0 0h-16.049c-0.784-0-1.441-0.541-1.619-1.27l-0.002-0.011-1.432-6.001z"></path>
</svg>
