<!-- Generated by IcoMoon.io -->
<svg version="1.1" xmlns="http://www.w3.org/2000/svg" width="32" height="32" viewBox="0 0 32 32">
<title>server-multiple</title>
<path d="M12 8c-0.442 0-0.8 0.358-0.8 0.8s0.358 0.8 0.8 0.8v0h8c0.442 0 0.8-0.358 0.8-0.8s-0.358-0.8-0.8-0.8v0h-8zM11.2 20c0-0.442 0.358-0.8 0.8-0.8v0h8c0.442 0 0.8 0.358 0.8 0.8s-0.358 0.8-0.8 0.8v0h-8c-0.442 0-0.8-0.358-0.8-0.8v0zM12 22.4c-0.442 0-0.8 0.358-0.8 0.8s0.358 0.8 0.8 0.8v0h8c0.442 0 0.8-0.358 0.8-0.8s-0.358-0.8-0.8-0.8v0h-8zM8 7.2c0-2.209 1.791-4 4-4v0h8c2.209 0 4 1.791 4 4v0 0.8h1.6c1.767 0 3.2 1.433 3.2 3.2v0 11.2c0 1.767-1.433 3.2-3.2 3.2v0h-1.68c-0.385 1.839-1.993 3.2-3.919 3.2-0 0-0.001 0-0.001 0h-8c-0 0-0.001 0-0.001 0-1.926 0-3.534-1.361-3.915-3.174l-0.005-0.026h-1.68c-1.767 0-3.2-1.433-3.2-3.2v0-11.2c0-1.767 1.433-3.2 3.2-3.2v0h1.6v-0.8zM24 24h1.6c0.884 0 1.6-0.716 1.6-1.6v0-11.2c0-0.884-0.716-1.6-1.6-1.6v0h-1.6v14.4zM8 9.6h-1.6c-0.884 0-1.6 0.716-1.6 1.6v0 11.2c0 0.884 0.716 1.6 1.6 1.6v0h1.6v-14.4zM12 4.8c-1.325 0-2.4 1.075-2.4 2.4v0 17.6c0 1.325 1.075 2.4 2.4 2.4v0h8c1.325 0 2.4-1.075 2.4-2.4v0-17.6c0-1.325-1.075-2.4-2.4-2.4v0h-8z"></path>
</svg>
