<!-- Generated by IcoMoon.io -->
<svg version="1.1" xmlns="http://www.w3.org/2000/svg" width="32" height="32" viewBox="0 0 32 32">
<title>server-play-regular</title>
<path d="M22.4 14.435v-7.235c0-1.325-1.075-2.4-2.4-2.4v0h-8c-1.325 0-2.4 1.075-2.4 2.4v0 17.6c0 1.325 1.075 2.4 2.4 2.4v0h3.36c0.293 0.573 0.646 1.109 1.051 1.6h-4.411c-2.209 0-4-1.791-4-4v0-17.6c0-2.209 1.791-4 4-4v0h8c2.209 0 4 1.791 4 4v0 7.235c-0.24-0.023-0.518-0.036-0.8-0.036s-0.56 0.013-0.835 0.039l0.035-0.003zM12 8c-0.442 0-0.8 0.358-0.8 0.8s0.358 0.8 0.8 0.8v0h8c0.442 0 0.8-0.358 0.8-0.8s-0.358-0.8-0.8-0.8v0h-8zM11.2 20c0-0.442 0.358-0.8 0.8-0.8v0h3.36c-0.238 0.454-0.453 0.985-0.613 1.538l-0.015 0.062h-2.731c-0.442 0-0.8-0.358-0.8-0.8v0zM14.4 23.2c0-0.269 0.013-0.536 0.035-0.8h-2.435c-0.442 0-0.8 0.358-0.8 0.8s0.358 0.8 0.8 0.8v0h2.435c-0.022-0.237-0.035-0.513-0.035-0.791 0-0.003 0-0.006 0-0.009v0zM30.4 23.2c0 3.976-3.224 7.2-7.2 7.2s-7.2-3.224-7.2-7.2v0c0-3.976 3.224-7.2 7.2-7.2s7.2 3.224 7.2 7.2v0zM26.741 22.501l-4.752-2.64c-0.112-0.063-0.246-0.101-0.389-0.101-0.442 0-0.8 0.358-0.8 0.8 0 0 0 0 0 0v0 5.28c0 0 0 0 0 0 0 0.442 0.358 0.8 0.8 0.8 0.143 0 0.277-0.037 0.393-0.103l-0.004 0.002 4.752-2.64c0.247-0.139 0.411-0.4 0.411-0.699s-0.164-0.56-0.407-0.697l-0.004-0.002z"></path>
</svg>
