<!-- Generated by IcoMoon.io -->
<svg version="1.1" xmlns="http://www.w3.org/2000/svg" width="32" height="32" viewBox="0 0 32 32">
<title>server</title>
<path d="M12.333 8c-0.552 0-1 0.448-1 1s0.448 1 1 1h7.333c0.552 0 1-0.448 1-1s-0.448-1-1-1h-7.333zM11.333 23.667c0-0.552 0.448-1 1-1h7.333c0.552 0 1 0.448 1 1s-0.448 1-1 1h-7.333c-0.552 0-1-0.448-1-1zM12.333 18.667c-0.552 0-1 0.448-1 1s0.448 1 1 1h7.333c0.552 0 1-0.448 1-1s-0.448-1-1-1h-7.333zM8 6.667c0-2.209 1.791-4 4-4h8c2.209 0 4 1.791 4 4v18.667c0 2.209-1.791 4-4 4h-8c-2.209 0-4-1.791-4-4v-18.667zM12 4.667c-1.105 0-2 0.895-2 2v18.667c0 1.105 0.895 2 2 2h8c1.105 0 2-0.895 2-2v-18.667c0-1.105-0.895-2-2-2h-8z"></path>
</svg>
