<!-- Generated by IcoMoon.io -->
<svg version="1.1" xmlns="http://www.w3.org/2000/svg" width="32" height="32" viewBox="0 0 32 32">
<title>settings-chat</title>
<path d="M16.017 3c0.979 0.011 1.953 0.124 2.908 0.337 0.414 0.095 0.727 0.438 0.776 0.861l0 0.005 0.227 2.036c0.106 0.928 0.887 1.641 1.834 1.641 0.266 0 0.52-0.056 0.748-0.158l-0.012 0.005 1.867-0.82c0.119-0.054 0.257-0.085 0.403-0.085 0.288 0 0.547 0.122 0.73 0.316l0 0.001c1.308 1.395 2.317 3.087 2.913 4.964l0.025 0.092c0.028 0.088 0.045 0.19 0.045 0.296 0 0.329-0.159 0.62-0.403 0.803l-0.003 0.002-1.656 1.221c-0.199 0.148-0.364 0.329-0.489 0.537l-0.005 0.008c-0.595-0.193-1.286-0.327-2.001-0.375l-0.026-0.001c0.27-0.729 0.732-1.335 1.324-1.774l0.010-0.007 1.063-0.783c-0.459-1.184-1.065-2.206-1.812-3.108l0.015 0.018-1.195 0.524c-0.454 0.204-0.984 0.323-1.542 0.323-1.974 0-3.601-1.488-3.82-3.404l-0.002-0.018-0.147-1.301c-0.529-0.091-1.143-0.147-1.769-0.156l-0.008-0c-0.644 0.008-1.269 0.064-1.878 0.166l0.071-0.010-0.145 1.303c-0.221 1.935-1.849 3.423-3.825 3.423-0.557 0-1.087-0.118-1.565-0.332l0.024 0.010-1.197-0.525c-0.732 0.883-1.339 1.905-1.771 3.014l-0.026 0.075 1.064 0.783c0.955 0.707 1.567 1.83 1.567 3.095s-0.612 2.388-1.556 3.088l-0.010 0.007-1.064 0.784c0.427 1.123 1.033 2.168 1.796 3.096l1.208-0.529c0.453-0.203 0.981-0.321 1.538-0.321 1.97 0 3.594 1.483 3.817 3.394l0.002 0.018 0.144 1.312c0.419 0.071 0.84 0.116 1.263 0.137l0.013 0.032-0.587 1.933c-0.688-0.061-1.313-0.167-1.92-0.315l0.087 0.018c-0.408-0.099-0.714-0.439-0.762-0.858l-0-0.005-0.227-2.032c-0.109-0.923-0.887-1.633-1.831-1.633-0.266 0-0.518 0.056-0.746 0.157l0.012-0.005-1.876 0.821c-0.118 0.053-0.256 0.084-0.401 0.084-0.288 0-0.548-0.122-0.73-0.317l-0.001-0.001c-1.308-1.397-2.317-3.091-2.912-4.969l-0.025-0.093c-0.029-0.089-0.045-0.191-0.045-0.297 0-0.329 0.159-0.621 0.404-0.803l0.003-0.002 1.659-1.221c0.458-0.339 0.752-0.877 0.752-1.484s-0.294-1.145-0.747-1.48l-0.005-0.004-1.657-1.219c-0.248-0.184-0.407-0.476-0.407-0.806 0-0.106 0.016-0.207 0.047-0.303l-0.002 0.007c0.622-1.969 1.631-3.661 2.947-5.063l-0.007 0.007c0.183-0.195 0.442-0.316 0.73-0.316 0.146 0 0.284 0.031 0.408 0.087l-0.006-0.003 1.867 0.82c0.217 0.096 0.47 0.153 0.736 0.153 0.949 0 1.731-0.714 1.837-1.635l0.001-0.009 0.227-2.035c0.049-0.429 0.362-0.772 0.771-0.865l0.007-0.001c0.957-0.212 1.933-0.324 2.936-0.336zM23.671 16.008c3.904 0.186 6.998 3.395 7 7.328v0c0 0.001 0 0.001 0 0.002 0 4.051-3.284 7.335-7.335 7.335-1.306 0-2.532-0.341-3.594-0.939l0.037 0.019-2.916 0.888c-0.058 0.018-0.125 0.029-0.195 0.029-0.368 0-0.667-0.298-0.667-0.667 0-0.070 0.011-0.137 0.031-0.2l-0.001 0.005 0.888-2.915c-0.579-1.025-0.92-2.251-0.92-3.557 0-4.051 3.284-7.335 7.335-7.335 0.118 0 0.236 0.003 0.353 0.008l-0.017-0.001zM23.333 24h-2.667c-0 0-0 0-0 0-0.368 0-0.667 0.298-0.667 0.667 0 0.155 0.053 0.298 0.142 0.411l-0.001-0.001c0.123 0.158 0.313 0.258 0.527 0.259h2.667c0.368 0 0.667-0.298 0.667-0.667s-0.298-0.667-0.667-0.667v0zM20.667 22.667h5.333c0.368 0 0.667-0.298 0.667-0.667s-0.298-0.667-0.667-0.667v0h-5.333c-0.368 0-0.666 0.299-0.666 0.667 0 0.176 0.068 0.336 0.179 0.455l-0-0c0.122 0.131 0.294 0.213 0.487 0.213h0zM16 11c2.412 0.001 4.425 1.709 4.896 3.981l0.006 0.032c-0.727 0.215-1.359 0.493-1.947 0.838l0.041-0.022c-0.093-1.582-1.398-2.83-2.995-2.83-1.657 0-3 1.343-3 3 0 1.597 1.247 2.902 2.82 2.995l0.008 0c-0.323 0.547-0.601 1.18-0.8 1.846l-0.016 0.061c-2.299-0.482-4-2.492-4-4.9 0-2.757 2.231-4.994 4.987-5.001h0.001z"></path>
</svg>
