<!-- Generated by IcoMoon.io -->
<svg version="1.1" xmlns="http://www.w3.org/2000/svg" width="32" height="32" viewBox="0 0 32 32">
<title>settings</title>
<path d="M16 11c-2.761 0-5 2.239-5 5s2.239 5 5 5v0c2.761 0 5-2.239 5-5s-2.239-5-5-5v0zM12.667 16c0-1.841 1.492-3.333 3.333-3.333s3.333 1.492 3.333 3.333v0c0 1.841-1.492 3.333-3.333 3.333s-3.333-1.492-3.333-3.333v0zM12.996 28.979c0.986 0.235 1.995 0.354 3.009 0.354 1.066-0.001 2.101-0.131 3.091-0.375l-0.089 0.018c0.526-0.13 0.92-0.569 0.982-1.109l0.001-0.006 0.225-2.047c0.081-0.754 0.693-1.342 1.451-1.383l0.004-0c0.245-0.011 0.488 0.035 0.712 0.133l1.871 0.821c0.154 0.071 0.335 0.113 0.526 0.113 0.185 0 0.36-0.039 0.519-0.109l-0.008 0.003c0.165-0.070 0.312-0.174 0.433-0.305 1.334-1.434 2.365-3.169 2.98-5.090l0.027-0.096c0.036-0.114 0.058-0.245 0.058-0.382 0-0.425-0.205-0.802-0.521-1.038l-0.003-0.002-1.663-1.227c-0.389-0.285-0.639-0.741-0.639-1.255s0.25-0.969 0.635-1.252l0.004-0.003 1.657-1.224c0.32-0.239 0.525-0.616 0.525-1.041 0-0.137-0.021-0.269-0.061-0.393l0.003 0.009c-0.642-2.017-1.674-3.751-3.017-5.193l0.007 0.008c-0.236-0.252-0.571-0.409-0.942-0.409-0.188 0-0.366 0.040-0.527 0.112l0.008-0.003-1.871 0.824c-0.193 0.087-0.404 0.133-0.617 0.133-0.801-0.002-1.46-0.607-1.546-1.385l-0.001-0.007-0.227-2.040c-0.062-0.553-0.465-0.997-0.991-1.119l-0.009-0.002c-0.891-0.208-1.917-0.333-2.97-0.346l-0.009-0c-1.070 0.013-2.103 0.138-3.098 0.365l0.098-0.019c-0.535 0.123-0.938 0.566-0.999 1.112l-0.001 0.006-0.227 2.041c-0.046 0.397-0.233 0.742-0.511 0.991l-0.001 0.001c-0.293 0.249-0.662 0.39-1.046 0.4-0.223-0-0.434-0.048-0.625-0.133l0.010 0.004-1.867-0.824c-0.154-0.069-0.333-0.11-0.522-0.11-0.373 0-0.709 0.158-0.944 0.411l-0.001 0.001c-1.334 1.433-2.365 3.167-2.98 5.087l-0.027 0.096c-0.037 0.115-0.058 0.247-0.058 0.384 0 0.425 0.205 0.802 0.522 1.038l0.003 0.002 1.659 1.224c0.386 0.288 0.634 0.743 0.634 1.257 0 0.256-0.062 0.498-0.171 0.711l0.004-0.009c-0.114 0.222-0.271 0.407-0.463 0.55l-0.004 0.003-1.66 1.226c-0.32 0.238-0.525 0.615-0.525 1.040 0 0.137 0.021 0.269 0.061 0.392l-0.002-0.009c0.641 2.018 1.672 3.754 3.014 5.196l-0.008-0.008c0.236 0.254 0.571 0.412 0.943 0.412 0.188 0 0.366-0.040 0.527-0.113l-0.008 0.003 1.879-0.825c0.194-0.085 0.403-0.129 0.615-0.129h0.005c0.798 0.001 1.455 0.602 1.546 1.375l0.001 0.007 0.225 2.038c0.062 0.547 0.458 0.986 0.976 1.113l0.009 0.002zM18.372 27.415c-1.56 0.333-3.173 0.333-4.733 0l-0.203-1.775c-0.186-1.618-1.547-2.864-3.2-2.867h-0.007c-0.004-0-0.008-0-0.013-0-0.46 0-0.897 0.098-1.291 0.275l0.020-0.008-1.631 0.715c-1.022-1.149-1.831-2.514-2.348-4.014l-0.025-0.084 1.443-1.067c0.799-0.594 1.312-1.536 1.312-2.597s-0.512-2.003-1.303-2.591l-0.009-0.006-1.443-1.067c0.543-1.582 1.352-2.946 2.384-4.105l-0.010 0.012 1.621 0.715c0.405 0.18 0.844 0.272 1.287 0.271h0.007c1.657-0.004 3.020-1.252 3.205-2.86l0.001-0.015 0.2-1.773c0.709-0.149 1.528-0.24 2.366-0.251l0.009-0c0.791 0.010 1.58 0.093 2.356 0.25l0.2 1.773c0.181 1.623 1.544 2.874 3.2 2.876h0c0.020 0.001 0.044 0.001 0.068 0.001 0.446 0 0.869-0.101 1.246-0.282l-0.017 0.008 1.62-0.714c1.023 1.148 1.832 2.511 2.35 4.010l0.025 0.084-1.438 1.062c-0.805 0.592-1.322 1.536-1.322 2.6s0.517 2.008 1.313 2.594l0.009 0.006 1.443 1.067c-0.543 1.582-1.352 2.945-2.384 4.105l0.011-0.012-1.627-0.713c-0.383-0.174-0.831-0.276-1.303-0.276-1.656 0-3.019 1.253-3.194 2.862l-0.001 0.014-0.195 1.777z"></path>
</svg>
