<!-- Generated by IcoMoon.io -->
<svg version="1.1" xmlns="http://www.w3.org/2000/svg" width="32" height="32" viewBox="0 0 32 32">
<title>shape-intersect-regular</title>
<path d="M2.667 7c0-2.393 1.94-4.333 4.333-4.333v0h10.667c2.393 0 4.333 1.94 4.333 4.333v0 3h3c2.393 0 4.333 1.94 4.333 4.333v0 10.667c0 2.393-1.94 4.333-4.333 4.333v0h-10.667c-2.393 0-4.333-1.94-4.333-4.333v0-3h-3c-2.393 0-4.333-1.94-4.333-4.333v0-10.667zM20 7c0-1.289-1.045-2.333-2.333-2.333v0h-10.667c-1.289 0-2.333 1.045-2.333 2.333v0 10.667c0 1.288 1.045 2.333 2.333 2.333h3v-5.667c0-0.001 0-0.001 0-0.002 0-0.452 0.069-0.888 0.198-1.298l-0.008 0.031c0.563-1.787 2.204-3.061 4.144-3.064h5.667v-3zM12 19.413v0.587h1.92l6.080-6.080v-1.92h-0.587l-7.413 7.413zM16.587 12h-2.253c-0.001 0-0.003 0-0.004 0-0.093 0-0.184 0.005-0.274 0.016l0.011-0.001-2.053 2.052c-0.009 0.075-0.013 0.163-0.013 0.251 0 0.005 0 0.011 0 0.017v-0.001 2.253l4.587-4.587zM22 12v5.667c0 2.393-1.94 4.333-4.333 4.333v0h-5.667v3c0 1.288 1.045 2.333 2.333 2.333h10.667c1.289 0 2.333-1.045 2.333-2.333v0-10.667c0-1.289-1.045-2.333-2.333-2.333v0h-3zM16.747 20h0.92c1.289 0 2.333-1.045 2.333-2.333v0-0.92l-3.253 3.253z"></path>
</svg>
