<!-- Generated by IcoMoon.io -->
<svg version="1.1" xmlns="http://www.w3.org/2000/svg" width="32" height="32" viewBox="0 0 32 32">
<title>shape-intersect</title>
<path d="M2.667 7c0-2.393 1.94-4.333 4.333-4.333h10.667c2.393 0 4.333 1.94 4.333 4.333v3h3c2.393 0 4.333 1.94 4.333 4.333v10.667c0 2.393-1.94 4.333-4.333 4.333h-10.667c-2.393 0-4.333-1.94-4.333-4.333v-3h-3c-2.393 0-4.333-1.94-4.333-4.333v-10.667zM20 7c0-1.289-1.045-2.333-2.333-2.333h-10.667c-1.289 0-2.333 1.045-2.333 2.333v10.667c0 1.289 1.045 2.333 2.333 2.333h3v-5.667c0-0.411 0.057-0.809 0.164-1.186 0.008-0.028 0.016-0.056 0.025-0.083 0.42-1.372 1.502-2.455 2.875-2.875 0.402-0.123 0.828-0.189 1.27-0.189h5.667v-3zM12 19.414v0.586h1.919l6.081-6.081v-1.919h-0.586l-7.414 7.414zM16.586 12h-2.253c-0.090 0-0.18 0.005-0.267 0.015l-2.051 2.051c-0.010 0.088-0.015 0.177-0.015 0.267v2.253l4.586-4.586zM22 12v5.667c0 2.393-1.94 4.333-4.333 4.333h-5.667v3c0 1.289 1.045 2.333 2.333 2.333h10.667c1.289 0 2.333-1.045 2.333-2.333v-10.667c0-1.289-1.045-2.333-2.333-2.333h-3zM16.748 20h0.919c1.289 0 2.333-1.045 2.333-2.333v-0.919l-3.252 3.252z"></path>
</svg>
