<!-- Generated by IcoMoon.io -->
<svg version="1.1" xmlns="http://www.w3.org/2000/svg" width="32" height="32" viewBox="0 0 32 32">
<title>shape-exclude</title>
<path d="M2.667 7c0-2.393 1.94-4.333 4.333-4.333h10.667c0.134 0 0.266 0.006 0.397 0.018 0.685 0.062 1.323 0.283 1.878 0.627 0.050 0.031 0.099 0.063 0.148 0.096 0.51 0.344 0.942 0.794 1.266 1.319 0.343 0.555 0.564 1.194 0.626 1.878l0.001 0.008c0.011 0.128 0.017 0.257 0.017 0.388v3h3c0.522 0 1.023 0.092 1.486 0.262 0.581 0.212 1.103 0.545 1.537 0.968 0.014 0.013 0.027 0.027 0.041 0.040 0.471 0.471 0.835 1.051 1.049 1.698 0.143 0.429 0.22 0.889 0.22 1.366v10.667c0 2.393-1.94 4.333-4.333 4.333h-10.667c-0.477 0-0.937-0.077-1.366-0.22-0.042-0.014-0.083-0.028-0.124-0.043-0.616-0.225-1.166-0.586-1.614-1.047-0.423-0.434-0.756-0.957-0.968-1.537-0.012-0.032-0.023-0.064-0.034-0.096-0.148-0.436-0.228-0.904-0.228-1.39v-3h-3c-0.134 0-0.266-0.006-0.396-0.018-0.685-0.062-1.323-0.283-1.878-0.626-0.004-0.003-0.009-0.006-0.013-0.008-0.568-0.354-1.049-0.836-1.401-1.406-0.343-0.555-0.564-1.194-0.627-1.878-0-0.003-0.001-0.005-0.001-0.008-0.011-0.128-0.017-0.257-0.017-0.388v-10.667zM4.667 10.748v2.505l8.586-8.586h-2.505l-6.081 6.081zM7.919 4.667h-0.919c-1.289 0-2.333 1.045-2.333 2.333v0.919l3.253-3.253zM16.081 4.667l-11.414 11.414v1.586c0 0.275 0.048 0.539 0.135 0.784l5.387-5.387c0.42-1.372 1.502-2.455 2.875-2.875l5.387-5.387c-0.245-0.087-0.509-0.135-0.784-0.135h-1.586zM19.865 6.216l-3.784 3.784h2.505l1.414-1.414v-1.586c0-0.275-0.048-0.539-0.135-0.784zM10 16.081l-3.784 3.784c0.245 0.087 0.509 0.135 0.784 0.135h1.586l1.414-1.414v-2.505zM12 24.748v0.252c0 0.624 0.245 1.19 0.644 1.609l4.609-4.609h-2.505l-2.748 2.748zM22 17.253l4.609-4.609c-0.419-0.399-0.985-0.644-1.609-0.644h-0.252l-2.748 2.748v2.505zM27.333 14.748l-12.586 12.586h2.505l10.081-10.081v-2.505zM27.333 20.081l-7.252 7.252h2.505l4.747-4.747v-2.505zM27.288 25.46c-0.184 0.92-0.909 1.645-1.829 1.829l1.829-1.829zM12 14.333v5.667h5.667c1.289 0 2.333-1.045 2.333-2.333v-5.667h-5.667c-1.289 0-2.333 1.045-2.333 2.333z"></path>
</svg>
