<!-- Generated by IcoMoon.io -->
<svg version="1.1" xmlns="http://www.w3.org/2000/svg" width="32" height="32" viewBox="0 0 32 32">
<title>shapes</title>
<path d="M11.667 4.333c-4.050 0-7.333 3.283-7.333 7.333 0 3.595 2.587 6.585 6 7.213v1.689c-4.338-0.644-7.667-4.385-7.667-8.902 0-4.971 4.029-9 9-9 4.517 0 8.258 3.329 8.902 7.667h-1.689c-0.627-3.413-3.618-6-7.213-6zM15.5 12c-1.933 0-3.5 1.567-3.5 3.5v0 10.333c0 1.933 1.567 3.5 3.5 3.5h10.333c1.933 0 3.5-1.567 3.5-3.5v-10.333c0-1.933-1.567-3.5-3.5-3.5h-10.333zM13.667 15.5c0-1.013 0.821-1.833 1.833-1.833v0h10.333c1.013 0 1.833 0.821 1.833 1.833v0 10.333c0 1.013-0.821 1.833-1.833 1.833v0h-10.333c-1.013 0-1.833-0.821-1.833-1.833v0-10.333z"></path>
</svg>
