<!-- Generated by IcoMoon.io -->
<svg version="1.1" xmlns="http://www.w3.org/2000/svg" width="32" height="32" viewBox="0 0 32 32">
<title>shape-union-regular</title>
<path d="M7 2.667c-2.393 0-4.333 1.94-4.333 4.333v0 10.667c0 0.003 0 0.006 0 0.009 0 0.901 0.277 1.737 0.75 2.429l-0.010-0.015c0.344 0.509 0.795 0.943 1.319 1.267 0.536 0.337 1.176 0.562 1.862 0.625l0.017 0.001h0.008c0.116 0.011 0.251 0.017 0.388 0.017h3v3c0 0.002 0 0.005 0 0.007 0 1.903 1.229 3.519 2.938 4.097l0.030 0.009c0.406 0.139 0.874 0.22 1.361 0.22 0.002 0 0.003 0 0.005 0h10.666c2.393 0 4.333-1.94 4.333-4.333v0-10.667c0-0.002 0-0.003 0-0.005 0-2.39-1.938-4.328-4.328-4.328-0.002 0-0.004 0-0.006 0h-3v-3c0-0.003 0-0.006 0-0.009 0-0.901-0.277-1.737-0.75-2.429l0.010 0.015c-0.349-0.512-0.789-0.936-1.3-1.256l-0.018-0.011c-0.536-0.337-1.176-0.562-1.862-0.625l-0.017-0.001h-0.008c-0.116-0.011-0.251-0.017-0.388-0.017h-10.667zM7.92 4.667l-3.253 3.253v-0.92c0-1.288 1.045-2.333 2.333-2.333h0.92zM4.667 10.747l6.080-6.080h2.507l-8.587 8.587v-2.507zM16.080 4.667h1.587c0.275 0 0.539 0.048 0.784 0.135l-13.649 13.649c-0.085-0.232-0.135-0.501-0.135-0.781 0-0.001 0-0.002 0-0.003v0-1.587l11.413-11.413zM19.867 6.216c0.087 0.245 0.135 0.509 0.135 0.784v1.587l-11.415 11.413h-1.587c-0.275 0-0.539-0.048-0.784-0.135l13.649-13.649zM20.005 11.409c0.039 0.334 0.32 0.59 0.661 0.591h1.253l-9.92 9.92v-1.253c0-0 0-0 0-0 0-0.341-0.257-0.623-0.588-0.662l-0.003-0 8.595-8.595zM24.748 12h0.252c0.624 0 1.191 0.245 1.609 0.644l-13.965 13.965c-0.399-0.417-0.644-0.983-0.644-1.606 0-0.001 0-0.002 0-0.003v0-0.253l12.747-12.747zM27.333 14.747v2.507l-10.080 10.080h-2.507l12.587-12.587zM27.333 20.080v2.507l-4.747 4.747h-2.507l7.253-7.253zM27.288 25.46c-0.191 0.922-0.905 1.637-1.813 1.825l-0.015 0.003 1.828-1.828z"></path>
</svg>
