<!-- Generated by IcoMoon.io -->
<svg version="1.1" xmlns="http://www.w3.org/2000/svg" width="32" height="32" viewBox="0 0 32 32">
<title>shapes</title>
<path d="M11.667 4.667c-3.866 0-7 3.134-7 7 0 3.527 2.608 6.444 6 6.929v2.016c-4.5-0.497-8-4.313-8-8.945 0-4.971 4.029-9 9-9 4.633 0 8.448 3.5 8.945 8h-2.016c-0.485-3.392-3.403-6-6.929-6z"></path>
<path d="M16.333 12c-2.393 0-4.333 1.94-4.333 4.333v8.667c0 2.393 1.94 4.333 4.333 4.333h8.667c2.393 0 4.333-1.94 4.333-4.333v-8.667c0-2.393-1.94-4.333-4.333-4.333h-8.667zM14 16.333c0-1.289 1.045-2.333 2.333-2.333h8.667c1.289 0 2.333 1.045 2.333 2.333v8.667c0 1.289-1.045 2.333-2.333 2.333h-8.667c-1.289 0-2.333-1.045-2.333-2.333v-8.667z"></path>
</svg>
