<!-- Generated by IcoMoon.io -->
<svg version="1.1" xmlns="http://www.w3.org/2000/svg" width="32" height="32" viewBox="0 0 32 32">
<title>shape-subtract</title>
<path d="M7 2.667c-2.393 0-4.333 1.94-4.333 4.333v0 10.667c0 0.003 0 0.006 0 0.009 0 0.901 0.277 1.737 0.75 2.429l-0.010-0.015c0.344 0.509 0.795 0.943 1.319 1.267 0.536 0.337 1.176 0.562 1.862 0.625l0.017 0.001h0.008c0.116 0.011 0.251 0.017 0.388 0.017h3v3c0 2.393 1.94 4.333 4.333 4.333v0h10.667c2.393 0 4.333-1.94 4.333-4.333v0-10.667c0-2.393-1.94-4.333-4.333-4.333v0h-3v-3c0-0.003 0-0.006 0-0.009 0-0.901-0.277-1.737-0.75-2.429l0.010 0.015c-0.349-0.512-0.789-0.936-1.3-1.256l-0.018-0.011c-0.536-0.337-1.176-0.562-1.862-0.625l-0.017-0.001h-0.008c-0.116-0.011-0.251-0.017-0.388-0.017h-10.667zM7.92 4.667l-3.253 3.253v-0.92c0-1.288 1.045-2.333 2.333-2.333h0.92zM4.667 10.747l6.080-6.080h2.507l-8.587 8.587v-2.507zM16.080 4.667h1.587c0.275 0 0.539 0.048 0.784 0.135l-5.387 5.387c-1.378 0.433-2.442 1.497-2.866 2.845l-0.008 0.031-5.387 5.387c-0.086-0.233-0.136-0.503-0.136-0.784v-1.587l11.413-11.413zM19.867 6.216c0.087 0.245 0.135 0.509 0.135 0.784v1.587l-1.415 1.413h-2.507l3.787-3.784zM10 16.081v2.505l-1.413 1.413h-1.587c-0.275 0-0.539-0.048-0.784-0.135l3.784-3.785zM12 14.333c0-1.288 1.045-2.333 2.333-2.333h10.667c1.288 0 2.333 1.045 2.333 2.333v10.667c0 1.289-1.045 2.333-2.333 2.333v0h-10.667c-1.289 0-2.333-1.045-2.333-2.333v0-10.667z"></path>
</svg>
