<!-- Generated by IcoMoon.io -->
<svg version="1.1" xmlns="http://www.w3.org/2000/svg" width="32" height="32" viewBox="0 0 32 32">
<title>shape-union</title>
<path d="M7 2.667c-2.393 0-4.333 1.94-4.333 4.333v10.667c0 0.134 0.006 0.266 0.018 0.397 0.062 0.685 0.283 1.323 0.627 1.878 0.031 0.050 0.063 0.099 0.096 0.148 0.344 0.51 0.794 0.942 1.319 1.266 0.555 0.343 1.194 0.564 1.878 0.626l0.008 0.001c0.128 0.011 0.257 0.017 0.388 0.017h3v3c0 0.522 0.092 1.023 0.262 1.486 0.212 0.581 0.545 1.103 0.968 1.537 0.013 0.014 0.027 0.027 0.040 0.041 0.471 0.471 1.051 0.835 1.698 1.049 0.429 0.143 0.889 0.22 1.366 0.22h10.667c2.393 0 4.333-1.94 4.333-4.333v-10.667c0-0.477-0.077-0.937-0.22-1.366-0.014-0.042-0.028-0.083-0.043-0.124-0.225-0.616-0.586-1.166-1.047-1.614-0.434-0.423-0.957-0.756-1.537-0.968-0.032-0.012-0.064-0.023-0.096-0.034-0.436-0.148-0.904-0.228-1.39-0.228h-3v-3c0-0.134-0.006-0.266-0.018-0.396-0.062-0.685-0.283-1.323-0.626-1.878-0.031-0.050-0.063-0.099-0.096-0.148-0.344-0.51-0.794-0.942-1.319-1.266-0.555-0.343-1.194-0.564-1.878-0.627-0.003-0-0.005-0.001-0.008-0.001-0.128-0.011-0.257-0.017-0.388-0.017h-10.667zM7.919 4.667l-3.253 3.253v-0.919c0-1.289 1.045-2.333 2.333-2.333h0.919zM4.667 10.748l6.081-6.081h2.505l-8.586 8.586v-2.505zM16.081 4.667h1.586c0.275 0 0.539 0.048 0.784 0.135l-13.649 13.649c-0.087-0.245-0.135-0.509-0.135-0.784v-1.586l11.414-11.414zM19.865 6.216c0.087 0.245 0.135 0.509 0.135 0.784v1.586l-11.414 11.414h-1.586c-0.275 0-0.539-0.048-0.784-0.135l13.649-13.649zM20.004 11.41c0.038 0.332 0.32 0.59 0.662 0.59h1.253l-9.919 9.919v-1.253c0-0.342-0.258-0.624-0.59-0.662l8.594-8.594zM24.748 12h0.252c0.624 0 1.19 0.245 1.609 0.644l-13.966 13.966c-0.399-0.419-0.644-0.985-0.644-1.609v-0.252l12.748-12.748zM27.333 14.748v2.505l-10.081 10.081h-2.505l12.586-12.586zM27.333 20.081v2.505l-4.747 4.747h-2.505l7.252-7.252zM27.288 25.46c-0.184 0.92-0.909 1.645-1.829 1.829l1.829-1.829z"></path>
</svg>
