<!-- Generated by IcoMoon.io -->
<svg version="1.1" xmlns="http://www.w3.org/2000/svg" width="32" height="32" viewBox="0 0 32 32">
<title>share-screen-person-overlay-inside</title>
<path d="M7.429 8c-0.947 0-1.714 0.768-1.714 1.714v0 4.571c0 0.947 0.768 1.714 1.714 1.714v0h5.714c0.947 0 1.714-0.768 1.714-1.714v0-4.571c0-0.947-0.768-1.714-1.714-1.714v0h-5.714zM24 12c0 1.578-1.279 2.857-2.857 2.857s-2.857-1.279-2.857-2.857v0c0-1.578 1.279-2.857 2.857-2.857s2.857 1.279 2.857 2.857v0zM16 17.714v0.286c0 2.683 2.175 4.857 4.857 4.857v0h0.571c2.683 0 4.857-2.175 4.857-4.857v0-0.286c0-0.947-0.767-1.714-1.714-1.714v0h-6.857c-0.947 0-1.714 0.767-1.714 1.714v0zM6.576 4.571c-2.367 0-4.286 1.919-4.286 4.286v0 14.286c0 2.367 1.919 4.286 4.286 4.286v0h18.853c2.367 0 4.286-1.919 4.286-4.286v0-14.286c0-2.367-1.919-4.286-4.286-4.286v0h-18.851zM4.005 8.857c0-1.42 1.151-2.571 2.571-2.571v0h18.853c1.42 0 2.571 1.151 2.571 2.571v0 14.286c0 1.42-1.151 2.571-2.571 2.571v0h-18.851c-1.42 0-2.571-1.151-2.571-2.571v0-14.286z"></path>
</svg>
