<!-- Generated by IcoMoon.io -->
<svg version="1.1" xmlns="http://www.w3.org/2000/svg" width="32" height="32" viewBox="0 0 32 32">
<title>share-screen-person-p</title>
<path d="M2.286 8.857c0-2.367 1.919-4.286 4.286-4.286v0h18.857c2.367 0 4.286 1.919 4.286 4.286v0 10.286c0 0.158-0.128 0.286-0.286 0.286v0c-0.159-0.003-0.287-0.128-0.295-0.285l-0-0.001c-0.066-1.058-0.485-2.007-1.138-2.743l0.004 0.005v-7.547c0-1.42-1.151-2.571-2.571-2.571v0h-18.857c-1.42 0-2.571 1.151-2.571 2.571v0 14.286c0 1.42 1.151 2.571 2.571 2.571v0h10.627c-0.036 0.187-0.056 0.403-0.056 0.623v0.234c0 0.287 0.025 0.574 0.075 0.857h-10.647c-2.367 0-4.286-1.919-4.286-4.286v0-14.286zM24.571 22.857c1.894 0 3.429-1.535 3.429-3.429s-1.535-3.429-3.429-3.429v0c-1.894 0-3.429 1.535-3.429 3.429s1.535 3.429 3.429 3.429v0zM24.571 30.857c4.49 0 6.286-2.151 6.286-4.286v-0.234c0-1.291-1.047-2.337-2.338-2.337h-7.896c-1.291 0-2.337 1.046-2.337 2.337v0.234c0 2.143 1.795 4.286 6.286 4.286zM10 10.286c-0.473 0-0.857 0.384-0.857 0.857v0 9.714c0 0.473 0.384 0.857 0.857 0.857s0.857-0.384 0.857-0.857v0-2.571h2.286c2.209 0 4-1.791 4-4s-1.791-4-4-4v0h-3.143zM13.143 16.571h-2.286v-4.571h2.286c1.262 0 2.286 1.023 2.286 2.286s-1.023 2.286-2.286 2.286v0z"></path>
</svg>
