<!-- Generated by IcoMoon.io -->
<svg version="1.1" xmlns="http://www.w3.org/2000/svg" width="32" height="32" viewBox="0 0 32 32">
<title>share-ios-regular</title>
<path d="M25.167 13.833c0.431 0 0.787 0.328 0.829 0.748l0.005 0.085v9.833c0 0 0 0 0 0 0 1.882-1.486 3.418-3.349 3.497l-0.007 0-0.144 0.003h-13c-0 0-0 0-0 0-1.882 0-3.418-1.486-3.497-3.349l-0-0.007-0.003-0.144v-9.833c0.002-0.459 0.374-0.831 0.833-0.831 0.429 0 0.783 0.325 0.828 0.742l0 0.004 0.005 0.085v9.833c0 0 0 0 0 0 0 0.973 0.758 1.769 1.716 1.83l0.005 0 0.112 0.003h13c0 0 0 0 0 0 0.973 0 1.77-0.759 1.83-1.717l0-0.005 0.003-0.111v-9.833c0-0.46 0.373-0.833 0.833-0.833zM10.060 9.429l5.186-5.185c0.151-0.151 0.359-0.244 0.589-0.244 0.198 0 0.38 0.069 0.523 0.185l-0.002-0.001 0.067 0.061 5.185 5.185c0.153 0.151 0.248 0.361 0.248 0.593 0 0.46-0.373 0.833-0.833 0.833-0.2 0-0.383-0.070-0.527-0.187l0.002 0.001-0.067-0.061-3.765-3.765v13.49c0 0 0 0 0 0 0 0.43-0.326 0.784-0.744 0.829l-0.004 0-0.085 0.004c-0 0-0 0-0 0-0.43 0-0.784-0.326-0.829-0.744l-0-0.004-0.004-0.085v-13.487l-3.761 3.762c-0.151 0.151-0.359 0.244-0.589 0.244-0.198 0-0.38-0.069-0.523-0.185l0.002 0.001-0.068-0.060c-0.151-0.151-0.244-0.359-0.244-0.589 0-0.198 0.069-0.381 0.185-0.524l-0.001 0.002 0.060-0.068z"></path>
</svg>
