<!-- Generated by IcoMoon.io -->
<svg version="1.1" xmlns="http://www.w3.org/2000/svg" width="32" height="32" viewBox="0 0 32 32">
<title>share-screen-person</title>
<path d="M2.667 9.667c0-2.393 1.94-4.333 4.333-4.333h18c2.393 0 4.333 1.94 4.333 4.333v7.667h-0.344c-0.089-1.346-0.71-2.547-1.656-3.393v-4.273c0-1.289-1.045-2.333-2.333-2.333h-18c-1.289 0-2.333 1.045-2.333 2.333v12.667c0 1.289 1.045 2.333 2.333 2.333h9v0.667c0 0.453 0.054 0.899 0.157 1.333h-9.157c-2.393 0-4.333-1.94-4.333-4.333v-12.667zM28.667 22.667c1.105 0 2 0.895 2 2v0.667c0 2.629-2.479 5.333-6.667 5.333s-6.667-2.705-6.667-5.333v-0.667c0-1.105 0.895-2 2-2h9.333zM24 14c2.025 0 3.667 1.642 3.667 3.667s-1.642 3.667-3.667 3.667c-2.025 0-3.667-1.642-3.667-3.667s1.642-3.667 3.667-3.667z"></path>
</svg>
