<!-- Generated by IcoMoon.io -->
<svg version="1.1" xmlns="http://www.w3.org/2000/svg" width="32" height="32" viewBox="0 0 32 32">
<title>share-screen-person-overlay-inside</title>
<path d="M21.333 16c1.473 0 2.667-1.194 2.667-2.667s-1.194-2.667-2.667-2.667-2.667 1.194-2.667 2.667c0 1.473 1.194 2.667 2.667 2.667zM17.333 18.667c0-0.736 0.597-1.333 1.333-1.333h5.333c0.736 0 1.333 0.597 1.333 1.333v0.333c0 2.025-1.642 3.667-3.667 3.667h-0.667c-2.025 0-3.667-1.642-3.667-3.667v-0.333zM8.333 9.333c-0.92 0-1.667 0.746-1.667 1.667v4.667c0 0.921 0.746 1.667 1.667 1.667h6c0.921 0 1.667-0.746 1.667-1.667v-4.667c0-0.92-0.746-1.667-1.667-1.667h-6zM7 5.333c-2.393 0-4.333 1.94-4.333 4.333v12.667c0 2.393 1.94 4.333 4.333 4.333h18c2.393 0 4.333-1.94 4.333-4.333v-12.667c0-2.393-1.94-4.333-4.333-4.333h-18zM4.667 9.667c0-1.289 1.045-2.333 2.333-2.333h18c1.289 0 2.333 1.045 2.333 2.333v12.667c0 1.289-1.045 2.333-2.333 2.333h-18c-1.289 0-2.333-1.045-2.333-2.333v-12.667z"></path>
</svg>
