<!-- Generated by IcoMoon.io -->
<svg version="1.1" xmlns="http://www.w3.org/2000/svg" width="32" height="32" viewBox="0 0 32 32">
<title>share-android-regular</title>
<path d="M22.667 3.331c0 0 0 0 0 0 2.579 0 4.669 2.091 4.669 4.669s-2.091 4.669-4.669 4.669c-1.372 0-2.605-0.592-3.46-1.533l-0.003-0.004-6.077 3.472c0.135 0.417 0.213 0.897 0.213 1.395s-0.078 0.978-0.223 1.428l0.009-0.033 6.076 3.475c0.858-0.945 2.091-1.536 3.462-1.536 2.579 0 4.669 2.091 4.669 4.669s-2.091 4.669-4.669 4.669c-2.579 0-4.669-2.091-4.669-4.669 0-0.499 0.078-0.98 0.223-1.43l-0.009 0.033-6.076-3.476c-0.858 0.946-2.091 1.537-3.463 1.537-2.579 0-4.669-2.091-4.669-4.669s2.091-4.669 4.669-4.669c1.372 0 2.605 0.592 3.46 1.533l0.004 0.004 6.076-3.472c-0.135-0.417-0.213-0.896-0.213-1.393 0-2.579 2.091-4.669 4.669-4.669 0 0 0.001 0 0.001 0h-0zM22.667 21.331c-1.474 0-2.669 1.195-2.669 2.669s1.195 2.669 2.669 2.669v0c1.474 0 2.669-1.195 2.669-2.669s-1.195-2.669-2.669-2.669v0zM8.669 13.331c-1.474 0-2.669 1.195-2.669 2.669s1.195 2.669 2.669 2.669v0c1.474 0 2.669-1.195 2.669-2.669s-1.195-2.669-2.669-2.669v0zM22.667 5.331c-1.474 0-2.669 1.195-2.669 2.669s1.195 2.669 2.669 2.669v0c1.474 0 2.669-1.195 2.669-2.669s-1.195-2.669-2.669-2.669v0z"></path>
</svg>
