<!-- Generated by IcoMoon.io -->
<svg version="1.1" xmlns="http://www.w3.org/2000/svg" width="32" height="32" viewBox="0 0 32 32">
<title>share-screen-start</title>
<path d="M2.667 8.333c0-1.657 1.343-3 3-3h20.667c1.657 0 3 1.343 3 3v15.333c0 1.657-1.343 3-3 3h-20.667c-1.657 0-3-1.343-3-3v-15.333zM5.667 7.333c-0.552 0-1 0.448-1 1v15.333c0 0.552 0.448 1 1 1h20.667c0.552 0 1-0.448 1-1v-15.333c0-0.552-0.448-1-1-1h-20.667z"></path>
<path d="M16 9.661c0.265-0 0.52 0.105 0.707 0.293l4.339 4.339c0.391 0.391 0.391 1.024 0 1.414s-1.024 0.391-1.414 0l-2.632-2.632v8.596c0 0.552-0.448 1-1 1s-1-0.448-1-1v-8.593l-2.626 2.629c-0.39 0.391-1.023 0.391-1.414 0.001s-0.391-1.023-0.001-1.414l4.333-4.339c0.187-0.188 0.442-0.293 0.707-0.293z"></path>
</svg>
