<!-- Generated by IcoMoon.io -->
<svg version="1.1" xmlns="http://www.w3.org/2000/svg" width="32" height="32" viewBox="0 0 32 32">
<title>share-screen-stop</title>
<path d="M2.667 8.333c0-1.657 1.343-3 3-3h20.667c1.657 0 3 1.343 3 3v15.333c0 1.657-1.343 3-3 3h-20.667c-1.657 0-3-1.343-3-3v-15.333zM5.667 7.333c-0.552 0-1 0.448-1 1v15.333c0 0.552 0.448 1 1 1h20.667c0.552 0 1-0.448 1-1v-15.333c0-0.552-0.448-1-1-1h-20.667z"></path>
<path d="M10.96 10.954c0.391-0.391 1.024-0.391 1.414 0l3.627 3.627 3.632-3.622c0.391-0.39 1.024-0.389 1.414 0.002s0.389 1.024-0.002 1.414l-3.63 3.62 3.631 3.631c0.391 0.391 0.391 1.024 0 1.414s-1.024 0.391-1.414 0l-3.632-3.632-3.626 3.631c-0.39 0.391-1.023 0.391-1.414 0.001s-0.391-1.023-0.001-1.414l3.627-3.632-3.627-3.627c-0.391-0.391-0.391-1.024 0-1.414z"></path>
</svg>
