<!-- Generated by IcoMoon.io -->
<svg version="1.1" xmlns="http://www.w3.org/2000/svg" width="32" height="32" viewBox="0 0 32 32">
<title>share-android</title>
<path d="M22.667 3.331c2.579 0 4.669 2.090 4.669 4.669s-2.090 4.669-4.669 4.669c-1.373 0-2.608-0.593-3.462-1.537l-6.078 3.473c0.138 0.441 0.212 0.909 0.212 1.395s-0.074 0.955-0.212 1.395l6.077 3.474c0.854-0.945 2.090-1.538 3.464-1.538 2.579 0 4.669 2.090 4.669 4.669s-2.090 4.669-4.669 4.669c-2.579 0-4.669-2.090-4.669-4.669 0-0.486 0.074-0.955 0.212-1.395l-6.077-3.474c-0.854 0.945-2.090 1.538-3.464 1.538-2.579 0-4.669-2.090-4.669-4.669s2.090-4.669 4.669-4.669c1.373 0 2.608 0.593 3.462 1.537l6.078-3.473c-0.138-0.441-0.212-0.909-0.212-1.395 0-2.579 2.090-4.669 4.669-4.669zM22.667 21.331c-1.474 0-2.669 1.195-2.669 2.669s1.195 2.669 2.669 2.669 2.669-1.195 2.669-2.669c0-1.474-1.195-2.669-2.669-2.669zM8.669 13.331c-1.474 0-2.669 1.195-2.669 2.669s1.195 2.669 2.669 2.669 2.669-1.195 2.669-2.669c0-1.474-1.195-2.669-2.669-2.669zM22.667 5.331c-1.474 0-2.669 1.195-2.669 2.669s1.195 2.669 2.669 2.669c1.474 0 2.669-1.195 2.669-2.669s-1.195-2.669-2.669-2.669z"></path>
</svg>
