<!-- Generated by IcoMoon.io -->
<svg version="1.1" xmlns="http://www.w3.org/2000/svg" width="32" height="32" viewBox="0 0 32 32">
<title>shield-person-add-regular</title>
<path d="M16.443 3.334c-0.125-0.084-0.278-0.134-0.443-0.134s-0.319 0.050-0.446 0.136l0.003-0.002c-2.857 1.95-6.263 3.319-9.94 3.858l-0.131 0.016c-0.39 0.058-0.686 0.39-0.686 0.792 0 0 0 0 0 0v0 7.2c0 6.226 3.691 10.768 10.912 13.547 0.085 0.034 0.184 0.054 0.288 0.054s0.203-0.020 0.293-0.056l-0.005 0.002 0.061-0.024c-0.454-0.558-0.85-1.193-1.161-1.875l-0.023-0.055c-5.888-2.565-8.765-6.406-8.765-11.594v-6.515c3.373-0.584 6.386-1.748 9.071-3.395l-0.111 0.064 0.64-0.398 0.64 0.398c2.574 1.583 5.587 2.748 8.807 3.309l0.153 0.022v6.046c0.558 0.158 1.093 0.368 1.6 0.627v-7.358c-0-0.402-0.297-0.735-0.684-0.791l-0.004-0.001c-3.807-0.555-7.213-1.924-10.152-3.927l0.083 0.054zM14.402 23.078c0.032-2.476 1.085-4.7 2.756-6.276l0.004-0.004h-4.362c-1.325 0-2.4 1.075-2.4 2.4 0 0.001 0 0.001 0 0.002v-0c0 1.709 1.168 3.418 4 3.88zM19.2 12c0 1.767-1.433 3.2-3.2 3.2s-3.2-1.433-3.2-3.2v0c0-1.767 1.433-3.2 3.2-3.2s3.2 1.433 3.2 3.2v0zM30.4 23.2c0 3.976-3.224 7.2-7.2 7.2s-7.2-3.224-7.2-7.2v0c0-3.976 3.224-7.2 7.2-7.2s7.2 3.224 7.2 7.2v0zM24 20c0-0.442-0.358-0.8-0.8-0.8s-0.8 0.358-0.8 0.8v0 2.4h-2.4c-0.442 0-0.8 0.358-0.8 0.8s0.358 0.8 0.8 0.8v0h2.4v2.4c0 0.442 0.358 0.8 0.8 0.8s0.8-0.358 0.8-0.8v0-2.4h2.4c0.442 0 0.8-0.358 0.8-0.8s-0.358-0.8-0.8-0.8v0h-2.4v-2.4z"></path>
</svg>
