<!-- Generated by IcoMoon.io -->
<svg version="1.1" xmlns="http://www.w3.org/2000/svg" width="32" height="32" viewBox="0 0 32 32">
<title>shield-lock-regular</title>
<path d="M15.423 2.899c0.149-0.143 0.353-0.232 0.577-0.232s0.427 0.088 0.577 0.232l-0-0c1.839 1.762 4.456 2.718 6.691 3.227 1.106 0.251 2.093 0.387 2.801 0.46 0.294 0.033 0.675 0.062 1.060 0.080l0.043 0.002h0.015c0.452 0.011 0.813 0.38 0.813 0.833 0 0 0 0 0 0v0 6.5c0 0.654-0.036 1.309-0.11 1.959-0.442-0.423-0.969-0.762-1.553-0.986l-0.032-0.011c0.019-0.32 0.029-0.641 0.029-0.962v-5.717c-1.292-0.113-2.464-0.301-3.606-0.567l0.172 0.034c-2.146-0.487-4.807-1.401-6.899-3.135-2.092 1.733-4.753 2.647-6.899 3.135-0.97 0.232-2.142 0.421-3.338 0.526l-0.097 0.007v5.55c0 2.942 0.755 5.811 2.435 8.233 1.639 2.363 4.192 4.349 7.899 5.559 0.462-0.151 0.907-0.313 1.333-0.488v1.529c0 0.086 0.003 0.171 0.009 0.255-0.355 0.131-0.72 0.256-1.094 0.373-0.074 0.024-0.16 0.038-0.249 0.038s-0.174-0.014-0.255-0.040l0.006 0.002c-4.159-1.3-7.112-3.528-9.020-6.279-1.902-2.745-2.731-5.959-2.731-9.183v-6.333c0-0 0-0 0-0 0-0.453 0.362-0.822 0.812-0.833l0.001-0h0.015l0.053-0.002c0.412-0.020 0.774-0.049 1.134-0.087l-0.085 0.007c1.075-0.112 2.029-0.275 2.962-0.491l-0.16 0.031c2.235-0.508 4.852-1.464 6.691-3.227zM21.333 20v-0.667c0-1.841 1.492-3.333 3.333-3.333s3.333 1.492 3.333 3.333v0 0.667h0.667c1.105 0 2 0.895 2 2v0 6.667c0 1.105-0.895 2-2 2v0h-8c-1.105 0-2-0.895-2-2v0-6.667c0-1.105 0.895-2 2-2v0h0.667zM23 19.333v0.667h3.333v-0.667c0-0.92-0.746-1.667-1.667-1.667s-1.667 0.746-1.667 1.667v0zM26.667 25.333c0-1.105-0.895-2-2-2s-2 0.895-2 2v0c0 1.105 0.895 2 2 2s2-0.895 2-2v0z"></path>
</svg>
