<!-- Generated by IcoMoon.io -->
<svg version="1.1" xmlns="http://www.w3.org/2000/svg" width="32" height="32" viewBox="0 0 32 32">
<title>shield-task</title>
<path d="M22.342 12.404c0.407-0.373 0.435-1.006 0.061-1.413s-1.006-0.435-1.413-0.061l-7.294 6.686-2.656-2.656c-0.391-0.391-1.024-0.391-1.414 0s-0.391 1.024 0 1.414l3.333 3.333c0.379 0.379 0.988 0.392 1.383 0.030l8-7.333zM27 6.667c-3.551 0-7.011-1.258-10.4-3.8-0.356-0.267-0.844-0.267-1.2 0-3.389 2.542-6.849 3.8-10.4 3.8-0.552 0-1 0.448-1 1v7c0 6.668 3.943 11.568 11.633 14.597 0.236 0.093 0.497 0.093 0.733 0 7.69-3.029 11.633-7.929 11.633-14.597v-7c0-0.552-0.448-1-1-1zM6 8.637c3.436-0.203 6.774-1.453 10-3.733 3.226 2.281 6.564 3.531 10 3.733v6.029c0 5.674-3.271 9.839-10 12.589-6.729-2.751-10-6.915-10-12.589v-6.029z"></path>
</svg>
