<!-- Generated by IcoMoon.io -->
<svg version="1.1" xmlns="http://www.w3.org/2000/svg" width="32" height="32" viewBox="0 0 32 32">
<title>shield-error</title>
<path d="M27 6.667c-3.551 0-7.011-1.257-10.4-3.8-0.165-0.125-0.374-0.2-0.6-0.2s-0.435 0.075-0.602 0.202l0.002-0.002c-3.389 2.543-6.849 3.8-10.4 3.8-0.552 0-1 0.448-1 1v0 7c0 6.668 3.944 11.568 11.633 14.597 0.109 0.044 0.235 0.070 0.367 0.070s0.258-0.026 0.373-0.072l-0.007 0.002c7.689-3.029 11.633-7.931 11.633-14.597v-7c0-0.552-0.448-1-1-1v0zM6 8.637c3.436-0.203 6.773-1.453 10-3.733 3.227 2.28 6.564 3.531 10 3.733v6.029c0 5.675-3.271 9.839-10 12.589-6.729-2.751-10-6.915-10-12.589v-6.029zM16.991 10.203c-0.069-0.491-0.486-0.864-0.991-0.864-0.552 0-1 0.448-1 1v8.664l0.009 0.136c0.069 0.491 0.486 0.864 0.991 0.864 0.552 0 1-0.448 1-1v-8.664l-0.009-0.136zM16 24c0.736 0 1.333-0.597 1.333-1.333s-0.597-1.333-1.333-1.333v0c-0.736 0-1.333 0.597-1.333 1.333s0.597 1.333 1.333 1.333v0z"></path>
</svg>
