<!-- Generated by IcoMoon.io -->
<svg version="1.1" xmlns="http://www.w3.org/2000/svg" width="32" height="32" viewBox="0 0 32 32">
<title>shield-dismiss-shield</title>
<path d="M16.443 3.334c-0.125-0.084-0.278-0.134-0.443-0.134s-0.319 0.050-0.446 0.136l0.003-0.002c-2.857 1.95-6.263 3.319-9.94 3.858l-0.131 0.016c-0.39 0.058-0.686 0.39-0.686 0.792 0 0 0 0 0 0v0 7.2c0 6.226 3.691 10.768 10.912 13.547 0.085 0.034 0.184 0.054 0.288 0.054s0.203-0.020 0.293-0.056l-0.005 0.002c0.55-0.213 1.080-0.435 1.59-0.667-0.292-0.399-0.567-0.852-0.801-1.328l-0.024-0.054c-0.341 0.152-0.691 0.301-1.053 0.443-6.451-2.56-9.6-6.514-9.6-11.941v-6.515c3.373-0.584 6.386-1.748 9.071-3.395l-0.111 0.064 0.64-0.398 0.64 0.398c2.574 1.583 5.587 2.748 8.807 3.309l0.153 0.022v4.794l0.010 0.010c0.32 0.334 0.638 0.619 0.955 0.859 0.211 0.16 0.424 0.301 0.635 0.424v-6.771c-0-0.402-0.297-0.735-0.684-0.791l-0.004-0.001c-3.807-0.555-7.213-1.924-10.152-3.927l0.083 0.054zM16.064 17.197c0.182-0.749 0.738-1.384 1.496-1.626l3.006-3.005c0.145-0.145 0.235-0.345 0.235-0.566 0-0.442-0.359-0.801-0.801-0.801-0.221 0-0.421 0.090-0.566 0.235v0l-3.434 3.435-3.434-3.435c-0.145-0.145-0.345-0.235-0.566-0.235-0.442 0-0.801 0.359-0.801 0.801 0 0.221 0.090 0.421 0.235 0.566v0l3.435 3.434-3.435 3.434c-0.145 0.145-0.235 0.345-0.235 0.566 0 0.442 0.359 0.801 0.801 0.801 0.221 0 0.421-0.090 0.566-0.235v0l3.434-3.435 0.064 0.064zM27.2 16.557c-0.611-0.264-1.137-0.577-1.617-0.947l0.017 0.013c-0.422-0.323-0.796-0.66-1.142-1.023l-0.004-0.004c-0.114-0.12-0.275-0.195-0.453-0.195s-0.339 0.075-0.453 0.195l-0 0c-1.592 1.658-3.352 2.472-5.309 2.472-0.352 0-0.64 0.298-0.64 0.666v4.002l0.006 0.426c0.043 1.275 0.278 2.422 0.704 3.44 0.55 1.299 1.402 2.379 2.47 3.186l0.019 0.014c0.838 0.64 1.84 1.163 2.998 1.566 0.133 0.045 0.274 0.045 0.406 0 4.096-1.424 6.197-4.341 6.197-8.632v-4l-0.013-0.136c-0.057-0.301-0.315-0.526-0.627-0.531h-0.001c-0.010 0-0.021 0-0.033 0-0.913 0-1.781-0.188-2.569-0.528l0.042 0.016z"></path>
</svg>
