<!-- Generated by IcoMoon.io -->
<svg version="1.1" xmlns="http://www.w3.org/2000/svg" width="32" height="32" viewBox="0 0 32 32">
<title>shield-question-regular</title>
<path d="M17.25 22.25c0 0.69-0.56 1.25-1.25 1.25s-1.25-0.56-1.25-1.25v0c0-0.69 0.56-1.25 1.25-1.25s1.25 0.56 1.25 1.25v0zM14 13c0-1.105 0.895-2 2-2s2 0.895 2 2v0c0 0.732-0.415 1.202-1.213 2.012l-0.046 0.047c-0.719 0.73-1.741 1.767-1.741 3.441 0 0.552 0.448 1 1 1s1-0.448 1-1v0c0-0.79 0.433-1.293 1.213-2.085l0.084-0.085c0.701-0.71 1.703-1.724 1.703-3.33 0-2.209-1.791-4-4-4s-4 1.791-4 4v0c0 0.552 0.448 1 1 1s1-0.448 1-1v0zM16.555 2.168c-0.156-0.105-0.348-0.168-0.555-0.168s-0.399 0.063-0.559 0.17l0.004-0.002c-2.915 1.944-6.76 3.859-11.544 4.337-0.508 0.052-0.901 0.478-0.901 0.995v0 8.5c0 3.88 2.124 7.17 4.701 9.546 2.572 2.372 5.737 3.971 8.115 4.417l0.184 0.034 0.184-0.034c2.378-0.446 5.543-2.045 8.115-4.417 2.577-2.376 4.701-5.666 4.701-9.546v-8.5c0 0 0 0 0 0 0-0.517-0.392-0.942-0.896-0.995l-0.004-0c-4.785-0.478-8.63-2.393-11.545-4.337zM5 16v-7.612c4.496-0.616 8.166-2.38 11-4.194 2.834 1.814 6.504 3.578 11 4.194v7.612c0 3.12-1.715 5.916-4.057 8.076-2.275 2.098-5.007 3.47-6.943 3.884-1.936-0.415-4.668-1.786-6.943-3.884-2.342-2.16-4.057-4.956-4.057-8.076z"></path>
</svg>
