<!-- Generated by IcoMoon.io -->
<svg version="1.1" xmlns="http://www.w3.org/2000/svg" width="32" height="32" viewBox="0 0 32 32">
<title>shield-globe-regular</title>
<path d="M5 6.667c-0.552 0-1 0.448-1 1v0 7c0 6.668 3.944 11.568 11.633 14.597 0.109 0.044 0.235 0.070 0.367 0.070s0.258-0.026 0.373-0.072l-0.007 0.002c7.689-3.029 11.633-7.931 11.633-14.597v-7c0-0.552-0.448-1-1-1v0c-3.551 0-7.011-1.257-10.4-3.8-0.165-0.125-0.374-0.2-0.6-0.2s-0.435 0.075-0.602 0.202l0.002-0.002c-3.389 2.543-6.849 3.8-10.4 3.8zM6 14.667v-6.029c3.436-0.203 6.773-1.453 10-3.733 3.227 2.28 6.564 3.531 10 3.733v6.029c0 5.675-3.271 9.839-10 12.589-6.729-2.751-10-6.915-10-12.589zM13.432 20.676c-0.387-1.027-0.649-2.291-0.735-3.676h-1.937c0.313 1.594 1.3 2.911 2.645 3.662l0.027 0.014zM15.464 20.357c0.225 0.496 0.415 0.748 0.536 0.873 0.12-0.125 0.311-0.377 0.536-0.873 0.373-0.819 0.664-1.984 0.763-3.357h-2.597c0.099 1.373 0.389 2.539 0.763 3.357zM15.464 11.643c-0.373 0.819-0.664 1.984-0.763 3.357h2.597c-0.099-1.373-0.389-2.539-0.763-3.357-0.225-0.496-0.415-0.748-0.536-0.873-0.12 0.125-0.311 0.377-0.536 0.873zM18.568 20.676c1.372-0.765 2.359-2.082 2.666-3.642l0.006-0.034h-1.937c-0.087 1.387-0.347 2.648-0.733 3.676zM19.301 15h1.939c-0.313-1.594-1.3-2.911-2.645-3.662l-0.027-0.014c0.387 1.027 0.648 2.291 0.733 3.676zM10.76 15h1.937c0.085-1.387 0.347-2.648 0.733-3.676-1.372 0.766-2.358 2.082-2.665 3.642l-0.006 0.034zM16 8.667c4.050 0 7.333 3.283 7.333 7.333s-3.283 7.333-7.333 7.333v0c-4.050 0-7.333-3.283-7.333-7.333s3.283-7.333 7.333-7.333v0z"></path>
</svg>
