<!-- Generated by IcoMoon.io -->
<svg version="1.1" xmlns="http://www.w3.org/2000/svg" width="32" height="32" viewBox="0 0 32 32">
<title>shield-keyhole</title>
<path d="M18.66 14.667c0 1.117-0.686 2.073-1.66 2.47v3.197c0 0.552-0.448 1-1 1s-1-0.448-1-1v-3.192c-0.98-0.394-1.672-1.353-1.672-2.475 0-1.472 1.194-2.666 2.666-2.666s2.666 1.194 2.666 2.666z"></path>
<path d="M5 6.667c-0.552 0-1 0.448-1 1v7c0 6.668 3.943 11.568 11.633 14.597 0.236 0.093 0.497 0.093 0.733 0 7.69-3.029 11.633-7.929 11.633-14.597v-7c0-0.552-0.448-1-1-1-3.551 0-7.011-1.258-10.4-3.8-0.356-0.267-0.844-0.267-1.2 0-3.389 2.542-6.849 3.8-10.4 3.8zM6 14.667v-6.029c3.436-0.203 6.774-1.453 10-3.733 3.226 2.281 6.564 3.531 10 3.733v6.029c0 5.674-3.271 9.839-10 12.589-6.729-2.751-10-6.915-10-12.589z"></path>
</svg>
