<!-- Generated by IcoMoon.io -->
<svg version="1.1" xmlns="http://www.w3.org/2000/svg" width="32" height="32" viewBox="0 0 32 32">
<title>shield-prohibited-regular</title>
<path d="M5 6.667c-0.552 0-1 0.448-1 1v0 7c0 6.668 3.944 11.568 11.633 14.597 0.109 0.044 0.235 0.070 0.367 0.070s0.258-0.026 0.373-0.072l-0.007 0.002c0.192-0.076 0.381-0.152 0.568-0.231-0.882-0.642-1.621-1.418-2.202-2.308l-0.020-0.033c-5.859-2.743-8.712-6.725-8.712-12.025v-6.029c3.436-0.203 6.773-1.453 10-3.733 3.227 2.28 6.564 3.531 10 3.733v5.672c0.751 0.397 1.398 0.864 1.97 1.409l-0.004-0.003c0.023-0.344 0.033-0.693 0.033-1.048v-7c0-0.552-0.448-1-1-1v0c-3.551 0-7.011-1.257-10.4-3.8-0.165-0.125-0.374-0.2-0.6-0.2s-0.435 0.075-0.602 0.202l0.002-0.002c-3.389 2.543-6.849 3.8-10.4 3.8zM22 29.333c4.050 0 7.333-3.283 7.333-7.333s-3.283-7.333-7.333-7.333v0c-4.050 0-7.333 3.283-7.333 7.333s3.283 7.333 7.333 7.333v0zM17.588 24.997c-0.578-0.84-0.923-1.879-0.923-2.999 0-2.946 2.388-5.333 5.333-5.333 1.12 0 2.159 0.345 3.017 0.935l-0.018-0.012-7.409 7.409zM19.001 26.411l7.411-7.408c0.578 0.84 0.923 1.879 0.923 2.999 0 2.946-2.388 5.333-5.333 5.333-1.12 0-2.159-0.345-3.017-0.935l0.018 0.012z"></path>
</svg>
