<!-- Generated by IcoMoon.io -->
<svg version="1.1" xmlns="http://www.w3.org/2000/svg" width="32" height="32" viewBox="0 0 32 32">
<title>shield-task-regular</title>
<path d="M21.742 12.769c0.153-0.151 0.247-0.361 0.247-0.592 0-0.46-0.373-0.833-0.833-0.833-0.218 0-0.416 0.084-0.565 0.221l0.001-0.001-6.745 6.438-2.424-2.425c-0.151-0.151-0.359-0.244-0.589-0.244-0.46 0-0.833 0.373-0.833 0.833 0 0.23 0.093 0.439 0.244 0.589v0l3 3c0.32 0.32 0.837 0.327 1.165 0.013l7.333-7zM16.577 2.899c-0.149-0.143-0.353-0.232-0.577-0.232s-0.427 0.088-0.577 0.232l0-0c-1.839 1.762-4.457 2.718-6.691 3.227-1.107 0.251-2.093 0.387-2.801 0.46-0.294 0.033-0.675 0.062-1.060 0.080l-0.043 0.002h-0.015c-0.452 0.011-0.813 0.38-0.813 0.833 0 0 0 0 0 0v0 6.333c0 3.225 0.829 6.439 2.732 9.183 1.907 2.751 4.86 4.979 9.019 6.279 0.162 0.051 0.335 0.051 0.497 0 8.378-2.618 11.751-8.964 11.751-15.295v-6.5c0-0 0-0 0-0 0-0.453-0.362-0.822-0.812-0.833l-0.001-0h-0.015l-0.053-0.002c-0.412-0.020-0.774-0.049-1.134-0.087l0.085 0.007c-1.075-0.112-2.029-0.275-2.962-0.491l0.16 0.031c-2.235-0.508-4.853-1.464-6.691-3.227zM5.667 13.833v-5.55c1.292-0.113 2.464-0.301 3.606-0.567l-0.172 0.034c2.145-0.487 4.807-1.401 6.899-3.135 2.091 1.733 4.753 2.647 6.899 3.135 0.971 0.232 2.142 0.421 3.338 0.526l0.097 0.007v5.717c0 5.607-2.896 11.199-10.333 13.625-3.707-1.209-6.26-3.195-7.899-5.559-1.68-2.422-2.435-5.291-2.435-8.233z"></path>
</svg>
