<!-- Generated by IcoMoon.io -->
<svg version="1.1" xmlns="http://www.w3.org/2000/svg" width="32" height="32" viewBox="0 0 32 32">
<title>shield-checkmark-regular</title>
<path d="M15.423 2.899c0.149-0.143 0.353-0.232 0.577-0.232s0.427 0.088 0.577 0.232l-0-0c1.839 1.762 4.456 2.718 6.691 3.227 1.106 0.251 2.093 0.387 2.801 0.46 0.294 0.033 0.675 0.062 1.060 0.080l0.043 0.002h0.015c0.452 0.011 0.813 0.38 0.813 0.833 0 0 0 0 0 0v0 6.5c0 0.655-0.036 1.309-0.11 1.96-0.458-0.289-0.986-0.55-1.54-0.757l-0.060-0.019c0.029-0.393 0.043-0.789 0.043-1.184v-5.717c-1.292-0.113-2.464-0.301-3.606-0.567l0.172 0.034c-2.146-0.487-4.807-1.401-6.899-3.135-2.092 1.733-4.753 2.647-6.899 3.135-0.97 0.232-2.142 0.421-3.338 0.526l-0.097 0.007v5.55c0 2.942 0.755 5.811 2.435 8.233 1.603 2.311 4.080 4.262 7.655 5.477 0.331 0.588 0.696 1.096 1.11 1.559l-0.007-0.008c-0.201 0.069-0.405 0.136-0.611 0.201-0.074 0.024-0.16 0.038-0.249 0.038s-0.174-0.014-0.255-0.040l0.006 0.002c-4.159-1.3-7.112-3.528-9.020-6.279-1.902-2.745-2.731-5.959-2.731-9.183v-6.333c0-0 0-0 0-0 0-0.453 0.362-0.822 0.812-0.833l0.001-0h0.015l0.053-0.002c0.412-0.020 0.774-0.049 1.134-0.087l-0.085 0.007c1.075-0.112 2.029-0.275 2.962-0.491l-0.16 0.031c2.235-0.508 4.852-1.464 6.691-3.227zM30.667 23.333c0-4.050-3.283-7.333-7.333-7.333s-7.333 3.283-7.333 7.333 3.283 7.333 7.333 7.333 7.333-3.283 7.333-7.333zM27.805 20.195c0.121 0.121 0.195 0.287 0.195 0.471s-0.075 0.351-0.195 0.471l-5.333 5.333c-0.121 0.121-0.287 0.195-0.471 0.195s-0.351-0.075-0.471-0.195l-2.667-2.667c-0.116-0.12-0.187-0.283-0.187-0.463 0-0.368 0.298-0.667 0.667-0.667 0.18 0 0.343 0.071 0.463 0.187l2.195 2.195 4.862-4.862c0.121-0.121 0.287-0.195 0.471-0.195s0.351 0.075 0.471 0.195v0z"></path>
</svg>
