<!-- Generated by IcoMoon.io -->
<svg version="1.1" xmlns="http://www.w3.org/2000/svg" width="32" height="32" viewBox="0 0 32 32">
<title>shifts-team-regular</title>
<path d="M23.667 4c2.393 0 4.333 1.94 4.333 4.333v0 15.333c0 2.393-1.94 4.333-4.333 4.333v0h-6.653c0.221-0.509 0.325-1.049 0.325-1.584 0-0.14-0.009-0.28-0.027-0.416h6.355c1.289 0 2.333-1.045 2.333-2.333v0-15.333c0-1.289-1.045-2.333-2.333-2.333v0h-15.333c-1.289 0-2.333 1.045-2.333 2.333v0 7.013c-0.749 0.057-1.432 0.298-2.017 0.677l0.017-0.010v-7.68c0-2.393 1.94-4.333 4.333-4.333v0h15.333zM15.667 8c0.504 0 0.921 0.373 0.99 0.859l0.001 0.005 0.009 0.136v7h4.997c0.552 0 1 0.448 1 1 0 0.504-0.373 0.921-0.858 0.99l-0.005 0.001-0.136 0.009h-5.997c-0.504-0-0.921-0.373-0.99-0.859l-0.001-0.005-0.009-0.136v-8c0-0.552 0.448-1 1-1v0zM6.333 22.667c1.657 0 3-1.343 3-3s-1.343-3-3-3v0c-1.657 0-3 1.343-3 3s1.343 3 3 3v0zM6.333 30.667c3.572 0 5-2.092 5-4.167 0-1.38-0.96-2.5-2.143-2.5h-5.715c-1.183 0-2.143 1.12-2.143 2.5 0 2.083 1.428 4.167 5 4.167zM15.333 21c0 1.289-1.045 2.333-2.333 2.333s-2.333-1.045-2.333-2.333v0c0-1.289 1.045-2.333 2.333-2.333s2.333 1.045 2.333 2.333v0zM11.888 29.333c0.539-0.88 0.776-1.873 0.776-2.833-0.001-0.668-0.159-1.298-0.438-1.858l0.011 0.024h2.053c0.947 0 1.715 0.784 1.715 1.751 0 1.453-1.143 2.916-4 2.916h-0.117z"></path>
</svg>
