<!-- Generated by IcoMoon.io -->
<svg version="1.1" xmlns="http://www.w3.org/2000/svg" width="32" height="32" viewBox="0 0 32 32">
<title>shifts-question-mark-regular</title>
<path d="M8.667 16c4.050 0 7.333 3.283 7.333 7.333s-3.283 7.333-7.333 7.333v0c-4.050 0-7.333-3.283-7.333-7.333s3.283-7.333 7.333-7.333v0zM8.667 26.507c-0.010-0-0.022-0.001-0.033-0.001-0.46 0-0.833 0.373-0.833 0.833s0.373 0.833 0.833 0.833c0.012 0 0.023-0 0.035-0.001l-0.002 0c0.446-0.018 0.8-0.384 0.8-0.833s-0.354-0.814-0.798-0.833l-0.002-0zM23.667 4c2.393 0 4.333 1.94 4.333 4.333v0 15.333c0 2.393-1.94 4.333-4.333 4.333v0l-7.697 0.001c0.375-0.575 0.696-1.237 0.929-1.939l0.018-0.061 6.751-0.001c1.289 0 2.333-1.045 2.333-2.333v0-15.333c0-1.289-1.045-2.333-2.333-2.333v0h-15.333c-1.289 0-2.333 1.045-2.333 2.333v0 6.752c-0.763 0.25-1.426 0.571-2.035 0.966l0.034-0.020 0.001-7.697c0-2.393 1.94-4.333 4.333-4.333v0h15.333zM8.667 18.671c-1.397 0-2.485 1.089-2.471 2.605 0.004 0.365 0.301 0.66 0.667 0.66 0.368 0 0.667-0.299 0.667-0.667 0-0.002 0-0.005-0-0.007v0c-0.008-0.771 0.48-1.259 1.137-1.259 0.629 0 1.137 0.523 1.137 1.267 0 0.299-0.1 0.52-0.423 0.903l-0.133 0.151-0.353 0.387c-0.645 0.723-0.895 1.189-0.895 1.957 0 0.368 0.298 0.667 0.667 0.667s0.667-0.298 0.667-0.667v0c0-0.311 0.101-0.537 0.432-0.927l0.133-0.153 0.355-0.387c0.637-0.713 0.884-1.176 0.884-1.931 0-1.472-1.096-2.6-2.471-2.6zM15.667 8c0.504 0 0.921 0.373 0.99 0.859l0.001 0.005 0.009 0.136v7h4.997c0.552 0 1 0.448 1 1 0 0.504-0.373 0.921-0.858 0.99l-0.005 0.001-0.136 0.009h-5.997c-0.504-0-0.921-0.373-0.99-0.859l-0.001-0.005-0.009-0.136v-8c0-0.552 0.448-1 1-1v0z"></path>
</svg>
