<!-- Generated by IcoMoon.io -->
<svg version="1.1" xmlns="http://www.w3.org/2000/svg" width="32" height="32" viewBox="0 0 32 32">
<title>shifts-open</title>
<path d="M6 8.333c0-1.289 1.045-2.333 2.333-2.333h4c0.552 0 1-0.448 1-1s-0.448-1-1-1h-4c-2.393 0-4.333 1.94-4.333 4.333v15.333c0 2.393 1.94 4.333 4.333 4.333h4c0.552 0 1-0.448 1-1s-0.448-1-1-1h-4c-1.289 0-2.333-1.045-2.333-2.333v-15.333z"></path>
<path d="M19.663 4c-0.552 0-1 0.448-1 1s0.448 1 1 1h4.004c1.289 0 2.333 1.045 2.333 2.333v15.333c0 1.289-1.045 2.333-2.333 2.333h-4.004c-0.552 0-1 0.448-1 1s0.448 1 1 1h4.004c2.393 0 4.333-1.94 4.333-4.333v-15.333c0-2.393-1.94-4.333-4.333-4.333h-4.004z"></path>
<path d="M16.667 9c0-0.552-0.448-1-1-1s-1 0.448-1 1v8c0 0.552 0.448 1 1 1h6c0.552 0 1-0.448 1-1s-0.448-1-1-1h-5v-7z"></path>
</svg>
