<!-- Generated by IcoMoon.io -->
<svg version="1.1" xmlns="http://www.w3.org/2000/svg" width="32" height="32" viewBox="0 0 32 32">
<title>shifts-activity</title>
<path d="M15.085 4.703c0.551-0.044 0.961-0.526 0.917-1.076s-0.526-0.961-1.076-0.917c-6.862 0.547-12.26 6.288-12.26 13.291 0 7.364 5.97 13.333 13.333 13.333 6.999 0 12.737-5.391 13.29-12.248 0.044-0.551-0.366-1.033-0.916-1.077s-1.033 0.366-1.077 0.916c-0.47 5.826-5.348 10.409-11.296 10.409-6.259 0-11.333-5.074-11.333-11.333 0-5.951 4.588-10.832 10.419-11.297z"></path>
<path d="M23.596 6.232c0.373-0.407 1.006-0.434 1.413-0.061 0.286 0.262 0.56 0.536 0.822 0.822 0.373 0.407 0.346 1.040-0.061 1.413s-1.040 0.346-1.413-0.061c-0.223-0.243-0.456-0.477-0.699-0.7-0.407-0.373-0.434-1.006-0.061-1.413z"></path>
<path d="M15 8c0.506 0 0.925 0.376 0.991 0.864l0.009 0.136v7h4.333c0.552 0 1 0.448 1 1 0 0.506-0.376 0.925-0.864 0.991l-0.136 0.009h-5.333c-0.506 0-0.925-0.377-0.991-0.864l-0.009-0.136v-8c0-0.552 0.448-1 1-1z"></path>
<path d="M18.375 3.853c0.149-0.532 0.701-0.842 1.233-0.693 0.489 0.137 0.967 0.302 1.432 0.492 0.511 0.209 0.756 0.793 0.548 1.304s-0.793 0.756-1.304 0.548c-0.395-0.161-0.8-0.301-1.216-0.417-0.532-0.149-0.842-0.701-0.693-1.233z"></path>
<path d="M28.345 10.954c-0.209-0.511-0.793-0.756-1.304-0.547s-0.756 0.793-0.547 1.304c0.123 0.301 0.233 0.608 0.331 0.921 0.031 0.099 0.060 0.199 0.088 0.299 0.149 0.532 0.701 0.842 1.233 0.693s0.842-0.701 0.693-1.233c-0.033-0.118-0.068-0.236-0.104-0.352-0.115-0.369-0.245-0.73-0.389-1.085z"></path>
</svg>
