<!-- Generated by IcoMoon.io -->
<svg version="1.1" xmlns="http://www.w3.org/2000/svg" width="32" height="32" viewBox="0 0 32 32">
<title>shifts-add</title>
<path d="M6 8.333c0-1.289 1.045-2.333 2.333-2.333h15.333c1.289 0 2.333 1.045 2.333 2.333v15.333c0 1.289-1.045 2.333-2.333 2.333h-6.751c-0.23 0.711-0.549 1.382-0.944 2h7.696c2.393 0 4.333-1.94 4.333-4.333v-15.333c0-2.393-1.94-4.333-4.333-4.333h-15.333c-2.393 0-4.333 1.94-4.333 4.333v7.696c0.618-0.395 1.289-0.715 2-0.944v-6.751z"></path>
<path d="M8.667 16c4.050 0 7.333 3.283 7.333 7.333s-3.283 7.333-7.333 7.333c-4.050 0-7.333-3.283-7.333-7.333s3.283-7.333 7.333-7.333zM9.335 27.338l-0.001-3.338h3.336c0.368 0 0.667-0.298 0.667-0.667s-0.298-0.667-0.667-0.667h-3.337l-0.001-3.334c0-0.368-0.298-0.667-0.667-0.667s-0.667 0.298-0.667 0.667l0.001 3.334h-3.339c-0.368 0-0.667 0.299-0.667 0.667s0.298 0.667 0.667 0.667h3.339l0.001 3.338c0 0.368 0.298 0.667 0.667 0.667s0.667-0.298 0.667-0.667z"></path>
<path d="M16.667 9c0-0.552-0.448-1-1-1s-1 0.448-1 1v8c0 0.552 0.448 1 1 1h6c0.552 0 1-0.448 1-1s-0.448-1-1-1h-5v-7z"></path>
</svg>
