<!-- Generated by IcoMoon.io -->
<svg version="1.1" xmlns="http://www.w3.org/2000/svg" width="32" height="32" viewBox="0 0 32 32">
<title>shifts-team</title>
<path d="M8.667 16c4.050 0 7.333 3.283 7.333 7.333s-3.283 7.333-7.333 7.333c-4.050 0-7.333-3.283-7.333-7.333s3.283-7.333 7.333-7.333zM23.667 4c2.393 0 4.333 1.94 4.333 4.333v15.333c0 2.393-1.94 4.333-4.333 4.333l-7.697 0.002c0.396-0.618 0.715-1.289 0.945-2.001l6.751-0.001c1.289 0 2.333-1.045 2.333-2.333v-15.333c0-1.289-1.045-2.333-2.333-2.333h-15.333c-1.289 0-2.333 1.045-2.333 2.333l-0.001 6.751c-0.712 0.23-1.383 0.549-2.001 0.945l0.002-7.697c0-2.393 1.94-4.333 4.333-4.333h15.333zM8.667 23.333h-4c-0.327 0-0.599 0.236-0.656 0.547l-0.011 0.12v0.661c0 1.326 1.009 1.997 2.667 1.997 1.575 0 2.564-0.605 2.659-1.802l0.008-0.194v-0.663c0-0.368-0.298-0.667-0.667-0.667zM12.694 23.315l-2.148-0.002c0.059 0.161 0.098 0.331 0.113 0.508l0.008 0.179v0.663l-0.010 0.283c-0.026 0.369-0.102 0.704-0.223 1.007 0.178 0.018 0.367 0.027 0.567 0.027 1.368 0 2.257-0.427 2.351-1.381l0.008-0.174v-0.443c0-0.327-0.236-0.599-0.547-0.656l-0.12-0.011zM6.667 19.333c-0.738 0-1.336 0.598-1.336 1.336s0.598 1.336 1.336 1.336c0.738 0 1.336-0.598 1.336-1.336s-0.598-1.336-1.336-1.336zM10.84 19.677c-0.643 0-1.164 0.521-1.164 1.164s0.521 1.164 1.164 1.164c0.643 0 1.164-0.521 1.164-1.164s-0.521-1.164-1.164-1.164zM15.667 8c0.506 0 0.925 0.376 0.991 0.864l0.009 0.136v7h4.998c0.552 0 1 0.448 1 1 0 0.506-0.376 0.925-0.864 0.991l-0.136 0.009h-5.998c-0.063 0-0.125-0.006-0.185-0.017-0.247-0.319-0.519-0.618-0.809-0.897l-0.006-0.086v-8c0-0.552 0.448-1 1-1z"></path>
</svg>
