<!-- Generated by IcoMoon.io -->
<svg version="1.1" xmlns="http://www.w3.org/2000/svg" width="32" height="32" viewBox="0 0 32 32">
<title>shifts-availability</title>
<path d="M11.333 4.667c-0.002 0-0.005 0-0.007 0-3.682 0-6.667 2.985-6.667 6.667 0 3.577 2.817 6.496 6.354 6.659l0.015 0.001c-0.167 0.579-0.287 1.255-0.336 1.951l-0.002 0.031c-4.502-0.345-8.024-4.082-8.024-8.643 0-4.786 3.88-8.667 8.667-8.667 4.56 0 8.298 3.522 8.641 7.995l0.002 0.029c-0.727 0.050-1.404 0.17-2.053 0.354l0.070-0.017c-0.168-3.548-3.085-6.361-6.66-6.361-0 0-0 0-0 0h0zM19.037 17.645c-0.181-0.179-0.429-0.29-0.704-0.29-0.552 0-1 0.448-1 1 0 0.278 0.113 0.529 0.296 0.711l1.62 1.604-1.623 1.623c-0.196 0.183-0.318 0.443-0.318 0.732 0 0.552 0.448 1 1 1 0.289 0 0.549-0.122 0.731-0.318l0.001-0.001 1.627-1.625 1.62 1.625c0.181 0.181 0.431 0.294 0.708 0.294 0.552 0 1-0.448 1-1 0-0.276-0.112-0.526-0.292-0.707l-1.62-1.623 1.616-1.605c0.175-0.18 0.283-0.426 0.283-0.697 0-0.552-0.448-1-1-1-0.269 0-0.513 0.106-0.693 0.279l0-0-1.623 1.612-1.628-1.613zM20.667 12c-4.786 0-8.667 3.88-8.667 8.667s3.88 8.667 8.667 8.667v0c4.786 0 8.667-3.88 8.667-8.667s-3.88-8.667-8.667-8.667v0zM14 20.667c0-3.682 2.985-6.667 6.667-6.667s6.667 2.985 6.667 6.667v0c0 3.682-2.985 6.667-6.667 6.667s-6.667-2.985-6.667-6.667v0zM15.040 8.96c0.181 0.181 0.292 0.431 0.292 0.707s-0.112 0.526-0.292 0.707v0l-4 4c-0.181 0.181-0.431 0.292-0.707 0.292s-0.526-0.112-0.707-0.292v0l-2-2.003c-0.173-0.18-0.28-0.425-0.28-0.694 0-0.552 0.448-1 1-1 0.27 0 0.515 0.107 0.695 0.281l-0-0 1.293 1.295 3.292-3.293c0.181-0.181 0.431-0.292 0.707-0.292s0.526 0.112 0.707 0.292v0z"></path>
</svg>
