<!-- Generated by IcoMoon.io -->
<svg version="1.1" xmlns="http://www.w3.org/2000/svg" width="32" height="32" viewBox="0 0 32 32">
<title>shifts-question-mark</title>
<path d="M8.667 16c4.050 0 7.333 3.283 7.333 7.333s-3.283 7.333-7.333 7.333c-4.050 0-7.333-3.283-7.333-7.333s3.283-7.333 7.333-7.333zM8.667 26.507c-0.46 0-0.833 0.373-0.833 0.833s0.373 0.833 0.833 0.833c0.46 0 0.833-0.373 0.833-0.833s-0.373-0.833-0.833-0.833zM23.667 4c2.393 0 4.333 1.94 4.333 4.333v15.333c0 2.393-1.94 4.333-4.333 4.333l-7.697 0.002c0.396-0.618 0.715-1.289 0.945-2.001l6.751-0.001c1.289 0 2.333-1.045 2.333-2.333v-15.333c0-1.289-1.045-2.333-2.333-2.333h-15.333c-1.289 0-2.333 1.045-2.333 2.333l-0.001 6.751c-0.712 0.23-1.383 0.549-2.001 0.945l0.002-7.697c0-2.393 1.94-4.333 4.333-4.333h15.333zM8.667 18.671c-1.397 0-2.486 1.090-2.471 2.606 0.004 0.368 0.305 0.664 0.673 0.66s0.664-0.305 0.66-0.673c-0.007-0.772 0.48-1.26 1.138-1.26 0.63 0 1.138 0.523 1.138 1.266 0 0.299-0.1 0.521-0.424 0.903l-0.132 0.151-0.354 0.387c-0.646 0.722-0.895 1.19-0.895 1.956 0 0.368 0.298 0.667 0.667 0.667s0.667-0.299 0.667-0.667c0-0.31 0.102-0.537 0.432-0.926l0.135-0.154 0.354-0.387c0.637-0.712 0.884-1.176 0.884-1.93 0-1.472-1.096-2.599-2.471-2.599zM15.667 8c0.506 0 0.925 0.376 0.991 0.864l0.009 0.136v7h4.998c0.552 0 1 0.448 1 1 0 0.506-0.376 0.925-0.864 0.991l-0.136 0.009h-5.998c-0.506 0-0.925-0.376-0.991-0.864l-0.009-0.136v-8c0-0.552 0.448-1 1-1z"></path>
</svg>
