<!-- Generated by IcoMoon.io -->
<svg version="1.1" xmlns="http://www.w3.org/2000/svg" width="32" height="32" viewBox="0 0 32 32">
<title>shifts-30-minutes</title>
<path d="M20.667 7.333c0-2.577-2.089-4.667-4.667-4.667s-4.667 2.089-4.667 4.667v0c0 2.577 2.089 4.667 4.667 4.667s4.667-2.089 4.667-4.667v0zM13.333 7.333c0-1.473 1.194-2.667 2.667-2.667s2.667 1.194 2.667 2.667v0c0 1.473-1.194 2.667-2.667 2.667s-2.667-1.194-2.667-2.667v0zM11.667 13.333c-1.657 0-3 1.343-3 3v0 0.667c0 0.552 0.448 1 1 1s1-0.448 1-1v0-0.667c0-0.552 0.448-1 1-1v0h8.667c0.552 0 1 0.448 1 1v0 0.667c0 0.552 0.448 1 1 1s1-0.448 1-1v0-0.667c0-1.657-1.343-3-3-3v0h-8.667zM8.663 22.665c0 0.013 0.001 0.027 0.001 0.042 0 0.736-0.596 1.332-1.332 1.332s-1.332-0.596-1.332-1.332c0-0.015 0-0.030 0.001-0.044l-0 0.002c0.023-0.717 0.611-1.29 1.331-1.29s1.308 0.573 1.331 1.288l0 0.002zM7.333 28.663c0.013 0 0.027 0.001 0.042 0.001 0.736 0 1.332-0.596 1.332-1.332s-0.596-1.332-1.332-1.332c-0.015 0-0.030 0-0.044 0.001l0.002-0c-0.717 0.023-1.29 0.611-1.29 1.331s0.573 1.308 1.288 1.331l0.002 0zM13.483 22.036c-0.341 0.090-0.638 0.242-0.895 0.443l0.005-0.004c-0.168 0.132-0.383 0.212-0.616 0.212-0.552 0-1-0.448-1-1 0-0.319 0.149-0.603 0.382-0.786l0.002-0.002c0.356-0.279 0.947-0.64 1.661-0.808 0.737-0.173 1.653-0.151 2.516 0.436 1.043 0.707 1.392 1.959 1.225 2.981-0.067 0.397-0.207 0.752-0.407 1.065l0.007-0.011c0.232 0.267 0.408 0.572 0.523 0.896 0.331 0.939 0.177 2.108-0.633 2.916-0.793 0.788-1.857 1.021-2.773 0.973-0.907-0.048-1.836-0.376-2.468-0.933-0.194-0.183-0.315-0.442-0.315-0.729 0-0.552 0.448-1 1-1 0.243 0 0.465 0.086 0.638 0.23l-0.002-0.001c0.229 0.203 0.701 0.407 1.251 0.436 0.539 0.028 0.981-0.119 1.259-0.395 0.13-0.143 0.21-0.334 0.21-0.543 0-0.103-0.019-0.202-0.055-0.293l0.002 0.006c-0.093-0.269-0.3-0.457-0.667-0.457h-0.667c-0.552 0-1-0.448-1-1s0.448-1 1-1v0h0.667c0.156 0 0.233-0.048 0.285-0.1 0.091-0.103 0.153-0.234 0.17-0.379l0-0.003c0.067-0.409-0.096-0.815-0.373-1.003-0.291-0.197-0.597-0.224-0.933-0.144zM22 20c-1.159 0-2.080 0.496-2.649 1.444-0.516 0.859-0.685 1.996-0.685 3.223s0.169 2.364 0.685 3.224c0.569 0.947 1.489 1.443 2.649 1.443 1.152 0 2.077-0.487 2.648-1.435 0.517-0.859 0.685-1.997 0.685-3.232 0-1.233-0.168-2.373-0.685-3.231-0.571-0.949-1.496-1.436-2.648-1.436zM20.665 24.667c0-1.107 0.165-1.803 0.4-2.193 0.181-0.301 0.427-0.473 0.933-0.473 0.515 0 0.757 0.171 0.936 0.467 0.233 0.388 0.399 1.083 0.399 2.2 0 1.119-0.165 1.813-0.399 2.2-0.179 0.296-0.421 0.467-0.935 0.467-0.509 0-0.753-0.171-0.935-0.473-0.235-0.391-0.4-1.087-0.4-2.193z"></path>
</svg>
