<!-- Generated by IcoMoon.io -->
<svg version="1.1" xmlns="http://www.w3.org/2000/svg" width="32" height="32" viewBox="0 0 32 32">
<title>shifts-regular</title>
<path d="M15.006 8c0.552 0 1 0.448 1 1v0 7h5c0.552 0 1 0.448 1 1s-0.448 1-1 1v0h-6c-0.552 0-1-0.448-1-1v0-8c0-0.552 0.448-1 1-1v0zM9 4c-2.761 0-5 2.239-5 5v0 14c0 2.761 2.239 5 5 5v0h14c2.761 0 5-2.239 5-5v0-14c0-2.761-2.239-5-5-5v0h-14zM6 9c0-1.657 1.343-3 3-3v0h14c1.657 0 3 1.343 3 3v0 14c0 1.657-1.343 3-3 3v0h-14c-1.657 0-3-1.343-3-3v0-14z"></path>
</svg>
