<!-- Generated by IcoMoon.io -->
<svg version="1.1" xmlns="http://www.w3.org/2000/svg" width="32" height="32" viewBox="0 0 32 32">
<title>shifts-add-regular</title>
<path d="M6 8.333c0-1.288 1.045-2.333 2.333-2.333h15.333c1.288 0 2.333 1.045 2.333 2.333v15.333c0 1.289-1.045 2.333-2.333 2.333v0h-6.751c-0.25 0.763-0.571 1.425-0.966 2.034l0.020-0.034h7.696c2.393 0 4.333-1.94 4.333-4.333v0-15.333c0-2.393-1.94-4.333-4.333-4.333v0h-15.333c-2.393 0-4.333 1.94-4.333 4.333v0 7.696c0.575-0.375 1.237-0.695 1.939-0.928l0.061-0.018v-6.751zM8.667 16c4.050 0 7.333 3.283 7.333 7.333s-3.283 7.333-7.333 7.333v0c-4.050 0-7.333-3.283-7.333-7.333s3.283-7.333 7.333-7.333v0zM9.335 27.337v-3.337h3.336c0.368 0 0.667-0.298 0.667-0.667s-0.298-0.667-0.667-0.667v0h-3.337v-3.333c0-0.368-0.298-0.667-0.667-0.667s-0.667 0.298-0.667 0.667v0 3.333h-3.339c-0.368 0-0.667 0.298-0.667 0.667s0.298 0.667 0.667 0.667v0h3.34v3.337c0 0.368 0.298 0.667 0.667 0.667s0.667-0.298 0.667-0.667v0zM16.667 9c0-0.552-0.448-1-1-1s-1 0.448-1 1v0 8c0 0.552 0.448 1 1 1h6c0.552 0 1-0.448 1-1s-0.448-1-1-1v0h-5v-7z"></path>
</svg>
