<!-- Generated by IcoMoon.io -->
<svg version="1.1" xmlns="http://www.w3.org/2000/svg" width="32" height="32" viewBox="0 0 32 32">
<title>shopping-bag-tag</title>
<path d="M9.333 9.333v-2.667c0-2.209 1.791-4 4-4 1.025 0 1.959 0.385 2.667 1.019 0.708-0.633 1.642-1.019 2.667-1.019 2.209 0 4 1.791 4 4v2.667h2c1.105 0 2 0.895 2 2v5.757l-1.291-1.272c-0.216-0.213-0.454-0.399-0.709-0.556v-3.93h-5.32v3.336l-0.679 0.001c-0.463 0-0.908 0.079-1.321 0.224v-3.56h-10.013v12.667c0 1.841 1.492 3.333 3.333 3.333h7.067l1.965 2h-9.032c-2.946 0-5.333-2.388-5.333-5.333v-12.667c0-1.105 0.895-2 2-2h2zM15.333 9.333v-2.667c0-1.105-0.895-2-2-2s-2 0.895-2 2v2.667h4zM17.333 9.333h3.333v-2.667c0-1.105-0.895-2-2-2-0.62 0-1.174 0.282-1.541 0.725 0.135 0.4 0.207 0.829 0.207 1.275v2.667zM16.763 24.443l5.335 5.43c1.042 1.060 2.753 1.068 3.803 0.016l3.991-3.996c1.043-1.045 1.036-2.735-0.016-3.772l-5.435-5.352c-0.501-0.493-1.177-0.769-1.88-0.769l-3.89 0.003c-1.475 0.001-2.669 1.192-2.669 2.661v3.915c0 0.696 0.274 1.365 0.763 1.863zM21.328 20c0 0.736-0.596 1.333-1.332 1.333s-1.332-0.597-1.332-1.333 0.596-1.333 1.332-1.333c0.736 0 1.332 0.597 1.332 1.333z"></path>
</svg>
