<!-- Generated by IcoMoon.io -->
<svg version="1.1" xmlns="http://www.w3.org/2000/svg" width="32" height="32" viewBox="0 0 32 32">
<title>shopping-bag-dismiss</title>
<path d="M9.333 9.333v-2.667c0-2.209 1.791-4 4-4 1.026 0 1.962 0.386 2.67 1.022l-0.004-0.003c0.704-0.632 1.64-1.019 2.667-1.019 2.209 0 4 1.791 4 4v0 2.667h2c1.105 0 2 0.895 2 2v0 3.997c-0.577-0.249-1.25-0.445-1.951-0.556l-0.049-0.006v-3.435h-5.32v4.303c-0.765 0.402-1.422 0.878-2.003 1.434l0.003-0.003v-5.733h-10.013v12.667c0 1.841 1.492 3.333 3.333 3.333v0h4.976c0.404 0.765 0.882 1.422 1.44 2.003l-0.003-0.003h-6.413c-2.946 0-5.333-2.388-5.333-5.333v0-12.667c0-1.105 0.895-2 2-2v0h2zM15.333 9.333v-2.667c0-1.105-0.895-2-2-2s-2 0.895-2 2v0 2.667h4zM17.333 9.333h3.333v-2.667c0-0 0-0 0-0 0-1.105-0.895-2-2-2-0.619 0-1.172 0.281-1.539 0.722l-0.003 0.003c0.135 0.4 0.208 0.829 0.208 1.275v2.667zM30.667 23.333c0 4.050-3.283 7.333-7.333 7.333s-7.333-3.283-7.333-7.333v0c0-4.050 3.283-7.333 7.333-7.333s7.333 3.283 7.333 7.333v0zM21.139 20.195c-0.121-0.121-0.288-0.195-0.472-0.195-0.369 0-0.668 0.299-0.668 0.668 0 0.184 0.075 0.351 0.195 0.472v0l2.196 2.195-2.196 2.195c-0.121 0.121-0.195 0.288-0.195 0.472 0 0.369 0.299 0.668 0.668 0.668 0.184 0 0.351-0.075 0.472-0.195l2.195-2.196 2.195 2.196c0.121 0.121 0.288 0.195 0.472 0.195 0.369 0 0.668-0.299 0.668-0.668 0-0.184-0.075-0.351-0.195-0.472l-2.196-2.195 2.196-2.195c0.121-0.121 0.195-0.288 0.195-0.472 0-0.369-0.299-0.668-0.668-0.668-0.184 0-0.351 0.075-0.472 0.195l-2.195 2.196-2.195-2.196z"></path>
</svg>
