<!-- Generated by IcoMoon.io -->
<svg version="1.1" xmlns="http://www.w3.org/2000/svg" width="32" height="32" viewBox="0 0 32 32">
<title>shopping-bag-tag</title>
<path d="M9.333 9.333v-2.667c0-2.209 1.791-4 4-4 1.026 0 1.962 0.386 2.67 1.022l-0.004-0.003c0.704-0.632 1.64-1.019 2.667-1.019 2.209 0 4 1.791 4 4v0 2.667h2c1.105 0 2 0.895 2 2v0 5.757l-1.292-1.272c-0.216-0.213-0.453-0.399-0.708-0.556v-3.929h-5.32v3.336h-0.679c-0.463 0-0.907 0.080-1.321 0.224v-3.56h-10.013v12.667c0 1.841 1.492 3.333 3.333 3.333v0h7.067l1.965 2h-9.032c-2.946 0-5.333-2.388-5.333-5.333v0-12.667c0-1.105 0.895-2 2-2v0h2zM15.333 9.333v-2.667c0-1.105-0.895-2-2-2s-2 0.895-2 2v0 2.667h4zM17.333 9.333h3.333v-2.667c0-0 0-0 0-0 0-1.105-0.895-2-2-2-0.619 0-1.172 0.281-1.539 0.722l-0.003 0.003c0.135 0.4 0.208 0.829 0.208 1.275v2.667zM16.763 24.443l5.335 5.429c1.041 1.061 2.752 1.067 3.803 0.016l3.991-3.995c0.481-0.481 0.779-1.145 0.779-1.879 0-0.742-0.304-1.412-0.794-1.894l-0-0-5.435-5.351c-0.483-0.476-1.146-0.769-1.878-0.769-0.001 0-0.001 0-0.002 0l-3.891 0.003c-0.001 0-0.002 0-0.003 0-1.471 0-2.664 1.191-2.667 2.661v3.916c0 0.696 0.273 1.365 0.763 1.863zM21.328 20c0 0 0 0 0 0.001 0 0.736-0.597 1.333-1.333 1.333s-1.333-0.597-1.333-1.333v-0c0-0 0-0 0-0.001 0-0.736 0.597-1.333 1.333-1.333s1.333 0.597 1.333 1.333v0z"></path>
</svg>
