<!-- Generated by IcoMoon.io -->
<svg version="1.1" xmlns="http://www.w3.org/2000/svg" width="32" height="32" viewBox="0 0 32 32">
<title>shopping-bag-play-regular</title>
<path d="M9.333 6.667v2.667h-2c-1.105 0-2 0.895-2 2v0 12.667c0 2.946 2.388 5.333 5.333 5.333v0h6.413c-0.555-0.578-1.034-1.235-1.415-1.953l-0.023-0.047h-4.976c-1.841 0-3.333-1.492-3.333-3.333v0-12.667h10v5.747c0.578-0.555 1.235-1.034 1.953-1.415l0.047-0.023v-4.309h5.333v3.435c0.75 0.118 1.423 0.314 2.056 0.584l-0.056-0.021v-3.997c0-1.105-0.895-2-2-2v0h-2v-2.667c-0-2.209-1.791-4-4-4-1.026 0-1.962 0.386-2.67 1.022l0.004-0.003c-0.704-0.632-1.64-1.019-2.667-1.019-2.209 0-4 1.791-4 4v0zM13.333 4.667c1.105 0 2 0.895 2 2v0 2.667h-4v-2.667c0-1.105 0.895-2 2-2v0zM20.667 9.333h-3.333v-2.667c0-0.445-0.073-0.875-0.208-1.275 0.369-0.445 0.923-0.726 1.541-0.726 1.105 0 2 0.895 2 2 0 0 0 0 0 0v0 2.667zM30.667 23.333c0 4.050-3.283 7.333-7.333 7.333s-7.333-3.283-7.333-7.333v0c0-4.050 3.283-7.333 7.333-7.333s7.333 3.283 7.333 7.333v0zM22.551 20.129c-0.117-0.081-0.261-0.13-0.417-0.13-0.113 0-0.221 0.026-0.317 0.071l0.004-0.002c-0.099 0.044-0.183 0.104-0.253 0.177l-0 0c-0.146 0.149-0.236 0.354-0.236 0.579 0 0.001 0 0.002 0 0.003v-0 5.009c0 0.109 0.021 0.213 0.063 0.315 0.045 0.103 0.104 0.191 0.174 0.267l-0.001-0.001c0.073 0.073 0.159 0.135 0.253 0.18l0.006 0.002c0.089 0.041 0.193 0.065 0.302 0.065 0.102 0 0.2-0.021 0.288-0.058l-0.005 0.002c0.058-0.024 0.108-0.052 0.155-0.083l-0.003 0.002 3.741-2.553c0.114-0.075 0.205-0.178 0.265-0.298l0.002-0.004c0.059-0.114 0.093-0.249 0.093-0.393 0-0.001 0-0.002 0-0.004v0c0-0.003 0-0.006 0-0.009 0-0.142-0.037-0.276-0.101-0.392l0.002 0.004c-0.066-0.122-0.158-0.223-0.27-0.295l-0.003-0.002-3.743-2.453z"></path>
</svg>
