<!-- Generated by IcoMoon.io -->
<svg version="1.1" xmlns="http://www.w3.org/2000/svg" width="32" height="32" viewBox="0 0 32 32">
<title>shopping-bag-pause-regular</title>
<path d="M9.6 9.6v-2.56c0-2.121 1.719-3.84 3.84-3.84 0.985 0 1.884 0.371 2.564 0.981l-0.004-0.003c0.676-0.607 1.575-0.978 2.56-0.978 2.121 0 3.84 1.719 3.84 3.84v0 2.56h1.92c1.060 0 1.92 0.86 1.92 1.92v0 3.837c-0.554-0.239-1.2-0.427-1.873-0.534l-0.047-0.006v-3.297h-5.107v4.131c-0.734 0.386-1.365 0.843-1.923 1.376l0.003-0.003v-5.504h-9.613v12.16c0 1.767 1.433 3.2 3.2 3.2v0h4.777c0.387 0.734 0.847 1.366 1.382 1.923l-0.003-0.003h-6.157c-2.828 0-5.12-2.292-5.12-5.12v0-12.16c0-1.060 0.86-1.92 1.92-1.92v0h1.92zM15.36 9.6v-2.56c0-1.060-0.86-1.92-1.92-1.92s-1.92 0.86-1.92 1.92v0 2.56h3.84zM17.28 9.6h3.2v-2.56c0-0 0-0 0-0 0-1.060-0.86-1.92-1.92-1.92-0.594 0-1.125 0.27-1.477 0.693l-0.003 0.003c0.129 0.384 0.2 0.796 0.2 1.224v2.56zM30.080 23.040c0 3.888-3.152 7.040-7.040 7.040s-7.040-3.152-7.040-7.040v0c0-3.888 3.152-7.040 7.040-7.040s7.040 3.152 7.040 7.040v0zM20.48 19.2c-0.353 0-0.64 0.287-0.64 0.64v0 6.4c0 0.353 0.287 0.64 0.64 0.64s0.64-0.287 0.64-0.64v0-6.4c0-0.353-0.287-0.64-0.64-0.64v0zM25.6 19.2c-0.353 0-0.64 0.287-0.64 0.64v0 6.4c0 0.353 0.287 0.64 0.64 0.64s0.64-0.287 0.64-0.64v0-6.4c0-0.353-0.287-0.64-0.64-0.64v0z"></path>
</svg>
