<!-- Generated by IcoMoon.io -->
<svg version="1.1" xmlns="http://www.w3.org/2000/svg" width="32" height="32" viewBox="0 0 32 32">
<title>shopping-bag-arrow-left-regular</title>
<path d="M30.667 23.333c0-4.050-3.283-7.333-7.333-7.333s-7.333 3.283-7.333 7.333v0c0 4.050 3.283 7.333 7.333 7.333s7.333-3.283 7.333-7.333v0zM22.2 19.528l0.093-0.076c0.106-0.074 0.237-0.118 0.379-0.118 0.184 0 0.35 0.074 0.47 0.194l-0-0 0.077 0.093c0.074 0.106 0.118 0.237 0.118 0.379 0 0.184-0.075 0.351-0.196 0.472v0l-2.195 2.195h6.387l0.119 0.011c0.313 0.059 0.547 0.33 0.547 0.656 0 0 0 0 0 0v0l-0.011 0.12c-0.059 0.313-0.33 0.547-0.656 0.547-0 0-0 0-0 0h-6.385l2.195 2.195 0.077 0.093c0.075 0.106 0.119 0.238 0.119 0.38 0 0.368-0.298 0.667-0.667 0.667-0.185 0-0.352-0.075-0.472-0.196l-3.355-3.356-0.067-0.088-0.045-0.081-0.040-0.107-0.019-0.115 0.003-0.147 0.025-0.113 0.031-0.079 0.059-0.103 0.053-0.067 3.355-3.356zM9.333 9.333v-2.667c0-2.209 1.791-4 4-4 1.026 0 1.962 0.386 2.67 1.022l-0.004-0.003c0.704-0.632 1.64-1.019 2.667-1.019 2.209 0 4 1.791 4 4v0 2.667h2c1.105 0 2 0.895 2 2v0 3.997c-0.577-0.249-1.25-0.445-1.951-0.556l-0.049-0.006v-3.435h-5.333v4.309c-0.765 0.404-1.422 0.882-2.003 1.44l0.003-0.003v-5.747h-10v12.667c0 1.841 1.492 3.333 3.333 3.333v0h4.976c0.404 0.765 0.882 1.422 1.44 2.003l-0.003-0.003h-6.413c-2.946 0-5.333-2.388-5.333-5.333v0-12.667c0-1.105 0.895-2 2-2v0h2zM13.333 4.667c-1.105 0-2 0.895-2 2v0 2.667h4v-2.667c0-1.105-0.895-2-2-2v0zM20.667 9.333v-2.667c0-0 0-0 0-0 0-1.105-0.895-2-2-2-0.619 0-1.172 0.281-1.539 0.722l-0.003 0.003c0.135 0.4 0.208 0.829 0.208 1.275v2.667h3.333z"></path>
</svg>
