<!-- Generated by IcoMoon.io -->
<svg version="1.1" xmlns="http://www.w3.org/2000/svg" width="32" height="32" viewBox="0 0 32 32">
<title>shopping-bag-percent</title>
<path d="M9.333 6.667v2.667h-2c-1.105 0-2 0.895-2 2v0 12.667c0 2.946 2.388 5.333 5.333 5.333v0h5.557c-0.142-0.293-0.224-0.637-0.224-1s0.083-0.707 0.231-1.014l-0.006 0.014h-5.557c-1.841 0-3.333-1.492-3.333-3.333v0-12.667h10.013v3.776c0.58-0.279 1.261-0.443 1.98-0.443 0.002 0 0.005 0 0.007 0h0.013v-3.333h5.32v7.367l2-2v-5.367c0-1.105-0.895-2-2-2v0h-2v-2.667c-0-2.209-1.791-4-4-4-1.026 0-1.962 0.386-2.67 1.022l0.004-0.003c-0.704-0.632-1.64-1.019-2.667-1.019-2.209 0-4 1.791-4 4v0zM15.333 6.667v2.667h-4v-2.667c0-1.105 0.895-2 2-2s2 0.895 2 2v0zM20.667 9.333h-3.333v-2.667c0-0.445-0.073-0.875-0.208-1.275 0.369-0.445 0.923-0.726 1.541-0.726 1.105 0 2 0.895 2 2 0 0 0 0 0 0v0 2.667zM19.333 22.667c1.841 0 3.333-1.492 3.333-3.333s-1.492-3.333-3.333-3.333v0c-1.841 0-3.333 1.492-3.333 3.333s1.492 3.333 3.333 3.333v0zM19.333 18c0.736 0 1.333 0.597 1.333 1.333s-0.597 1.333-1.333 1.333v0c-0.736 0-1.333-0.597-1.333-1.333s0.597-1.333 1.333-1.333v0zM27.333 30.667c1.841 0 3.333-1.492 3.333-3.333s-1.492-3.333-3.333-3.333v0c-1.841 0-3.333 1.492-3.333 3.333s1.492 3.333 3.333 3.333v0zM27.333 26c0.736 0 1.333 0.597 1.333 1.333s-0.597 1.333-1.333 1.333v0c-0.736 0-1.333-0.597-1.333-1.333s0.597-1.333 1.333-1.333v0zM29.040 19.040c0.196-0.183 0.318-0.443 0.318-0.732 0-0.552-0.448-1-1-1-0.289 0-0.549 0.122-0.731 0.318l-0.001 0.001-10 10c-0.196 0.183-0.318 0.443-0.318 0.732 0 0.552 0.448 1 1 1 0.289 0 0.549-0.122 0.731-0.318l0.001-0.001 10-10z"></path>
</svg>
