<!-- Generated by IcoMoon.io -->
<svg version="1.1" xmlns="http://www.w3.org/2000/svg" width="32" height="32" viewBox="0 0 32 32">
<title>shortpick</title>
<path d="M11.952 4.667h-0.619v2.667h0.619c0.552 0 1 0.448 1 1s-0.448 1-1 1h-0.952c-0.92 0-1.667-0.746-1.667-1.667v-3.333c0-0.92 0.746-1.667 1.667-1.667h0.952c0.552 0 1 0.448 1 1s-0.448 1-1 1zM15.333 2.667c-0.552 0-1 0.448-1 1s0.448 1 1 1h1.333c0.552 0 1-0.448 1-1s-0.448-1-1-1h-1.333zM20.048 2.667c-0.552 0-1 0.448-1 1s0.448 1 1 1h0.619v2.667h-0.619c-0.552 0-1 0.448-1 1s0.448 1 1 1h0.952c0.921 0 1.667-0.746 1.667-1.667v-3.333c0-0.92-0.746-1.667-1.667-1.667h-0.952zM15.333 7.333c-0.552 0-1 0.448-1 1s0.448 1 1 1h1.333c0.552 0 1-0.448 1-1s-0.448-1-1-1h-1.333zM7.333 11.667c0-0.552-0.448-1-1-1s-1 0.448-1 1v13.333c0 2.393 1.94 4.333 4.333 4.333h12.667c2.393 0 4.333-1.94 4.333-4.333v-13.333c0-0.552-0.448-1-1-1s-1 0.448-1 1v13.333c0 1.289-1.045 2.333-2.333 2.333h-12.667c-1.289 0-2.333-1.045-2.333-2.333v-13.333zM11 18.667c-0.92 0-1.667 0.746-1.667 1.667v3.333c0 0.921 0.746 1.667 1.667 1.667h10c0.921 0 1.667-0.746 1.667-1.667v-3.333c0-0.921-0.746-1.667-1.667-1.667h-10zM11.333 23.333v-2.667h9.333v2.667h-9.333zM11.333 12.667h0.619c0.552 0 1-0.448 1-1s-0.448-1-1-1h-0.952c-0.92 0-1.667 0.746-1.667 1.667v3.333c0 0.921 0.746 1.667 1.667 1.667h0.952c0.552 0 1-0.448 1-1s-0.448-1-1-1h-0.619v-2.667zM14.333 11.667c0-0.552 0.448-1 1-1h1.333c0.552 0 1 0.448 1 1s-0.448 1-1 1h-1.333c-0.552 0-1-0.448-1-1zM19.048 11.667c0-0.552 0.448-1 1-1h0.952c0.921 0 1.667 0.746 1.667 1.667v3.333c0 0.921-0.746 1.667-1.667 1.667h-0.952c-0.552 0-1-0.448-1-1s0.448-1 1-1h0.619v-2.667h-0.619c-0.552 0-1-0.448-1-1zM14.333 16.333c0-0.552 0.448-1 1-1h1.333c0.552 0 1 0.448 1 1s-0.448 1-1 1h-1.333c-0.552 0-1-0.448-1-1z"></path>
</svg>
