<!-- Generated by IcoMoon.io -->
<svg version="1.1" xmlns="http://www.w3.org/2000/svg" width="32" height="32" viewBox="0 0 32 32">
<title>showerhead</title>
<path d="M20.508 7.070c-3.512-1.773-7.852-1.343-10.962 1.29-0.403-0.203-0.879-0.323-1.383-0.323-1.725 0-3.124 1.399-3.124 3.124 0 0.861 0.349 1.642 0.913 2.207l12.704 12.704c0.565 0.565 1.345 0.914 2.207 0.914 1.725 0 3.123-1.398 3.123-3.123 0-0.517-0.126-1.005-0.349-1.435l0.008 0.017c2.63-3.112 3.056-7.45 1.28-10.96l3.153-3.155c0.565-0.565 0.914-1.345 0.914-2.207 0-1.724-1.398-3.122-3.122-3.122-0.862 0-1.643 0.35-2.208 0.915l-3.155 3.155zM11.095 9.68c1.34-1.047 3.048-1.679 4.904-1.679 4.419 0 8.001 3.582 8.001 8.001 0 1.856-0.632 3.565-1.693 4.922l0.013-0.018-11.226-11.227zM7.366 10.367c0.203-0.203 0.484-0.328 0.793-0.328 0.291 0 0.556 0.111 0.755 0.292l-0.001-0.001 12.781 12.78c0.192 0.201 0.31 0.474 0.31 0.774 0 0.62-0.502 1.122-1.122 1.122-0.319 0-0.608-0.133-0.812-0.348l-0-0-12.704-12.704c-0.203-0.203-0.329-0.484-0.329-0.794s0.126-0.591 0.329-0.794v0zM22.23 8.177l2.848-2.847c0.203-0.203 0.484-0.329 0.794-0.329 0.62 0 1.122 0.502 1.122 1.122 0 0.31-0.126 0.59-0.329 0.793l-2.847 2.847c-0.475-0.591-0.996-1.112-1.568-1.572l-0.020-0.015zM7.707 19.707c0.188-0.182 0.305-0.437 0.305-0.719 0-0.552-0.448-1-1-1-0.282 0-0.537 0.117-0.719 0.305l-3 3c-0.188 0.182-0.305 0.437-0.305 0.719 0 0.552 0.448 1 1 1 0.282 0 0.537-0.117 0.719-0.305l3-3zM10.707 21.293c0.181 0.181 0.293 0.431 0.293 0.707s-0.112 0.526-0.293 0.707l-3 3c-0.18 0.174-0.425 0.281-0.695 0.281-0.552 0-1-0.448-1-1 0-0.27 0.107-0.515 0.281-0.695l3-3c0.181-0.181 0.431-0.293 0.707-0.293s0.526 0.112 0.707 0.293v0zM13.707 25.707c0.174-0.18 0.281-0.425 0.281-0.695 0-0.552-0.448-1-1-1-0.27 0-0.515 0.107-0.695 0.281l-3 3c-0.188 0.182-0.305 0.437-0.305 0.719 0 0.552 0.448 1 1 1 0.282 0 0.537-0.117 0.719-0.305l3-3z"></path>
</svg>
