<!-- Generated by IcoMoon.io -->
<svg version="1.1" xmlns="http://www.w3.org/2000/svg" width="32" height="32" viewBox="0 0 32 32">
<title>sidebar-search-rtl-regular</title>
<path d="M4.8 8.8c0-2.209 1.791-4 4-4v0h14.4c2.209 0 4 1.791 4 4v0 11.2c0-0.003 0-0.008 0-0.012 0-1.717-0.604-3.293-1.61-4.528l0.010 0.013v-6.674c0-1.325-1.075-2.4-2.4-2.4v0h-14.4c-1.325 0-2.4 1.075-2.4 2.4v0 14.4c0 1.325 1.075 2.4 2.4 2.4v0h6.674c1.237 1 2.811 1.6 4.526 1.6h-11.2c-2.209 0-4-1.791-4-4v0-14.4zM9.6 10.4c0-0.442 0.358-0.8 0.8-0.8s0.8 0.358 0.8 0.8v0 11.2c0 0.442-0.358 0.8-0.8 0.8s-0.8-0.358-0.8-0.8v0-11.2zM25.6 20c0 1.258-0.416 2.419-1.115 3.354l4.080 4.080c0.145 0.145 0.235 0.345 0.235 0.566 0 0.442-0.358 0.8-0.8 0.8-0.221 0-0.421-0.089-0.566-0.234v0l-4.080-4.080c-0.923 0.696-2.089 1.115-3.354 1.115-3.093 0-5.6-2.507-5.6-5.6s2.507-5.6 5.6-5.6c3.092 0 5.599 2.506 5.6 5.598v0zM24 20c0-2.209-1.791-4-4-4s-4 1.791-4 4v0c0 2.209 1.791 4 4 4s4-1.791 4-4v0z"></path>
</svg>
