<!-- Generated by IcoMoon.io -->
<svg version="1.1" xmlns="http://www.w3.org/2000/svg" width="32" height="32" viewBox="0 0 32 32">
<title>signature-regular</title>
<path d="M18.834 24.002l0.309-0.002c1.394 0 2.126 0.578 3.031 1.947l0.449 0.695c0.351 0.52 0.57 0.737 0.846 0.851 0.495 0.203 0.905 0.103 2.41-0.622l0.461-0.224c0.942-0.462 1.584-0.727 2.309-0.909 0.062-0.016 0.134-0.026 0.208-0.026 0.474 0 0.858 0.384 0.858 0.858 0 0.4-0.274 0.736-0.644 0.831l-0.006 0.001c-0.45 0.112-0.883 0.274-1.448 0.535l-1.325 0.637c-1.792 0.846-2.4 0.947-3.475 0.503-0.714-0.294-1.12-0.72-1.714-1.629l-0.223-0.347c-0.642-1.011-0.987-1.344-1.6-1.383l-0.137-0.005c-0.626 0-0.75 0.078-3.131 1.846-1.991 1.478-3.51 2.183-5.44 2.183-2.354 0-4.574-0.432-6.649-1.297l3.294-0.761c1.079 0.229 2.197 0.344 3.354 0.344 1.474 0 2.697-0.568 4.419-1.846l1.326-0.978c1.453-1.056 1.776-1.186 2.52-1.202zM26.031 3.682c0.886 0.886 1.434 2.111 1.434 3.463s-0.548 2.577-1.434 3.463l-1.184 1.184c1.317 1.602 1.269 3.299 0.046 4.527l-3.43 3.431c-0.155 0.155-0.369 0.251-0.606 0.251-0.474 0-0.857-0.384-0.857-0.857 0-0.237 0.096-0.452 0.252-0.607v0l3.426-3.427c0.555-0.555 0.619-1.246-0.046-2.101l-12.106 12.107c-0.331 0.331-0.752 0.572-1.223 0.683l-0.017 0.003-6.949 1.605c-0.058 0.014-0.125 0.022-0.194 0.022-0.473 0-0.857-0.384-0.857-0.857 0-0.069 0.008-0.135 0.023-0.199l-0.001 0.006 1.603-6.949c0.115-0.489 0.356-0.91 0.687-1.241l14.505-14.506c0.886-0.886 2.111-1.434 3.463-1.434s2.577 0.548 3.463 1.434v0zM20.317 4.894l-14.506 14.509c-0.11 0.11-0.19 0.251-0.227 0.408l-0.001 0.006-1.296 5.611 5.614-1.295c0.162-0.038 0.302-0.119 0.413-0.229v0l14.506-14.509c0.576-0.576 0.933-1.372 0.933-2.251 0-1.758-1.426-3.184-3.184-3.184-0.879 0-1.675 0.356-2.251 0.933v0z"></path>
</svg>
