<!-- Generated by IcoMoon.io -->
<svg version="1.1" xmlns="http://www.w3.org/2000/svg" width="32" height="32" viewBox="0 0 32 32">
<title>sign-out</title>
<path d="M11.336 15.333c0.738 0 1.336 0.598 1.336 1.336s-0.598 1.336-1.336 1.336-1.336-0.598-1.336-1.336c0-0.738 0.598-1.336 1.336-1.336z"></path>
<path d="M16 5.806v8.194l0.001 0.673 9.922-0.001-2.297-2.298c-0.355-0.355-0.387-0.911-0.097-1.302l0.097-0.112c0.355-0.355 0.911-0.387 1.302-0.097l0.112 0.097 3.995 3.997c0.355 0.355 0.387 0.91 0.097 1.301l-0.097 0.112-3.995 4.005c-0.39 0.391-1.023 0.392-1.414 0.002-0.355-0.355-0.388-0.91-0.098-1.302l0.097-0.112 2.284-2.29-9.909 0.001-0.001 8.993c0 0.622-0.562 1.093-1.174 0.985l-11.333-2.002c-0.478-0.084-0.826-0.5-0.826-0.985v-15.998c0-0.49 0.355-0.907 0.838-0.987l11.333-1.861c0.609-0.1 1.162 0.37 1.162 0.987zM14 6.983l-9.333 1.533v14.31l9.333 1.648v-17.491z"></path>
<path d="M17.333 24.668l1.020 0 0.136-0.009c0.489-0.066 0.865-0.486 0.864-0.993l-0.010-5.667h-2.011v6.668z"></path>
<path d="M17.336 13.333l-0.003-1.7v-4.967h0.994c0.506 0 0.924 0.375 0.991 0.863l0.009 0.136 0.009 5.668h-2z"></path>
</svg>
