<!-- Generated by IcoMoon.io -->
<svg version="1.1" xmlns="http://www.w3.org/2000/svg" width="32" height="32" viewBox="0 0 32 32">
<title>sim</title>
<path d="M13 13.333c-2.025 0-3.667 1.642-3.667 3.667v4.667c0 2.025 1.642 3.667 3.667 3.667h6c2.025 0 3.667-1.642 3.667-3.667v-4.667c0-2.025-1.642-3.667-3.667-3.667h-6zM11.333 17c0-0.921 0.746-1.667 1.667-1.667h3v3.333h-4.667v-1.667zM11.333 20.667h4.667v2.667h-3c-0.92 0-1.667-0.746-1.667-1.667v-1zM18 23.333v-8h1c0.921 0 1.667 0.746 1.667 1.667v4.667c0 0.921-0.746 1.667-1.667 1.667h-1z"></path>
<path d="M9.667 2.667c-2.393 0-4.333 1.94-4.333 4.333v18c0 2.393 1.94 4.333 4.333 4.333h12.667c2.393 0 4.333-1.94 4.333-4.333v-12.619c0-1.149-0.457-2.251-1.269-3.064l-5.381-5.381c-0.813-0.813-1.915-1.269-3.064-1.269h-7.286zM7.333 7c0-1.289 1.045-2.333 2.333-2.333h7.286c0.619 0 1.212 0.246 1.65 0.683l5.381 5.381c0.438 0.438 0.683 1.031 0.683 1.65v12.619c0 1.289-1.045 2.333-2.333 2.333h-12.667c-1.289 0-2.333-1.045-2.333-2.333v-18z"></path>
</svg>
