<!-- Generated by IcoMoon.io -->
<svg version="1.1" xmlns="http://www.w3.org/2000/svg" width="32" height="32" viewBox="0 0 32 32">
<title>skip-forward-10</title>
<path d="M11.129 5.738c1.502-0.635 3.249-1.005 5.081-1.005 4.596 0 8.65 2.322 11.052 5.857l0.030 0.047h-6.363c-0.46 0-0.833 0.373-0.833 0.833s0.373 0.833 0.833 0.833v0h7.57c0.46 0 0.833-0.373 0.833-0.833v-7.57c0-0.46-0.373-0.833-0.833-0.833s-0.833 0.373-0.833 0.833v0 4.472c-2.773-3.255-6.875-5.305-11.455-5.305-2.062 0-4.026 0.415-5.815 1.167l0.099-0.037c-3.377 1.39-6.126 4.008-7.742 7.269-0.053 0.107-0.084 0.232-0.084 0.365 0 0.46 0.373 0.833 0.833 0.833 0.323 0 0.604-0.184 0.742-0.453l0.002-0.005c1.442-2.909 3.891-5.236 6.883-6.467zM20.209 14.669c-1.751 0-2.98 0.827-3.719 2.131-0.703 1.24-0.947 2.869-0.947 4.536s0.243 3.297 0.947 4.536c0.74 1.304 1.968 2.131 3.72 2.131s2.979-0.827 3.719-2.131c0.703-1.239 0.947-2.868 0.947-4.536s-0.243-3.296-0.947-4.536c-0.74-1.304-1.968-2.131-3.72-2.131zM17.209 21.335c0-1.553 0.236-2.841 0.73-3.713 0.459-0.807 1.147-1.287 2.27-1.287s1.812 0.48 2.27 1.287c0.495 0.872 0.73 2.16 0.73 3.713s-0.235 2.842-0.73 3.713c-0.458 0.808-1.147 1.287-2.27 1.287s-1.812-0.479-2.27-1.287c-0.494-0.871-0.73-2.159-0.73-3.713zM11.979 14.82c0.216 0.152 0.355 0.4 0.355 0.68 0 0.007-0 0.015-0 0.022l0-0.001v11.647c0 0.46-0.373 0.833-0.833 0.833s-0.833-0.373-0.833-0.833v0-9.22c-0.505 0.513-1.165 1.058-2.071 1.601-0.125 0.078-0.276 0.125-0.439 0.125-0.46 0-0.833-0.373-0.833-0.833 0-0.306 0.165-0.573 0.41-0.718l0.004-0.002c1.664-0.999 2.293-1.933 2.841-2.747 0.077-0.115 0.152-0.227 0.229-0.335 0.152-0.224 0.406-0.37 0.694-0.37 0.175 0 0.337 0.054 0.471 0.146l-0.003-0.002 0.009 0.007z"></path>
</svg>
