<!-- Generated by IcoMoon.io -->
<svg version="1.1" xmlns="http://www.w3.org/2000/svg" width="32" height="32" viewBox="0 0 32 32">
<title>skip-forward-30</title>
<path d="M28.334 3.333c0.552 0 1 0.448 1 1v7.333c0 0.552-0.448 1-1 1h-7.334c-0.552 0-1-0.448-1-1s0.448-1 1-1h5.21c-1.411-1.864-3.237-3.381-5.506-4.083-2.755-0.853-5.669-0.78-8.356 0.22-2.705 1.006-5.213 3.047-6.472 5.344-0.266 0.484-0.873 0.662-1.358 0.396s-0.662-0.873-0.396-1.358c1.523-2.777 4.44-5.108 7.528-6.256 3.106-1.155 6.473-1.237 9.644-0.256 2.505 0.775 4.5 2.342 6.038 4.192v-4.532c0-0.552 0.448-1 1-1zM11.667 20.333c1.017 0 1.671-0.295 2.051-0.633s0.54-0.761 0.527-1.167c-0.024-0.729-0.72-1.867-2.911-1.867-0.959 0-1.707 0.29-2.216 0.578-0.255 0.144-0.447 0.287-0.571 0.389-0.062 0.051-0.106 0.091-0.131 0.115-0.013 0.012-0.021 0.020-0.024 0.024l-0.002 0.001c-0.379 0.397-1.007 0.414-1.408 0.037-0.402-0.378-0.422-1.011-0.043-1.413l0.001-0.001 0.001-0.001 0.003-0.003 0.008-0.008 0.022-0.022c0.017-0.017 0.040-0.040 0.068-0.066 0.056-0.053 0.135-0.124 0.234-0.206 0.199-0.164 0.486-0.375 0.856-0.585 0.741-0.42 1.826-0.838 3.202-0.838 2.944 0 4.839 1.696 4.91 3.8 0.034 1.010-0.381 2.003-1.196 2.729-0.053 0.047-0.108 0.094-0.164 0.138 0.056 0.045 0.111 0.091 0.164 0.138 0.815 0.725 1.23 1.718 1.196 2.729-0.071 2.104-1.965 3.8-4.91 3.8-1.376 0-2.461-0.418-3.202-0.838-0.37-0.21-0.657-0.421-0.856-0.585-0.1-0.082-0.178-0.153-0.234-0.206-0.028-0.027-0.051-0.049-0.068-0.066l-0.022-0.022-0.008-0.008-0.003-0.003-0.001-0.001-0.001-0.001c0 0-0.62-0.789 0.043-1.413 0.4-0.377 1.029-0.359 1.408 0.038l0.001 0.001c0.003 0.003 0.012 0.012 0.024 0.024 0.026 0.024 0.070 0.064 0.131 0.115 0.124 0.102 0.316 0.245 0.571 0.389 0.509 0.289 1.257 0.578 2.216 0.578 2.191 0 2.886-1.138 2.911-1.867 0.014-0.406-0.148-0.83-0.527-1.167s-1.033-0.633-2.051-0.633c-0.552 0-1-0.448-1-1s0.448-1 1-1zM18.932 16.838c0.738-1.322 1.978-2.172 3.738-2.172s2.999 0.85 3.737 2.172c0.695 1.245 0.929 2.863 0.929 4.495s-0.234 3.25-0.929 4.495c-0.738 1.322-1.978 2.172-3.737 2.172s-2.999-0.85-3.738-2.172c-0.695-1.245-0.929-2.863-0.929-4.495s0.234-3.25 0.929-4.495zM20.678 17.814c-0.451 0.806-0.675 2.021-0.675 3.519s0.225 2.713 0.675 3.519c0.407 0.729 1.001 1.147 1.992 1.147s1.584-0.418 1.991-1.147c0.451-0.806 0.675-2.021 0.675-3.519s-0.225-2.713-0.675-3.519c-0.407-0.729-1.001-1.147-1.991-1.147s-1.584 0.418-1.992 1.147z"></path>
</svg>
