<!-- Generated by IcoMoon.io -->
<svg version="1.1" xmlns="http://www.w3.org/2000/svg" width="32" height="32" viewBox="0 0 32 32">
<title>skip-forward-tab</title>
<path d="M28.667 5c0-0.552-0.448-1-1-1s-1 0.448-1 1v4.533c-1.538-1.851-3.533-3.417-6.038-4.192-3.171-0.981-6.538-0.9-9.644 0.256-3.088 1.149-6.005 3.479-7.528 6.256-0.266 0.484-0.088 1.092 0.396 1.358s1.092 0.088 1.358-0.396c1.259-2.296 3.767-4.337 6.472-5.344 2.687-1 5.6-1.072 8.356-0.22 2.269 0.702 4.095 2.218 5.505 4.082h-5.21c-0.552 0-1 0.448-1 1s0.448 1 1 1h7.333c0.552 0 1-0.448 1-1v-7.333zM10.667 18.667c-0.368 0-0.667 0.299-0.667 0.667v5.333c0 0.368 0.298 0.667 0.667 0.667h10.667c0.368 0 0.667-0.299 0.667-0.667v-5.333c0-0.368-0.299-0.667-0.667-0.667h-10.667zM8 19.333c0-1.473 1.194-2.667 2.667-2.667h10.667c1.473 0 2.667 1.194 2.667 2.667v5.333c0 1.473-1.194 2.667-2.667 2.667h-10.667c-1.473 0-2.667-1.194-2.667-2.667v-5.333z"></path>
</svg>
