<!-- Generated by IcoMoon.io -->
<svg version="1.1" xmlns="http://www.w3.org/2000/svg" width="32" height="32" viewBox="0 0 32 32">
<title>skip-back-10</title>
<path d="M11.463 5.453c1.29-0.456 2.777-0.72 4.325-0.72 1.833 0 3.579 0.369 5.169 1.037l-0.088-0.033c2.992 1.231 5.441 3.558 6.883 6.467 0.138 0.28 0.422 0.469 0.749 0.469 0.46 0 0.833-0.373 0.833-0.833 0-0.137-0.033-0.266-0.091-0.38l0.002 0.005c-1.616-3.26-4.365-5.879-7.742-7.269-1.69-0.715-3.654-1.13-5.716-1.13-4.581 0-8.683 2.051-11.438 5.284l-0.018 0.021v-4.471c0-0.46-0.373-0.833-0.833-0.833s-0.833 0.373-0.833 0.833v0 7.569c0 0.46 0.373 0.833 0.833 0.833h7.57c0.46 0 0.833-0.373 0.833-0.833s-0.373-0.833-0.833-0.833v0h-6.363c1.623-2.39 3.942-4.2 6.663-5.154l0.094-0.029zM11.978 14.82c0.216 0.152 0.356 0.4 0.356 0.681 0 0.007-0 0.014-0 0.022l0-0.001v11.647c0 0.46-0.373 0.833-0.833 0.833s-0.833-0.373-0.833-0.833v0-9.22c-0.505 0.513-1.165 1.058-2.071 1.601-0.126 0.081-0.281 0.13-0.446 0.13-0.46 0-0.833-0.373-0.833-0.833 0-0.309 0.168-0.579 0.418-0.723l0.004-0.002c1.663-0.999 2.292-1.933 2.84-2.747 0.077-0.115 0.153-0.227 0.229-0.335 0.152-0.224 0.406-0.37 0.694-0.37 0.175 0 0.337 0.054 0.471 0.146l-0.003-0.002 0.009 0.007zM20.209 14.669c-1.751 0-2.98 0.827-3.72 2.131-0.703 1.24-0.947 2.869-0.947 4.536s0.244 3.297 0.947 4.536c0.74 1.304 1.969 2.131 3.72 2.131s2.98-0.827 3.72-2.131c0.703-1.239 0.947-2.868 0.947-4.536s-0.243-3.296-0.947-4.536c-0.74-1.304-1.969-2.131-3.72-2.131zM17.209 21.335c0-1.553 0.235-2.841 0.73-3.713 0.458-0.807 1.147-1.287 2.27-1.287s1.812 0.48 2.27 1.287c0.495 0.872 0.73 2.16 0.73 3.713s-0.235 2.842-0.73 3.713c-0.458 0.808-1.147 1.287-2.27 1.287s-1.812-0.479-2.27-1.287c-0.495-0.871-0.73-2.159-0.73-3.713z"></path>
</svg>
