<!-- Generated by IcoMoon.io -->
<svg version="1.1" xmlns="http://www.w3.org/2000/svg" width="32" height="32" viewBox="0 0 32 32">
<title>skip-forward-10</title>
<path d="M28.333 3.333c0.552 0 1 0.448 1 1v7.333c0 0.552-0.448 1-1 1h-7.333c-0.552 0-1-0.448-1-1s0.448-1 1-1h5.21c-1.411-1.864-3.237-3.38-5.505-4.082-2.755-0.853-5.669-0.78-8.356 0.22-2.705 1.006-5.213 3.047-6.472 5.344-0.266 0.484-0.873 0.662-1.358 0.396s-0.662-0.873-0.396-1.358c1.523-2.777 4.44-5.108 7.528-6.256 3.106-1.155 6.473-1.237 9.644-0.256 2.505 0.775 4.5 2.342 6.038 4.192v-4.533c0-0.552 0.448-1 1-1zM21.336 14.667c-1.76 0-2.999 0.85-3.737 2.172-0.695 1.245-0.929 2.863-0.929 4.495s0.234 3.25 0.929 4.495c0.738 1.322 1.978 2.172 3.737 2.172s2.999-0.85 3.738-2.172c0.695-1.245 0.929-2.863 0.929-4.495s-0.234-3.25-0.929-4.495c-0.738-1.322-1.978-2.172-3.738-2.172zM18.669 21.333c0-1.498 0.225-2.713 0.675-3.519 0.407-0.729 1.001-1.147 1.991-1.147s1.584 0.418 1.992 1.147c0.451 0.806 0.675 2.021 0.675 3.519s-0.225 2.713-0.675 3.519c-0.407 0.729-1.001 1.147-1.992 1.147s-1.584-0.418-1.991-1.147c-0.451-0.806-0.675-2.021-0.675-3.519zM12.667 15.667c0-0.448-0.298-0.842-0.73-0.963s-0.89 0.059-1.123 0.442l-0.001 0.002-0.007 0.011c-0.007 0.011-0.019 0.030-0.036 0.055-0.033 0.051-0.084 0.128-0.153 0.225-0.138 0.196-0.343 0.472-0.608 0.785-0.537 0.632-1.289 1.378-2.19 1.919-0.474 0.284-0.627 0.898-0.343 1.372s0.898 0.627 1.372 0.343c0.699-0.419 1.309-0.921 1.819-1.414v8.556c0 0.552 0.448 1 1 1s1-0.448 1-1v-11.333z"></path>
</svg>
