<!-- Generated by IcoMoon.io -->
<svg version="1.1" xmlns="http://www.w3.org/2000/svg" width="32" height="32" viewBox="0 0 32 32">
<title>skip-forward-tab-regular</title>
<path d="M28.667 5c0-0.552-0.448-1-1-1s-1 0.448-1 1v0 4.533c-1.539-1.851-3.533-3.417-6.037-4.193-1.33-0.43-2.86-0.679-4.448-0.679-1.866 0-3.652 0.343-5.299 0.969l0.102-0.034c-3.088 1.149-6.005 3.48-7.528 6.257-0.087 0.145-0.139 0.321-0.139 0.508 0 0.552 0.448 1 1 1 0.388 0 0.724-0.22 0.89-0.543l0.003-0.006c1.259-2.296 3.767-4.336 6.472-5.343 1.337-0.512 2.883-0.809 4.499-0.809 1.377 0 2.703 0.215 3.947 0.614l-0.091-0.025c2.269 0.703 4.095 2.219 5.507 4.083h-5.211c-0.552 0-1 0.448-1 1s0.448 1 1 1v0h7.333c0.552 0 1-0.448 1-1v0-7.333zM10.667 18.667c-0.368 0-0.667 0.298-0.667 0.667v0 5.333c0 0.368 0.298 0.667 0.667 0.667v0h10.667c0.368 0 0.667-0.298 0.667-0.667v0-5.333c0-0.368-0.298-0.667-0.667-0.667v0h-10.667zM8 19.333c0-1.473 1.194-2.667 2.667-2.667v0h10.667c1.473 0 2.667 1.194 2.667 2.667v0 5.333c0 1.473-1.194 2.667-2.667 2.667v0h-10.667c-1.473 0-2.667-1.194-2.667-2.667v0-5.333z"></path>
</svg>
