<!-- Generated by IcoMoon.io -->
<svg version="1.1" xmlns="http://www.w3.org/2000/svg" width="32" height="32" viewBox="0 0 32 32">
<title>sleep</title>
<path d="M17.837 4.035c1.869 0.1 3.695 0.637 5.351 1.593 5.742 3.315 7.709 10.657 4.394 16.399s-10.657 7.709-16.399 4.394c-1.564-0.903-2.88-2.124-3.883-3.58-0.335-0.487-0.118-1.159 0.438-1.358 4.522-1.619 6.944-3.494 8.35-6.177 1.48-2.824 1.862-5.918 0.827-10.159-0.143-0.586 0.32-1.145 0.923-1.112zM19.186 6.219l0.086 0.519c0.556 3.607 0.087 6.635-1.413 9.497-1.523 2.906-4 4.939-8.021 6.586 0.678 0.732 1.465 1.361 2.345 1.869 4.785 2.763 10.904 1.123 13.667-3.662s1.123-10.904-3.662-13.667c-0.674-0.389-1.382-0.696-2.114-0.917l-0.442-0.123-0.447-0.102zM14.658 4.871l0.008 0.132v6.997c0 1.473-1.194 2.667-2.667 2.667s-2.667-1.194-2.667-2.667 1.194-2.667 2.667-2.667c0.231 0 0.455 0.029 0.668 0.084l-0.001-3.066-4.667 1.42v5.561c0 1.473-1.194 2.667-2.667 2.667s-2.667-1.194-2.667-2.667c0-1.473 1.194-2.667 2.667-2.667 0.231 0 0.455 0.029 0.668 0.084l-0.001-3.72c0-0.391 0.227-0.742 0.574-0.905l0.135-0.052 6.667-2.028c0.557-0.169 1.118 0.169 1.258 0.699l0.025 0.126z"></path>
</svg>
