<!-- Generated by IcoMoon.io -->
<svg version="1.1" xmlns="http://www.w3.org/2000/svg" width="32" height="32" viewBox="0 0 32 32">
<title>slide-size</title>
<path d="M22.373 9.627c0.189 0.187 0.293 0.441 0.293 0.707v3.333c0 0.552-0.448 1-1 1s-1-0.448-1-1v0-0.92l-2.293 2.293c-0.182 0.188-0.437 0.305-0.719 0.305-0.552 0-1-0.448-1-1 0-0.282 0.117-0.537 0.305-0.719l2.294-2.292h-0.92c-0.552 0-1-0.448-1-1s0.448-1 1-1v0h3.333c0.276 0 0.526 0.112 0.707 0.293v0zM9.333 21.667c0 0.552 0.448 1 1 1v0h3.335c0.552 0 1-0.448 1-1s-0.448-1-1-1v0h-0.92l2.293-2.293c0.174-0.18 0.28-0.424 0.28-0.694 0-0.552-0.448-1-1-1-0.27 0-0.515 0.107-0.695 0.281l0-0-2.293 2.291v-0.92c0-0.552-0.448-1-1-1s-1 0.448-1 1v0 3.333zM2.667 9c0-2.025 1.642-3.667 3.667-3.667v0h19.333c2.025 0 3.667 1.642 3.667 3.667v0 14c0 2.025-1.642 3.667-3.667 3.667v0h-19.333c-2.025 0-3.667-1.642-3.667-3.667v0-14zM6.333 7.333c-0.92 0-1.667 0.747-1.667 1.667v14c0 0.92 0.747 1.667 1.667 1.667h19.333c0.92 0 1.667-0.747 1.667-1.667v-14c0-0.92-0.747-1.667-1.667-1.667h-19.333z"></path>
</svg>
