<!-- Generated by IcoMoon.io -->
<svg version="1.1" xmlns="http://www.w3.org/2000/svg" width="32" height="32" viewBox="0 0 32 32">
<title>slide-hide</title>
<path d="M9 4c-3.498 0-6.333 2.836-6.333 6.333v0 9.333c0 1.657 1.343 3 3 3v0h0.333v-2h-0.333c-0.552 0-1-0.448-1-1v0-9.333c0-2.393 1.94-4.333 4.333-4.333v0h13.333c0.552 0 1 0.448 1 1v0 0.333h2v-0.333c0-1.657-1.343-3-3-3v0h-13.333zM25.672 8.667h0.661c0 0 0 0 0 0 1.585 0 2.882 1.229 2.992 2.785l0.001 0.010 0.007 0.205v1.339c-0.001 0.552-0.448 0.998-1 0.998-0.504 0-0.921-0.373-0.99-0.858l-0.001-0.005-0.009-0.135v-1.339c-0-0.504-0.373-0.921-0.859-0.99l-0.005-0.001-0.136-0.009h-0.661c-0.552-0-1-0.448-1-1 0-0.504 0.373-0.921 0.858-0.99l0.005-0.001 0.136-0.009zM8.333 15.333c0.505 0 0.922 0.374 0.99 0.86l0.001 0.005 0.009 0.136v3.325c-0 0.552-0.448 1-1 1-0.504 0-0.921-0.373-0.99-0.858l-0.001-0.005-0.009-0.136v-3.325c0-0.552 0.448-1 1-1v0zM9.324 22.857c-0.069-0.491-0.486-0.864-0.991-0.864-0.552 0-1 0.448-1 1v1.34l0.007 0.205c0.111 1.566 1.408 2.795 2.993 2.795 0 0 0 0 0 0h0.667l0.136-0.009c0.491-0.069 0.864-0.486 0.864-0.991 0-0.552-0.448-1-1-1h-0.667l-0.136-0.009c-0.491-0.069-0.864-0.486-0.864-0.991v0-1.34l-0.009-0.136zM29.333 22.993c0-0.552-0.448-1-1-1s-1 0.448-1 1v0 1.34c0 0.552-0.448 1-1 1v0h-1.337c-0.552 0-1 0.448-1 1s0.448 1 1 1v0h1.337c1.657 0 3-1.343 3-3v0-1.34zM19.671 25.333h1.993c0.552 0 1 0.448 1 1 0 0.504-0.373 0.921-0.858 0.99l-0.005 0.001-0.136 0.009h-1.993c-0.552-0-1-0.448-1-1 0-0.504 0.373-0.921 0.858-0.99l0.005-0.001 0.136-0.009zM16.328 25.333h-1.993l-0.136 0.009c-0.491 0.069-0.864 0.486-0.864 0.991 0 0.552 0.448 1 1 1h1.993l0.136-0.009c0.491-0.069 0.864-0.486 0.864-0.991 0-0.552-0.448-1-1-1h-0zM29.324 16.199c-0.069-0.491-0.486-0.864-0.991-0.864-0.552 0-1 0.448-1 1v3.325l0.009 0.136c0.069 0.491 0.486 0.864 0.991 0.864 0.552 0 1-0.448 1-1v-3.325l-0.009-0.136zM12.671 9.667c0-0.552-0.448-1-1-1v0h-1.337c-1.657 0-3 1.343-3 3v0 1.339c0 0.552 0.448 1 1 1s1-0.448 1-1v0-1.339c0-0.552 0.448-1 1-1v0h1.337c0.552 0 1-0.448 1-1v0zM20.332 8.667h2.004c0.552 0 1 0.448 1 1 0 0.504-0.373 0.921-0.858 0.99l-0.005 0.001-0.136 0.009h-2.004c-0.552-0-1-0.448-1-1 0-0.504 0.373-0.921 0.858-0.99l0.005-0.001 0.136-0.009zM16.993 8.667h-1.993l-0.136 0.009c-0.491 0.069-0.864 0.486-0.864 0.991 0 0.552 0.448 1 1 1h1.993l0.136-0.009c0.491-0.069 0.864-0.486 0.864-0.991 0-0.552-0.448-1-1-1h-0z"></path>
</svg>
