<!-- Generated by IcoMoon.io -->
<svg version="1.1" xmlns="http://www.w3.org/2000/svg" width="32" height="32" viewBox="0 0 32 32">
<title>slide-text</title>
<path d="M8 11.5c0-0.46 0.373-0.833 0.833-0.833h6.333c0.46 0 0.833 0.373 0.833 0.833s-0.373 0.833-0.833 0.833v0h-6.333c-0.46 0-0.833-0.373-0.833-0.833zM8.833 15c-0.46 0-0.833 0.373-0.833 0.833s0.373 0.833 0.833 0.833v0h11.667c0.46 0 0.833-0.373 0.833-0.833s-0.373-0.833-0.833-0.833v0h-11.667zM8.833 19.333c-0.46 0-0.833 0.373-0.833 0.833s0.373 0.833 0.833 0.833v0h9c0.46 0 0.833-0.373 0.833-0.833s-0.373-0.833-0.833-0.833v0h-9zM5.833 5.333c-1.749 0-3.167 1.418-3.167 3.167v0 15c0 1.749 1.418 3.167 3.167 3.167v0h20.333c1.749 0 3.167-1.418 3.167-3.167v0-15c0-1.749-1.418-3.167-3.167-3.167v0h-20.333zM4.333 8.5c0-0.828 0.672-1.5 1.5-1.5v0h20.333c0.828 0 1.5 0.672 1.5 1.5v0 15c0 0.828-0.672 1.5-1.5 1.5v0h-20.333c-0.828 0-1.5-0.672-1.5-1.5v0-15z"></path>
</svg>
