<!-- Generated by IcoMoon.io -->
<svg version="1.1" xmlns="http://www.w3.org/2000/svg" width="32" height="32" viewBox="0 0 32 32">
<title>slide-search-regular</title>
<path d="M2.29 8.286c0-2.051 1.663-3.714 3.714-3.714v0h19.997c2.051 0 3.714 1.663 3.714 3.714v0 15.429c0 2.051-1.663 3.714-3.714 3.714v0h-9.458l-1.714-1.714h11.173c1.105 0 2-0.895 2-2v0-15.429c0-1.105-0.895-2-2-2v0h-19.997c-1.105 0-2 0.895-2 2v0 6.263c-0.629 0.328-1.206 0.743-1.714 1.229v-7.491zM13.285 16.571c-0.53-0.674-1.157-1.243-1.865-1.696l-0.030-0.018h11.753c0.473 0 0.857 0.384 0.857 0.857s-0.384 0.857-0.857 0.857v0h-9.858zM14.857 21.143h6c0.473 0 0.857-0.384 0.857-0.857s-0.384-0.857-0.857-0.857v0h-6.199c0.13 0.551 0.199 1.125 0.199 1.714zM8 11.143c0-0.473 0.384-0.857 0.857-0.857v0h8.571c0.473 0 0.857 0.384 0.857 0.857s-0.384 0.857-0.857 0.857v0h-8.571c-0.473 0-0.857-0.384-0.857-0.857v0zM12.438 24.941c0.797-1.042 1.277-2.364 1.277-3.797 0-3.471-2.814-6.286-6.286-6.286s-6.286 2.814-6.286 6.286c0 3.471 2.814 6.286 6.286 6.286 1.434 0 2.755-0.48 3.813-1.288l-0.015 0.011 3.311 3.311c0.157 0.168 0.38 0.273 0.627 0.273 0.473 0 0.857-0.384 0.857-0.857 0-0.247-0.105-0.47-0.272-0.627l-0.001-0-3.311-3.311zM12 21.143c0 2.525-2.047 4.571-4.571 4.571s-4.571-2.047-4.571-4.571v0c0-2.525 2.047-4.571 4.571-4.571s4.571 2.047 4.571 4.571v0z"></path>
</svg>
