<!-- Generated by IcoMoon.io -->
<svg version="1.1" xmlns="http://www.w3.org/2000/svg" width="32" height="32" viewBox="0 0 32 32">
<title>slide-settings</title>
<path d="M6.333 5.333c-2.025 0-3.667 1.642-3.667 3.667v14c0 2.025 1.642 3.667 3.667 3.667h8.998c-0.264-0.632-0.455-1.302-0.562-2h-8.435c-0.92 0-1.667-0.746-1.667-1.667v-14c0-0.92 0.746-1.667 1.667-1.667h19.333c0.921 0 1.667 0.746 1.667 1.667v6.643c0.735 0.383 1.408 0.868 2 1.437v-8.079c0-2.025-1.642-3.667-3.667-3.667h-19.333zM19.038 18.634c0.42 1.454-0.453 2.965-1.922 3.328l-0.779 0.193c-0.060 0.384-0.091 0.777-0.091 1.178 0 0.42 0.034 0.831 0.099 1.231l0.719 0.173c1.483 0.357 2.365 1.884 1.933 3.347l-0.248 0.842c0.585 0.514 1.253 0.932 1.979 1.229l0.658-0.692c1.051-1.106 2.815-1.105 3.865 0.001l0.665 0.7c0.725-0.294 1.391-0.707 1.977-1.217l-0.264-0.915c-0.42-1.454 0.453-2.965 1.922-3.328l0.778-0.193c0.060-0.384 0.091-0.777 0.091-1.178 0-0.42-0.034-0.831-0.099-1.231l-0.719-0.173c-1.483-0.357-2.365-1.884-1.933-3.347l0.248-0.841c-0.585-0.514-1.253-0.932-1.979-1.229l-0.657 0.691c-1.051 1.106-2.814 1.105-3.865-0.001l-0.665-0.7c-0.725 0.294-1.391 0.707-1.977 1.217l0.264 0.915zM23.333 25.333c-1.067 0-1.933-0.895-1.933-2s0.865-2 1.933-2c1.068 0 1.933 0.895 1.933 2s-0.865 2-1.933 2z"></path>
</svg>
