<!-- Generated by IcoMoon.io -->
<svg version="1.1" xmlns="http://www.w3.org/2000/svg" width="32" height="32" viewBox="0 0 32 32">
<title>slide-add-regular</title>
<path d="M2.667 9.5c0-2.301 1.865-4.167 4.167-4.167v0h18.333c2.301 0 4.167 1.865 4.167 4.167v0 7.58c-0.488-0.469-1.035-0.884-1.626-1.231l-0.041-0.022v-6.327c0-1.381-1.119-2.5-2.5-2.5v0h-18.333c-1.381 0-2.5 1.119-2.5 2.5v0 13c0 1.381 1.119 2.5 2.5 2.5v0h7.993c0.113 0.578 0.283 1.136 0.504 1.667h-8.497c-2.301 0-4.167-1.865-4.167-4.167v0-13zM30.667 23.333c0 4.050-3.283 7.333-7.333 7.333s-7.333-3.283-7.333-7.333 3.283-7.333 7.333-7.333 7.333 3.283 7.333 7.333zM24 18.667c0-0.368-0.298-0.667-0.667-0.667s-0.667 0.298-0.667 0.667v0 4h-4c-0.368 0-0.667 0.298-0.667 0.667s0.298 0.667 0.667 0.667v0h4v4c0 0.368 0.298 0.667 0.667 0.667s0.667-0.298 0.667-0.667v0-4h4c0.368 0 0.667-0.298 0.667-0.667s-0.298-0.667-0.667-0.667v0h-4v-4z"></path>
</svg>
