<!-- Generated by IcoMoon.io -->
<svg version="1.1" xmlns="http://www.w3.org/2000/svg" width="32" height="32" viewBox="0 0 32 32">
<title>slide-microphone</title>
<path d="M6.5 4c-2.485 0-4.5 2.015-4.5 4.5v0 15c0 2.485 2.015 4.5 4.5 4.5v0h12.255c-0.465-0.575-0.859-1.235-1.154-1.947l-0.019-0.053h-11.082c-1.381 0-2.5-1.119-2.5-2.5v0-15c0-1.381 1.119-2.5 2.5-2.5v0h19c1.381 0 2.5 1.119 2.5 2.5v0 6.5c1.214 0.912 2 2.364 2 4v-10.5c0-2.485-2.015-4.5-4.5-4.5v0h-19zM19.803 26c0.475 0.811 1.107 1.481 1.858 1.986l0.022 0.014c0.82 0.545 1.78 0.894 2.817 0.98v1.27c0 0.414 0.336 0.75 0.75 0.75s0.75-0.336 0.75-0.75v0-1.333c0.897-0.154 1.695-0.487 2.388-0.963l-0.020 0.013c0.633-0.434 1.164-0.966 1.585-1.578l0.013-0.020c0.647-0.941 1.034-2.105 1.034-3.359 0-0.003 0-0.006 0-0.009v0c0-0.414-0.336-0.75-0.75-0.75s-0.75 0.336-0.75 0.75v0c0 0.002 0 0.005 0 0.008 0 0.94-0.29 1.812-0.785 2.532l0.010-0.015c-0.32 0.472-0.728 0.88-1.2 1.2-0.499 0.344-1.090 0.592-1.728 0.706l-0.027 0.004-0.018 0.003c-0.226 0.040-0.486 0.063-0.752 0.063-0.133 0-0.264-0.006-0.394-0.017l-0-0.001c-1.183-0.104-2.22-0.654-2.956-1.479l-0.004-0.004c-0.711-0.79-1.146-1.841-1.146-2.994 0-0.002 0-0.004 0-0.006v0c0-0.414-0.336-0.75-0.75-0.75s-0.75 0.336-0.75 0.75v0c0 1.093 0.292 2.117 0.803 3zM25 16c-1.657 0-3 1.343-3 3v0 4c0 1.657 1.343 3 3 3s3-1.343 3-3v0-4c0-1.657-1.343-3-3-3v0zM9 9c-0.552 0-1 0.448-1 1s0.448 1 1 1v0h6c0.552 0 1-0.448 1-1s-0.448-1-1-1v0h-6zM8 20c0-0.552 0.448-1 1-1v0h6c0.552 0 1 0.448 1 1s-0.448 1-1 1v0h-6c-0.552 0-1-0.448-1-1v0zM9 14c-0.552 0-1 0.448-1 1s0.448 1 1 1v0h9c0.552 0 1-0.448 1-1s-0.448-1-1-1v0h-9z"></path>
</svg>
