<!-- Generated by IcoMoon.io -->
<svg version="1.1" xmlns="http://www.w3.org/2000/svg" width="32" height="32" viewBox="0 0 32 32">
<title>slide-search</title>
<path d="M6.333 5.333c-2.025 0-3.667 1.642-3.667 3.667v6.010c0.595-0.491 1.269-0.891 2-1.176v-4.833c0-0.92 0.746-1.667 1.667-1.667h19.333c0.921 0 1.667 0.746 1.667 1.667v14c0 0.921-0.746 1.667-1.667 1.667h-11.033l2 2h9.033c2.025 0 3.667-1.642 3.667-3.667v-14c0-2.025-1.642-3.667-3.667-3.667h-19.333z"></path>
<path d="M11.551 14.667c0.763 0.537 1.419 1.217 1.93 2h9.519c0.552 0 1-0.448 1-1s-0.448-1-1-1h-11.449z"></path>
<path d="M20.333 20.667h-5.667c0-0.693-0.096-1.364-0.276-2h5.943c0.552 0 1 0.448 1 1s-0.448 1-1 1z"></path>
<path d="M9 10.667c-0.552 0-1 0.448-1 1s0.448 1 1 1h8.667c0.552 0 1-0.448 1-1s-0.448-1-1-1h-8.667z"></path>
<path d="M7.333 26.667c1.296 0 2.496-0.411 3.477-1.109l3.483 3.483c0.391 0.391 1.024 0.391 1.414 0s0.391-1.024 0-1.414l-3.483-3.483c0.698-0.981 1.109-2.181 1.109-3.477 0-3.314-2.686-6-6-6s-6 2.686-6 6c0 3.314 2.686 6 6 6zM7.333 24.667c-2.209 0-4-1.791-4-4s1.791-4 4-4c2.209 0 4 1.791 4 4s-1.791 4-4 4z"></path>
</svg>
