<!-- Generated by IcoMoon.io -->
<svg version="1.1" xmlns="http://www.w3.org/2000/svg" width="32" height="32" viewBox="0 0 32 32">
<title>slide-transition</title>
<path d="M6.333 5.333c-2.025 0-3.667 1.642-3.667 3.667v14c0 2.025 1.642 3.667 3.667 3.667h19.333c2.025 0 3.667-1.642 3.667-3.667v-14c0-2.025-1.642-3.667-3.667-3.667h-19.333zM4.667 9c0-0.92 0.746-1.667 1.667-1.667h0.333v17.333h-0.333c-0.92 0-1.667-0.746-1.667-1.667v-14zM8.667 24.667v-17.333h3.333v17.333h-3.333zM18.667 24.667h-4.667v-17.333h4.667v17.333zM20.667 24.667v-17.333h5c0.921 0 1.667 0.746 1.667 1.667v14c0 0.921-0.746 1.667-1.667 1.667h-5z"></path>
</svg>
