<!-- Generated by IcoMoon.io -->
<svg version="1.1" xmlns="http://www.w3.org/2000/svg" width="32" height="32" viewBox="0 0 32 32">
<title>slide-multiple-arrow-right</title>
<path d="M6 22.667h-0.333c-1.657 0-3-1.343-3-3v-12c0-2.025 1.642-3.667 3.667-3.667h16c1.657 0 3 1.343 3 3v0.333h-2v-0.333c0-0.552-0.448-1-1-1h-16c-0.92 0-1.667 0.746-1.667 1.667v12c0 0.552 0.448 1 1 1h0.333v2z"></path>
<path d="M10.333 8.667c-1.657 0-3 1.343-3 3v12.667c0 1.657 1.343 3 3 3h5.31c-0.326-0.626-0.578-1.296-0.744-2h-4.565c-0.552 0-1-0.448-1-1v-12.667c0-0.552 0.448-1 1-1h16c0.552 0 1 0.448 1 1v3.976c0.735 0.383 1.408 0.868 2 1.437v-5.413c0-1.657-1.343-3-3-3h-16z"></path>
<path d="M30.667 23.333c0 4.050-3.283 7.333-7.333 7.333s-7.333-3.283-7.333-7.333c0-4.050 3.283-7.333 7.333-7.333s7.333 3.283 7.333 7.333zM19.333 22.667c-0.368 0-0.667 0.299-0.667 0.667s0.299 0.667 0.667 0.667h6.391l-2.195 2.195c-0.26 0.26-0.26 0.683 0 0.943s0.683 0.26 0.943 0l3.333-3.333c0.26-0.26 0.26-0.683 0-0.943l-3.333-3.333c-0.26-0.26-0.683-0.26-0.943 0s-0.26 0.683 0 0.943l2.195 2.195h-6.391z"></path>
</svg>
