<!-- Generated by IcoMoon.io -->
<svg version="1.1" xmlns="http://www.w3.org/2000/svg" width="32" height="32" viewBox="0 0 32 32">
<title>slide-eraser</title>
<path d="M2.667 8.999c0-2.024 1.64-3.665 3.664-3.665h19.318c2.023 0 3.664 1.641 3.664 3.665v7.712l-1.067-1.068c-0.279-0.279-0.594-0.498-0.931-0.657v-5.987c0-0.92-0.746-1.666-1.665-1.666h-19.318c-0.92 0-1.665 0.746-1.665 1.666v13.995c0 0.92 0.746 1.666 1.665 1.666h9.679c0.023 0.712 0.272 1.417 0.747 1.999h-10.426c-2.023 0-3.664-1.641-3.664-3.666v-13.995zM27.303 16.585c-0.78-0.781-2.046-0.781-2.826 0l-4.144 4.146 5.605 5.608 4.144-4.146c0.78-0.781 0.78-2.047 0-2.827l-2.779-2.78zM17.925 23.14l1.465-1.466 5.605 5.608-1.465 1.466c-0.78 0.781-2.046 0.781-2.826 0l-2.779-2.78c-0.78-0.781-0.78-2.047 0-2.828z"></path>
</svg>
