<!-- Generated by IcoMoon.io -->
<svg version="1.1" xmlns="http://www.w3.org/2000/svg" width="32" height="32" viewBox="0 0 32 32">
<title>slide-eraser-regular</title>
<path d="M2.667 9c0-2.025 1.642-3.667 3.667-3.667v0h19.333c2.025 0 3.667 1.642 3.667 3.667v0 7.715l-1.067-1.068c-0.264-0.264-0.573-0.485-0.913-0.649l-0.020-0.009v-5.989c0-0.92-0.747-1.667-1.667-1.667h-19.333c-0.92 0-1.667 0.747-1.667 1.667v14c0 0.92 0.747 1.667 1.667 1.667h9.687c0.024 0.764 0.302 1.458 0.753 2.006l-0.005-0.006h-10.435c-2.025 0-3.667-1.642-3.667-3.667v0-14z"></path>
<path d="M27.323 16.589c-0.362-0.362-0.862-0.586-1.414-0.586s-1.052 0.224-1.414 0.586l-4.148 4.147 5.609 5.609 4.147-4.147c0.362-0.362 0.586-0.862 0.586-1.415s-0.224-1.053-0.586-1.415l-2.78-2.78zM17.937 23.147l1.467-1.467 5.609 5.609-1.467 1.467c-0.362 0.362-0.862 0.586-1.414 0.586s-1.052-0.224-1.414-0.586l-2.781-2.781c-0.362-0.362-0.586-0.862-0.586-1.415s0.224-1.053 0.586-1.415v0z"></path>
</svg>
