<!-- Generated by IcoMoon.io -->
<svg version="1.1" xmlns="http://www.w3.org/2000/svg" width="32" height="32" viewBox="0 0 32 32">
<title>slide-multiple-regular</title>
<path d="M9 4c-3.498 0-6.333 2.836-6.333 6.333v0 9.333c0 1.657 1.343 3 3 3v0h0.333v-2h-0.333c-0.552 0-1-0.448-1-1v0-9.333c0-2.393 1.94-4.333 4.333-4.333v0h13.333c0.552 0 1 0.448 1 1v0 0.333h2v-0.333c0-1.657-1.343-3-3-3v0h-13.333zM10.333 8.667c-1.657 0-3 1.343-3 3v0 12.667c0 1.657 1.343 3 3 3v0h16c1.657 0 3-1.343 3-3v0-12.667c0-1.657-1.343-3-3-3v0h-16zM9.333 11.667c0-0.552 0.448-1 1-1v0h16c0.552 0 1 0.448 1 1v0 12.667c0 0.552-0.448 1-1 1v0h-16c-0.552 0-1-0.448-1-1v0-12.667z"></path>
</svg>
