<!-- Generated by IcoMoon.io -->
<svg version="1.1" xmlns="http://www.w3.org/2000/svg" width="32" height="32" viewBox="0 0 32 32">
<title>slide-layout-regular</title>
<path d="M9 9.333c-1.289 0-2.333 1.045-2.333 2.333v0 8.667c0 1.288 1.045 2.333 2.333 2.333h14c1.289 0 2.333-1.045 2.333-2.333v0-8.667c0-1.289-1.045-2.333-2.333-2.333v0h-14zM8.667 11.667c0-0.184 0.149-0.333 0.333-0.333v0h14c0.184 0 0.333 0.149 0.333 0.333v0 2.333h-14.667v-2.333zM14 16h9.333v4.333c0 0.184-0.149 0.333-0.333 0.333v0h-9v-4.667zM12 16v4.667h-3c-0.184 0-0.333-0.149-0.333-0.333v0-4.333h3.333zM6.333 5.333c-2.025 0-3.667 1.642-3.667 3.667v0 14c0 2.025 1.642 3.667 3.667 3.667v0h19.333c2.025 0 3.667-1.642 3.667-3.667v0-14c0-2.025-1.642-3.667-3.667-3.667v0h-19.333zM4.667 9c0-0.92 0.747-1.667 1.667-1.667h19.333c0.92 0 1.667 0.747 1.667 1.667v14c0 0.92-0.747 1.667-1.667 1.667h-19.333c-0.92 0-1.667-0.747-1.667-1.667v-14z"></path>
</svg>
