<!-- Generated by IcoMoon.io -->
<svg version="1.1" xmlns="http://www.w3.org/2000/svg" width="32" height="32" viewBox="0 0 32 32">
<title>slide-size</title>
<path d="M22.374 9.626c0.188 0.188 0.293 0.442 0.293 0.707v3.333c0 0.552-0.448 1-1 1s-1-0.448-1-1v-0.92l-2.294 2.293c-0.391 0.391-1.024 0.39-1.414-0s-0.39-1.024 0-1.414l2.293-2.292h-0.92c-0.552 0-1-0.448-1-1s0.448-1 1-1h3.335c0.265 0 0.52 0.105 0.707 0.293z"></path>
<path d="M9.333 21.667c0 0.265 0.105 0.52 0.293 0.707s0.442 0.293 0.707 0.293h3.335c0.552 0 1-0.448 1-1s-0.448-1-1-1h-0.921l2.293-2.294c0.39-0.391 0.39-1.024-0-1.414s-1.024-0.39-1.414 0l-2.293 2.293v-0.919c0-0.552-0.448-1-1-1s-1 0.448-1 1v3.333z"></path>
<path d="M2.667 9c0-2.025 1.642-3.667 3.667-3.667h19.333c2.025 0 3.667 1.642 3.667 3.667v14c0 2.025-1.642 3.667-3.667 3.667h-19.333c-2.025 0-3.667-1.642-3.667-3.667v-14zM6.333 7.333c-0.92 0-1.667 0.746-1.667 1.667v14c0 0.921 0.746 1.667 1.667 1.667h19.333c0.921 0 1.667-0.746 1.667-1.667v-14c0-0.92-0.746-1.667-1.667-1.667h-19.333z"></path>
</svg>
