<!-- Generated by IcoMoon.io -->
<svg version="1.1" xmlns="http://www.w3.org/2000/svg" width="32" height="32" viewBox="0 0 32 32">
<title>slide-multiple-search-regular</title>
<path d="M9 4c-3.498 0-6.333 2.836-6.333 6.333v0 6.009c0.572-0.476 1.234-0.872 1.951-1.159l0.049-0.017v-4.833c0-2.393 1.94-4.333 4.333-4.333v0h13.333c0.552 0 1 0.448 1 1v0 0.333h2v-0.333c0-1.657-1.343-3-3-3v0h-13.333zM26.333 27.333h-10.367l-2-2h12.367c0.552 0 1-0.448 1-1v0-12.667c0-0.552-0.448-1-1-1v0h-16c-0.552 0-1 0.448-1 1v0 3.276c-0.598-0.175-1.284-0.276-1.994-0.276-0.002 0-0.004 0-0.006 0h0v-3c0-1.657 1.343-3 3-3v0h16c1.657 0 3 1.343 3 3v0 12.667c0 1.657-1.343 3-3 3v0zM7.333 28c0.003 0 0.006 0 0.009 0 1.301 0 2.504-0.416 3.485-1.122l-0.018 0.012 3.484 3.483c0.183 0.196 0.443 0.318 0.732 0.318 0.552 0 1-0.448 1-1 0-0.289-0.122-0.549-0.318-0.731l-0.001-0.001-3.483-3.484c0.694-0.966 1.109-2.172 1.109-3.476 0-3.314-2.686-6-6-6s-6 2.686-6 6c0 3.314 2.686 6 6 6v0zM7.333 26c-2.209 0-4-1.791-4-4s1.791-4 4-4v0c2.209 0 4 1.791 4 4s-1.791 4-4 4v0z"></path>
</svg>
