<!-- Generated by IcoMoon.io -->
<svg version="1.1" xmlns="http://www.w3.org/2000/svg" width="32" height="32" viewBox="0 0 32 32">
<title>slide-multiple-search</title>
<path d="M26.333 27.333h-10.367l-2-2h12.367c0.552 0 1-0.448 1-1v-12.667c0-0.552-0.448-1-1-1h-16c-0.552 0-1 0.448-1 1v3.276c-0.636-0.18-1.307-0.276-2-0.276v-3c0-1.657 1.343-3 3-3h13v-1.667c0-0.552-0.448-1-1-1h-16c-0.92 0-1.667 0.746-1.667 1.667v7.5c-0.731 0.285-1.405 0.685-2 1.176v-8.676c0-2.025 1.642-3.667 3.667-3.667h16c1.657 0 3 1.343 3 3v1.667h1c1.657 0 3 1.343 3 3v12.667c0 1.657-1.343 3-3 3zM10.81 26.891c-0.981 0.698-2.181 1.109-3.477 1.109-3.314 0-6-2.686-6-6s2.686-6 6-6c3.314 0 6 2.686 6 6 0 1.296-0.411 2.496-1.109 3.477l3.483 3.483c0.391 0.391 0.391 1.024 0 1.414s-1.024 0.391-1.414 0l-3.483-3.483zM3.333 22c0 2.209 1.791 4 4 4s4-1.791 4-4c0-2.209-1.791-4-4-4s-4 1.791-4 4z"></path>
</svg>
