<!-- Generated by IcoMoon.io -->
<svg version="1.1" xmlns="http://www.w3.org/2000/svg" width="32" height="32" viewBox="0 0 32 32">
<title>slide-hide</title>
<path d="M6.333 6c-0.92 0-1.667 0.746-1.667 1.667v12c0 0.552 0.448 1 1 1h0.333v2h-0.333c-1.657 0-3-1.343-3-3v-12c0-2.025 1.642-3.667 3.667-3.667h16c1.657 0 3 1.343 3 3v0.333h-2v-0.333c0-0.552-0.448-1-1-1h-16z"></path>
<path d="M26.333 8.667h-0.661l-0.136 0.009c-0.488 0.066-0.864 0.485-0.864 0.991 0 0.552 0.448 1 1 1h0.661l0.136 0.009c0.488 0.066 0.864 0.485 0.864 0.991v1.338l0.009 0.136c0.066 0.488 0.485 0.864 0.991 0.864 0.552 0 1-0.448 1-1v-1.338l-0.007-0.205c-0.106-1.561-1.405-2.795-2.993-2.795z"></path>
<path d="M9.324 16.199c-0.066-0.488-0.485-0.864-0.991-0.864-0.552 0-1 0.448-1 1v3.326l0.009 0.136c0.066 0.488 0.485 0.864 0.991 0.864 0.552 0 1-0.448 1-1v-3.326l-0.009-0.136z"></path>
<path d="M8.333 21.994c0.506 0 0.925 0.376 0.991 0.864l0.009 0.136v1.34c0 0.506 0.376 0.925 0.864 0.991l0.136 0.009h0.667c0.552 0 1 0.448 1 1 0 0.506-0.376 0.925-0.864 0.991l-0.136 0.009h-0.667c-1.588 0-2.888-1.234-2.993-2.795l-0.007-0.205v-1.34c0-0.552 0.448-1 1-1z"></path>
<path d="M28.333 21.994c0.552 0 1 0.448 1 1v1.34c0 1.657-1.343 3-3 3h-1.337c-0.552 0-1-0.448-1-1s0.448-1 1-1h1.337c0.552 0 1-0.448 1-1v-1.34c0-0.552 0.448-1 1-1z"></path>
<path d="M21.664 25.333h-1.993l-0.136 0.009c-0.488 0.066-0.864 0.485-0.864 0.991 0 0.552 0.448 1 1 1h1.993l0.136-0.009c0.488-0.066 0.864-0.485 0.864-0.991 0-0.552-0.448-1-1-1z"></path>
<path d="M14.334 25.333h1.994c0.552 0 1 0.448 1 1 0 0.506-0.376 0.925-0.864 0.991l-0.136 0.009h-1.994c-0.552 0-1-0.448-1-1 0-0.506 0.376-0.925 0.864-0.991l0.136-0.009z"></path>
<path d="M28.333 15.334c0.506 0 0.925 0.376 0.991 0.864l0.009 0.136v3.326c0 0.552-0.448 1-1 1-0.506 0-0.925-0.376-0.991-0.864l-0.009-0.136v-3.326c0-0.552 0.448-1 1-1z"></path>
<path d="M11.67 8.667c0.552 0 1 0.448 1 1s-0.448 1-1 1h-1.337c-0.552 0-1 0.448-1 1v1.338c0 0.552-0.448 1-1 1s-1-0.448-1-1v-1.338c0-1.657 1.343-3 3-3h1.337z"></path>
<path d="M22.336 8.667h-2.004l-0.136 0.009c-0.488 0.066-0.864 0.485-0.864 0.991 0 0.552 0.448 1 1 1h2.004l0.136-0.009c0.488-0.066 0.864-0.485 0.864-0.991 0-0.552-0.448-1-1-1z"></path>
<path d="M15 8.667h1.993c0.552 0 1 0.448 1 1 0 0.506-0.376 0.925-0.864 0.991l-0.136 0.009h-1.993c-0.552 0-1-0.448-1-1 0-0.506 0.376-0.925 0.864-0.991l0.136-0.009z"></path>
</svg>
