<!-- Generated by IcoMoon.io -->
<svg version="1.1" xmlns="http://www.w3.org/2000/svg" width="32" height="32" viewBox="0 0 32 32">
<title>slide-grid</title>
<path d="M6.667 18.333c0-0.921 0.746-1.667 1.667-1.667h5.333c0.921 0 1.667 0.746 1.667 1.667v2.667c0 0.921-0.746 1.667-1.667 1.667h-5.333c-0.92 0-1.667-0.746-1.667-1.667v-2.667zM8.667 18.667v2h4.667v-2h-4.667zM18.333 16.667c-0.921 0-1.667 0.746-1.667 1.667v2.667c0 0.921 0.746 1.667 1.667 1.667h5.333c0.921 0 1.667-0.746 1.667-1.667v-2.667c0-0.921-0.746-1.667-1.667-1.667h-5.333zM18.667 20.667v-2h4.667v2h-4.667zM6.667 11c0-0.92 0.746-1.667 1.667-1.667h5.333c0.921 0 1.667 0.746 1.667 1.667v2.667c0 0.921-0.746 1.667-1.667 1.667h-5.333c-0.92 0-1.667-0.746-1.667-1.667v-2.667zM8.667 11.333v2h4.667v-2h-4.667zM18.333 9.333c-0.921 0-1.667 0.746-1.667 1.667v2.667c0 0.921 0.746 1.667 1.667 1.667h5.333c0.921 0 1.667-0.746 1.667-1.667v-2.667c0-0.92-0.746-1.667-1.667-1.667h-5.333zM18.667 13.333v-2h4.667v2h-4.667zM2.667 9c0-2.025 1.642-3.667 3.667-3.667h19.333c2.025 0 3.667 1.642 3.667 3.667v14c0 2.025-1.642 3.667-3.667 3.667h-19.333c-2.025 0-3.667-1.642-3.667-3.667v-14zM6.333 7.333c-0.92 0-1.667 0.746-1.667 1.667v14c0 0.921 0.746 1.667 1.667 1.667h19.333c0.921 0 1.667-0.746 1.667-1.667v-14c0-0.92-0.746-1.667-1.667-1.667h-19.333z"></path>
</svg>
