<!-- Generated by IcoMoon.io -->
<svg version="1.1" xmlns="http://www.w3.org/2000/svg" width="32" height="32" viewBox="0 0 32 32">
<title>slide-settings</title>
<path d="M2.667 9.667c0-2.393 1.94-4.333 4.333-4.333v0h18c2.393 0 4.333 1.94 4.333 4.333v0 7.413c-0.578-0.555-1.235-1.034-1.953-1.415l-0.047-0.023v-5.976c0-1.289-1.045-2.333-2.333-2.333v0h-18c-1.289 0-2.333 1.045-2.333 2.333v0 12.667c0 1.288 1.045 2.333 2.333 2.333h7.768c0.108 0.697 0.299 1.368 0.563 2h-8.331c-2.393 0-4.333-1.94-4.333-4.333v0-12.667zM19.037 18.635c0.066 0.221 0.105 0.476 0.105 0.739 0 1.245-0.854 2.291-2.007 2.585l-0.018 0.004-0.779 0.192c-0.058 0.355-0.092 0.764-0.092 1.18 0 0.434 0.036 0.86 0.106 1.275l-0.006-0.045 0.72 0.173c1.181 0.291 2.042 1.341 2.042 2.593 0 0.269-0.040 0.528-0.114 0.773l0.005-0.019-0.249 0.841c0.587 0.515 1.253 0.932 1.979 1.229l0.659-0.692c0.487-0.511 1.173-0.829 1.933-0.829s1.446 0.318 1.932 0.828l0.001 0.001 0.664 0.7c0.76-0.313 1.413-0.723 1.985-1.224l-0.008 0.007-0.264-0.915c-0.066-0.221-0.105-0.476-0.105-0.739 0-1.245 0.854-2.291 2.007-2.585l0.018-0.004 0.779-0.192c0.059-0.355 0.092-0.764 0.092-1.18 0-0.434-0.036-0.86-0.106-1.275l0.006 0.045-0.72-0.173c-1.181-0.291-2.042-1.341-2.042-2.593 0-0.269 0.040-0.528 0.114-0.773l-0.005 0.019 0.249-0.84c-0.564-0.499-1.218-0.913-1.932-1.212l-0.046-0.017-0.657 0.691c-0.487 0.512-1.173 0.83-1.933 0.83s-1.447-0.318-1.932-0.829l-0.001-0.001-0.664-0.7c-0.76 0.313-1.413 0.722-1.985 1.223l0.008-0.007 0.264 0.916zM23.333 25.333c-1.067 0-1.933-0.896-1.933-2s0.867-2 1.933-2c1.067 0 1.933 0.896 1.933 2s-0.867 2-1.933 2z"></path>
</svg>
