<!-- Generated by IcoMoon.io -->
<svg version="1.1" xmlns="http://www.w3.org/2000/svg" width="32" height="32" viewBox="0 0 32 32">
<title>slide-microphone</title>
<path d="M6.333 5.333c-2.025 0-3.667 1.642-3.667 3.667v14c0 2.025 1.642 3.667 3.667 3.667h12.004c-0.397-0.609-0.69-1.281-0.854-2h-11.15c-0.92 0-1.667-0.746-1.667-1.667v-14c0-0.92 0.746-1.667 1.667-1.667h19.333c0.921 0 1.667 0.746 1.667 1.667v6.499c1.26 0.89 2 2.373 2 3.835v-10.333c0-2.025-1.642-3.667-3.667-3.667h-19.333z"></path>
<path d="M22.029 26.667c-0.823-0.467-1.456-1.158-1.782-2-0.16-0.411-0.246-0.859-0.246-1.333 0-0.368-0.299-0.667-0.667-0.667s-0.667 0.299-0.667 0.667c0 0.458 0.069 0.905 0.198 1.333 0.222 0.737 0.623 1.417 1.16 2 0.968 1.052 2.377 1.787 3.975 1.963v1.37c0 0.368 0.299 0.667 0.667 0.667s0.667-0.299 0.667-0.667v-1.37c3-0.332 5.333-2.63 5.333-5.297 0-0.368-0.299-0.667-0.667-0.667s-0.667 0.299-0.667 0.667c0 2.333-2.089 4-4.667 4-0.979 0-1.888-0.241-2.638-0.667z"></path>
<path d="M24.667 26c-1.149 0-2.078-0.549-2.661-1.333-0.431-0.581-0.673-1.29-0.673-2v-3.333c0-1.672 1.333-3.333 3.333-3.333 1.153 0 2.085 0.556 2.667 1.345 0.428 0.58 0.667 1.285 0.667 1.988v3.333c0 1.661-1.333 3.333-3.333 3.333z"></path>
<path d="M9 10.667c-0.552 0-1 0.448-1 1s0.448 1 1 1h6c0.552 0 1-0.448 1-1s-0.448-1-1-1h-6z"></path>
<path d="M8 15.667c0-0.552 0.448-1 1-1h8.667c0.552 0 1 0.448 1 1s-0.448 1-1 1h-8.667c-0.552 0-1-0.448-1-1z"></path>
<path d="M8 19.667c0-0.552 0.448-1 1-1h7.333c0.552 0 1 0.448 1 1s-0.448 1-1 1h-7.333c-0.552 0-1-0.448-1-1z"></path>
</svg>
