<!-- Generated by IcoMoon.io -->
<svg version="1.1" xmlns="http://www.w3.org/2000/svg" width="32" height="32" viewBox="0 0 32 32">
<title>smartwatch</title>
<path d="M10 8.535v-3.201c0-1.473 1.194-2.667 2.667-2.667v0h6.667c1.473 0 2.667 1.194 2.667 2.667v0 3.201c1.204 0.704 2 1.991 2 3.463 0 0.001 0 0.001 0 0.002v-0 1.333c0.736 0 1.333 0.597 1.333 1.333v0 1.333c0 0.736-0.597 1.333-1.333 1.333v0 2.667c0 1.48-0.804 2.773-2 3.465v3.201c0 1.473-1.194 2.667-2.667 2.667v0h-6.667c-1.473 0-2.667-1.194-2.667-2.667v0-3.201c-1.204-0.704-2-1.991-2-3.463 0-0.001 0-0.001 0-0.002v0-8c0-1.48 0.804-2.773 2-3.465zM12.667 4.667c-0.368 0-0.667 0.298-0.667 0.667v0 2.667h8v-2.667c0-0.368-0.298-0.667-0.667-0.667v0h-6.667zM22 20v-8c0-1.105-0.895-2-2-2v0h-8c-1.105 0-2 0.895-2 2v0 8c0 1.105 0.895 2 2 2v0h8c1.105 0 2-0.895 2-2v0zM12 26.667c0 0.368 0.298 0.667 0.667 0.667v0h6.667c0.368 0 0.667-0.298 0.667-0.667v0-2.667h-8v2.667z"></path>
</svg>
