<!-- Generated by IcoMoon.io -->
<svg version="1.1" xmlns="http://www.w3.org/2000/svg" width="32" height="32" viewBox="0 0 32 32">
<title>snooze</title>
<path d="M10.993 17.338c0.771 0 1.234 0.825 0.882 1.472l-0.076 0.119-6.163 8.403 5.357 0c0.506 0 0.925 0.376 0.991 0.864l0.009 0.136c0 0.506-0.376 0.925-0.864 0.991l-0.136 0.009h-7.329c-0.771 0-1.234-0.825-0.882-1.472l0.076-0.119 6.161-8.404-5.354 0.001c-0.506 0-0.925-0.376-0.991-0.864l-0.009-0.136c0-0.506 0.376-0.925 0.864-0.991l0.136-0.009h7.328zM28.336 2.667c0.799 0 1.257 0.879 0.851 1.526l-0.081 0.112-11.322 13.691 10.551 0c0.506 0 0.925 0.376 0.991 0.864l0.009 0.136c0 0.506-0.376 0.925-0.864 0.991l-0.136 0.009h-12.672c-0.799 0-1.257-0.879-0.851-1.526l0.081-0.111 11.319-13.692-10.548 0.001c-0.506 0-0.925-0.376-0.991-0.864l-0.009-0.136c0-0.506 0.376-0.925 0.864-0.991l0.136-0.009h12.672z"></path>
</svg>
