<!-- Generated by IcoMoon.io -->
<svg version="1.1" xmlns="http://www.w3.org/2000/svg" width="32" height="32" viewBox="0 0 32 32">
<title>snooze</title>
<path d="M10.992 17.339c0 0 0.001 0 0.001 0 0.552 0 1 0.448 1 1 0 0.173-0.044 0.335-0.121 0.477l0.003-0.005-0.076 0.12-6.163 8.401h5.356c0.505 0 0.922 0.374 0.99 0.86l0.001 0.005 0.009 0.136c-0 0.504-0.373 0.921-0.859 0.99l-0.005 0.001-0.136 0.009h-7.329c-0 0-0 0-0 0-0.552 0-1-0.448-1-1 0-0.173 0.044-0.336 0.122-0.479l-0.003 0.005 0.076-0.119 6.16-8.404h-5.352c-0.504-0-0.921-0.373-0.99-0.859l-0.001-0.005-0.009-0.135c0-0.505 0.374-0.922 0.86-0.99l0.005-0.001 0.135-0.009h7.328zM28.336 2.667c0.799 0 1.257 0.879 0.851 1.525l-0.080 0.112-11.321 13.691h10.551c0.505 0 0.922 0.374 0.99 0.86l0.001 0.005 0.009 0.135c0 0 0 0.001 0 0.001 0 0.504-0.373 0.921-0.859 0.99l-0.005 0.001-0.136 0.008h-12.673c-0.552-0-1-0.448-1-1 0-0.194 0.056-0.376 0.152-0.53l-0.002 0.004 0.080-0.111 11.321-13.692-10.549 0.001c-0.504-0-0.921-0.373-0.99-0.859l-0.001-0.005-0.009-0.136c0-0.505 0.374-0.922 0.86-0.99l0.005-0.001 0.133-0.011h12.673z"></path>
</svg>
