<!-- Generated by IcoMoon.io -->
<svg version="1.1" xmlns="http://www.w3.org/2000/svg" width="32" height="32" viewBox="0 0 32 32">
<title>sound-source</title>
<path d="M16.743 17.973l0.103 0.101 8.846 9.729c0.184 0.202 0.297 0.472 0.297 0.769 0 0.584-0.439 1.067-1.005 1.135l-0.005 0.001-0.133 0.008h-17.69c-0 0-0.001 0-0.001 0-0.631 0-1.143-0.512-1.143-1.143 0-0.246 0.078-0.474 0.21-0.661l-0.002 0.004 0.090-0.112 8.846-9.729c0.21-0.23 0.511-0.375 0.846-0.375 0.284 0 0.544 0.104 0.744 0.275l-0.002-0.001zM16 19.691l-7.554 8.309h15.109l-7.554-8.309zM16 2.286c8.206 0 14.857 6.651 14.857 14.857 0 0.006 0 0.014 0 0.021 0 3.749-1.394 7.172-3.692 9.78l0.014-0.016-0.104-0.143-0.117-0.136-0.925-1.017c1.933-2.267 3.109-5.231 3.109-8.469 0-0.007 0-0.014-0-0.021v0.001c0-7.258-5.885-13.143-13.143-13.143s-13.143 5.885-13.143 13.143c0 3.235 1.169 6.199 3.109 8.488l-0.926 1.018c-0.077 0.086-0.146 0.182-0.205 0.284l-0.004 0.008c-2.29-2.595-3.688-6.025-3.688-9.781 0-0.006 0-0.013 0-0.019v0.001c0-8.206 6.651-14.857 14.857-14.857zM16 6.857c0 0 0 0 0.001 0 5.681 0 10.286 4.605 10.286 10.286 0 2.407-0.827 4.62-2.211 6.372l0.016-0.022-1.173-1.289c1.033-1.399 1.653-3.157 1.653-5.060 0-4.734-3.838-8.571-8.571-8.571s-8.571 3.838-8.571 8.571c0 1.903 0.62 3.662 1.67 5.084l-0.017-0.023-1.174 1.289c-1.368-1.731-2.195-3.944-2.195-6.351 0-5.681 4.605-10.286 10.286-10.286 0 0 0 0 0.001 0v0zM16 11.429c0 0 0.001 0 0.001 0 3.156 0 5.714 2.558 5.714 5.714 0 1.062-0.29 2.056-0.794 2.908l0.015-0.026-1.234-1.36c0.189-0.449 0.299-0.971 0.299-1.518 0-2.209-1.791-4-4-4s-4 1.791-4 4c0 0.548 0.11 1.070 0.309 1.545l-0.010-0.026-1.238 1.359c-0.49-0.825-0.779-1.819-0.779-2.88 0-3.156 2.558-5.714 5.714-5.714 0.001 0 0.001 0 0.002 0h-0z"></path>
</svg>
