<!-- Generated by IcoMoon.io -->
<svg version="1.1" xmlns="http://www.w3.org/2000/svg" width="32" height="32" viewBox="0 0 32 32">
<title>sound-wave-circle-regular</title>
<path d="M14.667 11.667c0-0.552-0.448-1-1-1s-1 0.448-1 1v0 8.667c0 0.552 0.448 1 1 1s1-0.448 1-1v0-8.667zM22.667 11.667c0-0.552-0.448-1-1-1s-1 0.448-1 1v0 8.667c0 0.552 0.448 1 1 1s1-0.448 1-1v0-8.667zM18.667 13.667c0-0.552-0.448-1-1-1s-1 0.448-1 1v0 4.667c0 0.552 0.448 1 1 1s1-0.448 1-1v0-4.667zM10.667 14.333c0-0.552-0.448-1-1-1s-1 0.448-1 1v0 3.333c0 0.552 0.448 1 1 1s1-0.448 1-1v0-3.333zM16 2.667c-7.364 0-13.333 5.969-13.333 13.333s5.969 13.333 13.333 13.333 13.333-5.969 13.333-13.333-5.969-13.333-13.333-13.333zM4.667 16c0-6.259 5.074-11.333 11.333-11.333s11.333 5.074 11.333 11.333v0c0 6.259-5.074 11.333-11.333 11.333s-11.333-5.074-11.333-11.333v0z"></path>
</svg>
