<!-- Generated by IcoMoon.io -->
<svg version="1.1" xmlns="http://www.w3.org/2000/svg" width="32" height="32" viewBox="0 0 32 32">
<title>sparkle-regular</title>
<path d="M11.638 21.007c0.287 0.205 0.644 0.328 1.030 0.328 0.383 0 0.738-0.121 1.028-0.327l-0.006 0.004c0.27-0.192 0.482-0.455 0.611-0.759l0.824-2.513c0.418-1.231 1.369-2.182 2.571-2.591l0.029-0.009 2.421-0.789c0.698-0.251 1.188-0.908 1.188-1.679s-0.49-1.427-1.176-1.675l-0.012-0.004-2.467-0.795c-1.227-0.419-2.176-1.366-2.588-2.563l-0.009-0.029-0.786-2.419c-0.127-0.355-0.354-0.649-0.645-0.857l-0.005-0.004c-0.287-0.201-0.644-0.321-1.028-0.321s-0.741 0.12-1.034 0.325l0.006-0.004c-0.302 0.216-0.531 0.517-0.654 0.867l-0.004 0.013-0.795 2.445c-0.419 1.195-1.339 2.12-2.502 2.536l-0.029 0.009-2.418 0.785c-0.698 0.251-1.189 0.908-1.189 1.679 0 0.779 0.5 1.44 1.196 1.682l0.013 0.004 2.391 0.777c1.231 0.421 2.182 1.374 2.593 2.578l0.009 0.029 0.787 2.415c0.122 0.347 0.349 0.649 0.651 0.861zM12.775 19.592l-0.041 0.054c-0.018 0.011-0.040 0.018-0.063 0.018-0.026 0-0.050-0.008-0.070-0.022l0 0c-0.014-0.009-0.025-0.021-0.034-0.034l-0-0-0.78-2.4c-0.297-0.889-0.776-1.648-1.395-2.267v0c-0.62-0.619-1.381-1.099-2.229-1.388l-0.041-0.012-2.379-0.769c-0.023-0.009-0.041-0.024-0.055-0.042l-0-0c-0.013-0.018-0.020-0.039-0.020-0.063 0-0.001 0-0.002 0-0.004v0c0-0.025 0.008-0.048 0.022-0.067l-0 0c0.010-0.013 0.021-0.024 0.034-0.034l0-0 2.413-0.783c0.874-0.308 1.62-0.789 2.229-1.405l0.001-0.001c0.591-0.602 1.053-1.332 1.339-2.146l0.012-0.041 0.792-2.441c0.016-0.045 0.058-0.076 0.107-0.076 0.001 0 0.001 0 0.002 0h-0c0 0 0 0 0 0 0.043 0 0.080 0.022 0.101 0.056l0 0 0.781 2.4c0.301 0.884 0.779 1.64 1.395 2.257l-0-0c0.62 0.619 1.379 1.098 2.226 1.388l0.041 0.012 2.444 0.791c0.016 0.008 0.029 0.020 0.040 0.034l0 0c0.013 0.020 0.020 0.043 0.020 0.067s-0.007 0.047-0.020 0.067c-0.010 0.013-0.020 0.023-0.032 0.033l-0 0-2.407 0.781c-1.733 0.587-3.072 1.927-3.647 3.619l-0.012 0.041-0.773 2.378zM21.917 27.095c0.219 0.155 0.481 0.239 0.749 0.239l0.003 0.002c0.569-0 1.052-0.367 1.227-0.876l0.003-0.009 0.379-1.167c0.162-0.473 0.527-0.839 0.988-0.998l0.011-0.003 1.193-0.388c0.508-0.184 0.864-0.662 0.864-1.223 0-0.281-0.089-0.54-0.24-0.753l0.003 0.004c-0.164-0.227-0.393-0.398-0.661-0.484l-0.009-0.003-1.171-0.379c-0.473-0.161-0.839-0.527-0.997-0.989l-0.003-0.011-0.388-1.193c-0.182-0.509-0.661-0.867-1.223-0.867-0.569 0-1.053 0.367-1.227 0.878l-0.003 0.009-0.381 1.171c-0.157 0.466-0.512 0.829-0.962 0.993l-0.011 0.003-1.193 0.388c-0.508 0.183-0.865 0.661-0.865 1.222 0 0.569 0.366 1.052 0.876 1.226l0.009 0.003 1.168 0.38c0.474 0.162 0.84 0.529 0.997 0.993l0.003 0.011 0.388 1.192c0.089 0.253 0.255 0.473 0.473 0.627zM20.573 22.693l-0.079-0.026 0.093-0.033c0.963-0.339 1.704-1.091 2.022-2.038l0.007-0.023 0.027-0.081 0.027 0.085c0.331 0.976 1.085 1.73 2.038 2.053l0.023 0.007 0.104 0.033-0.081 0.027c-0.977 0.331-1.732 1.086-2.055 2.040l-0.007 0.023-0.027 0.081-0.027-0.082c-0.33-0.98-1.087-1.736-2.044-2.060l-0.023-0.007z"></path>
</svg>
