<!-- Generated by IcoMoon.io -->
<svg version="1.1" xmlns="http://www.w3.org/2000/svg" width="32" height="32" viewBox="0 0 32 32">
<title>sparkle-circle</title>
<path d="M16 4.667c-6.259 0-11.333 5.074-11.333 11.333s5.074 11.333 11.333 11.333v0c6.259 0 11.333-5.074 11.333-11.333s-5.074-11.333-11.333-11.333v0zM2.667 16c0-7.364 5.969-13.333 13.333-13.333s13.333 5.969 13.333 13.333-5.969 13.333-13.333 13.333-13.333-5.969-13.333-13.333zM18.736 16.94c0.377-1.253 2.153-1.253 2.529 0l0.239 0.797c0.112 0.366 0.394 0.648 0.752 0.758l0.008 0.002 0.797 0.24c1.253 0.376 1.253 2.152 0 2.528l-0.797 0.24c-0.366 0.112-0.648 0.394-0.758 0.752l-0.002 0.008-0.24 0.796c-0.375 1.255-2.152 1.255-2.528 0l-0.24-0.797c-0.112-0.366-0.394-0.648-0.752-0.758l-0.008-0.002-0.795-0.239c-1.255-0.375-1.255-2.152 0-2.528l0.796-0.24c0.366-0.112 0.648-0.394 0.758-0.752l0.002-0.008 0.24-0.797zM20 19.177c-0.224 0.326-0.497 0.6-0.812 0.817l-0.011 0.007c0.323 0.22 0.603 0.5 0.824 0.824 0.22-0.324 0.5-0.603 0.823-0.824-0.326-0.224-0.6-0.498-0.817-0.813l-0.007-0.011zM13.925 8.221c-0.42-1.184-2.096-1.184-2.515 0l-0.609 1.725c-0.144 0.4-0.454 0.709-0.844 0.85l-0.010 0.003-1.725 0.611c-1.187 0.419-1.187 2.095 0 2.513l1.725 0.611c0.4 0.141 0.712 0.453 0.853 0.853l0.609 1.724c0.419 1.187 2.093 1.187 2.515 0.001l0.611-1.727c0.144-0.4 0.454-0.709 0.844-0.85l0.010-0.003 1.724-0.609c1.184-0.419 1.184-2.093 0-2.513l-1.727-0.611c-0.399-0.145-0.708-0.454-0.849-0.844l-0.003-0.010-0.611-1.725zM10.664 12.667c0.93-0.352 1.65-1.073 1.995-1.979l0.008-0.023c0.353 0.93 1.075 1.651 1.982 1.995l0.023 0.008c-0.931 0.352-1.653 1.073-1.998 1.981l-0.008 0.023c-0.351-0.93-1.071-1.651-1.977-1.996l-0.023-0.008z"></path>
</svg>
