<!-- Generated by IcoMoon.io -->
<svg version="1.1" xmlns="http://www.w3.org/2000/svg" width="32" height="32" viewBox="0 0 32 32">
<title>speaker-mute</title>
<path d="M17.226 4.421c1.075-0.956 2.774-0.193 2.774 1.246v20.661c0 1.438-1.699 2.201-2.774 1.245l-5.989-5.325c-0.183-0.163-0.42-0.253-0.665-0.253h-4.906c-1.657 0-3-1.343-3-3v-5.997c0-1.657 1.343-3 3-3h4.906c0.245 0 0.481-0.090 0.664-0.253l5.989-5.324zM18 6.409l-5.434 4.831c-0.549 0.488-1.258 0.758-1.993 0.758h-4.906c-0.552 0-1 0.448-1 1v5.997c0 0.552 0.448 1 1 1h4.906c0.735 0 1.444 0.27 1.993 0.758l5.434 4.832v-19.176z"></path>
<path d="M21.626 12.293c0.391-0.391 1.024-0.391 1.414 0l2.293 2.293 2.293-2.293c0.391-0.391 1.024-0.391 1.414 0s0.391 1.024 0 1.414l-2.293 2.293 2.293 2.293c0.391 0.391 0.391 1.024 0 1.414s-1.024 0.391-1.414 0l-2.293-2.293-2.293 2.293c-0.391 0.391-1.024 0.391-1.414 0s-0.391-1.024 0-1.414l2.293-2.293-2.293-2.293c-0.391-0.39-0.391-1.024 0-1.414z"></path>
</svg>
