<!-- Generated by IcoMoon.io -->
<svg version="1.1" xmlns="http://www.w3.org/2000/svg" width="32" height="32" viewBox="0 0 32 32">
<title>speaker-bluetooth</title>
<path d="M19.605 4.59c0.255 0.301 0.395 0.682 0.395 1.077v20.669c0 0.92-0.746 1.667-1.667 1.667-0.394 0-0.776-0.14-1.077-0.395l-6.623-5.608h-4.967c-1.657 0-3-1.343-3-3v-6c0-1.657 1.343-3 3-3h4.967l6.623-5.605c0.703-0.595 1.754-0.507 2.349 0.196zM18 6.386l-6.634 5.614h-5.7c-0.552 0-1 0.448-1 1v6c0 0.552 0.448 1 1 1h5.7l6.634 5.617v-19.231zM23.333 13.194v-4.194c0-0.862 1.003-1.3 1.633-0.775l0.101 0.097 4 4.333c0.356 0.385 0.349 0.972 0.007 1.349l-0.102 0.097-2.277 1.897 2.278 1.9c0.403 0.336 0.472 0.918 0.182 1.336l-0.088 0.11-4 4.335c-0.585 0.634-1.619 0.275-1.726-0.538l-0.009-0.14v-4.201l-0.355 0.296c-0.424 0.353-1.055 0.296-1.408-0.128-0.321-0.386-0.303-0.942 0.022-1.305l0.107-0.103 1.636-1.363v-0.399l-1.636-1.365c-0.424-0.354-0.481-0.984-0.127-1.408 0.322-0.386 0.872-0.468 1.288-0.214l0.12 0.086 0.355 0.296zM25.333 17.467v2.977l1.552-1.682-1.552-1.295zM25.333 11.557v2.974l1.552-1.293-1.552-1.681z"></path>
</svg>
