<!-- Generated by IcoMoon.io -->
<svg version="1.1" xmlns="http://www.w3.org/2000/svg" width="32" height="32" viewBox="0 0 32 32">
<title>speaker-mute</title>
<path d="M16.721 4.279c0.751-0.674 1.946-0.141 1.946 0.867v21.707c0 1.009-1.195 1.542-1.946 0.868l-5.471-4.911c-0.558-0.503-1.301-0.811-2.115-0.811h-3.135c-1.933 0-3.5-1.567-3.5-3.5v0-5c0-1.933 1.567-3.5 3.5-3.5h3.135c0.815-0 1.557-0.308 2.118-0.813l-0.003 0.003 5.471-4.911zM17 6.268l-4.637 4.163c-0.852 0.767-1.985 1.236-3.228 1.236-0 0-0 0-0.001 0h-3.135c-1.013 0-1.833 0.821-1.833 1.833v0 5c0 1.013 0.821 1.833 1.833 1.833v0h3.135c1.243 0 2.377 0.469 3.233 1.241l-0.004-0.004 4.637 4.163v-19.465zM21.577 12.245c0.151-0.151 0.359-0.244 0.589-0.244s0.439 0.093 0.589 0.244l2.577 2.577 2.577-2.577c0.152-0.157 0.364-0.255 0.6-0.255 0.46 0 0.833 0.373 0.833 0.833 0 0.235-0.097 0.447-0.254 0.599l-2.578 2.578 2.577 2.578c0.145 0.15 0.234 0.354 0.234 0.579 0 0.46-0.373 0.833-0.833 0.833-0.225 0-0.429-0.089-0.579-0.234l-2.577-2.577-2.577 2.577c-0.15 0.145-0.354 0.234-0.579 0.234-0.46 0-0.833-0.373-0.833-0.833 0-0.225 0.089-0.429 0.234-0.579l-0 0 2.577-2.578-2.577-2.577c-0.151-0.151-0.244-0.359-0.244-0.589s0.093-0.438 0.244-0.589v0z"></path>
</svg>
