<!-- Generated by IcoMoon.io -->
<svg version="1.1" xmlns="http://www.w3.org/2000/svg" width="32" height="32" viewBox="0 0 32 32">
<title>speaker-edit</title>
<path d="M19.999 5.669c0-1.437-1.699-2.2-2.773-1.245l-5.989 5.324c-0.176 0.157-0.409 0.253-0.664 0.253h-4.905c-1.656 0-2.999 1.342-3 2.999v5.996c0 1.657 1.343 3 3 3v0h4.907c0.255 0 0.487 0.096 0.664 0.253l-0.001-0.001 4.164 3.701c0.191-0.668 0.52-1.287 0.965-1.817l-3.8-3.379c-0.527-0.471-1.227-0.758-1.993-0.759h-4.905c-0.552 0-1-0.448-1-1v0-5.995c0-0.552 0.448-1 1-1v0h4.907c0.767-0 1.466-0.288 1.996-0.761l-0.003 0.003 5.433-4.829v16.061l2-2v-14.804zM26.719 8.073c1.439 1.923 2.375 4.298 2.572 6.88l0.003 0.045c-0.494-0.209-1.070-0.331-1.673-0.331-0.128 0-0.255 0.005-0.381 0.016l0.016-0.001c-0.245-2.061-1.012-3.907-2.165-5.448l0.021 0.029c-0.128-0.166-0.206-0.378-0.206-0.608 0-0.552 0.448-1 1-1 0.333 0 0.629 0.163 0.81 0.414l0.002 0.003zM24.212 11.564c0.613 1.133 0.999 2.409 1.096 3.763-0.28 0.173-0.544 0.381-0.787 0.624l-1.295 1.295c0.069-0.404 0.105-0.82 0.105-1.244 0-0.004 0-0.008 0-0.012 0-1.273-0.326-2.469-0.899-3.511l0.019 0.038c-0.076-0.138-0.12-0.302-0.12-0.476 0-0.553 0.448-1.001 1-1.001 0.378 0 0.707 0.21 0.877 0.519l0.003 0.005zM25.465 16.893l-7.869 7.868c-0.446 0.446-0.775 1.008-0.937 1.638l-0.005 0.025-0.609 2.44c-0.028 0.106-0.044 0.227-0.044 0.353 0 0.8 0.649 1.449 1.449 1.449 0.125 0 0.246-0.016 0.362-0.045l-0.010 0.002 2.44-0.611c0.655-0.167 1.218-0.496 1.664-0.941l7.869-7.868c0.551-0.551 0.892-1.313 0.892-2.155 0-1.683-1.364-3.048-3.048-3.048-0.842 0-1.604 0.341-2.155 0.893v0z"></path>
</svg>
