<!-- Generated by IcoMoon.io -->
<svg version="1.1" xmlns="http://www.w3.org/2000/svg" width="32" height="32" viewBox="0 0 32 32">
<title>speaker-usb</title>
<path d="M16.451 4.459c0.912-0.855 2.406-0.208 2.406 1.042v20.994c0 1.25-1.493 1.897-2.406 1.042l-5.642-5.287c-0.357-0.335-0.838-0.54-1.367-0.541h-3.442c-2.051 0-3.714-1.663-3.714-3.714v0-3.991c0-2.051 1.663-3.714 3.714-3.714v0h3.441c0.509 0 0.998-0.194 1.368-0.541l5.642-5.291zM17.143 6.162l-5.161 4.839c-0.663 0.622-1.557 1.005-2.54 1.005-0 0-0 0-0 0h-3.441c-1.105 0-2 0.895-2 2v0 3.991c0 1.104 0.896 2 2 2h3.442c0.943 0 1.851 0.359 2.539 1.003l5.161 4.837v-19.675zM22.286 24v-2.666l-1.568-2.787c-0.092-0.161-0.146-0.354-0.146-0.56v-4.762c0-0.631 0.512-1.143 1.143-1.143v0-2.938c0-0.631 0.512-1.143 1.143-1.143v0h4.571c0.631 0 1.143 0.512 1.143 1.143v0 2.938c0.631 0 1.143 0.512 1.143 1.143v0 4.762c0 0 0 0 0 0.001 0 0.206-0.054 0.398-0.149 0.565l0.003-0.006-1.568 2.787v2.666c0 0.631-0.512 1.143-1.143 1.143v0h-3.429c-0.631 0-1.143-0.512-1.143-1.143v0zM26.857 9.714h-3.429v2.367h3.429v-2.367z"></path>
</svg>
