<!-- Generated by IcoMoon.io -->
<svg version="1.1" xmlns="http://www.w3.org/2000/svg" width="32" height="32" viewBox="0 0 32 32">
<title>speaker-settings</title>
<path d="M18.857 5.422c0-1.242-1.494-1.886-2.406-1.035l-5.642 5.256c-0.37 0.345-0.859 0.537-1.368 0.537h-3.441c-2.051 0-3.714 1.651-3.714 3.689v3.965c0 2.038 1.663 3.689 3.714 3.689h3.442c0.507 0 0.997 0.192 1.367 0.537l4.542 4.226c-0.305-0.831-0.485-1.789-0.494-2.789l-0-0.004-2.875-2.675c-0.664-0.618-1.557-0.998-2.538-0.998-0 0-0.001 0-0.001 0h-3.442c-1.104 0-2-0.889-2-1.986v-3.965c0-1.097 0.896-1.986 2-1.986h3.441c0.944 0 1.851-0.357 2.541-0.999l5.161-4.807v11.514c0.501-0.538 1.064-1.008 1.68-1.402l0.035-0.021v-10.746zM19.195 19.083c0.057 0.19 0.090 0.408 0.090 0.634 0 1.067-0.732 1.964-1.721 2.215l-0.016 0.003-1.17 0.29c-0.059 0.361-0.093 0.777-0.093 1.201 0 0.444 0.037 0.88 0.109 1.304l-0.006-0.046 1.115 0.269c1.012 0.25 1.75 1.15 1.75 2.222 0 0.23-0.034 0.453-0.098 0.663l0.004-0.016-0.37 1.255c0.592 0.526 1.269 0.953 2.003 1.257l0.963-1.013c0.417-0.438 1.005-0.711 1.657-0.711s1.239 0.273 1.656 0.71l0.001 0.001 0.971 1.023c0.769-0.321 1.431-0.74 2.009-1.252l-0.007 0.006-0.383-1.326c-0.057-0.19-0.090-0.408-0.090-0.634 0-1.067 0.732-1.964 1.721-2.215l0.016-0.003 1.173-0.289c0.059-0.361 0.093-0.777 0.093-1.201 0-0.444-0.037-0.88-0.109-1.304l0.006 0.046-1.117-0.269c-1.012-0.25-1.75-1.15-1.75-2.222 0-0.23 0.034-0.453 0.098-0.663l-0.004 0.016 0.37-1.257c-0.571-0.51-1.233-0.933-1.957-1.24l-0.047-0.017-0.963 1.015c-0.417 0.439-1.005 0.711-1.657 0.711s-1.24-0.273-1.656-0.71l-0.001-0.001-0.97-1.023c-0.77 0.32-1.432 0.74-2.010 1.252l0.007-0.006 0.383 1.326zM23.429 25.143c-0.947 0-1.714-0.767-1.714-1.714s0.767-1.714 1.714-1.714v0c0.947 0 1.714 0.767 1.714 1.714s-0.767 1.714-1.714 1.714v0z"></path>
</svg>
