<!-- Generated by IcoMoon.io -->
<svg version="1.1" xmlns="http://www.w3.org/2000/svg" width="32" height="32" viewBox="0 0 32 32">
<title>speaker-usb</title>
<path d="M17.226 4.421c1.075-0.956 2.774-0.193 2.774 1.246v20.661c0 1.438-1.699 2.201-2.774 1.245l-5.989-5.325c-0.183-0.163-0.42-0.253-0.665-0.253h-4.906c-1.657 0-3-1.343-3-3v-5.997c0-1.657 1.343-3 3-3h4.906c0.245 0 0.481-0.090 0.664-0.253l5.989-5.324zM18 6.409l-5.434 4.831c-0.549 0.488-1.258 0.758-1.993 0.758h-4.906c-0.552 0-1 0.448-1 1v5.997c0 0.552 0.448 1 1 1h4.906c0.735 0 1.444 0.27 1.993 0.758l5.434 4.832v-19.176z"></path>
<path d="M21.999 11c0-0.552 0.448-1 1-1h4.67c0.552 0 1 0.448 1 1v2.396c0.387 0.138 0.665 0.508 0.665 0.942v6.667c0 0.552-0.448 1-1 1h-0.315v3.662c0 0.552-0.448 1-1 1s-1-0.448-1-1v-3.662h-1.309v3.662c0 0.552-0.448 1-1 1s-1-0.448-1-1v-3.662h-0.376c-0.552 0-1-0.448-1-1v-6.667c0-0.435 0.278-0.805 0.665-0.943v-2.395zM27.333 15.338h-4v4.667h4v-4.667zM23.999 12v1.333h2.67v-1.333h-2.67z"></path>
</svg>
