<!-- Generated by IcoMoon.io -->
<svg version="1.1" xmlns="http://www.w3.org/2000/svg" width="32" height="32" viewBox="0 0 32 32">
<title>speaker-off</title>
<path d="M18.667 19.845l9.244 9.244c0.151 0.151 0.359 0.244 0.589 0.244 0.46 0 0.833-0.373 0.833-0.833 0-0.23-0.093-0.439-0.244-0.589v0l-25-25c-0.151-0.151-0.359-0.244-0.589-0.244-0.46 0-0.833 0.373-0.833 0.833 0 0.23 0.093 0.438 0.244 0.589l5.911 5.911h-2.821c-1.933 0-3.5 1.567-3.5 3.5v0 5c0 1.933 1.567 3.5 3.5 3.5h3.135c0 0 0 0 0 0 0.814 0 1.557 0.307 2.118 0.813l-0.003-0.003 5.471 4.911c0.751 0.675 1.946 0.142 1.946-0.867v-7.008zM17 18.179v7.553l-4.637-4.162c-0.852-0.767-1.986-1.237-3.229-1.237h-3.135c-1.013 0-1.833-0.821-1.833-1.833v0-5c0-1.013 0.821-1.833 1.833-1.833v0h3.135c0.409 0 0.812-0.052 1.202-0.152l6.663 6.664zM13.207 9.672l-1.18-1.18 4.693-4.213c0.751-0.673 1.946-0.141 1.946 0.869v9.984l-1.667-1.667v-7.197l-3.793 3.404zM24.124 20.588l-1.234-1.233c0.49-0.978 0.777-2.131 0.777-3.35 0-0.002 0-0.003 0-0.005v0c0-1.652-0.525-2.967-1.053-3.872-0.264-0.453-0.527-0.799-0.72-1.029-0.095-0.113-0.188-0.215-0.285-0.313l0 0.001-0.011-0.011h0.001c-0.159-0.152-0.258-0.366-0.258-0.603 0-0.46 0.373-0.833 0.833-0.833 0.216 0 0.413 0.082 0.561 0.217l-0.001-0.001-0.567 0.611c0.567-0.611 0.567-0.61 0.567-0.61h0.001l0.005 0.005 0.009 0.009c0.041 0.039 0.080 0.078 0.118 0.118l0.001 0.002c0.075 0.078 0.179 0.191 0.301 0.337 0.244 0.291 0.565 0.715 0.884 1.262 0.805 1.349 1.28 2.974 1.28 4.711 0 1.687-0.449 3.269-1.233 4.634l0.024-0.045zM27.346 23.81l-1.231-1.23c0.799-1.548 1.551-3.755 1.551-6.58 0-3.035-0.868-5.356-1.729-6.913-0.369-0.668-0.759-1.243-1.195-1.779l0.017 0.022c-0.158-0.194-0.313-0.367-0.475-0.533l0.002 0.002c-0.007-0.007-0.014-0.014-0.021-0.021l-0.004-0.004c-0.154-0.151-0.25-0.362-0.25-0.595 0-0.46 0.373-0.833 0.833-0.833 0.215 0 0.41 0.081 0.558 0.215l-0.001-0.001h0.001l0.007 0.007 0.013 0.011 0.040 0.039c0.033 0.033 0.078 0.079 0.135 0.139 0.113 0.12 0.269 0.293 0.455 0.521 0.477 0.586 0.922 1.242 1.309 1.934l0.035 0.069c0.972 1.76 1.937 4.355 1.937 7.72s-0.965 5.961-1.937 7.72l-0.013 0.024-0.037 0.067z"></path>
</svg>
