<!-- Generated by IcoMoon.io -->
<svg version="1.1" xmlns="http://www.w3.org/2000/svg" width="32" height="32" viewBox="0 0 32 32">
<title>speaker-bluetooth-regular</title>
<path d="M18.857 5.502c0-1.25-1.494-1.897-2.406-1.042l-5.642 5.291c-0.357 0.335-0.838 0.541-1.367 0.541-0 0-0 0-0.001 0h-3.441c-2.051 0-3.714 1.663-3.714 3.714v0 3.991c0 2.051 1.663 3.714 3.714 3.714v0h3.442c0.507 0 0.997 0.194 1.367 0.541l5.642 5.287c0.913 0.855 2.406 0.208 2.406-1.042v-20.994zM11.982 11.001l5.161-4.841v19.675l-5.161-4.837c-0.662-0.622-1.556-1.003-2.539-1.003-0 0-0 0-0 0h-3.442c-1.105 0-2-0.895-2-2v0-3.991c0-1.104 0.896-2 2-2h3.441c0.984-0 1.878-0.383 2.543-1.008l-0.002 0.002zM24.32 7.107c-0.155-0.155-0.369-0.251-0.606-0.251-0.473 0-0.857 0.383-0.857 0.856v6.361l-0.88-0.733c-0.15-0.132-0.348-0.212-0.564-0.212-0.473 0-0.857 0.384-0.857 0.857 0 0.271 0.126 0.513 0.323 0.67l0.002 0.001 1.611 1.342-1.611 1.343c-0.198 0.158-0.324 0.4-0.324 0.671 0 0.473 0.384 0.857 0.857 0.857 0.217 0 0.414-0.080 0.565-0.213l-0.001 0.001 0.88-0.734v6.36c0 0.473 0.384 0.856 0.857 0.856 0.236 0 0.451-0.096 0.606-0.251v0l4.571-4.571c0.155-0.155 0.251-0.37 0.251-0.607 0-0.264-0.119-0.5-0.307-0.658l-0.001-0.001-3.666-3.055 3.666-3.056c0.189-0.158 0.309-0.395 0.309-0.659 0-0.237-0.096-0.451-0.251-0.607v0l-4.571-4.571zM27.017 19.771l-2.446 2.446v-4.482l2.445 2.037zM24.571 9.783l2.445 2.446-2.445 2.037v-4.482z"></path>
</svg>
