<!-- Generated by IcoMoon.io -->
<svg version="1.1" xmlns="http://www.w3.org/2000/svg" width="32" height="32" viewBox="0 0 32 32">
<title>split-horizontal</title>
<path d="M28.5 17c0.46 0 0.833-0.373 0.833-0.833s-0.373-0.833-0.833-0.833v0h-25c-0.46 0-0.833 0.373-0.833 0.833s0.373 0.833 0.833 0.833v0h25zM7 26.5v-8.167h-1.667v8.167c0 1.565 1.269 2.833 2.833 2.833v0h15.667c1.565 0 2.833-1.269 2.833-2.833v0-8.167h-1.667v8.167c0 0.644-0.522 1.167-1.167 1.167v0h-15.667c-0.644 0-1.167-0.522-1.167-1.167v0zM26.667 14v-8.5c0-1.565-1.269-2.833-2.833-2.833v0h-15.667c-1.565 0-2.833 1.269-2.833 2.833v0 8.5h1.667v-8.5c0-0.644 0.523-1.167 1.167-1.167h15.667c0.645 0 1.167 0.523 1.167 1.167v8.5h1.667z"></path>
</svg>
