<!-- Generated by IcoMoon.io -->
<svg version="1.1" xmlns="http://www.w3.org/2000/svg" width="32" height="32" viewBox="0 0 32 32">
<title>split-horizontal</title>
<path d="M28.333 16.667c0.552 0 1-0.448 1-1s-0.448-1-1-1h-24.667c-0.552 0-1 0.448-1 1s0.448 1 1 1h24.667zM26.667 5.667c0-1.657-1.343-3-3-3h-15.333c-1.657 0-3 1.343-3 3v7.667h2v-7.667c0-0.552 0.448-1 1-1h15.333c0.552 0 1 0.448 1 1v7.667h2v-7.667zM7.333 25.667v-7.667h-2v7.667c0 1.657 1.343 3 3 3h15.333c1.657 0 3-1.343 3-3v-7.667h-2v7.667c0 0.552-0.448 1-1 1h-15.333c-0.552 0-1-0.448-1-1z"></path>
</svg>
