<!-- Generated by IcoMoon.io -->
<svg version="1.1" xmlns="http://www.w3.org/2000/svg" width="32" height="32" viewBox="0 0 32 32">
<title>split-vertical</title>
<path d="M16.667 3.667c0-0.552-0.448-1-1-1s-1 0.448-1 1v24.667c0 0.552 0.448 1 1 1s1-0.448 1-1v-24.667zM5.667 5.333c-1.657 0-3 1.343-3 3v15.333c0 1.657 1.343 3 3 3h7.667v-2h-7.667c-0.552 0-1-0.448-1-1v-15.333c0-0.552 0.448-1 1-1h7.667v-2h-7.667zM25.667 24.667h-7.667v2h7.667c1.657 0 3-1.343 3-3v-15.333c0-1.657-1.343-3-3-3h-7.667v2h7.667c0.552 0 1 0.448 1 1v15.333c0 0.552-0.448 1-1 1z"></path>
</svg>
