<!-- Generated by IcoMoon.io -->
<svg version="1.1" xmlns="http://www.w3.org/2000/svg" width="32" height="32" viewBox="0 0 32 32">
<title>split-hint</title>
<path d="M15.2 3.2c0.442 0 0.8 0.358 0.8 0.8v0 24c0 0.442-0.358 0.8-0.8 0.8s-0.8-0.358-0.8-0.8v0-24c0-0.442 0.358-0.8 0.8-0.8v0zM3.2 9.6c0-1.767 1.433-3.2 3.2-3.2v0h6.4v1.6h-6.4c-0.884 0-1.6 0.716-1.6 1.6v0 12.8c0 0.884 0.716 1.6 1.6 1.6v0h6.4v1.6h-6.4c-1.767 0-3.2-1.433-3.2-3.2v0-12.8zM24 8c0.884 0 1.6 0.716 1.6 1.6v0 0.8c0 0.442 0.358 0.8 0.8 0.8s0.8-0.358 0.8-0.8v0-0.8c0-1.767-1.433-3.2-3.2-3.2v0h-0.8c-0.442 0-0.8 0.358-0.8 0.8s0.358 0.8 0.8 0.8v0h0.8zM24 24c0.884 0 1.6-0.716 1.6-1.6v0-0.8c0-0.442 0.358-0.8 0.8-0.8s0.8 0.358 0.8 0.8v0 0.8c0 1.767-1.433 3.2-3.2 3.2v0h-0.8c-0.442 0-0.8-0.358-0.8-0.8s0.358-0.8 0.8-0.8v0h0.8zM26.4 12.8c-0.442 0-0.8 0.358-0.8 0.8v0 4.8c0 0.442 0.358 0.8 0.8 0.8s0.8-0.358 0.8-0.8v0-4.8c0-0.442-0.358-0.8-0.8-0.8v0zM20 6.4c0.442 0 0.8 0.358 0.8 0.8s-0.358 0.8-0.8 0.8v0h-1.6c-0.442 0-0.8-0.358-0.8-0.8s0.358-0.8 0.8-0.8v0h1.6zM20.8 24.8c0-0.442-0.358-0.8-0.8-0.8v0h-1.6c-0.442 0-0.8 0.358-0.8 0.8s0.358 0.8 0.8 0.8v0h1.6c0.442 0 0.8-0.358 0.8-0.8v0z"></path>
</svg>
