<!-- Generated by IcoMoon.io -->
<svg version="1.1" xmlns="http://www.w3.org/2000/svg" width="32" height="32" viewBox="0 0 32 32">
<title>sport</title>
<path d="M8.116 9.584c-0.062 0.142-0.143 0.36-0.217 0.581l-0.023 0.077c0.619 0.093 1.284 0.224 1.979 0.399 0.359-0.994 0.848-1.853 1.459-2.611l-0.013 0.017 5.619 5.619-0.336 0.336c0.51 0.441 0.972 0.903 1.399 1.396l0.014 0.017 0.337-0.335 5.617 5.617c-0.74 0.597-1.599 1.087-2.53 1.427l-0.062 0.020c0.175 0.693 0.304 1.36 0.399 1.976 1.708-0.567 3.167-1.486 4.353-2.677l0-0c0.96-0.959 1.744-2.095 2.299-3.355l0.028-0.071c0.566-1.282 0.896-2.777 0.896-4.349 0-0.147-0.003-0.293-0.009-0.438l0.001 0.021c-0.032-0.835-0.152-1.626-0.35-2.386l0.017 0.077c-1.024-3.9-4.034-6.911-7.857-7.919l-0.077-0.017c-0.818-0.217-1.757-0.342-2.724-0.342-1.316 0-2.577 0.23-3.747 0.653l0.077-0.024c-3 1.087-5.347 3.35-6.521 6.217l-0.027 0.074zM26.729 10.42c-0.618 0.489-1.409 0.785-2.268 0.785-0.657 0-1.273-0.172-1.806-0.474l0.018 0.009 2.692-2.692c0.585 0.731 1.040 1.533 1.364 2.372zM21.223 12.191c0.904 0.635 2.027 1.015 3.238 1.015 1.026 0 1.989-0.273 2.82-0.749l-0.028 0.015c0.051 0.36 0.080 0.776 0.080 1.199 0 2.132-0.742 4.090-1.982 5.632l0.014-0.017-5.619-5.617 1.477-1.476zM19.809 10.776l-1.476 1.476-5.619-5.617c1.524-1.227 3.483-1.969 5.616-1.969 0.422 0 0.838 0.029 1.245 0.085l-0.047-0.005c-0.462 0.803-0.735 1.766-0.735 2.792 0 1.212 0.38 2.335 1.027 3.256l-0.012-0.018zM21.259 9.327c-0.292-0.515-0.465-1.131-0.465-1.787 0-0.86 0.296-1.652 0.792-2.277l-0.006 0.008c0.84 0.325 1.64 0.78 2.371 1.365l-2.692 2.692zM9.293 17.96c0.181-0.181 0.431-0.292 0.707-0.292s0.526 0.112 0.707 0.292v0l3.333 3.333c0.196 0.183 0.318 0.443 0.318 0.732 0 0.552-0.448 1-1 1-0.289 0-0.549-0.122-0.731-0.318l-0.001-0.001-3.333-3.333c-0.181-0.181-0.292-0.431-0.292-0.707s0.112-0.526 0.292-0.707v0zM2.705 14.692c-0.008-0.081-0.012-0.175-0.012-0.271 0-1.691 1.371-3.061 3.061-3.061 0.095 0 0.19 0.004 0.283 0.013l-0.012-0.001c2.637 0.2 7.12 1.024 10.349 4.253 3.229 3.231 4.055 7.712 4.256 10.351 0.008 0.081 0.012 0.175 0.012 0.271 0 1.691-1.371 3.061-3.061 3.061-0.096 0-0.191-0.004-0.284-0.013l0.012 0.001c-2.637-0.2-7.12-1.027-10.349-4.256s-4.055-7.711-4.255-10.348zM5.875 13.365c-0.036-0.004-0.078-0.007-0.12-0.007-0.587 0-1.063 0.476-1.063 1.063 0 0.042 0.002 0.083 0.007 0.124l-0-0.005c0.189 2.484 0.959 6.369 3.676 9.087s6.603 3.487 9.085 3.675c0.036 0.004 0.078 0.007 0.12 0.007 0.587 0 1.063-0.476 1.063-1.063 0-0.042-0.002-0.083-0.007-0.124l0 0.005c-0.189-2.484-0.959-6.368-3.676-9.087-2.717-2.717-6.603-3.487-9.085-3.675z"></path>
</svg>
