<!-- Generated by IcoMoon.io -->
<svg version="1.1" xmlns="http://www.w3.org/2000/svg" width="32" height="32" viewBox="0 0 32 32">
<title>sport-hockey</title>
<path d="M23.32 9.161c0.089-0.545-0.281-1.059-0.826-1.148-0.557-0.091-1.054 0.312-1.153 0.851-0.005 0.025-0.013 0.065-0.024 0.119-0.023 0.109-0.062 0.276-0.121 0.491-0.118 0.431-0.318 1.054-0.636 1.799-0.638 1.491-1.749 3.46-3.642 5.353-1.894 1.895-3.941 3.082-5.518 3.796-0.787 0.356-1.452 0.592-1.915 0.738-0.231 0.073-0.412 0.123-0.531 0.154-0.060 0.016-0.104 0.027-0.132 0.033l-0.033 0.008-0.002 0c-0.539 0.117-0.881 0.649-0.765 1.188 0.19 0.878 1.189 0.766 1.189 0.766l0.003-0.001 0.005-0.001 0.015-0.003 0.050-0.012c0.042-0.010 0.101-0.024 0.175-0.044 0.149-0.039 0.361-0.098 0.626-0.181 0.529-0.167 1.27-0.431 2.139-0.824 1.736-0.786 4.001-2.098 6.107-4.204 2.107-2.107 3.35-4.305 4.067-5.981 0.358-0.838 0.586-1.548 0.726-2.055 0.070-0.254 0.117-0.457 0.148-0.6 0.015-0.072 0.027-0.129 0.034-0.17l0.009-0.049 0.003-0.015 0.001-0.005 0-0.002 0-0.002z"></path>
<path d="M3.137 16.764c-0.912 2.531-1.033 5.165 0.585 6.799l-0.001 0.001 0.312 0.316c0.204 0.206 0.502 0.507 0.882 0.891 0.76 0.766 1.846 1.858 3.15 3.162 1.706 1.706 4.406 1.734 7.051 0.88 2.702-0.873 5.667-2.748 8.302-5.383s4.51-5.599 5.383-8.302c0.854-2.645 0.826-5.345-0.88-7.051-0.69-0.69-1.774-1.782-2.687-2.703-0.456-0.46-0.869-0.877-1.168-1.179l-0.484-0.489-0.003 0.003c-1.633-1.619-4.268-1.498-6.8-0.586-2.62 0.944-5.532 2.857-8.158 5.484s-4.54 5.538-5.484 8.158zM5.018 17.442c0.824-2.286 2.55-4.956 5.016-7.422s5.136-4.192 7.422-5.016c2.368-0.853 3.958-0.631 4.721 0.132l0.003-0.003 0.464 0.468c0.299 0.302 0.712 0.72 1.169 1.18 0.913 0.921 2 2.016 2.693 2.71 0.899 0.899 1.166 2.623 0.391 5.022-0.757 2.343-2.436 5.044-4.894 7.502s-5.159 4.137-7.502 4.894c-2.4 0.775-4.123 0.508-5.022-0.391-1.302-1.302-2.386-2.392-3.144-3.156-0.379-0.382-0.677-0.683-0.88-0.888l-0.306-0.31 0.001-0.001c-0.762-0.762-0.985-2.353-0.132-4.721z"></path>
</svg>
