<!-- Generated by IcoMoon.io -->
<svg version="1.1" xmlns="http://www.w3.org/2000/svg" width="32" height="32" viewBox="0 0 32 32">
<title>sport-baseball</title>
<path d="M13.243 22.266c0 0-0.998 0.132-1.213-0.728-0.132-0.529 0.201-1.082 0.73-1.213l0.004-0.001 0.010-0.002 0.031-0.007c0.026-0.006 0.062-0.014 0.108-0.024 0.091-0.019 0.222-0.045 0.386-0.074 0.329-0.057 0.798-0.124 1.374-0.168 1.151-0.089 2.746-0.089 4.523 0.266 0.541 0.108 0.893 0.635 0.784 1.177s-0.635 0.893-1.177 0.785c-1.556-0.311-2.961-0.312-3.977-0.233-0.507 0.039-0.913 0.097-1.188 0.145-0.137 0.024-0.242 0.045-0.309 0.059-0.029 0.006-0.087 0.019-0.087 0.019z"></path>
<path d="M12.030 10.525c0.215-0.86 1.213-0.728 1.213-0.728s0.058 0.013 0.087 0.019c0.067 0.014 0.172 0.035 0.309 0.059 0.275 0.047 0.681 0.106 1.188 0.145 1.016 0.078 2.421 0.078 3.977-0.234 0.542-0.108 1.068 0.243 1.177 0.784s-0.243 1.068-0.785 1.177c-1.777 0.355-3.372 0.355-4.523 0.266-0.577-0.044-1.045-0.111-1.374-0.168-0.165-0.028-0.295-0.054-0.386-0.074-0.046-0.010-0.082-0.018-0.108-0.024l-0.031-0.007-0.013-0.003c-0.529-0.131-0.862-0.684-0.73-1.213z"></path>
<path d="M16 29.333c3.698 0 7.044-1.505 9.459-3.937 0.471-0.474 0.907-0.983 1.302-1.523 1.617-2.206 2.572-4.929 2.572-7.874 0-7.364-5.97-13.333-13.333-13.333s-13.333 5.97-13.333 13.333c0 7.364 5.97 13.333 13.333 13.333zM6.766 9.428c0.717 0.487 1.581 0.953 2.585 1.288 0.524 0.175 1.090-0.108 1.265-0.632s-0.108-1.090-0.632-1.265c-0.721-0.24-1.358-0.568-1.907-0.921 2.043-1.999 4.84-3.23 7.924-3.23s5.88 1.232 7.924 3.23c-0.548 0.353-1.186 0.681-1.907 0.922-0.524 0.175-0.807 0.741-0.633 1.265s0.741 0.807 1.265 0.632c1.004-0.335 1.868-0.801 2.585-1.288 1.322 1.854 2.099 4.122 2.099 6.572 0 2.469-0.789 4.753-2.13 6.615-0.711-0.479-1.565-0.937-2.554-1.267-0.524-0.175-1.090 0.108-1.265 0.632s0.109 1.090 0.632 1.265c0.703 0.234 1.328 0.553 1.867 0.896-2.040 1.976-4.82 3.192-7.884 3.192s-5.845-1.216-7.884-3.192c0.539-0.343 1.164-0.662 1.867-0.896 0.524-0.175 0.807-0.741 0.632-1.265s-0.741-0.807-1.265-0.632c-0.989 0.33-1.843 0.788-2.554 1.267-1.34-1.861-2.13-4.146-2.13-6.615 0-2.45 0.777-4.718 2.099-6.572z"></path>
</svg>
