<!-- Generated by IcoMoon.io -->
<svg version="1.1" xmlns="http://www.w3.org/2000/svg" width="32" height="32" viewBox="0 0 32 32">
<title>sport-american-football-regular</title>
<path d="M18.293 12.293c0.183-0.196 0.443-0.318 0.732-0.318 0.552 0 1 0.448 1 1 0 0.289-0.122 0.549-0.318 0.731l-0.001 0.001-6 6c-0.183 0.196-0.443 0.318-0.732 0.318-0.552 0-1-0.448-1-1 0-0.289 0.122-0.549 0.318-0.731l0.001-0.001 6-6zM23.667 2.667c3.13 0 5.667 2.537 5.667 5.667v0 1.333c0 10.861-8.805 19.667-19.667 19.667h-1.333c-3.13 0-5.667-2.537-5.667-5.667v0-1.333c0-10.861 8.805-19.667 19.667-19.667h1.333zM27.333 8.333c0-2.025-1.642-3.667-3.667-3.667v0h-1.333c-0.537 0-1.069 0.024-1.595 0.071l6.524 6.524c0.047-0.525 0.071-1.057 0.071-1.595v-1.333zM26.871 13.699l-8.569-8.569c-6.586 1.587-11.665 6.7-13.179 13.183l-0.024 0.12 8.469 8.469c6.603-1.538 11.716-6.617 13.278-13.082l0.025-0.121zM4.724 20.887c-0.037 0.477-0.057 0.96-0.057 1.447v1.333c0 2.025 1.642 3.667 3.667 3.667v0h1.333c0.487 0 0.969-0.020 1.447-0.059l-6.388-6.388z"></path>
</svg>
