<!-- Generated by IcoMoon.io -->
<svg version="1.1" xmlns="http://www.w3.org/2000/svg" width="32" height="32" viewBox="0 0 32 32">
<title>sport-soccer-regular</title>
<path d="M16 2.667c-7.364 0-13.333 5.969-13.333 13.333s5.969 13.333 13.333 13.333 13.333-5.969 13.333-13.333-5.969-13.333-13.333-13.333zM13.432 4.96c0.771-0.187 1.657-0.294 2.568-0.294s1.797 0.107 2.645 0.309l-0.077-0.016-2.565 1.537-2.571-1.539zM10.992 5.831l4.011 2.4v2.924l-3.721 2.704-2.725-0.943-0.783-4.712c0.907-0.955 1.971-1.749 3.153-2.344l0.065-0.030zM6.12 10.447l0.477 2.876-1.904 1.904c0.122-1.773 0.636-3.403 1.456-4.835l-0.029 0.055zM4.829 17.919l3.103-3.103 2.72 0.94 1.441 4.444-1.293 2.1-4.391-0.259c-0.757-1.18-1.31-2.567-1.571-4.055l-0.010-0.068zM8.123 24.145l2.539 0.149 0.9 2.136c-1.332-0.577-2.471-1.346-3.443-2.288l0.003 0.003zM14.041 27.164l-1.579-3.745 1.284-2.089h4.496l1.216 2.108-1.387 3.707c-0.623 0.121-1.339 0.19-2.071 0.19-0.692 0-1.37-0.062-2.029-0.18l0.069 0.010zM20.481 26.413l0.756-2.023 2.227 0.14c-0.855 0.751-1.84 1.383-2.911 1.854l-0.073 0.029zM25.191 22.635l-4.032-0.253-1.251-2.165 1.449-4.46 2.684-0.928 3.083 3.36c-0.339 1.694-1.014 3.19-1.956 4.479l0.022-0.032zM27.321 15.447l-1.92-2.093 0.483-2.904c0.825 1.439 1.348 3.148 1.436 4.971l0.001 0.026zM24.231 8.207l-0.785 4.712-2.72 0.94-3.721-2.704v-2.925l4.003-2.4c1.25 0.625 2.316 1.421 3.219 2.374l0.005 0.005zM12.624 15.356l3.38-2.456 3.38 2.456-1.291 3.973h-4.179l-1.291-3.973z"></path>
</svg>
