<!-- Generated by IcoMoon.io -->
<svg version="1.1" xmlns="http://www.w3.org/2000/svg" width="32" height="32" viewBox="0 0 32 32">
<title>sport-baseball</title>
<path d="M13.243 22.267s-0.997 0.132-1.213-0.728c-0.018-0.070-0.028-0.151-0.028-0.235 0-0.468 0.319-0.863 0.751-0.977l0.007-0.002h0.004l0.009-0.003 0.032-0.008 0.107-0.024c0.093-0.019 0.223-0.045 0.387-0.073 0.329-0.057 0.799-0.124 1.375-0.168 0.385-0.032 0.834-0.050 1.286-0.050 1.145 0 2.263 0.115 3.344 0.334l-0.107-0.018c0.445 0.108 0.77 0.502 0.77 0.973 0 0.552-0.448 1-1 1-0.057 0-0.113-0.005-0.168-0.014l0.006 0.001c-0.855-0.176-1.837-0.277-2.843-0.277-0.399 0-0.795 0.016-1.186 0.047l0.052-0.003c-0.566 0.044-1.078 0.116-1.58 0.218l0.083-0.014c-0.076 0.016-0.105 0.023-0.134 0.030l0.047-0.010zM12.029 10.525c0.215-0.86 1.213-0.728 1.213-0.728 0.076 0.019 0.21 0.047 0.345 0.071l0.051 0.008c0.275 0.047 0.68 0.105 1.187 0.144 0.34 0.028 0.736 0.044 1.135 0.044 1.006 0 1.988-0.101 2.938-0.293l-0.094 0.016c0.049-0.008 0.105-0.013 0.162-0.013 0.552 0 1 0.448 1 1 0 0.471-0.325 0.866-0.763 0.972l-0.007 0.001c-0.973 0.201-2.091 0.316-3.236 0.316-0.453 0-0.901-0.018-1.345-0.053l0.059 0.004c-0.664-0.051-1.266-0.136-1.856-0.256l0.096 0.016c-0.077-0.015-0.114-0.024-0.151-0.032l0.041 0.008-0.031-0.008-0.009-0.003h-0.004c-0.44-0.116-0.758-0.51-0.758-0.979 0-0.083 0.010-0.164 0.029-0.242l-0.001 0.007zM16 29.333c0.005 0 0.011 0 0.017 0 3.692 0 7.032-1.505 9.441-3.935l0.001-0.001c2.394-2.401 3.875-5.714 3.875-9.373 0-0.009 0-0.017-0-0.026v0.001c0-7.364-5.969-13.333-13.333-13.333s-13.333 5.969-13.333 13.333 5.969 13.333 13.333 13.333zM6.765 9.428c0.744 0.515 1.599 0.951 2.511 1.266l0.074 0.022c0.098 0.035 0.211 0.056 0.329 0.056 0.552 0 1-0.448 1-1 0-0.444-0.289-0.82-0.69-0.951l-0.007-0.002c-0.728-0.248-1.358-0.56-1.939-0.941l0.032 0.020c2.036-1.998 4.828-3.231 7.909-3.231 0.005 0 0.011 0 0.016 0h-0.001c3.084 0 5.88 1.232 7.924 3.231-0.549 0.352-1.187 0.68-1.907 0.92-0.401 0.136-0.685 0.51-0.685 0.949 0 0.553 0.448 1.001 1.001 1.001 0.113 0 0.222-0.019 0.323-0.053l-0.007 0.002c0.986-0.337 1.841-0.773 2.621-1.311l-0.035 0.023c1.312 1.82 2.099 4.095 2.099 6.554 0 0.006 0 0.013-0 0.019v-0.001c0 0.005 0 0.012 0 0.018 0 2.477-0.798 4.768-2.152 6.629l0.022-0.032c-0.735-0.505-1.58-0.934-2.481-1.244l-0.074-0.022c-0.098-0.035-0.211-0.056-0.329-0.056-0.552 0-1 0.448-1 1 0 0.444 0.289 0.82 0.689 0.951l0.007 0.002c0.703 0.233 1.328 0.552 1.867 0.896-2.032 1.975-4.808 3.192-7.869 3.192-0.005 0-0.010 0-0.016 0h0.001c-0.004 0-0.010 0-0.015 0-3.061 0-5.838-1.217-7.872-3.195l0.003 0.003c0.537-0.35 1.154-0.653 1.807-0.878l0.059-0.018c0.407-0.133 0.697-0.509 0.697-0.953 0-0.552-0.448-1-1-1-0.118 0-0.231 0.020-0.336 0.058l0.007-0.002c-0.974 0.333-1.819 0.761-2.591 1.29l0.036-0.023c-1.331-1.828-2.129-4.119-2.129-6.596 0-0.006 0-0.013 0-0.020v0.001c0-2.451 0.777-4.719 2.099-6.572z"></path>
</svg>
