<!-- Generated by IcoMoon.io -->
<svg version="1.1" xmlns="http://www.w3.org/2000/svg" width="32" height="32" viewBox="0 0 32 32">
<title>sport-american-football</title>
<path d="M18.293 12.293c0.391-0.391 1.024-0.391 1.414 0s0.391 1.024 0 1.414l-6 6c-0.39 0.391-1.024 0.391-1.414 0s-0.391-1.024 0-1.414l6-6z"></path>
<path d="M23.667 2.667c3.13 0 5.667 2.537 5.667 5.667v1.333c0 10.862-8.805 19.667-19.667 19.667h-1.333c-3.13 0-5.667-2.537-5.667-5.667v-1.333c0-10.862 8.805-19.667 19.667-19.667h1.333zM27.333 8.333c0-2.025-1.642-3.667-3.667-3.667h-1.333c-0.538 0-1.070 0.024-1.595 0.071l6.524 6.524c0.047-0.525 0.071-1.057 0.071-1.595v-1.333zM26.871 13.699l-8.57-8.57c-6.562 1.532-11.719 6.722-13.202 13.303l8.469 8.469c6.581-1.483 11.771-6.64 13.303-13.202zM4.725 20.887c-0.039 0.477-0.058 0.96-0.058 1.447v1.333c0 2.025 1.642 3.667 3.667 3.667h1.333c0.487 0 0.97-0.020 1.447-0.058l-6.388-6.388z"></path>
</svg>
