<!-- Generated by IcoMoon.io -->
<svg version="1.1" xmlns="http://www.w3.org/2000/svg" width="32" height="32" viewBox="0 0 32 32">
<title>sport-hockey-regular</title>
<path d="M23.32 9.161c0.008-0.048 0.013-0.103 0.013-0.16 0-0.496-0.361-0.907-0.834-0.986l-0.006-0.001c-0.557-0.092-1.053 0.311-1.153 0.851-0.054 0.266-0.105 0.471-0.162 0.673l0.015-0.064c-0.117 0.431-0.316 1.053-0.635 1.8-0.91 2.079-2.138 3.854-3.642 5.351l-0.001 0.001c-2.031 2.015-4.522 3.571-7.301 4.496l-0.133 0.038c-0.139 0.048-0.361 0.112-0.585 0.17l-0.078 0.017-0.029 0.008h-0.004c-0.454 0.101-0.788 0.5-0.788 0.977 0 0.075 0.008 0.148 0.024 0.219l-0.001-0.007c0.189 0.879 1.188 0.767 1.188 0.767l0.004-0.001h0.005l0.015-0.004 0.049-0.013c0.364-0.090 0.631-0.168 0.895-0.253l-0.095 0.027c3.23-1.066 5.994-2.791 8.248-5.029l-0.001 0.001c1.68-1.673 3.051-3.656 4.019-5.856l0.048-0.123c0.36-0.837 0.587-1.547 0.727-2.055 0.053-0.177 0.116-0.435 0.17-0.698l0.012-0.072 0.009-0.049 0.003-0.016v-0.007l0.001-0.003zM3.135 16.764c-0.912 2.532-1.033 5.165 0.584 6.8l0.312 0.316c1.391 1.408 2.704 2.728 4.022 4.045l0.009 0.009c1.707 1.707 4.407 1.733 7.052 0.88 2.701-0.873 5.667-2.749 8.301-5.384 2.635-2.633 4.509-5.6 5.383-8.301 0.853-2.645 0.827-5.344-0.88-7.051-1.248-1.25-2.505-2.515-3.759-3.784l-0.58-0.588-0.003 0.003c-1.633-1.619-4.268-1.497-6.8-0.587-2.62 0.945-5.532 2.859-8.159 5.485s-4.539 5.537-5.483 8.157zM5.015 17.443c0.825-2.287 2.552-4.956 5.017-7.423 2.467-2.467 5.136-4.192 7.421-5.016 2.369-0.853 3.96-0.631 4.72 0.132l0.004-0.003 0.464 0.468 1.168 1.18c0.913 0.92 2 2.016 2.693 2.709 0.9 0.9 1.167 2.623 0.391 5.023-0.756 2.343-2.435 5.044-4.893 7.503-2.457 2.457-5.16 4.136-7.501 4.893-2.4 0.775-4.124 0.508-5.023-0.391-1.314-1.314-2.625-2.632-3.933-3.953l-0.091-0.093-0.307-0.309 0.003-0.001c-0.763-0.763-0.987-2.352-0.133-4.72z"></path>
</svg>
