<!-- Generated by IcoMoon.io -->
<svg version="1.1" xmlns="http://www.w3.org/2000/svg" width="32" height="32" viewBox="0 0 32 32">
<title>sport-basketball</title>
<path d="M17.255 29.275c2.983-0.28 5.889-1.562 8.173-3.846 5.207-5.207 5.207-13.649 0-18.856s-13.649-5.207-18.856 0-5.207 13.649 0 18.856c2.813 2.812 6.569 4.106 10.25 3.88 0.141 0.020 0.289 0.011 0.433-0.034zM4.77 14.472c0.279-2.062 1.126-4.062 2.54-5.748l7.276 7.276-1.451 1.451c-1.402-1.135-2.965-1.744-4.455-2.144-0.867-0.233-1.728-0.399-2.515-0.552l-0.022-0.004c-0.489-0.095-0.946-0.183-1.373-0.279zM4.678 16.499c0.354 0.075 0.713 0.144 1.068 0.213l0.017 0.003c0.804 0.156 1.603 0.31 2.398 0.524 1.271 0.341 2.482 0.821 3.549 1.637l-4.401 4.401c-1.649-1.965-2.526-4.357-2.632-6.777zM13.129 20.285c0.9 1.15 1.386 2.409 1.73 3.698 0.167 0.625 0.295 1.237 0.424 1.855 0.037 0.175 0.073 0.35 0.111 0.527 0.068 0.319 0.14 0.642 0.22 0.962-2.458-0.083-4.895-0.962-6.89-2.637l4.405-4.405zM17.653 27.213c-0.108-0.387-0.205-0.807-0.303-1.266-0.034-0.158-0.068-0.322-0.103-0.489-0.131-0.626-0.274-1.307-0.455-1.989-0.401-1.504-1.015-3.116-2.24-4.606l1.448-1.448 7.276 7.276c-1.651 1.386-3.605 2.227-5.623 2.523zM17.414 16l1.615-1.615c1.485 1.257 3.042 1.946 4.487 2.435 0.597 0.202 1.195 0.376 1.748 0.537 0.211 0.061 0.416 0.121 0.612 0.179 0.469 0.14 0.896 0.277 1.286 0.428-0.334 1.907-1.158 3.746-2.473 5.312l-7.276-7.276zM26.449 15.62c-0.225-0.067-0.448-0.132-0.669-0.196-0.538-0.156-1.070-0.311-1.623-0.498-1.259-0.426-2.518-0.987-3.708-1.961l4.241-4.241c1.739 2.073 2.62 4.621 2.643 7.176-0.294-0.1-0.59-0.191-0.884-0.279zM23.276 7.31l-4.241 4.241c-0.973-1.191-1.535-2.45-1.961-3.709-0.187-0.553-0.342-1.085-0.498-1.623l-0.001-0.002c-0.064-0.221-0.129-0.443-0.196-0.667-0.088-0.294-0.179-0.59-0.279-0.883 2.555 0.022 5.103 0.903 7.176 2.643zM15.179 8.483c0.489 1.446 1.179 3.003 2.435 4.488l-1.615 1.615-7.276-7.276c1.566-1.314 3.404-2.139 5.312-2.473 0.151 0.39 0.287 0.817 0.427 1.286 0.059 0.196 0.118 0.401 0.18 0.613 0.161 0.553 0.335 1.151 0.537 1.747z"></path>
</svg>
