<!-- Generated by IcoMoon.io -->
<svg version="1.1" xmlns="http://www.w3.org/2000/svg" width="32" height="32" viewBox="0 0 32 32">
<title>sport</title>
<path d="M8.116 9.584c-0.087 0.217-0.166 0.437-0.239 0.658 0.617 0.095 1.283 0.224 1.977 0.399 0.328-0.92 0.81-1.798 1.446-2.593l5.618 5.618-0.336 0.336c0.25 0.215 0.494 0.442 0.733 0.681s0.466 0.484 0.681 0.733l0.336-0.336 5.618 5.618c-0.795 0.636-1.672 1.118-2.592 1.446 0.175 0.694 0.304 1.36 0.399 1.977 0.433-0.142 0.86-0.311 1.277-0.508 1.113-0.526 2.156-1.249 3.077-2.17 0.174-0.174 0.341-0.353 0.502-0.536 0.749-0.856 1.368-1.83 1.825-2.889 0.553-1.284 0.849-2.652 0.89-4.026 0.003-0.109 0.005-0.218 0.005-0.327 0-0.139-0.003-0.277-0.008-0.415-0.029-0.777-0.14-1.551-0.333-2.309-0.99-3.886-4.049-6.946-7.935-7.936-0.528-0.134-1.064-0.229-1.603-0.284-0.369-0.037-0.743-0.057-1.122-0.057-0.37 0-0.736 0.018-1.097 0.054-0.873 0.087-1.737 0.278-2.572 0.573-2.984 1.056-5.378 3.363-6.549 6.29zM26.73 10.42c-1.173 0.926-2.782 1.033-4.056 0.321l2.692-2.692c0.585 0.731 1.040 1.532 1.364 2.371zM21.224 12.19c1.794 1.252 4.152 1.346 6.030 0.281 0.316 2.372-0.313 4.847-1.889 6.813l-5.618-5.618 1.476-1.476zM19.81 10.776l-1.476 1.476-5.618-5.618c1.967-1.575 4.442-2.205 6.814-1.889-1.065 1.879-0.972 4.236 0.28 6.030zM21.259 9.326c-0.712-1.274-0.605-2.883 0.321-4.056 0.84 0.324 1.64 0.779 2.371 1.364l-2.692 2.692zM9.293 17.96c0.391-0.391 1.024-0.391 1.414 0l3.333 3.333c0.391 0.391 0.391 1.024 0 1.414s-1.024 0.391-1.414 0l-3.333-3.333c-0.391-0.391-0.391-1.024 0-1.414zM2.704 14.691c-0.146-1.922 1.398-3.466 3.321-3.321 2.637 0.2 7.119 1.025 10.349 4.255s4.055 7.712 4.255 10.349c0.146 1.922-1.398 3.466-3.321 3.321-2.637-0.2-7.119-1.026-10.349-4.255s-4.055-7.712-4.255-10.349zM5.874 13.365c-0.701-0.053-1.228 0.474-1.175 1.175 0.188 2.484 0.958 6.369 3.675 9.086s6.603 3.487 9.086 3.675c0.701 0.053 1.228-0.474 1.175-1.175-0.188-2.484-0.958-6.369-3.675-9.086s-6.602-3.487-9.086-3.675z"></path>
</svg>
