<!-- Generated by IcoMoon.io -->
<svg version="1.1" xmlns="http://www.w3.org/2000/svg" width="32" height="32" viewBox="0 0 32 32">
<title>square-eraser</title>
<path d="M12.93 25.6h-3.33c-1.767 0-3.2-1.433-3.2-3.2v0-12.8c0-1.767 1.433-3.2 3.2-3.2v0h12.8c1.767 0 3.2 1.433 3.2 3.2v0 3.326c0.589 0.144 1.136 0.424 1.6 0.816v-4.142c0-2.651-2.149-4.8-4.8-4.8v0h-12.8c-2.651 0-4.8 2.149-4.8 4.8v0 12.8c0 2.651 2.149 4.8 4.8 4.8v0h4.146c-0.377-0.445-0.66-0.982-0.81-1.573l-0.006-0.027zM15.102 26.346c-0.435-0.434-0.704-1.035-0.704-1.698s0.269-1.263 0.703-1.698l7.84-7.84c0.434-0.435 1.035-0.704 1.698-0.704s1.263 0.269 1.698 0.703v0l3.352 3.36c0.435 0.434 0.704 1.034 0.704 1.698s-0.269 1.263-0.704 1.698l-6.944 6.934h4.050c0.442 0 0.8 0.358 0.8 0.8s-0.358 0.8-0.8 0.8v0h-6.547c-0.029 0.001-0.064 0.002-0.098 0.002-0.662 0-1.262-0.269-1.696-0.703l-3.352-3.354zM24.082 16.235l-5.76 5.76 4.48 4.48 5.76-5.76c0.146-0.144 0.236-0.345 0.236-0.566s-0.090-0.422-0.236-0.566l-3.352-3.352c-0.144-0.142-0.343-0.23-0.562-0.23-0.221 0-0.422 0.090-0.566 0.235l-0 0zM21.682 27.608l-4.48-4.48-0.96 0.96c-0.145 0.145-0.235 0.345-0.235 0.566s0.090 0.422 0.235 0.566l3.352 3.352c0.145 0.145 0.345 0.235 0.566 0.235s0.422-0.090 0.566-0.235l0-0 0.955-0.965z"></path>
</svg>
