<!-- Generated by IcoMoon.io -->
<svg version="1.1" xmlns="http://www.w3.org/2000/svg" width="32" height="32" viewBox="0 0 32 32">
<title>square-hint-apps-regular</title>
<path d="M9.333 5c0-0.552-0.448-1-1-1v0c-2.393 0-4.333 1.94-4.333 4.333v0c0 0.552 0.448 1 1 1s1-0.448 1-1v0c0-1.288 1.045-2.333 2.333-2.333 0.552 0 1-0.448 1-1v0zM12 5c0-0.552 0.448-1 1-1v0h6c0.552 0 1 0.448 1 1s-0.448 1-1 1v0h-6c-0.552 0-1-0.448-1-1v0zM23.667 6c-0.552 0-1-0.448-1-1s0.448-1 1-1v0c2.393 0 4.333 1.94 4.333 4.333v0 1.333c0 0.552-0.448 1-1 1s-1-0.448-1-1v0-1.333c0-1.289-1.045-2.333-2.333-2.333v0zM5 22.667c-0.552 0-1 0.448-1 1v0c0 2.393 1.94 4.333 4.333 4.333v0h1.333c0.552 0 1-0.448 1-1s-0.448-1-1-1v0h-1.333c-1.289 0-2.333-1.045-2.333-2.333v0c0-0.552-0.448-1-1-1v0zM5 20c-0.552 0-1-0.448-1-1v0-6c0-0.552 0.448-1 1-1s1 0.448 1 1v0 6c0 0.552-0.448 1-1 1v0zM16.333 20.665h4.333v-4.333c0-1.657 1.343-3 3-3v0h4c1.657 0 3 1.343 3 3v0 10c0 2.393-1.94 4.333-4.333 4.333v0h-10c-1.657 0-3-1.343-3-3v0-4c0-1.657 1.343-3 3-3v0zM22.667 16.332v4.333h6v-4.333c0-0.552-0.448-1-1-1v0h-4c-0.552 0-1 0.448-1 1v0zM20.667 28.665v-6h-4.333c-0.552 0-1 0.448-1 1v0 4c0 0.552 0.448 1 1 1h4.333zM22.667 22.665v6h3.667c1.289 0 2.333-1.045 2.333-2.333v0-3.667h-6z"></path>
</svg>
