<!-- Generated by IcoMoon.io -->
<svg version="1.1" xmlns="http://www.w3.org/2000/svg" width="32" height="32" viewBox="0 0 32 32">
<title>square-hint-regular</title>
<path d="M14.167 4c-0.46 0-0.833 0.373-0.833 0.833s0.373 0.833 0.833 0.833v0h3.667c0.46 0 0.833-0.373 0.833-0.833s-0.373-0.833-0.833-0.833v0h-3.667zM14.167 28c-0.46 0-0.833-0.373-0.833-0.833s0.373-0.833 0.833-0.833v0h3.667c0.46 0 0.833 0.373 0.833 0.833s-0.373 0.833-0.833 0.833v0h-3.667zM4.833 18.667c-0.46 0-0.833-0.373-0.833-0.833v-3.667c0-0.46 0.373-0.833 0.833-0.833s0.833 0.373 0.833 0.833v0 3.667c0 0.46-0.373 0.833-0.833 0.833zM26.333 17.833c0 0.46 0.373 0.833 0.833 0.833s0.833-0.373 0.833-0.833v0-3.667c0-0.46-0.373-0.833-0.833-0.833s-0.833 0.373-0.833 0.833v0 3.667zM9.333 4.833c0-0.46-0.373-0.833-0.833-0.833h-0.333c-2.301 0-4.167 1.865-4.167 4.167v0 0.333c0 0.46 0.373 0.833 0.833 0.833s0.833-0.373 0.833-0.833v0-0.333c0-1.381 1.119-2.5 2.5-2.5v0h0.333c0.46 0 0.833-0.373 0.833-0.833zM8.5 28c0.46 0 0.833-0.373 0.833-0.833s-0.373-0.833-0.833-0.833v0h-0.333c-1.381 0-2.5-1.119-2.5-2.5v0-0.333c0-0.46-0.373-0.833-0.833-0.833s-0.833 0.373-0.833 0.833v0 0.333c0 2.301 1.865 4.167 4.167 4.167v0h0.333zM22.667 4.833c0-0.46 0.373-0.833 0.833-0.833h0.333c2.301 0 4.167 1.865 4.167 4.167v0 0.333c0 0.46-0.373 0.833-0.833 0.833s-0.833-0.373-0.833-0.833v0-0.333c0-1.381-1.119-2.5-2.5-2.5v0h-0.333c-0.46 0-0.833-0.373-0.833-0.833zM23.5 28c-0.46 0-0.833-0.373-0.833-0.833s0.373-0.833 0.833-0.833v0h0.333c1.381 0 2.5-1.119 2.5-2.5v0-0.333c0-0.46 0.373-0.833 0.833-0.833s0.833 0.373 0.833 0.833v0 0.333c0 2.301-1.865 4.167-4.167 4.167v0h-0.333z"></path>
</svg>
