<!-- Generated by IcoMoon.io -->
<svg version="1.1" xmlns="http://www.w3.org/2000/svg" width="32" height="32" viewBox="0 0 32 32">
<title>square-dismiss-regular</title>
<path d="M9.6 4.8c-2.651 0-4.8 2.149-4.8 4.8v0 12.8c0 2.651 2.149 4.8 4.8 4.8v0h5.76c-0.238-0.454-0.453-0.985-0.613-1.538l-0.015-0.062h-5.131c-1.767 0-3.2-1.433-3.2-3.2v0-12.8c0-1.767 1.433-3.2 3.2-3.2v0h12.8c1.767 0 3.2 1.433 3.2 3.2v0 5.131c0.558 0.158 1.093 0.368 1.6 0.629v-5.76c0-2.651-2.149-4.8-4.8-4.8v0h-12.8zM23.2 30.4c3.976 0 7.2-3.224 7.2-7.2s-3.224-7.2-7.2-7.2v0c-3.976 0-7.2 3.224-7.2 7.2s3.224 7.2 7.2 7.2v0zM26.166 20.234c0.145 0.145 0.235 0.345 0.235 0.566s-0.090 0.422-0.235 0.566l-1.835 1.834 1.835 1.834c0.145 0.145 0.235 0.345 0.235 0.566 0 0.442-0.359 0.801-0.801 0.801-0.221 0-0.421-0.090-0.566-0.235l-1.834-1.835-1.834 1.835c-0.145 0.145-0.345 0.235-0.566 0.235-0.442 0-0.801-0.359-0.801-0.801 0-0.221 0.090-0.421 0.235-0.566v0l1.835-1.834-1.835-1.834c-0.145-0.145-0.235-0.345-0.235-0.566 0-0.442 0.359-0.801 0.801-0.801 0.221 0 0.421 0.090 0.566 0.235v0l1.834 1.835 1.834-1.835c0.145-0.145 0.345-0.235 0.566-0.235s0.422 0.090 0.566 0.235l0 0z"></path>
</svg>
