<!-- Generated by IcoMoon.io -->
<svg version="1.1" xmlns="http://www.w3.org/2000/svg" width="32" height="32" viewBox="0 0 32 32">
<title>square-arrow-forward-regular</title>
<path d="M4 7.5c0-1.933 1.567-3.5 3.5-3.5h17c1.933 0 3.5 1.567 3.5 3.5v8.529c-0.52-0.333-1.079-0.613-1.667-0.829v-7.7c0-1.013-0.821-1.833-1.833-1.833v0h-17c-1.013 0-1.833 0.821-1.833 1.833v0 17c0 1.013 0.821 1.833 1.833 1.833v0h7.7c0.217 0.588 0.496 1.147 0.829 1.667h-8.529c-1.933 0-3.5-1.567-3.5-3.5v0-17zM16 23.333c0 4.050 3.283 7.333 7.333 7.333s7.333-3.283 7.333-7.333-3.283-7.333-7.333-7.333-7.333 3.283-7.333 7.333zM25.529 21.138c-0.116-0.12-0.187-0.283-0.187-0.463 0-0.368 0.298-0.667 0.667-0.667 0.18 0 0.343 0.071 0.463 0.187l2 2c0.121 0.121 0.195 0.287 0.195 0.471s-0.075 0.351-0.195 0.471l-2 2c-0.12 0.116-0.283 0.187-0.463 0.187-0.368 0-0.667-0.298-0.667-0.667 0-0.18 0.071-0.343 0.187-0.463l0.862-0.862h-3.724c-1.473 0-2.667 1.194-2.667 2.667v0c0 0.368-0.298 0.667-0.667 0.667s-0.667-0.298-0.667-0.667v0c0-2.209 1.791-4 4-4v0h3.724l-0.862-0.862z"></path>
</svg>
