<!-- Generated by IcoMoon.io -->
<svg version="1.1" xmlns="http://www.w3.org/2000/svg" width="32" height="32" viewBox="0 0 32 32">
<title>square-add-regular</title>
<path d="M9.6 4.8c-2.651 0-4.8 2.149-4.8 4.8v0 12.8c0 2.651 2.149 4.8 4.8 4.8v0h5.76c-0.238-0.454-0.453-0.985-0.613-1.538l-0.015-0.062h-5.131c-1.767 0-3.2-1.433-3.2-3.2v0-12.8c0-1.767 1.433-3.2 3.2-3.2v0h12.8c1.767 0 3.2 1.433 3.2 3.2v0 5.131c0.558 0.158 1.093 0.368 1.6 0.629v-5.76c0-2.651-2.149-4.8-4.8-4.8v0h-12.8zM23.2 30.4c3.976 0 7.2-3.224 7.2-7.2s-3.224-7.2-7.2-7.2v0c-3.976 0-7.2 3.224-7.2 7.2s3.224 7.2 7.2 7.2v0zM23.2 19.2c0.442 0 0.8 0.358 0.8 0.8v0 2.4h2.4c0.442 0 0.8 0.358 0.8 0.8s-0.358 0.8-0.8 0.8v0h-2.4v2.4c0 0.442-0.358 0.8-0.8 0.8s-0.8-0.358-0.8-0.8v0-2.4h-2.4c-0.442 0-0.8-0.358-0.8-0.8s0.358-0.8 0.8-0.8v0h2.4v-2.4c0-0.442 0.358-0.8 0.8-0.8v0z"></path>
</svg>
