<!-- Generated by IcoMoon.io -->
<svg version="1.1" xmlns="http://www.w3.org/2000/svg" width="32" height="32" viewBox="0 0 32 32">
<title>square-hint-sparkles</title>
<path d="M21.889 8.075c-0.429-0.551-1.006-0.969-1.671-1.196l-0.025-0.007-1.735-0.563c-0.268-0.097-0.456-0.35-0.456-0.646s0.188-0.548 0.451-0.644l0.005-0.002 1.735-0.563c1.043-0.368 1.85-1.176 2.208-2.195l0.008-0.025 0.015-0.043 0.563-1.733c0.096-0.27 0.349-0.46 0.647-0.46s0.551 0.19 0.645 0.455l0.002 0.005 0.563 1.733c0.364 1.072 1.193 1.9 2.239 2.255l0.025 0.007 1.735 0.563 0.035 0.009c0.268 0.097 0.456 0.35 0.456 0.646s-0.188 0.548-0.451 0.644l-0.005 0.002-1.735 0.563c-1.072 0.363-1.9 1.191-2.257 2.238l-0.007 0.025-0.564 1.733c-0.097 0.269-0.349 0.458-0.646 0.458-0.148 0-0.286-0.047-0.398-0.128l0.002 0.001c-0.114-0.082-0.201-0.195-0.248-0.327l-0.002-0.005-0.564-1.733c-0.137-0.409-0.33-0.763-0.574-1.076l0.006 0.008zM31.739 12.656l-0.919-0.299c-0.567-0.193-1.005-0.631-1.194-1.184l-0.004-0.013-0.299-0.918c-0.051-0.143-0.185-0.243-0.342-0.243s-0.291 0.1-0.342 0.24l-0.001 0.003-0.299 0.918c-0.189 0.563-0.62 1-1.167 1.193l-0.013 0.004-0.919 0.299c-0.141 0.052-0.24 0.185-0.24 0.342s0.099 0.29 0.237 0.341l0.921 0.299c0.101 0.033 0.199 0.075 0.292 0.125l0.002 0.010c0.425 0.23 0.747 0.606 0.901 1.060l0.004 0.013 0.299 0.918c0.052 0.141 0.185 0.24 0.342 0.24 0.147 0 0.273-0.087 0.331-0.212l0.001-0.002v-0.007c0.003-0.006 0.007-0.015 0.010-0.024l0.001-0.002 0.299-0.918c0.193-0.567 0.631-1.005 1.185-1.193l0.013-0.004 0.919-0.299c0.141-0.052 0.24-0.185 0.24-0.342s-0.099-0.29-0.237-0.341l-0.003-0.001-0.019-0.005zM17.040 4.513c0.147-0.203 0.324-0.373 0.526-0.509l0.007-0.005h-3.407c-0.46 0-0.833 0.373-0.833 0.833s0.373 0.833 0.833 0.833v0h2.497c0.003-0.433 0.143-0.833 0.38-1.159l-0.004 0.006zM13.333 27.167c0 0.46 0.373 0.833 0.833 0.833h3.667c0.46 0 0.833-0.373 0.833-0.833s-0.373-0.833-0.833-0.833v0h-3.667c-0.46 0-0.833 0.373-0.833 0.833zM4 17.833c0 0.46 0.373 0.833 0.833 0.833s0.833-0.373 0.833-0.833v0-3.667c0-0.46-0.373-0.833-0.833-0.833s-0.833 0.373-0.833 0.833v0 3.667zM8.5 4c0.46 0 0.833 0.373 0.833 0.833s-0.373 0.833-0.833 0.833v0h-0.333c-1.381 0-2.5 1.119-2.5 2.5v0 0.333c0 0.46-0.373 0.833-0.833 0.833s-0.833-0.373-0.833-0.833v0-0.333c0-2.301 1.865-4.167 4.167-4.167v0h0.333zM9.333 27.167c0 0.46-0.373 0.833-0.833 0.833h-0.333c-2.301 0-4.167-1.865-4.167-4.167v0-0.333c0-0.46 0.373-0.833 0.833-0.833s0.833 0.373 0.833 0.833v0 0.333c0 1.381 1.119 2.5 2.5 2.5v0h0.333c0.46 0 0.833 0.373 0.833 0.833zM22.667 27.167c0 0.46 0.373 0.833 0.833 0.833h0.333c2.301 0 4.167-1.865 4.167-4.167v0-0.333c0-0.46-0.373-0.833-0.833-0.833s-0.833 0.373-0.833 0.833v0 0.333c0 1.381-1.119 2.5-2.5 2.5v0h-0.333c-0.46 0-0.833 0.373-0.833 0.833z"></path>
</svg>
