<!-- Generated by IcoMoon.io -->
<svg version="1.1" xmlns="http://www.w3.org/2000/svg" width="32" height="32" viewBox="0 0 32 32">
<title>square-hint-arrow-back-regular</title>
<path d="M9.6 5.6c0-0.442-0.358-0.8-0.8-0.8v0c-2.209 0-4 1.791-4 4v0c0 0.442 0.358 0.8 0.8 0.8s0.8-0.358 0.8-0.8v0c0-1.325 1.075-2.4 2.4-2.4v0c0.442 0 0.8-0.358 0.8-0.8v0zM26.4 9.6c0.442 0 0.8-0.358 0.8-0.8v0c0-2.209-1.791-4-4-4v0c-0.442 0-0.8 0.358-0.8 0.8s0.358 0.8 0.8 0.8v0c1.325 0 2.4 1.075 2.4 2.4v0c0 0.442 0.358 0.8 0.8 0.8v0zM5.6 22.4c-0.442 0-0.8 0.358-0.8 0.8v0c0 2.209 1.791 4 4 4v0c0.442 0 0.8-0.358 0.8-0.8s-0.358-0.8-0.8-0.8v0c-1.325 0-2.4-1.075-2.4-2.4v0c0-0.442-0.358-0.8-0.8-0.8v0zM4.8 14.4c0-0.442 0.358-0.8 0.8-0.8s0.8 0.358 0.8 0.8v0 3.2c0 0.442-0.358 0.8-0.8 0.8s-0.8-0.358-0.8-0.8v0-3.2zM26.4 12c-0.442 0-0.8 0.358-0.8 0.8v0 1.931c0.558 0.158 1.093 0.368 1.6 0.629v-2.56c0-0.442-0.358-0.8-0.8-0.8v0zM15.36 27.2c-0.238-0.454-0.453-0.985-0.613-1.538l-0.015-0.062h-1.931c-0.442 0-0.8 0.358-0.8 0.8s0.358 0.8 0.8 0.8v0h2.56zM13.6 5.6c0-0.442 0.358-0.8 0.8-0.8v0h3.2c0.442 0 0.8 0.358 0.8 0.8s-0.358 0.8-0.8 0.8v0h-3.2c-0.442 0-0.8-0.358-0.8-0.8v0zM23.2 30.4c3.976 0 7.2-3.224 7.2-7.2s-3.224-7.2-7.2-7.2v0c-3.976 0-7.2 3.224-7.2 7.2s3.224 7.2 7.2 7.2v0zM21.766 20.166l-1.435 1.434h2.469c2.43 0 4.4 1.97 4.4 4.4v0 0.4c0 0.442-0.358 0.8-0.8 0.8s-0.8-0.358-0.8-0.8v0-0.4c0-1.546-1.254-2.8-2.8-2.8v0h-2.469l1.435 1.434c0.145 0.145 0.235 0.345 0.235 0.566 0 0.442-0.359 0.801-0.801 0.801-0.221 0-0.421-0.090-0.566-0.235l-2.803-2.805c-0.143-0.144-0.232-0.343-0.232-0.562 0-0.221 0.090-0.421 0.235-0.566l2.8-2.8c0.145-0.145 0.345-0.235 0.566-0.235 0.442 0 0.801 0.359 0.801 0.801 0 0.221-0.090 0.421-0.235 0.566v0z"></path>
</svg>
