<!-- Generated by IcoMoon.io -->
<svg version="1.1" xmlns="http://www.w3.org/2000/svg" width="32" height="32" viewBox="0 0 32 32">
<title>square-shadow</title>
<path d="M7.2 3.2c-2.209 0-4 1.791-4 4v0 11.2c0 2.209 1.791 4 4 4v0h2.4v2.4c0 2.209 1.791 4 4 4v0h11.2c2.209 0 4-1.791 4-4v0-11.2c0-2.209-1.791-4-4-4v0h-2.4v-2.4c0-2.209-1.791-4-4-4v0h-11.2zM4.8 7.2c0-1.325 1.075-2.4 2.4-2.4v0h11.2c1.325 0 2.4 1.075 2.4 2.4v0 11.2c0 1.325-1.075 2.4-2.4 2.4v0h-11.2c-1.325 0-2.4-1.075-2.4-2.4v0-11.2z"></path>
</svg>
