<!-- Generated by IcoMoon.io -->
<svg version="1.1" xmlns="http://www.w3.org/2000/svg" width="32" height="32" viewBox="0 0 32 32">
<title>stack-regular</title>
<path d="M2 7c0-1.657 1.343-3 3-3v0h14c1.657 0 3 1.343 3 3v0 10c0 1.657-1.343 3-3 3v0h-14c-1.657 0-3-1.343-3-3v0-10zM5 6c-0.552 0-1 0.448-1 1v0 10c0 0.552 0.448 1 1 1v0h14c0.552 0 1-0.448 1-1v0-10c0-0.552-0.448-1-1-1v0h-14zM10.17 26c0.425 1.175 1.531 2 2.829 2 0 0 0.001 0 0.001 0h6c6.074 0 11-4.925 11-11v-2c0-0 0-0.001 0-0.001 0-1.299-0.825-2.405-1.979-2.823l-0.021-0.007v4.83c0 4.971-4.029 9-9 9v0h-8.83zM9 24c-0 0-0.001 0-0.001 0-1.299 0-2.405-0.825-2.823-1.979l-0.007-0.021h12.83c2.761 0 5-2.239 5-5v0-8.83c1.164 0.412 2 1.524 2 2.83v6c0 3.866-3.134 7-7 7v0h-10z"></path>
</svg>
