<!-- Generated by IcoMoon.io -->
<svg version="1.1" xmlns="http://www.w3.org/2000/svg" width="32" height="32" viewBox="0 0 32 32">
<title>stack-star-regular</title>
<path d="M12.667 7.8c0.389 0.001 0.726 0.223 0.891 0.548l0.003 0.006 1.095 2.187 2.136 0.267c0.497 0.063 0.877 0.484 0.877 0.992 0 0.308-0.14 0.584-0.359 0.768l-0.002 0.001-1.532 1.276 0.535 2.405c0.015 0.065 0.024 0.141 0.024 0.218 0 0.552-0.448 1-1 1-0.197 0-0.38-0.057-0.535-0.155l0.004 0.002-2.136-1.336-2.137 1.336c-0.151 0.096-0.334 0.152-0.531 0.152-0.552 0-1-0.448-1-1 0-0.077 0.009-0.152 0.025-0.224l-0.001 0.007 0.536-2.404-1.533-1.277c-0.22-0.185-0.359-0.46-0.359-0.768 0-0.509 0.38-0.929 0.871-0.992l0.005-0.001 2.136-0.267 1.093-2.188c0.168-0.331 0.505-0.553 0.895-0.553v0zM5.333 5.333h14.667c1.473 0 2.667 1.194 2.667 2.667v0 9.333c0 1.473-1.194 2.667-2.667 2.667v0h-14.667c-1.473 0-2.667-1.194-2.667-2.667v0-9.333c0-1.473 1.194-2.667 2.667-2.667v0zM20 7.333h-14.667c-0.368 0-0.667 0.298-0.667 0.667v0 9.333c0 0.368 0.298 0.667 0.667 0.667v0h14.667c0.368 0 0.667-0.298 0.667-0.667v0-9.333c0-0.368-0.298-0.667-0.667-0.667v0zM6.084 21.333c0.307 1.159 1.346 2 2.582 2 0 0 0 0 0.001 0h12c2.946 0 5.333-2.388 5.333-5.333v0-6.667c0-0 0-0 0-0.001 0-1.236-0.841-2.275-1.981-2.578l-0.019-0.004v9.249c0 1.841-1.492 3.333-3.333 3.333v0h-14.583zM9.417 24.667c0.307 1.159 1.346 2 2.582 2 0 0 0 0 0.001 0h9.667c4.234 0 7.667-3.432 7.667-7.667v0-4.333c0-0 0-0 0-0.001 0-1.236-0.841-2.275-1.981-2.578l-0.019-0.004v6.916c0 3.13-2.537 5.667-5.667 5.667v0h-12.249z"></path>
</svg>
