<!-- Generated by IcoMoon.io -->
<svg version="1.1" xmlns="http://www.w3.org/2000/svg" width="32" height="32" viewBox="0 0 32 32">
<title>stack-star</title>
<path d="M12.667 7.8c0.379 0 0.725 0.214 0.894 0.553l1.094 2.188 2.136 0.267c0.395 0.049 0.724 0.329 0.836 0.711s-0.013 0.795-0.319 1.050l-1.532 1.276 0.534 2.405c0.087 0.393-0.070 0.801-0.399 1.033s-0.766 0.245-1.107 0.031l-2.137-1.335-2.137 1.335c-0.342 0.214-0.778 0.201-1.107-0.031s-0.486-0.64-0.399-1.033l0.534-2.405-1.532-1.276c-0.306-0.255-0.431-0.667-0.319-1.050s0.44-0.662 0.836-0.711l2.136-0.267 1.094-2.188c0.169-0.339 0.516-0.553 0.894-0.553zM12.667 11.036l-0.439 0.878c-0.15 0.299-0.439 0.504-0.77 0.545l-0.381 0.048 0.23 0.192c0.288 0.24 0.417 0.62 0.336 0.985l-0.149 0.67 0.643-0.402c0.324-0.203 0.736-0.203 1.060 0l0.643 0.402-0.149-0.67c-0.081-0.365 0.048-0.746 0.336-0.985l0.23-0.192-0.381-0.048c-0.332-0.041-0.621-0.246-0.77-0.545l-0.439-0.878zM5.333 5.333h14.667c1.473 0 2.667 1.194 2.667 2.667v9.333c0 1.473-1.194 2.667-2.667 2.667h-14.667c-1.473 0-2.667-1.194-2.667-2.667v-9.333c0-1.473 1.194-2.667 2.667-2.667zM20 7.333h-14.667c-0.368 0-0.667 0.298-0.667 0.667v9.333c0 0.368 0.298 0.667 0.667 0.667h14.667c0.368 0 0.667-0.299 0.667-0.667v-9.333c0-0.368-0.299-0.667-0.667-0.667zM6.084 21.333c0.296 1.15 1.34 2 2.583 2h12c2.945 0 5.333-2.388 5.333-5.333v-6.667c0-1.243-0.85-2.287-2-2.583v9.249c0 1.841-1.492 3.333-3.333 3.333h-14.583zM9.417 24.667c0.296 1.15 1.34 2 2.583 2h9.667c4.234 0 7.667-3.433 7.667-7.667v-4.333c0-1.243-0.85-2.287-2-2.583v6.916c0 3.13-2.537 5.667-5.667 5.667h-12.249z"></path>
</svg>
