<!-- Generated by IcoMoon.io -->
<svg version="1.1" xmlns="http://www.w3.org/2000/svg" width="32" height="32" viewBox="0 0 32 32">
<title>star-arrow-right-start</title>
<path d="M14.384 4.136c0.66-1.337 2.568-1.337 3.228 0l3.144 6.371 7.031 1.021c1.476 0.213 2.065 2.029 0.997 3.071l-5.088 4.959 1.201 7c0.253 1.472-1.291 2.593-2.612 1.899l-5.275-2.773c0.188-0.668 0.297-1.369 0.32-2.092l5.527 2.907-1.149-6.707c-0.016-0.091-0.026-0.196-0.026-0.303 0-0.505 0.208-0.961 0.543-1.288l0-0 4.872-4.749-6.733-0.979c-0.598-0.090-1.093-0.462-1.35-0.975l-0.005-0.010-3.012-6.099-3.011 6.099c-0.262 0.523-0.757 0.896-1.345 0.984l-0.010 0.001-6.733 0.979 1.544 1.505c-0.769 0.206-1.441 0.487-2.065 0.844l0.042-0.022-1.208-1.177c-1.068-1.041-0.479-2.856 0.997-3.071l7.031-1.021 3.144-6.371zM16 23.333c0 4.050-3.283 7.333-7.333 7.333s-7.333-3.283-7.333-7.333v0c0-4.050 3.283-7.333 7.333-7.333s7.333 3.283 7.333 7.333v0zM4.667 22.667c-0.368 0-0.667 0.298-0.667 0.667s0.298 0.667 0.667 0.667v0h6.391l-2.196 2.195c-0.12 0.121-0.195 0.287-0.195 0.471 0 0.368 0.299 0.667 0.667 0.667 0.184 0 0.351-0.075 0.472-0.196v0l3.333-3.333c0.121-0.121 0.195-0.287 0.195-0.471s-0.075-0.351-0.195-0.471l-3.333-3.333c-0.121-0.121-0.288-0.196-0.472-0.196-0.368 0-0.667 0.299-0.667 0.667 0 0.184 0.075 0.351 0.195 0.471v0l2.196 2.196h-6.391z"></path>
</svg>
