<!-- Generated by IcoMoon.io -->
<svg version="1.1" xmlns="http://www.w3.org/2000/svg" width="32" height="32" viewBox="0 0 32 32">
<title>star-half</title>
<path d="M14.515 4.466c0.271-0.551 0.829-0.923 1.474-0.923 0.005 0 0.009 0 0.014 0h-0.001c0.591 0 1.182 0.309 1.486 0.923l3.074 6.232 6.878 0.999c1.36 0.198 1.902 1.869 0.919 2.826l-4.977 4.851 1.175 6.848c0.233 1.354-1.189 2.386-2.403 1.747l-6.151-3.234-6.151 3.234c-1.216 0.64-2.637-0.393-2.405-1.747l1.175-6.848-4.977-4.851c-0.983-0.958-0.44-2.629 0.919-2.826l6.877-0.999 3.075-6.232zM16.002 23.015c0.265 0 0.529 0.064 0.77 0.191l6.075 3.193-1.16-6.765c-0.093-0.537 0.086-1.086 0.477-1.466l4.914-4.791-6.792-0.987c-0.551-0.082-1.006-0.425-1.244-0.897l-0.004-0.010-3.037-6.153v17.685z"></path>
</svg>
