<!-- Generated by IcoMoon.io -->
<svg version="1.1" xmlns="http://www.w3.org/2000/svg" width="32" height="32" viewBox="0 0 32 32">
<title>star-regular</title>
<path d="M14.535 4.057c0.599-1.213 2.33-1.213 2.929 0l3.235 6.555 7.233 1.051c1.34 0.195 1.875 1.841 0.905 2.786l-5.233 5.102 1.235 7.204c0.229 1.335-1.172 2.352-2.37 1.722l-6.47-3.401-6.47 3.401c-1.198 0.63-2.599-0.387-2.37-1.722l1.236-7.204-5.234-5.102c-0.97-0.945-0.435-2.591 0.905-2.786l7.233-1.051 3.235-6.555zM16 4.855l-3.213 6.509c-0.238 0.474-0.687 0.812-1.22 0.892l-0.009 0.001-7.184 1.045 5.199 5.067c0.304 0.297 0.493 0.711 0.493 1.169 0 0.098-0.009 0.194-0.025 0.287l0.001-0.010-1.227 7.155 6.425-3.378c0.22-0.118 0.482-0.188 0.76-0.188s0.54 0.069 0.769 0.192l-0.009-0.004 6.425 3.378-1.227-7.155c-0.015-0.083-0.024-0.179-0.024-0.277 0-0.458 0.189-0.872 0.493-1.169l0-0 5.199-5.067-7.184-1.044c-0.543-0.081-0.992-0.419-1.226-0.884l-0.004-0.009-3.213-6.511z"></path>
</svg>
