<!-- Generated by IcoMoon.io -->
<svg version="1.1" xmlns="http://www.w3.org/2000/svg" width="32" height="32" viewBox="0 0 32 32">
<title>star-line-horizontal-3</title>
<path d="M17.612 4.136c-0.66-1.337-2.568-1.337-3.228 0l-3.144 6.371-7.031 1.021c-1.476 0.213-2.067 2.029-0.997 3.071l5.087 4.959-1.2 7c-0.253 1.472 1.291 2.593 2.612 1.899l6.752-3.551c0.334-0.166 0.56-0.506 0.56-0.898 0-0.552-0.448-1-1-1-0.18 0-0.35 0.048-0.496 0.131l0.005-0.003-6.393 3.36 1.149-6.705c0.016-0.091 0.026-0.196 0.026-0.303 0-0.505-0.208-0.961-0.543-1.288l-0-0-4.872-4.749 6.733-0.979c0.587-0.085 1.093-0.453 1.355-0.985l3.011-6.1 3.319 6.724c0.167 0.333 0.506 0.557 0.897 0.557 0 0 0 0 0.001 0h8.12c0.552 0 1-0.448 1-1s-0.448-1-1-1v0h-7.499l-3.223-6.531zM19.333 17c0-0.552 0.448-1 1-1v0h8c0.552 0 1 0.448 1 1s-0.448 1-1 1v0h-8c-0.552 0-1-0.448-1-1v0zM19.333 22.333c0-0.552 0.448-1 1-1v0h8c0.552 0 1 0.448 1 1s-0.448 1-1 1v0h-8c-0.552 0-1-0.448-1-1v0z"></path>
</svg>
