<!-- Generated by IcoMoon.io -->
<svg version="1.1" xmlns="http://www.w3.org/2000/svg" width="32" height="32" viewBox="0 0 32 32">
<title>star-emphasis-regular</title>
<path d="M14.388 4.074c0.66-1.338 2.568-1.338 3.228 0l3.042 6.164 6.803 0.988c1.476 0.215 2.066 2.030 0.997 3.070l-4.922 4.799 1.162 6.775c0.252 1.47-1.291 2.591-2.612 1.897l-6.084-3.199-6.084 3.2c-1.32 0.693-2.864-0.428-2.612-1.898l1.162-6.775-4.922-4.798c-1.069-1.042-0.48-2.856 0.997-3.070l6.803-0.99 3.042-6.163zM16.002 5.322l-2.91 5.895c-0.262 0.523-0.757 0.896-1.345 0.984l-0.010 0.001-6.505 0.945 4.707 4.589c0.336 0.327 0.544 0.784 0.544 1.289 0 0.107-0.009 0.212-0.027 0.315l0.002-0.011-1.111 6.48 5.818-3.060c0.243-0.13 0.532-0.207 0.838-0.207s0.595 0.077 0.848 0.212l-0.010-0.005 5.818 3.060-1.11-6.48c-0.017-0.092-0.026-0.197-0.026-0.305 0-0.505 0.208-0.961 0.543-1.288l0-0 4.707-4.589-6.505-0.945c-0.598-0.089-1.094-0.462-1.351-0.975l-0.005-0.010-2.909-5.895z"></path>
<path d="M25.293 9.577c-0.181-0.181-0.293-0.431-0.293-0.707s0.112-0.526 0.293-0.707l3-3c0.182-0.188 0.437-0.305 0.719-0.305 0.552 0 1 0.448 1 1 0 0.282-0.117 0.537-0.305 0.719l-3 3c-0.181 0.181-0.431 0.293-0.707 0.293s-0.526-0.112-0.707-0.293v0zM2.293 23.163c-0.181 0.181-0.293 0.431-0.293 0.707 0 0.552 0.448 1 1 1 0.276 0 0.526-0.112 0.707-0.293l3-3c0.181-0.181 0.293-0.431 0.293-0.707 0-0.552-0.448-1-1-1-0.276 0-0.526 0.112-0.707 0.293l-3 3zM2.293 5.163c0.181-0.181 0.431-0.293 0.707-0.293s0.526 0.112 0.707 0.293l3 3c0.174 0.18 0.281 0.425 0.281 0.695 0 0.552-0.448 1-1 1-0.27 0-0.515-0.107-0.695-0.281l-3-3c-0.181-0.181-0.293-0.431-0.293-0.707s0.112-0.526 0.293-0.707v0zM26.707 20.163c-0.181-0.181-0.431-0.293-0.707-0.293-0.552 0-1 0.448-1 1 0 0.276 0.112 0.526 0.293 0.707l3 3c0.181 0.181 0.431 0.293 0.707 0.293 0.552 0 1-0.448 1-1 0-0.276-0.112-0.526-0.293-0.707l-3-3z"></path>
</svg>
