<!-- Generated by IcoMoon.io -->
<svg version="1.1" xmlns="http://www.w3.org/2000/svg" width="32" height="32" viewBox="0 0 32 32">
<title>star-add</title>
<path d="M14.515 4.466c0.608-1.232 2.365-1.232 2.971 0l3.077 6.231 6.877 1c1.36 0.198 1.902 1.867 0.919 2.826l-1.211 1.181c-0.517-0.257-1.119-0.474-1.748-0.622l-0.058-0.011 1.737-1.694-6.792-0.987c-0.551-0.082-1.006-0.425-1.244-0.897l-0.004-0.010-3.037-6.154-3.038 6.154c-0.242 0.481-0.697 0.824-1.239 0.905l-0.009 0.001-6.792 0.987 4.914 4.79c0.391 0.382 0.569 0.929 0.477 1.467l-1.16 6.765 5.702-2.998v0.027c0 0.621 0.066 1.225 0.191 1.809l-5.197 2.731c-1.216 0.64-2.637-0.392-2.405-1.746l1.175-6.849-4.977-4.85c-0.983-0.959-0.44-2.629 0.919-2.826l6.877-1 3.075-6.231zM30.857 23.429c0 4.103-3.326 7.429-7.429 7.429s-7.429-3.326-7.429-7.429v0c0-4.103 3.326-7.429 7.429-7.429s7.429 3.326 7.429 7.429v0zM24 18.857c0-0.316-0.256-0.571-0.571-0.571s-0.571 0.256-0.571 0.571v0 4h-4c-0.316 0-0.571 0.256-0.571 0.571s0.256 0.571 0.571 0.571v0h4v4c0 0.316 0.256 0.571 0.571 0.571s0.571-0.256 0.571-0.571v0-4h4c0.316 0 0.571-0.256 0.571-0.571s-0.256-0.571-0.571-0.571v0h-4v-4z"></path>
</svg>
