<!-- Generated by IcoMoon.io -->
<svg version="1.1" xmlns="http://www.w3.org/2000/svg" width="32" height="32" viewBox="0 0 32 32">
<title>star-off-regular</title>
<path d="M3.749 2.537l25.714 25.714c0.143 0.153 0.23 0.358 0.23 0.584 0 0.473-0.384 0.857-0.857 0.857-0.226 0-0.432-0.087-0.585-0.23l0 0-3.791-3.79 0.094 0.551c0.233 1.353-1.189 2.385-2.403 1.746l-6.151-3.234-6.151 3.234c-1.216 0.64-2.637-0.393-2.405-1.747l1.175-6.848-4.976-4.851c-0.984-0.958-0.441-2.629 0.918-2.826l5.173-0.751-7.197-7.198c-0.168-0.157-0.273-0.38-0.273-0.627 0-0.473 0.384-0.857 0.857-0.857 0.247 0 0.47 0.105 0.627 0.272l0 0.001zM22.361 23.574l-11.115-11.117-6.323 0.919 4.914 4.791c0.391 0.381 0.569 0.929 0.477 1.466l-1.159 6.767 6.075-3.194c0.224-0.12 0.489-0.191 0.771-0.191s0.548 0.070 0.78 0.195l-0.009-0.004 6.074 3.193-0.485-2.825zM12.395 8.759l1.28 1.28 2.325-4.71 3.037 6.154c0.242 0.489 0.709 0.829 1.248 0.906l6.792 0.987-4.914 4.791c-0.060 0.058-0.115 0.121-0.165 0.187l-0.003 0.004 1.463 1.463-0.077-0.447 4.976-4.851c0.983-0.958 0.44-2.629-0.919-2.826l-6.877-0.999-3.075-6.232c-0.608-1.231-2.365-1.231-2.971 0l-2.119 4.293z"></path>
</svg>
