<!-- Generated by IcoMoon.io -->
<svg version="1.1" xmlns="http://www.w3.org/2000/svg" width="32" height="32" viewBox="0 0 32 32">
<title>star-edit-regular</title>
<path d="M17.612 4.136c-0.66-1.337-2.568-1.337-3.228 0l-3.144 6.371-7.031 1.021c-1.476 0.213-2.067 2.029-0.997 3.071l5.087 4.959-1.2 7c-0.253 1.472 1.291 2.593 2.612 1.899l3.925-2.064 0.405-1.623c0.093-0.369 0.227-0.724 0.399-1.060l-5.301 2.787 1.149-6.704c0.017-0.092 0.026-0.197 0.026-0.305 0-0.505-0.208-0.961-0.543-1.288l-0-0-4.872-4.749 6.733-0.979c0.587-0.085 1.093-0.453 1.355-0.985l3.011-6.1 3.012 6.1c0.262 0.523 0.757 0.896 1.345 0.984l0.010 0.001 5.933 0.863c1.040 0 1.995 0.364 2.744 0.972l-0.008-0.006c0.705-1.056 0.096-2.576-1.247-2.771l-7.031-1.021-3.144-6.371zM24.133 15.56l-7.861 7.869c-0.446 0.446-0.774 1.009-0.936 1.639l-0.005 0.025-0.609 2.44c-0.028 0.106-0.044 0.228-0.044 0.354 0 0.8 0.648 1.448 1.448 1.448 0.125 0 0.246-0.016 0.362-0.046l-0.010 0.002 2.439-0.611c0.654-0.167 1.216-0.496 1.661-0.941l7.861-7.871c0.551-0.552 0.892-1.313 0.892-2.155s-0.341-1.603-0.892-2.155l0 0c-0.551-0.552-1.312-0.893-2.153-0.893s-1.602 0.341-2.153 0.893l-0 0z"></path>
</svg>
