<!-- Generated by IcoMoon.io -->
<svg version="1.1" xmlns="http://www.w3.org/2000/svg" width="32" height="32" viewBox="0 0 32 32">
<title>star-arrow-right-end-regular</title>
<path d="M14.384 4.136c0.66-1.337 2.568-1.337 3.228 0l3.144 6.371 7.031 1.021c1.476 0.213 2.065 2.029 0.997 3.071l-1.207 1.176c-0.581-0.334-1.254-0.615-1.962-0.807l-0.060-0.014 1.543-1.504-6.733-0.979c-0.598-0.090-1.093-0.462-1.35-0.975l-0.005-0.010-3.012-6.099-3.011 6.099c-0.262 0.523-0.757 0.896-1.345 0.984l-0.010 0.001-6.733 0.979 4.872 4.749c0.424 0.413 0.617 1.009 0.517 1.593l-1.149 6.705 5.532-2.908c0.020 0.723 0.131 1.423 0.317 2.092l-5.277 2.775c-1.32 0.693-2.864-0.427-2.613-1.897l1.201-7.001-5.087-4.96c-1.068-1.040-0.479-2.855 0.997-3.069l7.031-1.021 3.144-6.371zM30.667 23.333c0 4.050-3.283 7.333-7.333 7.333s-7.333-3.283-7.333-7.333v0c0-4.050 3.283-7.333 7.333-7.333s7.333 3.283 7.333 7.333v0zM19.333 22.667c-0.368 0-0.667 0.298-0.667 0.667s0.298 0.667 0.667 0.667v0h6.391l-2.196 2.195c-0.12 0.121-0.195 0.287-0.195 0.471 0 0.368 0.299 0.667 0.667 0.667 0.184 0 0.351-0.075 0.472-0.196v0l3.333-3.333c0.121-0.121 0.195-0.287 0.195-0.471s-0.075-0.351-0.195-0.471l-3.333-3.333c-0.121-0.121-0.288-0.196-0.472-0.196-0.368 0-0.667 0.299-0.667 0.667 0 0.184 0.075 0.351 0.195 0.471v0l2.196 2.196h-6.391z"></path>
</svg>
