<!-- Generated by IcoMoon.io -->
<svg version="1.1" xmlns="http://www.w3.org/2000/svg" width="32" height="32" viewBox="0 0 32 32">
<title>star-off</title>
<path d="M4.374 2.96c-0.391-0.391-1.024-0.391-1.414-0s-0.391 1.024-0 1.414l6.406 6.406-5.155 0.749c-1.476 0.215-2.066 2.029-0.998 3.070l5.087 4.959-1.201 7.002c-0.252 1.471 1.291 2.592 2.612 1.898l6.288-3.306 6.288 3.306c1.321 0.694 2.864-0.427 2.612-1.898l-0.051-0.298 2.779 2.78c0.391 0.391 1.024 0.391 1.414 0s0.391-1.024 0-1.414l-24.666-24.667zM22.397 23.812l0.461 2.686-6.022-3.166c-0.524-0.276-1.151-0.276-1.675 0l-6.022 3.166 1.15-6.706c0.1-0.584-0.093-1.18-0.518-1.593l-4.872-4.749 6.231-0.905 11.267 11.268z"></path>
<path d="M27.097 13.449l-4.763 4.643 1.414 1.414 5.035-4.907c1.068-1.041 0.479-2.856-0.998-3.070l-7.030-1.022-3.144-6.37c-0.66-1.338-2.568-1.338-3.228 0l-1.984 4.020 1.493 1.493 2.105-4.265 3.011 6.101c0.262 0.531 0.769 0.899 1.355 0.985l6.733 0.978z"></path>
</svg>
