<!-- Generated by IcoMoon.io -->
<svg version="1.1" xmlns="http://www.w3.org/2000/svg" width="32" height="32" viewBox="0 0 32 32">
<title>star-add</title>
<path d="M14.384 4.137c0.66-1.338 2.568-1.338 3.228 0l3.144 6.37 7.030 1.022c1.476 0.215 2.066 2.029 0.998 3.070l-1.207 1.176c-0.63-0.354-1.308-0.632-2.023-0.821l1.543-1.504-6.733-0.978c-0.586-0.085-1.093-0.453-1.355-0.985l-3.011-6.101-3.011 6.101c-0.262 0.531-0.769 0.899-1.355 0.985l-6.733 0.978 4.872 4.749c0.424 0.414 0.618 1.009 0.518 1.593l-1.15 6.706 5.532-2.909c0.021 0.723 0.131 1.424 0.318 2.092l-5.278 2.775c-1.321 0.694-2.864-0.427-2.612-1.898l1.201-7.002-5.087-4.959c-1.068-1.041-0.479-2.856 0.998-3.070l7.030-1.022 3.144-6.37z"></path>
<path d="M30.667 23.333c0-4.050-3.283-7.333-7.333-7.333s-7.333 3.283-7.333 7.333c0 4.050 3.283 7.333 7.333 7.333s7.333-3.283 7.333-7.333zM24.001 24l0.001 3.338c0 0.368-0.298 0.667-0.667 0.667s-0.667-0.298-0.667-0.667l-0.001-3.338h-3.34c-0.368 0-0.666-0.298-0.666-0.667s0.298-0.667 0.666-0.667h3.34l-0.001-3.334c0-0.368 0.299-0.667 0.667-0.667s0.667 0.298 0.667 0.667l0.001 3.334h3.328c0.368 0 0.666 0.299 0.666 0.667s-0.298 0.667-0.666 0.667h-3.328z"></path>
</svg>
