<!-- Generated by IcoMoon.io -->
<svg version="1.1" xmlns="http://www.w3.org/2000/svg" width="32" height="32" viewBox="0 0 32 32">
<title>star-one-quarter</title>
<path d="M17.488 4.466c-0.608-1.231-2.365-1.231-2.971 0l-3.077 6.232-6.877 0.999c-0.808 0.118-1.421 0.806-1.421 1.637 0 0.005 0 0.010 0 0.015v-0.001c0 0.417 0.158 0.84 0.503 1.177l4.976 4.85-1.175 6.848c-0.123 0.72 0.221 1.351 0.754 1.686 0.469 0.294 1.081 0.361 1.65 0.062l6.151-3.234 6.151 3.234c1.215 0.64 2.635-0.393 2.403-1.747l-1.174-6.848 4.976-4.851c0.983-0.958 0.44-2.629-0.919-2.826l-6.877-0.999-3.075-6.232zM12.574 24.602v-12.609c0.16-0.141 0.291-0.31 0.386-0.5l0.004-0.010 3.038-6.154 3.037 6.154c0.242 0.489 0.709 0.829 1.248 0.906l6.792 0.987-4.914 4.791c-0.309 0.301-0.5 0.722-0.5 1.187 0 0.099 0.009 0.196 0.025 0.29l-0.001-0.010 1.16 6.766-6.075-3.194c-0.224-0.12-0.489-0.191-0.771-0.191s-0.548 0.070-0.78 0.195l0.009-0.004-2.656 1.397z"></path>
</svg>
