<!-- Generated by IcoMoon.io -->
<svg version="1.1" xmlns="http://www.w3.org/2000/svg" width="32" height="32" viewBox="0 0 32 32">
<title>star-line-horizontal-3</title>
<path d="M17.612 4.137c-0.66-1.338-2.568-1.338-3.228-0l-3.144 6.37-7.030 1.022c-1.476 0.215-2.066 2.029-0.998 3.070l5.087 4.959-1.201 7.002c-0.252 1.47 1.291 2.592 2.612 1.897l6.753-3.55c0.489-0.257 0.677-0.862 0.42-1.351s-0.862-0.677-1.351-0.42l-6.395 3.362 1.15-6.706c0.1-0.584-0.093-1.18-0.518-1.593l-4.872-4.749 6.733-0.978c0.586-0.085 1.093-0.453 1.355-0.985l3.011-6.101 3.318 6.724c0.169 0.341 0.516 0.557 0.897 0.557h8.12c0.552 0 1-0.448 1-1s-0.448-1-1-1h-7.498l-3.222-6.53z"></path>
<path d="M19.333 17c0-0.552 0.448-1 1-1h8c0.552 0 1 0.448 1 1s-0.448 1-1 1h-8c-0.552 0-1-0.448-1-1z"></path>
<path d="M19.333 22.333c0-0.552 0.448-1 1-1h8c0.552 0 1 0.448 1 1s-0.448 1-1 1h-8c-0.552 0-1-0.448-1-1z"></path>
</svg>
