<!-- Generated by IcoMoon.io -->
<svg version="1.1" xmlns="http://www.w3.org/2000/svg" width="32" height="32" viewBox="0 0 32 32">
<title>star</title>
<path d="M14.384 4.137c0.66-1.338 2.568-1.338 3.228 0l3.144 6.37 7.030 1.022c1.476 0.215 2.066 2.029 0.998 3.070l-5.087 4.959 1.201 7.002c0.252 1.471-1.291 2.592-2.612 1.898l-6.288-3.306-6.288 3.306c-1.321 0.694-2.864-0.427-2.612-1.898l1.201-7.002-5.087-4.959c-1.068-1.041-0.479-2.856 0.998-3.070l7.030-1.022 3.144-6.37zM15.998 5.385l-3.011 6.101c-0.262 0.531-0.769 0.899-1.355 0.985l-6.733 0.978 4.872 4.749c0.424 0.414 0.618 1.009 0.518 1.593l-1.15 6.706 6.022-3.166c0.524-0.276 1.151-0.276 1.675 0l6.022 3.166-1.15-6.706c-0.1-0.584 0.093-1.18 0.518-1.593l4.872-4.749-6.733-0.978c-0.586-0.085-1.093-0.453-1.355-0.985l-3.011-6.101z"></path>
</svg>
