<!-- Generated by IcoMoon.io -->
<svg version="1.1" xmlns="http://www.w3.org/2000/svg" width="32" height="32" viewBox="0 0 32 32">
<title>star-three-quarter-regular</title>
<path d="M17.488 4.466l3.074 6.232 6.878 0.999c1.36 0.198 1.902 1.869 0.919 2.826l-4.977 4.851 1.175 6.848c0.233 1.354-1.189 2.386-2.403 1.747l-6.153-3.234-6.15 3.234c-1.216 0.64-2.637-0.393-2.405-1.747l1.175-6.848-4.977-4.851c-0.983-0.958-0.44-2.629 0.919-2.826l6.877-0.999 3.075-6.232c0.608-1.231 2.365-1.231 2.971 0zM19.431 11.994v12.608l3.417 1.797-1.16-6.765c-0.093-0.537 0.086-1.086 0.477-1.466l4.914-4.791-6.792-0.987c-0.332-0.049-0.624-0.191-0.858-0.397l0.002 0.002z"></path>
</svg>
