<!-- Generated by IcoMoon.io -->
<svg version="1.1" xmlns="http://www.w3.org/2000/svg" width="32" height="32" viewBox="0 0 32 32">
<title>star-edit</title>
<path d="M17.612 4.137c-0.66-1.338-2.568-1.338-3.228 0l-3.144 6.37-7.030 1.022c-1.476 0.215-2.066 2.029-0.998 3.070l5.087 4.959-1.201 7.002c-0.252 1.471 1.291 2.592 2.612 1.898l3.926-2.064 0.405-1.623c0.092-0.369 0.226-0.724 0.399-1.059l-5.302 2.787 1.15-6.706c0.1-0.584-0.093-1.18-0.518-1.593l-4.872-4.749 6.733-0.978c0.586-0.085 1.093-0.453 1.355-0.985l3.011-6.101 3.011 6.101c0.262 0.531 0.769 0.899 1.355 0.985l5.933 0.862c0.97 0.002 1.939 0.324 2.736 0.966 0.705-1.057 0.096-2.576-1.247-2.771l-7.030-1.022-3.144-6.37z"></path>
<path d="M24.133 15.559l-7.861 7.87c-0.458 0.459-0.783 1.034-0.941 1.663l-0.61 2.441c-0.265 1.061 0.695 2.023 1.756 1.758l2.438-0.61c0.629-0.157 1.203-0.483 1.661-0.942l7.861-7.87c1.189-1.19 1.189-3.12 0-4.31s-3.116-1.19-4.305 0z"></path>
</svg>
