<!-- Generated by IcoMoon.io -->
<svg version="1.1" xmlns="http://www.w3.org/2000/svg" width="32" height="32" viewBox="0 0 32 32">
<title>status-regular</title>
<path d="M16 4c0.004 0 0.009 0 0.014 0 1.511 0 2.956 0.28 4.287 0.79l-0.082-0.028-1.577 1.589c-0.791-0.225-1.7-0.355-2.639-0.355-5.523 0-10 4.477-10 10s4.477 10 10 10c5.523 0 10-4.477 10-10 0-0.9-0.119-1.772-0.342-2.602l0.016 0.070 1.592-1.604c0.464 1.227 0.732 2.646 0.732 4.127 0 0.004 0 0.008 0 0.012v-0.001c0 6.627-5.373 12-12 12s-12-5.373-12-12c0-6.627 5.373-12 12-12v0zM28.080 3.563l0.195 0.181c0.667 0.667 1.079 1.588 1.079 2.605 0 1.012-0.408 1.929-1.069 2.595l-8.405 8.472c-0.235 0.236-0.527 0.414-0.855 0.51l-0.014 0.004-5.616 1.612c-0.055 0.016-0.118 0.026-0.183 0.026-0.368 0-0.667-0.298-0.667-0.667 0-0.066 0.009-0.129 0.027-0.189l-0.001 0.005 1.613-5.627c0.099-0.336 0.272-0.624 0.503-0.856l8.412-8.48c0.662-0.667 1.579-1.080 2.593-1.080 0.915 0 1.752 0.337 2.393 0.893l-0.005-0.004zM24.519 5.163l-8.413 8.48-0.949 3.312 3.304-0.947 8.405-8.473c0.302-0.304 0.488-0.723 0.488-1.186 0-0.401-0.14-0.768-0.373-1.058l0.003 0.003-0.127-0.143c-0.299-0.296-0.71-0.479-1.164-0.479-0.459 0-0.874 0.187-1.173 0.488l-0 0z"></path>
</svg>
