<!-- Generated by IcoMoon.io -->
<svg version="1.1" xmlns="http://www.w3.org/2000/svg" width="32" height="32" viewBox="0 0 32 32">
<title>stethoscope</title>
<path d="M3.667 3.333c-0.552 0-1 0.448-1 1v7.667c0 4.080 3.054 7.446 7 7.938v1.062c0 4.418 3.582 8 8 8s8-3.582 8-8v-1.126c1.725-0.444 3-2.010 3-3.874 0-2.209-1.791-4-4-4s-4 1.791-4 4c0 1.864 1.275 3.43 3 3.874v1.126c0 3.314-2.686 6-6 6s-6-2.686-6-6v-1.062c3.946-0.492 7-3.859 7-7.938v-7.667c0-0.552-0.448-1-1-1h-3.333c-0.552 0-1 0.448-1 1s0.448 1 1 1h2.333v6.667c0 3.314-2.686 6-6 6s-6-2.686-6-6v-6.667h2.333c0.552 0 1-0.448 1-1s-0.448-1-1-1h-3.333zM24.667 14c1.105 0 2 0.895 2 2s-0.895 2-2 2c-1.105 0-2-0.895-2-2s0.895-2 2-2z"></path>
</svg>
