<!-- Generated by IcoMoon.io -->
<svg version="1.1" xmlns="http://www.w3.org/2000/svg" width="32" height="32" viewBox="0 0 32 32">
<title>stethoscope-regular</title>
<path d="M3.667 3.333c-0.552 0-1 0.448-1 1v0 7.667c0 4.080 3.053 7.447 7 7.939v1.061c0 4.418 3.582 8 8 8s8-3.582 8-8v0-1.125c1.738-0.461 2.997-2.020 2.997-3.873 0-2.208-1.789-3.999-3.997-4.001h-0c-0.002 0-0.004 0-0.007 0-2.209 0-4 1.791-4 4 0 1.856 1.264 3.417 2.979 3.868l0.028 0.006v1.125c0 3.314-2.686 6-6 6s-6-2.686-6-6v0-1.061c3.967-0.515 7-3.872 7-7.938 0-0 0-0 0-0v0-7.667c0-0.552-0.448-1-1-1v0h-3.333c-0.552 0-1 0.448-1 1s0.448 1 1 1v0h2.333v6.667c0 3.314-2.686 6-6 6s-6-2.686-6-6v0-6.667h2.333c0.552 0 1-0.448 1-1s-0.448-1-1-1v0h-3.333zM24.667 14c1.105 0 2 0.895 2 2s-0.895 2-2 2v0c-1.105 0-2-0.895-2-2s0.895-2 2-2v0z"></path>
</svg>
