<!-- Generated by IcoMoon.io -->
<svg version="1.1" xmlns="http://www.w3.org/2000/svg" width="32" height="32" viewBox="0 0 32 32">
<title>sticker-add</title>
<path d="M23.333 16c4.050 0 7.333 3.283 7.333 7.333s-3.283 7.333-7.333 7.333v0c-4.050 0-7.333-3.283-7.333-7.333s3.283-7.333 7.333-7.333v0zM23.333 18.667l-0.12 0.009c-0.273 0.051-0.485 0.263-0.535 0.532l-0.001 0.004-0.011 0.121v3.333h-3.336l-0.12 0.011c-0.273 0.051-0.485 0.263-0.535 0.532l-0.001 0.004-0.011 0.12 0.011 0.12c0.051 0.273 0.263 0.485 0.532 0.535l0.004 0.001 0.12 0.011h3.336v3.337l0.011 0.12c0.051 0.273 0.263 0.485 0.532 0.535l0.004 0.001 0.12 0.011 0.12-0.011c0.273-0.051 0.485-0.263 0.535-0.532l0.001-0.004 0.011-0.12v-3.337l3.339 0.001 0.12-0.011c0.273-0.051 0.485-0.263 0.535-0.532l0.001-0.004 0.011-0.12-0.011-0.12c-0.051-0.273-0.264-0.485-0.533-0.535l-0.004-0.001-0.12-0.011h-3.337v-3.333l-0.011-0.12c-0.051-0.273-0.263-0.486-0.532-0.537l-0.004-0.001-0.12-0.011zM23.667 4c2.393 0 4.333 1.94 4.333 4.333v0l0.001 7.697c-0.575-0.375-1.237-0.696-1.939-0.929l-0.061-0.018-0.001-6.751c0-1.289-1.045-2.333-2.333-2.333v0h-15.333c-1.289 0-2.333 1.045-2.333 2.333v0 15.333c0 1.288 1.045 2.333 2.333 2.333h6.752c0.229 0.712 0.549 1.384 0.945 2.001l-7.697-0.001c-2.393 0-4.333-1.94-4.333-4.333v0-15.333c0-2.393 1.94-4.333 4.333-4.333v0h15.333zM12.236 18.848c0.944 0.653 1.973 1.031 3.103 1.135-0.244 0.561-0.439 1.216-0.553 1.898l-0.007 0.050c-1.395-0.194-2.642-0.704-3.706-1.456l0.026 0.018c-0.276-0.181-0.456-0.489-0.456-0.839 0-0.552 0.448-1 1-1 0.224 0 0.43 0.073 0.596 0.197l-0.003-0.002zM12 10.333c0.014-0 0.031-0.001 0.047-0.001 0.92 0 1.667 0.746 1.667 1.667s-0.746 1.667-1.667 1.667c-0.017 0-0.033-0-0.050-0.001l0.002 0c-0.9-0.026-1.62-0.762-1.62-1.666s0.72-1.64 1.617-1.666l0.002-0zM20 10.333c0.014-0 0.031-0.001 0.047-0.001 0.92 0 1.667 0.746 1.667 1.667s-0.746 1.667-1.667 1.667c-0.017 0-0.033-0-0.050-0.001l0.002 0c-0.9-0.026-1.62-0.762-1.62-1.666s0.72-1.64 1.617-1.666l0.002-0z"></path>
</svg>
