<!-- Generated by IcoMoon.io -->
<svg version="1.1" xmlns="http://www.w3.org/2000/svg" width="32" height="32" viewBox="0 0 32 32">
<title>sticker</title>
<path d="M23.667 4c2.393 0 4.333 1.94 4.333 4.333v0 9.172c-0 0.828-0.336 1.577-0.879 2.12l-7.495 7.496c-0.543 0.543-1.293 0.879-2.121 0.879 0 0-0 0-0 0h-9.172c-2.393 0-4.333-1.94-4.333-4.333v0-15.333c0-2.393 1.94-4.333 4.333-4.333v0h15.333zM23.667 6h-15.333c-1.289 0-2.333 1.045-2.333 2.333v0 15.333c0 1.288 1.045 2.333 2.333 2.333h9v-4.085c-0.254 0.041-0.564 0.072-0.877 0.087l-0.020 0.001-0.436 0.011c-0.021 0-0.045 0-0.070 0-1.81 0-3.486-0.569-4.861-1.538l0.027 0.018c-0.262-0.183-0.431-0.483-0.431-0.823 0-0.553 0.448-1 1-1 0.213 0 0.41 0.067 0.573 0.18l-0.003-0.002c1.125 0.779 2.373 1.165 3.765 1.165 0.616 0 1.204-0.076 1.765-0.228 0.674-1.379 2.023-2.335 3.604-2.442l0.013-0.001 0.284-0.009h4.333v-9c0-1.289-1.045-2.333-2.333-2.333v0zM24.585 19.333h-2.917c-1.224 0-2.228 0.943-2.325 2.143l-0.008 0.191-0.001 2.919 5.252-5.252zM12 10.335c0.014-0 0.031-0.001 0.047-0.001 0.92 0 1.667 0.746 1.667 1.667s-0.746 1.667-1.667 1.667c-0.017 0-0.033-0-0.050-0.001l0.002 0c-0.92 0-1.667-0.746-1.667-1.667s0.746-1.667 1.667-1.667v0zM20 10.335c0.014-0 0.031-0.001 0.047-0.001 0.92 0 1.667 0.746 1.667 1.667s-0.746 1.667-1.667 1.667c-0.017 0-0.033-0-0.050-0.001l0.002 0c-0.9-0.026-1.62-0.762-1.62-1.666s0.72-1.64 1.617-1.666l0.002-0z"></path>
</svg>
