<!-- Generated by IcoMoon.io -->
<svg version="1.1" xmlns="http://www.w3.org/2000/svg" width="32" height="32" viewBox="0 0 32 32">
<title>sticker-add</title>
<path d="M23.333 16c4.050 0 7.333 3.283 7.333 7.333s-3.283 7.333-7.333 7.333c-4.050 0-7.333-3.283-7.333-7.333s3.283-7.333 7.333-7.333zM23.333 18.666l-0.12 0.011c-0.272 0.049-0.487 0.264-0.536 0.536l-0.011 0.12-0.001 3.333-3.336 0.001-0.12 0.011c-0.272 0.049-0.487 0.264-0.536 0.536l-0.011 0.12 0.011 0.12c0.049 0.272 0.264 0.487 0.536 0.536l0.12 0.011 3.337-0.001 0.001 3.339 0.011 0.12c0.049 0.272 0.264 0.487 0.536 0.536l0.12 0.011 0.12-0.011c0.272-0.049 0.487-0.264 0.536-0.536l0.011-0.12-0.001-3.339 3.339 0.001 0.12-0.011c0.272-0.049 0.487-0.264 0.536-0.536l0.011-0.12-0.011-0.12c-0.049-0.272-0.264-0.487-0.536-0.536l-0.12-0.011-3.34-0.001 0.001-3.333-0.011-0.12c-0.049-0.272-0.264-0.487-0.536-0.536l-0.12-0.011zM23.667 4c2.393 0 4.333 1.94 4.333 4.333l0.002 7.697c-0.618-0.396-1.289-0.715-2.001-0.945l-0.001-6.751c0-1.289-1.045-2.333-2.333-2.333h-15.333c-1.289 0-2.333 1.045-2.333 2.333v15.333c0 1.289 1.045 2.333 2.333 2.333l6.751 0.001c0.23 0.712 0.549 1.383 0.945 2.001l-7.697-0.002c-2.393 0-4.333-1.94-4.333-4.333v-15.333c0-2.393 1.94-4.333 4.333-4.333h15.333zM12.235 18.848c0.945 0.653 1.974 1.031 3.104 1.135-0.259 0.615-0.449 1.268-0.56 1.948-1.326-0.18-2.558-0.661-3.682-1.438-0.454-0.314-0.568-0.937-0.254-1.391s0.937-0.568 1.391-0.254zM12.001 10.335c0.92 0 1.666 0.746 1.666 1.666s-0.746 1.666-1.666 1.666c-0.92 0-1.666-0.746-1.666-1.666s0.746-1.666 1.666-1.666zM20.001 10.335c0.92 0 1.666 0.746 1.666 1.666s-0.746 1.666-1.666 1.666c-0.92 0-1.666-0.746-1.666-1.666s0.746-1.666 1.666-1.666z"></path>
</svg>
