<!-- Generated by IcoMoon.io -->
<svg version="1.1" xmlns="http://www.w3.org/2000/svg" width="32" height="32" viewBox="0 0 32 32">
<title>stop</title>
<path d="M25.667 6c0.184 0 0.333 0.149 0.333 0.333v0 19.333c0 0.184-0.149 0.333-0.333 0.333v0h-19.333c-0.184 0-0.333-0.149-0.333-0.333v0-19.333c0-0.184 0.149-0.333 0.333-0.333v0h19.333zM6.333 4c-1.289 0-2.333 1.045-2.333 2.333v0 19.333c0 1.288 1.045 2.333 2.333 2.333h19.333c1.289 0 2.333-1.045 2.333-2.333v0-19.333c0-1.289-1.045-2.333-2.333-2.333v0h-19.333z"></path>
</svg>
