<!-- Generated by IcoMoon.io -->
<svg version="1.1" xmlns="http://www.w3.org/2000/svg" width="32" height="32" viewBox="0 0 32 32">
<title>storage</title>
<path d="M6.667 9.333h18.667c0 0 0 0 0 0 2.127 0 3.866 1.659 3.993 3.754l0.001 0.011 0.007 0.235v5.333c0 0 0 0 0 0 0 2.127-1.66 3.866-3.754 3.993l-0.011 0.001-0.235 0.007h-18.667c-0 0-0 0-0 0-2.127 0-3.866-1.66-3.993-3.754l-0.001-0.011-0.007-0.235v-5.333c0-0 0-0 0-0 0-2.127 1.66-3.866 3.754-3.993l0.011-0.001 0.235-0.007zM25.333 11.333h-18.667c-1.105 0-2 0.895-2 2v0 5.333c0 1.105 0.895 2 2 2v0h18.667c1.105 0 2-0.895 2-2v0-5.333c0-1.105-0.895-2-2-2v0zM24 13.333c0.736 0 1.333 0.597 1.333 1.333s-0.597 1.333-1.333 1.333v0c-0.736 0-1.333-0.597-1.333-1.333s0.597-1.333 1.333-1.333v0zM18.667 13.333c0.736 0 1.333 0.597 1.333 1.333s-0.597 1.333-1.333 1.333v0c-0.736 0-1.333-0.597-1.333-1.333s0.597-1.333 1.333-1.333v0z"></path>
</svg>
