<!-- Generated by IcoMoon.io -->
<svg version="1.1" xmlns="http://www.w3.org/2000/svg" width="32" height="32" viewBox="0 0 32 32">
<title>store-microsoft</title>
<path d="M15.333 12.667v4.667h-4.667v-4.667h4.667z"></path>
<path d="M15.333 23.333v-4.667h-4.667v4.667h4.667z"></path>
<path d="M21.333 12.667v4.667h-4.667v-4.667h4.667z"></path>
<path d="M21.333 23.333v-4.667h-4.667v4.667h4.667z"></path>
<path d="M10.667 8v-3c0-1.289 1.045-2.333 2.333-2.333h6c1.289 0 2.333 1.045 2.333 2.333v3h7c0.552 0 1 0.448 1 1v15.333c0 2.025-1.642 3.667-3.667 3.667h-19.333c-2.025 0-3.667-1.642-3.667-3.667v-15.333c0-0.552 0.448-1 1-1h7zM12.667 5v3h6.667v-3c0-0.184-0.149-0.333-0.333-0.333h-6c-0.184 0-0.333 0.149-0.333 0.333zM4.667 24.333c0 0.921 0.746 1.667 1.667 1.667h19.333c0.921 0 1.667-0.746 1.667-1.667v-14.333h-22.667v14.333z"></path>
</svg>
