<!-- Generated by IcoMoon.io -->
<svg version="1.1" xmlns="http://www.w3.org/2000/svg" width="32" height="32" viewBox="0 0 32 32">
<title>store-microsoft</title>
<path d="M15.333 12.667v4.667h-4.667v-4.667h4.667zM15.333 23.333v-4.667h-4.667v4.667h4.667zM21.333 12.667v4.667h-4.667v-4.667h4.667zM21.333 23.333v-4.667h-4.667v4.667h4.667zM10.667 8v-3c0-1.288 1.045-2.333 2.333-2.333h6c1.288 0 2.333 1.045 2.333 2.333v3h7c0.552 0 1 0.448 1 1v0 15.333c0 2.025-1.642 3.667-3.667 3.667v0h-19.333c-2.025 0-3.667-1.642-3.667-3.667v0-15.333c0-0.552 0.448-1 1-1v0h7zM12.667 5v3h6.667v-3c0-0.184-0.149-0.333-0.333-0.333v0h-6c-0.184 0-0.333 0.149-0.333 0.333v0zM4.667 24.333c0 0.92 0.747 1.667 1.667 1.667h19.333c0.92 0 1.667-0.747 1.667-1.667v-14.333h-22.667v14.333z"></path>
</svg>
