<!-- Generated by IcoMoon.io -->
<svg version="1.1" xmlns="http://www.w3.org/2000/svg" width="32" height="32" viewBox="0 0 32 32">
<title>stream-output-regular</title>
<path d="M25.834 3.434c0.145-0.145 0.345-0.235 0.566-0.235s0.422 0.090 0.566 0.235l4.781 4.784c0.156 0.146 0.254 0.353 0.254 0.583s-0.098 0.437-0.253 0.583l-0 0-4.781 4.782c-0.145 0.145-0.345 0.235-0.566 0.235-0.442 0-0.801-0.359-0.801-0.801 0-0.221 0.090-0.421 0.235-0.566l3.435-3.434h-7.669c-3.040 0-5.6 2.56-5.6 5.6v1.6c0 4-3.2 7.2-7.2 7.2h-4.8c-0.48 0-0.8-0.32-0.8-0.8s0.32-0.8 0.8-0.8h4.8c3.040 0 5.6-2.56 5.6-5.6v-1.6c0-4 3.2-7.2 7.2-7.2h7.669l-3.435-3.434c-0.145-0.145-0.235-0.345-0.235-0.566s0.090-0.422 0.235-0.566l0-0zM4 19.2h4c1.76 0 3.2-1.44 3.2-3.2v-1.6c0-5.28 4.32-9.6 9.6-9.6h0.8c0.48 0 0.8-0.32 0.8-0.8s-0.32-0.8-0.8-0.8h-0.8c-6.24 0-11.2 4.96-11.2 11.2v1.6c0 0.96-0.64 1.6-1.6 1.6h-4c-0.48 0-0.8 0.32-0.8 0.8s0.32 0.8 0.8 0.8zM24.16 12.8h-1.76c-1.76 0-3.2 1.44-3.2 3.2v1.6c0 5.28-4.32 9.6-9.6 9.6h-0.8c-0.48 0-0.8 0.32-0.8 0.8s0.32 0.8 0.8 0.8h0.8c6.24 0 11.2-4.96 11.2-11.2v-1.6c0-0.96 0.64-1.6 1.6-1.6h1.76c-0.16-0.48-0.16-1.12 0-1.6z"></path>
</svg>
