<!-- Generated by IcoMoon.io -->
<svg version="1.1" xmlns="http://www.w3.org/2000/svg" width="32" height="32" viewBox="0 0 32 32">
<title>stream-input</title>
<path d="M11.2 14.4c0-5.302 4.298-9.6 9.6-9.6v0h0.8c0.442 0 0.8-0.358 0.8-0.8s-0.358-0.8-0.8-0.8v0h-0.8c-6.186 0-11.2 5.014-11.2 11.2v0 1.6c0 0.884-0.716 1.6-1.6 1.6v0h-1.44l1.595 1.597c1.699-0.085 3.045-1.483 3.045-3.196 0-0 0-0 0-0.001v0-1.6zM0.8 22.4c-0.442 0-0.8 0.358-0.8 0.8s0.358 0.8 0.8 0.8v0h5.894l-3.435 3.434c-0.145 0.145-0.235 0.345-0.235 0.566 0 0.442 0.358 0.8 0.8 0.8 0.221 0 0.421-0.089 0.566-0.234v0l4.782-4.784c0.156-0.146 0.253-0.353 0.253-0.583s-0.097-0.437-0.253-0.583l-0-0-4.782-4.782c-0.145-0.145-0.345-0.234-0.566-0.234-0.442 0-0.8 0.358-0.8 0.8 0 0.221 0.090 0.422 0.235 0.566v0l3.435 3.434h-5.894zM16 16.8c-0 3.204-2.093 5.92-4.986 6.855l-0.051 0.014c0.024-0.141 0.037-0.303 0.037-0.469 0-0.417-0.085-0.814-0.24-1.175l0.007 0.020c2.14-0.82 3.632-2.858 3.632-5.244 0-0 0-0.001 0-0.001v0-1.6c0-3.976 3.224-7.2 7.2-7.2v0h6.4c0.442 0 0.8 0.358 0.8 0.8s-0.358 0.8-0.8 0.8v0h-6.4c-3.093 0-5.6 2.507-5.6 5.6v0 1.6zM22.4 14.4c-0.884 0-1.6 0.716-1.6 1.6v0 1.6c0 6.186-5.014 11.2-11.2 11.2v0h-0.8c-0.442 0-0.8-0.358-0.8-0.8s0.358-0.8 0.8-0.8v0h0.8c5.302 0 9.6-4.298 9.6-9.6v0-1.6c0-1.767 1.433-3.2 3.2-3.2v0h5.6c0.442 0 0.8 0.358 0.8 0.8s-0.358 0.8-0.8 0.8v0h-5.6z"></path>
</svg>
