<!-- Generated by IcoMoon.io -->
<svg version="1.1" xmlns="http://www.w3.org/2000/svg" width="32" height="32" viewBox="0 0 32 32">
<title>stream</title>
<path d="M12 14.667c0-5.523 4.477-10 10-10h0.126c0.552 0 1-0.448 1-1s-0.448-1-1-1h-0.126c-6.627 0-12 5.373-12 12v1.667c0 0.921-0.746 1.667-1.667 1.667h-4.667c-0.552 0-1 0.448-1 1s0.448 1 1 1h4.667c2.025 0 3.667-1.642 3.667-3.667v-1.667zM22.333 9.333c-3.13 0-5.667 2.537-5.667 5.667v2c0 4.234-3.432 7.667-7.667 7.667h-5.333c-0.552 0-1-0.448-1-1s0.448-1 1-1h5.333c3.13 0 5.667-2.537 5.667-5.667v-2c0-4.234 3.433-7.667 7.667-7.667h6c0.552 0 1 0.448 1 1s-0.448 1-1 1h-6zM23 14c-0.921 0-1.667 0.746-1.667 1.667v1.667c0 6.627-5.373 12-12 12h-0.333c-0.552 0-1-0.448-1-1s0.448-1 1-1h0.333c5.523 0 10-4.477 10-10v-1.667c0-2.025 1.642-3.667 3.667-3.667h5.333c0.552 0 1 0.448 1 1s-0.448 1-1 1h-5.333z"></path>
</svg>
