<!-- Generated by IcoMoon.io -->
<svg version="1.1" xmlns="http://www.w3.org/2000/svg" width="32" height="32" viewBox="0 0 32 32">
<title>stream-input-output</title>
<path d="M20.8 4.8c-5.302 0-9.6 4.298-9.6 9.6v0 1.6c0 1.767-1.433 3.2-3.2 3.2v0h-4c-0.442 0-0.8-0.358-0.8-0.8s0.358-0.8 0.8-0.8v0h4c0.884 0 1.6-0.716 1.6-1.6v0-1.6c0-6.186 5.014-11.2 11.2-11.2v0h0.8c0.442 0 0.8 0.358 0.8 0.8s-0.358 0.8-0.8 0.8v0h-0.8zM16 15.2c0-3.093 2.507-5.6 5.6-5.6v0h6.4c0.442 0 0.8-0.358 0.8-0.8s-0.358-0.8-0.8-0.8v0h-6.4c-3.976 0-7.2 3.224-7.2 7.2v0 1.6c0 3.093-2.507 5.6-5.6 5.6v0h-4.8c-0.442 0-0.8 0.358-0.8 0.8s0.358 0.8 0.8 0.8v0h4.8c3.976 0 7.2-3.224 7.2-7.2v0-1.6zM20.8 16c0-0.96 0.64-1.6 1.6-1.6h5.6c0.48 0 0.8-0.32 0.8-0.8s-0.32-0.8-0.8-0.8h-5.6c-1.76 0-3.2 1.44-3.2 3.2v1.6c0 1.44-0.32 2.72-0.8 3.84 0.48-0.32 0.96-0.64 1.6-0.64h0.32c0.32-0.96 0.48-2.080 0.48-3.2v-1.6zM20.566 29.059c0.145 0.145 0.234 0.345 0.234 0.566 0 0.442-0.358 0.8-0.8 0.8-0.221 0-0.422-0.090-0.566-0.235v0l-3.2-3.2c-0.145-0.145-0.234-0.345-0.234-0.566s0.090-0.421 0.234-0.566l3.2-3.2c0.145-0.145 0.345-0.235 0.566-0.235 0.442 0 0.8 0.358 0.8 0.8 0 0.221-0.089 0.421-0.234 0.566v0l-1.835 1.835h8.938l-1.835-1.835c-0.145-0.145-0.234-0.345-0.234-0.566 0-0.442 0.358-0.8 0.8-0.8 0.221 0 0.421 0.090 0.566 0.235v0l3.2 3.2c0.145 0.145 0.234 0.345 0.234 0.566s-0.090 0.421-0.234 0.566l-3.2 3.2c-0.145 0.145-0.345 0.235-0.566 0.235-0.442 0-0.8-0.358-0.8-0.8 0-0.221 0.089-0.421 0.234-0.566v0l1.835-1.834h-8.938l1.835 1.834z"></path>
</svg>
