<!-- Generated by IcoMoon.io -->
<svg version="1.1" xmlns="http://www.w3.org/2000/svg" width="32" height="32" viewBox="0 0 32 32">
<title>strikethrough-ga-na</title>
<path d="M12.667 27v-9h-3.427c-1.195 1.615-2.966 2.938-5.418 3.321-0.546 0.085-1.057-0.288-1.142-0.834s0.288-1.057 0.834-1.142c1.21-0.189 2.202-0.675 3.006-1.345h-4.185c-0.552 0-1-0.448-1-1s0.448-1 1-1h27.333c0.552 0 1 0.448 1 1s-0.448 1-1 1h-1v9c0 0.552-0.448 1-1 1s-1-0.448-1-1v-9h-7.068l-0.134 1.201 4.758-0.529c0.549-0.061 1.043 0.335 1.104 0.883s-0.335 1.043-0.883 1.104l-6 0.667c-0.302 0.034-0.603-0.072-0.817-0.287s-0.32-0.516-0.287-0.817l0.247-2.223h-2.92v9c0 0.552-0.448 1-1 1s-1-0.448-1-1zM28.667 14.667v-8.333c0-0.552-0.448-1-1-1s-1 0.448-1 1v8.333h2zM19.969 14.667l0.691-6.223c0.061-0.549-0.335-1.043-0.883-1.104s-1.043 0.335-1.104 0.883l-0.716 6.444h2.012zM14.667 14.667v-8.333c0-0.552-0.448-1-1-1s-1 0.448-1 1v8.333h2zM10.876 14.667c0.314-1.058 0.458-2.098 0.458-3 0-0.552-0.448-1-1-1h-6.667c-0.552 0-1 0.448-1 1s0.448 1 1 1h5.598c-0.084 0.634-0.245 1.319-0.495 2h2.106z"></path>
</svg>
