<!-- Generated by IcoMoon.io -->
<svg version="1.1" xmlns="http://www.w3.org/2000/svg" width="32" height="32" viewBox="0 0 32 32">
<title>style-guide</title>
<path d="M18.715 3.703c1.956-0.524 3.967 0.637 4.491 2.593l3.623 13.523c0.524 1.956-0.637 3.967-2.593 4.491l-8.371 2.243c-1.956 0.524-3.967-0.637-4.491-2.593l-3.623-13.523c-0.524-1.956 0.637-3.967 2.593-4.491l8.371-2.243zM7.737 15.544l2.349 8.761c0.241 0.901 0.714 1.677 1.336 2.284l-0.59-0.032c-2.022-0.106-3.576-1.831-3.47-3.853l0.375-7.16zM19.232 5.635l-8.371 2.243c-0.889 0.238-1.417 1.152-1.178 2.041l3.623 13.523c0.238 0.889 1.152 1.417 2.041 1.178l8.371-2.243c0.889-0.238 1.417-1.152 1.179-2.041l-3.623-13.523c-0.238-0.889-1.152-1.417-2.041-1.178zM6.505 13.573l-0.474 9.061c-0.049 0.932 0.161 1.817 0.566 2.587l-0.553-0.214c-1.891-0.726-2.835-2.847-2.109-4.737l2.57-6.696zM12.989 9.379c0.711-0.191 1.442 0.232 1.633 0.943s-0.231 1.442-0.943 1.633c-0.711 0.191-1.442-0.232-1.633-0.943s0.232-1.442 0.943-1.633z"></path>
</svg>
