<!-- Generated by IcoMoon.io -->
<svg version="1.1" xmlns="http://www.w3.org/2000/svg" width="32" height="32" viewBox="0 0 32 32">
<title>sub-grid</title>
<path d="M8.333 4c-2.393 0-4.333 1.94-4.333 4.333v0 15.333c0 2.393 1.94 4.333 4.333 4.333v0h15.333c2.393 0 4.333-1.94 4.333-4.333v0-15.333c0-2.393-1.94-4.333-4.333-4.333v0h-15.333zM6 8.333c0-1.288 1.045-2.333 2.333-2.333h6.667v3.333h-2c-2.025 0-3.667 1.642-3.667 3.667v0 2h-3.333v-6.667zM9.333 17v2c0 2.025 1.642 3.667 3.667 3.667v0h2v3.333h-6.667c-1.289 0-2.333-1.045-2.333-2.333v0-6.667h3.333zM15 20.667h-2c-0.92 0-1.667-0.747-1.667-1.667v-2h3.667v3.667zM17 22.667h2c2.025 0 3.667-1.642 3.667-3.667v0-2h3.333v6.667c0 1.289-1.045 2.333-2.333 2.333v0h-6.667v-3.333zM20.667 17v2c0 0.92-0.747 1.667-1.667 1.667h-2v-3.667h3.667zM22.667 15v-2c0-2.025-1.642-3.667-3.667-3.667v0h-2v-3.333h6.667c1.288 0 2.333 1.045 2.333 2.333v6.667h-3.333zM17 11.333h2c0.92 0 1.667 0.747 1.667 1.667v2h-3.667v-3.667zM15 11.333v3.667h-3.667v-2c0-0.92 0.747-1.667 1.667-1.667h2z"></path>
</svg>
