<!-- Generated by IcoMoon.io -->
<svg version="1.1" xmlns="http://www.w3.org/2000/svg" width="32" height="32" viewBox="0 0 32 32">
<title>subtract-circle-arrow-forward-regular</title>
<path d="M8.8 13.6c-0.442 0-0.8 0.358-0.8 0.8s0.358 0.8 0.8 0.8v0h10.73c0.381-0.176 0.778-0.325 1.187-0.445 0.052-0.104 0.083-0.226 0.083-0.355 0-0.442-0.358-0.8-0.8-0.8h-11.2zM25.595 14.73c0.003-0.099 0.005-0.215 0.005-0.331 0-6.186-5.014-11.2-11.2-11.2s-11.2 5.014-11.2 11.2c0 6.186 5.014 11.2 11.2 11.2 0.116 0 0.232-0.002 0.348-0.005l-0.017 0c0.154 0.549 0.358 1.074 0.611 1.573-0.282 0.022-0.61 0.035-0.941 0.035-7.069 0-12.8-5.731-12.8-12.8s5.731-12.8 12.8-12.8c7.069 0 12.8 5.731 12.8 12.8 0 0.331-0.013 0.66-0.037 0.985l0.003-0.043c-0.445-0.231-0.966-0.44-1.509-0.597l-0.062-0.015zM16 23.2c0 3.976 3.224 7.2 7.2 7.2s7.2-3.224 7.2-7.2v0c0-3.976-3.224-7.2-7.2-7.2s-7.2 3.224-7.2 7.2v0zM24.634 19.034c0.145-0.145 0.345-0.235 0.566-0.235s0.422 0.090 0.566 0.235l2.8 2.8c0.145 0.145 0.234 0.345 0.234 0.566 0 0.219-0.088 0.418-0.231 0.562l-2.803 2.805c-0.145 0.145-0.345 0.235-0.566 0.235-0.442 0-0.801-0.359-0.801-0.801 0-0.221 0.090-0.421 0.235-0.566v0l1.435-1.434h-2.469c-1.546 0-2.8 1.254-2.8 2.8v0 0.4c0 0.442-0.358 0.8-0.8 0.8s-0.8-0.358-0.8-0.8v0-0.4c0-2.43 1.97-4.4 4.4-4.4v0h2.469l-1.435-1.434c-0.145-0.145-0.235-0.345-0.235-0.566s0.090-0.422 0.235-0.566l0-0z"></path>
</svg>
