<!-- Generated by IcoMoon.io -->
<svg version="1.1" xmlns="http://www.w3.org/2000/svg" width="32" height="32" viewBox="0 0 32 32">
<title>surface-hub-regular</title>
<path d="M25.667 2.667c0 0 0 0 0 0 0.541 0 0.982 0.43 1 0.968l0 0.002-0.005 0.136-1.333 12.667c-0.050 0.458-0.403 0.821-0.852 0.885l-0.005 0.001-0.137 0.009h-0.972l1.956 10.824 0.015 0.136c0 0.012 0.001 0.026 0.001 0.040 0 0.552-0.448 1-1 1-0.441 0-0.815-0.285-0.948-0.681l-0.002-0.007-0.033-0.133-0.816-4.512h-3.729l-0.809 4.512c-0.085 0.473-0.494 0.828-0.985 0.828-0.552 0-1-0.448-1-1 0-0.016 0-0.033 0.001-0.049l-0 0.002 0.015-0.135 0.747-4.159h-5.968l-0.809 4.512c-0.085 0.473-0.494 0.828-0.985 0.828-0.552 0-1-0.448-1-1 0-0.016 0-0.033 0.001-0.049l-0 0.002 0.015-0.135 1.945-10.825h-3.637c-0 0-0 0-0 0-0.542 0-0.982-0.43-1-0.968l-0-0.002 0.005-0.135 1.333-12.667c0.049-0.459 0.402-0.822 0.852-0.886l0.005-0.001 0.137-0.009h18zM17.971 17.333h-5.968l-0.839 4.667h5.968l0.839-4.667zM21.328 17.333h-1.325l-0.839 4.667h3.007l-0.843-4.667zM24.555 4.667h-15.988l-1.123 10.667h15.991l1.123-10.667z"></path>
</svg>
