<!-- Generated by IcoMoon.io -->
<svg version="1.1" xmlns="http://www.w3.org/2000/svg" width="32" height="32" viewBox="0 0 32 32">
<title>surface-earbuds-regular</title>
<path d="M22.667 13.333c4.416 0.003 7.995 3.584 7.995 8 0 4.418-3.582 8-8 8-0.798 0-1.569-0.117-2.297-0.335l0.057 0.015c-0.192 0.093-0.387 0.176-0.579 0.241l-0.279 0.087-3.485 1.157c-0.344 0.118-0.741 0.186-1.154 0.186-1.216 0-2.294-0.592-2.961-1.504l-0.007-0.010-0.135-0.197-0.573-0.912c-0.354-0.554-0.565-1.23-0.565-1.955 0-0.87 0.303-1.67 0.81-2.299l-0.005 0.007 0.169-0.197 2.627-2.841c0.14-0.152 0.285-0.293 0.436-0.427l0.006-0.006c0.51-3.972 3.87-7.010 7.94-7.011h0zM14.861 23.097l-1.736 1.877c-0.275 0.296-0.443 0.694-0.443 1.132 0 0.264 0.061 0.513 0.17 0.735l-0.004-0.010 0.091 0.164 0.575 0.911c0.377 0.6 1.087 0.888 1.767 0.74l0.168-0.047 2.477-0.821c-1.52-1.127-2.617-2.75-3.053-4.626l-0.011-0.054zM22.667 15.333c-0 0-0.001 0-0.002 0-2.447 0-4.552 1.464-5.486 3.564l-0.015 0.038-0.085 0.209-0.112 0.312-0.096 0.32c-0.058 0.203-0.11 0.454-0.146 0.71l-0.004 0.031-0.040 0.381c-0.009 0.127-0.015 0.275-0.015 0.424 0 0.003 0 0.007 0 0.010v-0.001l0.007 0.283c0.112 2.303 1.506 4.256 3.48 5.169l0.037 0.015 0.003-0.001c0.208 0.096 0.424 0.179 0.645 0.251l0.123 0.036 0.2 0.057c0.157 0.040 0.317 0.075 0.48 0.104l0.245 0.036c0.2 0.027 0.434 0.045 0.672 0.049l0.108 0.001c3.314 0 6-2.686 6-6s-2.686-6-6-6v0zM9.333 1.333c1.004 0 1.965 0.185 2.852 0.523l1.063-0.34c0.334-0.111 0.719-0.175 1.119-0.175 1.083 0 2.057 0.47 2.728 1.217l0.003 0.003 0.164 0.196 0.177 0.251 0.7 1.073c0.37 0.564 0.59 1.255 0.59 1.997 0 0.793-0.251 1.526-0.678 2.126l0.008-0.011-0.16 0.215-0.181 0.205-0.391 0.411 0.005 0.309c0 4.418-3.582 8-8 8s-8-3.582-8-8c0-4.418 3.582-8 8-8v0zM7.64 3.576l-0.203 0.063c-2.401 0.822-4.097 3.059-4.097 5.692 0 3.312 2.682 5.997 5.992 6.003h0.001c2.51-0 4.66-1.541 5.556-3.728l0.014-0.040c-0.333 0.35-0.706 0.657-1.114 0.914l-0.024 0.014c-2.557 1.596-5.947 0.872-7.573-1.629-1.58-2.427-0.917-5.628 1.447-7.288zM14.043 3.373l-0.184 0.048-3.937 1.26c-0.367 0.1-0.688 0.244-0.98 0.429l0.015-0.009c-1.627 1.015-2.107 3.103-1.087 4.672 1.031 1.583 3.2 2.045 4.84 1.024 0.204-0.128 0.396-0.276 0.573-0.443l0.175-0.173 2.787-2.917 0.124-0.14c0.228-0.283 0.366-0.646 0.366-1.042 0-0.275-0.067-0.535-0.185-0.763l0.004 0.009-0.089-0.155-0.676-1.040-0.112-0.156-0.107-0.124c-0.304-0.316-0.73-0.512-1.202-0.512-0.049 0-0.097 0.002-0.144 0.006l0.006-0-0.187 0.027zM14.573 4.912l0.091 0.116 0.333 0.499c0.106 0.156 0.169 0.349 0.169 0.557 0 0.552-0.448 1-1 1-0.293 0-0.556-0.126-0.739-0.326l-0.001-0.001-0.091-0.117-0.333-0.497c-0.106-0.156-0.169-0.349-0.169-0.557 0-0.552 0.448-1 1-1 0.293 0 0.556 0.126 0.739 0.326l0.001 0.001z"></path>
</svg>
