<!-- Generated by IcoMoon.io -->
<svg version="1.1" xmlns="http://www.w3.org/2000/svg" width="32" height="32" viewBox="0 0 32 32">
<title>surface-earbuds</title>
<path d="M22.667 13.333c4.418 0 8 3.582 8 8s-3.582 8-8 8c-0.78 0-1.533-0.111-2.245-0.319-0.192 0.094-0.386 0.175-0.578 0.241l-0.279 0.086-3.485 1.157c-1.525 0.506-3.191-0.041-4.123-1.327l-0.134-0.198-0.574-0.911c-0.838-1.33-0.731-3.035 0.24-4.247l0.17-0.197 2.628-2.842c0.139-0.152 0.287-0.296 0.441-0.432 0.488-3.951 3.857-7.010 7.94-7.010zM14.862 23.098l-1.736 1.877c-0.469 0.507-0.573 1.246-0.277 1.857l0.091 0.163 0.574 0.911c0.377 0.599 1.087 0.889 1.766 0.74l0.169-0.047 2.477-0.822c-1.523-1.123-2.635-2.772-3.064-4.68zM22.667 15.333c-2.462 0-4.577 1.482-5.502 3.603l-0.085 0.209-0.113 0.312-0.096 0.32c-0.065 0.241-0.115 0.489-0.149 0.741l-0.040 0.382c-0.010 0.143-0.015 0.287-0.015 0.433l0.007 0.282c0.107 2.31 1.52 4.278 3.517 5.184l0.002-0.002c0.209 0.096 0.425 0.179 0.646 0.25l0.122 0.036 0.2 0.057c0.158 0.041 0.318 0.075 0.48 0.104l0.245 0.037c0.113 0.015 0.227 0.026 0.343 0.035 0.111 0.008 0.222 0.013 0.334 0.015l0.103 0.001c3.314 0 6-2.686 6-6s-2.686-6-6-6zM9.333 1.333c1.004 0 1.966 0.185 2.851 0.523l1.063-0.34c1.387-0.445 2.895-0.024 3.852 1.045l0.163 0.196 0.178 0.25 0.699 1.074c0.817 1.256 0.783 2.871-0.079 4.112l-0.161 0.215-0.18 0.205-0.392 0.411 0.006 0.31c0 4.418-3.582 8-8 8s-8-3.582-8-8c0-4.418 3.582-8 8-8zM7.64 3.575l-0.203 0.064c-2.384 0.794-4.104 3.043-4.104 5.694 0 3.314 2.686 6 6 6 2.525 0 4.686-1.56 5.571-3.769-0.339 0.356-0.719 0.668-1.137 0.929-2.558 1.595-5.946 0.871-7.574-1.629-1.58-2.428-0.917-5.629 1.446-7.289zM14.043 3.373l-0.185 0.048-3.937 1.26c-0.338 0.091-0.663 0.232-0.966 0.421-1.627 1.014-2.107 3.103-1.086 4.672 1.030 1.582 3.2 2.046 4.84 1.023 0.204-0.127 0.396-0.275 0.574-0.442l0.174-0.173 2.786-2.918 0.124-0.14c0.411-0.513 0.48-1.217 0.185-1.797l-0.089-0.155-0.676-1.040-0.111-0.156-0.106-0.124c-0.349-0.364-0.843-0.548-1.34-0.507l-0.186 0.026zM14.573 4.911l0.091 0.117 0.333 0.498c0.307 0.459 0.184 1.080-0.275 1.387-0.417 0.279-0.968 0.203-1.296-0.158l-0.091-0.117-0.333-0.498c-0.307-0.459-0.184-1.080 0.275-1.387 0.417-0.279 0.968-0.203 1.296 0.158z"></path>
</svg>
