<!-- Generated by IcoMoon.io -->
<svg version="1.1" xmlns="http://www.w3.org/2000/svg" width="32" height="32" viewBox="0 0 32 32">
<title>swimming-pool-regular</title>
<path d="M6 7.167c0-1.197 0.97-2.167 2.167-2.167s2.167 0.97 2.167 2.167v0 8.935c0.533 0.050 1.089 0.136 1.667 0.265v-2.366h10.333v5.372c0.604-0.020 1.178-0.083 1.737-0.187l-0.071 0.011v-12.029c0-2.117-1.716-3.833-3.833-3.833s-3.833 1.716-3.833 3.833v0 0.667c0 0.46 0.373 0.833 0.833 0.833s0.833-0.373 0.833-0.833v0-0.667c0-1.197 0.97-2.167 2.167-2.167s2.167 0.97 2.167 2.167v0 5.167h-10.333v-5.167c0-2.117-1.716-3.833-3.833-3.833s-3.833 1.716-3.833 3.833v0 0.667c0 0.46 0.373 0.833 0.833 0.833s0.833-0.373 0.833-0.833v0-0.667zM14.703 20.502c-6.32-3.244-9.817-0.237-9.976-0.1l-0.001 0.001c-0.34 0.305-0.867 0.279-1.173-0.060-0.134-0.146-0.216-0.342-0.216-0.557 0-0.241 0.104-0.458 0.269-0.609l0.001-0.001c0.18-0.167 4.459-3.961 11.871-0.153 6.619 3.403 11.724 0.505 11.937 0.379 0.393-0.233 0.907-0.1 1.14 0.292s0.107 0.902-0.293 1.134c-0.153 0.093-2.6 1.506-6.292 1.506-2.558-0.069-4.981-0.655-7.265-1.831zM4.727 26.402c0.159-0.137 3.657-3.144 9.976 0.1 2.284 1.176 4.707 1.763 7.265 1.831 3.692 0 6.138-1.413 6.291-1.506 0.4-0.232 0.527-0.743 0.293-1.135-0.149-0.245-0.415-0.406-0.718-0.406-0.156 0-0.301 0.043-0.426 0.117l0.004-0.002c-0.213 0.126-5.318 3.025-11.937-0.378-7.411-3.808-11.69-0.013-11.87 0.152-0.166 0.152-0.27 0.369-0.27 0.611 0 0.215 0.082 0.411 0.217 0.558l-0.001-0.001c0.307 0.338 0.833 0.365 1.173 0.060v-0.001z"></path>
</svg>
