<!-- Generated by IcoMoon.io -->
<svg version="1.1" xmlns="http://www.w3.org/2000/svg" width="32" height="32" viewBox="0 0 32 32">
<title>swipe-right</title>
<path d="M7.996 16c0 0.507 0.376 0.925 0.863 0.991l0.136 0.009h16.925l-2.955 2.96c-0.181 0.181-0.293 0.431-0.293 0.707 0 0.224 0.073 0.43 0.198 0.597l-0.002-0.003 0.097 0.112c0.355 0.356 0.909 0.387 1.3 0.097l0.112-0.097 4.663-4.667c0.181-0.181 0.293-0.431 0.293-0.707 0-0.224-0.073-0.43-0.198-0.597l0.002 0.003-0.097-0.112-4.663-4.667c-0.181-0.184-0.433-0.297-0.711-0.297-0.552 0-0.999 0.447-0.999 0.999 0 0.226 0.075 0.435 0.202 0.603l-0.002-0.002 0.097 0.112 2.955 2.96h-16.925c-0.552 0-1 0.448-1 1v0zM2.667 16c0 3.681 2.983 6.667 6.661 6.667 2.842-0.001 5.268-1.782 6.225-4.288l0.015-0.046h-2.201c-0.823 1.4-2.321 2.325-4.036 2.325-2.574 0-4.662-2.085-4.665-4.658v-0c0.004-2.574 2.091-4.659 4.665-4.659 1.715 0 3.213 0.925 4.024 2.303l0.012 0.022h2.203c-0.972-2.552-3.399-4.333-6.241-4.333h-0c-3.679 0.002-6.661 2.985-6.661 6.664 0 0.001 0 0.002 0 0.003v-0z"></path>
</svg>
