<!-- Generated by IcoMoon.io -->
<svg version="1.1" xmlns="http://www.w3.org/2000/svg" width="32" height="32" viewBox="0 0 32 32">
<title>swipe-right</title>
<path d="M7.996 16c0 0.506 0.376 0.925 0.864 0.991l0.136 0.009h16.926l-2.955 2.96c-0.355 0.355-0.387 0.911-0.097 1.302l0.097 0.112c0.355 0.355 0.91 0.387 1.301 0.097l0.112-0.097 4.663-4.667c0.355-0.355 0.387-0.911 0.097-1.302l-0.097-0.112-4.663-4.667c-0.39-0.391-1.023-0.391-1.413 0-0.355 0.355-0.387 0.911-0.097 1.302l0.097 0.112 2.955 2.96h-16.926c-0.552 0-0.999 0.448-0.999 1zM2.667 16c0 3.682 2.982 6.667 6.661 6.667 2.858 0 5.296-1.802 6.241-4.332l-2.203-0c-0.806 1.394-2.313 2.332-4.038 2.332-2.575 0-4.663-2.089-4.663-4.667s2.088-4.667 4.663-4.667c1.726 0 3.233 0.939 4.039 2.334l2.203-0c-0.945-2.531-3.383-4.333-6.242-4.333-3.679 0-6.661 2.985-6.661 6.667z"></path>
</svg>
