<!-- Generated by IcoMoon.io -->
<svg version="1.1" xmlns="http://www.w3.org/2000/svg" width="32" height="32" viewBox="0 0 32 32">
<title>swipe-down</title>
<path d="M16 7.996c0.506 0 0.925 0.376 0.991 0.864l0.009 0.136v16.926l2.96-2.955c0.355-0.355 0.911-0.387 1.302-0.097l0.112 0.097c0.355 0.355 0.387 0.91 0.097 1.301l-0.097 0.112-4.667 4.663c-0.355 0.355-0.911 0.387-1.302 0.097l-0.112-0.097-4.667-4.663c-0.391-0.39-0.391-1.023 0-1.413 0.355-0.355 0.911-0.387 1.302-0.097l0.112 0.097 2.96 2.955v-16.926c0-0.552 0.448-0.999 1-0.999zM16 2.667c3.682 0 6.667 2.982 6.667 6.661 0 2.858-1.802 5.296-4.332 6.241l-0-2.203c1.394-0.806 2.332-2.313 2.332-4.038 0-2.575-2.089-4.663-4.667-4.663s-4.667 2.088-4.667 4.663c0 1.726 0.939 3.233 2.334 4.039l-0 2.203c-2.531-0.945-4.333-3.383-4.333-6.242 0-3.679 2.985-6.661 6.667-6.661z"></path>
</svg>
