<!-- Generated by IcoMoon.io -->
<svg version="1.1" xmlns="http://www.w3.org/2000/svg" width="32" height="32" viewBox="0 0 32 32">
<title>sync-off-regular</title>
<path d="M3.2 16c0-7.069 5.731-12.8 12.8-12.8s12.8 5.731 12.8 12.8v0c0 7.069-5.731 12.8-12.8 12.8s-12.8-5.731-12.8-12.8v0zM16 4.8c-0 0-0 0-0 0-5.622 0-10.276 4.141-11.080 9.539l-0.008 0.061h8.314l1.205-4.221c0.099-0.338 0.406-0.58 0.77-0.58 0.442 0 0.8 0.358 0.8 0.8 0 0.078-0.011 0.154-0.032 0.226l0.001-0.006-3.2 11.2c-0.099 0.338-0.406 0.58-0.77 0.58-0.442 0-0.8-0.358-0.8-0.8 0-0.078 0.011-0.154 0.032-0.226l-0.001 0.006 1.538-5.379h-7.968c0 6.186 5.014 11.2 11.2 11.2s11.2-5.014 11.2-11.2v0h-7.968l-1.664 5.819c-0.085 0.358-0.401 0.62-0.78 0.62-0.442 0-0.8-0.358-0.8-0.8 0-0.093 0.016-0.183 0.045-0.266l-0.002 0.006 3.2-11.2c0.085-0.358 0.401-0.62 0.78-0.62 0.442 0 0.8 0.358 0.8 0.8 0 0.093-0.016 0.183-0.045 0.266l0.002-0.006-1.077 3.781h7.397c-0.811-5.459-5.465-9.6-11.086-9.6-0.001 0-0.001 0-0.002 0h0z"></path>
</svg>
