<!-- Generated by IcoMoon.io -->
<svg version="1.1" xmlns="http://www.w3.org/2000/svg" width="32" height="32" viewBox="0 0 32 32">
<title>system</title>
<path d="M6.333 6.667h19.333c2.025 0 3.667 1.642 3.667 3.667v11.333c0 2.025-1.642 3.667-3.667 3.667h-19.333c-2.025 0-3.667-1.642-3.667-3.667v-11.333c0-2.025 1.642-3.667 3.667-3.667zM6.333 8.667c-0.92 0-1.667 0.746-1.667 1.667v11.333c0 0.921 0.746 1.667 1.667 1.667h19.333c0.921 0 1.667-0.746 1.667-1.667v-11.333c0-0.921-0.746-1.667-1.667-1.667h-19.333z"></path>
</svg>
