<!-- Generated by IcoMoon.io -->
<svg version="1.1" xmlns="http://www.w3.org/2000/svg" width="32" height="32" viewBox="0 0 32 32">
<title>tab-inprivate-account</title>
<path d="M4 7.667c0-2.025 1.642-3.667 3.667-3.667h16.667c2.025 0 3.667 1.642 3.667 3.667v6.139c-0.543-0.616-1.227-1.105-2-1.418v-4.721c0-0.92-0.746-1.667-1.667-1.667h-16.667c-0.92 0-1.667 0.746-1.667 1.667v16.667c0 0.921 0.746 1.667 1.667 1.667h8.338c0.030 0.714 0.201 1.385 0.49 2h-8.829c-2.025 0-3.667-1.642-3.667-3.667v-16.667z"></path>
<path d="M24 19.333c-1.105 0-2-0.895-2-2s0.895-2 2-2v0.667h3.772c-0.176-0.497-0.447-0.949-0.791-1.333h-2.981v-1.333c-2.209 0-4 1.791-4 4s1.791 4 4 4c1.185 0 2.249-0.515 2.981-1.333h-2.981v-0.667z"></path>
<path d="M19.917 22.667c-0.775 0-1.425 0.376-1.86 0.846-0.432 0.466-0.723 1.098-0.723 1.746v0.512c0 2.615 2.722 4.896 6.667 4.896v-1.333h4.63c0.545-0.384 0.993-0.836 1.33-1.333h-5.96v0.667c-3.372 0-4.667-1.851-4.667-2.896v-0.512c0-0.062 0.041-0.225 0.191-0.387 0.142-0.154 0.29-0.205 0.393-0.205h4.083v-0.667h6.306c-0.104-0.176-0.226-0.34-0.363-0.487-0.435-0.47-1.085-0.846-1.86-0.846h-8.167z"></path>
<path d="M24 18.667v-1.333h4c0 0.467-0.080 0.916-0.228 1.333h-3.772z"></path>
<path d="M30.559 26.667h-6.559v-1.333h6.667v0.437c0 0.304-0.037 0.604-0.108 0.896z"></path>
</svg>
