<!-- Generated by IcoMoon.io -->
<svg version="1.1" xmlns="http://www.w3.org/2000/svg" width="32" height="32" viewBox="0 0 32 32">
<title>tab-desktop-arrow-clockwise-regular</title>
<path d="M7.667 4c-2.025 0-3.667 1.642-3.667 3.667v0 7.135c0.581-0.593 1.238-1.108 1.956-1.529l0.044-0.024v-5.581c0-0.92 0.747-1.667 1.667-1.667h7v1.667c0 1.657 1.343 3 3 3v0h8.333v13.667c0 0.92-0.747 1.667-1.667 1.667h-5.583c-0.445 0.762-0.959 1.419-1.549 1.999l-0.001 0.001h7.135c2.024-0.001 3.665-1.642 3.665-3.667v0-16.667c0-2.025-1.642-3.667-3.667-3.667v0h-16.667zM26 8.667h-8.333c-0.552 0-1-0.448-1-1v0-1.667h7.667c0.92 0 1.667 0.747 1.667 1.667v1zM16.333 13c0.552 0 1 0.448 1 1v0 3.667c0 0.552-0.448 1-1 1v0h-3.667c-0.552 0-1-0.448-1-1s0.448-1 1-1v0h1.773c-1.017-0.83-2.33-1.333-3.761-1.333-0.004 0-0.009 0-0.013 0h0.001c-3.314 0-6 2.686-6 6s2.686 6 6 6c3.314 0 6-2.686 6-6v0c0-0.552 0.448-1 1-1s1 0.448 1 1v0c-0 4.418-3.582 7.999-8 7.999s-8-3.582-8-8 3.582-8 8-8c1.752 0 3.372 0.563 4.69 1.518l-0.023-0.016v-0.835c0-0.552 0.448-1 1-1v0z"></path>
</svg>
