<!-- Generated by IcoMoon.io -->
<svg version="1.1" xmlns="http://www.w3.org/2000/svg" width="32" height="32" viewBox="0 0 32 32">
<title>tab-add</title>
<path d="M4 7.667c0-2.025 1.642-3.667 3.667-3.667v0h16.667c2.025 0 3.667 1.642 3.667 3.667v0 8.363c-0.575-0.375-1.237-0.695-1.939-0.928l-0.061-0.018v-7.417c0-0.92-0.747-1.667-1.667-1.667h-16.667c-0.92 0-1.667 0.747-1.667 1.667v16.667c0 0.92 0.747 1.667 1.667 1.667h7.417c0.231 0.712 0.549 1.383 0.945 2h-8.363c-2.025 0-3.667-1.642-3.667-3.667v0-16.667zM30.667 23.333c0-4.050-3.283-7.333-7.333-7.333s-7.333 3.283-7.333 7.333v0c0 4.050 3.283 7.333 7.333 7.333s7.333-3.283 7.333-7.333v0zM24 24l0.001 3.337c0 0.368-0.298 0.667-0.667 0.667s-0.667-0.298-0.667-0.667v0-3.337h-3.34c-0.368 0-0.667-0.298-0.667-0.667s0.298-0.667 0.667-0.667v0h3.339v-3.333c0-0.368 0.298-0.667 0.667-0.667s0.667 0.298 0.667 0.667v0 3.333h3.329c0.368 0 0.667 0.298 0.667 0.667s-0.298 0.667-0.667 0.667v0h-3.329z"></path>
</svg>
