<!-- Generated by IcoMoon.io -->
<svg version="1.1" xmlns="http://www.w3.org/2000/svg" width="32" height="32" viewBox="0 0 32 32">
<title>tab-desktop-arrow-clockwise</title>
<path d="M7.667 4c-2.025 0-3.667 1.642-3.667 3.667v7.135c0.591-0.603 1.264-1.127 2-1.553v-5.582c0-0.92 0.746-1.667 1.667-1.667h7v1.667c0 1.657 1.343 3 3 3h8.333v13.667c0 0.921-0.746 1.667-1.667 1.667h-5.582c-0.426 0.736-0.949 1.409-1.553 2h7.135c2.025 0 3.667-1.642 3.667-3.667v-16.667c0-2.025-1.642-3.667-3.667-3.667h-16.667zM26 8.667h-8.333c-0.552 0-1-0.448-1-1v-1.667h7.667c0.921 0 1.667 0.746 1.667 1.667v1z"></path>
<path d="M16.333 13c0.552 0 1 0.448 1 1v3.667c0 0.552-0.448 1-1 1h-3.667c-0.552 0-1-0.448-1-1s0.448-1 1-1h1.772c-0.008-0.006-0.015-0.012-0.023-0.018-1.027-0.824-2.33-1.316-3.749-1.316-3.314 0-6 2.686-6 6s2.686 6 6 6c3.314 0 6-2.686 6-6 0-0.552 0.448-1 1-1s1 0.448 1 1c0 4.418-3.582 8-8 8s-8-3.582-8-8c0-4.418 3.582-8 8-8 1.74 0 3.353 0.557 4.667 1.501v-0.835c0-0.552 0.448-1 1-1z"></path>
</svg>
