<!-- Generated by IcoMoon.io -->
<svg version="1.1" xmlns="http://www.w3.org/2000/svg" width="32" height="32" viewBox="0 0 32 32">
<title>tab-desktop-image</title>
<path d="M7.667 4c-2.025 0-3.667 1.642-3.667 3.667v6.243c0.604-0.319 1.281-0.518 2-0.566v-5.678c0-0.92 0.746-1.667 1.667-1.667h7v1.667c0 1.657 1.343 3 3 3h8.333v13.667c0 0.921-0.746 1.667-1.667 1.667h-5.678c-0.047 0.719-0.247 1.396-0.566 2h6.243c2.025 0 3.667-1.642 3.667-3.667v-16.667c0-2.025-1.642-3.667-3.667-3.667h-16.667zM26 8.667h-8.333c-0.552 0-1-0.448-1-1v-1.667h7.667c0.921 0 1.667 0.746 1.667 1.667v1z"></path>
<path d="M12.667 20.667c0.736 0 1.333-0.597 1.333-1.333s-0.597-1.333-1.333-1.333c-0.736 0-1.333 0.597-1.333 1.333s0.597 1.333 1.333 1.333z"></path>
<path d="M7 14.667c-2.393 0-4.333 1.94-4.333 4.333v6c0 2.393 1.94 4.333 4.333 4.333h6c2.393 0 4.333-1.94 4.333-4.333v-6c0-2.393-1.94-4.333-4.333-4.333h-6zM4.667 19c0-1.289 1.045-2.333 2.333-2.333h6c1.289 0 2.333 1.045 2.333 2.333v6c0 0.275-0.048 0.539-0.135 0.784l-3.077-3.077c-1.172-1.171-3.071-1.171-4.243 0l-3.077 3.077c-0.087-0.245-0.135-0.509-0.135-0.784v-6zM10.707 24.121l3.077 3.077c-0.245 0.087-0.509 0.135-0.784 0.135h-6c-0.275 0-0.539-0.048-0.784-0.135l3.077-3.077c0.391-0.391 1.024-0.391 1.414 0z"></path>
</svg>
