<!-- Generated by IcoMoon.io -->
<svg version="1.1" xmlns="http://www.w3.org/2000/svg" width="32" height="32" viewBox="0 0 32 32">
<title>tab-inprivate-account-regular</title>
<path d="M4 7.667c0-2.025 1.642-3.667 3.667-3.667v0h16.667c2.025 0 3.667 1.642 3.667 3.667v0 6.139c-0.539-0.609-1.208-1.091-1.965-1.404l-0.035-0.013v-4.721c0-0.92-0.747-1.667-1.667-1.667h-16.667c-0.92 0-1.667 0.747-1.667 1.667v16.667c0 0.92 0.747 1.667 1.667 1.667h8.339c0.029 0.715 0.2 1.385 0.489 2h-8.828c-2.025 0-3.667-1.642-3.667-3.667v0-16.667zM24 19.333c-1.105 0-2-0.895-2-2s0.895-2 2-2v0 0.667h3.773c-0.186-0.515-0.455-0.959-0.795-1.337l0.003 0.004h-2.981v-1.333c-0 0-0 0-0 0-2.209 0-4 1.791-4 4s1.791 4 4 4c1.183 0 2.246-0.513 2.978-1.33l0.003-0.004h-2.981v-0.667zM19.916 22.667c-0.773 0-1.424 0.376-1.86 0.847-0.432 0.467-0.723 1.097-0.723 1.745v0.512c0 2.615 2.721 4.896 6.667 4.896v-1.333h4.631c0.524-0.366 0.965-0.808 1.318-1.316l0.011-0.017h-5.96v0.667c-3.373 0-4.667-1.852-4.667-2.896v-0.512c0-0.061 0.040-0.225 0.191-0.387 0.143-0.153 0.289-0.205 0.392-0.205h4.084v-0.667h6.307c-0.11-0.184-0.229-0.343-0.364-0.488l0.002 0.002c-0.436-0.471-1.085-0.847-1.86-0.847h-8.167zM24 18.667v-1.333h4c0 0.467-0.080 0.916-0.227 1.333h-3.773zM30.559 26.667h-6.559v-1.333h6.667v0.437c0 0.304-0.037 0.604-0.108 0.896z"></path>
</svg>
