<!-- Generated by IcoMoon.io -->
<svg version="1.1" xmlns="http://www.w3.org/2000/svg" width="32" height="32" viewBox="0 0 32 32">
<title>tab-arrow-left-regular</title>
<path d="M4 7.667c0-2.025 1.642-3.667 3.667-3.667v0h16.667c2.025 0 3.667 1.642 3.667 3.667v0 8.363c-0.575-0.375-1.237-0.695-1.939-0.928l-0.061-0.018v-7.417c0-0.92-0.747-1.667-1.667-1.667h-16.667c-0.92 0-1.667 0.747-1.667 1.667v16.667c0 0.92 0.747 1.667 1.667 1.667h7.417c0.231 0.712 0.549 1.383 0.945 2h-8.363c-2.025 0-3.667-1.642-3.667-3.667v0-16.667zM23.333 30.667c-4.050 0-7.333-3.283-7.333-7.333s3.283-7.333 7.333-7.333v0c4.050 0 7.333 3.283 7.333 7.333s-3.283 7.333-7.333 7.333v0zM27.333 24c0.368 0 0.667-0.298 0.667-0.667s-0.298-0.667-0.667-0.667v0h-6.391l2.196-2.195c0.121-0.121 0.195-0.288 0.195-0.472 0-0.369-0.299-0.668-0.668-0.668-0.184 0-0.351 0.075-0.472 0.195l-3.333 3.333c-0.121 0.121-0.196 0.288-0.196 0.472s0.075 0.351 0.196 0.472v0l3.333 3.333c0.121 0.121 0.288 0.195 0.472 0.195 0.369 0 0.668-0.299 0.668-0.668 0-0.184-0.075-0.351-0.195-0.472l-2.196-2.195h6.391z"></path>
</svg>
