<!-- Generated by IcoMoon.io -->
<svg version="1.1" xmlns="http://www.w3.org/2000/svg" width="32" height="32" viewBox="0 0 32 32">
<title>tab-arrow-left</title>
<path d="M4.19 7.667c0-2.025 1.642-3.667 3.667-3.667h16.667c2.025 0 3.667 1.642 3.667 3.667v8.487c-0.615-0.417-1.286-0.757-2-1.006v-7.481c0-0.92-0.746-1.667-1.667-1.667h-16.667c-0.92 0-1.667 0.746-1.667 1.667v16.667c0 0.921 0.746 1.667 1.667 1.667h7.229c0.23 0.711 0.549 1.382 0.944 2h-8.173c-2.025 0-3.667-1.642-3.667-3.667v-16.667z"></path>
<path d="M30.668 23.333c0 4.050-3.283 7.333-7.333 7.333s-7.333-3.283-7.333-7.333 3.283-7.333 7.333-7.333c4.050 0 7.333 3.283 7.333 7.333zM23.139 20.471c0.26-0.26 0.26-0.683 0-0.943s-0.683-0.26-0.943 0l-3.333 3.333c-0.26 0.26-0.26 0.683 0 0.943l3.333 3.333c0.26 0.26 0.682 0.26 0.943 0s0.26-0.683 0-0.943l-2.195-2.195h6.391c0.368 0 0.667-0.299 0.667-0.667s-0.298-0.667-0.667-0.667h-6.391l2.195-2.195z"></path>
</svg>
