<!-- Generated by IcoMoon.io -->
<svg version="1.1" xmlns="http://www.w3.org/2000/svg" width="32" height="32" viewBox="0 0 32 32">
<title>tab-prohibited</title>
<path d="M7.667 4c-2.025 0-3.667 1.642-3.667 3.667v16.667c0 2.025 1.642 3.667 3.667 3.667h8.362c-0.395-0.618-0.715-1.289-0.944-2h-7.418c-0.92 0-1.667-0.746-1.667-1.667v-16.667c0-0.92 0.746-1.667 1.667-1.667h16.667c0.921 0 1.667 0.746 1.667 1.667v7.418c0.711 0.23 1.382 0.549 2 0.944v-8.362c0-2.025-1.642-3.667-3.667-3.667h-16.667z"></path>
<path d="M23.333 30.667c4.050 0 7.333-3.283 7.333-7.333s-3.283-7.333-7.333-7.333c-4.050 0-7.333 3.283-7.333 7.333s3.283 7.333 7.333 7.333zM18.921 26.331c-0.581-0.854-0.921-1.886-0.921-2.998 0-2.945 2.388-5.333 5.333-5.333 1.111 0 2.143 0.34 2.998 0.921l-7.409 7.409zM20.336 27.745l7.409-7.409c0.581 0.854 0.921 1.886 0.921 2.998 0 2.945-2.388 5.333-5.333 5.333-1.111 0-2.143-0.34-2.998-0.921z"></path>
</svg>
