<!-- Generated by IcoMoon.io -->
<svg version="1.1" xmlns="http://www.w3.org/2000/svg" width="32" height="32" viewBox="0 0 32 32">
<title>tablet</title>
<path d="M26.332 5.333c1.657 0 3 1.343 3 3v15.336c0 1.657-1.343 3-3 3h-20.665c-1.657 0-3-1.343-3-3v-15.336c0-1.657 1.343-3 3-3h20.665zM26.332 7.333h-20.665c-0.552 0-1 0.448-1 1v15.336c0 0.552 0.448 1 1 1h20.665c0.552 0 1-0.448 1-1v-15.336c0-0.552-0.448-1-1-1zM13.667 20.667h4.667c0.552 0 1 0.448 1 1 0 0.506-0.376 0.925-0.864 0.991l-0.136 0.009h-4.667c-0.552 0-1-0.448-1-1 0-0.506 0.376-0.925 0.864-0.991l0.136-0.009z"></path>
</svg>
