<!-- Generated by IcoMoon.io -->
<svg version="1.1" xmlns="http://www.w3.org/2000/svg" width="32" height="32" viewBox="0 0 32 32">
<title>table-move-right-regular</title>
<path d="M27.714 3.429c0.473 0 0.857 0.384 0.857 0.857v0 23.429c0 0.473-0.384 0.857-0.857 0.857s-0.857-0.384-0.857-0.857v0-23.429c0-0.473 0.384-0.857 0.857-0.857v0zM20.671 11.934c-0.198 0.176-0.359 0.388-0.474 0.626l-0.005 0.012h-7.621v6.857h7.621c0.201 0.419 0.532 0.75 0.939 0.946l0.012 0.005v7.049c0 0.631-0.512 1.143-1.143 1.143v0h-12.286c-2.367 0-4.286-1.919-4.286-4.286v0-16.571c0-2.367 1.919-4.286 4.286-4.286v0h12.286c0.631 0 1.143 0.512 1.143 1.143v0 7.049c-0.18 0.087-0.336 0.191-0.474 0.315l0.002-0.002zM19.429 10.857v-5.714h-6.857v5.714h6.857zM10.857 10.857v-5.714h-3.143c-1.42 0-2.571 1.151-2.571 2.571v0 3.143h5.714zM10.857 12.571h-5.714v6.857h5.714v-6.857zM5.143 24.286c0 1.42 1.151 2.571 2.571 2.571v0h3.143v-5.714h-5.714v3.143zM12.571 26.857h6.857v-5.714h-6.857v5.714zM21.36 18.002l1.017-1.145h-4.091c-0.473 0-0.857-0.384-0.857-0.857s0.384-0.857 0.857-0.857v0h4.091l-1.017-1.145c-0.121-0.147-0.194-0.337-0.194-0.544 0-0.473 0.384-0.857 0.857-0.857 0.242 0 0.461 0.101 0.617 0.262l0 0 2.286 2.571c0.134 0.151 0.216 0.35 0.216 0.569s-0.082 0.419-0.217 0.57l-2.285 2.571c-0.156 0.162-0.375 0.262-0.617 0.262-0.473 0-0.857-0.384-0.857-0.857 0-0.207 0.073-0.397 0.196-0.545l-0.001 0.001z"></path>
</svg>
