<!-- Generated by IcoMoon.io -->
<svg version="1.1" xmlns="http://www.w3.org/2000/svg" width="32" height="32" viewBox="0 0 32 32">
<title>table-checker-regular</title>
<path d="M25.6 8.8v8.8h1.6v-8.8c0-2.209-1.791-4-4-4v0h-8.8v1.6h8.8c1.325 0 2.4 1.075 2.4 2.4v0zM4.8 14.4v8.8c0 2.209 1.791 4 4 4v0h8.8v-1.6h-8.8c-1.325 0-2.4-1.075-2.4-2.4v0-8.8h-1.6zM8.8 4.8h4v6.4h8v8h6.4v4c0 2.209-1.791 4-4 4v0h-4v-6.4h-8v-8h-6.4v-4c0-2.209 1.791-4 4-4v0zM23.2 25.6c0 0 0 0 0 0 1.244 0 2.267-0.946 2.388-2.158l0.001-0.010 0.011-0.232v-2.4h-4.8v4.8h2.4zM19.2 12.8h-6.4v6.4h6.4v-6.4zM6.4 11.2h4.8v-4.8h-2.4c-1.244 0-2.267 0.947-2.388 2.16l-0.001 0.010-0.011 0.23v2.4z"></path>
</svg>
