<!-- Generated by IcoMoon.io -->
<svg version="1.1" xmlns="http://www.w3.org/2000/svg" width="32" height="32" viewBox="0 0 32 32">
<title>table-move-left</title>
<path d="M6 5c0-0.552-0.448-1-1-1s-1 0.448-1 1v22c0 0.552 0.448 1 1 1s1-0.448 1-1v-22z"></path>
<path d="M11.333 5c0-0.552 0.448-1 1-1h11.333c2.393 0 4.333 1.94 4.333 4.333v15.333c0 2.393-1.94 4.333-4.333 4.333h-11.333c-0.552 0-1-0.448-1-1v-5.691c0.657 0.094 1.349-0.090 1.883-0.565 0.608-0.541 0.867-1.328 0.759-2.077h4.69v-5.333h-4.69c0.107-0.749-0.151-1.537-0.759-2.077-0.535-0.475-1.227-0.66-1.883-0.566v-5.691zM13.333 26h5.333v-5.333h-5.333v5.333zM20.667 20.667v5.333h3c1.289 0 2.333-1.045 2.333-2.333v-3h-5.333zM26 13.333h-5.333v5.333h5.333v-5.333zM26 11.333v-3c0-1.289-1.045-2.333-2.333-2.333h-3v5.333h5.333zM13.333 6v5.333h5.333v-5.333h-5.333z"></path>
<path d="M12.331 12.253c0.413 0.367 0.45 0.999 0.083 1.412l-1.187 1.336h3.773c0.552 0 1 0.448 1 1s-0.448 1-1 1h-3.773l1.187 1.336c0.367 0.413 0.33 1.045-0.083 1.412s-1.045 0.33-1.412-0.083l-2.667-3c-0.337-0.379-0.337-0.95 0-1.329l2.667-3c0.367-0.413 0.999-0.45 1.412-0.083z"></path>
</svg>
