<!-- Generated by IcoMoon.io -->
<svg version="1.1" xmlns="http://www.w3.org/2000/svg" width="32" height="32" viewBox="0 0 32 32">
<title>table-stack-above</title>
<path d="M27 6c0.552 0 1-0.448 1-1s-0.448-1-1-1h-22c-0.552 0-1 0.448-1 1s0.448 1 1 1h22z"></path>
<path d="M27 11.333c0.552 0 1 0.448 1 1v11.333c0 2.393-1.94 4.333-4.333 4.333h-15.333c-2.393 0-4.333-1.94-4.333-4.333v-11.333c0-0.552 0.448-1 1-1h22zM18.667 13.333h-5.333v5.333h5.333v-5.333zM11.333 13.333h-5.333v5.333h5.333v-5.333zM11.333 20.667h-5.333v3c0 1.289 1.045 2.333 2.333 2.333h3v-5.333zM18.667 20.667h-5.333v5.333h5.333v-5.333zM20.667 26h3c1.289 0 2.333-1.045 2.333-2.333v-3h-5.333v5.333zM26 13.333h-5.333v5.333h5.333v-5.333z"></path>
</svg>
