<!-- Generated by IcoMoon.io -->
<svg version="1.1" xmlns="http://www.w3.org/2000/svg" width="32" height="32" viewBox="0 0 32 32">
<title>table-cell-edit-regular</title>
<path d="M6.571 21.714c-1.736 0-3.143-1.407-3.143-3.143v0-5.143c0-1.736 1.407-3.143 3.143-3.143v0h18.857c0.985 0 1.863 0.453 2.44 1.162-0.691 0.071-1.312 0.32-1.832 0.7l0.011-0.007c-0.18-0.089-0.392-0.141-0.616-0.141-0.001 0-0.001 0-0.002 0h-4.857v5.55l-1.714 1.714v-7.264h-5.714v8h4.978l-1.56 1.56c-0.049 0.049-0.097 0.099-0.143 0.151l-0.003 0.004h-9.843zM5.143 18.571c0 0.789 0.64 1.429 1.429 1.429h4.857v-8h-4.857c-0.789 0-1.429 0.64-1.429 1.429v5.143zM26.4 13.337l-9.032 9.031c-0.382 0.382-0.664 0.864-0.802 1.404l-0.005 0.021-0.523 2.093c-0.024 0.090-0.037 0.194-0.037 0.301 0 0.686 0.556 1.242 1.242 1.242 0.107 0 0.212-0.014 0.311-0.039l-0.009 0.002 2.091-0.522c0.561-0.143 1.044-0.425 1.426-0.808l9.031-9.031c0.447-0.468 0.722-1.104 0.722-1.803 0-1.443-1.17-2.613-2.613-2.613-0.7 0-1.335 0.275-1.804 0.723l0.001-0.001z"></path>
</svg>
