<!-- Generated by IcoMoon.io -->
<svg version="1.1" xmlns="http://www.w3.org/2000/svg" width="32" height="32" viewBox="0 0 32 32">
<title>table-search-regular</title>
<path d="M27.2 8.8c0-2.209-1.791-4-4-4v0h-14.4c-2.209 0-4 1.791-4 4v0 6.011c0.464-0.17 1.005-0.3 1.567-0.365l0.033-0.003v-1.643h4.8v2.814c0.615 0.414 1.142 0.897 1.59 1.448l0.010 0.013v-4.275h6.4v6.4h-5.21c0.171 0.464 0.3 1.006 0.365 1.567l0.003 0.033h4.842v4.8h-4.605l1.6 1.6h7.006c2.209 0 4-1.791 4-4v0-14.4zM23.2 25.6h-2.4v-4.8h4.8v2.4l-0.010 0.232c-0.122 1.222-1.145 2.168-2.389 2.168-0.001 0-0.001 0-0.002 0h0zM20.8 12.8h4.8v6.4h-4.8v-6.4zM19.2 11.2h-6.4v-4.8h6.4v4.8zM20.8 6.4h2.4l0.232 0.011c1.223 0.121 2.17 1.144 2.17 2.389v0 2.4h-4.8v-4.8zM6.4 11.2v-2.4l0.013-0.23c0.121-1.222 1.144-2.169 2.387-2.17h2.4v4.8h-4.8zM2.216 19.048c-0.387 0.742-0.615 1.62-0.615 2.551 0 3.093 2.507 5.6 5.6 5.6 1.267 0 2.435-0.42 3.373-1.129l-0.014 0.010 4.069 4.093c0.145 0.145 0.345 0.234 0.566 0.234 0.442 0 0.8-0.358 0.8-0.8 0-0.221-0.090-0.421-0.235-0.566v0l-4.080-4.080c0.701-0.925 1.122-2.095 1.122-3.363 0-3.093-2.507-5.6-5.6-5.6-2.162 0-4.038 1.226-4.972 3.020l-0.015 0.031zM10.526 19.378c0.435 0.631 0.695 1.411 0.695 2.253 0 2.209-1.791 4-4 4-1.393 0-2.62-0.712-3.337-1.793l-0.009-0.015c-0.41-0.618-0.654-1.376-0.654-2.192 0-2.209 1.791-4 4-4 1.368 0 2.575 0.687 3.297 1.734l0.009 0.013z"></path>
</svg>
