<!-- Generated by IcoMoon.io -->
<svg version="1.1" xmlns="http://www.w3.org/2000/svg" width="32" height="32" viewBox="0 0 32 32">
<title>tablet-regular</title>
<path d="M13.333 20.667c-0.46 0-0.833 0.373-0.833 0.833s0.373 0.833 0.833 0.833v0h5.333c0.46 0 0.833-0.373 0.833-0.833s-0.373-0.833-0.833-0.833v0h-5.333zM5.5 5.333c-1.565 0-2.833 1.269-2.833 2.833v0 15.667c0 1.565 1.269 2.833 2.833 2.833v0h21c1.565 0 2.833-1.269 2.833-2.833v0-15.667c0-1.565-1.269-2.833-2.833-2.833v0h-21zM4.333 8.167c0-0.644 0.523-1.167 1.167-1.167h21c0.645 0 1.167 0.523 1.167 1.167v15.667c0 0.644-0.522 1.167-1.167 1.167v0h-21c-0.644 0-1.167-0.522-1.167-1.167v0-15.667z"></path>
</svg>
