<!-- Generated by IcoMoon.io -->
<svg version="1.1" xmlns="http://www.w3.org/2000/svg" width="32" height="32" viewBox="0 0 32 32">
<title>table-move-above</title>
<path d="M3.429 4.286c0-0.473 0.384-0.857 0.857-0.857v0h23.429c0.473 0 0.857 0.384 0.857 0.857s-0.384 0.857-0.857 0.857v0h-23.429c-0.473 0-0.857-0.384-0.857-0.857v0zM11.934 11.329c0.184 0.206 0.402 0.366 0.638 0.479v7.621h6.857v-7.621c0.419-0.201 0.75-0.532 0.946-0.939l0.005-0.012h7.049c0.631 0 1.143 0.512 1.143 1.143v0 12.286c0 2.367-1.919 4.286-4.286 4.286v0h-16.571c-2.367 0-4.286-1.919-4.286-4.286v0-12.286c0-0.631 0.512-1.143 1.143-1.143v0h7.049c0.080 0.167 0.184 0.326 0.313 0.472zM10.857 12.571h-5.714v6.857h5.714v-6.857zM10.857 21.143h-5.714v3.143c0 1.42 1.151 2.571 2.571 2.571v0h3.143v-5.714zM12.571 26.857h6.857v-5.714h-6.857v5.714zM24.286 26.857c1.42 0 2.571-1.151 2.571-2.571v0-3.143h-5.714v5.714h3.143zM26.857 19.429v-6.857h-5.714v6.857h5.714zM18.002 10.64l-1.145-1.017v4.091c0 0.473-0.384 0.857-0.857 0.857s-0.857-0.384-0.857-0.857v0-4.091l-1.145 1.017c-0.147 0.121-0.337 0.194-0.544 0.194-0.473 0-0.857-0.384-0.857-0.857 0-0.242 0.101-0.461 0.262-0.617l0-0 2.571-2.286c0.151-0.134 0.35-0.216 0.569-0.216s0.419 0.082 0.57 0.217l2.571 2.285c0.162 0.156 0.262 0.375 0.262 0.617 0 0.473-0.384 0.857-0.857 0.857-0.207 0-0.397-0.073-0.545-0.196l0.001 0.001z"></path>
</svg>
