<!-- Generated by IcoMoon.io -->
<svg version="1.1" xmlns="http://www.w3.org/2000/svg" width="32" height="32" viewBox="0 0 32 32">
<title>table-regular</title>
<path d="M23.833 4c2.301 0 4.167 1.865 4.167 4.167v0 15.667c0 2.301-1.865 4.167-4.167 4.167v0h-15.667c-2.301 0-4.167-1.865-4.167-4.167v0-15.667c0-2.301 1.865-4.167 4.167-4.167v0h15.667zM5.667 13v6h5.667v-6h-5.667zM5.667 20.667v3.167c0 1.381 1.119 2.5 2.5 2.5v0h3.167v-5.667h-5.667zM13 26.333h6v-5.667h-6v5.667zM20.667 26.333h3.167c1.381 0 2.5-1.119 2.5-2.5v0-3.167h-5.667v5.667zM26.333 19v-6h-5.667v6h5.667zM26.333 11.333v-3.167c0-1.381-1.119-2.5-2.5-2.5v0h-3.167v5.667h5.667zM19 5.667h-6v5.667h6v-5.667zM11.333 5.667h-3.167c-1.381 0-2.5 1.119-2.5 2.5v0 3.167h5.667v-5.667zM19 19v-6h-6v6h6z"></path>
</svg>
