<!-- Generated by IcoMoon.io -->
<svg version="1.1" xmlns="http://www.w3.org/2000/svg" width="32" height="32" viewBox="0 0 32 32">
<title>table-edit</title>
<path d="M4 8.333c0-2.393 1.94-4.333 4.333-4.333h15.332c2.393 0 4.333 1.94 4.333 4.333v6.349c-0.675-0.058-1.361 0.040-2 0.294v-1.643h-5.333v5.333h1.14l-3.14 3.14v-1.14h-5.333v5.333h2.054c-0.009 0.034-0.018 0.068-0.027 0.103l-0.474 1.897h-6.553c-2.393 0-4.333-1.94-4.333-4.333v-15.332zM8.333 6c-1.289 0-2.333 1.045-2.333 2.333v3h5.333v-5.333h-3zM6 13.332v5.333h5.333v-5.333h-5.333zM13.332 13.332v5.333h5.333v-5.333h-5.333zM20.665 11.333h5.333v-3c0-1.289-1.045-2.333-2.333-2.333h-3v5.333zM18.665 6h-5.333v5.333h5.333v-5.333zM6 20.665v3c0 1.289 1.045 2.333 2.333 2.333h3v-5.333h-5.333zM26.353 16.273c-0.122 0.055-0.24 0.119-0.355 0.192-0.189 0.119-0.369 0.261-0.533 0.426l-7.869 7.869c-0.353 0.353-0.627 0.775-0.806 1.237-0.054 0.139-0.099 0.281-0.135 0.426l-0.61 2.441c-0.265 1.061 0.696 2.023 1.757 1.758l2.441-0.61c0.629-0.157 1.204-0.483 1.663-0.942l7.869-7.869c1.19-1.19 1.19-3.12 0-4.31-0.869-0.869-2.132-1.103-3.214-0.703-0.017 0.007-0.035 0.013-0.052 0.020-0.052 0.020-0.104 0.042-0.155 0.066z"></path>
</svg>
