<!-- Generated by IcoMoon.io -->
<svg version="1.1" xmlns="http://www.w3.org/2000/svg" width="32" height="32" viewBox="0 0 32 32">
<title>table-multiple</title>
<path d="M9.075 27.2h12.534c1.535-0.001 2.924-0.62 3.933-1.623l0.017-0.017 0.019-0.018c1.002-1.009 1.621-2.399 1.621-3.933 0-0.003 0-0.007 0-0.010v0-12.526c1.002 1.237 1.6 2.811 1.6 4.528v8c0 3.976-3.224 7.2-7.2 7.2v0h-8c-0.003 0-0.007 0-0.010 0-1.717 0-3.293-0.604-4.528-1.61l0.013 0.010zM24.429 4.371c0.724 0.724 1.171 1.724 1.171 2.828 0 0 0 0.001 0 0.001v-0 14.4c0 2.209-1.791 4-4 4v0h-14.4c-2.209 0-4-1.791-4-4v0-14.4c0-2.209 1.791-4 4-4v0h14.4c0 0 0 0 0.001 0 1.104 0 2.104 0.448 2.828 1.171v0zM7.2 4.8l-0.23 0.011c-1.223 0.121-2.17 1.144-2.17 2.389v0 2.4h4.8v-4.8h-2.4zM17.6 4.8h-6.4v4.8h6.4v-4.8zM24 7.2l-0.011-0.23c-0.121-1.223-1.145-2.17-2.389-2.17h-2.4v4.8h4.8v-2.4zM11.2 11.2v6.4h6.4v-6.4h-6.4zM24 11.2h-4.8v6.4h4.8v-6.4zM11.2 19.2v4.8h6.4v-4.8h-6.4zM24 19.2h-4.8v4.8h2.4l0.23-0.011c1.223-0.121 2.17-1.145 2.17-2.389v0-2.4zM5.587 23.376c0.424 0.387 0.991 0.624 1.613 0.624h2.4v-4.8h-4.8v2.4l0.011 0.23c0.061 0.616 0.348 1.156 0.774 1.544l0.002 0.002zM4.8 11.2v6.4h4.8v-6.4h-4.8z"></path>
</svg>
