<!-- Generated by IcoMoon.io -->
<svg version="1.1" xmlns="http://www.w3.org/2000/svg" width="32" height="32" viewBox="0 0 32 32">
<title>table-link</title>
<path d="M3.429 7.714c0-2.367 1.919-4.286 4.286-4.286v0h16.571c2.367 0 4.286 1.919 4.286 4.286v0 13.238c-0.591-0.241-1.276-0.381-1.994-0.381-0.002 0-0.004 0-0.007 0h-6.285c-0.003 0-0.005 0-0.008 0-0.882 0-1.714 0.211-2.45 0.586l0.031-0.014h-5.287v5.714h2.353c0.097 0.611 0.296 1.189 0.579 1.714h-7.79c-2.367 0-4.286-1.919-4.286-4.286v0-16.571zM5.143 21.143v3.143c0 1.42 1.151 2.571 2.571 2.571v0h3.143v-5.714h-5.714zM10.857 19.429v-6.857h-5.714v6.857h5.714zM19.429 19.429v-6.857h-6.857v6.857h6.857zM26.857 19.429v-6.857h-5.714v6.857h5.714zM26.857 7.714c0-1.42-1.151-2.571-2.571-2.571v0h-3.143v5.714h5.714v-3.143zM19.429 5.143h-6.857v5.714h6.857v-5.714zM10.857 5.143h-3.143c-1.42 0-2.571 1.151-2.571 2.571v0 3.143h5.714v-5.714zM20.286 23.429c-1.42 0-2.571 1.151-2.571 2.571s1.151 2.571 2.571 2.571v0h0.571c0.473 0 0.857 0.384 0.857 0.857s-0.384 0.857-0.857 0.857v0h-0.571c-2.367 0-4.286-1.919-4.286-4.286s1.919-4.286 4.286-4.286v0h0.571c0.473 0 0.857 0.384 0.857 0.857s-0.384 0.857-0.857 0.857v0h-0.571zM19.429 26c0-0.473 0.384-0.857 0.857-0.857v0h6.286c0.473 0 0.857 0.384 0.857 0.857s-0.384 0.857-0.857 0.857v0h-6.286c-0.473 0-0.857-0.384-0.857-0.857v0zM26.571 28.571c1.42 0 2.571-1.151 2.571-2.571s-1.151-2.571-2.571-2.571v0h-0.571c-0.473 0-0.857-0.384-0.857-0.857s0.384-0.857 0.857-0.857v0h0.571c2.367 0 4.286 1.919 4.286 4.286s-1.919 4.286-4.286 4.286v0h-0.571c-0.473 0-0.857-0.384-0.857-0.857s0.384-0.857 0.857-0.857v0h0.571z"></path>
</svg>
