<!-- Generated by IcoMoon.io -->
<svg version="1.1" xmlns="http://www.w3.org/2000/svg" width="32" height="32" viewBox="0 0 32 32">
<title>table-stack-below</title>
<path d="M27.714 28.571c0.473 0 0.857-0.384 0.857-0.857s-0.384-0.857-0.857-0.857v0h-23.429c-0.473 0-0.857 0.384-0.857 0.857s0.384 0.857 0.857 0.857v0h23.429zM7.714 3.429c-2.367 0-4.286 1.919-4.286 4.286v0 12.286c0 0.631 0.512 1.143 1.143 1.143v0h22.857c0.631 0 1.143-0.512 1.143-1.143v0-12.286c0-2.367-1.919-4.286-4.286-4.286v0h-16.571zM21.143 19.429v-6.857h5.714v6.857h-5.714zM19.429 12.571v6.857h-6.857v-6.857h6.857zM21.143 10.857v-5.714h3.143c1.42 0 2.571 1.151 2.571 2.571v0 3.143h-5.714zM19.429 5.143v5.714h-6.857v-5.714h6.857zM7.714 5.143h3.143v5.714h-5.714v-3.143c0-1.42 1.151-2.571 2.571-2.571v0zM5.143 12.571h5.714v6.857h-5.714v-6.857z"></path>
</svg>
