<!-- Generated by IcoMoon.io -->
<svg version="1.1" xmlns="http://www.w3.org/2000/svg" width="32" height="32" viewBox="0 0 32 32">
<title>tablet-speaker</title>
<path d="M29.524 4.402c-0.438-0.729-0.887-1.228-1.217-1.504-0.424-0.354-1.055-0.296-1.408 0.128s-0.296 1.055 0.128 1.408c0.169 0.141 0.47 0.475 0.783 0.996 0.535 0.892 0.857 1.966 0.857 3.236s-0.322 2.343-0.857 3.236c-0.312 0.521-0.613 0.855-0.783 0.996-0.424 0.354-0.482 0.984-0.128 1.408s0.984 0.482 1.408 0.128c0.331-0.276 0.78-0.775 1.217-1.504 0.715-1.191 1.142-2.617 1.142-4.264s-0.428-3.073-1.142-4.264zM26.499 5.862c-0.319-0.478-0.647-0.807-0.899-0.995-0.442-0.331-1.069-0.242-1.4 0.2s-0.242 1.069 0.2 1.4c0.082 0.062 0.253 0.233 0.435 0.505 0.312 0.468 0.499 1.028 0.499 1.695s-0.187 1.227-0.499 1.695c-0.181 0.272-0.353 0.443-0.435 0.505l-0.112 0.097c-0.343 0.346-0.39 0.901-0.088 1.303 0.331 0.442 0.958 0.531 1.4 0.2 0.251-0.188 0.58-0.517 0.899-0.995 0.521-0.782 0.835-1.722 0.835-2.805s-0.313-2.023-0.835-2.805zM22.667 5c0-0.417-0.258-0.79-0.648-0.936s-0.83-0.036-1.104 0.278l-2.035 2.325h-1.88c-0.552 0-1 0.448-1 1v2c0 0.552 0.448 1 1 1h1.88l2.035 2.325c0.274 0.314 0.714 0.424 1.104 0.278s0.648-0.52 0.648-0.936v-7.333zM5.667 5.333l10.333 0c-0.736 0-1.333 0.597-1.333 1.333v0.666h-9c-0.552 0-1 0.448-1 1v15.336c0 0.552 0.448 1 1 1h20.665c0.552 0 1-0.448 1-1v-7.693c0.632 0.092 1.299-0.075 1.829-0.517 0.056-0.047 0.113-0.097 0.171-0.15v8.36c0 1.657-1.343 3-3 3h-20.665c-1.657 0-3-1.343-3-3v-15.336c0-1.657 1.343-3 3-3zM18.333 20.667c0.552 0 1 0.448 1 1 0 0.506-0.376 0.925-0.864 0.991l-0.136 0.009h-4.667c-0.552 0-1-0.448-1-1 0-0.506 0.376-0.925 0.864-0.991l0.136-0.009h4.667z"></path>
</svg>
