<!-- Generated by IcoMoon.io -->
<svg version="1.1" xmlns="http://www.w3.org/2000/svg" width="32" height="32" viewBox="0 0 32 32">
<title>table-dismiss</title>
<path d="M4 8.333c0-2.393 1.94-4.333 4.333-4.333h15.333c2.393 0 4.333 1.94 4.333 4.333v7.696c-0.618-0.395-1.289-0.715-2-0.944v-1.751h-5.333v1.751c-0.711 0.23-1.382 0.549-2 0.944v-2.696h-5.333v5.333h2.696c-0.395 0.618-0.715 1.289-0.944 2h-1.751v5.333h1.751c0.23 0.711 0.549 1.382 0.944 2h-7.696c-2.393 0-4.333-1.94-4.333-4.333v-15.333zM8.333 6c-1.289 0-2.333 1.045-2.333 2.333v3h5.333v-5.333h-3zM6 13.333v5.333h5.333v-5.333h-5.333zM20.667 11.333h5.333v-3c0-1.289-1.045-2.333-2.333-2.333h-3v5.333zM18.667 6h-5.333v5.333h5.333v-5.333zM6 20.667v3c0 1.289 1.045 2.333 2.333 2.333h3v-5.333h-5.333z"></path>
<path d="M30.667 23.333c0 4.050-3.283 7.333-7.333 7.333s-7.333-3.283-7.333-7.333c0-4.050 3.283-7.333 7.333-7.333s7.333 3.283 7.333 7.333zM23.333 22.391l-2.195-2.195c-0.26-0.26-0.683-0.26-0.943 0s-0.26 0.683 0 0.943l2.195 2.195-2.195 2.195c-0.26 0.26-0.26 0.683 0 0.943s0.683 0.26 0.943 0l2.195-2.195 2.195 2.195c0.26 0.26 0.683 0.26 0.943 0s0.26-0.683 0-0.943l-2.195-2.195 2.195-2.195c0.26-0.26 0.26-0.683 0-0.943s-0.683-0.26-0.943 0l-2.195 2.195z"></path>
</svg>
