<!-- Generated by IcoMoon.io -->
<svg version="1.1" xmlns="http://www.w3.org/2000/svg" width="32" height="32" viewBox="0 0 32 32">
<title>table-move-below</title>
<path d="M5 20.667c-0.552 0-1-0.448-1-1v-11.333c0-2.393 1.94-4.333 4.333-4.333h15.333c2.393 0 4.333 1.94 4.333 4.333v11.333c0 0.552-0.448 1-1 1h-5.691c0.094-0.657-0.090-1.349-0.565-1.883-0.541-0.608-1.328-0.867-2.077-0.759v-4.69h-5.333v4.69c-0.749-0.107-1.537 0.151-2.077 0.759-0.475 0.535-0.66 1.227-0.566 1.883h-5.691zM13.333 11.333h5.333v-5.333h-5.333v5.333zM26 18.667v-5.333h-5.333v5.333h5.333zM20.667 11.333h5.333v-3c0-1.289-1.045-2.333-2.333-2.333h-3v5.333zM11.333 6h-3c-1.289 0-2.333 1.045-2.333 2.333v3h5.333v-5.333zM6 18.667h5.333v-5.333h-5.333v5.333z"></path>
<path d="M5 26c-0.552 0-1 0.448-1 1s0.448 1 1 1h22c0.552 0 1-0.448 1-1s-0.448-1-1-1h-22z"></path>
<path d="M12.253 19.669c0.367-0.413 0.999-0.45 1.412-0.083l1.336 1.187v-3.773c0-0.552 0.448-1 1-1s1 0.448 1 1v3.773l1.336-1.187c0.413-0.367 1.045-0.33 1.412 0.083s0.33 1.045-0.083 1.412l-3 2.667c-0.379 0.337-0.95 0.337-1.329 0l-3-2.667c-0.413-0.367-0.45-0.999-0.083-1.412z"></path>
</svg>
