<!-- Generated by IcoMoon.io -->
<svg version="1.1" xmlns="http://www.w3.org/2000/svg" width="32" height="32" viewBox="0 0 32 32">
<title>table-split-regular</title>
<path d="M26.4 3.2c0.442 0 0.8 0.358 0.8 0.8v0 2.4c0 1.767-1.433 3.2-3.2 3.2v0h-16c-1.767 0-3.2-1.433-3.2-3.2v0-2.4c0-0.442 0.358-0.8 0.8-0.8s0.8 0.358 0.8 0.8v0 2.4c0 0.884 0.716 1.6 1.6 1.6v0h3.2v-4c0-0.442 0.358-0.8 0.8-0.8s0.8 0.358 0.8 0.8v0 4h6.4v-4c0-0.442 0.358-0.8 0.8-0.8s0.8 0.358 0.8 0.8v0 4h3.2c0.884 0 1.6-0.716 1.6-1.6v0-2.4c0-0.442 0.358-0.8 0.8-0.8v0zM26.4 28.8c0.442 0 0.8-0.358 0.8-0.8v0-2.4c0-1.767-1.433-3.2-3.2-3.2v0h-16c-1.767 0-3.2 1.433-3.2 3.2v0 2.4c0 0.442 0.358 0.8 0.8 0.8s0.8-0.358 0.8-0.8v0-2.4c0-0.884 0.716-1.6 1.6-1.6v0h3.2v4c0 0.442 0.358 0.8 0.8 0.8s0.8-0.358 0.8-0.8v0-4h6.4v4c0 0.442 0.358 0.8 0.8 0.8s0.8-0.358 0.8-0.8v0-4h3.2c0.884 0 1.6 0.716 1.6 1.6v0 2.4c0 0.442 0.358 0.8 0.8 0.8v0zM4 15.2h24.008c0.442 0 0.8 0.358 0.8 0.8s-0.358 0.8-0.8 0.8v0h-24.008c-0.442 0-0.8-0.358-0.8-0.8s0.358-0.8 0.8-0.8v0z"></path>
</svg>
