<!-- Generated by IcoMoon.io -->
<svg version="1.1" xmlns="http://www.w3.org/2000/svg" width="32" height="32" viewBox="0 0 32 32">
<title>tablet-speaker-regular</title>
<path d="M29.524 4.403c-0.437-0.729-0.887-1.228-1.217-1.504-0.169-0.135-0.386-0.217-0.622-0.217-0.552 0-1 0.448-1 1 0 0.3 0.132 0.568 0.34 0.752l0.001 0.001c0.169 0.141 0.471 0.476 0.783 0.996 0.535 0.893 0.857 1.967 0.857 3.236s-0.323 2.344-0.857 3.236c-0.312 0.52-0.613 0.855-0.783 0.996-0.21 0.184-0.342 0.453-0.342 0.753 0 0.552 0.448 1 1 1 0.236 0 0.453-0.082 0.624-0.218l-0.002 0.002c0.331-0.276 0.78-0.773 1.217-1.504 0.716-1.191 1.143-2.616 1.143-4.264s-0.427-3.073-1.143-4.264z"></path>
<path d="M26.499 5.861c-0.25-0.385-0.548-0.714-0.891-0.988l-0.008-0.006c-0.165-0.125-0.374-0.2-0.6-0.2-0.552 0-1 0.448-1 1 0 0.326 0.156 0.616 0.398 0.798l0.003 0.002c0.083 0.061 0.253 0.233 0.435 0.505 0.312 0.467 0.499 1.027 0.499 1.695 0 0.667-0.187 1.227-0.499 1.695-0.123 0.194-0.267 0.36-0.432 0.503l-0.003 0.002-0.112 0.097c-0.179 0.181-0.29 0.429-0.29 0.704 0 0.552 0.448 1 1 1 0.227 0 0.436-0.076 0.604-0.203l-0.002 0.002c0.252-0.188 0.58-0.517 0.899-0.995 0.523-0.776 0.835-1.731 0.835-2.76 0-0.016-0-0.032-0-0.048l0 0.002c0-1.083-0.313-2.023-0.835-2.805zM22.667 5c-0-0.552-0.448-1-1-1-0.299 0-0.568 0.131-0.751 0.34l-0.001 0.001-2.035 2.325h-1.88c-0.552 0-1 0.448-1 1v0 2c0 0.552 0.448 1 1 1h1.88l2.035 2.325c0.184 0.209 0.453 0.341 0.752 0.341 0.552 0 1-0.447 1-0.999v-7.333z"></path>
<path d="M5.667 5.333h10.333c-0.736 0-1.333 0.597-1.333 1.333v0 0.667h-9c-0.552 0-1 0.448-1 1v0 15.336c0 0.552 0.448 1 1 1h20.665c0.552 0 1-0.448 1-1v0-7.693c0.632 0.092 1.299-0.076 1.828-0.517 0.056-0.047 0.113-0.096 0.172-0.149v8.36c0 1.657-1.343 3-3 3v0h-20.665c-1.657 0-3-1.343-3-3v-15.336c0-1.657 1.343-3 3-3v0z"></path>
<path d="M18.333 20.667c0.552 0 1 0.448 1 1 0 0.504-0.373 0.921-0.858 0.99l-0.005 0.001-0.136 0.009h-4.667c-0.552-0-1-0.448-1-1 0-0.504 0.373-0.921 0.858-0.99l0.005-0.001 0.136-0.009h4.667z"></path>
</svg>
