<!-- Generated by IcoMoon.io -->
<svg version="1.1" xmlns="http://www.w3.org/2000/svg" width="32" height="32" viewBox="0 0 32 32">
<title>table-resize-row</title>
<path d="M17 20.773v-9.546l1.336 1.187c0.413 0.367 1.045 0.33 1.412-0.083s0.33-1.045-0.083-1.412l-3-2.667c-0.379-0.337-0.95-0.337-1.329 0l-3 2.667c-0.413 0.367-0.45 0.999-0.083 1.412s0.999 0.45 1.412 0.083l1.336-1.187v9.546l-1.336-1.187c-0.413-0.367-1.045-0.33-1.412 0.083s-0.33 1.045 0.083 1.412l3 2.667c0.005 0.005 0.011 0.009 0.016 0.014 0.165 0.141 0.377 0.229 0.609 0.238 0.025 0.001 0.050 0.001 0.075 0 0.242-0.009 0.463-0.103 0.632-0.255l2.997-2.664c0.413-0.367 0.45-0.999 0.083-1.412s-0.999-0.45-1.412-0.083l-1.336 1.187z"></path>
<path d="M23.667 28c2.393 0 4.333-1.94 4.333-4.333v-15.333c0-2.393-1.94-4.333-4.333-4.333h-15.333c-2.393 0-4.333 1.94-4.333 4.333v15.333c0 2.393 1.94 4.333 4.333 4.333h15.333zM26 23.667c0 1.289-1.045 2.333-2.333 2.333h-15.333c-1.289 0-2.333-1.045-2.333-2.333v-0.333h6.863l-1.413-1.256c-0.242-0.215-0.428-0.469-0.559-0.744h-4.891v-10.667h4.891c0.13-0.275 0.317-0.529 0.559-0.744l1.413-1.256h-6.863v-0.333c0-1.289 1.045-2.333 2.333-2.333h15.333c1.289 0 2.333 1.045 2.333 2.333v0.333h-6.863l1.413 1.256c0.242 0.215 0.428 0.469 0.559 0.744h4.891v10.667h-4.891c-0.13 0.275-0.317 0.529-0.559 0.744l-1.413 1.256h6.863v0.333z"></path>
</svg>
