<!-- Generated by IcoMoon.io -->
<svg version="1.1" xmlns="http://www.w3.org/2000/svg" width="32" height="32" viewBox="0 0 32 32">
<title>table-insert-column</title>
<path d="M6 5v22c0 0.552-0.448 1-1 1s-1-0.448-1-1v-22c0-0.552 0.448-1 1-1s1 0.448 1 1z"></path>
<path d="M19 4c1.657 0 3 1.343 3 3v18c0 1.657-1.343 3-3 3h-6c-1.657 0-3-1.343-3-3v-18c0-1.657 1.343-3 3-3h6zM20 7c0-0.552-0.448-1-1-1h-6c-0.552 0-1 0.448-1 1v4.333h8v-4.333zM12 18.667h8v-5.333h-8v5.333zM12 20.667v4.333c0 0.552 0.448 1 1 1h6c0.552 0 1-0.448 1-1v-4.333h-8z"></path>
<path d="M28 27v-22c0-0.552-0.448-1-1-1s-1 0.448-1 1v22c0 0.552 0.448 1 1 1s1-0.448 1-1z"></path>
</svg>
