<!-- Generated by IcoMoon.io -->
<svg version="1.1" xmlns="http://www.w3.org/2000/svg" width="32" height="32" viewBox="0 0 32 32">
<title>table-switch</title>
<path d="M11.707 1.626c-0.391-0.391-1.024-0.391-1.414 0s-0.391 1.024 0 1.414l0.96 0.96h-2.919c-2.393 0-4.333 1.94-4.333 4.333v2.919l-0.96-0.96c-0.391-0.391-1.024-0.391-1.414 0s-0.391 1.024 0 1.414l2.667 2.667c0.034 0.034 0.069 0.064 0.106 0.092 0.017 0.013 0.034 0.025 0.051 0.036 0.35 0.231 0.813 0.219 1.152-0.036 0.037-0.028 0.072-0.058 0.106-0.092l2.667-2.667c0.109-0.109 0.188-0.237 0.236-0.374 0.124-0.352 0.045-0.759-0.236-1.040-0.391-0.391-1.024-0.391-1.414 0l-0.96 0.96v-2.919c0-1.289 1.045-2.333 2.333-2.333h2.919l-0.96 0.96c-0.391 0.391-0.391 1.024 0 1.414 0.281 0.281 0.689 0.36 1.040 0.236 0-0-0 0 0 0 0.136-0.048 0.265-0.127 0.374-0.236l2.667-2.667c0.391-0.391 0.391-1.024 0-1.414l-2.667-2.667z"></path>
<path d="M15.776 4c0.299 0.631 0.299 1.369 0 2h2.891v5.333h-5.333v-2.7l-0.683 0.683c-0.371 0.371-0.835 0.59-1.317 0.66v1.357h-1.357c-0.069 0.482-0.289 0.946-0.66 1.317l-0.683 0.683h2.7v5.333h-5.333v-2.891c-0.631 0.299-1.369 0.299-2 0v7.891c0 2.393 1.94 4.333 4.333 4.333h15.333c2.393 0 4.333-1.94 4.333-4.333v-15.333c0-2.393-1.94-4.333-4.333-4.333h-7.891zM13.333 18.667v-5.333h5.333v5.333h-5.333zM20.667 18.667v-5.333h5.333v5.333h-5.333zM18.667 20.667v5.333h-5.333v-5.333h5.333zM20.667 26v-5.333h5.333v3c0 1.289-1.045 2.333-2.333 2.333h-3zM20.667 11.333v-5.333h3c1.289 0 2.333 1.045 2.333 2.333v3h-5.333zM6 20.667h5.333v5.333h-3c-1.289 0-2.333-1.045-2.333-2.333v-3z"></path>
</svg>
