<!-- Generated by IcoMoon.io -->
<svg version="1.1" xmlns="http://www.w3.org/2000/svg" width="32" height="32" viewBox="0 0 32 32">
<title>table-delete-column</title>
<path d="M29.333 5c0-0.552-0.448-1-1-1h-1.333c-2.393 0-4.333 1.94-4.333 4.333v15.333c0 2.393 1.94 4.333 4.333 4.333h1.333c0.552 0 1-0.448 1-1s-0.448-1-1-1h-1.333c-1.289 0-2.333-1.045-2.333-2.333v-3h3.667c0.552 0 1-0.448 1-1s-0.448-1-1-1h-3.667v-5.333h3.667c0.552 0 1-0.448 1-1s-0.448-1-1-1h-3.667v-3c0-1.289 1.045-2.333 2.333-2.333h1.333c0.552 0 1-0.448 1-1z"></path>
<path d="M2.667 5c0-0.552 0.448-1 1-1h1.333c2.393 0 4.333 1.94 4.333 4.333v15.333c0 2.393-1.94 4.333-4.333 4.333h-1.333c-0.552 0-1-0.448-1-1s0.448-1 1-1h1.333c1.289 0 2.333-1.045 2.333-2.333v-3h-3.667c-0.552 0-1-0.448-1-1s0.448-1 1-1h3.667v-5.333h-3.667c-0.552 0-1-0.448-1-1s0.448-1 1-1h3.667v-3c0-1.289-1.045-2.333-2.333-2.333h-1.333c-0.552 0-1-0.448-1-1z"></path>
<path d="M14.586 16l-1.96 1.96c-0.391 0.391-0.391 1.024 0 1.414s1.024 0.391 1.414 0l1.96-1.959 1.96 1.959c0.391 0.391 1.024 0.391 1.414 0s0.391-1.024 0-1.414l-1.959-1.96 1.959-1.96c0.391-0.391 0.391-1.024 0-1.414s-1.024-0.391-1.414 0l-1.96 1.96-1.96-1.96c-0.391-0.391-1.024-0.391-1.414 0s-0.391 1.024 0 1.414l1.96 1.96z"></path>
<path d="M15 11.637c0.034 0.031 0.068 0.063 0.101 0.096l0.899 0.899 0.899-0.899c0.033-0.033 0.067-0.065 0.101-0.096v-7.97c0-0.552-0.448-1-1-1s-1 0.448-1 1v7.97z"></path>
<path d="M15 20.697v7.637c0 0.552 0.448 1 1 1s1-0.448 1-1v-7.637c-0.034-0.031-0.068-0.063-0.101-0.096l-0.899-0.899-0.899 0.899c-0.033 0.033-0.067 0.065-0.101 0.096z"></path>
</svg>
