<!-- Generated by IcoMoon.io -->
<svg version="1.1" xmlns="http://www.w3.org/2000/svg" width="32" height="32" viewBox="0 0 32 32">
<title>table-insert-row</title>
<path d="M27 4h-22c-0.552 0-1 0.448-1 1s0.448 1 1 1h22c0.552 0 1-0.448 1-1s-0.448-1-1-1z"></path>
<path d="M4 13c0-1.657 1.343-3 3-3h18c1.657 0 3 1.343 3 3v6c0 1.657-1.343 3-3 3h-18c-1.657 0-3-1.343-3-3v-6zM7 12c-0.552 0-1 0.448-1 1v6c0 0.552 0.448 1 1 1h4.333v-8h-4.333zM18.667 20v-8h-5.333v8h5.333zM20.667 20h4.333c0.552 0 1-0.448 1-1v-6c0-0.552-0.448-1-1-1h-4.333v8z"></path>
<path d="M5 26h22c0.552 0 1 0.448 1 1s-0.448 1-1 1h-22c-0.552 0-1-0.448-1-1s0.448-1 1-1z"></path>
</svg>
