<!-- Generated by IcoMoon.io -->
<svg version="1.1" xmlns="http://www.w3.org/2000/svg" width="32" height="32" viewBox="0 0 32 32">
<title>table-insert-row-regular</title>
<path d="M4.286 26.857c-0.473 0-0.857 0.384-0.857 0.857s0.384 0.857 0.857 0.857v0h23.429c0.473 0 0.857-0.384 0.857-0.857s-0.384-0.857-0.857-0.857v0h-23.429zM4.286 3.429c-0.473 0-0.857 0.384-0.857 0.857s0.384 0.857 0.857 0.857v0h23.429c0.473 0 0.857-0.384 0.857-0.857s-0.384-0.857-0.857-0.857v0h-23.429zM3.429 18.571c0 1.736 1.407 3.143 3.143 3.143v0h18.857c1.736 0 3.143-1.407 3.143-3.143v0-5.143c0-1.736-1.407-3.143-3.143-3.143v0h-18.857c-1.736 0-3.143 1.407-3.143 3.143v0 5.143zM6.571 20c-0.789 0-1.429-0.64-1.429-1.429v-5.143c0-0.789 0.64-1.429 1.429-1.429h4.857v8h-4.857zM13.143 20v-8h5.714v8h-5.714zM20.571 20v-8h4.857c0.789 0 1.429 0.64 1.429 1.429v5.143c0 0.789-0.64 1.429-1.429 1.429h-4.857z"></path>
</svg>
