<!-- Generated by IcoMoon.io -->
<svg version="1.1" xmlns="http://www.w3.org/2000/svg" width="32" height="32" viewBox="0 0 32 32">
<title>table-simple-checkmark</title>
<path d="M8.167 4c-2.301 0-4.167 1.865-4.167 4.167v0 15.667c0 2.301 1.865 4.167 4.167 4.167v0h15.667c2.301 0 4.167-1.865 4.167-4.167v0-15.667c0-2.301-1.865-4.167-4.167-4.167v0h-15.667zM5.667 8.167c0-1.381 1.119-2.5 2.5-2.5v0h7v9.5h-9.5v-7zM16.833 15.167v-9.5h7c1.381 0 2.5 1.119 2.5 2.5v0 7h-9.5zM5.667 16.833h9.5v9.5h-7c-1.381 0-2.5-1.119-2.5-2.5v0-7zM24.92 19.244c0.151 0.151 0.244 0.359 0.244 0.589s-0.093 0.439-0.244 0.589l-3.667 3.667c-0.151 0.151-0.359 0.244-0.589 0.244s-0.439-0.093-0.589-0.244l-1.831-1.831c-0.151-0.151-0.244-0.359-0.244-0.589 0-0.46 0.373-0.833 0.833-0.833 0.23 0 0.439 0.093 0.589 0.244v0l1.241 1.241 3.077-3.077c0.151-0.151 0.359-0.244 0.589-0.244s0.439 0.093 0.589 0.244v0z"></path>
</svg>
