<!-- Generated by IcoMoon.io -->
<svg version="1.1" xmlns="http://www.w3.org/2000/svg" width="32" height="32" viewBox="0 0 32 32">
<title>table-cell-edit</title>
<path d="M4 11.667c0-1.657 1.343-3 3-3h18c1.308 0 2.421 0.837 2.831 2.005-0.070-0.003-0.141-0.005-0.211-0.005h-0.003c-0.621 0-1.243 0.132-1.82 0.396-0.183-0.241-0.472-0.396-0.797-0.396h-4.333v5.137l-2 2v-7.137h-5.333v8h4.471l-1.153 1.153c-0.258 0.258-0.485 0.542-0.678 0.847h-8.973c-1.657 0-3-1.343-3-3v-6zM7 10.667c-0.552 0-1 0.448-1 1v6c0 0.552 0.448 1 1 1h4.333v-8h-4.333zM27.62 12h-0.003c-0.779 0-1.559 0.298-2.154 0.893l-7.87 7.87c-0.459 0.459-0.784 1.034-0.942 1.663l-0.61 2.441c-0.265 1.061 0.696 2.023 1.758 1.758l2.441-0.61c0.63-0.157 1.205-0.483 1.663-0.942l7.87-7.87c1.19-1.19 1.19-3.12 0-4.31-0.595-0.595-1.374-0.892-2.153-0.893z"></path>
</svg>
