<!-- Generated by IcoMoon.io -->
<svg version="1.1" xmlns="http://www.w3.org/2000/svg" width="32" height="32" viewBox="0 0 32 32">
<title>table-delete-row-regular</title>
<path d="M3.143 15.143h8.831l0.082 0.087 0.77 0.77-0.77 0.77-0.082 0.087h-8.831c-0.473 0-0.857-0.384-0.857-0.857s0.384-0.857 0.857-0.857v0zM19.657 15.23c0.030-0.029 0.057-0.057 0.083-0.087h9.117c0.473 0 0.857 0.384 0.857 0.857s-0.384 0.857-0.857 0.857v0h-9.117c-0.028-0.031-0.055-0.059-0.082-0.087l-0.77-0.77 0.77-0.77zM14.32 13.109c-0.157-0.168-0.38-0.273-0.627-0.273-0.473 0-0.857 0.384-0.857 0.857 0 0.247 0.105 0.47 0.272 0.627l0.001 0 1.68 1.68-1.68 1.68c-0.168 0.157-0.273 0.38-0.273 0.627 0 0.473 0.384 0.857 0.857 0.857 0.247 0 0.47-0.105 0.627-0.272l0-0 1.68-1.68 1.68 1.68c0.157 0.168 0.38 0.273 0.627 0.273 0.473 0 0.857-0.384 0.857-0.857 0-0.247-0.105-0.47-0.272-0.627l-0-0-1.68-1.68 1.68-1.68c0.168-0.157 0.273-0.38 0.273-0.627 0-0.473-0.384-0.857-0.857-0.857-0.247 0-0.47 0.105-0.627 0.272l-0 0.001-1.68 1.68-1.68-1.68zM28.571 4.286c0-0.473-0.384-0.857-0.857-0.857s-0.857 0.384-0.857 0.857v0 1.714c0 1.42-1.151 2.571-2.571 2.571v0h-3.143v-4.286c0-0.473-0.384-0.857-0.857-0.857s-0.857 0.384-0.857 0.857v0 4.286h-6.857v-4.286c0-0.473-0.384-0.857-0.857-0.857s-0.857 0.384-0.857 0.857v0 4.286h-3.143c-1.42 0-2.571-1.151-2.571-2.571v0-1.714c0-0.473-0.384-0.857-0.857-0.857s-0.857 0.384-0.857 0.857v0 1.714c0 2.367 1.919 4.286 4.286 4.286v0h16.571c2.367 0 4.286-1.919 4.286-4.286v0-1.714zM28.571 26c0-2.367-1.919-4.286-4.286-4.286v0h-16.571c-2.367 0-4.286 1.919-4.286 4.286v0 2.857c0 0.473 0.384 0.857 0.857 0.857s0.857-0.384 0.857-0.857v0-2.857c0-1.42 1.151-2.571 2.571-2.571v0h3.143v5.429c0 0.473 0.384 0.857 0.857 0.857s0.857-0.384 0.857-0.857v0-5.429h6.857v5.429c0 0.473 0.384 0.857 0.857 0.857s0.857-0.384 0.857-0.857v0-5.429h3.143c1.42 0 2.571 1.151 2.571 2.571v0 2.857c0 0.473 0.384 0.857 0.857 0.857s0.857-0.384 0.857-0.857v0-2.857z"></path>
</svg>
