<!-- Generated by IcoMoon.io -->
<svg version="1.1" xmlns="http://www.w3.org/2000/svg" width="32" height="32" viewBox="0 0 32 32">
<title>table-move-below-regular</title>
<path d="M28.571 27.714c0 0.473-0.384 0.857-0.857 0.857v0h-23.429c-0.473 0-0.857-0.384-0.857-0.857s0.384-0.857 0.857-0.857v0h23.429c0.473 0 0.857 0.384 0.857 0.857v0zM20.066 20.671c-0.176-0.198-0.388-0.359-0.626-0.474l-0.012-0.005v-7.621h-6.857v7.621c-0.419 0.201-0.749 0.532-0.946 0.939l-0.005 0.012h-7.049c-0.631 0-1.143-0.512-1.143-1.143v0-12.286c0-2.367 1.919-4.286 4.286-4.286v0h16.571c2.367 0 4.286 1.919 4.286 4.286v0 12.286c0 0.631-0.512 1.143-1.143 1.143v0h-7.049c-0.087-0.18-0.191-0.336-0.315-0.474l0.002 0.002zM21.143 19.429h5.714v-6.857h-5.714v6.857zM21.143 10.857h5.714v-3.143c0-1.42-1.151-2.571-2.571-2.571v0h-3.143v5.714zM19.429 5.143h-6.857v5.714h6.857v-5.714zM7.714 5.143c-1.42 0-2.571 1.151-2.571 2.571v0 3.143h5.714v-5.714h-3.143zM5.143 12.571v6.857h5.714v-6.857h-5.714zM13.998 21.36l1.145 1.017v-4.091c0-0.473 0.384-0.857 0.857-0.857s0.857 0.384 0.857 0.857v0 4.091l1.145-1.017c0.147-0.121 0.337-0.194 0.544-0.194 0.473 0 0.857 0.384 0.857 0.857 0 0.242-0.101 0.461-0.262 0.617l-0 0-2.571 2.286c-0.151 0.134-0.35 0.216-0.569 0.216s-0.419-0.082-0.57-0.217l-2.571-2.285c-0.192-0.158-0.314-0.396-0.314-0.663 0-0.473 0.384-0.857 0.857-0.857 0.231 0 0.441 0.091 0.595 0.24l-0-0z"></path>
</svg>
