<!-- Generated by IcoMoon.io -->
<svg version="1.1" xmlns="http://www.w3.org/2000/svg" width="32" height="32" viewBox="0 0 32 32">
<title>table-resize-column</title>
<path d="M10.766 15.143h10.469l-1.017-1.145c-0.121-0.147-0.194-0.337-0.194-0.544 0-0.473 0.384-0.857 0.857-0.857 0.242 0 0.461 0.101 0.617 0.262l0 0 2.283 2.568c0.136 0.151 0.22 0.352 0.22 0.572 0 0.213-0.078 0.407-0.206 0.557l0.001-0.001-0.011 0.014-2.286 2.571c-0.158 0.177-0.387 0.288-0.641 0.288-0.473 0-0.857-0.384-0.857-0.857 0-0.219 0.082-0.419 0.217-0.57l1.016-1.144h-10.467l1.017 1.145c0.121 0.147 0.194 0.337 0.194 0.544 0 0.473-0.384 0.857-0.857 0.857-0.242 0-0.461-0.101-0.617-0.262l-0-0-2.286-2.571c-0.134-0.151-0.216-0.35-0.216-0.569s0.082-0.419 0.217-0.57l2.285-2.571c0.156-0.162 0.375-0.262 0.617-0.262 0.473 0 0.857 0.384 0.857 0.857 0 0.207-0.073 0.397-0.196 0.545l0.001-0.001-1.017 1.145zM3.429 24.286c0 2.367 1.919 4.286 4.286 4.286v0h16.571c2.367 0 4.286-1.919 4.286-4.286v0-16.571c0-2.367-1.919-4.286-4.286-4.286v0h-16.571c-2.367 0-4.286 1.919-4.286 4.286v0 16.571zM5.143 7.714c0-1.42 1.151-2.571 2.571-2.571v0h0.857v8.168l1.077-1.211c0.184-0.207 0.402-0.366 0.638-0.479v-6.478h11.429v6.478c0.235 0.112 0.454 0.272 0.638 0.48l1.077 1.211v-8.169h0.857c1.42 0 2.571 1.151 2.571 2.571v0 16.571c0 1.42-1.151 2.571-2.571 2.571v0h-0.857v-8.168l-1.077 1.211c-0.176 0.198-0.388 0.359-0.626 0.474l-0.012 0.005v6.478h-11.429v-6.478c-0.25-0.121-0.462-0.282-0.636-0.478l-0.002-0.002-1.077-1.211v8.169h-0.857c-1.42 0-2.571-1.151-2.571-2.571v0-16.571z"></path>
</svg>
