<!-- Generated by IcoMoon.io -->
<svg version="1.1" xmlns="http://www.w3.org/2000/svg" width="32" height="32" viewBox="0 0 32 32">
<title>table-stack-right</title>
<path d="M20.667 5c0-0.552-0.448-1-1-1h-11.333c-2.393 0-4.333 1.94-4.333 4.333v15.333c0 2.393 1.94 4.333 4.333 4.333h11.333c0.552 0 1-0.448 1-1v-22zM18.667 13.333v5.333h-5.333v-5.333h5.333zM6 18.667v-5.333h5.333v5.333h-5.333zM18.667 11.333h-5.333v-5.333h5.333v5.333zM11.333 11.333h-5.333v-3c0-1.289 1.045-2.333 2.333-2.333h3v5.333zM11.333 26h-3c-1.289 0-2.333-1.045-2.333-2.333v-3h5.333v5.333zM13.333 20.667h5.333v5.333h-5.333v-5.333z"></path>
<path d="M26 5c0-0.552 0.448-1 1-1s1 0.448 1 1v22c0 0.552-0.448 1-1 1s-1-0.448-1-1v-22z"></path>
</svg>
