<!-- Generated by IcoMoon.io -->
<svg version="1.1" xmlns="http://www.w3.org/2000/svg" width="32" height="32" viewBox="0 0 32 32">
<title>table-resize-column</title>
<path d="M20.773 15h-9.546l1.187-1.336c0.367-0.413 0.33-1.045-0.083-1.412s-1.045-0.33-1.412 0.083l-2.667 3c-0.337 0.379-0.337 0.95 0 1.329l2.667 3c0.367 0.413 0.999 0.45 1.412 0.083s0.45-0.999 0.083-1.412l-1.187-1.336h9.546l-1.187 1.336c-0.367 0.413-0.33 1.045 0.083 1.412s1.045 0.33 1.412-0.083l2.667-3c0.005-0.005 0.009-0.011 0.014-0.016 0.14-0.165 0.228-0.375 0.238-0.606 0.001-0.027 0.001-0.054 0-0.081-0.009-0.241-0.104-0.461-0.255-0.629l-2.664-2.997c-0.367-0.413-0.999-0.45-1.412-0.083s-0.45 0.999-0.083 1.412l1.187 1.336z"></path>
<path d="M23.667 4c2.393 0 4.333 1.94 4.333 4.333v15.333c0 2.393-1.94 4.333-4.333 4.333h-15.333c-2.393 0-4.333-1.94-4.333-4.333v-15.333c0-2.393 1.94-4.333 4.333-4.333h15.333zM26 8.333c0-1.289-1.045-2.333-2.333-2.333h-0.333v6.863l-1.256-1.413c-0.215-0.242-0.469-0.428-0.744-0.559v-4.891h-10.667v4.891c-0.275 0.13-0.529 0.317-0.744 0.559l-1.256 1.413v-6.863h-0.333c-1.289 0-2.333 1.045-2.333 2.333v15.333c0 1.289 1.045 2.333 2.333 2.333h0.333v-6.863l1.256 1.413c0.215 0.242 0.469 0.428 0.744 0.559v4.891h10.667v-4.891c0.275-0.13 0.529-0.317 0.744-0.559l1.256-1.413v6.863h0.333c1.289 0 2.333-1.045 2.333-2.333v-15.333z"></path>
</svg>
