<!-- Generated by IcoMoon.io -->
<svg version="1.1" xmlns="http://www.w3.org/2000/svg" width="32" height="32" viewBox="0 0 32 32">
<title>table-stack-right-regular</title>
<path d="M3.429 24.286c0 2.367 1.919 4.286 4.286 4.286v0h12.286c0.631 0 1.143-0.512 1.143-1.143v0-22.857c0-0.631-0.512-1.143-1.143-1.143v0h-12.286c-2.367 0-4.286 1.919-4.286 4.286v0 16.571zM19.429 10.857h-6.857v-5.714h6.857v5.714zM12.571 12.571h6.857v6.857h-6.857v-6.857zM10.857 10.857h-5.714v-3.143c0-1.42 1.151-2.571 2.571-2.571v0h3.143v5.714zM5.143 12.571h5.714v6.857h-5.714v-6.857zM5.143 24.286v-3.143h5.714v5.714h-3.143c-1.42 0-2.571-1.151-2.571-2.571v0zM12.571 26.857v-5.714h6.857v5.714h-6.857zM28.571 4.286c0-0.473-0.384-0.857-0.857-0.857s-0.857 0.384-0.857 0.857v0 23.429c0 0.473 0.384 0.857 0.857 0.857s0.857-0.384 0.857-0.857v0-23.429z"></path>
</svg>
