<!-- Generated by IcoMoon.io -->
<svg version="1.1" xmlns="http://www.w3.org/2000/svg" width="32" height="32" viewBox="0 0 32 32">
<title>table-freeze-column</title>
<path d="M7.714 3.429c-2.367 0-4.286 1.919-4.286 4.286v0 16.571c0 2.367 1.919 4.286 4.286 4.286v0h16.571c2.367 0 4.286-1.919 4.286-4.286v0-16.571c0-2.367-1.919-4.286-4.286-4.286v0h-16.571zM12.571 26.857v-5.714h6.857v5.714h-6.857zM19.429 12.571v6.857h-6.857v-6.857h6.857zM21.143 26.857v-5.714h5.714v3.143c0 1.42-1.151 2.571-2.571 2.571v0h-3.143zM26.857 12.571v6.857h-5.714v-6.857h5.714zM24.286 5.143c1.42 0 2.571 1.151 2.571 2.571v0 3.143h-5.714v-5.714h3.143zM12.571 5.143h6.857v5.714h-6.857v-5.714zM7.714 26.857c-1.42 0-2.571-1.151-2.571-2.571v0-16.571c0-1.42 1.151-2.571 2.571-2.571v0h3.143v21.714h-3.143z"></path>
</svg>
