<!-- Generated by IcoMoon.io -->
<svg version="1.1" xmlns="http://www.w3.org/2000/svg" width="32" height="32" viewBox="0 0 32 32">
<title>table-dismiss-regular</title>
<path d="M3.429 7.714c0-2.367 1.919-4.286 4.286-4.286v0h16.571c2.367 0 4.286 1.919 4.286 4.286v0 8.857c-0.496-0.377-1.060-0.712-1.66-0.979l-0.054-0.022v-2.999h-5.714v2.594c-0.656 0.183-1.225 0.415-1.76 0.702l0.045-0.022v-3.274h-6.857v6.857h3.274c-0.265 0.489-0.497 1.059-0.665 1.654l-0.014 0.060h-2.594v5.714h2.999c0.267 0.611 0.605 1.186 1 1.714h-8.856c-2.367 0-4.286-1.919-4.286-4.286v0-16.571zM5.143 21.143v3.143c0 1.42 1.151 2.571 2.571 2.571v0h3.143v-5.714h-5.714zM10.857 19.429v-6.857h-5.714v6.857h5.714zM26.857 7.714c0-1.42-1.151-2.571-2.571-2.571v0h-3.143v5.714h5.714v-3.143zM19.429 5.143h-6.857v5.714h6.857v-5.714zM10.857 5.143h-3.143c-1.42 0-2.571 1.151-2.571 2.571v0 3.143h5.714v-5.714zM30.857 23.429c0 4.103-3.326 7.429-7.429 7.429s-7.429-3.326-7.429-7.429v0c0-4.103 3.326-7.429 7.429-7.429s7.429 3.326 7.429 7.429v0zM20.405 19.595c-0.104-0.104-0.247-0.168-0.405-0.168-0.316 0-0.572 0.256-0.572 0.572 0 0.158 0.064 0.301 0.168 0.405l3.025 3.024-3.025 3.024c-0.104 0.104-0.168 0.247-0.168 0.405 0 0.316 0.256 0.572 0.572 0.572 0.158 0 0.301-0.064 0.405-0.168l3.024-3.025 3.024 3.025c0.104 0.104 0.247 0.168 0.405 0.168 0.316 0 0.572-0.256 0.572-0.572 0-0.158-0.064-0.301-0.168-0.405l-3.025-3.024 3.025-3.024c0.104-0.104 0.168-0.247 0.168-0.405 0-0.316-0.256-0.572-0.572-0.572-0.158 0-0.301 0.064-0.405 0.168l-3.024 3.025-3.024-3.025z"></path>
</svg>
