<!-- Generated by IcoMoon.io -->
<svg version="1.1" xmlns="http://www.w3.org/2000/svg" width="32" height="32" viewBox="0 0 32 32">
<title>table-delete-column</title>
<path d="M15.143 28.857v-8.831c0.030-0.026 0.058-0.054 0.087-0.082l0.77-0.77 0.77 0.77c0.029 0.029 0.057 0.056 0.087 0.082v8.831c0 0.473-0.384 0.857-0.857 0.857s-0.857-0.384-0.857-0.857v0zM15.23 12.343c-0.028-0.028-0.056-0.056-0.085-0.082l-0.002-0.002v-9.117c0-0.473 0.384-0.857 0.857-0.857s0.857 0.384 0.857 0.857v0 9.117c-0.031 0.028-0.059 0.055-0.087 0.082l-0.77 0.77-0.77-0.77zM13.109 17.68c-0.168 0.157-0.273 0.38-0.273 0.627 0 0.473 0.384 0.857 0.857 0.857 0.247 0 0.47-0.105 0.627-0.272l0-0 1.68-1.68 1.68 1.68c0.157 0.168 0.38 0.273 0.627 0.273 0.473 0 0.857-0.384 0.857-0.857 0-0.247-0.105-0.47-0.272-0.627l-0-0-1.68-1.68 1.68-1.68c0.168-0.157 0.273-0.38 0.273-0.627 0-0.473-0.384-0.857-0.857-0.857-0.247 0-0.47 0.105-0.627 0.272l-0 0.001-1.68 1.68-1.68-1.68c-0.157-0.168-0.38-0.273-0.627-0.273-0.473 0-0.857 0.384-0.857 0.857 0 0.247 0.105 0.47 0.272 0.627l0.001 0 1.68 1.68-1.68 1.68zM4.286 3.429c-0.473 0-0.857 0.384-0.857 0.857s0.384 0.857 0.857 0.857v0h1.714c1.42 0 2.571 1.151 2.571 2.571v0 3.143h-4.286c-0.473 0-0.857 0.384-0.857 0.857s0.384 0.857 0.857 0.857v0h4.286v6.857h-4.286c-0.473 0-0.857 0.384-0.857 0.857s0.384 0.857 0.857 0.857v0h4.286v3.143c0 1.42-1.151 2.571-2.571 2.571v0h-1.714c-0.473 0-0.857 0.384-0.857 0.857s0.384 0.857 0.857 0.857v0h1.714c2.367 0 4.286-1.919 4.286-4.286v0-16.571c0-2.367-1.919-4.286-4.286-4.286v0h-1.714zM26 3.429c-2.367 0-4.286 1.919-4.286 4.286v0 16.571c0 2.367 1.919 4.286 4.286 4.286v0h2.857c0.473 0 0.857-0.384 0.857-0.857s-0.384-0.857-0.857-0.857v0h-2.857c-1.42 0-2.571-1.151-2.571-2.571v0-3.143h5.429c0.473 0 0.857-0.384 0.857-0.857s-0.384-0.857-0.857-0.857v0h-5.429v-6.857h5.429c0.473 0 0.857-0.384 0.857-0.857s-0.384-0.857-0.857-0.857v0h-5.429v-3.143c0-1.42 1.151-2.571 2.571-2.571v0h2.857c0.473 0 0.857-0.384 0.857-0.857s-0.384-0.857-0.857-0.857v0h-2.857z"></path>
</svg>
