<!-- Generated by IcoMoon.io -->
<svg version="1.1" xmlns="http://www.w3.org/2000/svg" width="32" height="32" viewBox="0 0 32 32">
<title>table-calculator</title>
<path d="M27.2 8.8c0-2.209-1.791-4-4-4v0h-14.4c-2.209 0-4 1.791-4 4v0 14.4c0 2.209 1.791 4 4 4v0h8.8v-1.6h-4.8v-4.8h4.8v-1.6h-4.8v-6.4h6.4v0.8c0.464-0.35 1.008-0.6 1.6-0.72v-0.080h6.4v-4zM6.4 23.2v-2.4h4.8v4.8h-2.4l-0.23-0.011c-1.223-0.121-2.17-1.145-2.17-2.389v0zM19.2 11.2h-6.4v-4.8h6.4v4.8zM20.8 6.4h2.4l0.232 0.011c1.222 0.122 2.168 1.145 2.168 2.389 0 0 0 0 0 0v0 2.4h-4.8v-4.8zM6.4 11.2v-2.4l0.011-0.23c0.121-1.223 1.144-2.17 2.389-2.17h2.4v4.8h-4.8zM11.2 12.8v6.4h-4.8v-6.4h4.8zM19.2 16.8c0-1.325 1.075-2.4 2.4-2.4v0h6.4c1.325 0 2.4 1.075 2.4 2.4v0 11.2c0 1.325-1.075 2.4-2.4 2.4v0h-6.4c-1.325 0-2.4-1.075-2.4-2.4v0-11.2zM23.2 20.8h-1.6c-0.442 0-0.8 0.358-0.8 0.8s0.358 0.8 0.8 0.8v0h1.6c0.442 0 0.8-0.358 0.8-0.8s-0.358-0.8-0.8-0.8v0zM28.8 21.6c0-0.442-0.358-0.8-0.8-0.8v0h-1.6c-0.442 0-0.8 0.358-0.8 0.8s0.358 0.8 0.8 0.8v0h1.6c0.442 0 0.8-0.358 0.8-0.8v0zM23.2 24h-1.6c-0.442 0-0.8 0.358-0.8 0.8s0.358 0.8 0.8 0.8v0h1.6c0.442 0 0.8-0.358 0.8-0.8s-0.358-0.8-0.8-0.8v0zM28.8 24.8c0-0.442-0.358-0.8-0.8-0.8v0h-1.6c-0.442 0-0.8 0.358-0.8 0.8s0.358 0.8 0.8 0.8v0h1.6c0.442 0 0.8-0.358 0.8-0.8v0zM23.2 27.2h-1.6c-0.442 0-0.8 0.358-0.8 0.8s0.358 0.8 0.8 0.8v0h1.6c0.442 0 0.8-0.358 0.8-0.8s-0.358-0.8-0.8-0.8v0zM28.8 28c0-0.442-0.358-0.8-0.8-0.8v0h-1.6c-0.442 0-0.8 0.358-0.8 0.8s0.358 0.8 0.8 0.8v0h1.6c0.442 0 0.8-0.358 0.8-0.8v0zM21.6 16c-0.442 0-0.8 0.358-0.8 0.8v0 1.6c0 0.442 0.358 0.8 0.8 0.8v0h6.4c0.442 0 0.8-0.358 0.8-0.8v0-1.6c0-0.442-0.358-0.8-0.8-0.8v0h-6.4z"></path>
</svg>
