<!-- Generated by IcoMoon.io -->
<svg version="1.1" xmlns="http://www.w3.org/2000/svg" width="32" height="32" viewBox="0 0 32 32">
<title>table-cells-split</title>
<path d="M16.667 13.333h-2v5.333h2v-5.333z"></path>
<path d="M4 8.333c0-2.393 1.94-4.333 4.333-4.333h15.333c2.393 0 4.333 1.94 4.333 4.333v15.333c0 2.393-1.94 4.333-4.333 4.333h-15.333c-2.393 0-4.333-1.94-4.333-4.333v-15.333zM8.333 6c-1.289 0-2.333 1.045-2.333 2.333v1.667h8.667v-4h-6.333zM26 22h-9.333v4h7c1.289 0 2.333-1.045 2.333-2.333v-1.667zM26 8.333c0-1.289-1.045-2.333-2.333-2.333h-7v4h9.333v-1.667zM6 22v1.667c0 1.289 1.045 2.333 2.333 2.333h6.333v-4h-8.667zM6 20h20v-8h-20v8z"></path>
</svg>
