<!-- Generated by IcoMoon.io -->
<svg version="1.1" xmlns="http://www.w3.org/2000/svg" width="32" height="32" viewBox="0 0 32 32">
<title>table-stack-left</title>
<path d="M3.429 27.714c0 0.473 0.384 0.857 0.857 0.857s0.857-0.384 0.857-0.857v0-23.429c0-0.473-0.384-0.857-0.857-0.857s-0.857 0.384-0.857 0.857v0 23.429zM28.571 7.714c0-2.367-1.919-4.286-4.286-4.286v0h-12.286c-0.631 0-1.143 0.512-1.143 1.143v0 22.857c0 0.631 0.512 1.143 1.143 1.143v0h12.286c2.367 0 4.286-1.919 4.286-4.286v0-16.571zM12.571 21.143h6.857v5.714h-6.857v-5.714zM19.429 19.429h-6.857v-6.857h6.857v6.857zM21.143 21.143h5.714v3.143c0 1.42-1.151 2.571-2.571 2.571v0h-3.143v-5.714zM26.857 19.429h-5.714v-6.857h5.714v6.857zM26.857 7.714v3.143h-5.714v-5.714h3.143c1.42 0 2.571 1.151 2.571 2.571v0zM19.429 5.143v5.714h-6.857v-5.714h6.857z"></path>
</svg>
