<!-- Generated by IcoMoon.io -->
<svg version="1.1" xmlns="http://www.w3.org/2000/svg" width="32" height="32" viewBox="0 0 32 32">
<title>tabs-regular</title>
<path d="M2.667 12.333c0-5.339 4.328-9.667 9.667-9.667v0h4.667c1.792 0 3.329 1.087 3.989 2.638l0.011 0.028h-2.367c-0.421-0.413-0.997-0.667-1.633-0.667h-4.667c-4.234 0-7.667 3.432-7.667 7.667v0 4.667c0 0.636 0.253 1.213 0.667 1.633v2.367c-1.579-0.671-2.667-2.208-2.667-4v0-4.667zM6.667 13.667c0-3.867 3.133-7 7-7h7.333c1.792 0 3.329 1.087 3.989 2.638l0.011 0.028h-2.367c-0.421-0.413-0.997-0.667-1.633-0.667h-7.333c-2.761 0-5 2.239-5 5v0 7.333c0 0.636 0.253 1.213 0.667 1.633v2.367c-1.579-0.671-2.667-2.208-2.667-4v0-7.333zM15 10.667c-2.393 0-4.333 1.94-4.333 4.333v0 10c0 2.393 1.94 4.333 4.333 4.333v0h10c2.393 0 4.333-1.94 4.333-4.333v0-10c0-2.393-1.94-4.333-4.333-4.333v0h-10zM12.667 15c0-1.288 1.045-2.333 2.333-2.333h10c1.288 0 2.333 1.045 2.333 2.333v10c0 1.289-1.045 2.333-2.333 2.333v0h-10c-1.289 0-2.333-1.045-2.333-2.333v0-10z"></path>
</svg>
