<!-- Generated by IcoMoon.io -->
<svg version="1.1" xmlns="http://www.w3.org/2000/svg" width="32" height="32" viewBox="0 0 32 32">
<title>tabs</title>
<path d="M15 10.665h10l0.319 0.012c2.163 0.158 3.885 1.903 4.007 4.076l0.007 0.246v10c0 2.311-1.809 4.199-4.087 4.327l-0.246 0.007h-10c-2.311 0-4.199-1.809-4.326-4.087l-0.007-0.246v-10c0-2.311 1.809-4.199 4.087-4.326l0.246-0.007zM12.667 24.998l0.006 0.17 0.024 0.209c0.171 1.047 1.039 1.86 2.111 1.947l0.191 0.008h10c1.224 0 2.228-0.943 2.326-2.142l0.008-0.191v-10c0-1.289-1.045-2.333-2.333-2.333h-10c-1.224 0-2.228 0.943-2.326 2.142l-0.008 0.191v10zM21 6.667c0.107 0 0.214 0.004 0.319 0.012 1.663 0.121 3.066 1.181 3.681 2.652l-2.37-0.001c-0.378-0.369-0.88-0.61-1.438-0.656l-0.191-0.008h-10c-1.224 0-2.228 0.943-2.326 2.142l-0.008 0.191v10l0.014 0.261c0.059 0.532 0.297 1.010 0.652 1.372l-0 2.368c-1.494-0.623-2.565-2.059-2.66-3.755l-0.007-0.246v-10c0-2.311 1.809-4.199 4.087-4.326l0.246-0.007h10zM17 2.667c1.733 0 3.228 1.017 3.922 2.487l0.078 0.179-2.369-0.002c-0.378-0.37-0.881-0.612-1.44-0.657l-0.191-0.008h-10c-1.224 0-2.228 0.943-2.326 2.142l-0.008 0.191v10c0 0.636 0.254 1.212 0.667 1.633l-0 2.368c-1.494-0.623-2.565-2.059-2.66-3.755l-0.007-0.246v-10c0-2.311 1.809-4.199 4.087-4.326l0.246-0.007h10z"></path>
</svg>
