<!-- Generated by IcoMoon.io -->
<svg version="1.1" xmlns="http://www.w3.org/2000/svg" width="32" height="32" viewBox="0 0 32 32">
<title>tag-error</title>
<path d="M26.333 2.667c1.657 0 3 1.343 3 3v7.283c0 1.149-0.456 2.251-1.269 3.064l-0.035 0.035c-0.59-0.381-1.229-0.692-1.906-0.922l0.527-0.527c0.437-0.437 0.683-1.031 0.683-1.65v-7.283c0-0.552-0.448-1-1-1h-7.287c-0.619 0-1.213 0.246-1.651 0.684l-11.35 11.363c-0.894 0.913-0.887 2.378 0.020 3.283l5.948 5.939c0.851 0.847 2.191 0.905 3.107 0.174 0.219 0.649 0.513 1.263 0.871 1.832-1.676 1.067-3.925 0.871-5.391-0.59l-5.949-5.94c-1.694-1.691-1.696-4.434-0.005-6.128l11.333-11.346c0.813-0.814 1.916-1.271 3.066-1.271h7.287zM22.666 7.336c1.105 0 2 0.895 2 2s-0.895 2-2 2c-1.105 0-2-0.895-2-2s0.895-2 2-2zM30.666 23.333c0 4.050-3.283 7.333-7.333 7.333s-7.333-3.283-7.333-7.333 3.283-7.333 7.333-7.333c4.050 0 7.333 3.283 7.333 7.333zM23.333 18.667c-0.368 0-0.667 0.299-0.667 0.667v5.333c0 0.368 0.299 0.667 0.667 0.667s0.667-0.299 0.667-0.667v-5.333c0-0.368-0.298-0.667-0.667-0.667zM23.333 28.167c0.46 0 0.833-0.373 0.833-0.833s-0.373-0.833-0.833-0.833c-0.46 0-0.833 0.373-0.833 0.833s0.373 0.833 0.833 0.833z"></path>
</svg>
