<!-- Generated by IcoMoon.io -->
<svg version="1.1" xmlns="http://www.w3.org/2000/svg" width="32" height="32" viewBox="0 0 32 32">
<title>tag-lock</title>
<path d="M17.318 5.54c0.356-0.334 0.837-0.54 1.366-0.54h6.816c0.828 0 1.5 0.672 1.5 1.5v0 6.757c0 0 0 0 0 0.001 0 0.552-0.224 1.052-0.586 1.414l-0.365 0.365c0.533 0.41 0.98 0.926 1.312 1.516l0.467-0.467c0.724-0.724 1.172-1.724 1.172-2.829 0-0 0-0 0-0v0-6.757c0-1.933-1.567-3.5-3.5-3.5v0h-6.816c-1.058 0-2.019 0.411-2.734 1.081l0.002-0.002-12.182 11.395c-0.83 0.778-1.347 1.88-1.347 3.104 0 1.174 0.476 2.237 1.246 3.006l6.326 6.325c0.769 0.769 1.832 1.245 3.007 1.245 0.751 0 1.457-0.195 2.069-0.536l-0.022 0.011c-0.032-0.189-0.050-0.407-0.050-0.629v-1.914l-0.408 0.409c-0.407 0.407-0.97 0.659-1.591 0.659s-1.184-0.252-1.591-0.659l-6.326-6.326c-0.407-0.407-0.659-0.97-0.659-1.591 0-0.648 0.274-1.231 0.712-1.642l0.001-0.001 12.18-11.396zM22.5 12c1.381 0 2.5-1.119 2.5-2.5s-1.119-2.5-2.5-2.5v0c-1.381 0-2.5 1.119-2.5 2.5s1.119 2.5 2.5 2.5v0zM19.5 19.5h-0.5c-1.381 0-2.5 1.119-2.5 2.5v0 6c0 1.381 1.119 2.5 2.5 2.5v0h8c1.381 0 2.5-1.119 2.5-2.5v0-6c0-1.381-1.119-2.5-2.5-2.5v0h-0.5v-0.5c0-1.933-1.567-3.5-3.5-3.5s-3.5 1.567-3.5 3.5v0 0.5zM21.5 19c0-0.828 0.672-1.5 1.5-1.5s1.5 0.672 1.5 1.5v0 0.5h-3v-0.5zM25 25c0 1.105-0.895 2-2 2s-2-0.895-2-2v0c0-1.105 0.895-2 2-2s2 0.895 2 2v0z"></path>
</svg>
