<!-- Generated by IcoMoon.io -->
<svg version="1.1" xmlns="http://www.w3.org/2000/svg" width="32" height="32" viewBox="0 0 32 32">
<title>tag-circle</title>
<path d="M12 11.2c-1.325 0-2.4 1.075-2.4 2.4v0 4.8c0 1.325 1.075 2.4 2.4 2.4v0h6.493c0.64 0 1.262-0.219 1.76-0.624l2.858-2.31c0.545-0.444 0.89-1.114 0.89-1.866s-0.345-1.422-0.886-1.862l-0.004-0.003-2.858-2.31c-0.476-0.388-1.091-0.623-1.76-0.624h-6.493zM11.2 13.6c0-0.442 0.358-0.8 0.8-0.8v0h6.493c0.287 0 0.55 0.101 0.756 0.269l-0.002-0.002 2.858 2.31c0.182 0.148 0.297 0.372 0.297 0.622s-0.115 0.475-0.296 0.621l-0.001 0.001-2.858 2.31c-0.204 0.166-0.467 0.267-0.754 0.267h-6.493c-0.442 0-0.8-0.358-0.8-0.8v0-4.8zM16 3.2c-7.069 0-12.8 5.731-12.8 12.8s5.731 12.8 12.8 12.8v0c7.069 0 12.8-5.731 12.8-12.8s-5.731-12.8-12.8-12.8v0zM4.8 16c0-6.186 5.014-11.2 11.2-11.2s11.2 5.014 11.2 11.2v0c0 6.186-5.014 11.2-11.2 11.2s-11.2-5.014-11.2-11.2v0z"></path>
</svg>
