<!-- Generated by IcoMoon.io -->
<svg version="1.1" xmlns="http://www.w3.org/2000/svg" width="32" height="32" viewBox="0 0 32 32">
<title>tag-regular</title>
<path d="M22.5 12c1.381 0 2.5-1.119 2.5-2.5s-1.119-2.5-2.5-2.5v0c-1.381 0-2.5 1.119-2.5 2.5s1.119 2.5 2.5 2.5v0zM18.684 3c-1.058 0-2.019 0.411-2.734 1.081l0.002-0.002-12.182 11.395c-0.83 0.778-1.347 1.88-1.347 3.104 0 1.174 0.476 2.237 1.246 3.006l6.326 6.325c0.769 0.769 1.832 1.245 3.005 1.245s2.236-0.476 3.005-1.245l11.823-11.823c0.724-0.724 1.172-1.724 1.172-2.829 0-0 0-0 0-0v0-6.757c0-1.933-1.567-3.5-3.5-3.5v0h-6.816zM17.318 5.54c0.356-0.334 0.837-0.54 1.366-0.54h6.816c0.828 0 1.5 0.672 1.5 1.5v0 6.757c0 0 0 0 0 0.001 0 0.552-0.224 1.052-0.586 1.414l-11.823 11.823c-0.407 0.407-0.97 0.659-1.591 0.659s-1.184-0.252-1.591-0.659l-6.326-6.326c-0.407-0.407-0.659-0.97-0.659-1.591 0-0.648 0.274-1.231 0.712-1.642l0.001-0.001 12.18-11.396z"></path>
</svg>
