<!-- Generated by IcoMoon.io -->
<svg version="1.1" xmlns="http://www.w3.org/2000/svg" width="32" height="32" viewBox="0 0 32 32">
<title>tag</title>
<path d="M26.333 2.667c1.657 0 3 1.343 3 3v7.283c0 1.149-0.456 2.251-1.269 3.064l-11.335 11.337c-1.693 1.689-4.434 1.69-6.128 0.002l-5.949-5.94c-1.694-1.691-1.696-4.434-0.005-6.128l11.333-11.346c0.813-0.814 1.916-1.271 3.066-1.271h7.287zM26.333 4.667h-7.287c-0.619 0-1.213 0.246-1.651 0.684l-11.35 11.363c-0.894 0.913-0.887 2.378 0.020 3.283l5.948 5.939c0.913 0.91 2.391 0.909 3.303-0.001l11.334-11.337c0.437-0.437 0.683-1.031 0.683-1.65v-7.283c0-0.552-0.448-1-1-1zM22.667 7.336c1.105 0 2 0.895 2 2s-0.895 2-2 2c-1.105 0-2-0.895-2-2s0.895-2 2-2z"></path>
</svg>
