<!-- Generated by IcoMoon.io -->
<svg version="1.1" xmlns="http://www.w3.org/2000/svg" width="32" height="32" viewBox="0 0 32 32">
<title>tap-single</title>
<path d="M15.667 8c1.798 0 2.905 1.292 2.994 3.105l0.006 0.239v2.821l2.959 0.537c0.116 0.021 0.231 0.047 0.344 0.077 2.232 0.596 3.59 2.831 3.125 5.066l-0.057 0.239-1.397 5.231c-0.291 1.088-1.164 1.915-2.252 2.155l-0.22 0.040-3.224 0.463c-1.233 0.177-2.438-0.426-3.040-1.498l-0.106-0.206-0.039-0.083c-0.313-0.673-0.783-1.259-1.368-1.711l-0.258-0.185-2.512-1.674-0.125-0.078-0.13-0.070-3.151-1.567c-0.333-0.165-0.546-0.502-0.554-0.873-0.033-1.478 0.621-2.619 1.892-3.254 0.936-0.468 2.18-0.441 3.768 0.022l0.346 0.106v-5.557c0-1.938 1.124-3.345 3-3.345zM15.667 10c-0.613 0-0.95 0.367-0.995 1.155l-0.005 0.19v6.992c0 0.712-0.723 1.196-1.381 0.925-1.947-0.803-3.255-0.99-3.838-0.699-0.339 0.169-0.56 0.388-0.68 0.692l-0.051 0.159 2.54 1.264 0.241 0.13 0.232 0.145 2.512 1.674c0.91 0.607 1.654 1.429 2.168 2.391l0.163 0.326 0.039 0.083c0.165 0.355 0.52 0.577 0.904 0.578l0.145-0.010 3.224-0.463c0.347-0.050 0.639-0.276 0.775-0.592l0.049-0.14 1.397-5.231c0.333-1.245-0.407-2.524-1.652-2.857l-0.092-0.023-3.873-0.705c-0.428-0.078-0.751-0.421-0.811-0.841l-0.010-0.143v-3.655c0-0.919-0.339-1.345-1-1.345zM15.665 3.333c4.234 0 7.667 3.433 7.667 7.667 0 0.937-0.168 1.835-0.476 2.665l-0.192-0.070c-0.193-0.068-0.466-0.155-0.81-0.234-0.321-0.074-0.644-0.123-0.97-0.149 0.288-0.679 0.448-1.427 0.448-2.211 0-3.13-2.537-5.667-5.667-5.667s-5.667 2.537-5.667 5.667c0 1.392 0.502 2.667 1.335 3.654-0.431 0.037-0.798 0.092-1.099 0.165-0.468 0.113-0.784 0.226-1.003 0.35-0.78-1.198-1.233-2.63-1.233-4.168 0-4.234 3.433-7.667 7.667-7.667z"></path>
</svg>
