<!-- Generated by IcoMoon.io -->
<svg version="1.1" xmlns="http://www.w3.org/2000/svg" width="32" height="32" viewBox="0 0 32 32">
<title>tap-double-regular</title>
<path d="M8.333 11.667c0-4.050 3.283-7.333 7.333-7.333s7.333 3.283 7.333 7.333c0 0.983-0.193 1.92-0.544 2.776l0.127 0.027c0.544 0.118 1.025 0.306 1.466 0.556l-0.026-0.013c0.415-1.035 0.643-2.163 0.643-3.346 0-4.971-4.029-9-9-9s-9 4.029-9 9c0 1.763 0.507 3.407 1.383 4.795 0.492-0.246 1.065-0.416 1.671-0.474l0.020-0.002c-0.879-1.191-1.407-2.688-1.407-4.308 0-0.004 0-0.008 0-0.012v0.001zM21.667 11.667c0 0.889-0.193 1.732-0.54 2.491l-1.127-0.241v-2.249c-0.016-2.381-1.95-4.305-4.333-4.305-2.393 0-4.333 1.94-4.333 4.333 0 0.010 0 0.020 0 0.030v-0.002 4.093c-1.032-1.076-1.667-2.539-1.667-4.15 0-3.314 2.686-6 6-6s6 2.686 6 6v0zM14.333 11.667c0-0.736 0.597-1.333 1.333-1.333s1.333 0.597 1.333 1.333v0 4c0 0.393 0.275 0.733 0.659 0.815l4.295 0.922c0.985 0.217 1.712 1.083 1.712 2.118 0 0.205-0.028 0.403-0.081 0.59l0.004-0.015-1.53 5.564c-0.128 0.454-0.513 0.792-0.984 0.849l-0.006 0.001-4.161 0.487c-0.005 0-0.011 0.001-0.016 0.001-0.048 0-0.092-0.016-0.128-0.042l0.001 0c-0.075-0.052-0.135-0.122-0.173-0.204l-0.001-0.003c-0.957-2.048-3.397-4.276-8.195-6.48 0.256-0.762 0.963-1.302 1.797-1.302 0.234 0 0.459 0.043 0.666 0.121l-0.013-0.004 2.367 0.871c0.086 0.033 0.185 0.051 0.288 0.051 0.46 0 0.833-0.373 0.833-0.833 0 0 0 0 0-0v0-7.507zM15.667 8.667c-1.657 0-3 1.343-3 3v0 6.312l-1.247-0.459c-2.092-0.77-4.369 0.552-4.737 2.751-0.011 0.063-0.017 0.136-0.017 0.21 0 0.522 0.309 0.972 0.754 1.176l0.008 0.003c4.862 2.191 6.93 4.251 7.651 5.793 0.326 0.698 1.082 1.309 2.022 1.199l4.161-0.487c1.158-0.139 2.092-0.959 2.398-2.043l0.005-0.020 1.53-5.565c0.087-0.305 0.137-0.654 0.137-1.016 0-1.832-1.285-3.364-3.004-3.743l-0.025-0.005-3.637-0.781v-3.327c0-1.657-1.343-3-3-3v0z"></path>
</svg>
