<!-- Generated by IcoMoon.io -->
<svg version="1.1" xmlns="http://www.w3.org/2000/svg" width="32" height="32" viewBox="0 0 32 32">
<title>target-arrow</title>
<path d="M15.998 2.664c1.605 0 3.144 0.284 4.569 0.803l-1.592 1.592c-0.949-0.258-1.947-0.395-2.977-0.395-6.261 0-11.336 5.075-11.336 11.336s5.075 11.336 11.336 11.336c6.261 0 11.336-5.075 11.336-11.336 0-1.029-0.137-2.026-0.394-2.973l1.592-1.592c0.519 1.424 0.802 2.962 0.802 4.565 0 7.365-5.971 13.336-13.336 13.336s-13.336-5.971-13.336-13.336c0-7.365 5.971-13.336 13.336-13.336zM15.998 8c0.691 0 1.362 0.088 2.002 0.253l0 2.090c-0.626-0.222-1.3-0.342-2.003-0.342-3.314 0-6 2.686-6 6s2.686 6 6 6c3.314 0 6-2.686 6-6 0-0.701-0.12-1.374-0.341-2h2.089c0.165 0.639 0.252 1.309 0.252 2 0 4.418-3.582 8-8 8s-8-3.582-8-8 3.582-8 8-8zM18.664 16c0 1.473-1.194 2.667-2.667 2.667s-2.667-1.194-2.667-2.667 1.194-2.667 2.667-2.667c0.37 0 0.723 0.075 1.043 0.212l2.293-2.293-0-4.252c0-0.265 0.105-0.52 0.293-0.707l3.333-3.333c0.286-0.286 0.716-0.372 1.090-0.217s0.617 0.519 0.617 0.924v3.667l3.667 0c0.405 0 0.769 0.244 0.924 0.617s0.069 0.804-0.217 1.090l-3.333 3.333c-0.188 0.188-0.442 0.293-0.707 0.293h-4.253l-2.294 2.294c0.135 0.319 0.21 0.671 0.21 1.040zM24.586 10.667l1.333-1.333-2.253-0c-0.552 0-1-0.448-1-1v-2.252l-1.333 1.333 0 3.174c0.014 0.012 0.027 0.025 0.040 0.038s0.026 0.027 0.038 0.040h3.174z"></path>
</svg>
