<!-- Generated by IcoMoon.io -->
<svg version="1.1" xmlns="http://www.w3.org/2000/svg" width="32" height="32" viewBox="0 0 32 32">
<title>target-edit</title>
<path d="M15.999 18.667c1.472 0 2.666-1.194 2.666-2.666s-1.194-2.666-2.666-2.666c-1.472 0-2.666 1.194-2.666 2.666s1.194 2.666 2.666 2.666zM8.001 16c0-4.418 3.581-7.999 7.998-7.999s7.998 3.581 7.998 7.999c0 0.165-0.005 0.328-0.015 0.491l-3.545 3.546c0.97-1.066 1.561-2.482 1.561-4.036 0-3.313-2.686-5.999-5.998-5.999s-5.998 2.686-5.998 5.999c0 3.313 2.686 5.999 5.998 5.999 1.554 0 2.97-0.591 4.036-1.561l-3.38 3.38c-0.054 0.054-0.106 0.109-0.157 0.165-0.165 0.010-0.331 0.015-0.498 0.015-4.417 0-7.998-3.581-7.998-7.999zM15.999 4.666c5.813 0 10.604 4.377 11.257 10.016 0.689-0.057 1.389 0.049 2.038 0.317-0.512-6.896-6.269-12.332-13.295-12.332-7.363 0-13.333 5.97-13.333 13.334 0 6.915 5.263 12.6 12.001 13.268-0.003-0.237 0.024-0.481 0.085-0.727l0.311-1.245c-5.822-0.475-10.398-5.351-10.398-11.296 0-6.26 5.074-11.334 11.333-11.334zM25.465 16.893l-7.868 7.868c-0.459 0.459-0.784 1.034-0.941 1.663l-0.61 2.441c-0.265 1.061 0.696 2.023 1.757 1.757l2.44-0.61c0.629-0.157 1.204-0.483 1.663-0.942l7.868-7.869c1.19-1.19 1.19-3.119 0-4.309s-3.119-1.19-4.309 0z"></path>
</svg>
