<!-- Generated by IcoMoon.io -->
<svg version="1.1" xmlns="http://www.w3.org/2000/svg" width="32" height="32" viewBox="0 0 32 32">
<title>target</title>
<path d="M16 18c1.105 0 2-0.895 2-2s-0.895-2-2-2v0c-1.105 0-2 0.895-2 2s0.895 2 2 2v0zM9 16c0-3.866 3.134-7 7-7s7 3.134 7 7v0c0 3.866-3.134 7-7 7s-7-3.134-7-7v0zM16 11c-2.761 0-5 2.239-5 5s2.239 5 5 5v0c2.761 0 5-2.239 5-5s-2.239-5-5-5v0zM4 16.001c0-6.628 5.373-12.001 12.001-12.001s12.002 5.373 12.002 12.001c0 6.628-5.373 12.002-12.002 12.002-6.628 0-12.001-5.373-12.001-12.003zM16.001 6c-5.523 0-10.001 4.478-10.001 10.001 0 5.524 4.478 10.002 10.001 10.002 5.524 0 10.002-4.478 10.002-10.002 0-5.523-4.478-10.001-10.003-10.001z"></path>
</svg>
