<!-- Generated by IcoMoon.io -->
<svg version="1.1" xmlns="http://www.w3.org/2000/svg" width="32" height="32" viewBox="0 0 32 32">
<title>target</title>
<path d="M15.998 18.667c1.473 0 2.667-1.194 2.667-2.667s-1.194-2.667-2.667-2.667c-1.473 0-2.667 1.194-2.667 2.667s1.194 2.667 2.667 2.667z"></path>
<path d="M7.998 16c0-4.418 3.582-8 8-8s8 3.582 8 8c0 4.418-3.582 8-8 8s-8-3.582-8-8zM15.998 10c-3.314 0-6 2.686-6 6s2.686 6 6 6c3.314 0 6-2.686 6-6s-2.686-6-6-6z"></path>
<path d="M2.661 16c0-7.365 5.971-13.336 13.336-13.336s13.336 5.971 13.336 13.336c0 7.365-5.971 13.336-13.336 13.336s-13.336-5.971-13.336-13.336zM15.998 4.664c-6.261 0-11.336 5.075-11.336 11.336s5.075 11.336 11.336 11.336 11.336-5.075 11.336-11.336c0-6.261-5.075-11.336-11.336-11.336z"></path>
</svg>
