<!-- Generated by IcoMoon.io -->
<svg version="1.1" xmlns="http://www.w3.org/2000/svg" width="32" height="32" viewBox="0 0 32 32">
<title>target-arrow-regular</title>
<path d="M15.997 2.664c1.605 0 3.144 0.284 4.569 0.803l-1.593 1.592c-0.892-0.252-1.916-0.397-2.974-0.397-6.261 0-11.336 5.075-11.336 11.336s5.075 11.336 11.336 11.336c6.261 0 11.336-5.075 11.336-11.336 0-1.057-0.145-2.080-0.415-3.051l0.019 0.080 1.592-1.592c0.508 1.354 0.803 2.919 0.803 4.553 0 0.005 0 0.009 0 0.013v-0.001c0 7.365-5.971 13.336-13.336 13.336s-13.336-5.971-13.336-13.336c0-7.365 5.971-13.336 13.336-13.336zM15.997 8c0.001 0 0.002 0 0.004 0 0.71 0 1.399 0.092 2.055 0.266l-0.056-0.013v2.089c-0.596-0.218-1.284-0.344-2.001-0.344-3.314 0-6 2.686-6 6s2.686 6 6 6c3.314 0 6-2.686 6-6 0-0.717-0.126-1.404-0.356-2.041l0.013 0.042h2.089c0.161 0.6 0.254 1.289 0.254 2 0 4.418-3.582 8-8 8s-8-3.582-8-8c0-4.418 3.582-8 8-8 0 0 0 0 0.001 0h-0zM18.664 16c-0 1.472-1.194 2.666-2.667 2.666s-2.667-1.194-2.667-2.667 1.194-2.667 2.667-2.667c0.377 0 0.736 0.078 1.061 0.22l-0.017-0.007 2.293-2.293-0.001-4.252c0-0.276 0.112-0.526 0.293-0.707v0l3.333-3.333c0.181-0.181 0.431-0.292 0.707-0.292 0.552 0 1 0.447 1 0.999v3.667h3.667c0.552 0 0.999 0.448 0.999 1 0 0.276-0.112 0.526-0.292 0.707v0l-3.333 3.333c-0.181 0.181-0.431 0.293-0.707 0.293h-4.253l-2.293 2.293c0.136 0.32 0.211 0.671 0.211 1.040zM24.585 10.667l1.333-1.333h-2.253c-0.552 0-1-0.448-1-1v0-2.253l-1.332 1.333v3.175c0.028 0.025 0.054 0.051 0.078 0.079l0.001 0.001h3.173z"></path>
</svg>
