<!-- Generated by IcoMoon.io -->
<svg version="1.1" xmlns="http://www.w3.org/2000/svg" width="32" height="32" viewBox="0 0 32 32">
<title>task-list-square-database</title>
<path d="M9.6 4.8c-2.651 0-4.8 2.149-4.8 4.8v0 12.8c0 2.651 2.149 4.8 4.8 4.8v0h4.882c-0.052-0.24-0.082-0.515-0.082-0.797 0-0.001 0-0.002 0-0.003v0-0.8h-4.8c-1.767 0-3.2-1.433-3.2-3.2v0-12.8c0-1.767 1.433-3.2 3.2-3.2v0h12.8c1.767 0 3.2 1.433 3.2 3.2v0 1.802c0.555 0.096 1.091 0.224 1.6 0.382v-2.184c0-2.651-2.149-4.8-4.8-4.8v0h-12.8zM27.2 13.474c-0.446-0.171-0.982-0.325-1.534-0.435l-0.066-0.011c-0.713-0.145-1.533-0.227-2.372-0.227-0.010 0-0.020 0-0.029 0h0.002c-3.976 0-7.2 1.792-7.2 4s3.224 4 7.2 4 7.2-1.792 7.2-4c0-1.387-1.27-2.608-3.2-3.326zM14.4 18c-0.001 0-0.002 0-0.003 0-0.22 0-0.419 0.089-0.564 0.234l-2.259 2.259-0.635-0.579c-0.139-0.119-0.321-0.192-0.52-0.192-0.442 0-0.8 0.358-0.8 0.8 0 0.224 0.092 0.427 0.241 0.573l0 0 1.2 1.096c0.142 0.13 0.331 0.209 0.539 0.209 0.22 0 0.42-0.089 0.565-0.233l2.235-2.235v-1.931zM14.966 11.366c0.145-0.145 0.235-0.345 0.235-0.566 0-0.442-0.359-0.801-0.801-0.801-0.221 0-0.421 0.090-0.566 0.235v0l-2.259 2.259-0.635-0.579c-0.139-0.119-0.321-0.192-0.52-0.192-0.442 0-0.8 0.358-0.8 0.8 0 0.224 0.092 0.427 0.241 0.573l0 0 1.2 1.096c0.142 0.129 0.331 0.208 0.539 0.208 0.221 0 0.421-0.089 0.565-0.234v0l2.8-2.8zM23.2 22.4c2.208 0 4.285-0.494 5.869-1.373 0.469-0.261 0.925-0.576 1.333-0.944l-0.002 6.317c0 2.21-3.224 4-7.2 4s-7.2-1.792-7.2-4v-6.312c0.408 0.368 0.864 0.68 1.331 0.941 1.584 0.88 3.661 1.373 5.869 1.373z"></path>
</svg>
