<!-- Generated by IcoMoon.io -->
<svg version="1.1" xmlns="http://www.w3.org/2000/svg" width="32" height="32" viewBox="0 0 32 32">
<title>task-list-square-person</title>
<path d="M14.966 11.366c0.145-0.145 0.235-0.345 0.235-0.566 0-0.442-0.359-0.801-0.801-0.801-0.221 0-0.421 0.090-0.566 0.235v0l-2.259 2.259-0.635-0.579c-0.139-0.119-0.321-0.192-0.52-0.192-0.442 0-0.8 0.358-0.8 0.8 0 0.224 0.092 0.427 0.241 0.573l0 0 1.2 1.096c0.142 0.129 0.331 0.208 0.539 0.208 0.221 0 0.421-0.089 0.565-0.234v0l2.8-2.8zM14.966 18.234c0.145 0.145 0.235 0.345 0.235 0.566s-0.090 0.422-0.235 0.566l-2.8 2.8c-0.145 0.145-0.345 0.234-0.565 0.234-0.209 0-0.398-0.080-0.541-0.21l0.001 0.001-1.2-1.096c-0.149-0.145-0.241-0.348-0.241-0.573 0-0.442 0.358-0.8 0.8-0.8 0.199 0 0.381 0.073 0.521 0.193l-0.001-0.001 0.635 0.581 2.259-2.261c0.145-0.145 0.345-0.235 0.566-0.235s0.422 0.090 0.566 0.235l0 0zM17.6 19.2c-0.442 0-0.8 0.358-0.8 0.8s0.358 0.8 0.8 0.8v0h2.672c-0.176-0.501-0.272-1.040-0.272-1.6h-2.4zM9.6 25.6h8.080c-0.053 0.259-0.080 0.526-0.080 0.8 0 0.267 0.021 0.534 0.061 0.8h-8.061c-2.651 0-4.8-2.149-4.8-4.8v0-12.8c0-2.651 2.149-4.8 4.8-4.8v0h12.8c2.651 0 4.8 2.149 4.8 4.8v0 5.442c-0.461-0.272-0.999-0.473-1.572-0.572l-0.028-0.004v-4.866c0-1.767-1.433-3.2-3.2-3.2v0h-12.8c-1.767 0-3.2 1.433-3.2 3.2v0 12.8c0 1.767 1.433 3.2 3.2 3.2v0zM16.8 12c0-0.442 0.358-0.8 0.8-0.8v0h4c0.442 0 0.8 0.358 0.8 0.8s-0.358 0.8-0.8 0.8v0h-4c-0.442 0-0.8-0.358-0.8-0.8v0zM28 19.2c0 1.767-1.433 3.2-3.2 3.2s-3.2-1.433-3.2-3.2v0c0-1.767 1.433-3.2 3.2-3.2s3.2 1.433 3.2 3.2v0zM30.4 26.4c0 1.992-1.6 4-5.6 4s-5.6-2-5.6-4c0-1.325 1.075-2.4 2.4-2.4v0h6.4c1.325 0 2.4 1.075 2.4 2.4v0z"></path>
</svg>
