<!-- Generated by IcoMoon.io -->
<svg version="1.1" xmlns="http://www.w3.org/2000/svg" width="32" height="32" viewBox="0 0 32 32">
<title>task-list-square-rtl</title>
<path d="M8.667 19.667c0-0.552 0.448-1 1-1h4.667c0.552 0 1 0.448 1 1s-0.448 1-1 1h-4.667c-0.552 0-1-0.448-1-1zM9.667 11.333c-0.552 0-1 0.448-1 1s0.448 1 1 1h4.667c0.552 0 1-0.448 1-1s-0.448-1-1-1h-4.667zM23.707 10.293c0.391 0.391 0.391 1.024 0 1.414l-2.667 2.667c-0.391 0.391-1.024 0.391-1.414 0l-1.333-1.333c-0.391-0.391-0.391-1.024 0-1.414s1.024-0.391 1.414 0l0.626 0.626 1.96-1.96c0.391-0.391 1.024-0.391 1.414 0zM23.707 19.040c0.391-0.391 0.391-1.024 0-1.414s-1.024-0.391-1.414 0l-1.96 1.959-0.626-0.626c-0.391-0.391-1.024-0.391-1.414 0s-0.391 1.024 0 1.414l1.333 1.333c0.391 0.391 1.024 0.391 1.414 0l2.667-2.667zM7 4c-1.657 0-3 1.343-3 3v18c0 1.657 1.343 3 3 3h18c1.657 0 3-1.343 3-3v-18c0-1.657-1.343-3-3-3h-18zM6 7c0-0.552 0.448-1 1-1h18c0.552 0 1 0.448 1 1v18c0 0.552-0.448 1-1 1h-18c-0.552 0-1-0.448-1-1v-18z"></path>
</svg>
