<!-- Generated by IcoMoon.io -->
<svg version="1.1" xmlns="http://www.w3.org/2000/svg" width="32" height="32" viewBox="0 0 32 32">
<title>tasks-app</title>
<path d="M4.571 6c0-2.051 1.663-3.714 3.714-3.714v0h15.429c2.051 0 3.714 1.663 3.714 3.714v0 13.862c-0.137 0.091-0.269 0.199-0.39 0.32l-1.325 1.325v-15.506c0-1.105-0.895-2-2-2v0h-15.429c-1.105 0-2 0.895-2 2v0 20c0 1.104 0.896 2 2 2h9.221l1.714 1.714h-10.935c-2.051 0-3.714-1.663-3.714-3.714v0-20zM12 10c0 0.789-0.64 1.429-1.429 1.429s-1.429-0.64-1.429-1.429v0c0-0.789 0.64-1.429 1.429-1.429s1.429 0.64 1.429 1.429v0zM10.571 17.429c0.789 0 1.429-0.64 1.429-1.429s-0.64-1.429-1.429-1.429v0c-0.789 0-1.429 0.64-1.429 1.429s0.64 1.429 1.429 1.429v0zM10.571 23.429c0.789 0 1.429-0.64 1.429-1.429s-0.64-1.429-1.429-1.429v0c-0.789 0-1.429 0.64-1.429 1.429s0.64 1.429 1.429 1.429v0zM14.571 9.143c-0.473 0-0.857 0.384-0.857 0.857s0.384 0.857 0.857 0.857v0h7.429c0.473 0 0.857-0.384 0.857-0.857s-0.384-0.857-0.857-0.857v0h-7.429zM13.714 16c0-0.473 0.384-0.857 0.857-0.857v0h7.429c0.473 0 0.857 0.384 0.857 0.857s-0.384 0.857-0.857 0.857v0h-7.429c-0.473 0-0.857-0.384-0.857-0.857v0zM14.571 21.143c-0.473 0-0.857 0.384-0.857 0.857s0.384 0.857 0.857 0.857v0h7.429c0.473 0 0.857-0.384 0.857-0.857s-0.384-0.857-0.857-0.857v0h-7.429zM29.463 22.606l-6.857 6.857c-0.155 0.155-0.369 0.251-0.606 0.251s-0.451-0.096-0.606-0.251v0l-3.426-3.426c-0.143-0.153-0.23-0.358-0.23-0.584 0-0.473 0.384-0.857 0.857-0.857 0.226 0 0.432 0.087 0.585 0.23l-0-0 2.821 2.819 6.251-6.251c0.156-0.161 0.374-0.261 0.616-0.261 0.473 0 0.857 0.384 0.857 0.857 0 0.242-0.1 0.461-0.262 0.617l-0 0z"></path>
</svg>
