<!-- Generated by IcoMoon.io -->
<svg version="1.1" xmlns="http://www.w3.org/2000/svg" width="32" height="32" viewBox="0 0 32 32">
<title>tasks-app</title>
<path d="M26.66 5.463c-0.106-1.561-1.405-2.795-2.993-2.795l-15.539 0.007c-1.561 0.106-2.795 1.405-2.795 2.993v20.664l0.007 0.205c0.106 1.561 1.405 2.795 2.993 2.795h10.090l-1.998-2h-8.092l-0.136-0.009c-0.488-0.066-0.864-0.485-0.864-0.991v-20.664l0.009-0.136c0.066-0.488 0.485-0.864 0.991-0.864l15.469 0.009c0.488 0.066 0.864 0.485 0.864 0.991v15.422l1.545-1.545c0.142-0.142 0.294-0.267 0.455-0.374v-13.503l-0.007-0.205z"></path>
<path d="M21.717 29.332c-0.017 0.001-0.034 0.001-0.051 0.001s-0.034-0-0.050-0.001c-0.247-0.012-0.481-0.116-0.657-0.292l-3.333-3.336c-0.39-0.391-0.39-1.024 0.001-1.414s1.024-0.39 1.414 0.001l2.626 2.628 5.959-5.959c0.39-0.391 1.024-0.391 1.414 0s0.391 1.024 0 1.414l-6.667 6.667c-0.176 0.176-0.41 0.279-0.657 0.292z"></path>
<path d="M18.455 22c-0.081-0.003-0.162-0.003-0.243 0h-3.217c-0.552 0-1-0.448-1-1s0.448-1 1-1h6.672c0.552 0 1 0.448 1 1s-0.448 1-1 1h-3.211z"></path>
<path d="M12 10.335c0 0.736-0.597 1.333-1.333 1.333s-1.333-0.597-1.333-1.333c0-0.736 0.597-1.333 1.333-1.333s1.333 0.597 1.333 1.333z"></path>
<path d="M13.995 10.333c0-0.552 0.448-1 1-1h6.672c0.552 0 1 0.448 1 1s-0.448 1-1 1h-6.672c-0.552 0-1-0.448-1-1z"></path>
<path d="M14.995 14.667c-0.552 0-1 0.448-1 1s0.448 1 1 1h6.672c0.552 0 1-0.448 1-1s-0.448-1-1-1h-6.672z"></path>
<path d="M10.667 17c0.736 0 1.333-0.597 1.333-1.333s-0.597-1.333-1.333-1.333c-0.736 0-1.333 0.597-1.333 1.333s0.597 1.333 1.333 1.333z"></path>
<path d="M12 20.997c0 0.736-0.597 1.333-1.333 1.333s-1.333-0.597-1.333-1.333c0-0.736 0.597-1.333 1.333-1.333s1.333 0.597 1.333 1.333z"></path>
</svg>
