<!-- Generated by IcoMoon.io -->
<svg version="1.1" xmlns="http://www.w3.org/2000/svg" width="32" height="32" viewBox="0 0 32 32">
<title>task-list-rtl</title>
<path d="M29.040 6.374c0.391-0.391 0.391-1.024 0-1.414s-1.024-0.391-1.414 0l-2.626 2.626-0.626-0.626c-0.391-0.391-1.024-0.391-1.414 0s-0.391 1.024 0 1.414l1.333 1.333c0.391 0.391 1.024 0.391 1.414 0l3.333-3.333zM19 24.009l-15.469 0.009c-0.488 0.066-0.864 0.485-0.864 0.991 0 0.552 0.448 1 1 1l15.469-0.009c0.488-0.066 0.864-0.485 0.864-0.991 0-0.552-0.448-1-1-1zM19 15.333l-15.469 0.009c-0.488 0.066-0.864 0.485-0.864 0.991 0 0.552 0.448 1 1 1l15.469-0.009c0.488-0.066 0.864-0.485 0.864-0.991 0-0.552-0.448-1-1-1zM19 6.667l-15.469 0.009c-0.488 0.066-0.864 0.485-0.864 0.991 0 0.552 0.448 1 1 1l15.469-0.009c0.488-0.066 0.864-0.485 0.864-0.991 0-0.552-0.448-1-1-1zM29.040 23.707c0.391-0.391 0.391-1.024 0-1.414s-1.024-0.391-1.414 0l-2.626 2.626-0.626-0.626c-0.391-0.391-1.024-0.391-1.414 0s-0.391 1.024 0 1.414l1.333 1.333c0.391 0.391 1.024 0.391 1.414 0l3.333-3.333zM29.040 13.626c0.391 0.391 0.391 1.024 0 1.414l-3.333 3.333c-0.391 0.391-1.024 0.391-1.414 0l-1.333-1.333c-0.391-0.391-0.391-1.024 0-1.414s1.024-0.391 1.414 0l0.626 0.626 2.626-2.626c0.391-0.391 1.024-0.391 1.414 0z"></path>
</svg>
