<!-- Generated by IcoMoon.io -->
<svg version="1.1" xmlns="http://www.w3.org/2000/svg" width="32" height="32" viewBox="0 0 32 32">
<title>task-list-square-settings</title>
<path d="M14.966 10.234c0.145 0.145 0.235 0.345 0.235 0.566s-0.090 0.422-0.235 0.566l-2.8 2.8c-0.145 0.145-0.345 0.234-0.565 0.234-0.209 0-0.398-0.080-0.541-0.21l0.001 0.001-1.2-1.096c-0.172-0.148-0.28-0.365-0.28-0.608 0-0.442 0.358-0.8 0.8-0.8 0.217 0 0.415 0.087 0.559 0.227l-0-0 0.635 0.579 2.259-2.259c0.145-0.145 0.345-0.235 0.566-0.235s0.422 0.090 0.566 0.235l0 0zM14.966 19.366c0.145-0.145 0.235-0.345 0.235-0.566 0-0.442-0.359-0.801-0.801-0.801-0.221 0-0.421 0.090-0.566 0.235v0l-2.259 2.259-0.635-0.579c-0.139-0.119-0.321-0.192-0.52-0.192-0.442 0-0.8 0.358-0.8 0.8 0 0.224 0.092 0.427 0.241 0.573l0 0 1.2 1.096c0.142 0.13 0.331 0.209 0.539 0.209 0.22 0 0.42-0.089 0.565-0.233l2.8-2.8zM17.6 11.2c-0.442 0-0.8 0.358-0.8 0.8s0.358 0.8 0.8 0.8v0h4c0.442 0 0.8-0.358 0.8-0.8s-0.358-0.8-0.8-0.8v0h-4zM4.8 9.6c0-2.651 2.149-4.8 4.8-4.8v0h12.8c2.651 0 4.8 2.149 4.8 4.8v0 5.762c-0.454-0.238-0.984-0.452-1.538-0.613l-0.062-0.016v-5.133c0-1.767-1.433-3.2-3.2-3.2v0h-12.8c-1.767 0-3.2 1.433-3.2 3.2v0 12.8c0 1.767 1.433 3.2 3.2 3.2v0h5.133c0.157 0.554 0.368 1.088 0.629 1.6h-5.762c-2.651 0-4.8-2.149-4.8-4.8v0-12.8zM17.014 22.272c1.395-0.366 2.407-1.615 2.407-3.1 0-0.308-0.043-0.605-0.125-0.887l0.006 0.023-0.25-0.891c0.408-0.315 0.848-0.582 1.315-0.8l0.539 0.573c0.585 0.619 1.411 1.004 2.328 1.004s1.743-0.385 2.327-1.003l0.517-0.55c0.477 0.224 0.925 0.501 1.336 0.829l-0.202 0.675c-0.085 0.274-0.134 0.589-0.134 0.915 0 1.506 1.040 2.77 2.441 3.111l0.022 0.005 0.56 0.131c0.034 0.266 0.053 0.573 0.053 0.885 0 0.261-0.014 0.519-0.040 0.773l0.003-0.032-0.736 0.189c-1.396 0.363-2.411 1.612-2.411 3.099 0 0.308 0.044 0.607 0.125 0.889l-0.006-0.023 0.25 0.89c-0.406 0.315-0.848 0.584-1.315 0.8l-0.539-0.573c-0.585-0.619-1.411-1.004-2.327-1.004s-1.743 0.385-2.326 1.003l-0.001 0.002-0.512 0.557c-0.51-0.244-0.949-0.52-1.352-0.84l0.014 0.011 0.202-0.677c0.085-0.275 0.134-0.59 0.134-0.918 0-1.506-1.041-2.769-2.442-3.11l-0.022-0.005-0.558-0.131c-0.034-0.266-0.053-0.573-0.053-0.885 0-0.261 0.014-0.518 0.040-0.772l-0.003 0.032 0.736-0.194zM24.798 23.2c0-0.884-0.716-1.6-1.6-1.6s-1.6 0.716-1.6 1.6v0c0 0.884 0.716 1.6 1.6 1.6s1.6-0.716 1.6-1.6v0z"></path>
</svg>
