<!-- Generated by IcoMoon.io -->
<svg version="1.1" xmlns="http://www.w3.org/2000/svg" width="32" height="32" viewBox="0 0 32 32">
<title>teddy-regular</title>
<path d="M23.333 5.167c3.037 0 5.5 2.463 5.5 5.5 0 1.659-0.735 3.147-1.897 4.156l-0.007 0.006c0.371 0.999 0.571 2.064 0.571 3.172 0 3.187-1.657 6.025-4.24 7.885-0.377 0.272-0.773 0.521-1.187 0.749l-0.049 0.027c-1.726 0.948-3.782 1.505-5.969 1.505-0.019 0-0.039-0-0.058-0h0.003c-0.016 0-0.036 0-0.055 0-2.187 0-4.243-0.558-6.035-1.538l0.066 0.033c-0.459-0.251-0.843-0.493-1.211-0.757l0.035 0.024-0.060-0.043c-2.583-1.86-4.24-4.699-4.24-7.885 0-1.107 0.2-2.173 0.571-3.172-1.167-1.014-1.901-2.501-1.901-4.159 0-3.038 2.462-5.5 5.5-5.5 2.086 0 3.901 1.161 4.833 2.873l0.014 0.029c0.743-0.151 1.598-0.237 2.473-0.237 0.004 0 0.007 0 0.010 0h-0.001c0.853 0 1.683 0.081 2.483 0.237 0.946-1.742 2.761-2.904 4.848-2.904 0.001 0 0.002 0 0.003 0h-0zM18.031 21.863c-0.147 0.272-0.4 0.499-0.711 0.663-0.368 0.195-0.827 0.308-1.32 0.308s-0.952-0.113-1.32-0.307c-0.299-0.15-0.541-0.378-0.705-0.656l-0.004-0.008c-1.531 0.581-2.73 1.741-3.35 3.206l-0.014 0.038c1.534 0.877 3.372 1.393 5.331 1.393 0.022 0 0.044-0 0.066-0l-0.003 0c0.019 0 0.041 0 0.062 0 1.959 0 3.796-0.517 5.385-1.422l-0.054 0.028c-0.632-1.504-1.832-2.664-3.324-3.231l-0.040-0.013zM16 9.5c-5.488 0-9.833 3.867-9.833 8.5 0 2.399 1.16 4.587 3.043 6.144 1.227-2.57 3.805-4.314 6.791-4.314s5.564 1.744 6.771 4.269l0.019 0.045c1.883-1.557 3.043-3.747 3.043-6.144 0-4.633-4.347-8.5-9.833-8.5zM8.667 6.833c-0 0-0.001 0-0.001 0-2.117 0-3.833 1.716-3.833 3.833 0 0.995 0.379 1.902 1.001 2.583l-0.003-0.003c1.291-2.152 3.427-3.843 6.012-4.729-0.699-1.022-1.86-1.684-3.175-1.684-0 0-0.001 0-0.001 0h0zM23.333 6.833c-1.3 0-2.477 0.653-3.176 1.684 2.587 0.887 4.721 2.577 6.012 4.729 0.619-0.678 0.998-1.585 0.998-2.58 0-2.117-1.716-3.833-3.833-3.833-0 0-0.001 0-0.001 0h0z"></path>
</svg>
