<!-- Generated by IcoMoon.io -->
<svg version="1.1" xmlns="http://www.w3.org/2000/svg" width="32" height="32" viewBox="0 0 32 32">
<title>teddy</title>
<path d="M23.333 5.167c3.038 0 5.5 2.462 5.5 5.5 0 1.663-0.738 3.153-1.904 4.162 0.37 0.998 0.571 2.064 0.571 3.172 0 3.187-1.657 6.025-4.241 7.886-0.376 0.271-0.772 0.521-1.186 0.749l-0.049 0.027c-1.753 0.955-3.817 1.505-6.024 1.505s-4.272-0.55-6.024-1.505c-0.41-0.223-0.802-0.468-1.176-0.734l-0.059-0.043c-2.583-1.861-4.241-4.699-4.241-7.886 0-1.107 0.2-2.174 0.571-3.172-1.166-1.008-1.904-2.499-1.904-4.162 0-3.038 2.462-5.5 5.5-5.5 2.099 0 3.923 1.176 4.85 2.904 0.8-0.156 1.631-0.238 2.483-0.238s1.683 0.082 2.483 0.238c0.927-1.728 2.751-2.904 4.85-2.904zM18.030 21.862c-0.147 0.273-0.4 0.499-0.71 0.663-0.367 0.194-0.826 0.308-1.32 0.308s-0.953-0.113-1.32-0.307c-0.31-0.164-0.563-0.391-0.71-0.663-1.523 0.565-2.745 1.748-3.364 3.244 1.544 0.879 3.394 1.393 5.393 1.393s3.85-0.514 5.394-1.393c-0.333-0.806-0.845-1.531-1.507-2.123-0.548-0.49-1.177-0.869-1.857-1.121zM16 9.5c-5.488 0-9.833 3.866-9.833 8.5 0 2.398 1.16 4.587 3.043 6.144 1.198-2.547 3.788-4.311 6.79-4.311 1.92 0 3.672 0.722 4.998 1.908 0.747 0.669 1.36 1.485 1.792 2.403 1.883-1.557 3.043-3.746 3.043-6.144 0-4.634-4.346-8.5-9.833-8.5zM8.667 6.833c-2.117 0-3.833 1.716-3.833 3.833 0 0.977 0.368 1.889 0.998 2.581 1.29-2.153 3.426-3.843 6.011-4.729-0.698-1.031-1.876-1.685-3.176-1.685zM23.333 6.833c-1.299 0-2.477 0.652-3.176 1.685 2.585 0.886 4.722 2.577 6.011 4.729 0.631-0.693 0.998-1.605 0.998-2.58 0-2.117-1.716-3.833-3.833-3.833z"></path>
</svg>
