<!-- Generated by IcoMoon.io -->
<svg version="1.1" xmlns="http://www.w3.org/2000/svg" width="32" height="32" viewBox="0 0 32 32">
<title>temperature-regular</title>
<path d="M16 5.667c-1.289 0-2.333 1.045-2.333 2.333v0 10.525l-0.305 0.251c-0.936 0.77-1.528 1.928-1.528 3.225 0 2.301 1.865 4.167 4.167 4.167s4.167-1.865 4.167-4.167c0-1.297-0.592-2.455-1.521-3.219l-0.007-0.006-0.305-0.251v-10.525c0-1.289-1.045-2.333-2.333-2.333v0zM12 8c0-2.209 1.791-4 4-4s4 1.791 4 4v0 9.754c1.13 1.066 1.833 2.574 1.833 4.246 0 3.222-2.612 5.833-5.833 5.833s-5.833-2.612-5.833-5.833c0-1.672 0.703-3.18 1.831-4.243l0.003-0.003v-9.754zM18.667 22c-0 1.473-1.194 2.666-2.667 2.666s-2.667-1.194-2.667-2.667c0-1.175 0.76-2.172 1.815-2.528l0.019-0.006v-7.3c0-0.46 0.373-0.833 0.833-0.833s0.833 0.373 0.833 0.833v0 7.3c1.073 0.361 1.833 1.359 1.833 2.533v0z"></path>
</svg>
