<!-- Generated by IcoMoon.io -->
<svg version="1.1" xmlns="http://www.w3.org/2000/svg" width="32" height="32" viewBox="0 0 32 32">
<title>temperature</title>
<path d="M16 2.667c2.311 0 4.199 1.809 4.327 4.087l0.007 0.246 0.001 10.603 0.107 0.092c1.234 1.102 2.023 2.628 2.191 4.297l0.025 0.336 0.009 0.339c0 3.682-2.985 6.667-6.667 6.667s-6.667-2.985-6.667-6.667c0-1.817 0.733-3.513 1.986-4.747l0.241-0.226 0.105-0.091 0.001-10.603c0-2.228 1.682-4.064 3.845-4.306l0.242-0.020 0.246-0.007zM16 4.667c-1.224 0-2.228 0.943-2.326 2.142l-0.008 0.191-0.001 11.593-0.411 0.299c-1.199 0.874-1.922 2.263-1.922 3.775 0 2.577 2.089 4.667 4.667 4.667s4.667-2.089 4.667-4.667c0-1.417-0.635-2.726-1.701-3.604l-0.219-0.17-0.411-0.299-0.002-11.593c0-1.289-1.045-2.333-2.333-2.333zM16 10.667c0.552 0 1 0.448 1 1l0.001 7.819c1.352 0.425 2.333 1.688 2.333 3.181 0 1.841-1.492 3.333-3.333 3.333s-3.333-1.492-3.333-3.333c0-1.493 0.981-2.756 2.334-3.181l-0.001-7.819c0-0.552 0.448-1 1-1z"></path>
</svg>
