<!-- Generated by IcoMoon.io -->
<svg version="1.1" xmlns="http://www.w3.org/2000/svg" width="32" height="32" viewBox="0 0 32 32">
<title>tent</title>
<path d="M14.96 2.96c0.381-0.381 0.995-0.392 1.389-0.024l2.342 2.186c1.704 1.59 3.601 2.959 5.647 4.075 0.576 0.314 0.969 0.881 1.062 1.531l1.801 12.606h1.133c0.552 0 1 0.448 1 1s-0.448 1-1 1h-24.667c-0.552 0-1-0.448-1-1s0.448-1 1-1h1.133l1.808-12.654c0.087-0.606 0.442-1.141 0.967-1.457 1.863-1.118 3.583-2.46 5.119-3.997l2.266-2.266zM6.82 23.333h2.842c2.095-2.889 3.678-6.118 4.678-9.547l0.7-2.4c0.124-0.427 0.516-0.72 0.96-0.72s0.836 0.293 0.96 0.72l0.7 2.4c1 3.428 2.583 6.658 4.678 9.547h2.842l-1.76-12.323c-0.003-0.024-0.018-0.046-0.040-0.058-2.193-1.196-4.227-2.664-6.054-4.369l-1.636-1.527-1.583 1.583c-1.652 1.652-3.501 3.096-5.504 4.298-0.009 0.005-0.015 0.014-0.016 0.024l-1.767 12.371zM19.906 23.333c-1.667-2.52-2.981-5.258-3.906-8.138-0.925 2.88-2.239 5.618-3.906 8.138h7.811z"></path>
</svg>
