<!-- Generated by IcoMoon.io -->
<svg version="1.1" xmlns="http://www.w3.org/2000/svg" width="32" height="32" viewBox="0 0 32 32">
<title>tent-regular</title>
<path d="M16.668 4.013c-0.154-0.184-0.383-0.3-0.64-0.3s-0.486 0.116-0.639 0.298l-0.001 0.001c-1.995 2.393-5.93 5.233-8.193 6.497-0.224 0.127-0.381 0.348-0.418 0.609l-0.001 0.004-1.82 13.209h-1.456c-0.46 0-0.833 0.373-0.833 0.833s0.373 0.833 0.833 0.833v0h25c0.46 0 0.833-0.373 0.833-0.833s-0.373-0.833-0.833-0.833v0h-1.4l-1.82-13.208c-0.038-0.265-0.196-0.487-0.416-0.611l-0.004-0.002c-2.263-1.265-6.198-4.105-8.192-6.498zM22.154 24.317c-2.261-3.197-3.87-6.308-5.351-11.997-0.097-0.361-0.421-0.623-0.806-0.623s-0.711 0.263-0.806 0.62l-0.001 0.006c-1.64 6.393-3.581 9.577-5.369 11.993h-3.181l1.73-12.558c2.172-1.269 5.511-3.676 7.657-5.957 2.147 2.281 5.485 4.689 7.657 5.957l1.73 12.559h-3.261zM20.131 24.317h-8.261c1.395-2.030 2.833-4.638 4.131-8.752 1.173 3.713 2.483 6.283 4.131 8.752z"></path>
</svg>
