<!-- Generated by IcoMoon.io -->
<svg version="1.1" xmlns="http://www.w3.org/2000/svg" width="32" height="32" viewBox="0 0 32 32">
<title>tetris-app</title>
<path d="M11.5 2.667c-1.197 0-2.167 0.97-2.167 2.167v0 4c0 0.276-0.224 0.5-0.5 0.5v0h-4c-1.197 0-2.167 0.97-2.167 2.167v0 4c0 1.197 0.97 2.167 2.167 2.167v0h10.667c1.197 0 2.167-0.97 2.167-2.167v0-4c0-0.276 0.224-0.5 0.5-0.5v0h4c1.197 0 2.167-0.97 2.167-2.167v0-4c0-1.197-0.97-2.167-2.167-2.167v0h-10.667zM22.167 9.333h-4.5v-5h4.5c0.276 0 0.5 0.224 0.5 0.5v0 4c0 0.276-0.224 0.5-0.5 0.5v0zM16 9.333h-5v-4.5c0-0.276 0.224-0.5 0.5-0.5v0h4.5v5zM9.333 11v5h-4.5c-0.276 0-0.5-0.224-0.5-0.5v0-4c0-0.276 0.224-0.5 0.5-0.5v0h4.5zM11 11h5v4.5c0 0.276-0.224 0.5-0.5 0.5v0h-4.5v-5zM23.167 14.333h4c1.197 0 2.167 0.97 2.167 2.167v0 10.667c0 1.197-0.97 2.167-2.167 2.167v0h-18.333c-1.197 0-2.167-0.97-2.167-2.167v0-4c0-1.197 0.97-2.167 2.167-2.167v0h11.667c0.276 0 0.5-0.224 0.5-0.5v0-4c0-1.197 0.97-2.167 2.167-2.167v0zM21 27.667v-5h-5.333v5h5.333zM27.667 22.667h-5v5h4.5c0.276 0 0.5-0.224 0.5-0.5v0-4.5zM22.667 21h5v-4.5c0-0.276-0.224-0.5-0.5-0.5v0h-4c-0.276 0-0.5 0.224-0.5 0.5v0 4.5zM14 22.667h-5.167c-0.276 0-0.5 0.224-0.5 0.5v0 4c0 0.276 0.224 0.5 0.5 0.5h5.167v-5z"></path>
</svg>
