<!-- Generated by IcoMoon.io -->
<svg version="1.1" xmlns="http://www.w3.org/2000/svg" width="32" height="32" viewBox="0 0 32 32">
<title>tetris-app</title>
<path d="M11.667 2.667c-1.289 0-2.333 1.045-2.333 2.333v4c0 0.184-0.149 0.333-0.333 0.333h-4c-1.289 0-2.333 1.045-2.333 2.333v4c0 1.289 1.045 2.333 2.333 2.333h10.667c1.289 0 2.333-1.045 2.333-2.333v-4c0-0.184 0.149-0.333 0.333-0.333h3.334c1.289 0 2.333-1.045 2.333-2.333v-4c0-1.289-1.045-2.333-2.333-2.333h-10zM21.667 9.333h-3.667v-4.667h3.667c0.184 0 0.333 0.149 0.333 0.333v4c0 0.184-0.149 0.333-0.333 0.333zM16 9.333h-4.69c0.016-0.109 0.024-0.22 0.024-0.333v-4c0-0.184 0.149-0.333 0.333-0.333h4.333v4.667zM9.333 11.333v4.667h-4.333c-0.184 0-0.333-0.149-0.333-0.333v-4c0-0.184 0.149-0.333 0.333-0.333l4.333 0zM11.333 11.333h4.69c-0.016 0.109-0.024 0.22-0.024 0.333v4c0 0.184-0.149 0.333-0.333 0.333h-4.333v-4.667zM23 14c-1.289 0-2.333 1.045-2.333 2.333v4c0 0.184-0.149 0.333-0.333 0.333h-11.333c-1.289 0-2.333 1.045-2.333 2.333v4c0 1.289 1.045 2.333 2.333 2.333h18c1.289 0 2.333-1.045 2.333-2.333v-10.667c0-1.289-1.045-2.333-2.333-2.333h-4zM22.666 16.333c0-0.184 0.149-0.333 0.333-0.333h4c0.184 0 0.333 0.149 0.333 0.333v4.333h-4.691c0.016-0.109 0.024-0.22 0.024-0.333v-4zM22.667 22.667h4.667v4.333c0 0.184-0.149 0.333-0.333 0.333h-4.333v-4.667zM20.667 22.643v4.69h-5.333v-4.667h4.999c0.113 0 0.225-0.008 0.334-0.024zM13.333 22.667v4.667h-4.334c-0.184 0-0.333-0.149-0.333-0.333v-4c0-0.184 0.149-0.333 0.333-0.333h4.334z"></path>
</svg>
