<!-- Generated by IcoMoon.io -->
<svg version="1.1" xmlns="http://www.w3.org/2000/svg" width="32" height="32" viewBox="0 0 32 32">
<title>text-position-top-bottom</title>
<path d="M4 6.333c0-0.552 0.448-1 1-1h22c0.552 0 1 0.448 1 1s-0.448 1-1 1h-22c-0.552 0-1-0.448-1-1z"></path>
<path d="M4 25c0-0.552 0.448-1 1-1h22c0.552 0 1 0.448 1 1s-0.448 1-1 1h-22c-0.552 0-1-0.448-1-1z"></path>
<path d="M12.667 14.667c0-1.841 1.492-3.333 3.333-3.333s3.333 1.492 3.333 3.333v6.333c0 0.552 0.448 1 1 1s1-0.448 1-1v-6.333c0-2.946-2.388-5.333-5.333-5.333s-5.333 2.388-5.333 5.333v6.333c0 0.552 0.448 1 1 1s1-0.448 1-1v-6.333z"></path>
</svg>
