<!-- Generated by IcoMoon.io -->
<svg version="1.1" xmlns="http://www.w3.org/2000/svg" width="32" height="32" viewBox="0 0 32 32">
<title>text-header-2</title>
<path d="M6 7.667c0-0.552-0.448-1-1-1s-1 0.448-1 1v16.667c0 0.552 0.448 1 1 1s1-0.448 1-1v-7.667h8.667v7.667c0 0.552 0.448 1 1 1s1-0.448 1-1v-16.667c0-0.552-0.448-1-1-1s-1 0.448-1 1v7h-8.667v-7zM20.561 10.447c0.307-0.613 1.217-1.781 3.439-1.781 1.123 0 1.946 0.348 2.48 0.852 0.53 0.501 0.853 1.228 0.853 2.148 0 2.617-1.733 4.091-3.943 5.791-0.093 0.072-0.188 0.144-0.283 0.217-2.008 1.537-4.441 3.399-4.441 6.659 0 0.265 0.105 0.52 0.293 0.707s0.442 0.293 0.707 0.293h8.667c0.552 0 1-0.448 1-1s-0.448-1-1-1h-7.546c0.42-1.67 1.904-2.814 3.823-4.291 2.123-1.633 4.724-3.66 4.724-7.376 0-1.413-0.51-2.686-1.48-3.602-0.966-0.912-2.31-1.398-3.853-1.398-3.111 0-4.646 1.722-5.228 2.886-0.247 0.494-0.047 1.095 0.447 1.342s1.095 0.047 1.342-0.447z"></path>
</svg>
