<!-- Generated by IcoMoon.io -->
<svg version="1.1" xmlns="http://www.w3.org/2000/svg" width="32" height="32" viewBox="0 0 32 32">
<title>text-word-count</title>
<path d="M2.667 7.667c0-0.552 0.448-1 1-1h24.667c0.552 0 1 0.448 1 1s-0.448 1-1 1h-24.667c-0.552 0-1-0.448-1-1zM2.667 16.333c0-0.552 0.448-1 1-1h24.667c0.552 0 1 0.448 1 1s-0.448 1-1 1h-24.667c-0.552 0-1-0.448-1-1zM25.333 25c0-0.552 0.448-1 1-1h2c0.552 0 1 0.448 1 1s-0.448 1-1 1h-2c-0.552 0-1-0.448-1-1z"></path>
<path d="M3.221 24.984c0.281-0.187 0.553-0.4 0.81-0.633v5.316c0 0.552 0.448 1 1 1s1-0.448 1-1v-8.667c0-0.525-0.405-0.956-0.92-0.997-0.492-0.041-0.95 0.288-1.058 0.783-0.169 0.772-0.922 1.854-1.941 2.533-0.46 0.306-0.584 0.927-0.277 1.387s0.927 0.584 1.387 0.277z"></path>
<path d="M10.667 23.364c0-0.704 0.591-1.364 1.314-1.364 0.543 0 0.98 0.255 1.191 0.579 0.181 0.279 0.29 0.754-0.125 1.46-0.199 0.339-0.501 0.643-0.909 0.965-0.203 0.161-0.421 0.316-0.657 0.484l-0.098 0.069c-0.203 0.143-0.42 0.296-0.63 0.454-0.991 0.746-2.086 1.793-2.086 3.655 0 0.552 0.448 1 1 1h4.601c0.552 0 1-0.448 1-1s-0.448-1-1-1h-3.351c0.214-0.376 0.564-0.7 1.039-1.057 0.183-0.138 0.373-0.271 0.577-0.416l0.103-0.073c0.238-0.168 0.494-0.351 0.742-0.547 0.496-0.392 1.014-0.876 1.394-1.522 0.743-1.264 0.729-2.561 0.077-3.563-0.621-0.955-1.727-1.489-2.868-1.489-1.97 0-3.314 1.704-3.314 3.364 0 0.552 0.448 1 1 1s1-0.448 1-1z"></path>
<path d="M19.295 22.85c0.043-0.15 0.145-0.361 0.335-0.529 0.171-0.151 0.474-0.321 1.037-0.321 1.015 0 1.333 0.667 1.333 0.97 0 0.327-0.070 0.654-0.253 0.885-0.148 0.187-0.505 0.479-1.469 0.479-0.552 0-1 0.448-1 1s0.448 1 1 1c0.365 0 0.869 0.049 1.246 0.225 0.176 0.082 0.286 0.175 0.353 0.269 0.060 0.084 0.124 0.222 0.124 0.475 0 0.65-0.203 0.938-0.374 1.082-0.201 0.17-0.527 0.281-0.959 0.281-0.483 0-0.756-0.083-0.923-0.19-0.148-0.094-0.32-0.272-0.46-0.699-0.173-0.525-0.738-0.81-1.263-0.637s-0.81 0.738-0.637 1.262c0.249 0.755 0.661 1.365 1.29 1.763 0.61 0.386 1.309 0.5 1.993 0.5 0.735 0 1.576-0.184 2.249-0.753 0.704-0.594 1.084-1.488 1.084-2.611 0-0.633-0.173-1.184-0.495-1.636-0.105-0.147-0.221-0.277-0.344-0.393 0.053-0.057 0.103-0.115 0.151-0.176 0.584-0.735 0.687-1.589 0.687-2.129 0-1.431-1.237-2.97-3.333-2.97-1.021 0-1.802 0.329-2.36 0.821-0.539 0.476-0.812 1.052-0.935 1.48-0.152 0.531 0.156 1.085 0.687 1.236s1.085-0.156 1.236-0.687z"></path>
</svg>
