<!-- Generated by IcoMoon.io -->
<svg version="1.1" xmlns="http://www.w3.org/2000/svg" width="32" height="32" viewBox="0 0 32 32">
<title>text-position-square-regular</title>
<path d="M5 5.333c-0.552 0-1 0.448-1 1s0.448 1 1 1v0h22c0.552 0 1-0.448 1-1s-0.448-1-1-1v0h-22zM4 11c0-0.552 0.448-1 1-1v0h2.667c0.552 0 1 0.448 1 1s-0.448 1-1 1v0h-2.667c-0.552 0-1-0.448-1-1v0zM23.333 11c0-0.552 0.448-1 1-1v0h2.667c0.552 0 1 0.448 1 1s-0.448 1-1 1v0h-2.667c-0.552 0-1-0.448-1-1v0zM5 14.667c-0.552 0-1 0.448-1 1s0.448 1 1 1v0h2.667c0.552 0 1-0.448 1-1s-0.448-1-1-1v0h-2.667zM23.333 15.667c0-0.552 0.448-1 1-1v0h2.667c0.552 0 1 0.448 1 1s-0.448 1-1 1v0h-2.667c-0.552 0-1-0.448-1-1v0zM5 19.333c-0.552 0-1 0.448-1 1s0.448 1 1 1v0h2.667c0.552 0 1-0.448 1-1s-0.448-1-1-1v0h-2.667zM23.333 20.333c0-0.552 0.448-1 1-1v0h2.667c0.552 0 1 0.448 1 1s-0.448 1-1 1v0h-2.667c-0.552 0-1-0.448-1-1v0zM4 25c0-0.552 0.448-1 1-1v0h22c0.552 0 1 0.448 1 1s-0.448 1-1 1v0h-22c-0.552 0-1-0.448-1-1v0zM12.667 14.667c0-1.841 1.492-3.333 3.333-3.333s3.333 1.492 3.333 3.333v0 6.333c0 0.552 0.448 1 1 1s1-0.448 1-1v0-6.333c0-2.946-2.388-5.333-5.333-5.333s-5.333 2.388-5.333 5.333v0 6.333c0 0.552 0.448 1 1 1s1-0.448 1-1v0-6.333z"></path>
</svg>
