<!-- Generated by IcoMoon.io -->
<svg version="1.1" xmlns="http://www.w3.org/2000/svg" width="32" height="32" viewBox="0 0 32 32">
<title>text-add-t-regular</title>
<path d="M5.333 6.333c0-0.552 0.448-1 1-1v0h16.667c0.552 0 1 0.448 1 1v0 2.667c0 0.552-0.448 1-1 1s-1-0.448-1-1v0-1.667h-6.333v11.955c-0.63 1.168-1 2.557-1 4.032 0 0.005 0 0.009 0 0.014v-0.001c0 1.181 0.236 2.307 0.664 3.333h-3.664c-0.552 0-1-0.448-1-1s0.448-1 1-1v0h2v-17.333h-6.333v1.667c0 0.552-0.448 1-1 1s-1-0.448-1-1v0-2.667zM30.667 23.333c0-4.050-3.283-7.333-7.333-7.333s-7.333 3.283-7.333 7.333v0c0 4.050 3.283 7.333 7.333 7.333s7.333-3.283 7.333-7.333v0zM24 24l0.001 3.337c0 0.368-0.298 0.667-0.667 0.667s-0.667-0.298-0.667-0.667v0-3.337h-3.34c-0.368 0-0.667-0.298-0.667-0.667s0.298-0.667 0.667-0.667v0h3.339v-3.333c0-0.368 0.298-0.667 0.667-0.667s0.667 0.298 0.667 0.667v0 3.333h3.329c0.368 0 0.667 0.298 0.667 0.667s-0.298 0.667-0.667 0.667v0h-3.329z"></path>
</svg>
