<!-- Generated by IcoMoon.io -->
<svg version="1.1" xmlns="http://www.w3.org/2000/svg" width="32" height="32" viewBox="0 0 32 32">
<title>text-proofing-tools</title>
<path d="M27.371 4.362c0.822 0.403 1.466 1.164 1.904 2.379 0.187 0.52-0.082 1.093-0.602 1.28s-1.093-0.082-1.28-0.602c-0.312-0.865-0.664-1.144-0.903-1.261-0.292-0.143-0.623-0.158-1.156-0.158-0.504 0-0.83 0.16-1.070 0.372-0.26 0.231-0.466 0.571-0.619 0.979-0.151 0.404-0.231 0.821-0.272 1.148-0.020 0.161-0.030 0.293-0.035 0.383-0.002 0.045-0.003 0.078-0.004 0.098l-0 0.021c0 0.7 0.010 1.596 0.306 2.35 0.141 0.359 0.334 0.65 0.595 0.865 0.256 0.21 0.63 0.393 1.209 0.458 0.469 0.052 1.505-0.028 1.979-1.075 0.228-0.503 0.82-0.726 1.323-0.498s0.726 0.82 0.498 1.323c-1.026 2.266-3.279 2.32-4.021 2.238-0.921-0.102-1.671-0.417-2.26-0.901-0.582-0.48-0.952-1.081-1.186-1.678-0.445-1.133-0.444-2.374-0.444-3.039v-0.051l0-0.015 0.001-0.046c0.001-0.038 0.003-0.091 0.006-0.155 0.007-0.129 0.021-0.309 0.047-0.524 0.053-0.423 0.16-1.006 0.384-1.602 0.222-0.592 0.579-1.253 1.163-1.771 0.604-0.537 1.403-0.878 2.399-0.878l0.052-0c0.479-0.001 1.243-0.001 1.985 0.362z"></path>
<path d="M7.036 4c0.418 0.006 0.788 0.271 0.928 0.665l3.075 8.667c0.185 0.52-0.088 1.092-0.608 1.277s-1.092-0.088-1.277-0.608l-0.451-1.27h-3.603l-0.502 1.297c-0.199 0.515-0.779 0.771-1.294 0.572s-0.771-0.779-0.572-1.294l3.355-8.667c0.151-0.39 0.529-0.645 0.947-0.639zM6.981 7.876l-1.105 2.856h2.119l-1.013-2.856z"></path>
<path d="M12.374 21.626l2.559 2.559 5.966-7.159c0.354-0.424 0.984-0.482 1.408-0.128s0.482 0.984 0.128 1.408l-6.667 8c-0.376 0.452-1.059 0.483-1.475 0.067l-3.333-3.333c-0.391-0.39-0.391-1.024 0-1.414s1.024-0.391 1.414 0z"></path>
<path d="M19.434 7.167c0 0.765-0.195 1.378-0.511 1.852 0.234 0.184 0.451 0.416 0.629 0.709 0.299 0.49 0.449 1.085 0.449 1.773 0 0.659-0.158 1.231-0.455 1.705-0.295 0.47-0.692 0.789-1.087 1.002-0.761 0.409-1.581 0.46-1.958 0.46h-3.5c-0.552 0-1-0.448-1-1v-8.667c0-0.552 0.448-1 1-1l0.012 0 3.231-0c0.287-0 1.062-0.002 1.777 0.398 0.392 0.219 0.761 0.553 1.024 1.041 0.26 0.481 0.389 1.059 0.389 1.728zM16.217 6h-2.217v2.333h2.217c0.201 0 0.54-0.039 0.798-0.196 0.114-0.069 0.207-0.158 0.277-0.283s0.143-0.336 0.143-0.688c0-0.415-0.079-0.649-0.148-0.777-0.065-0.121-0.146-0.193-0.24-0.245-0.231-0.129-0.537-0.144-0.829-0.144zM16.5 12.667c0.249 0 0.678-0.042 1.011-0.221 0.152-0.082 0.263-0.181 0.339-0.302 0.074-0.118 0.15-0.312 0.15-0.643 0-0.395-0.084-0.613-0.157-0.732-0.071-0.117-0.169-0.201-0.303-0.267-0.311-0.154-0.712-0.167-1.041-0.167h-2.5v2.333h2.5z"></path>
</svg>
