<!-- Generated by IcoMoon.io -->
<svg version="1.1" xmlns="http://www.w3.org/2000/svg" width="32" height="32" viewBox="0 0 32 32">
<title>text-edit-style-regular</title>
<path d="M26.751 11.26c0.776 0.776 1.255 1.848 1.255 3.033 0 1.186-0.481 2.259-1.258 3.035l-9.497 9.483c-0.341 0.34-0.764 0.599-1.236 0.744l-0.021 0.006-5.724 1.72c-0.115 0.036-0.247 0.057-0.384 0.057-0.736 0-1.333-0.597-1.333-1.333 0-0.146 0.023-0.287 0.067-0.418l-0.003 0.009 1.816-5.637c0.147-0.453 0.4-0.867 0.736-1.204l9.511-9.495c0.777-0.776 1.85-1.256 3.035-1.256 1.186 0 2.26 0.481 3.037 1.259l0 0zM22.092 12.673l-9.511 9.493c-0.11 0.109-0.194 0.244-0.243 0.394l-0.002 0.007-1.427 4.431 4.509-1.353c0.164-0.050 0.305-0.137 0.419-0.251v0l9.496-9.48c0.415-0.415 0.672-0.988 0.672-1.621 0-1.266-1.026-2.292-2.292-2.292-0.633 0-1.206 0.256-1.621 0.671v0zM10.867 3.16l0.067 0.14 4.337 10.999-1.543 1.54-0.987-2.505h-5.484l-1.327 3.36c-0.15 0.374-0.51 0.634-0.931 0.634-0.084 0-0.166-0.010-0.244-0.030l0.007 0.001-0.131-0.041c-0.373-0.151-0.631-0.51-0.631-0.93 0-0.085 0.011-0.167 0.030-0.245l-0.001 0.007 0.040-0.131 5.005-12.66c0.15-0.374 0.51-0.633 0.93-0.633 0.366 0 0.686 0.197 0.86 0.49l0.003 0.005zM10.003 6.389l-1.955 4.944h3.904l-1.948-4.944z"></path>
</svg>
