<!-- Generated by IcoMoon.io -->
<svg version="1.1" xmlns="http://www.w3.org/2000/svg" width="32" height="32" viewBox="0 0 32 32">
<title>text-align-left</title>
<path d="M2.667 7.667c0-0.552 0.448-1 1-1h20.667c0.552 0 1 0.448 1 1s-0.448 1-1 1h-20.667c-0.552 0-1-0.448-1-1z"></path>
<path d="M2.667 25c0-0.552 0.448-1 1-1h14c0.552 0 1 0.448 1 1s-0.448 1-1 1h-14c-0.552 0-1-0.448-1-1z"></path>
<path d="M3.667 15.333c-0.552 0-1 0.448-1 1s0.448 1 1 1h24.667c0.552 0 1-0.448 1-1s-0.448-1-1-1h-24.667z"></path>
</svg>
