<!-- Generated by IcoMoon.io -->
<svg version="1.1" xmlns="http://www.w3.org/2000/svg" width="32" height="32" viewBox="0 0 32 32">
<title>text-hanging-regular</title>
<path d="M28.333 6.667c0.552 0 1 0.448 1 1s-0.448 1-1 1v0h-24.667c-0.552 0-1-0.448-1-1s0.448-1 1-1v0h24.667zM19 24c0.552 0 1 0.448 1 1s-0.448 1-1 1v0h-15.333c-0.552 0-1-0.448-1-1s0.448-1 1-1v0h15.333zM20 16.333c0-0.552-0.448-1-1-1v0h-15.333c-0.552 0-1 0.448-1 1s0.448 1 1 1v0h15.333c0.552 0 1-0.448 1-1v0zM26.96 17.293c0.183-0.196 0.443-0.318 0.732-0.318 0.552 0 1 0.448 1 1 0 0.289-0.122 0.549-0.318 0.731l-0.001 0.001-1.96 1.96 1.96 1.96c0.196 0.183 0.318 0.443 0.318 0.732 0 0.552-0.448 1-1 1-0.289 0-0.549-0.122-0.731-0.318l-0.001-0.001-2.667-2.667c-0.181-0.181-0.292-0.431-0.292-0.707s0.112-0.526 0.292-0.707v0l2.667-2.667z"></path>
</svg>
