<!-- Generated by IcoMoon.io -->
<svg version="1.1" xmlns="http://www.w3.org/2000/svg" width="32" height="32" viewBox="0 0 32 32">
<title>textbox-align-middle-rotate-90</title>
<path d="M18.667 9.333v13.333c0 0.736-0.448 1.333-1 1.333-0.506 0-0.925-0.502-0.991-1.152l-0.009-0.181v-13.333c0-0.736 0.448-1.333 1-1.333 0.506 0 0.925 0.502 0.991 1.152l0.009 0.181zM14.667 22.667v-13.333l-0.009-0.181c-0.066-0.651-0.485-1.152-0.991-1.152-0.552 0-1 0.597-1 1.333v13.333l0.009 0.181c0.066 0.651 0.485 1.152 0.991 1.152 0.552 0 1-0.597 1-1.333zM24.333 28c2.025 0 3.667-1.642 3.667-3.667v-16.667c0-2.025-1.642-3.667-3.667-3.667h-16.667c-2.025 0-3.667 1.642-3.667 3.667v16.667c0 2.025 1.642 3.667 3.667 3.667h16.667zM26 7.667v16.667c0 0.921-0.746 1.667-1.667 1.667h-16.667c-0.92 0-1.667-0.746-1.667-1.667v-16.667c0-0.92 0.746-1.667 1.667-1.667h16.667c0.921 0 1.667 0.746 1.667 1.667z"></path>
</svg>
