<!-- Generated by IcoMoon.io -->
<svg version="1.1" xmlns="http://www.w3.org/2000/svg" width="32" height="32" viewBox="0 0 32 32">
<title>text-bullet-list-tree</title>
<path d="M9.666 21.333c0.92 0 1.666 0.746 1.666 1.666s-0.746 1.666-1.666 1.666c-0.92 0-1.666-0.746-1.666-1.666s0.746-1.666 1.666-1.666zM14.334 22h14c0.552 0 1 0.448 1 1 0 0.506-0.376 0.925-0.864 0.991l-0.136 0.009h-14c-0.552 0-1-0.448-1-1 0-0.506 0.376-0.925 0.864-0.991l0.136-0.009zM4.332 14.667c0.92 0 1.666 0.746 1.666 1.666s-0.746 1.666-1.666 1.666c-0.92 0-1.666-0.746-1.666-1.666s0.746-1.666 1.666-1.666zM9 15.333h19.334c0.552 0 1 0.448 1 1 0 0.506-0.376 0.925-0.864 0.991l-0.136 0.009h-19.334c-0.552 0-1-0.448-1-1 0-0.506 0.376-0.925 0.864-0.991l0.136-0.009zM4.333 8c0.92 0 1.666 0.746 1.666 1.666s-0.746 1.666-1.666 1.666c-0.92 0-1.666-0.746-1.666-1.666s0.746-1.666 1.666-1.666zM9 8.667h19.333c0.552 0 1 0.448 1 1 0 0.506-0.376 0.925-0.864 0.991l-0.136 0.009h-19.333c-0.552 0-1-0.448-1-1 0-0.506 0.376-0.925 0.864-0.991l0.136-0.009z"></path>
</svg>
