<!-- Generated by IcoMoon.io -->
<svg version="1.1" xmlns="http://www.w3.org/2000/svg" width="32" height="32" viewBox="0 0 32 32">
<title>text-bullet-list-tree</title>
<path d="M9.667 23.333c0.014-0 0.031-0.001 0.047-0.001 0.92 0 1.667 0.746 1.667 1.667s-0.746 1.667-1.667 1.667c-0.017 0-0.033-0-0.050-0.001l0.002 0c-0.9-0.026-1.62-0.762-1.62-1.666s0.72-1.64 1.617-1.666l0.002-0zM14.333 24h14c0.552 0 1 0.448 1 1 0 0.504-0.373 0.921-0.858 0.99l-0.005 0.001-0.136 0.009h-14c-0.552-0-1-0.448-1-1 0-0.504 0.373-0.921 0.858-0.99l0.005-0.001 0.136-0.009zM4.333 14.667c0.014-0 0.031-0.001 0.047-0.001 0.92 0 1.667 0.746 1.667 1.667s-0.746 1.667-1.667 1.667c-0.017 0-0.033-0-0.050-0.001l0.002 0c-0.9-0.026-1.62-0.762-1.62-1.666s0.72-1.64 1.617-1.666l0.002-0zM9 15.333h19.333c0.552 0 1 0.448 1 1 0 0.504-0.373 0.921-0.858 0.99l-0.005 0.001-0.136 0.009h-19.333c-0.552-0-1-0.448-1-1 0-0.504 0.373-0.921 0.858-0.99l0.005-0.001 0.136-0.009zM4.333 6c0.014-0 0.031-0.001 0.047-0.001 0.92 0 1.667 0.746 1.667 1.667s-0.746 1.667-1.667 1.667c-0.017 0-0.033-0-0.050-0.001l0.002 0c-0.9-0.026-1.62-0.762-1.62-1.666s0.72-1.64 1.617-1.666l0.002-0zM9 6.667h19.333c0.552 0 1 0.448 1 1 0 0.504-0.373 0.921-0.858 0.99l-0.005 0.001-0.136 0.009h-19.333c-0.552-0-1-0.448-1-1 0-0.504 0.373-0.921 0.858-0.99l0.005-0.001 0.136-0.009z"></path>
</svg>
