<!-- Generated by IcoMoon.io -->
<svg version="1.1" xmlns="http://www.w3.org/2000/svg" width="32" height="32" viewBox="0 0 32 32">
<title>text-font</title>
<path d="M9.334 2.667c0.419 0 0.793 0.261 0.938 0.653l3.936 10.646c0.006 0.014 0.011 0.029 0.016 0.044l0.297 0.802-1.104 2.781-0.835-2.259h-6.496l-1.484 4.012c-0.192 0.518-0.767 0.783-1.285 0.591s-0.783-0.767-0.591-1.285l1.717-4.644c0.005-0.015 0.010-0.029 0.016-0.044l3.937-10.646c0.145-0.393 0.519-0.653 0.938-0.653zM6.825 13.334h5.017l-2.508-6.784-2.509 6.784z"></path>
<path d="M18.408 8.631c0.151-0.381 0.52-0.631 0.93-0.631s0.778 0.251 0.929 0.632l7.407 18.707h0.659c0.552 0 1 0.448 1 1s-0.448 1-1 1h-1.32c-0.005 0-0.010 0-0.015 0-0.007 0-0.014 0-0.021-0l-1.976-0c-0.552 0-1-0.448-1-1s0.448-1 1-1h0.523l-1.586-4.005h-9.213l-1.59 4.006h0.532c0.552 0 1 0.448 1 1s-0.448 1-1 1h-1.986c-0.004 0-0.009 0-0.013 0-0.008 0-0.016 0-0.024-0l-1.308-0c-0.552 0-1-0.448-1-1s0.448-1 1-1h0.648l7.426-18.708zM23.145 21.333l-3.809-9.62-3.819 9.62h7.627z"></path>
</svg>
