<!-- Generated by IcoMoon.io -->
<svg version="1.1" xmlns="http://www.w3.org/2000/svg" width="32" height="32" viewBox="0 0 32 32">
<title>text-direction-rotate-270-right</title>
<path d="M6.96 6.96c-0.391 0.391-0.391 1.024 0 1.414s1.024 0.391 1.414 0l0.96-0.96v4.919c0 0.552 0.448 1 1 1s1-0.448 1-1v-4.919l0.96 0.96c0.391 0.391 1.024 0.391 1.414 0s0.391-1.024 0-1.414l-2.667-2.667c-0.391-0.391-1.024-0.391-1.414 0l-2.667 2.667zM17.293 27.93l-12.66-5.005c-0.794-0.314-0.84-1.39-0.139-1.793l0.14-0.067 12.667-4.995c0.514-0.203 1.094 0.050 1.297 0.563 0.186 0.471-0.011 0.998-0.441 1.239l-0.123 0.058-3.367 1.328v5.484l3.361 1.327c0.471 0.186 0.722 0.69 0.604 1.168l-0.041 0.13c-0.186 0.471-0.69 0.722-1.168 0.604l-0.13-0.041zM7.723 21.996l4.944 1.956v-3.904l-4.944 1.948zM19.626 8.374c-0.391-0.391-0.391-1.024 0-1.414l2.667-2.667c0.391-0.391 1.024-0.391 1.414 0l2.667 2.667c0.391 0.391 0.391 1.024 0 1.414s-1.024 0.391-1.414 0l-0.96-0.96v19.586c0 0.552-0.448 1-1 1s-1-0.448-1-1v-19.586l-0.96 0.96c-0.391 0.391-1.024 0.391-1.414 0z"></path>
</svg>
