<!-- Generated by IcoMoon.io -->
<svg version="1.1" xmlns="http://www.w3.org/2000/svg" width="32" height="32" viewBox="0 0 32 32">
<title>text-column-three</title>
<path d="M4 7.667c0-0.552 0.448-1 1-1v0h4.667c0.552 0 1 0.448 1 1s-0.448 1-1 1v0h-4.667c-0.552 0-1-0.448-1-1v0zM12.667 7.667c0-0.552 0.448-1 1-1v0h4.667c0.552 0 1 0.448 1 1s-0.448 1-1 1v0h-4.667c-0.552 0-1-0.448-1-1v0zM21.333 7.667c0-0.552 0.448-1 1-1v0h4.667c0.552 0 1 0.448 1 1s-0.448 1-1 1v0h-4.667c-0.552 0-1-0.448-1-1v0zM4 13c0-0.552 0.448-1 1-1v0h4.667c0.552 0 1 0.448 1 1s-0.448 1-1 1v0h-4.667c-0.552 0-1-0.448-1-1v0zM12.667 13c0-0.552 0.448-1 1-1v0h4.667c0.552 0 1 0.448 1 1s-0.448 1-1 1v0h-4.667c-0.552 0-1-0.448-1-1v0zM21.333 13c0-0.552 0.448-1 1-1v0h4.667c0.552 0 1 0.448 1 1s-0.448 1-1 1v0h-4.667c-0.552 0-1-0.448-1-1v0zM4 18.333c0-0.552 0.448-1 1-1v0h4.667c0.552 0 1 0.448 1 1s-0.448 1-1 1v0h-4.667c-0.552 0-1-0.448-1-1v0zM12.667 18.333c0-0.552 0.448-1 1-1v0h4.667c0.552 0 1 0.448 1 1s-0.448 1-1 1v0h-4.667c-0.552 0-1-0.448-1-1v0zM21.333 18.333c0-0.552 0.448-1 1-1v0h4.667c0.552 0 1 0.448 1 1s-0.448 1-1 1v0h-4.667c-0.552 0-1-0.448-1-1v0zM4 23.667c0-0.552 0.448-1 1-1v0h4.667c0.552 0 1 0.448 1 1s-0.448 1-1 1v0h-4.667c-0.552 0-1-0.448-1-1v0zM12.667 23.667c0-0.552 0.448-1 1-1v0h4.667c0.552 0 1 0.448 1 1s-0.448 1-1 1v0h-4.667c-0.552 0-1-0.448-1-1v0zM21.333 23.667c0-0.552 0.448-1 1-1v0h4.667c0.552 0 1 0.448 1 1s-0.448 1-1 1v0h-4.667c-0.552 0-1-0.448-1-1v0z"></path>
</svg>
