<!-- Generated by IcoMoon.io -->
<svg version="1.1" xmlns="http://www.w3.org/2000/svg" width="32" height="32" viewBox="0 0 32 32">
<title>text-grammar-error-regular</title>
<path d="M4 8c-0.442 0-0.8 0.358-0.8 0.8s0.358 0.8 0.8 0.8v0h24c0.442 0 0.8-0.358 0.8-0.8s-0.358-0.8-0.8-0.8v0h-24zM4 12.8c-0.442 0-0.8 0.358-0.8 0.8s0.358 0.8 0.8 0.8v0h24c0.442 0 0.8-0.358 0.8-0.8s-0.358-0.8-0.8-0.8v0h-24zM14.4 23.2c0-0.269 0.013-0.536 0.035-0.8h-10.435c-0.442 0-0.8 0.358-0.8 0.8s0.358 0.8 0.8 0.8v0h10.435c-0.022-0.237-0.035-0.513-0.035-0.791 0-0.003 0-0.006 0-0.009v0zM15.36 19.2c0.293-0.573 0.646-1.109 1.051-1.6h-12.411c-0.442 0-0.8 0.358-0.8 0.8s0.358 0.8 0.8 0.8v0h11.36zM30.4 23.2c0 3.976-3.224 7.2-7.2 7.2s-7.2-3.224-7.2-7.2v0c0-3.976 3.224-7.2 7.2-7.2s7.2 3.224 7.2 7.2v0zM23.2 19.2c-0.442 0-0.8 0.358-0.8 0.8v0 3.2c0 0.442 0.358 0.8 0.8 0.8s0.8-0.358 0.8-0.8v0-3.2c0-0.442-0.358-0.8-0.8-0.8v0zM23.2 27.4c0.552 0 1-0.448 1-1s-0.448-1-1-1v0c-0.552 0-1 0.448-1 1s0.448 1 1 1v0z"></path>
</svg>
