<!-- Generated by IcoMoon.io -->
<svg version="1.1" xmlns="http://www.w3.org/2000/svg" width="32" height="32" viewBox="0 0 32 32">
<title>text-font</title>
<path d="M9.333 2.667c0.428 0 0.792 0.269 0.935 0.646l0.002 0.007 4.249 11.492-1.105 2.781-0.835-2.259h-6.496l-1.483 4.013c-0.145 0.384-0.51 0.653-0.938 0.653-0.552 0-1-0.448-1-1 0-0.125 0.023-0.244 0.065-0.354l-0.002 0.007 1.717-4.644c0.007-0.022 0.013-0.036 0.018-0.051l-0.002 0.007 3.936-10.645c0.145-0.385 0.51-0.653 0.938-0.653 0 0 0 0 0.001 0h-0zM6.824 13.333h5.017l-2.508-6.781-2.509 6.781zM18.408 8.631c0.151-0.373 0.51-0.631 0.929-0.631s0.778 0.258 0.927 0.624l0.002 0.007 7.407 18.708h0.659c0.552 0 1 0.448 1 1s-0.448 1-1 1v0h-3.332c-0.552 0-1-0.448-1-1s0.448-1 1-1v0h0.523l-1.587-4.005h-9.213l-1.589 4.005h0.532c0.552 0 1 0.448 1 1s-0.448 1-1 1v0h-3.332c-0.552 0-1-0.448-1-1s0.448-1 1-1v0h0.648l7.427-18.707zM23.144 21.333l-3.808-9.62-3.819 9.62h7.627z"></path>
</svg>
