<!-- Generated by IcoMoon.io -->
<svg version="1.1" xmlns="http://www.w3.org/2000/svg" width="32" height="32" viewBox="0 0 32 32">
<title>text-direction-horizontal-right</title>
<path d="M4.070 17.293l5.005-12.66c0.314-0.794 1.39-0.84 1.793-0.139l0.067 0.14 4.995 12.667c0.203 0.514-0.050 1.094-0.563 1.297-0.471 0.186-0.998-0.011-1.239-0.441l-0.058-0.123-1.328-3.367h-5.484l-1.327 3.361c-0.186 0.471-0.69 0.722-1.168 0.604l-0.13-0.041c-0.471-0.186-0.722-0.69-0.604-1.168l0.041-0.13zM10.004 7.723l-1.956 4.944h3.904l-1.948-4.944zM16 10.333c0 0.552 0.448 1 1 1h7.586l-0.959 0.96c-0.391 0.391-0.391 1.024 0 1.414s1.024 0.391 1.414 0l2.667-2.667c0.391-0.391 0.391-1.024 0-1.414l-2.667-2.667c-0.391-0.391-1.024-0.391-1.414 0s-0.391 1.024 0 1.414l0.959 0.96h-7.586c-0.552 0-1 0.448-1 1zM4 23c0 0.552 0.448 1 1 1h19.586l-0.959 0.96c-0.391 0.391-0.391 1.024 0 1.414s1.024 0.391 1.414 0l2.667-2.667c0.391-0.391 0.391-1.024 0-1.414l-2.667-2.667c-0.391-0.391-1.024-0.391-1.414 0s-0.391 1.024 0 1.414l0.959 0.96h-19.586c-0.552 0-1 0.448-1 1z"></path>
</svg>
