<!-- Generated by IcoMoon.io -->
<svg version="1.1" xmlns="http://www.w3.org/2000/svg" width="32" height="32" viewBox="0 0 32 32">
<title>textbox-rotate-90</title>
<path d="M28 24.333c0 2.025-1.642 3.667-3.667 3.667v0h-16.667c-2.025 0-3.667-1.642-3.667-3.667v0-16.667c0-2.025 1.642-3.667 3.667-3.667v0h16.667c2.025 0 3.667 1.642 3.667 3.667v0 16.667zM26 24.333v-16.667c0-0.92-0.747-1.667-1.667-1.667h-16.667c-0.92 0-1.667 0.747-1.667 1.667v16.667c0 0.92 0.747 1.667 1.667 1.667h16.667c0.92 0 1.667-0.747 1.667-1.667zM16.667 19v-10l-0.009-0.136c-0.069-0.491-0.486-0.864-0.991-0.864-0.552 0-1 0.448-1 1v10l0.009 0.136c0.069 0.491 0.486 0.864 0.991 0.864 0.552 0 1-0.448 1-1v-0zM11.333 9v14c-0 0.552-0.448 1-1 1-0.504 0-0.921-0.373-0.99-0.858l-0.001-0.005-0.009-0.136v-14c0-0.552 0.448-1 1-1 0.504 0 0.921 0.373 0.99 0.858l0.001 0.005 0.009 0.136zM22 23v-14l-0.009-0.136c-0.069-0.491-0.486-0.864-0.991-0.864-0.552 0-1 0.448-1 1v14l0.009 0.136c0.069 0.491 0.486 0.864 0.991 0.864 0.552 0 1-0.448 1-1v-0z"></path>
</svg>
