<!-- Generated by IcoMoon.io -->
<svg version="1.1" xmlns="http://www.w3.org/2000/svg" width="32" height="32" viewBox="0 0 32 32">
<title>text-proofing-tools</title>
<path d="M27.371 4.363c0.821 0.403 1.467 1.163 1.904 2.379 0.042 0.106 0.067 0.23 0.067 0.359 0 0.552-0.448 1-1 1-0.438 0-0.811-0.282-0.946-0.674l-0.002-0.007c-0.312-0.864-0.664-1.144-0.904-1.261-0.289-0.143-0.623-0.157-1.156-0.157-0.504 0-0.831 0.16-1.069 0.373-0.26 0.231-0.467 0.571-0.619 0.977-0.125 0.333-0.22 0.721-0.27 1.123l-0.002 0.025c-0.019 0.136-0.033 0.303-0.040 0.471l-0 0.011v0.021c0 0.699 0.011 1.596 0.307 2.349 0.14 0.36 0.333 0.649 0.595 0.864 0.256 0.211 0.631 0.393 1.209 0.459 0.469 0.052 1.505-0.029 1.979-1.076 0.161-0.349 0.508-0.587 0.911-0.587 0.552 0 1 0.448 1 1 0 0.15-0.033 0.292-0.092 0.42l0.003-0.006c-1.027 2.265-3.279 2.32-4.021 2.237-0.92-0.103-1.671-0.417-2.259-0.903-0.523-0.442-0.93-1.006-1.177-1.65l-0.009-0.028c-0.444-1.135-0.444-2.375-0.444-3.041v-0.063l0.001-0.047c0.008-0.25 0.027-0.485 0.057-0.717l-0.004 0.037c0.053-0.423 0.16-1.005 0.384-1.601 0.223-0.593 0.579-1.253 1.163-1.772 0.604-0.537 1.403-0.877 2.4-0.877h0.051c0.48 0 1.244-0.001 1.985 0.363zM7.036 4c0.427 0.007 0.788 0.28 0.926 0.66l0.002 0.007 3.076 8.667c0.033 0.095 0.052 0.204 0.052 0.318 0 0.552-0.448 1-1 1-0.427 0-0.792-0.268-0.935-0.644l-0.002-0.007-0.451-1.269h-3.603l-0.501 1.297c-0.149 0.377-0.511 0.639-0.933 0.639-0.553 0-1.001-0.448-1.001-1.001 0-0.13 0.025-0.254 0.070-0.368l-0.002 0.007 3.356-8.667c0.149-0.377 0.51-0.639 0.932-0.639 0.005 0 0.010 0 0.015 0h-0.001zM6.981 7.876l-1.107 2.855h2.12l-1.013-2.855zM12.373 21.627l2.559 2.559 5.965-7.16c0.185-0.22 0.46-0.359 0.768-0.359 0.552 0 1 0.448 1 1 0 0.244-0.088 0.468-0.233 0.642l0.001-0.002-6.667 8c-0.185 0.22-0.46 0.359-0.768 0.359-0.276 0-0.526-0.112-0.707-0.293l-3.333-3.333c-0.196-0.183-0.318-0.443-0.318-0.732 0-0.552 0.448-1 1-1 0.289 0 0.549 0.122 0.731 0.318l0.001 0.001zM19.432 7.167c0 0.765-0.195 1.379-0.511 1.852 0.233 0.184 0.451 0.416 0.629 0.709 0.299 0.489 0.448 1.084 0.448 1.773 0 0.659-0.157 1.231-0.455 1.704-0.271 0.423-0.638 0.762-1.071 0.994l-0.015 0.008c-0.761 0.409-1.581 0.46-1.959 0.46h-3.499c-0.552 0-1-0.448-1-1v0-8.667c0-0.552 0.448-1 1-1v0h3.244c0.287 0 1.061-0.001 1.776 0.397 0.392 0.219 0.761 0.553 1.025 1.041 0.26 0.481 0.388 1.060 0.388 1.728zM16.217 6h-2.217v2.333h2.217c0.2 0 0.54-0.040 0.797-0.196 0.116-0.069 0.21-0.165 0.274-0.279l0.002-0.004c0.071-0.125 0.143-0.336 0.143-0.688 0-0.413-0.080-0.649-0.148-0.777-0.055-0.105-0.137-0.189-0.237-0.244l-0.003-0.002c-0.231-0.129-0.537-0.144-0.828-0.144zM16.5 12.667c0.249 0 0.679-0.043 1.011-0.221 0.14-0.071 0.255-0.174 0.338-0.299l0.002-0.003c0.073-0.117 0.149-0.312 0.149-0.643 0-0.395-0.084-0.613-0.156-0.733-0.073-0.116-0.176-0.208-0.298-0.265l-0.004-0.002c-0.312-0.153-0.712-0.167-1.040-0.167h-2.501v2.333h2.5z"></path>
</svg>
