<!-- Generated by IcoMoon.io -->
<svg version="1.1" xmlns="http://www.w3.org/2000/svg" width="32" height="32" viewBox="0 0 32 32">
<title>text-header-1</title>
<path d="M26.12 6.775c-0.086-0.044-0.179-0.075-0.277-0.093-0.12-0.022-0.24-0.021-0.355 0-0.167 0.030-0.319 0.102-0.446 0.204-0.155 0.125-0.273 0.295-0.332 0.49-0.919 2.735-2.743 4.545-4.224 5.433-0.473 0.284-0.627 0.898-0.343 1.372s0.898 0.627 1.372 0.343c1.032-0.619 2.165-1.573 3.152-2.861v12.67c0 0.552 0.448 1 1 1s1-0.448 1-1v-16.638c0.006-0.192-0.045-0.38-0.141-0.541-0.095-0.159-0.233-0.292-0.406-0.38zM4.667 7.667c0-0.552-0.448-1-1-1s-1 0.448-1 1v16.667c0 0.552 0.448 1 1 1s1-0.448 1-1v-7.667h8.667v7.667c0 0.552 0.448 1 1 1s1-0.448 1-1v-16.667c0-0.552-0.448-1-1-1s-1 0.448-1 1v7h-8.667v-7z"></path>
</svg>
