<!-- Generated by IcoMoon.io -->
<svg version="1.1" xmlns="http://www.w3.org/2000/svg" width="32" height="32" viewBox="0 0 32 32">
<title>text-number-list-rotate-270-regular</title>
<path d="M3.667 24c-0.552 0-0.999 0.448-0.999 1 0 0.404 0.239 0.752 0.584 0.909l0.006 0.003 0.004 0.003c0.077 0.036 0.135 0.066 0.192 0.097l-0.016-0.008c0.128 0.069 0.309 0.175 0.513 0.317 0.416 0.289 0.883 0.699 1.201 1.208 0.182 0.272 0.487 0.448 0.834 0.448 0.552 0 1-0.448 1-1 0-0.187-0.051-0.362-0.141-0.511l0.003 0.005c-0.114-0.181-0.222-0.334-0.339-0.482l0.008 0.011h3.149c0.552 0 1-0.448 1-1s-0.448-1-1-1v0h-6zM25 4.667c-0.552 0-1 0.448-1 1v0 12c0 0.552 0.448 1 1 1s1-0.448 1-1v0-12c0-0.552-0.448-1-1-1v0zM16.325 4.667c-0.552 0-1 0.448-1 1v0 12c0 0.552 0.448 1 1 1s1-0.448 1-1v0-12c0-0.552-0.448-1-1-1v0zM7.667 4.667c-0.552 0-1 0.448-1 1v0 12c0 0.552 0.448 1 1 1s1-0.448 1-1v0-12c0-0.552-0.448-1-1-1v0zM14.027 25.133c-0.071 0.4 0.088 0.901 0.347 1.16 0.166 0.178 0.268 0.418 0.268 0.682 0 0.552-0.448 1-1 1-0.264 0-0.504-0.102-0.682-0.269l0.001 0.001c-0.741-0.741-1.083-1.907-0.903-2.923 0.093-0.529 0.339-1.073 0.807-1.487 0.477-0.421 1.1-0.631 1.803-0.631 0.827 0 1.44 0.361 1.893 0.808 0.377 0.371 0.681 0.84 0.919 1.208l0.068 0.107c0.169 0.26 0.316 0.472 0.453 0.641v-1.764c0-0.552 0.448-1 1-1s1 0.448 1 1v0 3.333c0 0.552-0.448 1-1 1v0c-1.751 0-2.604-1.312-3.116-2.1l-0.053-0.080c-0.273-0.424-0.46-0.711-0.672-0.92-0.181-0.179-0.317-0.233-0.492-0.233-0.297 0-0.424 0.081-0.48 0.131-0.087 0.087-0.145 0.203-0.16 0.332l-0 0.003zM28.373 28.040s0.112-0.124 0.007-0.005l0.007-0.008 0.017-0.017c0.058-0.061 0.113-0.126 0.163-0.195l0.004-0.005c0.095-0.127 0.211-0.303 0.324-0.529 0.227-0.455 0.44-1.107 0.44-1.947 0-0.853-0.243-1.595-0.72-2.135-0.425-0.488-1.048-0.794-1.742-0.794-0.025 0-0.050 0-0.075 0.001l0.004-0c-0.563 0.018-1.073 0.23-1.47 0.571l0.003-0.003c-0.394-0.338-0.905-0.55-1.466-0.567l-0.003-0c-0.022-0.001-0.047-0.001-0.073-0.001-0.694 0-1.316 0.306-1.738 0.79l-0.002 0.003c-0.476 0.54-0.719 1.281-0.719 2.135 0 0.84 0.211 1.492 0.44 1.947 0.13 0.259 0.279 0.482 0.45 0.685l-0.004-0.005 0.044 0.049 0.017 0.017 0.007 0.008 0.004 0.003v0.001l0.003 0.001c0.179 0.172 0.423 0.277 0.691 0.277 0.552 0 1-0.448 1-1 0-0.26-0.1-0.498-0.263-0.676l0.001 0.001c-0.059-0.075-0.113-0.158-0.157-0.248l-0.004-0.008c-0.143-0.294-0.227-0.639-0.227-1.004 0-0.017 0-0.034 0.001-0.052l-0 0.003c0-0.48 0.132-0.715 0.217-0.811 0.057-0.072 0.145-0.117 0.243-0.117 0.002 0 0.005 0 0.007 0h-0c0.125 0.010 0.233 0.072 0.306 0.163l0.001 0.001c0.104 0.117 0.227 0.351 0.227 0.764 0 0.552 0.448 1 1 1s1-0.448 1-1v0c0-0.413 0.12-0.647 0.223-0.764 0.073-0.093 0.183-0.154 0.307-0.164l0.001-0c0.002-0 0.005-0 0.008-0 0.098 0 0.185 0.046 0.242 0.117l0 0.001c0.084 0.096 0.217 0.329 0.217 0.811 0 0.493-0.123 0.841-0.227 1.053-0.049 0.098-0.103 0.181-0.165 0.259l0.002-0.003c-0.162 0.177-0.262 0.414-0.262 0.675 0 0.552 0.448 1 1 1 0.268 0 0.512-0.106 0.692-0.278l-0 0zM22.291 28.037v0.001z"></path>
</svg>
