<!-- Generated by IcoMoon.io -->
<svg version="1.1" xmlns="http://www.w3.org/2000/svg" width="32" height="32" viewBox="0 0 32 32">
<title>text-wrap-off-regular</title>
<path d="M4.373 2.96c-0.183-0.196-0.443-0.318-0.732-0.318-0.552 0-1 0.448-1 1 0 0.289 0.122 0.549 0.318 0.731l0.001 0.001 2.293 2.293h-1.587c-0.552 0-1 0.448-1 1s0.448 1 1 1v0h3.587l6.667 6.667h-10.253c-0.552 0-1 0.448-1 1s0.448 1 1 1v0h12.253l4.044 4.045c-0.089-0.029-0.191-0.045-0.297-0.045-0.276 0-0.526 0.112-0.707 0.293l-2.667 2.667c-0.181 0.181-0.292 0.431-0.292 0.707s0.112 0.526 0.292 0.707v0l2.667 2.667c0.183 0.196 0.443 0.318 0.732 0.318 0.552 0 1-0.448 1-1 0-0.289-0.122-0.549-0.318-0.731l-0.001-0.001-0.96-0.96h5.172l3.040 3.040c0.18 0.174 0.425 0.281 0.695 0.281 0.552 0 1-0.448 1-1 0-0.27-0.107-0.515-0.281-0.695l-24.666-24.666zM22.587 24h-3.171l0.96-0.96c0.18-0.181 0.292-0.431 0.292-0.706 0-0.106-0.017-0.209-0.047-0.305l0.002 0.007 1.964 1.964zM25.333 15.333h-5.759l2 2h3.759c1.841 0 3.333 1.492 3.333 3.333 0 1.026-0.464 1.944-1.193 2.556l-0.005 0.004 1.419 1.417c1.095-0.981 1.78-2.399 1.78-3.977 0-2.946-2.388-5.333-5.333-5.333-0 0-0 0-0 0v0zM10.909 6.667l2 2h15.424c0.552 0 1-0.448 1-1s-0.448-1-1-1v0h-17.424zM2.667 25c0-0.552 0.448-1 1-1v0h8.667c0.552 0 1 0.448 1 1s-0.448 1-1 1v0h-8.667c-0.552 0-1-0.448-1-1v0z"></path>
</svg>
