<!-- Generated by IcoMoon.io -->
<svg version="1.1" xmlns="http://www.w3.org/2000/svg" width="32" height="32" viewBox="0 0 32 32">
<title>text-case-lowercase</title>
<path d="M18.333 4c0.552 0 1 0.448 1 1v0 10.983c0.913-0.824 2.072-1.316 3.333-1.316 2.947 0 5.333 2.687 5.333 6s-2.387 6-5.333 6c-1.261 0-2.42-0.493-3.333-1.316v0.316c0 0.552-0.448 1-1 1s-1-0.448-1-1v0-20.667c0-0.552 0.448-1 1-1v0zM19.333 20.667c0 2.437 1.707 4 3.333 4s3.333-1.563 3.333-4-1.707-4-3.333-4-3.333 1.563-3.333 4zM10 14.001l0.383 0.013c2.613 0.131 4.171 1.635 4.277 4.060l0.007 0.272v7.333c-0 0.504-0.373 0.921-0.859 0.99l-0.005 0.001-0.136 0.009c-0.504-0-0.921-0.373-0.99-0.859l-0.001-0.005-0.009-0.136-0.001-0.139c-1.317 0.753-2.535 1.139-3.665 1.139-2.451 0-4.333-1.725-4.333-4.333 0-2.299 1.584-4.007 4.213-4.325 0.35-0.043 0.755-0.068 1.165-0.068 0.932 0 1.834 0.127 2.69 0.365l-0.071-0.017c-0.013-1.477-0.741-2.207-2.381-2.289-1.283-0.063-2.185 0.117-2.713 0.487-0.163 0.12-0.367 0.191-0.588 0.191-0.552 0-1-0.448-1-1 0-0.343 0.173-0.646 0.437-0.827l0.003-0.002c0.877-0.615 2.072-0.887 3.577-0.86zM12.667 20.432l-0.404-0.12c-0.664-0.197-1.428-0.31-2.217-0.31-0.326 0-0.647 0.019-0.962 0.057l0.038-0.004c-1.643 0.2-2.453 1.073-2.453 2.341 0 1.461 0.949 2.333 2.333 2.333 0.907 0 2.024-0.42 3.335-1.285l0.331-0.225v-2.787z"></path>
</svg>
