<!-- Generated by IcoMoon.io -->
<svg version="1.1" xmlns="http://www.w3.org/2000/svg" width="32" height="32" viewBox="0 0 32 32">
<title>text-footnote-ga-na</title>
<path d="M27.333 9.685c-0.257 0.232-0.529 0.445-0.81 0.632-0.46 0.306-1.080 0.182-1.387-0.277s-0.182-1.080 0.277-1.387c1.019-0.679 1.773-1.762 1.941-2.533 0.107-0.49 0.556-0.816 1.042-0.784 0.522 0.033 0.936 0.467 0.936 0.998v8.667c0 0.552-0.448 1-1 1s-1-0.448-1-1v-5.316zM2.667 12.333c0-0.552 0.448-1 1-1h4.667c0.552 0 1 0.448 1 1 0 1.291-0.221 2.988-1.013 4.477-0.815 1.532-2.231 2.823-4.5 3.178-0.546 0.085-1.057-0.288-1.142-0.834s0.288-1.057 0.834-1.142c1.566-0.245 2.483-1.089 3.043-2.141 0.415-0.781 0.634-1.683 0.725-2.538h-3.614c-0.552 0-1-0.448-1-1zM10.667 8.333v16.001c0 0.552 0.448 1 1 1s1-0.448 1-1v-16.001c0-0.552-0.448-1-1-1s-1 0.448-1 1zM21.333 24.334v-16.001c0-0.552 0.448-1 1-1s1 0.448 1 1v16.001c0 0.552-0.448 1-1 1s-1-0.448-1-1zM16.99 9.475c0.078-0.547-0.302-1.053-0.849-1.131s-1.053 0.302-1.131 0.849l-1.333 9.333c-0.044 0.312 0.060 0.626 0.283 0.849s0.537 0.327 0.849 0.283l4.667-0.667c0.547-0.078 0.927-0.585 0.849-1.131s-0.585-0.927-1.131-0.849l-3.347 0.478 1.145-8.013z"></path>
</svg>
