<!-- Generated by IcoMoon.io -->
<svg version="1.1" xmlns="http://www.w3.org/2000/svg" width="32" height="32" viewBox="0 0 32 32">
<title>text-wrap</title>
<path d="M3.667 6.667c-0.552 0-1 0.448-1 1s0.448 1 1 1h24.667c0.552 0 1-0.448 1-1s-0.448-1-1-1h-24.667z"></path>
<path d="M3.667 15.333c-0.552 0-1 0.448-1 1s0.448 1 1 1h21.667c1.841 0 3.333 1.492 3.333 3.333s-1.492 3.333-3.333 3.333h-5.919l0.959-0.96c0.391-0.391 0.391-1.024 0-1.414s-1.024-0.391-1.414 0l-2.667 2.667c-0.391 0.391-0.391 1.024 0 1.414l2.667 2.667c0.391 0.391 1.024 0.391 1.414 0s0.391-1.024 0-1.414l-0.959-0.96h5.919c2.945 0 5.333-2.388 5.333-5.333s-2.388-5.333-5.333-5.333h-21.667z"></path>
<path d="M2.667 25c0-0.552 0.448-1 1-1h8.667c0.552 0 1 0.448 1 1s-0.448 1-1 1h-8.667c-0.552 0-1-0.448-1-1z"></path>
</svg>
