<!-- Generated by IcoMoon.io -->
<svg version="1.1" xmlns="http://www.w3.org/2000/svg" width="32" height="32" viewBox="0 0 32 32">
<title>textbox-align-middle-regular</title>
<path d="M9.333 13.333h13.333c0.736 0 1.333 0.448 1.333 1 0 0.507-0.501 0.925-1.152 0.991l-0.181 0.009h-13.333c-0.736 0-1.333-0.448-1.333-1 0-0.507 0.501-0.925 1.152-0.991l0.181-0.009zM22.667 17.333l-13.515 0.009c-0.651 0.067-1.152 0.484-1.152 0.991 0 0.552 0.597 1 1.333 1l13.515-0.009c0.651-0.067 1.152-0.484 1.152-0.991 0-0.552-0.597-1-1.333-1zM28 7.667c0-2.025-1.642-3.667-3.667-3.667v0h-16.667c-2.025 0-3.667 1.642-3.667 3.667v0 16.667c0 2.025 1.642 3.667 3.667 3.667v0h16.667c2.025 0 3.667-1.642 3.667-3.667v0-16.667zM7.667 6h16.667c0.92 0 1.667 0.747 1.667 1.667v16.667c0 0.92-0.747 1.667-1.667 1.667h-16.667c-0.92 0-1.667-0.747-1.667-1.667v-16.667c0-0.92 0.747-1.667 1.667-1.667z"></path>
</svg>
