<!-- Generated by IcoMoon.io -->
<svg version="1.1" xmlns="http://www.w3.org/2000/svg" width="32" height="32" viewBox="0 0 32 32">
<title>text-align-justify-rotate-270-regular</title>
<path d="M7.667 29.333c-0.552 0-1-0.448-1-1v0-24.667c0-0.552 0.448-1 1-1s1 0.448 1 1v0 24.667c0 0.552-0.448 1-1 1v0zM25 29.333c-0.552 0-1-0.448-1-1v0-24.667c0-0.552 0.448-1 1-1s1 0.448 1 1v0 24.667c0 0.552-0.448 1-1 1v0zM15.333 28.333c0 0.552 0.448 1 1 1s1-0.448 1-1v0-24.667c0-0.552-0.448-1-1-1s-1 0.448-1 1v0 24.667z"></path>
</svg>
