<!-- Generated by IcoMoon.io -->
<svg version="1.1" xmlns="http://www.w3.org/2000/svg" width="32" height="32" viewBox="0 0 32 32">
<title>text-indent-increase-rotate-270</title>
<path d="M21.333 8.333c0-0.552 0.448-1 1-1s1 0.448 1 1v0 12c0 0.552-0.448 1-1 1s-1-0.448-1-1v0-12zM12.293 28.373c-0.181-0.181-0.293-0.431-0.293-0.707 0-0.224 0.073-0.43 0.198-0.597l-0.002 0.003 0.097-0.112 2.667-2.667c0.181-0.181 0.431-0.293 0.707-0.293 0.224 0 0.43 0.073 0.597 0.198l-0.003-0.002 0.112 0.097 2.667 2.667c0.179 0.181 0.29 0.43 0.29 0.704 0 0.552-0.448 1-1 1-0.223 0-0.428-0.073-0.594-0.196l0.003 0.002-0.112-0.097-1.96-1.96-1.96 1.96c-0.181 0.181-0.431 0.292-0.707 0.292s-0.526-0.112-0.707-0.292v0zM14.667 4.333c0-0.552 0.448-1 1-1s1 0.448 1 1v0 16c0 0.552-0.448 1-1 1s-1-0.448-1-1v0-16zM8 8.333c0-0.552 0.448-1 1-1s1 0.448 1 1v0 12c0 0.552-0.448 1-1 1s-1-0.448-1-1v0-12z"></path>
</svg>
