<!-- Generated by IcoMoon.io -->
<svg version="1.1" xmlns="http://www.w3.org/2000/svg" width="32" height="32" viewBox="0 0 32 32">
<title>text-effects-ga</title>
<path d="M22.667 3.333c1.841 0 3.333 1.492 3.333 3.333v3.333c1.841 0 3.333 1.492 3.333 3.333s-1.492 3.333-3.333 3.333v7.333c0 1.841-1.492 3.333-3.333 3.333s-3.333-1.492-3.333-3.333v-17.333c0-1.841 1.492-3.333 3.333-3.333zM24 24v-9.333h2c0.736 0 1.333-0.597 1.333-1.333s-0.597-1.333-1.333-1.333h-2v-5.333c0-0.736-0.597-1.333-1.333-1.333s-1.333 0.597-1.333 1.333v17.333c0 0.736 0.597 1.333 1.333 1.333s1.333-0.597 1.333-1.333zM3.333 10.667c0-1.841 1.492-3.333 3.333-3.333h8c1.841 0 3.333 1.492 3.333 3.333 0 2.45-0.444 5.752-2.028 8.568-1.694 3.012-4.717 5.432-9.305 5.432-1.841 0-3.333-1.492-3.333-3.333s1.492-3.333 3.333-3.333c0.986 0 1.665-0.232 2.165-0.548 0.511-0.324 0.95-0.811 1.33-1.486 0.324-0.575 0.577-1.246 0.764-1.966h-4.259c-1.841 0-3.333-1.492-3.333-3.333zM12.982 14c-0.227 1.039-0.576 2.056-1.077 2.946-1.002 1.781-2.592 3.054-5.238 3.054-0.736 0-1.333 0.597-1.333 1.333s0.597 1.333 1.333 1.333c3.755 0 6.164-1.927 7.562-4.413 1.354-2.406 1.771-5.327 1.771-7.587 0-0.736-0.597-1.333-1.333-1.333h-8c-0.736 0-1.333 0.597-1.333 1.333s0.597 1.333 1.333 1.333h6.611c-0.054 0.657-0.15 1.333-0.296 2z"></path>
</svg>
