<!-- Generated by IcoMoon.io -->
<svg version="1.1" xmlns="http://www.w3.org/2000/svg" width="32" height="32" viewBox="0 0 32 32">
<title>text-header-2</title>
<path d="M6 7.667c0-0.552-0.448-1-1-1s-1 0.448-1 1v0 16.667c0 0.552 0.448 1 1 1s1-0.448 1-1v0-7.667h8.667v7.667c0 0.552 0.448 1 1 1s1-0.448 1-1v0-16.667c0-0.552-0.448-1-1-1s-1 0.448-1 1v0 7h-8.667v-7zM20.561 10.447c0.307-0.613 1.217-1.78 3.44-1.78 1.123 0 1.945 0.347 2.48 0.852 0.529 0.501 0.853 1.228 0.853 2.148 0 2.617-1.733 4.091-3.944 5.791l-0.283 0.217c-2.008 1.537-4.441 3.4-4.441 6.659 0 0.552 0.448 1 1 1v0h8.667c0.552 0 1-0.448 1-1s-0.448-1-1-1v0h-7.547c0.42-1.669 1.903-2.813 3.821-4.291 2.125-1.633 4.725-3.66 4.725-7.376 0-1.413-0.511-2.687-1.48-3.603-0.965-0.912-2.309-1.397-3.853-1.397-3.111 0-4.645 1.721-5.227 2.887-0.057 0.122-0.090 0.265-0.090 0.415 0 0.552 0.448 1 1 1 0.377 0 0.705-0.209 0.876-0.517l0.003-0.005z"></path>
</svg>
