<!-- Generated by IcoMoon.io -->
<svg version="1.1" xmlns="http://www.w3.org/2000/svg" width="32" height="32" viewBox="0 0 32 32">
<title>text-bullet-list-square-warning</title>
<path d="M7 4c-1.657 0-3 1.343-3 3v18c0 1.657 1.343 3 3 3h7.734c0.071-0.347 0.196-0.682 0.373-0.992l0.577-1.008h-8.684c-0.552 0-1-0.448-1-1v-18c0-0.552 0.448-1 1-1h18c0.552 0 1 0.448 1 1v10.339c0.081 0.108 0.155 0.221 0.222 0.339l1.778 3.108v-13.786c0-1.657-1.343-3-3-3h-18z"></path>
<path d="M23.333 16c0-0.552-0.448-1-1-1h-7.333c-0.552 0-1 0.448-1 1s0.448 1 1 1h5.955c0.421-0.43 0.943-0.73 1.505-0.883 0.283-0.077 0.577-0.117 0.873-0.117z"></path>
<path d="M19.116 20h-4.115c-0.552 0-1 0.448-1 1s0.448 1 1 1h2.971l1.144-2z"></path>
<path d="M10.333 12.333c0.736 0 1.333-0.597 1.333-1.333s-0.597-1.333-1.333-1.333c-0.736 0-1.333 0.597-1.333 1.333s0.597 1.333 1.333 1.333z"></path>
<path d="M15 10c-0.552 0-1 0.448-1 1s0.448 1 1 1h7.333c0.552 0 1-0.448 1-1s-0.448-1-1-1h-7.333z"></path>
<path d="M10.333 17.333c0.736 0 1.333-0.597 1.333-1.333s-0.597-1.333-1.333-1.333c-0.736 0-1.333 0.597-1.333 1.333s0.597 1.333 1.333 1.333z"></path>
<path d="M10.333 22.333c0.736 0 1.333-0.597 1.333-1.333s-0.597-1.333-1.333-1.333c-0.736 0-1.333 0.597-1.333 1.333s0.597 1.333 1.333 1.333z"></path>
<path d="M22.81 17.404c0.494-0.134 1.036-0.080 1.514 0.195 0.308 0.177 0.563 0.432 0.74 0.741l5.337 9.331c0.274 0.479 0.329 1.024 0.194 1.519s-0.456 0.937-0.934 1.211c-0.302 0.173-0.644 0.264-0.992 0.264h-10.675c-0.551 0-1.049-0.223-1.411-0.585s-0.585-0.862-0.585-1.415c0-0.349 0.091-0.692 0.264-0.995l5.337-9.331c0.274-0.479 0.715-0.801 1.209-0.936zM23.994 20.667c0-0.368-0.299-0.667-0.667-0.667s-0.667 0.299-0.667 0.667v4c0 0.368 0.299 0.667 0.667 0.667s0.667-0.299 0.667-0.667v-4zM23.333 28.667c0.552 0 1-0.448 1-1s-0.448-1-1-1c-0.552 0-1 0.448-1 1s0.448 1 1 1z"></path>
</svg>
