<!-- Generated by IcoMoon.io -->
<svg version="1.1" xmlns="http://www.w3.org/2000/svg" width="32" height="32" viewBox="0 0 32 32">
<title>text-bullet-list-ltr-rotate-90</title>
<path d="M23.2 4.8c0 0.884 0.716 1.6 1.6 1.6s1.6-0.716 1.6-1.6v0c0-0.884-0.716-1.6-1.6-1.6s-1.6 0.716-1.6 1.6v0zM24.8 9.6c0.442 0 0.8 0.358 0.8 0.8v0 17.6c0 0.442-0.358 0.8-0.8 0.8s-0.8-0.358-0.8-0.8v0-17.6c0-0.442 0.358-0.8 0.8-0.8v0zM16.8 9.6c0.442 0 0.8 0.358 0.8 0.8v0 17.6c0 0.442-0.358 0.8-0.8 0.8s-0.8-0.358-0.8-0.8v0-17.6c0-0.442 0.358-0.8 0.8-0.8v0zM9.6 10.4c0-0.442-0.358-0.8-0.8-0.8s-0.8 0.358-0.8 0.8v0 17.6c0 0.442 0.358 0.8 0.8 0.8s0.8-0.358 0.8-0.8v0-17.6zM8.8 6.4c-0.884 0-1.6-0.716-1.6-1.6s0.716-1.6 1.6-1.6v0c0.884 0 1.6 0.716 1.6 1.6s-0.716 1.6-1.6 1.6v0zM15.2 4.8c0 0.884 0.716 1.6 1.6 1.6s1.6-0.716 1.6-1.6v0c0-0.884-0.716-1.6-1.6-1.6s-1.6 0.716-1.6 1.6v0z"></path>
</svg>
