<!-- Generated by IcoMoon.io -->
<svg version="1.1" xmlns="http://www.w3.org/2000/svg" width="32" height="32" viewBox="0 0 32 32">
<title>text-whole-word-regular</title>
<path d="M18.4 24c0.442 0 0.8-0.358 0.8-0.8v0-0.626c0.799 0.865 1.934 1.41 3.197 1.426l0.003 0c2.705-0.232 4.813-2.485 4.813-5.23 0-0.13-0.005-0.259-0.014-0.387l0.001 0.017c0.008-0.111 0.013-0.241 0.013-0.372 0-2.745-2.108-4.998-4.794-5.227l-0.019-0.001c-1.265 0.016-2.401 0.56-3.197 1.423l-0.003 0.003v-7.826c0-0.442-0.358-0.8-0.8-0.8s-0.8 0.358-0.8 0.8v0 16.8c0 0.442 0.358 0.8 0.8 0.8v0zM22.4 14.4c1.823 0.23 3.218 1.77 3.218 3.637 0 0.128-0.007 0.254-0.019 0.379l0.001-0.016c0.012 0.109 0.018 0.235 0.018 0.363 0 1.866-1.395 3.407-3.2 3.635l-0.018 0.002c-1.823-0.23-3.218-1.77-3.218-3.637 0-0.128 0.007-0.254 0.019-0.379l-0.001 0.016c-0.012-0.109-0.018-0.235-0.018-0.363 0-1.866 1.395-3.407 3.2-3.635l0.018-0.002zM7.794 23.814c0.356 0.076 0.765 0.119 1.184 0.119 1.46 0 2.796-0.526 3.831-1.398l-0.009 0.007v0.658c0 0.442 0.358 0.8 0.8 0.8s0.8-0.358 0.8-0.8v0-6.461c0.014-0.122 0.021-0.264 0.021-0.407 0-1.483-0.826-2.774-2.042-3.437l-0.021-0.010c-0.776-0.374-1.687-0.593-2.649-0.593-0.12 0-0.238 0.003-0.356 0.010l0.016-0.001c-0.921 0.023-1.787 0.236-2.567 0.601l0.039-0.017c-0.261 0.135-0.436 0.403-0.436 0.712 0 0.442 0.358 0.8 0.8 0.8 0.128 0 0.25-0.030 0.357-0.084l-0.005 0.002c0.55-0.25 1.192-0.401 1.867-0.416l0.005-0c0.082-0.005 0.177-0.008 0.273-0.008 0.703 0 1.369 0.156 1.966 0.436l-0.028-0.012c0.699 0.369 1.167 1.090 1.167 1.921 0 0.066-0.003 0.132-0.009 0.196l0.001-0.008c-0.661-0.213-1.426-0.355-2.217-0.397l-0.023-0.001c-0.153-0.013-0.332-0.021-0.513-0.021-1.217 0-2.352 0.346-3.314 0.945l0.027-0.015c-1.089 0.676-1.804 1.865-1.804 3.221 0 1.752 1.193 3.226 2.811 3.653l0.026 0.006zM7.643 18.267c0.685-0.415 1.513-0.66 2.399-0.66 0.152 0 0.302 0.007 0.451 0.021l-0.019-0.001c0.797 0.040 1.582 0.208 2.326 0.493v2.342c-0.956 1.131-2.375 1.845-3.962 1.845-0.223 0-0.442-0.014-0.657-0.041l0.026 0.003c-0.958-0.243-1.655-1.097-1.655-2.114 0-0.803 0.435-1.505 1.082-1.882l0.010-0.006zM30.4 25.6v0.8c0 1.325-1.075 2.4-2.4 2.4v0h-24c-1.325 0-2.4-1.075-2.4-2.4v0-0.8c0-0.442 0.358-0.8 0.8-0.8s0.8 0.358 0.8 0.8v0 0.8c0 0.442 0.358 0.8 0.8 0.8v0h24c0.442 0 0.8-0.358 0.8-0.8v0-0.8c0-0.442 0.358-0.8 0.8-0.8s0.8 0.358 0.8 0.8v0z"></path>
</svg>
