<!-- Generated by IcoMoon.io -->
<svg version="1.1" xmlns="http://www.w3.org/2000/svg" width="32" height="32" viewBox="0 0 32 32">
<title>text-indent-increase-rotate-90</title>
<path d="M10.667 23.667c0 0.552-0.448 1-1 1s-1-0.448-1-1v0-12c0-0.552 0.448-1 1-1s1 0.448 1 1v0 12zM19.707 3.627c0.181 0.181 0.293 0.431 0.293 0.707 0 0.224-0.073 0.43-0.198 0.597l0.002-0.003-0.097 0.112-2.667 2.667c-0.181 0.181-0.431 0.293-0.707 0.293-0.224 0-0.43-0.073-0.597-0.198l0.003 0.002-0.112-0.097-2.667-2.667c-0.179-0.181-0.29-0.43-0.29-0.704 0-0.552 0.448-1 1-1 0.223 0 0.428 0.073 0.594 0.196l-0.003-0.002 0.112 0.097 1.96 1.96 1.96-1.96c0.181-0.181 0.431-0.292 0.707-0.292s0.526 0.112 0.707 0.292v0zM17.333 27.667c0 0.552-0.448 1-1 1s-1-0.448-1-1v0-16c0-0.552 0.448-1 1-1s1 0.448 1 1v0 16zM24 23.667c0 0.552-0.448 1-1 1s-1-0.448-1-1v0-12c0-0.552 0.448-1 1-1s1 0.448 1 1v0 12z"></path>
</svg>
