<!-- Generated by IcoMoon.io -->
<svg version="1.1" xmlns="http://www.w3.org/2000/svg" width="32" height="32" viewBox="0 0 32 32">
<title>text-continuous</title>
<path d="M5 6.667c-0.552 0-1 0.448-1 1s0.448 1 1 1h22c0.552 0 1-0.448 1-1s-0.448-1-1-1h-22z"></path>
<path d="M11.667 12c-0.552 0-1 0.448-1 1s0.448 1 1 1h15.333c0.552 0 1-0.448 1-1s-0.448-1-1-1h-15.333z"></path>
<path d="M10.667 18.333c0-0.552 0.448-1 1-1h15.333c0.552 0 1 0.448 1 1s-0.448 1-1 1h-15.333c-0.552 0-1-0.448-1-1z"></path>
<path d="M5 22.667c-0.552 0-1 0.448-1 1s0.448 1 1 1h22c0.552 0 1-0.448 1-1s-0.448-1-1-1h-22z"></path>
<path d="M4.293 14.707c-0.391-0.391-0.391-1.024 0-1.414s1.024-0.391 1.414 0l2 2c0.391 0.391 0.391 1.024 0 1.414l-2 2c-0.391 0.391-1.024 0.391-1.414 0s-0.391-1.024 0-1.414l1.293-1.293-1.293-1.293z"></path>
</svg>
