<!-- Generated by IcoMoon.io -->
<svg version="1.1" xmlns="http://www.w3.org/2000/svg" width="32" height="32" viewBox="0 0 32 32">
<title>text-grammar-wand</title>
<path d="M3.667 22.667h10.367l-2 2h-8.367c-0.552-0-1-0.448-1-1 0-0.504 0.373-0.921 0.858-0.99l0.005-0.001 0.136-0.009zM3.667 19.333h10.085c-0.262-0.371-0.419-0.834-0.419-1.332 0-0.238 0.036-0.468 0.102-0.684l-0.004 0.016-9.9 0.009c-0.491 0.069-0.864 0.486-0.864 0.991 0 0.552 0.448 1 1 1h0zM16.96 21.627c0.183-0.196 0.443-0.318 0.732-0.318 0.552 0 1 0.448 1 1 0 0.289-0.122 0.549-0.318 0.731l-0.001 0.001-6 6c-0.178 0.166-0.418 0.268-0.682 0.268-0.552 0-1-0.448-1-1 0-0.264 0.102-0.504 0.269-0.682l-0.001 0.001 6-6zM3.667 12h14c0.552 0 1 0.448 1 1 0 0.504-0.373 0.921-0.858 0.99l-0.005 0.001-0.136 0.009h-14c-0.552-0-1-0.448-1-1 0-0.504 0.373-0.921 0.858-0.99l0.005-0.001 0.136-0.009zM3.667 6.667h24.667c0.552 0 1 0.448 1 1 0 0.504-0.373 0.921-0.858 0.99l-0.005 0.001-0.136 0.009h-24.667c-0.552-0-1-0.448-1-1 0-0.504 0.373-0.921 0.858-0.99l0.005-0.001 0.136-0.009zM22 10.667c0.509 0 0.929 0.38 0.991 0.872l0.001 0.005 0.187 1.507c0.25 1.974 1.797 3.522 3.749 3.77l0.021 0.002 1.507 0.185c0.495 0.065 0.874 0.484 0.874 0.992s-0.378 0.927-0.869 0.991l-0.005 0.001-1.507 0.187c-1.974 0.25-3.522 1.797-3.77 3.749l-0.002 0.021-0.185 1.507c-0.065 0.495-0.484 0.874-0.992 0.874s-0.927-0.378-0.991-0.869l-0.001-0.005-0.187-1.507c-0.25-1.974-1.797-3.522-3.749-3.77l-0.021-0.002-1.507-0.185c-0.495-0.065-0.874-0.484-0.874-0.992s0.378-0.927 0.869-0.991l0.005-0.001 1.507-0.187c1.974-0.25 3.522-1.797 3.77-3.749l0.002-0.021 0.185-1.507c0.063-0.497 0.483-0.877 0.992-0.877h0zM22 15.699c-0.564 0.959-1.342 1.737-2.272 2.285l-0.030 0.016c0.959 0.564 1.737 1.342 2.285 2.272l0.016 0.030c0.564-0.959 1.342-1.737 2.272-2.285l0.030-0.016c-0.959-0.564-1.737-1.342-2.285-2.272l-0.016-0.030z"></path>
</svg>
