<!-- Generated by IcoMoon.io -->
<svg version="1.1" xmlns="http://www.w3.org/2000/svg" width="32" height="32" viewBox="0 0 32 32">
<title>text-bullet-list-rtl</title>
<path d="M27.668 23.334c-0.92 0-1.666 0.746-1.666 1.666s0.746 1.666 1.666 1.666 1.666-0.746 1.666-1.666c0-0.92-0.746-1.666-1.666-1.666zM23 24.001h-19.333c-0.552 0-1 0.448-1 1 0 0.506 0.376 0.925 0.864 0.991l0.136 0.009h19.333c0.552 0 1-0.448 1-1 0-0.506-0.376-0.925-0.864-0.991l-0.136-0.009zM27.668 14.667c-0.92 0-1.666 0.746-1.666 1.666s0.746 1.666 1.666 1.666 1.666-0.746 1.666-1.666c0-0.92-0.746-1.666-1.666-1.666zM23 15.334h-19.333c-0.552 0-1 0.448-1 1 0 0.506 0.376 0.925 0.864 0.991l0.136 0.009h19.333c0.552 0 1-0.448 1-1 0-0.506-0.376-0.925-0.864-0.991l-0.136-0.009zM27.668 6.001c-0.92 0-1.666 0.746-1.666 1.666s0.746 1.666 1.666 1.666c0.92 0 1.666-0.746 1.666-1.666s-0.746-1.666-1.666-1.666zM23 6.667h-19.333c-0.552 0-1 0.448-1 1 0 0.506 0.376 0.925 0.864 0.991l0.136 0.009h19.333c0.552 0 1-0.448 1-1 0-0.506-0.376-0.925-0.864-0.991l-0.136-0.009z"></path>
</svg>
