<!-- Generated by IcoMoon.io -->
<svg version="1.1" xmlns="http://www.w3.org/2000/svg" width="32" height="32" viewBox="0 0 32 32">
<title>text-first-line-regular</title>
<path d="M5.040 4.293c-0.178-0.166-0.418-0.268-0.682-0.268-0.552 0-1 0.448-1 1 0 0.264 0.102 0.504 0.269 0.682l-0.001-0.001 1.96 1.96-1.96 1.96c-0.166 0.178-0.268 0.418-0.268 0.682 0 0.552 0.448 1 1 1 0.264 0 0.504-0.102 0.682-0.269l-0.001 0.001 2.667-2.667c0.181-0.181 0.292-0.431 0.292-0.707s-0.112-0.526-0.292-0.707v0l-2.667-2.667zM13 6.667c-0.552 0-1 0.448-1 1s0.448 1 1 1v0h15.333c0.552 0 1-0.448 1-1s-0.448-1-1-1v0h-15.333zM3.667 24c-0.552 0-1 0.448-1 1s0.448 1 1 1v0h24.667c0.552 0 1-0.448 1-1s-0.448-1-1-1v0h-24.667zM2.667 16.333c0-0.552 0.448-1 1-1v0h24.667c0.552 0 1 0.448 1 1s-0.448 1-1 1v0h-24.667c-0.552 0-1-0.448-1-1v0z"></path>
</svg>
