<!-- Generated by IcoMoon.io -->
<svg version="1.1" xmlns="http://www.w3.org/2000/svg" width="32" height="32" viewBox="0 0 32 32">
<title>text-subscript</title>
<path d="M21.984 5.907c0.419 0.359 0.468 0.991 0.109 1.41l-7.442 8.683 6.71 7.828c-0.403 0.546-0.74 1.208-0.909 2.012l-7.117-8.304-7.241 8.448c-0.359 0.419-0.991 0.468-1.41 0.109s-0.468-0.991-0.108-1.41l7.442-8.683-7.442-8.682c-0.359-0.419-0.311-1.051 0.108-1.41s1.051-0.311 1.41 0.108l7.241 8.447 7.241-8.447c0.359-0.419 0.991-0.468 1.41-0.108z"></path>
<path d="M23.667 20.697c0-0.704 0.591-1.364 1.314-1.364 0.543 0 0.98 0.255 1.191 0.579 0.181 0.279 0.29 0.754-0.125 1.46-0.199 0.339-0.501 0.643-0.909 0.965-0.203 0.161-0.421 0.316-0.657 0.484l-0.098 0.069c-0.203 0.143-0.42 0.296-0.63 0.454-0.991 0.746-2.086 1.793-2.086 3.655 0 0.552 0.448 1 1 1h4.601c0.552 0 1-0.448 1-1s-0.448-1-1-1h-3.351c0.214-0.376 0.564-0.7 1.039-1.057 0.183-0.138 0.373-0.271 0.577-0.416l0.103-0.073c0.238-0.168 0.494-0.351 0.742-0.547 0.496-0.392 1.014-0.876 1.394-1.522 0.743-1.264 0.729-2.561 0.077-3.563-0.621-0.955-1.727-1.489-2.868-1.489-1.97 0-3.314 1.704-3.314 3.364 0 0.552 0.448 1 1 1s1-0.448 1-1z"></path>
</svg>
