<!-- Generated by IcoMoon.io -->
<svg version="1.1" xmlns="http://www.w3.org/2000/svg" width="32" height="32" viewBox="0 0 32 32">
<title>text-align-distributed</title>
<path d="M7.040 9.626l-0.96-0.96h22.252c0.552 0 1-0.448 1-1s-0.448-1-1-1h-22.252l0.96-0.96c0.391-0.391 0.391-1.024 0-1.414s-1.024-0.391-1.414 0l-2.667 2.667c-0.391 0.391-0.391 1.024 0 1.414l2.667 2.667c0.391 0.391 1.024 0.391 1.414 0s0.391-1.024 0-1.414zM3.667 15.333c-0.552 0-1 0.448-1 1s0.448 1 1 1h24.667c0.552 0 1-0.448 1-1s-0.448-1-1-1h-24.667zM3.667 26h22.252l-0.959 0.96c-0.391 0.391-0.391 1.024 0 1.414s1.024 0.391 1.414 0l2.667-2.667c0.391-0.391 0.391-1.024 0-1.414l-2.667-2.667c-0.391-0.391-1.024-0.391-1.414 0s-0.391 1.024 0 1.414l0.959 0.96h-22.252c-0.552 0-1 0.448-1 1s0.448 1 1 1z"></path>
</svg>
