<!-- Generated by IcoMoon.io -->
<svg version="1.1" xmlns="http://www.w3.org/2000/svg" width="32" height="32" viewBox="0 0 32 32">
<title>text-bullet-list-square-edit</title>
<path d="M7 4c-1.657 0-3 1.343-3 3v17.998c0 1.657 1.343 3 3 3h7.886l0.474-1.897c0.009-0.034 0.017-0.068 0.027-0.103h-8.387c-0.552 0-1-0.448-1-1v-17.998c0-0.552 0.448-1 1-1h17.998c0.552 0 1 0.448 1 1v7.976c0.639-0.254 1.325-0.352 2-0.294v-7.682c0-1.657-1.343-3-3-3h-17.998zM20.472 19.999h-5.473c-0.552 0-1 0.448-1 1s0.448 1 1 1h3.473l2-2zM11.666 10.999c0 0.736-0.597 1.333-1.333 1.333s-1.333-0.597-1.333-1.333c0-0.736 0.597-1.333 1.333-1.333s1.333 0.597 1.333 1.333zM14.999 9.999c-0.552 0-1 0.448-1 1s0.448 1 1 1h7.333c0.552 0 1-0.448 1-1s-0.448-1-1-1h-7.333zM14.999 14.999c-0.552 0-1 0.448-1 1s0.448 1 1 1h7.332c0.552 0 1-0.448 1-1s-0.447-1-1-1h-7.332zM10.333 17.332c0.736 0 1.333-0.597 1.333-1.333s-0.597-1.333-1.333-1.333-1.333 0.597-1.333 1.333c0 0.736 0.597 1.333 1.333 1.333zM11.666 20.999c0 0.736-0.597 1.333-1.333 1.333s-1.333-0.597-1.333-1.333c0-0.736 0.597-1.333 1.333-1.333s1.333 0.597 1.333 1.333zM25.465 16.891l-7.869 7.869c-0.459 0.459-0.784 1.034-0.942 1.663l-0.61 2.441c-0.265 1.061 0.696 2.023 1.757 1.758l2.441-0.61c0.629-0.157 1.204-0.483 1.663-0.942l7.869-7.869c1.19-1.19 1.19-3.12 0-4.31s-3.119-1.19-4.31 0z"></path>
</svg>
