<!-- Generated by IcoMoon.io -->
<svg version="1.1" xmlns="http://www.w3.org/2000/svg" width="32" height="32" viewBox="0 0 32 32">
<title>text-header-3</title>
<path d="M4.667 7.667c0-0.552-0.448-1-1-1s-1 0.448-1 1v0 16.667c0 0.552 0.448 1 1 1s1-0.448 1-1v0-7.667h8.667v7.667c0 0.552 0.448 1 1 1s1-0.448 1-1v0-16.667c0-0.552-0.448-1-1-1s-1 0.448-1 1v0 7h-8.667v-7zM20.56 10.447c0.307-0.613 1.219-1.78 3.44-1.78 1.124 0 1.947 0.347 2.48 0.852 0.531 0.501 0.853 1.228 0.853 2.148 0 0.808-0.215 1.368-0.512 1.776-0.304 0.419-0.74 0.739-1.271 0.98-1.088 0.493-2.403 0.577-3.177 0.577-0.552 0-1 0.448-1 1s0.448 1 1 1v0c0.775 0 2.089 0.084 3.177 0.577 0.531 0.24 0.967 0.56 1.271 0.98 0.297 0.408 0.512 0.968 0.512 1.776 0 1.448-1.219 3-3.333 3-2.303 0-3.131-1.013-3.404-1.701-0.143-0.388-0.51-0.66-0.94-0.66-0.552 0-1 0.448-1 1 0 0.143 0.030 0.279 0.084 0.403l-0.003-0.006c0.607 1.533 2.232 2.965 5.263 2.965 3.219 0 5.333-2.448 5.333-5 0-1.192-0.327-2.173-0.893-2.952-0.422-0.567-0.95-1.030-1.556-1.369l-0.025-0.013c0.632-0.351 1.159-0.815 1.572-1.368l0.009-0.013c0.567-0.779 0.893-1.76 0.893-2.952 0-1.413-0.511-2.687-1.48-3.603-0.967-0.912-2.311-1.397-3.853-1.397-3.112 0-4.645 1.721-5.227 2.887-0.081 0.141-0.129 0.31-0.129 0.491 0 0.552 0.448 1 1 1 0.407 0 0.757-0.243 0.913-0.591l0.003-0.006z"></path>
</svg>
