<!-- Generated by IcoMoon.io -->
<svg version="1.1" xmlns="http://www.w3.org/2000/svg" width="32" height="32" viewBox="0 0 32 32">
<title>text-more</title>
<path d="M13 2.667c0.411 0 0.764 0.248 0.918 0.603l0.002 0.006 9.296 21.908c-0.614-0.726-1.526-1.184-2.545-1.184-0.046 0-0.091 0.001-0.137 0.003l0.006-0-1.981-4.669h-11.12l-2.853 6.724c-0.162 0.346-0.508 0.581-0.908 0.581-0.552 0-1-0.448-1-1 0-0.13 0.025-0.255 0.070-0.369l-0.002 0.007 9.333-22c0.156-0.361 0.509-0.609 0.92-0.609h0zM17.712 17.333l-4.712-11.107-4.712 11.107h9.424zM16 27.333c0 1.105-0.895 2-2 2s-2-0.895-2-2v0c0-1.105 0.895-2 2-2s2 0.895 2 2v0zM20.667 29.333c1.105 0 2-0.895 2-2s-0.895-2-2-2v0c-1.105 0-2 0.895-2 2s0.895 2 2 2v0zM27.333 29.333c1.105 0 2-0.895 2-2s-0.895-2-2-2v0c-1.105 0-2 0.895-2 2s0.895 2 2 2v0z"></path>
</svg>
