<!-- Generated by IcoMoon.io -->
<svg version="1.1" xmlns="http://www.w3.org/2000/svg" width="32" height="32" viewBox="0 0 32 32">
<title>text-bullet-list-square-clock-regular</title>
<path d="M25.6 14.731v-6.731c0-0.884-0.716-1.6-1.6-1.6v0h-16c-0.884 0-1.6 0.716-1.6 1.6v0 16c0 0.884 0.716 1.6 1.6 1.6v0h6.731c0.158 0.558 0.368 1.093 0.629 1.6h-7.36c-1.767 0-3.2-1.433-3.2-3.2v0-16c0-1.767 1.433-3.2 3.2-3.2v0h16c1.767 0 3.2 1.433 3.2 3.2v0 7.36c-0.454-0.238-0.985-0.453-1.538-0.613l-0.062-0.015zM10.8 12.8c0.663 0 1.2-0.537 1.2-1.2s-0.537-1.2-1.2-1.2v0c-0.663 0-1.2 0.537-1.2 1.2s0.537 1.2 1.2 1.2v0zM12 16.4c0 0.663-0.537 1.2-1.2 1.2s-1.2-0.537-1.2-1.2v0c0-0.663 0.537-1.2 1.2-1.2s1.2 0.537 1.2 1.2v0zM12 21.2c0 0.663-0.537 1.2-1.2 1.2s-1.2-0.537-1.2-1.2v0c0-0.663 0.537-1.2 1.2-1.2s1.2 0.537 1.2 1.2v0zM14.4 12c0-0.442 0.358-0.8 0.8-0.8v0h6.4c0.442 0 0.8 0.358 0.8 0.8s-0.358 0.8-0.8 0.8v0h-6.4c-0.442 0-0.8-0.358-0.8-0.8v0zM14.4 16.8c0-0.442 0.358-0.8 0.8-0.8v0h2.939c-0.645 0.454-1.227 0.992-1.728 1.6h-1.211c-0.442 0-0.8-0.358-0.8-0.8v0zM30.4 23.2c0 3.976-3.224 7.2-7.2 7.2s-7.2-3.224-7.2-7.2v0c0-3.976 3.224-7.2 7.2-7.2s7.2 3.224 7.2 7.2v0zM23.2 19.2c-0.442 0-0.8 0.358-0.8 0.8v0 3.2c0 0.442 0.358 0.8 0.8 0.8v0h2.4c0.442 0 0.8-0.358 0.8-0.8s-0.358-0.8-0.8-0.8v0h-1.6v-2.4c0-0.442-0.358-0.8-0.8-0.8v0z"></path>
</svg>
