<!-- Generated by IcoMoon.io -->
<svg version="1.1" xmlns="http://www.w3.org/2000/svg" width="32" height="32" viewBox="0 0 32 32">
<title>text-bullet-list-square-search-regular</title>
<path d="M16.195 25.6h7.806c0.884 0 1.6-0.716 1.6-1.6v0-16c0-0.884-0.716-1.6-1.6-1.6v0h-16.002c-0.884 0-1.6 0.716-1.6 1.6v0 6.811c-0.611 0.219-1.139 0.489-1.625 0.818l0.026-0.016v-7.613c0-1.767 1.433-3.2 3.2-3.2v0h16c1.767 0 3.2 1.433 3.2 3.2v0 16c0 1.767-1.433 3.2-3.2 3.2v0h-6.206l-1.6-1.6zM10.802 12.8c0.663 0 1.2-0.537 1.2-1.2s-0.537-1.2-1.2-1.2v0c-0.663 0-1.2 0.537-1.2 1.2s0.537 1.2 1.2 1.2v0zM14.4 12c0-0.442 0.358-0.8 0.8-0.8v0h6.4c0.442 0 0.8 0.358 0.8 0.8s-0.358 0.8-0.8 0.8v0h-6.4c-0.442 0-0.8-0.358-0.8-0.8v0zM14.4 16.8c0-0.442 0.358-0.8 0.8-0.8v0h6.4c0.442 0 0.8 0.358 0.8 0.8s-0.358 0.8-0.8 0.8v0h-6.4c-0.442 0-0.8-0.358-0.8-0.8v0zM21.6 22.4h-5.645c0.028-0.24 0.045-0.518 0.045-0.8s-0.016-0.56-0.048-0.833l0.003 0.033h5.646c0.442 0 0.8 0.358 0.8 0.8s-0.358 0.8-0.8 0.8v0zM3.816 19.048c-0.388 0.742-0.615 1.62-0.615 2.551 0 3.093 2.507 5.6 5.6 5.6 1.267 0 2.435-0.42 3.373-1.129l-0.014 0.010 4.069 4.093c0.145 0.145 0.345 0.234 0.566 0.234 0.442 0 0.8-0.358 0.8-0.8 0-0.221-0.090-0.421-0.235-0.566v0l-4.080-4.080c0.697-0.924 1.117-2.091 1.117-3.356 0-3.093-2.507-5.6-5.6-5.6-2.16 0-4.034 1.223-4.968 3.013l-0.015 0.031zM12.126 19.378c0.435 0.631 0.695 1.411 0.695 2.253 0 2.209-1.791 4-4 4-1.393 0-2.62-0.712-3.337-1.793l-0.009-0.015c-0.41-0.618-0.654-1.376-0.654-2.192 0-2.209 1.791-4 4-4 1.368 0 2.575 0.687 3.297 1.734l0.009 0.013z"></path>
</svg>
