<!-- Generated by IcoMoon.io -->
<svg version="1.1" xmlns="http://www.w3.org/2000/svg" width="32" height="32" viewBox="0 0 32 32">
<title>text-direction-horizontal-left</title>
<path d="M27.929 17.293l-5.004-12.661c-0.315-0.793-1.391-0.84-1.793-0.139l-0.067 0.14-4.996 12.667c-0.046 0.11-0.072 0.238-0.072 0.373 0 0.552 0.448 1 1 1 0.374 0 0.701-0.206 0.872-0.51l0.003-0.005 0.057-0.123 1.329-3.368h5.484l1.327 3.36c0.15 0.374 0.51 0.634 0.931 0.634 0.084 0 0.166-0.010 0.244-0.030l-0.007 0.001 0.131-0.041c0.373-0.151 0.631-0.51 0.631-0.93 0-0.085-0.011-0.167-0.030-0.245l0.001 0.007-0.040-0.131zM21.996 7.723l1.956 4.944h-3.904l1.948-4.944zM16 10.333c0 0.552-0.448 1-1 1v0h-7.587l0.96 0.96c0.196 0.183 0.318 0.443 0.318 0.732 0 0.552-0.448 1-1 1-0.289 0-0.549-0.122-0.731-0.318l-0.001-0.001-2.667-2.667c-0.181-0.181-0.292-0.431-0.292-0.707s0.112-0.526 0.292-0.707v0l2.667-2.667c0.178-0.166 0.418-0.268 0.682-0.268 0.552 0 1 0.448 1 1 0 0.264-0.102 0.504-0.269 0.682l0.001-0.001-0.96 0.96h7.587c0.552 0 1 0.448 1 1v0zM28 23c0 0.552-0.448 1-1 1v0h-19.587l0.96 0.96c0.196 0.183 0.318 0.443 0.318 0.732 0 0.552-0.448 1-1 1-0.289 0-0.549-0.122-0.731-0.318l-0.001-0.001-2.667-2.667c-0.181-0.181-0.292-0.431-0.292-0.707s0.112-0.526 0.292-0.707v0l2.667-2.667c0.178-0.166 0.418-0.268 0.682-0.268 0.552 0 1 0.448 1 1 0 0.264-0.102 0.504-0.269 0.682l0.001-0.001-0.96 0.96h19.587c0.552 0 1 0.448 1 1v0z"></path>
</svg>
