<!-- Generated by IcoMoon.io -->
<svg version="1.1" xmlns="http://www.w3.org/2000/svg" width="32" height="32" viewBox="0 0 32 32">
<title>text-bullet-list-square-toolbox</title>
<path d="M8 27.2h6.4v-1.6h-6.4c-0.884 0-1.6-0.716-1.6-1.6v0-16c0-0.884 0.716-1.6 1.6-1.6v0h16c0.884 0 1.6 0.716 1.6 1.6v0 6.48c0.592 0.12 1.136 0.37 1.6 0.72v-7.2c0-1.767-1.433-3.2-3.2-3.2v0h-16c-1.767 0-3.2 1.433-3.2 3.2v0 16c0 1.767 1.433 3.2 3.2 3.2v0zM15.2 17.6h2.48c0.12-0.592 0.37-1.136 0.72-1.6h-3.2c-0.442 0-0.8 0.358-0.8 0.8s0.358 0.8 0.8 0.8v0zM12 11.6c0 0.663-0.537 1.2-1.2 1.2s-1.2-0.537-1.2-1.2v0c0-0.663 0.537-1.2 1.2-1.2s1.2 0.537 1.2 1.2v0zM12 16.4c0 0.663-0.537 1.2-1.2 1.2s-1.2-0.537-1.2-1.2v0c0-0.663 0.537-1.2 1.2-1.2s1.2 0.537 1.2 1.2v0zM10.8 22.4c0.663 0 1.2-0.537 1.2-1.2s-0.537-1.2-1.2-1.2v0c-0.663 0-1.2 0.537-1.2 1.2s0.537 1.2 1.2 1.2v0zM14.4 12c0-0.442 0.358-0.8 0.8-0.8v0h6.4c0.442 0 0.8 0.358 0.8 0.8s-0.358 0.8-0.8 0.8v0h-6.4c-0.442 0-0.8-0.358-0.8-0.8v0zM19.2 19.2v-0.8c0-1.325 1.075-2.4 2.4-2.4v0h3.2c1.325 0 2.4 1.075 2.4 2.4v0 0.8h0.8c1.325 0 2.4 1.075 2.4 2.4v0 2.4h-3.2v-0.8c0-0.442-0.358-0.8-0.8-0.8s-0.8 0.358-0.8 0.8v0 0.8h-4.8v-0.8c0-0.442-0.358-0.8-0.8-0.8s-0.8 0.358-0.8 0.8v0 0.8h-3.2v-2.4c0-1.325 1.075-2.4 2.4-2.4v0h0.8zM20.8 18.4v0.8h4.8v-0.8c0-0.442-0.358-0.8-0.8-0.8v0h-3.2c-0.442 0-0.8 0.358-0.8 0.8v0zM27.2 25.6h3.2v2.4c0 1.325-1.075 2.4-2.4 2.4v0h-9.6c-1.325 0-2.4-1.075-2.4-2.4v0-2.4h3.2v0.8c0 0.442 0.358 0.8 0.8 0.8s0.8-0.358 0.8-0.8v0-0.8h4.8v0.8c0 0.442 0.358 0.8 0.8 0.8s0.8-0.358 0.8-0.8v0-0.8z"></path>
</svg>
