<!-- Generated by IcoMoon.io -->
<svg version="1.1" xmlns="http://www.w3.org/2000/svg" width="32" height="32" viewBox="0 0 32 32">
<title>text-period-asterisk-regular</title>
<path d="M19.194 7.194c0-0.442-0.358-0.8-0.8-0.8s-0.8 0.358-0.8 0.8v0 3.944l-3.746-1.216c-0.066-0.020-0.141-0.031-0.22-0.031-0.442 0-0.8 0.358-0.8 0.8 0 0.343 0.215 0.635 0.518 0.749l0.005 0.002 3.752 1.219-2.32 3.197c-0.107 0.135-0.171 0.307-0.171 0.495 0 0.442 0.358 0.8 0.8 0.8 0.275 0 0.518-0.139 0.662-0.351l0.002-0.003 2.32-3.194 2.32 3.192c0.148 0.182 0.372 0.298 0.623 0.298 0.442 0 0.8-0.358 0.8-0.8 0-0.162-0.048-0.314-0.132-0.44l0.002 0.003-2.32-3.195 3.757-1.219c0.319-0.11 0.545-0.408 0.545-0.758 0-0.442-0.358-0.8-0.8-0.8-0.085 0-0.168 0.013-0.245 0.038l0.006-0.002-3.758 1.221v-3.949zM9.6 25.6c0.884 0 1.6-0.716 1.6-1.6s-0.716-1.6-1.6-1.6v0c-0.884 0-1.6 0.716-1.6 1.6s0.716 1.6 1.6 1.6v0z"></path>
</svg>
