<!-- Generated by IcoMoon.io -->
<svg version="1.1" xmlns="http://www.w3.org/2000/svg" width="32" height="32" viewBox="0 0 32 32">
<title>textbox-vertical</title>
<path d="M28 24.333c0 2.025-1.642 3.667-3.667 3.667h-16.667c-2.025 0-3.667-1.642-3.667-3.667v-16.667c0-2.025 1.642-3.667 3.667-3.667h16.667c2.025 0 3.667 1.642 3.667 3.667v16.667zM26 24.333v-16.667c0-0.92-0.746-1.667-1.667-1.667h-16.667c-0.92 0-1.667 0.746-1.667 1.667v16.667c0 0.921 0.746 1.667 1.667 1.667h16.667c0.921 0 1.667-0.746 1.667-1.667zM16.667 19v-10l-0.009-0.136c-0.066-0.488-0.485-0.864-0.991-0.864-0.552 0-1 0.448-1 1v10l0.009 0.136c0.066 0.488 0.485 0.864 0.991 0.864 0.552 0 1-0.448 1-1zM11.333 9v14c0 0.552-0.448 1-1 1-0.506 0-0.925-0.376-0.991-0.864l-0.009-0.136v-14c0-0.552 0.448-1 1-1 0.506 0 0.925 0.376 0.991 0.864l0.009 0.136zM22 23v-14l-0.009-0.136c-0.066-0.488-0.485-0.864-0.991-0.864-0.552 0-1 0.448-1 1v14l0.009 0.136c0.066 0.488 0.485 0.864 0.991 0.864 0.552 0 1-0.448 1-1z"></path>
</svg>
