<!-- Generated by IcoMoon.io -->
<svg version="1.1" xmlns="http://www.w3.org/2000/svg" width="32" height="32" viewBox="0 0 32 32">
<title>text-baseline-regular</title>
<path d="M16.738 6.090c-0.125-0.289-0.408-0.488-0.737-0.488s-0.612 0.199-0.735 0.483l-0.002 0.005-6.4 15.2c-0.051 0.103-0.081 0.223-0.081 0.351 0 0.442 0.358 0.8 0.8 0.8 0.345 0 0.639-0.219 0.751-0.525l0.002-0.006 2.491-5.91h6.349l2.488 5.91c0.124 0.29 0.408 0.49 0.738 0.49 0.442 0 0.8-0.358 0.8-0.8 0-0.112-0.023-0.219-0.065-0.316l0.002 0.005-6.4-15.2zM18.501 14.4h-5l2.499-5.939 2.501 5.939zM4 25.6c-0.442 0-0.8 0.358-0.8 0.8s0.358 0.8 0.8 0.8v0h24c0.442 0 0.8-0.358 0.8-0.8s-0.358-0.8-0.8-0.8v0h-24z"></path>
</svg>
