<!-- Generated by IcoMoon.io -->
<svg version="1.1" xmlns="http://www.w3.org/2000/svg" width="32" height="32" viewBox="0 0 32 32">
<title>text-add-regular</title>
<path d="M4.8 5.6c0-0.442 0.358-0.8 0.8-0.8v0h16c0.442 0 0.8 0.358 0.8 0.8v0 3.2c0 0.442-0.358 0.8-0.8 0.8s-0.8-0.358-0.8-0.8v0-2.4h-6.4v19.2h0.331c0.158 0.558 0.368 1.093 0.629 1.6h-4.96c-0.442 0-0.8-0.358-0.8-0.8s0.358-0.8 0.8-0.8v0h2.4v-19.2h-6.4v2.4c0 0.442-0.358 0.8-0.8 0.8s-0.8-0.358-0.8-0.8v0-3.2zM30.4 23.2c0 3.976-3.224 7.2-7.2 7.2s-7.2-3.224-7.2-7.2v0c0-3.976 3.224-7.2 7.2-7.2s7.2 3.224 7.2 7.2v0zM24 20c0-0.442-0.358-0.8-0.8-0.8s-0.8 0.358-0.8 0.8v0 2.4h-2.4c-0.442 0-0.8 0.358-0.8 0.8s0.358 0.8 0.8 0.8v0h2.4v2.4c0 0.442 0.358 0.8 0.8 0.8s0.8-0.358 0.8-0.8v0-2.4h2.4c0.442 0 0.8-0.358 0.8-0.8s-0.358-0.8-0.8-0.8v0h-2.4v-2.4z"></path>
</svg>
