<!-- Generated by IcoMoon.io -->
<svg version="1.1" xmlns="http://www.w3.org/2000/svg" width="32" height="32" viewBox="0 0 32 32">
<title>text-grammar-arrow-left</title>
<path d="M23.333 16c4.050 0 7.333 3.283 7.333 7.333s-3.283 7.333-7.333 7.333v0c-4.050 0-7.333-3.283-7.333-7.333s3.283-7.333 7.333-7.333v0zM22.293 19.452l-0.093 0.076-3.355 3.356-0.053 0.067-0.059 0.103-0.031 0.079-0.027 0.113-0.003 0.147 0.020 0.115 0.040 0.107 0.044 0.081 0.068 0.088 3.355 3.356c0.121 0.121 0.288 0.196 0.472 0.196 0.368 0 0.667-0.298 0.667-0.667 0-0.142-0.045-0.274-0.121-0.382l0.001 0.002-0.077-0.093-2.195-2.195h6.385c0 0 0 0 0 0 0.326 0 0.597-0.234 0.655-0.543l0.001-0.004 0.011-0.12c0-0 0-0 0-0 0-0.326-0.234-0.597-0.543-0.655l-0.004-0.001-0.12-0.011h-6.385l2.195-2.195c0.121-0.121 0.196-0.287 0.196-0.472 0-0.142-0.044-0.273-0.12-0.381l0.001 0.002-0.077-0.093c-0.121-0.12-0.287-0.195-0.471-0.195-0.142 0-0.274 0.044-0.382 0.12l0.002-0.001zM14.691 22.667l-11.16 0.009c-0.491 0.069-0.864 0.486-0.864 0.991 0 0.552 0.448 1 1 1h11.101c-0.065-0.4-0.102-0.86-0.102-1.33 0-0.236 0.009-0.47 0.028-0.701l-0.002 0.031zM15.641 19.333h-11.975c-0.552-0-1-0.448-1-1 0-0.504 0.373-0.921 0.858-0.99l0.005-0.001 0.136-0.009h13.413c-0.569 0.592-1.053 1.265-1.437 2zM28.333 12l-24.803 0.009c-0.491 0.069-0.864 0.486-0.864 0.991 0 0.552 0.448 1 1 1l24.803-0.009c0.491-0.069 0.864-0.486 0.864-0.991 0-0.552-0.448-1-1-1h-0zM28.333 6.667l-24.803 0.009c-0.491 0.069-0.864 0.486-0.864 0.991 0 0.552 0.448 1 1 1l24.803-0.009c0.491-0.069 0.864-0.486 0.864-0.991 0-0.552-0.448-1-1-1h-0z"></path>
</svg>
