<!-- Generated by IcoMoon.io -->
<svg version="1.1" xmlns="http://www.w3.org/2000/svg" width="32" height="32" viewBox="0 0 32 32">
<title>textbox-align-top-regular</title>
<path d="M28 7.667c0-2.025-1.642-3.667-3.667-3.667v0h-16.667c-2.025 0-3.667 1.642-3.667 3.667v0 16.667c0 2.025 1.642 3.667 3.667 3.667v0h16.667c2.025 0 3.667-1.642 3.667-3.667v0-16.667zM7.667 6h16.667c0.92 0 1.667 0.747 1.667 1.667v16.667c0 0.92-0.747 1.667-1.667 1.667h-16.667c-0.92 0-1.667-0.747-1.667-1.667v-16.667c0-0.92 0.747-1.667 1.667-1.667zM9 10h14c0.552 0 1 0.448 1 1 0 0.504-0.373 0.921-0.858 0.99l-0.005 0.001-0.136 0.009h-14c-0.552-0-1-0.448-1-1 0-0.504 0.373-0.921 0.858-0.99l0.005-0.001 0.136-0.009zM23 14l-14.136 0.009c-0.491 0.069-0.864 0.486-0.864 0.991 0 0.552 0.448 1 1 1l14.136-0.009c0.491-0.069 0.864-0.486 0.864-0.991 0-0.552-0.448-1-1-1h-0z"></path>
</svg>
