<!-- Generated by IcoMoon.io -->
<svg version="1.1" xmlns="http://www.w3.org/2000/svg" width="32" height="32" viewBox="0 0 32 32">
<title>text-bullet-list-square-edit</title>
<path d="M7 4c-1.657 0-3 1.343-3 3v0 17.999c0 1.657 1.343 3 3 3v0h7.885l0.475-1.899 0.027-0.101h-8.387c-0.552 0-1-0.448-1-1v0-18c0-0.552 0.448-1 1-1v0h17.999c0.552 0 1 0.448 1 1v0 7.977c0.637-0.253 1.324-0.352 2-0.293v-7.683c0-1.657-1.343-3-3-3-0 0-0.001 0-0.001 0h-18zM20.472 19.999h-5.473c-0.552 0-1 0.448-1 1s0.448 1 1 1v0h3.473l2-2zM11.665 10.999c0 0.736-0.597 1.333-1.333 1.333s-1.333-0.597-1.333-1.333v0c0-0.736 0.597-1.333 1.333-1.333s1.333 0.597 1.333 1.333v0zM14.999 9.999c-0.552 0-1 0.448-1 1s0.448 1 1 1v0h7.333c0.552 0 1-0.448 1-1s-0.448-1-1-1v0h-7.333zM14.999 14.999c-0.552 0-1 0.448-1 1s0.448 1 1 1v0h7.333c0.552 0 1-0.448 1-1s-0.448-1-1-1v0h-7.333zM10.333 17.333c0.736 0 1.333-0.597 1.333-1.333s-0.597-1.333-1.333-1.333v0c-0.736 0-1.333 0.597-1.333 1.333s0.597 1.333 1.333 1.333v0zM11.667 21c0 0.736-0.597 1.333-1.333 1.333s-1.333-0.597-1.333-1.333v0c0-0.736 0.597-1.333 1.333-1.333s1.333 0.597 1.333 1.333v0zM25.467 16.893l-7.869 7.868c-0.446 0.446-0.775 1.009-0.937 1.639l-0.005 0.025-0.609 2.44c-0.267 1.063 0.696 2.024 1.757 1.759l2.44-0.611c0.655-0.167 1.218-0.496 1.664-0.941l7.867-7.872c0.531-0.548 0.859-1.296 0.859-2.121 0-1.683-1.365-3.048-3.048-3.048-0.825 0-1.574 0.328-2.123 0.861l0.001-0.001z"></path>
</svg>
