<!-- Generated by IcoMoon.io -->
<svg version="1.1" xmlns="http://www.w3.org/2000/svg" width="32" height="32" viewBox="0 0 32 32">
<title>text-bold</title>
<path d="M23.356 5.864c0.396 0.367 0.644 0.889 0.644 1.47 0 0.524-0.202 1.001-0.532 1.358l0.001-0.001-6.747 7.309 6.747 7.311c0.309 0.35 0.498 0.813 0.498 1.321 0 1.105-0.895 2-2 2-0.564 0-1.073-0.233-1.436-0.608l-0-0.001-7.197-7.796v6.44c0 1.105-0.895 2-2 2s-2-0.895-2-2v0-17.333c0-1.105 0.895-2 2-2s2 0.895 2 2v0 6.44l7.197-7.796c0.367-0.396 0.889-0.644 1.47-0.644 0.524 0 1.001 0.202 1.358 0.532l-0.001-0.001z"></path>
</svg>
