<!-- Generated by IcoMoon.io -->
<svg version="1.1" xmlns="http://www.w3.org/2000/svg" width="32" height="32" viewBox="0 0 32 32">
<title>text-subscript-regular</title>
<path d="M21.984 5.907c0.215 0.184 0.35 0.456 0.35 0.76 0 0.249-0.091 0.477-0.242 0.652l0.001-0.001-7.443 8.683 6.709 7.828c-0.427 0.568-0.744 1.244-0.903 1.979l-0.006 0.034-7.117-8.307-7.24 8.448c-0.185 0.215-0.457 0.35-0.76 0.35-0.553 0-1-0.448-1-1 0-0.249 0.091-0.477 0.242-0.652l7.443-8.68-7.443-8.683c-0.147-0.173-0.236-0.399-0.236-0.646 0-0.552 0.448-1 1-1 0.301 0 0.571 0.133 0.754 0.343l0.001 0.001 7.24 8.448 7.24-8.448c0.184-0.214 0.456-0.349 0.759-0.349 0.249 0 0.477 0.091 0.653 0.242l-0.001-0.001zM23.667 20.697c0-0.704 0.592-1.364 1.315-1.364 0.543 0 0.98 0.253 1.191 0.579 0.181 0.28 0.291 0.755-0.124 1.46-0.2 0.34-0.501 0.643-0.909 0.965-0.203 0.16-0.421 0.316-0.657 0.484l-0.099 0.069c-0.203 0.143-0.42 0.296-0.629 0.453-0.992 0.747-2.087 1.795-2.087 3.656 0 0.552 0.448 1 1 1h4.601c0.552 0 1-0.448 1-1s-0.448-1-1-1v0h-3.351c0.213-0.376 0.564-0.7 1.039-1.057 0.183-0.137 0.372-0.271 0.576-0.416l0.104-0.072c0.237-0.169 0.493-0.352 0.743-0.547 0.496-0.393 1.013-0.877 1.393-1.523 0.743-1.264 0.728-2.561 0.077-3.563-0.623-0.956-1.729-1.489-2.868-1.489-1.971 0-3.315 1.704-3.315 3.364 0 0.552 0.448 1 1 1s1-0.448 1-1v0z"></path>
</svg>
