<!-- Generated by IcoMoon.io -->
<svg version="1.1" xmlns="http://www.w3.org/2000/svg" width="32" height="32" viewBox="0 0 32 32">
<title>text-wrap-regular</title>
<path d="M3.667 6.667c-0.552 0-1 0.448-1 1s0.448 1 1 1v0h24.667c0.552 0 1-0.448 1-1s-0.448-1-1-1v0h-24.667zM3.667 15.333c-0.552 0-1 0.448-1 1s0.448 1 1 1v0h21.667c1.841 0 3.333 1.492 3.333 3.333s-1.492 3.333-3.333 3.333v0h-5.92l0.96-0.96c0.196-0.183 0.318-0.443 0.318-0.732 0-0.552-0.448-1-1-1-0.289 0-0.549 0.122-0.731 0.318l-0.001 0.001-2.667 2.667c-0.181 0.181-0.292 0.431-0.292 0.707s0.112 0.526 0.292 0.707v0l2.667 2.667c0.183 0.196 0.443 0.318 0.732 0.318 0.552 0 1-0.448 1-1 0-0.289-0.122-0.549-0.318-0.731l-0.001-0.001-0.96-0.96h5.92c2.946 0 5.333-2.388 5.333-5.333s-2.388-5.333-5.333-5.333v0h-21.667zM2.667 25c0-0.552 0.448-1 1-1v0h8.667c0.552 0 1 0.448 1 1s-0.448 1-1 1v0h-8.667c-0.552 0-1-0.448-1-1v0z"></path>
</svg>
