<!-- Generated by IcoMoon.io -->
<svg version="1.1" xmlns="http://www.w3.org/2000/svg" width="32" height="32" viewBox="0 0 32 32">
<title>text-grammar-checkmark-regular</title>
<path d="M23.333 16c4.050 0 7.333 3.283 7.333 7.333s-3.283 7.333-7.333 7.333v0c-4.050 0-7.333-3.283-7.333-7.333s3.283-7.333 7.333-7.333v0zM26.861 20.195l-5.456 5.457-1.539-2.052c-0.123-0.163-0.316-0.267-0.533-0.267-0.368 0-0.667 0.298-0.667 0.667 0 0.151 0.050 0.29 0.135 0.402l-0.001-0.002 2 2.667c0.123 0.163 0.316 0.267 0.533 0.267 0.184 0 0.351-0.075 0.472-0.196v0l6-6c0.116-0.12 0.187-0.283 0.187-0.463 0-0.368-0.298-0.667-0.667-0.667-0.18 0-0.343 0.071-0.463 0.187l0-0zM14.693 22.667l-11.163 0.009c-0.491 0.069-0.864 0.486-0.864 0.991 0 0.552 0.448 1 1 1h11.101c-0.065-0.4-0.102-0.86-0.102-1.33 0-0.236 0.009-0.47 0.028-0.701l-0.002 0.031zM15.644 19.333h-11.977c-0.552-0-1-0.448-1-1 0-0.504 0.373-0.921 0.858-0.99l0.005-0.001 0.136-0.009h13.413c-0.555 0.578-1.034 1.235-1.415 1.953l-0.023 0.047zM28.333 12l-24.803 0.009c-0.491 0.069-0.864 0.486-0.864 0.991 0 0.552 0.448 1 1 1l24.803-0.009c0.491-0.069 0.864-0.486 0.864-0.991 0-0.552-0.448-1-1-1h-0zM28.333 6.667l-24.803 0.009c-0.491 0.069-0.864 0.486-0.864 0.991 0 0.552 0.448 1 1 1l24.803-0.009c0.491-0.069 0.864-0.486 0.864-0.991 0-0.552-0.448-1-1-1h-0z"></path>
</svg>
