<!-- Generated by IcoMoon.io -->
<svg version="1.1" xmlns="http://www.w3.org/2000/svg" width="32" height="32" viewBox="0 0 32 32">
<title>text-line-spacing</title>
<path d="M26.040 4.293l2.667 2.667c0.166 0.178 0.268 0.418 0.268 0.682 0 0.552-0.448 1-1 1-0.264 0-0.504-0.102-0.682-0.269l0.001 0.001-0.96-0.96v6.253c0 0.552-0.448 1-1 1s-1-0.448-1-1v0-6.253l-0.96 0.96c-0.183 0.196-0.443 0.318-0.732 0.318-0.552 0-1-0.448-1-1 0-0.289 0.122-0.549 0.318-0.731l0.001-0.001 2.667-2.667c0.18-0.181 0.429-0.293 0.704-0.293h0.005c0.275 0.001 0.524 0.113 0.704 0.293l0 0zM2.667 7.667c0-0.552 0.448-1 1-1v0h11.333c0.552 0 1 0.448 1 1s-0.448 1-1 1v0h-11.333c-0.552 0-1-0.448-1-1v0zM2.667 16.333c0-0.552 0.448-1 1-1v0h15.333c0.552 0 1 0.448 1 1s-0.448 1-1 1v0h-15.333c-0.552 0-1-0.448-1-1v0zM3.667 24c-0.552 0-1 0.448-1 1s0.448 1 1 1v0h11.333c0.552 0 1-0.448 1-1s-0.448-1-1-1v0h-11.333zM24.333 24.587v-6.253c0-0.552 0.448-1 1-1s1 0.448 1 1v0 6.253l0.96-0.96c0.183-0.196 0.443-0.318 0.732-0.318 0.552 0 1 0.448 1 1 0 0.289-0.122 0.549-0.318 0.731l-0.001 0.001-2.667 2.667c-0.181 0.181-0.431 0.294-0.707 0.294s-0.526-0.112-0.707-0.294l-2.667-2.667c-0.196-0.183-0.318-0.443-0.318-0.732 0-0.552 0.448-1 1-1 0.289 0 0.549 0.122 0.731 0.318l0.001 0.001 0.96 0.96z"></path>
</svg>
