<!-- Generated by IcoMoon.io -->
<svg version="1.1" xmlns="http://www.w3.org/2000/svg" width="32" height="32" viewBox="0 0 32 32">
<title>text-underline</title>
<path d="M9 25.333h14c0.552 0 1 0.448 1 1 0 0.506-0.376 0.925-0.864 0.991l-0.136 0.009h-14c-0.552 0-1-0.448-1-1 0-0.506 0.376-0.925 0.864-0.991l0.136-0.009zM23 5.333c0.506 0 0.925 0.376 0.991 0.864l0.009 0.136v8c0 5.858-2.751 9-8.004 9-5.14 0-7.881-3.007-7.993-8.622l-0.004-0.378v-8c0-0.552 0.448-1 1-1 0.506 0 0.925 0.376 0.991 0.864l0.009 0.136v8.001c-0.005 4.808 1.911 6.999 5.996 6.999 3.98 0 5.904-2.081 6-6.635l0.004-0.365v-8c0-0.552 0.448-1 1-1z"></path>
</svg>
