<!-- Generated by IcoMoon.io -->
<svg version="1.1" xmlns="http://www.w3.org/2000/svg" width="32" height="32" viewBox="0 0 32 32">
<title>text-direction-rotate-90-right</title>
<path d="M9 4c-0.552 0-1 0.448-1 1v0 19.587l-0.96-0.96c-0.178-0.166-0.418-0.268-0.682-0.268-0.552 0-1 0.448-1 1 0 0.264 0.102 0.504 0.269 0.682l-0.001-0.001 2.667 2.667c0.181 0.181 0.431 0.292 0.707 0.292s0.526-0.112 0.707-0.292v0l2.667-2.667c0.196-0.183 0.318-0.443 0.318-0.732 0-0.552-0.448-1-1-1-0.289 0-0.549 0.122-0.731 0.318l-0.001 0.001-0.96 0.96v-19.587c0-0.552-0.448-1-1-1v0zM14.707 4.071l12.661 5.004c0.793 0.315 0.84 1.391 0.139 1.793l-0.14 0.067-12.667 4.996c-0.11 0.046-0.238 0.072-0.373 0.072-0.552 0-1-0.448-1-1 0-0.374 0.206-0.701 0.51-0.872l0.005-0.003 0.123-0.057 3.368-1.329v-5.484l-3.36-1.327c-0.374-0.15-0.634-0.51-0.634-0.931 0-0.084 0.010-0.166 0.030-0.244l-0.001 0.007 0.041-0.129c0.15-0.374 0.51-0.633 0.93-0.633 0.084 0 0.166 0.010 0.245 0.030l-0.007-0.001 0.131 0.040zM24.277 10.004l-4.944-1.956v3.904l4.944-1.948zM20.667 17c0-0.552 0.448-1 1-1s1 0.448 1 1v0 7.587l0.96-0.96c0.183-0.196 0.443-0.318 0.732-0.318 0.552 0 1 0.448 1 1 0 0.289-0.122 0.549-0.318 0.731l-0.001 0.001-2.667 2.667c-0.181 0.181-0.431 0.292-0.707 0.292s-0.526-0.112-0.707-0.292v0l-2.667-2.667c-0.196-0.183-0.318-0.443-0.318-0.732 0-0.552 0.448-1 1-1 0.289 0 0.549 0.122 0.731 0.318l0.001 0.001 0.96 0.96v-7.587z"></path>
</svg>
