<!-- Generated by IcoMoon.io -->
<svg version="1.1" xmlns="http://www.w3.org/2000/svg" width="32" height="32" viewBox="0 0 32 32">
<title>text-clear-formatting</title>
<path d="M2.949 18.427c0.196 0.16 0.44 0.239 0.733 0.239 0.481 0 0.812-0.25 0.993-0.751l1.433-3.894h6.441l1.444 3.894c0.18 0.5 0.511 0.751 0.993 0.751 0.293 0 0.534-0.080 0.722-0.239 0.196-0.167 0.293-0.373 0.293-0.62 0-0.145-0.041-0.326-0.124-0.544l-5.245-13.662c-0.241-0.624-0.666-0.935-1.275-0.935-0.647 0-1.090 0.315-1.331 0.946l-5.234 13.651c-0.083 0.217-0.124 0.399-0.124 0.544 0 0.247 0.094 0.453 0.282 0.62zM11.973 12.358h-5.279l2.606-7.157h0.068l2.606 7.157zM17.333 17.474l2.331-2.331c-0.307-0.643-0.46-1.408-0.46-2.296 0-1.24 0.303-2.243 0.909-3.007 0.613-0.772 1.399-1.158 2.358-1.158 0.995 0 1.781 0.375 2.358 1.125 0.475 0.618 0.755 1.415 0.839 2.39 0.566 0.186 1.098 0.504 1.549 0.954l0.381 0.381c0.015-0.222 0.023-0.451 0.023-0.685 0-1.76-0.436-3.17-1.309-4.23s-2.019-1.59-3.44-1.59c-0.786 0-1.497 0.184-2.131 0.552-0.627 0.368-1.121 0.876-1.482 1.525h-0.043v-5.431c0-0.296-0.090-0.537-0.271-0.725-0.173-0.188-0.397-0.281-0.671-0.281s-0.501 0.094-0.682 0.281c-0.173 0.188-0.26 0.429-0.26 0.725v13.801zM22.642 28.667h4.027c0.552 0 1 0.448 1 1s-0.448 1-1 1h-7.335l0.003-0.010c-0.588-0.051-1.161-0.301-1.611-0.751l-3.632-3.632c-1.015-1.015-1.014-2.662 0.002-3.678l8.499-8.499c1.016-1.016 2.663-1.017 3.678-0.002l3.632 3.632c1.015 1.015 1.014 2.662-0.002 3.678l-7.262 7.262zM24.011 15.511l-5.543 5.543 4.48 4.479 5.543-5.543c0.237-0.237 0.235-0.617 0.002-0.85l-3.632-3.632c-0.233-0.232-0.613-0.235-0.85 0.002zM17.054 22.467l-1.543 1.543c-0.237 0.237-0.235 0.617-0.002 0.85l3.632 3.632c0.232 0.232 0.613 0.235 0.85-0.002l1.543-1.543-4.48-4.48z"></path>
</svg>
