<!-- Generated by IcoMoon.io -->
<svg version="1.1" xmlns="http://www.w3.org/2000/svg" width="32" height="32" viewBox="0 0 32 32">
<title>text-expand</title>
<path d="M9 26h19.333c0.552 0 1-0.448 1-1 0-0.506-0.376-0.925-0.864-0.991l-0.136-0.009h-19.333c-0.552 0-1 0.448-1 1 0 0.506 0.376 0.925 0.864 0.991l0.136 0.009z"></path>
<path d="M9 6h19.333c0.552 0 1-0.448 1-1 0-0.506-0.376-0.925-0.864-0.991l-0.136-0.009h-19.333c-0.552 0-1 0.448-1 1 0 0.506 0.376 0.925 0.864 0.991l0.136 0.009z"></path>
<path d="M18.333 10.667c-0.552 0-1 0.448-1 1s0.448 1 1 1h10c0.552 0 1-0.448 1-1s-0.448-1-1-1h-10z"></path>
<path d="M17.333 18.333c0-0.552 0.448-1 1-1h10c0.552 0 1 0.448 1 1s-0.448 1-1 1h-10c-0.552 0-1-0.448-1-1z"></path>
<path d="M14.667 15.333c0 3.314-2.686 6-6 6s-6-2.686-6-6c0-3.314 2.686-6 6-6s6 2.686 6 6zM9.333 12.667c0-0.368-0.298-0.667-0.667-0.667s-0.667 0.298-0.667 0.667v2h-2c-0.368 0-0.667 0.299-0.667 0.667s0.298 0.667 0.667 0.667h2v2c0 0.368 0.298 0.667 0.667 0.667s0.667-0.299 0.667-0.667v-2h2c0.368 0 0.667-0.299 0.667-0.667s-0.298-0.667-0.667-0.667h-2v-2z"></path>
</svg>
