<!-- Generated by IcoMoon.io -->
<svg version="1.1" xmlns="http://www.w3.org/2000/svg" width="32" height="32" viewBox="0 0 32 32">
<title>text-bullet-list-rotate-90</title>
<path d="M8.667 4.333c0.001 0.020 0.001 0.043 0.001 0.067 0 0.92-0.746 1.667-1.667 1.667s-1.667-0.746-1.667-1.667c0-0.023 0-0.047 0.001-0.070l-0 0.003c0.026-0.9 0.762-1.62 1.666-1.62s1.64 0.72 1.666 1.617l0 0.002zM8 9v19.333c-0 0.552-0.448 1-1 1-0.504 0-0.921-0.373-0.99-0.858l-0.001-0.005-0.008-0.136v-19.333c0-0.552 0.448-1 1-1 0.504 0 0.921 0.373 0.99 0.858l0.001 0.005 0.008 0.136zM17.333 4.333c0.001 0.020 0.001 0.043 0.001 0.067 0 0.92-0.746 1.667-1.667 1.667s-1.667-0.746-1.667-1.667c0-0.023 0-0.047 0.001-0.070l-0 0.003c0.037-0.891 0.768-1.6 1.665-1.6s1.629 0.709 1.665 1.597l0 0.003zM16.667 9v19.333c-0 0.552-0.448 1-1 1-0.504 0-0.921-0.373-0.99-0.858l-0.001-0.005-0.008-0.136v-19.333c0-0.552 0.448-1 1-1 0.504 0 0.921 0.373 0.99 0.858l0.001 0.005 0.009 0.136zM26 4.333c0.001 0.020 0.001 0.043 0.001 0.067 0 0.92-0.746 1.667-1.667 1.667s-1.667-0.746-1.667-1.667c0-0.023 0-0.047 0.001-0.070l-0 0.003c0.037-0.891 0.768-1.6 1.665-1.6s1.629 0.709 1.665 1.597l0 0.003zM25.333 9v19.333c-0 0.552-0.448 1-1 1-0.504 0-0.921-0.373-0.99-0.858l-0.001-0.005-0.009-0.136v-19.333c-0-0.003-0-0.007-0-0.010 0-0.552 0.448-1 1-1 0.508 0 0.927 0.379 0.991 0.869l0.001 0.005 0.008 0.136z"></path>
</svg>
