<!-- Generated by IcoMoon.io -->
<svg version="1.1" xmlns="http://www.w3.org/2000/svg" width="32" height="32" viewBox="0 0 32 32">
<title>text-change-case</title>
<path d="M22.014 4c0.418 0.006 0.788 0.271 0.928 0.665l7.333 20.667c0.185 0.521-0.088 1.092-0.608 1.277s-1.092-0.087-1.277-0.608l-1.893-5.334h-9.49l-2.075 5.361c-0.199 0.515-0.779 0.771-1.294 0.572s-0.771-0.779-0.572-1.293l8-20.667c0.151-0.39 0.529-0.645 0.947-0.639zM21.959 7.875l-4.177 10.791h8.006l-3.829-10.791z"></path>
<path d="M7.333 14.002l0.383 0.013c2.614 0.13 4.17 1.635 4.278 4.059l0.006 0.273v7.333c0 0.506-0.376 0.925-0.864 0.991l-0.136 0.009c-0.506 0-0.925-0.376-0.991-0.864l-0.009-0.136-0.002-0.139c-1.317 0.754-2.535 1.139-3.665 1.139-2.451 0-4.333-1.726-4.333-4.333 0-2.299 1.585-4.007 4.213-4.326 1.243-0.151 2.506-0.056 3.785 0.28-0.013-1.476-0.741-2.207-2.381-2.288-1.283-0.064-2.185 0.116-2.713 0.487-0.452 0.317-1.076 0.208-1.393-0.245s-0.208-1.076 0.245-1.393c0.877-0.615 2.072-0.887 3.577-0.86zM9.999 20.432l-0.404-0.12c-1.076-0.296-2.122-0.38-3.141-0.257-1.643 0.199-2.454 1.073-2.454 2.341 0 1.462 0.95 2.333 2.333 2.333 0.907 0 2.025-0.419 3.335-1.285l0.33-0.225v-2.787z"></path>
</svg>
