<!-- Generated by IcoMoon.io -->
<svg version="1.1" xmlns="http://www.w3.org/2000/svg" width="32" height="32" viewBox="0 0 32 32">
<title>text-position-front</title>
<path d="M5 5.333c-0.552 0-1 0.448-1 1s0.448 1 1 1v0h22c0.552 0 1-0.448 1-1s-0.448-1-1-1v0h-22zM16 11.333c-0 0-0.001 0-0.001 0-1.359 0-2.527 0.813-3.047 1.979l-0.008 0.021h-2.109c0.615-2.317 2.694-3.997 5.165-3.997s4.55 1.68 5.157 3.96l0.008 0.037h-2.109c-0.528-1.187-1.696-2-3.055-2-0 0-0.001 0-0.001 0h0zM10.667 18h2v3c0 0.552-0.448 1-1 1s-1-0.448-1-1v0-3zM21.333 18h-2v3c0 0.552 0.448 1 1 1s1-0.448 1-1v0-3zM27 14.667c0.552 0 1 0.448 1 1s-0.448 1-1 1v0h-22c-0.552 0-1-0.448-1-1s0.448-1 1-1v0h22zM4 25c0-0.552 0.448-1 1-1v0h22c0.552 0 1 0.448 1 1s-0.448 1-1 1v0h-22c-0.552 0-1-0.448-1-1v0z"></path>
</svg>
