<!-- Generated by IcoMoon.io -->
<svg version="1.1" xmlns="http://www.w3.org/2000/svg" width="32" height="32" viewBox="0 0 32 32">
<title>text-bullet-list-dismiss</title>
<path d="M4.8 8.8c0.884 0 1.6-0.716 1.6-1.6s-0.716-1.6-1.6-1.6v0c-0.884 0-1.6 0.716-1.6 1.6s0.716 1.6 1.6 1.6v0zM9.6 7.2c0-0.442 0.358-0.8 0.8-0.8v0h17.6c0.442 0 0.8 0.358 0.8 0.8s-0.358 0.8-0.8 0.8v0h-17.6c-0.442 0-0.8-0.358-0.8-0.8v0zM9.6 15.2c0-0.442 0.358-0.8 0.8-0.8v0h17.6c0.442 0 0.8 0.358 0.8 0.8s-0.358 0.8-0.8 0.8v0h-17.6c-0.442 0-0.8-0.358-0.8-0.8v0zM16.035 24c0.050-0.549 0.15-1.085 0.296-1.6h-5.931c-0.442 0-0.8 0.358-0.8 0.8s0.358 0.8 0.8 0.8v0h5.635zM6.4 23.2c0 0.884-0.716 1.6-1.6 1.6s-1.6-0.716-1.6-1.6v0c0-0.884 0.716-1.6 1.6-1.6s1.6 0.716 1.6 1.6v0zM4.8 16.8c0.884 0 1.6-0.716 1.6-1.6s-0.716-1.6-1.6-1.6v0c-0.884 0-1.6 0.716-1.6 1.6s0.716 1.6 1.6 1.6v0zM32 24.8c0 3.976-3.224 7.2-7.2 7.2s-7.2-3.224-7.2-7.2v0c0-3.976 3.224-7.2 7.2-7.2s7.2 3.224 7.2 7.2v0zM25.931 24.8l1.835-1.834c0.145-0.145 0.235-0.345 0.235-0.566 0-0.442-0.359-0.801-0.801-0.801-0.221 0-0.421 0.090-0.566 0.235l-1.834 1.835-1.834-1.835c-0.145-0.145-0.345-0.235-0.566-0.235-0.442 0-0.801 0.359-0.801 0.801 0 0.221 0.090 0.421 0.235 0.566v0l1.835 1.834-1.835 1.834c-0.145 0.145-0.235 0.345-0.235 0.566 0 0.442 0.359 0.801 0.801 0.801 0.221 0 0.421-0.090 0.566-0.235l1.834-1.835 1.834 1.835c0.145 0.145 0.345 0.235 0.566 0.235 0.442 0 0.801-0.359 0.801-0.801 0-0.221-0.090-0.421-0.235-0.566l-1.835-1.834z"></path>
</svg>
