<!-- Generated by IcoMoon.io -->
<svg version="1.1" xmlns="http://www.w3.org/2000/svg" width="32" height="32" viewBox="0 0 32 32">
<title>text-align-distributed-vertical</title>
<path d="M22.374 7.040l0.96-0.96v22.252c0 0.552 0.448 1 1 1s1-0.448 1-1v-22.252l0.96 0.96c0.391 0.391 1.024 0.391 1.414 0s0.391-1.024 0-1.414l-2.667-2.667c-0.391-0.391-1.024-0.391-1.414 0l-2.667 2.667c-0.391 0.391-0.391 1.024 0 1.414s1.024 0.391 1.414 0zM8 25.919l0.96-0.959c0.391-0.391 1.024-0.391 1.414 0s0.391 1.024 0 1.414l-2.667 2.667c-0.391 0.391-1.024 0.391-1.414 0l-2.667-2.667c-0.391-0.391-0.391-1.024 0-1.414s1.024-0.391 1.414 0l0.96 0.959v-22.252c0-0.552 0.448-1 1-1s1 0.448 1 1v22.252zM16.667 3.667c0-0.552-0.448-1-1-1s-1 0.448-1 1v24.667c0 0.552 0.448 1 1 1s1-0.448 1-1v-24.667z"></path>
</svg>
