<!-- Generated by IcoMoon.io -->
<svg version="1.1" xmlns="http://www.w3.org/2000/svg" width="32" height="32" viewBox="0 0 32 32">
<title>text-footnote</title>
<path d="M27.333 9.685c-0.257 0.232-0.529 0.445-0.81 0.632-0.46 0.306-1.080 0.182-1.387-0.277s-0.182-1.080 0.277-1.387c1.019-0.679 1.773-1.762 1.941-2.533 0.107-0.49 0.556-0.816 1.042-0.784 0.522 0.033 0.936 0.467 0.936 0.998v8.667c0 0.552-0.448 1-1 1s-1-0.448-1-1v-5.316zM16.296 23.674c-0.205-0.223-0.296-0.504-0.296-0.812v-12.315c0-0.328 0.098-0.625 0.316-0.86l0.005-0.005c0.224-0.233 0.512-0.348 0.837-0.348s0.61 0.115 0.83 0.351c0.224 0.234 0.327 0.532 0.327 0.863v3.787c0.243-0.255 0.521-0.475 0.833-0.658l0.001-0.001c0.61-0.353 1.29-0.528 2.032-0.528 1.339 0 2.438 0.505 3.267 1.513 0.825 1.002 1.221 2.318 1.221 3.913 0 1.601-0.396 2.92-1.221 3.923-0.831 1.002-1.941 1.503-3.296 1.503-0.759 0-1.449-0.173-2.060-0.528l-0.001-0.001c-0.318-0.187-0.602-0.413-0.852-0.677v0.068c0 0.313-0.105 0.593-0.325 0.813s-0.5 0.325-0.813 0.325c-0.308 0-0.587-0.099-0.799-0.321l-0.005-0.005zM22.629 21.040c0.446-0.58 0.688-1.39 0.688-2.466 0-1.069-0.241-1.876-0.688-2.457-0.438-0.569-1.026-0.854-1.799-0.854-0.734 0-1.327 0.289-1.803 0.887-0.472 0.596-0.723 1.393-0.723 2.424 0 1.037 0.251 1.838 0.722 2.433 0.475 0.592 1.068 0.878 1.803 0.878 0.775 0 1.362-0.283 1.8-0.845zM2.667 22.915c0 0.313 0.125 0.584 0.359 0.792l0.010 0.009c0.24 0.196 0.532 0.284 0.852 0.284 0.271 0 0.522-0.072 0.734-0.232 0.209-0.158 0.353-0.383 0.448-0.645l1.173-3.187h5.171l1.182 3.189c0.095 0.262 0.239 0.486 0.448 0.644 0.212 0.16 0.463 0.232 0.734 0.232 0.32 0 0.612-0.089 0.848-0.289 0.242-0.206 0.374-0.478 0.374-0.796 0-0.184-0.052-0.387-0.131-0.595l-4.59-11.954c-0.122-0.316-0.301-0.58-0.551-0.763-0.252-0.185-0.55-0.269-0.876-0.269-0.339 0-0.648 0.083-0.909 0.269-0.259 0.184-0.444 0.451-0.567 0.774l-4.58 11.945c-0.079 0.208-0.13 0.41-0.13 0.594zM8.833 12.777l1.834 5.036h-3.667l1.834-5.036z"></path>
</svg>
