<!-- Generated by IcoMoon.io -->
<svg version="1.1" xmlns="http://www.w3.org/2000/svg" width="32" height="32" viewBox="0 0 32 32">
<title>text-grammar-wand</title>
<path d="M3.667 22.667h10.367l-2 2h-8.367c-0.552 0-1-0.448-1-1 0-0.506 0.376-0.925 0.864-0.991l0.136-0.009z"></path>
<path d="M3.667 19.333h10.085c-0.265-0.38-0.418-0.84-0.418-1.333 0-0.231 0.034-0.455 0.097-0.667l-9.899 0.009c-0.488 0.066-0.864 0.485-0.864 0.991 0 0.552 0.448 1 1 1z"></path>
<path d="M16.96 21.626c0.391-0.391 1.024-0.391 1.414 0s0.391 1.024 0 1.414l-6 6c-0.391 0.391-1.024 0.391-1.414 0s-0.391-1.024 0-1.414l6-6z"></path>
<path d="M3.667 12h14c0.552 0 1 0.448 1 1 0 0.506-0.376 0.925-0.864 0.991l-0.136 0.009h-14c-0.552 0-1-0.448-1-1 0-0.506 0.376-0.925 0.864-0.991l0.136-0.009z"></path>
<path d="M3.667 6.667h24.667c0.552 0 1 0.448 1 1 0 0.506-0.376 0.925-0.864 0.991l-0.136 0.009h-24.667c-0.552 0-1-0.448-1-1 0-0.506 0.376-0.925 0.864-0.991l0.136-0.009z"></path>
<path d="M22 10.667c0.505 0 0.931 0.377 0.993 0.878l0.185 1.506c0.243 1.974 1.798 3.529 3.771 3.771l1.506 0.185c0.501 0.062 0.878 0.487 0.878 0.993s-0.377 0.931-0.878 0.993l-1.506 0.185c-1.974 0.243-3.529 1.798-3.771 3.771l-0.185 1.506c-0.062 0.501-0.487 0.878-0.993 0.878s-0.931-0.377-0.993-0.878l-0.185-1.506c-0.243-1.974-1.798-3.529-3.771-3.771l-1.506-0.185c-0.501-0.062-0.878-0.487-0.878-0.993s0.377-0.931 0.878-0.993l1.506-0.185c1.974-0.243 3.529-1.798 3.771-3.771l0.185-1.506c0.062-0.501 0.487-0.878 0.993-0.878zM22 15.699c-0.553 0.953-1.348 1.747-2.301 2.301 0.953 0.553 1.747 1.348 2.301 2.301 0.553-0.953 1.348-1.747 2.301-2.301-0.953-0.553-1.747-1.348-2.301-2.301z"></path>
</svg>
