<!-- Generated by IcoMoon.io -->
<svg version="1.1" xmlns="http://www.w3.org/2000/svg" width="32" height="32" viewBox="0 0 32 32">
<title>text-indent-increase-rtl</title>
<path d="M8.333 10.667c-0.552 0-1-0.448-1-1s0.448-1 1-1h12c0.552 0 1 0.448 1 1s-0.448 1-1 1h-12zM28.374 19.707c-0.355 0.355-0.911 0.387-1.302 0.097l-0.112-0.097-2.667-2.667c-0.355-0.355-0.387-0.911-0.097-1.302l0.097-0.112 2.667-2.667c0.391-0.391 1.024-0.391 1.414 0 0.355 0.355 0.387 0.911 0.097 1.302l-0.097 0.112-1.959 1.96 1.959 1.96c0.391 0.391 0.391 1.024 0 1.414zM4.333 17.333c-0.552 0-1-0.448-1-1s0.448-1 1-1h16c0.552 0 1 0.448 1 1s-0.448 1-1 1h-16zM8.333 24c-0.552 0-1-0.448-1-1s0.448-1 1-1h12c0.552 0 1 0.448 1 1s-0.448 1-1 1h-12z"></path>
</svg>
