<!-- Generated by IcoMoon.io -->
<svg version="1.1" xmlns="http://www.w3.org/2000/svg" width="32" height="32" viewBox="0 0 32 32">
<title>text-grammar-arrow-right</title>
<path d="M3.667 6.667h24.667c0.552 0 1 0.448 1 1 0 0.504-0.373 0.921-0.858 0.99l-0.005 0.001-0.136 0.009h-24.667c-0.552-0-1-0.448-1-1 0-0.504 0.373-0.921 0.858-0.99l0.005-0.001 0.136-0.009zM28.333 12l-24.803 0.009c-0.491 0.069-0.864 0.486-0.864 0.991 0 0.552 0.448 1 1 1l24.803-0.009c0.491-0.069 0.864-0.486 0.864-0.991 0-0.552-0.448-1-1-1h-0zM3.667 19.333h11.976c0.404-0.765 0.882-1.422 1.44-2.003l-0.003 0.003-13.549 0.009c-0.491 0.069-0.864 0.486-0.864 0.991 0 0.552 0.448 1 1 1h0zM3.667 22.667h11.025c-0.016 0.2-0.025 0.432-0.025 0.667 0 0.47 0.037 0.932 0.108 1.383l-0.006-0.050h-11.101c-0.552-0-1-0.448-1-1 0-0.504 0.373-0.921 0.858-0.99l0.005-0.001 0.136-0.009zM16 23.333c0 4.050 3.283 7.333 7.333 7.333s7.333-3.283 7.333-7.333v0c0-4.050-3.283-7.333-7.333-7.333s-7.333 3.283-7.333 7.333v0zM24.467 27.139l-0.093 0.076c-0.106 0.074-0.237 0.118-0.379 0.118-0.184 0-0.35-0.074-0.47-0.194l0 0-0.077-0.093c-0.074-0.106-0.118-0.237-0.118-0.379 0-0.184 0.075-0.351 0.196-0.472v0l2.195-2.195h-6.385l-0.12-0.011c-0.313-0.059-0.547-0.33-0.547-0.656 0-0 0-0 0-0v0l0.011-0.12c0.059-0.313 0.33-0.547 0.656-0.547 0 0 0 0 0 0h6.385l-2.195-2.195-0.077-0.093c-0.075-0.106-0.119-0.238-0.119-0.38 0-0.368 0.298-0.667 0.667-0.667 0.185 0 0.352 0.075 0.472 0.196l3.355 3.356 0.067 0.088 0.047 0.081 0.039 0.107 0.019 0.115-0.003 0.147-0.025 0.113-0.031 0.079-0.059 0.103-0.053 0.067-3.355 3.356z"></path>
</svg>
