<!-- Generated by IcoMoon.io -->
<svg version="1.1" xmlns="http://www.w3.org/2000/svg" width="32" height="32" viewBox="0 0 32 32">
<title>text-density-regular</title>
<path d="M16.286 2.286c0.473 0 0.857 0.384 0.857 0.857v0 25.714c0 0.473-0.384 0.857-0.857 0.857s-0.857-0.384-0.857-0.857v0-25.714c0-0.473 0.384-0.857 0.857-0.857v0zM13.714 5.714h-9.143c-0.473 0-0.857 0.384-0.857 0.857s0.384 0.857 0.857 0.857v0h9.143v-1.714zM13.714 10.286h-9.143c-0.473 0-0.857 0.384-0.857 0.857s0.384 0.857 0.857 0.857v0h9.143v-1.714zM13.714 14.857h-9.143c-0.473 0-0.857 0.384-0.857 0.857s0.384 0.857 0.857 0.857v0h9.143v-1.714zM13.714 19.429h-9.143c-0.473 0-0.857 0.384-0.857 0.857s0.384 0.857 0.857 0.857v0h9.143v-1.714zM13.714 24h-9.143c-0.473 0-0.857 0.384-0.857 0.857s0.384 0.857 0.857 0.857v0h9.143v-1.714zM25.714 24h-6.857v-1.714h6.857c0.631 0 1.143-0.512 1.143-1.143s-0.512-1.143-1.143-1.143v0h-6.857v-1.714h6.857c1.578 0 2.857 1.279 2.857 2.857s-1.279 2.857-2.857 2.857v0zM25.714 13.714h-6.857v-1.714h6.857c0.631 0 1.143-0.512 1.143-1.143s-0.512-1.143-1.143-1.143v0h-6.857v-1.714h6.857c1.578 0 2.857 1.279 2.857 2.857s-1.279 2.857-2.857 2.857v0z"></path>
</svg>
