<!-- Generated by IcoMoon.io -->
<svg version="1.1" xmlns="http://www.w3.org/2000/svg" width="32" height="32" viewBox="0 0 32 32">
<title>text-header-1</title>
<path d="M26.12 6.776c-0.132-0.069-0.288-0.11-0.454-0.11-0.237 0-0.455 0.083-0.626 0.222l0.002-0.001c-0.154 0.124-0.27 0.291-0.33 0.482l-0.002 0.007c-0.92 2.735-2.743 4.545-4.224 5.433-0.288 0.179-0.477 0.494-0.477 0.852 0 0.552 0.448 1 1 1 0.187 0 0.361-0.051 0.511-0.14l-0.005 0.003c1.032-0.619 2.164-1.573 3.152-2.861v12.671c0 0.552 0.448 1 1 1s1-0.448 1-1v0-16.637c0-0.008 0-0.018 0-0.028 0-0.387-0.22-0.723-0.541-0.889l-0.006-0.003zM4.667 7.667c0-0.552-0.448-1-1-1s-1 0.448-1 1v0 16.667c0 0.552 0.448 1 1 1s1-0.448 1-1v0-7.667h8.667v7.667c0 0.552 0.448 1 1 1s1-0.448 1-1v0-16.667c0-0.552-0.448-1-1-1s-1 0.448-1 1v0 7h-8.667v-7z"></path>
</svg>
