<!-- Generated by IcoMoon.io -->
<svg version="1.1" xmlns="http://www.w3.org/2000/svg" width="32" height="32" viewBox="0 0 32 32">
<title>text-position-line</title>
<path d="M5 5.333c-0.552 0-1 0.448-1 1s0.448 1 1 1v0h22c0.552 0 1-0.448 1-1s-0.448-1-1-1v0h-22zM9.333 11.333c-1.841 0-3.333 1.492-3.333 3.333v0 6.333c0 0.552-0.448 1-1 1s-1-0.448-1-1v0-6.333c0-2.946 2.388-5.333 5.333-5.333s5.333 2.388 5.333 5.333v0 6.333c0 0.552-0.448 1-1 1s-1-0.448-1-1v0-6.333c0-1.841-1.492-3.333-3.333-3.333v0zM18.333 19.333c-0.552 0-1 0.448-1 1s0.448 1 1 1v0h8.667c0.552 0 1-0.448 1-1s-0.448-1-1-1v0h-8.667zM5 24c-0.552 0-1 0.448-1 1s0.448 1 1 1v0h22c0.552 0 1-0.448 1-1s-0.448-1-1-1v0h-22z"></path>
</svg>
