<!-- Generated by IcoMoon.io -->
<svg version="1.1" xmlns="http://www.w3.org/2000/svg" width="32" height="32" viewBox="0 0 32 32">
<title>text-grammar-dismiss</title>
<path d="M23.333 16c4.050 0 7.333 3.283 7.333 7.333s-3.283 7.333-7.333 7.333c-4.050 0-7.333-3.283-7.333-7.333s3.283-7.333 7.333-7.333zM20.032 20.032c-0.26 0.26-0.26 0.683 0 0.943l2.359 2.36-2.355 2.355c-0.26 0.26-0.26 0.682 0 0.943s0.682 0.26 0.943 0l2.355-2.355 2.359 2.358c0.26 0.26 0.682 0.26 0.943 0s0.26-0.682 0-0.943l-2.358-2.358 2.362-2.36c0.26-0.26 0.26-0.683 0-0.943s-0.683-0.26-0.943 0l-2.362 2.36-2.36-2.36c-0.26-0.26-0.682-0.26-0.943 0z"></path>
<path d="M14.692 22.667l-11.161 0.009c-0.488 0.066-0.864 0.485-0.864 0.991 0 0.552 0.448 1 1 1h11.102c-0.067-0.435-0.102-0.88-0.102-1.333 0-0.224 0.009-0.447 0.025-0.667z"></path>
<path d="M15.643 19.333h-11.976c-0.552 0-1-0.448-1-1 0-0.506 0.376-0.925 0.864-0.991l0.136-0.009h13.413c-0.569 0.592-1.054 1.265-1.437 2z"></path>
<path d="M28.333 12l-24.802 0.009c-0.488 0.066-0.864 0.485-0.864 0.991 0 0.552 0.448 1 1 1l24.802-0.009c0.488-0.066 0.864-0.485 0.864-0.991 0-0.552-0.448-1-1-1z"></path>
<path d="M28.333 6.667l-24.802 0.009c-0.488 0.066-0.864 0.485-0.864 0.991 0 0.552 0.448 1 1 1l24.802-0.009c0.488-0.066 0.864-0.485 0.864-0.991 0-0.552-0.448-1-1-1z"></path>
</svg>
