<!-- Generated by IcoMoon.io -->
<svg version="1.1" xmlns="http://www.w3.org/2000/svg" width="32" height="32" viewBox="0 0 32 32">
<title>text-case-lowercase</title>
<path d="M18.333 4c0.552 0 1 0.448 1 1v10.983c0.913-0.823 2.072-1.316 3.333-1.316 2.945 0 5.333 2.686 5.333 6s-2.388 6-5.333 6c-1.261 0-2.42-0.493-3.333-1.316v0.316c0 0.552-0.448 1-1 1s-1-0.448-1-1v-20.667c0-0.552 0.448-1 1-1zM19.333 20.667c0 2.437 1.707 4 3.333 4s3.333-1.563 3.333-4c0-2.437-1.707-4-3.333-4s-3.333 1.563-3.333 4zM10 14.002l0.383 0.013c2.614 0.13 4.17 1.635 4.278 4.059l0.006 0.273v7.333c0 0.506-0.376 0.925-0.864 0.991l-0.136 0.009c-0.506 0-0.925-0.376-0.991-0.864l-0.009-0.136-0.002-0.139c-1.317 0.754-2.535 1.139-3.665 1.139-2.451 0-4.333-1.726-4.333-4.333 0-2.299 1.585-4.007 4.213-4.326 1.243-0.151 2.506-0.056 3.785 0.28-0.013-1.476-0.741-2.207-2.381-2.288-1.283-0.064-2.185 0.116-2.713 0.487-0.452 0.317-1.076 0.208-1.393-0.245s-0.208-1.076 0.245-1.393c0.877-0.615 2.072-0.887 3.577-0.86zM12.665 20.432l-0.404-0.12c-1.076-0.296-2.122-0.38-3.141-0.257-1.643 0.199-2.454 1.073-2.454 2.341 0 1.462 0.95 2.333 2.333 2.333 0.907 0 2.025-0.419 3.335-1.285l0.33-0.225v-2.787z"></path>
</svg>
