<!-- Generated by IcoMoon.io -->
<svg version="1.1" xmlns="http://www.w3.org/2000/svg" width="32" height="32" viewBox="0 0 32 32">
<title>text-box-settings</title>
<path d="M24.333 4c2.025 0 3.667 1.642 3.667 3.667v8.362c-0.618-0.395-1.289-0.715-2-0.944v-7.418c0-0.92-0.746-1.667-1.667-1.667h-16.667c-0.92 0-1.667 0.746-1.667 1.667v16.667c0 0.921 0.746 1.667 1.667 1.667h7.418c0.23 0.711 0.549 1.382 0.944 2h-8.362c-2.025 0-3.667-1.642-3.667-3.667v-16.667c0-2.025 1.642-3.667 3.667-3.667h16.667zM19 15.333c0.217 0 0.417 0.069 0.581 0.186-0.941 0.452-1.787 1.070-2.501 1.814h-8.079c-0.552 0-1-0.448-1-1 0-0.506 0.376-0.925 0.864-0.991l0.136-0.009h10zM9 20.667h6.085c-0.206 0.638-0.34 1.307-0.393 2h-5.692c-0.552 0-1-0.448-1-1 0-0.506 0.376-0.925 0.864-0.991l0.136-0.009zM23 10l-14.136 0.009c-0.488 0.066-0.864 0.485-0.864 0.991 0 0.552 0.448 1 1 1l14.136-0.009c0.488-0.066 0.864-0.485 0.864-0.991 0-0.552-0.448-1-1-1zM16.667 20.838l0.596 0.574c1.090 1.049 1.090 2.794 0 3.843l-0.596 0.574c0.267 0.765 0.654 1.47 1.137 2.093l0.803-0.237c1.463-0.432 2.99 0.449 3.348 1.932l0.23 0.955c0.374 0.063 0.758 0.096 1.149 0.096s0.775-0.033 1.149-0.096l0.23-0.955c0.358-1.483 1.885-2.365 3.348-1.932l0.803 0.237c0.483-0.622 0.87-1.328 1.137-2.093l-0.596-0.574c-1.090-1.049-1.090-2.794 0-3.843l0.596-0.574c-0.267-0.765-0.654-1.47-1.137-2.093l-0.803 0.237c-1.463 0.432-2.99-0.449-3.348-1.932l-0.23-0.955c-0.374-0.063-0.757-0.096-1.149-0.096s-0.775 0.033-1.149 0.096l-0.23 0.955c-0.358 1.483-1.885 2.365-3.348 1.932l-0.803-0.237c-0.483 0.622-0.87 1.328-1.137 2.093zM23.333 25.333c-1.067 0-1.933-0.895-1.933-2s0.865-2 1.933-2c1.067 0 1.933 0.895 1.933 2s-0.865 2-1.933 2z"></path>
</svg>
