<!-- Generated by IcoMoon.io -->
<svg version="1.1" xmlns="http://www.w3.org/2000/svg" width="32" height="32" viewBox="0 0 32 32">
<title>text-align-center-rotate-90-regular</title>
<path d="M24.333 5.333c0.552 0 1 0.448 1 1v0 19.333c0 0.552-0.448 1-1 1s-1-0.448-1-1v0-19.333c0-0.552 0.448-1 1-1v0zM7 8c0.552 0 1 0.448 1 1v0 14c0 0.552-0.448 1-1 1s-1-0.448-1-1v0-14c0-0.552 0.448-1 1-1v0zM16.667 3.667c0-0.552-0.448-1-1-1s-1 0.448-1 1v0 24.667c0 0.552 0.448 1 1 1s1-0.448 1-1v0-24.667z"></path>
</svg>
