<!-- Generated by IcoMoon.io -->
<svg version="1.1" xmlns="http://www.w3.org/2000/svg" width="32" height="32" viewBox="0 0 32 32">
<title>text-case-title</title>
<path d="M21 4c-0.552 0-1 0.448-1 1v20.667c0 0.552 0.448 1 1 1s1-0.448 1-1v-0.316c0.913 0.823 2.072 1.316 3.333 1.316 2.945 0 5.333-2.686 5.333-6s-2.388-6-5.333-6c-1.261 0-2.42 0.493-3.333 1.316v-10.983c0-0.552-0.448-1-1-1zM22 20.667c0-2.437 1.707-4 3.333-4s3.333 1.563 3.333 4c0 2.437-1.707 4-3.333 4s-3.333-1.563-3.333-4zM10.348 4c0.418 0.006 0.788 0.271 0.928 0.665l7.333 20.667c0.185 0.521-0.087 1.092-0.608 1.277s-1.092-0.087-1.277-0.608l-1.893-5.334h-9.49l-2.075 5.361c-0.199 0.515-0.779 0.771-1.294 0.572s-0.771-0.779-0.572-1.293l8-20.667c0.151-0.39 0.529-0.645 0.947-0.639zM10.293 7.875l-4.177 10.791h8.006l-3.829-10.791z"></path>
</svg>
