<!-- Generated by IcoMoon.io -->
<svg version="1.1" xmlns="http://www.w3.org/2000/svg" width="32" height="32" viewBox="0 0 32 32">
<title>text-position-tight</title>
<path d="M5 5.333c-0.552 0-1 0.448-1 1s0.448 1 1 1h22c0.552 0 1-0.448 1-1s-0.448-1-1-1h-22z"></path>
<path d="M4 11c0-0.552 0.448-1 1-1h6.239c-0.564 0.575-1.024 1.252-1.351 2h-4.888c-0.552 0-1-0.448-1-1z"></path>
<path d="M20.62 12c-0.484-0.837-1.189-1.53-2.036-2-0.765-0.425-1.647-0.667-2.584-0.667s-1.819 0.242-2.584 0.667c-0.846 0.47-1.552 1.163-2.036 2-0.454 0.784-0.713 1.695-0.713 2.667v6.333c0 0.117 0.020 0.229 0.057 0.333 0.137 0.388 0.508 0.667 0.943 0.667s0.806-0.278 0.943-0.667c0.037-0.104 0.057-0.216 0.057-0.333v-6.333c0-1.090 0.524-2.059 1.333-2.667 0.557-0.419 1.25-0.667 2-0.667s1.443 0.248 2 0.667c0.809 0.608 1.333 1.576 1.333 2.667v6.333c0 0.117 0.020 0.229 0.057 0.333 0.137 0.388 0.508 0.667 0.943 0.667s0.806-0.278 0.943-0.667c0.037-0.104 0.057-0.216 0.057-0.333v-6.333c0-0.971-0.26-1.882-0.713-2.667z"></path>
<path d="M5 14.667h4.333v2h-4.333c-0.552 0-1-0.448-1-1s0.448-1 1-1z"></path>
<path d="M5 19.333h4.333v1.667c0 0.113 0.008 0.224 0.024 0.333h-4.357c-0.552 0-1-0.448-1-1s0.448-1 1-1z"></path>
<path d="M27 21.333h-4.357c0.016-0.109 0.024-0.22 0.024-0.333v-1.667h4.333c0.552 0 1 0.448 1 1s-0.448 1-1 1z"></path>
<path d="M27 16.667h-4.333v-2h4.333c0.552 0 1 0.448 1 1s-0.448 1-1 1z"></path>
<path d="M27 12h-4.888c-0.327-0.748-0.787-1.425-1.351-2h6.239c0.552 0 1 0.448 1 1s-0.448 1-1 1z"></path>
<path d="M5 24c-0.552 0-1 0.448-1 1s0.448 1 1 1h22c0.552 0 1-0.448 1-1s-0.448-1-1-1h-22z"></path>
</svg>
