<!-- Generated by IcoMoon.io -->
<svg version="1.1" xmlns="http://www.w3.org/2000/svg" width="32" height="32" viewBox="0 0 32 32">
<title>text-indent-decrease-rtl</title>
<path d="M7.333 22.333c0-0.552 0.448-1 1-1v0h12c0.552 0 1 0.448 1 1s-0.448 1-1 1v0h-12c-0.552 0-1-0.448-1-1v0zM3.333 15.667c0-0.552 0.448-1 1-1v0h16c0.552 0 1 0.448 1 1s-0.448 1-1 1v0h-16c-0.552 0-1-0.448-1-1v0zM7.333 9c0-0.552 0.448-1 1-1v0h12c0.552 0 1 0.448 1 1s-0.448 1-1 1v0h-12c-0.552 0-1-0.448-1-1v0zM25.595 12.196c-0.163-0.121-0.369-0.194-0.591-0.194-0.552 0-1 0.448-1 1 0 0.275 0.111 0.524 0.29 0.704l1.96 1.96-1.96 1.96-0.097 0.112c-0.121 0.163-0.194 0.369-0.194 0.591 0 0.552 0.448 1 1 1 0.275 0 0.524-0.111 0.704-0.29l2.667-2.667 0.097-0.112c0.122-0.164 0.196-0.37 0.196-0.594 0-0.276-0.112-0.526-0.293-0.707l-2.667-2.667-0.112-0.097z"></path>
</svg>
