<!-- Generated by IcoMoon.io -->
<svg version="1.1" xmlns="http://www.w3.org/2000/svg" width="32" height="32" viewBox="0 0 32 32">
<title>text-column-one-wide</title>
<path d="M5 6.667c-0.552 0-1 0.448-1 1s0.448 1 1 1h22c0.552 0 1-0.448 1-1s-0.448-1-1-1h-22z"></path>
<path d="M5 12c-0.552 0-1 0.448-1 1s0.448 1 1 1h22c0.552 0 1-0.448 1-1s-0.448-1-1-1h-22z"></path>
<path d="M4 18.333c0-0.552 0.448-1 1-1h22c0.552 0 1 0.448 1 1s-0.448 1-1 1h-22c-0.552 0-1-0.448-1-1z"></path>
<path d="M5 22.667c-0.552 0-1 0.448-1 1s0.448 1 1 1h22c0.552 0 1-0.448 1-1s-0.448-1-1-1h-22z"></path>
</svg>
