<!-- Generated by IcoMoon.io -->
<svg version="1.1" xmlns="http://www.w3.org/2000/svg" width="32" height="32" viewBox="0 0 32 32">
<title>text-underline</title>
<path d="M16 5.333c0.415 0 0.77 0.253 0.922 0.612l0.002 0.007 6.333 15.333c0.055 0.12 0.087 0.26 0.087 0.408 0 0.552-0.448 1-1 1-0.425 0-0.788-0.265-0.933-0.638l-0.002-0.007-1.947-4.715h-6.925l-1.947 4.715c-0.154 0.366-0.51 0.619-0.925 0.619-0.552 0-1-0.448-1-1 0-0.138 0.028-0.269 0.078-0.388l-0.002 0.007 6.333-15.333c0.154-0.366 0.51-0.619 0.924-0.619 0 0 0.001 0 0.001 0h-0zM13.364 15.333h5.272l-2.636-6.38-2.636 6.38zM23.067 24.667c0.533 0 1.067 0.4 1.067 1.067 0 0.533-0.4 0.933-0.8 0.933h-14.267c-0.533 0-1.067-0.4-1.067-1.067 0-0.533 0.4-0.933 0.8-0.933h14.267z"></path>
</svg>
