<!-- Generated by IcoMoon.io -->
<svg version="1.1" xmlns="http://www.w3.org/2000/svg" width="32" height="32" viewBox="0 0 32 32">
<title>text-case-title-regular</title>
<path d="M21 4c-0.552 0-1 0.448-1 1v0 20.667c0 0.552 0.448 1 1 1s1-0.448 1-1v0-0.316c0.913 0.824 2.072 1.316 3.333 1.316 2.947 0 5.333-2.687 5.333-6s-2.387-6-5.333-6c-1.261 0-2.42 0.493-3.333 1.316v-10.983c0-0.552-0.448-1-1-1v0zM22 20.667c0-2.437 1.707-4 3.333-4s3.333 1.563 3.333 4-1.707 4-3.333 4-3.333-1.563-3.333-4zM10.347 4c0.427 0.006 0.789 0.279 0.927 0.66l0.002 0.007 7.333 20.667c0.040 0.104 0.063 0.224 0.063 0.349 0 0.552-0.448 1-1 1-0.439 0-0.811-0.282-0.946-0.675l-0.002-0.007-1.893-5.333h-9.488l-2.076 5.36c-0.149 0.378-0.51 0.64-0.933 0.64-0.552 0-1-0.448-1-1 0-0.129 0.025-0.253 0.069-0.367l-0.002 0.007 8-20.667c0.149-0.378 0.51-0.64 0.933-0.64 0.005 0 0.010 0 0.014 0h-0.001zM10.293 7.876l-4.177 10.791h8.007l-3.829-10.791z"></path>
</svg>
