<!-- Generated by IcoMoon.io -->
<svg version="1.1" xmlns="http://www.w3.org/2000/svg" width="32" height="32" viewBox="0 0 32 32">
<title>text-color-ga</title>
<path d="M20.667 4.333c0-0.552-0.448-1-1-1s-1 0.448-1 1v11.333c0 0.552 0.448 1 1 1s1-0.448 1-1v-5h2c0.552 0 1-0.448 1-1s-0.448-1-1-1h-2v-4.333zM9 4.667c-0.552 0-1 0.448-1 1s0.448 1 1 1h5.66c-0.217 2.179-1.771 5.456-5.948 6.709-0.529 0.159-0.829 0.716-0.67 1.245s0.716 0.829 1.245 0.671c5.853-1.756 7.634-6.868 7.375-9.715-0.047-0.515-0.479-0.909-0.996-0.909h-6.667zM26.667 22.334c0-1.657-1.343-3-3-3h-16.667c-1.657 0-3 1.343-3 3v4c0 1.657 1.343 3 3 3h16.667c1.657 0 3-1.343 3-3v-4zM7 21.334h16.667c0.552 0 1 0.448 1 1v4c0 0.552-0.448 1-1 1h-16.667c-0.552 0-1-0.448-1-1v-4c0-0.552 0.448-1 1-1z"></path>
</svg>
