<!-- Generated by IcoMoon.io -->
<svg version="1.1" xmlns="http://www.w3.org/2000/svg" width="32" height="32" viewBox="0 0 32 32">
<title>text-number-format</title>
<path d="M13.012 4h-0.012c-0.552 0-1 0.448-1 1v0 8.667c0 0.552 0.448 1 1 1h3.5c0.377 0 1.197-0.051 1.959-0.46 0.395-0.212 0.792-0.531 1.087-1 0.297-0.475 0.455-1.047 0.455-1.707 0-0.688-0.149-1.283-0.448-1.773-0.17-0.277-0.38-0.511-0.624-0.704l-0.006-0.004c0.316-0.475 0.511-1.087 0.511-1.852 0-0.669-0.128-1.247-0.388-1.728-0.239-0.441-0.588-0.795-1.011-1.033l-0.013-0.007c-0.716-0.4-1.491-0.4-1.777-0.399h-3.232zM16.5 12.667h-2.5v-2.333h2.5c0.329 0 0.729 0.013 1.040 0.167 0.133 0.067 0.232 0.151 0.304 0.267 0.072 0.12 0.156 0.339 0.156 0.733 0 0.331-0.076 0.525-0.149 0.643-0.085 0.129-0.2 0.232-0.335 0.3l-0.005 0.002c-0.333 0.179-0.761 0.221-1.011 0.221zM14 8.333v-2.333h2.217c0.291 0 0.597 0.015 0.828 0.144 0.093 0.053 0.173 0.124 0.24 0.245 0.069 0.128 0.148 0.363 0.148 0.777 0 0.352-0.072 0.563-0.143 0.688-0.066 0.118-0.16 0.214-0.273 0.281l-0.003 0.002c-0.253 0.155-0.589 0.195-0.791 0.196h-2.224zM7.036 4c0.427 0.007 0.788 0.28 0.926 0.66l0.002 0.007 3.076 8.667c0.040 0.104 0.063 0.224 0.063 0.349 0 0.552-0.448 1-1 1-0.439 0-0.811-0.282-0.946-0.675l-0.002-0.007-0.451-1.269h-3.603l-0.501 1.297c-0.149 0.377-0.511 0.639-0.933 0.639-0.553 0-1.001-0.448-1.001-1.001 0-0.13 0.025-0.254 0.070-0.368l-0.002 0.007 3.356-8.667c0.149-0.377 0.51-0.639 0.932-0.639 0.005 0 0.010 0 0.015 0h-0.001zM6.981 7.876l-1.107 2.855h2.12l-1.013-2.855zM27.371 4.363c0.821 0.403 1.467 1.163 1.904 2.379 0.042 0.106 0.067 0.23 0.067 0.359 0 0.552-0.448 1-1 1-0.438 0-0.811-0.282-0.946-0.674l-0.002-0.007c-0.312-0.864-0.664-1.144-0.903-1.261-0.293-0.143-0.624-0.157-1.157-0.157-0.504 0-0.831 0.16-1.069 0.373-0.26 0.231-0.467 0.571-0.619 0.977-0.176 0.482-0.287 1.039-0.31 1.619l-0 0.011v0.021c0 0.699 0.009 1.596 0.305 2.349 0.14 0.36 0.333 0.649 0.595 0.864 0.256 0.211 0.631 0.393 1.209 0.459 0.469 0.052 1.505-0.029 1.979-1.076 0.161-0.349 0.508-0.587 0.911-0.587 0.552 0 1 0.448 1 1 0 0.15-0.033 0.292-0.092 0.42l0.003-0.006c-1.027 2.265-3.279 2.32-4.021 2.237-0.92-0.103-1.671-0.417-2.259-0.903-0.523-0.442-0.93-1.006-1.177-1.65l-0.009-0.028c-0.444-1.135-0.444-2.375-0.444-3.041v-0.063l0.001-0.047c0.029-0.825 0.186-1.605 0.454-2.332l-0.017 0.052c0.223-0.595 0.58-1.253 1.163-1.773 0.604-0.537 1.403-0.877 2.4-0.877h0.051c0.48 0 1.244-0.001 1.985 0.363zM22.627 20.184c0.063-0.211 0.18-0.39 0.334-0.528l0.001-0.001c0.172-0.151 0.475-0.321 1.037-0.321 1.016 0 1.333 0.667 1.333 0.969 0 0.327-0.069 0.653-0.253 0.885-0.147 0.187-0.504 0.479-1.468 0.479-0.552 0-1 0.448-1 1s0.448 1 1 1v0c0.364 0 0.867 0.048 1.245 0.227 0.142 0.060 0.26 0.151 0.351 0.265l0.001 0.002c0.060 0.085 0.124 0.223 0.124 0.476 0 0.651-0.203 0.939-0.373 1.083-0.201 0.171-0.528 0.281-0.96 0.281-0.483 0-0.756-0.084-0.923-0.189-0.149-0.093-0.32-0.272-0.46-0.699-0.135-0.403-0.509-0.687-0.95-0.687-0.552 0-1 0.448-1 1 0 0.112 0.018 0.219 0.052 0.32l-0.002-0.007c0.248 0.755 0.66 1.364 1.289 1.763 0.611 0.387 1.309 0.5 1.993 0.5 0.735 0 1.576-0.184 2.249-0.753 0.704-0.593 1.084-1.488 1.084-2.611 0-0.632-0.173-1.184-0.495-1.636-0.105-0.146-0.218-0.274-0.343-0.391l-0.002-0.001c0.050-0.054 0.1-0.111 0.148-0.17l0.004-0.006c0.584-0.733 0.687-1.589 0.687-2.129 0.001-1.431-1.236-2.969-3.332-2.969-1.020 0-1.801 0.329-2.36 0.821-0.54 0.476-0.813 1.052-0.935 1.48-0.021 0.077-0.033 0.165-0.033 0.256 0 0.552 0.448 1 1 1 0.447 0 0.826-0.294 0.954-0.699l0.002-0.007zM14 20.697c0-0.704 0.591-1.364 1.313-1.364 0.543 0 0.98 0.253 1.191 0.579 0.181 0.28 0.291 0.755-0.124 1.46-0.2 0.34-0.501 0.643-0.909 0.965-0.203 0.16-0.42 0.316-0.657 0.484l-0.099 0.069c-0.203 0.143-0.42 0.296-0.629 0.453-0.992 0.748-2.085 1.796-2.085 3.656 0 0.552 0.448 1 1 1h4.601c0.552 0 1-0.448 1-1s-0.448-1-1-1v0h-3.351c0.213-0.376 0.564-0.7 1.039-1.057 0.183-0.137 0.373-0.271 0.576-0.416l0.104-0.072c0.239-0.169 0.493-0.352 0.743-0.547 0.496-0.393 1.013-0.877 1.393-1.523 0.743-1.264 0.728-2.561 0.077-3.563-0.623-0.956-1.729-1.489-2.868-1.489-1.971 0-3.315 1.704-3.315 3.364 0 0.552 0.448 1 1 1s1-0.448 1-1v0zM6.553 22.317c0.281-0.187 0.553-0.4 0.811-0.633v5.316c0 0.552 0.448 1 1 1s1-0.448 1-1v0-8.667c0-0.002 0-0.005 0-0.008 0-0.552-0.448-1-1-1-0.48 0-0.88 0.338-0.978 0.788l-0.001 0.007c-0.168 0.771-0.921 1.853-1.941 2.533-0.265 0.183-0.436 0.484-0.436 0.826 0 0.552 0.448 1 1 1 0.203 0 0.392-0.060 0.549-0.164l-0.004 0.002z"></path>
</svg>
