<!-- Generated by IcoMoon.io -->
<svg version="1.1" xmlns="http://www.w3.org/2000/svg" width="32" height="32" viewBox="0 0 32 32">
<title>text-direction-horizontal-rtl</title>
<path d="M27.93 17.293l-5.005-12.66c-0.314-0.794-1.39-0.84-1.793-0.139l-0.067 0.14-4.995 12.667c-0.203 0.514 0.050 1.094 0.563 1.297 0.471 0.186 0.998-0.011 1.239-0.441l0.058-0.123 1.328-3.367h5.484l1.327 3.361c0.186 0.471 0.69 0.722 1.168 0.604l0.129-0.041c0.471-0.186 0.722-0.69 0.604-1.168l-0.041-0.13zM21.996 7.723l1.956 4.944h-3.904l1.948-4.944zM16 10.333c0 0.552-0.448 1-1 1h-7.586l0.96 0.96c0.391 0.391 0.391 1.024 0 1.414s-1.024 0.391-1.414 0l-2.667-2.667c-0.391-0.391-0.391-1.024 0-1.414l2.667-2.667c0.391-0.391 1.024-0.391 1.414 0s0.391 1.024 0 1.414l-0.96 0.96h7.586c0.552 0 1 0.448 1 1zM28 23c0 0.552-0.448 1-1 1h-19.586l0.96 0.96c0.391 0.391 0.391 1.024 0 1.414s-1.024 0.391-1.414 0l-2.667-2.667c-0.391-0.391-0.391-1.024 0-1.414l2.667-2.667c0.391-0.391 1.024-0.391 1.414 0s0.391 1.024 0 1.414l-0.96 0.96h19.586c0.552 0 1 0.448 1 1z"></path>
</svg>
