<!-- Generated by IcoMoon.io -->
<svg version="1.1" xmlns="http://www.w3.org/2000/svg" width="32" height="32" viewBox="0 0 32 32">
<title>text-bold</title>
<path d="M9.247 5.92c0.375-0.375 0.884-0.586 1.415-0.586h5.845c3.515 0 6.16 2.909 6.16 6.167 0 1.302-0.422 2.548-1.154 3.575 1.436 1.103 2.487 2.827 2.487 5.084 0 4.149-3.598 6.507-6.507 6.507h-6.827c-1.105 0-2-0.895-2-2l-0.005-17.332c-0-0.531 0.21-1.040 0.585-1.415zM12.665 13.667h3.841c1.204 0 2.16-1.013 2.16-2.166s-0.957-2.167-2.16-2.167h-3.843l0.002 4.333zM12.666 17.667v5h4.827c1.164 0 2.507-1.005 2.507-2.507 0-1.507-1.3-2.493-2.507-2.493h-4.827z"></path>
</svg>
