<!-- Generated by IcoMoon.io -->
<svg version="1.1" xmlns="http://www.w3.org/2000/svg" width="32" height="32" viewBox="0 0 32 32">
<title>text-number-list-rtl</title>
<path d="M26.667 3.667c0-0.472-0.33-0.88-0.792-0.978-0.461-0.098-0.927 0.139-1.12 0.569l-0.002 0.004c-0.003 0.006-0.008 0.017-0.015 0.032-0.015 0.031-0.040 0.080-0.074 0.144-0.069 0.127-0.175 0.308-0.317 0.513-0.29 0.417-0.699 0.883-1.209 1.202-0.468 0.293-0.611 0.91-0.318 1.378s0.91 0.611 1.378 0.318c0.166-0.104 0.323-0.215 0.47-0.331v3.15c0 0.552 0.448 1 1 1s1-0.448 1-1v-6z"></path>
<path d="M18.667 25c0-0.552-0.448-1-1-1h-12c-0.552 0-1 0.448-1 1s0.448 1 1 1h12c0.552 0 1-0.448 1-1z"></path>
<path d="M18.667 16.325c0-0.552-0.448-1-1-1h-12c-0.552 0-1 0.448-1 1s0.448 1 1 1h12c0.552 0 1-0.448 1-1z"></path>
<path d="M18.667 7.667c0-0.552-0.448-1-1-1h-12c-0.552 0-1 0.448-1 1s0.448 1 1 1h12c0.552 0 1-0.448 1-1z"></path>
<path d="M25.535 14.027c-0.402-0.071-0.902 0.089-1.161 0.347-0.391 0.391-1.024 0.391-1.414 0s-0.391-1.024 0-1.414c0.741-0.741 1.908-1.082 2.923-0.903 0.53 0.094 1.074 0.339 1.487 0.808 0.421 0.477 0.63 1.099 0.63 1.802 0 0.826-0.361 1.44-0.808 1.894-0.37 0.377-0.841 0.681-1.208 0.917l-0.106 0.069c-0.26 0.169-0.473 0.316-0.642 0.453h1.764c0.552 0 1 0.448 1 1s-0.448 1-1 1h-3.333c-0.552 0-1-0.448-1-1 0-1.751 1.312-2.604 2.1-3.116l0.080-0.052c0.423-0.275 0.711-0.462 0.919-0.674 0.178-0.181 0.234-0.317 0.234-0.491 0-0.297-0.082-0.424-0.13-0.479-0.056-0.063-0.157-0.13-0.335-0.161z"></path>
<path d="M22.626 28.374c0 0 0.124 0.112 0.006 0.006l0.007 0.007 0.018 0.017c0.013 0.012 0.030 0.027 0.049 0.044 0.039 0.034 0.089 0.076 0.152 0.123 0.126 0.094 0.302 0.211 0.528 0.324 0.456 0.228 1.108 0.439 1.947 0.439 0.852 0 1.595-0.242 2.135-0.719 0.544-0.481 0.814-1.143 0.792-1.813-0.018-0.555-0.222-1.061-0.567-1.468 0.345-0.407 0.55-0.913 0.567-1.468 0.021-0.67-0.248-1.332-0.792-1.813-0.54-0.477-1.283-0.719-2.135-0.719-0.839 0-1.492 0.211-1.947 0.439-0.226 0.113-0.402 0.229-0.528 0.324-0.063 0.047-0.114 0.089-0.152 0.123-0.019 0.017-0.036 0.032-0.049 0.044l-0.018 0.017-0.007 0.007-0.003 0.003-0.003 0.003c-0.391 0.391-0.391 1.024 0 1.414 0.385 0.385 1.007 0.391 1.398 0.016 0.005-0.004 0.016-0.013 0.034-0.027 0.041-0.031 0.115-0.081 0.222-0.135 0.211-0.105 0.559-0.228 1.053-0.228 0.481 0 0.715 0.133 0.811 0.218 0.093 0.082 0.12 0.169 0.118 0.25-0.003 0.086-0.043 0.202-0.165 0.308-0.118 0.102-0.351 0.224-0.764 0.224-0.552 0-1 0.448-1 1s0.448 1 1 1c0.413 0 0.646 0.122 0.764 0.224 0.122 0.105 0.162 0.222 0.165 0.308 0.003 0.080-0.025 0.168-0.118 0.25-0.096 0.085-0.33 0.218-0.811 0.218-0.494 0-0.842-0.122-1.053-0.228-0.107-0.054-0.181-0.104-0.222-0.135-0.018-0.013-0.029-0.023-0.034-0.027-0.392-0.375-1.013-0.37-1.398 0.016-0.391 0.391-0.391 1.024 0 1.414zM22.629 22.29l-0.001 0.001c0.009-0.007 0.268-0.223 0.001-0.001z"></path>
</svg>
