<!-- Generated by IcoMoon.io -->
<svg version="1.1" xmlns="http://www.w3.org/2000/svg" width="32" height="32" viewBox="0 0 32 32">
<title>text-first-line</title>
<path d="M5.040 4.293c-0.391-0.391-1.024-0.391-1.414 0s-0.391 1.024 0 1.414l1.96 1.96-1.96 1.96c-0.391 0.391-0.391 1.024 0 1.414s1.024 0.391 1.414 0l2.667-2.667c0.391-0.391 0.391-1.024 0-1.414l-2.667-2.667z"></path>
<path d="M13 6.667c-0.552 0-1 0.448-1 1s0.448 1 1 1h15.333c0.552 0 1-0.448 1-1s-0.448-1-1-1h-15.333z"></path>
<path d="M3.667 24c-0.552 0-1 0.448-1 1s0.448 1 1 1h24.667c0.552 0 1-0.448 1-1s-0.448-1-1-1h-24.667z"></path>
<path d="M2.667 16.333c0-0.552 0.448-1 1-1h24.667c0.552 0 1 0.448 1 1s-0.448 1-1 1h-24.667c-0.552 0-1-0.448-1-1z"></path>
</svg>
