<!-- Generated by IcoMoon.io -->
<svg version="1.1" xmlns="http://www.w3.org/2000/svg" width="32" height="32" viewBox="0 0 32 32">
<title>text-number-format-ga-na-da</title>
<path d="M10.334 5c0-0.552-0.448-1-1-1s-1 0.448-1 1v10c0 0.552 0.448 1 1 1s1-0.448 1-1v-6.333h0.333c0.552 0 1-0.448 1-1s-0.448-1-1-1h-0.333v-1.667zM29.334 5c0-0.552-0.448-1-1-1s-1 0.448-1 1v10c0 0.552 0.448 1 1 1s1-0.448 1-1v-6.333h0.333c0.552 0 1-0.448 1-1s-0.448-1-1-1h-0.333v-1.667zM19 4c0.552 0 1 0.448 1 1v1.667h0.333c0.552 0 1 0.448 1 1s-0.448 1-1 1h-0.333v6.333c0 0.552-0.448 1-1 1s-1-0.448-1-1v-10c0-0.552 0.448-1 1-1zM1.334 6.333c0-0.552 0.448-1 1-1h4c0.265 0 0.52 0.105 0.707 0.293s0.293 0.442 0.293 0.707c0 2.252-1.118 5.702-4.594 7.247-0.505 0.224-1.096-0.003-1.32-0.508s0.003-1.096 0.508-1.32c2.074-0.922 3.039-2.807 3.317-4.42h-2.911c-0.552 0-1-0.448-1-1zM23 5.359c-0.552 0-1 0.448-1 1v5.974c0 0.308 0.142 0.599 0.385 0.788s0.559 0.257 0.858 0.182l2.667-0.667c0.536-0.134 0.862-0.677 0.728-1.213s-0.677-0.862-1.213-0.728l-1.424 0.356v-3.693h1c0.552 0 1-0.448 1-1s-0.448-1-1-1h-2zM15.301 5.046c0.527 0.166 0.819 0.728 0.653 1.255l-1.491 4.72 1.674-0.335c0.542-0.108 1.068 0.243 1.177 0.784s-0.243 1.068-0.784 1.177l-3.333 0.667c-0.347 0.069-0.704-0.050-0.941-0.313s-0.316-0.632-0.209-0.969l2-6.333c0.166-0.527 0.728-0.819 1.255-0.652zM22.963 19.655c-0.19 0.168-0.292 0.379-0.335 0.529-0.152 0.531-0.705 0.839-1.236 0.687s-0.839-0.705-0.687-1.236c0.122-0.428 0.395-1.004 0.935-1.48 0.558-0.493 1.34-0.821 2.36-0.821 2.096 0 3.333 1.539 3.333 2.97 0 0.54-0.103 1.394-0.687 2.129-0.048 0.061-0.099 0.119-0.151 0.176 0.123 0.115 0.239 0.245 0.344 0.393 0.322 0.452 0.495 1.003 0.495 1.636 0 1.122-0.38 2.017-1.084 2.611-0.674 0.569-1.515 0.753-2.249 0.753-0.684 0-1.383-0.113-1.993-0.5-0.629-0.399-1.041-1.008-1.29-1.763-0.173-0.525 0.113-1.090 0.637-1.262s1.090 0.113 1.263 0.637c0.14 0.427 0.312 0.605 0.46 0.699 0.168 0.106 0.441 0.19 0.923 0.19 0.432 0 0.758-0.111 0.959-0.281 0.171-0.145 0.374-0.432 0.374-1.082 0-0.254-0.064-0.391-0.124-0.475-0.067-0.094-0.177-0.186-0.353-0.269-0.377-0.177-0.881-0.225-1.246-0.225-0.552 0-1-0.448-1-1s0.448-1 1-1c0.964 0 1.321-0.292 1.469-0.479 0.183-0.231 0.253-0.558 0.253-0.885 0-0.303-0.318-0.97-1.333-0.97-0.563 0-0.866 0.17-1.037 0.321zM15.314 19.333c-0.723 0-1.314 0.66-1.314 1.364 0 0.552-0.448 1-1 1s-1-0.448-1-1c0-1.66 1.344-3.364 3.314-3.364 1.14 0 2.246 0.533 2.868 1.489 0.652 1.002 0.666 2.299-0.077 3.563-0.379 0.645-0.898 1.13-1.394 1.522-0.249 0.196-0.504 0.379-0.742 0.547l-0.103 0.073c-0.204 0.144-0.394 0.278-0.577 0.416-0.475 0.357-0.824 0.681-1.039 1.057h3.351c0.552 0 1 0.448 1 1s-0.448 1-1 1h-4.601c-0.552 0-1-0.448-1-1 0-1.862 1.095-2.909 2.086-3.655 0.21-0.158 0.427-0.311 0.63-0.454l0.098-0.069c0.237-0.167 0.454-0.323 0.657-0.484 0.408-0.322 0.709-0.626 0.909-0.965 0.415-0.706 0.306-1.181 0.125-1.46-0.211-0.325-0.648-0.579-1.191-0.579zM7.365 21.684c-0.257 0.232-0.529 0.445-0.81 0.633-0.46 0.306-1.080 0.182-1.387-0.277s-0.182-1.080 0.277-1.387c1.019-0.679 1.773-1.761 1.941-2.533 0.107-0.49 0.556-0.816 1.042-0.784 0.522 0.033 0.936 0.467 0.936 0.998v8.667c0 0.552-0.448 1-1 1s-1-0.448-1-1v-5.316z"></path>
</svg>
