<!-- Generated by IcoMoon.io -->
<svg version="1.1" xmlns="http://www.w3.org/2000/svg" width="32" height="32" viewBox="0 0 32 32">
<title>text-field-regular</title>
<path d="M20 11.333h-3v9.333h0.667c0.552 0 1 0.448 1 1s-0.448 1-1 1v0h-3.333c-0.552 0-1-0.448-1-1s0.448-1 1-1v0h0.667v-9.333h-3v1c0 0.552-0.448 1-1 1s-1-0.448-1-1v0-2c0-0.552 0.448-1 1-1v0h10c0.552 0 1 0.448 1 1v0 2c0 0.552-0.448 1-1 1s-1-0.448-1-1v0-1zM7.667 5.333c-2.761 0-5 2.239-5 5v0 11.333c0 2.761 2.239 5 5 5v0h16.667c2.761 0 5-2.239 5-5v0-11.333c0-2.761-2.239-5-5-5v0h-16.667zM4.667 10.333c0-1.657 1.343-3 3-3v0h16.667c1.657 0 3 1.343 3 3v0 11.333c0 1.657-1.343 3-3 3v0h-16.667c-1.657 0-3-1.343-3-3v0-11.333z"></path>
</svg>
