<!-- Generated by IcoMoon.io -->
<svg version="1.1" xmlns="http://www.w3.org/2000/svg" width="32" height="32" viewBox="0 0 32 32">
<title>text-italic</title>
<path d="M13.001 5.333h11.338c0.552 0 0.999 0.448 0.999 1 0 0.506-0.376 0.924-0.864 0.99l-0.136 0.009-4.263-0-6.693 17.335h5.617c0.506 0 0.924 0.376 0.99 0.864l0.009 0.136c0 0.506-0.376 0.925-0.864 0.991l-0.136 0.009h-12.666c-0.552 0-0.995-0.448-0.995-1 0-0.506 0.373-0.925 0.86-0.991l0.136-0.009h4.913l0.028-0.087 6.658-17.248-4.932 0c-0.506 0-0.925-0.376-0.991-0.864l-0.009-0.136c0-0.506 0.377-0.924 0.864-0.99l0.136-0.009z"></path>
</svg>
