<!-- Generated by IcoMoon.io -->
<svg version="1.1" xmlns="http://www.w3.org/2000/svg" width="32" height="32" viewBox="0 0 32 32">
<title>text-bullet-list-rotate-270</title>
<path d="M23.333 27.667c-0-0.014-0.001-0.031-0.001-0.047 0-0.92 0.746-1.667 1.667-1.667s1.667 0.746 1.667 1.667c0 0.017-0 0.033-0.001 0.050l0-0.002c-0.026 0.9-0.762 1.62-1.666 1.62s-1.64-0.72-1.666-1.617l-0-0.002zM24 23v-19.333c0-0.552 0.448-1 1-1 0.504 0 0.921 0.373 0.99 0.858l0.001 0.005 0.009 0.136v19.333c-0 0.552-0.448 1-1 1-0.504 0-0.921-0.373-0.99-0.858l-0.001-0.005-0.009-0.136zM14.667 27.667c-0-0.014-0.001-0.031-0.001-0.047 0-0.92 0.746-1.667 1.667-1.667s1.667 0.746 1.667 1.667c0 0.017-0 0.033-0.001 0.050l0-0.002c-0.026 0.9-0.762 1.62-1.666 1.62s-1.64-0.72-1.666-1.617l-0-0.002zM15.333 23v-19.333c0-0.552 0.448-1 1-1 0.504 0 0.921 0.373 0.99 0.858l0.001 0.005 0.009 0.136v19.333c-0 0.552-0.448 1-1 1-0.504 0-0.921-0.373-0.99-0.858l-0.001-0.005-0.009-0.136zM6 27.667c-0-0.014-0.001-0.031-0.001-0.047 0-0.92 0.746-1.667 1.667-1.667s1.667 0.746 1.667 1.667c0 0.017-0 0.033-0.001 0.050l0-0.002c-0.026 0.9-0.762 1.62-1.666 1.62s-1.64-0.72-1.666-1.617l-0-0.002zM6.667 23v-19.333c0-0.552 0.448-1 1-1 0.504 0 0.921 0.373 0.99 0.858l0.001 0.005 0.009 0.136v19.333c-0 0.552-0.448 1-1 1-0.504 0-0.921-0.373-0.99-0.858l-0.001-0.005-0.009-0.136z"></path>
</svg>
