<!-- Generated by IcoMoon.io -->
<svg version="1.1" xmlns="http://www.w3.org/2000/svg" width="32" height="32" viewBox="0 0 32 32">
<title>text-proofing-tools-ga-na-da</title>
<path d="M10.334 5c0-0.552-0.448-1-1-1s-1 0.448-1 1v10c0 0.552 0.448 1 1 1s1-0.448 1-1v-6.333h0.333c0.552 0 1-0.448 1-1s-0.448-1-1-1h-0.333v-1.667zM29.334 5c0-0.552-0.448-1-1-1s-1 0.448-1 1v10c0 0.552 0.448 1 1 1s1-0.448 1-1v-6.333h0.333c0.552 0 1-0.448 1-1s-0.448-1-1-1h-0.333v-1.667zM19 4c0.552 0 1 0.448 1 1v1.667h0.333c0.552 0 1 0.448 1 1s-0.448 1-1 1h-0.333v6.333c0 0.552-0.448 1-1 1s-1-0.448-1-1v-10c0-0.552 0.448-1 1-1zM1.334 6.334c0-0.552 0.448-1 1-1h4c0.265 0 0.52 0.105 0.707 0.293s0.293 0.442 0.293 0.707c0 2.252-1.118 5.702-4.594 7.247-0.505 0.224-1.096-0.003-1.32-0.508s0.003-1.096 0.508-1.32c2.074-0.922 3.039-2.807 3.317-4.42h-2.911c-0.552 0-1-0.448-1-1zM15.954 6.301c0.166-0.527-0.126-1.088-0.653-1.255s-1.088 0.126-1.255 0.652l-2 6.333c-0.107 0.337-0.027 0.706 0.209 0.969s0.594 0.382 0.941 0.313l3.333-0.667c0.541-0.108 0.893-0.635 0.784-1.177s-0.635-0.893-1.177-0.784l-1.674 0.335 1.491-4.72zM22 6.36c0-0.552 0.448-1 1-1h2c0.552 0 1 0.448 1 1s-0.448 1-1 1h-1v3.693l1.424-0.356c0.536-0.134 1.079 0.192 1.213 0.728s-0.192 1.079-0.728 1.213l-2.667 0.667c-0.299 0.075-0.615 0.008-0.858-0.182s-0.385-0.48-0.385-0.788v-5.974zM14.933 24.185l-2.559-2.559c-0.391-0.391-1.024-0.391-1.414 0s-0.391 1.024 0 1.414l3.333 3.333c0.416 0.416 1.099 0.385 1.475-0.067l6.667-8c0.353-0.424 0.296-1.055-0.128-1.408s-1.055-0.296-1.408 0.128l-5.966 7.159z"></path>
</svg>
