<!-- Generated by IcoMoon.io -->
<svg version="1.1" xmlns="http://www.w3.org/2000/svg" width="32" height="32" viewBox="0 0 32 32">
<title>text-effects</title>
<path d="M26.758 24.146l0.023 0.069c0.13 0.391 0.191 0.791 0.191 1.19 0 0.906-0.339 1.759-1.023 2.408-0.617 0.604-1.415 0.941-2.297 0.941-0.681 0-1.319-0.202-1.872-0.571l-0.081-0.054-0.076-0.062c-0.483-0.395-0.831-0.885-1.074-1.406l-0.016-0.034-1.317-3.124h-6.398l-1.258 3.052c-0.226 0.629-0.628 1.196-1.226 1.605-0.56 0.397-1.207 0.593-1.877 0.593-0.75 0-1.646-0.202-2.353-0.908-0.67-0.67-0.908-1.517-0.908-2.294 0-0.272 0.052-0.593 0.086-0.798l0.037-0.224 7.583-18.377c0.256-0.584 0.659-1.148 1.266-1.557 0.629-0.43 1.355-0.614 2.097-0.549 0.628 0.021 1.237 0.207 1.779 0.569 0.615 0.41 1.028 0.985 1.258 1.624l7.456 17.907zM17.433 6.954c-0.098-0.293-0.264-0.518-0.499-0.675-0.205-0.137-0.432-0.214-0.682-0.231-0.036-0.003-0.073-0.004-0.11-0.004-0.147-0.018-0.288-0.013-0.423 0.016-0.151 0.033-0.294 0.096-0.428 0.189-0.235 0.156-0.42 0.391-0.557 0.704l-7.48 18.128c-0.039 0.235-0.059 0.391-0.059 0.469 0 0.372 0.108 0.665 0.323 0.88s0.528 0.323 0.939 0.323c0.274 0 0.518-0.078 0.733-0.235 0.235-0.156 0.401-0.381 0.499-0.675l1.789-4.341h9.064l1.819 4.312c0.137 0.293 0.313 0.528 0.528 0.704 0.235 0.157 0.489 0.235 0.763 0.235 0.352 0 0.655-0.127 0.909-0.381 0.274-0.254 0.411-0.577 0.411-0.968 0-0.195-0.029-0.381-0.088-0.557l-7.451-17.893zM19.427 18.834l-3.432-8.213-3.403 8.213h6.835zM15.586 16.834h0.838l-0.421-1.007-0.417 1.007z"></path>
</svg>
