<!-- Generated by IcoMoon.io -->
<svg version="1.1" xmlns="http://www.w3.org/2000/svg" width="32" height="32" viewBox="0 0 32 32">
<title>thinking</title>
<path d="M5.333 24c1.473 0 2.667 1.194 2.667 2.667s-1.194 2.667-2.667 2.667c-1.473 0-2.667-1.194-2.667-2.667s1.194-2.667 2.667-2.667zM5.333 26c-0.368 0-0.667 0.299-0.667 0.667s0.298 0.667 0.667 0.667c0.368 0 0.667-0.299 0.667-0.667s-0.298-0.667-0.667-0.667zM12.667 20c1.841 0 3.333 1.492 3.333 3.333s-1.492 3.333-3.333 3.333c-1.841 0-3.333-1.492-3.333-3.333s1.492-3.333 3.333-3.333zM12.667 22c-0.736 0-1.333 0.597-1.333 1.333s0.597 1.333 1.333 1.333c0.736 0 1.333-0.597 1.333-1.333s-0.597-1.333-1.333-1.333zM15.765 2.667c3.546 0 6.512 2.563 7.107 5.961h0.109c2.772 0 5.020 2.247 5.020 5.020s-2.247 5.020-5.020 5.020h-14.431c-2.772 0-5.020-2.247-5.020-5.020s2.247-5.020 5.020-5.020h0.109c0.595-3.397 3.561-5.961 7.107-5.961zM15.772 4.663c-2.795 0-5.094 2.193-5.231 4.971-0.024 0.492-0.43 0.878-0.923 0.878l-0.932-0c-1.702 0-3.081 1.378-3.081 3.079s1.379 3.079 3.081 3.079h14.172c1.701 0 3.081-1.378 3.081-3.079s-1.379-3.079-3.081-3.079l-0.932 0c-0.493 0-0.899-0.386-0.923-0.878-0.137-2.778-2.436-4.971-5.231-4.971z"></path>
</svg>
