<!-- Generated by IcoMoon.io -->
<svg version="1.1" xmlns="http://www.w3.org/2000/svg" width="32" height="32" viewBox="0 0 32 32">
<title>thinking</title>
<path d="M5.333 24c1.473 0 2.667 1.194 2.667 2.667s-1.194 2.667-2.667 2.667v0c-1.473 0-2.667-1.194-2.667-2.667s1.194-2.667 2.667-2.667v0zM5.333 26c-0.368 0-0.667 0.298-0.667 0.667s0.298 0.667 0.667 0.667v0c0.368 0 0.667-0.298 0.667-0.667s-0.298-0.667-0.667-0.667v0zM12.667 20c1.841 0 3.333 1.492 3.333 3.333s-1.492 3.333-3.333 3.333v0c-1.841 0-3.333-1.492-3.333-3.333s1.492-3.333 3.333-3.333v0zM12.667 22c-0.736 0-1.333 0.597-1.333 1.333s0.597 1.333 1.333 1.333v0c0.736 0 1.333-0.597 1.333-1.333s-0.597-1.333-1.333-1.333v0zM15.764 2.667c3.541 0.001 6.487 2.551 7.1 5.916l0.007 0.044h0.109c2.772 0 5.020 2.248 5.020 5.020s-2.248 5.020-5.020 5.020v0h-14.431c-2.772 0-5.020-2.248-5.020-5.020s2.248-5.020 5.020-5.020v0h0.108c0.62-3.409 3.565-5.959 7.107-5.96h0zM15.772 4.664c-0 0-0.001 0-0.001 0-2.798 0-5.084 2.195-5.229 4.958l-0.001 0.013c-0.025 0.49-0.428 0.879-0.923 0.879h-0.933c-0.033-0.001-0.072-0.002-0.111-0.002-1.701 0-3.080 1.379-3.080 3.080s1.379 3.080 3.080 3.080c0.039 0 0.078-0.001 0.117-0.002l-0.006 0h14.173c0.033 0.001 0.072 0.002 0.111 0.002 1.701 0 3.080-1.379 3.080-3.080s-1.379-3.080-3.080-3.080c-0.039 0-0.078 0.001-0.117 0.002l0.006-0h-0.933c-0.494-0-0.898-0.388-0.923-0.876l-0-0.002c-0.145-2.775-2.431-4.971-5.229-4.971-0.001 0-0.001 0-0.001 0h0z"></path>
</svg>
