<!-- Generated by IcoMoon.io -->
<svg version="1.1" xmlns="http://www.w3.org/2000/svg" width="32" height="32" viewBox="0 0 32 32">
<title>thumb-dislike</title>
<path d="M22 23.98c0 3.256-1.52 5.599-4.009 5.599-1.3 0-1.788-0.724-2.253-2.395l-0.276-1.029c-0.135-0.479-0.369-1.293-0.703-2.44-0.010-0.033-0.023-0.063-0.041-0.089l0.001 0.001-3.821-5.98c-0.906-1.403-2.211-2.481-3.753-3.084l-0.053-0.018-0.631-0.241c-1.388-0.543-2.354-1.871-2.354-3.424 0-0.247 0.024-0.489 0.071-0.722l-0.004 0.023 0.539-2.781c0.331-1.666 1.582-2.972 3.191-3.378l0.030-0.006 10.171-2.493c0.453-0.116 0.972-0.182 1.507-0.182 2.942 0 5.415 2.006 6.127 4.724l0.010 0.044 1.887 7.4c0.085 0.321 0.134 0.69 0.134 1.071 0 2.393-1.94 4.333-4.333 4.333-0 0-0.001 0-0.001 0h-2.429c0.661 2.176 0.995 3.856 0.995 5.068zM6.133 10.561c-0.019 0.095-0.030 0.205-0.030 0.317 0 0.706 0.439 1.31 1.059 1.552l0.011 0.004 0.632 0.241c2.002 0.781 3.639 2.133 4.753 3.855l0.023 0.039 3.823 5.981c0.12 0.187 0.212 0.391 0.273 0.605l0.736 2.56 0.283 1.056c0.187 0.651 0.28 0.807 0.293 0.807 1.157 0 2.009-1.312 2.009-3.599 0-1.179-0.435-3.113-1.312-5.753-0.032-0.094-0.051-0.202-0.051-0.315 0-0.552 0.447-0.999 0.999-1h3.8c1.289-0.001 2.334-1.046 2.334-2.335 0-0.205-0.026-0.403-0.076-0.592l0.004 0.016-1.887-7.399c-0.494-1.891-2.186-3.263-4.199-3.263-0.366 0-0.722 0.045-1.061 0.131l0.030-0.006-10.171 2.493c-0.883 0.222-1.556 0.925-1.732 1.808l-0.002 0.015-0.54 2.78z"></path>
</svg>
