<!-- Generated by IcoMoon.io -->
<svg version="1.1" xmlns="http://www.w3.org/2000/svg" width="32" height="32" viewBox="0 0 32 32">
<title>thumb-like-regular</title>
<path d="M16.563 2.58c0.285-0.777 1.157-1.58 2.255-1.254 1.101 0.326 1.817 1.112 2.243 2.065 0.415 0.931 0.571 2.050 0.58 3.176 0.015 1.813-0.35 3.807-0.827 5.433h3.36c2.309 0 3.985 2.195 3.377 4.421l-2.223 8.145c-0.738 2.639-3.121 4.543-5.949 4.543-0.51 0-1.005-0.062-1.479-0.179l0.042 0.009-9.38-2.247c-1.714-0.421-3.049-1.714-3.522-3.371l-0.008-0.034-0.823-2.955c-0.506-1.818 0.527-3.611 2.137-4.35 4.216-1.935 6.471-4.751 8.238-8.351 0.56-1.14 0.97-2.273 1.526-3.81 0.14-0.387 0.289-0.799 0.452-1.243zM18.285 2.943c-0.072 0.052-0.127 0.124-0.156 0.208l-0.001 0.003c-0.154 0.42-0.298 0.817-0.435 1.195-0.56 1.55-1.008 2.788-1.611 4.018-1.887 3.844-4.385 6.995-9.040 9.131-0.973 0.447-1.481 1.469-1.225 2.388l0.822 2.955c0.315 1.108 1.19 1.955 2.292 2.226l0.022 0.005 9.38 2.247c0.315 0.079 0.676 0.124 1.048 0.124 2.064 0 3.803-1.389 4.334-3.283l0.008-0.032 2.223-8.145c0.041-0.145 0.065-0.311 0.065-0.483 0-1.013-0.821-1.833-1.833-1.833 0 0 0 0 0 0h-4.508c-0 0-0 0-0 0-0.46 0-0.833-0.373-0.833-0.833 0-0.102 0.018-0.2 0.052-0.29l-0.002 0.006c0.589-1.621 1.108-3.957 1.091-5.969-0.008-1.007-0.151-1.871-0.436-2.51-0.276-0.617-0.664-0.989-1.194-1.147-0.009-0.002-0.011-0.002-0.015-0.001-0.017 0.004-0.032 0.011-0.046 0.020l0-0z"></path>
</svg>
