<!-- Generated by IcoMoon.io -->
<svg version="1.1" xmlns="http://www.w3.org/2000/svg" width="32" height="32" viewBox="0 0 32 32">
<title>thumb-like</title>
<path d="M21.999 6.936c0-3.256-1.52-5.598-4.009-5.598-1.368 0-1.838 0.802-2.328 2.666-0.1 0.385-0.149 0.573-0.201 0.757-0.135 0.478-0.369 1.293-0.703 2.441-0.009 0.031-0.022 0.060-0.039 0.087l-3.822 5.981c-0.904 1.415-2.238 2.502-3.806 3.102l-0.631 0.242c-1.662 0.637-2.627 2.375-2.289 4.122l0.539 2.781c0.322 1.66 1.58 2.981 3.223 3.384l10.17 2.493c3.375 0.827 6.786-1.219 7.645-4.586l1.887-7.399c0.591-2.319-0.809-4.678-3.128-5.27-0.35-0.089-0.709-0.134-1.071-0.134h-2.431c0.661-2.177 0.995-3.857 0.995-5.069zM6.135 20.356c-0.154-0.794 0.285-1.585 1.040-1.874l0.631-0.242c1.967-0.753 3.641-2.118 4.776-3.893l3.822-5.981c0.12-0.188 0.213-0.392 0.275-0.606 0.335-1.153 0.571-1.972 0.707-2.457 0.057-0.204 0.112-0.412 0.21-0.79 0.253-0.962 0.378-1.175 0.394-1.175 1.157 0 2.009 1.312 2.009 3.598 0 1.179-0.434 3.114-1.312 5.753-0.215 0.647 0.267 1.315 0.949 1.315h3.799c0.195 0 0.388 0.024 0.577 0.072 1.249 0.318 2.003 1.589 1.685 2.837l-1.887 7.399c-0.587 2.304-2.921 3.704-5.231 3.138l-10.17-2.493c-0.884-0.217-1.562-0.928-1.735-1.822l-0.539-2.781z"></path>
</svg>
