<!-- Generated by IcoMoon.io -->
<svg version="1.1" xmlns="http://www.w3.org/2000/svg" width="32" height="32" viewBox="0 0 32 32">
<title>ticket-horizontal-regular</title>
<path d="M27 6.667c1.288 0 2.333 1.045 2.333 2.333v3.013c0 0.52-0.4 0.955-0.917 0.997-1.544 0.134-2.747 1.421-2.747 2.989s1.203 2.855 2.736 2.989l0.011 0.001c0.516 0.044 0.917 0.473 0.917 0.997 0 0 0 0.001 0 0.001v-0 3.013c0 1.289-1.045 2.333-2.333 2.333v0h-22c-1.289 0-2.333-1.045-2.333-2.333v0-3.013c0-0.52 0.4-0.955 0.919-0.997 1.544-0.134 2.747-1.421 2.747-2.989s-1.203-2.855-2.736-2.989l-0.011-0.001c-0.516-0.043-0.919-0.473-0.919-0.997 0-0 0-0 0-0.001v0-3.013c0-1.288 1.045-2.333 2.333-2.333h22zM27.333 11.18v-2.18c0-0.184-0.149-0.333-0.333-0.333v0h-22c-0.184 0-0.333 0.149-0.333 0.333v0 2.18c2.13 0.606 3.663 2.534 3.663 4.82s-1.533 4.214-3.628 4.811l-0.035 0.009v2.18c0 0.184 0.149 0.333 0.333 0.333h22c0.184 0 0.333-0.149 0.333-0.333v0-2.18c-2.131-0.605-3.665-2.534-3.665-4.821 0-2.194 1.413-4.058 3.378-4.733l0.035-0.011 0.253-0.076z"></path>
</svg>
