<!-- Generated by IcoMoon.io -->
<svg version="1.1" xmlns="http://www.w3.org/2000/svg" width="32" height="32" viewBox="0 0 32 32">
<title>ticket-diagonal-regular</title>
<path d="M19.966 4.479c-0.223-0.247-0.544-0.401-0.902-0.401-0.335 0-0.639 0.136-0.858 0.356l-13.791 13.794c-0.219 0.22-0.355 0.523-0.355 0.858 0 0.352 0.15 0.669 0.389 0.891l0.001 0.001 1.571 1.454c0.042 0.040 0.119 0.081 0.266 0.087 0.153 0.007 0.346-0.029 0.542-0.109 0.403-0.168 0.871-0.266 1.362-0.266 1.999 0 3.619 1.62 3.619 3.619 0 0.392-0.062 0.769-0.177 1.123l0.007-0.026c-0.045 0.129-0.071 0.278-0.071 0.433 0 0.041 0.002 0.082 0.005 0.122l-0-0.005c0.018 0.146 0.065 0.219 0.109 0.258l1.166 1.079c0.216 0.2 0.505 0.323 0.824 0.323 0.331 0 0.631-0.133 0.851-0.348l-0 0 13.175-12.939c0.225-0.221 0.364-0.527 0.364-0.867 0-0.313-0.119-0.599-0.313-0.814l0.001 0.001-1.229-1.362c-0.039-0.041-0.107-0.088-0.249-0.11-0.045-0.005-0.097-0.008-0.15-0.008-0.137 0-0.268 0.021-0.392 0.059l0.009-0.002c-0.292 0.084-0.626 0.133-0.973 0.133-1.999 0-3.62-1.62-3.623-3.618v-0c0-0.469 0.089-0.917 0.251-1.329 0.075-0.191 0.109-0.377 0.103-0.525-0.007-0.142-0.046-0.215-0.085-0.257l-1.445-1.601zM16.994 3.222c0.53-0.53 1.262-0.858 2.071-0.858 0.861 0 1.636 0.372 2.172 0.964l0.002 0.002 1.446 1.601c0.725 0.803 0.569 1.887 0.304 2.56-0.084 0.207-0.133 0.448-0.133 0.699 0 1.052 0.853 1.905 1.905 1.905 0.183 0 0.36-0.026 0.528-0.074l-0.013 0.003c0.696-0.194 1.79-0.24 2.515 0.565l1.229 1.362c0.468 0.517 0.754 1.206 0.754 1.962 0 0.818-0.335 1.558-0.876 2.089l-0 0-13.175 12.939c-0.528 0.519-1.252 0.839-2.052 0.839-0.768 0-1.468-0.296-1.99-0.78l0.002 0.002-1.166-1.079c-0.816-0.754-0.735-1.882-0.511-2.585 0.057-0.173 0.090-0.371 0.090-0.578 0-1.052-0.853-1.905-1.905-1.905-0.259 0-0.505 0.052-0.73 0.145l0.013-0.005c-0.685 0.278-1.802 0.446-2.617-0.309l-1.573-1.453c-0.579-0.537-0.94-1.301-0.94-2.15 0-0.809 0.328-1.541 0.858-2.071l13.794-13.791z"></path>
</svg>
