<!-- Generated by IcoMoon.io -->
<svg version="1.1" xmlns="http://www.w3.org/2000/svg" width="32" height="32" viewBox="0 0 32 32">
<title>ticket-diagonal</title>
<path d="M19.373 4.788c-0.391-0.391-1.024-0.391-1.414 0l-13.172 13.172c-0.391 0.391-0.391 1.024 0 1.414l1.424 1.424c0.53-0.296 1.14-0.465 1.787-0.465 2.025 0 3.667 1.642 3.667 3.667 0 0.647-0.169 1.258-0.465 1.787l1.424 1.425c0.391 0.391 1.024 0.391 1.414 0l13.172-13.172c0.391-0.391 0.391-1.024 0-1.414l-1.424-1.424c-0.53 0.296-1.141 0.465-1.788 0.465-2.025 0-3.667-1.642-3.667-3.667 0-0.647 0.169-1.258 0.465-1.788l-1.424-1.424zM16.545 3.373c1.172-1.172 3.071-1.172 4.243 0l1.562 1.562c0.681 0.681 0.559 1.637 0.216 2.215-0.147 0.248-0.232 0.537-0.232 0.85 0 0.92 0.746 1.667 1.667 1.667 0.312 0 0.602-0.085 0.85-0.232 0.578-0.343 1.534-0.465 2.215 0.216l1.562 1.562c1.172 1.172 1.172 3.071 0 4.243l-13.171 13.171c-1.172 1.172-3.071 1.172-4.243 0l-1.562-1.562c-0.681-0.681-0.559-1.637-0.216-2.214 0.147-0.248 0.232-0.537 0.232-0.85 0-0.92-0.746-1.667-1.667-1.667-0.312 0-0.602 0.085-0.85 0.232-0.578 0.343-1.533 0.465-2.214-0.216l-1.562-1.562c-1.172-1.172-1.172-3.071 0-4.243l13.172-13.172z"></path>
</svg>
