<!-- Generated by IcoMoon.io -->
<svg version="1.1" xmlns="http://www.w3.org/2000/svg" width="32" height="32" viewBox="0 0 32 32">
<title>timer-off</title>
<path d="M4.374 2.96c-0.391-0.391-1.024-0.391-1.414-0s-0.391 1.024-0 1.414l5.325 5.325c-2.225 2.069-3.618 5.023-3.618 8.301 0 6.259 5.074 11.333 11.333 11.333 3.279 0 6.232-1.392 8.301-3.617l3.325 3.325c0.391 0.391 1.024 0.391 1.414 0s0.391-1.024 0-1.414l-24.666-24.667zM22.886 24.301c-1.706 1.864-4.16 3.033-6.886 3.033-5.155 0-9.333-4.179-9.333-9.333 0-2.726 1.169-5.18 3.033-6.886l5.3 5.3v1.252l0.009 0.136c0.066 0.488 0.485 0.864 0.991 0.864 0.341 0 0.641-0.17 0.822-0.43l6.064 6.064z"></path>
<path d="M15.249 11.006l1.751 1.751v-1.091l-0.009-0.136c-0.066-0.488-0.485-0.864-0.991-0.864-0.299 0-0.568 0.131-0.751 0.34z"></path>
<path d="M25.333 18c0 0.937-0.138 1.842-0.395 2.696l1.566 1.566c0.534-1.316 0.829-2.755 0.829-4.262 0-6.259-5.074-11.333-11.333-11.333-1.508 0-2.946 0.294-4.262 0.829l1.566 1.566c0.854-0.257 1.758-0.395 2.696-0.395 5.155 0 9.333 4.179 9.333 9.333z"></path>
<path d="M25.53 6.818l0.11 0.080 1.545 1.286c0.425 0.353 0.482 0.984 0.129 1.408-0.324 0.389-0.881 0.47-1.298 0.209l-0.11-0.080-1.545-1.286c-0.425-0.353-0.482-0.984-0.129-1.408 0.324-0.389 0.881-0.47 1.298-0.209z"></path>
<path d="M19 3.333c0.552 0 1 0.448 1 1 0 0.506-0.376 0.925-0.864 0.991l-0.136 0.009h-6c-0.552 0-1-0.448-1-1 0-0.506 0.376-0.925 0.864-0.991l0.136-0.009h6z"></path>
</svg>
