<!-- Generated by IcoMoon.io -->
<svg version="1.1" xmlns="http://www.w3.org/2000/svg" width="32" height="32" viewBox="0 0 32 32">
<title>timer-2</title>
<path d="M16 6.664c6.259 0 11.333 5.074 11.333 11.333 0 0.487-0.031 0.967-0.090 1.438-0.571-0.377-1.229-0.633-1.937-0.729 0.019-0.232 0.028-0.469 0.028-0.709 0-5.155-4.179-9.333-9.333-9.333s-9.333 4.179-9.333 9.333c0 5.155 4.179 9.333 9.333 9.333 1.567 0 3.043-0.386 4.34-1.068-0.219 0.536-0.338 1.123-0.338 1.736v0.332l0.012 0.225 0.007 0.041c-1.25 0.474-2.605 0.734-4.021 0.734-6.259 0-11.333-5.074-11.333-11.333s5.074-11.333 11.333-11.333zM24.671 19.997c1.841 0 3.334 1.492 3.334 3.333 0 1.767-1.375 3.214-3.114 3.327l-0.219 0.007c-0.475 0-0.891 0.247-1.128 0.619l-0.027 0.047 3.489 0.001c0.506 0 0.925 0.376 0.991 0.864l0.009 0.136c0 0.506-0.376 0.925-0.864 0.991l-0.136 0.009h-4.669c-0.506 0-0.925-0.376-0.991-0.864l-0.009-0.136v-0.332c0-1.768 1.376-3.215 3.115-3.327l0.219-0.007c0.737 0 1.335-0.597 1.335-1.334 0-0.684-0.515-1.247-1.178-1.325l-0.156-0.009h-0.335c-0.507 0-0.925 0.376-0.991 0.865l-0.009 0.136c0 0.552-0.448 1-1 1s-1-0.448-1-1c0-1.588 1.234-2.888 2.795-2.994l0.205-0.007h0.335zM16 10.667c0.506 0 0.925 0.376 0.991 0.864l0.009 0.136v6c0 0.552-0.448 1-1 1-0.506 0-0.925-0.376-0.991-0.864l-0.009-0.136v-6c0-0.552 0.448-1 1-1zM25.549 6.828l0.108 0.082 1.508 1.314c0.416 0.363 0.46 0.995 0.097 1.411-0.333 0.382-0.891 0.45-1.303 0.179l-0.108-0.082-1.508-1.314c-0.416-0.363-0.46-0.995-0.097-1.411 0.333-0.382 0.891-0.45 1.303-0.179zM19 3.316c0.552 0 1 0.448 1 1 0 0.506-0.376 0.925-0.864 0.991l-0.136 0.009h-6c-0.552 0-1-0.448-1-1 0-0.506 0.376-0.925 0.864-0.991l0.136-0.009h6z"></path>
</svg>
