<!-- Generated by IcoMoon.io -->
<svg version="1.1" xmlns="http://www.w3.org/2000/svg" width="32" height="32" viewBox="0 0 32 32">
<title>timer-2-regular</title>
<path d="M27.192 16.208c-0.897-5.44-5.565-9.538-11.19-9.538-6.259 0-11.333 5.074-11.333 11.333s5.074 11.333 11.333 11.333c1.437 0 2.811-0.267 4.076-0.755l-0.077 0.026v-0.275c0-0.743 0.143-1.452 0.403-2.101-1.274 0.694-2.789 1.102-4.4 1.102-5.155 0-9.333-4.179-9.333-9.333s4.179-9.333 9.333-9.333c4.455 0 8.18 3.121 9.11 7.295l0.012 0.062c0.161-0.016 0.348-0.025 0.537-0.025 0.545 0 1.072 0.076 1.572 0.218l-0.041-0.010zM16.992 11.531c-0.065-0.495-0.484-0.874-0.992-0.874-0.552 0-1 0.448-1 1 0 0.004 0 0.007 0 0.011v-0.001 6l0.009 0.136c0.069 0.491 0.486 0.864 0.991 0.864 0.552 0 1-0.448 1-1v-6l-0.009-0.136zM25.64 6.899l-0.111-0.080c-0.149-0.094-0.331-0.149-0.526-0.149-0.552 0-1 0.448-1 1 0 0.306 0.138 0.581 0.355 0.764l0.001 0.001 1.545 1.287 0.109 0.080c0.151 0.096 0.335 0.153 0.532 0.153 0.552 0 1-0.448 1-1 0-0.309-0.14-0.586-0.361-0.769l-0.002-0.001-1.544-1.285zM20 4.333c0-0.552-0.448-1-1-1v0h-6l-0.136 0.009c-0.491 0.069-0.864 0.486-0.864 0.991 0 0.552 0.448 1 1 1h6l0.136-0.009c0.491-0.069 0.864-0.486 0.864-0.991v0zM25.667 17.333c-2.393 0-4.333 1.94-4.333 4.333v0c0 0.552 0.448 1 1 1s1-0.448 1-1v0c0-1.289 1.045-2.333 2.333-2.333s2.333 1.045 2.333 2.333c0 1.289-1.045 2.333-2.333 2.333v0c-2.393 0-4.333 1.94-4.333 4.333v0 1.333c0 0.552 0.448 1 1 1h6.667c0.552 0 1-0.448 1-1s-0.448-1-1-1v0h-5.667v-0.333c0-1.288 1.045-2.333 2.333-2.333 2.393 0 4.333-1.94 4.333-4.333s-1.94-4.333-4.333-4.333v0z"></path>
</svg>
