<!-- Generated by IcoMoon.io -->
<svg version="1.1" xmlns="http://www.w3.org/2000/svg" width="32" height="32" viewBox="0 0 32 32">
<title>timeline</title>
<path d="M20.333 17.333c1.289 0 2.333 1.045 2.333 2.333v6c0 1.289-1.045 2.333-2.333 2.333v0h-15.333c-1.289 0-2.333-1.045-2.333-2.333v0-6c0-1.288 1.045-2.333 2.333-2.333h15.333zM28 19.865v7.135c-0 0.552-0.448 1-1 1-0.504 0-0.921-0.373-0.99-0.858l-0.001-0.005-0.009-0.136v-7.117c0.29 0.075 0.623 0.118 0.966 0.118 0.368 0 0.724-0.049 1.062-0.142l-0.028 0.007zM20.333 19.333h-15.333c-0.184 0-0.333 0.149-0.333 0.333v0 6c0 0.184 0.149 0.333 0.333 0.333h15.333c0.184 0 0.333-0.149 0.333-0.333v0-6c0-0.184-0.149-0.333-0.333-0.333v0zM27 13.456c1.405 0 2.544 1.139 2.544 2.544s-1.139 2.544-2.544 2.544v0c-1.405 0-2.544-1.139-2.544-2.544s1.139-2.544 2.544-2.544v0zM20.328 4c1.289 0 2.333 1.045 2.333 2.333v6c0 1.289-1.045 2.333-2.333 2.333v0h-15.333c-1.289 0-2.333-1.045-2.333-2.333v0-6c0-1.221 0.939-2.224 2.134-2.325l0.009-0.001 0.191-0.008h15.333zM20.328 6l-15.409 0.009c-0.148 0.036-0.257 0.167-0.257 0.324v6c0 0.184 0.149 0.333 0.333 0.333h15.333c0.184 0 0.333-0.149 0.333-0.333v0-6c0-0.184-0.149-0.333-0.333-0.333v0zM27 4c0 0 0.001 0 0.001 0 0.504 0 0.921 0.373 0.99 0.859l0.001 0.005 0.008 0.136v7.135c-0.31-0.086-0.666-0.136-1.034-0.136-0.343 0-0.676 0.043-0.994 0.124l0.028-0.006v-7.117c0-0.552 0.448-1 1-1v0z"></path>
</svg>
