<!-- Generated by IcoMoon.io -->
<svg version="1.1" xmlns="http://www.w3.org/2000/svg" width="32" height="32" viewBox="0 0 32 32">
<title>timer</title>
<path d="M16 6.667c6.259 0 11.333 5.074 11.333 11.333s-5.074 11.333-11.333 11.333c-6.259 0-11.333-5.074-11.333-11.333s5.074-11.333 11.333-11.333zM16 8.667c-5.155 0-9.333 4.179-9.333 9.333s4.179 9.333 9.333 9.333c5.155 0 9.333-4.179 9.333-9.333s-4.179-9.333-9.333-9.333zM16 10.667c0.506 0 0.925 0.376 0.991 0.864l0.009 0.136v6c0 0.552-0.448 1-1 1-0.506 0-0.925-0.376-0.991-0.864l-0.009-0.136v-6c0-0.552 0.448-1 1-1zM25.53 6.818l0.11 0.080 1.545 1.286c0.425 0.353 0.482 0.984 0.129 1.408-0.324 0.389-0.881 0.47-1.298 0.209l-0.11-0.080-1.545-1.286c-0.425-0.353-0.482-0.984-0.129-1.408 0.324-0.389 0.881-0.47 1.298-0.209zM19 3.333c0.552 0 1 0.448 1 1 0 0.506-0.376 0.925-0.864 0.991l-0.136 0.009h-6c-0.552 0-1-0.448-1-1 0-0.506 0.376-0.925 0.864-0.991l0.136-0.009h6z"></path>
</svg>
