<!-- Generated by IcoMoon.io -->
<svg version="1.1" xmlns="http://www.w3.org/2000/svg" width="32" height="32" viewBox="0 0 32 32">
<title>timer-3</title>
<path d="M27.333 18c0-6.259-5.074-11.333-11.333-11.333s-11.333 5.074-11.333 11.333c0 6.259 5.074 11.333 11.333 11.333 1.322 0 2.591-0.226 3.771-0.642-0.295-0.949 0.045-2.016 0.899-2.608-1.374 0.795-2.969 1.251-4.67 1.251-5.155 0-9.333-4.179-9.333-9.333s4.179-9.333 9.333-9.333c5.155 0 9.333 4.179 9.333 9.333 0 0.249-0.010 0.496-0.029 0.74 0.709 0.109 1.368 0.339 1.941 0.678 0.058-0.465 0.088-0.938 0.088-1.418zM16.991 11.531c-0.066-0.488-0.485-0.864-0.991-0.864-0.552 0-1 0.448-1 1v6l0.009 0.136c0.066 0.488 0.485 0.864 0.991 0.864 0.552 0 1-0.448 1-1v-6l-0.009-0.136zM25.64 6.898l-0.11-0.080c-0.417-0.261-0.974-0.18-1.298 0.209-0.353 0.424-0.296 1.055 0.129 1.408l1.545 1.286 0.11 0.080c0.417 0.261 0.974 0.18 1.298-0.209 0.353-0.424 0.296-1.055-0.129-1.408l-1.545-1.286zM20 4.333c0-0.552-0.448-1-1-1h-6l-0.136 0.009c-0.488 0.066-0.864 0.485-0.864 0.991 0 0.552 0.448 1 1 1h6l0.136-0.009c0.488-0.066 0.864-0.485 0.864-0.991zM25.833 23.645c-0.18 0.168-0.534 0.355-1.166 0.355-0.552 0-1 0.448-1 1s0.448 1 1 1c0.632 0 0.987 0.187 1.166 0.355s0.253 0.377 0.241 0.586c-0.021 0.351-0.377 1.059-1.741 1.059-0.62 0-1.012-0.182-1.237-0.332-0.117-0.078-0.195-0.152-0.239-0.198-0.021-0.023-0.034-0.038-0.039-0.044-0.311-0.443-0.92-0.56-1.373-0.258-0.779 0.5-0.277 1.387-0.277 1.387l0.003 0.004 0.003 0.004 0.007 0.010 0.017 0.024c0.013 0.018 0.029 0.039 0.048 0.064 0.039 0.049 0.091 0.112 0.158 0.182 0.133 0.141 0.325 0.317 0.584 0.489 0.525 0.35 1.299 0.668 2.346 0.668 2.162 0 3.639-1.292 3.737-2.941 0.044-0.745-0.215-1.489-0.764-2.059 0.548-0.57 0.808-1.314 0.764-2.059-0.098-1.649-1.575-2.941-3.737-2.941-1.047 0-1.821 0.318-2.346 0.668-0.259 0.172-0.451 0.348-0.584 0.489-0.067 0.071-0.119 0.133-0.158 0.182-0.019 0.025-0.035 0.046-0.048 0.064l-0.017 0.024-0.007 0.010-0.003 0.004-0.003 0.004c-0.306 0.459-0.182 1.080 0.277 1.387 0.453 0.302 1.063 0.186 1.373-0.258 0.005-0.006 0.017-0.021 0.039-0.044 0.044-0.047 0.123-0.121 0.239-0.198 0.225-0.15 0.617-0.332 1.237-0.332 1.364 0 1.72 0.708 1.741 1.059 0.012 0.208-0.061 0.418-0.241 0.586zM22.83 27.442l-0.008-0.011 0.002 0.002 0.004 0.006 0.002 0.003zM22.832 22.556l-0.009 0.014 0.002-0.002 0.004-0.006 0.002-0.003 0.002-0.003z"></path>
</svg>
