<!-- Generated by IcoMoon.io -->
<svg version="1.1" xmlns="http://www.w3.org/2000/svg" width="32" height="32" viewBox="0 0 32 32">
<title>timer-10</title>
<path d="M25.999 20c1.767 0 3.212 1.375 3.325 3.113l0.007 0.219v2.672c0 1.84-1.492 3.332-3.332 3.332-1.767 0-3.213-1.375-3.325-3.113l-0.007-0.219v-2.672c0-1.84 1.492-3.332 3.332-3.332zM16 6.664c6.259 0 11.333 5.074 11.333 11.333 0 0.288-0.011 0.573-0.032 0.856-0.414-0.122-0.851-0.187-1.302-0.187-0.236 0-0.467 0.017-0.693 0.051 0.018-0.236 0.027-0.477 0.027-0.72 0-5.155-4.179-9.333-9.333-9.333s-9.333 4.179-9.333 9.333c0 5.155 4.179 9.333 9.333 9.333 0.688 0 1.358-0.075 2.004-0.216l-0.001 1.214 0.015 0.247 0.001 0.576c-0.655 0.118-1.331 0.179-2.020 0.179-6.259 0-11.333-5.074-11.333-11.333s5.074-11.333 11.333-11.333zM21.328 20.866l0.009 0.134v7.329c0 0.552-0.448 1-1 1-0.506 0-0.925-0.376-0.991-0.864l-0.009-0.136-0.001-5.939-0.683 0.231c-0.48 0.161-0.996-0.062-1.214-0.504l-0.052-0.126c-0.161-0.48 0.063-0.996 0.504-1.214l0.126-0.052 2.002-0.672c0.605-0.203 1.229 0.203 1.309 0.814zM25.999 22c-0.683 0-1.247 0.514-1.323 1.177l-0.009 0.155v2.672c0 0.736 0.597 1.332 1.332 1.332 0.683 0 1.246-0.514 1.323-1.177l0.009-0.155v-2.672c0-0.736-0.596-1.332-1.332-1.332zM16 10.667c0.506 0 0.925 0.376 0.991 0.864l0.009 0.136v6c0 0.552-0.448 1-1 1-0.506 0-0.925-0.376-0.991-0.864l-0.009-0.136v-6c0-0.552 0.448-1 1-1zM25.549 6.828l0.108 0.082 1.508 1.314c0.416 0.363 0.46 0.995 0.097 1.411-0.333 0.382-0.891 0.45-1.303 0.179l-0.108-0.082-1.508-1.314c-0.416-0.363-0.46-0.995-0.097-1.411 0.333-0.382 0.891-0.45 1.303-0.179zM19 3.316c0.552 0 1 0.448 1 1 0 0.506-0.376 0.925-0.864 0.991l-0.136 0.009h-6c-0.552 0-1-0.448-1-1 0-0.506 0.376-0.925 0.864-0.991l0.136-0.009h6z"></path>
</svg>
