<!-- Generated by IcoMoon.io -->
<svg version="1.1" xmlns="http://www.w3.org/2000/svg" width="32" height="32" viewBox="0 0 32 32">
<title>time-picker</title>
<path d="M22.11 23.369c0.348 0.429 0.283 1.058-0.146 1.407l-5.333 4.333c-0.367 0.299-0.894 0.299-1.261 0l-5.333-4.333c-0.429-0.348-0.494-0.978-0.146-1.407s0.978-0.494 1.407-0.146l4.703 3.821 4.703-3.821c0.429-0.348 1.059-0.283 1.407 0.146zM6.568 12.646c0.723 0 1.276 0.238 1.659 0.713s0.579 1.158 0.588 2.049v1.221c0 0.917-0.19 1.619-0.57 2.105s-0.936 0.729-1.668 0.729c-0.723 0-1.276-0.238-1.659-0.715s-0.579-1.161-0.588-2.051v-1.221c0-0.927 0.192-1.63 0.577-2.11s0.938-0.72 1.661-0.72zM11.923 12.646c0.723 0 1.276 0.238 1.659 0.713s0.579 1.158 0.588 2.049v1.221c0 0.917-0.19 1.619-0.57 2.105s-0.936 0.729-1.668 0.729c-0.723 0-1.276-0.238-1.659-0.715s-0.579-1.161-0.588-2.051v-1.221c0-0.927 0.192-1.63 0.576-2.11s0.938-0.72 1.661-0.72zM19.912 12.646c0.723 0 1.276 0.238 1.659 0.713s0.579 1.158 0.588 2.049v1.221c0 0.917-0.19 1.619-0.57 2.105s-0.936 0.729-1.668 0.729c-0.723 0-1.276-0.238-1.659-0.715s-0.579-1.161-0.588-2.051v-1.221c0-0.927 0.192-1.63 0.576-2.11s0.938-0.72 1.661-0.72zM25.267 12.646c0.723 0 1.276 0.238 1.659 0.713s0.579 1.158 0.588 2.049v1.221c0 0.917-0.19 1.619-0.57 2.105s-0.936 0.729-1.668 0.729c-0.723 0-1.276-0.238-1.659-0.715s-0.579-1.161-0.588-2.051v-1.221c0-0.927 0.192-1.63 0.576-2.11s0.938-0.72 1.661-0.72zM16.001 17.333c0.216 0 0.394 0.065 0.535 0.196s0.212 0.301 0.212 0.51c0 0.207-0.070 0.374-0.21 0.504s-0.319 0.194-0.538 0.194c-0.216 0-0.393-0.065-0.533-0.194s-0.21-0.297-0.21-0.504c0-0.21 0.071-0.38 0.212-0.51s0.318-0.196 0.531-0.196zM6.568 13.713c-0.31 0-0.539 0.119-0.686 0.358s-0.226 0.611-0.235 1.119v1.613c0 0.541 0.074 0.943 0.221 1.205s0.384 0.394 0.709 0.394c0.322 0 0.554-0.126 0.697-0.378s0.217-0.638 0.223-1.158v-1.577c0-0.55-0.075-0.95-0.226-1.201s-0.385-0.376-0.704-0.376zM11.923 13.713c-0.31 0-0.539 0.119-0.686 0.358s-0.226 0.611-0.235 1.119v1.613c0 0.541 0.074 0.943 0.221 1.205s0.384 0.394 0.709 0.394c0.322 0 0.554-0.126 0.697-0.378s0.217-0.638 0.223-1.158v-1.577c0-0.55-0.075-0.95-0.226-1.201s-0.385-0.376-0.704-0.376zM19.912 13.713c-0.31 0-0.539 0.119-0.686 0.358s-0.226 0.611-0.235 1.119v1.613c0 0.541 0.074 0.943 0.221 1.205s0.384 0.394 0.709 0.394c0.322 0 0.555-0.126 0.697-0.378s0.217-0.638 0.223-1.158v-1.577c0-0.55-0.075-0.95-0.225-1.201s-0.385-0.376-0.704-0.376zM25.267 13.713c-0.31 0-0.539 0.119-0.686 0.358-0.123 0.199-0.198 0.491-0.224 0.876l-0.010 0.243v1.613c0 0.541 0.074 0.943 0.221 1.205s0.384 0.394 0.709 0.394c0.322 0 0.555-0.126 0.697-0.378 0.119-0.21 0.191-0.513 0.215-0.909l0.009-0.249v-1.577c0-0.55-0.075-0.95-0.226-1.201s-0.385-0.376-0.704-0.376zM16.001 13.601c0.216 0 0.394 0.065 0.535 0.196s0.212 0.301 0.212 0.51c0 0.207-0.070 0.374-0.21 0.504s-0.319 0.194-0.538 0.194c-0.216 0-0.393-0.065-0.533-0.194s-0.21-0.297-0.21-0.504c0-0.21 0.071-0.38 0.212-0.51s0.318-0.196 0.531-0.196zM10.037 7.224l5.333-4.333c0.327-0.265 0.779-0.295 1.133-0.088l0.128 0.088 5.333 4.333c0.429 0.348 0.494 0.978 0.146 1.407-0.317 0.39-0.866 0.479-1.285 0.23l-0.122-0.085-4.703-3.821-4.703 3.821c-0.429 0.348-1.058 0.283-1.407-0.146-0.317-0.39-0.292-0.946 0.038-1.305l0.108-0.102z"></path>
</svg>
