<!-- Generated by IcoMoon.io -->
<svg version="1.1" xmlns="http://www.w3.org/2000/svg" width="32" height="32" viewBox="0 0 32 32">
<title>timer-10-regular</title>
<path d="M16 6.667c5.575 0 10.209 4.024 11.158 9.326l0.010 0.069c-0.251-0.039-0.54-0.061-0.834-0.061-0.421 0-0.832 0.046-1.227 0.132l0.038-0.007c-0.902-4.286-4.652-7.458-9.143-7.458-5.155 0-9.333 4.179-9.333 9.333s4.179 9.333 9.333 9.333c0.234 0 0.465-0.009 0.695-0.025l-0.031 0.002v2.003c-0.201 0.013-0.436 0.020-0.673 0.020-6.259 0-11.333-5.074-11.333-11.333s5.074-11.333 11.333-11.333c0.002 0 0.004 0 0.007 0h-0zM17 16.54v-4.873l-0.009-0.136c-0.069-0.491-0.486-0.864-0.991-0.864-0.552 0-1 0.448-1 1v6l0.008 0.119c0.277-0.455 0.709-0.817 1.253-1l0.739-0.245zM25.529 6.819l0.111 0.080 1.544 1.285c0.219 0.185 0.356 0.459 0.356 0.765 0 0.552-0.448 1-1 1-0.195 0-0.376-0.056-0.53-0.152l0.004 0.002-0.109-0.080-1.545-1.285c-0.219-0.185-0.356-0.459-0.356-0.765 0-0.552 0.448-1 1-1 0.195 0 0.376 0.056 0.53 0.152l-0.004-0.002zM19 3.333c0.552 0 1 0.448 1 1 0 0.504-0.373 0.921-0.858 0.99l-0.005 0.001-0.136 0.009h-6c-0.552-0-1-0.448-1-1 0-0.504 0.373-0.921 0.858-0.99l0.005-0.001 0.136-0.009h6zM19.584 17.523c0.253 0.184 0.416 0.478 0.416 0.811v11.333c0 0.552-0.448 1-1 1s-1-0.448-1-1v0-9.947l-0.684 0.228c-0.084 0.025-0.18 0.040-0.28 0.040-0.552 0-1-0.448-1-1 0-0.426 0.266-0.789 0.641-0.934l0.007-0.002 2-0.667c0.094-0.032 0.203-0.051 0.316-0.051 0.219 0 0.422 0.071 0.587 0.19l-0.003-0.002zM22 21.667c0-2.393 1.94-4.333 4.333-4.333s4.333 1.94 4.333 4.333v0 4.667c0 2.393-1.94 4.333-4.333 4.333s-4.333-1.94-4.333-4.333v0-4.667zM26.333 19.333c-1.289 0-2.333 1.045-2.333 2.333v0 4.667c0 1.289 1.045 2.333 2.333 2.333s2.333-1.045 2.333-2.333v0-4.667c0-1.289-1.045-2.333-2.333-2.333v0z"></path>
</svg>
