<!-- Generated by IcoMoon.io -->
<svg version="1.1" xmlns="http://www.w3.org/2000/svg" width="32" height="32" viewBox="0 0 32 32">
<title>timer-3</title>
<path d="M27.191 16.197c-0.901-5.435-5.567-9.528-11.189-9.528-6.259 0-11.333 5.074-11.333 11.333s5.074 11.333 11.333 11.333c1.442 0 2.82-0.269 4.089-0.76l-0.077 0.026c-0.076-0.221-0.12-0.475-0.12-0.739 0-0.787 0.39-1.483 0.986-1.905l0.007-0.005c-1.39 0.866-3.077 1.38-4.884 1.38-5.155 0-9.333-4.179-9.333-9.333s4.179-9.333 9.333-9.333c4.455 0 8.18 3.121 9.11 7.295l0.012 0.062c0.159-0.015 0.344-0.023 0.532-0.023 0.546 0 1.075 0.072 1.578 0.206l-0.043-0.010zM16.991 11.531c-0.069-0.491-0.486-0.864-0.991-0.864-0.552 0-1 0.448-1 1v6l0.009 0.136c0.069 0.491 0.486 0.864 0.991 0.864 0.552 0 1-0.448 1-1v-6l-0.009-0.136zM25.64 6.899l-0.111-0.080c-0.149-0.094-0.331-0.149-0.526-0.149-0.552 0-1 0.448-1 1 0 0.306 0.138 0.581 0.355 0.764l0.001 0.001 1.545 1.287 0.109 0.080c0.151 0.096 0.335 0.153 0.532 0.153 0.552 0 1-0.448 1-1 0-0.309-0.14-0.586-0.361-0.769l-0.002-0.001-1.544-1.285zM20 4.333c0-0.552-0.448-1-1-1v0h-6l-0.136 0.009c-0.491 0.069-0.864 0.486-0.864 0.991 0 0.552 0.448 1 1 1h6l0.136-0.009c0.491-0.069 0.864-0.486 0.864-0.991v0zM24.333 24c0-0.552 0.448-1 1-1v0c0.703 0 1.411-0.247 1.925-0.631 0.52-0.389 0.741-0.831 0.741-1.203 0-0.867-0.887-1.833-2.333-1.833-0.688 0-1.351 0.253-1.873 0.541-0.301 0.169-0.56 0.346-0.802 0.544l0.010-0.008-0.004 0.004c-0.173 0.147-0.398 0.236-0.645 0.236-0.552 0-1-0.448-1-1 0-0.287 0.121-0.546 0.315-0.729l0-0v-0.003l0.004-0.001 0.007-0.007 0.020-0.017c0.090-0.078 0.188-0.157 0.289-0.23l0.012-0.008c0.197-0.147 0.479-0.337 0.827-0.529 0.683-0.379 1.687-0.792 2.84-0.792 2.235 0 4.333 1.571 4.333 3.833 0 1.193-0.693 2.168-1.545 2.805l-0.039 0.028 0.040 0.028c0.852 0.637 1.544 1.613 1.544 2.805 0 2.264-2.099 3.833-4.333 3.833-1.153 0-2.157-0.413-2.84-0.792-0.428-0.239-0.797-0.494-1.14-0.778l0.012 0.010-0.020-0.017-0.007-0.007-0.003-0.001-0.003-0.003c-0.206-0.184-0.335-0.45-0.335-0.747 0-0.552 0.448-1 1-1 0.256 0 0.489 0.096 0.666 0.254l-0.001-0.001 0.004 0.004 0.027 0.021c0.045 0.037 0.099 0.079 0.153 0.119l0.011 0.008c0.139 0.105 0.347 0.247 0.601 0.387 0.523 0.289 1.187 0.543 1.873 0.543 1.447 0 2.333-0.967 2.333-1.833 0-0.373-0.22-0.813-0.741-1.203-0.533-0.391-1.201-0.627-1.924-0.631h-0.001c-0.552 0-1-0.448-1-1v0z"></path>
</svg>
