<!-- Generated by IcoMoon.io -->
<svg version="1.1" xmlns="http://www.w3.org/2000/svg" width="32" height="32" viewBox="0 0 32 32">
<title>time-picker</title>
<path d="M16.631 2.891c-0.171-0.139-0.391-0.224-0.631-0.224s-0.46 0.084-0.632 0.225l0.002-0.001-5.333 4.333c-0.23 0.185-0.376 0.466-0.376 0.782 0 0.552 0.448 1 1 1 0.243 0 0.466-0.087 0.639-0.231l-0.002 0.001 4.703-3.821 4.703 3.821c0.172 0.143 0.395 0.23 0.638 0.23 0.552 0 1-0.448 1-1 0-0.316-0.146-0.597-0.374-0.78l-0.002-0.002-5.333-4.333zM3.667 12c-1.657 0-3 1.343-3 3v0 2c0 1.657 1.343 3 3 3s3-1.343 3-3v0-2c0-1.657-1.343-3-3-3v0zM2.667 15c0-0.552 0.448-1 1-1s1 0.448 1 1v0 2c0 0.552-0.448 1-1 1s-1-0.448-1-1v0-2zM11 12c-1.657 0-3 1.343-3 3v0 2c0 1.657 1.343 3 3 3s3-1.343 3-3v0-2c0-1.657-1.343-3-3-3v0zM10 15c0-0.552 0.448-1 1-1s1 0.448 1 1v0 2c0 0.552-0.448 1-1 1s-1-0.448-1-1v0-2zM18.667 15c0-1.657 1.343-3 3-3s3 1.343 3 3v0 2c0 1.657-1.343 3-3 3s-3-1.343-3-3v0-2zM21.667 14c-0.552 0-1 0.448-1 1v0 2c0 0.552 0.448 1 1 1s1-0.448 1-1v0-2c0-0.552-0.448-1-1-1v0zM29 12c-1.657 0-3 1.343-3 3v0 2c0 1.657 1.343 3 3 3s3-1.343 3-3v0-2c0-1.657-1.343-3-3-3v0zM28 15c0-0.552 0.448-1 1-1s1 0.448 1 1v0 2c0 0.552-0.448 1-1 1s-1-0.448-1-1v0-2zM17.333 14.333c0 0.552-0.448 1-1 1s-1-0.448-1-1v0c0-0.552 0.448-1 1-1s1 0.448 1 1v0zM16.333 19.333c0.552 0 1-0.448 1-1s-0.448-1-1-1v0c-0.552 0-1 0.448-1 1s0.448 1 1 1v0zM16.631 29.109l5.333-4.333c0.23-0.185 0.376-0.466 0.376-0.782 0-0.552-0.448-1-1-1-0.243 0-0.466 0.087-0.639 0.231l0.002-0.001-4.703 3.821-4.703-3.821c-0.169-0.136-0.387-0.218-0.624-0.218-0.552 0-1 0.448-1 1 0 0.309 0.14 0.585 0.361 0.769l0.002 0.001 5.333 4.333c0.171 0.139 0.391 0.224 0.631 0.224s0.46-0.084 0.632-0.225l-0.002 0.001z"></path>
</svg>
