<!-- Generated by IcoMoon.io -->
<svg version="1.1" xmlns="http://www.w3.org/2000/svg" width="32" height="32" viewBox="0 0 32 32">
<title>timer-off</title>
<path d="M4.373 2.96c-0.183-0.196-0.443-0.318-0.732-0.318-0.552 0-1 0.448-1 1 0 0.289 0.122 0.549 0.318 0.731l0.001 0.001 5.324 5.325c-2.226 2.075-3.614 5.024-3.614 8.298 0 6.259 5.074 11.333 11.333 11.333 3.273 0 6.223-1.388 8.291-3.607l0.006-0.007 3.324 3.325c0.181 0.181 0.431 0.293 0.707 0.293 0.552 0 1-0.448 1-1 0-0.276-0.112-0.526-0.293-0.707l-24.667-24.667zM22.885 24.3c-1.712 1.865-4.161 3.029-6.882 3.029-5.155 0-9.333-4.179-9.333-9.333 0-2.721 1.164-5.17 3.022-6.876l0.007-0.006 5.301 5.301v1.252l0.009 0.136c0.069 0.491 0.486 0.865 0.991 0.865 0.34 0 0.64-0.169 0.82-0.428l0.002-0.003 6.063 6.064zM15.249 11.007l1.751 1.751v-1.091l-0.009-0.136c-0.070-0.49-0.487-0.863-0.991-0.863-0.299 0-0.567 0.131-0.75 0.338l-0.001 0.001zM25.333 18c0 0.003 0 0.007 0 0.011 0 0.958-0.144 1.882-0.412 2.752l0.018-0.066 1.565 1.567c0.528-1.262 0.834-2.729 0.834-4.267 0-6.259-5.074-11.333-11.333-11.333-1.538 0-3.005 0.306-4.343 0.862l0.075-0.028 1.567 1.565c0.807-0.252 1.734-0.398 2.696-0.398 5.155 0 9.333 4.179 9.333 9.333 0 0.001 0 0.002 0 0.003v-0zM25.529 6.819l0.111 0.080 1.544 1.285c0.219 0.185 0.356 0.459 0.356 0.765 0 0.552-0.448 1-1 1-0.195 0-0.376-0.056-0.53-0.152l0.004 0.002-0.109-0.080-1.545-1.285c-0.219-0.185-0.356-0.459-0.356-0.765 0-0.552 0.448-1 1-1 0.195 0 0.376 0.056 0.53 0.152l-0.004-0.002zM19 3.333c0.552 0 1 0.448 1 1 0 0.504-0.373 0.921-0.858 0.99l-0.005 0.001-0.136 0.009h-6c-0.552-0-1-0.448-1-1 0-0.504 0.373-0.921 0.858-0.99l0.005-0.001 0.136-0.009h6z"></path>
</svg>
