<!-- Generated by IcoMoon.io -->
<svg version="1.1" xmlns="http://www.w3.org/2000/svg" width="32" height="32" viewBox="0 0 32 32">
<title>timeline</title>
<path d="M20.333 17.333c1.289 0 2.333 1.045 2.333 2.333v6c0 1.289-1.045 2.333-2.333 2.333h-15.333c-1.289 0-2.333-1.045-2.333-2.333v-6c0-1.289 1.045-2.333 2.333-2.333h15.333zM28 19.865l-0 7.135c0 0.552-0.448 1-1 1-0.506 0-0.925-0.376-0.991-0.864l-0.009-0.136-0.001-7.118c0.31 0.077 0.634 0.118 0.967 0.118 0.357 0 0.704-0.047 1.034-0.135zM20.333 19.333h-15.333c-0.184 0-0.333 0.149-0.333 0.333v6c0 0.184 0.149 0.333 0.333 0.333h15.333c0.184 0 0.333-0.149 0.333-0.333v-6c0-0.184-0.149-0.333-0.333-0.333zM26.999 13.456c1.405 0 2.544 1.139 2.544 2.544s-1.139 2.544-2.544 2.544c-1.405 0-2.544-1.139-2.544-2.544s1.139-2.544 2.544-2.544zM20.327 4c1.289 0 2.333 1.045 2.333 2.333v6c0 1.289-1.045 2.333-2.333 2.333h-15.333c-1.289 0-2.333-1.045-2.333-2.333v-6c0-1.224 0.943-2.228 2.142-2.326l0.191-0.008h15.333zM20.327 6l-15.41 0.009c-0.147 0.035-0.257 0.167-0.257 0.325v6c0 0.184 0.149 0.333 0.333 0.333h15.333c0.184 0 0.333-0.149 0.333-0.333v-6c0-0.184-0.149-0.333-0.333-0.333zM26.999 4c0.506 0 0.925 0.376 0.991 0.864l0.009 0.136 0 7.135c-0.33-0.088-0.676-0.135-1.034-0.135-0.333 0-0.657 0.041-0.967 0.118l0.001-7.118c0-0.552 0.448-1 1-1z"></path>
</svg>
