<!-- Generated by IcoMoon.io -->
<svg version="1.1" xmlns="http://www.w3.org/2000/svg" width="32" height="32" viewBox="0 0 32 32">
<title>toggle-right</title>
<path d="M25.667 16c0-1.841-1.492-3.333-3.333-3.333s-3.333 1.492-3.333 3.333v0c0 1.841 1.492 3.333 3.333 3.333s3.333-1.492 3.333-3.333v0zM29.333 16c0-3.682-2.985-6.667-6.667-6.667h-13.333c-3.682 0-6.667 2.985-6.667 6.667s2.985 6.667 6.667 6.667h13.333c3.682 0 6.667-2.985 6.667-6.667zM22.667 11c2.761 0 5 2.239 5 5s-2.239 5-5 5v0h-13.333c-2.761 0-5-2.239-5-5s2.239-5 5-5v0h13.333z"></path>
</svg>
