<!-- Generated by IcoMoon.io -->
<svg version="1.1" xmlns="http://www.w3.org/2000/svg" width="32" height="32" viewBox="0 0 32 32">
<title>toggle-multiple-regular</title>
<path d="M8.667 11.333c1.473 0 2.667-1.194 2.667-2.667s-1.194-2.667-2.667-2.667v0c-1.473 0-2.667 1.194-2.667 2.667s1.194 2.667 2.667 2.667v0zM8.667 2.667h14.667c3.314 0 6 2.686 6 6s-2.686 6-6 6v0h-14.667c-3.314 0-6-2.686-6-6s2.686-6 6-6v0zM23.333 4.667h-14.667c-2.209 0-4 1.791-4 4s1.791 4 4 4v0h14.667c2.209 0 4-1.791 4-4s-1.791-4-4-4v0zM23.333 26c1.473 0 2.667-1.194 2.667-2.667s-1.194-2.667-2.667-2.667v0c-1.473 0-2.667 1.194-2.667 2.667s1.194 2.667 2.667 2.667v0zM2.667 23.333c0-3.314 2.686-6 6-6v0h14.667c3.314 0 6 2.686 6 6s-2.686 6-6 6v0h-14.667c-3.314 0-6-2.686-6-6v0zM8.667 19.333c-2.209 0-4 1.791-4 4s1.791 4 4 4v0h14.667c2.209 0 4-1.791 4-4s-1.791-4-4-4v0h-14.667z"></path>
</svg>
