<!-- Generated by IcoMoon.io -->
<svg version="1.1" xmlns="http://www.w3.org/2000/svg" width="32" height="32" viewBox="0 0 32 32">
<title>toggle-right</title>
<path d="M22.333 19.333c1.841 0 3.333-1.492 3.333-3.333s-1.492-3.333-3.333-3.333c-1.841 0-3.333 1.492-3.333 3.333s1.492 3.333 3.333 3.333z"></path>
<path d="M2.667 16c0-3.682 2.985-6.667 6.667-6.667h13.333c3.682 0 6.667 2.985 6.667 6.667s-2.985 6.667-6.667 6.667h-13.333c-3.682 0-6.667-2.985-6.667-6.667zM9.333 11.333c-2.577 0-4.667 2.089-4.667 4.667s2.089 4.667 4.667 4.667h13.333c2.577 0 4.667-2.089 4.667-4.667s-2.089-4.667-4.667-4.667h-13.333z"></path>
</svg>
