<!-- Generated by IcoMoon.io -->
<svg version="1.1" xmlns="http://www.w3.org/2000/svg" width="32" height="32" viewBox="0 0 32 32">
<title>toolbox</title>
<path d="M9.333 8.337v0.996h-3.667c-1.657 0-3 1.343-3 3v11.329c0 1.657 1.343 3 3 3h20.667c1.657 0 3-1.343 3-3v-11.329c0-1.657-1.343-3-3-3h-3.667v-0.996c0-1.657-1.343-3-3-3h-7.333c-1.657 0-3 1.343-3 3zM12.333 7.337h7.333c0.552 0 1 0.448 1 1v0.996h-9.333v-0.996c0-0.552 0.448-1 1-1zM9.333 11.337h2v-0.004h15c0.552 0 1 0.448 1 1v3h-4v-1c0-0.552-0.448-1-1-1s-1 0.448-1 1v1h-10.667v-1c0-0.552-0.448-1-1-1s-1 0.448-1 1v1h-4v-3c0-0.552 0.448-1 1-1l3.667 0.004zM21.333 17.333v1.667c0 0.552 0.448 1 1 1s1-0.448 1-1v-1.667h4v6.329c0 0.552-0.448 1-1 1h-20.667c-0.552 0-1-0.448-1-1v-6.329h4v1.667c0 0.552 0.448 1 1 1s1-0.448 1-1v-1.667h10.667z"></path>
</svg>
