<!-- Generated by IcoMoon.io -->
<svg version="1.1" xmlns="http://www.w3.org/2000/svg" width="32" height="32" viewBox="0 0 32 32">
<title>tooltip-quote-regular</title>
<path d="M8.333 7.333c-0.552 0-1 0.448-1 1v0 1.333c0 0 0 0 0 0 0 0.552 0.448 1 1 1 0.19 0 0.367-0.053 0.518-0.144l-0.004 0.002c-0.318 0.683-0.727 1.268-1.221 1.769l0.001-0.001c-0.196 0.183-0.318 0.443-0.318 0.732 0 0.552 0.448 1 1 1 0.289 0 0.549-0.122 0.731-0.318l0.001-0.001c0.576-0.573 2.293-2.505 2.293-5.373 0-0.552-0.448-1-1-1v0h-2zM13.667 7.333c-0.552 0-1 0.448-1 1v0 1.333c0 0 0 0 0 0 0 0.552 0.448 1 1 1 0.19 0 0.367-0.053 0.518-0.144l-0.004 0.002c-0.318 0.683-0.727 1.268-1.221 1.769l0.001-0.001c-0.196 0.183-0.318 0.443-0.318 0.732 0 0.552 0.448 1 1 1 0.289 0 0.549-0.122 0.731-0.318l0.001-0.001c0.576-0.575 2.293-2.505 2.293-5.373 0-0.552-0.448-1-1-1v0h-2zM2.667 5.667c0-1.657 1.343-3 3-3v0h12c1.657 0 3 1.343 3 3v0 10c0 1.657-1.343 3-3 3v0h-2.589l-2.525 4.8c-0.171 0.321-0.503 0.535-0.885 0.535s-0.714-0.214-0.883-0.53l-0.003-0.005-2.525-4.8h-2.589c-1.657 0-3-1.343-3-3v0-10zM5.667 4.667c-0.552 0-1 0.448-1 1v0 10c0 0.552 0.448 1 1 1h3.193c0.381 0 0.713 0.214 0.881 0.528l0.003 0.005 1.923 3.653 1.921-3.653c0.171-0.32 0.503-0.533 0.884-0.533 0 0 0.001 0 0.001 0h3.193c0.552 0 1-0.448 1-1v0-10c0-0.552-0.448-1-1-1v0h-12zM8.504 22h-4.837c-0.552 0-1 0.448-1 1s0.448 1 1 1v0h5.889l-1.053-2zM13.777 24h14.556c0.552 0 1-0.448 1-1s-0.448-1-1-1v0h-13.504l-1.053 2zM3.667 27.333c-0.552 0-1 0.448-1 1s0.448 1 1 1v0h16c0.552 0 1-0.448 1-1s-0.448-1-1-1v0h-16z"></path>
</svg>
