<!-- Generated by IcoMoon.io -->
<svg version="1.1" xmlns="http://www.w3.org/2000/svg" width="32" height="32" viewBox="0 0 32 32">
<title>toolbox-regular</title>
<path d="M9.143 7.139v1.998h-4.288c-1.42 0-2.571 1.151-2.571 2.571v0 13.143c0 1.42 1.151 2.571 2.571 2.571v0h22.29c1.42 0 2.571-1.151 2.571-2.571v0-13.143c0-1.42-1.151-2.571-2.571-2.571v0h-4.286v-1.998c0-1.42-1.151-2.571-2.571-2.571v0h-8.574c-1.42 0-2.571 1.151-2.571 2.571v0zM11.714 6.282h8.574c0.473 0 0.857 0.384 0.857 0.857v0 1.998h-10.288v-1.998c0-0.473 0.384-0.857 0.857-0.857v0zM4.855 10.851h22.29c0.473 0 0.857 0.384 0.857 0.857v0 4.291h-4.569v-1.429c0-0.473-0.384-0.857-0.857-0.857s-0.857 0.384-0.857 0.857v0 1.429h-11.429v-1.429c0-0.473-0.384-0.857-0.857-0.857s-0.857 0.384-0.857 0.857v0 1.429h-4.578v-4.291c0-0.473 0.384-0.857 0.857-0.857v0zM21.719 17.714v1.429c0 0.473 0.384 0.857 0.857 0.857s0.857-0.384 0.857-0.857v0-1.429h4.569v7.137c0 0.473-0.384 0.857-0.857 0.857v0h-22.29c-0.473 0-0.857-0.384-0.857-0.857v0-7.137h4.578v1.429c0 0.473 0.384 0.857 0.857 0.857s0.857-0.384 0.857-0.857v0-1.429h11.429z"></path>
</svg>
