<!-- Generated by IcoMoon.io -->
<svg version="1.1" xmlns="http://www.w3.org/2000/svg" width="32" height="32" viewBox="0 0 32 32">
<title>top-speed-regular</title>
<path d="M8.724 7.311c1.703-1.437 3.862-2.384 6.233-2.597l0.043-0.003v2.289c0 0.552 0.448 1 1 1s1-0.448 1-1v0-2.289c5.584 0.511 9.971 5.004 10.312 10.591l0.002 0.032h-2.313c-0.552 0-1 0.448-1 1s0.448 1 1 1v0h2.259c-0.347 3.083-1.897 5.664-4.224 7.557-0.226 0.185-0.369 0.464-0.369 0.776 0 0.553 0.448 1.001 1.001 1.001 0.241 0 0.461-0.085 0.634-0.226l-0.002 0.001c2.968-2.417 4.893-5.859 5.027-9.98 0.005-0.039 0.008-0.084 0.008-0.13 0-0.027-0.001-0.055-0.003-0.082l0 0.004 0.003-0.255c0-7.364-5.969-13.333-13.333-13.333s-13.333 5.969-13.333 13.333c0 4.336 2.031 7.939 5.027 10.435 0.169 0.135 0.386 0.217 0.622 0.217 0.552 0 1-0.448 1-1 0-0.3-0.132-0.568-0.34-0.752l-0.001-0.001c-2.28-1.901-3.871-4.489-4.229-7.565h2.256c0.552 0 1-0.448 1-1s-0.448-1-1-1v0h-2.315c0.147-2.509 1.108-4.8 2.625-6.609l1.649 1.649c0.178 0.166 0.418 0.268 0.682 0.268 0.552 0 1-0.448 1-1 0-0.264-0.102-0.504-0.269-0.682l0.001 0.001-1.649-1.649zM22.347 8.845c-0.144-0.112-0.327-0.179-0.526-0.179-0.21 0-0.402 0.075-0.552 0.2l0.001-0.001-0.291 0.244c-1.811 1.512-2.832 2.379-3.848 3.251l0.714-0.597c-0.875 0.747-1.769 1.52-2.484 2.151-0.359 0.316-0.658 0.586-0.954 0.859l0.036-0.033c-0.199 0.179-0.382 0.363-0.554 0.558l-0.006 0.007c-0.341 0.418-0.548 0.957-0.548 1.544 0 0.792 0.376 1.496 0.958 1.943l0.006 0.004c0.431 0.335 0.979 0.537 1.575 0.537 0.802 0 1.518-0.366 1.991-0.94l0.004-0.004c0.117-0.144 0.273-0.395 0.433-0.663 0.171-0.287 0.38-0.653 0.612-1.064 0.463-0.827 1.024-1.856 1.567-2.86-0.652 1.407-0.013 0.23 0.62-0.95l1.298-2.646 0.175-0.332c0.059-0.11 0.094-0.241 0.094-0.38 0-0.264-0.125-0.498-0.319-0.648l-0.002-0.001z"></path>
</svg>
