<!-- Generated by IcoMoon.io -->
<svg version="1.1" xmlns="http://www.w3.org/2000/svg" width="32" height="32" viewBox="0 0 32 32">
<title>translate-regular</title>
<path d="M22.615 7.983c0.028-0.087 0.044-0.188 0.044-0.292 0-0.552-0.448-1-1-1-0.431 0-0.798 0.272-0.939 0.655l-0.002 0.007c-0.159 0.462-0.352 1.136-0.519 1.82l-0.041 0.196c-0.981 0.035-1.928 0.024-2.756-0.032-0.028-0.003-0.061-0.004-0.094-0.004-0.552 0-1 0.448-1 1 0 0.538 0.424 0.976 0.956 0.999l0.002 0c0.751 0.052 1.587 0.067 2.459 0.051-0.15 0.729-0.291 1.668-0.389 2.621l-0.011 0.131c-1.62 0.856-2.748 2.005-3.385 3.216-0.817 1.555-0.88 3.408 0.275 4.591 0.761 0.779 1.877 0.853 2.839 0.647 0.625-0.144 1.177-0.361 1.684-0.648l-0.031 0.016 0.024 0.061c0.152 0.371 0.51 0.627 0.928 0.627 0.552 0 1-0.448 1-1 0-0.117-0.020-0.229-0.057-0.333l0.002 0.007c-0.102-0.277-0.178-0.463-0.259-0.648l0.032 0.083c1.51-1.402 2.591-3.248 3.035-5.329l0.012-0.067c0.851 0.416 1.427 1.115 1.704 1.867 0.131 0.342 0.207 0.737 0.207 1.151 0 0.529-0.124 1.028-0.345 1.471l0.009-0.019c-0.411 0.848-1.244 1.687-2.687 2.241-0.386 0.144-0.656 0.51-0.656 0.939 0 0.552 0.448 1 1 1 0.135 0 0.263-0.027 0.38-0.075l-0.007 0.002c1.849-0.711 3.107-1.869 3.769-3.236 0.338-0.679 0.536-1.479 0.536-2.325 0-0.662-0.121-1.296-0.343-1.881l0.012 0.036c-0.578-1.528-1.788-2.703-3.302-3.221l-0.038-0.011c0.003-0.097 0.004-0.196 0.004-0.296 0-0.005 0-0.011 0-0.017 0-0.552-0.448-1-1-1-0.546 0-0.99 0.438-1 0.982v0.001c-0.004 0-0.009 0-0.015 0-0.789 0-1.551 0.115-2.271 0.33l0.056-0.014c0.085-0.607 0.197-1.271 0.343-2 1.58-0.119 3.152-0.336 4.449-0.64 0.443-0.109 0.765-0.503 0.765-0.972 0-0.552-0.448-1-1-1-0.079 0-0.157 0.009-0.231 0.027l0.007-0.001c-1.023 0.24-2.253 0.423-3.516 0.54 0.113-0.44 0.24-0.893 0.36-1.253zM17.708 18.28c0.303-0.573 0.8-1.181 1.529-1.733 0.023 0.656 0.087 1.235 0.183 1.756 0.125 0.693 0.315 1.299 0.515 1.831-0.375 0.217-0.811 0.389-1.271 0.493l-0.031 0.006c-0.647 0.139-0.916-0.016-0.989-0.091-0.32-0.327-0.525-1.137 0.067-2.261zM23.461 14.964c-0.334 1.467-0.992 2.747-1.896 3.81l0.010-0.013c-0.064-0.21-0.13-0.485-0.181-0.765l-0.008-0.051c-0.103-0.578-0.162-1.243-0.162-1.922 0-0.199 0.005-0.397 0.015-0.593l-0.001 0.028c0.084-0.036 0.234-0.090 0.386-0.141l0.066-0.019c0.524-0.185 1.129-0.305 1.757-0.333l0.013-0zM10.613 8.707c-0.686-0.21-1.474-0.331-2.291-0.331-1.395 0-2.708 0.353-3.853 0.975l0.043-0.021c-0.317 0.172-0.528 0.502-0.528 0.882 0 0.552 0.448 1 1 1 0.182 0 0.353-0.049 0.5-0.134l-0.005 0.003c0.824-0.444 1.804-0.704 2.844-0.704 0.617 0 1.213 0.092 1.774 0.262l-0.043-0.011c1.031 0.303 1.464 0.853 1.685 1.408 0.177 0.443 0.233 0.921 0.251 1.389-0.315-0.094-0.73-0.191-1.151-0.268l-0.079-0.012c-1.509-0.269-3.576-0.351-5.496 0.569-2.115 1.013-2.84 3.088-2.536 4.929 0.299 1.808 1.621 3.555 3.733 3.935 1.907 0.344 3.74-0.341 5.009-1.015 0.243-0.127 0.416-0.225 0.587-0.327l-0.057 0.031v0.4c0 0.552 0.448 1 1 1s1-0.448 1-1v0-7.72c0-0.605 0-1.648-0.4-2.653-0.441-1.105-1.34-2.104-2.983-2.587h-0.001zM10.409 15.112c0.615 0.111 1.148 0.252 1.664 0.43l-0.078-0.023v3.341c-0.425 0.324-0.904 0.635-1.407 0.907l-0.058 0.029c-1.12 0.596-2.465 1.039-3.716 0.813-1.127-0.203-1.927-1.155-2.115-2.293-0.184-1.107 0.239-2.231 1.427-2.8 1.383-0.661 2.968-0.637 4.283-0.404z"></path>
</svg>
