<!-- Generated by IcoMoon.io -->
<svg version="1.1" xmlns="http://www.w3.org/2000/svg" width="32" height="32" viewBox="0 0 32 32">
<title>transmission</title>
<path d="M16 2.667c-2.025 0-3.667 1.642-3.667 3.667 0 1.678 1.128 3.093 2.667 3.529v5.138c0 0.552 0.448 1 1 1s1-0.448 1-1v-5.138c1.539-0.435 2.667-1.85 2.667-3.529 0-2.025-1.642-3.667-3.667-3.667zM14.333 6.333c0-0.92 0.746-1.667 1.667-1.667s1.667 0.746 1.667 1.667c0 0.92-0.746 1.667-1.667 1.667s-1.667-0.746-1.667-1.667zM4 8.667c0-1.841 1.492-3.333 3.333-3.333s3.333 1.492 3.333 3.333v4.667h3v2h-5v-6.667c0-0.736-0.597-1.333-1.333-1.333s-1.333 0.597-1.333 1.333v16c0 0.736 0.597 1.333 1.333 1.333s1.333-0.597 1.333-1.333v-6.667h6v6.667c0 0.736 0.597 1.333 1.333 1.333s1.333-0.597 1.333-1.333v-6.667h8c0.368 0 0.667-0.299 0.667-0.667v-8.667c0-0.736-0.597-1.333-1.333-1.333s-1.333 0.597-1.333 1.333v6.667h-5v-2h3v-4.667c0-1.841 1.492-3.333 3.333-3.333s3.333 1.492 3.333 3.333v8.667c0 1.473-1.194 2.667-2.667 2.667h-6v4.667c0 1.841-1.492 3.333-3.333 3.333s-3.333-1.492-3.333-3.333v-4.667h-2v4.667c0 1.841-1.492 3.333-3.333 3.333s-3.333-1.492-3.333-3.333v-16z"></path>
</svg>
