<!-- Generated by IcoMoon.io -->
<svg version="1.1" xmlns="http://www.w3.org/2000/svg" width="32" height="32" viewBox="0 0 32 32">
<title>tray-item-add</title>
<path d="M18.667 4.667v2.667h4.667v-2.667h-4.667zM16.667 4.333c0-0.92 0.746-1.667 1.667-1.667h5.333c0.921 0 1.667 0.746 1.667 1.667v3.333c0 0.92-0.746 1.667-1.667 1.667h-5.333c-0.921 0-1.667-0.746-1.667-1.667v-3.333zM21 11.333c0.552 0 1 0.448 1 1v8.919l1.626-1.626c0.391-0.391 1.024-0.391 1.414 0s0.391 1.024 0 1.414l-3.333 3.333c-0.391 0.391-1.024 0.391-1.414 0l-3.333-3.333c-0.391-0.391-0.391-1.024 0-1.414s1.024-0.391 1.414 0l1.626 1.626v-8.919c0-0.552 0.448-1 1-1zM8.667 20v2.667h4.667v-2.667h-4.667zM6.667 19.667c0-0.921 0.746-1.667 1.667-1.667h5.333c0.921 0 1.667 0.746 1.667 1.667v3.333c0 0.921-0.746 1.667-1.667 1.667h-5.333c-0.92 0-1.667-0.746-1.667-1.667v-3.333zM3.667 21.333c0.552 0 1 0.448 1 1v2.667c0 0.921 0.746 1.667 1.667 1.667h19.333c0.921 0 1.667-0.746 1.667-1.667v-2.667c0-0.552 0.448-1 1-1s1 0.448 1 1v2.667c0 2.025-1.642 3.667-3.667 3.667h-19.333c-2.025 0-3.667-1.642-3.667-3.667v-2.667c0-0.552 0.448-1 1-1z"></path>
</svg>
