<!-- Generated by IcoMoon.io -->
<svg version="1.1" xmlns="http://www.w3.org/2000/svg" width="32" height="32" viewBox="0 0 32 32">
<title>tree-evergreen</title>
<path d="M16.992 3.539c-0.27-0.214-0.615-0.343-0.99-0.343s-0.721 0.129-0.994 0.346l0.003-0.003-5.293 4.176c-1.288 1.016-1.131 2.789-0.093 3.702l-2.342 1.93c-1.541 1.272-0.917 3.635 0.816 4.152l-2.538 2.378c-1.578 1.477-0.531 4.123 1.63 4.123h5.608v2.8c0 1.104 0.896 2 2 2h2.4c1.104 0 2-0.896 2-2v-2.8h5.606c2.162 0 3.208-2.648 1.629-4.125l-2.539-2.374c1.738-0.514 2.365-2.88 0.821-4.152l-2.339-1.93c1.038-0.914 1.195-2.688-0.091-3.704l-5.294-4.176zM17.6 24v2.8c0 0.221-0.179 0.4-0.4 0.4v0h-2.4c-0.221 0-0.4-0.179-0.4-0.4v0-2.8h3.2zM16.002 4.795l5.293 4.176c0.187 0.148 0.306 0.375 0.306 0.629 0 0.432-0.342 0.784-0.77 0.799l-0.001 0c-0.431 0.014-0.775 0.367-0.775 0.8 0 0.247 0.112 0.469 0.289 0.615l0.001 0.001 3.355 2.768c0.177 0.148 0.29 0.369 0.29 0.616 0 0.441-0.357 0.799-0.798 0.8h-1.213c-0 0-0 0-0 0-0.442 0-0.8 0.358-0.8 0.8 0 0.23 0.097 0.438 0.253 0.584l0 0 3.91 3.659c0.153 0.143 0.249 0.347 0.249 0.573 0 0.433-0.351 0.783-0.783 0.784h-17.614c-0 0-0 0-0.001 0-0.433 0-0.784-0.351-0.784-0.784 0-0.226 0.095-0.429 0.248-0.572l0-0 3.904-3.659c0.156-0.146 0.253-0.354 0.253-0.584 0-0.441-0.357-0.798-0.797-0.8h-1.207c-0 0-0 0-0 0-0.442 0-0.8-0.358-0.8-0.8 0-0.248 0.113-0.47 0.29-0.617l0.001-0.001 3.357-2.766c0.178-0.148 0.29-0.369 0.29-0.616 0-0.432-0.343-0.785-0.772-0.8l-0.001-0c-0.429-0.016-0.772-0.368-0.772-0.8 0-0.255 0.119-0.482 0.304-0.628l0.002-0.001 5.293-4.176z"></path>
</svg>
