<!-- Generated by IcoMoon.io -->
<svg version="1.1" xmlns="http://www.w3.org/2000/svg" width="32" height="32" viewBox="0 0 32 32">
<title>triangle-down</title>
<path d="M14.827 26.377c0.435 0.825 1.615 0.832 2.059 0.011l10.636-19.669c0.088-0.16 0.14-0.351 0.14-0.555 0-0.644-0.522-1.167-1.167-1.167-0 0-0 0-0 0h-20.991c-0 0-0 0-0 0-0.644 0-1.167 0.522-1.167 1.167 0 0.199 0.050 0.386 0.137 0.55l-0.003-0.006 10.356 19.668zM18.352 27.181c-1.078 1.993-3.943 1.977-4.999-0.027l-10.356-19.668c-0.993-1.887 0.375-4.153 2.507-4.153h20.992c2.147 0 3.513 2.293 2.493 4.181l-10.636 19.667z"></path>
</svg>
