<!-- Generated by IcoMoon.io -->
<svg version="1.1" xmlns="http://www.w3.org/2000/svg" width="32" height="32" viewBox="0 0 32 32">
<title>triangle-left</title>
<path d="M5.622 14.827c-0.826 0.435-0.833 1.615-0.011 2.059l19.667 10.636c0.16 0.089 0.352 0.141 0.555 0.141 0.644 0 1.167-0.522 1.167-1.167 0-0 0-0 0-0.001v0-20.991c0-0 0-0 0-0.001 0-0.644-0.522-1.167-1.167-1.167-0.199 0-0.386 0.050-0.55 0.138l0.006-0.003-19.667 10.356zM4.817 18.352c-1.993-1.078-1.977-3.943 0.028-4.999l19.668-10.356c1.887-0.993 4.153 0.375 4.153 2.507v20.992c0 2.147-2.293 3.513-4.181 2.493l-19.668-10.636z"></path>
</svg>
