<!-- Generated by IcoMoon.io -->
<svg version="1.1" xmlns="http://www.w3.org/2000/svg" width="32" height="32" viewBox="0 0 32 32">
<title>tv-arrow-right-regular</title>
<path d="M30.4 8.8c0 3.976-3.224 7.2-7.2 7.2s-7.2-3.224-7.2-7.2v0c0-3.976 3.224-7.2 7.2-7.2s7.2 3.224 7.2 7.2v0zM26.965 9.366l0.005-0.005c0.141-0.143 0.229-0.34 0.23-0.557v-0.010c-0.001-0.219-0.090-0.416-0.234-0.56l-3.2-3.2c-0.145-0.145-0.345-0.235-0.566-0.235-0.442 0-0.8 0.358-0.8 0.8 0 0.221 0.089 0.421 0.234 0.566v0l1.835 1.834h-4.469c-0.442 0-0.8 0.358-0.8 0.8s0.358 0.8 0.8 0.8v0h4.469l-1.835 1.834c-0.145 0.145-0.235 0.345-0.235 0.566 0 0.442 0.359 0.801 0.801 0.801 0.221 0 0.421-0.090 0.566-0.235v0l3.2-3.2zM27.2 20.8v-4.16c0.609-0.314 1.133-0.663 1.614-1.063l-0.015 0.012v5.211c0 1.767-1.433 3.2-3.2 3.2v0h-19.2c-1.767 0-3.2-1.433-3.2-3.2v0-11.2c0-1.767 1.433-3.2 3.2-3.2v0h8.331c-0.137 0.462-0.241 1.006-0.293 1.565l-0.003 0.035h-8.035c-0.884 0-1.6 0.716-1.6 1.6v0 11.2c0 0.884 0.716 1.6 1.6 1.6v0h19.2c0.884 0 1.6-0.716 1.6-1.6v0zM8 26.4c0-0.442 0.358-0.8 0.8-0.8v0h14.4c0.442 0 0.8 0.358 0.8 0.8s-0.358 0.8-0.8 0.8v0h-14.4c-0.442 0-0.8-0.358-0.8-0.8v0z"></path>
</svg>
