<!-- Generated by IcoMoon.io -->
<svg version="1.1" xmlns="http://www.w3.org/2000/svg" width="32" height="32" viewBox="0 0 32 32">
<title>tv-usb</title>
<path d="M6.333 4c-2.025 0-3.667 1.642-3.667 3.667v11.333c0 2.025 1.642 3.667 3.667 3.667h13v-2h-13c-0.92 0-1.667-0.746-1.667-1.667v-11.333c0-0.92 0.746-1.667 1.667-1.667h19.333c0.921 0 1.667 0.746 1.667 1.667v3.667h0.667c0.474 0 0.925 0.099 1.333 0.277v-3.944c0-2.025-1.642-3.667-3.667-3.667h-19.333zM7.667 24.667h12.001c0.061 0.127 0.131 0.249 0.209 0.368l1.067 1.632h-13.277c-0.552 0-1-0.448-1-1s0.448-1 1-1zM23.333 26.667l-1.783-2.726c-0.142-0.217-0.217-0.47-0.217-0.73v-4.544c0-0.736 0.597-1.333 1.333-1.333v-2.667c0-0.736 0.597-1.333 1.333-1.333h4c0.736 0 1.333 0.597 1.333 1.333v2.667c0.736 0 1.333 0.597 1.333 1.333v4.588c0 0.263-0.077 0.519-0.223 0.738l-1.777 2.675v2.667c0 0.736-0.597 1.333-1.333 1.333h-2.667c-0.736 0-1.333-0.597-1.333-1.333v-2.667zM27.333 15.333h-2.667v2h2.667v-2z"></path>
</svg>
