<!-- Generated by IcoMoon.io -->
<svg version="1.1" xmlns="http://www.w3.org/2000/svg" width="32" height="32" viewBox="0 0 32 32">
<title>tv</title>
<path d="M6.333 5.333c-2.025 0-3.667 1.642-3.667 3.667v11.333c0 2.025 1.642 3.667 3.667 3.667h19.333c2.025 0 3.667-1.642 3.667-3.667v-11.333c0-2.025-1.642-3.667-3.667-3.667h-19.333zM4.667 9c0-0.92 0.746-1.667 1.667-1.667h19.333c0.921 0 1.667 0.746 1.667 1.667v11.333c0 0.921-0.746 1.667-1.667 1.667h-19.333c-0.92 0-1.667-0.746-1.667-1.667v-11.333z"></path>
<path d="M7.667 26c-0.552 0-1 0.448-1 1s0.448 1 1 1h16.667c0.552 0 1-0.448 1-1s-0.448-1-1-1h-16.667z"></path>
</svg>
