<!-- Generated by IcoMoon.io -->
<svg version="1.1" xmlns="http://www.w3.org/2000/svg" width="32" height="32" viewBox="0 0 32 32">
<title>umbrella</title>
<path d="M13.664 14.55c0.63-0.532 1.435-0.979 2.336-0.979s1.706 0.447 2.336 0.979c0.307 0.259 0.551 0.521 0.717 0.717 0.082 0.097 0.144 0.177 0.183 0.229l0.049 0.067c0.186 0.274 0.495 0.437 0.827 0.437s0.642-0.165 0.828-0.439c0.039-0.052 0.149-0.197 0.231-0.295 0.166-0.196 0.409-0.457 0.717-0.717 0.63-0.532 1.435-0.979 2.336-0.979s1.706 0.447 2.336 0.979c0.307 0.259 0.551 0.521 0.717 0.717l0.231 0.295c0.247 0.363 0.701 0.524 1.121 0.395s0.707-0.517 0.707-0.956c0-6.234-5.396-12.333-13.333-12.333s-13.333 6.1-13.333 12.333c0 0.439 0.287 0.827 0.707 0.956s0.874-0.031 1.121-0.395l0.231-0.295c0.166-0.196 0.409-0.457 0.717-0.717 0.63-0.532 1.435-0.979 2.336-0.979s1.706 0.447 2.336 0.979c0.307 0.259 0.551 0.521 0.717 0.717 0.082 0.097 0.192 0.242 0.231 0.295 0.186 0.274 0.497 0.439 0.828 0.439s0.641-0.163 0.827-0.437l0.049-0.067c0.039-0.052 0.101-0.132 0.183-0.229 0.166-0.196 0.409-0.457 0.717-0.717zM5.057 12.37c1.227-4.123 5.267-7.703 10.943-7.703s9.715 3.58 10.943 7.703c-0.734-0.443-1.654-0.799-2.721-0.799-1.566 0-2.817 0.767-3.626 1.45-0.179 0.151-0.341 0.302-0.486 0.446-0.144-0.144-0.306-0.295-0.486-0.446-0.809-0.683-2.059-1.45-3.625-1.45s-2.817 0.767-3.626 1.45c-0.179 0.151-0.341 0.302-0.486 0.446-0.144-0.144-0.306-0.295-0.486-0.446-0.809-0.683-2.059-1.45-3.626-1.45-1.066 0-1.987 0.356-2.721 0.799zM16 14.905c-0.315 0-0.653 0.11-1 0.32v10.109c0 1.105-0.895 2-2 2s-2-0.895-2-2v-0.333c0-0.552-0.448-1-1-1s-1 0.448-1 1v0.333c0 2.209 1.791 4 4 4s4-1.791 4-4v-10.109c-0.347-0.209-0.685-0.32-1-0.32z"></path>
</svg>
