<!-- Generated by IcoMoon.io -->
<svg version="1.1" xmlns="http://www.w3.org/2000/svg" width="32" height="32" viewBox="0 0 32 32">
<title>uninstall-app</title>
<path d="M28.926 20.196l0.112 0.097c0.355 0.355 0.387 0.911 0.097 1.302l-0.097 0.112-2.96 2.958 2.96 2.959c0.355 0.355 0.387 0.911 0.097 1.302l-0.097 0.112c-0.355 0.355-0.911 0.387-1.302 0.097l-0.112-0.097-2.959-2.96-2.958 2.96c-0.355 0.355-0.911 0.387-1.302 0.097l-0.112-0.097c-0.355-0.355-0.387-0.911-0.097-1.302l0.097-0.112 2.958-2.959-2.958-2.958c-0.355-0.355-0.387-0.911-0.097-1.302l0.097-0.112c0.355-0.355 0.911-0.387 1.302-0.097l0.112 0.097 2.958 2.958 2.959-2.958c0.355-0.355 0.911-0.387 1.302-0.097zM25 4c1.657 0 3 1.343 3 3v7c0 1.657-1.343 3-3 3h-8v8c0 1.657-1.343 3-3 3h-7c-1.657 0-3-1.343-3-3v-18c0-1.657 1.343-3 3-3h18zM15 16.999h-9v8.001c0 0.552 0.448 1 1 1h7c0.552 0 1-0.448 1-1v-8.001zM25 6h-8v9h8c0.552 0 1-0.448 1-1v-7c0-0.552-0.448-1-1-1zM15 6h-8c-0.552 0-1 0.448-1 1v7.999l9 0.001v-9z"></path>
</svg>
