<!-- Generated by IcoMoon.io -->
<svg version="1.1" xmlns="http://www.w3.org/2000/svg" width="32" height="32" viewBox="0 0 32 32">
<title>usb-stick-regular</title>
<path d="M20.356 2.663c0.504 0 0.921 0.373 0.99 0.859l0.001 0.005 0.009 0.136v5.848c1.094 0.404 1.879 1.397 1.973 2.584l0.001 0.010 0.009 0.227v14c0 0 0 0.001 0 0.002 0 1.585-1.229 2.882-2.785 2.992l-0.010 0.001-0.205 0.007h-8.667c-0 0-0 0-0 0-1.585 0-2.882-1.229-2.992-2.785l-0.001-0.010-0.007-0.205v-14c0-0 0-0.001 0-0.002 0-1.305 0.833-2.415 1.996-2.828l0.021-0.007v-5.835c0-0.504 0.373-0.921 0.859-0.99l0.005-0.001 0.135-0.009h8.668zM20.339 11.333h-8.667c-0.504 0-0.921 0.373-0.99 0.859l-0.001 0.005-0.009 0.136v14c0 0.507 0.376 0.924 0.864 0.991l0.136 0.009h8.667c0.504-0 0.921-0.373 0.99-0.859l0.001-0.005 0.009-0.136v-14c-0-0.504-0.373-0.921-0.859-0.99l-0.005-0.001-0.136-0.009zM19.356 4.663h-6.668v4.669h6.668v-4.669z"></path>
</svg>
