<!-- Generated by IcoMoon.io -->
<svg version="1.1" xmlns="http://www.w3.org/2000/svg" width="32" height="32" viewBox="0 0 32 32">
<title>vehicle-car-collision</title>
<path d="M15.345 2.72c0.405-0.138 0.854-0.002 1.115 0.337l2.773 3.605 3.894-2.503c0.357-0.229 0.819-0.209 1.154 0.052s0.469 0.703 0.335 1.106l-1.561 4.684h5.279c0.404 0 0.769 0.244 0.924 0.617s0.069 0.804-0.217 1.090l-2.734 2.734 2.841 3.977c0.218 0.305 0.247 0.706 0.075 1.039s-0.515 0.542-0.889 0.542h-4c-0.552 0-1-0.448-1-1s0.448-1 1-1h2.057l-2.204-3.085c-0.284-0.398-0.239-0.943 0.107-1.288l1.626-1.626h-4.252c-0.321 0-0.623-0.155-0.811-0.415s-0.239-0.596-0.137-0.901l1.103-3.308-2.28 1.466c-0.437 0.281-1.017 0.18-1.333-0.231l-1.541-2.003v3.060c0 0.552-0.448 1-1 1s-1-0.448-1-1v-6c0-0.428 0.273-0.809 0.678-0.947zM16 23.333c0.736 0 1.333-0.597 1.333-1.333s-0.597-1.333-1.333-1.333c-0.736 0-1.333 0.597-1.333 1.333s0.597 1.333 1.333 1.333zM9.333 22c0 0.736-0.597 1.333-1.333 1.333s-1.333-0.597-1.333-1.333c0-0.736 0.597-1.333 1.333-1.333s1.333 0.597 1.333 1.333zM20.183 18.333h0.15c0.552 0 1-0.448 1-1s-0.448-1-1-1h-0.803l-0.515-2.061c-0.334-1.335-1.534-2.272-2.911-2.272h-8.112c-1.444 0-2.683 1.028-2.949 2.447l-0.354 1.886h-1.024c-0.552 0-1 0.448-1 1s0.448 1 1 1h0.15c-0.708 0.669-1.15 1.616-1.15 2.667v6.333c0 1.105 0.895 2 2 2s2-0.895 2-2v-0.667h10.667v0.667c0 1.105 0.895 2 2 2s2-0.895 2-2v-6.333c0-1.051-0.442-1.998-1.15-2.667zM7.993 14h8.112c0.459 0 0.859 0.312 0.97 0.757l0.604 2.416c-0.008 0.052-0.013 0.105-0.013 0.16h-11.128l0.472-2.518c0.089-0.473 0.502-0.816 0.983-0.816zM19.333 24.667h-14.667v-3.667c0-0.921 0.746-1.667 1.667-1.667h11.333c0.921 0 1.667 0.746 1.667 1.667v3.667z"></path>
</svg>
