<!-- Generated by IcoMoon.io -->
<svg version="1.1" xmlns="http://www.w3.org/2000/svg" width="32" height="32" viewBox="0 0 32 32">
<title>vehicle-truck</title>
<path d="M12.007 20c0.736 0 1.333-0.597 1.333-1.333s-0.597-1.333-1.333-1.333c-0.736 0-1.333 0.597-1.333 1.333s0.597 1.333 1.333 1.333z"></path>
<path d="M21.333 18.667c0 0.736-0.597 1.333-1.333 1.333s-1.333-0.597-1.333-1.333 0.597-1.333 1.333-1.333c0.736 0 1.333 0.597 1.333 1.333z"></path>
<path d="M14.333 20.667c-0.552 0-1 0.448-1 1s0.448 1 1 1h3.333c0.552 0 1-0.448 1-1s-0.448-1-1-1h-3.333z"></path>
<path d="M4 7c0-1.657 1.343-3 3-3h18c1.657 0 3 1.343 3 3v18c0 0.552-0.448 1-1 1h-2.333v1c0 1.289-1.045 2.333-2.333 2.333h-2c-1.289 0-2.333-1.045-2.333-2.333v-1h-4v1c0 1.289-1.045 2.333-2.333 2.333h-2c-1.289 0-2.333-1.045-2.333-2.333v-1h-2.333c-0.552 0-1-0.448-1-1v-18zM12 27v-1h-2.667v1c0 0.184 0.149 0.333 0.333 0.333h2c0.184 0 0.333-0.149 0.333-0.333zM9.333 24h13.333v-8h-13.333v8zM20 26v1c0 0.184 0.149 0.333 0.333 0.333h2c0.184 0 0.333-0.149 0.333-0.333v-1h-2.667zM26 24v-17c0-0.552-0.448-1-1-1h-18c-0.552 0-1 0.448-1 1v17h1.333v-9c0-0.073 0.008-0.146 0.024-0.217l0.985-4.434c0.305-1.373 1.522-2.349 2.929-2.349h9.458c1.406 0 2.624 0.977 2.929 2.349l0.985 4.434c0.016 0.071 0.024 0.144 0.024 0.217v9h1.333zM11.271 10c-0.469 0-0.875 0.326-0.976 0.783l-0.715 3.217h12.84l-0.715-3.217c-0.102-0.458-0.507-0.783-0.976-0.783h-9.458z"></path>
</svg>
