<!-- Generated by IcoMoon.io -->
<svg version="1.1" xmlns="http://www.w3.org/2000/svg" width="32" height="32" viewBox="0 0 32 32">
<title>vehicle-truck-cube</title>
<path d="M1.333 11.432v-5.528c0-0.779 0.445-1.454 1.095-1.784l0.011-0.005 4.667-2.333c0.26-0.133 0.568-0.211 0.893-0.211s0.633 0.078 0.905 0.216l-0.011-0.005 4.667 2.333c0.661 0.335 1.107 1.010 1.107 1.789v0 5.528c-0.001 0.778-0.446 1.453-1.095 1.783l-0.011 0.005-4.667 2.333c-0.26 0.133-0.568 0.211-0.893 0.211s-0.633-0.078-0.905-0.216l0.011 0.005-4.667-2.333c-0.661-0.335-1.106-1.010-1.107-1.788v-0zM3.404 6.036c-0.044 0.087-0.070 0.189-0.070 0.298 0 0.259 0.148 0.484 0.364 0.594l0.004 0.002 3.632 1.817v3.92c0 0.368 0.298 0.667 0.667 0.667s0.667-0.298 0.667-0.667v0-3.92l3.632-1.816c0.22-0.112 0.369-0.337 0.369-0.597 0-0.369-0.299-0.667-0.667-0.667-0.109 0-0.212 0.026-0.302 0.072l0.004-0.002-3.701 1.852-3.701-1.852c-0.087-0.044-0.189-0.070-0.298-0.070-0.26 0-0.485 0.149-0.595 0.365l-0.002 0.004zM4.667 15.824v7.176c0 0 0 0.001 0 0.001 0 0.516 0.39 0.94 0.892 0.994l0.004 0c0.567-1.566 2.041-2.664 3.771-2.664 1.732 0 3.207 1.1 3.764 2.64l0.009 0.028h3.123c0.566-1.566 2.040-2.666 3.771-2.667h0v-14.333c0-0.552-0.448-1-1-1v0h-3v-0.096c0-0.693-0.215-1.355-0.596-1.904h3.596c1.657 0 3 1.343 3 3v0 1h2.067c1.16 0 2.216 0.668 2.712 1.716l2.267 4.784c0.189 0.4 0.288 0.84 0.288 1.284v7.216c0 1.657-1.343 3-3 3v0h-2.388c-0.327 1.908-1.969 3.341-3.945 3.341s-3.618-1.433-3.942-3.317l-0.003-0.024h-2.775c-0.327 1.908-1.969 3.342-3.946 3.342-1.982 0-3.627-1.441-3.944-3.332l-0.003-0.023c-1.532-0.148-2.72-1.428-2.72-2.987v0-8.176l2 1zM22 21.869c0.82 0.48 1.443 1.219 1.764 2.103l0.009 0.028h2.56c0.552 0 1-0.448 1-1v0-0.333h-1.667c-0.552 0-1-0.448-1-1s0.448-1 1-1v0h1.667v-4h-5.333v5.203zM24.067 10h-2.067v4.667h4.911l-1.937-4.093c-0.164-0.342-0.507-0.573-0.904-0.573h-0zM7.333 25.333c0 1.105 0.895 2 2 2s2-0.895 2-2v0c0-1.105-0.895-2-2-2s-2 0.895-2 2v0zM20 27.333c1.105 0 2-0.895 2-2s-0.895-2-2-2v0c-1.105 0-2 0.895-2 2s0.895 2 2 2v0z"></path>
</svg>
