<!-- Generated by IcoMoon.io -->
<svg version="1.1" xmlns="http://www.w3.org/2000/svg" width="32" height="32" viewBox="0 0 32 32">
<title>vehicle-truck-profile</title>
<path d="M5.667 4c-1.657 0-3 1.343-3 3v16c0 1.562 1.194 2.846 2.72 2.987 0.312 1.898 1.96 3.346 3.947 3.346 1.982 0 3.627-1.441 3.945-3.333h2.777c0.317 1.892 1.963 3.333 3.945 3.333s3.627-1.441 3.945-3.333h2.389c1.657 0 3-1.343 3-3v-7.217c0-0.444-0.099-0.883-0.289-1.284l-2.266-4.783c-0.496-1.048-1.552-1.716-2.711-1.716h-2.068v-1c0-1.657-1.343-3-3-3h-13.333zM23.772 24c-0.319-0.904-0.954-1.658-1.772-2.132v-5.202h5.333v4h-1.667c-0.552 0-1 0.448-1 1s0.448 1 1 1h1.667v0.333c0 0.552-0.448 1-1 1h-2.561zM20 21.333c-1.742 0-3.223 1.113-3.772 2.667h-3.122c-0.549-1.554-2.031-2.667-3.772-2.667-1.74 0-3.22 1.111-3.771 2.661-0.503-0.052-0.896-0.477-0.896-0.995v-16c0-0.552 0.448-1 1-1h13.333c0.552 0 1 0.448 1 1v14.333zM22 10h2.068c0.386 0 0.738 0.223 0.904 0.572l1.94 4.095h-4.911v-4.667zM9.333 27.333c-1.105 0-2-0.895-2-2s0.895-2 2-2c1.105 0 2 0.895 2 2s-0.895 2-2 2zM22 25.333c0 1.105-0.895 2-2 2s-2-0.895-2-2c0-1.105 0.895-2 2-2s2 0.895 2 2z"></path>
</svg>
