<!-- Generated by IcoMoon.io -->
<svg version="1.1" xmlns="http://www.w3.org/2000/svg" width="32" height="32" viewBox="0 0 32 32">
<title>vehicle-car</title>
<path d="M21.066 4c1.987 0 3.72 1.352 4.203 3.28l0.514 2.054h1.217c0.506 0 0.925 0.376 0.991 0.864l0.009 0.136c0 0.506-0.376 0.925-0.864 0.991l-0.136 0.009h-0.715l0.277 1.102c0.865 0.526 1.443 1.478 1.443 2.565v11.329c0 1.289-1.045 2.333-2.333 2.333h-2.005c-1.289 0-2.333-1.045-2.333-2.333l-0.001-1.662h-10.66l0 1.662c0 1.289-1.045 2.333-2.333 2.333h-2.005c-1.289 0-2.333-1.045-2.333-2.333v-11.329c0-1.086 0.578-2.038 1.442-2.564l0.276-1.102h-0.719c-0.506 0-0.925-0.376-0.991-0.864l-0.009-0.136c0-0.506 0.376-0.925 0.864-0.991l0.136-0.009h1.217l0.515-2.051c0.482-1.929 2.216-3.282 4.204-3.282h10.13zM8.672 24.667h-2.673l0.001 1.662c0 0.184 0.149 0.333 0.333 0.333h2.005c0.184 0 0.333-0.149 0.333-0.333l-0-1.662zM26.005 24.667h-2.673l0.001 1.662c0 0.184 0.149 0.333 0.333 0.333h2.005c0.184 0 0.333-0.149 0.333-0.333l-0-1.662zM25.005 14h-18.005c-0.552 0-1 0.448-1 1v7.667h20.005v-7.667c0-0.552-0.448-1-1-1zM13.665 18.667h4.669c0.552 0 1 0.448 1 1 0 0.506-0.376 0.925-0.864 0.991l-0.136 0.009h-4.669c-0.552 0-1-0.448-1-1 0-0.506 0.376-0.925 0.864-0.991l0.136-0.009zM22.667 16c0.736 0 1.333 0.597 1.333 1.333s-0.597 1.333-1.333 1.333c-0.736 0-1.333-0.597-1.333-1.333s0.597-1.333 1.333-1.333zM9.333 16c0.736 0 1.333 0.597 1.333 1.333s-0.597 1.333-1.333 1.333-1.333-0.597-1.333-1.333c0-0.736 0.597-1.333 1.333-1.333zM21.066 6h-10.13c-1.071 0-2.004 0.729-2.264 1.767l-1.058 4.233h16.776l-1.061-4.234c-0.26-1.038-1.193-1.766-2.263-1.766z"></path>
</svg>
