<!-- Generated by IcoMoon.io -->
<svg version="1.1" xmlns="http://www.w3.org/2000/svg" width="32" height="32" viewBox="0 0 32 32">
<title>vehicle-bicycle</title>
<path d="M17 4c-0.552 0-1 0.448-1 1s0.448 1 1 1h1.903l1.273 4.667h-8.842v-3c0-0.552-0.448-1-1-1h-4c-0.552 0-1 0.448-1 1s0.448 1 1 1h3v2.917l-0.403 2.416c-3.098 0.037-5.597 2.56-5.597 5.666 0 3.13 2.537 5.667 5.667 5.667s5.667-2.537 5.667-5.667c0-0.083-0.002-0.165-0.005-0.247l6.208-6.208 0.364 1.336c-1.912 0.91-3.234 2.86-3.234 5.119 0 3.13 2.537 5.667 5.667 5.667s5.667-2.537 5.667-5.667c0-3.13-2.537-5.667-5.667-5.667-0.169 0-0.337 0.007-0.503 0.022l-2.532-9.285c-0.119-0.435-0.514-0.737-0.965-0.737h-2.667zM21.774 16.526l0.928 3.404c0.145 0.533 0.695 0.847 1.228 0.702s0.847-0.695 0.702-1.228l-0.928-3.403c2.008 0.020 3.63 1.654 3.63 3.667 0 2.025-1.642 3.667-3.667 3.667s-3.667-1.642-3.667-3.667c0-1.332 0.711-2.499 1.774-3.141zM14.086 17.166c-0.647-1.314-1.789-2.341-3.183-2.838l0.277-1.661h7.405l-4.499 4.499zM10.566 16.351c0.948 0.448 1.672 1.291 1.962 2.316h-2.348l0.386-2.316zM8.594 16.022l-0.58 3.48c-0.048 0.29 0.033 0.587 0.223 0.811s0.469 0.354 0.763 0.354h3.529c-0.435 1.539-1.85 2.667-3.529 2.667-2.025 0-3.667-1.642-3.667-3.667 0-1.888 1.426-3.442 3.26-3.644z"></path>
</svg>
