<!-- Generated by IcoMoon.io -->
<svg version="1.1" xmlns="http://www.w3.org/2000/svg" width="32" height="32" viewBox="0 0 32 32">
<title>vehicle-truck-bag-regular</title>
<path d="M2.88 6.4c-0.53 0-0.96 0.43-0.96 0.96v0 7.68c0 1.591 1.289 2.88 2.88 2.88v0h6.4c1.591 0 2.88-1.289 2.88-2.88v0-7.68c0-0.53-0.43-0.96-0.96-0.96v0h-0.32v-1.28c-0-1.767-1.433-3.2-3.2-3.2-0.589 0-1.141 0.159-1.615 0.437l0.015-0.008c-0.459-0.27-1.011-0.429-1.6-0.429-1.767 0-3.2 1.433-3.2 3.2v0 1.279h-0.32zM9.6 6.4v-1.28c0-0.445-0.091-0.87-0.256-1.254 0.077-0.016 0.165-0.026 0.256-0.026 0.707 0 1.28 0.573 1.28 1.28 0 0 0 0 0 0v0 1.28h-1.28zM7.68 5.12v1.28h-2.56v-1.28c0-0.707 0.573-1.28 1.28-1.28s1.28 0.573 1.28 1.28v0zM3.2 22.72v-3.84c0.493 0.206 1.033 0.32 1.6 0.32h0.32v3.52c0 0 0 0 0 0 0 0.495 0.375 0.903 0.856 0.954l0.004 0c0.545-1.502 1.959-2.555 3.62-2.555 1.662 0 3.078 1.056 3.613 2.534l0.008 0.027h2.998c0.543-1.504 1.959-2.56 3.621-2.56v0-13.76c0-0.53-0.43-0.96-0.96-0.96v0h-3.735c-0.226-0.469-0.596-0.838-1.052-1.059l-0.013-0.006v-0.215c0-0.218-0.015-0.431-0.045-0.64h4.845c1.591 0 2.88 1.289 2.88 2.88v0 0.96h1.984c1.114 0 2.127 0.641 2.604 1.647l2.176 4.591c0.182 0.385 0.276 0.806 0.276 1.233v6.929c0 1.591-1.289 2.88-2.88 2.88v0h-2.292c-0.314 1.831-1.89 3.207-3.788 3.207s-3.473-1.376-3.784-3.184l-0.003-0.023h-2.664c-0.314 1.832-1.89 3.209-3.788 3.209-1.902 0-3.482-1.383-3.787-3.199l-0.003-0.023c-1.471-0.142-2.611-1.371-2.611-2.867v0zM23.462 23.68h2.458c0.53 0 0.96-0.43 0.96-0.96v0-0.32h-1.6c-0.53 0-0.96-0.43-0.96-0.96s0.43-0.96 0.96-0.96v0h1.6v-3.84h-5.12v4.993c0.787 0.461 1.385 1.171 1.694 2.020l0.009 0.027zM21.76 10.24v4.48h4.714l-1.86-3.931c-0.158-0.327-0.487-0.549-0.868-0.549-0.001 0-0.002 0-0.003 0h-1.984zM9.6 26.88c1.060 0 1.92-0.86 1.92-1.92s-0.86-1.92-1.92-1.92v0c-1.060 0-1.92 0.86-1.92 1.92s0.86 1.92 1.92 1.92v0zM21.76 24.96c0-1.060-0.86-1.92-1.92-1.92s-1.92 0.86-1.92 1.92v0c0 1.060 0.86 1.92 1.92 1.92s1.92-0.86 1.92-1.92v0zM5.12 5.12c0-0.182 0.038-0.355 0.106-0.512l-0.106 0.512z"></path>
</svg>
