<!-- Generated by IcoMoon.io -->
<svg version="1.1" xmlns="http://www.w3.org/2000/svg" width="32" height="32" viewBox="0 0 32 32">
<title>vehicle-truck-regular</title>
<path d="M12.007 20c0.736 0 1.333-0.597 1.333-1.333s-0.597-1.333-1.333-1.333v0c-0.736 0-1.333 0.597-1.333 1.333s0.597 1.333 1.333 1.333v0zM21.333 18.667c0 0.736-0.597 1.333-1.333 1.333s-1.333-0.597-1.333-1.333v0c0-0.736 0.597-1.333 1.333-1.333s1.333 0.597 1.333 1.333v0zM14.333 20.667c-0.552 0-1 0.448-1 1s0.448 1 1 1v0h3.333c0.552 0 1-0.448 1-1s-0.448-1-1-1v0h-3.333zM4 7c0-1.657 1.343-3 3-3v0h18c1.657 0 3 1.343 3 3v0 18c0 0.552-0.448 1-1 1v0h-2.333v1c0 1.289-1.045 2.333-2.333 2.333v0h-2c-1.289 0-2.333-1.045-2.333-2.333v0-1h-4v1c0 1.289-1.045 2.333-2.333 2.333v0h-2c-1.289 0-2.333-1.045-2.333-2.333v0-1h-2.333c-0.552 0-1-0.448-1-1v0-18zM12 27v-1h-2.667v1c0 0.184 0.149 0.333 0.333 0.333h2c0.184 0 0.333-0.149 0.333-0.333v0zM9.333 24h13.333v-8h-13.333v8zM20 26v1c0 0.184 0.149 0.333 0.333 0.333h2c0.184 0 0.333-0.149 0.333-0.333v0-1h-2.667zM26 24v-17c0-0.552-0.448-1-1-1v0h-18c-0.552 0-1 0.448-1 1v0 17h1.333v-9c0-0.077 0.009-0.152 0.025-0.224l-0.001 0.007 0.985-4.433c0.309-1.354 1.502-2.349 2.928-2.349h9.459c1.426 0 2.619 0.995 2.924 2.329l0.004 0.020 0.987 4.433c0.014 0.064 0.023 0.137 0.023 0.211 0 0.002 0 0.004-0 0.006v-0 9h1.333zM11.271 10c-0.475 0-0.873 0.332-0.975 0.776l-0.001 0.007-0.715 3.217h12.84l-0.715-3.217c-0.103-0.451-0.501-0.783-0.976-0.783h-9.459z"></path>
</svg>
