<!-- Generated by IcoMoon.io -->
<svg version="1.1" xmlns="http://www.w3.org/2000/svg" width="32" height="32" viewBox="0 0 32 32">
<title>vehicle-cab-regular</title>
<path d="M10.857 18.571c0 0.789-0.64 1.429-1.429 1.429s-1.429-0.64-1.429-1.429v0c0-0.789 0.64-1.429 1.429-1.429s1.429 0.64 1.429 1.429v0zM22.571 20c0.789 0 1.429-0.64 1.429-1.429s-0.64-1.429-1.429-1.429v0c-0.789 0-1.429 0.64-1.429 1.429s0.64 1.429 1.429 1.429v0zM12.571 20.857c0-0.473 0.384-0.857 0.857-0.857v0h5.143c0.473 0 0.857 0.384 0.857 0.857s-0.384 0.857-0.857 0.857v0h-5.143c-0.473 0-0.857-0.384-0.857-0.857v0zM11.429 4.286v-2c0-0.631 0.512-1.143 1.143-1.143v0h6.857c0.631 0 1.143 0.512 1.143 1.143v0 2h0.181c0 0 0 0 0 0 1.998 0 3.676 1.367 4.151 3.216l0.006 0.030 0.688 2.754h1.545c0.473 0 0.857 0.384 0.857 0.857s-0.384 0.857-0.857 0.857v0h-1.117l0.32 1.28c1.299 0.406 2.225 1.598 2.225 3.006v10.286c0 1.736-1.407 3.143-3.143 3.143v0h-1.143c-1.736 0-3.143-1.407-3.143-3.143v0-1.143h-10.286v1.143c0 1.736-1.407 3.143-3.143 3.143v0h-1.143c-1.736 0-3.143-1.407-3.143-3.143v0-10.286c0-1.417 0.937-2.614 2.225-3.007l0.32-1.279h-1.117c-0.473 0-0.857-0.384-0.857-0.857s0.384-0.857 0.857-0.857v0h1.545l0.688-2.754c0.482-1.879 2.16-3.246 4.158-3.246 0 0 0 0 0 0h0.181zM13.143 4.286h5.714v-1.429h-5.714v1.429zM11.248 6c-1.198 0-2.205 0.82-2.49 1.93l-0.004 0.018-1.299 5.195h17.090l-1.298-5.195c-0.289-1.127-1.296-1.947-2.495-1.947-0 0-0 0-0 0h-9.504zM22.857 25.429v1.143c0 0.789 0.64 1.429 1.429 1.429h1.143c0.789 0 1.429-0.64 1.429-1.429v-1.143h-4zM9.143 26.571v-1.143h-4v1.143c0 0.789 0.64 1.429 1.429 1.429h1.143c0.789 0 1.429-0.64 1.429-1.429zM25.429 14.857h-18.857c-0.789 0-1.429 0.64-1.429 1.429v7.429h21.714v-7.429c0-0.789-0.64-1.429-1.429-1.429z"></path>
</svg>
