<!-- Generated by IcoMoon.io -->
<svg version="1.1" xmlns="http://www.w3.org/2000/svg" width="32" height="32" viewBox="0 0 32 32">
<title>vehicle-subway</title>
<path d="M21.667 4c2.761 0 5 2.239 5 5v12c0 2.367-1.645 4.35-3.854 4.868l3.284 1.563c0.499 0.237 0.71 0.834 0.473 1.333-0.218 0.457-0.737 0.673-1.206 0.523l-0.127-0.050-6.797-3.236h-4.881l-6.795 3.236c-0.499 0.237-1.095 0.026-1.333-0.473s-0.026-1.095 0.473-1.333l3.283-1.563c-2.209-0.518-3.853-2.501-3.853-4.868v-12c0-2.761 2.239-5 5-5h11.333zM24.666 18.667h-17.333l0 2.333c0 1.657 1.343 3 3 3h11.333c1.657 0 3-1.343 3-3l-0-2.333zM10.667 20c0.736 0 1.333 0.597 1.333 1.333s-0.597 1.333-1.333 1.333c-0.736 0-1.333-0.597-1.333-1.333s0.597-1.333 1.333-1.333zM21.333 20c0.736 0 1.333 0.597 1.333 1.333s-0.597 1.333-1.333 1.333c-0.736 0-1.333-0.597-1.333-1.333s0.597-1.333 1.333-1.333zM21.667 6h-11.333c-1.657 0-3 1.343-3 3l-0 7.667h17.333l0-7.667c0-1.657-1.343-3-3-3zM17.667 8c0.552 0 1 0.448 1 1s-0.448 1-1 1h-3.333c-0.552 0-1-0.448-1-1s0.448-1 1-1h3.333z"></path>
</svg>
