<!-- Generated by IcoMoon.io -->
<svg version="1.1" xmlns="http://www.w3.org/2000/svg" width="32" height="32" viewBox="0 0 32 32">
<title>vehicle-car</title>
<path d="M12.667 19.5c0-0.46 0.373-0.833 0.833-0.833h5c0.46 0 0.833 0.373 0.833 0.833s-0.373 0.833-0.833 0.833v0h-5c-0.46 0-0.833-0.373-0.833-0.833zM10.667 17.333c0 0.736-0.597 1.333-1.333 1.333s-1.333-0.597-1.333-1.333v0c0-0.736 0.597-1.333 1.333-1.333s1.333 0.597 1.333 1.333v0zM22.667 18.667c0.736 0 1.333-0.597 1.333-1.333s-0.597-1.333-1.333-1.333v0c-0.736 0-1.333 0.597-1.333 1.333s0.597 1.333 1.333 1.333v0zM5.843 12.178l0.289-1.178h-1.299c-0.46 0-0.833-0.373-0.833-0.833s0.373-0.833 0.833-0.833v0h1.707l0.529-2.158c0.461-1.837 2.098-3.175 4.047-3.175h9.538c1.893 0 3.492 1.263 3.999 2.993l0.007 0.029 0.66 2.311h1.848c0.46 0 0.833 0.373 0.833 0.833s-0.373 0.833-0.833 0.833h-1.371l0.333 1.167c1.1 0.406 1.871 1.446 1.871 2.666 0 0 0 0 0 0v-0 11.667c0 1.197-0.97 2.167-2.167 2.167v0h-2.333c-1.197 0-2.167-0.97-2.167-2.167v0-2.167h-10.667v2.167c0 1.197-0.97 2.167-2.167 2.167v0h-2.333c-1.197 0-2.167-0.97-2.167-2.167v0-11.667c0-1.209 0.758-2.242 1.824-2.649l0.019-0.007zM8.687 7.572l-1.085 4.428h16.745l-1.291-4.52c-0.309-1.055-1.268-1.813-2.404-1.813-0 0-0 0-0 0h-9.536c-1.169 0-2.151 0.803-2.424 1.888l-0.004 0.017zM6.833 13.667c-0.644 0-1.167 0.522-1.167 1.167v0 7.833h20.667v-7.833c0-0.644-0.522-1.167-1.167-1.167v0h-18.333zM23 26.5c0 0.276 0.224 0.5 0.5 0.5h2.333c0.276 0 0.5-0.224 0.5-0.5v0-2.167h-3.333v2.167zM5.667 24.333v2.167c0 0.276 0.224 0.5 0.5 0.5h2.333c0.276 0 0.5-0.224 0.5-0.5v0-2.167h-3.333z"></path>
</svg>
