<!-- Generated by IcoMoon.io -->
<svg version="1.1" xmlns="http://www.w3.org/2000/svg" width="32" height="32" viewBox="0 0 32 32">
<title>vehicle-ship</title>
<path d="M11.667 2.667c-0.552 0-1 0.448-1 1v3h-3c-0.552 0-1 0.448-1 1v6.353l-1.947 0.713c-0.263 0.096-0.473 0.298-0.58 0.557s-0.101 0.55 0.017 0.804l3.113 6.691c0.221-0.073 0.455-0.113 0.696-0.117 0.744-0.011 1.43 0.332 1.87 0.892l-3.406-7.323 8.783-3.216c0.512-0.187 1.073-0.19 1.586-0.007l9.034 3.223-3.496 7.127c0.438-0.445 1.049-0.708 1.704-0.697 0.276 0.005 0.543 0.058 0.79 0.152l3.29-6.708c0.125-0.256 0.136-0.553 0.029-0.817s-0.322-0.47-0.59-0.565l-2.226-0.794v-6.269c0-0.552-0.448-1-1-1h-3v-3c0-0.552-0.448-1-1-1h-8.667zM19.333 6.667h-6.667v-2h6.667v2zM23.333 8.667v4.555l-5.863-2.092c-0.953-0.34-1.996-0.336-2.946 0.012l-5.858 2.145v-4.62h14.667z"></path>
<path d="M24.969 24.751l-0.003-0.012c-0.116-0.43-0.503-0.732-0.948-0.74s-0.844 0.281-0.974 0.708l-0.001 0.002-0.004 0.012c-0.005 0.015-0.014 0.041-0.027 0.077-0.026 0.071-0.068 0.178-0.127 0.31-0.12 0.265-0.304 0.614-0.562 0.957-0.516 0.687-1.252 1.267-2.323 1.267s-1.808-0.58-2.324-1.267c-0.258-0.343-0.442-0.692-0.562-0.957-0.059-0.131-0.101-0.239-0.127-0.31-0.013-0.035-0.022-0.062-0.027-0.077l-0.004-0.013c-0-0 0 0 0 0-0.128-0.421-0.518-0.71-0.958-0.709s-0.829 0.289-0.956 0.711l-0 0.001-0.004 0.012c-0.005 0.015-0.014 0.041-0.027 0.077-0.026 0.071-0.067 0.178-0.126 0.309-0.119 0.265-0.303 0.613-0.559 0.956-0.514 0.686-1.25 1.266-2.324 1.266s-1.81-0.581-2.325-1.267c-0.257-0.343-0.441-0.691-0.56-0.956-0.059-0.131-0.101-0.239-0.127-0.31-0.013-0.035-0.022-0.062-0.027-0.077l-0.005-0.015c-0.13-0.426-0.526-0.715-0.971-0.709s-0.832 0.307-0.95 0.736l-0.004 0.012c-0.004 0.014-0.012 0.038-0.023 0.072-0.023 0.068-0.061 0.171-0.117 0.298-0.113 0.257-0.292 0.596-0.555 0.932-0.512 0.653-1.328 1.284-2.67 1.284-0.552 0-1 0.448-1 1s0.448 1 1 1c2.098 0 3.449-1.036 4.244-2.050 0.031-0.039 0.061-0.079 0.090-0.118 0.024 0.034 0.049 0.067 0.074 0.101 0.735 0.981 1.999 2.067 3.925 2.067s3.189-1.086 3.924-2.067c0.026-0.035 0.051-0.069 0.076-0.103 0.025 0.035 0.051 0.070 0.077 0.104 0.736 0.979 2 2.066 3.923 2.066s3.187-1.087 3.922-2.066c0.025-0.033 0.049-0.067 0.073-0.1 0.029 0.038 0.058 0.077 0.088 0.115 0.794 1.015 2.146 2.051 4.249 2.051 0.552 0 1-0.448 1-1s-0.448-1-1-1c-1.35 0-2.164-0.631-2.674-1.283-0.262-0.335-0.44-0.674-0.552-0.93-0.055-0.127-0.093-0.23-0.116-0.298-0.011-0.034-0.019-0.058-0.023-0.072z"></path>
</svg>
