<!-- Generated by IcoMoon.io -->
<svg version="1.1" xmlns="http://www.w3.org/2000/svg" width="32" height="32" viewBox="0 0 32 32">
<title>video-clip-off</title>
<path d="M4.373 2.96c-0.183-0.196-0.443-0.318-0.732-0.318-0.552 0-1 0.448-1 1 0 0.289 0.122 0.549 0.318 0.731l0.001 0.001 0.936 0.936c-0.76 0.778-1.229 1.843-1.229 3.018 0 0.002 0 0.004 0 0.006v-0 15.333c0 2.393 1.94 4.333 4.333 4.333v0h18c0.477 0 0.936-0.077 1.365-0.22l1.26 1.26c0.18 0.174 0.425 0.281 0.695 0.281 0.552 0 1-0.448 1-1 0-0.27-0.107-0.515-0.281-0.695l-24.666-24.666zM24.587 26h-17.587c-1.289 0-2.333-1.045-2.333-2.333v0-15.333c0-0.624 0.245-1.191 0.644-1.609l7.356 7.357v5.407c0 0.76 0.813 1.241 1.48 0.877l3.107-1.697 7.332 7.332zM17.964 13.72l2.884 2.885c0.126-0.166 0.202-0.376 0.202-0.603 0-0.377-0.209-0.706-0.517-0.877l-0.005-0.003-2.564-1.401zM27.333 8.333v14.759l1.819 1.819c0.115-0.371 0.181-0.798 0.181-1.24 0-0.001 0-0.003 0-0.004v0-15.333c0-2.393-1.94-4.333-4.333-4.333v0h-16.757l2 2h14.757c1.288 0 2.333 1.045 2.333 2.333z"></path>
</svg>
