<!-- Generated by IcoMoon.io -->
<svg version="1.1" xmlns="http://www.w3.org/2000/svg" width="32" height="32" viewBox="0 0 32 32">
<title>video-360</title>
<path d="M18 15.333c0 1.105-0.895 2-2 2s-2-0.895-2-2v0c0-1.105 0.895-2 2-2s2 0.895 2 2v0zM9.333 18.667c1.105 0 2-0.895 2-2s-0.895-2-2-2v0c-1.105 0-2 0.895-2 2s0.895 2 2 2v0zM22.667 18.667c1.105 0 2-0.895 2-2s-0.895-2-2-2v0c-1.105 0-2 0.895-2 2s0.895 2 2 2v0zM2.667 8.421c0-1.921 1.757-3.323 3.589-3.067 2.101 0.297 5.489 0.645 9.744 0.645s7.643-0.349 9.744-0.644c1.832-0.257 3.589 1.144 3.589 3.065v15.159c0 1.92-1.757 3.32-3.587 3.064-2.868-0.41-6.181-0.644-9.548-0.644-0.070 0-0.139 0-0.209 0l0.011-0c-4.253 0-7.643 0.349-9.745 0.644-1.831 0.256-3.587-1.144-3.588-3.065v-15.157zM5.977 7.336c-0.699-0.097-1.311 0.451-1.311 1.085v15.159c0 0.633 0.611 1.181 1.311 1.083 0.217-0.029 0.447-0.061 0.689-0.092v-3.237c0-0.736 0.597-1.333 1.333-1.333v0h3.333v4.139c0.636-0.039 1.303-0.071 2-0.093v-4.045c0-0.736 0.597-1.333 1.333-1.333v0h2.667c0.736 0 1.333 0.597 1.333 1.333v0 4.044c0.697 0.024 1.364 0.056 2 0.093v-4.137h3.333c0.736 0 1.333 0.597 1.333 1.333v0 3.237c0.243 0.031 0.473 0.063 0.689 0.093 0.7 0.097 1.311-0.451 1.311-1.085v-15.157c0-0.635-0.612-1.183-1.311-1.085-2.177 0.307-5.66 0.664-10.023 0.664s-7.845-0.359-10.023-0.664z"></path>
</svg>
