<!-- Generated by IcoMoon.io -->
<svg version="1.1" xmlns="http://www.w3.org/2000/svg" width="32" height="32" viewBox="0 0 32 32">
<title>video-clip</title>
<path d="M12.667 12.513v6.975c0 0.76 0.813 1.241 1.48 0.877l6.381-3.488c0.312-0.173 0.52-0.501 0.52-0.877s-0.208-0.704-0.515-0.875l-0.005-0.003-6.381-3.488c-0.139-0.077-0.304-0.123-0.48-0.123-0.552 0-1 0.448-1 1 0 0.001 0 0.001 0 0.001v-0zM7 4c-2.393 0-4.333 1.94-4.333 4.333v0 15.333c0 2.393 1.94 4.333 4.333 4.333v0h18c2.393 0 4.333-1.94 4.333-4.333v0-15.333c0-2.393-1.94-4.333-4.333-4.333v0h-18zM4.667 8.333c0-1.288 1.045-2.333 2.333-2.333h18c1.288 0 2.333 1.045 2.333 2.333v15.333c0 1.289-1.045 2.333-2.333 2.333v0h-18c-1.289 0-2.333-1.045-2.333-2.333v0-15.333z"></path>
</svg>
