<!-- Generated by IcoMoon.io -->
<svg version="1.1" xmlns="http://www.w3.org/2000/svg" width="32" height="32" viewBox="0 0 32 32">
<title>video-prohibited</title>
<path d="M6 6.857c-2.051 0-3.714 1.663-3.714 3.714v0 12c0 2.051 1.663 3.714 3.714 3.714v0h9.345c-0.181-0.493-0.325-1.072-0.406-1.67l-0.005-0.044h-8.934c-1.105 0-2-0.895-2-2v0-12c0-1.104 0.896-2 2-2h12.002c1.105 0 2 0.896 2 2v4.998c0.489-0.22 1.063-0.407 1.659-0.531l0.055-0.010v-0.577l5.712-3.911v5.305c0.652 0.348 1.214 0.745 1.722 1.201l-0.008-0.007v-7.042c-0.001-0.788-0.64-1.427-1.429-1.427-0.301 0-0.581 0.093-0.812 0.253l0.005-0.003-5.191 3.554v-1.803c0-2.051-1.663-3.714-3.714-3.714h-12.002zM23.429 30.857c4.103 0 7.429-3.326 7.429-7.429s-3.326-7.429-7.429-7.429v0c-4.103 0-7.429 3.326-7.429 7.429s3.326 7.429 7.429 7.429v0zM23.429 29.143c-0.002 0-0.005 0-0.008 0-1.273 0-2.448-0.418-3.395-1.124l0.015 0.011 7.99-7.99c0.695 0.935 1.113 2.113 1.113 3.389 0 3.156-2.558 5.714-5.714 5.714v0zM26.817 18.827l-7.99 7.99c-0.695-0.935-1.113-2.113-1.113-3.389 0-3.156 2.558-5.714 5.714-5.714 1.275 0 2.453 0.418 3.404 1.124l-0.015-0.011z"></path>
</svg>
