<!-- Generated by IcoMoon.io -->
<svg version="1.1" xmlns="http://www.w3.org/2000/svg" width="32" height="32" viewBox="0 0 32 32">
<title>video-prohibited</title>
<path d="M18.333 6.667c2.393 0 4.333 1.94 4.333 4.333v0.231l5.152-3.091c0.667-0.4 1.515 0.080 1.515 0.857v8.082c-0.592-0.569-1.265-1.054-2-1.437v-4.879l-4.667 2.802v1.126c-0.693 0.053-1.362 0.187-2 0.393v-4.085c0-1.289-1.045-2.333-2.333-2.333h-11.333c-1.289 0-2.333 1.045-2.333 2.333v11.333c0 1.289 1.045 2.333 2.333 2.333h7.769c0.108 0.698 0.299 1.368 0.562 2h-8.331c-2.393 0-4.333-1.94-4.333-4.333v-11.333c0-2.393 1.94-4.333 4.333-4.333h11.333zM30.667 23.333c0 4.050-3.283 7.333-7.333 7.333s-7.333-3.283-7.333-7.333c0-4.050 3.283-7.333 7.333-7.333s7.333 3.283 7.333 7.333zM18 23.333c0 1.111 0.34 2.143 0.921 2.998l7.409-7.409c-0.854-0.581-1.886-0.921-2.998-0.921-2.945 0-5.333 2.388-5.333 5.333zM23.333 28.667c2.945 0 5.333-2.388 5.333-5.333 0-1.111-0.34-2.143-0.921-2.998l-7.409 7.409c0.854 0.581 1.886 0.921 2.998 0.921z"></path>
</svg>
