<!-- Generated by IcoMoon.io -->
<svg version="1.1" xmlns="http://www.w3.org/2000/svg" width="32" height="32" viewBox="0 0 32 32">
<title>video-360-off-regular</title>
<path d="M9.6 17.6c0.884 0 1.6-0.716 1.6-1.6s-0.716-1.6-1.6-1.6v0c-0.884 0-1.6 0.716-1.6 1.6s0.716 1.6 1.6 1.6v0zM4.566 3.434c-0.145-0.145-0.345-0.235-0.566-0.235-0.442 0-0.801 0.359-0.801 0.801 0 0.221 0.090 0.421 0.235 0.566v0l1.896 1.894c-1.227 0.28-2.13 1.362-2.13 2.655 0 0 0 0.001 0 0.001v-0 13.766c0.001 1.501 1.219 2.718 2.72 2.718 0.153 0 0.302-0.013 0.448-0.037l-0.016 0.002c2.899-0.492 6.239-0.773 9.644-0.773 2.902 0 5.756 0.204 8.549 0.599l-0.321-0.037 3.21 3.211c0.145 0.145 0.345 0.235 0.566 0.235 0.442 0 0.801-0.359 0.801-0.801 0-0.221-0.090-0.421-0.235-0.566l-24-24zM20.8 21.931v1.448c-0.335-0.030-0.89-0.067-1.446-0.096l-0.154-0.006v-2.944l1.6 1.6zM16.469 17.6h-2.069c-0.884 0-1.6 0.716-1.6 1.6v0 4.077c-0.71 0.036-1.265 0.072-1.817 0.116l0.217-0.014v-4.179h-3.2c-0.884 0-1.6 0.716-1.6 1.6v0 3.139l-0.304 0.048c-0.053 0.009-0.115 0.014-0.178 0.014-0.618 0-1.118-0.501-1.118-1.118v0-13.766c0-0.688 0.616-1.214 1.296-1.104 0.309 0.050 0.618 0.096 0.928 0.142l9.445 9.445zM22.594 19.2l3.006 3.006v-1.408c0-0.884-0.716-1.6-1.6-1.6v0h-1.406zM26.965 23.571l1.136 1.134c0.432-0.48 0.699-1.115 0.699-1.822v-13.766c-0-1.501-1.217-2.718-2.718-2.718-0.153 0-0.303 0.013-0.449 0.037l0.016-0.002c-2.899 0.492-6.24 0.773-9.645 0.773-1.995 0-3.968-0.096-5.914-0.285l0.247 0.019 1.741 1.742c4.613 0.291 9.251 0.067 13.827-0.672 0.053-0.009 0.114-0.014 0.176-0.014 0.618 0 1.119 0.5 1.12 1.118v13.768c0 0.001 0 0.003 0 0.005 0 0.259-0.089 0.497-0.237 0.686l0.002-0.002zM22.4 17.6c0.884 0 1.6-0.716 1.6-1.6s-0.716-1.6-1.6-1.6v0c-0.884 0-1.6 0.716-1.6 1.6s0.716 1.6 1.6 1.6v0z"></path>
</svg>
