<!-- Generated by IcoMoon.io -->
<svg version="1.1" xmlns="http://www.w3.org/2000/svg" width="32" height="32" viewBox="0 0 32 32">
<title>video-security</title>
<path d="M7 4c-2.393 0-4.333 1.94-4.333 4.333v8.667c0 2.393 1.94 4.333 4.333 4.333h2.99c-0.105 1.122-1.049 2-2.199 2h-3.458c-0.552 0-1 0.448-1 1v4c0 0.552 0.448 1 1 1h4c4.234 0 7.667-3.433 7.667-7.667v-0.333h2.333c2.251 0 4.102-1.717 4.313-3.913l5.172 3.103c0.309 0.185 0.694 0.19 1.007 0.013s0.507-0.51 0.507-0.87v-14c0-0.36-0.194-0.693-0.507-0.87s-0.698-0.173-1.007 0.013l-5.172 3.103c-0.212-2.196-2.062-3.913-4.313-3.913h-11.333zM22.667 10.233l4.667-2.8v10.468l-4.667-2.8v-4.868zM8.333 27.333h-3v-2h2.458c2.254 0 4.095-1.773 4.203-4h2.005v0.333c0 3.13-2.537 5.667-5.667 5.667zM4.667 8.333c0-1.289 1.045-2.333 2.333-2.333h11.333c1.289 0 2.333 1.045 2.333 2.333v8.667c0 1.289-1.045 2.333-2.333 2.333h-11.333c-1.289 0-2.333-1.045-2.333-2.333v-8.667z"></path>
</svg>
