<!-- Generated by IcoMoon.io -->
<svg version="1.1" xmlns="http://www.w3.org/2000/svg" width="32" height="32" viewBox="0 0 32 32">
<title>video-add-regular</title>
<path d="M18.333 6c2.393 0 4.333 1.94 4.333 4.333v0 0.231l5.152-3.091c0.147-0.090 0.325-0.143 0.515-0.143 0.552 0 1 0.448 1 1v0 15.336c-0 0.552-0.448 1-1 1-0.19 0-0.368-0.053-0.519-0.145l0.004 0.003-5.152-3.091v0.233c0 2.393-1.94 4.333-4.333 4.333v0h-1.417c0.205-0.637 0.34-1.307 0.392-2h1.025c1.289 0 2.333-1.045 2.333-2.333v0-11.333c0-1.289-1.045-2.333-2.333-2.333v0h-11.333c-1.289 0-2.333 1.045-2.333 2.333v0 5.309c-0.765 0.403-1.422 0.882-2.003 1.44l0.003-0.003v-6.747c0-2.393 1.94-4.333 4.333-4.333v0h11.333zM27.333 10.097l-4.667 2.801v6.201l4.667 2.8v-11.803zM16 23.333c0-4.050-3.283-7.333-7.333-7.333s-7.333 3.283-7.333 7.333v0c0 4.050 3.283 7.333 7.333 7.333s7.333-3.283 7.333-7.333v0zM9.333 24l0.001 3.337c0 0.368-0.298 0.667-0.667 0.667s-0.667-0.298-0.667-0.667v0-3.337h-3.34c-0.368 0-0.667-0.298-0.667-0.667s0.298-0.667 0.667-0.667v0h3.339v-3.333c0-0.368 0.298-0.667 0.667-0.667s0.667 0.298 0.667 0.667v0 3.333h3.329c0.368 0 0.667 0.298 0.667 0.667s-0.298 0.667-0.667 0.667v0h-3.329z"></path>
</svg>
