<!-- Generated by IcoMoon.io -->
<svg version="1.1" xmlns="http://www.w3.org/2000/svg" width="32" height="32" viewBox="0 0 32 32">
<title>video-recording</title>
<path d="M7.2 6.4c-2.209 0-4 1.791-4 4v0 4.539c0.496-0.237 1.035-0.402 1.6-0.483v-4.056c0-1.325 1.075-2.4 2.4-2.4v0h11.2c1.325 0 2.4 1.075 2.4 2.4v0 11.2c0 1.325-1.075 2.4-2.4 2.4v0h-0.8v1.6h0.8c2.209 0 4-1.791 4-4v0-1.6l3.84 2.88c0.264 0.2 0.598 0.32 0.96 0.32 0.884 0 1.6-0.716 1.6-1.6v-11.2c0-0.884-0.716-1.6-1.6-1.6-0.362 0-0.696 0.12-0.964 0.323l0.004-0.003-3.84 2.88v-1.6c0-2.209-1.791-4-4-4v0h-11.2zM22.4 14l4.8-3.6v11.2l-4.8-3.6v-4zM1.6 20c0-2.209 1.791-4 4-4v0h6.4c2.209 0 4 1.791 4 4v0 6.4c0 2.209-1.791 4-4 4v0h-6.4c-2.209 0-4-1.791-4-4v0-6.4zM8.032 20.054c-0.114-0.080-0.256-0.127-0.409-0.127-0.111 0-0.216 0.025-0.31 0.070l0.004-0.002c-0.097 0.043-0.18 0.101-0.249 0.173l-0 0c-0.143 0.147-0.232 0.348-0.232 0.57 0 0 0 0.001 0 0.001v-0 4.92c-0 0.002-0 0.005-0 0.008 0 0.22 0.089 0.42 0.232 0.565l-0-0c0.072 0.071 0.155 0.13 0.247 0.174l0.005 0.002c0.088 0.041 0.191 0.065 0.3 0.065 0.077 0 0.152-0.012 0.222-0.035l-0.005 0.001c0.079-0.026 0.148-0.061 0.211-0.104l-0.003 0.002 3.674-2.507c0.111-0.074 0.2-0.174 0.259-0.292l0.002-0.004c0.057-0.112 0.091-0.245 0.091-0.385 0-0.144-0.036-0.28-0.098-0.399l0.002 0.005c-0.065-0.12-0.156-0.218-0.266-0.289l-0.003-0.002-3.674-2.41z"></path>
</svg>
