<!-- Generated by IcoMoon.io -->
<svg version="1.1" xmlns="http://www.w3.org/2000/svg" width="32" height="32" viewBox="0 0 32 32">
<title>video-person-star-off</title>
<path d="M4.374 2.96c-0.391-0.391-1.024-0.391-1.414-0s-0.391 1.024-0 1.414l1.306 1.306c-0.951 0.503-1.599 1.503-1.599 2.653v15.339c0 1.657 1.343 3 3 3h9.667c-0.264-0.632-0.456-1.303-0.564-2.001h-3.437l0.001-3.672 0.009-0.076c0.035-0.147 0.167-0.257 0.325-0.257h3.418c0.23-0.711 0.549-1.382 0.944-2h-4.362l-0.191 0.008c-1.199 0.097-2.142 1.101-2.142 2.326l-0.001 3.672-3.665 0.001c-0.552 0-1-0.448-1-1v-15.339c0-0.552 0.448-1 1-1h0.252l6.082 6.082c0.043 2.145 1.773 3.875 3.918 3.918l1.57 1.57c-0.934 1.231-1.489 2.766-1.489 4.43 0 4.050 3.283 7.333 7.333 7.333 1.671 0 3.212-0.559 4.445-1.501 0.389 0.259 0.918 0.217 1.261-0.125 0.391-0.391 0.391-1.024 0-1.414l-24.666-24.667zM26.314 27.729c-0.248 0.282-0.678 0.384-1.036 0.113l-1.944-1.473-1.944 1.473c-0.61 0.462-1.431-0.16-1.198-0.907l0.743-2.383-1.944-1.473c-0.61-0.462-0.297-1.468 0.458-1.468h0.749l6.118 6.119zM14.071 9.829l1.542 1.542c0.125-0.024 0.254-0.037 0.386-0.037 1.105 0 2 0.895 2 2 0 0.132-0.013 0.261-0.037 0.386l1.542 1.542c0.315-0.572 0.495-1.229 0.495-1.929 0-2.209-1.791-4-4-4-0.699 0-1.357 0.179-1.929 0.495zM20.721 16.479l2.268 2.268c0.391-0.195 0.924-0.035 1.084 0.48l0.273 0.878 1.505 1.505h1.367c0.754 0 1.068 1.006 0.458 1.468l-0.203 0.154 2.713 2.713c0.309-0.811 0.479-1.692 0.479-2.612 0-4.050-3.283-7.333-7.333-7.333-0.92 0-1.801 0.169-2.612 0.479zM9.576 5.333l2 2h14.751c0.552 0 1 0.448 1 1v7.306c0.735 0.382 1.407 0.866 2 1.434v-8.74c0-1.657-1.343-3-3-3h-16.751z"></path>
</svg>
