<!-- Generated by IcoMoon.io -->
<svg version="1.1" xmlns="http://www.w3.org/2000/svg" width="32" height="32" viewBox="0 0 32 32">
<title>video</title>
<path d="M6.833 6c-2.301 0-4.167 1.865-4.167 4.167v0 11.667c0 2.301 1.865 4.167 4.167 4.167v0h11.667c2.301 0 4.167-1.865 4.167-4.167v0-1.625l3.974 3.104c1.095 0.855 2.693 0.075 2.693-1.313v-11.997c0-1.388-1.598-2.168-2.693-1.313l-3.974 3.104v-1.625c0-2.301-1.865-4.167-4.167-4.167v0h-11.667zM22.667 13.907l5-3.905v11.997l-5-3.905v-4.187zM21 10.167v11.667c0 1.381-1.119 2.5-2.5 2.5v0h-11.667c-1.381 0-2.5-1.119-2.5-2.5v0-11.667c0-1.381 1.119-2.5 2.5-2.5v0h11.667c1.381 0 2.5 1.119 2.5 2.5v0z"></path>
</svg>
