<!-- Generated by IcoMoon.io -->
<svg version="1.1" xmlns="http://www.w3.org/2000/svg" width="32" height="32" viewBox="0 0 32 32">
<title>video-play-pause</title>
<path d="M4.869 8.822l10.002 6.337c0.286 0.181 0.44 0.471 0.462 0.769l-0.001-6.262c0-0.552 0.448-1 1-1h4c0.552 0 1 0.448 1 1v12.667c0 0.552-0.448 1-1 1h-4c-0.552 0-1-0.448-1-1l0.001-6.254c-0.022 0.298-0.176 0.588-0.462 0.769l-10.002 6.329c-0.666 0.421-1.535-0.057-1.535-0.845v-12.667c0-0.788 0.869-1.267 1.535-0.845zM28.33 8.667c0.552 0 1 0.448 1 1v12.666c0 0.552-0.448 1-1 1h-4c-0.552 0-1-0.448-1-1v-12.666c0-0.552 0.448-1 1-1h4zM19.331 10.667h-2v10.667h2v-10.667zM27.33 10.667h-2v10.666h2v-10.666zM5.333 11.484v9.033l7.133-4.514-7.133-4.519z"></path>
</svg>
