<!-- Generated by IcoMoon.io -->
<svg version="1.1" xmlns="http://www.w3.org/2000/svg" width="32" height="32" viewBox="0 0 32 32">
<title>video-off-regular</title>
<path d="M22.32 23.499l5.591 5.591c0.151 0.151 0.359 0.244 0.589 0.244 0.46 0 0.833-0.373 0.833-0.833 0-0.23-0.093-0.439-0.244-0.589v0l-25-25c-0.151-0.151-0.359-0.244-0.589-0.244-0.46 0-0.833 0.373-0.833 0.833 0 0.23 0.093 0.438 0.244 0.589l2.257 2.257c-1.485 0.659-2.501 2.121-2.501 3.82 0 0 0 0.001 0 0.001v-0 11.667c0 2.301 1.865 4.167 4.167 4.167v0h11.667c0 0 0 0 0 0 1.699 0 3.16-1.017 3.809-2.475l0.011-0.027zM20.979 22.158c-0.166 1.234-1.213 2.175-2.479 2.175-0 0-0 0-0.001 0h-11.667c-1.381 0-2.5-1.119-2.5-2.5v0-11.667c0-0 0-0 0-0 0-1.266 0.942-2.313 2.163-2.478l0.013-0.001 14.47 14.47zM21 10.167v7.298l6.107 6.107c1.031 0.373 2.227-0.372 2.227-1.573v-11.996c0-1.388-1.598-2.168-2.693-1.313l-3.974 3.103v-1.625c0-2.301-1.865-4.167-4.167-4.167v0h-8.965l1.667 1.667h7.298c1.381 0 2.5 1.119 2.5 2.5v0zM22.667 13.907l5-3.905v11.997l-5-3.905v-4.187z"></path>
</svg>
