<!-- Generated by IcoMoon.io -->
<svg version="1.1" xmlns="http://www.w3.org/2000/svg" width="32" height="32" viewBox="0 0 32 32">
<title>video-person-off</title>
<path d="M2.96 2.96c0.181-0.181 0.431-0.292 0.707-0.292s0.526 0.112 0.707 0.292v0l24.667 24.667c0.166 0.178 0.268 0.418 0.268 0.682 0 0.552-0.448 1-1 1-0.264 0-0.504-0.102-0.682-0.269l0.001 0.001-2.368-2.367h-19.592c-1.657 0-3-1.343-3-3v0-15.34c0 0 0-0 0-0 0-1.145 0.641-2.14 1.584-2.645l0.016-0.008-1.307-1.307c-0.181-0.181-0.292-0.431-0.292-0.707s0.112-0.526 0.292-0.707v0zM20.659 22.073l-1.405-1.407h-7.587c-0.157 0-0.288 0.109-0.324 0.255l-0 0.002-0.009 0.076-0.001 3.672h9.327v-2.599zM15.92 17.333c-2.145-0.045-3.873-1.773-3.917-3.914l-0-0.004-6.084-6.081h-0.252c-0.552 0-1 0.448-1 1v0 15.34c0 0.552 0.448 1 1 1l3.665-0.001 0.001-3.672c0-1.221 0.938-2.223 2.133-2.325l0.009-0.001 0.192-0.008h5.587l-1.335-1.333zM15.615 11.371l-1.543-1.541c0.557-0.312 1.222-0.496 1.929-0.496 2.209 0 4 1.791 4 4 0 0.708-0.184 1.373-0.506 1.95l0.010-0.020-1.541-1.543c0.023-0.115 0.037-0.247 0.037-0.382 0-1.107-0.897-2.004-2.004-2.004-0.135 0-0.267 0.013-0.395 0.039l0.013-0.002zM27.328 23.085v-14.752c0-0.552-0.448-1-1-1v0h-14.752l-2-2h16.751c1.657 0 3 1.343 3 3v0 15.34c0 0.416-0.084 0.813-0.237 1.173l-1.763-1.761z"></path>
</svg>
