<!-- Generated by IcoMoon.io -->
<svg version="1.1" xmlns="http://www.w3.org/2000/svg" width="32" height="32" viewBox="0 0 32 32">
<title>video-add</title>
<path d="M18.333 6c2.393 0 4.333 1.94 4.333 4.333v0.231l5.152-3.091c0.667-0.4 1.515 0.080 1.515 0.857v15.336c0 0.777-0.848 1.257-1.515 0.857l-5.152-3.091v0.233c0 2.393-1.94 4.333-4.333 4.333h-1.418c0.206-0.638 0.34-1.307 0.393-2h1.025c1.289 0 2.333-1.045 2.333-2.333v-11.333c0-1.289-1.045-2.333-2.333-2.333h-11.333c-1.289 0-2.333 1.045-2.333 2.333v5.31c-0.735 0.383-1.408 0.868-2 1.437v-6.746c0-2.393 1.94-4.333 4.333-4.333h11.333zM27.333 10.097l-4.667 2.802v6.201l4.667 2.8v-11.803zM16 23.333c0-4.050-3.283-7.333-7.333-7.333s-7.333 3.283-7.333 7.333c0 4.050 3.283 7.333 7.333 7.333s7.333-3.283 7.333-7.333zM9.334 24l0.001 3.338c0 0.368-0.298 0.667-0.667 0.667s-0.667-0.298-0.667-0.667l-0.001-3.338h-3.34c-0.368 0-0.666-0.298-0.666-0.667s0.298-0.667 0.666-0.667h3.34l-0.001-3.334c0-0.368 0.298-0.667 0.667-0.667s0.667 0.298 0.667 0.667l0.001 3.334h3.328c0.368 0 0.666 0.299 0.666 0.667s-0.298 0.667-0.666 0.667h-3.328z"></path>
</svg>
