<!-- Generated by IcoMoon.io -->
<svg version="1.1" xmlns="http://www.w3.org/2000/svg" width="32" height="32" viewBox="0 0 32 32">
<title>video-chat</title>
<path d="M6.833 6c-2.301 0-4.167 1.865-4.167 4.167v0 5.629c0.487-0.584 1.035-1.091 1.64-1.524l0.026-0.018v-4.087c0-1.381 1.119-2.5 2.5-2.5v0h11.667c1.381 0 2.5 1.119 2.5 2.5v0 11.667c0 1.381-1.119 2.5-2.5 2.5v0h-1.033c-0.217 0.588-0.496 1.147-0.829 1.667h1.863c2.301 0 4.167-1.865 4.167-4.167v0-1.625l3.974 3.104c1.095 0.855 2.693 0.075 2.693-1.313v-11.997c0-1.388-1.598-2.168-2.693-1.313l-3.974 3.104v-1.625c0-2.301-1.865-4.167-4.167-4.167v0h-11.667zM22.667 13.907l5-3.905v11.997l-5-3.905v-4.187zM16.667 21.333c0-4.051-3.283-7.333-7.333-7.333s-7.333 3.283-7.333 7.333c0 1.243 0.311 2.441 0.893 3.508l-0.869 3.011c-0.016 0.053-0.025 0.114-0.025 0.177 0 0.352 0.285 0.637 0.637 0.637 0.063 0 0.124-0.009 0.182-0.026l-0.005 0.001 3.013-0.867c1.009 0.561 2.214 0.891 3.495 0.891 0.004 0 0.008 0 0.012 0h-0.001c4.050 0 7.333-3.283 7.333-7.333zM6.667 19.333h5.333c0.368 0 0.667 0.298 0.667 0.667s-0.298 0.667-0.667 0.667v0h-5.333c-0.368 0-0.667-0.298-0.667-0.667s0.298-0.667 0.667-0.667v0zM6 22.667c0-0.368 0.298-0.667 0.667-0.667v0h3.333c0.368 0 0.667 0.298 0.667 0.667s-0.298 0.667-0.667 0.667v0h-3.333c-0.368 0-0.667-0.298-0.667-0.667v0z"></path>
</svg>
