<!-- Generated by IcoMoon.io -->
<svg version="1.1" xmlns="http://www.w3.org/2000/svg" width="32" height="32" viewBox="0 0 32 32">
<title>video-clip-multiple-regular</title>
<path d="M10.667 10.336v7.329c0 0.552 0.448 1 1 1 0.201 0 0.387-0.059 0.544-0.161l-0.004 0.002 6.157-3.945c0.186-0.12 0.307-0.327 0.307-0.561s-0.121-0.441-0.304-0.56l-0.003-0.002-6.157-3.945c-0.153-0.099-0.339-0.158-0.54-0.158-0.552 0-1 0.448-1 1 0 0 0 0.001 0 0.001v-0zM7 4c-2.393 0-4.333 1.94-4.333 4.333v0 12c0 2.393 1.94 4.333 4.333 4.333v0h14c2.393 0 4.333-1.94 4.333-4.333v0-12c0-2.393-1.94-4.333-4.333-4.333v0h-14zM4.667 8.333c0-1.288 1.045-2.333 2.333-2.333h14c1.288 0 2.333 1.045 2.333 2.333v12c0 1.289-1.045 2.333-2.333 2.333v0h-14c-1.289 0-2.333-1.045-2.333-2.333v0-12zM6.68 26c0.781 1.21 2.123 2 3.649 2 0.001 0 0.003 0 0.004 0h11.333c3.867 0 7-3.133 7-7v-9.333c0-0.001 0-0.001 0-0.002 0-1.527-0.79-2.869-1.983-3.641l-0.017-0.010v12.987c0 2.761-2.239 5-5 5v0h-14.987z"></path>
</svg>
