<!-- Generated by IcoMoon.io -->
<svg version="1.1" xmlns="http://www.w3.org/2000/svg" width="32" height="32" viewBox="0 0 32 32">
<title>video-switch</title>
<path d="M5.333 7.667c-0-2.025 1.642-3.667 3.667-3.667h8.667c2.025 0 3.667 1.642 3.667 3.667v0.721l2.654-2.030c1.097-0.839 2.679-0.057 2.679 1.324v8.635c0 1.381-1.582 2.163-2.679 1.324l-2.654-2.029v0.721c0 2.025-1.642 3.667-3.667 3.667h-8.667c-2.025 0-3.667-1.642-3.667-3.667l-0-8.667zM9 6c-0.92 0-1.667 0.746-1.667 1.667l0 8.667c0 0.921 0.746 1.667 1.667 1.667h8.667c0.921 0 1.667-0.746 1.667-1.667v-8.667c0-0.92-0.746-1.667-1.667-1.667h-8.667zM21.334 13.094l3.333 2.549v-7.286l-3.333 2.549v2.189z"></path>
<path d="M24.485 21.517c-1.268-0.308-2.841-0.55-4.611-0.696 0.823-0.406 1.519-1.031 2.010-1.8 1.13 0.145 2.166 0.332 3.074 0.553 1.157 0.281 2.164 0.632 2.905 1.058 0.667 0.383 1.471 1.035 1.471 2.035 0 0.626-0.327 1.119-0.689 1.465-0.361 0.345-0.838 0.627-1.356 0.862-1.043 0.473-2.471 0.852-4.123 1.129-0.545 0.091-1.060-0.276-1.152-0.821s0.276-1.060 0.821-1.152c1.571-0.264 2.809-0.607 3.628-0.979 0.412-0.187 0.665-0.357 0.8-0.487l0.011-0.011 0.009-0.009c-0.062-0.063-0.183-0.166-0.417-0.3-0.507-0.291-1.306-0.587-2.381-0.849zM27.346 22.59c0.002-0.003 0.002-0.005 0.002-0.005l-0.002 0.005z"></path>
<path d="M4.137 20.632c0.41-0.236 0.902-0.449 1.455-0.639 0.774 0.721 1.777 1.199 2.888 1.314-0.338 0.066-0.66 0.136-0.965 0.21-1.075 0.261-1.874 0.557-2.381 0.849-0.234 0.135-0.356 0.237-0.417 0.301 0.062 0.064 0.183 0.166 0.417 0.301 0.507 0.291 1.306 0.587 2.381 0.849 2.117 0.515 5.088 0.845 8.406 0.85l-0.959-0.96c-0.39-0.391-0.39-1.024 0.001-1.414s1.024-0.39 1.414 0.001l2.663 2.667c0.39 0.391 0.39 1.023-0.001 1.414l-2.663 2.663c-0.391 0.391-1.024 0.391-1.414 0s-0.391-1.024 0-1.414l0.956-0.956c-3.43-0.005-6.565-0.345-8.877-0.907-1.157-0.281-2.164-0.632-2.905-1.058-0.667-0.383-1.471-1.035-1.471-2.035s0.804-1.651 1.471-2.035z"></path>
</svg>
