<!-- Generated by IcoMoon.io -->
<svg version="1.1" xmlns="http://www.w3.org/2000/svg" width="32" height="32" viewBox="0 0 32 32">
<title>video-person-sparkle</title>
<path d="M5.729 5.333h20.599c0.394-0.001 0.785 0.077 1.149 0.227s0.696 0.371 0.975 0.65c0.279 0.279 0.501 0.609 0.652 0.973s0.229 0.754 0.229 1.149v15.336c0 0.795-0.316 1.558-0.879 2.12s-1.326 0.878-2.121 0.878h-20.667c-0.796 0-1.559-0.316-2.121-0.878s-0.879-1.325-0.879-2.12v-9.609c0.083 0.099 0.177 0.188 0.28 0.267 0.249 0.17 0.536 0.276 0.836 0.31s0.603-0.008 0.884-0.119v9.148c0 0.265 0.105 0.519 0.293 0.707s0.442 0.293 0.707 0.293h3.665v-3.67c0-0.586 0.22-1.15 0.617-1.58s0.941-0.696 1.525-0.744l0.191-0.008h8.66c0.586 0 1.15 0.22 1.581 0.617s0.697 0.941 0.744 1.525l0.008 0.191v3.665h3.669c0.265 0 0.52-0.105 0.707-0.293s0.293-0.442 0.293-0.707v-15.327c0-0.265-0.105-0.519-0.293-0.707s-0.442-0.293-0.707-0.293h-19.104l-0.375-0.121c-0.176-0.058-0.336-0.157-0.467-0.288-0.128-0.129-0.226-0.285-0.285-0.457l-0.368-1.133zM11.325 24.658h9.333l-0.007-3.665c-0-0.075-0.026-0.148-0.072-0.207s-0.112-0.1-0.185-0.117l-0.076-0.009h-8.66c-0.075 0-0.148 0.026-0.207 0.072s-0.1 0.112-0.117 0.185l-0.009 0.076v3.665zM18.828 10.504c0.75 0.75 1.172 1.767 1.172 2.827 0 0.525-0.103 1.045-0.305 1.53s-0.496 0.926-0.867 1.297c-0.371 0.371-0.812 0.666-1.298 0.867s-1.005 0.304-1.531 0.304-1.045-0.103-1.531-0.304c-0.485-0.201-0.926-0.495-1.298-0.867s-0.666-0.812-0.867-1.297-0.304-1.005-0.304-1.53c0-1.060 0.421-2.077 1.172-2.827s1.768-1.171 2.828-1.171c1.061 0 2.078 0.421 2.828 1.171zM14.586 11.918c-0.375 0.375-0.586 0.883-0.586 1.414 0 0.263 0.052 0.522 0.152 0.765s0.248 0.463 0.433 0.649c0.186 0.186 0.406 0.333 0.649 0.433s0.503 0.152 0.765 0.152 0.523-0.052 0.765-0.152c0.243-0.101 0.463-0.248 0.649-0.433s0.333-0.406 0.433-0.649c0.101-0.243 0.152-0.503 0.152-0.765 0-0.53-0.211-1.039-0.586-1.414s-0.884-0.586-1.414-0.586c-0.53 0-1.039 0.211-1.414 0.586zM3.148 11.785l0.4 1.222c0.033 0.095 0.095 0.177 0.177 0.235s0.179 0.088 0.279 0.088c0.1 0 0.198-0.031 0.28-0.088 0.026-0.019 0.050-0.040 0.072-0.063 0.039-0.041 0.070-0.089 0.093-0.141l0.011-0.031 0.4-1.222c0.123-0.372 0.333-0.711 0.611-0.988s0.616-0.486 0.988-0.609l1.224-0.4c0.094-0.034 0.176-0.096 0.235-0.177 0.057-0.082 0.088-0.179 0.088-0.279s-0.031-0.198-0.088-0.28c-0.058-0.081-0.14-0.143-0.235-0.176h-0.024l-1.225-0.4c-0.372-0.124-0.71-0.333-0.988-0.609s-0.486-0.615-0.609-0.988l-0.4-1.223c-0.033-0.094-0.095-0.176-0.177-0.233s-0.179-0.089-0.279-0.089c-0.1 0.001-0.198 0.032-0.28 0.089s-0.143 0.139-0.176 0.233l-0.4 1.223-0.009 0.031c-0.123 0.357-0.324 0.683-0.589 0.952-0.273 0.277-0.607 0.488-0.975 0.614l-1.225 0.4c-0.094 0.033-0.176 0.095-0.233 0.177s-0.089 0.179-0.089 0.279c0 0.1 0.032 0.197 0.089 0.279s0.139 0.144 0.233 0.177l1.225 0.4c0.373 0.124 0.712 0.334 0.989 0.612 0.074 0.075 0.143 0.154 0.208 0.237 0.174 0.225 0.309 0.478 0.4 0.748zM6.523 14.063l0.713-0.232c0.216-0.075 0.412-0.199 0.572-0.363 0.080-0.081 0.15-0.17 0.211-0.266 0.055-0.096 0.1-0.197 0.133-0.303l0.232-0.714c0.020-0.054 0.056-0.1 0.103-0.133 0.019-0.012 0.038-0.023 0.059-0.032 0.034-0.013 0.069-0.020 0.105-0.020 0.058 0.001 0.115 0.019 0.163 0.052 0.017 0.012 0.032 0.026 0.047 0.041 0.024 0.028 0.043 0.060 0.056 0.095l0.232 0.714c0.072 0.217 0.194 0.414 0.356 0.576s0.36 0.283 0.577 0.356l0.713 0.232h0.015c0.018 0.007 0.034 0.015 0.051 0.024 0.034 0.020 0.063 0.047 0.085 0.079 0.034 0.048 0.052 0.105 0.052 0.164s-0.018 0.115-0.052 0.163c-0.033 0.047-0.079 0.083-0.133 0.103l-0.715 0.232c-0.217 0.072-0.414 0.194-0.576 0.356s-0.284 0.359-0.356 0.576l-0.232 0.713c-0.021 0.054-0.057 0.1-0.104 0.133s-0.104 0.051-0.163 0.051c-0.058 0-0.115-0.017-0.163-0.051s-0.083-0.079-0.103-0.133l-0.232-0.713c-0.072-0.218-0.194-0.416-0.356-0.578s-0.36-0.284-0.577-0.357l-0.713-0.232c-0.054-0.019-0.101-0.055-0.133-0.103-0.034-0.048-0.052-0.104-0.052-0.163s0.018-0.115 0.052-0.163c0.032-0.048 0.079-0.084 0.133-0.103z"></path>
</svg>
