<!-- Generated by IcoMoon.io -->
<svg version="1.1" xmlns="http://www.w3.org/2000/svg" width="32" height="32" viewBox="0 0 32 32">
<title>video-play-pause-regular</title>
<path d="M16 10.333c0-1.288 1.045-2.333 2.333-2.333h2c1.288 0 2.333 1.045 2.333 2.333v11.333c0 1.289-1.045 2.333-2.333 2.333v0h-2c-1.289 0-2.333-1.045-2.333-2.333v0-5.507c-0.033 0.801-0.469 1.494-1.11 1.884l-0.010 0.006-8.667 5.269c-1.556 0.944-3.547-0.175-3.547-1.995v-10.652c0-1.829 2.009-2.947 3.564-1.981l8.669 5.383c0.701 0.436 1.067 1.149 1.1 1.877v-5.617zM18.333 10c-0.184 0-0.333 0.149-0.333 0.333v0 11.333c0 0.184 0.149 0.333 0.333 0.333h2c0.184 0 0.333-0.149 0.333-0.333v0-11.333c0-0.184-0.149-0.333-0.333-0.333v0h-2zM24 10.333c0-1.288 1.045-2.333 2.333-2.333h2c1.288 0 2.333 1.045 2.333 2.333v11.333c0 1.289-1.045 2.333-2.333 2.333v0h-2c-1.289 0-2.333-1.045-2.333-2.333v0-11.333zM26.333 10c-0.184 0-0.333 0.149-0.333 0.333v0 11.333c0 0.184 0.149 0.333 0.333 0.333h2c0.184 0 0.333-0.149 0.333-0.333v0-11.333c0-0.184-0.149-0.333-0.333-0.333v0h-2zM4.667 10.672v10.653c0 0.184 0.149 0.333 0.333 0.333 0.064 0 0.124-0.018 0.175-0.049l-0.001 0.001 8.669-5.269c0.097-0.059 0.16-0.165 0.16-0.285 0-0.119-0.062-0.223-0.156-0.282l-0.001-0.001-8.669-5.383c-0.050-0.032-0.111-0.050-0.176-0.050-0.184 0-0.333 0.149-0.333 0.333v0z"></path>
</svg>
