<!-- Generated by IcoMoon.io -->
<svg version="1.1" xmlns="http://www.w3.org/2000/svg" width="32" height="32" viewBox="0 0 32 32">
<title>view-desktop-mobile-regular</title>
<path d="M21 2.667c1.657 0 3 1.343 3 3v0 20.667c0 1.657-1.343 3-3 3v0h-10c-1.657 0-3-1.343-3-3v0-20.667c0-1.657 1.343-3 3-3v0h10zM21 4.667h-10c-0.552 0-1 0.448-1 1v0 20.667c0 0.552 0.448 1 1 1h10c0.552 0 1-0.448 1-1v0-20.667c0-0.552-0.448-1-1-1v0zM17.665 23.333c0 0 0.001 0 0.001 0 0.552 0 1 0.448 1 1s-0.447 0.999-0.999 1l-3.333 0.005c-0 0-0.001 0-0.001 0-0.552 0-1-0.448-1-1s0.447-0.999 0.999-1l3.333-0.005zM19.333 11.999c0 0 0 0 0 0 0.326 0 0.597 0.234 0.655 0.543l0.001 0.004 0.011 0.12v8.001c0 0 0 0 0 0 0 0.326-0.234 0.597-0.543 0.655l-0.004 0.001-0.12 0.011h-6.667c-0 0-0 0-0 0-0.326 0-0.597-0.234-0.655-0.543l-0.001-0.004-0.011-0.119v-8.001c0-0 0-0 0-0 0-0.326 0.234-0.597 0.543-0.655l0.004-0.001 0.12-0.011h6.667zM19.333 6.667c0 0 0 0 0 0 0.326 0 0.597 0.234 0.655 0.543l0.001 0.004 0.011 0.12v2.673c0 0 0 0 0 0 0 0.326-0.234 0.597-0.543 0.655l-0.004 0.001-0.12 0.011h-6.667c-0 0-0 0-0 0-0.326 0-0.597-0.234-0.655-0.543l-0.001-0.004-0.011-0.121v-2.672c0-0 0-0 0-0 0-0.326 0.234-0.597 0.543-0.655l0.004-0.001 0.12-0.011h6.667z"></path>
</svg>
