<!-- Generated by IcoMoon.io -->
<svg version="1.1" xmlns="http://www.w3.org/2000/svg" width="32" height="32" viewBox="0 0 32 32">
<title>view-desktop-regular</title>
<path d="M26.333 4c0 0 0 0 0 0 1.585 0 2.882 1.229 2.992 2.785l0.001 0.010 0.007 0.205v14.003c0 0 0 0 0 0 0 1.585-1.229 2.882-2.785 2.992l-0.010 0.001-0.205 0.007h-5.667v3.331h2.335c0.003-0 0.007-0 0.010-0 0.552 0 1 0.448 1 1 0 0.508-0.379 0.927-0.869 0.991l-0.005 0.001-0.137 0.008h-14c-0.552-0-1-0.448-1-1 0-0.504 0.373-0.921 0.858-0.99l0.005-0.001 0.136-0.009h2.333v-3.331h-5.665c-0 0-0 0-0 0-1.585 0-2.882-1.229-2.992-2.785l-0.001-0.010-0.007-0.205v-14.003c0-0 0-0 0-0 0-1.585 1.229-2.882 2.785-2.992l0.010-0.001 0.204-0.007h20.667zM18.665 24.003h-5.333l0.001 3.331h5.333l-0.001-3.331zM26.332 6h-20.663c-0.504 0-0.921 0.373-0.99 0.859l-0.001 0.005-0.012 0.136v14.003c0 0.507 0.376 0.925 0.864 0.991l0.136 0.009h20.667c0.504-0 0.921-0.373 0.99-0.859l0.001-0.005 0.009-0.136v-14.003c-0-0.504-0.373-0.921-0.859-0.99l-0.005-0.001-0.136-0.009zM24.673 8c0 0 0 0 0 0 0.326 0 0.597 0.234 0.655 0.543l0.001 0.004 0.011 0.12v10.669c0 0 0 0 0 0 0 0.326-0.234 0.597-0.543 0.655l-0.004 0.001-0.12 0.011h-12.007c-0 0-0 0-0 0-0.326 0-0.597-0.234-0.655-0.543l-0.001-0.004-0.011-0.12v-10.669c0-0 0-0 0-0 0-0.326 0.234-0.597 0.543-0.655l0.004-0.001 0.12-0.011h12.005zM10 8c0 0 0 0 0 0 0.326 0 0.597 0.234 0.655 0.543l0.001 0.004 0.011 0.12v10.669c0 0 0 0 0 0 0 0.326-0.234 0.597-0.543 0.655l-0.004 0.001-0.12 0.011h-2.667c-0 0-0 0-0 0-0.326 0-0.597-0.234-0.655-0.543l-0.001-0.004-0.011-0.12v-10.669c0-0 0-0 0-0 0-0.326 0.234-0.597 0.543-0.655l0.004-0.001 0.12-0.011h2.667z"></path>
</svg>
