<!-- Generated by IcoMoon.io -->
<svg version="1.1" xmlns="http://www.w3.org/2000/svg" width="32" height="32" viewBox="0 0 32 32">
<title>view-desktop</title>
<path d="M26.333 4c1.588 0 2.887 1.234 2.993 2.795l0.007 0.205v14.003c0 1.588-1.234 2.887-2.795 2.993l-0.205 0.007-5.667-0v3.331l2.335 0.001c0.552 0 1 0.448 1 1 0 0.506-0.376 0.925-0.864 0.991l-0.136 0.009h-14c-0.552 0-1-0.448-1-1 0-0.506 0.376-0.925 0.864-0.991l0.136-0.009 2.332-0.001v-3.331l-5.665 0c-1.588 0-2.888-1.234-2.993-2.795l-0.007-0.205v-14.003c0-1.588 1.234-2.888 2.795-2.993l0.205-0.007h20.665zM18.666 24.003h-5.333l0.001 3.331h5.333l-0.001-3.331zM26.333 6h-20.665c-0.506 0-0.925 0.376-0.991 0.864l-0.009 0.136v14.003c0 0.506 0.376 0.925 0.864 0.991l0.136 0.009h20.665c0.506 0 0.925-0.376 0.991-0.864l0.009-0.136v-14.003c0-0.506-0.376-0.925-0.864-0.991l-0.136-0.009zM24.672 8c0.327 0 0.599 0.236 0.656 0.547l0.011 0.12v10.67c0 0.327-0.236 0.6-0.547 0.656l-0.12 0.011h-12.006c-0.327 0-0.599-0.236-0.656-0.547l-0.011-0.12v-10.67c0-0.327 0.236-0.599 0.547-0.656l0.12-0.011h12.006zM9.999 8c0.327 0 0.599 0.236 0.656 0.547l0.011 0.12v10.67c0 0.327-0.236 0.6-0.547 0.656l-0.12 0.011h-2.667c-0.327 0-0.599-0.236-0.656-0.547l-0.011-0.12v-10.67c0-0.327 0.236-0.599 0.547-0.656l0.12-0.011h2.667z"></path>
</svg>
