<!-- Generated by IcoMoon.io -->
<svg version="1.1" xmlns="http://www.w3.org/2000/svg" width="32" height="32" viewBox="0 0 32 32">
<title>virtual-network-regular</title>
<path d="M7.72 9.792c0.172 0.148 0.28 0.365 0.28 0.608 0 0.199-0.073 0.381-0.193 0.521l0.001-0.001-4.354 5.080 4.352 5.080c0.132 0.142 0.212 0.333 0.212 0.543 0 0.442-0.358 0.8-0.8 0.8-0.253 0-0.479-0.118-0.626-0.301l-0.001-0.002-4.8-5.6c-0.119-0.139-0.192-0.321-0.192-0.52s0.073-0.381 0.193-0.521l-0.001 0.001 4.8-5.6c0.148-0.172 0.365-0.28 0.608-0.28 0.199 0 0.381 0.073 0.521 0.193l-0.001-0.001zM24.192 21.080c-0.119 0.139-0.192 0.321-0.192 0.52 0 0.442 0.358 0.8 0.8 0.8 0.243 0 0.46-0.108 0.607-0.279l0.001-0.001 4.8-5.6c0.119-0.139 0.192-0.321 0.192-0.52s-0.073-0.381-0.193-0.521l0.001 0.001-4.8-5.6c-0.148-0.172-0.365-0.28-0.608-0.28-0.442 0-0.8 0.358-0.8 0.8 0 0.199 0.073 0.381 0.193 0.521l-0.001-0.001 4.355 5.080-4.355 5.080zM9.6 17.6c0.884 0 1.6-0.716 1.6-1.6s-0.716-1.6-1.6-1.6v0c-0.884 0-1.6 0.716-1.6 1.6s0.716 1.6 1.6 1.6v0zM17.6 16c0 0.884-0.716 1.6-1.6 1.6s-1.6-0.716-1.6-1.6v0c0-0.884 0.716-1.6 1.6-1.6s1.6 0.716 1.6 1.6v0zM22.4 17.6c0.884 0 1.6-0.716 1.6-1.6s-0.716-1.6-1.6-1.6v0c-0.884 0-1.6 0.716-1.6 1.6s0.716 1.6 1.6 1.6v0z"></path>
</svg>
