<!-- Generated by IcoMoon.io -->
<svg version="1.1" xmlns="http://www.w3.org/2000/svg" width="32" height="32" viewBox="0 0 32 32">
<title>virtual-network-toolbox-regular</title>
<path d="M7.808 10.92c0.119-0.139 0.192-0.321 0.192-0.52 0-0.442-0.358-0.8-0.8-0.8-0.243 0-0.46 0.108-0.607 0.279l-0.001 0.001-4.8 5.6c-0.119 0.139-0.192 0.321-0.192 0.52s0.073 0.381 0.193 0.521l-0.001-0.001 4.8 5.6c0.148 0.172 0.365 0.28 0.608 0.28 0.442 0 0.8-0.358 0.8-0.8 0-0.199-0.073-0.381-0.193-0.521l0.001 0.001-4.354-5.080 4.352-5.080zM28.733 17.667c-0.093-0.494-0.265-0.933-0.503-1.328l0.010 0.018 0.307-0.357-4.355-5.080c-0.119-0.139-0.192-0.321-0.192-0.52 0-0.442 0.358-0.8 0.8-0.8 0.243 0 0.46 0.108 0.607 0.279l0.001 0.001 4.8 5.6c0.119 0.139 0.192 0.321 0.192 0.52s-0.073 0.381-0.193 0.521l0.001-0.001-1.067 1.245c-0.106-0.033-0.243-0.067-0.383-0.094l-0.025-0.004zM11.2 16c0 0.884-0.716 1.6-1.6 1.6s-1.6-0.716-1.6-1.6v0c0-0.884 0.716-1.6 1.6-1.6s1.6 0.716 1.6 1.6v0zM16 17.6c0.884 0 1.6-0.716 1.6-1.6s-0.716-1.6-1.6-1.6v0c-0.884 0-1.6 0.716-1.6 1.6s0.716 1.6 1.6 1.6v0zM19.2 19.2v-0.8c0-1.325 1.075-2.4 2.4-2.4v0h3.2c1.325 0 2.4 1.075 2.4 2.4v0 0.8h0.8c1.325 0 2.4 1.075 2.4 2.4v0 2.4h-3.2v-0.8c0-0.442-0.358-0.8-0.8-0.8s-0.8 0.358-0.8 0.8v0 0.8h-4.8v-0.8c0-0.442-0.358-0.8-0.8-0.8s-0.8 0.358-0.8 0.8v0 0.8h-3.2v-2.4c0-1.325 1.075-2.4 2.4-2.4v0h0.8zM20.8 18.4v0.8h4.8v-0.8c0-0.442-0.358-0.8-0.8-0.8v0h-3.2c-0.442 0-0.8 0.358-0.8 0.8v0zM27.2 25.6h3.2v2.4c0 1.325-1.075 2.4-2.4 2.4v0h-9.6c-1.325 0-2.4-1.075-2.4-2.4v0-2.4h3.2v0.8c0 0.442 0.358 0.8 0.8 0.8s0.8-0.358 0.8-0.8v0-0.8h4.8v0.8c0 0.442 0.358 0.8 0.8 0.8s0.8-0.358 0.8-0.8v0-0.8z"></path>
</svg>
