<!-- Generated by IcoMoon.io -->
<svg version="1.1" xmlns="http://www.w3.org/2000/svg" width="32" height="32" viewBox="0 0 32 32">
<title>voicemail-subtract-regular</title>
<path d="M12.664 10c0.213 0.439 0.338 0.955 0.338 1.5 0 1.933-1.567 3.5-3.5 3.5s-3.5-1.567-3.5-3.5c0-1.932 1.566-3.499 3.498-3.5h9c0 0 0 0 0 0 1.396 0 2.601 0.817 3.163 1.999l0.009 0.021c-0.199-0.013-0.431-0.020-0.664-0.020-0.653 0-1.292 0.056-1.914 0.163l0.067-0.009c-0.193-0.098-0.421-0.155-0.663-0.155-0.51 0-0.961 0.256-1.23 0.646l-0.003 0.005c-0.862 0.315-1.606 0.694-2.295 1.147l0.041-0.025c-0.006-0.079-0.010-0.171-0.010-0.264 0-0.547 0.124-1.066 0.345-1.529l-0.009 0.021h-2.672zM8 11.5c0 0.828 0.672 1.5 1.5 1.5s1.5-0.672 1.5-1.5v0c0-0.828-0.672-1.5-1.5-1.5s-1.5 0.672-1.5 1.5v0zM24 5v5.414c0.698 0.198 1.366 0.46 2 0.786v-6.2c0-1.657-1.343-3-3-3v0h-18c-1.657 0-3 1.343-3 3v0 13c0 1.657 1.343 3 3 3v0h5c0-0.682 0.062-1.352 0.18-2h-5.18c-0.552 0-1-0.448-1-1v0-13c0-0.552 0.448-1 1-1v0h18c0.552 0 1 0.448 1 1v0zM30 21c0 4.971-4.029 9-9 9s-9-4.029-9-9v0c0-4.971 4.029-9 9-9s9 4.029 9 9v0zM26 21c0-0.552-0.448-1-1-1v0h-8c-0.552 0-1 0.448-1 1s0.448 1 1 1v0h8c0.552 0 1-0.448 1-1v0z"></path>
</svg>
