<!-- Generated by IcoMoon.io -->
<svg version="1.1" xmlns="http://www.w3.org/2000/svg" width="32" height="32" viewBox="0 0 32 32">
<title>voicemail</title>
<path d="M17.859 13.714h-3.719c0.449 0.638 0.717 1.43 0.717 2.286 0 2.209-1.791 4-4 4s-4-1.791-4-4c0-2.209 1.79-4 3.999-4h10.286c2.209 0 3.999 1.791 3.999 4s-1.791 4-4 4-4-1.791-4-4c0-0.855 0.269-1.648 0.726-2.298l-0.008 0.013zM21.143 13.714c-1.262 0-2.286 1.023-2.286 2.286s1.023 2.286 2.286 2.286v0c1.262 0 2.286-1.023 2.286-2.286s-1.023-2.286-2.286-2.286v0zM10.857 13.714c-1.262 0-2.286 1.023-2.286 2.286s1.023 2.286 2.286 2.286v0c1.262 0 2.286-1.023 2.286-2.286s-1.023-2.286-2.286-2.286v0z"></path>
<path d="M6.576 4.569c-2.367 0-4.286 1.919-4.286 4.286v0 14.286c0 2.367 1.919 4.286 4.286 4.286v0h18.853c2.367 0 4.286-1.919 4.286-4.286v0-14.286c0-2.367-1.919-4.286-4.286-4.286v0h-18.851zM4.005 8.855c0-1.42 1.151-2.571 2.571-2.571v0h18.853c1.42 0 2.571 1.151 2.571 2.571v0 14.286c0 1.42-1.151 2.571-2.571 2.571v0h-18.851c-1.42 0-2.571-1.151-2.571-2.571v0-14.286z"></path>
</svg>
