<!-- Generated by IcoMoon.io -->
<svg version="1.1" xmlns="http://www.w3.org/2000/svg" width="32" height="32" viewBox="0 0 32 32">
<title>vote</title>
<path d="M27.331 20.667h-22.664v6.667h22.664v-6.667zM29.26 19.296l0.028 0.083 0.031 0.133 0.013 0.133v8.688c-0 0.505-0.375 0.923-0.861 0.99l-0.005 0.001-0.133 0.009h-24.665c-0.504-0-0.921-0.373-0.99-0.859l-0.001-0.005-0.009-0.136v-8.667l0.003-0.069 0.013-0.115c0.015-0.077 0.037-0.146 0.065-0.21l-0.002 0.006 3.68-8.025c0.141-0.304 0.423-0.522 0.758-0.573l0.006-0.001 0.144-0.009 3.387-0.001-1.053 1.827-0.089 0.173h-1.604l-2.749 5.997h21.536l-2.703-5.795 1.149-1.996c0.089 0.067 0.167 0.151 0.229 0.245l0.071 0.127 3.753 8.048zM17.82 2.741l0.123 0.060 6.917 4.004c0.437 0.253 0.611 0.788 0.425 1.244l-0.060 0.123-3.743 6.495h1.517c0.003-0 0.007-0 0.010-0 0.552 0 1 0.448 1 1 0 0.508-0.379 0.927-0.869 0.991l-0.005 0.001-0.136 0.009-2.669-0.001v0.004l-11.331-0.004c-0.548-0.005-0.991-0.451-0.991-1 0-0.501 0.368-0.916 0.849-0.989l0.006-0.001 0.136-0.009 2.431-0.001-0.243-0.14c-0.3-0.177-0.498-0.499-0.498-0.866 0-0.136 0.027-0.266 0.076-0.384l-0.002 0.007 0.059-0.123 5.756-9.995c0.253-0.439 0.787-0.613 1.241-0.427zM17.807 5.035l-4.755 8.259 2.371 1.373h3.756l3.82-6.631-5.189-3.004z"></path>
</svg>
