<!-- Generated by IcoMoon.io -->
<svg version="1.1" xmlns="http://www.w3.org/2000/svg" width="32" height="32" viewBox="0 0 32 32">
<title>vote</title>
<path d="M27.331 20.667h-22.664v6.667h22.664v-6.667zM29.259 19.296l0.029 0.082 0.031 0.134 0.012 0.131v8.689c0 0.506-0.376 0.925-0.864 0.991l-0.136 0.009h-24.664c-0.506 0-0.925-0.376-0.991-0.864l-0.009-0.136v-8.666l0.002-0.071 0.014-0.114c0.014-0.072 0.034-0.14 0.062-0.205l3.679-8.025c0.143-0.311 0.432-0.524 0.764-0.573l0.145-0.011 3.386-0.001-1.052 1.827-0.091 0.173-1.602 0-2.751 5.997h21.536l-2.703-5.795 1.15-1.996c0.089 0.068 0.167 0.151 0.229 0.246l0.070 0.126 3.753 8.048zM17.82 2.741l0.122 0.060 6.917 4.004c0.438 0.253 0.611 0.789 0.425 1.245l-0.060 0.122-3.742 6.496 1.517 0.001c0.552 0 1 0.448 1 1 0 0.506-0.376 0.925-0.864 0.991l-0.136 0.009-2.669-0.001-0.001 0.004-11.329-0.003c-0.552 0-1-0.448-1-1 0-0.506 0.376-0.925 0.864-0.991l0.136-0.009 2.431-0.001-0.242-0.14c-0.438-0.253-0.611-0.789-0.425-1.245l0.060-0.122 5.756-9.994c0.253-0.439 0.787-0.613 1.241-0.426zM17.808 5.034l-4.757 8.261 2.371 1.373h3.756l3.82-6.63-5.189-3.004z"></path>
</svg>
