<!-- Generated by IcoMoon.io -->
<svg version="1.1" xmlns="http://www.w3.org/2000/svg" width="32" height="32" viewBox="0 0 32 32">
<title>walkie-talkie-regular</title>
<path d="M13.429 18.857c-0.473 0-0.857 0.384-0.857 0.857s0.384 0.857 0.857 0.857v0h5.143c0.473 0 0.857-0.384 0.857-0.857s-0.384-0.857-0.857-0.857v0h-5.143zM11.714 8c-0.473 0-0.857 0.384-0.857 0.857v0 6.286c0 0.474 0.384 0.857 0.857 0.857h8.571c0.473 0 0.857-0.384 0.857-0.857v0-6.286c0-0.473-0.384-0.857-0.857-0.857v0h-8.571zM12.571 14.286v-4.571h6.857v4.571h-6.857zM11.714 1.143c0.473 0 0.857 0.384 0.857 0.857v0 2h10c1.42 0 2.571 1.151 2.571 2.571v0 11.714c-0 0.219-0.083 0.419-0.218 0.57l0.001-0.001-2.069 2.328v5.389c0 1.42-1.151 2.571-2.571 2.571v0h-8.571c-1.42 0-2.571-1.151-2.571-2.571v0-5.389l-2.069-2.328c-0.135-0.151-0.217-0.35-0.217-0.569v-11.714c0-1.42 1.151-2.571 2.571-2.571v0h1.429v-2c0-0.473 0.384-0.857 0.857-0.857v0zM8.571 6.571v11.389l2.069 2.328c0.135 0.151 0.217 0.35 0.217 0.569v5.714c0 0.473 0.384 0.857 0.857 0.857h8.571c0.473 0 0.857-0.384 0.857-0.857v0-5.714c0-0.219 0.083-0.419 0.218-0.57l-0.001 0.001 2.069-2.328v-11.389c0-0.473-0.384-0.857-0.857-0.857v0h-13.143c-0.473 0-0.857 0.384-0.857 0.857v0z"></path>
</svg>
