<!-- Generated by IcoMoon.io -->
<svg version="1.1" xmlns="http://www.w3.org/2000/svg" width="32" height="32" viewBox="0 0 32 32">
<title>walkie-talkie</title>
<path d="M13.667 18.667c-0.552 0-1 0.448-1 1s0.448 1 1 1h4.667c0.552 0 1-0.448 1-1s-0.448-1-1-1h-4.667z"></path>
<path d="M11.667 8c-0.552 0-1 0.448-1 1v6.001c0 0.552 0.448 1 1 1h8.667c0.552 0 1-0.448 1-1v-6.001c0-0.552-0.448-1-1-1h-8.667zM12.667 14.001v-4.001h6.667v4.001h-6.667z"></path>
<path d="M11.667 1.333c0.552 0 1 0.448 1 1v1.667h9.667c1.657 0 3 1.343 3 3v11.667c0 0.251-0.095 0.494-0.265 0.678l-1.735 1.879v5.109c0 1.657-1.343 3-3 3h-8.665c-1.657 0-3-1.343-3-3v-5.109l-1.736-1.879c-0.171-0.185-0.265-0.427-0.265-0.679v-11.667c0-1.657 1.343-3 3-3h1v-1.667c0-0.552 0.448-1 1-1zM8.667 7v11.275l1.736 1.879c0.171 0.185 0.265 0.427 0.265 0.679v5.5c0 0.552 0.448 1 1 1h8.665c0.552 0 1-0.448 1-1v-5.5c0-0.251 0.095-0.494 0.265-0.678l1.735-1.879v-11.276c0-0.552-0.448-1-1-1h-12.667c-0.552 0-1 0.448-1 1z"></path>
</svg>
