<!-- Generated by IcoMoon.io -->
<svg version="1.1" xmlns="http://www.w3.org/2000/svg" width="32" height="32" viewBox="0 0 32 32">
<title>wallpaper-regular</title>
<path d="M4 8.333c0-2.393 1.94-4.333 4.333-4.333v0h5.333c0.552 0 1 0.448 1 1s-0.448 1-1 1v0h-5.333c-1.289 0-2.333 1.045-2.333 2.333v0 5.333c0 0.552-0.448 1-1 1s-1-0.448-1-1v0-5.333zM17.333 5c0-0.552 0.448-1 1-1v0h5.333c2.393 0 4.333 1.94 4.333 4.333v0 5.333c0 0.552-0.448 1-1 1s-1-0.448-1-1v0-5.333c0-1.289-1.045-2.333-2.333-2.333v0h-5.333c-0.552 0-1-0.448-1-1v0zM5 17.333c0.552 0 1 0.448 1 1v0 5.333c0 0.275 0.048 0.539 0.135 0.784l7.508-7.507c0.603-0.603 1.437-0.977 2.357-0.977s1.754 0.373 2.357 0.977l7.507 7.507c0.088-0.245 0.136-0.509 0.136-0.784v-5.333c0-0.552 0.448-1 1-1s1 0.448 1 1v0 5.333c0 2.393-1.94 4.333-4.333 4.333v0h-5.333c-0.552 0-1-0.448-1-1s0.448-1 1-1v0h5.333c0.275 0 0.539-0.048 0.784-0.135l-7.507-7.508c-0.241-0.242-0.575-0.391-0.943-0.391s-0.702 0.149-0.943 0.391v0l-7.508 7.507c0.245 0.088 0.509 0.136 0.784 0.136h5.333c0.552 0 1 0.448 1 1s-0.448 1-1 1v0h-5.333c-2.393 0-4.333-1.94-4.333-4.333v0-5.333c0-0.552 0.448-1 1-1v0zM20.333 10.667c-0.552 0-1 0.448-1 1s0.448 1 1 1v0c0.552 0 1-0.448 1-1s-0.448-1-1-1v0zM17.333 11.667c0-1.657 1.343-3 3-3s3 1.343 3 3v0c0 1.657-1.343 3-3 3s-3-1.343-3-3v0z"></path>
</svg>
