<!-- Generated by IcoMoon.io -->
<svg version="1.1" xmlns="http://www.w3.org/2000/svg" width="32" height="32" viewBox="0 0 32 32">
<title>wallpaper</title>
<path d="M19.333 17.925l0.206 0.195 7.771 7.822 0.014-0.103 0.009-0.17v-7.337c0-0.552 0.448-1 1-1 0.506 0 0.925 0.376 0.991 0.864l0.009 0.136v7.337c0 1.95-1.522 3.545-3.443 3.66l-0.223 0.007h-7.333c-0.552 0-1-0.448-1-1 0-0.506 0.376-0.925 0.864-0.991l0.136-0.009h7.333c0.066 0 0.131-0.004 0.195-0.011l-7.736-7.79c-1.116-1.116-2.892-1.169-4.070-0.159l-0.172 0.159-7.822 7.779 0.102 0.014 0.17 0.009h7.333l0.136 0.009c0.488 0.066 0.864 0.485 0.864 0.991s-0.376 0.925-0.864 0.991l-0.136 0.009-7.557-0.007c-1.844-0.111-3.321-1.585-3.436-3.428l-0.007-0.232v-7.337l0.009-0.136c0.066-0.488 0.485-0.864 0.991-0.864s0.925 0.376 0.991 0.864l0.009 0.136v7.337l0.012 0.195 7.79-7.744c1.885-1.885 4.902-1.95 6.865-0.195zM21.365 8.016c1.478 0 2.676 1.198 2.676 2.676s-1.198 2.676-2.676 2.676c-1.478 0-2.676-1.198-2.676-2.676s1.198-2.676 2.676-2.676zM13.667 2.665c0.552 0 1 0.448 1 1 0 0.506-0.376 0.925-0.864 0.991l-0.136 0.009h-7.333c-0.863 0-1.573 0.656-1.658 1.496l-0.009 0.17v7.337c0 0.552-0.448 1-1 1-0.506 0-0.925-0.376-0.991-0.864l-0.009-0.136v-7.337c0-1.95 1.522-3.545 3.443-3.66l0.223-0.007h7.333zM25.667 2.665l0.223 0.007c1.844 0.111 3.321 1.585 3.436 3.428l0.007 0.232v7.337l-0.009 0.136c-0.066 0.488-0.485 0.864-0.991 0.864s-0.925-0.376-0.991-0.864l-0.009-0.136v-7.337l-0.009-0.17c-0.080-0.784-0.703-1.408-1.488-1.488l-0.17-0.009h-7.333l-0.136-0.009c-0.488-0.066-0.864-0.485-0.864-0.991s0.376-0.925 0.864-0.991l0.136-0.009h7.333zM21.365 10.016c-0.373 0-0.676 0.303-0.676 0.676s0.303 0.676 0.676 0.676c0.373 0 0.676-0.303 0.676-0.676s-0.303-0.676-0.676-0.676z"></path>
</svg>
