<!-- Generated by IcoMoon.io -->
<svg version="1.1" xmlns="http://www.w3.org/2000/svg" width="32" height="32" viewBox="0 0 32 32">
<title>wallet-regular</title>
<path d="M21.5 17.333c-0.46 0-0.833 0.373-0.833 0.833s0.373 0.833 0.833 0.833v0h3c0.46 0 0.833-0.373 0.833-0.833s-0.373-0.833-0.833-0.833v0h-3zM4 6.667v17.167c0 2.301 1.865 4.167 4.167 4.167v0h16.333c2.301 0 4.167-1.865 4.167-4.167v0-11.667c-0-2.006-1.418-3.682-3.306-4.079l-0.027-0.005v-1.25c0-1.565-1.269-2.833-2.833-2.833v0h-15.667c-0 0-0 0-0 0-1.506 0-2.738 1.175-2.828 2.659l-0 0.008h-0.005zM23.667 6.833v1.167h-16.833c-0.644 0-1.167-0.522-1.167-1.167s0.522-1.167 1.167-1.167v0h15.667c0.645 0 1.167 0.523 1.167 1.167zM5.667 9.667h18.833c1.381 0 2.5 1.119 2.5 2.5v0 11.667c0 1.381-1.119 2.5-2.5 2.5v0h-16.333c-1.381 0-2.5-1.119-2.5-2.5v0-14.167z"></path>
</svg>
