<!-- Generated by IcoMoon.io -->
<svg version="1.1" xmlns="http://www.w3.org/2000/svg" width="32" height="32" viewBox="0 0 32 32">
<title>wallet</title>
<path d="M20.667 18.333c0-0.552 0.448-1 1-1h2.667c0.552 0 1 0.448 1 1s-0.448 1-1 1h-2.667c-0.552 0-1-0.448-1-1zM4 6.667h0.018c0.166-1.5 1.438-2.667 2.982-2.667h15.333c1.657 0 3 1.343 3 3v1.116c1.911 0.451 3.333 2.168 3.333 4.217v11.333c0 2.393-1.94 4.333-4.333 4.333h-16c-2.393 0-4.333-1.94-4.333-4.333v-17zM24.333 10h-18.333v13.667c0 1.289 1.045 2.333 2.333 2.333h16c1.289 0 2.333-1.045 2.333-2.333v-11.333c0-1.289-1.045-2.333-2.333-2.333zM23.333 8v-1c0-0.552-0.448-1-1-1h-15.333c-0.552 0-1 0.448-1 1s0.448 1 1 1h16.333z"></path>
</svg>
