<!-- Generated by IcoMoon.io -->
<svg version="1.1" xmlns="http://www.w3.org/2000/svg" width="32" height="32" viewBox="0 0 32 32">
<title>wand</title>
<path d="M25.167 4c0.46 0 0.833 0.373 0.833 0.833v1.167h1.167c0.46 0 0.833 0.373 0.833 0.833s-0.373 0.833-0.833 0.833v0h-1.167v1.167c0 0.46-0.373 0.833-0.833 0.833s-0.833-0.373-0.833-0.833v0-1.167h-1.167c-0.46 0-0.833-0.373-0.833-0.833s0.373-0.833 0.833-0.833v0h1.167v-1.167c0-0.46 0.373-0.833 0.833-0.833zM10 7.5c0-0.46-0.373-0.833-0.833-0.833s-0.833 0.373-0.833 0.833v0 1.167h-1.167c-0.46 0-0.833 0.373-0.833 0.833s0.373 0.833 0.833 0.833v0h1.167v1.167c0 0.46 0.373 0.833 0.833 0.833s0.833-0.373 0.833-0.833v0-1.167h1.167c0.46 0 0.833-0.373 0.833-0.833s-0.373-0.833-0.833-0.833v0h-1.167v-1.167zM22.5 20c0.46 0 0.833 0.373 0.833 0.833v1.167h1.167c0.46 0 0.833 0.373 0.833 0.833s-0.373 0.833-0.833 0.833v0h-1.167v1.167c0 0.46-0.373 0.833-0.833 0.833s-0.833-0.373-0.833-0.833v0-1.167h-1.167c-0.46 0-0.833-0.373-0.833-0.833s0.373-0.833 0.833-0.833v0h1.167v-1.167c0-0.46 0.373-0.833 0.833-0.833zM17.26 10.269c0.573-0.576 1.367-0.932 2.244-0.932 1.749 0 3.167 1.418 3.167 3.167 0 0.877-0.356 1.67-0.932 2.244l-13.663 13.663c-0.573 0.57-1.362 0.923-2.234 0.923-1.749 0-3.167-1.418-3.167-3.167 0-0.872 0.353-1.662 0.923-2.235l13.663-13.663zM16.353 13.533l-11.577 11.577c-0.271 0.271-0.439 0.646-0.439 1.061 0 0.828 0.672 1.5 1.5 1.5 0.414 0 0.789-0.168 1.061-0.439v0l11.579-11.578-2.121-2.121zM19.653 14.476l0.907-0.906c0.271-0.271 0.439-0.646 0.439-1.061 0-0.829-0.672-1.5-1.5-1.5-0.414 0-0.79 0.168-1.061 0.44l-0.905 0.905 2.121 2.121z"></path>
</svg>
