<!-- Generated by IcoMoon.io -->
<svg version="1.1" xmlns="http://www.w3.org/2000/svg" width="32" height="32" viewBox="0 0 32 32">
<title>warning-shield</title>
<path d="M16.504 2.963c-0.416-0.747-1.202-1.244-2.103-1.244s-1.687 0.497-2.097 1.232l-0.006 0.012-10.494 19.080c-0.187 0.334-0.297 0.732-0.297 1.157 0 1.325 1.075 2.4 2.4 2.4 0 0 0.001 0 0.001 0h12.694c-0.159-0.444-0.301-0.982-0.401-1.535l-0.010-0.065h-12.283c-0 0-0 0-0.001 0-0.442 0-0.8-0.358-0.8-0.8 0-0.141 0.036-0.273 0.1-0.388l-0.002 0.004 10.496-19.082c0.139-0.248 0.4-0.413 0.7-0.413s0.561 0.165 0.698 0.409l0.002 0.004 5.976 10.864c0.47-0.315 0.88-0.659 1.249-1.041l0.002-0.002-5.824-10.592z"></path>
<path d="M14.4 9.6c0.442 0 0.8 0.358 0.8 0.8v0 6.4c0 0.442-0.358 0.8-0.8 0.8s-0.8-0.358-0.8-0.8v0-6.4c0-0.442 0.358-0.8 0.8-0.8v0zM14.4 21.6c0.663 0 1.2-0.537 1.2-1.2s-0.537-1.2-1.2-1.2v0c-0.663 0-1.2 0.537-1.2 1.2s0.537 1.2 1.2 1.2v0zM25.6 15.624c0.517 0.39 1.050 0.701 1.6 0.931 0.745 0.324 1.614 0.512 2.526 0.512 0.012 0 0.024-0 0.036-0h-0.002c0.309 0 0.568 0.229 0.627 0.533l0.013 0.134v4c0 4.293-2.101 7.21-6.197 8.632-0.061 0.022-0.13 0.034-0.203 0.034s-0.143-0.013-0.207-0.036l0.004 0.001c-1.16-0.403-2.16-0.926-2.997-1.566-1.087-0.822-1.938-1.901-2.469-3.15l-0.019-0.050c-0.427-1.018-0.662-2.165-0.704-3.44l-0.008-0.424v-4.002c0-0.368 0.288-0.667 0.64-0.667 1.957 0 3.717-0.816 5.309-2.472 0.114-0.12 0.275-0.195 0.453-0.195s0.339 0.075 0.453 0.195l0 0c0.371 0.389 0.754 0.731 1.146 1.029z"></path>
</svg>
