<!-- Generated by IcoMoon.io -->
<svg version="1.1" xmlns="http://www.w3.org/2000/svg" width="32" height="32" viewBox="0 0 32 32">
<title>washer-regular</title>
<path d="M16 10.667c-3.866 0-7 3.134-7 7s3.134 7 7 7 7-3.134 7-7-3.134-7-7-7zM10.667 17.667c0-0.001 0-0.003 0-0.004 0-2.946 2.388-5.333 5.333-5.333 2.637 0 4.827 1.914 5.257 4.428l0.004 0.032-0.015 0.017c-0.308 0.331-0.627 0.673-1.213 0.926-0.709 0.307-1.879 0.489-3.898-0.016-2.253-0.563-3.771-0.228-4.833 0.43-0.212 0.133-0.395 0.268-0.568 0.415l0.007-0.005c-0.047-0.266-0.073-0.572-0.073-0.884 0-0.002 0-0.003 0-0.005v0zM12 8.167c0 0.736-0.597 1.333-1.333 1.333s-1.333-0.597-1.333-1.333v0c0-0.736 0.597-1.333 1.333-1.333s1.333 0.597 1.333 1.333v0zM16.833 7.333c-0.46 0-0.833 0.373-0.833 0.833s0.373 0.833 0.833 0.833v0h5c0.46 0 0.833-0.373 0.833-0.833s-0.373-0.833-0.833-0.833v0h-5zM8.167 4c-2.301 0-4.167 1.865-4.167 4.167v0 15.667c0 2.301 1.865 4.167 4.167 4.167v0h15.667c2.301 0 4.167-1.865 4.167-4.167v0-15.667c0-2.301-1.865-4.167-4.167-4.167v0h-15.667zM5.667 8.167c0-1.381 1.119-2.5 2.5-2.5v0h15.667c1.381 0 2.5 1.119 2.5 2.5v0 15.667c0 1.381-1.119 2.5-2.5 2.5v0h-15.667c-1.381 0-2.5-1.119-2.5-2.5v0-15.667z"></path>
</svg>
