<!-- Generated by IcoMoon.io -->
<svg version="1.1" xmlns="http://www.w3.org/2000/svg" width="32" height="32" viewBox="0 0 32 32">
<title>water</title>
<path d="M25.443 6.198c-0.124-0.314-0.425-0.531-0.777-0.531s-0.652 0.218-0.775 0.526l-0.002 0.006c-0.753 1.939-2.206 2.797-3.557 2.797s-2.803-0.858-3.557-2.797c-0.124-0.314-0.425-0.531-0.777-0.531s-0.652 0.218-0.775 0.526l-0.002 0.006c-0.753 1.939-2.206 2.797-3.557 2.797s-2.803-0.859-3.557-2.797c-0.124-0.314-0.425-0.531-0.777-0.531s-0.652 0.218-0.775 0.526l-0.002 0.006c-0.778 2.006-2.207 2.801-3.057 2.801-0.46 0-0.833 0.373-0.833 0.833s0.373 0.833 0.833 0.833v0c1.347 0 2.809-0.859 3.84-2.382 1.081 1.55 2.673 2.378 4.327 2.378 1.657 0 3.252-0.831 4.333-2.387 1.081 1.555 2.676 2.387 4.333 2.387 1.654 0 3.247-0.829 4.327-2.38 1.030 1.524 2.493 2.384 3.839 2.384 0.46 0 0.833-0.373 0.833-0.833s-0.373-0.833-0.833-0.833v0c-0.849 0-2.279-0.799-3.057-2.802zM24.667 13.667c0.344 0 0.652 0.211 0.777 0.531 0.778 2.003 2.207 2.802 3.057 2.802 0.46 0 0.833 0.373 0.833 0.833s-0.373 0.833-0.833 0.833v0c-1.347 0-2.809-0.86-3.839-2.383-1.081 1.551-2.673 2.379-4.327 2.379-1.658 0-3.253-0.831-4.334-2.387-1.081 1.555-2.676 2.387-4.333 2.387-1.654 0-3.246-0.828-4.327-2.378-1.031 1.523-2.493 2.382-3.84 2.382-0.46 0-0.833-0.373-0.833-0.833s0.373-0.833 0.833-0.833v0c0.85 0 2.279-0.796 3.057-2.801 0.124-0.314 0.425-0.531 0.777-0.531s0.652 0.218 0.775 0.526l0.002 0.006c0.753 1.938 2.206 2.797 3.557 2.797s2.803-0.859 3.557-2.797c0.124-0.314 0.425-0.531 0.777-0.531s0.652 0.218 0.775 0.526l0.002 0.006c0.753 1.939 2.206 2.797 3.557 2.797s2.803-0.859 3.557-2.798c0.124-0.314 0.425-0.531 0.777-0.531v0zM24.667 21.667c0.344 0 0.652 0.211 0.777 0.531 0.778 2.003 2.207 2.802 3.057 2.802 0.46 0 0.833 0.373 0.833 0.833s-0.373 0.833-0.833 0.833v0c-1.347 0-2.809-0.86-3.839-2.383-1.081 1.551-2.673 2.379-4.327 2.379-1.658 0-3.253-0.831-4.334-2.387-1.081 1.555-2.676 2.387-4.333 2.387-1.654 0-3.246-0.828-4.327-2.379-1.031 1.524-2.493 2.383-3.84 2.383-0.46 0-0.833-0.373-0.833-0.833s0.373-0.833 0.833-0.833v0c0.85 0 2.279-0.796 3.057-2.801 0.124-0.314 0.425-0.531 0.777-0.531s0.652 0.218 0.775 0.526l0.002 0.006c0.753 1.938 2.206 2.797 3.557 2.797s2.803-0.859 3.557-2.797c0.124-0.314 0.425-0.531 0.777-0.531s0.652 0.218 0.775 0.526l0.002 0.006c0.753 1.939 2.206 2.797 3.557 2.797s2.803-0.858 3.557-2.797c0.124-0.314 0.425-0.531 0.777-0.531v0z"></path>
</svg>
