<!-- Generated by IcoMoon.io -->
<svg version="1.1" xmlns="http://www.w3.org/2000/svg" width="32" height="32" viewBox="0 0 32 32">
<title>weather-thunderstorm</title>
<path d="M14.188 21.3l3.011-3.659c0.154-0.186 0.385-0.304 0.644-0.304 0.46 0 0.833 0.373 0.833 0.833 0 0.17-0.051 0.328-0.138 0.46l0.002-0.003-0.053 0.073-1.89 2.296h3.239c0.673 0 1.057 0.749 0.696 1.291l-0.049 0.067-4.324 5.337c-0.154 0.188-0.386 0.306-0.646 0.306-0.46 0-0.833-0.373-0.833-0.833 0-0.166 0.049-0.322 0.133-0.452l-0.002 0.003 0.053-0.073 3.223-3.979h-3.256c-0.676 0-1.060-0.755-0.693-1.296l0.050-0.067zM17.333 6.679c4.225 0 6.621 2.796 6.97 6.173h0.107c2.719 0 4.923 2.199 4.923 4.91s-2.204 4.91-4.923 4.91l-2.749 0.001c0.211-0.276 0.339-0.625 0.339-1.005 0-0 0-0.001 0-0.001v0c0-0.233-0.048-0.456-0.135-0.658h2.671c1.729 0 3.131-1.409 3.131-3.147s-1.402-3.148-3.131-3.148h-0.947c-0.501 0-0.939-0.395-0.939-0.897 0-3.216-2.476-5.474-5.317-5.474s-5.317 2.299-5.317 5.473c0 0.503-0.437 0.898-0.938 0.898h-0.947c-1.729 0-3.131 1.409-3.131 3.148s1.402 3.147 3.131 3.147h2.669c-0.087 0.201-0.135 0.424-0.135 0.658 0 0.378 0.126 0.727 0.337 1.007l-2.747-0.001c-2.719 0-4.923-2.198-4.923-4.91 0-2.657 2.117-4.822 4.76-4.907l0.269-0.003c0.351-3.399 2.745-6.173 6.97-6.173zM13.332 2.667c0.001 0 0.002 0 0.003 0 2.146 0 4.040 1.075 5.175 2.715l0.014 0.021c-0.359-0.045-0.774-0.070-1.196-0.070-0.386 0-0.767 0.021-1.142 0.063l0.046-0.004c-0.772-0.672-1.788-1.082-2.9-1.083h-0c-2.19 0-4.055 1.615-4.429 3.797l-0.209 1.22c-0.056 0.317-0.329 0.554-0.657 0.554-0 0-0 0-0 0h-1.298c-1.375 0-2.49 1.14-2.49 2.547 0 0.737 0.306 1.401 0.795 1.867-0.272 0.402-0.507 0.862-0.683 1.351l-0.013 0.043c-1.028-0.808-1.682-2.052-1.682-3.449 0-2.417 1.959-4.376 4.376-4.376h0.095c0.54-2.972 3.108-5.196 6.196-5.197h0z"></path>
</svg>
