<!-- Generated by IcoMoon.io -->
<svg version="1.1" xmlns="http://www.w3.org/2000/svg" width="32" height="32" viewBox="0 0 32 32">
<title>weather-moon-off</title>
<path d="M4.374 2.96c-0.391-0.391-1.024-0.391-1.414-0s-0.391 1.024-0 1.414l10.924 10.924c-1.569 2.929-4.255 4.988-9.224 6.766-0.618 0.221-0.859 0.968-0.487 1.509 1.114 1.617 2.576 2.974 4.313 3.977 5.223 3.015 11.637 2.096 15.812-1.838l3.329 3.329c0.391 0.391 1.024 0.391 1.414 0s0.391-1.024 0-1.414l-24.666-24.667zM22.882 24.297c-3.549 3.309-8.975 4.073-13.397 1.521-1.094-0.632-2.059-1.427-2.87-2.355 4.358-1.74 7.041-3.84 8.736-6.697l7.531 7.531z"></path>
<path d="M20.821 6.184c5.22 3.014 7.136 9.552 4.478 14.873l1.479 1.479c3.576-6.358 1.377-14.427-4.957-18.083-1.839-1.062-3.867-1.658-5.943-1.77-0.67-0.036-1.184 0.584-1.025 1.236 0.674 2.76 0.807 5.082 0.471 7.163l1.688 1.688c0.606-2.347 0.662-4.928 0.086-7.939 1.297 0.226 2.554 0.679 3.723 1.354z"></path>
</svg>
