<!-- Generated by IcoMoon.io -->
<svg version="1.1" xmlns="http://www.w3.org/2000/svg" width="32" height="32" viewBox="0 0 32 32">
<title>weather-rain</title>
<path d="M15.999 4.667c4.225 0 6.621 2.797 6.97 6.173h0.107c2.719 0 4.923 2.199 4.923 4.91s-2.204 4.91-4.923 4.91l-1.149 0.001c-0.011 0.028-0.020 0.048-0.029 0.069l0.003-0.006-0.044 0.085-2.333 4.042c-0.176 0.301-0.498 0.5-0.866 0.5-0.552 0-1-0.448-1-1 0-0.15 0.033-0.293 0.093-0.421l-0.003 0.006 0.044-0.086 1.842-3.19-2.864 0.001-0.026 0.063-0.044 0.085-2.333 4.042c-0.176 0.301-0.498 0.5-0.866 0.5-0.552 0-1-0.448-1-1 0-0.15 0.033-0.293 0.093-0.421l-0.003 0.006 0.044-0.086 1.841-3.19-2.863 0.001c-0.011 0.028-0.020 0.049-0.029 0.069l0.003-0.006-0.043 0.085-2.333 4.042c-0.175 0.304-0.499 0.506-0.869 0.506-0.552 0-1-0.448-1-1 0-0.153 0.034-0.297 0.095-0.427l-0.003 0.006 0.044-0.086 1.842-3.19h-0.395c-2.719 0-4.923-2.198-4.923-4.91s2.204-4.91 4.923-4.91h0.107c0.351-3.399 2.745-6.173 6.971-6.173zM15.999 6.33c-2.841 0-5.317 2.299-5.317 5.473 0 0.503-0.437 0.899-0.939 0.899h-0.947c-1.729 0-3.131 1.409-3.131 3.147s1.402 3.148 3.131 3.148h14.404c1.729 0 3.131-1.409 3.131-3.147s-1.402-3.148-3.131-3.148h-0.947c-0.501 0-0.939-0.395-0.939-0.897 0-3.216-2.476-5.473-5.317-5.473z"></path>
</svg>
