<!-- Generated by IcoMoon.io -->
<svg version="1.1" xmlns="http://www.w3.org/2000/svg" width="32" height="32" viewBox="0 0 32 32">
<title>weather-moon</title>
<path d="M26.701 22.668c-3.683 6.378-11.838 8.563-18.217 4.881-1.737-1.003-3.199-2.359-4.313-3.977-0.372-0.541-0.131-1.287 0.487-1.509 5.023-1.798 7.714-3.881 9.275-6.861 1.644-3.137 2.068-6.574 0.919-11.285-0.159-0.651 0.355-1.272 1.025-1.236 2.076 0.111 4.104 0.708 5.943 1.77 6.378 3.682 8.564 11.838 4.881 18.217zM15.705 16.131c-1.668 3.185-4.415 5.465-9.090 7.332 0.811 0.928 1.776 1.723 2.87 2.355 5.422 3.13 12.354 1.273 15.484-4.149s1.273-12.354-4.149-15.485c-1.169-0.675-2.426-1.128-3.723-1.354 0.863 4.512 0.306 8.058-1.392 11.301z"></path>
</svg>
