<!-- Generated by IcoMoon.io -->
<svg version="1.1" xmlns="http://www.w3.org/2000/svg" width="32" height="32" viewBox="0 0 32 32">
<title>weather-fog</title>
<path d="M10.165 25.333h11.671c0.007-0 0.015-0 0.023-0 0.459 0 0.831 0.372 0.831 0.831 0 0.437-0.337 0.795-0.766 0.829l-0.003 0-0.085 0.004h-11.671c-0.007 0-0.015 0-0.023 0-0.459 0-0.831-0.372-0.831-0.831 0-0.437 0.337-0.795 0.766-0.829l0.003-0 0.085-0.004zM6.165 22h19.67c0.001 0 0.003 0 0.004 0 0.459 0 0.832 0.372 0.832 0.832 0 0.431-0.327 0.785-0.747 0.828l-0.003 0-0.085 0.004h-19.669c-0.001 0-0.003 0-0.004 0-0.46 0-0.832-0.372-0.832-0.832 0-0.431 0.327-0.785 0.747-0.828l0.003-0 0.085-0.004zM16 4.667c4.225 0 6.621 2.797 6.97 6.173h0.107c2.719 0 4.923 2.199 4.923 4.91s-2.204 4.91-4.923 4.91h-14.153c-2.719 0-4.923-2.198-4.923-4.91s2.204-4.91 4.923-4.91h0.107c0.351-3.399 2.745-6.173 6.971-6.173zM16 6.33c-2.841 0-5.317 2.299-5.317 5.473 0 0.503-0.437 0.899-0.939 0.899h-0.947c-1.729 0-3.131 1.409-3.131 3.147s1.402 3.148 3.131 3.148h14.404c1.729 0 3.131-1.409 3.131-3.147s-1.402-3.148-3.131-3.148h-0.947c-0.501 0-0.939-0.395-0.939-0.897 0-3.216-2.476-5.473-5.317-5.473z"></path>
</svg>
