<!-- Generated by IcoMoon.io -->
<svg version="1.1" xmlns="http://www.w3.org/2000/svg" width="32" height="32" viewBox="0 0 32 32">
<title>weather-haze</title>
<path d="M6.667 25.175l-0.104 0.056c-0.115 0.064-0.253 0.102-0.399 0.102-0.46 0-0.833-0.373-0.833-0.833 0-0.314 0.174-0.587 0.43-0.73l0.004-0.002c1.988-1.085 3.776-1.337 5.546-1.011 1.723 0.319 3.375 1.179 5.105 2.189 3.168 1.847 6.861 1.354 8.93-0.124 0.137-0.102 0.309-0.163 0.495-0.163 0.46 0 0.833 0.373 0.833 0.833 0 0.283-0.141 0.533-0.357 0.684l-0.003 0.002c-2.597 1.855-6.997 2.389-10.738 0.207-1.725-1.006-3.156-1.728-4.568-1.989-1.338-0.247-2.709-0.087-4.341 0.779zM24 23.322c0.133-0.042 0.263-0.087 0.391-0.135 0.735-0.273 1.37-0.613 1.95-1.026l-0.025 0.017c0.219-0.152 0.36-0.403 0.36-0.686 0-0.46-0.373-0.833-0.833-0.833-0.186 0-0.359 0.061-0.497 0.165l0.002-0.002c-2.069 1.478-5.762 1.971-8.93 0.124-1.73-1.009-3.381-1.87-5.105-2.189-1.77-0.327-3.557-0.073-5.547 1.011-0.261 0.144-0.434 0.418-0.434 0.732 0 0.46 0.373 0.834 0.834 0.834 0.146 0 0.284-0.038 0.404-0.104l-0.004 0.002c1.678-0.915 3.080-1.087 4.445-0.835 1.412 0.261 2.844 0.983 4.568 1.989 2.78 1.622 5.925 1.743 8.423 0.937zM8.731 16.409c0.35-0.075 0.751-0.118 1.163-0.118 0.176 0 0.351 0.008 0.523 0.023l-0.022-0.002c0.207 0.018 0.411 0.047 0.616 0.084 1.412 0.261 2.843 0.983 4.568 1.989 3.741 2.182 8.141 1.648 10.739-0.207 0.219-0.152 0.36-0.403 0.36-0.686 0-0.46-0.373-0.833-0.833-0.833-0.186 0-0.359 0.061-0.497 0.165l0.002-0.002c-2.070 1.478-5.763 1.971-8.931 0.124-1.73-1.009-3.381-1.87-5.105-2.189-1.77-0.327-3.558-0.073-5.547 1.011-0.261 0.144-0.434 0.418-0.434 0.732 0 0.46 0.373 0.834 0.834 0.834 0.146 0 0.284-0.038 0.404-0.104l-0.004 0.002c0.773-0.421 1.487-0.685 2.165-0.823zM21.613 16c0 0.147-0.005 0.293-0.017 0.437 0.622-0.063 1.192-0.202 1.729-0.408l-0.045 0.015v-0.045c0-4.020-3.259-7.28-7.28-7.28-2.94 0-5.473 1.743-6.621 4.253 0.617-0.035 1.23-0.007 1.843 0.081 1.005-1.61 2.768-2.666 4.777-2.666 3.1 0 5.613 2.512 5.613 5.612v0zM16.050 29.333c-0.016 0.001-0.035 0.002-0.055 0.002s-0.038-0.001-0.057-0.002l0.003 0h0.109zM7.738 6.597l-0.067-0.060c-0.141-0.114-0.323-0.183-0.521-0.183-0.46 0-0.833 0.373-0.833 0.833 0 0.23 0.093 0.438 0.244 0.589v0l1.432 1.432 0.068 0.060c0.141 0.113 0.322 0.181 0.518 0.181 0.46 0 0.833-0.373 0.833-0.833 0-0.229-0.092-0.436-0.241-0.586l-1.432-1.432zM25.49 7.707c0.114-0.141 0.183-0.323 0.183-0.521 0-0.46-0.373-0.833-0.833-0.833-0.23 0-0.439 0.093-0.589 0.244l-1.432 1.432-0.060 0.068c-0.113 0.141-0.181 0.322-0.181 0.518 0 0.46 0.373 0.833 0.833 0.833 0.229 0 0.436-0.092 0.586-0.241l1.432-1.432 0.061-0.068zM16.829 3.413c-0.043-0.424-0.398-0.752-0.829-0.752-0.46 0-0.833 0.373-0.833 0.833 0 0.001 0 0.003 0 0.004v-0 2.025l0.005 0.085c0.046 0.421 0.399 0.745 0.829 0.745 0.459 0 0.831-0.371 0.833-0.83v-2.026l-0.004-0.085z"></path>
</svg>
