<!-- Generated by IcoMoon.io -->
<svg version="1.1" xmlns="http://www.w3.org/2000/svg" width="32" height="32" viewBox="0 0 32 32">
<title>weather-snowflake</title>
<path d="M15.667 2.667c0.506 0 0.925 0.376 0.991 0.864l0.009 0.136-0.001 4.461 2.897-2.543c0.415-0.365 1.047-0.324 1.411 0.091s0.324 1.047-0.091 1.411l-4.217 3.704-0.001 3.875h3.879l3.706-4.214c0.331-0.377 0.884-0.445 1.293-0.18l0.118 0.089c0.377 0.332 0.445 0.884 0.18 1.293l-0.089 0.118-2.544 2.892 4.46 0.001c0.506 0 0.925 0.376 0.991 0.864l0.009 0.136c0 0.506-0.376 0.925-0.864 0.991l-0.136 0.009-4.464 0 2.545 2.897c0.331 0.377 0.328 0.934 0.013 1.306l-0.104 0.106c-0.377 0.331-0.934 0.328-1.306 0.013l-0.106-0.104-3.705-4.217-3.877-0.001 0.001 3.877 4.218 3.706c0.377 0.331 0.445 0.884 0.181 1.293l-0.089 0.118c-0.331 0.377-0.884 0.445-1.293 0.181l-0.118-0.089-2.898-2.546-0.002 4.463c-0 0.506-0.376 0.925-0.865 0.991l-0.136 0.009c-0.506 0-0.925-0.376-0.991-0.865l-0.009-0.136-0.001-4.459-2.89 2.542c-0.415 0.365-1.047 0.324-1.411-0.091s-0.324-1.047 0.091-1.411l4.212-3.704v-3.879h-3.58l-3.996 4.55c-0.365 0.415-0.996 0.456-1.411 0.091s-0.456-0.996-0.091-1.411l2.837-3.229-4.755 0.001c-0.506 0-0.925-0.376-0.991-0.864l-0.009-0.136c0-0.506 0.376-0.925 0.864-0.991l0.136-0.009h4.165l-2.248-2.563c-0.364-0.415-0.323-1.047 0.092-1.411s1.047-0.323 1.411 0.092l3.406 3.881h4.171v-3.877l-4.213-3.704c-0.377-0.332-0.445-0.884-0.18-1.293l0.089-0.118c0.332-0.377 0.884-0.445 1.293-0.18l0.118 0.089 2.894 2.544 0.001-4.459c0-0.46 0.311-0.848 0.734-0.964l0.13-0.027 0.136-0.009z"></path>
</svg>
