<!-- Generated by IcoMoon.io -->
<svg version="1.1" xmlns="http://www.w3.org/2000/svg" width="32" height="32" viewBox="0 0 32 32">
<title>weather-rain-showers-night</title>
<path d="M17.334 8c4.225 0 6.621 2.797 6.97 6.173h0.107c2.719 0 4.923 2.199 4.923 4.91s-2.204 4.91-4.923 4.91l-1.149 0.001c-0.010 0.028-0.019 0.048-0.029 0.069l0.003-0.006-0.044 0.085-2.333 4.042c-0.175 0.304-0.499 0.506-0.869 0.506-0.552 0-1-0.448-1-1 0-0.153 0.034-0.297 0.095-0.427l-0.003 0.006 0.045-0.086 1.841-3.19-2.864 0.001-0.025 0.063-0.045 0.085-2.333 4.042c-0.176 0.301-0.498 0.5-0.866 0.5-0.552 0-1-0.448-1-1 0-0.15 0.033-0.293 0.093-0.421l-0.003 0.006 0.044-0.086 1.842-3.19-2.864 0.001-0.026 0.063-0.044 0.085-2.333 4.042c-0.175 0.304-0.499 0.506-0.869 0.506-0.552 0-1-0.448-1-1 0-0.153 0.034-0.297 0.095-0.427l-0.003 0.006 0.045-0.086 1.841-3.19h-0.395c-2.719 0-4.923-2.198-4.923-4.91s2.204-4.91 4.923-4.91h0.107c0.351-3.399 2.745-6.173 6.97-6.173zM17.334 9.663c-2.84 0-5.317 2.299-5.317 5.473 0 0.503-0.437 0.899-0.938 0.899h-0.947c-1.73 0-3.132 1.409-3.132 3.147s1.402 3.148 3.131 3.148h14.404c1.729 0 3.131-1.409 3.131-3.147s-1.402-3.148-3.131-3.148h-0.947c-0.501 0-0.939-0.395-0.939-0.897 0-3.216-2.476-5.473-5.317-5.473zM8.785 2.668c1.060 0.057 2.089 0.363 3.017 0.899 1.345 0.784 2.376 1.981 2.93 3.416l0.016 0.046c-0.562 0.16-1.046 0.354-1.504 0.591l0.045-0.021c-0.427-1.161-1.373-2.104-2.661-2.841-0.273-0.157-0.588-0.291-0.92-0.386l-0.030-0.007c0.243 2.027 0.165 3.405-0.705 5.052l-0.179 0.319c-0.863 1.465-2.138 2.331-4.083 3.227 0.215 0.212 0.541 0.461 0.808 0.649 0.302 0.213 0.615 0.395 0.935 0.545-0.463 0.362-0.863 0.773-1.203 1.232l-0.012 0.017-0.207-0.115c-0.882-0.514-1.614-1.191-2.175-1.997l-0.015-0.022c-0.111-0.159-0.177-0.355-0.177-0.568 0-0.432 0.274-0.8 0.657-0.94l0.007-0.002c2.19-0.784 3.37-1.667 4.045-2.955 0.737-1.407 0.873-2.899 0.384-4.903-0.018-0.071-0.029-0.153-0.029-0.237 0-0.553 0.448-1.001 1.001-1.001 0.019 0 0.037 0.001 0.056 0.002l-0.003-0z"></path>
</svg>
