<!-- Generated by IcoMoon.io -->
<svg version="1.1" xmlns="http://www.w3.org/2000/svg" width="32" height="32" viewBox="0 0 32 32">
<title>weather-snow-shower-day-regular</title>
<path d="M14.335 26.685c0.552 0 1 0.448 1 1s-0.448 1-1 1v0c-0.552 0-1-0.448-1-1s0.448-1 1-1v0zM20.335 26.685c0.552 0 1 0.448 1 1s-0.448 1-1 1v0c-0.552 0-1-0.448-1-1s0.448-1 1-1v0zM11.335 25.351c0.552 0 1 0.448 1 1s-0.448 1-1 1v0c-0.552 0-1-0.448-1-1s0.448-1 1-1v0zM17.335 25.351c0.552 0 1 0.448 1 1s-0.448 1-1 1v0c-0.552 0-1-0.448-1-1s0.448-1 1-1v0zM23.335 25.351c0.552 0 1 0.448 1 1s-0.448 1-1 1v0c-0.552 0-1-0.448-1-1s0.448-1 1-1v0zM17.333 8.007c4.225 0 6.621 2.796 6.97 6.173h0.107c2.719 0 4.923 2.198 4.923 4.91s-2.204 4.91-4.923 4.91h-14.153c-2.719 0-4.923-2.198-4.923-4.91s2.204-4.91 4.923-4.91h0.107c0.351-3.399 2.745-6.173 6.97-6.173zM17.333 9.67c-2.841 0-5.317 2.299-5.317 5.473 0 0.503-0.437 0.898-0.939 0.898h-0.947c-1.729 0-3.131 1.409-3.131 3.147s1.402 3.148 3.131 3.148h14.404c1.729 0 3.131-1.409 3.131-3.148s-1.402-3.147-3.131-3.147h-0.947c-0.501 0-0.939-0.395-0.939-0.899 0-3.215-2.476-5.473-5.317-5.473zM5.806 13.535c0.040 0.094 0.063 0.203 0.063 0.317 0 0.314-0.174 0.587-0.431 0.728l-0.004 0.002-0.077 0.037-1.541 0.641c-0.092 0.039-0.2 0.061-0.312 0.061-0.458 0-0.829-0.371-0.829-0.829 0-0.312 0.172-0.583 0.426-0.725l0.004-0.002 0.077-0.037 1.541-0.641c0.094-0.040 0.202-0.063 0.317-0.063 0.343 0 0.638 0.209 0.764 0.506l0.002 0.005zM14.473 7.109l-0.041 0.013c-0.616 0.201-1.189 0.468-1.713 0.793-0.422-0.183-0.913-0.29-1.429-0.29-2.025 0-3.667 1.642-3.667 3.667 0 0.712 0.203 1.376 0.554 1.939l-0.009-0.015c-0.541 0.196-1.009 0.44-1.438 0.737l0.020-0.013c-0.451-0.759-0.717-1.673-0.717-2.65 0-2.902 2.353-5.255 5.255-5.255 1.203 0 2.311 0.404 3.197 1.084l-0.012-0.009zM3.72 7.228l0.085 0.031 1.546 0.659c0.42 0.177 0.621 0.663 0.45 1.085-0.16 0.395-0.589 0.593-0.987 0.474l-0.084-0.030-1.547-0.66c-0.302-0.132-0.51-0.428-0.51-0.772 0-0.113 0.022-0.22 0.063-0.319l-0.002 0.006c0.16-0.394 0.589-0.593 0.987-0.474zM8.632 3.112l0.037 0.077 0.64 1.537c0.039 0.093 0.062 0.201 0.062 0.314 0 0.46-0.373 0.833-0.833 0.833-0.313 0-0.587-0.173-0.729-0.429l-0.002-0.004-0.037-0.077-0.64-1.537c-0.040-0.094-0.063-0.203-0.063-0.317 0-0.46 0.373-0.833 0.833-0.833 0.314 0 0.588 0.174 0.73 0.431l0.002 0.004zM14.665 2.739c0.401 0.167 0.605 0.607 0.487 1.014l-0.031 0.087-0.661 1.517c-0.129 0.31-0.429 0.524-0.779 0.524-0.465 0-0.842-0.377-0.842-0.842 0-0.085 0.013-0.168 0.036-0.246l-0.002 0.006 0.031-0.087 0.661-1.517c0.13-0.308 0.429-0.52 0.778-0.52 0.116 0 0.227 0.023 0.327 0.066l-0.006-0.002z"></path>
</svg>
