<!-- Generated by IcoMoon.io -->
<svg version="1.1" xmlns="http://www.w3.org/2000/svg" width="32" height="32" viewBox="0 0 32 32">
<title>weather-squalls</title>
<path d="M25.331 13.333c2.21 0 4.003 1.791 4.003 4 0 2.13-1.667 3.872-3.767 3.993l-0.276 0.007-0.136 0.009-1.554 0c0.255 0.497 0.398 1.060 0.398 1.657 0 2.039-1.537 3.675-3.567 3.675-2.007 0-3.221-1.176-3.547-2.804-0.109-0.541 0.243-1.069 0.784-1.177s1.069 0.243 1.177 0.784c0.151 0.754 0.609 1.197 1.586 1.197 0.897 0 1.567-0.713 1.567-1.675 0-0.918-0.757-1.666-1.697-1.666l-16.652 0.009c-0.552 0-1-0.448-1-1 0-0.506 0.376-0.925 0.864-0.991l0.136-0.009 16.652-0.009c0.085 0 0.17 0.003 0.255 0.009l4.629 0.002 0.073-0.008 0.267-0.012c1.016-0.097 1.81-0.951 1.81-1.991 0-1.104-0.896-2-2.003-2-0.998 0-1.832 0.732-1.98 1.694l-0.037 0.318c-0.095 0.483-0.536 0.833-1.041 0.803-0.551-0.033-0.971-0.507-0.938-1.058 0.127-2.106 1.876-3.757 3.995-3.757zM16 16h-12.326c-0.552 0-1-0.448-1-1 0-0.506 0.376-0.925 0.864-0.991l0.136-0.009h12.326c1.841 0 3.334-1.493 3.334-3.334s-1.493-3.334-3.334-3.334c-1.841 0-3.334 1.493-3.334 3.334 0 0.552-0.448 1-1 1s-1-0.448-1-1c0-2.946 2.388-5.334 5.334-5.334s5.334 2.388 5.334 5.334c0 2.847-2.231 5.173-5.039 5.326l-0.294 0.008z"></path>
</svg>
