<!-- Generated by IcoMoon.io -->
<svg version="1.1" xmlns="http://www.w3.org/2000/svg" width="32" height="32" viewBox="0 0 32 32">
<title>weather-thunderstorm</title>
<path d="M13.953 20.997l2.981-3.317c0.369-0.411 1.001-0.444 1.412-0.075 0.373 0.336 0.435 0.889 0.166 1.295l-0.091 0.117-1.482 1.649h3.035c0.791 0 1.251 0.863 0.86 1.511l-0.078 0.112-4.282 5.375c-0.344 0.432-0.973 0.503-1.405 0.159-0.393-0.313-0.487-0.861-0.243-1.283l0.084-0.122 2.989-3.752h-3.204c-0.817 0-1.27-0.914-0.831-1.558l0.087-0.111zM17.336 6.679c4.225 0 6.621 2.796 6.97 6.173h0.107c2.719 0 4.923 2.198 4.923 4.91s-2.204 4.91-4.923 4.91l-2.384 0.001c0.192-0.285 0.305-0.628 0.305-0.998 0-0.371-0.113-0.716-0.307-1.002l2.312 0.001c1.681 0 3.044-1.335 3.044-2.982s-1.363-2.982-3.044-2.982h-0.921c-0.487 0-0.912-0.374-0.912-0.851 0-3.047-2.407-5.186-5.169-5.186s-5.169 2.178-5.169 5.186c0 0.477-0.425 0.851-0.912 0.851h-0.921c-1.681 0-3.044 1.335-3.044 2.982s1.363 2.982 3.044 2.982l2.349-0.001c-0.194 0.286-0.307 0.63-0.307 1.002 0 0.369 0.112 0.713 0.305 0.998l-2.421-0.001c-2.719 0-4.923-2.198-4.923-4.91s2.204-4.91 4.923-4.91h0.107c0.351-3.399 2.745-6.173 6.97-6.173zM13.333 2.667c2.156 0 4.065 1.087 5.2 2.749-0.387-0.047-0.787-0.071-1.198-0.071-0.526 0-1.032 0.039-1.518 0.114-0.704-0.5-1.564-0.792-2.484-0.792-2.089 0-3.869 1.506-4.226 3.542l-0.097 0.552c-0.112 0.638-0.666 1.103-1.313 1.103h-0.655c-1.312 0-2.376 1.064-2.376 2.376 0 0.654 0.264 1.247 0.692 1.676-0.42 0.534-0.753 1.14-0.98 1.796-1.040-0.799-1.712-2.057-1.712-3.472 0-2.333 1.826-4.24 4.128-4.369l0.343-0.007c0.519-2.962 3.105-5.197 6.196-5.197z"></path>
</svg>
