<!-- Generated by IcoMoon.io -->
<svg version="1.1" xmlns="http://www.w3.org/2000/svg" width="32" height="32" viewBox="0 0 32 32">
<title>weather-squalls</title>
<path d="M10 10.468c0.111-2.863 2.466-5.135 5.333-5.135 2.909 0.047 5.25 2.417 5.25 5.333s-2.34 5.286-5.245 5.333l-0.004 0h-11.833c-0.46 0-0.833-0.373-0.833-0.833s0.373-0.833 0.833-0.833v0h11.833c2.025-0 3.666-1.642 3.666-3.667s-1.642-3.667-3.667-3.667c-0 0-0 0-0 0h0c-1.977 0.002-3.589 1.566-3.666 3.525l-0 0.007c-0.023 0.442-0.387 0.792-0.832 0.792-0.46 0-0.833-0.373-0.833-0.833 0-0.008 0-0.016 0-0.024l-0 0.001zM21.422 16.041c0.454-1.761 2.028-3.041 3.902-3.041 0 0 0.001 0 0.001 0h-0c2.207 0 4.009 1.788 4.009 4 0 2.209-1.791 4-4 4v0h-2.272c0.383 0.585 0.605 1.283 0.605 2.027 0 1.986-1.608 3.64-3.615 3.64-0 0-0 0-0 0-1.407 0-2.626-0.804-3.224-1.977l-0.009-0.021-0.064-0.129c-0.057-0.11-0.091-0.24-0.091-0.378 0-0.46 0.373-0.833 0.833-0.833 0.327 0 0.609 0.188 0.746 0.462l0.002 0.005 0.065 0.129c0.327 0.643 0.984 1.077 1.742 1.077v0c1.066 0 1.948-0.888 1.948-1.973 0-1.115-0.905-2.027-2-2.027h-16.5c-0.46 0-0.833-0.373-0.833-0.833s0.373-0.833 0.833-0.833v0h21.833c1.289 0 2.333-1.045 2.333-2.333v0c0-1.286-1.051-2.333-2.342-2.333-0 0-0 0-0 0-1.096 0-2.018 0.749-2.281 1.763l-0.004 0.016-0.064 0.256c-0.094 0.366-0.42 0.631-0.809 0.631-0.46 0-0.834-0.373-0.834-0.834 0-0.072 0.009-0.141 0.026-0.208l-0.001 0.006 0.064-0.257z"></path>
</svg>
