<!-- Generated by IcoMoon.io -->
<svg version="1.1" xmlns="http://www.w3.org/2000/svg" width="32" height="32" viewBox="0 0 32 32">
<title>weather-sunny-low</title>
<path d="M17 3.667c0-0.552-0.448-1-1-1s-1 0.448-1 1v2c0 0.552 0.448 1 1 1s1-0.448 1-1v-2z"></path>
<path d="M25.374 6.626c0.391 0.391 0.391 1.024 0 1.414l-1.414 1.414c-0.391 0.391-1.024 0.391-1.414 0s-0.391-1.024 0-1.414l1.414-1.414c0.391-0.391 1.024-0.391 1.414 0z"></path>
<path d="M23.212 17.333c0.079-0.432 0.121-0.878 0.121-1.333 0-4.050-3.283-7.333-7.333-7.333s-7.333 3.283-7.333 7.333c0 0.455 0.041 0.901 0.121 1.333h-5.121c-0.552 0-1 0.448-1 1s0.448 1 1 1h24.667c0.552 0 1-0.448 1-1s-0.448-1-1-1h-5.121zM16 10.667c2.945 0 5.333 2.388 5.333 5.333 0 0.46-0.058 0.907-0.168 1.333h-10.331c-0.11-0.426-0.168-0.873-0.168-1.333 0-2.946 2.388-5.333 5.333-5.333z"></path>
<path d="M8 22.333c0-0.552 0.448-1 1-1h14c0.552 0 1 0.448 1 1s-0.448 1-1 1h-14c-0.552 0-1-0.448-1-1z"></path>
<path d="M13.333 26.333c0-0.552 0.448-1 1-1h3.333c0.552 0 1 0.448 1 1s-0.448 1-1 1h-3.333c-0.552 0-1-0.448-1-1z"></path>
<path d="M6.626 6.626c0.391-0.391 1.024-0.391 1.414 0l1.414 1.414c0.391 0.391 0.391 1.024 0 1.414s-1.024 0.391-1.414 0l-1.414-1.414c-0.391-0.391-0.391-1.024 0-1.414z"></path>
</svg>
