<!-- Generated by IcoMoon.io -->
<svg version="1.1" xmlns="http://www.w3.org/2000/svg" width="32" height="32" viewBox="0 0 32 32">
<title>weather-moon-regular</title>
<path d="M25.269 22.006c-3.314 5.74-10.653 7.706-16.393 4.392-1.564-0.911-2.861-2.111-3.855-3.539l-0.026-0.039c-0.099-0.143-0.159-0.32-0.159-0.511 0-0.388 0.246-0.719 0.59-0.845l0.006-0.002c4.52-1.618 6.941-3.493 8.347-6.174 1.479-2.823 1.861-5.916 0.827-10.155-0.016-0.064-0.026-0.138-0.026-0.213 0-0.497 0.403-0.9 0.9-0.9 0.017 0 0.033 0 0.050 0.001l-0.002-0c1.868 0.1 3.693 0.637 5.348 1.592 5.74 3.313 7.707 10.653 4.393 16.393zM15.255 16.061c-1.535 2.931-4.075 4.953-8.284 6.604 0.768 0.907 1.674 1.669 2.689 2.263l0.049 0.026c4.943 2.853 11.262 1.16 14.115-3.782s1.16-11.262-3.782-14.116c-0.943-0.556-2.040-0.977-3.207-1.202l-0.065-0.010-0.312-0.053c0.795 3.979 0.394 7.22-1.204 10.27z"></path>
</svg>
