<!-- Generated by IcoMoon.io -->
<svg version="1.1" xmlns="http://www.w3.org/2000/svg" width="32" height="32" viewBox="0 0 32 32">
<title>weather-sunny-regular</title>
<path d="M15.999 2.667c0.46 0 0.833 0.373 0.833 0.833v1.667c0 0.46-0.373 0.833-0.833 0.833s-0.833-0.373-0.833-0.833v0-1.667c0-0.46 0.373-0.833 0.833-0.833zM16.031 22.681c3.673 0 6.65-2.977 6.65-6.649s-2.977-6.651-6.65-6.651c-3.673 0-6.651 2.977-6.651 6.651s2.977 6.65 6.651 6.65zM16.031 21.014c-2.752 0-4.983-2.231-4.983-4.983s2.231-4.983 4.983-4.983v0c2.752 0 4.983 2.231 4.983 4.983s-2.231 4.983-4.983 4.983v0zM28.5 16.834c0.46 0 0.833-0.373 0.833-0.833s-0.373-0.833-0.833-0.833v0h-1.667c-0.46 0-0.833 0.373-0.833 0.833s0.373 0.833 0.833 0.833v0h1.667zM15.999 26c0.46 0 0.833 0.373 0.833 0.833v1.667c0 0.46-0.373 0.833-0.833 0.833s-0.833-0.373-0.833-0.833v0-1.667c0-0.46 0.373-0.833 0.833-0.833zM5.167 16.833c0.46 0 0.833-0.373 0.833-0.833s-0.373-0.833-0.833-0.833v0h-1.667c-0.46 0-0.833 0.373-0.833 0.833s0.373 0.833 0.833 0.833v0h1.667zM6.244 6.243c0.151-0.151 0.359-0.244 0.589-0.244s0.439 0.093 0.589 0.244l1.667 1.667c0.151 0.151 0.244 0.359 0.244 0.589 0 0.46-0.373 0.833-0.833 0.833-0.23 0-0.438-0.093-0.589-0.244v0l-1.667-1.667c-0.151-0.151-0.244-0.359-0.244-0.589s0.093-0.439 0.244-0.589v0zM7.423 25.756c-0.151 0.151-0.359 0.244-0.589 0.244-0.46 0-0.833-0.373-0.833-0.833 0-0.23 0.093-0.439 0.244-0.589v0l1.667-1.667c0.151-0.151 0.359-0.244 0.589-0.244 0.46 0 0.833 0.373 0.833 0.833 0 0.23-0.093 0.439-0.244 0.589v0l-1.667 1.667zM25.756 6.243c-0.151-0.151-0.359-0.244-0.589-0.244s-0.438 0.093-0.589 0.244l-1.667 1.667c-0.151 0.151-0.244 0.359-0.244 0.589 0 0.46 0.373 0.833 0.833 0.833 0.23 0 0.439-0.093 0.589-0.244v0l1.667-1.667c0.151-0.151 0.244-0.359 0.244-0.589s-0.093-0.439-0.244-0.589v0zM24.578 25.756c0.151 0.151 0.359 0.244 0.589 0.244 0.46 0 0.833-0.373 0.833-0.833 0-0.23-0.093-0.439-0.244-0.589v0l-1.667-1.667c-0.151-0.151-0.359-0.244-0.589-0.244-0.46 0-0.833 0.373-0.833 0.833 0 0.23 0.093 0.439 0.244 0.589v0l1.667 1.667z"></path>
</svg>
