<!-- Generated by IcoMoon.io -->
<svg version="1.1" xmlns="http://www.w3.org/2000/svg" width="32" height="32" viewBox="0 0 32 32">
<title>weather-cloudy-regular</title>
<path d="M17.335 9.345c4.225 0 6.621 2.796 6.97 6.173h0.107c2.719 0 4.923 2.199 4.923 4.91s-2.204 4.91-4.923 4.91h-14.153c-2.719 0-4.923-2.198-4.923-4.91 0-2.657 2.117-4.822 4.76-4.907l0.27-0.003c0.351-3.399 2.745-6.173 6.969-6.173zM17.335 11.009c-2.84 0-5.317 2.299-5.317 5.473 0 0.503-0.437 0.898-0.938 0.898h-0.947c-1.73 0-3.132 1.409-3.132 3.148s1.402 3.147 3.131 3.147h14.404c1.73 0 3.131-1.409 3.131-3.147s-1.401-3.148-3.131-3.148h-0.947c-0.501 0-0.939-0.395-0.939-0.897 0-3.216-2.476-5.474-5.317-5.474zM13.333 5.333c0.001 0 0.002 0 0.003 0 2.146 0 4.040 1.075 5.175 2.715l0.014 0.021c-0.359-0.045-0.774-0.070-1.196-0.070-0.386 0-0.767 0.021-1.142 0.063l0.046-0.004c-0.772-0.672-1.788-1.082-2.9-1.083h-0c-2.189 0-4.055 1.615-4.429 3.797l-0.209 1.22c-0.055 0.317-0.329 0.555-0.657 0.555-0 0-0 0-0 0h-1.298c-1.375 0-2.49 1.14-2.49 2.547 0 0.737 0.307 1.401 0.795 1.867-0.272 0.402-0.507 0.862-0.683 1.352l-0.013 0.043c-1.028-0.808-1.682-2.052-1.682-3.449 0-2.417 1.959-4.376 4.376-4.376h0.095c0.54-2.972 3.108-5.197 6.196-5.197h0z"></path>
</svg>
