<!-- Generated by IcoMoon.io -->
<svg version="1.1" xmlns="http://www.w3.org/2000/svg" width="32" height="32" viewBox="0 0 32 32">
<title>web-asset</title>
<path d="M25 4c2.393 0 4.333 1.94 4.333 4.333v15.333c0 2.393-1.94 4.333-4.333 4.333h-18c-2.393 0-4.333-1.94-4.333-4.333v-15.333c0-2.393 1.94-4.333 4.333-4.333h18zM25 6h-18c-1.289 0-2.333 1.045-2.333 2.333v15.333c0 1.289 1.045 2.333 2.333 2.333h18c1.289 0 2.333-1.045 2.333-2.333v-15.333c0-1.289-1.045-2.333-2.333-2.333zM8.998 8.667h14.008c0.552 0 1 0.448 1 1 0 0.506-0.376 0.925-0.864 0.991l-0.136 0.009h-14.008c-0.552 0-1-0.448-1-1 0-0.506 0.376-0.925 0.864-0.991l0.136-0.009z"></path>
</svg>
