<!-- Generated by IcoMoon.io -->
<svg version="1.1" xmlns="http://www.w3.org/2000/svg" width="32" height="32" viewBox="0 0 32 32">
<title>whiteboard</title>
<path d="M23.525 4.963c1.433-1.433 3.82-1.197 4.945 0.49 0.338 0.501 0.539 1.118 0.539 1.782 0 0.861-0.338 1.643-0.89 2.22l0.001-0.001-5.34 5.595c-0.329 0.344-0.753 0.594-1.23 0.707l-0.017 0.003-3.847 0.888c-0.056 0.014-0.121 0.021-0.187 0.021-0.46 0-0.833-0.373-0.833-0.833 0-0.045 0.004-0.089 0.010-0.131l-0.001 0.005 0.583-3.794c0.086-0.547 0.339-1.023 0.703-1.388l5.562-5.562zM27.083 6.377c-0.281-0.418-0.752-0.689-1.287-0.689-0.427 0-0.813 0.173-1.093 0.453v0l-5.561 5.562c-0.122 0.121-0.206 0.28-0.234 0.458l-0.001 0.005-0.397 2.579 2.649-0.611c0.165-0.039 0.306-0.122 0.415-0.236l0-0 5.34-5.594c0.265-0.277 0.428-0.653 0.428-1.068 0-0.32-0.097-0.617-0.263-0.863l0.003 0.005zM19.131 7h-12.298c-1.381 0-2.5 1.119-2.5 2.5v0 3.288c0.673-0.498 1.404-1.009 2.139-1.443 0.895-0.528 1.864-0.983 2.791-1.124 0.963-0.147 1.964 0.041 2.703 0.903 0.349 0.407 0.551 0.857 0.615 1.337 0.062 0.47-0.016 0.918-0.15 1.321-0.24 0.725-0.715 1.445-1.115 2.052l-0.080 0.121c-0.455 0.692-0.797 1.244-0.928 1.735-0.060 0.226-0.063 0.401-0.029 0.547 0.033 0.141 0.113 0.309 0.31 0.507 0.269 0.269 0.505 0.363 0.707 0.39 0.213 0.028 0.466-0.013 0.767-0.142 0.629-0.269 1.272-0.839 1.848-1.415 0.151-0.151 0.359-0.244 0.589-0.244 0.46 0 0.833 0.373 0.833 0.833 0 0.23-0.093 0.439-0.244 0.589v0c-0.579 0.579-1.419 1.36-2.369 1.767-0.488 0.21-1.048 0.341-1.641 0.263-0.606-0.080-1.171-0.367-1.669-0.864-0.387-0.388-0.642-0.825-0.754-1.305-0.111-0.475-0.071-0.935 0.041-1.355 0.213-0.801 0.725-1.582 1.146-2.223l0.023-0.036c0.451-0.685 0.813-1.237 0.982-1.747 0.080-0.241 0.099-0.429 0.080-0.579-0.019-0.139-0.076-0.293-0.228-0.47-0.261-0.304-0.614-0.428-1.187-0.341-0.61 0.093-1.36 0.419-2.195 0.912-0.822 0.485-1.661 1.092-2.445 1.684-0.182 0.138-0.363 0.277-0.541 0.413v7.623c0 1.381 1.119 2.5 2.5 2.5v0h18.333c1.381 0 2.5-1.119 2.5-2.5v0-10.157l1.667-1.746v11.903c0 2.301-1.865 4.167-4.167 4.167v0h-18.333c-2.301 0-4.167-1.865-4.167-4.167v0-13c0-2.301 1.865-4.167 4.167-4.167v0h13.965l-1.667 1.667z"></path>
</svg>
