<!-- Generated by IcoMoon.io -->
<svg version="1.1" xmlns="http://www.w3.org/2000/svg" width="32" height="32" viewBox="0 0 32 32">
<title>whiteboard</title>
<path d="M21.319 5.333l-2.004 2-12.506 0.008c-1.199 0.097-2.142 1.101-2.142 2.326v2.987l3.48-2.187c1.339-0.842 3.087-0.495 4.010 0.758l0.126 0.185c0.527 0.838 0.604 1.876 0.218 2.776l-0.106 0.222-1.61 3.047c-0.258 0.488-0.071 1.093 0.417 1.351 0.258 0.136 0.56 0.152 0.827 0.049l0.131-0.062 2.345-1.324c0.48-0.273 1.091-0.105 1.364 0.375 0.25 0.44 0.13 0.99-0.261 1.289l-0.113 0.075-2.353 1.328c-0.889 0.5-1.971 0.515-2.873 0.038-1.401-0.74-1.974-2.433-1.344-3.861l0.093-0.193 1.61-3.047c0.167-0.316 0.153-0.697-0.037-0.999-0.267-0.425-0.802-0.58-1.248-0.384l-0.131 0.069-4.545 2.856v7.323c0 1.289 1.045 2.333 2.333 2.333h18c1.289 0 2.333-1.045 2.333-2.333v-9.749l2-1.996v11.745c0 2.393-1.94 4.333-4.333 4.333h-18c-2.393 0-4.333-1.94-4.333-4.333v-12.673c0-2.311 1.809-4.199 4.087-4.326l0.246-0.007h14.319zM28.234 4.726l0.174 0.161 0.161 0.174c1.018 1.189 0.963 2.98-0.162 4.104l-5.708 5.698c-0.351 0.35-0.783 0.608-1.257 0.75l-3.103 0.932c-0.705 0.212-1.449-0.188-1.66-0.894-0.078-0.259-0.075-0.535 0.008-0.792l0.985-3.060c0.146-0.454 0.399-0.867 0.736-1.204l5.721-5.712c1.126-1.125 2.918-1.177 4.106-0.158zM25.541 6.3l-5.721 5.711c-0.112 0.112-0.197 0.25-0.245 0.401l-0.596 1.852 1.888-0.567c0.158-0.048 0.302-0.133 0.419-0.25l5.707-5.697 0.1-0.115c0.298-0.401 0.265-0.971-0.099-1.335-0.401-0.401-1.051-0.402-1.452-0.001z"></path>
</svg>
