<!-- Generated by IcoMoon.io -->
<svg version="1.1" xmlns="http://www.w3.org/2000/svg" width="32" height="32" viewBox="0 0 32 32">
<title>wifi-3-regular</title>
<path d="M14.587 21.92c0.366-0.392 0.886-0.637 1.463-0.637 1.105 0 2 0.895 2 2 0 0.577-0.244 1.097-0.635 1.462l-0.001 0.001c-0.356 0.333-0.836 0.537-1.363 0.537-1.105 0-2-0.895-2-2 0-0.527 0.204-1.007 0.538-1.365l-0.001 0.001zM11.256 18.427c1.229-1.229 2.926-1.988 4.801-1.988s3.572 0.76 4.801 1.988v0c0.597 0.596 1.088 1.329 1.429 2.109 0.062 0.126 0.098 0.275 0.098 0.432 0 0.552-0.448 1-1 1-0.419 0-0.777-0.257-0.926-0.622l-0.002-0.007c-0.257-0.581-0.598-1.077-1.014-1.499l0.001 0.001c-0.867-0.867-2.064-1.403-3.387-1.403s-2.52 0.536-3.387 1.403v0c-0.413 0.413-0.749 0.919-0.995 1.48-0.158 0.356-0.509 0.6-0.917 0.6-0.552 0-1-0.448-1-1 0-0.145 0.031-0.282 0.086-0.406l-0.003 0.006c0.356-0.812 0.832-1.506 1.415-2.094l-0.001 0z"></path>
</svg>
