<!-- Generated by IcoMoon.io -->
<svg version="1.1" xmlns="http://www.w3.org/2000/svg" width="32" height="32" viewBox="0 0 32 32">
<title>wifi-lock</title>
<path d="M8.667 16c4.050 0 7.333 3.283 7.333 7.333s-3.283 7.333-7.333 7.333-7.333-3.283-7.333-7.333c0-4.050 3.283-7.333 7.333-7.333zM8.667 18.664c-1.224 0-2.228 0.943-2.326 2.142l-0.008 0.191 0 1.042c-0.527 0.136-0.929 0.586-0.992 1.138l-0.009 0.153v3.333c0 0.684 0.515 1.247 1.178 1.324l0.155 0.009h4c0.684 0 1.247-0.515 1.324-1.178l0.009-0.155v-3.333c0-0.569-0.357-1.055-0.859-1.246l-0.14-0.045-0.001-1.042c0-1.289-1.045-2.333-2.333-2.333zM8.667 19.997c0.506 0 0.925 0.376 0.991 0.864l0.009 0.136v1h-2v-1c0-0.552 0.448-1 1-1zM20.858 18.426c0.597 0.597 1.088 1.33 1.429 2.11 0.222 0.506-0.009 1.096-0.515 1.317s-1.096-0.009-1.317-0.515c-0.244-0.557-0.596-1.082-1.012-1.498-0.995-0.995-2.319-1.461-3.621-1.397-0.449-0.656-0.985-1.247-1.593-1.756 2.282-0.636 4.833-0.057 6.628 1.739zM23.66 14.334c0.788 0.788 1.47 1.743 1.989 2.759 0.252 0.492 0.057 1.094-0.435 1.346s-1.094 0.057-1.346-0.435c-0.427-0.835-0.987-1.62-1.623-2.256-3.119-3.119-8.007-3.391-11.435-0.815-0.685-0.174-1.404-0.267-2.144-0.267-0.182 0-0.364 0.006-0.543 0.017 0.108-0.118 0.22-0.235 0.335-0.349 4.198-4.198 11.004-4.198 15.202 0zM27.264 11.038c0.679 0.679 1.319 1.454 1.877 2.263 0.314 0.455 0.199 1.077-0.255 1.391s-1.077 0.199-1.391-0.255c-0.491-0.711-1.054-1.393-1.646-1.984-5.44-5.44-14.26-5.44-19.7 0-0.563 0.563-1.12 1.245-1.629 1.978-0.315 0.454-0.938 0.567-1.392 0.252s-0.566-0.938-0.252-1.392c0.574-0.827 1.206-1.6 1.858-2.253 6.221-6.221 16.308-6.221 22.529 0z"></path>
</svg>
