<!-- Generated by IcoMoon.io -->
<svg version="1.1" xmlns="http://www.w3.org/2000/svg" width="32" height="32" viewBox="0 0 32 32">
<title>wifi-1</title>
<path d="M23.66 14.333c0.781 0.791 1.444 1.7 1.96 2.698l0.029 0.062c0.069 0.132 0.11 0.289 0.11 0.455 0 0.552-0.448 1-1 1-0.386 0-0.721-0.219-0.888-0.539l-0.003-0.006c-0.445-0.866-0.986-1.609-1.624-2.257l0.001 0.001c-1.583-1.584-3.771-2.564-6.188-2.564-3.389 0-6.328 1.927-7.781 4.745l-0.023 0.049c-0.164 0.34-0.507 0.571-0.903 0.571-0.552 0-1-0.448-1-1 0-0.174 0.044-0.337 0.122-0.479l-0.003 0.005c1.813-3.523 5.425-5.892 9.589-5.892 2.969 0 5.656 1.203 7.602 3.149v0zM20.857 18.427c0.597 0.596 1.088 1.329 1.429 2.109 0.053 0.118 0.084 0.256 0.084 0.401 0 0.552-0.448 1-1 1-0.407 0-0.757-0.243-0.913-0.592l-0.003-0.006c-0.256-0.581-0.597-1.077-1.013-1.499l0.001 0.001c-0.867-0.867-2.064-1.403-3.387-1.403s-2.52 0.536-3.387 1.403v0c-0.413 0.413-0.749 0.919-0.996 1.48-0.152 0.371-0.51 0.628-0.928 0.628-0.552 0-1-0.448-1-1 0-0.156 0.036-0.303 0.099-0.434l-0.003 0.006c0.356-0.812 0.832-1.506 1.415-2.094l-0.001 0c1.229-1.229 2.926-1.988 4.801-1.988s3.572 0.76 4.801 1.988v0zM27.264 11.039c0.68 0.679 1.32 1.453 1.877 2.263 0.119 0.163 0.191 0.367 0.191 0.588 0 0.552-0.448 1-1 1-0.348 0-0.655-0.178-0.834-0.448l-0.002-0.004c-0.513-0.74-1.054-1.389-1.647-1.986l0.001 0.001c-5.44-5.44-14.26-5.44-19.7 0-0.563 0.563-1.12 1.245-1.629 1.979-0.184 0.251-0.477 0.411-0.808 0.411-0.552 0-1-0.448-1-1 0-0.205 0.062-0.396 0.168-0.555l-0.002 0.004c0.573-0.827 1.205-1.6 1.859-2.253 6.22-6.22 16.307-6.22 22.528 0zM17.415 21.919c0.362 0.362 0.586 0.862 0.586 1.415 0 1.105-0.896 2.001-2.001 2.001-0.552 0-1.053-0.224-1.415-0.586v0c-0.362-0.362-0.586-0.862-0.586-1.415 0-1.105 0.896-2.001 2.001-2.001 0.552 0 1.053 0.224 1.415 0.586v0z"></path>
</svg>
