<!-- Generated by IcoMoon.io -->
<svg version="1.1" xmlns="http://www.w3.org/2000/svg" width="32" height="32" viewBox="0 0 32 32">
<title>wifi-settings</title>
<path d="M28.742 13.088c-2.809-4.060-7.441-6.687-12.687-6.687-4.247 0-8.091 1.721-10.875 4.504v0c-0.629 0.629-1.24 1.376-1.794 2.176-0.080 0.123-0.128 0.273-0.128 0.435 0 0.442 0.358 0.8 0.8 0.8 0.262 0 0.495-0.126 0.64-0.321l0.002-0.002c0.504-0.73 1.033-1.369 1.613-1.959l-0.002 0.002c2.493-2.493 5.938-4.034 9.742-4.034 4.703 0 8.855 2.356 11.342 5.952l0.030 0.046c0.146 0.213 0.388 0.35 0.662 0.35 0.442 0 0.8-0.358 0.8-0.8 0-0.172-0.054-0.331-0.146-0.461l0.002 0.002zM11.493 18.059c1.167-1.168 2.78-1.891 4.562-1.891 0.568 0 1.118 0.073 1.643 0.211l-0.045-0.010c-0.51 0.416-0.973 0.886-1.379 1.405-0.067-0.003-0.145-0.005-0.224-0.005-1.338 0-2.55 0.543-3.426 1.421l-0 0c-0.416 0.421-0.756 0.918-0.997 1.468l-0.012 0.031c-0.121 0.297-0.408 0.503-0.743 0.503-0.442 0-0.8-0.358-0.8-0.8 0-0.124 0.028-0.242 0.079-0.347l-0.002 0.005c0.326-0.747 0.778-1.424 1.344-1.99zM23.352 14.064c0.114 0.112 0.226 0.23 0.334 0.352-0.146-0.009-0.318-0.013-0.49-0.013-0.594 0-1.174 0.058-1.736 0.168l0.057-0.009c-1.481-1.197-3.387-1.922-5.462-1.922-3.378 0-6.307 1.921-7.755 4.73l-0.023 0.049c-0.138 0.251-0.401 0.417-0.703 0.417-0.442 0-0.8-0.358-0.8-0.8 0-0.123 0.028-0.24 0.077-0.344l-0.002 0.005c1.741-3.382 5.208-5.656 9.206-5.656 2.85 0 5.431 1.155 7.298 3.024l0 0zM19.307 18.309c0.076 0.259 0.119 0.557 0.119 0.864 0 1.486-1.013 2.736-2.386 3.096l-0.022 0.005-0.738 0.189c-0.023 0.222-0.036 0.479-0.036 0.739 0 0.312 0.019 0.62 0.056 0.923l-0.004-0.036 0.56 0.133c1.423 0.345 2.464 1.608 2.464 3.114 0 0.327-0.049 0.642-0.14 0.939l0.006-0.023-0.203 0.677c0.411 0.325 0.859 0.603 1.336 0.829l0.52-0.552c0.585-0.618 1.411-1.003 2.326-1.003 0.917 0 1.745 0.386 2.328 1.005l0.001 0.002 0.539 0.573c0.467-0.216 0.909-0.483 1.315-0.797l-0.251-0.89c-0.076-0.259-0.119-0.557-0.119-0.864 0-1.486 1.013-2.736 2.386-3.096l0.022-0.005 0.736-0.189c0.023-0.222 0.037-0.479 0.037-0.74 0-0.313-0.019-0.621-0.056-0.923l0.004 0.036-0.557-0.131c-1.423-0.345-2.464-1.608-2.464-3.114 0-0.327 0.049-0.642 0.14-0.939l-0.006 0.023 0.202-0.675c-0.388-0.309-0.827-0.586-1.295-0.811l-0.041-0.018-0.52 0.549c-0.585 0.619-1.411 1.004-2.327 1.004s-1.744-0.386-2.327-1.004l-0.001-0.002-0.539-0.573c-0.501 0.234-0.932 0.499-1.329 0.807l0.016-0.012 0.25 0.891zM23.2 24.8c-0.884 0-1.6-0.716-1.6-1.6s0.716-1.6 1.6-1.6v0c0.884 0 1.6 0.716 1.6 1.6s-0.716 1.6-1.6 1.6v0z"></path>
</svg>
