<!-- Generated by IcoMoon.io -->
<svg version="1.1" xmlns="http://www.w3.org/2000/svg" width="32" height="32" viewBox="0 0 32 32">
<title>wifi-2-regular</title>
<path d="M23.66 14.335c0.781 0.791 1.444 1.7 1.96 2.698l0.029 0.062c0.069 0.132 0.109 0.289 0.109 0.455 0 0.552-0.448 1-1 1-0.386 0-0.721-0.219-0.888-0.54l-0.003-0.006c-0.445-0.866-0.986-1.608-1.624-2.256l0.001 0.001c-1.583-1.584-3.771-2.564-6.188-2.564-3.389 0-6.328 1.927-7.781 4.745l-0.023 0.049c-0.164 0.34-0.507 0.571-0.903 0.571-0.552 0-1-0.448-1-1 0-0.174 0.044-0.337 0.122-0.479l-0.003 0.005c1.813-3.523 5.425-5.892 9.589-5.892 2.969 0 5.656 1.203 7.602 3.149v0zM20.857 18.427c0.597 0.596 1.088 1.329 1.429 2.109 0.053 0.118 0.084 0.256 0.084 0.401 0 0.552-0.448 1-1 1-0.407 0-0.757-0.243-0.913-0.592l-0.003-0.006c-0.256-0.581-0.597-1.077-1.013-1.499l0.001 0.001c-0.867-0.867-2.064-1.403-3.387-1.403s-2.52 0.536-3.387 1.403v0c-0.413 0.415-0.749 0.92-0.996 1.481-0.154 0.366-0.51 0.618-0.924 0.618-0.552 0-1-0.448-1-1 0-0.152 0.034-0.296 0.095-0.425l-0.003 0.006c0.355-0.812 0.831-1.506 1.414-2.094l-0.001 0.001c1.229-1.229 2.926-1.989 4.801-1.989s3.573 0.76 4.801 1.989l0 0zM17.415 21.92c0.362 0.362 0.585 0.862 0.585 1.414 0 1.105-0.895 2-2 2-0.553 0-1.053-0.224-1.415-0.586v0c-0.362-0.362-0.586-0.862-0.586-1.415 0-1.105 0.896-2.001 2.001-2.001 0.552 0 1.053 0.224 1.415 0.586v0z"></path>
</svg>
