<!-- Generated by IcoMoon.io -->
<svg version="1.1" xmlns="http://www.w3.org/2000/svg" width="32" height="32" viewBox="0 0 32 32">
<title>wifi-warning-regular</title>
<path d="M23.659 14.333c0.132 0.132 0.26 0.268 0.385 0.408-0.213-0.048-0.458-0.075-0.709-0.075-0.646 0-1.25 0.181-1.763 0.496l0.015-0.008c-1.494-1.225-3.424-1.967-5.528-1.967-3.389 0-6.329 1.927-7.782 4.745l-0.023 0.049c-0.169 0.328-0.505 0.549-0.893 0.549-0.553 0-1.001-0.448-1.001-1.001 0-0.165 0.040-0.32 0.111-0.458l-0.003 0.006c1.813-3.523 5.425-5.892 9.589-5.892 2.969 0 5.656 1.203 7.602 3.149v0zM15.943 25.333l1.621-3.245c-0.37-0.461-0.933-0.754-1.564-0.754-1.105 0-2 0.895-2 2 0 1.085 0.863 1.967 1.94 1.999l0.003 0zM18.916 19.384l0.903-1.809c-1.057-0.712-2.36-1.137-3.762-1.137-1.875 0-3.572 0.759-4.801 1.988l0-0c-0.582 0.588-1.059 1.281-1.398 2.050l-0.017 0.044c-0.053 0.118-0.084 0.256-0.084 0.401 0 0.552 0.448 1 1 1 0.407 0 0.757-0.243 0.913-0.592l0.003-0.006c0.247-0.563 0.583-1.067 0.996-1.48 0.867-0.867 2.065-1.403 3.387-1.403 1.077 0 2.070 0.355 2.87 0.955l-0.012-0.009zM27.263 11.037c0.68 0.68 1.32 1.455 1.879 2.264 0.111 0.159 0.177 0.356 0.177 0.568 0 0.552-0.448 1-1 1-0.34 0-0.64-0.17-0.821-0.429l-0.002-0.003c-0.513-0.74-1.054-1.389-1.646-1.986l0.001 0.001c-5.44-5.44-14.26-5.44-19.7 0-0.563 0.563-1.12 1.245-1.629 1.979-0.183 0.261-0.483 0.43-0.822 0.43-0.552 0-1-0.448-1-1 0-0.213 0.067-0.411 0.18-0.573l-0.002 0.003c0.573-0.827 1.207-1.6 1.859-2.253 6.221-6.22 16.307-6.22 22.529 0zM21.543 17.107l-5.329 10.664c-0.134 0.261-0.212 0.569-0.212 0.896 0 1.105 0.895 2 2 2 0.001 0 0.002 0 0.003 0h10.659c0.001 0 0.002 0 0.003 0 1.105 0 2-0.895 2-2 0-0.327-0.078-0.635-0.217-0.907l0.005 0.011-5.329-10.664c-0.737-1.476-2.844-1.476-3.581 0zM24 20.661v4.001c0 0.368-0.298 0.667-0.667 0.667s-0.667-0.298-0.667-0.667v0-4.001c0-0.368 0.298-0.667 0.667-0.667s0.667 0.298 0.667 0.667v0zM23.333 27.999c-0.369 0-0.667-0.299-0.667-0.667s0.299-0.667 0.667-0.667v0c0.368 0 0.667 0.298 0.667 0.667s-0.298 0.667-0.667 0.667v0z"></path>
</svg>
