<!-- Generated by IcoMoon.io -->
<svg version="1.1" xmlns="http://www.w3.org/2000/svg" width="32" height="32" viewBox="0 0 32 32">
<title>wifi-lock-regular</title>
<path d="M23.659 14.333c0.781 0.791 1.444 1.7 1.96 2.698l0.029 0.062c0.063 0.127 0.099 0.276 0.099 0.434 0 0.552-0.448 1-1 1-0.378 0-0.706-0.209-0.877-0.518l-0.003-0.005c-0.445-0.866-0.986-1.609-1.624-2.257l0.001 0.001c-1.584-1.584-3.772-2.563-6.189-2.563-1.454 0-2.826 0.355-4.033 0.982l0.049-0.023c-0.506-0.54-1.135-0.959-1.843-1.211l-0.033-0.010c1.653-1.089 3.681-1.737 5.86-1.737 2.969 0 5.657 1.203 7.603 3.149v0zM20.857 18.427c0.586 0.593 1.067 1.292 1.412 2.065l0.018 0.044c0.053 0.118 0.084 0.256 0.084 0.401 0 0.552-0.448 1-1 1-0.407 0-0.757-0.243-0.913-0.592l-0.003-0.006c-0.257-0.581-0.598-1.077-1.014-1.499l0.001 0.001c-0.866-0.867-2.063-1.403-3.385-1.403-0.299 0-0.591 0.027-0.875 0.080l0.029-0.005c-0.473-0.557-1.12-0.954-1.856-1.108l-0.022-0.004v-0.067c0-0.108-0.004-0.216-0.011-0.323 0.804-0.362 1.743-0.573 2.731-0.573 1.875 0 3.573 0.76 4.802 1.989v0zM27.264 11.039c0.679 0.679 1.32 1.453 1.877 2.263 0.111 0.159 0.177 0.356 0.177 0.568 0 0.552-0.448 1-1 1-0.34 0-0.64-0.17-0.821-0.429l-0.002-0.003c-0.513-0.74-1.054-1.388-1.646-1.985l0.001 0.001c-5.44-5.44-14.26-5.44-19.7 0-0.563 0.561-1.12 1.244-1.629 1.977-0.183 0.261-0.483 0.43-0.822 0.43-0.552 0-1-0.448-1-1 0-0.213 0.067-0.411 0.18-0.573l-0.002 0.003c0.573-0.827 1.207-1.6 1.859-2.253 6.221-6.22 16.307-6.22 22.529 0zM17.413 21.919c0.362 0.362 0.586 0.862 0.586 1.415 0 1.104-0.895 2-2 2h-0v-4c0.512 0 1.023 0.195 1.413 0.587zM5.333 18.667v-1.333c0-1.841 1.492-3.333 3.333-3.333s3.333 1.492 3.333 3.333v0 1.333h0.667c1.105 0 2 0.895 2 2v0 6.667c0 1.105-0.895 2-2 2v0h-8c-1.105 0-2-0.895-2-2v0-6.667c0-1.105 0.895-2 2-2v0h0.667zM7.333 17.333v1.333h2.667v-1.333c0-0.736-0.597-1.333-1.333-1.333s-1.333 0.597-1.333 1.333v0zM10 24c0-0.736-0.597-1.333-1.333-1.333s-1.333 0.597-1.333 1.333v0c0 0.736 0.597 1.333 1.333 1.333s1.333-0.597 1.333-1.333v0z"></path>
</svg>
