<!-- Generated by IcoMoon.io -->
<svg version="1.1" xmlns="http://www.w3.org/2000/svg" width="32" height="32" viewBox="0 0 32 32">
<title>wifi-warning</title>
<path d="M23.659 14.334c0.131 0.131 0.26 0.267 0.385 0.407-0.83-0.177-1.718-0.040-2.457 0.411-3.437-2.808-8.51-2.61-11.715 0.596-0.664 0.664-1.203 1.41-1.618 2.231-0.249 0.493-0.851 0.69-1.344 0.441s-0.69-0.851-0.441-1.344c0.51-1.009 1.174-1.928 1.989-2.742 4.198-4.198 11.004-4.198 15.202 0zM15.943 25.333l1.621-3.245c-0.047-0.058-0.097-0.115-0.151-0.169-0.781-0.781-2.048-0.781-2.829 0s-0.781 2.048 0 2.829c0.376 0.376 0.865 0.571 1.358 0.585zM18.915 19.383l0.904-1.809c-2.638-1.76-6.236-1.476-8.564 0.852-0.596 0.596-1.071 1.309-1.414 2.093-0.221 0.506 0.009 1.096 0.515 1.317s1.096-0.009 1.317-0.515c0.246-0.562 0.582-1.067 0.996-1.481 1.703-1.703 4.37-1.855 6.245-0.457zM27.263 11.038c0.679 0.679 1.32 1.454 1.877 2.263 0.314 0.455 0.2 1.077-0.255 1.391s-1.077 0.2-1.391-0.255c-0.491-0.711-1.055-1.393-1.646-1.984-5.44-5.44-14.26-5.44-19.7 0-0.563 0.563-1.12 1.245-1.629 1.978-0.315 0.454-0.938 0.566-1.392 0.252s-0.566-0.938-0.252-1.392c0.574-0.827 1.206-1.6 1.858-2.253 6.221-6.221 16.308-6.221 22.529 0zM21.543 17.107l-5.329 10.664c-0.665 1.33 0.303 2.895 1.791 2.895h10.658c1.488 0 2.455-1.565 1.791-2.895l-5.329-10.664c-0.737-1.476-2.844-1.476-3.581 0zM24.001 20.661v4.002c0 0.368-0.299 0.667-0.667 0.667s-0.667-0.299-0.667-0.667v-4.002c0-0.368 0.299-0.667 0.667-0.667s0.667 0.299 0.667 0.667zM23.333 27.998c-0.368 0-0.667-0.299-0.667-0.667s0.299-0.667 0.667-0.667c0.369 0 0.667 0.299 0.667 0.667s-0.299 0.667-0.667 0.667z"></path>
</svg>
