<!-- Generated by IcoMoon.io -->
<svg version="1.1" xmlns="http://www.w3.org/2000/svg" width="32" height="32" viewBox="0 0 32 32">
<title>wifi-off</title>
<path d="M4.374 2.96c-0.391-0.391-1.024-0.391-1.414 0s-0.391 1.024 0 1.414l4.486 4.486c-0.961 0.613-1.871 1.339-2.711 2.179-0.652 0.652-1.285 1.426-1.858 2.253-0.315 0.454-0.202 1.077 0.252 1.392s1.077 0.202 1.392-0.252c0.509-0.734 1.067-1.416 1.629-1.978 0.844-0.844 1.769-1.557 2.75-2.139l2.122 2.122c-0.922 0.489-1.788 1.122-2.564 1.898-0.814 0.814-1.478 1.733-1.989 2.742-0.249 0.493-0.052 1.095 0.441 1.344s1.094 0.052 1.344-0.441c0.415-0.821 0.954-1.567 1.618-2.231 0.787-0.787 1.686-1.392 2.646-1.817l2.574 2.574c-1.403 0.2-2.756 0.84-3.836 1.92-0.596 0.596-1.071 1.309-1.414 2.093-0.221 0.506 0.009 1.096 0.515 1.317s1.096-0.009 1.317-0.515c0.246-0.562 0.582-1.067 0.996-1.481 1.215-1.215 2.92-1.641 4.479-1.277l10.478 10.478c0.391 0.391 1.024 0.391 1.414 0s0.391-1.024 0-1.414l-24.667-24.667zM15.446 11.203l2.111 2.111c1.717 0.297 3.363 1.108 4.688 2.434 0.635 0.635 1.196 1.42 1.623 2.255 0.251 0.492 0.854 0.687 1.346 0.435s0.686-0.854 0.435-1.346c-0.52-1.016-1.202-1.971-1.989-2.759-2.255-2.255-5.262-3.299-8.214-3.131zM11.316 7.073l1.635 1.635c4.498-1.004 9.398 0.244 12.898 3.744 0.591 0.591 1.155 1.273 1.646 1.984 0.314 0.455 0.937 0.569 1.391 0.255s0.569-0.937 0.255-1.391c-0.558-0.808-1.199-1.584-1.877-2.262-4.316-4.316-10.492-5.638-15.948-3.965zM17.414 21.919c0.781 0.781 0.781 2.048 0 2.829s-2.048 0.781-2.829 0c-0.781-0.781-0.781-2.048 0-2.829s2.048-0.781 2.829 0z"></path>
</svg>
