<!-- Generated by IcoMoon.io -->
<svg version="1.1" xmlns="http://www.w3.org/2000/svg" width="32" height="32" viewBox="0 0 32 32">
<title>wifi-3</title>
<path d="M14.586 21.919c0.781-0.781 2.048-0.781 2.829 0s0.781 2.048 0 2.829c-0.781 0.781-2.048 0.781-2.829 0s-0.781-2.048 0-2.829zM11.256 18.426c2.651-2.651 6.95-2.651 9.601 0 0.597 0.597 1.088 1.33 1.429 2.11 0.222 0.506-0.009 1.096-0.515 1.317s-1.096-0.009-1.317-0.515c-0.244-0.557-0.596-1.082-1.012-1.498-1.87-1.87-4.903-1.87-6.773 0-0.414 0.414-0.75 0.918-0.996 1.481-0.221 0.506-0.811 0.737-1.317 0.515s-0.737-0.811-0.515-1.317c0.343-0.785 0.818-1.497 1.414-2.093z"></path>
</svg>
