<!-- Generated by IcoMoon.io -->
<svg version="1.1" xmlns="http://www.w3.org/2000/svg" width="32" height="32" viewBox="0 0 32 32">
<title>wifi-off-regular</title>
<path d="M4.373 2.96c-0.183-0.196-0.443-0.318-0.732-0.318-0.552 0-1 0.448-1 1 0 0.289 0.122 0.549 0.318 0.731l0.001 0.001 4.485 4.487c-1.021 0.657-1.908 1.375-2.711 2.178l-0 0c-0.653 0.652-1.285 1.425-1.859 2.253-0.116 0.161-0.186 0.363-0.186 0.58 0 0.552 0.448 1 1 1 0.344 0 0.647-0.174 0.827-0.438l0.002-0.003c0.508-0.733 1.067-1.416 1.629-1.979 0.804-0.806 1.706-1.513 2.686-2.104l0.063-0.035 2.123 2.123c-0.983 0.528-1.827 1.16-2.564 1.899l-0 0c-0.813 0.813-1.479 1.733-1.989 2.741-0.068 0.131-0.108 0.287-0.108 0.451 0 0.552 0.448 1 1 1 0.388 0 0.724-0.221 0.89-0.543l0.003-0.006c0.439-0.858 0.98-1.594 1.618-2.23l0-0c0.743-0.744 1.619-1.355 2.59-1.794l0.055-0.022 2.573 2.573c-1.511 0.221-2.831 0.913-3.835 1.92l-0 0c-0.582 0.588-1.059 1.281-1.398 2.050l-0.017 0.044c-0.053 0.118-0.084 0.256-0.084 0.401 0 0.552 0.448 1 1 1 0.407 0 0.757-0.243 0.913-0.592l0.003-0.006c0.247-0.563 0.583-1.067 0.996-1.48 0.867-0.868 2.064-1.405 3.388-1.405 0.387 0 0.764 0.046 1.125 0.133l-0.033-0.007 10.476 10.477c0.18 0.174 0.425 0.281 0.695 0.281 0.552 0 1-0.448 1-1 0-0.27-0.107-0.515-0.281-0.695l-24.666-24.666zM15.445 11.203l2.112 2.112c1.848 0.326 3.453 1.195 4.688 2.433l0 0c0.637 0.647 1.178 1.39 1.599 2.205l0.024 0.051c0.173 0.314 0.502 0.523 0.879 0.523 0.552 0 1-0.448 1-1 0-0.158-0.037-0.307-0.102-0.44l0.003 0.006c-0.545-1.060-1.208-1.969-1.99-2.761l0.001 0.001c-1.941-1.945-4.625-3.149-7.59-3.149-0.219 0-0.437 0.007-0.653 0.020l0.030-0.001zM11.316 7.073l1.635 1.633c0.917-0.215 1.969-0.338 3.050-0.338 4.754 0 8.952 2.384 11.463 6.021l0.030 0.047c0.183 0.263 0.483 0.432 0.823 0.432 0.552 0 1-0.448 1-1 0-0.212-0.066-0.409-0.179-0.571l0.002 0.003c-2.909-4.208-7.708-6.93-13.143-6.93-1.671 0-3.282 0.257-4.795 0.734l0.113-0.031zM17.413 21.919c0.362 0.362 0.586 0.862 0.586 1.415 0 1.105-0.895 2-2 2-0.552 0-1.052-0.224-1.414-0.585v0c-0.362-0.362-0.586-0.862-0.586-1.415 0-1.105 0.896-2 2-2 0.552 0 1.052 0.224 1.414 0.585v0z"></path>
</svg>
