<!-- Generated by IcoMoon.io -->
<svg version="1.1" xmlns="http://www.w3.org/2000/svg" width="32" height="32" viewBox="0 0 32 32">
<title>wifi-2</title>
<path d="M23.66 14.335c0.788 0.788 1.47 1.743 1.989 2.759 0.252 0.492 0.057 1.094-0.435 1.346s-1.094 0.057-1.346-0.435c-0.427-0.835-0.987-1.62-1.623-2.256-3.417-3.417-8.957-3.417-12.374 0-0.664 0.664-1.203 1.41-1.618 2.231-0.249 0.493-0.851 0.69-1.344 0.441s-0.69-0.851-0.441-1.344c0.51-1.009 1.174-1.928 1.989-2.742 4.198-4.198 11.004-4.198 15.202 0zM20.858 18.426c0.597 0.597 1.088 1.33 1.43 2.11 0.222 0.506-0.009 1.096-0.515 1.317s-1.096-0.009-1.317-0.515c-0.244-0.557-0.596-1.082-1.012-1.498-1.87-1.87-4.903-1.87-6.773 0-0.414 0.414-0.75 0.918-0.996 1.481-0.221 0.506-0.811 0.737-1.317 0.515s-0.737-0.811-0.515-1.317c0.343-0.785 0.818-1.497 1.414-2.093 2.651-2.651 6.95-2.651 9.601 0zM17.414 21.919c0.781 0.781 0.781 2.048 0 2.829s-2.048 0.781-2.829 0c-0.781-0.781-0.781-2.048 0-2.829s2.048-0.781 2.829 0z"></path>
</svg>
