<!-- Generated by IcoMoon.io -->
<svg version="1.1" xmlns="http://www.w3.org/2000/svg" width="32" height="32" viewBox="0 0 32 32">
<title>window-arrow-up</title>
<path d="M23.333 16c4.050 0 7.333 3.283 7.333 7.333s-3.283 7.333-7.333 7.333c-4.050 0-7.333-3.283-7.333-7.333s3.283-7.333 7.333-7.333zM23.348 18.667l-0.112 0.007-0.073 0.015-0.111 0.040-0.098 0.056-0.075 0.061-3.35 3.349-0.077 0.092c-0.157 0.227-0.157 0.531 0 0.758l0.077 0.092 0.092 0.077c0.227 0.157 0.531 0.157 0.758 0l0.092-0.077 2.194-2.194 0.001 7.056 0.011 0.12c0.049 0.272 0.264 0.487 0.536 0.536l0.12 0.011 0.12-0.011c0.272-0.049 0.487-0.264 0.536-0.536l0.011-0.12-0.001-7.059 2.197 2.197 0.092 0.077c0.26 0.18 0.619 0.154 0.851-0.077s0.257-0.591 0.077-0.851l-0.077-0.092-3.397-3.39-0.063-0.043-0.090-0.045-0.084-0.028-0.072-0.015c-0.028-0.004-0.056-0.007-0.084-0.007zM8.333 4h15.333c2.311 0 4.199 1.809 4.327 4.087l0.007 0.246 0.002 7.697c-0.618-0.396-1.289-0.715-2.001-0.945l-0.001-4.418h-20v13c0 1.224 0.943 2.228 2.142 2.326l0.191 0.008 6.751 0.001c0.23 0.712 0.549 1.383 0.945 2.001l-7.697-0.002c-2.311 0-4.199-1.809-4.326-4.087l-0.007-0.246v-15.333c0-2.311 1.809-4.199 4.087-4.326l0.246-0.007z"></path>
</svg>
