<!-- Generated by IcoMoon.io -->
<svg version="1.1" xmlns="http://www.w3.org/2000/svg" width="32" height="32" viewBox="0 0 32 32">
<title>window-ad-person-regular</title>
<path d="M4.8 9.6c0-2.651 2.149-4.8 4.8-4.8v0h12.8c2.651 0 4.8 2.149 4.8 4.8v0 5.442c-0.461-0.272-0.999-0.473-1.572-0.572l-0.028-0.004v-3.266h-19.2v11.2c0 1.767 1.433 3.2 3.2 3.2v0h8.080c-0.053 0.259-0.080 0.526-0.080 0.8 0 0.267 0.021 0.534 0.061 0.8h-8.061c-2.651 0-4.8-2.149-4.8-4.8v0-12.8zM9.6 6.4c-1.767 0-3.2 1.433-3.2 3.2v0h19.2c0-1.767-1.433-3.2-3.2-3.2v0h-12.8zM24.8 22.4c1.767 0 3.2-1.433 3.2-3.2s-1.433-3.2-3.2-3.2v0c-1.767 0-3.2 1.433-3.2 3.2s1.433 3.2 3.2 3.2v0zM24.8 30.4c4 0 5.6-2.008 5.6-4 0-1.325-1.075-2.4-2.4-2.4v0h-6.4c-1.325 0-2.4 1.075-2.4 2.4v0c0 2 1.6 4 5.6 4zM9.6 19.2h4.8v-4.8h-4.8v4.8zM8 13.6c0-0.442 0.358-0.8 0.8-0.8v0h6.4c0.442 0 0.8 0.358 0.8 0.8v0 6.4c0 0.442-0.358 0.8-0.8 0.8v0h-6.4c-0.442 0-0.8-0.358-0.8-0.8v0-6.4z"></path>
</svg>
