<!-- Generated by IcoMoon.io -->
<svg version="1.1" xmlns="http://www.w3.org/2000/svg" width="32" height="32" viewBox="0 0 32 32">
<title>window-text</title>
<path d="M8 15.2c0-0.442 0.358-0.8 0.8-0.8v0h14.4c0.442 0 0.8 0.358 0.8 0.8s-0.358 0.8-0.8 0.8v0h-14.4c-0.442 0-0.8-0.358-0.8-0.8v0zM8 18.4c0-0.442 0.358-0.8 0.8-0.8v0h8c0.442 0 0.8 0.358 0.8 0.8s-0.358 0.8-0.8 0.8v0h-8c-0.442 0-0.8-0.358-0.8-0.8v0zM19.2 18.4c0-0.442 0.358-0.8 0.8-0.8v0h3.2c0.442 0 0.8 0.358 0.8 0.8s-0.358 0.8-0.8 0.8v0h-3.2c-0.442 0-0.8-0.358-0.8-0.8v0zM14.4 21.6c0-0.442 0.358-0.8 0.8-0.8v0h8c0.442 0 0.8 0.358 0.8 0.8s-0.358 0.8-0.8 0.8v0h-8c-0.442 0-0.8-0.358-0.8-0.8v0zM8 21.6c0-0.442 0.358-0.8 0.8-0.8v0h3.2c0.442 0 0.8 0.358 0.8 0.8s-0.358 0.8-0.8 0.8v0h-3.2c-0.442 0-0.8-0.358-0.8-0.8v0zM4.8 9.6c0-2.651 2.149-4.8 4.8-4.8v0h12.8c2.651 0 4.8 2.149 4.8 4.8v0 12.8c0 2.651-2.149 4.8-4.8 4.8v0h-12.8c-2.651 0-4.8-2.149-4.8-4.8v0-12.8zM9.6 6.4c-1.767 0-3.2 1.433-3.2 3.2v0h19.2c0-1.767-1.433-3.2-3.2-3.2v0h-12.8zM25.6 11.2h-19.2v11.2c0 1.767 1.433 3.2 3.2 3.2v0h12.8c1.767 0 3.2-1.433 3.2-3.2v0-11.2z"></path>
</svg>
