<!-- Generated by IcoMoon.io -->
<svg version="1.1" xmlns="http://www.w3.org/2000/svg" width="32" height="32" viewBox="0 0 32 32">
<title>window-inprivate-account</title>
<path d="M8.795 4.8c-2.209 0-4 1.791-4 4v0 14.4c0 2.209 1.791 4 4 4v0h7.462c-0.154-0.477-0.247-1.026-0.256-1.596l-0-0.004h-7.206c-1.325 0-2.4-1.075-2.4-2.4v0-12h20.805v-1.6h-0.005v-0.8c0-2.209-1.791-4-4-4v0h-14.4zM25.595 8.8v0.8h-19.2v-0.8c0-1.325 1.075-2.4 2.4-2.4v0h14.4c1.325 0 2.4 1.075 2.4 2.4v0zM24 19.2c-1.325 0-2.4-1.075-2.4-2.4s1.075-2.4 2.4-2.4v0h3.2c-0.738-0.976-1.896-1.6-3.2-1.6-2.209 0-4 1.791-4 4s1.791 4 4 4c1.304 0 2.462-0.624 3.193-1.59l0.007-0.010h-3.2zM20.080 24c-0.184 0-0.4 0.096-0.59 0.309-0.167 0.18-0.275 0.418-0.289 0.68l-0 0.003v0.512c0 1.422 1.552 3.296 4.8 3.296h4.781c-1.133 0.973-2.795 1.6-4.781 1.6-3.787 0-6.4-2.282-6.4-4.896v-0.512c0-0.648 0.28-1.28 0.694-1.746 0.418-0.47 1.042-0.846 1.786-0.846h7.84c0.744 0 1.368 0.376 1.786 0.846 0.195 0.219 0.362 0.477 0.48 0.754h-10.106zM28 16.8c0 0.274-0.027 0.541-0.080 0.8h-3.92v-1.6h3.92c0.053 0.259 0.080 0.526 0.080 0.8zM24 27.2h6.018c0.237-0.504 0.368-1.045 0.381-1.6h-6.398v1.6z"></path>
</svg>
