<!-- Generated by IcoMoon.io -->
<svg version="1.1" xmlns="http://www.w3.org/2000/svg" width="32" height="32" viewBox="0 0 32 32">
<title>window-new</title>
<path d="M15.029 9.667c0-0.552 0.448-1 1-1h6.305c0.552 0 1 0.448 1 1v6.305c0 0.552-0.448 1-1 1s-1-0.448-1-1v-3.89l-6.96 6.96c-0.391 0.391-1.024 0.391-1.414 0s-0.391-1.024 0-1.414l6.96-6.96h-3.89c-0.552 0-1-0.448-1-1z"></path>
<path d="M8.209 7c0.562-1.741 2.196-3 4.124-3h11.333c2.393 0 4.333 1.94 4.333 4.333v11.451c0 1.803-1.101 3.348-2.667 4.001v0.181c0 1.399-0.706 2.46-1.745 3.125-1 0.641-2.29 0.914-3.591 0.908l-10.664-0.006c-1.542 0-2.886-0.483-3.852-1.394-0.97-0.914-1.481-2.186-1.481-3.599v-11.667c0-1.154 0.288-2.244 0.979-3.062 0.712-0.843 1.746-1.271 2.963-1.271h0.268zM8 9h-0.059c-0.725 0-1.161 0.238-1.435 0.562-0.294 0.348-0.507 0.925-0.507 1.771v11.667c0 0.92 0.323 1.645 0.852 2.144 0.533 0.503 1.356 0.85 2.481 0.85l10.672 0.006c1.051 0.005 1.927-0.221 2.505-0.592 0.496-0.318 0.776-0.733 0.818-1.291h-10.994c-2.393 0-4.333-1.94-4.333-4.333v-10.784zM12.333 6c-1.289 0-2.333 1.045-2.333 2.333v11.451c0 1.289 1.045 2.333 2.333 2.333h11.333c1.289 0 2.333-1.045 2.333-2.333v-11.451c0-1.289-1.045-2.333-2.333-2.333h-11.333z"></path>
</svg>
