<!-- Generated by IcoMoon.io -->
<svg version="1.1" xmlns="http://www.w3.org/2000/svg" width="32" height="32" viewBox="0 0 32 32">
<title>window-shield</title>
<path d="M23.915 4.007l-0.248-0.007-15.579 0.007c-2.285 0.134-4.088 2.019-4.088 4.326 0 0 0 0 0 0v-0 15.333l0.007 0.245c0.134 2.285 2.019 4.088 4.326 4.088 0 0 0 0 0 0h11.047c-0.51-0.573-0.94-1.233-1.264-1.951l-0.020-0.049-9.955-0.008c-1.203-0.102-2.141-1.104-2.141-2.325v0l0.001-13h19.999v5.181c0.653 0.527 1.317 0.836 2.001 0.967v-8.481l-0.007-0.245c-0.129-2.199-1.881-3.951-4.068-4.079l-0.012-0.001zM8.333 6h15.333c1.288 0 2.333 1.045 2.333 2.333v0.333h-20v-0.333c0-1.288 1.044-2.333 2.333-2.333zM28 18.165c-0.75-0.111-1.425-0.358-2.025-0.715l0.025 0.014c-0.62-0.371-1.153-0.802-1.619-1.297l-0.004-0.004c-0.095-0.1-0.229-0.163-0.377-0.163s-0.283 0.062-0.377 0.163l-0 0c-1.325 1.381-2.792 2.060-4.423 2.060-0.295 0-0.533 0.248-0.533 0.555v3.335l0.005 0.355c0.045 1.351 0.351 2.531 0.912 3.533 0.432 0.773 1.015 1.44 1.748 2 0.699 0.533 1.532 0.969 2.499 1.305 0.109 0.037 0.228 0.037 0.337 0 3.413-1.187 5.165-3.617 5.165-7.193v-3.333l-0.012-0.113c-0.047-0.25-0.262-0.438-0.521-0.443h-0.001c-0.272 0-0.537-0.019-0.8-0.057z"></path>
</svg>
