<!-- Generated by IcoMoon.io -->
<svg version="1.1" xmlns="http://www.w3.org/2000/svg" width="32" height="32" viewBox="0 0 32 32">
<title>window-location-target-regular</title>
<path d="M9.6 4.8h12.8c2.651 0 4.8 2.149 4.8 4.8v0 7.613c-0.461-0.313-0.989-0.584-1.55-0.787l-0.050-0.016v-5.21h-19.2v11.2c0 1.767 1.433 3.2 3.2 3.2v0h6.81c0.202 0.57 0.472 1.107 0.803 1.6h-7.613c-2.651 0-4.8-2.149-4.8-4.8v0-12.8c0-2.651 2.149-4.8 4.8-4.8v0zM6.4 9.6h19.2c0-1.767-1.433-3.2-3.2-3.2v0h-12.8c-1.767 0-3.2 1.433-3.2 3.2v0zM24.090 24.531c-0.251 0.172-0.561 0.274-0.896 0.274-0.884 0-1.6-0.716-1.6-1.6 0-0.555 0.283-1.044 0.712-1.331l0.006-0.004c0.238-0.149 0.528-0.237 0.838-0.237 0.884 0 1.6 0.716 1.6 1.6 0 0.531-0.259 1.002-0.657 1.293l-0.005 0.003zM28.718 22.4h0.882c0.442 0 0.8 0.358 0.8 0.8s-0.358 0.8-0.8 0.8v0h-0.882c-0.365 2.445-2.274 4.353-4.688 4.715l-0.031 0.004v0.882c0 0.442-0.358 0.8-0.8 0.8s-0.8-0.358-0.8-0.8v0-0.882c-2.445-0.365-4.353-2.274-4.715-4.688l-0.004-0.031h-0.882c-0.442 0-0.8-0.358-0.8-0.8s0.358-0.8 0.8-0.8v0h0.882c0.365-2.445 2.274-4.353 4.688-4.715l0.031-0.004v-0.882c0-0.442 0.358-0.8 0.8-0.8s0.8 0.358 0.8 0.8v0 0.882c2.445 0.365 4.353 2.274 4.715 4.688l0.004 0.031zM23.592 27.181c2.034-0.206 3.608-1.91 3.608-3.981 0-2.209-1.791-4-4-4-0.138 0-0.274 0.007-0.409 0.021l0.017-0.001c-2.034 0.206-3.608 1.91-3.608 3.981 0 2.209 1.791 4 4 4 0.138 0 0.274-0.007 0.409-0.021l-0.017 0.001z"></path>
</svg>
