<!-- Generated by IcoMoon.io -->
<svg version="1.1" xmlns="http://www.w3.org/2000/svg" width="32" height="32" viewBox="0 0 32 32">
<title>window-bullet-list-add-regular</title>
<path d="M9.6 4.8c-2.651 0-4.8 2.149-4.8 4.8v0 12.8c0 2.651 2.149 4.8 4.8 4.8v0h5.76c-0.238-0.454-0.453-0.985-0.613-1.538l-0.015-0.062h-5.131c-1.767 0-3.2-1.433-3.2-3.2v0-11.2h19.2v3.531c0.558 0.158 1.093 0.368 1.6 0.629v-5.76c0-2.651-2.149-4.8-4.8-4.8v0h-12.8zM6.4 9.6c0-1.767 1.433-3.2 3.2-3.2v0h12.8c1.767 0 3.2 1.433 3.2 3.2v0h-19.2zM22.536 14.424c-0.062-0.015-0.133-0.024-0.206-0.024-0.004 0-0.007 0-0.011 0h-7.039c-0.004-0-0.009-0-0.013-0-0.345 0-0.645 0.197-0.792 0.485l-0.002 0.005c-0.042 0.090-0.067 0.196-0.067 0.308 0 0.223 0.099 0.423 0.255 0.559l0.001 0.001v0.006c0.159 0.147 0.373 0.237 0.607 0.237 0.004 0 0.009-0 0.013-0h2.859c1.231-0.878 2.737-1.449 4.367-1.574l0.030-0.002zM8.925 14.576c-0.079 0.18-0.125 0.39-0.125 0.61 0 0.005 0 0.010 0 0.015v-0.001c0.005 0.231 0.051 0.451 0.129 0.653l-0.004-0.013c0.078 0.195 0.192 0.361 0.337 0.495l0.001 0.001c0.15 0.144 0.323 0.256 0.512 0.339 0.18 0.079 0.39 0.125 0.61 0.125 0.005 0 0.011-0 0.017-0h-0.001c0.018 0.001 0.039 0.001 0.061 0.001 0.205 0 0.399-0.047 0.573-0.13l-0.008 0.003c0.198-0.090 0.368-0.208 0.512-0.352l-0 0c0.286-0.282 0.463-0.674 0.463-1.107 0-0.006-0-0.012-0-0.017v0.001c0-0 0-0.001 0-0.001 0-0.225-0.046-0.439-0.129-0.633l0.004 0.011c-0.084-0.201-0.202-0.371-0.35-0.511l-0.001-0.001c-0.145-0.137-0.315-0.25-0.501-0.333l-0.011-0.005c-0.179-0.080-0.388-0.126-0.608-0.126-0.002 0-0.003 0-0.005 0h0c-0.014-0.001-0.030-0.001-0.046-0.001-0.21 0-0.41 0.047-0.588 0.132l0.008-0.004c-0.382 0.167-0.681 0.465-0.845 0.836l-0.004 0.010zM8.8 21.6c-0-0.006-0-0.013-0-0.019 0-0.433 0.177-0.824 0.462-1.105l0-0c0.145-0.142 0.314-0.259 0.501-0.344l0.011-0.005c0.169-0.081 0.367-0.129 0.576-0.129 0.018 0 0.035 0 0.052 0.001l-0.002-0c0.002 0 0.004 0 0.006 0 0.22 0 0.428 0.047 0.617 0.132l-0.009-0.004c0.189 0.080 0.362 0.195 0.512 0.336 0.152 0.144 0.272 0.32 0.35 0.512 0.079 0.184 0.125 0.397 0.125 0.622 0 0.659-0.397 1.226-0.964 1.475l-0.010 0.004c-0.165 0.080-0.36 0.126-0.565 0.126-0.021 0-0.043-0-0.064-0.002l0.003 0c-0.005 0-0.010 0-0.016 0-0.22 0-0.43-0.046-0.62-0.129l0.010 0.004c-0.198-0.087-0.367-0.2-0.513-0.338l0.001 0.001c-0.145-0.136-0.26-0.303-0.334-0.49l-0.003-0.009c-0.074-0.189-0.12-0.409-0.125-0.638l-0-0.002zM27.2 29.187c-1.124 0.76-2.509 1.213-4 1.213-3.977 0-7.2-3.224-7.2-7.2 0-2.486 1.259-4.677 3.175-5.971l0.026-0.016c1.124-0.76 2.509-1.213 4-1.213 3.977 0 7.2 3.224 7.2 7.2 0 2.486-1.259 4.677-3.175 5.971l-0.026 0.016zM23.766 19.434c-0.145-0.145-0.345-0.235-0.566-0.235-0.442 0-0.8 0.358-0.8 0.8 0 0 0 0.001 0 0.002v-0 2.4h-2.4c-0.442 0-0.8 0.358-0.8 0.8s0.358 0.8 0.8 0.8v0h2.4v2.4c0 0.442 0.358 0.8 0.8 0.8s0.8-0.358 0.8-0.8v0-2.4h2.4c0.442 0 0.8-0.358 0.8-0.8s-0.358-0.8-0.8-0.8v0h-2.4v-2.4c0-0 0-0.001 0-0.001 0-0.221-0.089-0.42-0.234-0.565l0 0z"></path>
</svg>
