<!-- Generated by IcoMoon.io -->
<svg version="1.1" xmlns="http://www.w3.org/2000/svg" width="32" height="32" viewBox="0 0 32 32">
<title>window-arrow-up</title>
<path d="M23.333 16c4.050 0 7.333 3.283 7.333 7.333s-3.283 7.333-7.333 7.333v0c-4.050 0-7.333-3.283-7.333-7.333s3.283-7.333 7.333-7.333v0zM23.348 18.667l-0.112 0.007-0.073 0.016-0.111 0.040-0.099 0.056-0.075 0.060-3.351 3.349-0.076 0.093c-0.074 0.106-0.118 0.237-0.118 0.379s0.044 0.273 0.119 0.381l-0.001-0.002 0.076 0.093 0.093 0.076c0.106 0.074 0.237 0.118 0.379 0.118s0.273-0.044 0.381-0.119l-0.002 0.001 0.093-0.076 2.193-2.195 0.001 7.056 0.011 0.12c0.051 0.273 0.263 0.485 0.532 0.535l0.004 0.001 0.12 0.011 0.12-0.011c0.273-0.051 0.485-0.263 0.535-0.532l0.001-0.004 0.011-0.12-0.001-7.059 2.196 2.197 0.093 0.076c0.105 0.073 0.236 0.116 0.376 0.116 0.368 0 0.667-0.298 0.667-0.667 0-0.141-0.044-0.271-0.118-0.379l0.001 0.002-0.076-0.093-3.397-3.389-0.063-0.043-0.091-0.045-0.084-0.028-0.072-0.015c-0.025-0.004-0.054-0.007-0.084-0.008l-0.001-0zM8.333 4h15.333c0 0 0 0 0 0 2.307 0 4.193 1.803 4.326 4.076l0.001 0.012 0.007 0.245 0.001 7.697c-0.575-0.375-1.237-0.696-1.939-0.929l-0.061-0.018-0.001-4.417h-20v13c0 1.221 0.938 2.223 2.133 2.325l0.009 0.001 0.192 0.008h6.752c0.229 0.712 0.549 1.384 0.945 2.001l-7.697-0.001c-0 0-0 0-0 0-2.307 0-4.193-1.803-4.326-4.076l-0.001-0.012-0.007-0.245v-15.333c0-0 0-0 0-0 0-2.307 1.803-4.193 4.076-4.326l0.012-0.001 0.245-0.007z"></path>
</svg>
