<!-- Generated by IcoMoon.io -->
<svg version="1.1" xmlns="http://www.w3.org/2000/svg" width="32" height="32" viewBox="0 0 32 32">
<title>wrench-regular</title>
<path d="M14 10.335c0-0.001 0-0.002 0-0.002 0-4.234 3.432-7.667 7.667-7.667 1.281 0 2.488 0.314 3.549 0.869l-0.042-0.020c0.324 0.17 0.541 0.504 0.541 0.889 0 0.276-0.112 0.526-0.293 0.707v0l-3.687 3.689 1.413 1.413 3.705-3.704c0.181-0.181 0.431-0.292 0.707-0.292 0.381 0 0.713 0.213 0.881 0.527l0.003 0.005c0.562 1.040 0.893 2.277 0.893 3.59 0 4.234-3.432 7.667-7.667 7.667-0.635 0-1.251-0.077-1.841-0.223l0.053 0.011-9.82 10.157c-0.741 0.765-1.777 1.241-2.925 1.241-2.246 0-4.067-1.821-4.067-4.067 0-1.099 0.436-2.096 1.144-2.828l-0.001 0.001 9.967-10.312c-0.114-0.495-0.179-1.064-0.179-1.648 0-0.001 0-0.002 0-0.003v0zM21.667 4.668c-0.001 0-0.001 0-0.002 0-3.13 0-5.667 2.537-5.667 5.667 0 0.589 0.090 1.157 0.257 1.691l-0.011-0.040c0.028 0.087 0.044 0.188 0.044 0.292 0 0.27-0.107 0.515-0.281 0.695l0-0-10.357 10.715c-0.359 0.371-0.581 0.878-0.581 1.437 0 1.142 0.926 2.067 2.067 2.067 0.583 0 1.11-0.242 1.486-0.63l0.001-0.001 10.235-10.587c0.182-0.189 0.438-0.306 0.72-0.306 0.112 0 0.22 0.018 0.32 0.052l-0.007-0.002c0.531 0.182 1.143 0.286 1.779 0.286 3.13 0 5.667-2.537 5.667-5.667 0-0.471-0.057-0.928-0.166-1.365l0.008 0.039-3.323 3.324c-0.181 0.181-0.431 0.293-0.707 0.293s-0.526-0.112-0.707-0.293l-2.828-2.829c-0.181-0.181-0.292-0.431-0.292-0.707s0.112-0.526 0.292-0.707l3.288-3.289c-0.37-0.086-0.795-0.135-1.231-0.135-0.001 0-0.003 0-0.004 0h0z"></path>
</svg>
