<!-- Generated by IcoMoon.io -->
<svg version="1.1" xmlns="http://www.w3.org/2000/svg" width="32" height="32" viewBox="0 0 32 32">
<title>wrench</title>
<path d="M14 10.335c0-4.234 3.433-7.667 7.667-7.667 1.261 0 2.454 0.305 3.506 0.847 0.284 0.146 0.481 0.419 0.53 0.735s-0.055 0.636-0.281 0.861l-3.688 3.688 1.414 1.414 3.705-3.705c0.224-0.224 0.542-0.329 0.855-0.282s0.587 0.24 0.735 0.52c0.568 1.072 0.89 2.294 0.89 3.588 0 4.234-3.432 7.667-7.667 7.667-0.614 0-1.212-0.072-1.786-0.209l-9.82 10.159c-1.496 1.547-3.938 1.662-5.572 0.261-1.778-1.524-1.905-4.232-0.277-5.915l9.967-10.311c-0.117-0.532-0.178-1.085-0.178-1.651zM21.667 4.669c-3.13 0-5.667 2.537-5.667 5.667 0 0.576 0.086 1.13 0.244 1.651 0.106 0.347 0.015 0.725-0.238 0.986l-10.357 10.714c-0.827 0.856-0.763 2.232 0.141 3.007 0.831 0.712 2.072 0.654 2.832-0.133l10.235-10.588c0.267-0.276 0.668-0.375 1.032-0.255 0.558 0.184 1.154 0.284 1.777 0.284 3.13 0 5.667-2.537 5.667-5.667 0-0.456-0.054-0.899-0.155-1.323l-3.323 3.323c-0.391 0.391-1.024 0.391-1.414 0l-2.829-2.828c-0.391-0.391-0.391-1.024 0-1.414l3.289-3.289c-0.397-0.088-0.81-0.135-1.235-0.135z"></path>
</svg>
