<!-- Generated by IcoMoon.io -->
<svg version="1.1" xmlns="http://www.w3.org/2000/svg" width="32" height="32" viewBox="0 0 32 32">
<title>wrench-screwdriver</title>
<path d="M21.363 3.424c0.111-0.445 0.511-0.757 0.97-0.757h2c0.459 0 0.859 0.312 0.97 0.757l1.333 5.333c0.119 0.476-0.125 0.968-0.576 1.162l-1.727 0.74v5.341h3.333c0.552 0 1 0.448 1 1s-0.448 1-1 1h-1v8c0 1.841-1.492 3.333-3.333 3.333s-3.333-1.492-3.333-3.333v-8h-1c-0.552 0-1-0.448-1-1s0.448-1 1-1h3.333v-5.341l-1.727-0.74c-0.451-0.193-0.695-0.686-0.576-1.162l1.333-5.333zM23.114 4.667l-0.937 3.75 1.157 0.496 1.157-0.496-0.937-3.75h-0.438zM22 26c0 0.736 0.597 1.333 1.333 1.333s1.333-0.597 1.333-1.333v-8h-2.667v8zM11.771 2.95c0.274-0.186 0.623-0.224 0.93-0.102 2.711 1.075 4.632 3.722 4.632 6.819 0 2.832-1.605 5.287-3.952 6.509v9.777c0 1.867-1.514 3.381-3.381 3.381s-3.381-1.514-3.381-3.381v-9.777c-2.347-1.222-3.952-3.677-3.952-6.509 0-3.098 1.92-5.744 4.631-6.819 0.308-0.122 0.656-0.084 0.93 0.102s0.438 0.496 0.438 0.827v4.889c0 0.736 0.597 1.333 1.333 1.333s1.333-0.597 1.333-1.333v-4.89c0-0.331 0.164-0.641 0.438-0.827zM13.333 5.503v3.164c0 1.841-1.492 3.333-3.333 3.333s-3.333-1.492-3.333-3.333v-3.164c-1.22 0.978-2 2.48-2 4.164 0 2.235 1.375 4.151 3.329 4.944 0.377 0.153 0.624 0.519 0.624 0.927v10.415c0 0.763 0.618 1.381 1.381 1.381s1.381-0.618 1.381-1.381v-10.415c0-0.407 0.247-0.773 0.624-0.927 1.954-0.793 3.329-2.709 3.329-4.944 0-1.683-0.78-3.186-2-4.164z"></path>
</svg>
