<!-- Generated by IcoMoon.io -->
<svg version="1.1" xmlns="http://www.w3.org/2000/svg" width="32" height="32" viewBox="0 0 32 32">
<title>wrench-screwdriver-regular</title>
<path d="M21.667 2.667c-0.389 0.001-0.726 0.223-0.891 0.548l-0.003 0.006-1.333 2.667c-0.067 0.13-0.106 0.284-0.106 0.448 0 0.182 0.049 0.353 0.134 0.5l-0.003-0.005 1.201 2.104v7.067h-1c-0.552 0-1 0.448-1 1v0 7.667c0 2.577 2.089 4.667 4.667 4.667s4.667-2.089 4.667-4.667v0-7.667c0-0.552-0.448-1-1-1v0h-1v-7.067l1.201-2.104c0.083-0.143 0.132-0.314 0.132-0.496 0-0.163-0.039-0.316-0.108-0.452l0.003 0.006-1.333-2.667c-0.168-0.331-0.505-0.553-0.895-0.553h-3.333zM24 16h-1.333v-7.333c-0-0.182-0.049-0.354-0.135-0.501l0.003 0.005-1.067-1.869 0.817-1.635h2.097l0.817 1.635-1.068 1.869c-0.083 0.142-0.132 0.313-0.132 0.496v7.333zM20.667 24.667v-3.333h5.333v3.333c0 1.473-1.194 2.667-2.667 2.667s-2.667-1.194-2.667-2.667v0zM26 19.333h-5.333v-1.333h5.333v1.333zM12.701 2.848c-0.109-0.044-0.236-0.070-0.368-0.070-0.552 0-1 0.447-1 0.999v4.889c0 0.736-0.597 1.333-1.333 1.333s-1.333-0.597-1.333-1.333v0-4.889c0 0 0-0 0-0 0-0.552-0.448-1-1-1-0.133 0-0.26 0.026-0.376 0.073l0.007-0.002c-2.736 1.107-4.631 3.742-4.631 6.819 0 2.815 1.586 5.26 3.912 6.49l0.040 0.019v9.776c0 1.867 1.514 3.381 3.381 3.381s3.381-1.514 3.381-3.381v0-9.776c2.366-1.249 3.952-3.694 3.952-6.509 0-3.078-1.895-5.713-4.582-6.802l-0.049-0.018zM13.333 8.667v-3.164c1.223 0.986 2 2.485 2 4.164 0 2.223-1.359 4.129-3.292 4.931l-0.035 0.013c-0.369 0.153-0.624 0.51-0.624 0.927 0 0 0 0 0 0v0 10.415c0 0.763-0.618 1.381-1.381 1.381s-1.381-0.618-1.381-1.381v0-10.415c0 0 0-0 0-0 0-0.417-0.255-0.774-0.617-0.924l-0.007-0.002c-1.968-0.815-3.327-2.721-3.327-4.943 0-1.679 0.776-3.177 1.988-4.155l0.010-0.008v3.163c0 1.841 1.492 3.333 3.333 3.333s3.333-1.492 3.333-3.333v0z"></path>
</svg>
