<!-- Generated by IcoMoon.io -->
<svg version="1.1" xmlns="http://www.w3.org/2000/svg" width="32" height="32" viewBox="0 0 32 32">
<title>xbox-controller-regular</title>
<path d="M13.029 7.347c-0.707-0.358-1.487-0.415-2.202-0.279l-1.495 0.287c-1.182 0.232-2.152 0.983-2.679 2l-0.010 0.021c-1.823 3.589-3.192 6.515-3.727 9.007-0.548 2.557-0.233 4.735 1.363 6.721 1.067 1.327 2.935 1.063 3.907-0.044 0.436-0.489 1.175-1.34 1.91-2.194l0.352-0.419c0.586-0.682 1.45-1.112 2.414-1.113h6.276c0.927 0 1.809 0.407 2.415 1.113 1.088 1.275 1.827 2.125 2.571 2.972l-0.309-0.358c0.971 1.107 2.841 1.371 3.907 0.044 1.596-1.987 1.911-4.164 1.363-6.721-0.535-2.492-1.904-5.419-3.727-9.007-0.537-1.038-1.506-1.789-2.664-2.017l-0.024-0.004-1.496-0.287c-0.715-0.137-1.495-0.080-2.202 0.278-0.24 0.119-0.377 0.191-0.512 0.266l0.095-0.048c-0.523 0.28-1.084 0.435-1.641 0.435h-1.825c-0.558 0-1.119-0.155-1.641-0.435-0.041-0.027-0.178-0.099-0.316-0.17l-0.102-0.048zM11.141 8.705c0.418-0.080 0.813-0.035 1.135 0.128 0.123 0.063 0.251 0.129 0.382 0.2 0.733 0.393 1.563 0.633 2.43 0.633h1.825c0.867 0 1.697-0.24 2.43-0.633 0.13-0.071 0.258-0.137 0.381-0.2 0.323-0.163 0.717-0.208 1.135-0.128l1.496 0.287c0.654 0.125 1.215 0.547 1.516 1.139 1.837 3.617 3.101 6.355 3.583 8.602 0.468 2.182 0.182 3.816-1.033 5.328-0.277 0.345-0.91 0.407-1.354-0.1-0.434-0.487-1.17-1.333-1.901-2.183l-0.35-0.416c-0.894-1.039-2.21-1.694-3.679-1.695h-6.276c-1.469 0.001-2.786 0.656-3.675 1.688l-0.005 0.006c-1.082 1.268-1.817 2.114-2.556 2.956l0.307-0.357c-0.444 0.507-1.077 0.445-1.355 0.1-1.215-1.512-1.5-3.146-1.033-5.328 0.483-2.247 1.747-4.985 3.583-8.602 0.303-0.585 0.85-1.008 1.503-1.136l0.014-0.002 1.495-0.287zM15.999 14c0.736 0 1.333-0.597 1.333-1.333s-0.597-1.333-1.333-1.333v0c-0.736 0-1.333 0.597-1.333 1.333s0.597 1.333 1.333 1.333v0z"></path>
</svg>
