<!-- Generated by IcoMoon.io -->
<svg version="1.1" xmlns="http://www.w3.org/2000/svg" width="32" height="32" viewBox="0 0 32 32">
<title>xray</title>
<path d="M17 7.667c0-0.552-0.448-1-1-1s-1 0.448-1 1v1h-3c-0.552 0-1 0.448-1 1s0.448 1 1 1h3v1.333h-4.667c-0.552 0-1 0.448-1 1s0.448 1 1 1h4.667v1.333h-4.667c-0.552 0-1 0.448-1 1s0.448 1 1 1h4.667v2h-2.667c-1.657 0-3 1.343-3 3s1.343 3 3 3c1.657 0 3-1.343 3-3 0-0.351-0.060-0.687-0.171-1h1.675c-0.111 0.313-0.171 0.649-0.171 1 0 1.657 1.343 3 3 3s3-1.343 3-3c0-1.657-1.343-3-3-3h-2.667v-2h4.667c0.552 0 1-0.448 1-1s-0.448-1-1-1h-4.667v-1.333h4.667c0.552 0 1-0.448 1-1s-0.448-1-1-1h-4.667v-1.333h3c0.552 0 1-0.448 1-1s-0.448-1-1-1h-3v-1zM19.667 21.333c0.552 0 1 0.448 1 1s-0.448 1-1 1c-0.552 0-1-0.448-1-1s0.448-1 1-1zM11.333 22.333c0-0.552 0.448-1 1-1s1 0.448 1 1c0 0.552-0.448 1-1 1s-1-0.448-1-1zM9.667 2.667c-2.393 0-4.333 1.94-4.333 4.333v18c0 2.393 1.94 4.333 4.333 4.333h12.667c2.393 0 4.333-1.94 4.333-4.333v-18c0-2.393-1.94-4.333-4.333-4.333h-12.667zM7.333 7c0-1.289 1.045-2.333 2.333-2.333h12.667c1.289 0 2.333 1.045 2.333 2.333v18c0 1.289-1.045 2.333-2.333 2.333h-12.667c-1.289 0-2.333-1.045-2.333-2.333v-18z"></path>
</svg>
