<!-- Generated by IcoMoon.io -->
<svg version="1.1" xmlns="http://www.w3.org/2000/svg" width="32" height="32" viewBox="0 0 32 32">
<title>zoom-out</title>
<path d="M17 12.333c0.552 0 1 0.448 1 1s-0.448 1-1 1h-7.333c-0.552 0-1-0.448-1-1s0.448-1 1-1h7.333z"></path>
<path d="M23 13.333c0-5.339-4.328-9.667-9.667-9.667s-9.667 4.328-9.667 9.667c0 5.339 4.328 9.667 9.667 9.667 2.309 0 4.429-0.81 6.092-2.161l6.535 6.534 0.112 0.097c0.391 0.291 0.947 0.258 1.302-0.097 0.391-0.391 0.391-1.024 0-1.414l-6.534-6.535c1.351-1.663 2.161-3.783 2.161-6.092zM5.667 13.333c0-4.234 3.432-7.667 7.667-7.667s7.667 3.432 7.667 7.667c0 4.234-3.433 7.667-7.667 7.667s-7.667-3.433-7.667-7.667z"></path>
</svg>
