<!-- Generated by IcoMoon.io -->
<svg version="1.1" xmlns="http://www.w3.org/2000/svg" width="32" height="32" viewBox="0 0 32 32">
<title>zoom-in</title>
<path d="M18 13.333c0-0.552-0.448-1-1-1h-2.667v-2.667c0-0.552-0.448-1-1-1s-1 0.448-1 1v2.667h-2.667c-0.552 0-1 0.448-1 1s0.448 1 1 1h2.667v2.667c0 0.552 0.448 1 1 1s1-0.448 1-1v-2.667h2.667c0.552 0 1-0.448 1-1z"></path>
<path d="M13.333 3.667c5.339 0 9.667 4.328 9.667 9.667 0 2.309-0.81 4.429-2.161 6.092l6.534 6.535c0.391 0.391 0.391 1.024 0 1.414-0.355 0.355-0.911 0.387-1.302 0.097l-0.112-0.097-6.535-6.534c-1.663 1.351-3.783 2.161-6.092 2.161-5.339 0-9.667-4.328-9.667-9.667s4.328-9.667 9.667-9.667zM13.333 5.667c-4.234 0-7.667 3.432-7.667 7.667s3.432 7.667 7.667 7.667c4.234 0 7.667-3.433 7.667-7.667s-3.433-7.667-7.667-7.667z"></path>
</svg>
