<!-- Generated by IcoMoon.io -->
<svg version="1.1" xmlns="http://www.w3.org/2000/svg" width="32" height="32" viewBox="0 0 32 32">
<title>zoom-in-regular</title>
<path d="M18 13.333c0-0.552-0.448-1-1-1v0h-2.667v-2.667c0-0.552-0.448-1-1-1s-1 0.448-1 1v0 2.667h-2.667c-0.552 0-1 0.448-1 1s0.448 1 1 1v0h2.667v2.667c0 0.552 0.448 1 1 1s1-0.448 1-1v0-2.667h2.667c0.552 0 1-0.448 1-1v0zM13.333 3.667c0 0 0.001 0 0.001 0 5.339 0 9.667 4.328 9.667 9.667 0 2.317-0.815 4.444-2.175 6.109l0.014-0.017 6.533 6.533c0.182 0.181 0.295 0.432 0.295 0.709 0 0.552-0.448 1-1 1-0.225 0-0.432-0.074-0.599-0.199l0.003 0.002-0.112-0.097-6.535-6.533c-1.648 1.345-3.774 2.16-6.091 2.16-5.339 0-9.667-4.328-9.667-9.667s4.327-9.666 9.665-9.667h0zM13.333 5.667c-4.234 0-7.667 3.432-7.667 7.667s3.432 7.667 7.667 7.667v0c4.234 0 7.667-3.432 7.667-7.667s-3.432-7.667-7.667-7.667v0z"></path>
</svg>
