<!-- Generated by IcoMoon.io -->
<svg version="1.1" xmlns="http://www.w3.org/2000/svg" width="32" height="32" viewBox="0 0 32 32">
<title>accdb</title>
<path fill="#fff" d="M9 29.333h19.333c0.183 0 0.333-0.15 0.333-0.333v-19.667h-5.667c-0.551 0-1-0.449-1-1v-5.667h-13c-0.183 0-0.333 0.15-0.333 0.333v26c0 0.183 0.15 0.333 0.333 0.333z"></path>
<path fill="#fff" d="M28.195 8.667l-5.529-5.529v5.195c0 0.183 0.15 0.333 0.333 0.333h5.195z"></path>
<path fill="#605e5c" opacity="0.6399999856948853" d="M29.040 8.569l-6.276-6.277c-0.181-0.18-0.431-0.292-0.706-0.293h-13.057c-0.551 0-1 0.449-1 1v26c0 0.551 0.449 1 1 1h19.333c0.551 0 1-0.449 1-1v-19.724c0-0.267-0.104-0.518-0.293-0.707zM22.667 3.138l5.529 5.529h-5.195c-0.184-0-0.333-0.149-0.333-0.333v-5.195zM28.333 29.333h-19.333c-0.184-0-0.333-0.149-0.333-0.333v-26c0-0.183 0.15-0.333 0.333-0.333h13v5.667c0 0.551 0.449 1 1 1h5.667v19.667c0 0.183-0.15 0.333-0.333 0.333z"></path>
<path fill="#af2031" d="M4 24.667h12c0.736 0 1.333-0.597 1.333-1.333v0-12c0-0.736-0.597-1.333-1.333-1.333v0h-12c-0.736 0-1.333 0.597-1.333 1.333v0 12c0 0.736 0.597 1.333 1.333 1.333v0z"></path>
<path fill="#fff" d="M9.079 13.333h1.888l3.033 8h-1.783l-0.669-2h-3.12l-0.656 2h-1.772l3.079-8zM11.147 18.193l-0.97-2.895c-0.097-0.276-0.157-0.493-0.18-0.653h-0.035c-0.015 0.145-0.073 0.369-0.174 0.67l-0.982 2.879h2.341z"></path>
<path fill="#c94f60" d="M26 14.667v5.667c0 0.184-0.149 0.333-0.333 0.333v0h-7v0.667h7c0.551 0 1-0.449 1-1v-5.667h-0.667z"></path>
<path fill="#e08095" d="M26.667 15.333h-8v-2h7c0.552 0 1 0.448 1 1v0 1z"></path>
<path fill="#c94f60" d="M24.333 18.667h-2c-0.184 0-0.333 0.149-0.333 0.333s0.149 0.333 0.333 0.333v0h2c0.184 0 0.333-0.149 0.333-0.333s-0.149-0.333-0.333-0.333v0z"></path>
<path fill="#e08095" d="M24.333 16.667h-2c-0.184 0-0.333 0.149-0.333 0.333s0.149 0.333 0.333 0.333v0h2c0.184 0 0.333-0.149 0.333-0.333s-0.149-0.333-0.333-0.333v0z"></path>
<path fill="#af2031" d="M20.333 18.667h-1.667v0.667h1.667c0.184 0 0.333-0.149 0.333-0.333s-0.149-0.333-0.333-0.333v0z"></path>
<path fill="#c94f60" d="M20.333 16.667h-1.667v0.667h1.667c0.184 0 0.333-0.149 0.333-0.333s-0.149-0.333-0.333-0.333v0z"></path>
</svg>
