<!-- Generated by IcoMoon.io -->
<svg version="1.1" xmlns="http://www.w3.org/2000/svg" width="32" height="32" viewBox="0 0 32 32">
<title>csv</title>
<path fill="#fff" d="M9 29.333h19.333c0.183 0 0.333-0.15 0.333-0.333v-19.667h-5.667c-0.551 0-1-0.449-1-1v-5.667h-13c-0.183 0-0.333 0.15-0.333 0.333v26c0 0.183 0.15 0.333 0.333 0.333z"></path>
<path fill="#fff" d="M28.195 8.667l-5.529-5.529v5.195c0 0.183 0.15 0.333 0.333 0.333h5.195z"></path>
<path fill="#605e5c" opacity="0.6399999856948853" d="M29.040 8.569l-6.276-6.277c-0.181-0.18-0.431-0.292-0.706-0.293h-13.057c-0.551 0-1 0.449-1 1v26c0 0.551 0.449 1 1 1h19.333c0.551 0 1-0.449 1-1v-19.724c0-0.267-0.104-0.518-0.293-0.707zM22.667 3.138l5.529 5.529h-5.195c-0.184-0-0.333-0.149-0.333-0.333v-5.195zM28.333 29.333h-19.333c-0.184-0-0.333-0.149-0.333-0.333v-26c0-0.183 0.15-0.333 0.333-0.333h13v5.667c0 0.551 0.449 1 1 1h5.667v19.667c0 0.183-0.15 0.333-0.333 0.333z"></path>
<path fill="#33c481" d="M24 20.687h-1.053v-1.027h-0.025c-0.458 0.791-1.133 1.187-2.023 1.187-0.633 0-1.141-0.172-1.521-0.517s-0.572-0.808-0.572-1.39c0-1.225 0.723-1.939 2.17-2.145l1.971-0.276c0-1.113-0.452-1.669-1.355-1.669-0.792 0-1.507 0.267-2.145 0.802v-1.079c0.193-0.145 0.523-0.285 0.989-0.42s0.882-0.203 1.246-0.203c1.545 0 2.318 0.82 2.318 2.46v4.275zM22.947 17.361l-1.592 0.225c-0.544 0.077-0.925 0.207-1.143 0.389s-0.327 0.477-0.327 0.883c0 0.33 0.117 0.594 0.352 0.793s0.537 0.299 0.906 0.299c0.522 0 0.953-0.184 1.293-0.553s0.511-0.828 0.511-1.38v-0.655zM26.667 19.514l-1.021 3.153h-0.751l0.751-3.153h1.021z"></path>
<path fill="#107c41" d="M4 24.667h12c0.736 0 1.333-0.597 1.333-1.333v0-12c0-0.736-0.597-1.333-1.333-1.333v0h-12c-0.736 0-1.333 0.597-1.333 1.333v0 12c0 0.736 0.597 1.333 1.333 1.333v0z"></path>
<path fill="#f9f7f7" d="M6.345 21.333l2.567-4.011-2.352-3.989h1.893l1.284 2.55c0.118 0.241 0.199 0.422 0.243 0.541h0.017c0.085-0.193 0.173-0.381 0.265-0.563l1.373-2.527h1.737l-2.413 3.967 2.474 4.033h-1.848l-1.483-2.8c-0.063-0.106-0.123-0.229-0.171-0.358l-0.005-0.016h-0.022c-0.047 0.138-0.105 0.258-0.176 0.369l0.004-0.007-1.527 2.812h-1.86z"></path>
</svg>
