<!-- Generated by IcoMoon.io -->
<svg version="1.1" xmlns="http://www.w3.org/2000/svg" width="32" height="32" viewBox="0 0 32 32">
<title>docx</title>
<path fill="#fff" d="M9 29.333h19.333c0.183 0 0.333-0.15 0.333-0.333v-19.667h-5.667c-0.551 0-1-0.449-1-1v-5.667h-13c-0.183 0-0.333 0.15-0.333 0.333v26c0 0.183 0.15 0.333 0.333 0.333z"></path>
<path fill="#fff" d="M28.195 8.667l-5.529-5.529v5.195c0 0.183 0.15 0.333 0.333 0.333h5.195z"></path>
<path fill="#605e5c" opacity="0.6399999856948853" d="M29.040 8.569l-6.276-6.277c-0.181-0.18-0.431-0.292-0.706-0.293h-13.057c-0.551 0-1 0.449-1 1v26c0 0.551 0.449 1 1 1h19.333c0.551 0 1-0.449 1-1v-19.724c0-0.267-0.104-0.518-0.293-0.707zM22.667 3.138l5.529 5.529h-5.195c-0.184-0-0.333-0.149-0.333-0.333v-5.195zM28.333 29.333h-19.333c-0.184-0-0.333-0.149-0.333-0.333v-26c0-0.183 0.15-0.333 0.333-0.333h13v5.667c0 0.551 0.449 1 1 1h5.667v19.667c0 0.183-0.15 0.333-0.333 0.333z"></path>
<path fill="#103f91" d="M26.333 20h-7.667v0.667h7.667c0.184 0 0.333-0.149 0.333-0.333s-0.149-0.333-0.333-0.333v0z"></path>
<path fill="#185abd" d="M26.333 18h-7.667v0.667h7.667c0.184 0 0.333-0.149 0.333-0.333s-0.149-0.333-0.333-0.333v0z"></path>
<path fill="#2b7cd3" d="M26.333 16h-7.667v0.667h7.667c0.184 0 0.333-0.149 0.333-0.333s-0.149-0.333-0.333-0.333v0z"></path>
<path fill="#41a5ee" d="M26.333 14h-7.667v0.667h7.667c0.184 0 0.333-0.149 0.333-0.333s-0.149-0.333-0.333-0.333v0z"></path>
<path fill="#185abd" d="M4 24.667h12c0.736 0 1.333-0.597 1.333-1.333v0-12c0-0.736-0.597-1.333-1.333-1.333v0h-12c-0.736 0-1.333 0.597-1.333 1.333v0 12c0 0.736 0.597 1.333 1.333 1.333v0z"></path>
<path fill="#f9f7f7" d="M7.886 19.548c0.022 0.175 0.037 0.327 0.043 0.456h0.025c0.035-0.34 0.085-0.642 0.153-0.937l-0.010 0.052 1.183-5.119h1.53l1.224 5.043c0.061 0.249 0.112 0.565 0.153 0.951h0.020c0.017-0.266 0.060-0.573 0.127-0.92l0.98-5.073h1.392l-1.713 7.333h-1.627l-1.168-4.858c-0.034-0.14-0.073-0.323-0.115-0.548s-0.069-0.389-0.079-0.491h-0.020c-0.013 0.12-0.040 0.297-0.079 0.532-0.039 0.236-0.071 0.409-0.094 0.522l-1.097 4.843h-1.653l-1.729-7.333h1.418l1.065 5.129c0.024 0.106 0.047 0.246 0.069 0.419z"></path>
</svg>
