<!-- Generated by IcoMoon.io -->
<svg version="1.1" xmlns="http://www.w3.org/2000/svg" width="32" height="32" viewBox="0 0 32 32">
<title>dotx</title>
<path fill="#fff" d="M27.333 27c0 0.551-0.449 1-1 1h-15.667v1c0 0.184 0.149 0.333 0.333 0.333v0h17.333c0.184 0 0.333-0.149 0.333-0.333v0-24h0.333v-0.333l-2-1.333v2.333h0.333v21.333z"></path>
<path fill="#fff" d="M9 27.333h17.333c0.184 0 0.333-0.149 0.333-0.333v0-21.333h-18v21.333c0 0.184 0.149 0.333 0.333 0.333v0z"></path>
<path fill="#605e5c" opacity="0.6399999856948853" d="M28.667 5v24c0 0.184-0.149 0.333-0.333 0.333v0h-17.333c-0.184 0-0.333-0.149-0.333-0.333v0-1h15.667c0.551 0 1-0.449 1-1v-21.333h-0.667v21.333c0 0.184-0.149 0.333-0.333 0.333v0h-17.333c-0.184 0-0.333-0.149-0.333-0.333v0-21.333h-0.667v21.333c0 0.551 0.449 1 1 1h1v1c0 0.551 0.449 1 1 1h17.333c0.551 0 1-0.449 1-1v-24h-0.667z"></path>
<path fill="#41a5ee" d="M27.333 2.065c-0.081-0.040-0.175-0.063-0.276-0.065h-18.391c-0.368 0-0.667 0.298-0.667 0.667v0 2.667l0.333 0.333h18.667l0.333-0.333v-0.833l0.333-0.333v-1.167l-0.333-0.935z"></path>
<path fill="#2b7cd3" d="M8 5.333h19.333v0.667h-19.333zM27.902 4.569l1.431 1.431v-1.724c-0-0.184-0.075-0.351-0.195-0.471l-1.609-1.609c-0.055-0.053-0.12-0.097-0.191-0.129l-0.004-0.002v2.74c0-0.184 0.149-0.333 0.333-0.333 0.092 0 0.175 0.037 0.235 0.097v0z"></path>
<path fill="#103f91" d="M24.333 20h-5.667v0.667h5.667c0.184 0 0.333-0.149 0.333-0.333s-0.149-0.333-0.333-0.333v0z"></path>
<path fill="#185abd" d="M24.333 18h-5.667v0.667h5.667c0.184 0 0.333-0.149 0.333-0.333s-0.149-0.333-0.333-0.333v0z"></path>
<path fill="#2b7cd3" d="M24.333 16h-5.667v0.667h5.667c0.184 0 0.333-0.149 0.333-0.333s-0.149-0.333-0.333-0.333v0z"></path>
<path fill="#41a5ee" d="M24.333 14h-5.667v0.667h5.667c0.184 0 0.333-0.149 0.333-0.333s-0.149-0.333-0.333-0.333v0z"></path>
<path fill="#185abd" d="M4 24.667h12c0.736 0 1.333-0.597 1.333-1.333v0-12c0-0.736-0.597-1.333-1.333-1.333v0h-12c-0.736 0-1.333 0.597-1.333 1.333v0 12c0 0.736 0.597 1.333 1.333 1.333v0z"></path>
<path fill="#f9f7f7" d="M7.886 19.548c0.022 0.175 0.037 0.327 0.043 0.456h0.025c0.035-0.34 0.085-0.642 0.153-0.937l-0.010 0.052 1.183-5.119h1.53l1.224 5.043c0.061 0.249 0.112 0.565 0.153 0.951h0.020c0.017-0.266 0.060-0.573 0.127-0.92l0.98-5.073h1.392l-1.713 7.333h-1.627l-1.168-4.858c-0.034-0.14-0.073-0.323-0.115-0.548s-0.069-0.389-0.079-0.491h-0.020c-0.013 0.12-0.040 0.297-0.079 0.532-0.039 0.236-0.071 0.409-0.094 0.522l-1.097 4.843h-1.653l-1.729-7.333h1.418l1.065 5.129c0.024 0.106 0.047 0.246 0.069 0.419z"></path>
</svg>
