<!-- Generated by IcoMoon.io -->
<svg version="1.1" xmlns="http://www.w3.org/2000/svg" width="32" height="32" viewBox="0 0 32 32">
<title>mpt</title>
<path fill="#fff" d="M27.333 27c0 0.551-0.449 1-1 1h-15.667v1c0 0.184 0.149 0.333 0.333 0.333v0h17.333c0.184 0 0.333-0.149 0.333-0.333v0-24h0.333v-0.333l-2-1.333v2.333h0.333v21.333z"></path>
<path fill="#fff" d="M9 27.333h17.333c0.184 0 0.333-0.149 0.333-0.333v0-21.333h-18v21.333c0 0.184 0.149 0.333 0.333 0.333v0z"></path>
<path fill="#605e5c" opacity="0.6399999856948853" d="M28.667 5v24c0 0.184-0.149 0.333-0.333 0.333v0h-17.333c-0.184 0-0.333-0.149-0.333-0.333v0-1h15.667c0.551 0 1-0.449 1-1v-21.333h-0.667v21.333c0 0.184-0.149 0.333-0.333 0.333v0h-17.333c-0.184 0-0.333-0.149-0.333-0.333v0-21.333h-0.667v21.333c0 0.551 0.449 1 1 1h1v1c0 0.551 0.449 1 1 1h17.333c0.551 0 1-0.449 1-1v-24h-0.667z"></path>
<path fill="#31752f" d="M27.057 2h-18.391c-0.368 0-0.667 0.298-0.667 0.667v0 3.333h19.333v-1.195c0-0 0-0 0-0.001 0-0.184 0.149-0.333 0.333-0.333 0.092 0 0.176 0.037 0.236 0.098v0l1.431 1.431v-1.724c-0-0.184-0.075-0.351-0.195-0.471l-1.609-1.609c-0.121-0.121-0.287-0.195-0.471-0.195v0z"></path>
<path fill="none" stroke="#c8c6c4" stroke-linejoin="miter" stroke-linecap="butt" stroke-miterlimit="10" stroke-width="0.6667" d="M23 23.667h-14v-12.667h14c0.368 0 0.667 0.298 0.667 0.667v0 11.333c0 0.368-0.298 0.667-0.667 0.667v0z"></path>
<path fill="#8bbf8a" d="M21.667 14h-10.667c-0.184 0-0.333-0.149-0.333-0.333v0-0.667c0-0.184 0.149-0.333 0.333-0.333v0h10.667c0.184 0 0.333 0.149 0.333 0.333v0 0.667c0 0.184-0.149 0.333-0.333 0.333v0zM21.667 16.667h-10.667c-0.184 0-0.333-0.149-0.333-0.333v0-0.667c0-0.184 0.149-0.333 0.333-0.333v0h10.667c0.184 0 0.333 0.149 0.333 0.333v0 0.667c0 0.184-0.149 0.333-0.333 0.333v0zM19.667 18h3.667v1.333h-3.667c-0.184 0-0.333-0.149-0.333-0.333v0-0.667c0-0.184 0.149-0.333 0.333-0.333v0zM21 22h-4.333v-1.333h4.333c0.184 0 0.333 0.149 0.333 0.333v0 0.667c0 0.184-0.149 0.333-0.333 0.333v0z"></path>
<path fill="#31752f" d="M4 24.667h12c0.736 0 1.333-0.597 1.333-1.333v0-12c0-0.736-0.597-1.333-1.333-1.333v0h-12c-0.736 0-1.333 0.597-1.333 1.333v0 12c0 0.736 0.597 1.333 1.333 1.333v0z"></path>
<path fill="#f9f7f7" d="M10.445 13.333c0.933 0 1.649 0.213 2.144 0.641 0.497 0.428 0.744 1.047 0.744 1.858 0 0.52-0.123 0.984-0.367 1.389s-0.595 0.72-1.047 0.945c-0.453 0.225-0.976 0.337-1.573 0.337h-1.487v2.829h-1.527v-8h3.112zM8.859 17.283h1.313c0.513 0 0.899-0.118 1.161-0.355s0.393-0.581 0.393-1.035c0-0.881-0.501-1.322-1.504-1.322h-1.363v2.711z"></path>
</svg>
