<!-- Generated by IcoMoon.io -->
<svg version="1.1" xmlns="http://www.w3.org/2000/svg" width="32" height="32" viewBox="0 0 32 32">
<title>onetoc</title>
<path fill="#605e5c" opacity="0.6399999856948853" d="M26.333 30h-16.667c-0.551 0-1-0.449-1-1v-26c0-0.551 0.449-1 1-1h16.667c0.551 0 1 0.449 1 1v26c0 0.551-0.449 1-1 1zM9.667 2.667c-0.184 0-0.333 0.149-0.333 0.333v0 26c0 0.184 0.149 0.333 0.333 0.333v0h16.667c0.184 0 0.333-0.149 0.333-0.333v0-26c0-0.184-0.149-0.333-0.333-0.333v0h-16.667z"></path>
<path fill="#9332bf" d="M28.667 18.667h-1.333v-6h1.333c0.368 0 0.667 0.298 0.667 0.667v0 4.667c0 0.368-0.298 0.667-0.667 0.667v0z"></path>
<path fill="#ae4bd5" d="M28.667 11.333h-1.333v-6h1.333c0.368 0 0.667 0.298 0.667 0.667v0 4.667c0 0.368-0.298 0.667-0.667 0.667v0z"></path>
<path fill="#7719aa" d="M28.667 26h-1.333v-6h1.333c0.368 0 0.667 0.298 0.667 0.667v0 4.667c0 0.368-0.298 0.667-0.667 0.667v0z"></path>
<path fill="#fff" d="M9.667 29.333h16.667c0.184 0 0.333-0.149 0.333-0.333v0-26c0-0.184-0.149-0.333-0.333-0.333v0h-16.667c-0.184 0-0.333 0.149-0.333 0.333v0 26c0 0.184 0.149 0.333 0.333 0.333v0z"></path>
<path fill="#7719aa" d="M4 24.667h12c0.736 0 1.333-0.597 1.333-1.333v0-12c0-0.736-0.597-1.333-1.333-1.333v0h-12c-0.736 0-1.333 0.597-1.333 1.333v0 12c0 0.736 0.597 1.333 1.333 1.333v0z"></path>
<path fill="#f9f7f7" d="M6.135 13.333h2.17l3.84 5.802-0.020-5.802h1.719v8h-2.080l-3.892-5.704c0.031 0.246 0.047 5.704 0.047 5.704h-1.783v-8z"></path>
</svg>
