<!-- Generated by IcoMoon.io -->
<svg version="1.1" xmlns="http://www.w3.org/2000/svg" width="32" height="32" viewBox="0 0 32 32">
<title>ppsx</title>
<path fill="#fff" d="M6.333 29.333h19.333c0.183 0 0.333-0.15 0.333-0.333v-19.667h-5.667c-0.551 0-1-0.449-1-1v-5.667h-13c-0.183 0-0.333 0.15-0.333 0.333v26c0 0.183 0.15 0.333 0.333 0.333z"></path>
<path fill="#fff" d="M25.529 8.667l-5.529-5.529v5.195c0 0.183 0.15 0.333 0.333 0.333h5.195z"></path>
<path fill="#605e5c" opacity="0.6399999856948853" d="M26.373 8.569l-6.276-6.277c-0.181-0.18-0.431-0.292-0.706-0.293h-13.057c-0.551 0-1 0.449-1 1v26c0 0.551 0.449 1 1 1h19.333c0.551 0 1-0.449 1-1v-19.724c0-0.267-0.104-0.518-0.293-0.707zM20 3.138l5.529 5.529h-5.195c-0.184-0-0.333-0.149-0.333-0.333v-5.195zM25.667 29.333h-19.333c-0.184-0-0.333-0.149-0.333-0.333v-26c0-0.183 0.15-0.333 0.333-0.333h13v5.667c0 0.551 0.449 1 1 1h5.667v19.667c0 0.183-0.15 0.333-0.333 0.333z"></path>
<path fill="none" stroke="#c8c6c4" stroke-linejoin="round" stroke-linecap="butt" stroke-miterlimit="10" stroke-width="0.6667" d="M19.667 19.667h-7.333c-0.736 0-1.333-0.597-1.333-1.333v0-6.667h10v6.667c0 0.736-0.597 1.333-1.333 1.333v0z"></path>
<path fill="none" stroke="#c8c6c4" stroke-linejoin="round" stroke-linecap="round" stroke-miterlimit="10" stroke-width="0.6667" d="M22.333 11.667h-12.667M13 17.667v-4"></path>
<path fill="none" stroke="#f5ba9d" stroke-linejoin="round" stroke-linecap="round" stroke-miterlimit="10" stroke-width="0.6667" d="M15 17.667v-3.333"></path>
<path fill="none" stroke="#c8c6c4" stroke-linejoin="round" stroke-linecap="round" stroke-miterlimit="10" stroke-width="0.6667" d="M17.001 17.667v-2.667"></path>
<path fill="none" stroke="#f5ba9d" stroke-linejoin="round" stroke-linecap="round" stroke-miterlimit="10" stroke-width="0.6667" d="M19.001 17.667v-2"></path>
<path fill="#c8c6c4" d="M15.333 20h1.333v0.667h-1.333zM17.667 21.333h-3.333c-0.184 0-0.333-0.149-0.333-0.333s0.149-0.333 0.333-0.333v0h3.333c0.184 0 0.333 0.149 0.333 0.333s-0.149 0.333-0.333 0.333v0z"></path>
<path fill="none" stroke="#d04727" stroke-linejoin="round" stroke-linecap="round" stroke-miterlimit="10" stroke-width="0.6667" d="M11 25v-2.667M9.586 23.333l1.414-1.414 1.414 1.414"></path>
</svg>
