<!-- Generated by IcoMoon.io -->
<svg version="1.1" xmlns="http://www.w3.org/2000/svg" width="32" height="32" viewBox="0 0 32 32">
<title>pub</title>
<path fill="#fff" d="M9 29.333h19.333c0.183 0 0.333-0.15 0.333-0.333v-19.667h-5.667c-0.551 0-1-0.449-1-1v-5.667h-13c-0.183 0-0.333 0.15-0.333 0.333v26c0 0.183 0.15 0.333 0.333 0.333z"></path>
<path fill="#fff" d="M28.195 8.667l-5.529-5.529v5.195c0 0.183 0.15 0.333 0.333 0.333h5.195z"></path>
<path fill="#605e5c" opacity="0.6399999856948853" d="M29.040 8.569l-6.276-6.277c-0.181-0.18-0.431-0.292-0.706-0.293h-13.057c-0.551 0-1 0.449-1 1v26c0 0.551 0.449 1 1 1h19.333c0.551 0 1-0.449 1-1v-19.724c0-0.267-0.104-0.518-0.293-0.707zM22.667 3.138l5.529 5.529h-5.195c-0.184-0-0.333-0.149-0.333-0.333v-5.195zM28.333 29.333h-19.333c-0.184-0-0.333-0.149-0.333-0.333v-26c0-0.183 0.15-0.333 0.333-0.333h13v5.667c0 0.551 0.449 1 1 1h5.667v19.667c0 0.183-0.15 0.333-0.333 0.333z"></path>
<path fill="#038387" d="M4 24.667h12c0.736 0 1.333-0.597 1.333-1.333v0-12c0-0.736-0.597-1.333-1.333-1.333v0h-12c-0.736 0-1.333 0.597-1.333 1.333v0 12c0 0.736 0.597 1.333 1.333 1.333v0z"></path>
<path fill="#f9f7f7" d="M10.445 13.333c0.933 0 1.649 0.213 2.144 0.641 0.497 0.428 0.744 1.047 0.744 1.858 0 0.52-0.123 0.984-0.367 1.389s-0.595 0.72-1.047 0.945c-0.453 0.225-0.976 0.337-1.573 0.337h-1.487v2.829h-1.527v-8h3.112zM8.859 17.283h1.313c0.513 0 0.899-0.118 1.161-0.355s0.393-0.581 0.393-1.035c0-0.881-0.501-1.322-1.504-1.322h-1.363v2.711z"></path>
<path fill="#038387" d="M26.333 20h-7.667v0.667h7.667c0.184 0 0.333-0.149 0.333-0.333s-0.149-0.333-0.333-0.333v0z"></path>
<path fill="#1a9ba1" d="M26.333 18h-7.667v0.667h7.667c0.184 0 0.333-0.149 0.333-0.333s-0.149-0.333-0.333-0.333v0z"></path>
<path fill="#37c6d0" d="M18.667 16.667h7.333c0.368 0 0.667-0.298 0.667-0.667v0-1.333c0-0.368-0.298-0.667-0.667-0.667v0h-7.333v2.667z"></path>
</svg>
