<!-- Generated by IcoMoon.io -->
<svg version="1.1" xmlns="http://www.w3.org/2000/svg" width="32" height="32" viewBox="0 0 32 32">
<title>xsn</title>
<path fill="#fff" d="M9 29.333h19.333c0.183 0 0.333-0.15 0.333-0.333v-19.667h-5.667c-0.551 0-1-0.449-1-1v-5.667h-13c-0.183 0-0.333 0.15-0.333 0.333v26c0 0.183 0.15 0.333 0.333 0.333z"></path>
<path fill="#fff" d="M28.195 8.667l-5.529-5.529v5.195c0 0.183 0.15 0.333 0.333 0.333h5.195z"></path>
<path fill="#605e5c" opacity="0.6399999856948853" d="M29.040 8.569l-6.276-6.277c-0.181-0.18-0.431-0.292-0.706-0.293h-13.057c-0.551 0-1 0.449-1 1v26c0 0.551 0.449 1 1 1h19.333c0.551 0 1-0.449 1-1v-19.724c0-0.267-0.104-0.518-0.293-0.707zM22.667 3.138l5.529 5.529h-5.195c-0.184-0-0.333-0.149-0.333-0.333v-5.195zM28.333 29.333h-19.333c-0.184-0-0.333-0.149-0.333-0.333v-26c0-0.183 0.15-0.333 0.333-0.333h13v5.667c0 0.551 0.449 1 1 1h5.667v19.667c0 0.183-0.15 0.333-0.333 0.333z"></path>
<path fill="#c3a9d4" d="M14.667 14h10.333c0.184 0 0.333-0.149 0.333-0.333s-0.149-0.333-0.333-0.333v0h-10.333v0.667z"></path>
<path fill="none" stroke="#c8c6c4" stroke-linejoin="miter" stroke-linecap="butt" stroke-miterlimit="10" stroke-width="0.6667" d="M25.667 15h-14v-2.667h14c0.368 0 0.667 0.298 0.667 0.667v0 1.333c0 0.368-0.298 0.667-0.667 0.667v0z"></path>
<path fill="#c3a9d4" d="M14.667 18.667h10.333c0.184 0 0.333-0.149 0.333-0.333s-0.149-0.333-0.333-0.333v0h-10.333v0.667z"></path>
<path fill="none" stroke="#c8c6c4" stroke-linejoin="miter" stroke-linecap="butt" stroke-miterlimit="10" stroke-width="0.6667" d="M25.667 19.667h-14v-2.667h14c0.368 0 0.667 0.298 0.667 0.667v0 1.333c0 0.368-0.298 0.667-0.667 0.667v0z"></path>
<path fill="#c3a9d4" d="M14.667 23.333h10.333c0.184 0 0.333-0.149 0.333-0.333s-0.149-0.333-0.333-0.333v0h-10.333v0.667z"></path>
<path fill="none" stroke="#c8c6c4" stroke-linejoin="miter" stroke-linecap="butt" stroke-miterlimit="10" stroke-width="0.6667" d="M25.667 24.333h-14v-2.667h14c0.368 0 0.667 0.298 0.667 0.667v0 1.333c0 0.368-0.298 0.667-0.667 0.667v0z"></path>
<path fill="#6a3889" d="M4 24.667h12c0.736 0 1.333-0.597 1.333-1.333v0-12c0-0.736-0.597-1.333-1.333-1.333v0h-12c-0.736 0-1.333 0.597-1.333 1.333v0 12c0 0.736 0.597 1.333 1.333 1.333v0z"></path>
<path fill="#fff" d="M11 21.333h-2v-8h2v8z"></path>
</svg>
