<svg aria-hidden="true" style="position: absolute; width: 0; height: 0; overflow: hidden;" version="1.1" xmlns="http://www.w3.org/2000/svg" xmlns:xlink="http://www.w3.org/1999/xlink">
<defs>
<symbol id="icon-arrow-left" viewBox="0 0 32 32">
<path d="M22.547 31.953l-15.969-15.953 15.969-15.953 1.406 1.406-14.531 14.547 14.531 14.547-1.406 1.406z"></path>
</symbol>
<symbol id="icon-arrow-right" viewBox="0 0 32 32">
<path d="M8.047 30.547l14.531-14.547-14.531-14.547 1.406-1.406 15.969 15.953-15.969 15.953-1.406-1.406z"></path>
</symbol>
<symbol id="icon-arrow-up" viewBox="0 0 32 32">
<path d="M30.547 23.953l-14.547-14.531-14.547 14.531-1.406-1.406 15.953-15.969 15.953 15.969-1.406 1.406z"></path>
</symbol>
<symbol id="icon-arrow-down" viewBox="0 0 32 32">
<path d="M30.297 7.297l1.406 1.406-15.703 15.703-15.703-15.703 1.406-1.406 14.297 14.297 14.297-14.297z"></path>
</symbol>
<symbol id="icon-close" viewBox="0 0 32 32">
<path d="M17.422 16l10.781 10.797-1.406 1.406-10.797-10.781-10.797 10.781-1.406-1.406 10.781-10.797-10.781-10.797 1.406-1.406 10.797 10.781 10.797-10.781 1.406 1.406-10.781 10.797z"></path>
</symbol>
<symbol id="icon-plus" viewBox="0 0 32 32">
<path d="M30 14v2h-14v14h-2v-14h-14v-2h14v-14h2v14h14z"></path>
</symbol>
<symbol id="icon-minus" viewBox="0 0 32 32">
<path d="M0 14h30v2h-30v-2z"></path>
</symbol>
<symbol id="icon-plus" viewBox="0 0 32 32">
<path d="M30 14v2h-14v14h-2v-14h-14v-2h14v-14h2v14h14z"></path>
</symbol>
<symbol id="icon-minus" viewBox="0 0 32 32">
<path d="M0 14h30v2h-30v-2z"></path>
</symbol>
<symbol id="icon-help" viewBox="0 0 32 32">
<path d="M15 0.063q2.063 0 3.969 0.531t3.563 1.5 3.031 2.344 2.328 3.016 1.516 3.578 0.531 3.969q0 2.063-0.531 3.969t-1.5 3.563-2.344 3.031-3.016 2.328-3.578 1.516-3.969 0.531q-2.063 0-3.969-0.531t-3.563-1.5-3.031-2.344-2.328-3.016-1.516-3.578-0.531-3.969q0-2.063 0.531-3.969t1.5-3.563 2.344-3.031 3.016-2.328 3.578-1.516 3.969-0.531zM15 28.063q1.797 0 3.469-0.469t3.125-1.313 2.641-2.047 2.031-2.641 1.328-3.125 0.469-3.469q0-1.797-0.469-3.469t-1.313-3.125-2.047-2.641-2.641-2.031-3.125-1.328-3.469-0.469q-1.797 0-3.469 0.469t-3.125 1.313-2.641 2.047-2.031 2.641-1.328 3.125-0.469 3.469q0 1.797 0.469 3.469t1.313 3.125 2.047 2.641 2.641 2.031 3.125 1.328 3.469 0.469zM14 22h2v2h-2v-2zM15 7q1.031 0 1.938 0.391t1.578 1.078 1.078 1.594 0.406 1.938q0 0.938-0.297 1.625t-0.734 1.266-0.969 1.016-0.953 0.922-0.75 0.984-0.297 1.188v1h-2v-1q0-0.938 0.297-1.625t0.734-1.266 0.969-1.016 0.953-0.922 0.75-0.984 0.297-1.188q0-0.625-0.234-1.172t-0.641-0.953-0.953-0.641-1.172-0.234-1.172 0.234-0.953 0.641-0.641 0.953-0.234 1.172h-2q0-1.031 0.391-1.938t1.063-1.578 1.594-1.078 1.953-0.406z"></path>
</symbol>
<symbol id="icon-smile" viewBox="0 0 32 32">
<path d="M16 0q2.203 0 4.25 0.563t3.813 1.625 3.234 2.5 2.516 3.234 1.609 3.828 0.578 4.25q0 2.203-0.563 4.25t-1.625 3.813-2.5 3.234-3.234 2.516-3.828 1.609-4.25 0.578q-2.203 0-4.25-0.563t-3.813-1.625-3.234-2.5-2.516-3.234-1.609-3.828-0.578-4.25q0-2.203 0.563-4.25t1.625-3.813 2.5-3.234 3.234-2.516 3.828-1.609 4.25-0.578zM16 30q1.938 0 3.719-0.5t3.344-1.406 2.828-2.188 2.188-2.828 1.422-3.344 0.5-3.734-0.5-3.719-1.406-3.344-2.188-2.828-2.828-2.188-3.344-1.422-3.734-0.5-3.719 0.5-3.344 1.406-2.828 2.188-2.188 2.828-1.422 3.344-0.5 3.734 0.5 3.719 1.406 3.344 2.188 2.828 2.828 2.188 3.344 1.422 3.734 0.5zM16 27q-1.656 0-3.109-0.625t-2.547-1.703-1.719-2.547-0.625-3.125h16q0 1.656-0.625 3.109t-1.703 2.547-2.547 1.719-3.125 0.625zM16 25q0.953 0 1.828-0.281t1.625-0.813 1.313-1.266 0.891-1.641h-11.313q0.328 0.906 0.891 1.641t1.297 1.25 1.625 0.813 1.844 0.297zM21.5 16q-0.625 0-1.063-0.438t-0.438-1.063v-4q0-0.625 0.438-1.063t1.063-0.438q0.297 0 0.563 0.109t0.469 0.313 0.344 0.469 0.125 0.563v4.078q0 0.313-0.125 0.578t-0.328 0.453-0.469 0.313-0.578 0.125zM10.5 16q-0.625 0-1.063-0.438t-0.438-1.063v-4q0-0.625 0.438-1.063t1.063-0.438q0.297 0 0.563 0.109t0.469 0.313 0.344 0.469 0.125 0.563v4.078q0 0.313-0.125 0.578t-0.328 0.453-0.469 0.313-0.578 0.125z"></path>
</symbol>
<symbol id="icon-layers" viewBox="0 0 32 32">
<path d="M32 17l-6.125 3.063 6.125 3.063-16 8-16-8 6.125-3.063-6.125-3.063 6-3-6-3 16-8 16 8-6 3 6 3zM4.469 11q2.906 1.453 5.766 2.875t5.766 2.891q2.891-1.469 5.75-2.891t5.781-2.875l-11.531-5.766-11.531 5.766zM23.641 21.172l-7.641 3.828-7.641-3.828-3.891 1.953 11.531 5.766 11.531-5.766-3.891-1.953zM16 22.766q2.906-1.453 5.766-2.891t5.766-2.875l-3.766-1.891q-1.953 0.984-3.875 1.938t-3.891 1.953q-1.953-0.984-3.875-1.938t-3.891-1.953l-3.766 1.891q2.906 1.438 5.766 2.875t5.766 2.891z"></path>
</symbol>
<symbol id="icon-pyramic" viewBox="0 0 32 32">
<path d="M30 24l-15 5-15-5 15-21 15 21zM16 26.563l10.797-3.609-10.797-15.109v18.719zM3.203 22.953l10.797 3.609v-18.719l-10.797 15.109z"></path>
</symbol>
<symbol id="icon-cube" viewBox="0 0 32 32">
<path d="M28 8.891v16.219l-13 6.516-13-6.516v-16.219l13-6.516 13 6.516zM15 4.625l-9.766 4.875 9.766 4.875 9.766-4.875-9.766-4.875zM4 23.875l10 5.016v-12.766l-10-5.016v12.766zM26 23.875v-12.766l-10 5.016v12.766l10-5.016z"></path>
</symbol>
<symbol id="icon-dblpyramid" viewBox="0 0 32 32">
<path d="M30 17l-13 15-13-15 13-17 13 17zM18 18.953l8.75-2.922-8.75-11.422v14.344zM16 4.609l-8.75 11.422 8.75 2.922v-14.344zM7.781 18.313l8.219 9.484v-6.75l-8.219-2.734zM18 27.797l8.219-9.484-8.219 2.734v6.75z"></path>
</symbol>
<symbol id="icon-ninjacat" viewBox="0 0 32 32">
<path d="M10 13q0.531 0 0.906 0.297t0.609 0.766 0.359 0.984 0.125 0.953q0 0.422-0.109 0.938t-0.359 0.984-0.625 0.766-0.906 0.313q-0.531 0-0.906-0.297t-0.609-0.766-0.359-0.984-0.125-0.953q0-0.422 0.109-0.938t0.359-0.984 0.625-0.766 0.906-0.313zM22 13q0.531 0 0.906 0.297t0.609 0.766 0.359 0.984 0.125 0.953q0 0.422-0.109 0.938t-0.359 0.984-0.625 0.766-0.906 0.313q-0.531 0-0.906-0.297t-0.609-0.766-0.359-0.984-0.125-0.953q0-0.422 0.109-0.938t0.359-0.984 0.625-0.766 0.906-0.313zM32 19.594v0.406q0 1.641-0.422 3.172t-1.219 2.859-1.891 2.438-2.422 1.891-2.875 1.203-3.172 0.438q-1.125 0-2.141-0.391t-1.859-1.156q-0.828 0.75-1.844 1.141t-2.156 0.406q-1.641 0-3.172-0.422t-2.859-1.219-2.438-1.891-1.891-2.422-1.203-2.859-0.438-3.188v-0.406l2-2v-5.594q-0.406 0-0.703-0.297t-0.297-0.703 0.297-0.703 0.703-0.297v-6.875q0-0.656 0.25-1.219t0.672-1 0.984-0.656 1.234-0.25q0.609 0 1.172 0.234t1.016 0.688l5.078 5.078h7.188l5.078-5.078q0.438-0.438 1-0.672t1.188-0.25q0.656 0 1.219 0.234t1 0.672 0.672 1 0.25 1.234v5.453q0.203-0.219 0.438-0.406t0.563-0.188q0.406 0 0.688 0.297t0.297 0.703q0 0.422-0.297 0.719l-1.469 1.484q0.078 0.156 0.234 0.453t0.359 0.688 0.406 0.797 0.375 0.797 0.281 0.656 0.109 0.422q0 0.422-0.281 0.703t-0.719 0.281q-0.406 0-0.625-0.219t-0.359-0.547v2.359l2 2zM4 10h24v-6.859q0-0.484-0.328-0.813t-0.813-0.328q-0.219 0-0.422 0.094t-0.359 0.25l-5.672 5.656h-8.813l-5.688-5.672q-0.328-0.328-0.766-0.328-0.469 0-0.797 0.313t-0.344 0.813v6.875zM20 30q0.828 0 1.547-0.313t1.281-0.859 0.859-1.266 0.313-1.563q0-0.828-0.313-1.547t-0.859-1.281-1.266-0.859-1.563-0.313h-2l-2 2-2-2h-2q-0.828 0-1.547 0.313t-1.281 0.859-0.859 1.266-0.313 1.563q0 0.828 0.313 1.547t0.859 1.281 1.266 0.859 1.563 0.313q0.766 0 1.328-0.203t1.031-0.578 0.844-0.844 0.797-1.063q0.406 0.563 0.797 1.047t0.844 0.859 1.016 0.563 1.344 0.219zM25.531 28.328q1-0.672 1.797-1.531t1.375-1.891 0.906-2.156 0.375-2.344l-1.984-1.984v-6.422h-24v6.422l-1.984 1.984q0.047 1.203 0.375 2.328t0.891 2.156 1.375 1.891 1.813 1.547q-0.469-1.094-0.469-2.328t0.469-2.328 1.297-1.906 1.906-1.281 2.328-0.484h8q1.234 0 2.328 0.469t1.906 1.297 1.281 1.906 0.484 2.328q0 1.234-0.469 2.328z"></path>
</symbol>
</defs>
</svg>
