<?xml version="1.0" encoding="utf-8"?>
<!-- Generator: Adobe Illustrator 27.4.0, SVG Export Plug-In . SVG Version: 6.00 Build 0)  -->
<svg version="1.1" id="Layer_1" xmlns="http://www.w3.org/2000/svg" xmlns:xlink="http://www.w3.org/1999/xlink" x="0px" y="0px"
	 viewBox="0 0 180 35" style="enable-background:new 0 0 180 35;" xml:space="preserve">
<style type="text/css">
	.solvion{fill:#00AEC7;}
</style>
<g>
	<g transform="translate(27.107 4.386)">
		<path class="solvion" d="M27.3,24.7c-2.1,0-4.3-0.4-6.3-1.2l0.7-3c1.8,0.6,3.7,0.9,5.7,0.9c2.7,0,3.2-0.6,3.2-2.5
			c0-2.2-0.1-2.4-3.7-3.2c-4.8-1.1-5.5-2-5.5-6.3c0-3.7,1.7-5.5,6.7-5.5c2,0,3.9,0.2,5.8,0.7l-0.4,3.2c-1.8-0.4-3.6-0.6-5.4-0.6
			c-2.6,0-3,0.5-3,2.3c0,2.3,0.1,2.4,3.5,3.2c5.4,1.3,5.7,2.2,5.7,6.2C34.3,22.8,33.2,24.7,27.3,24.7"/>
		<path class="solvion" d="M45.2,24.7c-2.6,0-4.6-0.6-5.9-1.8c-0.6-0.6-1-1.2-1.3-2c-0.3-0.8-0.4-1.6-0.4-2.4v-8.4
			c0-0.8,0.1-1.6,0.4-2.4c0.3-0.8,0.7-1.4,1.3-2c1.3-1.2,3.3-1.8,5.9-1.8c2.6,0,4.6,0.6,5.9,1.8c0.6,0.6,1,1.2,1.3,2
			c0.3,0.8,0.4,1.6,0.4,2.4v8.4c0,0.8-0.1,1.6-0.4,2.4c-0.3,0.8-0.7,1.4-1.3,2C49.8,24.1,47.9,24.7,45.2,24.7z M45.2,7.3
			c-1.1-0.1-2.1,0.2-3,0.8c-0.6,0.6-0.9,1.4-0.8,2.3v8c-0.1,0.8,0.2,1.7,0.8,2.3c0.9,0.6,1.9,0.9,3,0.8c1.1,0.1,2.1-0.2,3-0.8
			c0.6-0.6,0.9-1.4,0.8-2.3v-8c0.1-0.8-0.2-1.7-0.8-2.3C47.3,7.5,46.3,7.2,45.2,7.3z"/>
	</g>
	<path class="solvion" d="M84.8,8.8v20.3h11.9v-3.4h-8.1V8.8H84.8z"/>
	<path class="solvion" d="M108.5,8.8l-4.9,16.9L98.7,8.8h-4l6.1,20.3h5.7l6.1-20.3H108.5z"/>
	<path class="solvion" d="M115.5,29.1h4V8.8h-4V29.1z"/>
	<path class="solvion" d="M130.8,29.1c-2.6,0-4.5-0.6-5.8-1.8c-0.6-0.6-1-1.2-1.3-2c-0.3-0.8-0.4-1.6-0.4-2.4v-8.4
		c0-0.8,0.1-1.6,0.4-2.4c0.3-0.7,0.7-1.4,1.3-2c1.3-1.2,3.2-1.8,5.8-1.8s4.5,0.6,5.8,1.8c0.6,0.6,1,1.2,1.3,2
		c0.3,0.8,0.4,1.6,0.4,2.4v8.4c0,0.8-0.1,1.6-0.4,2.4c-0.3,0.7-0.7,1.4-1.3,2C135.3,28.5,133.4,29.1,130.8,29.1z M130.8,11.7
		c-1-0.1-2.1,0.2-2.9,0.8c-0.6,0.6-0.9,1.4-0.8,2.2v7.9c-0.1,0.8,0.2,1.7,0.8,2.2c0.8,0.6,1.9,0.9,2.9,0.8c1,0.1,2.1-0.2,2.9-0.8
		c0.6-0.6,0.9-1.4,0.8-2.2v-7.9c0.1-0.8-0.2-1.7-0.8-2.2C132.9,11.9,131.8,11.6,130.8,11.7z"/>
	<path class="solvion" d="M155.2,8.8v15.4l-7.8-15.4h-5.2v20.3h3.8V13.7l7.8,15.4h5.2V8.8H155.2z"/>
	<path class="solvion" d="M25.9,24.2v4.9h9.9l4.9-4.9H25.9z"/>
	<path class="solvion" d="M35.8,14.3v14.8l4.9-4.9v-9.9H35.8z"/>
	<path class="solvion" d="M25.9,9.3L21,14.3h14.8V9.3H25.9z"/>
	<path class="solvion" d="M21,14.3v9.9h4.9V9.3L21,14.3z"/>
	<path class="solvion" d="M35.8,8.8h4.9V3.9h-4.9V8.8z"/>
</g>
</svg>
