<?xml version="1.0" encoding="utf-8"?>
<!-- Generator: Adobe Illustrator 27.4.0, SVG Export Plug-In . SVG Version: 6.00 Build 0)  -->
<svg version="1.1" id="a" xmlns="http://www.w3.org/2000/svg" xmlns:xlink="http://www.w3.org/1999/xlink" x="0px" y="0px"
	 viewBox="0 0 935 245" style="enable-background:new 0 0 935 245;" xml:space="preserve">
<style type="text/css">
	.sypraxis0{fill:#482581;}
	.sypraxis1{fill:#9ACE1D;}
</style>
<path class="sypraxis0" d="M44.5,118.9l5.8-13c6.3,4.6,15.6,7.8,24.5,7.8c10.2,0,14.3-3.4,14.3-8c0-13.9-43.2-4.4-43.2-32
	c0-12.6,10.2-23.2,31.3-23.2c9.3,0,18.9,2.2,25.8,6.6l-5.3,13.1c-6.9-3.9-14-5.8-20.6-5.8c-10.2,0-14.1,3.8-14.1,8.5
	c0,13.7,43.2,4.2,43.2,31.6c0,12.4-10.3,23.1-31.6,23.1C63,127.5,51.1,124,44.5,118.9L44.5,118.9z"/>
<path class="sypraxis0" d="M175.7,99.9v26.3h-17.2V99.6l-28.8-47.8h18.3l19.9,33l19.9-33h16.9L175.7,99.9L175.7,99.9z"/>
<path class="sypraxis0" d="M302.1,126.2L302,81.6l-21.9,36.8h-7.8l-21.8-35.8v43.7h-16.1V51.8h14.2L276.5,98L304,51.8h14.1l0.2,74.4
	L302.1,126.2L302.1,126.2z"/>
<path class="sypraxis0" d="M423.9,78.8c0,16.6-12.4,26.9-32.3,26.9h-15v20.5h-17.2V51.8h32.2C411.4,51.8,423.9,62.1,423.9,78.8z
	 M406.4,78.8c0-8.2-5.3-13-15.8-13h-14v25.8h14C401.1,91.7,406.4,86.9,406.4,78.8z"/>
<path class="sypraxis0" d="M506.9,126.2l-14.3-20.7h-15.8v20.7h-17.2V51.8h32.2c19.9,0,32.3,10.3,32.3,27c0,11.2-5.6,19.3-15.3,23.5
	l16.7,23.9L506.9,126.2L506.9,126.2z M490.8,65.9h-14v25.9h14c10.5,0,15.8-4.9,15.8-13S501.3,65.9,490.8,65.9z"/>
<path class="sypraxis0" d="M610,110.3h-34.5l-6.6,15.9h-17.6l33.2-74.4h17l33.3,74.4h-18.1L610,110.3L610,110.3z M604.6,97.2l-11.8-28.5
	L581,97.2H604.6L604.6,97.2z"/>
<path class="sypraxis0" d="M776.3,51.8h17.2v74.4h-17.2V51.8z"/>
<path class="sypraxis0" d="M828.7,118.9l5.8-13c6.3,4.6,15.6,7.8,24.5,7.8c10.2,0,14.3-3.4,14.3-8c0-13.9-43.2-4.4-43.2-32
	c0-12.6,10.2-23.2,31.3-23.2c9.3,0,18.9,2.2,25.8,6.6L882,70.2c-6.9-3.9-14-5.8-20.6-5.8c-10.2,0-14.1,3.8-14.1,8.5
	c0,13.7,43.2,4.2,43.2,31.6c0,12.4-10.3,23.1-31.6,23.1C847.2,127.5,835.3,124,828.7,118.9L828.7,118.9z"/>
<path class="sypraxis1" d="M181.9,187.1c0-9.6,7.4-16.5,17.3-16.5c5.5,0,10.1,2,13.1,5.6l-4.7,4.4c-2.1-2.5-4.8-3.7-8-3.7
	c-6,0-10.2,4.2-10.2,10.2s4.2,10.2,10.2,10.2c3.2,0,5.9-1.3,8-3.8l4.7,4.4c-3,3.7-7.6,5.7-13.2,5.7
	C189.3,203.6,181.9,196.8,181.9,187.1L181.9,187.1z"/>
<path class="sypraxis1" d="M243.9,187.1c0-9.5,7.4-16.5,17.5-16.5c10.1,0,17.5,7,17.5,16.5s-7.4,16.5-17.5,16.5S243.9,196.6,243.9,187.1
	L243.9,187.1z M271.3,187.1c0-6.1-4.3-10.2-10-10.2s-10,4.1-10,10.2s4.3,10.2,10,10.2C267,197.3,271.3,193.2,271.3,187.1z"/>
<path class="sypraxis1" d="M342.8,171.2v31.9h-6.1l-15.9-19.4v19.4h-7.3v-31.9h6.1l15.9,19.4v-19.4H342.8L342.8,171.2z"/>
<path class="sypraxis1" d="M377,199.9l2.5-5.6c2.7,2,6.7,3.3,10.5,3.3c4.4,0,6.1-1.5,6.1-3.4c0-6-18.5-1.9-18.5-13.7
	c0-5.4,4.4-9.9,13.5-9.9c4,0,8.1,1,11.1,2.8l-2.3,5.6c-3-1.7-6-2.5-8.9-2.5c-4.4,0-6.1,1.6-6.1,3.6c0,5.9,18.5,1.8,18.5,13.5
	c0,5.3-4.4,9.9-13.5,9.9C384.9,203.6,379.8,202.1,377,199.9L377,199.9z"/>
<path class="sypraxis1" d="M437.5,189v-17.9h7.4v17.6c0,6.1,2.6,8.6,7.1,8.6s7.1-2.5,7.1-8.6v-17.6h7.3V189c0,9.4-5.4,14.6-14.5,14.6
	S437.5,198.4,437.5,189L437.5,189z"/>
<path class="sypraxis1" d="M502.9,171.2h7.4v25.9h16v6h-23.4L502.9,171.2L502.9,171.2z"/>
<path class="sypraxis1" d="M563.3,177.2H553v-6h27.8v6h-10.2v25.9h-7.4L563.3,177.2L563.3,177.2z"/>
<path class="sypraxis1" d="M614,171.2h7.4v31.9H614V171.2z"/>
<path class="sypraxis1" d="M687.4,171.2v31.9h-6.1l-15.9-19.4v19.4h-7.3v-31.9h6.1l15.9,19.4v-19.4H687.4z"/>
<path class="sypraxis1" d="M745.7,186.6h6.8v12.9c-3.5,2.6-8.3,4.1-12.9,4.1c-10,0-17.4-6.9-17.4-16.5s7.4-16.5,17.5-16.5
	c5.6,0,10.3,1.9,13.4,5.5l-4.7,4.4c-2.3-2.5-5-3.6-8.2-3.6c-6.2,0-10.4,4.1-10.4,10.2s4.2,10.2,10.3,10.2c2,0,3.9-0.4,5.8-1.4
	L745.7,186.6L745.7,186.6z"/>
<path class="sypraxis0" d="M749.6,50.4c0,2.2-0.8,4.2-2,5.7c0,0,0,0,0,0.1l-0.6,0.6l-0.1,0.1l-0.6,0.6c0,0,0,0-0.1,0l-12.2,12.1l-9.4,9.4
	c-0.1,0.1-0.2,0.2-0.2,0.3l-0.8,0.8c-0.1,0.1-0.2,0.2-0.3,0.2c-0.7,0.5-1.4,1-2.1,1.3c-1.1,0.5-2.3,0.7-3.6,0.7
	c-2.3,0-4.4-0.8-6-2.3l-6.8-6.8l0,0l-2.9-2.9l-6.5-6.4v-0.2c2.6,1.9,5.8,3,9.3,3c0.3,0,0.5,0,0.8,0c0.9-0.1,1.8-0.2,2.7-0.4
	c2.7-0.6,5.2-1.9,7.1-3.7c0.2-0.2,0.4-0.3,0.5-0.5l5.2-5.2l0.1-0.1l12.1-12.1l0.6-0.6l0.1-0.1l0.6-0.6c1.6-1.3,3.5-2,5.7-2
	c2.5,0,4.8,1,6.4,2.7C748.6,45.7,749.6,47.9,749.6,50.4L749.6,50.4z"/>
<path class="sypraxis1" d="M695.4,73.3c0,2.3-0.8,4.4-2.3,6l-6.8,6.8l0,0l-2.9,2.9l-6.4,6.4h-0.2c1.9-2.6,3-5.8,3-9.3c0-0.3,0-0.5,0-0.8v0
	c0-0.9-0.2-1.8-0.4-2.7c-0.6-2.7-1.9-5.2-3.7-7.1c-0.2-0.2-0.3-0.4-0.5-0.6l-5.2-5.2l-12.2-12.1l-0.1,0l-0.6-0.6l-0.1-0.1l-0.6-0.6
	l0-0.1c-1.3-1.6-2-3.5-2-5.7c0-2.5,1-4.8,2.7-6.4c1.6-1.7,3.9-2.7,6.4-2.7c2.2,0,4.1,0.8,5.7,2l0.7,0.7L692,66.2l1.4,1.4
	c0.5,0.6,0.9,1.3,1.3,2.1C695.1,70.8,695.4,72,695.4,73.3L695.4,73.3z"/>
<path class="sypraxis1" d="M747.7,121.9C747.7,121.9,747.7,121.9,747.7,121.9l-1.5-1.5l-12.1-12.1l-0.1-0.1l-5.2-5.2
	c-0.2-0.2-0.4-0.4-0.6-0.7c-1.8-2-3-4.4-3.6-7c-0.2-0.9-0.3-1.8-0.4-2.7v0c0-0.3,0-0.5,0-0.8c0-3.5,1.1-6.7,3-9.3H727l-12.9,12.9
	l-2.2,2.3c-0.1,0.1-0.1,0.1-0.2,0.2l-0.8,0.8c-0.1,0.1-0.1,0.1-0.2,0.2c-1.3,1.6-2.1,3.6-2.1,5.8c0,1.3,0.3,2.5,0.7,3.6
	c0.3,0.7,0.7,1.4,1.2,2.1l1.5,1.5l9.2,9.2l0.1,0.1l12.1,12.1l1.5,1.5c1.5,1.2,3.5,2,5.7,2c2.5,0,4.8-1,6.4-2.6
	c1.6-1.6,2.7-3.9,2.7-6.4C749.6,125.5,748.9,123.5,747.7,121.9L747.7,121.9z M721.3,95.5L721.3,95.5L721.3,95.5L721.3,95.5z"/>
<path class="sypraxis0" d="M708.4,114v0.2c-2.6-1.9-5.8-3-9.3-3c-0.3,0-0.5,0-0.8,0c-0.9,0.1-1.9,0.2-2.8,0.4c-2.7,0.6-5.2,1.9-7.1,3.7
	c-0.2,0.2-0.4,0.4-0.5,0.5l-5.2,5.2l-13.6,13.6c-1.5,1.2-3.5,2-5.7,2c-2.5,0-4.8-1-6.4-2.6c-1.7-1.6-2.7-3.9-2.7-6.4
	c0-2.2,0.8-4.2,2-5.7l0.6-0.6l23.6-23.6c0.6-0.5,1.3-1,2.1-1.3c1.1-0.5,2.3-0.7,3.6-0.7c2.2,0,4.2,0.8,5.8,2.1
	c0.1,0.1,0.1,0.1,0.2,0.2l0.9,0.9l0.1,0.1l2.2,2.2l3.5,3.5l2.9,2.9l0.7,0.7L708.4,114L708.4,114z"/>
</svg>
