<?xml version="1.0" encoding="utf-8"?>
<!-- Generator: Adobe Illustrator 27.4.0, SVG Export Plug-In . SVG Version: 6.00 Build 0)  -->
<svg version="1.1" id="a" xmlns="http://www.w3.org/2000/svg" xmlns:xlink="http://www.w3.org/1999/xlink" x="0px" y="0px"
	 viewBox="0 0 140 100" style="enable-background:new 0 0 140 100;" xml:space="preserve">
<style type="text/css">
	.voitanos0{fill-rule:evenodd;clip-rule:evenodd;fill:#0E1F43;}
	.voitanos1{fill-rule:evenodd;clip-rule:evenodd;fill:#D96000;}
</style>
<path class="voitanos0" d="M24.8,73.8c0.1-0.5,0.4-0.8,0.7-1.1c0.3-0.2,0.6-0.3,0.9-0.3c0.2,0,0.5,0,0.7,0.1c0.2,0.1,0.4,0.2,0.6,0.3
	c0.2,0.1,0.3,0.2,0.4,0.3c0.1,0.1,0.1,0.2,0.1,0.3l-4.5,11.1c-0.2,0.4-0.4,0.7-0.6,0.9c-0.3,0.2-0.6,0.3-1.1,0.3
	c-0.5,0-0.8-0.1-1.1-0.2c-0.3-0.2-0.5-0.5-0.6-0.9l-4.5-11.1c0-0.1,0-0.2,0.1-0.3c0.1-0.1,0.2-0.2,0.4-0.3c0.2-0.1,0.4-0.2,0.6-0.3
	c0.2-0.1,0.5-0.1,0.7-0.1c0.4,0,0.7,0.1,1,0.3s0.5,0.6,0.6,1l2.9,8.4L24.8,73.8L24.8,73.8L24.8,73.8z M37.2,85.8
	c-1,0-1.9-0.2-2.7-0.5c-0.8-0.3-1.5-0.8-2.1-1.4c-0.6-0.6-1-1.3-1.4-2.1S30.5,80,30.5,79s0.2-1.9,0.5-2.7s0.8-1.5,1.4-2.1
	c0.6-0.6,1.3-1.1,2.1-1.4c0.8-0.3,1.7-0.5,2.7-0.5c1,0,1.9,0.2,2.7,0.5c0.8,0.3,1.5,0.8,2.1,1.4s1,1.3,1.4,2.1
	c0.3,0.8,0.5,1.7,0.5,2.7s-0.2,1.9-0.5,2.7c-0.3,0.8-0.8,1.5-1.4,2.1c-0.6,0.6-1.3,1.1-2.1,1.4C39.1,85.6,38.2,85.8,37.2,85.8
	C37.2,85.8,37.2,85.8,37.2,85.8z M37.2,83.1c0.6,0,1.1-0.1,1.5-0.3c0.5-0.2,0.8-0.5,1.2-0.8c0.3-0.4,0.6-0.8,0.8-1.3
	c0.2-0.5,0.3-1.1,0.3-1.7s-0.1-1.2-0.3-1.7c-0.2-0.5-0.4-0.9-0.8-1.3c-0.3-0.4-0.7-0.7-1.2-0.9c-0.5-0.2-1-0.3-1.5-0.3
	c-0.6,0-1.1,0.1-1.5,0.3c-0.5,0.2-0.8,0.5-1.2,0.8c-0.3,0.4-0.6,0.8-0.8,1.3c-0.2,0.5-0.3,1.1-0.3,1.7s0.1,1.2,0.3,1.7
	c0.2,0.5,0.4,0.9,0.8,1.3s0.7,0.6,1.2,0.8C36.1,83,36.6,83.1,37.2,83.1C37.2,83.1,37.2,83.1,37.2,83.1z M49,85.6
	c-0.8,0-1.3-0.4-1.3-1.3V73.8c0-0.9,0.4-1.3,1.3-1.3h0.4c0.9,0,1.3,0.5,1.3,1.3v10.5c0,0.9-0.4,1.3-1.3,1.3H49z M55.6,75.1
	c-0.9,0-1.4-0.4-1.4-1.3v-0.1c0-0.8,0.5-1.2,1.4-1.2h8.8c0.9,0,1.4,0.4,1.4,1.2v0.1c0,0.9-0.5,1.3-1.4,1.3h-2.9v9.1
	c0,0.9-0.4,1.3-1.3,1.3h-0.4c-0.8,0-1.2-0.4-1.2-1.3v-9.1H55.6L55.6,75.1z M75,80c0,0,0-0.1-0.1-0.2c0-0.1-0.1-0.3-0.2-0.5
	s-0.2-0.5-0.3-0.8c-0.1-0.3-0.2-0.6-0.3-0.9l-0.9-2.4L71.4,80L75,80L75,80z M70.9,82.2l-0.8,2.1c-0.2,0.5-0.4,0.9-0.7,1.1
	c-0.3,0.2-0.6,0.3-0.9,0.3c-0.2,0-0.4,0-0.6-0.1c-0.2-0.1-0.4-0.2-0.5-0.2C67.2,85.2,67,85.1,67,85c-0.1-0.1-0.1-0.2-0.1-0.2
	l4.4-11.5c0.1-0.3,0.3-0.5,0.5-0.6c0.3-0.2,0.7-0.2,1.4-0.2c0.3,0,0.6,0,0.8,0.1c0.2,0,0.4,0.1,0.5,0.2s0.2,0.2,0.3,0.3
	c0.1,0.1,0.1,0.2,0.2,0.4l4.5,11.4c0,0.1,0,0.1-0.1,0.2c-0.1,0.1-0.2,0.2-0.3,0.3s-0.3,0.2-0.5,0.3c-0.2,0.1-0.4,0.1-0.6,0.1
	c-0.3,0-0.6-0.1-0.9-0.3c-0.3-0.2-0.6-0.6-0.8-1.1l-0.8-2.1L70.9,82.2L70.9,82.2z M84.1,85.6c-0.8,0-1.2-0.4-1.2-1.3V73.9
	c0-0.5,0.1-0.8,0.3-1.1s0.5-0.4,0.9-0.4h0.4c0.4,0,0.7,0.1,0.9,0.2s0.4,0.3,0.6,0.6l5.6,7.7v-7.2c0-0.9,0.4-1.3,1.3-1.3h0.3
	c0.8,0,1.2,0.5,1.2,1.3v10.3c0,0.5-0.1,0.8-0.3,1.1s-0.5,0.4-0.9,0.4h-0.2c-0.2,0-0.4,0-0.5,0c-0.1,0-0.2-0.1-0.3-0.1
	s-0.2-0.1-0.3-0.2s-0.2-0.2-0.3-0.3l-5.8-8v7.4c0,0.9-0.4,1.3-1.3,1.3L84.1,85.6L84.1,85.6z M104.9,85.8c-1,0-1.9-0.2-2.7-0.5
	c-0.8-0.3-1.5-0.8-2.1-1.4c-0.6-0.6-1-1.3-1.4-2.1S98.2,80,98.2,79s0.2-1.9,0.5-2.7s0.8-1.5,1.4-2.1c0.6-0.6,1.3-1.1,2.1-1.4
	c0.8-0.3,1.7-0.5,2.7-0.5s1.9,0.2,2.7,0.5s1.5,0.8,2.1,1.4c0.6,0.6,1,1.3,1.4,2.1s0.5,1.7,0.5,2.7s-0.2,1.9-0.5,2.7
	c-0.3,0.8-0.8,1.5-1.4,2.1s-1.3,1.1-2.1,1.4C106.8,85.6,105.8,85.8,104.9,85.8C104.9,85.8,104.9,85.8,104.9,85.8z M104.9,83.1
	c0.6,0,1.1-0.1,1.5-0.3s0.8-0.5,1.2-0.8c0.3-0.4,0.6-0.8,0.8-1.3c0.2-0.5,0.3-1.1,0.3-1.7s-0.1-1.2-0.3-1.7
	c-0.2-0.5-0.4-0.9-0.8-1.3s-0.7-0.7-1.2-0.9c-0.5-0.2-1-0.3-1.5-0.3s-1.1,0.1-1.5,0.3s-0.8,0.5-1.2,0.8c-0.3,0.4-0.6,0.8-0.8,1.3
	c-0.2,0.5-0.3,1.1-0.3,1.7s0.1,1.2,0.3,1.7c0.2,0.5,0.4,0.9,0.8,1.3s0.7,0.6,1.2,0.8C103.8,83,104.3,83.1,104.9,83.1
	C104.9,83.1,104.9,83.1,104.9,83.1z M119.1,85.8c-0.9,0-1.6-0.1-2.2-0.2c-0.6-0.2-1.2-0.4-1.6-0.6c-0.4-0.3-0.7-0.5-0.9-0.8
	c-0.2-0.3-0.3-0.6-0.3-0.9c0-0.2,0.1-0.4,0.2-0.6c0.1-0.2,0.2-0.3,0.4-0.5s0.3-0.2,0.4-0.3c0.1-0.1,0.2-0.1,0.2-0.1
	c0.2,0.2,0.4,0.5,0.7,0.7c0.3,0.2,0.6,0.4,0.9,0.6c0.3,0.2,0.7,0.3,1.1,0.4c0.4,0.1,0.8,0.2,1.2,0.2c0.8,0,1.4-0.1,1.8-0.4
	s0.6-0.7,0.6-1.2c0-0.3-0.1-0.5-0.2-0.7c-0.2-0.2-0.4-0.3-0.6-0.4c-0.3-0.1-0.6-0.2-0.9-0.3c-0.3-0.1-0.7-0.2-1.1-0.2
	c-0.5-0.1-1-0.3-1.5-0.4c-0.5-0.2-1-0.4-1.4-0.7s-0.7-0.7-1-1.1s-0.4-1-0.4-1.7c0-0.6,0.1-1.2,0.3-1.6c0.2-0.5,0.6-0.9,1-1.3
	c0.4-0.3,1-0.6,1.6-0.8s1.3-0.3,2.1-0.3s1.5,0.1,2.1,0.2c0.6,0.1,1.1,0.3,1.5,0.5c0.4,0.2,0.7,0.5,0.9,0.8c0.2,0.3,0.3,0.6,0.3,0.8
	c0,0.2-0.1,0.4-0.2,0.6s-0.2,0.4-0.4,0.5s-0.3,0.2-0.4,0.3c-0.1,0.1-0.2,0.1-0.2,0.1c-0.4-0.5-0.9-0.8-1.5-1.1
	c-0.6-0.3-1.3-0.5-2-0.5s-1.3,0.1-1.7,0.4c-0.4,0.3-0.6,0.7-0.6,1.1c0,0.3,0.1,0.5,0.2,0.7c0.1,0.2,0.3,0.3,0.6,0.4s0.5,0.2,0.9,0.3
	c0.3,0.1,0.7,0.1,1.1,0.2c0.6,0.1,1.2,0.3,1.7,0.5c0.5,0.2,1,0.4,1.4,0.8c0.4,0.3,0.7,0.7,1,1.1s0.4,1,0.4,1.6c0,1.3-0.5,2.3-1.4,3
	C122.1,85.4,120.8,85.8,119.1,85.8L119.1,85.8L119.1,85.8z"/>
<path class="voitanos1" d="M68.3,54.7c0.6-1.7,1.9-3.3,5-3.6h0.8c1.6-0.1,2.2-1,2.1-2.5c-0.1-0.8-0.2-1.2,0.4-1.6c0.9-0.5-0.3-0.8,0.5-1.9
	l0.2-0.2l-0.3-1.4L77,43.1c0.7,0,1.6,0.1,2.1-0.2c0.3-0.2,0.3-0.5-0.2-1.3c-2.6-3.3-2.4-3.8-2-4.9c0.2-0.6,0.5-1.4,0.2-3.2
	c-0.2-1-0.5-1.9-1-2.7l0,0l0,0l-1,1c-0.4,0.4-1,0.5-1.5,0.1c-0.4-0.4-0.5-1-0.1-1.5l2.1-2.3l1.3-1.5l0.7-0.8c0,0,0-0.1,0.1-0.1
	l2.4-2.7l0,0l0,0l1.3-1.5c0.4-0.4,1-0.5,1.5-0.1c0.4,0.4,0.5,1,0.1,1.5l-2.4,2.7c-0.2,0.4-0.1,0.9,0.2,1.3c0.4,0.4,1.1,0.3,1.5-0.1
	l1.1-1.3l0.3-0.3l0.5,0.3l7.9,4.6c7.4,4.3,7.4,12.5,0,16.8l-11.8,6.8l-13.4,7.7h0c-2.3,1.1-4.1,1.6-5.6,1.5
	c-1.7-0.1-2.8-0.8-3.4-2.1c-0.6-1.2-0.9-2.8-0.8-4.7c0.2-4.5,2-10.3,3.7-14.6l0-0.1l1.6-4.6l0.1-0.2H66v0.7h-2.9l-1.6,4.3l0,0.1
	c-1.7,4.2-3.5,10-3.6,14.4c-0.1,1.8,0.1,3.3,0.7,4.3c0.6,1,1.5,1.7,2.9,1.7C65.4,62.5,67.1,58.2,68.3,54.7L68.3,54.7L68.3,54.7z"/>
<path class="voitanos0" d="M75.3,20.6c0,0-0.1,0.1-0.1,0.1l-0.6,0.7l0,0l-0.7,0.8c0,0,0,0-0.1,0.1L72,24.4l-1.2,1.3l-0.3,0.4
	c0,0,0,0-0.1,0.1l-0.6,0.6c-0.4,0.4-1,0.5-1.5,0.1c-0.4-0.4-0.5-1.1-0.1-1.5l0.4-0.4c-0.8-0.2-1.7-0.4-2.5-0.4c-0.3,0-0.5,0-0.8,0
	l0,0c-1.6,0-3.2,0.2-4.7,0.7l0,0c-0.2,0.1-0.5,0.2-0.7,0.2h0l0,0l0,0l0,0c-4.9,2-7.3,5-8.5,9.3v0c-1,3.4-0.1,7.4,1.1,9.6
	c0.4,0.7,0.8,1.2,1.3,1.4c0.4,0.3,0.9,0.3,1.4,0.2c1-0.3,2-1.6,2.9-4.3l0.1-0.3l0.7,0.2l-0.1,0.3c-1,2.8-2.2,4.3-3.3,4.7
	c-0.7,0.2-1.4,0.2-2-0.2c-0.6-0.3-1.1-0.9-1.6-1.7c-0.8-1.3-1.4-3.2-1.6-5.3c-0.6-5.9,2.8-10,3.5-10.8l0-5.4
	c0-6.8,4.9-12.2,14.5-6.7l3.3,1.9l-1,1.1c-0.4,0.4-0.3,1.1,0.1,1.5c0.4,0.3,0.9,0.3,1.3,0.1l1.3-1.4l0.2-0.2l0,0l1.7-2
	c0.4-0.4,1-0.5,1.5-0.1s0.5,1,0.1,1.5L75.3,20.6L75.3,20.6L75.3,20.6z"/>
<path class="voitanos0" d="M71.4,27.5l1.3-1.5l1.4-1.6c0.4-0.4,1-0.5,1.5-0.1c0.4,0.4,0.5,1,0.1,1.5l-1.6,1.8L73,28.9
	c-0.4,0.4-1,0.5-1.5,0.1C71.1,28.6,71.1,27.9,71.4,27.5L71.4,27.5L71.4,27.5z"/>
<path class="voitanos1" d="M79.8,18c0.4-0.4,1-0.5,1.5-0.1c0.4,0.4,0.5,1,0.1,1.5L78,23.1c-0.4,0.4-1,0.5-1.5,0.1s-0.5-1-0.1-1.5L79.8,18
	L79.8,18L79.8,18z"/>
<polygon class="voitanos0" points="58.3,41.7 58.9,42 60.8,36.8 53.6,36.8 53.6,37.5 59.8,37.5 58.3,41.7 "/>
<polygon class="voitanos1" points="65.3,32.7 65.3,32 65.3,32 65.3,27.4 64.6,27.4 64.6,32.7 65.3,32.7 "/>
<polygon class="voitanos0" points="55.8,30.8 55.1,30.8 55.1,32.7 57.4,32.7 57.4,32 55.8,32 55.8,30.8 "/>
<polygon class="voitanos1" points="64.6,34.4 64.6,35.1 70.1,35.1 70.1,34.4 64.6,34.4 "/>
<polygon class="voitanos0" points="54,34.4 54,35.1 62.9,35.1 62.9,29.8 60.6,27.6 60.1,28.1 62.2,30.1 62.2,34.4 54,34.4 "/>
<polygon class="voitanos1" points="69.4,34.9 70.1,34.9 70.1,30.6 69.4,30.6 69.4,34.9 "/>
<polygon class="voitanos1" points="68.7,36.8 68.7,37.5 72.5,37.5 72.5,33.3 71.8,33.3 71.8,36.8 68.7,36.8 "/>
<polygon class="voitanos0" points="59.7,32.7 60.5,32.7 60.5,31 60.5,30.8 58.2,28.7 57.7,29.2 59.7,31.1 59.7,32.7 "/>
<polygon class="voitanos1" points="67.7,28.5 67,28.5 67,32.3 67.7,32.3 67.7,28.5 "/>
<path class="voitanos0" d="M53.6,36.4c0.4,0,0.8,0.4,0.8,0.8S54,38,53.6,38s-0.8-0.4-0.8-0.8S53.2,36.4,53.6,36.4L53.6,36.4z"/>
<path class="voitanos0" d="M54,33.9c0.4,0,0.8,0.4,0.8,0.8s-0.4,0.8-0.8,0.8s-0.8-0.4-0.8-0.8S53.6,33.9,54,33.9L54,33.9z"/>
<path class="voitanos0" d="M55.4,30c0.4,0,0.8,0.4,0.8,0.8s-0.4,0.8-0.8,0.8s-0.8-0.4-0.8-0.8S55,30,55.4,30L55.4,30z"/>
<path class="voitanos0" d="M57.4,31.5c0.4,0,0.8,0.4,0.8,0.8s-0.4,0.8-0.8,0.8s-0.8-0.4-0.8-0.8S57,31.5,57.4,31.5L57.4,31.5z"/>
<path class="voitanos0" d="M60.1,31.5c0.4,0,0.8,0.4,0.8,0.8s-0.4,0.8-0.8,0.8s-0.8-0.4-0.8-0.8S59.7,31.5,60.1,31.5L60.1,31.5z"/>
<path class="voitanos0" d="M58,28.1c0.4,0,0.8,0.4,0.8,0.8s-0.4,0.8-0.8,0.8s-0.8-0.4-0.8-0.8S57.5,28.1,58,28.1L58,28.1z"/>
<path class="voitanos0" d="M60.3,27.1c0.4,0,0.8,0.4,0.8,0.8s-0.4,0.8-0.8,0.8s-0.8-0.4-0.8-0.8S59.9,27.1,60.3,27.1
	C60.3,27.1,60.3,27.1,60.3,27.1z"/>
<path class="voitanos1" d="M64.9,26.6c0.4,0,0.8,0.4,0.8,0.8c0,0.4-0.4,0.8-0.8,0.8s-0.8-0.4-0.8-0.8S64.5,26.6,64.9,26.6
	C64.9,26.6,64.9,26.6,64.9,26.6z"/>
<path class="voitanos1" d="M67.4,31.5c0.4,0,0.8,0.4,0.8,0.8c0,0.4-0.4,0.8-0.8,0.8s-0.8-0.4-0.8-0.8C66.5,31.9,66.9,31.5,67.4,31.5
	L67.4,31.5z"/>
<path class="voitanos1" d="M67.4,27.2c0.4,0,0.8,0.4,0.8,0.8s-0.4,0.8-0.8,0.8s-0.8-0.4-0.8-0.8S66.9,27.2,67.4,27.2
	C67.4,27.2,67.4,27.2,67.4,27.2z"/>
<path class="voitanos1" d="M64.6,33.9c0.4,0,0.8,0.4,0.8,0.8s-0.4,0.8-0.8,0.8s-0.8-0.4-0.8-0.8S64.1,33.9,64.6,33.9L64.6,33.9z"/>
<path class="voitanos1" d="M69.8,29.5c0.4,0,0.8,0.4,0.8,0.8s-0.4,0.8-0.8,0.8S69,30.7,69,30.3S69.3,29.5,69.8,29.5L69.8,29.5z"/>
<path class="voitanos1" d="M72.2,32.5c0.4,0,0.8,0.4,0.8,0.8s-0.4,0.8-0.8,0.8s-0.8-0.4-0.8-0.8S71.7,32.5,72.2,32.5L72.2,32.5z"/>
<path class="voitanos1" d="M68.7,36.4c0.4,0,0.8,0.4,0.8,0.8S69.2,38,68.7,38s-0.8-0.4-0.8-0.8S68.3,36.4,68.7,36.4L68.7,36.4z"/>
<path class="voitanos1" d="M66,36.4c0.4,0,0.8,0.4,0.8,0.8S66.5,38,66,38s-0.8-0.4-0.8-0.8S65.6,36.4,66,36.4L66,36.4z"/>
<path class="voitanos1" d="M64.9,31.5c0.4,0,0.8,0.4,0.8,0.8c0,0.4-0.4,0.8-0.8,0.8s-0.8-0.4-0.8-0.8C64.1,31.9,64.5,31.5,64.9,31.5
	L64.9,31.5z"/>
</svg>
