<svg xmlns="http://www.w3.org/2000/svg" xmlns:xlink="http://www.w3.org/1999/xlink" viewBox="0 0 223.19 155.91"><defs><clipPath id="a" transform="translate(29.76)"><ellipse cx="81.84" cy="77.95" rx="81.84" ry="77.95" style="fill:none"/></clipPath></defs><g style="clip-path:url(#a)"><rect width="223.19" height="17.24" style="fill:#eaae57"/><rect y="19.81" width="223.19" height="17.24" style="fill:#e89f62"/><rect y="39.62" width="223.19" height="17.24" style="fill:#dd778e"/><rect y="59.43" width="223.19" height="17.24" style="fill:#c85d94"/><rect y="79.24" width="223.19" height="17.24" style="fill:#b94d8e"/><rect y="99.04" width="223.19" height="17.24" style="fill:#d65088"/><rect y="118.85" width="223.19" height="17.24" style="fill:#e18d86"/><rect y="138.66" width="223.19" height="17.24" style="fill:#e1c467"/></g><path d="M43.33,117.24a1,1,0,0,1-1-1V83H30.77v33.18a1,1,0,0,1-1.05,1h-11a1,1,0,0,1-1.05-1V39.31a1,1,0,0,1,1.05-1.05h11a1,1,0,0,1,1.05,1.05V71.19H42.28V39.31a1,1,0,0,1,1-1.05h11a1,1,0,0,1,1,1.05v76.88a1,1,0,0,1-1,1Z" transform="translate(29.76)" style="fill:#e1c467"/><path d="M54.34,39.31v76.88h-11V82H29.72v34.23h-11V39.31h11V72.24H43.33V39.31h11m0-2.1h-11a2.1,2.1,0,0,0-2.1,2.1V70.14H31.82V39.31a2.1,2.1,0,0,0-2.1-2.1h-11a2.11,2.11,0,0,0-2.1,2.1v76.88a2.11,2.11,0,0,0,2.1,2.1h11a2.1,2.1,0,0,0,2.1-2.1V84.06h9.41v32.13a2.1,2.1,0,0,0,2.1,2.1h11a2.1,2.1,0,0,0,2.1-2.1V39.31a2.1,2.1,0,0,0-2.1-2.1Z" transform="translate(29.76)" style="fill:#fff"/><path d="M61.45,117.24a1,1,0,0,1-1.05-1V87.59a1,1,0,0,1,.93-1L71.55,85.4,61.26,83.58a1.05,1.05,0,0,1-.86-1V75.21a1.05,1.05,0,0,1,.86-1l10.64-1.9L61.34,71.15a1.05,1.05,0,0,1-.94-1.05V60.37a1.05,1.05,0,0,1,.36-.8,1.08,1.08,0,0,1,.69-.25h.15l1.55.23a12.7,12.7,0,0,1-2.3-4,13.4,13.4,0,0,1,2.36-13.18,12.81,12.81,0,0,1,4.19-3A13.48,13.48,0,0,1,73,38.26H95.24a13.31,13.31,0,0,1,5.69,1.14,12,12,0,0,1,4,3,13,13,0,0,1,2.45,4.13,13.16,13.16,0,0,1,0,9.09,12.16,12.16,0,0,1-2.49,4.12,11.69,11.69,0,0,1-4,3,13.4,13.4,0,0,1-5.69,1.13H91.85L107,66.08a1.05,1.05,0,0,1,.89,1v8.46a1,1,0,0,1-.87,1L93.67,78.86,107,81.07a1.06,1.06,0,0,1,.87,1v8.46a1,1,0,0,1-.89,1L71.42,96.89v2h35.39a1,1,0,0,1,1,1.05v9.28a1,1,0,0,1-1,1.05H71.42v5.93a1,1,0,0,1-1,1ZM73,49.64c-.71,0-1.08.14-1.19.28a1.58,1.58,0,0,0-.4,1.13,1.6,1.6,0,0,0,.4,1.13s.28.27,1.19.27H95.24c.91,0,1.15-.23,1.19-.27a1.6,1.6,0,0,0,.4-1.13,1.62,1.62,0,0,0-.4-1.14c-.11-.13-.48-.27-1.19-.27Z" transform="translate(29.76)" style="fill:#e1c467"/><path d="M95.24,39.31a12.35,12.35,0,0,1,5.25,1,11.11,11.11,0,0,1,3.67,2.71,11.84,11.84,0,0,1,2.25,3.8,12.08,12.08,0,0,1,0,8.38A11.1,11.1,0,0,1,104.13,59a10.35,10.35,0,0,1-3.64,2.74,12.32,12.32,0,0,1-5.25,1H77.67l29.14,4.34v8.46L87.33,78.86l19.48,3.25v8.46L70.37,96v3.94h36.44v9.28H70.37v7H61.45V87.59l17.43-2L61.45,82.54V75.21L79.34,72,61.45,70.1V60.37l5.24.78A10.61,10.61,0,0,1,64,59a11.76,11.76,0,0,1-2.2-3.74,12.08,12.08,0,0,1,0-8.38A12.43,12.43,0,0,1,64,43.08a11.55,11.55,0,0,1,3.82-2.74,12.52,12.52,0,0,1,5.17-1H95.24M73,53.5H95.24a2.51,2.51,0,0,0,2-.64,2.86,2.86,0,0,0,0-3.63,2.55,2.55,0,0,0-2-.64H73a2.55,2.55,0,0,0-2,.64,2.86,2.86,0,0,0,0,3.63,2.51,2.51,0,0,0,2,.64M95.24,37.21H73a14.55,14.55,0,0,0-6,1.22,13.81,13.81,0,0,0-4.5,3.23l-.06.07A14.35,14.35,0,0,0,61,58.32a2.18,2.18,0,0,0-.91.46,2.1,2.1,0,0,0-.72,1.59V70.1a2.09,2.09,0,0,0,1.87,2.09l3.23.34-3.37.61a2.09,2.09,0,0,0-1.73,2.07v7.33a2.1,2.1,0,0,0,1.73,2.07l3.14.56-3,.34a2.09,2.09,0,0,0-1.86,2.08v28.6a2.1,2.1,0,0,0,2.1,2.1h8.92a2.1,2.1,0,0,0,2.1-2.1v-4.88h34.34a2.11,2.11,0,0,0,2.1-2.1V99.93a2.11,2.11,0,0,0-2.1-2.1H72.47v0l34.64-5.16a2.1,2.1,0,0,0,1.8-2.07V82.11A2.1,2.1,0,0,0,107.15,80L100,78.85l7.13-1.2a2.1,2.1,0,0,0,1.76-2.07V67.12a2.1,2.1,0,0,0-1.8-2.07l-6.7-1c.33-.12.66-.26,1-.4a12.72,12.72,0,0,0,4.33-3.26A13.13,13.13,0,0,0,108.39,56a14.23,14.23,0,0,0,0-9.8,13.9,13.9,0,0,0-2.66-4.48,13,13,0,0,0-4.35-3.22,14.44,14.44,0,0,0-6.14-1.24ZM72.53,50.73a2.27,2.27,0,0,1,.48,0H95.24a2.27,2.27,0,0,1,.48,0,.62.62,0,0,1,.06.32.76.76,0,0,1,0,.31,2.46,2.46,0,0,1-.49,0H73a2.27,2.27,0,0,1-.48,0,.6.6,0,0,1-.06-.31.62.62,0,0,1,.06-.32Z" transform="translate(29.76)" style="fill:#fff"/><path d="M132.38,117.89a20.56,20.56,0,0,1-7-1.25,18.49,18.49,0,0,1-6.24-3.78,17.58,17.58,0,0,1-4.56-6,20.58,20.58,0,0,1-1.72-8.76V57.45a20.72,20.72,0,0,1,1.72-8.64,18.23,18.23,0,0,1,4.58-6.29,19.28,19.28,0,0,1,6.22-3.66,20.67,20.67,0,0,1,20.31,3.64,19.18,19.18,0,0,1,4.49,6.31,20.72,20.72,0,0,1,1.71,8.64v40.6a20.58,20.58,0,0,1-1.72,8.76,18.33,18.33,0,0,1-4.47,6.07,19.64,19.64,0,0,1-6.33,3.76A20.55,20.55,0,0,1,132.38,117.89Zm0-67.17a6.74,6.74,0,0,0-4.56,1.64c-1.24,1.06-1.84,2.73-1.84,5.09v40.6c0,2.36.6,4,1.84,5.09a7.15,7.15,0,0,0,9.11,0c1.24-1.06,1.85-2.73,1.85-5.09V57.45c0-2.36-.61-4-1.85-5.09A6.73,6.73,0,0,0,132.38,50.72Z" transform="translate(29.76)" style="fill:#e1c467"/><path d="M132.38,38.66A19.88,19.88,0,0,1,145,43.3a18.18,18.18,0,0,1,4.21,5.94,19.69,19.69,0,0,1,1.62,8.21v40.6a19.51,19.51,0,0,1-1.62,8.32,17.13,17.13,0,0,1-4.21,5.72,18.59,18.59,0,0,1-6,3.56,19.12,19.12,0,0,1-13.28,0,17.35,17.35,0,0,1-5.89-3.56,16.49,16.49,0,0,1-4.32-5.72,19.51,19.51,0,0,1-1.62-8.32V57.45a19.69,19.69,0,0,1,1.62-8.21,17.46,17.46,0,0,1,4.32-5.94,18.25,18.25,0,0,1,5.89-3.45,19.43,19.43,0,0,1,6.64-1.19m0,67.17a7.79,7.79,0,0,0,5.23-1.89q2.22-1.89,2.22-5.89V57.45c0-2.66-.74-4.63-2.22-5.89a8.2,8.2,0,0,0-10.47,0c-1.48,1.26-2.21,3.23-2.21,5.89v40.6c0,2.67.73,4.63,2.21,5.89a7.8,7.8,0,0,0,5.24,1.89m0-69.27A21.69,21.69,0,0,0,125,37.87a20.55,20.55,0,0,0-6.55,3.85,19.62,19.62,0,0,0-4.85,6.65,21.84,21.84,0,0,0-1.81,9.08v40.6a21.59,21.59,0,0,0,1.82,9.21,18.65,18.65,0,0,0,4.84,6.41,19.46,19.46,0,0,0,6.55,4,21.3,21.3,0,0,0,14.71,0,20.8,20.8,0,0,0,6.67-4,19.26,19.26,0,0,0,4.72-6.41,21.59,21.59,0,0,0,1.82-9.21V57.45a21.84,21.84,0,0,0-1.81-9.08,20.21,20.21,0,0,0-4.7-6.61l-.07-.06a21.87,21.87,0,0,0-14-5.14Zm0,67.17a5.74,5.74,0,0,1-3.88-1.39c-1-.85-1.47-2.25-1.47-4.29V57.45c0-2,.48-3.44,1.47-4.29a6.1,6.1,0,0,1,7.75,0c1,.85,1.48,2.25,1.48,4.29v40.6c0,2-.49,3.44-1.48,4.29a5.73,5.73,0,0,1-3.87,1.39Z" transform="translate(29.76)" style="fill:#fff"/></svg>