<svg xmlns="http://www.w3.org/2000/svg" width="546" height="100" viewBox="0 0 546 100"><g transform="translate(27.107 4.386)"><path d="M6.264,20.84A16.757,16.757,0,0,1,0,19.625l.663-3.008a18.722,18.722,0,0,0,5.661.941c2.741,0,3.193-.576,3.193-2.521,0-2.248-.061-2.43-3.674-3.221C.994,10.724.332,9.782.332,5.5.332,1.823,1.988,0,7.077,0a27.146,27.146,0,0,1,5.842.668L12.5,3.889a26.106,26.106,0,0,0-5.361-.608c-2.56,0-3.012.547-3.012,2.309,0,2.309.061,2.37,3.524,3.22,5.39,1.307,5.661,2.188,5.661,6.228,0,3.827-1.115,5.8-7.047,5.8" transform="translate(0 0)" fill="#00aec7"/><path d="M7.589,20.84c-2.641,0-4.632-.622-5.917-1.849A5.128,5.128,0,0,1,.39,17.008a7.017,7.017,0,0,1-.39-2.4V6.228a7.017,7.017,0,0,1,.39-2.4A5.128,5.128,0,0,1,1.671,1.849C2.957.622,4.948,0,7.589,0s4.632.622,5.918,1.849a5.127,5.127,0,0,1,1.281,1.983,7.02,7.02,0,0,1,.389,2.4v8.385a7.019,7.019,0,0,1-.389,2.4,5.127,5.127,0,0,1-1.281,1.983C12.221,20.218,10.23,20.84,7.589,20.84Zm0-17.468a4.359,4.359,0,0,0-2.958.816A2.831,2.831,0,0,0,3.794,6.44V14.4a2.831,2.831,0,0,0,.836,2.252,4.359,4.359,0,0,0,2.958.816,4.361,4.361,0,0,0,2.959-.816,2.831,2.831,0,0,0,.836-2.252V6.44a2.831,2.831,0,0,0-.836-2.251A4.361,4.361,0,0,0,7.589,3.372Z" transform="translate(16.623 0)" fill="#00aec7"/></g><path d="M0,0V20.28H11.871V16.9H3.739V0Z" transform="translate(63.806 4.946)" fill="#00aec7"/><path d="M13.812,0,8.9,16.9,3.995,0H0L6.067,20.28h5.672L17.806,0Z" transform="translate(73.699 4.946)" fill="#00aec7"/><path d="M0,20.28H3.957V0H0Z" transform="translate(94.473 4.946)" fill="#00aec7"/><path d="M7.419,20.774c-2.582,0-4.528-.62-5.785-1.843A5.123,5.123,0,0,1,.381,16.954,7.122,7.122,0,0,1,0,14.566V6.208A7.121,7.121,0,0,1,.381,3.82,5.123,5.123,0,0,1,1.634,1.843C2.891.62,4.837,0,7.419,0S11.948.62,13.2,1.843A5.123,5.123,0,0,1,14.458,3.82a7.12,7.12,0,0,1,.381,2.388v8.358a7.121,7.121,0,0,1-.381,2.388A5.123,5.123,0,0,1,13.2,18.931C11.948,20.154,10,20.774,7.419,20.774Zm0-17.413a4.2,4.2,0,0,0-2.893.814,2.852,2.852,0,0,0-.817,2.244v7.935A2.852,2.852,0,0,0,4.526,16.6a4.2,4.2,0,0,0,2.893.813,4.2,4.2,0,0,0,2.893-.813,2.852,2.852,0,0,0,.817-2.244V6.419a2.853,2.853,0,0,0-.817-2.244A4.2,4.2,0,0,0,7.419,3.361Z" transform="translate(102.387 4.452)" fill="#00aec7"/><path d="M13.015,0V15.409L5.193,0H0V20.28H3.8V4.9L11.624,20.28h5.193V0Z" transform="translate(121.183 4.946)" fill="#00aec7"/><path d="M0,0V4.946H9.892L14.839,0Z" transform="translate(4.946 20.28)" fill="#00aec7"/><path d="M0,0V14.839L4.946,9.892V0Z" transform="translate(14.839 10.387)" fill="#00aec7"/><path d="M4.946,0,0,4.946H14.839V0Z" transform="translate(0 5.441)" fill="#00aec7"/><path d="M0,4.946v9.892H4.946V0Z" transform="translate(0 5.441)" fill="#00aec7"/><path d="M0,4.946H4.946V0H0Z" transform="translate(14.839)" fill="#00aec7"/></svg>