<?xml version="1.0" encoding="UTF-8"?><svg id="a" xmlns="http://www.w3.org/2000/svg" height="77" width="114" viewBox="0 0 228 153.03"><defs><style>.b{fill:#0e1f43;}.b,.c,.d{fill-rule:evenodd;}.c{fill:#d96000;}.d{fill:#fefefe;}</style></defs><polygon class="d" points="-282 -319.48 510 -319.48 510 472.52 -282 472.52 -282 -319.48 -282 -319.48"/><path class="b" d="m23.55,124.09c.29-.99.74-1.69,1.34-2.11.6-.42,1.23-.62,1.87-.62.48,0,.94.08,1.39.24.44.16.82.35,1.14.56.32.21.57.43.74.64.17.21.23.39.18.52l-8.91,22.17c-.35.78-.78,1.35-1.3,1.71-.52.36-1.26.54-2.23.54s-1.66-.17-2.17-.5c-.51-.33-.94-.92-1.29-1.75l-9.07-22.17c-.05-.13.01-.31.2-.52.19-.21.46-.43.8-.64.35-.21.75-.4,1.2-.56.45-.16.92-.24,1.41-.24.75,0,1.42.23,2.01.7.59.47,1.02,1.14,1.28,2.03l5.74,16.79,5.66-16.79h0Zm24.84,23.94c-1.95,0-3.75-.33-5.4-.98-1.65-.66-3.06-1.58-4.24-2.77-1.18-1.19-2.09-2.62-2.75-4.28-.66-1.66-.98-3.48-.98-5.46s.33-3.8,1-5.46c.67-1.66,1.6-3.09,2.79-4.28,1.19-1.19,2.6-2.12,4.24-2.79,1.63-.67,3.43-1,5.38-1s3.79.33,5.42,1c1.63.67,3.04,1.6,4.22,2.79,1.18,1.19,2.09,2.61,2.75,4.26.66,1.65.98,3.46.98,5.44s-.33,3.8-.98,5.46c-.66,1.66-1.58,3.09-2.77,4.28-1.19,1.19-2.6,2.12-4.24,2.79-1.63.67-3.44,1-5.42,1h0Zm.04-5.26c1.12,0,2.14-.19,3.05-.58.91-.39,1.7-.94,2.37-1.67.67-.72,1.18-1.59,1.55-2.61.36-1.02.54-2.14.54-3.37s-.19-2.36-.56-3.37c-.38-1.02-.89-1.89-1.55-2.63-.66-.74-1.45-1.31-2.37-1.71-.92-.4-1.95-.6-3.07-.6s-2.14.19-3.05.58c-.91.39-1.69.94-2.35,1.67-.66.72-1.16,1.59-1.53,2.61-.36,1.02-.54,2.16-.54,3.41s.18,2.36.54,3.37c.36,1.02.88,1.89,1.55,2.61.67.72,1.46,1.29,2.37,1.69.91.4,1.93.6,3.05.6h0Zm23.68,4.9c-1.69,0-2.53-.9-2.53-2.69v-20.93c0-1.79.84-2.69,2.53-2.69h.8c1.74,0,2.61.9,2.61,2.69v20.93c0,1.79-.87,2.69-2.61,2.69h-.8Zm13.12-20.97c-1.82,0-2.73-.86-2.73-2.57v-.16c0-1.63.91-2.45,2.73-2.45h17.63c1.82,0,2.73.82,2.73,2.45v.16c0,1.71-.91,2.57-2.73,2.57h-5.82v18.27c0,1.79-.87,2.69-2.61,2.69h-.84c-1.63,0-2.45-.9-2.45-2.69v-18.27h-5.9Zm38.74,9.76s-.05-.13-.14-.4c-.09-.27-.23-.62-.4-1.06-.17-.44-.37-.95-.58-1.53-.21-.58-.43-1.16-.64-1.75l-1.77-4.74-3.57,9.48h7.11Zm-8.23,4.42l-1.61,4.18c-.37,1.02-.86,1.73-1.45,2.13-.59.4-1.19.6-1.81.6-.4,0-.8-.07-1.2-.2-.4-.13-.75-.3-1.04-.5-.29-.2-.52-.4-.68-.6-.16-.2-.21-.37-.16-.5l8.87-22.93c.16-.54.51-.96,1.04-1.29.54-.32,1.47-.48,2.81-.48.67,0,1.23.04,1.69.12.46.08.82.2,1.1.36.28.16.5.35.66.56.16.21.28.45.36.72l9.07,22.89c.05.11,0,.27-.16.48-.16.21-.39.42-.7.62-.31.2-.66.38-1.06.52-.4.15-.83.22-1.28.22-.64,0-1.27-.2-1.89-.6-.62-.4-1.12-1.14-1.53-2.21l-1.57-4.1h-9.48Zm26.49,6.79c-1.63,0-2.45-.9-2.45-2.69v-20.68c0-.94.23-1.66.68-2.17.45-.51,1.08-.76,1.89-.76h.72c.78,0,1.36.13,1.75.4.39.27.81.7,1.26,1.29l11.24,15.46v-14.46c0-1.79.84-2.69,2.53-2.69h.56c1.66,0,2.49.9,2.49,2.69v20.68c0,.96-.23,1.69-.68,2.19-.45.5-1.07.74-1.85.74h-.48c-.4,0-.74-.03-1-.08-.27-.05-.5-.14-.7-.26-.2-.12-.39-.27-.56-.44-.17-.17-.37-.39-.58-.66l-11.68-16.07v14.82c0,1.79-.86,2.69-2.57,2.69h-.56Zm41.51.36c-1.95,0-3.75-.33-5.4-.98-1.65-.66-3.06-1.58-4.24-2.77-1.18-1.19-2.09-2.62-2.75-4.28-.66-1.66-.98-3.48-.98-5.46s.33-3.8,1-5.46c.67-1.66,1.6-3.09,2.79-4.28,1.19-1.19,2.6-2.12,4.24-2.79,1.63-.67,3.43-1,5.38-1s3.79.33,5.42,1c1.63.67,3.04,1.6,4.22,2.79,1.18,1.19,2.09,2.61,2.75,4.26.66,1.65.98,3.46.98,5.44s-.33,3.8-.98,5.46c-.66,1.66-1.58,3.09-2.77,4.28-1.19,1.19-2.6,2.12-4.24,2.79-1.63.67-3.44,1-5.42,1h0Zm.04-5.26c1.12,0,2.14-.19,3.05-.58.91-.39,1.7-.94,2.37-1.67.67-.72,1.18-1.59,1.55-2.61.36-1.02.54-2.14.54-3.37s-.19-2.36-.56-3.37c-.38-1.02-.89-1.89-1.55-2.63-.66-.74-1.45-1.31-2.37-1.71-.92-.4-1.95-.6-3.07-.6s-2.14.19-3.05.58c-.91.39-1.69.94-2.35,1.67-.66.72-1.16,1.59-1.53,2.61-.36,1.02-.54,2.16-.54,3.41s.18,2.36.54,3.37c.36,1.02.88,1.89,1.55,2.61.67.72,1.46,1.29,2.37,1.69.91.4,1.93.6,3.05.6h0Zm28.38,5.26c-1.71,0-3.21-.16-4.48-.48-1.27-.32-2.32-.74-3.13-1.25-.82-.51-1.43-1.07-1.83-1.69-.4-.62-.6-1.22-.6-1.81,0-.4.11-.79.32-1.16.21-.38.45-.7.72-.98.27-.28.52-.5.76-.66.24-.16.39-.21.44-.16.4.48.88.94,1.43,1.37.55.43,1.16.8,1.83,1.12.67.32,1.38.58,2.15.78.76.2,1.55.3,2.35.3,1.55,0,2.73-.27,3.53-.82.8-.55,1.2-1.33,1.2-2.35,0-.59-.15-1.06-.46-1.43-.31-.36-.72-.66-1.22-.88-.51-.23-1.1-.42-1.79-.58-.68-.16-1.41-.32-2.19-.48-1.04-.24-2.07-.54-3.07-.88-1-.35-1.91-.82-2.71-1.41-.8-.59-1.45-1.33-1.93-2.23-.48-.9-.72-2-.72-3.31,0-1.2.23-2.3.7-3.29.47-.99,1.14-1.83,2.03-2.53.88-.7,1.95-1.24,3.19-1.63,1.24-.39,2.64-.58,4.2-.58s2.95.14,4.12.42c1.16.28,2.14.65,2.91,1.1.78.45,1.36.96,1.75,1.53.39.56.58,1.12.58,1.69,0,.45-.12.88-.36,1.27-.24.39-.5.72-.78,1-.28.28-.55.5-.8.64-.25.15-.39.21-.42.18-.78-.91-1.77-1.67-2.99-2.29-1.22-.62-2.52-.92-3.91-.92s-2.56.28-3.33.84c-.78.56-1.16,1.31-1.16,2.25,0,.56.14,1.01.42,1.35.28.34.66.61,1.14.82.48.21,1.06.39,1.75.52.68.13,1.43.29,2.23.48,1.18.27,2.3.6,3.35.98,1.06.39,1.99.9,2.79,1.53.8.63,1.45,1.38,1.93,2.25.48.87.72,1.92.72,3.15,0,2.6-.91,4.62-2.73,6.07-1.82,1.45-4.46,2.17-7.91,2.17h0Z"/><path class="c" d="m110.67,85.84c1.14-3.35,3.81-6.63,9.95-7.19h1.66c3.26-.26,4.34-1.97,4.14-4.96-.11-1.6-.49-2.41.9-3.14,1.74-.92-.51-1.55,1.06-3.8l.32-.42-.52-2.78-.16-.78c1.34.03,3.27.13,4.17-.42.54-.33.61-1.06-.37-2.57-5.1-6.56-4.74-7.65-4.01-9.83.4-1.19.93-2.77.34-6.34-.42-1.91-1.07-3.72-1.94-5.42l-.07.08-.09.1-1.96,2.05c-.78.82-2.07.94-2.92.19-.85-.75-.96-2.08-.19-2.92l4.23-4.63,2.57-2.92,1.47-1.67c.04-.06.08-.11.13-.16l4.8-5.44.05-.06h0s2.67-3.03,2.67-3.03c.75-.85,2.07-.94,2.92-.19.86.75.94,2.07.19,2.92l-4.77,5.41c-.44.82-.27,1.88.46,2.52.85.75,2.18.68,2.92-.19l2.19-2.55.51-.58,1.05.61,15.86,9.16c14.74,8.51,14.71,25.04,0,33.53l-23.68,13.67-26.71,15.42h-.01c-4.63,2.26-8.28,3.2-11.1,3.1-3.33-.12-5.53-1.64-6.86-4.12-1.28-2.38-1.73-5.64-1.59-9.36.32-8.94,3.99-20.67,7.37-29.14l.08-.2,3.28-9.18.17-.47h6.88v1.43h-5.88l-3.22,8.63-.09.26c-3.34,8.37-6.96,19.94-7.28,28.71-.13,3.5.28,6.54,1.44,8.7,1.11,2.06,2.96,3.33,5.76,3.43,7.96.28,11.46-8.34,13.87-15.44h0Z"/><path class="b" d="m124.69,17.81c-.05.08-.11.15-.17.22l-1.27,1.45h0s-1.37,1.56-1.37,1.56c-.03.04-.07.09-.11.13l-3.65,4.13-2.34,2.66-.64.73s-.07.08-.11.11l-1.19,1.25c-.78.82-2.06.94-2.91.19-.85-.75-.98-2.1-.19-2.92l.85-.87c-1.63-.43-3.3-.71-5-.84-.51-.04-1.01-.06-1.52-.08h0c-3.21-.05-6.4.42-9.44,1.4h0c-.48.14-.95.31-1.41.49h-.02s-.02.01-.02.01l-.08.03h0c-9.89,3.91-14.54,10.01-16.97,18.69v-.02c-2.01,6.76-.28,14.81,2.27,19.14.77,1.31,1.66,2.3,2.61,2.86.87.52,1.81.66,2.75.32,1.93-.7,3.97-3.28,5.81-8.51l.18-.52,1.39.34-.24.65c-2,5.68-4.36,8.54-6.67,9.37-1.38.5-2.72.3-3.95-.43-1.16-.69-2.22-1.85-3.11-3.36-1.53-2.59-2.77-6.41-3.19-10.52-1.2-11.8,5.5-19.96,6.95-21.69l.02-10.81c0-13.62,9.87-24.5,29.09-13.4l6.56,3.79-1.95,2.27c-.75.85-.66,2.16.19,2.91.73.65,1.82.68,2.58.13l2.52-2.86.31-.35h0s3.46-3.92,3.46-3.92c.75-.85,2.06-.94,2.91-.19.85.75.94,2.06.19,2.92l-3.11,3.53h0Z"/><path class="b" d="m116.91,31.54l2.55-2.96,2.84-3.22c.75-.85,2.06-.94,2.91-.19.85.75.94,2.06.19,2.92l-3.2,3.64-2.19,2.55c-.74.86-2.06.93-2.91.19-.85-.75-.94-2.06-.19-2.91h0Z"/><path class="c" d="m133.67,12.42c.75-.85,2.06-.94,2.92-.19.85.75.94,2.06.19,2.92l-6.73,7.63c-.75.85-2.06.94-2.91.19-.85-.75-.94-2.06-.19-2.92l6.73-7.63h0Z"/><polygon class="b" points="90.55 59.95 91.89 60.43 95.58 50.13 81.22 50.13 81.22 51.56 93.56 51.56 90.55 59.95 90.55 59.95"/><polygon class="c" points="104.61 41.89 104.61 40.46 104.61 40.46 104.61 31.33 103.18 31.33 103.18 41.89 104.61 41.89 104.61 41.89"/><polygon class="b" points="85.59 38.15 84.16 38.15 84.16 41.89 88.84 41.89 88.84 40.47 85.59 40.47 85.59 38.15 85.59 38.15"/><polygon class="c" points="103.18 45.29 103.18 46.72 114.28 46.72 114.28 45.29 103.18 45.29 103.18 45.29"/><polygon class="b" points="82.05 45.29 82.05 46.72 99.78 46.72 99.78 36.15 95.16 31.75 94.18 32.78 98.35 36.75 98.35 45.29 82.05 45.29 82.05 45.29"/><polygon class="c" points="112.85 46.36 114.28 46.36 114.28 37.79 112.85 37.79 112.85 46.36 112.85 46.36"/><polygon class="c" points="111.48 50.13 111.48 51.55 119.11 51.55 119.11 43.07 117.68 43.07 117.68 50.13 111.48 50.13 111.48 50.13"/><polygon class="b" points="93.5 41.89 94.93 41.89 94.95 38.49 94.95 38.18 90.43 33.9 89.45 34.93 93.52 38.79 93.5 41.89 93.5 41.89"/><polygon class="c" points="109.45 33.56 108.02 33.56 108.02 41.18 109.45 41.18 109.45 33.56 109.45 33.56"/><path class="b" d="m81.22,49.23c.89,0,1.61.72,1.61,1.61s-.72,1.61-1.61,1.61-1.61-.72-1.61-1.61.72-1.61,1.61-1.61h0Z"/><path class="b" d="m82.05,44.39c.89,0,1.61.72,1.61,1.61s-.72,1.61-1.61,1.61-1.61-.72-1.61-1.61.72-1.61,1.61-1.61h0Z"/><path class="b" d="m84.88,36.54c.89,0,1.61.72,1.61,1.61s-.72,1.61-1.61,1.61-1.61-.72-1.61-1.61.72-1.61,1.61-1.61h0Z"/><path class="b" d="m88.84,39.57c.89,0,1.61.72,1.61,1.61s-.72,1.61-1.61,1.61-1.61-.72-1.61-1.61.72-1.61,1.61-1.61h0Z"/><path class="b" d="m94.22,39.57c.89,0,1.61.72,1.61,1.61s-.72,1.61-1.61,1.61-1.61-.72-1.61-1.61.72-1.61,1.61-1.61h0Z"/><path class="b" d="m89.94,32.8c.89,0,1.61.72,1.61,1.61s-.72,1.61-1.61,1.61-1.61-.72-1.61-1.61.72-1.61,1.61-1.61h0Z"/><path class="b" d="m94.67,30.65c.89,0,1.61.72,1.61,1.61s-.72,1.61-1.61,1.61-1.61-.72-1.61-1.61.72-1.61,1.61-1.61h0Z"/><path class="c" d="m103.9,29.72c.89,0,1.61.72,1.61,1.61s-.72,1.61-1.61,1.61-1.61-.72-1.61-1.61.72-1.61,1.61-1.61h0Z"/><path class="c" d="m108.73,39.56c.89,0,1.61.72,1.61,1.61s-.72,1.61-1.61,1.61-1.61-.72-1.61-1.61.72-1.61,1.61-1.61h0Z"/><path class="c" d="m108.73,30.99c.89,0,1.61.72,1.61,1.61s-.72,1.61-1.61,1.61-1.61-.72-1.61-1.61.72-1.61,1.61-1.61h0Z"/><path class="c" d="m103.18,44.39c.89,0,1.61.72,1.61,1.61s-.72,1.61-1.61,1.61-1.61-.72-1.61-1.61.72-1.61,1.61-1.61h0Z"/><path class="c" d="m113.57,35.45c.89,0,1.61.72,1.61,1.61s-.72,1.61-1.61,1.61-1.61-.72-1.61-1.61.72-1.61,1.61-1.61h0Z"/><path class="c" d="m118.4,41.45c.89,0,1.61.72,1.61,1.61s-.72,1.61-1.61,1.61-1.61-.72-1.61-1.61.72-1.61,1.61-1.61h0Z"/><path class="c" d="m111.48,49.23c.89,0,1.61.72,1.61,1.61s-.72,1.61-1.61,1.61-1.61-.72-1.61-1.61.72-1.61,1.61-1.61h0Z"/><path class="c" d="m106.08,49.23c.89,0,1.61.72,1.61,1.61s-.72,1.61-1.61,1.61-1.61-.72-1.61-1.61.72-1.61,1.61-1.61h0Z"/><path class="c" d="m103.9,39.56c.89,0,1.61.72,1.61,1.61s-.72,1.61-1.61,1.61-1.61-.72-1.61-1.61.72-1.61,1.61-1.61h0Z"/></svg>